<?xml version="1.0" encoding="utf-8"?>
<svg xmlns="http://www.w3.org/2000/svg" xmlns:xlink="http://www.w3.org/1999/xlink" width="760" height="420" viewBox="0 0 3040 1680">
<defs>
  <clipPath id="clip790">
    <rect x="0" y="0" width="3040" height="1680"/>
  </clipPath>
</defs>
<path clip-path="url(#clip790)" d="M0 1680 L3040 1680 L3040 9.14356e-14 L0 9.14356e-14  Z" fill="#ffffff" fill-rule="evenodd" fill-opacity="1"/>
<defs>
  <clipPath id="clip791">
    <rect x="608" y="0" width="2129" height="1680"/>
  </clipPath>
</defs>
<path clip-path="url(#clip790)" d="M314.573 1516.42 L2992.76 1516.42 L2992.76 98.8027 L314.573 98.8027  Z" fill="#ffffff" fill-rule="evenodd" fill-opacity="1"/>
<defs>
  <clipPath id="clip792">
    <rect x="314" y="98" width="2679" height="1419"/>
  </clipPath>
</defs>
<polyline clip-path="url(#clip792)" style="stroke:#000000; stroke-linecap:round; stroke-linejoin:round; stroke-width:2; stroke-opacity:0.1; fill:none" points="570.841,1516.42 570.841,98.8027 "/>
<polyline clip-path="url(#clip792)" style="stroke:#000000; stroke-linecap:round; stroke-linejoin:round; stroke-width:2; stroke-opacity:0.1; fill:none" points="931.782,1516.42 931.782,98.8027 "/>
<polyline clip-path="url(#clip792)" style="stroke:#000000; stroke-linecap:round; stroke-linejoin:round; stroke-width:2; stroke-opacity:0.1; fill:none" points="1292.72,1516.42 1292.72,98.8027 "/>
<polyline clip-path="url(#clip792)" style="stroke:#000000; stroke-linecap:round; stroke-linejoin:round; stroke-width:2; stroke-opacity:0.1; fill:none" points="1653.66,1516.42 1653.66,98.8027 "/>
<polyline clip-path="url(#clip792)" style="stroke:#000000; stroke-linecap:round; stroke-linejoin:round; stroke-width:2; stroke-opacity:0.1; fill:none" points="2014.61,1516.42 2014.61,98.8027 "/>
<polyline clip-path="url(#clip792)" style="stroke:#000000; stroke-linecap:round; stroke-linejoin:round; stroke-width:2; stroke-opacity:0.1; fill:none" points="2375.55,1516.42 2375.55,98.8027 "/>
<polyline clip-path="url(#clip792)" style="stroke:#000000; stroke-linecap:round; stroke-linejoin:round; stroke-width:2; stroke-opacity:0.1; fill:none" points="2736.49,1516.42 2736.49,98.8027 "/>
<polyline clip-path="url(#clip792)" style="stroke:#000000; stroke-linecap:round; stroke-linejoin:round; stroke-width:2; stroke-opacity:0.1; fill:none" points="314.573,1409.63 2992.76,1409.63 "/>
<polyline clip-path="url(#clip792)" style="stroke:#000000; stroke-linecap:round; stroke-linejoin:round; stroke-width:2; stroke-opacity:0.1; fill:none" points="314.573,1105.52 2992.76,1105.52 "/>
<polyline clip-path="url(#clip792)" style="stroke:#000000; stroke-linecap:round; stroke-linejoin:round; stroke-width:2; stroke-opacity:0.1; fill:none" points="314.573,801.406 2992.76,801.406 "/>
<polyline clip-path="url(#clip792)" style="stroke:#000000; stroke-linecap:round; stroke-linejoin:round; stroke-width:2; stroke-opacity:0.1; fill:none" points="314.573,497.296 2992.76,497.296 "/>
<polyline clip-path="url(#clip792)" style="stroke:#000000; stroke-linecap:round; stroke-linejoin:round; stroke-width:2; stroke-opacity:0.1; fill:none" points="314.573,193.186 2992.76,193.186 "/>
<polyline clip-path="url(#clip790)" style="stroke:#000000; stroke-linecap:round; stroke-linejoin:round; stroke-width:4; stroke-opacity:1; fill:none" points="314.573,1516.42 2992.76,1516.42 "/>
<polyline clip-path="url(#clip790)" style="stroke:#000000; stroke-linecap:round; stroke-linejoin:round; stroke-width:4; stroke-opacity:1; fill:none" points="570.841,1516.42 570.841,1497.52 "/>
<polyline clip-path="url(#clip790)" style="stroke:#000000; stroke-linecap:round; stroke-linejoin:round; stroke-width:4; stroke-opacity:1; fill:none" points="931.782,1516.42 931.782,1497.52 "/>
<polyline clip-path="url(#clip790)" style="stroke:#000000; stroke-linecap:round; stroke-linejoin:round; stroke-width:4; stroke-opacity:1; fill:none" points="1292.72,1516.42 1292.72,1497.52 "/>
<polyline clip-path="url(#clip790)" style="stroke:#000000; stroke-linecap:round; stroke-linejoin:round; stroke-width:4; stroke-opacity:1; fill:none" points="1653.66,1516.42 1653.66,1497.52 "/>
<polyline clip-path="url(#clip790)" style="stroke:#000000; stroke-linecap:round; stroke-linejoin:round; stroke-width:4; stroke-opacity:1; fill:none" points="2014.61,1516.42 2014.61,1497.52 "/>
<polyline clip-path="url(#clip790)" style="stroke:#000000; stroke-linecap:round; stroke-linejoin:round; stroke-width:4; stroke-opacity:1; fill:none" points="2375.55,1516.42 2375.55,1497.52 "/>
<polyline clip-path="url(#clip790)" style="stroke:#000000; stroke-linecap:round; stroke-linejoin:round; stroke-width:4; stroke-opacity:1; fill:none" points="2736.49,1516.42 2736.49,1497.52 "/>
<path clip-path="url(#clip790)" d="M565.494 1580 L581.813 1580 L581.813 1583.94 L559.869 1583.94 L559.869 1580 Q562.531 1577.25 567.114 1572.62 Q571.72 1567.97 572.901 1566.63 Q575.146 1564.1 576.026 1562.37 Q576.929 1560.61 576.929 1558.92 Q576.929 1556.16 574.984 1554.43 Q573.063 1552.69 569.961 1552.69 Q567.762 1552.69 565.308 1553.45 Q562.878 1554.22 560.1 1555.77 L560.1 1551.05 Q562.924 1549.91 565.378 1549.33 Q567.831 1548.75 569.869 1548.75 Q575.239 1548.75 578.433 1551.44 Q581.628 1554.13 581.628 1558.62 Q581.628 1560.75 580.818 1562.67 Q580.031 1564.56 577.924 1567.16 Q577.345 1567.83 574.243 1571.05 Q571.142 1574.24 565.494 1580 Z" fill="#000000" fill-rule="nonzero" fill-opacity="1" /><path clip-path="url(#clip790)" d="M934.791 1553.45 L922.986 1571.9 L934.791 1571.9 L934.791 1553.45 M933.564 1549.38 L939.444 1549.38 L939.444 1571.9 L944.374 1571.9 L944.374 1575.79 L939.444 1575.79 L939.444 1583.94 L934.791 1583.94 L934.791 1575.79 L919.189 1575.79 L919.189 1571.28 L933.564 1549.38 Z" fill="#000000" fill-rule="nonzero" fill-opacity="1" /><path clip-path="url(#clip790)" d="M1293.13 1564.8 Q1289.98 1564.8 1288.13 1566.95 Q1286.3 1569.1 1286.3 1572.85 Q1286.3 1576.58 1288.13 1578.75 Q1289.98 1580.91 1293.13 1580.91 Q1296.28 1580.91 1298.1 1578.75 Q1299.96 1576.58 1299.96 1572.85 Q1299.96 1569.1 1298.1 1566.95 Q1296.28 1564.8 1293.13 1564.8 M1302.41 1550.14 L1302.41 1554.4 Q1300.65 1553.57 1298.85 1553.13 Q1297.06 1552.69 1295.3 1552.69 Q1290.67 1552.69 1288.22 1555.81 Q1285.79 1558.94 1285.44 1565.26 Q1286.81 1563.25 1288.87 1562.18 Q1290.93 1561.09 1293.41 1561.09 Q1298.61 1561.09 1301.62 1564.26 Q1304.66 1567.41 1304.66 1572.85 Q1304.66 1578.18 1301.51 1581.39 Q1298.36 1584.61 1293.13 1584.61 Q1287.13 1584.61 1283.96 1580.03 Q1280.79 1575.42 1280.79 1566.69 Q1280.79 1558.5 1284.68 1553.64 Q1288.57 1548.75 1295.12 1548.75 Q1296.88 1548.75 1298.66 1549.1 Q1300.47 1549.45 1302.41 1550.14 Z" fill="#000000" fill-rule="nonzero" fill-opacity="1" /><path clip-path="url(#clip790)" d="M1653.66 1567.53 Q1650.33 1567.53 1648.41 1569.31 Q1646.51 1571.09 1646.51 1574.22 Q1646.51 1577.34 1648.41 1579.13 Q1650.33 1580.91 1653.66 1580.91 Q1657 1580.91 1658.92 1579.13 Q1660.84 1577.32 1660.84 1574.22 Q1660.84 1571.09 1658.92 1569.31 Q1657.02 1567.53 1653.66 1567.53 M1648.99 1565.54 Q1645.98 1564.8 1644.29 1562.74 Q1642.62 1560.68 1642.62 1557.71 Q1642.62 1553.57 1645.56 1551.16 Q1648.53 1548.75 1653.66 1548.75 Q1658.83 1548.75 1661.77 1551.16 Q1664.71 1553.57 1664.71 1557.71 Q1664.71 1560.68 1663.02 1562.74 Q1661.35 1564.8 1658.36 1565.54 Q1661.74 1566.32 1663.62 1568.62 Q1665.52 1570.91 1665.52 1574.22 Q1665.52 1579.24 1662.44 1581.93 Q1659.38 1584.61 1653.66 1584.61 Q1647.95 1584.61 1644.87 1581.93 Q1641.81 1579.24 1641.81 1574.22 Q1641.81 1570.91 1643.71 1568.62 Q1645.61 1566.32 1648.99 1565.54 M1647.28 1558.15 Q1647.28 1560.84 1648.94 1562.34 Q1650.63 1563.85 1653.66 1563.85 Q1656.67 1563.85 1658.36 1562.34 Q1660.08 1560.84 1660.08 1558.15 Q1660.08 1555.47 1658.36 1553.96 Q1656.67 1552.46 1653.66 1552.46 Q1650.63 1552.46 1648.94 1553.96 Q1647.28 1555.47 1647.28 1558.15 Z" fill="#000000" fill-rule="nonzero" fill-opacity="1" /><path clip-path="url(#clip790)" d="M1989.29 1580 L1996.93 1580 L1996.93 1553.64 L1988.62 1555.31 L1988.62 1551.05 L1996.89 1549.38 L2001.56 1549.38 L2001.56 1580 L2009.2 1580 L2009.2 1583.94 L1989.29 1583.94 L1989.29 1580 Z" fill="#000000" fill-rule="nonzero" fill-opacity="1" /><path clip-path="url(#clip790)" d="M2028.64 1552.46 Q2025.03 1552.46 2023.2 1556.02 Q2021.4 1559.56 2021.4 1566.69 Q2021.4 1573.8 2023.2 1577.37 Q2025.03 1580.91 2028.64 1580.91 Q2032.28 1580.91 2034.08 1577.37 Q2035.91 1573.8 2035.91 1566.69 Q2035.91 1559.56 2034.08 1556.02 Q2032.28 1552.46 2028.64 1552.46 M2028.64 1548.75 Q2034.45 1548.75 2037.51 1553.36 Q2040.59 1557.94 2040.59 1566.69 Q2040.59 1575.42 2037.51 1580.03 Q2034.45 1584.61 2028.64 1584.61 Q2022.83 1584.61 2019.76 1580.03 Q2016.7 1575.42 2016.7 1566.69 Q2016.7 1557.94 2019.76 1553.36 Q2022.83 1548.75 2028.64 1548.75 Z" fill="#000000" fill-rule="nonzero" fill-opacity="1" /><path clip-path="url(#clip790)" d="M2351.03 1580 L2358.67 1580 L2358.67 1553.64 L2350.36 1555.31 L2350.36 1551.05 L2358.63 1549.38 L2363.3 1549.38 L2363.3 1580 L2370.94 1580 L2370.94 1583.94 L2351.03 1583.94 L2351.03 1580 Z" fill="#000000" fill-rule="nonzero" fill-opacity="1" /><path clip-path="url(#clip790)" d="M2384.41 1580 L2400.73 1580 L2400.73 1583.94 L2378.79 1583.94 L2378.79 1580 Q2381.45 1577.25 2386.03 1572.62 Q2390.64 1567.97 2391.82 1566.63 Q2394.06 1564.1 2394.94 1562.37 Q2395.85 1560.61 2395.85 1558.92 Q2395.85 1556.16 2393.9 1554.43 Q2391.98 1552.69 2388.88 1552.69 Q2386.68 1552.69 2384.23 1553.45 Q2381.8 1554.22 2379.02 1555.77 L2379.02 1551.05 Q2381.84 1549.91 2384.3 1549.33 Q2386.75 1548.75 2388.79 1548.75 Q2394.16 1548.75 2397.35 1551.44 Q2400.55 1554.13 2400.55 1558.62 Q2400.55 1560.75 2399.74 1562.67 Q2398.95 1564.56 2396.84 1567.16 Q2396.26 1567.83 2393.16 1571.05 Q2390.06 1574.24 2384.41 1580 Z" fill="#000000" fill-rule="nonzero" fill-opacity="1" /><path clip-path="url(#clip790)" d="M2710.93 1580 L2718.57 1580 L2718.57 1553.64 L2710.26 1555.31 L2710.26 1551.05 L2718.52 1549.38 L2723.2 1549.38 L2723.2 1580 L2730.84 1580 L2730.84 1583.94 L2710.93 1583.94 L2710.93 1580 Z" fill="#000000" fill-rule="nonzero" fill-opacity="1" /><path clip-path="url(#clip790)" d="M2753.13 1553.45 L2741.33 1571.9 L2753.13 1571.9 L2753.13 1553.45 M2751.9 1549.38 L2757.78 1549.38 L2757.78 1571.9 L2762.71 1571.9 L2762.71 1575.79 L2757.78 1575.79 L2757.78 1583.94 L2753.13 1583.94 L2753.13 1575.79 L2737.53 1575.79 L2737.53 1571.28 L2751.9 1549.38 Z" fill="#000000" fill-rule="nonzero" fill-opacity="1" /><path clip-path="url(#clip790)" d="M1559.83 1623.36 L1589.88 1623.36 L1589.88 1628.77 L1566.26 1628.77 L1566.26 1642.84 L1588.89 1642.84 L1588.89 1648.25 L1566.26 1648.25 L1566.26 1665.47 L1590.45 1665.47 L1590.45 1670.88 L1559.83 1670.88 L1559.83 1623.36 Z" fill="#000000" fill-rule="nonzero" fill-opacity="1" /><path clip-path="url(#clip790)" d="M1606.43 1665.54 L1606.43 1684.44 L1600.54 1684.44 L1600.54 1635.24 L1606.43 1635.24 L1606.43 1640.65 Q1608.28 1637.46 1611.08 1635.94 Q1613.91 1634.38 1617.83 1634.38 Q1624.32 1634.38 1628.36 1639.53 Q1632.43 1644.69 1632.43 1653.09 Q1632.43 1661.49 1628.36 1666.65 Q1624.32 1671.81 1617.83 1671.81 Q1613.91 1671.81 1611.08 1670.28 Q1608.28 1668.72 1606.43 1665.54 M1626.36 1653.09 Q1626.36 1646.63 1623.68 1642.97 Q1621.04 1639.28 1616.39 1639.28 Q1611.75 1639.28 1609.07 1642.97 Q1606.43 1646.63 1606.43 1653.09 Q1606.43 1659.55 1609.07 1663.24 Q1611.75 1666.91 1616.39 1666.91 Q1621.04 1666.91 1623.68 1663.24 Q1626.36 1659.55 1626.36 1653.09 Z" fill="#000000" fill-rule="nonzero" fill-opacity="1" /><path clip-path="url(#clip790)" d="M1655.96 1639.34 Q1651.25 1639.34 1648.51 1643.03 Q1645.77 1646.69 1645.77 1653.09 Q1645.77 1659.49 1648.48 1663.18 Q1651.21 1666.84 1655.96 1666.84 Q1660.63 1666.84 1663.37 1663.15 Q1666.11 1659.46 1666.11 1653.09 Q1666.11 1646.76 1663.37 1643.07 Q1660.63 1639.34 1655.96 1639.34 M1655.96 1634.38 Q1663.59 1634.38 1667.96 1639.34 Q1672.32 1644.31 1672.32 1653.09 Q1672.32 1661.84 1667.96 1666.84 Q1663.59 1671.81 1655.96 1671.81 Q1648.29 1671.81 1643.92 1666.84 Q1639.6 1661.84 1639.6 1653.09 Q1639.6 1644.31 1643.92 1639.34 Q1648.29 1634.38 1655.96 1634.38 Z" fill="#000000" fill-rule="nonzero" fill-opacity="1" /><path clip-path="url(#clip790)" d="M1707.68 1636.6 L1707.68 1642.08 Q1705.19 1640.71 1702.68 1640.04 Q1700.2 1639.34 1697.65 1639.34 Q1691.95 1639.34 1688.8 1642.97 Q1685.65 1646.57 1685.65 1653.09 Q1685.65 1659.62 1688.8 1663.24 Q1691.95 1666.84 1697.65 1666.84 Q1700.2 1666.84 1702.68 1666.17 Q1705.19 1665.47 1707.68 1664.1 L1707.68 1669.52 Q1705.23 1670.66 1702.58 1671.23 Q1699.97 1671.81 1697.01 1671.81 Q1688.96 1671.81 1684.22 1666.75 Q1679.48 1661.69 1679.48 1653.09 Q1679.48 1644.37 1684.25 1639.37 Q1689.06 1634.38 1697.4 1634.38 Q1700.1 1634.38 1702.68 1634.95 Q1705.26 1635.49 1707.68 1636.6 Z" fill="#000000" fill-rule="nonzero" fill-opacity="1" /><path clip-path="url(#clip790)" d="M1747.49 1649.37 L1747.49 1670.88 L1741.64 1670.88 L1741.64 1649.56 Q1741.64 1644.5 1739.66 1641.98 Q1737.69 1639.47 1733.74 1639.47 Q1729 1639.47 1726.27 1642.49 Q1723.53 1645.52 1723.53 1650.74 L1723.53 1670.88 L1717.64 1670.88 L1717.64 1621.36 L1723.53 1621.36 L1723.53 1640.77 Q1725.63 1637.56 1728.46 1635.97 Q1731.33 1634.38 1735.05 1634.38 Q1741.19 1634.38 1744.34 1638.2 Q1747.49 1641.98 1747.49 1649.37 Z" fill="#000000" fill-rule="nonzero" fill-opacity="1" /><polyline clip-path="url(#clip790)" style="stroke:#000000; stroke-linecap:round; stroke-linejoin:round; stroke-width:4; stroke-opacity:1; fill:none" points="314.573,1516.42 314.573,98.8027 "/>
<polyline clip-path="url(#clip790)" style="stroke:#000000; stroke-linecap:round; stroke-linejoin:round; stroke-width:4; stroke-opacity:1; fill:none" points="314.573,1409.63 333.47,1409.63 "/>
<polyline clip-path="url(#clip790)" style="stroke:#000000; stroke-linecap:round; stroke-linejoin:round; stroke-width:4; stroke-opacity:1; fill:none" points="314.573,1105.52 333.47,1105.52 "/>
<polyline clip-path="url(#clip790)" style="stroke:#000000; stroke-linecap:round; stroke-linejoin:round; stroke-width:4; stroke-opacity:1; fill:none" points="314.573,801.406 333.47,801.406 "/>
<polyline clip-path="url(#clip790)" style="stroke:#000000; stroke-linecap:round; stroke-linejoin:round; stroke-width:4; stroke-opacity:1; fill:none" points="314.573,497.296 333.47,497.296 "/>
<polyline clip-path="url(#clip790)" style="stroke:#000000; stroke-linecap:round; stroke-linejoin:round; stroke-width:4; stroke-opacity:1; fill:none" points="314.573,193.186 333.47,193.186 "/>
<path clip-path="url(#clip790)" d="M103.302 1410.08 L132.978 1410.08 L132.978 1414.01 L103.302 1414.01 L103.302 1410.08 Z" fill="#000000" fill-rule="nonzero" fill-opacity="1" /><path clip-path="url(#clip790)" d="M153.07 1395.42 Q149.459 1395.42 147.631 1398.99 Q145.825 1402.53 145.825 1409.66 Q145.825 1416.77 147.631 1420.33 Q149.459 1423.87 153.07 1423.87 Q156.705 1423.87 158.51 1420.33 Q160.339 1416.77 160.339 1409.66 Q160.339 1402.53 158.51 1398.99 Q156.705 1395.42 153.07 1395.42 M153.07 1391.72 Q158.881 1391.72 161.936 1396.33 Q165.015 1400.91 165.015 1409.66 Q165.015 1418.39 161.936 1422.99 Q158.881 1427.58 153.07 1427.58 Q147.26 1427.58 144.182 1422.99 Q141.126 1418.39 141.126 1409.66 Q141.126 1400.91 144.182 1396.33 Q147.26 1391.72 153.07 1391.72 Z" fill="#000000" fill-rule="nonzero" fill-opacity="1" /><path clip-path="url(#clip790)" d="M173.232 1421.03 L178.117 1421.03 L178.117 1426.91 L173.232 1426.91 L173.232 1421.03 Z" fill="#000000" fill-rule="nonzero" fill-opacity="1" /><path clip-path="url(#clip790)" d="M198.302 1395.42 Q194.691 1395.42 192.862 1398.99 Q191.056 1402.53 191.056 1409.66 Q191.056 1416.77 192.862 1420.33 Q194.691 1423.87 198.302 1423.87 Q201.936 1423.87 203.741 1420.33 Q205.57 1416.77 205.57 1409.66 Q205.57 1402.53 203.741 1398.99 Q201.936 1395.42 198.302 1395.42 M198.302 1391.72 Q204.112 1391.72 207.167 1396.33 Q210.246 1400.91 210.246 1409.66 Q210.246 1418.39 207.167 1422.99 Q204.112 1427.58 198.302 1427.58 Q192.491 1427.58 189.413 1422.99 Q186.357 1418.39 186.357 1409.66 Q186.357 1400.91 189.413 1396.33 Q192.491 1391.72 198.302 1391.72 Z" fill="#000000" fill-rule="nonzero" fill-opacity="1" /><path clip-path="url(#clip790)" d="M228.463 1395.42 Q224.852 1395.42 223.024 1398.99 Q221.218 1402.53 221.218 1409.66 Q221.218 1416.77 223.024 1420.33 Q224.852 1423.87 228.463 1423.87 Q232.098 1423.87 233.903 1420.33 Q235.732 1416.77 235.732 1409.66 Q235.732 1402.53 233.903 1398.99 Q232.098 1395.42 228.463 1395.42 M228.463 1391.72 Q234.274 1391.72 237.329 1396.33 Q240.408 1400.91 240.408 1409.66 Q240.408 1418.39 237.329 1422.99 Q234.274 1427.58 228.463 1427.58 Q222.653 1427.58 219.575 1422.99 Q216.519 1418.39 216.519 1409.66 Q216.519 1400.91 219.575 1396.33 Q222.653 1391.72 228.463 1391.72 Z" fill="#000000" fill-rule="nonzero" fill-opacity="1" /><path clip-path="url(#clip790)" d="M252.653 1422.97 L268.973 1422.97 L268.973 1426.91 L247.028 1426.91 L247.028 1422.97 Q249.69 1420.22 254.274 1415.59 Q258.88 1410.93 260.061 1409.59 Q262.306 1407.07 263.186 1405.33 Q264.088 1403.57 264.088 1401.88 Q264.088 1399.13 262.144 1397.39 Q260.223 1395.66 257.121 1395.66 Q254.922 1395.66 252.468 1396.42 Q250.037 1397.18 247.26 1398.73 L247.26 1394.01 Q250.084 1392.88 252.537 1392.3 Q254.991 1391.72 257.028 1391.72 Q262.398 1391.72 265.593 1394.41 Q268.787 1397.09 268.787 1401.58 Q268.787 1403.71 267.977 1405.63 Q267.19 1407.53 265.084 1410.12 Q264.505 1410.79 261.403 1414.01 Q258.301 1417.21 252.653 1422.97 Z" fill="#000000" fill-rule="nonzero" fill-opacity="1" /><path clip-path="url(#clip790)" d="M102.932 1105.97 L132.608 1105.97 L132.608 1109.9 L102.932 1109.9 L102.932 1105.97 Z" fill="#000000" fill-rule="nonzero" fill-opacity="1" /><path clip-path="url(#clip790)" d="M152.7 1091.31 Q149.089 1091.31 147.26 1094.88 Q145.455 1098.42 145.455 1105.55 Q145.455 1112.66 147.26 1116.22 Q149.089 1119.76 152.7 1119.76 Q156.334 1119.76 158.14 1116.22 Q159.968 1112.66 159.968 1105.55 Q159.968 1098.42 158.14 1094.88 Q156.334 1091.31 152.7 1091.31 M152.7 1087.61 Q158.51 1087.61 161.566 1092.22 Q164.644 1096.8 164.644 1105.55 Q164.644 1114.28 161.566 1118.88 Q158.51 1123.47 152.7 1123.47 Q146.89 1123.47 143.811 1118.88 Q140.756 1114.28 140.756 1105.55 Q140.756 1096.8 143.811 1092.22 Q146.89 1087.61 152.7 1087.61 Z" fill="#000000" fill-rule="nonzero" fill-opacity="1" /><path clip-path="url(#clip790)" d="M172.862 1116.92 L177.746 1116.92 L177.746 1122.8 L172.862 1122.8 L172.862 1116.92 Z" fill="#000000" fill-rule="nonzero" fill-opacity="1" /><path clip-path="url(#clip790)" d="M197.931 1091.31 Q194.32 1091.31 192.491 1094.88 Q190.686 1098.42 190.686 1105.55 Q190.686 1112.66 192.491 1116.22 Q194.32 1119.76 197.931 1119.76 Q201.565 1119.76 203.371 1116.22 Q205.2 1112.66 205.2 1105.55 Q205.2 1098.42 203.371 1094.88 Q201.565 1091.31 197.931 1091.31 M197.931 1087.61 Q203.741 1087.61 206.797 1092.22 Q209.876 1096.8 209.876 1105.55 Q209.876 1114.28 206.797 1118.88 Q203.741 1123.47 197.931 1123.47 Q192.121 1123.47 189.042 1118.88 Q185.987 1114.28 185.987 1105.55 Q185.987 1096.8 189.042 1092.22 Q192.121 1087.61 197.931 1087.61 Z" fill="#000000" fill-rule="nonzero" fill-opacity="1" /><path clip-path="url(#clip790)" d="M228.093 1091.31 Q224.482 1091.31 222.653 1094.88 Q220.848 1098.42 220.848 1105.55 Q220.848 1112.66 222.653 1116.22 Q224.482 1119.76 228.093 1119.76 Q231.727 1119.76 233.533 1116.22 Q235.362 1112.66 235.362 1105.55 Q235.362 1098.42 233.533 1094.88 Q231.727 1091.31 228.093 1091.31 M228.093 1087.61 Q233.903 1087.61 236.959 1092.22 Q240.037 1096.8 240.037 1105.55 Q240.037 1114.28 236.959 1118.88 Q233.903 1123.47 228.093 1123.47 Q222.283 1123.47 219.204 1118.88 Q216.149 1114.28 216.149 1105.55 Q216.149 1096.8 219.204 1092.22 Q222.283 1087.61 228.093 1087.61 Z" fill="#000000" fill-rule="nonzero" fill-opacity="1" /><path clip-path="url(#clip790)" d="M249.065 1118.86 L256.704 1118.86 L256.704 1092.5 L248.394 1094.16 L248.394 1089.9 L256.658 1088.24 L261.334 1088.24 L261.334 1118.86 L268.973 1118.86 L268.973 1122.8 L249.065 1122.8 L249.065 1118.86 Z" fill="#000000" fill-rule="nonzero" fill-opacity="1" /><path clip-path="url(#clip790)" d="M151.473 787.205 Q147.862 787.205 146.033 790.769 Q144.228 794.311 144.228 801.441 Q144.228 808.547 146.033 812.112 Q147.862 815.653 151.473 815.653 Q155.107 815.653 156.913 812.112 Q158.742 808.547 158.742 801.441 Q158.742 794.311 156.913 790.769 Q155.107 787.205 151.473 787.205 M151.473 783.501 Q157.283 783.501 160.339 788.107 Q163.418 792.691 163.418 801.441 Q163.418 810.167 160.339 814.774 Q157.283 819.357 151.473 819.357 Q145.663 819.357 142.584 814.774 Q139.529 810.167 139.529 801.441 Q139.529 792.691 142.584 788.107 Q145.663 783.501 151.473 783.501 Z" fill="#000000" fill-rule="nonzero" fill-opacity="1" /><path clip-path="url(#clip790)" d="M171.635 812.806 L176.519 812.806 L176.519 818.686 L171.635 818.686 L171.635 812.806 Z" fill="#000000" fill-rule="nonzero" fill-opacity="1" /><path clip-path="url(#clip790)" d="M196.704 787.205 Q193.093 787.205 191.265 790.769 Q189.459 794.311 189.459 801.441 Q189.459 808.547 191.265 812.112 Q193.093 815.653 196.704 815.653 Q200.339 815.653 202.144 812.112 Q203.973 808.547 203.973 801.441 Q203.973 794.311 202.144 790.769 Q200.339 787.205 196.704 787.205 M196.704 783.501 Q202.515 783.501 205.57 788.107 Q208.649 792.691 208.649 801.441 Q208.649 810.167 205.57 814.774 Q202.515 819.357 196.704 819.357 Q190.894 819.357 187.816 814.774 Q184.76 810.167 184.76 801.441 Q184.76 792.691 187.816 788.107 Q190.894 783.501 196.704 783.501 Z" fill="#000000" fill-rule="nonzero" fill-opacity="1" /><path clip-path="url(#clip790)" d="M226.866 787.205 Q223.255 787.205 221.426 790.769 Q219.621 794.311 219.621 801.441 Q219.621 808.547 221.426 812.112 Q223.255 815.653 226.866 815.653 Q230.5 815.653 232.306 812.112 Q234.135 808.547 234.135 801.441 Q234.135 794.311 232.306 790.769 Q230.5 787.205 226.866 787.205 M226.866 783.501 Q232.676 783.501 235.732 788.107 Q238.811 792.691 238.811 801.441 Q238.811 810.167 235.732 814.774 Q232.676 819.357 226.866 819.357 Q221.056 819.357 217.977 814.774 Q214.922 810.167 214.922 801.441 Q214.922 792.691 217.977 788.107 Q221.056 783.501 226.866 783.501 Z" fill="#000000" fill-rule="nonzero" fill-opacity="1" /><path clip-path="url(#clip790)" d="M257.028 787.205 Q253.417 787.205 251.588 790.769 Q249.783 794.311 249.783 801.441 Q249.783 808.547 251.588 812.112 Q253.417 815.653 257.028 815.653 Q260.662 815.653 262.468 812.112 Q264.297 808.547 264.297 801.441 Q264.297 794.311 262.468 790.769 Q260.662 787.205 257.028 787.205 M257.028 783.501 Q262.838 783.501 265.894 788.107 Q268.973 792.691 268.973 801.441 Q268.973 810.167 265.894 814.774 Q262.838 819.357 257.028 819.357 Q251.218 819.357 248.139 814.774 Q245.084 810.167 245.084 801.441 Q245.084 792.691 248.139 788.107 Q251.218 783.501 257.028 783.501 Z" fill="#000000" fill-rule="nonzero" fill-opacity="1" /><path clip-path="url(#clip790)" d="M152.7 483.095 Q149.089 483.095 147.26 486.659 Q145.455 490.201 145.455 497.331 Q145.455 504.437 147.26 508.002 Q149.089 511.543 152.7 511.543 Q156.334 511.543 158.14 508.002 Q159.968 504.437 159.968 497.331 Q159.968 490.201 158.14 486.659 Q156.334 483.095 152.7 483.095 M152.7 479.391 Q158.51 479.391 161.566 483.997 Q164.644 488.581 164.644 497.331 Q164.644 506.057 161.566 510.664 Q158.51 515.247 152.7 515.247 Q146.89 515.247 143.811 510.664 Q140.756 506.057 140.756 497.331 Q140.756 488.581 143.811 483.997 Q146.89 479.391 152.7 479.391 Z" fill="#000000" fill-rule="nonzero" fill-opacity="1" /><path clip-path="url(#clip790)" d="M172.862 508.696 L177.746 508.696 L177.746 514.576 L172.862 514.576 L172.862 508.696 Z" fill="#000000" fill-rule="nonzero" fill-opacity="1" /><path clip-path="url(#clip790)" d="M197.931 483.095 Q194.32 483.095 192.491 486.659 Q190.686 490.201 190.686 497.331 Q190.686 504.437 192.491 508.002 Q194.32 511.543 197.931 511.543 Q201.565 511.543 203.371 508.002 Q205.2 504.437 205.2 497.331 Q205.2 490.201 203.371 486.659 Q201.565 483.095 197.931 483.095 M197.931 479.391 Q203.741 479.391 206.797 483.997 Q209.876 488.581 209.876 497.331 Q209.876 506.057 206.797 510.664 Q203.741 515.247 197.931 515.247 Q192.121 515.247 189.042 510.664 Q185.987 506.057 185.987 497.331 Q185.987 488.581 189.042 483.997 Q192.121 479.391 197.931 479.391 Z" fill="#000000" fill-rule="nonzero" fill-opacity="1" /><path clip-path="url(#clip790)" d="M228.093 483.095 Q224.482 483.095 222.653 486.659 Q220.848 490.201 220.848 497.331 Q220.848 504.437 222.653 508.002 Q224.482 511.543 228.093 511.543 Q231.727 511.543 233.533 508.002 Q235.362 504.437 235.362 497.331 Q235.362 490.201 233.533 486.659 Q231.727 483.095 228.093 483.095 M228.093 479.391 Q233.903 479.391 236.959 483.997 Q240.037 488.581 240.037 497.331 Q240.037 506.057 236.959 510.664 Q233.903 515.247 228.093 515.247 Q222.283 515.247 219.204 510.664 Q216.149 506.057 216.149 497.331 Q216.149 488.581 219.204 483.997 Q222.283 479.391 228.093 479.391 Z" fill="#000000" fill-rule="nonzero" fill-opacity="1" /><path clip-path="url(#clip790)" d="M249.065 510.641 L256.704 510.641 L256.704 484.275 L248.394 485.942 L248.394 481.682 L256.658 480.016 L261.334 480.016 L261.334 510.641 L268.973 510.641 L268.973 514.576 L249.065 514.576 L249.065 510.641 Z" fill="#000000" fill-rule="nonzero" fill-opacity="1" /><path clip-path="url(#clip790)" d="M153.07 178.984 Q149.459 178.984 147.631 182.549 Q145.825 186.091 145.825 193.22 Q145.825 200.327 147.631 203.892 Q149.459 207.433 153.07 207.433 Q156.705 207.433 158.51 203.892 Q160.339 200.327 160.339 193.22 Q160.339 186.091 158.51 182.549 Q156.705 178.984 153.07 178.984 M153.07 175.281 Q158.881 175.281 161.936 179.887 Q165.015 184.471 165.015 193.22 Q165.015 201.947 161.936 206.554 Q158.881 211.137 153.07 211.137 Q147.26 211.137 144.182 206.554 Q141.126 201.947 141.126 193.22 Q141.126 184.471 144.182 179.887 Q147.26 175.281 153.07 175.281 Z" fill="#000000" fill-rule="nonzero" fill-opacity="1" /><path clip-path="url(#clip790)" d="M173.232 204.586 L178.117 204.586 L178.117 210.466 L173.232 210.466 L173.232 204.586 Z" fill="#000000" fill-rule="nonzero" fill-opacity="1" /><path clip-path="url(#clip790)" d="M198.302 178.984 Q194.691 178.984 192.862 182.549 Q191.056 186.091 191.056 193.22 Q191.056 200.327 192.862 203.892 Q194.691 207.433 198.302 207.433 Q201.936 207.433 203.741 203.892 Q205.57 200.327 205.57 193.22 Q205.57 186.091 203.741 182.549 Q201.936 178.984 198.302 178.984 M198.302 175.281 Q204.112 175.281 207.167 179.887 Q210.246 184.471 210.246 193.22 Q210.246 201.947 207.167 206.554 Q204.112 211.137 198.302 211.137 Q192.491 211.137 189.413 206.554 Q186.357 201.947 186.357 193.22 Q186.357 184.471 189.413 179.887 Q192.491 175.281 198.302 175.281 Z" fill="#000000" fill-rule="nonzero" fill-opacity="1" /><path clip-path="url(#clip790)" d="M228.463 178.984 Q224.852 178.984 223.024 182.549 Q221.218 186.091 221.218 193.22 Q221.218 200.327 223.024 203.892 Q224.852 207.433 228.463 207.433 Q232.098 207.433 233.903 203.892 Q235.732 200.327 235.732 193.22 Q235.732 186.091 233.903 182.549 Q232.098 178.984 228.463 178.984 M228.463 175.281 Q234.274 175.281 237.329 179.887 Q240.408 184.471 240.408 193.22 Q240.408 201.947 237.329 206.554 Q234.274 211.137 228.463 211.137 Q222.653 211.137 219.575 206.554 Q216.519 201.947 216.519 193.22 Q216.519 184.471 219.575 179.887 Q222.653 175.281 228.463 175.281 Z" fill="#000000" fill-rule="nonzero" fill-opacity="1" /><path clip-path="url(#clip790)" d="M252.653 206.531 L268.973 206.531 L268.973 210.466 L247.028 210.466 L247.028 206.531 Q249.69 203.776 254.274 199.146 Q258.88 194.494 260.061 193.151 Q262.306 190.628 263.186 188.892 Q264.088 187.133 264.088 185.443 Q264.088 182.688 262.144 180.952 Q260.223 179.216 257.121 179.216 Q254.922 179.216 252.468 179.98 Q250.037 180.744 247.26 182.295 L247.26 177.572 Q250.084 176.438 252.537 175.859 Q254.991 175.281 257.028 175.281 Q262.398 175.281 265.593 177.966 Q268.787 180.651 268.787 185.142 Q268.787 187.271 267.977 189.193 Q267.19 191.091 265.084 193.683 Q264.505 194.355 261.403 197.572 Q258.301 200.767 252.653 206.531 Z" fill="#000000" fill-rule="nonzero" fill-opacity="1" /><path clip-path="url(#clip790)" d="M-4.44426 874.308 L-4.44426 867.879 L37.6649 867.879 L37.6649 844.739 L43.0757 844.739 L43.0757 874.308 L-4.44426 874.308 Z" fill="#000000" fill-rule="nonzero" fill-opacity="1" /><path clip-path="url(#clip790)" d="M11.5337 825.578 Q11.5337 830.289 15.2258 833.026 Q18.8861 835.764 25.2836 835.764 Q31.6811 835.764 35.3732 833.058 Q39.0335 830.321 39.0335 825.578 Q39.0335 820.9 35.3414 818.162 Q31.6493 815.425 25.2836 815.425 Q18.9497 815.425 15.2576 818.162 Q11.5337 820.9 11.5337 825.578 M6.56841 825.578 Q6.56841 817.94 11.5337 813.579 Q16.4989 809.219 25.2836 809.219 Q34.0364 809.219 39.0335 813.579 Q43.9988 817.94 43.9988 825.578 Q43.9988 833.249 39.0335 837.61 Q34.0364 841.938 25.2836 841.938 Q16.4989 841.938 11.5337 837.61 Q6.56841 833.249 6.56841 825.578 Z" fill="#000000" fill-rule="nonzero" fill-opacity="1" /><path clip-path="url(#clip790)" d="M8.47812 776.785 L14.0163 776.785 Q12.7431 779.268 12.1066 781.942 Q11.47 784.615 11.47 787.48 Q11.47 791.84 12.8068 794.036 Q14.1436 796.201 16.8172 796.201 Q18.8542 796.201 20.0319 794.641 Q21.1777 793.082 22.228 788.371 L22.6736 786.366 Q24.0104 780.127 26.4612 777.517 Q28.8802 774.876 33.2407 774.876 Q38.206 774.876 41.1024 778.822 Q43.9988 782.737 43.9988 789.612 Q43.9988 792.477 43.4259 795.596 Q42.8848 798.683 41.7708 802.121 L35.7233 802.121 Q37.4103 798.874 38.2696 795.723 Q39.0972 792.572 39.0972 789.485 Q39.0972 785.347 37.6967 783.119 Q36.2644 780.891 33.6863 780.891 Q31.2992 780.891 30.026 782.514 Q28.7529 784.106 27.5752 789.549 L27.0978 791.586 Q25.952 797.028 23.5967 799.447 Q21.2095 801.866 17.0718 801.866 Q12.0429 801.866 9.30566 798.301 Q6.56841 794.737 6.56841 788.18 Q6.56841 784.933 7.04584 782.069 Q7.52326 779.204 8.47812 776.785 Z" fill="#000000" fill-rule="nonzero" fill-opacity="1" /><path clip-path="url(#clip790)" d="M8.47812 742.824 L14.0163 742.824 Q12.7431 745.307 12.1066 747.98 Q11.47 750.654 11.47 753.519 Q11.47 757.879 12.8068 760.075 Q14.1436 762.24 16.8172 762.24 Q18.8542 762.24 20.0319 760.68 Q21.1777 759.12 22.228 754.41 L22.6736 752.405 Q24.0104 746.166 26.4612 743.556 Q28.8802 740.915 33.2407 740.915 Q38.206 740.915 41.1024 744.861 Q43.9988 748.776 43.9988 755.651 Q43.9988 758.516 43.4259 761.635 Q42.8848 764.722 41.7708 768.16 L35.7233 768.16 Q37.4103 764.913 38.2696 761.762 Q39.0972 758.611 39.0972 755.524 Q39.0972 751.386 37.6967 749.158 Q36.2644 746.93 33.6863 746.93 Q31.2992 746.93 30.026 748.553 Q28.7529 750.145 27.5752 755.588 L27.0978 757.625 Q25.952 763.067 23.5967 765.486 Q21.2095 767.905 17.0718 767.905 Q12.0429 767.905 9.30566 764.34 Q6.56841 760.776 6.56841 754.219 Q6.56841 750.972 7.04584 748.108 Q7.52326 745.243 8.47812 742.824 Z" fill="#000000" fill-rule="nonzero" fill-opacity="1" /><path clip-path="url(#clip790)" d="M1091.44 12.6041 Q1085.08 12.6041 1081.31 17.3494 Q1077.58 22.0948 1077.58 30.2834 Q1077.58 38.4431 1081.31 43.1884 Q1085.08 47.9338 1091.44 47.9338 Q1097.81 47.9338 1101.51 43.1884 Q1105.24 38.4431 1105.24 30.2834 Q1105.24 22.0948 1101.51 17.3494 Q1097.81 12.6041 1091.44 12.6041 M1099.63 51.0588 L1107.33 59.4788 L1100.27 59.4788 L1093.87 52.5634 Q1092.92 52.6212 1092.4 52.6502 Q1091.91 52.6791 1091.44 52.6791 Q1082.33 52.6791 1076.86 46.6028 Q1071.42 40.4975 1071.42 30.2834 Q1071.42 20.0404 1076.86 13.964 Q1082.33 7.85875 1091.44 7.85875 Q1100.53 7.85875 1105.97 13.964 Q1111.41 20.0404 1111.41 30.2834 Q1111.41 37.8065 1108.37 43.1595 Q1105.36 48.5125 1099.63 51.0588 Z" fill="#000000" fill-rule="nonzero" fill-opacity="1" /><path clip-path="url(#clip790)" d="M1119.77 39.0507 L1119.77 19.4328 L1125.09 19.4328 L1125.09 38.8482 Q1125.09 43.4488 1126.89 45.7636 Q1128.68 48.0495 1132.27 48.0495 Q1136.58 48.0495 1139.07 45.3007 Q1141.59 42.5519 1141.59 37.8065 L1141.59 19.4328 L1146.91 19.4328 L1146.91 51.84 L1141.59 51.84 L1141.59 46.8632 Q1139.65 49.8145 1137.07 51.2613 Q1134.53 52.6791 1131.14 52.6791 Q1125.56 52.6791 1122.66 49.2069 Q1119.77 45.7347 1119.77 39.0507 M1133.17 18.6515 L1133.17 18.6515 Z" fill="#000000" fill-rule="nonzero" fill-opacity="1" /><path clip-path="url(#clip790)" d="M1172.6 35.5496 Q1166.15 35.5496 1163.66 37.0253 Q1161.18 38.501 1161.18 42.06 Q1161.18 44.8956 1163.03 46.5738 Q1164.91 48.2231 1168.12 48.2231 Q1172.55 48.2231 1175.21 45.0981 Q1177.9 41.9442 1177.9 36.7359 L1177.9 35.5496 L1172.6 35.5496 M1183.22 33.3505 L1183.22 51.84 L1177.9 51.84 L1177.9 46.921 Q1176.08 49.8724 1173.36 51.2902 Q1170.64 52.6791 1166.7 52.6791 Q1161.73 52.6791 1158.77 49.9014 Q1155.85 47.0947 1155.85 42.4072 Q1155.85 36.9385 1159.5 34.1607 Q1163.17 31.3829 1170.43 31.3829 L1177.9 31.3829 L1177.9 30.8621 Q1177.9 27.1874 1175.47 25.1908 Q1173.07 23.1654 1168.7 23.1654 Q1165.92 23.1654 1163.29 23.8309 Q1160.65 24.4964 1158.22 25.8274 L1158.22 20.9085 Q1161.15 19.78 1163.9 19.2302 Q1166.64 18.6515 1169.25 18.6515 Q1176.28 18.6515 1179.75 22.2973 Q1183.22 25.9431 1183.22 33.3505 Z" fill="#000000" fill-rule="nonzero" fill-opacity="1" /><path clip-path="url(#clip790)" d="M1221.13 32.2799 L1221.13 51.84 L1215.8 51.84 L1215.8 32.4535 Q1215.8 27.8529 1214.01 25.567 Q1212.22 23.2811 1208.63 23.2811 Q1204.32 23.2811 1201.83 26.03 Q1199.34 28.7788 1199.34 33.5241 L1199.34 51.84 L1193.99 51.84 L1193.99 19.4328 L1199.34 19.4328 L1199.34 24.4675 Q1201.25 21.545 1203.83 20.0983 Q1206.43 18.6515 1209.82 18.6515 Q1215.4 18.6515 1218.26 22.1237 Q1221.13 25.567 1221.13 32.2799 Z" fill="#000000" fill-rule="nonzero" fill-opacity="1" /><path clip-path="url(#clip790)" d="M1237.01 10.2314 L1237.01 19.4328 L1247.98 19.4328 L1247.98 23.5705 L1237.01 23.5705 L1237.01 41.163 Q1237.01 45.1271 1238.08 46.2555 Q1239.18 47.384 1242.51 47.384 L1247.98 47.384 L1247.98 51.84 L1242.51 51.84 Q1236.35 51.84 1234 49.5541 Q1231.66 47.2393 1231.66 41.163 L1231.66 23.5705 L1227.76 23.5705 L1227.76 19.4328 L1231.66 19.4328 L1231.66 10.2314 L1237.01 10.2314 Z" fill="#000000" fill-rule="nonzero" fill-opacity="1" /><path clip-path="url(#clip790)" d="M1284.67 45.6768 L1284.67 34.0739 L1275.12 34.0739 L1275.12 29.2707 L1290.46 29.2707 L1290.46 47.818 Q1287.07 50.2196 1282.99 51.4638 Q1278.91 52.6791 1274.28 52.6791 Q1264.16 52.6791 1258.43 46.7764 Q1252.73 40.8447 1252.73 30.2834 Q1252.73 19.6932 1258.43 13.7904 Q1264.16 7.85875 1274.28 7.85875 Q1278.51 7.85875 1282.3 8.90042 Q1286.12 9.94208 1289.33 11.9675 L1289.33 18.1886 Q1286.09 15.4397 1282.44 14.0509 Q1278.8 12.662 1274.77 12.662 Q1266.85 12.662 1262.85 17.089 Q1258.89 21.5161 1258.89 30.2834 Q1258.89 39.0218 1262.85 43.4488 Q1266.85 47.8759 1274.77 47.8759 Q1277.87 47.8759 1280.3 47.3551 Q1282.73 46.8053 1284.67 45.6768 Z" fill="#000000" fill-rule="nonzero" fill-opacity="1" /><path clip-path="url(#clip790)" d="M1315.57 14.3981 L1307.64 35.8968 L1323.53 35.8968 L1315.57 14.3981 M1312.27 8.64 L1318.9 8.64 L1335.36 51.84 L1329.29 51.84 L1325.35 40.7579 L1305.88 40.7579 L1301.94 51.84 L1295.78 51.84 L1312.27 8.64 Z" fill="#000000" fill-rule="nonzero" fill-opacity="1" /><path clip-path="url(#clip790)" d="M1341.67 8.64 L1349.54 8.64 L1368.7 44.7799 L1368.7 8.64 L1374.37 8.64 L1374.37 51.84 L1366.5 51.84 L1347.34 15.7001 L1347.34 51.84 L1341.67 51.84 L1341.67 8.64 Z" fill="#000000" fill-rule="nonzero" fill-opacity="1" /><path clip-path="url(#clip790)" d="M1383.08 33.2348 L1398.67 33.2348 L1398.67 37.9801 L1383.08 37.9801 L1383.08 33.2348 Z" fill="#000000" fill-rule="nonzero" fill-opacity="1" /><path clip-path="url(#clip790)" d="M1427.81 20.3876 L1427.81 25.4223 Q1425.55 24.2649 1423.12 23.6862 Q1420.69 23.1075 1418.09 23.1075 Q1414.13 23.1075 1412.13 24.3228 Q1410.16 25.5381 1410.16 27.9686 Q1410.16 29.8204 1411.58 30.891 Q1413 31.9327 1417.28 32.8876 L1419.1 33.2926 Q1424.77 34.5079 1427.15 36.7359 Q1429.55 38.935 1429.55 42.8991 Q1429.55 47.4129 1425.96 50.046 Q1422.4 52.6791 1416.15 52.6791 Q1413.55 52.6791 1410.71 52.1583 Q1407.9 51.6664 1404.78 50.6537 L1404.78 45.156 Q1407.73 46.6896 1410.6 47.4708 Q1413.46 48.2231 1416.27 48.2231 Q1420.03 48.2231 1422.05 46.95 Q1424.08 45.6479 1424.08 43.3042 Q1424.08 41.134 1422.6 39.9766 Q1421.16 38.8192 1416.21 37.7486 L1414.36 37.3146 Q1409.41 36.273 1407.21 34.1318 Q1405.01 31.9616 1405.01 28.2001 Q1405.01 23.6283 1408.25 21.1399 Q1411.49 18.6515 1417.45 18.6515 Q1420.4 18.6515 1423.01 19.0855 Q1425.61 19.5196 1427.81 20.3876 Z" fill="#000000" fill-rule="nonzero" fill-opacity="1" /><path clip-path="url(#clip790)" d="M1443.29 10.2314 L1443.29 19.4328 L1454.26 19.4328 L1454.26 23.5705 L1443.29 23.5705 L1443.29 41.163 Q1443.29 45.1271 1444.36 46.2555 Q1445.46 47.384 1448.79 47.384 L1454.26 47.384 L1454.26 51.84 L1448.79 51.84 Q1442.63 51.84 1440.28 49.5541 Q1437.94 47.2393 1437.94 41.163 L1437.94 23.5705 L1434.03 23.5705 L1434.03 19.4328 L1437.94 19.4328 L1437.94 10.2314 L1443.29 10.2314 Z" fill="#000000" fill-rule="nonzero" fill-opacity="1" /><path clip-path="url(#clip790)" d="M1474.74 54.8492 Q1472.49 60.6362 1470.35 62.4013 Q1468.21 64.1663 1464.62 64.1663 L1460.36 64.1663 L1460.36 59.7103 L1463.49 59.7103 Q1465.69 59.7103 1466.9 58.6687 Q1468.12 57.627 1469.59 53.7497 L1470.55 51.3192 L1457.44 19.4328 L1463.08 19.4328 L1473.21 44.7799 L1483.34 19.4328 L1488.98 19.4328 L1474.74 54.8492 Z" fill="#000000" fill-rule="nonzero" fill-opacity="1" /><path clip-path="url(#clip790)" d="M1496.33 6.81709 L1501.65 6.81709 L1501.65 51.84 L1496.33 51.84 L1496.33 6.81709 Z" fill="#000000" fill-rule="nonzero" fill-opacity="1" /><path clip-path="url(#clip790)" d="M1540.51 34.3054 L1540.51 36.9095 L1516.03 36.9095 Q1516.38 42.4072 1519.33 45.3007 Q1522.31 48.1653 1527.61 48.1653 Q1530.68 48.1653 1533.54 47.4129 Q1536.43 46.6606 1539.27 45.156 L1539.27 50.1907 Q1536.4 51.406 1533.4 52.0425 Q1530.39 52.6791 1527.29 52.6791 Q1519.54 52.6791 1514.99 48.1653 Q1510.48 43.6514 1510.48 35.9547 Q1510.48 27.9975 1514.76 23.339 Q1519.07 18.6515 1526.36 18.6515 Q1532.9 18.6515 1536.69 22.876 Q1540.51 27.0716 1540.51 34.3054 M1535.19 32.7429 Q1535.13 28.3737 1532.73 25.7695 Q1530.36 23.1654 1526.42 23.1654 Q1521.97 23.1654 1519.28 25.6827 Q1516.61 28.2001 1516.21 32.7718 L1535.19 32.7429 Z" fill="#000000" fill-rule="nonzero" fill-opacity="1" /><path clip-path="url(#clip790)" d="M1564.47 8.64 L1570.37 8.64 L1579.46 45.156 L1588.52 8.64 L1595.09 8.64 L1604.17 45.156 L1613.23 8.64 L1619.16 8.64 L1608.31 51.84 L1600.96 51.84 L1591.84 14.3402 L1582.64 51.84 L1575.29 51.84 L1564.47 8.64 Z" fill="#000000" fill-rule="nonzero" fill-opacity="1" /><path clip-path="url(#clip790)" d="M1656.37 45.6768 L1656.37 34.0739 L1646.82 34.0739 L1646.82 29.2707 L1662.16 29.2707 L1662.16 47.818 Q1658.77 50.2196 1654.69 51.4638 Q1650.61 52.6791 1645.98 52.6791 Q1635.85 52.6791 1630.13 46.7764 Q1624.43 40.8447 1624.43 30.2834 Q1624.43 19.6932 1630.13 13.7904 Q1635.85 7.85875 1645.98 7.85875 Q1650.21 7.85875 1654 8.90042 Q1657.82 9.94208 1661.03 11.9675 L1661.03 18.1886 Q1657.79 15.4397 1654.14 14.0509 Q1650.5 12.662 1646.47 12.662 Q1638.55 12.662 1634.55 17.089 Q1630.59 21.5161 1630.59 30.2834 Q1630.59 39.0218 1634.55 43.4488 Q1638.55 47.8759 1646.47 47.8759 Q1649.57 47.8759 1652 47.3551 Q1654.43 46.8053 1656.37 45.6768 Z" fill="#000000" fill-rule="nonzero" fill-opacity="1" /><path clip-path="url(#clip790)" d="M1687.27 14.3981 L1679.34 35.8968 L1695.23 35.8968 L1687.27 14.3981 M1683.97 8.64 L1690.6 8.64 L1707.06 51.84 L1700.99 51.84 L1697.05 40.7579 L1677.58 40.7579 L1673.64 51.84 L1667.48 51.84 L1683.97 8.64 Z" fill="#000000" fill-rule="nonzero" fill-opacity="1" /><path clip-path="url(#clip790)" d="M1713.37 8.64 L1721.24 8.64 L1740.4 44.7799 L1740.4 8.64 L1746.07 8.64 L1746.07 51.84 L1738.2 51.84 L1719.04 15.7001 L1719.04 51.84 L1713.37 51.84 L1713.37 8.64 Z" fill="#000000" fill-rule="nonzero" fill-opacity="1" /><path clip-path="url(#clip790)" d="M1754.78 33.2348 L1770.37 33.2348 L1770.37 37.9801 L1754.78 37.9801 L1754.78 33.2348 Z" fill="#000000" fill-rule="nonzero" fill-opacity="1" /><path clip-path="url(#clip790)" d="M1810.71 45.6768 L1810.71 34.0739 L1801.16 34.0739 L1801.16 29.2707 L1816.5 29.2707 L1816.5 47.818 Q1813.11 50.2196 1809.03 51.4638 Q1804.95 52.6791 1800.32 52.6791 Q1790.19 52.6791 1784.47 46.7764 Q1778.76 40.8447 1778.76 30.2834 Q1778.76 19.6932 1784.47 13.7904 Q1790.19 7.85875 1800.32 7.85875 Q1804.55 7.85875 1808.34 8.90042 Q1812.16 9.94208 1815.37 11.9675 L1815.37 18.1886 Q1812.13 15.4397 1808.48 14.0509 Q1804.84 12.662 1800.81 12.662 Q1792.89 12.662 1788.89 17.089 Q1784.93 21.5161 1784.93 30.2834 Q1784.93 39.0218 1788.89 43.4488 Q1792.89 47.8759 1800.81 47.8759 Q1803.91 47.8759 1806.34 47.3551 Q1808.77 46.8053 1810.71 45.6768 Z" fill="#000000" fill-rule="nonzero" fill-opacity="1" /><path clip-path="url(#clip790)" d="M1833.02 13.4432 L1833.02 29.6758 L1840.37 29.6758 Q1844.45 29.6758 1846.68 27.5635 Q1848.9 25.4513 1848.9 21.545 Q1848.9 17.6677 1846.68 15.5555 Q1844.45 13.4432 1840.37 13.4432 L1833.02 13.4432 M1827.17 8.64 L1840.37 8.64 Q1847.63 8.64 1851.33 11.9386 Q1855.07 15.2083 1855.07 21.545 Q1855.07 27.9397 1851.33 31.2093 Q1847.63 34.479 1840.37 34.479 L1833.02 34.479 L1833.02 51.84 L1827.17 51.84 L1827.17 8.64 Z" fill="#000000" fill-rule="nonzero" fill-opacity="1" /><path clip-path="url(#clip790)" d="M1886.78 10.2314 L1886.78 19.4328 L1897.75 19.4328 L1897.75 23.5705 L1886.78 23.5705 L1886.78 41.163 Q1886.78 45.1271 1887.85 46.2555 Q1888.95 47.384 1892.28 47.384 L1897.75 47.384 L1897.75 51.84 L1892.28 51.84 Q1886.11 51.84 1883.77 49.5541 Q1881.43 47.2393 1881.43 41.163 L1881.43 23.5705 L1877.52 23.5705 L1877.52 19.4328 L1881.43 19.4328 L1881.43 10.2314 L1886.78 10.2314 Z" fill="#000000" fill-rule="nonzero" fill-opacity="1" /><path clip-path="url(#clip790)" d="M1923.53 24.4096 Q1922.63 23.8888 1921.56 23.6573 Q1920.52 23.3969 1919.24 23.3969 Q1914.73 23.3969 1912.3 26.3482 Q1909.9 29.2707 1909.9 34.7683 L1909.9 51.84 L1904.55 51.84 L1904.55 19.4328 L1909.9 19.4328 L1909.9 24.4675 Q1911.58 21.5161 1914.27 20.0983 Q1916.96 18.6515 1920.81 18.6515 Q1921.36 18.6515 1922.02 18.7383 Q1922.69 18.7962 1923.5 18.9409 L1923.53 24.4096 Z" fill="#000000" fill-rule="nonzero" fill-opacity="1" /><path clip-path="url(#clip790)" d="M1943.84 35.5496 Q1937.39 35.5496 1934.9 37.0253 Q1932.41 38.501 1932.41 42.06 Q1932.41 44.8956 1934.26 46.5738 Q1936.14 48.2231 1939.35 48.2231 Q1943.78 48.2231 1946.44 45.0981 Q1949.13 41.9442 1949.13 36.7359 L1949.13 35.5496 L1943.84 35.5496 M1954.46 33.3505 L1954.46 51.84 L1949.13 51.84 L1949.13 46.921 Q1947.31 49.8724 1944.59 51.2902 Q1941.87 52.6791 1937.94 52.6791 Q1932.96 52.6791 1930.01 49.9014 Q1927.09 47.0947 1927.09 42.4072 Q1927.09 36.9385 1930.73 34.1607 Q1934.41 31.3829 1941.67 31.3829 L1949.13 31.3829 L1949.13 30.8621 Q1949.13 27.1874 1946.7 25.1908 Q1944.3 23.1654 1939.93 23.1654 Q1937.16 23.1654 1934.52 23.8309 Q1931.89 24.4964 1929.46 25.8274 L1929.46 20.9085 Q1932.38 19.78 1935.13 19.2302 Q1937.88 18.6515 1940.48 18.6515 Q1947.51 18.6515 1950.99 22.2973 Q1954.46 25.9431 1954.46 33.3505 Z" fill="#000000" fill-rule="nonzero" fill-opacity="1" /><path clip-path="url(#clip790)" d="M1965.42 19.4328 L1970.75 19.4328 L1970.75 51.84 L1965.42 51.84 L1965.42 19.4328 M1965.42 6.81709 L1970.75 6.81709 L1970.75 13.559 L1965.42 13.559 L1965.42 6.81709 Z" fill="#000000" fill-rule="nonzero" fill-opacity="1" /><path clip-path="url(#clip790)" d="M2008.83 32.2799 L2008.83 51.84 L2003.5 51.84 L2003.5 32.4535 Q2003.5 27.8529 2001.71 25.567 Q1999.92 23.2811 1996.33 23.2811 Q1992.02 23.2811 1989.53 26.03 Q1987.04 28.7788 1987.04 33.5241 L1987.04 51.84 L1981.69 51.84 L1981.69 19.4328 L1987.04 19.4328 L1987.04 24.4675 Q1988.95 21.545 1991.52 20.0983 Q1994.13 18.6515 1997.51 18.6515 Q2003.1 18.6515 2005.96 22.1237 Q2008.83 25.567 2008.83 32.2799 Z" fill="#000000" fill-rule="nonzero" fill-opacity="1" /><path clip-path="url(#clip790)" d="M2019.45 19.4328 L2024.77 19.4328 L2024.77 51.84 L2019.45 51.84 L2019.45 19.4328 M2019.45 6.81709 L2024.77 6.81709 L2024.77 13.559 L2019.45 13.559 L2019.45 6.81709 Z" fill="#000000" fill-rule="nonzero" fill-opacity="1" /><path clip-path="url(#clip790)" d="M2062.85 32.2799 L2062.85 51.84 L2057.52 51.84 L2057.52 32.4535 Q2057.52 27.8529 2055.73 25.567 Q2053.94 23.2811 2050.35 23.2811 Q2046.04 23.2811 2043.55 26.03 Q2041.06 28.7788 2041.06 33.5241 L2041.06 51.84 L2035.71 51.84 L2035.71 19.4328 L2041.06 19.4328 L2041.06 24.4675 Q2042.97 21.545 2045.55 20.0983 Q2048.15 18.6515 2051.54 18.6515 Q2057.12 18.6515 2059.98 22.1237 Q2062.85 25.567 2062.85 32.2799 Z" fill="#000000" fill-rule="nonzero" fill-opacity="1" /><path clip-path="url(#clip790)" d="M2094.79 35.2602 Q2094.79 29.4732 2092.39 26.2904 Q2090.02 23.1075 2085.71 23.1075 Q2081.43 23.1075 2079.02 26.2904 Q2076.65 29.4732 2076.65 35.2602 Q2076.65 41.0183 2079.02 44.2012 Q2081.43 47.384 2085.71 47.384 Q2090.02 47.384 2092.39 44.2012 Q2094.79 41.0183 2094.79 35.2602 M2100.12 47.818 Q2100.12 56.0934 2096.44 60.1154 Q2092.77 64.1663 2085.19 64.1663 Q2082.38 64.1663 2079.89 63.7323 Q2077.4 63.3272 2075.06 62.4592 L2075.06 57.2798 Q2077.4 58.5529 2079.69 59.1606 Q2081.97 59.7682 2084.35 59.7682 Q2089.58 59.7682 2092.19 57.0194 Q2094.79 54.2995 2094.79 48.7729 L2094.79 46.1398 Q2093.14 49.0044 2090.57 50.4222 Q2087.99 51.84 2084.41 51.84 Q2078.44 51.84 2074.8 47.2972 Q2071.15 42.7544 2071.15 35.2602 Q2071.15 27.7371 2074.8 23.1943 Q2078.44 18.6515 2084.41 18.6515 Q2087.99 18.6515 2090.57 20.0693 Q2093.14 21.4872 2094.79 24.3517 L2094.79 19.4328 L2100.12 19.4328 L2100.12 47.818 Z" fill="#000000" fill-rule="nonzero" fill-opacity="1" /><path clip-path="url(#clip790)" d="M2129.92 6.81709 L2135.24 6.81709 L2135.24 51.84 L2129.92 51.84 L2129.92 6.81709 Z" fill="#000000" fill-rule="nonzero" fill-opacity="1" /><path clip-path="url(#clip790)" d="M2158.94 23.1654 Q2154.66 23.1654 2152.17 26.5218 Q2149.68 29.8494 2149.68 35.6653 Q2149.68 41.4813 2152.14 44.8377 Q2154.63 48.1653 2158.94 48.1653 Q2163.2 48.1653 2165.68 44.8088 Q2168.17 41.4523 2168.17 35.6653 Q2168.17 29.9072 2165.68 26.5508 Q2163.2 23.1654 2158.94 23.1654 M2158.94 18.6515 Q2165.89 18.6515 2169.85 23.1654 Q2173.81 27.6792 2173.81 35.6653 Q2173.81 43.6225 2169.85 48.1653 Q2165.89 52.6791 2158.94 52.6791 Q2151.97 52.6791 2148 48.1653 Q2144.07 43.6225 2144.07 35.6653 Q2144.07 27.6792 2148 23.1654 Q2151.97 18.6515 2158.94 18.6515 Z" fill="#000000" fill-rule="nonzero" fill-opacity="1" /><path clip-path="url(#clip790)" d="M2203.3 20.3876 L2203.3 25.4223 Q2201.04 24.2649 2198.61 23.6862 Q2196.18 23.1075 2193.58 23.1075 Q2189.61 23.1075 2187.62 24.3228 Q2185.65 25.5381 2185.65 27.9686 Q2185.65 29.8204 2187.07 30.891 Q2188.48 31.9327 2192.77 32.8876 L2194.59 33.2926 Q2200.26 34.5079 2202.63 36.7359 Q2205.04 38.935 2205.04 42.8991 Q2205.04 47.4129 2201.45 50.046 Q2197.89 52.6791 2191.64 52.6791 Q2189.03 52.6791 2186.2 52.1583 Q2183.39 51.6664 2180.27 50.6537 L2180.27 45.156 Q2183.22 46.6896 2186.08 47.4708 Q2188.95 48.2231 2191.75 48.2231 Q2195.52 48.2231 2197.54 46.95 Q2199.57 45.6479 2199.57 43.3042 Q2199.57 41.134 2198.09 39.9766 Q2196.64 38.8192 2191.7 37.7486 L2189.84 37.3146 Q2184.9 36.273 2182.7 34.1318 Q2180.5 31.9616 2180.5 28.2001 Q2180.5 23.6283 2183.74 21.1399 Q2186.98 18.6515 2192.94 18.6515 Q2195.89 18.6515 2198.5 19.0855 Q2201.1 19.5196 2203.3 20.3876 Z" fill="#000000" fill-rule="nonzero" fill-opacity="1" /><path clip-path="url(#clip790)" d="M2234.17 20.3876 L2234.17 25.4223 Q2231.92 24.2649 2229.49 23.6862 Q2227.06 23.1075 2224.45 23.1075 Q2220.49 23.1075 2218.49 24.3228 Q2216.52 25.5381 2216.52 27.9686 Q2216.52 29.8204 2217.94 30.891 Q2219.36 31.9327 2223.64 32.8876 L2225.46 33.2926 Q2231.14 34.5079 2233.51 36.7359 Q2235.91 38.935 2235.91 42.8991 Q2235.91 47.4129 2232.32 50.046 Q2228.76 52.6791 2222.51 52.6791 Q2219.91 52.6791 2217.07 52.1583 Q2214.27 51.6664 2211.14 50.6537 L2211.14 45.156 Q2214.09 46.6896 2216.96 47.4708 Q2219.82 48.2231 2222.63 48.2231 Q2226.39 48.2231 2228.42 46.95 Q2230.44 45.6479 2230.44 43.3042 Q2230.44 41.134 2228.96 39.9766 Q2227.52 38.8192 2222.57 37.7486 L2220.72 37.3146 Q2215.77 36.273 2213.57 34.1318 Q2211.37 31.9616 2211.37 28.2001 Q2211.37 23.6283 2214.61 21.1399 Q2217.85 18.6515 2223.81 18.6515 Q2226.77 18.6515 2229.37 19.0855 Q2231.97 19.5196 2234.17 20.3876 Z" fill="#000000" fill-rule="nonzero" fill-opacity="1" /><polyline clip-path="url(#clip792)" style="stroke:#8b0000; stroke-linecap:round; stroke-linejoin:round; stroke-width:8; stroke-opacity:1; fill:none" points="390.37,799.007 570.841,867.714 751.311,1025.32 931.782,1160.8 1112.25,1229.19 1292.72,1117.13 1473.19,1076.67 1653.66,1170.01 1834.13,1077.23 2014.61,1218.78 2195.08,1293.63 2375.55,1007.56 2556.02,1294.03 2736.49,897.751 2916.96,908.849 "/>
<polyline clip-path="url(#clip792)" style="stroke:#000080; stroke-linecap:round; stroke-linejoin:round; stroke-width:8; stroke-opacity:1; fill:none" points="390.37,764.398 570.841,536.743 751.311,138.924 931.782,177.073 1112.25,370.591 1292.72,1120.28 1473.19,1228.64 1653.66,1253.69 1834.13,1476.3 2014.61,1213.61 2195.08,615.631 2375.55,1138.75 2556.02,999.017 2736.49,1242.16 2916.96,661.734 "/>
<path clip-path="url(#clip790)" d="M2397.59 301.577 L2903.48 301.577 L2903.48 146.057 L2397.59 146.057  Z" fill="#ffffff" fill-rule="evenodd" fill-opacity="1"/>
<polyline clip-path="url(#clip790)" style="stroke:#000000; stroke-linecap:round; stroke-linejoin:round; stroke-width:4; stroke-opacity:1; fill:none" points="2397.59,301.577 2903.48,301.577 2903.48,146.057 2397.59,146.057 2397.59,301.577 "/>
<polyline clip-path="url(#clip790)" style="stroke:#8b0000; stroke-linecap:round; stroke-linejoin:round; stroke-width:8; stroke-opacity:1; fill:none" points="2427.34,197.897 2605.89,197.897 "/>
<path clip-path="url(#clip790)" d="M2663.52 183.279 L2663.52 188.209 Q2661.16 186.01 2658.47 184.922 Q2655.81 183.834 2652.8 183.834 Q2646.87 183.834 2643.73 187.468 Q2640.58 191.079 2640.58 197.931 Q2640.58 204.76 2643.73 208.394 Q2646.87 212.005 2652.8 212.005 Q2655.81 212.005 2658.47 210.917 Q2661.16 209.829 2663.52 207.63 L2663.52 212.515 Q2661.06 214.181 2658.31 215.015 Q2655.58 215.848 2652.52 215.848 Q2644.68 215.848 2640.16 211.056 Q2635.65 206.241 2635.65 197.931 Q2635.65 189.598 2640.16 184.806 Q2644.68 179.992 2652.52 179.992 Q2655.62 179.992 2658.36 180.825 Q2661.11 181.635 2663.52 183.279 Z" fill="#000000" fill-rule="nonzero" fill-opacity="1" /><path clip-path="url(#clip790)" d="M2685.58 193.232 Q2684.86 192.816 2684 192.63 Q2683.17 192.422 2682.15 192.422 Q2678.54 192.422 2676.6 194.783 Q2674.68 197.121 2674.68 201.519 L2674.68 215.177 L2670.39 215.177 L2670.39 189.251 L2674.68 189.251 L2674.68 193.279 Q2676.02 190.917 2678.17 189.783 Q2680.32 188.626 2683.4 188.626 Q2683.84 188.626 2684.37 188.695 Q2684.91 188.742 2685.56 188.857 L2685.58 193.232 Z" fill="#000000" fill-rule="nonzero" fill-opacity="1" /><path clip-path="url(#clip790)" d="M2690.05 189.251 L2694.31 189.251 L2694.31 215.177 L2690.05 215.177 L2690.05 189.251 M2690.05 179.158 L2694.31 179.158 L2694.31 184.552 L2690.05 184.552 L2690.05 179.158 Z" fill="#000000" fill-rule="nonzero" fill-opacity="1" /><path clip-path="url(#clip790)" d="M2707.43 181.89 L2707.43 189.251 L2716.2 189.251 L2716.2 192.561 L2707.43 192.561 L2707.43 206.635 Q2707.43 209.806 2708.29 210.709 Q2709.17 211.612 2711.83 211.612 L2716.2 211.612 L2716.2 215.177 L2711.83 215.177 Q2706.9 215.177 2705.02 213.348 Q2703.15 211.496 2703.15 206.635 L2703.15 192.561 L2700.02 192.561 L2700.02 189.251 L2703.15 189.251 L2703.15 181.89 L2707.43 181.89 Z" fill="#000000" fill-rule="nonzero" fill-opacity="1" /><path clip-path="url(#clip790)" d="M2721.81 189.251 L2726.06 189.251 L2726.06 215.177 L2721.81 215.177 L2721.81 189.251 M2721.81 179.158 L2726.06 179.158 L2726.06 184.552 L2721.81 184.552 L2721.81 179.158 Z" fill="#000000" fill-rule="nonzero" fill-opacity="1" /><path clip-path="url(#clip790)" d="M2753.63 190.246 L2753.63 194.228 Q2751.83 193.232 2750 192.746 Q2748.19 192.237 2746.34 192.237 Q2742.2 192.237 2739.91 194.876 Q2737.62 197.491 2737.62 202.237 Q2737.62 206.982 2739.91 209.621 Q2742.2 212.237 2746.34 212.237 Q2748.19 212.237 2750 211.751 Q2751.83 211.241 2753.63 210.246 L2753.63 214.181 Q2751.85 215.015 2749.93 215.431 Q2748.03 215.848 2745.88 215.848 Q2740.02 215.848 2736.57 212.167 Q2733.12 208.487 2733.12 202.237 Q2733.12 195.894 2736.6 192.26 Q2740.09 188.626 2746.16 188.626 Q2748.12 188.626 2750 189.042 Q2751.87 189.436 2753.63 190.246 Z" fill="#000000" fill-rule="nonzero" fill-opacity="1" /><polyline clip-path="url(#clip790)" style="stroke:#000080; stroke-linecap:round; stroke-linejoin:round; stroke-width:8; stroke-opacity:1; fill:none" points="2427.34,249.737 2605.89,249.737 "/>
<path clip-path="url(#clip790)" d="M2661.2 262.086 L2661.2 252.804 L2653.56 252.804 L2653.56 248.961 L2665.83 248.961 L2665.83 263.799 Q2663.12 265.72 2659.86 266.716 Q2656.6 267.688 2652.89 267.688 Q2644.79 267.688 2640.21 262.966 Q2635.65 258.22 2635.65 249.771 Q2635.65 241.299 2640.21 236.577 Q2644.79 231.832 2652.89 231.832 Q2656.27 231.832 2659.31 232.665 Q2662.36 233.498 2664.93 235.119 L2664.93 240.095 Q2662.34 237.896 2659.42 236.785 Q2656.5 235.674 2653.29 235.674 Q2646.94 235.674 2643.75 239.216 Q2640.58 242.757 2640.58 249.771 Q2640.58 256.762 2643.75 260.304 Q2646.94 263.845 2653.29 263.845 Q2655.76 263.845 2657.71 263.429 Q2659.65 262.989 2661.2 262.086 Z" fill="#000000" fill-rule="nonzero" fill-opacity="1" /><path clip-path="url(#clip790)" d="M2696.37 252.989 L2696.37 255.072 L2676.78 255.072 Q2677.06 259.47 2679.42 261.785 Q2681.81 264.077 2686.04 264.077 Q2688.5 264.077 2690.79 263.475 Q2693.1 262.873 2695.37 261.669 L2695.37 265.697 Q2693.08 266.669 2690.67 267.179 Q2688.26 267.688 2685.79 267.688 Q2679.58 267.688 2675.95 264.077 Q2672.34 260.466 2672.34 254.308 Q2672.34 247.943 2675.76 244.216 Q2679.21 240.466 2685.05 240.466 Q2690.28 240.466 2693.31 243.845 Q2696.37 247.202 2696.37 252.989 M2692.11 251.739 Q2692.06 248.244 2690.14 246.16 Q2688.24 244.077 2685.09 244.077 Q2681.53 244.077 2679.37 246.091 Q2677.25 248.105 2676.92 251.762 L2692.11 251.739 Z" fill="#000000" fill-rule="nonzero" fill-opacity="1" /><path clip-path="url(#clip790)" d="M2724.91 251.368 L2724.91 267.017 L2720.65 267.017 L2720.65 251.507 Q2720.65 247.827 2719.21 245.998 Q2717.78 244.169 2714.91 244.169 Q2711.46 244.169 2709.47 246.369 Q2707.48 248.568 2707.48 252.364 L2707.48 267.017 L2703.19 267.017 L2703.19 241.091 L2707.48 241.091 L2707.48 245.119 Q2709 242.781 2711.06 241.623 Q2713.15 240.466 2715.86 240.466 Q2720.32 240.466 2722.62 243.244 Q2724.91 245.998 2724.91 251.368 Z" fill="#000000" fill-rule="nonzero" fill-opacity="1" /><path clip-path="url(#clip790)" d="M2755.58 252.989 L2755.58 255.072 L2735.99 255.072 Q2736.27 259.47 2738.63 261.785 Q2741.02 264.077 2745.25 264.077 Q2747.71 264.077 2750 263.475 Q2752.31 262.873 2754.58 261.669 L2754.58 265.697 Q2752.29 266.669 2749.88 267.179 Q2747.48 267.688 2745 267.688 Q2738.8 267.688 2735.16 264.077 Q2731.55 260.466 2731.55 254.308 Q2731.55 247.943 2734.98 244.216 Q2738.43 240.466 2744.26 240.466 Q2749.49 240.466 2752.52 243.845 Q2755.58 247.202 2755.58 252.989 M2751.32 251.739 Q2751.27 248.244 2749.35 246.16 Q2747.45 244.077 2744.3 244.077 Q2740.74 244.077 2738.59 246.091 Q2736.46 248.105 2736.13 251.762 L2751.32 251.739 Z" fill="#000000" fill-rule="nonzero" fill-opacity="1" /><path clip-path="url(#clip790)" d="M2777.59 245.072 Q2776.87 244.656 2776.02 244.47 Q2775.18 244.262 2774.17 244.262 Q2770.55 244.262 2768.61 246.623 Q2766.69 248.961 2766.69 253.359 L2766.69 267.017 L2762.41 267.017 L2762.41 241.091 L2766.69 241.091 L2766.69 245.119 Q2768.03 242.757 2770.18 241.623 Q2772.34 240.466 2775.42 240.466 Q2775.86 240.466 2776.39 240.535 Q2776.92 240.582 2777.57 240.697 L2777.59 245.072 Z" fill="#000000" fill-rule="nonzero" fill-opacity="1" /><path clip-path="url(#clip790)" d="M2793.84 253.984 Q2788.68 253.984 2786.69 255.165 Q2784.7 256.345 2784.7 259.193 Q2784.7 261.461 2786.18 262.804 Q2787.68 264.123 2790.25 264.123 Q2793.8 264.123 2795.93 261.623 Q2798.08 259.1 2798.08 254.933 L2798.08 253.984 L2793.84 253.984 M2802.34 252.225 L2802.34 267.017 L2798.08 267.017 L2798.08 263.081 Q2796.62 265.442 2794.44 266.577 Q2792.27 267.688 2789.12 267.688 Q2785.14 267.688 2782.78 265.466 Q2780.44 263.22 2780.44 259.47 Q2780.44 255.095 2783.36 252.873 Q2786.3 250.651 2792.11 250.651 L2798.08 250.651 L2798.08 250.234 Q2798.08 247.294 2796.13 245.697 Q2794.21 244.077 2790.72 244.077 Q2788.49 244.077 2786.39 244.609 Q2784.28 245.142 2782.34 246.206 L2782.34 242.271 Q2784.68 241.369 2786.87 240.929 Q2789.07 240.466 2791.16 240.466 Q2796.78 240.466 2799.56 243.382 Q2802.34 246.299 2802.34 252.225 Z" fill="#000000" fill-rule="nonzero" fill-opacity="1" /><path clip-path="url(#clip790)" d="M2815.32 233.73 L2815.32 241.091 L2824.1 241.091 L2824.1 244.401 L2815.32 244.401 L2815.32 258.475 Q2815.32 261.646 2816.18 262.549 Q2817.06 263.452 2819.72 263.452 L2824.1 263.452 L2824.1 267.017 L2819.72 267.017 Q2814.79 267.017 2812.92 265.188 Q2811.04 263.336 2811.04 258.475 L2811.04 244.401 L2807.92 244.401 L2807.92 241.091 L2811.04 241.091 L2811.04 233.73 L2815.32 233.73 Z" fill="#000000" fill-rule="nonzero" fill-opacity="1" /><path clip-path="url(#clip790)" d="M2839.74 244.077 Q2836.32 244.077 2834.33 246.762 Q2832.34 249.424 2832.34 254.077 Q2832.34 258.73 2834.3 261.415 Q2836.3 264.077 2839.74 264.077 Q2843.15 264.077 2845.14 261.392 Q2847.13 258.706 2847.13 254.077 Q2847.13 249.47 2845.14 246.785 Q2843.15 244.077 2839.74 244.077 M2839.74 240.466 Q2845.3 240.466 2848.47 244.077 Q2851.64 247.688 2851.64 254.077 Q2851.64 260.443 2848.47 264.077 Q2845.3 267.688 2839.74 267.688 Q2834.17 267.688 2830.99 264.077 Q2827.85 260.443 2827.85 254.077 Q2827.85 247.688 2830.99 244.077 Q2834.17 240.466 2839.74 240.466 Z" fill="#000000" fill-rule="nonzero" fill-opacity="1" /><path clip-path="url(#clip790)" d="M2873.73 245.072 Q2873.01 244.656 2872.15 244.47 Q2871.32 244.262 2870.3 244.262 Q2866.69 244.262 2864.74 246.623 Q2862.82 248.961 2862.82 253.359 L2862.82 267.017 L2858.54 267.017 L2858.54 241.091 L2862.82 241.091 L2862.82 245.119 Q2864.17 242.757 2866.32 241.623 Q2868.47 240.466 2871.55 240.466 Q2871.99 240.466 2872.52 240.535 Q2873.05 240.582 2873.7 240.697 L2873.73 245.072 Z" fill="#000000" fill-rule="nonzero" fill-opacity="1" /></svg>
