<?xml version="1.0" encoding="utf-8"?>
<svg xmlns="http://www.w3.org/2000/svg" xmlns:xlink="http://www.w3.org/1999/xlink" width="600" height="400" viewBox="0 0 2400 1600">
<defs>
  <clipPath id="clip970">
    <rect x="0" y="0" width="2400" height="1600"/>
  </clipPath>
</defs>
<path clip-path="url(#clip970)" d="M0 1600 L2400 1600 L2400 8.88178e-14 L0 8.88178e-14  Z" fill="#ffffff" fill-rule="evenodd" fill-opacity="1"/>
<defs>
  <clipPath id="clip971">
    <rect x="419" y="125" width="1855" height="1116"/>
  </clipPath>
</defs>
<path clip-path="url(#clip970)" d="M441.385 1241.31 L2274.02 1241.31 L2274.02 125.984 L441.385 125.984  Z" fill="#ffffff" fill-rule="evenodd" fill-opacity="1"/>
<defs>
  <clipPath id="clip972">
    <rect x="441" y="125" width="1834" height="1116"/>
  </clipPath>
</defs>
<polyline clip-path="url(#clip972)" style="stroke:#000000; stroke-linecap:round; stroke-linejoin:round; stroke-width:2; stroke-opacity:0.1; fill:none" points="476.059,1241.31 476.059,125.984 "/>
<polyline clip-path="url(#clip972)" style="stroke:#000000; stroke-linecap:round; stroke-linejoin:round; stroke-width:2; stroke-opacity:0.1; fill:none" points="1027.08,1241.31 1027.08,125.984 "/>
<polyline clip-path="url(#clip972)" style="stroke:#000000; stroke-linecap:round; stroke-linejoin:round; stroke-width:2; stroke-opacity:0.1; fill:none" points="1578.11,1241.31 1578.11,125.984 "/>
<polyline clip-path="url(#clip972)" style="stroke:#000000; stroke-linecap:round; stroke-linejoin:round; stroke-width:2; stroke-opacity:0.1; fill:none" points="2129.14,1241.31 2129.14,125.984 "/>
<polyline clip-path="url(#clip972)" style="stroke:#000000; stroke-linecap:round; stroke-linejoin:round; stroke-width:2; stroke-opacity:0.1; fill:none" points="441.385,1241.31 2274.02,1241.31 "/>
<polyline clip-path="url(#clip972)" style="stroke:#000000; stroke-linecap:round; stroke-linejoin:round; stroke-width:2; stroke-opacity:0.1; fill:none" points="441.385,885.046 2274.02,885.046 "/>
<polyline clip-path="url(#clip972)" style="stroke:#000000; stroke-linecap:round; stroke-linejoin:round; stroke-width:2; stroke-opacity:0.1; fill:none" points="441.385,528.781 2274.02,528.781 "/>
<polyline clip-path="url(#clip972)" style="stroke:#000000; stroke-linecap:round; stroke-linejoin:round; stroke-width:2; stroke-opacity:0.1; fill:none" points="441.385,172.516 2274.02,172.516 "/>
<polyline clip-path="url(#clip970)" style="stroke:#000000; stroke-linecap:round; stroke-linejoin:round; stroke-width:4; stroke-opacity:1; fill:none" points="441.385,1241.31 2274.02,1241.31 "/>
<polyline clip-path="url(#clip970)" style="stroke:#000000; stroke-linecap:round; stroke-linejoin:round; stroke-width:4; stroke-opacity:1; fill:none" points="476.059,1241.31 476.059,1222.41 "/>
<polyline clip-path="url(#clip970)" style="stroke:#000000; stroke-linecap:round; stroke-linejoin:round; stroke-width:4; stroke-opacity:1; fill:none" points="1027.08,1241.31 1027.08,1222.41 "/>
<polyline clip-path="url(#clip970)" style="stroke:#000000; stroke-linecap:round; stroke-linejoin:round; stroke-width:4; stroke-opacity:1; fill:none" points="1578.11,1241.31 1578.11,1222.41 "/>
<polyline clip-path="url(#clip970)" style="stroke:#000000; stroke-linecap:round; stroke-linejoin:round; stroke-width:4; stroke-opacity:1; fill:none" points="2129.14,1241.31 2129.14,1222.41 "/>
<path clip-path="url(#clip970)" d="M476.059 1275.16 Q471.546 1275.16 469.26 1279.62 Q467.003 1284.04 467.003 1292.95 Q467.003 1301.84 469.26 1306.29 Q471.546 1310.72 476.059 1310.72 Q480.602 1310.72 482.859 1306.29 Q485.145 1301.84 485.145 1292.95 Q485.145 1284.04 482.859 1279.62 Q480.602 1275.16 476.059 1275.16 M476.059 1270.53 Q483.322 1270.53 487.142 1276.29 Q490.99 1282.02 490.99 1292.95 Q490.99 1303.86 487.142 1309.62 Q483.322 1315.35 476.059 1315.35 Q468.797 1315.35 464.948 1309.62 Q461.129 1303.86 461.129 1292.95 Q461.129 1282.02 464.948 1276.29 Q468.797 1270.53 476.059 1270.53 Z" fill="#000000" fill-rule="nonzero" fill-opacity="1" /><path clip-path="url(#clip970)" d="M1014.93 1271.31 L1037.88 1271.31 L1037.88 1276.23 L1020.29 1276.23 L1020.29 1286.82 Q1021.56 1286.39 1022.83 1286.18 Q1024.1 1285.95 1025.38 1285.95 Q1032.61 1285.95 1036.84 1289.92 Q1041.06 1293.88 1041.06 1300.65 Q1041.06 1307.62 1036.72 1311.5 Q1032.38 1315.35 1024.48 1315.35 Q1021.76 1315.35 1018.93 1314.89 Q1016.12 1314.42 1013.11 1313.5 L1013.11 1307.62 Q1015.71 1309.04 1018.49 1309.74 Q1021.27 1310.43 1024.37 1310.43 Q1029.37 1310.43 1032.29 1307.8 Q1035.22 1305.17 1035.22 1300.65 Q1035.22 1296.14 1032.29 1293.5 Q1029.37 1290.87 1024.37 1290.87 Q1022.02 1290.87 1019.68 1291.39 Q1017.36 1291.91 1014.93 1293.01 L1014.93 1271.31 Z" fill="#000000" fill-rule="nonzero" fill-opacity="1" /><path clip-path="url(#clip970)" d="M1546.47 1309.59 L1556.02 1309.59 L1556.02 1276.64 L1545.63 1278.72 L1545.63 1273.39 L1555.96 1271.31 L1561.81 1271.31 L1561.81 1309.59 L1571.35 1309.59 L1571.35 1314.51 L1546.47 1314.51 L1546.47 1309.59 Z" fill="#000000" fill-rule="nonzero" fill-opacity="1" /><path clip-path="url(#clip970)" d="M1595.66 1275.16 Q1591.15 1275.16 1588.86 1279.62 Q1586.6 1284.04 1586.6 1292.95 Q1586.6 1301.84 1588.86 1306.29 Q1591.15 1310.72 1595.66 1310.72 Q1600.2 1310.72 1602.46 1306.29 Q1604.75 1301.84 1604.75 1292.95 Q1604.75 1284.04 1602.46 1279.62 Q1600.2 1275.16 1595.66 1275.16 M1595.66 1270.53 Q1602.92 1270.53 1606.74 1276.29 Q1610.59 1282.02 1610.59 1292.95 Q1610.59 1303.86 1606.74 1309.62 Q1602.92 1315.35 1595.66 1315.35 Q1588.4 1315.35 1584.55 1309.62 Q1580.73 1303.86 1580.73 1292.95 Q1580.73 1282.02 1584.55 1276.29 Q1588.4 1270.53 1595.66 1270.53 Z" fill="#000000" fill-rule="nonzero" fill-opacity="1" /><path clip-path="url(#clip970)" d="M2098.12 1309.59 L2107.67 1309.59 L2107.67 1276.64 L2097.28 1278.72 L2097.28 1273.39 L2107.61 1271.31 L2113.45 1271.31 L2113.45 1309.59 L2123 1309.59 L2123 1314.51 L2098.12 1314.51 L2098.12 1309.59 Z" fill="#000000" fill-rule="nonzero" fill-opacity="1" /><path clip-path="url(#clip970)" d="M2134.86 1271.31 L2157.81 1271.31 L2157.81 1276.23 L2140.22 1276.23 L2140.22 1286.82 Q2141.49 1286.39 2142.76 1286.18 Q2144.04 1285.95 2145.31 1285.95 Q2152.54 1285.95 2156.77 1289.92 Q2160.99 1293.88 2160.99 1300.65 Q2160.99 1307.62 2156.65 1311.5 Q2152.31 1315.35 2144.41 1315.35 Q2141.69 1315.35 2138.86 1314.89 Q2136.05 1314.42 2133.04 1313.5 L2133.04 1307.62 Q2135.65 1309.04 2138.42 1309.74 Q2141.2 1310.43 2144.3 1310.43 Q2149.3 1310.43 2152.23 1307.8 Q2155.15 1305.17 2155.15 1300.65 Q2155.15 1296.14 2152.23 1293.5 Q2149.3 1290.87 2144.3 1290.87 Q2141.95 1290.87 2139.61 1291.39 Q2137.3 1291.91 2134.86 1293.01 L2134.86 1271.31 Z" fill="#000000" fill-rule="nonzero" fill-opacity="1" /><path clip-path="url(#clip970)" d="M1305.9 1353.18 L1305.9 1359.45 Q1302.24 1357.69 1298.99 1356.84 Q1295.75 1355.98 1292.72 1355.98 Q1287.47 1355.98 1284.61 1358.01 Q1281.77 1360.05 1281.77 1363.81 Q1281.77 1366.96 1283.65 1368.58 Q1285.56 1370.17 1290.84 1371.16 L1294.73 1371.95 Q1301.92 1373.32 1305.33 1376.79 Q1308.76 1380.23 1308.76 1386.02 Q1308.76 1392.93 1304.12 1396.49 Q1299.5 1400.06 1290.56 1400.06 Q1287.18 1400.06 1283.36 1399.29 Q1279.58 1398.53 1275.5 1397.03 L1275.5 1390.41 Q1279.42 1392.61 1283.17 1393.72 Q1286.93 1394.84 1290.56 1394.84 Q1296.06 1394.84 1299.06 1392.67 Q1302.05 1390.51 1302.05 1386.5 Q1302.05 1383 1299.88 1381.03 Q1297.75 1379.05 1292.85 1378.07 L1288.93 1377.3 Q1281.74 1375.87 1278.53 1372.81 Q1275.31 1369.76 1275.31 1364.32 Q1275.31 1358.01 1279.74 1354.38 Q1284.19 1350.76 1291.99 1350.76 Q1295.33 1350.76 1298.8 1351.36 Q1302.27 1351.97 1305.9 1353.18 Z" fill="#000000" fill-rule="nonzero" fill-opacity="1" /><path clip-path="url(#clip970)" d="M1324.33 1353.37 L1324.33 1363.49 L1336.39 1363.49 L1336.39 1368.04 L1324.33 1368.04 L1324.33 1387.39 Q1324.33 1391.75 1325.51 1392.99 Q1326.72 1394.23 1330.38 1394.23 L1336.39 1394.23 L1336.39 1399.14 L1330.38 1399.14 Q1323.6 1399.14 1321.02 1396.62 Q1318.44 1394.07 1318.44 1387.39 L1318.44 1368.04 L1314.14 1368.04 L1314.14 1363.49 L1318.44 1363.49 L1318.44 1353.37 L1324.33 1353.37 Z" fill="#000000" fill-rule="nonzero" fill-opacity="1" /><path clip-path="url(#clip970)" d="M1360.29 1381.22 Q1353.2 1381.22 1350.46 1382.84 Q1347.72 1384.46 1347.72 1388.38 Q1347.72 1391.5 1349.76 1393.34 Q1351.83 1395.16 1355.36 1395.16 Q1360.23 1395.16 1363.16 1391.72 Q1366.12 1388.25 1366.12 1382.52 L1366.12 1381.22 L1360.29 1381.22 M1371.98 1378.8 L1371.98 1399.14 L1366.12 1399.14 L1366.12 1393.72 Q1364.11 1396.97 1361.12 1398.53 Q1358.13 1400.06 1353.8 1400.06 Q1348.33 1400.06 1345.08 1397 Q1341.87 1393.92 1341.87 1388.76 Q1341.87 1382.74 1345.88 1379.69 Q1349.92 1376.63 1357.91 1376.63 L1366.12 1376.63 L1366.12 1376.06 Q1366.12 1372.02 1363.45 1369.82 Q1360.8 1367.59 1356 1367.59 Q1352.94 1367.59 1350.05 1368.33 Q1347.15 1369.06 1344.48 1370.52 L1344.48 1365.11 Q1347.69 1363.87 1350.71 1363.26 Q1353.74 1362.63 1356.6 1362.63 Q1364.34 1362.63 1368.16 1366.64 Q1371.98 1370.65 1371.98 1378.8 Z" fill="#000000" fill-rule="nonzero" fill-opacity="1" /><path clip-path="url(#clip970)" d="M1389.83 1353.37 L1389.83 1363.49 L1401.89 1363.49 L1401.89 1368.04 L1389.83 1368.04 L1389.83 1387.39 Q1389.83 1391.75 1391.01 1392.99 Q1392.22 1394.23 1395.88 1394.23 L1401.89 1394.23 L1401.89 1399.14 L1395.88 1399.14 Q1389.1 1399.14 1386.52 1396.62 Q1383.94 1394.07 1383.94 1387.39 L1383.94 1368.04 L1379.65 1368.04 L1379.65 1363.49 L1383.94 1363.49 L1383.94 1353.37 L1389.83 1353.37 Z" fill="#000000" fill-rule="nonzero" fill-opacity="1" /><path clip-path="url(#clip970)" d="M1440.09 1379.85 L1440.09 1382.71 L1413.16 1382.71 Q1413.54 1388.76 1416.79 1391.94 Q1420.07 1395.09 1425.89 1395.09 Q1429.27 1395.09 1432.42 1394.27 Q1435.6 1393.44 1438.72 1391.78 L1438.72 1397.32 Q1435.57 1398.66 1432.26 1399.36 Q1428.95 1400.06 1425.54 1400.06 Q1417.01 1400.06 1412.02 1395.09 Q1407.05 1390.13 1407.05 1381.66 Q1407.05 1372.91 1411.76 1367.78 Q1416.5 1362.63 1424.52 1362.63 Q1431.72 1362.63 1435.89 1367.28 Q1440.09 1371.89 1440.09 1379.85 M1434.23 1378.13 Q1434.17 1373.32 1431.53 1370.46 Q1428.92 1367.59 1424.59 1367.59 Q1419.69 1367.59 1416.73 1370.36 Q1413.8 1373.13 1413.35 1378.16 L1434.23 1378.13 Z" fill="#000000" fill-rule="nonzero" fill-opacity="1" /><polyline clip-path="url(#clip970)" style="stroke:#000000; stroke-linecap:round; stroke-linejoin:round; stroke-width:4; stroke-opacity:1; fill:none" points="441.385,1241.31 441.385,125.984 "/>
<polyline clip-path="url(#clip970)" style="stroke:#000000; stroke-linecap:round; stroke-linejoin:round; stroke-width:4; stroke-opacity:1; fill:none" points="441.385,1241.31 460.282,1241.31 "/>
<polyline clip-path="url(#clip970)" style="stroke:#000000; stroke-linecap:round; stroke-linejoin:round; stroke-width:4; stroke-opacity:1; fill:none" points="441.385,885.046 460.282,885.046 "/>
<polyline clip-path="url(#clip970)" style="stroke:#000000; stroke-linecap:round; stroke-linejoin:round; stroke-width:4; stroke-opacity:1; fill:none" points="441.385,528.781 460.282,528.781 "/>
<polyline clip-path="url(#clip970)" style="stroke:#000000; stroke-linecap:round; stroke-linejoin:round; stroke-width:4; stroke-opacity:1; fill:none" points="441.385,172.516 460.282,172.516 "/>
<path clip-path="url(#clip970)" d="M333.915 1223.56 Q329.401 1223.56 327.115 1228.02 Q324.858 1232.44 324.858 1241.35 Q324.858 1250.24 327.115 1254.69 Q329.401 1259.12 333.915 1259.12 Q338.458 1259.12 340.715 1254.69 Q343.001 1250.24 343.001 1241.35 Q343.001 1232.44 340.715 1228.02 Q338.458 1223.56 333.915 1223.56 M333.915 1218.93 Q341.178 1218.93 344.997 1224.69 Q348.846 1230.42 348.846 1241.35 Q348.846 1252.26 344.997 1258.02 Q341.178 1263.75 333.915 1263.75 Q326.652 1263.75 322.804 1258.02 Q318.985 1252.26 318.985 1241.35 Q318.985 1230.42 322.804 1224.69 Q326.652 1218.93 333.915 1218.93 Z" fill="#000000" fill-rule="nonzero" fill-opacity="1" /><path clip-path="url(#clip970)" d="M359.117 1255.56 L365.223 1255.56 L365.223 1262.91 L359.117 1262.91 L359.117 1255.56 Z" fill="#000000" fill-rule="nonzero" fill-opacity="1" /><path clip-path="url(#clip970)" d="M390.454 1223.56 Q385.94 1223.56 383.654 1228.02 Q381.397 1232.44 381.397 1241.35 Q381.397 1250.24 383.654 1254.69 Q385.94 1259.12 390.454 1259.12 Q394.997 1259.12 397.254 1254.69 Q399.54 1250.24 399.54 1241.35 Q399.54 1232.44 397.254 1228.02 Q394.997 1223.56 390.454 1223.56 M390.454 1218.93 Q397.717 1218.93 401.536 1224.69 Q405.385 1230.42 405.385 1241.35 Q405.385 1252.26 401.536 1258.02 Q397.717 1263.75 390.454 1263.75 Q383.191 1263.75 379.343 1258.02 Q375.524 1252.26 375.524 1241.35 Q375.524 1230.42 379.343 1224.69 Q383.191 1218.93 390.454 1218.93 Z" fill="#000000" fill-rule="nonzero" fill-opacity="1" /><path clip-path="url(#clip970)" d="M335.449 867.295 Q330.935 867.295 328.649 871.751 Q326.392 876.178 326.392 885.09 Q326.392 893.973 328.649 898.429 Q330.935 902.856 335.449 902.856 Q339.991 902.856 342.248 898.429 Q344.534 893.973 344.534 885.09 Q344.534 876.178 342.248 871.751 Q339.991 867.295 335.449 867.295 M335.449 862.665 Q342.711 862.665 346.531 868.423 Q350.379 874.152 350.379 885.09 Q350.379 895.998 346.531 901.756 Q342.711 907.485 335.449 907.485 Q328.186 907.485 324.338 901.756 Q320.518 895.998 320.518 885.09 Q320.518 874.152 324.338 868.423 Q328.186 862.665 335.449 862.665 Z" fill="#000000" fill-rule="nonzero" fill-opacity="1" /><path clip-path="url(#clip970)" d="M360.651 899.297 L366.756 899.297 L366.756 906.646 L360.651 906.646 L360.651 899.297 Z" fill="#000000" fill-rule="nonzero" fill-opacity="1" /><path clip-path="url(#clip970)" d="M380.5 901.727 L390.049 901.727 L390.049 868.77 L379.661 870.854 L379.661 865.53 L389.991 863.446 L395.836 863.446 L395.836 901.727 L405.385 901.727 L405.385 906.646 L380.5 906.646 L380.5 901.727 Z" fill="#000000" fill-rule="nonzero" fill-opacity="1" /><path clip-path="url(#clip970)" d="M335.912 511.029 Q331.398 511.029 329.112 515.485 Q326.855 519.913 326.855 528.825 Q326.855 537.708 329.112 542.164 Q331.398 546.591 335.912 546.591 Q340.454 546.591 342.711 542.164 Q344.997 537.708 344.997 528.825 Q344.997 519.913 342.711 515.485 Q340.454 511.029 335.912 511.029 M335.912 506.4 Q343.174 506.4 346.994 512.158 Q350.842 517.887 350.842 528.825 Q350.842 539.733 346.994 545.491 Q343.174 551.22 335.912 551.22 Q328.649 551.22 324.801 545.491 Q320.981 539.733 320.981 528.825 Q320.981 517.887 324.801 512.158 Q328.649 506.4 335.912 506.4 Z" fill="#000000" fill-rule="nonzero" fill-opacity="1" /><path clip-path="url(#clip970)" d="M361.114 543.032 L367.219 543.032 L367.219 550.381 L361.114 550.381 L361.114 543.032 Z" fill="#000000" fill-rule="nonzero" fill-opacity="1" /><path clip-path="url(#clip970)" d="M384.985 545.462 L405.385 545.462 L405.385 550.381 L377.954 550.381 L377.954 545.462 Q381.282 542.019 387.011 536.232 Q392.769 530.416 394.245 528.738 Q397.051 525.584 398.151 523.414 Q399.279 521.215 399.279 519.102 Q399.279 515.659 396.849 513.489 Q394.447 511.319 390.57 511.319 Q387.821 511.319 384.754 512.274 Q381.716 513.229 378.244 515.167 L378.244 509.264 Q381.774 507.847 384.841 507.123 Q387.908 506.4 390.454 506.4 Q397.167 506.4 401.16 509.756 Q405.153 513.113 405.153 518.726 Q405.153 521.388 404.14 523.79 Q403.157 526.162 400.523 529.403 Q399.8 530.242 395.923 534.264 Q392.046 538.257 384.985 545.462 Z" fill="#000000" fill-rule="nonzero" fill-opacity="1" /><path clip-path="url(#clip970)" d="M334.725 154.764 Q330.211 154.764 327.925 159.22 Q325.669 163.647 325.669 172.559 Q325.669 181.442 327.925 185.898 Q330.211 190.325 334.725 190.325 Q339.268 190.325 341.525 185.898 Q343.811 181.442 343.811 172.559 Q343.811 163.647 341.525 159.22 Q339.268 154.764 334.725 154.764 M334.725 150.135 Q341.988 150.135 345.807 155.893 Q349.656 161.622 349.656 172.559 Q349.656 183.468 345.807 189.226 Q341.988 194.955 334.725 194.955 Q327.463 194.955 323.614 189.226 Q319.795 183.468 319.795 172.559 Q319.795 161.622 323.614 155.893 Q327.463 150.135 334.725 150.135 Z" fill="#000000" fill-rule="nonzero" fill-opacity="1" /><path clip-path="url(#clip970)" d="M359.928 186.766 L366.033 186.766 L366.033 194.116 L359.928 194.116 L359.928 186.766 Z" fill="#000000" fill-rule="nonzero" fill-opacity="1" /><path clip-path="url(#clip970)" d="M396.473 170.823 Q400.668 171.72 403.012 174.556 Q405.385 177.391 405.385 181.558 Q405.385 187.953 400.986 191.454 Q396.588 194.955 388.487 194.955 Q385.767 194.955 382.873 194.405 Q380.009 193.884 376.941 192.814 L376.941 187.172 Q379.372 188.589 382.265 189.313 Q385.159 190.036 388.313 190.036 Q393.811 190.036 396.675 187.866 Q399.569 185.696 399.569 181.558 Q399.569 177.739 396.878 175.598 Q394.216 173.427 389.441 173.427 L384.407 173.427 L384.407 168.624 L389.673 168.624 Q393.984 168.624 396.27 166.917 Q398.556 165.181 398.556 161.94 Q398.556 158.613 396.183 156.848 Q393.839 155.054 389.441 155.054 Q387.04 155.054 384.291 155.574 Q381.542 156.095 378.244 157.195 L378.244 151.987 Q381.571 151.061 384.465 150.598 Q387.387 150.135 389.962 150.135 Q396.617 150.135 400.495 153.173 Q404.372 156.182 404.372 161.333 Q404.372 164.92 402.317 167.409 Q400.263 169.868 396.473 170.823 Z" fill="#000000" fill-rule="nonzero" fill-opacity="1" /><path clip-path="url(#clip970)" d="M226.492 845.337 L244.348 845.337 L244.348 837.252 Q244.348 832.765 242.024 830.314 Q239.701 827.863 235.404 827.863 Q231.139 827.863 228.816 830.314 Q226.492 832.765 226.492 837.252 L226.492 845.337 M221.209 851.766 L221.209 837.252 Q221.209 829.263 224.837 825.189 Q228.434 821.083 235.404 821.083 Q242.438 821.083 246.035 825.189 Q249.631 829.263 249.631 837.252 L249.631 845.337 L268.729 845.337 L268.729 851.766 L221.209 851.766 Z" fill="#000000" fill-rule="nonzero" fill-opacity="1" /><path clip-path="url(#clip970)" d="M238.555 793.202 Q237.982 794.188 237.728 795.366 Q237.441 796.512 237.441 797.912 Q237.441 802.878 240.688 805.551 Q243.902 808.193 249.95 808.193 L268.729 808.193 L268.729 814.081 L233.081 814.081 L233.081 808.193 L238.619 808.193 Q235.372 806.347 233.813 803.387 Q232.221 800.427 232.221 796.194 Q232.221 795.589 232.317 794.857 Q232.38 794.125 232.54 793.234 L238.555 793.202 Z" fill="#000000" fill-rule="nonzero" fill-opacity="1" /><path clip-path="url(#clip970)" d="M237.186 774.677 Q237.186 779.388 240.879 782.125 Q244.539 784.863 250.936 784.863 Q257.334 784.863 261.026 782.157 Q264.686 779.42 264.686 774.677 Q264.686 769.999 260.994 767.261 Q257.302 764.524 250.936 764.524 Q244.603 764.524 240.91 767.261 Q237.186 769.999 237.186 774.677 M232.221 774.677 Q232.221 767.039 237.186 762.678 Q242.152 758.318 250.936 758.318 Q259.689 758.318 264.686 762.678 Q269.652 767.039 269.652 774.677 Q269.652 782.348 264.686 786.709 Q259.689 791.037 250.936 791.037 Q242.152 791.037 237.186 786.709 Q232.221 782.348 232.221 774.677 Z" fill="#000000" fill-rule="nonzero" fill-opacity="1" /><path clip-path="url(#clip970)" d="M250.936 723.02 Q244.475 723.02 240.815 725.693 Q237.123 728.335 237.123 732.982 Q237.123 737.629 240.815 740.303 Q244.475 742.944 250.936 742.944 Q257.398 742.944 261.09 740.303 Q264.75 737.629 264.75 732.982 Q264.75 728.335 261.09 725.693 Q257.398 723.02 250.936 723.02 M238.491 742.944 Q235.309 741.098 233.781 738.297 Q232.221 735.465 232.221 731.55 Q232.221 725.057 237.377 721.015 Q242.534 716.941 250.936 716.941 Q259.339 716.941 264.495 721.015 Q269.652 725.057 269.652 731.55 Q269.652 735.465 268.124 738.297 Q266.564 741.098 263.381 742.944 L268.729 742.944 L268.729 748.833 L219.203 748.833 L219.203 742.944 L238.491 742.944 Z" fill="#000000" fill-rule="nonzero" fill-opacity="1" /><path clip-path="url(#clip970)" d="M250.809 691.032 Q250.809 698.13 252.432 700.867 Q254.056 703.604 257.971 703.604 Q261.09 703.604 262.936 701.567 Q264.75 699.498 264.75 695.966 Q264.75 691.096 261.313 688.168 Q257.843 685.207 252.114 685.207 L250.809 685.207 L250.809 691.032 M248.39 679.351 L268.729 679.351 L268.729 685.207 L263.318 685.207 Q266.564 687.213 268.124 690.205 Q269.652 693.196 269.652 697.525 Q269.652 703 266.596 706.246 Q263.509 709.461 258.352 709.461 Q252.337 709.461 249.281 705.45 Q246.226 701.408 246.226 693.419 L246.226 685.207 L245.653 685.207 Q241.611 685.207 239.414 687.881 Q237.186 690.523 237.186 695.329 Q237.186 698.384 237.919 701.281 Q238.651 704.177 240.115 706.851 L234.704 706.851 Q233.463 703.636 232.858 700.612 Q232.221 697.589 232.221 694.724 Q232.221 686.99 236.232 683.17 Q240.242 679.351 248.39 679.351 Z" fill="#000000" fill-rule="nonzero" fill-opacity="1" /><path clip-path="url(#clip970)" d="M250.936 641.698 Q244.475 641.698 240.815 644.371 Q237.123 647.013 237.123 651.66 Q237.123 656.307 240.815 658.981 Q244.475 661.623 250.936 661.623 Q257.398 661.623 261.09 658.981 Q264.75 656.307 264.75 651.66 Q264.75 647.013 261.09 644.371 Q257.398 641.698 250.936 641.698 M238.491 661.623 Q235.309 659.776 233.781 656.976 Q232.221 654.143 232.221 650.228 Q232.221 643.735 237.377 639.693 Q242.534 635.619 250.936 635.619 Q259.339 635.619 264.495 639.693 Q269.652 643.735 269.652 650.228 Q269.652 654.143 268.124 656.976 Q266.564 659.776 263.381 661.623 L268.729 661.623 L268.729 667.511 L219.203 667.511 L219.203 661.623 L238.491 661.623 Z" fill="#000000" fill-rule="nonzero" fill-opacity="1" /><path clip-path="url(#clip970)" d="M233.081 625.911 L233.081 620.054 L268.729 620.054 L268.729 625.911 L233.081 625.911 M219.203 625.911 L219.203 620.054 L226.619 620.054 L226.619 625.911 L219.203 625.911 Z" fill="#000000" fill-rule="nonzero" fill-opacity="1" /><path clip-path="url(#clip970)" d="M219.203 607.8 L219.203 601.944 L268.729 601.944 L268.729 607.8 L219.203 607.8 Z" fill="#000000" fill-rule="nonzero" fill-opacity="1" /><path clip-path="url(#clip970)" d="M233.081 589.69 L233.081 583.834 L268.729 583.834 L268.729 589.69 L233.081 589.69 M219.203 589.69 L219.203 583.834 L226.619 583.834 L226.619 589.69 L219.203 589.69 Z" fill="#000000" fill-rule="nonzero" fill-opacity="1" /><path clip-path="url(#clip970)" d="M222.959 565.787 L233.081 565.787 L233.081 553.724 L237.632 553.724 L237.632 565.787 L256.984 565.787 Q261.344 565.787 262.586 564.609 Q263.827 563.4 263.827 559.739 L263.827 553.724 L268.729 553.724 L268.729 559.739 Q268.729 566.519 266.214 569.097 Q263.668 571.675 256.984 571.675 L237.632 571.675 L237.632 575.972 L233.081 575.972 L233.081 571.675 L222.959 571.675 L222.959 565.787 Z" fill="#000000" fill-rule="nonzero" fill-opacity="1" /><path clip-path="url(#clip970)" d="M272.039 531.189 Q278.404 533.672 280.346 536.027 Q282.288 538.382 282.288 542.329 L282.288 547.008 L277.386 547.008 L277.386 543.57 Q277.386 541.152 276.24 539.815 Q275.094 538.478 270.829 536.855 L268.156 535.804 L233.081 550.223 L233.081 544.016 L260.962 532.876 L233.081 521.736 L233.081 515.53 L272.039 531.189 Z" fill="#000000" fill-rule="nonzero" fill-opacity="1" /><path clip-path="url(#clip972)" d="M542.183 895.199 L542.183 1241.31 L630.347 1241.31 L630.347 895.199 L542.183 895.199 L542.183 895.199  Z" fill="#4682b4" fill-rule="evenodd" fill-opacity="0.7"/>
<polyline clip-path="url(#clip972)" style="stroke:#000000; stroke-linecap:round; stroke-linejoin:round; stroke-width:4; stroke-opacity:0.7; fill:none" points="542.183,895.199 542.183,1241.31 630.347,1241.31 630.347,895.199 542.183,895.199 "/>
<path clip-path="url(#clip972)" d="M652.388 1061.33 L652.388 1241.31 L740.552 1241.31 L740.552 1061.33 L652.388 1061.33 L652.388 1061.33  Z" fill="#4682b4" fill-rule="evenodd" fill-opacity="0.7"/>
<polyline clip-path="url(#clip972)" style="stroke:#000000; stroke-linecap:round; stroke-linejoin:round; stroke-width:4; stroke-opacity:0.7; fill:none" points="652.388,1061.33 652.388,1241.31 740.552,1241.31 740.552,1061.33 652.388,1061.33 "/>
<path clip-path="url(#clip972)" d="M762.593 1152.39 L762.593 1241.31 L850.757 1241.31 L850.757 1152.39 L762.593 1152.39 L762.593 1152.39  Z" fill="#4682b4" fill-rule="evenodd" fill-opacity="0.7"/>
<polyline clip-path="url(#clip972)" style="stroke:#000000; stroke-linecap:round; stroke-linejoin:round; stroke-width:4; stroke-opacity:0.7; fill:none" points="762.593,1152.39 762.593,1241.31 850.757,1241.31 850.757,1152.39 762.593,1152.39 "/>
<path clip-path="url(#clip972)" d="M872.798 1100.41 L872.798 1241.31 L960.962 1241.31 L960.962 1100.41 L872.798 1100.41 L872.798 1100.41  Z" fill="#4682b4" fill-rule="evenodd" fill-opacity="0.7"/>
<polyline clip-path="url(#clip972)" style="stroke:#000000; stroke-linecap:round; stroke-linejoin:round; stroke-width:4; stroke-opacity:0.7; fill:none" points="872.798,1100.41 872.798,1241.31 960.962,1241.31 960.962,1100.41 872.798,1100.41 "/>
<path clip-path="url(#clip972)" d="M983.003 1116.53 L983.003 1241.31 L1071.17 1241.31 L1071.17 1116.53 L983.003 1116.53 L983.003 1116.53  Z" fill="#4682b4" fill-rule="evenodd" fill-opacity="0.7"/>
<polyline clip-path="url(#clip972)" style="stroke:#000000; stroke-linecap:round; stroke-linejoin:round; stroke-width:4; stroke-opacity:0.7; fill:none" points="983.003,1116.53 983.003,1241.31 1071.17,1241.31 1071.17,1116.53 983.003,1116.53 "/>
<path clip-path="url(#clip972)" d="M1093.21 1078.25 L1093.21 1241.31 L1181.37 1241.31 L1181.37 1078.25 L1093.21 1078.25 L1093.21 1078.25  Z" fill="#4682b4" fill-rule="evenodd" fill-opacity="0.7"/>
<polyline clip-path="url(#clip972)" style="stroke:#000000; stroke-linecap:round; stroke-linejoin:round; stroke-width:4; stroke-opacity:0.7; fill:none" points="1093.21,1078.25 1093.21,1241.31 1181.37,1241.31 1181.37,1078.25 1093.21,1078.25 "/>
<path clip-path="url(#clip972)" d="M1203.41 1022.2 L1203.41 1241.31 L1291.58 1241.31 L1291.58 1022.2 L1203.41 1022.2 L1203.41 1022.2  Z" fill="#4682b4" fill-rule="evenodd" fill-opacity="0.7"/>
<polyline clip-path="url(#clip972)" style="stroke:#000000; stroke-linecap:round; stroke-linejoin:round; stroke-width:4; stroke-opacity:0.7; fill:none" points="1203.41,1022.2 1203.41,1241.31 1291.58,1241.31 1291.58,1022.2 1203.41,1022.2 "/>
<path clip-path="url(#clip972)" d="M1313.62 1042.98 L1313.62 1241.31 L1401.78 1241.31 L1401.78 1042.98 L1313.62 1042.98 L1313.62 1042.98  Z" fill="#4682b4" fill-rule="evenodd" fill-opacity="0.7"/>
<polyline clip-path="url(#clip972)" style="stroke:#000000; stroke-linecap:round; stroke-linejoin:round; stroke-width:4; stroke-opacity:0.7; fill:none" points="1313.62,1042.98 1313.62,1241.31 1401.78,1241.31 1401.78,1042.98 1313.62,1042.98 "/>
<path clip-path="url(#clip972)" d="M1423.82 1057.51 L1423.82 1241.31 L1511.99 1241.31 L1511.99 1057.51 L1423.82 1057.51 L1423.82 1057.51  Z" fill="#4682b4" fill-rule="evenodd" fill-opacity="0.7"/>
<polyline clip-path="url(#clip972)" style="stroke:#000000; stroke-linecap:round; stroke-linejoin:round; stroke-width:4; stroke-opacity:0.7; fill:none" points="1423.82,1057.51 1423.82,1241.31 1511.99,1241.31 1511.99,1057.51 1423.82,1057.51 "/>
<path clip-path="url(#clip972)" d="M1534.03 1086.1 L1534.03 1241.31 L1622.19 1241.31 L1622.19 1086.1 L1534.03 1086.1 L1534.03 1086.1  Z" fill="#4682b4" fill-rule="evenodd" fill-opacity="0.7"/>
<polyline clip-path="url(#clip972)" style="stroke:#000000; stroke-linecap:round; stroke-linejoin:round; stroke-width:4; stroke-opacity:0.7; fill:none" points="1534.03,1086.1 1534.03,1241.31 1622.19,1241.31 1622.19,1086.1 1534.03,1086.1 "/>
<path clip-path="url(#clip972)" d="M1644.23 1123.85 L1644.23 1241.31 L1732.4 1241.31 L1732.4 1123.85 L1644.23 1123.85 L1644.23 1123.85  Z" fill="#4682b4" fill-rule="evenodd" fill-opacity="0.7"/>
<polyline clip-path="url(#clip972)" style="stroke:#000000; stroke-linecap:round; stroke-linejoin:round; stroke-width:4; stroke-opacity:0.7; fill:none" points="1644.23,1123.85 1644.23,1241.31 1732.4,1241.31 1732.4,1123.85 1644.23,1123.85 "/>
<path clip-path="url(#clip972)" d="M1754.44 1009.37 L1754.44 1241.31 L1842.6 1241.31 L1842.6 1009.37 L1754.44 1009.37 L1754.44 1009.37  Z" fill="#4682b4" fill-rule="evenodd" fill-opacity="0.7"/>
<polyline clip-path="url(#clip972)" style="stroke:#000000; stroke-linecap:round; stroke-linejoin:round; stroke-width:4; stroke-opacity:0.7; fill:none" points="1754.44,1009.37 1754.44,1241.31 1842.6,1241.31 1842.6,1009.37 1754.44,1009.37 "/>
<path clip-path="url(#clip972)" d="M1864.64 1142.27 L1864.64 1241.31 L1952.81 1241.31 L1952.81 1142.27 L1864.64 1142.27 L1864.64 1142.27  Z" fill="#4682b4" fill-rule="evenodd" fill-opacity="0.7"/>
<polyline clip-path="url(#clip972)" style="stroke:#000000; stroke-linecap:round; stroke-linejoin:round; stroke-width:4; stroke-opacity:0.7; fill:none" points="1864.64,1142.27 1864.64,1241.31 1952.81,1241.31 1952.81,1142.27 1864.64,1142.27 "/>
<path clip-path="url(#clip972)" d="M1974.85 1042.64 L1974.85 1241.31 L2063.01 1241.31 L2063.01 1042.64 L1974.85 1042.64 L1974.85 1042.64  Z" fill="#4682b4" fill-rule="evenodd" fill-opacity="0.7"/>
<polyline clip-path="url(#clip972)" style="stroke:#000000; stroke-linecap:round; stroke-linejoin:round; stroke-width:4; stroke-opacity:0.7; fill:none" points="1974.85,1042.64 1974.85,1241.31 2063.01,1241.31 2063.01,1042.64 1974.85,1042.64 "/>
<path clip-path="url(#clip972)" d="M2085.05 125.984 L2085.05 1241.31 L2173.22 1241.31 L2173.22 125.984 L2085.05 125.984 L2085.05 125.984  Z" fill="#4682b4" fill-rule="evenodd" fill-opacity="0.7"/>
<polyline clip-path="url(#clip972)" style="stroke:#000000; stroke-linecap:round; stroke-linejoin:round; stroke-width:4; stroke-opacity:0.7; fill:none" points="2085.05,125.984 2085.05,1241.31 2173.22,1241.31 2173.22,125.984 2085.05,125.984 "/>
<circle clip-path="url(#clip972)" style="fill:#4682b4; stroke:none; fill-opacity:0" cx="586.265" cy="895.199" r="2"/>
<circle clip-path="url(#clip972)" style="fill:#4682b4; stroke:none; fill-opacity:0" cx="696.47" cy="1061.33" r="2"/>
<circle clip-path="url(#clip972)" style="fill:#4682b4; stroke:none; fill-opacity:0" cx="806.675" cy="1152.39" r="2"/>
<circle clip-path="url(#clip972)" style="fill:#4682b4; stroke:none; fill-opacity:0" cx="916.88" cy="1100.41" r="2"/>
<circle clip-path="url(#clip972)" style="fill:#4682b4; stroke:none; fill-opacity:0" cx="1027.08" cy="1116.53" r="2"/>
<circle clip-path="url(#clip972)" style="fill:#4682b4; stroke:none; fill-opacity:0" cx="1137.29" cy="1078.25" r="2"/>
<circle clip-path="url(#clip972)" style="fill:#4682b4; stroke:none; fill-opacity:0" cx="1247.5" cy="1022.2" r="2"/>
<circle clip-path="url(#clip972)" style="fill:#4682b4; stroke:none; fill-opacity:0" cx="1357.7" cy="1042.98" r="2"/>
<circle clip-path="url(#clip972)" style="fill:#4682b4; stroke:none; fill-opacity:0" cx="1467.91" cy="1057.51" r="2"/>
<circle clip-path="url(#clip972)" style="fill:#4682b4; stroke:none; fill-opacity:0" cx="1578.11" cy="1086.1" r="2"/>
<circle clip-path="url(#clip972)" style="fill:#4682b4; stroke:none; fill-opacity:0" cx="1688.32" cy="1123.85" r="2"/>
<circle clip-path="url(#clip972)" style="fill:#4682b4; stroke:none; fill-opacity:0" cx="1798.52" cy="1009.37" r="2"/>
<circle clip-path="url(#clip972)" style="fill:#4682b4; stroke:none; fill-opacity:0" cx="1908.73" cy="1142.27" r="2"/>
<circle clip-path="url(#clip972)" style="fill:#4682b4; stroke:none; fill-opacity:0" cx="2018.93" cy="1042.64" r="2"/>
<circle clip-path="url(#clip972)" style="fill:#4682b4; stroke:none; fill-opacity:0" cx="2129.14" cy="125.984" r="2"/>
</svg>
