<?xml version="1.0" encoding="utf-8"?>
<svg xmlns="http://www.w3.org/2000/svg" xmlns:xlink="http://www.w3.org/1999/xlink" width="600" height="400" viewBox="0 0 2400 1600">
<defs>
  <clipPath id="clip280">
    <rect x="0" y="0" width="2400" height="1600"/>
  </clipPath>
</defs>
<path clip-path="url(#clip280)" d="M0 1600 L2400 1600 L2400 8.88178e-14 L0 8.88178e-14  Z" fill="#ffffff" fill-rule="evenodd" fill-opacity="1"/>
<defs>
  <clipPath id="clip281">
    <rect x="258" y="0" width="1846" height="1563"/>
  </clipPath>
</defs>
<path clip-path="url(#clip280)" d="M247.459 1423.18 L2352.76 1423.18 L2352.76 106.192 L247.459 106.192  Z" fill="#ffffff" fill-rule="evenodd" fill-opacity="1"/>
<defs>
  <clipPath id="clip282">
    <rect x="247" y="106" width="2106" height="1318"/>
  </clipPath>
</defs>
<polyline clip-path="url(#clip282)" style="stroke:#000000; stroke-linecap:round; stroke-linejoin:round; stroke-width:2; stroke-opacity:0.1; fill:none" points="287.293,1423.18 287.293,106.192 "/>
<polyline clip-path="url(#clip282)" style="stroke:#000000; stroke-linecap:round; stroke-linejoin:round; stroke-width:2; stroke-opacity:0.1; fill:none" points="920.302,1423.18 920.302,106.192 "/>
<polyline clip-path="url(#clip282)" style="stroke:#000000; stroke-linecap:round; stroke-linejoin:round; stroke-width:2; stroke-opacity:0.1; fill:none" points="1553.31,1423.18 1553.31,106.192 "/>
<polyline clip-path="url(#clip282)" style="stroke:#000000; stroke-linecap:round; stroke-linejoin:round; stroke-width:2; stroke-opacity:0.1; fill:none" points="2186.32,1423.18 2186.32,106.192 "/>
<polyline clip-path="url(#clip282)" style="stroke:#000000; stroke-linecap:round; stroke-linejoin:round; stroke-width:2; stroke-opacity:0.1; fill:none" points="247.459,1423.18 2352.76,1423.18 "/>
<polyline clip-path="url(#clip282)" style="stroke:#000000; stroke-linecap:round; stroke-linejoin:round; stroke-width:2; stroke-opacity:0.1; fill:none" points="247.459,1202.26 2352.76,1202.26 "/>
<polyline clip-path="url(#clip282)" style="stroke:#000000; stroke-linecap:round; stroke-linejoin:round; stroke-width:2; stroke-opacity:0.1; fill:none" points="247.459,981.348 2352.76,981.348 "/>
<polyline clip-path="url(#clip282)" style="stroke:#000000; stroke-linecap:round; stroke-linejoin:round; stroke-width:2; stroke-opacity:0.1; fill:none" points="247.459,760.432 2352.76,760.432 "/>
<polyline clip-path="url(#clip282)" style="stroke:#000000; stroke-linecap:round; stroke-linejoin:round; stroke-width:2; stroke-opacity:0.1; fill:none" points="247.459,539.516 2352.76,539.516 "/>
<polyline clip-path="url(#clip282)" style="stroke:#000000; stroke-linecap:round; stroke-linejoin:round; stroke-width:2; stroke-opacity:0.1; fill:none" points="247.459,318.6 2352.76,318.6 "/>
<polyline clip-path="url(#clip280)" style="stroke:#000000; stroke-linecap:round; stroke-linejoin:round; stroke-width:4; stroke-opacity:1; fill:none" points="247.459,1423.18 2352.76,1423.18 "/>
<polyline clip-path="url(#clip280)" style="stroke:#000000; stroke-linecap:round; stroke-linejoin:round; stroke-width:4; stroke-opacity:1; fill:none" points="287.293,1423.18 287.293,1404.28 "/>
<polyline clip-path="url(#clip280)" style="stroke:#000000; stroke-linecap:round; stroke-linejoin:round; stroke-width:4; stroke-opacity:1; fill:none" points="920.302,1423.18 920.302,1404.28 "/>
<polyline clip-path="url(#clip280)" style="stroke:#000000; stroke-linecap:round; stroke-linejoin:round; stroke-width:4; stroke-opacity:1; fill:none" points="1553.31,1423.18 1553.31,1404.28 "/>
<polyline clip-path="url(#clip280)" style="stroke:#000000; stroke-linecap:round; stroke-linejoin:round; stroke-width:4; stroke-opacity:1; fill:none" points="2186.32,1423.18 2186.32,1404.28 "/>
<path clip-path="url(#clip280)" d="M287.293 1454.1 Q283.682 1454.1 281.853 1457.66 Q280.047 1461.2 280.047 1468.33 Q280.047 1475.44 281.853 1479.01 Q283.682 1482.55 287.293 1482.55 Q290.927 1482.55 292.732 1479.01 Q294.561 1475.44 294.561 1468.33 Q294.561 1461.2 292.732 1457.66 Q290.927 1454.1 287.293 1454.1 M287.293 1450.39 Q293.103 1450.39 296.158 1455 Q299.237 1459.58 299.237 1468.33 Q299.237 1477.06 296.158 1481.67 Q293.103 1486.25 287.293 1486.25 Q281.483 1486.25 278.404 1481.67 Q275.348 1477.06 275.348 1468.33 Q275.348 1459.58 278.404 1455 Q281.483 1450.39 287.293 1450.39 Z" fill="#000000" fill-rule="nonzero" fill-opacity="1" /><path clip-path="url(#clip280)" d="M910.58 1451.02 L928.936 1451.02 L928.936 1454.96 L914.862 1454.96 L914.862 1463.43 Q915.881 1463.08 916.899 1462.92 Q917.918 1462.73 918.936 1462.73 Q924.723 1462.73 928.103 1465.9 Q931.482 1469.08 931.482 1474.49 Q931.482 1480.07 928.01 1483.17 Q924.538 1486.25 918.219 1486.25 Q916.043 1486.25 913.774 1485.88 Q911.529 1485.51 909.121 1484.77 L909.121 1480.07 Q911.205 1481.2 913.427 1481.76 Q915.649 1482.32 918.126 1482.32 Q922.131 1482.32 924.468 1480.21 Q926.806 1478.1 926.806 1474.49 Q926.806 1470.88 924.468 1468.77 Q922.131 1466.67 918.126 1466.67 Q916.251 1466.67 914.376 1467.08 Q912.524 1467.5 910.58 1468.38 L910.58 1451.02 Z" fill="#000000" fill-rule="nonzero" fill-opacity="1" /><path clip-path="url(#clip280)" d="M1528 1481.64 L1535.64 1481.64 L1535.64 1455.28 L1527.33 1456.95 L1527.33 1452.69 L1535.59 1451.02 L1540.27 1451.02 L1540.27 1481.64 L1547.91 1481.64 L1547.91 1485.58 L1528 1485.58 L1528 1481.64 Z" fill="#000000" fill-rule="nonzero" fill-opacity="1" /><path clip-path="url(#clip280)" d="M1567.35 1454.1 Q1563.74 1454.1 1561.91 1457.66 Q1560.1 1461.2 1560.1 1468.33 Q1560.1 1475.44 1561.91 1479.01 Q1563.74 1482.55 1567.35 1482.55 Q1570.98 1482.55 1572.79 1479.01 Q1574.62 1475.44 1574.62 1468.33 Q1574.62 1461.2 1572.79 1457.66 Q1570.98 1454.1 1567.35 1454.1 M1567.35 1450.39 Q1573.16 1450.39 1576.22 1455 Q1579.29 1459.58 1579.29 1468.33 Q1579.29 1477.06 1576.22 1481.67 Q1573.16 1486.25 1567.35 1486.25 Q1561.54 1486.25 1558.46 1481.67 Q1555.41 1477.06 1555.41 1468.33 Q1555.41 1459.58 1558.46 1455 Q1561.54 1450.39 1567.35 1450.39 Z" fill="#000000" fill-rule="nonzero" fill-opacity="1" /><path clip-path="url(#clip280)" d="M2161.51 1481.64 L2169.14 1481.64 L2169.14 1455.28 L2160.83 1456.95 L2160.83 1452.69 L2169.1 1451.02 L2173.77 1451.02 L2173.77 1481.64 L2181.41 1481.64 L2181.41 1485.58 L2161.51 1485.58 L2161.51 1481.64 Z" fill="#000000" fill-rule="nonzero" fill-opacity="1" /><path clip-path="url(#clip280)" d="M2190.9 1451.02 L2209.26 1451.02 L2209.26 1454.96 L2195.19 1454.96 L2195.19 1463.43 Q2196.2 1463.08 2197.22 1462.92 Q2198.24 1462.73 2199.26 1462.73 Q2205.05 1462.73 2208.43 1465.9 Q2211.81 1469.08 2211.81 1474.49 Q2211.81 1480.07 2208.33 1483.17 Q2204.86 1486.25 2198.54 1486.25 Q2196.37 1486.25 2194.1 1485.88 Q2191.85 1485.51 2189.45 1484.77 L2189.45 1480.07 Q2191.53 1481.2 2193.75 1481.76 Q2195.97 1482.32 2198.45 1482.32 Q2202.45 1482.32 2204.79 1480.21 Q2207.13 1478.1 2207.13 1474.49 Q2207.13 1470.88 2204.79 1468.77 Q2202.45 1466.67 2198.45 1466.67 Q2196.57 1466.67 2194.7 1467.08 Q2192.85 1467.5 2190.9 1468.38 L2190.9 1451.02 Z" fill="#000000" fill-rule="nonzero" fill-opacity="1" /><path clip-path="url(#clip280)" d="M1248.31 1522.08 L1248.31 1528.35 Q1244.65 1526.6 1241.4 1525.74 Q1238.15 1524.88 1235.13 1524.88 Q1229.88 1524.88 1227.01 1526.92 Q1224.18 1528.96 1224.18 1532.71 Q1224.18 1535.87 1226.06 1537.49 Q1227.97 1539.08 1233.25 1540.07 L1237.13 1540.86 Q1244.33 1542.23 1247.73 1545.7 Q1251.17 1549.14 1251.17 1554.93 Q1251.17 1561.84 1246.52 1565.4 Q1241.91 1568.97 1232.97 1568.97 Q1229.59 1568.97 1225.77 1568.2 Q1221.98 1567.44 1217.91 1565.94 L1217.91 1559.32 Q1221.83 1561.52 1225.58 1562.63 Q1229.34 1563.75 1232.97 1563.75 Q1238.47 1563.75 1241.46 1561.58 Q1244.46 1559.42 1244.46 1555.41 Q1244.46 1551.91 1242.29 1549.93 Q1240.16 1547.96 1235.26 1546.97 L1231.34 1546.21 Q1224.15 1544.78 1220.93 1541.72 Q1217.72 1538.67 1217.72 1533.22 Q1217.72 1526.92 1222.14 1523.29 Q1226.6 1519.66 1234.4 1519.66 Q1237.74 1519.66 1241.21 1520.27 Q1244.68 1520.87 1248.31 1522.08 Z" fill="#000000" fill-rule="nonzero" fill-opacity="1" /><path clip-path="url(#clip280)" d="M1266.74 1522.27 L1266.74 1532.4 L1278.8 1532.4 L1278.8 1536.95 L1266.74 1536.95 L1266.74 1556.3 Q1266.74 1560.66 1267.91 1561.9 Q1269.12 1563.14 1272.78 1563.14 L1278.8 1563.14 L1278.8 1568.04 L1272.78 1568.04 Q1266 1568.04 1263.42 1565.53 Q1260.85 1562.98 1260.85 1556.3 L1260.85 1536.95 L1256.55 1536.95 L1256.55 1532.4 L1260.85 1532.4 L1260.85 1522.27 L1266.74 1522.27 Z" fill="#000000" fill-rule="nonzero" fill-opacity="1" /><path clip-path="url(#clip280)" d="M1302.7 1550.12 Q1295.6 1550.12 1292.87 1551.75 Q1290.13 1553.37 1290.13 1557.29 Q1290.13 1560.4 1292.17 1562.25 Q1294.23 1564.07 1297.77 1564.07 Q1302.64 1564.07 1305.57 1560.63 Q1308.53 1557.16 1308.53 1551.43 L1308.53 1550.12 L1302.7 1550.12 M1314.38 1547.71 L1314.38 1568.04 L1308.53 1568.04 L1308.53 1562.63 Q1306.52 1565.88 1303.53 1567.44 Q1300.54 1568.97 1296.21 1568.97 Q1290.73 1568.97 1287.49 1565.91 Q1284.27 1562.82 1284.27 1557.67 Q1284.27 1551.65 1288.28 1548.6 Q1292.33 1545.54 1300.31 1545.54 L1308.53 1545.54 L1308.53 1544.97 Q1308.53 1540.93 1305.85 1538.73 Q1303.21 1536.5 1298.4 1536.5 Q1295.35 1536.5 1292.45 1537.23 Q1289.56 1537.97 1286.88 1539.43 L1286.88 1534.02 Q1290.1 1532.78 1293.12 1532.17 Q1296.14 1531.54 1299.01 1531.54 Q1306.74 1531.54 1310.56 1535.55 Q1314.38 1539.56 1314.38 1547.71 Z" fill="#000000" fill-rule="nonzero" fill-opacity="1" /><path clip-path="url(#clip280)" d="M1332.24 1522.27 L1332.24 1532.4 L1344.3 1532.4 L1344.3 1536.95 L1332.24 1536.95 L1332.24 1556.3 Q1332.24 1560.66 1333.42 1561.9 Q1334.63 1563.14 1338.29 1563.14 L1344.3 1563.14 L1344.3 1568.04 L1338.29 1568.04 Q1331.51 1568.04 1328.93 1565.53 Q1326.35 1562.98 1326.35 1556.3 L1326.35 1536.95 L1322.05 1536.95 L1322.05 1532.4 L1326.35 1532.4 L1326.35 1522.27 L1332.24 1522.27 Z" fill="#000000" fill-rule="nonzero" fill-opacity="1" /><path clip-path="url(#clip280)" d="M1382.5 1548.76 L1382.5 1551.62 L1355.57 1551.62 Q1355.95 1557.67 1359.2 1560.85 Q1362.48 1564 1368.3 1564 Q1371.67 1564 1374.82 1563.17 Q1378.01 1562.35 1381.13 1560.69 L1381.13 1566.23 Q1377.98 1567.57 1374.67 1568.27 Q1371.36 1568.97 1367.95 1568.97 Q1359.42 1568.97 1354.42 1564 Q1349.46 1559.04 1349.46 1550.57 Q1349.46 1541.82 1354.17 1536.69 Q1358.91 1531.54 1366.93 1531.54 Q1374.12 1531.54 1378.29 1536.18 Q1382.5 1540.8 1382.5 1548.76 M1376.64 1547.04 Q1376.58 1542.23 1373.93 1539.37 Q1371.32 1536.5 1366.99 1536.5 Q1362.09 1536.5 1359.13 1539.27 Q1356.21 1542.04 1355.76 1547.07 L1376.64 1547.04 Z" fill="#000000" fill-rule="nonzero" fill-opacity="1" /><polyline clip-path="url(#clip280)" style="stroke:#000000; stroke-linecap:round; stroke-linejoin:round; stroke-width:4; stroke-opacity:1; fill:none" points="247.459,1423.18 247.459,106.192 "/>
<polyline clip-path="url(#clip280)" style="stroke:#000000; stroke-linecap:round; stroke-linejoin:round; stroke-width:4; stroke-opacity:1; fill:none" points="247.459,1423.18 266.356,1423.18 "/>
<polyline clip-path="url(#clip280)" style="stroke:#000000; stroke-linecap:round; stroke-linejoin:round; stroke-width:4; stroke-opacity:1; fill:none" points="247.459,1202.26 266.356,1202.26 "/>
<polyline clip-path="url(#clip280)" style="stroke:#000000; stroke-linecap:round; stroke-linejoin:round; stroke-width:4; stroke-opacity:1; fill:none" points="247.459,981.348 266.356,981.348 "/>
<polyline clip-path="url(#clip280)" style="stroke:#000000; stroke-linecap:round; stroke-linejoin:round; stroke-width:4; stroke-opacity:1; fill:none" points="247.459,760.432 266.356,760.432 "/>
<polyline clip-path="url(#clip280)" style="stroke:#000000; stroke-linecap:round; stroke-linejoin:round; stroke-width:4; stroke-opacity:1; fill:none" points="247.459,539.516 266.356,539.516 "/>
<polyline clip-path="url(#clip280)" style="stroke:#000000; stroke-linecap:round; stroke-linejoin:round; stroke-width:4; stroke-opacity:1; fill:none" points="247.459,318.6 266.356,318.6 "/>
<path clip-path="url(#clip280)" d="M154.283 1408.98 Q150.672 1408.98 148.843 1412.54 Q147.038 1416.08 147.038 1423.21 Q147.038 1430.32 148.843 1433.89 Q150.672 1437.43 154.283 1437.43 Q157.917 1437.43 159.723 1433.89 Q161.552 1430.32 161.552 1423.21 Q161.552 1416.08 159.723 1412.54 Q157.917 1408.98 154.283 1408.98 M154.283 1405.27 Q160.093 1405.27 163.149 1409.88 Q166.227 1414.46 166.227 1423.21 Q166.227 1431.94 163.149 1436.55 Q160.093 1441.13 154.283 1441.13 Q148.473 1441.13 145.394 1436.55 Q142.339 1431.94 142.339 1423.21 Q142.339 1414.46 145.394 1409.88 Q148.473 1405.27 154.283 1405.27 Z" fill="#000000" fill-rule="nonzero" fill-opacity="1" /><path clip-path="url(#clip280)" d="M174.445 1434.58 L179.329 1434.58 L179.329 1440.46 L174.445 1440.46 L174.445 1434.58 Z" fill="#000000" fill-rule="nonzero" fill-opacity="1" /><path clip-path="url(#clip280)" d="M199.514 1408.98 Q195.903 1408.98 194.075 1412.54 Q192.269 1416.08 192.269 1423.21 Q192.269 1430.32 194.075 1433.89 Q195.903 1437.43 199.514 1437.43 Q203.149 1437.43 204.954 1433.89 Q206.783 1430.32 206.783 1423.21 Q206.783 1416.08 204.954 1412.54 Q203.149 1408.98 199.514 1408.98 M199.514 1405.27 Q205.324 1405.27 208.38 1409.88 Q211.459 1414.46 211.459 1423.21 Q211.459 1431.94 208.38 1436.55 Q205.324 1441.13 199.514 1441.13 Q193.704 1441.13 190.625 1436.55 Q187.57 1431.94 187.57 1423.21 Q187.57 1414.46 190.625 1409.88 Q193.704 1405.27 199.514 1405.27 Z" fill="#000000" fill-rule="nonzero" fill-opacity="1" /><path clip-path="url(#clip280)" d="M149.306 1215.61 L165.626 1215.61 L165.626 1219.54 L143.681 1219.54 L143.681 1215.61 Q146.343 1212.85 150.927 1208.22 Q155.533 1203.57 156.714 1202.23 Q158.959 1199.71 159.839 1197.97 Q160.741 1196.21 160.741 1194.52 Q160.741 1191.77 158.797 1190.03 Q156.876 1188.29 153.774 1188.29 Q151.575 1188.29 149.121 1189.06 Q146.691 1189.82 143.913 1191.37 L143.913 1186.65 Q146.737 1185.52 149.191 1184.94 Q151.644 1184.36 153.681 1184.36 Q159.052 1184.36 162.246 1187.04 Q165.44 1189.73 165.44 1194.22 Q165.44 1196.35 164.63 1198.27 Q163.843 1200.17 161.737 1202.76 Q161.158 1203.43 158.056 1206.65 Q154.954 1209.84 149.306 1215.61 Z" fill="#000000" fill-rule="nonzero" fill-opacity="1" /><path clip-path="url(#clip280)" d="M175.44 1213.66 L180.325 1213.66 L180.325 1219.54 L175.44 1219.54 L175.44 1213.66 Z" fill="#000000" fill-rule="nonzero" fill-opacity="1" /><path clip-path="url(#clip280)" d="M190.556 1184.98 L208.912 1184.98 L208.912 1188.92 L194.838 1188.92 L194.838 1197.39 Q195.857 1197.04 196.875 1196.88 Q197.894 1196.7 198.912 1196.7 Q204.699 1196.7 208.079 1199.87 Q211.459 1203.04 211.459 1208.46 Q211.459 1214.03 207.987 1217.14 Q204.514 1220.22 198.195 1220.22 Q196.019 1220.22 193.75 1219.84 Q191.505 1219.47 189.098 1218.73 L189.098 1214.03 Q191.181 1215.17 193.403 1215.72 Q195.625 1216.28 198.102 1216.28 Q202.107 1216.28 204.445 1214.17 Q206.783 1212.07 206.783 1208.46 Q206.783 1204.84 204.445 1202.74 Q202.107 1200.63 198.102 1200.63 Q196.227 1200.63 194.352 1201.05 Q192.5 1201.47 190.556 1202.34 L190.556 1184.98 Z" fill="#000000" fill-rule="nonzero" fill-opacity="1" /><path clip-path="url(#clip280)" d="M144.329 964.068 L162.686 964.068 L162.686 968.003 L148.612 968.003 L148.612 976.475 Q149.63 976.128 150.649 975.966 Q151.667 975.781 152.686 975.781 Q158.473 975.781 161.852 978.952 Q165.232 982.123 165.232 987.54 Q165.232 993.119 161.76 996.22 Q158.288 999.299 151.968 999.299 Q149.792 999.299 147.524 998.929 Q145.279 998.558 142.871 997.818 L142.871 993.119 Q144.954 994.253 147.177 994.808 Q149.399 995.364 151.876 995.364 Q155.88 995.364 158.218 993.257 Q160.556 991.151 160.556 987.54 Q160.556 983.929 158.218 981.822 Q155.88 979.716 151.876 979.716 Q150.001 979.716 148.126 980.132 Q146.274 980.549 144.329 981.429 L144.329 964.068 Z" fill="#000000" fill-rule="nonzero" fill-opacity="1" /><path clip-path="url(#clip280)" d="M174.445 992.748 L179.329 992.748 L179.329 998.628 L174.445 998.628 L174.445 992.748 Z" fill="#000000" fill-rule="nonzero" fill-opacity="1" /><path clip-path="url(#clip280)" d="M199.514 967.146 Q195.903 967.146 194.075 970.711 Q192.269 974.253 192.269 981.382 Q192.269 988.489 194.075 992.054 Q195.903 995.595 199.514 995.595 Q203.149 995.595 204.954 992.054 Q206.783 988.489 206.783 981.382 Q206.783 974.253 204.954 970.711 Q203.149 967.146 199.514 967.146 M199.514 963.443 Q205.324 963.443 208.38 968.049 Q211.459 972.633 211.459 981.382 Q211.459 990.109 208.38 994.716 Q205.324 999.299 199.514 999.299 Q193.704 999.299 190.625 994.716 Q187.57 990.109 187.57 981.382 Q187.57 972.633 190.625 968.049 Q193.704 963.443 199.514 963.443 Z" fill="#000000" fill-rule="nonzero" fill-opacity="1" /><path clip-path="url(#clip280)" d="M144.098 743.152 L166.32 743.152 L166.32 745.142 L153.774 777.712 L148.89 777.712 L160.695 747.087 L144.098 747.087 L144.098 743.152 Z" fill="#000000" fill-rule="nonzero" fill-opacity="1" /><path clip-path="url(#clip280)" d="M175.44 771.832 L180.325 771.832 L180.325 777.712 L175.44 777.712 L175.44 771.832 Z" fill="#000000" fill-rule="nonzero" fill-opacity="1" /><path clip-path="url(#clip280)" d="M190.556 743.152 L208.912 743.152 L208.912 747.087 L194.838 747.087 L194.838 755.559 Q195.857 755.212 196.875 755.05 Q197.894 754.865 198.912 754.865 Q204.699 754.865 208.079 758.036 Q211.459 761.207 211.459 766.624 Q211.459 772.202 207.987 775.304 Q204.514 778.383 198.195 778.383 Q196.019 778.383 193.75 778.013 Q191.505 777.642 189.098 776.902 L189.098 772.202 Q191.181 773.337 193.403 773.892 Q195.625 774.448 198.102 774.448 Q202.107 774.448 204.445 772.341 Q206.783 770.235 206.783 766.624 Q206.783 763.013 204.445 760.906 Q202.107 758.8 198.102 758.8 Q196.227 758.8 194.352 759.216 Q192.5 759.633 190.556 760.513 L190.556 743.152 Z" fill="#000000" fill-rule="nonzero" fill-opacity="1" /><path clip-path="url(#clip280)" d="M114.931 552.861 L122.57 552.861 L122.57 526.495 L114.26 528.162 L114.26 523.902 L122.524 522.236 L127.2 522.236 L127.2 552.861 L134.839 552.861 L134.839 556.796 L114.931 556.796 L114.931 552.861 Z" fill="#000000" fill-rule="nonzero" fill-opacity="1" /><path clip-path="url(#clip280)" d="M154.283 525.314 Q150.672 525.314 148.843 528.879 Q147.038 532.421 147.038 539.55 Q147.038 546.657 148.843 550.222 Q150.672 553.763 154.283 553.763 Q157.917 553.763 159.723 550.222 Q161.552 546.657 161.552 539.55 Q161.552 532.421 159.723 528.879 Q157.917 525.314 154.283 525.314 M154.283 521.611 Q160.093 521.611 163.149 526.217 Q166.227 530.8 166.227 539.55 Q166.227 548.277 163.149 552.884 Q160.093 557.467 154.283 557.467 Q148.473 557.467 145.394 552.884 Q142.339 548.277 142.339 539.55 Q142.339 530.8 145.394 526.217 Q148.473 521.611 154.283 521.611 Z" fill="#000000" fill-rule="nonzero" fill-opacity="1" /><path clip-path="url(#clip280)" d="M174.445 550.916 L179.329 550.916 L179.329 556.796 L174.445 556.796 L174.445 550.916 Z" fill="#000000" fill-rule="nonzero" fill-opacity="1" /><path clip-path="url(#clip280)" d="M199.514 525.314 Q195.903 525.314 194.075 528.879 Q192.269 532.421 192.269 539.55 Q192.269 546.657 194.075 550.222 Q195.903 553.763 199.514 553.763 Q203.149 553.763 204.954 550.222 Q206.783 546.657 206.783 539.55 Q206.783 532.421 204.954 528.879 Q203.149 525.314 199.514 525.314 M199.514 521.611 Q205.324 521.611 208.38 526.217 Q211.459 530.8 211.459 539.55 Q211.459 548.277 208.38 552.884 Q205.324 557.467 199.514 557.467 Q193.704 557.467 190.625 552.884 Q187.57 548.277 187.57 539.55 Q187.57 530.8 190.625 526.217 Q193.704 521.611 199.514 521.611 Z" fill="#000000" fill-rule="nonzero" fill-opacity="1" /><path clip-path="url(#clip280)" d="M115.927 331.944 L123.566 331.944 L123.566 305.579 L115.256 307.246 L115.256 302.986 L123.519 301.32 L128.195 301.32 L128.195 331.944 L135.834 331.944 L135.834 335.88 L115.927 335.88 L115.927 331.944 Z" fill="#000000" fill-rule="nonzero" fill-opacity="1" /><path clip-path="url(#clip280)" d="M149.306 331.944 L165.626 331.944 L165.626 335.88 L143.681 335.88 L143.681 331.944 Q146.343 329.19 150.927 324.56 Q155.533 319.908 156.714 318.565 Q158.959 316.042 159.839 314.306 Q160.741 312.546 160.741 310.857 Q160.741 308.102 158.797 306.366 Q156.876 304.63 153.774 304.63 Q151.575 304.63 149.121 305.394 Q146.691 306.158 143.913 307.708 L143.913 302.986 Q146.737 301.852 149.191 301.273 Q151.644 300.695 153.681 300.695 Q159.052 300.695 162.246 303.38 Q165.44 306.065 165.44 310.556 Q165.44 312.685 164.63 314.607 Q163.843 316.505 161.737 319.097 Q161.158 319.769 158.056 322.986 Q154.954 326.181 149.306 331.944 Z" fill="#000000" fill-rule="nonzero" fill-opacity="1" /><path clip-path="url(#clip280)" d="M175.44 330 L180.325 330 L180.325 335.88 L175.44 335.88 L175.44 330 Z" fill="#000000" fill-rule="nonzero" fill-opacity="1" /><path clip-path="url(#clip280)" d="M190.556 301.32 L208.912 301.32 L208.912 305.255 L194.838 305.255 L194.838 313.727 Q195.857 313.38 196.875 313.218 Q197.894 313.033 198.912 313.033 Q204.699 313.033 208.079 316.204 Q211.459 319.375 211.459 324.792 Q211.459 330.37 207.987 333.472 Q204.514 336.551 198.195 336.551 Q196.019 336.551 193.75 336.181 Q191.505 335.81 189.098 335.069 L189.098 330.37 Q191.181 331.505 193.403 332.06 Q195.625 332.616 198.102 332.616 Q202.107 332.616 204.445 330.509 Q206.783 328.403 206.783 324.792 Q206.783 321.181 204.445 319.074 Q202.107 316.968 198.102 316.968 Q196.227 316.968 194.352 317.384 Q192.5 317.801 190.556 318.681 L190.556 301.32 Z" fill="#000000" fill-rule="nonzero" fill-opacity="1" /><path clip-path="url(#clip280)" d="M18.0438 821.548 L24.314 821.548 Q22.5634 825.208 21.704 828.454 Q20.8447 831.701 20.8447 834.725 Q20.8447 839.976 22.8817 842.841 Q24.9187 845.674 28.6745 845.674 Q31.8255 845.674 33.4488 843.796 Q35.0402 841.886 36.0269 836.603 L36.8226 832.719 Q38.1912 825.526 41.6605 822.121 Q45.098 818.683 50.8908 818.683 Q57.7976 818.683 61.3624 823.33 Q64.9272 827.945 64.9272 836.889 Q64.9272 840.263 64.1633 844.082 Q63.3994 847.87 61.9035 851.944 L55.2831 851.944 Q57.4793 848.029 58.5933 844.273 Q59.7073 840.517 59.7073 836.889 Q59.7073 831.383 57.543 828.391 Q55.3786 825.399 51.3682 825.399 Q47.8671 825.399 45.8937 827.563 Q43.9204 829.696 42.9337 834.597 L42.1698 838.512 Q40.7375 845.706 37.682 848.92 Q34.6264 852.135 29.1837 852.135 Q22.8817 852.135 19.2532 847.711 Q15.6248 843.255 15.6248 835.457 Q15.6248 832.115 16.2295 828.645 Q16.8343 825.176 18.0438 821.548 Z" fill="#000000" fill-rule="nonzero" fill-opacity="1" /><path clip-path="url(#clip280)" d="M18.2347 803.119 L28.3562 803.119 L28.3562 791.056 L32.9077 791.056 L32.9077 803.119 L52.2594 803.119 Q56.6199 803.119 57.8613 801.941 Q59.1026 800.732 59.1026 797.072 L59.1026 791.056 L64.0042 791.056 L64.0042 797.072 Q64.0042 803.851 61.4897 806.429 Q58.9434 809.007 52.2594 809.007 L32.9077 809.007 L32.9077 813.304 L28.3562 813.304 L28.3562 809.007 L18.2347 809.007 L18.2347 803.119 Z" fill="#000000" fill-rule="nonzero" fill-opacity="1" /><path clip-path="url(#clip280)" d="M44.7161 752.862 L47.5806 752.862 L47.5806 779.789 Q53.6281 779.407 56.8109 776.16 Q59.9619 772.882 59.9619 767.057 Q59.9619 763.683 59.1344 760.532 Q58.3069 757.35 56.6518 754.23 L62.1899 754.23 Q63.5267 757.381 64.227 760.692 Q64.9272 764.002 64.9272 767.407 Q64.9272 775.937 59.9619 780.934 Q54.9967 785.9 46.5303 785.9 Q37.7774 785.9 32.6531 781.189 Q27.4968 776.447 27.4968 768.426 Q27.4968 761.233 32.1438 757.063 Q36.7589 752.862 44.7161 752.862 M42.9973 758.718 Q38.1912 758.782 35.3266 761.424 Q32.4621 764.033 32.4621 768.362 Q32.4621 773.264 35.2312 776.224 Q38.0002 779.152 43.0292 779.598 L42.9973 758.718 Z" fill="#000000" fill-rule="nonzero" fill-opacity="1" /><path clip-path="url(#clip280)" d="M58.657 737.584 L77.5631 737.584 L77.5631 743.472 L28.3562 743.472 L28.3562 737.584 L33.7671 737.584 Q30.5842 735.738 29.0564 732.937 Q27.4968 730.104 27.4968 726.189 Q27.4968 719.696 32.6531 715.654 Q37.8093 711.58 46.212 711.58 Q54.6147 711.58 59.771 715.654 Q64.9272 719.696 64.9272 726.189 Q64.9272 730.104 63.3994 732.937 Q61.8398 735.738 58.657 737.584 M46.212 717.659 Q39.7508 717.659 36.0905 720.333 Q32.3984 722.975 32.3984 727.622 Q32.3984 732.269 36.0905 734.942 Q39.7508 737.584 46.212 737.584 Q52.6732 737.584 56.3653 734.942 Q60.0256 732.269 60.0256 727.622 Q60.0256 722.975 56.3653 720.333 Q52.6732 717.659 46.212 717.659 Z" fill="#000000" fill-rule="nonzero" fill-opacity="1" /><path clip-path="url(#clip280)" d="M29.4065 679.147 L34.9447 679.147 Q33.6716 681.629 33.035 684.303 Q32.3984 686.977 32.3984 689.841 Q32.3984 694.202 33.7352 696.398 Q35.072 698.562 37.7456 698.562 Q39.7826 698.562 40.9603 697.003 Q42.1061 695.443 43.1565 690.732 L43.6021 688.727 Q44.9389 682.489 47.3897 679.879 Q49.8086 677.237 54.1691 677.237 Q59.1344 677.237 62.0308 681.184 Q64.9272 685.099 64.9272 691.974 Q64.9272 694.838 64.3543 697.957 Q63.8132 701.045 62.6992 704.482 L56.6518 704.482 Q58.3387 701.236 59.198 698.085 Q60.0256 694.934 60.0256 691.846 Q60.0256 687.709 58.6251 685.481 Q57.1929 683.253 54.6147 683.253 Q52.2276 683.253 50.9545 684.876 Q49.6813 686.467 48.5037 691.91 L48.0262 693.947 Q46.8804 699.39 44.5251 701.809 Q42.138 704.228 38.0002 704.228 Q32.9713 704.228 30.2341 700.663 Q27.4968 697.098 27.4968 690.541 Q27.4968 687.295 27.9743 684.43 Q28.4517 681.566 29.4065 679.147 Z" fill="#000000" fill-rule="nonzero" fill-opacity="1" /><path clip-path="url(#clip280)" d="M823.055 8.64 L830.926 8.64 L850.081 44.7799 L850.081 8.64 L855.752 8.64 L855.752 51.84 L847.882 51.84 L828.727 15.7001 L828.727 51.84 L823.055 51.84 L823.055 8.64 Z" fill="#000000" fill-rule="nonzero" fill-opacity="1" /><path clip-path="url(#clip280)" d="M881.88 35.5496 Q875.428 35.5496 872.939 37.0253 Q870.451 38.501 870.451 42.06 Q870.451 44.8956 872.303 46.5738 Q874.184 48.2231 877.395 48.2231 Q881.823 48.2231 884.485 45.0981 Q887.175 41.9442 887.175 36.7359 L887.175 35.5496 L881.88 35.5496 M892.5 33.3505 L892.5 51.84 L887.175 51.84 L887.175 46.921 Q885.353 49.8724 882.633 51.2902 Q879.913 52.6791 875.978 52.6791 Q871.001 52.6791 868.049 49.9014 Q865.127 47.0947 865.127 42.4072 Q865.127 36.9385 868.773 34.1607 Q872.448 31.3829 879.71 31.3829 L887.175 31.3829 L887.175 30.8621 Q887.175 27.1874 884.745 25.1908 Q882.343 23.1654 877.974 23.1654 Q875.196 23.1654 872.563 23.8309 Q869.93 24.4964 867.5 25.8274 L867.5 20.9085 Q870.422 19.78 873.171 19.2302 Q875.92 18.6515 878.524 18.6515 Q885.555 18.6515 889.027 22.2973 Q892.5 25.9431 892.5 33.3505 Z" fill="#000000" fill-rule="nonzero" fill-opacity="1" /><path clip-path="url(#clip280)" d="M908.732 10.2314 L908.732 19.4328 L919.698 19.4328 L919.698 23.5705 L908.732 23.5705 L908.732 41.163 Q908.732 45.1271 909.803 46.2555 Q910.902 47.384 914.23 47.384 L919.698 47.384 L919.698 51.84 L914.23 51.84 Q908.067 51.84 905.723 49.5541 Q903.379 47.2393 903.379 41.163 L903.379 23.5705 L899.473 23.5705 L899.473 19.4328 L903.379 19.4328 L903.379 10.2314 L908.732 10.2314 Z" fill="#000000" fill-rule="nonzero" fill-opacity="1" /><path clip-path="url(#clip280)" d="M926.151 39.0507 L926.151 19.4328 L931.475 19.4328 L931.475 38.8482 Q931.475 43.4488 933.269 45.7636 Q935.063 48.0495 938.651 48.0495 Q942.962 48.0495 945.451 45.3007 Q947.968 42.5519 947.968 37.8065 L947.968 19.4328 L953.292 19.4328 L953.292 51.84 L947.968 51.84 L947.968 46.8632 Q946.029 49.8145 943.454 51.2613 Q940.908 52.6791 937.522 52.6791 Q931.938 52.6791 929.044 49.2069 Q926.151 45.7347 926.151 39.0507 M939.548 18.6515 L939.548 18.6515 Z" fill="#000000" fill-rule="nonzero" fill-opacity="1" /><path clip-path="url(#clip280)" d="M983.037 24.4096 Q982.14 23.8888 981.07 23.6573 Q980.028 23.3969 978.755 23.3969 Q974.241 23.3969 971.81 26.3482 Q969.409 29.2707 969.409 34.7683 L969.409 51.84 L964.056 51.84 L964.056 19.4328 L969.409 19.4328 L969.409 24.4675 Q971.087 21.5161 973.778 20.0983 Q976.469 18.6515 980.317 18.6515 Q980.867 18.6515 981.533 18.7383 Q982.198 18.7962 983.008 18.9409 L983.037 24.4096 Z" fill="#000000" fill-rule="nonzero" fill-opacity="1" /><path clip-path="url(#clip280)" d="M1003.35 35.5496 Q996.897 35.5496 994.409 37.0253 Q991.92 38.501 991.92 42.06 Q991.92 44.8956 993.772 46.5738 Q995.653 48.2231 998.865 48.2231 Q1003.29 48.2231 1005.95 45.0981 Q1008.64 41.9442 1008.64 36.7359 L1008.64 35.5496 L1003.35 35.5496 M1013.97 33.3505 L1013.97 51.84 L1008.64 51.84 L1008.64 46.921 Q1006.82 49.8724 1004.1 51.2902 Q1001.38 52.6791 997.447 52.6791 Q992.47 52.6791 989.519 49.9014 Q986.596 47.0947 986.596 42.4072 Q986.596 36.9385 990.242 34.1607 Q993.917 31.3829 1001.18 31.3829 L1008.64 31.3829 L1008.64 30.8621 Q1008.64 27.1874 1006.21 25.1908 Q1003.81 23.1654 999.443 23.1654 Q996.666 23.1654 994.033 23.8309 Q991.399 24.4964 988.969 25.8274 L988.969 20.9085 Q991.891 19.78 994.64 19.2302 Q997.389 18.6515 999.993 18.6515 Q1007.02 18.6515 1010.5 22.2973 Q1013.97 25.9431 1013.97 33.3505 Z" fill="#000000" fill-rule="nonzero" fill-opacity="1" /><path clip-path="url(#clip280)" d="M1024.94 6.81709 L1030.26 6.81709 L1030.26 51.84 L1024.94 51.84 L1024.94 6.81709 Z" fill="#000000" fill-rule="nonzero" fill-opacity="1" /><path clip-path="url(#clip280)" d="M1080.95 31.5855 Q1082.83 32.222 1084.6 34.3054 Q1086.39 36.3887 1088.19 40.0345 L1094.12 51.84 L1087.84 51.84 L1082.31 40.7579 Q1080.17 36.4176 1078.15 34.9998 Q1076.15 33.582 1072.68 33.582 L1066.31 33.582 L1066.31 51.84 L1060.47 51.84 L1060.47 8.64 L1073.66 8.64 Q1081.07 8.64 1084.71 11.736 Q1088.36 14.8321 1088.36 21.0821 Q1088.36 25.1619 1086.45 27.8529 Q1084.57 30.5438 1080.95 31.5855 M1066.31 13.4432 L1066.31 28.7788 L1073.66 28.7788 Q1077.89 28.7788 1080.03 26.8401 Q1082.2 24.8726 1082.2 21.0821 Q1082.2 17.2916 1080.03 15.3819 Q1077.89 13.4432 1073.66 13.4432 L1066.31 13.4432 Z" fill="#000000" fill-rule="nonzero" fill-opacity="1" /><path clip-path="url(#clip280)" d="M1126.47 34.3054 L1126.47 36.9095 L1101.99 36.9095 Q1102.34 42.4072 1105.29 45.3007 Q1108.27 48.1653 1113.56 48.1653 Q1116.63 48.1653 1119.49 47.4129 Q1122.39 46.6606 1125.22 45.156 L1125.22 50.1907 Q1122.36 51.406 1119.35 52.0425 Q1116.34 52.6791 1113.24 52.6791 Q1105.49 52.6791 1100.95 48.1653 Q1096.43 43.6514 1096.43 35.9547 Q1096.43 27.9975 1100.72 23.339 Q1105.03 18.6515 1112.32 18.6515 Q1118.86 18.6515 1122.65 22.876 Q1126.47 27.0716 1126.47 34.3054 M1121.14 32.7429 Q1121.09 28.3737 1118.68 25.7695 Q1116.31 23.1654 1112.38 23.1654 Q1107.92 23.1654 1105.23 25.6827 Q1102.57 28.2001 1102.16 32.7718 L1121.14 32.7429 Z" fill="#000000" fill-rule="nonzero" fill-opacity="1" /><path clip-path="url(#clip280)" d="M1155.87 20.3876 L1155.87 25.4223 Q1153.61 24.2649 1151.18 23.6862 Q1148.75 23.1075 1146.14 23.1075 Q1142.18 23.1075 1140.18 24.3228 Q1138.22 25.5381 1138.22 27.9686 Q1138.22 29.8204 1139.63 30.891 Q1141.05 31.9327 1145.33 32.8876 L1147.16 33.2926 Q1152.83 34.5079 1155.2 36.7359 Q1157.6 38.935 1157.6 42.8991 Q1157.6 47.4129 1154.01 50.046 Q1150.46 52.6791 1144.21 52.6791 Q1141.6 52.6791 1138.77 52.1583 Q1135.96 51.6664 1132.83 50.6537 L1132.83 45.156 Q1135.79 46.6896 1138.65 47.4708 Q1141.51 48.2231 1144.32 48.2231 Q1148.08 48.2231 1150.11 46.95 Q1152.13 45.6479 1152.13 43.3042 Q1152.13 41.134 1150.66 39.9766 Q1149.21 38.8192 1144.26 37.7486 L1142.41 37.3146 Q1137.46 36.273 1135.26 34.1318 Q1133.07 31.9616 1133.07 28.2001 Q1133.07 23.6283 1136.31 21.1399 Q1139.55 18.6515 1145.51 18.6515 Q1148.46 18.6515 1151.06 19.0855 Q1153.67 19.5196 1155.87 20.3876 Z" fill="#000000" fill-rule="nonzero" fill-opacity="1" /><path clip-path="url(#clip280)" d="M1166.08 19.4328 L1171.4 19.4328 L1171.4 51.84 L1166.08 51.84 L1166.08 19.4328 M1166.08 6.81709 L1171.4 6.81709 L1171.4 13.559 L1166.08 13.559 L1166.08 6.81709 Z" fill="#000000" fill-rule="nonzero" fill-opacity="1" /><path clip-path="url(#clip280)" d="M1203.87 24.3517 L1203.87 6.81709 L1209.19 6.81709 L1209.19 51.84 L1203.87 51.84 L1203.87 46.9789 Q1202.19 49.8724 1199.62 51.2902 Q1197.07 52.6791 1193.48 52.6791 Q1187.61 52.6791 1183.9 47.9916 Q1180.23 43.3042 1180.23 35.6653 Q1180.23 28.0265 1183.9 23.339 Q1187.61 18.6515 1193.48 18.6515 Q1197.07 18.6515 1199.62 20.0693 Q1202.19 21.4582 1203.87 24.3517 M1185.73 35.6653 Q1185.73 41.5391 1188.13 44.8956 Q1190.56 48.2231 1194.78 48.2231 Q1199.01 48.2231 1201.44 44.8956 Q1203.87 41.5391 1203.87 35.6653 Q1203.87 29.7915 1201.44 26.464 Q1199.01 23.1075 1194.78 23.1075 Q1190.56 23.1075 1188.13 26.464 Q1185.73 29.7915 1185.73 35.6653 Z" fill="#000000" fill-rule="nonzero" fill-opacity="1" /><path clip-path="url(#clip280)" d="M1247.88 34.3054 L1247.88 36.9095 L1223.4 36.9095 Q1223.75 42.4072 1226.7 45.3007 Q1229.68 48.1653 1234.97 48.1653 Q1238.04 48.1653 1240.91 47.4129 Q1243.8 46.6606 1246.64 45.156 L1246.64 50.1907 Q1243.77 51.406 1240.76 52.0425 Q1237.75 52.6791 1234.66 52.6791 Q1226.9 52.6791 1222.36 48.1653 Q1217.85 43.6514 1217.85 35.9547 Q1217.85 27.9975 1222.13 23.339 Q1226.44 18.6515 1233.73 18.6515 Q1240.27 18.6515 1244.06 22.876 Q1247.88 27.0716 1247.88 34.3054 M1242.56 32.7429 Q1242.5 28.3737 1240.1 25.7695 Q1237.72 23.1654 1233.79 23.1654 Q1229.33 23.1654 1226.64 25.6827 Q1223.98 28.2001 1223.57 32.7718 L1242.56 32.7429 Z" fill="#000000" fill-rule="nonzero" fill-opacity="1" /><path clip-path="url(#clip280)" d="M1283.56 32.2799 L1283.56 51.84 L1278.23 51.84 L1278.23 32.4535 Q1278.23 27.8529 1276.44 25.567 Q1274.64 23.2811 1271.06 23.2811 Q1266.75 23.2811 1264.26 26.03 Q1261.77 28.7788 1261.77 33.5241 L1261.77 51.84 L1256.42 51.84 L1256.42 19.4328 L1261.77 19.4328 L1261.77 24.4675 Q1263.68 21.545 1266.25 20.0983 Q1268.86 18.6515 1272.24 18.6515 Q1277.83 18.6515 1280.69 22.1237 Q1283.56 25.567 1283.56 32.2799 Z" fill="#000000" fill-rule="nonzero" fill-opacity="1" /><path clip-path="url(#clip280)" d="M1317.5 20.677 L1317.5 25.6538 Q1315.24 24.4096 1312.95 23.802 Q1310.7 23.1654 1308.38 23.1654 Q1303.2 23.1654 1300.34 26.464 Q1297.47 29.7336 1297.47 35.6653 Q1297.47 41.597 1300.34 44.8956 Q1303.2 48.1653 1308.38 48.1653 Q1310.7 48.1653 1312.95 47.5576 Q1315.24 46.921 1317.5 45.6768 L1317.5 50.5958 Q1315.27 51.6375 1312.87 52.1583 Q1310.49 52.6791 1307.8 52.6791 Q1300.48 52.6791 1296.17 48.0784 Q1291.86 43.4778 1291.86 35.6653 Q1291.86 27.7371 1296.2 23.1943 Q1300.57 18.6515 1308.15 18.6515 Q1310.61 18.6515 1312.95 19.1724 Q1315.3 19.6642 1317.5 20.677 Z" fill="#000000" fill-rule="nonzero" fill-opacity="1" /><path clip-path="url(#clip280)" d="M1354.48 34.3054 L1354.48 36.9095 L1330 36.9095 Q1330.34 42.4072 1333.3 45.3007 Q1336.28 48.1653 1341.57 48.1653 Q1344.64 48.1653 1347.5 47.4129 Q1350.4 46.6606 1353.23 45.156 L1353.23 50.1907 Q1350.37 51.406 1347.36 52.0425 Q1344.35 52.6791 1341.25 52.6791 Q1333.5 52.6791 1328.96 48.1653 Q1324.44 43.6514 1324.44 35.9547 Q1324.44 27.9975 1328.72 23.339 Q1333.04 18.6515 1340.33 18.6515 Q1346.87 18.6515 1350.66 22.876 Q1354.48 27.0716 1354.48 34.3054 M1349.15 32.7429 Q1349.09 28.3737 1346.69 25.7695 Q1344.32 23.1654 1340.38 23.1654 Q1335.93 23.1654 1333.24 25.6827 Q1330.58 28.2001 1330.17 32.7718 L1349.15 32.7429 Z" fill="#000000" fill-rule="nonzero" fill-opacity="1" /><path clip-path="url(#clip280)" d="M1376.29 8.64 L1412.84 8.64 L1412.84 13.559 L1397.5 13.559 L1397.5 51.84 L1391.63 51.84 L1391.63 13.559 L1376.29 13.559 L1376.29 8.64 Z" fill="#000000" fill-rule="nonzero" fill-opacity="1" /><path clip-path="url(#clip280)" d="M1416.43 19.4328 L1421.75 19.4328 L1421.75 51.84 L1416.43 51.84 L1416.43 19.4328 M1416.43 6.81709 L1421.75 6.81709 L1421.75 13.559 L1416.43 13.559 L1416.43 6.81709 Z" fill="#000000" fill-rule="nonzero" fill-opacity="1" /><path clip-path="url(#clip280)" d="M1458.12 25.6538 Q1460.12 22.0659 1462.9 20.3587 Q1465.67 18.6515 1469.44 18.6515 Q1474.5 18.6515 1477.25 22.2105 Q1480 25.7406 1480 32.2799 L1480 51.84 L1474.64 51.84 L1474.64 32.4535 Q1474.64 27.795 1472.99 25.5381 Q1471.34 23.2811 1467.96 23.2811 Q1463.82 23.2811 1461.42 26.03 Q1459.02 28.7788 1459.02 33.5241 L1459.02 51.84 L1453.67 51.84 L1453.67 32.4535 Q1453.67 27.7661 1452.02 25.5381 Q1450.37 23.2811 1446.92 23.2811 Q1442.84 23.2811 1440.44 26.0589 Q1438.04 28.8077 1438.04 33.5241 L1438.04 51.84 L1432.69 51.84 L1432.69 19.4328 L1438.04 19.4328 L1438.04 24.4675 Q1439.86 21.4872 1442.41 20.0693 Q1444.96 18.6515 1448.46 18.6515 Q1451.99 18.6515 1454.45 20.4455 Q1456.94 22.2395 1458.12 25.6538 Z" fill="#000000" fill-rule="nonzero" fill-opacity="1" /><path clip-path="url(#clip280)" d="M1518.34 34.3054 L1518.34 36.9095 L1493.86 36.9095 Q1494.2 42.4072 1497.15 45.3007 Q1500.14 48.1653 1505.43 48.1653 Q1508.5 48.1653 1511.36 47.4129 Q1514.26 46.6606 1517.09 45.156 L1517.09 50.1907 Q1514.23 51.406 1511.22 52.0425 Q1508.21 52.6791 1505.11 52.6791 Q1497.36 52.6791 1492.81 48.1653 Q1488.3 43.6514 1488.3 35.9547 Q1488.3 27.9975 1492.58 23.339 Q1496.89 18.6515 1504.19 18.6515 Q1510.73 18.6515 1514.52 22.876 Q1518.34 27.0716 1518.34 34.3054 M1513.01 32.7429 Q1512.95 28.3737 1510.55 25.7695 Q1508.18 23.1654 1504.24 23.1654 Q1499.79 23.1654 1497.1 25.6827 Q1494.43 28.2001 1494.03 32.7718 L1513.01 32.7429 Z" fill="#000000" fill-rule="nonzero" fill-opacity="1" /><path clip-path="url(#clip280)" d="M1543.22 33.5241 L1596.69 33.5241 L1596.69 37.6908 L1543.22 37.6908 L1543.22 33.5241 Z" fill="#000000" fill-rule="nonzero" fill-opacity="1" /><path clip-path="url(#clip280)" d="M1624.24 8.64 L1630.08 8.64 L1630.08 26.898 L1649.47 8.64 L1656.99 8.64 L1635.55 28.7788 L1658.53 51.84 L1650.83 51.84 L1630.08 31.0357 L1630.08 51.84 L1624.24 51.84 L1624.24 8.64 Z" fill="#000000" fill-rule="nonzero" fill-opacity="1" /><path clip-path="url(#clip280)" d="M1663.56 24.9304 L1700.65 24.9304 L1700.65 29.7915 L1663.56 29.7915 L1663.56 24.9304 M1663.56 36.7359 L1700.65 36.7359 L1700.65 41.6549 L1663.56 41.6549 L1663.56 36.7359 Z" fill="#000000" fill-rule="nonzero" fill-opacity="1" /><path clip-path="url(#clip280)" d="M1714.28 46.921 L1723.83 46.921 L1723.83 13.964 L1713.44 16.0474 L1713.44 10.7233 L1723.77 8.64 L1729.62 8.64 L1729.62 46.921 L1739.17 46.921 L1739.17 51.84 L1714.28 51.84 L1714.28 46.921 Z" fill="#000000" fill-rule="nonzero" fill-opacity="1" /><path clip-path="url(#clip280)" d="M1751.03 8.64 L1773.98 8.64 L1773.98 13.559 L1756.38 13.559 L1756.38 24.1492 Q1757.66 23.7152 1758.93 23.5126 Q1760.2 23.2811 1761.48 23.2811 Q1768.71 23.2811 1772.93 27.2452 Q1777.16 31.2093 1777.16 37.9801 Q1777.16 44.9535 1772.82 48.8308 Q1768.48 52.6791 1760.58 52.6791 Q1757.86 52.6791 1755.02 52.2162 Q1752.22 51.7532 1749.21 50.8273 L1749.21 44.9535 Q1751.81 46.3713 1754.59 47.0657 Q1757.37 47.7602 1760.46 47.7602 Q1765.47 47.7602 1768.39 45.1271 Q1771.31 42.494 1771.31 37.9801 Q1771.31 33.4663 1768.39 30.8332 Q1765.47 28.2001 1760.46 28.2001 Q1758.12 28.2001 1755.78 28.7209 Q1753.46 29.2417 1751.03 30.3413 L1751.03 8.64 Z" fill="#000000" fill-rule="nonzero" fill-opacity="1" /><path clip-path="url(#clip282)" d="M363.254 106.192 L363.254 1423.18 L464.535 1423.18 L464.535 106.192 L363.254 106.192 L363.254 106.192  Z" fill="#4682b4" fill-rule="evenodd" fill-opacity="0.7"/>
<polyline clip-path="url(#clip282)" style="stroke:#000000; stroke-linecap:round; stroke-linejoin:round; stroke-width:4; stroke-opacity:0.7; fill:none" points="363.254,106.192 363.254,1423.18 464.535,1423.18 464.535,106.192 363.254,106.192 "/>
<path clip-path="url(#clip282)" d="M489.856 1312.49 L489.856 1423.18 L591.137 1423.18 L591.137 1312.49 L489.856 1312.49 L489.856 1312.49  Z" fill="#4682b4" fill-rule="evenodd" fill-opacity="0.7"/>
<polyline clip-path="url(#clip282)" style="stroke:#000000; stroke-linecap:round; stroke-linejoin:round; stroke-width:4; stroke-opacity:0.7; fill:none" points="489.856,1312.49 489.856,1423.18 591.137,1423.18 591.137,1312.49 489.856,1312.49 "/>
<path clip-path="url(#clip282)" d="M616.457 1330.08 L616.457 1423.18 L717.739 1423.18 L717.739 1330.08 L616.457 1330.08 L616.457 1330.08  Z" fill="#4682b4" fill-rule="evenodd" fill-opacity="0.7"/>
<polyline clip-path="url(#clip282)" style="stroke:#000000; stroke-linecap:round; stroke-linejoin:round; stroke-width:4; stroke-opacity:0.7; fill:none" points="616.457,1330.08 616.457,1423.18 717.739,1423.18 717.739,1330.08 616.457,1330.08 "/>
<path clip-path="url(#clip282)" d="M743.059 1317.17 L743.059 1423.18 L844.341 1423.18 L844.341 1317.17 L743.059 1317.17 L743.059 1317.17  Z" fill="#4682b4" fill-rule="evenodd" fill-opacity="0.7"/>
<polyline clip-path="url(#clip282)" style="stroke:#000000; stroke-linecap:round; stroke-linejoin:round; stroke-width:4; stroke-opacity:0.7; fill:none" points="743.059,1317.17 743.059,1423.18 844.341,1423.18 844.341,1317.17 743.059,1317.17 "/>
<path clip-path="url(#clip282)" d="M869.661 1315.56 L869.661 1423.18 L970.943 1423.18 L970.943 1315.56 L869.661 1315.56 L869.661 1315.56  Z" fill="#4682b4" fill-rule="evenodd" fill-opacity="0.7"/>
<polyline clip-path="url(#clip282)" style="stroke:#000000; stroke-linecap:round; stroke-linejoin:round; stroke-width:4; stroke-opacity:0.7; fill:none" points="869.661,1315.56 869.661,1423.18 970.943,1423.18 970.943,1315.56 869.661,1315.56 "/>
<path clip-path="url(#clip282)" d="M996.263 1322.24 L996.263 1423.18 L1097.54 1423.18 L1097.54 1322.24 L996.263 1322.24 L996.263 1322.24  Z" fill="#4682b4" fill-rule="evenodd" fill-opacity="0.7"/>
<polyline clip-path="url(#clip282)" style="stroke:#000000; stroke-linecap:round; stroke-linejoin:round; stroke-width:4; stroke-opacity:0.7; fill:none" points="996.263,1322.24 996.263,1423.18 1097.54,1423.18 1097.54,1322.24 996.263,1322.24 "/>
<path clip-path="url(#clip282)" d="M1122.86 1327.2 L1122.86 1423.18 L1224.15 1423.18 L1224.15 1327.2 L1122.86 1327.2 L1122.86 1327.2  Z" fill="#4682b4" fill-rule="evenodd" fill-opacity="0.7"/>
<polyline clip-path="url(#clip282)" style="stroke:#000000; stroke-linecap:round; stroke-linejoin:round; stroke-width:4; stroke-opacity:0.7; fill:none" points="1122.86,1327.2 1122.86,1423.18 1224.15,1423.18 1224.15,1327.2 1122.86,1327.2 "/>
<path clip-path="url(#clip282)" d="M1249.47 1321.83 L1249.47 1423.18 L1350.75 1423.18 L1350.75 1321.83 L1249.47 1321.83 L1249.47 1321.83  Z" fill="#4682b4" fill-rule="evenodd" fill-opacity="0.7"/>
<polyline clip-path="url(#clip282)" style="stroke:#000000; stroke-linecap:round; stroke-linejoin:round; stroke-width:4; stroke-opacity:0.7; fill:none" points="1249.47,1321.83 1249.47,1423.18 1350.75,1423.18 1350.75,1321.83 1249.47,1321.83 "/>
<path clip-path="url(#clip282)" d="M1376.07 1330.62 L1376.07 1423.18 L1477.35 1423.18 L1477.35 1330.62 L1376.07 1330.62 L1376.07 1330.62  Z" fill="#4682b4" fill-rule="evenodd" fill-opacity="0.7"/>
<polyline clip-path="url(#clip282)" style="stroke:#000000; stroke-linecap:round; stroke-linejoin:round; stroke-width:4; stroke-opacity:0.7; fill:none" points="1376.07,1330.62 1376.07,1423.18 1477.35,1423.18 1477.35,1330.62 1376.07,1330.62 "/>
<path clip-path="url(#clip282)" d="M1502.67 1321.42 L1502.67 1423.18 L1603.95 1423.18 L1603.95 1321.42 L1502.67 1321.42 L1502.67 1321.42  Z" fill="#4682b4" fill-rule="evenodd" fill-opacity="0.7"/>
<polyline clip-path="url(#clip282)" style="stroke:#000000; stroke-linecap:round; stroke-linejoin:round; stroke-width:4; stroke-opacity:0.7; fill:none" points="1502.67,1321.42 1502.67,1423.18 1603.95,1423.18 1603.95,1321.42 1502.67,1321.42 "/>
<path clip-path="url(#clip282)" d="M1629.27 1329.27 L1629.27 1423.18 L1730.55 1423.18 L1730.55 1329.27 L1629.27 1329.27 L1629.27 1329.27  Z" fill="#4682b4" fill-rule="evenodd" fill-opacity="0.7"/>
<polyline clip-path="url(#clip282)" style="stroke:#000000; stroke-linecap:round; stroke-linejoin:round; stroke-width:4; stroke-opacity:0.7; fill:none" points="1629.27,1329.27 1629.27,1423.18 1730.55,1423.18 1730.55,1329.27 1629.27,1329.27 "/>
<path clip-path="url(#clip282)" d="M1755.87 1326.02 L1755.87 1423.18 L1857.16 1423.18 L1857.16 1326.02 L1755.87 1326.02 L1755.87 1326.02  Z" fill="#4682b4" fill-rule="evenodd" fill-opacity="0.7"/>
<polyline clip-path="url(#clip282)" style="stroke:#000000; stroke-linecap:round; stroke-linejoin:round; stroke-width:4; stroke-opacity:0.7; fill:none" points="1755.87,1326.02 1755.87,1423.18 1857.16,1423.18 1857.16,1326.02 1755.87,1326.02 "/>
<path clip-path="url(#clip282)" d="M1882.48 1332.27 L1882.48 1423.18 L1983.76 1423.18 L1983.76 1332.27 L1882.48 1332.27 L1882.48 1332.27  Z" fill="#4682b4" fill-rule="evenodd" fill-opacity="0.7"/>
<polyline clip-path="url(#clip282)" style="stroke:#000000; stroke-linecap:round; stroke-linejoin:round; stroke-width:4; stroke-opacity:0.7; fill:none" points="1882.48,1332.27 1882.48,1423.18 1983.76,1423.18 1983.76,1332.27 1882.48,1332.27 "/>
<path clip-path="url(#clip282)" d="M2009.08 1320.98 L2009.08 1423.18 L2110.36 1423.18 L2110.36 1320.98 L2009.08 1320.98 L2009.08 1320.98  Z" fill="#4682b4" fill-rule="evenodd" fill-opacity="0.7"/>
<polyline clip-path="url(#clip282)" style="stroke:#000000; stroke-linecap:round; stroke-linejoin:round; stroke-width:4; stroke-opacity:0.7; fill:none" points="2009.08,1320.98 2009.08,1423.18 2110.36,1423.18 2110.36,1320.98 2009.08,1320.98 "/>
<path clip-path="url(#clip282)" d="M2135.68 547.179 L2135.68 1423.18 L2236.96 1423.18 L2236.96 547.179 L2135.68 547.179 L2135.68 547.179  Z" fill="#4682b4" fill-rule="evenodd" fill-opacity="0.7"/>
<polyline clip-path="url(#clip282)" style="stroke:#000000; stroke-linecap:round; stroke-linejoin:round; stroke-width:4; stroke-opacity:0.7; fill:none" points="2135.68,547.179 2135.68,1423.18 2236.96,1423.18 2236.96,547.179 2135.68,547.179 "/>
<circle clip-path="url(#clip282)" style="fill:#4682b4; stroke:none; fill-opacity:0" cx="413.895" cy="106.192" r="2"/>
<circle clip-path="url(#clip282)" style="fill:#4682b4; stroke:none; fill-opacity:0" cx="540.496" cy="1312.49" r="2"/>
<circle clip-path="url(#clip282)" style="fill:#4682b4; stroke:none; fill-opacity:0" cx="667.098" cy="1330.08" r="2"/>
<circle clip-path="url(#clip282)" style="fill:#4682b4; stroke:none; fill-opacity:0" cx="793.7" cy="1317.17" r="2"/>
<circle clip-path="url(#clip282)" style="fill:#4682b4; stroke:none; fill-opacity:0" cx="920.302" cy="1315.56" r="2"/>
<circle clip-path="url(#clip282)" style="fill:#4682b4; stroke:none; fill-opacity:0" cx="1046.9" cy="1322.24" r="2"/>
<circle clip-path="url(#clip282)" style="fill:#4682b4; stroke:none; fill-opacity:0" cx="1173.51" cy="1327.2" r="2"/>
<circle clip-path="url(#clip282)" style="fill:#4682b4; stroke:none; fill-opacity:0" cx="1300.11" cy="1321.83" r="2"/>
<circle clip-path="url(#clip282)" style="fill:#4682b4; stroke:none; fill-opacity:0" cx="1426.71" cy="1330.62" r="2"/>
<circle clip-path="url(#clip282)" style="fill:#4682b4; stroke:none; fill-opacity:0" cx="1553.31" cy="1321.42" r="2"/>
<circle clip-path="url(#clip282)" style="fill:#4682b4; stroke:none; fill-opacity:0" cx="1679.91" cy="1329.27" r="2"/>
<circle clip-path="url(#clip282)" style="fill:#4682b4; stroke:none; fill-opacity:0" cx="1806.51" cy="1326.02" r="2"/>
<circle clip-path="url(#clip282)" style="fill:#4682b4; stroke:none; fill-opacity:0" cx="1933.12" cy="1332.27" r="2"/>
<circle clip-path="url(#clip282)" style="fill:#4682b4; stroke:none; fill-opacity:0" cx="2059.72" cy="1320.98" r="2"/>
<circle clip-path="url(#clip282)" style="fill:#4682b4; stroke:none; fill-opacity:0" cx="2186.32" cy="547.179" r="2"/>
</svg>
