<?xml version="1.0" encoding="utf-8"?>
<svg xmlns="http://www.w3.org/2000/svg" xmlns:xlink="http://www.w3.org/1999/xlink" width="600" height="400" viewBox="0 0 2400 1600">
<defs>
  <clipPath id="clip940">
    <rect x="0" y="0" width="2400" height="1600"/>
  </clipPath>
</defs>
<path clip-path="url(#clip940)" d="M0 1600 L2400 1600 L2400 8.88178e-14 L0 8.88178e-14  Z" fill="#ffffff" fill-rule="evenodd" fill-opacity="1"/>
<defs>
  <clipPath id="clip941">
    <rect x="519" y="0" width="1490" height="1325"/>
  </clipPath>
</defs>
<path clip-path="url(#clip940)" d="M419.944 1241.31 L2274.02 1241.31 L2274.02 125.984 L419.944 125.984  Z" fill="#ffffff" fill-rule="evenodd" fill-opacity="1"/>
<defs>
  <clipPath id="clip942">
    <rect x="419" y="125" width="1855" height="1116"/>
  </clipPath>
</defs>
<polyline clip-path="url(#clip942)" style="stroke:#000000; stroke-linecap:round; stroke-linejoin:round; stroke-width:2; stroke-opacity:0.1; fill:none" points="455.024,1241.31 455.024,125.984 "/>
<polyline clip-path="url(#clip942)" style="stroke:#000000; stroke-linecap:round; stroke-linejoin:round; stroke-width:2; stroke-opacity:0.1; fill:none" points="1012.5,1241.31 1012.5,125.984 "/>
<polyline clip-path="url(#clip942)" style="stroke:#000000; stroke-linecap:round; stroke-linejoin:round; stroke-width:2; stroke-opacity:0.1; fill:none" points="1569.97,1241.31 1569.97,125.984 "/>
<polyline clip-path="url(#clip942)" style="stroke:#000000; stroke-linecap:round; stroke-linejoin:round; stroke-width:2; stroke-opacity:0.1; fill:none" points="2127.44,1241.31 2127.44,125.984 "/>
<polyline clip-path="url(#clip942)" style="stroke:#000000; stroke-linecap:round; stroke-linejoin:round; stroke-width:2; stroke-opacity:0.1; fill:none" points="419.944,1241.31 2274.02,1241.31 "/>
<polyline clip-path="url(#clip942)" style="stroke:#000000; stroke-linecap:round; stroke-linejoin:round; stroke-width:2; stroke-opacity:0.1; fill:none" points="419.944,1066.37 2274.02,1066.37 "/>
<polyline clip-path="url(#clip942)" style="stroke:#000000; stroke-linecap:round; stroke-linejoin:round; stroke-width:2; stroke-opacity:0.1; fill:none" points="419.944,891.429 2274.02,891.429 "/>
<polyline clip-path="url(#clip942)" style="stroke:#000000; stroke-linecap:round; stroke-linejoin:round; stroke-width:2; stroke-opacity:0.1; fill:none" points="419.944,716.488 2274.02,716.488 "/>
<polyline clip-path="url(#clip942)" style="stroke:#000000; stroke-linecap:round; stroke-linejoin:round; stroke-width:2; stroke-opacity:0.1; fill:none" points="419.944,541.547 2274.02,541.547 "/>
<polyline clip-path="url(#clip942)" style="stroke:#000000; stroke-linecap:round; stroke-linejoin:round; stroke-width:2; stroke-opacity:0.1; fill:none" points="419.944,366.606 2274.02,366.606 "/>
<polyline clip-path="url(#clip942)" style="stroke:#000000; stroke-linecap:round; stroke-linejoin:round; stroke-width:2; stroke-opacity:0.1; fill:none" points="419.944,191.665 2274.02,191.665 "/>
<polyline clip-path="url(#clip940)" style="stroke:#000000; stroke-linecap:round; stroke-linejoin:round; stroke-width:4; stroke-opacity:1; fill:none" points="419.944,1241.31 2274.02,1241.31 "/>
<polyline clip-path="url(#clip940)" style="stroke:#000000; stroke-linecap:round; stroke-linejoin:round; stroke-width:4; stroke-opacity:1; fill:none" points="455.024,1241.31 455.024,1222.41 "/>
<polyline clip-path="url(#clip940)" style="stroke:#000000; stroke-linecap:round; stroke-linejoin:round; stroke-width:4; stroke-opacity:1; fill:none" points="1012.5,1241.31 1012.5,1222.41 "/>
<polyline clip-path="url(#clip940)" style="stroke:#000000; stroke-linecap:round; stroke-linejoin:round; stroke-width:4; stroke-opacity:1; fill:none" points="1569.97,1241.31 1569.97,1222.41 "/>
<polyline clip-path="url(#clip940)" style="stroke:#000000; stroke-linecap:round; stroke-linejoin:round; stroke-width:4; stroke-opacity:1; fill:none" points="2127.44,1241.31 2127.44,1222.41 "/>
<path clip-path="url(#clip940)" d="M455.024 1275.16 Q450.51 1275.16 448.225 1279.62 Q445.968 1284.04 445.968 1292.95 Q445.968 1301.84 448.225 1306.29 Q450.51 1310.72 455.024 1310.72 Q459.567 1310.72 461.824 1306.29 Q464.11 1301.84 464.11 1292.95 Q464.11 1284.04 461.824 1279.62 Q459.567 1275.16 455.024 1275.16 M455.024 1270.53 Q462.287 1270.53 466.106 1276.29 Q469.955 1282.02 469.955 1292.95 Q469.955 1303.86 466.106 1309.62 Q462.287 1315.35 455.024 1315.35 Q447.762 1315.35 443.913 1309.62 Q440.094 1303.86 440.094 1292.95 Q440.094 1282.02 443.913 1276.29 Q447.762 1270.53 455.024 1270.53 Z" fill="#000000" fill-rule="nonzero" fill-opacity="1" /><path clip-path="url(#clip940)" d="M1000.34 1271.31 L1023.29 1271.31 L1023.29 1276.23 L1005.7 1276.23 L1005.7 1286.82 Q1006.97 1286.39 1008.24 1286.18 Q1009.52 1285.95 1010.79 1285.95 Q1018.02 1285.95 1022.25 1289.92 Q1026.47 1293.88 1026.47 1300.65 Q1026.47 1307.62 1022.13 1311.5 Q1017.79 1315.35 1009.89 1315.35 Q1007.17 1315.35 1004.34 1314.89 Q1001.53 1314.42 998.521 1313.5 L998.521 1307.62 Q1001.12 1309.04 1003.9 1309.74 Q1006.68 1310.43 1009.78 1310.43 Q1014.78 1310.43 1017.7 1307.8 Q1020.63 1305.17 1020.63 1300.65 Q1020.63 1296.14 1017.7 1293.5 Q1014.78 1290.87 1009.78 1290.87 Q1007.43 1290.87 1005.09 1291.39 Q1002.77 1291.91 1000.34 1293.01 L1000.34 1271.31 Z" fill="#000000" fill-rule="nonzero" fill-opacity="1" /><path clip-path="url(#clip940)" d="M1538.33 1309.59 L1547.88 1309.59 L1547.88 1276.64 L1537.49 1278.72 L1537.49 1273.39 L1547.82 1271.31 L1553.66 1271.31 L1553.66 1309.59 L1563.21 1309.59 L1563.21 1314.51 L1538.33 1314.51 L1538.33 1309.59 Z" fill="#000000" fill-rule="nonzero" fill-opacity="1" /><path clip-path="url(#clip940)" d="M1587.52 1275.16 Q1583 1275.16 1580.72 1279.62 Q1578.46 1284.04 1578.46 1292.95 Q1578.46 1301.84 1580.72 1306.29 Q1583 1310.72 1587.52 1310.72 Q1592.06 1310.72 1594.32 1306.29 Q1596.6 1301.84 1596.6 1292.95 Q1596.6 1284.04 1594.32 1279.62 Q1592.06 1275.16 1587.52 1275.16 M1587.52 1270.53 Q1594.78 1270.53 1598.6 1276.29 Q1602.45 1282.02 1602.45 1292.95 Q1602.45 1303.86 1598.6 1309.62 Q1594.78 1315.35 1587.52 1315.35 Q1580.25 1315.35 1576.41 1309.62 Q1572.59 1303.86 1572.59 1292.95 Q1572.59 1282.02 1576.41 1276.29 Q1580.25 1270.53 1587.52 1270.53 Z" fill="#000000" fill-rule="nonzero" fill-opacity="1" /><path clip-path="url(#clip940)" d="M2096.42 1309.59 L2105.97 1309.59 L2105.97 1276.64 L2095.58 1278.72 L2095.58 1273.39 L2105.91 1271.31 L2111.76 1271.31 L2111.76 1309.59 L2121.31 1309.59 L2121.31 1314.51 L2096.42 1314.51 L2096.42 1309.59 Z" fill="#000000" fill-rule="nonzero" fill-opacity="1" /><path clip-path="url(#clip940)" d="M2133.17 1271.31 L2156.12 1271.31 L2156.12 1276.23 L2138.52 1276.23 L2138.52 1286.82 Q2139.8 1286.39 2141.07 1286.18 Q2142.34 1285.95 2143.62 1285.95 Q2150.85 1285.95 2155.07 1289.92 Q2159.3 1293.88 2159.3 1300.65 Q2159.3 1307.62 2154.96 1311.5 Q2150.62 1315.35 2142.72 1315.35 Q2140 1315.35 2137.16 1314.89 Q2134.36 1314.42 2131.35 1313.5 L2131.35 1307.62 Q2133.95 1309.04 2136.73 1309.74 Q2139.51 1310.43 2142.6 1310.43 Q2147.61 1310.43 2150.53 1307.8 Q2153.45 1305.17 2153.45 1300.65 Q2153.45 1296.14 2150.53 1293.5 Q2147.61 1290.87 2142.6 1290.87 Q2140.26 1290.87 2137.92 1291.39 Q2135.6 1291.91 2133.17 1293.01 L2133.17 1271.31 Z" fill="#000000" fill-rule="nonzero" fill-opacity="1" /><path clip-path="url(#clip940)" d="M1295.18 1353.18 L1295.18 1359.45 Q1291.52 1357.69 1288.27 1356.84 Q1285.03 1355.98 1282 1355.98 Q1276.75 1355.98 1273.89 1358.01 Q1271.05 1360.05 1271.05 1363.81 Q1271.05 1366.96 1272.93 1368.58 Q1274.84 1370.17 1280.12 1371.16 L1284.01 1371.95 Q1291.2 1373.32 1294.61 1376.79 Q1298.04 1380.23 1298.04 1386.02 Q1298.04 1392.93 1293.4 1396.49 Q1288.78 1400.06 1279.84 1400.06 Q1276.46 1400.06 1272.64 1399.29 Q1268.86 1398.53 1264.78 1397.03 L1264.78 1390.41 Q1268.7 1392.61 1272.45 1393.72 Q1276.21 1394.84 1279.84 1394.84 Q1285.34 1394.84 1288.34 1392.67 Q1291.33 1390.51 1291.33 1386.5 Q1291.33 1383 1289.16 1381.03 Q1287.03 1379.05 1282.13 1378.07 L1278.21 1377.3 Q1271.02 1375.87 1267.81 1372.81 Q1264.59 1369.76 1264.59 1364.32 Q1264.59 1358.01 1269.02 1354.38 Q1273.47 1350.76 1281.27 1350.76 Q1284.61 1350.76 1288.08 1351.36 Q1291.55 1351.97 1295.18 1353.18 Z" fill="#000000" fill-rule="nonzero" fill-opacity="1" /><path clip-path="url(#clip940)" d="M1313.61 1353.37 L1313.61 1363.49 L1325.67 1363.49 L1325.67 1368.04 L1313.61 1368.04 L1313.61 1387.39 Q1313.61 1391.75 1314.79 1392.99 Q1315.99 1394.23 1319.65 1394.23 L1325.67 1394.23 L1325.67 1399.14 L1319.65 1399.14 Q1312.88 1399.14 1310.3 1396.62 Q1307.72 1394.07 1307.72 1387.39 L1307.72 1368.04 L1303.42 1368.04 L1303.42 1363.49 L1307.72 1363.49 L1307.72 1353.37 L1313.61 1353.37 Z" fill="#000000" fill-rule="nonzero" fill-opacity="1" /><path clip-path="url(#clip940)" d="M1349.57 1381.22 Q1342.48 1381.22 1339.74 1382.84 Q1337 1384.46 1337 1388.38 Q1337 1391.5 1339.04 1393.34 Q1341.11 1395.16 1344.64 1395.16 Q1349.51 1395.16 1352.44 1391.72 Q1355.4 1388.25 1355.4 1382.52 L1355.4 1381.22 L1349.57 1381.22 M1361.25 1378.8 L1361.25 1399.14 L1355.4 1399.14 L1355.4 1393.72 Q1353.39 1396.97 1350.4 1398.53 Q1347.41 1400.06 1343.08 1400.06 Q1337.61 1400.06 1334.36 1397 Q1331.15 1393.92 1331.15 1388.76 Q1331.15 1382.74 1335.16 1379.69 Q1339.2 1376.63 1347.19 1376.63 L1355.4 1376.63 L1355.4 1376.06 Q1355.4 1372.02 1352.72 1369.82 Q1350.08 1367.59 1345.28 1367.59 Q1342.22 1367.59 1339.32 1368.33 Q1336.43 1369.06 1333.75 1370.52 L1333.75 1365.11 Q1336.97 1363.87 1339.99 1363.26 Q1343.02 1362.63 1345.88 1362.63 Q1353.62 1362.63 1357.44 1366.64 Q1361.25 1370.65 1361.25 1378.8 Z" fill="#000000" fill-rule="nonzero" fill-opacity="1" /><path clip-path="url(#clip940)" d="M1379.11 1353.37 L1379.11 1363.49 L1391.17 1363.49 L1391.17 1368.04 L1379.11 1368.04 L1379.11 1387.39 Q1379.11 1391.75 1380.29 1392.99 Q1381.5 1394.23 1385.16 1394.23 L1391.17 1394.23 L1391.17 1399.14 L1385.16 1399.14 Q1378.38 1399.14 1375.8 1396.62 Q1373.22 1394.07 1373.22 1387.39 L1373.22 1368.04 L1368.93 1368.04 L1368.93 1363.49 L1373.22 1363.49 L1373.22 1353.37 L1379.11 1353.37 Z" fill="#000000" fill-rule="nonzero" fill-opacity="1" /><path clip-path="url(#clip940)" d="M1429.37 1379.85 L1429.37 1382.71 L1402.44 1382.71 Q1402.82 1388.76 1406.07 1391.94 Q1409.35 1395.09 1415.17 1395.09 Q1418.55 1395.09 1421.7 1394.27 Q1424.88 1393.44 1428 1391.78 L1428 1397.32 Q1424.85 1398.66 1421.54 1399.36 Q1418.23 1400.06 1414.82 1400.06 Q1406.29 1400.06 1401.3 1395.09 Q1396.33 1390.13 1396.33 1381.66 Q1396.33 1372.91 1401.04 1367.78 Q1405.78 1362.63 1413.8 1362.63 Q1421 1362.63 1425.17 1367.28 Q1429.37 1371.89 1429.37 1379.85 M1423.51 1378.13 Q1423.45 1373.32 1420.81 1370.46 Q1418.2 1367.59 1413.87 1367.59 Q1408.97 1367.59 1406.01 1370.36 Q1403.08 1373.13 1402.63 1378.16 L1423.51 1378.13 Z" fill="#000000" fill-rule="nonzero" fill-opacity="1" /><polyline clip-path="url(#clip940)" style="stroke:#000000; stroke-linecap:round; stroke-linejoin:round; stroke-width:4; stroke-opacity:1; fill:none" points="419.944,1241.31 419.944,125.984 "/>
<polyline clip-path="url(#clip940)" style="stroke:#000000; stroke-linecap:round; stroke-linejoin:round; stroke-width:4; stroke-opacity:1; fill:none" points="419.944,1241.31 438.841,1241.31 "/>
<polyline clip-path="url(#clip940)" style="stroke:#000000; stroke-linecap:round; stroke-linejoin:round; stroke-width:4; stroke-opacity:1; fill:none" points="419.944,1066.37 438.841,1066.37 "/>
<polyline clip-path="url(#clip940)" style="stroke:#000000; stroke-linecap:round; stroke-linejoin:round; stroke-width:4; stroke-opacity:1; fill:none" points="419.944,891.429 438.841,891.429 "/>
<polyline clip-path="url(#clip940)" style="stroke:#000000; stroke-linecap:round; stroke-linejoin:round; stroke-width:4; stroke-opacity:1; fill:none" points="419.944,716.488 438.841,716.488 "/>
<polyline clip-path="url(#clip940)" style="stroke:#000000; stroke-linecap:round; stroke-linejoin:round; stroke-width:4; stroke-opacity:1; fill:none" points="419.944,541.547 438.841,541.547 "/>
<polyline clip-path="url(#clip940)" style="stroke:#000000; stroke-linecap:round; stroke-linejoin:round; stroke-width:4; stroke-opacity:1; fill:none" points="419.944,366.606 438.841,366.606 "/>
<polyline clip-path="url(#clip940)" style="stroke:#000000; stroke-linecap:round; stroke-linejoin:round; stroke-width:4; stroke-opacity:1; fill:none" points="419.944,191.665 438.841,191.665 "/>
<path clip-path="url(#clip940)" d="M369.013 1223.56 Q364.499 1223.56 362.214 1228.02 Q359.957 1232.44 359.957 1241.35 Q359.957 1250.24 362.214 1254.69 Q364.499 1259.12 369.013 1259.12 Q373.556 1259.12 375.813 1254.69 Q378.099 1250.24 378.099 1241.35 Q378.099 1232.44 375.813 1228.02 Q373.556 1223.56 369.013 1223.56 M369.013 1218.93 Q376.276 1218.93 380.095 1224.69 Q383.944 1230.42 383.944 1241.35 Q383.944 1252.26 380.095 1258.02 Q376.276 1263.75 369.013 1263.75 Q361.751 1263.75 357.902 1258.02 Q354.083 1252.26 354.083 1241.35 Q354.083 1230.42 357.902 1224.69 Q361.751 1218.93 369.013 1218.93 Z" fill="#000000" fill-rule="nonzero" fill-opacity="1" /><path clip-path="url(#clip940)" d="M363.545 1083.05 L383.944 1083.05 L383.944 1087.97 L356.513 1087.97 L356.513 1083.05 Q359.841 1079.61 365.57 1073.82 Q371.328 1068.01 372.804 1066.33 Q375.61 1063.17 376.71 1061 Q377.838 1058.8 377.838 1056.69 Q377.838 1053.25 375.408 1051.08 Q373.006 1048.91 369.129 1048.91 Q366.38 1048.91 363.313 1049.86 Q360.275 1050.82 356.803 1052.76 L356.803 1046.85 Q360.333 1045.44 363.4 1044.71 Q366.467 1043.99 369.013 1043.99 Q375.726 1043.99 379.719 1047.35 Q383.712 1050.7 383.712 1056.32 Q383.712 1058.98 382.7 1061.38 Q381.716 1063.75 379.083 1066.99 Q378.359 1067.83 374.482 1071.85 Q370.605 1075.85 363.545 1083.05 Z" fill="#000000" fill-rule="nonzero" fill-opacity="1" /><path clip-path="url(#clip940)" d="M371.965 874.922 L357.208 897.983 L371.965 897.983 L371.965 874.922 M370.431 869.829 L377.781 869.829 L377.781 897.983 L383.944 897.983 L383.944 902.844 L377.781 902.844 L377.781 913.029 L371.965 913.029 L371.965 902.844 L352.462 902.844 L352.462 897.202 L370.431 869.829 Z" fill="#000000" fill-rule="nonzero" fill-opacity="1" /><path clip-path="url(#clip940)" d="M369.534 714.159 Q365.599 714.159 363.284 716.85 Q360.998 719.541 360.998 724.228 Q360.998 728.887 363.284 731.607 Q365.599 734.298 369.534 734.298 Q373.469 734.298 375.755 731.607 Q378.07 728.887 378.07 724.228 Q378.07 719.541 375.755 716.85 Q373.469 714.159 369.534 714.159 M381.137 695.843 L381.137 701.167 Q378.938 700.126 376.681 699.576 Q374.453 699.026 372.254 699.026 Q366.467 699.026 363.4 702.932 Q360.362 706.839 359.928 714.738 Q361.635 712.22 364.21 710.889 Q366.785 709.529 369.881 709.529 Q376.392 709.529 380.153 713.494 Q383.944 717.429 383.944 724.228 Q383.944 730.884 380.009 734.905 Q376.073 738.927 369.534 738.927 Q362.04 738.927 358.076 733.198 Q354.112 727.44 354.112 716.532 Q354.112 706.289 358.973 700.212 Q363.834 694.107 372.022 694.107 Q374.222 694.107 376.45 694.541 Q378.706 694.975 381.137 695.843 Z" fill="#000000" fill-rule="nonzero" fill-opacity="1" /><path clip-path="url(#clip940)" d="M369.129 542.632 Q364.962 542.632 362.561 544.86 Q360.188 547.088 360.188 550.995 Q360.188 554.901 362.561 557.129 Q364.962 559.357 369.129 559.357 Q373.296 559.357 375.697 557.129 Q378.099 554.872 378.099 550.995 Q378.099 547.088 375.697 544.86 Q373.325 542.632 369.129 542.632 M363.284 540.144 Q359.523 539.218 357.41 536.643 Q355.327 534.068 355.327 530.364 Q355.327 525.185 359.002 522.175 Q362.705 519.166 369.129 519.166 Q375.581 519.166 379.256 522.175 Q382.931 525.185 382.931 530.364 Q382.931 534.068 380.819 536.643 Q378.735 539.218 375.003 540.144 Q379.227 541.128 381.571 543.992 Q383.944 546.857 383.944 550.995 Q383.944 557.273 380.095 560.63 Q376.276 563.986 369.129 563.986 Q361.982 563.986 358.134 560.63 Q354.314 557.273 354.314 550.995 Q354.314 546.857 356.687 543.992 Q359.06 541.128 363.284 540.144 M361.143 530.914 Q361.143 534.27 363.226 536.151 Q365.338 538.032 369.129 538.032 Q372.891 538.032 375.003 536.151 Q377.144 534.27 377.144 530.914 Q377.144 527.557 375.003 525.676 Q372.891 523.796 369.129 523.796 Q365.338 523.796 363.226 525.676 Q361.143 527.557 361.143 530.914 Z" fill="#000000" fill-rule="nonzero" fill-opacity="1" /><path clip-path="url(#clip940)" d="M319.824 383.287 L329.372 383.287 L329.372 350.33 L318.985 352.414 L318.985 347.09 L329.314 345.006 L335.159 345.006 L335.159 383.287 L344.708 383.287 L344.708 388.206 L319.824 388.206 L319.824 383.287 Z" fill="#000000" fill-rule="nonzero" fill-opacity="1" /><path clip-path="url(#clip940)" d="M369.013 348.855 Q364.499 348.855 362.214 353.311 Q359.957 357.738 359.957 366.65 Q359.957 375.533 362.214 379.989 Q364.499 384.416 369.013 384.416 Q373.556 384.416 375.813 379.989 Q378.099 375.533 378.099 366.65 Q378.099 357.738 375.813 353.311 Q373.556 348.855 369.013 348.855 M369.013 344.225 Q376.276 344.225 380.095 349.983 Q383.944 355.712 383.944 366.65 Q383.944 377.558 380.095 383.316 Q376.276 389.045 369.013 389.045 Q361.751 389.045 357.902 383.316 Q354.083 377.558 354.083 366.65 Q354.083 355.712 357.902 349.983 Q361.751 344.225 369.013 344.225 Z" fill="#000000" fill-rule="nonzero" fill-opacity="1" /><path clip-path="url(#clip940)" d="M321.82 208.346 L331.369 208.346 L331.369 175.389 L320.981 177.473 L320.981 172.149 L331.311 170.065 L337.156 170.065 L337.156 208.346 L346.704 208.346 L346.704 213.265 L321.82 213.265 L321.82 208.346 Z" fill="#000000" fill-rule="nonzero" fill-opacity="1" /><path clip-path="url(#clip940)" d="M363.545 208.346 L383.944 208.346 L383.944 213.265 L356.513 213.265 L356.513 208.346 Q359.841 204.903 365.57 199.116 Q371.328 193.3 372.804 191.622 Q375.61 188.468 376.71 186.298 Q377.838 184.099 377.838 181.986 Q377.838 178.543 375.408 176.373 Q373.006 174.203 369.129 174.203 Q366.38 174.203 363.313 175.158 Q360.275 176.113 356.803 178.051 L356.803 172.149 Q360.333 170.731 363.4 170.007 Q366.467 169.284 369.013 169.284 Q375.726 169.284 379.719 172.64 Q383.712 175.997 383.712 181.61 Q383.712 184.272 382.7 186.674 Q381.716 189.047 379.083 192.287 Q378.359 193.126 374.482 197.148 Q370.605 201.141 363.545 208.346 Z" fill="#000000" fill-rule="nonzero" fill-opacity="1" /><path clip-path="url(#clip940)" d="M222.768 740.51 L229.038 740.51 Q227.288 744.17 226.428 747.416 Q225.569 750.663 225.569 753.687 Q225.569 758.938 227.606 761.803 Q229.643 764.636 233.399 764.636 Q236.55 764.636 238.173 762.758 Q239.765 760.848 240.751 755.564 L241.547 751.681 Q242.916 744.488 246.385 741.082 Q249.822 737.645 255.615 737.645 Q262.522 737.645 266.087 742.292 Q269.652 746.907 269.652 755.851 Q269.652 759.225 268.888 763.044 Q268.124 766.832 266.628 770.906 L260.008 770.906 Q262.204 766.991 263.318 763.235 Q264.432 759.479 264.432 755.851 Q264.432 750.345 262.267 747.353 Q260.103 744.361 256.093 744.361 Q252.592 744.361 250.618 746.525 Q248.645 748.658 247.658 753.559 L246.894 757.474 Q245.462 764.667 242.406 767.882 Q239.351 771.097 233.908 771.097 Q227.606 771.097 223.978 766.673 Q220.349 762.217 220.349 754.419 Q220.349 751.077 220.954 747.607 Q221.559 744.138 222.768 740.51 Z" fill="#000000" fill-rule="nonzero" fill-opacity="1" /><path clip-path="url(#clip940)" d="M222.959 722.081 L233.081 722.081 L233.081 710.018 L237.632 710.018 L237.632 722.081 L256.984 722.081 Q261.344 722.081 262.586 720.903 Q263.827 719.694 263.827 716.033 L263.827 710.018 L268.729 710.018 L268.729 716.033 Q268.729 722.813 266.214 725.391 Q263.668 727.969 256.984 727.969 L237.632 727.969 L237.632 732.266 L233.081 732.266 L233.081 727.969 L222.959 727.969 L222.959 722.081 Z" fill="#000000" fill-rule="nonzero" fill-opacity="1" /><path clip-path="url(#clip940)" d="M249.44 671.824 L252.305 671.824 L252.305 698.751 Q258.352 698.369 261.535 695.122 Q264.686 691.844 264.686 686.019 Q264.686 682.645 263.859 679.494 Q263.031 676.311 261.376 673.192 L266.914 673.192 Q268.251 676.343 268.951 679.653 Q269.652 682.964 269.652 686.369 Q269.652 694.899 264.686 699.896 Q259.721 704.862 251.255 704.862 Q242.502 704.862 237.377 700.151 Q232.221 695.409 232.221 687.388 Q232.221 680.194 236.868 676.025 Q241.483 671.824 249.44 671.824 M247.722 677.68 Q242.916 677.744 240.051 680.385 Q237.186 682.995 237.186 687.324 Q237.186 692.226 239.956 695.186 Q242.725 698.114 247.754 698.56 L247.722 677.68 Z" fill="#000000" fill-rule="nonzero" fill-opacity="1" /><path clip-path="url(#clip940)" d="M263.381 656.546 L282.288 656.546 L282.288 662.434 L233.081 662.434 L233.081 656.546 L238.491 656.546 Q235.309 654.7 233.781 651.899 Q232.221 649.066 232.221 645.151 Q232.221 638.658 237.377 634.616 Q242.534 630.542 250.936 630.542 Q259.339 630.542 264.495 634.616 Q269.652 638.658 269.652 645.151 Q269.652 649.066 268.124 651.899 Q266.564 654.7 263.381 656.546 M250.936 636.621 Q244.475 636.621 240.815 639.295 Q237.123 641.937 237.123 646.584 Q237.123 651.231 240.815 653.904 Q244.475 656.546 250.936 656.546 Q257.398 656.546 261.09 653.904 Q264.75 651.231 264.75 646.584 Q264.75 641.937 261.09 639.295 Q257.398 636.621 250.936 636.621 Z" fill="#000000" fill-rule="nonzero" fill-opacity="1" /><path clip-path="url(#clip940)" d="M234.131 598.109 L239.669 598.109 Q238.396 600.591 237.759 603.265 Q237.123 605.939 237.123 608.803 Q237.123 613.164 238.46 615.36 Q239.796 617.524 242.47 617.524 Q244.507 617.524 245.685 615.964 Q246.831 614.405 247.881 609.694 L248.326 607.689 Q249.663 601.451 252.114 598.841 Q254.533 596.199 258.894 596.199 Q263.859 596.199 266.755 600.146 Q269.652 604.061 269.652 610.936 Q269.652 613.8 269.079 616.919 Q268.538 620.007 267.424 623.444 L261.376 623.444 Q263.063 620.198 263.922 617.047 Q264.75 613.896 264.75 610.808 Q264.75 606.671 263.35 604.443 Q261.917 602.215 259.339 602.215 Q256.952 602.215 255.679 603.838 Q254.406 605.429 253.228 610.872 L252.751 612.909 Q251.605 618.352 249.25 620.771 Q246.862 623.19 242.725 623.19 Q237.696 623.19 234.958 619.625 Q232.221 616.06 232.221 609.503 Q232.221 606.257 232.699 603.392 Q233.176 600.528 234.131 598.109 Z" fill="#000000" fill-rule="nonzero" fill-opacity="1" /><path clip-path="url(#clip942)" d="M521.921 137.78 L521.921 1241.31 L611.117 1241.31 L611.117 137.78 L521.921 137.78 L521.921 137.78  Z" fill="#4682b4" fill-rule="evenodd" fill-opacity="0.7"/>
<polyline clip-path="url(#clip942)" style="stroke:#000000; stroke-linecap:round; stroke-linejoin:round; stroke-width:4; stroke-opacity:0.7; fill:none" points="521.921,137.78 521.921,1241.31 611.117,1241.31 611.117,137.78 521.921,137.78 "/>
<path clip-path="url(#clip942)" d="M633.415 1137.81 L633.415 1241.31 L722.611 1241.31 L722.611 1137.81 L633.415 1137.81 L633.415 1137.81  Z" fill="#4682b4" fill-rule="evenodd" fill-opacity="0.7"/>
<polyline clip-path="url(#clip942)" style="stroke:#000000; stroke-linecap:round; stroke-linejoin:round; stroke-width:4; stroke-opacity:0.7; fill:none" points="633.415,1137.81 633.415,1241.31 722.611,1241.31 722.611,1137.81 633.415,1137.81 "/>
<path clip-path="url(#clip942)" d="M744.91 1153.72 L744.91 1241.31 L834.105 1241.31 L834.105 1153.72 L744.91 1153.72 L744.91 1153.72  Z" fill="#4682b4" fill-rule="evenodd" fill-opacity="0.7"/>
<polyline clip-path="url(#clip942)" style="stroke:#000000; stroke-linecap:round; stroke-linejoin:round; stroke-width:4; stroke-opacity:0.7; fill:none" points="744.91,1153.72 744.91,1241.31 834.105,1241.31 834.105,1153.72 744.91,1153.72 "/>
<path clip-path="url(#clip942)" d="M856.404 1136.7 L856.404 1241.31 L945.6 1241.31 L945.6 1136.7 L856.404 1136.7 L856.404 1136.7  Z" fill="#4682b4" fill-rule="evenodd" fill-opacity="0.7"/>
<polyline clip-path="url(#clip942)" style="stroke:#000000; stroke-linecap:round; stroke-linejoin:round; stroke-width:4; stroke-opacity:0.7; fill:none" points="856.404,1136.7 856.404,1241.31 945.6,1241.31 945.6,1136.7 856.404,1136.7 "/>
<path clip-path="url(#clip942)" d="M967.899 1135.39 L967.899 1241.31 L1057.09 1241.31 L1057.09 1135.39 L967.899 1135.39 L967.899 1135.39  Z" fill="#4682b4" fill-rule="evenodd" fill-opacity="0.7"/>
<polyline clip-path="url(#clip942)" style="stroke:#000000; stroke-linecap:round; stroke-linejoin:round; stroke-width:4; stroke-opacity:0.7; fill:none" points="967.899,1135.39 967.899,1241.31 1057.09,1241.31 1057.09,1135.39 967.899,1135.39 "/>
<path clip-path="url(#clip942)" d="M1079.39 1141.92 L1079.39 1241.31 L1168.59 1241.31 L1168.59 1141.92 L1079.39 1141.92 L1079.39 1141.92  Z" fill="#4682b4" fill-rule="evenodd" fill-opacity="0.7"/>
<polyline clip-path="url(#clip942)" style="stroke:#000000; stroke-linecap:round; stroke-linejoin:round; stroke-width:4; stroke-opacity:0.7; fill:none" points="1079.39,1141.92 1079.39,1241.31 1168.59,1241.31 1168.59,1141.92 1079.39,1141.92 "/>
<path clip-path="url(#clip942)" d="M1190.89 1137.92 L1190.89 1241.31 L1280.08 1241.31 L1280.08 1137.92 L1190.89 1137.92 L1190.89 1137.92  Z" fill="#4682b4" fill-rule="evenodd" fill-opacity="0.7"/>
<polyline clip-path="url(#clip942)" style="stroke:#000000; stroke-linecap:round; stroke-linejoin:round; stroke-width:4; stroke-opacity:0.7; fill:none" points="1190.89,1137.92 1190.89,1241.31 1280.08,1241.31 1280.08,1137.92 1190.89,1137.92 "/>
<path clip-path="url(#clip942)" d="M1302.38 1136.63 L1302.38 1241.31 L1391.58 1241.31 L1391.58 1136.63 L1302.38 1136.63 L1302.38 1136.63  Z" fill="#4682b4" fill-rule="evenodd" fill-opacity="0.7"/>
<polyline clip-path="url(#clip942)" style="stroke:#000000; stroke-linecap:round; stroke-linejoin:round; stroke-width:4; stroke-opacity:0.7; fill:none" points="1302.38,1136.63 1302.38,1241.31 1391.58,1241.31 1391.58,1136.63 1302.38,1136.63 "/>
<path clip-path="url(#clip942)" d="M1413.88 1151.54 L1413.88 1241.31 L1503.07 1241.31 L1503.07 1151.54 L1413.88 1151.54 L1413.88 1151.54  Z" fill="#4682b4" fill-rule="evenodd" fill-opacity="0.7"/>
<polyline clip-path="url(#clip942)" style="stroke:#000000; stroke-linecap:round; stroke-linejoin:round; stroke-width:4; stroke-opacity:0.7; fill:none" points="1413.88,1151.54 1413.88,1241.31 1503.07,1241.31 1503.07,1151.54 1413.88,1151.54 "/>
<path clip-path="url(#clip942)" d="M1525.37 1141.62 L1525.37 1241.31 L1614.57 1241.31 L1614.57 1141.62 L1525.37 1141.62 L1525.37 1141.62  Z" fill="#4682b4" fill-rule="evenodd" fill-opacity="0.7"/>
<polyline clip-path="url(#clip942)" style="stroke:#000000; stroke-linecap:round; stroke-linejoin:round; stroke-width:4; stroke-opacity:0.7; fill:none" points="1525.37,1141.62 1525.37,1241.31 1614.57,1241.31 1614.57,1141.62 1525.37,1141.62 "/>
<path clip-path="url(#clip942)" d="M1636.87 1148.94 L1636.87 1241.31 L1726.06 1241.31 L1726.06 1148.94 L1636.87 1148.94 L1636.87 1148.94  Z" fill="#4682b4" fill-rule="evenodd" fill-opacity="0.7"/>
<polyline clip-path="url(#clip942)" style="stroke:#000000; stroke-linecap:round; stroke-linejoin:round; stroke-width:4; stroke-opacity:0.7; fill:none" points="1636.87,1148.94 1636.87,1241.31 1726.06,1241.31 1726.06,1148.94 1636.87,1148.94 "/>
<path clip-path="url(#clip942)" d="M1748.36 1142.53 L1748.36 1241.31 L1837.56 1241.31 L1837.56 1142.53 L1748.36 1142.53 L1748.36 1142.53  Z" fill="#4682b4" fill-rule="evenodd" fill-opacity="0.7"/>
<polyline clip-path="url(#clip942)" style="stroke:#000000; stroke-linecap:round; stroke-linejoin:round; stroke-width:4; stroke-opacity:0.7; fill:none" points="1748.36,1142.53 1748.36,1241.31 1837.56,1241.31 1837.56,1142.53 1748.36,1142.53 "/>
<path clip-path="url(#clip942)" d="M1859.85 1150.32 L1859.85 1241.31 L1949.05 1241.31 L1949.05 1150.32 L1859.85 1150.32 L1859.85 1150.32  Z" fill="#4682b4" fill-rule="evenodd" fill-opacity="0.7"/>
<polyline clip-path="url(#clip942)" style="stroke:#000000; stroke-linecap:round; stroke-linejoin:round; stroke-width:4; stroke-opacity:0.7; fill:none" points="1859.85,1150.32 1859.85,1241.31 1949.05,1241.31 1949.05,1150.32 1859.85,1150.32 "/>
<path clip-path="url(#clip942)" d="M1971.35 1140.76 L1971.35 1241.31 L2060.54 1241.31 L2060.54 1140.76 L1971.35 1140.76 L1971.35 1140.76  Z" fill="#4682b4" fill-rule="evenodd" fill-opacity="0.7"/>
<polyline clip-path="url(#clip942)" style="stroke:#000000; stroke-linecap:round; stroke-linejoin:round; stroke-width:4; stroke-opacity:0.7; fill:none" points="1971.35,1140.76 1971.35,1241.31 2060.54,1241.31 2060.54,1140.76 1971.35,1140.76 "/>
<path clip-path="url(#clip942)" d="M2082.84 125.984 L2082.84 1241.31 L2172.04 1241.31 L2172.04 125.984 L2082.84 125.984 L2082.84 125.984  Z" fill="#4682b4" fill-rule="evenodd" fill-opacity="0.7"/>
<polyline clip-path="url(#clip942)" style="stroke:#000000; stroke-linecap:round; stroke-linejoin:round; stroke-width:4; stroke-opacity:0.7; fill:none" points="2082.84,125.984 2082.84,1241.31 2172.04,1241.31 2172.04,125.984 2082.84,125.984 "/>
<circle clip-path="url(#clip942)" style="fill:#4682b4; stroke:none; fill-opacity:0" cx="566.519" cy="137.78" r="2"/>
<circle clip-path="url(#clip942)" style="fill:#4682b4; stroke:none; fill-opacity:0" cx="678.013" cy="1137.81" r="2"/>
<circle clip-path="url(#clip942)" style="fill:#4682b4; stroke:none; fill-opacity:0" cx="789.508" cy="1153.72" r="2"/>
<circle clip-path="url(#clip942)" style="fill:#4682b4; stroke:none; fill-opacity:0" cx="901.002" cy="1136.7" r="2"/>
<circle clip-path="url(#clip942)" style="fill:#4682b4; stroke:none; fill-opacity:0" cx="1012.5" cy="1135.39" r="2"/>
<circle clip-path="url(#clip942)" style="fill:#4682b4; stroke:none; fill-opacity:0" cx="1123.99" cy="1141.92" r="2"/>
<circle clip-path="url(#clip942)" style="fill:#4682b4; stroke:none; fill-opacity:0" cx="1235.49" cy="1137.92" r="2"/>
<circle clip-path="url(#clip942)" style="fill:#4682b4; stroke:none; fill-opacity:0" cx="1346.98" cy="1136.63" r="2"/>
<circle clip-path="url(#clip942)" style="fill:#4682b4; stroke:none; fill-opacity:0" cx="1458.47" cy="1151.54" r="2"/>
<circle clip-path="url(#clip942)" style="fill:#4682b4; stroke:none; fill-opacity:0" cx="1569.97" cy="1141.62" r="2"/>
<circle clip-path="url(#clip942)" style="fill:#4682b4; stroke:none; fill-opacity:0" cx="1681.46" cy="1148.94" r="2"/>
<circle clip-path="url(#clip942)" style="fill:#4682b4; stroke:none; fill-opacity:0" cx="1792.96" cy="1142.53" r="2"/>
<circle clip-path="url(#clip942)" style="fill:#4682b4; stroke:none; fill-opacity:0" cx="1904.45" cy="1150.32" r="2"/>
<circle clip-path="url(#clip942)" style="fill:#4682b4; stroke:none; fill-opacity:0" cx="2015.95" cy="1140.76" r="2"/>
<circle clip-path="url(#clip942)" style="fill:#4682b4; stroke:none; fill-opacity:0" cx="2127.44" cy="125.984" r="2"/>
</svg>
