<?xml version="1.0" encoding="utf-8"?>
<svg xmlns="http://www.w3.org/2000/svg" xmlns:xlink="http://www.w3.org/1999/xlink" width="600" height="400" viewBox="0 0 2400 1600">
<defs>
  <clipPath id="clip190">
    <rect x="0" y="0" width="2400" height="1600"/>
  </clipPath>
</defs>
<path clip-path="url(#clip190)" d="M0 1600 L2400 1600 L2400 8.88178e-14 L0 8.88178e-14  Z" fill="#ffffff" fill-rule="evenodd" fill-opacity="1"/>
<defs>
  <clipPath id="clip191">
    <rect x="170" y="640" width="2203" height="49"/>
  </clipPath>
</defs>
<path clip-path="url(#clip190)" d="M302.458 1423.18 L2352.76 1423.18 L2352.76 106.192 L302.458 106.192  Z" fill="#ffffff" fill-rule="evenodd" fill-opacity="1"/>
<defs>
  <clipPath id="clip192">
    <rect x="302" y="106" width="2051" height="1318"/>
  </clipPath>
</defs>
<polyline clip-path="url(#clip192)" style="stroke:#000000; stroke-linecap:round; stroke-linejoin:round; stroke-width:2; stroke-opacity:0.1; fill:none" points="327.702,1423.18 327.702,106.192 "/>
<polyline clip-path="url(#clip192)" style="stroke:#000000; stroke-linecap:round; stroke-linejoin:round; stroke-width:2; stroke-opacity:0.1; fill:none" points="655.54,1423.18 655.54,106.192 "/>
<polyline clip-path="url(#clip192)" style="stroke:#000000; stroke-linecap:round; stroke-linejoin:round; stroke-width:2; stroke-opacity:0.1; fill:none" points="983.377,1423.18 983.377,106.192 "/>
<polyline clip-path="url(#clip192)" style="stroke:#000000; stroke-linecap:round; stroke-linejoin:round; stroke-width:2; stroke-opacity:0.1; fill:none" points="1311.22,1423.18 1311.22,106.192 "/>
<polyline clip-path="url(#clip192)" style="stroke:#000000; stroke-linecap:round; stroke-linejoin:round; stroke-width:2; stroke-opacity:0.1; fill:none" points="1639.05,1423.18 1639.05,106.192 "/>
<polyline clip-path="url(#clip192)" style="stroke:#000000; stroke-linecap:round; stroke-linejoin:round; stroke-width:2; stroke-opacity:0.1; fill:none" points="1966.89,1423.18 1966.89,106.192 "/>
<polyline clip-path="url(#clip192)" style="stroke:#000000; stroke-linecap:round; stroke-linejoin:round; stroke-width:2; stroke-opacity:0.1; fill:none" points="2294.73,1423.18 2294.73,106.192 "/>
<polyline clip-path="url(#clip192)" style="stroke:#000000; stroke-linecap:round; stroke-linejoin:round; stroke-width:2; stroke-opacity:0.1; fill:none" points="302.458,1352.53 2352.76,1352.53 "/>
<polyline clip-path="url(#clip192)" style="stroke:#000000; stroke-linecap:round; stroke-linejoin:round; stroke-width:2; stroke-opacity:0.1; fill:none" points="302.458,1165.4 2352.76,1165.4 "/>
<polyline clip-path="url(#clip192)" style="stroke:#000000; stroke-linecap:round; stroke-linejoin:round; stroke-width:2; stroke-opacity:0.1; fill:none" points="302.458,978.278 2352.76,978.278 "/>
<polyline clip-path="url(#clip192)" style="stroke:#000000; stroke-linecap:round; stroke-linejoin:round; stroke-width:2; stroke-opacity:0.1; fill:none" points="302.458,791.154 2352.76,791.154 "/>
<polyline clip-path="url(#clip192)" style="stroke:#000000; stroke-linecap:round; stroke-linejoin:round; stroke-width:2; stroke-opacity:0.1; fill:none" points="302.458,604.029 2352.76,604.029 "/>
<polyline clip-path="url(#clip192)" style="stroke:#000000; stroke-linecap:round; stroke-linejoin:round; stroke-width:2; stroke-opacity:0.1; fill:none" points="302.458,416.905 2352.76,416.905 "/>
<polyline clip-path="url(#clip192)" style="stroke:#000000; stroke-linecap:round; stroke-linejoin:round; stroke-width:2; stroke-opacity:0.1; fill:none" points="302.458,229.781 2352.76,229.781 "/>
<polyline clip-path="url(#clip190)" style="stroke:#000000; stroke-linecap:round; stroke-linejoin:round; stroke-width:4; stroke-opacity:1; fill:none" points="302.458,1423.18 2352.76,1423.18 "/>
<polyline clip-path="url(#clip190)" style="stroke:#000000; stroke-linecap:round; stroke-linejoin:round; stroke-width:4; stroke-opacity:1; fill:none" points="327.702,1423.18 327.702,1404.28 "/>
<polyline clip-path="url(#clip190)" style="stroke:#000000; stroke-linecap:round; stroke-linejoin:round; stroke-width:4; stroke-opacity:1; fill:none" points="655.54,1423.18 655.54,1404.28 "/>
<polyline clip-path="url(#clip190)" style="stroke:#000000; stroke-linecap:round; stroke-linejoin:round; stroke-width:4; stroke-opacity:1; fill:none" points="983.377,1423.18 983.377,1404.28 "/>
<polyline clip-path="url(#clip190)" style="stroke:#000000; stroke-linecap:round; stroke-linejoin:round; stroke-width:4; stroke-opacity:1; fill:none" points="1311.22,1423.18 1311.22,1404.28 "/>
<polyline clip-path="url(#clip190)" style="stroke:#000000; stroke-linecap:round; stroke-linejoin:round; stroke-width:4; stroke-opacity:1; fill:none" points="1639.05,1423.18 1639.05,1404.28 "/>
<polyline clip-path="url(#clip190)" style="stroke:#000000; stroke-linecap:round; stroke-linejoin:round; stroke-width:4; stroke-opacity:1; fill:none" points="1966.89,1423.18 1966.89,1404.28 "/>
<polyline clip-path="url(#clip190)" style="stroke:#000000; stroke-linecap:round; stroke-linejoin:round; stroke-width:4; stroke-opacity:1; fill:none" points="2294.73,1423.18 2294.73,1404.28 "/>
<path clip-path="url(#clip190)" d="M327.702 1454.1 Q324.091 1454.1 322.262 1457.66 Q320.457 1461.2 320.457 1468.33 Q320.457 1475.44 322.262 1479.01 Q324.091 1482.55 327.702 1482.55 Q331.336 1482.55 333.142 1479.01 Q334.97 1475.44 334.97 1468.33 Q334.97 1461.2 333.142 1457.66 Q331.336 1454.1 327.702 1454.1 M327.702 1450.39 Q333.512 1450.39 336.568 1455 Q339.646 1459.58 339.646 1468.33 Q339.646 1477.06 336.568 1481.67 Q333.512 1486.25 327.702 1486.25 Q321.892 1486.25 318.813 1481.67 Q315.758 1477.06 315.758 1468.33 Q315.758 1459.58 318.813 1455 Q321.892 1450.39 327.702 1450.39 Z" fill="#000000" fill-rule="nonzero" fill-opacity="1" /><path clip-path="url(#clip190)" d="M630.227 1481.64 L637.866 1481.64 L637.866 1455.28 L629.556 1456.95 L629.556 1452.69 L637.82 1451.02 L642.496 1451.02 L642.496 1481.64 L650.135 1481.64 L650.135 1485.58 L630.227 1485.58 L630.227 1481.64 Z" fill="#000000" fill-rule="nonzero" fill-opacity="1" /><path clip-path="url(#clip190)" d="M669.579 1454.1 Q665.968 1454.1 664.139 1457.66 Q662.334 1461.2 662.334 1468.33 Q662.334 1475.44 664.139 1479.01 Q665.968 1482.55 669.579 1482.55 Q673.213 1482.55 675.019 1479.01 Q676.847 1475.44 676.847 1468.33 Q676.847 1461.2 675.019 1457.66 Q673.213 1454.1 669.579 1454.1 M669.579 1450.39 Q675.389 1450.39 678.445 1455 Q681.523 1459.58 681.523 1468.33 Q681.523 1477.06 678.445 1481.67 Q675.389 1486.25 669.579 1486.25 Q663.769 1486.25 660.69 1481.67 Q657.635 1477.06 657.635 1468.33 Q657.635 1459.58 660.69 1455 Q663.769 1450.39 669.579 1450.39 Z" fill="#000000" fill-rule="nonzero" fill-opacity="1" /><path clip-path="url(#clip190)" d="M962.151 1481.64 L978.47 1481.64 L978.47 1485.58 L956.526 1485.58 L956.526 1481.64 Q959.188 1478.89 963.771 1474.26 Q968.378 1469.61 969.558 1468.27 Q971.803 1465.74 972.683 1464.01 Q973.586 1462.25 973.586 1460.56 Q973.586 1457.8 971.641 1456.07 Q969.72 1454.33 966.618 1454.33 Q964.419 1454.33 961.966 1455.09 Q959.535 1455.86 956.757 1457.41 L956.757 1452.69 Q959.581 1451.55 962.035 1450.97 Q964.489 1450.39 966.526 1450.39 Q971.896 1450.39 975.09 1453.08 Q978.285 1455.77 978.285 1460.26 Q978.285 1462.39 977.475 1464.31 Q976.688 1466.2 974.581 1468.8 Q974.003 1469.47 970.901 1472.69 Q967.799 1475.88 962.151 1481.64 Z" fill="#000000" fill-rule="nonzero" fill-opacity="1" /><path clip-path="url(#clip190)" d="M998.285 1454.1 Q994.674 1454.1 992.845 1457.66 Q991.039 1461.2 991.039 1468.33 Q991.039 1475.44 992.845 1479.01 Q994.674 1482.55 998.285 1482.55 Q1001.92 1482.55 1003.72 1479.01 Q1005.55 1475.44 1005.55 1468.33 Q1005.55 1461.2 1003.72 1457.66 Q1001.92 1454.1 998.285 1454.1 M998.285 1450.39 Q1004.09 1450.39 1007.15 1455 Q1010.23 1459.58 1010.23 1468.33 Q1010.23 1477.06 1007.15 1481.67 Q1004.09 1486.25 998.285 1486.25 Q992.475 1486.25 989.396 1481.67 Q986.34 1477.06 986.34 1468.33 Q986.34 1459.58 989.396 1455 Q992.475 1450.39 998.285 1450.39 Z" fill="#000000" fill-rule="nonzero" fill-opacity="1" /><path clip-path="url(#clip190)" d="M1300.06 1466.95 Q1303.41 1467.66 1305.29 1469.93 Q1307.19 1472.2 1307.19 1475.53 Q1307.19 1480.65 1303.67 1483.45 Q1300.15 1486.25 1293.67 1486.25 Q1291.49 1486.25 1289.18 1485.81 Q1286.89 1485.39 1284.43 1484.54 L1284.43 1480.02 Q1286.38 1481.16 1288.69 1481.74 Q1291.01 1482.32 1293.53 1482.32 Q1297.93 1482.32 1300.22 1480.58 Q1302.53 1478.84 1302.53 1475.53 Q1302.53 1472.48 1300.38 1470.77 Q1298.25 1469.03 1294.43 1469.03 L1290.41 1469.03 L1290.41 1465.19 L1294.62 1465.19 Q1298.07 1465.19 1299.9 1463.82 Q1301.72 1462.43 1301.72 1459.84 Q1301.72 1457.18 1299.83 1455.77 Q1297.95 1454.33 1294.43 1454.33 Q1292.51 1454.33 1290.31 1454.75 Q1288.11 1455.16 1285.47 1456.04 L1285.47 1451.88 Q1288.14 1451.14 1290.45 1450.77 Q1292.79 1450.39 1294.85 1450.39 Q1300.17 1450.39 1303.28 1452.83 Q1306.38 1455.23 1306.38 1459.35 Q1306.38 1462.22 1304.73 1464.21 Q1303.09 1466.18 1300.06 1466.95 Z" fill="#000000" fill-rule="nonzero" fill-opacity="1" /><path clip-path="url(#clip190)" d="M1326.05 1454.1 Q1322.44 1454.1 1320.61 1457.66 Q1318.81 1461.2 1318.81 1468.33 Q1318.81 1475.44 1320.61 1479.01 Q1322.44 1482.55 1326.05 1482.55 Q1329.69 1482.55 1331.49 1479.01 Q1333.32 1475.44 1333.32 1468.33 Q1333.32 1461.2 1331.49 1457.66 Q1329.69 1454.1 1326.05 1454.1 M1326.05 1450.39 Q1331.86 1450.39 1334.92 1455 Q1338 1459.58 1338 1468.33 Q1338 1477.06 1334.92 1481.67 Q1331.86 1486.25 1326.05 1486.25 Q1320.24 1486.25 1317.16 1481.67 Q1314.11 1477.06 1314.11 1468.33 Q1314.11 1459.58 1317.16 1455 Q1320.24 1450.39 1326.05 1450.39 Z" fill="#000000" fill-rule="nonzero" fill-opacity="1" /><path clip-path="url(#clip190)" d="M1627.22 1455.09 L1615.42 1473.54 L1627.22 1473.54 L1627.22 1455.09 M1626 1451.02 L1631.88 1451.02 L1631.88 1473.54 L1636.81 1473.54 L1636.81 1477.43 L1631.88 1477.43 L1631.88 1485.58 L1627.22 1485.58 L1627.22 1477.43 L1611.62 1477.43 L1611.62 1472.92 L1626 1451.02 Z" fill="#000000" fill-rule="nonzero" fill-opacity="1" /><path clip-path="url(#clip190)" d="M1654.54 1454.1 Q1650.93 1454.1 1649.1 1457.66 Q1647.29 1461.2 1647.29 1468.33 Q1647.29 1475.44 1649.1 1479.01 Q1650.93 1482.55 1654.54 1482.55 Q1658.17 1482.55 1659.98 1479.01 Q1661.81 1475.44 1661.81 1468.33 Q1661.81 1461.2 1659.98 1457.66 Q1658.17 1454.1 1654.54 1454.1 M1654.54 1450.39 Q1660.35 1450.39 1663.4 1455 Q1666.48 1459.58 1666.48 1468.33 Q1666.48 1477.06 1663.4 1481.67 Q1660.35 1486.25 1654.54 1486.25 Q1648.73 1486.25 1645.65 1481.67 Q1642.59 1477.06 1642.59 1468.33 Q1642.59 1459.58 1645.65 1455 Q1648.73 1450.39 1654.54 1450.39 Z" fill="#000000" fill-rule="nonzero" fill-opacity="1" /><path clip-path="url(#clip190)" d="M1941.59 1451.02 L1959.95 1451.02 L1959.95 1454.96 L1945.87 1454.96 L1945.87 1463.43 Q1946.89 1463.08 1947.91 1462.92 Q1948.93 1462.73 1949.95 1462.73 Q1955.73 1462.73 1959.11 1465.9 Q1962.49 1469.08 1962.49 1474.49 Q1962.49 1480.07 1959.02 1483.17 Q1955.55 1486.25 1949.23 1486.25 Q1947.05 1486.25 1944.78 1485.88 Q1942.54 1485.51 1940.13 1484.77 L1940.13 1480.07 Q1942.22 1481.2 1944.44 1481.76 Q1946.66 1482.32 1949.14 1482.32 Q1953.14 1482.32 1955.48 1480.21 Q1957.82 1478.1 1957.82 1474.49 Q1957.82 1470.88 1955.48 1468.77 Q1953.14 1466.67 1949.14 1466.67 Q1947.26 1466.67 1945.39 1467.08 Q1943.53 1467.5 1941.59 1468.38 L1941.59 1451.02 Z" fill="#000000" fill-rule="nonzero" fill-opacity="1" /><path clip-path="url(#clip190)" d="M1981.71 1454.1 Q1978.09 1454.1 1976.27 1457.66 Q1974.46 1461.2 1974.46 1468.33 Q1974.46 1475.44 1976.27 1479.01 Q1978.09 1482.55 1981.71 1482.55 Q1985.34 1482.55 1987.15 1479.01 Q1988.97 1475.44 1988.97 1468.33 Q1988.97 1461.2 1987.15 1457.66 Q1985.34 1454.1 1981.71 1454.1 M1981.71 1450.39 Q1987.52 1450.39 1990.57 1455 Q1993.65 1459.58 1993.65 1468.33 Q1993.65 1477.06 1990.57 1481.67 Q1987.52 1486.25 1981.71 1486.25 Q1975.9 1486.25 1972.82 1481.67 Q1969.76 1477.06 1969.76 1468.33 Q1969.76 1459.58 1972.82 1455 Q1975.9 1450.39 1981.71 1450.39 Z" fill="#000000" fill-rule="nonzero" fill-opacity="1" /><path clip-path="url(#clip190)" d="M2280.13 1466.44 Q2276.99 1466.44 2275.13 1468.59 Q2273.31 1470.74 2273.31 1474.49 Q2273.31 1478.22 2275.13 1480.39 Q2276.99 1482.55 2280.13 1482.55 Q2283.28 1482.55 2285.11 1480.39 Q2286.96 1478.22 2286.96 1474.49 Q2286.96 1470.74 2285.11 1468.59 Q2283.28 1466.44 2280.13 1466.44 M2289.42 1451.78 L2289.42 1456.04 Q2287.66 1455.21 2285.85 1454.77 Q2284.07 1454.33 2282.31 1454.33 Q2277.68 1454.33 2275.23 1457.45 Q2272.8 1460.58 2272.45 1466.9 Q2273.81 1464.89 2275.87 1463.82 Q2277.93 1462.73 2280.41 1462.73 Q2285.62 1462.73 2288.63 1465.9 Q2291.66 1469.05 2291.66 1474.49 Q2291.66 1479.82 2288.51 1483.03 Q2285.37 1486.25 2280.13 1486.25 Q2274.14 1486.25 2270.97 1481.67 Q2267.8 1477.06 2267.8 1468.33 Q2267.8 1460.14 2271.68 1455.28 Q2275.57 1450.39 2282.12 1450.39 Q2283.88 1450.39 2285.67 1450.74 Q2287.47 1451.09 2289.42 1451.78 Z" fill="#000000" fill-rule="nonzero" fill-opacity="1" /><path clip-path="url(#clip190)" d="M2309.72 1454.1 Q2306.11 1454.1 2304.28 1457.66 Q2302.47 1461.2 2302.47 1468.33 Q2302.47 1475.44 2304.28 1479.01 Q2306.11 1482.55 2309.72 1482.55 Q2313.35 1482.55 2315.16 1479.01 Q2316.99 1475.44 2316.99 1468.33 Q2316.99 1461.2 2315.16 1457.66 Q2313.35 1454.1 2309.72 1454.1 M2309.72 1450.39 Q2315.53 1450.39 2318.58 1455 Q2321.66 1459.58 2321.66 1468.33 Q2321.66 1477.06 2318.58 1481.67 Q2315.53 1486.25 2309.72 1486.25 Q2303.91 1486.25 2300.83 1481.67 Q2297.77 1477.06 2297.77 1468.33 Q2297.77 1459.58 2300.83 1455 Q2303.91 1450.39 2309.72 1450.39 Z" fill="#000000" fill-rule="nonzero" fill-opacity="1" /><path clip-path="url(#clip190)" d="M1195.33 1520.52 L1201.76 1520.52 L1201.76 1568.04 L1195.33 1568.04 L1195.33 1520.52 Z" fill="#000000" fill-rule="nonzero" fill-opacity="1" /><path clip-path="url(#clip190)" d="M1220.09 1522.27 L1220.09 1532.4 L1232.15 1532.4 L1232.15 1536.95 L1220.09 1536.95 L1220.09 1556.3 Q1220.09 1560.66 1221.27 1561.9 Q1222.48 1563.14 1226.14 1563.14 L1232.15 1563.14 L1232.15 1568.04 L1226.14 1568.04 Q1219.36 1568.04 1216.78 1565.53 Q1214.2 1562.98 1214.2 1556.3 L1214.2 1536.95 L1209.91 1536.95 L1209.91 1532.4 L1214.2 1532.4 L1214.2 1522.27 L1220.09 1522.27 Z" fill="#000000" fill-rule="nonzero" fill-opacity="1" /><path clip-path="url(#clip190)" d="M1270.35 1548.76 L1270.35 1551.62 L1243.42 1551.62 Q1243.8 1557.67 1247.05 1560.85 Q1250.33 1564 1256.15 1564 Q1259.53 1564 1262.68 1563.17 Q1265.86 1562.35 1268.98 1560.69 L1268.98 1566.23 Q1265.83 1567.57 1262.52 1568.27 Q1259.21 1568.97 1255.8 1568.97 Q1247.27 1568.97 1242.27 1564 Q1237.31 1559.04 1237.31 1550.57 Q1237.31 1541.82 1242.02 1536.69 Q1246.76 1531.54 1254.78 1531.54 Q1261.98 1531.54 1266.15 1536.18 Q1270.35 1540.8 1270.35 1548.76 M1264.49 1547.04 Q1264.43 1542.23 1261.79 1539.37 Q1259.18 1536.5 1254.85 1536.5 Q1249.95 1536.5 1246.99 1539.27 Q1244.06 1542.04 1243.61 1547.07 L1264.49 1547.04 Z" fill="#000000" fill-rule="nonzero" fill-opacity="1" /><path clip-path="url(#clip190)" d="M1300.62 1537.87 Q1299.63 1537.3 1298.45 1537.04 Q1297.31 1536.76 1295.91 1536.76 Q1290.94 1536.76 1288.27 1540 Q1285.63 1543.22 1285.63 1549.27 L1285.63 1568.04 L1279.74 1568.04 L1279.74 1532.4 L1285.63 1532.4 L1285.63 1537.93 Q1287.47 1534.69 1290.43 1533.13 Q1293.39 1531.54 1297.62 1531.54 Q1298.23 1531.54 1298.96 1531.63 Q1299.69 1531.7 1300.58 1531.85 L1300.62 1537.87 Z" fill="#000000" fill-rule="nonzero" fill-opacity="1" /><path clip-path="url(#clip190)" d="M1322.96 1550.12 Q1315.86 1550.12 1313.13 1551.75 Q1310.39 1553.37 1310.39 1557.29 Q1310.39 1560.4 1312.42 1562.25 Q1314.49 1564.07 1318.03 1564.07 Q1322.9 1564.07 1325.82 1560.63 Q1328.78 1557.16 1328.78 1551.43 L1328.78 1550.12 L1322.96 1550.12 M1334.64 1547.71 L1334.64 1568.04 L1328.78 1568.04 L1328.78 1562.63 Q1326.78 1565.88 1323.79 1567.44 Q1320.8 1568.97 1316.47 1568.97 Q1310.99 1568.97 1307.75 1565.91 Q1304.53 1562.82 1304.53 1557.67 Q1304.53 1551.65 1308.54 1548.6 Q1312.58 1545.54 1320.57 1545.54 L1328.78 1545.54 L1328.78 1544.97 Q1328.78 1540.93 1326.11 1538.73 Q1323.47 1536.5 1318.66 1536.5 Q1315.61 1536.5 1312.71 1537.23 Q1309.82 1537.97 1307.14 1539.43 L1307.14 1534.02 Q1310.36 1532.78 1313.38 1532.17 Q1316.4 1531.54 1319.27 1531.54 Q1327 1531.54 1330.82 1535.55 Q1334.64 1539.56 1334.64 1547.71 Z" fill="#000000" fill-rule="nonzero" fill-opacity="1" /><path clip-path="url(#clip190)" d="M1352.5 1522.27 L1352.5 1532.4 L1364.56 1532.4 L1364.56 1536.95 L1352.5 1536.95 L1352.5 1556.3 Q1352.5 1560.66 1353.67 1561.9 Q1354.88 1563.14 1358.54 1563.14 L1364.56 1563.14 L1364.56 1568.04 L1358.54 1568.04 Q1351.77 1568.04 1349.19 1565.53 Q1346.61 1562.98 1346.61 1556.3 L1346.61 1536.95 L1342.31 1536.95 L1342.31 1532.4 L1346.61 1532.4 L1346.61 1522.27 L1352.5 1522.27 Z" fill="#000000" fill-rule="nonzero" fill-opacity="1" /><path clip-path="url(#clip190)" d="M1372.26 1532.4 L1378.12 1532.4 L1378.12 1568.04 L1372.26 1568.04 L1372.26 1532.4 M1372.26 1518.52 L1378.12 1518.52 L1378.12 1525.93 L1372.26 1525.93 L1372.26 1518.52 Z" fill="#000000" fill-rule="nonzero" fill-opacity="1" /><path clip-path="url(#clip190)" d="M1404.19 1536.5 Q1399.48 1536.5 1396.74 1540.19 Q1394 1543.85 1394 1550.25 Q1394 1556.65 1396.71 1560.34 Q1399.44 1564 1404.19 1564 Q1408.87 1564 1411.6 1560.31 Q1414.34 1556.62 1414.34 1550.25 Q1414.34 1543.92 1411.6 1540.23 Q1408.87 1536.5 1404.19 1536.5 M1404.19 1531.54 Q1411.83 1531.54 1416.19 1536.5 Q1420.55 1541.47 1420.55 1550.25 Q1420.55 1559 1416.19 1564 Q1411.83 1568.97 1404.19 1568.97 Q1396.52 1568.97 1392.16 1564 Q1387.83 1559 1387.83 1550.25 Q1387.83 1541.47 1392.16 1536.5 Q1396.52 1531.54 1404.19 1531.54 Z" fill="#000000" fill-rule="nonzero" fill-opacity="1" /><path clip-path="url(#clip190)" d="M1459.89 1546.53 L1459.89 1568.04 L1454.03 1568.04 L1454.03 1546.72 Q1454.03 1541.66 1452.06 1539.14 Q1450.08 1536.63 1446.14 1536.63 Q1441.39 1536.63 1438.66 1539.65 Q1435.92 1542.68 1435.92 1547.9 L1435.92 1568.04 L1430.03 1568.04 L1430.03 1532.4 L1435.92 1532.4 L1435.92 1537.93 Q1438.02 1534.72 1440.85 1533.13 Q1443.72 1531.54 1447.44 1531.54 Q1453.58 1531.54 1456.74 1535.36 Q1459.89 1539.14 1459.89 1546.53 Z" fill="#000000" fill-rule="nonzero" fill-opacity="1" /><polyline clip-path="url(#clip190)" style="stroke:#000000; stroke-linecap:round; stroke-linejoin:round; stroke-width:4; stroke-opacity:1; fill:none" points="302.458,1423.18 302.458,106.192 "/>
<polyline clip-path="url(#clip190)" style="stroke:#000000; stroke-linecap:round; stroke-linejoin:round; stroke-width:4; stroke-opacity:1; fill:none" points="302.458,1352.53 321.356,1352.53 "/>
<polyline clip-path="url(#clip190)" style="stroke:#000000; stroke-linecap:round; stroke-linejoin:round; stroke-width:4; stroke-opacity:1; fill:none" points="302.458,1165.4 321.356,1165.4 "/>
<polyline clip-path="url(#clip190)" style="stroke:#000000; stroke-linecap:round; stroke-linejoin:round; stroke-width:4; stroke-opacity:1; fill:none" points="302.458,978.278 321.356,978.278 "/>
<polyline clip-path="url(#clip190)" style="stroke:#000000; stroke-linecap:round; stroke-linejoin:round; stroke-width:4; stroke-opacity:1; fill:none" points="302.458,791.154 321.356,791.154 "/>
<polyline clip-path="url(#clip190)" style="stroke:#000000; stroke-linecap:round; stroke-linejoin:round; stroke-width:4; stroke-opacity:1; fill:none" points="302.458,604.029 321.356,604.029 "/>
<polyline clip-path="url(#clip190)" style="stroke:#000000; stroke-linecap:round; stroke-linejoin:round; stroke-width:4; stroke-opacity:1; fill:none" points="302.458,416.905 321.356,416.905 "/>
<polyline clip-path="url(#clip190)" style="stroke:#000000; stroke-linecap:round; stroke-linejoin:round; stroke-width:4; stroke-opacity:1; fill:none" points="302.458,229.781 321.356,229.781 "/>
<path clip-path="url(#clip190)" d="M114.26 1352.98 L143.936 1352.98 L143.936 1356.91 L114.26 1356.91 L114.26 1352.98 Z" fill="#000000" fill-rule="nonzero" fill-opacity="1" /><path clip-path="url(#clip190)" d="M154.075 1335.25 L172.431 1335.25 L172.431 1339.18 L158.357 1339.18 L158.357 1347.65 Q159.376 1347.31 160.394 1347.14 Q161.413 1346.96 162.431 1346.96 Q168.218 1346.96 171.598 1350.13 Q174.977 1353.3 174.977 1358.72 Q174.977 1364.3 171.505 1367.4 Q168.033 1370.48 161.714 1370.48 Q159.538 1370.48 157.269 1370.11 Q155.024 1369.74 152.616 1369 L152.616 1364.3 Q154.7 1365.43 156.922 1365.99 Q159.144 1366.54 161.621 1366.54 Q165.626 1366.54 167.964 1364.44 Q170.302 1362.33 170.302 1358.72 Q170.302 1355.11 167.964 1353 Q165.626 1350.89 161.621 1350.89 Q159.746 1350.89 157.871 1351.31 Q156.019 1351.73 154.075 1352.61 L154.075 1335.25 Z" fill="#000000" fill-rule="nonzero" fill-opacity="1" /><path clip-path="url(#clip190)" d="M184.329 1369.09 L184.329 1364.83 Q186.088 1365.66 187.894 1366.1 Q189.7 1366.54 191.436 1366.54 Q196.065 1366.54 198.496 1363.44 Q200.95 1360.32 201.297 1353.97 Q199.954 1355.96 197.894 1357.03 Q195.834 1358.09 193.334 1358.09 Q188.149 1358.09 185.116 1354.97 Q182.107 1351.82 182.107 1346.38 Q182.107 1341.06 185.255 1337.84 Q188.403 1334.62 193.635 1334.62 Q199.63 1334.62 202.778 1339.23 Q205.949 1343.81 205.949 1352.56 Q205.949 1360.73 202.061 1365.62 Q198.195 1370.48 191.644 1370.48 Q189.885 1370.48 188.079 1370.13 Q186.274 1369.78 184.329 1369.09 M193.635 1354.44 Q196.783 1354.44 198.612 1352.28 Q200.463 1350.13 200.463 1346.38 Q200.463 1342.65 198.612 1340.5 Q196.783 1338.33 193.635 1338.33 Q190.487 1338.33 188.635 1340.5 Q186.806 1342.65 186.806 1346.38 Q186.806 1350.13 188.635 1352.28 Q190.487 1354.44 193.635 1354.44 Z" fill="#000000" fill-rule="nonzero" fill-opacity="1" /><path clip-path="url(#clip190)" d="M224.352 1338.33 Q220.741 1338.33 218.912 1341.89 Q217.107 1345.43 217.107 1352.56 Q217.107 1359.67 218.912 1363.23 Q220.741 1366.77 224.352 1366.77 Q227.986 1366.77 229.792 1363.23 Q231.621 1359.67 231.621 1352.56 Q231.621 1345.43 229.792 1341.89 Q227.986 1338.33 224.352 1338.33 M224.352 1334.62 Q230.162 1334.62 233.218 1339.23 Q236.297 1343.81 236.297 1352.56 Q236.297 1361.29 233.218 1365.89 Q230.162 1370.48 224.352 1370.48 Q218.542 1370.48 215.463 1365.89 Q212.408 1361.29 212.408 1352.56 Q212.408 1343.81 215.463 1339.23 Q218.542 1334.62 224.352 1334.62 Z" fill="#000000" fill-rule="nonzero" fill-opacity="1" /><path clip-path="url(#clip190)" d="M254.514 1338.33 Q250.903 1338.33 249.074 1341.89 Q247.269 1345.43 247.269 1352.56 Q247.269 1359.67 249.074 1363.23 Q250.903 1366.77 254.514 1366.77 Q258.148 1366.77 259.954 1363.23 Q261.783 1359.67 261.783 1352.56 Q261.783 1345.43 259.954 1341.89 Q258.148 1338.33 254.514 1338.33 M254.514 1334.62 Q260.324 1334.62 263.38 1339.23 Q266.458 1343.81 266.458 1352.56 Q266.458 1361.29 263.38 1365.89 Q260.324 1370.48 254.514 1370.48 Q248.704 1370.48 245.625 1365.89 Q242.57 1361.29 242.57 1352.56 Q242.57 1343.81 245.625 1339.23 Q248.704 1334.62 254.514 1334.62 Z" fill="#000000" fill-rule="nonzero" fill-opacity="1" /><path clip-path="url(#clip190)" d="M114.26 1165.85 L143.936 1165.85 L143.936 1169.79 L114.26 1169.79 L114.26 1165.85 Z" fill="#000000" fill-rule="nonzero" fill-opacity="1" /><path clip-path="url(#clip190)" d="M154.075 1148.12 L172.431 1148.12 L172.431 1152.06 L158.357 1152.06 L158.357 1160.53 Q159.376 1160.18 160.394 1160.02 Q161.413 1159.84 162.431 1159.84 Q168.218 1159.84 171.598 1163.01 Q174.977 1166.18 174.977 1171.59 Q174.977 1177.17 171.505 1180.27 Q168.033 1183.35 161.714 1183.35 Q159.538 1183.35 157.269 1182.98 Q155.024 1182.61 152.616 1181.87 L152.616 1177.17 Q154.7 1178.31 156.922 1178.86 Q159.144 1179.42 161.621 1179.42 Q165.626 1179.42 167.964 1177.31 Q170.302 1175.21 170.302 1171.59 Q170.302 1167.98 167.964 1165.88 Q165.626 1163.77 161.621 1163.77 Q159.746 1163.77 157.871 1164.19 Q156.019 1164.6 154.075 1165.48 L154.075 1148.12 Z" fill="#000000" fill-rule="nonzero" fill-opacity="1" /><path clip-path="url(#clip190)" d="M194.19 1166.27 Q190.857 1166.27 188.936 1168.05 Q187.038 1169.84 187.038 1172.96 Q187.038 1176.09 188.936 1177.87 Q190.857 1179.65 194.19 1179.65 Q197.524 1179.65 199.445 1177.87 Q201.366 1176.06 201.366 1172.96 Q201.366 1169.84 199.445 1168.05 Q197.547 1166.27 194.19 1166.27 M189.514 1164.28 Q186.505 1163.54 184.815 1161.48 Q183.149 1159.42 183.149 1156.46 Q183.149 1152.31 186.088 1149.9 Q189.051 1147.5 194.19 1147.5 Q199.352 1147.5 202.292 1149.9 Q205.232 1152.31 205.232 1156.46 Q205.232 1159.42 203.542 1161.48 Q201.875 1163.54 198.889 1164.28 Q202.269 1165.07 204.144 1167.36 Q206.042 1169.65 206.042 1172.96 Q206.042 1177.98 202.963 1180.67 Q199.908 1183.35 194.19 1183.35 Q188.473 1183.35 185.394 1180.67 Q182.338 1177.98 182.338 1172.96 Q182.338 1169.65 184.237 1167.36 Q186.135 1165.07 189.514 1164.28 M187.801 1156.9 Q187.801 1159.58 189.468 1161.09 Q191.158 1162.59 194.19 1162.59 Q197.2 1162.59 198.889 1161.09 Q200.602 1159.58 200.602 1156.9 Q200.602 1154.21 198.889 1152.71 Q197.2 1151.2 194.19 1151.2 Q191.158 1151.2 189.468 1152.71 Q187.801 1154.21 187.801 1156.9 Z" fill="#000000" fill-rule="nonzero" fill-opacity="1" /><path clip-path="url(#clip190)" d="M224.352 1151.2 Q220.741 1151.2 218.912 1154.77 Q217.107 1158.31 217.107 1165.44 Q217.107 1172.54 218.912 1176.11 Q220.741 1179.65 224.352 1179.65 Q227.986 1179.65 229.792 1176.11 Q231.621 1172.54 231.621 1165.44 Q231.621 1158.31 229.792 1154.77 Q227.986 1151.2 224.352 1151.2 M224.352 1147.5 Q230.162 1147.5 233.218 1152.1 Q236.297 1156.69 236.297 1165.44 Q236.297 1174.16 233.218 1178.77 Q230.162 1183.35 224.352 1183.35 Q218.542 1183.35 215.463 1178.77 Q212.408 1174.16 212.408 1165.44 Q212.408 1156.69 215.463 1152.1 Q218.542 1147.5 224.352 1147.5 Z" fill="#000000" fill-rule="nonzero" fill-opacity="1" /><path clip-path="url(#clip190)" d="M254.514 1151.2 Q250.903 1151.2 249.074 1154.77 Q247.269 1158.31 247.269 1165.44 Q247.269 1172.54 249.074 1176.11 Q250.903 1179.65 254.514 1179.65 Q258.148 1179.65 259.954 1176.11 Q261.783 1172.54 261.783 1165.44 Q261.783 1158.31 259.954 1154.77 Q258.148 1151.2 254.514 1151.2 M254.514 1147.5 Q260.324 1147.5 263.38 1152.1 Q266.458 1156.69 266.458 1165.44 Q266.458 1174.16 263.38 1178.77 Q260.324 1183.35 254.514 1183.35 Q248.704 1183.35 245.625 1178.77 Q242.57 1174.16 242.57 1165.44 Q242.57 1156.69 245.625 1152.1 Q248.704 1147.5 254.514 1147.5 Z" fill="#000000" fill-rule="nonzero" fill-opacity="1" /><path clip-path="url(#clip190)" d="M114.26 978.729 L143.936 978.729 L143.936 982.665 L114.26 982.665 L114.26 978.729 Z" fill="#000000" fill-rule="nonzero" fill-opacity="1" /><path clip-path="url(#clip190)" d="M154.075 960.998 L172.431 960.998 L172.431 964.933 L158.357 964.933 L158.357 973.405 Q159.376 973.058 160.394 972.896 Q161.413 972.711 162.431 972.711 Q168.218 972.711 171.598 975.882 Q174.977 979.054 174.977 984.47 Q174.977 990.049 171.505 993.151 Q168.033 996.229 161.714 996.229 Q159.538 996.229 157.269 995.859 Q155.024 995.489 152.616 994.748 L152.616 990.049 Q154.7 991.183 156.922 991.739 Q159.144 992.294 161.621 992.294 Q165.626 992.294 167.964 990.188 Q170.302 988.081 170.302 984.47 Q170.302 980.859 167.964 978.753 Q165.626 976.646 161.621 976.646 Q159.746 976.646 157.871 977.063 Q156.019 977.479 154.075 978.359 L154.075 960.998 Z" fill="#000000" fill-rule="nonzero" fill-opacity="1" /><path clip-path="url(#clip190)" d="M183.01 960.998 L205.232 960.998 L205.232 962.989 L192.686 995.558 L187.801 995.558 L199.607 964.933 L183.01 964.933 L183.01 960.998 Z" fill="#000000" fill-rule="nonzero" fill-opacity="1" /><path clip-path="url(#clip190)" d="M224.352 964.077 Q220.741 964.077 218.912 967.642 Q217.107 971.183 217.107 978.313 Q217.107 985.419 218.912 988.984 Q220.741 992.526 224.352 992.526 Q227.986 992.526 229.792 988.984 Q231.621 985.419 231.621 978.313 Q231.621 971.183 229.792 967.642 Q227.986 964.077 224.352 964.077 M224.352 960.373 Q230.162 960.373 233.218 964.98 Q236.297 969.563 236.297 978.313 Q236.297 987.04 233.218 991.646 Q230.162 996.229 224.352 996.229 Q218.542 996.229 215.463 991.646 Q212.408 987.04 212.408 978.313 Q212.408 969.563 215.463 964.98 Q218.542 960.373 224.352 960.373 Z" fill="#000000" fill-rule="nonzero" fill-opacity="1" /><path clip-path="url(#clip190)" d="M254.514 964.077 Q250.903 964.077 249.074 967.642 Q247.269 971.183 247.269 978.313 Q247.269 985.419 249.074 988.984 Q250.903 992.526 254.514 992.526 Q258.148 992.526 259.954 988.984 Q261.783 985.419 261.783 978.313 Q261.783 971.183 259.954 967.642 Q258.148 964.077 254.514 964.077 M254.514 960.373 Q260.324 960.373 263.38 964.98 Q266.458 969.563 266.458 978.313 Q266.458 987.04 263.38 991.646 Q260.324 996.229 254.514 996.229 Q248.704 996.229 245.625 991.646 Q242.57 987.04 242.57 978.313 Q242.57 969.563 245.625 964.98 Q248.704 960.373 254.514 960.373 Z" fill="#000000" fill-rule="nonzero" fill-opacity="1" /><path clip-path="url(#clip190)" d="M114.26 791.605 L143.936 791.605 L143.936 795.54 L114.26 795.54 L114.26 791.605 Z" fill="#000000" fill-rule="nonzero" fill-opacity="1" /><path clip-path="url(#clip190)" d="M154.075 773.874 L172.431 773.874 L172.431 777.809 L158.357 777.809 L158.357 786.281 Q159.376 785.934 160.394 785.772 Q161.413 785.587 162.431 785.587 Q168.218 785.587 171.598 788.758 Q174.977 791.929 174.977 797.346 Q174.977 802.924 171.505 806.026 Q168.033 809.105 161.714 809.105 Q159.538 809.105 157.269 808.735 Q155.024 808.364 152.616 807.624 L152.616 802.924 Q154.7 804.059 156.922 804.614 Q159.144 805.17 161.621 805.17 Q165.626 805.17 167.964 803.063 Q170.302 800.957 170.302 797.346 Q170.302 793.735 167.964 791.628 Q165.626 789.522 161.621 789.522 Q159.746 789.522 157.871 789.938 Q156.019 790.355 154.075 791.235 L154.075 773.874 Z" fill="#000000" fill-rule="nonzero" fill-opacity="1" /><path clip-path="url(#clip190)" d="M194.769 789.29 Q191.621 789.29 189.769 791.443 Q187.94 793.596 187.94 797.346 Q187.94 801.073 189.769 803.249 Q191.621 805.401 194.769 805.401 Q197.917 805.401 199.746 803.249 Q201.598 801.073 201.598 797.346 Q201.598 793.596 199.746 791.443 Q197.917 789.29 194.769 789.29 M204.051 774.638 L204.051 778.897 Q202.292 778.064 200.487 777.624 Q198.704 777.184 196.945 777.184 Q192.315 777.184 189.862 780.309 Q187.431 783.434 187.084 789.753 Q188.45 787.739 190.51 786.675 Q192.57 785.587 195.047 785.587 Q200.255 785.587 203.264 788.758 Q206.297 791.906 206.297 797.346 Q206.297 802.67 203.149 805.887 Q200 809.105 194.769 809.105 Q188.774 809.105 185.602 804.522 Q182.431 799.915 182.431 791.188 Q182.431 782.994 186.32 778.133 Q190.209 773.249 196.76 773.249 Q198.519 773.249 200.301 773.596 Q202.107 773.943 204.051 774.638 Z" fill="#000000" fill-rule="nonzero" fill-opacity="1" /><path clip-path="url(#clip190)" d="M224.352 776.952 Q220.741 776.952 218.912 780.517 Q217.107 784.059 217.107 791.188 Q217.107 798.295 218.912 801.86 Q220.741 805.401 224.352 805.401 Q227.986 805.401 229.792 801.86 Q231.621 798.295 231.621 791.188 Q231.621 784.059 229.792 780.517 Q227.986 776.952 224.352 776.952 M224.352 773.249 Q230.162 773.249 233.218 777.855 Q236.297 782.438 236.297 791.188 Q236.297 799.915 233.218 804.522 Q230.162 809.105 224.352 809.105 Q218.542 809.105 215.463 804.522 Q212.408 799.915 212.408 791.188 Q212.408 782.438 215.463 777.855 Q218.542 773.249 224.352 773.249 Z" fill="#000000" fill-rule="nonzero" fill-opacity="1" /><path clip-path="url(#clip190)" d="M254.514 776.952 Q250.903 776.952 249.074 780.517 Q247.269 784.059 247.269 791.188 Q247.269 798.295 249.074 801.86 Q250.903 805.401 254.514 805.401 Q258.148 805.401 259.954 801.86 Q261.783 798.295 261.783 791.188 Q261.783 784.059 259.954 780.517 Q258.148 776.952 254.514 776.952 M254.514 773.249 Q260.324 773.249 263.38 777.855 Q266.458 782.438 266.458 791.188 Q266.458 799.915 263.38 804.522 Q260.324 809.105 254.514 809.105 Q248.704 809.105 245.625 804.522 Q242.57 799.915 242.57 791.188 Q242.57 782.438 245.625 777.855 Q248.704 773.249 254.514 773.249 Z" fill="#000000" fill-rule="nonzero" fill-opacity="1" /><path clip-path="url(#clip190)" d="M114.26 604.481 L143.936 604.481 L143.936 608.416 L114.26 608.416 L114.26 604.481 Z" fill="#000000" fill-rule="nonzero" fill-opacity="1" /><path clip-path="url(#clip190)" d="M154.075 586.749 L172.431 586.749 L172.431 590.685 L158.357 590.685 L158.357 599.157 Q159.376 598.81 160.394 598.647 Q161.413 598.462 162.431 598.462 Q168.218 598.462 171.598 601.634 Q174.977 604.805 174.977 610.221 Q174.977 615.8 171.505 618.902 Q168.033 621.981 161.714 621.981 Q159.538 621.981 157.269 621.61 Q155.024 621.24 152.616 620.499 L152.616 615.8 Q154.7 616.934 156.922 617.49 Q159.144 618.046 161.621 618.046 Q165.626 618.046 167.964 615.939 Q170.302 613.833 170.302 610.221 Q170.302 606.61 167.964 604.504 Q165.626 602.397 161.621 602.397 Q159.746 602.397 157.871 602.814 Q156.019 603.231 154.075 604.11 L154.075 586.749 Z" fill="#000000" fill-rule="nonzero" fill-opacity="1" /><path clip-path="url(#clip190)" d="M184.237 586.749 L202.593 586.749 L202.593 590.685 L188.519 590.685 L188.519 599.157 Q189.538 598.81 190.556 598.647 Q191.575 598.462 192.593 598.462 Q198.38 598.462 201.76 601.634 Q205.139 604.805 205.139 610.221 Q205.139 615.8 201.667 618.902 Q198.195 621.981 191.875 621.981 Q189.7 621.981 187.431 621.61 Q185.186 621.24 182.778 620.499 L182.778 615.8 Q184.862 616.934 187.084 617.49 Q189.306 618.046 191.783 618.046 Q195.787 618.046 198.125 615.939 Q200.463 613.833 200.463 610.221 Q200.463 606.61 198.125 604.504 Q195.787 602.397 191.783 602.397 Q189.908 602.397 188.033 602.814 Q186.181 603.231 184.237 604.11 L184.237 586.749 Z" fill="#000000" fill-rule="nonzero" fill-opacity="1" /><path clip-path="url(#clip190)" d="M224.352 589.828 Q220.741 589.828 218.912 593.393 Q217.107 596.935 217.107 604.064 Q217.107 611.171 218.912 614.735 Q220.741 618.277 224.352 618.277 Q227.986 618.277 229.792 614.735 Q231.621 611.171 231.621 604.064 Q231.621 596.935 229.792 593.393 Q227.986 589.828 224.352 589.828 M224.352 586.124 Q230.162 586.124 233.218 590.731 Q236.297 595.314 236.297 604.064 Q236.297 612.791 233.218 617.397 Q230.162 621.981 224.352 621.981 Q218.542 621.981 215.463 617.397 Q212.408 612.791 212.408 604.064 Q212.408 595.314 215.463 590.731 Q218.542 586.124 224.352 586.124 Z" fill="#000000" fill-rule="nonzero" fill-opacity="1" /><path clip-path="url(#clip190)" d="M254.514 589.828 Q250.903 589.828 249.074 593.393 Q247.269 596.935 247.269 604.064 Q247.269 611.171 249.074 614.735 Q250.903 618.277 254.514 618.277 Q258.148 618.277 259.954 614.735 Q261.783 611.171 261.783 604.064 Q261.783 596.935 259.954 593.393 Q258.148 589.828 254.514 589.828 M254.514 586.124 Q260.324 586.124 263.38 590.731 Q266.458 595.314 266.458 604.064 Q266.458 612.791 263.38 617.397 Q260.324 621.981 254.514 621.981 Q248.704 621.981 245.625 617.397 Q242.57 612.791 242.57 604.064 Q242.57 595.314 245.625 590.731 Q248.704 586.124 254.514 586.124 Z" fill="#000000" fill-rule="nonzero" fill-opacity="1" /><path clip-path="url(#clip190)" d="M114.26 417.356 L143.936 417.356 L143.936 421.292 L114.26 421.292 L114.26 417.356 Z" fill="#000000" fill-rule="nonzero" fill-opacity="1" /><path clip-path="url(#clip190)" d="M154.075 399.625 L172.431 399.625 L172.431 403.56 L158.357 403.56 L158.357 412.032 Q159.376 411.685 160.394 411.523 Q161.413 411.338 162.431 411.338 Q168.218 411.338 171.598 414.509 Q174.977 417.681 174.977 423.097 Q174.977 428.676 171.505 431.778 Q168.033 434.856 161.714 434.856 Q159.538 434.856 157.269 434.486 Q155.024 434.116 152.616 433.375 L152.616 428.676 Q154.7 429.81 156.922 430.366 Q159.144 430.921 161.621 430.921 Q165.626 430.921 167.964 428.815 Q170.302 426.708 170.302 423.097 Q170.302 419.486 167.964 417.38 Q165.626 415.273 161.621 415.273 Q159.746 415.273 157.871 415.69 Q156.019 416.106 154.075 416.986 L154.075 399.625 Z" fill="#000000" fill-rule="nonzero" fill-opacity="1" /><path clip-path="url(#clip190)" d="M197.037 403.699 L185.232 422.148 L197.037 422.148 L197.037 403.699 M195.811 399.625 L201.69 399.625 L201.69 422.148 L206.621 422.148 L206.621 426.037 L201.69 426.037 L201.69 434.185 L197.037 434.185 L197.037 426.037 L181.436 426.037 L181.436 421.523 L195.811 399.625 Z" fill="#000000" fill-rule="nonzero" fill-opacity="1" /><path clip-path="url(#clip190)" d="M224.352 402.704 Q220.741 402.704 218.912 406.269 Q217.107 409.81 217.107 416.94 Q217.107 424.046 218.912 427.611 Q220.741 431.153 224.352 431.153 Q227.986 431.153 229.792 427.611 Q231.621 424.046 231.621 416.94 Q231.621 409.81 229.792 406.269 Q227.986 402.704 224.352 402.704 M224.352 399 Q230.162 399 233.218 403.607 Q236.297 408.19 236.297 416.94 Q236.297 425.667 233.218 430.273 Q230.162 434.856 224.352 434.856 Q218.542 434.856 215.463 430.273 Q212.408 425.667 212.408 416.94 Q212.408 408.19 215.463 403.607 Q218.542 399 224.352 399 Z" fill="#000000" fill-rule="nonzero" fill-opacity="1" /><path clip-path="url(#clip190)" d="M254.514 402.704 Q250.903 402.704 249.074 406.269 Q247.269 409.81 247.269 416.94 Q247.269 424.046 249.074 427.611 Q250.903 431.153 254.514 431.153 Q258.148 431.153 259.954 427.611 Q261.783 424.046 261.783 416.94 Q261.783 409.81 259.954 406.269 Q258.148 402.704 254.514 402.704 M254.514 399 Q260.324 399 263.38 403.607 Q266.458 408.19 266.458 416.94 Q266.458 425.667 263.38 430.273 Q260.324 434.856 254.514 434.856 Q248.704 434.856 245.625 430.273 Q242.57 425.667 242.57 416.94 Q242.57 408.19 245.625 403.607 Q248.704 399 254.514 399 Z" fill="#000000" fill-rule="nonzero" fill-opacity="1" /><path clip-path="url(#clip190)" d="M114.26 230.232 L143.936 230.232 L143.936 234.167 L114.26 234.167 L114.26 230.232 Z" fill="#000000" fill-rule="nonzero" fill-opacity="1" /><path clip-path="url(#clip190)" d="M154.075 212.501 L172.431 212.501 L172.431 216.436 L158.357 216.436 L158.357 224.908 Q159.376 224.561 160.394 224.399 Q161.413 224.214 162.431 224.214 Q168.218 224.214 171.598 227.385 Q174.977 230.556 174.977 235.973 Q174.977 241.552 171.505 244.653 Q168.033 247.732 161.714 247.732 Q159.538 247.732 157.269 247.362 Q155.024 246.991 152.616 246.251 L152.616 241.552 Q154.7 242.686 156.922 243.241 Q159.144 243.797 161.621 243.797 Q165.626 243.797 167.964 241.69 Q170.302 239.584 170.302 235.973 Q170.302 232.362 167.964 230.255 Q165.626 228.149 161.621 228.149 Q159.746 228.149 157.871 228.565 Q156.019 228.982 154.075 229.862 L154.075 212.501 Z" fill="#000000" fill-rule="nonzero" fill-opacity="1" /><path clip-path="url(#clip190)" d="M198.357 228.427 Q201.713 229.144 203.588 231.413 Q205.487 233.681 205.487 237.015 Q205.487 242.13 201.968 244.931 Q198.45 247.732 191.968 247.732 Q189.792 247.732 187.477 247.292 Q185.186 246.876 182.732 246.019 L182.732 241.505 Q184.676 242.639 186.991 243.218 Q189.306 243.797 191.829 243.797 Q196.227 243.797 198.519 242.061 Q200.834 240.325 200.834 237.015 Q200.834 233.959 198.681 232.246 Q196.551 230.51 192.732 230.51 L188.704 230.51 L188.704 226.667 L192.917 226.667 Q196.366 226.667 198.195 225.302 Q200.024 223.913 200.024 221.32 Q200.024 218.658 198.125 217.246 Q196.25 215.811 192.732 215.811 Q190.811 215.811 188.612 216.228 Q186.413 216.644 183.774 217.524 L183.774 213.357 Q186.436 212.616 188.75 212.246 Q191.088 211.876 193.149 211.876 Q198.473 211.876 201.575 214.306 Q204.676 216.714 204.676 220.834 Q204.676 223.704 203.033 225.695 Q201.389 227.663 198.357 228.427 Z" fill="#000000" fill-rule="nonzero" fill-opacity="1" /><path clip-path="url(#clip190)" d="M224.352 215.579 Q220.741 215.579 218.912 219.144 Q217.107 222.686 217.107 229.815 Q217.107 236.922 218.912 240.487 Q220.741 244.028 224.352 244.028 Q227.986 244.028 229.792 240.487 Q231.621 236.922 231.621 229.815 Q231.621 222.686 229.792 219.144 Q227.986 215.579 224.352 215.579 M224.352 211.876 Q230.162 211.876 233.218 216.482 Q236.297 221.066 236.297 229.815 Q236.297 238.542 233.218 243.149 Q230.162 247.732 224.352 247.732 Q218.542 247.732 215.463 243.149 Q212.408 238.542 212.408 229.815 Q212.408 221.066 215.463 216.482 Q218.542 211.876 224.352 211.876 Z" fill="#000000" fill-rule="nonzero" fill-opacity="1" /><path clip-path="url(#clip190)" d="M254.514 215.579 Q250.903 215.579 249.074 219.144 Q247.269 222.686 247.269 229.815 Q247.269 236.922 249.074 240.487 Q250.903 244.028 254.514 244.028 Q258.148 244.028 259.954 240.487 Q261.783 236.922 261.783 229.815 Q261.783 222.686 259.954 219.144 Q258.148 215.579 254.514 215.579 M254.514 211.876 Q260.324 211.876 263.38 216.482 Q266.458 221.066 266.458 229.815 Q266.458 238.542 263.38 243.149 Q260.324 247.732 254.514 247.732 Q248.704 247.732 245.625 243.149 Q242.57 238.542 242.57 229.815 Q242.57 221.066 245.625 216.482 Q248.704 211.876 254.514 211.876 Z" fill="#000000" fill-rule="nonzero" fill-opacity="1" /><path clip-path="url(#clip190)" d="M16.4842 992.817 L16.4842 986.388 L58.5933 986.388 L58.5933 963.248 L64.0042 963.248 L64.0042 992.817 L16.4842 992.817 Z" fill="#000000" fill-rule="nonzero" fill-opacity="1" /><path clip-path="url(#clip190)" d="M32.4621 944.088 Q32.4621 948.798 36.1542 951.535 Q39.8145 954.273 46.212 954.273 Q52.6095 954.273 56.3017 951.567 Q59.9619 948.83 59.9619 944.088 Q59.9619 939.409 56.2698 936.671 Q52.5777 933.934 46.212 933.934 Q39.8781 933.934 36.186 936.671 Q32.4621 939.409 32.4621 944.088 M27.4968 944.088 Q27.4968 936.449 32.4621 932.088 Q37.4273 927.728 46.212 927.728 Q54.9649 927.728 59.9619 932.088 Q64.9272 936.449 64.9272 944.088 Q64.9272 951.758 59.9619 956.119 Q54.9649 960.447 46.212 960.447 Q37.4273 960.447 32.4621 956.119 Q27.4968 951.758 27.4968 944.088 Z" fill="#000000" fill-rule="nonzero" fill-opacity="1" /><path clip-path="url(#clip190)" d="M45.7664 894.562 Q39.4007 894.562 35.8996 897.204 Q32.3984 899.814 32.3984 904.556 Q32.3984 909.267 35.8996 911.909 Q39.4007 914.519 45.7664 914.519 Q52.1003 914.519 55.6014 911.909 Q59.1026 909.267 59.1026 904.556 Q59.1026 899.814 55.6014 897.204 Q52.1003 894.562 45.7664 894.562 M59.58 888.706 Q68.683 888.706 73.1071 892.748 Q77.5631 896.79 77.5631 905.129 Q77.5631 908.217 77.0857 910.954 Q76.6401 913.691 75.6852 916.269 L69.9879 916.269 Q71.3884 913.691 72.0568 911.177 Q72.7252 908.662 72.7252 906.052 Q72.7252 900.291 69.7015 897.427 Q66.7096 894.562 60.6303 894.562 L57.7339 894.562 Q60.885 896.377 62.4446 899.209 Q64.0042 902.042 64.0042 905.989 Q64.0042 912.545 59.0071 916.556 Q54.01 920.566 45.7664 920.566 Q37.491 920.566 32.4939 916.556 Q27.4968 912.545 27.4968 905.989 Q27.4968 902.042 29.0564 899.209 Q30.616 896.377 33.7671 894.562 L28.3562 894.562 L28.3562 888.706 L59.58 888.706 Z" fill="#000000" fill-rule="nonzero" fill-opacity="1" /><path clip-path="url(#clip190)" d="M43.5384 879.603 L43.5384 862.447 L48.7583 862.447 L48.7583 879.603 L43.5384 879.603 Z" fill="#000000" fill-rule="nonzero" fill-opacity="1" /><path clip-path="url(#clip190)" d="M16.4842 852.867 L16.4842 846.438 L58.5933 846.438 L58.5933 823.298 L64.0042 823.298 L64.0042 852.867 L16.4842 852.867 Z" fill="#000000" fill-rule="nonzero" fill-opacity="1" /><path clip-path="url(#clip190)" d="M28.3562 816.805 L28.3562 810.949 L64.0042 810.949 L64.0042 816.805 L28.3562 816.805 M14.479 816.805 L14.479 810.949 L21.895 810.949 L21.895 816.805 L14.479 816.805 Z" fill="#000000" fill-rule="nonzero" fill-opacity="1" /><path clip-path="url(#clip190)" d="M14.479 798.918 L14.479 793.029 L43.7294 793.029 L28.3562 775.555 L28.3562 768.076 L45.0344 786.982 L64.0042 767.28 L64.0042 774.919 L46.5939 793.029 L64.0042 793.029 L64.0042 798.918 L14.479 798.918 Z" fill="#000000" fill-rule="nonzero" fill-opacity="1" /><path clip-path="url(#clip190)" d="M44.7161 732.778 L47.5806 732.778 L47.5806 759.705 Q53.6281 759.323 56.8109 756.076 Q59.9619 752.798 59.9619 746.973 Q59.9619 743.6 59.1344 740.449 Q58.3069 737.266 56.6518 734.147 L62.1899 734.147 Q63.5267 737.298 64.227 740.608 Q64.9272 743.918 64.9272 747.324 Q64.9272 755.854 59.9619 760.851 Q54.9967 765.816 46.5303 765.816 Q37.7774 765.816 32.6531 761.105 Q27.4968 756.363 27.4968 748.342 Q27.4968 741.149 32.1438 736.979 Q36.7589 732.778 44.7161 732.778 M42.9973 738.634 Q38.1912 738.698 35.3266 741.34 Q32.4621 743.95 32.4621 748.278 Q32.4621 753.18 35.2312 756.14 Q38.0002 759.068 43.0292 759.514 L42.9973 738.634 Z" fill="#000000" fill-rule="nonzero" fill-opacity="1" /><path clip-path="url(#clip190)" d="M14.479 723.166 L14.479 717.309 L64.0042 717.309 L64.0042 723.166 L14.479 723.166 Z" fill="#000000" fill-rule="nonzero" fill-opacity="1" /><path clip-path="url(#clip190)" d="M28.3562 705.055 L28.3562 699.199 L64.0042 699.199 L64.0042 705.055 L28.3562 705.055 M14.479 705.055 L14.479 699.199 L21.895 699.199 L21.895 705.055 L14.479 705.055 Z" fill="#000000" fill-rule="nonzero" fill-opacity="1" /><path clip-path="url(#clip190)" d="M42.4881 657.312 L64.0042 657.312 L64.0042 663.169 L42.679 663.169 Q37.6183 663.169 35.1038 665.142 Q32.5894 667.116 32.5894 671.062 Q32.5894 675.805 35.6131 678.542 Q38.6368 681.279 43.8567 681.279 L64.0042 681.279 L64.0042 687.168 L14.479 687.168 L14.479 681.279 L33.8944 681.279 Q30.6797 679.179 29.0883 676.346 Q27.4968 673.481 27.4968 669.757 Q27.4968 663.614 31.3163 660.463 Q35.1038 657.312 42.4881 657.312 Z" fill="#000000" fill-rule="nonzero" fill-opacity="1" /><path clip-path="url(#clip190)" d="M32.4621 631.818 Q32.4621 636.528 36.1542 639.266 Q39.8145 642.003 46.212 642.003 Q52.6095 642.003 56.3017 639.297 Q59.9619 636.56 59.9619 631.818 Q59.9619 627.139 56.2698 624.402 Q52.5777 621.664 46.212 621.664 Q39.8781 621.664 36.186 624.402 Q32.4621 627.139 32.4621 631.818 M27.4968 631.818 Q27.4968 624.179 32.4621 619.818 Q37.4273 615.458 46.212 615.458 Q54.9649 615.458 59.9619 619.818 Q64.9272 624.179 64.9272 631.818 Q64.9272 639.488 59.9619 643.849 Q54.9649 648.178 46.212 648.178 Q37.4273 648.178 32.4621 643.849 Q27.4968 639.488 27.4968 631.818 Z" fill="#000000" fill-rule="nonzero" fill-opacity="1" /><path clip-path="url(#clip190)" d="M32.4621 591.937 Q32.4621 596.647 36.1542 599.384 Q39.8145 602.122 46.212 602.122 Q52.6095 602.122 56.3017 599.416 Q59.9619 596.679 59.9619 591.937 Q59.9619 587.258 56.2698 584.521 Q52.5777 581.783 46.212 581.783 Q39.8781 581.783 36.186 584.521 Q32.4621 587.258 32.4621 591.937 M27.4968 591.937 Q27.4968 584.298 32.4621 579.937 Q37.4273 575.577 46.212 575.577 Q54.9649 575.577 59.9619 579.937 Q64.9272 584.298 64.9272 591.937 Q64.9272 599.607 59.9619 603.968 Q54.9649 608.296 46.212 608.296 Q37.4273 608.296 32.4621 603.968 Q27.4968 599.607 27.4968 591.937 Z" fill="#000000" fill-rule="nonzero" fill-opacity="1" /><path clip-path="url(#clip190)" d="M33.7671 542.411 L14.479 542.411 L14.479 536.555 L64.0042 536.555 L64.0042 542.411 L58.657 542.411 Q61.8398 544.257 63.3994 547.09 Q64.9272 549.891 64.9272 553.838 Q64.9272 560.299 59.771 564.373 Q54.6147 568.415 46.212 568.415 Q37.8093 568.415 32.6531 564.373 Q27.4968 560.299 27.4968 553.838 Q27.4968 549.891 29.0564 547.09 Q30.5842 544.257 33.7671 542.411 M46.212 562.368 Q52.6732 562.368 56.3653 559.726 Q60.0256 557.053 60.0256 552.406 Q60.0256 547.759 56.3653 545.085 Q52.6732 542.411 46.212 542.411 Q39.7508 542.411 36.0905 545.085 Q32.3984 547.759 32.3984 552.406 Q32.3984 557.053 36.0905 559.726 Q39.7508 562.368 46.212 562.368 Z" fill="#000000" fill-rule="nonzero" fill-opacity="1" /><path clip-path="url(#clip190)" d="M761.971 31.2093 L761.971 47.0368 L771.346 47.0368 Q776.062 47.0368 778.319 45.0981 Q780.605 43.1306 780.605 39.1086 Q780.605 35.0577 778.319 33.148 Q776.062 31.2093 771.346 31.2093 L761.971 31.2093 M761.971 13.4432 L761.971 26.464 L770.622 26.464 Q774.905 26.464 776.988 24.8726 Q779.1 23.2522 779.1 19.9536 Q779.1 16.6839 776.988 15.0636 Q774.905 13.4432 770.622 13.4432 L761.971 13.4432 M756.126 8.64 L771.056 8.64 Q777.74 8.64 781.357 11.4178 Q784.974 14.1955 784.974 19.317 Q784.974 23.2811 783.122 25.6249 Q781.27 27.9686 777.682 28.5473 Q781.994 29.4732 784.366 32.4246 Q786.768 35.347 786.768 39.7452 Q786.768 45.5322 782.833 48.6861 Q778.898 51.84 771.635 51.84 L756.126 51.84 L756.126 8.64 Z" fill="#000000" fill-rule="nonzero" fill-opacity="1" /><path clip-path="url(#clip190)" d="M811.276 35.5496 Q804.824 35.5496 802.335 37.0253 Q799.847 38.501 799.847 42.06 Q799.847 44.8956 801.699 46.5738 Q803.579 48.2231 806.791 48.2231 Q811.218 48.2231 813.88 45.0981 Q816.571 41.9442 816.571 36.7359 L816.571 35.5496 L811.276 35.5496 M821.895 33.3505 L821.895 51.84 L816.571 51.84 L816.571 46.921 Q814.748 49.8724 812.028 51.2902 Q809.308 52.6791 805.373 52.6791 Q800.396 52.6791 797.445 49.9014 Q794.523 47.0947 794.523 42.4072 Q794.523 36.9385 798.168 34.1607 Q801.843 31.3829 809.106 31.3829 L816.571 31.3829 L816.571 30.8621 Q816.571 27.1874 814.141 25.1908 Q811.739 23.1654 807.37 23.1654 Q804.592 23.1654 801.959 23.8309 Q799.326 24.4964 796.895 25.8274 L796.895 20.9085 Q799.818 19.78 802.567 19.2302 Q805.315 18.6515 807.92 18.6515 Q814.951 18.6515 818.423 22.2973 Q821.895 25.9431 821.895 33.3505 Z" fill="#000000" fill-rule="nonzero" fill-opacity="1" /><path clip-path="url(#clip190)" d="M832.312 39.0507 L832.312 19.4328 L837.636 19.4328 L837.636 38.8482 Q837.636 43.4488 839.43 45.7636 Q841.224 48.0495 844.812 48.0495 Q849.123 48.0495 851.611 45.3007 Q854.129 42.5519 854.129 37.8065 L854.129 19.4328 L859.453 19.4328 L859.453 51.84 L854.129 51.84 L854.129 46.8632 Q852.19 49.8145 849.615 51.2613 Q847.069 52.6791 843.683 52.6791 Q838.099 52.6791 835.205 49.2069 Q832.312 45.7347 832.312 39.0507 M845.709 18.6515 L845.709 18.6515 Z" fill="#000000" fill-rule="nonzero" fill-opacity="1" /><path clip-path="url(#clip190)" d="M895.651 25.6538 Q897.647 22.0659 900.425 20.3587 Q903.203 18.6515 906.964 18.6515 Q912.028 18.6515 914.777 22.2105 Q917.525 25.7406 917.525 32.2799 L917.525 51.84 L912.172 51.84 L912.172 32.4535 Q912.172 27.795 910.523 25.5381 Q908.874 23.2811 905.488 23.2811 Q901.351 23.2811 898.949 26.03 Q896.548 28.7788 896.548 33.5241 L896.548 51.84 L891.195 51.84 L891.195 32.4535 Q891.195 27.7661 889.545 25.5381 Q887.896 23.2811 884.453 23.2811 Q880.373 23.2811 877.971 26.0589 Q875.57 28.8077 875.57 33.5241 L875.57 51.84 L870.217 51.84 L870.217 19.4328 L875.57 19.4328 L875.57 24.4675 Q877.393 21.4872 879.939 20.0693 Q882.485 18.6515 885.986 18.6515 Q889.516 18.6515 891.976 20.4455 Q894.464 22.2395 895.651 25.6538 Z" fill="#000000" fill-rule="nonzero" fill-opacity="1" /><path clip-path="url(#clip190)" d="M925.454 33.2348 L941.05 33.2348 L941.05 37.9801 L925.454 37.9801 L925.454 33.2348 Z" fill="#000000" fill-rule="nonzero" fill-opacity="1" /><path clip-path="url(#clip190)" d="M943.509 8.64 L949.412 8.64 L958.497 45.156 L967.554 8.64 L974.122 8.64 L983.208 45.156 L992.265 8.64 L998.196 8.64 L987.346 51.84 L979.996 51.84 L970.882 14.3402 L961.68 51.84 L954.331 51.84 L943.509 8.64 Z" fill="#000000" fill-rule="nonzero" fill-opacity="1" /><path clip-path="url(#clip190)" d="M1029.97 34.3054 L1029.97 36.9095 L1005.49 36.9095 Q1005.84 42.4072 1008.79 45.3007 Q1011.77 48.1653 1017.06 48.1653 Q1020.13 48.1653 1022.99 47.4129 Q1025.89 46.6606 1028.72 45.156 L1028.72 50.1907 Q1025.86 51.406 1022.85 52.0425 Q1019.84 52.6791 1016.74 52.6791 Q1008.99 52.6791 1004.45 48.1653 Q999.932 43.6514 999.932 35.9547 Q999.932 27.9975 1004.21 23.339 Q1008.53 18.6515 1015.82 18.6515 Q1022.36 18.6515 1026.15 22.876 Q1029.97 27.0716 1029.97 34.3054 M1024.64 32.7429 Q1024.59 28.3737 1022.18 25.7695 Q1019.81 23.1654 1015.88 23.1654 Q1011.42 23.1654 1008.73 25.6827 Q1006.07 28.2001 1005.66 32.7718 L1024.64 32.7429 Z" fill="#000000" fill-rule="nonzero" fill-opacity="1" /><path clip-path="url(#clip190)" d="M1038.71 6.81709 L1044.03 6.81709 L1044.03 51.84 L1038.71 51.84 L1038.71 6.81709 Z" fill="#000000" fill-rule="nonzero" fill-opacity="1" /><path clip-path="url(#clip190)" d="M1078.49 20.677 L1078.49 25.6538 Q1076.23 24.4096 1073.95 23.802 Q1071.69 23.1654 1069.38 23.1654 Q1064.2 23.1654 1061.33 26.464 Q1058.47 29.7336 1058.47 35.6653 Q1058.47 41.597 1061.33 44.8956 Q1064.2 48.1653 1069.38 48.1653 Q1071.69 48.1653 1073.95 47.5576 Q1076.23 46.921 1078.49 45.6768 L1078.49 50.5958 Q1076.26 51.6375 1073.86 52.1583 Q1071.49 52.6791 1068.8 52.6791 Q1061.48 52.6791 1057.17 48.0784 Q1052.85 43.4778 1052.85 35.6653 Q1052.85 27.7371 1057.19 23.1943 Q1061.56 18.6515 1069.15 18.6515 Q1071.6 18.6515 1073.95 19.1724 Q1076.29 19.6642 1078.49 20.677 Z" fill="#000000" fill-rule="nonzero" fill-opacity="1" /><path clip-path="url(#clip190)" d="M1114.69 32.2799 L1114.69 51.84 L1109.36 51.84 L1109.36 32.4535 Q1109.36 27.8529 1107.57 25.567 Q1105.78 23.2811 1102.19 23.2811 Q1097.88 23.2811 1095.39 26.03 Q1092.9 28.7788 1092.9 33.5241 L1092.9 51.84 L1087.55 51.84 L1087.55 6.81709 L1092.9 6.81709 L1092.9 24.4675 Q1094.81 21.545 1097.39 20.0983 Q1099.99 18.6515 1103.38 18.6515 Q1108.96 18.6515 1111.82 22.1237 Q1114.69 25.567 1114.69 32.2799 Z" fill="#000000" fill-rule="nonzero" fill-opacity="1" /><path clip-path="url(#clip190)" d="M1176.73 11.9675 L1176.73 18.1307 Q1173.77 15.3819 1170.42 14.0219 Q1167.09 12.662 1163.33 12.662 Q1155.92 12.662 1151.99 17.2048 Q1148.05 21.7186 1148.05 30.2834 Q1148.05 38.8192 1151.99 43.362 Q1155.92 47.8759 1163.33 47.8759 Q1167.09 47.8759 1170.42 46.516 Q1173.77 45.156 1176.73 42.4072 L1176.73 48.5125 Q1173.66 50.5958 1170.22 51.6375 Q1166.8 52.6791 1162.98 52.6791 Q1153.17 52.6791 1147.53 46.6896 Q1141.89 40.6711 1141.89 30.2834 Q1141.89 19.8668 1147.53 13.8772 Q1153.17 7.85875 1162.98 7.85875 Q1166.86 7.85875 1170.27 8.90042 Q1173.72 9.91314 1176.73 11.9675 Z" fill="#000000" fill-rule="nonzero" fill-opacity="1" /><path clip-path="url(#clip190)" d="M1198.08 23.1654 Q1193.8 23.1654 1191.31 26.5218 Q1188.82 29.8494 1188.82 35.6653 Q1188.82 41.4813 1191.28 44.8377 Q1193.77 48.1653 1198.08 48.1653 Q1202.33 48.1653 1204.82 44.8088 Q1207.31 41.4523 1207.31 35.6653 Q1207.31 29.9072 1204.82 26.5508 Q1202.33 23.1654 1198.08 23.1654 M1198.08 18.6515 Q1205.02 18.6515 1208.99 23.1654 Q1212.95 27.6792 1212.95 35.6653 Q1212.95 43.6225 1208.99 48.1653 Q1205.02 52.6791 1198.08 52.6791 Q1191.11 52.6791 1187.14 48.1653 Q1183.21 43.6225 1183.21 35.6653 Q1183.21 27.6792 1187.14 23.1654 Q1191.11 18.6515 1198.08 18.6515 Z" fill="#000000" fill-rule="nonzero" fill-opacity="1" /><path clip-path="url(#clip190)" d="M1248.72 32.2799 L1248.72 51.84 L1243.39 51.84 L1243.39 32.4535 Q1243.39 27.8529 1241.6 25.567 Q1239.8 23.2811 1236.22 23.2811 Q1231.9 23.2811 1229.42 26.03 Q1226.93 28.7788 1226.93 33.5241 L1226.93 51.84 L1221.57 51.84 L1221.57 19.4328 L1226.93 19.4328 L1226.93 24.4675 Q1228.84 21.545 1231.41 20.0983 Q1234.02 18.6515 1237.4 18.6515 Q1242.99 18.6515 1245.85 22.1237 Q1248.72 25.567 1248.72 32.2799 Z" fill="#000000" fill-rule="nonzero" fill-opacity="1" /><path clip-path="url(#clip190)" d="M1255.52 19.4328 L1261.16 19.4328 L1271.29 46.6317 L1281.41 19.4328 L1287.05 19.4328 L1274.9 51.84 L1267.67 51.84 L1255.52 19.4328 Z" fill="#000000" fill-rule="nonzero" fill-opacity="1" /><path clip-path="url(#clip190)" d="M1322.12 34.3054 L1322.12 36.9095 L1297.64 36.9095 Q1297.99 42.4072 1300.94 45.3007 Q1303.92 48.1653 1309.22 48.1653 Q1312.29 48.1653 1315.15 47.4129 Q1318.04 46.6606 1320.88 45.156 L1320.88 50.1907 Q1318.02 51.406 1315.01 52.0425 Q1312 52.6791 1308.9 52.6791 Q1301.15 52.6791 1296.6 48.1653 Q1292.09 43.6514 1292.09 35.9547 Q1292.09 27.9975 1296.37 23.339 Q1300.68 18.6515 1307.97 18.6515 Q1314.51 18.6515 1318.3 22.876 Q1322.12 27.0716 1322.12 34.3054 M1316.8 32.7429 Q1316.74 28.3737 1314.34 25.7695 Q1311.97 23.1654 1308.03 23.1654 Q1303.58 23.1654 1300.89 25.6827 Q1298.22 28.2001 1297.82 32.7718 L1316.8 32.7429 Z" fill="#000000" fill-rule="nonzero" fill-opacity="1" /><path clip-path="url(#clip190)" d="M1349.64 24.4096 Q1348.74 23.8888 1347.67 23.6573 Q1346.63 23.3969 1345.36 23.3969 Q1340.84 23.3969 1338.41 26.3482 Q1336.01 29.2707 1336.01 34.7683 L1336.01 51.84 L1330.66 51.84 L1330.66 19.4328 L1336.01 19.4328 L1336.01 24.4675 Q1337.69 21.5161 1340.38 20.0983 Q1343.07 18.6515 1346.92 18.6515 Q1347.47 18.6515 1348.14 18.7383 Q1348.8 18.7962 1349.61 18.9409 L1349.64 24.4096 Z" fill="#000000" fill-rule="nonzero" fill-opacity="1" /><path clip-path="url(#clip190)" d="M1375.51 35.2602 Q1375.51 29.4732 1373.11 26.2904 Q1370.73 23.1075 1366.42 23.1075 Q1362.14 23.1075 1359.74 26.2904 Q1357.37 29.4732 1357.37 35.2602 Q1357.37 41.0183 1359.74 44.2012 Q1362.14 47.384 1366.42 47.384 Q1370.73 47.384 1373.11 44.2012 Q1375.51 41.0183 1375.51 35.2602 M1380.83 47.818 Q1380.83 56.0934 1377.16 60.1154 Q1373.48 64.1663 1365.9 64.1663 Q1363.1 64.1663 1360.61 63.7323 Q1358.12 63.3272 1355.78 62.4592 L1355.78 57.2798 Q1358.12 58.5529 1360.41 59.1606 Q1362.69 59.7682 1365.06 59.7682 Q1370.3 59.7682 1372.9 57.0194 Q1375.51 54.2995 1375.51 48.7729 L1375.51 46.1398 Q1373.86 49.0044 1371.28 50.4222 Q1368.71 51.84 1365.12 51.84 Q1359.16 51.84 1355.51 47.2972 Q1351.87 42.7544 1351.87 35.2602 Q1351.87 27.7371 1355.51 23.1943 Q1359.16 18.6515 1365.12 18.6515 Q1368.71 18.6515 1371.28 20.0693 Q1373.86 21.4872 1375.51 24.3517 L1375.51 19.4328 L1380.83 19.4328 L1380.83 47.818 Z" fill="#000000" fill-rule="nonzero" fill-opacity="1" /><path clip-path="url(#clip190)" d="M1419.52 34.3054 L1419.52 36.9095 L1395.04 36.9095 Q1395.39 42.4072 1398.34 45.3007 Q1401.32 48.1653 1406.61 48.1653 Q1409.68 48.1653 1412.55 47.4129 Q1415.44 46.6606 1418.28 45.156 L1418.28 50.1907 Q1415.41 51.406 1412.4 52.0425 Q1409.39 52.6791 1406.3 52.6791 Q1398.54 52.6791 1394 48.1653 Q1389.48 43.6514 1389.48 35.9547 Q1389.48 27.9975 1393.77 23.339 Q1398.08 18.6515 1405.37 18.6515 Q1411.91 18.6515 1415.7 22.876 Q1419.52 27.0716 1419.52 34.3054 M1414.2 32.7429 Q1414.14 28.3737 1411.74 25.7695 Q1409.36 23.1654 1405.43 23.1654 Q1400.97 23.1654 1398.28 25.6827 Q1395.62 28.2001 1395.21 32.7718 L1414.2 32.7429 Z" fill="#000000" fill-rule="nonzero" fill-opacity="1" /><path clip-path="url(#clip190)" d="M1455.2 32.2799 L1455.2 51.84 L1449.87 51.84 L1449.87 32.4535 Q1449.87 27.8529 1448.08 25.567 Q1446.28 23.2811 1442.7 23.2811 Q1438.38 23.2811 1435.9 26.03 Q1433.41 28.7788 1433.41 33.5241 L1433.41 51.84 L1428.06 51.84 L1428.06 19.4328 L1433.41 19.4328 L1433.41 24.4675 Q1435.32 21.545 1437.89 20.0983 Q1440.5 18.6515 1443.88 18.6515 Q1449.47 18.6515 1452.33 22.1237 Q1455.2 25.567 1455.2 32.2799 Z" fill="#000000" fill-rule="nonzero" fill-opacity="1" /><path clip-path="url(#clip190)" d="M1489.14 20.677 L1489.14 25.6538 Q1486.88 24.4096 1484.59 23.802 Q1482.34 23.1654 1480.02 23.1654 Q1474.84 23.1654 1471.98 26.464 Q1469.11 29.7336 1469.11 35.6653 Q1469.11 41.597 1471.98 44.8956 Q1474.84 48.1653 1480.02 48.1653 Q1482.34 48.1653 1484.59 47.5576 Q1486.88 46.921 1489.14 45.6768 L1489.14 50.5958 Q1486.91 51.6375 1484.51 52.1583 Q1482.13 52.6791 1479.44 52.6791 Q1472.12 52.6791 1467.81 48.0784 Q1463.5 43.4778 1463.5 35.6653 Q1463.5 27.7371 1467.84 23.1943 Q1472.21 18.6515 1479.79 18.6515 Q1482.25 18.6515 1484.59 19.1724 Q1486.94 19.6642 1489.14 20.677 Z" fill="#000000" fill-rule="nonzero" fill-opacity="1" /><path clip-path="url(#clip190)" d="M1526.12 34.3054 L1526.12 36.9095 L1501.64 36.9095 Q1501.98 42.4072 1504.94 45.3007 Q1507.92 48.1653 1513.21 48.1653 Q1516.28 48.1653 1519.14 47.4129 Q1522.04 46.6606 1524.87 45.156 L1524.87 50.1907 Q1522.01 51.406 1519 52.0425 Q1515.99 52.6791 1512.89 52.6791 Q1505.14 52.6791 1500.6 48.1653 Q1496.08 43.6514 1496.08 35.9547 Q1496.08 27.9975 1500.36 23.339 Q1504.68 18.6515 1511.97 18.6515 Q1518.51 18.6515 1522.3 22.876 Q1526.12 27.0716 1526.12 34.3054 M1520.79 32.7429 Q1520.73 28.3737 1518.33 25.7695 Q1515.96 23.1654 1512.02 23.1654 Q1507.57 23.1654 1504.88 25.6827 Q1502.22 28.2001 1501.81 32.7718 L1520.79 32.7429 Z" fill="#000000" fill-rule="nonzero" fill-opacity="1" /><path clip-path="url(#clip190)" d="M1566.48 6.87496 Q1562.6 13.53 1560.72 20.0404 Q1558.84 26.5508 1558.84 33.2348 Q1558.84 39.9188 1560.72 46.487 Q1562.63 53.0263 1566.48 59.6525 L1561.85 59.6525 Q1557.51 52.8527 1555.34 46.2845 Q1553.2 39.7162 1553.2 33.2348 Q1553.2 26.7823 1555.34 20.2429 Q1557.48 13.7036 1561.85 6.87496 L1566.48 6.87496 Z" fill="#000000" fill-rule="nonzero" fill-opacity="1" /><path clip-path="url(#clip190)" d="M1602.94 10.0578 L1602.94 15.758 Q1599.61 14.1666 1596.66 13.3853 Q1593.71 12.6041 1590.96 12.6041 Q1586.19 12.6041 1583.58 14.4559 Q1581.01 16.3078 1581.01 19.7221 Q1581.01 22.5867 1582.71 24.0624 Q1584.45 25.5091 1589.25 26.4061 L1592.78 27.1295 Q1599.32 28.3737 1602.42 31.5276 Q1605.54 34.6526 1605.54 39.9188 Q1605.54 46.1977 1601.32 49.4384 Q1597.12 52.6791 1588.99 52.6791 Q1585.92 52.6791 1582.45 51.9847 Q1579.01 51.2902 1575.31 49.9303 L1575.31 43.9118 Q1578.86 45.9083 1582.28 46.921 Q1585.69 47.9338 1588.99 47.9338 Q1594 47.9338 1596.72 45.9662 Q1599.44 43.9986 1599.44 40.3528 Q1599.44 37.1699 1597.47 35.376 Q1595.53 33.582 1591.08 32.685 L1587.52 31.9906 Q1580.98 30.6885 1578.05 27.9107 Q1575.13 25.133 1575.13 20.1851 Q1575.13 14.4559 1579.15 11.1573 Q1583.2 7.85875 1590.29 7.85875 Q1593.33 7.85875 1596.49 8.40852 Q1599.64 8.95829 1602.94 10.0578 Z" fill="#000000" fill-rule="nonzero" fill-opacity="1" /><path clip-path="url(#clip190)" d="M1620.5 13.4432 L1620.5 29.6758 L1627.85 29.6758 Q1631.93 29.6758 1634.16 27.5635 Q1636.39 25.4513 1636.39 21.545 Q1636.39 17.6677 1634.16 15.5555 Q1631.93 13.4432 1627.85 13.4432 L1620.5 13.4432 M1614.66 8.64 L1627.85 8.64 Q1635.11 8.64 1638.82 11.9386 Q1642.55 15.2083 1642.55 21.545 Q1642.55 27.9397 1638.82 31.2093 Q1635.11 34.479 1627.85 34.479 L1620.5 34.479 L1620.5 51.84 L1614.66 51.84 L1614.66 8.64 Z" fill="#000000" fill-rule="nonzero" fill-opacity="1" /><path clip-path="url(#clip190)" d="M1643.16 8.64 L1649.44 8.64 L1661.42 26.4061 L1673.31 8.64 L1679.59 8.64 L1664.31 31.2672 L1664.31 51.84 L1658.44 51.84 L1658.44 31.2672 L1643.16 8.64 Z" fill="#000000" fill-rule="nonzero" fill-opacity="1" /><path clip-path="url(#clip190)" d="M1686.42 44.4905 L1692.52 44.4905 L1692.52 49.4673 L1687.78 58.7265 L1684.04 58.7265 L1686.42 49.4673 L1686.42 44.4905 Z" fill="#000000" fill-rule="nonzero" fill-opacity="1" /><path clip-path="url(#clip190)" d="M1722.96 8.64 L1728.81 8.64 L1728.81 26.898 L1748.19 8.64 L1755.72 8.64 L1734.27 28.7788 L1757.25 51.84 L1749.55 51.84 L1728.81 31.0357 L1728.81 51.84 L1722.96 51.84 L1722.96 8.64 Z" fill="#000000" fill-rule="nonzero" fill-opacity="1" /><path clip-path="url(#clip190)" d="M1762.28 24.9304 L1799.38 24.9304 L1799.38 29.7915 L1762.28 29.7915 L1762.28 24.9304 M1762.28 36.7359 L1799.38 36.7359 L1799.38 41.6549 L1762.28 41.6549 L1762.28 36.7359 Z" fill="#000000" fill-rule="nonzero" fill-opacity="1" /><path clip-path="url(#clip190)" d="M1813.01 46.921 L1822.56 46.921 L1822.56 13.964 L1812.17 16.0474 L1812.17 10.7233 L1822.5 8.64 L1828.34 8.64 L1828.34 46.921 L1837.89 46.921 L1837.89 51.84 L1813.01 51.84 L1813.01 46.921 Z" fill="#000000" fill-rule="nonzero" fill-opacity="1" /><path clip-path="url(#clip190)" d="M1849.75 8.64 L1872.7 8.64 L1872.7 13.559 L1855.11 13.559 L1855.11 24.1492 Q1856.38 23.7152 1857.65 23.5126 Q1858.93 23.2811 1860.2 23.2811 Q1867.43 23.2811 1871.66 27.2452 Q1875.88 31.2093 1875.88 37.9801 Q1875.88 44.9535 1871.54 48.8308 Q1867.2 52.6791 1859.3 52.6791 Q1856.58 52.6791 1853.75 52.2162 Q1850.94 51.7532 1847.93 50.8273 L1847.93 44.9535 Q1850.54 46.3713 1853.31 47.0657 Q1856.09 47.7602 1859.19 47.7602 Q1864.19 47.7602 1867.12 45.1271 Q1870.04 42.494 1870.04 37.9801 Q1870.04 33.4663 1867.12 30.8332 Q1864.19 28.2001 1859.19 28.2001 Q1856.84 28.2001 1854.5 28.7209 Q1852.18 29.2417 1849.75 30.3413 L1849.75 8.64 Z" fill="#000000" fill-rule="nonzero" fill-opacity="1" /><path clip-path="url(#clip190)" d="M1885.81 6.87496 L1890.44 6.87496 Q1894.78 13.7036 1896.92 20.2429 Q1899.09 26.7823 1899.09 33.2348 Q1899.09 39.7162 1896.92 46.2845 Q1894.78 52.8527 1890.44 59.6525 L1885.81 59.6525 Q1889.66 53.0263 1891.54 46.487 Q1893.45 39.9188 1893.45 33.2348 Q1893.45 26.5508 1891.54 20.0404 Q1889.66 13.53 1885.81 6.87496 Z" fill="#000000" fill-rule="nonzero" fill-opacity="1" /><polyline clip-path="url(#clip192)" style="stroke:#000080; stroke-linecap:round; stroke-linejoin:round; stroke-width:8; stroke-opacity:1; fill:none" points="360.486,1385.91 393.269,783.689 426.053,680.788 458.837,622.987 491.621,579.896 524.405,543.271 557.188,509.966 589.972,478.771 622.756,449.349 655.54,421.702 688.323,395.814 721.107,371.435 753.891,348.074 786.675,325.694 819.459,305.494 852.242,288.699 885.026,275.412 917.81,265.094 950.594,257.038 983.377,250.605 1016.16,245.292 1048.95,240.741 1081.73,236.7 1114.51,233.001 1147.3,229.53 1180.08,226.211 1212.86,222.994 1245.65,219.848 1278.43,216.751 1311.22,213.688 1344,210.649 1376.78,207.63 1409.57,204.627 1442.35,201.64 1475.13,198.669 1507.92,195.716 1540.7,192.779 1573.49,189.857 1606.27,186.937 1639.05,184.002 1671.84,181.027 1704.62,177.986 1737.4,174.858 1770.19,171.642 1802.97,168.369 1835.76,165.109 1868.54,161.971 1901.32,159.075 1934.11,156.517 1966.89,154.339 1999.67,152.525 2032.46,151.019 2065.24,149.751 2098.03,148.655 2130.81,147.675 2163.59,146.772 2196.38,145.916 2229.16,145.087 2261.94,144.272 2294.73,143.465 "/>
<circle clip-path="url(#clip192)" cx="360.486" cy="1385.91" r="10.8" fill="#000080" fill-rule="evenodd" fill-opacity="1" stroke="#000000" stroke-opacity="1" stroke-width="3.2"/>
<circle clip-path="url(#clip192)" cx="393.269" cy="783.689" r="10.8" fill="#000080" fill-rule="evenodd" fill-opacity="1" stroke="#000000" stroke-opacity="1" stroke-width="3.2"/>
<circle clip-path="url(#clip192)" cx="426.053" cy="680.788" r="10.8" fill="#000080" fill-rule="evenodd" fill-opacity="1" stroke="#000000" stroke-opacity="1" stroke-width="3.2"/>
<circle clip-path="url(#clip192)" cx="458.837" cy="622.987" r="10.8" fill="#000080" fill-rule="evenodd" fill-opacity="1" stroke="#000000" stroke-opacity="1" stroke-width="3.2"/>
<circle clip-path="url(#clip192)" cx="491.621" cy="579.896" r="10.8" fill="#000080" fill-rule="evenodd" fill-opacity="1" stroke="#000000" stroke-opacity="1" stroke-width="3.2"/>
<circle clip-path="url(#clip192)" cx="524.405" cy="543.271" r="10.8" fill="#000080" fill-rule="evenodd" fill-opacity="1" stroke="#000000" stroke-opacity="1" stroke-width="3.2"/>
<circle clip-path="url(#clip192)" cx="557.188" cy="509.966" r="10.8" fill="#000080" fill-rule="evenodd" fill-opacity="1" stroke="#000000" stroke-opacity="1" stroke-width="3.2"/>
<circle clip-path="url(#clip192)" cx="589.972" cy="478.771" r="10.8" fill="#000080" fill-rule="evenodd" fill-opacity="1" stroke="#000000" stroke-opacity="1" stroke-width="3.2"/>
<circle clip-path="url(#clip192)" cx="622.756" cy="449.349" r="10.8" fill="#000080" fill-rule="evenodd" fill-opacity="1" stroke="#000000" stroke-opacity="1" stroke-width="3.2"/>
<circle clip-path="url(#clip192)" cx="655.54" cy="421.702" r="10.8" fill="#000080" fill-rule="evenodd" fill-opacity="1" stroke="#000000" stroke-opacity="1" stroke-width="3.2"/>
<circle clip-path="url(#clip192)" cx="688.323" cy="395.814" r="10.8" fill="#000080" fill-rule="evenodd" fill-opacity="1" stroke="#000000" stroke-opacity="1" stroke-width="3.2"/>
<circle clip-path="url(#clip192)" cx="721.107" cy="371.435" r="10.8" fill="#000080" fill-rule="evenodd" fill-opacity="1" stroke="#000000" stroke-opacity="1" stroke-width="3.2"/>
<circle clip-path="url(#clip192)" cx="753.891" cy="348.074" r="10.8" fill="#000080" fill-rule="evenodd" fill-opacity="1" stroke="#000000" stroke-opacity="1" stroke-width="3.2"/>
<circle clip-path="url(#clip192)" cx="786.675" cy="325.694" r="10.8" fill="#000080" fill-rule="evenodd" fill-opacity="1" stroke="#000000" stroke-opacity="1" stroke-width="3.2"/>
<circle clip-path="url(#clip192)" cx="819.459" cy="305.494" r="10.8" fill="#000080" fill-rule="evenodd" fill-opacity="1" stroke="#000000" stroke-opacity="1" stroke-width="3.2"/>
<circle clip-path="url(#clip192)" cx="852.242" cy="288.699" r="10.8" fill="#000080" fill-rule="evenodd" fill-opacity="1" stroke="#000000" stroke-opacity="1" stroke-width="3.2"/>
<circle clip-path="url(#clip192)" cx="885.026" cy="275.412" r="10.8" fill="#000080" fill-rule="evenodd" fill-opacity="1" stroke="#000000" stroke-opacity="1" stroke-width="3.2"/>
<circle clip-path="url(#clip192)" cx="917.81" cy="265.094" r="10.8" fill="#000080" fill-rule="evenodd" fill-opacity="1" stroke="#000000" stroke-opacity="1" stroke-width="3.2"/>
<circle clip-path="url(#clip192)" cx="950.594" cy="257.038" r="10.8" fill="#000080" fill-rule="evenodd" fill-opacity="1" stroke="#000000" stroke-opacity="1" stroke-width="3.2"/>
<circle clip-path="url(#clip192)" cx="983.377" cy="250.605" r="10.8" fill="#000080" fill-rule="evenodd" fill-opacity="1" stroke="#000000" stroke-opacity="1" stroke-width="3.2"/>
<circle clip-path="url(#clip192)" cx="1016.16" cy="245.292" r="10.8" fill="#000080" fill-rule="evenodd" fill-opacity="1" stroke="#000000" stroke-opacity="1" stroke-width="3.2"/>
<circle clip-path="url(#clip192)" cx="1048.95" cy="240.741" r="10.8" fill="#000080" fill-rule="evenodd" fill-opacity="1" stroke="#000000" stroke-opacity="1" stroke-width="3.2"/>
<circle clip-path="url(#clip192)" cx="1081.73" cy="236.7" r="10.8" fill="#000080" fill-rule="evenodd" fill-opacity="1" stroke="#000000" stroke-opacity="1" stroke-width="3.2"/>
<circle clip-path="url(#clip192)" cx="1114.51" cy="233.001" r="10.8" fill="#000080" fill-rule="evenodd" fill-opacity="1" stroke="#000000" stroke-opacity="1" stroke-width="3.2"/>
<circle clip-path="url(#clip192)" cx="1147.3" cy="229.53" r="10.8" fill="#000080" fill-rule="evenodd" fill-opacity="1" stroke="#000000" stroke-opacity="1" stroke-width="3.2"/>
<circle clip-path="url(#clip192)" cx="1180.08" cy="226.211" r="10.8" fill="#000080" fill-rule="evenodd" fill-opacity="1" stroke="#000000" stroke-opacity="1" stroke-width="3.2"/>
<circle clip-path="url(#clip192)" cx="1212.86" cy="222.994" r="10.8" fill="#000080" fill-rule="evenodd" fill-opacity="1" stroke="#000000" stroke-opacity="1" stroke-width="3.2"/>
<circle clip-path="url(#clip192)" cx="1245.65" cy="219.848" r="10.8" fill="#000080" fill-rule="evenodd" fill-opacity="1" stroke="#000000" stroke-opacity="1" stroke-width="3.2"/>
<circle clip-path="url(#clip192)" cx="1278.43" cy="216.751" r="10.8" fill="#000080" fill-rule="evenodd" fill-opacity="1" stroke="#000000" stroke-opacity="1" stroke-width="3.2"/>
<circle clip-path="url(#clip192)" cx="1311.22" cy="213.688" r="10.8" fill="#000080" fill-rule="evenodd" fill-opacity="1" stroke="#000000" stroke-opacity="1" stroke-width="3.2"/>
<circle clip-path="url(#clip192)" cx="1344" cy="210.649" r="10.8" fill="#000080" fill-rule="evenodd" fill-opacity="1" stroke="#000000" stroke-opacity="1" stroke-width="3.2"/>
<circle clip-path="url(#clip192)" cx="1376.78" cy="207.63" r="10.8" fill="#000080" fill-rule="evenodd" fill-opacity="1" stroke="#000000" stroke-opacity="1" stroke-width="3.2"/>
<circle clip-path="url(#clip192)" cx="1409.57" cy="204.627" r="10.8" fill="#000080" fill-rule="evenodd" fill-opacity="1" stroke="#000000" stroke-opacity="1" stroke-width="3.2"/>
<circle clip-path="url(#clip192)" cx="1442.35" cy="201.64" r="10.8" fill="#000080" fill-rule="evenodd" fill-opacity="1" stroke="#000000" stroke-opacity="1" stroke-width="3.2"/>
<circle clip-path="url(#clip192)" cx="1475.13" cy="198.669" r="10.8" fill="#000080" fill-rule="evenodd" fill-opacity="1" stroke="#000000" stroke-opacity="1" stroke-width="3.2"/>
<circle clip-path="url(#clip192)" cx="1507.92" cy="195.716" r="10.8" fill="#000080" fill-rule="evenodd" fill-opacity="1" stroke="#000000" stroke-opacity="1" stroke-width="3.2"/>
<circle clip-path="url(#clip192)" cx="1540.7" cy="192.779" r="10.8" fill="#000080" fill-rule="evenodd" fill-opacity="1" stroke="#000000" stroke-opacity="1" stroke-width="3.2"/>
<circle clip-path="url(#clip192)" cx="1573.49" cy="189.857" r="10.8" fill="#000080" fill-rule="evenodd" fill-opacity="1" stroke="#000000" stroke-opacity="1" stroke-width="3.2"/>
<circle clip-path="url(#clip192)" cx="1606.27" cy="186.937" r="10.8" fill="#000080" fill-rule="evenodd" fill-opacity="1" stroke="#000000" stroke-opacity="1" stroke-width="3.2"/>
<circle clip-path="url(#clip192)" cx="1639.05" cy="184.002" r="10.8" fill="#000080" fill-rule="evenodd" fill-opacity="1" stroke="#000000" stroke-opacity="1" stroke-width="3.2"/>
<circle clip-path="url(#clip192)" cx="1671.84" cy="181.027" r="10.8" fill="#000080" fill-rule="evenodd" fill-opacity="1" stroke="#000000" stroke-opacity="1" stroke-width="3.2"/>
<circle clip-path="url(#clip192)" cx="1704.62" cy="177.986" r="10.8" fill="#000080" fill-rule="evenodd" fill-opacity="1" stroke="#000000" stroke-opacity="1" stroke-width="3.2"/>
<circle clip-path="url(#clip192)" cx="1737.4" cy="174.858" r="10.8" fill="#000080" fill-rule="evenodd" fill-opacity="1" stroke="#000000" stroke-opacity="1" stroke-width="3.2"/>
<circle clip-path="url(#clip192)" cx="1770.19" cy="171.642" r="10.8" fill="#000080" fill-rule="evenodd" fill-opacity="1" stroke="#000000" stroke-opacity="1" stroke-width="3.2"/>
<circle clip-path="url(#clip192)" cx="1802.97" cy="168.369" r="10.8" fill="#000080" fill-rule="evenodd" fill-opacity="1" stroke="#000000" stroke-opacity="1" stroke-width="3.2"/>
<circle clip-path="url(#clip192)" cx="1835.76" cy="165.109" r="10.8" fill="#000080" fill-rule="evenodd" fill-opacity="1" stroke="#000000" stroke-opacity="1" stroke-width="3.2"/>
<circle clip-path="url(#clip192)" cx="1868.54" cy="161.971" r="10.8" fill="#000080" fill-rule="evenodd" fill-opacity="1" stroke="#000000" stroke-opacity="1" stroke-width="3.2"/>
<circle clip-path="url(#clip192)" cx="1901.32" cy="159.075" r="10.8" fill="#000080" fill-rule="evenodd" fill-opacity="1" stroke="#000000" stroke-opacity="1" stroke-width="3.2"/>
<circle clip-path="url(#clip192)" cx="1934.11" cy="156.517" r="10.8" fill="#000080" fill-rule="evenodd" fill-opacity="1" stroke="#000000" stroke-opacity="1" stroke-width="3.2"/>
<circle clip-path="url(#clip192)" cx="1966.89" cy="154.339" r="10.8" fill="#000080" fill-rule="evenodd" fill-opacity="1" stroke="#000000" stroke-opacity="1" stroke-width="3.2"/>
<circle clip-path="url(#clip192)" cx="1999.67" cy="152.525" r="10.8" fill="#000080" fill-rule="evenodd" fill-opacity="1" stroke="#000000" stroke-opacity="1" stroke-width="3.2"/>
<circle clip-path="url(#clip192)" cx="2032.46" cy="151.019" r="10.8" fill="#000080" fill-rule="evenodd" fill-opacity="1" stroke="#000000" stroke-opacity="1" stroke-width="3.2"/>
<circle clip-path="url(#clip192)" cx="2065.24" cy="149.751" r="10.8" fill="#000080" fill-rule="evenodd" fill-opacity="1" stroke="#000000" stroke-opacity="1" stroke-width="3.2"/>
<circle clip-path="url(#clip192)" cx="2098.03" cy="148.655" r="10.8" fill="#000080" fill-rule="evenodd" fill-opacity="1" stroke="#000000" stroke-opacity="1" stroke-width="3.2"/>
<circle clip-path="url(#clip192)" cx="2130.81" cy="147.675" r="10.8" fill="#000080" fill-rule="evenodd" fill-opacity="1" stroke="#000000" stroke-opacity="1" stroke-width="3.2"/>
<circle clip-path="url(#clip192)" cx="2163.59" cy="146.772" r="10.8" fill="#000080" fill-rule="evenodd" fill-opacity="1" stroke="#000000" stroke-opacity="1" stroke-width="3.2"/>
<circle clip-path="url(#clip192)" cx="2196.38" cy="145.916" r="10.8" fill="#000080" fill-rule="evenodd" fill-opacity="1" stroke="#000000" stroke-opacity="1" stroke-width="3.2"/>
<circle clip-path="url(#clip192)" cx="2229.16" cy="145.087" r="10.8" fill="#000080" fill-rule="evenodd" fill-opacity="1" stroke="#000000" stroke-opacity="1" stroke-width="3.2"/>
<circle clip-path="url(#clip192)" cx="2261.94" cy="144.272" r="10.8" fill="#000080" fill-rule="evenodd" fill-opacity="1" stroke="#000000" stroke-opacity="1" stroke-width="3.2"/>
<circle clip-path="url(#clip192)" cx="2294.73" cy="143.465" r="10.8" fill="#000080" fill-rule="evenodd" fill-opacity="1" stroke="#000000" stroke-opacity="1" stroke-width="3.2"/>
</svg>
