<?xml version="1.0" encoding="utf-8"?>
<svg xmlns="http://www.w3.org/2000/svg" xmlns:xlink="http://www.w3.org/1999/xlink" width="700" height="500" viewBox="0 0 2800 2000">
<defs>
  <clipPath id="clip090">
    <rect x="0" y="0" width="2800" height="2000"/>
  </clipPath>
</defs>
<path clip-path="url(#clip090)" d="M0 2000 L2800 2000 L2800 -4.44089e-14 L0 -4.44089e-14  Z" fill="#ffffff" fill-rule="evenodd" fill-opacity="1"/>
<defs>
  <clipPath id="clip091">
    <rect x="532" y="125" width="2142" height="1506"/>
  </clipPath>
</defs>
<path clip-path="url(#clip090)" d="M448.779 1630.83 L2674.02 1630.83 L2674.02 125.984 L448.779 125.984  Z" fill="#ffffff" fill-rule="evenodd" fill-opacity="1"/>
<defs>
  <clipPath id="clip092">
    <rect x="448" y="125" width="2226" height="1506"/>
  </clipPath>
</defs>
<polyline clip-path="url(#clip092)" style="stroke:#000000; stroke-linecap:round; stroke-linejoin:round; stroke-width:2; stroke-opacity:0.1; fill:none" points="503.394,1630.83 503.394,125.984 "/>
<polyline clip-path="url(#clip092)" style="stroke:#000000; stroke-linecap:round; stroke-linejoin:round; stroke-width:2; stroke-opacity:0.1; fill:none" points="921.577,1630.83 921.577,125.984 "/>
<polyline clip-path="url(#clip092)" style="stroke:#000000; stroke-linecap:round; stroke-linejoin:round; stroke-width:2; stroke-opacity:0.1; fill:none" points="1339.76,1630.83 1339.76,125.984 "/>
<polyline clip-path="url(#clip092)" style="stroke:#000000; stroke-linecap:round; stroke-linejoin:round; stroke-width:2; stroke-opacity:0.1; fill:none" points="1757.94,1630.83 1757.94,125.984 "/>
<polyline clip-path="url(#clip092)" style="stroke:#000000; stroke-linecap:round; stroke-linejoin:round; stroke-width:2; stroke-opacity:0.1; fill:none" points="2176.13,1630.83 2176.13,125.984 "/>
<polyline clip-path="url(#clip092)" style="stroke:#000000; stroke-linecap:round; stroke-linejoin:round; stroke-width:2; stroke-opacity:0.1; fill:none" points="2594.31,1630.83 2594.31,125.984 "/>
<polyline clip-path="url(#clip092)" style="stroke:#000000; stroke-linecap:round; stroke-linejoin:round; stroke-width:2; stroke-opacity:0.1; fill:none" points="448.779,1402.08 2674.02,1402.08 "/>
<polyline clip-path="url(#clip092)" style="stroke:#000000; stroke-linecap:round; stroke-linejoin:round; stroke-width:2; stroke-opacity:0.1; fill:none" points="448.779,1049.8 2674.02,1049.8 "/>
<polyline clip-path="url(#clip092)" style="stroke:#000000; stroke-linecap:round; stroke-linejoin:round; stroke-width:2; stroke-opacity:0.1; fill:none" points="448.779,697.524 2674.02,697.524 "/>
<polyline clip-path="url(#clip092)" style="stroke:#000000; stroke-linecap:round; stroke-linejoin:round; stroke-width:2; stroke-opacity:0.1; fill:none" points="448.779,345.245 2674.02,345.245 "/>
<polyline clip-path="url(#clip090)" style="stroke:#000000; stroke-linecap:round; stroke-linejoin:round; stroke-width:4; stroke-opacity:1; fill:none" points="448.779,1630.83 2674.02,1630.83 "/>
<polyline clip-path="url(#clip090)" style="stroke:#000000; stroke-linecap:round; stroke-linejoin:round; stroke-width:4; stroke-opacity:1; fill:none" points="503.394,1630.83 503.394,1611.93 "/>
<polyline clip-path="url(#clip090)" style="stroke:#000000; stroke-linecap:round; stroke-linejoin:round; stroke-width:4; stroke-opacity:1; fill:none" points="921.577,1630.83 921.577,1611.93 "/>
<polyline clip-path="url(#clip090)" style="stroke:#000000; stroke-linecap:round; stroke-linejoin:round; stroke-width:4; stroke-opacity:1; fill:none" points="1339.76,1630.83 1339.76,1611.93 "/>
<polyline clip-path="url(#clip090)" style="stroke:#000000; stroke-linecap:round; stroke-linejoin:round; stroke-width:4; stroke-opacity:1; fill:none" points="1757.94,1630.83 1757.94,1611.93 "/>
<polyline clip-path="url(#clip090)" style="stroke:#000000; stroke-linecap:round; stroke-linejoin:round; stroke-width:4; stroke-opacity:1; fill:none" points="2176.13,1630.83 2176.13,1611.93 "/>
<polyline clip-path="url(#clip090)" style="stroke:#000000; stroke-linecap:round; stroke-linejoin:round; stroke-width:4; stroke-opacity:1; fill:none" points="2594.31,1630.83 2594.31,1611.93 "/>
<path clip-path="url(#clip090)" d="M503.394 1667.88 Q498.88 1667.88 496.594 1672.34 Q494.337 1676.76 494.337 1685.67 Q494.337 1694.56 496.594 1699.01 Q498.88 1703.44 503.394 1703.44 Q507.936 1703.44 510.193 1699.01 Q512.479 1694.56 512.479 1685.67 Q512.479 1676.76 510.193 1672.34 Q507.936 1667.88 503.394 1667.88 M503.394 1663.25 Q510.656 1663.25 514.476 1669.01 Q518.324 1674.74 518.324 1685.67 Q518.324 1696.58 514.476 1702.34 Q510.656 1708.07 503.394 1708.07 Q496.131 1708.07 492.283 1702.34 Q488.463 1696.58 488.463 1685.67 Q488.463 1674.74 492.283 1669.01 Q496.131 1663.25 503.394 1663.25 Z" fill="#000000" fill-rule="nonzero" fill-opacity="1" /><path clip-path="url(#clip090)" d="M889.951 1664.03 L912.896 1664.03 L912.896 1668.95 L895.304 1668.95 L895.304 1679.54 Q896.577 1679.11 897.85 1678.9 Q899.123 1678.67 900.396 1678.67 Q907.63 1678.67 911.855 1682.64 Q916.079 1686.6 916.079 1693.37 Q916.079 1700.34 911.739 1704.22 Q907.399 1708.07 899.499 1708.07 Q896.78 1708.07 893.944 1707.61 Q891.137 1707.14 888.128 1706.22 L888.128 1700.34 Q890.732 1701.76 893.51 1702.46 Q896.288 1703.15 899.384 1703.15 Q904.389 1703.15 907.312 1700.52 Q910.234 1697.89 910.234 1693.37 Q910.234 1688.86 907.312 1686.22 Q904.389 1683.59 899.384 1683.59 Q897.04 1683.59 894.696 1684.11 Q892.381 1684.63 889.951 1685.73 L889.951 1664.03 Z" fill="#000000" fill-rule="nonzero" fill-opacity="1" /><path clip-path="url(#clip090)" d="M940.095 1667.88 Q935.581 1667.88 933.296 1672.34 Q931.039 1676.76 931.039 1685.67 Q931.039 1694.56 933.296 1699.01 Q935.581 1703.44 940.095 1703.44 Q944.638 1703.44 946.895 1699.01 Q949.181 1694.56 949.181 1685.67 Q949.181 1676.76 946.895 1672.34 Q944.638 1667.88 940.095 1667.88 M940.095 1663.25 Q947.358 1663.25 951.177 1669.01 Q955.026 1674.74 955.026 1685.67 Q955.026 1696.58 951.177 1702.34 Q947.358 1708.07 940.095 1708.07 Q932.833 1708.07 928.984 1702.34 Q925.165 1696.58 925.165 1685.67 Q925.165 1674.74 928.984 1669.01 Q932.833 1663.25 940.095 1663.25 Z" fill="#000000" fill-rule="nonzero" fill-opacity="1" /><path clip-path="url(#clip090)" d="M1289.27 1702.31 L1298.82 1702.31 L1298.82 1669.36 L1288.43 1671.44 L1288.43 1666.11 L1298.76 1664.03 L1304.6 1664.03 L1304.6 1702.31 L1314.15 1702.31 L1314.15 1707.23 L1289.27 1707.23 L1289.27 1702.31 Z" fill="#000000" fill-rule="nonzero" fill-opacity="1" /><path clip-path="url(#clip090)" d="M1338.46 1667.88 Q1333.94 1667.88 1331.66 1672.34 Q1329.4 1676.76 1329.4 1685.67 Q1329.4 1694.56 1331.66 1699.01 Q1333.94 1703.44 1338.46 1703.44 Q1343 1703.44 1345.26 1699.01 Q1347.54 1694.56 1347.54 1685.67 Q1347.54 1676.76 1345.26 1672.34 Q1343 1667.88 1338.46 1667.88 M1338.46 1663.25 Q1345.72 1663.25 1349.54 1669.01 Q1353.39 1674.74 1353.39 1685.67 Q1353.39 1696.58 1349.54 1702.34 Q1345.72 1708.07 1338.46 1708.07 Q1331.2 1708.07 1327.35 1702.34 Q1323.53 1696.58 1323.53 1685.67 Q1323.53 1674.74 1327.35 1669.01 Q1331.2 1663.25 1338.46 1663.25 Z" fill="#000000" fill-rule="nonzero" fill-opacity="1" /><path clip-path="url(#clip090)" d="M1376.16 1667.88 Q1371.65 1667.88 1369.36 1672.34 Q1367.1 1676.76 1367.1 1685.67 Q1367.1 1694.56 1369.36 1699.01 Q1371.65 1703.44 1376.16 1703.44 Q1380.7 1703.44 1382.96 1699.01 Q1385.25 1694.56 1385.25 1685.67 Q1385.25 1676.76 1382.96 1672.34 Q1380.7 1667.88 1376.16 1667.88 M1376.16 1663.25 Q1383.42 1663.25 1387.24 1669.01 Q1391.09 1674.74 1391.09 1685.67 Q1391.09 1696.58 1387.24 1702.34 Q1383.42 1708.07 1376.16 1708.07 Q1368.9 1708.07 1365.05 1702.34 Q1361.23 1696.58 1361.23 1685.67 Q1361.23 1674.74 1365.05 1669.01 Q1368.9 1663.25 1376.16 1663.25 Z" fill="#000000" fill-rule="nonzero" fill-opacity="1" /><path clip-path="url(#clip090)" d="M1707.45 1702.31 L1717 1702.31 L1717 1669.36 L1706.61 1671.44 L1706.61 1666.11 L1716.94 1664.03 L1722.79 1664.03 L1722.79 1702.31 L1732.34 1702.31 L1732.34 1707.23 L1707.45 1707.23 L1707.45 1702.31 Z" fill="#000000" fill-rule="nonzero" fill-opacity="1" /><path clip-path="url(#clip090)" d="M1744.2 1664.03 L1767.14 1664.03 L1767.14 1668.95 L1749.55 1668.95 L1749.55 1679.54 Q1750.83 1679.11 1752.1 1678.9 Q1753.37 1678.67 1754.64 1678.67 Q1761.88 1678.67 1766.1 1682.64 Q1770.33 1686.6 1770.33 1693.37 Q1770.33 1700.34 1765.99 1704.22 Q1761.65 1708.07 1753.75 1708.07 Q1751.03 1708.07 1748.19 1707.61 Q1745.39 1707.14 1742.38 1706.22 L1742.38 1700.34 Q1744.98 1701.76 1747.76 1702.46 Q1750.54 1703.15 1753.63 1703.15 Q1758.64 1703.15 1761.56 1700.52 Q1764.48 1697.89 1764.48 1693.37 Q1764.48 1688.86 1761.56 1686.22 Q1758.64 1683.59 1753.63 1683.59 Q1751.29 1683.59 1748.94 1684.11 Q1746.63 1684.63 1744.2 1685.73 L1744.2 1664.03 Z" fill="#000000" fill-rule="nonzero" fill-opacity="1" /><path clip-path="url(#clip090)" d="M1794.34 1667.88 Q1789.83 1667.88 1787.54 1672.34 Q1785.29 1676.76 1785.29 1685.67 Q1785.29 1694.56 1787.54 1699.01 Q1789.83 1703.44 1794.34 1703.44 Q1798.89 1703.44 1801.14 1699.01 Q1803.43 1694.56 1803.43 1685.67 Q1803.43 1676.76 1801.14 1672.34 Q1798.89 1667.88 1794.34 1667.88 M1794.34 1663.25 Q1801.61 1663.25 1805.43 1669.01 Q1809.27 1674.74 1809.27 1685.67 Q1809.27 1696.58 1805.43 1702.34 Q1801.61 1708.07 1794.34 1708.07 Q1787.08 1708.07 1783.23 1702.34 Q1779.41 1696.58 1779.41 1685.67 Q1779.41 1674.74 1783.23 1669.01 Q1787.08 1663.25 1794.34 1663.25 Z" fill="#000000" fill-rule="nonzero" fill-opacity="1" /><path clip-path="url(#clip090)" d="M2130.74 1702.31 L2151.14 1702.31 L2151.14 1707.23 L2123.71 1707.23 L2123.71 1702.31 Q2127.04 1698.87 2132.77 1693.08 Q2138.53 1687.27 2140 1685.59 Q2142.81 1682.43 2143.91 1680.26 Q2145.04 1678.06 2145.04 1675.95 Q2145.04 1672.51 2142.61 1670.34 Q2140.2 1668.17 2136.33 1668.17 Q2133.58 1668.17 2130.51 1669.12 Q2127.47 1670.08 2124 1672.02 L2124 1666.11 Q2127.53 1664.7 2130.6 1663.97 Q2133.66 1663.25 2136.21 1663.25 Q2142.92 1663.25 2146.92 1666.61 Q2150.91 1669.96 2150.91 1675.58 Q2150.91 1678.24 2149.9 1680.64 Q2148.91 1683.01 2146.28 1686.25 Q2145.56 1687.09 2141.68 1691.11 Q2137.8 1695.11 2130.74 1702.31 Z" fill="#000000" fill-rule="nonzero" fill-opacity="1" /><path clip-path="url(#clip090)" d="M2175.91 1667.88 Q2171.4 1667.88 2169.11 1672.34 Q2166.85 1676.76 2166.85 1685.67 Q2166.85 1694.56 2169.11 1699.01 Q2171.4 1703.44 2175.91 1703.44 Q2180.45 1703.44 2182.71 1699.01 Q2185 1694.56 2185 1685.67 Q2185 1676.76 2182.71 1672.34 Q2180.45 1667.88 2175.91 1667.88 M2175.91 1663.25 Q2183.17 1663.25 2186.99 1669.01 Q2190.84 1674.74 2190.84 1685.67 Q2190.84 1696.58 2186.99 1702.34 Q2183.17 1708.07 2175.91 1708.07 Q2168.65 1708.07 2164.8 1702.34 Q2160.98 1696.58 2160.98 1685.67 Q2160.98 1674.74 2164.8 1669.01 Q2168.65 1663.25 2175.91 1663.25 Z" fill="#000000" fill-rule="nonzero" fill-opacity="1" /><path clip-path="url(#clip090)" d="M2213.61 1667.88 Q2209.1 1667.88 2206.81 1672.34 Q2204.56 1676.76 2204.56 1685.67 Q2204.56 1694.56 2206.81 1699.01 Q2209.1 1703.44 2213.61 1703.44 Q2218.15 1703.44 2220.41 1699.01 Q2222.7 1694.56 2222.7 1685.67 Q2222.7 1676.76 2220.41 1672.34 Q2218.15 1667.88 2213.61 1667.88 M2213.61 1663.25 Q2220.87 1663.25 2224.69 1669.01 Q2228.54 1674.74 2228.54 1685.67 Q2228.54 1696.58 2224.69 1702.34 Q2220.87 1708.07 2213.61 1708.07 Q2206.35 1708.07 2202.5 1702.34 Q2198.68 1696.58 2198.68 1685.67 Q2198.68 1674.74 2202.5 1669.01 Q2206.35 1663.25 2213.61 1663.25 Z" fill="#000000" fill-rule="nonzero" fill-opacity="1" /><path clip-path="url(#clip090)" d="M2548.93 1702.31 L2569.32 1702.31 L2569.32 1707.23 L2541.89 1707.23 L2541.89 1702.31 Q2545.22 1698.87 2550.95 1693.08 Q2556.71 1687.27 2558.18 1685.59 Q2560.99 1682.43 2562.09 1680.26 Q2563.22 1678.06 2563.22 1675.95 Q2563.22 1672.51 2560.79 1670.34 Q2558.39 1668.17 2554.51 1668.17 Q2551.76 1668.17 2548.69 1669.12 Q2545.66 1670.08 2542.18 1672.02 L2542.18 1666.11 Q2545.71 1664.7 2548.78 1663.97 Q2551.85 1663.25 2554.39 1663.25 Q2561.11 1663.25 2565.1 1666.61 Q2569.09 1669.96 2569.09 1675.58 Q2569.09 1678.24 2568.08 1680.64 Q2567.1 1683.01 2564.46 1686.25 Q2563.74 1687.09 2559.86 1691.11 Q2555.99 1695.11 2548.93 1702.31 Z" fill="#000000" fill-rule="nonzero" fill-opacity="1" /><path clip-path="url(#clip090)" d="M2581.65 1664.03 L2604.6 1664.03 L2604.6 1668.95 L2587 1668.95 L2587 1679.54 Q2588.28 1679.11 2589.55 1678.9 Q2590.82 1678.67 2592.1 1678.67 Q2599.33 1678.67 2603.55 1682.64 Q2607.78 1686.6 2607.78 1693.37 Q2607.78 1700.34 2603.44 1704.22 Q2599.1 1708.07 2591.2 1708.07 Q2588.48 1708.07 2585.64 1707.61 Q2582.84 1707.14 2579.83 1706.22 L2579.83 1700.34 Q2582.43 1701.76 2585.21 1702.46 Q2587.99 1703.15 2591.08 1703.15 Q2596.09 1703.15 2599.01 1700.52 Q2601.93 1697.89 2601.93 1693.37 Q2601.93 1688.86 2599.01 1686.22 Q2596.09 1683.59 2591.08 1683.59 Q2588.74 1683.59 2586.4 1684.11 Q2584.08 1684.63 2581.65 1685.73 L2581.65 1664.03 Z" fill="#000000" fill-rule="nonzero" fill-opacity="1" /><path clip-path="url(#clip090)" d="M2631.8 1667.88 Q2627.28 1667.88 2625 1672.34 Q2622.74 1676.76 2622.74 1685.67 Q2622.74 1694.56 2625 1699.01 Q2627.28 1703.44 2631.8 1703.44 Q2636.34 1703.44 2638.6 1699.01 Q2640.88 1694.56 2640.88 1685.67 Q2640.88 1676.76 2638.6 1672.34 Q2636.34 1667.88 2631.8 1667.88 M2631.8 1663.25 Q2639.06 1663.25 2642.88 1669.01 Q2646.73 1674.74 2646.73 1685.67 Q2646.73 1696.58 2642.88 1702.34 Q2639.06 1708.07 2631.8 1708.07 Q2624.53 1708.07 2620.68 1702.34 Q2616.86 1696.58 2616.86 1685.67 Q2616.86 1674.74 2620.68 1669.01 Q2624.53 1663.25 2631.8 1663.25 Z" fill="#000000" fill-rule="nonzero" fill-opacity="1" /><path clip-path="url(#clip090)" d="M1508.74 1747.14 L1515.17 1747.14 L1515.17 1789.24 L1538.31 1789.24 L1538.31 1794.66 L1508.74 1794.66 L1508.74 1747.14 Z" fill="#000000" fill-rule="nonzero" fill-opacity="1" /><path clip-path="url(#clip090)" d="M1561 1776.74 Q1553.9 1776.74 1551.16 1778.36 Q1548.43 1779.98 1548.43 1783.9 Q1548.43 1787.02 1550.46 1788.86 Q1552.53 1790.68 1556.07 1790.68 Q1560.94 1790.68 1563.86 1787.24 Q1566.82 1783.77 1566.82 1778.04 L1566.82 1776.74 L1561 1776.74 M1572.68 1774.32 L1572.68 1794.66 L1566.82 1794.66 L1566.82 1789.24 Q1564.82 1792.49 1561.83 1794.05 Q1558.84 1795.58 1554.51 1795.58 Q1549.03 1795.58 1545.79 1792.52 Q1542.57 1789.44 1542.57 1784.28 Q1542.57 1778.26 1546.58 1775.21 Q1550.62 1772.15 1558.61 1772.15 L1566.82 1772.15 L1566.82 1771.58 Q1566.82 1767.54 1564.15 1765.34 Q1561.51 1763.11 1556.7 1763.11 Q1553.65 1763.11 1550.75 1763.85 Q1547.85 1764.58 1545.18 1766.04 L1545.18 1760.63 Q1548.4 1759.39 1551.42 1758.78 Q1554.44 1758.15 1557.31 1758.15 Q1565.04 1758.15 1568.86 1762.16 Q1572.68 1766.17 1572.68 1774.32 Z" fill="#000000" fill-rule="nonzero" fill-opacity="1" /><path clip-path="url(#clip090)" d="M1608.2 1776.42 Q1608.2 1770.05 1605.56 1766.55 Q1602.95 1763.05 1598.21 1763.05 Q1593.5 1763.05 1590.85 1766.55 Q1588.24 1770.05 1588.24 1776.42 Q1588.24 1782.75 1590.85 1786.25 Q1593.5 1789.75 1598.21 1789.75 Q1602.95 1789.75 1605.56 1786.25 Q1608.2 1782.75 1608.2 1776.42 M1614.06 1790.23 Q1614.06 1799.33 1610.02 1803.76 Q1605.97 1808.21 1597.63 1808.21 Q1594.55 1808.21 1591.81 1807.74 Q1589.07 1807.29 1586.49 1806.34 L1586.49 1800.64 Q1589.07 1802.04 1591.59 1802.71 Q1594.1 1803.38 1596.71 1803.38 Q1602.47 1803.38 1605.34 1800.35 Q1608.2 1797.36 1608.2 1791.28 L1608.2 1788.39 Q1606.39 1791.54 1603.55 1793.1 Q1600.72 1794.66 1596.77 1794.66 Q1590.22 1794.66 1586.21 1789.66 Q1582.2 1784.66 1582.2 1776.42 Q1582.2 1768.14 1586.21 1763.15 Q1590.22 1758.15 1596.77 1758.15 Q1600.72 1758.15 1603.55 1759.71 Q1606.39 1761.27 1608.2 1764.42 L1608.2 1759.01 L1614.06 1759.01 L1614.06 1790.23 Z" fill="#000000" fill-rule="nonzero" fill-opacity="1" /><polyline clip-path="url(#clip090)" style="stroke:#000000; stroke-linecap:round; stroke-linejoin:round; stroke-width:4; stroke-opacity:1; fill:none" points="448.779,1630.83 448.779,125.984 "/>
<polyline clip-path="url(#clip090)" style="stroke:#000000; stroke-linecap:round; stroke-linejoin:round; stroke-width:4; stroke-opacity:1; fill:none" points="448.779,1402.08 467.676,1402.08 "/>
<polyline clip-path="url(#clip090)" style="stroke:#000000; stroke-linecap:round; stroke-linejoin:round; stroke-width:4; stroke-opacity:1; fill:none" points="448.779,1049.8 467.676,1049.8 "/>
<polyline clip-path="url(#clip090)" style="stroke:#000000; stroke-linecap:round; stroke-linejoin:round; stroke-width:4; stroke-opacity:1; fill:none" points="448.779,697.524 467.676,697.524 "/>
<polyline clip-path="url(#clip090)" style="stroke:#000000; stroke-linecap:round; stroke-linejoin:round; stroke-width:4; stroke-opacity:1; fill:none" points="448.779,345.245 467.676,345.245 "/>
<path clip-path="url(#clip090)" d="M335.309 1384.33 Q330.795 1384.33 328.51 1388.79 Q326.253 1393.21 326.253 1402.13 Q326.253 1411.01 328.51 1415.47 Q330.795 1419.89 335.309 1419.89 Q339.852 1419.89 342.109 1415.47 Q344.395 1411.01 344.395 1402.13 Q344.395 1393.21 342.109 1388.79 Q339.852 1384.33 335.309 1384.33 M335.309 1379.7 Q342.572 1379.7 346.391 1385.46 Q350.24 1391.19 350.24 1402.13 Q350.24 1413.04 346.391 1418.79 Q342.572 1424.52 335.309 1424.52 Q328.047 1424.52 324.198 1418.79 Q320.379 1413.04 320.379 1402.13 Q320.379 1391.19 324.198 1385.46 Q328.047 1379.7 335.309 1379.7 Z" fill="#000000" fill-rule="nonzero" fill-opacity="1" /><path clip-path="url(#clip090)" d="M360.512 1416.33 L366.617 1416.33 L366.617 1423.68 L360.512 1423.68 L360.512 1416.33 Z" fill="#000000" fill-rule="nonzero" fill-opacity="1" /><path clip-path="url(#clip090)" d="M391.848 1384.33 Q387.335 1384.33 385.049 1388.79 Q382.792 1393.21 382.792 1402.13 Q382.792 1411.01 385.049 1415.47 Q387.335 1419.89 391.848 1419.89 Q396.391 1419.89 398.648 1415.47 Q400.934 1411.01 400.934 1402.13 Q400.934 1393.21 398.648 1388.79 Q396.391 1384.33 391.848 1384.33 M391.848 1379.7 Q399.111 1379.7 402.93 1385.46 Q406.779 1391.19 406.779 1402.13 Q406.779 1413.04 402.93 1418.79 Q399.111 1424.52 391.848 1424.52 Q384.586 1424.52 380.737 1418.79 Q376.918 1413.04 376.918 1402.13 Q376.918 1391.19 380.737 1385.46 Q384.586 1379.7 391.848 1379.7 Z" fill="#000000" fill-rule="nonzero" fill-opacity="1" /><path clip-path="url(#clip090)" d="M336.843 1032.05 Q332.329 1032.05 330.043 1036.51 Q327.786 1040.94 327.786 1049.85 Q327.786 1058.73 330.043 1063.19 Q332.329 1067.61 336.843 1067.61 Q341.386 1067.61 343.643 1063.19 Q345.928 1058.73 345.928 1049.85 Q345.928 1040.94 343.643 1036.51 Q341.386 1032.05 336.843 1032.05 M336.843 1027.42 Q344.106 1027.42 347.925 1033.18 Q351.773 1038.91 351.773 1049.85 Q351.773 1060.76 347.925 1066.51 Q344.106 1072.24 336.843 1072.24 Q329.58 1072.24 325.732 1066.51 Q321.912 1060.76 321.912 1049.85 Q321.912 1038.91 325.732 1033.18 Q329.58 1027.42 336.843 1027.42 Z" fill="#000000" fill-rule="nonzero" fill-opacity="1" /><path clip-path="url(#clip090)" d="M362.045 1064.05 L368.151 1064.05 L368.151 1071.4 L362.045 1071.4 L362.045 1064.05 Z" fill="#000000" fill-rule="nonzero" fill-opacity="1" /><path clip-path="url(#clip090)" d="M381.895 1066.48 L391.443 1066.48 L391.443 1033.53 L381.056 1035.61 L381.056 1030.29 L391.385 1028.2 L397.23 1028.2 L397.23 1066.48 L406.779 1066.48 L406.779 1071.4 L381.895 1071.4 L381.895 1066.48 Z" fill="#000000" fill-rule="nonzero" fill-opacity="1" /><path clip-path="url(#clip090)" d="M337.306 679.773 Q332.792 679.773 330.506 684.229 Q328.249 688.656 328.249 697.568 Q328.249 706.451 330.506 710.907 Q332.792 715.334 337.306 715.334 Q341.849 715.334 344.106 710.907 Q346.391 706.451 346.391 697.568 Q346.391 688.656 344.106 684.229 Q341.849 679.773 337.306 679.773 M337.306 675.143 Q344.569 675.143 348.388 680.901 Q352.236 686.63 352.236 697.568 Q352.236 708.476 348.388 714.234 Q344.569 719.963 337.306 719.963 Q330.043 719.963 326.195 714.234 Q322.375 708.476 322.375 697.568 Q322.375 686.63 326.195 680.901 Q330.043 675.143 337.306 675.143 Z" fill="#000000" fill-rule="nonzero" fill-opacity="1" /><path clip-path="url(#clip090)" d="M362.508 711.775 L368.614 711.775 L368.614 719.124 L362.508 719.124 L362.508 711.775 Z" fill="#000000" fill-rule="nonzero" fill-opacity="1" /><path clip-path="url(#clip090)" d="M386.38 714.205 L406.779 714.205 L406.779 719.124 L379.348 719.124 L379.348 714.205 Q382.676 710.762 388.405 704.975 Q394.163 699.159 395.639 697.481 Q398.446 694.327 399.545 692.157 Q400.674 689.958 400.674 687.845 Q400.674 684.402 398.243 682.232 Q395.841 680.062 391.964 680.062 Q389.215 680.062 386.148 681.017 Q383.11 681.972 379.638 683.91 L379.638 678.008 Q383.168 676.59 386.235 675.866 Q389.302 675.143 391.848 675.143 Q398.561 675.143 402.554 678.499 Q406.547 681.856 406.547 687.469 Q406.547 690.131 405.535 692.533 Q404.551 694.906 401.918 698.146 Q401.194 698.985 397.317 703.007 Q393.44 707 386.38 714.205 Z" fill="#000000" fill-rule="nonzero" fill-opacity="1" /><path clip-path="url(#clip090)" d="M336.12 327.493 Q331.606 327.493 329.32 331.949 Q327.063 336.376 327.063 345.288 Q327.063 354.171 329.32 358.627 Q331.606 363.054 336.12 363.054 Q340.662 363.054 342.919 358.627 Q345.205 354.171 345.205 345.288 Q345.205 336.376 342.919 331.949 Q340.662 327.493 336.12 327.493 M336.12 322.863 Q343.382 322.863 347.202 328.622 Q351.05 334.351 351.05 345.288 Q351.05 356.197 347.202 361.955 Q343.382 367.684 336.12 367.684 Q328.857 367.684 325.008 361.955 Q321.189 356.197 321.189 345.288 Q321.189 334.351 325.008 328.622 Q328.857 322.863 336.12 322.863 Z" fill="#000000" fill-rule="nonzero" fill-opacity="1" /><path clip-path="url(#clip090)" d="M361.322 359.495 L367.427 359.495 L367.427 366.845 L361.322 366.845 L361.322 359.495 Z" fill="#000000" fill-rule="nonzero" fill-opacity="1" /><path clip-path="url(#clip090)" d="M397.867 343.552 Q402.062 344.449 404.406 347.285 Q406.779 350.12 406.779 354.287 Q406.779 360.682 402.381 364.183 Q397.983 367.684 389.881 367.684 Q387.161 367.684 384.267 367.134 Q381.403 366.613 378.336 365.543 L378.336 359.9 Q380.766 361.318 383.66 362.042 Q386.553 362.765 389.707 362.765 Q395.205 362.765 398.069 360.595 Q400.963 358.425 400.963 354.287 Q400.963 350.468 398.272 348.326 Q395.61 346.156 390.836 346.156 L385.801 346.156 L385.801 341.353 L391.067 341.353 Q395.378 341.353 397.664 339.646 Q399.95 337.91 399.95 334.669 Q399.95 331.341 397.578 329.576 Q395.234 327.782 390.836 327.782 Q388.434 327.782 385.685 328.303 Q382.936 328.824 379.638 329.924 L379.638 324.715 Q382.965 323.789 385.859 323.326 Q388.781 322.863 391.356 322.863 Q398.012 322.863 401.889 325.902 Q405.766 328.911 405.766 334.061 Q405.766 337.649 403.712 340.138 Q401.657 342.597 397.867 343.552 Z" fill="#000000" fill-rule="nonzero" fill-opacity="1" /><path clip-path="url(#clip090)" d="M222.937 1043.9 L246.585 1052.62 L246.585 1035.15 L222.937 1043.9 M216.603 1047.53 L216.603 1040.24 L264.123 1022.13 L264.123 1028.81 L251.933 1033.14 L251.933 1054.56 L264.123 1058.89 L264.123 1065.67 L216.603 1047.53 Z" fill="#000000" fill-rule="nonzero" fill-opacity="1" /><path clip-path="url(#clip090)" d="M220.263 980.753 L227.043 980.753 Q224.019 983.999 222.523 987.691 Q221.027 991.351 221.027 995.489 Q221.027 1003.64 226.024 1007.97 Q230.989 1012.29 240.411 1012.29 Q249.8 1012.29 254.797 1007.97 Q259.762 1003.64 259.762 995.489 Q259.762 991.351 258.266 987.691 Q256.77 983.999 253.747 980.753 L260.463 980.753 Q262.754 984.126 263.9 987.914 Q265.046 991.67 265.046 995.871 Q265.046 1006.66 258.457 1012.87 Q251.837 1019.07 240.411 1019.07 Q228.952 1019.07 222.364 1012.87 Q215.743 1006.66 215.743 995.871 Q215.743 991.606 216.889 987.85 Q218.003 984.063 220.263 980.753 Z" fill="#000000" fill-rule="nonzero" fill-opacity="1" /><path clip-path="url(#clip090)" d="M216.603 970.822 L216.603 943.513 L222.014 943.513 L222.014 964.393 L236.018 964.393 L236.018 945.55 L241.429 945.55 L241.429 964.393 L264.123 964.393 L264.123 970.822 L216.603 970.822 Z" fill="#000000" fill-rule="nonzero" fill-opacity="1" /><path clip-path="url(#clip090)" d="M232.581 899.049 Q232.581 903.759 236.273 906.497 Q239.933 909.234 246.331 909.234 Q252.728 909.234 256.42 906.528 Q260.081 903.791 260.081 899.049 Q260.081 894.37 256.389 891.633 Q252.696 888.895 246.331 888.895 Q239.997 888.895 236.305 891.633 Q232.581 894.37 232.581 899.049 M227.616 899.049 Q227.616 891.41 232.581 887.049 Q237.546 882.689 246.331 882.689 Q255.084 882.689 260.081 887.049 Q265.046 891.41 265.046 899.049 Q265.046 906.719 260.081 911.08 Q255.084 915.409 246.331 915.409 Q237.546 915.409 232.581 911.08 Q227.616 906.719 227.616 899.049 Z" fill="#000000" fill-rule="nonzero" fill-opacity="1" /><path clip-path="url(#clip090)" d="M214.598 854.934 L219.467 854.934 L219.467 860.536 Q219.467 863.687 220.741 864.928 Q222.014 866.138 225.324 866.138 L228.475 866.138 L228.475 856.494 L233.026 856.494 L233.026 866.138 L264.123 866.138 L264.123 872.026 L233.026 872.026 L233.026 877.628 L228.475 877.628 L228.475 872.026 L225.992 872.026 Q220.04 872.026 217.335 869.257 Q214.598 866.488 214.598 860.472 L214.598 854.934 Z" fill="#000000" fill-rule="nonzero" fill-opacity="1" /><path clip-path="url(#clip090)" d="M214.311 821.769 L279.496 821.769 L279.496 827.18 L214.311 827.18 L214.311 821.769 Z" fill="#000000" fill-rule="nonzero" fill-opacity="1" /><path clip-path="url(#clip090)" d="M257.343 774.695 L244.58 774.695 L244.58 785.198 L239.297 785.198 L239.297 768.329 L259.699 768.329 Q262.34 772.053 263.709 776.541 Q265.046 781.028 265.046 786.121 Q265.046 797.261 258.553 803.563 Q252.028 809.833 240.411 809.833 Q228.761 809.833 222.268 803.563 Q215.743 797.261 215.743 786.121 Q215.743 781.474 216.889 777.305 Q218.035 773.103 220.263 769.57 L227.106 769.57 Q224.083 773.135 222.555 777.145 Q221.027 781.156 221.027 785.58 Q221.027 794.301 225.897 798.693 Q230.767 803.054 240.411 803.054 Q250.023 803.054 254.893 798.693 Q259.762 794.301 259.762 785.58 Q259.762 782.174 259.189 779.501 Q258.585 776.827 257.343 774.695 Z" fill="#000000" fill-rule="nonzero" fill-opacity="1" /><path clip-path="url(#clip090)" d="M274.945 729.753 L279.496 729.753 L279.496 763.618 L274.945 763.618 L274.945 729.753 Z" fill="#000000" fill-rule="nonzero" fill-opacity="1" /><path clip-path="url(#clip090)" d="M218.353 718.454 L228.475 718.454 L228.475 706.391 L233.026 706.391 L233.026 718.454 L252.378 718.454 Q256.739 718.454 257.98 717.276 Q259.221 716.066 259.221 712.406 L259.221 706.391 L264.123 706.391 L264.123 712.406 Q264.123 719.186 261.608 721.764 Q259.062 724.342 252.378 724.342 L233.026 724.342 L233.026 728.639 L228.475 728.639 L228.475 724.342 L218.353 724.342 L218.353 718.454 Z" fill="#000000" fill-rule="nonzero" fill-opacity="1" /><path clip-path="url(#clip090)" d="M214.311 691.145 L279.496 691.145 L279.496 696.556 L214.311 696.556 L214.311 691.145 Z" fill="#000000" fill-rule="nonzero" fill-opacity="1" /><polyline clip-path="url(#clip092)" style="stroke:#ff0000; stroke-linecap:round; stroke-linejoin:round; stroke-width:8; stroke-opacity:1; fill:none" stroke-dasharray="32, 20" points="511.757,331.161 520.121,465.704 528.485,268.267 536.848,396.319 545.212,463.881 553.576,540.526 561.939,543.684 570.303,413.147 578.667,472.963 587.03,438.533 595.394,689.181 603.758,674.806 612.121,613.121 620.485,698.327 628.849,671.503 637.212,864.752 645.576,558.632 653.94,629.892 662.303,847.313 670.667,701.167 679.031,857.917 687.394,837.951 695.758,767.94 704.122,958.623 712.485,895.179 720.849,883.931 729.213,958.15 737.576,996.767 745.94,835.475 754.304,927.798 762.667,978.881 771.031,1022.13 779.395,977.363 787.758,1047.98 796.122,1014.5 804.486,994.897 812.849,1033.78 821.213,982.211 829.577,953.968 837.94,1081.66 846.304,1039.5 854.668,1035.82 863.031,1053.21 871.395,1182.31 879.759,1102.23 888.122,972.796 896.486,1235.03 904.85,1156.51 913.213,1071.64 921.577,1196.43 929.941,1126.02 938.304,1159.32 946.668,1135.81 955.032,1178.75 963.395,1096.91 971.759,1147.24 980.123,1180.28 988.486,1166.01 996.85,1110.09 1005.21,1251.43 1013.58,1201.21 1021.94,1218.34 1030.3,1102.86 1038.67,1262.07 1047.03,1240.92 1055.4,1208.74 1063.76,1283.68 1072.12,1198.23 1080.49,1263.87 1088.85,1269.01 1097.21,1271.62 1105.58,1149.34 1113.94,1284.87 1122.3,1248.77 1130.67,1193.68 1139.03,1155.35 1147.4,1252.34 1155.76,1281.44 1164.12,1247.17 1172.49,1310.09 1180.85,1259.07 1189.21,1230.22 1197.58,1332.21 1205.94,1321.01 1214.31,1279.38 1222.67,1329.84 1231.03,1324.24 1239.4,1279.16 1247.76,1342.13 1256.12,1269.51 1264.49,1284.15 1272.85,1207.12 1281.21,1344.3 1289.58,1236.06 1297.94,1234.59 1306.31,1278.95 1314.67,1153.1 1323.03,1241.74 1331.4,1260.25 1339.76,1211.95 1348.12,1203.27 1356.49,1215.79 1364.85,1212.22 1373.21,1293.2 1381.58,1176.01 1389.94,1215.51 1398.31,1246.22 1406.67,1334.68 1415.03,1229.92 1423.4,1342.05 1431.76,1255.08 1440.12,1326.77 1448.49,1241.53 1456.85,1270.08 1465.22,1245.62 1473.58,1222.13 1481.94,1239.91 1490.31,1272.51 1498.67,1192.2 1507.03,1157.43 1515.4,1194.6 1523.76,1212.66 1532.12,1256.55 1540.49,1216.54 1548.85,1275.1 1557.22,1228.06 1565.58,1264.04 1573.94,1268.16 1582.31,1199.17 1590.67,1199.58 1599.03,1142.6 1607.4,1302.65 1615.76,1262.79 1624.12,1248.46 1632.49,1284.03 1640.85,1258.6 1649.22,1313.02 1657.58,1173.97 1665.94,1227.07 1674.31,1274.53 1682.67,1283.27 1691.03,1256.27 1699.4,1254.91 1707.76,1260.87 1716.13,1249.09 1724.49,1222.01 1732.85,1406.91 1741.22,1261.63 1749.58,1255.32 1757.94,1305.5 1766.31,1141.38 1774.67,1223.41 1783.03,1237.08 1791.4,1248.22 1799.76,1256.29 1808.13,1214.41 1816.49,1293.56 1824.85,1235.81 1833.22,1278.88 1841.58,1175.72 1849.94,1175.56 1858.31,1238.03 1866.67,1258.11 1875.03,1290.42 1883.4,1301.19 1891.76,1317.23 1900.13,1346.11 1908.49,1232.44 1916.85,1231.03 1925.22,1262.76 1933.58,1308.47 1941.94,1226.42 1950.31,1239.52 1958.67,1256.52 1967.04,1399.55 1975.4,1282.47 1983.76,1283.08 1992.13,1385.8 2000.49,1300.69 2008.85,1401.95 2017.22,1391.08 2025.58,1290.89 2033.94,1339.67 2042.31,1421.99 2050.67,1396.84 2059.04,1445.28 2067.4,1375.9 2075.76,1403.52 2084.13,1368.55 2092.49,1409.64 2100.85,1402.01 2109.22,1366.68 2117.58,1408.92 2125.94,1388.64 2134.31,1406.54 2142.67,1424.6 2151.04,1334.52 2159.4,1333.16 2167.76,1382.63 2176.13,1426.03 2184.49,1322.02 2192.85,1362.52 2201.22,1280.15 2209.58,1333.62 2217.95,1436.8 2226.31,1321.15 2234.67,1338.11 2243.04,1355.38 2251.4,1377.42 2259.76,1426.94 2268.13,1291.73 2276.49,1347.54 2284.85,1430.37 2293.22,1307.14 2301.58,1387.04 2309.95,1319.56 2318.31,1349.2 2326.67,1404.11 2335.04,1393.93 2343.4,1480.71 2351.76,1331.94 2360.13,1414.75 2368.49,1448.82 2376.85,1368.74 2385.22,1462.47 2393.58,1464.81 2401.95,1470.31 2410.31,1483.05 2418.67,1496.58 2427.04,1547.97 2435.4,1454.66 2443.76,1500.56 2452.13,1543.31 2460.49,1461.5 2468.86,1481 2477.22,1521.75 2485.58,1465.88 2493.95,1584.89 2502.31,1465.97 2510.67,1497.58 2519.04,1550.54 2527.4,1447.45 2535.76,1588.24 2544.13,1512.21 2552.49,1496.76 2560.86,1531.68 2569.22,1559.77 2577.58,1480.39 2585.95,1490.71 2594.31,1557.07 2602.67,1490.62 2611.04,1546.44 "/>
<polyline clip-path="url(#clip092)" style="stroke:#000080; stroke-linecap:round; stroke-linejoin:round; stroke-width:8; stroke-opacity:1; fill:none" points="511.757,324.793 520.121,429.093 528.485,502.563 536.848,560.234 545.212,625.312 553.576,683.768 561.939,719.749 570.303,771.173 578.667,823.577 587.03,860.233 595.394,897.726 603.758,930.093 612.121,969.088 620.485,996.391 628.849,1027.82 637.212,1060 645.576,1079.64 653.94,1106.36 662.303,1127.49 670.667,1150.8 679.031,1171.16 687.394,1180.37 695.758,1199.81 704.122,1212.59 712.485,1230.24 720.849,1244.43 729.213,1249.46 737.576,1261.86 745.94,1271.82 754.304,1289.32 762.667,1294.71 771.031,1302.45 779.395,1313.64 787.758,1319.21 796.122,1330.38 804.486,1322.07 812.849,1329.83 821.213,1336.84 829.577,1342.69 837.94,1346.66 846.304,1358.48 854.668,1363.1 863.031,1370.45 871.395,1370.18 879.759,1365.93 888.122,1377.16 896.486,1380.37 904.85,1381.18 913.213,1385.71 921.577,1387.7 929.941,1390.11 938.304,1388.42 946.668,1388.87 955.032,1384.83 963.395,1395.22 971.759,1392.58 980.123,1394.15 988.486,1391.77 996.85,1395.34 1005.21,1397.81 1013.58,1397.73 1021.94,1394.63 1030.3,1402.89 1038.67,1403.69 1047.03,1399.89 1055.4,1402.77 1063.76,1407.99 1072.12,1400.97 1080.49,1411.42 1088.85,1405.04 1097.21,1408.34 1105.58,1411.56 1113.94,1407.85 1122.3,1408.93 1130.67,1412 1139.03,1403.14 1147.4,1415.34 1155.76,1412.8 1164.12,1416.25 1172.49,1419.2 1180.85,1410.52 1189.21,1411.06 1197.58,1413.72 1205.94,1413.66 1214.31,1416.95 1222.67,1412.81 1231.03,1417.88 1239.4,1410.45 1247.76,1416.39 1256.12,1421.82 1264.49,1419.4 1272.85,1428.67 1281.21,1414.09 1289.58,1419.32 1297.94,1420.83 1306.31,1421.63 1314.67,1416.04 1323.03,1414.98 1331.4,1425.29 1339.76,1415.33 1348.12,1418.22 1356.49,1411.36 1364.85,1413 1373.21,1416.86 1381.58,1417.46 1389.94,1416.35 1398.31,1417.32 1406.67,1414.84 1415.03,1417.43 1423.4,1413.47 1431.76,1421.49 1440.12,1421.91 1448.49,1416.82 1456.85,1413.19 1465.22,1415.07 1473.58,1411.43 1481.94,1418.83 1490.31,1413.56 1498.67,1416.28 1507.03,1415.38 1515.4,1417.55 1523.76,1409.58 1532.12,1418.29 1540.49,1418.41 1548.85,1414.4 1557.22,1411.83 1565.58,1414.7 1573.94,1410.42 1582.31,1408.48 1590.67,1417.09 1599.03,1413.23 1607.4,1415.38 1615.76,1410.87 1624.12,1417.74 1632.49,1412.47 1640.85,1414.09 1649.22,1411.56 1657.58,1409.71 1665.94,1412.25 1674.31,1416.04 1682.67,1418.66 1691.03,1412.15 1699.4,1412.71 1707.76,1406.62 1716.13,1411.86 1724.49,1408.15 1732.85,1408.42 1741.22,1410.68 1749.58,1415.91 1757.94,1418.69 1766.31,1417.09 1774.67,1410.81 1783.03,1414.53 1791.4,1420.11 1799.76,1415.74 1808.13,1414.66 1816.49,1422.61 1824.85,1420.76 1833.22,1415.44 1841.58,1415.7 1849.94,1417.07 1858.31,1417.72 1866.67,1414.44 1875.03,1416.73 1883.4,1419.62 1891.76,1416.62 1900.13,1416.68 1908.49,1416.05 1916.85,1408.44 1925.22,1409.71 1933.58,1411.4 1941.94,1410.76 1950.31,1410.18 1958.67,1413.75 1967.04,1411.88 1975.4,1412.86 1983.76,1414.43 1992.13,1415.26 2000.49,1418.95 2008.85,1423.83 2017.22,1414.54 2025.58,1417.01 2033.94,1418.47 2042.31,1418.65 2050.67,1417.45 2059.04,1412.61 2067.4,1412.03 2075.76,1411.22 2084.13,1405.19 2092.49,1409.51 2100.85,1416.92 2109.22,1408.4 2117.58,1411.51 2125.94,1411.52 2134.31,1415.41 2142.67,1412.36 2151.04,1413.28 2159.4,1421.18 2167.76,1415.78 2176.13,1417.2 2184.49,1423.07 2192.85,1424.76 2201.22,1420.38 2209.58,1419.1 2217.95,1420.72 2226.31,1425.97 2234.67,1410.71 2243.04,1420.84 2251.4,1418.86 2259.76,1421.17 2268.13,1418.07 2276.49,1417.74 2284.85,1420.27 2293.22,1419.28 2301.58,1419.64 2309.95,1421.18 2318.31,1415.7 2326.67,1417.92 2335.04,1423.34 2343.4,1420.92 2351.76,1419.1 2360.13,1420.53 2368.49,1418.05 2376.85,1415.65 2385.22,1409.65 2393.58,1412.78 2401.95,1412.92 2410.31,1414.74 2418.67,1403.85 2427.04,1403.38 2435.4,1403.08 2443.76,1406.72 2452.13,1416.63 2460.49,1410.88 2468.86,1411.07 2477.22,1405.27 2485.58,1406.87 2493.95,1407.06 2502.31,1405.9 2510.67,1406.57 2519.04,1408.36 2527.4,1413.53 2535.76,1411.62 2544.13,1412.05 2552.49,1410.77 2560.86,1416.41 2569.22,1418.54 2577.58,1411.41 2585.95,1413.97 2594.31,1417.23 2602.67,1419.35 2611.04,1413.1 "/>
<path clip-path="url(#clip092)" d="M511.757 476.578 L520.121 560.207 L528.485 656.527 L536.848 678.722 L545.212 775.724 L553.576 831.765 L561.939 857.234 L570.303 918.317 L578.667 969.869 L587.03 1020.06 L595.394 1072.17 L603.758 1083.93 L612.121 1126.98 L620.485 1151.7 L628.849 1174.53 L637.212 1202.86 L645.576 1226.76 L653.94 1245.38 L662.303 1275.08 L670.667 1304.48 L679.031 1326.92 L687.394 1333.79 L695.758 1362.4 L704.122 1367.49 L712.485 1383.92 L720.849 1380.51 L729.213 1397.09 L737.576 1411.52 L745.94 1418.64 L754.304 1435.06 L762.667 1440.19 L771.031 1446.03 L779.395 1455.68 L787.758 1445.71 L796.122 1465.42 L804.486 1454.26 L812.849 1460.47 L821.213 1465.67 L829.577 1467.19 L837.94 1499.84 L846.304 1492.18 L854.668 1491.8 L863.031 1501.11 L871.395 1503.01 L879.759 1509.94 L888.122 1512.52 L896.486 1520.11 L904.85 1516.77 L913.213 1512.1 L921.577 1527.06 L929.941 1524.55 L938.304 1525.88 L946.668 1524.03 L955.032 1515.25 L963.395 1524.38 L971.759 1521.11 L980.123 1517.25 L988.486 1527.88 L996.85 1534.02 L1005.21 1537.33 L1013.58 1525.57 L1021.94 1522.77 L1030.3 1538.93 L1038.67 1537.17 L1047.03 1526.9 L1055.4 1533.19 L1063.76 1538.91 L1072.12 1545.73 L1080.49 1555.23 L1088.85 1528.23 L1097.21 1551.71 L1105.58 1544.04 L1113.94 1544.47 L1122.3 1543.14 L1130.67 1541.65 L1139.03 1527.99 L1147.4 1562.37 L1155.76 1545.41 L1164.12 1551.7 L1172.49 1563.76 L1180.85 1563.74 L1189.21 1551.29 L1197.58 1546.79 L1205.94 1561.76 L1214.31 1547.28 L1222.67 1567.74 L1231.03 1543.42 L1239.4 1545.33 L1247.76 1546.88 L1256.12 1557.4 L1264.49 1556.78 L1272.85 1554.22 L1281.21 1573.6 L1289.58 1565.42 L1297.94 1574.14 L1306.31 1565.4 L1314.67 1546.23 L1323.03 1565.44 L1331.4 1572.63 L1339.76 1564.25 L1348.12 1569 L1356.49 1549.6 L1364.85 1546.26 L1373.21 1560.38 L1381.58 1560.36 L1389.94 1556.11 L1398.31 1543.81 L1406.67 1543.31 L1415.03 1540.59 L1423.4 1529.83 L1431.76 1542.19 L1440.12 1551.81 L1448.49 1547.57 L1456.85 1542.96 L1465.22 1537.38 L1473.58 1533.13 L1481.94 1549.78 L1490.31 1548.39 L1498.67 1546.46 L1507.03 1539.32 L1515.4 1539.9 L1523.76 1526.36 L1532.12 1536.24 L1540.49 1553.62 L1548.85 1535.51 L1557.22 1535 L1565.58 1553.21 L1573.94 1541.6 L1582.31 1538.61 L1590.67 1543.49 L1599.03 1536.88 L1607.4 1538.43 L1615.76 1531.75 L1624.12 1541.62 L1632.49 1540.96 L1640.85 1538.45 L1649.22 1539.2 L1657.58 1525.31 L1665.94 1528.34 L1674.31 1554.09 L1682.67 1545.49 L1691.03 1551.85 L1699.4 1542.95 L1707.76 1526.57 L1716.13 1548.74 L1724.49 1545.93 L1732.85 1534.26 L1741.22 1546.06 L1749.58 1545.58 L1757.94 1553.38 L1766.31 1544.76 L1774.67 1533.47 L1783.03 1544.77 L1791.4 1551.69 L1799.76 1539.93 L1808.13 1538.31 L1816.49 1548.46 L1824.85 1552.05 L1833.22 1545.08 L1841.58 1522.15 L1849.94 1536.26 L1858.31 1532.95 L1866.67 1524.28 L1875.03 1535.03 L1883.4 1530.49 L1891.76 1534.56 L1900.13 1530.59 L1908.49 1528.91 L1916.85 1518.56 L1925.22 1522.73 L1933.58 1523.22 L1941.94 1517.53 L1950.31 1530.6 L1958.67 1530.15 L1967.04 1529.93 L1975.4 1531.03 L1983.76 1550.16 L1992.13 1538.52 L2000.49 1544.34 L2008.85 1559.96 L2017.22 1531.91 L2025.58 1533.26 L2033.94 1546.43 L2042.31 1545.52 L2050.67 1534.23 L2059.04 1548.14 L2067.4 1556.35 L2075.76 1548.95 L2084.13 1530.83 L2092.49 1541.41 L2100.85 1548.84 L2109.22 1535.19 L2117.58 1533.09 L2125.94 1553.26 L2134.31 1541.19 L2142.67 1532.9 L2151.04 1554.05 L2159.4 1541.31 L2167.76 1538.53 L2176.13 1540.65 L2184.49 1565.36 L2192.85 1545.32 L2201.22 1553.31 L2209.58 1542.97 L2217.95 1561.74 L2226.31 1558.61 L2234.67 1523.44 L2243.04 1539.32 L2251.4 1536.07 L2259.76 1551.06 L2268.13 1533.86 L2276.49 1535.08 L2284.85 1540.61 L2293.22 1530.62 L2301.58 1533.13 L2309.95 1541.67 L2318.31 1539.79 L2326.67 1532.57 L2335.04 1544.56 L2343.4 1530.15 L2351.76 1529.19 L2360.13 1544.64 L2368.49 1545.65 L2376.85 1530.75 L2385.22 1530.18 L2393.58 1520.86 L2401.95 1529.44 L2410.31 1536.06 L2418.67 1527.56 L2427.04 1518.47 L2435.4 1523.81 L2443.76 1541.56 L2452.13 1536.57 L2460.49 1524.57 L2468.86 1537.3 L2477.22 1530.8 L2485.58 1531.28 L2493.95 1534.37 L2502.31 1541.29 L2510.67 1540.36 L2519.04 1534.98 L2527.4 1541.02 L2535.76 1537.37 L2544.13 1541.64 L2552.49 1539.24 L2560.86 1541.96 L2569.22 1545.48 L2577.58 1539 L2585.95 1531.11 L2594.31 1540.5 L2602.67 1548.14 L2611.04 1530.8 L2611.04 1271.31 L2602.67 1293.45 L2594.31 1289.82 L2585.95 1275.21 L2577.58 1262.76 L2569.22 1277.37 L2560.86 1283.85 L2552.49 1288.61 L2544.13 1294.82 L2535.76 1300.5 L2527.4 1296.4 L2519.04 1281.6 L2510.67 1275.53 L2502.31 1267.23 L2493.95 1277.01 L2485.58 1269.82 L2477.22 1276.97 L2468.86 1284.55 L2460.49 1282.31 L2452.13 1293.87 L2443.76 1286.94 L2435.4 1270.64 L2427.04 1290.65 L2418.67 1278.01 L2410.31 1309.74 L2401.95 1289.91 L2393.58 1295.9 L2385.22 1278.39 L2376.85 1283.74 L2368.49 1308.32 L2360.13 1299.91 L2351.76 1309.73 L2343.4 1310.16 L2335.04 1309.79 L2326.67 1301.43 L2318.31 1295.22 L2309.95 1302.69 L2301.58 1295.28 L2293.22 1301.89 L2284.85 1300.76 L2276.49 1305.76 L2268.13 1308.79 L2259.76 1299.57 L2251.4 1309.21 L2243.04 1297.61 L2234.67 1307.57 L2226.31 1313.14 L2217.95 1301.4 L2209.58 1291.75 L2201.22 1289.43 L2192.85 1308.52 L2184.49 1302.94 L2176.13 1298.53 L2167.76 1299.91 L2159.4 1300.46 L2151.04 1282.92 L2142.67 1294.61 L2134.31 1293.81 L2125.94 1280.98 L2117.58 1273.71 L2109.22 1273.28 L2100.85 1292.07 L2092.49 1274.66 L2084.13 1287.03 L2075.76 1278.34 L2067.4 1283.79 L2059.04 1286.86 L2050.67 1296.22 L2042.31 1301.91 L2033.94 1281.91 L2025.58 1290.86 L2017.22 1297.4 L2008.85 1289.83 L2000.49 1288.33 L1992.13 1275.05 L1983.76 1270.08 L1975.4 1292.22 L1967.04 1290.85 L1958.67 1292.92 L1950.31 1294.97 L1941.94 1277.98 L1933.58 1298.7 L1925.22 1281.61 L1916.85 1290.93 L1908.49 1290.57 L1900.13 1296.76 L1891.76 1281.26 L1883.4 1281 L1875.03 1287.83 L1866.67 1296.48 L1858.31 1295.58 L1849.94 1293.64 L1841.58 1298.2 L1833.22 1273.44 L1824.85 1299.36 L1816.49 1291.78 L1808.13 1300.51 L1799.76 1289.04 L1791.4 1294.52 L1783.03 1291.41 L1774.67 1285.1 L1766.31 1275.01 L1757.94 1269.85 L1749.58 1278.6 L1741.22 1280.54 L1732.85 1276.74 L1724.49 1268.67 L1716.13 1283.55 L1707.76 1259.49 L1699.4 1284.53 L1691.03 1285.91 L1682.67 1286.16 L1674.31 1277.62 L1665.94 1274.72 L1657.58 1265.21 L1649.22 1272.56 L1640.85 1288.2 L1632.49 1278.65 L1624.12 1297.85 L1615.76 1278.88 L1607.4 1265.87 L1599.03 1274.45 L1590.67 1294.22 L1582.31 1268.06 L1573.94 1275.94 L1565.58 1280.23 L1557.22 1282.52 L1548.85 1280.06 L1540.49 1271.83 L1532.12 1295.29 L1523.76 1266.15 L1515.4 1294.82 L1507.03 1283.05 L1498.67 1283.48 L1490.31 1278.02 L1481.94 1291.5 L1473.58 1284.57 L1465.22 1302.56 L1456.85 1285.95 L1448.49 1295.37 L1440.12 1280.56 L1431.76 1266.94 L1423.4 1277.57 L1415.03 1300.7 L1406.67 1285.7 L1398.31 1267.27 L1389.94 1291.27 L1381.58 1272.97 L1373.21 1283.84 L1364.85 1283.27 L1356.49 1279.82 L1348.12 1289.12 L1339.76 1278.46 L1331.4 1306.38 L1323.03 1285.41 L1314.67 1286.13 L1306.31 1268.75 L1297.94 1278.6 L1289.58 1279.38 L1281.21 1275.56 L1272.85 1311.58 L1264.49 1275.75 L1256.12 1275.14 L1247.76 1280.39 L1239.4 1274.36 L1231.03 1288.83 L1222.67 1279.77 L1214.31 1270.91 L1205.94 1268.89 L1197.58 1289.34 L1189.21 1257.43 L1180.85 1267.79 L1172.49 1289.91 L1164.12 1269.91 L1155.76 1286.27 L1147.4 1279.23 L1139.03 1265.33 L1130.67 1284.68 L1122.3 1281.76 L1113.94 1257.97 L1105.58 1264.2 L1097.21 1275.22 L1088.85 1277.33 L1080.49 1267 L1072.12 1253.27 L1063.76 1267.7 L1055.4 1266.46 L1047.03 1256.28 L1038.67 1282.51 L1030.3 1269.34 L1021.94 1262.76 L1013.58 1259.61 L1005.21 1263.54 L996.85 1253.18 L988.486 1268.2 L980.123 1256.25 L971.759 1236.67 L963.395 1239.12 L955.032 1234.82 L946.668 1244.83 L938.304 1259.5 L929.941 1254.63 L921.577 1240.52 L913.213 1258.02 L904.85 1249.87 L896.486 1240.62 L888.122 1232.46 L879.759 1218.06 L871.395 1246.83 L863.031 1209.75 L854.668 1220.13 L846.304 1220.4 L837.94 1193.29 L829.577 1221.81 L821.213 1207.67 L812.849 1194.04 L804.486 1181.34 L796.122 1187.47 L787.758 1166.22 L779.395 1153.59 L771.031 1152.68 L762.667 1154.59 L754.304 1129.67 L745.94 1122.77 L737.576 1117.6 L729.213 1082.95 L720.849 1084.79 L712.485 1072.92 L704.122 1069.56 L695.758 1048.1 L687.394 1010.47 L679.031 1026.4 L670.667 993.94 L662.303 977.811 L653.94 941.342 L645.576 921.754 L637.212 919.997 L628.849 872.743 L620.485 850.284 L612.121 813.329 L603.758 791.082 L595.394 740.055 L587.03 700.736 L578.667 679.705 L570.303 617.52 L561.939 537.521 L553.576 533.551 L545.212 460.848 L536.848 421.154 L528.485 357.594 L520.121 307.156 L511.757 168.574  Z" fill="#000080" fill-rule="evenodd" fill-opacity="0.15"/>
<polyline clip-path="url(#clip092)" style="stroke:#000080; stroke-linecap:round; stroke-linejoin:round; stroke-width:4; stroke-opacity:0.15; fill:none" points="511.757,476.578 520.121,560.207 528.485,656.527 536.848,678.722 545.212,775.724 553.576,831.765 561.939,857.234 570.303,918.317 578.667,969.869 587.03,1020.06 595.394,1072.17 603.758,1083.93 612.121,1126.98 620.485,1151.7 628.849,1174.53 637.212,1202.86 645.576,1226.76 653.94,1245.38 662.303,1275.08 670.667,1304.48 679.031,1326.92 687.394,1333.79 695.758,1362.4 704.122,1367.49 712.485,1383.92 720.849,1380.51 729.213,1397.09 737.576,1411.52 745.94,1418.64 754.304,1435.06 762.667,1440.19 771.031,1446.03 779.395,1455.68 787.758,1445.71 796.122,1465.42 804.486,1454.26 812.849,1460.47 821.213,1465.67 829.577,1467.19 837.94,1499.84 846.304,1492.18 854.668,1491.8 863.031,1501.11 871.395,1503.01 879.759,1509.94 888.122,1512.52 896.486,1520.11 904.85,1516.77 913.213,1512.1 921.577,1527.06 929.941,1524.55 938.304,1525.88 946.668,1524.03 955.032,1515.25 963.395,1524.38 971.759,1521.11 980.123,1517.25 988.486,1527.88 996.85,1534.02 1005.21,1537.33 1013.58,1525.57 1021.94,1522.77 1030.3,1538.93 1038.67,1537.17 1047.03,1526.9 1055.4,1533.19 1063.76,1538.91 1072.12,1545.73 1080.49,1555.23 1088.85,1528.23 1097.21,1551.71 1105.58,1544.04 1113.94,1544.47 1122.3,1543.14 1130.67,1541.65 1139.03,1527.99 1147.4,1562.37 1155.76,1545.41 1164.12,1551.7 1172.49,1563.76 1180.85,1563.74 1189.21,1551.29 1197.58,1546.79 1205.94,1561.76 1214.31,1547.28 1222.67,1567.74 1231.03,1543.42 1239.4,1545.33 1247.76,1546.88 1256.12,1557.4 1264.49,1556.78 1272.85,1554.22 1281.21,1573.6 1289.58,1565.42 1297.94,1574.14 1306.31,1565.4 1314.67,1546.23 1323.03,1565.44 1331.4,1572.63 1339.76,1564.25 1348.12,1569 1356.49,1549.6 1364.85,1546.26 1373.21,1560.38 1381.58,1560.36 1389.94,1556.11 1398.31,1543.81 1406.67,1543.31 1415.03,1540.59 1423.4,1529.83 1431.76,1542.19 1440.12,1551.81 1448.49,1547.57 1456.85,1542.96 1465.22,1537.38 1473.58,1533.13 1481.94,1549.78 1490.31,1548.39 1498.67,1546.46 1507.03,1539.32 1515.4,1539.9 1523.76,1526.36 1532.12,1536.24 1540.49,1553.62 1548.85,1535.51 1557.22,1535 1565.58,1553.21 1573.94,1541.6 1582.31,1538.61 1590.67,1543.49 1599.03,1536.88 1607.4,1538.43 1615.76,1531.75 1624.12,1541.62 1632.49,1540.96 1640.85,1538.45 1649.22,1539.2 1657.58,1525.31 1665.94,1528.34 1674.31,1554.09 1682.67,1545.49 1691.03,1551.85 1699.4,1542.95 1707.76,1526.57 1716.13,1548.74 1724.49,1545.93 1732.85,1534.26 1741.22,1546.06 1749.58,1545.58 1757.94,1553.38 1766.31,1544.76 1774.67,1533.47 1783.03,1544.77 1791.4,1551.69 1799.76,1539.93 1808.13,1538.31 1816.49,1548.46 1824.85,1552.05 1833.22,1545.08 1841.58,1522.15 1849.94,1536.26 1858.31,1532.95 1866.67,1524.28 1875.03,1535.03 1883.4,1530.49 1891.76,1534.56 1900.13,1530.59 1908.49,1528.91 1916.85,1518.56 1925.22,1522.73 1933.58,1523.22 1941.94,1517.53 1950.31,1530.6 1958.67,1530.15 1967.04,1529.93 1975.4,1531.03 1983.76,1550.16 1992.13,1538.52 2000.49,1544.34 2008.85,1559.96 2017.22,1531.91 2025.58,1533.26 2033.94,1546.43 2042.31,1545.52 2050.67,1534.23 2059.04,1548.14 2067.4,1556.35 2075.76,1548.95 2084.13,1530.83 2092.49,1541.41 2100.85,1548.84 2109.22,1535.19 2117.58,1533.09 2125.94,1553.26 2134.31,1541.19 2142.67,1532.9 2151.04,1554.05 2159.4,1541.31 2167.76,1538.53 2176.13,1540.65 2184.49,1565.36 2192.85,1545.32 2201.22,1553.31 2209.58,1542.97 2217.95,1561.74 2226.31,1558.61 2234.67,1523.44 2243.04,1539.32 2251.4,1536.07 2259.76,1551.06 2268.13,1533.86 2276.49,1535.08 2284.85,1540.61 2293.22,1530.62 2301.58,1533.13 2309.95,1541.67 2318.31,1539.79 2326.67,1532.57 2335.04,1544.56 2343.4,1530.15 2351.76,1529.19 2360.13,1544.64 2368.49,1545.65 2376.85,1530.75 2385.22,1530.18 2393.58,1520.86 2401.95,1529.44 2410.31,1536.06 2418.67,1527.56 2427.04,1518.47 2435.4,1523.81 2443.76,1541.56 2452.13,1536.57 2460.49,1524.57 2468.86,1537.3 2477.22,1530.8 2485.58,1531.28 2493.95,1534.37 2502.31,1541.29 2510.67,1540.36 2519.04,1534.98 2527.4,1541.02 2535.76,1537.37 2544.13,1541.64 2552.49,1539.24 2560.86,1541.96 2569.22,1545.48 2577.58,1539 2585.95,1531.11 2594.31,1540.5 2602.67,1548.14 2611.04,1530.8 "/>
<path clip-path="url(#clip090)" d="M2005.7 409.426 L2599.84 409.426 L2599.84 176.146 L2005.7 176.146  Z" fill="#ffffff" fill-rule="evenodd" fill-opacity="1"/>
<polyline clip-path="url(#clip090)" style="stroke:#000000; stroke-linecap:round; stroke-linejoin:round; stroke-width:4; stroke-opacity:1; fill:none" points="2005.7,409.426 2599.84,409.426 2599.84,176.146 2005.7,176.146 2005.7,409.426 "/>
<polyline clip-path="url(#clip090)" style="stroke:#ff0000; stroke-linecap:round; stroke-linejoin:round; stroke-width:9; stroke-opacity:1; fill:none" stroke-dasharray="36, 23" points="2030.43,234.466 2178.78,234.466 "/>
<path clip-path="url(#clip090)" d="M2221.52 218.594 Q2215.8 218.594 2212.41 222.864 Q2209.05 227.135 2209.05 234.505 Q2209.05 241.849 2212.41 246.119 Q2215.8 250.39 2221.52 250.39 Q2227.25 250.39 2230.59 246.119 Q2233.95 241.849 2233.95 234.505 Q2233.95 227.135 2230.59 222.864 Q2227.25 218.594 2221.52 218.594 M2221.52 214.323 Q2229.7 214.323 2234.6 219.817 Q2239.49 225.286 2239.49 234.505 Q2239.49 243.698 2234.6 249.192 Q2229.7 254.661 2221.52 254.661 Q2213.32 254.661 2208.4 249.192 Q2203.5 243.724 2203.5 234.505 Q2203.5 225.286 2208.4 219.817 Q2213.32 214.323 2221.52 214.323 Z" fill="#000000" fill-rule="nonzero" fill-opacity="1" /><path clip-path="url(#clip090)" d="M2268.45 239.349 Q2268.45 234.062 2266.26 231.067 Q2264.1 228.047 2260.3 228.047 Q2256.5 228.047 2254.31 231.067 Q2252.15 234.062 2252.15 239.349 Q2252.15 244.635 2254.31 247.656 Q2256.5 250.651 2260.3 250.651 Q2264.1 250.651 2266.26 247.656 Q2268.45 244.635 2268.45 239.349 M2252.15 229.166 Q2253.66 226.562 2255.95 225.312 Q2258.27 224.036 2261.47 224.036 Q2266.78 224.036 2270.09 228.255 Q2273.43 232.474 2273.43 239.349 Q2273.43 246.224 2270.09 250.442 Q2266.78 254.661 2261.47 254.661 Q2258.27 254.661 2255.95 253.411 Q2253.66 252.135 2252.15 249.531 L2252.15 253.906 L2247.33 253.906 L2247.33 213.385 L2252.15 213.385 L2252.15 229.166 Z" fill="#000000" fill-rule="nonzero" fill-opacity="1" /><path clip-path="url(#clip090)" d="M2299.96 225.599 L2299.96 230.13 Q2297.93 229.088 2295.74 228.567 Q2293.56 228.047 2291.21 228.047 Q2287.64 228.047 2285.85 229.14 Q2284.08 230.234 2284.08 232.422 Q2284.08 234.088 2285.35 235.052 Q2286.63 235.989 2290.48 236.849 L2292.12 237.213 Q2297.23 238.307 2299.36 240.312 Q2301.52 242.291 2301.52 245.859 Q2301.52 249.921 2298.29 252.291 Q2295.09 254.661 2289.47 254.661 Q2287.12 254.661 2284.57 254.192 Q2282.04 253.75 2279.23 252.838 L2279.23 247.89 Q2281.89 249.27 2284.47 249.974 Q2287.04 250.651 2289.57 250.651 Q2292.96 250.651 2294.78 249.505 Q2296.6 248.333 2296.6 246.224 Q2296.6 244.27 2295.27 243.229 Q2293.97 242.187 2289.52 241.224 L2287.85 240.833 Q2283.4 239.895 2281.42 237.968 Q2279.44 236.015 2279.44 232.63 Q2279.44 228.515 2282.36 226.276 Q2285.27 224.036 2290.64 224.036 Q2293.29 224.036 2295.64 224.427 Q2297.98 224.817 2299.96 225.599 Z" fill="#000000" fill-rule="nonzero" fill-opacity="1" /><path clip-path="url(#clip090)" d="M2334.1 238.125 L2334.1 240.468 L2312.07 240.468 Q2312.38 245.416 2315.04 248.02 Q2317.72 250.599 2322.49 250.599 Q2325.25 250.599 2327.83 249.921 Q2330.43 249.244 2332.98 247.89 L2332.98 252.421 Q2330.4 253.515 2327.7 254.088 Q2324.99 254.661 2322.2 254.661 Q2315.22 254.661 2311.13 250.599 Q2307.07 246.536 2307.07 239.609 Q2307.07 232.448 2310.93 228.255 Q2314.81 224.036 2321.37 224.036 Q2327.25 224.036 2330.66 227.838 Q2334.1 231.614 2334.1 238.125 M2329.31 236.718 Q2329.26 232.786 2327.1 230.442 Q2324.96 228.099 2321.42 228.099 Q2317.41 228.099 2314.99 230.364 Q2312.59 232.63 2312.23 236.744 L2329.31 236.718 Z" fill="#000000" fill-rule="nonzero" fill-opacity="1" /><path clip-path="url(#clip090)" d="M2358.87 229.218 Q2358.06 228.75 2357.1 228.541 Q2356.16 228.307 2355.01 228.307 Q2350.95 228.307 2348.76 230.963 Q2346.6 233.593 2346.6 238.541 L2346.6 253.906 L2341.78 253.906 L2341.78 224.739 L2346.6 224.739 L2346.6 229.271 Q2348.11 226.614 2350.53 225.338 Q2352.96 224.036 2356.42 224.036 Q2356.91 224.036 2357.51 224.114 Q2358.11 224.166 2358.84 224.297 L2358.87 229.218 Z" fill="#000000" fill-rule="nonzero" fill-opacity="1" /><path clip-path="url(#clip090)" d="M2360.46 224.739 L2365.53 224.739 L2374.65 249.218 L2383.76 224.739 L2388.84 224.739 L2377.9 253.906 L2371.39 253.906 L2360.46 224.739 Z" fill="#000000" fill-rule="nonzero" fill-opacity="1" /><path clip-path="url(#clip090)" d="M2420.4 238.125 L2420.4 240.468 L2398.37 240.468 Q2398.68 245.416 2401.34 248.02 Q2404.02 250.599 2408.79 250.599 Q2411.55 250.599 2414.13 249.921 Q2416.73 249.244 2419.28 247.89 L2419.28 252.421 Q2416.71 253.515 2414 254.088 Q2411.29 254.661 2408.5 254.661 Q2401.52 254.661 2397.43 250.599 Q2393.37 246.536 2393.37 239.609 Q2393.37 232.448 2397.23 228.255 Q2401.11 224.036 2407.67 224.036 Q2413.55 224.036 2416.97 227.838 Q2420.4 231.614 2420.4 238.125 M2415.61 236.718 Q2415.56 232.786 2413.4 230.442 Q2411.26 228.099 2407.72 228.099 Q2403.71 228.099 2401.29 230.364 Q2398.89 232.63 2398.53 236.744 L2415.61 236.718 Z" fill="#000000" fill-rule="nonzero" fill-opacity="1" /><path clip-path="url(#clip090)" d="M2447.46 229.166 L2447.46 213.385 L2452.25 213.385 L2452.25 253.906 L2447.46 253.906 L2447.46 249.531 Q2445.95 252.135 2443.63 253.411 Q2441.34 254.661 2438.11 254.661 Q2432.83 254.661 2429.49 250.442 Q2426.18 246.224 2426.18 239.349 Q2426.18 232.474 2429.49 228.255 Q2432.83 224.036 2438.11 224.036 Q2441.34 224.036 2443.63 225.312 Q2445.95 226.562 2447.46 229.166 M2431.13 239.349 Q2431.13 244.635 2433.29 247.656 Q2435.48 250.651 2439.28 250.651 Q2443.09 250.651 2445.27 247.656 Q2447.46 244.635 2447.46 239.349 Q2447.46 234.062 2445.27 231.067 Q2443.09 228.047 2439.28 228.047 Q2435.48 228.047 2433.29 231.067 Q2431.13 234.062 2431.13 239.349 Z" fill="#000000" fill-rule="nonzero" fill-opacity="1" /><polyline clip-path="url(#clip090)" style="stroke:#000080; stroke-linecap:round; stroke-linejoin:round; stroke-width:9; stroke-opacity:1; fill:none" points="2030.43,292.786 2178.78,292.786 "/>
<path clip-path="url(#clip090)" d="M2234.86 276.341 L2234.86 281.887 Q2232.2 279.414 2229.18 278.19 Q2226.19 276.966 2222.8 276.966 Q2216.13 276.966 2212.59 281.054 Q2209.05 285.117 2209.05 292.825 Q2209.05 300.507 2212.59 304.596 Q2216.13 308.658 2222.8 308.658 Q2226.19 308.658 2229.18 307.434 Q2232.2 306.21 2234.86 303.736 L2234.86 309.231 Q2232.1 311.106 2229 312.044 Q2225.93 312.981 2222.49 312.981 Q2213.66 312.981 2208.58 307.59 Q2203.5 302.174 2203.5 292.825 Q2203.5 283.45 2208.58 278.059 Q2213.66 272.643 2222.49 272.643 Q2225.98 272.643 2229.05 273.58 Q2232.15 274.492 2234.86 276.341 Z" fill="#000000" fill-rule="nonzero" fill-opacity="1" /><path clip-path="url(#clip090)" d="M2242.98 273.346 L2248.24 273.346 L2248.24 289.283 L2267.36 289.283 L2267.36 273.346 L2272.62 273.346 L2272.62 312.226 L2267.36 312.226 L2267.36 293.71 L2248.24 293.71 L2248.24 312.226 L2242.98 312.226 L2242.98 273.346 Z" fill="#000000" fill-rule="nonzero" fill-opacity="1" /><path clip-path="url(#clip090)" d="M2283.09 273.346 L2290.93 273.346 L2300.85 299.804 L2310.82 273.346 L2318.66 273.346 L2318.66 312.226 L2313.53 312.226 L2313.53 278.085 L2303.5 304.752 L2298.22 304.752 L2288.19 278.085 L2288.19 312.226 L2283.09 312.226 L2283.09 273.346 Z" fill="#000000" fill-rule="nonzero" fill-opacity="1" /><path clip-path="url(#clip090)" d="M2329.1 273.346 L2336.94 273.346 L2346.86 299.804 L2356.84 273.346 L2364.67 273.346 L2364.67 312.226 L2359.54 312.226 L2359.54 278.085 L2349.52 304.752 L2344.23 304.752 L2334.21 278.085 L2334.21 312.226 L2329.1 312.226 L2329.1 273.346 Z" fill="#000000" fill-rule="nonzero" fill-opacity="1" /><path clip-path="url(#clip090)" d="M2403.37 271.757 Q2399.88 277.747 2398.19 283.606 Q2396.5 289.466 2396.5 295.481 Q2396.5 301.497 2398.19 307.408 Q2399.91 313.294 2403.37 319.257 L2399.21 319.257 Q2395.3 313.137 2393.35 307.226 Q2391.42 301.314 2391.42 295.481 Q2391.42 289.674 2393.35 283.788 Q2395.27 277.903 2399.21 271.757 L2403.37 271.757 Z" fill="#000000" fill-rule="nonzero" fill-opacity="1" /><path clip-path="url(#clip090)" d="M2435.38 288.658 Q2437.17 285.429 2439.67 283.893 Q2442.17 282.356 2445.56 282.356 Q2450.12 282.356 2452.59 285.559 Q2455.06 288.736 2455.06 294.622 L2455.06 312.226 L2450.25 312.226 L2450.25 294.778 Q2450.25 290.585 2448.76 288.554 Q2447.28 286.523 2444.23 286.523 Q2440.51 286.523 2438.35 288.997 Q2436.18 291.471 2436.18 295.742 L2436.18 312.226 L2431.37 312.226 L2431.37 294.778 Q2431.37 290.559 2429.88 288.554 Q2428.4 286.523 2425.3 286.523 Q2421.63 286.523 2419.47 289.023 Q2417.3 291.497 2417.3 295.742 L2417.3 312.226 L2412.49 312.226 L2412.49 283.059 L2417.3 283.059 L2417.3 287.591 Q2418.95 284.908 2421.24 283.632 Q2423.53 282.356 2426.68 282.356 Q2429.86 282.356 2432.07 283.971 Q2434.31 285.585 2435.38 288.658 Z" fill="#000000" fill-rule="nonzero" fill-opacity="1" /><path clip-path="url(#clip090)" d="M2489.57 296.445 L2489.57 298.788 L2467.54 298.788 Q2467.85 303.736 2470.51 306.34 Q2473.19 308.919 2477.96 308.919 Q2480.72 308.919 2483.29 308.241 Q2485.9 307.564 2488.45 306.21 L2488.45 310.741 Q2485.87 311.835 2483.16 312.408 Q2480.46 312.981 2477.67 312.981 Q2470.69 312.981 2466.6 308.919 Q2462.54 304.856 2462.54 297.929 Q2462.54 290.768 2466.39 286.575 Q2470.27 282.356 2476.84 282.356 Q2482.72 282.356 2486.13 286.158 Q2489.57 289.934 2489.57 296.445 M2484.78 295.038 Q2484.73 291.106 2482.56 288.762 Q2480.43 286.419 2476.89 286.419 Q2472.88 286.419 2470.46 288.684 Q2468.06 290.95 2467.7 295.064 L2484.78 295.038 Z" fill="#000000" fill-rule="nonzero" fill-opacity="1" /><path clip-path="url(#clip090)" d="M2510.69 297.564 Q2504.88 297.564 2502.64 298.893 Q2500.4 300.221 2500.4 303.424 Q2500.4 305.976 2502.07 307.486 Q2503.76 308.971 2506.65 308.971 Q2510.64 308.971 2513.03 306.158 Q2515.46 303.32 2515.46 298.632 L2515.46 297.564 L2510.69 297.564 M2520.25 295.585 L2520.25 312.226 L2515.46 312.226 L2515.46 307.799 Q2513.81 310.455 2511.37 311.731 Q2508.92 312.981 2505.38 312.981 Q2500.9 312.981 2498.24 310.481 Q2495.61 307.955 2495.61 303.736 Q2495.61 298.814 2498.89 296.314 Q2502.2 293.814 2508.74 293.814 L2515.46 293.814 L2515.46 293.346 Q2515.46 290.038 2513.27 288.242 Q2511.11 286.419 2507.17 286.419 Q2504.67 286.419 2502.3 287.018 Q2499.93 287.617 2497.75 288.814 L2497.75 284.387 Q2500.38 283.372 2502.85 282.877 Q2505.33 282.356 2507.67 282.356 Q2514 282.356 2517.12 285.637 Q2520.25 288.919 2520.25 295.585 Z" fill="#000000" fill-rule="nonzero" fill-opacity="1" /><path clip-path="url(#clip090)" d="M2554.36 294.622 L2554.36 312.226 L2549.57 312.226 L2549.57 294.778 Q2549.57 290.637 2547.96 288.58 Q2546.34 286.523 2543.11 286.523 Q2539.23 286.523 2536.99 288.997 Q2534.75 291.471 2534.75 295.742 L2534.75 312.226 L2529.93 312.226 L2529.93 283.059 L2534.75 283.059 L2534.75 287.591 Q2536.47 284.96 2538.79 283.658 Q2541.13 282.356 2544.18 282.356 Q2549.21 282.356 2551.78 285.481 Q2554.36 288.58 2554.36 294.622 Z" fill="#000000" fill-rule="nonzero" fill-opacity="1" /><path clip-path="url(#clip090)" d="M2563.16 271.757 L2567.33 271.757 Q2571.24 277.903 2573.16 283.788 Q2575.12 289.674 2575.12 295.481 Q2575.12 301.314 2573.16 307.226 Q2571.24 313.137 2567.33 319.257 L2563.16 319.257 Q2566.63 313.294 2568.32 307.408 Q2570.04 301.497 2570.04 295.481 Q2570.04 289.466 2568.32 283.606 Q2566.63 277.747 2563.16 271.757 Z" fill="#000000" fill-rule="nonzero" fill-opacity="1" /><path clip-path="url(#clip090)" d="M2030.43 374.434 L2178.78 374.434 L2178.78 327.778 L2030.43 327.778 L2030.43 374.434  Z" fill="#000080" fill-rule="evenodd" fill-opacity="0.15"/>
<polyline clip-path="url(#clip090)" style="stroke:#000080; stroke-linecap:round; stroke-linejoin:round; stroke-width:4.5; stroke-opacity:0.15; fill:none" points="2030.43,327.778 2178.78,327.778 "/>
<path clip-path="url(#clip090)" d="M2204.26 366.119 L2212.85 366.119 L2212.85 336.457 L2203.5 338.332 L2203.5 333.541 L2212.8 331.666 L2218.06 331.666 L2218.06 366.119 L2226.65 366.119 L2226.65 370.546 L2204.26 370.546 L2204.26 366.119 Z" fill="#000000" fill-rule="nonzero" fill-opacity="1" /><path clip-path="url(#clip090)" d="M2248.53 335.129 Q2244.47 335.129 2242.41 339.14 Q2240.38 343.124 2240.38 351.145 Q2240.38 359.14 2242.41 363.15 Q2244.47 367.134 2248.53 367.134 Q2252.62 367.134 2254.65 363.15 Q2256.71 359.14 2256.71 351.145 Q2256.71 343.124 2254.65 339.14 Q2252.62 335.129 2248.53 335.129 M2248.53 330.963 Q2255.07 330.963 2258.5 336.145 Q2261.97 341.301 2261.97 351.145 Q2261.97 360.963 2258.5 366.145 Q2255.07 371.301 2248.53 371.301 Q2241.99 371.301 2238.53 366.145 Q2235.09 360.963 2235.09 351.145 Q2235.09 341.301 2238.53 336.145 Q2241.99 330.963 2248.53 330.963 Z" fill="#000000" fill-rule="nonzero" fill-opacity="1" /><path clip-path="url(#clip090)" d="M2268.11 353.801 L2282.15 353.801 L2282.15 358.072 L2268.11 358.072 L2268.11 353.801 Z" fill="#000000" fill-rule="nonzero" fill-opacity="1" /><path clip-path="url(#clip090)" d="M2290.61 369.739 L2290.61 364.947 Q2292.59 365.884 2294.62 366.379 Q2296.65 366.874 2298.61 366.874 Q2303.82 366.874 2306.55 363.384 Q2309.31 359.869 2309.7 352.733 Q2308.19 354.973 2305.87 356.171 Q2303.56 357.369 2300.74 357.369 Q2294.91 357.369 2291.5 353.853 Q2288.11 350.312 2288.11 344.192 Q2288.11 338.202 2291.65 334.582 Q2295.2 330.963 2301.08 330.963 Q2307.83 330.963 2311.37 336.145 Q2314.94 341.301 2314.94 351.145 Q2314.94 360.338 2310.56 365.832 Q2306.21 371.301 2298.84 371.301 Q2296.86 371.301 2294.83 370.91 Q2292.8 370.52 2290.61 369.739 M2301.08 353.254 Q2304.62 353.254 2306.68 350.832 Q2308.76 348.411 2308.76 344.192 Q2308.76 339.999 2306.68 337.577 Q2304.62 335.129 2301.08 335.129 Q2297.54 335.129 2295.46 337.577 Q2293.4 339.999 2293.4 344.192 Q2293.4 348.411 2295.46 350.832 Q2297.54 353.254 2301.08 353.254 Z" fill="#000000" fill-rule="nonzero" fill-opacity="1" /><path clip-path="url(#clip090)" d="M2335.64 335.129 Q2331.58 335.129 2329.52 339.14 Q2327.49 343.124 2327.49 351.145 Q2327.49 359.14 2329.52 363.15 Q2331.58 367.134 2335.64 367.134 Q2339.73 367.134 2341.76 363.15 Q2343.82 359.14 2343.82 351.145 Q2343.82 343.124 2341.76 339.14 Q2339.73 335.129 2335.64 335.129 M2335.64 330.963 Q2342.17 330.963 2345.61 336.145 Q2349.08 341.301 2349.08 351.145 Q2349.08 360.963 2345.61 366.145 Q2342.17 371.301 2335.64 371.301 Q2329.1 371.301 2325.64 366.145 Q2322.2 360.963 2322.2 351.145 Q2322.2 341.301 2325.64 336.145 Q2329.1 330.963 2335.64 330.963 Z" fill="#000000" fill-rule="nonzero" fill-opacity="1" /><path clip-path="url(#clip090)" d="M2362.38 333.098 L2362.38 341.379 L2372.25 341.379 L2372.25 345.103 L2362.38 345.103 L2362.38 360.937 Q2362.38 364.504 2363.35 365.52 Q2364.34 366.535 2367.33 366.535 L2372.25 366.535 L2372.25 370.546 L2367.33 370.546 Q2361.78 370.546 2359.67 368.489 Q2357.57 366.405 2357.57 360.937 L2357.57 345.103 L2354.05 345.103 L2354.05 341.379 L2357.57 341.379 L2357.57 333.098 L2362.38 333.098 Z" fill="#000000" fill-rule="nonzero" fill-opacity="1" /><path clip-path="url(#clip090)" d="M2402.8 352.942 L2402.8 370.546 L2398.01 370.546 L2398.01 353.098 Q2398.01 348.957 2396.39 346.9 Q2394.78 344.843 2391.55 344.843 Q2387.67 344.843 2385.43 347.317 Q2383.19 349.791 2383.19 354.062 L2383.19 370.546 L2378.37 370.546 L2378.37 330.025 L2383.19 330.025 L2383.19 345.911 Q2384.91 343.28 2387.23 341.978 Q2389.57 340.676 2392.62 340.676 Q2397.64 340.676 2400.22 343.801 Q2402.8 346.9 2402.8 352.942 Z" fill="#000000" fill-rule="nonzero" fill-opacity="1" /><path clip-path="url(#clip090)" d="M2433.95 366.171 L2433.95 381.64 L2429.13 381.64 L2429.13 341.379 L2433.95 341.379 L2433.95 345.806 Q2435.46 343.202 2437.75 341.952 Q2440.06 340.676 2443.27 340.676 Q2448.58 340.676 2451.89 344.895 Q2455.22 349.114 2455.22 355.989 Q2455.22 362.864 2451.89 367.082 Q2448.58 371.301 2443.27 371.301 Q2440.06 371.301 2437.75 370.051 Q2435.46 368.775 2433.95 366.171 M2450.25 355.989 Q2450.25 350.702 2448.06 347.707 Q2445.9 344.687 2442.1 344.687 Q2438.29 344.687 2436.11 347.707 Q2433.95 350.702 2433.95 355.989 Q2433.95 361.275 2436.11 364.296 Q2438.29 367.291 2442.1 367.291 Q2445.9 367.291 2448.06 364.296 Q2450.25 361.275 2450.25 355.989 Z" fill="#000000" fill-rule="nonzero" fill-opacity="1" /><path clip-path="url(#clip090)" d="M2484.15 342.499 L2484.15 346.978 Q2482.12 345.858 2480.06 345.312 Q2478.03 344.739 2475.95 344.739 Q2471.29 344.739 2468.71 347.707 Q2466.13 350.65 2466.13 355.989 Q2466.13 361.327 2468.71 364.296 Q2471.29 367.239 2475.95 367.239 Q2478.03 367.239 2480.06 366.692 Q2482.12 366.119 2484.15 364.999 L2484.15 369.426 Q2482.15 370.364 2479.99 370.832 Q2477.85 371.301 2475.43 371.301 Q2468.84 371.301 2464.96 367.16 Q2461.08 363.02 2461.08 355.989 Q2461.08 348.853 2464.99 344.765 Q2468.92 340.676 2475.74 340.676 Q2477.96 340.676 2480.06 341.145 Q2482.17 341.588 2484.15 342.499 Z" fill="#000000" fill-rule="nonzero" fill-opacity="1" /><path clip-path="url(#clip090)" d="M2497.23 333.098 L2497.23 341.379 L2507.1 341.379 L2507.1 345.103 L2497.23 345.103 L2497.23 360.937 Q2497.23 364.504 2498.19 365.52 Q2499.18 366.535 2502.17 366.535 L2507.1 366.535 L2507.1 370.546 L2502.17 370.546 Q2496.63 370.546 2494.52 368.489 Q2492.41 366.405 2492.41 360.937 L2492.41 345.103 L2488.89 345.103 L2488.89 341.379 L2492.41 341.379 L2492.41 333.098 L2497.23 333.098 Z" fill="#000000" fill-rule="nonzero" fill-opacity="1" /><path clip-path="url(#clip090)" d="M2513.4 330.025 L2518.19 330.025 L2518.19 370.546 L2513.4 370.546 L2513.4 330.025 Z" fill="#000000" fill-rule="nonzero" fill-opacity="1" /></svg>
