<?xml version="1.0" encoding="utf-8"?>
<svg xmlns="http://www.w3.org/2000/svg" xmlns:xlink="http://www.w3.org/1999/xlink" width="600" height="400" viewBox="0 0 2400 1600">
<defs>
  <clipPath id="clip640">
    <rect x="0" y="0" width="2400" height="1600"/>
  </clipPath>
</defs>
<path clip-path="url(#clip640)" d="M0 1600 L2400 1600 L2400 8.88178e-14 L0 8.88178e-14  Z" fill="#ffffff" fill-rule="evenodd" fill-opacity="1"/>
<defs>
  <clipPath id="clip641">
    <rect x="176" y="914" width="2171" height="35"/>
  </clipPath>
</defs>
<path clip-path="url(#clip640)" d="M469.828 1241.31 L2274.02 1241.31 L2274.02 184.932 L469.828 184.932  Z" fill="#ffffff" fill-rule="evenodd" fill-opacity="1"/>
<defs>
  <clipPath id="clip642">
    <rect x="469" y="184" width="1805" height="1057"/>
  </clipPath>
</defs>
<polyline clip-path="url(#clip642)" style="stroke:#000000; stroke-linecap:round; stroke-linejoin:round; stroke-width:2; stroke-opacity:0.1; fill:none" points="517.479,1241.31 517.479,184.932 "/>
<polyline clip-path="url(#clip642)" style="stroke:#000000; stroke-linecap:round; stroke-linejoin:round; stroke-width:2; stroke-opacity:0.1; fill:none" points="858.574,1241.31 858.574,184.932 "/>
<polyline clip-path="url(#clip642)" style="stroke:#000000; stroke-linecap:round; stroke-linejoin:round; stroke-width:2; stroke-opacity:0.1; fill:none" points="1199.67,1241.31 1199.67,184.932 "/>
<polyline clip-path="url(#clip642)" style="stroke:#000000; stroke-linecap:round; stroke-linejoin:round; stroke-width:2; stroke-opacity:0.1; fill:none" points="1540.76,1241.31 1540.76,184.932 "/>
<polyline clip-path="url(#clip642)" style="stroke:#000000; stroke-linecap:round; stroke-linejoin:round; stroke-width:2; stroke-opacity:0.1; fill:none" points="1881.86,1241.31 1881.86,184.932 "/>
<polyline clip-path="url(#clip642)" style="stroke:#000000; stroke-linecap:round; stroke-linejoin:round; stroke-width:2; stroke-opacity:0.1; fill:none" points="2222.95,1241.31 2222.95,184.932 "/>
<polyline clip-path="url(#clip642)" style="stroke:#000000; stroke-linecap:round; stroke-linejoin:round; stroke-width:2; stroke-opacity:0.1; fill:none" points="469.828,1170.32 2274.02,1170.32 "/>
<polyline clip-path="url(#clip642)" style="stroke:#000000; stroke-linecap:round; stroke-linejoin:round; stroke-width:2; stroke-opacity:0.1; fill:none" points="469.828,945.602 2274.02,945.602 "/>
<polyline clip-path="url(#clip642)" style="stroke:#000000; stroke-linecap:round; stroke-linejoin:round; stroke-width:2; stroke-opacity:0.1; fill:none" points="469.828,720.885 2274.02,720.885 "/>
<polyline clip-path="url(#clip642)" style="stroke:#000000; stroke-linecap:round; stroke-linejoin:round; stroke-width:2; stroke-opacity:0.1; fill:none" points="469.828,496.167 2274.02,496.167 "/>
<polyline clip-path="url(#clip642)" style="stroke:#000000; stroke-linecap:round; stroke-linejoin:round; stroke-width:2; stroke-opacity:0.1; fill:none" points="469.828,271.45 2274.02,271.45 "/>
<polyline clip-path="url(#clip640)" style="stroke:#000000; stroke-linecap:round; stroke-linejoin:round; stroke-width:4; stroke-opacity:1; fill:none" points="469.828,1241.31 2274.02,1241.31 "/>
<polyline clip-path="url(#clip640)" style="stroke:#000000; stroke-linecap:round; stroke-linejoin:round; stroke-width:4; stroke-opacity:1; fill:none" points="517.479,1241.31 517.479,1222.41 "/>
<polyline clip-path="url(#clip640)" style="stroke:#000000; stroke-linecap:round; stroke-linejoin:round; stroke-width:4; stroke-opacity:1; fill:none" points="858.574,1241.31 858.574,1222.41 "/>
<polyline clip-path="url(#clip640)" style="stroke:#000000; stroke-linecap:round; stroke-linejoin:round; stroke-width:4; stroke-opacity:1; fill:none" points="1199.67,1241.31 1199.67,1222.41 "/>
<polyline clip-path="url(#clip640)" style="stroke:#000000; stroke-linecap:round; stroke-linejoin:round; stroke-width:4; stroke-opacity:1; fill:none" points="1540.76,1241.31 1540.76,1222.41 "/>
<polyline clip-path="url(#clip640)" style="stroke:#000000; stroke-linecap:round; stroke-linejoin:round; stroke-width:4; stroke-opacity:1; fill:none" points="1881.86,1241.31 1881.86,1222.41 "/>
<polyline clip-path="url(#clip640)" style="stroke:#000000; stroke-linecap:round; stroke-linejoin:round; stroke-width:4; stroke-opacity:1; fill:none" points="2222.95,1241.31 2222.95,1222.41 "/>
<path clip-path="url(#clip640)" d="M517.479 1275.16 Q512.965 1275.16 510.679 1279.62 Q508.422 1284.04 508.422 1292.95 Q508.422 1301.84 510.679 1306.29 Q512.965 1310.72 517.479 1310.72 Q522.021 1310.72 524.278 1306.29 Q526.564 1301.84 526.564 1292.95 Q526.564 1284.04 524.278 1279.62 Q522.021 1275.16 517.479 1275.16 M517.479 1270.53 Q524.741 1270.53 528.561 1276.29 Q532.409 1282.02 532.409 1292.95 Q532.409 1303.86 528.561 1309.62 Q524.741 1315.35 517.479 1315.35 Q510.216 1315.35 506.368 1309.62 Q502.548 1303.86 502.548 1292.95 Q502.548 1282.02 506.368 1276.29 Q510.216 1270.53 517.479 1270.53 Z" fill="#000000" fill-rule="nonzero" fill-opacity="1" /><path clip-path="url(#clip640)" d="M808.082 1309.59 L817.631 1309.59 L817.631 1276.64 L807.243 1278.72 L807.243 1273.39 L817.573 1271.31 L823.418 1271.31 L823.418 1309.59 L832.966 1309.59 L832.966 1314.51 L808.082 1314.51 L808.082 1309.59 Z" fill="#000000" fill-rule="nonzero" fill-opacity="1" /><path clip-path="url(#clip640)" d="M857.272 1275.16 Q852.758 1275.16 850.472 1279.62 Q848.215 1284.04 848.215 1292.95 Q848.215 1301.84 850.472 1306.29 Q852.758 1310.72 857.272 1310.72 Q861.814 1310.72 864.071 1306.29 Q866.357 1301.84 866.357 1292.95 Q866.357 1284.04 864.071 1279.62 Q861.814 1275.16 857.272 1275.16 M857.272 1270.53 Q864.534 1270.53 868.354 1276.29 Q872.202 1282.02 872.202 1292.95 Q872.202 1303.86 868.354 1309.62 Q864.534 1315.35 857.272 1315.35 Q850.009 1315.35 846.161 1309.62 Q842.341 1303.86 842.341 1292.95 Q842.341 1282.02 846.161 1276.29 Q850.009 1270.53 857.272 1270.53 Z" fill="#000000" fill-rule="nonzero" fill-opacity="1" /><path clip-path="url(#clip640)" d="M894.974 1275.16 Q890.46 1275.16 888.174 1279.62 Q885.917 1284.04 885.917 1292.95 Q885.917 1301.84 888.174 1306.29 Q890.46 1310.72 894.974 1310.72 Q899.517 1310.72 901.774 1306.29 Q904.06 1301.84 904.06 1292.95 Q904.06 1284.04 901.774 1279.62 Q899.517 1275.16 894.974 1275.16 M894.974 1270.53 Q902.237 1270.53 906.056 1276.29 Q909.904 1282.02 909.904 1292.95 Q909.904 1303.86 906.056 1309.62 Q902.237 1315.35 894.974 1315.35 Q887.711 1315.35 883.863 1309.62 Q880.043 1303.86 880.043 1292.95 Q880.043 1282.02 883.863 1276.29 Q887.711 1270.53 894.974 1270.53 Z" fill="#000000" fill-rule="nonzero" fill-opacity="1" /><path clip-path="url(#clip640)" d="M1154.28 1309.59 L1174.68 1309.59 L1174.68 1314.51 L1147.25 1314.51 L1147.25 1309.59 Q1150.58 1306.15 1156.31 1300.36 Q1162.07 1294.55 1163.54 1292.87 Q1166.35 1289.71 1167.45 1287.54 Q1168.58 1285.34 1168.58 1283.23 Q1168.58 1279.79 1166.15 1277.62 Q1163.75 1275.45 1159.87 1275.45 Q1157.12 1275.45 1154.05 1276.4 Q1151.01 1277.36 1147.54 1279.3 L1147.54 1273.39 Q1151.07 1271.98 1154.14 1271.25 Q1157.21 1270.53 1159.75 1270.53 Q1166.47 1270.53 1170.46 1273.89 Q1174.45 1277.24 1174.45 1282.86 Q1174.45 1285.52 1173.44 1287.92 Q1172.46 1290.29 1169.82 1293.53 Q1169.1 1294.37 1165.22 1298.39 Q1161.34 1302.39 1154.28 1309.59 Z" fill="#000000" fill-rule="nonzero" fill-opacity="1" /><path clip-path="url(#clip640)" d="M1199.45 1275.16 Q1194.94 1275.16 1192.65 1279.62 Q1190.4 1284.04 1190.4 1292.95 Q1190.4 1301.84 1192.65 1306.29 Q1194.94 1310.72 1199.45 1310.72 Q1203.99 1310.72 1206.25 1306.29 Q1208.54 1301.84 1208.54 1292.95 Q1208.54 1284.04 1206.25 1279.62 Q1203.99 1275.16 1199.45 1275.16 M1199.45 1270.53 Q1206.71 1270.53 1210.53 1276.29 Q1214.38 1282.02 1214.38 1292.95 Q1214.38 1303.86 1210.53 1309.62 Q1206.71 1315.35 1199.45 1315.35 Q1192.19 1315.35 1188.34 1309.62 Q1184.52 1303.86 1184.52 1292.95 Q1184.52 1282.02 1188.34 1276.29 Q1192.19 1270.53 1199.45 1270.53 Z" fill="#000000" fill-rule="nonzero" fill-opacity="1" /><path clip-path="url(#clip640)" d="M1237.15 1275.16 Q1232.64 1275.16 1230.35 1279.62 Q1228.1 1284.04 1228.1 1292.95 Q1228.1 1301.84 1230.35 1306.29 Q1232.64 1310.72 1237.15 1310.72 Q1241.7 1310.72 1243.95 1306.29 Q1246.24 1301.84 1246.24 1292.95 Q1246.24 1284.04 1243.95 1279.62 Q1241.7 1275.16 1237.15 1275.16 M1237.15 1270.53 Q1244.42 1270.53 1248.24 1276.29 Q1252.08 1282.02 1252.08 1292.95 Q1252.08 1303.86 1248.24 1309.62 Q1244.42 1315.35 1237.15 1315.35 Q1229.89 1315.35 1226.04 1309.62 Q1222.22 1303.86 1222.22 1292.95 Q1222.22 1282.02 1226.04 1276.29 Q1229.89 1270.53 1237.15 1270.53 Z" fill="#000000" fill-rule="nonzero" fill-opacity="1" /><path clip-path="url(#clip640)" d="M1507.97 1291.22 Q1512.16 1292.12 1514.51 1294.95 Q1516.88 1297.79 1516.88 1301.95 Q1516.88 1308.35 1512.48 1311.85 Q1508.08 1315.35 1499.98 1315.35 Q1497.26 1315.35 1494.37 1314.8 Q1491.5 1314.28 1488.43 1313.21 L1488.43 1307.57 Q1490.87 1308.98 1493.76 1309.71 Q1496.65 1310.43 1499.81 1310.43 Q1505.3 1310.43 1508.17 1308.26 Q1511.06 1306.09 1511.06 1301.95 Q1511.06 1298.13 1508.37 1295.99 Q1505.71 1293.82 1500.93 1293.82 L1495.9 1293.82 L1495.9 1289.02 L1501.17 1289.02 Q1505.48 1289.02 1507.76 1287.31 Q1510.05 1285.58 1510.05 1282.34 Q1510.05 1279.01 1507.68 1277.24 Q1505.33 1275.45 1500.93 1275.45 Q1498.53 1275.45 1495.78 1275.97 Q1493.04 1276.49 1489.74 1277.59 L1489.74 1272.38 Q1493.06 1271.46 1495.96 1270.99 Q1498.88 1270.53 1501.46 1270.53 Q1508.11 1270.53 1511.99 1273.57 Q1515.87 1276.58 1515.87 1281.73 Q1515.87 1285.32 1513.81 1287.8 Q1511.76 1290.26 1507.97 1291.22 Z" fill="#000000" fill-rule="nonzero" fill-opacity="1" /><path clip-path="url(#clip640)" d="M1540.46 1275.16 Q1535.95 1275.16 1533.66 1279.62 Q1531.4 1284.04 1531.4 1292.95 Q1531.4 1301.84 1533.66 1306.29 Q1535.95 1310.72 1540.46 1310.72 Q1545 1310.72 1547.26 1306.29 Q1549.55 1301.84 1549.55 1292.95 Q1549.55 1284.04 1547.26 1279.62 Q1545 1275.16 1540.46 1275.16 M1540.46 1270.53 Q1547.72 1270.53 1551.54 1276.29 Q1555.39 1282.02 1555.39 1292.95 Q1555.39 1303.86 1551.54 1309.62 Q1547.72 1315.35 1540.46 1315.35 Q1533.2 1315.35 1529.35 1309.62 Q1525.53 1303.86 1525.53 1292.95 Q1525.53 1282.02 1529.35 1276.29 Q1533.2 1270.53 1540.46 1270.53 Z" fill="#000000" fill-rule="nonzero" fill-opacity="1" /><path clip-path="url(#clip640)" d="M1578.16 1275.16 Q1573.65 1275.16 1571.36 1279.62 Q1569.11 1284.04 1569.11 1292.95 Q1569.11 1301.84 1571.36 1306.29 Q1573.65 1310.72 1578.16 1310.72 Q1582.71 1310.72 1584.96 1306.29 Q1587.25 1301.84 1587.25 1292.95 Q1587.25 1284.04 1584.96 1279.62 Q1582.71 1275.16 1578.16 1275.16 M1578.16 1270.53 Q1585.42 1270.53 1589.24 1276.29 Q1593.09 1282.02 1593.09 1292.95 Q1593.09 1303.86 1589.24 1309.62 Q1585.42 1315.35 1578.16 1315.35 Q1570.9 1315.35 1567.05 1309.62 Q1563.23 1303.86 1563.23 1292.95 Q1563.23 1282.02 1567.05 1276.29 Q1570.9 1270.53 1578.16 1270.53 Z" fill="#000000" fill-rule="nonzero" fill-opacity="1" /><path clip-path="url(#clip640)" d="M1848.22 1276.4 L1833.46 1299.47 L1848.22 1299.47 L1848.22 1276.4 M1846.69 1271.31 L1854.04 1271.31 L1854.04 1299.47 L1860.2 1299.47 L1860.2 1304.33 L1854.04 1304.33 L1854.04 1314.51 L1848.22 1314.51 L1848.22 1304.33 L1828.72 1304.33 L1828.72 1298.68 L1846.69 1271.31 Z" fill="#000000" fill-rule="nonzero" fill-opacity="1" /><path clip-path="url(#clip640)" d="M1882.37 1275.16 Q1877.85 1275.16 1875.57 1279.62 Q1873.31 1284.04 1873.31 1292.95 Q1873.31 1301.84 1875.57 1306.29 Q1877.85 1310.72 1882.37 1310.72 Q1886.91 1310.72 1889.16 1306.29 Q1891.45 1301.84 1891.45 1292.95 Q1891.45 1284.04 1889.16 1279.62 Q1886.91 1275.16 1882.37 1275.16 M1882.37 1270.53 Q1889.63 1270.53 1893.45 1276.29 Q1897.3 1282.02 1897.3 1292.95 Q1897.3 1303.86 1893.45 1309.62 Q1889.63 1315.35 1882.37 1315.35 Q1875.1 1315.35 1871.25 1309.62 Q1867.43 1303.86 1867.43 1292.95 Q1867.43 1282.02 1871.25 1276.29 Q1875.1 1270.53 1882.37 1270.53 Z" fill="#000000" fill-rule="nonzero" fill-opacity="1" /><path clip-path="url(#clip640)" d="M1920.07 1275.16 Q1915.55 1275.16 1913.27 1279.62 Q1911.01 1284.04 1911.01 1292.95 Q1911.01 1301.84 1913.27 1306.29 Q1915.55 1310.72 1920.07 1310.72 Q1924.61 1310.72 1926.87 1306.29 Q1929.15 1301.84 1929.15 1292.95 Q1929.15 1284.04 1926.87 1279.62 Q1924.61 1275.16 1920.07 1275.16 M1920.07 1270.53 Q1927.33 1270.53 1931.15 1276.29 Q1935 1282.02 1935 1292.95 Q1935 1303.86 1931.15 1309.62 Q1927.33 1315.35 1920.07 1315.35 Q1912.8 1315.35 1908.96 1309.62 Q1905.14 1303.86 1905.14 1292.95 Q1905.14 1282.02 1908.96 1276.29 Q1912.8 1270.53 1920.07 1270.53 Z" fill="#000000" fill-rule="nonzero" fill-opacity="1" /><path clip-path="url(#clip640)" d="M2172.48 1271.31 L2195.42 1271.31 L2195.42 1276.23 L2177.83 1276.23 L2177.83 1286.82 Q2179.1 1286.39 2180.38 1286.18 Q2181.65 1285.95 2182.92 1285.95 Q2190.16 1285.95 2194.38 1289.92 Q2198.6 1293.88 2198.6 1300.65 Q2198.6 1307.62 2194.26 1311.5 Q2189.92 1315.35 2182.03 1315.35 Q2179.31 1315.35 2176.47 1314.89 Q2173.66 1314.42 2170.65 1313.5 L2170.65 1307.62 Q2173.26 1309.04 2176.04 1309.74 Q2178.81 1310.43 2181.91 1310.43 Q2186.92 1310.43 2189.84 1307.8 Q2192.76 1305.17 2192.76 1300.65 Q2192.76 1296.14 2189.84 1293.5 Q2186.92 1290.87 2181.91 1290.87 Q2179.57 1290.87 2177.22 1291.39 Q2174.91 1291.91 2172.48 1293.01 L2172.48 1271.31 Z" fill="#000000" fill-rule="nonzero" fill-opacity="1" /><path clip-path="url(#clip640)" d="M2222.62 1275.16 Q2218.11 1275.16 2215.82 1279.62 Q2213.56 1284.04 2213.56 1292.95 Q2213.56 1301.84 2215.82 1306.29 Q2218.11 1310.72 2222.62 1310.72 Q2227.16 1310.72 2229.42 1306.29 Q2231.71 1301.84 2231.71 1292.95 Q2231.71 1284.04 2229.42 1279.62 Q2227.16 1275.16 2222.62 1275.16 M2222.62 1270.53 Q2229.88 1270.53 2233.7 1276.29 Q2237.55 1282.02 2237.55 1292.95 Q2237.55 1303.86 2233.7 1309.62 Q2229.88 1315.35 2222.62 1315.35 Q2215.36 1315.35 2211.51 1309.62 Q2207.69 1303.86 2207.69 1292.95 Q2207.69 1282.02 2211.51 1276.29 Q2215.36 1270.53 2222.62 1270.53 Z" fill="#000000" fill-rule="nonzero" fill-opacity="1" /><path clip-path="url(#clip640)" d="M2260.32 1275.16 Q2255.81 1275.16 2253.52 1279.62 Q2251.27 1284.04 2251.27 1292.95 Q2251.27 1301.84 2253.52 1306.29 Q2255.81 1310.72 2260.32 1310.72 Q2264.87 1310.72 2267.12 1306.29 Q2269.41 1301.84 2269.41 1292.95 Q2269.41 1284.04 2267.12 1279.62 Q2264.87 1275.16 2260.32 1275.16 M2260.32 1270.53 Q2267.59 1270.53 2271.41 1276.29 Q2275.25 1282.02 2275.25 1292.95 Q2275.25 1303.86 2271.41 1309.62 Q2267.59 1315.35 2260.32 1315.35 Q2253.06 1315.35 2249.21 1309.62 Q2245.39 1303.86 2245.39 1292.95 Q2245.39 1282.02 2249.21 1276.29 Q2253.06 1270.53 2260.32 1270.53 Z" fill="#000000" fill-rule="nonzero" fill-opacity="1" /><path clip-path="url(#clip640)" d="M1178.5 1351.62 L1218.7 1351.62 L1218.7 1357.03 L1201.83 1357.03 L1201.83 1399.14 L1195.37 1399.14 L1195.37 1357.03 L1178.5 1357.03 L1178.5 1351.62 Z" fill="#000000" fill-rule="nonzero" fill-opacity="1" /><path clip-path="url(#clip640)" d="M1235.73 1368.96 Q1234.74 1368.39 1233.56 1368.13 Q1232.42 1367.85 1231.02 1367.85 Q1226.05 1367.85 1223.38 1371.09 Q1220.74 1374.31 1220.74 1380.36 L1220.74 1399.14 L1214.85 1399.14 L1214.85 1363.49 L1220.74 1363.49 L1220.74 1369.03 Q1222.58 1365.78 1225.54 1364.22 Q1228.5 1362.63 1232.74 1362.63 Q1233.34 1362.63 1234.07 1362.72 Q1234.8 1362.79 1235.7 1362.95 L1235.73 1368.96 Z" fill="#000000" fill-rule="nonzero" fill-opacity="1" /><path clip-path="url(#clip640)" d="M1258.07 1381.22 Q1250.97 1381.22 1248.24 1382.84 Q1245.5 1384.46 1245.5 1388.38 Q1245.5 1391.5 1247.54 1393.34 Q1249.6 1395.16 1253.14 1395.16 Q1258.01 1395.16 1260.94 1391.72 Q1263.9 1388.25 1263.9 1382.52 L1263.9 1381.22 L1258.07 1381.22 M1269.75 1378.8 L1269.75 1399.14 L1263.9 1399.14 L1263.9 1393.72 Q1261.89 1396.97 1258.9 1398.53 Q1255.91 1400.06 1251.58 1400.06 Q1246.1 1400.06 1242.86 1397 Q1239.64 1393.92 1239.64 1388.76 Q1239.64 1382.74 1243.65 1379.69 Q1247.69 1376.63 1255.68 1376.63 L1263.9 1376.63 L1263.9 1376.06 Q1263.9 1372.02 1261.22 1369.82 Q1258.58 1367.59 1253.77 1367.59 Q1250.72 1367.59 1247.82 1368.33 Q1244.93 1369.06 1242.25 1370.52 L1242.25 1365.11 Q1245.47 1363.87 1248.49 1363.26 Q1251.51 1362.63 1254.38 1362.63 Q1262.11 1362.63 1265.93 1366.64 Q1269.75 1370.65 1269.75 1378.8 Z" fill="#000000" fill-rule="nonzero" fill-opacity="1" /><path clip-path="url(#clip640)" d="M1305.27 1368.9 L1305.27 1349.61 L1311.13 1349.61 L1311.13 1399.14 L1305.27 1399.14 L1305.27 1393.79 Q1303.43 1396.97 1300.59 1398.53 Q1297.79 1400.06 1293.85 1400.06 Q1287.39 1400.06 1283.31 1394.9 Q1279.27 1389.75 1279.27 1381.34 Q1279.27 1372.94 1283.31 1367.78 Q1287.39 1362.63 1293.85 1362.63 Q1297.79 1362.63 1300.59 1364.19 Q1303.43 1365.72 1305.27 1368.9 M1285.32 1381.34 Q1285.32 1387.8 1287.96 1391.5 Q1290.63 1395.16 1295.28 1395.16 Q1299.93 1395.16 1302.6 1391.5 Q1305.27 1387.8 1305.27 1381.34 Q1305.27 1374.88 1302.6 1371.22 Q1299.93 1367.53 1295.28 1367.53 Q1290.63 1367.53 1287.96 1371.22 Q1285.32 1374.88 1285.32 1381.34 Z" fill="#000000" fill-rule="nonzero" fill-opacity="1" /><path clip-path="url(#clip640)" d="M1323.19 1363.49 L1329.05 1363.49 L1329.05 1399.14 L1323.19 1399.14 L1323.19 1363.49 M1323.19 1349.61 L1329.05 1349.61 L1329.05 1357.03 L1323.19 1357.03 L1323.19 1349.61 Z" fill="#000000" fill-rule="nonzero" fill-opacity="1" /><path clip-path="url(#clip640)" d="M1370.94 1377.62 L1370.94 1399.14 L1365.08 1399.14 L1365.08 1377.81 Q1365.08 1372.75 1363.11 1370.24 Q1361.13 1367.72 1357.19 1367.72 Q1352.44 1367.72 1349.71 1370.74 Q1346.97 1373.77 1346.97 1378.99 L1346.97 1399.14 L1341.08 1399.14 L1341.08 1363.49 L1346.97 1363.49 L1346.97 1369.03 Q1349.07 1365.81 1351.9 1364.22 Q1354.77 1362.63 1358.49 1362.63 Q1364.63 1362.63 1367.78 1366.45 Q1370.94 1370.24 1370.94 1377.62 Z" fill="#000000" fill-rule="nonzero" fill-opacity="1" /><path clip-path="url(#clip640)" d="M1406.07 1380.9 Q1406.07 1374.53 1403.43 1371.03 Q1400.82 1367.53 1396.08 1367.53 Q1391.37 1367.53 1388.73 1371.03 Q1386.12 1374.53 1386.12 1380.9 Q1386.12 1387.23 1388.73 1390.73 Q1391.37 1394.23 1396.08 1394.23 Q1400.82 1394.23 1403.43 1390.73 Q1406.07 1387.23 1406.07 1380.9 M1411.93 1394.71 Q1411.93 1403.81 1407.89 1408.24 Q1403.85 1412.69 1395.51 1412.69 Q1392.42 1412.69 1389.68 1412.22 Q1386.94 1411.77 1384.37 1410.82 L1384.37 1405.12 Q1386.94 1406.52 1389.46 1407.19 Q1391.97 1407.86 1394.58 1407.86 Q1400.34 1407.86 1403.21 1404.83 Q1406.07 1401.84 1406.07 1395.76 L1406.07 1392.87 Q1404.26 1396.02 1401.43 1397.58 Q1398.59 1399.14 1394.65 1399.14 Q1388.09 1399.14 1384.08 1394.14 Q1380.07 1389.14 1380.07 1380.9 Q1380.07 1372.62 1384.08 1367.63 Q1388.09 1362.63 1394.65 1362.63 Q1398.59 1362.63 1401.43 1364.19 Q1404.26 1365.75 1406.07 1368.9 L1406.07 1363.49 L1411.93 1363.49 L1411.93 1394.71 Z" fill="#000000" fill-rule="nonzero" fill-opacity="1" /><path clip-path="url(#clip640)" d="M1451.4 1356.9 L1451.4 1393.85 L1459.16 1393.85 Q1469 1393.85 1473.55 1389.4 Q1478.13 1384.94 1478.13 1375.33 Q1478.13 1365.78 1473.55 1361.36 Q1469 1356.9 1459.16 1356.9 L1451.4 1356.9 M1444.97 1351.62 L1458.18 1351.62 Q1471.99 1351.62 1478.45 1357.38 Q1484.91 1363.11 1484.91 1375.33 Q1484.91 1387.61 1478.42 1393.37 Q1471.93 1399.14 1458.18 1399.14 L1444.97 1399.14 L1444.97 1351.62 Z" fill="#000000" fill-rule="nonzero" fill-opacity="1" /><path clip-path="url(#clip640)" d="M1511.11 1381.22 Q1504.01 1381.22 1501.27 1382.84 Q1498.54 1384.46 1498.54 1388.38 Q1498.54 1391.5 1500.57 1393.34 Q1502.64 1395.16 1506.17 1395.16 Q1511.04 1395.16 1513.97 1391.72 Q1516.93 1388.25 1516.93 1382.52 L1516.93 1381.22 L1511.11 1381.22 M1522.79 1378.8 L1522.79 1399.14 L1516.93 1399.14 L1516.93 1393.72 Q1514.93 1396.97 1511.94 1398.53 Q1508.94 1400.06 1504.61 1400.06 Q1499.14 1400.06 1495.89 1397 Q1492.68 1393.92 1492.68 1388.76 Q1492.68 1382.74 1496.69 1379.69 Q1500.73 1376.63 1508.72 1376.63 L1516.93 1376.63 L1516.93 1376.06 Q1516.93 1372.02 1514.26 1369.82 Q1511.62 1367.59 1506.81 1367.59 Q1503.76 1367.59 1500.86 1368.33 Q1497.96 1369.06 1495.29 1370.52 L1495.29 1365.11 Q1498.5 1363.87 1501.53 1363.26 Q1504.55 1362.63 1507.42 1362.63 Q1515.15 1362.63 1518.97 1366.64 Q1522.79 1370.65 1522.79 1378.8 Z" fill="#000000" fill-rule="nonzero" fill-opacity="1" /><path clip-path="url(#clip640)" d="M1549.68 1402.45 Q1547.2 1408.81 1544.85 1410.75 Q1542.49 1412.69 1538.54 1412.69 L1533.87 1412.69 L1533.87 1407.79 L1537.3 1407.79 Q1539.72 1407.79 1541.06 1406.65 Q1542.4 1405.5 1544.02 1401.24 L1545.07 1398.56 L1530.65 1363.49 L1536.86 1363.49 L1548 1391.37 L1559.14 1363.49 L1565.34 1363.49 L1549.68 1402.45 Z" fill="#000000" fill-rule="nonzero" fill-opacity="1" /><polyline clip-path="url(#clip640)" style="stroke:#000000; stroke-linecap:round; stroke-linejoin:round; stroke-width:4; stroke-opacity:1; fill:none" points="469.828,1241.31 469.828,184.932 "/>
<polyline clip-path="url(#clip640)" style="stroke:#000000; stroke-linecap:round; stroke-linejoin:round; stroke-width:4; stroke-opacity:1; fill:none" points="469.828,1170.32 488.725,1170.32 "/>
<polyline clip-path="url(#clip640)" style="stroke:#000000; stroke-linecap:round; stroke-linejoin:round; stroke-width:4; stroke-opacity:1; fill:none" points="469.828,945.602 488.725,945.602 "/>
<polyline clip-path="url(#clip640)" style="stroke:#000000; stroke-linecap:round; stroke-linejoin:round; stroke-width:4; stroke-opacity:1; fill:none" points="469.828,720.885 488.725,720.885 "/>
<polyline clip-path="url(#clip640)" style="stroke:#000000; stroke-linecap:round; stroke-linejoin:round; stroke-width:4; stroke-opacity:1; fill:none" points="469.828,496.167 488.725,496.167 "/>
<polyline clip-path="url(#clip640)" style="stroke:#000000; stroke-linecap:round; stroke-linejoin:round; stroke-width:4; stroke-opacity:1; fill:none" points="469.828,271.45 488.725,271.45 "/>
<path clip-path="url(#clip640)" d="M318.985 1170.88 L356.079 1170.88 L356.079 1175.8 L318.985 1175.8 L318.985 1170.88 Z" fill="#000000" fill-rule="nonzero" fill-opacity="1" /><path clip-path="url(#clip640)" d="M369.708 1187 L379.256 1187 L379.256 1154.04 L368.869 1156.13 L368.869 1150.8 L379.198 1148.72 L385.043 1148.72 L385.043 1187 L394.592 1187 L394.592 1191.92 L369.708 1191.92 L369.708 1187 Z" fill="#000000" fill-rule="nonzero" fill-opacity="1" /><path clip-path="url(#clip640)" d="M418.897 1152.57 Q414.383 1152.57 412.097 1157.02 Q409.841 1161.45 409.841 1170.36 Q409.841 1179.25 412.097 1183.7 Q414.383 1188.13 418.897 1188.13 Q423.44 1188.13 425.697 1183.7 Q427.983 1179.25 427.983 1170.36 Q427.983 1161.45 425.697 1157.02 Q423.44 1152.57 418.897 1152.57 M418.897 1147.94 Q426.16 1147.94 429.979 1153.7 Q433.828 1159.43 433.828 1170.36 Q433.828 1181.27 429.979 1187.03 Q426.16 1192.76 418.897 1192.76 Q411.635 1192.76 407.786 1187.03 Q403.967 1181.27 403.967 1170.36 Q403.967 1159.43 407.786 1153.7 Q411.635 1147.94 418.897 1147.94 Z" fill="#000000" fill-rule="nonzero" fill-opacity="1" /><path clip-path="url(#clip640)" d="M357.931 946.166 L395.026 946.166 L395.026 951.085 L357.931 951.085 L357.931 946.166 Z" fill="#000000" fill-rule="nonzero" fill-opacity="1" /><path clip-path="url(#clip640)" d="M407.699 924.002 L430.645 924.002 L430.645 928.921 L413.052 928.921 L413.052 939.511 Q414.325 939.077 415.599 938.875 Q416.872 938.643 418.145 938.643 Q425.379 938.643 429.603 942.607 Q433.828 946.571 433.828 953.342 Q433.828 960.315 429.487 964.193 Q425.147 968.041 417.248 968.041 Q414.528 968.041 411.692 967.578 Q408.886 967.115 405.876 966.189 L405.876 960.315 Q408.481 961.733 411.258 962.428 Q414.036 963.122 417.132 963.122 Q422.138 963.122 425.06 960.489 Q427.983 957.856 427.983 953.342 Q427.983 948.828 425.06 946.195 Q422.138 943.562 417.132 943.562 Q414.788 943.562 412.445 944.083 Q410.13 944.604 407.699 945.703 L407.699 924.002 Z" fill="#000000" fill-rule="nonzero" fill-opacity="1" /><path clip-path="url(#clip640)" d="M418.897 703.133 Q414.383 703.133 412.097 707.589 Q409.841 712.016 409.841 720.928 Q409.841 729.811 412.097 734.267 Q414.383 738.694 418.897 738.694 Q423.44 738.694 425.697 734.267 Q427.983 729.811 427.983 720.928 Q427.983 712.016 425.697 707.589 Q423.44 703.133 418.897 703.133 M418.897 698.503 Q426.16 698.503 429.979 704.261 Q433.828 709.991 433.828 720.928 Q433.828 731.837 429.979 737.595 Q426.16 743.324 418.897 743.324 Q411.635 743.324 407.786 737.595 Q403.967 731.837 403.967 720.928 Q403.967 709.991 407.786 704.261 Q411.635 698.503 418.897 698.503 Z" fill="#000000" fill-rule="nonzero" fill-opacity="1" /><path clip-path="url(#clip640)" d="M407.699 474.567 L430.645 474.567 L430.645 479.486 L413.052 479.486 L413.052 490.076 Q414.325 489.642 415.599 489.44 Q416.872 489.208 418.145 489.208 Q425.379 489.208 429.603 493.172 Q433.828 497.137 433.828 503.907 Q433.828 510.881 429.487 514.758 Q425.147 518.606 417.248 518.606 Q414.528 518.606 411.692 518.143 Q408.886 517.68 405.876 516.755 L405.876 510.881 Q408.481 512.299 411.258 512.993 Q414.036 513.687 417.132 513.687 Q422.138 513.687 425.06 511.054 Q427.983 508.421 427.983 503.907 Q427.983 499.394 425.06 496.76 Q422.138 494.127 417.132 494.127 Q414.788 494.127 412.445 494.648 Q410.13 495.169 407.699 496.269 L407.699 474.567 Z" fill="#000000" fill-rule="nonzero" fill-opacity="1" /><path clip-path="url(#clip640)" d="M369.708 288.131 L379.256 288.131 L379.256 255.174 L368.869 257.257 L368.869 251.933 L379.198 249.85 L385.043 249.85 L385.043 288.131 L394.592 288.131 L394.592 293.05 L369.708 293.05 L369.708 288.131 Z" fill="#000000" fill-rule="nonzero" fill-opacity="1" /><path clip-path="url(#clip640)" d="M418.897 253.698 Q414.383 253.698 412.097 258.154 Q409.841 262.581 409.841 271.493 Q409.841 280.376 412.097 284.832 Q414.383 289.259 418.897 289.259 Q423.44 289.259 425.697 284.832 Q427.983 280.376 427.983 271.493 Q427.983 262.581 425.697 258.154 Q423.44 253.698 418.897 253.698 M418.897 249.069 Q426.16 249.069 429.979 254.827 Q433.828 260.556 433.828 271.493 Q433.828 282.402 429.979 288.16 Q426.16 293.889 418.897 293.889 Q411.635 293.889 407.786 288.16 Q403.967 282.402 403.967 271.493 Q403.967 260.556 407.786 254.827 Q411.635 249.069 418.897 249.069 Z" fill="#000000" fill-rule="nonzero" fill-opacity="1" /><path clip-path="url(#clip640)" d="M221.209 1032.86 L221.209 1002.81 L226.619 1002.81 L226.619 1026.43 L240.688 1026.43 L240.688 1003.8 L246.098 1003.8 L246.098 1026.43 L263.318 1026.43 L263.318 1002.24 L268.729 1002.24 L268.729 1032.86 L221.209 1032.86 Z" fill="#000000" fill-rule="nonzero" fill-opacity="1" /><path clip-path="url(#clip640)" d="M233.081 962.292 L250.427 975.182 L268.729 961.623 L268.729 968.53 L254.724 978.906 L268.729 989.282 L268.729 996.189 L250.077 982.344 L233.081 995.011 L233.081 988.105 L245.78 978.651 L233.081 969.198 L233.081 962.292 Z" fill="#000000" fill-rule="nonzero" fill-opacity="1" /><path clip-path="url(#clip640)" d="M234.449 928.84 L239.924 928.84 Q238.555 931.322 237.887 933.837 Q237.186 936.319 237.186 938.866 Q237.186 944.563 240.815 947.714 Q244.412 950.865 250.936 950.865 Q257.461 950.865 261.09 947.714 Q264.686 944.563 264.686 938.866 Q264.686 936.319 264.018 933.837 Q263.318 931.322 261.949 928.84 L267.36 928.84 Q268.506 931.291 269.079 933.932 Q269.652 936.542 269.652 939.502 Q269.652 947.555 264.591 952.297 Q259.53 957.04 250.936 957.04 Q242.215 957.04 237.218 952.266 Q232.221 947.459 232.221 939.12 Q232.221 936.415 232.794 933.837 Q233.335 931.259 234.449 928.84 Z" fill="#000000" fill-rule="nonzero" fill-opacity="1" /><path clip-path="url(#clip640)" d="M249.44 888.163 L252.305 888.163 L252.305 915.09 Q258.352 914.708 261.535 911.461 Q264.686 908.183 264.686 902.358 Q264.686 898.985 263.859 895.834 Q263.031 892.651 261.376 889.532 L266.914 889.532 Q268.251 892.683 268.951 895.993 Q269.652 899.303 269.652 902.709 Q269.652 911.239 264.686 916.236 Q259.721 921.201 251.255 921.201 Q242.502 921.201 237.377 916.49 Q232.221 911.748 232.221 903.727 Q232.221 896.534 236.868 892.364 Q241.483 888.163 249.44 888.163 M247.722 894.019 Q242.916 894.083 240.051 896.725 Q237.186 899.335 237.186 903.663 Q237.186 908.565 239.956 911.525 Q242.725 914.453 247.754 914.899 L247.722 894.019 Z" fill="#000000" fill-rule="nonzero" fill-opacity="1" /><path clip-path="url(#clip640)" d="M234.131 855.825 L239.669 855.825 Q238.396 858.308 237.759 860.981 Q237.123 863.655 237.123 866.52 Q237.123 870.88 238.46 873.076 Q239.796 875.241 242.47 875.241 Q244.507 875.241 245.685 873.681 Q246.831 872.121 247.881 867.411 L248.326 865.406 Q249.663 859.167 252.114 856.557 Q254.533 853.915 258.894 853.915 Q263.859 853.915 266.755 857.862 Q269.652 861.777 269.652 868.652 Q269.652 871.517 269.079 874.636 Q268.538 877.723 267.424 881.161 L261.376 881.161 Q263.063 877.914 263.922 874.763 Q264.75 871.612 264.75 868.525 Q264.75 864.387 263.35 862.159 Q261.917 859.931 259.339 859.931 Q256.952 859.931 255.679 861.554 Q254.406 863.146 253.228 868.588 L252.751 870.625 Q251.605 876.068 249.25 878.487 Q246.862 880.906 242.725 880.906 Q237.696 880.906 234.958 877.341 Q232.221 873.776 232.221 867.22 Q232.221 863.973 232.699 861.109 Q233.176 858.244 234.131 855.825 Z" fill="#000000" fill-rule="nonzero" fill-opacity="1" /><path clip-path="url(#clip640)" d="M234.131 821.864 L239.669 821.864 Q238.396 824.347 237.759 827.02 Q237.123 829.694 237.123 832.558 Q237.123 836.919 238.46 839.115 Q239.796 841.279 242.47 841.279 Q244.507 841.279 245.685 839.72 Q246.831 838.16 247.881 833.45 L248.326 831.444 Q249.663 825.206 252.114 822.596 Q254.533 819.954 258.894 819.954 Q263.859 819.954 266.755 823.901 Q269.652 827.816 269.652 834.691 Q269.652 837.556 269.079 840.675 Q268.538 843.762 267.424 847.2 L261.376 847.2 Q263.063 843.953 263.922 840.802 Q264.75 837.651 264.75 834.564 Q264.75 830.426 263.35 828.198 Q261.917 825.97 259.339 825.97 Q256.952 825.97 255.679 827.593 Q254.406 829.185 253.228 834.627 L252.751 836.664 Q251.605 842.107 249.25 844.526 Q246.862 846.945 242.725 846.945 Q237.696 846.945 234.958 843.38 Q232.221 839.815 232.221 833.259 Q232.221 830.012 232.699 827.148 Q233.176 824.283 234.131 821.864 Z" fill="#000000" fill-rule="nonzero" fill-opacity="1" /><path clip-path="url(#clip640)" d="M261.949 757.252 L249.186 757.252 L249.186 767.756 L243.902 767.756 L243.902 750.886 L264.304 750.886 Q266.946 754.61 268.315 759.098 Q269.652 763.586 269.652 768.679 Q269.652 779.819 263.159 786.121 Q256.634 792.391 245.016 792.391 Q233.367 792.391 226.874 786.121 Q220.349 779.819 220.349 768.679 Q220.349 764.032 221.495 759.862 Q222.641 755.661 224.869 752.128 L231.712 752.128 Q228.688 755.693 227.161 759.703 Q225.633 763.713 225.633 768.138 Q225.633 776.859 230.502 781.251 Q235.372 785.611 245.016 785.611 Q254.629 785.611 259.498 781.251 Q264.368 776.859 264.368 768.138 Q264.368 764.732 263.795 762.058 Q263.19 759.385 261.949 757.252 Z" fill="#000000" fill-rule="nonzero" fill-opacity="1" /><path clip-path="url(#clip640)" d="M238.555 718.74 Q237.982 719.726 237.728 720.904 Q237.441 722.05 237.441 723.45 Q237.441 728.415 240.688 731.089 Q243.902 733.731 249.95 733.731 L268.729 733.731 L268.729 739.619 L233.081 739.619 L233.081 733.731 L238.619 733.731 Q235.372 731.885 233.813 728.925 Q232.221 725.965 232.221 721.732 Q232.221 721.127 232.317 720.395 Q232.38 719.663 232.54 718.771 L238.555 718.74 Z" fill="#000000" fill-rule="nonzero" fill-opacity="1" /><path clip-path="url(#clip640)" d="M237.186 700.215 Q237.186 704.926 240.879 707.663 Q244.539 710.401 250.936 710.401 Q257.334 710.401 261.026 707.695 Q264.686 704.958 264.686 700.215 Q264.686 695.537 260.994 692.799 Q257.302 690.062 250.936 690.062 Q244.603 690.062 240.91 692.799 Q237.186 695.537 237.186 700.215 M232.221 700.215 Q232.221 692.577 237.186 688.216 Q242.152 683.856 250.936 683.856 Q259.689 683.856 264.686 688.216 Q269.652 692.577 269.652 700.215 Q269.652 707.886 264.686 712.247 Q259.689 716.575 250.936 716.575 Q242.152 716.575 237.186 712.247 Q232.221 707.886 232.221 700.215 Z" fill="#000000" fill-rule="nonzero" fill-opacity="1" /><path clip-path="url(#clip640)" d="M233.081 677.554 L233.081 671.697 L260.899 664.376 L233.081 657.088 L233.081 650.181 L260.899 642.86 L233.081 635.572 L233.081 629.715 L268.729 639.041 L268.729 645.948 L239.51 653.618 L268.729 661.321 L268.729 668.228 L233.081 677.554 Z" fill="#000000" fill-rule="nonzero" fill-opacity="1" /><path clip-path="url(#clip640)" d="M222.959 615.042 L233.081 615.042 L233.081 602.979 L237.632 602.979 L237.632 615.042 L256.984 615.042 Q261.344 615.042 262.586 613.865 Q263.827 612.655 263.827 608.995 L263.827 602.979 L268.729 602.979 L268.729 608.995 Q268.729 615.774 266.214 618.352 Q263.668 620.931 256.984 620.931 L237.632 620.931 L237.632 625.227 L233.081 625.227 L233.081 620.931 L222.959 620.931 L222.959 615.042 Z" fill="#000000" fill-rule="nonzero" fill-opacity="1" /><path clip-path="url(#clip640)" d="M247.212 565.644 L268.729 565.644 L268.729 571.501 L247.403 571.501 Q242.343 571.501 239.828 573.474 Q237.314 575.448 237.314 579.394 Q237.314 584.137 240.338 586.874 Q243.361 589.611 248.581 589.611 L268.729 589.611 L268.729 595.5 L219.203 595.5 L219.203 589.611 L238.619 589.611 Q235.404 587.511 233.813 584.678 Q232.221 581.813 232.221 578.089 Q232.221 571.946 236.041 568.795 Q239.828 565.644 247.212 565.644 Z" fill="#000000" fill-rule="nonzero" fill-opacity="1" /><path clip-path="url(#clip640)" d="M246.449 510.454 Q247.149 508.385 249.44 506.443 Q251.732 504.47 255.743 502.497 L268.729 495.972 L268.729 502.879 L256.538 508.958 Q251.764 511.313 250.204 513.541 Q248.645 515.737 248.645 519.557 L248.645 526.559 L268.729 526.559 L268.729 532.988 L221.209 532.988 L221.209 518.474 Q221.209 510.326 224.614 506.316 Q228.02 502.306 234.895 502.306 Q239.383 502.306 242.343 504.406 Q245.303 506.475 246.449 510.454 M226.492 526.559 L243.361 526.559 L243.361 518.474 Q243.361 513.828 241.229 511.472 Q239.064 509.085 234.895 509.085 Q230.725 509.085 228.625 511.472 Q226.492 513.828 226.492 518.474 L226.492 526.559 Z" fill="#000000" fill-rule="nonzero" fill-opacity="1" /><path clip-path="url(#clip640)" d="M250.809 473.182 Q250.809 480.28 252.432 483.018 Q254.056 485.755 257.971 485.755 Q261.09 485.755 262.936 483.718 Q264.75 481.649 264.75 478.116 Q264.75 473.246 261.313 470.318 Q257.843 467.358 252.114 467.358 L250.809 467.358 L250.809 473.182 M248.39 461.501 L268.729 461.501 L268.729 467.358 L263.318 467.358 Q266.564 469.363 268.124 472.355 Q269.652 475.347 269.652 479.676 Q269.652 485.15 266.596 488.397 Q263.509 491.611 258.352 491.611 Q252.337 491.611 249.281 487.601 Q246.226 483.559 246.226 475.57 L246.226 467.358 L245.653 467.358 Q241.611 467.358 239.414 470.031 Q237.186 472.673 237.186 477.479 Q237.186 480.535 237.919 483.431 Q238.651 486.328 240.115 489.001 L234.704 489.001 Q233.463 485.787 232.858 482.763 Q232.221 479.739 232.221 476.875 Q232.221 469.14 236.232 465.321 Q240.242 461.501 248.39 461.501 Z" fill="#000000" fill-rule="nonzero" fill-opacity="1" /><path clip-path="url(#clip640)" d="M222.959 443.646 L233.081 443.646 L233.081 431.583 L237.632 431.583 L237.632 443.646 L256.984 443.646 Q261.344 443.646 262.586 442.468 Q263.827 441.258 263.827 437.598 L263.827 431.583 L268.729 431.583 L268.729 437.598 Q268.729 444.378 266.214 446.956 Q263.668 449.534 256.984 449.534 L237.632 449.534 L237.632 453.831 L233.081 453.831 L233.081 449.534 L222.959 449.534 L222.959 443.646 Z" fill="#000000" fill-rule="nonzero" fill-opacity="1" /><path clip-path="url(#clip640)" d="M249.44 393.388 L252.305 393.388 L252.305 420.315 Q258.352 419.933 261.535 416.687 Q264.686 413.409 264.686 407.584 Q264.686 404.21 263.859 401.059 Q263.031 397.876 261.376 394.757 L266.914 394.757 Q268.251 397.908 268.951 401.218 Q269.652 404.528 269.652 407.934 Q269.652 416.464 264.686 421.461 Q259.721 426.426 251.255 426.426 Q242.502 426.426 237.377 421.716 Q232.221 416.973 232.221 408.953 Q232.221 401.759 236.868 397.59 Q241.483 393.388 249.44 393.388 M247.722 399.245 Q242.916 399.308 240.051 401.95 Q237.186 404.56 237.186 408.889 Q237.186 413.79 239.956 416.751 Q242.725 419.679 247.754 420.124 L247.722 399.245 Z" fill="#000000" fill-rule="nonzero" fill-opacity="1" /><path clip-path="url(#clip640)" d="M768.091 31.5855 Q769.972 32.222 771.737 34.3054 Q773.531 36.3887 775.325 40.0345 L781.256 51.84 L774.978 51.84 L769.451 40.7579 Q767.31 36.4176 765.284 34.9998 Q763.288 33.582 759.816 33.582 L753.45 33.582 L753.45 51.84 L747.605 51.84 L747.605 8.64 L760.799 8.64 Q768.207 8.64 771.853 11.736 Q775.498 14.8321 775.498 21.0821 Q775.498 25.1619 773.589 27.8529 Q771.708 30.5438 768.091 31.5855 M753.45 13.4432 L753.45 28.7788 L760.799 28.7788 Q765.024 28.7788 767.165 26.8401 Q769.335 24.8726 769.335 21.0821 Q769.335 17.2916 767.165 15.3819 Q765.024 13.4432 760.799 13.4432 L753.45 13.4432 Z" fill="#000000" fill-rule="nonzero" fill-opacity="1" /><path clip-path="url(#clip640)" d="M813.606 34.3054 L813.606 36.9095 L789.127 36.9095 Q789.474 42.4072 792.425 45.3007 Q795.406 48.1653 800.701 48.1653 Q803.768 48.1653 806.633 47.4129 Q809.526 46.6606 812.362 45.156 L812.362 50.1907 Q809.497 51.406 806.488 52.0425 Q803.479 52.6791 800.383 52.6791 Q792.628 52.6791 788.085 48.1653 Q783.571 43.6514 783.571 35.9547 Q783.571 27.9975 787.854 23.339 Q792.165 18.6515 799.457 18.6515 Q805.996 18.6515 809.786 22.876 Q813.606 27.0716 813.606 34.3054 M808.282 32.7429 Q808.224 28.3737 805.822 25.7695 Q803.45 23.1654 799.514 23.1654 Q795.058 23.1654 792.368 25.6827 Q789.706 28.2001 789.3 32.7718 L808.282 32.7429 Z" fill="#000000" fill-rule="nonzero" fill-opacity="1" /><path clip-path="url(#clip640)" d="M827.61 10.2314 L827.61 19.4328 L838.577 19.4328 L838.577 23.5705 L827.61 23.5705 L827.61 41.163 Q827.61 45.1271 828.681 46.2555 Q829.781 47.384 833.108 47.384 L838.577 47.384 L838.577 51.84 L833.108 51.84 Q826.945 51.84 824.601 49.5541 Q822.257 47.2393 822.257 41.163 L822.257 23.5705 L818.351 23.5705 L818.351 19.4328 L822.257 19.4328 L822.257 10.2314 L827.61 10.2314 Z" fill="#000000" fill-rule="nonzero" fill-opacity="1" /><path clip-path="url(#clip640)" d="M845.029 39.0507 L845.029 19.4328 L850.353 19.4328 L850.353 38.8482 Q850.353 43.4488 852.147 45.7636 Q853.941 48.0495 857.529 48.0495 Q861.841 48.0495 864.329 45.3007 Q866.846 42.5519 866.846 37.8065 L866.846 19.4328 L872.17 19.4328 L872.17 51.84 L866.846 51.84 L866.846 46.8632 Q864.908 49.8145 862.332 51.2613 Q859.786 52.6791 856.401 52.6791 Q850.816 52.6791 847.923 49.2069 Q845.029 45.7347 845.029 39.0507 M858.426 18.6515 L858.426 18.6515 Z" fill="#000000" fill-rule="nonzero" fill-opacity="1" /><path clip-path="url(#clip640)" d="M901.916 24.4096 Q901.019 23.8888 899.948 23.6573 Q898.906 23.3969 897.633 23.3969 Q893.119 23.3969 890.689 26.3482 Q888.287 29.2707 888.287 34.7683 L888.287 51.84 L882.934 51.84 L882.934 19.4328 L888.287 19.4328 L888.287 24.4675 Q889.965 21.5161 892.656 20.0983 Q895.347 18.6515 899.196 18.6515 Q899.745 18.6515 900.411 18.7383 Q901.076 18.7962 901.887 18.9409 L901.916 24.4096 Z" fill="#000000" fill-rule="nonzero" fill-opacity="1" /><path clip-path="url(#clip640)" d="M933.397 32.2799 L933.397 51.84 L928.073 51.84 L928.073 32.4535 Q928.073 27.8529 926.279 25.567 Q924.485 23.2811 920.897 23.2811 Q916.586 23.2811 914.097 26.03 Q911.609 28.7788 911.609 33.5241 L911.609 51.84 L906.256 51.84 L906.256 19.4328 L911.609 19.4328 L911.609 24.4675 Q913.519 21.545 916.094 20.0983 Q918.698 18.6515 922.083 18.6515 Q927.668 18.6515 930.532 22.1237 Q933.397 25.567 933.397 32.2799 Z" fill="#000000" fill-rule="nonzero" fill-opacity="1" /><path clip-path="url(#clip640)" d="M957.095 8.64 L993.64 8.64 L993.64 13.559 L978.304 13.559 L978.304 51.84 L972.43 51.84 L972.43 13.559 L957.095 13.559 L957.095 8.64 Z" fill="#000000" fill-rule="nonzero" fill-opacity="1" /><path clip-path="url(#clip640)" d="M1009.12 24.4096 Q1008.22 23.8888 1007.15 23.6573 Q1006.11 23.3969 1004.84 23.3969 Q1000.32 23.3969 997.893 26.3482 Q995.491 29.2707 995.491 34.7683 L995.491 51.84 L990.138 51.84 L990.138 19.4328 L995.491 19.4328 L995.491 24.4675 Q997.17 21.5161 999.861 20.0983 Q1002.55 18.6515 1006.4 18.6515 Q1006.95 18.6515 1007.62 18.7383 Q1008.28 18.7962 1009.09 18.9409 L1009.12 24.4096 Z" fill="#000000" fill-rule="nonzero" fill-opacity="1" /><path clip-path="url(#clip640)" d="M1029.43 35.5496 Q1022.98 35.5496 1020.49 37.0253 Q1018 38.501 1018 42.06 Q1018 44.8956 1019.85 46.5738 Q1021.74 48.2231 1024.95 48.2231 Q1029.37 48.2231 1032.04 45.0981 Q1034.73 41.9442 1034.73 36.7359 L1034.73 35.5496 L1029.43 35.5496 M1040.05 33.3505 L1040.05 51.84 L1034.73 51.84 L1034.73 46.921 Q1032.9 49.8724 1030.18 51.2902 Q1027.46 52.6791 1023.53 52.6791 Q1018.55 52.6791 1015.6 49.9014 Q1012.68 47.0947 1012.68 42.4072 Q1012.68 36.9385 1016.32 34.1607 Q1020 31.3829 1027.26 31.3829 L1034.73 31.3829 L1034.73 30.8621 Q1034.73 27.1874 1032.3 25.1908 Q1029.9 23.1654 1025.53 23.1654 Q1022.75 23.1654 1020.12 23.8309 Q1017.48 24.4964 1015.05 25.8274 L1015.05 20.9085 Q1017.97 19.78 1020.72 19.2302 Q1023.47 18.6515 1026.08 18.6515 Q1033.11 18.6515 1036.58 22.2973 Q1040.05 25.9431 1040.05 33.3505 Z" fill="#000000" fill-rule="nonzero" fill-opacity="1" /><path clip-path="url(#clip640)" d="M1051.02 19.4328 L1056.34 19.4328 L1056.34 52.4187 Q1056.34 58.6108 1053.97 61.3886 Q1051.63 64.1663 1046.39 64.1663 L1044.36 64.1663 L1044.36 59.6525 L1045.78 59.6525 Q1048.82 59.6525 1049.92 58.2346 Q1051.02 56.8458 1051.02 52.4187 L1051.02 19.4328 M1051.02 6.81709 L1056.34 6.81709 L1056.34 13.559 L1051.02 13.559 L1051.02 6.81709 Z" fill="#000000" fill-rule="nonzero" fill-opacity="1" /><path clip-path="url(#clip640)" d="M1095.2 34.3054 L1095.2 36.9095 L1070.72 36.9095 Q1071.07 42.4072 1074.02 45.3007 Q1077 48.1653 1082.3 48.1653 Q1085.36 48.1653 1088.23 47.4129 Q1091.12 46.6606 1093.96 45.156 L1093.96 50.1907 Q1091.09 51.406 1088.08 52.0425 Q1085.07 52.6791 1081.98 52.6791 Q1074.22 52.6791 1069.68 48.1653 Q1065.17 43.6514 1065.17 35.9547 Q1065.17 27.9975 1069.45 23.339 Q1073.76 18.6515 1081.05 18.6515 Q1087.59 18.6515 1091.38 22.876 Q1095.2 27.0716 1095.2 34.3054 M1089.88 32.7429 Q1089.82 28.3737 1087.42 25.7695 Q1085.05 23.1654 1081.11 23.1654 Q1076.65 23.1654 1073.96 25.6827 Q1071.3 28.2001 1070.9 32.7718 L1089.88 32.7429 Z" fill="#000000" fill-rule="nonzero" fill-opacity="1" /><path clip-path="url(#clip640)" d="M1127.26 20.677 L1127.26 25.6538 Q1125 24.4096 1122.72 23.802 Q1120.46 23.1654 1118.15 23.1654 Q1112.97 23.1654 1110.1 26.464 Q1107.24 29.7336 1107.24 35.6653 Q1107.24 41.597 1110.1 44.8956 Q1112.97 48.1653 1118.15 48.1653 Q1120.46 48.1653 1122.72 47.5576 Q1125 46.921 1127.26 45.6768 L1127.26 50.5958 Q1125.03 51.6375 1122.63 52.1583 Q1120.26 52.6791 1117.57 52.6791 Q1110.25 52.6791 1105.94 48.0784 Q1101.63 43.4778 1101.63 35.6653 Q1101.63 27.7371 1105.97 23.1943 Q1110.33 18.6515 1117.92 18.6515 Q1120.38 18.6515 1122.72 19.1724 Q1125.06 19.6642 1127.26 20.677 Z" fill="#000000" fill-rule="nonzero" fill-opacity="1" /><path clip-path="url(#clip640)" d="M1141.79 10.2314 L1141.79 19.4328 L1152.75 19.4328 L1152.75 23.5705 L1141.79 23.5705 L1141.79 41.163 Q1141.79 45.1271 1142.86 46.2555 Q1143.96 47.384 1147.28 47.384 L1152.75 47.384 L1152.75 51.84 L1147.28 51.84 Q1141.12 51.84 1138.78 49.5541 Q1136.43 47.2393 1136.43 41.163 L1136.43 23.5705 L1132.53 23.5705 L1132.53 19.4328 L1136.43 19.4328 L1136.43 10.2314 L1141.79 10.2314 Z" fill="#000000" fill-rule="nonzero" fill-opacity="1" /><path clip-path="url(#clip640)" d="M1172.31 23.1654 Q1168.03 23.1654 1165.54 26.5218 Q1163.05 29.8494 1163.05 35.6653 Q1163.05 41.4813 1165.51 44.8377 Q1168 48.1653 1172.31 48.1653 Q1176.57 48.1653 1179.06 44.8088 Q1181.54 41.4523 1181.54 35.6653 Q1181.54 29.9072 1179.06 26.5508 Q1176.57 23.1654 1172.31 23.1654 M1172.31 18.6515 Q1179.26 18.6515 1183.22 23.1654 Q1187.19 27.6792 1187.19 35.6653 Q1187.19 43.6225 1183.22 48.1653 Q1179.26 52.6791 1172.31 52.6791 Q1165.34 52.6791 1161.38 48.1653 Q1157.44 43.6225 1157.44 35.6653 Q1157.44 27.6792 1161.38 23.1654 Q1165.34 18.6515 1172.31 18.6515 Z" fill="#000000" fill-rule="nonzero" fill-opacity="1" /><path clip-path="url(#clip640)" d="M1214.79 24.4096 Q1213.89 23.8888 1212.82 23.6573 Q1211.78 23.3969 1210.51 23.3969 Q1205.99 23.3969 1203.56 26.3482 Q1201.16 29.2707 1201.16 34.7683 L1201.16 51.84 L1195.81 51.84 L1195.81 19.4328 L1201.16 19.4328 L1201.16 24.4675 Q1202.84 21.5161 1205.53 20.0983 Q1208.22 18.6515 1212.07 18.6515 Q1212.62 18.6515 1213.29 18.7383 Q1213.95 18.7962 1214.76 18.9409 L1214.79 24.4096 Z" fill="#000000" fill-rule="nonzero" fill-opacity="1" /><path clip-path="url(#clip640)" d="M1233.86 54.8492 Q1231.6 60.6362 1229.46 62.4013 Q1227.32 64.1663 1223.73 64.1663 L1219.48 64.1663 L1219.48 59.7103 L1222.6 59.7103 Q1224.8 59.7103 1226.02 58.6687 Q1227.23 57.627 1228.71 53.7497 L1229.66 51.3192 L1216.56 19.4328 L1222.2 19.4328 L1232.32 44.7799 L1242.45 19.4328 L1248.09 19.4328 L1233.86 54.8492 Z" fill="#000000" fill-rule="nonzero" fill-opacity="1" /><path clip-path="url(#clip640)" d="M1287.07 6.87496 Q1283.19 13.53 1281.31 20.0404 Q1279.43 26.5508 1279.43 33.2348 Q1279.43 39.9188 1281.31 46.487 Q1283.22 53.0263 1287.07 59.6525 L1282.44 59.6525 Q1278.1 52.8527 1275.93 46.2845 Q1273.79 39.7162 1273.79 33.2348 Q1273.79 26.7823 1275.93 20.2429 Q1278.07 13.7036 1282.44 6.87496 L1287.07 6.87496 Z" fill="#000000" fill-rule="nonzero" fill-opacity="1" /><path clip-path="url(#clip640)" d="M1313.81 6.81709 L1313.81 11.2442 L1308.71 11.2442 Q1305.85 11.2442 1304.72 12.4016 Q1303.62 13.559 1303.62 16.5682 L1303.62 19.4328 L1312.39 19.4328 L1312.39 23.5705 L1303.62 23.5705 L1303.62 51.84 L1298.27 51.84 L1298.27 23.5705 L1293.18 23.5705 L1293.18 19.4328 L1298.27 19.4328 L1298.27 17.1758 Q1298.27 11.765 1300.78 9.30551 Q1303.3 6.81709 1308.77 6.81709 L1313.81 6.81709 Z" fill="#000000" fill-rule="nonzero" fill-opacity="1" /><path clip-path="url(#clip640)" d="M1318.26 19.4328 L1323.59 19.4328 L1323.59 51.84 L1318.26 51.84 L1318.26 19.4328 M1318.26 6.81709 L1323.59 6.81709 L1323.59 13.559 L1318.26 13.559 L1318.26 6.81709 Z" fill="#000000" fill-rule="nonzero" fill-opacity="1" /><path clip-path="url(#clip640)" d="M1353.5 24.4096 Q1352.61 23.8888 1351.54 23.6573 Q1350.5 23.3969 1349.22 23.3969 Q1344.71 23.3969 1342.28 26.3482 Q1339.88 29.2707 1339.88 34.7683 L1339.88 51.84 L1334.52 51.84 L1334.52 19.4328 L1339.88 19.4328 L1339.88 24.4675 Q1341.55 21.5161 1344.25 20.0983 Q1346.94 18.6515 1350.78 18.6515 Q1351.33 18.6515 1352 18.7383 Q1352.67 18.7962 1353.48 18.9409 L1353.5 24.4096 Z" fill="#000000" fill-rule="nonzero" fill-opacity="1" /><path clip-path="url(#clip640)" d="M1379.75 20.3876 L1379.75 25.4223 Q1377.49 24.2649 1375.06 23.6862 Q1372.63 23.1075 1370.03 23.1075 Q1366.06 23.1075 1364.07 24.3228 Q1362.1 25.5381 1362.1 27.9686 Q1362.1 29.8204 1363.52 30.891 Q1364.93 31.9327 1369.22 32.8876 L1371.04 33.2926 Q1376.71 34.5079 1379.08 36.7359 Q1381.48 38.935 1381.48 42.8991 Q1381.48 47.4129 1377.9 50.046 Q1374.34 52.6791 1368.09 52.6791 Q1365.48 52.6791 1362.65 52.1583 Q1359.84 51.6664 1356.72 50.6537 L1356.72 45.156 Q1359.67 46.6896 1362.53 47.4708 Q1365.4 48.2231 1368.2 48.2231 Q1371.97 48.2231 1373.99 46.95 Q1376.02 45.6479 1376.02 43.3042 Q1376.02 41.134 1374.54 39.9766 Q1373.09 38.8192 1368.15 37.7486 L1366.29 37.3146 Q1361.35 36.273 1359.15 34.1318 Q1356.95 31.9616 1356.95 28.2001 Q1356.95 23.6283 1360.19 21.1399 Q1363.43 18.6515 1369.39 18.6515 Q1372.34 18.6515 1374.95 19.0855 Q1377.55 19.5196 1379.75 20.3876 Z" fill="#000000" fill-rule="nonzero" fill-opacity="1" /><path clip-path="url(#clip640)" d="M1395.23 10.2314 L1395.23 19.4328 L1406.2 19.4328 L1406.2 23.5705 L1395.23 23.5705 L1395.23 41.163 Q1395.23 45.1271 1396.3 46.2555 Q1397.4 47.384 1400.73 47.384 L1406.2 47.384 L1406.2 51.84 L1400.73 51.84 Q1394.56 51.84 1392.22 49.5541 Q1389.88 47.2393 1389.88 41.163 L1389.88 23.5705 L1385.97 23.5705 L1385.97 19.4328 L1389.88 19.4328 L1389.88 10.2314 L1395.23 10.2314 Z" fill="#000000" fill-rule="nonzero" fill-opacity="1" /><path clip-path="url(#clip640)" d="M1432.84 8.64 L1455.79 8.64 L1455.79 13.559 L1438.2 13.559 L1438.2 24.1492 Q1439.47 23.7152 1440.74 23.5126 Q1442.02 23.2811 1443.29 23.2811 Q1450.52 23.2811 1454.75 27.2452 Q1458.97 31.2093 1458.97 37.9801 Q1458.97 44.9535 1454.63 48.8308 Q1450.29 52.6791 1442.39 52.6791 Q1439.67 52.6791 1436.84 52.2162 Q1434.03 51.7532 1431.02 50.8273 L1431.02 44.9535 Q1433.63 46.3713 1436.4 47.0657 Q1439.18 47.7602 1442.28 47.7602 Q1447.28 47.7602 1450.21 45.1271 Q1453.13 42.494 1453.13 37.9801 Q1453.13 33.4663 1450.21 30.8332 Q1447.28 28.2001 1442.28 28.2001 Q1439.93 28.2001 1437.59 28.7209 Q1435.27 29.2417 1432.84 30.3413 L1432.84 8.64 Z" fill="#000000" fill-rule="nonzero" fill-opacity="1" /><path clip-path="url(#clip640)" d="M1482.99 12.4884 Q1478.47 12.4884 1476.19 16.9444 Q1473.93 21.3714 1473.93 30.2834 Q1473.93 39.1665 1476.19 43.6225 Q1478.47 48.0495 1482.99 48.0495 Q1487.53 48.0495 1489.79 43.6225 Q1492.07 39.1665 1492.07 30.2834 Q1492.07 21.3714 1489.79 16.9444 Q1487.53 12.4884 1482.99 12.4884 M1482.99 7.85875 Q1490.25 7.85875 1494.07 13.6168 Q1497.92 19.346 1497.92 30.2834 Q1497.92 41.1919 1494.07 46.95 Q1490.25 52.6791 1482.99 52.6791 Q1475.73 52.6791 1471.88 46.95 Q1468.06 41.1919 1468.06 30.2834 Q1468.06 19.346 1471.88 13.6168 Q1475.73 7.85875 1482.99 7.85875 Z" fill="#000000" fill-rule="nonzero" fill-opacity="1" /><path clip-path="url(#clip640)" d="M1520.69 12.4884 Q1516.18 12.4884 1513.89 16.9444 Q1511.63 21.3714 1511.63 30.2834 Q1511.63 39.1665 1513.89 43.6225 Q1516.18 48.0495 1520.69 48.0495 Q1525.23 48.0495 1527.49 43.6225 Q1529.78 39.1665 1529.78 30.2834 Q1529.78 21.3714 1527.49 16.9444 Q1525.23 12.4884 1520.69 12.4884 M1520.69 7.85875 Q1527.95 7.85875 1531.77 13.6168 Q1535.62 19.346 1535.62 30.2834 Q1535.62 41.1919 1531.77 46.95 Q1527.95 52.6791 1520.69 52.6791 Q1513.43 52.6791 1509.58 46.95 Q1505.76 41.1919 1505.76 30.2834 Q1505.76 19.346 1509.58 13.6168 Q1513.43 7.85875 1520.69 7.85875 Z" fill="#000000" fill-rule="nonzero" fill-opacity="1" /><path clip-path="url(#clip640)" d="M1584.64 20.3876 L1584.64 25.4223 Q1582.38 24.2649 1579.95 23.6862 Q1577.52 23.1075 1574.92 23.1075 Q1570.95 23.1075 1568.95 24.3228 Q1566.99 25.5381 1566.99 27.9686 Q1566.99 29.8204 1568.41 30.891 Q1569.82 31.9327 1574.11 32.8876 L1575.93 33.2926 Q1581.6 34.5079 1583.97 36.7359 Q1586.37 38.935 1586.37 42.8991 Q1586.37 47.4129 1582.79 50.046 Q1579.23 52.6791 1572.98 52.6791 Q1570.37 52.6791 1567.54 52.1583 Q1564.73 51.6664 1561.61 50.6537 L1561.61 45.156 Q1564.56 46.6896 1567.42 47.4708 Q1570.29 48.2231 1573.09 48.2231 Q1576.85 48.2231 1578.88 46.95 Q1580.9 45.6479 1580.9 43.3042 Q1580.9 41.134 1579.43 39.9766 Q1577.98 38.8192 1573.03 37.7486 L1571.18 37.3146 Q1566.23 36.273 1564.04 34.1318 Q1561.84 31.9616 1561.84 28.2001 Q1561.84 23.6283 1565.08 21.1399 Q1568.32 18.6515 1574.28 18.6515 Q1577.23 18.6515 1579.83 19.0855 Q1582.44 19.5196 1584.64 20.3876 Z" fill="#000000" fill-rule="nonzero" fill-opacity="1" /><path clip-path="url(#clip640)" d="M1600.12 10.2314 L1600.12 19.4328 L1611.08 19.4328 L1611.08 23.5705 L1600.12 23.5705 L1600.12 41.163 Q1600.12 45.1271 1601.19 46.2555 Q1602.29 47.384 1605.62 47.384 L1611.08 47.384 L1611.08 51.84 L1605.62 51.84 Q1599.45 51.84 1597.11 49.5541 Q1594.76 47.2393 1594.76 41.163 L1594.76 23.5705 L1590.86 23.5705 L1590.86 19.4328 L1594.76 19.4328 L1594.76 10.2314 L1600.12 10.2314 Z" fill="#000000" fill-rule="nonzero" fill-opacity="1" /><path clip-path="url(#clip640)" d="M1645.81 34.3054 L1645.81 36.9095 L1621.33 36.9095 Q1621.67 42.4072 1624.63 45.3007 Q1627.61 48.1653 1632.9 48.1653 Q1635.97 48.1653 1638.83 47.4129 Q1641.73 46.6606 1644.56 45.156 L1644.56 50.1907 Q1641.7 51.406 1638.69 52.0425 Q1635.68 52.6791 1632.58 52.6791 Q1624.83 52.6791 1620.29 48.1653 Q1615.77 43.6514 1615.77 35.9547 Q1615.77 27.9975 1620.05 23.339 Q1624.37 18.6515 1631.66 18.6515 Q1638.2 18.6515 1641.99 22.876 Q1645.81 27.0716 1645.81 34.3054 M1640.48 32.7429 Q1640.42 28.3737 1638.02 25.7695 Q1635.65 23.1654 1631.71 23.1654 Q1627.26 23.1654 1624.57 25.6827 Q1621.91 28.2001 1621.5 32.7718 L1640.48 32.7429 Z" fill="#000000" fill-rule="nonzero" fill-opacity="1" /><path clip-path="url(#clip640)" d="M1659.7 46.9789 L1659.7 64.1663 L1654.34 64.1663 L1654.34 19.4328 L1659.7 19.4328 L1659.7 24.3517 Q1661.37 21.4582 1663.92 20.0693 Q1666.49 18.6515 1670.05 18.6515 Q1675.96 18.6515 1679.63 23.339 Q1683.33 28.0265 1683.33 35.6653 Q1683.33 43.3042 1679.63 47.9916 Q1675.96 52.6791 1670.05 52.6791 Q1666.49 52.6791 1663.92 51.2902 Q1661.37 49.8724 1659.7 46.9789 M1677.81 35.6653 Q1677.81 29.7915 1675.38 26.464 Q1672.98 23.1075 1668.75 23.1075 Q1664.53 23.1075 1662.1 26.464 Q1659.7 29.7915 1659.7 35.6653 Q1659.7 41.5391 1662.1 44.8956 Q1664.53 48.2231 1668.75 48.2231 Q1672.98 48.2231 1675.38 44.8956 Q1677.81 41.5391 1677.81 35.6653 Z" fill="#000000" fill-rule="nonzero" fill-opacity="1" /><path clip-path="url(#clip640)" d="M1712.82 20.3876 L1712.82 25.4223 Q1710.56 24.2649 1708.13 23.6862 Q1705.7 23.1075 1703.1 23.1075 Q1699.13 23.1075 1697.14 24.3228 Q1695.17 25.5381 1695.17 27.9686 Q1695.17 29.8204 1696.59 30.891 Q1698.01 31.9327 1702.29 32.8876 L1704.11 33.2926 Q1709.78 34.5079 1712.15 36.7359 Q1714.56 38.935 1714.56 42.8991 Q1714.56 47.4129 1710.97 50.046 Q1707.41 52.6791 1701.16 52.6791 Q1698.55 52.6791 1695.72 52.1583 Q1692.91 51.6664 1689.79 50.6537 L1689.79 45.156 Q1692.74 46.6896 1695.6 47.4708 Q1698.47 48.2231 1701.27 48.2231 Q1705.04 48.2231 1707.06 46.95 Q1709.09 45.6479 1709.09 43.3042 Q1709.09 41.134 1707.61 39.9766 Q1706.16 38.8192 1701.22 37.7486 L1699.36 37.3146 Q1694.42 36.273 1692.22 34.1318 Q1690.02 31.9616 1690.02 28.2001 Q1690.02 23.6283 1693.26 21.1399 Q1696.5 18.6515 1702.46 18.6515 Q1705.41 18.6515 1708.02 19.0855 Q1710.62 19.5196 1712.82 20.3876 Z" fill="#000000" fill-rule="nonzero" fill-opacity="1" /><path clip-path="url(#clip640)" d="M1722.19 6.87496 L1726.82 6.87496 Q1731.16 13.7036 1733.31 20.2429 Q1735.48 26.7823 1735.48 33.2348 Q1735.48 39.7162 1733.31 46.2845 Q1731.16 52.8527 1726.82 59.6525 L1722.19 59.6525 Q1726.04 53.0263 1727.92 46.487 Q1729.83 39.9188 1729.83 33.2348 Q1729.83 26.5508 1727.92 20.0404 Q1726.04 13.53 1722.19 6.87496 Z" fill="#000000" fill-rule="nonzero" fill-opacity="1" /><path clip-path="url(#clip640)" d="M1762.3 33.5241 L1815.77 33.5241 L1815.77 37.6908 L1762.3 37.6908 L1762.3 33.5241 Z" fill="#000000" fill-rule="nonzero" fill-opacity="1" /><path clip-path="url(#clip640)" d="M1843.32 8.64 L1849.16 8.64 L1849.16 26.898 L1868.55 8.64 L1876.07 8.64 L1854.63 28.7788 L1877.6 51.84 L1869.91 51.84 L1849.16 31.0357 L1849.16 51.84 L1843.32 51.84 L1843.32 8.64 Z" fill="#000000" fill-rule="nonzero" fill-opacity="1" /><path clip-path="url(#clip640)" d="M1882.64 24.9304 L1919.73 24.9304 L1919.73 29.7915 L1882.64 29.7915 L1882.64 24.9304 M1882.64 36.7359 L1919.73 36.7359 L1919.73 41.6549 L1882.64 41.6549 L1882.64 36.7359 Z" fill="#000000" fill-rule="nonzero" fill-opacity="1" /><path clip-path="url(#clip640)" d="M1933.36 46.921 L1942.91 46.921 L1942.91 13.964 L1932.52 16.0474 L1932.52 10.7233 L1942.85 8.64 L1948.7 8.64 L1948.7 46.921 L1958.25 46.921 L1958.25 51.84 L1933.36 51.84 L1933.36 46.921 Z" fill="#000000" fill-rule="nonzero" fill-opacity="1" /><path clip-path="url(#clip640)" d="M1970.11 8.64 L1993.06 8.64 L1993.06 13.559 L1975.46 13.559 L1975.46 24.1492 Q1976.74 23.7152 1978.01 23.5126 Q1979.28 23.2811 1980.56 23.2811 Q1987.79 23.2811 1992.01 27.2452 Q1996.24 31.2093 1996.24 37.9801 Q1996.24 44.9535 1991.9 48.8308 Q1987.56 52.6791 1979.66 52.6791 Q1976.94 52.6791 1974.1 52.2162 Q1971.3 51.7532 1968.29 50.8273 L1968.29 44.9535 Q1970.89 46.3713 1973.67 47.0657 Q1976.45 47.7602 1979.54 47.7602 Q1984.55 47.7602 1987.47 45.1271 Q1990.39 42.494 1990.39 37.9801 Q1990.39 33.4663 1987.47 30.8332 Q1984.55 28.2001 1979.54 28.2001 Q1977.2 28.2001 1974.86 28.7209 Q1972.54 29.2417 1970.11 30.3413 L1970.11 8.64 Z" fill="#000000" fill-rule="nonzero" fill-opacity="1" /><polyline clip-path="url(#clip642)" style="stroke:#ff0000; stroke-linecap:round; stroke-linejoin:round; stroke-width:4; stroke-opacity:0.6; fill:none" points="520.89,747.156 524.301,681.216 527.712,711.627 531.122,719.452 534.533,707.387 537.944,780.929 541.355,704.502 544.766,629.062 548.177,733.471 551.588,738.587 554.999,722.399 558.41,701.047 561.821,808.846 565.232,877.649 568.643,840.952 572.054,694.417 575.465,782.69 578.876,649.768 582.287,766.588 585.698,895.515 589.109,749.804 592.52,734.624 595.931,607.946 599.341,592.669 602.752,653.913 606.163,619.303 609.574,669.196 612.985,707.47 616.396,642.924 619.807,686.174 623.218,736.438 626.629,734.481 630.04,683.616 633.451,664.563 636.862,743.784 640.273,716.126 643.684,703.398 647.095,657.644 650.506,809.587 653.917,569.728 657.328,695.833 660.739,689.256 664.15,728.004 667.56,742.281 670.971,728.197 674.382,772.688 677.793,768.249 681.204,780.327 684.615,647.539 688.026,655.457 691.437,732.153 694.848,720.413 698.259,724.092 701.67,818.677 705.081,679.491 708.492,722.898 711.903,813.662 715.314,659.436 718.725,643.207 722.136,664.597 725.547,672.84 728.958,718.699 732.369,777.465 735.779,887.982 739.19,738.127 742.601,636.45 746.012,791.034 749.423,886.389 752.834,703.87 756.245,680.933 759.656,583.551 763.067,666.957 766.478,688.514 769.889,656.1 773.3,736.827 776.711,712.654 780.122,793.985 783.533,723.872 786.944,651.392 790.355,704.342 793.766,698.759 797.177,716.26 800.588,749.28 803.999,744.017 807.409,740.132 810.82,664.771 814.231,758.887 817.642,615.687 821.053,675.13 824.464,755.579 827.875,841.039 831.286,718.867 834.697,663.661 838.108,750.358 841.519,673.879 844.93,669.34 848.341,683.839 851.752,654.303 855.163,709.832 858.574,696.893 861.985,689.667 865.396,706.68 868.807,721.161 872.218,704.573 875.628,666.328 879.039,643.696 882.45,700.318 885.861,731.928 889.272,742.592 892.683,777.609 896.094,725.491 899.505,705.823 902.916,701.312 906.327,678.941 909.738,663.272 913.149,743.864 916.56,722.758 919.971,738.167 923.382,744.385 926.793,727.26 930.204,695.847 933.615,699.487 937.026,653.455 940.437,709.581 943.847,673.265 947.258,747.283 950.669,787.924 954.08,696.09 957.491,766.731 960.902,704.332 964.313,651.794 967.724,734.328 971.135,686.467 974.546,783.572 977.957,708.517 981.368,717.068 984.779,660.036 988.19,695.869 991.601,710.423 995.012,775.655 998.423,740.405 1001.83,708.433 1005.24,760.282 1008.66,871.862 1012.07,822.617 1015.48,687.515 1018.89,757.677 1022.3,747.623 1025.71,746.416 1029.12,691.151 1032.53,610.542 1035.94,752.032 1039.35,662.807 1042.77,669.599 1046.18,713.92 1049.59,631.168 1053,659.616 1056.41,692.925 1059.82,677.768 1063.23,728.822 1066.64,674.403 1070.05,698.577 1073.46,732.234 1076.87,739.352 1080.29,692.509 1083.7,717.433 1087.11,706.508 1090.52,726.358 1093.93,736.19 1097.34,705.958 1100.75,769.062 1104.16,735.245 1107.57,706.348 1110.98,744.874 1114.39,749.981 1117.81,665.617 1121.22,670.449 1124.63,677.117 1128.04,749.887 1131.45,816.655 1134.86,766.205 1138.27,710.085 1141.68,804.588 1145.09,717.48 1148.5,728.481 1151.92,713.035 1155.33,846.758 1158.74,788.226 1162.15,595.443 1165.56,696.854 1168.97,828.954 1172.38,724.824 1175.79,743.032 1179.2,853.775 1182.61,871.854 1186.02,788.437 1189.44,916.993 1192.85,688.631 1196.26,545.145 1199.67,664.267 1203.08,513.425 1206.49,671.241 1209.9,654.887 1213.31,674.018 1216.72,713.568 1220.13,625.364 1223.55,691.697 1226.96,684.393 1230.37,575.953 1233.78,687.828 1237.19,766.944 1240.6,662.06 1244.01,684.519 1247.42,693.656 1250.83,693.115 1254.24,704.571 1257.65,725.2 1261.07,710.952 1264.48,717.672 1267.89,716.358 1271.3,661.064 1274.71,739.182 1278.12,704.381 1281.53,642.356 1284.94,696.391 1288.35,713.905 1291.76,712.784 1295.18,722.894 1298.59,795.573 1302,683.591 1305.41,669.206 1308.82,725.686 1312.23,696.274 1315.64,774.513 1319.05,812.809 1322.46,775.241 1325.87,694.763 1329.28,860.152 1332.7,830.463 1336.11,766.945 1339.52,684.917 1342.93,449.811 1346.34,653.653 1349.75,682.27 1353.16,673.751 1356.57,708.538 1359.98,695.575 1363.39,712.589 1366.81,759.689 1370.22,780.376 1373.63,803.121 1377.04,869.654 1380.45,833.559 1383.86,657.113 1387.27,537.459 1390.68,745.453 1394.09,820.486 1397.5,724.005 1400.91,864.184 1404.33,735.834 1407.74,704.313 1411.15,654.692 1414.56,658.989 1417.97,604.404 1421.38,677.462 1424.79,748.814 1428.2,824.663 1431.61,781.836 1435.02,814.624 1438.44,708.483 1441.85,757.609 1445.26,505.467 1448.67,689.124 1452.08,648.064 1455.49,692.788 1458.9,785.371 1462.31,671.444 1465.72,673.05 1469.13,629.93 1472.54,667.237 1475.96,698.657 1479.37,718.85 1482.78,716.39 1486.19,702.364 1489.6,685.249 1493.01,688.706 1496.42,714.393 1499.83,739.584 1503.24,736.196 1506.65,693.451 1510.07,747.057 1513.48,771.465 1516.89,704.365 1520.3,814.572 1523.71,748.998 1527.12,834.092 1530.53,786.25 1533.94,637.642 1537.35,755.777 1540.76,619.533 1544.17,712.973 1547.59,652.611 1551,686.993 1554.41,695.359 1557.82,701.672 1561.23,773.864 1564.64,842.526 1568.05,828.916 1571.46,707.477 1574.87,588.977 1578.28,766.898 1581.7,810.576 1585.11,671.927 1588.52,664.272 1591.93,687.979 1595.34,729.479 1598.75,699.062 1602.16,642.639 1605.57,714.978 1608.98,760.082 1612.39,644.416 1615.8,729.975 1619.22,827.748 1622.63,647.422 1626.04,712.441 1629.45,709.229 1632.86,667.131 1636.27,694.716 1639.68,731.917 1643.09,753.627 1646.5,728.48 1649.91,798.139 1653.33,676.026 1656.74,642.456 1660.15,809.926 1663.56,812.068 1666.97,700.52 1670.38,593.15 1673.79,704.704 1677.2,793.442 1680.61,698.469 1684.02,650.172 1687.43,682.94 1690.85,691.567 1694.26,706.185 1697.67,725.828 1701.08,704.812 1704.49,728.182 1707.9,822.738 1711.31,673.876 1714.72,716.732 1718.13,756.772 1721.54,720.761 1724.96,734.77 1728.37,686.193 1731.78,787.955 1735.19,765.654 1738.6,767.896 1742.01,749.089 1745.42,610.326 1748.83,663.106 1752.24,784.89 1755.65,799.928 1759.06,683.171 1762.48,674.754 1765.89,624.871 1769.3,784.478 1772.71,673.763 1776.12,720.708 1779.53,765.613 1782.94,759.615 1786.35,749.14 1789.76,867.798 1793.17,776.329 1796.59,669.246 1800,703.214 1803.41,769.054 1806.82,737.043 1810.23,764.031 1813.64,703.762 1817.05,645.93 1820.46,606.778 1823.87,654.003 1827.28,710.097 1830.69,661.718 1834.11,699.115 1837.52,693.645 1840.93,762.484 1844.34,754.649 1847.75,760.864 1851.16,823.457 1854.57,819.378 1857.98,642.638 1861.39,611.827 1864.8,711.642 1868.21,709.005 1871.63,778.881 1875.04,726.743 1878.45,671.978 1881.86,818.905 1885.27,770.888 1888.68,587.521 1892.09,792.394 1895.5,800.022 1898.91,641.096 1902.32,710.553 1905.74,686.099 1909.15,697.606 1912.56,802.954 1915.97,887.601 1919.38,1007.96 1922.79,1211.41 1926.2,723.446 1929.61,768.119 1933.02,340.344 1936.43,646.033 1939.84,769.737 1943.26,965.736 1946.67,717.893 1950.08,581.06 1953.49,894.827 1956.9,541.07 1960.31,690.738 1963.72,800.214 1967.13,703.237 1970.54,706.487 1973.95,624.795 1977.37,620.732 1980.78,661.076 1984.19,957.088 1987.6,718.146 1991.01,868.246 1994.42,732.156 1997.83,819.798 2001.24,630.246 2004.65,978.001 2008.06,781.431 2011.47,569.206 2014.89,690.849 2018.3,656.541 2021.71,412.052 2025.12,707.858 2028.53,674.513 2031.94,649.614 2035.35,646.565 2038.76,715.327 2042.17,747.104 2045.58,789.515 2049,648.851 2052.41,619.618 2055.82,714.185 2059.23,709.716 2062.64,743.585 2066.05,642.102 2069.46,562.64 2072.87,717.498 2076.28,758.179 2079.69,652.909 2083.1,658.879 2086.52,729.014 2089.93,667.286 2093.34,657.211 2096.75,735.735 2100.16,745.224 2103.57,750.427 2106.98,787.29 2110.39,736.137 2113.8,709.119 2117.21,837.322 2120.63,869.298 2124.04,688.742 2127.45,617.899 2130.86,637.595 2134.27,651.635 2137.68,677.265 2141.09,727.37 2144.5,748.556 2147.91,685.16 2151.32,722.728 2154.73,742.677 2158.15,673.155 2161.56,740.011 2164.97,866.821 2168.38,650.325 2171.79,715.315 2175.2,792.509 2178.61,771.908 2182.02,717.208 2185.43,884.243 2188.84,800.626 2192.26,540.798 2195.67,634.569 2199.08,732.495 2202.49,982.294 2205.9,749.701 2209.31,624.973 2212.72,590.049 2216.13,685.758 2219.54,774.719 2222.95,605.602 "/>
<polyline clip-path="url(#clip642)" style="stroke:#000080; stroke-linecap:round; stroke-linejoin:round; stroke-width:4; stroke-opacity:0.6; fill:none" points="520.89,597.59 524.301,760.872 527.712,696.157 531.122,672.261 534.533,724.392 537.944,769.784 541.355,610.487 544.766,619.196 548.177,518.153 551.588,885.706 554.999,811.535 558.41,630.339 561.821,769.931 565.232,760.761 568.643,938.112 572.054,781.023 575.465,756.042 578.876,720.316 582.287,778.539 585.698,772.314 589.109,701.862 592.52,933.365 595.931,747.737 599.341,839.815 602.752,757.048 606.163,701.892 609.574,641.297 612.985,734.834 616.396,748.081 619.807,725.675 623.218,713.75 626.629,757.517 630.04,722.835 633.451,717.716 636.862,757.654 640.273,639.359 643.684,719.37 647.095,774.821 650.506,789.191 653.917,648.952 657.328,659.902 660.739,792.909 664.15,832.974 667.56,761.832 670.971,780.553 674.382,654.331 677.793,754.63 681.204,719.936 684.615,711.026 688.026,685.084 691.437,653.785 694.848,713.464 698.259,746.355 701.67,755.75 705.081,667.076 708.492,725.445 711.903,731.577 715.314,704.566 718.725,652.922 722.136,748.863 725.547,728.522 728.958,735.336 732.369,702.895 735.779,659.091 739.19,781.767 742.601,830.201 746.012,738.725 749.423,738.634 752.834,792.894 756.245,758.404 759.656,641.294 763.067,788.173 766.478,573.567 769.889,681.337 773.3,921.294 776.711,849.607 780.122,625.135 783.533,925.119 786.944,623.619 790.355,935.709 793.766,883.647 797.177,404.963 800.588,537.678 803.999,1001.85 807.409,653.936 810.82,740.029 814.231,745.24 817.642,662.873 821.053,543.257 824.464,965.462 827.875,710.544 831.286,960.227 834.697,780.046 838.108,214.83 841.519,717.277 844.93,663.279 848.341,843.102 851.752,648.053 855.163,599.317 858.574,700.486 861.985,855.151 865.396,763.93 868.807,763.999 872.218,721.573 875.628,760.369 879.039,733.882 882.45,660.397 885.861,662.635 889.272,595.732 892.683,693.255 896.094,713.161 899.505,714.189 902.916,690.329 906.327,680.874 909.738,678.498 913.149,772.751 916.56,720.228 919.971,835.95 923.382,644.314 926.793,658.302 930.204,635.8 933.615,787.564 937.026,990.393 940.437,630.906 943.847,710.32 947.258,593.997 950.669,449.967 954.08,770.584 957.491,544.249 960.902,638.838 964.313,844.012 967.724,499.035 971.135,724.101 974.546,630.253 977.957,769.217 981.368,661.137 984.779,771.257 988.19,696.932 991.601,727.001 995.012,817.428 998.423,661.192 1001.83,666.007 1005.24,622.53 1008.66,700.404 1012.07,689.727 1015.48,703.588 1018.89,643.11 1022.3,704.02 1025.71,722.969 1029.12,754.062 1032.53,727.586 1035.94,717.256 1039.35,749.123 1042.77,747.83 1046.18,719.607 1049.59,698.715 1053,797.912 1056.41,702.898 1059.82,686.207 1063.23,727.659 1066.64,738.649 1070.05,730.452 1073.46,747.751 1076.87,736.704 1080.29,701.089 1083.7,632.248 1087.11,814.949 1090.52,767.03 1093.93,650.142 1097.34,648.906 1100.75,841.989 1104.16,766.336 1107.57,761.253 1110.98,685.25 1114.39,687.844 1117.81,710.555 1121.22,742.237 1124.63,734.768 1128.04,706.263 1131.45,681.502 1134.86,672.561 1138.27,714.768 1141.68,713.781 1145.09,696.453 1148.5,785.484 1151.92,889.026 1155.33,730.537 1158.74,669.566 1162.15,776.743 1165.56,730.132 1168.97,681.736 1172.38,700.481 1175.79,851.355 1179.2,655.853 1182.61,722.407 1186.02,651.735 1189.44,680.905 1192.85,714.029 1196.26,714.546 1199.67,711.863 1203.08,719.769 1206.49,708.314 1209.9,668.258 1213.31,693.438 1216.72,712.163 1220.13,715.251 1223.55,719.904 1226.96,701.605 1230.37,777.039 1233.78,672.712 1237.19,773.764 1240.6,702.472 1244.01,643.821 1247.42,661.751 1250.83,680.281 1254.24,700.989 1257.65,719.151 1261.07,768.431 1264.48,669.551 1267.89,659.069 1271.3,596.961 1274.71,683.153 1278.12,789.344 1281.53,682.395 1284.94,727.456 1288.35,668.708 1291.76,581.764 1295.18,664.206 1298.59,688.978 1302,688.956 1305.41,734.371 1308.82,744.034 1312.23,722.359 1315.64,703.551 1319.05,649.403 1322.46,768.808 1325.87,715.225 1329.28,701.233 1332.7,728.624 1336.11,709.01 1339.52,736.348 1342.93,823.219 1346.34,794.299 1349.75,601.648 1353.16,745.733 1356.57,592.856 1359.98,683.728 1363.39,543.508 1366.81,591.873 1370.22,619.036 1373.63,608.231 1377.04,705.095 1380.45,737.706 1383.86,658.345 1387.27,680.788 1390.68,787.99 1394.09,667.651 1397.5,737.41 1400.91,743.303 1404.33,719.382 1407.74,673.812 1411.15,701.106 1414.56,687.826 1417.97,835.742 1421.38,559.262 1424.79,701.533 1428.2,652.851 1431.61,690.466 1435.02,677.731 1438.44,697.385 1441.85,708.04 1445.26,684.703 1448.67,730.603 1452.08,726.341 1455.49,735.892 1458.9,658.74 1462.31,772.471 1465.72,733.54 1469.13,708.408 1472.54,692.554 1475.96,729.403 1479.37,666.696 1482.78,710.93 1486.19,709.957 1489.6,716.908 1493.01,645.84 1496.42,707.586 1499.83,739.729 1503.24,662.487 1506.65,695.312 1510.07,681.53 1513.48,726.725 1516.89,706.183 1520.3,726.183 1523.71,692.881 1527.12,713.886 1530.53,707.34 1533.94,705.71 1537.35,598.038 1540.76,699.909 1544.17,679.55 1547.59,670.966 1551,690.527 1554.41,715.865 1557.82,741.93 1561.23,716.338 1564.64,710.346 1568.05,777.472 1571.46,734.782 1574.87,713.003 1578.28,710.767 1581.7,688.114 1585.11,670.849 1588.52,757.787 1591.93,635.726 1595.34,653.621 1598.75,740.587 1602.16,738.125 1605.57,741.853 1608.98,697.871 1612.39,731.062 1615.8,697.662 1619.22,646.39 1622.63,672.108 1626.04,724.395 1629.45,750.586 1632.86,723.535 1636.27,791.14 1639.68,760.094 1643.09,813.36 1646.5,698.769 1649.91,653.298 1653.33,695.652 1656.74,706.102 1660.15,700.495 1663.56,730.576 1666.97,735.434 1670.38,698.83 1673.79,714.554 1677.2,773.933 1680.61,771.853 1684.02,759.729 1687.43,756.602 1690.85,701.203 1694.26,660.38 1697.67,704.592 1701.08,788.281 1704.49,800.958 1707.9,870.18 1711.31,462.433 1714.72,831.895 1718.13,704.239 1721.54,749.81 1724.96,742.741 1728.37,716.506 1731.78,611.439 1735.19,628.079 1738.6,768.061 1742.01,756.123 1745.42,943.138 1748.83,609.563 1752.24,519.158 1755.65,714.376 1759.06,1082.75 1762.48,571.874 1765.89,1060.22 1769.3,1105.14 1772.71,808.543 1776.12,783.797 1779.53,800.277 1782.94,711.611 1786.35,762.8 1789.76,546.961 1793.17,847.235 1796.59,834.346 1800,750.892 1803.41,574.675 1806.82,752.613 1810.23,735.351 1813.64,600.993 1817.05,812.002 1820.46,377.992 1823.87,823.094 1827.28,683.891 1830.69,646.072 1834.11,786.275 1837.52,756.966 1840.93,644.554 1844.34,887.259 1847.75,478.122 1851.16,702.024 1854.57,574.643 1857.98,685.355 1861.39,759.816 1864.8,758.131 1868.21,749.107 1871.63,646.379 1875.04,634.682 1878.45,663.625 1881.86,739.119 1885.27,734.044 1888.68,723.634 1892.09,796.07 1895.5,672.005 1898.91,824.809 1902.32,850.529 1905.74,500.461 1909.15,949.456 1912.56,645.616 1915.97,577.53 1919.38,733.864 1922.79,732.295 1926.2,799.53 1929.61,663.12 1933.02,619.57 1936.43,594.156 1939.84,679.409 1943.26,760.218 1946.67,701.633 1950.08,638.774 1953.49,636.085 1956.9,762.387 1960.31,722.617 1963.72,717.804 1967.13,773.318 1970.54,764.936 1973.95,849.875 1977.37,600.408 1980.78,747.321 1984.19,769.126 1987.6,608.118 1991.01,713.4 1994.42,604.299 1997.83,712.276 2001.24,713.561 2004.65,632.517 2008.06,700.675 2011.47,787.774 2014.89,757.929 2018.3,758.563 2021.71,647.939 2025.12,718.523 2028.53,618.229 2031.94,735.072 2035.35,710.676 2038.76,718.024 2042.17,725.792 2045.58,762.26 2049,676.093 2052.41,683.945 2055.82,720.977 2059.23,704.159 2062.64,721.947 2066.05,703.414 2069.46,635.985 2072.87,710.656 2076.28,665.76 2079.69,746.446 2083.1,666.684 2086.52,722.935 2089.93,705.819 2093.34,753.338 2096.75,699.077 2100.16,769.266 2103.57,696.559 2106.98,639.039 2110.39,692.062 2113.8,703.224 2117.21,669.117 2120.63,759.611 2124.04,635.689 2127.45,699.012 2130.86,711.685 2134.27,714.981 2137.68,689.468 2141.09,696.356 2144.5,744.72 2147.91,742.613 2151.32,710.062 2154.73,727.893 2158.15,652.099 2161.56,652.919 2164.97,740.206 2168.38,744.686 2171.79,753.961 2175.2,730.481 2178.61,701.363 2182.02,691.865 2185.43,693.891 2188.84,702.485 2192.26,792.384 2195.67,654.837 2199.08,710.378 2202.49,684.166 2205.9,680.407 2209.31,717.257 2212.72,680.85 2216.13,682.763 2219.54,717.633 2222.95,665.253 "/>
<path clip-path="url(#clip640)" d="M529.967 1206.1 L1170.75 1206.1 L1170.75 1031.14 L529.967 1031.14  Z" fill="#ffffff" fill-rule="evenodd" fill-opacity="1"/>
<polyline clip-path="url(#clip640)" style="stroke:#000000; stroke-linecap:round; stroke-linejoin:round; stroke-width:4; stroke-opacity:1; fill:none" points="529.967,1206.1 1170.75,1206.1 1170.75,1031.14 529.967,1031.14 529.967,1206.1 "/>
<polyline clip-path="url(#clip640)" style="stroke:#ff0000; stroke-linecap:round; stroke-linejoin:round; stroke-width:4.5; stroke-opacity:0.6; fill:none" points="550.014,1089.46 670.293,1089.46 "/>
<path clip-path="url(#clip640)" d="M708.36 1073.59 Q702.631 1073.59 699.246 1077.86 Q695.886 1082.13 695.886 1089.5 Q695.886 1096.84 699.246 1101.11 Q702.631 1105.38 708.36 1105.38 Q714.089 1105.38 717.423 1101.11 Q720.782 1096.84 720.782 1089.5 Q720.782 1082.13 717.423 1077.86 Q714.089 1073.59 708.36 1073.59 M708.36 1069.32 Q716.537 1069.32 721.433 1074.81 Q726.329 1080.28 726.329 1089.5 Q726.329 1098.69 721.433 1104.19 Q716.537 1109.65 708.36 1109.65 Q700.157 1109.65 695.235 1104.19 Q690.34 1098.72 690.34 1089.5 Q690.34 1080.28 695.235 1074.81 Q700.157 1069.32 708.36 1069.32 Z" fill="#000000" fill-rule="nonzero" fill-opacity="1" /><path clip-path="url(#clip640)" d="M755.287 1094.34 Q755.287 1089.06 753.1 1086.06 Q750.938 1083.04 747.136 1083.04 Q743.334 1083.04 741.147 1086.06 Q738.985 1089.06 738.985 1094.34 Q738.985 1099.63 741.147 1102.65 Q743.334 1105.64 747.136 1105.64 Q750.938 1105.64 753.1 1102.65 Q755.287 1099.63 755.287 1094.34 M738.985 1084.16 Q740.496 1081.56 742.787 1080.31 Q745.105 1079.03 748.308 1079.03 Q753.62 1079.03 756.928 1083.25 Q760.261 1087.47 760.261 1094.34 Q760.261 1101.22 756.928 1105.44 Q753.62 1109.65 748.308 1109.65 Q745.105 1109.65 742.787 1108.4 Q740.496 1107.13 738.985 1104.52 L738.985 1108.9 L734.167 1108.9 L734.167 1068.38 L738.985 1068.38 L738.985 1084.16 Z" fill="#000000" fill-rule="nonzero" fill-opacity="1" /><path clip-path="url(#clip640)" d="M786.797 1080.59 L786.797 1085.12 Q784.766 1084.08 782.579 1083.56 Q780.391 1083.04 778.047 1083.04 Q774.48 1083.04 772.683 1084.13 Q770.912 1085.23 770.912 1087.41 Q770.912 1089.08 772.188 1090.04 Q773.464 1090.98 777.318 1091.84 L778.959 1092.21 Q784.063 1093.3 786.198 1095.31 Q788.36 1097.28 788.36 1100.85 Q788.36 1104.91 785.131 1107.28 Q781.928 1109.65 776.303 1109.65 Q773.959 1109.65 771.407 1109.19 Q768.881 1108.74 766.068 1107.83 L766.068 1102.88 Q768.725 1104.26 771.303 1104.97 Q773.881 1105.64 776.407 1105.64 Q779.792 1105.64 781.615 1104.5 Q783.438 1103.33 783.438 1101.22 Q783.438 1099.26 782.11 1098.22 Q780.808 1097.18 776.355 1096.22 L774.688 1095.83 Q770.235 1094.89 768.256 1092.96 Q766.277 1091.01 766.277 1087.62 Q766.277 1083.51 769.193 1081.27 Q772.11 1079.03 777.475 1079.03 Q780.131 1079.03 782.474 1079.42 Q784.818 1079.81 786.797 1080.59 Z" fill="#000000" fill-rule="nonzero" fill-opacity="1" /><path clip-path="url(#clip640)" d="M820.938 1093.12 L820.938 1095.46 L798.907 1095.46 Q799.219 1100.41 801.875 1103.01 Q804.558 1105.59 809.323 1105.59 Q812.084 1105.59 814.662 1104.91 Q817.266 1104.24 819.818 1102.88 L819.818 1107.41 Q817.24 1108.51 814.532 1109.08 Q811.823 1109.65 809.037 1109.65 Q802.058 1109.65 797.969 1105.59 Q793.907 1101.53 793.907 1094.6 Q793.907 1087.44 797.761 1083.25 Q801.641 1079.03 808.204 1079.03 Q814.089 1079.03 817.5 1082.83 Q820.938 1086.61 820.938 1093.12 M816.146 1091.71 Q816.094 1087.78 813.933 1085.44 Q811.797 1083.09 808.256 1083.09 Q804.245 1083.09 801.823 1085.36 Q799.428 1087.62 799.063 1091.74 L816.146 1091.71 Z" fill="#000000" fill-rule="nonzero" fill-opacity="1" /><path clip-path="url(#clip640)" d="M845.703 1084.21 Q844.896 1083.74 843.933 1083.53 Q842.995 1083.3 841.849 1083.3 Q837.787 1083.3 835.599 1085.96 Q833.438 1088.59 833.438 1093.53 L833.438 1108.9 L828.62 1108.9 L828.62 1079.73 L833.438 1079.73 L833.438 1084.26 Q834.948 1081.61 837.37 1080.33 Q839.792 1079.03 843.255 1079.03 Q843.75 1079.03 844.349 1079.11 Q844.948 1079.16 845.677 1079.29 L845.703 1084.21 Z" fill="#000000" fill-rule="nonzero" fill-opacity="1" /><path clip-path="url(#clip640)" d="M847.292 1079.73 L852.37 1079.73 L861.484 1104.21 L870.599 1079.73 L875.677 1079.73 L864.74 1108.9 L858.229 1108.9 L847.292 1079.73 Z" fill="#000000" fill-rule="nonzero" fill-opacity="1" /><path clip-path="url(#clip640)" d="M907.239 1093.12 L907.239 1095.46 L885.208 1095.46 Q885.521 1100.41 888.177 1103.01 Q890.859 1105.59 895.625 1105.59 Q898.385 1105.59 900.963 1104.91 Q903.568 1104.24 906.12 1102.88 L906.12 1107.41 Q903.542 1108.51 900.833 1109.08 Q898.125 1109.65 895.338 1109.65 Q888.359 1109.65 884.271 1105.59 Q880.208 1101.53 880.208 1094.6 Q880.208 1087.44 884.062 1083.25 Q887.943 1079.03 894.505 1079.03 Q900.391 1079.03 903.802 1082.83 Q907.239 1086.61 907.239 1093.12 M902.448 1091.71 Q902.396 1087.78 900.234 1085.44 Q898.099 1083.09 894.557 1083.09 Q890.547 1083.09 888.125 1085.36 Q885.729 1087.62 885.365 1091.74 L902.448 1091.71 Z" fill="#000000" fill-rule="nonzero" fill-opacity="1" /><path clip-path="url(#clip640)" d="M934.297 1084.16 L934.297 1068.38 L939.088 1068.38 L939.088 1108.9 L934.297 1108.9 L934.297 1104.52 Q932.786 1107.13 930.468 1108.4 Q928.177 1109.65 924.948 1109.65 Q919.661 1109.65 916.328 1105.44 Q913.021 1101.22 913.021 1094.34 Q913.021 1087.47 916.328 1083.25 Q919.661 1079.03 924.948 1079.03 Q928.177 1079.03 930.468 1080.31 Q932.786 1081.56 934.297 1084.16 M917.969 1094.34 Q917.969 1099.63 920.13 1102.65 Q922.317 1105.64 926.12 1105.64 Q929.922 1105.64 932.109 1102.65 Q934.297 1099.63 934.297 1094.34 Q934.297 1089.06 932.109 1086.06 Q929.922 1083.04 926.12 1083.04 Q922.317 1083.04 920.13 1086.06 Q917.969 1089.06 917.969 1094.34 Z" fill="#000000" fill-rule="nonzero" fill-opacity="1" /><polyline clip-path="url(#clip640)" style="stroke:#000080; stroke-linecap:round; stroke-linejoin:round; stroke-width:4.5; stroke-opacity:0.6; fill:none" points="550.014,1147.78 670.293,1147.78 "/>
<path clip-path="url(#clip640)" d="M721.694 1131.33 L721.694 1136.88 Q719.037 1134.41 716.017 1133.18 Q713.022 1131.96 709.636 1131.96 Q702.97 1131.96 699.428 1136.05 Q695.886 1140.11 695.886 1147.82 Q695.886 1155.5 699.428 1159.59 Q702.97 1163.65 709.636 1163.65 Q713.022 1163.65 716.017 1162.43 Q719.037 1161.2 721.694 1158.73 L721.694 1164.22 Q718.933 1166.1 715.834 1167.04 Q712.761 1167.97 709.324 1167.97 Q700.496 1167.97 695.418 1162.58 Q690.34 1157.17 690.34 1147.82 Q690.34 1138.44 695.418 1133.05 Q700.496 1127.64 709.324 1127.64 Q712.813 1127.64 715.886 1128.57 Q718.985 1129.48 721.694 1131.33 Z" fill="#000000" fill-rule="nonzero" fill-opacity="1" /><path clip-path="url(#clip640)" d="M729.819 1128.34 L735.079 1128.34 L735.079 1144.28 L754.193 1144.28 L754.193 1128.34 L759.454 1128.34 L759.454 1167.22 L754.193 1167.22 L754.193 1148.7 L735.079 1148.7 L735.079 1167.22 L729.819 1167.22 L729.819 1128.34 Z" fill="#000000" fill-rule="nonzero" fill-opacity="1" /><path clip-path="url(#clip640)" d="M769.922 1128.34 L777.761 1128.34 L787.683 1154.8 L797.657 1128.34 L805.495 1128.34 L805.495 1167.22 L800.365 1167.22 L800.365 1133.08 L790.339 1159.74 L785.053 1159.74 L775.027 1133.08 L775.027 1167.22 L769.922 1167.22 L769.922 1128.34 Z" fill="#000000" fill-rule="nonzero" fill-opacity="1" /><path clip-path="url(#clip640)" d="M815.938 1128.34 L823.776 1128.34 L833.698 1154.8 L843.672 1128.34 L851.511 1128.34 L851.511 1167.22 L846.38 1167.22 L846.38 1133.08 L836.354 1159.74 L831.068 1159.74 L821.042 1133.08 L821.042 1167.22 L815.938 1167.22 L815.938 1128.34 Z" fill="#000000" fill-rule="nonzero" fill-opacity="1" /><path clip-path="url(#clip640)" d="M890.208 1126.75 Q886.719 1132.74 885.026 1138.6 Q883.333 1144.46 883.333 1150.47 Q883.333 1156.49 885.026 1162.4 Q886.745 1168.29 890.208 1174.25 L886.042 1174.25 Q882.135 1168.13 880.182 1162.22 Q878.255 1156.31 878.255 1150.47 Q878.255 1144.67 880.182 1138.78 Q882.109 1132.9 886.042 1126.75 L890.208 1126.75 Z" fill="#000000" fill-rule="nonzero" fill-opacity="1" /><path clip-path="url(#clip640)" d="M904.141 1162.84 L904.141 1178.31 L899.323 1178.31 L899.323 1138.05 L904.141 1138.05 L904.141 1142.48 Q905.651 1139.88 907.943 1138.63 Q910.26 1137.35 913.463 1137.35 Q918.776 1137.35 922.083 1141.57 Q925.416 1145.79 925.416 1152.66 Q925.416 1159.54 922.083 1163.76 Q918.776 1167.97 913.463 1167.97 Q910.26 1167.97 907.943 1166.72 Q905.651 1165.45 904.141 1162.84 M920.443 1152.66 Q920.443 1147.38 918.255 1144.38 Q916.094 1141.36 912.292 1141.36 Q908.489 1141.36 906.302 1144.38 Q904.141 1147.38 904.141 1152.66 Q904.141 1157.95 906.302 1160.97 Q908.489 1163.96 912.292 1163.96 Q916.094 1163.96 918.255 1160.97 Q920.443 1157.95 920.443 1152.66 Z" fill="#000000" fill-rule="nonzero" fill-opacity="1" /><path clip-path="url(#clip640)" d="M946.614 1152.56 Q940.807 1152.56 938.567 1153.89 Q936.328 1155.21 936.328 1158.42 Q936.328 1160.97 937.994 1162.48 Q939.687 1163.96 942.578 1163.96 Q946.562 1163.96 948.958 1161.15 Q951.38 1158.31 951.38 1153.63 L951.38 1152.56 L946.614 1152.56 M956.171 1150.58 L956.171 1167.22 L951.38 1167.22 L951.38 1162.79 Q949.739 1165.45 947.291 1166.72 Q944.843 1167.97 941.302 1167.97 Q936.823 1167.97 934.166 1165.47 Q931.536 1162.95 931.536 1158.73 Q931.536 1153.81 934.817 1151.31 Q938.125 1148.81 944.661 1148.81 L951.38 1148.81 L951.38 1148.34 Q951.38 1145.03 949.192 1143.23 Q947.031 1141.41 943.099 1141.41 Q940.599 1141.41 938.229 1142.01 Q935.859 1142.61 933.672 1143.81 L933.672 1139.38 Q936.302 1138.36 938.776 1137.87 Q941.25 1137.35 943.593 1137.35 Q949.922 1137.35 953.046 1140.63 Q956.171 1143.91 956.171 1150.58 Z" fill="#000000" fill-rule="nonzero" fill-opacity="1" /><path clip-path="url(#clip640)" d="M970.781 1129.77 L970.781 1138.05 L980.651 1138.05 L980.651 1141.78 L970.781 1141.78 L970.781 1157.61 Q970.781 1161.18 971.744 1162.19 Q972.734 1163.21 975.729 1163.21 L980.651 1163.21 L980.651 1167.22 L975.729 1167.22 Q970.182 1167.22 968.072 1165.16 Q965.963 1163.08 965.963 1157.61 L965.963 1141.78 L962.447 1141.78 L962.447 1138.05 L965.963 1138.05 L965.963 1129.77 L970.781 1129.77 Z" fill="#000000" fill-rule="nonzero" fill-opacity="1" /><path clip-path="url(#clip640)" d="M1011.2 1149.61 L1011.2 1167.22 L1006.41 1167.22 L1006.41 1149.77 Q1006.41 1145.63 1004.79 1143.57 Q1003.18 1141.52 999.947 1141.52 Q996.067 1141.52 993.828 1143.99 Q991.588 1146.46 991.588 1150.73 L991.588 1167.22 L986.77 1167.22 L986.77 1126.7 L991.588 1126.7 L991.588 1142.58 Q993.307 1139.95 995.624 1138.65 Q997.968 1137.35 1001.01 1137.35 Q1006.04 1137.35 1008.62 1140.47 Q1011.2 1143.57 1011.2 1149.61 Z" fill="#000000" fill-rule="nonzero" fill-opacity="1" /><path clip-path="url(#clip640)" d="M1050.29 1145.68 Q1046.74 1145.68 1044.66 1148.1 Q1042.6 1150.53 1042.6 1154.74 Q1042.6 1158.94 1044.66 1161.39 Q1046.74 1163.81 1050.29 1163.81 Q1053.83 1163.81 1055.88 1161.39 Q1057.97 1158.94 1057.97 1154.74 Q1057.97 1150.53 1055.88 1148.1 Q1053.83 1145.68 1050.29 1145.68 M1060.73 1129.2 L1060.73 1133.99 Q1058.75 1133.05 1056.72 1132.56 Q1054.71 1132.06 1052.73 1132.06 Q1047.53 1132.06 1044.76 1135.58 Q1042.03 1139.09 1041.64 1146.2 Q1043.18 1143.94 1045.49 1142.74 Q1047.81 1141.52 1050.6 1141.52 Q1056.46 1141.52 1059.84 1145.08 Q1063.25 1148.63 1063.25 1154.74 Q1063.25 1160.73 1059.71 1164.35 Q1056.17 1167.97 1050.29 1167.97 Q1043.54 1167.97 1039.97 1162.82 Q1036.41 1157.64 1036.41 1147.82 Q1036.41 1138.6 1040.78 1133.13 Q1045.16 1127.64 1052.53 1127.64 Q1054.5 1127.64 1056.51 1128.03 Q1058.54 1128.42 1060.73 1129.2 Z" fill="#000000" fill-rule="nonzero" fill-opacity="1" /><path clip-path="url(#clip640)" d="M1083.57 1148.76 Q1079.82 1148.76 1077.66 1150.76 Q1075.52 1152.77 1075.52 1156.28 Q1075.52 1159.8 1077.66 1161.8 Q1079.82 1163.81 1083.57 1163.81 Q1087.32 1163.81 1089.48 1161.8 Q1091.64 1159.77 1091.64 1156.28 Q1091.64 1152.77 1089.48 1150.76 Q1087.34 1148.76 1083.57 1148.76 M1078.31 1146.52 Q1074.92 1145.68 1073.02 1143.36 Q1071.14 1141.05 1071.14 1137.71 Q1071.14 1133.05 1074.45 1130.34 Q1077.79 1127.64 1083.57 1127.64 Q1089.37 1127.64 1092.68 1130.34 Q1095.99 1133.05 1095.99 1137.71 Q1095.99 1141.05 1094.09 1143.36 Q1092.21 1145.68 1088.85 1146.52 Q1092.66 1147.4 1094.76 1149.98 Q1096.9 1152.56 1096.9 1156.28 Q1096.9 1161.93 1093.44 1164.95 Q1090 1167.97 1083.57 1167.97 Q1077.13 1167.97 1073.67 1164.95 Q1070.23 1161.93 1070.23 1156.28 Q1070.23 1152.56 1072.37 1149.98 Q1074.5 1147.4 1078.31 1146.52 M1076.38 1138.21 Q1076.38 1141.23 1078.25 1142.92 Q1080.16 1144.61 1083.57 1144.61 Q1086.95 1144.61 1088.85 1142.92 Q1090.78 1141.23 1090.78 1138.21 Q1090.78 1135.19 1088.85 1133.5 Q1086.95 1131.8 1083.57 1131.8 Q1080.16 1131.8 1078.25 1133.5 Q1076.38 1135.19 1076.38 1138.21 Z" fill="#000000" fill-rule="nonzero" fill-opacity="1" /><path clip-path="url(#clip640)" d="M1117.5 1148.76 Q1113.75 1148.76 1111.59 1150.76 Q1109.45 1152.77 1109.45 1156.28 Q1109.45 1159.8 1111.59 1161.8 Q1113.75 1163.81 1117.5 1163.81 Q1121.25 1163.81 1123.41 1161.8 Q1125.57 1159.77 1125.57 1156.28 Q1125.57 1152.77 1123.41 1150.76 Q1121.27 1148.76 1117.5 1148.76 M1112.24 1146.52 Q1108.85 1145.68 1106.95 1143.36 Q1105.08 1141.05 1105.08 1137.71 Q1105.08 1133.05 1108.38 1130.34 Q1111.72 1127.64 1117.5 1127.64 Q1123.31 1127.64 1126.61 1130.34 Q1129.92 1133.05 1129.92 1137.71 Q1129.92 1141.05 1128.02 1143.36 Q1126.14 1145.68 1122.79 1146.52 Q1126.59 1147.4 1128.7 1149.98 Q1130.83 1152.56 1130.83 1156.28 Q1130.83 1161.93 1127.37 1164.95 Q1123.93 1167.97 1117.5 1167.97 Q1111.07 1167.97 1107.6 1164.95 Q1104.17 1161.93 1104.17 1156.28 Q1104.17 1152.56 1106.3 1149.98 Q1108.44 1147.4 1112.24 1146.52 M1110.31 1138.21 Q1110.31 1141.23 1112.19 1142.92 Q1114.09 1144.61 1117.5 1144.61 Q1120.88 1144.61 1122.79 1142.92 Q1124.71 1141.23 1124.71 1138.21 Q1124.71 1135.19 1122.79 1133.5 Q1120.88 1131.8 1117.5 1131.8 Q1114.09 1131.8 1112.19 1133.5 Q1110.31 1135.19 1110.31 1138.21 Z" fill="#000000" fill-rule="nonzero" fill-opacity="1" /><path clip-path="url(#clip640)" d="M1138.75 1126.75 L1142.92 1126.75 Q1146.82 1132.9 1148.75 1138.78 Q1150.7 1144.67 1150.7 1150.47 Q1150.7 1156.31 1148.75 1162.22 Q1146.82 1168.13 1142.92 1174.25 L1138.75 1174.25 Q1142.21 1168.29 1143.9 1162.4 Q1145.62 1156.49 1145.62 1150.47 Q1145.62 1144.46 1143.9 1138.6 Q1142.21 1132.74 1138.75 1126.75 Z" fill="#000000" fill-rule="nonzero" fill-opacity="1" /></svg>
