<?xml version="1.0" encoding="utf-8"?>
<svg xmlns="http://www.w3.org/2000/svg" xmlns:xlink="http://www.w3.org/1999/xlink" width="600" height="400" viewBox="0 0 2400 1600">
<defs>
  <clipPath id="clip780">
    <rect x="0" y="0" width="2400" height="1600"/>
  </clipPath>
</defs>
<path clip-path="url(#clip780)" d="M0 1600 L2400 1600 L2400 8.88178e-14 L0 8.88178e-14  Z" fill="#ffffff" fill-rule="evenodd" fill-opacity="1"/>
<defs>
  <clipPath id="clip781">
    <rect x="202" y="106" width="2152" height="1318"/>
  </clipPath>
</defs>
<path clip-path="url(#clip780)" d="M219.38 1423.18 L2352.76 1423.18 L2352.76 106.192 L219.38 106.192  Z" fill="#ffffff" fill-rule="evenodd" fill-opacity="1"/>
<defs>
  <clipPath id="clip782">
    <rect x="219" y="106" width="2134" height="1318"/>
  </clipPath>
</defs>
<polyline clip-path="url(#clip782)" style="stroke:#000000; stroke-linecap:round; stroke-linejoin:round; stroke-width:2; stroke-opacity:0.1; fill:none" points="259.745,1423.18 259.745,106.192 "/>
<polyline clip-path="url(#clip782)" style="stroke:#000000; stroke-linecap:round; stroke-linejoin:round; stroke-width:2; stroke-opacity:0.1; fill:none" points="901.197,1423.18 901.197,106.192 "/>
<polyline clip-path="url(#clip782)" style="stroke:#000000; stroke-linecap:round; stroke-linejoin:round; stroke-width:2; stroke-opacity:0.1; fill:none" points="1542.65,1423.18 1542.65,106.192 "/>
<polyline clip-path="url(#clip782)" style="stroke:#000000; stroke-linecap:round; stroke-linejoin:round; stroke-width:2; stroke-opacity:0.1; fill:none" points="2184.1,1423.18 2184.1,106.192 "/>
<polyline clip-path="url(#clip782)" style="stroke:#000000; stroke-linecap:round; stroke-linejoin:round; stroke-width:2; stroke-opacity:0.1; fill:none" points="219.38,1423.18 2352.76,1423.18 "/>
<polyline clip-path="url(#clip782)" style="stroke:#000000; stroke-linecap:round; stroke-linejoin:round; stroke-width:2; stroke-opacity:0.1; fill:none" points="219.38,1002.5 2352.76,1002.5 "/>
<polyline clip-path="url(#clip782)" style="stroke:#000000; stroke-linecap:round; stroke-linejoin:round; stroke-width:2; stroke-opacity:0.1; fill:none" points="219.38,581.818 2352.76,581.818 "/>
<polyline clip-path="url(#clip782)" style="stroke:#000000; stroke-linecap:round; stroke-linejoin:round; stroke-width:2; stroke-opacity:0.1; fill:none" points="219.38,161.137 2352.76,161.137 "/>
<polyline clip-path="url(#clip780)" style="stroke:#000000; stroke-linecap:round; stroke-linejoin:round; stroke-width:4; stroke-opacity:1; fill:none" points="219.38,1423.18 2352.76,1423.18 "/>
<polyline clip-path="url(#clip780)" style="stroke:#000000; stroke-linecap:round; stroke-linejoin:round; stroke-width:4; stroke-opacity:1; fill:none" points="259.745,1423.18 259.745,1404.28 "/>
<polyline clip-path="url(#clip780)" style="stroke:#000000; stroke-linecap:round; stroke-linejoin:round; stroke-width:4; stroke-opacity:1; fill:none" points="901.197,1423.18 901.197,1404.28 "/>
<polyline clip-path="url(#clip780)" style="stroke:#000000; stroke-linecap:round; stroke-linejoin:round; stroke-width:4; stroke-opacity:1; fill:none" points="1542.65,1423.18 1542.65,1404.28 "/>
<polyline clip-path="url(#clip780)" style="stroke:#000000; stroke-linecap:round; stroke-linejoin:round; stroke-width:4; stroke-opacity:1; fill:none" points="2184.1,1423.18 2184.1,1404.28 "/>
<path clip-path="url(#clip780)" d="M259.745 1454.1 Q256.134 1454.1 254.306 1457.66 Q252.5 1461.2 252.5 1468.33 Q252.5 1475.44 254.306 1479.01 Q256.134 1482.55 259.745 1482.55 Q263.38 1482.55 265.185 1479.01 Q267.014 1475.44 267.014 1468.33 Q267.014 1461.2 265.185 1457.66 Q263.38 1454.1 259.745 1454.1 M259.745 1450.39 Q265.556 1450.39 268.611 1455 Q271.69 1459.58 271.69 1468.33 Q271.69 1477.06 268.611 1481.67 Q265.556 1486.25 259.745 1486.25 Q253.935 1486.25 250.857 1481.67 Q247.801 1477.06 247.801 1468.33 Q247.801 1459.58 250.857 1455 Q253.935 1450.39 259.745 1450.39 Z" fill="#000000" fill-rule="nonzero" fill-opacity="1" /><path clip-path="url(#clip780)" d="M891.475 1451.02 L909.831 1451.02 L909.831 1454.96 L895.757 1454.96 L895.757 1463.43 Q896.776 1463.08 897.794 1462.92 Q898.813 1462.73 899.831 1462.73 Q905.618 1462.73 908.998 1465.9 Q912.378 1469.08 912.378 1474.49 Q912.378 1480.07 908.905 1483.17 Q905.433 1486.25 899.114 1486.25 Q896.938 1486.25 894.669 1485.88 Q892.424 1485.51 890.017 1484.77 L890.017 1480.07 Q892.1 1481.2 894.322 1481.76 Q896.544 1482.32 899.021 1482.32 Q903.026 1482.32 905.364 1480.21 Q907.702 1478.1 907.702 1474.49 Q907.702 1470.88 905.364 1468.77 Q903.026 1466.67 899.021 1466.67 Q897.146 1466.67 895.271 1467.08 Q893.419 1467.5 891.475 1468.38 L891.475 1451.02 Z" fill="#000000" fill-rule="nonzero" fill-opacity="1" /><path clip-path="url(#clip780)" d="M1517.34 1481.64 L1524.98 1481.64 L1524.98 1455.28 L1516.67 1456.95 L1516.67 1452.69 L1524.93 1451.02 L1529.6 1451.02 L1529.6 1481.64 L1537.24 1481.64 L1537.24 1485.58 L1517.34 1485.58 L1517.34 1481.64 Z" fill="#000000" fill-rule="nonzero" fill-opacity="1" /><path clip-path="url(#clip780)" d="M1556.69 1454.1 Q1553.08 1454.1 1551.25 1457.66 Q1549.44 1461.2 1549.44 1468.33 Q1549.44 1475.44 1551.25 1479.01 Q1553.08 1482.55 1556.69 1482.55 Q1560.32 1482.55 1562.13 1479.01 Q1563.96 1475.44 1563.96 1468.33 Q1563.96 1461.2 1562.13 1457.66 Q1560.32 1454.1 1556.69 1454.1 M1556.69 1450.39 Q1562.5 1450.39 1565.55 1455 Q1568.63 1459.58 1568.63 1468.33 Q1568.63 1477.06 1565.55 1481.67 Q1562.5 1486.25 1556.69 1486.25 Q1550.88 1486.25 1547.8 1481.67 Q1544.74 1477.06 1544.74 1468.33 Q1544.74 1459.58 1547.8 1455 Q1550.88 1450.39 1556.69 1450.39 Z" fill="#000000" fill-rule="nonzero" fill-opacity="1" /><path clip-path="url(#clip780)" d="M2159.29 1481.64 L2166.92 1481.64 L2166.92 1455.28 L2158.61 1456.95 L2158.61 1452.69 L2166.88 1451.02 L2171.55 1451.02 L2171.55 1481.64 L2179.19 1481.64 L2179.19 1485.58 L2159.29 1485.58 L2159.29 1481.64 Z" fill="#000000" fill-rule="nonzero" fill-opacity="1" /><path clip-path="url(#clip780)" d="M2188.68 1451.02 L2207.04 1451.02 L2207.04 1454.96 L2192.97 1454.96 L2192.97 1463.43 Q2193.98 1463.08 2195 1462.92 Q2196.02 1462.73 2197.04 1462.73 Q2202.83 1462.73 2206.21 1465.9 Q2209.59 1469.08 2209.59 1474.49 Q2209.59 1480.07 2206.11 1483.17 Q2202.64 1486.25 2196.32 1486.25 Q2194.15 1486.25 2191.88 1485.88 Q2189.63 1485.51 2187.23 1484.77 L2187.23 1480.07 Q2189.31 1481.2 2191.53 1481.76 Q2193.75 1482.32 2196.23 1482.32 Q2200.23 1482.32 2202.57 1480.21 Q2204.91 1478.1 2204.91 1474.49 Q2204.91 1470.88 2202.57 1468.77 Q2200.23 1466.67 2196.23 1466.67 Q2194.35 1466.67 2192.48 1467.08 Q2190.63 1467.5 2188.68 1468.38 L2188.68 1451.02 Z" fill="#000000" fill-rule="nonzero" fill-opacity="1" /><path clip-path="url(#clip780)" d="M1234.27 1522.08 L1234.27 1528.35 Q1230.61 1526.6 1227.36 1525.74 Q1224.11 1524.88 1221.09 1524.88 Q1215.84 1524.88 1212.97 1526.92 Q1210.14 1528.96 1210.14 1532.71 Q1210.14 1535.87 1212.02 1537.49 Q1213.93 1539.08 1219.21 1540.07 L1223.1 1540.86 Q1230.29 1542.23 1233.69 1545.7 Q1237.13 1549.14 1237.13 1554.93 Q1237.13 1561.84 1232.48 1565.4 Q1227.87 1568.97 1218.93 1568.97 Q1215.55 1568.97 1211.73 1568.2 Q1207.94 1567.44 1203.87 1565.94 L1203.87 1559.32 Q1207.79 1561.52 1211.54 1562.63 Q1215.3 1563.75 1218.93 1563.75 Q1224.43 1563.75 1227.42 1561.58 Q1230.42 1559.42 1230.42 1555.41 Q1230.42 1551.91 1228.25 1549.93 Q1226.12 1547.96 1221.22 1546.97 L1217.3 1546.21 Q1210.11 1544.78 1206.89 1541.72 Q1203.68 1538.67 1203.68 1533.22 Q1203.68 1526.92 1208.1 1523.29 Q1212.56 1519.66 1220.36 1519.66 Q1223.7 1519.66 1227.17 1520.27 Q1230.64 1520.87 1234.27 1522.08 Z" fill="#000000" fill-rule="nonzero" fill-opacity="1" /><path clip-path="url(#clip780)" d="M1252.7 1522.27 L1252.7 1532.4 L1264.76 1532.4 L1264.76 1536.95 L1252.7 1536.95 L1252.7 1556.3 Q1252.7 1560.66 1253.87 1561.9 Q1255.08 1563.14 1258.74 1563.14 L1264.76 1563.14 L1264.76 1568.04 L1258.74 1568.04 Q1251.96 1568.04 1249.39 1565.53 Q1246.81 1562.98 1246.81 1556.3 L1246.81 1536.95 L1242.51 1536.95 L1242.51 1532.4 L1246.81 1532.4 L1246.81 1522.27 L1252.7 1522.27 Z" fill="#000000" fill-rule="nonzero" fill-opacity="1" /><path clip-path="url(#clip780)" d="M1288.66 1550.12 Q1281.56 1550.12 1278.83 1551.75 Q1276.09 1553.37 1276.09 1557.29 Q1276.09 1560.4 1278.13 1562.25 Q1280.2 1564.07 1283.73 1564.07 Q1288.6 1564.07 1291.53 1560.63 Q1294.49 1557.16 1294.49 1551.43 L1294.49 1550.12 L1288.66 1550.12 M1300.34 1547.71 L1300.34 1568.04 L1294.49 1568.04 L1294.49 1562.63 Q1292.48 1565.88 1289.49 1567.44 Q1286.5 1568.97 1282.17 1568.97 Q1276.69 1568.97 1273.45 1565.91 Q1270.23 1562.82 1270.23 1557.67 Q1270.23 1551.65 1274.24 1548.6 Q1278.29 1545.54 1286.27 1545.54 L1294.49 1545.54 L1294.49 1544.97 Q1294.49 1540.93 1291.81 1538.73 Q1289.17 1536.5 1284.37 1536.5 Q1281.31 1536.5 1278.41 1537.23 Q1275.52 1537.97 1272.84 1539.43 L1272.84 1534.02 Q1276.06 1532.78 1279.08 1532.17 Q1282.11 1531.54 1284.97 1531.54 Q1292.7 1531.54 1296.52 1535.55 Q1300.34 1539.56 1300.34 1547.71 Z" fill="#000000" fill-rule="nonzero" fill-opacity="1" /><path clip-path="url(#clip780)" d="M1318.2 1522.27 L1318.2 1532.4 L1330.26 1532.4 L1330.26 1536.95 L1318.2 1536.95 L1318.2 1556.3 Q1318.2 1560.66 1319.38 1561.9 Q1320.59 1563.14 1324.25 1563.14 L1330.26 1563.14 L1330.26 1568.04 L1324.25 1568.04 Q1317.47 1568.04 1314.89 1565.53 Q1312.31 1562.98 1312.31 1556.3 L1312.31 1536.95 L1308.01 1536.95 L1308.01 1532.4 L1312.31 1532.4 L1312.31 1522.27 L1318.2 1522.27 Z" fill="#000000" fill-rule="nonzero" fill-opacity="1" /><path clip-path="url(#clip780)" d="M1368.46 1548.76 L1368.46 1551.62 L1341.53 1551.62 Q1341.91 1557.67 1345.16 1560.85 Q1348.44 1564 1354.26 1564 Q1357.63 1564 1360.79 1563.17 Q1363.97 1562.35 1367.09 1560.69 L1367.09 1566.23 Q1363.94 1567.57 1360.63 1568.27 Q1357.32 1568.97 1353.91 1568.97 Q1345.38 1568.97 1340.38 1564 Q1335.42 1559.04 1335.42 1550.57 Q1335.42 1541.82 1340.13 1536.69 Q1344.87 1531.54 1352.89 1531.54 Q1360.09 1531.54 1364.25 1536.18 Q1368.46 1540.8 1368.46 1548.76 M1362.6 1547.04 Q1362.54 1542.23 1359.89 1539.37 Q1357.28 1536.5 1352.96 1536.5 Q1348.05 1536.5 1345.09 1539.27 Q1342.17 1542.04 1341.72 1547.07 L1362.6 1547.04 Z" fill="#000000" fill-rule="nonzero" fill-opacity="1" /><polyline clip-path="url(#clip780)" style="stroke:#000000; stroke-linecap:round; stroke-linejoin:round; stroke-width:4; stroke-opacity:1; fill:none" points="219.38,1423.18 219.38,106.192 "/>
<polyline clip-path="url(#clip780)" style="stroke:#000000; stroke-linecap:round; stroke-linejoin:round; stroke-width:4; stroke-opacity:1; fill:none" points="219.38,1423.18 238.278,1423.18 "/>
<polyline clip-path="url(#clip780)" style="stroke:#000000; stroke-linecap:round; stroke-linejoin:round; stroke-width:4; stroke-opacity:1; fill:none" points="219.38,1002.5 238.278,1002.5 "/>
<polyline clip-path="url(#clip780)" style="stroke:#000000; stroke-linecap:round; stroke-linejoin:round; stroke-width:4; stroke-opacity:1; fill:none" points="219.38,581.818 238.278,581.818 "/>
<polyline clip-path="url(#clip780)" style="stroke:#000000; stroke-linecap:round; stroke-linejoin:round; stroke-width:4; stroke-opacity:1; fill:none" points="219.38,161.137 238.278,161.137 "/>
<path clip-path="url(#clip780)" d="M126.205 1408.98 Q122.593 1408.98 120.765 1412.54 Q118.959 1416.08 118.959 1423.21 Q118.959 1430.32 120.765 1433.89 Q122.593 1437.43 126.205 1437.43 Q129.839 1437.43 131.644 1433.89 Q133.473 1430.32 133.473 1423.21 Q133.473 1416.08 131.644 1412.54 Q129.839 1408.98 126.205 1408.98 M126.205 1405.27 Q132.015 1405.27 135.07 1409.88 Q138.149 1414.46 138.149 1423.21 Q138.149 1431.94 135.07 1436.55 Q132.015 1441.13 126.205 1441.13 Q120.394 1441.13 117.316 1436.55 Q114.26 1431.94 114.26 1423.21 Q114.26 1414.46 117.316 1409.88 Q120.394 1405.27 126.205 1405.27 Z" fill="#000000" fill-rule="nonzero" fill-opacity="1" /><path clip-path="url(#clip780)" d="M146.366 1434.58 L151.251 1434.58 L151.251 1440.46 L146.366 1440.46 L146.366 1434.58 Z" fill="#000000" fill-rule="nonzero" fill-opacity="1" /><path clip-path="url(#clip780)" d="M171.436 1408.98 Q167.825 1408.98 165.996 1412.54 Q164.19 1416.08 164.19 1423.21 Q164.19 1430.32 165.996 1433.89 Q167.825 1437.43 171.436 1437.43 Q175.07 1437.43 176.876 1433.89 Q178.704 1430.32 178.704 1423.21 Q178.704 1416.08 176.876 1412.54 Q175.07 1408.98 171.436 1408.98 M171.436 1405.27 Q177.246 1405.27 180.301 1409.88 Q183.38 1414.46 183.38 1423.21 Q183.38 1431.94 180.301 1436.55 Q177.246 1441.13 171.436 1441.13 Q165.626 1441.13 162.547 1436.55 Q159.491 1431.94 159.491 1423.21 Q159.491 1414.46 162.547 1409.88 Q165.626 1405.27 171.436 1405.27 Z" fill="#000000" fill-rule="nonzero" fill-opacity="1" /><path clip-path="url(#clip780)" d="M127.431 988.298 Q123.82 988.298 121.992 991.862 Q120.186 995.404 120.186 1002.53 Q120.186 1009.64 121.992 1013.2 Q123.82 1016.75 127.431 1016.75 Q131.066 1016.75 132.871 1013.2 Q134.7 1009.64 134.7 1002.53 Q134.7 995.404 132.871 991.862 Q131.066 988.298 127.431 988.298 M127.431 984.594 Q133.242 984.594 136.297 989.2 Q139.376 993.784 139.376 1002.53 Q139.376 1011.26 136.297 1015.87 Q133.242 1020.45 127.431 1020.45 Q121.621 1020.45 118.543 1015.87 Q115.487 1011.26 115.487 1002.53 Q115.487 993.784 118.543 989.2 Q121.621 984.594 127.431 984.594 Z" fill="#000000" fill-rule="nonzero" fill-opacity="1" /><path clip-path="url(#clip780)" d="M147.593 1013.9 L152.478 1013.9 L152.478 1019.78 L147.593 1019.78 L147.593 1013.9 Z" fill="#000000" fill-rule="nonzero" fill-opacity="1" /><path clip-path="url(#clip780)" d="M163.473 1015.84 L171.112 1015.84 L171.112 989.478 L162.802 991.145 L162.802 986.886 L171.065 985.219 L175.741 985.219 L175.741 1015.84 L183.38 1015.84 L183.38 1019.78 L163.473 1019.78 L163.473 1015.84 Z" fill="#000000" fill-rule="nonzero" fill-opacity="1" /><path clip-path="url(#clip780)" d="M127.802 567.617 Q124.191 567.617 122.362 571.182 Q120.556 574.723 120.556 581.853 Q120.556 588.959 122.362 592.524 Q124.191 596.066 127.802 596.066 Q131.436 596.066 133.242 592.524 Q135.07 588.959 135.07 581.853 Q135.07 574.723 133.242 571.182 Q131.436 567.617 127.802 567.617 M127.802 563.913 Q133.612 563.913 136.667 568.519 Q139.746 573.103 139.746 581.853 Q139.746 590.58 136.667 595.186 Q133.612 599.769 127.802 599.769 Q121.992 599.769 118.913 595.186 Q115.857 590.58 115.857 581.853 Q115.857 573.103 118.913 568.519 Q121.992 563.913 127.802 563.913 Z" fill="#000000" fill-rule="nonzero" fill-opacity="1" /><path clip-path="url(#clip780)" d="M147.964 593.218 L152.848 593.218 L152.848 599.098 L147.964 599.098 L147.964 593.218 Z" fill="#000000" fill-rule="nonzero" fill-opacity="1" /><path clip-path="url(#clip780)" d="M167.061 595.163 L183.38 595.163 L183.38 599.098 L161.436 599.098 L161.436 595.163 Q164.098 592.408 168.681 587.779 Q173.288 583.126 174.468 581.783 Q176.714 579.26 177.593 577.524 Q178.496 575.765 178.496 574.075 Q178.496 571.32 176.551 569.584 Q174.63 567.848 171.528 567.848 Q169.329 567.848 166.876 568.612 Q164.445 569.376 161.667 570.927 L161.667 566.205 Q164.491 565.07 166.945 564.492 Q169.399 563.913 171.436 563.913 Q176.806 563.913 180.001 566.598 Q183.195 569.283 183.195 573.774 Q183.195 575.904 182.385 577.825 Q181.598 579.723 179.491 582.316 Q178.913 582.987 175.811 586.205 Q172.709 589.399 167.061 595.163 Z" fill="#000000" fill-rule="nonzero" fill-opacity="1" /><path clip-path="url(#clip780)" d="M126.853 146.936 Q123.242 146.936 121.413 150.501 Q119.607 154.042 119.607 161.172 Q119.607 168.278 121.413 171.843 Q123.242 175.385 126.853 175.385 Q130.487 175.385 132.292 171.843 Q134.121 168.278 134.121 161.172 Q134.121 154.042 132.292 150.501 Q130.487 146.936 126.853 146.936 M126.853 143.232 Q132.663 143.232 135.718 147.839 Q138.797 152.422 138.797 161.172 Q138.797 169.899 135.718 174.505 Q132.663 179.088 126.853 179.088 Q121.043 179.088 117.964 174.505 Q114.908 169.899 114.908 161.172 Q114.908 152.422 117.964 147.839 Q121.043 143.232 126.853 143.232 Z" fill="#000000" fill-rule="nonzero" fill-opacity="1" /><path clip-path="url(#clip780)" d="M147.015 172.538 L151.899 172.538 L151.899 178.417 L147.015 178.417 L147.015 172.538 Z" fill="#000000" fill-rule="nonzero" fill-opacity="1" /><path clip-path="url(#clip780)" d="M176.251 159.783 Q179.607 160.501 181.482 162.769 Q183.38 165.038 183.38 168.371 Q183.38 173.487 179.862 176.288 Q176.343 179.088 169.862 179.088 Q167.686 179.088 165.371 178.649 Q163.079 178.232 160.626 177.375 L160.626 172.862 Q162.57 173.996 164.885 174.575 Q167.2 175.153 169.723 175.153 Q174.121 175.153 176.413 173.417 Q178.727 171.681 178.727 168.371 Q178.727 165.315 176.575 163.602 Q174.445 161.866 170.626 161.866 L166.598 161.866 L166.598 158.024 L170.811 158.024 Q174.26 158.024 176.089 156.658 Q177.917 155.269 177.917 152.677 Q177.917 150.014 176.019 148.602 Q174.144 147.167 170.626 147.167 Q168.704 147.167 166.505 147.584 Q164.306 148.001 161.667 148.88 L161.667 144.714 Q164.329 143.973 166.644 143.602 Q168.982 143.232 171.042 143.232 Q176.366 143.232 179.468 145.663 Q182.57 148.07 182.57 152.19 Q182.57 155.061 180.926 157.051 Q179.283 159.019 176.251 159.783 Z" fill="#000000" fill-rule="nonzero" fill-opacity="1" /><path clip-path="url(#clip780)" d="M21.7677 926.375 L39.6235 926.375 L39.6235 918.29 Q39.6235 913.803 37.3 911.352 Q34.9765 908.901 30.6797 908.901 Q26.4147 908.901 24.0912 911.352 Q21.7677 913.803 21.7677 918.29 L21.7677 926.375 M16.4842 932.804 L16.4842 918.29 Q16.4842 910.302 20.1126 906.227 Q23.7092 902.122 30.6797 902.122 Q37.7138 902.122 41.3104 906.227 Q44.907 910.302 44.907 918.29 L44.907 926.375 L64.0042 926.375 L64.0042 932.804 L16.4842 932.804 Z" fill="#000000" fill-rule="nonzero" fill-opacity="1" /><path clip-path="url(#clip780)" d="M33.8307 874.24 Q33.2578 875.226 33.0032 876.404 Q32.7167 877.55 32.7167 878.95 Q32.7167 883.916 35.9632 886.589 Q39.1779 889.231 45.2253 889.231 L64.0042 889.231 L64.0042 895.119 L28.3562 895.119 L28.3562 889.231 L33.8944 889.231 Q30.6479 887.385 29.0883 884.425 Q27.4968 881.465 27.4968 877.232 Q27.4968 876.627 27.5923 875.895 Q27.656 875.163 27.8151 874.272 L33.8307 874.24 Z" fill="#000000" fill-rule="nonzero" fill-opacity="1" /><path clip-path="url(#clip780)" d="M32.4621 855.716 Q32.4621 860.426 36.1542 863.163 Q39.8145 865.901 46.212 865.901 Q52.6095 865.901 56.3017 863.195 Q59.9619 860.458 59.9619 855.716 Q59.9619 851.037 56.2698 848.3 Q52.5777 845.562 46.212 845.562 Q39.8781 845.562 36.186 848.3 Q32.4621 851.037 32.4621 855.716 M27.4968 855.716 Q27.4968 848.077 32.4621 843.716 Q37.4273 839.356 46.212 839.356 Q54.9649 839.356 59.9619 843.716 Q64.9272 848.077 64.9272 855.716 Q64.9272 863.386 59.9619 867.747 Q54.9649 872.075 46.212 872.075 Q37.4273 872.075 32.4621 867.747 Q27.4968 863.386 27.4968 855.716 Z" fill="#000000" fill-rule="nonzero" fill-opacity="1" /><path clip-path="url(#clip780)" d="M46.212 804.058 Q39.7508 804.058 36.0905 806.731 Q32.3984 809.373 32.3984 814.02 Q32.3984 818.667 36.0905 821.341 Q39.7508 823.983 46.212 823.983 Q52.6732 823.983 56.3653 821.341 Q60.0256 818.667 60.0256 814.02 Q60.0256 809.373 56.3653 806.731 Q52.6732 804.058 46.212 804.058 M33.7671 823.983 Q30.5842 822.136 29.0564 819.336 Q27.4968 816.503 27.4968 812.588 Q27.4968 806.095 32.6531 802.053 Q37.8093 797.979 46.212 797.979 Q54.6147 797.979 59.771 802.053 Q64.9272 806.095 64.9272 812.588 Q64.9272 816.503 63.3994 819.336 Q61.8398 822.136 58.657 823.983 L64.0042 823.983 L64.0042 829.871 L14.479 829.871 L14.479 823.983 L33.7671 823.983 Z" fill="#000000" fill-rule="nonzero" fill-opacity="1" /><path clip-path="url(#clip780)" d="M46.0847 772.07 Q46.0847 779.168 47.7079 781.905 Q49.3312 784.642 53.2461 784.642 Q56.3653 784.642 58.2114 782.605 Q60.0256 780.537 60.0256 777.004 Q60.0256 772.134 56.5881 769.206 Q53.1188 766.246 47.3897 766.246 L46.0847 766.246 L46.0847 772.07 M43.6657 760.389 L64.0042 760.389 L64.0042 766.246 L58.5933 766.246 Q61.8398 768.251 63.3994 771.243 Q64.9272 774.235 64.9272 778.563 Q64.9272 784.038 61.8716 787.284 Q58.7843 790.499 53.6281 790.499 Q47.6125 790.499 44.5569 786.489 Q41.5014 782.446 41.5014 774.457 L41.5014 766.246 L40.9285 766.246 Q36.8862 766.246 34.6901 768.919 Q32.4621 771.561 32.4621 776.367 Q32.4621 779.423 33.1941 782.319 Q33.9262 785.215 35.3903 787.889 L29.9795 787.889 Q28.7381 784.674 28.1334 781.651 Q27.4968 778.627 27.4968 775.762 Q27.4968 768.028 31.5072 764.209 Q35.5176 760.389 43.6657 760.389 Z" fill="#000000" fill-rule="nonzero" fill-opacity="1" /><path clip-path="url(#clip780)" d="M46.212 722.736 Q39.7508 722.736 36.0905 725.41 Q32.3984 728.051 32.3984 732.698 Q32.3984 737.345 36.0905 740.019 Q39.7508 742.661 46.212 742.661 Q52.6732 742.661 56.3653 740.019 Q60.0256 737.345 60.0256 732.698 Q60.0256 728.051 56.3653 725.41 Q52.6732 722.736 46.212 722.736 M33.7671 742.661 Q30.5842 740.815 29.0564 738.014 Q27.4968 735.181 27.4968 731.266 Q27.4968 724.773 32.6531 720.731 Q37.8093 716.657 46.212 716.657 Q54.6147 716.657 59.771 720.731 Q64.9272 724.773 64.9272 731.266 Q64.9272 735.181 63.3994 738.014 Q61.8398 740.815 58.657 742.661 L64.0042 742.661 L64.0042 748.549 L14.479 748.549 L14.479 742.661 L33.7671 742.661 Z" fill="#000000" fill-rule="nonzero" fill-opacity="1" /><path clip-path="url(#clip780)" d="M28.3562 706.949 L28.3562 701.093 L64.0042 701.093 L64.0042 706.949 L28.3562 706.949 M14.479 706.949 L14.479 701.093 L21.895 701.093 L21.895 706.949 L14.479 706.949 Z" fill="#000000" fill-rule="nonzero" fill-opacity="1" /><path clip-path="url(#clip780)" d="M14.479 688.839 L14.479 682.982 L64.0042 682.982 L64.0042 688.839 L14.479 688.839 Z" fill="#000000" fill-rule="nonzero" fill-opacity="1" /><path clip-path="url(#clip780)" d="M28.3562 670.728 L28.3562 664.872 L64.0042 664.872 L64.0042 670.728 L28.3562 670.728 M14.479 670.728 L14.479 664.872 L21.895 664.872 L21.895 670.728 L14.479 670.728 Z" fill="#000000" fill-rule="nonzero" fill-opacity="1" /><path clip-path="url(#clip780)" d="M18.2347 646.825 L28.3562 646.825 L28.3562 634.762 L32.9077 634.762 L32.9077 646.825 L52.2594 646.825 Q56.6199 646.825 57.8613 645.647 Q59.1026 644.438 59.1026 640.778 L59.1026 634.762 L64.0042 634.762 L64.0042 640.778 Q64.0042 647.557 61.4897 650.135 Q58.9434 652.713 52.2594 652.713 L32.9077 652.713 L32.9077 657.01 L28.3562 657.01 L28.3562 652.713 L18.2347 652.713 L18.2347 646.825 Z" fill="#000000" fill-rule="nonzero" fill-opacity="1" /><path clip-path="url(#clip780)" d="M67.3143 612.227 Q73.68 614.71 75.6216 617.065 Q77.5631 619.421 77.5631 623.367 L77.5631 628.046 L72.6615 628.046 L72.6615 624.609 Q72.6615 622.19 71.5157 620.853 Q70.3699 619.516 66.1048 617.893 L63.4312 616.842 L28.3562 631.261 L28.3562 625.054 L56.238 613.914 L28.3562 602.774 L28.3562 596.568 L67.3143 612.227 Z" fill="#000000" fill-rule="nonzero" fill-opacity="1" /><path clip-path="url(#clip780)" d="M825.249 10.0578 L825.249 15.758 Q821.921 14.1666 818.97 13.3853 Q816.018 12.6041 813.27 12.6041 Q808.495 12.6041 805.891 14.4559 Q803.316 16.3078 803.316 19.7221 Q803.316 22.5867 805.023 24.0624 Q806.759 25.5091 811.562 26.4061 L815.093 27.1295 Q821.632 28.3737 824.728 31.5276 Q827.853 34.6526 827.853 39.9188 Q827.853 46.1977 823.628 49.4384 Q819.433 52.6791 811.302 52.6791 Q808.235 52.6791 804.763 51.9847 Q801.319 51.2902 797.616 49.9303 L797.616 43.9118 Q801.175 45.9083 804.589 46.921 Q808.003 47.9338 811.302 47.9338 Q816.308 47.9338 819.028 45.9662 Q821.748 43.9986 821.748 40.3528 Q821.748 37.1699 819.78 35.376 Q817.841 33.582 813.385 32.685 L809.826 31.9906 Q803.287 30.6885 800.365 27.9107 Q797.442 25.133 797.442 20.1851 Q797.442 14.4559 801.464 11.1573 Q805.515 7.85875 812.604 7.85875 Q815.642 7.85875 818.796 8.40852 Q821.95 8.95829 825.249 10.0578 Z" fill="#000000" fill-rule="nonzero" fill-opacity="1" /><path clip-path="url(#clip780)" d="M842.002 10.2314 L842.002 19.4328 L852.969 19.4328 L852.969 23.5705 L842.002 23.5705 L842.002 41.163 Q842.002 45.1271 843.073 46.2555 Q844.172 47.384 847.5 47.384 L852.969 47.384 L852.969 51.84 L847.5 51.84 Q841.337 51.84 838.993 49.5541 Q836.649 47.2393 836.649 41.163 L836.649 23.5705 L832.743 23.5705 L832.743 19.4328 L836.649 19.4328 L836.649 10.2314 L842.002 10.2314 Z" fill="#000000" fill-rule="nonzero" fill-opacity="1" /><path clip-path="url(#clip780)" d="M874.699 35.5496 Q868.246 35.5496 865.758 37.0253 Q863.269 38.501 863.269 42.06 Q863.269 44.8956 865.121 46.5738 Q867.002 48.2231 870.214 48.2231 Q874.641 48.2231 877.303 45.0981 Q879.994 41.9442 879.994 36.7359 L879.994 35.5496 L874.699 35.5496 M885.318 33.3505 L885.318 51.84 L879.994 51.84 L879.994 46.921 Q878.171 49.8724 875.451 51.2902 Q872.731 52.6791 868.796 52.6791 Q863.819 52.6791 860.868 49.9014 Q857.945 47.0947 857.945 42.4072 Q857.945 36.9385 861.591 34.1607 Q865.266 31.3829 872.529 31.3829 L879.994 31.3829 L879.994 30.8621 Q879.994 27.1874 877.563 25.1908 Q875.162 23.1654 870.792 23.1654 Q868.015 23.1654 865.382 23.8309 Q862.749 24.4964 860.318 25.8274 L860.318 20.9085 Q863.24 19.78 865.989 19.2302 Q868.738 18.6515 871.342 18.6515 Q878.373 18.6515 881.846 22.2973 Q885.318 25.9431 885.318 33.3505 Z" fill="#000000" fill-rule="nonzero" fill-opacity="1" /><path clip-path="url(#clip780)" d="M901.55 10.2314 L901.55 19.4328 L912.517 19.4328 L912.517 23.5705 L901.55 23.5705 L901.55 41.163 Q901.55 45.1271 902.621 46.2555 Q903.721 47.384 907.048 47.384 L912.517 47.384 L912.517 51.84 L907.048 51.84 Q900.885 51.84 898.541 49.5541 Q896.197 47.2393 896.197 41.163 L896.197 23.5705 L892.291 23.5705 L892.291 19.4328 L896.197 19.4328 L896.197 10.2314 L901.55 10.2314 Z" fill="#000000" fill-rule="nonzero" fill-opacity="1" /><path clip-path="url(#clip780)" d="M919.519 19.4328 L924.843 19.4328 L924.843 51.84 L919.519 51.84 L919.519 19.4328 M919.519 6.81709 L924.843 6.81709 L924.843 13.559 L919.519 13.559 L919.519 6.81709 Z" fill="#000000" fill-rule="nonzero" fill-opacity="1" /><path clip-path="url(#clip780)" d="M948.541 23.1654 Q944.259 23.1654 941.77 26.5218 Q939.282 29.8494 939.282 35.6653 Q939.282 41.4813 941.741 44.8377 Q944.23 48.1653 948.541 48.1653 Q952.794 48.1653 955.283 44.8088 Q957.771 41.4523 957.771 35.6653 Q957.771 29.9072 955.283 26.5508 Q952.794 23.1654 948.541 23.1654 M948.541 18.6515 Q955.485 18.6515 959.449 23.1654 Q963.414 27.6792 963.414 35.6653 Q963.414 43.6225 959.449 48.1653 Q955.485 52.6791 948.541 52.6791 Q941.568 52.6791 937.603 48.1653 Q933.668 43.6225 933.668 35.6653 Q933.668 27.6792 937.603 23.1654 Q941.568 18.6515 948.541 18.6515 Z" fill="#000000" fill-rule="nonzero" fill-opacity="1" /><path clip-path="url(#clip780)" d="M999.177 32.2799 L999.177 51.84 L993.853 51.84 L993.853 32.4535 Q993.853 27.8529 992.059 25.567 Q990.265 23.2811 986.677 23.2811 Q982.366 23.2811 979.878 26.03 Q977.389 28.7788 977.389 33.5241 L977.389 51.84 L972.036 51.84 L972.036 19.4328 L977.389 19.4328 L977.389 24.4675 Q979.299 21.545 981.874 20.0983 Q984.478 18.6515 987.864 18.6515 Q993.448 18.6515 996.313 22.1237 Q999.177 25.567 999.177 32.2799 Z" fill="#000000" fill-rule="nonzero" fill-opacity="1" /><path clip-path="url(#clip780)" d="M1024.52 35.5496 Q1018.07 35.5496 1015.58 37.0253 Q1013.09 38.501 1013.09 42.06 Q1013.09 44.8956 1014.95 46.5738 Q1016.83 48.2231 1020.04 48.2231 Q1024.47 48.2231 1027.13 45.0981 Q1029.82 41.9442 1029.82 36.7359 L1029.82 35.5496 L1024.52 35.5496 M1035.14 33.3505 L1035.14 51.84 L1029.82 51.84 L1029.82 46.921 Q1028 49.8724 1025.28 51.2902 Q1022.56 52.6791 1018.62 52.6791 Q1013.64 52.6791 1010.69 49.9014 Q1007.77 47.0947 1007.77 42.4072 Q1007.77 36.9385 1011.42 34.1607 Q1015.09 31.3829 1022.35 31.3829 L1029.82 31.3829 L1029.82 30.8621 Q1029.82 27.1874 1027.39 25.1908 Q1024.99 23.1654 1020.62 23.1654 Q1017.84 23.1654 1015.21 23.8309 Q1012.57 24.4964 1010.14 25.8274 L1010.14 20.9085 Q1013.07 19.78 1015.81 19.2302 Q1018.56 18.6515 1021.17 18.6515 Q1028.2 18.6515 1031.67 22.2973 Q1035.14 25.9431 1035.14 33.3505 Z" fill="#000000" fill-rule="nonzero" fill-opacity="1" /><path clip-path="url(#clip780)" d="M1064.89 24.4096 Q1063.99 23.8888 1062.92 23.6573 Q1061.88 23.3969 1060.61 23.3969 Q1056.09 23.3969 1053.66 26.3482 Q1051.26 29.2707 1051.26 34.7683 L1051.26 51.84 L1045.91 51.84 L1045.91 19.4328 L1051.26 19.4328 L1051.26 24.4675 Q1052.94 21.5161 1055.63 20.0983 Q1058.32 18.6515 1062.17 18.6515 Q1062.72 18.6515 1063.38 18.7383 Q1064.05 18.7962 1064.86 18.9409 L1064.89 24.4096 Z" fill="#000000" fill-rule="nonzero" fill-opacity="1" /><path clip-path="url(#clip780)" d="M1083.96 54.8492 Q1081.7 60.6362 1079.56 62.4013 Q1077.42 64.1663 1073.83 64.1663 L1069.58 64.1663 L1069.58 59.7103 L1072.7 59.7103 Q1074.9 59.7103 1076.12 58.6687 Q1077.33 57.627 1078.81 53.7497 L1079.76 51.3192 L1066.65 19.4328 L1072.3 19.4328 L1082.42 44.7799 L1092.55 19.4328 L1098.19 19.4328 L1083.96 54.8492 Z" fill="#000000" fill-rule="nonzero" fill-opacity="1" /><path clip-path="url(#clip780)" d="M1130.46 13.4432 L1130.46 47.0368 L1137.52 47.0368 Q1146.46 47.0368 1150.59 42.9859 Q1154.76 38.935 1154.76 30.1966 Q1154.76 21.5161 1150.59 17.4941 Q1146.46 13.4432 1137.52 13.4432 L1130.46 13.4432 M1124.61 8.64 L1136.62 8.64 Q1149.18 8.64 1155.05 13.8772 Q1160.92 19.0855 1160.92 30.1966 Q1160.92 41.3655 1155.02 46.6028 Q1149.12 51.84 1136.62 51.84 L1124.61 51.84 L1124.61 8.64 Z" fill="#000000" fill-rule="nonzero" fill-opacity="1" /><path clip-path="url(#clip780)" d="M1170.01 19.4328 L1175.33 19.4328 L1175.33 51.84 L1170.01 51.84 L1170.01 19.4328 M1170.01 6.81709 L1175.33 6.81709 L1175.33 13.559 L1170.01 13.559 L1170.01 6.81709 Z" fill="#000000" fill-rule="nonzero" fill-opacity="1" /><path clip-path="url(#clip780)" d="M1207.13 20.3876 L1207.13 25.4223 Q1204.88 24.2649 1202.45 23.6862 Q1200.02 23.1075 1197.41 23.1075 Q1193.45 23.1075 1191.45 24.3228 Q1189.48 25.5381 1189.48 27.9686 Q1189.48 29.8204 1190.9 30.891 Q1192.32 31.9327 1196.6 32.8876 L1198.42 33.2926 Q1204.1 34.5079 1206.47 36.7359 Q1208.87 38.935 1208.87 42.8991 Q1208.87 47.4129 1205.28 50.046 Q1201.72 52.6791 1195.47 52.6791 Q1192.87 52.6791 1190.03 52.1583 Q1187.23 51.6664 1184.1 50.6537 L1184.1 45.156 Q1187.05 46.6896 1189.92 47.4708 Q1192.78 48.2231 1195.59 48.2231 Q1199.35 48.2231 1201.38 46.95 Q1203.4 45.6479 1203.4 43.3042 Q1203.4 41.134 1201.92 39.9766 Q1200.48 38.8192 1195.53 37.7486 L1193.68 37.3146 Q1188.73 36.273 1186.53 34.1318 Q1184.33 31.9616 1184.33 28.2001 Q1184.33 23.6283 1187.57 21.1399 Q1190.81 18.6515 1196.77 18.6515 Q1199.73 18.6515 1202.33 19.0855 Q1204.93 19.5196 1207.13 20.3876 Z" fill="#000000" fill-rule="nonzero" fill-opacity="1" /><path clip-path="url(#clip780)" d="M1222.61 10.2314 L1222.61 19.4328 L1233.58 19.4328 L1233.58 23.5705 L1222.61 23.5705 L1222.61 41.163 Q1222.61 45.1271 1223.68 46.2555 Q1224.78 47.384 1228.11 47.384 L1233.58 47.384 L1233.58 51.84 L1228.11 51.84 Q1221.95 51.84 1219.6 49.5541 Q1217.26 47.2393 1217.26 41.163 L1217.26 23.5705 L1213.35 23.5705 L1213.35 19.4328 L1217.26 19.4328 L1217.26 10.2314 L1222.61 10.2314 Z" fill="#000000" fill-rule="nonzero" fill-opacity="1" /><path clip-path="url(#clip780)" d="M1259.36 24.4096 Q1258.46 23.8888 1257.39 23.6573 Q1256.35 23.3969 1255.08 23.3969 Q1250.56 23.3969 1248.13 26.3482 Q1245.73 29.2707 1245.73 34.7683 L1245.73 51.84 L1240.38 51.84 L1240.38 19.4328 L1245.73 19.4328 L1245.73 24.4675 Q1247.41 21.5161 1250.1 20.0983 Q1252.79 18.6515 1256.64 18.6515 Q1257.19 18.6515 1257.86 18.7383 Q1258.52 18.7962 1259.33 18.9409 L1259.36 24.4096 Z" fill="#000000" fill-rule="nonzero" fill-opacity="1" /><path clip-path="url(#clip780)" d="M1264.95 19.4328 L1270.27 19.4328 L1270.27 51.84 L1264.95 51.84 L1264.95 19.4328 M1264.95 6.81709 L1270.27 6.81709 L1270.27 13.559 L1264.95 13.559 L1264.95 6.81709 Z" fill="#000000" fill-rule="nonzero" fill-opacity="1" /><path clip-path="url(#clip780)" d="M1304.67 35.6653 Q1304.67 29.7915 1302.24 26.464 Q1299.84 23.1075 1295.62 23.1075 Q1291.39 23.1075 1288.96 26.464 Q1286.56 29.7915 1286.56 35.6653 Q1286.56 41.5391 1288.96 44.8956 Q1291.39 48.2231 1295.62 48.2231 Q1299.84 48.2231 1302.24 44.8956 Q1304.67 41.5391 1304.67 35.6653 M1286.56 24.3517 Q1288.24 21.4582 1290.78 20.0693 Q1293.36 18.6515 1296.92 18.6515 Q1302.82 18.6515 1306.5 23.339 Q1310.2 28.0265 1310.2 35.6653 Q1310.2 43.3042 1306.5 47.9916 Q1302.82 52.6791 1296.92 52.6791 Q1293.36 52.6791 1290.78 51.2902 Q1288.24 49.8724 1286.56 46.9789 L1286.56 51.84 L1281.21 51.84 L1281.21 6.81709 L1286.56 6.81709 L1286.56 24.3517 Z" fill="#000000" fill-rule="nonzero" fill-opacity="1" /><path clip-path="url(#clip780)" d="M1318.48 39.0507 L1318.48 19.4328 L1323.8 19.4328 L1323.8 38.8482 Q1323.8 43.4488 1325.59 45.7636 Q1327.39 48.0495 1330.98 48.0495 Q1335.29 48.0495 1337.77 45.3007 Q1340.29 42.5519 1340.29 37.8065 L1340.29 19.4328 L1345.62 19.4328 L1345.62 51.84 L1340.29 51.84 L1340.29 46.8632 Q1338.35 49.8145 1335.78 51.2613 Q1333.23 52.6791 1329.85 52.6791 Q1324.26 52.6791 1321.37 49.2069 Q1318.48 45.7347 1318.48 39.0507 M1331.87 18.6515 L1331.87 18.6515 Z" fill="#000000" fill-rule="nonzero" fill-opacity="1" /><path clip-path="url(#clip780)" d="M1361.85 10.2314 L1361.85 19.4328 L1372.82 19.4328 L1372.82 23.5705 L1361.85 23.5705 L1361.85 41.163 Q1361.85 45.1271 1362.92 46.2555 Q1364.02 47.384 1367.35 47.384 L1372.82 47.384 L1372.82 51.84 L1367.35 51.84 Q1361.18 51.84 1358.84 49.5541 Q1356.5 47.2393 1356.5 41.163 L1356.5 23.5705 L1352.59 23.5705 L1352.59 19.4328 L1356.5 19.4328 L1356.5 10.2314 L1361.85 10.2314 Z" fill="#000000" fill-rule="nonzero" fill-opacity="1" /><path clip-path="url(#clip780)" d="M1379.82 19.4328 L1385.14 19.4328 L1385.14 51.84 L1379.82 51.84 L1379.82 19.4328 M1379.82 6.81709 L1385.14 6.81709 L1385.14 13.559 L1379.82 13.559 L1379.82 6.81709 Z" fill="#000000" fill-rule="nonzero" fill-opacity="1" /><path clip-path="url(#clip780)" d="M1408.84 23.1654 Q1404.56 23.1654 1402.07 26.5218 Q1399.58 29.8494 1399.58 35.6653 Q1399.58 41.4813 1402.04 44.8377 Q1404.53 48.1653 1408.84 48.1653 Q1413.09 48.1653 1415.58 44.8088 Q1418.07 41.4523 1418.07 35.6653 Q1418.07 29.9072 1415.58 26.5508 Q1413.09 23.1654 1408.84 23.1654 M1408.84 18.6515 Q1415.78 18.6515 1419.75 23.1654 Q1423.71 27.6792 1423.71 35.6653 Q1423.71 43.6225 1419.75 48.1653 Q1415.78 52.6791 1408.84 52.6791 Q1401.87 52.6791 1397.9 48.1653 Q1393.97 43.6225 1393.97 35.6653 Q1393.97 27.6792 1397.9 23.1654 Q1401.87 18.6515 1408.84 18.6515 Z" fill="#000000" fill-rule="nonzero" fill-opacity="1" /><path clip-path="url(#clip780)" d="M1459.48 32.2799 L1459.48 51.84 L1454.15 51.84 L1454.15 32.4535 Q1454.15 27.8529 1452.36 25.567 Q1450.56 23.2811 1446.98 23.2811 Q1442.66 23.2811 1440.18 26.03 Q1437.69 28.7788 1437.69 33.5241 L1437.69 51.84 L1432.33 51.84 L1432.33 19.4328 L1437.69 19.4328 L1437.69 24.4675 Q1439.6 21.545 1442.17 20.0983 Q1444.78 18.6515 1448.16 18.6515 Q1453.75 18.6515 1456.61 22.1237 Q1459.48 25.567 1459.48 32.2799 Z" fill="#000000" fill-rule="nonzero" fill-opacity="1" /><path clip-path="url(#clip780)" d="M1485.49 19.4328 L1516.54 19.4328 L1516.54 24.7568 L1512.46 24.7568 L1512.46 44.6641 Q1512.46 46.7474 1513.15 47.6734 Q1513.87 48.5703 1515.46 48.5703 Q1515.9 48.5703 1516.54 48.5125 Q1517.17 48.4257 1517.37 48.3967 L1517.37 52.2451 Q1516.36 52.6212 1515.29 52.7949 Q1514.22 52.9685 1513.15 52.9685 Q1509.68 52.9685 1508.35 51.0877 Q1507.02 49.178 1507.02 44.0854 L1507.02 24.7568 L1495.07 24.7568 L1495.07 51.84 L1489.63 51.84 L1489.63 24.7568 L1485.49 24.7568 L1485.49 19.4328 Z" fill="#000000" fill-rule="nonzero" fill-opacity="1" /><path clip-path="url(#clip780)" d="M1540.75 33.5241 L1594.23 33.5241 L1594.23 37.6908 L1540.75 37.6908 L1540.75 33.5241 Z" fill="#000000" fill-rule="nonzero" fill-opacity="1" /><path clip-path="url(#clip780)" d="M1621.77 8.64 L1627.62 8.64 L1627.62 26.898 L1647 8.64 L1654.53 8.64 L1633.09 28.7788 L1656.06 51.84 L1648.36 51.84 L1627.62 31.0357 L1627.62 51.84 L1621.77 51.84 L1621.77 8.64 Z" fill="#000000" fill-rule="nonzero" fill-opacity="1" /><path clip-path="url(#clip780)" d="M1661.09 24.9304 L1698.19 24.9304 L1698.19 29.7915 L1661.09 29.7915 L1661.09 24.9304 M1661.09 36.7359 L1698.19 36.7359 L1698.19 41.6549 L1661.09 41.6549 L1661.09 36.7359 Z" fill="#000000" fill-rule="nonzero" fill-opacity="1" /><path clip-path="url(#clip780)" d="M1711.82 46.921 L1721.37 46.921 L1721.37 13.964 L1710.98 16.0474 L1710.98 10.7233 L1721.31 8.64 L1727.15 8.64 L1727.15 46.921 L1736.7 46.921 L1736.7 51.84 L1711.82 51.84 L1711.82 46.921 Z" fill="#000000" fill-rule="nonzero" fill-opacity="1" /><path clip-path="url(#clip780)" d="M1748.57 8.64 L1771.51 8.64 L1771.51 13.559 L1753.92 13.559 L1753.92 24.1492 Q1755.19 23.7152 1756.46 23.5126 Q1757.74 23.2811 1759.01 23.2811 Q1766.24 23.2811 1770.47 27.2452 Q1774.69 31.2093 1774.69 37.9801 Q1774.69 44.9535 1770.35 48.8308 Q1766.01 52.6791 1758.11 52.6791 Q1755.39 52.6791 1752.56 52.2162 Q1749.75 51.7532 1746.74 50.8273 L1746.74 44.9535 Q1749.35 46.3713 1752.12 47.0657 Q1754.9 47.7602 1758 47.7602 Q1763 47.7602 1765.93 45.1271 Q1768.85 42.494 1768.85 37.9801 Q1768.85 33.4663 1765.93 30.8332 Q1763 28.2001 1758 28.2001 Q1755.65 28.2001 1753.31 28.7209 Q1751 29.2417 1748.57 30.3413 L1748.57 8.64 Z" fill="#000000" fill-rule="nonzero" fill-opacity="1" /><path clip-path="url(#clip782)" d="M336.72 1014.49 L336.72 1423.18 L439.352 1423.18 L439.352 1014.49 L336.72 1014.49 L336.72 1014.49  Z" fill="#4682b4" fill-rule="evenodd" fill-opacity="0.7"/>
<polyline clip-path="url(#clip782)" style="stroke:#000000; stroke-linecap:round; stroke-linejoin:round; stroke-width:4; stroke-opacity:0.7; fill:none" points="336.72,1014.49 336.72,1423.18 439.352,1423.18 439.352,1014.49 336.72,1014.49 "/>
<path clip-path="url(#clip782)" d="M465.01 1210.66 L465.01 1423.18 L567.642 1423.18 L567.642 1210.66 L465.01 1210.66 L465.01 1210.66  Z" fill="#4682b4" fill-rule="evenodd" fill-opacity="0.7"/>
<polyline clip-path="url(#clip782)" style="stroke:#000000; stroke-linecap:round; stroke-linejoin:round; stroke-width:4; stroke-opacity:0.7; fill:none" points="465.01,1210.66 465.01,1423.18 567.642,1423.18 567.642,1210.66 465.01,1210.66 "/>
<path clip-path="url(#clip782)" d="M593.3 1318.18 L593.3 1423.18 L695.933 1423.18 L695.933 1318.18 L593.3 1318.18 L593.3 1318.18  Z" fill="#4682b4" fill-rule="evenodd" fill-opacity="0.7"/>
<polyline clip-path="url(#clip782)" style="stroke:#000000; stroke-linecap:round; stroke-linejoin:round; stroke-width:4; stroke-opacity:0.7; fill:none" points="593.3,1318.18 593.3,1423.18 695.933,1423.18 695.933,1318.18 593.3,1318.18 "/>
<path clip-path="url(#clip782)" d="M721.591 1256.8 L721.591 1423.18 L824.223 1423.18 L824.223 1256.8 L721.591 1256.8 L721.591 1256.8  Z" fill="#4682b4" fill-rule="evenodd" fill-opacity="0.7"/>
<polyline clip-path="url(#clip782)" style="stroke:#000000; stroke-linecap:round; stroke-linejoin:round; stroke-width:4; stroke-opacity:0.7; fill:none" points="721.591,1256.8 721.591,1423.18 824.223,1423.18 824.223,1256.8 721.591,1256.8 "/>
<path clip-path="url(#clip782)" d="M849.881 1275.84 L849.881 1423.18 L952.513 1423.18 L952.513 1275.84 L849.881 1275.84 L849.881 1275.84  Z" fill="#4682b4" fill-rule="evenodd" fill-opacity="0.7"/>
<polyline clip-path="url(#clip782)" style="stroke:#000000; stroke-linecap:round; stroke-linejoin:round; stroke-width:4; stroke-opacity:0.7; fill:none" points="849.881,1275.84 849.881,1423.18 952.513,1423.18 952.513,1275.84 849.881,1275.84 "/>
<path clip-path="url(#clip782)" d="M978.171 1230.63 L978.171 1423.18 L1080.8 1423.18 L1080.8 1230.63 L978.171 1230.63 L978.171 1230.63  Z" fill="#4682b4" fill-rule="evenodd" fill-opacity="0.7"/>
<polyline clip-path="url(#clip782)" style="stroke:#000000; stroke-linecap:round; stroke-linejoin:round; stroke-width:4; stroke-opacity:0.7; fill:none" points="978.171,1230.63 978.171,1423.18 1080.8,1423.18 1080.8,1230.63 978.171,1230.63 "/>
<path clip-path="url(#clip782)" d="M1106.46 1164.45 L1106.46 1423.18 L1209.09 1423.18 L1209.09 1164.45 L1106.46 1164.45 L1106.46 1164.45  Z" fill="#4682b4" fill-rule="evenodd" fill-opacity="0.7"/>
<polyline clip-path="url(#clip782)" style="stroke:#000000; stroke-linecap:round; stroke-linejoin:round; stroke-width:4; stroke-opacity:0.7; fill:none" points="1106.46,1164.45 1106.46,1423.18 1209.09,1423.18 1209.09,1164.45 1106.46,1164.45 "/>
<path clip-path="url(#clip782)" d="M1234.75 1188.98 L1234.75 1423.18 L1337.38 1423.18 L1337.38 1188.98 L1234.75 1188.98 L1234.75 1188.98  Z" fill="#4682b4" fill-rule="evenodd" fill-opacity="0.7"/>
<polyline clip-path="url(#clip782)" style="stroke:#000000; stroke-linecap:round; stroke-linejoin:round; stroke-width:4; stroke-opacity:0.7; fill:none" points="1234.75,1188.98 1234.75,1423.18 1337.38,1423.18 1337.38,1188.98 1234.75,1188.98 "/>
<path clip-path="url(#clip782)" d="M1363.04 1206.15 L1363.04 1423.18 L1465.67 1423.18 L1465.67 1206.15 L1363.04 1206.15 L1363.04 1206.15  Z" fill="#4682b4" fill-rule="evenodd" fill-opacity="0.7"/>
<polyline clip-path="url(#clip782)" style="stroke:#000000; stroke-linecap:round; stroke-linejoin:round; stroke-width:4; stroke-opacity:0.7; fill:none" points="1363.04,1206.15 1363.04,1423.18 1465.67,1423.18 1465.67,1206.15 1363.04,1206.15 "/>
<path clip-path="url(#clip782)" d="M1491.33 1239.9 L1491.33 1423.18 L1593.96 1423.18 L1593.96 1239.9 L1491.33 1239.9 L1491.33 1239.9  Z" fill="#4682b4" fill-rule="evenodd" fill-opacity="0.7"/>
<polyline clip-path="url(#clip782)" style="stroke:#000000; stroke-linecap:round; stroke-linejoin:round; stroke-width:4; stroke-opacity:0.7; fill:none" points="1491.33,1239.9 1491.33,1423.18 1593.96,1423.18 1593.96,1239.9 1491.33,1239.9 "/>
<path clip-path="url(#clip782)" d="M1619.62 1284.49 L1619.62 1423.18 L1722.26 1423.18 L1722.26 1284.49 L1619.62 1284.49 L1619.62 1284.49  Z" fill="#4682b4" fill-rule="evenodd" fill-opacity="0.7"/>
<polyline clip-path="url(#clip782)" style="stroke:#000000; stroke-linecap:round; stroke-linejoin:round; stroke-width:4; stroke-opacity:0.7; fill:none" points="1619.62,1284.49 1619.62,1423.18 1722.26,1423.18 1722.26,1284.49 1619.62,1284.49 "/>
<path clip-path="url(#clip782)" d="M1747.91 1149.3 L1747.91 1423.18 L1850.55 1423.18 L1850.55 1149.3 L1747.91 1149.3 L1747.91 1149.3  Z" fill="#4682b4" fill-rule="evenodd" fill-opacity="0.7"/>
<polyline clip-path="url(#clip782)" style="stroke:#000000; stroke-linecap:round; stroke-linejoin:round; stroke-width:4; stroke-opacity:0.7; fill:none" points="1747.91,1149.3 1747.91,1423.18 1850.55,1423.18 1850.55,1149.3 1747.91,1149.3 "/>
<path clip-path="url(#clip782)" d="M1876.2 1306.23 L1876.2 1423.18 L1978.84 1423.18 L1978.84 1306.23 L1876.2 1306.23 L1876.2 1306.23  Z" fill="#4682b4" fill-rule="evenodd" fill-opacity="0.7"/>
<polyline clip-path="url(#clip782)" style="stroke:#000000; stroke-linecap:round; stroke-linejoin:round; stroke-width:4; stroke-opacity:0.7; fill:none" points="1876.2,1306.23 1876.2,1423.18 1978.84,1423.18 1978.84,1306.23 1876.2,1306.23 "/>
<path clip-path="url(#clip782)" d="M2004.49 1188.58 L2004.49 1423.18 L2107.13 1423.18 L2107.13 1188.58 L2004.49 1188.58 L2004.49 1188.58  Z" fill="#4682b4" fill-rule="evenodd" fill-opacity="0.7"/>
<polyline clip-path="url(#clip782)" style="stroke:#000000; stroke-linecap:round; stroke-linejoin:round; stroke-width:4; stroke-opacity:0.7; fill:none" points="2004.49,1188.58 2004.49,1423.18 2107.13,1423.18 2107.13,1188.58 2004.49,1188.58 "/>
<path clip-path="url(#clip782)" d="M2132.78 106.192 L2132.78 1423.18 L2235.42 1423.18 L2235.42 106.192 L2132.78 106.192 L2132.78 106.192  Z" fill="#4682b4" fill-rule="evenodd" fill-opacity="0.7"/>
<polyline clip-path="url(#clip782)" style="stroke:#000000; stroke-linecap:round; stroke-linejoin:round; stroke-width:4; stroke-opacity:0.7; fill:none" points="2132.78,106.192 2132.78,1423.18 2235.42,1423.18 2235.42,106.192 2132.78,106.192 "/>
<circle clip-path="url(#clip782)" style="fill:#4682b4; stroke:none; fill-opacity:0" cx="388.036" cy="1014.49" r="2"/>
<circle clip-path="url(#clip782)" style="fill:#4682b4; stroke:none; fill-opacity:0" cx="516.326" cy="1210.66" r="2"/>
<circle clip-path="url(#clip782)" style="fill:#4682b4; stroke:none; fill-opacity:0" cx="644.616" cy="1318.18" r="2"/>
<circle clip-path="url(#clip782)" style="fill:#4682b4; stroke:none; fill-opacity:0" cx="772.907" cy="1256.8" r="2"/>
<circle clip-path="url(#clip782)" style="fill:#4682b4; stroke:none; fill-opacity:0" cx="901.197" cy="1275.84" r="2"/>
<circle clip-path="url(#clip782)" style="fill:#4682b4; stroke:none; fill-opacity:0" cx="1029.49" cy="1230.63" r="2"/>
<circle clip-path="url(#clip782)" style="fill:#4682b4; stroke:none; fill-opacity:0" cx="1157.78" cy="1164.45" r="2"/>
<circle clip-path="url(#clip782)" style="fill:#4682b4; stroke:none; fill-opacity:0" cx="1286.07" cy="1188.98" r="2"/>
<circle clip-path="url(#clip782)" style="fill:#4682b4; stroke:none; fill-opacity:0" cx="1414.36" cy="1206.15" r="2"/>
<circle clip-path="url(#clip782)" style="fill:#4682b4; stroke:none; fill-opacity:0" cx="1542.65" cy="1239.9" r="2"/>
<circle clip-path="url(#clip782)" style="fill:#4682b4; stroke:none; fill-opacity:0" cx="1670.94" cy="1284.49" r="2"/>
<circle clip-path="url(#clip782)" style="fill:#4682b4; stroke:none; fill-opacity:0" cx="1799.23" cy="1149.3" r="2"/>
<circle clip-path="url(#clip782)" style="fill:#4682b4; stroke:none; fill-opacity:0" cx="1927.52" cy="1306.23" r="2"/>
<circle clip-path="url(#clip782)" style="fill:#4682b4; stroke:none; fill-opacity:0" cx="2055.81" cy="1188.58" r="2"/>
<circle clip-path="url(#clip782)" style="fill:#4682b4; stroke:none; fill-opacity:0" cx="2184.1" cy="106.192" r="2"/>
</svg>
