<?xml version="1.0" encoding="utf-8"?>
<svg xmlns="http://www.w3.org/2000/svg" xmlns:xlink="http://www.w3.org/1999/xlink" width="600" height="400" viewBox="0 0 2400 1600">
<defs>
  <clipPath id="clip940">
    <rect x="0" y="0" width="2400" height="1600"/>
  </clipPath>
</defs>
<path clip-path="url(#clip940)" d="M0 1600 L2400 1600 L2400 8.88178e-14 L0 8.88178e-14  Z" fill="#ffffff" fill-rule="evenodd" fill-opacity="1"/>
<defs>
  <clipPath id="clip941">
    <rect x="225" y="0" width="1879" height="1566"/>
  </clipPath>
</defs>
<path clip-path="url(#clip940)" d="M202.227 1423.18 L2352.76 1423.18 L2352.76 106.192 L202.227 106.192  Z" fill="#ffffff" fill-rule="evenodd" fill-opacity="1"/>
<defs>
  <clipPath id="clip942">
    <rect x="202" y="106" width="2152" height="1318"/>
  </clipPath>
</defs>
<polyline clip-path="url(#clip942)" style="stroke:#000000; stroke-linecap:round; stroke-linejoin:round; stroke-width:2; stroke-opacity:0.1; fill:none" points="452.508,1423.18 452.508,106.192 "/>
<polyline clip-path="url(#clip942)" style="stroke:#000000; stroke-linecap:round; stroke-linejoin:round; stroke-width:2; stroke-opacity:0.1; fill:none" points="782.501,1423.18 782.501,106.192 "/>
<polyline clip-path="url(#clip942)" style="stroke:#000000; stroke-linecap:round; stroke-linejoin:round; stroke-width:2; stroke-opacity:0.1; fill:none" points="1112.49,1423.18 1112.49,106.192 "/>
<polyline clip-path="url(#clip942)" style="stroke:#000000; stroke-linecap:round; stroke-linejoin:round; stroke-width:2; stroke-opacity:0.1; fill:none" points="1442.49,1423.18 1442.49,106.192 "/>
<polyline clip-path="url(#clip942)" style="stroke:#000000; stroke-linecap:round; stroke-linejoin:round; stroke-width:2; stroke-opacity:0.1; fill:none" points="1772.48,1423.18 1772.48,106.192 "/>
<polyline clip-path="url(#clip942)" style="stroke:#000000; stroke-linecap:round; stroke-linejoin:round; stroke-width:2; stroke-opacity:0.1; fill:none" points="2102.48,1423.18 2102.48,106.192 "/>
<polyline clip-path="url(#clip942)" style="stroke:#000000; stroke-linecap:round; stroke-linejoin:round; stroke-width:2; stroke-opacity:0.1; fill:none" points="202.227,1423.18 2352.76,1423.18 "/>
<polyline clip-path="url(#clip942)" style="stroke:#000000; stroke-linecap:round; stroke-linejoin:round; stroke-width:2; stroke-opacity:0.1; fill:none" points="202.227,1042.54 2352.76,1042.54 "/>
<polyline clip-path="url(#clip942)" style="stroke:#000000; stroke-linecap:round; stroke-linejoin:round; stroke-width:2; stroke-opacity:0.1; fill:none" points="202.227,661.896 2352.76,661.896 "/>
<polyline clip-path="url(#clip942)" style="stroke:#000000; stroke-linecap:round; stroke-linejoin:round; stroke-width:2; stroke-opacity:0.1; fill:none" points="202.227,281.255 2352.76,281.255 "/>
<polyline clip-path="url(#clip940)" style="stroke:#000000; stroke-linecap:round; stroke-linejoin:round; stroke-width:4; stroke-opacity:1; fill:none" points="202.227,1423.18 2352.76,1423.18 "/>
<polyline clip-path="url(#clip940)" style="stroke:#000000; stroke-linecap:round; stroke-linejoin:round; stroke-width:4; stroke-opacity:1; fill:none" points="452.508,1423.18 452.508,1404.28 "/>
<polyline clip-path="url(#clip940)" style="stroke:#000000; stroke-linecap:round; stroke-linejoin:round; stroke-width:4; stroke-opacity:1; fill:none" points="782.501,1423.18 782.501,1404.28 "/>
<polyline clip-path="url(#clip940)" style="stroke:#000000; stroke-linecap:round; stroke-linejoin:round; stroke-width:4; stroke-opacity:1; fill:none" points="1112.49,1423.18 1112.49,1404.28 "/>
<polyline clip-path="url(#clip940)" style="stroke:#000000; stroke-linecap:round; stroke-linejoin:round; stroke-width:4; stroke-opacity:1; fill:none" points="1442.49,1423.18 1442.49,1404.28 "/>
<polyline clip-path="url(#clip940)" style="stroke:#000000; stroke-linecap:round; stroke-linejoin:round; stroke-width:4; stroke-opacity:1; fill:none" points="1772.48,1423.18 1772.48,1404.28 "/>
<polyline clip-path="url(#clip940)" style="stroke:#000000; stroke-linecap:round; stroke-linejoin:round; stroke-width:4; stroke-opacity:1; fill:none" points="2102.48,1423.18 2102.48,1404.28 "/>
<path clip-path="url(#clip940)" d="M442.89 1481.64 L450.529 1481.64 L450.529 1455.28 L442.218 1456.95 L442.218 1452.69 L450.482 1451.02 L455.158 1451.02 L455.158 1481.64 L462.797 1481.64 L462.797 1485.58 L442.89 1485.58 L442.89 1481.64 Z" fill="#000000" fill-rule="nonzero" fill-opacity="1" /><path clip-path="url(#clip940)" d="M777.154 1481.64 L793.474 1481.64 L793.474 1485.58 L771.529 1485.58 L771.529 1481.64 Q774.191 1478.89 778.775 1474.26 Q783.381 1469.61 784.562 1468.27 Q786.807 1465.74 787.687 1464.01 Q788.589 1462.25 788.589 1460.56 Q788.589 1457.8 786.645 1456.07 Q784.724 1454.33 781.622 1454.33 Q779.423 1454.33 776.969 1455.09 Q774.538 1455.86 771.761 1457.41 L771.761 1452.69 Q774.585 1451.55 777.038 1450.97 Q779.492 1450.39 781.529 1450.39 Q786.899 1450.39 790.094 1453.08 Q793.288 1455.77 793.288 1460.26 Q793.288 1462.39 792.478 1464.31 Q791.691 1466.2 789.585 1468.8 Q789.006 1469.47 785.904 1472.69 Q782.802 1475.88 777.154 1481.64 Z" fill="#000000" fill-rule="nonzero" fill-opacity="1" /><path clip-path="url(#clip940)" d="M1116.74 1466.95 Q1120.1 1467.66 1121.97 1469.93 Q1123.87 1472.2 1123.87 1475.53 Q1123.87 1480.65 1120.35 1483.45 Q1116.84 1486.25 1110.35 1486.25 Q1108.18 1486.25 1105.86 1485.81 Q1103.57 1485.39 1101.12 1484.54 L1101.12 1480.02 Q1103.06 1481.16 1105.38 1481.74 Q1107.69 1482.32 1110.21 1482.32 Q1114.61 1482.32 1116.9 1480.58 Q1119.22 1478.84 1119.22 1475.53 Q1119.22 1472.48 1117.07 1470.77 Q1114.94 1469.03 1111.12 1469.03 L1107.09 1469.03 L1107.09 1465.19 L1111.3 1465.19 Q1114.75 1465.19 1116.58 1463.82 Q1118.41 1462.43 1118.41 1459.84 Q1118.41 1457.18 1116.51 1455.77 Q1114.64 1454.33 1111.12 1454.33 Q1109.2 1454.33 1107 1454.75 Q1104.8 1455.16 1102.16 1456.04 L1102.16 1451.88 Q1104.82 1451.14 1107.14 1450.77 Q1109.47 1450.39 1111.53 1450.39 Q1116.86 1450.39 1119.96 1452.83 Q1123.06 1455.23 1123.06 1459.35 Q1123.06 1462.22 1121.42 1464.21 Q1119.77 1466.18 1116.74 1466.95 Z" fill="#000000" fill-rule="nonzero" fill-opacity="1" /><path clip-path="url(#clip940)" d="M1445.5 1455.09 L1433.69 1473.54 L1445.5 1473.54 L1445.5 1455.09 M1444.27 1451.02 L1450.15 1451.02 L1450.15 1473.54 L1455.08 1473.54 L1455.08 1477.43 L1450.15 1477.43 L1450.15 1485.58 L1445.5 1485.58 L1445.5 1477.43 L1429.9 1477.43 L1429.9 1472.92 L1444.27 1451.02 Z" fill="#000000" fill-rule="nonzero" fill-opacity="1" /><path clip-path="url(#clip940)" d="M1762.76 1451.02 L1781.12 1451.02 L1781.12 1454.96 L1767.04 1454.96 L1767.04 1463.43 Q1768.06 1463.08 1769.08 1462.92 Q1770.1 1462.73 1771.12 1462.73 Q1776.9 1462.73 1780.28 1465.9 Q1783.66 1469.08 1783.66 1474.49 Q1783.66 1480.07 1780.19 1483.17 Q1776.72 1486.25 1770.4 1486.25 Q1768.22 1486.25 1765.95 1485.88 Q1763.71 1485.51 1761.3 1484.77 L1761.3 1480.07 Q1763.38 1481.2 1765.61 1481.76 Q1767.83 1482.32 1770.31 1482.32 Q1774.31 1482.32 1776.65 1480.21 Q1778.99 1478.1 1778.99 1474.49 Q1778.99 1470.88 1776.65 1468.77 Q1774.31 1466.67 1770.31 1466.67 Q1768.43 1466.67 1766.56 1467.08 Q1764.7 1467.5 1762.76 1468.38 L1762.76 1451.02 Z" fill="#000000" fill-rule="nonzero" fill-opacity="1" /><path clip-path="url(#clip940)" d="M2102.88 1466.44 Q2099.73 1466.44 2097.88 1468.59 Q2096.05 1470.74 2096.05 1474.49 Q2096.05 1478.22 2097.88 1480.39 Q2099.73 1482.55 2102.88 1482.55 Q2106.03 1482.55 2107.86 1480.39 Q2109.71 1478.22 2109.71 1474.49 Q2109.71 1470.74 2107.86 1468.59 Q2106.03 1466.44 2102.88 1466.44 M2112.16 1451.78 L2112.16 1456.04 Q2110.4 1455.21 2108.6 1454.77 Q2106.82 1454.33 2105.06 1454.33 Q2100.43 1454.33 2097.97 1457.45 Q2095.54 1460.58 2095.2 1466.9 Q2096.56 1464.89 2098.62 1463.82 Q2100.68 1462.73 2103.16 1462.73 Q2108.37 1462.73 2111.38 1465.9 Q2114.41 1469.05 2114.41 1474.49 Q2114.41 1479.82 2111.26 1483.03 Q2108.11 1486.25 2102.88 1486.25 Q2096.89 1486.25 2093.71 1481.67 Q2090.54 1477.06 2090.54 1468.33 Q2090.54 1460.14 2094.43 1455.28 Q2098.32 1450.39 2104.87 1450.39 Q2106.63 1450.39 2108.41 1450.74 Q2110.22 1451.09 2112.16 1451.78 Z" fill="#000000" fill-rule="nonzero" fill-opacity="1" /><path clip-path="url(#clip940)" d="M1225.69 1522.08 L1225.69 1528.35 Q1222.03 1526.6 1218.78 1525.74 Q1215.54 1524.88 1212.51 1524.88 Q1207.26 1524.88 1204.4 1526.92 Q1201.56 1528.96 1201.56 1532.71 Q1201.56 1535.87 1203.44 1537.49 Q1205.35 1539.08 1210.64 1540.07 L1214.52 1540.86 Q1221.71 1542.23 1225.12 1545.7 Q1228.56 1549.14 1228.56 1554.93 Q1228.56 1561.84 1223.91 1565.4 Q1219.29 1568.97 1210.35 1568.97 Q1206.98 1568.97 1203.16 1568.2 Q1199.37 1567.44 1195.29 1565.94 L1195.29 1559.32 Q1199.21 1561.52 1202.97 1562.63 Q1206.72 1563.75 1210.35 1563.75 Q1215.86 1563.75 1218.85 1561.58 Q1221.84 1559.42 1221.84 1555.41 Q1221.84 1551.91 1219.68 1549.93 Q1217.54 1547.96 1212.64 1546.97 L1208.73 1546.21 Q1201.53 1544.78 1198.32 1541.72 Q1195.1 1538.67 1195.1 1533.22 Q1195.1 1526.92 1199.53 1523.29 Q1203.98 1519.66 1211.78 1519.66 Q1215.12 1519.66 1218.59 1520.27 Q1222.06 1520.87 1225.69 1522.08 Z" fill="#000000" fill-rule="nonzero" fill-opacity="1" /><path clip-path="url(#clip940)" d="M1244.12 1522.27 L1244.12 1532.4 L1256.18 1532.4 L1256.18 1536.95 L1244.12 1536.95 L1244.12 1556.3 Q1244.12 1560.66 1245.3 1561.9 Q1246.51 1563.14 1250.17 1563.14 L1256.18 1563.14 L1256.18 1568.04 L1250.17 1568.04 Q1243.39 1568.04 1240.81 1565.53 Q1238.23 1562.98 1238.23 1556.3 L1238.23 1536.95 L1233.93 1536.95 L1233.93 1532.4 L1238.23 1532.4 L1238.23 1522.27 L1244.12 1522.27 Z" fill="#000000" fill-rule="nonzero" fill-opacity="1" /><path clip-path="url(#clip940)" d="M1280.09 1550.12 Q1272.99 1550.12 1270.25 1551.75 Q1267.51 1553.37 1267.51 1557.29 Q1267.51 1560.4 1269.55 1562.25 Q1271.62 1564.07 1275.15 1564.07 Q1280.02 1564.07 1282.95 1560.63 Q1285.91 1557.16 1285.91 1551.43 L1285.91 1550.12 L1280.09 1550.12 M1291.77 1547.71 L1291.77 1568.04 L1285.91 1568.04 L1285.91 1562.63 Q1283.91 1565.88 1280.91 1567.44 Q1277.92 1568.97 1273.59 1568.97 Q1268.12 1568.97 1264.87 1565.91 Q1261.66 1562.82 1261.66 1557.67 Q1261.66 1551.65 1265.67 1548.6 Q1269.71 1545.54 1277.7 1545.54 L1285.91 1545.54 L1285.91 1544.97 Q1285.91 1540.93 1283.24 1538.73 Q1280.59 1536.5 1275.79 1536.5 Q1272.73 1536.5 1269.84 1537.23 Q1266.94 1537.97 1264.27 1539.43 L1264.27 1534.02 Q1267.48 1532.78 1270.51 1532.17 Q1273.53 1531.54 1276.39 1531.54 Q1284.13 1531.54 1287.95 1535.55 Q1291.77 1539.56 1291.77 1547.71 Z" fill="#000000" fill-rule="nonzero" fill-opacity="1" /><path clip-path="url(#clip940)" d="M1309.62 1522.27 L1309.62 1532.4 L1321.69 1532.4 L1321.69 1536.95 L1309.62 1536.95 L1309.62 1556.3 Q1309.62 1560.66 1310.8 1561.9 Q1312.01 1563.14 1315.67 1563.14 L1321.69 1563.14 L1321.69 1568.04 L1315.67 1568.04 Q1308.89 1568.04 1306.31 1565.53 Q1303.73 1562.98 1303.73 1556.3 L1303.73 1536.95 L1299.44 1536.95 L1299.44 1532.4 L1303.73 1532.4 L1303.73 1522.27 L1309.62 1522.27 Z" fill="#000000" fill-rule="nonzero" fill-opacity="1" /><path clip-path="url(#clip940)" d="M1359.88 1548.76 L1359.88 1551.62 L1332.95 1551.62 Q1333.33 1557.67 1336.58 1560.85 Q1339.86 1564 1345.68 1564 Q1349.06 1564 1352.21 1563.17 Q1355.39 1562.35 1358.51 1560.69 L1358.51 1566.23 Q1355.36 1567.57 1352.05 1568.27 Q1348.74 1568.97 1345.33 1568.97 Q1336.8 1568.97 1331.81 1564 Q1326.84 1559.04 1326.84 1550.57 Q1326.84 1541.82 1331.55 1536.69 Q1336.29 1531.54 1344.32 1531.54 Q1351.51 1531.54 1355.68 1536.18 Q1359.88 1540.8 1359.88 1548.76 M1354.02 1547.04 Q1353.96 1542.23 1351.32 1539.37 Q1348.71 1536.5 1344.38 1536.5 Q1339.48 1536.5 1336.52 1539.27 Q1333.59 1542.04 1333.14 1547.07 L1354.02 1547.04 Z" fill="#000000" fill-rule="nonzero" fill-opacity="1" /><polyline clip-path="url(#clip940)" style="stroke:#000000; stroke-linecap:round; stroke-linejoin:round; stroke-width:4; stroke-opacity:1; fill:none" points="202.227,1423.18 202.227,106.192 "/>
<polyline clip-path="url(#clip940)" style="stroke:#000000; stroke-linecap:round; stroke-linejoin:round; stroke-width:4; stroke-opacity:1; fill:none" points="202.227,1423.18 221.125,1423.18 "/>
<polyline clip-path="url(#clip940)" style="stroke:#000000; stroke-linecap:round; stroke-linejoin:round; stroke-width:4; stroke-opacity:1; fill:none" points="202.227,1042.54 221.125,1042.54 "/>
<polyline clip-path="url(#clip940)" style="stroke:#000000; stroke-linecap:round; stroke-linejoin:round; stroke-width:4; stroke-opacity:1; fill:none" points="202.227,661.896 221.125,661.896 "/>
<polyline clip-path="url(#clip940)" style="stroke:#000000; stroke-linecap:round; stroke-linejoin:round; stroke-width:4; stroke-opacity:1; fill:none" points="202.227,281.255 221.125,281.255 "/>
<path clip-path="url(#clip940)" d="M154.283 1408.98 Q150.672 1408.98 148.843 1412.54 Q147.038 1416.08 147.038 1423.21 Q147.038 1430.32 148.843 1433.89 Q150.672 1437.43 154.283 1437.43 Q157.917 1437.43 159.723 1433.89 Q161.552 1430.32 161.552 1423.21 Q161.552 1416.08 159.723 1412.54 Q157.917 1408.98 154.283 1408.98 M154.283 1405.27 Q160.093 1405.27 163.149 1409.88 Q166.227 1414.46 166.227 1423.21 Q166.227 1431.94 163.149 1436.55 Q160.093 1441.13 154.283 1441.13 Q148.473 1441.13 145.394 1436.55 Q142.339 1431.94 142.339 1423.21 Q142.339 1414.46 145.394 1409.88 Q148.473 1405.27 154.283 1405.27 Z" fill="#000000" fill-rule="nonzero" fill-opacity="1" /><path clip-path="url(#clip940)" d="M145.325 1025.26 L163.681 1025.26 L163.681 1029.19 L149.607 1029.19 L149.607 1037.67 Q150.626 1037.32 151.644 1037.16 Q152.663 1036.97 153.681 1036.97 Q159.468 1036.97 162.848 1040.14 Q166.227 1043.31 166.227 1048.73 Q166.227 1054.31 162.755 1057.41 Q159.283 1060.49 152.964 1060.49 Q150.788 1060.49 148.519 1060.12 Q146.274 1059.75 143.866 1059.01 L143.866 1054.31 Q145.95 1055.44 148.172 1056 Q150.394 1056.55 152.871 1056.55 Q156.876 1056.55 159.214 1054.45 Q161.552 1052.34 161.552 1048.73 Q161.552 1045.12 159.214 1043.01 Q156.876 1040.91 152.871 1040.91 Q150.996 1040.91 149.121 1041.32 Q147.269 1041.74 145.325 1042.62 L145.325 1025.26 Z" fill="#000000" fill-rule="nonzero" fill-opacity="1" /><path clip-path="url(#clip940)" d="M114.931 675.241 L122.57 675.241 L122.57 648.876 L114.26 650.542 L114.26 646.283 L122.524 644.616 L127.2 644.616 L127.2 675.241 L134.839 675.241 L134.839 679.176 L114.931 679.176 L114.931 675.241 Z" fill="#000000" fill-rule="nonzero" fill-opacity="1" /><path clip-path="url(#clip940)" d="M154.283 647.695 Q150.672 647.695 148.843 651.26 Q147.038 654.801 147.038 661.931 Q147.038 669.037 148.843 672.602 Q150.672 676.144 154.283 676.144 Q157.917 676.144 159.723 672.602 Q161.552 669.037 161.552 661.931 Q161.552 654.801 159.723 651.26 Q157.917 647.695 154.283 647.695 M154.283 643.991 Q160.093 643.991 163.149 648.598 Q166.227 653.181 166.227 661.931 Q166.227 670.658 163.149 675.264 Q160.093 679.848 154.283 679.848 Q148.473 679.848 145.394 675.264 Q142.339 670.658 142.339 661.931 Q142.339 653.181 145.394 648.598 Q148.473 643.991 154.283 643.991 Z" fill="#000000" fill-rule="nonzero" fill-opacity="1" /><path clip-path="url(#clip940)" d="M115.927 294.599 L123.566 294.599 L123.566 268.234 L115.256 269.9 L115.256 265.641 L123.519 263.975 L128.195 263.975 L128.195 294.599 L135.834 294.599 L135.834 298.535 L115.927 298.535 L115.927 294.599 Z" fill="#000000" fill-rule="nonzero" fill-opacity="1" /><path clip-path="url(#clip940)" d="M145.325 263.975 L163.681 263.975 L163.681 267.91 L149.607 267.91 L149.607 276.382 Q150.626 276.035 151.644 275.873 Q152.663 275.687 153.681 275.687 Q159.468 275.687 162.848 278.859 Q166.227 282.03 166.227 287.447 Q166.227 293.025 162.755 296.127 Q159.283 299.206 152.964 299.206 Q150.788 299.206 148.519 298.835 Q146.274 298.465 143.866 297.724 L143.866 293.025 Q145.95 294.16 148.172 294.715 Q150.394 295.271 152.871 295.271 Q156.876 295.271 159.214 293.164 Q161.552 291.058 161.552 287.447 Q161.552 283.836 159.214 281.729 Q156.876 279.623 152.871 279.623 Q150.996 279.623 149.121 280.039 Q147.269 280.456 145.325 281.336 L145.325 263.975 Z" fill="#000000" fill-rule="nonzero" fill-opacity="1" /><path clip-path="url(#clip940)" d="M18.0438 821.548 L24.314 821.548 Q22.5634 825.208 21.704 828.454 Q20.8447 831.701 20.8447 834.725 Q20.8447 839.976 22.8817 842.841 Q24.9187 845.674 28.6745 845.674 Q31.8255 845.674 33.4488 843.796 Q35.0402 841.886 36.0269 836.603 L36.8226 832.719 Q38.1912 825.526 41.6605 822.121 Q45.098 818.683 50.8908 818.683 Q57.7976 818.683 61.3624 823.33 Q64.9272 827.945 64.9272 836.889 Q64.9272 840.263 64.1633 844.082 Q63.3994 847.87 61.9035 851.944 L55.2831 851.944 Q57.4793 848.029 58.5933 844.273 Q59.7073 840.517 59.7073 836.889 Q59.7073 831.383 57.543 828.391 Q55.3786 825.399 51.3682 825.399 Q47.8671 825.399 45.8937 827.563 Q43.9204 829.696 42.9337 834.597 L42.1698 838.512 Q40.7375 845.706 37.682 848.92 Q34.6264 852.135 29.1837 852.135 Q22.8817 852.135 19.2532 847.711 Q15.6248 843.255 15.6248 835.457 Q15.6248 832.115 16.2295 828.645 Q16.8343 825.176 18.0438 821.548 Z" fill="#000000" fill-rule="nonzero" fill-opacity="1" /><path clip-path="url(#clip940)" d="M18.2347 803.119 L28.3562 803.119 L28.3562 791.056 L32.9077 791.056 L32.9077 803.119 L52.2594 803.119 Q56.6199 803.119 57.8613 801.941 Q59.1026 800.732 59.1026 797.072 L59.1026 791.056 L64.0042 791.056 L64.0042 797.072 Q64.0042 803.851 61.4897 806.429 Q58.9434 809.007 52.2594 809.007 L32.9077 809.007 L32.9077 813.304 L28.3562 813.304 L28.3562 809.007 L18.2347 809.007 L18.2347 803.119 Z" fill="#000000" fill-rule="nonzero" fill-opacity="1" /><path clip-path="url(#clip940)" d="M44.7161 752.862 L47.5806 752.862 L47.5806 779.789 Q53.6281 779.407 56.8109 776.16 Q59.9619 772.882 59.9619 767.057 Q59.9619 763.683 59.1344 760.532 Q58.3069 757.35 56.6518 754.23 L62.1899 754.23 Q63.5267 757.381 64.227 760.692 Q64.9272 764.002 64.9272 767.407 Q64.9272 775.937 59.9619 780.934 Q54.9967 785.9 46.5303 785.9 Q37.7774 785.9 32.6531 781.189 Q27.4968 776.447 27.4968 768.426 Q27.4968 761.233 32.1438 757.063 Q36.7589 752.862 44.7161 752.862 M42.9973 758.718 Q38.1912 758.782 35.3266 761.424 Q32.4621 764.033 32.4621 768.362 Q32.4621 773.264 35.2312 776.224 Q38.0002 779.152 43.0292 779.598 L42.9973 758.718 Z" fill="#000000" fill-rule="nonzero" fill-opacity="1" /><path clip-path="url(#clip940)" d="M58.657 737.584 L77.5631 737.584 L77.5631 743.472 L28.3562 743.472 L28.3562 737.584 L33.7671 737.584 Q30.5842 735.738 29.0564 732.937 Q27.4968 730.104 27.4968 726.189 Q27.4968 719.696 32.6531 715.654 Q37.8093 711.58 46.212 711.58 Q54.6147 711.58 59.771 715.654 Q64.9272 719.696 64.9272 726.189 Q64.9272 730.104 63.3994 732.937 Q61.8398 735.738 58.657 737.584 M46.212 717.659 Q39.7508 717.659 36.0905 720.333 Q32.3984 722.975 32.3984 727.622 Q32.3984 732.269 36.0905 734.942 Q39.7508 737.584 46.212 737.584 Q52.6732 737.584 56.3653 734.942 Q60.0256 732.269 60.0256 727.622 Q60.0256 722.975 56.3653 720.333 Q52.6732 717.659 46.212 717.659 Z" fill="#000000" fill-rule="nonzero" fill-opacity="1" /><path clip-path="url(#clip940)" d="M29.4065 679.147 L34.9447 679.147 Q33.6716 681.629 33.035 684.303 Q32.3984 686.977 32.3984 689.841 Q32.3984 694.202 33.7352 696.398 Q35.072 698.562 37.7456 698.562 Q39.7826 698.562 40.9603 697.003 Q42.1061 695.443 43.1565 690.732 L43.6021 688.727 Q44.9389 682.489 47.3897 679.879 Q49.8086 677.237 54.1691 677.237 Q59.1344 677.237 62.0308 681.184 Q64.9272 685.099 64.9272 691.974 Q64.9272 694.838 64.3543 697.957 Q63.8132 701.045 62.6992 704.482 L56.6518 704.482 Q58.3387 701.236 59.198 698.085 Q60.0256 694.934 60.0256 691.846 Q60.0256 687.709 58.6251 685.481 Q57.1929 683.253 54.6147 683.253 Q52.2276 683.253 50.9545 684.876 Q49.6813 686.467 48.5037 691.91 L48.0262 693.947 Q46.8804 699.39 44.5251 701.809 Q42.138 704.228 38.0002 704.228 Q32.9713 704.228 30.2341 700.663 Q27.4968 697.098 27.4968 690.541 Q27.4968 687.295 27.9743 684.43 Q28.4517 681.566 29.4065 679.147 Z" fill="#000000" fill-rule="nonzero" fill-opacity="1" /><path clip-path="url(#clip940)" d="M818.568 8.64 L826.438 8.64 L845.593 44.7799 L845.593 8.64 L851.264 8.64 L851.264 51.84 L843.394 51.84 L824.239 15.7001 L824.239 51.84 L818.568 51.84 L818.568 8.64 Z" fill="#000000" fill-rule="nonzero" fill-opacity="1" /><path clip-path="url(#clip940)" d="M877.393 35.5496 Q870.94 35.5496 868.452 37.0253 Q865.963 38.501 865.963 42.06 Q865.963 44.8956 867.815 46.5738 Q869.696 48.2231 872.908 48.2231 Q877.335 48.2231 879.997 45.0981 Q882.688 41.9442 882.688 36.7359 L882.688 35.5496 L877.393 35.5496 M888.012 33.3505 L888.012 51.84 L882.688 51.84 L882.688 46.921 Q880.865 49.8724 878.145 51.2902 Q875.425 52.6791 871.49 52.6791 Q866.513 52.6791 863.562 49.9014 Q860.639 47.0947 860.639 42.4072 Q860.639 36.9385 864.285 34.1607 Q867.96 31.3829 875.222 31.3829 L882.688 31.3829 L882.688 30.8621 Q882.688 27.1874 880.257 25.1908 Q877.856 23.1654 873.486 23.1654 Q870.709 23.1654 868.075 23.8309 Q865.442 24.4964 863.012 25.8274 L863.012 20.9085 Q865.934 19.78 868.683 19.2302 Q871.432 18.6515 874.036 18.6515 Q881.067 18.6515 884.54 22.2973 Q888.012 25.9431 888.012 33.3505 Z" fill="#000000" fill-rule="nonzero" fill-opacity="1" /><path clip-path="url(#clip940)" d="M904.244 10.2314 L904.244 19.4328 L915.211 19.4328 L915.211 23.5705 L904.244 23.5705 L904.244 41.163 Q904.244 45.1271 905.315 46.2555 Q906.414 47.384 909.742 47.384 L915.211 47.384 L915.211 51.84 L909.742 51.84 Q903.579 51.84 901.235 49.5541 Q898.891 47.2393 898.891 41.163 L898.891 23.5705 L894.985 23.5705 L894.985 19.4328 L898.891 19.4328 L898.891 10.2314 L904.244 10.2314 Z" fill="#000000" fill-rule="nonzero" fill-opacity="1" /><path clip-path="url(#clip940)" d="M921.663 39.0507 L921.663 19.4328 L926.987 19.4328 L926.987 38.8482 Q926.987 43.4488 928.781 45.7636 Q930.575 48.0495 934.163 48.0495 Q938.474 48.0495 940.963 45.3007 Q943.48 42.5519 943.48 37.8065 L943.48 19.4328 L948.804 19.4328 L948.804 51.84 L943.48 51.84 L943.48 46.8632 Q941.542 49.8145 938.966 51.2613 Q936.42 52.6791 933.035 52.6791 Q927.45 52.6791 924.557 49.2069 Q921.663 45.7347 921.663 39.0507 M935.06 18.6515 L935.06 18.6515 Z" fill="#000000" fill-rule="nonzero" fill-opacity="1" /><path clip-path="url(#clip940)" d="M978.549 24.4096 Q977.652 23.8888 976.582 23.6573 Q975.54 23.3969 974.267 23.3969 Q969.753 23.3969 967.323 26.3482 Q964.921 29.2707 964.921 34.7683 L964.921 51.84 L959.568 51.84 L959.568 19.4328 L964.921 19.4328 L964.921 24.4675 Q966.599 21.5161 969.29 20.0983 Q971.981 18.6515 975.83 18.6515 Q976.379 18.6515 977.045 18.7383 Q977.71 18.7962 978.52 18.9409 L978.549 24.4096 Z" fill="#000000" fill-rule="nonzero" fill-opacity="1" /><path clip-path="url(#clip940)" d="M998.862 35.5496 Q992.409 35.5496 989.921 37.0253 Q987.432 38.501 987.432 42.06 Q987.432 44.8956 989.284 46.5738 Q991.165 48.2231 994.377 48.2231 Q998.804 48.2231 1001.47 45.0981 Q1004.16 41.9442 1004.16 36.7359 L1004.16 35.5496 L998.862 35.5496 M1009.48 33.3505 L1009.48 51.84 L1004.16 51.84 L1004.16 46.921 Q1002.33 49.8724 999.614 51.2902 Q996.894 52.6791 992.959 52.6791 Q987.982 52.6791 985.031 49.9014 Q982.108 47.0947 982.108 42.4072 Q982.108 36.9385 985.754 34.1607 Q989.429 31.3829 996.692 31.3829 L1004.16 31.3829 L1004.16 30.8621 Q1004.16 27.1874 1001.73 25.1908 Q999.325 23.1654 994.956 23.1654 Q992.178 23.1654 989.545 23.8309 Q986.912 24.4964 984.481 25.8274 L984.481 20.9085 Q987.404 19.78 990.152 19.2302 Q992.901 18.6515 995.505 18.6515 Q1002.54 18.6515 1006.01 22.2973 Q1009.48 25.9431 1009.48 33.3505 Z" fill="#000000" fill-rule="nonzero" fill-opacity="1" /><path clip-path="url(#clip940)" d="M1020.45 6.81709 L1025.77 6.81709 L1025.77 51.84 L1020.45 51.84 L1020.45 6.81709 Z" fill="#000000" fill-rule="nonzero" fill-opacity="1" /><path clip-path="url(#clip940)" d="M1076.47 31.5855 Q1078.35 32.222 1080.11 34.3054 Q1081.91 36.3887 1083.7 40.0345 L1089.63 51.84 L1083.35 51.84 L1077.83 40.7579 Q1075.68 36.4176 1073.66 34.9998 Q1071.66 33.582 1068.19 33.582 L1061.82 33.582 L1061.82 51.84 L1055.98 51.84 L1055.98 8.64 L1069.17 8.64 Q1076.58 8.64 1080.23 11.736 Q1083.87 14.8321 1083.87 21.0821 Q1083.87 25.1619 1081.96 27.8529 Q1080.08 30.5438 1076.47 31.5855 M1061.82 13.4432 L1061.82 28.7788 L1069.17 28.7788 Q1073.4 28.7788 1075.54 26.8401 Q1077.71 24.8726 1077.71 21.0821 Q1077.71 17.2916 1075.54 15.3819 Q1073.4 13.4432 1069.17 13.4432 L1061.82 13.4432 Z" fill="#000000" fill-rule="nonzero" fill-opacity="1" /><path clip-path="url(#clip940)" d="M1121.98 34.3054 L1121.98 36.9095 L1097.5 36.9095 Q1097.85 42.4072 1100.8 45.3007 Q1103.78 48.1653 1109.08 48.1653 Q1112.14 48.1653 1115.01 47.4129 Q1117.9 46.6606 1120.74 45.156 L1120.74 50.1907 Q1117.87 51.406 1114.86 52.0425 Q1111.85 52.6791 1108.76 52.6791 Q1101 52.6791 1096.46 48.1653 Q1091.95 43.6514 1091.95 35.9547 Q1091.95 27.9975 1096.23 23.339 Q1100.54 18.6515 1107.83 18.6515 Q1114.37 18.6515 1118.16 22.876 Q1121.98 27.0716 1121.98 34.3054 M1116.66 32.7429 Q1116.6 28.3737 1114.2 25.7695 Q1111.82 23.1654 1107.89 23.1654 Q1103.43 23.1654 1100.74 25.6827 Q1098.08 28.2001 1097.67 32.7718 L1116.66 32.7429 Z" fill="#000000" fill-rule="nonzero" fill-opacity="1" /><path clip-path="url(#clip940)" d="M1151.38 20.3876 L1151.38 25.4223 Q1149.12 24.2649 1146.69 23.6862 Q1144.26 23.1075 1141.66 23.1075 Q1137.69 23.1075 1135.7 24.3228 Q1133.73 25.5381 1133.73 27.9686 Q1133.73 29.8204 1135.15 30.891 Q1136.56 31.9327 1140.85 32.8876 L1142.67 33.2926 Q1148.34 34.5079 1150.71 36.7359 Q1153.11 38.935 1153.11 42.8991 Q1153.11 47.4129 1149.53 50.046 Q1145.97 52.6791 1139.72 52.6791 Q1137.11 52.6791 1134.28 52.1583 Q1131.47 51.6664 1128.35 50.6537 L1128.35 45.156 Q1131.3 46.6896 1134.16 47.4708 Q1137.03 48.2231 1139.83 48.2231 Q1143.59 48.2231 1145.62 46.95 Q1147.65 45.6479 1147.65 43.3042 Q1147.65 41.134 1146.17 39.9766 Q1144.72 38.8192 1139.78 37.7486 L1137.92 37.3146 Q1132.98 36.273 1130.78 34.1318 Q1128.58 31.9616 1128.58 28.2001 Q1128.58 23.6283 1131.82 21.1399 Q1135.06 18.6515 1141.02 18.6515 Q1143.97 18.6515 1146.58 19.0855 Q1149.18 19.5196 1151.38 20.3876 Z" fill="#000000" fill-rule="nonzero" fill-opacity="1" /><path clip-path="url(#clip940)" d="M1161.59 19.4328 L1166.92 19.4328 L1166.92 51.84 L1161.59 51.84 L1161.59 19.4328 M1161.59 6.81709 L1166.92 6.81709 L1166.92 13.559 L1161.59 13.559 L1161.59 6.81709 Z" fill="#000000" fill-rule="nonzero" fill-opacity="1" /><path clip-path="url(#clip940)" d="M1199.38 24.3517 L1199.38 6.81709 L1204.71 6.81709 L1204.71 51.84 L1199.38 51.84 L1199.38 46.9789 Q1197.7 49.8724 1195.13 51.2902 Q1192.58 52.6791 1188.99 52.6791 Q1183.12 52.6791 1179.42 47.9916 Q1175.74 43.3042 1175.74 35.6653 Q1175.74 28.0265 1179.42 23.339 Q1183.12 18.6515 1188.99 18.6515 Q1192.58 18.6515 1195.13 20.0693 Q1197.7 21.4582 1199.38 24.3517 M1181.24 35.6653 Q1181.24 41.5391 1183.64 44.8956 Q1186.07 48.2231 1190.3 48.2231 Q1194.52 48.2231 1196.95 44.8956 Q1199.38 41.5391 1199.38 35.6653 Q1199.38 29.7915 1196.95 26.464 Q1194.52 23.1075 1190.3 23.1075 Q1186.07 23.1075 1183.64 26.464 Q1181.24 29.7915 1181.24 35.6653 Z" fill="#000000" fill-rule="nonzero" fill-opacity="1" /><path clip-path="url(#clip940)" d="M1243.39 34.3054 L1243.39 36.9095 L1218.91 36.9095 Q1219.26 42.4072 1222.21 45.3007 Q1225.19 48.1653 1230.49 48.1653 Q1233.55 48.1653 1236.42 47.4129 Q1239.31 46.6606 1242.15 45.156 L1242.15 50.1907 Q1239.28 51.406 1236.27 52.0425 Q1233.26 52.6791 1230.17 52.6791 Q1222.41 52.6791 1217.87 48.1653 Q1213.36 43.6514 1213.36 35.9547 Q1213.36 27.9975 1217.64 23.339 Q1221.95 18.6515 1229.24 18.6515 Q1235.78 18.6515 1239.57 22.876 Q1243.39 27.0716 1243.39 34.3054 M1238.07 32.7429 Q1238.01 28.3737 1235.61 25.7695 Q1233.24 23.1654 1229.3 23.1654 Q1224.84 23.1654 1222.15 25.6827 Q1219.49 28.2001 1219.09 32.7718 L1238.07 32.7429 Z" fill="#000000" fill-rule="nonzero" fill-opacity="1" /><path clip-path="url(#clip940)" d="M1279.07 32.2799 L1279.07 51.84 L1273.74 51.84 L1273.74 32.4535 Q1273.74 27.8529 1271.95 25.567 Q1270.16 23.2811 1266.57 23.2811 Q1262.26 23.2811 1259.77 26.03 Q1257.28 28.7788 1257.28 33.5241 L1257.28 51.84 L1251.93 51.84 L1251.93 19.4328 L1257.28 19.4328 L1257.28 24.4675 Q1259.19 21.545 1261.77 20.0983 Q1264.37 18.6515 1267.76 18.6515 Q1273.34 18.6515 1276.2 22.1237 Q1279.07 25.567 1279.07 32.2799 Z" fill="#000000" fill-rule="nonzero" fill-opacity="1" /><path clip-path="url(#clip940)" d="M1313.01 20.677 L1313.01 25.6538 Q1310.75 24.4096 1308.47 23.802 Q1306.21 23.1654 1303.89 23.1654 Q1298.72 23.1654 1295.85 26.464 Q1292.99 29.7336 1292.99 35.6653 Q1292.99 41.597 1295.85 44.8956 Q1298.72 48.1653 1303.89 48.1653 Q1306.21 48.1653 1308.47 47.5576 Q1310.75 46.921 1313.01 45.6768 L1313.01 50.5958 Q1310.78 51.6375 1308.38 52.1583 Q1306.01 52.6791 1303.32 52.6791 Q1296 52.6791 1291.68 48.0784 Q1287.37 43.4778 1287.37 35.6653 Q1287.37 27.7371 1291.71 23.1943 Q1296.08 18.6515 1303.66 18.6515 Q1306.12 18.6515 1308.47 19.1724 Q1310.81 19.6642 1313.01 20.677 Z" fill="#000000" fill-rule="nonzero" fill-opacity="1" /><path clip-path="url(#clip940)" d="M1349.99 34.3054 L1349.99 36.9095 L1325.51 36.9095 Q1325.86 42.4072 1328.81 45.3007 Q1331.79 48.1653 1337.08 48.1653 Q1340.15 48.1653 1343.02 47.4129 Q1345.91 46.6606 1348.74 45.156 L1348.74 50.1907 Q1345.88 51.406 1342.87 52.0425 Q1339.86 52.6791 1336.77 52.6791 Q1329.01 52.6791 1324.47 48.1653 Q1319.95 43.6514 1319.95 35.9547 Q1319.95 27.9975 1324.24 23.339 Q1328.55 18.6515 1335.84 18.6515 Q1342.38 18.6515 1346.17 22.876 Q1349.99 27.0716 1349.99 34.3054 M1344.66 32.7429 Q1344.61 28.3737 1342.2 25.7695 Q1339.83 23.1654 1335.9 23.1654 Q1331.44 23.1654 1328.75 25.6827 Q1326.09 28.2001 1325.68 32.7718 L1344.66 32.7429 Z" fill="#000000" fill-rule="nonzero" fill-opacity="1" /><path clip-path="url(#clip940)" d="M1371.81 8.64 L1408.35 8.64 L1408.35 13.559 L1393.01 13.559 L1393.01 51.84 L1387.14 51.84 L1387.14 13.559 L1371.81 13.559 L1371.81 8.64 Z" fill="#000000" fill-rule="nonzero" fill-opacity="1" /><path clip-path="url(#clip940)" d="M1411.94 19.4328 L1417.26 19.4328 L1417.26 51.84 L1411.94 51.84 L1411.94 19.4328 M1411.94 6.81709 L1417.26 6.81709 L1417.26 13.559 L1411.94 13.559 L1411.94 6.81709 Z" fill="#000000" fill-rule="nonzero" fill-opacity="1" /><path clip-path="url(#clip940)" d="M1453.63 25.6538 Q1455.63 22.0659 1458.41 20.3587 Q1461.19 18.6515 1464.95 18.6515 Q1470.01 18.6515 1472.76 22.2105 Q1475.51 25.7406 1475.51 32.2799 L1475.51 51.84 L1470.16 51.84 L1470.16 32.4535 Q1470.16 27.795 1468.51 25.5381 Q1466.86 23.2811 1463.47 23.2811 Q1459.33 23.2811 1456.93 26.03 Q1454.53 28.7788 1454.53 33.5241 L1454.53 51.84 L1449.18 51.84 L1449.18 32.4535 Q1449.18 27.7661 1447.53 25.5381 Q1445.88 23.2811 1442.44 23.2811 Q1438.36 23.2811 1435.95 26.0589 Q1433.55 28.8077 1433.55 33.5241 L1433.55 51.84 L1428.2 51.84 L1428.2 19.4328 L1433.55 19.4328 L1433.55 24.4675 Q1435.38 21.4872 1437.92 20.0693 Q1440.47 18.6515 1443.97 18.6515 Q1447.5 18.6515 1449.96 20.4455 Q1452.45 22.2395 1453.63 25.6538 Z" fill="#000000" fill-rule="nonzero" fill-opacity="1" /><path clip-path="url(#clip940)" d="M1513.85 34.3054 L1513.85 36.9095 L1489.37 36.9095 Q1489.72 42.4072 1492.67 45.3007 Q1495.65 48.1653 1500.94 48.1653 Q1504.01 48.1653 1506.87 47.4129 Q1509.77 46.6606 1512.6 45.156 L1512.6 50.1907 Q1509.74 51.406 1506.73 52.0425 Q1503.72 52.6791 1500.62 52.6791 Q1492.87 52.6791 1488.33 48.1653 Q1483.81 43.6514 1483.81 35.9547 Q1483.81 27.9975 1488.1 23.339 Q1492.41 18.6515 1499.7 18.6515 Q1506.24 18.6515 1510.03 22.876 Q1513.85 27.0716 1513.85 34.3054 M1508.52 32.7429 Q1508.47 28.3737 1506.06 25.7695 Q1503.69 23.1654 1499.76 23.1654 Q1495.3 23.1654 1492.61 25.6827 Q1489.95 28.2001 1489.54 32.7718 L1508.52 32.7429 Z" fill="#000000" fill-rule="nonzero" fill-opacity="1" /><path clip-path="url(#clip940)" d="M1538.73 33.5241 L1592.2 33.5241 L1592.2 37.6908 L1538.73 37.6908 L1538.73 33.5241 Z" fill="#000000" fill-rule="nonzero" fill-opacity="1" /><path clip-path="url(#clip940)" d="M1619.75 8.64 L1625.59 8.64 L1625.59 26.898 L1644.98 8.64 L1652.5 8.64 L1631.06 28.7788 L1654.04 51.84 L1646.34 51.84 L1625.59 31.0357 L1625.59 51.84 L1619.75 51.84 L1619.75 8.64 Z" fill="#000000" fill-rule="nonzero" fill-opacity="1" /><path clip-path="url(#clip940)" d="M1659.07 24.9304 L1696.17 24.9304 L1696.17 29.7915 L1659.07 29.7915 L1659.07 24.9304 M1659.07 36.7359 L1696.17 36.7359 L1696.17 41.6549 L1659.07 41.6549 L1659.07 36.7359 Z" fill="#000000" fill-rule="nonzero" fill-opacity="1" /><path clip-path="url(#clip940)" d="M1722.01 27.9107 Q1718.07 27.9107 1715.76 30.6017 Q1713.47 33.2926 1713.47 37.9801 Q1713.47 42.6387 1715.76 45.3586 Q1718.07 48.0495 1722.01 48.0495 Q1725.94 48.0495 1728.23 45.3586 Q1730.54 42.6387 1730.54 37.9801 Q1730.54 33.2926 1728.23 30.6017 Q1725.94 27.9107 1722.01 27.9107 M1733.61 9.59486 L1733.61 14.9189 Q1731.41 13.8772 1729.15 13.3275 Q1726.93 12.7777 1724.73 12.7777 Q1718.94 12.7777 1715.87 16.6839 Q1712.83 20.5902 1712.4 28.4894 Q1714.11 25.9721 1716.68 24.6411 Q1719.26 23.2811 1722.35 23.2811 Q1728.86 23.2811 1732.63 27.2452 Q1736.42 31.1804 1736.42 37.9801 Q1736.42 44.6352 1732.48 48.6571 Q1728.55 52.6791 1722.01 52.6791 Q1714.51 52.6791 1710.55 46.95 Q1706.58 41.1919 1706.58 30.2834 Q1706.58 20.0404 1711.44 13.964 Q1716.31 7.85875 1724.49 7.85875 Q1726.69 7.85875 1728.92 8.29278 Q1731.18 8.72681 1733.61 9.59486 Z" fill="#000000" fill-rule="nonzero" fill-opacity="1" /><path clip-path="url(#clip942)" d="M320.51 522.934 L320.51 1423.18 L584.505 1423.18 L584.505 522.934 L320.51 522.934 L320.51 522.934  Z" fill="#4682b4" fill-rule="evenodd" fill-opacity="0.7"/>
<polyline clip-path="url(#clip942)" style="stroke:#000000; stroke-linecap:round; stroke-linejoin:round; stroke-width:4; stroke-opacity:0.7; fill:none" points="320.51,522.934 320.51,1423.18 584.505,1423.18 584.505,522.934 320.51,522.934 "/>
<path clip-path="url(#clip942)" d="M650.504 1261.18 L650.504 1423.18 L914.499 1423.18 L914.499 1261.18 L650.504 1261.18 L650.504 1261.18  Z" fill="#4682b4" fill-rule="evenodd" fill-opacity="0.7"/>
<polyline clip-path="url(#clip942)" style="stroke:#000000; stroke-linecap:round; stroke-linejoin:round; stroke-width:4; stroke-opacity:0.7; fill:none" points="650.504,1261.18 650.504,1423.18 914.499,1423.18 914.499,1261.18 650.504,1261.18 "/>
<path clip-path="url(#clip942)" d="M980.497 1270.42 L980.497 1423.18 L1244.49 1423.18 L1244.49 1270.42 L980.497 1270.42 L980.497 1270.42  Z" fill="#4682b4" fill-rule="evenodd" fill-opacity="0.7"/>
<polyline clip-path="url(#clip942)" style="stroke:#000000; stroke-linecap:round; stroke-linejoin:round; stroke-width:4; stroke-opacity:0.7; fill:none" points="980.497,1270.42 980.497,1423.18 1244.49,1423.18 1244.49,1270.42 980.497,1270.42 "/>
<path clip-path="url(#clip942)" d="M1310.49 1310.92 L1310.49 1423.18 L1574.49 1423.18 L1574.49 1310.92 L1310.49 1310.92 L1310.49 1310.92  Z" fill="#4682b4" fill-rule="evenodd" fill-opacity="0.7"/>
<polyline clip-path="url(#clip942)" style="stroke:#000000; stroke-linecap:round; stroke-linejoin:round; stroke-width:4; stroke-opacity:0.7; fill:none" points="1310.49,1310.92 1310.49,1423.18 1574.49,1423.18 1574.49,1310.92 1310.49,1310.92 "/>
<path clip-path="url(#clip942)" d="M1640.48 1294.71 L1640.48 1423.18 L1904.48 1423.18 L1904.48 1294.71 L1640.48 1294.71 L1640.48 1294.71  Z" fill="#4682b4" fill-rule="evenodd" fill-opacity="0.7"/>
<polyline clip-path="url(#clip942)" style="stroke:#000000; stroke-linecap:round; stroke-linejoin:round; stroke-width:4; stroke-opacity:0.7; fill:none" points="1640.48,1294.71 1640.48,1423.18 1904.48,1423.18 1904.48,1294.71 1640.48,1294.71 "/>
<path clip-path="url(#clip942)" d="M1970.48 106.192 L1970.48 1423.18 L2234.47 1423.18 L2234.47 106.192 L1970.48 106.192 L1970.48 106.192  Z" fill="#4682b4" fill-rule="evenodd" fill-opacity="0.7"/>
<polyline clip-path="url(#clip942)" style="stroke:#000000; stroke-linecap:round; stroke-linejoin:round; stroke-width:4; stroke-opacity:0.7; fill:none" points="1970.48,106.192 1970.48,1423.18 2234.47,1423.18 2234.47,106.192 1970.48,106.192 "/>
<circle clip-path="url(#clip942)" style="fill:#4682b4; stroke:none; fill-opacity:0" cx="452.508" cy="522.934" r="2"/>
<circle clip-path="url(#clip942)" style="fill:#4682b4; stroke:none; fill-opacity:0" cx="782.501" cy="1261.18" r="2"/>
<circle clip-path="url(#clip942)" style="fill:#4682b4; stroke:none; fill-opacity:0" cx="1112.49" cy="1270.42" r="2"/>
<circle clip-path="url(#clip942)" style="fill:#4682b4; stroke:none; fill-opacity:0" cx="1442.49" cy="1310.92" r="2"/>
<circle clip-path="url(#clip942)" style="fill:#4682b4; stroke:none; fill-opacity:0" cx="1772.48" cy="1294.71" r="2"/>
<circle clip-path="url(#clip942)" style="fill:#4682b4; stroke:none; fill-opacity:0" cx="2102.48" cy="106.192" r="2"/>
</svg>
