<?xml version="1.0" encoding="utf-8"?>
<svg xmlns="http://www.w3.org/2000/svg" xmlns:xlink="http://www.w3.org/1999/xlink" width="600" height="400" viewBox="0 0 2400 1600">
<defs>
  <clipPath id="clip910">
    <rect x="0" y="0" width="2400" height="1600"/>
  </clipPath>
</defs>
<path clip-path="url(#clip910)" d="M0 1600 L2400 1600 L2400 8.88178e-14 L0 8.88178e-14  Z" fill="#ffffff" fill-rule="evenodd" fill-opacity="1"/>
<defs>
  <clipPath id="clip911">
    <rect x="170" y="640" width="2203" height="49"/>
  </clipPath>
</defs>
<path clip-path="url(#clip910)" d="M302.458 1423.18 L2352.76 1423.18 L2352.76 106.192 L302.458 106.192  Z" fill="#ffffff" fill-rule="evenodd" fill-opacity="1"/>
<defs>
  <clipPath id="clip912">
    <rect x="302" y="106" width="2051" height="1318"/>
  </clipPath>
</defs>
<polyline clip-path="url(#clip912)" style="stroke:#000000; stroke-linecap:round; stroke-linejoin:round; stroke-width:2; stroke-opacity:0.1; fill:none" points="327.702,1423.18 327.702,106.192 "/>
<polyline clip-path="url(#clip912)" style="stroke:#000000; stroke-linecap:round; stroke-linejoin:round; stroke-width:2; stroke-opacity:0.1; fill:none" points="655.54,1423.18 655.54,106.192 "/>
<polyline clip-path="url(#clip912)" style="stroke:#000000; stroke-linecap:round; stroke-linejoin:round; stroke-width:2; stroke-opacity:0.1; fill:none" points="983.377,1423.18 983.377,106.192 "/>
<polyline clip-path="url(#clip912)" style="stroke:#000000; stroke-linecap:round; stroke-linejoin:round; stroke-width:2; stroke-opacity:0.1; fill:none" points="1311.22,1423.18 1311.22,106.192 "/>
<polyline clip-path="url(#clip912)" style="stroke:#000000; stroke-linecap:round; stroke-linejoin:round; stroke-width:2; stroke-opacity:0.1; fill:none" points="1639.05,1423.18 1639.05,106.192 "/>
<polyline clip-path="url(#clip912)" style="stroke:#000000; stroke-linecap:round; stroke-linejoin:round; stroke-width:2; stroke-opacity:0.1; fill:none" points="1966.89,1423.18 1966.89,106.192 "/>
<polyline clip-path="url(#clip912)" style="stroke:#000000; stroke-linecap:round; stroke-linejoin:round; stroke-width:2; stroke-opacity:0.1; fill:none" points="2294.73,1423.18 2294.73,106.192 "/>
<polyline clip-path="url(#clip912)" style="stroke:#000000; stroke-linecap:round; stroke-linejoin:round; stroke-width:2; stroke-opacity:0.1; fill:none" points="302.458,1303.01 2352.76,1303.01 "/>
<polyline clip-path="url(#clip912)" style="stroke:#000000; stroke-linecap:round; stroke-linejoin:round; stroke-width:2; stroke-opacity:0.1; fill:none" points="302.458,1106.55 2352.76,1106.55 "/>
<polyline clip-path="url(#clip912)" style="stroke:#000000; stroke-linecap:round; stroke-linejoin:round; stroke-width:2; stroke-opacity:0.1; fill:none" points="302.458,910.086 2352.76,910.086 "/>
<polyline clip-path="url(#clip912)" style="stroke:#000000; stroke-linecap:round; stroke-linejoin:round; stroke-width:2; stroke-opacity:0.1; fill:none" points="302.458,713.624 2352.76,713.624 "/>
<polyline clip-path="url(#clip912)" style="stroke:#000000; stroke-linecap:round; stroke-linejoin:round; stroke-width:2; stroke-opacity:0.1; fill:none" points="302.458,517.163 2352.76,517.163 "/>
<polyline clip-path="url(#clip912)" style="stroke:#000000; stroke-linecap:round; stroke-linejoin:round; stroke-width:2; stroke-opacity:0.1; fill:none" points="302.458,320.701 2352.76,320.701 "/>
<polyline clip-path="url(#clip912)" style="stroke:#000000; stroke-linecap:round; stroke-linejoin:round; stroke-width:2; stroke-opacity:0.1; fill:none" points="302.458,124.24 2352.76,124.24 "/>
<polyline clip-path="url(#clip910)" style="stroke:#000000; stroke-linecap:round; stroke-linejoin:round; stroke-width:4; stroke-opacity:1; fill:none" points="302.458,1423.18 2352.76,1423.18 "/>
<polyline clip-path="url(#clip910)" style="stroke:#000000; stroke-linecap:round; stroke-linejoin:round; stroke-width:4; stroke-opacity:1; fill:none" points="327.702,1423.18 327.702,1404.28 "/>
<polyline clip-path="url(#clip910)" style="stroke:#000000; stroke-linecap:round; stroke-linejoin:round; stroke-width:4; stroke-opacity:1; fill:none" points="655.54,1423.18 655.54,1404.28 "/>
<polyline clip-path="url(#clip910)" style="stroke:#000000; stroke-linecap:round; stroke-linejoin:round; stroke-width:4; stroke-opacity:1; fill:none" points="983.377,1423.18 983.377,1404.28 "/>
<polyline clip-path="url(#clip910)" style="stroke:#000000; stroke-linecap:round; stroke-linejoin:round; stroke-width:4; stroke-opacity:1; fill:none" points="1311.22,1423.18 1311.22,1404.28 "/>
<polyline clip-path="url(#clip910)" style="stroke:#000000; stroke-linecap:round; stroke-linejoin:round; stroke-width:4; stroke-opacity:1; fill:none" points="1639.05,1423.18 1639.05,1404.28 "/>
<polyline clip-path="url(#clip910)" style="stroke:#000000; stroke-linecap:round; stroke-linejoin:round; stroke-width:4; stroke-opacity:1; fill:none" points="1966.89,1423.18 1966.89,1404.28 "/>
<polyline clip-path="url(#clip910)" style="stroke:#000000; stroke-linecap:round; stroke-linejoin:round; stroke-width:4; stroke-opacity:1; fill:none" points="2294.73,1423.18 2294.73,1404.28 "/>
<path clip-path="url(#clip910)" d="M327.702 1454.1 Q324.091 1454.1 322.262 1457.66 Q320.457 1461.2 320.457 1468.33 Q320.457 1475.44 322.262 1479.01 Q324.091 1482.55 327.702 1482.55 Q331.336 1482.55 333.142 1479.01 Q334.97 1475.44 334.97 1468.33 Q334.97 1461.2 333.142 1457.66 Q331.336 1454.1 327.702 1454.1 M327.702 1450.39 Q333.512 1450.39 336.568 1455 Q339.646 1459.58 339.646 1468.33 Q339.646 1477.06 336.568 1481.67 Q333.512 1486.25 327.702 1486.25 Q321.892 1486.25 318.813 1481.67 Q315.758 1477.06 315.758 1468.33 Q315.758 1459.58 318.813 1455 Q321.892 1450.39 327.702 1450.39 Z" fill="#000000" fill-rule="nonzero" fill-opacity="1" /><path clip-path="url(#clip910)" d="M630.227 1481.64 L637.866 1481.64 L637.866 1455.28 L629.556 1456.95 L629.556 1452.69 L637.82 1451.02 L642.496 1451.02 L642.496 1481.64 L650.135 1481.64 L650.135 1485.58 L630.227 1485.58 L630.227 1481.64 Z" fill="#000000" fill-rule="nonzero" fill-opacity="1" /><path clip-path="url(#clip910)" d="M669.579 1454.1 Q665.968 1454.1 664.139 1457.66 Q662.334 1461.2 662.334 1468.33 Q662.334 1475.44 664.139 1479.01 Q665.968 1482.55 669.579 1482.55 Q673.213 1482.55 675.019 1479.01 Q676.847 1475.44 676.847 1468.33 Q676.847 1461.2 675.019 1457.66 Q673.213 1454.1 669.579 1454.1 M669.579 1450.39 Q675.389 1450.39 678.445 1455 Q681.523 1459.58 681.523 1468.33 Q681.523 1477.06 678.445 1481.67 Q675.389 1486.25 669.579 1486.25 Q663.769 1486.25 660.69 1481.67 Q657.635 1477.06 657.635 1468.33 Q657.635 1459.58 660.69 1455 Q663.769 1450.39 669.579 1450.39 Z" fill="#000000" fill-rule="nonzero" fill-opacity="1" /><path clip-path="url(#clip910)" d="M962.151 1481.64 L978.47 1481.64 L978.47 1485.58 L956.526 1485.58 L956.526 1481.64 Q959.188 1478.89 963.771 1474.26 Q968.378 1469.61 969.558 1468.27 Q971.803 1465.74 972.683 1464.01 Q973.586 1462.25 973.586 1460.56 Q973.586 1457.8 971.641 1456.07 Q969.72 1454.33 966.618 1454.33 Q964.419 1454.33 961.966 1455.09 Q959.535 1455.86 956.757 1457.41 L956.757 1452.69 Q959.581 1451.55 962.035 1450.97 Q964.489 1450.39 966.526 1450.39 Q971.896 1450.39 975.09 1453.08 Q978.285 1455.77 978.285 1460.26 Q978.285 1462.39 977.475 1464.31 Q976.688 1466.2 974.581 1468.8 Q974.003 1469.47 970.901 1472.69 Q967.799 1475.88 962.151 1481.64 Z" fill="#000000" fill-rule="nonzero" fill-opacity="1" /><path clip-path="url(#clip910)" d="M998.285 1454.1 Q994.674 1454.1 992.845 1457.66 Q991.039 1461.2 991.039 1468.33 Q991.039 1475.44 992.845 1479.01 Q994.674 1482.55 998.285 1482.55 Q1001.92 1482.55 1003.72 1479.01 Q1005.55 1475.44 1005.55 1468.33 Q1005.55 1461.2 1003.72 1457.66 Q1001.92 1454.1 998.285 1454.1 M998.285 1450.39 Q1004.09 1450.39 1007.15 1455 Q1010.23 1459.58 1010.23 1468.33 Q1010.23 1477.06 1007.15 1481.67 Q1004.09 1486.25 998.285 1486.25 Q992.475 1486.25 989.396 1481.67 Q986.34 1477.06 986.34 1468.33 Q986.34 1459.58 989.396 1455 Q992.475 1450.39 998.285 1450.39 Z" fill="#000000" fill-rule="nonzero" fill-opacity="1" /><path clip-path="url(#clip910)" d="M1300.06 1466.95 Q1303.41 1467.66 1305.29 1469.93 Q1307.19 1472.2 1307.19 1475.53 Q1307.19 1480.65 1303.67 1483.45 Q1300.15 1486.25 1293.67 1486.25 Q1291.49 1486.25 1289.18 1485.81 Q1286.89 1485.39 1284.43 1484.54 L1284.43 1480.02 Q1286.38 1481.16 1288.69 1481.74 Q1291.01 1482.32 1293.53 1482.32 Q1297.93 1482.32 1300.22 1480.58 Q1302.53 1478.84 1302.53 1475.53 Q1302.53 1472.48 1300.38 1470.77 Q1298.25 1469.03 1294.43 1469.03 L1290.41 1469.03 L1290.41 1465.19 L1294.62 1465.19 Q1298.07 1465.19 1299.9 1463.82 Q1301.72 1462.43 1301.72 1459.84 Q1301.72 1457.18 1299.83 1455.77 Q1297.95 1454.33 1294.43 1454.33 Q1292.51 1454.33 1290.31 1454.75 Q1288.11 1455.16 1285.47 1456.04 L1285.47 1451.88 Q1288.14 1451.14 1290.45 1450.77 Q1292.79 1450.39 1294.85 1450.39 Q1300.17 1450.39 1303.28 1452.83 Q1306.38 1455.23 1306.38 1459.35 Q1306.38 1462.22 1304.73 1464.21 Q1303.09 1466.18 1300.06 1466.95 Z" fill="#000000" fill-rule="nonzero" fill-opacity="1" /><path clip-path="url(#clip910)" d="M1326.05 1454.1 Q1322.44 1454.1 1320.61 1457.66 Q1318.81 1461.2 1318.81 1468.33 Q1318.81 1475.44 1320.61 1479.01 Q1322.44 1482.55 1326.05 1482.55 Q1329.69 1482.55 1331.49 1479.01 Q1333.32 1475.44 1333.32 1468.33 Q1333.32 1461.2 1331.49 1457.66 Q1329.69 1454.1 1326.05 1454.1 M1326.05 1450.39 Q1331.86 1450.39 1334.92 1455 Q1338 1459.58 1338 1468.33 Q1338 1477.06 1334.92 1481.67 Q1331.86 1486.25 1326.05 1486.25 Q1320.24 1486.25 1317.16 1481.67 Q1314.11 1477.06 1314.11 1468.33 Q1314.11 1459.58 1317.16 1455 Q1320.24 1450.39 1326.05 1450.39 Z" fill="#000000" fill-rule="nonzero" fill-opacity="1" /><path clip-path="url(#clip910)" d="M1627.22 1455.09 L1615.42 1473.54 L1627.22 1473.54 L1627.22 1455.09 M1626 1451.02 L1631.88 1451.02 L1631.88 1473.54 L1636.81 1473.54 L1636.81 1477.43 L1631.88 1477.43 L1631.88 1485.58 L1627.22 1485.58 L1627.22 1477.43 L1611.62 1477.43 L1611.62 1472.92 L1626 1451.02 Z" fill="#000000" fill-rule="nonzero" fill-opacity="1" /><path clip-path="url(#clip910)" d="M1654.54 1454.1 Q1650.93 1454.1 1649.1 1457.66 Q1647.29 1461.2 1647.29 1468.33 Q1647.29 1475.44 1649.1 1479.01 Q1650.93 1482.55 1654.54 1482.55 Q1658.17 1482.55 1659.98 1479.01 Q1661.81 1475.44 1661.81 1468.33 Q1661.81 1461.2 1659.98 1457.66 Q1658.17 1454.1 1654.54 1454.1 M1654.54 1450.39 Q1660.35 1450.39 1663.4 1455 Q1666.48 1459.58 1666.48 1468.33 Q1666.48 1477.06 1663.4 1481.67 Q1660.35 1486.25 1654.54 1486.25 Q1648.73 1486.25 1645.65 1481.67 Q1642.59 1477.06 1642.59 1468.33 Q1642.59 1459.58 1645.65 1455 Q1648.73 1450.39 1654.54 1450.39 Z" fill="#000000" fill-rule="nonzero" fill-opacity="1" /><path clip-path="url(#clip910)" d="M1941.59 1451.02 L1959.95 1451.02 L1959.95 1454.96 L1945.87 1454.96 L1945.87 1463.43 Q1946.89 1463.08 1947.91 1462.92 Q1948.93 1462.73 1949.95 1462.73 Q1955.73 1462.73 1959.11 1465.9 Q1962.49 1469.08 1962.49 1474.49 Q1962.49 1480.07 1959.02 1483.17 Q1955.55 1486.25 1949.23 1486.25 Q1947.05 1486.25 1944.78 1485.88 Q1942.54 1485.51 1940.13 1484.77 L1940.13 1480.07 Q1942.22 1481.2 1944.44 1481.76 Q1946.66 1482.32 1949.14 1482.32 Q1953.14 1482.32 1955.48 1480.21 Q1957.82 1478.1 1957.82 1474.49 Q1957.82 1470.88 1955.48 1468.77 Q1953.14 1466.67 1949.14 1466.67 Q1947.26 1466.67 1945.39 1467.08 Q1943.53 1467.5 1941.59 1468.38 L1941.59 1451.02 Z" fill="#000000" fill-rule="nonzero" fill-opacity="1" /><path clip-path="url(#clip910)" d="M1981.71 1454.1 Q1978.09 1454.1 1976.27 1457.66 Q1974.46 1461.2 1974.46 1468.33 Q1974.46 1475.44 1976.27 1479.01 Q1978.09 1482.55 1981.71 1482.55 Q1985.34 1482.55 1987.15 1479.01 Q1988.97 1475.44 1988.97 1468.33 Q1988.97 1461.2 1987.15 1457.66 Q1985.34 1454.1 1981.71 1454.1 M1981.71 1450.39 Q1987.52 1450.39 1990.57 1455 Q1993.65 1459.58 1993.65 1468.33 Q1993.65 1477.06 1990.57 1481.67 Q1987.52 1486.25 1981.71 1486.25 Q1975.9 1486.25 1972.82 1481.67 Q1969.76 1477.06 1969.76 1468.33 Q1969.76 1459.58 1972.82 1455 Q1975.9 1450.39 1981.71 1450.39 Z" fill="#000000" fill-rule="nonzero" fill-opacity="1" /><path clip-path="url(#clip910)" d="M2280.13 1466.44 Q2276.99 1466.44 2275.13 1468.59 Q2273.31 1470.74 2273.31 1474.49 Q2273.31 1478.22 2275.13 1480.39 Q2276.99 1482.55 2280.13 1482.55 Q2283.28 1482.55 2285.11 1480.39 Q2286.96 1478.22 2286.96 1474.49 Q2286.96 1470.74 2285.11 1468.59 Q2283.28 1466.44 2280.13 1466.44 M2289.42 1451.78 L2289.42 1456.04 Q2287.66 1455.21 2285.85 1454.77 Q2284.07 1454.33 2282.31 1454.33 Q2277.68 1454.33 2275.23 1457.45 Q2272.8 1460.58 2272.45 1466.9 Q2273.81 1464.89 2275.87 1463.82 Q2277.93 1462.73 2280.41 1462.73 Q2285.62 1462.73 2288.63 1465.9 Q2291.66 1469.05 2291.66 1474.49 Q2291.66 1479.82 2288.51 1483.03 Q2285.37 1486.25 2280.13 1486.25 Q2274.14 1486.25 2270.97 1481.67 Q2267.8 1477.06 2267.8 1468.33 Q2267.8 1460.14 2271.68 1455.28 Q2275.57 1450.39 2282.12 1450.39 Q2283.88 1450.39 2285.67 1450.74 Q2287.47 1451.09 2289.42 1451.78 Z" fill="#000000" fill-rule="nonzero" fill-opacity="1" /><path clip-path="url(#clip910)" d="M2309.72 1454.1 Q2306.11 1454.1 2304.28 1457.66 Q2302.47 1461.2 2302.47 1468.33 Q2302.47 1475.44 2304.28 1479.01 Q2306.11 1482.55 2309.72 1482.55 Q2313.35 1482.55 2315.16 1479.01 Q2316.99 1475.44 2316.99 1468.33 Q2316.99 1461.2 2315.16 1457.66 Q2313.35 1454.1 2309.72 1454.1 M2309.72 1450.39 Q2315.53 1450.39 2318.58 1455 Q2321.66 1459.58 2321.66 1468.33 Q2321.66 1477.06 2318.58 1481.67 Q2315.53 1486.25 2309.72 1486.25 Q2303.91 1486.25 2300.83 1481.67 Q2297.77 1477.06 2297.77 1468.33 Q2297.77 1459.58 2300.83 1455 Q2303.91 1450.39 2309.72 1450.39 Z" fill="#000000" fill-rule="nonzero" fill-opacity="1" /><path clip-path="url(#clip910)" d="M1195.33 1520.52 L1201.76 1520.52 L1201.76 1568.04 L1195.33 1568.04 L1195.33 1520.52 Z" fill="#000000" fill-rule="nonzero" fill-opacity="1" /><path clip-path="url(#clip910)" d="M1220.09 1522.27 L1220.09 1532.4 L1232.15 1532.4 L1232.15 1536.95 L1220.09 1536.95 L1220.09 1556.3 Q1220.09 1560.66 1221.27 1561.9 Q1222.48 1563.14 1226.14 1563.14 L1232.15 1563.14 L1232.15 1568.04 L1226.14 1568.04 Q1219.36 1568.04 1216.78 1565.53 Q1214.2 1562.98 1214.2 1556.3 L1214.2 1536.95 L1209.91 1536.95 L1209.91 1532.4 L1214.2 1532.4 L1214.2 1522.27 L1220.09 1522.27 Z" fill="#000000" fill-rule="nonzero" fill-opacity="1" /><path clip-path="url(#clip910)" d="M1270.35 1548.76 L1270.35 1551.62 L1243.42 1551.62 Q1243.8 1557.67 1247.05 1560.85 Q1250.33 1564 1256.15 1564 Q1259.53 1564 1262.68 1563.17 Q1265.86 1562.35 1268.98 1560.69 L1268.98 1566.23 Q1265.83 1567.57 1262.52 1568.27 Q1259.21 1568.97 1255.8 1568.97 Q1247.27 1568.97 1242.27 1564 Q1237.31 1559.04 1237.31 1550.57 Q1237.31 1541.82 1242.02 1536.69 Q1246.76 1531.54 1254.78 1531.54 Q1261.98 1531.54 1266.15 1536.18 Q1270.35 1540.8 1270.35 1548.76 M1264.49 1547.04 Q1264.43 1542.23 1261.79 1539.37 Q1259.18 1536.5 1254.85 1536.5 Q1249.95 1536.5 1246.99 1539.27 Q1244.06 1542.04 1243.61 1547.07 L1264.49 1547.04 Z" fill="#000000" fill-rule="nonzero" fill-opacity="1" /><path clip-path="url(#clip910)" d="M1300.62 1537.87 Q1299.63 1537.3 1298.45 1537.04 Q1297.31 1536.76 1295.91 1536.76 Q1290.94 1536.76 1288.27 1540 Q1285.63 1543.22 1285.63 1549.27 L1285.63 1568.04 L1279.74 1568.04 L1279.74 1532.4 L1285.63 1532.4 L1285.63 1537.93 Q1287.47 1534.69 1290.43 1533.13 Q1293.39 1531.54 1297.62 1531.54 Q1298.23 1531.54 1298.96 1531.63 Q1299.69 1531.7 1300.58 1531.85 L1300.62 1537.87 Z" fill="#000000" fill-rule="nonzero" fill-opacity="1" /><path clip-path="url(#clip910)" d="M1322.96 1550.12 Q1315.86 1550.12 1313.13 1551.75 Q1310.39 1553.37 1310.39 1557.29 Q1310.39 1560.4 1312.42 1562.25 Q1314.49 1564.07 1318.03 1564.07 Q1322.9 1564.07 1325.82 1560.63 Q1328.78 1557.16 1328.78 1551.43 L1328.78 1550.12 L1322.96 1550.12 M1334.64 1547.71 L1334.64 1568.04 L1328.78 1568.04 L1328.78 1562.63 Q1326.78 1565.88 1323.79 1567.44 Q1320.8 1568.97 1316.47 1568.97 Q1310.99 1568.97 1307.75 1565.91 Q1304.53 1562.82 1304.53 1557.67 Q1304.53 1551.65 1308.54 1548.6 Q1312.58 1545.54 1320.57 1545.54 L1328.78 1545.54 L1328.78 1544.97 Q1328.78 1540.93 1326.11 1538.73 Q1323.47 1536.5 1318.66 1536.5 Q1315.61 1536.5 1312.71 1537.23 Q1309.82 1537.97 1307.14 1539.43 L1307.14 1534.02 Q1310.36 1532.78 1313.38 1532.17 Q1316.4 1531.54 1319.27 1531.54 Q1327 1531.54 1330.82 1535.55 Q1334.64 1539.56 1334.64 1547.71 Z" fill="#000000" fill-rule="nonzero" fill-opacity="1" /><path clip-path="url(#clip910)" d="M1352.5 1522.27 L1352.5 1532.4 L1364.56 1532.4 L1364.56 1536.95 L1352.5 1536.95 L1352.5 1556.3 Q1352.5 1560.66 1353.67 1561.9 Q1354.88 1563.14 1358.54 1563.14 L1364.56 1563.14 L1364.56 1568.04 L1358.54 1568.04 Q1351.77 1568.04 1349.19 1565.53 Q1346.61 1562.98 1346.61 1556.3 L1346.61 1536.95 L1342.31 1536.95 L1342.31 1532.4 L1346.61 1532.4 L1346.61 1522.27 L1352.5 1522.27 Z" fill="#000000" fill-rule="nonzero" fill-opacity="1" /><path clip-path="url(#clip910)" d="M1372.26 1532.4 L1378.12 1532.4 L1378.12 1568.04 L1372.26 1568.04 L1372.26 1532.4 M1372.26 1518.52 L1378.12 1518.52 L1378.12 1525.93 L1372.26 1525.93 L1372.26 1518.52 Z" fill="#000000" fill-rule="nonzero" fill-opacity="1" /><path clip-path="url(#clip910)" d="M1404.19 1536.5 Q1399.48 1536.5 1396.74 1540.19 Q1394 1543.85 1394 1550.25 Q1394 1556.65 1396.71 1560.34 Q1399.44 1564 1404.19 1564 Q1408.87 1564 1411.6 1560.31 Q1414.34 1556.62 1414.34 1550.25 Q1414.34 1543.92 1411.6 1540.23 Q1408.87 1536.5 1404.19 1536.5 M1404.19 1531.54 Q1411.83 1531.54 1416.19 1536.5 Q1420.55 1541.47 1420.55 1550.25 Q1420.55 1559 1416.19 1564 Q1411.83 1568.97 1404.19 1568.97 Q1396.52 1568.97 1392.16 1564 Q1387.83 1559 1387.83 1550.25 Q1387.83 1541.47 1392.16 1536.5 Q1396.52 1531.54 1404.19 1531.54 Z" fill="#000000" fill-rule="nonzero" fill-opacity="1" /><path clip-path="url(#clip910)" d="M1459.89 1546.53 L1459.89 1568.04 L1454.03 1568.04 L1454.03 1546.72 Q1454.03 1541.66 1452.06 1539.14 Q1450.08 1536.63 1446.14 1536.63 Q1441.39 1536.63 1438.66 1539.65 Q1435.92 1542.68 1435.92 1547.9 L1435.92 1568.04 L1430.03 1568.04 L1430.03 1532.4 L1435.92 1532.4 L1435.92 1537.93 Q1438.02 1534.72 1440.85 1533.13 Q1443.72 1531.54 1447.44 1531.54 Q1453.58 1531.54 1456.74 1535.36 Q1459.89 1539.14 1459.89 1546.53 Z" fill="#000000" fill-rule="nonzero" fill-opacity="1" /><polyline clip-path="url(#clip910)" style="stroke:#000000; stroke-linecap:round; stroke-linejoin:round; stroke-width:4; stroke-opacity:1; fill:none" points="302.458,1423.18 302.458,106.192 "/>
<polyline clip-path="url(#clip910)" style="stroke:#000000; stroke-linecap:round; stroke-linejoin:round; stroke-width:4; stroke-opacity:1; fill:none" points="302.458,1303.01 321.356,1303.01 "/>
<polyline clip-path="url(#clip910)" style="stroke:#000000; stroke-linecap:round; stroke-linejoin:round; stroke-width:4; stroke-opacity:1; fill:none" points="302.458,1106.55 321.356,1106.55 "/>
<polyline clip-path="url(#clip910)" style="stroke:#000000; stroke-linecap:round; stroke-linejoin:round; stroke-width:4; stroke-opacity:1; fill:none" points="302.458,910.086 321.356,910.086 "/>
<polyline clip-path="url(#clip910)" style="stroke:#000000; stroke-linecap:round; stroke-linejoin:round; stroke-width:4; stroke-opacity:1; fill:none" points="302.458,713.624 321.356,713.624 "/>
<polyline clip-path="url(#clip910)" style="stroke:#000000; stroke-linecap:round; stroke-linejoin:round; stroke-width:4; stroke-opacity:1; fill:none" points="302.458,517.163 321.356,517.163 "/>
<polyline clip-path="url(#clip910)" style="stroke:#000000; stroke-linecap:round; stroke-linejoin:round; stroke-width:4; stroke-opacity:1; fill:none" points="302.458,320.701 321.356,320.701 "/>
<polyline clip-path="url(#clip910)" style="stroke:#000000; stroke-linecap:round; stroke-linejoin:round; stroke-width:4; stroke-opacity:1; fill:none" points="302.458,124.24 321.356,124.24 "/>
<path clip-path="url(#clip910)" d="M114.26 1303.46 L143.936 1303.46 L143.936 1307.4 L114.26 1307.4 L114.26 1303.46 Z" fill="#000000" fill-rule="nonzero" fill-opacity="1" /><path clip-path="url(#clip910)" d="M154.075 1285.73 L172.431 1285.73 L172.431 1289.66 L158.357 1289.66 L158.357 1298.14 Q159.376 1297.79 160.394 1297.63 Q161.413 1297.44 162.431 1297.44 Q168.218 1297.44 171.598 1300.61 Q174.977 1303.78 174.977 1309.2 Q174.977 1314.78 171.505 1317.88 Q168.033 1320.96 161.714 1320.96 Q159.538 1320.96 157.269 1320.59 Q155.024 1320.22 152.616 1319.48 L152.616 1314.78 Q154.7 1315.91 156.922 1316.47 Q159.144 1317.02 161.621 1317.02 Q165.626 1317.02 167.964 1314.92 Q170.302 1312.81 170.302 1309.2 Q170.302 1305.59 167.964 1303.48 Q165.626 1301.38 161.621 1301.38 Q159.746 1301.38 157.871 1301.79 Q156.019 1302.21 154.075 1303.09 L154.075 1285.73 Z" fill="#000000" fill-rule="nonzero" fill-opacity="1" /><path clip-path="url(#clip910)" d="M184.237 1285.73 L202.593 1285.73 L202.593 1289.66 L188.519 1289.66 L188.519 1298.14 Q189.538 1297.79 190.556 1297.63 Q191.575 1297.44 192.593 1297.44 Q198.38 1297.44 201.76 1300.61 Q205.139 1303.78 205.139 1309.2 Q205.139 1314.78 201.667 1317.88 Q198.195 1320.96 191.875 1320.96 Q189.7 1320.96 187.431 1320.59 Q185.186 1320.22 182.778 1319.48 L182.778 1314.78 Q184.862 1315.91 187.084 1316.47 Q189.306 1317.02 191.783 1317.02 Q195.787 1317.02 198.125 1314.92 Q200.463 1312.81 200.463 1309.2 Q200.463 1305.59 198.125 1303.48 Q195.787 1301.38 191.783 1301.38 Q189.908 1301.38 188.033 1301.79 Q186.181 1302.21 184.237 1303.09 L184.237 1285.73 Z" fill="#000000" fill-rule="nonzero" fill-opacity="1" /><path clip-path="url(#clip910)" d="M224.352 1288.81 Q220.741 1288.81 218.912 1292.37 Q217.107 1295.91 217.107 1303.04 Q217.107 1310.15 218.912 1313.71 Q220.741 1317.26 224.352 1317.26 Q227.986 1317.26 229.792 1313.71 Q231.621 1310.15 231.621 1303.04 Q231.621 1295.91 229.792 1292.37 Q227.986 1288.81 224.352 1288.81 M224.352 1285.1 Q230.162 1285.1 233.218 1289.71 Q236.297 1294.29 236.297 1303.04 Q236.297 1311.77 233.218 1316.38 Q230.162 1320.96 224.352 1320.96 Q218.542 1320.96 215.463 1316.38 Q212.408 1311.77 212.408 1303.04 Q212.408 1294.29 215.463 1289.71 Q218.542 1285.1 224.352 1285.1 Z" fill="#000000" fill-rule="nonzero" fill-opacity="1" /><path clip-path="url(#clip910)" d="M254.514 1288.81 Q250.903 1288.81 249.074 1292.37 Q247.269 1295.91 247.269 1303.04 Q247.269 1310.15 249.074 1313.71 Q250.903 1317.26 254.514 1317.26 Q258.148 1317.26 259.954 1313.71 Q261.783 1310.15 261.783 1303.04 Q261.783 1295.91 259.954 1292.37 Q258.148 1288.81 254.514 1288.81 M254.514 1285.1 Q260.324 1285.1 263.38 1289.71 Q266.458 1294.29 266.458 1303.04 Q266.458 1311.77 263.38 1316.38 Q260.324 1320.96 254.514 1320.96 Q248.704 1320.96 245.625 1316.38 Q242.57 1311.77 242.57 1303.04 Q242.57 1294.29 245.625 1289.71 Q248.704 1285.1 254.514 1285.1 Z" fill="#000000" fill-rule="nonzero" fill-opacity="1" /><path clip-path="url(#clip910)" d="M114.26 1107 L143.936 1107 L143.936 1110.93 L114.26 1110.93 L114.26 1107 Z" fill="#000000" fill-rule="nonzero" fill-opacity="1" /><path clip-path="url(#clip910)" d="M154.075 1089.27 L172.431 1089.27 L172.431 1093.2 L158.357 1093.2 L158.357 1101.67 Q159.376 1101.33 160.394 1101.17 Q161.413 1100.98 162.431 1100.98 Q168.218 1100.98 171.598 1104.15 Q174.977 1107.32 174.977 1112.74 Q174.977 1118.32 171.505 1121.42 Q168.033 1124.5 161.714 1124.5 Q159.538 1124.5 157.269 1124.13 Q155.024 1123.76 152.616 1123.02 L152.616 1118.32 Q154.7 1119.45 156.922 1120.01 Q159.144 1120.56 161.621 1120.56 Q165.626 1120.56 167.964 1118.46 Q170.302 1116.35 170.302 1112.74 Q170.302 1109.13 167.964 1107.02 Q165.626 1104.92 161.621 1104.92 Q159.746 1104.92 157.871 1105.33 Q156.019 1105.75 154.075 1106.63 L154.075 1089.27 Z" fill="#000000" fill-rule="nonzero" fill-opacity="1" /><path clip-path="url(#clip910)" d="M197.037 1093.34 L185.232 1111.79 L197.037 1111.79 L197.037 1093.34 M195.811 1089.27 L201.69 1089.27 L201.69 1111.79 L206.621 1111.79 L206.621 1115.68 L201.69 1115.68 L201.69 1123.83 L197.037 1123.83 L197.037 1115.68 L181.436 1115.68 L181.436 1111.17 L195.811 1089.27 Z" fill="#000000" fill-rule="nonzero" fill-opacity="1" /><path clip-path="url(#clip910)" d="M224.352 1092.35 Q220.741 1092.35 218.912 1095.91 Q217.107 1099.45 217.107 1106.58 Q217.107 1113.69 218.912 1117.25 Q220.741 1120.79 224.352 1120.79 Q227.986 1120.79 229.792 1117.25 Q231.621 1113.69 231.621 1106.58 Q231.621 1099.45 229.792 1095.91 Q227.986 1092.35 224.352 1092.35 M224.352 1088.64 Q230.162 1088.64 233.218 1093.25 Q236.297 1097.83 236.297 1106.58 Q236.297 1115.31 233.218 1119.92 Q230.162 1124.5 224.352 1124.5 Q218.542 1124.5 215.463 1119.92 Q212.408 1115.31 212.408 1106.58 Q212.408 1097.83 215.463 1093.25 Q218.542 1088.64 224.352 1088.64 Z" fill="#000000" fill-rule="nonzero" fill-opacity="1" /><path clip-path="url(#clip910)" d="M254.514 1092.35 Q250.903 1092.35 249.074 1095.91 Q247.269 1099.45 247.269 1106.58 Q247.269 1113.69 249.074 1117.25 Q250.903 1120.79 254.514 1120.79 Q258.148 1120.79 259.954 1117.25 Q261.783 1113.69 261.783 1106.58 Q261.783 1099.45 259.954 1095.91 Q258.148 1092.35 254.514 1092.35 M254.514 1088.64 Q260.324 1088.64 263.38 1093.25 Q266.458 1097.83 266.458 1106.58 Q266.458 1115.31 263.38 1119.92 Q260.324 1124.5 254.514 1124.5 Q248.704 1124.5 245.625 1119.92 Q242.57 1115.31 242.57 1106.58 Q242.57 1097.83 245.625 1093.25 Q248.704 1088.64 254.514 1088.64 Z" fill="#000000" fill-rule="nonzero" fill-opacity="1" /><path clip-path="url(#clip910)" d="M114.26 910.537 L143.936 910.537 L143.936 914.472 L114.26 914.472 L114.26 910.537 Z" fill="#000000" fill-rule="nonzero" fill-opacity="1" /><path clip-path="url(#clip910)" d="M154.075 892.806 L172.431 892.806 L172.431 896.741 L158.357 896.741 L158.357 905.213 Q159.376 904.866 160.394 904.704 Q161.413 904.519 162.431 904.519 Q168.218 904.519 171.598 907.69 Q174.977 910.861 174.977 916.278 Q174.977 921.856 171.505 924.958 Q168.033 928.037 161.714 928.037 Q159.538 928.037 157.269 927.667 Q155.024 927.296 152.616 926.556 L152.616 921.856 Q154.7 922.991 156.922 923.546 Q159.144 924.102 161.621 924.102 Q165.626 924.102 167.964 921.995 Q170.302 919.889 170.302 916.278 Q170.302 912.667 167.964 910.56 Q165.626 908.454 161.621 908.454 Q159.746 908.454 157.871 908.87 Q156.019 909.287 154.075 910.167 L154.075 892.806 Z" fill="#000000" fill-rule="nonzero" fill-opacity="1" /><path clip-path="url(#clip910)" d="M198.357 908.732 Q201.713 909.449 203.588 911.718 Q205.487 913.986 205.487 917.319 Q205.487 922.435 201.968 925.236 Q198.45 928.037 191.968 928.037 Q189.792 928.037 187.477 927.597 Q185.186 927.181 182.732 926.324 L182.732 921.81 Q184.676 922.944 186.991 923.523 Q189.306 924.102 191.829 924.102 Q196.227 924.102 198.519 922.366 Q200.834 920.63 200.834 917.319 Q200.834 914.264 198.681 912.551 Q196.551 910.815 192.732 910.815 L188.704 910.815 L188.704 906.972 L192.917 906.972 Q196.366 906.972 198.195 905.607 Q200.024 904.218 200.024 901.625 Q200.024 898.963 198.125 897.551 Q196.25 896.116 192.732 896.116 Q190.811 896.116 188.612 896.533 Q186.413 896.949 183.774 897.829 L183.774 893.662 Q186.436 892.921 188.75 892.551 Q191.088 892.181 193.149 892.181 Q198.473 892.181 201.575 894.611 Q204.676 897.019 204.676 901.139 Q204.676 904.009 203.033 906 Q201.389 907.968 198.357 908.732 Z" fill="#000000" fill-rule="nonzero" fill-opacity="1" /><path clip-path="url(#clip910)" d="M224.352 895.884 Q220.741 895.884 218.912 899.449 Q217.107 902.991 217.107 910.12 Q217.107 917.227 218.912 920.792 Q220.741 924.333 224.352 924.333 Q227.986 924.333 229.792 920.792 Q231.621 917.227 231.621 910.12 Q231.621 902.991 229.792 899.449 Q227.986 895.884 224.352 895.884 M224.352 892.181 Q230.162 892.181 233.218 896.787 Q236.297 901.37 236.297 910.12 Q236.297 918.847 233.218 923.454 Q230.162 928.037 224.352 928.037 Q218.542 928.037 215.463 923.454 Q212.408 918.847 212.408 910.12 Q212.408 901.37 215.463 896.787 Q218.542 892.181 224.352 892.181 Z" fill="#000000" fill-rule="nonzero" fill-opacity="1" /><path clip-path="url(#clip910)" d="M254.514 895.884 Q250.903 895.884 249.074 899.449 Q247.269 902.991 247.269 910.12 Q247.269 917.227 249.074 920.792 Q250.903 924.333 254.514 924.333 Q258.148 924.333 259.954 920.792 Q261.783 917.227 261.783 910.12 Q261.783 902.991 259.954 899.449 Q258.148 895.884 254.514 895.884 M254.514 892.181 Q260.324 892.181 263.38 896.787 Q266.458 901.37 266.458 910.12 Q266.458 918.847 263.38 923.454 Q260.324 928.037 254.514 928.037 Q248.704 928.037 245.625 923.454 Q242.57 918.847 242.57 910.12 Q242.57 901.37 245.625 896.787 Q248.704 892.181 254.514 892.181 Z" fill="#000000" fill-rule="nonzero" fill-opacity="1" /><path clip-path="url(#clip910)" d="M114.26 714.076 L143.936 714.076 L143.936 718.011 L114.26 718.011 L114.26 714.076 Z" fill="#000000" fill-rule="nonzero" fill-opacity="1" /><path clip-path="url(#clip910)" d="M154.075 696.344 L172.431 696.344 L172.431 700.279 L158.357 700.279 L158.357 708.752 Q159.376 708.404 160.394 708.242 Q161.413 708.057 162.431 708.057 Q168.218 708.057 171.598 711.228 Q174.977 714.4 174.977 719.816 Q174.977 725.395 171.505 728.497 Q168.033 731.576 161.714 731.576 Q159.538 731.576 157.269 731.205 Q155.024 730.835 152.616 730.094 L152.616 725.395 Q154.7 726.529 156.922 727.085 Q159.144 727.64 161.621 727.64 Q165.626 727.64 167.964 725.534 Q170.302 723.427 170.302 719.816 Q170.302 716.205 167.964 714.099 Q165.626 711.992 161.621 711.992 Q159.746 711.992 157.871 712.409 Q156.019 712.826 154.075 713.705 L154.075 696.344 Z" fill="#000000" fill-rule="nonzero" fill-opacity="1" /><path clip-path="url(#clip910)" d="M188.218 726.969 L204.537 726.969 L204.537 730.904 L182.593 730.904 L182.593 726.969 Q185.255 724.215 189.838 719.585 Q194.445 714.932 195.625 713.59 Q197.871 711.066 198.75 709.33 Q199.653 707.571 199.653 705.881 Q199.653 703.127 197.709 701.391 Q195.787 699.654 192.686 699.654 Q190.487 699.654 188.033 700.418 Q185.602 701.182 182.825 702.733 L182.825 698.011 Q185.649 696.877 188.102 696.298 Q190.556 695.719 192.593 695.719 Q197.963 695.719 201.158 698.404 Q204.352 701.09 204.352 705.58 Q204.352 707.71 203.542 709.631 Q202.755 711.529 200.649 714.122 Q200.07 714.793 196.968 718.011 Q193.866 721.205 188.218 726.969 Z" fill="#000000" fill-rule="nonzero" fill-opacity="1" /><path clip-path="url(#clip910)" d="M224.352 699.423 Q220.741 699.423 218.912 702.988 Q217.107 706.529 217.107 713.659 Q217.107 720.765 218.912 724.33 Q220.741 727.872 224.352 727.872 Q227.986 727.872 229.792 724.33 Q231.621 720.765 231.621 713.659 Q231.621 706.529 229.792 702.988 Q227.986 699.423 224.352 699.423 M224.352 695.719 Q230.162 695.719 233.218 700.326 Q236.297 704.909 236.297 713.659 Q236.297 722.386 233.218 726.992 Q230.162 731.576 224.352 731.576 Q218.542 731.576 215.463 726.992 Q212.408 722.386 212.408 713.659 Q212.408 704.909 215.463 700.326 Q218.542 695.719 224.352 695.719 Z" fill="#000000" fill-rule="nonzero" fill-opacity="1" /><path clip-path="url(#clip910)" d="M254.514 699.423 Q250.903 699.423 249.074 702.988 Q247.269 706.529 247.269 713.659 Q247.269 720.765 249.074 724.33 Q250.903 727.872 254.514 727.872 Q258.148 727.872 259.954 724.33 Q261.783 720.765 261.783 713.659 Q261.783 706.529 259.954 702.988 Q258.148 699.423 254.514 699.423 M254.514 695.719 Q260.324 695.719 263.38 700.326 Q266.458 704.909 266.458 713.659 Q266.458 722.386 263.38 726.992 Q260.324 731.576 254.514 731.576 Q248.704 731.576 245.625 726.992 Q242.57 722.386 242.57 713.659 Q242.57 704.909 245.625 700.326 Q248.704 695.719 254.514 695.719 Z" fill="#000000" fill-rule="nonzero" fill-opacity="1" /><path clip-path="url(#clip910)" d="M114.26 517.614 L143.936 517.614 L143.936 521.549 L114.26 521.549 L114.26 517.614 Z" fill="#000000" fill-rule="nonzero" fill-opacity="1" /><path clip-path="url(#clip910)" d="M154.075 499.883 L172.431 499.883 L172.431 503.818 L158.357 503.818 L158.357 512.29 Q159.376 511.943 160.394 511.781 Q161.413 511.596 162.431 511.596 Q168.218 511.596 171.598 514.767 Q174.977 517.938 174.977 523.355 Q174.977 528.934 171.505 532.035 Q168.033 535.114 161.714 535.114 Q159.538 535.114 157.269 534.744 Q155.024 534.373 152.616 533.633 L152.616 528.934 Q154.7 530.068 156.922 530.623 Q159.144 531.179 161.621 531.179 Q165.626 531.179 167.964 529.073 Q170.302 526.966 170.302 523.355 Q170.302 519.744 167.964 517.637 Q165.626 515.531 161.621 515.531 Q159.746 515.531 157.871 515.948 Q156.019 516.364 154.075 517.244 L154.075 499.883 Z" fill="#000000" fill-rule="nonzero" fill-opacity="1" /><path clip-path="url(#clip910)" d="M185.001 530.508 L192.639 530.508 L192.639 504.142 L184.329 505.809 L184.329 501.55 L192.593 499.883 L197.269 499.883 L197.269 530.508 L204.908 530.508 L204.908 534.443 L185.001 534.443 L185.001 530.508 Z" fill="#000000" fill-rule="nonzero" fill-opacity="1" /><path clip-path="url(#clip910)" d="M224.352 502.962 Q220.741 502.962 218.912 506.526 Q217.107 510.068 217.107 517.198 Q217.107 524.304 218.912 527.869 Q220.741 531.41 224.352 531.41 Q227.986 531.41 229.792 527.869 Q231.621 524.304 231.621 517.198 Q231.621 510.068 229.792 506.526 Q227.986 502.962 224.352 502.962 M224.352 499.258 Q230.162 499.258 233.218 503.864 Q236.297 508.448 236.297 517.198 Q236.297 525.924 233.218 530.531 Q230.162 535.114 224.352 535.114 Q218.542 535.114 215.463 530.531 Q212.408 525.924 212.408 517.198 Q212.408 508.448 215.463 503.864 Q218.542 499.258 224.352 499.258 Z" fill="#000000" fill-rule="nonzero" fill-opacity="1" /><path clip-path="url(#clip910)" d="M254.514 502.962 Q250.903 502.962 249.074 506.526 Q247.269 510.068 247.269 517.198 Q247.269 524.304 249.074 527.869 Q250.903 531.41 254.514 531.41 Q258.148 531.41 259.954 527.869 Q261.783 524.304 261.783 517.198 Q261.783 510.068 259.954 506.526 Q258.148 502.962 254.514 502.962 M254.514 499.258 Q260.324 499.258 263.38 503.864 Q266.458 508.448 266.458 517.198 Q266.458 525.924 263.38 530.531 Q260.324 535.114 254.514 535.114 Q248.704 535.114 245.625 530.531 Q242.57 525.924 242.57 517.198 Q242.57 508.448 245.625 503.864 Q248.704 499.258 254.514 499.258 Z" fill="#000000" fill-rule="nonzero" fill-opacity="1" /><path clip-path="url(#clip910)" d="M114.26 321.153 L143.936 321.153 L143.936 325.088 L114.26 325.088 L114.26 321.153 Z" fill="#000000" fill-rule="nonzero" fill-opacity="1" /><path clip-path="url(#clip910)" d="M154.075 303.421 L172.431 303.421 L172.431 307.357 L158.357 307.357 L158.357 315.829 Q159.376 315.482 160.394 315.32 Q161.413 315.134 162.431 315.134 Q168.218 315.134 171.598 318.306 Q174.977 321.477 174.977 326.894 Q174.977 332.472 171.505 335.574 Q168.033 338.653 161.714 338.653 Q159.538 338.653 157.269 338.282 Q155.024 337.912 152.616 337.171 L152.616 332.472 Q154.7 333.606 156.922 334.162 Q159.144 334.718 161.621 334.718 Q165.626 334.718 167.964 332.611 Q170.302 330.505 170.302 326.894 Q170.302 323.282 167.964 321.176 Q165.626 319.07 161.621 319.07 Q159.746 319.07 157.871 319.486 Q156.019 319.903 154.075 320.782 L154.075 303.421 Z" fill="#000000" fill-rule="nonzero" fill-opacity="1" /><path clip-path="url(#clip910)" d="M194.19 306.5 Q190.579 306.5 188.75 310.065 Q186.945 313.607 186.945 320.736 Q186.945 327.843 188.75 331.407 Q190.579 334.949 194.19 334.949 Q197.825 334.949 199.63 331.407 Q201.459 327.843 201.459 320.736 Q201.459 313.607 199.63 310.065 Q197.825 306.5 194.19 306.5 M194.19 302.796 Q200 302.796 203.056 307.403 Q206.135 311.986 206.135 320.736 Q206.135 329.463 203.056 334.069 Q200 338.653 194.19 338.653 Q188.38 338.653 185.301 334.069 Q182.246 329.463 182.246 320.736 Q182.246 311.986 185.301 307.403 Q188.38 302.796 194.19 302.796 Z" fill="#000000" fill-rule="nonzero" fill-opacity="1" /><path clip-path="url(#clip910)" d="M224.352 306.5 Q220.741 306.5 218.912 310.065 Q217.107 313.607 217.107 320.736 Q217.107 327.843 218.912 331.407 Q220.741 334.949 224.352 334.949 Q227.986 334.949 229.792 331.407 Q231.621 327.843 231.621 320.736 Q231.621 313.607 229.792 310.065 Q227.986 306.5 224.352 306.5 M224.352 302.796 Q230.162 302.796 233.218 307.403 Q236.297 311.986 236.297 320.736 Q236.297 329.463 233.218 334.069 Q230.162 338.653 224.352 338.653 Q218.542 338.653 215.463 334.069 Q212.408 329.463 212.408 320.736 Q212.408 311.986 215.463 307.403 Q218.542 302.796 224.352 302.796 Z" fill="#000000" fill-rule="nonzero" fill-opacity="1" /><path clip-path="url(#clip910)" d="M254.514 306.5 Q250.903 306.5 249.074 310.065 Q247.269 313.607 247.269 320.736 Q247.269 327.843 249.074 331.407 Q250.903 334.949 254.514 334.949 Q258.148 334.949 259.954 331.407 Q261.783 327.843 261.783 320.736 Q261.783 313.607 259.954 310.065 Q258.148 306.5 254.514 306.5 M254.514 302.796 Q260.324 302.796 263.38 307.403 Q266.458 311.986 266.458 320.736 Q266.458 329.463 263.38 334.069 Q260.324 338.653 254.514 338.653 Q248.704 338.653 245.625 334.069 Q242.57 329.463 242.57 320.736 Q242.57 311.986 245.625 307.403 Q248.704 302.796 254.514 302.796 Z" fill="#000000" fill-rule="nonzero" fill-opacity="1" /><path clip-path="url(#clip910)" d="M114.26 124.691 L143.936 124.691 L143.936 128.627 L114.26 128.627 L114.26 124.691 Z" fill="#000000" fill-rule="nonzero" fill-opacity="1" /><path clip-path="url(#clip910)" d="M166.876 111.034 L155.07 129.483 L166.876 129.483 L166.876 111.034 M165.649 106.96 L171.528 106.96 L171.528 129.483 L176.459 129.483 L176.459 133.372 L171.528 133.372 L171.528 141.52 L166.876 141.52 L166.876 133.372 L151.274 133.372 L151.274 128.858 L165.649 106.96 Z" fill="#000000" fill-rule="nonzero" fill-opacity="1" /><path clip-path="url(#clip910)" d="M184.329 140.802 L184.329 136.543 Q186.088 137.377 187.894 137.816 Q189.7 138.256 191.436 138.256 Q196.065 138.256 198.496 135.154 Q200.95 132.029 201.297 125.687 Q199.954 127.678 197.894 128.742 Q195.834 129.807 193.334 129.807 Q188.149 129.807 185.116 126.682 Q182.107 123.534 182.107 118.094 Q182.107 112.77 185.255 109.553 Q188.403 106.335 193.635 106.335 Q199.63 106.335 202.778 110.942 Q205.949 115.525 205.949 124.275 Q205.949 132.446 202.061 137.33 Q198.195 142.191 191.644 142.191 Q189.885 142.191 188.079 141.844 Q186.274 141.497 184.329 140.802 M193.635 126.15 Q196.783 126.15 198.612 123.997 Q200.463 121.844 200.463 118.094 Q200.463 114.367 198.612 112.215 Q196.783 110.039 193.635 110.039 Q190.487 110.039 188.635 112.215 Q186.806 114.367 186.806 118.094 Q186.806 121.844 188.635 123.997 Q190.487 126.15 193.635 126.15 Z" fill="#000000" fill-rule="nonzero" fill-opacity="1" /><path clip-path="url(#clip910)" d="M224.352 110.039 Q220.741 110.039 218.912 113.604 Q217.107 117.145 217.107 124.275 Q217.107 131.381 218.912 134.946 Q220.741 138.488 224.352 138.488 Q227.986 138.488 229.792 134.946 Q231.621 131.381 231.621 124.275 Q231.621 117.145 229.792 113.604 Q227.986 110.039 224.352 110.039 M224.352 106.335 Q230.162 106.335 233.218 110.942 Q236.297 115.525 236.297 124.275 Q236.297 133.002 233.218 137.608 Q230.162 142.191 224.352 142.191 Q218.542 142.191 215.463 137.608 Q212.408 133.002 212.408 124.275 Q212.408 115.525 215.463 110.942 Q218.542 106.335 224.352 106.335 Z" fill="#000000" fill-rule="nonzero" fill-opacity="1" /><path clip-path="url(#clip910)" d="M254.514 110.039 Q250.903 110.039 249.074 113.604 Q247.269 117.145 247.269 124.275 Q247.269 131.381 249.074 134.946 Q250.903 138.488 254.514 138.488 Q258.148 138.488 259.954 134.946 Q261.783 131.381 261.783 124.275 Q261.783 117.145 259.954 113.604 Q258.148 110.039 254.514 110.039 M254.514 106.335 Q260.324 106.335 263.38 110.942 Q266.458 115.525 266.458 124.275 Q266.458 133.002 263.38 137.608 Q260.324 142.191 254.514 142.191 Q248.704 142.191 245.625 137.608 Q242.57 133.002 242.57 124.275 Q242.57 115.525 245.625 110.942 Q248.704 106.335 254.514 106.335 Z" fill="#000000" fill-rule="nonzero" fill-opacity="1" /><path clip-path="url(#clip910)" d="M16.4842 992.817 L16.4842 986.388 L58.5933 986.388 L58.5933 963.248 L64.0042 963.248 L64.0042 992.817 L16.4842 992.817 Z" fill="#000000" fill-rule="nonzero" fill-opacity="1" /><path clip-path="url(#clip910)" d="M32.4621 944.088 Q32.4621 948.798 36.1542 951.535 Q39.8145 954.273 46.212 954.273 Q52.6095 954.273 56.3017 951.567 Q59.9619 948.83 59.9619 944.088 Q59.9619 939.409 56.2698 936.671 Q52.5777 933.934 46.212 933.934 Q39.8781 933.934 36.186 936.671 Q32.4621 939.409 32.4621 944.088 M27.4968 944.088 Q27.4968 936.449 32.4621 932.088 Q37.4273 927.728 46.212 927.728 Q54.9649 927.728 59.9619 932.088 Q64.9272 936.449 64.9272 944.088 Q64.9272 951.758 59.9619 956.119 Q54.9649 960.447 46.212 960.447 Q37.4273 960.447 32.4621 956.119 Q27.4968 951.758 27.4968 944.088 Z" fill="#000000" fill-rule="nonzero" fill-opacity="1" /><path clip-path="url(#clip910)" d="M45.7664 894.562 Q39.4007 894.562 35.8996 897.204 Q32.3984 899.814 32.3984 904.556 Q32.3984 909.267 35.8996 911.909 Q39.4007 914.519 45.7664 914.519 Q52.1003 914.519 55.6014 911.909 Q59.1026 909.267 59.1026 904.556 Q59.1026 899.814 55.6014 897.204 Q52.1003 894.562 45.7664 894.562 M59.58 888.706 Q68.683 888.706 73.1071 892.748 Q77.5631 896.79 77.5631 905.129 Q77.5631 908.217 77.0857 910.954 Q76.6401 913.691 75.6852 916.269 L69.9879 916.269 Q71.3884 913.691 72.0568 911.177 Q72.7252 908.662 72.7252 906.052 Q72.7252 900.291 69.7015 897.427 Q66.7096 894.562 60.6303 894.562 L57.7339 894.562 Q60.885 896.377 62.4446 899.209 Q64.0042 902.042 64.0042 905.989 Q64.0042 912.545 59.0071 916.556 Q54.01 920.566 45.7664 920.566 Q37.491 920.566 32.4939 916.556 Q27.4968 912.545 27.4968 905.989 Q27.4968 902.042 29.0564 899.209 Q30.616 896.377 33.7671 894.562 L28.3562 894.562 L28.3562 888.706 L59.58 888.706 Z" fill="#000000" fill-rule="nonzero" fill-opacity="1" /><path clip-path="url(#clip910)" d="M43.5384 879.603 L43.5384 862.447 L48.7583 862.447 L48.7583 879.603 L43.5384 879.603 Z" fill="#000000" fill-rule="nonzero" fill-opacity="1" /><path clip-path="url(#clip910)" d="M16.4842 852.867 L16.4842 846.438 L58.5933 846.438 L58.5933 823.298 L64.0042 823.298 L64.0042 852.867 L16.4842 852.867 Z" fill="#000000" fill-rule="nonzero" fill-opacity="1" /><path clip-path="url(#clip910)" d="M28.3562 816.805 L28.3562 810.949 L64.0042 810.949 L64.0042 816.805 L28.3562 816.805 M14.479 816.805 L14.479 810.949 L21.895 810.949 L21.895 816.805 L14.479 816.805 Z" fill="#000000" fill-rule="nonzero" fill-opacity="1" /><path clip-path="url(#clip910)" d="M14.479 798.918 L14.479 793.029 L43.7294 793.029 L28.3562 775.555 L28.3562 768.076 L45.0344 786.982 L64.0042 767.28 L64.0042 774.919 L46.5939 793.029 L64.0042 793.029 L64.0042 798.918 L14.479 798.918 Z" fill="#000000" fill-rule="nonzero" fill-opacity="1" /><path clip-path="url(#clip910)" d="M44.7161 732.778 L47.5806 732.778 L47.5806 759.705 Q53.6281 759.323 56.8109 756.076 Q59.9619 752.798 59.9619 746.973 Q59.9619 743.6 59.1344 740.449 Q58.3069 737.266 56.6518 734.147 L62.1899 734.147 Q63.5267 737.298 64.227 740.608 Q64.9272 743.918 64.9272 747.324 Q64.9272 755.854 59.9619 760.851 Q54.9967 765.816 46.5303 765.816 Q37.7774 765.816 32.6531 761.105 Q27.4968 756.363 27.4968 748.342 Q27.4968 741.149 32.1438 736.979 Q36.7589 732.778 44.7161 732.778 M42.9973 738.634 Q38.1912 738.698 35.3266 741.34 Q32.4621 743.95 32.4621 748.278 Q32.4621 753.18 35.2312 756.14 Q38.0002 759.068 43.0292 759.514 L42.9973 738.634 Z" fill="#000000" fill-rule="nonzero" fill-opacity="1" /><path clip-path="url(#clip910)" d="M14.479 723.166 L14.479 717.309 L64.0042 717.309 L64.0042 723.166 L14.479 723.166 Z" fill="#000000" fill-rule="nonzero" fill-opacity="1" /><path clip-path="url(#clip910)" d="M28.3562 705.055 L28.3562 699.199 L64.0042 699.199 L64.0042 705.055 L28.3562 705.055 M14.479 705.055 L14.479 699.199 L21.895 699.199 L21.895 705.055 L14.479 705.055 Z" fill="#000000" fill-rule="nonzero" fill-opacity="1" /><path clip-path="url(#clip910)" d="M42.4881 657.312 L64.0042 657.312 L64.0042 663.169 L42.679 663.169 Q37.6183 663.169 35.1038 665.142 Q32.5894 667.116 32.5894 671.062 Q32.5894 675.805 35.6131 678.542 Q38.6368 681.279 43.8567 681.279 L64.0042 681.279 L64.0042 687.168 L14.479 687.168 L14.479 681.279 L33.8944 681.279 Q30.6797 679.179 29.0883 676.346 Q27.4968 673.481 27.4968 669.757 Q27.4968 663.614 31.3163 660.463 Q35.1038 657.312 42.4881 657.312 Z" fill="#000000" fill-rule="nonzero" fill-opacity="1" /><path clip-path="url(#clip910)" d="M32.4621 631.818 Q32.4621 636.528 36.1542 639.266 Q39.8145 642.003 46.212 642.003 Q52.6095 642.003 56.3017 639.297 Q59.9619 636.56 59.9619 631.818 Q59.9619 627.139 56.2698 624.402 Q52.5777 621.664 46.212 621.664 Q39.8781 621.664 36.186 624.402 Q32.4621 627.139 32.4621 631.818 M27.4968 631.818 Q27.4968 624.179 32.4621 619.818 Q37.4273 615.458 46.212 615.458 Q54.9649 615.458 59.9619 619.818 Q64.9272 624.179 64.9272 631.818 Q64.9272 639.488 59.9619 643.849 Q54.9649 648.178 46.212 648.178 Q37.4273 648.178 32.4621 643.849 Q27.4968 639.488 27.4968 631.818 Z" fill="#000000" fill-rule="nonzero" fill-opacity="1" /><path clip-path="url(#clip910)" d="M32.4621 591.937 Q32.4621 596.647 36.1542 599.384 Q39.8145 602.122 46.212 602.122 Q52.6095 602.122 56.3017 599.416 Q59.9619 596.679 59.9619 591.937 Q59.9619 587.258 56.2698 584.521 Q52.5777 581.783 46.212 581.783 Q39.8781 581.783 36.186 584.521 Q32.4621 587.258 32.4621 591.937 M27.4968 591.937 Q27.4968 584.298 32.4621 579.937 Q37.4273 575.577 46.212 575.577 Q54.9649 575.577 59.9619 579.937 Q64.9272 584.298 64.9272 591.937 Q64.9272 599.607 59.9619 603.968 Q54.9649 608.296 46.212 608.296 Q37.4273 608.296 32.4621 603.968 Q27.4968 599.607 27.4968 591.937 Z" fill="#000000" fill-rule="nonzero" fill-opacity="1" /><path clip-path="url(#clip910)" d="M33.7671 542.411 L14.479 542.411 L14.479 536.555 L64.0042 536.555 L64.0042 542.411 L58.657 542.411 Q61.8398 544.257 63.3994 547.09 Q64.9272 549.891 64.9272 553.838 Q64.9272 560.299 59.771 564.373 Q54.6147 568.415 46.212 568.415 Q37.8093 568.415 32.6531 564.373 Q27.4968 560.299 27.4968 553.838 Q27.4968 549.891 29.0564 547.09 Q30.5842 544.257 33.7671 542.411 M46.212 562.368 Q52.6732 562.368 56.3653 559.726 Q60.0256 557.053 60.0256 552.406 Q60.0256 547.759 56.3653 545.085 Q52.6732 542.411 46.212 542.411 Q39.7508 542.411 36.0905 545.085 Q32.3984 547.759 32.3984 552.406 Q32.3984 557.053 36.0905 559.726 Q39.7508 562.368 46.212 562.368 Z" fill="#000000" fill-rule="nonzero" fill-opacity="1" /><path clip-path="url(#clip910)" d="M780.822 31.2093 L780.822 47.0368 L790.197 47.0368 Q794.913 47.0368 797.17 45.0981 Q799.456 43.1306 799.456 39.1086 Q799.456 35.0577 797.17 33.148 Q794.913 31.2093 790.197 31.2093 L780.822 31.2093 M780.822 13.4432 L780.822 26.464 L789.473 26.464 Q793.756 26.464 795.839 24.8726 Q797.951 23.2522 797.951 19.9536 Q797.951 16.6839 795.839 15.0636 Q793.756 13.4432 789.473 13.4432 L780.822 13.4432 M774.977 8.64 L789.907 8.64 Q796.591 8.64 800.208 11.4178 Q803.825 14.1955 803.825 19.317 Q803.825 23.2811 801.973 25.6249 Q800.122 27.9686 796.534 28.5473 Q800.845 29.4732 803.218 32.4246 Q805.619 35.347 805.619 39.7452 Q805.619 45.5322 801.684 48.6861 Q797.749 51.84 790.486 51.84 L774.977 51.84 L774.977 8.64 Z" fill="#000000" fill-rule="nonzero" fill-opacity="1" /><path clip-path="url(#clip910)" d="M830.127 35.5496 Q823.675 35.5496 821.186 37.0253 Q818.698 38.501 818.698 42.06 Q818.698 44.8956 820.55 46.5738 Q822.43 48.2231 825.642 48.2231 Q830.069 48.2231 832.731 45.0981 Q835.422 41.9442 835.422 36.7359 L835.422 35.5496 L830.127 35.5496 M840.746 33.3505 L840.746 51.84 L835.422 51.84 L835.422 46.921 Q833.599 49.8724 830.879 51.2902 Q828.16 52.6791 824.224 52.6791 Q819.248 52.6791 816.296 49.9014 Q813.374 47.0947 813.374 42.4072 Q813.374 36.9385 817.02 34.1607 Q820.694 31.3829 827.957 31.3829 L835.422 31.3829 L835.422 30.8621 Q835.422 27.1874 832.992 25.1908 Q830.59 23.1654 826.221 23.1654 Q823.443 23.1654 820.81 23.8309 Q818.177 24.4964 815.746 25.8274 L815.746 20.9085 Q818.669 19.78 821.418 19.2302 Q824.167 18.6515 826.771 18.6515 Q833.802 18.6515 837.274 22.2973 Q840.746 25.9431 840.746 33.3505 Z" fill="#000000" fill-rule="nonzero" fill-opacity="1" /><path clip-path="url(#clip910)" d="M851.163 39.0507 L851.163 19.4328 L856.487 19.4328 L856.487 38.8482 Q856.487 43.4488 858.281 45.7636 Q860.075 48.0495 863.663 48.0495 Q867.974 48.0495 870.463 45.3007 Q872.98 42.5519 872.98 37.8065 L872.98 19.4328 L878.304 19.4328 L878.304 51.84 L872.98 51.84 L872.98 46.8632 Q871.041 49.8145 868.466 51.2613 Q865.92 52.6791 862.534 52.6791 Q856.95 52.6791 854.056 49.2069 Q851.163 45.7347 851.163 39.0507 M864.56 18.6515 L864.56 18.6515 Z" fill="#000000" fill-rule="nonzero" fill-opacity="1" /><path clip-path="url(#clip910)" d="M914.502 25.6538 Q916.498 22.0659 919.276 20.3587 Q922.054 18.6515 925.815 18.6515 Q930.879 18.6515 933.628 22.2105 Q936.377 25.7406 936.377 32.2799 L936.377 51.84 L931.024 51.84 L931.024 32.4535 Q931.024 27.795 929.374 25.5381 Q927.725 23.2811 924.34 23.2811 Q920.202 23.2811 917.8 26.03 Q915.399 28.7788 915.399 33.5241 L915.399 51.84 L910.046 51.84 L910.046 32.4535 Q910.046 27.7661 908.396 25.5381 Q906.747 23.2811 903.304 23.2811 Q899.224 23.2811 896.822 26.0589 Q894.421 28.8077 894.421 33.5241 L894.421 51.84 L889.068 51.84 L889.068 19.4328 L894.421 19.4328 L894.421 24.4675 Q896.244 21.4872 898.79 20.0693 Q901.336 18.6515 904.837 18.6515 Q908.368 18.6515 910.827 20.4455 Q913.315 22.2395 914.502 25.6538 Z" fill="#000000" fill-rule="nonzero" fill-opacity="1" /><path clip-path="url(#clip910)" d="M944.305 33.2348 L959.901 33.2348 L959.901 37.9801 L944.305 37.9801 L944.305 33.2348 Z" fill="#000000" fill-rule="nonzero" fill-opacity="1" /><path clip-path="url(#clip910)" d="M962.36 8.64 L968.263 8.64 L977.349 45.156 L986.405 8.64 L992.974 8.64 L1002.06 45.156 L1011.12 8.64 L1017.05 8.64 L1006.2 51.84 L998.847 51.84 L989.733 14.3402 L980.531 51.84 L973.182 51.84 L962.36 8.64 Z" fill="#000000" fill-rule="nonzero" fill-opacity="1" /><path clip-path="url(#clip910)" d="M1048.82 34.3054 L1048.82 36.9095 L1024.34 36.9095 Q1024.69 42.4072 1027.64 45.3007 Q1030.62 48.1653 1035.91 48.1653 Q1038.98 48.1653 1041.84 47.4129 Q1044.74 46.6606 1047.57 45.156 L1047.57 50.1907 Q1044.71 51.406 1041.7 52.0425 Q1038.69 52.6791 1035.59 52.6791 Q1027.84 52.6791 1023.3 48.1653 Q1018.78 43.6514 1018.78 35.9547 Q1018.78 27.9975 1023.07 23.339 Q1027.38 18.6515 1034.67 18.6515 Q1041.21 18.6515 1045 22.876 Q1048.82 27.0716 1048.82 34.3054 M1043.49 32.7429 Q1043.44 28.3737 1041.03 25.7695 Q1038.66 23.1654 1034.73 23.1654 Q1030.27 23.1654 1027.58 25.6827 Q1024.92 28.2001 1024.51 32.7718 L1043.49 32.7429 Z" fill="#000000" fill-rule="nonzero" fill-opacity="1" /><path clip-path="url(#clip910)" d="M1057.56 6.81709 L1062.88 6.81709 L1062.88 51.84 L1057.56 51.84 L1057.56 6.81709 Z" fill="#000000" fill-rule="nonzero" fill-opacity="1" /><path clip-path="url(#clip910)" d="M1097.34 20.677 L1097.34 25.6538 Q1095.09 24.4096 1092.8 23.802 Q1090.54 23.1654 1088.23 23.1654 Q1083.05 23.1654 1080.18 26.464 Q1077.32 29.7336 1077.32 35.6653 Q1077.32 41.597 1080.18 44.8956 Q1083.05 48.1653 1088.23 48.1653 Q1090.54 48.1653 1092.8 47.5576 Q1095.09 46.921 1097.34 45.6768 L1097.34 50.5958 Q1095.11 51.6375 1092.71 52.1583 Q1090.34 52.6791 1087.65 52.6791 Q1080.33 52.6791 1076.02 48.0784 Q1071.71 43.4778 1071.71 35.6653 Q1071.71 27.7371 1076.05 23.1943 Q1080.42 18.6515 1088 18.6515 Q1090.46 18.6515 1092.8 19.1724 Q1095.14 19.6642 1097.34 20.677 Z" fill="#000000" fill-rule="nonzero" fill-opacity="1" /><path clip-path="url(#clip910)" d="M1133.54 32.2799 L1133.54 51.84 L1128.22 51.84 L1128.22 32.4535 Q1128.22 27.8529 1126.42 25.567 Q1124.63 23.2811 1121.04 23.2811 Q1116.73 23.2811 1114.24 26.03 Q1111.75 28.7788 1111.75 33.5241 L1111.75 51.84 L1106.4 51.84 L1106.4 6.81709 L1111.75 6.81709 L1111.75 24.4675 Q1113.66 21.545 1116.24 20.0983 Q1118.84 18.6515 1122.23 18.6515 Q1127.81 18.6515 1130.68 22.1237 Q1133.54 25.567 1133.54 32.2799 Z" fill="#000000" fill-rule="nonzero" fill-opacity="1" /><path clip-path="url(#clip910)" d="M1195.58 11.9675 L1195.58 18.1307 Q1192.63 15.3819 1189.27 14.0219 Q1185.94 12.662 1182.18 12.662 Q1174.77 12.662 1170.84 17.2048 Q1166.9 21.7186 1166.9 30.2834 Q1166.9 38.8192 1170.84 43.362 Q1174.77 47.8759 1182.18 47.8759 Q1185.94 47.8759 1189.27 46.516 Q1192.63 45.156 1195.58 42.4072 L1195.58 48.5125 Q1192.51 50.5958 1189.07 51.6375 Q1185.65 52.6791 1181.83 52.6791 Q1172.02 52.6791 1166.38 46.6896 Q1160.74 40.6711 1160.74 30.2834 Q1160.74 19.8668 1166.38 13.8772 Q1172.02 7.85875 1181.83 7.85875 Q1185.71 7.85875 1189.12 8.90042 Q1192.57 9.91314 1195.58 11.9675 Z" fill="#000000" fill-rule="nonzero" fill-opacity="1" /><path clip-path="url(#clip910)" d="M1216.93 23.1654 Q1212.65 23.1654 1210.16 26.5218 Q1207.67 29.8494 1207.67 35.6653 Q1207.67 41.4813 1210.13 44.8377 Q1212.62 48.1653 1216.93 48.1653 Q1221.18 48.1653 1223.67 44.8088 Q1226.16 41.4523 1226.16 35.6653 Q1226.16 29.9072 1223.67 26.5508 Q1221.18 23.1654 1216.93 23.1654 M1216.93 18.6515 Q1223.88 18.6515 1227.84 23.1654 Q1231.8 27.6792 1231.8 35.6653 Q1231.8 43.6225 1227.84 48.1653 Q1223.88 52.6791 1216.93 52.6791 Q1209.96 52.6791 1205.99 48.1653 Q1202.06 43.6225 1202.06 35.6653 Q1202.06 27.6792 1205.99 23.1654 Q1209.96 18.6515 1216.93 18.6515 Z" fill="#000000" fill-rule="nonzero" fill-opacity="1" /><path clip-path="url(#clip910)" d="M1267.57 32.2799 L1267.57 51.84 L1262.24 51.84 L1262.24 32.4535 Q1262.24 27.8529 1260.45 25.567 Q1258.65 23.2811 1255.07 23.2811 Q1250.76 23.2811 1248.27 26.03 Q1245.78 28.7788 1245.78 33.5241 L1245.78 51.84 L1240.43 51.84 L1240.43 19.4328 L1245.78 19.4328 L1245.78 24.4675 Q1247.69 21.545 1250.26 20.0983 Q1252.87 18.6515 1256.25 18.6515 Q1261.84 18.6515 1264.7 22.1237 Q1267.57 25.567 1267.57 32.2799 Z" fill="#000000" fill-rule="nonzero" fill-opacity="1" /><path clip-path="url(#clip910)" d="M1274.37 19.4328 L1280.01 19.4328 L1290.14 46.6317 L1300.26 19.4328 L1305.91 19.4328 L1293.75 51.84 L1286.52 51.84 L1274.37 19.4328 Z" fill="#000000" fill-rule="nonzero" fill-opacity="1" /><path clip-path="url(#clip910)" d="M1340.98 34.3054 L1340.98 36.9095 L1316.5 36.9095 Q1316.84 42.4072 1319.79 45.3007 Q1322.78 48.1653 1328.07 48.1653 Q1331.14 48.1653 1334 47.4129 Q1336.9 46.6606 1339.73 45.156 L1339.73 50.1907 Q1336.87 51.406 1333.86 52.0425 Q1330.85 52.6791 1327.75 52.6791 Q1320 52.6791 1315.45 48.1653 Q1310.94 43.6514 1310.94 35.9547 Q1310.94 27.9975 1315.22 23.339 Q1319.53 18.6515 1326.83 18.6515 Q1333.37 18.6515 1337.16 22.876 Q1340.98 27.0716 1340.98 34.3054 M1335.65 32.7429 Q1335.59 28.3737 1333.19 25.7695 Q1330.82 23.1654 1326.88 23.1654 Q1322.43 23.1654 1319.74 25.6827 Q1317.07 28.2001 1316.67 32.7718 L1335.65 32.7429 Z" fill="#000000" fill-rule="nonzero" fill-opacity="1" /><path clip-path="url(#clip910)" d="M1368.49 24.4096 Q1367.6 23.8888 1366.52 23.6573 Q1365.48 23.3969 1364.21 23.3969 Q1359.7 23.3969 1357.27 26.3482 Q1354.86 29.2707 1354.86 34.7683 L1354.86 51.84 L1349.51 51.84 L1349.51 19.4328 L1354.86 19.4328 L1354.86 24.4675 Q1356.54 21.5161 1359.23 20.0983 Q1361.92 18.6515 1365.77 18.6515 Q1366.32 18.6515 1366.99 18.7383 Q1367.65 18.7962 1368.46 18.9409 L1368.49 24.4096 Z" fill="#000000" fill-rule="nonzero" fill-opacity="1" /><path clip-path="url(#clip910)" d="M1394.36 35.2602 Q1394.36 29.4732 1391.96 26.2904 Q1389.59 23.1075 1385.27 23.1075 Q1380.99 23.1075 1378.59 26.2904 Q1376.22 29.4732 1376.22 35.2602 Q1376.22 41.0183 1378.59 44.2012 Q1380.99 47.384 1385.27 47.384 Q1389.59 47.384 1391.96 44.2012 Q1394.36 41.0183 1394.36 35.2602 M1399.68 47.818 Q1399.68 56.0934 1396.01 60.1154 Q1392.33 64.1663 1384.75 64.1663 Q1381.95 64.1663 1379.46 63.7323 Q1376.97 63.3272 1374.63 62.4592 L1374.63 57.2798 Q1376.97 58.5529 1379.26 59.1606 Q1381.54 59.7682 1383.91 59.7682 Q1389.15 59.7682 1391.76 57.0194 Q1394.36 54.2995 1394.36 48.7729 L1394.36 46.1398 Q1392.71 49.0044 1390.14 50.4222 Q1387.56 51.84 1383.97 51.84 Q1378.01 51.84 1374.37 47.2972 Q1370.72 42.7544 1370.72 35.2602 Q1370.72 27.7371 1374.37 23.1943 Q1378.01 18.6515 1383.97 18.6515 Q1387.56 18.6515 1390.14 20.0693 Q1392.71 21.4872 1394.36 24.3517 L1394.36 19.4328 L1399.68 19.4328 L1399.68 47.818 Z" fill="#000000" fill-rule="nonzero" fill-opacity="1" /><path clip-path="url(#clip910)" d="M1438.37 34.3054 L1438.37 36.9095 L1413.89 36.9095 Q1414.24 42.4072 1417.19 45.3007 Q1420.17 48.1653 1425.47 48.1653 Q1428.53 48.1653 1431.4 47.4129 Q1434.29 46.6606 1437.13 45.156 L1437.13 50.1907 Q1434.26 51.406 1431.25 52.0425 Q1428.24 52.6791 1425.15 52.6791 Q1417.39 52.6791 1412.85 48.1653 Q1408.34 43.6514 1408.34 35.9547 Q1408.34 27.9975 1412.62 23.339 Q1416.93 18.6515 1424.22 18.6515 Q1430.76 18.6515 1434.55 22.876 Q1438.37 27.0716 1438.37 34.3054 M1433.05 32.7429 Q1432.99 28.3737 1430.59 25.7695 Q1428.21 23.1654 1424.28 23.1654 Q1419.82 23.1654 1417.13 25.6827 Q1414.47 28.2001 1414.07 32.7718 L1433.05 32.7429 Z" fill="#000000" fill-rule="nonzero" fill-opacity="1" /><path clip-path="url(#clip910)" d="M1474.05 32.2799 L1474.05 51.84 L1468.72 51.84 L1468.72 32.4535 Q1468.72 27.8529 1466.93 25.567 Q1465.14 23.2811 1461.55 23.2811 Q1457.24 23.2811 1454.75 26.03 Q1452.26 28.7788 1452.26 33.5241 L1452.26 51.84 L1446.91 51.84 L1446.91 19.4328 L1452.26 19.4328 L1452.26 24.4675 Q1454.17 21.545 1456.74 20.0983 Q1459.35 18.6515 1462.73 18.6515 Q1468.32 18.6515 1471.18 22.1237 Q1474.05 25.567 1474.05 32.2799 Z" fill="#000000" fill-rule="nonzero" fill-opacity="1" /><path clip-path="url(#clip910)" d="M1507.99 20.677 L1507.99 25.6538 Q1505.73 24.4096 1503.45 23.802 Q1501.19 23.1654 1498.87 23.1654 Q1493.69 23.1654 1490.83 26.464 Q1487.97 29.7336 1487.97 35.6653 Q1487.97 41.597 1490.83 44.8956 Q1493.69 48.1653 1498.87 48.1653 Q1501.19 48.1653 1503.45 47.5576 Q1505.73 46.921 1507.99 45.6768 L1507.99 50.5958 Q1505.76 51.6375 1503.36 52.1583 Q1500.99 52.6791 1498.29 52.6791 Q1490.97 52.6791 1486.66 48.0784 Q1482.35 43.4778 1482.35 35.6653 Q1482.35 27.7371 1486.69 23.1943 Q1491.06 18.6515 1498.64 18.6515 Q1501.1 18.6515 1503.45 19.1724 Q1505.79 19.6642 1507.99 20.677 Z" fill="#000000" fill-rule="nonzero" fill-opacity="1" /><path clip-path="url(#clip910)" d="M1544.97 34.3054 L1544.97 36.9095 L1520.49 36.9095 Q1520.84 42.4072 1523.79 45.3007 Q1526.77 48.1653 1532.06 48.1653 Q1535.13 48.1653 1537.99 47.4129 Q1540.89 46.6606 1543.72 45.156 L1543.72 50.1907 Q1540.86 51.406 1537.85 52.0425 Q1534.84 52.6791 1531.74 52.6791 Q1523.99 52.6791 1519.45 48.1653 Q1514.93 43.6514 1514.93 35.9547 Q1514.93 27.9975 1519.21 23.339 Q1523.53 18.6515 1530.82 18.6515 Q1537.36 18.6515 1541.15 22.876 Q1544.97 27.0716 1544.97 34.3054 M1539.64 32.7429 Q1539.59 28.3737 1537.18 25.7695 Q1534.81 23.1654 1530.88 23.1654 Q1526.42 23.1654 1523.73 25.6827 Q1521.07 28.2001 1520.66 32.7718 L1539.64 32.7429 Z" fill="#000000" fill-rule="nonzero" fill-opacity="1" /><path clip-path="url(#clip910)" d="M1585.33 6.87496 Q1581.45 13.53 1579.57 20.0404 Q1577.69 26.5508 1577.69 33.2348 Q1577.69 39.9188 1579.57 46.487 Q1581.48 53.0263 1585.33 59.6525 L1580.7 59.6525 Q1576.36 52.8527 1574.19 46.2845 Q1572.05 39.7162 1572.05 33.2348 Q1572.05 26.7823 1574.19 20.2429 Q1576.33 13.7036 1580.7 6.87496 L1585.33 6.87496 Z" fill="#000000" fill-rule="nonzero" fill-opacity="1" /><path clip-path="url(#clip910)" d="M1621.79 10.0578 L1621.79 15.758 Q1618.46 14.1666 1615.51 13.3853 Q1612.56 12.6041 1609.81 12.6041 Q1605.04 12.6041 1602.43 14.4559 Q1599.86 16.3078 1599.86 19.7221 Q1599.86 22.5867 1601.56 24.0624 Q1603.3 25.5091 1608.1 26.4061 L1611.63 27.1295 Q1618.17 28.3737 1621.27 31.5276 Q1624.39 34.6526 1624.39 39.9188 Q1624.39 46.1977 1620.17 49.4384 Q1615.97 52.6791 1607.84 52.6791 Q1604.78 52.6791 1601.3 51.9847 Q1597.86 51.2902 1594.16 49.9303 L1594.16 43.9118 Q1597.72 45.9083 1601.13 46.921 Q1604.54 47.9338 1607.84 47.9338 Q1612.85 47.9338 1615.57 45.9662 Q1618.29 43.9986 1618.29 40.3528 Q1618.29 37.1699 1616.32 35.376 Q1614.38 33.582 1609.93 32.685 L1606.37 31.9906 Q1599.83 30.6885 1596.91 27.9107 Q1593.98 25.133 1593.98 20.1851 Q1593.98 14.4559 1598.01 11.1573 Q1602.06 7.85875 1609.15 7.85875 Q1612.18 7.85875 1615.34 8.40852 Q1618.49 8.95829 1621.79 10.0578 Z" fill="#000000" fill-rule="nonzero" fill-opacity="1" /><path clip-path="url(#clip910)" d="M1639.35 13.4432 L1639.35 29.6758 L1646.7 29.6758 Q1650.78 29.6758 1653.01 27.5635 Q1655.24 25.4513 1655.24 21.545 Q1655.24 17.6677 1653.01 15.5555 Q1650.78 13.4432 1646.7 13.4432 L1639.35 13.4432 M1633.51 8.64 L1646.7 8.64 Q1653.97 8.64 1657.67 11.9386 Q1661.4 15.2083 1661.4 21.545 Q1661.4 27.9397 1657.67 31.2093 Q1653.97 34.479 1646.7 34.479 L1639.35 34.479 L1639.35 51.84 L1633.51 51.84 L1633.51 8.64 Z" fill="#000000" fill-rule="nonzero" fill-opacity="1" /><path clip-path="url(#clip910)" d="M1662.01 8.64 L1668.29 8.64 L1680.27 26.4061 L1692.16 8.64 L1698.44 8.64 L1683.16 31.2672 L1683.16 51.84 L1677.29 51.84 L1677.29 31.2672 L1662.01 8.64 Z" fill="#000000" fill-rule="nonzero" fill-opacity="1" /><path clip-path="url(#clip910)" d="M1705.27 44.4905 L1711.37 44.4905 L1711.37 49.4673 L1706.63 58.7265 L1702.89 58.7265 L1705.27 49.4673 L1705.27 44.4905 Z" fill="#000000" fill-rule="nonzero" fill-opacity="1" /><path clip-path="url(#clip910)" d="M1741.81 8.64 L1747.66 8.64 L1747.66 26.898 L1767.04 8.64 L1774.57 8.64 L1753.13 28.7788 L1776.1 51.84 L1768.4 51.84 L1747.66 31.0357 L1747.66 51.84 L1741.81 51.84 L1741.81 8.64 Z" fill="#000000" fill-rule="nonzero" fill-opacity="1" /><path clip-path="url(#clip910)" d="M1781.13 24.9304 L1818.23 24.9304 L1818.23 29.7915 L1781.13 29.7915 L1781.13 24.9304 M1781.13 36.7359 L1818.23 36.7359 L1818.23 41.6549 L1781.13 41.6549 L1781.13 36.7359 Z" fill="#000000" fill-rule="nonzero" fill-opacity="1" /><path clip-path="url(#clip910)" d="M1844.07 27.9107 Q1840.13 27.9107 1837.82 30.6017 Q1835.53 33.2926 1835.53 37.9801 Q1835.53 42.6387 1837.82 45.3586 Q1840.13 48.0495 1844.07 48.0495 Q1848 48.0495 1850.29 45.3586 Q1852.6 42.6387 1852.6 37.9801 Q1852.6 33.2926 1850.29 30.6017 Q1848 27.9107 1844.07 27.9107 M1855.67 9.59486 L1855.67 14.9189 Q1853.47 13.8772 1851.22 13.3275 Q1848.99 12.7777 1846.79 12.7777 Q1841 12.7777 1837.93 16.6839 Q1834.9 20.5902 1834.46 28.4894 Q1836.17 25.9721 1838.74 24.6411 Q1841.32 23.2811 1844.42 23.2811 Q1850.93 23.2811 1854.69 27.2452 Q1858.48 31.1804 1858.48 37.9801 Q1858.48 44.6352 1854.54 48.6571 Q1850.61 52.6791 1844.07 52.6791 Q1836.57 52.6791 1832.61 46.95 Q1828.65 41.1919 1828.65 30.2834 Q1828.65 20.0404 1833.51 13.964 Q1838.37 7.85875 1846.56 7.85875 Q1848.76 7.85875 1850.98 8.29278 Q1853.24 8.72681 1855.67 9.59486 Z" fill="#000000" fill-rule="nonzero" fill-opacity="1" /><path clip-path="url(#clip910)" d="M1866.96 6.87496 L1871.59 6.87496 Q1875.93 13.7036 1878.07 20.2429 Q1880.24 26.7823 1880.24 33.2348 Q1880.24 39.7162 1878.07 46.2845 Q1875.93 52.8527 1871.59 59.6525 L1866.96 59.6525 Q1870.8 53.0263 1872.69 46.487 Q1874.59 39.9188 1874.59 33.2348 Q1874.59 26.5508 1872.69 20.0404 Q1870.8 13.53 1866.96 6.87496 Z" fill="#000000" fill-rule="nonzero" fill-opacity="1" /><polyline clip-path="url(#clip912)" style="stroke:#000080; stroke-linecap:round; stroke-linejoin:round; stroke-width:8; stroke-opacity:1; fill:none" points="360.486,1385.91 393.269,924.696 426.053,787.8 458.837,706.238 491.621,646.666 524.405,598.635 557.188,557.581 589.972,520.853 622.756,486.601 655.54,454.412 688.323,425.468 721.107,400.373 753.891,378.723 786.675,359.777 819.459,342.957 852.242,328.017 885.026,314.838 917.81,303.258 950.594,293.06 983.377,284.015 1016.16,275.915 1048.95,268.586 1081.73,261.886 1114.51,255.707 1147.3,249.956 1180.08,244.559 1212.86,239.45 1245.65,234.578 1278.43,229.899 1311.22,225.376 1344,220.978 1376.78,216.675 1409.57,212.435 1442.35,208.222 1475.13,203.992 1507.92,199.694 1540.7,195.283 1573.49,190.731 1606.27,186.056 1639.05,181.351 1671.84,176.786 1704.62,172.566 1737.4,168.85 1770.19,165.699 1802.97,163.074 1835.76,160.886 1868.54,159.037 1901.32,157.445 1934.11,156.041 1966.89,154.773 1999.67,153.601 2032.46,152.497 2065.24,151.437 2098.03,150.4 2130.81,149.368 2163.59,148.321 2196.38,147.237 2229.16,146.09 2261.94,144.847 2294.73,143.465 "/>
<circle clip-path="url(#clip912)" cx="360.486" cy="1385.91" r="10.8" fill="#000080" fill-rule="evenodd" fill-opacity="1" stroke="#000000" stroke-opacity="1" stroke-width="3.2"/>
<circle clip-path="url(#clip912)" cx="393.269" cy="924.696" r="10.8" fill="#000080" fill-rule="evenodd" fill-opacity="1" stroke="#000000" stroke-opacity="1" stroke-width="3.2"/>
<circle clip-path="url(#clip912)" cx="426.053" cy="787.8" r="10.8" fill="#000080" fill-rule="evenodd" fill-opacity="1" stroke="#000000" stroke-opacity="1" stroke-width="3.2"/>
<circle clip-path="url(#clip912)" cx="458.837" cy="706.238" r="10.8" fill="#000080" fill-rule="evenodd" fill-opacity="1" stroke="#000000" stroke-opacity="1" stroke-width="3.2"/>
<circle clip-path="url(#clip912)" cx="491.621" cy="646.666" r="10.8" fill="#000080" fill-rule="evenodd" fill-opacity="1" stroke="#000000" stroke-opacity="1" stroke-width="3.2"/>
<circle clip-path="url(#clip912)" cx="524.405" cy="598.635" r="10.8" fill="#000080" fill-rule="evenodd" fill-opacity="1" stroke="#000000" stroke-opacity="1" stroke-width="3.2"/>
<circle clip-path="url(#clip912)" cx="557.188" cy="557.581" r="10.8" fill="#000080" fill-rule="evenodd" fill-opacity="1" stroke="#000000" stroke-opacity="1" stroke-width="3.2"/>
<circle clip-path="url(#clip912)" cx="589.972" cy="520.853" r="10.8" fill="#000080" fill-rule="evenodd" fill-opacity="1" stroke="#000000" stroke-opacity="1" stroke-width="3.2"/>
<circle clip-path="url(#clip912)" cx="622.756" cy="486.601" r="10.8" fill="#000080" fill-rule="evenodd" fill-opacity="1" stroke="#000000" stroke-opacity="1" stroke-width="3.2"/>
<circle clip-path="url(#clip912)" cx="655.54" cy="454.412" r="10.8" fill="#000080" fill-rule="evenodd" fill-opacity="1" stroke="#000000" stroke-opacity="1" stroke-width="3.2"/>
<circle clip-path="url(#clip912)" cx="688.323" cy="425.468" r="10.8" fill="#000080" fill-rule="evenodd" fill-opacity="1" stroke="#000000" stroke-opacity="1" stroke-width="3.2"/>
<circle clip-path="url(#clip912)" cx="721.107" cy="400.373" r="10.8" fill="#000080" fill-rule="evenodd" fill-opacity="1" stroke="#000000" stroke-opacity="1" stroke-width="3.2"/>
<circle clip-path="url(#clip912)" cx="753.891" cy="378.723" r="10.8" fill="#000080" fill-rule="evenodd" fill-opacity="1" stroke="#000000" stroke-opacity="1" stroke-width="3.2"/>
<circle clip-path="url(#clip912)" cx="786.675" cy="359.777" r="10.8" fill="#000080" fill-rule="evenodd" fill-opacity="1" stroke="#000000" stroke-opacity="1" stroke-width="3.2"/>
<circle clip-path="url(#clip912)" cx="819.459" cy="342.957" r="10.8" fill="#000080" fill-rule="evenodd" fill-opacity="1" stroke="#000000" stroke-opacity="1" stroke-width="3.2"/>
<circle clip-path="url(#clip912)" cx="852.242" cy="328.017" r="10.8" fill="#000080" fill-rule="evenodd" fill-opacity="1" stroke="#000000" stroke-opacity="1" stroke-width="3.2"/>
<circle clip-path="url(#clip912)" cx="885.026" cy="314.838" r="10.8" fill="#000080" fill-rule="evenodd" fill-opacity="1" stroke="#000000" stroke-opacity="1" stroke-width="3.2"/>
<circle clip-path="url(#clip912)" cx="917.81" cy="303.258" r="10.8" fill="#000080" fill-rule="evenodd" fill-opacity="1" stroke="#000000" stroke-opacity="1" stroke-width="3.2"/>
<circle clip-path="url(#clip912)" cx="950.594" cy="293.06" r="10.8" fill="#000080" fill-rule="evenodd" fill-opacity="1" stroke="#000000" stroke-opacity="1" stroke-width="3.2"/>
<circle clip-path="url(#clip912)" cx="983.377" cy="284.015" r="10.8" fill="#000080" fill-rule="evenodd" fill-opacity="1" stroke="#000000" stroke-opacity="1" stroke-width="3.2"/>
<circle clip-path="url(#clip912)" cx="1016.16" cy="275.915" r="10.8" fill="#000080" fill-rule="evenodd" fill-opacity="1" stroke="#000000" stroke-opacity="1" stroke-width="3.2"/>
<circle clip-path="url(#clip912)" cx="1048.95" cy="268.586" r="10.8" fill="#000080" fill-rule="evenodd" fill-opacity="1" stroke="#000000" stroke-opacity="1" stroke-width="3.2"/>
<circle clip-path="url(#clip912)" cx="1081.73" cy="261.886" r="10.8" fill="#000080" fill-rule="evenodd" fill-opacity="1" stroke="#000000" stroke-opacity="1" stroke-width="3.2"/>
<circle clip-path="url(#clip912)" cx="1114.51" cy="255.707" r="10.8" fill="#000080" fill-rule="evenodd" fill-opacity="1" stroke="#000000" stroke-opacity="1" stroke-width="3.2"/>
<circle clip-path="url(#clip912)" cx="1147.3" cy="249.956" r="10.8" fill="#000080" fill-rule="evenodd" fill-opacity="1" stroke="#000000" stroke-opacity="1" stroke-width="3.2"/>
<circle clip-path="url(#clip912)" cx="1180.08" cy="244.559" r="10.8" fill="#000080" fill-rule="evenodd" fill-opacity="1" stroke="#000000" stroke-opacity="1" stroke-width="3.2"/>
<circle clip-path="url(#clip912)" cx="1212.86" cy="239.45" r="10.8" fill="#000080" fill-rule="evenodd" fill-opacity="1" stroke="#000000" stroke-opacity="1" stroke-width="3.2"/>
<circle clip-path="url(#clip912)" cx="1245.65" cy="234.578" r="10.8" fill="#000080" fill-rule="evenodd" fill-opacity="1" stroke="#000000" stroke-opacity="1" stroke-width="3.2"/>
<circle clip-path="url(#clip912)" cx="1278.43" cy="229.899" r="10.8" fill="#000080" fill-rule="evenodd" fill-opacity="1" stroke="#000000" stroke-opacity="1" stroke-width="3.2"/>
<circle clip-path="url(#clip912)" cx="1311.22" cy="225.376" r="10.8" fill="#000080" fill-rule="evenodd" fill-opacity="1" stroke="#000000" stroke-opacity="1" stroke-width="3.2"/>
<circle clip-path="url(#clip912)" cx="1344" cy="220.978" r="10.8" fill="#000080" fill-rule="evenodd" fill-opacity="1" stroke="#000000" stroke-opacity="1" stroke-width="3.2"/>
<circle clip-path="url(#clip912)" cx="1376.78" cy="216.675" r="10.8" fill="#000080" fill-rule="evenodd" fill-opacity="1" stroke="#000000" stroke-opacity="1" stroke-width="3.2"/>
<circle clip-path="url(#clip912)" cx="1409.57" cy="212.435" r="10.8" fill="#000080" fill-rule="evenodd" fill-opacity="1" stroke="#000000" stroke-opacity="1" stroke-width="3.2"/>
<circle clip-path="url(#clip912)" cx="1442.35" cy="208.222" r="10.8" fill="#000080" fill-rule="evenodd" fill-opacity="1" stroke="#000000" stroke-opacity="1" stroke-width="3.2"/>
<circle clip-path="url(#clip912)" cx="1475.13" cy="203.992" r="10.8" fill="#000080" fill-rule="evenodd" fill-opacity="1" stroke="#000000" stroke-opacity="1" stroke-width="3.2"/>
<circle clip-path="url(#clip912)" cx="1507.92" cy="199.694" r="10.8" fill="#000080" fill-rule="evenodd" fill-opacity="1" stroke="#000000" stroke-opacity="1" stroke-width="3.2"/>
<circle clip-path="url(#clip912)" cx="1540.7" cy="195.283" r="10.8" fill="#000080" fill-rule="evenodd" fill-opacity="1" stroke="#000000" stroke-opacity="1" stroke-width="3.2"/>
<circle clip-path="url(#clip912)" cx="1573.49" cy="190.731" r="10.8" fill="#000080" fill-rule="evenodd" fill-opacity="1" stroke="#000000" stroke-opacity="1" stroke-width="3.2"/>
<circle clip-path="url(#clip912)" cx="1606.27" cy="186.056" r="10.8" fill="#000080" fill-rule="evenodd" fill-opacity="1" stroke="#000000" stroke-opacity="1" stroke-width="3.2"/>
<circle clip-path="url(#clip912)" cx="1639.05" cy="181.351" r="10.8" fill="#000080" fill-rule="evenodd" fill-opacity="1" stroke="#000000" stroke-opacity="1" stroke-width="3.2"/>
<circle clip-path="url(#clip912)" cx="1671.84" cy="176.786" r="10.8" fill="#000080" fill-rule="evenodd" fill-opacity="1" stroke="#000000" stroke-opacity="1" stroke-width="3.2"/>
<circle clip-path="url(#clip912)" cx="1704.62" cy="172.566" r="10.8" fill="#000080" fill-rule="evenodd" fill-opacity="1" stroke="#000000" stroke-opacity="1" stroke-width="3.2"/>
<circle clip-path="url(#clip912)" cx="1737.4" cy="168.85" r="10.8" fill="#000080" fill-rule="evenodd" fill-opacity="1" stroke="#000000" stroke-opacity="1" stroke-width="3.2"/>
<circle clip-path="url(#clip912)" cx="1770.19" cy="165.699" r="10.8" fill="#000080" fill-rule="evenodd" fill-opacity="1" stroke="#000000" stroke-opacity="1" stroke-width="3.2"/>
<circle clip-path="url(#clip912)" cx="1802.97" cy="163.074" r="10.8" fill="#000080" fill-rule="evenodd" fill-opacity="1" stroke="#000000" stroke-opacity="1" stroke-width="3.2"/>
<circle clip-path="url(#clip912)" cx="1835.76" cy="160.886" r="10.8" fill="#000080" fill-rule="evenodd" fill-opacity="1" stroke="#000000" stroke-opacity="1" stroke-width="3.2"/>
<circle clip-path="url(#clip912)" cx="1868.54" cy="159.037" r="10.8" fill="#000080" fill-rule="evenodd" fill-opacity="1" stroke="#000000" stroke-opacity="1" stroke-width="3.2"/>
<circle clip-path="url(#clip912)" cx="1901.32" cy="157.445" r="10.8" fill="#000080" fill-rule="evenodd" fill-opacity="1" stroke="#000000" stroke-opacity="1" stroke-width="3.2"/>
<circle clip-path="url(#clip912)" cx="1934.11" cy="156.041" r="10.8" fill="#000080" fill-rule="evenodd" fill-opacity="1" stroke="#000000" stroke-opacity="1" stroke-width="3.2"/>
<circle clip-path="url(#clip912)" cx="1966.89" cy="154.773" r="10.8" fill="#000080" fill-rule="evenodd" fill-opacity="1" stroke="#000000" stroke-opacity="1" stroke-width="3.2"/>
<circle clip-path="url(#clip912)" cx="1999.67" cy="153.601" r="10.8" fill="#000080" fill-rule="evenodd" fill-opacity="1" stroke="#000000" stroke-opacity="1" stroke-width="3.2"/>
<circle clip-path="url(#clip912)" cx="2032.46" cy="152.497" r="10.8" fill="#000080" fill-rule="evenodd" fill-opacity="1" stroke="#000000" stroke-opacity="1" stroke-width="3.2"/>
<circle clip-path="url(#clip912)" cx="2065.24" cy="151.437" r="10.8" fill="#000080" fill-rule="evenodd" fill-opacity="1" stroke="#000000" stroke-opacity="1" stroke-width="3.2"/>
<circle clip-path="url(#clip912)" cx="2098.03" cy="150.4" r="10.8" fill="#000080" fill-rule="evenodd" fill-opacity="1" stroke="#000000" stroke-opacity="1" stroke-width="3.2"/>
<circle clip-path="url(#clip912)" cx="2130.81" cy="149.368" r="10.8" fill="#000080" fill-rule="evenodd" fill-opacity="1" stroke="#000000" stroke-opacity="1" stroke-width="3.2"/>
<circle clip-path="url(#clip912)" cx="2163.59" cy="148.321" r="10.8" fill="#000080" fill-rule="evenodd" fill-opacity="1" stroke="#000000" stroke-opacity="1" stroke-width="3.2"/>
<circle clip-path="url(#clip912)" cx="2196.38" cy="147.237" r="10.8" fill="#000080" fill-rule="evenodd" fill-opacity="1" stroke="#000000" stroke-opacity="1" stroke-width="3.2"/>
<circle clip-path="url(#clip912)" cx="2229.16" cy="146.09" r="10.8" fill="#000080" fill-rule="evenodd" fill-opacity="1" stroke="#000000" stroke-opacity="1" stroke-width="3.2"/>
<circle clip-path="url(#clip912)" cx="2261.94" cy="144.847" r="10.8" fill="#000080" fill-rule="evenodd" fill-opacity="1" stroke="#000000" stroke-opacity="1" stroke-width="3.2"/>
<circle clip-path="url(#clip912)" cx="2294.73" cy="143.465" r="10.8" fill="#000080" fill-rule="evenodd" fill-opacity="1" stroke="#000000" stroke-opacity="1" stroke-width="3.2"/>
</svg>
