<?xml version="1.0" encoding="utf-8"?>
<svg xmlns="http://www.w3.org/2000/svg" xmlns:xlink="http://www.w3.org/1999/xlink" width="700" height="500" viewBox="0 0 2800 2000">
<defs>
  <clipPath id="clip710">
    <rect x="0" y="0" width="2800" height="2000"/>
  </clipPath>
</defs>
<path clip-path="url(#clip710)" d="M0 2000 L2800 2000 L2800 -4.44089e-14 L0 -4.44089e-14  Z" fill="#ffffff" fill-rule="evenodd" fill-opacity="1"/>
<defs>
  <clipPath id="clip711">
    <rect x="477" y="125" width="2198" height="1506"/>
  </clipPath>
</defs>
<path clip-path="url(#clip710)" d="M532.517 1630.83 L2674.02 1630.83 L2674.02 125.984 L532.517 125.984  Z" fill="#ffffff" fill-rule="evenodd" fill-opacity="1"/>
<defs>
  <clipPath id="clip712">
    <rect x="532" y="125" width="2142" height="1506"/>
  </clipPath>
</defs>
<polyline clip-path="url(#clip712)" style="stroke:#000000; stroke-linecap:round; stroke-linejoin:round; stroke-width:2; stroke-opacity:0.1; fill:none" points="585.076,1630.83 585.076,125.984 "/>
<polyline clip-path="url(#clip712)" style="stroke:#000000; stroke-linecap:round; stroke-linejoin:round; stroke-width:2; stroke-opacity:0.1; fill:none" points="987.523,1630.83 987.523,125.984 "/>
<polyline clip-path="url(#clip712)" style="stroke:#000000; stroke-linecap:round; stroke-linejoin:round; stroke-width:2; stroke-opacity:0.1; fill:none" points="1389.97,1630.83 1389.97,125.984 "/>
<polyline clip-path="url(#clip712)" style="stroke:#000000; stroke-linecap:round; stroke-linejoin:round; stroke-width:2; stroke-opacity:0.1; fill:none" points="1792.42,1630.83 1792.42,125.984 "/>
<polyline clip-path="url(#clip712)" style="stroke:#000000; stroke-linecap:round; stroke-linejoin:round; stroke-width:2; stroke-opacity:0.1; fill:none" points="2194.86,1630.83 2194.86,125.984 "/>
<polyline clip-path="url(#clip712)" style="stroke:#000000; stroke-linecap:round; stroke-linejoin:round; stroke-width:2; stroke-opacity:0.1; fill:none" points="2597.31,1630.83 2597.31,125.984 "/>
<polyline clip-path="url(#clip712)" style="stroke:#000000; stroke-linecap:round; stroke-linejoin:round; stroke-width:2; stroke-opacity:0.1; fill:none" points="532.517,1515.27 2674.02,1515.27 "/>
<polyline clip-path="url(#clip712)" style="stroke:#000000; stroke-linecap:round; stroke-linejoin:round; stroke-width:2; stroke-opacity:0.1; fill:none" points="532.517,1232.62 2674.02,1232.62 "/>
<polyline clip-path="url(#clip712)" style="stroke:#000000; stroke-linecap:round; stroke-linejoin:round; stroke-width:2; stroke-opacity:0.1; fill:none" points="532.517,949.974 2674.02,949.974 "/>
<polyline clip-path="url(#clip712)" style="stroke:#000000; stroke-linecap:round; stroke-linejoin:round; stroke-width:2; stroke-opacity:0.1; fill:none" points="532.517,667.325 2674.02,667.325 "/>
<polyline clip-path="url(#clip712)" style="stroke:#000000; stroke-linecap:round; stroke-linejoin:round; stroke-width:2; stroke-opacity:0.1; fill:none" points="532.517,384.676 2674.02,384.676 "/>
<polyline clip-path="url(#clip710)" style="stroke:#000000; stroke-linecap:round; stroke-linejoin:round; stroke-width:4; stroke-opacity:1; fill:none" points="532.517,1630.83 2674.02,1630.83 "/>
<polyline clip-path="url(#clip710)" style="stroke:#000000; stroke-linecap:round; stroke-linejoin:round; stroke-width:4; stroke-opacity:1; fill:none" points="585.076,1630.83 585.076,1611.93 "/>
<polyline clip-path="url(#clip710)" style="stroke:#000000; stroke-linecap:round; stroke-linejoin:round; stroke-width:4; stroke-opacity:1; fill:none" points="987.523,1630.83 987.523,1611.93 "/>
<polyline clip-path="url(#clip710)" style="stroke:#000000; stroke-linecap:round; stroke-linejoin:round; stroke-width:4; stroke-opacity:1; fill:none" points="1389.97,1630.83 1389.97,1611.93 "/>
<polyline clip-path="url(#clip710)" style="stroke:#000000; stroke-linecap:round; stroke-linejoin:round; stroke-width:4; stroke-opacity:1; fill:none" points="1792.42,1630.83 1792.42,1611.93 "/>
<polyline clip-path="url(#clip710)" style="stroke:#000000; stroke-linecap:round; stroke-linejoin:round; stroke-width:4; stroke-opacity:1; fill:none" points="2194.86,1630.83 2194.86,1611.93 "/>
<polyline clip-path="url(#clip710)" style="stroke:#000000; stroke-linecap:round; stroke-linejoin:round; stroke-width:4; stroke-opacity:1; fill:none" points="2597.31,1630.83 2597.31,1611.93 "/>
<path clip-path="url(#clip710)" d="M585.076 1667.88 Q580.562 1667.88 578.277 1672.34 Q576.02 1676.76 576.02 1685.67 Q576.02 1694.56 578.277 1699.01 Q580.562 1703.44 585.076 1703.44 Q589.619 1703.44 591.876 1699.01 Q594.162 1694.56 594.162 1685.67 Q594.162 1676.76 591.876 1672.34 Q589.619 1667.88 585.076 1667.88 M585.076 1663.25 Q592.339 1663.25 596.158 1669.01 Q600.007 1674.74 600.007 1685.67 Q600.007 1696.58 596.158 1702.34 Q592.339 1708.07 585.076 1708.07 Q577.814 1708.07 573.965 1702.34 Q570.146 1696.58 570.146 1685.67 Q570.146 1674.74 573.965 1669.01 Q577.814 1663.25 585.076 1663.25 Z" fill="#000000" fill-rule="nonzero" fill-opacity="1" /><path clip-path="url(#clip710)" d="M955.897 1664.03 L978.842 1664.03 L978.842 1668.95 L961.25 1668.95 L961.25 1679.54 Q962.523 1679.11 963.796 1678.9 Q965.069 1678.67 966.343 1678.67 Q973.576 1678.67 977.801 1682.64 Q982.025 1686.6 982.025 1693.37 Q982.025 1700.34 977.685 1704.22 Q973.345 1708.07 965.446 1708.07 Q962.726 1708.07 959.89 1707.61 Q957.083 1707.14 954.074 1706.22 L954.074 1700.34 Q956.678 1701.76 959.456 1702.46 Q962.234 1703.15 965.33 1703.15 Q970.336 1703.15 973.258 1700.52 Q976.18 1697.89 976.18 1693.37 Q976.18 1688.86 973.258 1686.22 Q970.336 1683.59 965.33 1683.59 Q962.986 1683.59 960.642 1684.11 Q958.328 1684.63 955.897 1685.73 L955.897 1664.03 Z" fill="#000000" fill-rule="nonzero" fill-opacity="1" /><path clip-path="url(#clip710)" d="M1006.04 1667.88 Q1001.53 1667.88 999.242 1672.34 Q996.985 1676.76 996.985 1685.67 Q996.985 1694.56 999.242 1699.01 Q1001.53 1703.44 1006.04 1703.44 Q1010.58 1703.44 1012.84 1699.01 Q1015.13 1694.56 1015.13 1685.67 Q1015.13 1676.76 1012.84 1672.34 Q1010.58 1667.88 1006.04 1667.88 M1006.04 1663.25 Q1013.3 1663.25 1017.12 1669.01 Q1020.97 1674.74 1020.97 1685.67 Q1020.97 1696.58 1017.12 1702.34 Q1013.3 1708.07 1006.04 1708.07 Q998.779 1708.07 994.93 1702.34 Q991.111 1696.58 991.111 1685.67 Q991.111 1674.74 994.93 1669.01 Q998.779 1663.25 1006.04 1663.25 Z" fill="#000000" fill-rule="nonzero" fill-opacity="1" /><path clip-path="url(#clip710)" d="M1339.48 1702.31 L1349.03 1702.31 L1349.03 1669.36 L1338.64 1671.44 L1338.64 1666.11 L1348.97 1664.03 L1354.81 1664.03 L1354.81 1702.31 L1364.36 1702.31 L1364.36 1707.23 L1339.48 1707.23 L1339.48 1702.31 Z" fill="#000000" fill-rule="nonzero" fill-opacity="1" /><path clip-path="url(#clip710)" d="M1388.67 1667.88 Q1384.15 1667.88 1381.87 1672.34 Q1379.61 1676.76 1379.61 1685.67 Q1379.61 1694.56 1381.87 1699.01 Q1384.15 1703.44 1388.67 1703.44 Q1393.21 1703.44 1395.47 1699.01 Q1397.75 1694.56 1397.75 1685.67 Q1397.75 1676.76 1395.47 1672.34 Q1393.21 1667.88 1388.67 1667.88 M1388.67 1663.25 Q1395.93 1663.25 1399.75 1669.01 Q1403.6 1674.74 1403.6 1685.67 Q1403.6 1696.58 1399.75 1702.34 Q1395.93 1708.07 1388.67 1708.07 Q1381.4 1708.07 1377.56 1702.34 Q1373.74 1696.58 1373.74 1685.67 Q1373.74 1674.74 1377.56 1669.01 Q1381.4 1663.25 1388.67 1663.25 Z" fill="#000000" fill-rule="nonzero" fill-opacity="1" /><path clip-path="url(#clip710)" d="M1426.37 1667.88 Q1421.86 1667.88 1419.57 1672.34 Q1417.31 1676.76 1417.31 1685.67 Q1417.31 1694.56 1419.57 1699.01 Q1421.86 1703.44 1426.37 1703.44 Q1430.91 1703.44 1433.17 1699.01 Q1435.46 1694.56 1435.46 1685.67 Q1435.46 1676.76 1433.17 1672.34 Q1430.91 1667.88 1426.37 1667.88 M1426.37 1663.25 Q1433.63 1663.25 1437.45 1669.01 Q1441.3 1674.74 1441.3 1685.67 Q1441.3 1696.58 1437.45 1702.34 Q1433.63 1708.07 1426.37 1708.07 Q1419.11 1708.07 1415.26 1702.34 Q1411.44 1696.58 1411.44 1685.67 Q1411.44 1674.74 1415.26 1669.01 Q1419.11 1663.25 1426.37 1663.25 Z" fill="#000000" fill-rule="nonzero" fill-opacity="1" /><path clip-path="url(#clip710)" d="M1741.92 1702.31 L1751.47 1702.31 L1751.47 1669.36 L1741.09 1671.44 L1741.09 1666.11 L1751.42 1664.03 L1757.26 1664.03 L1757.26 1702.31 L1766.81 1702.31 L1766.81 1707.23 L1741.92 1707.23 L1741.92 1702.31 Z" fill="#000000" fill-rule="nonzero" fill-opacity="1" /><path clip-path="url(#clip710)" d="M1778.67 1664.03 L1801.62 1664.03 L1801.62 1668.95 L1784.03 1668.95 L1784.03 1679.54 Q1785.3 1679.11 1786.57 1678.9 Q1787.84 1678.67 1789.12 1678.67 Q1796.35 1678.67 1800.58 1682.64 Q1804.8 1686.6 1804.8 1693.37 Q1804.8 1700.34 1800.46 1704.22 Q1796.12 1708.07 1788.22 1708.07 Q1785.5 1708.07 1782.67 1707.61 Q1779.86 1707.14 1776.85 1706.22 L1776.85 1700.34 Q1779.45 1701.76 1782.23 1702.46 Q1785.01 1703.15 1788.1 1703.15 Q1793.11 1703.15 1796.03 1700.52 Q1798.96 1697.89 1798.96 1693.37 Q1798.96 1688.86 1796.03 1686.22 Q1793.11 1683.59 1788.1 1683.59 Q1785.76 1683.59 1783.42 1684.11 Q1781.1 1684.63 1778.67 1685.73 L1778.67 1664.03 Z" fill="#000000" fill-rule="nonzero" fill-opacity="1" /><path clip-path="url(#clip710)" d="M1828.82 1667.88 Q1824.3 1667.88 1822.02 1672.34 Q1819.76 1676.76 1819.76 1685.67 Q1819.76 1694.56 1822.02 1699.01 Q1824.3 1703.44 1828.82 1703.44 Q1833.36 1703.44 1835.62 1699.01 Q1837.9 1694.56 1837.9 1685.67 Q1837.9 1676.76 1835.62 1672.34 Q1833.36 1667.88 1828.82 1667.88 M1828.82 1663.25 Q1836.08 1663.25 1839.9 1669.01 Q1843.75 1674.74 1843.75 1685.67 Q1843.75 1696.58 1839.9 1702.34 Q1836.08 1708.07 1828.82 1708.07 Q1821.55 1708.07 1817.71 1702.34 Q1813.89 1696.58 1813.89 1685.67 Q1813.89 1674.74 1817.71 1669.01 Q1821.55 1663.25 1828.82 1663.25 Z" fill="#000000" fill-rule="nonzero" fill-opacity="1" /><path clip-path="url(#clip710)" d="M2149.48 1702.31 L2169.88 1702.31 L2169.88 1707.23 L2142.45 1707.23 L2142.45 1702.31 Q2145.77 1698.87 2151.5 1693.08 Q2157.26 1687.27 2158.74 1685.59 Q2161.54 1682.43 2162.64 1680.26 Q2163.77 1678.06 2163.77 1675.95 Q2163.77 1672.51 2161.34 1670.34 Q2158.94 1668.17 2155.06 1668.17 Q2152.31 1668.17 2149.25 1669.12 Q2146.21 1670.08 2142.74 1672.02 L2142.74 1666.11 Q2146.27 1664.7 2149.33 1663.97 Q2152.4 1663.25 2154.95 1663.25 Q2161.66 1663.25 2165.65 1666.61 Q2169.65 1669.96 2169.65 1675.58 Q2169.65 1678.24 2168.63 1680.64 Q2167.65 1683.01 2165.02 1686.25 Q2164.29 1687.09 2160.42 1691.11 Q2156.54 1695.11 2149.48 1702.31 Z" fill="#000000" fill-rule="nonzero" fill-opacity="1" /><path clip-path="url(#clip710)" d="M2194.65 1667.88 Q2190.13 1667.88 2187.85 1672.34 Q2185.59 1676.76 2185.59 1685.67 Q2185.59 1694.56 2187.85 1699.01 Q2190.13 1703.44 2194.65 1703.44 Q2199.19 1703.44 2201.45 1699.01 Q2203.73 1694.56 2203.73 1685.67 Q2203.73 1676.76 2201.45 1672.34 Q2199.19 1667.88 2194.65 1667.88 M2194.65 1663.25 Q2201.91 1663.25 2205.73 1669.01 Q2209.58 1674.74 2209.58 1685.67 Q2209.58 1696.58 2205.73 1702.34 Q2201.91 1708.07 2194.65 1708.07 Q2187.38 1708.07 2183.53 1702.34 Q2179.72 1696.58 2179.72 1685.67 Q2179.72 1674.74 2183.53 1669.01 Q2187.38 1663.25 2194.65 1663.25 Z" fill="#000000" fill-rule="nonzero" fill-opacity="1" /><path clip-path="url(#clip710)" d="M2232.35 1667.88 Q2227.83 1667.88 2225.55 1672.34 Q2223.29 1676.76 2223.29 1685.67 Q2223.29 1694.56 2225.55 1699.01 Q2227.83 1703.44 2232.35 1703.44 Q2236.89 1703.44 2239.15 1699.01 Q2241.43 1694.56 2241.43 1685.67 Q2241.43 1676.76 2239.15 1672.34 Q2236.89 1667.88 2232.35 1667.88 M2232.35 1663.25 Q2239.61 1663.25 2243.43 1669.01 Q2247.28 1674.74 2247.28 1685.67 Q2247.28 1696.58 2243.43 1702.34 Q2239.61 1708.07 2232.35 1708.07 Q2225.09 1708.07 2221.24 1702.34 Q2217.42 1696.58 2217.42 1685.67 Q2217.42 1674.74 2221.24 1669.01 Q2225.09 1663.25 2232.35 1663.25 Z" fill="#000000" fill-rule="nonzero" fill-opacity="1" /><path clip-path="url(#clip710)" d="M2551.92 1702.31 L2572.32 1702.31 L2572.32 1707.23 L2544.89 1707.23 L2544.89 1702.31 Q2548.22 1698.87 2553.95 1693.08 Q2559.71 1687.27 2561.18 1685.59 Q2563.99 1682.43 2565.09 1680.26 Q2566.22 1678.06 2566.22 1675.95 Q2566.22 1672.51 2563.79 1670.34 Q2561.39 1668.17 2557.51 1668.17 Q2554.76 1668.17 2551.69 1669.12 Q2548.66 1670.08 2545.18 1672.02 L2545.18 1666.11 Q2548.71 1664.7 2551.78 1663.97 Q2554.85 1663.25 2557.39 1663.25 Q2564.11 1663.25 2568.1 1666.61 Q2572.09 1669.96 2572.09 1675.58 Q2572.09 1678.24 2571.08 1680.64 Q2570.1 1683.01 2567.46 1686.25 Q2566.74 1687.09 2562.86 1691.11 Q2558.98 1695.11 2551.92 1702.31 Z" fill="#000000" fill-rule="nonzero" fill-opacity="1" /><path clip-path="url(#clip710)" d="M2584.65 1664.03 L2607.6 1664.03 L2607.6 1668.95 L2590 1668.95 L2590 1679.54 Q2591.28 1679.11 2592.55 1678.9 Q2593.82 1678.67 2595.1 1678.67 Q2602.33 1678.67 2606.55 1682.64 Q2610.78 1686.6 2610.78 1693.37 Q2610.78 1700.34 2606.44 1704.22 Q2602.1 1708.07 2594.2 1708.07 Q2591.48 1708.07 2588.64 1707.61 Q2585.84 1707.14 2582.83 1706.22 L2582.83 1700.34 Q2585.43 1701.76 2588.21 1702.46 Q2590.99 1703.15 2594.08 1703.15 Q2599.09 1703.15 2602.01 1700.52 Q2604.93 1697.89 2604.93 1693.37 Q2604.93 1688.86 2602.01 1686.22 Q2599.09 1683.59 2594.08 1683.59 Q2591.74 1683.59 2589.4 1684.11 Q2587.08 1684.63 2584.65 1685.73 L2584.65 1664.03 Z" fill="#000000" fill-rule="nonzero" fill-opacity="1" /><path clip-path="url(#clip710)" d="M2634.79 1667.88 Q2630.28 1667.88 2628 1672.34 Q2625.74 1676.76 2625.74 1685.67 Q2625.74 1694.56 2628 1699.01 Q2630.28 1703.44 2634.79 1703.44 Q2639.34 1703.44 2641.59 1699.01 Q2643.88 1694.56 2643.88 1685.67 Q2643.88 1676.76 2641.59 1672.34 Q2639.34 1667.88 2634.79 1667.88 M2634.79 1663.25 Q2642.06 1663.25 2645.88 1669.01 Q2649.73 1674.74 2649.73 1685.67 Q2649.73 1696.58 2645.88 1702.34 Q2642.06 1708.07 2634.79 1708.07 Q2627.53 1708.07 2623.68 1702.34 Q2619.86 1696.58 2619.86 1685.67 Q2619.86 1674.74 2623.68 1669.01 Q2627.53 1663.25 2634.79 1663.25 Z" fill="#000000" fill-rule="nonzero" fill-opacity="1" /><path clip-path="url(#clip710)" d="M1550.61 1747.14 L1557.04 1747.14 L1557.04 1789.24 L1580.17 1789.24 L1580.17 1794.66 L1550.61 1794.66 L1550.61 1747.14 Z" fill="#000000" fill-rule="nonzero" fill-opacity="1" /><path clip-path="url(#clip710)" d="M1602.87 1776.74 Q1595.77 1776.74 1593.03 1778.36 Q1590.3 1779.98 1590.3 1783.9 Q1590.3 1787.02 1592.33 1788.86 Q1594.4 1790.68 1597.94 1790.68 Q1602.8 1790.68 1605.73 1787.24 Q1608.69 1783.77 1608.69 1778.04 L1608.69 1776.74 L1602.87 1776.74 M1614.55 1774.32 L1614.55 1794.66 L1608.69 1794.66 L1608.69 1789.24 Q1606.69 1792.49 1603.7 1794.05 Q1600.7 1795.58 1596.38 1795.58 Q1590.9 1795.58 1587.65 1792.52 Q1584.44 1789.44 1584.44 1784.28 Q1584.44 1778.26 1588.45 1775.21 Q1592.49 1772.15 1600.48 1772.15 L1608.69 1772.15 L1608.69 1771.58 Q1608.69 1767.54 1606.02 1765.34 Q1603.38 1763.11 1598.57 1763.11 Q1595.52 1763.11 1592.62 1763.85 Q1589.72 1764.58 1587.05 1766.04 L1587.05 1760.63 Q1590.26 1759.39 1593.29 1758.78 Q1596.31 1758.15 1599.18 1758.15 Q1606.91 1758.15 1610.73 1762.16 Q1614.55 1766.17 1614.55 1774.32 Z" fill="#000000" fill-rule="nonzero" fill-opacity="1" /><path clip-path="url(#clip710)" d="M1650.07 1776.42 Q1650.07 1770.05 1647.43 1766.55 Q1644.82 1763.05 1640.08 1763.05 Q1635.37 1763.05 1632.72 1766.55 Q1630.11 1770.05 1630.11 1776.42 Q1630.11 1782.75 1632.72 1786.25 Q1635.37 1789.75 1640.08 1789.75 Q1644.82 1789.75 1647.43 1786.25 Q1650.07 1782.75 1650.07 1776.42 M1655.93 1790.23 Q1655.93 1799.33 1651.88 1803.76 Q1647.84 1808.21 1639.5 1808.21 Q1636.42 1808.21 1633.68 1807.74 Q1630.94 1807.29 1628.36 1806.34 L1628.36 1800.64 Q1630.94 1802.04 1633.46 1802.71 Q1635.97 1803.38 1638.58 1803.38 Q1644.34 1803.38 1647.21 1800.35 Q1650.07 1797.36 1650.07 1791.28 L1650.07 1788.39 Q1648.26 1791.54 1645.42 1793.1 Q1642.59 1794.66 1638.64 1794.66 Q1632.09 1794.66 1628.08 1789.66 Q1624.07 1784.66 1624.07 1776.42 Q1624.07 1768.14 1628.08 1763.15 Q1632.09 1758.15 1638.64 1758.15 Q1642.59 1758.15 1645.42 1759.71 Q1648.26 1761.27 1650.07 1764.42 L1650.07 1759.01 L1655.93 1759.01 L1655.93 1790.23 Z" fill="#000000" fill-rule="nonzero" fill-opacity="1" /><polyline clip-path="url(#clip710)" style="stroke:#000000; stroke-linecap:round; stroke-linejoin:round; stroke-width:4; stroke-opacity:1; fill:none" points="532.517,1630.83 532.517,125.984 "/>
<polyline clip-path="url(#clip710)" style="stroke:#000000; stroke-linecap:round; stroke-linejoin:round; stroke-width:4; stroke-opacity:1; fill:none" points="532.517,1515.27 551.414,1515.27 "/>
<polyline clip-path="url(#clip710)" style="stroke:#000000; stroke-linecap:round; stroke-linejoin:round; stroke-width:4; stroke-opacity:1; fill:none" points="532.517,1232.62 551.414,1232.62 "/>
<polyline clip-path="url(#clip710)" style="stroke:#000000; stroke-linecap:round; stroke-linejoin:round; stroke-width:4; stroke-opacity:1; fill:none" points="532.517,949.974 551.414,949.974 "/>
<polyline clip-path="url(#clip710)" style="stroke:#000000; stroke-linecap:round; stroke-linejoin:round; stroke-width:4; stroke-opacity:1; fill:none" points="532.517,667.325 551.414,667.325 "/>
<polyline clip-path="url(#clip710)" style="stroke:#000000; stroke-linecap:round; stroke-linejoin:round; stroke-width:4; stroke-opacity:1; fill:none" points="532.517,384.676 551.414,384.676 "/>
<path clip-path="url(#clip710)" d="M320.379 1515.84 L357.474 1515.84 L357.474 1520.76 L320.379 1520.76 L320.379 1515.84 Z" fill="#000000" fill-rule="nonzero" fill-opacity="1" /><path clip-path="url(#clip710)" d="M382.589 1497.52 Q378.075 1497.52 375.789 1501.98 Q373.533 1506.4 373.533 1515.32 Q373.533 1524.2 375.789 1528.65 Q378.075 1533.08 382.589 1533.08 Q387.132 1533.08 389.389 1528.65 Q391.675 1524.2 391.675 1515.32 Q391.675 1506.4 389.389 1501.98 Q387.132 1497.52 382.589 1497.52 M382.589 1492.89 Q389.852 1492.89 393.671 1498.65 Q397.52 1504.38 397.52 1515.32 Q397.52 1526.22 393.671 1531.98 Q389.852 1537.71 382.589 1537.71 Q375.326 1537.71 371.478 1531.98 Q367.659 1526.22 367.659 1515.32 Q367.659 1504.38 371.478 1498.65 Q375.326 1492.89 382.589 1492.89 Z" fill="#000000" fill-rule="nonzero" fill-opacity="1" /><path clip-path="url(#clip710)" d="M407.792 1529.52 L413.897 1529.52 L413.897 1536.87 L407.792 1536.87 L407.792 1529.52 Z" fill="#000000" fill-rule="nonzero" fill-opacity="1" /><path clip-path="url(#clip710)" d="M439.128 1497.52 Q434.614 1497.52 432.328 1501.98 Q430.072 1506.4 430.072 1515.32 Q430.072 1524.2 432.328 1528.65 Q434.614 1533.08 439.128 1533.08 Q443.671 1533.08 445.928 1528.65 Q448.214 1524.2 448.214 1515.32 Q448.214 1506.4 445.928 1501.98 Q443.671 1497.52 439.128 1497.52 M439.128 1492.89 Q446.391 1492.89 450.21 1498.65 Q454.059 1504.38 454.059 1515.32 Q454.059 1526.22 450.21 1531.98 Q446.391 1537.71 439.128 1537.71 Q431.866 1537.71 428.017 1531.98 Q424.198 1526.22 424.198 1515.32 Q424.198 1504.38 428.017 1498.65 Q431.866 1492.89 439.128 1492.89 Z" fill="#000000" fill-rule="nonzero" fill-opacity="1" /><path clip-path="url(#clip710)" d="M464.388 1493.67 L487.334 1493.67 L487.334 1498.59 L469.741 1498.59 L469.741 1509.18 Q471.015 1508.75 472.288 1508.54 Q473.561 1508.31 474.834 1508.31 Q482.068 1508.31 486.292 1512.28 Q490.517 1516.24 490.517 1523.01 Q490.517 1529.99 486.177 1533.86 Q481.836 1537.71 473.937 1537.71 Q471.217 1537.71 468.382 1537.25 Q465.575 1536.79 462.566 1535.86 L462.566 1529.99 Q465.17 1531.4 467.948 1532.1 Q470.725 1532.79 473.821 1532.79 Q478.827 1532.79 481.75 1530.16 Q484.672 1527.53 484.672 1523.01 Q484.672 1518.5 481.75 1515.87 Q478.827 1513.23 473.821 1513.23 Q471.478 1513.23 469.134 1513.75 Q466.819 1514.27 464.388 1515.37 L464.388 1493.67 Z" fill="#000000" fill-rule="nonzero" fill-opacity="1" /><path clip-path="url(#clip710)" d="M381.345 1214.87 Q376.831 1214.87 374.545 1219.33 Q372.288 1223.75 372.288 1232.67 Q372.288 1241.55 374.545 1246.01 Q376.831 1250.43 381.345 1250.43 Q385.888 1250.43 388.145 1246.01 Q390.431 1241.55 390.431 1232.67 Q390.431 1223.75 388.145 1219.33 Q385.888 1214.87 381.345 1214.87 M381.345 1210.24 Q388.608 1210.24 392.427 1216 Q396.275 1221.73 396.275 1232.67 Q396.275 1243.57 392.427 1249.33 Q388.608 1255.06 381.345 1255.06 Q374.082 1255.06 370.234 1249.33 Q366.414 1243.57 366.414 1232.67 Q366.414 1221.73 370.234 1216 Q374.082 1210.24 381.345 1210.24 Z" fill="#000000" fill-rule="nonzero" fill-opacity="1" /><path clip-path="url(#clip710)" d="M406.547 1246.87 L412.653 1246.87 L412.653 1254.22 L406.547 1254.22 L406.547 1246.87 Z" fill="#000000" fill-rule="nonzero" fill-opacity="1" /><path clip-path="url(#clip710)" d="M437.884 1214.87 Q433.37 1214.87 431.084 1219.33 Q428.827 1223.75 428.827 1232.67 Q428.827 1241.55 431.084 1246.01 Q433.37 1250.43 437.884 1250.43 Q442.427 1250.43 444.684 1246.01 Q446.97 1241.55 446.97 1232.67 Q446.97 1223.75 444.684 1219.33 Q442.427 1214.87 437.884 1214.87 M437.884 1210.24 Q445.147 1210.24 448.966 1216 Q452.814 1221.73 452.814 1232.67 Q452.814 1243.57 448.966 1249.33 Q445.147 1255.06 437.884 1255.06 Q430.621 1255.06 426.773 1249.33 Q422.954 1243.57 422.954 1232.67 Q422.954 1221.73 426.773 1216 Q430.621 1210.24 437.884 1210.24 Z" fill="#000000" fill-rule="nonzero" fill-opacity="1" /><path clip-path="url(#clip710)" d="M475.586 1214.87 Q471.072 1214.87 468.787 1219.33 Q466.53 1223.75 466.53 1232.67 Q466.53 1241.55 468.787 1246.01 Q471.072 1250.43 475.586 1250.43 Q480.129 1250.43 482.386 1246.01 Q484.672 1241.55 484.672 1232.67 Q484.672 1223.75 482.386 1219.33 Q480.129 1214.87 475.586 1214.87 M475.586 1210.24 Q482.849 1210.24 486.668 1216 Q490.517 1221.73 490.517 1232.67 Q490.517 1243.57 486.668 1249.33 Q482.849 1255.06 475.586 1255.06 Q468.324 1255.06 464.475 1249.33 Q460.656 1243.57 460.656 1232.67 Q460.656 1221.73 464.475 1216 Q468.324 1210.24 475.586 1210.24 Z" fill="#000000" fill-rule="nonzero" fill-opacity="1" /><path clip-path="url(#clip710)" d="M382.589 932.222 Q378.075 932.222 375.789 936.678 Q373.533 941.105 373.533 950.017 Q373.533 958.9 375.789 963.356 Q378.075 967.783 382.589 967.783 Q387.132 967.783 389.389 963.356 Q391.675 958.9 391.675 950.017 Q391.675 941.105 389.389 936.678 Q387.132 932.222 382.589 932.222 M382.589 927.593 Q389.852 927.593 393.671 933.351 Q397.52 939.08 397.52 950.017 Q397.52 960.926 393.671 966.684 Q389.852 972.413 382.589 972.413 Q375.326 972.413 371.478 966.684 Q367.659 960.926 367.659 950.017 Q367.659 939.08 371.478 933.351 Q375.326 927.593 382.589 927.593 Z" fill="#000000" fill-rule="nonzero" fill-opacity="1" /><path clip-path="url(#clip710)" d="M407.792 964.224 L413.897 964.224 L413.897 971.574 L407.792 971.574 L407.792 964.224 Z" fill="#000000" fill-rule="nonzero" fill-opacity="1" /><path clip-path="url(#clip710)" d="M439.128 932.222 Q434.614 932.222 432.328 936.678 Q430.072 941.105 430.072 950.017 Q430.072 958.9 432.328 963.356 Q434.614 967.783 439.128 967.783 Q443.671 967.783 445.928 963.356 Q448.214 958.9 448.214 950.017 Q448.214 941.105 445.928 936.678 Q443.671 932.222 439.128 932.222 M439.128 927.593 Q446.391 927.593 450.21 933.351 Q454.059 939.08 454.059 950.017 Q454.059 960.926 450.21 966.684 Q446.391 972.413 439.128 972.413 Q431.866 972.413 428.017 966.684 Q424.198 960.926 424.198 950.017 Q424.198 939.08 428.017 933.351 Q431.866 927.593 439.128 927.593 Z" fill="#000000" fill-rule="nonzero" fill-opacity="1" /><path clip-path="url(#clip710)" d="M464.388 928.374 L487.334 928.374 L487.334 933.293 L469.741 933.293 L469.741 943.883 Q471.015 943.449 472.288 943.246 Q473.561 943.015 474.834 943.015 Q482.068 943.015 486.292 946.979 Q490.517 950.943 490.517 957.714 Q490.517 964.687 486.177 968.565 Q481.836 972.413 473.937 972.413 Q471.217 972.413 468.382 971.95 Q465.575 971.487 462.566 970.561 L462.566 964.687 Q465.17 966.105 467.948 966.8 Q470.725 967.494 473.821 967.494 Q478.827 967.494 481.75 964.861 Q484.672 962.228 484.672 957.714 Q484.672 953.2 481.75 950.567 Q478.827 947.934 473.821 947.934 Q471.478 947.934 469.134 948.455 Q466.819 948.976 464.388 950.075 L464.388 928.374 Z" fill="#000000" fill-rule="nonzero" fill-opacity="1" /><path clip-path="url(#clip710)" d="M381.345 649.573 Q376.831 649.573 374.545 654.029 Q372.288 658.456 372.288 667.368 Q372.288 676.251 374.545 680.707 Q376.831 685.134 381.345 685.134 Q385.888 685.134 388.145 680.707 Q390.431 676.251 390.431 667.368 Q390.431 658.456 388.145 654.029 Q385.888 649.573 381.345 649.573 M381.345 644.944 Q388.608 644.944 392.427 650.702 Q396.275 656.431 396.275 667.368 Q396.275 678.277 392.427 684.035 Q388.608 689.764 381.345 689.764 Q374.082 689.764 370.234 684.035 Q366.414 678.277 366.414 667.368 Q366.414 656.431 370.234 650.702 Q374.082 644.944 381.345 644.944 Z" fill="#000000" fill-rule="nonzero" fill-opacity="1" /><path clip-path="url(#clip710)" d="M406.547 681.575 L412.653 681.575 L412.653 688.925 L406.547 688.925 L406.547 681.575 Z" fill="#000000" fill-rule="nonzero" fill-opacity="1" /><path clip-path="url(#clip710)" d="M426.397 684.006 L435.945 684.006 L435.945 651.049 L425.558 653.132 L425.558 647.808 L435.887 645.725 L441.732 645.725 L441.732 684.006 L451.281 684.006 L451.281 688.925 L426.397 688.925 L426.397 684.006 Z" fill="#000000" fill-rule="nonzero" fill-opacity="1" /><path clip-path="url(#clip710)" d="M475.586 649.573 Q471.072 649.573 468.787 654.029 Q466.53 658.456 466.53 667.368 Q466.53 676.251 468.787 680.707 Q471.072 685.134 475.586 685.134 Q480.129 685.134 482.386 680.707 Q484.672 676.251 484.672 667.368 Q484.672 658.456 482.386 654.029 Q480.129 649.573 475.586 649.573 M475.586 644.944 Q482.849 644.944 486.668 650.702 Q490.517 656.431 490.517 667.368 Q490.517 678.277 486.668 684.035 Q482.849 689.764 475.586 689.764 Q468.324 689.764 464.475 684.035 Q460.656 678.277 460.656 667.368 Q460.656 656.431 464.475 650.702 Q468.324 644.944 475.586 644.944 Z" fill="#000000" fill-rule="nonzero" fill-opacity="1" /><path clip-path="url(#clip710)" d="M382.589 366.924 Q378.075 366.924 375.789 371.38 Q373.533 375.807 373.533 384.719 Q373.533 393.602 375.789 398.058 Q378.075 402.485 382.589 402.485 Q387.132 402.485 389.389 398.058 Q391.675 393.602 391.675 384.719 Q391.675 375.807 389.389 371.38 Q387.132 366.924 382.589 366.924 M382.589 362.295 Q389.852 362.295 393.671 368.053 Q397.52 373.782 397.52 384.719 Q397.52 395.628 393.671 401.386 Q389.852 407.115 382.589 407.115 Q375.326 407.115 371.478 401.386 Q367.659 395.628 367.659 384.719 Q367.659 373.782 371.478 368.053 Q375.326 362.295 382.589 362.295 Z" fill="#000000" fill-rule="nonzero" fill-opacity="1" /><path clip-path="url(#clip710)" d="M407.792 398.926 L413.897 398.926 L413.897 406.276 L407.792 406.276 L407.792 398.926 Z" fill="#000000" fill-rule="nonzero" fill-opacity="1" /><path clip-path="url(#clip710)" d="M427.641 401.357 L437.19 401.357 L437.19 368.4 L426.802 370.483 L426.802 365.159 L437.132 363.076 L442.977 363.076 L442.977 401.357 L452.525 401.357 L452.525 406.276 L427.641 406.276 L427.641 401.357 Z" fill="#000000" fill-rule="nonzero" fill-opacity="1" /><path clip-path="url(#clip710)" d="M464.388 363.076 L487.334 363.076 L487.334 367.995 L469.741 367.995 L469.741 378.585 Q471.015 378.151 472.288 377.948 Q473.561 377.717 474.834 377.717 Q482.068 377.717 486.292 381.681 Q490.517 385.645 490.517 392.416 Q490.517 399.389 486.177 403.267 Q481.836 407.115 473.937 407.115 Q471.217 407.115 468.382 406.652 Q465.575 406.189 462.566 405.263 L462.566 399.389 Q465.17 400.807 467.948 401.501 Q470.725 402.196 473.821 402.196 Q478.827 402.196 481.75 399.563 Q484.672 396.93 484.672 392.416 Q484.672 387.902 481.75 385.269 Q478.827 382.636 473.821 382.636 Q471.478 382.636 469.134 383.157 Q466.819 383.678 464.388 384.777 L464.388 363.076 Z" fill="#000000" fill-rule="nonzero" fill-opacity="1" /><path clip-path="url(#clip710)" d="M222.937 1025.3 L246.585 1034.02 L246.585 1016.54 L222.937 1025.3 M216.603 1028.93 L216.603 1021.64 L264.123 1003.53 L264.123 1010.21 L251.933 1014.54 L251.933 1035.96 L264.123 1040.29 L264.123 1047.07 L216.603 1028.93 Z" fill="#000000" fill-rule="nonzero" fill-opacity="1" /><path clip-path="url(#clip710)" d="M220.263 962.149 L227.043 962.149 Q224.019 965.395 222.523 969.087 Q221.027 972.748 221.027 976.885 Q221.027 985.033 226.024 989.362 Q230.989 993.691 240.411 993.691 Q249.8 993.691 254.797 989.362 Q259.762 985.033 259.762 976.885 Q259.762 972.748 258.266 969.087 Q256.77 965.395 253.747 962.149 L260.463 962.149 Q262.754 965.523 263.9 969.31 Q265.046 973.066 265.046 977.267 Q265.046 988.057 258.457 994.264 Q251.837 1000.47 240.411 1000.47 Q228.952 1000.47 222.364 994.264 Q215.743 988.057 215.743 977.267 Q215.743 973.002 216.889 969.247 Q218.003 965.459 220.263 962.149 Z" fill="#000000" fill-rule="nonzero" fill-opacity="1" /><path clip-path="url(#clip710)" d="M216.603 952.218 L216.603 924.909 L222.014 924.909 L222.014 945.789 L236.018 945.789 L236.018 926.946 L241.429 926.946 L241.429 945.789 L264.123 945.789 L264.123 952.218 L216.603 952.218 Z" fill="#000000" fill-rule="nonzero" fill-opacity="1" /><path clip-path="url(#clip710)" d="M232.581 880.445 Q232.581 885.156 236.273 887.893 Q239.933 890.63 246.331 890.63 Q252.728 890.63 256.42 887.925 Q260.081 885.187 260.081 880.445 Q260.081 875.766 256.389 873.029 Q252.696 870.292 246.331 870.292 Q239.997 870.292 236.305 873.029 Q232.581 875.766 232.581 880.445 M227.616 880.445 Q227.616 872.806 232.581 868.446 Q237.546 864.085 246.331 864.085 Q255.084 864.085 260.081 868.446 Q265.046 872.806 265.046 880.445 Q265.046 888.116 260.081 892.476 Q255.084 896.805 246.331 896.805 Q237.546 896.805 232.581 892.476 Q227.616 888.116 227.616 880.445 Z" fill="#000000" fill-rule="nonzero" fill-opacity="1" /><path clip-path="url(#clip710)" d="M214.598 836.331 L219.467 836.331 L219.467 841.932 Q219.467 845.083 220.741 846.325 Q222.014 847.534 225.324 847.534 L228.475 847.534 L228.475 837.89 L233.026 837.89 L233.026 847.534 L264.123 847.534 L264.123 853.422 L233.026 853.422 L233.026 859.024 L228.475 859.024 L228.475 853.422 L225.992 853.422 Q220.04 853.422 217.335 850.653 Q214.598 847.884 214.598 841.869 L214.598 836.331 Z" fill="#000000" fill-rule="nonzero" fill-opacity="1" /><path clip-path="url(#clip710)" d="M257.343 778.053 L244.58 778.053 L244.58 788.556 L239.297 788.556 L239.297 771.687 L259.699 771.687 Q262.34 775.411 263.709 779.899 Q265.046 784.386 265.046 789.479 Q265.046 800.619 258.553 806.921 Q252.028 813.191 240.411 813.191 Q228.761 813.191 222.268 806.921 Q215.743 800.619 215.743 789.479 Q215.743 784.832 216.889 780.662 Q218.035 776.461 220.263 772.928 L227.106 772.928 Q224.083 776.493 222.555 780.503 Q221.027 784.514 221.027 788.938 Q221.027 797.659 225.897 802.051 Q230.767 806.412 240.411 806.412 Q250.023 806.412 254.893 802.051 Q259.762 797.659 259.762 788.938 Q259.762 785.532 259.189 782.859 Q258.585 780.185 257.343 778.053 Z" fill="#000000" fill-rule="nonzero" fill-opacity="1" /><path clip-path="url(#clip710)" d="M274.945 733.111 L279.496 733.111 L279.496 766.976 L274.945 766.976 L274.945 733.111 Z" fill="#000000" fill-rule="nonzero" fill-opacity="1" /><path clip-path="url(#clip710)" d="M218.353 721.811 L228.475 721.811 L228.475 709.748 L233.026 709.748 L233.026 721.811 L252.378 721.811 Q256.739 721.811 257.98 720.634 Q259.221 719.424 259.221 715.764 L259.221 709.748 L264.123 709.748 L264.123 715.764 Q264.123 722.544 261.608 725.122 Q259.062 727.7 252.378 727.7 L233.026 727.7 L233.026 731.997 L228.475 731.997 L228.475 727.7 L218.353 727.7 L218.353 721.811 Z" fill="#000000" fill-rule="nonzero" fill-opacity="1" /><polyline clip-path="url(#clip712)" style="stroke:#ff0000; stroke-linecap:round; stroke-linejoin:round; stroke-width:8; stroke-opacity:1; fill:none" stroke-dasharray="32, 20" points="593.125,168.574 601.174,1163.28 609.223,1332.18 617.272,1287.47 625.321,1369.98 633.37,1443.43 641.419,881.318 649.468,1313.68 657.517,878.044 665.566,1336.41 673.615,1216.55 681.664,1322.18 689.712,1328.84 697.761,1313.79 705.81,1527.34 713.859,1081.02 721.908,1211.36 729.957,1274.96 738.006,1189.82 746.055,1055.04 754.104,1334.63 762.153,1558.18 770.202,1499.08 778.251,1358.35 786.3,1353.36 794.349,1450.33 802.398,1244.38 810.446,1130.6 818.495,1189.47 826.544,1398.51 834.593,1588.24 842.642,1522.57 850.691,1169.97 858.74,1159.67 866.789,1212.53 874.838,1003.17 882.887,1271.28 890.936,1197.67 898.985,1325.99 907.034,1404.91 915.083,1411.56 923.132,1217.77 931.18,1214.67 939.229,1262.35 947.278,1256.04 955.327,1418.11 963.376,1122.55 971.425,1267.2 979.474,1334.13 987.523,1314.54 995.572,1313.87 1003.62,1172.96 1011.67,1258.8 1019.72,1108.69 1027.77,1346.84 1035.82,1264.92 1043.87,1396.12 1051.91,1250.13 1059.96,1205.77 1068.01,1277.4 1076.06,1201.42 1084.11,1431.59 1092.16,1001.59 1100.21,1223.25 1108.26,1321.69 1116.31,1278.37 1124.35,1338.57 1132.4,1187.95 1140.45,1178.16 1148.5,1130.51 1156.55,1293.85 1164.6,1047.54 1172.65,1205.88 1180.7,1361.79 1188.75,1276.82 1196.8,1186.45 1204.84,1274.36 1212.89,1243.84 1220.94,1295.75 1228.99,1378.19 1237.04,1016.88 1245.09,983.491 1253.14,1221.62 1261.19,1388.78 1269.24,1361.06 1277.28,1355.97 1285.33,1158.63 1293.38,1138.4 1301.43,1286.32 1309.48,1181.84 1317.53,1278.47 1325.58,1315.18 1333.63,1451.91 1341.68,1350.94 1349.72,1242.06 1357.77,1036.66 1365.82,773.894 1373.87,1120.67 1381.92,1252.94 1389.97,1175.62 1398.02,1135.13 1406.07,1301.67 1414.12,1156.58 1422.17,1218.66 1430.21,1289.49 1438.26,1051.02 1446.31,1308.64 1454.36,1257.8 1462.41,1354.28 1470.46,1145.58 1478.51,1198.17 1486.56,1172.55 1494.61,1243.64 1502.65,1452.72 1510.7,1277.94 1518.75,1246.01 1526.8,1011.65 1534.85,1182.84 1542.9,1193.95 1550.95,1264.95 1559,1233.35 1567.05,1214.75 1575.1,1226.62 1583.14,1316.55 1591.19,1279.66 1599.24,1187.02 1607.29,1291.29 1615.34,1273.22 1623.39,1329.61 1631.44,1217.6 1639.49,1282.2 1647.54,1383.87 1655.58,1133.32 1663.63,1157.07 1671.68,923.925 1679.73,1395.02 1687.78,1277.36 1695.83,1213.05 1703.88,1251.36 1711.93,1463.66 1719.98,1425.37 1728.02,1153.68 1736.07,1345.43 1744.12,1275.62 1752.17,1277.79 1760.22,1163.62 1768.27,1141.73 1776.32,1200.23 1784.37,1174.47 1792.42,1237.42 1800.47,936.446 1808.51,1084.1 1816.56,1092.26 1824.61,967.124 1832.66,1060.7 1840.71,1191.46 1848.76,1318.03 1856.81,1184.66 1864.86,1076.79 1872.91,1102.18 1880.95,1328.65 1889,1280.25 1897.05,1153.75 1905.1,1351.55 1913.15,1300.88 1921.2,1198.06 1929.25,1173.81 1937.3,1157.75 1945.35,1244.54 1953.39,1440.19 1961.44,1178.49 1969.49,1118.77 1977.54,1164.3 1985.59,1424.86 1993.64,1183.31 2001.69,1270.48 2009.74,1348.58 2017.79,1210.14 2025.84,1158.44 2033.88,1172.69 2041.93,1490.75 2049.98,1324.17 2058.03,1335.15 2066.08,1145.57 2074.13,1158.76 2082.18,1115.6 2090.23,1063.07 2098.28,1281.7 2106.32,1349.9 2114.37,1422.05 2122.42,1270.26 2130.47,1312.29 2138.52,1175.58 2146.57,1185.88 2154.62,1277.98 2162.67,1157.79 2170.72,1282.39 2178.76,1369.14 2186.81,1226.59 2194.86,1234.49 2202.91,1160.51 2210.96,1195.92 2219.01,1218.27 2227.06,1379.78 2235.11,1225.47 2243.16,1101.86 2251.21,1039.8 2259.25,1303.69 2267.3,1289.64 2275.35,1196.05 2283.4,1299.49 2291.45,1128.72 2299.5,1256.24 2307.55,1181.08 2315.6,1285.05 2323.65,1290.39 2331.69,1087.73 2339.74,1202.49 2347.79,1097 2355.84,1228.82 2363.89,1314.41 2371.94,1488.59 2379.99,1191.43 2388.04,1211.81 2396.09,1233.1 2404.14,1279.37 2412.18,1372.08 2420.23,1514.57 2428.28,1240.26 2436.33,1296.02 2444.38,1168.44 2452.43,1130.83 2460.48,1323.3 2468.53,1371.49 2476.58,1291.36 2484.62,1370.25 2492.67,1385.97 2500.72,1090.82 2508.77,1162.58 2516.82,1213.9 2524.87,1210.36 2532.92,1198.8 2540.97,1237.39 2549.02,1208.1 2557.06,1035.75 2565.11,1205.24 2573.16,1303.8 2581.21,1198.07 2589.26,1180.76 2597.31,1208.61 2605.36,1182.29 2613.41,1329.12 "/>
<polyline clip-path="url(#clip712)" style="stroke:#000080; stroke-linecap:round; stroke-linejoin:round; stroke-width:8; stroke-opacity:1; fill:none" points="593.125,961.906 601.174,1085.21 609.223,1138.99 617.272,1147.88 625.321,1162.38 633.37,1178.46 641.419,1173.98 649.468,1202.87 657.517,1200.11 665.566,1184.05 673.615,1188.73 681.664,1213.2 689.712,1214.8 697.761,1212.37 705.81,1204.02 713.859,1221.68 721.908,1218.24 729.957,1217.87 738.006,1210 746.055,1221.06 754.104,1220.55 762.153,1209.19 770.202,1234.21 778.251,1242.99 786.3,1233.52 794.349,1227.52 802.398,1209.87 810.446,1215.57 818.495,1219.18 826.544,1228 834.593,1215.49 842.642,1229.86 850.691,1223.01 858.74,1234.39 866.789,1232.03 874.838,1250.58 882.887,1230.78 890.936,1229.22 898.985,1234.83 907.034,1218.9 915.083,1232.12 923.132,1233.04 931.18,1233.05 939.229,1235.82 947.278,1229.61 955.327,1231.33 963.376,1230.18 971.425,1227.49 979.474,1238.1 987.523,1237.58 995.572,1238.43 1003.62,1214.97 1011.67,1233.76 1019.72,1228.71 1027.77,1229.29 1035.82,1240.54 1043.87,1240.19 1051.91,1232.86 1059.96,1236.15 1068.01,1218.46 1076.06,1236.89 1084.11,1229.45 1092.16,1227 1100.21,1228.7 1108.26,1238.09 1116.31,1220.69 1124.35,1238.97 1132.4,1235.44 1140.45,1234.26 1148.5,1239.76 1156.55,1236.69 1164.6,1238.14 1172.65,1224.59 1180.7,1223.53 1188.75,1234.37 1196.8,1236.5 1204.84,1231.44 1212.89,1223.76 1220.94,1242.79 1228.99,1228.09 1237.04,1229.09 1245.09,1254.38 1253.14,1242.71 1261.19,1250.69 1269.24,1243.55 1277.28,1251.44 1285.33,1232.56 1293.38,1243.6 1301.43,1245.22 1309.48,1261.51 1317.53,1250.28 1325.58,1235 1333.63,1247.55 1341.68,1237.7 1349.72,1228.16 1357.77,1250.35 1365.82,1245.18 1373.87,1241.86 1381.92,1251.14 1389.97,1234.43 1398.02,1251.82 1406.07,1237.3 1414.12,1234.95 1422.17,1237.46 1430.21,1223.75 1438.26,1230.22 1446.31,1240.45 1454.36,1232.74 1462.41,1210.26 1470.46,1230.61 1478.51,1240.71 1486.56,1247.17 1494.61,1249.5 1502.65,1239.63 1510.7,1236.81 1518.75,1229.11 1526.8,1237.6 1534.85,1239.21 1542.9,1232.7 1550.95,1224.94 1559,1230.67 1567.05,1242.22 1575.1,1240.59 1583.14,1229.25 1591.19,1230.25 1599.24,1240.41 1607.29,1227.98 1615.34,1229.59 1623.39,1242.41 1631.44,1236.18 1639.49,1226.32 1647.54,1236.53 1655.58,1219.96 1663.63,1233.6 1671.68,1229.68 1679.73,1241.04 1687.78,1256.73 1695.83,1244.83 1703.88,1243.93 1711.93,1249.81 1719.98,1237.22 1728.02,1234.99 1736.07,1241.41 1744.12,1237.56 1752.17,1236.75 1760.22,1240.41 1768.27,1216.88 1776.32,1223.91 1784.37,1249.89 1792.42,1240.1 1800.47,1236.71 1808.51,1244.76 1816.56,1243.87 1824.61,1245.42 1832.66,1227.69 1840.71,1239 1848.76,1237.52 1856.81,1243.5 1864.86,1237.32 1872.91,1243.33 1880.95,1230.46 1889,1242.26 1897.05,1238.58 1905.1,1252.82 1913.15,1231.57 1921.2,1233.06 1929.25,1237.55 1937.3,1236.29 1945.35,1233.91 1953.39,1246.68 1961.44,1237.54 1969.49,1242.49 1977.54,1241.69 1985.59,1243.8 1993.64,1235.63 2001.69,1230.11 2009.74,1235 2017.79,1232.62 2025.84,1230.42 2033.88,1240.64 2041.93,1237.8 2049.98,1218.01 2058.03,1242.24 2066.08,1222.03 2074.13,1240.17 2082.18,1230.29 2090.23,1239.05 2098.28,1228.02 2106.32,1219.7 2114.37,1234.76 2122.42,1212.37 2130.47,1233.91 2138.52,1235.89 2146.57,1243.96 2154.62,1217.84 2162.67,1247.33 2170.72,1227.59 2178.76,1237.07 2186.81,1228.13 2194.86,1235.19 2202.91,1234.98 2210.96,1231.14 2219.01,1233.46 2227.06,1230.53 2235.11,1238.24 2243.16,1245.35 2251.21,1236.67 2259.25,1222.15 2267.3,1230.56 2275.35,1236.98 2283.4,1249.65 2291.45,1228.67 2299.5,1227.66 2307.55,1242.81 2315.6,1220.45 2323.65,1239.39 2331.69,1236.99 2339.74,1230.58 2347.79,1228.2 2355.84,1229.76 2363.89,1238.17 2371.94,1239.94 2379.99,1239.35 2388.04,1226.27 2396.09,1237.6 2404.14,1245.29 2412.18,1233.13 2420.23,1232.01 2428.28,1229.21 2436.33,1234.05 2444.38,1238.74 2452.43,1236.06 2460.48,1241.44 2468.53,1244.56 2476.58,1232.25 2484.62,1225.77 2492.67,1234.2 2500.72,1231.15 2508.77,1238.76 2516.82,1235.87 2524.87,1237.88 2532.92,1245.2 2540.97,1220.08 2549.02,1227.5 2557.06,1242.58 2565.11,1242.12 2573.16,1239.62 2581.21,1229.07 2589.26,1230.92 2597.31,1252.46 2605.36,1242.88 2613.41,1233.45 "/>
<path clip-path="url(#clip712)" d="M593.125 1203.48 L601.174 1324.09 L609.223 1355.96 L617.272 1369.21 L625.321 1394.18 L633.37 1382.31 L641.419 1354.6 L649.468 1391.44 L657.517 1424.19 L665.566 1371.24 L673.615 1377.89 L681.664 1415.94 L689.712 1388.72 L697.761 1377.39 L705.81 1372.01 L713.859 1420.07 L721.908 1398.65 L729.957 1383.03 L738.006 1378.4 L746.055 1393.94 L754.104 1393.03 L762.153 1371.65 L770.202 1390.76 L778.251 1417.51 L786.3 1404.94 L794.349 1376.43 L802.398 1374.24 L810.446 1362.52 L818.495 1367.16 L826.544 1377.71 L834.593 1350.78 L842.642 1391.22 L850.691 1393.66 L858.74 1389.73 L866.789 1376.04 L874.838 1395.27 L882.887 1387.57 L890.936 1385.31 L898.985 1396.57 L907.034 1387.84 L915.083 1382.7 L923.132 1379.12 L931.18 1401.04 L939.229 1381.29 L947.278 1381.94 L955.327 1377.21 L963.376 1387.41 L971.425 1378.07 L979.474 1386.99 L987.523 1376.41 L995.572 1372.87 L1003.62 1363.71 L1011.67 1382.53 L1019.72 1357.35 L1027.77 1382.6 L1035.82 1399.77 L1043.87 1367.62 L1051.91 1385.29 L1059.96 1401.55 L1068.01 1358.98 L1076.06 1379.88 L1084.11 1364.9 L1092.16 1366.69 L1100.21 1372.7 L1108.26 1376.78 L1116.31 1363.52 L1124.35 1372.37 L1132.4 1396.24 L1140.45 1370.21 L1148.5 1374.46 L1156.55 1368.26 L1164.6 1378.16 L1172.65 1354.34 L1180.7 1361.41 L1188.75 1367.46 L1196.8 1379.58 L1204.84 1370.57 L1212.89 1371.26 L1220.94 1375.03 L1228.99 1370.86 L1237.04 1360.93 L1245.09 1394.17 L1253.14 1400.37 L1261.19 1374.14 L1269.24 1394.73 L1277.28 1394.63 L1285.33 1393.41 L1293.38 1371.67 L1301.43 1386.81 L1309.48 1392.07 L1317.53 1390.01 L1325.58 1386.97 L1333.63 1385.29 L1341.68 1370.15 L1349.72 1393.7 L1357.77 1392.48 L1365.82 1385.13 L1373.87 1396.01 L1381.92 1379.68 L1389.97 1359.61 L1398.02 1361.69 L1406.07 1369.73 L1414.12 1359.75 L1422.17 1375.57 L1430.21 1357.65 L1438.26 1371.38 L1446.31 1369.36 L1454.36 1370.9 L1462.41 1339.94 L1470.46 1365.69 L1478.51 1406.14 L1486.56 1388.34 L1494.61 1379.88 L1502.65 1391.83 L1510.7 1372.73 L1518.75 1358.54 L1526.8 1376.11 L1534.85 1396.99 L1542.9 1365.15 L1550.95 1359.6 L1559 1378.18 L1567.05 1385.88 L1575.1 1391.07 L1583.14 1364.86 L1591.19 1378.9 L1599.24 1362.44 L1607.29 1351.18 L1615.34 1352.87 L1623.39 1387.95 L1631.44 1385.33 L1639.49 1376.22 L1647.54 1386.56 L1655.58 1357.79 L1663.63 1377.76 L1671.68 1350.83 L1679.73 1368.85 L1687.78 1388.87 L1695.83 1400.19 L1703.88 1374.19 L1711.93 1377.4 L1719.98 1362.3 L1728.02 1382.05 L1736.07 1384.96 L1744.12 1368.44 L1752.17 1369.89 L1760.22 1389.11 L1768.27 1362.13 L1776.32 1366.71 L1784.37 1384.79 L1792.42 1378.83 L1800.47 1376.91 L1808.51 1371.76 L1816.56 1388.88 L1824.61 1372.02 L1832.66 1359.74 L1840.71 1367.29 L1848.76 1391.26 L1856.81 1383.23 L1864.86 1382.06 L1872.91 1387.27 L1880.95 1370.83 L1889 1361.6 L1897.05 1382.61 L1905.1 1396.44 L1913.15 1354.42 L1921.2 1367.83 L1929.25 1374.12 L1937.3 1368.94 L1945.35 1378.22 L1953.39 1398.14 L1961.44 1366.13 L1969.49 1374.76 L1977.54 1384.68 L1985.59 1378.58 L1993.64 1384.5 L2001.69 1359.66 L2009.74 1380.07 L2017.79 1370.97 L2025.84 1379.52 L2033.88 1379.87 L2041.93 1381.64 L2049.98 1349.14 L2058.03 1368.09 L2066.08 1366.68 L2074.13 1389.2 L2082.18 1359.82 L2090.23 1366.85 L2098.28 1350.6 L2106.32 1344.13 L2114.37 1369.98 L2122.42 1345.66 L2130.47 1363.19 L2138.52 1362.59 L2146.57 1379.85 L2154.62 1330.68 L2162.67 1377.58 L2170.72 1356.4 L2178.76 1352.87 L2186.81 1359.51 L2194.86 1364.74 L2202.91 1363.48 L2210.96 1373.31 L2219.01 1376.51 L2227.06 1363.17 L2235.11 1382.48 L2243.16 1385.34 L2251.21 1399.41 L2259.25 1370.21 L2267.3 1373.64 L2275.35 1367.61 L2283.4 1380.38 L2291.45 1358.9 L2299.5 1362.93 L2307.55 1359.63 L2315.6 1360.46 L2323.65 1364.75 L2331.69 1384.56 L2339.74 1356.09 L2347.79 1365.89 L2355.84 1362.1 L2363.89 1390.81 L2371.94 1361.93 L2379.99 1358.89 L2388.04 1351.02 L2396.09 1358.79 L2404.14 1387.88 L2412.18 1367.69 L2420.23 1389.17 L2428.28 1360.7 L2436.33 1391.02 L2444.38 1386.78 L2452.43 1358.6 L2460.48 1378.3 L2468.53 1407.61 L2476.58 1377.33 L2484.62 1370.13 L2492.67 1366.45 L2500.72 1384.64 L2508.77 1390.01 L2516.82 1356.55 L2524.87 1381.02 L2532.92 1378.63 L2540.97 1344.19 L2549.02 1359.64 L2557.06 1408.88 L2565.11 1362.72 L2573.16 1367.68 L2581.21 1361.04 L2589.26 1369.36 L2597.31 1381.52 L2605.36 1359.39 L2613.41 1358.96 L2613.41 1103.82 L2605.36 1101.79 L2597.31 1106.42 L2589.26 1103.57 L2581.21 1102.31 L2573.16 1092.44 L2565.11 1102.68 L2557.06 1106.35 L2549.02 1078.53 L2540.97 1080.69 L2532.92 1123.75 L2524.87 1105.36 L2516.82 1115.27 L2508.77 1104.42 L2500.72 1099.46 L2492.67 1096.36 L2484.62 1086.48 L2476.58 1087.82 L2468.53 1094.91 L2460.48 1087.48 L2452.43 1092.72 L2444.38 1095.3 L2436.33 1081.58 L2428.28 1100.89 L2420.23 1092.82 L2412.18 1098.93 L2404.14 1102.2 L2396.09 1097.61 L2388.04 1086.52 L2379.99 1100.92 L2371.94 1081.81 L2363.89 1112.82 L2355.84 1091.8 L2347.79 1100.79 L2339.74 1102.42 L2331.69 1086.19 L2323.65 1112.8 L2315.6 1070.89 L2307.55 1103.87 L2299.5 1089.82 L2291.45 1104 L2283.4 1115.19 L2275.35 1108.55 L2267.3 1088.96 L2259.25 1079.4 L2251.21 1100.83 L2243.16 1112.06 L2235.11 1108.47 L2227.06 1105.32 L2219.01 1097.14 L2210.96 1083.14 L2202.91 1092.52 L2194.86 1101.97 L2186.81 1094.32 L2178.76 1114.08 L2170.72 1082.94 L2162.67 1109.86 L2154.62 1099.49 L2146.57 1117.77 L2138.52 1112.26 L2130.47 1092.75 L2122.42 1068.33 L2114.37 1098.35 L2106.32 1085.94 L2098.28 1095.45 L2090.23 1096.18 L2082.18 1088.35 L2074.13 1103.42 L2066.08 1079.63 L2058.03 1112.82 L2049.98 1068.84 L2041.93 1086.34 L2033.88 1080.5 L2025.84 1093.19 L2017.79 1097.75 L2009.74 1093.3 L2001.69 1075.11 L1993.64 1085.87 L1985.59 1098.42 L1977.54 1112.24 L1969.49 1107.5 L1961.44 1110.34 L1953.39 1091.38 L1945.35 1096.41 L1937.3 1101.66 L1929.25 1094.52 L1921.2 1101.62 L1913.15 1093.49 L1905.1 1126.91 L1897.05 1085.9 L1889 1128.4 L1880.95 1098.1 L1872.91 1119.24 L1864.86 1092.29 L1856.81 1098.81 L1848.76 1082.34 L1840.71 1116.34 L1832.66 1087.1 L1824.61 1120.34 L1816.56 1096.79 L1808.51 1123.71 L1800.47 1098.56 L1792.42 1105.88 L1784.37 1119.91 L1776.32 1088.75 L1768.27 1070.86 L1760.22 1094.21 L1752.17 1106.52 L1744.12 1085.29 L1736.07 1104.22 L1728.02 1090.66 L1719.98 1108.98 L1711.93 1092.29 L1703.88 1121.88 L1695.83 1086.4 L1687.78 1102.42 L1679.73 1104.34 L1671.68 1091.72 L1663.63 1107.84 L1655.58 1089.25 L1647.54 1093.84 L1639.49 1078.07 L1631.44 1082.82 L1623.39 1109.63 L1615.34 1108.11 L1607.29 1077.26 L1599.24 1109.63 L1591.19 1090.17 L1583.14 1083.24 L1575.1 1104.4 L1567.05 1090.7 L1559 1080.57 L1550.95 1096.35 L1542.9 1103.84 L1534.85 1099.25 L1526.8 1089.07 L1518.75 1103.18 L1510.7 1112.64 L1502.65 1095.38 L1494.61 1101.78 L1486.56 1116.3 L1478.51 1100.94 L1470.46 1113.13 L1462.41 1070.69 L1454.36 1092.7 L1446.31 1097.46 L1438.26 1079.32 L1430.21 1076.03 L1422.17 1093.53 L1414.12 1104.89 L1406.07 1122.9 L1398.02 1132.98 L1389.97 1120.89 L1381.92 1101.74 L1373.87 1102.5 L1365.82 1107.48 L1357.77 1099.43 L1349.72 1078.92 L1341.68 1101.69 L1333.63 1092.4 L1325.58 1061.58 L1317.53 1100.48 L1309.48 1118.74 L1301.43 1133.06 L1293.38 1098.72 L1285.33 1075.31 L1277.28 1107.82 L1269.24 1093.89 L1261.19 1100.05 L1253.14 1105.18 L1245.09 1112.56 L1237.04 1106.79 L1228.99 1086.3 L1220.94 1112.08 L1212.89 1080.34 L1204.84 1093.59 L1196.8 1085.99 L1188.75 1101.61 L1180.7 1105.98 L1172.65 1094.91 L1164.6 1099.53 L1156.55 1103.63 L1148.5 1114.4 L1140.45 1082.84 L1132.4 1104.74 L1124.35 1103.58 L1116.31 1090.07 L1108.26 1079.64 L1100.21 1103.24 L1092.16 1084.87 L1084.11 1096.58 L1076.06 1085.91 L1068.01 1072.35 L1059.96 1088.88 L1051.91 1068.14 L1043.87 1097.95 L1035.82 1089.03 L1027.77 1088.33 L1019.72 1103.34 L1011.67 1080.46 L1003.62 1044.53 L995.572 1096.05 L987.523 1090.55 L979.474 1098.33 L971.425 1086.58 L963.376 1089.16 L955.327 1072.2 L947.278 1074.62 L939.229 1105.19 L931.18 1084.29 L923.132 1099.05 L915.083 1095.71 L907.034 1059.34 L898.985 1076.05 L890.936 1073.89 L882.887 1090.93 L874.838 1103.8 L866.789 1073.59 L858.74 1085.52 L850.691 1034.83 L842.642 1084.4 L834.593 1058.94 L826.544 1064.78 L818.495 1080.39 L810.446 1070.57 L802.398 1048.21 L794.349 1081.92 L786.3 1092.14 L778.251 1072.61 L770.202 1076.27 L762.153 1038.12 L754.104 1081.37 L746.055 1064.81 L738.006 1017.58 L729.957 1042.18 L721.908 1026.34 L713.859 1051.56 L705.81 1023.04 L697.761 1019.53 L689.712 1047.95 L681.664 1029.85 L673.615 973.949 L665.566 997.77 L657.517 1005.39 L649.468 1014.59 L641.419 971.2 L633.37 929.93 L625.321 953.027 L617.272 901.211 L609.223 927.814 L601.174 847.628 L593.125 716.243  Z" fill="#000080" fill-rule="evenodd" fill-opacity="0.15"/>
<polyline clip-path="url(#clip712)" style="stroke:#000080; stroke-linecap:round; stroke-linejoin:round; stroke-width:4; stroke-opacity:0.15; fill:none" points="593.125,1203.48 601.174,1324.09 609.223,1355.96 617.272,1369.21 625.321,1394.18 633.37,1382.31 641.419,1354.6 649.468,1391.44 657.517,1424.19 665.566,1371.24 673.615,1377.89 681.664,1415.94 689.712,1388.72 697.761,1377.39 705.81,1372.01 713.859,1420.07 721.908,1398.65 729.957,1383.03 738.006,1378.4 746.055,1393.94 754.104,1393.03 762.153,1371.65 770.202,1390.76 778.251,1417.51 786.3,1404.94 794.349,1376.43 802.398,1374.24 810.446,1362.52 818.495,1367.16 826.544,1377.71 834.593,1350.78 842.642,1391.22 850.691,1393.66 858.74,1389.73 866.789,1376.04 874.838,1395.27 882.887,1387.57 890.936,1385.31 898.985,1396.57 907.034,1387.84 915.083,1382.7 923.132,1379.12 931.18,1401.04 939.229,1381.29 947.278,1381.94 955.327,1377.21 963.376,1387.41 971.425,1378.07 979.474,1386.99 987.523,1376.41 995.572,1372.87 1003.62,1363.71 1011.67,1382.53 1019.72,1357.35 1027.77,1382.6 1035.82,1399.77 1043.87,1367.62 1051.91,1385.29 1059.96,1401.55 1068.01,1358.98 1076.06,1379.88 1084.11,1364.9 1092.16,1366.69 1100.21,1372.7 1108.26,1376.78 1116.31,1363.52 1124.35,1372.37 1132.4,1396.24 1140.45,1370.21 1148.5,1374.46 1156.55,1368.26 1164.6,1378.16 1172.65,1354.34 1180.7,1361.41 1188.75,1367.46 1196.8,1379.58 1204.84,1370.57 1212.89,1371.26 1220.94,1375.03 1228.99,1370.86 1237.04,1360.93 1245.09,1394.17 1253.14,1400.37 1261.19,1374.14 1269.24,1394.73 1277.28,1394.63 1285.33,1393.41 1293.38,1371.67 1301.43,1386.81 1309.48,1392.07 1317.53,1390.01 1325.58,1386.97 1333.63,1385.29 1341.68,1370.15 1349.72,1393.7 1357.77,1392.48 1365.82,1385.13 1373.87,1396.01 1381.92,1379.68 1389.97,1359.61 1398.02,1361.69 1406.07,1369.73 1414.12,1359.75 1422.17,1375.57 1430.21,1357.65 1438.26,1371.38 1446.31,1369.36 1454.36,1370.9 1462.41,1339.94 1470.46,1365.69 1478.51,1406.14 1486.56,1388.34 1494.61,1379.88 1502.65,1391.83 1510.7,1372.73 1518.75,1358.54 1526.8,1376.11 1534.85,1396.99 1542.9,1365.15 1550.95,1359.6 1559,1378.18 1567.05,1385.88 1575.1,1391.07 1583.14,1364.86 1591.19,1378.9 1599.24,1362.44 1607.29,1351.18 1615.34,1352.87 1623.39,1387.95 1631.44,1385.33 1639.49,1376.22 1647.54,1386.56 1655.58,1357.79 1663.63,1377.76 1671.68,1350.83 1679.73,1368.85 1687.78,1388.87 1695.83,1400.19 1703.88,1374.19 1711.93,1377.4 1719.98,1362.3 1728.02,1382.05 1736.07,1384.96 1744.12,1368.44 1752.17,1369.89 1760.22,1389.11 1768.27,1362.13 1776.32,1366.71 1784.37,1384.79 1792.42,1378.83 1800.47,1376.91 1808.51,1371.76 1816.56,1388.88 1824.61,1372.02 1832.66,1359.74 1840.71,1367.29 1848.76,1391.26 1856.81,1383.23 1864.86,1382.06 1872.91,1387.27 1880.95,1370.83 1889,1361.6 1897.05,1382.61 1905.1,1396.44 1913.15,1354.42 1921.2,1367.83 1929.25,1374.12 1937.3,1368.94 1945.35,1378.22 1953.39,1398.14 1961.44,1366.13 1969.49,1374.76 1977.54,1384.68 1985.59,1378.58 1993.64,1384.5 2001.69,1359.66 2009.74,1380.07 2017.79,1370.97 2025.84,1379.52 2033.88,1379.87 2041.93,1381.64 2049.98,1349.14 2058.03,1368.09 2066.08,1366.68 2074.13,1389.2 2082.18,1359.82 2090.23,1366.85 2098.28,1350.6 2106.32,1344.13 2114.37,1369.98 2122.42,1345.66 2130.47,1363.19 2138.52,1362.59 2146.57,1379.85 2154.62,1330.68 2162.67,1377.58 2170.72,1356.4 2178.76,1352.87 2186.81,1359.51 2194.86,1364.74 2202.91,1363.48 2210.96,1373.31 2219.01,1376.51 2227.06,1363.17 2235.11,1382.48 2243.16,1385.34 2251.21,1399.41 2259.25,1370.21 2267.3,1373.64 2275.35,1367.61 2283.4,1380.38 2291.45,1358.9 2299.5,1362.93 2307.55,1359.63 2315.6,1360.46 2323.65,1364.75 2331.69,1384.56 2339.74,1356.09 2347.79,1365.89 2355.84,1362.1 2363.89,1390.81 2371.94,1361.93 2379.99,1358.89 2388.04,1351.02 2396.09,1358.79 2404.14,1387.88 2412.18,1367.69 2420.23,1389.17 2428.28,1360.7 2436.33,1391.02 2444.38,1386.78 2452.43,1358.6 2460.48,1378.3 2468.53,1407.61 2476.58,1377.33 2484.62,1370.13 2492.67,1366.45 2500.72,1384.64 2508.77,1390.01 2516.82,1356.55 2524.87,1381.02 2532.92,1378.63 2540.97,1344.19 2549.02,1359.64 2557.06,1408.88 2565.11,1362.72 2573.16,1367.68 2581.21,1361.04 2589.26,1369.36 2597.31,1381.52 2605.36,1359.39 2613.41,1358.96 "/>
<polyline clip-path="url(#clip712)" style="stroke:#808080; stroke-linecap:round; stroke-linejoin:round; stroke-width:4; stroke-opacity:1; fill:none" stroke-dasharray="16, 10" points="-1608.98,942.309 4815.51,942.309 "/>
<polyline clip-path="url(#clip712)" style="stroke:#808080; stroke-linecap:round; stroke-linejoin:round; stroke-width:4; stroke-opacity:1; fill:none" stroke-dasharray="16, 10" points="-1608.98,1522.94 4815.51,1522.94 "/>
<path clip-path="url(#clip710)" d="M2016.87 467.746 L2602.63 467.746 L2602.63 176.146 L2016.87 176.146  Z" fill="#ffffff" fill-rule="evenodd" fill-opacity="1"/>
<polyline clip-path="url(#clip710)" style="stroke:#000000; stroke-linecap:round; stroke-linejoin:round; stroke-width:4; stroke-opacity:1; fill:none" points="2016.87,467.746 2602.63,467.746 2602.63,176.146 2016.87,176.146 2016.87,467.746 "/>
<polyline clip-path="url(#clip710)" style="stroke:#ff0000; stroke-linecap:round; stroke-linejoin:round; stroke-width:9; stroke-opacity:1; fill:none" stroke-dasharray="36, 23" points="2040.66,234.466 2183.43,234.466 "/>
<path clip-path="url(#clip710)" d="M2225.25 218.594 Q2219.52 218.594 2216.13 222.864 Q2212.77 227.135 2212.77 234.505 Q2212.77 241.849 2216.13 246.119 Q2219.52 250.39 2225.25 250.39 Q2230.98 250.39 2234.31 246.119 Q2237.67 241.849 2237.67 234.505 Q2237.67 227.135 2234.31 222.864 Q2230.98 218.594 2225.25 218.594 M2225.25 214.323 Q2233.42 214.323 2238.32 219.817 Q2243.21 225.286 2243.21 234.505 Q2243.21 243.698 2238.32 249.192 Q2233.42 254.661 2225.25 254.661 Q2217.04 254.661 2212.12 249.192 Q2207.23 243.724 2207.23 234.505 Q2207.23 225.286 2212.12 219.817 Q2217.04 214.323 2225.25 214.323 Z" fill="#000000" fill-rule="nonzero" fill-opacity="1" /><path clip-path="url(#clip710)" d="M2272.17 239.349 Q2272.17 234.062 2269.99 231.067 Q2267.82 228.047 2264.02 228.047 Q2260.22 228.047 2258.03 231.067 Q2255.87 234.062 2255.87 239.349 Q2255.87 244.635 2258.03 247.656 Q2260.22 250.651 2264.02 250.651 Q2267.82 250.651 2269.99 247.656 Q2272.17 244.635 2272.17 239.349 M2255.87 229.166 Q2257.38 226.562 2259.67 225.312 Q2261.99 224.036 2265.19 224.036 Q2270.51 224.036 2273.81 228.255 Q2277.15 232.474 2277.15 239.349 Q2277.15 246.224 2273.81 250.442 Q2270.51 254.661 2265.19 254.661 Q2261.99 254.661 2259.67 253.411 Q2257.38 252.135 2255.87 249.531 L2255.87 253.906 L2251.05 253.906 L2251.05 213.385 L2255.87 213.385 L2255.87 229.166 Z" fill="#000000" fill-rule="nonzero" fill-opacity="1" /><path clip-path="url(#clip710)" d="M2303.68 225.599 L2303.68 230.13 Q2301.65 229.088 2299.46 228.567 Q2297.28 228.047 2294.93 228.047 Q2291.37 228.047 2289.57 229.14 Q2287.8 230.234 2287.8 232.422 Q2287.8 234.088 2289.07 235.052 Q2290.35 235.989 2294.2 236.849 L2295.84 237.213 Q2300.95 238.307 2303.08 240.312 Q2305.25 242.291 2305.25 245.859 Q2305.25 249.921 2302.02 252.291 Q2298.81 254.661 2293.19 254.661 Q2290.84 254.661 2288.29 254.192 Q2285.77 253.75 2282.95 252.838 L2282.95 247.89 Q2285.61 249.27 2288.19 249.974 Q2290.77 250.651 2293.29 250.651 Q2296.68 250.651 2298.5 249.505 Q2300.32 248.333 2300.32 246.224 Q2300.32 244.27 2299 243.229 Q2297.69 242.187 2293.24 241.224 L2291.57 240.833 Q2287.12 239.895 2285.14 237.968 Q2283.16 236.015 2283.16 232.63 Q2283.16 228.515 2286.08 226.276 Q2289 224.036 2294.36 224.036 Q2297.02 224.036 2299.36 224.427 Q2301.7 224.817 2303.68 225.599 Z" fill="#000000" fill-rule="nonzero" fill-opacity="1" /><path clip-path="url(#clip710)" d="M2337.82 238.125 L2337.82 240.468 L2315.79 240.468 Q2316.11 245.416 2318.76 248.02 Q2321.44 250.599 2326.21 250.599 Q2328.97 250.599 2331.55 249.921 Q2334.15 249.244 2336.7 247.89 L2336.7 252.421 Q2334.13 253.515 2331.42 254.088 Q2328.71 254.661 2325.92 254.661 Q2318.94 254.661 2314.86 250.599 Q2310.79 246.536 2310.79 239.609 Q2310.79 232.448 2314.65 228.255 Q2318.53 224.036 2325.09 224.036 Q2330.97 224.036 2334.39 227.838 Q2337.82 231.614 2337.82 238.125 M2333.03 236.718 Q2332.98 232.786 2330.82 230.442 Q2328.68 228.099 2325.14 228.099 Q2321.13 228.099 2318.71 230.364 Q2316.31 232.63 2315.95 236.744 L2333.03 236.718 Z" fill="#000000" fill-rule="nonzero" fill-opacity="1" /><path clip-path="url(#clip710)" d="M2362.59 229.218 Q2361.78 228.75 2360.82 228.541 Q2359.88 228.307 2358.74 228.307 Q2354.67 228.307 2352.49 230.963 Q2350.32 233.593 2350.32 238.541 L2350.32 253.906 L2345.51 253.906 L2345.51 224.739 L2350.32 224.739 L2350.32 229.271 Q2351.83 226.614 2354.26 225.338 Q2356.68 224.036 2360.14 224.036 Q2360.64 224.036 2361.24 224.114 Q2361.83 224.166 2362.56 224.297 L2362.59 229.218 Z" fill="#000000" fill-rule="nonzero" fill-opacity="1" /><path clip-path="url(#clip710)" d="M2364.18 224.739 L2369.26 224.739 L2378.37 249.218 L2387.48 224.739 L2392.56 224.739 L2381.63 253.906 L2375.12 253.906 L2364.18 224.739 Z" fill="#000000" fill-rule="nonzero" fill-opacity="1" /><path clip-path="url(#clip710)" d="M2424.13 238.125 L2424.13 240.468 L2402.09 240.468 Q2402.41 245.416 2405.06 248.02 Q2407.75 250.599 2412.51 250.599 Q2415.27 250.599 2417.85 249.921 Q2420.45 249.244 2423.01 247.89 L2423.01 252.421 Q2420.43 253.515 2417.72 254.088 Q2415.01 254.661 2412.22 254.661 Q2405.25 254.661 2401.16 250.599 Q2397.09 246.536 2397.09 239.609 Q2397.09 232.448 2400.95 228.255 Q2404.83 224.036 2411.39 224.036 Q2417.28 224.036 2420.69 227.838 Q2424.13 231.614 2424.13 238.125 M2419.33 236.718 Q2419.28 232.786 2417.12 230.442 Q2414.98 228.099 2411.44 228.099 Q2407.43 228.099 2405.01 230.364 Q2402.62 232.63 2402.25 236.744 L2419.33 236.718 Z" fill="#000000" fill-rule="nonzero" fill-opacity="1" /><path clip-path="url(#clip710)" d="M2451.18 229.166 L2451.18 213.385 L2455.97 213.385 L2455.97 253.906 L2451.18 253.906 L2451.18 249.531 Q2449.67 252.135 2447.35 253.411 Q2445.06 254.661 2441.83 254.661 Q2436.55 254.661 2433.21 250.442 Q2429.91 246.224 2429.91 239.349 Q2429.91 232.474 2433.21 228.255 Q2436.55 224.036 2441.83 224.036 Q2445.06 224.036 2447.35 225.312 Q2449.67 226.562 2451.18 229.166 M2434.85 239.349 Q2434.85 244.635 2437.02 247.656 Q2439.2 250.651 2443.01 250.651 Q2446.81 250.651 2448.99 247.656 Q2451.18 244.635 2451.18 239.349 Q2451.18 234.062 2448.99 231.067 Q2446.81 228.047 2443.01 228.047 Q2439.2 228.047 2437.02 231.067 Q2434.85 234.062 2434.85 239.349 Z" fill="#000000" fill-rule="nonzero" fill-opacity="1" /><polyline clip-path="url(#clip710)" style="stroke:#000080; stroke-linecap:round; stroke-linejoin:round; stroke-width:9; stroke-opacity:1; fill:none" points="2040.66,292.786 2183.43,292.786 "/>
<path clip-path="url(#clip710)" d="M2238.58 276.341 L2238.58 281.887 Q2235.92 279.414 2232.9 278.19 Q2229.91 276.966 2226.52 276.966 Q2219.86 276.966 2216.31 281.054 Q2212.77 285.117 2212.77 292.825 Q2212.77 300.507 2216.31 304.596 Q2219.86 308.658 2226.52 308.658 Q2229.91 308.658 2232.9 307.434 Q2235.92 306.21 2238.58 303.736 L2238.58 309.231 Q2235.82 311.106 2232.72 312.044 Q2229.65 312.981 2226.21 312.981 Q2217.38 312.981 2212.3 307.59 Q2207.23 302.174 2207.23 292.825 Q2207.23 283.45 2212.3 278.059 Q2217.38 272.643 2226.21 272.643 Q2229.7 272.643 2232.77 273.58 Q2235.87 274.492 2238.58 276.341 Z" fill="#000000" fill-rule="nonzero" fill-opacity="1" /><path clip-path="url(#clip710)" d="M2246.7 273.346 L2251.96 273.346 L2251.96 289.283 L2271.08 289.283 L2271.08 273.346 L2276.34 273.346 L2276.34 312.226 L2271.08 312.226 L2271.08 293.71 L2251.96 293.71 L2251.96 312.226 L2246.7 312.226 L2246.7 273.346 Z" fill="#000000" fill-rule="nonzero" fill-opacity="1" /><path clip-path="url(#clip710)" d="M2286.81 273.346 L2294.65 273.346 L2304.57 299.804 L2314.54 273.346 L2322.38 273.346 L2322.38 312.226 L2317.25 312.226 L2317.25 278.085 L2307.22 304.752 L2301.94 304.752 L2291.91 278.085 L2291.91 312.226 L2286.81 312.226 L2286.81 273.346 Z" fill="#000000" fill-rule="nonzero" fill-opacity="1" /><path clip-path="url(#clip710)" d="M2332.82 273.346 L2340.66 273.346 L2350.58 299.804 L2360.56 273.346 L2368.4 273.346 L2368.4 312.226 L2363.27 312.226 L2363.27 278.085 L2353.24 304.752 L2347.95 304.752 L2337.93 278.085 L2337.93 312.226 L2332.82 312.226 L2332.82 273.346 Z" fill="#000000" fill-rule="nonzero" fill-opacity="1" /><path clip-path="url(#clip710)" d="M2407.09 271.757 Q2403.6 277.747 2401.91 283.606 Q2400.22 289.466 2400.22 295.481 Q2400.22 301.497 2401.91 307.408 Q2403.63 313.294 2407.09 319.257 L2402.93 319.257 Q2399.02 313.137 2397.07 307.226 Q2395.14 301.314 2395.14 295.481 Q2395.14 289.674 2397.07 283.788 Q2399 277.903 2402.93 271.757 L2407.09 271.757 Z" fill="#000000" fill-rule="nonzero" fill-opacity="1" /><path clip-path="url(#clip710)" d="M2439.1 288.658 Q2440.9 285.429 2443.4 283.893 Q2445.9 282.356 2449.28 282.356 Q2453.84 282.356 2456.31 285.559 Q2458.79 288.736 2458.79 294.622 L2458.79 312.226 L2453.97 312.226 L2453.97 294.778 Q2453.97 290.585 2452.48 288.554 Q2451 286.523 2447.95 286.523 Q2444.23 286.523 2442.07 288.997 Q2439.91 291.471 2439.91 295.742 L2439.91 312.226 L2435.09 312.226 L2435.09 294.778 Q2435.09 290.559 2433.6 288.554 Q2432.12 286.523 2429.02 286.523 Q2425.35 286.523 2423.19 289.023 Q2421.03 291.497 2421.03 295.742 L2421.03 312.226 L2416.21 312.226 L2416.21 283.059 L2421.03 283.059 L2421.03 287.591 Q2422.67 284.908 2424.96 283.632 Q2427.25 282.356 2430.4 282.356 Q2433.58 282.356 2435.79 283.971 Q2438.03 285.585 2439.1 288.658 Z" fill="#000000" fill-rule="nonzero" fill-opacity="1" /><path clip-path="url(#clip710)" d="M2493.29 296.445 L2493.29 298.788 L2471.26 298.788 Q2471.57 303.736 2474.23 306.34 Q2476.91 308.919 2481.68 308.919 Q2484.44 308.919 2487.02 308.241 Q2489.62 307.564 2492.17 306.21 L2492.17 310.741 Q2489.59 311.835 2486.89 312.408 Q2484.18 312.981 2481.39 312.981 Q2474.41 312.981 2470.32 308.919 Q2466.26 304.856 2466.26 297.929 Q2466.26 290.768 2470.11 286.575 Q2473.99 282.356 2480.56 282.356 Q2486.44 282.356 2489.85 286.158 Q2493.29 289.934 2493.29 296.445 M2488.5 295.038 Q2488.45 291.106 2486.29 288.762 Q2484.15 286.419 2480.61 286.419 Q2476.6 286.419 2474.18 288.684 Q2471.78 290.95 2471.42 295.064 L2488.5 295.038 Z" fill="#000000" fill-rule="nonzero" fill-opacity="1" /><path clip-path="url(#clip710)" d="M2514.41 297.564 Q2508.6 297.564 2506.36 298.893 Q2504.12 300.221 2504.12 303.424 Q2504.12 305.976 2505.79 307.486 Q2507.48 308.971 2510.37 308.971 Q2514.36 308.971 2516.76 306.158 Q2519.18 303.32 2519.18 298.632 L2519.18 297.564 L2514.41 297.564 M2523.97 295.585 L2523.97 312.226 L2519.18 312.226 L2519.18 307.799 Q2517.54 310.455 2515.09 311.731 Q2512.64 312.981 2509.1 312.981 Q2504.62 312.981 2501.96 310.481 Q2499.33 307.955 2499.33 303.736 Q2499.33 298.814 2502.61 296.314 Q2505.92 293.814 2512.46 293.814 L2519.18 293.814 L2519.18 293.346 Q2519.18 290.038 2516.99 288.242 Q2514.83 286.419 2510.9 286.419 Q2508.4 286.419 2506.03 287.018 Q2503.66 287.617 2501.47 288.814 L2501.47 284.387 Q2504.1 283.372 2506.57 282.877 Q2509.05 282.356 2511.39 282.356 Q2517.72 282.356 2520.84 285.637 Q2523.97 288.919 2523.97 295.585 Z" fill="#000000" fill-rule="nonzero" fill-opacity="1" /><path clip-path="url(#clip710)" d="M2558.08 294.622 L2558.08 312.226 L2553.29 312.226 L2553.29 294.778 Q2553.29 290.637 2551.68 288.58 Q2550.06 286.523 2546.83 286.523 Q2542.95 286.523 2540.71 288.997 Q2538.47 291.471 2538.47 295.742 L2538.47 312.226 L2533.66 312.226 L2533.66 283.059 L2538.47 283.059 L2538.47 287.591 Q2540.19 284.96 2542.51 283.658 Q2544.85 282.356 2547.9 282.356 Q2552.93 282.356 2555.5 285.481 Q2558.08 288.58 2558.08 294.622 Z" fill="#000000" fill-rule="nonzero" fill-opacity="1" /><path clip-path="url(#clip710)" d="M2566.88 271.757 L2571.05 271.757 Q2574.96 277.903 2576.88 283.788 Q2578.84 289.674 2578.84 295.481 Q2578.84 301.314 2576.88 307.226 Q2574.96 313.137 2571.05 319.257 L2566.88 319.257 Q2570.35 313.294 2572.04 307.408 Q2573.76 301.497 2573.76 295.481 Q2573.76 289.466 2572.04 283.606 Q2570.35 277.747 2566.88 271.757 Z" fill="#000000" fill-rule="nonzero" fill-opacity="1" /><path clip-path="url(#clip710)" d="M2040.66 374.434 L2183.43 374.434 L2183.43 327.778 L2040.66 327.778 L2040.66 374.434  Z" fill="#000080" fill-rule="evenodd" fill-opacity="0.15"/>
<polyline clip-path="url(#clip710)" style="stroke:#000080; stroke-linecap:round; stroke-linejoin:round; stroke-width:4.5; stroke-opacity:0.15; fill:none" points="2040.66,327.778 2183.43,327.778 "/>
<path clip-path="url(#clip710)" d="M2207.98 366.119 L2216.57 366.119 L2216.57 336.457 L2207.23 338.332 L2207.23 333.541 L2216.52 331.666 L2221.78 331.666 L2221.78 366.119 L2230.38 366.119 L2230.38 370.546 L2207.98 370.546 L2207.98 366.119 Z" fill="#000000" fill-rule="nonzero" fill-opacity="1" /><path clip-path="url(#clip710)" d="M2252.25 335.129 Q2248.19 335.129 2246.13 339.14 Q2244.1 343.124 2244.1 351.145 Q2244.1 359.14 2246.13 363.15 Q2248.19 367.134 2252.25 367.134 Q2256.34 367.134 2258.37 363.15 Q2260.43 359.14 2260.43 351.145 Q2260.43 343.124 2258.37 339.14 Q2256.34 335.129 2252.25 335.129 M2252.25 330.963 Q2258.79 330.963 2262.23 336.145 Q2265.69 341.301 2265.69 351.145 Q2265.69 360.963 2262.23 366.145 Q2258.79 371.301 2252.25 371.301 Q2245.71 371.301 2242.25 366.145 Q2238.81 360.963 2238.81 351.145 Q2238.81 341.301 2242.25 336.145 Q2245.71 330.963 2252.25 330.963 Z" fill="#000000" fill-rule="nonzero" fill-opacity="1" /><path clip-path="url(#clip710)" d="M2271.83 353.801 L2285.87 353.801 L2285.87 358.072 L2271.83 358.072 L2271.83 353.801 Z" fill="#000000" fill-rule="nonzero" fill-opacity="1" /><path clip-path="url(#clip710)" d="M2294.33 369.739 L2294.33 364.947 Q2296.31 365.884 2298.34 366.379 Q2300.38 366.874 2302.33 366.874 Q2307.54 366.874 2310.27 363.384 Q2313.03 359.869 2313.42 352.733 Q2311.91 354.973 2309.59 356.171 Q2307.28 357.369 2304.46 357.369 Q2298.63 357.369 2295.22 353.853 Q2291.83 350.312 2291.83 344.192 Q2291.83 338.202 2295.38 334.582 Q2298.92 330.963 2304.8 330.963 Q2311.55 330.963 2315.09 336.145 Q2318.66 341.301 2318.66 351.145 Q2318.66 360.338 2314.28 365.832 Q2309.93 371.301 2302.56 371.301 Q2300.58 371.301 2298.55 370.91 Q2296.52 370.52 2294.33 369.739 M2304.8 353.254 Q2308.34 353.254 2310.4 350.832 Q2312.49 348.411 2312.49 344.192 Q2312.49 339.999 2310.4 337.577 Q2308.34 335.129 2304.8 335.129 Q2301.26 335.129 2299.18 337.577 Q2297.12 339.999 2297.12 344.192 Q2297.12 348.411 2299.18 350.832 Q2301.26 353.254 2304.8 353.254 Z" fill="#000000" fill-rule="nonzero" fill-opacity="1" /><path clip-path="url(#clip710)" d="M2339.36 335.129 Q2335.3 335.129 2333.24 339.14 Q2331.21 343.124 2331.21 351.145 Q2331.21 359.14 2333.24 363.15 Q2335.3 367.134 2339.36 367.134 Q2343.45 367.134 2345.48 363.15 Q2347.54 359.14 2347.54 351.145 Q2347.54 343.124 2345.48 339.14 Q2343.45 335.129 2339.36 335.129 M2339.36 330.963 Q2345.9 330.963 2349.33 336.145 Q2352.8 341.301 2352.8 351.145 Q2352.8 360.963 2349.33 366.145 Q2345.9 371.301 2339.36 371.301 Q2332.82 371.301 2329.36 366.145 Q2325.92 360.963 2325.92 351.145 Q2325.92 341.301 2329.36 336.145 Q2332.82 330.963 2339.36 330.963 Z" fill="#000000" fill-rule="nonzero" fill-opacity="1" /><path clip-path="url(#clip710)" d="M2366.1 333.098 L2366.1 341.379 L2375.97 341.379 L2375.97 345.103 L2366.1 345.103 L2366.1 360.937 Q2366.1 364.504 2367.07 365.52 Q2368.06 366.535 2371.05 366.535 L2375.97 366.535 L2375.97 370.546 L2371.05 370.546 Q2365.51 370.546 2363.4 368.489 Q2361.29 366.405 2361.29 360.937 L2361.29 345.103 L2357.77 345.103 L2357.77 341.379 L2361.29 341.379 L2361.29 333.098 L2366.1 333.098 Z" fill="#000000" fill-rule="nonzero" fill-opacity="1" /><path clip-path="url(#clip710)" d="M2406.52 352.942 L2406.52 370.546 L2401.73 370.546 L2401.73 353.098 Q2401.73 348.957 2400.12 346.9 Q2398.5 344.843 2395.27 344.843 Q2391.39 344.843 2389.15 347.317 Q2386.91 349.791 2386.91 354.062 L2386.91 370.546 L2382.09 370.546 L2382.09 330.025 L2386.91 330.025 L2386.91 345.911 Q2388.63 343.28 2390.95 341.978 Q2393.29 340.676 2396.34 340.676 Q2401.37 340.676 2403.94 343.801 Q2406.52 346.9 2406.52 352.942 Z" fill="#000000" fill-rule="nonzero" fill-opacity="1" /><path clip-path="url(#clip710)" d="M2437.67 366.171 L2437.67 381.64 L2432.85 381.64 L2432.85 341.379 L2437.67 341.379 L2437.67 345.806 Q2439.18 343.202 2441.47 341.952 Q2443.79 340.676 2446.99 340.676 Q2452.3 340.676 2455.61 344.895 Q2458.94 349.114 2458.94 355.989 Q2458.94 362.864 2455.61 367.082 Q2452.3 371.301 2446.99 371.301 Q2443.79 371.301 2441.47 370.051 Q2439.18 368.775 2437.67 366.171 M2453.97 355.989 Q2453.97 350.702 2451.78 347.707 Q2449.62 344.687 2445.82 344.687 Q2442.02 344.687 2439.83 347.707 Q2437.67 350.702 2437.67 355.989 Q2437.67 361.275 2439.83 364.296 Q2442.02 367.291 2445.82 367.291 Q2449.62 367.291 2451.78 364.296 Q2453.97 361.275 2453.97 355.989 Z" fill="#000000" fill-rule="nonzero" fill-opacity="1" /><path clip-path="url(#clip710)" d="M2487.87 342.499 L2487.87 346.978 Q2485.84 345.858 2483.79 345.312 Q2481.76 344.739 2479.67 344.739 Q2475.01 344.739 2472.43 347.707 Q2469.85 350.65 2469.85 355.989 Q2469.85 361.327 2472.43 364.296 Q2475.01 367.239 2479.67 367.239 Q2481.76 367.239 2483.79 366.692 Q2485.84 366.119 2487.87 364.999 L2487.87 369.426 Q2485.87 370.364 2483.71 370.832 Q2481.57 371.301 2479.15 371.301 Q2472.56 371.301 2468.68 367.16 Q2464.8 363.02 2464.8 355.989 Q2464.8 348.853 2468.71 344.765 Q2472.64 340.676 2479.46 340.676 Q2481.68 340.676 2483.79 341.145 Q2485.9 341.588 2487.87 342.499 Z" fill="#000000" fill-rule="nonzero" fill-opacity="1" /><path clip-path="url(#clip710)" d="M2500.95 333.098 L2500.95 341.379 L2510.82 341.379 L2510.82 345.103 L2500.95 345.103 L2500.95 360.937 Q2500.95 364.504 2501.91 365.52 Q2502.9 366.535 2505.9 366.535 L2510.82 366.535 L2510.82 370.546 L2505.9 370.546 Q2500.35 370.546 2498.24 368.489 Q2496.13 366.405 2496.13 360.937 L2496.13 345.103 L2492.61 345.103 L2492.61 341.379 L2496.13 341.379 L2496.13 333.098 L2500.95 333.098 Z" fill="#000000" fill-rule="nonzero" fill-opacity="1" /><path clip-path="url(#clip710)" d="M2517.12 330.025 L2521.91 330.025 L2521.91 370.546 L2517.12 370.546 L2517.12 330.025 Z" fill="#000000" fill-rule="nonzero" fill-opacity="1" /><polyline clip-path="url(#clip710)" style="stroke:#808080; stroke-linecap:round; stroke-linejoin:round; stroke-width:4.5; stroke-opacity:1; fill:none" stroke-dasharray="18, 11" points="2040.66,409.426 2183.43,409.426 "/>
<path clip-path="url(#clip710)" d="M2209.73 428.059 L2209.73 423.267 Q2211.7 424.204 2213.74 424.699 Q2215.77 425.194 2217.72 425.194 Q2222.93 425.194 2225.66 421.704 Q2228.42 418.189 2228.81 411.053 Q2227.3 413.293 2224.99 414.491 Q2222.67 415.689 2219.86 415.689 Q2214.02 415.689 2210.61 412.173 Q2207.23 408.632 2207.23 402.512 Q2207.23 396.522 2210.77 392.902 Q2214.31 389.283 2220.19 389.283 Q2226.94 389.283 2230.48 394.465 Q2234.05 399.621 2234.05 409.465 Q2234.05 418.658 2229.67 424.152 Q2225.32 429.621 2217.95 429.621 Q2215.98 429.621 2213.94 429.23 Q2211.91 428.84 2209.73 428.059 M2220.19 411.574 Q2223.74 411.574 2225.79 409.152 Q2227.88 406.731 2227.88 402.512 Q2227.88 398.319 2225.79 395.897 Q2223.74 393.449 2220.19 393.449 Q2216.65 393.449 2214.57 395.897 Q2212.51 398.319 2212.51 402.512 Q2212.51 406.731 2214.57 409.152 Q2216.65 411.574 2220.19 411.574 Z" fill="#000000" fill-rule="nonzero" fill-opacity="1" /><path clip-path="url(#clip710)" d="M2243.66 428.059 L2243.66 423.267 Q2245.64 424.204 2247.67 424.699 Q2249.7 425.194 2251.65 425.194 Q2256.86 425.194 2259.59 421.704 Q2262.36 418.189 2262.75 411.053 Q2261.24 413.293 2258.92 414.491 Q2256.6 415.689 2253.79 415.689 Q2247.95 415.689 2244.54 412.173 Q2241.16 408.632 2241.16 402.512 Q2241.16 396.522 2244.7 392.902 Q2248.24 389.283 2254.13 389.283 Q2260.87 389.283 2264.41 394.465 Q2267.98 399.621 2267.98 409.465 Q2267.98 418.658 2263.61 424.152 Q2259.26 429.621 2251.89 429.621 Q2249.91 429.621 2247.88 429.23 Q2245.85 428.84 2243.66 428.059 M2254.13 411.574 Q2257.67 411.574 2259.73 409.152 Q2261.81 406.731 2261.81 402.512 Q2261.81 398.319 2259.73 395.897 Q2257.67 393.449 2254.13 393.449 Q2250.58 393.449 2248.5 395.897 Q2246.44 398.319 2246.44 402.512 Q2246.44 406.731 2248.5 409.152 Q2250.58 411.574 2254.13 411.574 Z" fill="#000000" fill-rule="nonzero" fill-opacity="1" /><path clip-path="url(#clip710)" d="M2310.51 411.757 Q2308.24 411.757 2306.94 413.684 Q2305.66 415.611 2305.66 419.048 Q2305.66 422.434 2306.94 424.387 Q2308.24 426.314 2310.51 426.314 Q2312.72 426.314 2314 424.387 Q2315.3 422.434 2315.3 419.048 Q2315.3 415.637 2314 413.71 Q2312.72 411.757 2310.51 411.757 M2310.51 408.449 Q2314.62 408.449 2317.04 411.314 Q2319.46 414.178 2319.46 419.048 Q2319.46 423.918 2317.02 426.783 Q2314.59 429.621 2310.51 429.621 Q2306.34 429.621 2303.92 426.783 Q2301.5 423.918 2301.5 419.048 Q2301.5 414.152 2303.92 411.314 Q2306.37 408.449 2310.51 408.449 M2283.63 392.59 Q2281.39 392.59 2280.09 394.543 Q2278.81 396.47 2278.81 399.856 Q2278.81 403.293 2280.09 405.22 Q2281.37 407.147 2283.63 407.147 Q2285.9 407.147 2287.17 405.22 Q2288.47 403.293 2288.47 399.856 Q2288.47 396.496 2287.17 394.543 Q2285.87 392.59 2283.63 392.59 M2307.15 389.283 L2311.31 389.283 L2286.99 429.621 L2282.82 429.621 L2307.15 389.283 M2283.63 389.283 Q2287.75 389.283 2290.19 392.147 Q2292.64 394.986 2292.64 399.856 Q2292.64 404.777 2290.19 407.616 Q2287.77 410.454 2283.63 410.454 Q2279.49 410.454 2277.07 407.616 Q2274.67 404.751 2274.67 399.856 Q2274.67 395.012 2277.09 392.147 Q2279.52 389.283 2283.63 389.283 Z" fill="#000000" fill-rule="nonzero" fill-opacity="1" /><path clip-path="url(#clip710)" d="M2373.71 392.981 L2373.71 398.527 Q2371.05 396.054 2368.03 394.83 Q2365.04 393.606 2361.65 393.606 Q2354.99 393.606 2351.44 397.694 Q2347.9 401.757 2347.9 409.465 Q2347.9 417.147 2351.44 421.236 Q2354.99 425.298 2361.65 425.298 Q2365.04 425.298 2368.03 424.074 Q2371.05 422.85 2373.71 420.376 L2373.71 425.871 Q2370.95 427.746 2367.85 428.684 Q2364.78 429.621 2361.34 429.621 Q2352.51 429.621 2347.43 424.23 Q2342.35 418.814 2342.35 409.465 Q2342.35 400.09 2347.43 394.699 Q2352.51 389.283 2361.34 389.283 Q2364.83 389.283 2367.9 390.22 Q2371 391.132 2373.71 392.981 Z" fill="#000000" fill-rule="nonzero" fill-opacity="1" /><path clip-path="url(#clip710)" d="M2381.83 389.986 L2387.09 389.986 L2387.09 428.866 L2381.83 428.866 L2381.83 389.986 Z" fill="#000000" fill-rule="nonzero" fill-opacity="1" /></svg>
