<?xml version="1.0" encoding="utf-8"?>
<svg xmlns="http://www.w3.org/2000/svg" xmlns:xlink="http://www.w3.org/1999/xlink" width="600" height="400" viewBox="0 0 2400 1600">
<defs>
  <clipPath id="clip620">
    <rect x="0" y="0" width="2400" height="1600"/>
  </clipPath>
</defs>
<path clip-path="url(#clip620)" d="M0 1600 L2400 1600 L2400 8.88178e-14 L0 8.88178e-14  Z" fill="#ffffff" fill-rule="evenodd" fill-opacity="1"/>
<defs>
  <clipPath id="clip621">
    <rect x="419" y="125" width="1855" height="1116"/>
  </clipPath>
</defs>
<path clip-path="url(#clip620)" d="M441.385 1241.31 L2274.02 1241.31 L2274.02 125.984 L441.385 125.984  Z" fill="#ffffff" fill-rule="evenodd" fill-opacity="1"/>
<defs>
  <clipPath id="clip622">
    <rect x="441" y="125" width="1834" height="1116"/>
  </clipPath>
</defs>
<polyline clip-path="url(#clip622)" style="stroke:#000000; stroke-linecap:round; stroke-linejoin:round; stroke-width:2; stroke-opacity:0.1; fill:none" points="654.668,1241.31 654.668,125.984 "/>
<polyline clip-path="url(#clip622)" style="stroke:#000000; stroke-linecap:round; stroke-linejoin:round; stroke-width:2; stroke-opacity:0.1; fill:none" points="935.881,1241.31 935.881,125.984 "/>
<polyline clip-path="url(#clip622)" style="stroke:#000000; stroke-linecap:round; stroke-linejoin:round; stroke-width:2; stroke-opacity:0.1; fill:none" points="1217.09,1241.31 1217.09,125.984 "/>
<polyline clip-path="url(#clip622)" style="stroke:#000000; stroke-linecap:round; stroke-linejoin:round; stroke-width:2; stroke-opacity:0.1; fill:none" points="1498.31,1241.31 1498.31,125.984 "/>
<polyline clip-path="url(#clip622)" style="stroke:#000000; stroke-linecap:round; stroke-linejoin:round; stroke-width:2; stroke-opacity:0.1; fill:none" points="1779.52,1241.31 1779.52,125.984 "/>
<polyline clip-path="url(#clip622)" style="stroke:#000000; stroke-linecap:round; stroke-linejoin:round; stroke-width:2; stroke-opacity:0.1; fill:none" points="2060.73,1241.31 2060.73,125.984 "/>
<polyline clip-path="url(#clip622)" style="stroke:#000000; stroke-linecap:round; stroke-linejoin:round; stroke-width:2; stroke-opacity:0.1; fill:none" points="441.385,1241.31 2274.02,1241.31 "/>
<polyline clip-path="url(#clip622)" style="stroke:#000000; stroke-linecap:round; stroke-linejoin:round; stroke-width:2; stroke-opacity:0.1; fill:none" points="441.385,911.987 2274.02,911.987 "/>
<polyline clip-path="url(#clip622)" style="stroke:#000000; stroke-linecap:round; stroke-linejoin:round; stroke-width:2; stroke-opacity:0.1; fill:none" points="441.385,582.662 2274.02,582.662 "/>
<polyline clip-path="url(#clip622)" style="stroke:#000000; stroke-linecap:round; stroke-linejoin:round; stroke-width:2; stroke-opacity:0.1; fill:none" points="441.385,253.338 2274.02,253.338 "/>
<polyline clip-path="url(#clip620)" style="stroke:#000000; stroke-linecap:round; stroke-linejoin:round; stroke-width:4; stroke-opacity:1; fill:none" points="441.385,1241.31 2274.02,1241.31 "/>
<polyline clip-path="url(#clip620)" style="stroke:#000000; stroke-linecap:round; stroke-linejoin:round; stroke-width:4; stroke-opacity:1; fill:none" points="654.668,1241.31 654.668,1222.41 "/>
<polyline clip-path="url(#clip620)" style="stroke:#000000; stroke-linecap:round; stroke-linejoin:round; stroke-width:4; stroke-opacity:1; fill:none" points="935.881,1241.31 935.881,1222.41 "/>
<polyline clip-path="url(#clip620)" style="stroke:#000000; stroke-linecap:round; stroke-linejoin:round; stroke-width:4; stroke-opacity:1; fill:none" points="1217.09,1241.31 1217.09,1222.41 "/>
<polyline clip-path="url(#clip620)" style="stroke:#000000; stroke-linecap:round; stroke-linejoin:round; stroke-width:4; stroke-opacity:1; fill:none" points="1498.31,1241.31 1498.31,1222.41 "/>
<polyline clip-path="url(#clip620)" style="stroke:#000000; stroke-linecap:round; stroke-linejoin:round; stroke-width:4; stroke-opacity:1; fill:none" points="1779.52,1241.31 1779.52,1222.41 "/>
<polyline clip-path="url(#clip620)" style="stroke:#000000; stroke-linecap:round; stroke-linejoin:round; stroke-width:4; stroke-opacity:1; fill:none" points="2060.73,1241.31 2060.73,1222.41 "/>
<path clip-path="url(#clip620)" d="M642.645 1309.59 L652.194 1309.59 L652.194 1276.64 L641.806 1278.72 L641.806 1273.39 L652.136 1271.31 L657.981 1271.31 L657.981 1309.59 L667.529 1309.59 L667.529 1314.51 L642.645 1314.51 L642.645 1309.59 Z" fill="#000000" fill-rule="nonzero" fill-opacity="1" /><path clip-path="url(#clip620)" d="M929.197 1309.59 L949.596 1309.59 L949.596 1314.51 L922.165 1314.51 L922.165 1309.59 Q925.493 1306.15 931.222 1300.36 Q936.98 1294.55 938.456 1292.87 Q941.263 1289.71 942.362 1287.54 Q943.491 1285.34 943.491 1283.23 Q943.491 1279.79 941.06 1277.62 Q938.658 1275.45 934.781 1275.45 Q932.032 1275.45 928.965 1276.4 Q925.927 1277.36 922.455 1279.3 L922.455 1273.39 Q925.985 1271.98 929.052 1271.25 Q932.119 1270.53 934.665 1270.53 Q941.378 1270.53 945.371 1273.89 Q949.364 1277.24 949.364 1282.86 Q949.364 1285.52 948.352 1287.92 Q947.368 1290.29 944.735 1293.53 Q944.011 1294.37 940.134 1298.39 Q936.257 1302.39 929.197 1309.59 Z" fill="#000000" fill-rule="nonzero" fill-opacity="1" /><path clip-path="url(#clip620)" d="M1222.4 1291.22 Q1226.6 1292.12 1228.94 1294.95 Q1231.32 1297.79 1231.32 1301.95 Q1231.32 1308.35 1226.92 1311.85 Q1222.52 1315.35 1214.42 1315.35 Q1211.7 1315.35 1208.8 1314.8 Q1205.94 1314.28 1202.87 1313.21 L1202.87 1307.57 Q1205.3 1308.98 1208.2 1309.71 Q1211.09 1310.43 1214.24 1310.43 Q1219.74 1310.43 1222.61 1308.26 Q1225.5 1306.09 1225.5 1301.95 Q1225.5 1298.13 1222.81 1295.99 Q1220.15 1293.82 1215.37 1293.82 L1210.34 1293.82 L1210.34 1289.02 L1215.6 1289.02 Q1219.91 1289.02 1222.2 1287.31 Q1224.49 1285.58 1224.49 1282.34 Q1224.49 1279.01 1222.11 1277.24 Q1219.77 1275.45 1215.37 1275.45 Q1212.97 1275.45 1210.22 1275.97 Q1207.47 1276.49 1204.17 1277.59 L1204.17 1272.38 Q1207.5 1271.46 1210.4 1270.99 Q1213.32 1270.53 1215.89 1270.53 Q1222.55 1270.53 1226.43 1273.57 Q1230.3 1276.58 1230.3 1281.73 Q1230.3 1285.32 1228.25 1287.8 Q1226.19 1290.26 1222.4 1291.22 Z" fill="#000000" fill-rule="nonzero" fill-opacity="1" /><path clip-path="url(#clip620)" d="M1502.07 1276.4 L1487.31 1299.47 L1502.07 1299.47 L1502.07 1276.4 M1500.53 1271.31 L1507.88 1271.31 L1507.88 1299.47 L1514.05 1299.47 L1514.05 1304.33 L1507.88 1304.33 L1507.88 1314.51 L1502.07 1314.51 L1502.07 1304.33 L1482.57 1304.33 L1482.57 1298.68 L1500.53 1271.31 Z" fill="#000000" fill-rule="nonzero" fill-opacity="1" /><path clip-path="url(#clip620)" d="M1767.37 1271.31 L1790.31 1271.31 L1790.31 1276.23 L1772.72 1276.23 L1772.72 1286.82 Q1773.99 1286.39 1775.27 1286.18 Q1776.54 1285.95 1777.81 1285.95 Q1785.05 1285.95 1789.27 1289.92 Q1793.5 1293.88 1793.5 1300.65 Q1793.5 1307.62 1789.15 1311.5 Q1784.81 1315.35 1776.92 1315.35 Q1774.2 1315.35 1771.36 1314.89 Q1768.55 1314.42 1765.54 1313.5 L1765.54 1307.62 Q1768.15 1309.04 1770.93 1309.74 Q1773.7 1310.43 1776.8 1310.43 Q1781.81 1310.43 1784.73 1307.8 Q1787.65 1305.17 1787.65 1300.65 Q1787.65 1296.14 1784.73 1293.5 Q1781.81 1290.87 1776.8 1290.87 Q1774.46 1290.87 1772.11 1291.39 Q1769.8 1291.91 1767.37 1293.01 L1767.37 1271.31 Z" fill="#000000" fill-rule="nonzero" fill-opacity="1" /><path clip-path="url(#clip620)" d="M2061.24 1290.58 Q2057.3 1290.58 2054.99 1293.27 Q2052.7 1295.96 2052.7 1300.65 Q2052.7 1305.31 2054.99 1308.03 Q2057.3 1310.72 2061.24 1310.72 Q2065.17 1310.72 2067.46 1308.03 Q2069.77 1305.31 2069.77 1300.65 Q2069.77 1295.96 2067.46 1293.27 Q2065.17 1290.58 2061.24 1290.58 M2072.84 1272.27 L2072.84 1277.59 Q2070.64 1276.55 2068.39 1276 Q2066.16 1275.45 2063.96 1275.45 Q2058.17 1275.45 2055.1 1279.36 Q2052.07 1283.26 2051.63 1291.16 Q2053.34 1288.64 2055.91 1287.31 Q2058.49 1285.95 2061.59 1285.95 Q2068.1 1285.95 2071.86 1289.92 Q2075.65 1293.85 2075.65 1300.65 Q2075.65 1307.31 2071.71 1311.33 Q2067.78 1315.35 2061.24 1315.35 Q2053.74 1315.35 2049.78 1309.62 Q2045.82 1303.86 2045.82 1292.95 Q2045.82 1282.71 2050.68 1276.64 Q2055.54 1270.53 2063.73 1270.53 Q2065.93 1270.53 2068.15 1270.96 Q2070.41 1271.4 2072.84 1272.27 Z" fill="#000000" fill-rule="nonzero" fill-opacity="1" /><path clip-path="url(#clip620)" d="M1305.9 1353.18 L1305.9 1359.45 Q1302.24 1357.69 1298.99 1356.84 Q1295.75 1355.98 1292.72 1355.98 Q1287.47 1355.98 1284.61 1358.01 Q1281.77 1360.05 1281.77 1363.81 Q1281.77 1366.96 1283.65 1368.58 Q1285.56 1370.17 1290.84 1371.16 L1294.73 1371.95 Q1301.92 1373.32 1305.33 1376.79 Q1308.76 1380.23 1308.76 1386.02 Q1308.76 1392.93 1304.12 1396.49 Q1299.5 1400.06 1290.56 1400.06 Q1287.18 1400.06 1283.36 1399.29 Q1279.58 1398.53 1275.5 1397.03 L1275.5 1390.41 Q1279.42 1392.61 1283.17 1393.72 Q1286.93 1394.84 1290.56 1394.84 Q1296.06 1394.84 1299.06 1392.67 Q1302.05 1390.51 1302.05 1386.5 Q1302.05 1383 1299.88 1381.03 Q1297.75 1379.05 1292.85 1378.07 L1288.93 1377.3 Q1281.74 1375.87 1278.53 1372.81 Q1275.31 1369.76 1275.31 1364.32 Q1275.31 1358.01 1279.74 1354.38 Q1284.19 1350.76 1291.99 1350.76 Q1295.33 1350.76 1298.8 1351.36 Q1302.27 1351.97 1305.9 1353.18 Z" fill="#000000" fill-rule="nonzero" fill-opacity="1" /><path clip-path="url(#clip620)" d="M1324.33 1353.37 L1324.33 1363.49 L1336.39 1363.49 L1336.39 1368.04 L1324.33 1368.04 L1324.33 1387.39 Q1324.33 1391.75 1325.51 1392.99 Q1326.72 1394.23 1330.38 1394.23 L1336.39 1394.23 L1336.39 1399.14 L1330.38 1399.14 Q1323.6 1399.14 1321.02 1396.62 Q1318.44 1394.07 1318.44 1387.39 L1318.44 1368.04 L1314.14 1368.04 L1314.14 1363.49 L1318.44 1363.49 L1318.44 1353.37 L1324.33 1353.37 Z" fill="#000000" fill-rule="nonzero" fill-opacity="1" /><path clip-path="url(#clip620)" d="M1360.29 1381.22 Q1353.2 1381.22 1350.46 1382.84 Q1347.72 1384.46 1347.72 1388.38 Q1347.72 1391.5 1349.76 1393.34 Q1351.83 1395.16 1355.36 1395.16 Q1360.23 1395.16 1363.16 1391.72 Q1366.12 1388.25 1366.12 1382.52 L1366.12 1381.22 L1360.29 1381.22 M1371.98 1378.8 L1371.98 1399.14 L1366.12 1399.14 L1366.12 1393.72 Q1364.11 1396.97 1361.12 1398.53 Q1358.13 1400.06 1353.8 1400.06 Q1348.33 1400.06 1345.08 1397 Q1341.87 1393.92 1341.87 1388.76 Q1341.87 1382.74 1345.88 1379.69 Q1349.92 1376.63 1357.91 1376.63 L1366.12 1376.63 L1366.12 1376.06 Q1366.12 1372.02 1363.45 1369.82 Q1360.8 1367.59 1356 1367.59 Q1352.94 1367.59 1350.05 1368.33 Q1347.15 1369.06 1344.48 1370.52 L1344.48 1365.11 Q1347.69 1363.87 1350.71 1363.26 Q1353.74 1362.63 1356.6 1362.63 Q1364.34 1362.63 1368.16 1366.64 Q1371.98 1370.65 1371.98 1378.8 Z" fill="#000000" fill-rule="nonzero" fill-opacity="1" /><path clip-path="url(#clip620)" d="M1389.83 1353.37 L1389.83 1363.49 L1401.89 1363.49 L1401.89 1368.04 L1389.83 1368.04 L1389.83 1387.39 Q1389.83 1391.75 1391.01 1392.99 Q1392.22 1394.23 1395.88 1394.23 L1401.89 1394.23 L1401.89 1399.14 L1395.88 1399.14 Q1389.1 1399.14 1386.52 1396.62 Q1383.94 1394.07 1383.94 1387.39 L1383.94 1368.04 L1379.65 1368.04 L1379.65 1363.49 L1383.94 1363.49 L1383.94 1353.37 L1389.83 1353.37 Z" fill="#000000" fill-rule="nonzero" fill-opacity="1" /><path clip-path="url(#clip620)" d="M1440.09 1379.85 L1440.09 1382.71 L1413.16 1382.71 Q1413.54 1388.76 1416.79 1391.94 Q1420.07 1395.09 1425.89 1395.09 Q1429.27 1395.09 1432.42 1394.27 Q1435.6 1393.44 1438.72 1391.78 L1438.72 1397.32 Q1435.57 1398.66 1432.26 1399.36 Q1428.95 1400.06 1425.54 1400.06 Q1417.01 1400.06 1412.02 1395.09 Q1407.05 1390.13 1407.05 1381.66 Q1407.05 1372.91 1411.76 1367.78 Q1416.5 1362.63 1424.52 1362.63 Q1431.72 1362.63 1435.89 1367.28 Q1440.09 1371.89 1440.09 1379.85 M1434.23 1378.13 Q1434.17 1373.32 1431.53 1370.46 Q1428.92 1367.59 1424.59 1367.59 Q1419.69 1367.59 1416.73 1370.36 Q1413.8 1373.13 1413.35 1378.16 L1434.23 1378.13 Z" fill="#000000" fill-rule="nonzero" fill-opacity="1" /><polyline clip-path="url(#clip620)" style="stroke:#000000; stroke-linecap:round; stroke-linejoin:round; stroke-width:4; stroke-opacity:1; fill:none" points="441.385,1241.31 441.385,125.984 "/>
<polyline clip-path="url(#clip620)" style="stroke:#000000; stroke-linecap:round; stroke-linejoin:round; stroke-width:4; stroke-opacity:1; fill:none" points="441.385,1241.31 460.282,1241.31 "/>
<polyline clip-path="url(#clip620)" style="stroke:#000000; stroke-linecap:round; stroke-linejoin:round; stroke-width:4; stroke-opacity:1; fill:none" points="441.385,911.987 460.282,911.987 "/>
<polyline clip-path="url(#clip620)" style="stroke:#000000; stroke-linecap:round; stroke-linejoin:round; stroke-width:4; stroke-opacity:1; fill:none" points="441.385,582.662 460.282,582.662 "/>
<polyline clip-path="url(#clip620)" style="stroke:#000000; stroke-linecap:round; stroke-linejoin:round; stroke-width:4; stroke-opacity:1; fill:none" points="441.385,253.338 460.282,253.338 "/>
<path clip-path="url(#clip620)" d="M333.915 1223.56 Q329.401 1223.56 327.115 1228.02 Q324.858 1232.44 324.858 1241.35 Q324.858 1250.24 327.115 1254.69 Q329.401 1259.12 333.915 1259.12 Q338.458 1259.12 340.715 1254.69 Q343.001 1250.24 343.001 1241.35 Q343.001 1232.44 340.715 1228.02 Q338.458 1223.56 333.915 1223.56 M333.915 1218.93 Q341.178 1218.93 344.997 1224.69 Q348.846 1230.42 348.846 1241.35 Q348.846 1252.26 344.997 1258.02 Q341.178 1263.75 333.915 1263.75 Q326.652 1263.75 322.804 1258.02 Q318.985 1252.26 318.985 1241.35 Q318.985 1230.42 322.804 1224.69 Q326.652 1218.93 333.915 1218.93 Z" fill="#000000" fill-rule="nonzero" fill-opacity="1" /><path clip-path="url(#clip620)" d="M359.117 1255.56 L365.223 1255.56 L365.223 1262.91 L359.117 1262.91 L359.117 1255.56 Z" fill="#000000" fill-rule="nonzero" fill-opacity="1" /><path clip-path="url(#clip620)" d="M390.454 1223.56 Q385.94 1223.56 383.654 1228.02 Q381.397 1232.44 381.397 1241.35 Q381.397 1250.24 383.654 1254.69 Q385.94 1259.12 390.454 1259.12 Q394.997 1259.12 397.254 1254.69 Q399.54 1250.24 399.54 1241.35 Q399.54 1232.44 397.254 1228.02 Q394.997 1223.56 390.454 1223.56 M390.454 1218.93 Q397.717 1218.93 401.536 1224.69 Q405.385 1230.42 405.385 1241.35 Q405.385 1252.26 401.536 1258.02 Q397.717 1263.75 390.454 1263.75 Q383.191 1263.75 379.343 1258.02 Q375.524 1252.26 375.524 1241.35 Q375.524 1230.42 379.343 1224.69 Q383.191 1218.93 390.454 1218.93 Z" fill="#000000" fill-rule="nonzero" fill-opacity="1" /><path clip-path="url(#clip620)" d="M335.449 894.235 Q330.935 894.235 328.649 898.691 Q326.392 903.118 326.392 912.03 Q326.392 920.913 328.649 925.369 Q330.935 929.796 335.449 929.796 Q339.991 929.796 342.248 925.369 Q344.534 920.913 344.534 912.03 Q344.534 903.118 342.248 898.691 Q339.991 894.235 335.449 894.235 M335.449 889.606 Q342.711 889.606 346.531 895.364 Q350.379 901.093 350.379 912.03 Q350.379 922.939 346.531 928.697 Q342.711 934.426 335.449 934.426 Q328.186 934.426 324.338 928.697 Q320.518 922.939 320.518 912.03 Q320.518 901.093 324.338 895.364 Q328.186 889.606 335.449 889.606 Z" fill="#000000" fill-rule="nonzero" fill-opacity="1" /><path clip-path="url(#clip620)" d="M360.651 926.237 L366.756 926.237 L366.756 933.587 L360.651 933.587 L360.651 926.237 Z" fill="#000000" fill-rule="nonzero" fill-opacity="1" /><path clip-path="url(#clip620)" d="M380.5 928.668 L390.049 928.668 L390.049 895.711 L379.661 897.794 L379.661 892.47 L389.991 890.387 L395.836 890.387 L395.836 928.668 L405.385 928.668 L405.385 933.587 L380.5 933.587 L380.5 928.668 Z" fill="#000000" fill-rule="nonzero" fill-opacity="1" /><path clip-path="url(#clip620)" d="M335.912 564.911 Q331.398 564.911 329.112 569.367 Q326.855 573.794 326.855 582.706 Q326.855 591.589 329.112 596.045 Q331.398 600.472 335.912 600.472 Q340.454 600.472 342.711 596.045 Q344.997 591.589 344.997 582.706 Q344.997 573.794 342.711 569.367 Q340.454 564.911 335.912 564.911 M335.912 560.281 Q343.174 560.281 346.994 566.039 Q350.842 571.768 350.842 582.706 Q350.842 593.614 346.994 599.372 Q343.174 605.101 335.912 605.101 Q328.649 605.101 324.801 599.372 Q320.981 593.614 320.981 582.706 Q320.981 571.768 324.801 566.039 Q328.649 560.281 335.912 560.281 Z" fill="#000000" fill-rule="nonzero" fill-opacity="1" /><path clip-path="url(#clip620)" d="M361.114 596.913 L367.219 596.913 L367.219 604.262 L361.114 604.262 L361.114 596.913 Z" fill="#000000" fill-rule="nonzero" fill-opacity="1" /><path clip-path="url(#clip620)" d="M384.985 599.343 L405.385 599.343 L405.385 604.262 L377.954 604.262 L377.954 599.343 Q381.282 595.9 387.011 590.113 Q392.769 584.297 394.245 582.619 Q397.051 579.465 398.151 577.295 Q399.279 575.096 399.279 572.983 Q399.279 569.54 396.849 567.37 Q394.447 565.2 390.57 565.2 Q387.821 565.2 384.754 566.155 Q381.716 567.11 378.244 569.048 L378.244 563.146 Q381.774 561.728 384.841 561.004 Q387.908 560.281 390.454 560.281 Q397.167 560.281 401.16 563.637 Q405.153 566.994 405.153 572.607 Q405.153 575.269 404.14 577.671 Q403.157 580.044 400.523 583.284 Q399.8 584.123 395.923 588.145 Q392.046 592.138 384.985 599.343 Z" fill="#000000" fill-rule="nonzero" fill-opacity="1" /><path clip-path="url(#clip620)" d="M334.725 235.586 Q330.211 235.586 327.925 240.042 Q325.669 244.469 325.669 253.381 Q325.669 262.264 327.925 266.72 Q330.211 271.147 334.725 271.147 Q339.268 271.147 341.525 266.72 Q343.811 262.264 343.811 253.381 Q343.811 244.469 341.525 240.042 Q339.268 235.586 334.725 235.586 M334.725 230.956 Q341.988 230.956 345.807 236.714 Q349.656 242.444 349.656 253.381 Q349.656 264.29 345.807 270.048 Q341.988 275.777 334.725 275.777 Q327.463 275.777 323.614 270.048 Q319.795 264.29 319.795 253.381 Q319.795 242.444 323.614 236.714 Q327.463 230.956 334.725 230.956 Z" fill="#000000" fill-rule="nonzero" fill-opacity="1" /><path clip-path="url(#clip620)" d="M359.928 267.588 L366.033 267.588 L366.033 274.938 L359.928 274.938 L359.928 267.588 Z" fill="#000000" fill-rule="nonzero" fill-opacity="1" /><path clip-path="url(#clip620)" d="M396.473 251.645 Q400.668 252.542 403.012 255.378 Q405.385 258.213 405.385 262.38 Q405.385 268.774 400.986 272.276 Q396.588 275.777 388.487 275.777 Q385.767 275.777 382.873 275.227 Q380.009 274.706 376.941 273.636 L376.941 267.993 Q379.372 269.411 382.265 270.134 Q385.159 270.858 388.313 270.858 Q393.811 270.858 396.675 268.688 Q399.569 266.518 399.569 262.38 Q399.569 258.56 396.878 256.419 Q394.216 254.249 389.441 254.249 L384.407 254.249 L384.407 249.446 L389.673 249.446 Q393.984 249.446 396.27 247.739 Q398.556 246.003 398.556 242.762 Q398.556 239.434 396.183 237.669 Q393.839 235.875 389.441 235.875 Q387.04 235.875 384.291 236.396 Q381.542 236.917 378.244 238.017 L378.244 232.808 Q381.571 231.882 384.465 231.419 Q387.387 230.956 389.962 230.956 Q396.617 230.956 400.495 233.995 Q404.372 237.004 404.372 242.154 Q404.372 245.742 402.317 248.231 Q400.263 250.69 396.473 251.645 Z" fill="#000000" fill-rule="nonzero" fill-opacity="1" /><path clip-path="url(#clip620)" d="M226.492 845.337 L244.348 845.337 L244.348 837.252 Q244.348 832.765 242.024 830.314 Q239.701 827.863 235.404 827.863 Q231.139 827.863 228.816 830.314 Q226.492 832.765 226.492 837.252 L226.492 845.337 M221.209 851.766 L221.209 837.252 Q221.209 829.263 224.837 825.189 Q228.434 821.083 235.404 821.083 Q242.438 821.083 246.035 825.189 Q249.631 829.263 249.631 837.252 L249.631 845.337 L268.729 845.337 L268.729 851.766 L221.209 851.766 Z" fill="#000000" fill-rule="nonzero" fill-opacity="1" /><path clip-path="url(#clip620)" d="M238.555 793.202 Q237.982 794.188 237.728 795.366 Q237.441 796.512 237.441 797.912 Q237.441 802.878 240.688 805.551 Q243.902 808.193 249.95 808.193 L268.729 808.193 L268.729 814.081 L233.081 814.081 L233.081 808.193 L238.619 808.193 Q235.372 806.347 233.813 803.387 Q232.221 800.427 232.221 796.194 Q232.221 795.589 232.317 794.857 Q232.38 794.125 232.54 793.234 L238.555 793.202 Z" fill="#000000" fill-rule="nonzero" fill-opacity="1" /><path clip-path="url(#clip620)" d="M237.186 774.677 Q237.186 779.388 240.879 782.125 Q244.539 784.863 250.936 784.863 Q257.334 784.863 261.026 782.157 Q264.686 779.42 264.686 774.677 Q264.686 769.999 260.994 767.261 Q257.302 764.524 250.936 764.524 Q244.603 764.524 240.91 767.261 Q237.186 769.999 237.186 774.677 M232.221 774.677 Q232.221 767.039 237.186 762.678 Q242.152 758.318 250.936 758.318 Q259.689 758.318 264.686 762.678 Q269.652 767.039 269.652 774.677 Q269.652 782.348 264.686 786.709 Q259.689 791.037 250.936 791.037 Q242.152 791.037 237.186 786.709 Q232.221 782.348 232.221 774.677 Z" fill="#000000" fill-rule="nonzero" fill-opacity="1" /><path clip-path="url(#clip620)" d="M250.936 723.02 Q244.475 723.02 240.815 725.693 Q237.123 728.335 237.123 732.982 Q237.123 737.629 240.815 740.303 Q244.475 742.944 250.936 742.944 Q257.398 742.944 261.09 740.303 Q264.75 737.629 264.75 732.982 Q264.75 728.335 261.09 725.693 Q257.398 723.02 250.936 723.02 M238.491 742.944 Q235.309 741.098 233.781 738.297 Q232.221 735.465 232.221 731.55 Q232.221 725.057 237.377 721.015 Q242.534 716.941 250.936 716.941 Q259.339 716.941 264.495 721.015 Q269.652 725.057 269.652 731.55 Q269.652 735.465 268.124 738.297 Q266.564 741.098 263.381 742.944 L268.729 742.944 L268.729 748.833 L219.203 748.833 L219.203 742.944 L238.491 742.944 Z" fill="#000000" fill-rule="nonzero" fill-opacity="1" /><path clip-path="url(#clip620)" d="M250.809 691.032 Q250.809 698.13 252.432 700.867 Q254.056 703.604 257.971 703.604 Q261.09 703.604 262.936 701.567 Q264.75 699.498 264.75 695.966 Q264.75 691.096 261.313 688.168 Q257.843 685.207 252.114 685.207 L250.809 685.207 L250.809 691.032 M248.39 679.351 L268.729 679.351 L268.729 685.207 L263.318 685.207 Q266.564 687.213 268.124 690.205 Q269.652 693.196 269.652 697.525 Q269.652 703 266.596 706.246 Q263.509 709.461 258.352 709.461 Q252.337 709.461 249.281 705.45 Q246.226 701.408 246.226 693.419 L246.226 685.207 L245.653 685.207 Q241.611 685.207 239.414 687.881 Q237.186 690.523 237.186 695.329 Q237.186 698.384 237.919 701.281 Q238.651 704.177 240.115 706.851 L234.704 706.851 Q233.463 703.636 232.858 700.612 Q232.221 697.589 232.221 694.724 Q232.221 686.99 236.232 683.17 Q240.242 679.351 248.39 679.351 Z" fill="#000000" fill-rule="nonzero" fill-opacity="1" /><path clip-path="url(#clip620)" d="M250.936 641.698 Q244.475 641.698 240.815 644.371 Q237.123 647.013 237.123 651.66 Q237.123 656.307 240.815 658.981 Q244.475 661.623 250.936 661.623 Q257.398 661.623 261.09 658.981 Q264.75 656.307 264.75 651.66 Q264.75 647.013 261.09 644.371 Q257.398 641.698 250.936 641.698 M238.491 661.623 Q235.309 659.776 233.781 656.976 Q232.221 654.143 232.221 650.228 Q232.221 643.735 237.377 639.693 Q242.534 635.619 250.936 635.619 Q259.339 635.619 264.495 639.693 Q269.652 643.735 269.652 650.228 Q269.652 654.143 268.124 656.976 Q266.564 659.776 263.381 661.623 L268.729 661.623 L268.729 667.511 L219.203 667.511 L219.203 661.623 L238.491 661.623 Z" fill="#000000" fill-rule="nonzero" fill-opacity="1" /><path clip-path="url(#clip620)" d="M233.081 625.911 L233.081 620.054 L268.729 620.054 L268.729 625.911 L233.081 625.911 M219.203 625.911 L219.203 620.054 L226.619 620.054 L226.619 625.911 L219.203 625.911 Z" fill="#000000" fill-rule="nonzero" fill-opacity="1" /><path clip-path="url(#clip620)" d="M219.203 607.8 L219.203 601.944 L268.729 601.944 L268.729 607.8 L219.203 607.8 Z" fill="#000000" fill-rule="nonzero" fill-opacity="1" /><path clip-path="url(#clip620)" d="M233.081 589.69 L233.081 583.834 L268.729 583.834 L268.729 589.69 L233.081 589.69 M219.203 589.69 L219.203 583.834 L226.619 583.834 L226.619 589.69 L219.203 589.69 Z" fill="#000000" fill-rule="nonzero" fill-opacity="1" /><path clip-path="url(#clip620)" d="M222.959 565.787 L233.081 565.787 L233.081 553.724 L237.632 553.724 L237.632 565.787 L256.984 565.787 Q261.344 565.787 262.586 564.609 Q263.827 563.4 263.827 559.739 L263.827 553.724 L268.729 553.724 L268.729 559.739 Q268.729 566.519 266.214 569.097 Q263.668 571.675 256.984 571.675 L237.632 571.675 L237.632 575.972 L233.081 575.972 L233.081 571.675 L222.959 571.675 L222.959 565.787 Z" fill="#000000" fill-rule="nonzero" fill-opacity="1" /><path clip-path="url(#clip620)" d="M272.039 531.189 Q278.404 533.672 280.346 536.027 Q282.288 538.382 282.288 542.329 L282.288 547.008 L277.386 547.008 L277.386 543.57 Q277.386 541.152 276.24 539.815 Q275.094 538.478 270.829 536.855 L268.156 535.804 L233.081 550.223 L233.081 544.016 L260.962 532.876 L233.081 521.736 L233.081 515.53 L272.039 531.189 Z" fill="#000000" fill-rule="nonzero" fill-opacity="1" /><path clip-path="url(#clip622)" d="M542.183 1017.77 L542.183 1241.31 L767.153 1241.31 L767.153 1017.77 L542.183 1017.77 L542.183 1017.77  Z" fill="#4682b4" fill-rule="evenodd" fill-opacity="0.7"/>
<polyline clip-path="url(#clip622)" style="stroke:#000000; stroke-linecap:round; stroke-linejoin:round; stroke-width:4; stroke-opacity:0.7; fill:none" points="542.183,1017.77 542.183,1241.31 767.153,1241.31 767.153,1017.77 542.183,1017.77 "/>
<path clip-path="url(#clip622)" d="M823.396 883.015 L823.396 1241.31 L1048.37 1241.31 L1048.37 883.015 L823.396 883.015 L823.396 883.015  Z" fill="#4682b4" fill-rule="evenodd" fill-opacity="0.7"/>
<polyline clip-path="url(#clip622)" style="stroke:#000000; stroke-linecap:round; stroke-linejoin:round; stroke-width:4; stroke-opacity:0.7; fill:none" points="823.396,883.015 823.396,1241.31 1048.37,1241.31 1048.37,883.015 823.396,883.015 "/>
<path clip-path="url(#clip622)" d="M1104.61 537.314 L1104.61 1241.31 L1329.58 1241.31 L1329.58 537.314 L1104.61 537.314 L1104.61 537.314  Z" fill="#4682b4" fill-rule="evenodd" fill-opacity="0.7"/>
<polyline clip-path="url(#clip622)" style="stroke:#000000; stroke-linecap:round; stroke-linejoin:round; stroke-width:4; stroke-opacity:0.7; fill:none" points="1104.61,537.314 1104.61,1241.31 1329.58,1241.31 1329.58,537.314 1104.61,537.314 "/>
<path clip-path="url(#clip622)" d="M1385.82 833.55 L1385.82 1241.31 L1610.79 1241.31 L1610.79 833.55 L1385.82 833.55 L1385.82 833.55  Z" fill="#4682b4" fill-rule="evenodd" fill-opacity="0.7"/>
<polyline clip-path="url(#clip622)" style="stroke:#000000; stroke-linecap:round; stroke-linejoin:round; stroke-width:4; stroke-opacity:0.7; fill:none" points="1385.82,833.55 1385.82,1241.31 1610.79,1241.31 1610.79,833.55 1385.82,833.55 "/>
<path clip-path="url(#clip622)" d="M1667.03 756.992 L1667.03 1241.31 L1892 1241.31 L1892 756.992 L1667.03 756.992 L1667.03 756.992  Z" fill="#4682b4" fill-rule="evenodd" fill-opacity="0.7"/>
<polyline clip-path="url(#clip622)" style="stroke:#000000; stroke-linecap:round; stroke-linejoin:round; stroke-width:4; stroke-opacity:0.7; fill:none" points="1667.03,756.992 1667.03,1241.31 1892,1241.31 1892,756.992 1667.03,756.992 "/>
<path clip-path="url(#clip622)" d="M1948.25 125.984 L1948.25 1241.31 L2173.22 1241.31 L2173.22 125.984 L1948.25 125.984 L1948.25 125.984  Z" fill="#4682b4" fill-rule="evenodd" fill-opacity="0.7"/>
<polyline clip-path="url(#clip622)" style="stroke:#000000; stroke-linecap:round; stroke-linejoin:round; stroke-width:4; stroke-opacity:0.7; fill:none" points="1948.25,125.984 1948.25,1241.31 2173.22,1241.31 2173.22,125.984 1948.25,125.984 "/>
<circle clip-path="url(#clip622)" style="fill:#4682b4; stroke:none; fill-opacity:0" cx="654.668" cy="1017.77" r="2"/>
<circle clip-path="url(#clip622)" style="fill:#4682b4; stroke:none; fill-opacity:0" cx="935.881" cy="883.015" r="2"/>
<circle clip-path="url(#clip622)" style="fill:#4682b4; stroke:none; fill-opacity:0" cx="1217.09" cy="537.314" r="2"/>
<circle clip-path="url(#clip622)" style="fill:#4682b4; stroke:none; fill-opacity:0" cx="1498.31" cy="833.55" r="2"/>
<circle clip-path="url(#clip622)" style="fill:#4682b4; stroke:none; fill-opacity:0" cx="1779.52" cy="756.992" r="2"/>
<circle clip-path="url(#clip622)" style="fill:#4682b4; stroke:none; fill-opacity:0" cx="2060.73" cy="125.984" r="2"/>
</svg>
