<?xml version="1.0" encoding="utf-8"?>
<svg xmlns="http://www.w3.org/2000/svg" xmlns:xlink="http://www.w3.org/1999/xlink" width="600" height="400" viewBox="0 0 2400 1600">
<defs>
  <clipPath id="clip710">
    <rect x="0" y="0" width="2400" height="1600"/>
  </clipPath>
</defs>
<path clip-path="url(#clip710)" d="M0 1600 L2400 1600 L2400 8.88178e-14 L0 8.88178e-14  Z" fill="#ffffff" fill-rule="evenodd" fill-opacity="1"/>
<defs>
  <clipPath id="clip711">
    <rect x="478" y="0" width="1531" height="1254"/>
  </clipPath>
</defs>
<path clip-path="url(#clip710)" d="M419.944 1241.31 L2274.02 1241.31 L2274.02 184.932 L419.944 184.932  Z" fill="#ffffff" fill-rule="evenodd" fill-opacity="1"/>
<defs>
  <clipPath id="clip712">
    <rect x="419" y="184" width="1855" height="1057"/>
  </clipPath>
</defs>
<polyline clip-path="url(#clip712)" style="stroke:#000000; stroke-linecap:round; stroke-linejoin:round; stroke-width:2; stroke-opacity:0.1; fill:none" points="635.722,1241.31 635.722,184.932 "/>
<polyline clip-path="url(#clip712)" style="stroke:#000000; stroke-linecap:round; stroke-linejoin:round; stroke-width:2; stroke-opacity:0.1; fill:none" points="920.225,1241.31 920.225,184.932 "/>
<polyline clip-path="url(#clip712)" style="stroke:#000000; stroke-linecap:round; stroke-linejoin:round; stroke-width:2; stroke-opacity:0.1; fill:none" points="1204.73,1241.31 1204.73,184.932 "/>
<polyline clip-path="url(#clip712)" style="stroke:#000000; stroke-linecap:round; stroke-linejoin:round; stroke-width:2; stroke-opacity:0.1; fill:none" points="1489.23,1241.31 1489.23,184.932 "/>
<polyline clip-path="url(#clip712)" style="stroke:#000000; stroke-linecap:round; stroke-linejoin:round; stroke-width:2; stroke-opacity:0.1; fill:none" points="1773.73,1241.31 1773.73,184.932 "/>
<polyline clip-path="url(#clip712)" style="stroke:#000000; stroke-linecap:round; stroke-linejoin:round; stroke-width:2; stroke-opacity:0.1; fill:none" points="2058.24,1241.31 2058.24,184.932 "/>
<polyline clip-path="url(#clip712)" style="stroke:#000000; stroke-linecap:round; stroke-linejoin:round; stroke-width:2; stroke-opacity:0.1; fill:none" points="419.944,1241.31 2274.02,1241.31 "/>
<polyline clip-path="url(#clip712)" style="stroke:#000000; stroke-linecap:round; stroke-linejoin:round; stroke-width:2; stroke-opacity:0.1; fill:none" points="419.944,935.992 2274.02,935.992 "/>
<polyline clip-path="url(#clip712)" style="stroke:#000000; stroke-linecap:round; stroke-linejoin:round; stroke-width:2; stroke-opacity:0.1; fill:none" points="419.944,630.672 2274.02,630.672 "/>
<polyline clip-path="url(#clip712)" style="stroke:#000000; stroke-linecap:round; stroke-linejoin:round; stroke-width:2; stroke-opacity:0.1; fill:none" points="419.944,325.353 2274.02,325.353 "/>
<polyline clip-path="url(#clip710)" style="stroke:#000000; stroke-linecap:round; stroke-linejoin:round; stroke-width:4; stroke-opacity:1; fill:none" points="419.944,1241.31 2274.02,1241.31 "/>
<polyline clip-path="url(#clip710)" style="stroke:#000000; stroke-linecap:round; stroke-linejoin:round; stroke-width:4; stroke-opacity:1; fill:none" points="635.722,1241.31 635.722,1222.41 "/>
<polyline clip-path="url(#clip710)" style="stroke:#000000; stroke-linecap:round; stroke-linejoin:round; stroke-width:4; stroke-opacity:1; fill:none" points="920.225,1241.31 920.225,1222.41 "/>
<polyline clip-path="url(#clip710)" style="stroke:#000000; stroke-linecap:round; stroke-linejoin:round; stroke-width:4; stroke-opacity:1; fill:none" points="1204.73,1241.31 1204.73,1222.41 "/>
<polyline clip-path="url(#clip710)" style="stroke:#000000; stroke-linecap:round; stroke-linejoin:round; stroke-width:4; stroke-opacity:1; fill:none" points="1489.23,1241.31 1489.23,1222.41 "/>
<polyline clip-path="url(#clip710)" style="stroke:#000000; stroke-linecap:round; stroke-linejoin:round; stroke-width:4; stroke-opacity:1; fill:none" points="1773.73,1241.31 1773.73,1222.41 "/>
<polyline clip-path="url(#clip710)" style="stroke:#000000; stroke-linecap:round; stroke-linejoin:round; stroke-width:4; stroke-opacity:1; fill:none" points="2058.24,1241.31 2058.24,1222.41 "/>
<path clip-path="url(#clip710)" d="M623.7 1309.59 L633.248 1309.59 L633.248 1276.64 L622.861 1278.72 L622.861 1273.39 L633.19 1271.31 L639.035 1271.31 L639.035 1309.59 L648.584 1309.59 L648.584 1314.51 L623.7 1314.51 L623.7 1309.59 Z" fill="#000000" fill-rule="nonzero" fill-opacity="1" /><path clip-path="url(#clip710)" d="M913.541 1309.59 L933.94 1309.59 L933.94 1314.51 L906.51 1314.51 L906.51 1309.59 Q909.838 1306.15 915.567 1300.36 Q921.325 1294.55 922.8 1292.87 Q925.607 1289.71 926.707 1287.54 Q927.835 1285.34 927.835 1283.23 Q927.835 1279.79 925.405 1277.62 Q923.003 1275.45 919.126 1275.45 Q916.377 1275.45 913.31 1276.4 Q910.272 1277.36 906.799 1279.3 L906.799 1273.39 Q910.329 1271.98 913.397 1271.25 Q916.464 1270.53 919.01 1270.53 Q925.723 1270.53 929.716 1273.89 Q933.709 1277.24 933.709 1282.86 Q933.709 1285.52 932.696 1287.92 Q931.712 1290.29 929.079 1293.53 Q928.356 1294.37 924.479 1298.39 Q920.601 1302.39 913.541 1309.59 Z" fill="#000000" fill-rule="nonzero" fill-opacity="1" /><path clip-path="url(#clip710)" d="M1210.04 1291.22 Q1214.23 1292.12 1216.58 1294.95 Q1218.95 1297.79 1218.95 1301.95 Q1218.95 1308.35 1214.55 1311.85 Q1210.15 1315.35 1202.05 1315.35 Q1199.33 1315.35 1196.44 1314.8 Q1193.57 1314.28 1190.51 1313.21 L1190.51 1307.57 Q1192.94 1308.98 1195.83 1309.71 Q1198.72 1310.43 1201.88 1310.43 Q1207.38 1310.43 1210.24 1308.26 Q1213.13 1306.09 1213.13 1301.95 Q1213.13 1298.13 1210.44 1295.99 Q1207.78 1293.82 1203.01 1293.82 L1197.97 1293.82 L1197.97 1289.02 L1203.24 1289.02 Q1207.55 1289.02 1209.84 1287.31 Q1212.12 1285.58 1212.12 1282.34 Q1212.12 1279.01 1209.75 1277.24 Q1207.4 1275.45 1203.01 1275.45 Q1200.6 1275.45 1197.86 1275.97 Q1195.11 1276.49 1191.81 1277.59 L1191.81 1272.38 Q1195.14 1271.46 1198.03 1270.99 Q1200.95 1270.53 1203.53 1270.53 Q1210.18 1270.53 1214.06 1273.57 Q1217.94 1276.58 1217.94 1281.73 Q1217.94 1285.32 1215.88 1287.8 Q1213.83 1290.26 1210.04 1291.22 Z" fill="#000000" fill-rule="nonzero" fill-opacity="1" /><path clip-path="url(#clip710)" d="M1492.99 1276.4 L1478.24 1299.47 L1492.99 1299.47 L1492.99 1276.4 M1491.46 1271.31 L1498.81 1271.31 L1498.81 1299.47 L1504.97 1299.47 L1504.97 1304.33 L1498.81 1304.33 L1498.81 1314.51 L1492.99 1314.51 L1492.99 1304.33 L1473.49 1304.33 L1473.49 1298.68 L1491.46 1271.31 Z" fill="#000000" fill-rule="nonzero" fill-opacity="1" /><path clip-path="url(#clip710)" d="M1761.58 1271.31 L1784.53 1271.31 L1784.53 1276.23 L1766.93 1276.23 L1766.93 1286.82 Q1768.21 1286.39 1769.48 1286.18 Q1770.75 1285.95 1772.03 1285.95 Q1779.26 1285.95 1783.49 1289.92 Q1787.71 1293.88 1787.71 1300.65 Q1787.71 1307.62 1783.37 1311.5 Q1779.03 1315.35 1771.13 1315.35 Q1768.41 1315.35 1765.57 1314.89 Q1762.77 1314.42 1759.76 1313.5 L1759.76 1307.62 Q1762.36 1309.04 1765.14 1309.74 Q1767.92 1310.43 1771.01 1310.43 Q1776.02 1310.43 1778.94 1307.8 Q1781.87 1305.17 1781.87 1300.65 Q1781.87 1296.14 1778.94 1293.5 Q1776.02 1290.87 1771.01 1290.87 Q1768.67 1290.87 1766.33 1291.39 Q1764.01 1291.91 1761.58 1293.01 L1761.58 1271.31 Z" fill="#000000" fill-rule="nonzero" fill-opacity="1" /><path clip-path="url(#clip710)" d="M2058.74 1290.58 Q2054.81 1290.58 2052.49 1293.27 Q2050.21 1295.96 2050.21 1300.65 Q2050.21 1305.31 2052.49 1308.03 Q2054.81 1310.72 2058.74 1310.72 Q2062.68 1310.72 2064.96 1308.03 Q2067.28 1305.31 2067.28 1300.65 Q2067.28 1295.96 2064.96 1293.27 Q2062.68 1290.58 2058.74 1290.58 M2070.35 1272.27 L2070.35 1277.59 Q2068.15 1276.55 2065.89 1276 Q2063.66 1275.45 2061.46 1275.45 Q2055.68 1275.45 2052.61 1279.36 Q2049.57 1283.26 2049.14 1291.16 Q2050.84 1288.64 2053.42 1287.31 Q2055.99 1285.95 2059.09 1285.95 Q2065.6 1285.95 2069.36 1289.92 Q2073.15 1293.85 2073.15 1300.65 Q2073.15 1307.31 2069.22 1311.33 Q2065.28 1315.35 2058.74 1315.35 Q2051.25 1315.35 2047.29 1309.62 Q2043.32 1303.86 2043.32 1292.95 Q2043.32 1282.71 2048.18 1276.64 Q2053.04 1270.53 2061.23 1270.53 Q2063.43 1270.53 2065.66 1270.96 Q2067.92 1271.4 2070.35 1272.27 Z" fill="#000000" fill-rule="nonzero" fill-opacity="1" /><path clip-path="url(#clip710)" d="M1295.18 1353.18 L1295.18 1359.45 Q1291.52 1357.69 1288.27 1356.84 Q1285.03 1355.98 1282 1355.98 Q1276.75 1355.98 1273.89 1358.01 Q1271.05 1360.05 1271.05 1363.81 Q1271.05 1366.96 1272.93 1368.58 Q1274.84 1370.17 1280.12 1371.16 L1284.01 1371.95 Q1291.2 1373.32 1294.61 1376.79 Q1298.04 1380.23 1298.04 1386.02 Q1298.04 1392.93 1293.4 1396.49 Q1288.78 1400.06 1279.84 1400.06 Q1276.46 1400.06 1272.64 1399.29 Q1268.86 1398.53 1264.78 1397.03 L1264.78 1390.41 Q1268.7 1392.61 1272.45 1393.72 Q1276.21 1394.84 1279.84 1394.84 Q1285.34 1394.84 1288.34 1392.67 Q1291.33 1390.51 1291.33 1386.5 Q1291.33 1383 1289.16 1381.03 Q1287.03 1379.05 1282.13 1378.07 L1278.21 1377.3 Q1271.02 1375.87 1267.81 1372.81 Q1264.59 1369.76 1264.59 1364.32 Q1264.59 1358.01 1269.02 1354.38 Q1273.47 1350.76 1281.27 1350.76 Q1284.61 1350.76 1288.08 1351.36 Q1291.55 1351.97 1295.18 1353.18 Z" fill="#000000" fill-rule="nonzero" fill-opacity="1" /><path clip-path="url(#clip710)" d="M1313.61 1353.37 L1313.61 1363.49 L1325.67 1363.49 L1325.67 1368.04 L1313.61 1368.04 L1313.61 1387.39 Q1313.61 1391.75 1314.79 1392.99 Q1315.99 1394.23 1319.65 1394.23 L1325.67 1394.23 L1325.67 1399.14 L1319.65 1399.14 Q1312.88 1399.14 1310.3 1396.62 Q1307.72 1394.07 1307.72 1387.39 L1307.72 1368.04 L1303.42 1368.04 L1303.42 1363.49 L1307.72 1363.49 L1307.72 1353.37 L1313.61 1353.37 Z" fill="#000000" fill-rule="nonzero" fill-opacity="1" /><path clip-path="url(#clip710)" d="M1349.57 1381.22 Q1342.48 1381.22 1339.74 1382.84 Q1337 1384.46 1337 1388.38 Q1337 1391.5 1339.04 1393.34 Q1341.11 1395.16 1344.64 1395.16 Q1349.51 1395.16 1352.44 1391.72 Q1355.4 1388.25 1355.4 1382.52 L1355.4 1381.22 L1349.57 1381.22 M1361.25 1378.8 L1361.25 1399.14 L1355.4 1399.14 L1355.4 1393.72 Q1353.39 1396.97 1350.4 1398.53 Q1347.41 1400.06 1343.08 1400.06 Q1337.61 1400.06 1334.36 1397 Q1331.15 1393.92 1331.15 1388.76 Q1331.15 1382.74 1335.16 1379.69 Q1339.2 1376.63 1347.19 1376.63 L1355.4 1376.63 L1355.4 1376.06 Q1355.4 1372.02 1352.72 1369.82 Q1350.08 1367.59 1345.28 1367.59 Q1342.22 1367.59 1339.32 1368.33 Q1336.43 1369.06 1333.75 1370.52 L1333.75 1365.11 Q1336.97 1363.87 1339.99 1363.26 Q1343.02 1362.63 1345.88 1362.63 Q1353.62 1362.63 1357.44 1366.64 Q1361.25 1370.65 1361.25 1378.8 Z" fill="#000000" fill-rule="nonzero" fill-opacity="1" /><path clip-path="url(#clip710)" d="M1379.11 1353.37 L1379.11 1363.49 L1391.17 1363.49 L1391.17 1368.04 L1379.11 1368.04 L1379.11 1387.39 Q1379.11 1391.75 1380.29 1392.99 Q1381.5 1394.23 1385.16 1394.23 L1391.17 1394.23 L1391.17 1399.14 L1385.16 1399.14 Q1378.38 1399.14 1375.8 1396.62 Q1373.22 1394.07 1373.22 1387.39 L1373.22 1368.04 L1368.93 1368.04 L1368.93 1363.49 L1373.22 1363.49 L1373.22 1353.37 L1379.11 1353.37 Z" fill="#000000" fill-rule="nonzero" fill-opacity="1" /><path clip-path="url(#clip710)" d="M1429.37 1379.85 L1429.37 1382.71 L1402.44 1382.71 Q1402.82 1388.76 1406.07 1391.94 Q1409.35 1395.09 1415.17 1395.09 Q1418.55 1395.09 1421.7 1394.27 Q1424.88 1393.44 1428 1391.78 L1428 1397.32 Q1424.85 1398.66 1421.54 1399.36 Q1418.23 1400.06 1414.82 1400.06 Q1406.29 1400.06 1401.3 1395.09 Q1396.33 1390.13 1396.33 1381.66 Q1396.33 1372.91 1401.04 1367.78 Q1405.78 1362.63 1413.8 1362.63 Q1421 1362.63 1425.17 1367.28 Q1429.37 1371.89 1429.37 1379.85 M1423.51 1378.13 Q1423.45 1373.32 1420.81 1370.46 Q1418.2 1367.59 1413.87 1367.59 Q1408.97 1367.59 1406.01 1370.36 Q1403.08 1373.13 1402.63 1378.16 L1423.51 1378.13 Z" fill="#000000" fill-rule="nonzero" fill-opacity="1" /><polyline clip-path="url(#clip710)" style="stroke:#000000; stroke-linecap:round; stroke-linejoin:round; stroke-width:4; stroke-opacity:1; fill:none" points="419.944,1241.31 419.944,184.932 "/>
<polyline clip-path="url(#clip710)" style="stroke:#000000; stroke-linecap:round; stroke-linejoin:round; stroke-width:4; stroke-opacity:1; fill:none" points="419.944,1241.31 438.841,1241.31 "/>
<polyline clip-path="url(#clip710)" style="stroke:#000000; stroke-linecap:round; stroke-linejoin:round; stroke-width:4; stroke-opacity:1; fill:none" points="419.944,935.992 438.841,935.992 "/>
<polyline clip-path="url(#clip710)" style="stroke:#000000; stroke-linecap:round; stroke-linejoin:round; stroke-width:4; stroke-opacity:1; fill:none" points="419.944,630.672 438.841,630.672 "/>
<polyline clip-path="url(#clip710)" style="stroke:#000000; stroke-linecap:round; stroke-linejoin:round; stroke-width:4; stroke-opacity:1; fill:none" points="419.944,325.353 438.841,325.353 "/>
<path clip-path="url(#clip710)" d="M369.013 1223.56 Q364.499 1223.56 362.214 1228.02 Q359.957 1232.44 359.957 1241.35 Q359.957 1250.24 362.214 1254.69 Q364.499 1259.12 369.013 1259.12 Q373.556 1259.12 375.813 1254.69 Q378.099 1250.24 378.099 1241.35 Q378.099 1232.44 375.813 1228.02 Q373.556 1223.56 369.013 1223.56 M369.013 1218.93 Q376.276 1218.93 380.095 1224.69 Q383.944 1230.42 383.944 1241.35 Q383.944 1252.26 380.095 1258.02 Q376.276 1263.75 369.013 1263.75 Q361.751 1263.75 357.902 1258.02 Q354.083 1252.26 354.083 1241.35 Q354.083 1230.42 357.902 1224.69 Q361.751 1218.93 369.013 1218.93 Z" fill="#000000" fill-rule="nonzero" fill-opacity="1" /><path clip-path="url(#clip710)" d="M357.815 914.392 L380.761 914.392 L380.761 919.311 L363.168 919.311 L363.168 929.901 Q364.441 929.467 365.715 929.265 Q366.988 929.033 368.261 929.033 Q375.495 929.033 379.719 932.997 Q383.944 936.961 383.944 943.732 Q383.944 950.705 379.603 954.583 Q375.263 958.431 367.364 958.431 Q364.644 958.431 361.808 957.968 Q359.002 957.505 355.992 956.579 L355.992 950.705 Q358.597 952.123 361.374 952.818 Q364.152 953.512 367.248 953.512 Q372.254 953.512 375.176 950.879 Q378.099 948.246 378.099 943.732 Q378.099 939.218 375.176 936.585 Q372.254 933.952 367.248 933.952 Q364.904 933.952 362.561 934.473 Q360.246 934.994 357.815 936.093 L357.815 914.392 Z" fill="#000000" fill-rule="nonzero" fill-opacity="1" /><path clip-path="url(#clip710)" d="M319.824 647.353 L329.372 647.353 L329.372 614.396 L318.985 616.48 L318.985 611.156 L329.314 609.072 L335.159 609.072 L335.159 647.353 L344.708 647.353 L344.708 652.272 L319.824 652.272 L319.824 647.353 Z" fill="#000000" fill-rule="nonzero" fill-opacity="1" /><path clip-path="url(#clip710)" d="M369.013 612.921 Q364.499 612.921 362.214 617.377 Q359.957 621.804 359.957 630.716 Q359.957 639.599 362.214 644.055 Q364.499 648.482 369.013 648.482 Q373.556 648.482 375.813 644.055 Q378.099 639.599 378.099 630.716 Q378.099 621.804 375.813 617.377 Q373.556 612.921 369.013 612.921 M369.013 608.291 Q376.276 608.291 380.095 614.049 Q383.944 619.778 383.944 630.716 Q383.944 641.624 380.095 647.382 Q376.276 653.112 369.013 653.112 Q361.751 653.112 357.902 647.382 Q354.083 641.624 354.083 630.716 Q354.083 619.778 357.902 614.049 Q361.751 608.291 369.013 608.291 Z" fill="#000000" fill-rule="nonzero" fill-opacity="1" /><path clip-path="url(#clip710)" d="M321.068 342.034 L330.616 342.034 L330.616 309.077 L320.229 311.16 L320.229 305.836 L330.559 303.753 L336.403 303.753 L336.403 342.034 L345.952 342.034 L345.952 346.953 L321.068 346.953 L321.068 342.034 Z" fill="#000000" fill-rule="nonzero" fill-opacity="1" /><path clip-path="url(#clip710)" d="M357.815 303.753 L380.761 303.753 L380.761 308.672 L363.168 308.672 L363.168 319.262 Q364.441 318.828 365.715 318.626 Q366.988 318.394 368.261 318.394 Q375.495 318.394 379.719 322.358 Q383.944 326.322 383.944 333.093 Q383.944 340.066 379.603 343.944 Q375.263 347.792 367.364 347.792 Q364.644 347.792 361.808 347.329 Q359.002 346.866 355.992 345.94 L355.992 340.066 Q358.597 341.484 361.374 342.179 Q364.152 342.873 367.248 342.873 Q372.254 342.873 375.176 340.24 Q378.099 337.607 378.099 333.093 Q378.099 328.579 375.176 325.946 Q372.254 323.313 367.248 323.313 Q364.904 323.313 362.561 323.834 Q360.246 324.355 357.815 325.454 L357.815 303.753 Z" fill="#000000" fill-rule="nonzero" fill-opacity="1" /><path clip-path="url(#clip710)" d="M222.768 769.984 L229.038 769.984 Q227.288 773.644 226.428 776.89 Q225.569 780.137 225.569 783.161 Q225.569 788.412 227.606 791.277 Q229.643 794.11 233.399 794.11 Q236.55 794.11 238.173 792.232 Q239.765 790.322 240.751 785.038 L241.547 781.155 Q242.916 773.962 246.385 770.556 Q249.822 767.119 255.615 767.119 Q262.522 767.119 266.087 771.766 Q269.652 776.381 269.652 785.325 Q269.652 788.699 268.888 792.518 Q268.124 796.306 266.628 800.38 L260.008 800.38 Q262.204 796.465 263.318 792.709 Q264.432 788.953 264.432 785.325 Q264.432 779.819 262.267 776.827 Q260.103 773.835 256.093 773.835 Q252.592 773.835 250.618 775.999 Q248.645 778.132 247.658 783.033 L246.894 786.948 Q245.462 794.141 242.406 797.356 Q239.351 800.571 233.908 800.571 Q227.606 800.571 223.978 796.147 Q220.349 791.691 220.349 783.893 Q220.349 780.551 220.954 777.081 Q221.559 773.612 222.768 769.984 Z" fill="#000000" fill-rule="nonzero" fill-opacity="1" /><path clip-path="url(#clip710)" d="M222.959 751.555 L233.081 751.555 L233.081 739.492 L237.632 739.492 L237.632 751.555 L256.984 751.555 Q261.344 751.555 262.586 750.377 Q263.827 749.168 263.827 745.507 L263.827 739.492 L268.729 739.492 L268.729 745.507 Q268.729 752.287 266.214 754.865 Q263.668 757.443 256.984 757.443 L237.632 757.443 L237.632 761.74 L233.081 761.74 L233.081 757.443 L222.959 757.443 L222.959 751.555 Z" fill="#000000" fill-rule="nonzero" fill-opacity="1" /><path clip-path="url(#clip710)" d="M249.44 701.298 L252.305 701.298 L252.305 728.225 Q258.352 727.843 261.535 724.596 Q264.686 721.318 264.686 715.493 Q264.686 712.119 263.859 708.968 Q263.031 705.785 261.376 702.666 L266.914 702.666 Q268.251 705.817 268.951 709.127 Q269.652 712.438 269.652 715.843 Q269.652 724.373 264.686 729.37 Q259.721 734.336 251.255 734.336 Q242.502 734.336 237.377 729.625 Q232.221 724.883 232.221 716.862 Q232.221 709.668 236.868 705.499 Q241.483 701.298 249.44 701.298 M247.722 707.154 Q242.916 707.218 240.051 709.859 Q237.186 712.469 237.186 716.798 Q237.186 721.7 239.956 724.66 Q242.725 727.588 247.754 728.034 L247.722 707.154 Z" fill="#000000" fill-rule="nonzero" fill-opacity="1" /><path clip-path="url(#clip710)" d="M263.381 686.02 L282.288 686.02 L282.288 691.908 L233.081 691.908 L233.081 686.02 L238.491 686.02 Q235.309 684.174 233.781 681.373 Q232.221 678.54 232.221 674.625 Q232.221 668.132 237.377 664.09 Q242.534 660.016 250.936 660.016 Q259.339 660.016 264.495 664.09 Q269.652 668.132 269.652 674.625 Q269.652 678.54 268.124 681.373 Q266.564 684.174 263.381 686.02 M250.936 666.095 Q244.475 666.095 240.815 668.769 Q237.123 671.411 237.123 676.058 Q237.123 680.705 240.815 683.378 Q244.475 686.02 250.936 686.02 Q257.398 686.02 261.09 683.378 Q264.75 680.705 264.75 676.058 Q264.75 671.411 261.09 668.769 Q257.398 666.095 250.936 666.095 Z" fill="#000000" fill-rule="nonzero" fill-opacity="1" /><path clip-path="url(#clip710)" d="M234.131 627.583 L239.669 627.583 Q238.396 630.065 237.759 632.739 Q237.123 635.413 237.123 638.277 Q237.123 642.638 238.46 644.834 Q239.796 646.998 242.47 646.998 Q244.507 646.998 245.685 645.439 Q246.831 643.879 247.881 639.168 L248.326 637.163 Q249.663 630.925 252.114 628.315 Q254.533 625.673 258.894 625.673 Q263.859 625.673 266.755 629.62 Q269.652 633.535 269.652 640.41 Q269.652 643.274 269.079 646.393 Q268.538 649.481 267.424 652.918 L261.376 652.918 Q263.063 649.672 263.922 646.521 Q264.75 643.37 264.75 640.282 Q264.75 636.145 263.35 633.917 Q261.917 631.689 259.339 631.689 Q256.952 631.689 255.679 633.312 Q254.406 634.903 253.228 640.346 L252.751 642.383 Q251.605 647.826 249.25 650.245 Q246.862 652.664 242.725 652.664 Q237.696 652.664 234.958 649.099 Q232.221 645.534 232.221 638.977 Q232.221 635.731 232.699 632.866 Q233.176 630.002 234.131 627.583 Z" fill="#000000" fill-rule="nonzero" fill-opacity="1" /><path clip-path="url(#clip710)" d="M888.056 8.64 L895.926 8.64 L915.081 44.7799 L915.081 8.64 L920.752 8.64 L920.752 51.84 L912.882 51.84 L893.727 15.7001 L893.727 51.84 L888.056 51.84 L888.056 8.64 Z" fill="#000000" fill-rule="nonzero" fill-opacity="1" /><path clip-path="url(#clip710)" d="M946.881 35.5496 Q940.428 35.5496 937.94 37.0253 Q935.451 38.501 935.451 42.06 Q935.451 44.8956 937.303 46.5738 Q939.184 48.2231 942.396 48.2231 Q946.823 48.2231 949.485 45.0981 Q952.176 41.9442 952.176 36.7359 L952.176 35.5496 L946.881 35.5496 M957.5 33.3505 L957.5 51.84 L952.176 51.84 L952.176 46.921 Q950.353 49.8724 947.633 51.2902 Q944.913 52.6791 940.978 52.6791 Q936.001 52.6791 933.05 49.9014 Q930.127 47.0947 930.127 42.4072 Q930.127 36.9385 933.773 34.1607 Q937.448 31.3829 944.71 31.3829 L952.176 31.3829 L952.176 30.8621 Q952.176 27.1874 949.745 25.1908 Q947.344 23.1654 942.974 23.1654 Q940.197 23.1654 937.564 23.8309 Q934.93 24.4964 932.5 25.8274 L932.5 20.9085 Q935.422 19.78 938.171 19.2302 Q940.92 18.6515 943.524 18.6515 Q950.555 18.6515 954.028 22.2973 Q957.5 25.9431 957.5 33.3505 Z" fill="#000000" fill-rule="nonzero" fill-opacity="1" /><path clip-path="url(#clip710)" d="M973.732 10.2314 L973.732 19.4328 L984.699 19.4328 L984.699 23.5705 L973.732 23.5705 L973.732 41.163 Q973.732 45.1271 974.803 46.2555 Q975.902 47.384 979.23 47.384 L984.699 47.384 L984.699 51.84 L979.23 51.84 Q973.067 51.84 970.723 49.5541 Q968.379 47.2393 968.379 41.163 L968.379 23.5705 L964.473 23.5705 L964.473 19.4328 L968.379 19.4328 L968.379 10.2314 L973.732 10.2314 Z" fill="#000000" fill-rule="nonzero" fill-opacity="1" /><path clip-path="url(#clip710)" d="M991.151 39.0507 L991.151 19.4328 L996.475 19.4328 L996.475 38.8482 Q996.475 43.4488 998.269 45.7636 Q1000.06 48.0495 1003.65 48.0495 Q1007.96 48.0495 1010.45 45.3007 Q1012.97 42.5519 1012.97 37.8065 L1012.97 19.4328 L1018.29 19.4328 L1018.29 51.84 L1012.97 51.84 L1012.97 46.8632 Q1011.03 49.8145 1008.45 51.2613 Q1005.91 52.6791 1002.52 52.6791 Q996.938 52.6791 994.045 49.2069 Q991.151 45.7347 991.151 39.0507 M1004.55 18.6515 L1004.55 18.6515 Z" fill="#000000" fill-rule="nonzero" fill-opacity="1" /><path clip-path="url(#clip710)" d="M1048.04 24.4096 Q1047.14 23.8888 1046.07 23.6573 Q1045.03 23.3969 1043.76 23.3969 Q1039.24 23.3969 1036.81 26.3482 Q1034.41 29.2707 1034.41 34.7683 L1034.41 51.84 L1029.06 51.84 L1029.06 19.4328 L1034.41 19.4328 L1034.41 24.4675 Q1036.09 21.5161 1038.78 20.0983 Q1041.47 18.6515 1045.32 18.6515 Q1045.87 18.6515 1046.53 18.7383 Q1047.2 18.7962 1048.01 18.9409 L1048.04 24.4096 Z" fill="#000000" fill-rule="nonzero" fill-opacity="1" /><path clip-path="url(#clip710)" d="M1068.35 35.5496 Q1061.9 35.5496 1059.41 37.0253 Q1056.92 38.501 1056.92 42.06 Q1056.92 44.8956 1058.77 46.5738 Q1060.65 48.2231 1063.86 48.2231 Q1068.29 48.2231 1070.95 45.0981 Q1073.64 41.9442 1073.64 36.7359 L1073.64 35.5496 L1068.35 35.5496 M1078.97 33.3505 L1078.97 51.84 L1073.64 51.84 L1073.64 46.921 Q1071.82 49.8724 1069.1 51.2902 Q1066.38 52.6791 1062.45 52.6791 Q1057.47 52.6791 1054.52 49.9014 Q1051.6 47.0947 1051.6 42.4072 Q1051.6 36.9385 1055.24 34.1607 Q1058.92 31.3829 1066.18 31.3829 L1073.64 31.3829 L1073.64 30.8621 Q1073.64 27.1874 1071.21 25.1908 Q1068.81 23.1654 1064.44 23.1654 Q1061.67 23.1654 1059.03 23.8309 Q1056.4 24.4964 1053.97 25.8274 L1053.97 20.9085 Q1056.89 19.78 1059.64 19.2302 Q1062.39 18.6515 1064.99 18.6515 Q1072.02 18.6515 1075.5 22.2973 Q1078.97 25.9431 1078.97 33.3505 Z" fill="#000000" fill-rule="nonzero" fill-opacity="1" /><path clip-path="url(#clip710)" d="M1089.94 6.81709 L1095.26 6.81709 L1095.26 51.84 L1089.94 51.84 L1089.94 6.81709 Z" fill="#000000" fill-rule="nonzero" fill-opacity="1" /><path clip-path="url(#clip710)" d="M1145.95 31.5855 Q1147.83 32.222 1149.6 34.3054 Q1151.39 36.3887 1153.19 40.0345 L1159.12 51.84 L1152.84 51.84 L1147.31 40.7579 Q1145.17 36.4176 1143.15 34.9998 Q1141.15 33.582 1137.68 33.582 L1131.31 33.582 L1131.31 51.84 L1125.47 51.84 L1125.47 8.64 L1138.66 8.64 Q1146.07 8.64 1149.72 11.736 Q1153.36 14.8321 1153.36 21.0821 Q1153.36 25.1619 1151.45 27.8529 Q1149.57 30.5438 1145.95 31.5855 M1131.31 13.4432 L1131.31 28.7788 L1138.66 28.7788 Q1142.89 28.7788 1145.03 26.8401 Q1147.2 24.8726 1147.2 21.0821 Q1147.2 17.2916 1145.03 15.3819 Q1142.89 13.4432 1138.66 13.4432 L1131.31 13.4432 Z" fill="#000000" fill-rule="nonzero" fill-opacity="1" /><path clip-path="url(#clip710)" d="M1191.47 34.3054 L1191.47 36.9095 L1166.99 36.9095 Q1167.34 42.4072 1170.29 45.3007 Q1173.27 48.1653 1178.56 48.1653 Q1181.63 48.1653 1184.5 47.4129 Q1187.39 46.6606 1190.22 45.156 L1190.22 50.1907 Q1187.36 51.406 1184.35 52.0425 Q1181.34 52.6791 1178.25 52.6791 Q1170.49 52.6791 1165.95 48.1653 Q1161.43 43.6514 1161.43 35.9547 Q1161.43 27.9975 1165.72 23.339 Q1170.03 18.6515 1177.32 18.6515 Q1183.86 18.6515 1187.65 22.876 Q1191.47 27.0716 1191.47 34.3054 M1186.14 32.7429 Q1186.09 28.3737 1183.68 25.7695 Q1181.31 23.1654 1177.38 23.1654 Q1172.92 23.1654 1170.23 25.6827 Q1167.57 28.2001 1167.16 32.7718 L1186.14 32.7429 Z" fill="#000000" fill-rule="nonzero" fill-opacity="1" /><path clip-path="url(#clip710)" d="M1220.87 20.3876 L1220.87 25.4223 Q1218.61 24.2649 1216.18 23.6862 Q1213.75 23.1075 1211.14 23.1075 Q1207.18 23.1075 1205.18 24.3228 Q1203.22 25.5381 1203.22 27.9686 Q1203.22 29.8204 1204.63 30.891 Q1206.05 31.9327 1210.33 32.8876 L1212.16 33.2926 Q1217.83 34.5079 1220.2 36.7359 Q1222.6 38.935 1222.6 42.8991 Q1222.6 47.4129 1219.01 50.046 Q1215.46 52.6791 1209.21 52.6791 Q1206.6 52.6791 1203.77 52.1583 Q1200.96 51.6664 1197.83 50.6537 L1197.83 45.156 Q1200.79 46.6896 1203.65 47.4708 Q1206.51 48.2231 1209.32 48.2231 Q1213.08 48.2231 1215.11 46.95 Q1217.13 45.6479 1217.13 43.3042 Q1217.13 41.134 1215.66 39.9766 Q1214.21 38.8192 1209.26 37.7486 L1207.41 37.3146 Q1202.46 36.273 1200.26 34.1318 Q1198.07 31.9616 1198.07 28.2001 Q1198.07 23.6283 1201.31 21.1399 Q1204.55 18.6515 1210.51 18.6515 Q1213.46 18.6515 1216.06 19.0855 Q1218.67 19.5196 1220.87 20.3876 Z" fill="#000000" fill-rule="nonzero" fill-opacity="1" /><path clip-path="url(#clip710)" d="M1231.08 19.4328 L1236.4 19.4328 L1236.4 51.84 L1231.08 51.84 L1231.08 19.4328 M1231.08 6.81709 L1236.4 6.81709 L1236.4 13.559 L1231.08 13.559 L1231.08 6.81709 Z" fill="#000000" fill-rule="nonzero" fill-opacity="1" /><path clip-path="url(#clip710)" d="M1268.87 24.3517 L1268.87 6.81709 L1274.19 6.81709 L1274.19 51.84 L1268.87 51.84 L1268.87 46.9789 Q1267.19 49.8724 1264.62 51.2902 Q1262.07 52.6791 1258.48 52.6791 Q1252.61 52.6791 1248.9 47.9916 Q1245.23 43.3042 1245.23 35.6653 Q1245.23 28.0265 1248.9 23.339 Q1252.61 18.6515 1258.48 18.6515 Q1262.07 18.6515 1264.62 20.0693 Q1267.19 21.4582 1268.87 24.3517 M1250.73 35.6653 Q1250.73 41.5391 1253.13 44.8956 Q1255.56 48.2231 1259.78 48.2231 Q1264.01 48.2231 1266.44 44.8956 Q1268.87 41.5391 1268.87 35.6653 Q1268.87 29.7915 1266.44 26.464 Q1264.01 23.1075 1259.78 23.1075 Q1255.56 23.1075 1253.13 26.464 Q1250.73 29.7915 1250.73 35.6653 Z" fill="#000000" fill-rule="nonzero" fill-opacity="1" /><path clip-path="url(#clip710)" d="M1312.88 34.3054 L1312.88 36.9095 L1288.4 36.9095 Q1288.75 42.4072 1291.7 45.3007 Q1294.68 48.1653 1299.97 48.1653 Q1303.04 48.1653 1305.91 47.4129 Q1308.8 46.6606 1311.64 45.156 L1311.64 50.1907 Q1308.77 51.406 1305.76 52.0425 Q1302.75 52.6791 1299.66 52.6791 Q1291.9 52.6791 1287.36 48.1653 Q1282.85 43.6514 1282.85 35.9547 Q1282.85 27.9975 1287.13 23.339 Q1291.44 18.6515 1298.73 18.6515 Q1305.27 18.6515 1309.06 22.876 Q1312.88 27.0716 1312.88 34.3054 M1307.56 32.7429 Q1307.5 28.3737 1305.1 25.7695 Q1302.72 23.1654 1298.79 23.1654 Q1294.33 23.1654 1291.64 25.6827 Q1288.98 28.2001 1288.57 32.7718 L1307.56 32.7429 Z" fill="#000000" fill-rule="nonzero" fill-opacity="1" /><path clip-path="url(#clip710)" d="M1348.56 32.2799 L1348.56 51.84 L1343.23 51.84 L1343.23 32.4535 Q1343.23 27.8529 1341.44 25.567 Q1339.64 23.2811 1336.06 23.2811 Q1331.75 23.2811 1329.26 26.03 Q1326.77 28.7788 1326.77 33.5241 L1326.77 51.84 L1321.42 51.84 L1321.42 19.4328 L1326.77 19.4328 L1326.77 24.4675 Q1328.68 21.545 1331.25 20.0983 Q1333.86 18.6515 1337.24 18.6515 Q1342.83 18.6515 1345.69 22.1237 Q1348.56 25.567 1348.56 32.2799 Z" fill="#000000" fill-rule="nonzero" fill-opacity="1" /><path clip-path="url(#clip710)" d="M1382.5 20.677 L1382.5 25.6538 Q1380.24 24.4096 1377.95 23.802 Q1375.7 23.1654 1373.38 23.1654 Q1368.2 23.1654 1365.34 26.464 Q1362.47 29.7336 1362.47 35.6653 Q1362.47 41.597 1365.34 44.8956 Q1368.2 48.1653 1373.38 48.1653 Q1375.7 48.1653 1377.95 47.5576 Q1380.24 46.921 1382.5 45.6768 L1382.5 50.5958 Q1380.27 51.6375 1377.87 52.1583 Q1375.5 52.6791 1372.8 52.6791 Q1365.48 52.6791 1361.17 48.0784 Q1356.86 43.4778 1356.86 35.6653 Q1356.86 27.7371 1361.2 23.1943 Q1365.57 18.6515 1373.15 18.6515 Q1375.61 18.6515 1377.95 19.1724 Q1380.3 19.6642 1382.5 20.677 Z" fill="#000000" fill-rule="nonzero" fill-opacity="1" /><path clip-path="url(#clip710)" d="M1419.48 34.3054 L1419.48 36.9095 L1395 36.9095 Q1395.34 42.4072 1398.3 45.3007 Q1401.28 48.1653 1406.57 48.1653 Q1409.64 48.1653 1412.5 47.4129 Q1415.4 46.6606 1418.23 45.156 L1418.23 50.1907 Q1415.37 51.406 1412.36 52.0425 Q1409.35 52.6791 1406.25 52.6791 Q1398.5 52.6791 1393.96 48.1653 Q1389.44 43.6514 1389.44 35.9547 Q1389.44 27.9975 1393.72 23.339 Q1398.04 18.6515 1405.33 18.6515 Q1411.87 18.6515 1415.66 22.876 Q1419.48 27.0716 1419.48 34.3054 M1414.15 32.7429 Q1414.09 28.3737 1411.69 25.7695 Q1409.32 23.1654 1405.39 23.1654 Q1400.93 23.1654 1398.24 25.6827 Q1395.58 28.2001 1395.17 32.7718 L1414.15 32.7429 Z" fill="#000000" fill-rule="nonzero" fill-opacity="1" /><path clip-path="url(#clip710)" d="M1441.29 8.64 L1477.84 8.64 L1477.84 13.559 L1462.5 13.559 L1462.5 51.84 L1456.63 51.84 L1456.63 13.559 L1441.29 13.559 L1441.29 8.64 Z" fill="#000000" fill-rule="nonzero" fill-opacity="1" /><path clip-path="url(#clip710)" d="M1481.43 19.4328 L1486.75 19.4328 L1486.75 51.84 L1481.43 51.84 L1481.43 19.4328 M1481.43 6.81709 L1486.75 6.81709 L1486.75 13.559 L1481.43 13.559 L1481.43 6.81709 Z" fill="#000000" fill-rule="nonzero" fill-opacity="1" /><path clip-path="url(#clip710)" d="M1523.12 25.6538 Q1525.12 22.0659 1527.9 20.3587 Q1530.67 18.6515 1534.44 18.6515 Q1539.5 18.6515 1542.25 22.2105 Q1545 25.7406 1545 32.2799 L1545 51.84 L1539.64 51.84 L1539.64 32.4535 Q1539.64 27.795 1537.99 25.5381 Q1536.35 23.2811 1532.96 23.2811 Q1528.82 23.2811 1526.42 26.03 Q1524.02 28.7788 1524.02 33.5241 L1524.02 51.84 L1518.67 51.84 L1518.67 32.4535 Q1518.67 27.7661 1517.02 25.5381 Q1515.37 23.2811 1511.92 23.2811 Q1507.84 23.2811 1505.44 26.0589 Q1503.04 28.8077 1503.04 33.5241 L1503.04 51.84 L1497.69 51.84 L1497.69 19.4328 L1503.04 19.4328 L1503.04 24.4675 Q1504.86 21.4872 1507.41 20.0693 Q1509.96 18.6515 1513.46 18.6515 Q1516.99 18.6515 1519.45 20.4455 Q1521.94 22.2395 1523.12 25.6538 Z" fill="#000000" fill-rule="nonzero" fill-opacity="1" /><path clip-path="url(#clip710)" d="M1583.34 34.3054 L1583.34 36.9095 L1558.86 36.9095 Q1559.2 42.4072 1562.16 45.3007 Q1565.14 48.1653 1570.43 48.1653 Q1573.5 48.1653 1576.36 47.4129 Q1579.26 46.6606 1582.09 45.156 L1582.09 50.1907 Q1579.23 51.406 1576.22 52.0425 Q1573.21 52.6791 1570.11 52.6791 Q1562.36 52.6791 1557.81 48.1653 Q1553.3 43.6514 1553.3 35.9547 Q1553.3 27.9975 1557.58 23.339 Q1561.89 18.6515 1569.19 18.6515 Q1575.73 18.6515 1579.52 22.876 Q1583.34 27.0716 1583.34 34.3054 M1578.01 32.7429 Q1577.95 28.3737 1575.55 25.7695 Q1573.18 23.1654 1569.24 23.1654 Q1564.79 23.1654 1562.1 25.6827 Q1559.44 28.2001 1559.03 32.7718 L1578.01 32.7429 Z" fill="#000000" fill-rule="nonzero" fill-opacity="1" /><path clip-path="url(#clip710)" d="M1608.22 33.5241 L1661.69 33.5241 L1661.69 37.6908 L1608.22 37.6908 L1608.22 33.5241 Z" fill="#000000" fill-rule="nonzero" fill-opacity="1" /><path clip-path="url(#clip710)" d="M1689.24 8.64 L1695.08 8.64 L1695.08 26.898 L1714.47 8.64 L1721.99 8.64 L1700.55 28.7788 L1723.53 51.84 L1715.83 51.84 L1695.08 31.0357 L1695.08 51.84 L1689.24 51.84 L1689.24 8.64 Z" fill="#000000" fill-rule="nonzero" fill-opacity="1" /><path clip-path="url(#clip710)" d="M1728.56 24.9304 L1765.66 24.9304 L1765.66 29.7915 L1728.56 29.7915 L1728.56 24.9304 M1728.56 36.7359 L1765.66 36.7359 L1765.66 41.6549 L1728.56 41.6549 L1728.56 36.7359 Z" fill="#000000" fill-rule="nonzero" fill-opacity="1" /><path clip-path="url(#clip710)" d="M1791.49 27.9107 Q1787.56 27.9107 1785.24 30.6017 Q1782.96 33.2926 1782.96 37.9801 Q1782.96 42.6387 1785.24 45.3586 Q1787.56 48.0495 1791.49 48.0495 Q1795.43 48.0495 1797.72 45.3586 Q1800.03 42.6387 1800.03 37.9801 Q1800.03 33.2926 1797.72 30.6017 Q1795.43 27.9107 1791.49 27.9107 M1803.1 9.59486 L1803.1 14.9189 Q1800.9 13.8772 1798.64 13.3275 Q1796.41 12.7777 1794.21 12.7777 Q1788.43 12.7777 1785.36 16.6839 Q1782.32 20.5902 1781.89 28.4894 Q1783.59 25.9721 1786.17 24.6411 Q1788.75 23.2811 1791.84 23.2811 Q1798.35 23.2811 1802.11 27.2452 Q1805.9 31.1804 1805.9 37.9801 Q1805.9 44.6352 1801.97 48.6571 Q1798.03 52.6791 1791.49 52.6791 Q1784 52.6791 1780.04 46.95 Q1776.07 41.1919 1776.07 30.2834 Q1776.07 20.0404 1780.93 13.964 Q1785.79 7.85875 1793.98 7.85875 Q1796.18 7.85875 1798.41 8.29278 Q1800.67 8.72681 1803.1 9.59486 Z" fill="#000000" fill-rule="nonzero" fill-opacity="1" /><path clip-path="url(#clip712)" d="M521.921 519.208 L521.921 1241.31 L749.523 1241.31 L749.523 519.208 L521.921 519.208 L521.921 519.208  Z" fill="#4682b4" fill-rule="evenodd" fill-opacity="0.7"/>
<polyline clip-path="url(#clip712)" style="stroke:#000000; stroke-linecap:round; stroke-linejoin:round; stroke-width:4; stroke-opacity:0.7; fill:none" points="521.921,519.208 521.921,1241.31 749.523,1241.31 749.523,519.208 521.921,519.208 "/>
<path clip-path="url(#clip712)" d="M806.424 1111.37 L806.424 1241.31 L1034.03 1241.31 L1034.03 1111.37 L806.424 1111.37 L806.424 1111.37  Z" fill="#4682b4" fill-rule="evenodd" fill-opacity="0.7"/>
<polyline clip-path="url(#clip712)" style="stroke:#000000; stroke-linecap:round; stroke-linejoin:round; stroke-width:4; stroke-opacity:0.7; fill:none" points="806.424,1111.37 806.424,1241.31 1034.03,1241.31 1034.03,1111.37 806.424,1111.37 "/>
<path clip-path="url(#clip712)" d="M1090.93 1118.78 L1090.93 1241.31 L1318.53 1241.31 L1318.53 1118.78 L1090.93 1118.78 L1090.93 1118.78  Z" fill="#4682b4" fill-rule="evenodd" fill-opacity="0.7"/>
<polyline clip-path="url(#clip712)" style="stroke:#000000; stroke-linecap:round; stroke-linejoin:round; stroke-width:4; stroke-opacity:0.7; fill:none" points="1090.93,1118.78 1090.93,1241.31 1318.53,1241.31 1318.53,1118.78 1090.93,1118.78 "/>
<path clip-path="url(#clip712)" d="M1375.43 1151.26 L1375.43 1241.31 L1603.03 1241.31 L1603.03 1151.26 L1375.43 1151.26 L1375.43 1151.26  Z" fill="#4682b4" fill-rule="evenodd" fill-opacity="0.7"/>
<polyline clip-path="url(#clip712)" style="stroke:#000000; stroke-linecap:round; stroke-linejoin:round; stroke-width:4; stroke-opacity:0.7; fill:none" points="1375.43,1151.26 1375.43,1241.31 1603.03,1241.31 1603.03,1151.26 1375.43,1151.26 "/>
<path clip-path="url(#clip712)" d="M1659.93 1138.27 L1659.93 1241.31 L1887.54 1241.31 L1887.54 1138.27 L1659.93 1138.27 L1659.93 1138.27  Z" fill="#4682b4" fill-rule="evenodd" fill-opacity="0.7"/>
<polyline clip-path="url(#clip712)" style="stroke:#000000; stroke-linecap:round; stroke-linejoin:round; stroke-width:4; stroke-opacity:0.7; fill:none" points="1659.93,1138.27 1659.93,1241.31 1887.54,1241.31 1887.54,1138.27 1659.93,1138.27 "/>
<path clip-path="url(#clip712)" d="M1944.44 184.932 L1944.44 1241.31 L2172.04 1241.31 L2172.04 184.932 L1944.44 184.932 L1944.44 184.932  Z" fill="#4682b4" fill-rule="evenodd" fill-opacity="0.7"/>
<polyline clip-path="url(#clip712)" style="stroke:#000000; stroke-linecap:round; stroke-linejoin:round; stroke-width:4; stroke-opacity:0.7; fill:none" points="1944.44,184.932 1944.44,1241.31 2172.04,1241.31 2172.04,184.932 1944.44,184.932 "/>
<circle clip-path="url(#clip712)" style="fill:#4682b4; stroke:none; fill-opacity:0" cx="635.722" cy="519.208" r="2"/>
<circle clip-path="url(#clip712)" style="fill:#4682b4; stroke:none; fill-opacity:0" cx="920.225" cy="1111.37" r="2"/>
<circle clip-path="url(#clip712)" style="fill:#4682b4; stroke:none; fill-opacity:0" cx="1204.73" cy="1118.78" r="2"/>
<circle clip-path="url(#clip712)" style="fill:#4682b4; stroke:none; fill-opacity:0" cx="1489.23" cy="1151.26" r="2"/>
<circle clip-path="url(#clip712)" style="fill:#4682b4; stroke:none; fill-opacity:0" cx="1773.73" cy="1138.27" r="2"/>
<circle clip-path="url(#clip712)" style="fill:#4682b4; stroke:none; fill-opacity:0" cx="2058.24" cy="184.932" r="2"/>
</svg>
