<?xml version="1.0" encoding="utf-8"?>
<svg xmlns="http://www.w3.org/2000/svg" xmlns:xlink="http://www.w3.org/1999/xlink" width="700" height="500" viewBox="0 0 2800 2000">
<defs>
  <clipPath id="clip740">
    <rect x="0" y="0" width="2800" height="2000"/>
  </clipPath>
</defs>
<path clip-path="url(#clip740)" d="M0 2000 L2800 2000 L2800 -4.44089e-14 L0 -4.44089e-14  Z" fill="#ffffff" fill-rule="evenodd" fill-opacity="1"/>
<defs>
  <clipPath id="clip741">
    <rect x="532" y="125" width="2142" height="1506"/>
  </clipPath>
</defs>
<path clip-path="url(#clip740)" d="M448.779 1630.83 L2674.02 1630.83 L2674.02 125.984 L448.779 125.984  Z" fill="#ffffff" fill-rule="evenodd" fill-opacity="1"/>
<defs>
  <clipPath id="clip742">
    <rect x="448" y="125" width="2226" height="1506"/>
  </clipPath>
</defs>
<polyline clip-path="url(#clip742)" style="stroke:#000000; stroke-linecap:round; stroke-linejoin:round; stroke-width:2; stroke-opacity:0.1; fill:none" points="503.394,1630.83 503.394,125.984 "/>
<polyline clip-path="url(#clip742)" style="stroke:#000000; stroke-linecap:round; stroke-linejoin:round; stroke-width:2; stroke-opacity:0.1; fill:none" points="921.577,1630.83 921.577,125.984 "/>
<polyline clip-path="url(#clip742)" style="stroke:#000000; stroke-linecap:round; stroke-linejoin:round; stroke-width:2; stroke-opacity:0.1; fill:none" points="1339.76,1630.83 1339.76,125.984 "/>
<polyline clip-path="url(#clip742)" style="stroke:#000000; stroke-linecap:round; stroke-linejoin:round; stroke-width:2; stroke-opacity:0.1; fill:none" points="1757.94,1630.83 1757.94,125.984 "/>
<polyline clip-path="url(#clip742)" style="stroke:#000000; stroke-linecap:round; stroke-linejoin:round; stroke-width:2; stroke-opacity:0.1; fill:none" points="2176.13,1630.83 2176.13,125.984 "/>
<polyline clip-path="url(#clip742)" style="stroke:#000000; stroke-linecap:round; stroke-linejoin:round; stroke-width:2; stroke-opacity:0.1; fill:none" points="2594.31,1630.83 2594.31,125.984 "/>
<polyline clip-path="url(#clip742)" style="stroke:#000000; stroke-linecap:round; stroke-linejoin:round; stroke-width:2; stroke-opacity:0.1; fill:none" points="448.779,1398.71 2674.02,1398.71 "/>
<polyline clip-path="url(#clip742)" style="stroke:#000000; stroke-linecap:round; stroke-linejoin:round; stroke-width:2; stroke-opacity:0.1; fill:none" points="448.779,1040.04 2674.02,1040.04 "/>
<polyline clip-path="url(#clip742)" style="stroke:#000000; stroke-linecap:round; stroke-linejoin:round; stroke-width:2; stroke-opacity:0.1; fill:none" points="448.779,681.367 2674.02,681.367 "/>
<polyline clip-path="url(#clip742)" style="stroke:#000000; stroke-linecap:round; stroke-linejoin:round; stroke-width:2; stroke-opacity:0.1; fill:none" points="448.779,322.698 2674.02,322.698 "/>
<polyline clip-path="url(#clip740)" style="stroke:#000000; stroke-linecap:round; stroke-linejoin:round; stroke-width:4; stroke-opacity:1; fill:none" points="448.779,1630.83 2674.02,1630.83 "/>
<polyline clip-path="url(#clip740)" style="stroke:#000000; stroke-linecap:round; stroke-linejoin:round; stroke-width:4; stroke-opacity:1; fill:none" points="503.394,1630.83 503.394,1611.93 "/>
<polyline clip-path="url(#clip740)" style="stroke:#000000; stroke-linecap:round; stroke-linejoin:round; stroke-width:4; stroke-opacity:1; fill:none" points="921.577,1630.83 921.577,1611.93 "/>
<polyline clip-path="url(#clip740)" style="stroke:#000000; stroke-linecap:round; stroke-linejoin:round; stroke-width:4; stroke-opacity:1; fill:none" points="1339.76,1630.83 1339.76,1611.93 "/>
<polyline clip-path="url(#clip740)" style="stroke:#000000; stroke-linecap:round; stroke-linejoin:round; stroke-width:4; stroke-opacity:1; fill:none" points="1757.94,1630.83 1757.94,1611.93 "/>
<polyline clip-path="url(#clip740)" style="stroke:#000000; stroke-linecap:round; stroke-linejoin:round; stroke-width:4; stroke-opacity:1; fill:none" points="2176.13,1630.83 2176.13,1611.93 "/>
<polyline clip-path="url(#clip740)" style="stroke:#000000; stroke-linecap:round; stroke-linejoin:round; stroke-width:4; stroke-opacity:1; fill:none" points="2594.31,1630.83 2594.31,1611.93 "/>
<path clip-path="url(#clip740)" d="M503.394 1667.88 Q498.88 1667.88 496.594 1672.34 Q494.337 1676.76 494.337 1685.67 Q494.337 1694.56 496.594 1699.01 Q498.88 1703.44 503.394 1703.44 Q507.936 1703.44 510.193 1699.01 Q512.479 1694.56 512.479 1685.67 Q512.479 1676.76 510.193 1672.34 Q507.936 1667.88 503.394 1667.88 M503.394 1663.25 Q510.656 1663.25 514.476 1669.01 Q518.324 1674.74 518.324 1685.67 Q518.324 1696.58 514.476 1702.34 Q510.656 1708.07 503.394 1708.07 Q496.131 1708.07 492.283 1702.34 Q488.463 1696.58 488.463 1685.67 Q488.463 1674.74 492.283 1669.01 Q496.131 1663.25 503.394 1663.25 Z" fill="#000000" fill-rule="nonzero" fill-opacity="1" /><path clip-path="url(#clip740)" d="M889.951 1664.03 L912.896 1664.03 L912.896 1668.95 L895.304 1668.95 L895.304 1679.54 Q896.577 1679.11 897.85 1678.9 Q899.123 1678.67 900.396 1678.67 Q907.63 1678.67 911.855 1682.64 Q916.079 1686.6 916.079 1693.37 Q916.079 1700.34 911.739 1704.22 Q907.399 1708.07 899.499 1708.07 Q896.78 1708.07 893.944 1707.61 Q891.137 1707.14 888.128 1706.22 L888.128 1700.34 Q890.732 1701.76 893.51 1702.46 Q896.288 1703.15 899.384 1703.15 Q904.389 1703.15 907.312 1700.52 Q910.234 1697.89 910.234 1693.37 Q910.234 1688.86 907.312 1686.22 Q904.389 1683.59 899.384 1683.59 Q897.04 1683.59 894.696 1684.11 Q892.381 1684.63 889.951 1685.73 L889.951 1664.03 Z" fill="#000000" fill-rule="nonzero" fill-opacity="1" /><path clip-path="url(#clip740)" d="M940.095 1667.88 Q935.581 1667.88 933.296 1672.34 Q931.039 1676.76 931.039 1685.67 Q931.039 1694.56 933.296 1699.01 Q935.581 1703.44 940.095 1703.44 Q944.638 1703.44 946.895 1699.01 Q949.181 1694.56 949.181 1685.67 Q949.181 1676.76 946.895 1672.34 Q944.638 1667.88 940.095 1667.88 M940.095 1663.25 Q947.358 1663.25 951.177 1669.01 Q955.026 1674.74 955.026 1685.67 Q955.026 1696.58 951.177 1702.34 Q947.358 1708.07 940.095 1708.07 Q932.833 1708.07 928.984 1702.34 Q925.165 1696.58 925.165 1685.67 Q925.165 1674.74 928.984 1669.01 Q932.833 1663.25 940.095 1663.25 Z" fill="#000000" fill-rule="nonzero" fill-opacity="1" /><path clip-path="url(#clip740)" d="M1289.27 1702.31 L1298.82 1702.31 L1298.82 1669.36 L1288.43 1671.44 L1288.43 1666.11 L1298.76 1664.03 L1304.6 1664.03 L1304.6 1702.31 L1314.15 1702.31 L1314.15 1707.23 L1289.27 1707.23 L1289.27 1702.31 Z" fill="#000000" fill-rule="nonzero" fill-opacity="1" /><path clip-path="url(#clip740)" d="M1338.46 1667.88 Q1333.94 1667.88 1331.66 1672.34 Q1329.4 1676.76 1329.4 1685.67 Q1329.4 1694.56 1331.66 1699.01 Q1333.94 1703.44 1338.46 1703.44 Q1343 1703.44 1345.26 1699.01 Q1347.54 1694.56 1347.54 1685.67 Q1347.54 1676.76 1345.26 1672.34 Q1343 1667.88 1338.46 1667.88 M1338.46 1663.25 Q1345.72 1663.25 1349.54 1669.01 Q1353.39 1674.74 1353.39 1685.67 Q1353.39 1696.58 1349.54 1702.34 Q1345.72 1708.07 1338.46 1708.07 Q1331.2 1708.07 1327.35 1702.34 Q1323.53 1696.58 1323.53 1685.67 Q1323.53 1674.74 1327.35 1669.01 Q1331.2 1663.25 1338.46 1663.25 Z" fill="#000000" fill-rule="nonzero" fill-opacity="1" /><path clip-path="url(#clip740)" d="M1376.16 1667.88 Q1371.65 1667.88 1369.36 1672.34 Q1367.1 1676.76 1367.1 1685.67 Q1367.1 1694.56 1369.36 1699.01 Q1371.65 1703.44 1376.16 1703.44 Q1380.7 1703.44 1382.96 1699.01 Q1385.25 1694.56 1385.25 1685.67 Q1385.25 1676.76 1382.96 1672.34 Q1380.7 1667.88 1376.16 1667.88 M1376.16 1663.25 Q1383.42 1663.25 1387.24 1669.01 Q1391.09 1674.74 1391.09 1685.67 Q1391.09 1696.58 1387.24 1702.34 Q1383.42 1708.07 1376.16 1708.07 Q1368.9 1708.07 1365.05 1702.34 Q1361.23 1696.58 1361.23 1685.67 Q1361.23 1674.74 1365.05 1669.01 Q1368.9 1663.25 1376.16 1663.25 Z" fill="#000000" fill-rule="nonzero" fill-opacity="1" /><path clip-path="url(#clip740)" d="M1707.45 1702.31 L1717 1702.31 L1717 1669.36 L1706.61 1671.44 L1706.61 1666.11 L1716.94 1664.03 L1722.79 1664.03 L1722.79 1702.31 L1732.34 1702.31 L1732.34 1707.23 L1707.45 1707.23 L1707.45 1702.31 Z" fill="#000000" fill-rule="nonzero" fill-opacity="1" /><path clip-path="url(#clip740)" d="M1744.2 1664.03 L1767.14 1664.03 L1767.14 1668.95 L1749.55 1668.95 L1749.55 1679.54 Q1750.83 1679.11 1752.1 1678.9 Q1753.37 1678.67 1754.64 1678.67 Q1761.88 1678.67 1766.1 1682.64 Q1770.33 1686.6 1770.33 1693.37 Q1770.33 1700.34 1765.99 1704.22 Q1761.65 1708.07 1753.75 1708.07 Q1751.03 1708.07 1748.19 1707.61 Q1745.39 1707.14 1742.38 1706.22 L1742.38 1700.34 Q1744.98 1701.76 1747.76 1702.46 Q1750.54 1703.15 1753.63 1703.15 Q1758.64 1703.15 1761.56 1700.52 Q1764.48 1697.89 1764.48 1693.37 Q1764.48 1688.86 1761.56 1686.22 Q1758.64 1683.59 1753.63 1683.59 Q1751.29 1683.59 1748.94 1684.11 Q1746.63 1684.63 1744.2 1685.73 L1744.2 1664.03 Z" fill="#000000" fill-rule="nonzero" fill-opacity="1" /><path clip-path="url(#clip740)" d="M1794.34 1667.88 Q1789.83 1667.88 1787.54 1672.34 Q1785.29 1676.76 1785.29 1685.67 Q1785.29 1694.56 1787.54 1699.01 Q1789.83 1703.44 1794.34 1703.44 Q1798.89 1703.44 1801.14 1699.01 Q1803.43 1694.56 1803.43 1685.67 Q1803.43 1676.76 1801.14 1672.34 Q1798.89 1667.88 1794.34 1667.88 M1794.34 1663.25 Q1801.61 1663.25 1805.43 1669.01 Q1809.27 1674.74 1809.27 1685.67 Q1809.27 1696.58 1805.43 1702.34 Q1801.61 1708.07 1794.34 1708.07 Q1787.08 1708.07 1783.23 1702.34 Q1779.41 1696.58 1779.41 1685.67 Q1779.41 1674.74 1783.23 1669.01 Q1787.08 1663.25 1794.34 1663.25 Z" fill="#000000" fill-rule="nonzero" fill-opacity="1" /><path clip-path="url(#clip740)" d="M2130.74 1702.31 L2151.14 1702.31 L2151.14 1707.23 L2123.71 1707.23 L2123.71 1702.31 Q2127.04 1698.87 2132.77 1693.08 Q2138.53 1687.27 2140 1685.59 Q2142.81 1682.43 2143.91 1680.26 Q2145.04 1678.06 2145.04 1675.95 Q2145.04 1672.51 2142.61 1670.34 Q2140.2 1668.17 2136.33 1668.17 Q2133.58 1668.17 2130.51 1669.12 Q2127.47 1670.08 2124 1672.02 L2124 1666.11 Q2127.53 1664.7 2130.6 1663.97 Q2133.66 1663.25 2136.21 1663.25 Q2142.92 1663.25 2146.92 1666.61 Q2150.91 1669.96 2150.91 1675.58 Q2150.91 1678.24 2149.9 1680.64 Q2148.91 1683.01 2146.28 1686.25 Q2145.56 1687.09 2141.68 1691.11 Q2137.8 1695.11 2130.74 1702.31 Z" fill="#000000" fill-rule="nonzero" fill-opacity="1" /><path clip-path="url(#clip740)" d="M2175.91 1667.88 Q2171.4 1667.88 2169.11 1672.34 Q2166.85 1676.76 2166.85 1685.67 Q2166.85 1694.56 2169.11 1699.01 Q2171.4 1703.44 2175.91 1703.44 Q2180.45 1703.44 2182.71 1699.01 Q2185 1694.56 2185 1685.67 Q2185 1676.76 2182.71 1672.34 Q2180.45 1667.88 2175.91 1667.88 M2175.91 1663.25 Q2183.17 1663.25 2186.99 1669.01 Q2190.84 1674.74 2190.84 1685.67 Q2190.84 1696.58 2186.99 1702.34 Q2183.17 1708.07 2175.91 1708.07 Q2168.65 1708.07 2164.8 1702.34 Q2160.98 1696.58 2160.98 1685.67 Q2160.98 1674.74 2164.8 1669.01 Q2168.65 1663.25 2175.91 1663.25 Z" fill="#000000" fill-rule="nonzero" fill-opacity="1" /><path clip-path="url(#clip740)" d="M2213.61 1667.88 Q2209.1 1667.88 2206.81 1672.34 Q2204.56 1676.76 2204.56 1685.67 Q2204.56 1694.56 2206.81 1699.01 Q2209.1 1703.44 2213.61 1703.44 Q2218.15 1703.44 2220.41 1699.01 Q2222.7 1694.56 2222.7 1685.67 Q2222.7 1676.76 2220.41 1672.34 Q2218.15 1667.88 2213.61 1667.88 M2213.61 1663.25 Q2220.87 1663.25 2224.69 1669.01 Q2228.54 1674.74 2228.54 1685.67 Q2228.54 1696.58 2224.69 1702.34 Q2220.87 1708.07 2213.61 1708.07 Q2206.35 1708.07 2202.5 1702.34 Q2198.68 1696.58 2198.68 1685.67 Q2198.68 1674.74 2202.5 1669.01 Q2206.35 1663.25 2213.61 1663.25 Z" fill="#000000" fill-rule="nonzero" fill-opacity="1" /><path clip-path="url(#clip740)" d="M2548.93 1702.31 L2569.32 1702.31 L2569.32 1707.23 L2541.89 1707.23 L2541.89 1702.31 Q2545.22 1698.87 2550.95 1693.08 Q2556.71 1687.27 2558.18 1685.59 Q2560.99 1682.43 2562.09 1680.26 Q2563.22 1678.06 2563.22 1675.95 Q2563.22 1672.51 2560.79 1670.34 Q2558.39 1668.17 2554.51 1668.17 Q2551.76 1668.17 2548.69 1669.12 Q2545.66 1670.08 2542.18 1672.02 L2542.18 1666.11 Q2545.71 1664.7 2548.78 1663.97 Q2551.85 1663.25 2554.39 1663.25 Q2561.11 1663.25 2565.1 1666.61 Q2569.09 1669.96 2569.09 1675.58 Q2569.09 1678.24 2568.08 1680.64 Q2567.1 1683.01 2564.46 1686.25 Q2563.74 1687.09 2559.86 1691.11 Q2555.99 1695.11 2548.93 1702.31 Z" fill="#000000" fill-rule="nonzero" fill-opacity="1" /><path clip-path="url(#clip740)" d="M2581.65 1664.03 L2604.6 1664.03 L2604.6 1668.95 L2587 1668.95 L2587 1679.54 Q2588.28 1679.11 2589.55 1678.9 Q2590.82 1678.67 2592.1 1678.67 Q2599.33 1678.67 2603.55 1682.64 Q2607.78 1686.6 2607.78 1693.37 Q2607.78 1700.34 2603.44 1704.22 Q2599.1 1708.07 2591.2 1708.07 Q2588.48 1708.07 2585.64 1707.61 Q2582.84 1707.14 2579.83 1706.22 L2579.83 1700.34 Q2582.43 1701.76 2585.21 1702.46 Q2587.99 1703.15 2591.08 1703.15 Q2596.09 1703.15 2599.01 1700.52 Q2601.93 1697.89 2601.93 1693.37 Q2601.93 1688.86 2599.01 1686.22 Q2596.09 1683.59 2591.08 1683.59 Q2588.74 1683.59 2586.4 1684.11 Q2584.08 1684.63 2581.65 1685.73 L2581.65 1664.03 Z" fill="#000000" fill-rule="nonzero" fill-opacity="1" /><path clip-path="url(#clip740)" d="M2631.8 1667.88 Q2627.28 1667.88 2625 1672.34 Q2622.74 1676.76 2622.74 1685.67 Q2622.74 1694.56 2625 1699.01 Q2627.28 1703.44 2631.8 1703.44 Q2636.34 1703.44 2638.6 1699.01 Q2640.88 1694.56 2640.88 1685.67 Q2640.88 1676.76 2638.6 1672.34 Q2636.34 1667.88 2631.8 1667.88 M2631.8 1663.25 Q2639.06 1663.25 2642.88 1669.01 Q2646.73 1674.74 2646.73 1685.67 Q2646.73 1696.58 2642.88 1702.34 Q2639.06 1708.07 2631.8 1708.07 Q2624.53 1708.07 2620.68 1702.34 Q2616.86 1696.58 2616.86 1685.67 Q2616.86 1674.74 2620.68 1669.01 Q2624.53 1663.25 2631.8 1663.25 Z" fill="#000000" fill-rule="nonzero" fill-opacity="1" /><path clip-path="url(#clip740)" d="M1508.74 1747.14 L1515.17 1747.14 L1515.17 1789.24 L1538.31 1789.24 L1538.31 1794.66 L1508.74 1794.66 L1508.74 1747.14 Z" fill="#000000" fill-rule="nonzero" fill-opacity="1" /><path clip-path="url(#clip740)" d="M1561 1776.74 Q1553.9 1776.74 1551.16 1778.36 Q1548.43 1779.98 1548.43 1783.9 Q1548.43 1787.02 1550.46 1788.86 Q1552.53 1790.68 1556.07 1790.68 Q1560.94 1790.68 1563.86 1787.24 Q1566.82 1783.77 1566.82 1778.04 L1566.82 1776.74 L1561 1776.74 M1572.68 1774.32 L1572.68 1794.66 L1566.82 1794.66 L1566.82 1789.24 Q1564.82 1792.49 1561.83 1794.05 Q1558.84 1795.58 1554.51 1795.58 Q1549.03 1795.58 1545.79 1792.52 Q1542.57 1789.44 1542.57 1784.28 Q1542.57 1778.26 1546.58 1775.21 Q1550.62 1772.15 1558.61 1772.15 L1566.82 1772.15 L1566.82 1771.58 Q1566.82 1767.54 1564.15 1765.34 Q1561.51 1763.11 1556.7 1763.11 Q1553.65 1763.11 1550.75 1763.85 Q1547.85 1764.58 1545.18 1766.04 L1545.18 1760.63 Q1548.4 1759.39 1551.42 1758.78 Q1554.44 1758.15 1557.31 1758.15 Q1565.04 1758.15 1568.86 1762.16 Q1572.68 1766.17 1572.68 1774.32 Z" fill="#000000" fill-rule="nonzero" fill-opacity="1" /><path clip-path="url(#clip740)" d="M1608.2 1776.42 Q1608.2 1770.05 1605.56 1766.55 Q1602.95 1763.05 1598.21 1763.05 Q1593.5 1763.05 1590.85 1766.55 Q1588.24 1770.05 1588.24 1776.42 Q1588.24 1782.75 1590.85 1786.25 Q1593.5 1789.75 1598.21 1789.75 Q1602.95 1789.75 1605.56 1786.25 Q1608.2 1782.75 1608.2 1776.42 M1614.06 1790.23 Q1614.06 1799.33 1610.02 1803.76 Q1605.97 1808.21 1597.63 1808.21 Q1594.55 1808.21 1591.81 1807.74 Q1589.07 1807.29 1586.49 1806.34 L1586.49 1800.64 Q1589.07 1802.04 1591.59 1802.71 Q1594.1 1803.38 1596.71 1803.38 Q1602.47 1803.38 1605.34 1800.35 Q1608.2 1797.36 1608.2 1791.28 L1608.2 1788.39 Q1606.39 1791.54 1603.55 1793.1 Q1600.72 1794.66 1596.77 1794.66 Q1590.22 1794.66 1586.21 1789.66 Q1582.2 1784.66 1582.2 1776.42 Q1582.2 1768.14 1586.21 1763.15 Q1590.22 1758.15 1596.77 1758.15 Q1600.72 1758.15 1603.55 1759.71 Q1606.39 1761.27 1608.2 1764.42 L1608.2 1759.01 L1614.06 1759.01 L1614.06 1790.23 Z" fill="#000000" fill-rule="nonzero" fill-opacity="1" /><polyline clip-path="url(#clip740)" style="stroke:#000000; stroke-linecap:round; stroke-linejoin:round; stroke-width:4; stroke-opacity:1; fill:none" points="448.779,1630.83 448.779,125.984 "/>
<polyline clip-path="url(#clip740)" style="stroke:#000000; stroke-linecap:round; stroke-linejoin:round; stroke-width:4; stroke-opacity:1; fill:none" points="448.779,1398.71 467.676,1398.71 "/>
<polyline clip-path="url(#clip740)" style="stroke:#000000; stroke-linecap:round; stroke-linejoin:round; stroke-width:4; stroke-opacity:1; fill:none" points="448.779,1040.04 467.676,1040.04 "/>
<polyline clip-path="url(#clip740)" style="stroke:#000000; stroke-linecap:round; stroke-linejoin:round; stroke-width:4; stroke-opacity:1; fill:none" points="448.779,681.367 467.676,681.367 "/>
<polyline clip-path="url(#clip740)" style="stroke:#000000; stroke-linecap:round; stroke-linejoin:round; stroke-width:4; stroke-opacity:1; fill:none" points="448.779,322.698 467.676,322.698 "/>
<path clip-path="url(#clip740)" d="M335.309 1380.95 Q330.795 1380.95 328.51 1385.41 Q326.253 1389.84 326.253 1398.75 Q326.253 1407.63 328.51 1412.09 Q330.795 1416.52 335.309 1416.52 Q339.852 1416.52 342.109 1412.09 Q344.395 1407.63 344.395 1398.75 Q344.395 1389.84 342.109 1385.41 Q339.852 1380.95 335.309 1380.95 M335.309 1376.33 Q342.572 1376.33 346.391 1382.08 Q350.24 1387.81 350.24 1398.75 Q350.24 1409.66 346.391 1415.42 Q342.572 1421.15 335.309 1421.15 Q328.047 1421.15 324.198 1415.42 Q320.379 1409.66 320.379 1398.75 Q320.379 1387.81 324.198 1382.08 Q328.047 1376.33 335.309 1376.33 Z" fill="#000000" fill-rule="nonzero" fill-opacity="1" /><path clip-path="url(#clip740)" d="M360.512 1412.96 L366.617 1412.96 L366.617 1420.31 L360.512 1420.31 L360.512 1412.96 Z" fill="#000000" fill-rule="nonzero" fill-opacity="1" /><path clip-path="url(#clip740)" d="M391.848 1380.95 Q387.335 1380.95 385.049 1385.41 Q382.792 1389.84 382.792 1398.75 Q382.792 1407.63 385.049 1412.09 Q387.335 1416.52 391.848 1416.52 Q396.391 1416.52 398.648 1412.09 Q400.934 1407.63 400.934 1398.75 Q400.934 1389.84 398.648 1385.41 Q396.391 1380.95 391.848 1380.95 M391.848 1376.33 Q399.111 1376.33 402.93 1382.08 Q406.779 1387.81 406.779 1398.75 Q406.779 1409.66 402.93 1415.42 Q399.111 1421.15 391.848 1421.15 Q384.586 1421.15 380.737 1415.42 Q376.918 1409.66 376.918 1398.75 Q376.918 1387.81 380.737 1382.08 Q384.586 1376.33 391.848 1376.33 Z" fill="#000000" fill-rule="nonzero" fill-opacity="1" /><path clip-path="url(#clip740)" d="M336.843 1022.29 Q332.329 1022.29 330.043 1026.74 Q327.786 1031.17 327.786 1040.08 Q327.786 1048.96 330.043 1053.42 Q332.329 1057.85 336.843 1057.85 Q341.386 1057.85 343.643 1053.42 Q345.928 1048.96 345.928 1040.08 Q345.928 1031.17 343.643 1026.74 Q341.386 1022.29 336.843 1022.29 M336.843 1017.66 Q344.106 1017.66 347.925 1023.41 Q351.773 1029.14 351.773 1040.08 Q351.773 1050.99 347.925 1056.75 Q344.106 1062.48 336.843 1062.48 Q329.58 1062.48 325.732 1056.75 Q321.912 1050.99 321.912 1040.08 Q321.912 1029.14 325.732 1023.41 Q329.58 1017.66 336.843 1017.66 Z" fill="#000000" fill-rule="nonzero" fill-opacity="1" /><path clip-path="url(#clip740)" d="M362.045 1054.29 L368.151 1054.29 L368.151 1061.64 L362.045 1061.64 L362.045 1054.29 Z" fill="#000000" fill-rule="nonzero" fill-opacity="1" /><path clip-path="url(#clip740)" d="M381.895 1056.72 L391.443 1056.72 L391.443 1023.76 L381.056 1025.84 L381.056 1020.52 L391.385 1018.44 L397.23 1018.44 L397.23 1056.72 L406.779 1056.72 L406.779 1061.64 L381.895 1061.64 L381.895 1056.72 Z" fill="#000000" fill-rule="nonzero" fill-opacity="1" /><path clip-path="url(#clip740)" d="M337.306 663.616 Q332.792 663.616 330.506 668.072 Q328.249 672.499 328.249 681.411 Q328.249 690.294 330.506 694.75 Q332.792 699.177 337.306 699.177 Q341.849 699.177 344.106 694.75 Q346.391 690.294 346.391 681.411 Q346.391 672.499 344.106 668.072 Q341.849 663.616 337.306 663.616 M337.306 658.986 Q344.569 658.986 348.388 664.744 Q352.236 670.473 352.236 681.411 Q352.236 692.319 348.388 698.077 Q344.569 703.806 337.306 703.806 Q330.043 703.806 326.195 698.077 Q322.375 692.319 322.375 681.411 Q322.375 670.473 326.195 664.744 Q330.043 658.986 337.306 658.986 Z" fill="#000000" fill-rule="nonzero" fill-opacity="1" /><path clip-path="url(#clip740)" d="M362.508 695.618 L368.614 695.618 L368.614 702.967 L362.508 702.967 L362.508 695.618 Z" fill="#000000" fill-rule="nonzero" fill-opacity="1" /><path clip-path="url(#clip740)" d="M386.38 698.048 L406.779 698.048 L406.779 702.967 L379.348 702.967 L379.348 698.048 Q382.676 694.605 388.405 688.818 Q394.163 683.002 395.639 681.324 Q398.446 678.17 399.545 676 Q400.674 673.801 400.674 671.688 Q400.674 668.245 398.243 666.075 Q395.841 663.905 391.964 663.905 Q389.215 663.905 386.148 664.86 Q383.11 665.815 379.638 667.753 L379.638 661.85 Q383.168 660.433 386.235 659.709 Q389.302 658.986 391.848 658.986 Q398.561 658.986 402.554 662.342 Q406.547 665.699 406.547 671.312 Q406.547 673.974 405.535 676.376 Q404.551 678.749 401.918 681.989 Q401.194 682.828 397.317 686.85 Q393.44 690.843 386.38 698.048 Z" fill="#000000" fill-rule="nonzero" fill-opacity="1" /><path clip-path="url(#clip740)" d="M336.12 304.946 Q331.606 304.946 329.32 309.402 Q327.063 313.829 327.063 322.741 Q327.063 331.624 329.32 336.08 Q331.606 340.507 336.12 340.507 Q340.662 340.507 342.919 336.08 Q345.205 331.624 345.205 322.741 Q345.205 313.829 342.919 309.402 Q340.662 304.946 336.12 304.946 M336.12 300.316 Q343.382 300.316 347.202 306.074 Q351.05 311.803 351.05 322.741 Q351.05 333.649 347.202 339.408 Q343.382 345.137 336.12 345.137 Q328.857 345.137 325.008 339.408 Q321.189 333.649 321.189 322.741 Q321.189 311.803 325.008 306.074 Q328.857 300.316 336.12 300.316 Z" fill="#000000" fill-rule="nonzero" fill-opacity="1" /><path clip-path="url(#clip740)" d="M361.322 336.948 L367.427 336.948 L367.427 344.298 L361.322 344.298 L361.322 336.948 Z" fill="#000000" fill-rule="nonzero" fill-opacity="1" /><path clip-path="url(#clip740)" d="M397.867 321.005 Q402.062 321.902 404.406 324.737 Q406.779 327.573 406.779 331.74 Q406.779 338.134 402.381 341.636 Q397.983 345.137 389.881 345.137 Q387.161 345.137 384.267 344.587 Q381.403 344.066 378.336 342.995 L378.336 337.353 Q380.766 338.771 383.66 339.494 Q386.553 340.218 389.707 340.218 Q395.205 340.218 398.069 338.048 Q400.963 335.877 400.963 331.74 Q400.963 327.92 398.272 325.779 Q395.61 323.609 390.836 323.609 L385.801 323.609 L385.801 318.806 L391.067 318.806 Q395.378 318.806 397.664 317.099 Q399.95 315.362 399.95 312.122 Q399.95 308.794 397.578 307.029 Q395.234 305.235 390.836 305.235 Q388.434 305.235 385.685 305.756 Q382.936 306.277 379.638 307.376 L379.638 302.168 Q382.965 301.242 385.859 300.779 Q388.781 300.316 391.356 300.316 Q398.012 300.316 401.889 303.354 Q405.766 306.364 405.766 311.514 Q405.766 315.102 403.712 317.59 Q401.657 320.05 397.867 321.005 Z" fill="#000000" fill-rule="nonzero" fill-opacity="1" /><path clip-path="url(#clip740)" d="M222.937 1043.9 L246.585 1052.62 L246.585 1035.15 L222.937 1043.9 M216.603 1047.53 L216.603 1040.24 L264.123 1022.13 L264.123 1028.81 L251.933 1033.14 L251.933 1054.56 L264.123 1058.89 L264.123 1065.67 L216.603 1047.53 Z" fill="#000000" fill-rule="nonzero" fill-opacity="1" /><path clip-path="url(#clip740)" d="M220.263 980.753 L227.043 980.753 Q224.019 983.999 222.523 987.691 Q221.027 991.351 221.027 995.489 Q221.027 1003.64 226.024 1007.97 Q230.989 1012.29 240.411 1012.29 Q249.8 1012.29 254.797 1007.97 Q259.762 1003.64 259.762 995.489 Q259.762 991.351 258.266 987.691 Q256.77 983.999 253.747 980.753 L260.463 980.753 Q262.754 984.126 263.9 987.914 Q265.046 991.67 265.046 995.871 Q265.046 1006.66 258.457 1012.87 Q251.837 1019.07 240.411 1019.07 Q228.952 1019.07 222.364 1012.87 Q215.743 1006.66 215.743 995.871 Q215.743 991.606 216.889 987.85 Q218.003 984.063 220.263 980.753 Z" fill="#000000" fill-rule="nonzero" fill-opacity="1" /><path clip-path="url(#clip740)" d="M216.603 970.822 L216.603 943.513 L222.014 943.513 L222.014 964.393 L236.018 964.393 L236.018 945.55 L241.429 945.55 L241.429 964.393 L264.123 964.393 L264.123 970.822 L216.603 970.822 Z" fill="#000000" fill-rule="nonzero" fill-opacity="1" /><path clip-path="url(#clip740)" d="M232.581 899.049 Q232.581 903.759 236.273 906.497 Q239.933 909.234 246.331 909.234 Q252.728 909.234 256.42 906.528 Q260.081 903.791 260.081 899.049 Q260.081 894.37 256.389 891.633 Q252.696 888.895 246.331 888.895 Q239.997 888.895 236.305 891.633 Q232.581 894.37 232.581 899.049 M227.616 899.049 Q227.616 891.41 232.581 887.049 Q237.546 882.689 246.331 882.689 Q255.084 882.689 260.081 887.049 Q265.046 891.41 265.046 899.049 Q265.046 906.719 260.081 911.08 Q255.084 915.409 246.331 915.409 Q237.546 915.409 232.581 911.08 Q227.616 906.719 227.616 899.049 Z" fill="#000000" fill-rule="nonzero" fill-opacity="1" /><path clip-path="url(#clip740)" d="M214.598 854.934 L219.467 854.934 L219.467 860.536 Q219.467 863.687 220.741 864.928 Q222.014 866.138 225.324 866.138 L228.475 866.138 L228.475 856.494 L233.026 856.494 L233.026 866.138 L264.123 866.138 L264.123 872.026 L233.026 872.026 L233.026 877.628 L228.475 877.628 L228.475 872.026 L225.992 872.026 Q220.04 872.026 217.335 869.257 Q214.598 866.488 214.598 860.472 L214.598 854.934 Z" fill="#000000" fill-rule="nonzero" fill-opacity="1" /><path clip-path="url(#clip740)" d="M214.311 821.769 L279.496 821.769 L279.496 827.18 L214.311 827.18 L214.311 821.769 Z" fill="#000000" fill-rule="nonzero" fill-opacity="1" /><path clip-path="url(#clip740)" d="M257.343 774.695 L244.58 774.695 L244.58 785.198 L239.297 785.198 L239.297 768.329 L259.699 768.329 Q262.34 772.053 263.709 776.541 Q265.046 781.028 265.046 786.121 Q265.046 797.261 258.553 803.563 Q252.028 809.833 240.411 809.833 Q228.761 809.833 222.268 803.563 Q215.743 797.261 215.743 786.121 Q215.743 781.474 216.889 777.305 Q218.035 773.103 220.263 769.57 L227.106 769.57 Q224.083 773.135 222.555 777.145 Q221.027 781.156 221.027 785.58 Q221.027 794.301 225.897 798.693 Q230.767 803.054 240.411 803.054 Q250.023 803.054 254.893 798.693 Q259.762 794.301 259.762 785.58 Q259.762 782.174 259.189 779.501 Q258.585 776.827 257.343 774.695 Z" fill="#000000" fill-rule="nonzero" fill-opacity="1" /><path clip-path="url(#clip740)" d="M274.945 729.753 L279.496 729.753 L279.496 763.618 L274.945 763.618 L274.945 729.753 Z" fill="#000000" fill-rule="nonzero" fill-opacity="1" /><path clip-path="url(#clip740)" d="M218.353 718.454 L228.475 718.454 L228.475 706.391 L233.026 706.391 L233.026 718.454 L252.378 718.454 Q256.739 718.454 257.98 717.276 Q259.221 716.066 259.221 712.406 L259.221 706.391 L264.123 706.391 L264.123 712.406 Q264.123 719.186 261.608 721.764 Q259.062 724.342 252.378 724.342 L233.026 724.342 L233.026 728.639 L228.475 728.639 L228.475 724.342 L218.353 724.342 L218.353 718.454 Z" fill="#000000" fill-rule="nonzero" fill-opacity="1" /><path clip-path="url(#clip740)" d="M214.311 691.145 L279.496 691.145 L279.496 696.556 L214.311 696.556 L214.311 691.145 Z" fill="#000000" fill-rule="nonzero" fill-opacity="1" /><polyline clip-path="url(#clip742)" style="stroke:#ff0000; stroke-linecap:round; stroke-linejoin:round; stroke-width:8; stroke-opacity:1; fill:none" stroke-dasharray="32, 20" points="511.757,308.359 520.121,445.342 528.485,244.324 536.848,374.698 545.212,443.486 553.576,521.521 561.939,524.737 570.303,391.832 578.667,452.733 587.03,417.678 595.394,672.872 603.758,658.236 612.121,595.433 620.485,682.184 628.849,654.874 637.212,851.628 645.576,539.956 653.94,612.508 662.303,833.873 670.667,685.076 679.031,844.669 687.394,824.341 695.758,753.06 704.122,947.202 712.485,882.607 720.849,871.155 729.213,946.721 737.576,986.038 745.94,821.82 754.304,915.818 762.667,967.828 771.031,1011.86 779.395,966.282 787.758,1038.18 796.122,1004.09 804.486,984.134 812.849,1023.72 821.213,971.218 829.577,942.463 837.94,1072.47 846.304,1029.55 854.668,1025.79 863.031,1043.5 871.395,1174.95 879.759,1093.41 888.122,961.632 896.486,1228.62 904.85,1148.68 913.213,1062.27 921.577,1189.32 929.941,1117.64 938.304,1151.54 946.668,1127.61 955.032,1171.32 963.395,1088 971.759,1139.24 980.123,1172.88 988.486,1158.35 996.85,1101.42 1005.21,1245.32 1013.58,1194.19 1021.94,1211.63 1030.3,1094.06 1038.67,1256.16 1047.03,1234.62 1055.4,1201.86 1063.76,1278.16 1072.12,1191.15 1080.49,1257.99 1088.85,1263.22 1097.21,1265.88 1105.58,1141.38 1113.94,1279.36 1122.3,1242.61 1130.67,1186.52 1139.03,1147.5 1147.4,1246.25 1155.76,1275.88 1164.12,1240.99 1172.49,1305.04 1180.85,1253.1 1189.21,1223.73 1197.58,1327.57 1205.94,1316.16 1214.31,1273.78 1222.67,1325.15 1231.03,1319.46 1239.4,1273.56 1247.76,1337.67 1256.12,1263.73 1264.49,1278.63 1272.85,1200.2 1281.21,1339.88 1289.58,1229.67 1297.94,1228.17 1306.31,1273.33 1314.67,1145.21 1323.03,1235.46 1331.4,1254.3 1339.76,1205.12 1348.12,1196.29 1356.49,1209.03 1364.85,1205.4 1373.21,1287.85 1381.58,1168.53 1389.94,1208.75 1398.31,1240.01 1406.67,1330.08 1415.03,1223.42 1423.4,1337.58 1431.76,1249.04 1440.12,1322.03 1448.49,1235.24 1456.85,1264.31 1465.22,1239.41 1473.58,1215.49 1481.94,1233.59 1490.31,1266.78 1498.67,1185.01 1507.03,1149.61 1515.4,1187.46 1523.76,1205.85 1532.12,1250.53 1540.49,1209.8 1548.85,1269.42 1557.22,1221.53 1565.58,1258.16 1573.94,1262.36 1582.31,1192.11 1590.67,1192.53 1599.03,1134.52 1607.4,1297.47 1615.76,1256.88 1624.12,1242.29 1632.49,1278.51 1640.85,1252.62 1649.22,1308.03 1657.58,1166.45 1665.94,1220.52 1674.31,1268.83 1682.67,1277.74 1691.03,1250.25 1699.4,1248.87 1707.76,1254.93 1716.13,1242.94 1724.49,1215.37 1732.85,1403.62 1741.22,1255.71 1749.58,1249.28 1757.94,1300.37 1766.31,1133.28 1774.67,1216.79 1783.03,1230.71 1791.4,1242.05 1799.76,1250.27 1808.13,1207.63 1816.49,1288.21 1824.85,1229.42 1833.22,1273.27 1841.58,1168.24 1849.94,1168.07 1858.31,1231.68 1866.67,1252.13 1875.03,1285.02 1883.4,1295.99 1891.76,1312.32 1900.13,1341.72 1908.49,1225.99 1916.85,1224.55 1925.22,1256.86 1933.58,1303.39 1941.94,1219.85 1950.31,1233.19 1958.67,1250.5 1967.04,1396.13 1975.4,1276.93 1983.76,1277.54 1992.13,1382.13 2000.49,1295.47 2008.85,1398.57 2017.22,1387.51 2025.58,1285.5 2033.94,1335.16 2042.31,1418.97 2050.67,1393.37 2059.04,1442.69 2067.4,1372.05 2075.76,1400.17 2084.13,1364.57 2092.49,1406.4 2100.85,1398.63 2109.22,1362.66 2117.58,1405.67 2125.94,1385.02 2134.31,1403.25 2142.67,1421.63 2151.04,1329.92 2159.4,1328.54 2167.76,1378.9 2176.13,1423.09 2184.49,1317.19 2192.85,1358.43 2201.22,1274.56 2209.58,1329 2217.95,1434.05 2226.31,1316.31 2234.67,1333.58 2243.04,1351.16 2251.4,1373.59 2259.76,1424.01 2268.13,1286.35 2276.49,1343.18 2284.85,1427.51 2293.22,1302.04 2301.58,1383.39 2309.95,1314.69 2318.31,1344.86 2326.67,1400.77 2335.04,1390.4 2343.4,1478.76 2351.76,1327.3 2360.13,1411.61 2368.49,1446.29 2376.85,1364.76 2385.22,1460.19 2393.58,1462.57 2401.95,1468.17 2410.31,1481.14 2418.67,1494.92 2427.04,1547.24 2435.4,1452.23 2443.76,1498.97 2452.13,1542.49 2460.49,1459.2 2468.86,1479.06 2477.22,1520.54 2485.58,1463.66 2493.95,1584.83 2502.31,1463.75 2510.67,1495.93 2519.04,1549.86 2527.4,1444.9 2535.76,1588.24 2544.13,1510.83 2552.49,1495.1 2560.86,1530.65 2569.22,1559.25 2577.58,1478.43 2585.95,1488.94 2594.31,1556.5 2602.67,1488.85 2611.04,1545.69 "/>
<polyline clip-path="url(#clip742)" style="stroke:#000080; stroke-linecap:round; stroke-linejoin:round; stroke-width:8; stroke-opacity:1; fill:none" points="511.757,319.705 520.121,421.106 528.485,502.733 536.848,551.904 545.212,609.175 553.576,666.47 561.939,712.262 570.303,748.695 578.667,802.49 587.03,838.83 595.394,877.339 603.758,911.367 612.121,941.706 620.485,978.741 628.849,1008.28 637.212,1036.12 645.576,1049.69 653.94,1086.59 662.303,1103.31 670.667,1120.21 679.031,1141.96 687.394,1154.32 695.758,1177.5 704.122,1188.38 712.485,1210.48 720.849,1223.49 729.213,1235.49 737.576,1242.03 745.94,1262.13 754.304,1268.08 762.667,1280.98 771.031,1289.24 779.395,1298.71 787.758,1313.55 796.122,1309.31 804.486,1313.98 812.849,1324.76 821.213,1330.12 829.577,1339 837.94,1339.02 846.304,1347.26 854.668,1347.35 863.031,1346.48 871.395,1350.18 879.759,1355.56 888.122,1355.07 896.486,1359.64 904.85,1365.89 913.213,1363.76 921.577,1373.97 929.941,1375.32 938.304,1379.87 946.668,1379.39 955.032,1377.39 963.395,1380.26 971.759,1381.1 980.123,1385.15 988.486,1386.42 996.85,1385.53 1005.21,1392.77 1013.58,1393.42 1021.94,1391.17 1030.3,1393.69 1038.67,1399.72 1047.03,1400.67 1055.4,1402.45 1063.76,1406.25 1072.12,1412.91 1080.49,1407.08 1088.85,1407.47 1097.21,1415.16 1105.58,1411.96 1113.94,1407.77 1122.3,1417.77 1130.67,1415.07 1139.03,1411.06 1147.4,1408.09 1155.76,1411 1164.12,1407.02 1172.49,1406.62 1180.85,1412.47 1189.21,1416.09 1197.58,1407.74 1205.94,1416.79 1214.31,1416.89 1222.67,1417.42 1231.03,1416.94 1239.4,1420.87 1247.76,1416.41 1256.12,1418.82 1264.49,1420.94 1272.85,1421.9 1281.21,1418.17 1289.58,1416.76 1297.94,1428.57 1306.31,1424.68 1314.67,1419.68 1323.03,1415.58 1331.4,1417.28 1339.76,1416.75 1348.12,1415.15 1356.49,1407.98 1364.85,1408.68 1373.21,1414.18 1381.58,1413.04 1389.94,1411.23 1398.31,1411.4 1406.67,1402.55 1415.03,1409.47 1423.4,1408.64 1431.76,1408 1440.12,1411.15 1448.49,1408.28 1456.85,1409.77 1465.22,1408.59 1473.58,1405.85 1481.94,1412.52 1490.31,1406.43 1498.67,1408.92 1507.03,1409.23 1515.4,1403.71 1523.76,1396.11 1532.12,1400.93 1540.49,1396.9 1548.85,1396.62 1557.22,1409.67 1565.58,1402.1 1573.94,1407.67 1582.31,1405.29 1590.67,1403.22 1599.03,1401.17 1607.4,1404.04 1615.76,1406.71 1624.12,1404.78 1632.49,1407.01 1640.85,1402.04 1649.22,1404.39 1657.58,1401.16 1665.94,1397.93 1674.31,1403.89 1682.67,1404.28 1691.03,1413.22 1699.4,1406 1707.76,1407.22 1716.13,1408.88 1724.49,1413.18 1732.85,1406.41 1741.22,1405.47 1749.58,1416.3 1757.94,1409.72 1766.31,1406.87 1774.67,1407.91 1783.03,1412.5 1791.4,1408.73 1799.76,1409.66 1808.13,1405.63 1816.49,1407.8 1824.85,1411.21 1833.22,1403.91 1841.58,1408.75 1849.94,1410.72 1858.31,1408.49 1866.67,1412.42 1875.03,1410.82 1883.4,1418.25 1891.76,1413.03 1900.13,1419.39 1908.49,1408.92 1916.85,1419.78 1925.22,1421.54 1933.58,1423.85 1941.94,1422.84 1950.31,1425.47 1958.67,1424.18 1967.04,1416.91 1975.4,1421.52 1983.76,1428.26 1992.13,1428.31 2000.49,1423.74 2008.85,1422.18 2017.22,1426.57 2025.58,1419.57 2033.94,1424.6 2042.31,1424.32 2050.67,1419.7 2059.04,1415.73 2067.4,1413.21 2075.76,1423.05 2084.13,1422.06 2092.49,1419.73 2100.85,1415 2109.22,1413.86 2117.58,1413.75 2125.94,1418.32 2134.31,1423.09 2142.67,1416.03 2151.04,1416.51 2159.4,1418.5 2167.76,1411.07 2176.13,1407.91 2184.49,1415.64 2192.85,1415.21 2201.22,1413.25 2209.58,1413.62 2217.95,1409.93 2226.31,1409.27 2234.67,1408.42 2243.04,1415.12 2251.4,1417.43 2259.76,1403.01 2268.13,1407.74 2276.49,1408.79 2284.85,1415.18 2293.22,1412.27 2301.58,1412.3 2309.95,1415.46 2318.31,1407.5 2326.67,1408.61 2335.04,1415.77 2343.4,1414.7 2351.76,1410.68 2360.13,1410.28 2368.49,1416.11 2376.85,1412.25 2385.22,1413.33 2393.58,1410.82 2401.95,1417.37 2410.31,1408.62 2418.67,1409.81 2427.04,1409.63 2435.4,1407.81 2443.76,1402.43 2452.13,1409.91 2460.49,1409.9 2468.86,1406.44 2477.22,1403.19 2485.58,1405.49 2493.95,1401.88 2502.31,1409.27 2510.67,1400.26 2519.04,1405.12 2527.4,1405.29 2535.76,1406.36 2544.13,1401.69 2552.49,1401.24 2560.86,1404.76 2569.22,1406.69 2577.58,1401.56 2585.95,1397.71 2594.31,1398.07 2602.67,1398.05 2611.04,1398.64 "/>
<path clip-path="url(#clip742)" d="M511.757 477.977 L520.121 592.293 L528.485 665.433 L536.848 732.253 L545.212 788.735 L553.576 830.481 L561.939 876.546 L570.303 915.452 L578.667 955.491 L587.03 1017.69 L595.394 1058.03 L603.758 1090.51 L612.121 1106.2 L620.485 1151.25 L628.849 1167.86 L637.212 1191.34 L645.576 1205.23 L653.94 1238.97 L662.303 1251.42 L670.667 1272.16 L679.031 1295.49 L687.394 1324.03 L695.758 1339.76 L704.122 1350.29 L712.485 1365.56 L720.849 1386.22 L729.213 1397.51 L737.576 1389.55 L745.94 1404.67 L754.304 1411.57 L762.667 1429.36 L771.031 1438.61 L779.395 1433.16 L787.758 1431.06 L796.122 1438.29 L804.486 1447.28 L812.849 1459.26 L821.213 1457.57 L829.577 1474.97 L837.94 1480.46 L846.304 1484.57 L854.668 1485.79 L863.031 1486.74 L871.395 1476.15 L879.759 1483.2 L888.122 1476.55 L896.486 1491.61 L904.85 1496.76 L913.213 1511.97 L921.577 1512.48 L929.941 1514.75 L938.304 1523.28 L946.668 1516.85 L955.032 1514.61 L963.395 1531.19 L971.759 1509.13 L980.123 1519.82 L988.486 1520.57 L996.85 1515.32 L1005.21 1521.67 L1013.58 1542.68 L1021.94 1550.18 L1030.3 1533.27 L1038.67 1541.78 L1047.03 1546.2 L1055.4 1534.2 L1063.76 1552.32 L1072.12 1551.11 L1080.49 1530.29 L1088.85 1539.67 L1097.21 1569.52 L1105.58 1550.89 L1113.94 1541.68 L1122.3 1559.07 L1130.67 1538.37 L1139.03 1538.26 L1147.4 1532.95 L1155.76 1527.85 L1164.12 1521.44 L1172.49 1536.73 L1180.85 1537.97 L1189.21 1544.77 L1197.58 1537.62 L1205.94 1543.05 L1214.31 1539.07 L1222.67 1546.86 L1231.03 1535.47 L1239.4 1541.19 L1247.76 1545.1 L1256.12 1546.27 L1264.49 1539.23 L1272.85 1528.6 L1281.21 1544.73 L1289.58 1540.65 L1297.94 1542.74 L1306.31 1537.66 L1314.67 1545.54 L1323.03 1545.75 L1331.4 1547.21 L1339.76 1542.87 L1348.12 1546.41 L1356.49 1547.09 L1364.85 1560.38 L1373.21 1551.38 L1381.58 1544.97 L1389.94 1549.97 L1398.31 1549.54 L1406.67 1535.83 L1415.03 1539.81 L1423.4 1538.63 L1431.76 1553.63 L1440.12 1545.19 L1448.49 1541.66 L1456.85 1537.33 L1465.22 1524.47 L1473.58 1534.83 L1481.94 1553.03 L1490.31 1548.76 L1498.67 1544.9 L1507.03 1548.17 L1515.4 1543.41 L1523.76 1531.04 L1532.12 1539.54 L1540.49 1547.73 L1548.85 1543.52 L1557.22 1540.93 L1565.58 1544.5 L1573.94 1545.47 L1582.31 1551.36 L1590.67 1535.32 L1599.03 1536 L1607.4 1562.24 L1615.76 1540.52 L1624.12 1548.26 L1632.49 1539.74 L1640.85 1542.95 L1649.22 1542.27 L1657.58 1518.46 L1665.94 1534.8 L1674.31 1531.19 L1682.67 1534.42 L1691.03 1532 L1699.4 1547.41 L1707.76 1543.68 L1716.13 1549.29 L1724.49 1553.34 L1732.85 1537.85 L1741.22 1518.22 L1749.58 1552.28 L1757.94 1547.04 L1766.31 1528.81 L1774.67 1531.1 L1783.03 1553.84 L1791.4 1553.33 L1799.76 1521.15 L1808.13 1528.68 L1816.49 1540.65 L1824.85 1567.14 L1833.22 1535.44 L1841.58 1557.27 L1849.94 1556.01 L1858.31 1554.79 L1866.67 1546.67 L1875.03 1536.62 L1883.4 1543.82 L1891.76 1551.04 L1900.13 1549.99 L1908.49 1541.54 L1916.85 1542.88 L1925.22 1541.01 L1933.58 1546.56 L1941.94 1568.02 L1950.31 1558.4 L1958.67 1555.87 L1967.04 1540.71 L1975.4 1546.63 L1983.76 1567.25 L1992.13 1552.72 L2000.49 1568.19 L2008.85 1550.23 L2017.22 1556.77 L2025.58 1547.03 L2033.94 1536.76 L2042.31 1539.16 L2050.67 1542.63 L2059.04 1543.02 L2067.4 1532.42 L2075.76 1550.23 L2084.13 1537.9 L2092.49 1546.98 L2100.85 1552.1 L2109.22 1535.14 L2117.58 1528.25 L2125.94 1545.56 L2134.31 1537.34 L2142.67 1556.37 L2151.04 1529.04 L2159.4 1541.16 L2167.76 1548.59 L2176.13 1540.6 L2184.49 1536.83 L2192.85 1549.55 L2201.22 1546.45 L2209.58 1545.28 L2217.95 1547.15 L2226.31 1547.26 L2234.67 1545.65 L2243.04 1540.02 L2251.4 1549.9 L2259.76 1541.15 L2268.13 1546.69 L2276.49 1549.05 L2284.85 1544.66 L2293.22 1538.43 L2301.58 1549.82 L2309.95 1548.43 L2318.31 1534.79 L2326.67 1535.55 L2335.04 1538.04 L2343.4 1544.64 L2351.76 1539.26 L2360.13 1527.51 L2368.49 1535.93 L2376.85 1517.92 L2385.22 1535.17 L2393.58 1537.39 L2401.95 1534.22 L2410.31 1551.32 L2418.67 1531.15 L2427.04 1549.56 L2435.4 1523.55 L2443.76 1522.78 L2452.13 1536.54 L2460.49 1531 L2468.86 1526.49 L2477.22 1520.6 L2485.58 1523.87 L2493.95 1521.59 L2502.31 1540.81 L2510.67 1527.49 L2519.04 1535.23 L2527.4 1542.35 L2535.76 1532.39 L2544.13 1532.8 L2552.49 1524.64 L2560.86 1535.42 L2569.22 1549.57 L2577.58 1530.05 L2585.95 1514.91 L2594.31 1519.49 L2602.67 1527.21 L2611.04 1505.39 L2611.04 1268.83 L2602.67 1269.81 L2594.31 1274.19 L2585.95 1278.03 L2577.58 1266.29 L2569.22 1271.6 L2560.86 1270.77 L2552.49 1278.02 L2544.13 1270.91 L2535.76 1265.54 L2527.4 1283.56 L2519.04 1266.17 L2510.67 1273.02 L2502.31 1279.76 L2493.95 1271.41 L2485.58 1299.39 L2477.22 1274.86 L2468.86 1290.66 L2460.49 1273.33 L2452.13 1290.84 L2443.76 1267.16 L2435.4 1278.81 L2427.04 1284.78 L2418.67 1284.44 L2410.31 1290.62 L2401.95 1295.53 L2393.58 1274.15 L2385.22 1293.49 L2376.85 1288.78 L2368.49 1288.93 L2360.13 1257.34 L2351.76 1268.75 L2343.4 1295 L2335.04 1290.93 L2326.67 1279.03 L2318.31 1270.23 L2309.95 1293.15 L2301.58 1273.83 L2293.22 1272.44 L2284.85 1282.94 L2276.49 1278.64 L2268.13 1262.78 L2259.76 1256.32 L2251.4 1282.86 L2243.04 1291.62 L2234.67 1281.82 L2226.31 1281.33 L2217.95 1266.48 L2209.58 1289.79 L2201.22 1295.99 L2192.85 1279.65 L2184.49 1288.32 L2176.13 1285.79 L2167.76 1280.21 L2159.4 1286.92 L2151.04 1277.96 L2142.67 1283.67 L2134.31 1291.06 L2125.94 1303.18 L2117.58 1282.38 L2109.22 1272.26 L2100.85 1278.46 L2092.49 1299.26 L2084.13 1297.33 L2075.76 1283.75 L2067.4 1275.83 L2059.04 1268.36 L2050.67 1285.89 L2042.31 1301.93 L2033.94 1292.23 L2025.58 1295.79 L2017.22 1281.26 L2008.85 1288.51 L2000.49 1298.12 L1992.13 1284.63 L1983.76 1295.26 L1975.4 1291.63 L1967.04 1279.37 L1958.67 1294.92 L1950.31 1288.27 L1941.94 1280.35 L1933.58 1301.13 L1925.22 1290.39 L1916.85 1287.52 L1908.49 1277.33 L1900.13 1284.13 L1891.76 1289.12 L1883.4 1271.03 L1875.03 1280.36 L1866.67 1261.42 L1858.31 1260.3 L1849.94 1264.69 L1841.58 1268.23 L1833.22 1270.93 L1824.85 1275.91 L1816.49 1271.51 L1808.13 1260.81 L1799.76 1274.13 L1791.4 1264.93 L1783.03 1284.7 L1774.67 1268.57 L1766.31 1279.68 L1757.94 1270.32 L1749.58 1287.2 L1741.22 1270.66 L1732.85 1252.46 L1724.49 1283.55 L1716.13 1272.02 L1707.76 1263.63 L1699.4 1271.68 L1691.03 1289.96 L1682.67 1277.7 L1674.31 1265.7 L1665.94 1248.29 L1657.58 1269.34 L1649.22 1281.54 L1640.85 1243.67 L1632.49 1241.86 L1624.12 1263.46 L1615.76 1242.53 L1607.4 1258.64 L1599.03 1250.57 L1590.67 1247.75 L1582.31 1246.91 L1573.94 1268.34 L1565.58 1258.64 L1557.22 1280.95 L1548.85 1264.76 L1540.49 1232.8 L1532.12 1271.61 L1523.76 1250.32 L1515.4 1258.55 L1507.03 1261.94 L1498.67 1274.39 L1490.31 1246.43 L1481.94 1275.22 L1473.58 1270.7 L1465.22 1287.77 L1456.85 1271.07 L1448.49 1264.23 L1440.12 1274.36 L1431.76 1261.12 L1423.4 1262.02 L1415.03 1263.72 L1406.67 1262.7 L1398.31 1252.55 L1389.94 1257.62 L1381.58 1279.6 L1373.21 1270.93 L1364.85 1267.32 L1356.49 1266.67 L1348.12 1264.67 L1339.76 1284.41 L1331.4 1284.17 L1323.03 1272.53 L1314.67 1286.4 L1306.31 1299.16 L1297.94 1302.38 L1289.58 1266 L1281.21 1286.61 L1272.85 1283.14 L1264.49 1285.46 L1256.12 1276.45 L1247.76 1274.98 L1239.4 1281.03 L1231.03 1298.48 L1222.67 1276.53 L1214.31 1301.38 L1205.94 1289.76 L1197.58 1275.65 L1189.21 1268.48 L1180.85 1277.27 L1172.49 1264.05 L1164.12 1280 L1155.76 1270.75 L1147.4 1276.71 L1139.03 1277.21 L1130.67 1286.83 L1122.3 1272.47 L1113.94 1271.08 L1105.58 1277.93 L1097.21 1273.53 L1088.85 1275.88 L1080.49 1277.73 L1072.12 1265.08 L1063.76 1268.24 L1055.4 1254.27 L1047.03 1245.64 L1038.67 1245.03 L1030.3 1248.58 L1021.94 1224.23 L1013.58 1247.19 L1005.21 1239.88 L996.85 1237.13 L988.486 1245.93 L980.123 1246.54 L971.759 1229.81 L963.395 1240.71 L955.032 1220.69 L946.668 1227.02 L938.304 1224.67 L929.941 1236.42 L921.577 1212.29 L913.213 1199.64 L904.85 1205.17 L896.486 1214.8 L888.122 1217.58 L879.759 1200 L871.395 1204.39 L863.031 1219.93 L854.668 1202.05 L846.304 1210.14 L837.94 1203.19 L829.577 1193.21 L821.213 1195.47 L812.849 1190.39 L804.486 1162.01 L796.122 1162.83 L787.758 1168.89 L779.395 1158.51 L771.031 1137.06 L762.667 1131.07 L754.304 1120.86 L745.94 1092.52 L737.576 1067.15 L729.213 1064.71 L720.849 1053.02 L712.485 1031.41 L704.122 1021.44 L695.758 990.192 L687.394 983.744 L679.031 965.809 L670.667 966.291 L662.303 929.62 L653.94 940.78 L645.576 873.676 L637.212 861.934 L628.849 831.768 L620.485 824.244 L612.121 753.185 L603.758 727.186 L595.394 706.771 L587.03 674.106 L578.667 657.91 L570.303 588.939 L561.939 551.231 L553.576 514.28 L545.212 450.155 L536.848 371.339 L528.485 345.186 L520.121 247.856 L511.757 168.574  Z" fill="#000080" fill-rule="evenodd" fill-opacity="0.15"/>
<polyline clip-path="url(#clip742)" style="stroke:#000080; stroke-linecap:round; stroke-linejoin:round; stroke-width:4; stroke-opacity:0.15; fill:none" points="511.757,477.977 520.121,592.293 528.485,665.433 536.848,732.253 545.212,788.735 553.576,830.481 561.939,876.546 570.303,915.452 578.667,955.491 587.03,1017.69 595.394,1058.03 603.758,1090.51 612.121,1106.2 620.485,1151.25 628.849,1167.86 637.212,1191.34 645.576,1205.23 653.94,1238.97 662.303,1251.42 670.667,1272.16 679.031,1295.49 687.394,1324.03 695.758,1339.76 704.122,1350.29 712.485,1365.56 720.849,1386.22 729.213,1397.51 737.576,1389.55 745.94,1404.67 754.304,1411.57 762.667,1429.36 771.031,1438.61 779.395,1433.16 787.758,1431.06 796.122,1438.29 804.486,1447.28 812.849,1459.26 821.213,1457.57 829.577,1474.97 837.94,1480.46 846.304,1484.57 854.668,1485.79 863.031,1486.74 871.395,1476.15 879.759,1483.2 888.122,1476.55 896.486,1491.61 904.85,1496.76 913.213,1511.97 921.577,1512.48 929.941,1514.75 938.304,1523.28 946.668,1516.85 955.032,1514.61 963.395,1531.19 971.759,1509.13 980.123,1519.82 988.486,1520.57 996.85,1515.32 1005.21,1521.67 1013.58,1542.68 1021.94,1550.18 1030.3,1533.27 1038.67,1541.78 1047.03,1546.2 1055.4,1534.2 1063.76,1552.32 1072.12,1551.11 1080.49,1530.29 1088.85,1539.67 1097.21,1569.52 1105.58,1550.89 1113.94,1541.68 1122.3,1559.07 1130.67,1538.37 1139.03,1538.26 1147.4,1532.95 1155.76,1527.85 1164.12,1521.44 1172.49,1536.73 1180.85,1537.97 1189.21,1544.77 1197.58,1537.62 1205.94,1543.05 1214.31,1539.07 1222.67,1546.86 1231.03,1535.47 1239.4,1541.19 1247.76,1545.1 1256.12,1546.27 1264.49,1539.23 1272.85,1528.6 1281.21,1544.73 1289.58,1540.65 1297.94,1542.74 1306.31,1537.66 1314.67,1545.54 1323.03,1545.75 1331.4,1547.21 1339.76,1542.87 1348.12,1546.41 1356.49,1547.09 1364.85,1560.38 1373.21,1551.38 1381.58,1544.97 1389.94,1549.97 1398.31,1549.54 1406.67,1535.83 1415.03,1539.81 1423.4,1538.63 1431.76,1553.63 1440.12,1545.19 1448.49,1541.66 1456.85,1537.33 1465.22,1524.47 1473.58,1534.83 1481.94,1553.03 1490.31,1548.76 1498.67,1544.9 1507.03,1548.17 1515.4,1543.41 1523.76,1531.04 1532.12,1539.54 1540.49,1547.73 1548.85,1543.52 1557.22,1540.93 1565.58,1544.5 1573.94,1545.47 1582.31,1551.36 1590.67,1535.32 1599.03,1536 1607.4,1562.24 1615.76,1540.52 1624.12,1548.26 1632.49,1539.74 1640.85,1542.95 1649.22,1542.27 1657.58,1518.46 1665.94,1534.8 1674.31,1531.19 1682.67,1534.42 1691.03,1532 1699.4,1547.41 1707.76,1543.68 1716.13,1549.29 1724.49,1553.34 1732.85,1537.85 1741.22,1518.22 1749.58,1552.28 1757.94,1547.04 1766.31,1528.81 1774.67,1531.1 1783.03,1553.84 1791.4,1553.33 1799.76,1521.15 1808.13,1528.68 1816.49,1540.65 1824.85,1567.14 1833.22,1535.44 1841.58,1557.27 1849.94,1556.01 1858.31,1554.79 1866.67,1546.67 1875.03,1536.62 1883.4,1543.82 1891.76,1551.04 1900.13,1549.99 1908.49,1541.54 1916.85,1542.88 1925.22,1541.01 1933.58,1546.56 1941.94,1568.02 1950.31,1558.4 1958.67,1555.87 1967.04,1540.71 1975.4,1546.63 1983.76,1567.25 1992.13,1552.72 2000.49,1568.19 2008.85,1550.23 2017.22,1556.77 2025.58,1547.03 2033.94,1536.76 2042.31,1539.16 2050.67,1542.63 2059.04,1543.02 2067.4,1532.42 2075.76,1550.23 2084.13,1537.9 2092.49,1546.98 2100.85,1552.1 2109.22,1535.14 2117.58,1528.25 2125.94,1545.56 2134.31,1537.34 2142.67,1556.37 2151.04,1529.04 2159.4,1541.16 2167.76,1548.59 2176.13,1540.6 2184.49,1536.83 2192.85,1549.55 2201.22,1546.45 2209.58,1545.28 2217.95,1547.15 2226.31,1547.26 2234.67,1545.65 2243.04,1540.02 2251.4,1549.9 2259.76,1541.15 2268.13,1546.69 2276.49,1549.05 2284.85,1544.66 2293.22,1538.43 2301.58,1549.82 2309.95,1548.43 2318.31,1534.79 2326.67,1535.55 2335.04,1538.04 2343.4,1544.64 2351.76,1539.26 2360.13,1527.51 2368.49,1535.93 2376.85,1517.92 2385.22,1535.17 2393.58,1537.39 2401.95,1534.22 2410.31,1551.32 2418.67,1531.15 2427.04,1549.56 2435.4,1523.55 2443.76,1522.78 2452.13,1536.54 2460.49,1531 2468.86,1526.49 2477.22,1520.6 2485.58,1523.87 2493.95,1521.59 2502.31,1540.81 2510.67,1527.49 2519.04,1535.23 2527.4,1542.35 2535.76,1532.39 2544.13,1532.8 2552.49,1524.64 2560.86,1535.42 2569.22,1549.57 2577.58,1530.05 2585.95,1514.91 2594.31,1519.49 2602.67,1527.21 2611.04,1505.39 "/>
<path clip-path="url(#clip740)" d="M2005.7 409.426 L2599.84 409.426 L2599.84 176.146 L2005.7 176.146  Z" fill="#ffffff" fill-rule="evenodd" fill-opacity="1"/>
<polyline clip-path="url(#clip740)" style="stroke:#000000; stroke-linecap:round; stroke-linejoin:round; stroke-width:4; stroke-opacity:1; fill:none" points="2005.7,409.426 2599.84,409.426 2599.84,176.146 2005.7,176.146 2005.7,409.426 "/>
<polyline clip-path="url(#clip740)" style="stroke:#ff0000; stroke-linecap:round; stroke-linejoin:round; stroke-width:9; stroke-opacity:1; fill:none" stroke-dasharray="36, 23" points="2030.43,234.466 2178.78,234.466 "/>
<path clip-path="url(#clip740)" d="M2221.52 218.594 Q2215.8 218.594 2212.41 222.864 Q2209.05 227.135 2209.05 234.505 Q2209.05 241.849 2212.41 246.119 Q2215.8 250.39 2221.52 250.39 Q2227.25 250.39 2230.59 246.119 Q2233.95 241.849 2233.95 234.505 Q2233.95 227.135 2230.59 222.864 Q2227.25 218.594 2221.52 218.594 M2221.52 214.323 Q2229.7 214.323 2234.6 219.817 Q2239.49 225.286 2239.49 234.505 Q2239.49 243.698 2234.6 249.192 Q2229.7 254.661 2221.52 254.661 Q2213.32 254.661 2208.4 249.192 Q2203.5 243.724 2203.5 234.505 Q2203.5 225.286 2208.4 219.817 Q2213.32 214.323 2221.52 214.323 Z" fill="#000000" fill-rule="nonzero" fill-opacity="1" /><path clip-path="url(#clip740)" d="M2268.45 239.349 Q2268.45 234.062 2266.26 231.067 Q2264.1 228.047 2260.3 228.047 Q2256.5 228.047 2254.31 231.067 Q2252.15 234.062 2252.15 239.349 Q2252.15 244.635 2254.31 247.656 Q2256.5 250.651 2260.3 250.651 Q2264.1 250.651 2266.26 247.656 Q2268.45 244.635 2268.45 239.349 M2252.15 229.166 Q2253.66 226.562 2255.95 225.312 Q2258.27 224.036 2261.47 224.036 Q2266.78 224.036 2270.09 228.255 Q2273.43 232.474 2273.43 239.349 Q2273.43 246.224 2270.09 250.442 Q2266.78 254.661 2261.47 254.661 Q2258.27 254.661 2255.95 253.411 Q2253.66 252.135 2252.15 249.531 L2252.15 253.906 L2247.33 253.906 L2247.33 213.385 L2252.15 213.385 L2252.15 229.166 Z" fill="#000000" fill-rule="nonzero" fill-opacity="1" /><path clip-path="url(#clip740)" d="M2299.96 225.599 L2299.96 230.13 Q2297.93 229.088 2295.74 228.567 Q2293.56 228.047 2291.21 228.047 Q2287.64 228.047 2285.85 229.14 Q2284.08 230.234 2284.08 232.422 Q2284.08 234.088 2285.35 235.052 Q2286.63 235.989 2290.48 236.849 L2292.12 237.213 Q2297.23 238.307 2299.36 240.312 Q2301.52 242.291 2301.52 245.859 Q2301.52 249.921 2298.29 252.291 Q2295.09 254.661 2289.47 254.661 Q2287.12 254.661 2284.57 254.192 Q2282.04 253.75 2279.23 252.838 L2279.23 247.89 Q2281.89 249.27 2284.47 249.974 Q2287.04 250.651 2289.57 250.651 Q2292.96 250.651 2294.78 249.505 Q2296.6 248.333 2296.6 246.224 Q2296.6 244.27 2295.27 243.229 Q2293.97 242.187 2289.52 241.224 L2287.85 240.833 Q2283.4 239.895 2281.42 237.968 Q2279.44 236.015 2279.44 232.63 Q2279.44 228.515 2282.36 226.276 Q2285.27 224.036 2290.64 224.036 Q2293.29 224.036 2295.64 224.427 Q2297.98 224.817 2299.96 225.599 Z" fill="#000000" fill-rule="nonzero" fill-opacity="1" /><path clip-path="url(#clip740)" d="M2334.1 238.125 L2334.1 240.468 L2312.07 240.468 Q2312.38 245.416 2315.04 248.02 Q2317.72 250.599 2322.49 250.599 Q2325.25 250.599 2327.83 249.921 Q2330.43 249.244 2332.98 247.89 L2332.98 252.421 Q2330.4 253.515 2327.7 254.088 Q2324.99 254.661 2322.2 254.661 Q2315.22 254.661 2311.13 250.599 Q2307.07 246.536 2307.07 239.609 Q2307.07 232.448 2310.93 228.255 Q2314.81 224.036 2321.37 224.036 Q2327.25 224.036 2330.66 227.838 Q2334.1 231.614 2334.1 238.125 M2329.31 236.718 Q2329.26 232.786 2327.1 230.442 Q2324.96 228.099 2321.42 228.099 Q2317.41 228.099 2314.99 230.364 Q2312.59 232.63 2312.23 236.744 L2329.31 236.718 Z" fill="#000000" fill-rule="nonzero" fill-opacity="1" /><path clip-path="url(#clip740)" d="M2358.87 229.218 Q2358.06 228.75 2357.1 228.541 Q2356.16 228.307 2355.01 228.307 Q2350.95 228.307 2348.76 230.963 Q2346.6 233.593 2346.6 238.541 L2346.6 253.906 L2341.78 253.906 L2341.78 224.739 L2346.6 224.739 L2346.6 229.271 Q2348.11 226.614 2350.53 225.338 Q2352.96 224.036 2356.42 224.036 Q2356.91 224.036 2357.51 224.114 Q2358.11 224.166 2358.84 224.297 L2358.87 229.218 Z" fill="#000000" fill-rule="nonzero" fill-opacity="1" /><path clip-path="url(#clip740)" d="M2360.46 224.739 L2365.53 224.739 L2374.65 249.218 L2383.76 224.739 L2388.84 224.739 L2377.9 253.906 L2371.39 253.906 L2360.46 224.739 Z" fill="#000000" fill-rule="nonzero" fill-opacity="1" /><path clip-path="url(#clip740)" d="M2420.4 238.125 L2420.4 240.468 L2398.37 240.468 Q2398.68 245.416 2401.34 248.02 Q2404.02 250.599 2408.79 250.599 Q2411.55 250.599 2414.13 249.921 Q2416.73 249.244 2419.28 247.89 L2419.28 252.421 Q2416.71 253.515 2414 254.088 Q2411.29 254.661 2408.5 254.661 Q2401.52 254.661 2397.43 250.599 Q2393.37 246.536 2393.37 239.609 Q2393.37 232.448 2397.23 228.255 Q2401.11 224.036 2407.67 224.036 Q2413.55 224.036 2416.97 227.838 Q2420.4 231.614 2420.4 238.125 M2415.61 236.718 Q2415.56 232.786 2413.4 230.442 Q2411.26 228.099 2407.72 228.099 Q2403.71 228.099 2401.29 230.364 Q2398.89 232.63 2398.53 236.744 L2415.61 236.718 Z" fill="#000000" fill-rule="nonzero" fill-opacity="1" /><path clip-path="url(#clip740)" d="M2447.46 229.166 L2447.46 213.385 L2452.25 213.385 L2452.25 253.906 L2447.46 253.906 L2447.46 249.531 Q2445.95 252.135 2443.63 253.411 Q2441.34 254.661 2438.11 254.661 Q2432.83 254.661 2429.49 250.442 Q2426.18 246.224 2426.18 239.349 Q2426.18 232.474 2429.49 228.255 Q2432.83 224.036 2438.11 224.036 Q2441.34 224.036 2443.63 225.312 Q2445.95 226.562 2447.46 229.166 M2431.13 239.349 Q2431.13 244.635 2433.29 247.656 Q2435.48 250.651 2439.28 250.651 Q2443.09 250.651 2445.27 247.656 Q2447.46 244.635 2447.46 239.349 Q2447.46 234.062 2445.27 231.067 Q2443.09 228.047 2439.28 228.047 Q2435.48 228.047 2433.29 231.067 Q2431.13 234.062 2431.13 239.349 Z" fill="#000000" fill-rule="nonzero" fill-opacity="1" /><polyline clip-path="url(#clip740)" style="stroke:#000080; stroke-linecap:round; stroke-linejoin:round; stroke-width:9; stroke-opacity:1; fill:none" points="2030.43,292.786 2178.78,292.786 "/>
<path clip-path="url(#clip740)" d="M2234.86 276.341 L2234.86 281.887 Q2232.2 279.414 2229.18 278.19 Q2226.19 276.966 2222.8 276.966 Q2216.13 276.966 2212.59 281.054 Q2209.05 285.117 2209.05 292.825 Q2209.05 300.507 2212.59 304.596 Q2216.13 308.658 2222.8 308.658 Q2226.19 308.658 2229.18 307.434 Q2232.2 306.21 2234.86 303.736 L2234.86 309.231 Q2232.1 311.106 2229 312.044 Q2225.93 312.981 2222.49 312.981 Q2213.66 312.981 2208.58 307.59 Q2203.5 302.174 2203.5 292.825 Q2203.5 283.45 2208.58 278.059 Q2213.66 272.643 2222.49 272.643 Q2225.98 272.643 2229.05 273.58 Q2232.15 274.492 2234.86 276.341 Z" fill="#000000" fill-rule="nonzero" fill-opacity="1" /><path clip-path="url(#clip740)" d="M2242.98 273.346 L2248.24 273.346 L2248.24 289.283 L2267.36 289.283 L2267.36 273.346 L2272.62 273.346 L2272.62 312.226 L2267.36 312.226 L2267.36 293.71 L2248.24 293.71 L2248.24 312.226 L2242.98 312.226 L2242.98 273.346 Z" fill="#000000" fill-rule="nonzero" fill-opacity="1" /><path clip-path="url(#clip740)" d="M2283.09 273.346 L2290.93 273.346 L2300.85 299.804 L2310.82 273.346 L2318.66 273.346 L2318.66 312.226 L2313.53 312.226 L2313.53 278.085 L2303.5 304.752 L2298.22 304.752 L2288.19 278.085 L2288.19 312.226 L2283.09 312.226 L2283.09 273.346 Z" fill="#000000" fill-rule="nonzero" fill-opacity="1" /><path clip-path="url(#clip740)" d="M2329.1 273.346 L2336.94 273.346 L2346.86 299.804 L2356.84 273.346 L2364.67 273.346 L2364.67 312.226 L2359.54 312.226 L2359.54 278.085 L2349.52 304.752 L2344.23 304.752 L2334.21 278.085 L2334.21 312.226 L2329.1 312.226 L2329.1 273.346 Z" fill="#000000" fill-rule="nonzero" fill-opacity="1" /><path clip-path="url(#clip740)" d="M2403.37 271.757 Q2399.88 277.747 2398.19 283.606 Q2396.5 289.466 2396.5 295.481 Q2396.5 301.497 2398.19 307.408 Q2399.91 313.294 2403.37 319.257 L2399.21 319.257 Q2395.3 313.137 2393.35 307.226 Q2391.42 301.314 2391.42 295.481 Q2391.42 289.674 2393.35 283.788 Q2395.27 277.903 2399.21 271.757 L2403.37 271.757 Z" fill="#000000" fill-rule="nonzero" fill-opacity="1" /><path clip-path="url(#clip740)" d="M2435.38 288.658 Q2437.17 285.429 2439.67 283.893 Q2442.17 282.356 2445.56 282.356 Q2450.12 282.356 2452.59 285.559 Q2455.06 288.736 2455.06 294.622 L2455.06 312.226 L2450.25 312.226 L2450.25 294.778 Q2450.25 290.585 2448.76 288.554 Q2447.28 286.523 2444.23 286.523 Q2440.51 286.523 2438.35 288.997 Q2436.18 291.471 2436.18 295.742 L2436.18 312.226 L2431.37 312.226 L2431.37 294.778 Q2431.37 290.559 2429.88 288.554 Q2428.4 286.523 2425.3 286.523 Q2421.63 286.523 2419.47 289.023 Q2417.3 291.497 2417.3 295.742 L2417.3 312.226 L2412.49 312.226 L2412.49 283.059 L2417.3 283.059 L2417.3 287.591 Q2418.95 284.908 2421.24 283.632 Q2423.53 282.356 2426.68 282.356 Q2429.86 282.356 2432.07 283.971 Q2434.31 285.585 2435.38 288.658 Z" fill="#000000" fill-rule="nonzero" fill-opacity="1" /><path clip-path="url(#clip740)" d="M2489.57 296.445 L2489.57 298.788 L2467.54 298.788 Q2467.85 303.736 2470.51 306.34 Q2473.19 308.919 2477.96 308.919 Q2480.72 308.919 2483.29 308.241 Q2485.9 307.564 2488.45 306.21 L2488.45 310.741 Q2485.87 311.835 2483.16 312.408 Q2480.46 312.981 2477.67 312.981 Q2470.69 312.981 2466.6 308.919 Q2462.54 304.856 2462.54 297.929 Q2462.54 290.768 2466.39 286.575 Q2470.27 282.356 2476.84 282.356 Q2482.72 282.356 2486.13 286.158 Q2489.57 289.934 2489.57 296.445 M2484.78 295.038 Q2484.73 291.106 2482.56 288.762 Q2480.43 286.419 2476.89 286.419 Q2472.88 286.419 2470.46 288.684 Q2468.06 290.95 2467.7 295.064 L2484.78 295.038 Z" fill="#000000" fill-rule="nonzero" fill-opacity="1" /><path clip-path="url(#clip740)" d="M2510.69 297.564 Q2504.88 297.564 2502.64 298.893 Q2500.4 300.221 2500.4 303.424 Q2500.4 305.976 2502.07 307.486 Q2503.76 308.971 2506.65 308.971 Q2510.64 308.971 2513.03 306.158 Q2515.46 303.32 2515.46 298.632 L2515.46 297.564 L2510.69 297.564 M2520.25 295.585 L2520.25 312.226 L2515.46 312.226 L2515.46 307.799 Q2513.81 310.455 2511.37 311.731 Q2508.92 312.981 2505.38 312.981 Q2500.9 312.981 2498.24 310.481 Q2495.61 307.955 2495.61 303.736 Q2495.61 298.814 2498.89 296.314 Q2502.2 293.814 2508.74 293.814 L2515.46 293.814 L2515.46 293.346 Q2515.46 290.038 2513.27 288.242 Q2511.11 286.419 2507.17 286.419 Q2504.67 286.419 2502.3 287.018 Q2499.93 287.617 2497.75 288.814 L2497.75 284.387 Q2500.38 283.372 2502.85 282.877 Q2505.33 282.356 2507.67 282.356 Q2514 282.356 2517.12 285.637 Q2520.25 288.919 2520.25 295.585 Z" fill="#000000" fill-rule="nonzero" fill-opacity="1" /><path clip-path="url(#clip740)" d="M2554.36 294.622 L2554.36 312.226 L2549.57 312.226 L2549.57 294.778 Q2549.57 290.637 2547.96 288.58 Q2546.34 286.523 2543.11 286.523 Q2539.23 286.523 2536.99 288.997 Q2534.75 291.471 2534.75 295.742 L2534.75 312.226 L2529.93 312.226 L2529.93 283.059 L2534.75 283.059 L2534.75 287.591 Q2536.47 284.96 2538.79 283.658 Q2541.13 282.356 2544.18 282.356 Q2549.21 282.356 2551.78 285.481 Q2554.36 288.58 2554.36 294.622 Z" fill="#000000" fill-rule="nonzero" fill-opacity="1" /><path clip-path="url(#clip740)" d="M2563.16 271.757 L2567.33 271.757 Q2571.24 277.903 2573.16 283.788 Q2575.12 289.674 2575.12 295.481 Q2575.12 301.314 2573.16 307.226 Q2571.24 313.137 2567.33 319.257 L2563.16 319.257 Q2566.63 313.294 2568.32 307.408 Q2570.04 301.497 2570.04 295.481 Q2570.04 289.466 2568.32 283.606 Q2566.63 277.747 2563.16 271.757 Z" fill="#000000" fill-rule="nonzero" fill-opacity="1" /><path clip-path="url(#clip740)" d="M2030.43 374.434 L2178.78 374.434 L2178.78 327.778 L2030.43 327.778 L2030.43 374.434  Z" fill="#000080" fill-rule="evenodd" fill-opacity="0.15"/>
<polyline clip-path="url(#clip740)" style="stroke:#000080; stroke-linecap:round; stroke-linejoin:round; stroke-width:4.5; stroke-opacity:0.15; fill:none" points="2030.43,327.778 2178.78,327.778 "/>
<path clip-path="url(#clip740)" d="M2204.26 366.119 L2212.85 366.119 L2212.85 336.457 L2203.5 338.332 L2203.5 333.541 L2212.8 331.666 L2218.06 331.666 L2218.06 366.119 L2226.65 366.119 L2226.65 370.546 L2204.26 370.546 L2204.26 366.119 Z" fill="#000000" fill-rule="nonzero" fill-opacity="1" /><path clip-path="url(#clip740)" d="M2248.53 335.129 Q2244.47 335.129 2242.41 339.14 Q2240.38 343.124 2240.38 351.145 Q2240.38 359.14 2242.41 363.15 Q2244.47 367.134 2248.53 367.134 Q2252.62 367.134 2254.65 363.15 Q2256.71 359.14 2256.71 351.145 Q2256.71 343.124 2254.65 339.14 Q2252.62 335.129 2248.53 335.129 M2248.53 330.963 Q2255.07 330.963 2258.5 336.145 Q2261.97 341.301 2261.97 351.145 Q2261.97 360.963 2258.5 366.145 Q2255.07 371.301 2248.53 371.301 Q2241.99 371.301 2238.53 366.145 Q2235.09 360.963 2235.09 351.145 Q2235.09 341.301 2238.53 336.145 Q2241.99 330.963 2248.53 330.963 Z" fill="#000000" fill-rule="nonzero" fill-opacity="1" /><path clip-path="url(#clip740)" d="M2268.11 353.801 L2282.15 353.801 L2282.15 358.072 L2268.11 358.072 L2268.11 353.801 Z" fill="#000000" fill-rule="nonzero" fill-opacity="1" /><path clip-path="url(#clip740)" d="M2290.61 369.739 L2290.61 364.947 Q2292.59 365.884 2294.62 366.379 Q2296.65 366.874 2298.61 366.874 Q2303.82 366.874 2306.55 363.384 Q2309.31 359.869 2309.7 352.733 Q2308.19 354.973 2305.87 356.171 Q2303.56 357.369 2300.74 357.369 Q2294.91 357.369 2291.5 353.853 Q2288.11 350.312 2288.11 344.192 Q2288.11 338.202 2291.65 334.582 Q2295.2 330.963 2301.08 330.963 Q2307.83 330.963 2311.37 336.145 Q2314.94 341.301 2314.94 351.145 Q2314.94 360.338 2310.56 365.832 Q2306.21 371.301 2298.84 371.301 Q2296.86 371.301 2294.83 370.91 Q2292.8 370.52 2290.61 369.739 M2301.08 353.254 Q2304.62 353.254 2306.68 350.832 Q2308.76 348.411 2308.76 344.192 Q2308.76 339.999 2306.68 337.577 Q2304.62 335.129 2301.08 335.129 Q2297.54 335.129 2295.46 337.577 Q2293.4 339.999 2293.4 344.192 Q2293.4 348.411 2295.46 350.832 Q2297.54 353.254 2301.08 353.254 Z" fill="#000000" fill-rule="nonzero" fill-opacity="1" /><path clip-path="url(#clip740)" d="M2335.64 335.129 Q2331.58 335.129 2329.52 339.14 Q2327.49 343.124 2327.49 351.145 Q2327.49 359.14 2329.52 363.15 Q2331.58 367.134 2335.64 367.134 Q2339.73 367.134 2341.76 363.15 Q2343.82 359.14 2343.82 351.145 Q2343.82 343.124 2341.76 339.14 Q2339.73 335.129 2335.64 335.129 M2335.64 330.963 Q2342.17 330.963 2345.61 336.145 Q2349.08 341.301 2349.08 351.145 Q2349.08 360.963 2345.61 366.145 Q2342.17 371.301 2335.64 371.301 Q2329.1 371.301 2325.64 366.145 Q2322.2 360.963 2322.2 351.145 Q2322.2 341.301 2325.64 336.145 Q2329.1 330.963 2335.64 330.963 Z" fill="#000000" fill-rule="nonzero" fill-opacity="1" /><path clip-path="url(#clip740)" d="M2362.38 333.098 L2362.38 341.379 L2372.25 341.379 L2372.25 345.103 L2362.38 345.103 L2362.38 360.937 Q2362.38 364.504 2363.35 365.52 Q2364.34 366.535 2367.33 366.535 L2372.25 366.535 L2372.25 370.546 L2367.33 370.546 Q2361.78 370.546 2359.67 368.489 Q2357.57 366.405 2357.57 360.937 L2357.57 345.103 L2354.05 345.103 L2354.05 341.379 L2357.57 341.379 L2357.57 333.098 L2362.38 333.098 Z" fill="#000000" fill-rule="nonzero" fill-opacity="1" /><path clip-path="url(#clip740)" d="M2402.8 352.942 L2402.8 370.546 L2398.01 370.546 L2398.01 353.098 Q2398.01 348.957 2396.39 346.9 Q2394.78 344.843 2391.55 344.843 Q2387.67 344.843 2385.43 347.317 Q2383.19 349.791 2383.19 354.062 L2383.19 370.546 L2378.37 370.546 L2378.37 330.025 L2383.19 330.025 L2383.19 345.911 Q2384.91 343.28 2387.23 341.978 Q2389.57 340.676 2392.62 340.676 Q2397.64 340.676 2400.22 343.801 Q2402.8 346.9 2402.8 352.942 Z" fill="#000000" fill-rule="nonzero" fill-opacity="1" /><path clip-path="url(#clip740)" d="M2433.95 366.171 L2433.95 381.64 L2429.13 381.64 L2429.13 341.379 L2433.95 341.379 L2433.95 345.806 Q2435.46 343.202 2437.75 341.952 Q2440.06 340.676 2443.27 340.676 Q2448.58 340.676 2451.89 344.895 Q2455.22 349.114 2455.22 355.989 Q2455.22 362.864 2451.89 367.082 Q2448.58 371.301 2443.27 371.301 Q2440.06 371.301 2437.75 370.051 Q2435.46 368.775 2433.95 366.171 M2450.25 355.989 Q2450.25 350.702 2448.06 347.707 Q2445.9 344.687 2442.1 344.687 Q2438.29 344.687 2436.11 347.707 Q2433.95 350.702 2433.95 355.989 Q2433.95 361.275 2436.11 364.296 Q2438.29 367.291 2442.1 367.291 Q2445.9 367.291 2448.06 364.296 Q2450.25 361.275 2450.25 355.989 Z" fill="#000000" fill-rule="nonzero" fill-opacity="1" /><path clip-path="url(#clip740)" d="M2484.15 342.499 L2484.15 346.978 Q2482.12 345.858 2480.06 345.312 Q2478.03 344.739 2475.95 344.739 Q2471.29 344.739 2468.71 347.707 Q2466.13 350.65 2466.13 355.989 Q2466.13 361.327 2468.71 364.296 Q2471.29 367.239 2475.95 367.239 Q2478.03 367.239 2480.06 366.692 Q2482.12 366.119 2484.15 364.999 L2484.15 369.426 Q2482.15 370.364 2479.99 370.832 Q2477.85 371.301 2475.43 371.301 Q2468.84 371.301 2464.96 367.16 Q2461.08 363.02 2461.08 355.989 Q2461.08 348.853 2464.99 344.765 Q2468.92 340.676 2475.74 340.676 Q2477.96 340.676 2480.06 341.145 Q2482.17 341.588 2484.15 342.499 Z" fill="#000000" fill-rule="nonzero" fill-opacity="1" /><path clip-path="url(#clip740)" d="M2497.23 333.098 L2497.23 341.379 L2507.1 341.379 L2507.1 345.103 L2497.23 345.103 L2497.23 360.937 Q2497.23 364.504 2498.19 365.52 Q2499.18 366.535 2502.17 366.535 L2507.1 366.535 L2507.1 370.546 L2502.17 370.546 Q2496.63 370.546 2494.52 368.489 Q2492.41 366.405 2492.41 360.937 L2492.41 345.103 L2488.89 345.103 L2488.89 341.379 L2492.41 341.379 L2492.41 333.098 L2497.23 333.098 Z" fill="#000000" fill-rule="nonzero" fill-opacity="1" /><path clip-path="url(#clip740)" d="M2513.4 330.025 L2518.19 330.025 L2518.19 370.546 L2513.4 370.546 L2513.4 330.025 Z" fill="#000000" fill-rule="nonzero" fill-opacity="1" /></svg>
