<?xml version="1.0" encoding="utf-8"?>
<svg xmlns="http://www.w3.org/2000/svg" xmlns:xlink="http://www.w3.org/1999/xlink" width="760" height="420" viewBox="0 0 3040 1680">
<defs>
  <clipPath id="clip260">
    <rect x="0" y="0" width="3040" height="1680"/>
  </clipPath>
</defs>
<path clip-path="url(#clip260)" d="M0 1680 L3040 1680 L3040 9.14356e-14 L0 9.14356e-14  Z" fill="#ffffff" fill-rule="evenodd" fill-opacity="1"/>
<defs>
  <clipPath id="clip261">
    <rect x="608" y="0" width="2129" height="1680"/>
  </clipPath>
</defs>
<path clip-path="url(#clip260)" d="M560.807 1336.03 L2914.02 1336.03 L2914.02 177.543 L560.807 177.543  Z" fill="#ffffff" fill-rule="evenodd" fill-opacity="1"/>
<defs>
  <clipPath id="clip262">
    <rect x="560" y="177" width="2354" height="1159"/>
  </clipPath>
</defs>
<polyline clip-path="url(#clip262)" style="stroke:#000000; stroke-linecap:round; stroke-linejoin:round; stroke-width:2; stroke-opacity:0.1; fill:none" points="785.979,1336.03 785.979,177.543 "/>
<polyline clip-path="url(#clip262)" style="stroke:#000000; stroke-linecap:round; stroke-linejoin:round; stroke-width:2; stroke-opacity:0.1; fill:none" points="1103.12,1336.03 1103.12,177.543 "/>
<polyline clip-path="url(#clip262)" style="stroke:#000000; stroke-linecap:round; stroke-linejoin:round; stroke-width:2; stroke-opacity:0.1; fill:none" points="1420.27,1336.03 1420.27,177.543 "/>
<polyline clip-path="url(#clip262)" style="stroke:#000000; stroke-linecap:round; stroke-linejoin:round; stroke-width:2; stroke-opacity:0.1; fill:none" points="1737.41,1336.03 1737.41,177.543 "/>
<polyline clip-path="url(#clip262)" style="stroke:#000000; stroke-linecap:round; stroke-linejoin:round; stroke-width:2; stroke-opacity:0.1; fill:none" points="2054.56,1336.03 2054.56,177.543 "/>
<polyline clip-path="url(#clip262)" style="stroke:#000000; stroke-linecap:round; stroke-linejoin:round; stroke-width:2; stroke-opacity:0.1; fill:none" points="2371.7,1336.03 2371.7,177.543 "/>
<polyline clip-path="url(#clip262)" style="stroke:#000000; stroke-linecap:round; stroke-linejoin:round; stroke-width:2; stroke-opacity:0.1; fill:none" points="2688.84,1336.03 2688.84,177.543 "/>
<polyline clip-path="url(#clip262)" style="stroke:#000000; stroke-linecap:round; stroke-linejoin:round; stroke-width:2; stroke-opacity:0.1; fill:none" points="560.807,1248.76 2914.02,1248.76 "/>
<polyline clip-path="url(#clip262)" style="stroke:#000000; stroke-linecap:round; stroke-linejoin:round; stroke-width:2; stroke-opacity:0.1; fill:none" points="560.807,1000.24 2914.02,1000.24 "/>
<polyline clip-path="url(#clip262)" style="stroke:#000000; stroke-linecap:round; stroke-linejoin:round; stroke-width:2; stroke-opacity:0.1; fill:none" points="560.807,751.715 2914.02,751.715 "/>
<polyline clip-path="url(#clip262)" style="stroke:#000000; stroke-linecap:round; stroke-linejoin:round; stroke-width:2; stroke-opacity:0.1; fill:none" points="560.807,503.194 2914.02,503.194 "/>
<polyline clip-path="url(#clip262)" style="stroke:#000000; stroke-linecap:round; stroke-linejoin:round; stroke-width:2; stroke-opacity:0.1; fill:none" points="560.807,254.673 2914.02,254.673 "/>
<polyline clip-path="url(#clip260)" style="stroke:#000000; stroke-linecap:round; stroke-linejoin:round; stroke-width:4; stroke-opacity:1; fill:none" points="560.807,1336.03 2914.02,1336.03 "/>
<polyline clip-path="url(#clip260)" style="stroke:#000000; stroke-linecap:round; stroke-linejoin:round; stroke-width:4; stroke-opacity:1; fill:none" points="785.979,1336.03 785.979,1317.13 "/>
<polyline clip-path="url(#clip260)" style="stroke:#000000; stroke-linecap:round; stroke-linejoin:round; stroke-width:4; stroke-opacity:1; fill:none" points="1103.12,1336.03 1103.12,1317.13 "/>
<polyline clip-path="url(#clip260)" style="stroke:#000000; stroke-linecap:round; stroke-linejoin:round; stroke-width:4; stroke-opacity:1; fill:none" points="1420.27,1336.03 1420.27,1317.13 "/>
<polyline clip-path="url(#clip260)" style="stroke:#000000; stroke-linecap:round; stroke-linejoin:round; stroke-width:4; stroke-opacity:1; fill:none" points="1737.41,1336.03 1737.41,1317.13 "/>
<polyline clip-path="url(#clip260)" style="stroke:#000000; stroke-linecap:round; stroke-linejoin:round; stroke-width:4; stroke-opacity:1; fill:none" points="2054.56,1336.03 2054.56,1317.13 "/>
<polyline clip-path="url(#clip260)" style="stroke:#000000; stroke-linecap:round; stroke-linejoin:round; stroke-width:4; stroke-opacity:1; fill:none" points="2371.7,1336.03 2371.7,1317.13 "/>
<polyline clip-path="url(#clip260)" style="stroke:#000000; stroke-linecap:round; stroke-linejoin:round; stroke-width:4; stroke-opacity:1; fill:none" points="2688.84,1336.03 2688.84,1317.13 "/>
<path clip-path="url(#clip260)" d="M779.295 1409.43 L799.695 1409.43 L799.695 1414.35 L772.264 1414.35 L772.264 1409.43 Q775.592 1405.99 781.321 1400.2 Q787.079 1394.38 788.555 1392.71 Q791.361 1389.55 792.461 1387.38 Q793.589 1385.18 793.589 1383.07 Q793.589 1379.63 791.159 1377.46 Q788.757 1375.29 784.88 1375.29 Q782.131 1375.29 779.064 1376.24 Q776.026 1377.2 772.554 1379.14 L772.554 1373.23 Q776.084 1371.81 779.151 1371.09 Q782.218 1370.37 784.764 1370.37 Q791.477 1370.37 795.47 1373.72 Q799.463 1377.08 799.463 1382.69 Q799.463 1385.36 798.45 1387.76 Q797.467 1390.13 794.833 1393.37 Q794.11 1394.21 790.233 1398.23 Q786.356 1402.23 779.295 1409.43 Z" fill="#000000" fill-rule="nonzero" fill-opacity="1" /><path clip-path="url(#clip260)" d="M1106.88 1376.24 L1092.13 1399.3 L1106.88 1399.3 L1106.88 1376.24 M1105.35 1371.15 L1112.7 1371.15 L1112.7 1399.3 L1118.86 1399.3 L1118.86 1404.16 L1112.7 1404.16 L1112.7 1414.35 L1106.88 1414.35 L1106.88 1404.16 L1087.38 1404.16 L1087.38 1398.52 L1105.35 1371.15 Z" fill="#000000" fill-rule="nonzero" fill-opacity="1" /><path clip-path="url(#clip260)" d="M1420.77 1390.42 Q1416.84 1390.42 1414.52 1393.11 Q1412.24 1395.8 1412.24 1400.49 Q1412.24 1405.15 1414.52 1407.87 Q1416.84 1410.56 1420.77 1410.56 Q1424.71 1410.56 1426.99 1407.87 Q1429.31 1405.15 1429.31 1400.49 Q1429.31 1395.8 1426.99 1393.11 Q1424.71 1390.42 1420.77 1390.42 M1432.38 1372.1 L1432.38 1377.43 Q1430.18 1376.39 1427.92 1375.84 Q1425.69 1375.29 1423.49 1375.29 Q1417.71 1375.29 1414.64 1379.19 Q1411.6 1383.1 1411.17 1391 Q1412.87 1388.48 1415.45 1387.15 Q1418.02 1385.79 1421.12 1385.79 Q1427.63 1385.79 1431.39 1389.75 Q1435.18 1393.69 1435.18 1400.49 Q1435.18 1407.14 1431.25 1411.17 Q1427.31 1415.19 1420.77 1415.19 Q1413.28 1415.19 1409.32 1409.46 Q1405.35 1403.7 1405.35 1392.79 Q1405.35 1382.55 1410.21 1376.47 Q1415.07 1370.37 1423.26 1370.37 Q1425.46 1370.37 1427.69 1370.8 Q1429.95 1371.24 1432.38 1372.1 Z" fill="#000000" fill-rule="nonzero" fill-opacity="1" /><path clip-path="url(#clip260)" d="M1737.41 1393.83 Q1733.24 1393.83 1730.84 1396.06 Q1728.47 1398.29 1728.47 1402.2 Q1728.47 1406.1 1730.84 1408.33 Q1733.24 1410.56 1737.41 1410.56 Q1741.58 1410.56 1743.98 1408.33 Q1746.38 1406.07 1746.38 1402.2 Q1746.38 1398.29 1743.98 1396.06 Q1741.61 1393.83 1737.41 1393.83 M1731.57 1391.35 Q1727.81 1390.42 1725.69 1387.84 Q1723.61 1385.27 1723.61 1381.57 Q1723.61 1376.39 1727.28 1373.38 Q1730.99 1370.37 1737.41 1370.37 Q1743.86 1370.37 1747.54 1373.38 Q1751.21 1376.39 1751.21 1381.57 Q1751.21 1385.27 1749.1 1387.84 Q1747.02 1390.42 1743.29 1391.35 Q1747.51 1392.33 1749.85 1395.19 Q1752.23 1398.06 1752.23 1402.2 Q1752.23 1408.48 1748.38 1411.83 Q1744.56 1415.19 1737.41 1415.19 Q1730.26 1415.19 1726.42 1411.83 Q1722.6 1408.48 1722.6 1402.2 Q1722.6 1398.06 1724.97 1395.19 Q1727.34 1392.33 1731.57 1391.35 M1729.43 1382.12 Q1729.43 1385.47 1731.51 1387.35 Q1733.62 1389.23 1737.41 1389.23 Q1741.17 1389.23 1743.29 1387.35 Q1745.43 1385.47 1745.43 1382.12 Q1745.43 1378.76 1743.29 1376.88 Q1741.17 1375 1737.41 1375 Q1733.62 1375 1731.51 1376.88 Q1729.43 1378.76 1729.43 1382.12 Z" fill="#000000" fill-rule="nonzero" fill-opacity="1" /><path clip-path="url(#clip260)" d="M2022.91 1409.43 L2032.46 1409.43 L2032.46 1376.47 L2022.08 1378.56 L2022.08 1373.23 L2032.41 1371.15 L2038.25 1371.15 L2038.25 1409.43 L2047.8 1409.43 L2047.8 1414.35 L2022.91 1414.35 L2022.91 1409.43 Z" fill="#000000" fill-rule="nonzero" fill-opacity="1" /><path clip-path="url(#clip260)" d="M2072.1 1375 Q2067.59 1375 2065.3 1379.45 Q2063.05 1383.88 2063.05 1392.79 Q2063.05 1401.68 2065.3 1406.13 Q2067.59 1410.56 2072.1 1410.56 Q2076.65 1410.56 2078.9 1406.13 Q2081.19 1401.68 2081.19 1392.79 Q2081.19 1383.88 2078.9 1379.45 Q2076.65 1375 2072.1 1375 M2072.1 1370.37 Q2079.37 1370.37 2083.19 1376.13 Q2087.04 1381.86 2087.04 1392.79 Q2087.04 1403.7 2083.19 1409.46 Q2079.37 1415.19 2072.1 1415.19 Q2064.84 1415.19 2060.99 1409.46 Q2057.17 1403.7 2057.17 1392.79 Q2057.17 1381.86 2060.99 1376.13 Q2064.84 1370.37 2072.1 1370.37 Z" fill="#000000" fill-rule="nonzero" fill-opacity="1" /><path clip-path="url(#clip260)" d="M2341.06 1409.43 L2350.61 1409.43 L2350.61 1376.47 L2340.22 1378.56 L2340.22 1373.23 L2350.55 1371.15 L2356.39 1371.15 L2356.39 1409.43 L2365.94 1409.43 L2365.94 1414.35 L2341.06 1414.35 L2341.06 1409.43 Z" fill="#000000" fill-rule="nonzero" fill-opacity="1" /><path clip-path="url(#clip260)" d="M2382.78 1409.43 L2403.18 1409.43 L2403.18 1414.35 L2375.75 1414.35 L2375.75 1409.43 Q2379.08 1405.99 2384.81 1400.2 Q2390.57 1394.38 2392.04 1392.71 Q2394.85 1389.55 2395.95 1387.38 Q2397.08 1385.18 2397.08 1383.07 Q2397.08 1379.63 2394.64 1377.46 Q2392.24 1375.29 2388.37 1375.29 Q2385.62 1375.29 2382.55 1376.24 Q2379.51 1377.2 2376.04 1379.14 L2376.04 1373.23 Q2379.57 1371.81 2382.64 1371.09 Q2385.7 1370.37 2388.25 1370.37 Q2394.96 1370.37 2398.96 1373.72 Q2402.95 1377.08 2402.95 1382.69 Q2402.95 1385.36 2401.94 1387.76 Q2400.95 1390.13 2398.32 1393.37 Q2397.6 1394.21 2393.72 1398.23 Q2389.84 1402.23 2382.78 1409.43 Z" fill="#000000" fill-rule="nonzero" fill-opacity="1" /><path clip-path="url(#clip260)" d="M2656.9 1409.43 L2666.45 1409.43 L2666.45 1376.47 L2656.06 1378.56 L2656.06 1373.23 L2666.39 1371.15 L2672.23 1371.15 L2672.23 1409.43 L2681.78 1409.43 L2681.78 1414.35 L2656.9 1414.35 L2656.9 1409.43 Z" fill="#000000" fill-rule="nonzero" fill-opacity="1" /><path clip-path="url(#clip260)" d="M2709.65 1376.24 L2694.89 1399.3 L2709.65 1399.3 L2709.65 1376.24 M2708.11 1371.15 L2715.46 1371.15 L2715.46 1399.3 L2721.63 1399.3 L2721.63 1404.16 L2715.46 1404.16 L2715.46 1414.35 L2709.65 1414.35 L2709.65 1404.16 L2690.15 1404.16 L2690.15 1398.52 L2708.11 1371.15 Z" fill="#000000" fill-rule="nonzero" fill-opacity="1" /><path clip-path="url(#clip260)" d="M1643.58 1455.93 L1673.63 1455.93 L1673.63 1461.34 L1650.01 1461.34 L1650.01 1475.41 L1672.64 1475.41 L1672.64 1480.82 L1650.01 1480.82 L1650.01 1498.04 L1674.2 1498.04 L1674.2 1503.45 L1643.58 1503.45 L1643.58 1455.93 Z" fill="#000000" fill-rule="nonzero" fill-opacity="1" /><path clip-path="url(#clip260)" d="M1690.18 1498.11 L1690.18 1517.01 L1684.29 1517.01 L1684.29 1467.81 L1690.18 1467.81 L1690.18 1473.22 Q1692.02 1470.03 1694.82 1468.51 Q1697.66 1466.95 1701.57 1466.95 Q1708.07 1466.95 1712.11 1472.1 Q1716.18 1477.26 1716.18 1485.66 Q1716.18 1494.06 1712.11 1499.22 Q1708.07 1504.38 1701.57 1504.38 Q1697.66 1504.38 1694.82 1502.85 Q1692.02 1501.29 1690.18 1498.11 M1710.1 1485.66 Q1710.1 1479.2 1707.43 1475.54 Q1704.79 1471.85 1700.14 1471.85 Q1695.49 1471.85 1692.82 1475.54 Q1690.18 1479.2 1690.18 1485.66 Q1690.18 1492.12 1692.82 1495.81 Q1695.49 1499.47 1700.14 1499.47 Q1704.79 1499.47 1707.43 1495.81 Q1710.1 1492.12 1710.1 1485.66 Z" fill="#000000" fill-rule="nonzero" fill-opacity="1" /><path clip-path="url(#clip260)" d="M1739.7 1471.91 Q1734.99 1471.91 1732.26 1475.6 Q1729.52 1479.26 1729.52 1485.66 Q1729.52 1492.06 1732.22 1495.75 Q1734.96 1499.41 1739.7 1499.41 Q1744.38 1499.41 1747.12 1495.72 Q1749.86 1492.03 1749.86 1485.66 Q1749.86 1479.33 1747.12 1475.64 Q1744.38 1471.91 1739.7 1471.91 M1739.7 1466.95 Q1747.34 1466.95 1751.7 1471.91 Q1756.06 1476.88 1756.06 1485.66 Q1756.06 1494.41 1751.7 1499.41 Q1747.34 1504.38 1739.7 1504.38 Q1732.03 1504.38 1727.67 1499.41 Q1723.34 1494.41 1723.34 1485.66 Q1723.34 1476.88 1727.67 1471.91 Q1732.03 1466.95 1739.7 1466.95 Z" fill="#000000" fill-rule="nonzero" fill-opacity="1" /><path clip-path="url(#clip260)" d="M1791.42 1469.17 L1791.42 1474.65 Q1788.94 1473.28 1786.43 1472.61 Q1783.94 1471.91 1781.4 1471.91 Q1775.7 1471.91 1772.55 1475.54 Q1769.4 1479.14 1769.4 1485.66 Q1769.4 1492.19 1772.55 1495.81 Q1775.7 1499.41 1781.4 1499.41 Q1783.94 1499.41 1786.43 1498.74 Q1788.94 1498.04 1791.42 1496.67 L1791.42 1502.08 Q1788.97 1503.23 1786.33 1503.8 Q1783.72 1504.38 1780.76 1504.38 Q1772.71 1504.38 1767.97 1499.32 Q1763.22 1494.25 1763.22 1485.66 Q1763.22 1476.94 1768 1471.94 Q1772.8 1466.95 1781.14 1466.95 Q1783.85 1466.95 1786.43 1467.52 Q1789.01 1468.06 1791.42 1469.17 Z" fill="#000000" fill-rule="nonzero" fill-opacity="1" /><path clip-path="url(#clip260)" d="M1831.24 1481.94 L1831.24 1503.45 L1825.39 1503.45 L1825.39 1482.13 Q1825.39 1477.07 1823.41 1474.55 Q1821.44 1472.04 1817.49 1472.04 Q1812.75 1472.04 1810.01 1475.06 Q1807.28 1478.09 1807.28 1483.31 L1807.28 1503.45 L1801.39 1503.45 L1801.39 1453.93 L1807.28 1453.93 L1807.28 1473.34 Q1809.38 1470.13 1812.21 1468.54 Q1815.07 1466.95 1818.8 1466.95 Q1824.94 1466.95 1828.09 1470.77 Q1831.24 1474.55 1831.24 1481.94 Z" fill="#000000" fill-rule="nonzero" fill-opacity="1" /><polyline clip-path="url(#clip260)" style="stroke:#000000; stroke-linecap:round; stroke-linejoin:round; stroke-width:4; stroke-opacity:1; fill:none" points="560.807,1336.03 560.807,177.543 "/>
<polyline clip-path="url(#clip260)" style="stroke:#000000; stroke-linecap:round; stroke-linejoin:round; stroke-width:4; stroke-opacity:1; fill:none" points="560.807,1248.76 579.705,1248.76 "/>
<polyline clip-path="url(#clip260)" style="stroke:#000000; stroke-linecap:round; stroke-linejoin:round; stroke-width:4; stroke-opacity:1; fill:none" points="560.807,1000.24 579.705,1000.24 "/>
<polyline clip-path="url(#clip260)" style="stroke:#000000; stroke-linecap:round; stroke-linejoin:round; stroke-width:4; stroke-opacity:1; fill:none" points="560.807,751.715 579.705,751.715 "/>
<polyline clip-path="url(#clip260)" style="stroke:#000000; stroke-linecap:round; stroke-linejoin:round; stroke-width:4; stroke-opacity:1; fill:none" points="560.807,503.194 579.705,503.194 "/>
<polyline clip-path="url(#clip260)" style="stroke:#000000; stroke-linecap:round; stroke-linejoin:round; stroke-width:4; stroke-opacity:1; fill:none" points="560.807,254.673 579.705,254.673 "/>
<path clip-path="url(#clip260)" d="M308.119 1249.32 L345.214 1249.32 L345.214 1254.24 L308.119 1254.24 L308.119 1249.32 Z" fill="#000000" fill-rule="nonzero" fill-opacity="1" /><path clip-path="url(#clip260)" d="M370.329 1231.01 Q365.816 1231.01 363.53 1235.46 Q361.273 1239.89 361.273 1248.8 Q361.273 1257.68 363.53 1262.14 Q365.816 1266.57 370.329 1266.57 Q374.872 1266.57 377.129 1262.14 Q379.415 1257.68 379.415 1248.8 Q379.415 1239.89 377.129 1235.46 Q374.872 1231.01 370.329 1231.01 M370.329 1226.38 Q377.592 1226.38 381.412 1232.13 Q385.26 1237.86 385.26 1248.8 Q385.26 1259.71 381.412 1265.47 Q377.592 1271.2 370.329 1271.2 Q363.067 1271.2 359.218 1265.47 Q355.399 1259.71 355.399 1248.8 Q355.399 1237.86 359.218 1232.13 Q363.067 1226.38 370.329 1226.38 Z" fill="#000000" fill-rule="nonzero" fill-opacity="1" /><path clip-path="url(#clip260)" d="M395.532 1263.01 L401.637 1263.01 L401.637 1270.36 L395.532 1270.36 L395.532 1263.01 Z" fill="#000000" fill-rule="nonzero" fill-opacity="1" /><path clip-path="url(#clip260)" d="M426.868 1231.01 Q422.355 1231.01 420.069 1235.46 Q417.812 1239.89 417.812 1248.8 Q417.812 1257.68 420.069 1262.14 Q422.355 1266.57 426.868 1266.57 Q431.411 1266.57 433.668 1262.14 Q435.954 1257.68 435.954 1248.8 Q435.954 1239.89 433.668 1235.46 Q431.411 1231.01 426.868 1231.01 M426.868 1226.38 Q434.131 1226.38 437.951 1232.13 Q441.799 1237.86 441.799 1248.8 Q441.799 1259.71 437.951 1265.47 Q434.131 1271.2 426.868 1271.2 Q419.606 1271.2 415.757 1265.47 Q411.938 1259.71 411.938 1248.8 Q411.938 1237.86 415.757 1232.13 Q419.606 1226.38 426.868 1226.38 Z" fill="#000000" fill-rule="nonzero" fill-opacity="1" /><path clip-path="url(#clip260)" d="M464.571 1231.01 Q460.057 1231.01 457.771 1235.46 Q455.514 1239.89 455.514 1248.8 Q455.514 1257.68 457.771 1262.14 Q460.057 1266.57 464.571 1266.57 Q469.114 1266.57 471.371 1262.14 Q473.656 1257.68 473.656 1248.8 Q473.656 1239.89 471.371 1235.46 Q469.114 1231.01 464.571 1231.01 M464.571 1226.38 Q471.834 1226.38 475.653 1232.13 Q479.501 1237.86 479.501 1248.8 Q479.501 1259.71 475.653 1265.47 Q471.834 1271.2 464.571 1271.2 Q457.308 1271.2 453.46 1265.47 Q449.64 1259.71 449.64 1248.8 Q449.64 1237.86 453.46 1232.13 Q457.308 1226.38 464.571 1226.38 Z" fill="#000000" fill-rule="nonzero" fill-opacity="1" /><path clip-path="url(#clip260)" d="M494.808 1265.44 L515.207 1265.44 L515.207 1270.36 L487.777 1270.36 L487.777 1265.44 Q491.104 1261.99 496.833 1256.21 Q502.591 1250.39 504.067 1248.71 Q506.874 1245.56 507.973 1243.39 Q509.102 1241.19 509.102 1239.08 Q509.102 1235.63 506.671 1233.46 Q504.27 1231.29 500.392 1231.29 Q497.644 1231.29 494.576 1232.25 Q491.538 1233.2 488.066 1235.14 L488.066 1229.24 Q491.596 1227.82 494.663 1227.1 Q497.73 1226.38 500.277 1226.38 Q506.99 1226.38 510.983 1229.73 Q514.976 1233.09 514.976 1238.7 Q514.976 1241.36 513.963 1243.77 Q512.979 1246.14 510.346 1249.38 Q509.623 1250.22 505.745 1254.24 Q501.868 1258.23 494.808 1265.44 Z" fill="#000000" fill-rule="nonzero" fill-opacity="1" /><path clip-path="url(#clip260)" d="M307.656 1000.8 L344.751 1000.8 L344.751 1005.72 L307.656 1005.72 L307.656 1000.8 Z" fill="#000000" fill-rule="nonzero" fill-opacity="1" /><path clip-path="url(#clip260)" d="M369.866 982.484 Q365.353 982.484 363.067 986.94 Q360.81 991.367 360.81 1000.28 Q360.81 1009.16 363.067 1013.62 Q365.353 1018.05 369.866 1018.05 Q374.409 1018.05 376.666 1013.62 Q378.952 1009.16 378.952 1000.28 Q378.952 991.367 376.666 986.94 Q374.409 982.484 369.866 982.484 M369.866 977.855 Q377.129 977.855 380.949 983.613 Q384.797 989.342 384.797 1000.28 Q384.797 1011.19 380.949 1016.95 Q377.129 1022.67 369.866 1022.67 Q362.604 1022.67 358.755 1016.95 Q354.936 1011.19 354.936 1000.28 Q354.936 989.342 358.755 983.613 Q362.604 977.855 369.866 977.855 Z" fill="#000000" fill-rule="nonzero" fill-opacity="1" /><path clip-path="url(#clip260)" d="M395.069 1014.49 L401.174 1014.49 L401.174 1021.84 L395.069 1021.84 L395.069 1014.49 Z" fill="#000000" fill-rule="nonzero" fill-opacity="1" /><path clip-path="url(#clip260)" d="M426.406 982.484 Q421.892 982.484 419.606 986.94 Q417.349 991.367 417.349 1000.28 Q417.349 1009.16 419.606 1013.62 Q421.892 1018.05 426.406 1018.05 Q430.948 1018.05 433.205 1013.62 Q435.491 1009.16 435.491 1000.28 Q435.491 991.367 433.205 986.94 Q430.948 982.484 426.406 982.484 M426.406 977.855 Q433.668 977.855 437.488 983.613 Q441.336 989.342 441.336 1000.28 Q441.336 1011.19 437.488 1016.95 Q433.668 1022.67 426.406 1022.67 Q419.143 1022.67 415.294 1016.95 Q411.475 1011.19 411.475 1000.28 Q411.475 989.342 415.294 983.613 Q419.143 977.855 426.406 977.855 Z" fill="#000000" fill-rule="nonzero" fill-opacity="1" /><path clip-path="url(#clip260)" d="M464.108 982.484 Q459.594 982.484 457.308 986.94 Q455.051 991.367 455.051 1000.28 Q455.051 1009.16 457.308 1013.62 Q459.594 1018.05 464.108 1018.05 Q468.651 1018.05 470.908 1013.62 Q473.193 1009.16 473.193 1000.28 Q473.193 991.367 470.908 986.94 Q468.651 982.484 464.108 982.484 M464.108 977.855 Q471.371 977.855 475.19 983.613 Q479.038 989.342 479.038 1000.28 Q479.038 1011.19 475.19 1016.95 Q471.371 1022.67 464.108 1022.67 Q456.845 1022.67 452.997 1016.95 Q449.177 1011.19 449.177 1000.28 Q449.177 989.342 452.997 983.613 Q456.845 977.855 464.108 977.855 Z" fill="#000000" fill-rule="nonzero" fill-opacity="1" /><path clip-path="url(#clip260)" d="M490.323 1016.92 L499.872 1016.92 L499.872 983.96 L489.484 986.043 L489.484 980.719 L499.814 978.636 L505.659 978.636 L505.659 1016.92 L515.207 1016.92 L515.207 1021.84 L490.323 1021.84 L490.323 1016.92 Z" fill="#000000" fill-rule="nonzero" fill-opacity="1" /><path clip-path="url(#clip260)" d="M368.333 733.963 Q363.819 733.963 361.533 738.419 Q359.276 742.846 359.276 751.758 Q359.276 760.641 361.533 765.097 Q363.819 769.525 368.333 769.525 Q372.876 769.525 375.133 765.097 Q377.419 760.641 377.419 751.758 Q377.419 742.846 375.133 738.419 Q372.876 733.963 368.333 733.963 M368.333 729.334 Q375.596 729.334 379.415 735.092 Q383.263 740.821 383.263 751.758 Q383.263 762.667 379.415 768.425 Q375.596 774.154 368.333 774.154 Q361.07 774.154 357.222 768.425 Q353.402 762.667 353.402 751.758 Q353.402 740.821 357.222 735.092 Q361.07 729.334 368.333 729.334 Z" fill="#000000" fill-rule="nonzero" fill-opacity="1" /><path clip-path="url(#clip260)" d="M393.535 765.966 L399.641 765.966 L399.641 773.315 L393.535 773.315 L393.535 765.966 Z" fill="#000000" fill-rule="nonzero" fill-opacity="1" /><path clip-path="url(#clip260)" d="M424.872 733.963 Q420.358 733.963 418.072 738.419 Q415.815 742.846 415.815 751.758 Q415.815 760.641 418.072 765.097 Q420.358 769.525 424.872 769.525 Q429.415 769.525 431.672 765.097 Q433.958 760.641 433.958 751.758 Q433.958 742.846 431.672 738.419 Q429.415 733.963 424.872 733.963 M424.872 729.334 Q432.135 729.334 435.954 735.092 Q439.802 740.821 439.802 751.758 Q439.802 762.667 435.954 768.425 Q432.135 774.154 424.872 774.154 Q417.609 774.154 413.761 768.425 Q409.941 762.667 409.941 751.758 Q409.941 740.821 413.761 735.092 Q417.609 729.334 424.872 729.334 Z" fill="#000000" fill-rule="nonzero" fill-opacity="1" /><path clip-path="url(#clip260)" d="M462.574 733.963 Q458.06 733.963 455.775 738.419 Q453.518 742.846 453.518 751.758 Q453.518 760.641 455.775 765.097 Q458.06 769.525 462.574 769.525 Q467.117 769.525 469.374 765.097 Q471.66 760.641 471.66 751.758 Q471.66 742.846 469.374 738.419 Q467.117 733.963 462.574 733.963 M462.574 729.334 Q469.837 729.334 473.656 735.092 Q477.505 740.821 477.505 751.758 Q477.505 762.667 473.656 768.425 Q469.837 774.154 462.574 774.154 Q455.312 774.154 451.463 768.425 Q447.644 762.667 447.644 751.758 Q447.644 740.821 451.463 735.092 Q455.312 729.334 462.574 729.334 Z" fill="#000000" fill-rule="nonzero" fill-opacity="1" /><path clip-path="url(#clip260)" d="M500.277 733.963 Q495.763 733.963 493.477 738.419 Q491.22 742.846 491.22 751.758 Q491.22 760.641 493.477 765.097 Q495.763 769.525 500.277 769.525 Q504.819 769.525 507.076 765.097 Q509.362 760.641 509.362 751.758 Q509.362 742.846 507.076 738.419 Q504.819 733.963 500.277 733.963 M500.277 729.334 Q507.539 729.334 511.359 735.092 Q515.207 740.821 515.207 751.758 Q515.207 762.667 511.359 768.425 Q507.539 774.154 500.277 774.154 Q493.014 774.154 489.166 768.425 Q485.346 762.667 485.346 751.758 Q485.346 740.821 489.166 735.092 Q493.014 729.334 500.277 729.334 Z" fill="#000000" fill-rule="nonzero" fill-opacity="1" /><path clip-path="url(#clip260)" d="M369.866 485.443 Q365.353 485.443 363.067 489.899 Q360.81 494.326 360.81 503.238 Q360.81 512.121 363.067 516.577 Q365.353 521.004 369.866 521.004 Q374.409 521.004 376.666 516.577 Q378.952 512.121 378.952 503.238 Q378.952 494.326 376.666 489.899 Q374.409 485.443 369.866 485.443 M369.866 480.813 Q377.129 480.813 380.949 486.571 Q384.797 492.3 384.797 503.238 Q384.797 514.146 380.949 519.904 Q377.129 525.633 369.866 525.633 Q362.604 525.633 358.755 519.904 Q354.936 514.146 354.936 503.238 Q354.936 492.3 358.755 486.571 Q362.604 480.813 369.866 480.813 Z" fill="#000000" fill-rule="nonzero" fill-opacity="1" /><path clip-path="url(#clip260)" d="M395.069 517.445 L401.174 517.445 L401.174 524.794 L395.069 524.794 L395.069 517.445 Z" fill="#000000" fill-rule="nonzero" fill-opacity="1" /><path clip-path="url(#clip260)" d="M426.406 485.443 Q421.892 485.443 419.606 489.899 Q417.349 494.326 417.349 503.238 Q417.349 512.121 419.606 516.577 Q421.892 521.004 426.406 521.004 Q430.948 521.004 433.205 516.577 Q435.491 512.121 435.491 503.238 Q435.491 494.326 433.205 489.899 Q430.948 485.443 426.406 485.443 M426.406 480.813 Q433.668 480.813 437.488 486.571 Q441.336 492.3 441.336 503.238 Q441.336 514.146 437.488 519.904 Q433.668 525.633 426.406 525.633 Q419.143 525.633 415.294 519.904 Q411.475 514.146 411.475 503.238 Q411.475 492.3 415.294 486.571 Q419.143 480.813 426.406 480.813 Z" fill="#000000" fill-rule="nonzero" fill-opacity="1" /><path clip-path="url(#clip260)" d="M464.108 485.443 Q459.594 485.443 457.308 489.899 Q455.051 494.326 455.051 503.238 Q455.051 512.121 457.308 516.577 Q459.594 521.004 464.108 521.004 Q468.651 521.004 470.908 516.577 Q473.193 512.121 473.193 503.238 Q473.193 494.326 470.908 489.899 Q468.651 485.443 464.108 485.443 M464.108 480.813 Q471.371 480.813 475.19 486.571 Q479.038 492.3 479.038 503.238 Q479.038 514.146 475.19 519.904 Q471.371 525.633 464.108 525.633 Q456.845 525.633 452.997 519.904 Q449.177 514.146 449.177 503.238 Q449.177 492.3 452.997 486.571 Q456.845 480.813 464.108 480.813 Z" fill="#000000" fill-rule="nonzero" fill-opacity="1" /><path clip-path="url(#clip260)" d="M490.323 519.875 L499.872 519.875 L499.872 486.918 L489.484 489.002 L489.484 483.678 L499.814 481.594 L505.659 481.594 L505.659 519.875 L515.207 519.875 L515.207 524.794 L490.323 524.794 L490.323 519.875 Z" fill="#000000" fill-rule="nonzero" fill-opacity="1" /><path clip-path="url(#clip260)" d="M370.329 236.922 Q365.816 236.922 363.53 241.378 Q361.273 245.805 361.273 254.717 Q361.273 263.6 363.53 268.056 Q365.816 272.483 370.329 272.483 Q374.872 272.483 377.129 268.056 Q379.415 263.6 379.415 254.717 Q379.415 245.805 377.129 241.378 Q374.872 236.922 370.329 236.922 M370.329 232.292 Q377.592 232.292 381.412 238.05 Q385.26 243.779 385.26 254.717 Q385.26 265.625 381.412 271.383 Q377.592 277.112 370.329 277.112 Q363.067 277.112 359.218 271.383 Q355.399 265.625 355.399 254.717 Q355.399 243.779 359.218 238.05 Q363.067 232.292 370.329 232.292 Z" fill="#000000" fill-rule="nonzero" fill-opacity="1" /><path clip-path="url(#clip260)" d="M395.532 268.924 L401.637 268.924 L401.637 276.273 L395.532 276.273 L395.532 268.924 Z" fill="#000000" fill-rule="nonzero" fill-opacity="1" /><path clip-path="url(#clip260)" d="M426.868 236.922 Q422.355 236.922 420.069 241.378 Q417.812 245.805 417.812 254.717 Q417.812 263.6 420.069 268.056 Q422.355 272.483 426.868 272.483 Q431.411 272.483 433.668 268.056 Q435.954 263.6 435.954 254.717 Q435.954 245.805 433.668 241.378 Q431.411 236.922 426.868 236.922 M426.868 232.292 Q434.131 232.292 437.951 238.05 Q441.799 243.779 441.799 254.717 Q441.799 265.625 437.951 271.383 Q434.131 277.112 426.868 277.112 Q419.606 277.112 415.757 271.383 Q411.938 265.625 411.938 254.717 Q411.938 243.779 415.757 238.05 Q419.606 232.292 426.868 232.292 Z" fill="#000000" fill-rule="nonzero" fill-opacity="1" /><path clip-path="url(#clip260)" d="M464.571 236.922 Q460.057 236.922 457.771 241.378 Q455.514 245.805 455.514 254.717 Q455.514 263.6 457.771 268.056 Q460.057 272.483 464.571 272.483 Q469.114 272.483 471.371 268.056 Q473.656 263.6 473.656 254.717 Q473.656 245.805 471.371 241.378 Q469.114 236.922 464.571 236.922 M464.571 232.292 Q471.834 232.292 475.653 238.05 Q479.501 243.779 479.501 254.717 Q479.501 265.625 475.653 271.383 Q471.834 277.112 464.571 277.112 Q457.308 277.112 453.46 271.383 Q449.64 265.625 449.64 254.717 Q449.64 243.779 453.46 238.05 Q457.308 232.292 464.571 232.292 Z" fill="#000000" fill-rule="nonzero" fill-opacity="1" /><path clip-path="url(#clip260)" d="M494.808 271.354 L515.207 271.354 L515.207 276.273 L487.777 276.273 L487.777 271.354 Q491.104 267.911 496.833 262.124 Q502.591 256.308 504.067 254.63 Q506.874 251.476 507.973 249.306 Q509.102 247.107 509.102 244.995 Q509.102 241.551 506.671 239.381 Q504.27 237.211 500.392 237.211 Q497.644 237.211 494.576 238.166 Q491.538 239.121 488.066 241.059 L488.066 235.157 Q491.596 233.739 494.663 233.015 Q497.73 232.292 500.277 232.292 Q506.99 232.292 510.983 235.649 Q514.976 239.005 514.976 244.618 Q514.976 247.28 513.963 249.682 Q512.979 252.055 510.346 255.295 Q509.623 256.135 505.745 260.157 Q501.868 264.15 494.808 271.354 Z" fill="#000000" fill-rule="nonzero" fill-opacity="1" /><path clip-path="url(#clip260)" d="M200.28 823.483 L200.28 817.053 L242.389 817.053 L242.389 793.914 L247.8 793.914 L247.8 823.483 L200.28 823.483 Z" fill="#000000" fill-rule="nonzero" fill-opacity="1" /><path clip-path="url(#clip260)" d="M216.258 774.753 Q216.258 779.464 219.95 782.201 Q223.61 784.938 230.008 784.938 Q236.406 784.938 240.098 782.233 Q243.758 779.496 243.758 774.753 Q243.758 770.075 240.066 767.337 Q236.374 764.6 230.008 764.6 Q223.674 764.6 219.982 767.337 Q216.258 770.075 216.258 774.753 M211.293 774.753 Q211.293 767.114 216.258 762.754 Q221.223 758.393 230.008 758.393 Q238.761 758.393 243.758 762.754 Q248.723 767.114 248.723 774.753 Q248.723 782.424 243.758 786.784 Q238.761 791.113 230.008 791.113 Q221.223 791.113 216.258 786.784 Q211.293 782.424 211.293 774.753 Z" fill="#000000" fill-rule="nonzero" fill-opacity="1" /><path clip-path="url(#clip260)" d="M213.203 725.96 L218.741 725.96 Q217.468 728.443 216.831 731.116 Q216.194 733.79 216.194 736.655 Q216.194 741.015 217.531 743.211 Q218.868 745.376 221.542 745.376 Q223.579 745.376 224.756 743.816 Q225.902 742.256 226.952 737.546 L227.398 735.541 Q228.735 729.302 231.186 726.692 Q233.605 724.05 237.965 724.05 Q242.93 724.05 245.827 727.997 Q248.723 731.912 248.723 738.787 Q248.723 741.652 248.15 744.771 Q247.609 747.858 246.495 751.296 L240.448 751.296 Q242.135 748.049 242.994 744.898 Q243.822 741.747 243.822 738.66 Q243.822 734.522 242.421 732.294 Q240.989 730.066 238.411 730.066 Q236.024 730.066 234.75 731.689 Q233.477 733.281 232.3 738.723 L231.822 740.76 Q230.676 746.203 228.321 748.622 Q225.934 751.041 221.796 751.041 Q216.767 751.041 214.03 747.476 Q211.293 743.911 211.293 737.355 Q211.293 734.108 211.77 731.244 Q212.248 728.379 213.203 725.96 Z" fill="#000000" fill-rule="nonzero" fill-opacity="1" /><path clip-path="url(#clip260)" d="M213.203 691.999 L218.741 691.999 Q217.468 694.482 216.831 697.155 Q216.194 699.829 216.194 702.694 Q216.194 707.054 217.531 709.25 Q218.868 711.415 221.542 711.415 Q223.579 711.415 224.756 709.855 Q225.902 708.295 226.952 703.585 L227.398 701.58 Q228.735 695.341 231.186 692.731 Q233.605 690.089 237.965 690.089 Q242.93 690.089 245.827 694.036 Q248.723 697.951 248.723 704.826 Q248.723 707.691 248.15 710.81 Q247.609 713.897 246.495 717.335 L240.448 717.335 Q242.135 714.088 242.994 710.937 Q243.822 707.786 243.822 704.699 Q243.822 700.561 242.421 698.333 Q240.989 696.105 238.411 696.105 Q236.024 696.105 234.75 697.728 Q233.477 699.32 232.3 704.762 L231.822 706.799 Q230.676 712.242 228.321 714.661 Q225.934 717.08 221.796 717.08 Q216.767 717.08 214.03 713.515 Q211.293 709.95 211.293 703.394 Q211.293 700.147 211.77 697.283 Q212.248 694.418 213.203 691.999 Z" fill="#000000" fill-rule="nonzero" fill-opacity="1" /><path clip-path="url(#clip260)" d="M1227.79 12.6041 Q1221.43 12.6041 1217.67 17.3494 Q1213.93 22.0948 1213.93 30.2834 Q1213.93 38.4431 1217.67 43.1884 Q1221.43 47.9338 1227.79 47.9338 Q1234.16 47.9338 1237.86 43.1884 Q1241.6 38.4431 1241.6 30.2834 Q1241.6 22.0948 1237.86 17.3494 Q1234.16 12.6041 1227.79 12.6041 M1235.98 51.0588 L1243.68 59.4788 L1236.62 59.4788 L1230.22 52.5634 Q1229.27 52.6212 1228.75 52.6502 Q1228.26 52.6791 1227.79 52.6791 Q1218.68 52.6791 1213.21 46.6028 Q1207.77 40.4975 1207.77 30.2834 Q1207.77 20.0404 1213.21 13.964 Q1218.68 7.85875 1227.79 7.85875 Q1236.88 7.85875 1242.32 13.964 Q1247.76 20.0404 1247.76 30.2834 Q1247.76 37.8065 1244.72 43.1595 Q1241.71 48.5125 1235.98 51.0588 Z" fill="#000000" fill-rule="nonzero" fill-opacity="1" /><path clip-path="url(#clip260)" d="M1256.12 39.0507 L1256.12 19.4328 L1261.44 19.4328 L1261.44 38.8482 Q1261.44 43.4488 1263.24 45.7636 Q1265.03 48.0495 1268.62 48.0495 Q1272.93 48.0495 1275.42 45.3007 Q1277.94 42.5519 1277.94 37.8065 L1277.94 19.4328 L1283.26 19.4328 L1283.26 51.84 L1277.94 51.84 L1277.94 46.8632 Q1276 49.8145 1273.42 51.2613 Q1270.88 52.6791 1267.49 52.6791 Q1261.91 52.6791 1259.01 49.2069 Q1256.12 45.7347 1256.12 39.0507 M1269.52 18.6515 L1269.52 18.6515 Z" fill="#000000" fill-rule="nonzero" fill-opacity="1" /><path clip-path="url(#clip260)" d="M1308.96 35.5496 Q1302.5 35.5496 1300.02 37.0253 Q1297.53 38.501 1297.53 42.06 Q1297.53 44.8956 1299.38 46.5738 Q1301.26 48.2231 1304.47 48.2231 Q1308.9 48.2231 1311.56 45.0981 Q1314.25 41.9442 1314.25 36.7359 L1314.25 35.5496 L1308.96 35.5496 M1319.58 33.3505 L1319.58 51.84 L1314.25 51.84 L1314.25 46.921 Q1312.43 49.8724 1309.71 51.2902 Q1306.99 52.6791 1303.05 52.6791 Q1298.08 52.6791 1295.13 49.9014 Q1292.2 47.0947 1292.2 42.4072 Q1292.2 36.9385 1295.85 34.1607 Q1299.52 31.3829 1306.79 31.3829 L1314.25 31.3829 L1314.25 30.8621 Q1314.25 27.1874 1311.82 25.1908 Q1309.42 23.1654 1305.05 23.1654 Q1302.27 23.1654 1299.64 23.8309 Q1297.01 24.4964 1294.58 25.8274 L1294.58 20.9085 Q1297.5 19.78 1300.25 19.2302 Q1303 18.6515 1305.6 18.6515 Q1312.63 18.6515 1316.1 22.2973 Q1319.58 25.9431 1319.58 33.3505 Z" fill="#000000" fill-rule="nonzero" fill-opacity="1" /><path clip-path="url(#clip260)" d="M1357.48 32.2799 L1357.48 51.84 L1352.16 51.84 L1352.16 32.4535 Q1352.16 27.8529 1350.36 25.567 Q1348.57 23.2811 1344.98 23.2811 Q1340.67 23.2811 1338.18 26.03 Q1335.69 28.7788 1335.69 33.5241 L1335.69 51.84 L1330.34 51.84 L1330.34 19.4328 L1335.69 19.4328 L1335.69 24.4675 Q1337.6 21.545 1340.18 20.0983 Q1342.78 18.6515 1346.17 18.6515 Q1351.75 18.6515 1354.62 22.1237 Q1357.48 25.567 1357.48 32.2799 Z" fill="#000000" fill-rule="nonzero" fill-opacity="1" /><path clip-path="url(#clip260)" d="M1373.37 10.2314 L1373.37 19.4328 L1384.33 19.4328 L1384.33 23.5705 L1373.37 23.5705 L1373.37 41.163 Q1373.37 45.1271 1374.44 46.2555 Q1375.54 47.384 1378.86 47.384 L1384.33 47.384 L1384.33 51.84 L1378.86 51.84 Q1372.7 51.84 1370.36 49.5541 Q1368.01 47.2393 1368.01 41.163 L1368.01 23.5705 L1364.11 23.5705 L1364.11 19.4328 L1368.01 19.4328 L1368.01 10.2314 L1373.37 10.2314 Z" fill="#000000" fill-rule="nonzero" fill-opacity="1" /><path clip-path="url(#clip260)" d="M1421.02 45.6768 L1421.02 34.0739 L1411.47 34.0739 L1411.47 29.2707 L1426.81 29.2707 L1426.81 47.818 Q1423.42 50.2196 1419.34 51.4638 Q1415.26 52.6791 1410.63 52.6791 Q1400.51 52.6791 1394.78 46.7764 Q1389.08 40.8447 1389.08 30.2834 Q1389.08 19.6932 1394.78 13.7904 Q1400.51 7.85875 1410.63 7.85875 Q1414.86 7.85875 1418.65 8.90042 Q1422.47 9.94208 1425.68 11.9675 L1425.68 18.1886 Q1422.44 15.4397 1418.79 14.0509 Q1415.15 12.662 1411.13 12.662 Q1403.2 12.662 1399.2 17.089 Q1395.24 21.5161 1395.24 30.2834 Q1395.24 39.0218 1399.2 43.4488 Q1403.2 47.8759 1411.13 47.8759 Q1414.22 47.8759 1416.65 47.3551 Q1419.08 46.8053 1421.02 45.6768 Z" fill="#000000" fill-rule="nonzero" fill-opacity="1" /><path clip-path="url(#clip260)" d="M1451.92 14.3981 L1444 35.8968 L1459.88 35.8968 L1451.92 14.3981 M1448.63 8.64 L1455.25 8.64 L1471.72 51.84 L1465.64 51.84 L1461.7 40.7579 L1442.23 40.7579 L1438.3 51.84 L1432.13 51.84 L1448.63 8.64 Z" fill="#000000" fill-rule="nonzero" fill-opacity="1" /><path clip-path="url(#clip260)" d="M1478.02 8.64 L1485.89 8.64 L1505.05 44.7799 L1505.05 8.64 L1510.72 8.64 L1510.72 51.84 L1502.85 51.84 L1483.69 15.7001 L1483.69 51.84 L1478.02 51.84 L1478.02 8.64 Z" fill="#000000" fill-rule="nonzero" fill-opacity="1" /><path clip-path="url(#clip260)" d="M1519.43 33.2348 L1535.03 33.2348 L1535.03 37.9801 L1519.43 37.9801 L1519.43 33.2348 Z" fill="#000000" fill-rule="nonzero" fill-opacity="1" /><path clip-path="url(#clip260)" d="M1564.16 20.3876 L1564.16 25.4223 Q1561.91 24.2649 1559.48 23.6862 Q1557.04 23.1075 1554.44 23.1075 Q1550.48 23.1075 1548.48 24.3228 Q1546.51 25.5381 1546.51 27.9686 Q1546.51 29.8204 1547.93 30.891 Q1549.35 31.9327 1553.63 32.8876 L1555.45 33.2926 Q1561.12 34.5079 1563.5 36.7359 Q1565.9 38.935 1565.9 42.8991 Q1565.9 47.4129 1562.31 50.046 Q1558.75 52.6791 1552.5 52.6791 Q1549.9 52.6791 1547.06 52.1583 Q1544.26 51.6664 1541.13 50.6537 L1541.13 45.156 Q1544.08 46.6896 1546.95 47.4708 Q1549.81 48.2231 1552.62 48.2231 Q1556.38 48.2231 1558.4 46.95 Q1560.43 45.6479 1560.43 43.3042 Q1560.43 41.134 1558.95 39.9766 Q1557.51 38.8192 1552.56 37.7486 L1550.71 37.3146 Q1545.76 36.273 1543.56 34.1318 Q1541.36 31.9616 1541.36 28.2001 Q1541.36 23.6283 1544.6 21.1399 Q1547.84 18.6515 1553.8 18.6515 Q1556.76 18.6515 1559.36 19.0855 Q1561.96 19.5196 1564.16 20.3876 Z" fill="#000000" fill-rule="nonzero" fill-opacity="1" /><path clip-path="url(#clip260)" d="M1579.64 10.2314 L1579.64 19.4328 L1590.61 19.4328 L1590.61 23.5705 L1579.64 23.5705 L1579.64 41.163 Q1579.64 45.1271 1580.71 46.2555 Q1581.81 47.384 1585.14 47.384 L1590.61 47.384 L1590.61 51.84 L1585.14 51.84 Q1578.98 51.84 1576.63 49.5541 Q1574.29 47.2393 1574.29 41.163 L1574.29 23.5705 L1570.38 23.5705 L1570.38 19.4328 L1574.29 19.4328 L1574.29 10.2314 L1579.64 10.2314 Z" fill="#000000" fill-rule="nonzero" fill-opacity="1" /><path clip-path="url(#clip260)" d="M1611.1 54.8492 Q1608.84 60.6362 1606.7 62.4013 Q1604.56 64.1663 1600.97 64.1663 L1596.71 64.1663 L1596.71 59.7103 L1599.84 59.7103 Q1602.04 59.7103 1603.25 58.6687 Q1604.47 57.627 1605.95 53.7497 L1606.9 51.3192 L1593.79 19.4328 L1599.43 19.4328 L1609.56 44.7799 L1619.69 19.4328 L1625.33 19.4328 L1611.1 54.8492 Z" fill="#000000" fill-rule="nonzero" fill-opacity="1" /><path clip-path="url(#clip260)" d="M1632.68 6.81709 L1638.01 6.81709 L1638.01 51.84 L1632.68 51.84 L1632.68 6.81709 Z" fill="#000000" fill-rule="nonzero" fill-opacity="1" /><path clip-path="url(#clip260)" d="M1676.86 34.3054 L1676.86 36.9095 L1652.39 36.9095 Q1652.73 42.4072 1655.68 45.3007 Q1658.66 48.1653 1663.96 48.1653 Q1667.03 48.1653 1669.89 47.4129 Q1672.79 46.6606 1675.62 45.156 L1675.62 50.1907 Q1672.76 51.406 1669.75 52.0425 Q1666.74 52.6791 1663.64 52.6791 Q1655.89 52.6791 1651.34 48.1653 Q1646.83 43.6514 1646.83 35.9547 Q1646.83 27.9975 1651.11 23.339 Q1655.42 18.6515 1662.72 18.6515 Q1669.25 18.6515 1673.05 22.876 Q1676.86 27.0716 1676.86 34.3054 M1671.54 32.7429 Q1671.48 28.3737 1669.08 25.7695 Q1666.71 23.1654 1662.77 23.1654 Q1658.32 23.1654 1655.63 25.6827 Q1652.96 28.2001 1652.56 32.7718 L1671.54 32.7429 Z" fill="#000000" fill-rule="nonzero" fill-opacity="1" /><path clip-path="url(#clip260)" d="M1700.82 8.64 L1706.73 8.64 L1715.81 45.156 L1724.87 8.64 L1731.44 8.64 L1740.52 45.156 L1749.58 8.64 L1755.51 8.64 L1744.66 51.84 L1737.31 51.84 L1728.2 14.3402 L1718.99 51.84 L1711.64 51.84 L1700.82 8.64 Z" fill="#000000" fill-rule="nonzero" fill-opacity="1" /><path clip-path="url(#clip260)" d="M1792.72 45.6768 L1792.72 34.0739 L1783.17 34.0739 L1783.17 29.2707 L1798.51 29.2707 L1798.51 47.818 Q1795.12 50.2196 1791.04 51.4638 Q1786.96 52.6791 1782.33 52.6791 Q1772.21 52.6791 1766.48 46.7764 Q1760.78 40.8447 1760.78 30.2834 Q1760.78 19.6932 1766.48 13.7904 Q1772.21 7.85875 1782.33 7.85875 Q1786.56 7.85875 1790.35 8.90042 Q1794.17 9.94208 1797.38 11.9675 L1797.38 18.1886 Q1794.14 15.4397 1790.49 14.0509 Q1786.85 12.662 1782.82 12.662 Q1774.9 12.662 1770.9 17.089 Q1766.94 21.5161 1766.94 30.2834 Q1766.94 39.0218 1770.9 43.4488 Q1774.9 47.8759 1782.82 47.8759 Q1785.92 47.8759 1788.35 47.3551 Q1790.78 46.8053 1792.72 45.6768 Z" fill="#000000" fill-rule="nonzero" fill-opacity="1" /><path clip-path="url(#clip260)" d="M1823.62 14.3981 L1815.7 35.8968 L1831.58 35.8968 L1823.62 14.3981 M1820.32 8.64 L1826.95 8.64 L1843.41 51.84 L1837.34 51.84 L1833.4 40.7579 L1813.93 40.7579 L1809.99 51.84 L1803.83 51.84 L1820.32 8.64 Z" fill="#000000" fill-rule="nonzero" fill-opacity="1" /><path clip-path="url(#clip260)" d="M1849.72 8.64 L1857.59 8.64 L1876.75 44.7799 L1876.75 8.64 L1882.42 8.64 L1882.42 51.84 L1874.55 51.84 L1855.39 15.7001 L1855.39 51.84 L1849.72 51.84 L1849.72 8.64 Z" fill="#000000" fill-rule="nonzero" fill-opacity="1" /><path clip-path="url(#clip260)" d="M1917.92 10.2314 L1917.92 19.4328 L1928.89 19.4328 L1928.89 23.5705 L1917.92 23.5705 L1917.92 41.163 Q1917.92 45.1271 1918.99 46.2555 Q1920.09 47.384 1923.42 47.384 L1928.89 47.384 L1928.89 51.84 L1923.42 51.84 Q1917.26 51.84 1914.91 49.5541 Q1912.57 47.2393 1912.57 41.163 L1912.57 23.5705 L1908.66 23.5705 L1908.66 19.4328 L1912.57 19.4328 L1912.57 10.2314 L1917.92 10.2314 Z" fill="#000000" fill-rule="nonzero" fill-opacity="1" /><path clip-path="url(#clip260)" d="M1954.67 24.4096 Q1953.77 23.8888 1952.7 23.6573 Q1951.66 23.3969 1950.39 23.3969 Q1945.87 23.3969 1943.44 26.3482 Q1941.04 29.2707 1941.04 34.7683 L1941.04 51.84 L1935.69 51.84 L1935.69 19.4328 L1941.04 19.4328 L1941.04 24.4675 Q1942.72 21.5161 1945.41 20.0983 Q1948.1 18.6515 1951.95 18.6515 Q1952.5 18.6515 1953.17 18.7383 Q1953.83 18.7962 1954.64 18.9409 L1954.67 24.4096 Z" fill="#000000" fill-rule="nonzero" fill-opacity="1" /><path clip-path="url(#clip260)" d="M1974.98 35.5496 Q1968.53 35.5496 1966.04 37.0253 Q1963.55 38.501 1963.55 42.06 Q1963.55 44.8956 1965.41 46.5738 Q1967.29 48.2231 1970.5 48.2231 Q1974.92 48.2231 1977.59 45.0981 Q1980.28 41.9442 1980.28 36.7359 L1980.28 35.5496 L1974.98 35.5496 M1985.6 33.3505 L1985.6 51.84 L1980.28 51.84 L1980.28 46.921 Q1978.45 49.8724 1975.73 51.2902 Q1973.01 52.6791 1969.08 52.6791 Q1964.1 52.6791 1961.15 49.9014 Q1958.23 47.0947 1958.23 42.4072 Q1958.23 36.9385 1961.87 34.1607 Q1965.55 31.3829 1972.81 31.3829 L1980.28 31.3829 L1980.28 30.8621 Q1980.28 27.1874 1977.85 25.1908 Q1975.45 23.1654 1971.08 23.1654 Q1968.3 23.1654 1965.67 23.8309 Q1963.03 24.4964 1960.6 25.8274 L1960.6 20.9085 Q1963.52 19.78 1966.27 19.2302 Q1969.02 18.6515 1971.63 18.6515 Q1978.66 18.6515 1982.13 22.2973 Q1985.6 25.9431 1985.6 33.3505 Z" fill="#000000" fill-rule="nonzero" fill-opacity="1" /><path clip-path="url(#clip260)" d="M1996.57 19.4328 L2001.89 19.4328 L2001.89 51.84 L1996.57 51.84 L1996.57 19.4328 M1996.57 6.81709 L2001.89 6.81709 L2001.89 13.559 L1996.57 13.559 L1996.57 6.81709 Z" fill="#000000" fill-rule="nonzero" fill-opacity="1" /><path clip-path="url(#clip260)" d="M2039.97 32.2799 L2039.97 51.84 L2034.65 51.84 L2034.65 32.4535 Q2034.65 27.8529 2032.85 25.567 Q2031.06 23.2811 2027.47 23.2811 Q2023.16 23.2811 2020.67 26.03 Q2018.18 28.7788 2018.18 33.5241 L2018.18 51.84 L2012.83 51.84 L2012.83 19.4328 L2018.18 19.4328 L2018.18 24.4675 Q2020.09 21.545 2022.67 20.0983 Q2025.27 18.6515 2028.66 18.6515 Q2034.24 18.6515 2037.11 22.1237 Q2039.97 25.567 2039.97 32.2799 Z" fill="#000000" fill-rule="nonzero" fill-opacity="1" /><path clip-path="url(#clip260)" d="M2050.59 19.4328 L2055.91 19.4328 L2055.91 51.84 L2050.59 51.84 L2050.59 19.4328 M2050.59 6.81709 L2055.91 6.81709 L2055.91 13.559 L2050.59 13.559 L2050.59 6.81709 Z" fill="#000000" fill-rule="nonzero" fill-opacity="1" /><path clip-path="url(#clip260)" d="M2093.99 32.2799 L2093.99 51.84 L2088.67 51.84 L2088.67 32.4535 Q2088.67 27.8529 2086.87 25.567 Q2085.08 23.2811 2081.49 23.2811 Q2077.18 23.2811 2074.69 26.03 Q2072.2 28.7788 2072.2 33.5241 L2072.2 51.84 L2066.85 51.84 L2066.85 19.4328 L2072.2 19.4328 L2072.2 24.4675 Q2074.11 21.545 2076.69 20.0983 Q2079.29 18.6515 2082.68 18.6515 Q2088.26 18.6515 2091.13 22.1237 Q2093.99 25.567 2093.99 32.2799 Z" fill="#000000" fill-rule="nonzero" fill-opacity="1" /><path clip-path="url(#clip260)" d="M2125.94 35.2602 Q2125.94 29.4732 2123.53 26.2904 Q2121.16 23.1075 2116.85 23.1075 Q2112.57 23.1075 2110.17 26.2904 Q2107.79 29.4732 2107.79 35.2602 Q2107.79 41.0183 2110.17 44.2012 Q2112.57 47.384 2116.85 47.384 Q2121.16 47.384 2123.53 44.2012 Q2125.94 41.0183 2125.94 35.2602 M2131.26 47.818 Q2131.26 56.0934 2127.59 60.1154 Q2123.91 64.1663 2116.33 64.1663 Q2113.52 64.1663 2111.04 63.7323 Q2108.55 63.3272 2106.2 62.4592 L2106.2 57.2798 Q2108.55 58.5529 2110.83 59.1606 Q2113.12 59.7682 2115.49 59.7682 Q2120.73 59.7682 2123.33 57.0194 Q2125.94 54.2995 2125.94 48.7729 L2125.94 46.1398 Q2124.29 49.0044 2121.71 50.4222 Q2119.14 51.84 2115.55 51.84 Q2109.59 51.84 2105.94 47.2972 Q2102.3 42.7544 2102.3 35.2602 Q2102.3 27.7371 2105.94 23.1943 Q2109.59 18.6515 2115.55 18.6515 Q2119.14 18.6515 2121.71 20.0693 Q2124.29 21.4872 2125.94 24.3517 L2125.94 19.4328 L2131.26 19.4328 L2131.26 47.818 Z" fill="#000000" fill-rule="nonzero" fill-opacity="1" /><path clip-path="url(#clip260)" d="M2161.06 6.81709 L2166.39 6.81709 L2166.39 51.84 L2161.06 51.84 L2161.06 6.81709 Z" fill="#000000" fill-rule="nonzero" fill-opacity="1" /><path clip-path="url(#clip260)" d="M2190.09 23.1654 Q2185.8 23.1654 2183.31 26.5218 Q2180.83 29.8494 2180.83 35.6653 Q2180.83 41.4813 2183.29 44.8377 Q2185.77 48.1653 2190.09 48.1653 Q2194.34 48.1653 2196.83 44.8088 Q2199.32 41.4523 2199.32 35.6653 Q2199.32 29.9072 2196.83 26.5508 Q2194.34 23.1654 2190.09 23.1654 M2190.09 18.6515 Q2197.03 18.6515 2200.99 23.1654 Q2204.96 27.6792 2204.96 35.6653 Q2204.96 43.6225 2200.99 48.1653 Q2197.03 52.6791 2190.09 52.6791 Q2183.11 52.6791 2179.15 48.1653 Q2175.21 43.6225 2175.21 35.6653 Q2175.21 27.6792 2179.15 23.1654 Q2183.11 18.6515 2190.09 18.6515 Z" fill="#000000" fill-rule="nonzero" fill-opacity="1" /><path clip-path="url(#clip260)" d="M2234.44 20.3876 L2234.44 25.4223 Q2232.19 24.2649 2229.76 23.6862 Q2227.32 23.1075 2224.72 23.1075 Q2220.76 23.1075 2218.76 24.3228 Q2216.79 25.5381 2216.79 27.9686 Q2216.79 29.8204 2218.21 30.891 Q2219.63 31.9327 2223.91 32.8876 L2225.73 33.2926 Q2231.4 34.5079 2233.78 36.7359 Q2236.18 38.935 2236.18 42.8991 Q2236.18 47.4129 2232.59 50.046 Q2229.03 52.6791 2222.78 52.6791 Q2220.18 52.6791 2217.34 52.1583 Q2214.54 51.6664 2211.41 50.6537 L2211.41 45.156 Q2214.36 46.6896 2217.23 47.4708 Q2220.09 48.2231 2222.9 48.2231 Q2226.66 48.2231 2228.68 46.95 Q2230.71 45.6479 2230.71 43.3042 Q2230.71 41.134 2229.23 39.9766 Q2227.79 38.8192 2222.84 37.7486 L2220.99 37.3146 Q2216.04 36.273 2213.84 34.1318 Q2211.64 31.9616 2211.64 28.2001 Q2211.64 23.6283 2214.88 21.1399 Q2218.12 18.6515 2224.08 18.6515 Q2227.04 18.6515 2229.64 19.0855 Q2232.24 19.5196 2234.44 20.3876 Z" fill="#000000" fill-rule="nonzero" fill-opacity="1" /><path clip-path="url(#clip260)" d="M2265.32 20.3876 L2265.32 25.4223 Q2263.06 24.2649 2260.63 23.6862 Q2258.2 23.1075 2255.59 23.1075 Q2251.63 23.1075 2249.63 24.3228 Q2247.67 25.5381 2247.67 27.9686 Q2247.67 29.8204 2249.08 30.891 Q2250.5 31.9327 2254.78 32.8876 L2256.61 33.2926 Q2262.28 34.5079 2264.65 36.7359 Q2267.05 38.935 2267.05 42.8991 Q2267.05 47.4129 2263.46 50.046 Q2259.91 52.6791 2253.66 52.6791 Q2251.05 52.6791 2248.22 52.1583 Q2245.41 51.6664 2242.28 50.6537 L2242.28 45.156 Q2245.24 46.6896 2248.1 47.4708 Q2250.96 48.2231 2253.77 48.2231 Q2257.53 48.2231 2259.56 46.95 Q2261.58 45.6479 2261.58 43.3042 Q2261.58 41.134 2260.11 39.9766 Q2258.66 38.8192 2253.71 37.7486 L2251.86 37.3146 Q2246.91 36.273 2244.71 34.1318 Q2242.52 31.9616 2242.52 28.2001 Q2242.52 23.6283 2245.76 21.1399 Q2249 18.6515 2254.96 18.6515 Q2257.91 18.6515 2260.51 19.0855 Q2263.12 19.5196 2265.32 20.3876 Z" fill="#000000" fill-rule="nonzero" fill-opacity="1" /><polyline clip-path="url(#clip262)" style="stroke:#8b0000; stroke-linecap:round; stroke-linejoin:round; stroke-width:8; stroke-opacity:1; fill:none" points="627.407,749.755 785.979,805.903 944.551,934.695 1103.12,1045.41 1261.7,1101.3 1420.27,1009.72 1578.84,976.66 1737.41,1052.94 1895.98,977.122 2054.56,1092.79 2213.13,1153.96 2371.7,920.184 2530.27,1154.29 2688.84,830.449 2847.42,839.519 "/>
<polyline clip-path="url(#clip262)" style="stroke:#000080; stroke-linecap:round; stroke-linejoin:round; stroke-width:8; stroke-opacity:1; fill:none" points="627.407,721.472 785.979,535.431 944.551,210.33 1103.12,241.506 1261.7,399.65 1420.27,1012.3 1578.84,1100.85 1737.41,1121.33 1895.98,1303.24 2054.56,1088.57 2213.13,599.898 2371.7,1027.4 2530.27,913.204 2688.84,1111.9 2847.42,637.574 "/>
<path clip-path="url(#clip260)" d="M2332.42 391.119 L2835.58 391.119 L2835.58 216.159 L2332.42 216.159  Z" fill="#ffffff" fill-rule="evenodd" fill-opacity="1"/>
<polyline clip-path="url(#clip260)" style="stroke:#000000; stroke-linecap:round; stroke-linejoin:round; stroke-width:4; stroke-opacity:1; fill:none" points="2332.42,391.119 2835.58,391.119 2835.58,216.159 2332.42,216.159 2332.42,391.119 "/>
<polyline clip-path="url(#clip260)" style="stroke:#8b0000; stroke-linecap:round; stroke-linejoin:round; stroke-width:9; stroke-opacity:1; fill:none" points="2358.56,274.479 2515.44,274.479 "/>
<path clip-path="url(#clip260)" d="M2572.95 258.034 L2572.95 263.581 Q2570.29 261.107 2567.27 259.883 Q2564.27 258.659 2560.89 258.659 Q2554.22 258.659 2550.68 262.747 Q2547.14 266.81 2547.14 274.518 Q2547.14 282.2 2550.68 286.289 Q2554.22 290.351 2560.89 290.351 Q2564.27 290.351 2567.27 289.127 Q2570.29 287.903 2572.95 285.429 L2572.95 290.924 Q2570.19 292.799 2567.09 293.737 Q2564.01 294.674 2560.58 294.674 Q2551.75 294.674 2546.67 289.284 Q2541.59 283.867 2541.59 274.518 Q2541.59 265.143 2546.67 259.753 Q2551.75 254.336 2560.58 254.336 Q2564.07 254.336 2567.14 255.273 Q2570.24 256.185 2572.95 258.034 Z" fill="#000000" fill-rule="nonzero" fill-opacity="1" /><path clip-path="url(#clip260)" d="M2597.76 269.232 Q2596.96 268.763 2595.99 268.555 Q2595.05 268.32 2593.91 268.32 Q2589.85 268.32 2587.66 270.976 Q2585.5 273.607 2585.5 278.555 L2585.5 293.919 L2580.68 293.919 L2580.68 264.753 L2585.5 264.753 L2585.5 269.284 Q2587.01 266.628 2589.43 265.351 Q2591.85 264.049 2595.32 264.049 Q2595.81 264.049 2596.41 264.128 Q2597.01 264.18 2597.74 264.31 L2597.76 269.232 Z" fill="#000000" fill-rule="nonzero" fill-opacity="1" /><path clip-path="url(#clip260)" d="M2602.79 264.753 L2607.58 264.753 L2607.58 293.919 L2602.79 293.919 L2602.79 264.753 M2602.79 253.398 L2607.58 253.398 L2607.58 259.466 L2602.79 259.466 L2602.79 253.398 Z" fill="#000000" fill-rule="nonzero" fill-opacity="1" /><path clip-path="url(#clip260)" d="M2622.35 256.471 L2622.35 264.753 L2632.22 264.753 L2632.22 268.476 L2622.35 268.476 L2622.35 284.31 Q2622.35 287.877 2623.31 288.893 Q2624.3 289.909 2627.29 289.909 L2632.22 289.909 L2632.22 293.919 L2627.29 293.919 Q2621.75 293.919 2619.64 291.862 Q2617.53 289.778 2617.53 284.31 L2617.53 268.476 L2614.01 268.476 L2614.01 264.753 L2617.53 264.753 L2617.53 256.471 L2622.35 256.471 Z" fill="#000000" fill-rule="nonzero" fill-opacity="1" /><path clip-path="url(#clip260)" d="M2638.52 264.753 L2643.31 264.753 L2643.31 293.919 L2638.52 293.919 L2638.52 264.753 M2638.52 253.398 L2643.31 253.398 L2643.31 259.466 L2638.52 259.466 L2638.52 253.398 Z" fill="#000000" fill-rule="nonzero" fill-opacity="1" /><path clip-path="url(#clip260)" d="M2674.33 265.872 L2674.33 270.351 Q2672.29 269.232 2670.24 268.685 Q2668.21 268.112 2666.12 268.112 Q2661.46 268.112 2658.88 271.081 Q2656.3 274.023 2656.3 279.362 Q2656.3 284.7 2658.88 287.669 Q2661.46 290.612 2666.12 290.612 Q2668.21 290.612 2670.24 290.065 Q2672.29 289.492 2674.33 288.372 L2674.33 292.799 Q2672.32 293.737 2670.16 294.205 Q2668.02 294.674 2665.6 294.674 Q2659.01 294.674 2655.13 290.534 Q2651.25 286.393 2651.25 279.362 Q2651.25 272.226 2655.16 268.138 Q2659.09 264.049 2665.91 264.049 Q2668.13 264.049 2670.24 264.518 Q2672.35 264.961 2674.33 265.872 Z" fill="#000000" fill-rule="nonzero" fill-opacity="1" /><polyline clip-path="url(#clip260)" style="stroke:#000080; stroke-linecap:round; stroke-linejoin:round; stroke-width:9; stroke-opacity:1; fill:none" points="2358.56,332.799 2515.44,332.799 "/>
<path clip-path="url(#clip260)" d="M2570.34 346.692 L2570.34 336.25 L2561.75 336.25 L2561.75 331.927 L2575.55 331.927 L2575.55 348.619 Q2572.5 350.781 2568.83 351.9 Q2565.16 352.994 2560.99 352.994 Q2551.88 352.994 2546.72 347.682 Q2541.59 342.343 2541.59 332.838 Q2541.59 323.307 2546.72 317.994 Q2551.88 312.656 2560.99 312.656 Q2564.79 312.656 2568.21 313.593 Q2571.64 314.531 2574.53 316.354 L2574.53 321.953 Q2571.62 319.479 2568.34 318.229 Q2565.06 316.979 2561.44 316.979 Q2554.3 316.979 2550.71 320.963 Q2547.14 324.948 2547.14 332.838 Q2547.14 340.703 2550.71 344.687 Q2554.3 348.671 2561.44 348.671 Q2564.22 348.671 2566.41 348.203 Q2568.6 347.708 2570.34 346.692 Z" fill="#000000" fill-rule="nonzero" fill-opacity="1" /><path clip-path="url(#clip260)" d="M2609.9 336.458 L2609.9 338.802 L2587.87 338.802 Q2588.18 343.749 2590.84 346.354 Q2593.52 348.932 2598.28 348.932 Q2601.04 348.932 2603.62 348.255 Q2606.23 347.578 2608.78 346.223 L2608.78 350.755 Q2606.2 351.848 2603.49 352.421 Q2600.78 352.994 2598 352.994 Q2591.02 352.994 2586.93 348.932 Q2582.87 344.869 2582.87 337.942 Q2582.87 330.781 2586.72 326.588 Q2590.6 322.369 2597.16 322.369 Q2603.05 322.369 2606.46 326.171 Q2609.9 329.947 2609.9 336.458 M2605.11 335.052 Q2605.05 331.119 2602.89 328.776 Q2600.76 326.432 2597.22 326.432 Q2593.21 326.432 2590.78 328.697 Q2588.39 330.963 2588.02 335.078 L2605.11 335.052 Z" fill="#000000" fill-rule="nonzero" fill-opacity="1" /><path clip-path="url(#clip260)" d="M2642.01 334.635 L2642.01 352.239 L2637.22 352.239 L2637.22 334.791 Q2637.22 330.651 2635.6 328.593 Q2633.99 326.536 2630.76 326.536 Q2626.88 326.536 2624.64 329.01 Q2622.4 331.484 2622.4 335.755 L2622.4 352.239 L2617.58 352.239 L2617.58 323.073 L2622.4 323.073 L2622.4 327.604 Q2624.12 324.974 2626.43 323.671 Q2628.78 322.369 2631.83 322.369 Q2636.85 322.369 2639.43 325.494 Q2642.01 328.593 2642.01 334.635 Z" fill="#000000" fill-rule="nonzero" fill-opacity="1" /><path clip-path="url(#clip260)" d="M2676.51 336.458 L2676.51 338.802 L2654.48 338.802 Q2654.79 343.749 2657.45 346.354 Q2660.13 348.932 2664.9 348.932 Q2667.66 348.932 2670.24 348.255 Q2672.84 347.578 2675.39 346.223 L2675.39 350.755 Q2672.81 351.848 2670.11 352.421 Q2667.4 352.994 2664.61 352.994 Q2657.63 352.994 2653.54 348.932 Q2649.48 344.869 2649.48 337.942 Q2649.48 330.781 2653.34 326.588 Q2657.22 322.369 2663.78 322.369 Q2669.66 322.369 2673.08 326.171 Q2676.51 329.947 2676.51 336.458 M2671.72 335.052 Q2671.67 331.119 2669.51 328.776 Q2667.37 326.432 2663.83 326.432 Q2659.82 326.432 2657.4 328.697 Q2655 330.963 2654.64 335.078 L2671.72 335.052 Z" fill="#000000" fill-rule="nonzero" fill-opacity="1" /><path clip-path="url(#clip260)" d="M2701.28 327.552 Q2700.47 327.083 2699.51 326.875 Q2698.57 326.64 2697.42 326.64 Q2693.36 326.64 2691.17 329.296 Q2689.01 331.927 2689.01 336.875 L2689.01 352.239 L2684.19 352.239 L2684.19 323.073 L2689.01 323.073 L2689.01 327.604 Q2690.52 324.948 2692.94 323.671 Q2695.37 322.369 2698.83 322.369 Q2699.33 322.369 2699.92 322.448 Q2700.52 322.5 2701.25 322.63 L2701.28 327.552 Z" fill="#000000" fill-rule="nonzero" fill-opacity="1" /><path clip-path="url(#clip260)" d="M2719.56 337.578 Q2713.75 337.578 2711.51 338.906 Q2709.27 340.234 2709.27 343.437 Q2709.27 345.989 2710.94 347.499 Q2712.63 348.984 2715.52 348.984 Q2719.51 348.984 2721.9 346.171 Q2724.32 343.333 2724.32 338.645 L2724.32 337.578 L2719.56 337.578 M2729.12 335.598 L2729.12 352.239 L2724.32 352.239 L2724.32 347.812 Q2722.68 350.468 2720.24 351.744 Q2717.79 352.994 2714.25 352.994 Q2709.77 352.994 2707.11 350.494 Q2704.48 347.968 2704.48 343.749 Q2704.48 338.828 2707.76 336.328 Q2711.07 333.828 2717.61 333.828 L2724.32 333.828 L2724.32 333.359 Q2724.32 330.052 2722.14 328.255 Q2719.98 326.432 2716.04 326.432 Q2713.54 326.432 2711.17 327.031 Q2708.8 327.63 2706.62 328.828 L2706.62 324.401 Q2709.25 323.385 2711.72 322.89 Q2714.19 322.369 2716.54 322.369 Q2722.87 322.369 2725.99 325.651 Q2729.12 328.932 2729.12 335.598 Z" fill="#000000" fill-rule="nonzero" fill-opacity="1" /><path clip-path="url(#clip260)" d="M2743.73 314.791 L2743.73 323.073 L2753.6 323.073 L2753.6 326.796 L2743.73 326.796 L2743.73 342.63 Q2743.73 346.197 2744.69 347.213 Q2745.68 348.229 2748.67 348.229 L2753.6 348.229 L2753.6 352.239 L2748.67 352.239 Q2743.13 352.239 2741.02 350.182 Q2738.91 348.098 2738.91 342.63 L2738.91 326.796 L2735.39 326.796 L2735.39 323.073 L2738.91 323.073 L2738.91 314.791 L2743.73 314.791 Z" fill="#000000" fill-rule="nonzero" fill-opacity="1" /><path clip-path="url(#clip260)" d="M2771.2 326.432 Q2767.35 326.432 2765.11 329.453 Q2762.87 332.447 2762.87 337.682 Q2762.87 342.916 2765.08 345.937 Q2767.32 348.932 2771.2 348.932 Q2775.03 348.932 2777.27 345.911 Q2779.51 342.89 2779.51 337.682 Q2779.51 332.5 2777.27 329.479 Q2775.03 326.432 2771.2 326.432 M2771.2 322.369 Q2777.45 322.369 2781.02 326.432 Q2784.59 330.494 2784.59 337.682 Q2784.59 344.843 2781.02 348.932 Q2777.45 352.994 2771.2 352.994 Q2764.92 352.994 2761.36 348.932 Q2757.81 344.843 2757.81 337.682 Q2757.81 330.494 2761.36 326.432 Q2764.92 322.369 2771.2 322.369 Z" fill="#000000" fill-rule="nonzero" fill-opacity="1" /><path clip-path="url(#clip260)" d="M2809.43 327.552 Q2808.62 327.083 2807.66 326.875 Q2806.72 326.64 2805.57 326.64 Q2801.51 326.64 2799.32 329.296 Q2797.16 331.927 2797.16 336.875 L2797.16 352.239 L2792.35 352.239 L2792.35 323.073 L2797.16 323.073 L2797.16 327.604 Q2798.67 324.948 2801.1 323.671 Q2803.52 322.369 2806.98 322.369 Q2807.48 322.369 2808.07 322.448 Q2808.67 322.5 2809.4 322.63 L2809.43 327.552 Z" fill="#000000" fill-rule="nonzero" fill-opacity="1" /></svg>
