<?xml version="1.0" encoding="utf-8"?>
<svg xmlns="http://www.w3.org/2000/svg" xmlns:xlink="http://www.w3.org/1999/xlink" width="600" height="400" viewBox="0 0 2400 1600">
<defs>
  <clipPath id="clip550">
    <rect x="0" y="0" width="2400" height="1600"/>
  </clipPath>
</defs>
<path clip-path="url(#clip550)" d="M0 1600 L2400 1600 L2400 8.88178e-14 L0 8.88178e-14  Z" fill="#ffffff" fill-rule="evenodd" fill-opacity="1"/>
<defs>
  <clipPath id="clip551">
    <rect x="235" y="106" width="2118" height="1318"/>
  </clipPath>
</defs>
<path clip-path="url(#clip550)" d="M205.121 1423.18 L2352.76 1423.18 L2352.76 106.192 L205.121 106.192  Z" fill="#ffffff" fill-rule="evenodd" fill-opacity="1"/>
<defs>
  <clipPath id="clip552">
    <rect x="205" y="106" width="2149" height="1318"/>
  </clipPath>
</defs>
<polyline clip-path="url(#clip552)" style="stroke:#000000; stroke-linecap:round; stroke-linejoin:round; stroke-width:2; stroke-opacity:0.1; fill:none" points="217.057,1423.18 217.057,106.192 "/>
<polyline clip-path="url(#clip552)" style="stroke:#000000; stroke-linecap:round; stroke-linejoin:round; stroke-width:2; stroke-opacity:0.1; fill:none" points="747.997,1423.18 747.997,106.192 "/>
<polyline clip-path="url(#clip552)" style="stroke:#000000; stroke-linecap:round; stroke-linejoin:round; stroke-width:2; stroke-opacity:0.1; fill:none" points="1278.94,1423.18 1278.94,106.192 "/>
<polyline clip-path="url(#clip552)" style="stroke:#000000; stroke-linecap:round; stroke-linejoin:round; stroke-width:2; stroke-opacity:0.1; fill:none" points="1809.88,1423.18 1809.88,106.192 "/>
<polyline clip-path="url(#clip552)" style="stroke:#000000; stroke-linecap:round; stroke-linejoin:round; stroke-width:2; stroke-opacity:0.1; fill:none" points="2340.82,1423.18 2340.82,106.192 "/>
<polyline clip-path="url(#clip552)" style="stroke:#000000; stroke-linecap:round; stroke-linejoin:round; stroke-width:2; stroke-opacity:0.1; fill:none" points="205.121,1423.18 2352.76,1423.18 "/>
<polyline clip-path="url(#clip552)" style="stroke:#000000; stroke-linecap:round; stroke-linejoin:round; stroke-width:2; stroke-opacity:0.1; fill:none" points="205.121,1109.61 2352.76,1109.61 "/>
<polyline clip-path="url(#clip552)" style="stroke:#000000; stroke-linecap:round; stroke-linejoin:round; stroke-width:2; stroke-opacity:0.1; fill:none" points="205.121,796.043 2352.76,796.043 "/>
<polyline clip-path="url(#clip552)" style="stroke:#000000; stroke-linecap:round; stroke-linejoin:round; stroke-width:2; stroke-opacity:0.1; fill:none" points="205.121,482.474 2352.76,482.474 "/>
<polyline clip-path="url(#clip552)" style="stroke:#000000; stroke-linecap:round; stroke-linejoin:round; stroke-width:2; stroke-opacity:0.1; fill:none" points="205.121,168.906 2352.76,168.906 "/>
<polyline clip-path="url(#clip550)" style="stroke:#000000; stroke-linecap:round; stroke-linejoin:round; stroke-width:4; stroke-opacity:1; fill:none" points="205.121,1423.18 2352.76,1423.18 "/>
<polyline clip-path="url(#clip550)" style="stroke:#000000; stroke-linecap:round; stroke-linejoin:round; stroke-width:4; stroke-opacity:1; fill:none" points="217.057,1423.18 217.057,1404.28 "/>
<polyline clip-path="url(#clip550)" style="stroke:#000000; stroke-linecap:round; stroke-linejoin:round; stroke-width:4; stroke-opacity:1; fill:none" points="747.997,1423.18 747.997,1404.28 "/>
<polyline clip-path="url(#clip550)" style="stroke:#000000; stroke-linecap:round; stroke-linejoin:round; stroke-width:4; stroke-opacity:1; fill:none" points="1278.94,1423.18 1278.94,1404.28 "/>
<polyline clip-path="url(#clip550)" style="stroke:#000000; stroke-linecap:round; stroke-linejoin:round; stroke-width:4; stroke-opacity:1; fill:none" points="1809.88,1423.18 1809.88,1404.28 "/>
<polyline clip-path="url(#clip550)" style="stroke:#000000; stroke-linecap:round; stroke-linejoin:round; stroke-width:4; stroke-opacity:1; fill:none" points="2340.82,1423.18 2340.82,1404.28 "/>
<path clip-path="url(#clip550)" d="M180.749 1481.64 L197.068 1481.64 L197.068 1485.58 L175.124 1485.58 L175.124 1481.64 Q177.786 1478.89 182.369 1474.26 Q186.976 1469.61 188.156 1468.27 Q190.402 1465.74 191.281 1464.01 Q192.184 1462.25 192.184 1460.56 Q192.184 1457.8 190.24 1456.07 Q188.318 1454.33 185.216 1454.33 Q183.017 1454.33 180.564 1455.09 Q178.133 1455.86 175.355 1457.41 L175.355 1452.69 Q178.179 1451.55 180.633 1450.97 Q183.087 1450.39 185.124 1450.39 Q190.494 1450.39 193.689 1453.08 Q196.883 1455.77 196.883 1460.26 Q196.883 1462.39 196.073 1464.31 Q195.286 1466.2 193.179 1468.8 Q192.601 1469.47 189.499 1472.69 Q186.397 1475.88 180.749 1481.64 Z" fill="#000000" fill-rule="nonzero" fill-opacity="1" /><path clip-path="url(#clip550)" d="M216.883 1454.1 Q213.272 1454.1 211.443 1457.66 Q209.638 1461.2 209.638 1468.33 Q209.638 1475.44 211.443 1479.01 Q213.272 1482.55 216.883 1482.55 Q220.517 1482.55 222.323 1479.01 Q224.151 1475.44 224.151 1468.33 Q224.151 1461.2 222.323 1457.66 Q220.517 1454.1 216.883 1454.1 M216.883 1450.39 Q222.693 1450.39 225.749 1455 Q228.827 1459.58 228.827 1468.33 Q228.827 1477.06 225.749 1481.67 Q222.693 1486.25 216.883 1486.25 Q211.073 1486.25 207.994 1481.67 Q204.939 1477.06 204.939 1468.33 Q204.939 1459.58 207.994 1455 Q211.073 1450.39 216.883 1450.39 Z" fill="#000000" fill-rule="nonzero" fill-opacity="1" /><path clip-path="url(#clip550)" d="M247.045 1454.1 Q243.434 1454.1 241.605 1457.66 Q239.799 1461.2 239.799 1468.33 Q239.799 1475.44 241.605 1479.01 Q243.434 1482.55 247.045 1482.55 Q250.679 1482.55 252.485 1479.01 Q254.313 1475.44 254.313 1468.33 Q254.313 1461.2 252.485 1457.66 Q250.679 1454.1 247.045 1454.1 M247.045 1450.39 Q252.855 1450.39 255.91 1455 Q258.989 1459.58 258.989 1468.33 Q258.989 1477.06 255.91 1481.67 Q252.855 1486.25 247.045 1486.25 Q241.235 1486.25 238.156 1481.67 Q235.1 1477.06 235.1 1468.33 Q235.1 1459.58 238.156 1455 Q241.235 1450.39 247.045 1450.39 Z" fill="#000000" fill-rule="nonzero" fill-opacity="1" /><path clip-path="url(#clip550)" d="M721.088 1455.09 L709.282 1473.54 L721.088 1473.54 L721.088 1455.09 M719.861 1451.02 L725.741 1451.02 L725.741 1473.54 L730.671 1473.54 L730.671 1477.43 L725.741 1477.43 L725.741 1485.58 L721.088 1485.58 L721.088 1477.43 L705.486 1477.43 L705.486 1472.92 L719.861 1451.02 Z" fill="#000000" fill-rule="nonzero" fill-opacity="1" /><path clip-path="url(#clip550)" d="M748.403 1454.1 Q744.791 1454.1 742.963 1457.66 Q741.157 1461.2 741.157 1468.33 Q741.157 1475.44 742.963 1479.01 Q744.791 1482.55 748.403 1482.55 Q752.037 1482.55 753.842 1479.01 Q755.671 1475.44 755.671 1468.33 Q755.671 1461.2 753.842 1457.66 Q752.037 1454.1 748.403 1454.1 M748.403 1450.39 Q754.213 1450.39 757.268 1455 Q760.347 1459.58 760.347 1468.33 Q760.347 1477.06 757.268 1481.67 Q754.213 1486.25 748.403 1486.25 Q742.592 1486.25 739.514 1481.67 Q736.458 1477.06 736.458 1468.33 Q736.458 1459.58 739.514 1455 Q742.592 1450.39 748.403 1450.39 Z" fill="#000000" fill-rule="nonzero" fill-opacity="1" /><path clip-path="url(#clip550)" d="M778.564 1454.1 Q774.953 1454.1 773.125 1457.66 Q771.319 1461.2 771.319 1468.33 Q771.319 1475.44 773.125 1479.01 Q774.953 1482.55 778.564 1482.55 Q782.199 1482.55 784.004 1479.01 Q785.833 1475.44 785.833 1468.33 Q785.833 1461.2 784.004 1457.66 Q782.199 1454.1 778.564 1454.1 M778.564 1450.39 Q784.375 1450.39 787.43 1455 Q790.509 1459.58 790.509 1468.33 Q790.509 1477.06 787.43 1481.67 Q784.375 1486.25 778.564 1486.25 Q772.754 1486.25 769.676 1481.67 Q766.62 1477.06 766.62 1468.33 Q766.62 1459.58 769.676 1455 Q772.754 1450.39 778.564 1450.39 Z" fill="#000000" fill-rule="nonzero" fill-opacity="1" /><path clip-path="url(#clip550)" d="M1249.26 1466.44 Q1246.11 1466.44 1244.26 1468.59 Q1242.43 1470.74 1242.43 1474.49 Q1242.43 1478.22 1244.26 1480.39 Q1246.11 1482.55 1249.26 1482.55 Q1252.41 1482.55 1254.24 1480.39 Q1256.09 1478.22 1256.09 1474.49 Q1256.09 1470.74 1254.24 1468.59 Q1252.41 1466.44 1249.26 1466.44 M1258.55 1451.78 L1258.55 1456.04 Q1256.79 1455.21 1254.98 1454.77 Q1253.2 1454.33 1251.44 1454.33 Q1246.81 1454.33 1244.36 1457.45 Q1241.92 1460.58 1241.58 1466.9 Q1242.94 1464.89 1245 1463.82 Q1247.06 1462.73 1249.54 1462.73 Q1254.75 1462.73 1257.76 1465.9 Q1260.79 1469.05 1260.79 1474.49 Q1260.79 1479.82 1257.64 1483.03 Q1254.49 1486.25 1249.26 1486.25 Q1243.27 1486.25 1240.1 1481.67 Q1236.92 1477.06 1236.92 1468.33 Q1236.92 1460.14 1240.81 1455.28 Q1244.7 1450.39 1251.25 1450.39 Q1253.01 1450.39 1254.8 1450.74 Q1256.6 1451.09 1258.55 1451.78 Z" fill="#000000" fill-rule="nonzero" fill-opacity="1" /><path clip-path="url(#clip550)" d="M1278.85 1454.1 Q1275.23 1454.1 1273.41 1457.66 Q1271.6 1461.2 1271.6 1468.33 Q1271.6 1475.44 1273.41 1479.01 Q1275.23 1482.55 1278.85 1482.55 Q1282.48 1482.55 1284.29 1479.01 Q1286.11 1475.44 1286.11 1468.33 Q1286.11 1461.2 1284.29 1457.66 Q1282.48 1454.1 1278.85 1454.1 M1278.85 1450.39 Q1284.66 1450.39 1287.71 1455 Q1290.79 1459.58 1290.79 1468.33 Q1290.79 1477.06 1287.71 1481.67 Q1284.66 1486.25 1278.85 1486.25 Q1273.04 1486.25 1269.96 1481.67 Q1266.9 1477.06 1266.9 1468.33 Q1266.9 1459.58 1269.96 1455 Q1273.04 1450.39 1278.85 1450.39 Z" fill="#000000" fill-rule="nonzero" fill-opacity="1" /><path clip-path="url(#clip550)" d="M1309.01 1454.1 Q1305.4 1454.1 1303.57 1457.66 Q1301.76 1461.2 1301.76 1468.33 Q1301.76 1475.44 1303.57 1479.01 Q1305.4 1482.55 1309.01 1482.55 Q1312.64 1482.55 1314.45 1479.01 Q1316.28 1475.44 1316.28 1468.33 Q1316.28 1461.2 1314.45 1457.66 Q1312.64 1454.1 1309.01 1454.1 M1309.01 1450.39 Q1314.82 1450.39 1317.87 1455 Q1320.95 1459.58 1320.95 1468.33 Q1320.95 1477.06 1317.87 1481.67 Q1314.82 1486.25 1309.01 1486.25 Q1303.2 1486.25 1300.12 1481.67 Q1297.06 1477.06 1297.06 1468.33 Q1297.06 1459.58 1300.12 1455 Q1303.2 1450.39 1309.01 1450.39 Z" fill="#000000" fill-rule="nonzero" fill-opacity="1" /><path clip-path="url(#clip550)" d="M1779.67 1469.17 Q1776.34 1469.17 1774.42 1470.95 Q1772.52 1472.73 1772.52 1475.86 Q1772.52 1478.98 1774.42 1480.77 Q1776.34 1482.55 1779.67 1482.55 Q1783 1482.55 1784.93 1480.77 Q1786.85 1478.96 1786.85 1475.86 Q1786.85 1472.73 1784.93 1470.95 Q1783.03 1469.17 1779.67 1469.17 M1775 1467.18 Q1771.99 1466.44 1770.3 1464.38 Q1768.63 1462.32 1768.63 1459.35 Q1768.63 1455.21 1771.57 1452.8 Q1774.53 1450.39 1779.67 1450.39 Q1784.83 1450.39 1787.77 1452.8 Q1790.71 1455.21 1790.71 1459.35 Q1790.71 1462.32 1789.02 1464.38 Q1787.36 1466.44 1784.37 1467.18 Q1787.75 1467.96 1789.62 1470.26 Q1791.52 1472.55 1791.52 1475.86 Q1791.52 1480.88 1788.44 1483.57 Q1785.39 1486.25 1779.67 1486.25 Q1773.95 1486.25 1770.87 1483.57 Q1767.82 1480.88 1767.82 1475.86 Q1767.82 1472.55 1769.72 1470.26 Q1771.62 1467.96 1775 1467.18 M1773.28 1459.79 Q1773.28 1462.48 1774.95 1463.98 Q1776.64 1465.49 1779.67 1465.49 Q1782.68 1465.49 1784.37 1463.98 Q1786.08 1462.48 1786.08 1459.79 Q1786.08 1457.11 1784.37 1455.6 Q1782.68 1454.1 1779.67 1454.1 Q1776.64 1454.1 1774.95 1455.6 Q1773.28 1457.11 1773.28 1459.79 Z" fill="#000000" fill-rule="nonzero" fill-opacity="1" /><path clip-path="url(#clip550)" d="M1809.83 1454.1 Q1806.22 1454.1 1804.39 1457.66 Q1802.59 1461.2 1802.59 1468.33 Q1802.59 1475.44 1804.39 1479.01 Q1806.22 1482.55 1809.83 1482.55 Q1813.47 1482.55 1815.27 1479.01 Q1817.1 1475.44 1817.1 1468.33 Q1817.1 1461.2 1815.27 1457.66 Q1813.47 1454.1 1809.83 1454.1 M1809.83 1450.39 Q1815.64 1450.39 1818.7 1455 Q1821.78 1459.58 1821.78 1468.33 Q1821.78 1477.06 1818.7 1481.67 Q1815.64 1486.25 1809.83 1486.25 Q1804.02 1486.25 1800.94 1481.67 Q1797.89 1477.06 1797.89 1468.33 Q1797.89 1459.58 1800.94 1455 Q1804.02 1450.39 1809.83 1450.39 Z" fill="#000000" fill-rule="nonzero" fill-opacity="1" /><path clip-path="url(#clip550)" d="M1839.99 1454.1 Q1836.38 1454.1 1834.56 1457.66 Q1832.75 1461.2 1832.75 1468.33 Q1832.75 1475.44 1834.56 1479.01 Q1836.38 1482.55 1839.99 1482.55 Q1843.63 1482.55 1845.43 1479.01 Q1847.26 1475.44 1847.26 1468.33 Q1847.26 1461.2 1845.43 1457.66 Q1843.63 1454.1 1839.99 1454.1 M1839.99 1450.39 Q1845.81 1450.39 1848.86 1455 Q1851.94 1459.58 1851.94 1468.33 Q1851.94 1477.06 1848.86 1481.67 Q1845.81 1486.25 1839.99 1486.25 Q1834.18 1486.25 1831.11 1481.67 Q1828.05 1477.06 1828.05 1468.33 Q1828.05 1459.58 1831.11 1455 Q1834.18 1450.39 1839.99 1450.39 Z" fill="#000000" fill-rule="nonzero" fill-opacity="1" /><path clip-path="url(#clip550)" d="M2285.35 1481.64 L2292.98 1481.64 L2292.98 1455.28 L2284.67 1456.95 L2284.67 1452.69 L2292.94 1451.02 L2297.61 1451.02 L2297.61 1481.64 L2305.25 1481.64 L2305.25 1485.58 L2285.35 1485.58 L2285.35 1481.64 Z" fill="#000000" fill-rule="nonzero" fill-opacity="1" /><path clip-path="url(#clip550)" d="M2324.7 1454.1 Q2321.09 1454.1 2319.26 1457.66 Q2317.45 1461.2 2317.45 1468.33 Q2317.45 1475.44 2319.26 1479.01 Q2321.09 1482.55 2324.7 1482.55 Q2328.33 1482.55 2330.14 1479.01 Q2331.97 1475.44 2331.97 1468.33 Q2331.97 1461.2 2330.14 1457.66 Q2328.33 1454.1 2324.7 1454.1 M2324.7 1450.39 Q2330.51 1450.39 2333.56 1455 Q2336.64 1459.58 2336.64 1468.33 Q2336.64 1477.06 2333.56 1481.67 Q2330.51 1486.25 2324.7 1486.25 Q2318.89 1486.25 2315.81 1481.67 Q2312.75 1477.06 2312.75 1468.33 Q2312.75 1459.58 2315.81 1455 Q2318.89 1450.39 2324.7 1450.39 Z" fill="#000000" fill-rule="nonzero" fill-opacity="1" /><path clip-path="url(#clip550)" d="M2354.86 1454.1 Q2351.25 1454.1 2349.42 1457.66 Q2347.61 1461.2 2347.61 1468.33 Q2347.61 1475.44 2349.42 1479.01 Q2351.25 1482.55 2354.86 1482.55 Q2358.49 1482.55 2360.3 1479.01 Q2362.13 1475.44 2362.13 1468.33 Q2362.13 1461.2 2360.3 1457.66 Q2358.49 1454.1 2354.86 1454.1 M2354.86 1450.39 Q2360.67 1450.39 2363.73 1455 Q2366.8 1459.58 2366.8 1468.33 Q2366.8 1477.06 2363.73 1481.67 Q2360.67 1486.25 2354.86 1486.25 Q2349.05 1486.25 2345.97 1481.67 Q2342.92 1477.06 2342.92 1468.33 Q2342.92 1459.58 2345.97 1455 Q2349.05 1450.39 2354.86 1450.39 Z" fill="#000000" fill-rule="nonzero" fill-opacity="1" /><path clip-path="url(#clip550)" d="M2385.02 1454.1 Q2381.41 1454.1 2379.58 1457.66 Q2377.78 1461.2 2377.78 1468.33 Q2377.78 1475.44 2379.58 1479.01 Q2381.41 1482.55 2385.02 1482.55 Q2388.66 1482.55 2390.46 1479.01 Q2392.29 1475.44 2392.29 1468.33 Q2392.29 1461.2 2390.46 1457.66 Q2388.66 1454.1 2385.02 1454.1 M2385.02 1450.39 Q2390.83 1450.39 2393.89 1455 Q2396.97 1459.58 2396.97 1468.33 Q2396.97 1477.06 2393.89 1481.67 Q2390.83 1486.25 2385.02 1486.25 Q2379.21 1486.25 2376.13 1481.67 Q2373.08 1477.06 2373.08 1468.33 Q2373.08 1459.58 2376.13 1455 Q2379.21 1450.39 2385.02 1450.39 Z" fill="#000000" fill-rule="nonzero" fill-opacity="1" /><path clip-path="url(#clip550)" d="M1051.36 1520.52 L1091.56 1520.52 L1091.56 1525.93 L1074.69 1525.93 L1074.69 1568.04 L1068.23 1568.04 L1068.23 1525.93 L1051.36 1525.93 L1051.36 1520.52 Z" fill="#000000" fill-rule="nonzero" fill-opacity="1" /><path clip-path="url(#clip550)" d="M1116.93 1548.76 L1116.93 1551.62 L1090 1551.62 Q1090.39 1557.67 1093.63 1560.85 Q1096.91 1564 1102.74 1564 Q1106.11 1564 1109.26 1563.17 Q1112.44 1562.35 1115.56 1560.69 L1115.56 1566.23 Q1112.41 1567.57 1109.1 1568.27 Q1105.79 1568.97 1102.39 1568.97 Q1093.86 1568.97 1088.86 1564 Q1083.89 1559.04 1083.89 1550.57 Q1083.89 1541.82 1088.6 1536.69 Q1093.35 1531.54 1101.37 1531.54 Q1108.56 1531.54 1112.73 1536.18 Q1116.93 1540.8 1116.93 1548.76 M1111.07 1547.04 Q1111.01 1542.23 1108.37 1539.37 Q1105.76 1536.5 1101.43 1536.5 Q1096.53 1536.5 1093.57 1539.27 Q1090.64 1542.04 1090.2 1547.07 L1111.07 1547.04 Z" fill="#000000" fill-rule="nonzero" fill-opacity="1" /><path clip-path="url(#clip550)" d="M1147.2 1537.87 Q1146.21 1537.3 1145.04 1537.04 Q1143.89 1536.76 1142.49 1536.76 Q1137.52 1536.76 1134.85 1540 Q1132.21 1543.22 1132.21 1549.27 L1132.21 1568.04 L1126.32 1568.04 L1126.32 1532.4 L1132.21 1532.4 L1132.21 1537.93 Q1134.05 1534.69 1137.02 1533.13 Q1139.98 1531.54 1144.21 1531.54 Q1144.81 1531.54 1145.55 1531.63 Q1146.28 1531.7 1147.17 1531.85 L1147.2 1537.87 Z" fill="#000000" fill-rule="nonzero" fill-opacity="1" /><path clip-path="url(#clip550)" d="M1179.95 1539.24 Q1182.15 1535.29 1185.2 1533.41 Q1188.26 1531.54 1192.4 1531.54 Q1197.97 1531.54 1200.99 1535.45 Q1204.01 1539.33 1204.01 1546.53 L1204.01 1568.04 L1198.13 1568.04 L1198.13 1546.72 Q1198.13 1541.59 1196.31 1539.11 Q1194.5 1536.63 1190.77 1536.63 Q1186.22 1536.63 1183.58 1539.65 Q1180.94 1542.68 1180.94 1547.9 L1180.94 1568.04 L1175.05 1568.04 L1175.05 1546.72 Q1175.05 1541.56 1173.24 1539.11 Q1171.42 1536.63 1167.63 1536.63 Q1163.15 1536.63 1160.5 1539.68 Q1157.86 1542.71 1157.86 1547.9 L1157.86 1568.04 L1151.97 1568.04 L1151.97 1532.4 L1157.86 1532.4 L1157.86 1537.93 Q1159.87 1534.66 1162.67 1533.1 Q1165.47 1531.54 1169.32 1531.54 Q1173.2 1531.54 1175.91 1533.51 Q1178.65 1535.48 1179.95 1539.24 Z" fill="#000000" fill-rule="nonzero" fill-opacity="1" /><path clip-path="url(#clip550)" d="M1215.7 1532.4 L1221.55 1532.4 L1221.55 1568.04 L1215.7 1568.04 L1215.7 1532.4 M1215.7 1518.52 L1221.55 1518.52 L1221.55 1525.93 L1215.7 1525.93 L1215.7 1518.52 Z" fill="#000000" fill-rule="nonzero" fill-opacity="1" /><path clip-path="url(#clip550)" d="M1263.44 1546.53 L1263.44 1568.04 L1257.58 1568.04 L1257.58 1546.72 Q1257.58 1541.66 1255.61 1539.14 Q1253.63 1536.63 1249.69 1536.63 Q1244.95 1536.63 1242.21 1539.65 Q1239.47 1542.68 1239.47 1547.9 L1239.47 1568.04 L1233.58 1568.04 L1233.58 1532.4 L1239.47 1532.4 L1239.47 1537.93 Q1241.57 1534.72 1244.4 1533.13 Q1247.27 1531.54 1250.99 1531.54 Q1257.14 1531.54 1260.29 1535.36 Q1263.44 1539.14 1263.44 1546.53 Z" fill="#000000" fill-rule="nonzero" fill-opacity="1" /><path clip-path="url(#clip550)" d="M1291.32 1550.12 Q1284.22 1550.12 1281.48 1551.75 Q1278.75 1553.37 1278.75 1557.29 Q1278.75 1560.4 1280.78 1562.25 Q1282.85 1564.07 1286.39 1564.07 Q1291.26 1564.07 1294.18 1560.63 Q1297.14 1557.16 1297.14 1551.43 L1297.14 1550.12 L1291.32 1550.12 M1303 1547.71 L1303 1568.04 L1297.14 1568.04 L1297.14 1562.63 Q1295.14 1565.88 1292.15 1567.44 Q1289.16 1568.97 1284.83 1568.97 Q1279.35 1568.97 1276.11 1565.91 Q1272.89 1562.82 1272.89 1557.67 Q1272.89 1551.65 1276.9 1548.6 Q1280.94 1545.54 1288.93 1545.54 L1297.14 1545.54 L1297.14 1544.97 Q1297.14 1540.93 1294.47 1538.73 Q1291.83 1536.5 1287.02 1536.5 Q1283.97 1536.5 1281.07 1537.23 Q1278.17 1537.97 1275.5 1539.43 L1275.5 1534.02 Q1278.72 1532.78 1281.74 1532.17 Q1284.76 1531.54 1287.63 1531.54 Q1295.36 1531.54 1299.18 1535.55 Q1303 1539.56 1303 1547.71 Z" fill="#000000" fill-rule="nonzero" fill-opacity="1" /><path clip-path="url(#clip550)" d="M1315.06 1518.52 L1320.92 1518.52 L1320.92 1568.04 L1315.06 1568.04 L1315.06 1518.52 Z" fill="#000000" fill-rule="nonzero" fill-opacity="1" /><path clip-path="url(#clip550)" d="M1359.56 1562.7 L1359.56 1581.6 L1353.67 1581.6 L1353.67 1532.4 L1359.56 1532.4 L1359.56 1537.81 Q1361.41 1534.62 1364.21 1533.1 Q1367.04 1531.54 1370.95 1531.54 Q1377.45 1531.54 1381.49 1536.69 Q1385.56 1541.85 1385.56 1550.25 Q1385.56 1558.65 1381.49 1563.81 Q1377.45 1568.97 1370.95 1568.97 Q1367.04 1568.97 1364.21 1567.44 Q1361.41 1565.88 1359.56 1562.7 M1379.48 1550.25 Q1379.48 1543.79 1376.81 1540.13 Q1374.17 1536.44 1369.52 1536.44 Q1364.88 1536.44 1362.2 1540.13 Q1359.56 1543.79 1359.56 1550.25 Q1359.56 1556.71 1362.2 1560.4 Q1364.88 1564.07 1369.52 1564.07 Q1374.17 1564.07 1376.81 1560.4 Q1379.48 1556.71 1379.48 1550.25 Z" fill="#000000" fill-rule="nonzero" fill-opacity="1" /><path clip-path="url(#clip550)" d="M1415.93 1537.87 Q1414.94 1537.3 1413.76 1537.04 Q1412.62 1536.76 1411.22 1536.76 Q1406.25 1536.76 1403.58 1540 Q1400.94 1543.22 1400.94 1549.27 L1400.94 1568.04 L1395.05 1568.04 L1395.05 1532.4 L1400.94 1532.4 L1400.94 1537.93 Q1402.78 1534.69 1405.74 1533.13 Q1408.7 1531.54 1412.94 1531.54 Q1413.54 1531.54 1414.27 1531.63 Q1415.01 1531.7 1415.9 1531.85 L1415.93 1537.87 Z" fill="#000000" fill-rule="nonzero" fill-opacity="1" /><path clip-path="url(#clip550)" d="M1422.07 1532.4 L1427.93 1532.4 L1427.93 1568.04 L1422.07 1568.04 L1422.07 1532.4 M1422.07 1518.52 L1427.93 1518.52 L1427.93 1525.93 L1422.07 1525.93 L1422.07 1518.52 Z" fill="#000000" fill-rule="nonzero" fill-opacity="1" /><path clip-path="url(#clip550)" d="M1465.84 1533.76 L1465.84 1539.24 Q1463.35 1537.87 1460.84 1537.2 Q1458.36 1536.5 1455.81 1536.5 Q1450.11 1536.5 1446.96 1540.13 Q1443.81 1543.73 1443.81 1550.25 Q1443.81 1556.78 1446.96 1560.4 Q1450.11 1564 1455.81 1564 Q1458.36 1564 1460.84 1563.33 Q1463.35 1562.63 1465.84 1561.26 L1465.84 1566.68 Q1463.38 1567.82 1460.74 1568.39 Q1458.13 1568.97 1455.17 1568.97 Q1447.12 1568.97 1442.38 1563.91 Q1437.64 1558.85 1437.64 1550.25 Q1437.64 1541.53 1442.41 1536.53 Q1447.22 1531.54 1455.55 1531.54 Q1458.26 1531.54 1460.84 1532.11 Q1463.42 1532.65 1465.84 1533.76 Z" fill="#000000" fill-rule="nonzero" fill-opacity="1" /><path clip-path="url(#clip550)" d="M1506.51 1548.76 L1506.51 1551.62 L1479.59 1551.62 Q1479.97 1557.67 1483.21 1560.85 Q1486.49 1564 1492.32 1564 Q1495.69 1564 1498.84 1563.17 Q1502.02 1562.35 1505.14 1560.69 L1505.14 1566.23 Q1501.99 1567.57 1498.68 1568.27 Q1495.37 1568.97 1491.97 1568.97 Q1483.44 1568.97 1478.44 1564 Q1473.47 1559.04 1473.47 1550.57 Q1473.47 1541.82 1478.19 1536.69 Q1482.93 1531.54 1490.95 1531.54 Q1498.14 1531.54 1502.31 1536.18 Q1506.51 1540.8 1506.51 1548.76 M1500.66 1547.04 Q1500.59 1542.23 1497.95 1539.37 Q1495.34 1536.5 1491.01 1536.5 Q1486.11 1536.5 1483.15 1539.27 Q1480.22 1542.04 1479.78 1547.07 L1500.66 1547.04 Z" fill="#000000" fill-rule="nonzero" fill-opacity="1" /><polyline clip-path="url(#clip550)" style="stroke:#000000; stroke-linecap:round; stroke-linejoin:round; stroke-width:4; stroke-opacity:1; fill:none" points="205.121,1423.18 205.121,106.192 "/>
<polyline clip-path="url(#clip550)" style="stroke:#000000; stroke-linecap:round; stroke-linejoin:round; stroke-width:4; stroke-opacity:1; fill:none" points="205.121,1423.18 224.019,1423.18 "/>
<polyline clip-path="url(#clip550)" style="stroke:#000000; stroke-linecap:round; stroke-linejoin:round; stroke-width:4; stroke-opacity:1; fill:none" points="205.121,1109.61 224.019,1109.61 "/>
<polyline clip-path="url(#clip550)" style="stroke:#000000; stroke-linecap:round; stroke-linejoin:round; stroke-width:4; stroke-opacity:1; fill:none" points="205.121,796.043 224.019,796.043 "/>
<polyline clip-path="url(#clip550)" style="stroke:#000000; stroke-linecap:round; stroke-linejoin:round; stroke-width:4; stroke-opacity:1; fill:none" points="205.121,482.474 224.019,482.474 "/>
<polyline clip-path="url(#clip550)" style="stroke:#000000; stroke-linecap:round; stroke-linejoin:round; stroke-width:4; stroke-opacity:1; fill:none" points="205.121,168.906 224.019,168.906 "/>
<path clip-path="url(#clip550)" d="M157.177 1408.98 Q153.566 1408.98 151.737 1412.54 Q149.931 1416.08 149.931 1423.21 Q149.931 1430.32 151.737 1433.89 Q153.566 1437.43 157.177 1437.43 Q160.811 1437.43 162.616 1433.89 Q164.445 1430.32 164.445 1423.21 Q164.445 1416.08 162.616 1412.54 Q160.811 1408.98 157.177 1408.98 M157.177 1405.27 Q162.987 1405.27 166.042 1409.88 Q169.121 1414.46 169.121 1423.21 Q169.121 1431.94 166.042 1436.55 Q162.987 1441.13 157.177 1441.13 Q151.366 1441.13 148.288 1436.55 Q145.232 1431.94 145.232 1423.21 Q145.232 1414.46 148.288 1409.88 Q151.366 1405.27 157.177 1405.27 Z" fill="#000000" fill-rule="nonzero" fill-opacity="1" /><path clip-path="url(#clip550)" d="M117.825 1122.96 L125.464 1122.96 L125.464 1096.59 L117.154 1098.26 L117.154 1094 L125.418 1092.33 L130.093 1092.33 L130.093 1122.96 L137.732 1122.96 L137.732 1126.89 L117.825 1126.89 L117.825 1122.96 Z" fill="#000000" fill-rule="nonzero" fill-opacity="1" /><path clip-path="url(#clip550)" d="M157.177 1095.41 Q153.566 1095.41 151.737 1098.97 Q149.931 1102.52 149.931 1109.65 Q149.931 1116.75 151.737 1120.32 Q153.566 1123.86 157.177 1123.86 Q160.811 1123.86 162.616 1120.32 Q164.445 1116.75 164.445 1109.65 Q164.445 1102.52 162.616 1098.97 Q160.811 1095.41 157.177 1095.41 M157.177 1091.71 Q162.987 1091.71 166.042 1096.31 Q169.121 1100.9 169.121 1109.65 Q169.121 1118.37 166.042 1122.98 Q162.987 1127.56 157.177 1127.56 Q151.366 1127.56 148.288 1122.98 Q145.232 1118.37 145.232 1109.65 Q145.232 1100.9 148.288 1096.31 Q151.366 1091.71 157.177 1091.71 Z" fill="#000000" fill-rule="nonzero" fill-opacity="1" /><path clip-path="url(#clip550)" d="M121.043 809.388 L137.362 809.388 L137.362 813.323 L115.418 813.323 L115.418 809.388 Q118.08 806.633 122.663 802.003 Q127.269 797.351 128.45 796.008 Q130.695 793.485 131.575 791.749 Q132.478 789.99 132.478 788.3 Q132.478 785.545 130.533 783.809 Q128.612 782.073 125.51 782.073 Q123.311 782.073 120.857 782.837 Q118.427 783.601 115.649 785.152 L115.649 780.429 Q118.473 779.295 120.927 778.717 Q123.38 778.138 125.418 778.138 Q130.788 778.138 133.982 780.823 Q137.177 783.508 137.177 787.999 Q137.177 790.129 136.367 792.05 Q135.579 793.948 133.473 796.541 Q132.894 797.212 129.792 800.429 Q126.691 803.624 121.043 809.388 Z" fill="#000000" fill-rule="nonzero" fill-opacity="1" /><path clip-path="url(#clip550)" d="M157.177 781.842 Q153.566 781.842 151.737 785.406 Q149.931 788.948 149.931 796.078 Q149.931 803.184 151.737 806.749 Q153.566 810.29 157.177 810.29 Q160.811 810.29 162.616 806.749 Q164.445 803.184 164.445 796.078 Q164.445 788.948 162.616 785.406 Q160.811 781.842 157.177 781.842 M157.177 778.138 Q162.987 778.138 166.042 782.744 Q169.121 787.328 169.121 796.078 Q169.121 804.804 166.042 809.411 Q162.987 813.994 157.177 813.994 Q151.366 813.994 148.288 809.411 Q145.232 804.804 145.232 796.078 Q145.232 787.328 148.288 782.744 Q151.366 778.138 157.177 778.138 Z" fill="#000000" fill-rule="nonzero" fill-opacity="1" /><path clip-path="url(#clip550)" d="M131.181 481.12 Q134.538 481.838 136.413 484.106 Q138.311 486.375 138.311 489.708 Q138.311 494.824 134.792 497.625 Q131.274 500.426 124.793 500.426 Q122.617 500.426 120.302 499.986 Q118.01 499.569 115.556 498.713 L115.556 494.199 Q117.501 495.333 119.816 495.912 Q122.13 496.49 124.654 496.49 Q129.052 496.49 131.343 494.754 Q133.658 493.018 133.658 489.708 Q133.658 486.653 131.505 484.94 Q129.376 483.203 125.556 483.203 L121.529 483.203 L121.529 479.361 L125.742 479.361 Q129.191 479.361 131.019 477.995 Q132.848 476.606 132.848 474.014 Q132.848 471.352 130.95 469.94 Q129.075 468.504 125.556 468.504 Q123.635 468.504 121.436 468.921 Q119.237 469.338 116.598 470.217 L116.598 466.051 Q119.26 465.31 121.575 464.94 Q123.913 464.569 125.973 464.569 Q131.297 464.569 134.399 467 Q137.501 469.407 137.501 473.528 Q137.501 476.398 135.857 478.389 Q134.214 480.356 131.181 481.12 Z" fill="#000000" fill-rule="nonzero" fill-opacity="1" /><path clip-path="url(#clip550)" d="M157.177 468.273 Q153.566 468.273 151.737 471.838 Q149.931 475.379 149.931 482.509 Q149.931 489.615 151.737 493.18 Q153.566 496.722 157.177 496.722 Q160.811 496.722 162.616 493.18 Q164.445 489.615 164.445 482.509 Q164.445 475.379 162.616 471.838 Q160.811 468.273 157.177 468.273 M157.177 464.569 Q162.987 464.569 166.042 469.176 Q169.121 473.759 169.121 482.509 Q169.121 491.236 166.042 495.842 Q162.987 500.426 157.177 500.426 Q151.366 500.426 148.288 495.842 Q145.232 491.236 145.232 482.509 Q145.232 473.759 148.288 469.176 Q151.366 464.569 157.177 464.569 Z" fill="#000000" fill-rule="nonzero" fill-opacity="1" /><path clip-path="url(#clip550)" d="M129.862 155.7 L118.056 174.149 L129.862 174.149 L129.862 155.7 M128.635 151.626 L134.515 151.626 L134.515 174.149 L139.445 174.149 L139.445 178.038 L134.515 178.038 L134.515 186.186 L129.862 186.186 L129.862 178.038 L114.26 178.038 L114.26 173.524 L128.635 151.626 Z" fill="#000000" fill-rule="nonzero" fill-opacity="1" /><path clip-path="url(#clip550)" d="M157.177 154.705 Q153.566 154.705 151.737 158.269 Q149.931 161.811 149.931 168.941 Q149.931 176.047 151.737 179.612 Q153.566 183.153 157.177 183.153 Q160.811 183.153 162.616 179.612 Q164.445 176.047 164.445 168.941 Q164.445 161.811 162.616 158.269 Q160.811 154.705 157.177 154.705 M157.177 151.001 Q162.987 151.001 166.042 155.607 Q169.121 160.191 169.121 168.941 Q169.121 177.667 166.042 182.274 Q162.987 186.857 157.177 186.857 Q151.366 186.857 148.288 182.274 Q145.232 177.667 145.232 168.941 Q145.232 160.191 148.288 155.607 Q151.366 151.001 157.177 151.001 Z" fill="#000000" fill-rule="nonzero" fill-opacity="1" /><path clip-path="url(#clip550)" d="M20.1444 820.545 L26.9239 820.545 Q23.9002 823.792 22.4043 827.484 Q20.9083 831.144 20.9083 835.282 Q20.9083 843.43 25.9054 847.758 Q30.8707 852.087 40.2919 852.087 Q49.6813 852.087 54.6784 847.758 Q59.6436 843.43 59.6436 835.282 Q59.6436 831.144 58.1477 827.484 Q56.6518 823.792 53.6281 820.545 L60.3439 820.545 Q62.6355 823.919 63.7814 827.706 Q64.9272 831.462 64.9272 835.664 Q64.9272 846.453 58.3387 852.66 Q51.7183 858.867 40.2919 858.867 Q28.8336 858.867 22.2451 852.66 Q15.6248 846.453 15.6248 835.664 Q15.6248 831.399 16.7706 827.643 Q17.8846 823.855 20.1444 820.545 Z" fill="#000000" fill-rule="nonzero" fill-opacity="1" /><path clip-path="url(#clip550)" d="M32.4621 797.056 Q32.4621 801.766 36.1542 804.503 Q39.8145 807.241 46.212 807.241 Q52.6095 807.241 56.3017 804.535 Q59.9619 801.798 59.9619 797.056 Q59.9619 792.377 56.2698 789.64 Q52.5777 786.902 46.212 786.902 Q39.8781 786.902 36.186 789.64 Q32.4621 792.377 32.4621 797.056 M27.4968 797.056 Q27.4968 789.417 32.4621 785.056 Q37.4273 780.696 46.212 780.696 Q54.9649 780.696 59.9619 785.056 Q64.9272 789.417 64.9272 797.056 Q64.9272 804.726 59.9619 809.087 Q54.9649 813.415 46.212 813.415 Q37.4273 813.415 32.4621 809.087 Q27.4968 804.726 27.4968 797.056 Z" fill="#000000" fill-rule="nonzero" fill-opacity="1" /><path clip-path="url(#clip550)" d="M49.9359 771.593 L28.3562 771.593 L28.3562 765.736 L49.7131 765.736 Q54.7739 765.736 57.3202 763.763 Q59.8346 761.79 59.8346 757.843 Q59.8346 753.1 56.8109 750.363 Q53.7872 747.594 48.5673 747.594 L28.3562 747.594 L28.3562 741.738 L64.0042 741.738 L64.0042 747.594 L58.5296 747.594 Q61.7762 749.727 63.3676 752.559 Q64.9272 755.36 64.9272 759.084 Q64.9272 765.227 61.1078 768.41 Q57.2883 771.593 49.9359 771.593 M27.4968 756.856 L27.4968 756.856 Z" fill="#000000" fill-rule="nonzero" fill-opacity="1" /><path clip-path="url(#clip550)" d="M42.4881 700.042 L64.0042 700.042 L64.0042 705.899 L42.679 705.899 Q37.6183 705.899 35.1038 707.872 Q32.5894 709.845 32.5894 713.792 Q32.5894 718.535 35.6131 721.272 Q38.6368 724.009 43.8567 724.009 L64.0042 724.009 L64.0042 729.897 L28.3562 729.897 L28.3562 724.009 L33.8944 724.009 Q30.6797 721.908 29.0883 719.076 Q27.4968 716.211 27.4968 712.487 Q27.4968 706.344 31.3163 703.193 Q35.1038 700.042 42.4881 700.042 Z" fill="#000000" fill-rule="nonzero" fill-opacity="1" /><path clip-path="url(#clip550)" d="M18.2347 682.568 L28.3562 682.568 L28.3562 670.505 L32.9077 670.505 L32.9077 682.568 L52.2594 682.568 Q56.6199 682.568 57.8613 681.391 Q59.1026 680.181 59.1026 676.521 L59.1026 670.505 L64.0042 670.505 L64.0042 676.521 Q64.0042 683.3 61.4897 685.879 Q58.9434 688.457 52.2594 688.457 L32.9077 688.457 L32.9077 692.753 L28.3562 692.753 L28.3562 688.457 L18.2347 688.457 L18.2347 682.568 Z" fill="#000000" fill-rule="nonzero" fill-opacity="1" /><path clip-path="url(#clip550)" d="M691.051 10.0578 L691.051 15.758 Q687.723 14.1666 684.772 13.3853 Q681.821 12.6041 679.072 12.6041 Q674.298 12.6041 671.693 14.4559 Q669.118 16.3078 669.118 19.7221 Q669.118 22.5867 670.825 24.0624 Q672.561 25.5091 677.365 26.4061 L680.895 27.1295 Q687.434 28.3737 690.53 31.5276 Q693.655 34.6526 693.655 39.9188 Q693.655 46.1977 689.431 49.4384 Q685.235 52.6791 677.104 52.6791 Q674.037 52.6791 670.565 51.9847 Q667.122 51.2902 663.418 49.9303 L663.418 43.9118 Q666.977 45.9083 670.391 46.921 Q673.806 47.9338 677.104 47.9338 Q682.11 47.9338 684.83 45.9662 Q687.55 43.9986 687.55 40.3528 Q687.55 37.1699 685.582 35.376 Q683.644 33.582 679.188 32.685 L675.629 31.9906 Q669.089 30.6885 666.167 27.9107 Q663.244 25.133 663.244 20.1851 Q663.244 14.4559 667.266 11.1573 Q671.317 7.85875 678.406 7.85875 Q681.445 7.85875 684.598 8.40852 Q687.752 8.95829 691.051 10.0578 Z" fill="#000000" fill-rule="nonzero" fill-opacity="1" /><path clip-path="url(#clip550)" d="M708.615 13.4432 L708.615 29.6758 L715.964 29.6758 Q720.044 29.6758 722.272 27.5635 Q724.5 25.4513 724.5 21.545 Q724.5 17.6677 722.272 15.5555 Q720.044 13.4432 715.964 13.4432 L708.615 13.4432 M702.77 8.64 L715.964 8.64 Q723.227 8.64 726.93 11.9386 Q730.663 15.2083 730.663 21.545 Q730.663 27.9397 726.93 31.2093 Q723.227 34.479 715.964 34.479 L708.615 34.479 L708.615 51.84 L702.77 51.84 L702.77 8.64 Z" fill="#000000" fill-rule="nonzero" fill-opacity="1" /><path clip-path="url(#clip550)" d="M731.271 8.64 L737.55 8.64 L749.529 26.4061 L761.421 8.64 L767.7 8.64 L752.422 31.2672 L752.422 51.84 L746.548 51.84 L746.548 31.2672 L731.271 8.64 Z" fill="#000000" fill-rule="nonzero" fill-opacity="1" /><path clip-path="url(#clip550)" d="M789.314 33.2348 L804.91 33.2348 L804.91 37.9801 L789.314 37.9801 L789.314 33.2348 Z" fill="#000000" fill-rule="nonzero" fill-opacity="1" /><path clip-path="url(#clip550)" d="M843.596 51.84 L827.103 8.64 L833.209 8.64 L846.895 45.0113 L860.61 8.64 L866.687 8.64 L850.223 51.84 L843.596 51.84 Z" fill="#000000" fill-rule="nonzero" fill-opacity="1" /><path clip-path="url(#clip550)" d="M872.994 8.64 L878.839 8.64 L878.839 51.84 L872.994 51.84 L872.994 8.64 Z" fill="#000000" fill-rule="nonzero" fill-opacity="1" /><path clip-path="url(#clip550)" d="M888.388 8.64 L894.667 8.64 L905.402 24.6989 L916.194 8.64 L922.473 8.64 L908.585 29.3864 L923.399 51.84 L917.12 51.84 L904.968 33.4663 L892.728 51.84 L886.42 51.84 L901.843 28.7788 L888.388 8.64 Z" fill="#000000" fill-rule="nonzero" fill-opacity="1" /><path clip-path="url(#clip550)" d="M925.193 33.2348 L940.789 33.2348 L940.789 37.9801 L925.193 37.9801 L925.193 33.2348 Z" fill="#000000" fill-rule="nonzero" fill-opacity="1" /><path clip-path="url(#clip550)" d="M972.589 20.677 L972.589 25.6538 Q970.332 24.4096 968.046 23.802 Q965.789 23.1654 963.474 23.1654 Q958.295 23.1654 955.43 26.464 Q952.566 29.7336 952.566 35.6653 Q952.566 41.597 955.43 44.8956 Q958.295 48.1653 963.474 48.1653 Q965.789 48.1653 968.046 47.5576 Q970.332 46.921 972.589 45.6768 L972.589 50.5958 Q970.361 51.6375 967.959 52.1583 Q965.587 52.6791 962.896 52.6791 Q955.575 52.6791 951.264 48.0784 Q946.952 43.4778 946.952 35.6653 Q946.952 27.7371 951.293 23.1943 Q955.662 18.6515 963.243 18.6515 Q965.702 18.6515 968.046 19.1724 Q970.39 19.6642 972.589 20.677 Z" fill="#000000" fill-rule="nonzero" fill-opacity="1" /><path clip-path="url(#clip550)" d="M994.406 23.1654 Q990.123 23.1654 987.635 26.5218 Q985.147 29.8494 985.147 35.6653 Q985.147 41.4813 987.606 44.8377 Q990.095 48.1653 994.406 48.1653 Q998.659 48.1653 1001.15 44.8088 Q1003.64 41.4523 1003.64 35.6653 Q1003.64 29.9072 1001.15 26.5508 Q998.659 23.1654 994.406 23.1654 M994.406 18.6515 Q1001.35 18.6515 1005.31 23.1654 Q1009.28 27.6792 1009.28 35.6653 Q1009.28 43.6225 1005.31 48.1653 Q1001.35 52.6791 994.406 52.6791 Q987.432 52.6791 983.468 48.1653 Q979.533 43.6225 979.533 35.6653 Q979.533 27.6792 983.468 23.1654 Q987.432 18.6515 994.406 18.6515 Z" fill="#000000" fill-rule="nonzero" fill-opacity="1" /><path clip-path="url(#clip550)" d="M1045.04 32.2799 L1045.04 51.84 L1039.72 51.84 L1039.72 32.4535 Q1039.72 27.8529 1037.92 25.567 Q1036.13 23.2811 1032.54 23.2811 Q1028.23 23.2811 1025.74 26.03 Q1023.25 28.7788 1023.25 33.5241 L1023.25 51.84 L1017.9 51.84 L1017.9 19.4328 L1023.25 19.4328 L1023.25 24.4675 Q1025.16 21.545 1027.74 20.0983 Q1030.34 18.6515 1033.73 18.6515 Q1039.31 18.6515 1042.18 22.1237 Q1045.04 25.567 1045.04 32.2799 Z" fill="#000000" fill-rule="nonzero" fill-opacity="1" /><path clip-path="url(#clip550)" d="M1076.99 24.3517 L1076.99 6.81709 L1082.31 6.81709 L1082.31 51.84 L1076.99 51.84 L1076.99 46.9789 Q1075.31 49.8724 1072.73 51.2902 Q1070.19 52.6791 1066.6 52.6791 Q1060.72 52.6791 1057.02 47.9916 Q1053.35 43.3042 1053.35 35.6653 Q1053.35 28.0265 1057.02 23.339 Q1060.72 18.6515 1066.6 18.6515 Q1070.19 18.6515 1072.73 20.0693 Q1075.31 21.4582 1076.99 24.3517 M1058.84 35.6653 Q1058.84 41.5391 1061.25 44.8956 Q1063.68 48.2231 1067.9 48.2231 Q1072.13 48.2231 1074.56 44.8956 Q1076.99 41.5391 1076.99 35.6653 Q1076.99 29.7915 1074.56 26.464 Q1072.13 23.1075 1067.9 23.1075 Q1063.68 23.1075 1061.25 26.464 Q1058.84 29.7915 1058.84 35.6653 Z" fill="#000000" fill-rule="nonzero" fill-opacity="1" /><path clip-path="url(#clip550)" d="M1094.03 44.4905 L1100.13 44.4905 L1100.13 51.84 L1094.03 51.84 L1094.03 44.4905 Z" fill="#000000" fill-rule="nonzero" fill-opacity="1" /><path clip-path="url(#clip550)" d="M1163.53 11.9675 L1163.53 18.1307 Q1160.58 15.3819 1157.22 14.0219 Q1153.9 12.662 1150.13 12.662 Q1142.73 12.662 1138.79 17.2048 Q1134.86 21.7186 1134.86 30.2834 Q1134.86 38.8192 1138.79 43.362 Q1142.73 47.8759 1150.13 47.8759 Q1153.9 47.8759 1157.22 46.516 Q1160.58 45.156 1163.53 42.4072 L1163.53 48.5125 Q1160.46 50.5958 1157.02 51.6375 Q1153.61 52.6791 1149.79 52.6791 Q1139.98 52.6791 1134.34 46.6896 Q1128.69 40.6711 1128.69 30.2834 Q1128.69 19.8668 1134.34 13.8772 Q1139.98 7.85875 1149.79 7.85875 Q1153.66 7.85875 1157.08 8.90042 Q1160.52 9.91314 1163.53 11.9675 Z" fill="#000000" fill-rule="nonzero" fill-opacity="1" /><path clip-path="url(#clip550)" d="M1172.56 8.64 L1178.4 8.64 L1178.4 26.3482 L1199.64 26.3482 L1199.64 8.64 L1205.49 8.64 L1205.49 51.84 L1199.64 51.84 L1199.64 31.2672 L1178.4 31.2672 L1178.4 51.84 L1172.56 51.84 L1172.56 8.64 Z" fill="#000000" fill-rule="nonzero" fill-opacity="1" /><path clip-path="url(#clip550)" d="M1217.12 8.64 L1225.83 8.64 L1236.85 38.038 L1247.93 8.64 L1256.64 8.64 L1256.64 51.84 L1250.94 51.84 L1250.94 13.9062 L1239.8 43.5356 L1233.93 43.5356 L1222.79 13.9062 L1222.79 51.84 L1217.12 51.84 L1217.12 8.64 Z" fill="#000000" fill-rule="nonzero" fill-opacity="1" /><path clip-path="url(#clip550)" d="M1268.25 8.64 L1276.96 8.64 L1287.98 38.038 L1299.06 8.64 L1307.77 8.64 L1307.77 51.84 L1302.07 51.84 L1302.07 13.9062 L1290.93 43.5356 L1285.06 43.5356 L1273.92 13.9062 L1273.92 51.84 L1268.25 51.84 L1268.25 8.64 Z" fill="#000000" fill-rule="nonzero" fill-opacity="1" /><path clip-path="url(#clip550)" d="M1316.45 33.2348 L1332.05 33.2348 L1332.05 37.9801 L1316.45 37.9801 L1316.45 33.2348 Z" fill="#000000" fill-rule="nonzero" fill-opacity="1" /><path clip-path="url(#clip550)" d="M1340.76 8.64 L1346.6 8.64 L1346.6 46.921 L1367.64 46.921 L1367.64 51.84 L1340.76 51.84 L1340.76 8.64 Z" fill="#000000" fill-rule="nonzero" fill-opacity="1" /><path clip-path="url(#clip550)" d="M1397.64 10.2314 L1397.64 19.4328 L1408.61 19.4328 L1408.61 23.5705 L1397.64 23.5705 L1397.64 41.163 Q1397.64 45.1271 1398.71 46.2555 Q1399.81 47.384 1403.14 47.384 L1408.61 47.384 L1408.61 51.84 L1403.14 51.84 Q1396.98 51.84 1394.64 49.5541 Q1392.29 47.2393 1392.29 41.163 L1392.29 23.5705 L1388.39 23.5705 L1388.39 19.4328 L1392.29 19.4328 L1392.29 10.2314 L1397.64 10.2314 Z" fill="#000000" fill-rule="nonzero" fill-opacity="1" /><path clip-path="url(#clip550)" d="M1443.33 34.3054 L1443.33 36.9095 L1418.85 36.9095 Q1419.2 42.4072 1422.15 45.3007 Q1425.13 48.1653 1430.43 48.1653 Q1433.49 48.1653 1436.36 47.4129 Q1439.25 46.6606 1442.09 45.156 L1442.09 50.1907 Q1439.22 51.406 1436.21 52.0425 Q1433.21 52.6791 1430.11 52.6791 Q1422.35 52.6791 1417.81 48.1653 Q1413.3 43.6514 1413.3 35.9547 Q1413.3 27.9975 1417.58 23.339 Q1421.89 18.6515 1429.18 18.6515 Q1435.72 18.6515 1439.51 22.876 Q1443.33 27.0716 1443.33 34.3054 M1438.01 32.7429 Q1437.95 28.3737 1435.55 25.7695 Q1433.18 23.1654 1429.24 23.1654 Q1424.79 23.1654 1422.09 25.6827 Q1419.43 28.2001 1419.03 32.7718 L1438.01 32.7429 Z" fill="#000000" fill-rule="nonzero" fill-opacity="1" /><path clip-path="url(#clip550)" d="M1470.85 24.4096 Q1469.95 23.8888 1468.88 23.6573 Q1467.84 23.3969 1466.57 23.3969 Q1462.05 23.3969 1459.62 26.3482 Q1457.22 29.2707 1457.22 34.7683 L1457.22 51.84 L1451.87 51.84 L1451.87 19.4328 L1457.22 19.4328 L1457.22 24.4675 Q1458.9 21.5161 1461.59 20.0983 Q1464.28 18.6515 1468.13 18.6515 Q1468.68 18.6515 1469.35 18.7383 Q1470.01 18.7962 1470.82 18.9409 L1470.85 24.4096 Z" fill="#000000" fill-rule="nonzero" fill-opacity="1" /><path clip-path="url(#clip550)" d="M1500.62 25.6538 Q1502.62 22.0659 1505.4 20.3587 Q1508.18 18.6515 1511.94 18.6515 Q1517 18.6515 1519.75 22.2105 Q1522.5 25.7406 1522.5 32.2799 L1522.5 51.84 L1517.15 51.84 L1517.15 32.4535 Q1517.15 27.795 1515.5 25.5381 Q1513.85 23.2811 1510.46 23.2811 Q1506.32 23.2811 1503.92 26.03 Q1501.52 28.7788 1501.52 33.5241 L1501.52 51.84 L1496.17 51.84 L1496.17 32.4535 Q1496.17 27.7661 1494.52 25.5381 Q1492.87 23.2811 1489.43 23.2811 Q1485.35 23.2811 1482.94 26.0589 Q1480.54 28.8077 1480.54 33.5241 L1480.54 51.84 L1475.19 51.84 L1475.19 19.4328 L1480.54 19.4328 L1480.54 24.4675 Q1482.37 21.4872 1484.91 20.0693 Q1487.46 18.6515 1490.96 18.6515 Q1494.49 18.6515 1496.95 20.4455 Q1499.44 22.2395 1500.62 25.6538 Z" fill="#000000" fill-rule="nonzero" fill-opacity="1" /><path clip-path="url(#clip550)" d="M1533.12 19.4328 L1538.44 19.4328 L1538.44 51.84 L1533.12 51.84 L1533.12 19.4328 M1533.12 6.81709 L1538.44 6.81709 L1538.44 13.559 L1533.12 13.559 L1533.12 6.81709 Z" fill="#000000" fill-rule="nonzero" fill-opacity="1" /><path clip-path="url(#clip550)" d="M1576.52 32.2799 L1576.52 51.84 L1571.2 51.84 L1571.2 32.4535 Q1571.2 27.8529 1569.4 25.567 Q1567.61 23.2811 1564.02 23.2811 Q1559.71 23.2811 1557.22 26.03 Q1554.73 28.7788 1554.73 33.5241 L1554.73 51.84 L1549.38 51.84 L1549.38 19.4328 L1554.73 19.4328 L1554.73 24.4675 Q1556.64 21.545 1559.22 20.0983 Q1561.82 18.6515 1565.21 18.6515 Q1570.79 18.6515 1573.66 22.1237 Q1576.52 25.567 1576.52 32.2799 Z" fill="#000000" fill-rule="nonzero" fill-opacity="1" /><path clip-path="url(#clip550)" d="M1601.87 35.5496 Q1595.42 35.5496 1592.93 37.0253 Q1590.44 38.501 1590.44 42.06 Q1590.44 44.8956 1592.29 46.5738 Q1594.17 48.2231 1597.38 48.2231 Q1601.81 48.2231 1604.47 45.0981 Q1607.16 41.9442 1607.16 36.7359 L1607.16 35.5496 L1601.87 35.5496 M1612.49 33.3505 L1612.49 51.84 L1607.16 51.84 L1607.16 46.921 Q1605.34 49.8724 1602.62 51.2902 Q1599.9 52.6791 1595.97 52.6791 Q1590.99 52.6791 1588.04 49.9014 Q1585.11 47.0947 1585.11 42.4072 Q1585.11 36.9385 1588.76 34.1607 Q1592.44 31.3829 1599.7 31.3829 L1607.16 31.3829 L1607.16 30.8621 Q1607.16 27.1874 1604.73 25.1908 Q1602.33 23.1654 1597.96 23.1654 Q1595.18 23.1654 1592.55 23.8309 Q1589.92 24.4964 1587.49 25.8274 L1587.49 20.9085 Q1590.41 19.78 1593.16 19.2302 Q1595.91 18.6515 1598.51 18.6515 Q1605.54 18.6515 1609.01 22.2973 Q1612.49 25.9431 1612.49 33.3505 Z" fill="#000000" fill-rule="nonzero" fill-opacity="1" /><path clip-path="url(#clip550)" d="M1623.45 6.81709 L1628.78 6.81709 L1628.78 51.84 L1623.45 51.84 L1623.45 6.81709 Z" fill="#000000" fill-rule="nonzero" fill-opacity="1" /><path clip-path="url(#clip550)" d="M1671.54 6.87496 Q1667.67 13.53 1665.79 20.0404 Q1663.9 26.5508 1663.9 33.2348 Q1663.9 39.9188 1665.79 46.487 Q1667.7 53.0263 1671.54 59.6525 L1666.91 59.6525 Q1662.57 52.8527 1660.4 46.2845 Q1658.26 39.7162 1658.26 33.2348 Q1658.26 26.7823 1660.4 20.2429 Q1662.54 13.7036 1666.91 6.87496 L1671.54 6.87496 Z" fill="#000000" fill-rule="nonzero" fill-opacity="1" /><path clip-path="url(#clip550)" d="M1708.81 32.2799 L1708.81 51.84 L1703.49 51.84 L1703.49 32.4535 Q1703.49 27.8529 1701.69 25.567 Q1699.9 23.2811 1696.31 23.2811 Q1692 23.2811 1689.51 26.03 Q1687.02 28.7788 1687.02 33.5241 L1687.02 51.84 L1681.67 51.84 L1681.67 19.4328 L1687.02 19.4328 L1687.02 24.4675 Q1688.93 21.545 1691.51 20.0983 Q1694.11 18.6515 1697.5 18.6515 Q1703.08 18.6515 1705.95 22.1237 Q1708.81 25.567 1708.81 32.2799 Z" fill="#000000" fill-rule="nonzero" fill-opacity="1" /><path clip-path="url(#clip550)" d="M1720.13 24.9304 L1757.22 24.9304 L1757.22 29.7915 L1720.13 29.7915 L1720.13 24.9304 M1720.13 36.7359 L1757.22 36.7359 L1757.22 41.6549 L1720.13 41.6549 L1720.13 36.7359 Z" fill="#000000" fill-rule="nonzero" fill-opacity="1" /><path clip-path="url(#clip550)" d="M1769.89 8.64 L1792.84 8.64 L1792.84 13.559 L1775.25 13.559 L1775.25 24.1492 Q1776.52 23.7152 1777.79 23.5126 Q1779.07 23.2811 1780.34 23.2811 Q1787.57 23.2811 1791.8 27.2452 Q1796.02 31.2093 1796.02 37.9801 Q1796.02 44.9535 1791.68 48.8308 Q1787.34 52.6791 1779.44 52.6791 Q1776.72 52.6791 1773.89 52.2162 Q1771.08 51.7532 1768.07 50.8273 L1768.07 44.9535 Q1770.67 46.3713 1773.45 47.0657 Q1776.23 47.7602 1779.33 47.7602 Q1784.33 47.7602 1787.25 45.1271 Q1790.18 42.494 1790.18 37.9801 Q1790.18 33.4663 1787.25 30.8332 Q1784.33 28.2001 1779.33 28.2001 Q1776.98 28.2001 1774.64 28.7209 Q1772.32 29.2417 1769.89 30.3413 L1769.89 8.64 Z" fill="#000000" fill-rule="nonzero" fill-opacity="1" /><path clip-path="url(#clip550)" d="M1820.04 12.4884 Q1815.52 12.4884 1813.24 16.9444 Q1810.98 21.3714 1810.98 30.2834 Q1810.98 39.1665 1813.24 43.6225 Q1815.52 48.0495 1820.04 48.0495 Q1824.58 48.0495 1826.84 43.6225 Q1829.12 39.1665 1829.12 30.2834 Q1829.12 21.3714 1826.84 16.9444 Q1824.58 12.4884 1820.04 12.4884 M1820.04 7.85875 Q1827.3 7.85875 1831.12 13.6168 Q1834.97 19.346 1834.97 30.2834 Q1834.97 41.1919 1831.12 46.95 Q1827.3 52.6791 1820.04 52.6791 Q1812.78 52.6791 1808.93 46.95 Q1805.11 41.1919 1805.11 30.2834 Q1805.11 19.346 1808.93 13.6168 Q1812.78 7.85875 1820.04 7.85875 Z" fill="#000000" fill-rule="nonzero" fill-opacity="1" /><path clip-path="url(#clip550)" d="M1857.74 12.4884 Q1853.23 12.4884 1850.94 16.9444 Q1848.68 21.3714 1848.68 30.2834 Q1848.68 39.1665 1850.94 43.6225 Q1853.23 48.0495 1857.74 48.0495 Q1862.28 48.0495 1864.54 43.6225 Q1866.83 39.1665 1866.83 30.2834 Q1866.83 21.3714 1864.54 16.9444 Q1862.28 12.4884 1857.74 12.4884 M1857.74 7.85875 Q1865 7.85875 1868.82 13.6168 Q1872.67 19.346 1872.67 30.2834 Q1872.67 41.1919 1868.82 46.95 Q1865 52.6791 1857.74 52.6791 Q1850.48 52.6791 1846.63 46.95 Q1842.81 41.1919 1842.81 30.2834 Q1842.81 19.346 1846.63 13.6168 Q1850.48 7.85875 1857.74 7.85875 Z" fill="#000000" fill-rule="nonzero" fill-opacity="1" /><path clip-path="url(#clip550)" d="M1881.35 6.87496 L1885.98 6.87496 Q1890.32 13.7036 1892.46 20.2429 Q1894.63 26.7823 1894.63 33.2348 Q1894.63 39.7162 1892.46 46.2845 Q1890.32 52.8527 1885.98 59.6525 L1881.35 59.6525 Q1885.2 53.0263 1887.08 46.487 Q1888.99 39.9188 1888.99 33.2348 Q1888.99 26.5508 1887.08 20.0404 Q1885.2 13.53 1881.35 6.87496 Z" fill="#000000" fill-rule="nonzero" fill-opacity="1" /><path clip-path="url(#clip552)" d="M323.245 1391.82 L323.245 1423.18 L376.339 1423.18 L376.339 1391.82 L323.245 1391.82 L323.245 1391.82  Z" fill="#2e8b57" fill-rule="evenodd" fill-opacity="0.6"/>
<polyline clip-path="url(#clip552)" style="stroke:#000000; stroke-linecap:round; stroke-linejoin:round; stroke-width:4; stroke-opacity:1; fill:none" points="323.245,1391.82 323.245,1423.18 376.339,1423.18 376.339,1391.82 323.245,1391.82 "/>
<path clip-path="url(#clip552)" d="M376.339 1391.82 L376.339 1423.18 L429.433 1423.18 L429.433 1391.82 L376.339 1391.82 L376.339 1391.82  Z" fill="#2e8b57" fill-rule="evenodd" fill-opacity="0.6"/>
<polyline clip-path="url(#clip552)" style="stroke:#000000; stroke-linecap:round; stroke-linejoin:round; stroke-width:4; stroke-opacity:1; fill:none" points="376.339,1391.82 376.339,1423.18 429.433,1423.18 429.433,1391.82 376.339,1391.82 "/>
<path clip-path="url(#clip552)" d="M429.433 1423.18 L429.433 1423.18 L482.527 1423.18 L482.527 1423.18 L429.433 1423.18 L429.433 1423.18  Z" fill="#2e8b57" fill-rule="evenodd" fill-opacity="0.6"/>
<polyline clip-path="url(#clip552)" style="stroke:#000000; stroke-linecap:round; stroke-linejoin:round; stroke-width:4; stroke-opacity:1; fill:none" points="429.433,1423.18 429.433,1423.18 482.527,1423.18 429.433,1423.18 "/>
<path clip-path="url(#clip552)" d="M482.527 1235.04 L482.527 1423.18 L535.621 1423.18 L535.621 1235.04 L482.527 1235.04 L482.527 1235.04  Z" fill="#2e8b57" fill-rule="evenodd" fill-opacity="0.6"/>
<polyline clip-path="url(#clip552)" style="stroke:#000000; stroke-linecap:round; stroke-linejoin:round; stroke-width:4; stroke-opacity:1; fill:none" points="482.527,1235.04 482.527,1423.18 535.621,1423.18 535.621,1235.04 482.527,1235.04 "/>
<path clip-path="url(#clip552)" d="M535.621 1360.47 L535.621 1423.18 L588.715 1423.18 L588.715 1360.47 L535.621 1360.47 L535.621 1360.47  Z" fill="#2e8b57" fill-rule="evenodd" fill-opacity="0.6"/>
<polyline clip-path="url(#clip552)" style="stroke:#000000; stroke-linecap:round; stroke-linejoin:round; stroke-width:4; stroke-opacity:1; fill:none" points="535.621,1360.47 535.621,1423.18 588.715,1423.18 588.715,1360.47 535.621,1360.47 "/>
<path clip-path="url(#clip552)" d="M588.715 1015.54 L588.715 1423.18 L641.809 1423.18 L641.809 1015.54 L588.715 1015.54 L588.715 1015.54  Z" fill="#2e8b57" fill-rule="evenodd" fill-opacity="0.6"/>
<polyline clip-path="url(#clip552)" style="stroke:#000000; stroke-linecap:round; stroke-linejoin:round; stroke-width:4; stroke-opacity:1; fill:none" points="588.715,1015.54 588.715,1423.18 641.809,1423.18 641.809,1015.54 588.715,1015.54 "/>
<path clip-path="url(#clip552)" d="M641.809 952.827 L641.809 1423.18 L694.903 1423.18 L694.903 952.827 L641.809 952.827 L641.809 952.827  Z" fill="#2e8b57" fill-rule="evenodd" fill-opacity="0.6"/>
<polyline clip-path="url(#clip552)" style="stroke:#000000; stroke-linecap:round; stroke-linejoin:round; stroke-width:4; stroke-opacity:1; fill:none" points="641.809,952.827 641.809,1423.18 694.903,1423.18 694.903,952.827 641.809,952.827 "/>
<path clip-path="url(#clip552)" d="M694.903 827.4 L694.903 1423.18 L747.997 1423.18 L747.997 827.4 L694.903 827.4 L694.903 827.4  Z" fill="#2e8b57" fill-rule="evenodd" fill-opacity="0.6"/>
<polyline clip-path="url(#clip552)" style="stroke:#000000; stroke-linecap:round; stroke-linejoin:round; stroke-width:4; stroke-opacity:1; fill:none" points="694.903,827.4 694.903,1423.18 747.997,1423.18 747.997,827.4 694.903,827.4 "/>
<path clip-path="url(#clip552)" d="M747.997 419.761 L747.997 1423.18 L801.092 1423.18 L801.092 419.761 L747.997 419.761 L747.997 419.761  Z" fill="#2e8b57" fill-rule="evenodd" fill-opacity="0.6"/>
<polyline clip-path="url(#clip552)" style="stroke:#000000; stroke-linecap:round; stroke-linejoin:round; stroke-width:4; stroke-opacity:1; fill:none" points="747.997,419.761 747.997,1423.18 801.092,1423.18 801.092,419.761 747.997,419.761 "/>
<path clip-path="url(#clip552)" d="M801.092 576.545 L801.092 1423.18 L854.186 1423.18 L854.186 576.545 L801.092 576.545 L801.092 576.545  Z" fill="#2e8b57" fill-rule="evenodd" fill-opacity="0.6"/>
<polyline clip-path="url(#clip552)" style="stroke:#000000; stroke-linecap:round; stroke-linejoin:round; stroke-width:4; stroke-opacity:1; fill:none" points="801.092,576.545 801.092,1423.18 854.186,1423.18 854.186,576.545 801.092,576.545 "/>
<path clip-path="url(#clip552)" d="M854.186 231.62 L854.186 1423.18 L907.28 1423.18 L907.28 231.62 L854.186 231.62 L854.186 231.62  Z" fill="#2e8b57" fill-rule="evenodd" fill-opacity="0.6"/>
<polyline clip-path="url(#clip552)" style="stroke:#000000; stroke-linecap:round; stroke-linejoin:round; stroke-width:4; stroke-opacity:1; fill:none" points="854.186,231.62 854.186,1423.18 907.28,1423.18 907.28,231.62 854.186,231.62 "/>
<path clip-path="url(#clip552)" d="M907.28 419.761 L907.28 1423.18 L960.374 1423.18 L960.374 419.761 L907.28 419.761 L907.28 419.761  Z" fill="#2e8b57" fill-rule="evenodd" fill-opacity="0.6"/>
<polyline clip-path="url(#clip552)" style="stroke:#000000; stroke-linecap:round; stroke-linejoin:round; stroke-width:4; stroke-opacity:1; fill:none" points="907.28,419.761 907.28,1423.18 960.374,1423.18 960.374,419.761 907.28,419.761 "/>
<path clip-path="url(#clip552)" d="M960.374 545.188 L960.374 1423.18 L1013.47 1423.18 L1013.47 545.188 L960.374 545.188 L960.374 545.188  Z" fill="#2e8b57" fill-rule="evenodd" fill-opacity="0.6"/>
<polyline clip-path="url(#clip552)" style="stroke:#000000; stroke-linecap:round; stroke-linejoin:round; stroke-width:4; stroke-opacity:1; fill:none" points="960.374,545.188 960.374,1423.18 1013.47,1423.18 1013.47,545.188 960.374,545.188 "/>
<path clip-path="url(#clip552)" d="M1013.47 106.192 L1013.47 1423.18 L1066.56 1423.18 L1066.56 106.192 L1013.47 106.192 L1013.47 106.192  Z" fill="#2e8b57" fill-rule="evenodd" fill-opacity="0.6"/>
<polyline clip-path="url(#clip552)" style="stroke:#000000; stroke-linecap:round; stroke-linejoin:round; stroke-width:4; stroke-opacity:1; fill:none" points="1013.47,106.192 1013.47,1423.18 1066.56,1423.18 1066.56,106.192 1013.47,106.192 "/>
<path clip-path="url(#clip552)" d="M1066.56 294.333 L1066.56 1423.18 L1119.66 1423.18 L1119.66 294.333 L1066.56 294.333 L1066.56 294.333  Z" fill="#2e8b57" fill-rule="evenodd" fill-opacity="0.6"/>
<polyline clip-path="url(#clip552)" style="stroke:#000000; stroke-linecap:round; stroke-linejoin:round; stroke-width:4; stroke-opacity:1; fill:none" points="1066.56,294.333 1066.56,1423.18 1119.66,1423.18 1119.66,294.333 1066.56,294.333 "/>
<path clip-path="url(#clip552)" d="M1119.66 262.976 L1119.66 1423.18 L1172.75 1423.18 L1172.75 262.976 L1119.66 262.976 L1119.66 262.976  Z" fill="#2e8b57" fill-rule="evenodd" fill-opacity="0.6"/>
<polyline clip-path="url(#clip552)" style="stroke:#000000; stroke-linecap:round; stroke-linejoin:round; stroke-width:4; stroke-opacity:1; fill:none" points="1119.66,262.976 1119.66,1423.18 1172.75,1423.18 1172.75,262.976 1119.66,262.976 "/>
<path clip-path="url(#clip552)" d="M1172.75 545.188 L1172.75 1423.18 L1225.84 1423.18 L1225.84 545.188 L1172.75 545.188 L1172.75 545.188  Z" fill="#2e8b57" fill-rule="evenodd" fill-opacity="0.6"/>
<polyline clip-path="url(#clip552)" style="stroke:#000000; stroke-linecap:round; stroke-linejoin:round; stroke-width:4; stroke-opacity:1; fill:none" points="1172.75,545.188 1172.75,1423.18 1225.84,1423.18 1225.84,545.188 1172.75,545.188 "/>
<path clip-path="url(#clip552)" d="M1225.84 670.615 L1225.84 1423.18 L1278.94 1423.18 L1278.94 670.615 L1225.84 670.615 L1225.84 670.615  Z" fill="#2e8b57" fill-rule="evenodd" fill-opacity="0.6"/>
<polyline clip-path="url(#clip552)" style="stroke:#000000; stroke-linecap:round; stroke-linejoin:round; stroke-width:4; stroke-opacity:1; fill:none" points="1225.84,670.615 1225.84,1423.18 1278.94,1423.18 1278.94,670.615 1225.84,670.615 "/>
<path clip-path="url(#clip552)" d="M1278.94 733.329 L1278.94 1423.18 L1332.03 1423.18 L1332.03 733.329 L1278.94 733.329 L1278.94 733.329  Z" fill="#2e8b57" fill-rule="evenodd" fill-opacity="0.6"/>
<polyline clip-path="url(#clip552)" style="stroke:#000000; stroke-linecap:round; stroke-linejoin:round; stroke-width:4; stroke-opacity:1; fill:none" points="1278.94,733.329 1278.94,1423.18 1332.03,1423.18 1332.03,733.329 1278.94,733.329 "/>
<path clip-path="url(#clip552)" d="M1332.03 984.184 L1332.03 1423.18 L1385.13 1423.18 L1385.13 984.184 L1332.03 984.184 L1332.03 984.184  Z" fill="#2e8b57" fill-rule="evenodd" fill-opacity="0.6"/>
<polyline clip-path="url(#clip552)" style="stroke:#000000; stroke-linecap:round; stroke-linejoin:round; stroke-width:4; stroke-opacity:1; fill:none" points="1332.03,984.184 1332.03,1423.18 1385.13,1423.18 1385.13,984.184 1332.03,984.184 "/>
<path clip-path="url(#clip552)" d="M1385.13 890.113 L1385.13 1423.18 L1438.22 1423.18 L1438.22 890.113 L1385.13 890.113 L1385.13 890.113  Z" fill="#2e8b57" fill-rule="evenodd" fill-opacity="0.6"/>
<polyline clip-path="url(#clip552)" style="stroke:#000000; stroke-linecap:round; stroke-linejoin:round; stroke-width:4; stroke-opacity:1; fill:none" points="1385.13,890.113 1385.13,1423.18 1438.22,1423.18 1438.22,890.113 1385.13,890.113 "/>
<path clip-path="url(#clip552)" d="M1438.22 1140.97 L1438.22 1423.18 L1491.31 1423.18 L1491.31 1140.97 L1438.22 1140.97 L1438.22 1140.97  Z" fill="#2e8b57" fill-rule="evenodd" fill-opacity="0.6"/>
<polyline clip-path="url(#clip552)" style="stroke:#000000; stroke-linecap:round; stroke-linejoin:round; stroke-width:4; stroke-opacity:1; fill:none" points="1438.22,1140.97 1438.22,1423.18 1491.31,1423.18 1491.31,1140.97 1438.22,1140.97 "/>
<path clip-path="url(#clip552)" d="M1491.31 952.827 L1491.31 1423.18 L1544.41 1423.18 L1544.41 952.827 L1491.31 952.827 L1491.31 952.827  Z" fill="#2e8b57" fill-rule="evenodd" fill-opacity="0.6"/>
<polyline clip-path="url(#clip552)" style="stroke:#000000; stroke-linecap:round; stroke-linejoin:round; stroke-width:4; stroke-opacity:1; fill:none" points="1491.31,952.827 1491.31,1423.18 1544.41,1423.18 1544.41,952.827 1491.31,952.827 "/>
<path clip-path="url(#clip552)" d="M1544.41 1109.61 L1544.41 1423.18 L1597.5 1423.18 L1597.5 1109.61 L1544.41 1109.61 L1544.41 1109.61  Z" fill="#2e8b57" fill-rule="evenodd" fill-opacity="0.6"/>
<polyline clip-path="url(#clip552)" style="stroke:#000000; stroke-linecap:round; stroke-linejoin:round; stroke-width:4; stroke-opacity:1; fill:none" points="1544.41,1109.61 1544.41,1423.18 1597.5,1423.18 1597.5,1109.61 1544.41,1109.61 "/>
<path clip-path="url(#clip552)" d="M1597.5 1203.68 L1597.5 1423.18 L1650.6 1423.18 L1650.6 1203.68 L1597.5 1203.68 L1597.5 1203.68  Z" fill="#2e8b57" fill-rule="evenodd" fill-opacity="0.6"/>
<polyline clip-path="url(#clip552)" style="stroke:#000000; stroke-linecap:round; stroke-linejoin:round; stroke-width:4; stroke-opacity:1; fill:none" points="1597.5,1203.68 1597.5,1423.18 1650.6,1423.18 1650.6,1203.68 1597.5,1203.68 "/>
<path clip-path="url(#clip552)" d="M1650.6 1266.4 L1650.6 1423.18 L1703.69 1423.18 L1703.69 1266.4 L1650.6 1266.4 L1650.6 1266.4  Z" fill="#2e8b57" fill-rule="evenodd" fill-opacity="0.6"/>
<polyline clip-path="url(#clip552)" style="stroke:#000000; stroke-linecap:round; stroke-linejoin:round; stroke-width:4; stroke-opacity:1; fill:none" points="1650.6,1266.4 1650.6,1423.18 1703.69,1423.18 1703.69,1266.4 1650.6,1266.4 "/>
<path clip-path="url(#clip552)" d="M1703.69 1329.11 L1703.69 1423.18 L1756.79 1423.18 L1756.79 1329.11 L1703.69 1329.11 L1703.69 1329.11  Z" fill="#2e8b57" fill-rule="evenodd" fill-opacity="0.6"/>
<polyline clip-path="url(#clip552)" style="stroke:#000000; stroke-linecap:round; stroke-linejoin:round; stroke-width:4; stroke-opacity:1; fill:none" points="1703.69,1329.11 1703.69,1423.18 1756.79,1423.18 1756.79,1329.11 1703.69,1329.11 "/>
<path clip-path="url(#clip552)" d="M1756.79 1203.68 L1756.79 1423.18 L1809.88 1423.18 L1809.88 1203.68 L1756.79 1203.68 L1756.79 1203.68  Z" fill="#2e8b57" fill-rule="evenodd" fill-opacity="0.6"/>
<polyline clip-path="url(#clip552)" style="stroke:#000000; stroke-linecap:round; stroke-linejoin:round; stroke-width:4; stroke-opacity:1; fill:none" points="1756.79,1203.68 1756.79,1423.18 1809.88,1423.18 1809.88,1203.68 1756.79,1203.68 "/>
<path clip-path="url(#clip552)" d="M1809.88 1360.47 L1809.88 1423.18 L1862.97 1423.18 L1862.97 1360.47 L1809.88 1360.47 L1809.88 1360.47  Z" fill="#2e8b57" fill-rule="evenodd" fill-opacity="0.6"/>
<polyline clip-path="url(#clip552)" style="stroke:#000000; stroke-linecap:round; stroke-linejoin:round; stroke-width:4; stroke-opacity:1; fill:none" points="1809.88,1360.47 1809.88,1423.18 1862.97,1423.18 1862.97,1360.47 1809.88,1360.47 "/>
<path clip-path="url(#clip552)" d="M1862.97 1329.11 L1862.97 1423.18 L1916.07 1423.18 L1916.07 1329.11 L1862.97 1329.11 L1862.97 1329.11  Z" fill="#2e8b57" fill-rule="evenodd" fill-opacity="0.6"/>
<polyline clip-path="url(#clip552)" style="stroke:#000000; stroke-linecap:round; stroke-linejoin:round; stroke-width:4; stroke-opacity:1; fill:none" points="1862.97,1329.11 1862.97,1423.18 1916.07,1423.18 1916.07,1329.11 1862.97,1329.11 "/>
<path clip-path="url(#clip552)" d="M1916.07 1423.18 L1916.07 1423.18 L1969.16 1423.18 L1969.16 1423.18 L1916.07 1423.18 L1916.07 1423.18  Z" fill="#2e8b57" fill-rule="evenodd" fill-opacity="0.6"/>
<polyline clip-path="url(#clip552)" style="stroke:#000000; stroke-linecap:round; stroke-linejoin:round; stroke-width:4; stroke-opacity:1; fill:none" points="1916.07,1423.18 1916.07,1423.18 1969.16,1423.18 1916.07,1423.18 "/>
<path clip-path="url(#clip552)" d="M1969.16 1360.47 L1969.16 1423.18 L2022.26 1423.18 L2022.26 1360.47 L1969.16 1360.47 L1969.16 1360.47  Z" fill="#2e8b57" fill-rule="evenodd" fill-opacity="0.6"/>
<polyline clip-path="url(#clip552)" style="stroke:#000000; stroke-linecap:round; stroke-linejoin:round; stroke-width:4; stroke-opacity:1; fill:none" points="1969.16,1360.47 1969.16,1423.18 2022.26,1423.18 2022.26,1360.47 1969.16,1360.47 "/>
<path clip-path="url(#clip552)" d="M2022.26 1423.18 L2022.26 1423.18 L2075.35 1423.18 L2075.35 1423.18 L2022.26 1423.18 L2022.26 1423.18  Z" fill="#2e8b57" fill-rule="evenodd" fill-opacity="0.6"/>
<polyline clip-path="url(#clip552)" style="stroke:#000000; stroke-linecap:round; stroke-linejoin:round; stroke-width:4; stroke-opacity:1; fill:none" points="2022.26,1423.18 2022.26,1423.18 2075.35,1423.18 2022.26,1423.18 "/>
<path clip-path="url(#clip552)" d="M2075.35 1391.82 L2075.35 1423.18 L2128.44 1423.18 L2128.44 1391.82 L2075.35 1391.82 L2075.35 1391.82  Z" fill="#2e8b57" fill-rule="evenodd" fill-opacity="0.6"/>
<polyline clip-path="url(#clip552)" style="stroke:#000000; stroke-linecap:round; stroke-linejoin:round; stroke-width:4; stroke-opacity:1; fill:none" points="2075.35,1391.82 2075.35,1423.18 2128.44,1423.18 2128.44,1391.82 2075.35,1391.82 "/>
<path clip-path="url(#clip552)" d="M2128.44 1391.82 L2128.44 1423.18 L2181.54 1423.18 L2181.54 1391.82 L2128.44 1391.82 L2128.44 1391.82  Z" fill="#2e8b57" fill-rule="evenodd" fill-opacity="0.6"/>
<polyline clip-path="url(#clip552)" style="stroke:#000000; stroke-linecap:round; stroke-linejoin:round; stroke-width:4; stroke-opacity:1; fill:none" points="2128.44,1391.82 2128.44,1423.18 2181.54,1423.18 2181.54,1391.82 2128.44,1391.82 "/>
<path clip-path="url(#clip552)" d="M2181.54 1391.82 L2181.54 1423.18 L2234.63 1423.18 L2234.63 1391.82 L2181.54 1391.82 L2181.54 1391.82  Z" fill="#2e8b57" fill-rule="evenodd" fill-opacity="0.6"/>
<polyline clip-path="url(#clip552)" style="stroke:#000000; stroke-linecap:round; stroke-linejoin:round; stroke-width:4; stroke-opacity:1; fill:none" points="2181.54,1391.82 2181.54,1423.18 2234.63,1423.18 2234.63,1391.82 2181.54,1391.82 "/>
<circle clip-path="url(#clip552)" style="fill:#2e8b57; stroke:none; fill-opacity:0" cx="349.792" cy="1391.82" r="2"/>
<circle clip-path="url(#clip552)" style="fill:#2e8b57; stroke:none; fill-opacity:0" cx="402.886" cy="1391.82" r="2"/>
<circle clip-path="url(#clip552)" style="fill:#2e8b57; stroke:none; fill-opacity:0" cx="455.98" cy="1423.18" r="2"/>
<circle clip-path="url(#clip552)" style="fill:#2e8b57; stroke:none; fill-opacity:0" cx="509.074" cy="1235.04" r="2"/>
<circle clip-path="url(#clip552)" style="fill:#2e8b57; stroke:none; fill-opacity:0" cx="562.168" cy="1360.47" r="2"/>
<circle clip-path="url(#clip552)" style="fill:#2e8b57; stroke:none; fill-opacity:0" cx="615.262" cy="1015.54" r="2"/>
<circle clip-path="url(#clip552)" style="fill:#2e8b57; stroke:none; fill-opacity:0" cx="668.356" cy="952.827" r="2"/>
<circle clip-path="url(#clip552)" style="fill:#2e8b57; stroke:none; fill-opacity:0" cx="721.45" cy="827.4" r="2"/>
<circle clip-path="url(#clip552)" style="fill:#2e8b57; stroke:none; fill-opacity:0" cx="774.545" cy="419.761" r="2"/>
<circle clip-path="url(#clip552)" style="fill:#2e8b57; stroke:none; fill-opacity:0" cx="827.639" cy="576.545" r="2"/>
<circle clip-path="url(#clip552)" style="fill:#2e8b57; stroke:none; fill-opacity:0" cx="880.733" cy="231.62" r="2"/>
<circle clip-path="url(#clip552)" style="fill:#2e8b57; stroke:none; fill-opacity:0" cx="933.827" cy="419.761" r="2"/>
<circle clip-path="url(#clip552)" style="fill:#2e8b57; stroke:none; fill-opacity:0" cx="986.921" cy="545.188" r="2"/>
<circle clip-path="url(#clip552)" style="fill:#2e8b57; stroke:none; fill-opacity:0" cx="1040.02" cy="106.192" r="2"/>
<circle clip-path="url(#clip552)" style="fill:#2e8b57; stroke:none; fill-opacity:0" cx="1093.11" cy="294.333" r="2"/>
<circle clip-path="url(#clip552)" style="fill:#2e8b57; stroke:none; fill-opacity:0" cx="1146.2" cy="262.976" r="2"/>
<circle clip-path="url(#clip552)" style="fill:#2e8b57; stroke:none; fill-opacity:0" cx="1199.3" cy="545.188" r="2"/>
<circle clip-path="url(#clip552)" style="fill:#2e8b57; stroke:none; fill-opacity:0" cx="1252.39" cy="670.615" r="2"/>
<circle clip-path="url(#clip552)" style="fill:#2e8b57; stroke:none; fill-opacity:0" cx="1305.49" cy="733.329" r="2"/>
<circle clip-path="url(#clip552)" style="fill:#2e8b57; stroke:none; fill-opacity:0" cx="1358.58" cy="984.184" r="2"/>
<circle clip-path="url(#clip552)" style="fill:#2e8b57; stroke:none; fill-opacity:0" cx="1411.67" cy="890.113" r="2"/>
<circle clip-path="url(#clip552)" style="fill:#2e8b57; stroke:none; fill-opacity:0" cx="1464.77" cy="1140.97" r="2"/>
<circle clip-path="url(#clip552)" style="fill:#2e8b57; stroke:none; fill-opacity:0" cx="1517.86" cy="952.827" r="2"/>
<circle clip-path="url(#clip552)" style="fill:#2e8b57; stroke:none; fill-opacity:0" cx="1570.96" cy="1109.61" r="2"/>
<circle clip-path="url(#clip552)" style="fill:#2e8b57; stroke:none; fill-opacity:0" cx="1624.05" cy="1203.68" r="2"/>
<circle clip-path="url(#clip552)" style="fill:#2e8b57; stroke:none; fill-opacity:0" cx="1677.14" cy="1266.4" r="2"/>
<circle clip-path="url(#clip552)" style="fill:#2e8b57; stroke:none; fill-opacity:0" cx="1730.24" cy="1329.11" r="2"/>
<circle clip-path="url(#clip552)" style="fill:#2e8b57; stroke:none; fill-opacity:0" cx="1783.33" cy="1203.68" r="2"/>
<circle clip-path="url(#clip552)" style="fill:#2e8b57; stroke:none; fill-opacity:0" cx="1836.43" cy="1360.47" r="2"/>
<circle clip-path="url(#clip552)" style="fill:#2e8b57; stroke:none; fill-opacity:0" cx="1889.52" cy="1329.11" r="2"/>
<circle clip-path="url(#clip552)" style="fill:#2e8b57; stroke:none; fill-opacity:0" cx="1942.61" cy="1423.18" r="2"/>
<circle clip-path="url(#clip552)" style="fill:#2e8b57; stroke:none; fill-opacity:0" cx="1995.71" cy="1360.47" r="2"/>
<circle clip-path="url(#clip552)" style="fill:#2e8b57; stroke:none; fill-opacity:0" cx="2048.8" cy="1423.18" r="2"/>
<circle clip-path="url(#clip552)" style="fill:#2e8b57; stroke:none; fill-opacity:0" cx="2101.9" cy="1391.82" r="2"/>
<circle clip-path="url(#clip552)" style="fill:#2e8b57; stroke:none; fill-opacity:0" cx="2154.99" cy="1391.82" r="2"/>
<circle clip-path="url(#clip552)" style="fill:#2e8b57; stroke:none; fill-opacity:0" cx="2208.09" cy="1391.82" r="2"/>
<polyline clip-path="url(#clip552)" style="stroke:#ff0000; stroke-linecap:round; stroke-linejoin:round; stroke-width:8; stroke-opacity:1; fill:none" points="1571.31,2740.17 1571.31,-1210.8 "/>
<polyline clip-path="url(#clip552)" style="stroke:#006400; stroke-linecap:round; stroke-linejoin:round; stroke-width:8; stroke-opacity:1; fill:none" stroke-dasharray="32, 20" points="1060.5,2740.17 1060.5,-1210.8 "/>
<path clip-path="url(#clip550)" d="M1632.33 357.452 L2281.17 357.452 L2281.17 150.092 L1632.33 150.092  Z" fill="#ffffff" fill-rule="evenodd" fill-opacity="1"/>
<polyline clip-path="url(#clip550)" style="stroke:#000000; stroke-linecap:round; stroke-linejoin:round; stroke-width:4; stroke-opacity:1; fill:none" points="1632.33,357.452 2281.17,357.452 2281.17,150.092 1632.33,150.092 1632.33,357.452 "/>
<path clip-path="url(#clip550)" d="M1656.2 222.668 L1799.37 222.668 L1799.37 181.196 L1656.2 181.196 L1656.2 222.668  Z" fill="#2e8b57" fill-rule="evenodd" fill-opacity="0.6"/>
<polyline clip-path="url(#clip550)" style="stroke:#000000; stroke-linecap:round; stroke-linejoin:round; stroke-width:4; stroke-opacity:1; fill:none" points="1656.2,222.668 1799.37,222.668 1799.37,181.196 1656.2,181.196 1656.2,222.668 "/>
<path clip-path="url(#clip550)" d="M1845.48 185.786 L1845.48 190.346 Q1842.82 189.073 1840.46 188.448 Q1838.09 187.823 1835.9 187.823 Q1832.08 187.823 1829.99 189.304 Q1827.93 190.786 1827.93 193.517 Q1827.93 195.809 1829.3 196.99 Q1830.69 198.147 1834.53 198.865 L1837.35 199.443 Q1842.59 200.439 1845.06 202.962 Q1847.56 205.462 1847.56 209.675 Q1847.56 214.698 1844.18 217.29 Q1840.83 219.883 1834.32 219.883 Q1831.87 219.883 1829.09 219.327 Q1826.34 218.772 1823.37 217.684 L1823.37 212.869 Q1826.22 214.466 1828.95 215.277 Q1831.68 216.087 1834.32 216.087 Q1838.33 216.087 1840.5 214.513 Q1842.68 212.939 1842.68 210.022 Q1842.68 207.476 1841.1 206.04 Q1839.55 204.605 1835.99 203.888 L1833.14 203.332 Q1827.91 202.291 1825.57 200.068 Q1823.23 197.846 1823.23 193.888 Q1823.23 189.304 1826.45 186.666 Q1829.69 184.027 1835.36 184.027 Q1837.79 184.027 1840.32 184.467 Q1842.84 184.906 1845.48 185.786 Z" fill="#000000" fill-rule="nonzero" fill-opacity="1" /><path clip-path="url(#clip550)" d="M1854.67 193.286 L1858.93 193.286 L1858.93 219.212 L1854.67 219.212 L1854.67 193.286 M1854.67 183.193 L1858.93 183.193 L1858.93 188.587 L1854.67 188.587 L1854.67 183.193 Z" fill="#000000" fill-rule="nonzero" fill-opacity="1" /><path clip-path="url(#clip550)" d="M1888.03 198.263 Q1889.62 195.392 1891.84 194.027 Q1894.07 192.661 1897.08 192.661 Q1901.13 192.661 1903.33 195.508 Q1905.52 198.332 1905.52 203.564 L1905.52 219.212 L1901.24 219.212 L1901.24 203.703 Q1901.24 199.976 1899.92 198.17 Q1898.6 196.365 1895.9 196.365 Q1892.59 196.365 1890.66 198.564 Q1888.74 200.763 1888.74 204.559 L1888.74 219.212 L1884.46 219.212 L1884.46 203.703 Q1884.46 199.953 1883.14 198.17 Q1881.82 196.365 1879.07 196.365 Q1875.8 196.365 1873.88 198.587 Q1871.96 200.786 1871.96 204.559 L1871.96 219.212 L1867.68 219.212 L1867.68 193.286 L1871.96 193.286 L1871.96 197.314 Q1873.42 194.929 1875.46 193.795 Q1877.49 192.661 1880.29 192.661 Q1883.12 192.661 1885.09 194.096 Q1887.08 195.531 1888.03 198.263 Z" fill="#000000" fill-rule="nonzero" fill-opacity="1" /><path clip-path="url(#clip550)" d="M1913.58 208.98 L1913.58 193.286 L1917.84 193.286 L1917.84 208.818 Q1917.84 212.499 1919.27 214.351 Q1920.71 216.179 1923.58 216.179 Q1927.03 216.179 1929.02 213.98 Q1931.03 211.781 1931.03 207.985 L1931.03 193.286 L1935.29 193.286 L1935.29 219.212 L1931.03 219.212 L1931.03 215.23 Q1929.48 217.591 1927.42 218.749 Q1925.39 219.883 1922.68 219.883 Q1918.21 219.883 1915.9 217.105 Q1913.58 214.327 1913.58 208.98 M1924.3 192.661 L1924.3 192.661 Z" fill="#000000" fill-rule="nonzero" fill-opacity="1" /><path clip-path="url(#clip550)" d="M1944.07 183.193 L1948.33 183.193 L1948.33 219.212 L1944.07 219.212 L1944.07 183.193 Z" fill="#000000" fill-rule="nonzero" fill-opacity="1" /><path clip-path="url(#clip550)" d="M1969.02 206.179 Q1963.86 206.179 1961.87 207.36 Q1959.88 208.54 1959.88 211.388 Q1959.88 213.656 1961.36 214.999 Q1962.86 216.318 1965.43 216.318 Q1968.97 216.318 1971.1 213.818 Q1973.26 211.295 1973.26 207.128 L1973.26 206.179 L1969.02 206.179 M1977.52 204.42 L1977.52 219.212 L1973.26 219.212 L1973.26 215.277 Q1971.8 217.638 1969.62 218.772 Q1967.45 219.883 1964.3 219.883 Q1960.32 219.883 1957.96 217.661 Q1955.62 215.415 1955.62 211.665 Q1955.62 207.29 1958.53 205.068 Q1961.47 202.846 1967.28 202.846 L1973.26 202.846 L1973.26 202.429 Q1973.26 199.49 1971.31 197.892 Q1969.39 196.272 1965.89 196.272 Q1963.67 196.272 1961.57 196.804 Q1959.46 197.337 1957.52 198.402 L1957.52 194.466 Q1959.85 193.564 1962.05 193.124 Q1964.25 192.661 1966.33 192.661 Q1971.96 192.661 1974.74 195.578 Q1977.52 198.494 1977.52 204.42 Z" fill="#000000" fill-rule="nonzero" fill-opacity="1" /><path clip-path="url(#clip550)" d="M1990.5 185.925 L1990.5 193.286 L1999.27 193.286 L1999.27 196.596 L1990.5 196.596 L1990.5 210.67 Q1990.5 213.841 1991.36 214.744 Q1992.24 215.647 1994.9 215.647 L1999.27 215.647 L1999.27 219.212 L1994.9 219.212 Q1989.97 219.212 1988.09 217.383 Q1986.22 215.531 1986.22 210.67 L1986.22 196.596 L1983.09 196.596 L1983.09 193.286 L1986.22 193.286 L1986.22 185.925 L1990.5 185.925 Z" fill="#000000" fill-rule="nonzero" fill-opacity="1" /><path clip-path="url(#clip550)" d="M2027.05 205.184 L2027.05 207.267 L2007.47 207.267 Q2007.75 211.665 2010.11 213.98 Q2012.49 216.272 2016.73 216.272 Q2019.18 216.272 2021.47 215.67 Q2023.79 215.068 2026.06 213.865 L2026.06 217.892 Q2023.77 218.864 2021.36 219.374 Q2018.95 219.883 2016.47 219.883 Q2010.27 219.883 2006.64 216.272 Q2003.02 212.661 2003.02 206.503 Q2003.02 200.138 2006.45 196.411 Q2009.9 192.661 2015.73 192.661 Q2020.96 192.661 2024 196.041 Q2027.05 199.397 2027.05 205.184 M2022.79 203.934 Q2022.75 200.439 2020.83 198.355 Q2018.93 196.272 2015.78 196.272 Q2012.21 196.272 2010.06 198.286 Q2007.93 200.3 2007.61 203.957 L2022.79 203.934 Z" fill="#000000" fill-rule="nonzero" fill-opacity="1" /><path clip-path="url(#clip550)" d="M2051.1 197.221 L2051.1 183.193 L2055.36 183.193 L2055.36 219.212 L2051.1 219.212 L2051.1 215.323 Q2049.76 217.638 2047.7 218.772 Q2045.66 219.883 2042.79 219.883 Q2038.09 219.883 2035.13 216.133 Q2032.19 212.383 2032.19 206.272 Q2032.19 200.161 2035.13 196.411 Q2038.09 192.661 2042.79 192.661 Q2045.66 192.661 2047.7 193.795 Q2049.76 194.906 2051.1 197.221 M2036.59 206.272 Q2036.59 210.971 2038.51 213.656 Q2040.45 216.318 2043.83 216.318 Q2047.21 216.318 2049.16 213.656 Q2051.1 210.971 2051.1 206.272 Q2051.1 201.573 2049.16 198.911 Q2047.21 196.226 2043.83 196.226 Q2040.45 196.226 2038.51 198.911 Q2036.59 201.573 2036.59 206.272 Z" fill="#000000" fill-rule="nonzero" fill-opacity="1" /><polyline clip-path="url(#clip550)" style="stroke:#ff0000; stroke-linecap:round; stroke-linejoin:round; stroke-width:8; stroke-opacity:1; fill:none" points="1656.2,253.772 1799.37,253.772 "/>
<path clip-path="url(#clip550)" d="M1839.25 239.663 Q1834.16 239.663 1831.15 243.459 Q1828.16 247.256 1828.16 253.806 Q1828.16 260.334 1831.15 264.13 Q1834.16 267.927 1839.25 267.927 Q1844.34 267.927 1847.31 264.13 Q1850.29 260.334 1850.29 253.806 Q1850.29 247.256 1847.31 243.459 Q1844.34 239.663 1839.25 239.663 M1839.25 235.867 Q1846.52 235.867 1850.87 240.751 Q1855.22 245.612 1855.22 253.806 Q1855.22 261.978 1850.87 266.862 Q1846.52 271.723 1839.25 271.723 Q1831.96 271.723 1827.59 266.862 Q1823.23 262.001 1823.23 253.806 Q1823.23 245.612 1827.59 240.751 Q1831.96 235.867 1839.25 235.867 Z" fill="#000000" fill-rule="nonzero" fill-opacity="1" /><path clip-path="url(#clip550)" d="M1880.96 258.112 Q1880.96 253.413 1879.02 250.751 Q1877.1 248.066 1873.72 248.066 Q1870.34 248.066 1868.4 250.751 Q1866.47 253.413 1866.47 258.112 Q1866.47 262.811 1868.4 265.496 Q1870.34 268.158 1873.72 268.158 Q1877.1 268.158 1879.02 265.496 Q1880.96 262.811 1880.96 258.112 M1866.47 249.061 Q1867.82 246.746 1869.85 245.635 Q1871.91 244.501 1874.76 244.501 Q1879.48 244.501 1882.42 248.251 Q1885.39 252.001 1885.39 258.112 Q1885.39 264.223 1882.42 267.973 Q1879.48 271.723 1874.76 271.723 Q1871.91 271.723 1869.85 270.612 Q1867.82 269.478 1866.47 267.163 L1866.47 271.052 L1862.19 271.052 L1862.19 235.033 L1866.47 235.033 L1866.47 249.061 Z" fill="#000000" fill-rule="nonzero" fill-opacity="1" /><path clip-path="url(#clip550)" d="M1908.97 245.89 L1908.97 249.918 Q1907.17 248.992 1905.22 248.529 Q1903.28 248.066 1901.2 248.066 Q1898.02 248.066 1896.43 249.038 Q1894.85 250.01 1894.85 251.955 Q1894.85 253.436 1895.99 254.293 Q1897.12 255.126 1900.55 255.89 L1902.01 256.214 Q1906.54 257.186 1908.44 258.968 Q1910.36 260.728 1910.36 263.899 Q1910.36 267.51 1907.49 269.617 Q1904.65 271.723 1899.65 271.723 Q1897.56 271.723 1895.29 271.306 Q1893.05 270.913 1890.55 270.103 L1890.55 265.705 Q1892.91 266.931 1895.2 267.556 Q1897.49 268.158 1899.74 268.158 Q1902.75 268.158 1904.37 267.14 Q1905.99 266.098 1905.99 264.223 Q1905.99 262.487 1904.81 261.561 Q1903.65 260.635 1899.69 259.779 L1898.21 259.431 Q1894.25 258.598 1892.49 256.885 Q1890.73 255.149 1890.73 252.14 Q1890.73 248.482 1893.33 246.492 Q1895.92 244.501 1900.69 244.501 Q1903.05 244.501 1905.13 244.848 Q1907.21 245.195 1908.97 245.89 Z" fill="#000000" fill-rule="nonzero" fill-opacity="1" /><path clip-path="url(#clip550)" d="M1939.32 257.024 L1939.32 259.107 L1919.74 259.107 Q1920.02 263.505 1922.38 265.82 Q1924.76 268.112 1929 268.112 Q1931.45 268.112 1933.74 267.51 Q1936.06 266.908 1938.33 265.705 L1938.33 269.732 Q1936.03 270.704 1933.63 271.214 Q1931.22 271.723 1928.74 271.723 Q1922.54 271.723 1918.9 268.112 Q1915.29 264.501 1915.29 258.343 Q1915.29 251.978 1918.72 248.251 Q1922.17 244.501 1928 244.501 Q1933.23 244.501 1936.27 247.881 Q1939.32 251.237 1939.32 257.024 M1935.06 255.774 Q1935.02 252.279 1933.09 250.195 Q1931.2 248.112 1928.05 248.112 Q1924.48 248.112 1922.33 250.126 Q1920.2 252.14 1919.88 255.797 L1935.06 255.774 Z" fill="#000000" fill-rule="nonzero" fill-opacity="1" /><path clip-path="url(#clip550)" d="M1961.33 249.107 Q1960.62 248.691 1959.76 248.506 Q1958.93 248.297 1957.91 248.297 Q1954.3 248.297 1952.35 250.658 Q1950.43 252.996 1950.43 257.394 L1950.43 271.052 L1946.15 271.052 L1946.15 245.126 L1950.43 245.126 L1950.43 249.154 Q1951.77 246.793 1953.93 245.658 Q1956.08 244.501 1959.16 244.501 Q1959.6 244.501 1960.13 244.57 Q1960.66 244.617 1961.31 244.732 L1961.33 249.107 Z" fill="#000000" fill-rule="nonzero" fill-opacity="1" /><path clip-path="url(#clip550)" d="M1962.75 245.126 L1967.26 245.126 L1975.36 266.885 L1983.46 245.126 L1987.98 245.126 L1978.26 271.052 L1972.47 271.052 L1962.75 245.126 Z" fill="#000000" fill-rule="nonzero" fill-opacity="1" /><path clip-path="url(#clip550)" d="M2016.03 257.024 L2016.03 259.107 L1996.45 259.107 Q1996.73 263.505 1999.09 265.82 Q2001.47 268.112 2005.71 268.112 Q2008.16 268.112 2010.45 267.51 Q2012.77 266.908 2015.04 265.705 L2015.04 269.732 Q2012.75 270.704 2010.34 271.214 Q2007.93 271.723 2005.45 271.723 Q1999.25 271.723 1995.62 268.112 Q1992.01 264.501 1992.01 258.343 Q1992.01 251.978 1995.43 248.251 Q1998.88 244.501 2004.71 244.501 Q2009.95 244.501 2012.98 247.881 Q2016.03 251.237 2016.03 257.024 M2011.77 255.774 Q2011.73 252.279 2009.81 250.195 Q2007.91 248.112 2004.76 248.112 Q2001.2 248.112 1999.04 250.126 Q1996.91 252.14 1996.59 255.797 L2011.77 255.774 Z" fill="#000000" fill-rule="nonzero" fill-opacity="1" /><path clip-path="url(#clip550)" d="M2040.08 249.061 L2040.08 235.033 L2044.34 235.033 L2044.34 271.052 L2040.08 271.052 L2040.08 267.163 Q2038.74 269.478 2036.68 270.612 Q2034.64 271.723 2031.77 271.723 Q2027.08 271.723 2024.11 267.973 Q2021.17 264.223 2021.17 258.112 Q2021.17 252.001 2024.11 248.251 Q2027.08 244.501 2031.77 244.501 Q2034.64 244.501 2036.68 245.635 Q2038.74 246.746 2040.08 249.061 M2025.57 258.112 Q2025.57 262.811 2027.49 265.496 Q2029.44 268.158 2032.82 268.158 Q2036.2 268.158 2038.14 265.496 Q2040.08 262.811 2040.08 258.112 Q2040.08 253.413 2038.14 250.751 Q2036.2 248.066 2032.82 248.066 Q2029.44 248.066 2027.49 250.751 Q2025.57 253.413 2025.57 258.112 Z" fill="#000000" fill-rule="nonzero" fill-opacity="1" /><path clip-path="url(#clip550)" d="M2072.4 237.765 L2072.4 245.126 L2081.17 245.126 L2081.17 248.436 L2072.4 248.436 L2072.4 262.51 Q2072.4 265.681 2073.26 266.584 Q2074.14 267.487 2076.8 267.487 L2081.17 267.487 L2081.17 271.052 L2076.8 271.052 Q2071.87 271.052 2069.99 269.223 Q2068.12 267.371 2068.12 262.51 L2068.12 248.436 L2064.99 248.436 L2064.99 245.126 L2068.12 245.126 L2068.12 237.765 L2072.4 237.765 Z" fill="#000000" fill-rule="nonzero" fill-opacity="1" /><path clip-path="url(#clip550)" d="M2108.95 257.024 L2108.95 259.107 L2089.37 259.107 Q2089.64 263.505 2092.01 265.82 Q2094.39 268.112 2098.63 268.112 Q2101.08 268.112 2103.37 267.51 Q2105.69 266.908 2107.95 265.705 L2107.95 269.732 Q2105.66 270.704 2103.26 271.214 Q2100.85 271.723 2098.37 271.723 Q2092.17 271.723 2088.53 268.112 Q2084.92 264.501 2084.92 258.343 Q2084.92 251.978 2088.35 248.251 Q2091.8 244.501 2097.63 244.501 Q2102.86 244.501 2105.89 247.881 Q2108.95 251.237 2108.95 257.024 M2104.69 255.774 Q2104.64 252.279 2102.72 250.195 Q2100.82 248.112 2097.68 248.112 Q2094.11 248.112 2091.96 250.126 Q2089.83 252.14 2089.51 255.797 L2104.69 255.774 Z" fill="#000000" fill-rule="nonzero" fill-opacity="1" /><path clip-path="url(#clip550)" d="M2130.96 249.107 Q2130.25 248.691 2129.39 248.506 Q2128.56 248.297 2127.54 248.297 Q2123.93 248.297 2121.98 250.658 Q2120.06 252.996 2120.06 257.394 L2120.06 271.052 L2115.78 271.052 L2115.78 245.126 L2120.06 245.126 L2120.06 249.154 Q2121.4 246.793 2123.56 245.658 Q2125.71 244.501 2128.79 244.501 Q2129.23 244.501 2129.76 244.57 Q2130.29 244.617 2130.94 244.732 L2130.96 249.107 Z" fill="#000000" fill-rule="nonzero" fill-opacity="1" /><path clip-path="url(#clip550)" d="M2154.78 250.103 Q2156.38 247.232 2158.6 245.867 Q2160.82 244.501 2163.83 244.501 Q2167.88 244.501 2170.08 247.348 Q2172.28 250.172 2172.28 255.404 L2172.28 271.052 L2168 271.052 L2168 255.543 Q2168 251.816 2166.68 250.01 Q2165.36 248.205 2162.65 248.205 Q2159.34 248.205 2157.42 250.404 Q2155.5 252.603 2155.5 256.399 L2155.5 271.052 L2151.22 271.052 L2151.22 255.543 Q2151.22 251.793 2149.9 250.01 Q2148.58 248.205 2145.82 248.205 Q2142.56 248.205 2140.64 250.427 Q2138.72 252.626 2138.72 256.399 L2138.72 271.052 L2134.44 271.052 L2134.44 245.126 L2138.72 245.126 L2138.72 249.154 Q2140.18 246.769 2142.21 245.635 Q2144.25 244.501 2147.05 244.501 Q2149.88 244.501 2151.84 245.936 Q2153.83 247.371 2154.78 250.103 Z" fill="#000000" fill-rule="nonzero" fill-opacity="1" /><path clip-path="url(#clip550)" d="M2180.78 245.126 L2185.04 245.126 L2185.04 271.052 L2180.78 271.052 L2180.78 245.126 M2180.78 235.033 L2185.04 235.033 L2185.04 240.427 L2180.78 240.427 L2180.78 235.033 Z" fill="#000000" fill-rule="nonzero" fill-opacity="1" /><path clip-path="url(#clip550)" d="M2215.5 255.404 L2215.5 271.052 L2211.24 271.052 L2211.24 255.543 Q2211.24 251.862 2209.81 250.033 Q2208.37 248.205 2205.5 248.205 Q2202.05 248.205 2200.06 250.404 Q2198.07 252.603 2198.07 256.399 L2198.07 271.052 L2193.79 271.052 L2193.79 245.126 L2198.07 245.126 L2198.07 249.154 Q2199.6 246.816 2201.66 245.658 Q2203.74 244.501 2206.45 244.501 Q2210.92 244.501 2213.21 247.279 Q2215.5 250.033 2215.5 255.404 Z" fill="#000000" fill-rule="nonzero" fill-opacity="1" /><path clip-path="url(#clip550)" d="M2235.78 258.019 Q2230.62 258.019 2228.63 259.2 Q2226.63 260.38 2226.63 263.228 Q2226.63 265.496 2228.12 266.839 Q2229.62 268.158 2232.19 268.158 Q2235.73 268.158 2237.86 265.658 Q2240.01 263.135 2240.01 258.968 L2240.01 258.019 L2235.78 258.019 M2244.27 256.26 L2244.27 271.052 L2240.01 271.052 L2240.01 267.117 Q2238.56 269.478 2236.38 270.612 Q2234.2 271.723 2231.06 271.723 Q2227.07 271.723 2224.71 269.501 Q2222.38 267.255 2222.38 263.505 Q2222.38 259.13 2225.29 256.908 Q2228.23 254.686 2234.04 254.686 L2240.01 254.686 L2240.01 254.269 Q2240.01 251.33 2238.07 249.732 Q2236.15 248.112 2232.65 248.112 Q2230.43 248.112 2228.32 248.644 Q2226.22 249.177 2224.27 250.242 L2224.27 246.306 Q2226.61 245.404 2228.81 244.964 Q2231.01 244.501 2233.09 244.501 Q2238.72 244.501 2241.5 247.418 Q2244.27 250.334 2244.27 256.26 Z" fill="#000000" fill-rule="nonzero" fill-opacity="1" /><path clip-path="url(#clip550)" d="M2253.05 235.033 L2257.31 235.033 L2257.31 271.052 L2253.05 271.052 L2253.05 235.033 Z" fill="#000000" fill-rule="nonzero" fill-opacity="1" /><polyline clip-path="url(#clip550)" style="stroke:#006400; stroke-linecap:round; stroke-linejoin:round; stroke-width:8; stroke-opacity:1; fill:none" stroke-dasharray="32, 20" points="1656.2,305.612 1799.37,305.612 "/>
<path clip-path="url(#clip550)" d="M1845.48 289.466 L1845.48 294.026 Q1842.82 292.753 1840.46 292.128 Q1838.09 291.503 1835.9 291.503 Q1832.08 291.503 1829.99 292.984 Q1827.93 294.466 1827.93 297.197 Q1827.93 299.489 1829.3 300.67 Q1830.69 301.827 1834.53 302.545 L1837.35 303.123 Q1842.59 304.119 1845.06 306.642 Q1847.56 309.142 1847.56 313.355 Q1847.56 318.378 1844.18 320.97 Q1840.83 323.563 1834.32 323.563 Q1831.87 323.563 1829.09 323.007 Q1826.34 322.452 1823.37 321.364 L1823.37 316.549 Q1826.22 318.146 1828.95 318.957 Q1831.68 319.767 1834.32 319.767 Q1838.33 319.767 1840.5 318.193 Q1842.68 316.619 1842.68 313.702 Q1842.68 311.156 1841.1 309.72 Q1839.55 308.285 1835.99 307.568 L1833.14 307.012 Q1827.91 305.971 1825.57 303.748 Q1823.23 301.526 1823.23 297.568 Q1823.23 292.984 1826.45 290.346 Q1829.69 287.707 1835.36 287.707 Q1837.79 287.707 1840.32 288.147 Q1842.84 288.586 1845.48 289.466 Z" fill="#000000" fill-rule="nonzero" fill-opacity="1" /><path clip-path="url(#clip550)" d="M1854.67 296.966 L1858.93 296.966 L1858.93 322.892 L1854.67 322.892 L1854.67 296.966 M1854.67 286.873 L1858.93 286.873 L1858.93 292.267 L1854.67 292.267 L1854.67 286.873 Z" fill="#000000" fill-rule="nonzero" fill-opacity="1" /><path clip-path="url(#clip550)" d="M1888.03 301.943 Q1889.62 299.072 1891.84 297.707 Q1894.07 296.341 1897.08 296.341 Q1901.13 296.341 1903.33 299.188 Q1905.52 302.012 1905.52 307.244 L1905.52 322.892 L1901.24 322.892 L1901.24 307.383 Q1901.24 303.656 1899.92 301.85 Q1898.6 300.045 1895.9 300.045 Q1892.59 300.045 1890.66 302.244 Q1888.74 304.443 1888.74 308.239 L1888.74 322.892 L1884.46 322.892 L1884.46 307.383 Q1884.46 303.633 1883.14 301.85 Q1881.82 300.045 1879.07 300.045 Q1875.8 300.045 1873.88 302.267 Q1871.96 304.466 1871.96 308.239 L1871.96 322.892 L1867.68 322.892 L1867.68 296.966 L1871.96 296.966 L1871.96 300.994 Q1873.42 298.609 1875.46 297.475 Q1877.49 296.341 1880.29 296.341 Q1883.12 296.341 1885.09 297.776 Q1887.08 299.211 1888.03 301.943 Z" fill="#000000" fill-rule="nonzero" fill-opacity="1" /><path clip-path="url(#clip550)" d="M1913.58 312.66 L1913.58 296.966 L1917.84 296.966 L1917.84 312.498 Q1917.84 316.179 1919.27 318.031 Q1920.71 319.859 1923.58 319.859 Q1927.03 319.859 1929.02 317.66 Q1931.03 315.461 1931.03 311.665 L1931.03 296.966 L1935.29 296.966 L1935.29 322.892 L1931.03 322.892 L1931.03 318.91 Q1929.48 321.271 1927.42 322.429 Q1925.39 323.563 1922.68 323.563 Q1918.21 323.563 1915.9 320.785 Q1913.58 318.007 1913.58 312.66 M1924.3 296.341 L1924.3 296.341 Z" fill="#000000" fill-rule="nonzero" fill-opacity="1" /><path clip-path="url(#clip550)" d="M1944.07 286.873 L1948.33 286.873 L1948.33 322.892 L1944.07 322.892 L1944.07 286.873 Z" fill="#000000" fill-rule="nonzero" fill-opacity="1" /><path clip-path="url(#clip550)" d="M1969.02 309.859 Q1963.86 309.859 1961.87 311.04 Q1959.88 312.22 1959.88 315.068 Q1959.88 317.336 1961.36 318.679 Q1962.86 319.998 1965.43 319.998 Q1968.97 319.998 1971.1 317.498 Q1973.26 314.975 1973.26 310.808 L1973.26 309.859 L1969.02 309.859 M1977.52 308.1 L1977.52 322.892 L1973.26 322.892 L1973.26 318.957 Q1971.8 321.318 1969.62 322.452 Q1967.45 323.563 1964.3 323.563 Q1960.32 323.563 1957.96 321.341 Q1955.62 319.095 1955.62 315.345 Q1955.62 310.97 1958.53 308.748 Q1961.47 306.526 1967.28 306.526 L1973.26 306.526 L1973.26 306.109 Q1973.26 303.17 1971.31 301.572 Q1969.39 299.952 1965.89 299.952 Q1963.67 299.952 1961.57 300.484 Q1959.46 301.017 1957.52 302.082 L1957.52 298.146 Q1959.85 297.244 1962.05 296.804 Q1964.25 296.341 1966.33 296.341 Q1971.96 296.341 1974.74 299.258 Q1977.52 302.174 1977.52 308.1 Z" fill="#000000" fill-rule="nonzero" fill-opacity="1" /><path clip-path="url(#clip550)" d="M1990.5 289.605 L1990.5 296.966 L1999.27 296.966 L1999.27 300.276 L1990.5 300.276 L1990.5 314.35 Q1990.5 317.521 1991.36 318.424 Q1992.24 319.327 1994.9 319.327 L1999.27 319.327 L1999.27 322.892 L1994.9 322.892 Q1989.97 322.892 1988.09 321.063 Q1986.22 319.211 1986.22 314.35 L1986.22 300.276 L1983.09 300.276 L1983.09 296.966 L1986.22 296.966 L1986.22 289.605 L1990.5 289.605 Z" fill="#000000" fill-rule="nonzero" fill-opacity="1" /><path clip-path="url(#clip550)" d="M2027.05 308.864 L2027.05 310.947 L2007.47 310.947 Q2007.75 315.345 2010.11 317.66 Q2012.49 319.952 2016.73 319.952 Q2019.18 319.952 2021.47 319.35 Q2023.79 318.748 2026.06 317.545 L2026.06 321.572 Q2023.77 322.544 2021.36 323.054 Q2018.95 323.563 2016.47 323.563 Q2010.27 323.563 2006.64 319.952 Q2003.02 316.341 2003.02 310.183 Q2003.02 303.818 2006.45 300.091 Q2009.9 296.341 2015.73 296.341 Q2020.96 296.341 2024 299.721 Q2027.05 303.077 2027.05 308.864 M2022.79 307.614 Q2022.75 304.119 2020.83 302.035 Q2018.93 299.952 2015.78 299.952 Q2012.21 299.952 2010.06 301.966 Q2007.93 303.98 2007.61 307.637 L2022.79 307.614 Z" fill="#000000" fill-rule="nonzero" fill-opacity="1" /><path clip-path="url(#clip550)" d="M2051.1 300.901 L2051.1 286.873 L2055.36 286.873 L2055.36 322.892 L2051.1 322.892 L2051.1 319.003 Q2049.76 321.318 2047.7 322.452 Q2045.66 323.563 2042.79 323.563 Q2038.09 323.563 2035.13 319.813 Q2032.19 316.063 2032.19 309.952 Q2032.19 303.841 2035.13 300.091 Q2038.09 296.341 2042.79 296.341 Q2045.66 296.341 2047.7 297.475 Q2049.76 298.586 2051.1 300.901 M2036.59 309.952 Q2036.59 314.651 2038.51 317.336 Q2040.45 319.998 2043.83 319.998 Q2047.21 319.998 2049.16 317.336 Q2051.1 314.651 2051.1 309.952 Q2051.1 305.253 2049.16 302.591 Q2047.21 299.906 2043.83 299.906 Q2040.45 299.906 2038.51 302.591 Q2036.59 305.253 2036.59 309.952 Z" fill="#000000" fill-rule="nonzero" fill-opacity="1" /><path clip-path="url(#clip550)" d="M2099.39 301.943 Q2100.99 299.072 2103.21 297.707 Q2105.43 296.341 2108.44 296.341 Q2112.49 296.341 2114.69 299.188 Q2116.89 302.012 2116.89 307.244 L2116.89 322.892 L2112.61 322.892 L2112.61 307.383 Q2112.61 303.656 2111.29 301.85 Q2109.97 300.045 2107.26 300.045 Q2103.95 300.045 2102.03 302.244 Q2100.11 304.443 2100.11 308.239 L2100.11 322.892 L2095.82 322.892 L2095.82 307.383 Q2095.82 303.633 2094.51 301.85 Q2093.19 300.045 2090.43 300.045 Q2087.17 300.045 2085.25 302.267 Q2083.32 304.466 2083.32 308.239 L2083.32 322.892 L2079.04 322.892 L2079.04 296.966 L2083.32 296.966 L2083.32 300.994 Q2084.78 298.609 2086.82 297.475 Q2088.86 296.341 2091.66 296.341 Q2094.48 296.341 2096.45 297.776 Q2098.44 299.211 2099.39 301.943 Z" fill="#000000" fill-rule="nonzero" fill-opacity="1" /><path clip-path="url(#clip550)" d="M2147.56 308.864 L2147.56 310.947 L2127.98 310.947 Q2128.26 315.345 2130.62 317.66 Q2133 319.952 2137.24 319.952 Q2139.69 319.952 2141.98 319.35 Q2144.3 318.748 2146.57 317.545 L2146.57 321.572 Q2144.27 322.544 2141.87 323.054 Q2139.46 323.563 2136.98 323.563 Q2130.78 323.563 2127.14 319.952 Q2123.53 316.341 2123.53 310.183 Q2123.53 303.818 2126.96 300.091 Q2130.41 296.341 2136.24 296.341 Q2141.47 296.341 2144.51 299.721 Q2147.56 303.077 2147.56 308.864 M2143.3 307.614 Q2143.26 304.119 2141.33 302.035 Q2139.44 299.952 2136.29 299.952 Q2132.72 299.952 2130.57 301.966 Q2128.44 303.98 2128.12 307.637 L2143.3 307.614 Z" fill="#000000" fill-rule="nonzero" fill-opacity="1" /><path clip-path="url(#clip550)" d="M2171.61 300.901 L2171.61 286.873 L2175.87 286.873 L2175.87 322.892 L2171.61 322.892 L2171.61 319.003 Q2170.27 321.318 2168.21 322.452 Q2166.17 323.563 2163.3 323.563 Q2158.6 323.563 2155.64 319.813 Q2152.7 316.063 2152.7 309.952 Q2152.7 303.841 2155.64 300.091 Q2158.6 296.341 2163.3 296.341 Q2166.17 296.341 2168.21 297.475 Q2170.27 298.586 2171.61 300.901 M2157.1 309.952 Q2157.1 314.651 2159.02 317.336 Q2160.96 319.998 2164.34 319.998 Q2167.72 319.998 2169.67 317.336 Q2171.61 314.651 2171.61 309.952 Q2171.61 305.253 2169.67 302.591 Q2167.72 299.906 2164.34 299.906 Q2160.96 299.906 2159.02 302.591 Q2157.1 305.253 2157.1 309.952 Z" fill="#000000" fill-rule="nonzero" fill-opacity="1" /><path clip-path="url(#clip550)" d="M2184.64 296.966 L2188.9 296.966 L2188.9 322.892 L2184.64 322.892 L2184.64 296.966 M2184.64 286.873 L2188.9 286.873 L2188.9 292.267 L2184.64 292.267 L2184.64 286.873 Z" fill="#000000" fill-rule="nonzero" fill-opacity="1" /><path clip-path="url(#clip550)" d="M2209.6 309.859 Q2204.44 309.859 2202.44 311.04 Q2200.45 312.22 2200.45 315.068 Q2200.45 317.336 2201.94 318.679 Q2203.44 319.998 2206.01 319.998 Q2209.55 319.998 2211.68 317.498 Q2213.83 314.975 2213.83 310.808 L2213.83 309.859 L2209.6 309.859 M2218.09 308.1 L2218.09 322.892 L2213.83 322.892 L2213.83 318.957 Q2212.38 321.318 2210.2 322.452 Q2208.02 323.563 2204.88 323.563 Q2200.89 323.563 2198.53 321.341 Q2196.19 319.095 2196.19 315.345 Q2196.19 310.97 2199.11 308.748 Q2202.05 306.526 2207.86 306.526 L2213.83 306.526 L2213.83 306.109 Q2213.83 303.17 2211.89 301.572 Q2209.97 299.952 2206.47 299.952 Q2204.25 299.952 2202.14 300.484 Q2200.04 301.017 2198.09 302.082 L2198.09 298.146 Q2200.43 297.244 2202.63 296.804 Q2204.83 296.341 2206.91 296.341 Q2212.54 296.341 2215.31 299.258 Q2218.09 302.174 2218.09 308.1 Z" fill="#000000" fill-rule="nonzero" fill-opacity="1" /><path clip-path="url(#clip550)" d="M2248.42 307.244 L2248.42 322.892 L2244.16 322.892 L2244.16 307.383 Q2244.16 303.702 2242.72 301.873 Q2241.29 300.045 2238.42 300.045 Q2234.97 300.045 2232.98 302.244 Q2230.99 304.443 2230.99 308.239 L2230.99 322.892 L2226.7 322.892 L2226.7 296.966 L2230.99 296.966 L2230.99 300.994 Q2232.51 298.656 2234.57 297.498 Q2236.66 296.341 2239.37 296.341 Q2243.83 296.341 2246.12 299.119 Q2248.42 301.873 2248.42 307.244 Z" fill="#000000" fill-rule="nonzero" fill-opacity="1" /></svg>
