<?xml version="1.0" encoding="utf-8"?>
<svg xmlns="http://www.w3.org/2000/svg" xmlns:xlink="http://www.w3.org/1999/xlink" width="600" height="400" viewBox="0 0 2400 1600">
<defs>
  <clipPath id="clip390">
    <rect x="0" y="0" width="2400" height="1600"/>
  </clipPath>
</defs>
<path clip-path="url(#clip390)" d="M0 1600 L2400 1600 L2400 8.88178e-14 L0 8.88178e-14  Z" fill="#ffffff" fill-rule="evenodd" fill-opacity="1"/>
<defs>
  <clipPath id="clip391">
    <rect x="235" y="106" width="2118" height="1318"/>
  </clipPath>
</defs>
<path clip-path="url(#clip390)" d="M205.121 1423.18 L2352.76 1423.18 L2352.76 106.192 L205.121 106.192  Z" fill="#ffffff" fill-rule="evenodd" fill-opacity="1"/>
<defs>
  <clipPath id="clip392">
    <rect x="205" y="106" width="2149" height="1318"/>
  </clipPath>
</defs>
<polyline clip-path="url(#clip392)" style="stroke:#000000; stroke-linecap:round; stroke-linejoin:round; stroke-width:2; stroke-opacity:0.1; fill:none" points="633.199,1423.18 633.199,106.192 "/>
<polyline clip-path="url(#clip392)" style="stroke:#000000; stroke-linecap:round; stroke-linejoin:round; stroke-width:2; stroke-opacity:0.1; fill:none" points="1149.79,1423.18 1149.79,106.192 "/>
<polyline clip-path="url(#clip392)" style="stroke:#000000; stroke-linecap:round; stroke-linejoin:round; stroke-width:2; stroke-opacity:0.1; fill:none" points="1666.38,1423.18 1666.38,106.192 "/>
<polyline clip-path="url(#clip392)" style="stroke:#000000; stroke-linecap:round; stroke-linejoin:round; stroke-width:2; stroke-opacity:0.1; fill:none" points="2182.97,1423.18 2182.97,106.192 "/>
<polyline clip-path="url(#clip392)" style="stroke:#000000; stroke-linecap:round; stroke-linejoin:round; stroke-width:2; stroke-opacity:0.1; fill:none" points="205.121,1423.18 2352.76,1423.18 "/>
<polyline clip-path="url(#clip392)" style="stroke:#000000; stroke-linecap:round; stroke-linejoin:round; stroke-width:2; stroke-opacity:0.1; fill:none" points="205.121,1123.86 2352.76,1123.86 "/>
<polyline clip-path="url(#clip392)" style="stroke:#000000; stroke-linecap:round; stroke-linejoin:round; stroke-width:2; stroke-opacity:0.1; fill:none" points="205.121,824.549 2352.76,824.549 "/>
<polyline clip-path="url(#clip392)" style="stroke:#000000; stroke-linecap:round; stroke-linejoin:round; stroke-width:2; stroke-opacity:0.1; fill:none" points="205.121,525.234 2352.76,525.234 "/>
<polyline clip-path="url(#clip392)" style="stroke:#000000; stroke-linecap:round; stroke-linejoin:round; stroke-width:2; stroke-opacity:0.1; fill:none" points="205.121,225.918 2352.76,225.918 "/>
<polyline clip-path="url(#clip390)" style="stroke:#000000; stroke-linecap:round; stroke-linejoin:round; stroke-width:4; stroke-opacity:1; fill:none" points="205.121,1423.18 2352.76,1423.18 "/>
<polyline clip-path="url(#clip390)" style="stroke:#000000; stroke-linecap:round; stroke-linejoin:round; stroke-width:4; stroke-opacity:1; fill:none" points="633.199,1423.18 633.199,1404.28 "/>
<polyline clip-path="url(#clip390)" style="stroke:#000000; stroke-linecap:round; stroke-linejoin:round; stroke-width:4; stroke-opacity:1; fill:none" points="1149.79,1423.18 1149.79,1404.28 "/>
<polyline clip-path="url(#clip390)" style="stroke:#000000; stroke-linecap:round; stroke-linejoin:round; stroke-width:4; stroke-opacity:1; fill:none" points="1666.38,1423.18 1666.38,1404.28 "/>
<polyline clip-path="url(#clip390)" style="stroke:#000000; stroke-linecap:round; stroke-linejoin:round; stroke-width:4; stroke-opacity:1; fill:none" points="2182.97,1423.18 2182.97,1404.28 "/>
<path clip-path="url(#clip390)" d="M596.892 1481.64 L613.211 1481.64 L613.211 1485.58 L591.267 1485.58 L591.267 1481.64 Q593.929 1478.89 598.512 1474.26 Q603.119 1469.61 604.299 1468.27 Q606.544 1465.74 607.424 1464.01 Q608.327 1462.25 608.327 1460.56 Q608.327 1457.8 606.382 1456.07 Q604.461 1454.33 601.359 1454.33 Q599.16 1454.33 596.707 1455.09 Q594.276 1455.86 591.498 1457.41 L591.498 1452.69 Q594.322 1451.55 596.776 1450.97 Q599.23 1450.39 601.267 1450.39 Q606.637 1450.39 609.832 1453.08 Q613.026 1455.77 613.026 1460.26 Q613.026 1462.39 612.216 1464.31 Q611.429 1466.2 609.322 1468.8 Q608.744 1469.47 605.642 1472.69 Q602.54 1475.88 596.892 1481.64 Z" fill="#000000" fill-rule="nonzero" fill-opacity="1" /><path clip-path="url(#clip390)" d="M633.026 1454.1 Q629.415 1454.1 627.586 1457.66 Q625.78 1461.2 625.78 1468.33 Q625.78 1475.44 627.586 1479.01 Q629.415 1482.55 633.026 1482.55 Q636.66 1482.55 638.466 1479.01 Q640.294 1475.44 640.294 1468.33 Q640.294 1461.2 638.466 1457.66 Q636.66 1454.1 633.026 1454.1 M633.026 1450.39 Q638.836 1450.39 641.892 1455 Q644.97 1459.58 644.97 1468.33 Q644.97 1477.06 641.892 1481.67 Q638.836 1486.25 633.026 1486.25 Q627.216 1486.25 624.137 1481.67 Q621.081 1477.06 621.081 1468.33 Q621.081 1459.58 624.137 1455 Q627.216 1450.39 633.026 1450.39 Z" fill="#000000" fill-rule="nonzero" fill-opacity="1" /><path clip-path="url(#clip390)" d="M663.188 1454.1 Q659.577 1454.1 657.748 1457.66 Q655.942 1461.2 655.942 1468.33 Q655.942 1475.44 657.748 1479.01 Q659.577 1482.55 663.188 1482.55 Q666.822 1482.55 668.627 1479.01 Q670.456 1475.44 670.456 1468.33 Q670.456 1461.2 668.627 1457.66 Q666.822 1454.1 663.188 1454.1 M663.188 1450.39 Q668.998 1450.39 672.053 1455 Q675.132 1459.58 675.132 1468.33 Q675.132 1477.06 672.053 1481.67 Q668.998 1486.25 663.188 1486.25 Q657.378 1486.25 654.299 1481.67 Q651.243 1477.06 651.243 1468.33 Q651.243 1459.58 654.299 1455 Q657.378 1450.39 663.188 1450.39 Z" fill="#000000" fill-rule="nonzero" fill-opacity="1" /><path clip-path="url(#clip390)" d="M1122.88 1455.09 L1111.08 1473.54 L1122.88 1473.54 L1122.88 1455.09 M1121.65 1451.02 L1127.53 1451.02 L1127.53 1473.54 L1132.46 1473.54 L1132.46 1477.43 L1127.53 1477.43 L1127.53 1485.58 L1122.88 1485.58 L1122.88 1477.43 L1107.28 1477.43 L1107.28 1472.92 L1121.65 1451.02 Z" fill="#000000" fill-rule="nonzero" fill-opacity="1" /><path clip-path="url(#clip390)" d="M1150.2 1454.1 Q1146.58 1454.1 1144.76 1457.66 Q1142.95 1461.2 1142.95 1468.33 Q1142.95 1475.44 1144.76 1479.01 Q1146.58 1482.55 1150.2 1482.55 Q1153.83 1482.55 1155.64 1479.01 Q1157.46 1475.44 1157.46 1468.33 Q1157.46 1461.2 1155.64 1457.66 Q1153.83 1454.1 1150.2 1454.1 M1150.2 1450.39 Q1156.01 1450.39 1159.06 1455 Q1162.14 1459.58 1162.14 1468.33 Q1162.14 1477.06 1159.06 1481.67 Q1156.01 1486.25 1150.2 1486.25 Q1144.39 1486.25 1141.31 1481.67 Q1138.25 1477.06 1138.25 1468.33 Q1138.25 1459.58 1141.31 1455 Q1144.39 1450.39 1150.2 1450.39 Z" fill="#000000" fill-rule="nonzero" fill-opacity="1" /><path clip-path="url(#clip390)" d="M1180.36 1454.1 Q1176.75 1454.1 1174.92 1457.66 Q1173.11 1461.2 1173.11 1468.33 Q1173.11 1475.44 1174.92 1479.01 Q1176.75 1482.55 1180.36 1482.55 Q1183.99 1482.55 1185.8 1479.01 Q1187.63 1475.44 1187.63 1468.33 Q1187.63 1461.2 1185.8 1457.66 Q1183.99 1454.1 1180.36 1454.1 M1180.36 1450.39 Q1186.17 1450.39 1189.22 1455 Q1192.3 1459.58 1192.3 1468.33 Q1192.3 1477.06 1189.22 1481.67 Q1186.17 1486.25 1180.36 1486.25 Q1174.55 1486.25 1171.47 1481.67 Q1168.41 1477.06 1168.41 1468.33 Q1168.41 1459.58 1171.47 1455 Q1174.55 1450.39 1180.36 1450.39 Z" fill="#000000" fill-rule="nonzero" fill-opacity="1" /><path clip-path="url(#clip390)" d="M1636.71 1466.44 Q1633.56 1466.44 1631.71 1468.59 Q1629.88 1470.74 1629.88 1474.49 Q1629.88 1478.22 1631.71 1480.39 Q1633.56 1482.55 1636.71 1482.55 Q1639.85 1482.55 1641.68 1480.39 Q1643.53 1478.22 1643.53 1474.49 Q1643.53 1470.74 1641.68 1468.59 Q1639.85 1466.44 1636.71 1466.44 M1645.99 1451.78 L1645.99 1456.04 Q1644.23 1455.21 1642.42 1454.77 Q1640.64 1454.33 1638.88 1454.33 Q1634.25 1454.33 1631.8 1457.45 Q1629.37 1460.58 1629.02 1466.9 Q1630.39 1464.89 1632.45 1463.82 Q1634.51 1462.73 1636.98 1462.73 Q1642.19 1462.73 1645.2 1465.9 Q1648.23 1469.05 1648.23 1474.49 Q1648.23 1479.82 1645.09 1483.03 Q1641.94 1486.25 1636.71 1486.25 Q1630.71 1486.25 1627.54 1481.67 Q1624.37 1477.06 1624.37 1468.33 Q1624.37 1460.14 1628.26 1455.28 Q1632.15 1450.39 1638.7 1450.39 Q1640.46 1450.39 1642.24 1450.74 Q1644.04 1451.09 1645.99 1451.78 Z" fill="#000000" fill-rule="nonzero" fill-opacity="1" /><path clip-path="url(#clip390)" d="M1666.29 1454.1 Q1662.68 1454.1 1660.85 1457.66 Q1659.04 1461.2 1659.04 1468.33 Q1659.04 1475.44 1660.85 1479.01 Q1662.68 1482.55 1666.29 1482.55 Q1669.92 1482.55 1671.73 1479.01 Q1673.56 1475.44 1673.56 1468.33 Q1673.56 1461.2 1671.73 1457.66 Q1669.92 1454.1 1666.29 1454.1 M1666.29 1450.39 Q1672.1 1450.39 1675.15 1455 Q1678.23 1459.58 1678.23 1468.33 Q1678.23 1477.06 1675.15 1481.67 Q1672.1 1486.25 1666.29 1486.25 Q1660.48 1486.25 1657.4 1481.67 Q1654.34 1477.06 1654.34 1468.33 Q1654.34 1459.58 1657.4 1455 Q1660.48 1450.39 1666.29 1450.39 Z" fill="#000000" fill-rule="nonzero" fill-opacity="1" /><path clip-path="url(#clip390)" d="M1696.45 1454.1 Q1692.84 1454.1 1691.01 1457.66 Q1689.21 1461.2 1689.21 1468.33 Q1689.21 1475.44 1691.01 1479.01 Q1692.84 1482.55 1696.45 1482.55 Q1700.09 1482.55 1701.89 1479.01 Q1703.72 1475.44 1703.72 1468.33 Q1703.72 1461.2 1701.89 1457.66 Q1700.09 1454.1 1696.45 1454.1 M1696.45 1450.39 Q1702.26 1450.39 1705.32 1455 Q1708.4 1459.58 1708.4 1468.33 Q1708.4 1477.06 1705.32 1481.67 Q1702.26 1486.25 1696.45 1486.25 Q1690.64 1486.25 1687.56 1481.67 Q1684.51 1477.06 1684.51 1468.33 Q1684.51 1459.58 1687.56 1455 Q1690.64 1450.39 1696.45 1450.39 Z" fill="#000000" fill-rule="nonzero" fill-opacity="1" /><path clip-path="url(#clip390)" d="M2152.76 1469.17 Q2149.43 1469.17 2147.51 1470.95 Q2145.61 1472.73 2145.61 1475.86 Q2145.61 1478.98 2147.51 1480.77 Q2149.43 1482.55 2152.76 1482.55 Q2156.1 1482.55 2158.02 1480.77 Q2159.94 1478.96 2159.94 1475.86 Q2159.94 1472.73 2158.02 1470.95 Q2156.12 1469.17 2152.76 1469.17 M2148.09 1467.18 Q2145.08 1466.44 2143.39 1464.38 Q2141.72 1462.32 2141.72 1459.35 Q2141.72 1455.21 2144.66 1452.8 Q2147.63 1450.39 2152.76 1450.39 Q2157.93 1450.39 2160.87 1452.8 Q2163.81 1455.21 2163.81 1459.35 Q2163.81 1462.32 2162.12 1464.38 Q2160.45 1466.44 2157.46 1467.18 Q2160.84 1467.96 2162.72 1470.26 Q2164.62 1472.55 2164.62 1475.86 Q2164.62 1480.88 2161.54 1483.57 Q2158.48 1486.25 2152.76 1486.25 Q2147.05 1486.25 2143.97 1483.57 Q2140.91 1480.88 2140.91 1475.86 Q2140.91 1472.55 2142.81 1470.26 Q2144.71 1467.96 2148.09 1467.18 M2146.38 1459.79 Q2146.38 1462.48 2148.04 1463.98 Q2149.73 1465.49 2152.76 1465.49 Q2155.77 1465.49 2157.46 1463.98 Q2159.18 1462.48 2159.18 1459.79 Q2159.18 1457.11 2157.46 1455.6 Q2155.77 1454.1 2152.76 1454.1 Q2149.73 1454.1 2148.04 1455.6 Q2146.38 1457.11 2146.38 1459.79 Z" fill="#000000" fill-rule="nonzero" fill-opacity="1" /><path clip-path="url(#clip390)" d="M2182.93 1454.1 Q2179.32 1454.1 2177.49 1457.66 Q2175.68 1461.2 2175.68 1468.33 Q2175.68 1475.44 2177.49 1479.01 Q2179.32 1482.55 2182.93 1482.55 Q2186.56 1482.55 2188.37 1479.01 Q2190.2 1475.44 2190.2 1468.33 Q2190.2 1461.2 2188.37 1457.66 Q2186.56 1454.1 2182.93 1454.1 M2182.93 1450.39 Q2188.74 1450.39 2191.79 1455 Q2194.87 1459.58 2194.87 1468.33 Q2194.87 1477.06 2191.79 1481.67 Q2188.74 1486.25 2182.93 1486.25 Q2177.12 1486.25 2174.04 1481.67 Q2170.98 1477.06 2170.98 1468.33 Q2170.98 1459.58 2174.04 1455 Q2177.12 1450.39 2182.93 1450.39 Z" fill="#000000" fill-rule="nonzero" fill-opacity="1" /><path clip-path="url(#clip390)" d="M2213.09 1454.1 Q2209.48 1454.1 2207.65 1457.66 Q2205.84 1461.2 2205.84 1468.33 Q2205.84 1475.44 2207.65 1479.01 Q2209.48 1482.55 2213.09 1482.55 Q2216.72 1482.55 2218.53 1479.01 Q2220.36 1475.44 2220.36 1468.33 Q2220.36 1461.2 2218.53 1457.66 Q2216.72 1454.1 2213.09 1454.1 M2213.09 1450.39 Q2218.9 1450.39 2221.95 1455 Q2225.03 1459.58 2225.03 1468.33 Q2225.03 1477.06 2221.95 1481.67 Q2218.9 1486.25 2213.09 1486.25 Q2207.28 1486.25 2204.2 1481.67 Q2201.14 1477.06 2201.14 1468.33 Q2201.14 1459.58 2204.2 1455 Q2207.28 1450.39 2213.09 1450.39 Z" fill="#000000" fill-rule="nonzero" fill-opacity="1" /><path clip-path="url(#clip390)" d="M1051.36 1520.52 L1091.56 1520.52 L1091.56 1525.93 L1074.69 1525.93 L1074.69 1568.04 L1068.23 1568.04 L1068.23 1525.93 L1051.36 1525.93 L1051.36 1520.52 Z" fill="#000000" fill-rule="nonzero" fill-opacity="1" /><path clip-path="url(#clip390)" d="M1116.93 1548.76 L1116.93 1551.62 L1090 1551.62 Q1090.39 1557.67 1093.63 1560.85 Q1096.91 1564 1102.74 1564 Q1106.11 1564 1109.26 1563.17 Q1112.44 1562.35 1115.56 1560.69 L1115.56 1566.23 Q1112.41 1567.57 1109.1 1568.27 Q1105.79 1568.97 1102.39 1568.97 Q1093.86 1568.97 1088.86 1564 Q1083.89 1559.04 1083.89 1550.57 Q1083.89 1541.82 1088.6 1536.69 Q1093.35 1531.54 1101.37 1531.54 Q1108.56 1531.54 1112.73 1536.18 Q1116.93 1540.8 1116.93 1548.76 M1111.07 1547.04 Q1111.01 1542.23 1108.37 1539.37 Q1105.76 1536.5 1101.43 1536.5 Q1096.53 1536.5 1093.57 1539.27 Q1090.64 1542.04 1090.2 1547.07 L1111.07 1547.04 Z" fill="#000000" fill-rule="nonzero" fill-opacity="1" /><path clip-path="url(#clip390)" d="M1147.2 1537.87 Q1146.21 1537.3 1145.04 1537.04 Q1143.89 1536.76 1142.49 1536.76 Q1137.52 1536.76 1134.85 1540 Q1132.21 1543.22 1132.21 1549.27 L1132.21 1568.04 L1126.32 1568.04 L1126.32 1532.4 L1132.21 1532.4 L1132.21 1537.93 Q1134.05 1534.69 1137.02 1533.13 Q1139.98 1531.54 1144.21 1531.54 Q1144.81 1531.54 1145.55 1531.63 Q1146.28 1531.7 1147.17 1531.85 L1147.2 1537.87 Z" fill="#000000" fill-rule="nonzero" fill-opacity="1" /><path clip-path="url(#clip390)" d="M1179.95 1539.24 Q1182.15 1535.29 1185.2 1533.41 Q1188.26 1531.54 1192.4 1531.54 Q1197.97 1531.54 1200.99 1535.45 Q1204.01 1539.33 1204.01 1546.53 L1204.01 1568.04 L1198.13 1568.04 L1198.13 1546.72 Q1198.13 1541.59 1196.31 1539.11 Q1194.5 1536.63 1190.77 1536.63 Q1186.22 1536.63 1183.58 1539.65 Q1180.94 1542.68 1180.94 1547.9 L1180.94 1568.04 L1175.05 1568.04 L1175.05 1546.72 Q1175.05 1541.56 1173.24 1539.11 Q1171.42 1536.63 1167.63 1536.63 Q1163.15 1536.63 1160.5 1539.68 Q1157.86 1542.71 1157.86 1547.9 L1157.86 1568.04 L1151.97 1568.04 L1151.97 1532.4 L1157.86 1532.4 L1157.86 1537.93 Q1159.87 1534.66 1162.67 1533.1 Q1165.47 1531.54 1169.32 1531.54 Q1173.2 1531.54 1175.91 1533.51 Q1178.65 1535.48 1179.95 1539.24 Z" fill="#000000" fill-rule="nonzero" fill-opacity="1" /><path clip-path="url(#clip390)" d="M1215.7 1532.4 L1221.55 1532.4 L1221.55 1568.04 L1215.7 1568.04 L1215.7 1532.4 M1215.7 1518.52 L1221.55 1518.52 L1221.55 1525.93 L1215.7 1525.93 L1215.7 1518.52 Z" fill="#000000" fill-rule="nonzero" fill-opacity="1" /><path clip-path="url(#clip390)" d="M1263.44 1546.53 L1263.44 1568.04 L1257.58 1568.04 L1257.58 1546.72 Q1257.58 1541.66 1255.61 1539.14 Q1253.63 1536.63 1249.69 1536.63 Q1244.95 1536.63 1242.21 1539.65 Q1239.47 1542.68 1239.47 1547.9 L1239.47 1568.04 L1233.58 1568.04 L1233.58 1532.4 L1239.47 1532.4 L1239.47 1537.93 Q1241.57 1534.72 1244.4 1533.13 Q1247.27 1531.54 1250.99 1531.54 Q1257.14 1531.54 1260.29 1535.36 Q1263.44 1539.14 1263.44 1546.53 Z" fill="#000000" fill-rule="nonzero" fill-opacity="1" /><path clip-path="url(#clip390)" d="M1291.32 1550.12 Q1284.22 1550.12 1281.48 1551.75 Q1278.75 1553.37 1278.75 1557.29 Q1278.75 1560.4 1280.78 1562.25 Q1282.85 1564.07 1286.39 1564.07 Q1291.26 1564.07 1294.18 1560.63 Q1297.14 1557.16 1297.14 1551.43 L1297.14 1550.12 L1291.32 1550.12 M1303 1547.71 L1303 1568.04 L1297.14 1568.04 L1297.14 1562.63 Q1295.14 1565.88 1292.15 1567.44 Q1289.16 1568.97 1284.83 1568.97 Q1279.35 1568.97 1276.11 1565.91 Q1272.89 1562.82 1272.89 1557.67 Q1272.89 1551.65 1276.9 1548.6 Q1280.94 1545.54 1288.93 1545.54 L1297.14 1545.54 L1297.14 1544.97 Q1297.14 1540.93 1294.47 1538.73 Q1291.83 1536.5 1287.02 1536.5 Q1283.97 1536.5 1281.07 1537.23 Q1278.17 1537.97 1275.5 1539.43 L1275.5 1534.02 Q1278.72 1532.78 1281.74 1532.17 Q1284.76 1531.54 1287.63 1531.54 Q1295.36 1531.54 1299.18 1535.55 Q1303 1539.56 1303 1547.71 Z" fill="#000000" fill-rule="nonzero" fill-opacity="1" /><path clip-path="url(#clip390)" d="M1315.06 1518.52 L1320.92 1518.52 L1320.92 1568.04 L1315.06 1568.04 L1315.06 1518.52 Z" fill="#000000" fill-rule="nonzero" fill-opacity="1" /><path clip-path="url(#clip390)" d="M1359.56 1562.7 L1359.56 1581.6 L1353.67 1581.6 L1353.67 1532.4 L1359.56 1532.4 L1359.56 1537.81 Q1361.41 1534.62 1364.21 1533.1 Q1367.04 1531.54 1370.95 1531.54 Q1377.45 1531.54 1381.49 1536.69 Q1385.56 1541.85 1385.56 1550.25 Q1385.56 1558.65 1381.49 1563.81 Q1377.45 1568.97 1370.95 1568.97 Q1367.04 1568.97 1364.21 1567.44 Q1361.41 1565.88 1359.56 1562.7 M1379.48 1550.25 Q1379.48 1543.79 1376.81 1540.13 Q1374.17 1536.44 1369.52 1536.44 Q1364.88 1536.44 1362.2 1540.13 Q1359.56 1543.79 1359.56 1550.25 Q1359.56 1556.71 1362.2 1560.4 Q1364.88 1564.07 1369.52 1564.07 Q1374.17 1564.07 1376.81 1560.4 Q1379.48 1556.71 1379.48 1550.25 Z" fill="#000000" fill-rule="nonzero" fill-opacity="1" /><path clip-path="url(#clip390)" d="M1415.93 1537.87 Q1414.94 1537.3 1413.76 1537.04 Q1412.62 1536.76 1411.22 1536.76 Q1406.25 1536.76 1403.58 1540 Q1400.94 1543.22 1400.94 1549.27 L1400.94 1568.04 L1395.05 1568.04 L1395.05 1532.4 L1400.94 1532.4 L1400.94 1537.93 Q1402.78 1534.69 1405.74 1533.13 Q1408.7 1531.54 1412.94 1531.54 Q1413.54 1531.54 1414.27 1531.63 Q1415.01 1531.7 1415.9 1531.85 L1415.93 1537.87 Z" fill="#000000" fill-rule="nonzero" fill-opacity="1" /><path clip-path="url(#clip390)" d="M1422.07 1532.4 L1427.93 1532.4 L1427.93 1568.04 L1422.07 1568.04 L1422.07 1532.4 M1422.07 1518.52 L1427.93 1518.52 L1427.93 1525.93 L1422.07 1525.93 L1422.07 1518.52 Z" fill="#000000" fill-rule="nonzero" fill-opacity="1" /><path clip-path="url(#clip390)" d="M1465.84 1533.76 L1465.84 1539.24 Q1463.35 1537.87 1460.84 1537.2 Q1458.36 1536.5 1455.81 1536.5 Q1450.11 1536.5 1446.96 1540.13 Q1443.81 1543.73 1443.81 1550.25 Q1443.81 1556.78 1446.96 1560.4 Q1450.11 1564 1455.81 1564 Q1458.36 1564 1460.84 1563.33 Q1463.35 1562.63 1465.84 1561.26 L1465.84 1566.68 Q1463.38 1567.82 1460.74 1568.39 Q1458.13 1568.97 1455.17 1568.97 Q1447.12 1568.97 1442.38 1563.91 Q1437.64 1558.85 1437.64 1550.25 Q1437.64 1541.53 1442.41 1536.53 Q1447.22 1531.54 1455.55 1531.54 Q1458.26 1531.54 1460.84 1532.11 Q1463.42 1532.65 1465.84 1533.76 Z" fill="#000000" fill-rule="nonzero" fill-opacity="1" /><path clip-path="url(#clip390)" d="M1506.51 1548.76 L1506.51 1551.62 L1479.59 1551.62 Q1479.97 1557.67 1483.21 1560.85 Q1486.49 1564 1492.32 1564 Q1495.69 1564 1498.84 1563.17 Q1502.02 1562.35 1505.14 1560.69 L1505.14 1566.23 Q1501.99 1567.57 1498.68 1568.27 Q1495.37 1568.97 1491.97 1568.97 Q1483.44 1568.97 1478.44 1564 Q1473.47 1559.04 1473.47 1550.57 Q1473.47 1541.82 1478.19 1536.69 Q1482.93 1531.54 1490.95 1531.54 Q1498.14 1531.54 1502.31 1536.18 Q1506.51 1540.8 1506.51 1548.76 M1500.66 1547.04 Q1500.59 1542.23 1497.95 1539.37 Q1495.34 1536.5 1491.01 1536.5 Q1486.11 1536.5 1483.15 1539.27 Q1480.22 1542.04 1479.78 1547.07 L1500.66 1547.04 Z" fill="#000000" fill-rule="nonzero" fill-opacity="1" /><polyline clip-path="url(#clip390)" style="stroke:#000000; stroke-linecap:round; stroke-linejoin:round; stroke-width:4; stroke-opacity:1; fill:none" points="205.121,1423.18 205.121,106.192 "/>
<polyline clip-path="url(#clip390)" style="stroke:#000000; stroke-linecap:round; stroke-linejoin:round; stroke-width:4; stroke-opacity:1; fill:none" points="205.121,1423.18 224.019,1423.18 "/>
<polyline clip-path="url(#clip390)" style="stroke:#000000; stroke-linecap:round; stroke-linejoin:round; stroke-width:4; stroke-opacity:1; fill:none" points="205.121,1123.86 224.019,1123.86 "/>
<polyline clip-path="url(#clip390)" style="stroke:#000000; stroke-linecap:round; stroke-linejoin:round; stroke-width:4; stroke-opacity:1; fill:none" points="205.121,824.549 224.019,824.549 "/>
<polyline clip-path="url(#clip390)" style="stroke:#000000; stroke-linecap:round; stroke-linejoin:round; stroke-width:4; stroke-opacity:1; fill:none" points="205.121,525.234 224.019,525.234 "/>
<polyline clip-path="url(#clip390)" style="stroke:#000000; stroke-linecap:round; stroke-linejoin:round; stroke-width:4; stroke-opacity:1; fill:none" points="205.121,225.918 224.019,225.918 "/>
<path clip-path="url(#clip390)" d="M157.177 1408.98 Q153.566 1408.98 151.737 1412.54 Q149.931 1416.08 149.931 1423.21 Q149.931 1430.32 151.737 1433.89 Q153.566 1437.43 157.177 1437.43 Q160.811 1437.43 162.616 1433.89 Q164.445 1430.32 164.445 1423.21 Q164.445 1416.08 162.616 1412.54 Q160.811 1408.98 157.177 1408.98 M157.177 1405.27 Q162.987 1405.27 166.042 1409.88 Q169.121 1414.46 169.121 1423.21 Q169.121 1431.94 166.042 1436.55 Q162.987 1441.13 157.177 1441.13 Q151.366 1441.13 148.288 1436.55 Q145.232 1431.94 145.232 1423.21 Q145.232 1414.46 148.288 1409.88 Q151.366 1405.27 157.177 1405.27 Z" fill="#000000" fill-rule="nonzero" fill-opacity="1" /><path clip-path="url(#clip390)" d="M117.825 1137.21 L125.464 1137.21 L125.464 1110.84 L117.154 1112.51 L117.154 1108.25 L125.418 1106.58 L130.093 1106.58 L130.093 1137.21 L137.732 1137.21 L137.732 1141.14 L117.825 1141.14 L117.825 1137.21 Z" fill="#000000" fill-rule="nonzero" fill-opacity="1" /><path clip-path="url(#clip390)" d="M157.177 1109.66 Q153.566 1109.66 151.737 1113.23 Q149.931 1116.77 149.931 1123.9 Q149.931 1131.01 151.737 1134.57 Q153.566 1138.11 157.177 1138.11 Q160.811 1138.11 162.616 1134.57 Q164.445 1131.01 164.445 1123.9 Q164.445 1116.77 162.616 1113.23 Q160.811 1109.66 157.177 1109.66 M157.177 1105.96 Q162.987 1105.96 166.042 1110.57 Q169.121 1115.15 169.121 1123.9 Q169.121 1132.63 166.042 1137.23 Q162.987 1141.82 157.177 1141.82 Q151.366 1141.82 148.288 1137.23 Q145.232 1132.63 145.232 1123.9 Q145.232 1115.15 148.288 1110.57 Q151.366 1105.96 157.177 1105.96 Z" fill="#000000" fill-rule="nonzero" fill-opacity="1" /><path clip-path="url(#clip390)" d="M121.043 837.894 L137.362 837.894 L137.362 841.829 L115.418 841.829 L115.418 837.894 Q118.08 835.139 122.663 830.51 Q127.269 825.857 128.45 824.514 Q130.695 821.991 131.575 820.255 Q132.478 818.496 132.478 816.806 Q132.478 814.051 130.533 812.315 Q128.612 810.579 125.51 810.579 Q123.311 810.579 120.857 811.343 Q118.427 812.107 115.649 813.658 L115.649 808.936 Q118.473 807.801 120.927 807.223 Q123.38 806.644 125.418 806.644 Q130.788 806.644 133.982 809.329 Q137.177 812.014 137.177 816.505 Q137.177 818.635 136.367 820.556 Q135.579 822.454 133.473 825.047 Q132.894 825.718 129.792 828.936 Q126.691 832.13 121.043 837.894 Z" fill="#000000" fill-rule="nonzero" fill-opacity="1" /><path clip-path="url(#clip390)" d="M157.177 810.348 Q153.566 810.348 151.737 813.913 Q149.931 817.454 149.931 824.584 Q149.931 831.69 151.737 835.255 Q153.566 838.797 157.177 838.797 Q160.811 838.797 162.616 835.255 Q164.445 831.69 164.445 824.584 Q164.445 817.454 162.616 813.913 Q160.811 810.348 157.177 810.348 M157.177 806.644 Q162.987 806.644 166.042 811.251 Q169.121 815.834 169.121 824.584 Q169.121 833.311 166.042 837.917 Q162.987 842.5 157.177 842.5 Q151.366 842.5 148.288 837.917 Q145.232 833.311 145.232 824.584 Q145.232 815.834 148.288 811.251 Q151.366 806.644 157.177 806.644 Z" fill="#000000" fill-rule="nonzero" fill-opacity="1" /><path clip-path="url(#clip390)" d="M131.181 523.88 Q134.538 524.597 136.413 526.866 Q138.311 529.134 138.311 532.467 Q138.311 537.583 134.792 540.384 Q131.274 543.185 124.793 543.185 Q122.617 543.185 120.302 542.745 Q118.01 542.328 115.556 541.472 L115.556 536.958 Q117.501 538.092 119.816 538.671 Q122.13 539.25 124.654 539.25 Q129.052 539.25 131.343 537.514 Q133.658 535.778 133.658 532.467 Q133.658 529.412 131.505 527.699 Q129.376 525.963 125.556 525.963 L121.529 525.963 L121.529 522.12 L125.742 522.12 Q129.191 522.12 131.019 520.755 Q132.848 519.366 132.848 516.773 Q132.848 514.111 130.95 512.699 Q129.075 511.264 125.556 511.264 Q123.635 511.264 121.436 511.681 Q119.237 512.097 116.598 512.977 L116.598 508.81 Q119.26 508.069 121.575 507.699 Q123.913 507.329 125.973 507.329 Q131.297 507.329 134.399 509.759 Q137.501 512.167 137.501 516.287 Q137.501 519.157 135.857 521.148 Q134.214 523.116 131.181 523.88 Z" fill="#000000" fill-rule="nonzero" fill-opacity="1" /><path clip-path="url(#clip390)" d="M157.177 511.032 Q153.566 511.032 151.737 514.597 Q149.931 518.139 149.931 525.268 Q149.931 532.375 151.737 535.94 Q153.566 539.481 157.177 539.481 Q160.811 539.481 162.616 535.94 Q164.445 532.375 164.445 525.268 Q164.445 518.139 162.616 514.597 Q160.811 511.032 157.177 511.032 M157.177 507.329 Q162.987 507.329 166.042 511.935 Q169.121 516.518 169.121 525.268 Q169.121 533.995 166.042 538.602 Q162.987 543.185 157.177 543.185 Q151.366 543.185 148.288 538.602 Q145.232 533.995 145.232 525.268 Q145.232 516.518 148.288 511.935 Q151.366 507.329 157.177 507.329 Z" fill="#000000" fill-rule="nonzero" fill-opacity="1" /><path clip-path="url(#clip390)" d="M129.862 212.712 L118.056 231.161 L129.862 231.161 L129.862 212.712 M128.635 208.638 L134.515 208.638 L134.515 231.161 L139.445 231.161 L139.445 235.05 L134.515 235.05 L134.515 243.198 L129.862 243.198 L129.862 235.05 L114.26 235.05 L114.26 230.536 L128.635 208.638 Z" fill="#000000" fill-rule="nonzero" fill-opacity="1" /><path clip-path="url(#clip390)" d="M157.177 211.717 Q153.566 211.717 151.737 215.282 Q149.931 218.823 149.931 225.953 Q149.931 233.059 151.737 236.624 Q153.566 240.166 157.177 240.166 Q160.811 240.166 162.616 236.624 Q164.445 233.059 164.445 225.953 Q164.445 218.823 162.616 215.282 Q160.811 211.717 157.177 211.717 M157.177 208.013 Q162.987 208.013 166.042 212.62 Q169.121 217.203 169.121 225.953 Q169.121 234.68 166.042 239.286 Q162.987 243.87 157.177 243.87 Q151.366 243.87 148.288 239.286 Q145.232 234.68 145.232 225.953 Q145.232 217.203 148.288 212.62 Q151.366 208.013 157.177 208.013 Z" fill="#000000" fill-rule="nonzero" fill-opacity="1" /><path clip-path="url(#clip390)" d="M20.1444 820.545 L26.9239 820.545 Q23.9002 823.792 22.4043 827.484 Q20.9083 831.144 20.9083 835.282 Q20.9083 843.43 25.9054 847.758 Q30.8707 852.087 40.2919 852.087 Q49.6813 852.087 54.6784 847.758 Q59.6436 843.43 59.6436 835.282 Q59.6436 831.144 58.1477 827.484 Q56.6518 823.792 53.6281 820.545 L60.3439 820.545 Q62.6355 823.919 63.7814 827.706 Q64.9272 831.462 64.9272 835.664 Q64.9272 846.453 58.3387 852.66 Q51.7183 858.867 40.2919 858.867 Q28.8336 858.867 22.2451 852.66 Q15.6248 846.453 15.6248 835.664 Q15.6248 831.399 16.7706 827.643 Q17.8846 823.855 20.1444 820.545 Z" fill="#000000" fill-rule="nonzero" fill-opacity="1" /><path clip-path="url(#clip390)" d="M32.4621 797.056 Q32.4621 801.766 36.1542 804.503 Q39.8145 807.241 46.212 807.241 Q52.6095 807.241 56.3017 804.535 Q59.9619 801.798 59.9619 797.056 Q59.9619 792.377 56.2698 789.64 Q52.5777 786.902 46.212 786.902 Q39.8781 786.902 36.186 789.64 Q32.4621 792.377 32.4621 797.056 M27.4968 797.056 Q27.4968 789.417 32.4621 785.056 Q37.4273 780.696 46.212 780.696 Q54.9649 780.696 59.9619 785.056 Q64.9272 789.417 64.9272 797.056 Q64.9272 804.726 59.9619 809.087 Q54.9649 813.415 46.212 813.415 Q37.4273 813.415 32.4621 809.087 Q27.4968 804.726 27.4968 797.056 Z" fill="#000000" fill-rule="nonzero" fill-opacity="1" /><path clip-path="url(#clip390)" d="M49.9359 771.593 L28.3562 771.593 L28.3562 765.736 L49.7131 765.736 Q54.7739 765.736 57.3202 763.763 Q59.8346 761.79 59.8346 757.843 Q59.8346 753.1 56.8109 750.363 Q53.7872 747.594 48.5673 747.594 L28.3562 747.594 L28.3562 741.738 L64.0042 741.738 L64.0042 747.594 L58.5296 747.594 Q61.7762 749.727 63.3676 752.559 Q64.9272 755.36 64.9272 759.084 Q64.9272 765.227 61.1078 768.41 Q57.2883 771.593 49.9359 771.593 M27.4968 756.856 L27.4968 756.856 Z" fill="#000000" fill-rule="nonzero" fill-opacity="1" /><path clip-path="url(#clip390)" d="M42.4881 700.042 L64.0042 700.042 L64.0042 705.899 L42.679 705.899 Q37.6183 705.899 35.1038 707.872 Q32.5894 709.845 32.5894 713.792 Q32.5894 718.535 35.6131 721.272 Q38.6368 724.009 43.8567 724.009 L64.0042 724.009 L64.0042 729.897 L28.3562 729.897 L28.3562 724.009 L33.8944 724.009 Q30.6797 721.908 29.0883 719.076 Q27.4968 716.211 27.4968 712.487 Q27.4968 706.344 31.3163 703.193 Q35.1038 700.042 42.4881 700.042 Z" fill="#000000" fill-rule="nonzero" fill-opacity="1" /><path clip-path="url(#clip390)" d="M18.2347 682.568 L28.3562 682.568 L28.3562 670.505 L32.9077 670.505 L32.9077 682.568 L52.2594 682.568 Q56.6199 682.568 57.8613 681.391 Q59.1026 680.181 59.1026 676.521 L59.1026 670.505 L64.0042 670.505 L64.0042 676.521 Q64.0042 683.3 61.4897 685.879 Q58.9434 688.457 52.2594 688.457 L32.9077 688.457 L32.9077 692.753 L28.3562 692.753 L28.3562 688.457 L18.2347 688.457 L18.2347 682.568 Z" fill="#000000" fill-rule="nonzero" fill-opacity="1" /><path clip-path="url(#clip390)" d="M659.7 14.3981 L651.772 35.8968 L667.657 35.8968 L659.7 14.3981 M656.401 8.64 L663.027 8.64 L679.491 51.84 L673.415 51.84 L669.48 40.7579 L650.007 40.7579 L646.071 51.84 L639.908 51.84 L656.401 8.64 Z" fill="#000000" fill-rule="nonzero" fill-opacity="1" /><path clip-path="url(#clip390)" d="M701.887 14.3981 L693.959 35.8968 L709.844 35.8968 L701.887 14.3981 M698.589 8.64 L705.215 8.64 L721.679 51.84 L715.602 51.84 L711.667 40.7579 L692.194 40.7579 L688.259 51.84 L682.096 51.84 L698.589 8.64 Z" fill="#000000" fill-rule="nonzero" fill-opacity="1" /><path clip-path="url(#clip390)" d="M733.831 13.4432 L733.831 29.6758 L741.181 29.6758 Q745.261 29.6758 747.489 27.5635 Q749.717 25.4513 749.717 21.545 Q749.717 17.6677 747.489 15.5555 Q745.261 13.4432 741.181 13.4432 L733.831 13.4432 M727.987 8.64 L741.181 8.64 Q748.444 8.64 752.147 11.9386 Q755.88 15.2083 755.88 21.545 Q755.88 27.9397 752.147 31.2093 Q748.444 34.479 741.181 34.479 L733.831 34.479 L733.831 51.84 L727.987 51.84 L727.987 8.64 Z" fill="#000000" fill-rule="nonzero" fill-opacity="1" /><path clip-path="url(#clip390)" d="M763.721 8.64 L769.566 8.64 L769.566 46.921 L790.602 46.921 L790.602 51.84 L763.721 51.84 L763.721 8.64 Z" fill="#000000" fill-rule="nonzero" fill-opacity="1" /><path clip-path="url(#clip390)" d="M812.65 33.2348 L828.246 33.2348 L828.246 37.9801 L812.65 37.9801 L812.65 33.2348 Z" fill="#000000" fill-rule="nonzero" fill-opacity="1" /><path clip-path="url(#clip390)" d="M866.933 51.84 L850.44 8.64 L856.545 8.64 L870.231 45.0113 L883.946 8.64 L890.023 8.64 L873.559 51.84 L866.933 51.84 Z" fill="#000000" fill-rule="nonzero" fill-opacity="1" /><path clip-path="url(#clip390)" d="M896.331 8.64 L902.175 8.64 L902.175 51.84 L896.331 51.84 L896.331 8.64 Z" fill="#000000" fill-rule="nonzero" fill-opacity="1" /><path clip-path="url(#clip390)" d="M911.724 8.64 L918.003 8.64 L928.738 24.6989 L939.531 8.64 L945.809 8.64 L931.921 29.3864 L946.735 51.84 L940.456 51.84 L928.304 33.4663 L916.064 51.84 L909.756 51.84 L925.179 28.7788 L911.724 8.64 Z" fill="#000000" fill-rule="nonzero" fill-opacity="1" /><path clip-path="url(#clip390)" d="M948.529 33.2348 L964.125 33.2348 L964.125 37.9801 L948.529 37.9801 L948.529 33.2348 Z" fill="#000000" fill-rule="nonzero" fill-opacity="1" /><path clip-path="url(#clip390)" d="M995.925 20.677 L995.925 25.6538 Q993.668 24.4096 991.382 23.802 Q989.125 23.1654 986.81 23.1654 Q981.631 23.1654 978.766 26.464 Q975.902 29.7336 975.902 35.6653 Q975.902 41.597 978.766 44.8956 Q981.631 48.1653 986.81 48.1653 Q989.125 48.1653 991.382 47.5576 Q993.668 46.921 995.925 45.6768 L995.925 50.5958 Q993.697 51.6375 991.295 52.1583 Q988.923 52.6791 986.232 52.6791 Q978.911 52.6791 974.6 48.0784 Q970.288 43.4778 970.288 35.6653 Q970.288 27.7371 974.629 23.1943 Q978.998 18.6515 986.579 18.6515 Q989.038 18.6515 991.382 19.1724 Q993.726 19.6642 995.925 20.677 Z" fill="#000000" fill-rule="nonzero" fill-opacity="1" /><path clip-path="url(#clip390)" d="M1017.74 23.1654 Q1013.46 23.1654 1010.97 26.5218 Q1008.48 29.8494 1008.48 35.6653 Q1008.48 41.4813 1010.94 44.8377 Q1013.43 48.1653 1017.74 48.1653 Q1022 48.1653 1024.48 44.8088 Q1026.97 41.4523 1026.97 35.6653 Q1026.97 29.9072 1024.48 26.5508 Q1022 23.1654 1017.74 23.1654 M1017.74 18.6515 Q1024.69 18.6515 1028.65 23.1654 Q1032.61 27.6792 1032.61 35.6653 Q1032.61 43.6225 1028.65 48.1653 Q1024.69 52.6791 1017.74 52.6791 Q1010.77 52.6791 1006.8 48.1653 Q1002.87 43.6225 1002.87 35.6653 Q1002.87 27.6792 1006.8 23.1654 Q1010.77 18.6515 1017.74 18.6515 Z" fill="#000000" fill-rule="nonzero" fill-opacity="1" /><path clip-path="url(#clip390)" d="M1068.38 32.2799 L1068.38 51.84 L1063.05 51.84 L1063.05 32.4535 Q1063.05 27.8529 1061.26 25.567 Q1059.47 23.2811 1055.88 23.2811 Q1051.57 23.2811 1049.08 26.03 Q1046.59 28.7788 1046.59 33.5241 L1046.59 51.84 L1041.24 51.84 L1041.24 19.4328 L1046.59 19.4328 L1046.59 24.4675 Q1048.5 21.545 1051.08 20.0983 Q1053.68 18.6515 1057.06 18.6515 Q1062.65 18.6515 1065.51 22.1237 Q1068.38 25.567 1068.38 32.2799 Z" fill="#000000" fill-rule="nonzero" fill-opacity="1" /><path clip-path="url(#clip390)" d="M1100.32 24.3517 L1100.32 6.81709 L1105.65 6.81709 L1105.65 51.84 L1100.32 51.84 L1100.32 46.9789 Q1098.64 49.8724 1096.07 51.2902 Q1093.52 52.6791 1089.93 52.6791 Q1084.06 52.6791 1080.36 47.9916 Q1076.68 43.3042 1076.68 35.6653 Q1076.68 28.0265 1080.36 23.339 Q1084.06 18.6515 1089.93 18.6515 Q1093.52 18.6515 1096.07 20.0693 Q1098.64 21.4582 1100.32 24.3517 M1082.18 35.6653 Q1082.18 41.5391 1084.58 44.8956 Q1087.01 48.2231 1091.24 48.2231 Q1095.46 48.2231 1097.89 44.8956 Q1100.32 41.5391 1100.32 35.6653 Q1100.32 29.7915 1097.89 26.464 Q1095.46 23.1075 1091.24 23.1075 Q1087.01 23.1075 1084.58 26.464 Q1082.18 29.7915 1082.18 35.6653 Z" fill="#000000" fill-rule="nonzero" fill-opacity="1" /><path clip-path="url(#clip390)" d="M1117.37 44.4905 L1123.47 44.4905 L1123.47 51.84 L1117.37 51.84 L1117.37 44.4905 Z" fill="#000000" fill-rule="nonzero" fill-opacity="1" /><path clip-path="url(#clip390)" d="M1186.87 11.9675 L1186.87 18.1307 Q1183.92 15.3819 1180.56 14.0219 Q1177.23 12.662 1173.47 12.662 Q1166.06 12.662 1162.13 17.2048 Q1158.19 21.7186 1158.19 30.2834 Q1158.19 38.8192 1162.13 43.362 Q1166.06 47.8759 1173.47 47.8759 Q1177.23 47.8759 1180.56 46.516 Q1183.92 45.156 1186.87 42.4072 L1186.87 48.5125 Q1183.8 50.5958 1180.36 51.6375 Q1176.94 52.6791 1173.12 52.6791 Q1163.31 52.6791 1157.67 46.6896 Q1152.03 40.6711 1152.03 30.2834 Q1152.03 19.8668 1157.67 13.8772 Q1163.31 7.85875 1173.12 7.85875 Q1177 7.85875 1180.41 8.90042 Q1183.86 9.91314 1186.87 11.9675 Z" fill="#000000" fill-rule="nonzero" fill-opacity="1" /><path clip-path="url(#clip390)" d="M1195.89 8.64 L1201.74 8.64 L1201.74 26.3482 L1222.98 26.3482 L1222.98 8.64 L1228.82 8.64 L1228.82 51.84 L1222.98 51.84 L1222.98 31.2672 L1201.74 31.2672 L1201.74 51.84 L1195.89 51.84 L1195.89 8.64 Z" fill="#000000" fill-rule="nonzero" fill-opacity="1" /><path clip-path="url(#clip390)" d="M1240.45 8.64 L1249.16 8.64 L1260.19 38.038 L1271.27 8.64 L1279.98 8.64 L1279.98 51.84 L1274.28 51.84 L1274.28 13.9062 L1263.14 43.5356 L1257.27 43.5356 L1246.13 13.9062 L1246.13 51.84 L1240.45 51.84 L1240.45 8.64 Z" fill="#000000" fill-rule="nonzero" fill-opacity="1" /><path clip-path="url(#clip390)" d="M1291.58 8.64 L1300.29 8.64 L1311.32 38.038 L1322.4 8.64 L1331.11 8.64 L1331.11 51.84 L1325.41 51.84 L1325.41 13.9062 L1314.27 43.5356 L1308.39 43.5356 L1297.25 13.9062 L1297.25 51.84 L1291.58 51.84 L1291.58 8.64 Z" fill="#000000" fill-rule="nonzero" fill-opacity="1" /><path clip-path="url(#clip390)" d="M1339.79 33.2348 L1355.38 33.2348 L1355.38 37.9801 L1339.79 37.9801 L1339.79 33.2348 Z" fill="#000000" fill-rule="nonzero" fill-opacity="1" /><path clip-path="url(#clip390)" d="M1364.09 8.64 L1369.94 8.64 L1369.94 46.921 L1390.97 46.921 L1390.97 51.84 L1364.09 51.84 L1364.09 8.64 Z" fill="#000000" fill-rule="nonzero" fill-opacity="1" /><path clip-path="url(#clip390)" d="M1420.98 10.2314 L1420.98 19.4328 L1431.95 19.4328 L1431.95 23.5705 L1420.98 23.5705 L1420.98 41.163 Q1420.98 45.1271 1422.05 46.2555 Q1423.15 47.384 1426.48 47.384 L1431.95 47.384 L1431.95 51.84 L1426.48 51.84 Q1420.31 51.84 1417.97 49.5541 Q1415.63 47.2393 1415.63 41.163 L1415.63 23.5705 L1411.72 23.5705 L1411.72 19.4328 L1415.63 19.4328 L1415.63 10.2314 L1420.98 10.2314 Z" fill="#000000" fill-rule="nonzero" fill-opacity="1" /><path clip-path="url(#clip390)" d="M1466.67 34.3054 L1466.67 36.9095 L1442.19 36.9095 Q1442.54 42.4072 1445.49 45.3007 Q1448.47 48.1653 1453.76 48.1653 Q1456.83 48.1653 1459.7 47.4129 Q1462.59 46.6606 1465.42 45.156 L1465.42 50.1907 Q1462.56 51.406 1459.55 52.0425 Q1456.54 52.6791 1453.45 52.6791 Q1445.69 52.6791 1441.15 48.1653 Q1436.63 43.6514 1436.63 35.9547 Q1436.63 27.9975 1440.92 23.339 Q1445.23 18.6515 1452.52 18.6515 Q1459.06 18.6515 1462.85 22.876 Q1466.67 27.0716 1466.67 34.3054 M1461.34 32.7429 Q1461.29 28.3737 1458.89 25.7695 Q1456.51 23.1654 1452.58 23.1654 Q1448.12 23.1654 1445.43 25.6827 Q1442.77 28.2001 1442.36 32.7718 L1461.34 32.7429 Z" fill="#000000" fill-rule="nonzero" fill-opacity="1" /><path clip-path="url(#clip390)" d="M1494.19 24.4096 Q1493.29 23.8888 1492.22 23.6573 Q1491.18 23.3969 1489.9 23.3969 Q1485.39 23.3969 1482.96 26.3482 Q1480.56 29.2707 1480.56 34.7683 L1480.56 51.84 L1475.2 51.84 L1475.2 19.4328 L1480.56 19.4328 L1480.56 24.4675 Q1482.24 21.5161 1484.93 20.0983 Q1487.62 18.6515 1491.47 18.6515 Q1492.02 18.6515 1492.68 18.7383 Q1493.35 18.7962 1494.16 18.9409 L1494.19 24.4096 Z" fill="#000000" fill-rule="nonzero" fill-opacity="1" /><path clip-path="url(#clip390)" d="M1523.96 25.6538 Q1525.96 22.0659 1528.73 20.3587 Q1531.51 18.6515 1535.27 18.6515 Q1540.34 18.6515 1543.09 22.2105 Q1545.84 25.7406 1545.84 32.2799 L1545.84 51.84 L1540.48 51.84 L1540.48 32.4535 Q1540.48 27.795 1538.83 25.5381 Q1537.18 23.2811 1533.8 23.2811 Q1529.66 23.2811 1527.26 26.03 Q1524.86 28.7788 1524.86 33.5241 L1524.86 51.84 L1519.5 51.84 L1519.5 32.4535 Q1519.5 27.7661 1517.85 25.5381 Q1516.21 23.2811 1512.76 23.2811 Q1508.68 23.2811 1506.28 26.0589 Q1503.88 28.8077 1503.88 33.5241 L1503.88 51.84 L1498.53 51.84 L1498.53 19.4328 L1503.88 19.4328 L1503.88 24.4675 Q1505.7 21.4872 1508.25 20.0693 Q1510.79 18.6515 1514.3 18.6515 Q1517.83 18.6515 1520.29 20.4455 Q1522.77 22.2395 1523.96 25.6538 Z" fill="#000000" fill-rule="nonzero" fill-opacity="1" /><path clip-path="url(#clip390)" d="M1556.45 19.4328 L1561.78 19.4328 L1561.78 51.84 L1556.45 51.84 L1556.45 19.4328 M1556.45 6.81709 L1561.78 6.81709 L1561.78 13.559 L1556.45 13.559 L1556.45 6.81709 Z" fill="#000000" fill-rule="nonzero" fill-opacity="1" /><path clip-path="url(#clip390)" d="M1599.86 32.2799 L1599.86 51.84 L1594.53 51.84 L1594.53 32.4535 Q1594.53 27.8529 1592.74 25.567 Q1590.94 23.2811 1587.36 23.2811 Q1583.05 23.2811 1580.56 26.03 Q1578.07 28.7788 1578.07 33.5241 L1578.07 51.84 L1572.72 51.84 L1572.72 19.4328 L1578.07 19.4328 L1578.07 24.4675 Q1579.98 21.545 1582.55 20.0983 Q1585.16 18.6515 1588.54 18.6515 Q1594.13 18.6515 1596.99 22.1237 Q1599.86 25.567 1599.86 32.2799 Z" fill="#000000" fill-rule="nonzero" fill-opacity="1" /><path clip-path="url(#clip390)" d="M1625.2 35.5496 Q1618.75 35.5496 1616.26 37.0253 Q1613.77 38.501 1613.77 42.06 Q1613.77 44.8956 1615.63 46.5738 Q1617.51 48.2231 1620.72 48.2231 Q1625.15 48.2231 1627.81 45.0981 Q1630.5 41.9442 1630.5 36.7359 L1630.5 35.5496 L1625.2 35.5496 M1635.82 33.3505 L1635.82 51.84 L1630.5 51.84 L1630.5 46.921 Q1628.68 49.8724 1625.96 51.2902 Q1623.24 52.6791 1619.3 52.6791 Q1614.32 52.6791 1611.37 49.9014 Q1608.45 47.0947 1608.45 42.4072 Q1608.45 36.9385 1612.1 34.1607 Q1615.77 31.3829 1623.03 31.3829 L1630.5 31.3829 L1630.5 30.8621 Q1630.5 27.1874 1628.07 25.1908 Q1625.67 23.1654 1621.3 23.1654 Q1618.52 23.1654 1615.89 23.8309 Q1613.25 24.4964 1610.82 25.8274 L1610.82 20.9085 Q1613.75 19.78 1616.49 19.2302 Q1619.24 18.6515 1621.85 18.6515 Q1628.88 18.6515 1632.35 22.2973 Q1635.82 25.9431 1635.82 33.3505 Z" fill="#000000" fill-rule="nonzero" fill-opacity="1" /><path clip-path="url(#clip390)" d="M1646.79 6.81709 L1652.11 6.81709 L1652.11 51.84 L1646.79 51.84 L1646.79 6.81709 Z" fill="#000000" fill-rule="nonzero" fill-opacity="1" /><path clip-path="url(#clip390)" d="M1694.88 6.87496 Q1691 13.53 1689.12 20.0404 Q1687.24 26.5508 1687.24 33.2348 Q1687.24 39.9188 1689.12 46.487 Q1691.03 53.0263 1694.88 59.6525 L1690.25 59.6525 Q1685.91 52.8527 1683.74 46.2845 Q1681.6 39.7162 1681.6 33.2348 Q1681.6 26.7823 1683.74 20.2429 Q1685.88 13.7036 1690.25 6.87496 L1694.88 6.87496 Z" fill="#000000" fill-rule="nonzero" fill-opacity="1" /><path clip-path="url(#clip390)" d="M1732.15 32.2799 L1732.15 51.84 L1726.82 51.84 L1726.82 32.4535 Q1726.82 27.8529 1725.03 25.567 Q1723.24 23.2811 1719.65 23.2811 Q1715.34 23.2811 1712.85 26.03 Q1710.36 28.7788 1710.36 33.5241 L1710.36 51.84 L1705.01 51.84 L1705.01 19.4328 L1710.36 19.4328 L1710.36 24.4675 Q1712.27 21.545 1714.84 20.0983 Q1717.45 18.6515 1720.83 18.6515 Q1726.42 18.6515 1729.28 22.1237 Q1732.15 25.567 1732.15 32.2799 Z" fill="#000000" fill-rule="nonzero" fill-opacity="1" /><path clip-path="url(#clip390)" d="M1743.46 24.9304 L1780.56 24.9304 L1780.56 29.7915 L1743.46 29.7915 L1743.46 24.9304 M1743.46 36.7359 L1780.56 36.7359 L1780.56 41.6549 L1743.46 41.6549 L1743.46 36.7359 Z" fill="#000000" fill-rule="nonzero" fill-opacity="1" /><path clip-path="url(#clip390)" d="M1793.23 8.64 L1816.18 8.64 L1816.18 13.559 L1798.58 13.559 L1798.58 24.1492 Q1799.86 23.7152 1801.13 23.5126 Q1802.4 23.2811 1803.68 23.2811 Q1810.91 23.2811 1815.13 27.2452 Q1819.36 31.2093 1819.36 37.9801 Q1819.36 44.9535 1815.02 48.8308 Q1810.68 52.6791 1802.78 52.6791 Q1800.06 52.6791 1797.22 52.2162 Q1794.42 51.7532 1791.41 50.8273 L1791.41 44.9535 Q1794.01 46.3713 1796.79 47.0657 Q1799.57 47.7602 1802.66 47.7602 Q1807.67 47.7602 1810.59 45.1271 Q1813.51 42.494 1813.51 37.9801 Q1813.51 33.4663 1810.59 30.8332 Q1807.67 28.2001 1802.66 28.2001 Q1800.32 28.2001 1797.98 28.7209 Q1795.66 29.2417 1793.23 30.3413 L1793.23 8.64 Z" fill="#000000" fill-rule="nonzero" fill-opacity="1" /><path clip-path="url(#clip390)" d="M1843.37 12.4884 Q1838.86 12.4884 1836.57 16.9444 Q1834.32 21.3714 1834.32 30.2834 Q1834.32 39.1665 1836.57 43.6225 Q1838.86 48.0495 1843.37 48.0495 Q1847.92 48.0495 1850.17 43.6225 Q1852.46 39.1665 1852.46 30.2834 Q1852.46 21.3714 1850.17 16.9444 Q1847.92 12.4884 1843.37 12.4884 M1843.37 7.85875 Q1850.64 7.85875 1854.46 13.6168 Q1858.3 19.346 1858.3 30.2834 Q1858.3 41.1919 1854.46 46.95 Q1850.64 52.6791 1843.37 52.6791 Q1836.11 52.6791 1832.26 46.95 Q1828.44 41.1919 1828.44 30.2834 Q1828.44 19.346 1832.26 13.6168 Q1836.11 7.85875 1843.37 7.85875 Z" fill="#000000" fill-rule="nonzero" fill-opacity="1" /><path clip-path="url(#clip390)" d="M1881.08 12.4884 Q1876.56 12.4884 1874.28 16.9444 Q1872.02 21.3714 1872.02 30.2834 Q1872.02 39.1665 1874.28 43.6225 Q1876.56 48.0495 1881.08 48.0495 Q1885.62 48.0495 1887.88 43.6225 Q1890.16 39.1665 1890.16 30.2834 Q1890.16 21.3714 1887.88 16.9444 Q1885.62 12.4884 1881.08 12.4884 M1881.08 7.85875 Q1888.34 7.85875 1892.16 13.6168 Q1896.01 19.346 1896.01 30.2834 Q1896.01 41.1919 1892.16 46.95 Q1888.34 52.6791 1881.08 52.6791 Q1873.81 52.6791 1869.97 46.95 Q1866.15 41.1919 1866.15 30.2834 Q1866.15 19.346 1869.97 13.6168 Q1873.81 7.85875 1881.08 7.85875 Z" fill="#000000" fill-rule="nonzero" fill-opacity="1" /><path clip-path="url(#clip390)" d="M1904.69 6.87496 L1909.32 6.87496 Q1913.66 13.7036 1915.8 20.2429 Q1917.97 26.7823 1917.97 33.2348 Q1917.97 39.7162 1915.8 46.2845 Q1913.66 52.8527 1909.32 59.6525 L1904.69 59.6525 Q1908.54 53.0263 1910.42 46.487 Q1912.33 39.9188 1912.33 33.2348 Q1912.33 26.5508 1910.42 20.0404 Q1908.54 13.53 1904.69 6.87496 Z" fill="#000000" fill-rule="nonzero" fill-opacity="1" /><path clip-path="url(#clip392)" d="M323.245 1393.25 L323.245 1423.18 L374.904 1423.18 L374.904 1393.25 L323.245 1393.25 L323.245 1393.25  Z" fill="#2e8b57" fill-rule="evenodd" fill-opacity="0.6"/>
<polyline clip-path="url(#clip392)" style="stroke:#000000; stroke-linecap:round; stroke-linejoin:round; stroke-width:4; stroke-opacity:1; fill:none" points="323.245,1393.25 323.245,1423.18 374.904,1423.18 374.904,1393.25 323.245,1393.25 "/>
<path clip-path="url(#clip392)" d="M374.904 1423.18 L374.904 1423.18 L426.563 1423.18 L426.563 1423.18 L374.904 1423.18 L374.904 1423.18  Z" fill="#2e8b57" fill-rule="evenodd" fill-opacity="0.6"/>
<polyline clip-path="url(#clip392)" style="stroke:#000000; stroke-linecap:round; stroke-linejoin:round; stroke-width:4; stroke-opacity:1; fill:none" points="374.904,1423.18 374.904,1423.18 426.563,1423.18 374.904,1423.18 "/>
<path clip-path="url(#clip392)" d="M426.563 1363.32 L426.563 1423.18 L478.222 1423.18 L478.222 1363.32 L426.563 1363.32 L426.563 1363.32  Z" fill="#2e8b57" fill-rule="evenodd" fill-opacity="0.6"/>
<polyline clip-path="url(#clip392)" style="stroke:#000000; stroke-linecap:round; stroke-linejoin:round; stroke-width:4; stroke-opacity:1; fill:none" points="426.563,1363.32 426.563,1423.18 478.222,1423.18 478.222,1363.32 426.563,1363.32 "/>
<path clip-path="url(#clip392)" d="M478.222 1153.8 L478.222 1423.18 L529.881 1423.18 L529.881 1153.8 L478.222 1153.8 L478.222 1153.8  Z" fill="#2e8b57" fill-rule="evenodd" fill-opacity="0.6"/>
<polyline clip-path="url(#clip392)" style="stroke:#000000; stroke-linecap:round; stroke-linejoin:round; stroke-width:4; stroke-opacity:1; fill:none" points="478.222,1153.8 478.222,1423.18 529.881,1423.18 529.881,1153.8 478.222,1153.8 "/>
<path clip-path="url(#clip392)" d="M529.881 1034.07 L529.881 1423.18 L581.54 1423.18 L581.54 1034.07 L529.881 1034.07 L529.881 1034.07  Z" fill="#2e8b57" fill-rule="evenodd" fill-opacity="0.6"/>
<polyline clip-path="url(#clip392)" style="stroke:#000000; stroke-linecap:round; stroke-linejoin:round; stroke-width:4; stroke-opacity:1; fill:none" points="529.881,1034.07 529.881,1423.18 581.54,1423.18 581.54,1034.07 529.881,1034.07 "/>
<path clip-path="url(#clip392)" d="M581.54 764.686 L581.54 1423.18 L633.199 1423.18 L633.199 764.686 L581.54 764.686 L581.54 764.686  Z" fill="#2e8b57" fill-rule="evenodd" fill-opacity="0.6"/>
<polyline clip-path="url(#clip392)" style="stroke:#000000; stroke-linecap:round; stroke-linejoin:round; stroke-width:4; stroke-opacity:1; fill:none" points="581.54,764.686 581.54,1423.18 633.199,1423.18 633.199,764.686 581.54,764.686 "/>
<path clip-path="url(#clip392)" d="M633.199 884.412 L633.199 1423.18 L684.859 1423.18 L684.859 884.412 L633.199 884.412 L633.199 884.412  Z" fill="#2e8b57" fill-rule="evenodd" fill-opacity="0.6"/>
<polyline clip-path="url(#clip392)" style="stroke:#000000; stroke-linecap:round; stroke-linejoin:round; stroke-width:4; stroke-opacity:1; fill:none" points="633.199,884.412 633.199,1423.18 684.859,1423.18 684.859,884.412 633.199,884.412 "/>
<path clip-path="url(#clip392)" d="M684.859 315.713 L684.859 1423.18 L736.518 1423.18 L736.518 315.713 L684.859 315.713 L684.859 315.713  Z" fill="#2e8b57" fill-rule="evenodd" fill-opacity="0.6"/>
<polyline clip-path="url(#clip392)" style="stroke:#000000; stroke-linecap:round; stroke-linejoin:round; stroke-width:4; stroke-opacity:1; fill:none" points="684.859,315.713 684.859,1423.18 736.518,1423.18 736.518,315.713 684.859,315.713 "/>
<path clip-path="url(#clip392)" d="M736.518 405.508 L736.518 1423.18 L788.177 1423.18 L788.177 405.508 L736.518 405.508 L736.518 405.508  Z" fill="#2e8b57" fill-rule="evenodd" fill-opacity="0.6"/>
<polyline clip-path="url(#clip392)" style="stroke:#000000; stroke-linecap:round; stroke-linejoin:round; stroke-width:4; stroke-opacity:1; fill:none" points="736.518,405.508 736.518,1423.18 788.177,1423.18 788.177,405.508 736.518,405.508 "/>
<path clip-path="url(#clip392)" d="M788.177 375.576 L788.177 1423.18 L839.836 1423.18 L839.836 375.576 L788.177 375.576 L788.177 375.576  Z" fill="#2e8b57" fill-rule="evenodd" fill-opacity="0.6"/>
<polyline clip-path="url(#clip392)" style="stroke:#000000; stroke-linecap:round; stroke-linejoin:round; stroke-width:4; stroke-opacity:1; fill:none" points="788.177,375.576 788.177,1423.18 839.836,1423.18 839.836,375.576 788.177,375.576 "/>
<path clip-path="url(#clip392)" d="M839.836 106.192 L839.836 1423.18 L891.495 1423.18 L891.495 106.192 L839.836 106.192 L839.836 106.192  Z" fill="#2e8b57" fill-rule="evenodd" fill-opacity="0.6"/>
<polyline clip-path="url(#clip392)" style="stroke:#000000; stroke-linecap:round; stroke-linejoin:round; stroke-width:4; stroke-opacity:1; fill:none" points="839.836,106.192 839.836,1423.18 891.495,1423.18 891.495,106.192 839.836,106.192 "/>
<path clip-path="url(#clip392)" d="M891.495 435.439 L891.495 1423.18 L943.154 1423.18 L943.154 435.439 L891.495 435.439 L891.495 435.439  Z" fill="#2e8b57" fill-rule="evenodd" fill-opacity="0.6"/>
<polyline clip-path="url(#clip392)" style="stroke:#000000; stroke-linecap:round; stroke-linejoin:round; stroke-width:4; stroke-opacity:1; fill:none" points="891.495,435.439 891.495,1423.18 943.154,1423.18 943.154,435.439 891.495,435.439 "/>
<path clip-path="url(#clip392)" d="M943.154 255.85 L943.154 1423.18 L994.813 1423.18 L994.813 255.85 L943.154 255.85 L943.154 255.85  Z" fill="#2e8b57" fill-rule="evenodd" fill-opacity="0.6"/>
<polyline clip-path="url(#clip392)" style="stroke:#000000; stroke-linecap:round; stroke-linejoin:round; stroke-width:4; stroke-opacity:1; fill:none" points="943.154,255.85 943.154,1423.18 994.813,1423.18 994.813,255.85 943.154,255.85 "/>
<path clip-path="url(#clip392)" d="M994.813 525.234 L994.813 1423.18 L1046.47 1423.18 L1046.47 525.234 L994.813 525.234 L994.813 525.234  Z" fill="#2e8b57" fill-rule="evenodd" fill-opacity="0.6"/>
<polyline clip-path="url(#clip392)" style="stroke:#000000; stroke-linecap:round; stroke-linejoin:round; stroke-width:4; stroke-opacity:1; fill:none" points="994.813,525.234 994.813,1423.18 1046.47,1423.18 1046.47,525.234 994.813,525.234 "/>
<path clip-path="url(#clip392)" d="M1046.47 734.754 L1046.47 1423.18 L1098.13 1423.18 L1098.13 734.754 L1046.47 734.754 L1046.47 734.754  Z" fill="#2e8b57" fill-rule="evenodd" fill-opacity="0.6"/>
<polyline clip-path="url(#clip392)" style="stroke:#000000; stroke-linecap:round; stroke-linejoin:round; stroke-width:4; stroke-opacity:1; fill:none" points="1046.47,734.754 1046.47,1423.18 1098.13,1423.18 1098.13,734.754 1046.47,734.754 "/>
<path clip-path="url(#clip392)" d="M1098.13 615.028 L1098.13 1423.18 L1149.79 1423.18 L1149.79 615.028 L1098.13 615.028 L1098.13 615.028  Z" fill="#2e8b57" fill-rule="evenodd" fill-opacity="0.6"/>
<polyline clip-path="url(#clip392)" style="stroke:#000000; stroke-linecap:round; stroke-linejoin:round; stroke-width:4; stroke-opacity:1; fill:none" points="1098.13,615.028 1098.13,1423.18 1149.79,1423.18 1149.79,615.028 1098.13,615.028 "/>
<path clip-path="url(#clip392)" d="M1149.79 974.207 L1149.79 1423.18 L1201.45 1423.18 L1201.45 974.207 L1149.79 974.207 L1149.79 974.207  Z" fill="#2e8b57" fill-rule="evenodd" fill-opacity="0.6"/>
<polyline clip-path="url(#clip392)" style="stroke:#000000; stroke-linecap:round; stroke-linejoin:round; stroke-width:4; stroke-opacity:1; fill:none" points="1149.79,974.207 1149.79,1423.18 1201.45,1423.18 1201.45,974.207 1149.79,974.207 "/>
<path clip-path="url(#clip392)" d="M1201.45 1034.07 L1201.45 1423.18 L1253.11 1423.18 L1253.11 1034.07 L1201.45 1034.07 L1201.45 1034.07  Z" fill="#2e8b57" fill-rule="evenodd" fill-opacity="0.6"/>
<polyline clip-path="url(#clip392)" style="stroke:#000000; stroke-linecap:round; stroke-linejoin:round; stroke-width:4; stroke-opacity:1; fill:none" points="1201.45,1034.07 1201.45,1423.18 1253.11,1423.18 1253.11,1034.07 1201.45,1034.07 "/>
<path clip-path="url(#clip392)" d="M1253.11 764.686 L1253.11 1423.18 L1304.77 1423.18 L1304.77 764.686 L1253.11 764.686 L1253.11 764.686  Z" fill="#2e8b57" fill-rule="evenodd" fill-opacity="0.6"/>
<polyline clip-path="url(#clip392)" style="stroke:#000000; stroke-linecap:round; stroke-linejoin:round; stroke-width:4; stroke-opacity:1; fill:none" points="1253.11,764.686 1253.11,1423.18 1304.77,1423.18 1304.77,764.686 1253.11,764.686 "/>
<path clip-path="url(#clip392)" d="M1304.77 1034.07 L1304.77 1423.18 L1356.43 1423.18 L1356.43 1034.07 L1304.77 1034.07 L1304.77 1034.07  Z" fill="#2e8b57" fill-rule="evenodd" fill-opacity="0.6"/>
<polyline clip-path="url(#clip392)" style="stroke:#000000; stroke-linecap:round; stroke-linejoin:round; stroke-width:4; stroke-opacity:1; fill:none" points="1304.77,1034.07 1304.77,1423.18 1356.43,1423.18 1356.43,1034.07 1304.77,1034.07 "/>
<path clip-path="url(#clip392)" d="M1356.43 1004.14 L1356.43 1423.18 L1408.09 1423.18 L1408.09 1004.14 L1356.43 1004.14 L1356.43 1004.14  Z" fill="#2e8b57" fill-rule="evenodd" fill-opacity="0.6"/>
<polyline clip-path="url(#clip392)" style="stroke:#000000; stroke-linecap:round; stroke-linejoin:round; stroke-width:4; stroke-opacity:1; fill:none" points="1356.43,1004.14 1356.43,1423.18 1408.09,1423.18 1408.09,1004.14 1356.43,1004.14 "/>
<path clip-path="url(#clip392)" d="M1408.09 1093.93 L1408.09 1423.18 L1459.75 1423.18 L1459.75 1093.93 L1408.09 1093.93 L1408.09 1093.93  Z" fill="#2e8b57" fill-rule="evenodd" fill-opacity="0.6"/>
<polyline clip-path="url(#clip392)" style="stroke:#000000; stroke-linecap:round; stroke-linejoin:round; stroke-width:4; stroke-opacity:1; fill:none" points="1408.09,1093.93 1408.09,1423.18 1459.75,1423.18 1459.75,1093.93 1408.09,1093.93 "/>
<path clip-path="url(#clip392)" d="M1459.75 1273.52 L1459.75 1423.18 L1511.4 1423.18 L1511.4 1273.52 L1459.75 1273.52 L1459.75 1273.52  Z" fill="#2e8b57" fill-rule="evenodd" fill-opacity="0.6"/>
<polyline clip-path="url(#clip392)" style="stroke:#000000; stroke-linecap:round; stroke-linejoin:round; stroke-width:4; stroke-opacity:1; fill:none" points="1459.75,1273.52 1459.75,1423.18 1511.4,1423.18 1511.4,1273.52 1459.75,1273.52 "/>
<path clip-path="url(#clip392)" d="M1511.4 1183.73 L1511.4 1423.18 L1563.06 1423.18 L1563.06 1183.73 L1511.4 1183.73 L1511.4 1183.73  Z" fill="#2e8b57" fill-rule="evenodd" fill-opacity="0.6"/>
<polyline clip-path="url(#clip392)" style="stroke:#000000; stroke-linecap:round; stroke-linejoin:round; stroke-width:4; stroke-opacity:1; fill:none" points="1511.4,1183.73 1511.4,1423.18 1563.06,1423.18 1563.06,1183.73 1511.4,1183.73 "/>
<path clip-path="url(#clip392)" d="M1563.06 1064 L1563.06 1423.18 L1614.72 1423.18 L1614.72 1064 L1563.06 1064 L1563.06 1064  Z" fill="#2e8b57" fill-rule="evenodd" fill-opacity="0.6"/>
<polyline clip-path="url(#clip392)" style="stroke:#000000; stroke-linecap:round; stroke-linejoin:round; stroke-width:4; stroke-opacity:1; fill:none" points="1563.06,1064 1563.06,1423.18 1614.72,1423.18 1614.72,1064 1563.06,1064 "/>
<path clip-path="url(#clip392)" d="M1614.72 1333.39 L1614.72 1423.18 L1666.38 1423.18 L1666.38 1333.39 L1614.72 1333.39 L1614.72 1333.39  Z" fill="#2e8b57" fill-rule="evenodd" fill-opacity="0.6"/>
<polyline clip-path="url(#clip392)" style="stroke:#000000; stroke-linecap:round; stroke-linejoin:round; stroke-width:4; stroke-opacity:1; fill:none" points="1614.72,1333.39 1614.72,1423.18 1666.38,1423.18 1666.38,1333.39 1614.72,1333.39 "/>
<path clip-path="url(#clip392)" d="M1666.38 1363.32 L1666.38 1423.18 L1718.04 1423.18 L1718.04 1363.32 L1666.38 1363.32 L1666.38 1363.32  Z" fill="#2e8b57" fill-rule="evenodd" fill-opacity="0.6"/>
<polyline clip-path="url(#clip392)" style="stroke:#000000; stroke-linecap:round; stroke-linejoin:round; stroke-width:4; stroke-opacity:1; fill:none" points="1666.38,1363.32 1666.38,1423.18 1718.04,1423.18 1718.04,1363.32 1666.38,1363.32 "/>
<path clip-path="url(#clip392)" d="M1718.04 1303.45 L1718.04 1423.18 L1769.7 1423.18 L1769.7 1303.45 L1718.04 1303.45 L1718.04 1303.45  Z" fill="#2e8b57" fill-rule="evenodd" fill-opacity="0.6"/>
<polyline clip-path="url(#clip392)" style="stroke:#000000; stroke-linecap:round; stroke-linejoin:round; stroke-width:4; stroke-opacity:1; fill:none" points="1718.04,1303.45 1718.04,1423.18 1769.7,1423.18 1769.7,1303.45 1718.04,1303.45 "/>
<path clip-path="url(#clip392)" d="M1769.7 1363.32 L1769.7 1423.18 L1821.36 1423.18 L1821.36 1363.32 L1769.7 1363.32 L1769.7 1363.32  Z" fill="#2e8b57" fill-rule="evenodd" fill-opacity="0.6"/>
<polyline clip-path="url(#clip392)" style="stroke:#000000; stroke-linecap:round; stroke-linejoin:round; stroke-width:4; stroke-opacity:1; fill:none" points="1769.7,1363.32 1769.7,1423.18 1821.36,1423.18 1821.36,1363.32 1769.7,1363.32 "/>
<path clip-path="url(#clip392)" d="M1821.36 1333.39 L1821.36 1423.18 L1873.02 1423.18 L1873.02 1333.39 L1821.36 1333.39 L1821.36 1333.39  Z" fill="#2e8b57" fill-rule="evenodd" fill-opacity="0.6"/>
<polyline clip-path="url(#clip392)" style="stroke:#000000; stroke-linecap:round; stroke-linejoin:round; stroke-width:4; stroke-opacity:1; fill:none" points="1821.36,1333.39 1821.36,1423.18 1873.02,1423.18 1873.02,1333.39 1821.36,1333.39 "/>
<path clip-path="url(#clip392)" d="M1873.02 1393.25 L1873.02 1423.18 L1924.68 1423.18 L1924.68 1393.25 L1873.02 1393.25 L1873.02 1393.25  Z" fill="#2e8b57" fill-rule="evenodd" fill-opacity="0.6"/>
<polyline clip-path="url(#clip392)" style="stroke:#000000; stroke-linecap:round; stroke-linejoin:round; stroke-width:4; stroke-opacity:1; fill:none" points="1873.02,1393.25 1873.02,1423.18 1924.68,1423.18 1924.68,1393.25 1873.02,1393.25 "/>
<path clip-path="url(#clip392)" d="M1924.68 1363.32 L1924.68 1423.18 L1976.34 1423.18 L1976.34 1363.32 L1924.68 1363.32 L1924.68 1363.32  Z" fill="#2e8b57" fill-rule="evenodd" fill-opacity="0.6"/>
<polyline clip-path="url(#clip392)" style="stroke:#000000; stroke-linecap:round; stroke-linejoin:round; stroke-width:4; stroke-opacity:1; fill:none" points="1924.68,1363.32 1924.68,1423.18 1976.34,1423.18 1976.34,1363.32 1924.68,1363.32 "/>
<path clip-path="url(#clip392)" d="M1976.34 1393.25 L1976.34 1423.18 L2028 1423.18 L2028 1393.25 L1976.34 1393.25 L1976.34 1393.25  Z" fill="#2e8b57" fill-rule="evenodd" fill-opacity="0.6"/>
<polyline clip-path="url(#clip392)" style="stroke:#000000; stroke-linecap:round; stroke-linejoin:round; stroke-width:4; stroke-opacity:1; fill:none" points="1976.34,1393.25 1976.34,1423.18 2028,1423.18 2028,1393.25 1976.34,1393.25 "/>
<path clip-path="url(#clip392)" d="M2028 1393.25 L2028 1423.18 L2079.65 1423.18 L2079.65 1393.25 L2028 1393.25 L2028 1393.25  Z" fill="#2e8b57" fill-rule="evenodd" fill-opacity="0.6"/>
<polyline clip-path="url(#clip392)" style="stroke:#000000; stroke-linecap:round; stroke-linejoin:round; stroke-width:4; stroke-opacity:1; fill:none" points="2028,1393.25 2028,1423.18 2079.65,1423.18 2079.65,1393.25 2028,1393.25 "/>
<path clip-path="url(#clip392)" d="M2079.65 1423.18 L2079.65 1423.18 L2131.31 1423.18 L2131.31 1423.18 L2079.65 1423.18 L2079.65 1423.18  Z" fill="#2e8b57" fill-rule="evenodd" fill-opacity="0.6"/>
<polyline clip-path="url(#clip392)" style="stroke:#000000; stroke-linecap:round; stroke-linejoin:round; stroke-width:4; stroke-opacity:1; fill:none" points="2079.65,1423.18 2079.65,1423.18 2131.31,1423.18 2079.65,1423.18 "/>
<path clip-path="url(#clip392)" d="M2131.31 1423.18 L2131.31 1423.18 L2182.97 1423.18 L2182.97 1423.18 L2131.31 1423.18 L2131.31 1423.18  Z" fill="#2e8b57" fill-rule="evenodd" fill-opacity="0.6"/>
<polyline clip-path="url(#clip392)" style="stroke:#000000; stroke-linecap:round; stroke-linejoin:round; stroke-width:4; stroke-opacity:1; fill:none" points="2131.31,1423.18 2131.31,1423.18 2182.97,1423.18 2131.31,1423.18 "/>
<path clip-path="url(#clip392)" d="M2182.97 1393.25 L2182.97 1423.18 L2234.63 1423.18 L2234.63 1393.25 L2182.97 1393.25 L2182.97 1393.25  Z" fill="#2e8b57" fill-rule="evenodd" fill-opacity="0.6"/>
<polyline clip-path="url(#clip392)" style="stroke:#000000; stroke-linecap:round; stroke-linejoin:round; stroke-width:4; stroke-opacity:1; fill:none" points="2182.97,1393.25 2182.97,1423.18 2234.63,1423.18 2234.63,1393.25 2182.97,1393.25 "/>
<circle clip-path="url(#clip392)" style="fill:#2e8b57; stroke:none; fill-opacity:0" cx="349.074" cy="1393.25" r="2"/>
<circle clip-path="url(#clip392)" style="fill:#2e8b57; stroke:none; fill-opacity:0" cx="400.733" cy="1423.18" r="2"/>
<circle clip-path="url(#clip392)" style="fill:#2e8b57; stroke:none; fill-opacity:0" cx="452.393" cy="1363.32" r="2"/>
<circle clip-path="url(#clip392)" style="fill:#2e8b57; stroke:none; fill-opacity:0" cx="504.052" cy="1153.8" r="2"/>
<circle clip-path="url(#clip392)" style="fill:#2e8b57; stroke:none; fill-opacity:0" cx="555.711" cy="1034.07" r="2"/>
<circle clip-path="url(#clip392)" style="fill:#2e8b57; stroke:none; fill-opacity:0" cx="607.37" cy="764.686" r="2"/>
<circle clip-path="url(#clip392)" style="fill:#2e8b57; stroke:none; fill-opacity:0" cx="659.029" cy="884.412" r="2"/>
<circle clip-path="url(#clip392)" style="fill:#2e8b57; stroke:none; fill-opacity:0" cx="710.688" cy="315.713" r="2"/>
<circle clip-path="url(#clip392)" style="fill:#2e8b57; stroke:none; fill-opacity:0" cx="762.347" cy="405.508" r="2"/>
<circle clip-path="url(#clip392)" style="fill:#2e8b57; stroke:none; fill-opacity:0" cx="814.006" cy="375.576" r="2"/>
<circle clip-path="url(#clip392)" style="fill:#2e8b57; stroke:none; fill-opacity:0" cx="865.665" cy="106.192" r="2"/>
<circle clip-path="url(#clip392)" style="fill:#2e8b57; stroke:none; fill-opacity:0" cx="917.325" cy="435.439" r="2"/>
<circle clip-path="url(#clip392)" style="fill:#2e8b57; stroke:none; fill-opacity:0" cx="968.984" cy="255.85" r="2"/>
<circle clip-path="url(#clip392)" style="fill:#2e8b57; stroke:none; fill-opacity:0" cx="1020.64" cy="525.234" r="2"/>
<circle clip-path="url(#clip392)" style="fill:#2e8b57; stroke:none; fill-opacity:0" cx="1072.3" cy="734.754" r="2"/>
<circle clip-path="url(#clip392)" style="fill:#2e8b57; stroke:none; fill-opacity:0" cx="1123.96" cy="615.028" r="2"/>
<circle clip-path="url(#clip392)" style="fill:#2e8b57; stroke:none; fill-opacity:0" cx="1175.62" cy="974.207" r="2"/>
<circle clip-path="url(#clip392)" style="fill:#2e8b57; stroke:none; fill-opacity:0" cx="1227.28" cy="1034.07" r="2"/>
<circle clip-path="url(#clip392)" style="fill:#2e8b57; stroke:none; fill-opacity:0" cx="1278.94" cy="764.686" r="2"/>
<circle clip-path="url(#clip392)" style="fill:#2e8b57; stroke:none; fill-opacity:0" cx="1330.6" cy="1034.07" r="2"/>
<circle clip-path="url(#clip392)" style="fill:#2e8b57; stroke:none; fill-opacity:0" cx="1382.26" cy="1004.14" r="2"/>
<circle clip-path="url(#clip392)" style="fill:#2e8b57; stroke:none; fill-opacity:0" cx="1433.92" cy="1093.93" r="2"/>
<circle clip-path="url(#clip392)" style="fill:#2e8b57; stroke:none; fill-opacity:0" cx="1485.57" cy="1273.52" r="2"/>
<circle clip-path="url(#clip392)" style="fill:#2e8b57; stroke:none; fill-opacity:0" cx="1537.23" cy="1183.73" r="2"/>
<circle clip-path="url(#clip392)" style="fill:#2e8b57; stroke:none; fill-opacity:0" cx="1588.89" cy="1064" r="2"/>
<circle clip-path="url(#clip392)" style="fill:#2e8b57; stroke:none; fill-opacity:0" cx="1640.55" cy="1333.39" r="2"/>
<circle clip-path="url(#clip392)" style="fill:#2e8b57; stroke:none; fill-opacity:0" cx="1692.21" cy="1363.32" r="2"/>
<circle clip-path="url(#clip392)" style="fill:#2e8b57; stroke:none; fill-opacity:0" cx="1743.87" cy="1303.45" r="2"/>
<circle clip-path="url(#clip392)" style="fill:#2e8b57; stroke:none; fill-opacity:0" cx="1795.53" cy="1363.32" r="2"/>
<circle clip-path="url(#clip392)" style="fill:#2e8b57; stroke:none; fill-opacity:0" cx="1847.19" cy="1333.39" r="2"/>
<circle clip-path="url(#clip392)" style="fill:#2e8b57; stroke:none; fill-opacity:0" cx="1898.85" cy="1393.25" r="2"/>
<circle clip-path="url(#clip392)" style="fill:#2e8b57; stroke:none; fill-opacity:0" cx="1950.51" cy="1363.32" r="2"/>
<circle clip-path="url(#clip392)" style="fill:#2e8b57; stroke:none; fill-opacity:0" cx="2002.17" cy="1393.25" r="2"/>
<circle clip-path="url(#clip392)" style="fill:#2e8b57; stroke:none; fill-opacity:0" cx="2053.83" cy="1393.25" r="2"/>
<circle clip-path="url(#clip392)" style="fill:#2e8b57; stroke:none; fill-opacity:0" cx="2105.48" cy="1423.18" r="2"/>
<circle clip-path="url(#clip392)" style="fill:#2e8b57; stroke:none; fill-opacity:0" cx="2157.14" cy="1423.18" r="2"/>
<circle clip-path="url(#clip392)" style="fill:#2e8b57; stroke:none; fill-opacity:0" cx="2208.8" cy="1393.25" r="2"/>
<polyline clip-path="url(#clip392)" style="stroke:#ff0000; stroke-linecap:round; stroke-linejoin:round; stroke-width:8; stroke-opacity:1; fill:none" points="830.126,2740.17 830.126,-1210.8 "/>
<polyline clip-path="url(#clip392)" style="stroke:#006400; stroke-linecap:round; stroke-linejoin:round; stroke-width:8; stroke-opacity:1; fill:none" stroke-dasharray="32, 20" points="946.599,2740.17 946.599,-1210.8 "/>
<path clip-path="url(#clip390)" d="M1632.33 357.452 L2281.17 357.452 L2281.17 150.092 L1632.33 150.092  Z" fill="#ffffff" fill-rule="evenodd" fill-opacity="1"/>
<polyline clip-path="url(#clip390)" style="stroke:#000000; stroke-linecap:round; stroke-linejoin:round; stroke-width:4; stroke-opacity:1; fill:none" points="1632.33,357.452 2281.17,357.452 2281.17,150.092 1632.33,150.092 1632.33,357.452 "/>
<path clip-path="url(#clip390)" d="M1656.2 222.668 L1799.37 222.668 L1799.37 181.196 L1656.2 181.196 L1656.2 222.668  Z" fill="#2e8b57" fill-rule="evenodd" fill-opacity="0.6"/>
<polyline clip-path="url(#clip390)" style="stroke:#000000; stroke-linecap:round; stroke-linejoin:round; stroke-width:4; stroke-opacity:1; fill:none" points="1656.2,222.668 1799.37,222.668 1799.37,181.196 1656.2,181.196 1656.2,222.668 "/>
<path clip-path="url(#clip390)" d="M1845.48 185.786 L1845.48 190.346 Q1842.82 189.073 1840.46 188.448 Q1838.09 187.823 1835.9 187.823 Q1832.08 187.823 1829.99 189.304 Q1827.93 190.786 1827.93 193.517 Q1827.93 195.809 1829.3 196.99 Q1830.69 198.147 1834.53 198.865 L1837.35 199.443 Q1842.59 200.439 1845.06 202.962 Q1847.56 205.462 1847.56 209.675 Q1847.56 214.698 1844.18 217.29 Q1840.83 219.883 1834.32 219.883 Q1831.87 219.883 1829.09 219.327 Q1826.34 218.772 1823.37 217.684 L1823.37 212.869 Q1826.22 214.466 1828.95 215.277 Q1831.68 216.087 1834.32 216.087 Q1838.33 216.087 1840.5 214.513 Q1842.68 212.939 1842.68 210.022 Q1842.68 207.476 1841.1 206.04 Q1839.55 204.605 1835.99 203.888 L1833.14 203.332 Q1827.91 202.291 1825.57 200.068 Q1823.23 197.846 1823.23 193.888 Q1823.23 189.304 1826.45 186.666 Q1829.69 184.027 1835.36 184.027 Q1837.79 184.027 1840.32 184.467 Q1842.84 184.906 1845.48 185.786 Z" fill="#000000" fill-rule="nonzero" fill-opacity="1" /><path clip-path="url(#clip390)" d="M1854.67 193.286 L1858.93 193.286 L1858.93 219.212 L1854.67 219.212 L1854.67 193.286 M1854.67 183.193 L1858.93 183.193 L1858.93 188.587 L1854.67 188.587 L1854.67 183.193 Z" fill="#000000" fill-rule="nonzero" fill-opacity="1" /><path clip-path="url(#clip390)" d="M1888.03 198.263 Q1889.62 195.392 1891.84 194.027 Q1894.07 192.661 1897.08 192.661 Q1901.13 192.661 1903.33 195.508 Q1905.52 198.332 1905.52 203.564 L1905.52 219.212 L1901.24 219.212 L1901.24 203.703 Q1901.24 199.976 1899.92 198.17 Q1898.6 196.365 1895.9 196.365 Q1892.59 196.365 1890.66 198.564 Q1888.74 200.763 1888.74 204.559 L1888.74 219.212 L1884.46 219.212 L1884.46 203.703 Q1884.46 199.953 1883.14 198.17 Q1881.82 196.365 1879.07 196.365 Q1875.8 196.365 1873.88 198.587 Q1871.96 200.786 1871.96 204.559 L1871.96 219.212 L1867.68 219.212 L1867.68 193.286 L1871.96 193.286 L1871.96 197.314 Q1873.42 194.929 1875.46 193.795 Q1877.49 192.661 1880.29 192.661 Q1883.12 192.661 1885.09 194.096 Q1887.08 195.531 1888.03 198.263 Z" fill="#000000" fill-rule="nonzero" fill-opacity="1" /><path clip-path="url(#clip390)" d="M1913.58 208.98 L1913.58 193.286 L1917.84 193.286 L1917.84 208.818 Q1917.84 212.499 1919.27 214.351 Q1920.71 216.179 1923.58 216.179 Q1927.03 216.179 1929.02 213.98 Q1931.03 211.781 1931.03 207.985 L1931.03 193.286 L1935.29 193.286 L1935.29 219.212 L1931.03 219.212 L1931.03 215.23 Q1929.48 217.591 1927.42 218.749 Q1925.39 219.883 1922.68 219.883 Q1918.21 219.883 1915.9 217.105 Q1913.58 214.327 1913.58 208.98 M1924.3 192.661 L1924.3 192.661 Z" fill="#000000" fill-rule="nonzero" fill-opacity="1" /><path clip-path="url(#clip390)" d="M1944.07 183.193 L1948.33 183.193 L1948.33 219.212 L1944.07 219.212 L1944.07 183.193 Z" fill="#000000" fill-rule="nonzero" fill-opacity="1" /><path clip-path="url(#clip390)" d="M1969.02 206.179 Q1963.86 206.179 1961.87 207.36 Q1959.88 208.54 1959.88 211.388 Q1959.88 213.656 1961.36 214.999 Q1962.86 216.318 1965.43 216.318 Q1968.97 216.318 1971.1 213.818 Q1973.26 211.295 1973.26 207.128 L1973.26 206.179 L1969.02 206.179 M1977.52 204.42 L1977.52 219.212 L1973.26 219.212 L1973.26 215.277 Q1971.8 217.638 1969.62 218.772 Q1967.45 219.883 1964.3 219.883 Q1960.32 219.883 1957.96 217.661 Q1955.62 215.415 1955.62 211.665 Q1955.62 207.29 1958.53 205.068 Q1961.47 202.846 1967.28 202.846 L1973.26 202.846 L1973.26 202.429 Q1973.26 199.49 1971.31 197.892 Q1969.39 196.272 1965.89 196.272 Q1963.67 196.272 1961.57 196.804 Q1959.46 197.337 1957.52 198.402 L1957.52 194.466 Q1959.85 193.564 1962.05 193.124 Q1964.25 192.661 1966.33 192.661 Q1971.96 192.661 1974.74 195.578 Q1977.52 198.494 1977.52 204.42 Z" fill="#000000" fill-rule="nonzero" fill-opacity="1" /><path clip-path="url(#clip390)" d="M1990.5 185.925 L1990.5 193.286 L1999.27 193.286 L1999.27 196.596 L1990.5 196.596 L1990.5 210.67 Q1990.5 213.841 1991.36 214.744 Q1992.24 215.647 1994.9 215.647 L1999.27 215.647 L1999.27 219.212 L1994.9 219.212 Q1989.97 219.212 1988.09 217.383 Q1986.22 215.531 1986.22 210.67 L1986.22 196.596 L1983.09 196.596 L1983.09 193.286 L1986.22 193.286 L1986.22 185.925 L1990.5 185.925 Z" fill="#000000" fill-rule="nonzero" fill-opacity="1" /><path clip-path="url(#clip390)" d="M2027.05 205.184 L2027.05 207.267 L2007.47 207.267 Q2007.75 211.665 2010.11 213.98 Q2012.49 216.272 2016.73 216.272 Q2019.18 216.272 2021.47 215.67 Q2023.79 215.068 2026.06 213.865 L2026.06 217.892 Q2023.77 218.864 2021.36 219.374 Q2018.95 219.883 2016.47 219.883 Q2010.27 219.883 2006.64 216.272 Q2003.02 212.661 2003.02 206.503 Q2003.02 200.138 2006.45 196.411 Q2009.9 192.661 2015.73 192.661 Q2020.96 192.661 2024 196.041 Q2027.05 199.397 2027.05 205.184 M2022.79 203.934 Q2022.75 200.439 2020.83 198.355 Q2018.93 196.272 2015.78 196.272 Q2012.21 196.272 2010.06 198.286 Q2007.93 200.3 2007.61 203.957 L2022.79 203.934 Z" fill="#000000" fill-rule="nonzero" fill-opacity="1" /><path clip-path="url(#clip390)" d="M2051.1 197.221 L2051.1 183.193 L2055.36 183.193 L2055.36 219.212 L2051.1 219.212 L2051.1 215.323 Q2049.76 217.638 2047.7 218.772 Q2045.66 219.883 2042.79 219.883 Q2038.09 219.883 2035.13 216.133 Q2032.19 212.383 2032.19 206.272 Q2032.19 200.161 2035.13 196.411 Q2038.09 192.661 2042.79 192.661 Q2045.66 192.661 2047.7 193.795 Q2049.76 194.906 2051.1 197.221 M2036.59 206.272 Q2036.59 210.971 2038.51 213.656 Q2040.45 216.318 2043.83 216.318 Q2047.21 216.318 2049.16 213.656 Q2051.1 210.971 2051.1 206.272 Q2051.1 201.573 2049.16 198.911 Q2047.21 196.226 2043.83 196.226 Q2040.45 196.226 2038.51 198.911 Q2036.59 201.573 2036.59 206.272 Z" fill="#000000" fill-rule="nonzero" fill-opacity="1" /><polyline clip-path="url(#clip390)" style="stroke:#ff0000; stroke-linecap:round; stroke-linejoin:round; stroke-width:8; stroke-opacity:1; fill:none" points="1656.2,253.772 1799.37,253.772 "/>
<path clip-path="url(#clip390)" d="M1839.25 239.663 Q1834.16 239.663 1831.15 243.459 Q1828.16 247.256 1828.16 253.806 Q1828.16 260.334 1831.15 264.13 Q1834.16 267.927 1839.25 267.927 Q1844.34 267.927 1847.31 264.13 Q1850.29 260.334 1850.29 253.806 Q1850.29 247.256 1847.31 243.459 Q1844.34 239.663 1839.25 239.663 M1839.25 235.867 Q1846.52 235.867 1850.87 240.751 Q1855.22 245.612 1855.22 253.806 Q1855.22 261.978 1850.87 266.862 Q1846.52 271.723 1839.25 271.723 Q1831.96 271.723 1827.59 266.862 Q1823.23 262.001 1823.23 253.806 Q1823.23 245.612 1827.59 240.751 Q1831.96 235.867 1839.25 235.867 Z" fill="#000000" fill-rule="nonzero" fill-opacity="1" /><path clip-path="url(#clip390)" d="M1880.96 258.112 Q1880.96 253.413 1879.02 250.751 Q1877.1 248.066 1873.72 248.066 Q1870.34 248.066 1868.4 250.751 Q1866.47 253.413 1866.47 258.112 Q1866.47 262.811 1868.4 265.496 Q1870.34 268.158 1873.72 268.158 Q1877.1 268.158 1879.02 265.496 Q1880.96 262.811 1880.96 258.112 M1866.47 249.061 Q1867.82 246.746 1869.85 245.635 Q1871.91 244.501 1874.76 244.501 Q1879.48 244.501 1882.42 248.251 Q1885.39 252.001 1885.39 258.112 Q1885.39 264.223 1882.42 267.973 Q1879.48 271.723 1874.76 271.723 Q1871.91 271.723 1869.85 270.612 Q1867.82 269.478 1866.47 267.163 L1866.47 271.052 L1862.19 271.052 L1862.19 235.033 L1866.47 235.033 L1866.47 249.061 Z" fill="#000000" fill-rule="nonzero" fill-opacity="1" /><path clip-path="url(#clip390)" d="M1908.97 245.89 L1908.97 249.918 Q1907.17 248.992 1905.22 248.529 Q1903.28 248.066 1901.2 248.066 Q1898.02 248.066 1896.43 249.038 Q1894.85 250.01 1894.85 251.955 Q1894.85 253.436 1895.99 254.293 Q1897.12 255.126 1900.55 255.89 L1902.01 256.214 Q1906.54 257.186 1908.44 258.968 Q1910.36 260.728 1910.36 263.899 Q1910.36 267.51 1907.49 269.617 Q1904.65 271.723 1899.65 271.723 Q1897.56 271.723 1895.29 271.306 Q1893.05 270.913 1890.55 270.103 L1890.55 265.705 Q1892.91 266.931 1895.2 267.556 Q1897.49 268.158 1899.74 268.158 Q1902.75 268.158 1904.37 267.14 Q1905.99 266.098 1905.99 264.223 Q1905.99 262.487 1904.81 261.561 Q1903.65 260.635 1899.69 259.779 L1898.21 259.431 Q1894.25 258.598 1892.49 256.885 Q1890.73 255.149 1890.73 252.14 Q1890.73 248.482 1893.33 246.492 Q1895.92 244.501 1900.69 244.501 Q1903.05 244.501 1905.13 244.848 Q1907.21 245.195 1908.97 245.89 Z" fill="#000000" fill-rule="nonzero" fill-opacity="1" /><path clip-path="url(#clip390)" d="M1939.32 257.024 L1939.32 259.107 L1919.74 259.107 Q1920.02 263.505 1922.38 265.82 Q1924.76 268.112 1929 268.112 Q1931.45 268.112 1933.74 267.51 Q1936.06 266.908 1938.33 265.705 L1938.33 269.732 Q1936.03 270.704 1933.63 271.214 Q1931.22 271.723 1928.74 271.723 Q1922.54 271.723 1918.9 268.112 Q1915.29 264.501 1915.29 258.343 Q1915.29 251.978 1918.72 248.251 Q1922.17 244.501 1928 244.501 Q1933.23 244.501 1936.27 247.881 Q1939.32 251.237 1939.32 257.024 M1935.06 255.774 Q1935.02 252.279 1933.09 250.195 Q1931.2 248.112 1928.05 248.112 Q1924.48 248.112 1922.33 250.126 Q1920.2 252.14 1919.88 255.797 L1935.06 255.774 Z" fill="#000000" fill-rule="nonzero" fill-opacity="1" /><path clip-path="url(#clip390)" d="M1961.33 249.107 Q1960.62 248.691 1959.76 248.506 Q1958.93 248.297 1957.91 248.297 Q1954.3 248.297 1952.35 250.658 Q1950.43 252.996 1950.43 257.394 L1950.43 271.052 L1946.15 271.052 L1946.15 245.126 L1950.43 245.126 L1950.43 249.154 Q1951.77 246.793 1953.93 245.658 Q1956.08 244.501 1959.16 244.501 Q1959.6 244.501 1960.13 244.57 Q1960.66 244.617 1961.31 244.732 L1961.33 249.107 Z" fill="#000000" fill-rule="nonzero" fill-opacity="1" /><path clip-path="url(#clip390)" d="M1962.75 245.126 L1967.26 245.126 L1975.36 266.885 L1983.46 245.126 L1987.98 245.126 L1978.26 271.052 L1972.47 271.052 L1962.75 245.126 Z" fill="#000000" fill-rule="nonzero" fill-opacity="1" /><path clip-path="url(#clip390)" d="M2016.03 257.024 L2016.03 259.107 L1996.45 259.107 Q1996.73 263.505 1999.09 265.82 Q2001.47 268.112 2005.71 268.112 Q2008.16 268.112 2010.45 267.51 Q2012.77 266.908 2015.04 265.705 L2015.04 269.732 Q2012.75 270.704 2010.34 271.214 Q2007.93 271.723 2005.45 271.723 Q1999.25 271.723 1995.62 268.112 Q1992.01 264.501 1992.01 258.343 Q1992.01 251.978 1995.43 248.251 Q1998.88 244.501 2004.71 244.501 Q2009.95 244.501 2012.98 247.881 Q2016.03 251.237 2016.03 257.024 M2011.77 255.774 Q2011.73 252.279 2009.81 250.195 Q2007.91 248.112 2004.76 248.112 Q2001.2 248.112 1999.04 250.126 Q1996.91 252.14 1996.59 255.797 L2011.77 255.774 Z" fill="#000000" fill-rule="nonzero" fill-opacity="1" /><path clip-path="url(#clip390)" d="M2040.08 249.061 L2040.08 235.033 L2044.34 235.033 L2044.34 271.052 L2040.08 271.052 L2040.08 267.163 Q2038.74 269.478 2036.68 270.612 Q2034.64 271.723 2031.77 271.723 Q2027.08 271.723 2024.11 267.973 Q2021.17 264.223 2021.17 258.112 Q2021.17 252.001 2024.11 248.251 Q2027.08 244.501 2031.77 244.501 Q2034.64 244.501 2036.68 245.635 Q2038.74 246.746 2040.08 249.061 M2025.57 258.112 Q2025.57 262.811 2027.49 265.496 Q2029.44 268.158 2032.82 268.158 Q2036.2 268.158 2038.14 265.496 Q2040.08 262.811 2040.08 258.112 Q2040.08 253.413 2038.14 250.751 Q2036.2 248.066 2032.82 248.066 Q2029.44 248.066 2027.49 250.751 Q2025.57 253.413 2025.57 258.112 Z" fill="#000000" fill-rule="nonzero" fill-opacity="1" /><path clip-path="url(#clip390)" d="M2072.4 237.765 L2072.4 245.126 L2081.17 245.126 L2081.17 248.436 L2072.4 248.436 L2072.4 262.51 Q2072.4 265.681 2073.26 266.584 Q2074.14 267.487 2076.8 267.487 L2081.17 267.487 L2081.17 271.052 L2076.8 271.052 Q2071.87 271.052 2069.99 269.223 Q2068.12 267.371 2068.12 262.51 L2068.12 248.436 L2064.99 248.436 L2064.99 245.126 L2068.12 245.126 L2068.12 237.765 L2072.4 237.765 Z" fill="#000000" fill-rule="nonzero" fill-opacity="1" /><path clip-path="url(#clip390)" d="M2108.95 257.024 L2108.95 259.107 L2089.37 259.107 Q2089.64 263.505 2092.01 265.82 Q2094.39 268.112 2098.63 268.112 Q2101.08 268.112 2103.37 267.51 Q2105.69 266.908 2107.95 265.705 L2107.95 269.732 Q2105.66 270.704 2103.26 271.214 Q2100.85 271.723 2098.37 271.723 Q2092.17 271.723 2088.53 268.112 Q2084.92 264.501 2084.92 258.343 Q2084.92 251.978 2088.35 248.251 Q2091.8 244.501 2097.63 244.501 Q2102.86 244.501 2105.89 247.881 Q2108.95 251.237 2108.95 257.024 M2104.69 255.774 Q2104.64 252.279 2102.72 250.195 Q2100.82 248.112 2097.68 248.112 Q2094.11 248.112 2091.96 250.126 Q2089.83 252.14 2089.51 255.797 L2104.69 255.774 Z" fill="#000000" fill-rule="nonzero" fill-opacity="1" /><path clip-path="url(#clip390)" d="M2130.96 249.107 Q2130.25 248.691 2129.39 248.506 Q2128.56 248.297 2127.54 248.297 Q2123.93 248.297 2121.98 250.658 Q2120.06 252.996 2120.06 257.394 L2120.06 271.052 L2115.78 271.052 L2115.78 245.126 L2120.06 245.126 L2120.06 249.154 Q2121.4 246.793 2123.56 245.658 Q2125.71 244.501 2128.79 244.501 Q2129.23 244.501 2129.76 244.57 Q2130.29 244.617 2130.94 244.732 L2130.96 249.107 Z" fill="#000000" fill-rule="nonzero" fill-opacity="1" /><path clip-path="url(#clip390)" d="M2154.78 250.103 Q2156.38 247.232 2158.6 245.867 Q2160.82 244.501 2163.83 244.501 Q2167.88 244.501 2170.08 247.348 Q2172.28 250.172 2172.28 255.404 L2172.28 271.052 L2168 271.052 L2168 255.543 Q2168 251.816 2166.68 250.01 Q2165.36 248.205 2162.65 248.205 Q2159.34 248.205 2157.42 250.404 Q2155.5 252.603 2155.5 256.399 L2155.5 271.052 L2151.22 271.052 L2151.22 255.543 Q2151.22 251.793 2149.9 250.01 Q2148.58 248.205 2145.82 248.205 Q2142.56 248.205 2140.64 250.427 Q2138.72 252.626 2138.72 256.399 L2138.72 271.052 L2134.44 271.052 L2134.44 245.126 L2138.72 245.126 L2138.72 249.154 Q2140.18 246.769 2142.21 245.635 Q2144.25 244.501 2147.05 244.501 Q2149.88 244.501 2151.84 245.936 Q2153.83 247.371 2154.78 250.103 Z" fill="#000000" fill-rule="nonzero" fill-opacity="1" /><path clip-path="url(#clip390)" d="M2180.78 245.126 L2185.04 245.126 L2185.04 271.052 L2180.78 271.052 L2180.78 245.126 M2180.78 235.033 L2185.04 235.033 L2185.04 240.427 L2180.78 240.427 L2180.78 235.033 Z" fill="#000000" fill-rule="nonzero" fill-opacity="1" /><path clip-path="url(#clip390)" d="M2215.5 255.404 L2215.5 271.052 L2211.24 271.052 L2211.24 255.543 Q2211.24 251.862 2209.81 250.033 Q2208.37 248.205 2205.5 248.205 Q2202.05 248.205 2200.06 250.404 Q2198.07 252.603 2198.07 256.399 L2198.07 271.052 L2193.79 271.052 L2193.79 245.126 L2198.07 245.126 L2198.07 249.154 Q2199.6 246.816 2201.66 245.658 Q2203.74 244.501 2206.45 244.501 Q2210.92 244.501 2213.21 247.279 Q2215.5 250.033 2215.5 255.404 Z" fill="#000000" fill-rule="nonzero" fill-opacity="1" /><path clip-path="url(#clip390)" d="M2235.78 258.019 Q2230.62 258.019 2228.63 259.2 Q2226.63 260.38 2226.63 263.228 Q2226.63 265.496 2228.12 266.839 Q2229.62 268.158 2232.19 268.158 Q2235.73 268.158 2237.86 265.658 Q2240.01 263.135 2240.01 258.968 L2240.01 258.019 L2235.78 258.019 M2244.27 256.26 L2244.27 271.052 L2240.01 271.052 L2240.01 267.117 Q2238.56 269.478 2236.38 270.612 Q2234.2 271.723 2231.06 271.723 Q2227.07 271.723 2224.71 269.501 Q2222.38 267.255 2222.38 263.505 Q2222.38 259.13 2225.29 256.908 Q2228.23 254.686 2234.04 254.686 L2240.01 254.686 L2240.01 254.269 Q2240.01 251.33 2238.07 249.732 Q2236.15 248.112 2232.65 248.112 Q2230.43 248.112 2228.32 248.644 Q2226.22 249.177 2224.27 250.242 L2224.27 246.306 Q2226.61 245.404 2228.81 244.964 Q2231.01 244.501 2233.09 244.501 Q2238.72 244.501 2241.5 247.418 Q2244.27 250.334 2244.27 256.26 Z" fill="#000000" fill-rule="nonzero" fill-opacity="1" /><path clip-path="url(#clip390)" d="M2253.05 235.033 L2257.31 235.033 L2257.31 271.052 L2253.05 271.052 L2253.05 235.033 Z" fill="#000000" fill-rule="nonzero" fill-opacity="1" /><polyline clip-path="url(#clip390)" style="stroke:#006400; stroke-linecap:round; stroke-linejoin:round; stroke-width:8; stroke-opacity:1; fill:none" stroke-dasharray="32, 20" points="1656.2,305.612 1799.37,305.612 "/>
<path clip-path="url(#clip390)" d="M1845.48 289.466 L1845.48 294.026 Q1842.82 292.753 1840.46 292.128 Q1838.09 291.503 1835.9 291.503 Q1832.08 291.503 1829.99 292.984 Q1827.93 294.466 1827.93 297.197 Q1827.93 299.489 1829.3 300.67 Q1830.69 301.827 1834.53 302.545 L1837.35 303.123 Q1842.59 304.119 1845.06 306.642 Q1847.56 309.142 1847.56 313.355 Q1847.56 318.378 1844.18 320.97 Q1840.83 323.563 1834.32 323.563 Q1831.87 323.563 1829.09 323.007 Q1826.34 322.452 1823.37 321.364 L1823.37 316.549 Q1826.22 318.146 1828.95 318.957 Q1831.68 319.767 1834.32 319.767 Q1838.33 319.767 1840.5 318.193 Q1842.68 316.619 1842.68 313.702 Q1842.68 311.156 1841.1 309.72 Q1839.55 308.285 1835.99 307.568 L1833.14 307.012 Q1827.91 305.971 1825.57 303.748 Q1823.23 301.526 1823.23 297.568 Q1823.23 292.984 1826.45 290.346 Q1829.69 287.707 1835.36 287.707 Q1837.79 287.707 1840.32 288.147 Q1842.84 288.586 1845.48 289.466 Z" fill="#000000" fill-rule="nonzero" fill-opacity="1" /><path clip-path="url(#clip390)" d="M1854.67 296.966 L1858.93 296.966 L1858.93 322.892 L1854.67 322.892 L1854.67 296.966 M1854.67 286.873 L1858.93 286.873 L1858.93 292.267 L1854.67 292.267 L1854.67 286.873 Z" fill="#000000" fill-rule="nonzero" fill-opacity="1" /><path clip-path="url(#clip390)" d="M1888.03 301.943 Q1889.62 299.072 1891.84 297.707 Q1894.07 296.341 1897.08 296.341 Q1901.13 296.341 1903.33 299.188 Q1905.52 302.012 1905.52 307.244 L1905.52 322.892 L1901.24 322.892 L1901.24 307.383 Q1901.24 303.656 1899.92 301.85 Q1898.6 300.045 1895.9 300.045 Q1892.59 300.045 1890.66 302.244 Q1888.74 304.443 1888.74 308.239 L1888.74 322.892 L1884.46 322.892 L1884.46 307.383 Q1884.46 303.633 1883.14 301.85 Q1881.82 300.045 1879.07 300.045 Q1875.8 300.045 1873.88 302.267 Q1871.96 304.466 1871.96 308.239 L1871.96 322.892 L1867.68 322.892 L1867.68 296.966 L1871.96 296.966 L1871.96 300.994 Q1873.42 298.609 1875.46 297.475 Q1877.49 296.341 1880.29 296.341 Q1883.12 296.341 1885.09 297.776 Q1887.08 299.211 1888.03 301.943 Z" fill="#000000" fill-rule="nonzero" fill-opacity="1" /><path clip-path="url(#clip390)" d="M1913.58 312.66 L1913.58 296.966 L1917.84 296.966 L1917.84 312.498 Q1917.84 316.179 1919.27 318.031 Q1920.71 319.859 1923.58 319.859 Q1927.03 319.859 1929.02 317.66 Q1931.03 315.461 1931.03 311.665 L1931.03 296.966 L1935.29 296.966 L1935.29 322.892 L1931.03 322.892 L1931.03 318.91 Q1929.48 321.271 1927.42 322.429 Q1925.39 323.563 1922.68 323.563 Q1918.21 323.563 1915.9 320.785 Q1913.58 318.007 1913.58 312.66 M1924.3 296.341 L1924.3 296.341 Z" fill="#000000" fill-rule="nonzero" fill-opacity="1" /><path clip-path="url(#clip390)" d="M1944.07 286.873 L1948.33 286.873 L1948.33 322.892 L1944.07 322.892 L1944.07 286.873 Z" fill="#000000" fill-rule="nonzero" fill-opacity="1" /><path clip-path="url(#clip390)" d="M1969.02 309.859 Q1963.86 309.859 1961.87 311.04 Q1959.88 312.22 1959.88 315.068 Q1959.88 317.336 1961.36 318.679 Q1962.86 319.998 1965.43 319.998 Q1968.97 319.998 1971.1 317.498 Q1973.26 314.975 1973.26 310.808 L1973.26 309.859 L1969.02 309.859 M1977.52 308.1 L1977.52 322.892 L1973.26 322.892 L1973.26 318.957 Q1971.8 321.318 1969.62 322.452 Q1967.45 323.563 1964.3 323.563 Q1960.32 323.563 1957.96 321.341 Q1955.62 319.095 1955.62 315.345 Q1955.62 310.97 1958.53 308.748 Q1961.47 306.526 1967.28 306.526 L1973.26 306.526 L1973.26 306.109 Q1973.26 303.17 1971.31 301.572 Q1969.39 299.952 1965.89 299.952 Q1963.67 299.952 1961.57 300.484 Q1959.46 301.017 1957.52 302.082 L1957.52 298.146 Q1959.85 297.244 1962.05 296.804 Q1964.25 296.341 1966.33 296.341 Q1971.96 296.341 1974.74 299.258 Q1977.52 302.174 1977.52 308.1 Z" fill="#000000" fill-rule="nonzero" fill-opacity="1" /><path clip-path="url(#clip390)" d="M1990.5 289.605 L1990.5 296.966 L1999.27 296.966 L1999.27 300.276 L1990.5 300.276 L1990.5 314.35 Q1990.5 317.521 1991.36 318.424 Q1992.24 319.327 1994.9 319.327 L1999.27 319.327 L1999.27 322.892 L1994.9 322.892 Q1989.97 322.892 1988.09 321.063 Q1986.22 319.211 1986.22 314.35 L1986.22 300.276 L1983.09 300.276 L1983.09 296.966 L1986.22 296.966 L1986.22 289.605 L1990.5 289.605 Z" fill="#000000" fill-rule="nonzero" fill-opacity="1" /><path clip-path="url(#clip390)" d="M2027.05 308.864 L2027.05 310.947 L2007.47 310.947 Q2007.75 315.345 2010.11 317.66 Q2012.49 319.952 2016.73 319.952 Q2019.18 319.952 2021.47 319.35 Q2023.79 318.748 2026.06 317.545 L2026.06 321.572 Q2023.77 322.544 2021.36 323.054 Q2018.95 323.563 2016.47 323.563 Q2010.27 323.563 2006.64 319.952 Q2003.02 316.341 2003.02 310.183 Q2003.02 303.818 2006.45 300.091 Q2009.9 296.341 2015.73 296.341 Q2020.96 296.341 2024 299.721 Q2027.05 303.077 2027.05 308.864 M2022.79 307.614 Q2022.75 304.119 2020.83 302.035 Q2018.93 299.952 2015.78 299.952 Q2012.21 299.952 2010.06 301.966 Q2007.93 303.98 2007.61 307.637 L2022.79 307.614 Z" fill="#000000" fill-rule="nonzero" fill-opacity="1" /><path clip-path="url(#clip390)" d="M2051.1 300.901 L2051.1 286.873 L2055.36 286.873 L2055.36 322.892 L2051.1 322.892 L2051.1 319.003 Q2049.76 321.318 2047.7 322.452 Q2045.66 323.563 2042.79 323.563 Q2038.09 323.563 2035.13 319.813 Q2032.19 316.063 2032.19 309.952 Q2032.19 303.841 2035.13 300.091 Q2038.09 296.341 2042.79 296.341 Q2045.66 296.341 2047.7 297.475 Q2049.76 298.586 2051.1 300.901 M2036.59 309.952 Q2036.59 314.651 2038.51 317.336 Q2040.45 319.998 2043.83 319.998 Q2047.21 319.998 2049.16 317.336 Q2051.1 314.651 2051.1 309.952 Q2051.1 305.253 2049.16 302.591 Q2047.21 299.906 2043.83 299.906 Q2040.45 299.906 2038.51 302.591 Q2036.59 305.253 2036.59 309.952 Z" fill="#000000" fill-rule="nonzero" fill-opacity="1" /><path clip-path="url(#clip390)" d="M2099.39 301.943 Q2100.99 299.072 2103.21 297.707 Q2105.43 296.341 2108.44 296.341 Q2112.49 296.341 2114.69 299.188 Q2116.89 302.012 2116.89 307.244 L2116.89 322.892 L2112.61 322.892 L2112.61 307.383 Q2112.61 303.656 2111.29 301.85 Q2109.97 300.045 2107.26 300.045 Q2103.95 300.045 2102.03 302.244 Q2100.11 304.443 2100.11 308.239 L2100.11 322.892 L2095.82 322.892 L2095.82 307.383 Q2095.82 303.633 2094.51 301.85 Q2093.19 300.045 2090.43 300.045 Q2087.17 300.045 2085.25 302.267 Q2083.32 304.466 2083.32 308.239 L2083.32 322.892 L2079.04 322.892 L2079.04 296.966 L2083.32 296.966 L2083.32 300.994 Q2084.78 298.609 2086.82 297.475 Q2088.86 296.341 2091.66 296.341 Q2094.48 296.341 2096.45 297.776 Q2098.44 299.211 2099.39 301.943 Z" fill="#000000" fill-rule="nonzero" fill-opacity="1" /><path clip-path="url(#clip390)" d="M2147.56 308.864 L2147.56 310.947 L2127.98 310.947 Q2128.26 315.345 2130.62 317.66 Q2133 319.952 2137.24 319.952 Q2139.69 319.952 2141.98 319.35 Q2144.3 318.748 2146.57 317.545 L2146.57 321.572 Q2144.27 322.544 2141.87 323.054 Q2139.46 323.563 2136.98 323.563 Q2130.78 323.563 2127.14 319.952 Q2123.53 316.341 2123.53 310.183 Q2123.53 303.818 2126.96 300.091 Q2130.41 296.341 2136.24 296.341 Q2141.47 296.341 2144.51 299.721 Q2147.56 303.077 2147.56 308.864 M2143.3 307.614 Q2143.26 304.119 2141.33 302.035 Q2139.44 299.952 2136.29 299.952 Q2132.72 299.952 2130.57 301.966 Q2128.44 303.98 2128.12 307.637 L2143.3 307.614 Z" fill="#000000" fill-rule="nonzero" fill-opacity="1" /><path clip-path="url(#clip390)" d="M2171.61 300.901 L2171.61 286.873 L2175.87 286.873 L2175.87 322.892 L2171.61 322.892 L2171.61 319.003 Q2170.27 321.318 2168.21 322.452 Q2166.17 323.563 2163.3 323.563 Q2158.6 323.563 2155.64 319.813 Q2152.7 316.063 2152.7 309.952 Q2152.7 303.841 2155.64 300.091 Q2158.6 296.341 2163.3 296.341 Q2166.17 296.341 2168.21 297.475 Q2170.27 298.586 2171.61 300.901 M2157.1 309.952 Q2157.1 314.651 2159.02 317.336 Q2160.96 319.998 2164.34 319.998 Q2167.72 319.998 2169.67 317.336 Q2171.61 314.651 2171.61 309.952 Q2171.61 305.253 2169.67 302.591 Q2167.72 299.906 2164.34 299.906 Q2160.96 299.906 2159.02 302.591 Q2157.1 305.253 2157.1 309.952 Z" fill="#000000" fill-rule="nonzero" fill-opacity="1" /><path clip-path="url(#clip390)" d="M2184.64 296.966 L2188.9 296.966 L2188.9 322.892 L2184.64 322.892 L2184.64 296.966 M2184.64 286.873 L2188.9 286.873 L2188.9 292.267 L2184.64 292.267 L2184.64 286.873 Z" fill="#000000" fill-rule="nonzero" fill-opacity="1" /><path clip-path="url(#clip390)" d="M2209.6 309.859 Q2204.44 309.859 2202.44 311.04 Q2200.45 312.22 2200.45 315.068 Q2200.45 317.336 2201.94 318.679 Q2203.44 319.998 2206.01 319.998 Q2209.55 319.998 2211.68 317.498 Q2213.83 314.975 2213.83 310.808 L2213.83 309.859 L2209.6 309.859 M2218.09 308.1 L2218.09 322.892 L2213.83 322.892 L2213.83 318.957 Q2212.38 321.318 2210.2 322.452 Q2208.02 323.563 2204.88 323.563 Q2200.89 323.563 2198.53 321.341 Q2196.19 319.095 2196.19 315.345 Q2196.19 310.97 2199.11 308.748 Q2202.05 306.526 2207.86 306.526 L2213.83 306.526 L2213.83 306.109 Q2213.83 303.17 2211.89 301.572 Q2209.97 299.952 2206.47 299.952 Q2204.25 299.952 2202.14 300.484 Q2200.04 301.017 2198.09 302.082 L2198.09 298.146 Q2200.43 297.244 2202.63 296.804 Q2204.83 296.341 2206.91 296.341 Q2212.54 296.341 2215.31 299.258 Q2218.09 302.174 2218.09 308.1 Z" fill="#000000" fill-rule="nonzero" fill-opacity="1" /><path clip-path="url(#clip390)" d="M2248.42 307.244 L2248.42 322.892 L2244.16 322.892 L2244.16 307.383 Q2244.16 303.702 2242.72 301.873 Q2241.29 300.045 2238.42 300.045 Q2234.97 300.045 2232.98 302.244 Q2230.99 304.443 2230.99 308.239 L2230.99 322.892 L2226.7 322.892 L2226.7 296.966 L2230.99 296.966 L2230.99 300.994 Q2232.51 298.656 2234.57 297.498 Q2236.66 296.341 2239.37 296.341 Q2243.83 296.341 2246.12 299.119 Q2248.42 301.873 2248.42 307.244 Z" fill="#000000" fill-rule="nonzero" fill-opacity="1" /></svg>
