<?xml version="1.0" encoding="utf-8"?>
<svg xmlns="http://www.w3.org/2000/svg" xmlns:xlink="http://www.w3.org/1999/xlink" width="600" height="400" viewBox="0 0 2400 1600">
<defs>
  <clipPath id="clip120">
    <rect x="0" y="0" width="2400" height="1600"/>
  </clipPath>
</defs>
<path clip-path="url(#clip120)" d="M0 1600 L2400 1600 L2400 8.88178e-14 L0 8.88178e-14  Z" fill="#ffffff" fill-rule="evenodd" fill-opacity="1"/>
<defs>
  <clipPath id="clip121">
    <rect x="234" y="106" width="2120" height="1318"/>
  </clipPath>
</defs>
<path clip-path="url(#clip120)" d="M205.121 1423.18 L2352.76 1423.18 L2352.76 106.192 L205.121 106.192  Z" fill="#ffffff" fill-rule="evenodd" fill-opacity="1"/>
<defs>
  <clipPath id="clip122">
    <rect x="205" y="106" width="2149" height="1318"/>
  </clipPath>
</defs>
<polyline clip-path="url(#clip122)" style="stroke:#000000; stroke-linecap:round; stroke-linejoin:round; stroke-width:2; stroke-opacity:0.1; fill:none" points="476.156,1423.18 476.156,106.192 "/>
<polyline clip-path="url(#clip122)" style="stroke:#000000; stroke-linecap:round; stroke-linejoin:round; stroke-width:2; stroke-opacity:0.1; fill:none" points="858.433,1423.18 858.433,106.192 "/>
<polyline clip-path="url(#clip122)" style="stroke:#000000; stroke-linecap:round; stroke-linejoin:round; stroke-width:2; stroke-opacity:0.1; fill:none" points="1240.71,1423.18 1240.71,106.192 "/>
<polyline clip-path="url(#clip122)" style="stroke:#000000; stroke-linecap:round; stroke-linejoin:round; stroke-width:2; stroke-opacity:0.1; fill:none" points="1622.99,1423.18 1622.99,106.192 "/>
<polyline clip-path="url(#clip122)" style="stroke:#000000; stroke-linecap:round; stroke-linejoin:round; stroke-width:2; stroke-opacity:0.1; fill:none" points="2005.27,1423.18 2005.27,106.192 "/>
<polyline clip-path="url(#clip122)" style="stroke:#000000; stroke-linecap:round; stroke-linejoin:round; stroke-width:2; stroke-opacity:0.1; fill:none" points="205.121,1423.18 2352.76,1423.18 "/>
<polyline clip-path="url(#clip122)" style="stroke:#000000; stroke-linecap:round; stroke-linejoin:round; stroke-width:2; stroke-opacity:0.1; fill:none" points="205.121,1214.13 2352.76,1214.13 "/>
<polyline clip-path="url(#clip122)" style="stroke:#000000; stroke-linecap:round; stroke-linejoin:round; stroke-width:2; stroke-opacity:0.1; fill:none" points="205.121,1005.09 2352.76,1005.09 "/>
<polyline clip-path="url(#clip122)" style="stroke:#000000; stroke-linecap:round; stroke-linejoin:round; stroke-width:2; stroke-opacity:0.1; fill:none" points="205.121,796.043 2352.76,796.043 "/>
<polyline clip-path="url(#clip122)" style="stroke:#000000; stroke-linecap:round; stroke-linejoin:round; stroke-width:2; stroke-opacity:0.1; fill:none" points="205.121,586.997 2352.76,586.997 "/>
<polyline clip-path="url(#clip122)" style="stroke:#000000; stroke-linecap:round; stroke-linejoin:round; stroke-width:2; stroke-opacity:0.1; fill:none" points="205.121,377.951 2352.76,377.951 "/>
<polyline clip-path="url(#clip122)" style="stroke:#000000; stroke-linecap:round; stroke-linejoin:round; stroke-width:2; stroke-opacity:0.1; fill:none" points="205.121,168.906 2352.76,168.906 "/>
<polyline clip-path="url(#clip120)" style="stroke:#000000; stroke-linecap:round; stroke-linejoin:round; stroke-width:4; stroke-opacity:1; fill:none" points="205.121,1423.18 2352.76,1423.18 "/>
<polyline clip-path="url(#clip120)" style="stroke:#000000; stroke-linecap:round; stroke-linejoin:round; stroke-width:4; stroke-opacity:1; fill:none" points="476.156,1423.18 476.156,1404.28 "/>
<polyline clip-path="url(#clip120)" style="stroke:#000000; stroke-linecap:round; stroke-linejoin:round; stroke-width:4; stroke-opacity:1; fill:none" points="858.433,1423.18 858.433,1404.28 "/>
<polyline clip-path="url(#clip120)" style="stroke:#000000; stroke-linecap:round; stroke-linejoin:round; stroke-width:4; stroke-opacity:1; fill:none" points="1240.71,1423.18 1240.71,1404.28 "/>
<polyline clip-path="url(#clip120)" style="stroke:#000000; stroke-linecap:round; stroke-linejoin:round; stroke-width:4; stroke-opacity:1; fill:none" points="1622.99,1423.18 1622.99,1404.28 "/>
<polyline clip-path="url(#clip120)" style="stroke:#000000; stroke-linecap:round; stroke-linejoin:round; stroke-width:4; stroke-opacity:1; fill:none" points="2005.27,1423.18 2005.27,1404.28 "/>
<path clip-path="url(#clip120)" d="M435.762 1481.64 L443.401 1481.64 L443.401 1455.28 L435.091 1456.95 L435.091 1452.69 L443.355 1451.02 L448.031 1451.02 L448.031 1481.64 L455.67 1481.64 L455.67 1485.58 L435.762 1485.58 L435.762 1481.64 Z" fill="#000000" fill-rule="nonzero" fill-opacity="1" /><path clip-path="url(#clip120)" d="M475.114 1454.1 Q471.503 1454.1 469.674 1457.66 Q467.869 1461.2 467.869 1468.33 Q467.869 1475.44 469.674 1479.01 Q471.503 1482.55 475.114 1482.55 Q478.748 1482.55 480.554 1479.01 Q482.383 1475.44 482.383 1468.33 Q482.383 1461.2 480.554 1457.66 Q478.748 1454.1 475.114 1454.1 M475.114 1450.39 Q480.924 1450.39 483.98 1455 Q487.058 1459.58 487.058 1468.33 Q487.058 1477.06 483.98 1481.67 Q480.924 1486.25 475.114 1486.25 Q469.304 1486.25 466.225 1481.67 Q463.17 1477.06 463.17 1468.33 Q463.17 1459.58 466.225 1455 Q469.304 1450.39 475.114 1450.39 Z" fill="#000000" fill-rule="nonzero" fill-opacity="1" /><path clip-path="url(#clip120)" d="M505.276 1454.1 Q501.665 1454.1 499.836 1457.66 Q498.031 1461.2 498.031 1468.33 Q498.031 1475.44 499.836 1479.01 Q501.665 1482.55 505.276 1482.55 Q508.91 1482.55 510.716 1479.01 Q512.544 1475.44 512.544 1468.33 Q512.544 1461.2 510.716 1457.66 Q508.91 1454.1 505.276 1454.1 M505.276 1450.39 Q511.086 1450.39 514.142 1455 Q517.22 1459.58 517.22 1468.33 Q517.22 1477.06 514.142 1481.67 Q511.086 1486.25 505.276 1486.25 Q499.466 1486.25 496.387 1481.67 Q493.332 1477.06 493.332 1468.33 Q493.332 1459.58 496.387 1455 Q499.466 1450.39 505.276 1450.39 Z" fill="#000000" fill-rule="nonzero" fill-opacity="1" /><path clip-path="url(#clip120)" d="M822.126 1481.64 L838.445 1481.64 L838.445 1485.58 L816.501 1485.58 L816.501 1481.64 Q819.163 1478.89 823.746 1474.26 Q828.352 1469.61 829.533 1468.27 Q831.778 1465.74 832.658 1464.01 Q833.561 1462.25 833.561 1460.56 Q833.561 1457.8 831.616 1456.07 Q829.695 1454.33 826.593 1454.33 Q824.394 1454.33 821.94 1455.09 Q819.51 1455.86 816.732 1457.41 L816.732 1452.69 Q819.556 1451.55 822.01 1450.97 Q824.463 1450.39 826.501 1450.39 Q831.871 1450.39 835.065 1453.08 Q838.26 1455.77 838.26 1460.26 Q838.26 1462.39 837.45 1464.31 Q836.662 1466.2 834.556 1468.8 Q833.977 1469.47 830.875 1472.69 Q827.774 1475.88 822.126 1481.64 Z" fill="#000000" fill-rule="nonzero" fill-opacity="1" /><path clip-path="url(#clip120)" d="M858.26 1454.1 Q854.649 1454.1 852.82 1457.66 Q851.014 1461.2 851.014 1468.33 Q851.014 1475.44 852.82 1479.01 Q854.649 1482.55 858.26 1482.55 Q861.894 1482.55 863.699 1479.01 Q865.528 1475.44 865.528 1468.33 Q865.528 1461.2 863.699 1457.66 Q861.894 1454.1 858.26 1454.1 M858.26 1450.39 Q864.07 1450.39 867.125 1455 Q870.204 1459.58 870.204 1468.33 Q870.204 1477.06 867.125 1481.67 Q864.07 1486.25 858.26 1486.25 Q852.449 1486.25 849.371 1481.67 Q846.315 1477.06 846.315 1468.33 Q846.315 1459.58 849.371 1455 Q852.449 1450.39 858.26 1450.39 Z" fill="#000000" fill-rule="nonzero" fill-opacity="1" /><path clip-path="url(#clip120)" d="M888.421 1454.1 Q884.81 1454.1 882.982 1457.66 Q881.176 1461.2 881.176 1468.33 Q881.176 1475.44 882.982 1479.01 Q884.81 1482.55 888.421 1482.55 Q892.056 1482.55 893.861 1479.01 Q895.69 1475.44 895.69 1468.33 Q895.69 1461.2 893.861 1457.66 Q892.056 1454.1 888.421 1454.1 M888.421 1450.39 Q894.232 1450.39 897.287 1455 Q900.366 1459.58 900.366 1468.33 Q900.366 1477.06 897.287 1481.67 Q894.232 1486.25 888.421 1486.25 Q882.611 1486.25 879.533 1481.67 Q876.477 1477.06 876.477 1468.33 Q876.477 1459.58 879.533 1455 Q882.611 1450.39 888.421 1450.39 Z" fill="#000000" fill-rule="nonzero" fill-opacity="1" /><path clip-path="url(#clip120)" d="M1214.47 1466.95 Q1217.83 1467.66 1219.7 1469.93 Q1221.6 1472.2 1221.6 1475.53 Q1221.6 1480.65 1218.08 1483.45 Q1214.56 1486.25 1208.08 1486.25 Q1205.91 1486.25 1203.59 1485.81 Q1201.3 1485.39 1198.85 1484.54 L1198.85 1480.02 Q1200.79 1481.16 1203.11 1481.74 Q1205.42 1482.32 1207.94 1482.32 Q1212.34 1482.32 1214.63 1480.58 Q1216.95 1478.84 1216.95 1475.53 Q1216.95 1472.48 1214.8 1470.77 Q1212.67 1469.03 1208.85 1469.03 L1204.82 1469.03 L1204.82 1465.19 L1209.03 1465.19 Q1212.48 1465.19 1214.31 1463.82 Q1216.14 1462.43 1216.14 1459.84 Q1216.14 1457.18 1214.24 1455.77 Q1212.37 1454.33 1208.85 1454.33 Q1206.93 1454.33 1204.73 1454.75 Q1202.53 1455.16 1199.89 1456.04 L1199.89 1451.88 Q1202.55 1451.14 1204.87 1450.77 Q1207.2 1450.39 1209.26 1450.39 Q1214.59 1450.39 1217.69 1452.83 Q1220.79 1455.23 1220.79 1459.35 Q1220.79 1462.22 1219.15 1464.21 Q1217.5 1466.18 1214.47 1466.95 Z" fill="#000000" fill-rule="nonzero" fill-opacity="1" /><path clip-path="url(#clip120)" d="M1240.47 1454.1 Q1236.86 1454.1 1235.03 1457.66 Q1233.22 1461.2 1233.22 1468.33 Q1233.22 1475.44 1235.03 1479.01 Q1236.86 1482.55 1240.47 1482.55 Q1244.1 1482.55 1245.91 1479.01 Q1247.74 1475.44 1247.74 1468.33 Q1247.74 1461.2 1245.91 1457.66 Q1244.1 1454.1 1240.47 1454.1 M1240.47 1450.39 Q1246.28 1450.39 1249.33 1455 Q1252.41 1459.58 1252.41 1468.33 Q1252.41 1477.06 1249.33 1481.67 Q1246.28 1486.25 1240.47 1486.25 Q1234.66 1486.25 1231.58 1481.67 Q1228.52 1477.06 1228.52 1468.33 Q1228.52 1459.58 1231.58 1455 Q1234.66 1450.39 1240.47 1450.39 Z" fill="#000000" fill-rule="nonzero" fill-opacity="1" /><path clip-path="url(#clip120)" d="M1270.63 1454.1 Q1267.02 1454.1 1265.19 1457.66 Q1263.38 1461.2 1263.38 1468.33 Q1263.38 1475.44 1265.19 1479.01 Q1267.02 1482.55 1270.63 1482.55 Q1274.26 1482.55 1276.07 1479.01 Q1277.9 1475.44 1277.9 1468.33 Q1277.9 1461.2 1276.07 1457.66 Q1274.26 1454.1 1270.63 1454.1 M1270.63 1450.39 Q1276.44 1450.39 1279.5 1455 Q1282.57 1459.58 1282.57 1468.33 Q1282.57 1477.06 1279.5 1481.67 Q1276.44 1486.25 1270.63 1486.25 Q1264.82 1486.25 1261.74 1481.67 Q1258.69 1477.06 1258.69 1468.33 Q1258.69 1459.58 1261.74 1455 Q1264.82 1450.39 1270.63 1450.39 Z" fill="#000000" fill-rule="nonzero" fill-opacity="1" /><path clip-path="url(#clip120)" d="M1596.08 1455.09 L1584.27 1473.54 L1596.08 1473.54 L1596.08 1455.09 M1594.85 1451.02 L1600.73 1451.02 L1600.73 1473.54 L1605.66 1473.54 L1605.66 1477.43 L1600.73 1477.43 L1600.73 1485.58 L1596.08 1485.58 L1596.08 1477.43 L1580.48 1477.43 L1580.48 1472.92 L1594.85 1451.02 Z" fill="#000000" fill-rule="nonzero" fill-opacity="1" /><path clip-path="url(#clip120)" d="M1623.39 1454.1 Q1619.78 1454.1 1617.95 1457.66 Q1616.15 1461.2 1616.15 1468.33 Q1616.15 1475.44 1617.95 1479.01 Q1619.78 1482.55 1623.39 1482.55 Q1627.03 1482.55 1628.83 1479.01 Q1630.66 1475.44 1630.66 1468.33 Q1630.66 1461.2 1628.83 1457.66 Q1627.03 1454.1 1623.39 1454.1 M1623.39 1450.39 Q1629.2 1450.39 1632.26 1455 Q1635.34 1459.58 1635.34 1468.33 Q1635.34 1477.06 1632.26 1481.67 Q1629.2 1486.25 1623.39 1486.25 Q1617.58 1486.25 1614.5 1481.67 Q1611.45 1477.06 1611.45 1468.33 Q1611.45 1459.58 1614.5 1455 Q1617.58 1450.39 1623.39 1450.39 Z" fill="#000000" fill-rule="nonzero" fill-opacity="1" /><path clip-path="url(#clip120)" d="M1653.56 1454.1 Q1649.94 1454.1 1648.12 1457.66 Q1646.31 1461.2 1646.31 1468.33 Q1646.31 1475.44 1648.12 1479.01 Q1649.94 1482.55 1653.56 1482.55 Q1657.19 1482.55 1658.99 1479.01 Q1660.82 1475.44 1660.82 1468.33 Q1660.82 1461.2 1658.99 1457.66 Q1657.19 1454.1 1653.56 1454.1 M1653.56 1450.39 Q1659.37 1450.39 1662.42 1455 Q1665.5 1459.58 1665.5 1468.33 Q1665.5 1477.06 1662.42 1481.67 Q1659.37 1486.25 1653.56 1486.25 Q1647.74 1486.25 1644.67 1481.67 Q1641.61 1477.06 1641.61 1468.33 Q1641.61 1459.58 1644.67 1455 Q1647.74 1450.39 1653.56 1450.39 Z" fill="#000000" fill-rule="nonzero" fill-opacity="1" /><path clip-path="url(#clip120)" d="M1964.88 1451.02 L1983.24 1451.02 L1983.24 1454.96 L1969.17 1454.96 L1969.17 1463.43 Q1970.18 1463.08 1971.2 1462.92 Q1972.22 1462.73 1973.24 1462.73 Q1979.03 1462.73 1982.41 1465.9 Q1985.79 1469.08 1985.79 1474.49 Q1985.79 1480.07 1982.31 1483.17 Q1978.84 1486.25 1972.52 1486.25 Q1970.35 1486.25 1968.08 1485.88 Q1965.83 1485.51 1963.43 1484.77 L1963.43 1480.07 Q1965.51 1481.2 1967.73 1481.76 Q1969.95 1482.32 1972.43 1482.32 Q1976.43 1482.32 1978.77 1480.21 Q1981.11 1478.1 1981.11 1474.49 Q1981.11 1470.88 1978.77 1468.77 Q1976.43 1466.67 1972.43 1466.67 Q1970.56 1466.67 1968.68 1467.08 Q1966.83 1467.5 1964.88 1468.38 L1964.88 1451.02 Z" fill="#000000" fill-rule="nonzero" fill-opacity="1" /><path clip-path="url(#clip120)" d="M2005 1454.1 Q2001.39 1454.1 1999.56 1457.66 Q1997.75 1461.2 1997.75 1468.33 Q1997.75 1475.44 1999.56 1479.01 Q2001.39 1482.55 2005 1482.55 Q2008.63 1482.55 2010.44 1479.01 Q2012.27 1475.44 2012.27 1468.33 Q2012.27 1461.2 2010.44 1457.66 Q2008.63 1454.1 2005 1454.1 M2005 1450.39 Q2010.81 1450.39 2013.87 1455 Q2016.94 1459.58 2016.94 1468.33 Q2016.94 1477.06 2013.87 1481.67 Q2010.81 1486.25 2005 1486.25 Q1999.19 1486.25 1996.11 1481.67 Q1993.06 1477.06 1993.06 1468.33 Q1993.06 1459.58 1996.11 1455 Q1999.19 1450.39 2005 1450.39 Z" fill="#000000" fill-rule="nonzero" fill-opacity="1" /><path clip-path="url(#clip120)" d="M2035.16 1454.1 Q2031.55 1454.1 2029.72 1457.66 Q2027.92 1461.2 2027.92 1468.33 Q2027.92 1475.44 2029.72 1479.01 Q2031.55 1482.55 2035.16 1482.55 Q2038.8 1482.55 2040.6 1479.01 Q2042.43 1475.44 2042.43 1468.33 Q2042.43 1461.2 2040.6 1457.66 Q2038.8 1454.1 2035.16 1454.1 M2035.16 1450.39 Q2040.97 1450.39 2044.03 1455 Q2047.11 1459.58 2047.11 1468.33 Q2047.11 1477.06 2044.03 1481.67 Q2040.97 1486.25 2035.16 1486.25 Q2029.35 1486.25 2026.27 1481.67 Q2023.22 1477.06 2023.22 1468.33 Q2023.22 1459.58 2026.27 1455 Q2029.35 1450.39 2035.16 1450.39 Z" fill="#000000" fill-rule="nonzero" fill-opacity="1" /><path clip-path="url(#clip120)" d="M1051.36 1520.52 L1091.56 1520.52 L1091.56 1525.93 L1074.69 1525.93 L1074.69 1568.04 L1068.23 1568.04 L1068.23 1525.93 L1051.36 1525.93 L1051.36 1520.52 Z" fill="#000000" fill-rule="nonzero" fill-opacity="1" /><path clip-path="url(#clip120)" d="M1116.93 1548.76 L1116.93 1551.62 L1090 1551.62 Q1090.39 1557.67 1093.63 1560.85 Q1096.91 1564 1102.74 1564 Q1106.11 1564 1109.26 1563.17 Q1112.44 1562.35 1115.56 1560.69 L1115.56 1566.23 Q1112.41 1567.57 1109.1 1568.27 Q1105.79 1568.97 1102.39 1568.97 Q1093.86 1568.97 1088.86 1564 Q1083.89 1559.04 1083.89 1550.57 Q1083.89 1541.82 1088.6 1536.69 Q1093.35 1531.54 1101.37 1531.54 Q1108.56 1531.54 1112.73 1536.18 Q1116.93 1540.8 1116.93 1548.76 M1111.07 1547.04 Q1111.01 1542.23 1108.37 1539.37 Q1105.76 1536.5 1101.43 1536.5 Q1096.53 1536.5 1093.57 1539.27 Q1090.64 1542.04 1090.2 1547.07 L1111.07 1547.04 Z" fill="#000000" fill-rule="nonzero" fill-opacity="1" /><path clip-path="url(#clip120)" d="M1147.2 1537.87 Q1146.21 1537.3 1145.04 1537.04 Q1143.89 1536.76 1142.49 1536.76 Q1137.52 1536.76 1134.85 1540 Q1132.21 1543.22 1132.21 1549.27 L1132.21 1568.04 L1126.32 1568.04 L1126.32 1532.4 L1132.21 1532.4 L1132.21 1537.93 Q1134.05 1534.69 1137.02 1533.13 Q1139.98 1531.54 1144.21 1531.54 Q1144.81 1531.54 1145.55 1531.63 Q1146.28 1531.7 1147.17 1531.85 L1147.2 1537.87 Z" fill="#000000" fill-rule="nonzero" fill-opacity="1" /><path clip-path="url(#clip120)" d="M1179.95 1539.24 Q1182.15 1535.29 1185.2 1533.41 Q1188.26 1531.54 1192.4 1531.54 Q1197.97 1531.54 1200.99 1535.45 Q1204.01 1539.33 1204.01 1546.53 L1204.01 1568.04 L1198.13 1568.04 L1198.13 1546.72 Q1198.13 1541.59 1196.31 1539.11 Q1194.5 1536.63 1190.77 1536.63 Q1186.22 1536.63 1183.58 1539.65 Q1180.94 1542.68 1180.94 1547.9 L1180.94 1568.04 L1175.05 1568.04 L1175.05 1546.72 Q1175.05 1541.56 1173.24 1539.11 Q1171.42 1536.63 1167.63 1536.63 Q1163.15 1536.63 1160.5 1539.68 Q1157.86 1542.71 1157.86 1547.9 L1157.86 1568.04 L1151.97 1568.04 L1151.97 1532.4 L1157.86 1532.4 L1157.86 1537.93 Q1159.87 1534.66 1162.67 1533.1 Q1165.47 1531.54 1169.32 1531.54 Q1173.2 1531.54 1175.91 1533.51 Q1178.65 1535.48 1179.95 1539.24 Z" fill="#000000" fill-rule="nonzero" fill-opacity="1" /><path clip-path="url(#clip120)" d="M1215.7 1532.4 L1221.55 1532.4 L1221.55 1568.04 L1215.7 1568.04 L1215.7 1532.4 M1215.7 1518.52 L1221.55 1518.52 L1221.55 1525.93 L1215.7 1525.93 L1215.7 1518.52 Z" fill="#000000" fill-rule="nonzero" fill-opacity="1" /><path clip-path="url(#clip120)" d="M1263.44 1546.53 L1263.44 1568.04 L1257.58 1568.04 L1257.58 1546.72 Q1257.58 1541.66 1255.61 1539.14 Q1253.63 1536.63 1249.69 1536.63 Q1244.95 1536.63 1242.21 1539.65 Q1239.47 1542.68 1239.47 1547.9 L1239.47 1568.04 L1233.58 1568.04 L1233.58 1532.4 L1239.47 1532.4 L1239.47 1537.93 Q1241.57 1534.72 1244.4 1533.13 Q1247.27 1531.54 1250.99 1531.54 Q1257.14 1531.54 1260.29 1535.36 Q1263.44 1539.14 1263.44 1546.53 Z" fill="#000000" fill-rule="nonzero" fill-opacity="1" /><path clip-path="url(#clip120)" d="M1291.32 1550.12 Q1284.22 1550.12 1281.48 1551.75 Q1278.75 1553.37 1278.75 1557.29 Q1278.75 1560.4 1280.78 1562.25 Q1282.85 1564.07 1286.39 1564.07 Q1291.26 1564.07 1294.18 1560.63 Q1297.14 1557.16 1297.14 1551.43 L1297.14 1550.12 L1291.32 1550.12 M1303 1547.71 L1303 1568.04 L1297.14 1568.04 L1297.14 1562.63 Q1295.14 1565.88 1292.15 1567.44 Q1289.16 1568.97 1284.83 1568.97 Q1279.35 1568.97 1276.11 1565.91 Q1272.89 1562.82 1272.89 1557.67 Q1272.89 1551.65 1276.9 1548.6 Q1280.94 1545.54 1288.93 1545.54 L1297.14 1545.54 L1297.14 1544.97 Q1297.14 1540.93 1294.47 1538.73 Q1291.83 1536.5 1287.02 1536.5 Q1283.97 1536.5 1281.07 1537.23 Q1278.17 1537.97 1275.5 1539.43 L1275.5 1534.02 Q1278.72 1532.78 1281.74 1532.17 Q1284.76 1531.54 1287.63 1531.54 Q1295.36 1531.54 1299.18 1535.55 Q1303 1539.56 1303 1547.71 Z" fill="#000000" fill-rule="nonzero" fill-opacity="1" /><path clip-path="url(#clip120)" d="M1315.06 1518.52 L1320.92 1518.52 L1320.92 1568.04 L1315.06 1568.04 L1315.06 1518.52 Z" fill="#000000" fill-rule="nonzero" fill-opacity="1" /><path clip-path="url(#clip120)" d="M1359.56 1562.7 L1359.56 1581.6 L1353.67 1581.6 L1353.67 1532.4 L1359.56 1532.4 L1359.56 1537.81 Q1361.41 1534.62 1364.21 1533.1 Q1367.04 1531.54 1370.95 1531.54 Q1377.45 1531.54 1381.49 1536.69 Q1385.56 1541.85 1385.56 1550.25 Q1385.56 1558.65 1381.49 1563.81 Q1377.45 1568.97 1370.95 1568.97 Q1367.04 1568.97 1364.21 1567.44 Q1361.41 1565.88 1359.56 1562.7 M1379.48 1550.25 Q1379.48 1543.79 1376.81 1540.13 Q1374.17 1536.44 1369.52 1536.44 Q1364.88 1536.44 1362.2 1540.13 Q1359.56 1543.79 1359.56 1550.25 Q1359.56 1556.71 1362.2 1560.4 Q1364.88 1564.07 1369.52 1564.07 Q1374.17 1564.07 1376.81 1560.4 Q1379.48 1556.71 1379.48 1550.25 Z" fill="#000000" fill-rule="nonzero" fill-opacity="1" /><path clip-path="url(#clip120)" d="M1415.93 1537.87 Q1414.94 1537.3 1413.76 1537.04 Q1412.62 1536.76 1411.22 1536.76 Q1406.25 1536.76 1403.58 1540 Q1400.94 1543.22 1400.94 1549.27 L1400.94 1568.04 L1395.05 1568.04 L1395.05 1532.4 L1400.94 1532.4 L1400.94 1537.93 Q1402.78 1534.69 1405.74 1533.13 Q1408.7 1531.54 1412.94 1531.54 Q1413.54 1531.54 1414.27 1531.63 Q1415.01 1531.7 1415.9 1531.85 L1415.93 1537.87 Z" fill="#000000" fill-rule="nonzero" fill-opacity="1" /><path clip-path="url(#clip120)" d="M1422.07 1532.4 L1427.93 1532.4 L1427.93 1568.04 L1422.07 1568.04 L1422.07 1532.4 M1422.07 1518.52 L1427.93 1518.52 L1427.93 1525.93 L1422.07 1525.93 L1422.07 1518.52 Z" fill="#000000" fill-rule="nonzero" fill-opacity="1" /><path clip-path="url(#clip120)" d="M1465.84 1533.76 L1465.84 1539.24 Q1463.35 1537.87 1460.84 1537.2 Q1458.36 1536.5 1455.81 1536.5 Q1450.11 1536.5 1446.96 1540.13 Q1443.81 1543.73 1443.81 1550.25 Q1443.81 1556.78 1446.96 1560.4 Q1450.11 1564 1455.81 1564 Q1458.36 1564 1460.84 1563.33 Q1463.35 1562.63 1465.84 1561.26 L1465.84 1566.68 Q1463.38 1567.82 1460.74 1568.39 Q1458.13 1568.97 1455.17 1568.97 Q1447.12 1568.97 1442.38 1563.91 Q1437.64 1558.85 1437.64 1550.25 Q1437.64 1541.53 1442.41 1536.53 Q1447.22 1531.54 1455.55 1531.54 Q1458.26 1531.54 1460.84 1532.11 Q1463.42 1532.65 1465.84 1533.76 Z" fill="#000000" fill-rule="nonzero" fill-opacity="1" /><path clip-path="url(#clip120)" d="M1506.51 1548.76 L1506.51 1551.62 L1479.59 1551.62 Q1479.97 1557.67 1483.21 1560.85 Q1486.49 1564 1492.32 1564 Q1495.69 1564 1498.84 1563.17 Q1502.02 1562.35 1505.14 1560.69 L1505.14 1566.23 Q1501.99 1567.57 1498.68 1568.27 Q1495.37 1568.97 1491.97 1568.97 Q1483.44 1568.97 1478.44 1564 Q1473.47 1559.04 1473.47 1550.57 Q1473.47 1541.82 1478.19 1536.69 Q1482.93 1531.54 1490.95 1531.54 Q1498.14 1531.54 1502.31 1536.18 Q1506.51 1540.8 1506.51 1548.76 M1500.66 1547.04 Q1500.59 1542.23 1497.95 1539.37 Q1495.34 1536.5 1491.01 1536.5 Q1486.11 1536.5 1483.15 1539.27 Q1480.22 1542.04 1479.78 1547.07 L1500.66 1547.04 Z" fill="#000000" fill-rule="nonzero" fill-opacity="1" /><polyline clip-path="url(#clip120)" style="stroke:#000000; stroke-linecap:round; stroke-linejoin:round; stroke-width:4; stroke-opacity:1; fill:none" points="205.121,1423.18 205.121,106.192 "/>
<polyline clip-path="url(#clip120)" style="stroke:#000000; stroke-linecap:round; stroke-linejoin:round; stroke-width:4; stroke-opacity:1; fill:none" points="205.121,1423.18 224.019,1423.18 "/>
<polyline clip-path="url(#clip120)" style="stroke:#000000; stroke-linecap:round; stroke-linejoin:round; stroke-width:4; stroke-opacity:1; fill:none" points="205.121,1214.13 224.019,1214.13 "/>
<polyline clip-path="url(#clip120)" style="stroke:#000000; stroke-linecap:round; stroke-linejoin:round; stroke-width:4; stroke-opacity:1; fill:none" points="205.121,1005.09 224.019,1005.09 "/>
<polyline clip-path="url(#clip120)" style="stroke:#000000; stroke-linecap:round; stroke-linejoin:round; stroke-width:4; stroke-opacity:1; fill:none" points="205.121,796.043 224.019,796.043 "/>
<polyline clip-path="url(#clip120)" style="stroke:#000000; stroke-linecap:round; stroke-linejoin:round; stroke-width:4; stroke-opacity:1; fill:none" points="205.121,586.997 224.019,586.997 "/>
<polyline clip-path="url(#clip120)" style="stroke:#000000; stroke-linecap:round; stroke-linejoin:round; stroke-width:4; stroke-opacity:1; fill:none" points="205.121,377.951 224.019,377.951 "/>
<polyline clip-path="url(#clip120)" style="stroke:#000000; stroke-linecap:round; stroke-linejoin:round; stroke-width:4; stroke-opacity:1; fill:none" points="205.121,168.906 224.019,168.906 "/>
<path clip-path="url(#clip120)" d="M157.177 1408.98 Q153.566 1408.98 151.737 1412.54 Q149.931 1416.08 149.931 1423.21 Q149.931 1430.32 151.737 1433.89 Q153.566 1437.43 157.177 1437.43 Q160.811 1437.43 162.616 1433.89 Q164.445 1430.32 164.445 1423.21 Q164.445 1416.08 162.616 1412.54 Q160.811 1408.98 157.177 1408.98 M157.177 1405.27 Q162.987 1405.27 166.042 1409.88 Q169.121 1414.46 169.121 1423.21 Q169.121 1431.94 166.042 1436.55 Q162.987 1441.13 157.177 1441.13 Q151.366 1441.13 148.288 1436.55 Q145.232 1431.94 145.232 1423.21 Q145.232 1414.46 148.288 1409.88 Q151.366 1405.27 157.177 1405.27 Z" fill="#000000" fill-rule="nonzero" fill-opacity="1" /><path clip-path="url(#clip120)" d="M117.825 1227.48 L125.464 1227.48 L125.464 1201.11 L117.154 1202.78 L117.154 1198.52 L125.418 1196.85 L130.093 1196.85 L130.093 1227.48 L137.732 1227.48 L137.732 1231.41 L117.825 1231.41 L117.825 1227.48 Z" fill="#000000" fill-rule="nonzero" fill-opacity="1" /><path clip-path="url(#clip120)" d="M157.177 1199.93 Q153.566 1199.93 151.737 1203.5 Q149.931 1207.04 149.931 1214.17 Q149.931 1221.28 151.737 1224.84 Q153.566 1228.38 157.177 1228.38 Q160.811 1228.38 162.616 1224.84 Q164.445 1221.28 164.445 1214.17 Q164.445 1207.04 162.616 1203.5 Q160.811 1199.93 157.177 1199.93 M157.177 1196.23 Q162.987 1196.23 166.042 1200.84 Q169.121 1205.42 169.121 1214.17 Q169.121 1222.9 166.042 1227.5 Q162.987 1232.09 157.177 1232.09 Q151.366 1232.09 148.288 1227.5 Q145.232 1222.9 145.232 1214.17 Q145.232 1205.42 148.288 1200.84 Q151.366 1196.23 157.177 1196.23 Z" fill="#000000" fill-rule="nonzero" fill-opacity="1" /><path clip-path="url(#clip120)" d="M121.043 1018.43 L137.362 1018.43 L137.362 1022.37 L115.418 1022.37 L115.418 1018.43 Q118.08 1015.68 122.663 1011.05 Q127.269 1006.4 128.45 1005.05 Q130.695 1002.53 131.575 1000.79 Q132.478 999.035 132.478 997.345 Q132.478 994.591 130.533 992.855 Q128.612 991.119 125.51 991.119 Q123.311 991.119 120.857 991.883 Q118.427 992.646 115.649 994.197 L115.649 989.475 Q118.473 988.341 120.927 987.762 Q123.38 987.184 125.418 987.184 Q130.788 987.184 133.982 989.869 Q137.177 992.554 137.177 997.045 Q137.177 999.174 136.367 1001.1 Q135.579 1002.99 133.473 1005.59 Q132.894 1006.26 129.792 1009.48 Q126.691 1012.67 121.043 1018.43 Z" fill="#000000" fill-rule="nonzero" fill-opacity="1" /><path clip-path="url(#clip120)" d="M157.177 990.887 Q153.566 990.887 151.737 994.452 Q149.931 997.994 149.931 1005.12 Q149.931 1012.23 151.737 1015.79 Q153.566 1019.34 157.177 1019.34 Q160.811 1019.34 162.616 1015.79 Q164.445 1012.23 164.445 1005.12 Q164.445 997.994 162.616 994.452 Q160.811 990.887 157.177 990.887 M157.177 987.184 Q162.987 987.184 166.042 991.79 Q169.121 996.373 169.121 1005.12 Q169.121 1013.85 166.042 1018.46 Q162.987 1023.04 157.177 1023.04 Q151.366 1023.04 148.288 1018.46 Q145.232 1013.85 145.232 1005.12 Q145.232 996.373 148.288 991.79 Q151.366 987.184 157.177 987.184 Z" fill="#000000" fill-rule="nonzero" fill-opacity="1" /><path clip-path="url(#clip120)" d="M131.181 794.689 Q134.538 795.406 136.413 797.675 Q138.311 799.943 138.311 803.277 Q138.311 808.392 134.792 811.193 Q131.274 813.994 124.793 813.994 Q122.617 813.994 120.302 813.554 Q118.01 813.138 115.556 812.281 L115.556 807.767 Q117.501 808.902 119.816 809.48 Q122.13 810.059 124.654 810.059 Q129.052 810.059 131.343 808.323 Q133.658 806.587 133.658 803.277 Q133.658 800.221 131.505 798.508 Q129.376 796.772 125.556 796.772 L121.529 796.772 L121.529 792.929 L125.742 792.929 Q129.191 792.929 131.019 791.564 Q132.848 790.175 132.848 787.582 Q132.848 784.92 130.95 783.508 Q129.075 782.073 125.556 782.073 Q123.635 782.073 121.436 782.49 Q119.237 782.906 116.598 783.786 L116.598 779.619 Q119.26 778.879 121.575 778.508 Q123.913 778.138 125.973 778.138 Q131.297 778.138 134.399 780.568 Q137.501 782.976 137.501 787.096 Q137.501 789.966 135.857 791.957 Q134.214 793.925 131.181 794.689 Z" fill="#000000" fill-rule="nonzero" fill-opacity="1" /><path clip-path="url(#clip120)" d="M157.177 781.842 Q153.566 781.842 151.737 785.406 Q149.931 788.948 149.931 796.078 Q149.931 803.184 151.737 806.749 Q153.566 810.29 157.177 810.29 Q160.811 810.29 162.616 806.749 Q164.445 803.184 164.445 796.078 Q164.445 788.948 162.616 785.406 Q160.811 781.842 157.177 781.842 M157.177 778.138 Q162.987 778.138 166.042 782.744 Q169.121 787.328 169.121 796.078 Q169.121 804.804 166.042 809.411 Q162.987 813.994 157.177 813.994 Q151.366 813.994 148.288 809.411 Q145.232 804.804 145.232 796.078 Q145.232 787.328 148.288 782.744 Q151.366 778.138 157.177 778.138 Z" fill="#000000" fill-rule="nonzero" fill-opacity="1" /><path clip-path="url(#clip120)" d="M129.862 573.791 L118.056 592.24 L129.862 592.24 L129.862 573.791 M128.635 569.717 L134.515 569.717 L134.515 592.24 L139.445 592.24 L139.445 596.129 L134.515 596.129 L134.515 604.277 L129.862 604.277 L129.862 596.129 L114.26 596.129 L114.26 591.615 L128.635 569.717 Z" fill="#000000" fill-rule="nonzero" fill-opacity="1" /><path clip-path="url(#clip120)" d="M157.177 572.796 Q153.566 572.796 151.737 576.361 Q149.931 579.902 149.931 587.032 Q149.931 594.138 151.737 597.703 Q153.566 601.245 157.177 601.245 Q160.811 601.245 162.616 597.703 Q164.445 594.138 164.445 587.032 Q164.445 579.902 162.616 576.361 Q160.811 572.796 157.177 572.796 M157.177 569.092 Q162.987 569.092 166.042 573.699 Q169.121 578.282 169.121 587.032 Q169.121 595.759 166.042 600.365 Q162.987 604.948 157.177 604.948 Q151.366 604.948 148.288 600.365 Q145.232 595.759 145.232 587.032 Q145.232 578.282 148.288 573.699 Q151.366 569.092 157.177 569.092 Z" fill="#000000" fill-rule="nonzero" fill-opacity="1" /><path clip-path="url(#clip120)" d="M117.061 360.671 L135.417 360.671 L135.417 364.607 L121.343 364.607 L121.343 373.079 Q122.362 372.732 123.38 372.57 Q124.399 372.384 125.418 372.384 Q131.205 372.384 134.584 375.556 Q137.964 378.727 137.964 384.144 Q137.964 389.722 134.492 392.824 Q131.019 395.903 124.7 395.903 Q122.524 395.903 120.255 395.532 Q118.01 395.162 115.603 394.421 L115.603 389.722 Q117.686 390.857 119.908 391.412 Q122.13 391.968 124.607 391.968 Q128.612 391.968 130.95 389.861 Q133.288 387.755 133.288 384.144 Q133.288 380.533 130.95 378.426 Q128.612 376.32 124.607 376.32 Q122.732 376.32 120.857 376.736 Q119.006 377.153 117.061 378.033 L117.061 360.671 Z" fill="#000000" fill-rule="nonzero" fill-opacity="1" /><path clip-path="url(#clip120)" d="M157.177 363.75 Q153.566 363.75 151.737 367.315 Q149.931 370.857 149.931 377.986 Q149.931 385.093 151.737 388.657 Q153.566 392.199 157.177 392.199 Q160.811 392.199 162.616 388.657 Q164.445 385.093 164.445 377.986 Q164.445 370.857 162.616 367.315 Q160.811 363.75 157.177 363.75 M157.177 360.046 Q162.987 360.046 166.042 364.653 Q169.121 369.236 169.121 377.986 Q169.121 386.713 166.042 391.319 Q162.987 395.903 157.177 395.903 Q151.366 395.903 148.288 391.319 Q145.232 386.713 145.232 377.986 Q145.232 369.236 148.288 364.653 Q151.366 360.046 157.177 360.046 Z" fill="#000000" fill-rule="nonzero" fill-opacity="1" /><path clip-path="url(#clip120)" d="M127.593 167.042 Q124.445 167.042 122.593 169.195 Q120.765 171.348 120.765 175.098 Q120.765 178.825 122.593 181.001 Q124.445 183.153 127.593 183.153 Q130.742 183.153 132.57 181.001 Q134.422 178.825 134.422 175.098 Q134.422 171.348 132.57 169.195 Q130.742 167.042 127.593 167.042 M136.876 152.39 L136.876 156.649 Q135.117 155.816 133.311 155.376 Q131.529 154.936 129.769 154.936 Q125.14 154.936 122.686 158.061 Q120.255 161.186 119.908 167.505 Q121.274 165.491 123.334 164.427 Q125.394 163.339 127.871 163.339 Q133.08 163.339 136.089 166.51 Q139.121 169.658 139.121 175.098 Q139.121 180.422 135.973 183.64 Q132.825 186.857 127.593 186.857 Q121.598 186.857 118.427 182.274 Q115.256 177.667 115.256 168.941 Q115.256 160.746 119.144 155.885 Q123.033 151.001 129.584 151.001 Q131.343 151.001 133.126 151.348 Q134.931 151.695 136.876 152.39 Z" fill="#000000" fill-rule="nonzero" fill-opacity="1" /><path clip-path="url(#clip120)" d="M157.177 154.705 Q153.566 154.705 151.737 158.269 Q149.931 161.811 149.931 168.941 Q149.931 176.047 151.737 179.612 Q153.566 183.153 157.177 183.153 Q160.811 183.153 162.616 179.612 Q164.445 176.047 164.445 168.941 Q164.445 161.811 162.616 158.269 Q160.811 154.705 157.177 154.705 M157.177 151.001 Q162.987 151.001 166.042 155.607 Q169.121 160.191 169.121 168.941 Q169.121 177.667 166.042 182.274 Q162.987 186.857 157.177 186.857 Q151.366 186.857 148.288 182.274 Q145.232 177.667 145.232 168.941 Q145.232 160.191 148.288 155.607 Q151.366 151.001 157.177 151.001 Z" fill="#000000" fill-rule="nonzero" fill-opacity="1" /><path clip-path="url(#clip120)" d="M20.1444 820.545 L26.9239 820.545 Q23.9002 823.792 22.4043 827.484 Q20.9083 831.144 20.9083 835.282 Q20.9083 843.43 25.9054 847.758 Q30.8707 852.087 40.2919 852.087 Q49.6813 852.087 54.6784 847.758 Q59.6436 843.43 59.6436 835.282 Q59.6436 831.144 58.1477 827.484 Q56.6518 823.792 53.6281 820.545 L60.3439 820.545 Q62.6355 823.919 63.7814 827.706 Q64.9272 831.462 64.9272 835.664 Q64.9272 846.453 58.3387 852.66 Q51.7183 858.867 40.2919 858.867 Q28.8336 858.867 22.2451 852.66 Q15.6248 846.453 15.6248 835.664 Q15.6248 831.399 16.7706 827.643 Q17.8846 823.855 20.1444 820.545 Z" fill="#000000" fill-rule="nonzero" fill-opacity="1" /><path clip-path="url(#clip120)" d="M32.4621 797.056 Q32.4621 801.766 36.1542 804.503 Q39.8145 807.241 46.212 807.241 Q52.6095 807.241 56.3017 804.535 Q59.9619 801.798 59.9619 797.056 Q59.9619 792.377 56.2698 789.64 Q52.5777 786.902 46.212 786.902 Q39.8781 786.902 36.186 789.64 Q32.4621 792.377 32.4621 797.056 M27.4968 797.056 Q27.4968 789.417 32.4621 785.056 Q37.4273 780.696 46.212 780.696 Q54.9649 780.696 59.9619 785.056 Q64.9272 789.417 64.9272 797.056 Q64.9272 804.726 59.9619 809.087 Q54.9649 813.415 46.212 813.415 Q37.4273 813.415 32.4621 809.087 Q27.4968 804.726 27.4968 797.056 Z" fill="#000000" fill-rule="nonzero" fill-opacity="1" /><path clip-path="url(#clip120)" d="M49.9359 771.593 L28.3562 771.593 L28.3562 765.736 L49.7131 765.736 Q54.7739 765.736 57.3202 763.763 Q59.8346 761.79 59.8346 757.843 Q59.8346 753.1 56.8109 750.363 Q53.7872 747.594 48.5673 747.594 L28.3562 747.594 L28.3562 741.738 L64.0042 741.738 L64.0042 747.594 L58.5296 747.594 Q61.7762 749.727 63.3676 752.559 Q64.9272 755.36 64.9272 759.084 Q64.9272 765.227 61.1078 768.41 Q57.2883 771.593 49.9359 771.593 M27.4968 756.856 L27.4968 756.856 Z" fill="#000000" fill-rule="nonzero" fill-opacity="1" /><path clip-path="url(#clip120)" d="M42.4881 700.042 L64.0042 700.042 L64.0042 705.899 L42.679 705.899 Q37.6183 705.899 35.1038 707.872 Q32.5894 709.845 32.5894 713.792 Q32.5894 718.535 35.6131 721.272 Q38.6368 724.009 43.8567 724.009 L64.0042 724.009 L64.0042 729.897 L28.3562 729.897 L28.3562 724.009 L33.8944 724.009 Q30.6797 721.908 29.0883 719.076 Q27.4968 716.211 27.4968 712.487 Q27.4968 706.344 31.3163 703.193 Q35.1038 700.042 42.4881 700.042 Z" fill="#000000" fill-rule="nonzero" fill-opacity="1" /><path clip-path="url(#clip120)" d="M18.2347 682.568 L28.3562 682.568 L28.3562 670.505 L32.9077 670.505 L32.9077 682.568 L52.2594 682.568 Q56.6199 682.568 57.8613 681.391 Q59.1026 680.181 59.1026 676.521 L59.1026 670.505 L64.0042 670.505 L64.0042 676.521 Q64.0042 683.3 61.4897 685.879 Q58.9434 688.457 52.2594 688.457 L32.9077 688.457 L32.9077 692.753 L28.3562 692.753 L28.3562 688.457 L18.2347 688.457 L18.2347 682.568 Z" fill="#000000" fill-rule="nonzero" fill-opacity="1" /><path clip-path="url(#clip120)" d="M675.484 8.64 L681.329 8.64 L681.329 48.8308 Q681.329 56.6432 678.348 60.1733 Q675.397 63.7034 668.829 63.7034 L666.601 63.7034 L666.601 58.7844 L668.424 58.7844 Q672.301 58.7844 673.892 56.6143 Q675.484 54.4442 675.484 48.8308 L675.484 8.64 Z" fill="#000000" fill-rule="nonzero" fill-opacity="1" /><path clip-path="url(#clip120)" d="M698.806 13.4432 L698.806 29.6758 L706.155 29.6758 Q710.235 29.6758 712.463 27.5635 Q714.691 25.4513 714.691 21.545 Q714.691 17.6677 712.463 15.5555 Q710.235 13.4432 706.155 13.4432 L698.806 13.4432 M692.961 8.64 L706.155 8.64 Q713.418 8.64 717.121 11.9386 Q720.854 15.2083 720.854 21.545 Q720.854 27.9397 717.121 31.2093 Q713.418 34.479 706.155 34.479 L698.806 34.479 L698.806 51.84 L692.961 51.84 L692.961 8.64 Z" fill="#000000" fill-rule="nonzero" fill-opacity="1" /><path clip-path="url(#clip120)" d="M728.695 8.64 L737.405 8.64 L748.429 38.038 L759.511 8.64 L768.221 8.64 L768.221 51.84 L762.52 51.84 L762.52 13.9062 L751.381 43.5356 L745.507 43.5356 L734.367 13.9062 L734.367 51.84 L728.695 51.84 L728.695 8.64 Z" fill="#000000" fill-rule="nonzero" fill-opacity="1" /><path clip-path="url(#clip120)" d="M795.738 33.2348 L811.334 33.2348 L811.334 37.9801 L795.738 37.9801 L795.738 33.2348 Z" fill="#000000" fill-rule="nonzero" fill-opacity="1" /><path clip-path="url(#clip120)" d="M850.02 51.84 L833.527 8.64 L839.632 8.64 L853.319 45.0113 L867.034 8.64 L873.11 8.64 L856.646 51.84 L850.02 51.84 Z" fill="#000000" fill-rule="nonzero" fill-opacity="1" /><path clip-path="url(#clip120)" d="M879.418 8.64 L885.263 8.64 L885.263 51.84 L879.418 51.84 L879.418 8.64 Z" fill="#000000" fill-rule="nonzero" fill-opacity="1" /><path clip-path="url(#clip120)" d="M894.811 8.64 L901.09 8.64 L911.825 24.6989 L922.618 8.64 L928.897 8.64 L915.008 29.3864 L929.823 51.84 L923.544 51.84 L911.391 33.4663 L899.152 51.84 L892.844 51.84 L908.266 28.7788 L894.811 8.64 Z" fill="#000000" fill-rule="nonzero" fill-opacity="1" /><path clip-path="url(#clip120)" d="M931.617 33.2348 L947.213 33.2348 L947.213 37.9801 L931.617 37.9801 L931.617 33.2348 Z" fill="#000000" fill-rule="nonzero" fill-opacity="1" /><path clip-path="url(#clip120)" d="M979.012 20.677 L979.012 25.6538 Q976.755 24.4096 974.47 23.802 Q972.213 23.1654 969.898 23.1654 Q964.718 23.1654 961.854 26.464 Q958.989 29.7336 958.989 35.6653 Q958.989 41.597 961.854 44.8956 Q964.718 48.1653 969.898 48.1653 Q972.213 48.1653 974.47 47.5576 Q976.755 46.921 979.012 45.6768 L979.012 50.5958 Q976.784 51.6375 974.383 52.1583 Q972.01 52.6791 969.319 52.6791 Q961.999 52.6791 957.687 48.0784 Q953.376 43.4778 953.376 35.6653 Q953.376 27.7371 957.716 23.1943 Q962.085 18.6515 969.666 18.6515 Q972.126 18.6515 974.47 19.1724 Q976.813 19.6642 979.012 20.677 Z" fill="#000000" fill-rule="nonzero" fill-opacity="1" /><path clip-path="url(#clip120)" d="M1000.83 23.1654 Q996.547 23.1654 994.059 26.5218 Q991.57 29.8494 991.57 35.6653 Q991.57 41.4813 994.03 44.8377 Q996.518 48.1653 1000.83 48.1653 Q1005.08 48.1653 1007.57 44.8088 Q1010.06 41.4523 1010.06 35.6653 Q1010.06 29.9072 1007.57 26.5508 Q1005.08 23.1654 1000.83 23.1654 M1000.83 18.6515 Q1007.77 18.6515 1011.74 23.1654 Q1015.7 27.6792 1015.7 35.6653 Q1015.7 43.6225 1011.74 48.1653 Q1007.77 52.6791 1000.83 52.6791 Q993.856 52.6791 989.892 48.1653 Q985.957 43.6225 985.957 35.6653 Q985.957 27.6792 989.892 23.1654 Q993.856 18.6515 1000.83 18.6515 Z" fill="#000000" fill-rule="nonzero" fill-opacity="1" /><path clip-path="url(#clip120)" d="M1051.47 32.2799 L1051.47 51.84 L1046.14 51.84 L1046.14 32.4535 Q1046.14 27.8529 1044.35 25.567 Q1042.55 23.2811 1038.97 23.2811 Q1034.65 23.2811 1032.17 26.03 Q1029.68 28.7788 1029.68 33.5241 L1029.68 51.84 L1024.32 51.84 L1024.32 19.4328 L1029.68 19.4328 L1029.68 24.4675 Q1031.59 21.545 1034.16 20.0983 Q1036.77 18.6515 1040.15 18.6515 Q1045.74 18.6515 1048.6 22.1237 Q1051.47 25.567 1051.47 32.2799 Z" fill="#000000" fill-rule="nonzero" fill-opacity="1" /><path clip-path="url(#clip120)" d="M1083.41 24.3517 L1083.41 6.81709 L1088.73 6.81709 L1088.73 51.84 L1083.41 51.84 L1083.41 46.9789 Q1081.73 49.8724 1079.16 51.2902 Q1076.61 52.6791 1073.02 52.6791 Q1067.15 52.6791 1063.44 47.9916 Q1059.77 43.3042 1059.77 35.6653 Q1059.77 28.0265 1063.44 23.339 Q1067.15 18.6515 1073.02 18.6515 Q1076.61 18.6515 1079.16 20.0693 Q1081.73 21.4582 1083.41 24.3517 M1065.27 35.6653 Q1065.27 41.5391 1067.67 44.8956 Q1070.1 48.2231 1074.32 48.2231 Q1078.55 48.2231 1080.98 44.8956 Q1083.41 41.5391 1083.41 35.6653 Q1083.41 29.7915 1080.98 26.464 Q1078.55 23.1075 1074.32 23.1075 Q1070.1 23.1075 1067.67 26.464 Q1065.27 29.7915 1065.27 35.6653 Z" fill="#000000" fill-rule="nonzero" fill-opacity="1" /><path clip-path="url(#clip120)" d="M1100.45 44.4905 L1106.56 44.4905 L1106.56 51.84 L1100.45 51.84 L1100.45 44.4905 Z" fill="#000000" fill-rule="nonzero" fill-opacity="1" /><path clip-path="url(#clip120)" d="M1169.95 11.9675 L1169.95 18.1307 Q1167 15.3819 1163.65 14.0219 Q1160.32 12.662 1156.56 12.662 Q1149.15 12.662 1145.22 17.2048 Q1141.28 21.7186 1141.28 30.2834 Q1141.28 38.8192 1145.22 43.362 Q1149.15 47.8759 1156.56 47.8759 Q1160.32 47.8759 1163.65 46.516 Q1167 45.156 1169.95 42.4072 L1169.95 48.5125 Q1166.89 50.5958 1163.44 51.6375 Q1160.03 52.6791 1156.21 52.6791 Q1146.4 52.6791 1140.76 46.6896 Q1135.12 40.6711 1135.12 30.2834 Q1135.12 19.8668 1140.76 13.8772 Q1146.4 7.85875 1156.21 7.85875 Q1160.09 7.85875 1163.5 8.90042 Q1166.95 9.91314 1169.95 11.9675 Z" fill="#000000" fill-rule="nonzero" fill-opacity="1" /><path clip-path="url(#clip120)" d="M1178.98 8.64 L1184.83 8.64 L1184.83 26.3482 L1206.07 26.3482 L1206.07 8.64 L1211.91 8.64 L1211.91 51.84 L1206.07 51.84 L1206.07 31.2672 L1184.83 31.2672 L1184.83 51.84 L1178.98 51.84 L1178.98 8.64 Z" fill="#000000" fill-rule="nonzero" fill-opacity="1" /><path clip-path="url(#clip120)" d="M1223.54 8.64 L1232.25 8.64 L1243.28 38.038 L1254.36 8.64 L1263.07 8.64 L1263.07 51.84 L1257.37 51.84 L1257.37 13.9062 L1246.23 43.5356 L1240.35 43.5356 L1229.21 13.9062 L1229.21 51.84 L1223.54 51.84 L1223.54 8.64 Z" fill="#000000" fill-rule="nonzero" fill-opacity="1" /><path clip-path="url(#clip120)" d="M1274.67 8.64 L1283.38 8.64 L1294.4 38.038 L1305.49 8.64 L1314.2 8.64 L1314.2 51.84 L1308.5 51.84 L1308.5 13.9062 L1297.36 43.5356 L1291.48 43.5356 L1280.34 13.9062 L1280.34 51.84 L1274.67 51.84 L1274.67 8.64 Z" fill="#000000" fill-rule="nonzero" fill-opacity="1" /><path clip-path="url(#clip120)" d="M1322.88 33.2348 L1338.47 33.2348 L1338.47 37.9801 L1322.88 37.9801 L1322.88 33.2348 Z" fill="#000000" fill-rule="nonzero" fill-opacity="1" /><path clip-path="url(#clip120)" d="M1352.22 10.2314 L1352.22 19.4328 L1363.18 19.4328 L1363.18 23.5705 L1352.22 23.5705 L1352.22 41.163 Q1352.22 45.1271 1353.29 46.2555 Q1354.39 47.384 1357.71 47.384 L1363.18 47.384 L1363.18 51.84 L1357.71 51.84 Q1351.55 51.84 1349.21 49.5541 Q1346.86 47.2393 1346.86 41.163 L1346.86 23.5705 L1342.96 23.5705 L1342.96 19.4328 L1346.86 19.4328 L1346.86 10.2314 L1352.22 10.2314 Z" fill="#000000" fill-rule="nonzero" fill-opacity="1" /><path clip-path="url(#clip120)" d="M1394.29 10.2314 L1394.29 19.4328 L1405.25 19.4328 L1405.25 23.5705 L1394.29 23.5705 L1394.29 41.163 Q1394.29 45.1271 1395.36 46.2555 Q1396.46 47.384 1399.79 47.384 L1405.25 47.384 L1405.25 51.84 L1399.79 51.84 Q1393.62 51.84 1391.28 49.5541 Q1388.93 47.2393 1388.93 41.163 L1388.93 23.5705 L1385.03 23.5705 L1385.03 19.4328 L1388.93 19.4328 L1388.93 10.2314 L1394.29 10.2314 Z" fill="#000000" fill-rule="nonzero" fill-opacity="1" /><path clip-path="url(#clip120)" d="M1439.98 34.3054 L1439.98 36.9095 L1415.5 36.9095 Q1415.84 42.4072 1418.8 45.3007 Q1421.78 48.1653 1427.07 48.1653 Q1430.14 48.1653 1433 47.4129 Q1435.9 46.6606 1438.73 45.156 L1438.73 50.1907 Q1435.87 51.406 1432.86 52.0425 Q1429.85 52.6791 1426.75 52.6791 Q1419 52.6791 1414.46 48.1653 Q1409.94 43.6514 1409.94 35.9547 Q1409.94 27.9975 1414.22 23.339 Q1418.54 18.6515 1425.83 18.6515 Q1432.37 18.6515 1436.16 22.876 Q1439.98 27.0716 1439.98 34.3054 M1434.65 32.7429 Q1434.59 28.3737 1432.19 25.7695 Q1429.82 23.1654 1425.88 23.1654 Q1421.43 23.1654 1418.74 25.6827 Q1416.08 28.2001 1415.67 32.7718 L1434.65 32.7429 Z" fill="#000000" fill-rule="nonzero" fill-opacity="1" /><path clip-path="url(#clip120)" d="M1467.49 24.4096 Q1466.6 23.8888 1465.53 23.6573 Q1464.48 23.3969 1463.21 23.3969 Q1458.7 23.3969 1456.27 26.3482 Q1453.87 29.2707 1453.87 34.7683 L1453.87 51.84 L1448.51 51.84 L1448.51 19.4328 L1453.87 19.4328 L1453.87 24.4675 Q1455.54 21.5161 1458.23 20.0983 Q1460.93 18.6515 1464.77 18.6515 Q1465.32 18.6515 1465.99 18.7383 Q1466.65 18.7962 1467.46 18.9409 L1467.49 24.4096 Z" fill="#000000" fill-rule="nonzero" fill-opacity="1" /><path clip-path="url(#clip120)" d="M1497.27 25.6538 Q1499.26 22.0659 1502.04 20.3587 Q1504.82 18.6515 1508.58 18.6515 Q1513.64 18.6515 1516.39 22.2105 Q1519.14 25.7406 1519.14 32.2799 L1519.14 51.84 L1513.79 51.84 L1513.79 32.4535 Q1513.79 27.795 1512.14 25.5381 Q1510.49 23.2811 1507.11 23.2811 Q1502.97 23.2811 1500.57 26.03 Q1498.16 28.7788 1498.16 33.5241 L1498.16 51.84 L1492.81 51.84 L1492.81 32.4535 Q1492.81 27.7661 1491.16 25.5381 Q1489.51 23.2811 1486.07 23.2811 Q1481.99 23.2811 1479.59 26.0589 Q1477.19 28.8077 1477.19 33.5241 L1477.19 51.84 L1471.83 51.84 L1471.83 19.4328 L1477.19 19.4328 L1477.19 24.4675 Q1479.01 21.4872 1481.56 20.0693 Q1484.1 18.6515 1487.6 18.6515 Q1491.13 18.6515 1493.59 20.4455 Q1496.08 22.2395 1497.27 25.6538 Z" fill="#000000" fill-rule="nonzero" fill-opacity="1" /><path clip-path="url(#clip120)" d="M1529.76 19.4328 L1535.09 19.4328 L1535.09 51.84 L1529.76 51.84 L1529.76 19.4328 M1529.76 6.81709 L1535.09 6.81709 L1535.09 13.559 L1529.76 13.559 L1529.76 6.81709 Z" fill="#000000" fill-rule="nonzero" fill-opacity="1" /><path clip-path="url(#clip120)" d="M1573.16 32.2799 L1573.16 51.84 L1567.84 51.84 L1567.84 32.4535 Q1567.84 27.8529 1566.05 25.567 Q1564.25 23.2811 1560.66 23.2811 Q1556.35 23.2811 1553.86 26.03 Q1551.38 28.7788 1551.38 33.5241 L1551.38 51.84 L1546.02 51.84 L1546.02 19.4328 L1551.38 19.4328 L1551.38 24.4675 Q1553.29 21.545 1555.86 20.0983 Q1558.47 18.6515 1561.85 18.6515 Q1567.44 18.6515 1570.3 22.1237 Q1573.16 25.567 1573.16 32.2799 Z" fill="#000000" fill-rule="nonzero" fill-opacity="1" /><path clip-path="url(#clip120)" d="M1598.51 35.5496 Q1592.06 35.5496 1589.57 37.0253 Q1587.08 38.501 1587.08 42.06 Q1587.08 44.8956 1588.93 46.5738 Q1590.81 48.2231 1594.03 48.2231 Q1598.45 48.2231 1601.12 45.0981 Q1603.81 41.9442 1603.81 36.7359 L1603.81 35.5496 L1598.51 35.5496 M1609.13 33.3505 L1609.13 51.84 L1603.81 51.84 L1603.81 46.921 Q1601.98 49.8724 1599.26 51.2902 Q1596.54 52.6791 1592.61 52.6791 Q1587.63 52.6791 1584.68 49.9014 Q1581.76 47.0947 1581.76 42.4072 Q1581.76 36.9385 1585.4 34.1607 Q1589.08 31.3829 1596.34 31.3829 L1603.81 31.3829 L1603.81 30.8621 Q1603.81 27.1874 1601.38 25.1908 Q1598.97 23.1654 1594.61 23.1654 Q1591.83 23.1654 1589.19 23.8309 Q1586.56 24.4964 1584.13 25.8274 L1584.13 20.9085 Q1587.05 19.78 1589.8 19.2302 Q1592.55 18.6515 1595.15 18.6515 Q1602.19 18.6515 1605.66 22.2973 Q1609.13 25.9431 1609.13 33.3505 Z" fill="#000000" fill-rule="nonzero" fill-opacity="1" /><path clip-path="url(#clip120)" d="M1620.1 6.81709 L1625.42 6.81709 L1625.42 51.84 L1620.1 51.84 L1620.1 6.81709 Z" fill="#000000" fill-rule="nonzero" fill-opacity="1" /><path clip-path="url(#clip120)" d="M1668.19 6.87496 Q1664.31 13.53 1662.43 20.0404 Q1660.55 26.5508 1660.55 33.2348 Q1660.55 39.9188 1662.43 46.487 Q1664.34 53.0263 1668.19 59.6525 L1663.56 59.6525 Q1659.22 52.8527 1657.05 46.2845 Q1654.91 39.7162 1654.91 33.2348 Q1654.91 26.7823 1657.05 20.2429 Q1659.19 13.7036 1663.56 6.87496 L1668.19 6.87496 Z" fill="#000000" fill-rule="nonzero" fill-opacity="1" /><path clip-path="url(#clip120)" d="M1705.46 32.2799 L1705.46 51.84 L1700.13 51.84 L1700.13 32.4535 Q1700.13 27.8529 1698.34 25.567 Q1696.54 23.2811 1692.96 23.2811 Q1688.64 23.2811 1686.16 26.03 Q1683.67 28.7788 1683.67 33.5241 L1683.67 51.84 L1678.31 51.84 L1678.31 19.4328 L1683.67 19.4328 L1683.67 24.4675 Q1685.58 21.545 1688.15 20.0983 Q1690.76 18.6515 1694.14 18.6515 Q1699.73 18.6515 1702.59 22.1237 Q1705.46 25.567 1705.46 32.2799 Z" fill="#000000" fill-rule="nonzero" fill-opacity="1" /><path clip-path="url(#clip120)" d="M1716.77 24.9304 L1753.86 24.9304 L1753.86 29.7915 L1716.77 29.7915 L1716.77 24.9304 M1716.77 36.7359 L1753.86 36.7359 L1753.86 41.6549 L1716.77 41.6549 L1716.77 36.7359 Z" fill="#000000" fill-rule="nonzero" fill-opacity="1" /><path clip-path="url(#clip120)" d="M1766.54 8.64 L1789.48 8.64 L1789.48 13.559 L1771.89 13.559 L1771.89 24.1492 Q1773.16 23.7152 1774.44 23.5126 Q1775.71 23.2811 1776.98 23.2811 Q1784.22 23.2811 1788.44 27.2452 Q1792.67 31.2093 1792.67 37.9801 Q1792.67 44.9535 1788.33 48.8308 Q1783.98 52.6791 1776.09 52.6791 Q1773.37 52.6791 1770.53 52.2162 Q1767.72 51.7532 1764.71 50.8273 L1764.71 44.9535 Q1767.32 46.3713 1770.1 47.0657 Q1772.87 47.7602 1775.97 47.7602 Q1780.98 47.7602 1783.9 45.1271 Q1786.82 42.494 1786.82 37.9801 Q1786.82 33.4663 1783.9 30.8332 Q1780.98 28.2001 1775.97 28.2001 Q1773.63 28.2001 1771.28 28.7209 Q1768.97 29.2417 1766.54 30.3413 L1766.54 8.64 Z" fill="#000000" fill-rule="nonzero" fill-opacity="1" /><path clip-path="url(#clip120)" d="M1816.68 12.4884 Q1812.17 12.4884 1809.88 16.9444 Q1807.62 21.3714 1807.62 30.2834 Q1807.62 39.1665 1809.88 43.6225 Q1812.17 48.0495 1816.68 48.0495 Q1821.22 48.0495 1823.48 43.6225 Q1825.77 39.1665 1825.77 30.2834 Q1825.77 21.3714 1823.48 16.9444 Q1821.22 12.4884 1816.68 12.4884 M1816.68 7.85875 Q1823.94 7.85875 1827.76 13.6168 Q1831.61 19.346 1831.61 30.2834 Q1831.61 41.1919 1827.76 46.95 Q1823.94 52.6791 1816.68 52.6791 Q1809.42 52.6791 1805.57 46.95 Q1801.75 41.1919 1801.75 30.2834 Q1801.75 19.346 1805.57 13.6168 Q1809.42 7.85875 1816.68 7.85875 Z" fill="#000000" fill-rule="nonzero" fill-opacity="1" /><path clip-path="url(#clip120)" d="M1854.38 12.4884 Q1849.87 12.4884 1847.58 16.9444 Q1845.33 21.3714 1845.33 30.2834 Q1845.33 39.1665 1847.58 43.6225 Q1849.87 48.0495 1854.38 48.0495 Q1858.93 48.0495 1861.18 43.6225 Q1863.47 39.1665 1863.47 30.2834 Q1863.47 21.3714 1861.18 16.9444 Q1858.93 12.4884 1854.38 12.4884 M1854.38 7.85875 Q1861.65 7.85875 1865.47 13.6168 Q1869.31 19.346 1869.31 30.2834 Q1869.31 41.1919 1865.47 46.95 Q1861.65 52.6791 1854.38 52.6791 Q1847.12 52.6791 1843.27 46.95 Q1839.45 41.1919 1839.45 30.2834 Q1839.45 19.346 1843.27 13.6168 Q1847.12 7.85875 1854.38 7.85875 Z" fill="#000000" fill-rule="nonzero" fill-opacity="1" /><path clip-path="url(#clip120)" d="M1877.99 6.87496 L1882.62 6.87496 Q1886.96 13.7036 1889.11 20.2429 Q1891.28 26.7823 1891.28 33.2348 Q1891.28 39.7162 1889.11 46.2845 Q1886.96 52.8527 1882.62 59.6525 L1877.99 59.6525 Q1881.84 53.0263 1883.72 46.487 Q1885.63 39.9188 1885.63 33.2348 Q1885.63 26.5508 1883.72 20.0404 Q1881.84 13.53 1877.99 6.87496 Z" fill="#000000" fill-rule="nonzero" fill-opacity="1" /><path clip-path="url(#clip122)" d="M323.245 1255.94 L323.245 1423.18 L399.7 1423.18 L399.7 1255.94 L323.245 1255.94 L323.245 1255.94  Z" fill="#2e8b57" fill-rule="evenodd" fill-opacity="0.6"/>
<polyline clip-path="url(#clip122)" style="stroke:#000000; stroke-linecap:round; stroke-linejoin:round; stroke-width:4; stroke-opacity:1; fill:none" points="323.245,1255.94 323.245,1423.18 399.7,1423.18 399.7,1255.94 323.245,1255.94 "/>
<path clip-path="url(#clip122)" d="M399.7 900.566 L399.7 1423.18 L476.156 1423.18 L476.156 900.566 L399.7 900.566 L399.7 900.566  Z" fill="#2e8b57" fill-rule="evenodd" fill-opacity="0.6"/>
<polyline clip-path="url(#clip122)" style="stroke:#000000; stroke-linecap:round; stroke-linejoin:round; stroke-width:4; stroke-opacity:1; fill:none" points="399.7,900.566 399.7,1423.18 476.156,1423.18 476.156,900.566 399.7,900.566 "/>
<path clip-path="url(#clip122)" d="M476.156 294.333 L476.156 1423.18 L552.611 1423.18 L552.611 294.333 L476.156 294.333 L476.156 294.333  Z" fill="#2e8b57" fill-rule="evenodd" fill-opacity="0.6"/>
<polyline clip-path="url(#clip122)" style="stroke:#000000; stroke-linecap:round; stroke-linejoin:round; stroke-width:4; stroke-opacity:1; fill:none" points="476.156,294.333 476.156,1423.18 552.611,1423.18 552.611,294.333 476.156,294.333 "/>
<path clip-path="url(#clip122)" d="M552.611 189.81 L552.611 1423.18 L629.067 1423.18 L629.067 189.81 L552.611 189.81 L552.611 189.81  Z" fill="#2e8b57" fill-rule="evenodd" fill-opacity="0.6"/>
<polyline clip-path="url(#clip122)" style="stroke:#000000; stroke-linecap:round; stroke-linejoin:round; stroke-width:4; stroke-opacity:1; fill:none" points="552.611,189.81 552.611,1423.18 629.067,1423.18 629.067,189.81 552.611,189.81 "/>
<path clip-path="url(#clip122)" d="M629.067 336.142 L629.067 1423.18 L705.522 1423.18 L705.522 336.142 L629.067 336.142 L629.067 336.142  Z" fill="#2e8b57" fill-rule="evenodd" fill-opacity="0.6"/>
<polyline clip-path="url(#clip122)" style="stroke:#000000; stroke-linecap:round; stroke-linejoin:round; stroke-width:4; stroke-opacity:1; fill:none" points="629.067,336.142 629.067,1423.18 705.522,1423.18 705.522,336.142 629.067,336.142 "/>
<path clip-path="url(#clip122)" d="M705.522 106.192 L705.522 1423.18 L781.978 1423.18 L781.978 106.192 L705.522 106.192 L705.522 106.192  Z" fill="#2e8b57" fill-rule="evenodd" fill-opacity="0.6"/>
<polyline clip-path="url(#clip122)" style="stroke:#000000; stroke-linecap:round; stroke-linejoin:round; stroke-width:4; stroke-opacity:1; fill:none" points="705.522,106.192 705.522,1423.18 781.978,1423.18 781.978,106.192 705.522,106.192 "/>
<path clip-path="url(#clip122)" d="M781.978 377.951 L781.978 1423.18 L858.433 1423.18 L858.433 377.951 L781.978 377.951 L781.978 377.951  Z" fill="#2e8b57" fill-rule="evenodd" fill-opacity="0.6"/>
<polyline clip-path="url(#clip122)" style="stroke:#000000; stroke-linecap:round; stroke-linejoin:round; stroke-width:4; stroke-opacity:1; fill:none" points="781.978,377.951 781.978,1423.18 858.433,1423.18 858.433,377.951 781.978,377.951 "/>
<path clip-path="url(#clip122)" d="M858.433 461.57 L858.433 1423.18 L934.889 1423.18 L934.889 461.57 L858.433 461.57 L858.433 461.57  Z" fill="#2e8b57" fill-rule="evenodd" fill-opacity="0.6"/>
<polyline clip-path="url(#clip122)" style="stroke:#000000; stroke-linecap:round; stroke-linejoin:round; stroke-width:4; stroke-opacity:1; fill:none" points="858.433,461.57 858.433,1423.18 934.889,1423.18 934.889,461.57 858.433,461.57 "/>
<path clip-path="url(#clip122)" d="M934.889 712.425 L934.889 1423.18 L1011.34 1423.18 L1011.34 712.425 L934.889 712.425 L934.889 712.425  Z" fill="#2e8b57" fill-rule="evenodd" fill-opacity="0.6"/>
<polyline clip-path="url(#clip122)" style="stroke:#000000; stroke-linecap:round; stroke-linejoin:round; stroke-width:4; stroke-opacity:1; fill:none" points="934.889,712.425 934.889,1423.18 1011.34,1423.18 1011.34,712.425 934.889,712.425 "/>
<path clip-path="url(#clip122)" d="M1011.34 921.47 L1011.34 1423.18 L1087.8 1423.18 L1087.8 921.47 L1011.34 921.47 L1011.34 921.47  Z" fill="#2e8b57" fill-rule="evenodd" fill-opacity="0.6"/>
<polyline clip-path="url(#clip122)" style="stroke:#000000; stroke-linecap:round; stroke-linejoin:round; stroke-width:4; stroke-opacity:1; fill:none" points="1011.34,921.47 1011.34,1423.18 1087.8,1423.18 1087.8,921.47 1011.34,921.47 "/>
<path clip-path="url(#clip122)" d="M1087.8 1046.9 L1087.8 1423.18 L1164.26 1423.18 L1164.26 1046.9 L1087.8 1046.9 L1087.8 1046.9  Z" fill="#2e8b57" fill-rule="evenodd" fill-opacity="0.6"/>
<polyline clip-path="url(#clip122)" style="stroke:#000000; stroke-linecap:round; stroke-linejoin:round; stroke-width:4; stroke-opacity:1; fill:none" points="1087.8,1046.9 1087.8,1423.18 1164.26,1423.18 1164.26,1046.9 1087.8,1046.9 "/>
<path clip-path="url(#clip122)" d="M1164.26 900.566 L1164.26 1423.18 L1240.71 1423.18 L1240.71 900.566 L1164.26 900.566 L1164.26 900.566  Z" fill="#2e8b57" fill-rule="evenodd" fill-opacity="0.6"/>
<polyline clip-path="url(#clip122)" style="stroke:#000000; stroke-linecap:round; stroke-linejoin:round; stroke-width:4; stroke-opacity:1; fill:none" points="1164.26,900.566 1164.26,1423.18 1240.71,1423.18 1240.71,900.566 1164.26,900.566 "/>
<path clip-path="url(#clip122)" d="M1240.71 1255.94 L1240.71 1423.18 L1317.17 1423.18 L1317.17 1255.94 L1240.71 1255.94 L1240.71 1255.94  Z" fill="#2e8b57" fill-rule="evenodd" fill-opacity="0.6"/>
<polyline clip-path="url(#clip122)" style="stroke:#000000; stroke-linecap:round; stroke-linejoin:round; stroke-width:4; stroke-opacity:1; fill:none" points="1240.71,1255.94 1240.71,1423.18 1317.17,1423.18 1317.17,1255.94 1240.71,1255.94 "/>
<path clip-path="url(#clip122)" d="M1317.17 1276.85 L1317.17 1423.18 L1393.62 1423.18 L1393.62 1276.85 L1317.17 1276.85 L1317.17 1276.85  Z" fill="#2e8b57" fill-rule="evenodd" fill-opacity="0.6"/>
<polyline clip-path="url(#clip122)" style="stroke:#000000; stroke-linecap:round; stroke-linejoin:round; stroke-width:4; stroke-opacity:1; fill:none" points="1317.17,1276.85 1317.17,1423.18 1393.62,1423.18 1393.62,1276.85 1317.17,1276.85 "/>
<path clip-path="url(#clip122)" d="M1393.62 1214.13 L1393.62 1423.18 L1470.08 1423.18 L1470.08 1214.13 L1393.62 1214.13 L1393.62 1214.13  Z" fill="#2e8b57" fill-rule="evenodd" fill-opacity="0.6"/>
<polyline clip-path="url(#clip122)" style="stroke:#000000; stroke-linecap:round; stroke-linejoin:round; stroke-width:4; stroke-opacity:1; fill:none" points="1393.62,1214.13 1393.62,1423.18 1470.08,1423.18 1470.08,1214.13 1393.62,1214.13 "/>
<path clip-path="url(#clip122)" d="M1470.08 1297.75 L1470.08 1423.18 L1546.53 1423.18 L1546.53 1297.75 L1470.08 1297.75 L1470.08 1297.75  Z" fill="#2e8b57" fill-rule="evenodd" fill-opacity="0.6"/>
<polyline clip-path="url(#clip122)" style="stroke:#000000; stroke-linecap:round; stroke-linejoin:round; stroke-width:4; stroke-opacity:1; fill:none" points="1470.08,1297.75 1470.08,1423.18 1546.53,1423.18 1546.53,1297.75 1470.08,1297.75 "/>
<path clip-path="url(#clip122)" d="M1546.53 1360.47 L1546.53 1423.18 L1622.99 1423.18 L1622.99 1360.47 L1546.53 1360.47 L1546.53 1360.47  Z" fill="#2e8b57" fill-rule="evenodd" fill-opacity="0.6"/>
<polyline clip-path="url(#clip122)" style="stroke:#000000; stroke-linecap:round; stroke-linejoin:round; stroke-width:4; stroke-opacity:1; fill:none" points="1546.53,1360.47 1546.53,1423.18 1622.99,1423.18 1622.99,1360.47 1546.53,1360.47 "/>
<path clip-path="url(#clip122)" d="M1622.99 1360.47 L1622.99 1423.18 L1699.44 1423.18 L1699.44 1360.47 L1622.99 1360.47 L1622.99 1360.47  Z" fill="#2e8b57" fill-rule="evenodd" fill-opacity="0.6"/>
<polyline clip-path="url(#clip122)" style="stroke:#000000; stroke-linecap:round; stroke-linejoin:round; stroke-width:4; stroke-opacity:1; fill:none" points="1622.99,1360.47 1622.99,1423.18 1699.44,1423.18 1699.44,1360.47 1622.99,1360.47 "/>
<path clip-path="url(#clip122)" d="M1699.44 1402.28 L1699.44 1423.18 L1775.9 1423.18 L1775.9 1402.28 L1699.44 1402.28 L1699.44 1402.28  Z" fill="#2e8b57" fill-rule="evenodd" fill-opacity="0.6"/>
<polyline clip-path="url(#clip122)" style="stroke:#000000; stroke-linecap:round; stroke-linejoin:round; stroke-width:4; stroke-opacity:1; fill:none" points="1699.44,1402.28 1699.44,1423.18 1775.9,1423.18 1775.9,1402.28 1699.44,1402.28 "/>
<path clip-path="url(#clip122)" d="M1775.9 1381.37 L1775.9 1423.18 L1852.35 1423.18 L1852.35 1381.37 L1775.9 1381.37 L1775.9 1381.37  Z" fill="#2e8b57" fill-rule="evenodd" fill-opacity="0.6"/>
<polyline clip-path="url(#clip122)" style="stroke:#000000; stroke-linecap:round; stroke-linejoin:round; stroke-width:4; stroke-opacity:1; fill:none" points="1775.9,1381.37 1775.9,1423.18 1852.35,1423.18 1852.35,1381.37 1775.9,1381.37 "/>
<path clip-path="url(#clip122)" d="M1852.35 1423.18 L1852.35 1423.18 L1928.81 1423.18 L1928.81 1423.18 L1852.35 1423.18 L1852.35 1423.18  Z" fill="#2e8b57" fill-rule="evenodd" fill-opacity="0.6"/>
<polyline clip-path="url(#clip122)" style="stroke:#000000; stroke-linecap:round; stroke-linejoin:round; stroke-width:4; stroke-opacity:1; fill:none" points="1852.35,1423.18 1852.35,1423.18 1928.81,1423.18 1852.35,1423.18 "/>
<path clip-path="url(#clip122)" d="M1928.81 1402.28 L1928.81 1423.18 L2005.27 1423.18 L2005.27 1402.28 L1928.81 1402.28 L1928.81 1402.28  Z" fill="#2e8b57" fill-rule="evenodd" fill-opacity="0.6"/>
<polyline clip-path="url(#clip122)" style="stroke:#000000; stroke-linecap:round; stroke-linejoin:round; stroke-width:4; stroke-opacity:1; fill:none" points="1928.81,1402.28 1928.81,1423.18 2005.27,1423.18 2005.27,1402.28 1928.81,1402.28 "/>
<path clip-path="url(#clip122)" d="M2005.27 1423.18 L2005.27 1423.18 L2081.72 1423.18 L2081.72 1423.18 L2005.27 1423.18 L2005.27 1423.18  Z" fill="#2e8b57" fill-rule="evenodd" fill-opacity="0.6"/>
<polyline clip-path="url(#clip122)" style="stroke:#000000; stroke-linecap:round; stroke-linejoin:round; stroke-width:4; stroke-opacity:1; fill:none" points="2005.27,1423.18 2005.27,1423.18 2081.72,1423.18 2005.27,1423.18 "/>
<path clip-path="url(#clip122)" d="M2081.72 1423.18 L2081.72 1423.18 L2158.18 1423.18 L2158.18 1423.18 L2081.72 1423.18 L2081.72 1423.18  Z" fill="#2e8b57" fill-rule="evenodd" fill-opacity="0.6"/>
<polyline clip-path="url(#clip122)" style="stroke:#000000; stroke-linecap:round; stroke-linejoin:round; stroke-width:4; stroke-opacity:1; fill:none" points="2081.72,1423.18 2081.72,1423.18 2158.18,1423.18 2081.72,1423.18 "/>
<path clip-path="url(#clip122)" d="M2158.18 1402.28 L2158.18 1423.18 L2234.63 1423.18 L2234.63 1402.28 L2158.18 1402.28 L2158.18 1402.28  Z" fill="#2e8b57" fill-rule="evenodd" fill-opacity="0.6"/>
<polyline clip-path="url(#clip122)" style="stroke:#000000; stroke-linecap:round; stroke-linejoin:round; stroke-width:4; stroke-opacity:1; fill:none" points="2158.18,1402.28 2158.18,1423.18 2234.63,1423.18 2234.63,1402.28 2158.18,1402.28 "/>
<circle clip-path="url(#clip122)" style="fill:#2e8b57; stroke:none; fill-opacity:0" cx="361.472" cy="1255.94" r="2"/>
<circle clip-path="url(#clip122)" style="fill:#2e8b57; stroke:none; fill-opacity:0" cx="437.928" cy="900.566" r="2"/>
<circle clip-path="url(#clip122)" style="fill:#2e8b57; stroke:none; fill-opacity:0" cx="514.383" cy="294.333" r="2"/>
<circle clip-path="url(#clip122)" style="fill:#2e8b57; stroke:none; fill-opacity:0" cx="590.839" cy="189.81" r="2"/>
<circle clip-path="url(#clip122)" style="fill:#2e8b57; stroke:none; fill-opacity:0" cx="667.294" cy="336.142" r="2"/>
<circle clip-path="url(#clip122)" style="fill:#2e8b57; stroke:none; fill-opacity:0" cx="743.75" cy="106.192" r="2"/>
<circle clip-path="url(#clip122)" style="fill:#2e8b57; stroke:none; fill-opacity:0" cx="820.205" cy="377.951" r="2"/>
<circle clip-path="url(#clip122)" style="fill:#2e8b57; stroke:none; fill-opacity:0" cx="896.661" cy="461.57" r="2"/>
<circle clip-path="url(#clip122)" style="fill:#2e8b57; stroke:none; fill-opacity:0" cx="973.116" cy="712.425" r="2"/>
<circle clip-path="url(#clip122)" style="fill:#2e8b57; stroke:none; fill-opacity:0" cx="1049.57" cy="921.47" r="2"/>
<circle clip-path="url(#clip122)" style="fill:#2e8b57; stroke:none; fill-opacity:0" cx="1126.03" cy="1046.9" r="2"/>
<circle clip-path="url(#clip122)" style="fill:#2e8b57; stroke:none; fill-opacity:0" cx="1202.48" cy="900.566" r="2"/>
<circle clip-path="url(#clip122)" style="fill:#2e8b57; stroke:none; fill-opacity:0" cx="1278.94" cy="1255.94" r="2"/>
<circle clip-path="url(#clip122)" style="fill:#2e8b57; stroke:none; fill-opacity:0" cx="1355.39" cy="1276.85" r="2"/>
<circle clip-path="url(#clip122)" style="fill:#2e8b57; stroke:none; fill-opacity:0" cx="1431.85" cy="1214.13" r="2"/>
<circle clip-path="url(#clip122)" style="fill:#2e8b57; stroke:none; fill-opacity:0" cx="1508.3" cy="1297.75" r="2"/>
<circle clip-path="url(#clip122)" style="fill:#2e8b57; stroke:none; fill-opacity:0" cx="1584.76" cy="1360.47" r="2"/>
<circle clip-path="url(#clip122)" style="fill:#2e8b57; stroke:none; fill-opacity:0" cx="1661.22" cy="1360.47" r="2"/>
<circle clip-path="url(#clip122)" style="fill:#2e8b57; stroke:none; fill-opacity:0" cx="1737.67" cy="1402.28" r="2"/>
<circle clip-path="url(#clip122)" style="fill:#2e8b57; stroke:none; fill-opacity:0" cx="1814.13" cy="1381.37" r="2"/>
<circle clip-path="url(#clip122)" style="fill:#2e8b57; stroke:none; fill-opacity:0" cx="1890.58" cy="1423.18" r="2"/>
<circle clip-path="url(#clip122)" style="fill:#2e8b57; stroke:none; fill-opacity:0" cx="1967.04" cy="1402.28" r="2"/>
<circle clip-path="url(#clip122)" style="fill:#2e8b57; stroke:none; fill-opacity:0" cx="2043.49" cy="1423.18" r="2"/>
<circle clip-path="url(#clip122)" style="fill:#2e8b57; stroke:none; fill-opacity:0" cx="2119.95" cy="1423.18" r="2"/>
<circle clip-path="url(#clip122)" style="fill:#2e8b57; stroke:none; fill-opacity:0" cx="2196.4" cy="1402.28" r="2"/>
<polyline clip-path="url(#clip122)" style="stroke:#ff0000; stroke-linecap:round; stroke-linejoin:round; stroke-width:8; stroke-opacity:1; fill:none" points="1294.94,2740.17 1294.94,-1210.8 "/>
<polyline clip-path="url(#clip122)" style="stroke:#006400; stroke-linecap:round; stroke-linejoin:round; stroke-width:8; stroke-opacity:1; fill:none" stroke-dasharray="32, 20" points="763.84,2740.17 763.84,-1210.8 "/>
<path clip-path="url(#clip120)" d="M1632.33 357.452 L2281.17 357.452 L2281.17 150.092 L1632.33 150.092  Z" fill="#ffffff" fill-rule="evenodd" fill-opacity="1"/>
<polyline clip-path="url(#clip120)" style="stroke:#000000; stroke-linecap:round; stroke-linejoin:round; stroke-width:4; stroke-opacity:1; fill:none" points="1632.33,357.452 2281.17,357.452 2281.17,150.092 1632.33,150.092 1632.33,357.452 "/>
<path clip-path="url(#clip120)" d="M1656.2 222.668 L1799.37 222.668 L1799.37 181.196 L1656.2 181.196 L1656.2 222.668  Z" fill="#2e8b57" fill-rule="evenodd" fill-opacity="0.6"/>
<polyline clip-path="url(#clip120)" style="stroke:#000000; stroke-linecap:round; stroke-linejoin:round; stroke-width:4; stroke-opacity:1; fill:none" points="1656.2,222.668 1799.37,222.668 1799.37,181.196 1656.2,181.196 1656.2,222.668 "/>
<path clip-path="url(#clip120)" d="M1845.48 185.786 L1845.48 190.346 Q1842.82 189.073 1840.46 188.448 Q1838.09 187.823 1835.9 187.823 Q1832.08 187.823 1829.99 189.304 Q1827.93 190.786 1827.93 193.517 Q1827.93 195.809 1829.3 196.99 Q1830.69 198.147 1834.53 198.865 L1837.35 199.443 Q1842.59 200.439 1845.06 202.962 Q1847.56 205.462 1847.56 209.675 Q1847.56 214.698 1844.18 217.29 Q1840.83 219.883 1834.32 219.883 Q1831.87 219.883 1829.09 219.327 Q1826.34 218.772 1823.37 217.684 L1823.37 212.869 Q1826.22 214.466 1828.95 215.277 Q1831.68 216.087 1834.32 216.087 Q1838.33 216.087 1840.5 214.513 Q1842.68 212.939 1842.68 210.022 Q1842.68 207.476 1841.1 206.04 Q1839.55 204.605 1835.99 203.888 L1833.14 203.332 Q1827.91 202.291 1825.57 200.068 Q1823.23 197.846 1823.23 193.888 Q1823.23 189.304 1826.45 186.666 Q1829.69 184.027 1835.36 184.027 Q1837.79 184.027 1840.32 184.467 Q1842.84 184.906 1845.48 185.786 Z" fill="#000000" fill-rule="nonzero" fill-opacity="1" /><path clip-path="url(#clip120)" d="M1854.67 193.286 L1858.93 193.286 L1858.93 219.212 L1854.67 219.212 L1854.67 193.286 M1854.67 183.193 L1858.93 183.193 L1858.93 188.587 L1854.67 188.587 L1854.67 183.193 Z" fill="#000000" fill-rule="nonzero" fill-opacity="1" /><path clip-path="url(#clip120)" d="M1888.03 198.263 Q1889.62 195.392 1891.84 194.027 Q1894.07 192.661 1897.08 192.661 Q1901.13 192.661 1903.33 195.508 Q1905.52 198.332 1905.52 203.564 L1905.52 219.212 L1901.24 219.212 L1901.24 203.703 Q1901.24 199.976 1899.92 198.17 Q1898.6 196.365 1895.9 196.365 Q1892.59 196.365 1890.66 198.564 Q1888.74 200.763 1888.74 204.559 L1888.74 219.212 L1884.46 219.212 L1884.46 203.703 Q1884.46 199.953 1883.14 198.17 Q1881.82 196.365 1879.07 196.365 Q1875.8 196.365 1873.88 198.587 Q1871.96 200.786 1871.96 204.559 L1871.96 219.212 L1867.68 219.212 L1867.68 193.286 L1871.96 193.286 L1871.96 197.314 Q1873.42 194.929 1875.46 193.795 Q1877.49 192.661 1880.29 192.661 Q1883.12 192.661 1885.09 194.096 Q1887.08 195.531 1888.03 198.263 Z" fill="#000000" fill-rule="nonzero" fill-opacity="1" /><path clip-path="url(#clip120)" d="M1913.58 208.98 L1913.58 193.286 L1917.84 193.286 L1917.84 208.818 Q1917.84 212.499 1919.27 214.351 Q1920.71 216.179 1923.58 216.179 Q1927.03 216.179 1929.02 213.98 Q1931.03 211.781 1931.03 207.985 L1931.03 193.286 L1935.29 193.286 L1935.29 219.212 L1931.03 219.212 L1931.03 215.23 Q1929.48 217.591 1927.42 218.749 Q1925.39 219.883 1922.68 219.883 Q1918.21 219.883 1915.9 217.105 Q1913.58 214.327 1913.58 208.98 M1924.3 192.661 L1924.3 192.661 Z" fill="#000000" fill-rule="nonzero" fill-opacity="1" /><path clip-path="url(#clip120)" d="M1944.07 183.193 L1948.33 183.193 L1948.33 219.212 L1944.07 219.212 L1944.07 183.193 Z" fill="#000000" fill-rule="nonzero" fill-opacity="1" /><path clip-path="url(#clip120)" d="M1969.02 206.179 Q1963.86 206.179 1961.87 207.36 Q1959.88 208.54 1959.88 211.388 Q1959.88 213.656 1961.36 214.999 Q1962.86 216.318 1965.43 216.318 Q1968.97 216.318 1971.1 213.818 Q1973.26 211.295 1973.26 207.128 L1973.26 206.179 L1969.02 206.179 M1977.52 204.42 L1977.52 219.212 L1973.26 219.212 L1973.26 215.277 Q1971.8 217.638 1969.62 218.772 Q1967.45 219.883 1964.3 219.883 Q1960.32 219.883 1957.96 217.661 Q1955.62 215.415 1955.62 211.665 Q1955.62 207.29 1958.53 205.068 Q1961.47 202.846 1967.28 202.846 L1973.26 202.846 L1973.26 202.429 Q1973.26 199.49 1971.31 197.892 Q1969.39 196.272 1965.89 196.272 Q1963.67 196.272 1961.57 196.804 Q1959.46 197.337 1957.52 198.402 L1957.52 194.466 Q1959.85 193.564 1962.05 193.124 Q1964.25 192.661 1966.33 192.661 Q1971.96 192.661 1974.74 195.578 Q1977.52 198.494 1977.52 204.42 Z" fill="#000000" fill-rule="nonzero" fill-opacity="1" /><path clip-path="url(#clip120)" d="M1990.5 185.925 L1990.5 193.286 L1999.27 193.286 L1999.27 196.596 L1990.5 196.596 L1990.5 210.67 Q1990.5 213.841 1991.36 214.744 Q1992.24 215.647 1994.9 215.647 L1999.27 215.647 L1999.27 219.212 L1994.9 219.212 Q1989.97 219.212 1988.09 217.383 Q1986.22 215.531 1986.22 210.67 L1986.22 196.596 L1983.09 196.596 L1983.09 193.286 L1986.22 193.286 L1986.22 185.925 L1990.5 185.925 Z" fill="#000000" fill-rule="nonzero" fill-opacity="1" /><path clip-path="url(#clip120)" d="M2027.05 205.184 L2027.05 207.267 L2007.47 207.267 Q2007.75 211.665 2010.11 213.98 Q2012.49 216.272 2016.73 216.272 Q2019.18 216.272 2021.47 215.67 Q2023.79 215.068 2026.06 213.865 L2026.06 217.892 Q2023.77 218.864 2021.36 219.374 Q2018.95 219.883 2016.47 219.883 Q2010.27 219.883 2006.64 216.272 Q2003.02 212.661 2003.02 206.503 Q2003.02 200.138 2006.45 196.411 Q2009.9 192.661 2015.73 192.661 Q2020.96 192.661 2024 196.041 Q2027.05 199.397 2027.05 205.184 M2022.79 203.934 Q2022.75 200.439 2020.83 198.355 Q2018.93 196.272 2015.78 196.272 Q2012.21 196.272 2010.06 198.286 Q2007.93 200.3 2007.61 203.957 L2022.79 203.934 Z" fill="#000000" fill-rule="nonzero" fill-opacity="1" /><path clip-path="url(#clip120)" d="M2051.1 197.221 L2051.1 183.193 L2055.36 183.193 L2055.36 219.212 L2051.1 219.212 L2051.1 215.323 Q2049.76 217.638 2047.7 218.772 Q2045.66 219.883 2042.79 219.883 Q2038.09 219.883 2035.13 216.133 Q2032.19 212.383 2032.19 206.272 Q2032.19 200.161 2035.13 196.411 Q2038.09 192.661 2042.79 192.661 Q2045.66 192.661 2047.7 193.795 Q2049.76 194.906 2051.1 197.221 M2036.59 206.272 Q2036.59 210.971 2038.51 213.656 Q2040.45 216.318 2043.83 216.318 Q2047.21 216.318 2049.16 213.656 Q2051.1 210.971 2051.1 206.272 Q2051.1 201.573 2049.16 198.911 Q2047.21 196.226 2043.83 196.226 Q2040.45 196.226 2038.51 198.911 Q2036.59 201.573 2036.59 206.272 Z" fill="#000000" fill-rule="nonzero" fill-opacity="1" /><polyline clip-path="url(#clip120)" style="stroke:#ff0000; stroke-linecap:round; stroke-linejoin:round; stroke-width:8; stroke-opacity:1; fill:none" points="1656.2,253.772 1799.37,253.772 "/>
<path clip-path="url(#clip120)" d="M1839.25 239.663 Q1834.16 239.663 1831.15 243.459 Q1828.16 247.256 1828.16 253.806 Q1828.16 260.334 1831.15 264.13 Q1834.16 267.927 1839.25 267.927 Q1844.34 267.927 1847.31 264.13 Q1850.29 260.334 1850.29 253.806 Q1850.29 247.256 1847.31 243.459 Q1844.34 239.663 1839.25 239.663 M1839.25 235.867 Q1846.52 235.867 1850.87 240.751 Q1855.22 245.612 1855.22 253.806 Q1855.22 261.978 1850.87 266.862 Q1846.52 271.723 1839.25 271.723 Q1831.96 271.723 1827.59 266.862 Q1823.23 262.001 1823.23 253.806 Q1823.23 245.612 1827.59 240.751 Q1831.96 235.867 1839.25 235.867 Z" fill="#000000" fill-rule="nonzero" fill-opacity="1" /><path clip-path="url(#clip120)" d="M1880.96 258.112 Q1880.96 253.413 1879.02 250.751 Q1877.1 248.066 1873.72 248.066 Q1870.34 248.066 1868.4 250.751 Q1866.47 253.413 1866.47 258.112 Q1866.47 262.811 1868.4 265.496 Q1870.34 268.158 1873.72 268.158 Q1877.1 268.158 1879.02 265.496 Q1880.96 262.811 1880.96 258.112 M1866.47 249.061 Q1867.82 246.746 1869.85 245.635 Q1871.91 244.501 1874.76 244.501 Q1879.48 244.501 1882.42 248.251 Q1885.39 252.001 1885.39 258.112 Q1885.39 264.223 1882.42 267.973 Q1879.48 271.723 1874.76 271.723 Q1871.91 271.723 1869.85 270.612 Q1867.82 269.478 1866.47 267.163 L1866.47 271.052 L1862.19 271.052 L1862.19 235.033 L1866.47 235.033 L1866.47 249.061 Z" fill="#000000" fill-rule="nonzero" fill-opacity="1" /><path clip-path="url(#clip120)" d="M1908.97 245.89 L1908.97 249.918 Q1907.17 248.992 1905.22 248.529 Q1903.28 248.066 1901.2 248.066 Q1898.02 248.066 1896.43 249.038 Q1894.85 250.01 1894.85 251.955 Q1894.85 253.436 1895.99 254.293 Q1897.12 255.126 1900.55 255.89 L1902.01 256.214 Q1906.54 257.186 1908.44 258.968 Q1910.36 260.728 1910.36 263.899 Q1910.36 267.51 1907.49 269.617 Q1904.65 271.723 1899.65 271.723 Q1897.56 271.723 1895.29 271.306 Q1893.05 270.913 1890.55 270.103 L1890.55 265.705 Q1892.91 266.931 1895.2 267.556 Q1897.49 268.158 1899.74 268.158 Q1902.75 268.158 1904.37 267.14 Q1905.99 266.098 1905.99 264.223 Q1905.99 262.487 1904.81 261.561 Q1903.65 260.635 1899.69 259.779 L1898.21 259.431 Q1894.25 258.598 1892.49 256.885 Q1890.73 255.149 1890.73 252.14 Q1890.73 248.482 1893.33 246.492 Q1895.92 244.501 1900.69 244.501 Q1903.05 244.501 1905.13 244.848 Q1907.21 245.195 1908.97 245.89 Z" fill="#000000" fill-rule="nonzero" fill-opacity="1" /><path clip-path="url(#clip120)" d="M1939.32 257.024 L1939.32 259.107 L1919.74 259.107 Q1920.02 263.505 1922.38 265.82 Q1924.76 268.112 1929 268.112 Q1931.45 268.112 1933.74 267.51 Q1936.06 266.908 1938.33 265.705 L1938.33 269.732 Q1936.03 270.704 1933.63 271.214 Q1931.22 271.723 1928.74 271.723 Q1922.54 271.723 1918.9 268.112 Q1915.29 264.501 1915.29 258.343 Q1915.29 251.978 1918.72 248.251 Q1922.17 244.501 1928 244.501 Q1933.23 244.501 1936.27 247.881 Q1939.32 251.237 1939.32 257.024 M1935.06 255.774 Q1935.02 252.279 1933.09 250.195 Q1931.2 248.112 1928.05 248.112 Q1924.48 248.112 1922.33 250.126 Q1920.2 252.14 1919.88 255.797 L1935.06 255.774 Z" fill="#000000" fill-rule="nonzero" fill-opacity="1" /><path clip-path="url(#clip120)" d="M1961.33 249.107 Q1960.62 248.691 1959.76 248.506 Q1958.93 248.297 1957.91 248.297 Q1954.3 248.297 1952.35 250.658 Q1950.43 252.996 1950.43 257.394 L1950.43 271.052 L1946.15 271.052 L1946.15 245.126 L1950.43 245.126 L1950.43 249.154 Q1951.77 246.793 1953.93 245.658 Q1956.08 244.501 1959.16 244.501 Q1959.6 244.501 1960.13 244.57 Q1960.66 244.617 1961.31 244.732 L1961.33 249.107 Z" fill="#000000" fill-rule="nonzero" fill-opacity="1" /><path clip-path="url(#clip120)" d="M1962.75 245.126 L1967.26 245.126 L1975.36 266.885 L1983.46 245.126 L1987.98 245.126 L1978.26 271.052 L1972.47 271.052 L1962.75 245.126 Z" fill="#000000" fill-rule="nonzero" fill-opacity="1" /><path clip-path="url(#clip120)" d="M2016.03 257.024 L2016.03 259.107 L1996.45 259.107 Q1996.73 263.505 1999.09 265.82 Q2001.47 268.112 2005.71 268.112 Q2008.16 268.112 2010.45 267.51 Q2012.77 266.908 2015.04 265.705 L2015.04 269.732 Q2012.75 270.704 2010.34 271.214 Q2007.93 271.723 2005.45 271.723 Q1999.25 271.723 1995.62 268.112 Q1992.01 264.501 1992.01 258.343 Q1992.01 251.978 1995.43 248.251 Q1998.88 244.501 2004.71 244.501 Q2009.95 244.501 2012.98 247.881 Q2016.03 251.237 2016.03 257.024 M2011.77 255.774 Q2011.73 252.279 2009.81 250.195 Q2007.91 248.112 2004.76 248.112 Q2001.2 248.112 1999.04 250.126 Q1996.91 252.14 1996.59 255.797 L2011.77 255.774 Z" fill="#000000" fill-rule="nonzero" fill-opacity="1" /><path clip-path="url(#clip120)" d="M2040.08 249.061 L2040.08 235.033 L2044.34 235.033 L2044.34 271.052 L2040.08 271.052 L2040.08 267.163 Q2038.74 269.478 2036.68 270.612 Q2034.64 271.723 2031.77 271.723 Q2027.08 271.723 2024.11 267.973 Q2021.17 264.223 2021.17 258.112 Q2021.17 252.001 2024.11 248.251 Q2027.08 244.501 2031.77 244.501 Q2034.64 244.501 2036.68 245.635 Q2038.74 246.746 2040.08 249.061 M2025.57 258.112 Q2025.57 262.811 2027.49 265.496 Q2029.44 268.158 2032.82 268.158 Q2036.2 268.158 2038.14 265.496 Q2040.08 262.811 2040.08 258.112 Q2040.08 253.413 2038.14 250.751 Q2036.2 248.066 2032.82 248.066 Q2029.44 248.066 2027.49 250.751 Q2025.57 253.413 2025.57 258.112 Z" fill="#000000" fill-rule="nonzero" fill-opacity="1" /><path clip-path="url(#clip120)" d="M2072.4 237.765 L2072.4 245.126 L2081.17 245.126 L2081.17 248.436 L2072.4 248.436 L2072.4 262.51 Q2072.4 265.681 2073.26 266.584 Q2074.14 267.487 2076.8 267.487 L2081.17 267.487 L2081.17 271.052 L2076.8 271.052 Q2071.87 271.052 2069.99 269.223 Q2068.12 267.371 2068.12 262.51 L2068.12 248.436 L2064.99 248.436 L2064.99 245.126 L2068.12 245.126 L2068.12 237.765 L2072.4 237.765 Z" fill="#000000" fill-rule="nonzero" fill-opacity="1" /><path clip-path="url(#clip120)" d="M2108.95 257.024 L2108.95 259.107 L2089.37 259.107 Q2089.64 263.505 2092.01 265.82 Q2094.39 268.112 2098.63 268.112 Q2101.08 268.112 2103.37 267.51 Q2105.69 266.908 2107.95 265.705 L2107.95 269.732 Q2105.66 270.704 2103.26 271.214 Q2100.85 271.723 2098.37 271.723 Q2092.17 271.723 2088.53 268.112 Q2084.92 264.501 2084.92 258.343 Q2084.92 251.978 2088.35 248.251 Q2091.8 244.501 2097.63 244.501 Q2102.86 244.501 2105.89 247.881 Q2108.95 251.237 2108.95 257.024 M2104.69 255.774 Q2104.64 252.279 2102.72 250.195 Q2100.82 248.112 2097.68 248.112 Q2094.11 248.112 2091.96 250.126 Q2089.83 252.14 2089.51 255.797 L2104.69 255.774 Z" fill="#000000" fill-rule="nonzero" fill-opacity="1" /><path clip-path="url(#clip120)" d="M2130.96 249.107 Q2130.25 248.691 2129.39 248.506 Q2128.56 248.297 2127.54 248.297 Q2123.93 248.297 2121.98 250.658 Q2120.06 252.996 2120.06 257.394 L2120.06 271.052 L2115.78 271.052 L2115.78 245.126 L2120.06 245.126 L2120.06 249.154 Q2121.4 246.793 2123.56 245.658 Q2125.71 244.501 2128.79 244.501 Q2129.23 244.501 2129.76 244.57 Q2130.29 244.617 2130.94 244.732 L2130.96 249.107 Z" fill="#000000" fill-rule="nonzero" fill-opacity="1" /><path clip-path="url(#clip120)" d="M2154.78 250.103 Q2156.38 247.232 2158.6 245.867 Q2160.82 244.501 2163.83 244.501 Q2167.88 244.501 2170.08 247.348 Q2172.28 250.172 2172.28 255.404 L2172.28 271.052 L2168 271.052 L2168 255.543 Q2168 251.816 2166.68 250.01 Q2165.36 248.205 2162.65 248.205 Q2159.34 248.205 2157.42 250.404 Q2155.5 252.603 2155.5 256.399 L2155.5 271.052 L2151.22 271.052 L2151.22 255.543 Q2151.22 251.793 2149.9 250.01 Q2148.58 248.205 2145.82 248.205 Q2142.56 248.205 2140.64 250.427 Q2138.72 252.626 2138.72 256.399 L2138.72 271.052 L2134.44 271.052 L2134.44 245.126 L2138.72 245.126 L2138.72 249.154 Q2140.18 246.769 2142.21 245.635 Q2144.25 244.501 2147.05 244.501 Q2149.88 244.501 2151.84 245.936 Q2153.83 247.371 2154.78 250.103 Z" fill="#000000" fill-rule="nonzero" fill-opacity="1" /><path clip-path="url(#clip120)" d="M2180.78 245.126 L2185.04 245.126 L2185.04 271.052 L2180.78 271.052 L2180.78 245.126 M2180.78 235.033 L2185.04 235.033 L2185.04 240.427 L2180.78 240.427 L2180.78 235.033 Z" fill="#000000" fill-rule="nonzero" fill-opacity="1" /><path clip-path="url(#clip120)" d="M2215.5 255.404 L2215.5 271.052 L2211.24 271.052 L2211.24 255.543 Q2211.24 251.862 2209.81 250.033 Q2208.37 248.205 2205.5 248.205 Q2202.05 248.205 2200.06 250.404 Q2198.07 252.603 2198.07 256.399 L2198.07 271.052 L2193.79 271.052 L2193.79 245.126 L2198.07 245.126 L2198.07 249.154 Q2199.6 246.816 2201.66 245.658 Q2203.74 244.501 2206.45 244.501 Q2210.92 244.501 2213.21 247.279 Q2215.5 250.033 2215.5 255.404 Z" fill="#000000" fill-rule="nonzero" fill-opacity="1" /><path clip-path="url(#clip120)" d="M2235.78 258.019 Q2230.62 258.019 2228.63 259.2 Q2226.63 260.38 2226.63 263.228 Q2226.63 265.496 2228.12 266.839 Q2229.62 268.158 2232.19 268.158 Q2235.73 268.158 2237.86 265.658 Q2240.01 263.135 2240.01 258.968 L2240.01 258.019 L2235.78 258.019 M2244.27 256.26 L2244.27 271.052 L2240.01 271.052 L2240.01 267.117 Q2238.56 269.478 2236.38 270.612 Q2234.2 271.723 2231.06 271.723 Q2227.07 271.723 2224.71 269.501 Q2222.38 267.255 2222.38 263.505 Q2222.38 259.13 2225.29 256.908 Q2228.23 254.686 2234.04 254.686 L2240.01 254.686 L2240.01 254.269 Q2240.01 251.33 2238.07 249.732 Q2236.15 248.112 2232.65 248.112 Q2230.43 248.112 2228.32 248.644 Q2226.22 249.177 2224.27 250.242 L2224.27 246.306 Q2226.61 245.404 2228.81 244.964 Q2231.01 244.501 2233.09 244.501 Q2238.72 244.501 2241.5 247.418 Q2244.27 250.334 2244.27 256.26 Z" fill="#000000" fill-rule="nonzero" fill-opacity="1" /><path clip-path="url(#clip120)" d="M2253.05 235.033 L2257.31 235.033 L2257.31 271.052 L2253.05 271.052 L2253.05 235.033 Z" fill="#000000" fill-rule="nonzero" fill-opacity="1" /><polyline clip-path="url(#clip120)" style="stroke:#006400; stroke-linecap:round; stroke-linejoin:round; stroke-width:8; stroke-opacity:1; fill:none" stroke-dasharray="32, 20" points="1656.2,305.612 1799.37,305.612 "/>
<path clip-path="url(#clip120)" d="M1845.48 289.466 L1845.48 294.026 Q1842.82 292.753 1840.46 292.128 Q1838.09 291.503 1835.9 291.503 Q1832.08 291.503 1829.99 292.984 Q1827.93 294.466 1827.93 297.197 Q1827.93 299.489 1829.3 300.67 Q1830.69 301.827 1834.53 302.545 L1837.35 303.123 Q1842.59 304.119 1845.06 306.642 Q1847.56 309.142 1847.56 313.355 Q1847.56 318.378 1844.18 320.97 Q1840.83 323.563 1834.32 323.563 Q1831.87 323.563 1829.09 323.007 Q1826.34 322.452 1823.37 321.364 L1823.37 316.549 Q1826.22 318.146 1828.95 318.957 Q1831.68 319.767 1834.32 319.767 Q1838.33 319.767 1840.5 318.193 Q1842.68 316.619 1842.68 313.702 Q1842.68 311.156 1841.1 309.72 Q1839.55 308.285 1835.99 307.568 L1833.14 307.012 Q1827.91 305.971 1825.57 303.748 Q1823.23 301.526 1823.23 297.568 Q1823.23 292.984 1826.45 290.346 Q1829.69 287.707 1835.36 287.707 Q1837.79 287.707 1840.32 288.147 Q1842.84 288.586 1845.48 289.466 Z" fill="#000000" fill-rule="nonzero" fill-opacity="1" /><path clip-path="url(#clip120)" d="M1854.67 296.966 L1858.93 296.966 L1858.93 322.892 L1854.67 322.892 L1854.67 296.966 M1854.67 286.873 L1858.93 286.873 L1858.93 292.267 L1854.67 292.267 L1854.67 286.873 Z" fill="#000000" fill-rule="nonzero" fill-opacity="1" /><path clip-path="url(#clip120)" d="M1888.03 301.943 Q1889.62 299.072 1891.84 297.707 Q1894.07 296.341 1897.08 296.341 Q1901.13 296.341 1903.33 299.188 Q1905.52 302.012 1905.52 307.244 L1905.52 322.892 L1901.24 322.892 L1901.24 307.383 Q1901.24 303.656 1899.92 301.85 Q1898.6 300.045 1895.9 300.045 Q1892.59 300.045 1890.66 302.244 Q1888.74 304.443 1888.74 308.239 L1888.74 322.892 L1884.46 322.892 L1884.46 307.383 Q1884.46 303.633 1883.14 301.85 Q1881.82 300.045 1879.07 300.045 Q1875.8 300.045 1873.88 302.267 Q1871.96 304.466 1871.96 308.239 L1871.96 322.892 L1867.68 322.892 L1867.68 296.966 L1871.96 296.966 L1871.96 300.994 Q1873.42 298.609 1875.46 297.475 Q1877.49 296.341 1880.29 296.341 Q1883.12 296.341 1885.09 297.776 Q1887.08 299.211 1888.03 301.943 Z" fill="#000000" fill-rule="nonzero" fill-opacity="1" /><path clip-path="url(#clip120)" d="M1913.58 312.66 L1913.58 296.966 L1917.84 296.966 L1917.84 312.498 Q1917.84 316.179 1919.27 318.031 Q1920.71 319.859 1923.58 319.859 Q1927.03 319.859 1929.02 317.66 Q1931.03 315.461 1931.03 311.665 L1931.03 296.966 L1935.29 296.966 L1935.29 322.892 L1931.03 322.892 L1931.03 318.91 Q1929.48 321.271 1927.42 322.429 Q1925.39 323.563 1922.68 323.563 Q1918.21 323.563 1915.9 320.785 Q1913.58 318.007 1913.58 312.66 M1924.3 296.341 L1924.3 296.341 Z" fill="#000000" fill-rule="nonzero" fill-opacity="1" /><path clip-path="url(#clip120)" d="M1944.07 286.873 L1948.33 286.873 L1948.33 322.892 L1944.07 322.892 L1944.07 286.873 Z" fill="#000000" fill-rule="nonzero" fill-opacity="1" /><path clip-path="url(#clip120)" d="M1969.02 309.859 Q1963.86 309.859 1961.87 311.04 Q1959.88 312.22 1959.88 315.068 Q1959.88 317.336 1961.36 318.679 Q1962.86 319.998 1965.43 319.998 Q1968.97 319.998 1971.1 317.498 Q1973.26 314.975 1973.26 310.808 L1973.26 309.859 L1969.02 309.859 M1977.52 308.1 L1977.52 322.892 L1973.26 322.892 L1973.26 318.957 Q1971.8 321.318 1969.62 322.452 Q1967.45 323.563 1964.3 323.563 Q1960.32 323.563 1957.96 321.341 Q1955.62 319.095 1955.62 315.345 Q1955.62 310.97 1958.53 308.748 Q1961.47 306.526 1967.28 306.526 L1973.26 306.526 L1973.26 306.109 Q1973.26 303.17 1971.31 301.572 Q1969.39 299.952 1965.89 299.952 Q1963.67 299.952 1961.57 300.484 Q1959.46 301.017 1957.52 302.082 L1957.52 298.146 Q1959.85 297.244 1962.05 296.804 Q1964.25 296.341 1966.33 296.341 Q1971.96 296.341 1974.74 299.258 Q1977.52 302.174 1977.52 308.1 Z" fill="#000000" fill-rule="nonzero" fill-opacity="1" /><path clip-path="url(#clip120)" d="M1990.5 289.605 L1990.5 296.966 L1999.27 296.966 L1999.27 300.276 L1990.5 300.276 L1990.5 314.35 Q1990.5 317.521 1991.36 318.424 Q1992.24 319.327 1994.9 319.327 L1999.27 319.327 L1999.27 322.892 L1994.9 322.892 Q1989.97 322.892 1988.09 321.063 Q1986.22 319.211 1986.22 314.35 L1986.22 300.276 L1983.09 300.276 L1983.09 296.966 L1986.22 296.966 L1986.22 289.605 L1990.5 289.605 Z" fill="#000000" fill-rule="nonzero" fill-opacity="1" /><path clip-path="url(#clip120)" d="M2027.05 308.864 L2027.05 310.947 L2007.47 310.947 Q2007.75 315.345 2010.11 317.66 Q2012.49 319.952 2016.73 319.952 Q2019.18 319.952 2021.47 319.35 Q2023.79 318.748 2026.06 317.545 L2026.06 321.572 Q2023.77 322.544 2021.36 323.054 Q2018.95 323.563 2016.47 323.563 Q2010.27 323.563 2006.64 319.952 Q2003.02 316.341 2003.02 310.183 Q2003.02 303.818 2006.45 300.091 Q2009.9 296.341 2015.73 296.341 Q2020.96 296.341 2024 299.721 Q2027.05 303.077 2027.05 308.864 M2022.79 307.614 Q2022.75 304.119 2020.83 302.035 Q2018.93 299.952 2015.78 299.952 Q2012.21 299.952 2010.06 301.966 Q2007.93 303.98 2007.61 307.637 L2022.79 307.614 Z" fill="#000000" fill-rule="nonzero" fill-opacity="1" /><path clip-path="url(#clip120)" d="M2051.1 300.901 L2051.1 286.873 L2055.36 286.873 L2055.36 322.892 L2051.1 322.892 L2051.1 319.003 Q2049.76 321.318 2047.7 322.452 Q2045.66 323.563 2042.79 323.563 Q2038.09 323.563 2035.13 319.813 Q2032.19 316.063 2032.19 309.952 Q2032.19 303.841 2035.13 300.091 Q2038.09 296.341 2042.79 296.341 Q2045.66 296.341 2047.7 297.475 Q2049.76 298.586 2051.1 300.901 M2036.59 309.952 Q2036.59 314.651 2038.51 317.336 Q2040.45 319.998 2043.83 319.998 Q2047.21 319.998 2049.16 317.336 Q2051.1 314.651 2051.1 309.952 Q2051.1 305.253 2049.16 302.591 Q2047.21 299.906 2043.83 299.906 Q2040.45 299.906 2038.51 302.591 Q2036.59 305.253 2036.59 309.952 Z" fill="#000000" fill-rule="nonzero" fill-opacity="1" /><path clip-path="url(#clip120)" d="M2099.39 301.943 Q2100.99 299.072 2103.21 297.707 Q2105.43 296.341 2108.44 296.341 Q2112.49 296.341 2114.69 299.188 Q2116.89 302.012 2116.89 307.244 L2116.89 322.892 L2112.61 322.892 L2112.61 307.383 Q2112.61 303.656 2111.29 301.85 Q2109.97 300.045 2107.26 300.045 Q2103.95 300.045 2102.03 302.244 Q2100.11 304.443 2100.11 308.239 L2100.11 322.892 L2095.82 322.892 L2095.82 307.383 Q2095.82 303.633 2094.51 301.85 Q2093.19 300.045 2090.43 300.045 Q2087.17 300.045 2085.25 302.267 Q2083.32 304.466 2083.32 308.239 L2083.32 322.892 L2079.04 322.892 L2079.04 296.966 L2083.32 296.966 L2083.32 300.994 Q2084.78 298.609 2086.82 297.475 Q2088.86 296.341 2091.66 296.341 Q2094.48 296.341 2096.45 297.776 Q2098.44 299.211 2099.39 301.943 Z" fill="#000000" fill-rule="nonzero" fill-opacity="1" /><path clip-path="url(#clip120)" d="M2147.56 308.864 L2147.56 310.947 L2127.98 310.947 Q2128.26 315.345 2130.62 317.66 Q2133 319.952 2137.24 319.952 Q2139.69 319.952 2141.98 319.35 Q2144.3 318.748 2146.57 317.545 L2146.57 321.572 Q2144.27 322.544 2141.87 323.054 Q2139.46 323.563 2136.98 323.563 Q2130.78 323.563 2127.14 319.952 Q2123.53 316.341 2123.53 310.183 Q2123.53 303.818 2126.96 300.091 Q2130.41 296.341 2136.24 296.341 Q2141.47 296.341 2144.51 299.721 Q2147.56 303.077 2147.56 308.864 M2143.3 307.614 Q2143.26 304.119 2141.33 302.035 Q2139.44 299.952 2136.29 299.952 Q2132.72 299.952 2130.57 301.966 Q2128.44 303.98 2128.12 307.637 L2143.3 307.614 Z" fill="#000000" fill-rule="nonzero" fill-opacity="1" /><path clip-path="url(#clip120)" d="M2171.61 300.901 L2171.61 286.873 L2175.87 286.873 L2175.87 322.892 L2171.61 322.892 L2171.61 319.003 Q2170.27 321.318 2168.21 322.452 Q2166.17 323.563 2163.3 323.563 Q2158.6 323.563 2155.64 319.813 Q2152.7 316.063 2152.7 309.952 Q2152.7 303.841 2155.64 300.091 Q2158.6 296.341 2163.3 296.341 Q2166.17 296.341 2168.21 297.475 Q2170.27 298.586 2171.61 300.901 M2157.1 309.952 Q2157.1 314.651 2159.02 317.336 Q2160.96 319.998 2164.34 319.998 Q2167.72 319.998 2169.67 317.336 Q2171.61 314.651 2171.61 309.952 Q2171.61 305.253 2169.67 302.591 Q2167.72 299.906 2164.34 299.906 Q2160.96 299.906 2159.02 302.591 Q2157.1 305.253 2157.1 309.952 Z" fill="#000000" fill-rule="nonzero" fill-opacity="1" /><path clip-path="url(#clip120)" d="M2184.64 296.966 L2188.9 296.966 L2188.9 322.892 L2184.64 322.892 L2184.64 296.966 M2184.64 286.873 L2188.9 286.873 L2188.9 292.267 L2184.64 292.267 L2184.64 286.873 Z" fill="#000000" fill-rule="nonzero" fill-opacity="1" /><path clip-path="url(#clip120)" d="M2209.6 309.859 Q2204.44 309.859 2202.44 311.04 Q2200.45 312.22 2200.45 315.068 Q2200.45 317.336 2201.94 318.679 Q2203.44 319.998 2206.01 319.998 Q2209.55 319.998 2211.68 317.498 Q2213.83 314.975 2213.83 310.808 L2213.83 309.859 L2209.6 309.859 M2218.09 308.1 L2218.09 322.892 L2213.83 322.892 L2213.83 318.957 Q2212.38 321.318 2210.2 322.452 Q2208.02 323.563 2204.88 323.563 Q2200.89 323.563 2198.53 321.341 Q2196.19 319.095 2196.19 315.345 Q2196.19 310.97 2199.11 308.748 Q2202.05 306.526 2207.86 306.526 L2213.83 306.526 L2213.83 306.109 Q2213.83 303.17 2211.89 301.572 Q2209.97 299.952 2206.47 299.952 Q2204.25 299.952 2202.14 300.484 Q2200.04 301.017 2198.09 302.082 L2198.09 298.146 Q2200.43 297.244 2202.63 296.804 Q2204.83 296.341 2206.91 296.341 Q2212.54 296.341 2215.31 299.258 Q2218.09 302.174 2218.09 308.1 Z" fill="#000000" fill-rule="nonzero" fill-opacity="1" /><path clip-path="url(#clip120)" d="M2248.42 307.244 L2248.42 322.892 L2244.16 322.892 L2244.16 307.383 Q2244.16 303.702 2242.72 301.873 Q2241.29 300.045 2238.42 300.045 Q2234.97 300.045 2232.98 302.244 Q2230.99 304.443 2230.99 308.239 L2230.99 322.892 L2226.7 322.892 L2226.7 296.966 L2230.99 296.966 L2230.99 300.994 Q2232.51 298.656 2234.57 297.498 Q2236.66 296.341 2239.37 296.341 Q2243.83 296.341 2246.12 299.119 Q2248.42 301.873 2248.42 307.244 Z" fill="#000000" fill-rule="nonzero" fill-opacity="1" /></svg>
