<?xml version="1.0" encoding="utf-8"?>
<svg xmlns="http://www.w3.org/2000/svg" xmlns:xlink="http://www.w3.org/1999/xlink" width="600" height="400" viewBox="0 0 2400 1600">
<defs>
  <clipPath id="clip910">
    <rect x="0" y="0" width="2400" height="1600"/>
  </clipPath>
</defs>
<path clip-path="url(#clip910)" d="M0 1600 L2400 1600 L2400 8.88178e-14 L0 8.88178e-14  Z" fill="#ffffff" fill-rule="evenodd" fill-opacity="1"/>
<defs>
  <clipPath id="clip911">
    <rect x="234" y="106" width="2120" height="1318"/>
  </clipPath>
</defs>
<path clip-path="url(#clip910)" d="M205.121 1423.18 L2352.76 1423.18 L2352.76 106.192 L205.121 106.192  Z" fill="#ffffff" fill-rule="evenodd" fill-opacity="1"/>
<defs>
  <clipPath id="clip912">
    <rect x="205" y="106" width="2149" height="1318"/>
  </clipPath>
</defs>
<polyline clip-path="url(#clip912)" style="stroke:#000000; stroke-linecap:round; stroke-linejoin:round; stroke-width:2; stroke-opacity:0.1; fill:none" points="514.383,1423.18 514.383,106.192 "/>
<polyline clip-path="url(#clip912)" style="stroke:#000000; stroke-linecap:round; stroke-linejoin:round; stroke-width:2; stroke-opacity:0.1; fill:none" points="992.23,1423.18 992.23,106.192 "/>
<polyline clip-path="url(#clip912)" style="stroke:#000000; stroke-linecap:round; stroke-linejoin:round; stroke-width:2; stroke-opacity:0.1; fill:none" points="1470.08,1423.18 1470.08,106.192 "/>
<polyline clip-path="url(#clip912)" style="stroke:#000000; stroke-linecap:round; stroke-linejoin:round; stroke-width:2; stroke-opacity:0.1; fill:none" points="1947.92,1423.18 1947.92,106.192 "/>
<polyline clip-path="url(#clip912)" style="stroke:#000000; stroke-linecap:round; stroke-linejoin:round; stroke-width:2; stroke-opacity:0.1; fill:none" points="205.121,1423.18 2352.76,1423.18 "/>
<polyline clip-path="url(#clip912)" style="stroke:#000000; stroke-linecap:round; stroke-linejoin:round; stroke-width:2; stroke-opacity:0.1; fill:none" points="205.121,1174.69 2352.76,1174.69 "/>
<polyline clip-path="url(#clip912)" style="stroke:#000000; stroke-linecap:round; stroke-linejoin:round; stroke-width:2; stroke-opacity:0.1; fill:none" points="205.121,926.203 2352.76,926.203 "/>
<polyline clip-path="url(#clip912)" style="stroke:#000000; stroke-linecap:round; stroke-linejoin:round; stroke-width:2; stroke-opacity:0.1; fill:none" points="205.121,677.715 2352.76,677.715 "/>
<polyline clip-path="url(#clip912)" style="stroke:#000000; stroke-linecap:round; stroke-linejoin:round; stroke-width:2; stroke-opacity:0.1; fill:none" points="205.121,429.227 2352.76,429.227 "/>
<polyline clip-path="url(#clip912)" style="stroke:#000000; stroke-linecap:round; stroke-linejoin:round; stroke-width:2; stroke-opacity:0.1; fill:none" points="205.121,180.739 2352.76,180.739 "/>
<polyline clip-path="url(#clip910)" style="stroke:#000000; stroke-linecap:round; stroke-linejoin:round; stroke-width:4; stroke-opacity:1; fill:none" points="205.121,1423.18 2352.76,1423.18 "/>
<polyline clip-path="url(#clip910)" style="stroke:#000000; stroke-linecap:round; stroke-linejoin:round; stroke-width:4; stroke-opacity:1; fill:none" points="514.383,1423.18 514.383,1404.28 "/>
<polyline clip-path="url(#clip910)" style="stroke:#000000; stroke-linecap:round; stroke-linejoin:round; stroke-width:4; stroke-opacity:1; fill:none" points="992.23,1423.18 992.23,1404.28 "/>
<polyline clip-path="url(#clip910)" style="stroke:#000000; stroke-linecap:round; stroke-linejoin:round; stroke-width:4; stroke-opacity:1; fill:none" points="1470.08,1423.18 1470.08,1404.28 "/>
<polyline clip-path="url(#clip910)" style="stroke:#000000; stroke-linecap:round; stroke-linejoin:round; stroke-width:4; stroke-opacity:1; fill:none" points="1947.92,1423.18 1947.92,1404.28 "/>
<path clip-path="url(#clip910)" d="M473.99 1481.64 L481.629 1481.64 L481.629 1455.28 L473.319 1456.95 L473.319 1452.69 L481.583 1451.02 L486.259 1451.02 L486.259 1481.64 L493.897 1481.64 L493.897 1485.58 L473.99 1485.58 L473.99 1481.64 Z" fill="#000000" fill-rule="nonzero" fill-opacity="1" /><path clip-path="url(#clip910)" d="M513.342 1454.1 Q509.731 1454.1 507.902 1457.66 Q506.096 1461.2 506.096 1468.33 Q506.096 1475.44 507.902 1479.01 Q509.731 1482.55 513.342 1482.55 Q516.976 1482.55 518.782 1479.01 Q520.61 1475.44 520.61 1468.33 Q520.61 1461.2 518.782 1457.66 Q516.976 1454.1 513.342 1454.1 M513.342 1450.39 Q519.152 1450.39 522.207 1455 Q525.286 1459.58 525.286 1468.33 Q525.286 1477.06 522.207 1481.67 Q519.152 1486.25 513.342 1486.25 Q507.532 1486.25 504.453 1481.67 Q501.397 1477.06 501.397 1468.33 Q501.397 1459.58 504.453 1455 Q507.532 1450.39 513.342 1450.39 Z" fill="#000000" fill-rule="nonzero" fill-opacity="1" /><path clip-path="url(#clip910)" d="M543.504 1454.1 Q539.893 1454.1 538.064 1457.66 Q536.258 1461.2 536.258 1468.33 Q536.258 1475.44 538.064 1479.01 Q539.893 1482.55 543.504 1482.55 Q547.138 1482.55 548.943 1479.01 Q550.772 1475.44 550.772 1468.33 Q550.772 1461.2 548.943 1457.66 Q547.138 1454.1 543.504 1454.1 M543.504 1450.39 Q549.314 1450.39 552.369 1455 Q555.448 1459.58 555.448 1468.33 Q555.448 1477.06 552.369 1481.67 Q549.314 1486.25 543.504 1486.25 Q537.694 1486.25 534.615 1481.67 Q531.559 1477.06 531.559 1468.33 Q531.559 1459.58 534.615 1455 Q537.694 1450.39 543.504 1450.39 Z" fill="#000000" fill-rule="nonzero" fill-opacity="1" /><path clip-path="url(#clip910)" d="M955.923 1481.64 L972.242 1481.64 L972.242 1485.58 L950.298 1485.58 L950.298 1481.64 Q952.96 1478.89 957.543 1474.26 Q962.149 1469.61 963.33 1468.27 Q965.575 1465.74 966.455 1464.01 Q967.358 1462.25 967.358 1460.56 Q967.358 1457.8 965.413 1456.07 Q963.492 1454.33 960.39 1454.33 Q958.191 1454.33 955.737 1455.09 Q953.307 1455.86 950.529 1457.41 L950.529 1452.69 Q953.353 1451.55 955.807 1450.97 Q958.261 1450.39 960.298 1450.39 Q965.668 1450.39 968.862 1453.08 Q972.057 1455.77 972.057 1460.26 Q972.057 1462.39 971.247 1464.31 Q970.46 1466.2 968.353 1468.8 Q967.774 1469.47 964.673 1472.69 Q961.571 1475.88 955.923 1481.64 Z" fill="#000000" fill-rule="nonzero" fill-opacity="1" /><path clip-path="url(#clip910)" d="M992.057 1454.1 Q988.446 1454.1 986.617 1457.66 Q984.811 1461.2 984.811 1468.33 Q984.811 1475.44 986.617 1479.01 Q988.446 1482.55 992.057 1482.55 Q995.691 1482.55 997.496 1479.01 Q999.325 1475.44 999.325 1468.33 Q999.325 1461.2 997.496 1457.66 Q995.691 1454.1 992.057 1454.1 M992.057 1450.39 Q997.867 1450.39 1000.92 1455 Q1004 1459.58 1004 1468.33 Q1004 1477.06 1000.92 1481.67 Q997.867 1486.25 992.057 1486.25 Q986.247 1486.25 983.168 1481.67 Q980.112 1477.06 980.112 1468.33 Q980.112 1459.58 983.168 1455 Q986.247 1450.39 992.057 1450.39 Z" fill="#000000" fill-rule="nonzero" fill-opacity="1" /><path clip-path="url(#clip910)" d="M1022.22 1454.1 Q1018.61 1454.1 1016.78 1457.66 Q1014.97 1461.2 1014.97 1468.33 Q1014.97 1475.44 1016.78 1479.01 Q1018.61 1482.55 1022.22 1482.55 Q1025.85 1482.55 1027.66 1479.01 Q1029.49 1475.44 1029.49 1468.33 Q1029.49 1461.2 1027.66 1457.66 Q1025.85 1454.1 1022.22 1454.1 M1022.22 1450.39 Q1028.03 1450.39 1031.08 1455 Q1034.16 1459.58 1034.16 1468.33 Q1034.16 1477.06 1031.08 1481.67 Q1028.03 1486.25 1022.22 1486.25 Q1016.41 1486.25 1013.33 1481.67 Q1010.27 1477.06 1010.27 1468.33 Q1010.27 1459.58 1013.33 1455 Q1016.41 1450.39 1022.22 1450.39 Z" fill="#000000" fill-rule="nonzero" fill-opacity="1" /><path clip-path="url(#clip910)" d="M1443.84 1466.95 Q1447.2 1467.66 1449.07 1469.93 Q1450.97 1472.2 1450.97 1475.53 Q1450.97 1480.65 1447.45 1483.45 Q1443.93 1486.25 1437.45 1486.25 Q1435.27 1486.25 1432.96 1485.81 Q1430.67 1485.39 1428.21 1484.54 L1428.21 1480.02 Q1430.16 1481.16 1432.47 1481.74 Q1434.79 1482.32 1437.31 1482.32 Q1441.71 1482.32 1444 1480.58 Q1446.32 1478.84 1446.32 1475.53 Q1446.32 1472.48 1444.16 1470.77 Q1442.03 1469.03 1438.21 1469.03 L1434.19 1469.03 L1434.19 1465.19 L1438.4 1465.19 Q1441.85 1465.19 1443.68 1463.82 Q1445.51 1462.43 1445.51 1459.84 Q1445.51 1457.18 1443.61 1455.77 Q1441.73 1454.33 1438.21 1454.33 Q1436.29 1454.33 1434.09 1454.75 Q1431.89 1455.16 1429.26 1456.04 L1429.26 1451.88 Q1431.92 1451.14 1434.23 1450.77 Q1436.57 1450.39 1438.63 1450.39 Q1443.95 1450.39 1447.06 1452.83 Q1450.16 1455.23 1450.16 1459.35 Q1450.16 1462.22 1448.51 1464.21 Q1446.87 1466.18 1443.84 1466.95 Z" fill="#000000" fill-rule="nonzero" fill-opacity="1" /><path clip-path="url(#clip910)" d="M1469.83 1454.1 Q1466.22 1454.1 1464.39 1457.66 Q1462.59 1461.2 1462.59 1468.33 Q1462.59 1475.44 1464.39 1479.01 Q1466.22 1482.55 1469.83 1482.55 Q1473.47 1482.55 1475.27 1479.01 Q1477.1 1475.44 1477.1 1468.33 Q1477.1 1461.2 1475.27 1457.66 Q1473.47 1454.1 1469.83 1454.1 M1469.83 1450.39 Q1475.64 1450.39 1478.7 1455 Q1481.78 1459.58 1481.78 1468.33 Q1481.78 1477.06 1478.7 1481.67 Q1475.64 1486.25 1469.83 1486.25 Q1464.02 1486.25 1460.95 1481.67 Q1457.89 1477.06 1457.89 1468.33 Q1457.89 1459.58 1460.95 1455 Q1464.02 1450.39 1469.83 1450.39 Z" fill="#000000" fill-rule="nonzero" fill-opacity="1" /><path clip-path="url(#clip910)" d="M1500 1454.1 Q1496.38 1454.1 1494.56 1457.66 Q1492.75 1461.2 1492.75 1468.33 Q1492.75 1475.44 1494.56 1479.01 Q1496.38 1482.55 1500 1482.55 Q1503.63 1482.55 1505.44 1479.01 Q1507.26 1475.44 1507.26 1468.33 Q1507.26 1461.2 1505.44 1457.66 Q1503.63 1454.1 1500 1454.1 M1500 1450.39 Q1505.81 1450.39 1508.86 1455 Q1511.94 1459.58 1511.94 1468.33 Q1511.94 1477.06 1508.86 1481.67 Q1505.81 1486.25 1500 1486.25 Q1494.19 1486.25 1491.11 1481.67 Q1488.05 1477.06 1488.05 1468.33 Q1488.05 1459.58 1491.11 1455 Q1494.19 1450.39 1500 1450.39 Z" fill="#000000" fill-rule="nonzero" fill-opacity="1" /><path clip-path="url(#clip910)" d="M1921.01 1455.09 L1909.21 1473.54 L1921.01 1473.54 L1921.01 1455.09 M1919.79 1451.02 L1925.67 1451.02 L1925.67 1473.54 L1930.6 1473.54 L1930.6 1477.43 L1925.67 1477.43 L1925.67 1485.58 L1921.01 1485.58 L1921.01 1477.43 L1905.41 1477.43 L1905.41 1472.92 L1919.79 1451.02 Z" fill="#000000" fill-rule="nonzero" fill-opacity="1" /><path clip-path="url(#clip910)" d="M1948.33 1454.1 Q1944.72 1454.1 1942.89 1457.66 Q1941.08 1461.2 1941.08 1468.33 Q1941.08 1475.44 1942.89 1479.01 Q1944.72 1482.55 1948.33 1482.55 Q1951.96 1482.55 1953.77 1479.01 Q1955.6 1475.44 1955.6 1468.33 Q1955.6 1461.2 1953.77 1457.66 Q1951.96 1454.1 1948.33 1454.1 M1948.33 1450.39 Q1954.14 1450.39 1957.19 1455 Q1960.27 1459.58 1960.27 1468.33 Q1960.27 1477.06 1957.19 1481.67 Q1954.14 1486.25 1948.33 1486.25 Q1942.52 1486.25 1939.44 1481.67 Q1936.38 1477.06 1936.38 1468.33 Q1936.38 1459.58 1939.44 1455 Q1942.52 1450.39 1948.33 1450.39 Z" fill="#000000" fill-rule="nonzero" fill-opacity="1" /><path clip-path="url(#clip910)" d="M1978.49 1454.1 Q1974.88 1454.1 1973.05 1457.66 Q1971.25 1461.2 1971.25 1468.33 Q1971.25 1475.44 1973.05 1479.01 Q1974.88 1482.55 1978.49 1482.55 Q1982.13 1482.55 1983.93 1479.01 Q1985.76 1475.44 1985.76 1468.33 Q1985.76 1461.2 1983.93 1457.66 Q1982.13 1454.1 1978.49 1454.1 M1978.49 1450.39 Q1984.3 1450.39 1987.36 1455 Q1990.44 1459.58 1990.44 1468.33 Q1990.44 1477.06 1987.36 1481.67 Q1984.3 1486.25 1978.49 1486.25 Q1972.68 1486.25 1969.6 1481.67 Q1966.55 1477.06 1966.55 1468.33 Q1966.55 1459.58 1969.6 1455 Q1972.68 1450.39 1978.49 1450.39 Z" fill="#000000" fill-rule="nonzero" fill-opacity="1" /><path clip-path="url(#clip910)" d="M1051.36 1520.52 L1091.56 1520.52 L1091.56 1525.93 L1074.69 1525.93 L1074.69 1568.04 L1068.23 1568.04 L1068.23 1525.93 L1051.36 1525.93 L1051.36 1520.52 Z" fill="#000000" fill-rule="nonzero" fill-opacity="1" /><path clip-path="url(#clip910)" d="M1116.93 1548.76 L1116.93 1551.62 L1090 1551.62 Q1090.39 1557.67 1093.63 1560.85 Q1096.91 1564 1102.74 1564 Q1106.11 1564 1109.26 1563.17 Q1112.44 1562.35 1115.56 1560.69 L1115.56 1566.23 Q1112.41 1567.57 1109.1 1568.27 Q1105.79 1568.97 1102.39 1568.97 Q1093.86 1568.97 1088.86 1564 Q1083.89 1559.04 1083.89 1550.57 Q1083.89 1541.82 1088.6 1536.69 Q1093.35 1531.54 1101.37 1531.54 Q1108.56 1531.54 1112.73 1536.18 Q1116.93 1540.8 1116.93 1548.76 M1111.07 1547.04 Q1111.01 1542.23 1108.37 1539.37 Q1105.76 1536.5 1101.43 1536.5 Q1096.53 1536.5 1093.57 1539.27 Q1090.64 1542.04 1090.2 1547.07 L1111.07 1547.04 Z" fill="#000000" fill-rule="nonzero" fill-opacity="1" /><path clip-path="url(#clip910)" d="M1147.2 1537.87 Q1146.21 1537.3 1145.04 1537.04 Q1143.89 1536.76 1142.49 1536.76 Q1137.52 1536.76 1134.85 1540 Q1132.21 1543.22 1132.21 1549.27 L1132.21 1568.04 L1126.32 1568.04 L1126.32 1532.4 L1132.21 1532.4 L1132.21 1537.93 Q1134.05 1534.69 1137.02 1533.13 Q1139.98 1531.54 1144.21 1531.54 Q1144.81 1531.54 1145.55 1531.63 Q1146.28 1531.7 1147.17 1531.85 L1147.2 1537.87 Z" fill="#000000" fill-rule="nonzero" fill-opacity="1" /><path clip-path="url(#clip910)" d="M1179.95 1539.24 Q1182.15 1535.29 1185.2 1533.41 Q1188.26 1531.54 1192.4 1531.54 Q1197.97 1531.54 1200.99 1535.45 Q1204.01 1539.33 1204.01 1546.53 L1204.01 1568.04 L1198.13 1568.04 L1198.13 1546.72 Q1198.13 1541.59 1196.31 1539.11 Q1194.5 1536.63 1190.77 1536.63 Q1186.22 1536.63 1183.58 1539.65 Q1180.94 1542.68 1180.94 1547.9 L1180.94 1568.04 L1175.05 1568.04 L1175.05 1546.72 Q1175.05 1541.56 1173.24 1539.11 Q1171.42 1536.63 1167.63 1536.63 Q1163.15 1536.63 1160.5 1539.68 Q1157.86 1542.71 1157.86 1547.9 L1157.86 1568.04 L1151.97 1568.04 L1151.97 1532.4 L1157.86 1532.4 L1157.86 1537.93 Q1159.87 1534.66 1162.67 1533.1 Q1165.47 1531.54 1169.32 1531.54 Q1173.2 1531.54 1175.91 1533.51 Q1178.65 1535.48 1179.95 1539.24 Z" fill="#000000" fill-rule="nonzero" fill-opacity="1" /><path clip-path="url(#clip910)" d="M1215.7 1532.4 L1221.55 1532.4 L1221.55 1568.04 L1215.7 1568.04 L1215.7 1532.4 M1215.7 1518.52 L1221.55 1518.52 L1221.55 1525.93 L1215.7 1525.93 L1215.7 1518.52 Z" fill="#000000" fill-rule="nonzero" fill-opacity="1" /><path clip-path="url(#clip910)" d="M1263.44 1546.53 L1263.44 1568.04 L1257.58 1568.04 L1257.58 1546.72 Q1257.58 1541.66 1255.61 1539.14 Q1253.63 1536.63 1249.69 1536.63 Q1244.95 1536.63 1242.21 1539.65 Q1239.47 1542.68 1239.47 1547.9 L1239.47 1568.04 L1233.58 1568.04 L1233.58 1532.4 L1239.47 1532.4 L1239.47 1537.93 Q1241.57 1534.72 1244.4 1533.13 Q1247.27 1531.54 1250.99 1531.54 Q1257.14 1531.54 1260.29 1535.36 Q1263.44 1539.14 1263.44 1546.53 Z" fill="#000000" fill-rule="nonzero" fill-opacity="1" /><path clip-path="url(#clip910)" d="M1291.32 1550.12 Q1284.22 1550.12 1281.48 1551.75 Q1278.75 1553.37 1278.75 1557.29 Q1278.75 1560.4 1280.78 1562.25 Q1282.85 1564.07 1286.39 1564.07 Q1291.26 1564.07 1294.18 1560.63 Q1297.14 1557.16 1297.14 1551.43 L1297.14 1550.12 L1291.32 1550.12 M1303 1547.71 L1303 1568.04 L1297.14 1568.04 L1297.14 1562.63 Q1295.14 1565.88 1292.15 1567.44 Q1289.16 1568.97 1284.83 1568.97 Q1279.35 1568.97 1276.11 1565.91 Q1272.89 1562.82 1272.89 1557.67 Q1272.89 1551.65 1276.9 1548.6 Q1280.94 1545.54 1288.93 1545.54 L1297.14 1545.54 L1297.14 1544.97 Q1297.14 1540.93 1294.47 1538.73 Q1291.83 1536.5 1287.02 1536.5 Q1283.97 1536.5 1281.07 1537.23 Q1278.17 1537.97 1275.5 1539.43 L1275.5 1534.02 Q1278.72 1532.78 1281.74 1532.17 Q1284.76 1531.54 1287.63 1531.54 Q1295.36 1531.54 1299.18 1535.55 Q1303 1539.56 1303 1547.71 Z" fill="#000000" fill-rule="nonzero" fill-opacity="1" /><path clip-path="url(#clip910)" d="M1315.06 1518.52 L1320.92 1518.52 L1320.92 1568.04 L1315.06 1568.04 L1315.06 1518.52 Z" fill="#000000" fill-rule="nonzero" fill-opacity="1" /><path clip-path="url(#clip910)" d="M1359.56 1562.7 L1359.56 1581.6 L1353.67 1581.6 L1353.67 1532.4 L1359.56 1532.4 L1359.56 1537.81 Q1361.41 1534.62 1364.21 1533.1 Q1367.04 1531.54 1370.95 1531.54 Q1377.45 1531.54 1381.49 1536.69 Q1385.56 1541.85 1385.56 1550.25 Q1385.56 1558.65 1381.49 1563.81 Q1377.45 1568.97 1370.95 1568.97 Q1367.04 1568.97 1364.21 1567.44 Q1361.41 1565.88 1359.56 1562.7 M1379.48 1550.25 Q1379.48 1543.79 1376.81 1540.13 Q1374.17 1536.44 1369.52 1536.44 Q1364.88 1536.44 1362.2 1540.13 Q1359.56 1543.79 1359.56 1550.25 Q1359.56 1556.71 1362.2 1560.4 Q1364.88 1564.07 1369.52 1564.07 Q1374.17 1564.07 1376.81 1560.4 Q1379.48 1556.71 1379.48 1550.25 Z" fill="#000000" fill-rule="nonzero" fill-opacity="1" /><path clip-path="url(#clip910)" d="M1415.93 1537.87 Q1414.94 1537.3 1413.76 1537.04 Q1412.62 1536.76 1411.22 1536.76 Q1406.25 1536.76 1403.58 1540 Q1400.94 1543.22 1400.94 1549.27 L1400.94 1568.04 L1395.05 1568.04 L1395.05 1532.4 L1400.94 1532.4 L1400.94 1537.93 Q1402.78 1534.69 1405.74 1533.13 Q1408.7 1531.54 1412.94 1531.54 Q1413.54 1531.54 1414.27 1531.63 Q1415.01 1531.7 1415.9 1531.85 L1415.93 1537.87 Z" fill="#000000" fill-rule="nonzero" fill-opacity="1" /><path clip-path="url(#clip910)" d="M1422.07 1532.4 L1427.93 1532.4 L1427.93 1568.04 L1422.07 1568.04 L1422.07 1532.4 M1422.07 1518.52 L1427.93 1518.52 L1427.93 1525.93 L1422.07 1525.93 L1422.07 1518.52 Z" fill="#000000" fill-rule="nonzero" fill-opacity="1" /><path clip-path="url(#clip910)" d="M1465.84 1533.76 L1465.84 1539.24 Q1463.35 1537.87 1460.84 1537.2 Q1458.36 1536.5 1455.81 1536.5 Q1450.11 1536.5 1446.96 1540.13 Q1443.81 1543.73 1443.81 1550.25 Q1443.81 1556.78 1446.96 1560.4 Q1450.11 1564 1455.81 1564 Q1458.36 1564 1460.84 1563.33 Q1463.35 1562.63 1465.84 1561.26 L1465.84 1566.68 Q1463.38 1567.82 1460.74 1568.39 Q1458.13 1568.97 1455.17 1568.97 Q1447.12 1568.97 1442.38 1563.91 Q1437.64 1558.85 1437.64 1550.25 Q1437.64 1541.53 1442.41 1536.53 Q1447.22 1531.54 1455.55 1531.54 Q1458.26 1531.54 1460.84 1532.11 Q1463.42 1532.65 1465.84 1533.76 Z" fill="#000000" fill-rule="nonzero" fill-opacity="1" /><path clip-path="url(#clip910)" d="M1506.51 1548.76 L1506.51 1551.62 L1479.59 1551.62 Q1479.97 1557.67 1483.21 1560.85 Q1486.49 1564 1492.32 1564 Q1495.69 1564 1498.84 1563.17 Q1502.02 1562.35 1505.14 1560.69 L1505.14 1566.23 Q1501.99 1567.57 1498.68 1568.27 Q1495.37 1568.97 1491.97 1568.97 Q1483.44 1568.97 1478.44 1564 Q1473.47 1559.04 1473.47 1550.57 Q1473.47 1541.82 1478.19 1536.69 Q1482.93 1531.54 1490.95 1531.54 Q1498.14 1531.54 1502.31 1536.18 Q1506.51 1540.8 1506.51 1548.76 M1500.66 1547.04 Q1500.59 1542.23 1497.95 1539.37 Q1495.34 1536.5 1491.01 1536.5 Q1486.11 1536.5 1483.15 1539.27 Q1480.22 1542.04 1479.78 1547.07 L1500.66 1547.04 Z" fill="#000000" fill-rule="nonzero" fill-opacity="1" /><polyline clip-path="url(#clip910)" style="stroke:#000000; stroke-linecap:round; stroke-linejoin:round; stroke-width:4; stroke-opacity:1; fill:none" points="205.121,1423.18 205.121,106.192 "/>
<polyline clip-path="url(#clip910)" style="stroke:#000000; stroke-linecap:round; stroke-linejoin:round; stroke-width:4; stroke-opacity:1; fill:none" points="205.121,1423.18 224.019,1423.18 "/>
<polyline clip-path="url(#clip910)" style="stroke:#000000; stroke-linecap:round; stroke-linejoin:round; stroke-width:4; stroke-opacity:1; fill:none" points="205.121,1174.69 224.019,1174.69 "/>
<polyline clip-path="url(#clip910)" style="stroke:#000000; stroke-linecap:round; stroke-linejoin:round; stroke-width:4; stroke-opacity:1; fill:none" points="205.121,926.203 224.019,926.203 "/>
<polyline clip-path="url(#clip910)" style="stroke:#000000; stroke-linecap:round; stroke-linejoin:round; stroke-width:4; stroke-opacity:1; fill:none" points="205.121,677.715 224.019,677.715 "/>
<polyline clip-path="url(#clip910)" style="stroke:#000000; stroke-linecap:round; stroke-linejoin:round; stroke-width:4; stroke-opacity:1; fill:none" points="205.121,429.227 224.019,429.227 "/>
<polyline clip-path="url(#clip910)" style="stroke:#000000; stroke-linecap:round; stroke-linejoin:round; stroke-width:4; stroke-opacity:1; fill:none" points="205.121,180.739 224.019,180.739 "/>
<path clip-path="url(#clip910)" d="M157.177 1408.98 Q153.566 1408.98 151.737 1412.54 Q149.931 1416.08 149.931 1423.21 Q149.931 1430.32 151.737 1433.89 Q153.566 1437.43 157.177 1437.43 Q160.811 1437.43 162.616 1433.89 Q164.445 1430.32 164.445 1423.21 Q164.445 1416.08 162.616 1412.54 Q160.811 1408.98 157.177 1408.98 M157.177 1405.27 Q162.987 1405.27 166.042 1409.88 Q169.121 1414.46 169.121 1423.21 Q169.121 1431.94 166.042 1436.55 Q162.987 1441.13 157.177 1441.13 Q151.366 1441.13 148.288 1436.55 Q145.232 1431.94 145.232 1423.21 Q145.232 1414.46 148.288 1409.88 Q151.366 1405.27 157.177 1405.27 Z" fill="#000000" fill-rule="nonzero" fill-opacity="1" /><path clip-path="url(#clip910)" d="M117.825 1188.04 L125.464 1188.04 L125.464 1161.67 L117.154 1163.34 L117.154 1159.08 L125.418 1157.41 L130.093 1157.41 L130.093 1188.04 L137.732 1188.04 L137.732 1191.97 L117.825 1191.97 L117.825 1188.04 Z" fill="#000000" fill-rule="nonzero" fill-opacity="1" /><path clip-path="url(#clip910)" d="M157.177 1160.49 Q153.566 1160.49 151.737 1164.06 Q149.931 1167.6 149.931 1174.73 Q149.931 1181.83 151.737 1185.4 Q153.566 1188.94 157.177 1188.94 Q160.811 1188.94 162.616 1185.4 Q164.445 1181.83 164.445 1174.73 Q164.445 1167.6 162.616 1164.06 Q160.811 1160.49 157.177 1160.49 M157.177 1156.79 Q162.987 1156.79 166.042 1161.39 Q169.121 1165.98 169.121 1174.73 Q169.121 1183.45 166.042 1188.06 Q162.987 1192.64 157.177 1192.64 Q151.366 1192.64 148.288 1188.06 Q145.232 1183.45 145.232 1174.73 Q145.232 1165.98 148.288 1161.39 Q151.366 1156.79 157.177 1156.79 Z" fill="#000000" fill-rule="nonzero" fill-opacity="1" /><path clip-path="url(#clip910)" d="M121.043 939.548 L137.362 939.548 L137.362 943.483 L115.418 943.483 L115.418 939.548 Q118.08 936.794 122.663 932.164 Q127.269 927.511 128.45 926.169 Q130.695 923.645 131.575 921.909 Q132.478 920.15 132.478 918.46 Q132.478 915.706 130.533 913.97 Q128.612 912.234 125.51 912.234 Q123.311 912.234 120.857 912.997 Q118.427 913.761 115.649 915.312 L115.649 910.59 Q118.473 909.456 120.927 908.877 Q123.38 908.298 125.418 908.298 Q130.788 908.298 133.982 910.984 Q137.177 913.669 137.177 918.159 Q137.177 920.289 136.367 922.21 Q135.579 924.108 133.473 926.701 Q132.894 927.372 129.792 930.59 Q126.691 933.784 121.043 939.548 Z" fill="#000000" fill-rule="nonzero" fill-opacity="1" /><path clip-path="url(#clip910)" d="M157.177 912.002 Q153.566 912.002 151.737 915.567 Q149.931 919.108 149.931 926.238 Q149.931 933.345 151.737 936.909 Q153.566 940.451 157.177 940.451 Q160.811 940.451 162.616 936.909 Q164.445 933.345 164.445 926.238 Q164.445 919.108 162.616 915.567 Q160.811 912.002 157.177 912.002 M157.177 908.298 Q162.987 908.298 166.042 912.905 Q169.121 917.488 169.121 926.238 Q169.121 934.965 166.042 939.571 Q162.987 944.155 157.177 944.155 Q151.366 944.155 148.288 939.571 Q145.232 934.965 145.232 926.238 Q145.232 917.488 148.288 912.905 Q151.366 908.298 157.177 908.298 Z" fill="#000000" fill-rule="nonzero" fill-opacity="1" /><path clip-path="url(#clip910)" d="M131.181 676.361 Q134.538 677.079 136.413 679.347 Q138.311 681.616 138.311 684.949 Q138.311 690.065 134.792 692.865 Q131.274 695.666 124.793 695.666 Q122.617 695.666 120.302 695.227 Q118.01 694.81 115.556 693.953 L115.556 689.44 Q117.501 690.574 119.816 691.153 Q122.13 691.731 124.654 691.731 Q129.052 691.731 131.343 689.995 Q133.658 688.259 133.658 684.949 Q133.658 681.893 131.505 680.18 Q129.376 678.444 125.556 678.444 L121.529 678.444 L121.529 674.602 L125.742 674.602 Q129.191 674.602 131.019 673.236 Q132.848 671.847 132.848 669.254 Q132.848 666.592 130.95 665.18 Q129.075 663.745 125.556 663.745 Q123.635 663.745 121.436 664.162 Q119.237 664.579 116.598 665.458 L116.598 661.292 Q119.26 660.551 121.575 660.18 Q123.913 659.81 125.973 659.81 Q131.297 659.81 134.399 662.241 Q137.501 664.648 137.501 668.768 Q137.501 671.639 135.857 673.629 Q134.214 675.597 131.181 676.361 Z" fill="#000000" fill-rule="nonzero" fill-opacity="1" /><path clip-path="url(#clip910)" d="M157.177 663.514 Q153.566 663.514 151.737 667.079 Q149.931 670.62 149.931 677.75 Q149.931 684.856 151.737 688.421 Q153.566 691.963 157.177 691.963 Q160.811 691.963 162.616 688.421 Q164.445 684.856 164.445 677.75 Q164.445 670.62 162.616 667.079 Q160.811 663.514 157.177 663.514 M157.177 659.81 Q162.987 659.81 166.042 664.417 Q169.121 669 169.121 677.75 Q169.121 686.477 166.042 691.083 Q162.987 695.666 157.177 695.666 Q151.366 695.666 148.288 691.083 Q145.232 686.477 145.232 677.75 Q145.232 669 148.288 664.417 Q151.366 659.81 157.177 659.81 Z" fill="#000000" fill-rule="nonzero" fill-opacity="1" /><path clip-path="url(#clip910)" d="M129.862 416.021 L118.056 434.47 L129.862 434.47 L129.862 416.021 M128.635 411.947 L134.515 411.947 L134.515 434.47 L139.445 434.47 L139.445 438.359 L134.515 438.359 L134.515 446.507 L129.862 446.507 L129.862 438.359 L114.26 438.359 L114.26 433.845 L128.635 411.947 Z" fill="#000000" fill-rule="nonzero" fill-opacity="1" /><path clip-path="url(#clip910)" d="M157.177 415.026 Q153.566 415.026 151.737 418.59 Q149.931 422.132 149.931 429.262 Q149.931 436.368 151.737 439.933 Q153.566 443.474 157.177 443.474 Q160.811 443.474 162.616 439.933 Q164.445 436.368 164.445 429.262 Q164.445 422.132 162.616 418.59 Q160.811 415.026 157.177 415.026 M157.177 411.322 Q162.987 411.322 166.042 415.928 Q169.121 420.512 169.121 429.262 Q169.121 437.988 166.042 442.595 Q162.987 447.178 157.177 447.178 Q151.366 447.178 148.288 442.595 Q145.232 437.988 145.232 429.262 Q145.232 420.512 148.288 415.928 Q151.366 411.322 157.177 411.322 Z" fill="#000000" fill-rule="nonzero" fill-opacity="1" /><path clip-path="url(#clip910)" d="M117.061 163.459 L135.417 163.459 L135.417 167.394 L121.343 167.394 L121.343 175.866 Q122.362 175.519 123.38 175.357 Q124.399 175.172 125.418 175.172 Q131.205 175.172 134.584 178.343 Q137.964 181.514 137.964 186.931 Q137.964 192.509 134.492 195.611 Q131.019 198.69 124.7 198.69 Q122.524 198.69 120.255 198.32 Q118.01 197.949 115.603 197.208 L115.603 192.509 Q117.686 193.644 119.908 194.199 Q122.13 194.755 124.607 194.755 Q128.612 194.755 130.95 192.648 Q133.288 190.542 133.288 186.931 Q133.288 183.32 130.95 181.213 Q128.612 179.107 124.607 179.107 Q122.732 179.107 120.857 179.523 Q119.006 179.94 117.061 180.82 L117.061 163.459 Z" fill="#000000" fill-rule="nonzero" fill-opacity="1" /><path clip-path="url(#clip910)" d="M157.177 166.537 Q153.566 166.537 151.737 170.102 Q149.931 173.644 149.931 180.773 Q149.931 187.88 151.737 191.445 Q153.566 194.986 157.177 194.986 Q160.811 194.986 162.616 191.445 Q164.445 187.88 164.445 180.773 Q164.445 173.644 162.616 170.102 Q160.811 166.537 157.177 166.537 M157.177 162.834 Q162.987 162.834 166.042 167.44 Q169.121 172.023 169.121 180.773 Q169.121 189.5 166.042 194.107 Q162.987 198.69 157.177 198.69 Q151.366 198.69 148.288 194.107 Q145.232 189.5 145.232 180.773 Q145.232 172.023 148.288 167.44 Q151.366 162.834 157.177 162.834 Z" fill="#000000" fill-rule="nonzero" fill-opacity="1" /><path clip-path="url(#clip910)" d="M20.1444 820.545 L26.9239 820.545 Q23.9002 823.792 22.4043 827.484 Q20.9083 831.144 20.9083 835.282 Q20.9083 843.43 25.9054 847.758 Q30.8707 852.087 40.2919 852.087 Q49.6813 852.087 54.6784 847.758 Q59.6436 843.43 59.6436 835.282 Q59.6436 831.144 58.1477 827.484 Q56.6518 823.792 53.6281 820.545 L60.3439 820.545 Q62.6355 823.919 63.7814 827.706 Q64.9272 831.462 64.9272 835.664 Q64.9272 846.453 58.3387 852.66 Q51.7183 858.867 40.2919 858.867 Q28.8336 858.867 22.2451 852.66 Q15.6248 846.453 15.6248 835.664 Q15.6248 831.399 16.7706 827.643 Q17.8846 823.855 20.1444 820.545 Z" fill="#000000" fill-rule="nonzero" fill-opacity="1" /><path clip-path="url(#clip910)" d="M32.4621 797.056 Q32.4621 801.766 36.1542 804.503 Q39.8145 807.241 46.212 807.241 Q52.6095 807.241 56.3017 804.535 Q59.9619 801.798 59.9619 797.056 Q59.9619 792.377 56.2698 789.64 Q52.5777 786.902 46.212 786.902 Q39.8781 786.902 36.186 789.64 Q32.4621 792.377 32.4621 797.056 M27.4968 797.056 Q27.4968 789.417 32.4621 785.056 Q37.4273 780.696 46.212 780.696 Q54.9649 780.696 59.9619 785.056 Q64.9272 789.417 64.9272 797.056 Q64.9272 804.726 59.9619 809.087 Q54.9649 813.415 46.212 813.415 Q37.4273 813.415 32.4621 809.087 Q27.4968 804.726 27.4968 797.056 Z" fill="#000000" fill-rule="nonzero" fill-opacity="1" /><path clip-path="url(#clip910)" d="M49.9359 771.593 L28.3562 771.593 L28.3562 765.736 L49.7131 765.736 Q54.7739 765.736 57.3202 763.763 Q59.8346 761.79 59.8346 757.843 Q59.8346 753.1 56.8109 750.363 Q53.7872 747.594 48.5673 747.594 L28.3562 747.594 L28.3562 741.738 L64.0042 741.738 L64.0042 747.594 L58.5296 747.594 Q61.7762 749.727 63.3676 752.559 Q64.9272 755.36 64.9272 759.084 Q64.9272 765.227 61.1078 768.41 Q57.2883 771.593 49.9359 771.593 M27.4968 756.856 L27.4968 756.856 Z" fill="#000000" fill-rule="nonzero" fill-opacity="1" /><path clip-path="url(#clip910)" d="M42.4881 700.042 L64.0042 700.042 L64.0042 705.899 L42.679 705.899 Q37.6183 705.899 35.1038 707.872 Q32.5894 709.845 32.5894 713.792 Q32.5894 718.535 35.6131 721.272 Q38.6368 724.009 43.8567 724.009 L64.0042 724.009 L64.0042 729.897 L28.3562 729.897 L28.3562 724.009 L33.8944 724.009 Q30.6797 721.908 29.0883 719.076 Q27.4968 716.211 27.4968 712.487 Q27.4968 706.344 31.3163 703.193 Q35.1038 700.042 42.4881 700.042 Z" fill="#000000" fill-rule="nonzero" fill-opacity="1" /><path clip-path="url(#clip910)" d="M18.2347 682.568 L28.3562 682.568 L28.3562 670.505 L32.9077 670.505 L32.9077 682.568 L52.2594 682.568 Q56.6199 682.568 57.8613 681.391 Q59.1026 680.181 59.1026 676.521 L59.1026 670.505 L64.0042 670.505 L64.0042 676.521 Q64.0042 683.3 61.4897 685.879 Q58.9434 688.457 52.2594 688.457 L32.9077 688.457 L32.9077 692.753 L28.3562 692.753 L28.3562 688.457 L18.2347 688.457 L18.2347 682.568 Z" fill="#000000" fill-rule="nonzero" fill-opacity="1" /><path clip-path="url(#clip910)" d="M688.013 8.64 L693.858 8.64 L693.858 48.8308 Q693.858 56.6432 690.877 60.1733 Q687.926 63.7034 681.358 63.7034 L679.13 63.7034 L679.13 58.7844 L680.953 58.7844 Q684.83 58.7844 686.421 56.6143 Q688.013 54.4442 688.013 48.8308 L688.013 8.64 Z" fill="#000000" fill-rule="nonzero" fill-opacity="1" /><path clip-path="url(#clip910)" d="M705.49 8.64 L713.36 8.64 L732.515 44.7799 L732.515 8.64 L738.186 8.64 L738.186 51.84 L730.316 51.84 L711.161 15.7001 L711.161 51.84 L705.49 51.84 L705.49 8.64 Z" fill="#000000" fill-rule="nonzero" fill-opacity="1" /><path clip-path="url(#clip910)" d="M749.818 8.64 L755.663 8.64 L755.663 48.8308 Q755.663 56.6432 752.683 60.1733 Q749.731 63.7034 743.163 63.7034 L740.935 63.7034 L740.935 58.7844 L742.758 58.7844 Q746.635 58.7844 748.227 56.6143 Q749.818 54.4442 749.818 48.8308 L749.818 8.64 Z" fill="#000000" fill-rule="nonzero" fill-opacity="1" /><path clip-path="url(#clip910)" d="M783.209 33.2348 L798.805 33.2348 L798.805 37.9801 L783.209 37.9801 L783.209 33.2348 Z" fill="#000000" fill-rule="nonzero" fill-opacity="1" /><path clip-path="url(#clip910)" d="M837.491 51.84 L820.998 8.64 L827.103 8.64 L840.79 45.0113 L854.505 8.64 L860.581 8.64 L844.117 51.84 L837.491 51.84 Z" fill="#000000" fill-rule="nonzero" fill-opacity="1" /><path clip-path="url(#clip910)" d="M866.889 8.64 L872.734 8.64 L872.734 51.84 L866.889 51.84 L866.889 8.64 Z" fill="#000000" fill-rule="nonzero" fill-opacity="1" /><path clip-path="url(#clip910)" d="M882.283 8.64 L888.561 8.64 L899.296 24.6989 L910.089 8.64 L916.368 8.64 L902.479 29.3864 L917.294 51.84 L911.015 51.84 L898.862 33.4663 L886.623 51.84 L880.315 51.84 L895.737 28.7788 L882.283 8.64 Z" fill="#000000" fill-rule="nonzero" fill-opacity="1" /><path clip-path="url(#clip910)" d="M919.088 33.2348 L934.684 33.2348 L934.684 37.9801 L919.088 37.9801 L919.088 33.2348 Z" fill="#000000" fill-rule="nonzero" fill-opacity="1" /><path clip-path="url(#clip910)" d="M966.484 20.677 L966.484 25.6538 Q964.227 24.4096 961.941 23.802 Q959.684 23.1654 957.369 23.1654 Q952.19 23.1654 949.325 26.464 Q946.46 29.7336 946.46 35.6653 Q946.46 41.597 949.325 44.8956 Q952.19 48.1653 957.369 48.1653 Q959.684 48.1653 961.941 47.5576 Q964.227 46.921 966.484 45.6768 L966.484 50.5958 Q964.256 51.6375 961.854 52.1583 Q959.481 52.6791 956.79 52.6791 Q949.47 52.6791 945.158 48.0784 Q940.847 43.4778 940.847 35.6653 Q940.847 27.7371 945.187 23.1943 Q949.557 18.6515 957.138 18.6515 Q959.597 18.6515 961.941 19.1724 Q964.284 19.6642 966.484 20.677 Z" fill="#000000" fill-rule="nonzero" fill-opacity="1" /><path clip-path="url(#clip910)" d="M988.301 23.1654 Q984.018 23.1654 981.53 26.5218 Q979.041 29.8494 979.041 35.6653 Q979.041 41.4813 981.501 44.8377 Q983.989 48.1653 988.301 48.1653 Q992.554 48.1653 995.042 44.8088 Q997.531 41.4523 997.531 35.6653 Q997.531 29.9072 995.042 26.5508 Q992.554 23.1654 988.301 23.1654 M988.301 18.6515 Q995.245 18.6515 999.209 23.1654 Q1003.17 27.6792 1003.17 35.6653 Q1003.17 43.6225 999.209 48.1653 Q995.245 52.6791 988.301 52.6791 Q981.327 52.6791 977.363 48.1653 Q973.428 43.6225 973.428 35.6653 Q973.428 27.6792 977.363 23.1654 Q981.327 18.6515 988.301 18.6515 Z" fill="#000000" fill-rule="nonzero" fill-opacity="1" /><path clip-path="url(#clip910)" d="M1038.94 32.2799 L1038.94 51.84 L1033.61 51.84 L1033.61 32.4535 Q1033.61 27.8529 1031.82 25.567 Q1030.02 23.2811 1026.44 23.2811 Q1022.13 23.2811 1019.64 26.03 Q1017.15 28.7788 1017.15 33.5241 L1017.15 51.84 L1011.8 51.84 L1011.8 19.4328 L1017.15 19.4328 L1017.15 24.4675 Q1019.06 21.545 1021.63 20.0983 Q1024.24 18.6515 1027.62 18.6515 Q1033.21 18.6515 1036.07 22.1237 Q1038.94 25.567 1038.94 32.2799 Z" fill="#000000" fill-rule="nonzero" fill-opacity="1" /><path clip-path="url(#clip910)" d="M1070.88 24.3517 L1070.88 6.81709 L1076.21 6.81709 L1076.21 51.84 L1070.88 51.84 L1070.88 46.9789 Q1069.2 49.8724 1066.63 51.2902 Q1064.08 52.6791 1060.49 52.6791 Q1054.62 52.6791 1050.92 47.9916 Q1047.24 43.3042 1047.24 35.6653 Q1047.24 28.0265 1050.92 23.339 Q1054.62 18.6515 1060.49 18.6515 Q1064.08 18.6515 1066.63 20.0693 Q1069.2 21.4582 1070.88 24.3517 M1052.74 35.6653 Q1052.74 41.5391 1055.14 44.8956 Q1057.57 48.2231 1061.8 48.2231 Q1066.02 48.2231 1068.45 44.8956 Q1070.88 41.5391 1070.88 35.6653 Q1070.88 29.7915 1068.45 26.464 Q1066.02 23.1075 1061.8 23.1075 Q1057.57 23.1075 1055.14 26.464 Q1052.74 29.7915 1052.74 35.6653 Z" fill="#000000" fill-rule="nonzero" fill-opacity="1" /><path clip-path="url(#clip910)" d="M1087.92 44.4905 L1094.03 44.4905 L1094.03 51.84 L1087.92 51.84 L1087.92 44.4905 Z" fill="#000000" fill-rule="nonzero" fill-opacity="1" /><path clip-path="url(#clip910)" d="M1157.43 11.9675 L1157.43 18.1307 Q1154.47 15.3819 1151.12 14.0219 Q1147.79 12.662 1144.03 12.662 Q1136.62 12.662 1132.69 17.2048 Q1128.75 21.7186 1128.75 30.2834 Q1128.75 38.8192 1132.69 43.362 Q1136.62 47.8759 1144.03 47.8759 Q1147.79 47.8759 1151.12 46.516 Q1154.47 45.156 1157.43 42.4072 L1157.43 48.5125 Q1154.36 50.5958 1150.92 51.6375 Q1147.5 52.6791 1143.68 52.6791 Q1133.87 52.6791 1128.23 46.6896 Q1122.59 40.6711 1122.59 30.2834 Q1122.59 19.8668 1128.23 13.8772 Q1133.87 7.85875 1143.68 7.85875 Q1147.56 7.85875 1150.97 8.90042 Q1154.42 9.91314 1157.43 11.9675 Z" fill="#000000" fill-rule="nonzero" fill-opacity="1" /><path clip-path="url(#clip910)" d="M1166.45 8.64 L1172.3 8.64 L1172.3 26.3482 L1193.54 26.3482 L1193.54 8.64 L1199.38 8.64 L1199.38 51.84 L1193.54 51.84 L1193.54 31.2672 L1172.3 31.2672 L1172.3 51.84 L1166.45 51.84 L1166.45 8.64 Z" fill="#000000" fill-rule="nonzero" fill-opacity="1" /><path clip-path="url(#clip910)" d="M1211.01 8.64 L1219.72 8.64 L1230.75 38.038 L1241.83 8.64 L1250.54 8.64 L1250.54 51.84 L1244.84 51.84 L1244.84 13.9062 L1233.7 43.5356 L1227.82 43.5356 L1216.68 13.9062 L1216.68 51.84 L1211.01 51.84 L1211.01 8.64 Z" fill="#000000" fill-rule="nonzero" fill-opacity="1" /><path clip-path="url(#clip910)" d="M1262.14 8.64 L1270.85 8.64 L1281.88 38.038 L1292.96 8.64 L1301.67 8.64 L1301.67 51.84 L1295.97 51.84 L1295.97 13.9062 L1284.83 43.5356 L1278.95 43.5356 L1267.81 13.9062 L1267.81 51.84 L1262.14 51.84 L1262.14 8.64 Z" fill="#000000" fill-rule="nonzero" fill-opacity="1" /><path clip-path="url(#clip910)" d="M1310.35 33.2348 L1325.94 33.2348 L1325.94 37.9801 L1310.35 37.9801 L1310.35 33.2348 Z" fill="#000000" fill-rule="nonzero" fill-opacity="1" /><path clip-path="url(#clip910)" d="M1339.69 10.2314 L1339.69 19.4328 L1350.65 19.4328 L1350.65 23.5705 L1339.69 23.5705 L1339.69 41.163 Q1339.69 45.1271 1340.76 46.2555 Q1341.86 47.384 1345.19 47.384 L1350.65 47.384 L1350.65 51.84 L1345.19 51.84 Q1339.02 51.84 1336.68 49.5541 Q1334.33 47.2393 1334.33 41.163 L1334.33 23.5705 L1330.43 23.5705 L1330.43 19.4328 L1334.33 19.4328 L1334.33 10.2314 L1339.69 10.2314 Z" fill="#000000" fill-rule="nonzero" fill-opacity="1" /><path clip-path="url(#clip910)" d="M1381.76 10.2314 L1381.76 19.4328 L1392.73 19.4328 L1392.73 23.5705 L1381.76 23.5705 L1381.76 41.163 Q1381.76 45.1271 1382.83 46.2555 Q1383.93 47.384 1387.26 47.384 L1392.73 47.384 L1392.73 51.84 L1387.26 51.84 Q1381.09 51.84 1378.75 49.5541 Q1376.41 47.2393 1376.41 41.163 L1376.41 23.5705 L1372.5 23.5705 L1372.5 19.4328 L1376.41 19.4328 L1376.41 10.2314 L1381.76 10.2314 Z" fill="#000000" fill-rule="nonzero" fill-opacity="1" /><path clip-path="url(#clip910)" d="M1427.45 34.3054 L1427.45 36.9095 L1402.97 36.9095 Q1403.32 42.4072 1406.27 45.3007 Q1409.25 48.1653 1414.54 48.1653 Q1417.61 48.1653 1420.47 47.4129 Q1423.37 46.6606 1426.2 45.156 L1426.2 50.1907 Q1423.34 51.406 1420.33 52.0425 Q1417.32 52.6791 1414.22 52.6791 Q1406.47 52.6791 1401.93 48.1653 Q1397.41 43.6514 1397.41 35.9547 Q1397.41 27.9975 1401.7 23.339 Q1406.01 18.6515 1413.3 18.6515 Q1419.84 18.6515 1423.63 22.876 Q1427.45 27.0716 1427.45 34.3054 M1422.12 32.7429 Q1422.07 28.3737 1419.66 25.7695 Q1417.29 23.1654 1413.36 23.1654 Q1408.9 23.1654 1406.21 25.6827 Q1403.55 28.2001 1403.14 32.7718 L1422.12 32.7429 Z" fill="#000000" fill-rule="nonzero" fill-opacity="1" /><path clip-path="url(#clip910)" d="M1454.96 24.4096 Q1454.07 23.8888 1453 23.6573 Q1451.96 23.3969 1450.68 23.3969 Q1446.17 23.3969 1443.74 26.3482 Q1441.34 29.2707 1441.34 34.7683 L1441.34 51.84 L1435.98 51.84 L1435.98 19.4328 L1441.34 19.4328 L1441.34 24.4675 Q1443.01 21.5161 1445.71 20.0983 Q1448.4 18.6515 1452.24 18.6515 Q1452.79 18.6515 1453.46 18.7383 Q1454.13 18.7962 1454.94 18.9409 L1454.96 24.4096 Z" fill="#000000" fill-rule="nonzero" fill-opacity="1" /><path clip-path="url(#clip910)" d="M1484.74 25.6538 Q1486.74 22.0659 1489.51 20.3587 Q1492.29 18.6515 1496.05 18.6515 Q1501.12 18.6515 1503.86 22.2105 Q1506.61 25.7406 1506.61 32.2799 L1506.61 51.84 L1501.26 51.84 L1501.26 32.4535 Q1501.26 27.795 1499.61 25.5381 Q1497.96 23.2811 1494.58 23.2811 Q1490.44 23.2811 1488.04 26.03 Q1485.64 28.7788 1485.64 33.5241 L1485.64 51.84 L1480.28 51.84 L1480.28 32.4535 Q1480.28 27.7661 1478.63 25.5381 Q1476.98 23.2811 1473.54 23.2811 Q1469.46 23.2811 1467.06 26.0589 Q1464.66 28.8077 1464.66 33.5241 L1464.66 51.84 L1459.3 51.84 L1459.3 19.4328 L1464.66 19.4328 L1464.66 24.4675 Q1466.48 21.4872 1469.03 20.0693 Q1471.57 18.6515 1475.07 18.6515 Q1478.6 18.6515 1481.06 20.4455 Q1483.55 22.2395 1484.74 25.6538 Z" fill="#000000" fill-rule="nonzero" fill-opacity="1" /><path clip-path="url(#clip910)" d="M1517.23 19.4328 L1522.56 19.4328 L1522.56 51.84 L1517.23 51.84 L1517.23 19.4328 M1517.23 6.81709 L1522.56 6.81709 L1522.56 13.559 L1517.23 13.559 L1517.23 6.81709 Z" fill="#000000" fill-rule="nonzero" fill-opacity="1" /><path clip-path="url(#clip910)" d="M1560.64 32.2799 L1560.64 51.84 L1555.31 51.84 L1555.31 32.4535 Q1555.31 27.8529 1553.52 25.567 Q1551.72 23.2811 1548.14 23.2811 Q1543.82 23.2811 1541.34 26.03 Q1538.85 28.7788 1538.85 33.5241 L1538.85 51.84 L1533.49 51.84 L1533.49 19.4328 L1538.85 19.4328 L1538.85 24.4675 Q1540.76 21.545 1543.33 20.0983 Q1545.94 18.6515 1549.32 18.6515 Q1554.91 18.6515 1557.77 22.1237 Q1560.64 25.567 1560.64 32.2799 Z" fill="#000000" fill-rule="nonzero" fill-opacity="1" /><path clip-path="url(#clip910)" d="M1585.98 35.5496 Q1579.53 35.5496 1577.04 37.0253 Q1574.55 38.501 1574.55 42.06 Q1574.55 44.8956 1576.41 46.5738 Q1578.29 48.2231 1581.5 48.2231 Q1585.92 48.2231 1588.59 45.0981 Q1591.28 41.9442 1591.28 36.7359 L1591.28 35.5496 L1585.98 35.5496 M1596.6 33.3505 L1596.6 51.84 L1591.28 51.84 L1591.28 46.921 Q1589.45 49.8724 1586.73 51.2902 Q1584.01 52.6791 1580.08 52.6791 Q1575.1 52.6791 1572.15 49.9014 Q1569.23 47.0947 1569.23 42.4072 Q1569.23 36.9385 1572.87 34.1607 Q1576.55 31.3829 1583.81 31.3829 L1591.28 31.3829 L1591.28 30.8621 Q1591.28 27.1874 1588.85 25.1908 Q1586.45 23.1654 1582.08 23.1654 Q1579.3 23.1654 1576.67 23.8309 Q1574.03 24.4964 1571.6 25.8274 L1571.6 20.9085 Q1574.52 19.78 1577.27 19.2302 Q1580.02 18.6515 1582.63 18.6515 Q1589.66 18.6515 1593.13 22.2973 Q1596.6 25.9431 1596.6 33.3505 Z" fill="#000000" fill-rule="nonzero" fill-opacity="1" /><path clip-path="url(#clip910)" d="M1607.57 6.81709 L1612.89 6.81709 L1612.89 51.84 L1607.57 51.84 L1607.57 6.81709 Z" fill="#000000" fill-rule="nonzero" fill-opacity="1" /><path clip-path="url(#clip910)" d="M1655.66 6.87496 Q1651.78 13.53 1649.9 20.0404 Q1648.02 26.5508 1648.02 33.2348 Q1648.02 39.9188 1649.9 46.487 Q1651.81 53.0263 1655.66 59.6525 L1651.03 59.6525 Q1646.69 52.8527 1644.52 46.2845 Q1642.38 39.7162 1642.38 33.2348 Q1642.38 26.7823 1644.52 20.2429 Q1646.66 13.7036 1651.03 6.87496 L1655.66 6.87496 Z" fill="#000000" fill-rule="nonzero" fill-opacity="1" /><path clip-path="url(#clip910)" d="M1692.93 32.2799 L1692.93 51.84 L1687.6 51.84 L1687.6 32.4535 Q1687.6 27.8529 1685.81 25.567 Q1684.01 23.2811 1680.43 23.2811 Q1676.12 23.2811 1673.63 26.03 Q1671.14 28.7788 1671.14 33.5241 L1671.14 51.84 L1665.79 51.84 L1665.79 19.4328 L1671.14 19.4328 L1671.14 24.4675 Q1673.05 21.545 1675.62 20.0983 Q1678.23 18.6515 1681.61 18.6515 Q1687.2 18.6515 1690.06 22.1237 Q1692.93 25.567 1692.93 32.2799 Z" fill="#000000" fill-rule="nonzero" fill-opacity="1" /><path clip-path="url(#clip910)" d="M1704.24 24.9304 L1741.33 24.9304 L1741.33 29.7915 L1704.24 29.7915 L1704.24 24.9304 M1704.24 36.7359 L1741.33 36.7359 L1741.33 41.6549 L1704.24 41.6549 L1704.24 36.7359 Z" fill="#000000" fill-rule="nonzero" fill-opacity="1" /><path clip-path="url(#clip910)" d="M1754.01 8.64 L1776.95 8.64 L1776.95 13.559 L1759.36 13.559 L1759.36 24.1492 Q1760.63 23.7152 1761.91 23.5126 Q1763.18 23.2811 1764.45 23.2811 Q1771.69 23.2811 1775.91 27.2452 Q1780.14 31.2093 1780.14 37.9801 Q1780.14 44.9535 1775.8 48.8308 Q1771.46 52.6791 1763.56 52.6791 Q1760.84 52.6791 1758 52.2162 Q1755.19 51.7532 1752.19 50.8273 L1752.19 44.9535 Q1754.79 46.3713 1757.57 47.0657 Q1760.35 47.7602 1763.44 47.7602 Q1768.45 47.7602 1771.37 45.1271 Q1774.29 42.494 1774.29 37.9801 Q1774.29 33.4663 1771.37 30.8332 Q1768.45 28.2001 1763.44 28.2001 Q1761.1 28.2001 1758.75 28.7209 Q1756.44 29.2417 1754.01 30.3413 L1754.01 8.64 Z" fill="#000000" fill-rule="nonzero" fill-opacity="1" /><path clip-path="url(#clip910)" d="M1804.15 12.4884 Q1799.64 12.4884 1797.35 16.9444 Q1795.1 21.3714 1795.1 30.2834 Q1795.1 39.1665 1797.35 43.6225 Q1799.64 48.0495 1804.15 48.0495 Q1808.7 48.0495 1810.95 43.6225 Q1813.24 39.1665 1813.24 30.2834 Q1813.24 21.3714 1810.95 16.9444 Q1808.7 12.4884 1804.15 12.4884 M1804.15 7.85875 Q1811.42 7.85875 1815.23 13.6168 Q1819.08 19.346 1819.08 30.2834 Q1819.08 41.1919 1815.23 46.95 Q1811.42 52.6791 1804.15 52.6791 Q1796.89 52.6791 1793.04 46.95 Q1789.22 41.1919 1789.22 30.2834 Q1789.22 19.346 1793.04 13.6168 Q1796.89 7.85875 1804.15 7.85875 Z" fill="#000000" fill-rule="nonzero" fill-opacity="1" /><path clip-path="url(#clip910)" d="M1841.85 12.4884 Q1837.34 12.4884 1835.06 16.9444 Q1832.8 21.3714 1832.8 30.2834 Q1832.8 39.1665 1835.06 43.6225 Q1837.34 48.0495 1841.85 48.0495 Q1846.4 48.0495 1848.65 43.6225 Q1850.94 39.1665 1850.94 30.2834 Q1850.94 21.3714 1848.65 16.9444 Q1846.4 12.4884 1841.85 12.4884 M1841.85 7.85875 Q1849.12 7.85875 1852.94 13.6168 Q1856.79 19.346 1856.79 30.2834 Q1856.79 41.1919 1852.94 46.95 Q1849.12 52.6791 1841.85 52.6791 Q1834.59 52.6791 1830.74 46.95 Q1826.92 41.1919 1826.92 30.2834 Q1826.92 19.346 1830.74 13.6168 Q1834.59 7.85875 1841.85 7.85875 Z" fill="#000000" fill-rule="nonzero" fill-opacity="1" /><path clip-path="url(#clip910)" d="M1865.47 6.87496 L1870.1 6.87496 Q1874.44 13.7036 1876.58 20.2429 Q1878.75 26.7823 1878.75 33.2348 Q1878.75 39.7162 1876.58 46.2845 Q1874.44 52.8527 1870.1 59.6525 L1865.47 59.6525 Q1869.31 53.0263 1871.2 46.487 Q1873.1 39.9188 1873.1 33.2348 Q1873.1 26.5508 1871.2 20.0404 Q1869.31 13.53 1865.47 6.87496 Z" fill="#000000" fill-rule="nonzero" fill-opacity="1" /><path clip-path="url(#clip912)" d="M323.245 1398.33 L323.245 1423.18 L371.029 1423.18 L371.029 1398.33 L323.245 1398.33 L323.245 1398.33  Z" fill="#2e8b57" fill-rule="evenodd" fill-opacity="0.6"/>
<polyline clip-path="url(#clip912)" style="stroke:#000000; stroke-linecap:round; stroke-linejoin:round; stroke-width:4; stroke-opacity:1; fill:none" points="323.245,1398.33 323.245,1423.18 371.029,1423.18 371.029,1398.33 323.245,1398.33 "/>
<path clip-path="url(#clip912)" d="M371.029 1373.48 L371.029 1423.18 L418.814 1423.18 L418.814 1373.48 L371.029 1373.48 L371.029 1373.48  Z" fill="#2e8b57" fill-rule="evenodd" fill-opacity="0.6"/>
<polyline clip-path="url(#clip912)" style="stroke:#000000; stroke-linecap:round; stroke-linejoin:round; stroke-width:4; stroke-opacity:1; fill:none" points="371.029,1373.48 371.029,1423.18 418.814,1423.18 418.814,1373.48 371.029,1373.48 "/>
<path clip-path="url(#clip912)" d="M418.814 1398.33 L418.814 1423.18 L466.599 1423.18 L466.599 1398.33 L418.814 1398.33 L418.814 1398.33  Z" fill="#2e8b57" fill-rule="evenodd" fill-opacity="0.6"/>
<polyline clip-path="url(#clip912)" style="stroke:#000000; stroke-linecap:round; stroke-linejoin:round; stroke-width:4; stroke-opacity:1; fill:none" points="418.814,1398.33 418.814,1423.18 466.599,1423.18 466.599,1398.33 418.814,1398.33 "/>
<path clip-path="url(#clip912)" d="M466.599 1398.33 L466.599 1423.18 L514.383 1423.18 L514.383 1398.33 L466.599 1398.33 L466.599 1398.33  Z" fill="#2e8b57" fill-rule="evenodd" fill-opacity="0.6"/>
<polyline clip-path="url(#clip912)" style="stroke:#000000; stroke-linecap:round; stroke-linejoin:round; stroke-width:4; stroke-opacity:1; fill:none" points="466.599,1398.33 466.599,1423.18 514.383,1423.18 514.383,1398.33 466.599,1398.33 "/>
<path clip-path="url(#clip912)" d="M514.383 1298.94 L514.383 1423.18 L562.168 1423.18 L562.168 1298.94 L514.383 1298.94 L514.383 1298.94  Z" fill="#2e8b57" fill-rule="evenodd" fill-opacity="0.6"/>
<polyline clip-path="url(#clip912)" style="stroke:#000000; stroke-linecap:round; stroke-linejoin:round; stroke-width:4; stroke-opacity:1; fill:none" points="514.383,1298.94 514.383,1423.18 562.168,1423.18 562.168,1298.94 514.383,1298.94 "/>
<path clip-path="url(#clip912)" d="M562.168 1274.09 L562.168 1423.18 L609.953 1423.18 L609.953 1274.09 L562.168 1274.09 L562.168 1274.09  Z" fill="#2e8b57" fill-rule="evenodd" fill-opacity="0.6"/>
<polyline clip-path="url(#clip912)" style="stroke:#000000; stroke-linecap:round; stroke-linejoin:round; stroke-width:4; stroke-opacity:1; fill:none" points="562.168,1274.09 562.168,1423.18 609.953,1423.18 609.953,1274.09 562.168,1274.09 "/>
<path clip-path="url(#clip912)" d="M609.953 901.355 L609.953 1423.18 L657.738 1423.18 L657.738 901.355 L609.953 901.355 L609.953 901.355  Z" fill="#2e8b57" fill-rule="evenodd" fill-opacity="0.6"/>
<polyline clip-path="url(#clip912)" style="stroke:#000000; stroke-linecap:round; stroke-linejoin:round; stroke-width:4; stroke-opacity:1; fill:none" points="609.953,901.355 609.953,1423.18 657.738,1423.18 657.738,901.355 609.953,901.355 "/>
<path clip-path="url(#clip912)" d="M657.738 1000.75 L657.738 1423.18 L705.522 1423.18 L705.522 1000.75 L657.738 1000.75 L657.738 1000.75  Z" fill="#2e8b57" fill-rule="evenodd" fill-opacity="0.6"/>
<polyline clip-path="url(#clip912)" style="stroke:#000000; stroke-linecap:round; stroke-linejoin:round; stroke-width:4; stroke-opacity:1; fill:none" points="657.738,1000.75 657.738,1423.18 705.522,1423.18 705.522,1000.75 657.738,1000.75 "/>
<path clip-path="url(#clip912)" d="M705.522 702.564 L705.522 1423.18 L753.307 1423.18 L753.307 702.564 L705.522 702.564 L705.522 702.564  Z" fill="#2e8b57" fill-rule="evenodd" fill-opacity="0.6"/>
<polyline clip-path="url(#clip912)" style="stroke:#000000; stroke-linecap:round; stroke-linejoin:round; stroke-width:4; stroke-opacity:1; fill:none" points="705.522,702.564 705.522,1423.18 753.307,1423.18 753.307,702.564 705.522,702.564 "/>
<path clip-path="url(#clip912)" d="M753.307 603.169 L753.307 1423.18 L801.092 1423.18 L801.092 603.169 L753.307 603.169 L753.307 603.169  Z" fill="#2e8b57" fill-rule="evenodd" fill-opacity="0.6"/>
<polyline clip-path="url(#clip912)" style="stroke:#000000; stroke-linecap:round; stroke-linejoin:round; stroke-width:4; stroke-opacity:1; fill:none" points="753.307,603.169 753.307,1423.18 801.092,1423.18 801.092,603.169 753.307,603.169 "/>
<path clip-path="url(#clip912)" d="M801.092 106.192 L801.092 1423.18 L848.876 1423.18 L848.876 106.192 L801.092 106.192 L801.092 106.192  Z" fill="#2e8b57" fill-rule="evenodd" fill-opacity="0.6"/>
<polyline clip-path="url(#clip912)" style="stroke:#000000; stroke-linecap:round; stroke-linejoin:round; stroke-width:4; stroke-opacity:1; fill:none" points="801.092,106.192 801.092,1423.18 848.876,1423.18 848.876,106.192 801.092,106.192 "/>
<path clip-path="url(#clip912)" d="M848.876 404.378 L848.876 1423.18 L896.661 1423.18 L896.661 404.378 L848.876 404.378 L848.876 404.378  Z" fill="#2e8b57" fill-rule="evenodd" fill-opacity="0.6"/>
<polyline clip-path="url(#clip912)" style="stroke:#000000; stroke-linecap:round; stroke-linejoin:round; stroke-width:4; stroke-opacity:1; fill:none" points="848.876,404.378 848.876,1423.18 896.661,1423.18 896.661,404.378 848.876,404.378 "/>
<path clip-path="url(#clip912)" d="M896.661 255.285 L896.661 1423.18 L944.446 1423.18 L944.446 255.285 L896.661 255.285 L896.661 255.285  Z" fill="#2e8b57" fill-rule="evenodd" fill-opacity="0.6"/>
<polyline clip-path="url(#clip912)" style="stroke:#000000; stroke-linecap:round; stroke-linejoin:round; stroke-width:4; stroke-opacity:1; fill:none" points="896.661,255.285 896.661,1423.18 944.446,1423.18 944.446,255.285 896.661,255.285 "/>
<path clip-path="url(#clip912)" d="M944.446 280.134 L944.446 1423.18 L992.23 1423.18 L992.23 280.134 L944.446 280.134 L944.446 280.134  Z" fill="#2e8b57" fill-rule="evenodd" fill-opacity="0.6"/>
<polyline clip-path="url(#clip912)" style="stroke:#000000; stroke-linecap:round; stroke-linejoin:round; stroke-width:4; stroke-opacity:1; fill:none" points="944.446,280.134 944.446,1423.18 992.23,1423.18 992.23,280.134 944.446,280.134 "/>
<path clip-path="url(#clip912)" d="M992.23 528.622 L992.23 1423.18 L1040.02 1423.18 L1040.02 528.622 L992.23 528.622 L992.23 528.622  Z" fill="#2e8b57" fill-rule="evenodd" fill-opacity="0.6"/>
<polyline clip-path="url(#clip912)" style="stroke:#000000; stroke-linecap:round; stroke-linejoin:round; stroke-width:4; stroke-opacity:1; fill:none" points="992.23,528.622 992.23,1423.18 1040.02,1423.18 1040.02,528.622 992.23,528.622 "/>
<path clip-path="url(#clip912)" d="M1040.02 702.564 L1040.02 1423.18 L1087.8 1423.18 L1087.8 702.564 L1040.02 702.564 L1040.02 702.564  Z" fill="#2e8b57" fill-rule="evenodd" fill-opacity="0.6"/>
<polyline clip-path="url(#clip912)" style="stroke:#000000; stroke-linecap:round; stroke-linejoin:round; stroke-width:4; stroke-opacity:1; fill:none" points="1040.02,702.564 1040.02,1423.18 1087.8,1423.18 1087.8,702.564 1040.02,702.564 "/>
<path clip-path="url(#clip912)" d="M1087.8 503.773 L1087.8 1423.18 L1135.58 1423.18 L1135.58 503.773 L1087.8 503.773 L1087.8 503.773  Z" fill="#2e8b57" fill-rule="evenodd" fill-opacity="0.6"/>
<polyline clip-path="url(#clip912)" style="stroke:#000000; stroke-linecap:round; stroke-linejoin:round; stroke-width:4; stroke-opacity:1; fill:none" points="1087.8,503.773 1087.8,1423.18 1135.58,1423.18 1135.58,503.773 1087.8,503.773 "/>
<path clip-path="url(#clip912)" d="M1135.58 901.355 L1135.58 1423.18 L1183.37 1423.18 L1183.37 901.355 L1135.58 901.355 L1135.58 901.355  Z" fill="#2e8b57" fill-rule="evenodd" fill-opacity="0.6"/>
<polyline clip-path="url(#clip912)" style="stroke:#000000; stroke-linecap:round; stroke-linejoin:round; stroke-width:4; stroke-opacity:1; fill:none" points="1135.58,901.355 1135.58,1423.18 1183.37,1423.18 1183.37,901.355 1135.58,901.355 "/>
<path clip-path="url(#clip912)" d="M1183.37 1025.6 L1183.37 1423.18 L1231.15 1423.18 L1231.15 1025.6 L1183.37 1025.6 L1183.37 1025.6  Z" fill="#2e8b57" fill-rule="evenodd" fill-opacity="0.6"/>
<polyline clip-path="url(#clip912)" style="stroke:#000000; stroke-linecap:round; stroke-linejoin:round; stroke-width:4; stroke-opacity:1; fill:none" points="1183.37,1025.6 1183.37,1423.18 1231.15,1423.18 1231.15,1025.6 1183.37,1025.6 "/>
<path clip-path="url(#clip912)" d="M1231.15 1149.84 L1231.15 1423.18 L1278.94 1423.18 L1278.94 1149.84 L1231.15 1149.84 L1231.15 1149.84  Z" fill="#2e8b57" fill-rule="evenodd" fill-opacity="0.6"/>
<polyline clip-path="url(#clip912)" style="stroke:#000000; stroke-linecap:round; stroke-linejoin:round; stroke-width:4; stroke-opacity:1; fill:none" points="1231.15,1149.84 1231.15,1423.18 1278.94,1423.18 1278.94,1149.84 1231.15,1149.84 "/>
<path clip-path="url(#clip912)" d="M1278.94 1124.99 L1278.94 1423.18 L1326.72 1423.18 L1326.72 1124.99 L1278.94 1124.99 L1278.94 1124.99  Z" fill="#2e8b57" fill-rule="evenodd" fill-opacity="0.6"/>
<polyline clip-path="url(#clip912)" style="stroke:#000000; stroke-linecap:round; stroke-linejoin:round; stroke-width:4; stroke-opacity:1; fill:none" points="1278.94,1124.99 1278.94,1423.18 1326.72,1423.18 1326.72,1124.99 1278.94,1124.99 "/>
<path clip-path="url(#clip912)" d="M1326.72 1274.09 L1326.72 1423.18 L1374.51 1423.18 L1374.51 1274.09 L1326.72 1274.09 L1326.72 1274.09  Z" fill="#2e8b57" fill-rule="evenodd" fill-opacity="0.6"/>
<polyline clip-path="url(#clip912)" style="stroke:#000000; stroke-linecap:round; stroke-linejoin:round; stroke-width:4; stroke-opacity:1; fill:none" points="1326.72,1274.09 1326.72,1423.18 1374.51,1423.18 1374.51,1274.09 1326.72,1274.09 "/>
<path clip-path="url(#clip912)" d="M1374.51 1274.09 L1374.51 1423.18 L1422.29 1423.18 L1422.29 1274.09 L1374.51 1274.09 L1374.51 1274.09  Z" fill="#2e8b57" fill-rule="evenodd" fill-opacity="0.6"/>
<polyline clip-path="url(#clip912)" style="stroke:#000000; stroke-linecap:round; stroke-linejoin:round; stroke-width:4; stroke-opacity:1; fill:none" points="1374.51,1274.09 1374.51,1423.18 1422.29,1423.18 1422.29,1274.09 1374.51,1274.09 "/>
<path clip-path="url(#clip912)" d="M1422.29 1174.69 L1422.29 1423.18 L1470.08 1423.18 L1470.08 1174.69 L1422.29 1174.69 L1422.29 1174.69  Z" fill="#2e8b57" fill-rule="evenodd" fill-opacity="0.6"/>
<polyline clip-path="url(#clip912)" style="stroke:#000000; stroke-linecap:round; stroke-linejoin:round; stroke-width:4; stroke-opacity:1; fill:none" points="1422.29,1174.69 1422.29,1423.18 1470.08,1423.18 1470.08,1174.69 1422.29,1174.69 "/>
<path clip-path="url(#clip912)" d="M1470.08 1224.39 L1470.08 1423.18 L1517.86 1423.18 L1517.86 1224.39 L1470.08 1224.39 L1470.08 1224.39  Z" fill="#2e8b57" fill-rule="evenodd" fill-opacity="0.6"/>
<polyline clip-path="url(#clip912)" style="stroke:#000000; stroke-linecap:round; stroke-linejoin:round; stroke-width:4; stroke-opacity:1; fill:none" points="1470.08,1224.39 1470.08,1423.18 1517.86,1423.18 1517.86,1224.39 1470.08,1224.39 "/>
<path clip-path="url(#clip912)" d="M1517.86 1423.18 L1517.86 1423.18 L1565.65 1423.18 L1565.65 1423.18 L1517.86 1423.18 L1517.86 1423.18  Z" fill="#2e8b57" fill-rule="evenodd" fill-opacity="0.6"/>
<polyline clip-path="url(#clip912)" style="stroke:#000000; stroke-linecap:round; stroke-linejoin:round; stroke-width:4; stroke-opacity:1; fill:none" points="1517.86,1423.18 1517.86,1423.18 1565.65,1423.18 1517.86,1423.18 "/>
<path clip-path="url(#clip912)" d="M1565.65 1398.33 L1565.65 1423.18 L1613.43 1423.18 L1613.43 1398.33 L1565.65 1398.33 L1565.65 1398.33  Z" fill="#2e8b57" fill-rule="evenodd" fill-opacity="0.6"/>
<polyline clip-path="url(#clip912)" style="stroke:#000000; stroke-linecap:round; stroke-linejoin:round; stroke-width:4; stroke-opacity:1; fill:none" points="1565.65,1398.33 1565.65,1423.18 1613.43,1423.18 1613.43,1398.33 1565.65,1398.33 "/>
<path clip-path="url(#clip912)" d="M1613.43 1373.48 L1613.43 1423.18 L1661.22 1423.18 L1661.22 1373.48 L1613.43 1373.48 L1613.43 1373.48  Z" fill="#2e8b57" fill-rule="evenodd" fill-opacity="0.6"/>
<polyline clip-path="url(#clip912)" style="stroke:#000000; stroke-linecap:round; stroke-linejoin:round; stroke-width:4; stroke-opacity:1; fill:none" points="1613.43,1373.48 1613.43,1423.18 1661.22,1423.18 1661.22,1373.48 1613.43,1373.48 "/>
<path clip-path="url(#clip912)" d="M1661.22 1398.33 L1661.22 1423.18 L1709 1423.18 L1709 1398.33 L1661.22 1398.33 L1661.22 1398.33  Z" fill="#2e8b57" fill-rule="evenodd" fill-opacity="0.6"/>
<polyline clip-path="url(#clip912)" style="stroke:#000000; stroke-linecap:round; stroke-linejoin:round; stroke-width:4; stroke-opacity:1; fill:none" points="1661.22,1398.33 1661.22,1423.18 1709,1423.18 1709,1398.33 1661.22,1398.33 "/>
<path clip-path="url(#clip912)" d="M1709 1423.18 L1709 1423.18 L1756.79 1423.18 L1756.79 1423.18 L1709 1423.18 L1709 1423.18  Z" fill="#2e8b57" fill-rule="evenodd" fill-opacity="0.6"/>
<polyline clip-path="url(#clip912)" style="stroke:#000000; stroke-linecap:round; stroke-linejoin:round; stroke-width:4; stroke-opacity:1; fill:none" points="1709,1423.18 1709,1423.18 1756.79,1423.18 1709,1423.18 "/>
<path clip-path="url(#clip912)" d="M1756.79 1423.18 L1756.79 1423.18 L1804.57 1423.18 L1804.57 1423.18 L1756.79 1423.18 L1756.79 1423.18  Z" fill="#2e8b57" fill-rule="evenodd" fill-opacity="0.6"/>
<polyline clip-path="url(#clip912)" style="stroke:#000000; stroke-linecap:round; stroke-linejoin:round; stroke-width:4; stroke-opacity:1; fill:none" points="1756.79,1423.18 1756.79,1423.18 1804.57,1423.18 1756.79,1423.18 "/>
<path clip-path="url(#clip912)" d="M1804.57 1423.18 L1804.57 1423.18 L1852.35 1423.18 L1852.35 1423.18 L1804.57 1423.18 L1804.57 1423.18  Z" fill="#2e8b57" fill-rule="evenodd" fill-opacity="0.6"/>
<polyline clip-path="url(#clip912)" style="stroke:#000000; stroke-linecap:round; stroke-linejoin:round; stroke-width:4; stroke-opacity:1; fill:none" points="1804.57,1423.18 1804.57,1423.18 1852.35,1423.18 1804.57,1423.18 "/>
<path clip-path="url(#clip912)" d="M1852.35 1423.18 L1852.35 1423.18 L1900.14 1423.18 L1900.14 1423.18 L1852.35 1423.18 L1852.35 1423.18  Z" fill="#2e8b57" fill-rule="evenodd" fill-opacity="0.6"/>
<polyline clip-path="url(#clip912)" style="stroke:#000000; stroke-linecap:round; stroke-linejoin:round; stroke-width:4; stroke-opacity:1; fill:none" points="1852.35,1423.18 1852.35,1423.18 1900.14,1423.18 1852.35,1423.18 "/>
<path clip-path="url(#clip912)" d="M1900.14 1423.18 L1900.14 1423.18 L1947.92 1423.18 L1947.92 1423.18 L1900.14 1423.18 L1900.14 1423.18  Z" fill="#2e8b57" fill-rule="evenodd" fill-opacity="0.6"/>
<polyline clip-path="url(#clip912)" style="stroke:#000000; stroke-linecap:round; stroke-linejoin:round; stroke-width:4; stroke-opacity:1; fill:none" points="1900.14,1423.18 1900.14,1423.18 1947.92,1423.18 1900.14,1423.18 "/>
<path clip-path="url(#clip912)" d="M1947.92 1423.18 L1947.92 1423.18 L1995.71 1423.18 L1995.71 1423.18 L1947.92 1423.18 L1947.92 1423.18  Z" fill="#2e8b57" fill-rule="evenodd" fill-opacity="0.6"/>
<polyline clip-path="url(#clip912)" style="stroke:#000000; stroke-linecap:round; stroke-linejoin:round; stroke-width:4; stroke-opacity:1; fill:none" points="1947.92,1423.18 1947.92,1423.18 1995.71,1423.18 1947.92,1423.18 "/>
<path clip-path="url(#clip912)" d="M1995.71 1423.18 L1995.71 1423.18 L2043.49 1423.18 L2043.49 1423.18 L1995.71 1423.18 L1995.71 1423.18  Z" fill="#2e8b57" fill-rule="evenodd" fill-opacity="0.6"/>
<polyline clip-path="url(#clip912)" style="stroke:#000000; stroke-linecap:round; stroke-linejoin:round; stroke-width:4; stroke-opacity:1; fill:none" points="1995.71,1423.18 1995.71,1423.18 2043.49,1423.18 1995.71,1423.18 "/>
<path clip-path="url(#clip912)" d="M2043.49 1423.18 L2043.49 1423.18 L2091.28 1423.18 L2091.28 1423.18 L2043.49 1423.18 L2043.49 1423.18  Z" fill="#2e8b57" fill-rule="evenodd" fill-opacity="0.6"/>
<polyline clip-path="url(#clip912)" style="stroke:#000000; stroke-linecap:round; stroke-linejoin:round; stroke-width:4; stroke-opacity:1; fill:none" points="2043.49,1423.18 2043.49,1423.18 2091.28,1423.18 2043.49,1423.18 "/>
<path clip-path="url(#clip912)" d="M2091.28 1423.18 L2091.28 1423.18 L2139.06 1423.18 L2139.06 1423.18 L2091.28 1423.18 L2091.28 1423.18  Z" fill="#2e8b57" fill-rule="evenodd" fill-opacity="0.6"/>
<polyline clip-path="url(#clip912)" style="stroke:#000000; stroke-linecap:round; stroke-linejoin:round; stroke-width:4; stroke-opacity:1; fill:none" points="2091.28,1423.18 2091.28,1423.18 2139.06,1423.18 2091.28,1423.18 "/>
<path clip-path="url(#clip912)" d="M2139.06 1423.18 L2139.06 1423.18 L2186.85 1423.18 L2186.85 1423.18 L2139.06 1423.18 L2139.06 1423.18  Z" fill="#2e8b57" fill-rule="evenodd" fill-opacity="0.6"/>
<polyline clip-path="url(#clip912)" style="stroke:#000000; stroke-linecap:round; stroke-linejoin:round; stroke-width:4; stroke-opacity:1; fill:none" points="2139.06,1423.18 2139.06,1423.18 2186.85,1423.18 2139.06,1423.18 "/>
<path clip-path="url(#clip912)" d="M2186.85 1398.33 L2186.85 1423.18 L2234.63 1423.18 L2234.63 1398.33 L2186.85 1398.33 L2186.85 1398.33  Z" fill="#2e8b57" fill-rule="evenodd" fill-opacity="0.6"/>
<polyline clip-path="url(#clip912)" style="stroke:#000000; stroke-linecap:round; stroke-linejoin:round; stroke-width:4; stroke-opacity:1; fill:none" points="2186.85,1398.33 2186.85,1423.18 2234.63,1423.18 2234.63,1398.33 2186.85,1398.33 "/>
<circle clip-path="url(#clip912)" style="fill:#2e8b57; stroke:none; fill-opacity:0" cx="347.137" cy="1398.33" r="2"/>
<circle clip-path="url(#clip912)" style="fill:#2e8b57; stroke:none; fill-opacity:0" cx="394.922" cy="1373.48" r="2"/>
<circle clip-path="url(#clip912)" style="fill:#2e8b57; stroke:none; fill-opacity:0" cx="442.706" cy="1398.33" r="2"/>
<circle clip-path="url(#clip912)" style="fill:#2e8b57; stroke:none; fill-opacity:0" cx="490.491" cy="1398.33" r="2"/>
<circle clip-path="url(#clip912)" style="fill:#2e8b57; stroke:none; fill-opacity:0" cx="538.276" cy="1298.94" r="2"/>
<circle clip-path="url(#clip912)" style="fill:#2e8b57; stroke:none; fill-opacity:0" cx="586.06" cy="1274.09" r="2"/>
<circle clip-path="url(#clip912)" style="fill:#2e8b57; stroke:none; fill-opacity:0" cx="633.845" cy="901.355" r="2"/>
<circle clip-path="url(#clip912)" style="fill:#2e8b57; stroke:none; fill-opacity:0" cx="681.63" cy="1000.75" r="2"/>
<circle clip-path="url(#clip912)" style="fill:#2e8b57; stroke:none; fill-opacity:0" cx="729.415" cy="702.564" r="2"/>
<circle clip-path="url(#clip912)" style="fill:#2e8b57; stroke:none; fill-opacity:0" cx="777.199" cy="603.169" r="2"/>
<circle clip-path="url(#clip912)" style="fill:#2e8b57; stroke:none; fill-opacity:0" cx="824.984" cy="106.192" r="2"/>
<circle clip-path="url(#clip912)" style="fill:#2e8b57; stroke:none; fill-opacity:0" cx="872.769" cy="404.378" r="2"/>
<circle clip-path="url(#clip912)" style="fill:#2e8b57; stroke:none; fill-opacity:0" cx="920.553" cy="255.285" r="2"/>
<circle clip-path="url(#clip912)" style="fill:#2e8b57; stroke:none; fill-opacity:0" cx="968.338" cy="280.134" r="2"/>
<circle clip-path="url(#clip912)" style="fill:#2e8b57; stroke:none; fill-opacity:0" cx="1016.12" cy="528.622" r="2"/>
<circle clip-path="url(#clip912)" style="fill:#2e8b57; stroke:none; fill-opacity:0" cx="1063.91" cy="702.564" r="2"/>
<circle clip-path="url(#clip912)" style="fill:#2e8b57; stroke:none; fill-opacity:0" cx="1111.69" cy="503.773" r="2"/>
<circle clip-path="url(#clip912)" style="fill:#2e8b57; stroke:none; fill-opacity:0" cx="1159.48" cy="901.355" r="2"/>
<circle clip-path="url(#clip912)" style="fill:#2e8b57; stroke:none; fill-opacity:0" cx="1207.26" cy="1025.6" r="2"/>
<circle clip-path="url(#clip912)" style="fill:#2e8b57; stroke:none; fill-opacity:0" cx="1255.05" cy="1149.84" r="2"/>
<circle clip-path="url(#clip912)" style="fill:#2e8b57; stroke:none; fill-opacity:0" cx="1302.83" cy="1124.99" r="2"/>
<circle clip-path="url(#clip912)" style="fill:#2e8b57; stroke:none; fill-opacity:0" cx="1350.62" cy="1274.09" r="2"/>
<circle clip-path="url(#clip912)" style="fill:#2e8b57; stroke:none; fill-opacity:0" cx="1398.4" cy="1274.09" r="2"/>
<circle clip-path="url(#clip912)" style="fill:#2e8b57; stroke:none; fill-opacity:0" cx="1446.18" cy="1174.69" r="2"/>
<circle clip-path="url(#clip912)" style="fill:#2e8b57; stroke:none; fill-opacity:0" cx="1493.97" cy="1224.39" r="2"/>
<circle clip-path="url(#clip912)" style="fill:#2e8b57; stroke:none; fill-opacity:0" cx="1541.75" cy="1423.18" r="2"/>
<circle clip-path="url(#clip912)" style="fill:#2e8b57; stroke:none; fill-opacity:0" cx="1589.54" cy="1398.33" r="2"/>
<circle clip-path="url(#clip912)" style="fill:#2e8b57; stroke:none; fill-opacity:0" cx="1637.32" cy="1373.48" r="2"/>
<circle clip-path="url(#clip912)" style="fill:#2e8b57; stroke:none; fill-opacity:0" cx="1685.11" cy="1398.33" r="2"/>
<circle clip-path="url(#clip912)" style="fill:#2e8b57; stroke:none; fill-opacity:0" cx="1732.89" cy="1423.18" r="2"/>
<circle clip-path="url(#clip912)" style="fill:#2e8b57; stroke:none; fill-opacity:0" cx="1780.68" cy="1423.18" r="2"/>
<circle clip-path="url(#clip912)" style="fill:#2e8b57; stroke:none; fill-opacity:0" cx="1828.46" cy="1423.18" r="2"/>
<circle clip-path="url(#clip912)" style="fill:#2e8b57; stroke:none; fill-opacity:0" cx="1876.25" cy="1423.18" r="2"/>
<circle clip-path="url(#clip912)" style="fill:#2e8b57; stroke:none; fill-opacity:0" cx="1924.03" cy="1423.18" r="2"/>
<circle clip-path="url(#clip912)" style="fill:#2e8b57; stroke:none; fill-opacity:0" cx="1971.82" cy="1423.18" r="2"/>
<circle clip-path="url(#clip912)" style="fill:#2e8b57; stroke:none; fill-opacity:0" cx="2019.6" cy="1423.18" r="2"/>
<circle clip-path="url(#clip912)" style="fill:#2e8b57; stroke:none; fill-opacity:0" cx="2067.39" cy="1423.18" r="2"/>
<circle clip-path="url(#clip912)" style="fill:#2e8b57; stroke:none; fill-opacity:0" cx="2115.17" cy="1423.18" r="2"/>
<circle clip-path="url(#clip912)" style="fill:#2e8b57; stroke:none; fill-opacity:0" cx="2162.96" cy="1423.18" r="2"/>
<circle clip-path="url(#clip912)" style="fill:#2e8b57; stroke:none; fill-opacity:0" cx="2210.74" cy="1398.33" r="2"/>
<polyline clip-path="url(#clip912)" style="stroke:#ff0000; stroke-linecap:round; stroke-linejoin:round; stroke-width:8; stroke-opacity:1; fill:none" points="1145.1,2740.17 1145.1,-1210.8 "/>
<polyline clip-path="url(#clip912)" style="stroke:#006400; stroke-linecap:round; stroke-linejoin:round; stroke-width:8; stroke-opacity:1; fill:none" stroke-dasharray="32, 20" points="935.21,2740.17 935.21,-1210.8 "/>
<path clip-path="url(#clip910)" d="M1632.33 357.452 L2281.17 357.452 L2281.17 150.092 L1632.33 150.092  Z" fill="#ffffff" fill-rule="evenodd" fill-opacity="1"/>
<polyline clip-path="url(#clip910)" style="stroke:#000000; stroke-linecap:round; stroke-linejoin:round; stroke-width:4; stroke-opacity:1; fill:none" points="1632.33,357.452 2281.17,357.452 2281.17,150.092 1632.33,150.092 1632.33,357.452 "/>
<path clip-path="url(#clip910)" d="M1656.2 222.668 L1799.37 222.668 L1799.37 181.196 L1656.2 181.196 L1656.2 222.668  Z" fill="#2e8b57" fill-rule="evenodd" fill-opacity="0.6"/>
<polyline clip-path="url(#clip910)" style="stroke:#000000; stroke-linecap:round; stroke-linejoin:round; stroke-width:4; stroke-opacity:1; fill:none" points="1656.2,222.668 1799.37,222.668 1799.37,181.196 1656.2,181.196 1656.2,222.668 "/>
<path clip-path="url(#clip910)" d="M1845.48 185.786 L1845.48 190.346 Q1842.82 189.073 1840.46 188.448 Q1838.09 187.823 1835.9 187.823 Q1832.08 187.823 1829.99 189.304 Q1827.93 190.786 1827.93 193.517 Q1827.93 195.809 1829.3 196.99 Q1830.69 198.147 1834.53 198.865 L1837.35 199.443 Q1842.59 200.439 1845.06 202.962 Q1847.56 205.462 1847.56 209.675 Q1847.56 214.698 1844.18 217.29 Q1840.83 219.883 1834.32 219.883 Q1831.87 219.883 1829.09 219.327 Q1826.34 218.772 1823.37 217.684 L1823.37 212.869 Q1826.22 214.466 1828.95 215.277 Q1831.68 216.087 1834.32 216.087 Q1838.33 216.087 1840.5 214.513 Q1842.68 212.939 1842.68 210.022 Q1842.68 207.476 1841.1 206.04 Q1839.55 204.605 1835.99 203.888 L1833.14 203.332 Q1827.91 202.291 1825.57 200.068 Q1823.23 197.846 1823.23 193.888 Q1823.23 189.304 1826.45 186.666 Q1829.69 184.027 1835.36 184.027 Q1837.79 184.027 1840.32 184.467 Q1842.84 184.906 1845.48 185.786 Z" fill="#000000" fill-rule="nonzero" fill-opacity="1" /><path clip-path="url(#clip910)" d="M1854.67 193.286 L1858.93 193.286 L1858.93 219.212 L1854.67 219.212 L1854.67 193.286 M1854.67 183.193 L1858.93 183.193 L1858.93 188.587 L1854.67 188.587 L1854.67 183.193 Z" fill="#000000" fill-rule="nonzero" fill-opacity="1" /><path clip-path="url(#clip910)" d="M1888.03 198.263 Q1889.62 195.392 1891.84 194.027 Q1894.07 192.661 1897.08 192.661 Q1901.13 192.661 1903.33 195.508 Q1905.52 198.332 1905.52 203.564 L1905.52 219.212 L1901.24 219.212 L1901.24 203.703 Q1901.24 199.976 1899.92 198.17 Q1898.6 196.365 1895.9 196.365 Q1892.59 196.365 1890.66 198.564 Q1888.74 200.763 1888.74 204.559 L1888.74 219.212 L1884.46 219.212 L1884.46 203.703 Q1884.46 199.953 1883.14 198.17 Q1881.82 196.365 1879.07 196.365 Q1875.8 196.365 1873.88 198.587 Q1871.96 200.786 1871.96 204.559 L1871.96 219.212 L1867.68 219.212 L1867.68 193.286 L1871.96 193.286 L1871.96 197.314 Q1873.42 194.929 1875.46 193.795 Q1877.49 192.661 1880.29 192.661 Q1883.12 192.661 1885.09 194.096 Q1887.08 195.531 1888.03 198.263 Z" fill="#000000" fill-rule="nonzero" fill-opacity="1" /><path clip-path="url(#clip910)" d="M1913.58 208.98 L1913.58 193.286 L1917.84 193.286 L1917.84 208.818 Q1917.84 212.499 1919.27 214.351 Q1920.71 216.179 1923.58 216.179 Q1927.03 216.179 1929.02 213.98 Q1931.03 211.781 1931.03 207.985 L1931.03 193.286 L1935.29 193.286 L1935.29 219.212 L1931.03 219.212 L1931.03 215.23 Q1929.48 217.591 1927.42 218.749 Q1925.39 219.883 1922.68 219.883 Q1918.21 219.883 1915.9 217.105 Q1913.58 214.327 1913.58 208.98 M1924.3 192.661 L1924.3 192.661 Z" fill="#000000" fill-rule="nonzero" fill-opacity="1" /><path clip-path="url(#clip910)" d="M1944.07 183.193 L1948.33 183.193 L1948.33 219.212 L1944.07 219.212 L1944.07 183.193 Z" fill="#000000" fill-rule="nonzero" fill-opacity="1" /><path clip-path="url(#clip910)" d="M1969.02 206.179 Q1963.86 206.179 1961.87 207.36 Q1959.88 208.54 1959.88 211.388 Q1959.88 213.656 1961.36 214.999 Q1962.86 216.318 1965.43 216.318 Q1968.97 216.318 1971.1 213.818 Q1973.26 211.295 1973.26 207.128 L1973.26 206.179 L1969.02 206.179 M1977.52 204.42 L1977.52 219.212 L1973.26 219.212 L1973.26 215.277 Q1971.8 217.638 1969.62 218.772 Q1967.45 219.883 1964.3 219.883 Q1960.32 219.883 1957.96 217.661 Q1955.62 215.415 1955.62 211.665 Q1955.62 207.29 1958.53 205.068 Q1961.47 202.846 1967.28 202.846 L1973.26 202.846 L1973.26 202.429 Q1973.26 199.49 1971.31 197.892 Q1969.39 196.272 1965.89 196.272 Q1963.67 196.272 1961.57 196.804 Q1959.46 197.337 1957.52 198.402 L1957.52 194.466 Q1959.85 193.564 1962.05 193.124 Q1964.25 192.661 1966.33 192.661 Q1971.96 192.661 1974.74 195.578 Q1977.52 198.494 1977.52 204.42 Z" fill="#000000" fill-rule="nonzero" fill-opacity="1" /><path clip-path="url(#clip910)" d="M1990.5 185.925 L1990.5 193.286 L1999.27 193.286 L1999.27 196.596 L1990.5 196.596 L1990.5 210.67 Q1990.5 213.841 1991.36 214.744 Q1992.24 215.647 1994.9 215.647 L1999.27 215.647 L1999.27 219.212 L1994.9 219.212 Q1989.97 219.212 1988.09 217.383 Q1986.22 215.531 1986.22 210.67 L1986.22 196.596 L1983.09 196.596 L1983.09 193.286 L1986.22 193.286 L1986.22 185.925 L1990.5 185.925 Z" fill="#000000" fill-rule="nonzero" fill-opacity="1" /><path clip-path="url(#clip910)" d="M2027.05 205.184 L2027.05 207.267 L2007.47 207.267 Q2007.75 211.665 2010.11 213.98 Q2012.49 216.272 2016.73 216.272 Q2019.18 216.272 2021.47 215.67 Q2023.79 215.068 2026.06 213.865 L2026.06 217.892 Q2023.77 218.864 2021.36 219.374 Q2018.95 219.883 2016.47 219.883 Q2010.27 219.883 2006.64 216.272 Q2003.02 212.661 2003.02 206.503 Q2003.02 200.138 2006.45 196.411 Q2009.9 192.661 2015.73 192.661 Q2020.96 192.661 2024 196.041 Q2027.05 199.397 2027.05 205.184 M2022.79 203.934 Q2022.75 200.439 2020.83 198.355 Q2018.93 196.272 2015.78 196.272 Q2012.21 196.272 2010.06 198.286 Q2007.93 200.3 2007.61 203.957 L2022.79 203.934 Z" fill="#000000" fill-rule="nonzero" fill-opacity="1" /><path clip-path="url(#clip910)" d="M2051.1 197.221 L2051.1 183.193 L2055.36 183.193 L2055.36 219.212 L2051.1 219.212 L2051.1 215.323 Q2049.76 217.638 2047.7 218.772 Q2045.66 219.883 2042.79 219.883 Q2038.09 219.883 2035.13 216.133 Q2032.19 212.383 2032.19 206.272 Q2032.19 200.161 2035.13 196.411 Q2038.09 192.661 2042.79 192.661 Q2045.66 192.661 2047.7 193.795 Q2049.76 194.906 2051.1 197.221 M2036.59 206.272 Q2036.59 210.971 2038.51 213.656 Q2040.45 216.318 2043.83 216.318 Q2047.21 216.318 2049.16 213.656 Q2051.1 210.971 2051.1 206.272 Q2051.1 201.573 2049.16 198.911 Q2047.21 196.226 2043.83 196.226 Q2040.45 196.226 2038.51 198.911 Q2036.59 201.573 2036.59 206.272 Z" fill="#000000" fill-rule="nonzero" fill-opacity="1" /><polyline clip-path="url(#clip910)" style="stroke:#ff0000; stroke-linecap:round; stroke-linejoin:round; stroke-width:8; stroke-opacity:1; fill:none" points="1656.2,253.772 1799.37,253.772 "/>
<path clip-path="url(#clip910)" d="M1839.25 239.663 Q1834.16 239.663 1831.15 243.459 Q1828.16 247.256 1828.16 253.806 Q1828.16 260.334 1831.15 264.13 Q1834.16 267.927 1839.25 267.927 Q1844.34 267.927 1847.31 264.13 Q1850.29 260.334 1850.29 253.806 Q1850.29 247.256 1847.31 243.459 Q1844.34 239.663 1839.25 239.663 M1839.25 235.867 Q1846.52 235.867 1850.87 240.751 Q1855.22 245.612 1855.22 253.806 Q1855.22 261.978 1850.87 266.862 Q1846.52 271.723 1839.25 271.723 Q1831.96 271.723 1827.59 266.862 Q1823.23 262.001 1823.23 253.806 Q1823.23 245.612 1827.59 240.751 Q1831.96 235.867 1839.25 235.867 Z" fill="#000000" fill-rule="nonzero" fill-opacity="1" /><path clip-path="url(#clip910)" d="M1880.96 258.112 Q1880.96 253.413 1879.02 250.751 Q1877.1 248.066 1873.72 248.066 Q1870.34 248.066 1868.4 250.751 Q1866.47 253.413 1866.47 258.112 Q1866.47 262.811 1868.4 265.496 Q1870.34 268.158 1873.72 268.158 Q1877.1 268.158 1879.02 265.496 Q1880.96 262.811 1880.96 258.112 M1866.47 249.061 Q1867.82 246.746 1869.85 245.635 Q1871.91 244.501 1874.76 244.501 Q1879.48 244.501 1882.42 248.251 Q1885.39 252.001 1885.39 258.112 Q1885.39 264.223 1882.42 267.973 Q1879.48 271.723 1874.76 271.723 Q1871.91 271.723 1869.85 270.612 Q1867.82 269.478 1866.47 267.163 L1866.47 271.052 L1862.19 271.052 L1862.19 235.033 L1866.47 235.033 L1866.47 249.061 Z" fill="#000000" fill-rule="nonzero" fill-opacity="1" /><path clip-path="url(#clip910)" d="M1908.97 245.89 L1908.97 249.918 Q1907.17 248.992 1905.22 248.529 Q1903.28 248.066 1901.2 248.066 Q1898.02 248.066 1896.43 249.038 Q1894.85 250.01 1894.85 251.955 Q1894.85 253.436 1895.99 254.293 Q1897.12 255.126 1900.55 255.89 L1902.01 256.214 Q1906.54 257.186 1908.44 258.968 Q1910.36 260.728 1910.36 263.899 Q1910.36 267.51 1907.49 269.617 Q1904.65 271.723 1899.65 271.723 Q1897.56 271.723 1895.29 271.306 Q1893.05 270.913 1890.55 270.103 L1890.55 265.705 Q1892.91 266.931 1895.2 267.556 Q1897.49 268.158 1899.74 268.158 Q1902.75 268.158 1904.37 267.14 Q1905.99 266.098 1905.99 264.223 Q1905.99 262.487 1904.81 261.561 Q1903.65 260.635 1899.69 259.779 L1898.21 259.431 Q1894.25 258.598 1892.49 256.885 Q1890.73 255.149 1890.73 252.14 Q1890.73 248.482 1893.33 246.492 Q1895.92 244.501 1900.69 244.501 Q1903.05 244.501 1905.13 244.848 Q1907.21 245.195 1908.97 245.89 Z" fill="#000000" fill-rule="nonzero" fill-opacity="1" /><path clip-path="url(#clip910)" d="M1939.32 257.024 L1939.32 259.107 L1919.74 259.107 Q1920.02 263.505 1922.38 265.82 Q1924.76 268.112 1929 268.112 Q1931.45 268.112 1933.74 267.51 Q1936.06 266.908 1938.33 265.705 L1938.33 269.732 Q1936.03 270.704 1933.63 271.214 Q1931.22 271.723 1928.74 271.723 Q1922.54 271.723 1918.9 268.112 Q1915.29 264.501 1915.29 258.343 Q1915.29 251.978 1918.72 248.251 Q1922.17 244.501 1928 244.501 Q1933.23 244.501 1936.27 247.881 Q1939.32 251.237 1939.32 257.024 M1935.06 255.774 Q1935.02 252.279 1933.09 250.195 Q1931.2 248.112 1928.05 248.112 Q1924.48 248.112 1922.33 250.126 Q1920.2 252.14 1919.88 255.797 L1935.06 255.774 Z" fill="#000000" fill-rule="nonzero" fill-opacity="1" /><path clip-path="url(#clip910)" d="M1961.33 249.107 Q1960.62 248.691 1959.76 248.506 Q1958.93 248.297 1957.91 248.297 Q1954.3 248.297 1952.35 250.658 Q1950.43 252.996 1950.43 257.394 L1950.43 271.052 L1946.15 271.052 L1946.15 245.126 L1950.43 245.126 L1950.43 249.154 Q1951.77 246.793 1953.93 245.658 Q1956.08 244.501 1959.16 244.501 Q1959.6 244.501 1960.13 244.57 Q1960.66 244.617 1961.31 244.732 L1961.33 249.107 Z" fill="#000000" fill-rule="nonzero" fill-opacity="1" /><path clip-path="url(#clip910)" d="M1962.75 245.126 L1967.26 245.126 L1975.36 266.885 L1983.46 245.126 L1987.98 245.126 L1978.26 271.052 L1972.47 271.052 L1962.75 245.126 Z" fill="#000000" fill-rule="nonzero" fill-opacity="1" /><path clip-path="url(#clip910)" d="M2016.03 257.024 L2016.03 259.107 L1996.45 259.107 Q1996.73 263.505 1999.09 265.82 Q2001.47 268.112 2005.71 268.112 Q2008.16 268.112 2010.45 267.51 Q2012.77 266.908 2015.04 265.705 L2015.04 269.732 Q2012.75 270.704 2010.34 271.214 Q2007.93 271.723 2005.45 271.723 Q1999.25 271.723 1995.62 268.112 Q1992.01 264.501 1992.01 258.343 Q1992.01 251.978 1995.43 248.251 Q1998.88 244.501 2004.71 244.501 Q2009.95 244.501 2012.98 247.881 Q2016.03 251.237 2016.03 257.024 M2011.77 255.774 Q2011.73 252.279 2009.81 250.195 Q2007.91 248.112 2004.76 248.112 Q2001.2 248.112 1999.04 250.126 Q1996.91 252.14 1996.59 255.797 L2011.77 255.774 Z" fill="#000000" fill-rule="nonzero" fill-opacity="1" /><path clip-path="url(#clip910)" d="M2040.08 249.061 L2040.08 235.033 L2044.34 235.033 L2044.34 271.052 L2040.08 271.052 L2040.08 267.163 Q2038.74 269.478 2036.68 270.612 Q2034.64 271.723 2031.77 271.723 Q2027.08 271.723 2024.11 267.973 Q2021.17 264.223 2021.17 258.112 Q2021.17 252.001 2024.11 248.251 Q2027.08 244.501 2031.77 244.501 Q2034.64 244.501 2036.68 245.635 Q2038.74 246.746 2040.08 249.061 M2025.57 258.112 Q2025.57 262.811 2027.49 265.496 Q2029.44 268.158 2032.82 268.158 Q2036.2 268.158 2038.14 265.496 Q2040.08 262.811 2040.08 258.112 Q2040.08 253.413 2038.14 250.751 Q2036.2 248.066 2032.82 248.066 Q2029.44 248.066 2027.49 250.751 Q2025.57 253.413 2025.57 258.112 Z" fill="#000000" fill-rule="nonzero" fill-opacity="1" /><path clip-path="url(#clip910)" d="M2072.4 237.765 L2072.4 245.126 L2081.17 245.126 L2081.17 248.436 L2072.4 248.436 L2072.4 262.51 Q2072.4 265.681 2073.26 266.584 Q2074.14 267.487 2076.8 267.487 L2081.17 267.487 L2081.17 271.052 L2076.8 271.052 Q2071.87 271.052 2069.99 269.223 Q2068.12 267.371 2068.12 262.51 L2068.12 248.436 L2064.99 248.436 L2064.99 245.126 L2068.12 245.126 L2068.12 237.765 L2072.4 237.765 Z" fill="#000000" fill-rule="nonzero" fill-opacity="1" /><path clip-path="url(#clip910)" d="M2108.95 257.024 L2108.95 259.107 L2089.37 259.107 Q2089.64 263.505 2092.01 265.82 Q2094.39 268.112 2098.63 268.112 Q2101.08 268.112 2103.37 267.51 Q2105.69 266.908 2107.95 265.705 L2107.95 269.732 Q2105.66 270.704 2103.26 271.214 Q2100.85 271.723 2098.37 271.723 Q2092.17 271.723 2088.53 268.112 Q2084.92 264.501 2084.92 258.343 Q2084.92 251.978 2088.35 248.251 Q2091.8 244.501 2097.63 244.501 Q2102.86 244.501 2105.89 247.881 Q2108.95 251.237 2108.95 257.024 M2104.69 255.774 Q2104.64 252.279 2102.72 250.195 Q2100.82 248.112 2097.68 248.112 Q2094.11 248.112 2091.96 250.126 Q2089.83 252.14 2089.51 255.797 L2104.69 255.774 Z" fill="#000000" fill-rule="nonzero" fill-opacity="1" /><path clip-path="url(#clip910)" d="M2130.96 249.107 Q2130.25 248.691 2129.39 248.506 Q2128.56 248.297 2127.54 248.297 Q2123.93 248.297 2121.98 250.658 Q2120.06 252.996 2120.06 257.394 L2120.06 271.052 L2115.78 271.052 L2115.78 245.126 L2120.06 245.126 L2120.06 249.154 Q2121.4 246.793 2123.56 245.658 Q2125.71 244.501 2128.79 244.501 Q2129.23 244.501 2129.76 244.57 Q2130.29 244.617 2130.94 244.732 L2130.96 249.107 Z" fill="#000000" fill-rule="nonzero" fill-opacity="1" /><path clip-path="url(#clip910)" d="M2154.78 250.103 Q2156.38 247.232 2158.6 245.867 Q2160.82 244.501 2163.83 244.501 Q2167.88 244.501 2170.08 247.348 Q2172.28 250.172 2172.28 255.404 L2172.28 271.052 L2168 271.052 L2168 255.543 Q2168 251.816 2166.68 250.01 Q2165.36 248.205 2162.65 248.205 Q2159.34 248.205 2157.42 250.404 Q2155.5 252.603 2155.5 256.399 L2155.5 271.052 L2151.22 271.052 L2151.22 255.543 Q2151.22 251.793 2149.9 250.01 Q2148.58 248.205 2145.82 248.205 Q2142.56 248.205 2140.64 250.427 Q2138.72 252.626 2138.72 256.399 L2138.72 271.052 L2134.44 271.052 L2134.44 245.126 L2138.72 245.126 L2138.72 249.154 Q2140.18 246.769 2142.21 245.635 Q2144.25 244.501 2147.05 244.501 Q2149.88 244.501 2151.84 245.936 Q2153.83 247.371 2154.78 250.103 Z" fill="#000000" fill-rule="nonzero" fill-opacity="1" /><path clip-path="url(#clip910)" d="M2180.78 245.126 L2185.04 245.126 L2185.04 271.052 L2180.78 271.052 L2180.78 245.126 M2180.78 235.033 L2185.04 235.033 L2185.04 240.427 L2180.78 240.427 L2180.78 235.033 Z" fill="#000000" fill-rule="nonzero" fill-opacity="1" /><path clip-path="url(#clip910)" d="M2215.5 255.404 L2215.5 271.052 L2211.24 271.052 L2211.24 255.543 Q2211.24 251.862 2209.81 250.033 Q2208.37 248.205 2205.5 248.205 Q2202.05 248.205 2200.06 250.404 Q2198.07 252.603 2198.07 256.399 L2198.07 271.052 L2193.79 271.052 L2193.79 245.126 L2198.07 245.126 L2198.07 249.154 Q2199.6 246.816 2201.66 245.658 Q2203.74 244.501 2206.45 244.501 Q2210.92 244.501 2213.21 247.279 Q2215.5 250.033 2215.5 255.404 Z" fill="#000000" fill-rule="nonzero" fill-opacity="1" /><path clip-path="url(#clip910)" d="M2235.78 258.019 Q2230.62 258.019 2228.63 259.2 Q2226.63 260.38 2226.63 263.228 Q2226.63 265.496 2228.12 266.839 Q2229.62 268.158 2232.19 268.158 Q2235.73 268.158 2237.86 265.658 Q2240.01 263.135 2240.01 258.968 L2240.01 258.019 L2235.78 258.019 M2244.27 256.26 L2244.27 271.052 L2240.01 271.052 L2240.01 267.117 Q2238.56 269.478 2236.38 270.612 Q2234.2 271.723 2231.06 271.723 Q2227.07 271.723 2224.71 269.501 Q2222.38 267.255 2222.38 263.505 Q2222.38 259.13 2225.29 256.908 Q2228.23 254.686 2234.04 254.686 L2240.01 254.686 L2240.01 254.269 Q2240.01 251.33 2238.07 249.732 Q2236.15 248.112 2232.65 248.112 Q2230.43 248.112 2228.32 248.644 Q2226.22 249.177 2224.27 250.242 L2224.27 246.306 Q2226.61 245.404 2228.81 244.964 Q2231.01 244.501 2233.09 244.501 Q2238.72 244.501 2241.5 247.418 Q2244.27 250.334 2244.27 256.26 Z" fill="#000000" fill-rule="nonzero" fill-opacity="1" /><path clip-path="url(#clip910)" d="M2253.05 235.033 L2257.31 235.033 L2257.31 271.052 L2253.05 271.052 L2253.05 235.033 Z" fill="#000000" fill-rule="nonzero" fill-opacity="1" /><polyline clip-path="url(#clip910)" style="stroke:#006400; stroke-linecap:round; stroke-linejoin:round; stroke-width:8; stroke-opacity:1; fill:none" stroke-dasharray="32, 20" points="1656.2,305.612 1799.37,305.612 "/>
<path clip-path="url(#clip910)" d="M1845.48 289.466 L1845.48 294.026 Q1842.82 292.753 1840.46 292.128 Q1838.09 291.503 1835.9 291.503 Q1832.08 291.503 1829.99 292.984 Q1827.93 294.466 1827.93 297.197 Q1827.93 299.489 1829.3 300.67 Q1830.69 301.827 1834.53 302.545 L1837.35 303.123 Q1842.59 304.119 1845.06 306.642 Q1847.56 309.142 1847.56 313.355 Q1847.56 318.378 1844.18 320.97 Q1840.83 323.563 1834.32 323.563 Q1831.87 323.563 1829.09 323.007 Q1826.34 322.452 1823.37 321.364 L1823.37 316.549 Q1826.22 318.146 1828.95 318.957 Q1831.68 319.767 1834.32 319.767 Q1838.33 319.767 1840.5 318.193 Q1842.68 316.619 1842.68 313.702 Q1842.68 311.156 1841.1 309.72 Q1839.55 308.285 1835.99 307.568 L1833.14 307.012 Q1827.91 305.971 1825.57 303.748 Q1823.23 301.526 1823.23 297.568 Q1823.23 292.984 1826.45 290.346 Q1829.69 287.707 1835.36 287.707 Q1837.79 287.707 1840.32 288.147 Q1842.84 288.586 1845.48 289.466 Z" fill="#000000" fill-rule="nonzero" fill-opacity="1" /><path clip-path="url(#clip910)" d="M1854.67 296.966 L1858.93 296.966 L1858.93 322.892 L1854.67 322.892 L1854.67 296.966 M1854.67 286.873 L1858.93 286.873 L1858.93 292.267 L1854.67 292.267 L1854.67 286.873 Z" fill="#000000" fill-rule="nonzero" fill-opacity="1" /><path clip-path="url(#clip910)" d="M1888.03 301.943 Q1889.62 299.072 1891.84 297.707 Q1894.07 296.341 1897.08 296.341 Q1901.13 296.341 1903.33 299.188 Q1905.52 302.012 1905.52 307.244 L1905.52 322.892 L1901.24 322.892 L1901.24 307.383 Q1901.24 303.656 1899.92 301.85 Q1898.6 300.045 1895.9 300.045 Q1892.59 300.045 1890.66 302.244 Q1888.74 304.443 1888.74 308.239 L1888.74 322.892 L1884.46 322.892 L1884.46 307.383 Q1884.46 303.633 1883.14 301.85 Q1881.82 300.045 1879.07 300.045 Q1875.8 300.045 1873.88 302.267 Q1871.96 304.466 1871.96 308.239 L1871.96 322.892 L1867.68 322.892 L1867.68 296.966 L1871.96 296.966 L1871.96 300.994 Q1873.42 298.609 1875.46 297.475 Q1877.49 296.341 1880.29 296.341 Q1883.12 296.341 1885.09 297.776 Q1887.08 299.211 1888.03 301.943 Z" fill="#000000" fill-rule="nonzero" fill-opacity="1" /><path clip-path="url(#clip910)" d="M1913.58 312.66 L1913.58 296.966 L1917.84 296.966 L1917.84 312.498 Q1917.84 316.179 1919.27 318.031 Q1920.71 319.859 1923.58 319.859 Q1927.03 319.859 1929.02 317.66 Q1931.03 315.461 1931.03 311.665 L1931.03 296.966 L1935.29 296.966 L1935.29 322.892 L1931.03 322.892 L1931.03 318.91 Q1929.48 321.271 1927.42 322.429 Q1925.39 323.563 1922.68 323.563 Q1918.21 323.563 1915.9 320.785 Q1913.58 318.007 1913.58 312.66 M1924.3 296.341 L1924.3 296.341 Z" fill="#000000" fill-rule="nonzero" fill-opacity="1" /><path clip-path="url(#clip910)" d="M1944.07 286.873 L1948.33 286.873 L1948.33 322.892 L1944.07 322.892 L1944.07 286.873 Z" fill="#000000" fill-rule="nonzero" fill-opacity="1" /><path clip-path="url(#clip910)" d="M1969.02 309.859 Q1963.86 309.859 1961.87 311.04 Q1959.88 312.22 1959.88 315.068 Q1959.88 317.336 1961.36 318.679 Q1962.86 319.998 1965.43 319.998 Q1968.97 319.998 1971.1 317.498 Q1973.26 314.975 1973.26 310.808 L1973.26 309.859 L1969.02 309.859 M1977.52 308.1 L1977.52 322.892 L1973.26 322.892 L1973.26 318.957 Q1971.8 321.318 1969.62 322.452 Q1967.45 323.563 1964.3 323.563 Q1960.32 323.563 1957.96 321.341 Q1955.62 319.095 1955.62 315.345 Q1955.62 310.97 1958.53 308.748 Q1961.47 306.526 1967.28 306.526 L1973.26 306.526 L1973.26 306.109 Q1973.26 303.17 1971.31 301.572 Q1969.39 299.952 1965.89 299.952 Q1963.67 299.952 1961.57 300.484 Q1959.46 301.017 1957.52 302.082 L1957.52 298.146 Q1959.85 297.244 1962.05 296.804 Q1964.25 296.341 1966.33 296.341 Q1971.96 296.341 1974.74 299.258 Q1977.52 302.174 1977.52 308.1 Z" fill="#000000" fill-rule="nonzero" fill-opacity="1" /><path clip-path="url(#clip910)" d="M1990.5 289.605 L1990.5 296.966 L1999.27 296.966 L1999.27 300.276 L1990.5 300.276 L1990.5 314.35 Q1990.5 317.521 1991.36 318.424 Q1992.24 319.327 1994.9 319.327 L1999.27 319.327 L1999.27 322.892 L1994.9 322.892 Q1989.97 322.892 1988.09 321.063 Q1986.22 319.211 1986.22 314.35 L1986.22 300.276 L1983.09 300.276 L1983.09 296.966 L1986.22 296.966 L1986.22 289.605 L1990.5 289.605 Z" fill="#000000" fill-rule="nonzero" fill-opacity="1" /><path clip-path="url(#clip910)" d="M2027.05 308.864 L2027.05 310.947 L2007.47 310.947 Q2007.75 315.345 2010.11 317.66 Q2012.49 319.952 2016.73 319.952 Q2019.18 319.952 2021.47 319.35 Q2023.79 318.748 2026.06 317.545 L2026.06 321.572 Q2023.77 322.544 2021.36 323.054 Q2018.95 323.563 2016.47 323.563 Q2010.27 323.563 2006.64 319.952 Q2003.02 316.341 2003.02 310.183 Q2003.02 303.818 2006.45 300.091 Q2009.9 296.341 2015.73 296.341 Q2020.96 296.341 2024 299.721 Q2027.05 303.077 2027.05 308.864 M2022.79 307.614 Q2022.75 304.119 2020.83 302.035 Q2018.93 299.952 2015.78 299.952 Q2012.21 299.952 2010.06 301.966 Q2007.93 303.98 2007.61 307.637 L2022.79 307.614 Z" fill="#000000" fill-rule="nonzero" fill-opacity="1" /><path clip-path="url(#clip910)" d="M2051.1 300.901 L2051.1 286.873 L2055.36 286.873 L2055.36 322.892 L2051.1 322.892 L2051.1 319.003 Q2049.76 321.318 2047.7 322.452 Q2045.66 323.563 2042.79 323.563 Q2038.09 323.563 2035.13 319.813 Q2032.19 316.063 2032.19 309.952 Q2032.19 303.841 2035.13 300.091 Q2038.09 296.341 2042.79 296.341 Q2045.66 296.341 2047.7 297.475 Q2049.76 298.586 2051.1 300.901 M2036.59 309.952 Q2036.59 314.651 2038.51 317.336 Q2040.45 319.998 2043.83 319.998 Q2047.21 319.998 2049.16 317.336 Q2051.1 314.651 2051.1 309.952 Q2051.1 305.253 2049.16 302.591 Q2047.21 299.906 2043.83 299.906 Q2040.45 299.906 2038.51 302.591 Q2036.59 305.253 2036.59 309.952 Z" fill="#000000" fill-rule="nonzero" fill-opacity="1" /><path clip-path="url(#clip910)" d="M2099.39 301.943 Q2100.99 299.072 2103.21 297.707 Q2105.43 296.341 2108.44 296.341 Q2112.49 296.341 2114.69 299.188 Q2116.89 302.012 2116.89 307.244 L2116.89 322.892 L2112.61 322.892 L2112.61 307.383 Q2112.61 303.656 2111.29 301.85 Q2109.97 300.045 2107.26 300.045 Q2103.95 300.045 2102.03 302.244 Q2100.11 304.443 2100.11 308.239 L2100.11 322.892 L2095.82 322.892 L2095.82 307.383 Q2095.82 303.633 2094.51 301.85 Q2093.19 300.045 2090.43 300.045 Q2087.17 300.045 2085.25 302.267 Q2083.32 304.466 2083.32 308.239 L2083.32 322.892 L2079.04 322.892 L2079.04 296.966 L2083.32 296.966 L2083.32 300.994 Q2084.78 298.609 2086.82 297.475 Q2088.86 296.341 2091.66 296.341 Q2094.48 296.341 2096.45 297.776 Q2098.44 299.211 2099.39 301.943 Z" fill="#000000" fill-rule="nonzero" fill-opacity="1" /><path clip-path="url(#clip910)" d="M2147.56 308.864 L2147.56 310.947 L2127.98 310.947 Q2128.26 315.345 2130.62 317.66 Q2133 319.952 2137.24 319.952 Q2139.69 319.952 2141.98 319.35 Q2144.3 318.748 2146.57 317.545 L2146.57 321.572 Q2144.27 322.544 2141.87 323.054 Q2139.46 323.563 2136.98 323.563 Q2130.78 323.563 2127.14 319.952 Q2123.53 316.341 2123.53 310.183 Q2123.53 303.818 2126.96 300.091 Q2130.41 296.341 2136.24 296.341 Q2141.47 296.341 2144.51 299.721 Q2147.56 303.077 2147.56 308.864 M2143.3 307.614 Q2143.26 304.119 2141.33 302.035 Q2139.44 299.952 2136.29 299.952 Q2132.72 299.952 2130.57 301.966 Q2128.44 303.98 2128.12 307.637 L2143.3 307.614 Z" fill="#000000" fill-rule="nonzero" fill-opacity="1" /><path clip-path="url(#clip910)" d="M2171.61 300.901 L2171.61 286.873 L2175.87 286.873 L2175.87 322.892 L2171.61 322.892 L2171.61 319.003 Q2170.27 321.318 2168.21 322.452 Q2166.17 323.563 2163.3 323.563 Q2158.6 323.563 2155.64 319.813 Q2152.7 316.063 2152.7 309.952 Q2152.7 303.841 2155.64 300.091 Q2158.6 296.341 2163.3 296.341 Q2166.17 296.341 2168.21 297.475 Q2170.27 298.586 2171.61 300.901 M2157.1 309.952 Q2157.1 314.651 2159.02 317.336 Q2160.96 319.998 2164.34 319.998 Q2167.72 319.998 2169.67 317.336 Q2171.61 314.651 2171.61 309.952 Q2171.61 305.253 2169.67 302.591 Q2167.72 299.906 2164.34 299.906 Q2160.96 299.906 2159.02 302.591 Q2157.1 305.253 2157.1 309.952 Z" fill="#000000" fill-rule="nonzero" fill-opacity="1" /><path clip-path="url(#clip910)" d="M2184.64 296.966 L2188.9 296.966 L2188.9 322.892 L2184.64 322.892 L2184.64 296.966 M2184.64 286.873 L2188.9 286.873 L2188.9 292.267 L2184.64 292.267 L2184.64 286.873 Z" fill="#000000" fill-rule="nonzero" fill-opacity="1" /><path clip-path="url(#clip910)" d="M2209.6 309.859 Q2204.44 309.859 2202.44 311.04 Q2200.45 312.22 2200.45 315.068 Q2200.45 317.336 2201.94 318.679 Q2203.44 319.998 2206.01 319.998 Q2209.55 319.998 2211.68 317.498 Q2213.83 314.975 2213.83 310.808 L2213.83 309.859 L2209.6 309.859 M2218.09 308.1 L2218.09 322.892 L2213.83 322.892 L2213.83 318.957 Q2212.38 321.318 2210.2 322.452 Q2208.02 323.563 2204.88 323.563 Q2200.89 323.563 2198.53 321.341 Q2196.19 319.095 2196.19 315.345 Q2196.19 310.97 2199.11 308.748 Q2202.05 306.526 2207.86 306.526 L2213.83 306.526 L2213.83 306.109 Q2213.83 303.17 2211.89 301.572 Q2209.97 299.952 2206.47 299.952 Q2204.25 299.952 2202.14 300.484 Q2200.04 301.017 2198.09 302.082 L2198.09 298.146 Q2200.43 297.244 2202.63 296.804 Q2204.83 296.341 2206.91 296.341 Q2212.54 296.341 2215.31 299.258 Q2218.09 302.174 2218.09 308.1 Z" fill="#000000" fill-rule="nonzero" fill-opacity="1" /><path clip-path="url(#clip910)" d="M2248.42 307.244 L2248.42 322.892 L2244.16 322.892 L2244.16 307.383 Q2244.16 303.702 2242.72 301.873 Q2241.29 300.045 2238.42 300.045 Q2234.97 300.045 2232.98 302.244 Q2230.99 304.443 2230.99 308.239 L2230.99 322.892 L2226.7 322.892 L2226.7 296.966 L2230.99 296.966 L2230.99 300.994 Q2232.51 298.656 2234.57 297.498 Q2236.66 296.341 2239.37 296.341 Q2243.83 296.341 2246.12 299.119 Q2248.42 301.873 2248.42 307.244 Z" fill="#000000" fill-rule="nonzero" fill-opacity="1" /></svg>
