<?xml version="1.0" encoding="utf-8"?>
<svg xmlns="http://www.w3.org/2000/svg" xmlns:xlink="http://www.w3.org/1999/xlink" width="600" height="400" viewBox="0 0 2400 1600">
<defs>
  <clipPath id="clip270">
    <rect x="0" y="0" width="2400" height="1600"/>
  </clipPath>
</defs>
<path clip-path="url(#clip270)" d="M0 1600 L2400 1600 L2400 8.88178e-14 L0 8.88178e-14  Z" fill="#ffffff" fill-rule="evenodd" fill-opacity="1"/>
<defs>
  <clipPath id="clip271">
    <rect x="234" y="106" width="2120" height="1318"/>
  </clipPath>
</defs>
<path clip-path="url(#clip270)" d="M205.121 1423.18 L2352.76 1423.18 L2352.76 106.192 L205.121 106.192  Z" fill="#ffffff" fill-rule="evenodd" fill-opacity="1"/>
<defs>
  <clipPath id="clip272">
    <rect x="205" y="106" width="2149" height="1318"/>
  </clipPath>
</defs>
<polyline clip-path="url(#clip272)" style="stroke:#000000; stroke-linecap:round; stroke-linejoin:round; stroke-width:2; stroke-opacity:0.1; fill:none" points="482.527,1423.18 482.527,106.192 "/>
<polyline clip-path="url(#clip272)" style="stroke:#000000; stroke-linecap:round; stroke-linejoin:round; stroke-width:2; stroke-opacity:0.1; fill:none" points="880.733,1423.18 880.733,106.192 "/>
<polyline clip-path="url(#clip272)" style="stroke:#000000; stroke-linecap:round; stroke-linejoin:round; stroke-width:2; stroke-opacity:0.1; fill:none" points="1278.94,1423.18 1278.94,106.192 "/>
<polyline clip-path="url(#clip272)" style="stroke:#000000; stroke-linecap:round; stroke-linejoin:round; stroke-width:2; stroke-opacity:0.1; fill:none" points="1677.14,1423.18 1677.14,106.192 "/>
<polyline clip-path="url(#clip272)" style="stroke:#000000; stroke-linecap:round; stroke-linejoin:round; stroke-width:2; stroke-opacity:0.1; fill:none" points="2075.35,1423.18 2075.35,106.192 "/>
<polyline clip-path="url(#clip272)" style="stroke:#000000; stroke-linecap:round; stroke-linejoin:round; stroke-width:2; stroke-opacity:0.1; fill:none" points="205.121,1423.18 2352.76,1423.18 "/>
<polyline clip-path="url(#clip272)" style="stroke:#000000; stroke-linecap:round; stroke-linejoin:round; stroke-width:2; stroke-opacity:0.1; fill:none" points="205.121,1226.61 2352.76,1226.61 "/>
<polyline clip-path="url(#clip272)" style="stroke:#000000; stroke-linecap:round; stroke-linejoin:round; stroke-width:2; stroke-opacity:0.1; fill:none" points="205.121,1030.05 2352.76,1030.05 "/>
<polyline clip-path="url(#clip272)" style="stroke:#000000; stroke-linecap:round; stroke-linejoin:round; stroke-width:2; stroke-opacity:0.1; fill:none" points="205.121,833.484 2352.76,833.484 "/>
<polyline clip-path="url(#clip272)" style="stroke:#000000; stroke-linecap:round; stroke-linejoin:round; stroke-width:2; stroke-opacity:0.1; fill:none" points="205.121,636.919 2352.76,636.919 "/>
<polyline clip-path="url(#clip272)" style="stroke:#000000; stroke-linecap:round; stroke-linejoin:round; stroke-width:2; stroke-opacity:0.1; fill:none" points="205.121,440.353 2352.76,440.353 "/>
<polyline clip-path="url(#clip272)" style="stroke:#000000; stroke-linecap:round; stroke-linejoin:round; stroke-width:2; stroke-opacity:0.1; fill:none" points="205.121,243.788 2352.76,243.788 "/>
<polyline clip-path="url(#clip270)" style="stroke:#000000; stroke-linecap:round; stroke-linejoin:round; stroke-width:4; stroke-opacity:1; fill:none" points="205.121,1423.18 2352.76,1423.18 "/>
<polyline clip-path="url(#clip270)" style="stroke:#000000; stroke-linecap:round; stroke-linejoin:round; stroke-width:4; stroke-opacity:1; fill:none" points="482.527,1423.18 482.527,1404.28 "/>
<polyline clip-path="url(#clip270)" style="stroke:#000000; stroke-linecap:round; stroke-linejoin:round; stroke-width:4; stroke-opacity:1; fill:none" points="880.733,1423.18 880.733,1404.28 "/>
<polyline clip-path="url(#clip270)" style="stroke:#000000; stroke-linecap:round; stroke-linejoin:round; stroke-width:4; stroke-opacity:1; fill:none" points="1278.94,1423.18 1278.94,1404.28 "/>
<polyline clip-path="url(#clip270)" style="stroke:#000000; stroke-linecap:round; stroke-linejoin:round; stroke-width:4; stroke-opacity:1; fill:none" points="1677.14,1423.18 1677.14,1404.28 "/>
<polyline clip-path="url(#clip270)" style="stroke:#000000; stroke-linecap:round; stroke-linejoin:round; stroke-width:4; stroke-opacity:1; fill:none" points="2075.35,1423.18 2075.35,1404.28 "/>
<path clip-path="url(#clip270)" d="M442.134 1481.64 L449.773 1481.64 L449.773 1455.28 L441.462 1456.95 L441.462 1452.69 L449.726 1451.02 L454.402 1451.02 L454.402 1481.64 L462.041 1481.64 L462.041 1485.58 L442.134 1485.58 L442.134 1481.64 Z" fill="#000000" fill-rule="nonzero" fill-opacity="1" /><path clip-path="url(#clip270)" d="M481.485 1454.1 Q477.874 1454.1 476.046 1457.66 Q474.24 1461.2 474.24 1468.33 Q474.24 1475.44 476.046 1479.01 Q477.874 1482.55 481.485 1482.55 Q485.12 1482.55 486.925 1479.01 Q488.754 1475.44 488.754 1468.33 Q488.754 1461.2 486.925 1457.66 Q485.12 1454.1 481.485 1454.1 M481.485 1450.39 Q487.295 1450.39 490.351 1455 Q493.43 1459.58 493.43 1468.33 Q493.43 1477.06 490.351 1481.67 Q487.295 1486.25 481.485 1486.25 Q475.675 1486.25 472.597 1481.67 Q469.541 1477.06 469.541 1468.33 Q469.541 1459.58 472.597 1455 Q475.675 1450.39 481.485 1450.39 Z" fill="#000000" fill-rule="nonzero" fill-opacity="1" /><path clip-path="url(#clip270)" d="M511.647 1454.1 Q508.036 1454.1 506.207 1457.66 Q504.402 1461.2 504.402 1468.33 Q504.402 1475.44 506.207 1479.01 Q508.036 1482.55 511.647 1482.55 Q515.281 1482.55 517.087 1479.01 Q518.916 1475.44 518.916 1468.33 Q518.916 1461.2 517.087 1457.66 Q515.281 1454.1 511.647 1454.1 M511.647 1450.39 Q517.457 1450.39 520.513 1455 Q523.592 1459.58 523.592 1468.33 Q523.592 1477.06 520.513 1481.67 Q517.457 1486.25 511.647 1486.25 Q505.837 1486.25 502.758 1481.67 Q499.703 1477.06 499.703 1468.33 Q499.703 1459.58 502.758 1455 Q505.837 1450.39 511.647 1450.39 Z" fill="#000000" fill-rule="nonzero" fill-opacity="1" /><path clip-path="url(#clip270)" d="M844.425 1481.64 L860.744 1481.64 L860.744 1485.58 L838.8 1485.58 L838.8 1481.64 Q841.462 1478.89 846.045 1474.26 Q850.652 1469.61 851.832 1468.27 Q854.078 1465.74 854.957 1464.01 Q855.86 1462.25 855.86 1460.56 Q855.86 1457.8 853.916 1456.07 Q851.994 1454.33 848.893 1454.33 Q846.694 1454.33 844.24 1455.09 Q841.809 1455.86 839.032 1457.41 L839.032 1452.69 Q841.856 1451.55 844.309 1450.97 Q846.763 1450.39 848.8 1450.39 Q854.17 1450.39 857.365 1453.08 Q860.559 1455.77 860.559 1460.26 Q860.559 1462.39 859.749 1464.31 Q858.962 1466.2 856.856 1468.8 Q856.277 1469.47 853.175 1472.69 Q850.073 1475.88 844.425 1481.64 Z" fill="#000000" fill-rule="nonzero" fill-opacity="1" /><path clip-path="url(#clip270)" d="M880.559 1454.1 Q876.948 1454.1 875.119 1457.66 Q873.314 1461.2 873.314 1468.33 Q873.314 1475.44 875.119 1479.01 Q876.948 1482.55 880.559 1482.55 Q884.193 1482.55 885.999 1479.01 Q887.828 1475.44 887.828 1468.33 Q887.828 1461.2 885.999 1457.66 Q884.193 1454.1 880.559 1454.1 M880.559 1450.39 Q886.369 1450.39 889.425 1455 Q892.503 1459.58 892.503 1468.33 Q892.503 1477.06 889.425 1481.67 Q886.369 1486.25 880.559 1486.25 Q874.749 1486.25 871.67 1481.67 Q868.615 1477.06 868.615 1468.33 Q868.615 1459.58 871.67 1455 Q874.749 1450.39 880.559 1450.39 Z" fill="#000000" fill-rule="nonzero" fill-opacity="1" /><path clip-path="url(#clip270)" d="M910.721 1454.1 Q907.11 1454.1 905.281 1457.66 Q903.476 1461.2 903.476 1468.33 Q903.476 1475.44 905.281 1479.01 Q907.11 1482.55 910.721 1482.55 Q914.355 1482.55 916.161 1479.01 Q917.989 1475.44 917.989 1468.33 Q917.989 1461.2 916.161 1457.66 Q914.355 1454.1 910.721 1454.1 M910.721 1450.39 Q916.531 1450.39 919.587 1455 Q922.665 1459.58 922.665 1468.33 Q922.665 1477.06 919.587 1481.67 Q916.531 1486.25 910.721 1486.25 Q904.911 1486.25 901.832 1481.67 Q898.777 1477.06 898.777 1468.33 Q898.777 1459.58 901.832 1455 Q904.911 1450.39 910.721 1450.39 Z" fill="#000000" fill-rule="nonzero" fill-opacity="1" /><path clip-path="url(#clip270)" d="M1252.7 1466.95 Q1256.06 1467.66 1257.93 1469.93 Q1259.83 1472.2 1259.83 1475.53 Q1259.83 1480.65 1256.31 1483.45 Q1252.79 1486.25 1246.31 1486.25 Q1244.14 1486.25 1241.82 1485.81 Q1239.53 1485.39 1237.08 1484.54 L1237.08 1480.02 Q1239.02 1481.16 1241.33 1481.74 Q1243.65 1482.32 1246.17 1482.32 Q1250.57 1482.32 1252.86 1480.58 Q1255.18 1478.84 1255.18 1475.53 Q1255.18 1472.48 1253.02 1470.77 Q1250.89 1469.03 1247.08 1469.03 L1243.05 1469.03 L1243.05 1465.19 L1247.26 1465.19 Q1250.71 1465.19 1252.54 1463.82 Q1254.37 1462.43 1254.37 1459.84 Q1254.37 1457.18 1252.47 1455.77 Q1250.59 1454.33 1247.08 1454.33 Q1245.15 1454.33 1242.95 1454.75 Q1240.76 1455.16 1238.12 1456.04 L1238.12 1451.88 Q1240.78 1451.14 1243.09 1450.77 Q1245.43 1450.39 1247.49 1450.39 Q1252.82 1450.39 1255.92 1452.83 Q1259.02 1455.23 1259.02 1459.35 Q1259.02 1462.22 1257.38 1464.21 Q1255.73 1466.18 1252.7 1466.95 Z" fill="#000000" fill-rule="nonzero" fill-opacity="1" /><path clip-path="url(#clip270)" d="M1278.7 1454.1 Q1275.08 1454.1 1273.26 1457.66 Q1271.45 1461.2 1271.45 1468.33 Q1271.45 1475.44 1273.26 1479.01 Q1275.08 1482.55 1278.7 1482.55 Q1282.33 1482.55 1284.14 1479.01 Q1285.96 1475.44 1285.96 1468.33 Q1285.96 1461.2 1284.14 1457.66 Q1282.33 1454.1 1278.7 1454.1 M1278.7 1450.39 Q1284.51 1450.39 1287.56 1455 Q1290.64 1459.58 1290.64 1468.33 Q1290.64 1477.06 1287.56 1481.67 Q1284.51 1486.25 1278.7 1486.25 Q1272.89 1486.25 1269.81 1481.67 Q1266.75 1477.06 1266.75 1468.33 Q1266.75 1459.58 1269.81 1455 Q1272.89 1450.39 1278.7 1450.39 Z" fill="#000000" fill-rule="nonzero" fill-opacity="1" /><path clip-path="url(#clip270)" d="M1308.86 1454.1 Q1305.25 1454.1 1303.42 1457.66 Q1301.61 1461.2 1301.61 1468.33 Q1301.61 1475.44 1303.42 1479.01 Q1305.25 1482.55 1308.86 1482.55 Q1312.49 1482.55 1314.3 1479.01 Q1316.13 1475.44 1316.13 1468.33 Q1316.13 1461.2 1314.3 1457.66 Q1312.49 1454.1 1308.86 1454.1 M1308.86 1450.39 Q1314.67 1450.39 1317.72 1455 Q1320.8 1459.58 1320.8 1468.33 Q1320.8 1477.06 1317.72 1481.67 Q1314.67 1486.25 1308.86 1486.25 Q1303.05 1486.25 1299.97 1481.67 Q1296.91 1477.06 1296.91 1468.33 Q1296.91 1459.58 1299.97 1455 Q1303.05 1450.39 1308.86 1450.39 Z" fill="#000000" fill-rule="nonzero" fill-opacity="1" /><path clip-path="url(#clip270)" d="M1650.23 1455.09 L1638.43 1473.54 L1650.23 1473.54 L1650.23 1455.09 M1649.01 1451.02 L1654.89 1451.02 L1654.89 1473.54 L1659.82 1473.54 L1659.82 1477.43 L1654.89 1477.43 L1654.89 1485.58 L1650.23 1485.58 L1650.23 1477.43 L1634.63 1477.43 L1634.63 1472.92 L1649.01 1451.02 Z" fill="#000000" fill-rule="nonzero" fill-opacity="1" /><path clip-path="url(#clip270)" d="M1677.55 1454.1 Q1673.94 1454.1 1672.11 1457.66 Q1670.3 1461.2 1670.3 1468.33 Q1670.3 1475.44 1672.11 1479.01 Q1673.94 1482.55 1677.55 1482.55 Q1681.18 1482.55 1682.99 1479.01 Q1684.82 1475.44 1684.82 1468.33 Q1684.82 1461.2 1682.99 1457.66 Q1681.18 1454.1 1677.55 1454.1 M1677.55 1450.39 Q1683.36 1450.39 1686.41 1455 Q1689.49 1459.58 1689.49 1468.33 Q1689.49 1477.06 1686.41 1481.67 Q1683.36 1486.25 1677.55 1486.25 Q1671.74 1486.25 1668.66 1481.67 Q1665.6 1477.06 1665.6 1468.33 Q1665.6 1459.58 1668.66 1455 Q1671.74 1450.39 1677.55 1450.39 Z" fill="#000000" fill-rule="nonzero" fill-opacity="1" /><path clip-path="url(#clip270)" d="M1707.71 1454.1 Q1704.1 1454.1 1702.27 1457.66 Q1700.47 1461.2 1700.47 1468.33 Q1700.47 1475.44 1702.27 1479.01 Q1704.1 1482.55 1707.71 1482.55 Q1711.35 1482.55 1713.15 1479.01 Q1714.98 1475.44 1714.98 1468.33 Q1714.98 1461.2 1713.15 1457.66 Q1711.35 1454.1 1707.71 1454.1 M1707.71 1450.39 Q1713.52 1450.39 1716.58 1455 Q1719.66 1459.58 1719.66 1468.33 Q1719.66 1477.06 1716.58 1481.67 Q1713.52 1486.25 1707.71 1486.25 Q1701.9 1486.25 1698.82 1481.67 Q1695.77 1477.06 1695.77 1468.33 Q1695.77 1459.58 1698.82 1455 Q1701.9 1450.39 1707.71 1450.39 Z" fill="#000000" fill-rule="nonzero" fill-opacity="1" /><path clip-path="url(#clip270)" d="M2034.97 1451.02 L2053.32 1451.02 L2053.32 1454.96 L2039.25 1454.96 L2039.25 1463.43 Q2040.27 1463.08 2041.29 1462.92 Q2042.31 1462.73 2043.32 1462.73 Q2049.11 1462.73 2052.49 1465.9 Q2055.87 1469.08 2055.87 1474.49 Q2055.87 1480.07 2052.4 1483.17 Q2048.93 1486.25 2042.61 1486.25 Q2040.43 1486.25 2038.16 1485.88 Q2035.92 1485.51 2033.51 1484.77 L2033.51 1480.07 Q2035.59 1481.2 2037.82 1481.76 Q2040.04 1482.32 2042.51 1482.32 Q2046.52 1482.32 2048.86 1480.21 Q2051.19 1478.1 2051.19 1474.49 Q2051.19 1470.88 2048.86 1468.77 Q2046.52 1466.67 2042.51 1466.67 Q2040.64 1466.67 2038.76 1467.08 Q2036.91 1467.5 2034.97 1468.38 L2034.97 1451.02 Z" fill="#000000" fill-rule="nonzero" fill-opacity="1" /><path clip-path="url(#clip270)" d="M2075.08 1454.1 Q2071.47 1454.1 2069.64 1457.66 Q2067.84 1461.2 2067.84 1468.33 Q2067.84 1475.44 2069.64 1479.01 Q2071.47 1482.55 2075.08 1482.55 Q2078.72 1482.55 2080.52 1479.01 Q2082.35 1475.44 2082.35 1468.33 Q2082.35 1461.2 2080.52 1457.66 Q2078.72 1454.1 2075.08 1454.1 M2075.08 1450.39 Q2080.89 1450.39 2083.95 1455 Q2087.03 1459.58 2087.03 1468.33 Q2087.03 1477.06 2083.95 1481.67 Q2080.89 1486.25 2075.08 1486.25 Q2069.27 1486.25 2066.19 1481.67 Q2063.14 1477.06 2063.14 1468.33 Q2063.14 1459.58 2066.19 1455 Q2069.27 1450.39 2075.08 1450.39 Z" fill="#000000" fill-rule="nonzero" fill-opacity="1" /><path clip-path="url(#clip270)" d="M2105.25 1454.1 Q2101.63 1454.1 2099.81 1457.66 Q2098 1461.2 2098 1468.33 Q2098 1475.44 2099.81 1479.01 Q2101.63 1482.55 2105.25 1482.55 Q2108.88 1482.55 2110.69 1479.01 Q2112.51 1475.44 2112.51 1468.33 Q2112.51 1461.2 2110.69 1457.66 Q2108.88 1454.1 2105.25 1454.1 M2105.25 1450.39 Q2111.06 1450.39 2114.11 1455 Q2117.19 1459.58 2117.19 1468.33 Q2117.19 1477.06 2114.11 1481.67 Q2111.06 1486.25 2105.25 1486.25 Q2099.44 1486.25 2096.36 1481.67 Q2093.3 1477.06 2093.3 1468.33 Q2093.3 1459.58 2096.36 1455 Q2099.44 1450.39 2105.25 1450.39 Z" fill="#000000" fill-rule="nonzero" fill-opacity="1" /><path clip-path="url(#clip270)" d="M1051.36 1520.52 L1091.56 1520.52 L1091.56 1525.93 L1074.69 1525.93 L1074.69 1568.04 L1068.23 1568.04 L1068.23 1525.93 L1051.36 1525.93 L1051.36 1520.52 Z" fill="#000000" fill-rule="nonzero" fill-opacity="1" /><path clip-path="url(#clip270)" d="M1116.93 1548.76 L1116.93 1551.62 L1090 1551.62 Q1090.39 1557.67 1093.63 1560.85 Q1096.91 1564 1102.74 1564 Q1106.11 1564 1109.26 1563.17 Q1112.44 1562.35 1115.56 1560.69 L1115.56 1566.23 Q1112.41 1567.57 1109.1 1568.27 Q1105.79 1568.97 1102.39 1568.97 Q1093.86 1568.97 1088.86 1564 Q1083.89 1559.04 1083.89 1550.57 Q1083.89 1541.82 1088.6 1536.69 Q1093.35 1531.54 1101.37 1531.54 Q1108.56 1531.54 1112.73 1536.18 Q1116.93 1540.8 1116.93 1548.76 M1111.07 1547.04 Q1111.01 1542.23 1108.37 1539.37 Q1105.76 1536.5 1101.43 1536.5 Q1096.53 1536.5 1093.57 1539.27 Q1090.64 1542.04 1090.2 1547.07 L1111.07 1547.04 Z" fill="#000000" fill-rule="nonzero" fill-opacity="1" /><path clip-path="url(#clip270)" d="M1147.2 1537.87 Q1146.21 1537.3 1145.04 1537.04 Q1143.89 1536.76 1142.49 1536.76 Q1137.52 1536.76 1134.85 1540 Q1132.21 1543.22 1132.21 1549.27 L1132.21 1568.04 L1126.32 1568.04 L1126.32 1532.4 L1132.21 1532.4 L1132.21 1537.93 Q1134.05 1534.69 1137.02 1533.13 Q1139.98 1531.54 1144.21 1531.54 Q1144.81 1531.54 1145.55 1531.63 Q1146.28 1531.7 1147.17 1531.85 L1147.2 1537.87 Z" fill="#000000" fill-rule="nonzero" fill-opacity="1" /><path clip-path="url(#clip270)" d="M1179.95 1539.24 Q1182.15 1535.29 1185.2 1533.41 Q1188.26 1531.54 1192.4 1531.54 Q1197.97 1531.54 1200.99 1535.45 Q1204.01 1539.33 1204.01 1546.53 L1204.01 1568.04 L1198.13 1568.04 L1198.13 1546.72 Q1198.13 1541.59 1196.31 1539.11 Q1194.5 1536.63 1190.77 1536.63 Q1186.22 1536.63 1183.58 1539.65 Q1180.94 1542.68 1180.94 1547.9 L1180.94 1568.04 L1175.05 1568.04 L1175.05 1546.72 Q1175.05 1541.56 1173.24 1539.11 Q1171.42 1536.63 1167.63 1536.63 Q1163.15 1536.63 1160.5 1539.68 Q1157.86 1542.71 1157.86 1547.9 L1157.86 1568.04 L1151.97 1568.04 L1151.97 1532.4 L1157.86 1532.4 L1157.86 1537.93 Q1159.87 1534.66 1162.67 1533.1 Q1165.47 1531.54 1169.32 1531.54 Q1173.2 1531.54 1175.91 1533.51 Q1178.65 1535.48 1179.95 1539.24 Z" fill="#000000" fill-rule="nonzero" fill-opacity="1" /><path clip-path="url(#clip270)" d="M1215.7 1532.4 L1221.55 1532.4 L1221.55 1568.04 L1215.7 1568.04 L1215.7 1532.4 M1215.7 1518.52 L1221.55 1518.52 L1221.55 1525.93 L1215.7 1525.93 L1215.7 1518.52 Z" fill="#000000" fill-rule="nonzero" fill-opacity="1" /><path clip-path="url(#clip270)" d="M1263.44 1546.53 L1263.44 1568.04 L1257.58 1568.04 L1257.58 1546.72 Q1257.58 1541.66 1255.61 1539.14 Q1253.63 1536.63 1249.69 1536.63 Q1244.95 1536.63 1242.21 1539.65 Q1239.47 1542.68 1239.47 1547.9 L1239.47 1568.04 L1233.58 1568.04 L1233.58 1532.4 L1239.47 1532.4 L1239.47 1537.93 Q1241.57 1534.72 1244.4 1533.13 Q1247.27 1531.54 1250.99 1531.54 Q1257.14 1531.54 1260.29 1535.36 Q1263.44 1539.14 1263.44 1546.53 Z" fill="#000000" fill-rule="nonzero" fill-opacity="1" /><path clip-path="url(#clip270)" d="M1291.32 1550.12 Q1284.22 1550.12 1281.48 1551.75 Q1278.75 1553.37 1278.75 1557.29 Q1278.75 1560.4 1280.78 1562.25 Q1282.85 1564.07 1286.39 1564.07 Q1291.26 1564.07 1294.18 1560.63 Q1297.14 1557.16 1297.14 1551.43 L1297.14 1550.12 L1291.32 1550.12 M1303 1547.71 L1303 1568.04 L1297.14 1568.04 L1297.14 1562.63 Q1295.14 1565.88 1292.15 1567.44 Q1289.16 1568.97 1284.83 1568.97 Q1279.35 1568.97 1276.11 1565.91 Q1272.89 1562.82 1272.89 1557.67 Q1272.89 1551.65 1276.9 1548.6 Q1280.94 1545.54 1288.93 1545.54 L1297.14 1545.54 L1297.14 1544.97 Q1297.14 1540.93 1294.47 1538.73 Q1291.83 1536.5 1287.02 1536.5 Q1283.97 1536.5 1281.07 1537.23 Q1278.17 1537.97 1275.5 1539.43 L1275.5 1534.02 Q1278.72 1532.78 1281.74 1532.17 Q1284.76 1531.54 1287.63 1531.54 Q1295.36 1531.54 1299.18 1535.55 Q1303 1539.56 1303 1547.71 Z" fill="#000000" fill-rule="nonzero" fill-opacity="1" /><path clip-path="url(#clip270)" d="M1315.06 1518.52 L1320.92 1518.52 L1320.92 1568.04 L1315.06 1568.04 L1315.06 1518.52 Z" fill="#000000" fill-rule="nonzero" fill-opacity="1" /><path clip-path="url(#clip270)" d="M1359.56 1562.7 L1359.56 1581.6 L1353.67 1581.6 L1353.67 1532.4 L1359.56 1532.4 L1359.56 1537.81 Q1361.41 1534.62 1364.21 1533.1 Q1367.04 1531.54 1370.95 1531.54 Q1377.45 1531.54 1381.49 1536.69 Q1385.56 1541.85 1385.56 1550.25 Q1385.56 1558.65 1381.49 1563.81 Q1377.45 1568.97 1370.95 1568.97 Q1367.04 1568.97 1364.21 1567.44 Q1361.41 1565.88 1359.56 1562.7 M1379.48 1550.25 Q1379.48 1543.79 1376.81 1540.13 Q1374.17 1536.44 1369.52 1536.44 Q1364.88 1536.44 1362.2 1540.13 Q1359.56 1543.79 1359.56 1550.25 Q1359.56 1556.71 1362.2 1560.4 Q1364.88 1564.07 1369.52 1564.07 Q1374.17 1564.07 1376.81 1560.4 Q1379.48 1556.71 1379.48 1550.25 Z" fill="#000000" fill-rule="nonzero" fill-opacity="1" /><path clip-path="url(#clip270)" d="M1415.93 1537.87 Q1414.94 1537.3 1413.76 1537.04 Q1412.62 1536.76 1411.22 1536.76 Q1406.25 1536.76 1403.58 1540 Q1400.94 1543.22 1400.94 1549.27 L1400.94 1568.04 L1395.05 1568.04 L1395.05 1532.4 L1400.94 1532.4 L1400.94 1537.93 Q1402.78 1534.69 1405.74 1533.13 Q1408.7 1531.54 1412.94 1531.54 Q1413.54 1531.54 1414.27 1531.63 Q1415.01 1531.7 1415.9 1531.85 L1415.93 1537.87 Z" fill="#000000" fill-rule="nonzero" fill-opacity="1" /><path clip-path="url(#clip270)" d="M1422.07 1532.4 L1427.93 1532.4 L1427.93 1568.04 L1422.07 1568.04 L1422.07 1532.4 M1422.07 1518.52 L1427.93 1518.52 L1427.93 1525.93 L1422.07 1525.93 L1422.07 1518.52 Z" fill="#000000" fill-rule="nonzero" fill-opacity="1" /><path clip-path="url(#clip270)" d="M1465.84 1533.76 L1465.84 1539.24 Q1463.35 1537.87 1460.84 1537.2 Q1458.36 1536.5 1455.81 1536.5 Q1450.11 1536.5 1446.96 1540.13 Q1443.81 1543.73 1443.81 1550.25 Q1443.81 1556.78 1446.96 1560.4 Q1450.11 1564 1455.81 1564 Q1458.36 1564 1460.84 1563.33 Q1463.35 1562.63 1465.84 1561.26 L1465.84 1566.68 Q1463.38 1567.82 1460.74 1568.39 Q1458.13 1568.97 1455.17 1568.97 Q1447.12 1568.97 1442.38 1563.91 Q1437.64 1558.85 1437.64 1550.25 Q1437.64 1541.53 1442.41 1536.53 Q1447.22 1531.54 1455.55 1531.54 Q1458.26 1531.54 1460.84 1532.11 Q1463.42 1532.65 1465.84 1533.76 Z" fill="#000000" fill-rule="nonzero" fill-opacity="1" /><path clip-path="url(#clip270)" d="M1506.51 1548.76 L1506.51 1551.62 L1479.59 1551.62 Q1479.97 1557.67 1483.21 1560.85 Q1486.49 1564 1492.32 1564 Q1495.69 1564 1498.84 1563.17 Q1502.02 1562.35 1505.14 1560.69 L1505.14 1566.23 Q1501.99 1567.57 1498.68 1568.27 Q1495.37 1568.97 1491.97 1568.97 Q1483.44 1568.97 1478.44 1564 Q1473.47 1559.04 1473.47 1550.57 Q1473.47 1541.82 1478.19 1536.69 Q1482.93 1531.54 1490.95 1531.54 Q1498.14 1531.54 1502.31 1536.18 Q1506.51 1540.8 1506.51 1548.76 M1500.66 1547.04 Q1500.59 1542.23 1497.95 1539.37 Q1495.34 1536.5 1491.01 1536.5 Q1486.11 1536.5 1483.15 1539.27 Q1480.22 1542.04 1479.78 1547.07 L1500.66 1547.04 Z" fill="#000000" fill-rule="nonzero" fill-opacity="1" /><polyline clip-path="url(#clip270)" style="stroke:#000000; stroke-linecap:round; stroke-linejoin:round; stroke-width:4; stroke-opacity:1; fill:none" points="205.121,1423.18 205.121,106.192 "/>
<polyline clip-path="url(#clip270)" style="stroke:#000000; stroke-linecap:round; stroke-linejoin:round; stroke-width:4; stroke-opacity:1; fill:none" points="205.121,1423.18 224.019,1423.18 "/>
<polyline clip-path="url(#clip270)" style="stroke:#000000; stroke-linecap:round; stroke-linejoin:round; stroke-width:4; stroke-opacity:1; fill:none" points="205.121,1226.61 224.019,1226.61 "/>
<polyline clip-path="url(#clip270)" style="stroke:#000000; stroke-linecap:round; stroke-linejoin:round; stroke-width:4; stroke-opacity:1; fill:none" points="205.121,1030.05 224.019,1030.05 "/>
<polyline clip-path="url(#clip270)" style="stroke:#000000; stroke-linecap:round; stroke-linejoin:round; stroke-width:4; stroke-opacity:1; fill:none" points="205.121,833.484 224.019,833.484 "/>
<polyline clip-path="url(#clip270)" style="stroke:#000000; stroke-linecap:round; stroke-linejoin:round; stroke-width:4; stroke-opacity:1; fill:none" points="205.121,636.919 224.019,636.919 "/>
<polyline clip-path="url(#clip270)" style="stroke:#000000; stroke-linecap:round; stroke-linejoin:round; stroke-width:4; stroke-opacity:1; fill:none" points="205.121,440.353 224.019,440.353 "/>
<polyline clip-path="url(#clip270)" style="stroke:#000000; stroke-linecap:round; stroke-linejoin:round; stroke-width:4; stroke-opacity:1; fill:none" points="205.121,243.788 224.019,243.788 "/>
<path clip-path="url(#clip270)" d="M157.177 1408.98 Q153.566 1408.98 151.737 1412.54 Q149.931 1416.08 149.931 1423.21 Q149.931 1430.32 151.737 1433.89 Q153.566 1437.43 157.177 1437.43 Q160.811 1437.43 162.616 1433.89 Q164.445 1430.32 164.445 1423.21 Q164.445 1416.08 162.616 1412.54 Q160.811 1408.98 157.177 1408.98 M157.177 1405.27 Q162.987 1405.27 166.042 1409.88 Q169.121 1414.46 169.121 1423.21 Q169.121 1431.94 166.042 1436.55 Q162.987 1441.13 157.177 1441.13 Q151.366 1441.13 148.288 1436.55 Q145.232 1431.94 145.232 1423.21 Q145.232 1414.46 148.288 1409.88 Q151.366 1405.27 157.177 1405.27 Z" fill="#000000" fill-rule="nonzero" fill-opacity="1" /><path clip-path="url(#clip270)" d="M117.825 1239.96 L125.464 1239.96 L125.464 1213.59 L117.154 1215.26 L117.154 1211 L125.418 1209.33 L130.093 1209.33 L130.093 1239.96 L137.732 1239.96 L137.732 1243.89 L117.825 1243.89 L117.825 1239.96 Z" fill="#000000" fill-rule="nonzero" fill-opacity="1" /><path clip-path="url(#clip270)" d="M157.177 1212.41 Q153.566 1212.41 151.737 1215.98 Q149.931 1219.52 149.931 1226.65 Q149.931 1233.76 151.737 1237.32 Q153.566 1240.86 157.177 1240.86 Q160.811 1240.86 162.616 1237.32 Q164.445 1233.76 164.445 1226.65 Q164.445 1219.52 162.616 1215.98 Q160.811 1212.41 157.177 1212.41 M157.177 1208.71 Q162.987 1208.71 166.042 1213.32 Q169.121 1217.9 169.121 1226.65 Q169.121 1235.38 166.042 1239.98 Q162.987 1244.57 157.177 1244.57 Q151.366 1244.57 148.288 1239.98 Q145.232 1235.38 145.232 1226.65 Q145.232 1217.9 148.288 1213.32 Q151.366 1208.71 157.177 1208.71 Z" fill="#000000" fill-rule="nonzero" fill-opacity="1" /><path clip-path="url(#clip270)" d="M121.043 1043.39 L137.362 1043.39 L137.362 1047.33 L115.418 1047.33 L115.418 1043.39 Q118.08 1040.64 122.663 1036.01 Q127.269 1031.36 128.45 1030.01 Q130.695 1027.49 131.575 1025.76 Q132.478 1024 132.478 1022.31 Q132.478 1019.55 130.533 1017.82 Q128.612 1016.08 125.51 1016.08 Q123.311 1016.08 120.857 1016.84 Q118.427 1017.61 115.649 1019.16 L115.649 1014.44 Q118.473 1013.3 120.927 1012.72 Q123.38 1012.14 125.418 1012.14 Q130.788 1012.14 133.982 1014.83 Q137.177 1017.51 137.177 1022.01 Q137.177 1024.13 136.367 1026.06 Q135.579 1027.95 133.473 1030.55 Q132.894 1031.22 129.792 1034.44 Q126.691 1037.63 121.043 1043.39 Z" fill="#000000" fill-rule="nonzero" fill-opacity="1" /><path clip-path="url(#clip270)" d="M157.177 1015.85 Q153.566 1015.85 151.737 1019.41 Q149.931 1022.95 149.931 1030.08 Q149.931 1037.19 151.737 1040.76 Q153.566 1044.3 157.177 1044.3 Q160.811 1044.3 162.616 1040.76 Q164.445 1037.19 164.445 1030.08 Q164.445 1022.95 162.616 1019.41 Q160.811 1015.85 157.177 1015.85 M157.177 1012.14 Q162.987 1012.14 166.042 1016.75 Q169.121 1021.33 169.121 1030.08 Q169.121 1038.81 166.042 1043.42 Q162.987 1048 157.177 1048 Q151.366 1048 148.288 1043.42 Q145.232 1038.81 145.232 1030.08 Q145.232 1021.33 148.288 1016.75 Q151.366 1012.14 157.177 1012.14 Z" fill="#000000" fill-rule="nonzero" fill-opacity="1" /><path clip-path="url(#clip270)" d="M131.181 832.13 Q134.538 832.847 136.413 835.116 Q138.311 837.384 138.311 840.718 Q138.311 845.833 134.792 848.634 Q131.274 851.435 124.793 851.435 Q122.617 851.435 120.302 850.995 Q118.01 850.579 115.556 849.722 L115.556 845.208 Q117.501 846.343 119.816 846.921 Q122.13 847.5 124.654 847.5 Q129.052 847.5 131.343 845.764 Q133.658 844.028 133.658 840.718 Q133.658 837.662 131.505 835.949 Q129.376 834.213 125.556 834.213 L121.529 834.213 L121.529 830.37 L125.742 830.37 Q129.191 830.37 131.019 829.005 Q132.848 827.616 132.848 825.023 Q132.848 822.361 130.95 820.949 Q129.075 819.514 125.556 819.514 Q123.635 819.514 121.436 819.931 Q119.237 820.347 116.598 821.227 L116.598 817.06 Q119.26 816.32 121.575 815.949 Q123.913 815.579 125.973 815.579 Q131.297 815.579 134.399 818.009 Q137.501 820.417 137.501 824.537 Q137.501 827.407 135.857 829.398 Q134.214 831.366 131.181 832.13 Z" fill="#000000" fill-rule="nonzero" fill-opacity="1" /><path clip-path="url(#clip270)" d="M157.177 819.283 Q153.566 819.283 151.737 822.847 Q149.931 826.389 149.931 833.519 Q149.931 840.625 151.737 844.19 Q153.566 847.731 157.177 847.731 Q160.811 847.731 162.616 844.19 Q164.445 840.625 164.445 833.519 Q164.445 826.389 162.616 822.847 Q160.811 819.283 157.177 819.283 M157.177 815.579 Q162.987 815.579 166.042 820.185 Q169.121 824.769 169.121 833.519 Q169.121 842.245 166.042 846.852 Q162.987 851.435 157.177 851.435 Q151.366 851.435 148.288 846.852 Q145.232 842.245 145.232 833.519 Q145.232 824.769 148.288 820.185 Q151.366 815.579 157.177 815.579 Z" fill="#000000" fill-rule="nonzero" fill-opacity="1" /><path clip-path="url(#clip270)" d="M129.862 623.713 L118.056 642.162 L129.862 642.162 L129.862 623.713 M128.635 619.639 L134.515 619.639 L134.515 642.162 L139.445 642.162 L139.445 646.05 L134.515 646.05 L134.515 654.199 L129.862 654.199 L129.862 646.05 L114.26 646.05 L114.26 641.537 L128.635 619.639 Z" fill="#000000" fill-rule="nonzero" fill-opacity="1" /><path clip-path="url(#clip270)" d="M157.177 622.717 Q153.566 622.717 151.737 626.282 Q149.931 629.824 149.931 636.953 Q149.931 644.06 151.737 647.624 Q153.566 651.166 157.177 651.166 Q160.811 651.166 162.616 647.624 Q164.445 644.06 164.445 636.953 Q164.445 629.824 162.616 626.282 Q160.811 622.717 157.177 622.717 M157.177 619.014 Q162.987 619.014 166.042 623.62 Q169.121 628.203 169.121 636.953 Q169.121 645.68 166.042 650.287 Q162.987 654.87 157.177 654.87 Q151.366 654.87 148.288 650.287 Q145.232 645.68 145.232 636.953 Q145.232 628.203 148.288 623.62 Q151.366 619.014 157.177 619.014 Z" fill="#000000" fill-rule="nonzero" fill-opacity="1" /><path clip-path="url(#clip270)" d="M117.061 423.073 L135.417 423.073 L135.417 427.008 L121.343 427.008 L121.343 435.481 Q122.362 435.133 123.38 434.971 Q124.399 434.786 125.418 434.786 Q131.205 434.786 134.584 437.957 Q137.964 441.129 137.964 446.545 Q137.964 452.124 134.492 455.226 Q131.019 458.304 124.7 458.304 Q122.524 458.304 120.255 457.934 Q118.01 457.564 115.603 456.823 L115.603 452.124 Q117.686 453.258 119.908 453.814 Q122.13 454.369 124.607 454.369 Q128.612 454.369 130.95 452.263 Q133.288 450.156 133.288 446.545 Q133.288 442.934 130.95 440.828 Q128.612 438.721 124.607 438.721 Q122.732 438.721 120.857 439.138 Q119.006 439.555 117.061 440.434 L117.061 423.073 Z" fill="#000000" fill-rule="nonzero" fill-opacity="1" /><path clip-path="url(#clip270)" d="M157.177 426.152 Q153.566 426.152 151.737 429.717 Q149.931 433.258 149.931 440.388 Q149.931 447.494 151.737 451.059 Q153.566 454.601 157.177 454.601 Q160.811 454.601 162.616 451.059 Q164.445 447.494 164.445 440.388 Q164.445 433.258 162.616 429.717 Q160.811 426.152 157.177 426.152 M157.177 422.448 Q162.987 422.448 166.042 427.055 Q169.121 431.638 169.121 440.388 Q169.121 449.115 166.042 453.721 Q162.987 458.304 157.177 458.304 Q151.366 458.304 148.288 453.721 Q145.232 449.115 145.232 440.388 Q145.232 431.638 148.288 427.055 Q151.366 422.448 157.177 422.448 Z" fill="#000000" fill-rule="nonzero" fill-opacity="1" /><path clip-path="url(#clip270)" d="M127.593 241.924 Q124.445 241.924 122.593 244.077 Q120.765 246.23 120.765 249.98 Q120.765 253.707 122.593 255.883 Q124.445 258.035 127.593 258.035 Q130.742 258.035 132.57 255.883 Q134.422 253.707 134.422 249.98 Q134.422 246.23 132.57 244.077 Q130.742 241.924 127.593 241.924 M136.876 227.272 L136.876 231.531 Q135.117 230.698 133.311 230.258 Q131.529 229.818 129.769 229.818 Q125.14 229.818 122.686 232.943 Q120.255 236.068 119.908 242.387 Q121.274 240.374 123.334 239.309 Q125.394 238.221 127.871 238.221 Q133.08 238.221 136.089 241.392 Q139.121 244.54 139.121 249.98 Q139.121 255.304 135.973 258.522 Q132.825 261.739 127.593 261.739 Q121.598 261.739 118.427 257.156 Q115.256 252.549 115.256 243.823 Q115.256 235.628 119.144 230.767 Q123.033 225.883 129.584 225.883 Q131.343 225.883 133.126 226.23 Q134.931 226.577 136.876 227.272 Z" fill="#000000" fill-rule="nonzero" fill-opacity="1" /><path clip-path="url(#clip270)" d="M157.177 229.587 Q153.566 229.587 151.737 233.151 Q149.931 236.693 149.931 243.823 Q149.931 250.929 151.737 254.494 Q153.566 258.035 157.177 258.035 Q160.811 258.035 162.616 254.494 Q164.445 250.929 164.445 243.823 Q164.445 236.693 162.616 233.151 Q160.811 229.587 157.177 229.587 M157.177 225.883 Q162.987 225.883 166.042 230.489 Q169.121 235.073 169.121 243.823 Q169.121 252.549 166.042 257.156 Q162.987 261.739 157.177 261.739 Q151.366 261.739 148.288 257.156 Q145.232 252.549 145.232 243.823 Q145.232 235.073 148.288 230.489 Q151.366 225.883 157.177 225.883 Z" fill="#000000" fill-rule="nonzero" fill-opacity="1" /><path clip-path="url(#clip270)" d="M20.1444 820.545 L26.9239 820.545 Q23.9002 823.792 22.4043 827.484 Q20.9083 831.144 20.9083 835.282 Q20.9083 843.43 25.9054 847.758 Q30.8707 852.087 40.2919 852.087 Q49.6813 852.087 54.6784 847.758 Q59.6436 843.43 59.6436 835.282 Q59.6436 831.144 58.1477 827.484 Q56.6518 823.792 53.6281 820.545 L60.3439 820.545 Q62.6355 823.919 63.7814 827.706 Q64.9272 831.462 64.9272 835.664 Q64.9272 846.453 58.3387 852.66 Q51.7183 858.867 40.2919 858.867 Q28.8336 858.867 22.2451 852.66 Q15.6248 846.453 15.6248 835.664 Q15.6248 831.399 16.7706 827.643 Q17.8846 823.855 20.1444 820.545 Z" fill="#000000" fill-rule="nonzero" fill-opacity="1" /><path clip-path="url(#clip270)" d="M32.4621 797.056 Q32.4621 801.766 36.1542 804.503 Q39.8145 807.241 46.212 807.241 Q52.6095 807.241 56.3017 804.535 Q59.9619 801.798 59.9619 797.056 Q59.9619 792.377 56.2698 789.64 Q52.5777 786.902 46.212 786.902 Q39.8781 786.902 36.186 789.64 Q32.4621 792.377 32.4621 797.056 M27.4968 797.056 Q27.4968 789.417 32.4621 785.056 Q37.4273 780.696 46.212 780.696 Q54.9649 780.696 59.9619 785.056 Q64.9272 789.417 64.9272 797.056 Q64.9272 804.726 59.9619 809.087 Q54.9649 813.415 46.212 813.415 Q37.4273 813.415 32.4621 809.087 Q27.4968 804.726 27.4968 797.056 Z" fill="#000000" fill-rule="nonzero" fill-opacity="1" /><path clip-path="url(#clip270)" d="M49.9359 771.593 L28.3562 771.593 L28.3562 765.736 L49.7131 765.736 Q54.7739 765.736 57.3202 763.763 Q59.8346 761.79 59.8346 757.843 Q59.8346 753.1 56.8109 750.363 Q53.7872 747.594 48.5673 747.594 L28.3562 747.594 L28.3562 741.738 L64.0042 741.738 L64.0042 747.594 L58.5296 747.594 Q61.7762 749.727 63.3676 752.559 Q64.9272 755.36 64.9272 759.084 Q64.9272 765.227 61.1078 768.41 Q57.2883 771.593 49.9359 771.593 M27.4968 756.856 L27.4968 756.856 Z" fill="#000000" fill-rule="nonzero" fill-opacity="1" /><path clip-path="url(#clip270)" d="M42.4881 700.042 L64.0042 700.042 L64.0042 705.899 L42.679 705.899 Q37.6183 705.899 35.1038 707.872 Q32.5894 709.845 32.5894 713.792 Q32.5894 718.535 35.6131 721.272 Q38.6368 724.009 43.8567 724.009 L64.0042 724.009 L64.0042 729.897 L28.3562 729.897 L28.3562 724.009 L33.8944 724.009 Q30.6797 721.908 29.0883 719.076 Q27.4968 716.211 27.4968 712.487 Q27.4968 706.344 31.3163 703.193 Q35.1038 700.042 42.4881 700.042 Z" fill="#000000" fill-rule="nonzero" fill-opacity="1" /><path clip-path="url(#clip270)" d="M18.2347 682.568 L28.3562 682.568 L28.3562 670.505 L32.9077 670.505 L32.9077 682.568 L52.2594 682.568 Q56.6199 682.568 57.8613 681.391 Q59.1026 680.181 59.1026 676.521 L59.1026 670.505 L64.0042 670.505 L64.0042 676.521 Q64.0042 683.3 61.4897 685.879 Q58.9434 688.457 52.2594 688.457 L32.9077 688.457 L32.9077 692.753 L28.3562 692.753 L28.3562 688.457 L18.2347 688.457 L18.2347 682.568 Z" fill="#000000" fill-rule="nonzero" fill-opacity="1" /><path clip-path="url(#clip270)" d="M654.043 14.3981 L646.115 35.8968 L662 35.8968 L654.043 14.3981 M650.744 8.64 L657.371 8.64 L673.835 51.84 L667.758 51.84 L663.823 40.7579 L644.35 40.7579 L640.415 51.84 L634.252 51.84 L650.744 8.64 Z" fill="#000000" fill-rule="nonzero" fill-opacity="1" /><path clip-path="url(#clip270)" d="M696.23 14.3981 L688.302 35.8968 L704.187 35.8968 L696.23 14.3981 M692.932 8.64 L699.558 8.64 L716.022 51.84 L709.946 51.84 L706.01 40.7579 L686.537 40.7579 L682.602 51.84 L676.439 51.84 L692.932 8.64 Z" fill="#000000" fill-rule="nonzero" fill-opacity="1" /><path clip-path="url(#clip270)" d="M728.175 13.4432 L728.175 29.6758 L735.524 29.6758 Q739.604 29.6758 741.832 27.5635 Q744.06 25.4513 744.06 21.545 Q744.06 17.6677 741.832 15.5555 Q739.604 13.4432 735.524 13.4432 L728.175 13.4432 M722.33 8.64 L735.524 8.64 Q742.787 8.64 746.49 11.9386 Q750.223 15.2083 750.223 21.545 Q750.223 27.9397 746.49 31.2093 Q742.787 34.479 735.524 34.479 L728.175 34.479 L728.175 51.84 L722.33 51.84 L722.33 8.64 Z" fill="#000000" fill-rule="nonzero" fill-opacity="1" /><path clip-path="url(#clip270)" d="M758.064 8.64 L763.909 8.64 L763.909 46.921 L784.945 46.921 L784.945 51.84 L758.064 51.84 L758.064 8.64 Z" fill="#000000" fill-rule="nonzero" fill-opacity="1" /><path clip-path="url(#clip270)" d="M806.994 33.2348 L822.59 33.2348 L822.59 37.9801 L806.994 37.9801 L806.994 33.2348 Z" fill="#000000" fill-rule="nonzero" fill-opacity="1" /><path clip-path="url(#clip270)" d="M861.276 51.84 L844.783 8.64 L850.888 8.64 L864.574 45.0113 L878.29 8.64 L884.366 8.64 L867.902 51.84 L861.276 51.84 Z" fill="#000000" fill-rule="nonzero" fill-opacity="1" /><path clip-path="url(#clip270)" d="M890.674 8.64 L896.519 8.64 L896.519 51.84 L890.674 51.84 L890.674 8.64 Z" fill="#000000" fill-rule="nonzero" fill-opacity="1" /><path clip-path="url(#clip270)" d="M906.067 8.64 L912.346 8.64 L923.081 24.6989 L933.874 8.64 L940.153 8.64 L926.264 29.3864 L941.079 51.84 L934.8 51.84 L922.647 33.4663 L910.407 51.84 L904.1 51.84 L919.522 28.7788 L906.067 8.64 Z" fill="#000000" fill-rule="nonzero" fill-opacity="1" /><path clip-path="url(#clip270)" d="M942.873 33.2348 L958.469 33.2348 L958.469 37.9801 L942.873 37.9801 L942.873 33.2348 Z" fill="#000000" fill-rule="nonzero" fill-opacity="1" /><path clip-path="url(#clip270)" d="M990.268 20.677 L990.268 25.6538 Q988.011 24.4096 985.725 23.802 Q983.468 23.1654 981.154 23.1654 Q975.974 23.1654 973.11 26.464 Q970.245 29.7336 970.245 35.6653 Q970.245 41.597 973.11 44.8956 Q975.974 48.1653 981.154 48.1653 Q983.468 48.1653 985.725 47.5576 Q988.011 46.921 990.268 45.6768 L990.268 50.5958 Q988.04 51.6375 985.639 52.1583 Q983.266 52.6791 980.575 52.6791 Q973.254 52.6791 968.943 48.0784 Q964.632 43.4778 964.632 35.6653 Q964.632 27.7371 968.972 23.1943 Q973.341 18.6515 980.922 18.6515 Q983.382 18.6515 985.725 19.1724 Q988.069 19.6642 990.268 20.677 Z" fill="#000000" fill-rule="nonzero" fill-opacity="1" /><path clip-path="url(#clip270)" d="M1012.09 23.1654 Q1007.8 23.1654 1005.31 26.5218 Q1002.83 29.8494 1002.83 35.6653 Q1002.83 41.4813 1005.29 44.8377 Q1007.77 48.1653 1012.09 48.1653 Q1016.34 48.1653 1018.83 44.8088 Q1021.32 41.4523 1021.32 35.6653 Q1021.32 29.9072 1018.83 26.5508 Q1016.34 23.1654 1012.09 23.1654 M1012.09 18.6515 Q1019.03 18.6515 1022.99 23.1654 Q1026.96 27.6792 1026.96 35.6653 Q1026.96 43.6225 1022.99 48.1653 Q1019.03 52.6791 1012.09 52.6791 Q1005.11 52.6791 1001.15 48.1653 Q997.213 43.6225 997.213 35.6653 Q997.213 27.6792 1001.15 23.1654 Q1005.11 18.6515 1012.09 18.6515 Z" fill="#000000" fill-rule="nonzero" fill-opacity="1" /><path clip-path="url(#clip270)" d="M1062.72 32.2799 L1062.72 51.84 L1057.4 51.84 L1057.4 32.4535 Q1057.4 27.8529 1055.6 25.567 Q1053.81 23.2811 1050.22 23.2811 Q1045.91 23.2811 1043.42 26.03 Q1040.93 28.7788 1040.93 33.5241 L1040.93 51.84 L1035.58 51.84 L1035.58 19.4328 L1040.93 19.4328 L1040.93 24.4675 Q1042.84 21.545 1045.42 20.0983 Q1048.02 18.6515 1051.41 18.6515 Q1056.99 18.6515 1059.86 22.1237 Q1062.72 25.567 1062.72 32.2799 Z" fill="#000000" fill-rule="nonzero" fill-opacity="1" /><path clip-path="url(#clip270)" d="M1094.67 24.3517 L1094.67 6.81709 L1099.99 6.81709 L1099.99 51.84 L1094.67 51.84 L1094.67 46.9789 Q1092.99 49.8724 1090.41 51.2902 Q1087.87 52.6791 1084.28 52.6791 Q1078.4 52.6791 1074.7 47.9916 Q1071.03 43.3042 1071.03 35.6653 Q1071.03 28.0265 1074.7 23.339 Q1078.4 18.6515 1084.28 18.6515 Q1087.87 18.6515 1090.41 20.0693 Q1092.99 21.4582 1094.67 24.3517 M1076.52 35.6653 Q1076.52 41.5391 1078.93 44.8956 Q1081.36 48.2231 1085.58 48.2231 Q1089.8 48.2231 1092.24 44.8956 Q1094.67 41.5391 1094.67 35.6653 Q1094.67 29.7915 1092.24 26.464 Q1089.8 23.1075 1085.58 23.1075 Q1081.36 23.1075 1078.93 26.464 Q1076.52 29.7915 1076.52 35.6653 Z" fill="#000000" fill-rule="nonzero" fill-opacity="1" /><path clip-path="url(#clip270)" d="M1111.71 44.4905 L1117.81 44.4905 L1117.81 51.84 L1111.71 51.84 L1111.71 44.4905 Z" fill="#000000" fill-rule="nonzero" fill-opacity="1" /><path clip-path="url(#clip270)" d="M1181.21 11.9675 L1181.21 18.1307 Q1178.26 15.3819 1174.9 14.0219 Q1171.58 12.662 1167.81 12.662 Q1160.41 12.662 1156.47 17.2048 Q1152.54 21.7186 1152.54 30.2834 Q1152.54 38.8192 1156.47 43.362 Q1160.41 47.8759 1167.81 47.8759 Q1171.58 47.8759 1174.9 46.516 Q1178.26 45.156 1181.21 42.4072 L1181.21 48.5125 Q1178.14 50.5958 1174.7 51.6375 Q1171.29 52.6791 1167.47 52.6791 Q1157.66 52.6791 1152.01 46.6896 Q1146.37 40.6711 1146.37 30.2834 Q1146.37 19.8668 1152.01 13.8772 Q1157.66 7.85875 1167.47 7.85875 Q1171.34 7.85875 1174.76 8.90042 Q1178.2 9.91314 1181.21 11.9675 Z" fill="#000000" fill-rule="nonzero" fill-opacity="1" /><path clip-path="url(#clip270)" d="M1190.24 8.64 L1196.08 8.64 L1196.08 26.3482 L1217.32 26.3482 L1217.32 8.64 L1223.17 8.64 L1223.17 51.84 L1217.32 51.84 L1217.32 31.2672 L1196.08 31.2672 L1196.08 51.84 L1190.24 51.84 L1190.24 8.64 Z" fill="#000000" fill-rule="nonzero" fill-opacity="1" /><path clip-path="url(#clip270)" d="M1234.8 8.64 L1243.51 8.64 L1254.53 38.038 L1265.61 8.64 L1274.32 8.64 L1274.32 51.84 L1268.62 51.84 L1268.62 13.9062 L1257.48 43.5356 L1251.61 43.5356 L1240.47 13.9062 L1240.47 51.84 L1234.8 51.84 L1234.8 8.64 Z" fill="#000000" fill-rule="nonzero" fill-opacity="1" /><path clip-path="url(#clip270)" d="M1285.93 8.64 L1294.64 8.64 L1305.66 38.038 L1316.74 8.64 L1325.45 8.64 L1325.45 51.84 L1319.75 51.84 L1319.75 13.9062 L1308.61 43.5356 L1302.74 43.5356 L1291.6 13.9062 L1291.6 51.84 L1285.93 51.84 L1285.93 8.64 Z" fill="#000000" fill-rule="nonzero" fill-opacity="1" /><path clip-path="url(#clip270)" d="M1334.13 33.2348 L1349.73 33.2348 L1349.73 37.9801 L1334.13 37.9801 L1334.13 33.2348 Z" fill="#000000" fill-rule="nonzero" fill-opacity="1" /><path clip-path="url(#clip270)" d="M1358.44 8.64 L1366.31 8.64 L1385.46 44.7799 L1385.46 8.64 L1391.13 8.64 L1391.13 51.84 L1383.26 51.84 L1364.11 15.7001 L1364.11 51.84 L1358.44 51.84 L1358.44 8.64 Z" fill="#000000" fill-rule="nonzero" fill-opacity="1" /><path clip-path="url(#clip270)" d="M1426.64 10.2314 L1426.64 19.4328 L1437.6 19.4328 L1437.6 23.5705 L1426.64 23.5705 L1426.64 41.163 Q1426.64 45.1271 1427.71 46.2555 Q1428.81 47.384 1432.13 47.384 L1437.6 47.384 L1437.6 51.84 L1432.13 51.84 Q1425.97 51.84 1423.63 49.5541 Q1421.28 47.2393 1421.28 41.163 L1421.28 23.5705 L1417.38 23.5705 L1417.38 19.4328 L1421.28 19.4328 L1421.28 10.2314 L1426.64 10.2314 Z" fill="#000000" fill-rule="nonzero" fill-opacity="1" /><path clip-path="url(#clip270)" d="M1472.33 34.3054 L1472.33 36.9095 L1447.85 36.9095 Q1448.19 42.4072 1451.15 45.3007 Q1454.13 48.1653 1459.42 48.1653 Q1462.49 48.1653 1465.35 47.4129 Q1468.25 46.6606 1471.08 45.156 L1471.08 50.1907 Q1468.22 51.406 1465.21 52.0425 Q1462.2 52.6791 1459.1 52.6791 Q1451.35 52.6791 1446.81 48.1653 Q1442.29 43.6514 1442.29 35.9547 Q1442.29 27.9975 1446.57 23.339 Q1450.88 18.6515 1458.18 18.6515 Q1464.72 18.6515 1468.51 22.876 Q1472.33 27.0716 1472.33 34.3054 M1467 32.7429 Q1466.94 28.3737 1464.54 25.7695 Q1462.17 23.1654 1458.23 23.1654 Q1453.78 23.1654 1451.09 25.6827 Q1448.43 28.2001 1448.02 32.7718 L1467 32.7429 Z" fill="#000000" fill-rule="nonzero" fill-opacity="1" /><path clip-path="url(#clip270)" d="M1499.84 24.4096 Q1498.95 23.8888 1497.88 23.6573 Q1496.83 23.3969 1495.56 23.3969 Q1491.05 23.3969 1488.62 26.3482 Q1486.21 29.2707 1486.21 34.7683 L1486.21 51.84 L1480.86 51.84 L1480.86 19.4328 L1486.21 19.4328 L1486.21 24.4675 Q1487.89 21.5161 1490.58 20.0983 Q1493.27 18.6515 1497.12 18.6515 Q1497.67 18.6515 1498.34 18.7383 Q1499 18.7962 1499.81 18.9409 L1499.84 24.4096 Z" fill="#000000" fill-rule="nonzero" fill-opacity="1" /><path clip-path="url(#clip270)" d="M1529.62 25.6538 Q1531.61 22.0659 1534.39 20.3587 Q1537.17 18.6515 1540.93 18.6515 Q1545.99 18.6515 1548.74 22.2105 Q1551.49 25.7406 1551.49 32.2799 L1551.49 51.84 L1546.14 51.84 L1546.14 32.4535 Q1546.14 27.795 1544.49 25.5381 Q1542.84 23.2811 1539.45 23.2811 Q1535.32 23.2811 1532.92 26.03 Q1530.51 28.7788 1530.51 33.5241 L1530.51 51.84 L1525.16 51.84 L1525.16 32.4535 Q1525.16 27.7661 1523.51 25.5381 Q1521.86 23.2811 1518.42 23.2811 Q1514.34 23.2811 1511.94 26.0589 Q1509.54 28.8077 1509.54 33.5241 L1509.54 51.84 L1504.18 51.84 L1504.18 19.4328 L1509.54 19.4328 L1509.54 24.4675 Q1511.36 21.4872 1513.91 20.0693 Q1516.45 18.6515 1519.95 18.6515 Q1523.48 18.6515 1525.94 20.4455 Q1528.43 22.2395 1529.62 25.6538 Z" fill="#000000" fill-rule="nonzero" fill-opacity="1" /><path clip-path="url(#clip270)" d="M1562.11 19.4328 L1567.44 19.4328 L1567.44 51.84 L1562.11 51.84 L1562.11 19.4328 M1562.11 6.81709 L1567.44 6.81709 L1567.44 13.559 L1562.11 13.559 L1562.11 6.81709 Z" fill="#000000" fill-rule="nonzero" fill-opacity="1" /><path clip-path="url(#clip270)" d="M1605.51 32.2799 L1605.51 51.84 L1600.19 51.84 L1600.19 32.4535 Q1600.19 27.8529 1598.4 25.567 Q1596.6 23.2811 1593.01 23.2811 Q1588.7 23.2811 1586.21 26.03 Q1583.73 28.7788 1583.73 33.5241 L1583.73 51.84 L1578.37 51.84 L1578.37 19.4328 L1583.73 19.4328 L1583.73 24.4675 Q1585.64 21.545 1588.21 20.0983 Q1590.81 18.6515 1594.2 18.6515 Q1599.78 18.6515 1602.65 22.1237 Q1605.51 25.567 1605.51 32.2799 Z" fill="#000000" fill-rule="nonzero" fill-opacity="1" /><path clip-path="url(#clip270)" d="M1630.86 35.5496 Q1624.41 35.5496 1621.92 37.0253 Q1619.43 38.501 1619.43 42.06 Q1619.43 44.8956 1621.28 46.5738 Q1623.16 48.2231 1626.38 48.2231 Q1630.8 48.2231 1633.46 45.0981 Q1636.16 41.9442 1636.16 36.7359 L1636.16 35.5496 L1630.86 35.5496 M1641.48 33.3505 L1641.48 51.84 L1636.16 51.84 L1636.16 46.921 Q1634.33 49.8724 1631.61 51.2902 Q1628.89 52.6791 1624.96 52.6791 Q1619.98 52.6791 1617.03 49.9014 Q1614.11 47.0947 1614.11 42.4072 Q1614.11 36.9385 1617.75 34.1607 Q1621.43 31.3829 1628.69 31.3829 L1636.16 31.3829 L1636.16 30.8621 Q1636.16 27.1874 1633.73 25.1908 Q1631.32 23.1654 1626.95 23.1654 Q1624.18 23.1654 1621.54 23.8309 Q1618.91 24.4964 1616.48 25.8274 L1616.48 20.9085 Q1619.4 19.78 1622.15 19.2302 Q1624.9 18.6515 1627.5 18.6515 Q1634.54 18.6515 1638.01 22.2973 Q1641.48 25.9431 1641.48 33.3505 Z" fill="#000000" fill-rule="nonzero" fill-opacity="1" /><path clip-path="url(#clip270)" d="M1652.45 6.81709 L1657.77 6.81709 L1657.77 51.84 L1652.45 51.84 L1652.45 6.81709 Z" fill="#000000" fill-rule="nonzero" fill-opacity="1" /><path clip-path="url(#clip270)" d="M1700.54 6.87496 Q1696.66 13.53 1694.78 20.0404 Q1692.9 26.5508 1692.9 33.2348 Q1692.9 39.9188 1694.78 46.487 Q1696.69 53.0263 1700.54 59.6525 L1695.91 59.6525 Q1691.57 52.8527 1689.4 46.2845 Q1687.26 39.7162 1687.26 33.2348 Q1687.26 26.7823 1689.4 20.2429 Q1691.54 13.7036 1695.91 6.87496 L1700.54 6.87496 Z" fill="#000000" fill-rule="nonzero" fill-opacity="1" /><path clip-path="url(#clip270)" d="M1737.8 32.2799 L1737.8 51.84 L1732.48 51.84 L1732.48 32.4535 Q1732.48 27.8529 1730.69 25.567 Q1728.89 23.2811 1725.3 23.2811 Q1720.99 23.2811 1718.5 26.03 Q1716.02 28.7788 1716.02 33.5241 L1716.02 51.84 L1710.66 51.84 L1710.66 19.4328 L1716.02 19.4328 L1716.02 24.4675 Q1717.93 21.545 1720.5 20.0983 Q1723.11 18.6515 1726.49 18.6515 Q1732.08 18.6515 1734.94 22.1237 Q1737.8 25.567 1737.8 32.2799 Z" fill="#000000" fill-rule="nonzero" fill-opacity="1" /><path clip-path="url(#clip270)" d="M1749.12 24.9304 L1786.21 24.9304 L1786.21 29.7915 L1749.12 29.7915 L1749.12 24.9304 M1749.12 36.7359 L1786.21 36.7359 L1786.21 41.6549 L1749.12 41.6549 L1749.12 36.7359 Z" fill="#000000" fill-rule="nonzero" fill-opacity="1" /><path clip-path="url(#clip270)" d="M1798.89 8.64 L1821.83 8.64 L1821.83 13.559 L1804.24 13.559 L1804.24 24.1492 Q1805.51 23.7152 1806.79 23.5126 Q1808.06 23.2811 1809.33 23.2811 Q1816.57 23.2811 1820.79 27.2452 Q1825.01 31.2093 1825.01 37.9801 Q1825.01 44.9535 1820.67 48.8308 Q1816.33 52.6791 1808.44 52.6791 Q1805.72 52.6791 1802.88 52.2162 Q1800.07 51.7532 1797.06 50.8273 L1797.06 44.9535 Q1799.67 46.3713 1802.45 47.0657 Q1805.22 47.7602 1808.32 47.7602 Q1813.33 47.7602 1816.25 45.1271 Q1819.17 42.494 1819.17 37.9801 Q1819.17 33.4663 1816.25 30.8332 Q1813.33 28.2001 1808.32 28.2001 Q1805.98 28.2001 1803.63 28.7209 Q1801.32 29.2417 1798.89 30.3413 L1798.89 8.64 Z" fill="#000000" fill-rule="nonzero" fill-opacity="1" /><path clip-path="url(#clip270)" d="M1849.03 12.4884 Q1844.52 12.4884 1842.23 16.9444 Q1839.97 21.3714 1839.97 30.2834 Q1839.97 39.1665 1842.23 43.6225 Q1844.52 48.0495 1849.03 48.0495 Q1853.57 48.0495 1855.83 43.6225 Q1858.12 39.1665 1858.12 30.2834 Q1858.12 21.3714 1855.83 16.9444 Q1853.57 12.4884 1849.03 12.4884 M1849.03 7.85875 Q1856.29 7.85875 1860.11 13.6168 Q1863.96 19.346 1863.96 30.2834 Q1863.96 41.1919 1860.11 46.95 Q1856.29 52.6791 1849.03 52.6791 Q1841.77 52.6791 1837.92 46.95 Q1834.1 41.1919 1834.1 30.2834 Q1834.1 19.346 1837.92 13.6168 Q1841.77 7.85875 1849.03 7.85875 Z" fill="#000000" fill-rule="nonzero" fill-opacity="1" /><path clip-path="url(#clip270)" d="M1886.73 12.4884 Q1882.22 12.4884 1879.93 16.9444 Q1877.68 21.3714 1877.68 30.2834 Q1877.68 39.1665 1879.93 43.6225 Q1882.22 48.0495 1886.73 48.0495 Q1891.28 48.0495 1893.53 43.6225 Q1895.82 39.1665 1895.82 30.2834 Q1895.82 21.3714 1893.53 16.9444 Q1891.28 12.4884 1886.73 12.4884 M1886.73 7.85875 Q1894 7.85875 1897.82 13.6168 Q1901.66 19.346 1901.66 30.2834 Q1901.66 41.1919 1897.82 46.95 Q1894 52.6791 1886.73 52.6791 Q1879.47 52.6791 1875.62 46.95 Q1871.8 41.1919 1871.8 30.2834 Q1871.8 19.346 1875.62 13.6168 Q1879.47 7.85875 1886.73 7.85875 Z" fill="#000000" fill-rule="nonzero" fill-opacity="1" /><path clip-path="url(#clip270)" d="M1910.34 6.87496 L1914.97 6.87496 Q1919.31 13.7036 1921.46 20.2429 Q1923.63 26.7823 1923.63 33.2348 Q1923.63 39.7162 1921.46 46.2845 Q1919.31 52.8527 1914.97 59.6525 L1910.34 59.6525 Q1914.19 53.0263 1916.07 46.487 Q1917.98 39.9188 1917.98 33.2348 Q1917.98 26.5508 1916.07 20.0404 Q1914.19 13.53 1910.34 6.87496 Z" fill="#000000" fill-rule="nonzero" fill-opacity="1" /><path clip-path="url(#clip272)" d="M323.245 1383.87 L323.245 1423.18 L402.886 1423.18 L402.886 1383.87 L323.245 1383.87 L323.245 1383.87  Z" fill="#2e8b57" fill-rule="evenodd" fill-opacity="0.6"/>
<polyline clip-path="url(#clip272)" style="stroke:#000000; stroke-linecap:round; stroke-linejoin:round; stroke-width:4; stroke-opacity:1; fill:none" points="323.245,1383.87 323.245,1423.18 402.886,1423.18 402.886,1383.87 323.245,1383.87 "/>
<path clip-path="url(#clip272)" d="M402.886 1364.21 L402.886 1423.18 L482.527 1423.18 L482.527 1364.21 L402.886 1364.21 L402.886 1364.21  Z" fill="#2e8b57" fill-rule="evenodd" fill-opacity="0.6"/>
<polyline clip-path="url(#clip272)" style="stroke:#000000; stroke-linecap:round; stroke-linejoin:round; stroke-width:4; stroke-opacity:1; fill:none" points="402.886,1364.21 402.886,1423.18 482.527,1423.18 482.527,1364.21 402.886,1364.21 "/>
<path clip-path="url(#clip272)" d="M482.527 1265.93 L482.527 1423.18 L562.168 1423.18 L562.168 1265.93 L482.527 1265.93 L482.527 1265.93  Z" fill="#2e8b57" fill-rule="evenodd" fill-opacity="0.6"/>
<polyline clip-path="url(#clip272)" style="stroke:#000000; stroke-linecap:round; stroke-linejoin:round; stroke-width:4; stroke-opacity:1; fill:none" points="482.527,1265.93 482.527,1423.18 562.168,1423.18 562.168,1265.93 482.527,1265.93 "/>
<path clip-path="url(#clip272)" d="M562.168 853.14 L562.168 1423.18 L641.809 1423.18 L641.809 853.14 L562.168 853.14 L562.168 853.14  Z" fill="#2e8b57" fill-rule="evenodd" fill-opacity="0.6"/>
<polyline clip-path="url(#clip272)" style="stroke:#000000; stroke-linecap:round; stroke-linejoin:round; stroke-width:4; stroke-opacity:1; fill:none" points="562.168,853.14 562.168,1423.18 641.809,1423.18 641.809,853.14 562.168,853.14 "/>
<path clip-path="url(#clip272)" d="M641.809 440.353 L641.809 1423.18 L721.45 1423.18 L721.45 440.353 L641.809 440.353 L641.809 440.353  Z" fill="#2e8b57" fill-rule="evenodd" fill-opacity="0.6"/>
<polyline clip-path="url(#clip272)" style="stroke:#000000; stroke-linecap:round; stroke-linejoin:round; stroke-width:4; stroke-opacity:1; fill:none" points="641.809,440.353 641.809,1423.18 721.45,1423.18 721.45,440.353 641.809,440.353 "/>
<path clip-path="url(#clip272)" d="M721.45 165.162 L721.45 1423.18 L801.092 1423.18 L801.092 165.162 L721.45 165.162 L721.45 165.162  Z" fill="#2e8b57" fill-rule="evenodd" fill-opacity="0.6"/>
<polyline clip-path="url(#clip272)" style="stroke:#000000; stroke-linecap:round; stroke-linejoin:round; stroke-width:4; stroke-opacity:1; fill:none" points="721.45,165.162 721.45,1423.18 801.092,1423.18 801.092,165.162 721.45,165.162 "/>
<path clip-path="url(#clip272)" d="M801.092 106.192 L801.092 1423.18 L880.733 1423.18 L880.733 106.192 L801.092 106.192 L801.092 106.192  Z" fill="#2e8b57" fill-rule="evenodd" fill-opacity="0.6"/>
<polyline clip-path="url(#clip272)" style="stroke:#000000; stroke-linecap:round; stroke-linejoin:round; stroke-width:4; stroke-opacity:1; fill:none" points="801.092,106.192 801.092,1423.18 880.733,1423.18 880.733,106.192 801.092,106.192 "/>
<path clip-path="url(#clip272)" d="M880.733 302.757 L880.733 1423.18 L960.374 1423.18 L960.374 302.757 L880.733 302.757 L880.733 302.757  Z" fill="#2e8b57" fill-rule="evenodd" fill-opacity="0.6"/>
<polyline clip-path="url(#clip272)" style="stroke:#000000; stroke-linecap:round; stroke-linejoin:round; stroke-width:4; stroke-opacity:1; fill:none" points="880.733,302.757 880.733,1423.18 960.374,1423.18 960.374,302.757 880.733,302.757 "/>
<path clip-path="url(#clip272)" d="M960.374 577.949 L960.374 1423.18 L1040.02 1423.18 L1040.02 577.949 L960.374 577.949 L960.374 577.949  Z" fill="#2e8b57" fill-rule="evenodd" fill-opacity="0.6"/>
<polyline clip-path="url(#clip272)" style="stroke:#000000; stroke-linecap:round; stroke-linejoin:round; stroke-width:4; stroke-opacity:1; fill:none" points="960.374,577.949 960.374,1423.18 1040.02,1423.18 1040.02,577.949 960.374,577.949 "/>
<path clip-path="url(#clip272)" d="M1040.02 715.545 L1040.02 1423.18 L1119.66 1423.18 L1119.66 715.545 L1040.02 715.545 L1040.02 715.545  Z" fill="#2e8b57" fill-rule="evenodd" fill-opacity="0.6"/>
<polyline clip-path="url(#clip272)" style="stroke:#000000; stroke-linecap:round; stroke-linejoin:round; stroke-width:4; stroke-opacity:1; fill:none" points="1040.02,715.545 1040.02,1423.18 1119.66,1423.18 1119.66,715.545 1040.02,715.545 "/>
<path clip-path="url(#clip272)" d="M1119.66 735.201 L1119.66 1423.18 L1199.3 1423.18 L1199.3 735.201 L1119.66 735.201 L1119.66 735.201  Z" fill="#2e8b57" fill-rule="evenodd" fill-opacity="0.6"/>
<polyline clip-path="url(#clip272)" style="stroke:#000000; stroke-linecap:round; stroke-linejoin:round; stroke-width:4; stroke-opacity:1; fill:none" points="1119.66,735.201 1119.66,1423.18 1199.3,1423.18 1199.3,735.201 1119.66,735.201 "/>
<path clip-path="url(#clip272)" d="M1199.3 794.171 L1199.3 1423.18 L1278.94 1423.18 L1278.94 794.171 L1199.3 794.171 L1199.3 794.171  Z" fill="#2e8b57" fill-rule="evenodd" fill-opacity="0.6"/>
<polyline clip-path="url(#clip272)" style="stroke:#000000; stroke-linecap:round; stroke-linejoin:round; stroke-width:4; stroke-opacity:1; fill:none" points="1199.3,794.171 1199.3,1423.18 1278.94,1423.18 1278.94,794.171 1199.3,794.171 "/>
<path clip-path="url(#clip272)" d="M1278.94 931.767 L1278.94 1423.18 L1358.58 1423.18 L1358.58 931.767 L1278.94 931.767 L1278.94 931.767  Z" fill="#2e8b57" fill-rule="evenodd" fill-opacity="0.6"/>
<polyline clip-path="url(#clip272)" style="stroke:#000000; stroke-linecap:round; stroke-linejoin:round; stroke-width:4; stroke-opacity:1; fill:none" points="1278.94,931.767 1278.94,1423.18 1358.58,1423.18 1358.58,931.767 1278.94,931.767 "/>
<path clip-path="url(#clip272)" d="M1358.58 1128.33 L1358.58 1423.18 L1438.22 1423.18 L1438.22 1128.33 L1358.58 1128.33 L1358.58 1128.33  Z" fill="#2e8b57" fill-rule="evenodd" fill-opacity="0.6"/>
<polyline clip-path="url(#clip272)" style="stroke:#000000; stroke-linecap:round; stroke-linejoin:round; stroke-width:4; stroke-opacity:1; fill:none" points="1358.58,1128.33 1358.58,1423.18 1438.22,1423.18 1438.22,1128.33 1358.58,1128.33 "/>
<path clip-path="url(#clip272)" d="M1438.22 1128.33 L1438.22 1423.18 L1517.86 1423.18 L1517.86 1128.33 L1438.22 1128.33 L1438.22 1128.33  Z" fill="#2e8b57" fill-rule="evenodd" fill-opacity="0.6"/>
<polyline clip-path="url(#clip272)" style="stroke:#000000; stroke-linecap:round; stroke-linejoin:round; stroke-width:4; stroke-opacity:1; fill:none" points="1438.22,1128.33 1438.22,1423.18 1517.86,1423.18 1517.86,1128.33 1438.22,1128.33 "/>
<path clip-path="url(#clip272)" d="M1517.86 1344.55 L1517.86 1423.18 L1597.5 1423.18 L1597.5 1344.55 L1517.86 1344.55 L1517.86 1344.55  Z" fill="#2e8b57" fill-rule="evenodd" fill-opacity="0.6"/>
<polyline clip-path="url(#clip272)" style="stroke:#000000; stroke-linecap:round; stroke-linejoin:round; stroke-width:4; stroke-opacity:1; fill:none" points="1517.86,1344.55 1517.86,1423.18 1597.5,1423.18 1597.5,1344.55 1517.86,1344.55 "/>
<path clip-path="url(#clip272)" d="M1597.5 1344.55 L1597.5 1423.18 L1677.14 1423.18 L1677.14 1344.55 L1597.5 1344.55 L1597.5 1344.55  Z" fill="#2e8b57" fill-rule="evenodd" fill-opacity="0.6"/>
<polyline clip-path="url(#clip272)" style="stroke:#000000; stroke-linecap:round; stroke-linejoin:round; stroke-width:4; stroke-opacity:1; fill:none" points="1597.5,1344.55 1597.5,1423.18 1677.14,1423.18 1677.14,1344.55 1597.5,1344.55 "/>
<path clip-path="url(#clip272)" d="M1677.14 1403.52 L1677.14 1423.18 L1756.79 1423.18 L1756.79 1403.52 L1677.14 1403.52 L1677.14 1403.52  Z" fill="#2e8b57" fill-rule="evenodd" fill-opacity="0.6"/>
<polyline clip-path="url(#clip272)" style="stroke:#000000; stroke-linecap:round; stroke-linejoin:round; stroke-width:4; stroke-opacity:1; fill:none" points="1677.14,1403.52 1677.14,1423.18 1756.79,1423.18 1756.79,1403.52 1677.14,1403.52 "/>
<path clip-path="url(#clip272)" d="M1756.79 1344.55 L1756.79 1423.18 L1836.43 1423.18 L1836.43 1344.55 L1756.79 1344.55 L1756.79 1344.55  Z" fill="#2e8b57" fill-rule="evenodd" fill-opacity="0.6"/>
<polyline clip-path="url(#clip272)" style="stroke:#000000; stroke-linecap:round; stroke-linejoin:round; stroke-width:4; stroke-opacity:1; fill:none" points="1756.79,1344.55 1756.79,1423.18 1836.43,1423.18 1836.43,1344.55 1756.79,1344.55 "/>
<path clip-path="url(#clip272)" d="M1836.43 1364.21 L1836.43 1423.18 L1916.07 1423.18 L1916.07 1364.21 L1836.43 1364.21 L1836.43 1364.21  Z" fill="#2e8b57" fill-rule="evenodd" fill-opacity="0.6"/>
<polyline clip-path="url(#clip272)" style="stroke:#000000; stroke-linecap:round; stroke-linejoin:round; stroke-width:4; stroke-opacity:1; fill:none" points="1836.43,1364.21 1836.43,1423.18 1916.07,1423.18 1916.07,1364.21 1836.43,1364.21 "/>
<path clip-path="url(#clip272)" d="M1916.07 1403.52 L1916.07 1423.18 L1995.71 1423.18 L1995.71 1403.52 L1916.07 1403.52 L1916.07 1403.52  Z" fill="#2e8b57" fill-rule="evenodd" fill-opacity="0.6"/>
<polyline clip-path="url(#clip272)" style="stroke:#000000; stroke-linecap:round; stroke-linejoin:round; stroke-width:4; stroke-opacity:1; fill:none" points="1916.07,1403.52 1916.07,1423.18 1995.71,1423.18 1995.71,1403.52 1916.07,1403.52 "/>
<path clip-path="url(#clip272)" d="M1995.71 1403.52 L1995.71 1423.18 L2075.35 1423.18 L2075.35 1403.52 L1995.71 1403.52 L1995.71 1403.52  Z" fill="#2e8b57" fill-rule="evenodd" fill-opacity="0.6"/>
<polyline clip-path="url(#clip272)" style="stroke:#000000; stroke-linecap:round; stroke-linejoin:round; stroke-width:4; stroke-opacity:1; fill:none" points="1995.71,1403.52 1995.71,1423.18 2075.35,1423.18 2075.35,1403.52 1995.71,1403.52 "/>
<path clip-path="url(#clip272)" d="M2075.35 1423.18 L2075.35 1423.18 L2154.99 1423.18 L2154.99 1423.18 L2075.35 1423.18 L2075.35 1423.18  Z" fill="#2e8b57" fill-rule="evenodd" fill-opacity="0.6"/>
<polyline clip-path="url(#clip272)" style="stroke:#000000; stroke-linecap:round; stroke-linejoin:round; stroke-width:4; stroke-opacity:1; fill:none" points="2075.35,1423.18 2075.35,1423.18 2154.99,1423.18 2075.35,1423.18 "/>
<path clip-path="url(#clip272)" d="M2154.99 1403.52 L2154.99 1423.18 L2234.63 1423.18 L2234.63 1403.52 L2154.99 1403.52 L2154.99 1403.52  Z" fill="#2e8b57" fill-rule="evenodd" fill-opacity="0.6"/>
<polyline clip-path="url(#clip272)" style="stroke:#000000; stroke-linecap:round; stroke-linejoin:round; stroke-width:4; stroke-opacity:1; fill:none" points="2154.99,1403.52 2154.99,1423.18 2234.63,1423.18 2234.63,1403.52 2154.99,1403.52 "/>
<circle clip-path="url(#clip272)" style="fill:#2e8b57; stroke:none; fill-opacity:0" cx="363.065" cy="1383.87" r="2"/>
<circle clip-path="url(#clip272)" style="fill:#2e8b57; stroke:none; fill-opacity:0" cx="442.706" cy="1364.21" r="2"/>
<circle clip-path="url(#clip272)" style="fill:#2e8b57; stroke:none; fill-opacity:0" cx="522.348" cy="1265.93" r="2"/>
<circle clip-path="url(#clip272)" style="fill:#2e8b57; stroke:none; fill-opacity:0" cx="601.989" cy="853.14" r="2"/>
<circle clip-path="url(#clip272)" style="fill:#2e8b57; stroke:none; fill-opacity:0" cx="681.63" cy="440.353" r="2"/>
<circle clip-path="url(#clip272)" style="fill:#2e8b57; stroke:none; fill-opacity:0" cx="761.271" cy="165.162" r="2"/>
<circle clip-path="url(#clip272)" style="fill:#2e8b57; stroke:none; fill-opacity:0" cx="840.912" cy="106.192" r="2"/>
<circle clip-path="url(#clip272)" style="fill:#2e8b57; stroke:none; fill-opacity:0" cx="920.553" cy="302.757" r="2"/>
<circle clip-path="url(#clip272)" style="fill:#2e8b57; stroke:none; fill-opacity:0" cx="1000.19" cy="577.949" r="2"/>
<circle clip-path="url(#clip272)" style="fill:#2e8b57; stroke:none; fill-opacity:0" cx="1079.84" cy="715.545" r="2"/>
<circle clip-path="url(#clip272)" style="fill:#2e8b57; stroke:none; fill-opacity:0" cx="1159.48" cy="735.201" r="2"/>
<circle clip-path="url(#clip272)" style="fill:#2e8b57; stroke:none; fill-opacity:0" cx="1239.12" cy="794.171" r="2"/>
<circle clip-path="url(#clip272)" style="fill:#2e8b57; stroke:none; fill-opacity:0" cx="1318.76" cy="931.767" r="2"/>
<circle clip-path="url(#clip272)" style="fill:#2e8b57; stroke:none; fill-opacity:0" cx="1398.4" cy="1128.33" r="2"/>
<circle clip-path="url(#clip272)" style="fill:#2e8b57; stroke:none; fill-opacity:0" cx="1478.04" cy="1128.33" r="2"/>
<circle clip-path="url(#clip272)" style="fill:#2e8b57; stroke:none; fill-opacity:0" cx="1557.68" cy="1344.55" r="2"/>
<circle clip-path="url(#clip272)" style="fill:#2e8b57; stroke:none; fill-opacity:0" cx="1637.32" cy="1344.55" r="2"/>
<circle clip-path="url(#clip272)" style="fill:#2e8b57; stroke:none; fill-opacity:0" cx="1716.96" cy="1403.52" r="2"/>
<circle clip-path="url(#clip272)" style="fill:#2e8b57; stroke:none; fill-opacity:0" cx="1796.61" cy="1344.55" r="2"/>
<circle clip-path="url(#clip272)" style="fill:#2e8b57; stroke:none; fill-opacity:0" cx="1876.25" cy="1364.21" r="2"/>
<circle clip-path="url(#clip272)" style="fill:#2e8b57; stroke:none; fill-opacity:0" cx="1955.89" cy="1403.52" r="2"/>
<circle clip-path="url(#clip272)" style="fill:#2e8b57; stroke:none; fill-opacity:0" cx="2035.53" cy="1403.52" r="2"/>
<circle clip-path="url(#clip272)" style="fill:#2e8b57; stroke:none; fill-opacity:0" cx="2115.17" cy="1423.18" r="2"/>
<circle clip-path="url(#clip272)" style="fill:#2e8b57; stroke:none; fill-opacity:0" cx="2194.81" cy="1403.52" r="2"/>
<polyline clip-path="url(#clip272)" style="stroke:#ff0000; stroke-linecap:round; stroke-linejoin:round; stroke-width:8; stroke-opacity:1; fill:none" points="1184.33,2740.17 1184.33,-1210.8 "/>
<polyline clip-path="url(#clip272)" style="stroke:#006400; stroke-linecap:round; stroke-linejoin:round; stroke-width:8; stroke-opacity:1; fill:none" stroke-dasharray="32, 20" points="916.408,2740.17 916.408,-1210.8 "/>
<path clip-path="url(#clip270)" d="M1632.33 357.452 L2281.17 357.452 L2281.17 150.092 L1632.33 150.092  Z" fill="#ffffff" fill-rule="evenodd" fill-opacity="1"/>
<polyline clip-path="url(#clip270)" style="stroke:#000000; stroke-linecap:round; stroke-linejoin:round; stroke-width:4; stroke-opacity:1; fill:none" points="1632.33,357.452 2281.17,357.452 2281.17,150.092 1632.33,150.092 1632.33,357.452 "/>
<path clip-path="url(#clip270)" d="M1656.2 222.668 L1799.37 222.668 L1799.37 181.196 L1656.2 181.196 L1656.2 222.668  Z" fill="#2e8b57" fill-rule="evenodd" fill-opacity="0.6"/>
<polyline clip-path="url(#clip270)" style="stroke:#000000; stroke-linecap:round; stroke-linejoin:round; stroke-width:4; stroke-opacity:1; fill:none" points="1656.2,222.668 1799.37,222.668 1799.37,181.196 1656.2,181.196 1656.2,222.668 "/>
<path clip-path="url(#clip270)" d="M1845.48 185.786 L1845.48 190.346 Q1842.82 189.073 1840.46 188.448 Q1838.09 187.823 1835.9 187.823 Q1832.08 187.823 1829.99 189.304 Q1827.93 190.786 1827.93 193.517 Q1827.93 195.809 1829.3 196.99 Q1830.69 198.147 1834.53 198.865 L1837.35 199.443 Q1842.59 200.439 1845.06 202.962 Q1847.56 205.462 1847.56 209.675 Q1847.56 214.698 1844.18 217.29 Q1840.83 219.883 1834.32 219.883 Q1831.87 219.883 1829.09 219.327 Q1826.34 218.772 1823.37 217.684 L1823.37 212.869 Q1826.22 214.466 1828.95 215.277 Q1831.68 216.087 1834.32 216.087 Q1838.33 216.087 1840.5 214.513 Q1842.68 212.939 1842.68 210.022 Q1842.68 207.476 1841.1 206.04 Q1839.55 204.605 1835.99 203.888 L1833.14 203.332 Q1827.91 202.291 1825.57 200.068 Q1823.23 197.846 1823.23 193.888 Q1823.23 189.304 1826.45 186.666 Q1829.69 184.027 1835.36 184.027 Q1837.79 184.027 1840.32 184.467 Q1842.84 184.906 1845.48 185.786 Z" fill="#000000" fill-rule="nonzero" fill-opacity="1" /><path clip-path="url(#clip270)" d="M1854.67 193.286 L1858.93 193.286 L1858.93 219.212 L1854.67 219.212 L1854.67 193.286 M1854.67 183.193 L1858.93 183.193 L1858.93 188.587 L1854.67 188.587 L1854.67 183.193 Z" fill="#000000" fill-rule="nonzero" fill-opacity="1" /><path clip-path="url(#clip270)" d="M1888.03 198.263 Q1889.62 195.392 1891.84 194.027 Q1894.07 192.661 1897.08 192.661 Q1901.13 192.661 1903.33 195.508 Q1905.52 198.332 1905.52 203.564 L1905.52 219.212 L1901.24 219.212 L1901.24 203.703 Q1901.24 199.976 1899.92 198.17 Q1898.6 196.365 1895.9 196.365 Q1892.59 196.365 1890.66 198.564 Q1888.74 200.763 1888.74 204.559 L1888.74 219.212 L1884.46 219.212 L1884.46 203.703 Q1884.46 199.953 1883.14 198.17 Q1881.82 196.365 1879.07 196.365 Q1875.8 196.365 1873.88 198.587 Q1871.96 200.786 1871.96 204.559 L1871.96 219.212 L1867.68 219.212 L1867.68 193.286 L1871.96 193.286 L1871.96 197.314 Q1873.42 194.929 1875.46 193.795 Q1877.49 192.661 1880.29 192.661 Q1883.12 192.661 1885.09 194.096 Q1887.08 195.531 1888.03 198.263 Z" fill="#000000" fill-rule="nonzero" fill-opacity="1" /><path clip-path="url(#clip270)" d="M1913.58 208.98 L1913.58 193.286 L1917.84 193.286 L1917.84 208.818 Q1917.84 212.499 1919.27 214.351 Q1920.71 216.179 1923.58 216.179 Q1927.03 216.179 1929.02 213.98 Q1931.03 211.781 1931.03 207.985 L1931.03 193.286 L1935.29 193.286 L1935.29 219.212 L1931.03 219.212 L1931.03 215.23 Q1929.48 217.591 1927.42 218.749 Q1925.39 219.883 1922.68 219.883 Q1918.21 219.883 1915.9 217.105 Q1913.58 214.327 1913.58 208.98 M1924.3 192.661 L1924.3 192.661 Z" fill="#000000" fill-rule="nonzero" fill-opacity="1" /><path clip-path="url(#clip270)" d="M1944.07 183.193 L1948.33 183.193 L1948.33 219.212 L1944.07 219.212 L1944.07 183.193 Z" fill="#000000" fill-rule="nonzero" fill-opacity="1" /><path clip-path="url(#clip270)" d="M1969.02 206.179 Q1963.86 206.179 1961.87 207.36 Q1959.88 208.54 1959.88 211.388 Q1959.88 213.656 1961.36 214.999 Q1962.86 216.318 1965.43 216.318 Q1968.97 216.318 1971.1 213.818 Q1973.26 211.295 1973.26 207.128 L1973.26 206.179 L1969.02 206.179 M1977.52 204.42 L1977.52 219.212 L1973.26 219.212 L1973.26 215.277 Q1971.8 217.638 1969.62 218.772 Q1967.45 219.883 1964.3 219.883 Q1960.32 219.883 1957.96 217.661 Q1955.62 215.415 1955.62 211.665 Q1955.62 207.29 1958.53 205.068 Q1961.47 202.846 1967.28 202.846 L1973.26 202.846 L1973.26 202.429 Q1973.26 199.49 1971.31 197.892 Q1969.39 196.272 1965.89 196.272 Q1963.67 196.272 1961.57 196.804 Q1959.46 197.337 1957.52 198.402 L1957.52 194.466 Q1959.85 193.564 1962.05 193.124 Q1964.25 192.661 1966.33 192.661 Q1971.96 192.661 1974.74 195.578 Q1977.52 198.494 1977.52 204.42 Z" fill="#000000" fill-rule="nonzero" fill-opacity="1" /><path clip-path="url(#clip270)" d="M1990.5 185.925 L1990.5 193.286 L1999.27 193.286 L1999.27 196.596 L1990.5 196.596 L1990.5 210.67 Q1990.5 213.841 1991.36 214.744 Q1992.24 215.647 1994.9 215.647 L1999.27 215.647 L1999.27 219.212 L1994.9 219.212 Q1989.97 219.212 1988.09 217.383 Q1986.22 215.531 1986.22 210.67 L1986.22 196.596 L1983.09 196.596 L1983.09 193.286 L1986.22 193.286 L1986.22 185.925 L1990.5 185.925 Z" fill="#000000" fill-rule="nonzero" fill-opacity="1" /><path clip-path="url(#clip270)" d="M2027.05 205.184 L2027.05 207.267 L2007.47 207.267 Q2007.75 211.665 2010.11 213.98 Q2012.49 216.272 2016.73 216.272 Q2019.18 216.272 2021.47 215.67 Q2023.79 215.068 2026.06 213.865 L2026.06 217.892 Q2023.77 218.864 2021.36 219.374 Q2018.95 219.883 2016.47 219.883 Q2010.27 219.883 2006.64 216.272 Q2003.02 212.661 2003.02 206.503 Q2003.02 200.138 2006.45 196.411 Q2009.9 192.661 2015.73 192.661 Q2020.96 192.661 2024 196.041 Q2027.05 199.397 2027.05 205.184 M2022.79 203.934 Q2022.75 200.439 2020.83 198.355 Q2018.93 196.272 2015.78 196.272 Q2012.21 196.272 2010.06 198.286 Q2007.93 200.3 2007.61 203.957 L2022.79 203.934 Z" fill="#000000" fill-rule="nonzero" fill-opacity="1" /><path clip-path="url(#clip270)" d="M2051.1 197.221 L2051.1 183.193 L2055.36 183.193 L2055.36 219.212 L2051.1 219.212 L2051.1 215.323 Q2049.76 217.638 2047.7 218.772 Q2045.66 219.883 2042.79 219.883 Q2038.09 219.883 2035.13 216.133 Q2032.19 212.383 2032.19 206.272 Q2032.19 200.161 2035.13 196.411 Q2038.09 192.661 2042.79 192.661 Q2045.66 192.661 2047.7 193.795 Q2049.76 194.906 2051.1 197.221 M2036.59 206.272 Q2036.59 210.971 2038.51 213.656 Q2040.45 216.318 2043.83 216.318 Q2047.21 216.318 2049.16 213.656 Q2051.1 210.971 2051.1 206.272 Q2051.1 201.573 2049.16 198.911 Q2047.21 196.226 2043.83 196.226 Q2040.45 196.226 2038.51 198.911 Q2036.59 201.573 2036.59 206.272 Z" fill="#000000" fill-rule="nonzero" fill-opacity="1" /><polyline clip-path="url(#clip270)" style="stroke:#ff0000; stroke-linecap:round; stroke-linejoin:round; stroke-width:8; stroke-opacity:1; fill:none" points="1656.2,253.772 1799.37,253.772 "/>
<path clip-path="url(#clip270)" d="M1839.25 239.663 Q1834.16 239.663 1831.15 243.459 Q1828.16 247.256 1828.16 253.806 Q1828.16 260.334 1831.15 264.13 Q1834.16 267.927 1839.25 267.927 Q1844.34 267.927 1847.31 264.13 Q1850.29 260.334 1850.29 253.806 Q1850.29 247.256 1847.31 243.459 Q1844.34 239.663 1839.25 239.663 M1839.25 235.867 Q1846.52 235.867 1850.87 240.751 Q1855.22 245.612 1855.22 253.806 Q1855.22 261.978 1850.87 266.862 Q1846.52 271.723 1839.25 271.723 Q1831.96 271.723 1827.59 266.862 Q1823.23 262.001 1823.23 253.806 Q1823.23 245.612 1827.59 240.751 Q1831.96 235.867 1839.25 235.867 Z" fill="#000000" fill-rule="nonzero" fill-opacity="1" /><path clip-path="url(#clip270)" d="M1880.96 258.112 Q1880.96 253.413 1879.02 250.751 Q1877.1 248.066 1873.72 248.066 Q1870.34 248.066 1868.4 250.751 Q1866.47 253.413 1866.47 258.112 Q1866.47 262.811 1868.4 265.496 Q1870.34 268.158 1873.72 268.158 Q1877.1 268.158 1879.02 265.496 Q1880.96 262.811 1880.96 258.112 M1866.47 249.061 Q1867.82 246.746 1869.85 245.635 Q1871.91 244.501 1874.76 244.501 Q1879.48 244.501 1882.42 248.251 Q1885.39 252.001 1885.39 258.112 Q1885.39 264.223 1882.42 267.973 Q1879.48 271.723 1874.76 271.723 Q1871.91 271.723 1869.85 270.612 Q1867.82 269.478 1866.47 267.163 L1866.47 271.052 L1862.19 271.052 L1862.19 235.033 L1866.47 235.033 L1866.47 249.061 Z" fill="#000000" fill-rule="nonzero" fill-opacity="1" /><path clip-path="url(#clip270)" d="M1908.97 245.89 L1908.97 249.918 Q1907.17 248.992 1905.22 248.529 Q1903.28 248.066 1901.2 248.066 Q1898.02 248.066 1896.43 249.038 Q1894.85 250.01 1894.85 251.955 Q1894.85 253.436 1895.99 254.293 Q1897.12 255.126 1900.55 255.89 L1902.01 256.214 Q1906.54 257.186 1908.44 258.968 Q1910.36 260.728 1910.36 263.899 Q1910.36 267.51 1907.49 269.617 Q1904.65 271.723 1899.65 271.723 Q1897.56 271.723 1895.29 271.306 Q1893.05 270.913 1890.55 270.103 L1890.55 265.705 Q1892.91 266.931 1895.2 267.556 Q1897.49 268.158 1899.74 268.158 Q1902.75 268.158 1904.37 267.14 Q1905.99 266.098 1905.99 264.223 Q1905.99 262.487 1904.81 261.561 Q1903.65 260.635 1899.69 259.779 L1898.21 259.431 Q1894.25 258.598 1892.49 256.885 Q1890.73 255.149 1890.73 252.14 Q1890.73 248.482 1893.33 246.492 Q1895.92 244.501 1900.69 244.501 Q1903.05 244.501 1905.13 244.848 Q1907.21 245.195 1908.97 245.89 Z" fill="#000000" fill-rule="nonzero" fill-opacity="1" /><path clip-path="url(#clip270)" d="M1939.32 257.024 L1939.32 259.107 L1919.74 259.107 Q1920.02 263.505 1922.38 265.82 Q1924.76 268.112 1929 268.112 Q1931.45 268.112 1933.74 267.51 Q1936.06 266.908 1938.33 265.705 L1938.33 269.732 Q1936.03 270.704 1933.63 271.214 Q1931.22 271.723 1928.74 271.723 Q1922.54 271.723 1918.9 268.112 Q1915.29 264.501 1915.29 258.343 Q1915.29 251.978 1918.72 248.251 Q1922.17 244.501 1928 244.501 Q1933.23 244.501 1936.27 247.881 Q1939.32 251.237 1939.32 257.024 M1935.06 255.774 Q1935.02 252.279 1933.09 250.195 Q1931.2 248.112 1928.05 248.112 Q1924.48 248.112 1922.33 250.126 Q1920.2 252.14 1919.88 255.797 L1935.06 255.774 Z" fill="#000000" fill-rule="nonzero" fill-opacity="1" /><path clip-path="url(#clip270)" d="M1961.33 249.107 Q1960.62 248.691 1959.76 248.506 Q1958.93 248.297 1957.91 248.297 Q1954.3 248.297 1952.35 250.658 Q1950.43 252.996 1950.43 257.394 L1950.43 271.052 L1946.15 271.052 L1946.15 245.126 L1950.43 245.126 L1950.43 249.154 Q1951.77 246.793 1953.93 245.658 Q1956.08 244.501 1959.16 244.501 Q1959.6 244.501 1960.13 244.57 Q1960.66 244.617 1961.31 244.732 L1961.33 249.107 Z" fill="#000000" fill-rule="nonzero" fill-opacity="1" /><path clip-path="url(#clip270)" d="M1962.75 245.126 L1967.26 245.126 L1975.36 266.885 L1983.46 245.126 L1987.98 245.126 L1978.26 271.052 L1972.47 271.052 L1962.75 245.126 Z" fill="#000000" fill-rule="nonzero" fill-opacity="1" /><path clip-path="url(#clip270)" d="M2016.03 257.024 L2016.03 259.107 L1996.45 259.107 Q1996.73 263.505 1999.09 265.82 Q2001.47 268.112 2005.71 268.112 Q2008.16 268.112 2010.45 267.51 Q2012.77 266.908 2015.04 265.705 L2015.04 269.732 Q2012.75 270.704 2010.34 271.214 Q2007.93 271.723 2005.45 271.723 Q1999.25 271.723 1995.62 268.112 Q1992.01 264.501 1992.01 258.343 Q1992.01 251.978 1995.43 248.251 Q1998.88 244.501 2004.71 244.501 Q2009.95 244.501 2012.98 247.881 Q2016.03 251.237 2016.03 257.024 M2011.77 255.774 Q2011.73 252.279 2009.81 250.195 Q2007.91 248.112 2004.76 248.112 Q2001.2 248.112 1999.04 250.126 Q1996.91 252.14 1996.59 255.797 L2011.77 255.774 Z" fill="#000000" fill-rule="nonzero" fill-opacity="1" /><path clip-path="url(#clip270)" d="M2040.08 249.061 L2040.08 235.033 L2044.34 235.033 L2044.34 271.052 L2040.08 271.052 L2040.08 267.163 Q2038.74 269.478 2036.68 270.612 Q2034.64 271.723 2031.77 271.723 Q2027.08 271.723 2024.11 267.973 Q2021.17 264.223 2021.17 258.112 Q2021.17 252.001 2024.11 248.251 Q2027.08 244.501 2031.77 244.501 Q2034.64 244.501 2036.68 245.635 Q2038.74 246.746 2040.08 249.061 M2025.57 258.112 Q2025.57 262.811 2027.49 265.496 Q2029.44 268.158 2032.82 268.158 Q2036.2 268.158 2038.14 265.496 Q2040.08 262.811 2040.08 258.112 Q2040.08 253.413 2038.14 250.751 Q2036.2 248.066 2032.82 248.066 Q2029.44 248.066 2027.49 250.751 Q2025.57 253.413 2025.57 258.112 Z" fill="#000000" fill-rule="nonzero" fill-opacity="1" /><path clip-path="url(#clip270)" d="M2072.4 237.765 L2072.4 245.126 L2081.17 245.126 L2081.17 248.436 L2072.4 248.436 L2072.4 262.51 Q2072.4 265.681 2073.26 266.584 Q2074.14 267.487 2076.8 267.487 L2081.17 267.487 L2081.17 271.052 L2076.8 271.052 Q2071.87 271.052 2069.99 269.223 Q2068.12 267.371 2068.12 262.51 L2068.12 248.436 L2064.99 248.436 L2064.99 245.126 L2068.12 245.126 L2068.12 237.765 L2072.4 237.765 Z" fill="#000000" fill-rule="nonzero" fill-opacity="1" /><path clip-path="url(#clip270)" d="M2108.95 257.024 L2108.95 259.107 L2089.37 259.107 Q2089.64 263.505 2092.01 265.82 Q2094.39 268.112 2098.63 268.112 Q2101.08 268.112 2103.37 267.51 Q2105.69 266.908 2107.95 265.705 L2107.95 269.732 Q2105.66 270.704 2103.26 271.214 Q2100.85 271.723 2098.37 271.723 Q2092.17 271.723 2088.53 268.112 Q2084.92 264.501 2084.92 258.343 Q2084.92 251.978 2088.35 248.251 Q2091.8 244.501 2097.63 244.501 Q2102.86 244.501 2105.89 247.881 Q2108.95 251.237 2108.95 257.024 M2104.69 255.774 Q2104.64 252.279 2102.72 250.195 Q2100.82 248.112 2097.68 248.112 Q2094.11 248.112 2091.96 250.126 Q2089.83 252.14 2089.51 255.797 L2104.69 255.774 Z" fill="#000000" fill-rule="nonzero" fill-opacity="1" /><path clip-path="url(#clip270)" d="M2130.96 249.107 Q2130.25 248.691 2129.39 248.506 Q2128.56 248.297 2127.54 248.297 Q2123.93 248.297 2121.98 250.658 Q2120.06 252.996 2120.06 257.394 L2120.06 271.052 L2115.78 271.052 L2115.78 245.126 L2120.06 245.126 L2120.06 249.154 Q2121.4 246.793 2123.56 245.658 Q2125.71 244.501 2128.79 244.501 Q2129.23 244.501 2129.76 244.57 Q2130.29 244.617 2130.94 244.732 L2130.96 249.107 Z" fill="#000000" fill-rule="nonzero" fill-opacity="1" /><path clip-path="url(#clip270)" d="M2154.78 250.103 Q2156.38 247.232 2158.6 245.867 Q2160.82 244.501 2163.83 244.501 Q2167.88 244.501 2170.08 247.348 Q2172.28 250.172 2172.28 255.404 L2172.28 271.052 L2168 271.052 L2168 255.543 Q2168 251.816 2166.68 250.01 Q2165.36 248.205 2162.65 248.205 Q2159.34 248.205 2157.42 250.404 Q2155.5 252.603 2155.5 256.399 L2155.5 271.052 L2151.22 271.052 L2151.22 255.543 Q2151.22 251.793 2149.9 250.01 Q2148.58 248.205 2145.82 248.205 Q2142.56 248.205 2140.64 250.427 Q2138.72 252.626 2138.72 256.399 L2138.72 271.052 L2134.44 271.052 L2134.44 245.126 L2138.72 245.126 L2138.72 249.154 Q2140.18 246.769 2142.21 245.635 Q2144.25 244.501 2147.05 244.501 Q2149.88 244.501 2151.84 245.936 Q2153.83 247.371 2154.78 250.103 Z" fill="#000000" fill-rule="nonzero" fill-opacity="1" /><path clip-path="url(#clip270)" d="M2180.78 245.126 L2185.04 245.126 L2185.04 271.052 L2180.78 271.052 L2180.78 245.126 M2180.78 235.033 L2185.04 235.033 L2185.04 240.427 L2180.78 240.427 L2180.78 235.033 Z" fill="#000000" fill-rule="nonzero" fill-opacity="1" /><path clip-path="url(#clip270)" d="M2215.5 255.404 L2215.5 271.052 L2211.24 271.052 L2211.24 255.543 Q2211.24 251.862 2209.81 250.033 Q2208.37 248.205 2205.5 248.205 Q2202.05 248.205 2200.06 250.404 Q2198.07 252.603 2198.07 256.399 L2198.07 271.052 L2193.79 271.052 L2193.79 245.126 L2198.07 245.126 L2198.07 249.154 Q2199.6 246.816 2201.66 245.658 Q2203.74 244.501 2206.45 244.501 Q2210.92 244.501 2213.21 247.279 Q2215.5 250.033 2215.5 255.404 Z" fill="#000000" fill-rule="nonzero" fill-opacity="1" /><path clip-path="url(#clip270)" d="M2235.78 258.019 Q2230.62 258.019 2228.63 259.2 Q2226.63 260.38 2226.63 263.228 Q2226.63 265.496 2228.12 266.839 Q2229.62 268.158 2232.19 268.158 Q2235.73 268.158 2237.86 265.658 Q2240.01 263.135 2240.01 258.968 L2240.01 258.019 L2235.78 258.019 M2244.27 256.26 L2244.27 271.052 L2240.01 271.052 L2240.01 267.117 Q2238.56 269.478 2236.38 270.612 Q2234.2 271.723 2231.06 271.723 Q2227.07 271.723 2224.71 269.501 Q2222.38 267.255 2222.38 263.505 Q2222.38 259.13 2225.29 256.908 Q2228.23 254.686 2234.04 254.686 L2240.01 254.686 L2240.01 254.269 Q2240.01 251.33 2238.07 249.732 Q2236.15 248.112 2232.65 248.112 Q2230.43 248.112 2228.32 248.644 Q2226.22 249.177 2224.27 250.242 L2224.27 246.306 Q2226.61 245.404 2228.81 244.964 Q2231.01 244.501 2233.09 244.501 Q2238.72 244.501 2241.5 247.418 Q2244.27 250.334 2244.27 256.26 Z" fill="#000000" fill-rule="nonzero" fill-opacity="1" /><path clip-path="url(#clip270)" d="M2253.05 235.033 L2257.31 235.033 L2257.31 271.052 L2253.05 271.052 L2253.05 235.033 Z" fill="#000000" fill-rule="nonzero" fill-opacity="1" /><polyline clip-path="url(#clip270)" style="stroke:#006400; stroke-linecap:round; stroke-linejoin:round; stroke-width:8; stroke-opacity:1; fill:none" stroke-dasharray="32, 20" points="1656.2,305.612 1799.37,305.612 "/>
<path clip-path="url(#clip270)" d="M1845.48 289.466 L1845.48 294.026 Q1842.82 292.753 1840.46 292.128 Q1838.09 291.503 1835.9 291.503 Q1832.08 291.503 1829.99 292.984 Q1827.93 294.466 1827.93 297.197 Q1827.93 299.489 1829.3 300.67 Q1830.69 301.827 1834.53 302.545 L1837.35 303.123 Q1842.59 304.119 1845.06 306.642 Q1847.56 309.142 1847.56 313.355 Q1847.56 318.378 1844.18 320.97 Q1840.83 323.563 1834.32 323.563 Q1831.87 323.563 1829.09 323.007 Q1826.34 322.452 1823.37 321.364 L1823.37 316.549 Q1826.22 318.146 1828.95 318.957 Q1831.68 319.767 1834.32 319.767 Q1838.33 319.767 1840.5 318.193 Q1842.68 316.619 1842.68 313.702 Q1842.68 311.156 1841.1 309.72 Q1839.55 308.285 1835.99 307.568 L1833.14 307.012 Q1827.91 305.971 1825.57 303.748 Q1823.23 301.526 1823.23 297.568 Q1823.23 292.984 1826.45 290.346 Q1829.69 287.707 1835.36 287.707 Q1837.79 287.707 1840.32 288.147 Q1842.84 288.586 1845.48 289.466 Z" fill="#000000" fill-rule="nonzero" fill-opacity="1" /><path clip-path="url(#clip270)" d="M1854.67 296.966 L1858.93 296.966 L1858.93 322.892 L1854.67 322.892 L1854.67 296.966 M1854.67 286.873 L1858.93 286.873 L1858.93 292.267 L1854.67 292.267 L1854.67 286.873 Z" fill="#000000" fill-rule="nonzero" fill-opacity="1" /><path clip-path="url(#clip270)" d="M1888.03 301.943 Q1889.62 299.072 1891.84 297.707 Q1894.07 296.341 1897.08 296.341 Q1901.13 296.341 1903.33 299.188 Q1905.52 302.012 1905.52 307.244 L1905.52 322.892 L1901.24 322.892 L1901.24 307.383 Q1901.24 303.656 1899.92 301.85 Q1898.6 300.045 1895.9 300.045 Q1892.59 300.045 1890.66 302.244 Q1888.74 304.443 1888.74 308.239 L1888.74 322.892 L1884.46 322.892 L1884.46 307.383 Q1884.46 303.633 1883.14 301.85 Q1881.82 300.045 1879.07 300.045 Q1875.8 300.045 1873.88 302.267 Q1871.96 304.466 1871.96 308.239 L1871.96 322.892 L1867.68 322.892 L1867.68 296.966 L1871.96 296.966 L1871.96 300.994 Q1873.42 298.609 1875.46 297.475 Q1877.49 296.341 1880.29 296.341 Q1883.12 296.341 1885.09 297.776 Q1887.08 299.211 1888.03 301.943 Z" fill="#000000" fill-rule="nonzero" fill-opacity="1" /><path clip-path="url(#clip270)" d="M1913.58 312.66 L1913.58 296.966 L1917.84 296.966 L1917.84 312.498 Q1917.84 316.179 1919.27 318.031 Q1920.71 319.859 1923.58 319.859 Q1927.03 319.859 1929.02 317.66 Q1931.03 315.461 1931.03 311.665 L1931.03 296.966 L1935.29 296.966 L1935.29 322.892 L1931.03 322.892 L1931.03 318.91 Q1929.48 321.271 1927.42 322.429 Q1925.39 323.563 1922.68 323.563 Q1918.21 323.563 1915.9 320.785 Q1913.58 318.007 1913.58 312.66 M1924.3 296.341 L1924.3 296.341 Z" fill="#000000" fill-rule="nonzero" fill-opacity="1" /><path clip-path="url(#clip270)" d="M1944.07 286.873 L1948.33 286.873 L1948.33 322.892 L1944.07 322.892 L1944.07 286.873 Z" fill="#000000" fill-rule="nonzero" fill-opacity="1" /><path clip-path="url(#clip270)" d="M1969.02 309.859 Q1963.86 309.859 1961.87 311.04 Q1959.88 312.22 1959.88 315.068 Q1959.88 317.336 1961.36 318.679 Q1962.86 319.998 1965.43 319.998 Q1968.97 319.998 1971.1 317.498 Q1973.26 314.975 1973.26 310.808 L1973.26 309.859 L1969.02 309.859 M1977.52 308.1 L1977.52 322.892 L1973.26 322.892 L1973.26 318.957 Q1971.8 321.318 1969.62 322.452 Q1967.45 323.563 1964.3 323.563 Q1960.32 323.563 1957.96 321.341 Q1955.62 319.095 1955.62 315.345 Q1955.62 310.97 1958.53 308.748 Q1961.47 306.526 1967.28 306.526 L1973.26 306.526 L1973.26 306.109 Q1973.26 303.17 1971.31 301.572 Q1969.39 299.952 1965.89 299.952 Q1963.67 299.952 1961.57 300.484 Q1959.46 301.017 1957.52 302.082 L1957.52 298.146 Q1959.85 297.244 1962.05 296.804 Q1964.25 296.341 1966.33 296.341 Q1971.96 296.341 1974.74 299.258 Q1977.52 302.174 1977.52 308.1 Z" fill="#000000" fill-rule="nonzero" fill-opacity="1" /><path clip-path="url(#clip270)" d="M1990.5 289.605 L1990.5 296.966 L1999.27 296.966 L1999.27 300.276 L1990.5 300.276 L1990.5 314.35 Q1990.5 317.521 1991.36 318.424 Q1992.24 319.327 1994.9 319.327 L1999.27 319.327 L1999.27 322.892 L1994.9 322.892 Q1989.97 322.892 1988.09 321.063 Q1986.22 319.211 1986.22 314.35 L1986.22 300.276 L1983.09 300.276 L1983.09 296.966 L1986.22 296.966 L1986.22 289.605 L1990.5 289.605 Z" fill="#000000" fill-rule="nonzero" fill-opacity="1" /><path clip-path="url(#clip270)" d="M2027.05 308.864 L2027.05 310.947 L2007.47 310.947 Q2007.75 315.345 2010.11 317.66 Q2012.49 319.952 2016.73 319.952 Q2019.18 319.952 2021.47 319.35 Q2023.79 318.748 2026.06 317.545 L2026.06 321.572 Q2023.77 322.544 2021.36 323.054 Q2018.95 323.563 2016.47 323.563 Q2010.27 323.563 2006.64 319.952 Q2003.02 316.341 2003.02 310.183 Q2003.02 303.818 2006.45 300.091 Q2009.9 296.341 2015.73 296.341 Q2020.96 296.341 2024 299.721 Q2027.05 303.077 2027.05 308.864 M2022.79 307.614 Q2022.75 304.119 2020.83 302.035 Q2018.93 299.952 2015.78 299.952 Q2012.21 299.952 2010.06 301.966 Q2007.93 303.98 2007.61 307.637 L2022.79 307.614 Z" fill="#000000" fill-rule="nonzero" fill-opacity="1" /><path clip-path="url(#clip270)" d="M2051.1 300.901 L2051.1 286.873 L2055.36 286.873 L2055.36 322.892 L2051.1 322.892 L2051.1 319.003 Q2049.76 321.318 2047.7 322.452 Q2045.66 323.563 2042.79 323.563 Q2038.09 323.563 2035.13 319.813 Q2032.19 316.063 2032.19 309.952 Q2032.19 303.841 2035.13 300.091 Q2038.09 296.341 2042.79 296.341 Q2045.66 296.341 2047.7 297.475 Q2049.76 298.586 2051.1 300.901 M2036.59 309.952 Q2036.59 314.651 2038.51 317.336 Q2040.45 319.998 2043.83 319.998 Q2047.21 319.998 2049.16 317.336 Q2051.1 314.651 2051.1 309.952 Q2051.1 305.253 2049.16 302.591 Q2047.21 299.906 2043.83 299.906 Q2040.45 299.906 2038.51 302.591 Q2036.59 305.253 2036.59 309.952 Z" fill="#000000" fill-rule="nonzero" fill-opacity="1" /><path clip-path="url(#clip270)" d="M2099.39 301.943 Q2100.99 299.072 2103.21 297.707 Q2105.43 296.341 2108.44 296.341 Q2112.49 296.341 2114.69 299.188 Q2116.89 302.012 2116.89 307.244 L2116.89 322.892 L2112.61 322.892 L2112.61 307.383 Q2112.61 303.656 2111.29 301.85 Q2109.97 300.045 2107.26 300.045 Q2103.95 300.045 2102.03 302.244 Q2100.11 304.443 2100.11 308.239 L2100.11 322.892 L2095.82 322.892 L2095.82 307.383 Q2095.82 303.633 2094.51 301.85 Q2093.19 300.045 2090.43 300.045 Q2087.17 300.045 2085.25 302.267 Q2083.32 304.466 2083.32 308.239 L2083.32 322.892 L2079.04 322.892 L2079.04 296.966 L2083.32 296.966 L2083.32 300.994 Q2084.78 298.609 2086.82 297.475 Q2088.86 296.341 2091.66 296.341 Q2094.48 296.341 2096.45 297.776 Q2098.44 299.211 2099.39 301.943 Z" fill="#000000" fill-rule="nonzero" fill-opacity="1" /><path clip-path="url(#clip270)" d="M2147.56 308.864 L2147.56 310.947 L2127.98 310.947 Q2128.26 315.345 2130.62 317.66 Q2133 319.952 2137.24 319.952 Q2139.69 319.952 2141.98 319.35 Q2144.3 318.748 2146.57 317.545 L2146.57 321.572 Q2144.27 322.544 2141.87 323.054 Q2139.46 323.563 2136.98 323.563 Q2130.78 323.563 2127.14 319.952 Q2123.53 316.341 2123.53 310.183 Q2123.53 303.818 2126.96 300.091 Q2130.41 296.341 2136.24 296.341 Q2141.47 296.341 2144.51 299.721 Q2147.56 303.077 2147.56 308.864 M2143.3 307.614 Q2143.26 304.119 2141.33 302.035 Q2139.44 299.952 2136.29 299.952 Q2132.72 299.952 2130.57 301.966 Q2128.44 303.98 2128.12 307.637 L2143.3 307.614 Z" fill="#000000" fill-rule="nonzero" fill-opacity="1" /><path clip-path="url(#clip270)" d="M2171.61 300.901 L2171.61 286.873 L2175.87 286.873 L2175.87 322.892 L2171.61 322.892 L2171.61 319.003 Q2170.27 321.318 2168.21 322.452 Q2166.17 323.563 2163.3 323.563 Q2158.6 323.563 2155.64 319.813 Q2152.7 316.063 2152.7 309.952 Q2152.7 303.841 2155.64 300.091 Q2158.6 296.341 2163.3 296.341 Q2166.17 296.341 2168.21 297.475 Q2170.27 298.586 2171.61 300.901 M2157.1 309.952 Q2157.1 314.651 2159.02 317.336 Q2160.96 319.998 2164.34 319.998 Q2167.72 319.998 2169.67 317.336 Q2171.61 314.651 2171.61 309.952 Q2171.61 305.253 2169.67 302.591 Q2167.72 299.906 2164.34 299.906 Q2160.96 299.906 2159.02 302.591 Q2157.1 305.253 2157.1 309.952 Z" fill="#000000" fill-rule="nonzero" fill-opacity="1" /><path clip-path="url(#clip270)" d="M2184.64 296.966 L2188.9 296.966 L2188.9 322.892 L2184.64 322.892 L2184.64 296.966 M2184.64 286.873 L2188.9 286.873 L2188.9 292.267 L2184.64 292.267 L2184.64 286.873 Z" fill="#000000" fill-rule="nonzero" fill-opacity="1" /><path clip-path="url(#clip270)" d="M2209.6 309.859 Q2204.44 309.859 2202.44 311.04 Q2200.45 312.22 2200.45 315.068 Q2200.45 317.336 2201.94 318.679 Q2203.44 319.998 2206.01 319.998 Q2209.55 319.998 2211.68 317.498 Q2213.83 314.975 2213.83 310.808 L2213.83 309.859 L2209.6 309.859 M2218.09 308.1 L2218.09 322.892 L2213.83 322.892 L2213.83 318.957 Q2212.38 321.318 2210.2 322.452 Q2208.02 323.563 2204.88 323.563 Q2200.89 323.563 2198.53 321.341 Q2196.19 319.095 2196.19 315.345 Q2196.19 310.97 2199.11 308.748 Q2202.05 306.526 2207.86 306.526 L2213.83 306.526 L2213.83 306.109 Q2213.83 303.17 2211.89 301.572 Q2209.97 299.952 2206.47 299.952 Q2204.25 299.952 2202.14 300.484 Q2200.04 301.017 2198.09 302.082 L2198.09 298.146 Q2200.43 297.244 2202.63 296.804 Q2204.83 296.341 2206.91 296.341 Q2212.54 296.341 2215.31 299.258 Q2218.09 302.174 2218.09 308.1 Z" fill="#000000" fill-rule="nonzero" fill-opacity="1" /><path clip-path="url(#clip270)" d="M2248.42 307.244 L2248.42 322.892 L2244.16 322.892 L2244.16 307.383 Q2244.16 303.702 2242.72 301.873 Q2241.29 300.045 2238.42 300.045 Q2234.97 300.045 2232.98 302.244 Q2230.99 304.443 2230.99 308.239 L2230.99 322.892 L2226.7 322.892 L2226.7 296.966 L2230.99 296.966 L2230.99 300.994 Q2232.51 298.656 2234.57 297.498 Q2236.66 296.341 2239.37 296.341 Q2243.83 296.341 2246.12 299.119 Q2248.42 301.873 2248.42 307.244 Z" fill="#000000" fill-rule="nonzero" fill-opacity="1" /></svg>
