<?xml version="1.0" encoding="utf-8"?>
<svg xmlns="http://www.w3.org/2000/svg" xmlns:xlink="http://www.w3.org/1999/xlink" width="600" height="400" viewBox="0 0 2400 1600">
<defs>
  <clipPath id="clip480">
    <rect x="0" y="0" width="2400" height="1600"/>
  </clipPath>
</defs>
<path clip-path="url(#clip480)" d="M0 1600 L2400 1600 L2400 8.88178e-14 L0 8.88178e-14  Z" fill="#ffffff" fill-rule="evenodd" fill-opacity="1"/>
<defs>
  <clipPath id="clip481">
    <rect x="235" y="106" width="2118" height="1318"/>
  </clipPath>
</defs>
<path clip-path="url(#clip480)" d="M205.121 1423.18 L2352.76 1423.18 L2352.76 106.192 L205.121 106.192  Z" fill="#ffffff" fill-rule="evenodd" fill-opacity="1"/>
<defs>
  <clipPath id="clip482">
    <rect x="205" y="106" width="2149" height="1318"/>
  </clipPath>
</defs>
<polyline clip-path="url(#clip482)" style="stroke:#000000; stroke-linecap:round; stroke-linejoin:round; stroke-width:2; stroke-opacity:0.1; fill:none" points="323.245,1423.18 323.245,106.192 "/>
<polyline clip-path="url(#clip482)" style="stroke:#000000; stroke-linecap:round; stroke-linejoin:round; stroke-width:2; stroke-opacity:0.1; fill:none" points="778.337,1423.18 778.337,106.192 "/>
<polyline clip-path="url(#clip482)" style="stroke:#000000; stroke-linecap:round; stroke-linejoin:round; stroke-width:2; stroke-opacity:0.1; fill:none" points="1233.43,1423.18 1233.43,106.192 "/>
<polyline clip-path="url(#clip482)" style="stroke:#000000; stroke-linecap:round; stroke-linejoin:round; stroke-width:2; stroke-opacity:0.1; fill:none" points="1688.52,1423.18 1688.52,106.192 "/>
<polyline clip-path="url(#clip482)" style="stroke:#000000; stroke-linecap:round; stroke-linejoin:round; stroke-width:2; stroke-opacity:0.1; fill:none" points="2143.61,1423.18 2143.61,106.192 "/>
<polyline clip-path="url(#clip482)" style="stroke:#000000; stroke-linecap:round; stroke-linejoin:round; stroke-width:2; stroke-opacity:0.1; fill:none" points="205.121,1423.18 2352.76,1423.18 "/>
<polyline clip-path="url(#clip482)" style="stroke:#000000; stroke-linecap:round; stroke-linejoin:round; stroke-width:2; stroke-opacity:0.1; fill:none" points="205.121,1093.93 2352.76,1093.93 "/>
<polyline clip-path="url(#clip482)" style="stroke:#000000; stroke-linecap:round; stroke-linejoin:round; stroke-width:2; stroke-opacity:0.1; fill:none" points="205.121,764.686 2352.76,764.686 "/>
<polyline clip-path="url(#clip482)" style="stroke:#000000; stroke-linecap:round; stroke-linejoin:round; stroke-width:2; stroke-opacity:0.1; fill:none" points="205.121,435.439 2352.76,435.439 "/>
<polyline clip-path="url(#clip482)" style="stroke:#000000; stroke-linecap:round; stroke-linejoin:round; stroke-width:2; stroke-opacity:0.1; fill:none" points="205.121,106.192 2352.76,106.192 "/>
<polyline clip-path="url(#clip480)" style="stroke:#000000; stroke-linecap:round; stroke-linejoin:round; stroke-width:4; stroke-opacity:1; fill:none" points="205.121,1423.18 2352.76,1423.18 "/>
<polyline clip-path="url(#clip480)" style="stroke:#000000; stroke-linecap:round; stroke-linejoin:round; stroke-width:4; stroke-opacity:1; fill:none" points="323.245,1423.18 323.245,1404.28 "/>
<polyline clip-path="url(#clip480)" style="stroke:#000000; stroke-linecap:round; stroke-linejoin:round; stroke-width:4; stroke-opacity:1; fill:none" points="778.337,1423.18 778.337,1404.28 "/>
<polyline clip-path="url(#clip480)" style="stroke:#000000; stroke-linecap:round; stroke-linejoin:round; stroke-width:4; stroke-opacity:1; fill:none" points="1233.43,1423.18 1233.43,1404.28 "/>
<polyline clip-path="url(#clip480)" style="stroke:#000000; stroke-linecap:round; stroke-linejoin:round; stroke-width:4; stroke-opacity:1; fill:none" points="1688.52,1423.18 1688.52,1404.28 "/>
<polyline clip-path="url(#clip480)" style="stroke:#000000; stroke-linecap:round; stroke-linejoin:round; stroke-width:4; stroke-opacity:1; fill:none" points="2143.61,1423.18 2143.61,1404.28 "/>
<path clip-path="url(#clip480)" d="M286.937 1481.64 L303.256 1481.64 L303.256 1485.58 L281.312 1485.58 L281.312 1481.64 Q283.974 1478.89 288.557 1474.26 Q293.164 1469.61 294.344 1468.27 Q296.59 1465.74 297.469 1464.01 Q298.372 1462.25 298.372 1460.56 Q298.372 1457.8 296.428 1456.07 Q294.506 1454.33 291.405 1454.33 Q289.206 1454.33 286.752 1455.09 Q284.321 1455.86 281.544 1457.41 L281.544 1452.69 Q284.368 1451.55 286.821 1450.97 Q289.275 1450.39 291.312 1450.39 Q296.682 1450.39 299.877 1453.08 Q303.071 1455.77 303.071 1460.26 Q303.071 1462.39 302.261 1464.31 Q301.474 1466.2 299.368 1468.8 Q298.789 1469.47 295.687 1472.69 Q292.585 1475.88 286.937 1481.64 Z" fill="#000000" fill-rule="nonzero" fill-opacity="1" /><path clip-path="url(#clip480)" d="M323.071 1454.1 Q319.46 1454.1 317.631 1457.66 Q315.826 1461.2 315.826 1468.33 Q315.826 1475.44 317.631 1479.01 Q319.46 1482.55 323.071 1482.55 Q326.705 1482.55 328.511 1479.01 Q330.34 1475.44 330.34 1468.33 Q330.34 1461.2 328.511 1457.66 Q326.705 1454.1 323.071 1454.1 M323.071 1450.39 Q328.881 1450.39 331.937 1455 Q335.015 1459.58 335.015 1468.33 Q335.015 1477.06 331.937 1481.67 Q328.881 1486.25 323.071 1486.25 Q317.261 1486.25 314.182 1481.67 Q311.127 1477.06 311.127 1468.33 Q311.127 1459.58 314.182 1455 Q317.261 1450.39 323.071 1450.39 Z" fill="#000000" fill-rule="nonzero" fill-opacity="1" /><path clip-path="url(#clip480)" d="M353.233 1454.1 Q349.622 1454.1 347.793 1457.66 Q345.988 1461.2 345.988 1468.33 Q345.988 1475.44 347.793 1479.01 Q349.622 1482.55 353.233 1482.55 Q356.867 1482.55 358.673 1479.01 Q360.501 1475.44 360.501 1468.33 Q360.501 1461.2 358.673 1457.66 Q356.867 1454.1 353.233 1454.1 M353.233 1450.39 Q359.043 1450.39 362.099 1455 Q365.177 1459.58 365.177 1468.33 Q365.177 1477.06 362.099 1481.67 Q359.043 1486.25 353.233 1486.25 Q347.423 1486.25 344.344 1481.67 Q341.289 1477.06 341.289 1468.33 Q341.289 1459.58 344.344 1455 Q347.423 1450.39 353.233 1450.39 Z" fill="#000000" fill-rule="nonzero" fill-opacity="1" /><path clip-path="url(#clip480)" d="M751.427 1455.09 L739.622 1473.54 L751.427 1473.54 L751.427 1455.09 M750.201 1451.02 L756.08 1451.02 L756.08 1473.54 L761.011 1473.54 L761.011 1477.43 L756.08 1477.43 L756.08 1485.58 L751.427 1485.58 L751.427 1477.43 L735.826 1477.43 L735.826 1472.92 L750.201 1451.02 Z" fill="#000000" fill-rule="nonzero" fill-opacity="1" /><path clip-path="url(#clip480)" d="M778.742 1454.1 Q775.131 1454.1 773.302 1457.66 Q771.497 1461.2 771.497 1468.33 Q771.497 1475.44 773.302 1479.01 Q775.131 1482.55 778.742 1482.55 Q782.376 1482.55 784.182 1479.01 Q786.011 1475.44 786.011 1468.33 Q786.011 1461.2 784.182 1457.66 Q782.376 1454.1 778.742 1454.1 M778.742 1450.39 Q784.552 1450.39 787.608 1455 Q790.686 1459.58 790.686 1468.33 Q790.686 1477.06 787.608 1481.67 Q784.552 1486.25 778.742 1486.25 Q772.932 1486.25 769.853 1481.67 Q766.798 1477.06 766.798 1468.33 Q766.798 1459.58 769.853 1455 Q772.932 1450.39 778.742 1450.39 Z" fill="#000000" fill-rule="nonzero" fill-opacity="1" /><path clip-path="url(#clip480)" d="M808.904 1454.1 Q805.293 1454.1 803.464 1457.66 Q801.659 1461.2 801.659 1468.33 Q801.659 1475.44 803.464 1479.01 Q805.293 1482.55 808.904 1482.55 Q812.538 1482.55 814.344 1479.01 Q816.172 1475.44 816.172 1468.33 Q816.172 1461.2 814.344 1457.66 Q812.538 1454.1 808.904 1454.1 M808.904 1450.39 Q814.714 1450.39 817.77 1455 Q820.848 1459.58 820.848 1468.33 Q820.848 1477.06 817.77 1481.67 Q814.714 1486.25 808.904 1486.25 Q803.094 1486.25 800.015 1481.67 Q796.96 1477.06 796.96 1468.33 Q796.96 1459.58 800.015 1455 Q803.094 1450.39 808.904 1450.39 Z" fill="#000000" fill-rule="nonzero" fill-opacity="1" /><path clip-path="url(#clip480)" d="M1203.75 1466.44 Q1200.61 1466.44 1198.75 1468.59 Q1196.92 1470.74 1196.92 1474.49 Q1196.92 1478.22 1198.75 1480.39 Q1200.61 1482.55 1203.75 1482.55 Q1206.9 1482.55 1208.73 1480.39 Q1210.58 1478.22 1210.58 1474.49 Q1210.58 1470.74 1208.73 1468.59 Q1206.9 1466.44 1203.75 1466.44 M1213.04 1451.78 L1213.04 1456.04 Q1211.28 1455.21 1209.47 1454.77 Q1207.69 1454.33 1205.93 1454.33 Q1201.3 1454.33 1198.85 1457.45 Q1196.42 1460.58 1196.07 1466.9 Q1197.43 1464.89 1199.49 1463.82 Q1201.55 1462.73 1204.03 1462.73 Q1209.24 1462.73 1212.25 1465.9 Q1215.28 1469.05 1215.28 1474.49 Q1215.28 1479.82 1212.13 1483.03 Q1208.98 1486.25 1203.75 1486.25 Q1197.76 1486.25 1194.59 1481.67 Q1191.42 1477.06 1191.42 1468.33 Q1191.42 1460.14 1195.3 1455.28 Q1199.19 1450.39 1205.74 1450.39 Q1207.5 1450.39 1209.29 1450.74 Q1211.09 1451.09 1213.04 1451.78 Z" fill="#000000" fill-rule="nonzero" fill-opacity="1" /><path clip-path="url(#clip480)" d="M1233.34 1454.1 Q1229.73 1454.1 1227.9 1457.66 Q1226.09 1461.2 1226.09 1468.33 Q1226.09 1475.44 1227.9 1479.01 Q1229.73 1482.55 1233.34 1482.55 Q1236.97 1482.55 1238.78 1479.01 Q1240.61 1475.44 1240.61 1468.33 Q1240.61 1461.2 1238.78 1457.66 Q1236.97 1454.1 1233.34 1454.1 M1233.34 1450.39 Q1239.15 1450.39 1242.2 1455 Q1245.28 1459.58 1245.28 1468.33 Q1245.28 1477.06 1242.2 1481.67 Q1239.15 1486.25 1233.34 1486.25 Q1227.53 1486.25 1224.45 1481.67 Q1221.39 1477.06 1221.39 1468.33 Q1221.39 1459.58 1224.45 1455 Q1227.53 1450.39 1233.34 1450.39 Z" fill="#000000" fill-rule="nonzero" fill-opacity="1" /><path clip-path="url(#clip480)" d="M1263.5 1454.1 Q1259.89 1454.1 1258.06 1457.66 Q1256.25 1461.2 1256.25 1468.33 Q1256.25 1475.44 1258.06 1479.01 Q1259.89 1482.55 1263.5 1482.55 Q1267.13 1482.55 1268.94 1479.01 Q1270.77 1475.44 1270.77 1468.33 Q1270.77 1461.2 1268.94 1457.66 Q1267.13 1454.1 1263.5 1454.1 M1263.5 1450.39 Q1269.31 1450.39 1272.36 1455 Q1275.44 1459.58 1275.44 1468.33 Q1275.44 1477.06 1272.36 1481.67 Q1269.31 1486.25 1263.5 1486.25 Q1257.69 1486.25 1254.61 1481.67 Q1251.55 1477.06 1251.55 1468.33 Q1251.55 1459.58 1254.61 1455 Q1257.69 1450.39 1263.5 1450.39 Z" fill="#000000" fill-rule="nonzero" fill-opacity="1" /><path clip-path="url(#clip480)" d="M1658.31 1469.17 Q1654.98 1469.17 1653.06 1470.95 Q1651.16 1472.73 1651.16 1475.86 Q1651.16 1478.98 1653.06 1480.77 Q1654.98 1482.55 1658.31 1482.55 Q1661.65 1482.55 1663.57 1480.77 Q1665.49 1478.96 1665.49 1475.86 Q1665.49 1472.73 1663.57 1470.95 Q1661.67 1469.17 1658.31 1469.17 M1653.64 1467.18 Q1650.63 1466.44 1648.94 1464.38 Q1647.27 1462.32 1647.27 1459.35 Q1647.27 1455.21 1650.21 1452.8 Q1653.17 1450.39 1658.31 1450.39 Q1663.48 1450.39 1666.42 1452.8 Q1669.35 1455.21 1669.35 1459.35 Q1669.35 1462.32 1667.67 1464.38 Q1666 1466.44 1663.01 1467.18 Q1666.39 1467.96 1668.27 1470.26 Q1670.17 1472.55 1670.17 1475.86 Q1670.17 1480.88 1667.09 1483.57 Q1664.03 1486.25 1658.31 1486.25 Q1652.6 1486.25 1649.52 1483.57 Q1646.46 1480.88 1646.46 1475.86 Q1646.46 1472.55 1648.36 1470.26 Q1650.26 1467.96 1653.64 1467.18 M1651.92 1459.79 Q1651.92 1462.48 1653.59 1463.98 Q1655.28 1465.49 1658.31 1465.49 Q1661.32 1465.49 1663.01 1463.98 Q1664.73 1462.48 1664.73 1459.79 Q1664.73 1457.11 1663.01 1455.6 Q1661.32 1454.1 1658.31 1454.1 Q1655.28 1454.1 1653.59 1455.6 Q1651.92 1457.11 1651.92 1459.79 Z" fill="#000000" fill-rule="nonzero" fill-opacity="1" /><path clip-path="url(#clip480)" d="M1688.48 1454.1 Q1684.86 1454.1 1683.04 1457.66 Q1681.23 1461.2 1681.23 1468.33 Q1681.23 1475.44 1683.04 1479.01 Q1684.86 1482.55 1688.48 1482.55 Q1692.11 1482.55 1693.91 1479.01 Q1695.74 1475.44 1695.74 1468.33 Q1695.74 1461.2 1693.91 1457.66 Q1692.11 1454.1 1688.48 1454.1 M1688.48 1450.39 Q1694.29 1450.39 1697.34 1455 Q1700.42 1459.58 1700.42 1468.33 Q1700.42 1477.06 1697.34 1481.67 Q1694.29 1486.25 1688.48 1486.25 Q1682.67 1486.25 1679.59 1481.67 Q1676.53 1477.06 1676.53 1468.33 Q1676.53 1459.58 1679.59 1455 Q1682.67 1450.39 1688.48 1450.39 Z" fill="#000000" fill-rule="nonzero" fill-opacity="1" /><path clip-path="url(#clip480)" d="M1718.64 1454.1 Q1715.03 1454.1 1713.2 1457.66 Q1711.39 1461.2 1711.39 1468.33 Q1711.39 1475.44 1713.2 1479.01 Q1715.03 1482.55 1718.64 1482.55 Q1722.27 1482.55 1724.08 1479.01 Q1725.91 1475.44 1725.91 1468.33 Q1725.91 1461.2 1724.08 1457.66 Q1722.27 1454.1 1718.64 1454.1 M1718.64 1450.39 Q1724.45 1450.39 1727.5 1455 Q1730.58 1459.58 1730.58 1468.33 Q1730.58 1477.06 1727.5 1481.67 Q1724.45 1486.25 1718.64 1486.25 Q1712.83 1486.25 1709.75 1481.67 Q1706.69 1477.06 1706.69 1468.33 Q1706.69 1459.58 1709.75 1455 Q1712.83 1450.39 1718.64 1450.39 Z" fill="#000000" fill-rule="nonzero" fill-opacity="1" /><path clip-path="url(#clip480)" d="M2088.14 1481.64 L2095.78 1481.64 L2095.78 1455.28 L2087.47 1456.95 L2087.47 1452.69 L2095.73 1451.02 L2100.41 1451.02 L2100.41 1481.64 L2108.05 1481.64 L2108.05 1485.58 L2088.14 1485.58 L2088.14 1481.64 Z" fill="#000000" fill-rule="nonzero" fill-opacity="1" /><path clip-path="url(#clip480)" d="M2127.49 1454.1 Q2123.88 1454.1 2122.05 1457.66 Q2120.25 1461.2 2120.25 1468.33 Q2120.25 1475.44 2122.05 1479.01 Q2123.88 1482.55 2127.49 1482.55 Q2131.13 1482.55 2132.93 1479.01 Q2134.76 1475.44 2134.76 1468.33 Q2134.76 1461.2 2132.93 1457.66 Q2131.13 1454.1 2127.49 1454.1 M2127.49 1450.39 Q2133.3 1450.39 2136.36 1455 Q2139.44 1459.58 2139.44 1468.33 Q2139.44 1477.06 2136.36 1481.67 Q2133.3 1486.25 2127.49 1486.25 Q2121.68 1486.25 2118.6 1481.67 Q2115.55 1477.06 2115.55 1468.33 Q2115.55 1459.58 2118.6 1455 Q2121.68 1450.39 2127.49 1450.39 Z" fill="#000000" fill-rule="nonzero" fill-opacity="1" /><path clip-path="url(#clip480)" d="M2157.65 1454.1 Q2154.04 1454.1 2152.21 1457.66 Q2150.41 1461.2 2150.41 1468.33 Q2150.41 1475.44 2152.21 1479.01 Q2154.04 1482.55 2157.65 1482.55 Q2161.29 1482.55 2163.09 1479.01 Q2164.92 1475.44 2164.92 1468.33 Q2164.92 1461.2 2163.09 1457.66 Q2161.29 1454.1 2157.65 1454.1 M2157.65 1450.39 Q2163.46 1450.39 2166.52 1455 Q2169.6 1459.58 2169.6 1468.33 Q2169.6 1477.06 2166.52 1481.67 Q2163.46 1486.25 2157.65 1486.25 Q2151.84 1486.25 2148.76 1481.67 Q2145.71 1477.06 2145.71 1468.33 Q2145.71 1459.58 2148.76 1455 Q2151.84 1450.39 2157.65 1450.39 Z" fill="#000000" fill-rule="nonzero" fill-opacity="1" /><path clip-path="url(#clip480)" d="M2187.81 1454.1 Q2184.2 1454.1 2182.38 1457.66 Q2180.57 1461.2 2180.57 1468.33 Q2180.57 1475.44 2182.38 1479.01 Q2184.2 1482.55 2187.81 1482.55 Q2191.45 1482.55 2193.25 1479.01 Q2195.08 1475.44 2195.08 1468.33 Q2195.08 1461.2 2193.25 1457.66 Q2191.45 1454.1 2187.81 1454.1 M2187.81 1450.39 Q2193.63 1450.39 2196.68 1455 Q2199.76 1459.58 2199.76 1468.33 Q2199.76 1477.06 2196.68 1481.67 Q2193.63 1486.25 2187.81 1486.25 Q2182 1486.25 2178.93 1481.67 Q2175.87 1477.06 2175.87 1468.33 Q2175.87 1459.58 2178.93 1455 Q2182 1450.39 2187.81 1450.39 Z" fill="#000000" fill-rule="nonzero" fill-opacity="1" /><path clip-path="url(#clip480)" d="M1051.36 1520.52 L1091.56 1520.52 L1091.56 1525.93 L1074.69 1525.93 L1074.69 1568.04 L1068.23 1568.04 L1068.23 1525.93 L1051.36 1525.93 L1051.36 1520.52 Z" fill="#000000" fill-rule="nonzero" fill-opacity="1" /><path clip-path="url(#clip480)" d="M1116.93 1548.76 L1116.93 1551.62 L1090 1551.62 Q1090.39 1557.67 1093.63 1560.85 Q1096.91 1564 1102.74 1564 Q1106.11 1564 1109.26 1563.17 Q1112.44 1562.35 1115.56 1560.69 L1115.56 1566.23 Q1112.41 1567.57 1109.1 1568.27 Q1105.79 1568.97 1102.39 1568.97 Q1093.86 1568.97 1088.86 1564 Q1083.89 1559.04 1083.89 1550.57 Q1083.89 1541.82 1088.6 1536.69 Q1093.35 1531.54 1101.37 1531.54 Q1108.56 1531.54 1112.73 1536.18 Q1116.93 1540.8 1116.93 1548.76 M1111.07 1547.04 Q1111.01 1542.23 1108.37 1539.37 Q1105.76 1536.5 1101.43 1536.5 Q1096.53 1536.5 1093.57 1539.27 Q1090.64 1542.04 1090.2 1547.07 L1111.07 1547.04 Z" fill="#000000" fill-rule="nonzero" fill-opacity="1" /><path clip-path="url(#clip480)" d="M1147.2 1537.87 Q1146.21 1537.3 1145.04 1537.04 Q1143.89 1536.76 1142.49 1536.76 Q1137.52 1536.76 1134.85 1540 Q1132.21 1543.22 1132.21 1549.27 L1132.21 1568.04 L1126.32 1568.04 L1126.32 1532.4 L1132.21 1532.4 L1132.21 1537.93 Q1134.05 1534.69 1137.02 1533.13 Q1139.98 1531.54 1144.21 1531.54 Q1144.81 1531.54 1145.55 1531.63 Q1146.28 1531.7 1147.17 1531.85 L1147.2 1537.87 Z" fill="#000000" fill-rule="nonzero" fill-opacity="1" /><path clip-path="url(#clip480)" d="M1179.95 1539.24 Q1182.15 1535.29 1185.2 1533.41 Q1188.26 1531.54 1192.4 1531.54 Q1197.97 1531.54 1200.99 1535.45 Q1204.01 1539.33 1204.01 1546.53 L1204.01 1568.04 L1198.13 1568.04 L1198.13 1546.72 Q1198.13 1541.59 1196.31 1539.11 Q1194.5 1536.63 1190.77 1536.63 Q1186.22 1536.63 1183.58 1539.65 Q1180.94 1542.68 1180.94 1547.9 L1180.94 1568.04 L1175.05 1568.04 L1175.05 1546.72 Q1175.05 1541.56 1173.24 1539.11 Q1171.42 1536.63 1167.63 1536.63 Q1163.15 1536.63 1160.5 1539.68 Q1157.86 1542.71 1157.86 1547.9 L1157.86 1568.04 L1151.97 1568.04 L1151.97 1532.4 L1157.86 1532.4 L1157.86 1537.93 Q1159.87 1534.66 1162.67 1533.1 Q1165.47 1531.54 1169.32 1531.54 Q1173.2 1531.54 1175.91 1533.51 Q1178.65 1535.48 1179.95 1539.24 Z" fill="#000000" fill-rule="nonzero" fill-opacity="1" /><path clip-path="url(#clip480)" d="M1215.7 1532.4 L1221.55 1532.4 L1221.55 1568.04 L1215.7 1568.04 L1215.7 1532.4 M1215.7 1518.52 L1221.55 1518.52 L1221.55 1525.93 L1215.7 1525.93 L1215.7 1518.52 Z" fill="#000000" fill-rule="nonzero" fill-opacity="1" /><path clip-path="url(#clip480)" d="M1263.44 1546.53 L1263.44 1568.04 L1257.58 1568.04 L1257.58 1546.72 Q1257.58 1541.66 1255.61 1539.14 Q1253.63 1536.63 1249.69 1536.63 Q1244.95 1536.63 1242.21 1539.65 Q1239.47 1542.68 1239.47 1547.9 L1239.47 1568.04 L1233.58 1568.04 L1233.58 1532.4 L1239.47 1532.4 L1239.47 1537.93 Q1241.57 1534.72 1244.4 1533.13 Q1247.27 1531.54 1250.99 1531.54 Q1257.14 1531.54 1260.29 1535.36 Q1263.44 1539.14 1263.44 1546.53 Z" fill="#000000" fill-rule="nonzero" fill-opacity="1" /><path clip-path="url(#clip480)" d="M1291.32 1550.12 Q1284.22 1550.12 1281.48 1551.75 Q1278.75 1553.37 1278.75 1557.29 Q1278.75 1560.4 1280.78 1562.25 Q1282.85 1564.07 1286.39 1564.07 Q1291.26 1564.07 1294.18 1560.63 Q1297.14 1557.16 1297.14 1551.43 L1297.14 1550.12 L1291.32 1550.12 M1303 1547.71 L1303 1568.04 L1297.14 1568.04 L1297.14 1562.63 Q1295.14 1565.88 1292.15 1567.44 Q1289.16 1568.97 1284.83 1568.97 Q1279.35 1568.97 1276.11 1565.91 Q1272.89 1562.82 1272.89 1557.67 Q1272.89 1551.65 1276.9 1548.6 Q1280.94 1545.54 1288.93 1545.54 L1297.14 1545.54 L1297.14 1544.97 Q1297.14 1540.93 1294.47 1538.73 Q1291.83 1536.5 1287.02 1536.5 Q1283.97 1536.5 1281.07 1537.23 Q1278.17 1537.97 1275.5 1539.43 L1275.5 1534.02 Q1278.72 1532.78 1281.74 1532.17 Q1284.76 1531.54 1287.63 1531.54 Q1295.36 1531.54 1299.18 1535.55 Q1303 1539.56 1303 1547.71 Z" fill="#000000" fill-rule="nonzero" fill-opacity="1" /><path clip-path="url(#clip480)" d="M1315.06 1518.52 L1320.92 1518.52 L1320.92 1568.04 L1315.06 1568.04 L1315.06 1518.52 Z" fill="#000000" fill-rule="nonzero" fill-opacity="1" /><path clip-path="url(#clip480)" d="M1359.56 1562.7 L1359.56 1581.6 L1353.67 1581.6 L1353.67 1532.4 L1359.56 1532.4 L1359.56 1537.81 Q1361.41 1534.62 1364.21 1533.1 Q1367.04 1531.54 1370.95 1531.54 Q1377.45 1531.54 1381.49 1536.69 Q1385.56 1541.85 1385.56 1550.25 Q1385.56 1558.65 1381.49 1563.81 Q1377.45 1568.97 1370.95 1568.97 Q1367.04 1568.97 1364.21 1567.44 Q1361.41 1565.88 1359.56 1562.7 M1379.48 1550.25 Q1379.48 1543.79 1376.81 1540.13 Q1374.17 1536.44 1369.52 1536.44 Q1364.88 1536.44 1362.2 1540.13 Q1359.56 1543.79 1359.56 1550.25 Q1359.56 1556.71 1362.2 1560.4 Q1364.88 1564.07 1369.52 1564.07 Q1374.17 1564.07 1376.81 1560.4 Q1379.48 1556.71 1379.48 1550.25 Z" fill="#000000" fill-rule="nonzero" fill-opacity="1" /><path clip-path="url(#clip480)" d="M1415.93 1537.87 Q1414.94 1537.3 1413.76 1537.04 Q1412.62 1536.76 1411.22 1536.76 Q1406.25 1536.76 1403.58 1540 Q1400.94 1543.22 1400.94 1549.27 L1400.94 1568.04 L1395.05 1568.04 L1395.05 1532.4 L1400.94 1532.4 L1400.94 1537.93 Q1402.78 1534.69 1405.74 1533.13 Q1408.7 1531.54 1412.94 1531.54 Q1413.54 1531.54 1414.27 1531.63 Q1415.01 1531.7 1415.9 1531.85 L1415.93 1537.87 Z" fill="#000000" fill-rule="nonzero" fill-opacity="1" /><path clip-path="url(#clip480)" d="M1422.07 1532.4 L1427.93 1532.4 L1427.93 1568.04 L1422.07 1568.04 L1422.07 1532.4 M1422.07 1518.52 L1427.93 1518.52 L1427.93 1525.93 L1422.07 1525.93 L1422.07 1518.52 Z" fill="#000000" fill-rule="nonzero" fill-opacity="1" /><path clip-path="url(#clip480)" d="M1465.84 1533.76 L1465.84 1539.24 Q1463.35 1537.87 1460.84 1537.2 Q1458.36 1536.5 1455.81 1536.5 Q1450.11 1536.5 1446.96 1540.13 Q1443.81 1543.73 1443.81 1550.25 Q1443.81 1556.78 1446.96 1560.4 Q1450.11 1564 1455.81 1564 Q1458.36 1564 1460.84 1563.33 Q1463.35 1562.63 1465.84 1561.26 L1465.84 1566.68 Q1463.38 1567.82 1460.74 1568.39 Q1458.13 1568.97 1455.17 1568.97 Q1447.12 1568.97 1442.38 1563.91 Q1437.64 1558.85 1437.64 1550.25 Q1437.64 1541.53 1442.41 1536.53 Q1447.22 1531.54 1455.55 1531.54 Q1458.26 1531.54 1460.84 1532.11 Q1463.42 1532.65 1465.84 1533.76 Z" fill="#000000" fill-rule="nonzero" fill-opacity="1" /><path clip-path="url(#clip480)" d="M1506.51 1548.76 L1506.51 1551.62 L1479.59 1551.62 Q1479.97 1557.67 1483.21 1560.85 Q1486.49 1564 1492.32 1564 Q1495.69 1564 1498.84 1563.17 Q1502.02 1562.35 1505.14 1560.69 L1505.14 1566.23 Q1501.99 1567.57 1498.68 1568.27 Q1495.37 1568.97 1491.97 1568.97 Q1483.44 1568.97 1478.44 1564 Q1473.47 1559.04 1473.47 1550.57 Q1473.47 1541.82 1478.19 1536.69 Q1482.93 1531.54 1490.95 1531.54 Q1498.14 1531.54 1502.31 1536.18 Q1506.51 1540.8 1506.51 1548.76 M1500.66 1547.04 Q1500.59 1542.23 1497.95 1539.37 Q1495.34 1536.5 1491.01 1536.5 Q1486.11 1536.5 1483.15 1539.27 Q1480.22 1542.04 1479.78 1547.07 L1500.66 1547.04 Z" fill="#000000" fill-rule="nonzero" fill-opacity="1" /><polyline clip-path="url(#clip480)" style="stroke:#000000; stroke-linecap:round; stroke-linejoin:round; stroke-width:4; stroke-opacity:1; fill:none" points="205.121,1423.18 205.121,106.192 "/>
<polyline clip-path="url(#clip480)" style="stroke:#000000; stroke-linecap:round; stroke-linejoin:round; stroke-width:4; stroke-opacity:1; fill:none" points="205.121,1423.18 224.019,1423.18 "/>
<polyline clip-path="url(#clip480)" style="stroke:#000000; stroke-linecap:round; stroke-linejoin:round; stroke-width:4; stroke-opacity:1; fill:none" points="205.121,1093.93 224.019,1093.93 "/>
<polyline clip-path="url(#clip480)" style="stroke:#000000; stroke-linecap:round; stroke-linejoin:round; stroke-width:4; stroke-opacity:1; fill:none" points="205.121,764.686 224.019,764.686 "/>
<polyline clip-path="url(#clip480)" style="stroke:#000000; stroke-linecap:round; stroke-linejoin:round; stroke-width:4; stroke-opacity:1; fill:none" points="205.121,435.439 224.019,435.439 "/>
<polyline clip-path="url(#clip480)" style="stroke:#000000; stroke-linecap:round; stroke-linejoin:round; stroke-width:4; stroke-opacity:1; fill:none" points="205.121,106.192 224.019,106.192 "/>
<path clip-path="url(#clip480)" d="M157.177 1408.98 Q153.566 1408.98 151.737 1412.54 Q149.931 1416.08 149.931 1423.21 Q149.931 1430.32 151.737 1433.89 Q153.566 1437.43 157.177 1437.43 Q160.811 1437.43 162.616 1433.89 Q164.445 1430.32 164.445 1423.21 Q164.445 1416.08 162.616 1412.54 Q160.811 1408.98 157.177 1408.98 M157.177 1405.27 Q162.987 1405.27 166.042 1409.88 Q169.121 1414.46 169.121 1423.21 Q169.121 1431.94 166.042 1436.55 Q162.987 1441.13 157.177 1441.13 Q151.366 1441.13 148.288 1436.55 Q145.232 1431.94 145.232 1423.21 Q145.232 1414.46 148.288 1409.88 Q151.366 1405.27 157.177 1405.27 Z" fill="#000000" fill-rule="nonzero" fill-opacity="1" /><path clip-path="url(#clip480)" d="M117.825 1107.28 L125.464 1107.28 L125.464 1080.91 L117.154 1082.58 L117.154 1078.32 L125.418 1076.65 L130.093 1076.65 L130.093 1107.28 L137.732 1107.28 L137.732 1111.21 L117.825 1111.21 L117.825 1107.28 Z" fill="#000000" fill-rule="nonzero" fill-opacity="1" /><path clip-path="url(#clip480)" d="M157.177 1079.73 Q153.566 1079.73 151.737 1083.3 Q149.931 1086.84 149.931 1093.97 Q149.931 1101.07 151.737 1104.64 Q153.566 1108.18 157.177 1108.18 Q160.811 1108.18 162.616 1104.64 Q164.445 1101.07 164.445 1093.97 Q164.445 1086.84 162.616 1083.3 Q160.811 1079.73 157.177 1079.73 M157.177 1076.03 Q162.987 1076.03 166.042 1080.63 Q169.121 1085.22 169.121 1093.97 Q169.121 1102.69 166.042 1107.3 Q162.987 1111.88 157.177 1111.88 Q151.366 1111.88 148.288 1107.3 Q145.232 1102.69 145.232 1093.97 Q145.232 1085.22 148.288 1080.63 Q151.366 1076.03 157.177 1076.03 Z" fill="#000000" fill-rule="nonzero" fill-opacity="1" /><path clip-path="url(#clip480)" d="M121.043 778.031 L137.362 778.031 L137.362 781.966 L115.418 781.966 L115.418 778.031 Q118.08 775.276 122.663 770.647 Q127.269 765.994 128.45 764.651 Q130.695 762.128 131.575 760.392 Q132.478 758.633 132.478 756.943 Q132.478 754.188 130.533 752.452 Q128.612 750.716 125.51 750.716 Q123.311 750.716 120.857 751.48 Q118.427 752.244 115.649 753.795 L115.649 749.073 Q118.473 747.938 120.927 747.36 Q123.38 746.781 125.418 746.781 Q130.788 746.781 133.982 749.466 Q137.177 752.151 137.177 756.642 Q137.177 758.772 136.367 760.693 Q135.579 762.591 133.473 765.184 Q132.894 765.855 129.792 769.073 Q126.691 772.267 121.043 778.031 Z" fill="#000000" fill-rule="nonzero" fill-opacity="1" /><path clip-path="url(#clip480)" d="M157.177 750.485 Q153.566 750.485 151.737 754.049 Q149.931 757.591 149.931 764.721 Q149.931 771.827 151.737 775.392 Q153.566 778.934 157.177 778.934 Q160.811 778.934 162.616 775.392 Q164.445 771.827 164.445 764.721 Q164.445 757.591 162.616 754.049 Q160.811 750.485 157.177 750.485 M157.177 746.781 Q162.987 746.781 166.042 751.387 Q169.121 755.971 169.121 764.721 Q169.121 773.448 166.042 778.054 Q162.987 782.637 157.177 782.637 Q151.366 782.637 148.288 778.054 Q145.232 773.448 145.232 764.721 Q145.232 755.971 148.288 751.387 Q151.366 746.781 157.177 746.781 Z" fill="#000000" fill-rule="nonzero" fill-opacity="1" /><path clip-path="url(#clip480)" d="M131.181 434.085 Q134.538 434.802 136.413 437.071 Q138.311 439.339 138.311 442.673 Q138.311 447.789 134.792 450.589 Q131.274 453.39 124.793 453.39 Q122.617 453.39 120.302 452.951 Q118.01 452.534 115.556 451.677 L115.556 447.164 Q117.501 448.298 119.816 448.876 Q122.13 449.455 124.654 449.455 Q129.052 449.455 131.343 447.719 Q133.658 445.983 133.658 442.673 Q133.658 439.617 131.505 437.904 Q129.376 436.168 125.556 436.168 L121.529 436.168 L121.529 432.326 L125.742 432.326 Q129.191 432.326 131.019 430.96 Q132.848 429.571 132.848 426.978 Q132.848 424.316 130.95 422.904 Q129.075 421.469 125.556 421.469 Q123.635 421.469 121.436 421.886 Q119.237 422.303 116.598 423.182 L116.598 419.016 Q119.26 418.275 121.575 417.904 Q123.913 417.534 125.973 417.534 Q131.297 417.534 134.399 419.965 Q137.501 422.372 137.501 426.492 Q137.501 429.363 135.857 431.353 Q134.214 433.321 131.181 434.085 Z" fill="#000000" fill-rule="nonzero" fill-opacity="1" /><path clip-path="url(#clip480)" d="M157.177 421.238 Q153.566 421.238 151.737 424.803 Q149.931 428.344 149.931 435.474 Q149.931 442.58 151.737 446.145 Q153.566 449.687 157.177 449.687 Q160.811 449.687 162.616 446.145 Q164.445 442.58 164.445 435.474 Q164.445 428.344 162.616 424.803 Q160.811 421.238 157.177 421.238 M157.177 417.534 Q162.987 417.534 166.042 422.141 Q169.121 426.724 169.121 435.474 Q169.121 444.201 166.042 448.807 Q162.987 453.39 157.177 453.39 Q151.366 453.39 148.288 448.807 Q145.232 444.201 145.232 435.474 Q145.232 426.724 148.288 422.141 Q151.366 417.534 157.177 417.534 Z" fill="#000000" fill-rule="nonzero" fill-opacity="1" /><path clip-path="url(#clip480)" d="M129.862 92.9862 L118.056 111.435 L129.862 111.435 L129.862 92.9862 M128.635 88.9121 L134.515 88.9121 L134.515 111.435 L139.445 111.435 L139.445 115.324 L134.515 115.324 L134.515 123.472 L129.862 123.472 L129.862 115.324 L114.26 115.324 L114.26 110.81 L128.635 88.9121 Z" fill="#000000" fill-rule="nonzero" fill-opacity="1" /><path clip-path="url(#clip480)" d="M157.177 91.9908 Q153.566 91.9908 151.737 95.5556 Q149.931 99.0973 149.931 106.227 Q149.931 113.333 151.737 116.898 Q153.566 120.44 157.177 120.44 Q160.811 120.44 162.616 116.898 Q164.445 113.333 164.445 106.227 Q164.445 99.0973 162.616 95.5556 Q160.811 91.9908 157.177 91.9908 M157.177 88.2871 Q162.987 88.2871 166.042 92.8936 Q169.121 97.4769 169.121 106.227 Q169.121 114.954 166.042 119.56 Q162.987 124.143 157.177 124.143 Q151.366 124.143 148.288 119.56 Q145.232 114.954 145.232 106.227 Q145.232 97.4769 148.288 92.8936 Q151.366 88.2871 157.177 88.2871 Z" fill="#000000" fill-rule="nonzero" fill-opacity="1" /><path clip-path="url(#clip480)" d="M20.1444 820.545 L26.9239 820.545 Q23.9002 823.792 22.4043 827.484 Q20.9083 831.144 20.9083 835.282 Q20.9083 843.43 25.9054 847.758 Q30.8707 852.087 40.2919 852.087 Q49.6813 852.087 54.6784 847.758 Q59.6436 843.43 59.6436 835.282 Q59.6436 831.144 58.1477 827.484 Q56.6518 823.792 53.6281 820.545 L60.3439 820.545 Q62.6355 823.919 63.7814 827.706 Q64.9272 831.462 64.9272 835.664 Q64.9272 846.453 58.3387 852.66 Q51.7183 858.867 40.2919 858.867 Q28.8336 858.867 22.2451 852.66 Q15.6248 846.453 15.6248 835.664 Q15.6248 831.399 16.7706 827.643 Q17.8846 823.855 20.1444 820.545 Z" fill="#000000" fill-rule="nonzero" fill-opacity="1" /><path clip-path="url(#clip480)" d="M32.4621 797.056 Q32.4621 801.766 36.1542 804.503 Q39.8145 807.241 46.212 807.241 Q52.6095 807.241 56.3017 804.535 Q59.9619 801.798 59.9619 797.056 Q59.9619 792.377 56.2698 789.64 Q52.5777 786.902 46.212 786.902 Q39.8781 786.902 36.186 789.64 Q32.4621 792.377 32.4621 797.056 M27.4968 797.056 Q27.4968 789.417 32.4621 785.056 Q37.4273 780.696 46.212 780.696 Q54.9649 780.696 59.9619 785.056 Q64.9272 789.417 64.9272 797.056 Q64.9272 804.726 59.9619 809.087 Q54.9649 813.415 46.212 813.415 Q37.4273 813.415 32.4621 809.087 Q27.4968 804.726 27.4968 797.056 Z" fill="#000000" fill-rule="nonzero" fill-opacity="1" /><path clip-path="url(#clip480)" d="M49.9359 771.593 L28.3562 771.593 L28.3562 765.736 L49.7131 765.736 Q54.7739 765.736 57.3202 763.763 Q59.8346 761.79 59.8346 757.843 Q59.8346 753.1 56.8109 750.363 Q53.7872 747.594 48.5673 747.594 L28.3562 747.594 L28.3562 741.738 L64.0042 741.738 L64.0042 747.594 L58.5296 747.594 Q61.7762 749.727 63.3676 752.559 Q64.9272 755.36 64.9272 759.084 Q64.9272 765.227 61.1078 768.41 Q57.2883 771.593 49.9359 771.593 M27.4968 756.856 L27.4968 756.856 Z" fill="#000000" fill-rule="nonzero" fill-opacity="1" /><path clip-path="url(#clip480)" d="M42.4881 700.042 L64.0042 700.042 L64.0042 705.899 L42.679 705.899 Q37.6183 705.899 35.1038 707.872 Q32.5894 709.845 32.5894 713.792 Q32.5894 718.535 35.6131 721.272 Q38.6368 724.009 43.8567 724.009 L64.0042 724.009 L64.0042 729.897 L28.3562 729.897 L28.3562 724.009 L33.8944 724.009 Q30.6797 721.908 29.0883 719.076 Q27.4968 716.211 27.4968 712.487 Q27.4968 706.344 31.3163 703.193 Q35.1038 700.042 42.4881 700.042 Z" fill="#000000" fill-rule="nonzero" fill-opacity="1" /><path clip-path="url(#clip480)" d="M18.2347 682.568 L28.3562 682.568 L28.3562 670.505 L32.9077 670.505 L32.9077 682.568 L52.2594 682.568 Q56.6199 682.568 57.8613 681.391 Q59.1026 680.181 59.1026 676.521 L59.1026 670.505 L64.0042 670.505 L64.0042 676.521 Q64.0042 683.3 61.4897 685.879 Q58.9434 688.457 52.2594 688.457 L32.9077 688.457 L32.9077 692.753 L28.3562 692.753 L28.3562 688.457 L18.2347 688.457 L18.2347 682.568 Z" fill="#000000" fill-rule="nonzero" fill-opacity="1" /><path clip-path="url(#clip480)" d="M661.479 12.6041 Q655.114 12.6041 651.352 17.3494 Q647.619 22.0948 647.619 30.2834 Q647.619 38.4431 651.352 43.1884 Q655.114 47.9338 661.479 47.9338 Q667.845 47.9338 671.549 43.1884 Q675.281 38.4431 675.281 30.2834 Q675.281 22.0948 671.549 17.3494 Q667.845 12.6041 661.479 12.6041 M669.668 51.0588 L677.365 59.4788 L670.305 59.4788 L663.91 52.5634 Q662.955 52.6212 662.434 52.6502 Q661.942 52.6791 661.479 52.6791 Q652.365 52.6791 646.896 46.6028 Q641.456 40.4975 641.456 30.2834 Q641.456 20.0404 646.896 13.964 Q652.365 7.85875 661.479 7.85875 Q670.565 7.85875 676.005 13.964 Q681.445 20.0404 681.445 30.2834 Q681.445 37.8065 678.406 43.1595 Q675.397 48.5125 669.668 51.0588 Z" fill="#000000" fill-rule="nonzero" fill-opacity="1" /><path clip-path="url(#clip480)" d="M708.123 12.6041 Q701.757 12.6041 697.995 17.3494 Q694.263 22.0948 694.263 30.2834 Q694.263 38.4431 697.995 43.1884 Q701.757 47.9338 708.123 47.9338 Q714.488 47.9338 718.192 43.1884 Q721.925 38.4431 721.925 30.2834 Q721.925 22.0948 718.192 17.3494 Q714.488 12.6041 708.123 12.6041 M716.311 51.0588 L724.008 59.4788 L716.948 59.4788 L710.553 52.5634 Q709.598 52.6212 709.077 52.6502 Q708.586 52.6791 708.123 52.6791 Q699.008 52.6791 693.539 46.6028 Q688.1 40.4975 688.1 30.2834 Q688.1 20.0404 693.539 13.964 Q699.008 7.85875 708.123 7.85875 Q717.208 7.85875 722.648 13.964 Q728.088 20.0404 728.088 30.2834 Q728.088 37.8065 725.05 43.1595 Q722.04 48.5125 716.311 51.0588 Z" fill="#000000" fill-rule="nonzero" fill-opacity="1" /><path clip-path="url(#clip480)" d="M754.766 12.6041 Q748.4 12.6041 744.639 17.3494 Q740.906 22.0948 740.906 30.2834 Q740.906 38.4431 744.639 43.1884 Q748.4 47.9338 754.766 47.9338 Q761.132 47.9338 764.835 43.1884 Q768.568 38.4431 768.568 30.2834 Q768.568 22.0948 764.835 17.3494 Q761.132 12.6041 754.766 12.6041 M762.955 51.0588 L770.651 59.4788 L763.591 59.4788 L757.196 52.5634 Q756.242 52.6212 755.721 52.6502 Q755.229 52.6791 754.766 52.6791 Q745.651 52.6791 740.183 46.6028 Q734.743 40.4975 734.743 30.2834 Q734.743 20.0404 740.183 13.964 Q745.651 7.85875 754.766 7.85875 Q763.852 7.85875 769.291 13.964 Q774.731 20.0404 774.731 30.2834 Q774.731 37.8065 771.693 43.1595 Q768.684 48.5125 762.955 51.0588 Z" fill="#000000" fill-rule="nonzero" fill-opacity="1" /><path clip-path="url(#clip480)" d="M799.789 33.2348 L815.385 33.2348 L815.385 37.9801 L799.789 37.9801 L799.789 33.2348 Z" fill="#000000" fill-rule="nonzero" fill-opacity="1" /><path clip-path="url(#clip480)" d="M854.071 51.84 L837.578 8.64 L843.683 8.64 L857.37 45.0113 L871.085 8.64 L877.161 8.64 L860.697 51.84 L854.071 51.84 Z" fill="#000000" fill-rule="nonzero" fill-opacity="1" /><path clip-path="url(#clip480)" d="M883.469 8.64 L889.314 8.64 L889.314 51.84 L883.469 51.84 L883.469 8.64 Z" fill="#000000" fill-rule="nonzero" fill-opacity="1" /><path clip-path="url(#clip480)" d="M898.862 8.64 L905.141 8.64 L915.876 24.6989 L926.669 8.64 L932.948 8.64 L919.059 29.3864 L933.874 51.84 L927.595 51.84 L915.442 33.4663 L903.203 51.84 L896.895 51.84 L912.317 28.7788 L898.862 8.64 Z" fill="#000000" fill-rule="nonzero" fill-opacity="1" /><path clip-path="url(#clip480)" d="M935.668 33.2348 L951.264 33.2348 L951.264 37.9801 L935.668 37.9801 L935.668 33.2348 Z" fill="#000000" fill-rule="nonzero" fill-opacity="1" /><path clip-path="url(#clip480)" d="M983.063 20.677 L983.063 25.6538 Q980.806 24.4096 978.52 23.802 Q976.264 23.1654 973.949 23.1654 Q968.769 23.1654 965.905 26.464 Q963.04 29.7336 963.04 35.6653 Q963.04 41.597 965.905 44.8956 Q968.769 48.1653 973.949 48.1653 Q976.264 48.1653 978.52 47.5576 Q980.806 46.921 983.063 45.6768 L983.063 50.5958 Q980.835 51.6375 978.434 52.1583 Q976.061 52.6791 973.37 52.6791 Q966.049 52.6791 961.738 48.0784 Q957.427 43.4778 957.427 35.6653 Q957.427 27.7371 961.767 23.1943 Q966.136 18.6515 973.717 18.6515 Q976.177 18.6515 978.52 19.1724 Q980.864 19.6642 983.063 20.677 Z" fill="#000000" fill-rule="nonzero" fill-opacity="1" /><path clip-path="url(#clip480)" d="M1004.88 23.1654 Q1000.6 23.1654 998.11 26.5218 Q995.621 29.8494 995.621 35.6653 Q995.621 41.4813 998.081 44.8377 Q1000.57 48.1653 1004.88 48.1653 Q1009.13 48.1653 1011.62 44.8088 Q1014.11 41.4523 1014.11 35.6653 Q1014.11 29.9072 1011.62 26.5508 Q1009.13 23.1654 1004.88 23.1654 M1004.88 18.6515 Q1011.82 18.6515 1015.79 23.1654 Q1019.75 27.6792 1019.75 35.6653 Q1019.75 43.6225 1015.79 48.1653 Q1011.82 52.6791 1004.88 52.6791 Q997.907 52.6791 993.943 48.1653 Q990.008 43.6225 990.008 35.6653 Q990.008 27.6792 993.943 23.1654 Q997.907 18.6515 1004.88 18.6515 Z" fill="#000000" fill-rule="nonzero" fill-opacity="1" /><path clip-path="url(#clip480)" d="M1055.52 32.2799 L1055.52 51.84 L1050.19 51.84 L1050.19 32.4535 Q1050.19 27.8529 1048.4 25.567 Q1046.6 23.2811 1043.02 23.2811 Q1038.71 23.2811 1036.22 26.03 Q1033.73 28.7788 1033.73 33.5241 L1033.73 51.84 L1028.38 51.84 L1028.38 19.4328 L1033.73 19.4328 L1033.73 24.4675 Q1035.64 21.545 1038.21 20.0983 Q1040.82 18.6515 1044.2 18.6515 Q1049.79 18.6515 1052.65 22.1237 Q1055.52 25.567 1055.52 32.2799 Z" fill="#000000" fill-rule="nonzero" fill-opacity="1" /><path clip-path="url(#clip480)" d="M1087.46 24.3517 L1087.46 6.81709 L1092.78 6.81709 L1092.78 51.84 L1087.46 51.84 L1087.46 46.9789 Q1085.78 49.8724 1083.21 51.2902 Q1080.66 52.6791 1077.07 52.6791 Q1071.2 52.6791 1067.5 47.9916 Q1063.82 43.3042 1063.82 35.6653 Q1063.82 28.0265 1067.5 23.339 Q1071.2 18.6515 1077.07 18.6515 Q1080.66 18.6515 1083.21 20.0693 Q1085.78 21.4582 1087.46 24.3517 M1069.32 35.6653 Q1069.32 41.5391 1071.72 44.8956 Q1074.15 48.2231 1078.38 48.2231 Q1082.6 48.2231 1085.03 44.8956 Q1087.46 41.5391 1087.46 35.6653 Q1087.46 29.7915 1085.03 26.464 Q1082.6 23.1075 1078.38 23.1075 Q1074.15 23.1075 1071.72 26.464 Q1069.32 29.7915 1069.32 35.6653 Z" fill="#000000" fill-rule="nonzero" fill-opacity="1" /><path clip-path="url(#clip480)" d="M1104.5 44.4905 L1110.61 44.4905 L1110.61 51.84 L1104.5 51.84 L1104.5 44.4905 Z" fill="#000000" fill-rule="nonzero" fill-opacity="1" /><path clip-path="url(#clip480)" d="M1174.01 11.9675 L1174.01 18.1307 Q1171.05 15.3819 1167.7 14.0219 Q1164.37 12.662 1160.61 12.662 Q1153.2 12.662 1149.27 17.2048 Q1145.33 21.7186 1145.33 30.2834 Q1145.33 38.8192 1149.27 43.362 Q1153.2 47.8759 1160.61 47.8759 Q1164.37 47.8759 1167.7 46.516 Q1171.05 45.156 1174.01 42.4072 L1174.01 48.5125 Q1170.94 50.5958 1167.5 51.6375 Q1164.08 52.6791 1160.26 52.6791 Q1150.45 52.6791 1144.81 46.6896 Q1139.17 40.6711 1139.17 30.2834 Q1139.17 19.8668 1144.81 13.8772 Q1150.45 7.85875 1160.26 7.85875 Q1164.14 7.85875 1167.55 8.90042 Q1171 9.91314 1174.01 11.9675 Z" fill="#000000" fill-rule="nonzero" fill-opacity="1" /><path clip-path="url(#clip480)" d="M1183.03 8.64 L1188.88 8.64 L1188.88 26.3482 L1210.12 26.3482 L1210.12 8.64 L1215.96 8.64 L1215.96 51.84 L1210.12 51.84 L1210.12 31.2672 L1188.88 31.2672 L1188.88 51.84 L1183.03 51.84 L1183.03 8.64 Z" fill="#000000" fill-rule="nonzero" fill-opacity="1" /><path clip-path="url(#clip480)" d="M1227.59 8.64 L1236.3 8.64 L1247.33 38.038 L1258.41 8.64 L1267.12 8.64 L1267.12 51.84 L1261.42 51.84 L1261.42 13.9062 L1250.28 43.5356 L1244.4 43.5356 L1233.26 13.9062 L1233.26 51.84 L1227.59 51.84 L1227.59 8.64 Z" fill="#000000" fill-rule="nonzero" fill-opacity="1" /><path clip-path="url(#clip480)" d="M1278.72 8.64 L1287.43 8.64 L1298.46 38.038 L1309.54 8.64 L1318.25 8.64 L1318.25 51.84 L1312.55 51.84 L1312.55 13.9062 L1301.41 43.5356 L1295.53 43.5356 L1284.39 13.9062 L1284.39 51.84 L1278.72 51.84 L1278.72 8.64 Z" fill="#000000" fill-rule="nonzero" fill-opacity="1" /><path clip-path="url(#clip480)" d="M1326.93 33.2348 L1342.52 33.2348 L1342.52 37.9801 L1326.93 37.9801 L1326.93 33.2348 Z" fill="#000000" fill-rule="nonzero" fill-opacity="1" /><path clip-path="url(#clip480)" d="M1351.23 8.64 L1359.1 8.64 L1378.26 44.7799 L1378.26 8.64 L1383.93 8.64 L1383.93 51.84 L1376.06 51.84 L1356.9 15.7001 L1356.9 51.84 L1351.23 51.84 L1351.23 8.64 Z" fill="#000000" fill-rule="nonzero" fill-opacity="1" /><path clip-path="url(#clip480)" d="M1419.43 10.2314 L1419.43 19.4328 L1430.4 19.4328 L1430.4 23.5705 L1419.43 23.5705 L1419.43 41.163 Q1419.43 45.1271 1420.5 46.2555 Q1421.6 47.384 1424.93 47.384 L1430.4 47.384 L1430.4 51.84 L1424.93 51.84 Q1418.77 51.84 1416.42 49.5541 Q1414.08 47.2393 1414.08 41.163 L1414.08 23.5705 L1410.17 23.5705 L1410.17 19.4328 L1414.08 19.4328 L1414.08 10.2314 L1419.43 10.2314 Z" fill="#000000" fill-rule="nonzero" fill-opacity="1" /><path clip-path="url(#clip480)" d="M1465.12 34.3054 L1465.12 36.9095 L1440.64 36.9095 Q1440.99 42.4072 1443.94 45.3007 Q1446.92 48.1653 1452.22 48.1653 Q1455.28 48.1653 1458.15 47.4129 Q1461.04 46.6606 1463.88 45.156 L1463.88 50.1907 Q1461.01 51.406 1458 52.0425 Q1454.99 52.6791 1451.9 52.6791 Q1444.14 52.6791 1439.6 48.1653 Q1435.09 43.6514 1435.09 35.9547 Q1435.09 27.9975 1439.37 23.339 Q1443.68 18.6515 1450.97 18.6515 Q1457.51 18.6515 1461.3 22.876 Q1465.12 27.0716 1465.12 34.3054 M1459.8 32.7429 Q1459.74 28.3737 1457.34 25.7695 Q1454.96 23.1654 1451.03 23.1654 Q1446.57 23.1654 1443.88 25.6827 Q1441.22 28.2001 1440.82 32.7718 L1459.8 32.7429 Z" fill="#000000" fill-rule="nonzero" fill-opacity="1" /><path clip-path="url(#clip480)" d="M1492.64 24.4096 Q1491.74 23.8888 1490.67 23.6573 Q1489.63 23.3969 1488.36 23.3969 Q1483.84 23.3969 1481.41 26.3482 Q1479.01 29.2707 1479.01 34.7683 L1479.01 51.84 L1473.66 51.84 L1473.66 19.4328 L1479.01 19.4328 L1479.01 24.4675 Q1480.69 21.5161 1483.38 20.0983 Q1486.07 18.6515 1489.92 18.6515 Q1490.47 18.6515 1491.13 18.7383 Q1491.8 18.7962 1492.61 18.9409 L1492.64 24.4096 Z" fill="#000000" fill-rule="nonzero" fill-opacity="1" /><path clip-path="url(#clip480)" d="M1522.41 25.6538 Q1524.41 22.0659 1527.19 20.3587 Q1529.96 18.6515 1533.73 18.6515 Q1538.79 18.6515 1541.54 22.2105 Q1544.29 25.7406 1544.29 32.2799 L1544.29 51.84 L1538.93 51.84 L1538.93 32.4535 Q1538.93 27.795 1537.28 25.5381 Q1535.64 23.2811 1532.25 23.2811 Q1528.11 23.2811 1525.71 26.03 Q1523.31 28.7788 1523.31 33.5241 L1523.31 51.84 L1517.96 51.84 L1517.96 32.4535 Q1517.96 27.7661 1516.31 25.5381 Q1514.66 23.2811 1511.21 23.2811 Q1507.13 23.2811 1504.73 26.0589 Q1502.33 28.8077 1502.33 33.5241 L1502.33 51.84 L1496.98 51.84 L1496.98 19.4328 L1502.33 19.4328 L1502.33 24.4675 Q1504.15 21.4872 1506.7 20.0693 Q1509.25 18.6515 1512.75 18.6515 Q1516.28 18.6515 1518.74 20.4455 Q1521.23 22.2395 1522.41 25.6538 Z" fill="#000000" fill-rule="nonzero" fill-opacity="1" /><path clip-path="url(#clip480)" d="M1554.91 19.4328 L1560.23 19.4328 L1560.23 51.84 L1554.91 51.84 L1554.91 19.4328 M1554.91 6.81709 L1560.23 6.81709 L1560.23 13.559 L1554.91 13.559 L1554.91 6.81709 Z" fill="#000000" fill-rule="nonzero" fill-opacity="1" /><path clip-path="url(#clip480)" d="M1598.31 32.2799 L1598.31 51.84 L1592.98 51.84 L1592.98 32.4535 Q1592.98 27.8529 1591.19 25.567 Q1589.4 23.2811 1585.81 23.2811 Q1581.5 23.2811 1579.01 26.03 Q1576.52 28.7788 1576.52 33.5241 L1576.52 51.84 L1571.17 51.84 L1571.17 19.4328 L1576.52 19.4328 L1576.52 24.4675 Q1578.43 21.545 1581.01 20.0983 Q1583.61 18.6515 1587 18.6515 Q1592.58 18.6515 1595.44 22.1237 Q1598.31 25.567 1598.31 32.2799 Z" fill="#000000" fill-rule="nonzero" fill-opacity="1" /><path clip-path="url(#clip480)" d="M1623.66 35.5496 Q1617.2 35.5496 1614.71 37.0253 Q1612.23 38.501 1612.23 42.06 Q1612.23 44.8956 1614.08 46.5738 Q1615.96 48.2231 1619.17 48.2231 Q1623.6 48.2231 1626.26 45.0981 Q1628.95 41.9442 1628.95 36.7359 L1628.95 35.5496 L1623.66 35.5496 M1634.28 33.3505 L1634.28 51.84 L1628.95 51.84 L1628.95 46.921 Q1627.13 49.8724 1624.41 51.2902 Q1621.69 52.6791 1617.75 52.6791 Q1612.78 52.6791 1609.82 49.9014 Q1606.9 47.0947 1606.9 42.4072 Q1606.9 36.9385 1610.55 34.1607 Q1614.22 31.3829 1621.49 31.3829 L1628.95 31.3829 L1628.95 30.8621 Q1628.95 27.1874 1626.52 25.1908 Q1624.12 23.1654 1619.75 23.1654 Q1616.97 23.1654 1614.34 23.8309 Q1611.71 24.4964 1609.28 25.8274 L1609.28 20.9085 Q1612.2 19.78 1614.95 19.2302 Q1617.7 18.6515 1620.3 18.6515 Q1627.33 18.6515 1630.8 22.2973 Q1634.28 25.9431 1634.28 33.3505 Z" fill="#000000" fill-rule="nonzero" fill-opacity="1" /><path clip-path="url(#clip480)" d="M1645.24 6.81709 L1650.57 6.81709 L1650.57 51.84 L1645.24 51.84 L1645.24 6.81709 Z" fill="#000000" fill-rule="nonzero" fill-opacity="1" /><path clip-path="url(#clip480)" d="M1693.33 6.87496 Q1689.45 13.53 1687.57 20.0404 Q1685.69 26.5508 1685.69 33.2348 Q1685.69 39.9188 1687.57 46.487 Q1689.48 53.0263 1693.33 59.6525 L1688.7 59.6525 Q1684.36 52.8527 1682.19 46.2845 Q1680.05 39.7162 1680.05 33.2348 Q1680.05 26.7823 1682.19 20.2429 Q1684.33 13.7036 1688.7 6.87496 L1693.33 6.87496 Z" fill="#000000" fill-rule="nonzero" fill-opacity="1" /><path clip-path="url(#clip480)" d="M1730.6 32.2799 L1730.6 51.84 L1725.28 51.84 L1725.28 32.4535 Q1725.28 27.8529 1723.48 25.567 Q1721.69 23.2811 1718.1 23.2811 Q1713.79 23.2811 1711.3 26.03 Q1708.81 28.7788 1708.81 33.5241 L1708.81 51.84 L1703.46 51.84 L1703.46 19.4328 L1708.81 19.4328 L1708.81 24.4675 Q1710.72 21.545 1713.3 20.0983 Q1715.9 18.6515 1719.29 18.6515 Q1724.87 18.6515 1727.74 22.1237 Q1730.6 25.567 1730.6 32.2799 Z" fill="#000000" fill-rule="nonzero" fill-opacity="1" /><path clip-path="url(#clip480)" d="M1741.91 24.9304 L1779.01 24.9304 L1779.01 29.7915 L1741.91 29.7915 L1741.91 24.9304 M1741.91 36.7359 L1779.01 36.7359 L1779.01 41.6549 L1741.91 41.6549 L1741.91 36.7359 Z" fill="#000000" fill-rule="nonzero" fill-opacity="1" /><path clip-path="url(#clip480)" d="M1791.68 8.64 L1814.63 8.64 L1814.63 13.559 L1797.03 13.559 L1797.03 24.1492 Q1798.31 23.7152 1799.58 23.5126 Q1800.85 23.2811 1802.13 23.2811 Q1809.36 23.2811 1813.59 27.2452 Q1817.81 31.2093 1817.81 37.9801 Q1817.81 44.9535 1813.47 48.8308 Q1809.13 52.6791 1801.23 52.6791 Q1798.51 52.6791 1795.67 52.2162 Q1792.87 51.7532 1789.86 50.8273 L1789.86 44.9535 Q1792.46 46.3713 1795.24 47.0657 Q1798.02 47.7602 1801.11 47.7602 Q1806.12 47.7602 1809.04 45.1271 Q1811.97 42.494 1811.97 37.9801 Q1811.97 33.4663 1809.04 30.8332 Q1806.12 28.2001 1801.11 28.2001 Q1798.77 28.2001 1796.43 28.7209 Q1794.11 29.2417 1791.68 30.3413 L1791.68 8.64 Z" fill="#000000" fill-rule="nonzero" fill-opacity="1" /><path clip-path="url(#clip480)" d="M1841.83 12.4884 Q1837.31 12.4884 1835.03 16.9444 Q1832.77 21.3714 1832.77 30.2834 Q1832.77 39.1665 1835.03 43.6225 Q1837.31 48.0495 1841.83 48.0495 Q1846.37 48.0495 1848.63 43.6225 Q1850.91 39.1665 1850.91 30.2834 Q1850.91 21.3714 1848.63 16.9444 Q1846.37 12.4884 1841.83 12.4884 M1841.83 7.85875 Q1849.09 7.85875 1852.91 13.6168 Q1856.76 19.346 1856.76 30.2834 Q1856.76 41.1919 1852.91 46.95 Q1849.09 52.6791 1841.83 52.6791 Q1834.56 52.6791 1830.71 46.95 Q1826.9 41.1919 1826.9 30.2834 Q1826.9 19.346 1830.71 13.6168 Q1834.56 7.85875 1841.83 7.85875 Z" fill="#000000" fill-rule="nonzero" fill-opacity="1" /><path clip-path="url(#clip480)" d="M1879.53 12.4884 Q1875.01 12.4884 1872.73 16.9444 Q1870.47 21.3714 1870.47 30.2834 Q1870.47 39.1665 1872.73 43.6225 Q1875.01 48.0495 1879.53 48.0495 Q1884.07 48.0495 1886.33 43.6225 Q1888.61 39.1665 1888.61 30.2834 Q1888.61 21.3714 1886.33 16.9444 Q1884.07 12.4884 1879.53 12.4884 M1879.53 7.85875 Q1886.79 7.85875 1890.61 13.6168 Q1894.46 19.346 1894.46 30.2834 Q1894.46 41.1919 1890.61 46.95 Q1886.79 52.6791 1879.53 52.6791 Q1872.27 52.6791 1868.42 46.95 Q1864.6 41.1919 1864.6 30.2834 Q1864.6 19.346 1868.42 13.6168 Q1872.27 7.85875 1879.53 7.85875 Z" fill="#000000" fill-rule="nonzero" fill-opacity="1" /><path clip-path="url(#clip480)" d="M1903.14 6.87496 L1907.77 6.87496 Q1912.11 13.7036 1914.25 20.2429 Q1916.42 26.7823 1916.42 33.2348 Q1916.42 39.7162 1914.25 46.2845 Q1912.11 52.8527 1907.77 59.6525 L1903.14 59.6525 Q1906.99 53.0263 1908.87 46.487 Q1910.78 39.9188 1910.78 33.2348 Q1910.78 26.5508 1908.87 20.0404 Q1906.99 13.53 1903.14 6.87496 Z" fill="#000000" fill-rule="nonzero" fill-opacity="1" /><path clip-path="url(#clip482)" d="M323.245 1390.26 L323.245 1423.18 L368.754 1423.18 L368.754 1390.26 L323.245 1390.26 L323.245 1390.26  Z" fill="#2e8b57" fill-rule="evenodd" fill-opacity="0.6"/>
<polyline clip-path="url(#clip482)" style="stroke:#000000; stroke-linecap:round; stroke-linejoin:round; stroke-width:4; stroke-opacity:1; fill:none" points="323.245,1390.26 323.245,1423.18 368.754,1423.18 368.754,1390.26 323.245,1390.26 "/>
<path clip-path="url(#clip482)" d="M368.754 1390.26 L368.754 1423.18 L414.263 1423.18 L414.263 1390.26 L368.754 1390.26 L368.754 1390.26  Z" fill="#2e8b57" fill-rule="evenodd" fill-opacity="0.6"/>
<polyline clip-path="url(#clip482)" style="stroke:#000000; stroke-linecap:round; stroke-linejoin:round; stroke-width:4; stroke-opacity:1; fill:none" points="368.754,1390.26 368.754,1423.18 414.263,1423.18 414.263,1390.26 368.754,1390.26 "/>
<path clip-path="url(#clip482)" d="M414.263 1324.41 L414.263 1423.18 L459.772 1423.18 L459.772 1324.41 L414.263 1324.41 L414.263 1324.41  Z" fill="#2e8b57" fill-rule="evenodd" fill-opacity="0.6"/>
<polyline clip-path="url(#clip482)" style="stroke:#000000; stroke-linecap:round; stroke-linejoin:round; stroke-width:4; stroke-opacity:1; fill:none" points="414.263,1324.41 414.263,1423.18 459.772,1423.18 459.772,1324.41 414.263,1324.41 "/>
<path clip-path="url(#clip482)" d="M459.772 1357.33 L459.772 1423.18 L505.282 1423.18 L505.282 1357.33 L459.772 1357.33 L459.772 1357.33  Z" fill="#2e8b57" fill-rule="evenodd" fill-opacity="0.6"/>
<polyline clip-path="url(#clip482)" style="stroke:#000000; stroke-linecap:round; stroke-linejoin:round; stroke-width:4; stroke-opacity:1; fill:none" points="459.772,1357.33 459.772,1423.18 505.282,1423.18 505.282,1357.33 459.772,1357.33 "/>
<path clip-path="url(#clip482)" d="M505.282 1225.63 L505.282 1423.18 L550.791 1423.18 L550.791 1225.63 L505.282 1225.63 L505.282 1225.63  Z" fill="#2e8b57" fill-rule="evenodd" fill-opacity="0.6"/>
<polyline clip-path="url(#clip482)" style="stroke:#000000; stroke-linecap:round; stroke-linejoin:round; stroke-width:4; stroke-opacity:1; fill:none" points="505.282,1225.63 505.282,1423.18 550.791,1423.18 550.791,1225.63 505.282,1225.63 "/>
<path clip-path="url(#clip482)" d="M550.791 1028.08 L550.791 1423.18 L596.3 1423.18 L596.3 1028.08 L550.791 1028.08 L550.791 1028.08  Z" fill="#2e8b57" fill-rule="evenodd" fill-opacity="0.6"/>
<polyline clip-path="url(#clip482)" style="stroke:#000000; stroke-linecap:round; stroke-linejoin:round; stroke-width:4; stroke-opacity:1; fill:none" points="550.791,1028.08 550.791,1423.18 596.3,1423.18 596.3,1028.08 550.791,1028.08 "/>
<path clip-path="url(#clip482)" d="M596.3 863.46 L596.3 1423.18 L641.809 1423.18 L641.809 863.46 L596.3 863.46 L596.3 863.46  Z" fill="#2e8b57" fill-rule="evenodd" fill-opacity="0.6"/>
<polyline clip-path="url(#clip482)" style="stroke:#000000; stroke-linecap:round; stroke-linejoin:round; stroke-width:4; stroke-opacity:1; fill:none" points="596.3,863.46 596.3,1423.18 641.809,1423.18 641.809,863.46 596.3,863.46 "/>
<path clip-path="url(#clip482)" d="M641.809 600.063 L641.809 1423.18 L687.319 1423.18 L687.319 600.063 L641.809 600.063 L641.809 600.063  Z" fill="#2e8b57" fill-rule="evenodd" fill-opacity="0.6"/>
<polyline clip-path="url(#clip482)" style="stroke:#000000; stroke-linecap:round; stroke-linejoin:round; stroke-width:4; stroke-opacity:1; fill:none" points="641.809,600.063 641.809,1423.18 687.319,1423.18 687.319,600.063 641.809,600.063 "/>
<path clip-path="url(#clip482)" d="M687.319 698.837 L687.319 1423.18 L732.828 1423.18 L732.828 698.837 L687.319 698.837 L687.319 698.837  Z" fill="#2e8b57" fill-rule="evenodd" fill-opacity="0.6"/>
<polyline clip-path="url(#clip482)" style="stroke:#000000; stroke-linecap:round; stroke-linejoin:round; stroke-width:4; stroke-opacity:1; fill:none" points="687.319,698.837 687.319,1423.18 732.828,1423.18 732.828,698.837 687.319,698.837 "/>
<path clip-path="url(#clip482)" d="M732.828 303.74 L732.828 1423.18 L778.337 1423.18 L778.337 303.74 L732.828 303.74 L732.828 303.74  Z" fill="#2e8b57" fill-rule="evenodd" fill-opacity="0.6"/>
<polyline clip-path="url(#clip482)" style="stroke:#000000; stroke-linecap:round; stroke-linejoin:round; stroke-width:4; stroke-opacity:1; fill:none" points="732.828,303.74 732.828,1423.18 778.337,1423.18 778.337,303.74 732.828,303.74 "/>
<path clip-path="url(#clip482)" d="M778.337 270.816 L778.337 1423.18 L823.846 1423.18 L823.846 270.816 L778.337 270.816 L778.337 270.816  Z" fill="#2e8b57" fill-rule="evenodd" fill-opacity="0.6"/>
<polyline clip-path="url(#clip482)" style="stroke:#000000; stroke-linecap:round; stroke-linejoin:round; stroke-width:4; stroke-opacity:1; fill:none" points="778.337,270.816 778.337,1423.18 823.846,1423.18 823.846,270.816 778.337,270.816 "/>
<path clip-path="url(#clip482)" d="M823.846 204.966 L823.846 1423.18 L869.355 1423.18 L869.355 204.966 L823.846 204.966 L823.846 204.966  Z" fill="#2e8b57" fill-rule="evenodd" fill-opacity="0.6"/>
<polyline clip-path="url(#clip482)" style="stroke:#000000; stroke-linecap:round; stroke-linejoin:round; stroke-width:4; stroke-opacity:1; fill:none" points="823.846,204.966 823.846,1423.18 869.355,1423.18 869.355,204.966 823.846,204.966 "/>
<path clip-path="url(#clip482)" d="M869.355 270.816 L869.355 1423.18 L914.865 1423.18 L914.865 270.816 L869.355 270.816 L869.355 270.816  Z" fill="#2e8b57" fill-rule="evenodd" fill-opacity="0.6"/>
<polyline clip-path="url(#clip482)" style="stroke:#000000; stroke-linecap:round; stroke-linejoin:round; stroke-width:4; stroke-opacity:1; fill:none" points="869.355,270.816 869.355,1423.18 914.865,1423.18 914.865,270.816 869.355,270.816 "/>
<path clip-path="url(#clip482)" d="M914.865 106.192 L914.865 1423.18 L960.374 1423.18 L960.374 106.192 L914.865 106.192 L914.865 106.192  Z" fill="#2e8b57" fill-rule="evenodd" fill-opacity="0.6"/>
<polyline clip-path="url(#clip482)" style="stroke:#000000; stroke-linecap:round; stroke-linejoin:round; stroke-width:4; stroke-opacity:1; fill:none" points="914.865,106.192 914.865,1423.18 960.374,1423.18 960.374,106.192 914.865,106.192 "/>
<path clip-path="url(#clip482)" d="M960.374 600.063 L960.374 1423.18 L1005.88 1423.18 L1005.88 600.063 L960.374 600.063 L960.374 600.063  Z" fill="#2e8b57" fill-rule="evenodd" fill-opacity="0.6"/>
<polyline clip-path="url(#clip482)" style="stroke:#000000; stroke-linecap:round; stroke-linejoin:round; stroke-width:4; stroke-opacity:1; fill:none" points="960.374,600.063 960.374,1423.18 1005.88,1423.18 1005.88,600.063 960.374,600.063 "/>
<path clip-path="url(#clip482)" d="M1005.88 468.364 L1005.88 1423.18 L1051.39 1423.18 L1051.39 468.364 L1005.88 468.364 L1005.88 468.364  Z" fill="#2e8b57" fill-rule="evenodd" fill-opacity="0.6"/>
<polyline clip-path="url(#clip482)" style="stroke:#000000; stroke-linecap:round; stroke-linejoin:round; stroke-width:4; stroke-opacity:1; fill:none" points="1005.88,468.364 1005.88,1423.18 1051.39,1423.18 1051.39,468.364 1005.88,468.364 "/>
<path clip-path="url(#clip482)" d="M1051.39 303.74 L1051.39 1423.18 L1096.9 1423.18 L1096.9 303.74 L1051.39 303.74 L1051.39 303.74  Z" fill="#2e8b57" fill-rule="evenodd" fill-opacity="0.6"/>
<polyline clip-path="url(#clip482)" style="stroke:#000000; stroke-linecap:round; stroke-linejoin:round; stroke-width:4; stroke-opacity:1; fill:none" points="1051.39,303.74 1051.39,1423.18 1096.9,1423.18 1096.9,303.74 1051.39,303.74 "/>
<path clip-path="url(#clip482)" d="M1096.9 336.665 L1096.9 1423.18 L1142.41 1423.18 L1142.41 336.665 L1096.9 336.665 L1096.9 336.665  Z" fill="#2e8b57" fill-rule="evenodd" fill-opacity="0.6"/>
<polyline clip-path="url(#clip482)" style="stroke:#000000; stroke-linecap:round; stroke-linejoin:round; stroke-width:4; stroke-opacity:1; fill:none" points="1096.9,336.665 1096.9,1423.18 1142.41,1423.18 1142.41,336.665 1096.9,336.665 "/>
<path clip-path="url(#clip482)" d="M1142.41 534.213 L1142.41 1423.18 L1187.92 1423.18 L1187.92 534.213 L1142.41 534.213 L1142.41 534.213  Z" fill="#2e8b57" fill-rule="evenodd" fill-opacity="0.6"/>
<polyline clip-path="url(#clip482)" style="stroke:#000000; stroke-linecap:round; stroke-linejoin:round; stroke-width:4; stroke-opacity:1; fill:none" points="1142.41,534.213 1142.41,1423.18 1187.92,1423.18 1187.92,534.213 1142.41,534.213 "/>
<path clip-path="url(#clip482)" d="M1187.92 1093.93 L1187.92 1423.18 L1233.43 1423.18 L1233.43 1093.93 L1187.92 1093.93 L1187.92 1093.93  Z" fill="#2e8b57" fill-rule="evenodd" fill-opacity="0.6"/>
<polyline clip-path="url(#clip482)" style="stroke:#000000; stroke-linecap:round; stroke-linejoin:round; stroke-width:4; stroke-opacity:1; fill:none" points="1187.92,1093.93 1187.92,1423.18 1233.43,1423.18 1233.43,1093.93 1187.92,1093.93 "/>
<path clip-path="url(#clip482)" d="M1233.43 995.159 L1233.43 1423.18 L1278.94 1423.18 L1278.94 995.159 L1233.43 995.159 L1233.43 995.159  Z" fill="#2e8b57" fill-rule="evenodd" fill-opacity="0.6"/>
<polyline clip-path="url(#clip482)" style="stroke:#000000; stroke-linecap:round; stroke-linejoin:round; stroke-width:4; stroke-opacity:1; fill:none" points="1233.43,995.159 1233.43,1423.18 1278.94,1423.18 1278.94,995.159 1233.43,995.159 "/>
<path clip-path="url(#clip482)" d="M1278.94 1126.86 L1278.94 1423.18 L1324.45 1423.18 L1324.45 1126.86 L1278.94 1126.86 L1278.94 1126.86  Z" fill="#2e8b57" fill-rule="evenodd" fill-opacity="0.6"/>
<polyline clip-path="url(#clip482)" style="stroke:#000000; stroke-linecap:round; stroke-linejoin:round; stroke-width:4; stroke-opacity:1; fill:none" points="1278.94,1126.86 1278.94,1423.18 1324.45,1423.18 1324.45,1126.86 1278.94,1126.86 "/>
<path clip-path="url(#clip482)" d="M1324.45 962.234 L1324.45 1423.18 L1369.96 1423.18 L1369.96 962.234 L1324.45 962.234 L1324.45 962.234  Z" fill="#2e8b57" fill-rule="evenodd" fill-opacity="0.6"/>
<polyline clip-path="url(#clip482)" style="stroke:#000000; stroke-linecap:round; stroke-linejoin:round; stroke-width:4; stroke-opacity:1; fill:none" points="1324.45,962.234 1324.45,1423.18 1369.96,1423.18 1369.96,962.234 1324.45,962.234 "/>
<path clip-path="url(#clip482)" d="M1369.96 1225.63 L1369.96 1423.18 L1415.47 1423.18 L1415.47 1225.63 L1369.96 1225.63 L1369.96 1225.63  Z" fill="#2e8b57" fill-rule="evenodd" fill-opacity="0.6"/>
<polyline clip-path="url(#clip482)" style="stroke:#000000; stroke-linecap:round; stroke-linejoin:round; stroke-width:4; stroke-opacity:1; fill:none" points="1369.96,1225.63 1369.96,1423.18 1415.47,1423.18 1415.47,1225.63 1369.96,1225.63 "/>
<path clip-path="url(#clip482)" d="M1415.47 1225.63 L1415.47 1423.18 L1460.98 1423.18 L1460.98 1225.63 L1415.47 1225.63 L1415.47 1225.63  Z" fill="#2e8b57" fill-rule="evenodd" fill-opacity="0.6"/>
<polyline clip-path="url(#clip482)" style="stroke:#000000; stroke-linecap:round; stroke-linejoin:round; stroke-width:4; stroke-opacity:1; fill:none" points="1415.47,1225.63 1415.47,1423.18 1460.98,1423.18 1460.98,1225.63 1415.47,1225.63 "/>
<path clip-path="url(#clip482)" d="M1460.98 1159.78 L1460.98 1423.18 L1506.48 1423.18 L1506.48 1159.78 L1460.98 1159.78 L1460.98 1159.78  Z" fill="#2e8b57" fill-rule="evenodd" fill-opacity="0.6"/>
<polyline clip-path="url(#clip482)" style="stroke:#000000; stroke-linecap:round; stroke-linejoin:round; stroke-width:4; stroke-opacity:1; fill:none" points="1460.98,1159.78 1460.98,1423.18 1506.48,1423.18 1506.48,1159.78 1460.98,1159.78 "/>
<path clip-path="url(#clip482)" d="M1506.48 1324.41 L1506.48 1423.18 L1551.99 1423.18 L1551.99 1324.41 L1506.48 1324.41 L1506.48 1324.41  Z" fill="#2e8b57" fill-rule="evenodd" fill-opacity="0.6"/>
<polyline clip-path="url(#clip482)" style="stroke:#000000; stroke-linecap:round; stroke-linejoin:round; stroke-width:4; stroke-opacity:1; fill:none" points="1506.48,1324.41 1506.48,1423.18 1551.99,1423.18 1551.99,1324.41 1506.48,1324.41 "/>
<path clip-path="url(#clip482)" d="M1551.99 1324.41 L1551.99 1423.18 L1597.5 1423.18 L1597.5 1324.41 L1551.99 1324.41 L1551.99 1324.41  Z" fill="#2e8b57" fill-rule="evenodd" fill-opacity="0.6"/>
<polyline clip-path="url(#clip482)" style="stroke:#000000; stroke-linecap:round; stroke-linejoin:round; stroke-width:4; stroke-opacity:1; fill:none" points="1551.99,1324.41 1551.99,1423.18 1597.5,1423.18 1597.5,1324.41 1551.99,1324.41 "/>
<path clip-path="url(#clip482)" d="M1597.5 1291.48 L1597.5 1423.18 L1643.01 1423.18 L1643.01 1291.48 L1597.5 1291.48 L1597.5 1291.48  Z" fill="#2e8b57" fill-rule="evenodd" fill-opacity="0.6"/>
<polyline clip-path="url(#clip482)" style="stroke:#000000; stroke-linecap:round; stroke-linejoin:round; stroke-width:4; stroke-opacity:1; fill:none" points="1597.5,1291.48 1597.5,1423.18 1643.01,1423.18 1643.01,1291.48 1597.5,1291.48 "/>
<path clip-path="url(#clip482)" d="M1643.01 1390.26 L1643.01 1423.18 L1688.52 1423.18 L1688.52 1390.26 L1643.01 1390.26 L1643.01 1390.26  Z" fill="#2e8b57" fill-rule="evenodd" fill-opacity="0.6"/>
<polyline clip-path="url(#clip482)" style="stroke:#000000; stroke-linecap:round; stroke-linejoin:round; stroke-width:4; stroke-opacity:1; fill:none" points="1643.01,1390.26 1643.01,1423.18 1688.52,1423.18 1688.52,1390.26 1643.01,1390.26 "/>
<path clip-path="url(#clip482)" d="M1688.52 1390.26 L1688.52 1423.18 L1734.03 1423.18 L1734.03 1390.26 L1688.52 1390.26 L1688.52 1390.26  Z" fill="#2e8b57" fill-rule="evenodd" fill-opacity="0.6"/>
<polyline clip-path="url(#clip482)" style="stroke:#000000; stroke-linecap:round; stroke-linejoin:round; stroke-width:4; stroke-opacity:1; fill:none" points="1688.52,1390.26 1688.52,1423.18 1734.03,1423.18 1734.03,1390.26 1688.52,1390.26 "/>
<path clip-path="url(#clip482)" d="M1734.03 1390.26 L1734.03 1423.18 L1779.54 1423.18 L1779.54 1390.26 L1734.03 1390.26 L1734.03 1390.26  Z" fill="#2e8b57" fill-rule="evenodd" fill-opacity="0.6"/>
<polyline clip-path="url(#clip482)" style="stroke:#000000; stroke-linecap:round; stroke-linejoin:round; stroke-width:4; stroke-opacity:1; fill:none" points="1734.03,1390.26 1734.03,1423.18 1779.54,1423.18 1779.54,1390.26 1734.03,1390.26 "/>
<path clip-path="url(#clip482)" d="M1779.54 1423.18 L1779.54 1423.18 L1825.05 1423.18 L1825.05 1423.18 L1779.54 1423.18 L1779.54 1423.18  Z" fill="#2e8b57" fill-rule="evenodd" fill-opacity="0.6"/>
<polyline clip-path="url(#clip482)" style="stroke:#000000; stroke-linecap:round; stroke-linejoin:round; stroke-width:4; stroke-opacity:1; fill:none" points="1779.54,1423.18 1779.54,1423.18 1825.05,1423.18 1779.54,1423.18 "/>
<path clip-path="url(#clip482)" d="M1825.05 1390.26 L1825.05 1423.18 L1870.56 1423.18 L1870.56 1390.26 L1825.05 1390.26 L1825.05 1390.26  Z" fill="#2e8b57" fill-rule="evenodd" fill-opacity="0.6"/>
<polyline clip-path="url(#clip482)" style="stroke:#000000; stroke-linecap:round; stroke-linejoin:round; stroke-width:4; stroke-opacity:1; fill:none" points="1825.05,1390.26 1825.05,1423.18 1870.56,1423.18 1870.56,1390.26 1825.05,1390.26 "/>
<path clip-path="url(#clip482)" d="M1870.56 1390.26 L1870.56 1423.18 L1916.07 1423.18 L1916.07 1390.26 L1870.56 1390.26 L1870.56 1390.26  Z" fill="#2e8b57" fill-rule="evenodd" fill-opacity="0.6"/>
<polyline clip-path="url(#clip482)" style="stroke:#000000; stroke-linecap:round; stroke-linejoin:round; stroke-width:4; stroke-opacity:1; fill:none" points="1870.56,1390.26 1870.56,1423.18 1916.07,1423.18 1916.07,1390.26 1870.56,1390.26 "/>
<path clip-path="url(#clip482)" d="M1916.07 1423.18 L1916.07 1423.18 L1961.58 1423.18 L1961.58 1423.18 L1916.07 1423.18 L1916.07 1423.18  Z" fill="#2e8b57" fill-rule="evenodd" fill-opacity="0.6"/>
<polyline clip-path="url(#clip482)" style="stroke:#000000; stroke-linecap:round; stroke-linejoin:round; stroke-width:4; stroke-opacity:1; fill:none" points="1916.07,1423.18 1916.07,1423.18 1961.58,1423.18 1916.07,1423.18 "/>
<path clip-path="url(#clip482)" d="M1961.58 1423.18 L1961.58 1423.18 L2007.09 1423.18 L2007.09 1423.18 L1961.58 1423.18 L1961.58 1423.18  Z" fill="#2e8b57" fill-rule="evenodd" fill-opacity="0.6"/>
<polyline clip-path="url(#clip482)" style="stroke:#000000; stroke-linecap:round; stroke-linejoin:round; stroke-width:4; stroke-opacity:1; fill:none" points="1961.58,1423.18 1961.58,1423.18 2007.09,1423.18 1961.58,1423.18 "/>
<path clip-path="url(#clip482)" d="M2007.09 1423.18 L2007.09 1423.18 L2052.6 1423.18 L2052.6 1423.18 L2007.09 1423.18 L2007.09 1423.18  Z" fill="#2e8b57" fill-rule="evenodd" fill-opacity="0.6"/>
<polyline clip-path="url(#clip482)" style="stroke:#000000; stroke-linecap:round; stroke-linejoin:round; stroke-width:4; stroke-opacity:1; fill:none" points="2007.09,1423.18 2007.09,1423.18 2052.6,1423.18 2007.09,1423.18 "/>
<path clip-path="url(#clip482)" d="M2052.6 1423.18 L2052.6 1423.18 L2098.1 1423.18 L2098.1 1423.18 L2052.6 1423.18 L2052.6 1423.18  Z" fill="#2e8b57" fill-rule="evenodd" fill-opacity="0.6"/>
<polyline clip-path="url(#clip482)" style="stroke:#000000; stroke-linecap:round; stroke-linejoin:round; stroke-width:4; stroke-opacity:1; fill:none" points="2052.6,1423.18 2052.6,1423.18 2098.1,1423.18 2052.6,1423.18 "/>
<path clip-path="url(#clip482)" d="M2098.1 1423.18 L2098.1 1423.18 L2143.61 1423.18 L2143.61 1423.18 L2098.1 1423.18 L2098.1 1423.18  Z" fill="#2e8b57" fill-rule="evenodd" fill-opacity="0.6"/>
<polyline clip-path="url(#clip482)" style="stroke:#000000; stroke-linecap:round; stroke-linejoin:round; stroke-width:4; stroke-opacity:1; fill:none" points="2098.1,1423.18 2098.1,1423.18 2143.61,1423.18 2098.1,1423.18 "/>
<path clip-path="url(#clip482)" d="M2143.61 1423.18 L2143.61 1423.18 L2189.12 1423.18 L2189.12 1423.18 L2143.61 1423.18 L2143.61 1423.18  Z" fill="#2e8b57" fill-rule="evenodd" fill-opacity="0.6"/>
<polyline clip-path="url(#clip482)" style="stroke:#000000; stroke-linecap:round; stroke-linejoin:round; stroke-width:4; stroke-opacity:1; fill:none" points="2143.61,1423.18 2143.61,1423.18 2189.12,1423.18 2143.61,1423.18 "/>
<path clip-path="url(#clip482)" d="M2189.12 1390.26 L2189.12 1423.18 L2234.63 1423.18 L2234.63 1390.26 L2189.12 1390.26 L2189.12 1390.26  Z" fill="#2e8b57" fill-rule="evenodd" fill-opacity="0.6"/>
<polyline clip-path="url(#clip482)" style="stroke:#000000; stroke-linecap:round; stroke-linejoin:round; stroke-width:4; stroke-opacity:1; fill:none" points="2189.12,1390.26 2189.12,1423.18 2234.63,1423.18 2234.63,1390.26 2189.12,1390.26 "/>
<circle clip-path="url(#clip482)" style="fill:#2e8b57; stroke:none; fill-opacity:0" cx="345.999" cy="1390.26" r="2"/>
<circle clip-path="url(#clip482)" style="fill:#2e8b57; stroke:none; fill-opacity:0" cx="391.509" cy="1390.26" r="2"/>
<circle clip-path="url(#clip482)" style="fill:#2e8b57; stroke:none; fill-opacity:0" cx="437.018" cy="1324.41" r="2"/>
<circle clip-path="url(#clip482)" style="fill:#2e8b57; stroke:none; fill-opacity:0" cx="482.527" cy="1357.33" r="2"/>
<circle clip-path="url(#clip482)" style="fill:#2e8b57; stroke:none; fill-opacity:0" cx="528.036" cy="1225.63" r="2"/>
<circle clip-path="url(#clip482)" style="fill:#2e8b57; stroke:none; fill-opacity:0" cx="573.545" cy="1028.08" r="2"/>
<circle clip-path="url(#clip482)" style="fill:#2e8b57; stroke:none; fill-opacity:0" cx="619.055" cy="863.46" r="2"/>
<circle clip-path="url(#clip482)" style="fill:#2e8b57; stroke:none; fill-opacity:0" cx="664.564" cy="600.063" r="2"/>
<circle clip-path="url(#clip482)" style="fill:#2e8b57; stroke:none; fill-opacity:0" cx="710.073" cy="698.837" r="2"/>
<circle clip-path="url(#clip482)" style="fill:#2e8b57; stroke:none; fill-opacity:0" cx="755.582" cy="303.74" r="2"/>
<circle clip-path="url(#clip482)" style="fill:#2e8b57; stroke:none; fill-opacity:0" cx="801.092" cy="270.816" r="2"/>
<circle clip-path="url(#clip482)" style="fill:#2e8b57; stroke:none; fill-opacity:0" cx="846.601" cy="204.966" r="2"/>
<circle clip-path="url(#clip482)" style="fill:#2e8b57; stroke:none; fill-opacity:0" cx="892.11" cy="270.816" r="2"/>
<circle clip-path="url(#clip482)" style="fill:#2e8b57; stroke:none; fill-opacity:0" cx="937.619" cy="106.192" r="2"/>
<circle clip-path="url(#clip482)" style="fill:#2e8b57; stroke:none; fill-opacity:0" cx="983.128" cy="600.063" r="2"/>
<circle clip-path="url(#clip482)" style="fill:#2e8b57; stroke:none; fill-opacity:0" cx="1028.64" cy="468.364" r="2"/>
<circle clip-path="url(#clip482)" style="fill:#2e8b57; stroke:none; fill-opacity:0" cx="1074.15" cy="303.74" r="2"/>
<circle clip-path="url(#clip482)" style="fill:#2e8b57; stroke:none; fill-opacity:0" cx="1119.66" cy="336.665" r="2"/>
<circle clip-path="url(#clip482)" style="fill:#2e8b57; stroke:none; fill-opacity:0" cx="1165.17" cy="534.213" r="2"/>
<circle clip-path="url(#clip482)" style="fill:#2e8b57; stroke:none; fill-opacity:0" cx="1210.67" cy="1093.93" r="2"/>
<circle clip-path="url(#clip482)" style="fill:#2e8b57; stroke:none; fill-opacity:0" cx="1256.18" cy="995.159" r="2"/>
<circle clip-path="url(#clip482)" style="fill:#2e8b57; stroke:none; fill-opacity:0" cx="1301.69" cy="1126.86" r="2"/>
<circle clip-path="url(#clip482)" style="fill:#2e8b57; stroke:none; fill-opacity:0" cx="1347.2" cy="962.234" r="2"/>
<circle clip-path="url(#clip482)" style="fill:#2e8b57; stroke:none; fill-opacity:0" cx="1392.71" cy="1225.63" r="2"/>
<circle clip-path="url(#clip482)" style="fill:#2e8b57; stroke:none; fill-opacity:0" cx="1438.22" cy="1225.63" r="2"/>
<circle clip-path="url(#clip482)" style="fill:#2e8b57; stroke:none; fill-opacity:0" cx="1483.73" cy="1159.78" r="2"/>
<circle clip-path="url(#clip482)" style="fill:#2e8b57; stroke:none; fill-opacity:0" cx="1529.24" cy="1324.41" r="2"/>
<circle clip-path="url(#clip482)" style="fill:#2e8b57; stroke:none; fill-opacity:0" cx="1574.75" cy="1324.41" r="2"/>
<circle clip-path="url(#clip482)" style="fill:#2e8b57; stroke:none; fill-opacity:0" cx="1620.26" cy="1291.48" r="2"/>
<circle clip-path="url(#clip482)" style="fill:#2e8b57; stroke:none; fill-opacity:0" cx="1665.77" cy="1390.26" r="2"/>
<circle clip-path="url(#clip482)" style="fill:#2e8b57; stroke:none; fill-opacity:0" cx="1711.28" cy="1390.26" r="2"/>
<circle clip-path="url(#clip482)" style="fill:#2e8b57; stroke:none; fill-opacity:0" cx="1756.79" cy="1390.26" r="2"/>
<circle clip-path="url(#clip482)" style="fill:#2e8b57; stroke:none; fill-opacity:0" cx="1802.29" cy="1423.18" r="2"/>
<circle clip-path="url(#clip482)" style="fill:#2e8b57; stroke:none; fill-opacity:0" cx="1847.8" cy="1390.26" r="2"/>
<circle clip-path="url(#clip482)" style="fill:#2e8b57; stroke:none; fill-opacity:0" cx="1893.31" cy="1390.26" r="2"/>
<circle clip-path="url(#clip482)" style="fill:#2e8b57; stroke:none; fill-opacity:0" cx="1938.82" cy="1423.18" r="2"/>
<circle clip-path="url(#clip482)" style="fill:#2e8b57; stroke:none; fill-opacity:0" cx="1984.33" cy="1423.18" r="2"/>
<circle clip-path="url(#clip482)" style="fill:#2e8b57; stroke:none; fill-opacity:0" cx="2029.84" cy="1423.18" r="2"/>
<circle clip-path="url(#clip482)" style="fill:#2e8b57; stroke:none; fill-opacity:0" cx="2075.35" cy="1423.18" r="2"/>
<circle clip-path="url(#clip482)" style="fill:#2e8b57; stroke:none; fill-opacity:0" cx="2120.86" cy="1423.18" r="2"/>
<circle clip-path="url(#clip482)" style="fill:#2e8b57; stroke:none; fill-opacity:0" cx="2166.37" cy="1423.18" r="2"/>
<circle clip-path="url(#clip482)" style="fill:#2e8b57; stroke:none; fill-opacity:0" cx="2211.88" cy="1390.26" r="2"/>
<polyline clip-path="url(#clip482)" style="stroke:#ff0000; stroke-linecap:round; stroke-linejoin:round; stroke-width:8; stroke-opacity:1; fill:none" points="1344.97,2740.17 1344.97,-1210.8 "/>
<polyline clip-path="url(#clip482)" style="stroke:#006400; stroke-linecap:round; stroke-linejoin:round; stroke-width:8; stroke-opacity:1; fill:none" stroke-dasharray="32, 20" points="937.115,2740.17 937.115,-1210.8 "/>
<path clip-path="url(#clip480)" d="M1632.33 357.452 L2281.17 357.452 L2281.17 150.092 L1632.33 150.092  Z" fill="#ffffff" fill-rule="evenodd" fill-opacity="1"/>
<polyline clip-path="url(#clip480)" style="stroke:#000000; stroke-linecap:round; stroke-linejoin:round; stroke-width:4; stroke-opacity:1; fill:none" points="1632.33,357.452 2281.17,357.452 2281.17,150.092 1632.33,150.092 1632.33,357.452 "/>
<path clip-path="url(#clip480)" d="M1656.2 222.668 L1799.37 222.668 L1799.37 181.196 L1656.2 181.196 L1656.2 222.668  Z" fill="#2e8b57" fill-rule="evenodd" fill-opacity="0.6"/>
<polyline clip-path="url(#clip480)" style="stroke:#000000; stroke-linecap:round; stroke-linejoin:round; stroke-width:4; stroke-opacity:1; fill:none" points="1656.2,222.668 1799.37,222.668 1799.37,181.196 1656.2,181.196 1656.2,222.668 "/>
<path clip-path="url(#clip480)" d="M1845.48 185.786 L1845.48 190.346 Q1842.82 189.073 1840.46 188.448 Q1838.09 187.823 1835.9 187.823 Q1832.08 187.823 1829.99 189.304 Q1827.93 190.786 1827.93 193.517 Q1827.93 195.809 1829.3 196.99 Q1830.69 198.147 1834.53 198.865 L1837.35 199.443 Q1842.59 200.439 1845.06 202.962 Q1847.56 205.462 1847.56 209.675 Q1847.56 214.698 1844.18 217.29 Q1840.83 219.883 1834.32 219.883 Q1831.87 219.883 1829.09 219.327 Q1826.34 218.772 1823.37 217.684 L1823.37 212.869 Q1826.22 214.466 1828.95 215.277 Q1831.68 216.087 1834.32 216.087 Q1838.33 216.087 1840.5 214.513 Q1842.68 212.939 1842.68 210.022 Q1842.68 207.476 1841.1 206.04 Q1839.55 204.605 1835.99 203.888 L1833.14 203.332 Q1827.91 202.291 1825.57 200.068 Q1823.23 197.846 1823.23 193.888 Q1823.23 189.304 1826.45 186.666 Q1829.69 184.027 1835.36 184.027 Q1837.79 184.027 1840.32 184.467 Q1842.84 184.906 1845.48 185.786 Z" fill="#000000" fill-rule="nonzero" fill-opacity="1" /><path clip-path="url(#clip480)" d="M1854.67 193.286 L1858.93 193.286 L1858.93 219.212 L1854.67 219.212 L1854.67 193.286 M1854.67 183.193 L1858.93 183.193 L1858.93 188.587 L1854.67 188.587 L1854.67 183.193 Z" fill="#000000" fill-rule="nonzero" fill-opacity="1" /><path clip-path="url(#clip480)" d="M1888.03 198.263 Q1889.62 195.392 1891.84 194.027 Q1894.07 192.661 1897.08 192.661 Q1901.13 192.661 1903.33 195.508 Q1905.52 198.332 1905.52 203.564 L1905.52 219.212 L1901.24 219.212 L1901.24 203.703 Q1901.24 199.976 1899.92 198.17 Q1898.6 196.365 1895.9 196.365 Q1892.59 196.365 1890.66 198.564 Q1888.74 200.763 1888.74 204.559 L1888.74 219.212 L1884.46 219.212 L1884.46 203.703 Q1884.46 199.953 1883.14 198.17 Q1881.82 196.365 1879.07 196.365 Q1875.8 196.365 1873.88 198.587 Q1871.96 200.786 1871.96 204.559 L1871.96 219.212 L1867.68 219.212 L1867.68 193.286 L1871.96 193.286 L1871.96 197.314 Q1873.42 194.929 1875.46 193.795 Q1877.49 192.661 1880.29 192.661 Q1883.12 192.661 1885.09 194.096 Q1887.08 195.531 1888.03 198.263 Z" fill="#000000" fill-rule="nonzero" fill-opacity="1" /><path clip-path="url(#clip480)" d="M1913.58 208.98 L1913.58 193.286 L1917.84 193.286 L1917.84 208.818 Q1917.84 212.499 1919.27 214.351 Q1920.71 216.179 1923.58 216.179 Q1927.03 216.179 1929.02 213.98 Q1931.03 211.781 1931.03 207.985 L1931.03 193.286 L1935.29 193.286 L1935.29 219.212 L1931.03 219.212 L1931.03 215.23 Q1929.48 217.591 1927.42 218.749 Q1925.39 219.883 1922.68 219.883 Q1918.21 219.883 1915.9 217.105 Q1913.58 214.327 1913.58 208.98 M1924.3 192.661 L1924.3 192.661 Z" fill="#000000" fill-rule="nonzero" fill-opacity="1" /><path clip-path="url(#clip480)" d="M1944.07 183.193 L1948.33 183.193 L1948.33 219.212 L1944.07 219.212 L1944.07 183.193 Z" fill="#000000" fill-rule="nonzero" fill-opacity="1" /><path clip-path="url(#clip480)" d="M1969.02 206.179 Q1963.86 206.179 1961.87 207.36 Q1959.88 208.54 1959.88 211.388 Q1959.88 213.656 1961.36 214.999 Q1962.86 216.318 1965.43 216.318 Q1968.97 216.318 1971.1 213.818 Q1973.26 211.295 1973.26 207.128 L1973.26 206.179 L1969.02 206.179 M1977.52 204.42 L1977.52 219.212 L1973.26 219.212 L1973.26 215.277 Q1971.8 217.638 1969.62 218.772 Q1967.45 219.883 1964.3 219.883 Q1960.32 219.883 1957.96 217.661 Q1955.62 215.415 1955.62 211.665 Q1955.62 207.29 1958.53 205.068 Q1961.47 202.846 1967.28 202.846 L1973.26 202.846 L1973.26 202.429 Q1973.26 199.49 1971.31 197.892 Q1969.39 196.272 1965.89 196.272 Q1963.67 196.272 1961.57 196.804 Q1959.46 197.337 1957.52 198.402 L1957.52 194.466 Q1959.85 193.564 1962.05 193.124 Q1964.25 192.661 1966.33 192.661 Q1971.96 192.661 1974.74 195.578 Q1977.52 198.494 1977.52 204.42 Z" fill="#000000" fill-rule="nonzero" fill-opacity="1" /><path clip-path="url(#clip480)" d="M1990.5 185.925 L1990.5 193.286 L1999.27 193.286 L1999.27 196.596 L1990.5 196.596 L1990.5 210.67 Q1990.5 213.841 1991.36 214.744 Q1992.24 215.647 1994.9 215.647 L1999.27 215.647 L1999.27 219.212 L1994.9 219.212 Q1989.97 219.212 1988.09 217.383 Q1986.22 215.531 1986.22 210.67 L1986.22 196.596 L1983.09 196.596 L1983.09 193.286 L1986.22 193.286 L1986.22 185.925 L1990.5 185.925 Z" fill="#000000" fill-rule="nonzero" fill-opacity="1" /><path clip-path="url(#clip480)" d="M2027.05 205.184 L2027.05 207.267 L2007.47 207.267 Q2007.75 211.665 2010.11 213.98 Q2012.49 216.272 2016.73 216.272 Q2019.18 216.272 2021.47 215.67 Q2023.79 215.068 2026.06 213.865 L2026.06 217.892 Q2023.77 218.864 2021.36 219.374 Q2018.95 219.883 2016.47 219.883 Q2010.27 219.883 2006.64 216.272 Q2003.02 212.661 2003.02 206.503 Q2003.02 200.138 2006.45 196.411 Q2009.9 192.661 2015.73 192.661 Q2020.96 192.661 2024 196.041 Q2027.05 199.397 2027.05 205.184 M2022.79 203.934 Q2022.75 200.439 2020.83 198.355 Q2018.93 196.272 2015.78 196.272 Q2012.21 196.272 2010.06 198.286 Q2007.93 200.3 2007.61 203.957 L2022.79 203.934 Z" fill="#000000" fill-rule="nonzero" fill-opacity="1" /><path clip-path="url(#clip480)" d="M2051.1 197.221 L2051.1 183.193 L2055.36 183.193 L2055.36 219.212 L2051.1 219.212 L2051.1 215.323 Q2049.76 217.638 2047.7 218.772 Q2045.66 219.883 2042.79 219.883 Q2038.09 219.883 2035.13 216.133 Q2032.19 212.383 2032.19 206.272 Q2032.19 200.161 2035.13 196.411 Q2038.09 192.661 2042.79 192.661 Q2045.66 192.661 2047.7 193.795 Q2049.76 194.906 2051.1 197.221 M2036.59 206.272 Q2036.59 210.971 2038.51 213.656 Q2040.45 216.318 2043.83 216.318 Q2047.21 216.318 2049.16 213.656 Q2051.1 210.971 2051.1 206.272 Q2051.1 201.573 2049.16 198.911 Q2047.21 196.226 2043.83 196.226 Q2040.45 196.226 2038.51 198.911 Q2036.59 201.573 2036.59 206.272 Z" fill="#000000" fill-rule="nonzero" fill-opacity="1" /><polyline clip-path="url(#clip480)" style="stroke:#ff0000; stroke-linecap:round; stroke-linejoin:round; stroke-width:8; stroke-opacity:1; fill:none" points="1656.2,253.772 1799.37,253.772 "/>
<path clip-path="url(#clip480)" d="M1839.25 239.663 Q1834.16 239.663 1831.15 243.459 Q1828.16 247.256 1828.16 253.806 Q1828.16 260.334 1831.15 264.13 Q1834.16 267.927 1839.25 267.927 Q1844.34 267.927 1847.31 264.13 Q1850.29 260.334 1850.29 253.806 Q1850.29 247.256 1847.31 243.459 Q1844.34 239.663 1839.25 239.663 M1839.25 235.867 Q1846.52 235.867 1850.87 240.751 Q1855.22 245.612 1855.22 253.806 Q1855.22 261.978 1850.87 266.862 Q1846.52 271.723 1839.25 271.723 Q1831.96 271.723 1827.59 266.862 Q1823.23 262.001 1823.23 253.806 Q1823.23 245.612 1827.59 240.751 Q1831.96 235.867 1839.25 235.867 Z" fill="#000000" fill-rule="nonzero" fill-opacity="1" /><path clip-path="url(#clip480)" d="M1880.96 258.112 Q1880.96 253.413 1879.02 250.751 Q1877.1 248.066 1873.72 248.066 Q1870.34 248.066 1868.4 250.751 Q1866.47 253.413 1866.47 258.112 Q1866.47 262.811 1868.4 265.496 Q1870.34 268.158 1873.72 268.158 Q1877.1 268.158 1879.02 265.496 Q1880.96 262.811 1880.96 258.112 M1866.47 249.061 Q1867.82 246.746 1869.85 245.635 Q1871.91 244.501 1874.76 244.501 Q1879.48 244.501 1882.42 248.251 Q1885.39 252.001 1885.39 258.112 Q1885.39 264.223 1882.42 267.973 Q1879.48 271.723 1874.76 271.723 Q1871.91 271.723 1869.85 270.612 Q1867.82 269.478 1866.47 267.163 L1866.47 271.052 L1862.19 271.052 L1862.19 235.033 L1866.47 235.033 L1866.47 249.061 Z" fill="#000000" fill-rule="nonzero" fill-opacity="1" /><path clip-path="url(#clip480)" d="M1908.97 245.89 L1908.97 249.918 Q1907.17 248.992 1905.22 248.529 Q1903.28 248.066 1901.2 248.066 Q1898.02 248.066 1896.43 249.038 Q1894.85 250.01 1894.85 251.955 Q1894.85 253.436 1895.99 254.293 Q1897.12 255.126 1900.55 255.89 L1902.01 256.214 Q1906.54 257.186 1908.44 258.968 Q1910.36 260.728 1910.36 263.899 Q1910.36 267.51 1907.49 269.617 Q1904.65 271.723 1899.65 271.723 Q1897.56 271.723 1895.29 271.306 Q1893.05 270.913 1890.55 270.103 L1890.55 265.705 Q1892.91 266.931 1895.2 267.556 Q1897.49 268.158 1899.74 268.158 Q1902.75 268.158 1904.37 267.14 Q1905.99 266.098 1905.99 264.223 Q1905.99 262.487 1904.81 261.561 Q1903.65 260.635 1899.69 259.779 L1898.21 259.431 Q1894.25 258.598 1892.49 256.885 Q1890.73 255.149 1890.73 252.14 Q1890.73 248.482 1893.33 246.492 Q1895.92 244.501 1900.69 244.501 Q1903.05 244.501 1905.13 244.848 Q1907.21 245.195 1908.97 245.89 Z" fill="#000000" fill-rule="nonzero" fill-opacity="1" /><path clip-path="url(#clip480)" d="M1939.32 257.024 L1939.32 259.107 L1919.74 259.107 Q1920.02 263.505 1922.38 265.82 Q1924.76 268.112 1929 268.112 Q1931.45 268.112 1933.74 267.51 Q1936.06 266.908 1938.33 265.705 L1938.33 269.732 Q1936.03 270.704 1933.63 271.214 Q1931.22 271.723 1928.74 271.723 Q1922.54 271.723 1918.9 268.112 Q1915.29 264.501 1915.29 258.343 Q1915.29 251.978 1918.72 248.251 Q1922.17 244.501 1928 244.501 Q1933.23 244.501 1936.27 247.881 Q1939.32 251.237 1939.32 257.024 M1935.06 255.774 Q1935.02 252.279 1933.09 250.195 Q1931.2 248.112 1928.05 248.112 Q1924.48 248.112 1922.33 250.126 Q1920.2 252.14 1919.88 255.797 L1935.06 255.774 Z" fill="#000000" fill-rule="nonzero" fill-opacity="1" /><path clip-path="url(#clip480)" d="M1961.33 249.107 Q1960.62 248.691 1959.76 248.506 Q1958.93 248.297 1957.91 248.297 Q1954.3 248.297 1952.35 250.658 Q1950.43 252.996 1950.43 257.394 L1950.43 271.052 L1946.15 271.052 L1946.15 245.126 L1950.43 245.126 L1950.43 249.154 Q1951.77 246.793 1953.93 245.658 Q1956.08 244.501 1959.16 244.501 Q1959.6 244.501 1960.13 244.57 Q1960.66 244.617 1961.31 244.732 L1961.33 249.107 Z" fill="#000000" fill-rule="nonzero" fill-opacity="1" /><path clip-path="url(#clip480)" d="M1962.75 245.126 L1967.26 245.126 L1975.36 266.885 L1983.46 245.126 L1987.98 245.126 L1978.26 271.052 L1972.47 271.052 L1962.75 245.126 Z" fill="#000000" fill-rule="nonzero" fill-opacity="1" /><path clip-path="url(#clip480)" d="M2016.03 257.024 L2016.03 259.107 L1996.45 259.107 Q1996.73 263.505 1999.09 265.82 Q2001.47 268.112 2005.71 268.112 Q2008.16 268.112 2010.45 267.51 Q2012.77 266.908 2015.04 265.705 L2015.04 269.732 Q2012.75 270.704 2010.34 271.214 Q2007.93 271.723 2005.45 271.723 Q1999.25 271.723 1995.62 268.112 Q1992.01 264.501 1992.01 258.343 Q1992.01 251.978 1995.43 248.251 Q1998.88 244.501 2004.71 244.501 Q2009.95 244.501 2012.98 247.881 Q2016.03 251.237 2016.03 257.024 M2011.77 255.774 Q2011.73 252.279 2009.81 250.195 Q2007.91 248.112 2004.76 248.112 Q2001.2 248.112 1999.04 250.126 Q1996.91 252.14 1996.59 255.797 L2011.77 255.774 Z" fill="#000000" fill-rule="nonzero" fill-opacity="1" /><path clip-path="url(#clip480)" d="M2040.08 249.061 L2040.08 235.033 L2044.34 235.033 L2044.34 271.052 L2040.08 271.052 L2040.08 267.163 Q2038.74 269.478 2036.68 270.612 Q2034.64 271.723 2031.77 271.723 Q2027.08 271.723 2024.11 267.973 Q2021.17 264.223 2021.17 258.112 Q2021.17 252.001 2024.11 248.251 Q2027.08 244.501 2031.77 244.501 Q2034.64 244.501 2036.68 245.635 Q2038.74 246.746 2040.08 249.061 M2025.57 258.112 Q2025.57 262.811 2027.49 265.496 Q2029.44 268.158 2032.82 268.158 Q2036.2 268.158 2038.14 265.496 Q2040.08 262.811 2040.08 258.112 Q2040.08 253.413 2038.14 250.751 Q2036.2 248.066 2032.82 248.066 Q2029.44 248.066 2027.49 250.751 Q2025.57 253.413 2025.57 258.112 Z" fill="#000000" fill-rule="nonzero" fill-opacity="1" /><path clip-path="url(#clip480)" d="M2072.4 237.765 L2072.4 245.126 L2081.17 245.126 L2081.17 248.436 L2072.4 248.436 L2072.4 262.51 Q2072.4 265.681 2073.26 266.584 Q2074.14 267.487 2076.8 267.487 L2081.17 267.487 L2081.17 271.052 L2076.8 271.052 Q2071.87 271.052 2069.99 269.223 Q2068.12 267.371 2068.12 262.51 L2068.12 248.436 L2064.99 248.436 L2064.99 245.126 L2068.12 245.126 L2068.12 237.765 L2072.4 237.765 Z" fill="#000000" fill-rule="nonzero" fill-opacity="1" /><path clip-path="url(#clip480)" d="M2108.95 257.024 L2108.95 259.107 L2089.37 259.107 Q2089.64 263.505 2092.01 265.82 Q2094.39 268.112 2098.63 268.112 Q2101.08 268.112 2103.37 267.51 Q2105.69 266.908 2107.95 265.705 L2107.95 269.732 Q2105.66 270.704 2103.26 271.214 Q2100.85 271.723 2098.37 271.723 Q2092.17 271.723 2088.53 268.112 Q2084.92 264.501 2084.92 258.343 Q2084.92 251.978 2088.35 248.251 Q2091.8 244.501 2097.63 244.501 Q2102.86 244.501 2105.89 247.881 Q2108.95 251.237 2108.95 257.024 M2104.69 255.774 Q2104.64 252.279 2102.72 250.195 Q2100.82 248.112 2097.68 248.112 Q2094.11 248.112 2091.96 250.126 Q2089.83 252.14 2089.51 255.797 L2104.69 255.774 Z" fill="#000000" fill-rule="nonzero" fill-opacity="1" /><path clip-path="url(#clip480)" d="M2130.96 249.107 Q2130.25 248.691 2129.39 248.506 Q2128.56 248.297 2127.54 248.297 Q2123.93 248.297 2121.98 250.658 Q2120.06 252.996 2120.06 257.394 L2120.06 271.052 L2115.78 271.052 L2115.78 245.126 L2120.06 245.126 L2120.06 249.154 Q2121.4 246.793 2123.56 245.658 Q2125.71 244.501 2128.79 244.501 Q2129.23 244.501 2129.76 244.57 Q2130.29 244.617 2130.94 244.732 L2130.96 249.107 Z" fill="#000000" fill-rule="nonzero" fill-opacity="1" /><path clip-path="url(#clip480)" d="M2154.78 250.103 Q2156.38 247.232 2158.6 245.867 Q2160.82 244.501 2163.83 244.501 Q2167.88 244.501 2170.08 247.348 Q2172.28 250.172 2172.28 255.404 L2172.28 271.052 L2168 271.052 L2168 255.543 Q2168 251.816 2166.68 250.01 Q2165.36 248.205 2162.65 248.205 Q2159.34 248.205 2157.42 250.404 Q2155.5 252.603 2155.5 256.399 L2155.5 271.052 L2151.22 271.052 L2151.22 255.543 Q2151.22 251.793 2149.9 250.01 Q2148.58 248.205 2145.82 248.205 Q2142.56 248.205 2140.64 250.427 Q2138.72 252.626 2138.72 256.399 L2138.72 271.052 L2134.44 271.052 L2134.44 245.126 L2138.72 245.126 L2138.72 249.154 Q2140.18 246.769 2142.21 245.635 Q2144.25 244.501 2147.05 244.501 Q2149.88 244.501 2151.84 245.936 Q2153.83 247.371 2154.78 250.103 Z" fill="#000000" fill-rule="nonzero" fill-opacity="1" /><path clip-path="url(#clip480)" d="M2180.78 245.126 L2185.04 245.126 L2185.04 271.052 L2180.78 271.052 L2180.78 245.126 M2180.78 235.033 L2185.04 235.033 L2185.04 240.427 L2180.78 240.427 L2180.78 235.033 Z" fill="#000000" fill-rule="nonzero" fill-opacity="1" /><path clip-path="url(#clip480)" d="M2215.5 255.404 L2215.5 271.052 L2211.24 271.052 L2211.24 255.543 Q2211.24 251.862 2209.81 250.033 Q2208.37 248.205 2205.5 248.205 Q2202.05 248.205 2200.06 250.404 Q2198.07 252.603 2198.07 256.399 L2198.07 271.052 L2193.79 271.052 L2193.79 245.126 L2198.07 245.126 L2198.07 249.154 Q2199.6 246.816 2201.66 245.658 Q2203.74 244.501 2206.45 244.501 Q2210.92 244.501 2213.21 247.279 Q2215.5 250.033 2215.5 255.404 Z" fill="#000000" fill-rule="nonzero" fill-opacity="1" /><path clip-path="url(#clip480)" d="M2235.78 258.019 Q2230.62 258.019 2228.63 259.2 Q2226.63 260.38 2226.63 263.228 Q2226.63 265.496 2228.12 266.839 Q2229.62 268.158 2232.19 268.158 Q2235.73 268.158 2237.86 265.658 Q2240.01 263.135 2240.01 258.968 L2240.01 258.019 L2235.78 258.019 M2244.27 256.26 L2244.27 271.052 L2240.01 271.052 L2240.01 267.117 Q2238.56 269.478 2236.38 270.612 Q2234.2 271.723 2231.06 271.723 Q2227.07 271.723 2224.71 269.501 Q2222.38 267.255 2222.38 263.505 Q2222.38 259.13 2225.29 256.908 Q2228.23 254.686 2234.04 254.686 L2240.01 254.686 L2240.01 254.269 Q2240.01 251.33 2238.07 249.732 Q2236.15 248.112 2232.65 248.112 Q2230.43 248.112 2228.32 248.644 Q2226.22 249.177 2224.27 250.242 L2224.27 246.306 Q2226.61 245.404 2228.81 244.964 Q2231.01 244.501 2233.09 244.501 Q2238.72 244.501 2241.5 247.418 Q2244.27 250.334 2244.27 256.26 Z" fill="#000000" fill-rule="nonzero" fill-opacity="1" /><path clip-path="url(#clip480)" d="M2253.05 235.033 L2257.31 235.033 L2257.31 271.052 L2253.05 271.052 L2253.05 235.033 Z" fill="#000000" fill-rule="nonzero" fill-opacity="1" /><polyline clip-path="url(#clip480)" style="stroke:#006400; stroke-linecap:round; stroke-linejoin:round; stroke-width:8; stroke-opacity:1; fill:none" stroke-dasharray="32, 20" points="1656.2,305.612 1799.37,305.612 "/>
<path clip-path="url(#clip480)" d="M1845.48 289.466 L1845.48 294.026 Q1842.82 292.753 1840.46 292.128 Q1838.09 291.503 1835.9 291.503 Q1832.08 291.503 1829.99 292.984 Q1827.93 294.466 1827.93 297.197 Q1827.93 299.489 1829.3 300.67 Q1830.69 301.827 1834.53 302.545 L1837.35 303.123 Q1842.59 304.119 1845.06 306.642 Q1847.56 309.142 1847.56 313.355 Q1847.56 318.378 1844.18 320.97 Q1840.83 323.563 1834.32 323.563 Q1831.87 323.563 1829.09 323.007 Q1826.34 322.452 1823.37 321.364 L1823.37 316.549 Q1826.22 318.146 1828.95 318.957 Q1831.68 319.767 1834.32 319.767 Q1838.33 319.767 1840.5 318.193 Q1842.68 316.619 1842.68 313.702 Q1842.68 311.156 1841.1 309.72 Q1839.55 308.285 1835.99 307.568 L1833.14 307.012 Q1827.91 305.971 1825.57 303.748 Q1823.23 301.526 1823.23 297.568 Q1823.23 292.984 1826.45 290.346 Q1829.69 287.707 1835.36 287.707 Q1837.79 287.707 1840.32 288.147 Q1842.84 288.586 1845.48 289.466 Z" fill="#000000" fill-rule="nonzero" fill-opacity="1" /><path clip-path="url(#clip480)" d="M1854.67 296.966 L1858.93 296.966 L1858.93 322.892 L1854.67 322.892 L1854.67 296.966 M1854.67 286.873 L1858.93 286.873 L1858.93 292.267 L1854.67 292.267 L1854.67 286.873 Z" fill="#000000" fill-rule="nonzero" fill-opacity="1" /><path clip-path="url(#clip480)" d="M1888.03 301.943 Q1889.62 299.072 1891.84 297.707 Q1894.07 296.341 1897.08 296.341 Q1901.13 296.341 1903.33 299.188 Q1905.52 302.012 1905.52 307.244 L1905.52 322.892 L1901.24 322.892 L1901.24 307.383 Q1901.24 303.656 1899.92 301.85 Q1898.6 300.045 1895.9 300.045 Q1892.59 300.045 1890.66 302.244 Q1888.74 304.443 1888.74 308.239 L1888.74 322.892 L1884.46 322.892 L1884.46 307.383 Q1884.46 303.633 1883.14 301.85 Q1881.82 300.045 1879.07 300.045 Q1875.8 300.045 1873.88 302.267 Q1871.96 304.466 1871.96 308.239 L1871.96 322.892 L1867.68 322.892 L1867.68 296.966 L1871.96 296.966 L1871.96 300.994 Q1873.42 298.609 1875.46 297.475 Q1877.49 296.341 1880.29 296.341 Q1883.12 296.341 1885.09 297.776 Q1887.08 299.211 1888.03 301.943 Z" fill="#000000" fill-rule="nonzero" fill-opacity="1" /><path clip-path="url(#clip480)" d="M1913.58 312.66 L1913.58 296.966 L1917.84 296.966 L1917.84 312.498 Q1917.84 316.179 1919.27 318.031 Q1920.71 319.859 1923.58 319.859 Q1927.03 319.859 1929.02 317.66 Q1931.03 315.461 1931.03 311.665 L1931.03 296.966 L1935.29 296.966 L1935.29 322.892 L1931.03 322.892 L1931.03 318.91 Q1929.48 321.271 1927.42 322.429 Q1925.39 323.563 1922.68 323.563 Q1918.21 323.563 1915.9 320.785 Q1913.58 318.007 1913.58 312.66 M1924.3 296.341 L1924.3 296.341 Z" fill="#000000" fill-rule="nonzero" fill-opacity="1" /><path clip-path="url(#clip480)" d="M1944.07 286.873 L1948.33 286.873 L1948.33 322.892 L1944.07 322.892 L1944.07 286.873 Z" fill="#000000" fill-rule="nonzero" fill-opacity="1" /><path clip-path="url(#clip480)" d="M1969.02 309.859 Q1963.86 309.859 1961.87 311.04 Q1959.88 312.22 1959.88 315.068 Q1959.88 317.336 1961.36 318.679 Q1962.86 319.998 1965.43 319.998 Q1968.97 319.998 1971.1 317.498 Q1973.26 314.975 1973.26 310.808 L1973.26 309.859 L1969.02 309.859 M1977.52 308.1 L1977.52 322.892 L1973.26 322.892 L1973.26 318.957 Q1971.8 321.318 1969.62 322.452 Q1967.45 323.563 1964.3 323.563 Q1960.32 323.563 1957.96 321.341 Q1955.62 319.095 1955.62 315.345 Q1955.62 310.97 1958.53 308.748 Q1961.47 306.526 1967.28 306.526 L1973.26 306.526 L1973.26 306.109 Q1973.26 303.17 1971.31 301.572 Q1969.39 299.952 1965.89 299.952 Q1963.67 299.952 1961.57 300.484 Q1959.46 301.017 1957.52 302.082 L1957.52 298.146 Q1959.85 297.244 1962.05 296.804 Q1964.25 296.341 1966.33 296.341 Q1971.96 296.341 1974.74 299.258 Q1977.52 302.174 1977.52 308.1 Z" fill="#000000" fill-rule="nonzero" fill-opacity="1" /><path clip-path="url(#clip480)" d="M1990.5 289.605 L1990.5 296.966 L1999.27 296.966 L1999.27 300.276 L1990.5 300.276 L1990.5 314.35 Q1990.5 317.521 1991.36 318.424 Q1992.24 319.327 1994.9 319.327 L1999.27 319.327 L1999.27 322.892 L1994.9 322.892 Q1989.97 322.892 1988.09 321.063 Q1986.22 319.211 1986.22 314.35 L1986.22 300.276 L1983.09 300.276 L1983.09 296.966 L1986.22 296.966 L1986.22 289.605 L1990.5 289.605 Z" fill="#000000" fill-rule="nonzero" fill-opacity="1" /><path clip-path="url(#clip480)" d="M2027.05 308.864 L2027.05 310.947 L2007.47 310.947 Q2007.75 315.345 2010.11 317.66 Q2012.49 319.952 2016.73 319.952 Q2019.18 319.952 2021.47 319.35 Q2023.79 318.748 2026.06 317.545 L2026.06 321.572 Q2023.77 322.544 2021.36 323.054 Q2018.95 323.563 2016.47 323.563 Q2010.27 323.563 2006.64 319.952 Q2003.02 316.341 2003.02 310.183 Q2003.02 303.818 2006.45 300.091 Q2009.9 296.341 2015.73 296.341 Q2020.96 296.341 2024 299.721 Q2027.05 303.077 2027.05 308.864 M2022.79 307.614 Q2022.75 304.119 2020.83 302.035 Q2018.93 299.952 2015.78 299.952 Q2012.21 299.952 2010.06 301.966 Q2007.93 303.98 2007.61 307.637 L2022.79 307.614 Z" fill="#000000" fill-rule="nonzero" fill-opacity="1" /><path clip-path="url(#clip480)" d="M2051.1 300.901 L2051.1 286.873 L2055.36 286.873 L2055.36 322.892 L2051.1 322.892 L2051.1 319.003 Q2049.76 321.318 2047.7 322.452 Q2045.66 323.563 2042.79 323.563 Q2038.09 323.563 2035.13 319.813 Q2032.19 316.063 2032.19 309.952 Q2032.19 303.841 2035.13 300.091 Q2038.09 296.341 2042.79 296.341 Q2045.66 296.341 2047.7 297.475 Q2049.76 298.586 2051.1 300.901 M2036.59 309.952 Q2036.59 314.651 2038.51 317.336 Q2040.45 319.998 2043.83 319.998 Q2047.21 319.998 2049.16 317.336 Q2051.1 314.651 2051.1 309.952 Q2051.1 305.253 2049.16 302.591 Q2047.21 299.906 2043.83 299.906 Q2040.45 299.906 2038.51 302.591 Q2036.59 305.253 2036.59 309.952 Z" fill="#000000" fill-rule="nonzero" fill-opacity="1" /><path clip-path="url(#clip480)" d="M2099.39 301.943 Q2100.99 299.072 2103.21 297.707 Q2105.43 296.341 2108.44 296.341 Q2112.49 296.341 2114.69 299.188 Q2116.89 302.012 2116.89 307.244 L2116.89 322.892 L2112.61 322.892 L2112.61 307.383 Q2112.61 303.656 2111.29 301.85 Q2109.97 300.045 2107.26 300.045 Q2103.95 300.045 2102.03 302.244 Q2100.11 304.443 2100.11 308.239 L2100.11 322.892 L2095.82 322.892 L2095.82 307.383 Q2095.82 303.633 2094.51 301.85 Q2093.19 300.045 2090.43 300.045 Q2087.17 300.045 2085.25 302.267 Q2083.32 304.466 2083.32 308.239 L2083.32 322.892 L2079.04 322.892 L2079.04 296.966 L2083.32 296.966 L2083.32 300.994 Q2084.78 298.609 2086.82 297.475 Q2088.86 296.341 2091.66 296.341 Q2094.48 296.341 2096.45 297.776 Q2098.44 299.211 2099.39 301.943 Z" fill="#000000" fill-rule="nonzero" fill-opacity="1" /><path clip-path="url(#clip480)" d="M2147.56 308.864 L2147.56 310.947 L2127.98 310.947 Q2128.26 315.345 2130.62 317.66 Q2133 319.952 2137.24 319.952 Q2139.69 319.952 2141.98 319.35 Q2144.3 318.748 2146.57 317.545 L2146.57 321.572 Q2144.27 322.544 2141.87 323.054 Q2139.46 323.563 2136.98 323.563 Q2130.78 323.563 2127.14 319.952 Q2123.53 316.341 2123.53 310.183 Q2123.53 303.818 2126.96 300.091 Q2130.41 296.341 2136.24 296.341 Q2141.47 296.341 2144.51 299.721 Q2147.56 303.077 2147.56 308.864 M2143.3 307.614 Q2143.26 304.119 2141.33 302.035 Q2139.44 299.952 2136.29 299.952 Q2132.72 299.952 2130.57 301.966 Q2128.44 303.98 2128.12 307.637 L2143.3 307.614 Z" fill="#000000" fill-rule="nonzero" fill-opacity="1" /><path clip-path="url(#clip480)" d="M2171.61 300.901 L2171.61 286.873 L2175.87 286.873 L2175.87 322.892 L2171.61 322.892 L2171.61 319.003 Q2170.27 321.318 2168.21 322.452 Q2166.17 323.563 2163.3 323.563 Q2158.6 323.563 2155.64 319.813 Q2152.7 316.063 2152.7 309.952 Q2152.7 303.841 2155.64 300.091 Q2158.6 296.341 2163.3 296.341 Q2166.17 296.341 2168.21 297.475 Q2170.27 298.586 2171.61 300.901 M2157.1 309.952 Q2157.1 314.651 2159.02 317.336 Q2160.96 319.998 2164.34 319.998 Q2167.72 319.998 2169.67 317.336 Q2171.61 314.651 2171.61 309.952 Q2171.61 305.253 2169.67 302.591 Q2167.72 299.906 2164.34 299.906 Q2160.96 299.906 2159.02 302.591 Q2157.1 305.253 2157.1 309.952 Z" fill="#000000" fill-rule="nonzero" fill-opacity="1" /><path clip-path="url(#clip480)" d="M2184.64 296.966 L2188.9 296.966 L2188.9 322.892 L2184.64 322.892 L2184.64 296.966 M2184.64 286.873 L2188.9 286.873 L2188.9 292.267 L2184.64 292.267 L2184.64 286.873 Z" fill="#000000" fill-rule="nonzero" fill-opacity="1" /><path clip-path="url(#clip480)" d="M2209.6 309.859 Q2204.44 309.859 2202.44 311.04 Q2200.45 312.22 2200.45 315.068 Q2200.45 317.336 2201.94 318.679 Q2203.44 319.998 2206.01 319.998 Q2209.55 319.998 2211.68 317.498 Q2213.83 314.975 2213.83 310.808 L2213.83 309.859 L2209.6 309.859 M2218.09 308.1 L2218.09 322.892 L2213.83 322.892 L2213.83 318.957 Q2212.38 321.318 2210.2 322.452 Q2208.02 323.563 2204.88 323.563 Q2200.89 323.563 2198.53 321.341 Q2196.19 319.095 2196.19 315.345 Q2196.19 310.97 2199.11 308.748 Q2202.05 306.526 2207.86 306.526 L2213.83 306.526 L2213.83 306.109 Q2213.83 303.17 2211.89 301.572 Q2209.97 299.952 2206.47 299.952 Q2204.25 299.952 2202.14 300.484 Q2200.04 301.017 2198.09 302.082 L2198.09 298.146 Q2200.43 297.244 2202.63 296.804 Q2204.83 296.341 2206.91 296.341 Q2212.54 296.341 2215.31 299.258 Q2218.09 302.174 2218.09 308.1 Z" fill="#000000" fill-rule="nonzero" fill-opacity="1" /><path clip-path="url(#clip480)" d="M2248.42 307.244 L2248.42 322.892 L2244.16 322.892 L2244.16 307.383 Q2244.16 303.702 2242.72 301.873 Q2241.29 300.045 2238.42 300.045 Q2234.97 300.045 2232.98 302.244 Q2230.99 304.443 2230.99 308.239 L2230.99 322.892 L2226.7 322.892 L2226.7 296.966 L2230.99 296.966 L2230.99 300.994 Q2232.51 298.656 2234.57 297.498 Q2236.66 296.341 2239.37 296.341 Q2243.83 296.341 2246.12 299.119 Q2248.42 301.873 2248.42 307.244 Z" fill="#000000" fill-rule="nonzero" fill-opacity="1" /></svg>
