<?xml version="1.0" encoding="utf-8"?>
<svg xmlns="http://www.w3.org/2000/svg" xmlns:xlink="http://www.w3.org/1999/xlink" width="600" height="400" viewBox="0 0 2400 1600">
<defs>
  <clipPath id="clip850">
    <rect x="0" y="0" width="2400" height="1600"/>
  </clipPath>
</defs>
<path clip-path="url(#clip850)" d="M0 1600 L2400 1600 L2400 8.88178e-14 L0 8.88178e-14  Z" fill="#ffffff" fill-rule="evenodd" fill-opacity="1"/>
<defs>
  <clipPath id="clip851">
    <rect x="234" y="106" width="2120" height="1318"/>
  </clipPath>
</defs>
<path clip-path="url(#clip850)" d="M205.121 1423.18 L2352.76 1423.18 L2352.76 106.192 L205.121 106.192  Z" fill="#ffffff" fill-rule="evenodd" fill-opacity="1"/>
<defs>
  <clipPath id="clip852">
    <rect x="205" y="106" width="2149" height="1318"/>
  </clipPath>
</defs>
<polyline clip-path="url(#clip852)" style="stroke:#000000; stroke-linecap:round; stroke-linejoin:round; stroke-width:2; stroke-opacity:0.1; fill:none" points="396.76,1423.18 396.76,106.192 "/>
<polyline clip-path="url(#clip852)" style="stroke:#000000; stroke-linecap:round; stroke-linejoin:round; stroke-width:2; stroke-opacity:0.1; fill:none" points="764.334,1423.18 764.334,106.192 "/>
<polyline clip-path="url(#clip852)" style="stroke:#000000; stroke-linecap:round; stroke-linejoin:round; stroke-width:2; stroke-opacity:0.1; fill:none" points="1131.91,1423.18 1131.91,106.192 "/>
<polyline clip-path="url(#clip852)" style="stroke:#000000; stroke-linecap:round; stroke-linejoin:round; stroke-width:2; stroke-opacity:0.1; fill:none" points="1499.48,1423.18 1499.48,106.192 "/>
<polyline clip-path="url(#clip852)" style="stroke:#000000; stroke-linecap:round; stroke-linejoin:round; stroke-width:2; stroke-opacity:0.1; fill:none" points="1867.06,1423.18 1867.06,106.192 "/>
<polyline clip-path="url(#clip852)" style="stroke:#000000; stroke-linecap:round; stroke-linejoin:round; stroke-width:2; stroke-opacity:0.1; fill:none" points="2234.63,1423.18 2234.63,106.192 "/>
<polyline clip-path="url(#clip852)" style="stroke:#000000; stroke-linecap:round; stroke-linejoin:round; stroke-width:2; stroke-opacity:0.1; fill:none" points="205.121,1423.18 2352.76,1423.18 "/>
<polyline clip-path="url(#clip852)" style="stroke:#000000; stroke-linecap:round; stroke-linejoin:round; stroke-width:2; stroke-opacity:0.1; fill:none" points="205.121,1196.11 2352.76,1196.11 "/>
<polyline clip-path="url(#clip852)" style="stroke:#000000; stroke-linecap:round; stroke-linejoin:round; stroke-width:2; stroke-opacity:0.1; fill:none" points="205.121,969.046 2352.76,969.046 "/>
<polyline clip-path="url(#clip852)" style="stroke:#000000; stroke-linecap:round; stroke-linejoin:round; stroke-width:2; stroke-opacity:0.1; fill:none" points="205.121,741.979 2352.76,741.979 "/>
<polyline clip-path="url(#clip852)" style="stroke:#000000; stroke-linecap:round; stroke-linejoin:round; stroke-width:2; stroke-opacity:0.1; fill:none" points="205.121,514.912 2352.76,514.912 "/>
<polyline clip-path="url(#clip852)" style="stroke:#000000; stroke-linecap:round; stroke-linejoin:round; stroke-width:2; stroke-opacity:0.1; fill:none" points="205.121,287.846 2352.76,287.846 "/>
<polyline clip-path="url(#clip850)" style="stroke:#000000; stroke-linecap:round; stroke-linejoin:round; stroke-width:4; stroke-opacity:1; fill:none" points="205.121,1423.18 2352.76,1423.18 "/>
<polyline clip-path="url(#clip850)" style="stroke:#000000; stroke-linecap:round; stroke-linejoin:round; stroke-width:4; stroke-opacity:1; fill:none" points="396.76,1423.18 396.76,1404.28 "/>
<polyline clip-path="url(#clip850)" style="stroke:#000000; stroke-linecap:round; stroke-linejoin:round; stroke-width:4; stroke-opacity:1; fill:none" points="764.334,1423.18 764.334,1404.28 "/>
<polyline clip-path="url(#clip850)" style="stroke:#000000; stroke-linecap:round; stroke-linejoin:round; stroke-width:4; stroke-opacity:1; fill:none" points="1131.91,1423.18 1131.91,1404.28 "/>
<polyline clip-path="url(#clip850)" style="stroke:#000000; stroke-linecap:round; stroke-linejoin:round; stroke-width:4; stroke-opacity:1; fill:none" points="1499.48,1423.18 1499.48,1404.28 "/>
<polyline clip-path="url(#clip850)" style="stroke:#000000; stroke-linecap:round; stroke-linejoin:round; stroke-width:4; stroke-opacity:1; fill:none" points="1867.06,1423.18 1867.06,1404.28 "/>
<polyline clip-path="url(#clip850)" style="stroke:#000000; stroke-linecap:round; stroke-linejoin:round; stroke-width:4; stroke-opacity:1; fill:none" points="2234.63,1423.18 2234.63,1404.28 "/>
<path clip-path="url(#clip850)" d="M356.366 1481.64 L364.005 1481.64 L364.005 1455.28 L355.695 1456.95 L355.695 1452.69 L363.959 1451.02 L368.635 1451.02 L368.635 1481.64 L376.274 1481.64 L376.274 1485.58 L356.366 1485.58 L356.366 1481.64 Z" fill="#000000" fill-rule="nonzero" fill-opacity="1" /><path clip-path="url(#clip850)" d="M395.718 1454.1 Q392.107 1454.1 390.278 1457.66 Q388.473 1461.2 388.473 1468.33 Q388.473 1475.44 390.278 1479.01 Q392.107 1482.55 395.718 1482.55 Q399.352 1482.55 401.158 1479.01 Q402.986 1475.44 402.986 1468.33 Q402.986 1461.2 401.158 1457.66 Q399.352 1454.1 395.718 1454.1 M395.718 1450.39 Q401.528 1450.39 404.584 1455 Q407.662 1459.58 407.662 1468.33 Q407.662 1477.06 404.584 1481.67 Q401.528 1486.25 395.718 1486.25 Q389.908 1486.25 386.829 1481.67 Q383.774 1477.06 383.774 1468.33 Q383.774 1459.58 386.829 1455 Q389.908 1450.39 395.718 1450.39 Z" fill="#000000" fill-rule="nonzero" fill-opacity="1" /><path clip-path="url(#clip850)" d="M425.88 1454.1 Q422.269 1454.1 420.44 1457.66 Q418.635 1461.2 418.635 1468.33 Q418.635 1475.44 420.44 1479.01 Q422.269 1482.55 425.88 1482.55 Q429.514 1482.55 431.32 1479.01 Q433.148 1475.44 433.148 1468.33 Q433.148 1461.2 431.32 1457.66 Q429.514 1454.1 425.88 1454.1 M425.88 1450.39 Q431.69 1450.39 434.746 1455 Q437.824 1459.58 437.824 1468.33 Q437.824 1477.06 434.746 1481.67 Q431.69 1486.25 425.88 1486.25 Q420.07 1486.25 416.991 1481.67 Q413.935 1477.06 413.935 1468.33 Q413.935 1459.58 416.991 1455 Q420.07 1450.39 425.88 1450.39 Z" fill="#000000" fill-rule="nonzero" fill-opacity="1" /><path clip-path="url(#clip850)" d="M723.941 1481.64 L731.58 1481.64 L731.58 1455.28 L723.27 1456.95 L723.27 1452.69 L731.533 1451.02 L736.209 1451.02 L736.209 1481.64 L743.848 1481.64 L743.848 1485.58 L723.941 1485.58 L723.941 1481.64 Z" fill="#000000" fill-rule="nonzero" fill-opacity="1" /><path clip-path="url(#clip850)" d="M753.339 1451.02 L771.695 1451.02 L771.695 1454.96 L757.621 1454.96 L757.621 1463.43 Q758.64 1463.08 759.658 1462.92 Q760.677 1462.73 761.695 1462.73 Q767.482 1462.73 770.862 1465.9 Q774.241 1469.08 774.241 1474.49 Q774.241 1480.07 770.769 1483.17 Q767.297 1486.25 760.978 1486.25 Q758.802 1486.25 756.533 1485.88 Q754.288 1485.51 751.88 1484.77 L751.88 1480.07 Q753.964 1481.2 756.186 1481.76 Q758.408 1482.32 760.885 1482.32 Q764.89 1482.32 767.228 1480.21 Q769.566 1478.1 769.566 1474.49 Q769.566 1470.88 767.228 1468.77 Q764.89 1466.67 760.885 1466.67 Q759.01 1466.67 757.135 1467.08 Q755.283 1467.5 753.339 1468.38 L753.339 1451.02 Z" fill="#000000" fill-rule="nonzero" fill-opacity="1" /><path clip-path="url(#clip850)" d="M793.454 1454.1 Q789.843 1454.1 788.015 1457.66 Q786.209 1461.2 786.209 1468.33 Q786.209 1475.44 788.015 1479.01 Q789.843 1482.55 793.454 1482.55 Q797.089 1482.55 798.894 1479.01 Q800.723 1475.44 800.723 1468.33 Q800.723 1461.2 798.894 1457.66 Q797.089 1454.1 793.454 1454.1 M793.454 1450.39 Q799.264 1450.39 802.32 1455 Q805.399 1459.58 805.399 1468.33 Q805.399 1477.06 802.32 1481.67 Q799.264 1486.25 793.454 1486.25 Q787.644 1486.25 784.566 1481.67 Q781.51 1477.06 781.51 1468.33 Q781.51 1459.58 784.566 1455 Q787.644 1450.39 793.454 1450.39 Z" fill="#000000" fill-rule="nonzero" fill-opacity="1" /><path clip-path="url(#clip850)" d="M1095.6 1481.64 L1111.92 1481.64 L1111.92 1485.58 L1089.98 1485.58 L1089.98 1481.64 Q1092.64 1478.89 1097.22 1474.26 Q1101.83 1469.61 1103.01 1468.27 Q1105.25 1465.74 1106.13 1464.01 Q1107.04 1462.25 1107.04 1460.56 Q1107.04 1457.8 1105.09 1456.07 Q1103.17 1454.33 1100.07 1454.33 Q1097.87 1454.33 1095.42 1455.09 Q1092.99 1455.86 1090.21 1457.41 L1090.21 1452.69 Q1093.03 1451.55 1095.49 1450.97 Q1097.94 1450.39 1099.98 1450.39 Q1105.35 1450.39 1108.54 1453.08 Q1111.74 1455.77 1111.74 1460.26 Q1111.74 1462.39 1110.92 1464.31 Q1110.14 1466.2 1108.03 1468.8 Q1107.45 1469.47 1104.35 1472.69 Q1101.25 1475.88 1095.6 1481.64 Z" fill="#000000" fill-rule="nonzero" fill-opacity="1" /><path clip-path="url(#clip850)" d="M1131.74 1454.1 Q1128.12 1454.1 1126.3 1457.66 Q1124.49 1461.2 1124.49 1468.33 Q1124.49 1475.44 1126.3 1479.01 Q1128.12 1482.55 1131.74 1482.55 Q1135.37 1482.55 1137.17 1479.01 Q1139 1475.44 1139 1468.33 Q1139 1461.2 1137.17 1457.66 Q1135.37 1454.1 1131.74 1454.1 M1131.74 1450.39 Q1137.55 1450.39 1140.6 1455 Q1143.68 1459.58 1143.68 1468.33 Q1143.68 1477.06 1140.6 1481.67 Q1137.55 1486.25 1131.74 1486.25 Q1125.92 1486.25 1122.85 1481.67 Q1119.79 1477.06 1119.79 1468.33 Q1119.79 1459.58 1122.85 1455 Q1125.92 1450.39 1131.74 1450.39 Z" fill="#000000" fill-rule="nonzero" fill-opacity="1" /><path clip-path="url(#clip850)" d="M1161.9 1454.1 Q1158.29 1454.1 1156.46 1457.66 Q1154.65 1461.2 1154.65 1468.33 Q1154.65 1475.44 1156.46 1479.01 Q1158.29 1482.55 1161.9 1482.55 Q1165.53 1482.55 1167.34 1479.01 Q1169.17 1475.44 1169.17 1468.33 Q1169.17 1461.2 1167.34 1457.66 Q1165.53 1454.1 1161.9 1454.1 M1161.9 1450.39 Q1167.71 1450.39 1170.76 1455 Q1173.84 1459.58 1173.84 1468.33 Q1173.84 1477.06 1170.76 1481.67 Q1167.71 1486.25 1161.9 1486.25 Q1156.09 1486.25 1153.01 1481.67 Q1149.95 1477.06 1149.95 1468.33 Q1149.95 1459.58 1153.01 1455 Q1156.09 1450.39 1161.9 1450.39 Z" fill="#000000" fill-rule="nonzero" fill-opacity="1" /><path clip-path="url(#clip850)" d="M1463.18 1481.64 L1479.49 1481.64 L1479.49 1485.58 L1457.55 1485.58 L1457.55 1481.64 Q1460.21 1478.89 1464.8 1474.26 Q1469.4 1469.61 1470.58 1468.27 Q1472.83 1465.74 1473.71 1464.01 Q1474.61 1462.25 1474.61 1460.56 Q1474.61 1457.8 1472.67 1456.07 Q1470.74 1454.33 1467.64 1454.33 Q1465.44 1454.33 1462.99 1455.09 Q1460.56 1455.86 1457.78 1457.41 L1457.78 1452.69 Q1460.61 1451.55 1463.06 1450.97 Q1465.51 1450.39 1467.55 1450.39 Q1472.92 1450.39 1476.12 1453.08 Q1479.31 1455.77 1479.31 1460.26 Q1479.31 1462.39 1478.5 1464.31 Q1477.71 1466.2 1475.61 1468.8 Q1475.03 1469.47 1471.93 1472.69 Q1468.82 1475.88 1463.18 1481.64 Z" fill="#000000" fill-rule="nonzero" fill-opacity="1" /><path clip-path="url(#clip850)" d="M1489.36 1451.02 L1507.71 1451.02 L1507.71 1454.96 L1493.64 1454.96 L1493.64 1463.43 Q1494.66 1463.08 1495.68 1462.92 Q1496.69 1462.73 1497.71 1462.73 Q1503.5 1462.73 1506.88 1465.9 Q1510.26 1469.08 1510.26 1474.49 Q1510.26 1480.07 1506.79 1483.17 Q1503.31 1486.25 1496.99 1486.25 Q1494.82 1486.25 1492.55 1485.88 Q1490.3 1485.51 1487.9 1484.77 L1487.9 1480.07 Q1489.98 1481.2 1492.2 1481.76 Q1494.43 1482.32 1496.9 1482.32 Q1500.91 1482.32 1503.24 1480.21 Q1505.58 1478.1 1505.58 1474.49 Q1505.58 1470.88 1503.24 1468.77 Q1500.91 1466.67 1496.9 1466.67 Q1495.03 1466.67 1493.15 1467.08 Q1491.3 1467.5 1489.36 1468.38 L1489.36 1451.02 Z" fill="#000000" fill-rule="nonzero" fill-opacity="1" /><path clip-path="url(#clip850)" d="M1529.47 1454.1 Q1525.86 1454.1 1524.03 1457.66 Q1522.23 1461.2 1522.23 1468.33 Q1522.23 1475.44 1524.03 1479.01 Q1525.86 1482.55 1529.47 1482.55 Q1533.11 1482.55 1534.91 1479.01 Q1536.74 1475.44 1536.74 1468.33 Q1536.74 1461.2 1534.91 1457.66 Q1533.11 1454.1 1529.47 1454.1 M1529.47 1450.39 Q1535.28 1450.39 1538.34 1455 Q1541.42 1459.58 1541.42 1468.33 Q1541.42 1477.06 1538.34 1481.67 Q1535.28 1486.25 1529.47 1486.25 Q1523.66 1486.25 1520.58 1481.67 Q1517.53 1477.06 1517.53 1468.33 Q1517.53 1459.58 1520.58 1455 Q1523.66 1450.39 1529.47 1450.39 Z" fill="#000000" fill-rule="nonzero" fill-opacity="1" /><path clip-path="url(#clip850)" d="M1840.82 1466.95 Q1844.18 1467.66 1846.05 1469.93 Q1847.95 1472.2 1847.95 1475.53 Q1847.95 1480.65 1844.43 1483.45 Q1840.91 1486.25 1834.43 1486.25 Q1832.25 1486.25 1829.94 1485.81 Q1827.65 1485.39 1825.19 1484.54 L1825.19 1480.02 Q1827.14 1481.16 1829.45 1481.74 Q1831.77 1482.32 1834.29 1482.32 Q1838.69 1482.32 1840.98 1480.58 Q1843.3 1478.84 1843.3 1475.53 Q1843.3 1472.48 1841.14 1470.77 Q1839.01 1469.03 1835.19 1469.03 L1831.17 1469.03 L1831.17 1465.19 L1835.38 1465.19 Q1838.83 1465.19 1840.66 1463.82 Q1842.49 1462.43 1842.49 1459.84 Q1842.49 1457.18 1840.59 1455.77 Q1838.71 1454.33 1835.19 1454.33 Q1833.27 1454.33 1831.07 1454.75 Q1828.87 1455.16 1826.24 1456.04 L1826.24 1451.88 Q1828.9 1451.14 1831.21 1450.77 Q1833.55 1450.39 1835.61 1450.39 Q1840.94 1450.39 1844.04 1452.83 Q1847.14 1455.23 1847.14 1459.35 Q1847.14 1462.22 1845.5 1464.21 Q1843.85 1466.18 1840.82 1466.95 Z" fill="#000000" fill-rule="nonzero" fill-opacity="1" /><path clip-path="url(#clip850)" d="M1866.81 1454.1 Q1863.2 1454.1 1861.37 1457.66 Q1859.57 1461.2 1859.57 1468.33 Q1859.57 1475.44 1861.37 1479.01 Q1863.2 1482.55 1866.81 1482.55 Q1870.45 1482.55 1872.25 1479.01 Q1874.08 1475.44 1874.08 1468.33 Q1874.08 1461.2 1872.25 1457.66 Q1870.45 1454.1 1866.81 1454.1 M1866.81 1450.39 Q1872.62 1450.39 1875.68 1455 Q1878.76 1459.58 1878.76 1468.33 Q1878.76 1477.06 1875.68 1481.67 Q1872.62 1486.25 1866.81 1486.25 Q1861 1486.25 1857.93 1481.67 Q1854.87 1477.06 1854.87 1468.33 Q1854.87 1459.58 1857.93 1455 Q1861 1450.39 1866.81 1450.39 Z" fill="#000000" fill-rule="nonzero" fill-opacity="1" /><path clip-path="url(#clip850)" d="M1896.98 1454.1 Q1893.37 1454.1 1891.54 1457.66 Q1889.73 1461.2 1889.73 1468.33 Q1889.73 1475.44 1891.54 1479.01 Q1893.37 1482.55 1896.98 1482.55 Q1900.61 1482.55 1902.42 1479.01 Q1904.24 1475.44 1904.24 1468.33 Q1904.24 1461.2 1902.42 1457.66 Q1900.61 1454.1 1896.98 1454.1 M1896.98 1450.39 Q1902.79 1450.39 1905.84 1455 Q1908.92 1459.58 1908.92 1468.33 Q1908.92 1477.06 1905.84 1481.67 Q1902.79 1486.25 1896.98 1486.25 Q1891.17 1486.25 1888.09 1481.67 Q1885.03 1477.06 1885.03 1468.33 Q1885.03 1459.58 1888.09 1455 Q1891.17 1450.39 1896.98 1450.39 Z" fill="#000000" fill-rule="nonzero" fill-opacity="1" /><path clip-path="url(#clip850)" d="M2208.39 1466.95 Q2211.75 1467.66 2213.63 1469.93 Q2215.52 1472.2 2215.52 1475.53 Q2215.52 1480.65 2212 1483.45 Q2208.49 1486.25 2202.01 1486.25 Q2199.83 1486.25 2197.51 1485.81 Q2195.22 1485.39 2192.77 1484.54 L2192.77 1480.02 Q2194.71 1481.16 2197.03 1481.74 Q2199.34 1482.32 2201.87 1482.32 Q2206.26 1482.32 2208.56 1480.58 Q2210.87 1478.84 2210.87 1475.53 Q2210.87 1472.48 2208.72 1470.77 Q2206.59 1469.03 2202.77 1469.03 L2198.74 1469.03 L2198.74 1465.19 L2202.95 1465.19 Q2206.4 1465.19 2208.23 1463.82 Q2210.06 1462.43 2210.06 1459.84 Q2210.06 1457.18 2208.16 1455.77 Q2206.29 1454.33 2202.77 1454.33 Q2200.85 1454.33 2198.65 1454.75 Q2196.45 1455.16 2193.81 1456.04 L2193.81 1451.88 Q2196.47 1451.14 2198.79 1450.77 Q2201.13 1450.39 2203.19 1450.39 Q2208.51 1450.39 2211.61 1452.83 Q2214.71 1455.23 2214.71 1459.35 Q2214.71 1462.22 2213.07 1464.21 Q2211.43 1466.18 2208.39 1466.95 Z" fill="#000000" fill-rule="nonzero" fill-opacity="1" /><path clip-path="url(#clip850)" d="M2224.44 1451.02 L2242.79 1451.02 L2242.79 1454.96 L2228.72 1454.96 L2228.72 1463.43 Q2229.74 1463.08 2230.75 1462.92 Q2231.77 1462.73 2232.79 1462.73 Q2238.58 1462.73 2241.96 1465.9 Q2245.34 1469.08 2245.34 1474.49 Q2245.34 1480.07 2241.87 1483.17 Q2238.39 1486.25 2232.07 1486.25 Q2229.9 1486.25 2227.63 1485.88 Q2225.38 1485.51 2222.98 1484.77 L2222.98 1480.07 Q2225.06 1481.2 2227.28 1481.76 Q2229.5 1482.32 2231.98 1482.32 Q2235.99 1482.32 2238.32 1480.21 Q2240.66 1478.1 2240.66 1474.49 Q2240.66 1470.88 2238.32 1468.77 Q2235.99 1466.67 2231.98 1466.67 Q2230.11 1466.67 2228.23 1467.08 Q2226.38 1467.5 2224.44 1468.38 L2224.44 1451.02 Z" fill="#000000" fill-rule="nonzero" fill-opacity="1" /><path clip-path="url(#clip850)" d="M2264.55 1454.1 Q2260.94 1454.1 2259.11 1457.66 Q2257.31 1461.2 2257.31 1468.33 Q2257.31 1475.44 2259.11 1479.01 Q2260.94 1482.55 2264.55 1482.55 Q2268.19 1482.55 2269.99 1479.01 Q2271.82 1475.44 2271.82 1468.33 Q2271.82 1461.2 2269.99 1457.66 Q2268.19 1454.1 2264.55 1454.1 M2264.55 1450.39 Q2270.36 1450.39 2273.42 1455 Q2276.5 1459.58 2276.5 1468.33 Q2276.5 1477.06 2273.42 1481.67 Q2270.36 1486.25 2264.55 1486.25 Q2258.74 1486.25 2255.66 1481.67 Q2252.61 1477.06 2252.61 1468.33 Q2252.61 1459.58 2255.66 1455 Q2258.74 1450.39 2264.55 1450.39 Z" fill="#000000" fill-rule="nonzero" fill-opacity="1" /><path clip-path="url(#clip850)" d="M1051.36 1520.52 L1091.56 1520.52 L1091.56 1525.93 L1074.69 1525.93 L1074.69 1568.04 L1068.23 1568.04 L1068.23 1525.93 L1051.36 1525.93 L1051.36 1520.52 Z" fill="#000000" fill-rule="nonzero" fill-opacity="1" /><path clip-path="url(#clip850)" d="M1116.93 1548.76 L1116.93 1551.62 L1090 1551.62 Q1090.39 1557.67 1093.63 1560.85 Q1096.91 1564 1102.74 1564 Q1106.11 1564 1109.26 1563.17 Q1112.44 1562.35 1115.56 1560.69 L1115.56 1566.23 Q1112.41 1567.57 1109.1 1568.27 Q1105.79 1568.97 1102.39 1568.97 Q1093.86 1568.97 1088.86 1564 Q1083.89 1559.04 1083.89 1550.57 Q1083.89 1541.82 1088.6 1536.69 Q1093.35 1531.54 1101.37 1531.54 Q1108.56 1531.54 1112.73 1536.18 Q1116.93 1540.8 1116.93 1548.76 M1111.07 1547.04 Q1111.01 1542.23 1108.37 1539.37 Q1105.76 1536.5 1101.43 1536.5 Q1096.53 1536.5 1093.57 1539.27 Q1090.64 1542.04 1090.2 1547.07 L1111.07 1547.04 Z" fill="#000000" fill-rule="nonzero" fill-opacity="1" /><path clip-path="url(#clip850)" d="M1147.2 1537.87 Q1146.21 1537.3 1145.04 1537.04 Q1143.89 1536.76 1142.49 1536.76 Q1137.52 1536.76 1134.85 1540 Q1132.21 1543.22 1132.21 1549.27 L1132.21 1568.04 L1126.32 1568.04 L1126.32 1532.4 L1132.21 1532.4 L1132.21 1537.93 Q1134.05 1534.69 1137.02 1533.13 Q1139.98 1531.54 1144.21 1531.54 Q1144.81 1531.54 1145.55 1531.63 Q1146.28 1531.7 1147.17 1531.85 L1147.2 1537.87 Z" fill="#000000" fill-rule="nonzero" fill-opacity="1" /><path clip-path="url(#clip850)" d="M1179.95 1539.24 Q1182.15 1535.29 1185.2 1533.41 Q1188.26 1531.54 1192.4 1531.54 Q1197.97 1531.54 1200.99 1535.45 Q1204.01 1539.33 1204.01 1546.53 L1204.01 1568.04 L1198.13 1568.04 L1198.13 1546.72 Q1198.13 1541.59 1196.31 1539.11 Q1194.5 1536.63 1190.77 1536.63 Q1186.22 1536.63 1183.58 1539.65 Q1180.94 1542.68 1180.94 1547.9 L1180.94 1568.04 L1175.05 1568.04 L1175.05 1546.72 Q1175.05 1541.56 1173.24 1539.11 Q1171.42 1536.63 1167.63 1536.63 Q1163.15 1536.63 1160.5 1539.68 Q1157.86 1542.71 1157.86 1547.9 L1157.86 1568.04 L1151.97 1568.04 L1151.97 1532.4 L1157.86 1532.4 L1157.86 1537.93 Q1159.87 1534.66 1162.67 1533.1 Q1165.47 1531.54 1169.32 1531.54 Q1173.2 1531.54 1175.91 1533.51 Q1178.65 1535.48 1179.95 1539.24 Z" fill="#000000" fill-rule="nonzero" fill-opacity="1" /><path clip-path="url(#clip850)" d="M1215.7 1532.4 L1221.55 1532.4 L1221.55 1568.04 L1215.7 1568.04 L1215.7 1532.4 M1215.7 1518.52 L1221.55 1518.52 L1221.55 1525.93 L1215.7 1525.93 L1215.7 1518.52 Z" fill="#000000" fill-rule="nonzero" fill-opacity="1" /><path clip-path="url(#clip850)" d="M1263.44 1546.53 L1263.44 1568.04 L1257.58 1568.04 L1257.58 1546.72 Q1257.58 1541.66 1255.61 1539.14 Q1253.63 1536.63 1249.69 1536.63 Q1244.95 1536.63 1242.21 1539.65 Q1239.47 1542.68 1239.47 1547.9 L1239.47 1568.04 L1233.58 1568.04 L1233.58 1532.4 L1239.47 1532.4 L1239.47 1537.93 Q1241.57 1534.72 1244.4 1533.13 Q1247.27 1531.54 1250.99 1531.54 Q1257.14 1531.54 1260.29 1535.36 Q1263.44 1539.14 1263.44 1546.53 Z" fill="#000000" fill-rule="nonzero" fill-opacity="1" /><path clip-path="url(#clip850)" d="M1291.32 1550.12 Q1284.22 1550.12 1281.48 1551.75 Q1278.75 1553.37 1278.75 1557.29 Q1278.75 1560.4 1280.78 1562.25 Q1282.85 1564.07 1286.39 1564.07 Q1291.26 1564.07 1294.18 1560.63 Q1297.14 1557.16 1297.14 1551.43 L1297.14 1550.12 L1291.32 1550.12 M1303 1547.71 L1303 1568.04 L1297.14 1568.04 L1297.14 1562.63 Q1295.14 1565.88 1292.15 1567.44 Q1289.16 1568.97 1284.83 1568.97 Q1279.35 1568.97 1276.11 1565.91 Q1272.89 1562.82 1272.89 1557.67 Q1272.89 1551.65 1276.9 1548.6 Q1280.94 1545.54 1288.93 1545.54 L1297.14 1545.54 L1297.14 1544.97 Q1297.14 1540.93 1294.47 1538.73 Q1291.83 1536.5 1287.02 1536.5 Q1283.97 1536.5 1281.07 1537.23 Q1278.17 1537.97 1275.5 1539.43 L1275.5 1534.02 Q1278.72 1532.78 1281.74 1532.17 Q1284.76 1531.54 1287.63 1531.54 Q1295.36 1531.54 1299.18 1535.55 Q1303 1539.56 1303 1547.71 Z" fill="#000000" fill-rule="nonzero" fill-opacity="1" /><path clip-path="url(#clip850)" d="M1315.06 1518.52 L1320.92 1518.52 L1320.92 1568.04 L1315.06 1568.04 L1315.06 1518.52 Z" fill="#000000" fill-rule="nonzero" fill-opacity="1" /><path clip-path="url(#clip850)" d="M1359.56 1562.7 L1359.56 1581.6 L1353.67 1581.6 L1353.67 1532.4 L1359.56 1532.4 L1359.56 1537.81 Q1361.41 1534.62 1364.21 1533.1 Q1367.04 1531.54 1370.95 1531.54 Q1377.45 1531.54 1381.49 1536.69 Q1385.56 1541.85 1385.56 1550.25 Q1385.56 1558.65 1381.49 1563.81 Q1377.45 1568.97 1370.95 1568.97 Q1367.04 1568.97 1364.21 1567.44 Q1361.41 1565.88 1359.56 1562.7 M1379.48 1550.25 Q1379.48 1543.79 1376.81 1540.13 Q1374.17 1536.44 1369.52 1536.44 Q1364.88 1536.44 1362.2 1540.13 Q1359.56 1543.79 1359.56 1550.25 Q1359.56 1556.71 1362.2 1560.4 Q1364.88 1564.07 1369.52 1564.07 Q1374.17 1564.07 1376.81 1560.4 Q1379.48 1556.71 1379.48 1550.25 Z" fill="#000000" fill-rule="nonzero" fill-opacity="1" /><path clip-path="url(#clip850)" d="M1415.93 1537.87 Q1414.94 1537.3 1413.76 1537.04 Q1412.62 1536.76 1411.22 1536.76 Q1406.25 1536.76 1403.58 1540 Q1400.94 1543.22 1400.94 1549.27 L1400.94 1568.04 L1395.05 1568.04 L1395.05 1532.4 L1400.94 1532.4 L1400.94 1537.93 Q1402.78 1534.69 1405.74 1533.13 Q1408.7 1531.54 1412.94 1531.54 Q1413.54 1531.54 1414.27 1531.63 Q1415.01 1531.7 1415.9 1531.85 L1415.93 1537.87 Z" fill="#000000" fill-rule="nonzero" fill-opacity="1" /><path clip-path="url(#clip850)" d="M1422.07 1532.4 L1427.93 1532.4 L1427.93 1568.04 L1422.07 1568.04 L1422.07 1532.4 M1422.07 1518.52 L1427.93 1518.52 L1427.93 1525.93 L1422.07 1525.93 L1422.07 1518.52 Z" fill="#000000" fill-rule="nonzero" fill-opacity="1" /><path clip-path="url(#clip850)" d="M1465.84 1533.76 L1465.84 1539.24 Q1463.35 1537.87 1460.84 1537.2 Q1458.36 1536.5 1455.81 1536.5 Q1450.11 1536.5 1446.96 1540.13 Q1443.81 1543.73 1443.81 1550.25 Q1443.81 1556.78 1446.96 1560.4 Q1450.11 1564 1455.81 1564 Q1458.36 1564 1460.84 1563.33 Q1463.35 1562.63 1465.84 1561.26 L1465.84 1566.68 Q1463.38 1567.82 1460.74 1568.39 Q1458.13 1568.97 1455.17 1568.97 Q1447.12 1568.97 1442.38 1563.91 Q1437.64 1558.85 1437.64 1550.25 Q1437.64 1541.53 1442.41 1536.53 Q1447.22 1531.54 1455.55 1531.54 Q1458.26 1531.54 1460.84 1532.11 Q1463.42 1532.65 1465.84 1533.76 Z" fill="#000000" fill-rule="nonzero" fill-opacity="1" /><path clip-path="url(#clip850)" d="M1506.51 1548.76 L1506.51 1551.62 L1479.59 1551.62 Q1479.97 1557.67 1483.21 1560.85 Q1486.49 1564 1492.32 1564 Q1495.69 1564 1498.84 1563.17 Q1502.02 1562.35 1505.14 1560.69 L1505.14 1566.23 Q1501.99 1567.57 1498.68 1568.27 Q1495.37 1568.97 1491.97 1568.97 Q1483.44 1568.97 1478.44 1564 Q1473.47 1559.04 1473.47 1550.57 Q1473.47 1541.82 1478.19 1536.69 Q1482.93 1531.54 1490.95 1531.54 Q1498.14 1531.54 1502.31 1536.18 Q1506.51 1540.8 1506.51 1548.76 M1500.66 1547.04 Q1500.59 1542.23 1497.95 1539.37 Q1495.34 1536.5 1491.01 1536.5 Q1486.11 1536.5 1483.15 1539.27 Q1480.22 1542.04 1479.78 1547.07 L1500.66 1547.04 Z" fill="#000000" fill-rule="nonzero" fill-opacity="1" /><polyline clip-path="url(#clip850)" style="stroke:#000000; stroke-linecap:round; stroke-linejoin:round; stroke-width:4; stroke-opacity:1; fill:none" points="205.121,1423.18 205.121,106.192 "/>
<polyline clip-path="url(#clip850)" style="stroke:#000000; stroke-linecap:round; stroke-linejoin:round; stroke-width:4; stroke-opacity:1; fill:none" points="205.121,1423.18 224.019,1423.18 "/>
<polyline clip-path="url(#clip850)" style="stroke:#000000; stroke-linecap:round; stroke-linejoin:round; stroke-width:4; stroke-opacity:1; fill:none" points="205.121,1196.11 224.019,1196.11 "/>
<polyline clip-path="url(#clip850)" style="stroke:#000000; stroke-linecap:round; stroke-linejoin:round; stroke-width:4; stroke-opacity:1; fill:none" points="205.121,969.046 224.019,969.046 "/>
<polyline clip-path="url(#clip850)" style="stroke:#000000; stroke-linecap:round; stroke-linejoin:round; stroke-width:4; stroke-opacity:1; fill:none" points="205.121,741.979 224.019,741.979 "/>
<polyline clip-path="url(#clip850)" style="stroke:#000000; stroke-linecap:round; stroke-linejoin:round; stroke-width:4; stroke-opacity:1; fill:none" points="205.121,514.912 224.019,514.912 "/>
<polyline clip-path="url(#clip850)" style="stroke:#000000; stroke-linecap:round; stroke-linejoin:round; stroke-width:4; stroke-opacity:1; fill:none" points="205.121,287.846 224.019,287.846 "/>
<path clip-path="url(#clip850)" d="M157.177 1408.98 Q153.566 1408.98 151.737 1412.54 Q149.931 1416.08 149.931 1423.21 Q149.931 1430.32 151.737 1433.89 Q153.566 1437.43 157.177 1437.43 Q160.811 1437.43 162.616 1433.89 Q164.445 1430.32 164.445 1423.21 Q164.445 1416.08 162.616 1412.54 Q160.811 1408.98 157.177 1408.98 M157.177 1405.27 Q162.987 1405.27 166.042 1409.88 Q169.121 1414.46 169.121 1423.21 Q169.121 1431.94 166.042 1436.55 Q162.987 1441.13 157.177 1441.13 Q151.366 1441.13 148.288 1436.55 Q145.232 1431.94 145.232 1423.21 Q145.232 1414.46 148.288 1409.88 Q151.366 1405.27 157.177 1405.27 Z" fill="#000000" fill-rule="nonzero" fill-opacity="1" /><path clip-path="url(#clip850)" d="M117.825 1209.46 L125.464 1209.46 L125.464 1183.09 L117.154 1184.76 L117.154 1180.5 L125.418 1178.83 L130.093 1178.83 L130.093 1209.46 L137.732 1209.46 L137.732 1213.39 L117.825 1213.39 L117.825 1209.46 Z" fill="#000000" fill-rule="nonzero" fill-opacity="1" /><path clip-path="url(#clip850)" d="M157.177 1181.91 Q153.566 1181.91 151.737 1185.48 Q149.931 1189.02 149.931 1196.15 Q149.931 1203.25 151.737 1206.82 Q153.566 1210.36 157.177 1210.36 Q160.811 1210.36 162.616 1206.82 Q164.445 1203.25 164.445 1196.15 Q164.445 1189.02 162.616 1185.48 Q160.811 1181.91 157.177 1181.91 M157.177 1178.21 Q162.987 1178.21 166.042 1182.81 Q169.121 1187.4 169.121 1196.15 Q169.121 1204.87 166.042 1209.48 Q162.987 1214.06 157.177 1214.06 Q151.366 1214.06 148.288 1209.48 Q145.232 1204.87 145.232 1196.15 Q145.232 1187.4 148.288 1182.81 Q151.366 1178.21 157.177 1178.21 Z" fill="#000000" fill-rule="nonzero" fill-opacity="1" /><path clip-path="url(#clip850)" d="M121.043 982.391 L137.362 982.391 L137.362 986.326 L115.418 986.326 L115.418 982.391 Q118.08 979.636 122.663 975.007 Q127.269 970.354 128.45 969.011 Q130.695 966.488 131.575 964.752 Q132.478 962.993 132.478 961.303 Q132.478 958.549 130.533 956.812 Q128.612 955.076 125.51 955.076 Q123.311 955.076 120.857 955.84 Q118.427 956.604 115.649 958.155 L115.649 953.433 Q118.473 952.299 120.927 951.72 Q123.38 951.141 125.418 951.141 Q130.788 951.141 133.982 953.826 Q137.177 956.511 137.177 961.002 Q137.177 963.132 136.367 965.053 Q135.579 966.951 133.473 969.544 Q132.894 970.215 129.792 973.433 Q126.691 976.627 121.043 982.391 Z" fill="#000000" fill-rule="nonzero" fill-opacity="1" /><path clip-path="url(#clip850)" d="M157.177 954.845 Q153.566 954.845 151.737 958.41 Q149.931 961.951 149.931 969.081 Q149.931 976.187 151.737 979.752 Q153.566 983.294 157.177 983.294 Q160.811 983.294 162.616 979.752 Q164.445 976.187 164.445 969.081 Q164.445 961.951 162.616 958.41 Q160.811 954.845 157.177 954.845 M157.177 951.141 Q162.987 951.141 166.042 955.748 Q169.121 960.331 169.121 969.081 Q169.121 977.808 166.042 982.414 Q162.987 986.997 157.177 986.997 Q151.366 986.997 148.288 982.414 Q145.232 977.808 145.232 969.081 Q145.232 960.331 148.288 955.748 Q151.366 951.141 157.177 951.141 Z" fill="#000000" fill-rule="nonzero" fill-opacity="1" /><path clip-path="url(#clip850)" d="M131.181 740.625 Q134.538 741.343 136.413 743.611 Q138.311 745.88 138.311 749.213 Q138.311 754.329 134.792 757.13 Q131.274 759.931 124.793 759.931 Q122.617 759.931 120.302 759.491 Q118.01 759.074 115.556 758.218 L115.556 753.704 Q117.501 754.838 119.816 755.417 Q122.13 755.995 124.654 755.995 Q129.052 755.995 131.343 754.259 Q133.658 752.523 133.658 749.213 Q133.658 746.158 131.505 744.445 Q129.376 742.708 125.556 742.708 L121.529 742.708 L121.529 738.866 L125.742 738.866 Q129.191 738.866 131.019 737.5 Q132.848 736.111 132.848 733.519 Q132.848 730.857 130.95 729.445 Q129.075 728.009 125.556 728.009 Q123.635 728.009 121.436 728.426 Q119.237 728.843 116.598 729.722 L116.598 725.556 Q119.26 724.815 121.575 724.445 Q123.913 724.074 125.973 724.074 Q131.297 724.074 134.399 726.505 Q137.501 728.912 137.501 733.033 Q137.501 735.903 135.857 737.894 Q134.214 739.861 131.181 740.625 Z" fill="#000000" fill-rule="nonzero" fill-opacity="1" /><path clip-path="url(#clip850)" d="M157.177 727.778 Q153.566 727.778 151.737 731.343 Q149.931 734.884 149.931 742.014 Q149.931 749.12 151.737 752.685 Q153.566 756.227 157.177 756.227 Q160.811 756.227 162.616 752.685 Q164.445 749.12 164.445 742.014 Q164.445 734.884 162.616 731.343 Q160.811 727.778 157.177 727.778 M157.177 724.074 Q162.987 724.074 166.042 728.681 Q169.121 733.264 169.121 742.014 Q169.121 750.741 166.042 755.347 Q162.987 759.931 157.177 759.931 Q151.366 759.931 148.288 755.347 Q145.232 750.741 145.232 742.014 Q145.232 733.264 148.288 728.681 Q151.366 724.074 157.177 724.074 Z" fill="#000000" fill-rule="nonzero" fill-opacity="1" /><path clip-path="url(#clip850)" d="M129.862 501.707 L118.056 520.155 L129.862 520.155 L129.862 501.707 M128.635 497.632 L134.515 497.632 L134.515 520.155 L139.445 520.155 L139.445 524.044 L134.515 524.044 L134.515 532.192 L129.862 532.192 L129.862 524.044 L114.26 524.044 L114.26 519.53 L128.635 497.632 Z" fill="#000000" fill-rule="nonzero" fill-opacity="1" /><path clip-path="url(#clip850)" d="M157.177 500.711 Q153.566 500.711 151.737 504.276 Q149.931 507.818 149.931 514.947 Q149.931 522.054 151.737 525.618 Q153.566 529.16 157.177 529.16 Q160.811 529.16 162.616 525.618 Q164.445 522.054 164.445 514.947 Q164.445 507.818 162.616 504.276 Q160.811 500.711 157.177 500.711 M157.177 497.007 Q162.987 497.007 166.042 501.614 Q169.121 506.197 169.121 514.947 Q169.121 523.674 166.042 528.28 Q162.987 532.864 157.177 532.864 Q151.366 532.864 148.288 528.28 Q145.232 523.674 145.232 514.947 Q145.232 506.197 148.288 501.614 Q151.366 497.007 157.177 497.007 Z" fill="#000000" fill-rule="nonzero" fill-opacity="1" /><path clip-path="url(#clip850)" d="M117.061 270.566 L135.417 270.566 L135.417 274.501 L121.343 274.501 L121.343 282.973 Q122.362 282.626 123.38 282.464 Q124.399 282.279 125.418 282.279 Q131.205 282.279 134.584 285.45 Q137.964 288.621 137.964 294.038 Q137.964 299.616 134.492 302.718 Q131.019 305.797 124.7 305.797 Q122.524 305.797 120.255 305.427 Q118.01 305.056 115.603 304.315 L115.603 299.616 Q117.686 300.751 119.908 301.306 Q122.13 301.862 124.607 301.862 Q128.612 301.862 130.95 299.755 Q133.288 297.649 133.288 294.038 Q133.288 290.427 130.95 288.32 Q128.612 286.214 124.607 286.214 Q122.732 286.214 120.857 286.63 Q119.006 287.047 117.061 287.927 L117.061 270.566 Z" fill="#000000" fill-rule="nonzero" fill-opacity="1" /><path clip-path="url(#clip850)" d="M157.177 273.644 Q153.566 273.644 151.737 277.209 Q149.931 280.751 149.931 287.88 Q149.931 294.987 151.737 298.552 Q153.566 302.093 157.177 302.093 Q160.811 302.093 162.616 298.552 Q164.445 294.987 164.445 287.88 Q164.445 280.751 162.616 277.209 Q160.811 273.644 157.177 273.644 M157.177 269.941 Q162.987 269.941 166.042 274.547 Q169.121 279.13 169.121 287.88 Q169.121 296.607 166.042 301.214 Q162.987 305.797 157.177 305.797 Q151.366 305.797 148.288 301.214 Q145.232 296.607 145.232 287.88 Q145.232 279.13 148.288 274.547 Q151.366 269.941 157.177 269.941 Z" fill="#000000" fill-rule="nonzero" fill-opacity="1" /><path clip-path="url(#clip850)" d="M20.1444 820.545 L26.9239 820.545 Q23.9002 823.792 22.4043 827.484 Q20.9083 831.144 20.9083 835.282 Q20.9083 843.43 25.9054 847.758 Q30.8707 852.087 40.2919 852.087 Q49.6813 852.087 54.6784 847.758 Q59.6436 843.43 59.6436 835.282 Q59.6436 831.144 58.1477 827.484 Q56.6518 823.792 53.6281 820.545 L60.3439 820.545 Q62.6355 823.919 63.7814 827.706 Q64.9272 831.462 64.9272 835.664 Q64.9272 846.453 58.3387 852.66 Q51.7183 858.867 40.2919 858.867 Q28.8336 858.867 22.2451 852.66 Q15.6248 846.453 15.6248 835.664 Q15.6248 831.399 16.7706 827.643 Q17.8846 823.855 20.1444 820.545 Z" fill="#000000" fill-rule="nonzero" fill-opacity="1" /><path clip-path="url(#clip850)" d="M32.4621 797.056 Q32.4621 801.766 36.1542 804.503 Q39.8145 807.241 46.212 807.241 Q52.6095 807.241 56.3017 804.535 Q59.9619 801.798 59.9619 797.056 Q59.9619 792.377 56.2698 789.64 Q52.5777 786.902 46.212 786.902 Q39.8781 786.902 36.186 789.64 Q32.4621 792.377 32.4621 797.056 M27.4968 797.056 Q27.4968 789.417 32.4621 785.056 Q37.4273 780.696 46.212 780.696 Q54.9649 780.696 59.9619 785.056 Q64.9272 789.417 64.9272 797.056 Q64.9272 804.726 59.9619 809.087 Q54.9649 813.415 46.212 813.415 Q37.4273 813.415 32.4621 809.087 Q27.4968 804.726 27.4968 797.056 Z" fill="#000000" fill-rule="nonzero" fill-opacity="1" /><path clip-path="url(#clip850)" d="M49.9359 771.593 L28.3562 771.593 L28.3562 765.736 L49.7131 765.736 Q54.7739 765.736 57.3202 763.763 Q59.8346 761.79 59.8346 757.843 Q59.8346 753.1 56.8109 750.363 Q53.7872 747.594 48.5673 747.594 L28.3562 747.594 L28.3562 741.738 L64.0042 741.738 L64.0042 747.594 L58.5296 747.594 Q61.7762 749.727 63.3676 752.559 Q64.9272 755.36 64.9272 759.084 Q64.9272 765.227 61.1078 768.41 Q57.2883 771.593 49.9359 771.593 M27.4968 756.856 L27.4968 756.856 Z" fill="#000000" fill-rule="nonzero" fill-opacity="1" /><path clip-path="url(#clip850)" d="M42.4881 700.042 L64.0042 700.042 L64.0042 705.899 L42.679 705.899 Q37.6183 705.899 35.1038 707.872 Q32.5894 709.845 32.5894 713.792 Q32.5894 718.535 35.6131 721.272 Q38.6368 724.009 43.8567 724.009 L64.0042 724.009 L64.0042 729.897 L28.3562 729.897 L28.3562 724.009 L33.8944 724.009 Q30.6797 721.908 29.0883 719.076 Q27.4968 716.211 27.4968 712.487 Q27.4968 706.344 31.3163 703.193 Q35.1038 700.042 42.4881 700.042 Z" fill="#000000" fill-rule="nonzero" fill-opacity="1" /><path clip-path="url(#clip850)" d="M18.2347 682.568 L28.3562 682.568 L28.3562 670.505 L32.9077 670.505 L32.9077 682.568 L52.2594 682.568 Q56.6199 682.568 57.8613 681.391 Q59.1026 680.181 59.1026 676.521 L59.1026 670.505 L64.0042 670.505 L64.0042 676.521 Q64.0042 683.3 61.4897 685.879 Q58.9434 688.457 52.2594 688.457 L32.9077 688.457 L32.9077 692.753 L28.3562 692.753 L28.3562 688.457 L18.2347 688.457 L18.2347 682.568 Z" fill="#000000" fill-rule="nonzero" fill-opacity="1" /><path clip-path="url(#clip850)" d="M677.466 8.64 L683.311 8.64 L683.311 48.8308 Q683.311 56.6432 680.331 60.1733 Q677.379 63.7034 670.811 63.7034 L668.583 63.7034 L668.583 58.7844 L670.406 58.7844 Q674.283 58.7844 675.875 56.6143 Q677.466 54.4442 677.466 48.8308 L677.466 8.64 Z" fill="#000000" fill-rule="nonzero" fill-opacity="1" /><path clip-path="url(#clip850)" d="M694.943 8.64 L702.813 8.64 L721.968 44.7799 L721.968 8.64 L727.639 8.64 L727.639 51.84 L719.769 51.84 L700.614 15.7001 L700.614 51.84 L694.943 51.84 L694.943 8.64 Z" fill="#000000" fill-rule="nonzero" fill-opacity="1" /><path clip-path="url(#clip850)" d="M739.271 8.64 L745.116 8.64 L745.116 48.8308 Q745.116 56.6432 742.136 60.1733 Q739.184 63.7034 732.616 63.7034 L730.388 63.7034 L730.388 58.7844 L732.211 58.7844 Q736.088 58.7844 737.68 56.6143 Q739.271 54.4442 739.271 48.8308 L739.271 8.64 Z" fill="#000000" fill-rule="nonzero" fill-opacity="1" /><path clip-path="url(#clip850)" d="M772.662 33.2348 L788.258 33.2348 L788.258 37.9801 L772.662 37.9801 L772.662 33.2348 Z" fill="#000000" fill-rule="nonzero" fill-opacity="1" /><path clip-path="url(#clip850)" d="M826.944 51.84 L810.451 8.64 L816.557 8.64 L830.243 45.0113 L843.958 8.64 L850.034 8.64 L833.57 51.84 L826.944 51.84 Z" fill="#000000" fill-rule="nonzero" fill-opacity="1" /><path clip-path="url(#clip850)" d="M856.342 8.64 L862.187 8.64 L862.187 51.84 L856.342 51.84 L856.342 8.64 Z" fill="#000000" fill-rule="nonzero" fill-opacity="1" /><path clip-path="url(#clip850)" d="M871.736 8.64 L878.015 8.64 L888.75 24.6989 L899.542 8.64 L905.821 8.64 L891.932 29.3864 L906.747 51.84 L900.468 51.84 L888.316 33.4663 L876.076 51.84 L869.768 51.84 L885.191 28.7788 L871.736 8.64 Z" fill="#000000" fill-rule="nonzero" fill-opacity="1" /><path clip-path="url(#clip850)" d="M908.541 33.2348 L924.137 33.2348 L924.137 37.9801 L908.541 37.9801 L908.541 33.2348 Z" fill="#000000" fill-rule="nonzero" fill-opacity="1" /><path clip-path="url(#clip850)" d="M955.937 20.677 L955.937 25.6538 Q953.68 24.4096 951.394 23.802 Q949.137 23.1654 946.822 23.1654 Q941.643 23.1654 938.778 26.464 Q935.914 29.7336 935.914 35.6653 Q935.914 41.597 938.778 44.8956 Q941.643 48.1653 946.822 48.1653 Q949.137 48.1653 951.394 47.5576 Q953.68 46.921 955.937 45.6768 L955.937 50.5958 Q953.709 51.6375 951.307 52.1583 Q948.934 52.6791 946.243 52.6791 Q938.923 52.6791 934.612 48.0784 Q930.3 43.4778 930.3 35.6653 Q930.3 27.7371 934.641 23.1943 Q939.01 18.6515 946.591 18.6515 Q949.05 18.6515 951.394 19.1724 Q953.738 19.6642 955.937 20.677 Z" fill="#000000" fill-rule="nonzero" fill-opacity="1" /><path clip-path="url(#clip850)" d="M977.754 23.1654 Q973.471 23.1654 970.983 26.5218 Q968.495 29.8494 968.495 35.6653 Q968.495 41.4813 970.954 44.8377 Q973.442 48.1653 977.754 48.1653 Q982.007 48.1653 984.496 44.8088 Q986.984 41.4523 986.984 35.6653 Q986.984 29.9072 984.496 26.5508 Q982.007 23.1654 977.754 23.1654 M977.754 18.6515 Q984.698 18.6515 988.662 23.1654 Q992.626 27.6792 992.626 35.6653 Q992.626 43.6225 988.662 48.1653 Q984.698 52.6791 977.754 52.6791 Q970.78 52.6791 966.816 48.1653 Q962.881 43.6225 962.881 35.6653 Q962.881 27.6792 966.816 23.1654 Q970.78 18.6515 977.754 18.6515 Z" fill="#000000" fill-rule="nonzero" fill-opacity="1" /><path clip-path="url(#clip850)" d="M1028.39 32.2799 L1028.39 51.84 L1023.07 51.84 L1023.07 32.4535 Q1023.07 27.8529 1021.27 25.567 Q1019.48 23.2811 1015.89 23.2811 Q1011.58 23.2811 1009.09 26.03 Q1006.6 28.7788 1006.6 33.5241 L1006.6 51.84 L1001.25 51.84 L1001.25 19.4328 L1006.6 19.4328 L1006.6 24.4675 Q1008.51 21.545 1011.09 20.0983 Q1013.69 18.6515 1017.08 18.6515 Q1022.66 18.6515 1025.53 22.1237 Q1028.39 25.567 1028.39 32.2799 Z" fill="#000000" fill-rule="nonzero" fill-opacity="1" /><path clip-path="url(#clip850)" d="M1060.33 24.3517 L1060.33 6.81709 L1065.66 6.81709 L1065.66 51.84 L1060.33 51.84 L1060.33 46.9789 Q1058.66 49.8724 1056.08 51.2902 Q1053.53 52.6791 1049.95 52.6791 Q1044.07 52.6791 1040.37 47.9916 Q1036.69 43.3042 1036.69 35.6653 Q1036.69 28.0265 1040.37 23.339 Q1044.07 18.6515 1049.95 18.6515 Q1053.53 18.6515 1056.08 20.0693 Q1058.66 21.4582 1060.33 24.3517 M1042.19 35.6653 Q1042.19 41.5391 1044.59 44.8956 Q1047.02 48.2231 1051.25 48.2231 Q1055.47 48.2231 1057.9 44.8956 Q1060.33 41.5391 1060.33 35.6653 Q1060.33 29.7915 1057.9 26.464 Q1055.47 23.1075 1051.25 23.1075 Q1047.02 23.1075 1044.59 26.464 Q1042.19 29.7915 1042.19 35.6653 Z" fill="#000000" fill-rule="nonzero" fill-opacity="1" /><path clip-path="url(#clip850)" d="M1077.38 44.4905 L1083.48 44.4905 L1083.48 51.84 L1077.38 51.84 L1077.38 44.4905 Z" fill="#000000" fill-rule="nonzero" fill-opacity="1" /><path clip-path="url(#clip850)" d="M1146.88 11.9675 L1146.88 18.1307 Q1143.93 15.3819 1140.57 14.0219 Q1137.24 12.662 1133.48 12.662 Q1126.07 12.662 1122.14 17.2048 Q1118.2 21.7186 1118.2 30.2834 Q1118.2 38.8192 1122.14 43.362 Q1126.07 47.8759 1133.48 47.8759 Q1137.24 47.8759 1140.57 46.516 Q1143.93 45.156 1146.88 42.4072 L1146.88 48.5125 Q1143.81 50.5958 1140.37 51.6375 Q1136.95 52.6791 1133.13 52.6791 Q1123.33 52.6791 1117.68 46.6896 Q1112.04 40.6711 1112.04 30.2834 Q1112.04 19.8668 1117.68 13.8772 Q1123.33 7.85875 1133.13 7.85875 Q1137.01 7.85875 1140.43 8.90042 Q1143.87 9.91314 1146.88 11.9675 Z" fill="#000000" fill-rule="nonzero" fill-opacity="1" /><path clip-path="url(#clip850)" d="M1155.91 8.64 L1161.75 8.64 L1161.75 26.3482 L1182.99 26.3482 L1182.99 8.64 L1188.83 8.64 L1188.83 51.84 L1182.99 51.84 L1182.99 31.2672 L1161.75 31.2672 L1161.75 51.84 L1155.91 51.84 L1155.91 8.64 Z" fill="#000000" fill-rule="nonzero" fill-opacity="1" /><path clip-path="url(#clip850)" d="M1200.47 8.64 L1209.18 8.64 L1220.2 38.038 L1231.28 8.64 L1239.99 8.64 L1239.99 51.84 L1234.29 51.84 L1234.29 13.9062 L1223.15 43.5356 L1217.28 43.5356 L1206.14 13.9062 L1206.14 51.84 L1200.47 51.84 L1200.47 8.64 Z" fill="#000000" fill-rule="nonzero" fill-opacity="1" /><path clip-path="url(#clip850)" d="M1251.59 8.64 L1260.3 8.64 L1271.33 38.038 L1282.41 8.64 L1291.12 8.64 L1291.12 51.84 L1285.42 51.84 L1285.42 13.9062 L1274.28 43.5356 L1268.41 43.5356 L1257.27 13.9062 L1257.27 51.84 L1251.59 51.84 L1251.59 8.64 Z" fill="#000000" fill-rule="nonzero" fill-opacity="1" /><path clip-path="url(#clip850)" d="M1299.8 33.2348 L1315.4 33.2348 L1315.4 37.9801 L1299.8 37.9801 L1299.8 33.2348 Z" fill="#000000" fill-rule="nonzero" fill-opacity="1" /><path clip-path="url(#clip850)" d="M1324.11 8.64 L1331.98 8.64 L1351.13 44.7799 L1351.13 8.64 L1356.8 8.64 L1356.8 51.84 L1348.93 51.84 L1329.78 15.7001 L1329.78 51.84 L1324.11 51.84 L1324.11 8.64 Z" fill="#000000" fill-rule="nonzero" fill-opacity="1" /><path clip-path="url(#clip850)" d="M1392.31 10.2314 L1392.31 19.4328 L1403.27 19.4328 L1403.27 23.5705 L1392.31 23.5705 L1392.31 41.163 Q1392.31 45.1271 1393.38 46.2555 Q1394.48 47.384 1397.8 47.384 L1403.27 47.384 L1403.27 51.84 L1397.8 51.84 Q1391.64 51.84 1389.3 49.5541 Q1386.95 47.2393 1386.95 41.163 L1386.95 23.5705 L1383.05 23.5705 L1383.05 19.4328 L1386.95 19.4328 L1386.95 10.2314 L1392.31 10.2314 Z" fill="#000000" fill-rule="nonzero" fill-opacity="1" /><path clip-path="url(#clip850)" d="M1437.99 34.3054 L1437.99 36.9095 L1413.52 36.9095 Q1413.86 42.4072 1416.81 45.3007 Q1419.79 48.1653 1425.09 48.1653 Q1428.16 48.1653 1431.02 47.4129 Q1433.91 46.6606 1436.75 45.156 L1436.75 50.1907 Q1433.89 51.406 1430.88 52.0425 Q1427.87 52.6791 1424.77 52.6791 Q1417.02 52.6791 1412.47 48.1653 Q1407.96 43.6514 1407.96 35.9547 Q1407.96 27.9975 1412.24 23.339 Q1416.55 18.6515 1423.85 18.6515 Q1430.38 18.6515 1434.17 22.876 Q1437.99 27.0716 1437.99 34.3054 M1432.67 32.7429 Q1432.61 28.3737 1430.21 25.7695 Q1427.84 23.1654 1423.9 23.1654 Q1419.45 23.1654 1416.76 25.6827 Q1414.09 28.2001 1413.69 32.7718 L1432.67 32.7429 Z" fill="#000000" fill-rule="nonzero" fill-opacity="1" /><path clip-path="url(#clip850)" d="M1465.51 24.4096 Q1464.61 23.8888 1463.54 23.6573 Q1462.5 23.3969 1461.23 23.3969 Q1456.72 23.3969 1454.28 26.3482 Q1451.88 29.2707 1451.88 34.7683 L1451.88 51.84 L1446.53 51.84 L1446.53 19.4328 L1451.88 19.4328 L1451.88 24.4675 Q1453.56 21.5161 1456.25 20.0983 Q1458.94 18.6515 1462.79 18.6515 Q1463.34 18.6515 1464.01 18.7383 Q1464.67 18.7962 1465.48 18.9409 L1465.51 24.4096 Z" fill="#000000" fill-rule="nonzero" fill-opacity="1" /><path clip-path="url(#clip850)" d="M1495.29 25.6538 Q1497.28 22.0659 1500.06 20.3587 Q1502.84 18.6515 1506.6 18.6515 Q1511.66 18.6515 1514.41 22.2105 Q1517.16 25.7406 1517.16 32.2799 L1517.16 51.84 L1511.81 51.84 L1511.81 32.4535 Q1511.81 27.795 1510.16 25.5381 Q1508.51 23.2811 1505.12 23.2811 Q1500.99 23.2811 1498.58 26.03 Q1496.18 28.7788 1496.18 33.5241 L1496.18 51.84 L1490.83 51.84 L1490.83 32.4535 Q1490.83 27.7661 1489.18 25.5381 Q1487.53 23.2811 1484.09 23.2811 Q1480.01 23.2811 1477.61 26.0589 Q1475.2 28.8077 1475.2 33.5241 L1475.2 51.84 L1469.85 51.84 L1469.85 19.4328 L1475.2 19.4328 L1475.2 24.4675 Q1477.03 21.4872 1479.57 20.0693 Q1482.12 18.6515 1485.62 18.6515 Q1489.15 18.6515 1491.61 20.4455 Q1494.1 22.2395 1495.29 25.6538 Z" fill="#000000" fill-rule="nonzero" fill-opacity="1" /><path clip-path="url(#clip850)" d="M1527.78 19.4328 L1533.1 19.4328 L1533.1 51.84 L1527.78 51.84 L1527.78 19.4328 M1527.78 6.81709 L1533.1 6.81709 L1533.1 13.559 L1527.78 13.559 L1527.78 6.81709 Z" fill="#000000" fill-rule="nonzero" fill-opacity="1" /><path clip-path="url(#clip850)" d="M1571.18 32.2799 L1571.18 51.84 L1565.86 51.84 L1565.86 32.4535 Q1565.86 27.8529 1564.06 25.567 Q1562.27 23.2811 1558.68 23.2811 Q1554.37 23.2811 1551.88 26.03 Q1549.39 28.7788 1549.39 33.5241 L1549.39 51.84 L1544.04 51.84 L1544.04 19.4328 L1549.39 19.4328 L1549.39 24.4675 Q1551.3 21.545 1553.88 20.0983 Q1556.48 18.6515 1559.87 18.6515 Q1565.45 18.6515 1568.32 22.1237 Q1571.18 25.567 1571.18 32.2799 Z" fill="#000000" fill-rule="nonzero" fill-opacity="1" /><path clip-path="url(#clip850)" d="M1596.53 35.5496 Q1590.08 35.5496 1587.59 37.0253 Q1585.1 38.501 1585.1 42.06 Q1585.1 44.8956 1586.95 46.5738 Q1588.83 48.2231 1592.04 48.2231 Q1596.47 48.2231 1599.13 45.0981 Q1601.82 41.9442 1601.82 36.7359 L1601.82 35.5496 L1596.53 35.5496 M1607.15 33.3505 L1607.15 51.84 L1601.82 51.84 L1601.82 46.921 Q1600 49.8724 1597.28 51.2902 Q1594.56 52.6791 1590.63 52.6791 Q1585.65 52.6791 1582.7 49.9014 Q1579.78 47.0947 1579.78 42.4072 Q1579.78 36.9385 1583.42 34.1607 Q1587.1 31.3829 1594.36 31.3829 L1601.82 31.3829 L1601.82 30.8621 Q1601.82 27.1874 1599.39 25.1908 Q1596.99 23.1654 1592.62 23.1654 Q1589.85 23.1654 1587.21 23.8309 Q1584.58 24.4964 1582.15 25.8274 L1582.15 20.9085 Q1585.07 19.78 1587.82 19.2302 Q1590.57 18.6515 1593.17 18.6515 Q1600.2 18.6515 1603.68 22.2973 Q1607.15 25.9431 1607.15 33.3505 Z" fill="#000000" fill-rule="nonzero" fill-opacity="1" /><path clip-path="url(#clip850)" d="M1618.11 6.81709 L1623.44 6.81709 L1623.44 51.84 L1618.11 51.84 L1618.11 6.81709 Z" fill="#000000" fill-rule="nonzero" fill-opacity="1" /><path clip-path="url(#clip850)" d="M1666.2 6.87496 Q1662.33 13.53 1660.45 20.0404 Q1658.57 26.5508 1658.57 33.2348 Q1658.57 39.9188 1660.45 46.487 Q1662.36 53.0263 1666.2 59.6525 L1661.58 59.6525 Q1657.24 52.8527 1655.06 46.2845 Q1652.92 39.7162 1652.92 33.2348 Q1652.92 26.7823 1655.06 20.2429 Q1657.21 13.7036 1661.58 6.87496 L1666.2 6.87496 Z" fill="#000000" fill-rule="nonzero" fill-opacity="1" /><path clip-path="url(#clip850)" d="M1703.47 32.2799 L1703.47 51.84 L1698.15 51.84 L1698.15 32.4535 Q1698.15 27.8529 1696.36 25.567 Q1694.56 23.2811 1690.97 23.2811 Q1686.66 23.2811 1684.17 26.03 Q1681.69 28.7788 1681.69 33.5241 L1681.69 51.84 L1676.33 51.84 L1676.33 19.4328 L1681.69 19.4328 L1681.69 24.4675 Q1683.59 21.545 1686.17 20.0983 Q1688.77 18.6515 1692.16 18.6515 Q1697.74 18.6515 1700.61 22.1237 Q1703.47 25.567 1703.47 32.2799 Z" fill="#000000" fill-rule="nonzero" fill-opacity="1" /><path clip-path="url(#clip850)" d="M1714.79 24.9304 L1751.88 24.9304 L1751.88 29.7915 L1714.79 29.7915 L1714.79 24.9304 M1714.79 36.7359 L1751.88 36.7359 L1751.88 41.6549 L1714.79 41.6549 L1714.79 36.7359 Z" fill="#000000" fill-rule="nonzero" fill-opacity="1" /><path clip-path="url(#clip850)" d="M1764.56 8.64 L1787.5 8.64 L1787.5 13.559 L1769.91 13.559 L1769.91 24.1492 Q1771.18 23.7152 1772.45 23.5126 Q1773.73 23.2811 1775 23.2811 Q1782.23 23.2811 1786.46 27.2452 Q1790.68 31.2093 1790.68 37.9801 Q1790.68 44.9535 1786.34 48.8308 Q1782 52.6791 1774.1 52.6791 Q1771.38 52.6791 1768.55 52.2162 Q1765.74 51.7532 1762.73 50.8273 L1762.73 44.9535 Q1765.34 46.3713 1768.11 47.0657 Q1770.89 47.7602 1773.99 47.7602 Q1778.99 47.7602 1781.92 45.1271 Q1784.84 42.494 1784.84 37.9801 Q1784.84 33.4663 1781.92 30.8332 Q1778.99 28.2001 1773.99 28.2001 Q1771.64 28.2001 1769.3 28.7209 Q1766.99 29.2417 1764.56 30.3413 L1764.56 8.64 Z" fill="#000000" fill-rule="nonzero" fill-opacity="1" /><path clip-path="url(#clip850)" d="M1814.7 12.4884 Q1810.19 12.4884 1807.9 16.9444 Q1805.64 21.3714 1805.64 30.2834 Q1805.64 39.1665 1807.9 43.6225 Q1810.19 48.0495 1814.7 48.0495 Q1819.24 48.0495 1821.5 43.6225 Q1823.79 39.1665 1823.79 30.2834 Q1823.79 21.3714 1821.5 16.9444 Q1819.24 12.4884 1814.7 12.4884 M1814.7 7.85875 Q1821.96 7.85875 1825.78 13.6168 Q1829.63 19.346 1829.63 30.2834 Q1829.63 41.1919 1825.78 46.95 Q1821.96 52.6791 1814.7 52.6791 Q1807.44 52.6791 1803.59 46.95 Q1799.77 41.1919 1799.77 30.2834 Q1799.77 19.346 1803.59 13.6168 Q1807.44 7.85875 1814.7 7.85875 Z" fill="#000000" fill-rule="nonzero" fill-opacity="1" /><path clip-path="url(#clip850)" d="M1852.4 12.4884 Q1847.89 12.4884 1845.6 16.9444 Q1843.35 21.3714 1843.35 30.2834 Q1843.35 39.1665 1845.6 43.6225 Q1847.89 48.0495 1852.4 48.0495 Q1856.94 48.0495 1859.2 43.6225 Q1861.49 39.1665 1861.49 30.2834 Q1861.49 21.3714 1859.2 16.9444 Q1856.94 12.4884 1852.4 12.4884 M1852.4 7.85875 Q1859.66 7.85875 1863.48 13.6168 Q1867.33 19.346 1867.33 30.2834 Q1867.33 41.1919 1863.48 46.95 Q1859.66 52.6791 1852.4 52.6791 Q1845.14 52.6791 1841.29 46.95 Q1837.47 41.1919 1837.47 30.2834 Q1837.47 19.346 1841.29 13.6168 Q1845.14 7.85875 1852.4 7.85875 Z" fill="#000000" fill-rule="nonzero" fill-opacity="1" /><path clip-path="url(#clip850)" d="M1876.01 6.87496 L1880.64 6.87496 Q1884.98 13.7036 1887.12 20.2429 Q1889.29 26.7823 1889.29 33.2348 Q1889.29 39.7162 1887.12 46.2845 Q1884.98 52.8527 1880.64 59.6525 L1876.01 59.6525 Q1879.86 53.0263 1881.74 46.487 Q1883.65 39.9188 1883.65 33.2348 Q1883.65 26.5508 1881.74 20.0404 Q1879.86 13.53 1876.01 6.87496 Z" fill="#000000" fill-rule="nonzero" fill-opacity="1" /><path clip-path="url(#clip852)" d="M323.245 1400.47 L323.245 1423.18 L396.76 1423.18 L396.76 1400.47 L323.245 1400.47 L323.245 1400.47  Z" fill="#2e8b57" fill-rule="evenodd" fill-opacity="0.6"/>
<polyline clip-path="url(#clip852)" style="stroke:#000000; stroke-linecap:round; stroke-linejoin:round; stroke-width:4; stroke-opacity:1; fill:none" points="323.245,1400.47 323.245,1423.18 396.76,1423.18 396.76,1400.47 323.245,1400.47 "/>
<path clip-path="url(#clip852)" d="M396.76 1218.82 L396.76 1423.18 L470.275 1423.18 L470.275 1218.82 L396.76 1218.82 L396.76 1218.82  Z" fill="#2e8b57" fill-rule="evenodd" fill-opacity="0.6"/>
<polyline clip-path="url(#clip852)" style="stroke:#000000; stroke-linecap:round; stroke-linejoin:round; stroke-width:4; stroke-opacity:1; fill:none" points="396.76,1218.82 396.76,1423.18 470.275,1423.18 470.275,1218.82 396.76,1218.82 "/>
<path clip-path="url(#clip852)" d="M470.275 1196.11 L470.275 1423.18 L543.789 1423.18 L543.789 1196.11 L470.275 1196.11 L470.275 1196.11  Z" fill="#2e8b57" fill-rule="evenodd" fill-opacity="0.6"/>
<polyline clip-path="url(#clip852)" style="stroke:#000000; stroke-linecap:round; stroke-linejoin:round; stroke-width:4; stroke-opacity:1; fill:none" points="470.275,1196.11 470.275,1423.18 543.789,1423.18 543.789,1196.11 470.275,1196.11 "/>
<path clip-path="url(#clip852)" d="M543.789 1014.46 L543.789 1423.18 L617.304 1423.18 L617.304 1014.46 L543.789 1014.46 L543.789 1014.46  Z" fill="#2e8b57" fill-rule="evenodd" fill-opacity="0.6"/>
<polyline clip-path="url(#clip852)" style="stroke:#000000; stroke-linecap:round; stroke-linejoin:round; stroke-width:4; stroke-opacity:1; fill:none" points="543.789,1014.46 543.789,1423.18 617.304,1423.18 617.304,1014.46 543.789,1014.46 "/>
<path clip-path="url(#clip852)" d="M617.304 673.859 L617.304 1423.18 L690.819 1423.18 L690.819 673.859 L617.304 673.859 L617.304 673.859  Z" fill="#2e8b57" fill-rule="evenodd" fill-opacity="0.6"/>
<polyline clip-path="url(#clip852)" style="stroke:#000000; stroke-linecap:round; stroke-linejoin:round; stroke-width:4; stroke-opacity:1; fill:none" points="617.304,673.859 617.304,1423.18 690.819,1423.18 690.819,673.859 617.304,673.859 "/>
<path clip-path="url(#clip852)" d="M690.819 287.846 L690.819 1423.18 L764.334 1423.18 L764.334 287.846 L690.819 287.846 L690.819 287.846  Z" fill="#2e8b57" fill-rule="evenodd" fill-opacity="0.6"/>
<polyline clip-path="url(#clip852)" style="stroke:#000000; stroke-linecap:round; stroke-linejoin:round; stroke-width:4; stroke-opacity:1; fill:none" points="690.819,287.846 690.819,1423.18 764.334,1423.18 764.334,287.846 690.819,287.846 "/>
<path clip-path="url(#clip852)" d="M764.334 106.192 L764.334 1423.18 L837.849 1423.18 L837.849 106.192 L764.334 106.192 L764.334 106.192  Z" fill="#2e8b57" fill-rule="evenodd" fill-opacity="0.6"/>
<polyline clip-path="url(#clip852)" style="stroke:#000000; stroke-linecap:round; stroke-linejoin:round; stroke-width:4; stroke-opacity:1; fill:none" points="764.334,106.192 764.334,1423.18 837.849,1423.18 837.849,106.192 764.334,106.192 "/>
<path clip-path="url(#clip852)" d="M837.849 310.552 L837.849 1423.18 L911.364 1423.18 L911.364 310.552 L837.849 310.552 L837.849 310.552  Z" fill="#2e8b57" fill-rule="evenodd" fill-opacity="0.6"/>
<polyline clip-path="url(#clip852)" style="stroke:#000000; stroke-linecap:round; stroke-linejoin:round; stroke-width:4; stroke-opacity:1; fill:none" points="837.849,310.552 837.849,1423.18 911.364,1423.18 911.364,310.552 837.849,310.552 "/>
<path clip-path="url(#clip852)" d="M911.364 106.192 L911.364 1423.18 L984.879 1423.18 L984.879 106.192 L911.364 106.192 L911.364 106.192  Z" fill="#2e8b57" fill-rule="evenodd" fill-opacity="0.6"/>
<polyline clip-path="url(#clip852)" style="stroke:#000000; stroke-linecap:round; stroke-linejoin:round; stroke-width:4; stroke-opacity:1; fill:none" points="911.364,106.192 911.364,1423.18 984.879,1423.18 984.879,106.192 911.364,106.192 "/>
<path clip-path="url(#clip852)" d="M984.879 424.086 L984.879 1423.18 L1058.39 1423.18 L1058.39 424.086 L984.879 424.086 L984.879 424.086  Z" fill="#2e8b57" fill-rule="evenodd" fill-opacity="0.6"/>
<polyline clip-path="url(#clip852)" style="stroke:#000000; stroke-linecap:round; stroke-linejoin:round; stroke-width:4; stroke-opacity:1; fill:none" points="984.879,424.086 984.879,1423.18 1058.39,1423.18 1058.39,424.086 984.879,424.086 "/>
<path clip-path="url(#clip852)" d="M1058.39 605.739 L1058.39 1423.18 L1131.91 1423.18 L1131.91 605.739 L1058.39 605.739 L1058.39 605.739  Z" fill="#2e8b57" fill-rule="evenodd" fill-opacity="0.6"/>
<polyline clip-path="url(#clip852)" style="stroke:#000000; stroke-linecap:round; stroke-linejoin:round; stroke-width:4; stroke-opacity:1; fill:none" points="1058.39,605.739 1058.39,1423.18 1131.91,1423.18 1131.91,605.739 1058.39,605.739 "/>
<path clip-path="url(#clip852)" d="M1131.91 764.686 L1131.91 1423.18 L1205.42 1423.18 L1205.42 764.686 L1131.91 764.686 L1131.91 764.686  Z" fill="#2e8b57" fill-rule="evenodd" fill-opacity="0.6"/>
<polyline clip-path="url(#clip852)" style="stroke:#000000; stroke-linecap:round; stroke-linejoin:round; stroke-width:4; stroke-opacity:1; fill:none" points="1131.91,764.686 1131.91,1423.18 1205.42,1423.18 1205.42,764.686 1131.91,764.686 "/>
<path clip-path="url(#clip852)" d="M1205.42 741.979 L1205.42 1423.18 L1278.94 1423.18 L1278.94 741.979 L1205.42 741.979 L1205.42 741.979  Z" fill="#2e8b57" fill-rule="evenodd" fill-opacity="0.6"/>
<polyline clip-path="url(#clip852)" style="stroke:#000000; stroke-linecap:round; stroke-linejoin:round; stroke-width:4; stroke-opacity:1; fill:none" points="1205.42,741.979 1205.42,1423.18 1278.94,1423.18 1278.94,741.979 1205.42,741.979 "/>
<path clip-path="url(#clip852)" d="M1278.94 696.566 L1278.94 1423.18 L1352.45 1423.18 L1352.45 696.566 L1278.94 696.566 L1278.94 696.566  Z" fill="#2e8b57" fill-rule="evenodd" fill-opacity="0.6"/>
<polyline clip-path="url(#clip852)" style="stroke:#000000; stroke-linecap:round; stroke-linejoin:round; stroke-width:4; stroke-opacity:1; fill:none" points="1278.94,696.566 1278.94,1423.18 1352.45,1423.18 1352.45,696.566 1278.94,696.566 "/>
<path clip-path="url(#clip852)" d="M1352.45 991.753 L1352.45 1423.18 L1425.97 1423.18 L1425.97 991.753 L1352.45 991.753 L1352.45 991.753  Z" fill="#2e8b57" fill-rule="evenodd" fill-opacity="0.6"/>
<polyline clip-path="url(#clip852)" style="stroke:#000000; stroke-linecap:round; stroke-linejoin:round; stroke-width:4; stroke-opacity:1; fill:none" points="1352.45,991.753 1352.45,1423.18 1425.97,1423.18 1425.97,991.753 1352.45,991.753 "/>
<path clip-path="url(#clip852)" d="M1425.97 1218.82 L1425.97 1423.18 L1499.48 1423.18 L1499.48 1218.82 L1425.97 1218.82 L1425.97 1218.82  Z" fill="#2e8b57" fill-rule="evenodd" fill-opacity="0.6"/>
<polyline clip-path="url(#clip852)" style="stroke:#000000; stroke-linecap:round; stroke-linejoin:round; stroke-width:4; stroke-opacity:1; fill:none" points="1425.97,1218.82 1425.97,1423.18 1499.48,1423.18 1499.48,1218.82 1425.97,1218.82 "/>
<path clip-path="url(#clip852)" d="M1499.48 1332.35 L1499.48 1423.18 L1573 1423.18 L1573 1332.35 L1499.48 1332.35 L1499.48 1332.35  Z" fill="#2e8b57" fill-rule="evenodd" fill-opacity="0.6"/>
<polyline clip-path="url(#clip852)" style="stroke:#000000; stroke-linecap:round; stroke-linejoin:round; stroke-width:4; stroke-opacity:1; fill:none" points="1499.48,1332.35 1499.48,1423.18 1573,1423.18 1573,1332.35 1499.48,1332.35 "/>
<path clip-path="url(#clip852)" d="M1573 1355.06 L1573 1423.18 L1646.51 1423.18 L1646.51 1355.06 L1573 1355.06 L1573 1355.06  Z" fill="#2e8b57" fill-rule="evenodd" fill-opacity="0.6"/>
<polyline clip-path="url(#clip852)" style="stroke:#000000; stroke-linecap:round; stroke-linejoin:round; stroke-width:4; stroke-opacity:1; fill:none" points="1573,1355.06 1573,1423.18 1646.51,1423.18 1646.51,1355.06 1573,1355.06 "/>
<path clip-path="url(#clip852)" d="M1646.51 1286.94 L1646.51 1423.18 L1720.03 1423.18 L1720.03 1286.94 L1646.51 1286.94 L1646.51 1286.94  Z" fill="#2e8b57" fill-rule="evenodd" fill-opacity="0.6"/>
<polyline clip-path="url(#clip852)" style="stroke:#000000; stroke-linecap:round; stroke-linejoin:round; stroke-width:4; stroke-opacity:1; fill:none" points="1646.51,1286.94 1646.51,1423.18 1720.03,1423.18 1720.03,1286.94 1646.51,1286.94 "/>
<path clip-path="url(#clip852)" d="M1720.03 1423.18 L1720.03 1423.18 L1793.54 1423.18 L1793.54 1423.18 L1720.03 1423.18 L1720.03 1423.18  Z" fill="#2e8b57" fill-rule="evenodd" fill-opacity="0.6"/>
<polyline clip-path="url(#clip852)" style="stroke:#000000; stroke-linecap:round; stroke-linejoin:round; stroke-width:4; stroke-opacity:1; fill:none" points="1720.03,1423.18 1720.03,1423.18 1793.54,1423.18 1720.03,1423.18 "/>
<path clip-path="url(#clip852)" d="M1793.54 1400.47 L1793.54 1423.18 L1867.06 1423.18 L1867.06 1400.47 L1793.54 1400.47 L1793.54 1400.47  Z" fill="#2e8b57" fill-rule="evenodd" fill-opacity="0.6"/>
<polyline clip-path="url(#clip852)" style="stroke:#000000; stroke-linecap:round; stroke-linejoin:round; stroke-width:4; stroke-opacity:1; fill:none" points="1793.54,1400.47 1793.54,1423.18 1867.06,1423.18 1867.06,1400.47 1793.54,1400.47 "/>
<path clip-path="url(#clip852)" d="M1867.06 1423.18 L1867.06 1423.18 L1940.57 1423.18 L1940.57 1423.18 L1867.06 1423.18 L1867.06 1423.18  Z" fill="#2e8b57" fill-rule="evenodd" fill-opacity="0.6"/>
<polyline clip-path="url(#clip852)" style="stroke:#000000; stroke-linecap:round; stroke-linejoin:round; stroke-width:4; stroke-opacity:1; fill:none" points="1867.06,1423.18 1867.06,1423.18 1940.57,1423.18 1867.06,1423.18 "/>
<path clip-path="url(#clip852)" d="M1940.57 1423.18 L1940.57 1423.18 L2014.09 1423.18 L2014.09 1423.18 L1940.57 1423.18 L1940.57 1423.18  Z" fill="#2e8b57" fill-rule="evenodd" fill-opacity="0.6"/>
<polyline clip-path="url(#clip852)" style="stroke:#000000; stroke-linecap:round; stroke-linejoin:round; stroke-width:4; stroke-opacity:1; fill:none" points="1940.57,1423.18 1940.57,1423.18 2014.09,1423.18 1940.57,1423.18 "/>
<path clip-path="url(#clip852)" d="M2014.09 1423.18 L2014.09 1423.18 L2087.6 1423.18 L2087.6 1423.18 L2014.09 1423.18 L2014.09 1423.18  Z" fill="#2e8b57" fill-rule="evenodd" fill-opacity="0.6"/>
<polyline clip-path="url(#clip852)" style="stroke:#000000; stroke-linecap:round; stroke-linejoin:round; stroke-width:4; stroke-opacity:1; fill:none" points="2014.09,1423.18 2014.09,1423.18 2087.6,1423.18 2014.09,1423.18 "/>
<path clip-path="url(#clip852)" d="M2087.6 1423.18 L2087.6 1423.18 L2161.12 1423.18 L2161.12 1423.18 L2087.6 1423.18 L2087.6 1423.18  Z" fill="#2e8b57" fill-rule="evenodd" fill-opacity="0.6"/>
<polyline clip-path="url(#clip852)" style="stroke:#000000; stroke-linecap:round; stroke-linejoin:round; stroke-width:4; stroke-opacity:1; fill:none" points="2087.6,1423.18 2087.6,1423.18 2161.12,1423.18 2087.6,1423.18 "/>
<path clip-path="url(#clip852)" d="M2161.12 1400.47 L2161.12 1423.18 L2234.63 1423.18 L2234.63 1400.47 L2161.12 1400.47 L2161.12 1400.47  Z" fill="#2e8b57" fill-rule="evenodd" fill-opacity="0.6"/>
<polyline clip-path="url(#clip852)" style="stroke:#000000; stroke-linecap:round; stroke-linejoin:round; stroke-width:4; stroke-opacity:1; fill:none" points="2161.12,1400.47 2161.12,1423.18 2234.63,1423.18 2234.63,1400.47 2161.12,1400.47 "/>
<circle clip-path="url(#clip852)" style="fill:#2e8b57; stroke:none; fill-opacity:0" cx="360.002" cy="1400.47" r="2"/>
<circle clip-path="url(#clip852)" style="fill:#2e8b57; stroke:none; fill-opacity:0" cx="433.517" cy="1218.82" r="2"/>
<circle clip-path="url(#clip852)" style="fill:#2e8b57; stroke:none; fill-opacity:0" cx="507.032" cy="1196.11" r="2"/>
<circle clip-path="url(#clip852)" style="fill:#2e8b57; stroke:none; fill-opacity:0" cx="580.547" cy="1014.46" r="2"/>
<circle clip-path="url(#clip852)" style="fill:#2e8b57; stroke:none; fill-opacity:0" cx="654.062" cy="673.859" r="2"/>
<circle clip-path="url(#clip852)" style="fill:#2e8b57; stroke:none; fill-opacity:0" cx="727.577" cy="287.846" r="2"/>
<circle clip-path="url(#clip852)" style="fill:#2e8b57; stroke:none; fill-opacity:0" cx="801.092" cy="106.192" r="2"/>
<circle clip-path="url(#clip852)" style="fill:#2e8b57; stroke:none; fill-opacity:0" cx="874.606" cy="310.552" r="2"/>
<circle clip-path="url(#clip852)" style="fill:#2e8b57; stroke:none; fill-opacity:0" cx="948.121" cy="106.192" r="2"/>
<circle clip-path="url(#clip852)" style="fill:#2e8b57; stroke:none; fill-opacity:0" cx="1021.64" cy="424.086" r="2"/>
<circle clip-path="url(#clip852)" style="fill:#2e8b57; stroke:none; fill-opacity:0" cx="1095.15" cy="605.739" r="2"/>
<circle clip-path="url(#clip852)" style="fill:#2e8b57; stroke:none; fill-opacity:0" cx="1168.67" cy="764.686" r="2"/>
<circle clip-path="url(#clip852)" style="fill:#2e8b57; stroke:none; fill-opacity:0" cx="1242.18" cy="741.979" r="2"/>
<circle clip-path="url(#clip852)" style="fill:#2e8b57; stroke:none; fill-opacity:0" cx="1315.7" cy="696.566" r="2"/>
<circle clip-path="url(#clip852)" style="fill:#2e8b57; stroke:none; fill-opacity:0" cx="1389.21" cy="991.753" r="2"/>
<circle clip-path="url(#clip852)" style="fill:#2e8b57; stroke:none; fill-opacity:0" cx="1462.73" cy="1218.82" r="2"/>
<circle clip-path="url(#clip852)" style="fill:#2e8b57; stroke:none; fill-opacity:0" cx="1536.24" cy="1332.35" r="2"/>
<circle clip-path="url(#clip852)" style="fill:#2e8b57; stroke:none; fill-opacity:0" cx="1609.76" cy="1355.06" r="2"/>
<circle clip-path="url(#clip852)" style="fill:#2e8b57; stroke:none; fill-opacity:0" cx="1683.27" cy="1286.94" r="2"/>
<circle clip-path="url(#clip852)" style="fill:#2e8b57; stroke:none; fill-opacity:0" cx="1756.79" cy="1423.18" r="2"/>
<circle clip-path="url(#clip852)" style="fill:#2e8b57; stroke:none; fill-opacity:0" cx="1830.3" cy="1400.47" r="2"/>
<circle clip-path="url(#clip852)" style="fill:#2e8b57; stroke:none; fill-opacity:0" cx="1903.82" cy="1423.18" r="2"/>
<circle clip-path="url(#clip852)" style="fill:#2e8b57; stroke:none; fill-opacity:0" cx="1977.33" cy="1423.18" r="2"/>
<circle clip-path="url(#clip852)" style="fill:#2e8b57; stroke:none; fill-opacity:0" cx="2050.84" cy="1423.18" r="2"/>
<circle clip-path="url(#clip852)" style="fill:#2e8b57; stroke:none; fill-opacity:0" cx="2124.36" cy="1423.18" r="2"/>
<circle clip-path="url(#clip852)" style="fill:#2e8b57; stroke:none; fill-opacity:0" cx="2197.87" cy="1400.47" r="2"/>
<polyline clip-path="url(#clip852)" style="stroke:#ff0000; stroke-linecap:round; stroke-linejoin:round; stroke-width:8; stroke-opacity:1; fill:none" points="1367.09,2740.17 1367.09,-1210.8 "/>
<polyline clip-path="url(#clip852)" style="stroke:#006400; stroke-linecap:round; stroke-linejoin:round; stroke-width:8; stroke-opacity:1; fill:none" stroke-dasharray="32, 20" points="949.053,2740.17 949.053,-1210.8 "/>
<path clip-path="url(#clip850)" d="M1632.33 357.452 L2281.17 357.452 L2281.17 150.092 L1632.33 150.092  Z" fill="#ffffff" fill-rule="evenodd" fill-opacity="1"/>
<polyline clip-path="url(#clip850)" style="stroke:#000000; stroke-linecap:round; stroke-linejoin:round; stroke-width:4; stroke-opacity:1; fill:none" points="1632.33,357.452 2281.17,357.452 2281.17,150.092 1632.33,150.092 1632.33,357.452 "/>
<path clip-path="url(#clip850)" d="M1656.2 222.668 L1799.37 222.668 L1799.37 181.196 L1656.2 181.196 L1656.2 222.668  Z" fill="#2e8b57" fill-rule="evenodd" fill-opacity="0.6"/>
<polyline clip-path="url(#clip850)" style="stroke:#000000; stroke-linecap:round; stroke-linejoin:round; stroke-width:4; stroke-opacity:1; fill:none" points="1656.2,222.668 1799.37,222.668 1799.37,181.196 1656.2,181.196 1656.2,222.668 "/>
<path clip-path="url(#clip850)" d="M1845.48 185.786 L1845.48 190.346 Q1842.82 189.073 1840.46 188.448 Q1838.09 187.823 1835.9 187.823 Q1832.08 187.823 1829.99 189.304 Q1827.93 190.786 1827.93 193.517 Q1827.93 195.809 1829.3 196.99 Q1830.69 198.147 1834.53 198.865 L1837.35 199.443 Q1842.59 200.439 1845.06 202.962 Q1847.56 205.462 1847.56 209.675 Q1847.56 214.698 1844.18 217.29 Q1840.83 219.883 1834.32 219.883 Q1831.87 219.883 1829.09 219.327 Q1826.34 218.772 1823.37 217.684 L1823.37 212.869 Q1826.22 214.466 1828.95 215.277 Q1831.68 216.087 1834.32 216.087 Q1838.33 216.087 1840.5 214.513 Q1842.68 212.939 1842.68 210.022 Q1842.68 207.476 1841.1 206.04 Q1839.55 204.605 1835.99 203.888 L1833.14 203.332 Q1827.91 202.291 1825.57 200.068 Q1823.23 197.846 1823.23 193.888 Q1823.23 189.304 1826.45 186.666 Q1829.69 184.027 1835.36 184.027 Q1837.79 184.027 1840.32 184.467 Q1842.84 184.906 1845.48 185.786 Z" fill="#000000" fill-rule="nonzero" fill-opacity="1" /><path clip-path="url(#clip850)" d="M1854.67 193.286 L1858.93 193.286 L1858.93 219.212 L1854.67 219.212 L1854.67 193.286 M1854.67 183.193 L1858.93 183.193 L1858.93 188.587 L1854.67 188.587 L1854.67 183.193 Z" fill="#000000" fill-rule="nonzero" fill-opacity="1" /><path clip-path="url(#clip850)" d="M1888.03 198.263 Q1889.62 195.392 1891.84 194.027 Q1894.07 192.661 1897.08 192.661 Q1901.13 192.661 1903.33 195.508 Q1905.52 198.332 1905.52 203.564 L1905.52 219.212 L1901.24 219.212 L1901.24 203.703 Q1901.24 199.976 1899.92 198.17 Q1898.6 196.365 1895.9 196.365 Q1892.59 196.365 1890.66 198.564 Q1888.74 200.763 1888.74 204.559 L1888.74 219.212 L1884.46 219.212 L1884.46 203.703 Q1884.46 199.953 1883.14 198.17 Q1881.82 196.365 1879.07 196.365 Q1875.8 196.365 1873.88 198.587 Q1871.96 200.786 1871.96 204.559 L1871.96 219.212 L1867.68 219.212 L1867.68 193.286 L1871.96 193.286 L1871.96 197.314 Q1873.42 194.929 1875.46 193.795 Q1877.49 192.661 1880.29 192.661 Q1883.12 192.661 1885.09 194.096 Q1887.08 195.531 1888.03 198.263 Z" fill="#000000" fill-rule="nonzero" fill-opacity="1" /><path clip-path="url(#clip850)" d="M1913.58 208.98 L1913.58 193.286 L1917.84 193.286 L1917.84 208.818 Q1917.84 212.499 1919.27 214.351 Q1920.71 216.179 1923.58 216.179 Q1927.03 216.179 1929.02 213.98 Q1931.03 211.781 1931.03 207.985 L1931.03 193.286 L1935.29 193.286 L1935.29 219.212 L1931.03 219.212 L1931.03 215.23 Q1929.48 217.591 1927.42 218.749 Q1925.39 219.883 1922.68 219.883 Q1918.21 219.883 1915.9 217.105 Q1913.58 214.327 1913.58 208.98 M1924.3 192.661 L1924.3 192.661 Z" fill="#000000" fill-rule="nonzero" fill-opacity="1" /><path clip-path="url(#clip850)" d="M1944.07 183.193 L1948.33 183.193 L1948.33 219.212 L1944.07 219.212 L1944.07 183.193 Z" fill="#000000" fill-rule="nonzero" fill-opacity="1" /><path clip-path="url(#clip850)" d="M1969.02 206.179 Q1963.86 206.179 1961.87 207.36 Q1959.88 208.54 1959.88 211.388 Q1959.88 213.656 1961.36 214.999 Q1962.86 216.318 1965.43 216.318 Q1968.97 216.318 1971.1 213.818 Q1973.26 211.295 1973.26 207.128 L1973.26 206.179 L1969.02 206.179 M1977.52 204.42 L1977.52 219.212 L1973.26 219.212 L1973.26 215.277 Q1971.8 217.638 1969.62 218.772 Q1967.45 219.883 1964.3 219.883 Q1960.32 219.883 1957.96 217.661 Q1955.62 215.415 1955.62 211.665 Q1955.62 207.29 1958.53 205.068 Q1961.47 202.846 1967.28 202.846 L1973.26 202.846 L1973.26 202.429 Q1973.26 199.49 1971.31 197.892 Q1969.39 196.272 1965.89 196.272 Q1963.67 196.272 1961.57 196.804 Q1959.46 197.337 1957.52 198.402 L1957.52 194.466 Q1959.85 193.564 1962.05 193.124 Q1964.25 192.661 1966.33 192.661 Q1971.96 192.661 1974.74 195.578 Q1977.52 198.494 1977.52 204.42 Z" fill="#000000" fill-rule="nonzero" fill-opacity="1" /><path clip-path="url(#clip850)" d="M1990.5 185.925 L1990.5 193.286 L1999.27 193.286 L1999.27 196.596 L1990.5 196.596 L1990.5 210.67 Q1990.5 213.841 1991.36 214.744 Q1992.24 215.647 1994.9 215.647 L1999.27 215.647 L1999.27 219.212 L1994.9 219.212 Q1989.97 219.212 1988.09 217.383 Q1986.22 215.531 1986.22 210.67 L1986.22 196.596 L1983.09 196.596 L1983.09 193.286 L1986.22 193.286 L1986.22 185.925 L1990.5 185.925 Z" fill="#000000" fill-rule="nonzero" fill-opacity="1" /><path clip-path="url(#clip850)" d="M2027.05 205.184 L2027.05 207.267 L2007.47 207.267 Q2007.75 211.665 2010.11 213.98 Q2012.49 216.272 2016.73 216.272 Q2019.18 216.272 2021.47 215.67 Q2023.79 215.068 2026.06 213.865 L2026.06 217.892 Q2023.77 218.864 2021.36 219.374 Q2018.95 219.883 2016.47 219.883 Q2010.27 219.883 2006.64 216.272 Q2003.02 212.661 2003.02 206.503 Q2003.02 200.138 2006.45 196.411 Q2009.9 192.661 2015.73 192.661 Q2020.96 192.661 2024 196.041 Q2027.05 199.397 2027.05 205.184 M2022.79 203.934 Q2022.75 200.439 2020.83 198.355 Q2018.93 196.272 2015.78 196.272 Q2012.21 196.272 2010.06 198.286 Q2007.93 200.3 2007.61 203.957 L2022.79 203.934 Z" fill="#000000" fill-rule="nonzero" fill-opacity="1" /><path clip-path="url(#clip850)" d="M2051.1 197.221 L2051.1 183.193 L2055.36 183.193 L2055.36 219.212 L2051.1 219.212 L2051.1 215.323 Q2049.76 217.638 2047.7 218.772 Q2045.66 219.883 2042.79 219.883 Q2038.09 219.883 2035.13 216.133 Q2032.19 212.383 2032.19 206.272 Q2032.19 200.161 2035.13 196.411 Q2038.09 192.661 2042.79 192.661 Q2045.66 192.661 2047.7 193.795 Q2049.76 194.906 2051.1 197.221 M2036.59 206.272 Q2036.59 210.971 2038.51 213.656 Q2040.45 216.318 2043.83 216.318 Q2047.21 216.318 2049.16 213.656 Q2051.1 210.971 2051.1 206.272 Q2051.1 201.573 2049.16 198.911 Q2047.21 196.226 2043.83 196.226 Q2040.45 196.226 2038.51 198.911 Q2036.59 201.573 2036.59 206.272 Z" fill="#000000" fill-rule="nonzero" fill-opacity="1" /><polyline clip-path="url(#clip850)" style="stroke:#ff0000; stroke-linecap:round; stroke-linejoin:round; stroke-width:8; stroke-opacity:1; fill:none" points="1656.2,253.772 1799.37,253.772 "/>
<path clip-path="url(#clip850)" d="M1839.25 239.663 Q1834.16 239.663 1831.15 243.459 Q1828.16 247.256 1828.16 253.806 Q1828.16 260.334 1831.15 264.13 Q1834.16 267.927 1839.25 267.927 Q1844.34 267.927 1847.31 264.13 Q1850.29 260.334 1850.29 253.806 Q1850.29 247.256 1847.31 243.459 Q1844.34 239.663 1839.25 239.663 M1839.25 235.867 Q1846.52 235.867 1850.87 240.751 Q1855.22 245.612 1855.22 253.806 Q1855.22 261.978 1850.87 266.862 Q1846.52 271.723 1839.25 271.723 Q1831.96 271.723 1827.59 266.862 Q1823.23 262.001 1823.23 253.806 Q1823.23 245.612 1827.59 240.751 Q1831.96 235.867 1839.25 235.867 Z" fill="#000000" fill-rule="nonzero" fill-opacity="1" /><path clip-path="url(#clip850)" d="M1880.96 258.112 Q1880.96 253.413 1879.02 250.751 Q1877.1 248.066 1873.72 248.066 Q1870.34 248.066 1868.4 250.751 Q1866.47 253.413 1866.47 258.112 Q1866.47 262.811 1868.4 265.496 Q1870.34 268.158 1873.72 268.158 Q1877.1 268.158 1879.02 265.496 Q1880.96 262.811 1880.96 258.112 M1866.47 249.061 Q1867.82 246.746 1869.85 245.635 Q1871.91 244.501 1874.76 244.501 Q1879.48 244.501 1882.42 248.251 Q1885.39 252.001 1885.39 258.112 Q1885.39 264.223 1882.42 267.973 Q1879.48 271.723 1874.76 271.723 Q1871.91 271.723 1869.85 270.612 Q1867.82 269.478 1866.47 267.163 L1866.47 271.052 L1862.19 271.052 L1862.19 235.033 L1866.47 235.033 L1866.47 249.061 Z" fill="#000000" fill-rule="nonzero" fill-opacity="1" /><path clip-path="url(#clip850)" d="M1908.97 245.89 L1908.97 249.918 Q1907.17 248.992 1905.22 248.529 Q1903.28 248.066 1901.2 248.066 Q1898.02 248.066 1896.43 249.038 Q1894.85 250.01 1894.85 251.955 Q1894.85 253.436 1895.99 254.293 Q1897.12 255.126 1900.55 255.89 L1902.01 256.214 Q1906.54 257.186 1908.44 258.968 Q1910.36 260.728 1910.36 263.899 Q1910.36 267.51 1907.49 269.617 Q1904.65 271.723 1899.65 271.723 Q1897.56 271.723 1895.29 271.306 Q1893.05 270.913 1890.55 270.103 L1890.55 265.705 Q1892.91 266.931 1895.2 267.556 Q1897.49 268.158 1899.74 268.158 Q1902.75 268.158 1904.37 267.14 Q1905.99 266.098 1905.99 264.223 Q1905.99 262.487 1904.81 261.561 Q1903.65 260.635 1899.69 259.779 L1898.21 259.431 Q1894.25 258.598 1892.49 256.885 Q1890.73 255.149 1890.73 252.14 Q1890.73 248.482 1893.33 246.492 Q1895.92 244.501 1900.69 244.501 Q1903.05 244.501 1905.13 244.848 Q1907.21 245.195 1908.97 245.89 Z" fill="#000000" fill-rule="nonzero" fill-opacity="1" /><path clip-path="url(#clip850)" d="M1939.32 257.024 L1939.32 259.107 L1919.74 259.107 Q1920.02 263.505 1922.38 265.82 Q1924.76 268.112 1929 268.112 Q1931.45 268.112 1933.74 267.51 Q1936.06 266.908 1938.33 265.705 L1938.33 269.732 Q1936.03 270.704 1933.63 271.214 Q1931.22 271.723 1928.74 271.723 Q1922.54 271.723 1918.9 268.112 Q1915.29 264.501 1915.29 258.343 Q1915.29 251.978 1918.72 248.251 Q1922.17 244.501 1928 244.501 Q1933.23 244.501 1936.27 247.881 Q1939.32 251.237 1939.32 257.024 M1935.06 255.774 Q1935.02 252.279 1933.09 250.195 Q1931.2 248.112 1928.05 248.112 Q1924.48 248.112 1922.33 250.126 Q1920.2 252.14 1919.88 255.797 L1935.06 255.774 Z" fill="#000000" fill-rule="nonzero" fill-opacity="1" /><path clip-path="url(#clip850)" d="M1961.33 249.107 Q1960.62 248.691 1959.76 248.506 Q1958.93 248.297 1957.91 248.297 Q1954.3 248.297 1952.35 250.658 Q1950.43 252.996 1950.43 257.394 L1950.43 271.052 L1946.15 271.052 L1946.15 245.126 L1950.43 245.126 L1950.43 249.154 Q1951.77 246.793 1953.93 245.658 Q1956.08 244.501 1959.16 244.501 Q1959.6 244.501 1960.13 244.57 Q1960.66 244.617 1961.31 244.732 L1961.33 249.107 Z" fill="#000000" fill-rule="nonzero" fill-opacity="1" /><path clip-path="url(#clip850)" d="M1962.75 245.126 L1967.26 245.126 L1975.36 266.885 L1983.46 245.126 L1987.98 245.126 L1978.26 271.052 L1972.47 271.052 L1962.75 245.126 Z" fill="#000000" fill-rule="nonzero" fill-opacity="1" /><path clip-path="url(#clip850)" d="M2016.03 257.024 L2016.03 259.107 L1996.45 259.107 Q1996.73 263.505 1999.09 265.82 Q2001.47 268.112 2005.71 268.112 Q2008.16 268.112 2010.45 267.51 Q2012.77 266.908 2015.04 265.705 L2015.04 269.732 Q2012.75 270.704 2010.34 271.214 Q2007.93 271.723 2005.45 271.723 Q1999.25 271.723 1995.62 268.112 Q1992.01 264.501 1992.01 258.343 Q1992.01 251.978 1995.43 248.251 Q1998.88 244.501 2004.71 244.501 Q2009.95 244.501 2012.98 247.881 Q2016.03 251.237 2016.03 257.024 M2011.77 255.774 Q2011.73 252.279 2009.81 250.195 Q2007.91 248.112 2004.76 248.112 Q2001.2 248.112 1999.04 250.126 Q1996.91 252.14 1996.59 255.797 L2011.77 255.774 Z" fill="#000000" fill-rule="nonzero" fill-opacity="1" /><path clip-path="url(#clip850)" d="M2040.08 249.061 L2040.08 235.033 L2044.34 235.033 L2044.34 271.052 L2040.08 271.052 L2040.08 267.163 Q2038.74 269.478 2036.68 270.612 Q2034.64 271.723 2031.77 271.723 Q2027.08 271.723 2024.11 267.973 Q2021.17 264.223 2021.17 258.112 Q2021.17 252.001 2024.11 248.251 Q2027.08 244.501 2031.77 244.501 Q2034.64 244.501 2036.68 245.635 Q2038.74 246.746 2040.08 249.061 M2025.57 258.112 Q2025.57 262.811 2027.49 265.496 Q2029.44 268.158 2032.82 268.158 Q2036.2 268.158 2038.14 265.496 Q2040.08 262.811 2040.08 258.112 Q2040.08 253.413 2038.14 250.751 Q2036.2 248.066 2032.82 248.066 Q2029.44 248.066 2027.49 250.751 Q2025.57 253.413 2025.57 258.112 Z" fill="#000000" fill-rule="nonzero" fill-opacity="1" /><path clip-path="url(#clip850)" d="M2072.4 237.765 L2072.4 245.126 L2081.17 245.126 L2081.17 248.436 L2072.4 248.436 L2072.4 262.51 Q2072.4 265.681 2073.26 266.584 Q2074.14 267.487 2076.8 267.487 L2081.17 267.487 L2081.17 271.052 L2076.8 271.052 Q2071.87 271.052 2069.99 269.223 Q2068.12 267.371 2068.12 262.51 L2068.12 248.436 L2064.99 248.436 L2064.99 245.126 L2068.12 245.126 L2068.12 237.765 L2072.4 237.765 Z" fill="#000000" fill-rule="nonzero" fill-opacity="1" /><path clip-path="url(#clip850)" d="M2108.95 257.024 L2108.95 259.107 L2089.37 259.107 Q2089.64 263.505 2092.01 265.82 Q2094.39 268.112 2098.63 268.112 Q2101.08 268.112 2103.37 267.51 Q2105.69 266.908 2107.95 265.705 L2107.95 269.732 Q2105.66 270.704 2103.26 271.214 Q2100.85 271.723 2098.37 271.723 Q2092.17 271.723 2088.53 268.112 Q2084.92 264.501 2084.92 258.343 Q2084.92 251.978 2088.35 248.251 Q2091.8 244.501 2097.63 244.501 Q2102.86 244.501 2105.89 247.881 Q2108.95 251.237 2108.95 257.024 M2104.69 255.774 Q2104.64 252.279 2102.72 250.195 Q2100.82 248.112 2097.68 248.112 Q2094.11 248.112 2091.96 250.126 Q2089.83 252.14 2089.51 255.797 L2104.69 255.774 Z" fill="#000000" fill-rule="nonzero" fill-opacity="1" /><path clip-path="url(#clip850)" d="M2130.96 249.107 Q2130.25 248.691 2129.39 248.506 Q2128.56 248.297 2127.54 248.297 Q2123.93 248.297 2121.98 250.658 Q2120.06 252.996 2120.06 257.394 L2120.06 271.052 L2115.78 271.052 L2115.78 245.126 L2120.06 245.126 L2120.06 249.154 Q2121.4 246.793 2123.56 245.658 Q2125.71 244.501 2128.79 244.501 Q2129.23 244.501 2129.76 244.57 Q2130.29 244.617 2130.94 244.732 L2130.96 249.107 Z" fill="#000000" fill-rule="nonzero" fill-opacity="1" /><path clip-path="url(#clip850)" d="M2154.78 250.103 Q2156.38 247.232 2158.6 245.867 Q2160.82 244.501 2163.83 244.501 Q2167.88 244.501 2170.08 247.348 Q2172.28 250.172 2172.28 255.404 L2172.28 271.052 L2168 271.052 L2168 255.543 Q2168 251.816 2166.68 250.01 Q2165.36 248.205 2162.65 248.205 Q2159.34 248.205 2157.42 250.404 Q2155.5 252.603 2155.5 256.399 L2155.5 271.052 L2151.22 271.052 L2151.22 255.543 Q2151.22 251.793 2149.9 250.01 Q2148.58 248.205 2145.82 248.205 Q2142.56 248.205 2140.64 250.427 Q2138.72 252.626 2138.72 256.399 L2138.72 271.052 L2134.44 271.052 L2134.44 245.126 L2138.72 245.126 L2138.72 249.154 Q2140.18 246.769 2142.21 245.635 Q2144.25 244.501 2147.05 244.501 Q2149.88 244.501 2151.84 245.936 Q2153.83 247.371 2154.78 250.103 Z" fill="#000000" fill-rule="nonzero" fill-opacity="1" /><path clip-path="url(#clip850)" d="M2180.78 245.126 L2185.04 245.126 L2185.04 271.052 L2180.78 271.052 L2180.78 245.126 M2180.78 235.033 L2185.04 235.033 L2185.04 240.427 L2180.78 240.427 L2180.78 235.033 Z" fill="#000000" fill-rule="nonzero" fill-opacity="1" /><path clip-path="url(#clip850)" d="M2215.5 255.404 L2215.5 271.052 L2211.24 271.052 L2211.24 255.543 Q2211.24 251.862 2209.81 250.033 Q2208.37 248.205 2205.5 248.205 Q2202.05 248.205 2200.06 250.404 Q2198.07 252.603 2198.07 256.399 L2198.07 271.052 L2193.79 271.052 L2193.79 245.126 L2198.07 245.126 L2198.07 249.154 Q2199.6 246.816 2201.66 245.658 Q2203.74 244.501 2206.45 244.501 Q2210.92 244.501 2213.21 247.279 Q2215.5 250.033 2215.5 255.404 Z" fill="#000000" fill-rule="nonzero" fill-opacity="1" /><path clip-path="url(#clip850)" d="M2235.78 258.019 Q2230.62 258.019 2228.63 259.2 Q2226.63 260.38 2226.63 263.228 Q2226.63 265.496 2228.12 266.839 Q2229.62 268.158 2232.19 268.158 Q2235.73 268.158 2237.86 265.658 Q2240.01 263.135 2240.01 258.968 L2240.01 258.019 L2235.78 258.019 M2244.27 256.26 L2244.27 271.052 L2240.01 271.052 L2240.01 267.117 Q2238.56 269.478 2236.38 270.612 Q2234.2 271.723 2231.06 271.723 Q2227.07 271.723 2224.71 269.501 Q2222.38 267.255 2222.38 263.505 Q2222.38 259.13 2225.29 256.908 Q2228.23 254.686 2234.04 254.686 L2240.01 254.686 L2240.01 254.269 Q2240.01 251.33 2238.07 249.732 Q2236.15 248.112 2232.65 248.112 Q2230.43 248.112 2228.32 248.644 Q2226.22 249.177 2224.27 250.242 L2224.27 246.306 Q2226.61 245.404 2228.81 244.964 Q2231.01 244.501 2233.09 244.501 Q2238.72 244.501 2241.5 247.418 Q2244.27 250.334 2244.27 256.26 Z" fill="#000000" fill-rule="nonzero" fill-opacity="1" /><path clip-path="url(#clip850)" d="M2253.05 235.033 L2257.31 235.033 L2257.31 271.052 L2253.05 271.052 L2253.05 235.033 Z" fill="#000000" fill-rule="nonzero" fill-opacity="1" /><polyline clip-path="url(#clip850)" style="stroke:#006400; stroke-linecap:round; stroke-linejoin:round; stroke-width:8; stroke-opacity:1; fill:none" stroke-dasharray="32, 20" points="1656.2,305.612 1799.37,305.612 "/>
<path clip-path="url(#clip850)" d="M1845.48 289.466 L1845.48 294.026 Q1842.82 292.753 1840.46 292.128 Q1838.09 291.503 1835.9 291.503 Q1832.08 291.503 1829.99 292.984 Q1827.93 294.466 1827.93 297.197 Q1827.93 299.489 1829.3 300.67 Q1830.69 301.827 1834.53 302.545 L1837.35 303.123 Q1842.59 304.119 1845.06 306.642 Q1847.56 309.142 1847.56 313.355 Q1847.56 318.378 1844.18 320.97 Q1840.83 323.563 1834.32 323.563 Q1831.87 323.563 1829.09 323.007 Q1826.34 322.452 1823.37 321.364 L1823.37 316.549 Q1826.22 318.146 1828.95 318.957 Q1831.68 319.767 1834.32 319.767 Q1838.33 319.767 1840.5 318.193 Q1842.68 316.619 1842.68 313.702 Q1842.68 311.156 1841.1 309.72 Q1839.55 308.285 1835.99 307.568 L1833.14 307.012 Q1827.91 305.971 1825.57 303.748 Q1823.23 301.526 1823.23 297.568 Q1823.23 292.984 1826.45 290.346 Q1829.69 287.707 1835.36 287.707 Q1837.79 287.707 1840.32 288.147 Q1842.84 288.586 1845.48 289.466 Z" fill="#000000" fill-rule="nonzero" fill-opacity="1" /><path clip-path="url(#clip850)" d="M1854.67 296.966 L1858.93 296.966 L1858.93 322.892 L1854.67 322.892 L1854.67 296.966 M1854.67 286.873 L1858.93 286.873 L1858.93 292.267 L1854.67 292.267 L1854.67 286.873 Z" fill="#000000" fill-rule="nonzero" fill-opacity="1" /><path clip-path="url(#clip850)" d="M1888.03 301.943 Q1889.62 299.072 1891.84 297.707 Q1894.07 296.341 1897.08 296.341 Q1901.13 296.341 1903.33 299.188 Q1905.52 302.012 1905.52 307.244 L1905.52 322.892 L1901.24 322.892 L1901.24 307.383 Q1901.24 303.656 1899.92 301.85 Q1898.6 300.045 1895.9 300.045 Q1892.59 300.045 1890.66 302.244 Q1888.74 304.443 1888.74 308.239 L1888.74 322.892 L1884.46 322.892 L1884.46 307.383 Q1884.46 303.633 1883.14 301.85 Q1881.82 300.045 1879.07 300.045 Q1875.8 300.045 1873.88 302.267 Q1871.96 304.466 1871.96 308.239 L1871.96 322.892 L1867.68 322.892 L1867.68 296.966 L1871.96 296.966 L1871.96 300.994 Q1873.42 298.609 1875.46 297.475 Q1877.49 296.341 1880.29 296.341 Q1883.12 296.341 1885.09 297.776 Q1887.08 299.211 1888.03 301.943 Z" fill="#000000" fill-rule="nonzero" fill-opacity="1" /><path clip-path="url(#clip850)" d="M1913.58 312.66 L1913.58 296.966 L1917.84 296.966 L1917.84 312.498 Q1917.84 316.179 1919.27 318.031 Q1920.71 319.859 1923.58 319.859 Q1927.03 319.859 1929.02 317.66 Q1931.03 315.461 1931.03 311.665 L1931.03 296.966 L1935.29 296.966 L1935.29 322.892 L1931.03 322.892 L1931.03 318.91 Q1929.48 321.271 1927.42 322.429 Q1925.39 323.563 1922.68 323.563 Q1918.21 323.563 1915.9 320.785 Q1913.58 318.007 1913.58 312.66 M1924.3 296.341 L1924.3 296.341 Z" fill="#000000" fill-rule="nonzero" fill-opacity="1" /><path clip-path="url(#clip850)" d="M1944.07 286.873 L1948.33 286.873 L1948.33 322.892 L1944.07 322.892 L1944.07 286.873 Z" fill="#000000" fill-rule="nonzero" fill-opacity="1" /><path clip-path="url(#clip850)" d="M1969.02 309.859 Q1963.86 309.859 1961.87 311.04 Q1959.88 312.22 1959.88 315.068 Q1959.88 317.336 1961.36 318.679 Q1962.86 319.998 1965.43 319.998 Q1968.97 319.998 1971.1 317.498 Q1973.26 314.975 1973.26 310.808 L1973.26 309.859 L1969.02 309.859 M1977.52 308.1 L1977.52 322.892 L1973.26 322.892 L1973.26 318.957 Q1971.8 321.318 1969.62 322.452 Q1967.45 323.563 1964.3 323.563 Q1960.32 323.563 1957.96 321.341 Q1955.62 319.095 1955.62 315.345 Q1955.62 310.97 1958.53 308.748 Q1961.47 306.526 1967.28 306.526 L1973.26 306.526 L1973.26 306.109 Q1973.26 303.17 1971.31 301.572 Q1969.39 299.952 1965.89 299.952 Q1963.67 299.952 1961.57 300.484 Q1959.46 301.017 1957.52 302.082 L1957.52 298.146 Q1959.85 297.244 1962.05 296.804 Q1964.25 296.341 1966.33 296.341 Q1971.96 296.341 1974.74 299.258 Q1977.52 302.174 1977.52 308.1 Z" fill="#000000" fill-rule="nonzero" fill-opacity="1" /><path clip-path="url(#clip850)" d="M1990.5 289.605 L1990.5 296.966 L1999.27 296.966 L1999.27 300.276 L1990.5 300.276 L1990.5 314.35 Q1990.5 317.521 1991.36 318.424 Q1992.24 319.327 1994.9 319.327 L1999.27 319.327 L1999.27 322.892 L1994.9 322.892 Q1989.97 322.892 1988.09 321.063 Q1986.22 319.211 1986.22 314.35 L1986.22 300.276 L1983.09 300.276 L1983.09 296.966 L1986.22 296.966 L1986.22 289.605 L1990.5 289.605 Z" fill="#000000" fill-rule="nonzero" fill-opacity="1" /><path clip-path="url(#clip850)" d="M2027.05 308.864 L2027.05 310.947 L2007.47 310.947 Q2007.75 315.345 2010.11 317.66 Q2012.49 319.952 2016.73 319.952 Q2019.18 319.952 2021.47 319.35 Q2023.79 318.748 2026.06 317.545 L2026.06 321.572 Q2023.77 322.544 2021.36 323.054 Q2018.95 323.563 2016.47 323.563 Q2010.27 323.563 2006.64 319.952 Q2003.02 316.341 2003.02 310.183 Q2003.02 303.818 2006.45 300.091 Q2009.9 296.341 2015.73 296.341 Q2020.96 296.341 2024 299.721 Q2027.05 303.077 2027.05 308.864 M2022.79 307.614 Q2022.75 304.119 2020.83 302.035 Q2018.93 299.952 2015.78 299.952 Q2012.21 299.952 2010.06 301.966 Q2007.93 303.98 2007.61 307.637 L2022.79 307.614 Z" fill="#000000" fill-rule="nonzero" fill-opacity="1" /><path clip-path="url(#clip850)" d="M2051.1 300.901 L2051.1 286.873 L2055.36 286.873 L2055.36 322.892 L2051.1 322.892 L2051.1 319.003 Q2049.76 321.318 2047.7 322.452 Q2045.66 323.563 2042.79 323.563 Q2038.09 323.563 2035.13 319.813 Q2032.19 316.063 2032.19 309.952 Q2032.19 303.841 2035.13 300.091 Q2038.09 296.341 2042.79 296.341 Q2045.66 296.341 2047.7 297.475 Q2049.76 298.586 2051.1 300.901 M2036.59 309.952 Q2036.59 314.651 2038.51 317.336 Q2040.45 319.998 2043.83 319.998 Q2047.21 319.998 2049.16 317.336 Q2051.1 314.651 2051.1 309.952 Q2051.1 305.253 2049.16 302.591 Q2047.21 299.906 2043.83 299.906 Q2040.45 299.906 2038.51 302.591 Q2036.59 305.253 2036.59 309.952 Z" fill="#000000" fill-rule="nonzero" fill-opacity="1" /><path clip-path="url(#clip850)" d="M2099.39 301.943 Q2100.99 299.072 2103.21 297.707 Q2105.43 296.341 2108.44 296.341 Q2112.49 296.341 2114.69 299.188 Q2116.89 302.012 2116.89 307.244 L2116.89 322.892 L2112.61 322.892 L2112.61 307.383 Q2112.61 303.656 2111.29 301.85 Q2109.97 300.045 2107.26 300.045 Q2103.95 300.045 2102.03 302.244 Q2100.11 304.443 2100.11 308.239 L2100.11 322.892 L2095.82 322.892 L2095.82 307.383 Q2095.82 303.633 2094.51 301.85 Q2093.19 300.045 2090.43 300.045 Q2087.17 300.045 2085.25 302.267 Q2083.32 304.466 2083.32 308.239 L2083.32 322.892 L2079.04 322.892 L2079.04 296.966 L2083.32 296.966 L2083.32 300.994 Q2084.78 298.609 2086.82 297.475 Q2088.86 296.341 2091.66 296.341 Q2094.48 296.341 2096.45 297.776 Q2098.44 299.211 2099.39 301.943 Z" fill="#000000" fill-rule="nonzero" fill-opacity="1" /><path clip-path="url(#clip850)" d="M2147.56 308.864 L2147.56 310.947 L2127.98 310.947 Q2128.26 315.345 2130.62 317.66 Q2133 319.952 2137.24 319.952 Q2139.69 319.952 2141.98 319.35 Q2144.3 318.748 2146.57 317.545 L2146.57 321.572 Q2144.27 322.544 2141.87 323.054 Q2139.46 323.563 2136.98 323.563 Q2130.78 323.563 2127.14 319.952 Q2123.53 316.341 2123.53 310.183 Q2123.53 303.818 2126.96 300.091 Q2130.41 296.341 2136.24 296.341 Q2141.47 296.341 2144.51 299.721 Q2147.56 303.077 2147.56 308.864 M2143.3 307.614 Q2143.26 304.119 2141.33 302.035 Q2139.44 299.952 2136.29 299.952 Q2132.72 299.952 2130.57 301.966 Q2128.44 303.98 2128.12 307.637 L2143.3 307.614 Z" fill="#000000" fill-rule="nonzero" fill-opacity="1" /><path clip-path="url(#clip850)" d="M2171.61 300.901 L2171.61 286.873 L2175.87 286.873 L2175.87 322.892 L2171.61 322.892 L2171.61 319.003 Q2170.27 321.318 2168.21 322.452 Q2166.17 323.563 2163.3 323.563 Q2158.6 323.563 2155.64 319.813 Q2152.7 316.063 2152.7 309.952 Q2152.7 303.841 2155.64 300.091 Q2158.6 296.341 2163.3 296.341 Q2166.17 296.341 2168.21 297.475 Q2170.27 298.586 2171.61 300.901 M2157.1 309.952 Q2157.1 314.651 2159.02 317.336 Q2160.96 319.998 2164.34 319.998 Q2167.72 319.998 2169.67 317.336 Q2171.61 314.651 2171.61 309.952 Q2171.61 305.253 2169.67 302.591 Q2167.72 299.906 2164.34 299.906 Q2160.96 299.906 2159.02 302.591 Q2157.1 305.253 2157.1 309.952 Z" fill="#000000" fill-rule="nonzero" fill-opacity="1" /><path clip-path="url(#clip850)" d="M2184.64 296.966 L2188.9 296.966 L2188.9 322.892 L2184.64 322.892 L2184.64 296.966 M2184.64 286.873 L2188.9 286.873 L2188.9 292.267 L2184.64 292.267 L2184.64 286.873 Z" fill="#000000" fill-rule="nonzero" fill-opacity="1" /><path clip-path="url(#clip850)" d="M2209.6 309.859 Q2204.44 309.859 2202.44 311.04 Q2200.45 312.22 2200.45 315.068 Q2200.45 317.336 2201.94 318.679 Q2203.44 319.998 2206.01 319.998 Q2209.55 319.998 2211.68 317.498 Q2213.83 314.975 2213.83 310.808 L2213.83 309.859 L2209.6 309.859 M2218.09 308.1 L2218.09 322.892 L2213.83 322.892 L2213.83 318.957 Q2212.38 321.318 2210.2 322.452 Q2208.02 323.563 2204.88 323.563 Q2200.89 323.563 2198.53 321.341 Q2196.19 319.095 2196.19 315.345 Q2196.19 310.97 2199.11 308.748 Q2202.05 306.526 2207.86 306.526 L2213.83 306.526 L2213.83 306.109 Q2213.83 303.17 2211.89 301.572 Q2209.97 299.952 2206.47 299.952 Q2204.25 299.952 2202.14 300.484 Q2200.04 301.017 2198.09 302.082 L2198.09 298.146 Q2200.43 297.244 2202.63 296.804 Q2204.83 296.341 2206.91 296.341 Q2212.54 296.341 2215.31 299.258 Q2218.09 302.174 2218.09 308.1 Z" fill="#000000" fill-rule="nonzero" fill-opacity="1" /><path clip-path="url(#clip850)" d="M2248.42 307.244 L2248.42 322.892 L2244.16 322.892 L2244.16 307.383 Q2244.16 303.702 2242.72 301.873 Q2241.29 300.045 2238.42 300.045 Q2234.97 300.045 2232.98 302.244 Q2230.99 304.443 2230.99 308.239 L2230.99 322.892 L2226.7 322.892 L2226.7 296.966 L2230.99 296.966 L2230.99 300.994 Q2232.51 298.656 2234.57 297.498 Q2236.66 296.341 2239.37 296.341 Q2243.83 296.341 2246.12 299.119 Q2248.42 301.873 2248.42 307.244 Z" fill="#000000" fill-rule="nonzero" fill-opacity="1" /></svg>
