<?xml version="1.0" encoding="utf-8"?>
<svg xmlns="http://www.w3.org/2000/svg" xmlns:xlink="http://www.w3.org/1999/xlink" width="600" height="400" viewBox="0 0 2400 1600">
<defs>
  <clipPath id="clip330">
    <rect x="0" y="0" width="2400" height="1600"/>
  </clipPath>
</defs>
<path clip-path="url(#clip330)" d="M0 1600 L2400 1600 L2400 8.88178e-14 L0 8.88178e-14  Z" fill="#ffffff" fill-rule="evenodd" fill-opacity="1"/>
<defs>
  <clipPath id="clip331">
    <rect x="235" y="106" width="2118" height="1318"/>
  </clipPath>
</defs>
<path clip-path="url(#clip330)" d="M205.121 1423.18 L2352.76 1423.18 L2352.76 106.192 L205.121 106.192  Z" fill="#ffffff" fill-rule="evenodd" fill-opacity="1"/>
<defs>
  <clipPath id="clip332">
    <rect x="205" y="106" width="2149" height="1318"/>
  </clipPath>
</defs>
<polyline clip-path="url(#clip332)" style="stroke:#000000; stroke-linecap:round; stroke-linejoin:round; stroke-width:2; stroke-opacity:0.1; fill:none" points="227.675,1423.18 227.675,106.192 "/>
<polyline clip-path="url(#clip332)" style="stroke:#000000; stroke-linecap:round; stroke-linejoin:round; stroke-width:2; stroke-opacity:0.1; fill:none" points="705.522,1423.18 705.522,106.192 "/>
<polyline clip-path="url(#clip332)" style="stroke:#000000; stroke-linecap:round; stroke-linejoin:round; stroke-width:2; stroke-opacity:0.1; fill:none" points="1183.37,1423.18 1183.37,106.192 "/>
<polyline clip-path="url(#clip332)" style="stroke:#000000; stroke-linecap:round; stroke-linejoin:round; stroke-width:2; stroke-opacity:0.1; fill:none" points="1661.22,1423.18 1661.22,106.192 "/>
<polyline clip-path="url(#clip332)" style="stroke:#000000; stroke-linecap:round; stroke-linejoin:round; stroke-width:2; stroke-opacity:0.1; fill:none" points="2139.06,1423.18 2139.06,106.192 "/>
<polyline clip-path="url(#clip332)" style="stroke:#000000; stroke-linecap:round; stroke-linejoin:round; stroke-width:2; stroke-opacity:0.1; fill:none" points="205.121,1423.18 2352.76,1423.18 "/>
<polyline clip-path="url(#clip332)" style="stroke:#000000; stroke-linecap:round; stroke-linejoin:round; stroke-width:2; stroke-opacity:0.1; fill:none" points="205.121,1151.64 2352.76,1151.64 "/>
<polyline clip-path="url(#clip332)" style="stroke:#000000; stroke-linecap:round; stroke-linejoin:round; stroke-width:2; stroke-opacity:0.1; fill:none" points="205.121,880.092 2352.76,880.092 "/>
<polyline clip-path="url(#clip332)" style="stroke:#000000; stroke-linecap:round; stroke-linejoin:round; stroke-width:2; stroke-opacity:0.1; fill:none" points="205.121,608.548 2352.76,608.548 "/>
<polyline clip-path="url(#clip332)" style="stroke:#000000; stroke-linecap:round; stroke-linejoin:round; stroke-width:2; stroke-opacity:0.1; fill:none" points="205.121,337.004 2352.76,337.004 "/>
<polyline clip-path="url(#clip330)" style="stroke:#000000; stroke-linecap:round; stroke-linejoin:round; stroke-width:4; stroke-opacity:1; fill:none" points="205.121,1423.18 2352.76,1423.18 "/>
<polyline clip-path="url(#clip330)" style="stroke:#000000; stroke-linecap:round; stroke-linejoin:round; stroke-width:4; stroke-opacity:1; fill:none" points="227.675,1423.18 227.675,1404.28 "/>
<polyline clip-path="url(#clip330)" style="stroke:#000000; stroke-linecap:round; stroke-linejoin:round; stroke-width:4; stroke-opacity:1; fill:none" points="705.522,1423.18 705.522,1404.28 "/>
<polyline clip-path="url(#clip330)" style="stroke:#000000; stroke-linecap:round; stroke-linejoin:round; stroke-width:4; stroke-opacity:1; fill:none" points="1183.37,1423.18 1183.37,1404.28 "/>
<polyline clip-path="url(#clip330)" style="stroke:#000000; stroke-linecap:round; stroke-linejoin:round; stroke-width:4; stroke-opacity:1; fill:none" points="1661.22,1423.18 1661.22,1404.28 "/>
<polyline clip-path="url(#clip330)" style="stroke:#000000; stroke-linecap:round; stroke-linejoin:round; stroke-width:4; stroke-opacity:1; fill:none" points="2139.06,1423.18 2139.06,1404.28 "/>
<path clip-path="url(#clip330)" d="M227.675 1454.1 Q224.064 1454.1 222.236 1457.66 Q220.43 1461.2 220.43 1468.33 Q220.43 1475.44 222.236 1479.01 Q224.064 1482.55 227.675 1482.55 Q231.31 1482.55 233.115 1479.01 Q234.944 1475.44 234.944 1468.33 Q234.944 1461.2 233.115 1457.66 Q231.31 1454.1 227.675 1454.1 M227.675 1450.39 Q233.486 1450.39 236.541 1455 Q239.62 1459.58 239.62 1468.33 Q239.62 1477.06 236.541 1481.67 Q233.486 1486.25 227.675 1486.25 Q221.865 1486.25 218.787 1481.67 Q215.731 1477.06 215.731 1468.33 Q215.731 1459.58 218.787 1455 Q221.865 1450.39 227.675 1450.39 Z" fill="#000000" fill-rule="nonzero" fill-opacity="1" /><path clip-path="url(#clip330)" d="M669.215 1481.64 L685.534 1481.64 L685.534 1485.58 L663.59 1485.58 L663.59 1481.64 Q666.252 1478.89 670.835 1474.26 Q675.441 1469.61 676.622 1468.27 Q678.867 1465.74 679.747 1464.01 Q680.65 1462.25 680.65 1460.56 Q680.65 1457.8 678.705 1456.07 Q676.784 1454.33 673.682 1454.33 Q671.483 1454.33 669.029 1455.09 Q666.599 1455.86 663.821 1457.41 L663.821 1452.69 Q666.645 1451.55 669.099 1450.97 Q671.552 1450.39 673.59 1450.39 Q678.96 1450.39 682.154 1453.08 Q685.349 1455.77 685.349 1460.26 Q685.349 1462.39 684.539 1464.31 Q683.751 1466.2 681.645 1468.8 Q681.066 1469.47 677.964 1472.69 Q674.863 1475.88 669.215 1481.64 Z" fill="#000000" fill-rule="nonzero" fill-opacity="1" /><path clip-path="url(#clip330)" d="M695.395 1451.02 L713.751 1451.02 L713.751 1454.96 L699.677 1454.96 L699.677 1463.43 Q700.696 1463.08 701.714 1462.92 Q702.733 1462.73 703.751 1462.73 Q709.538 1462.73 712.918 1465.9 Q716.298 1469.08 716.298 1474.49 Q716.298 1480.07 712.825 1483.17 Q709.353 1486.25 703.034 1486.25 Q700.858 1486.25 698.589 1485.88 Q696.344 1485.51 693.937 1484.77 L693.937 1480.07 Q696.02 1481.2 698.242 1481.76 Q700.464 1482.32 702.941 1482.32 Q706.946 1482.32 709.284 1480.21 Q711.622 1478.1 711.622 1474.49 Q711.622 1470.88 709.284 1468.77 Q706.946 1466.67 702.941 1466.67 Q701.066 1466.67 699.191 1467.08 Q697.339 1467.5 695.395 1468.38 L695.395 1451.02 Z" fill="#000000" fill-rule="nonzero" fill-opacity="1" /><path clip-path="url(#clip330)" d="M735.51 1454.1 Q731.899 1454.1 730.071 1457.66 Q728.265 1461.2 728.265 1468.33 Q728.265 1475.44 730.071 1479.01 Q731.899 1482.55 735.51 1482.55 Q739.145 1482.55 740.95 1479.01 Q742.779 1475.44 742.779 1468.33 Q742.779 1461.2 740.95 1457.66 Q739.145 1454.1 735.51 1454.1 M735.51 1450.39 Q741.321 1450.39 744.376 1455 Q747.455 1459.58 747.455 1468.33 Q747.455 1477.06 744.376 1481.67 Q741.321 1486.25 735.51 1486.25 Q729.7 1486.25 726.622 1481.67 Q723.566 1477.06 723.566 1468.33 Q723.566 1459.58 726.622 1455 Q729.7 1450.39 735.51 1450.39 Z" fill="#000000" fill-rule="nonzero" fill-opacity="1" /><path clip-path="url(#clip330)" d="M1142.99 1451.02 L1161.34 1451.02 L1161.34 1454.96 L1147.27 1454.96 L1147.27 1463.43 Q1148.29 1463.08 1149.31 1462.92 Q1150.33 1462.73 1151.34 1462.73 Q1157.13 1462.73 1160.51 1465.9 Q1163.89 1469.08 1163.89 1474.49 Q1163.89 1480.07 1160.42 1483.17 Q1156.95 1486.25 1150.63 1486.25 Q1148.45 1486.25 1146.18 1485.88 Q1143.94 1485.51 1141.53 1484.77 L1141.53 1480.07 Q1143.61 1481.2 1145.83 1481.76 Q1148.06 1482.32 1150.53 1482.32 Q1154.54 1482.32 1156.88 1480.21 Q1159.21 1478.1 1159.21 1474.49 Q1159.21 1470.88 1156.88 1468.77 Q1154.54 1466.67 1150.53 1466.67 Q1148.66 1466.67 1146.78 1467.08 Q1144.93 1467.5 1142.99 1468.38 L1142.99 1451.02 Z" fill="#000000" fill-rule="nonzero" fill-opacity="1" /><path clip-path="url(#clip330)" d="M1183.1 1454.1 Q1179.49 1454.1 1177.66 1457.66 Q1175.86 1461.2 1175.86 1468.33 Q1175.86 1475.44 1177.66 1479.01 Q1179.49 1482.55 1183.1 1482.55 Q1186.74 1482.55 1188.54 1479.01 Q1190.37 1475.44 1190.37 1468.33 Q1190.37 1461.2 1188.54 1457.66 Q1186.74 1454.1 1183.1 1454.1 M1183.1 1450.39 Q1188.91 1450.39 1191.97 1455 Q1195.05 1459.58 1195.05 1468.33 Q1195.05 1477.06 1191.97 1481.67 Q1188.91 1486.25 1183.1 1486.25 Q1177.29 1486.25 1174.21 1481.67 Q1171.16 1477.06 1171.16 1468.33 Q1171.16 1459.58 1174.21 1455 Q1177.29 1450.39 1183.1 1450.39 Z" fill="#000000" fill-rule="nonzero" fill-opacity="1" /><path clip-path="url(#clip330)" d="M1213.26 1454.1 Q1209.65 1454.1 1207.82 1457.66 Q1206.02 1461.2 1206.02 1468.33 Q1206.02 1475.44 1207.82 1479.01 Q1209.65 1482.55 1213.26 1482.55 Q1216.9 1482.55 1218.7 1479.01 Q1220.53 1475.44 1220.53 1468.33 Q1220.53 1461.2 1218.7 1457.66 Q1216.9 1454.1 1213.26 1454.1 M1213.26 1450.39 Q1219.07 1450.39 1222.13 1455 Q1225.21 1459.58 1225.21 1468.33 Q1225.21 1477.06 1222.13 1481.67 Q1219.07 1486.25 1213.26 1486.25 Q1207.45 1486.25 1204.38 1481.67 Q1201.32 1477.06 1201.32 1468.33 Q1201.32 1459.58 1204.38 1455 Q1207.45 1450.39 1213.26 1450.39 Z" fill="#000000" fill-rule="nonzero" fill-opacity="1" /><path clip-path="url(#clip330)" d="M1619.49 1451.02 L1641.71 1451.02 L1641.71 1453.01 L1629.17 1485.58 L1624.28 1485.58 L1636.09 1454.96 L1619.49 1454.96 L1619.49 1451.02 Z" fill="#000000" fill-rule="nonzero" fill-opacity="1" /><path clip-path="url(#clip330)" d="M1650.88 1451.02 L1669.24 1451.02 L1669.24 1454.96 L1655.16 1454.96 L1655.16 1463.43 Q1656.18 1463.08 1657.2 1462.92 Q1658.22 1462.73 1659.24 1462.73 Q1665.02 1462.73 1668.4 1465.9 Q1671.78 1469.08 1671.78 1474.49 Q1671.78 1480.07 1668.31 1483.17 Q1664.84 1486.25 1658.52 1486.25 Q1656.34 1486.25 1654.07 1485.88 Q1651.83 1485.51 1649.42 1484.77 L1649.42 1480.07 Q1651.51 1481.2 1653.73 1481.76 Q1655.95 1482.32 1658.43 1482.32 Q1662.43 1482.32 1664.77 1480.21 Q1667.11 1478.1 1667.11 1474.49 Q1667.11 1470.88 1664.77 1468.77 Q1662.43 1466.67 1658.43 1466.67 Q1656.55 1466.67 1654.68 1467.08 Q1652.82 1467.5 1650.88 1468.38 L1650.88 1451.02 Z" fill="#000000" fill-rule="nonzero" fill-opacity="1" /><path clip-path="url(#clip330)" d="M1691 1454.1 Q1687.38 1454.1 1685.56 1457.66 Q1683.75 1461.2 1683.75 1468.33 Q1683.75 1475.44 1685.56 1479.01 Q1687.38 1482.55 1691 1482.55 Q1694.63 1482.55 1696.44 1479.01 Q1698.26 1475.44 1698.26 1468.33 Q1698.26 1461.2 1696.44 1457.66 Q1694.63 1454.1 1691 1454.1 M1691 1450.39 Q1696.81 1450.39 1699.86 1455 Q1702.94 1459.58 1702.94 1468.33 Q1702.94 1477.06 1699.86 1481.67 Q1696.81 1486.25 1691 1486.25 Q1685.19 1486.25 1682.11 1481.67 Q1679.05 1477.06 1679.05 1468.33 Q1679.05 1459.58 1682.11 1455 Q1685.19 1450.39 1691 1450.39 Z" fill="#000000" fill-rule="nonzero" fill-opacity="1" /><path clip-path="url(#clip330)" d="M2083.59 1481.64 L2091.23 1481.64 L2091.23 1455.28 L2082.92 1456.95 L2082.92 1452.69 L2091.18 1451.02 L2095.86 1451.02 L2095.86 1481.64 L2103.5 1481.64 L2103.5 1485.58 L2083.59 1485.58 L2083.59 1481.64 Z" fill="#000000" fill-rule="nonzero" fill-opacity="1" /><path clip-path="url(#clip330)" d="M2122.94 1454.1 Q2119.33 1454.1 2117.5 1457.66 Q2115.69 1461.2 2115.69 1468.33 Q2115.69 1475.44 2117.5 1479.01 Q2119.33 1482.55 2122.94 1482.55 Q2126.57 1482.55 2128.38 1479.01 Q2130.21 1475.44 2130.21 1468.33 Q2130.21 1461.2 2128.38 1457.66 Q2126.57 1454.1 2122.94 1454.1 M2122.94 1450.39 Q2128.75 1450.39 2131.81 1455 Q2134.88 1459.58 2134.88 1468.33 Q2134.88 1477.06 2131.81 1481.67 Q2128.75 1486.25 2122.94 1486.25 Q2117.13 1486.25 2114.05 1481.67 Q2111 1477.06 2111 1468.33 Q2111 1459.58 2114.05 1455 Q2117.13 1450.39 2122.94 1450.39 Z" fill="#000000" fill-rule="nonzero" fill-opacity="1" /><path clip-path="url(#clip330)" d="M2153.1 1454.1 Q2149.49 1454.1 2147.66 1457.66 Q2145.86 1461.2 2145.86 1468.33 Q2145.86 1475.44 2147.66 1479.01 Q2149.49 1482.55 2153.1 1482.55 Q2156.74 1482.55 2158.54 1479.01 Q2160.37 1475.44 2160.37 1468.33 Q2160.37 1461.2 2158.54 1457.66 Q2156.74 1454.1 2153.1 1454.1 M2153.1 1450.39 Q2158.91 1450.39 2161.97 1455 Q2165.05 1459.58 2165.05 1468.33 Q2165.05 1477.06 2161.97 1481.67 Q2158.91 1486.25 2153.1 1486.25 Q2147.29 1486.25 2144.21 1481.67 Q2141.16 1477.06 2141.16 1468.33 Q2141.16 1459.58 2144.21 1455 Q2147.29 1450.39 2153.1 1450.39 Z" fill="#000000" fill-rule="nonzero" fill-opacity="1" /><path clip-path="url(#clip330)" d="M2183.26 1454.1 Q2179.65 1454.1 2177.82 1457.66 Q2176.02 1461.2 2176.02 1468.33 Q2176.02 1475.44 2177.82 1479.01 Q2179.65 1482.55 2183.26 1482.55 Q2186.9 1482.55 2188.7 1479.01 Q2190.53 1475.44 2190.53 1468.33 Q2190.53 1461.2 2188.7 1457.66 Q2186.9 1454.1 2183.26 1454.1 M2183.26 1450.39 Q2189.07 1450.39 2192.13 1455 Q2195.21 1459.58 2195.21 1468.33 Q2195.21 1477.06 2192.13 1481.67 Q2189.07 1486.25 2183.26 1486.25 Q2177.45 1486.25 2174.38 1481.67 Q2171.32 1477.06 2171.32 1468.33 Q2171.32 1459.58 2174.38 1455 Q2177.45 1450.39 2183.26 1450.39 Z" fill="#000000" fill-rule="nonzero" fill-opacity="1" /><path clip-path="url(#clip330)" d="M1051.36 1520.52 L1091.56 1520.52 L1091.56 1525.93 L1074.69 1525.93 L1074.69 1568.04 L1068.23 1568.04 L1068.23 1525.93 L1051.36 1525.93 L1051.36 1520.52 Z" fill="#000000" fill-rule="nonzero" fill-opacity="1" /><path clip-path="url(#clip330)" d="M1116.93 1548.76 L1116.93 1551.62 L1090 1551.62 Q1090.39 1557.67 1093.63 1560.85 Q1096.91 1564 1102.74 1564 Q1106.11 1564 1109.26 1563.17 Q1112.44 1562.35 1115.56 1560.69 L1115.56 1566.23 Q1112.41 1567.57 1109.1 1568.27 Q1105.79 1568.97 1102.39 1568.97 Q1093.86 1568.97 1088.86 1564 Q1083.89 1559.04 1083.89 1550.57 Q1083.89 1541.82 1088.6 1536.69 Q1093.35 1531.54 1101.37 1531.54 Q1108.56 1531.54 1112.73 1536.18 Q1116.93 1540.8 1116.93 1548.76 M1111.07 1547.04 Q1111.01 1542.23 1108.37 1539.37 Q1105.76 1536.5 1101.43 1536.5 Q1096.53 1536.5 1093.57 1539.27 Q1090.64 1542.04 1090.2 1547.07 L1111.07 1547.04 Z" fill="#000000" fill-rule="nonzero" fill-opacity="1" /><path clip-path="url(#clip330)" d="M1147.2 1537.87 Q1146.21 1537.3 1145.04 1537.04 Q1143.89 1536.76 1142.49 1536.76 Q1137.52 1536.76 1134.85 1540 Q1132.21 1543.22 1132.21 1549.27 L1132.21 1568.04 L1126.32 1568.04 L1126.32 1532.4 L1132.21 1532.4 L1132.21 1537.93 Q1134.05 1534.69 1137.02 1533.13 Q1139.98 1531.54 1144.21 1531.54 Q1144.81 1531.54 1145.55 1531.63 Q1146.28 1531.7 1147.17 1531.85 L1147.2 1537.87 Z" fill="#000000" fill-rule="nonzero" fill-opacity="1" /><path clip-path="url(#clip330)" d="M1179.95 1539.24 Q1182.15 1535.29 1185.2 1533.41 Q1188.26 1531.54 1192.4 1531.54 Q1197.97 1531.54 1200.99 1535.45 Q1204.01 1539.33 1204.01 1546.53 L1204.01 1568.04 L1198.13 1568.04 L1198.13 1546.72 Q1198.13 1541.59 1196.31 1539.11 Q1194.5 1536.63 1190.77 1536.63 Q1186.22 1536.63 1183.58 1539.65 Q1180.94 1542.68 1180.94 1547.9 L1180.94 1568.04 L1175.05 1568.04 L1175.05 1546.72 Q1175.05 1541.56 1173.24 1539.11 Q1171.42 1536.63 1167.63 1536.63 Q1163.15 1536.63 1160.5 1539.68 Q1157.86 1542.71 1157.86 1547.9 L1157.86 1568.04 L1151.97 1568.04 L1151.97 1532.4 L1157.86 1532.4 L1157.86 1537.93 Q1159.87 1534.66 1162.67 1533.1 Q1165.47 1531.54 1169.32 1531.54 Q1173.2 1531.54 1175.91 1533.51 Q1178.65 1535.48 1179.95 1539.24 Z" fill="#000000" fill-rule="nonzero" fill-opacity="1" /><path clip-path="url(#clip330)" d="M1215.7 1532.4 L1221.55 1532.4 L1221.55 1568.04 L1215.7 1568.04 L1215.7 1532.4 M1215.7 1518.52 L1221.55 1518.52 L1221.55 1525.93 L1215.7 1525.93 L1215.7 1518.52 Z" fill="#000000" fill-rule="nonzero" fill-opacity="1" /><path clip-path="url(#clip330)" d="M1263.44 1546.53 L1263.44 1568.04 L1257.58 1568.04 L1257.58 1546.72 Q1257.58 1541.66 1255.61 1539.14 Q1253.63 1536.63 1249.69 1536.63 Q1244.95 1536.63 1242.21 1539.65 Q1239.47 1542.68 1239.47 1547.9 L1239.47 1568.04 L1233.58 1568.04 L1233.58 1532.4 L1239.47 1532.4 L1239.47 1537.93 Q1241.57 1534.72 1244.4 1533.13 Q1247.27 1531.54 1250.99 1531.54 Q1257.14 1531.54 1260.29 1535.36 Q1263.44 1539.14 1263.44 1546.53 Z" fill="#000000" fill-rule="nonzero" fill-opacity="1" /><path clip-path="url(#clip330)" d="M1291.32 1550.12 Q1284.22 1550.12 1281.48 1551.75 Q1278.75 1553.37 1278.75 1557.29 Q1278.75 1560.4 1280.78 1562.25 Q1282.85 1564.07 1286.39 1564.07 Q1291.26 1564.07 1294.18 1560.63 Q1297.14 1557.16 1297.14 1551.43 L1297.14 1550.12 L1291.32 1550.12 M1303 1547.71 L1303 1568.04 L1297.14 1568.04 L1297.14 1562.63 Q1295.14 1565.88 1292.15 1567.44 Q1289.16 1568.97 1284.83 1568.97 Q1279.35 1568.97 1276.11 1565.91 Q1272.89 1562.82 1272.89 1557.67 Q1272.89 1551.65 1276.9 1548.6 Q1280.94 1545.54 1288.93 1545.54 L1297.14 1545.54 L1297.14 1544.97 Q1297.14 1540.93 1294.47 1538.73 Q1291.83 1536.5 1287.02 1536.5 Q1283.97 1536.5 1281.07 1537.23 Q1278.17 1537.97 1275.5 1539.43 L1275.5 1534.02 Q1278.72 1532.78 1281.74 1532.17 Q1284.76 1531.54 1287.63 1531.54 Q1295.36 1531.54 1299.18 1535.55 Q1303 1539.56 1303 1547.71 Z" fill="#000000" fill-rule="nonzero" fill-opacity="1" /><path clip-path="url(#clip330)" d="M1315.06 1518.52 L1320.92 1518.52 L1320.92 1568.04 L1315.06 1568.04 L1315.06 1518.52 Z" fill="#000000" fill-rule="nonzero" fill-opacity="1" /><path clip-path="url(#clip330)" d="M1359.56 1562.7 L1359.56 1581.6 L1353.67 1581.6 L1353.67 1532.4 L1359.56 1532.4 L1359.56 1537.81 Q1361.41 1534.62 1364.21 1533.1 Q1367.04 1531.54 1370.95 1531.54 Q1377.45 1531.54 1381.49 1536.69 Q1385.56 1541.85 1385.56 1550.25 Q1385.56 1558.65 1381.49 1563.81 Q1377.45 1568.97 1370.95 1568.97 Q1367.04 1568.97 1364.21 1567.44 Q1361.41 1565.88 1359.56 1562.7 M1379.48 1550.25 Q1379.48 1543.79 1376.81 1540.13 Q1374.17 1536.44 1369.52 1536.44 Q1364.88 1536.44 1362.2 1540.13 Q1359.56 1543.79 1359.56 1550.25 Q1359.56 1556.71 1362.2 1560.4 Q1364.88 1564.07 1369.52 1564.07 Q1374.17 1564.07 1376.81 1560.4 Q1379.48 1556.71 1379.48 1550.25 Z" fill="#000000" fill-rule="nonzero" fill-opacity="1" /><path clip-path="url(#clip330)" d="M1415.93 1537.87 Q1414.94 1537.3 1413.76 1537.04 Q1412.62 1536.76 1411.22 1536.76 Q1406.25 1536.76 1403.58 1540 Q1400.94 1543.22 1400.94 1549.27 L1400.94 1568.04 L1395.05 1568.04 L1395.05 1532.4 L1400.94 1532.4 L1400.94 1537.93 Q1402.78 1534.69 1405.74 1533.13 Q1408.7 1531.54 1412.94 1531.54 Q1413.54 1531.54 1414.27 1531.63 Q1415.01 1531.7 1415.9 1531.85 L1415.93 1537.87 Z" fill="#000000" fill-rule="nonzero" fill-opacity="1" /><path clip-path="url(#clip330)" d="M1422.07 1532.4 L1427.93 1532.4 L1427.93 1568.04 L1422.07 1568.04 L1422.07 1532.4 M1422.07 1518.52 L1427.93 1518.52 L1427.93 1525.93 L1422.07 1525.93 L1422.07 1518.52 Z" fill="#000000" fill-rule="nonzero" fill-opacity="1" /><path clip-path="url(#clip330)" d="M1465.84 1533.76 L1465.84 1539.24 Q1463.35 1537.87 1460.84 1537.2 Q1458.36 1536.5 1455.81 1536.5 Q1450.11 1536.5 1446.96 1540.13 Q1443.81 1543.73 1443.81 1550.25 Q1443.81 1556.78 1446.96 1560.4 Q1450.11 1564 1455.81 1564 Q1458.36 1564 1460.84 1563.33 Q1463.35 1562.63 1465.84 1561.26 L1465.84 1566.68 Q1463.38 1567.82 1460.74 1568.39 Q1458.13 1568.97 1455.17 1568.97 Q1447.12 1568.97 1442.38 1563.91 Q1437.64 1558.85 1437.64 1550.25 Q1437.64 1541.53 1442.41 1536.53 Q1447.22 1531.54 1455.55 1531.54 Q1458.26 1531.54 1460.84 1532.11 Q1463.42 1532.65 1465.84 1533.76 Z" fill="#000000" fill-rule="nonzero" fill-opacity="1" /><path clip-path="url(#clip330)" d="M1506.51 1548.76 L1506.51 1551.62 L1479.59 1551.62 Q1479.97 1557.67 1483.21 1560.85 Q1486.49 1564 1492.32 1564 Q1495.69 1564 1498.84 1563.17 Q1502.02 1562.35 1505.14 1560.69 L1505.14 1566.23 Q1501.99 1567.57 1498.68 1568.27 Q1495.37 1568.97 1491.97 1568.97 Q1483.44 1568.97 1478.44 1564 Q1473.47 1559.04 1473.47 1550.57 Q1473.47 1541.82 1478.19 1536.69 Q1482.93 1531.54 1490.95 1531.54 Q1498.14 1531.54 1502.31 1536.18 Q1506.51 1540.8 1506.51 1548.76 M1500.66 1547.04 Q1500.59 1542.23 1497.95 1539.37 Q1495.34 1536.5 1491.01 1536.5 Q1486.11 1536.5 1483.15 1539.27 Q1480.22 1542.04 1479.78 1547.07 L1500.66 1547.04 Z" fill="#000000" fill-rule="nonzero" fill-opacity="1" /><polyline clip-path="url(#clip330)" style="stroke:#000000; stroke-linecap:round; stroke-linejoin:round; stroke-width:4; stroke-opacity:1; fill:none" points="205.121,1423.18 205.121,106.192 "/>
<polyline clip-path="url(#clip330)" style="stroke:#000000; stroke-linecap:round; stroke-linejoin:round; stroke-width:4; stroke-opacity:1; fill:none" points="205.121,1423.18 224.019,1423.18 "/>
<polyline clip-path="url(#clip330)" style="stroke:#000000; stroke-linecap:round; stroke-linejoin:round; stroke-width:4; stroke-opacity:1; fill:none" points="205.121,1151.64 224.019,1151.64 "/>
<polyline clip-path="url(#clip330)" style="stroke:#000000; stroke-linecap:round; stroke-linejoin:round; stroke-width:4; stroke-opacity:1; fill:none" points="205.121,880.092 224.019,880.092 "/>
<polyline clip-path="url(#clip330)" style="stroke:#000000; stroke-linecap:round; stroke-linejoin:round; stroke-width:4; stroke-opacity:1; fill:none" points="205.121,608.548 224.019,608.548 "/>
<polyline clip-path="url(#clip330)" style="stroke:#000000; stroke-linecap:round; stroke-linejoin:round; stroke-width:4; stroke-opacity:1; fill:none" points="205.121,337.004 224.019,337.004 "/>
<path clip-path="url(#clip330)" d="M157.177 1408.98 Q153.566 1408.98 151.737 1412.54 Q149.931 1416.08 149.931 1423.21 Q149.931 1430.32 151.737 1433.89 Q153.566 1437.43 157.177 1437.43 Q160.811 1437.43 162.616 1433.89 Q164.445 1430.32 164.445 1423.21 Q164.445 1416.08 162.616 1412.54 Q160.811 1408.98 157.177 1408.98 M157.177 1405.27 Q162.987 1405.27 166.042 1409.88 Q169.121 1414.46 169.121 1423.21 Q169.121 1431.94 166.042 1436.55 Q162.987 1441.13 157.177 1441.13 Q151.366 1441.13 148.288 1436.55 Q145.232 1431.94 145.232 1423.21 Q145.232 1414.46 148.288 1409.88 Q151.366 1405.27 157.177 1405.27 Z" fill="#000000" fill-rule="nonzero" fill-opacity="1" /><path clip-path="url(#clip330)" d="M121.043 1164.98 L137.362 1164.98 L137.362 1168.92 L115.418 1168.92 L115.418 1164.98 Q118.08 1162.23 122.663 1157.6 Q127.269 1152.94 128.45 1151.6 Q130.695 1149.08 131.575 1147.34 Q132.478 1145.58 132.478 1143.89 Q132.478 1141.14 130.533 1139.4 Q128.612 1137.67 125.51 1137.67 Q123.311 1137.67 120.857 1138.43 Q118.427 1139.19 115.649 1140.74 L115.649 1136.02 Q118.473 1134.89 120.927 1134.31 Q123.38 1133.73 125.418 1133.73 Q130.788 1133.73 133.982 1136.42 Q137.177 1139.1 137.177 1143.59 Q137.177 1145.72 136.367 1147.64 Q135.579 1149.54 133.473 1152.13 Q132.894 1152.8 129.792 1156.02 Q126.691 1159.22 121.043 1164.98 Z" fill="#000000" fill-rule="nonzero" fill-opacity="1" /><path clip-path="url(#clip330)" d="M157.177 1137.43 Q153.566 1137.43 151.737 1141 Q149.931 1144.54 149.931 1151.67 Q149.931 1158.78 151.737 1162.34 Q153.566 1165.88 157.177 1165.88 Q160.811 1165.88 162.616 1162.34 Q164.445 1158.78 164.445 1151.67 Q164.445 1144.54 162.616 1141 Q160.811 1137.43 157.177 1137.43 M157.177 1133.73 Q162.987 1133.73 166.042 1138.34 Q169.121 1142.92 169.121 1151.67 Q169.121 1160.4 166.042 1165 Q162.987 1169.59 157.177 1169.59 Q151.366 1169.59 148.288 1165 Q145.232 1160.4 145.232 1151.67 Q145.232 1142.92 148.288 1138.34 Q151.366 1133.73 157.177 1133.73 Z" fill="#000000" fill-rule="nonzero" fill-opacity="1" /><path clip-path="url(#clip330)" d="M129.862 866.886 L118.056 885.335 L129.862 885.335 L129.862 866.886 M128.635 862.812 L134.515 862.812 L134.515 885.335 L139.445 885.335 L139.445 889.224 L134.515 889.224 L134.515 897.372 L129.862 897.372 L129.862 889.224 L114.26 889.224 L114.26 884.71 L128.635 862.812 Z" fill="#000000" fill-rule="nonzero" fill-opacity="1" /><path clip-path="url(#clip330)" d="M157.177 865.891 Q153.566 865.891 151.737 869.456 Q149.931 872.997 149.931 880.127 Q149.931 887.233 151.737 890.798 Q153.566 894.34 157.177 894.34 Q160.811 894.34 162.616 890.798 Q164.445 887.233 164.445 880.127 Q164.445 872.997 162.616 869.456 Q160.811 865.891 157.177 865.891 M157.177 862.187 Q162.987 862.187 166.042 866.794 Q169.121 871.377 169.121 880.127 Q169.121 888.854 166.042 893.46 Q162.987 898.043 157.177 898.043 Q151.366 898.043 148.288 893.46 Q145.232 888.854 145.232 880.127 Q145.232 871.377 148.288 866.794 Q151.366 862.187 157.177 862.187 Z" fill="#000000" fill-rule="nonzero" fill-opacity="1" /><path clip-path="url(#clip330)" d="M127.593 606.685 Q124.445 606.685 122.593 608.838 Q120.765 610.99 120.765 614.74 Q120.765 618.467 122.593 620.643 Q124.445 622.796 127.593 622.796 Q130.742 622.796 132.57 620.643 Q134.422 618.467 134.422 614.74 Q134.422 610.99 132.57 608.838 Q130.742 606.685 127.593 606.685 M136.876 592.032 L136.876 596.291 Q135.117 595.458 133.311 595.018 Q131.529 594.578 129.769 594.578 Q125.14 594.578 122.686 597.703 Q120.255 600.828 119.908 607.148 Q121.274 605.134 123.334 604.069 Q125.394 602.981 127.871 602.981 Q133.08 602.981 136.089 606.152 Q139.121 609.301 139.121 614.74 Q139.121 620.064 135.973 623.282 Q132.825 626.5 127.593 626.5 Q121.598 626.5 118.427 621.916 Q115.256 617.31 115.256 608.583 Q115.256 600.389 119.144 595.528 Q123.033 590.643 129.584 590.643 Q131.343 590.643 133.126 590.99 Q134.931 591.338 136.876 592.032 Z" fill="#000000" fill-rule="nonzero" fill-opacity="1" /><path clip-path="url(#clip330)" d="M157.177 594.347 Q153.566 594.347 151.737 597.912 Q149.931 601.453 149.931 608.583 Q149.931 615.689 151.737 619.254 Q153.566 622.796 157.177 622.796 Q160.811 622.796 162.616 619.254 Q164.445 615.689 164.445 608.583 Q164.445 601.453 162.616 597.912 Q160.811 594.347 157.177 594.347 M157.177 590.643 Q162.987 590.643 166.042 595.25 Q169.121 599.833 169.121 608.583 Q169.121 617.31 166.042 621.916 Q162.987 626.5 157.177 626.5 Q151.366 626.5 148.288 621.916 Q145.232 617.31 145.232 608.583 Q145.232 599.833 148.288 595.25 Q151.366 590.643 157.177 590.643 Z" fill="#000000" fill-rule="nonzero" fill-opacity="1" /><path clip-path="url(#clip330)" d="M127.015 337.872 Q123.681 337.872 121.76 339.655 Q119.862 341.437 119.862 344.562 Q119.862 347.687 121.76 349.47 Q123.681 351.252 127.015 351.252 Q130.348 351.252 132.269 349.47 Q134.191 347.664 134.191 344.562 Q134.191 341.437 132.269 339.655 Q130.371 337.872 127.015 337.872 M122.339 335.882 Q119.33 335.141 117.64 333.081 Q115.973 331.021 115.973 328.058 Q115.973 323.914 118.913 321.507 Q121.876 319.099 127.015 319.099 Q132.177 319.099 135.117 321.507 Q138.056 323.914 138.056 328.058 Q138.056 331.021 136.367 333.081 Q134.7 335.141 131.714 335.882 Q135.093 336.669 136.968 338.96 Q138.867 341.252 138.867 344.562 Q138.867 349.585 135.788 352.271 Q132.732 354.956 127.015 354.956 Q121.297 354.956 118.218 352.271 Q115.163 349.585 115.163 344.562 Q115.163 341.252 117.061 338.96 Q118.959 336.669 122.339 335.882 M120.626 328.498 Q120.626 331.183 122.293 332.687 Q123.982 334.192 127.015 334.192 Q130.024 334.192 131.714 332.687 Q133.427 331.183 133.427 328.498 Q133.427 325.812 131.714 324.308 Q130.024 322.803 127.015 322.803 Q123.982 322.803 122.293 324.308 Q120.626 325.812 120.626 328.498 Z" fill="#000000" fill-rule="nonzero" fill-opacity="1" /><path clip-path="url(#clip330)" d="M157.177 322.803 Q153.566 322.803 151.737 326.368 Q149.931 329.91 149.931 337.039 Q149.931 344.146 151.737 347.71 Q153.566 351.252 157.177 351.252 Q160.811 351.252 162.616 347.71 Q164.445 344.146 164.445 337.039 Q164.445 329.91 162.616 326.368 Q160.811 322.803 157.177 322.803 M157.177 319.099 Q162.987 319.099 166.042 323.706 Q169.121 328.289 169.121 337.039 Q169.121 345.766 166.042 350.372 Q162.987 354.956 157.177 354.956 Q151.366 354.956 148.288 350.372 Q145.232 345.766 145.232 337.039 Q145.232 328.289 148.288 323.706 Q151.366 319.099 157.177 319.099 Z" fill="#000000" fill-rule="nonzero" fill-opacity="1" /><path clip-path="url(#clip330)" d="M20.1444 820.545 L26.9239 820.545 Q23.9002 823.792 22.4043 827.484 Q20.9083 831.144 20.9083 835.282 Q20.9083 843.43 25.9054 847.758 Q30.8707 852.087 40.2919 852.087 Q49.6813 852.087 54.6784 847.758 Q59.6436 843.43 59.6436 835.282 Q59.6436 831.144 58.1477 827.484 Q56.6518 823.792 53.6281 820.545 L60.3439 820.545 Q62.6355 823.919 63.7814 827.706 Q64.9272 831.462 64.9272 835.664 Q64.9272 846.453 58.3387 852.66 Q51.7183 858.867 40.2919 858.867 Q28.8336 858.867 22.2451 852.66 Q15.6248 846.453 15.6248 835.664 Q15.6248 831.399 16.7706 827.643 Q17.8846 823.855 20.1444 820.545 Z" fill="#000000" fill-rule="nonzero" fill-opacity="1" /><path clip-path="url(#clip330)" d="M32.4621 797.056 Q32.4621 801.766 36.1542 804.503 Q39.8145 807.241 46.212 807.241 Q52.6095 807.241 56.3017 804.535 Q59.9619 801.798 59.9619 797.056 Q59.9619 792.377 56.2698 789.64 Q52.5777 786.902 46.212 786.902 Q39.8781 786.902 36.186 789.64 Q32.4621 792.377 32.4621 797.056 M27.4968 797.056 Q27.4968 789.417 32.4621 785.056 Q37.4273 780.696 46.212 780.696 Q54.9649 780.696 59.9619 785.056 Q64.9272 789.417 64.9272 797.056 Q64.9272 804.726 59.9619 809.087 Q54.9649 813.415 46.212 813.415 Q37.4273 813.415 32.4621 809.087 Q27.4968 804.726 27.4968 797.056 Z" fill="#000000" fill-rule="nonzero" fill-opacity="1" /><path clip-path="url(#clip330)" d="M49.9359 771.593 L28.3562 771.593 L28.3562 765.736 L49.7131 765.736 Q54.7739 765.736 57.3202 763.763 Q59.8346 761.79 59.8346 757.843 Q59.8346 753.1 56.8109 750.363 Q53.7872 747.594 48.5673 747.594 L28.3562 747.594 L28.3562 741.738 L64.0042 741.738 L64.0042 747.594 L58.5296 747.594 Q61.7762 749.727 63.3676 752.559 Q64.9272 755.36 64.9272 759.084 Q64.9272 765.227 61.1078 768.41 Q57.2883 771.593 49.9359 771.593 M27.4968 756.856 L27.4968 756.856 Z" fill="#000000" fill-rule="nonzero" fill-opacity="1" /><path clip-path="url(#clip330)" d="M42.4881 700.042 L64.0042 700.042 L64.0042 705.899 L42.679 705.899 Q37.6183 705.899 35.1038 707.872 Q32.5894 709.845 32.5894 713.792 Q32.5894 718.535 35.6131 721.272 Q38.6368 724.009 43.8567 724.009 L64.0042 724.009 L64.0042 729.897 L28.3562 729.897 L28.3562 724.009 L33.8944 724.009 Q30.6797 721.908 29.0883 719.076 Q27.4968 716.211 27.4968 712.487 Q27.4968 706.344 31.3163 703.193 Q35.1038 700.042 42.4881 700.042 Z" fill="#000000" fill-rule="nonzero" fill-opacity="1" /><path clip-path="url(#clip330)" d="M18.2347 682.568 L28.3562 682.568 L28.3562 670.505 L32.9077 670.505 L32.9077 682.568 L52.2594 682.568 Q56.6199 682.568 57.8613 681.391 Q59.1026 680.181 59.1026 676.521 L59.1026 670.505 L64.0042 670.505 L64.0042 676.521 Q64.0042 683.3 61.4897 685.879 Q58.9434 688.457 52.2594 688.457 L32.9077 688.457 L32.9077 692.753 L28.3562 692.753 L28.3562 688.457 L18.2347 688.457 L18.2347 682.568 Z" fill="#000000" fill-rule="nonzero" fill-opacity="1" /><path clip-path="url(#clip330)" d="M664.59 14.3981 L656.662 35.8968 L672.547 35.8968 L664.59 14.3981 M661.291 8.64 L667.917 8.64 L684.381 51.84 L678.305 51.84 L674.37 40.7579 L654.897 40.7579 L650.961 51.84 L644.798 51.84 L661.291 8.64 Z" fill="#000000" fill-rule="nonzero" fill-opacity="1" /><path clip-path="url(#clip330)" d="M706.777 14.3981 L698.849 35.8968 L714.734 35.8968 L706.777 14.3981 M703.479 8.64 L710.105 8.64 L726.569 51.84 L720.492 51.84 L716.557 40.7579 L697.084 40.7579 L693.149 51.84 L686.986 51.84 L703.479 8.64 Z" fill="#000000" fill-rule="nonzero" fill-opacity="1" /><path clip-path="url(#clip330)" d="M738.721 13.4432 L738.721 29.6758 L746.071 29.6758 Q750.151 29.6758 752.379 27.5635 Q754.607 25.4513 754.607 21.545 Q754.607 17.6677 752.379 15.5555 Q750.151 13.4432 746.071 13.4432 L738.721 13.4432 M732.877 8.64 L746.071 8.64 Q753.334 8.64 757.037 11.9386 Q760.77 15.2083 760.77 21.545 Q760.77 27.9397 757.037 31.2093 Q753.334 34.479 746.071 34.479 L738.721 34.479 L738.721 51.84 L732.877 51.84 L732.877 8.64 Z" fill="#000000" fill-rule="nonzero" fill-opacity="1" /><path clip-path="url(#clip330)" d="M768.611 8.64 L774.456 8.64 L774.456 46.921 L795.492 46.921 L795.492 51.84 L768.611 51.84 L768.611 8.64 Z" fill="#000000" fill-rule="nonzero" fill-opacity="1" /><path clip-path="url(#clip330)" d="M817.54 33.2348 L833.136 33.2348 L833.136 37.9801 L817.54 37.9801 L817.54 33.2348 Z" fill="#000000" fill-rule="nonzero" fill-opacity="1" /><path clip-path="url(#clip330)" d="M871.823 51.84 L855.33 8.64 L861.435 8.64 L875.121 45.0113 L888.836 8.64 L894.913 8.64 L878.449 51.84 L871.823 51.84 Z" fill="#000000" fill-rule="nonzero" fill-opacity="1" /><path clip-path="url(#clip330)" d="M901.221 8.64 L907.065 8.64 L907.065 51.84 L901.221 51.84 L901.221 8.64 Z" fill="#000000" fill-rule="nonzero" fill-opacity="1" /><path clip-path="url(#clip330)" d="M916.614 8.64 L922.893 8.64 L933.628 24.6989 L944.421 8.64 L950.699 8.64 L936.811 29.3864 L951.625 51.84 L945.346 51.84 L933.194 33.4663 L920.954 51.84 L914.646 51.84 L930.069 28.7788 L916.614 8.64 Z" fill="#000000" fill-rule="nonzero" fill-opacity="1" /><path clip-path="url(#clip330)" d="M953.419 33.2348 L969.015 33.2348 L969.015 37.9801 L953.419 37.9801 L953.419 33.2348 Z" fill="#000000" fill-rule="nonzero" fill-opacity="1" /><path clip-path="url(#clip330)" d="M1000.81 20.677 L1000.81 25.6538 Q998.558 24.4096 996.272 23.802 Q994.015 23.1654 991.7 23.1654 Q986.521 23.1654 983.656 26.464 Q980.792 29.7336 980.792 35.6653 Q980.792 41.597 983.656 44.8956 Q986.521 48.1653 991.7 48.1653 Q994.015 48.1653 996.272 47.5576 Q998.558 46.921 1000.81 45.6768 L1000.81 50.5958 Q998.587 51.6375 996.185 52.1583 Q993.813 52.6791 991.122 52.6791 Q983.801 52.6791 979.49 48.0784 Q975.178 43.4778 975.178 35.6653 Q975.178 27.7371 979.519 23.1943 Q983.888 18.6515 991.469 18.6515 Q993.928 18.6515 996.272 19.1724 Q998.616 19.6642 1000.81 20.677 Z" fill="#000000" fill-rule="nonzero" fill-opacity="1" /><path clip-path="url(#clip330)" d="M1022.63 23.1654 Q1018.35 23.1654 1015.86 26.5218 Q1013.37 29.8494 1013.37 35.6653 Q1013.37 41.4813 1015.83 44.8377 Q1018.32 48.1653 1022.63 48.1653 Q1026.89 48.1653 1029.37 44.8088 Q1031.86 41.4523 1031.86 35.6653 Q1031.86 29.9072 1029.37 26.5508 Q1026.89 23.1654 1022.63 23.1654 M1022.63 18.6515 Q1029.58 18.6515 1033.54 23.1654 Q1037.5 27.6792 1037.5 35.6653 Q1037.5 43.6225 1033.54 48.1653 Q1029.58 52.6791 1022.63 52.6791 Q1015.66 52.6791 1011.69 48.1653 Q1007.76 43.6225 1007.76 35.6653 Q1007.76 27.6792 1011.69 23.1654 Q1015.66 18.6515 1022.63 18.6515 Z" fill="#000000" fill-rule="nonzero" fill-opacity="1" /><path clip-path="url(#clip330)" d="M1073.27 32.2799 L1073.27 51.84 L1067.94 51.84 L1067.94 32.4535 Q1067.94 27.8529 1066.15 25.567 Q1064.36 23.2811 1060.77 23.2811 Q1056.46 23.2811 1053.97 26.03 Q1051.48 28.7788 1051.48 33.5241 L1051.48 51.84 L1046.13 51.84 L1046.13 19.4328 L1051.48 19.4328 L1051.48 24.4675 Q1053.39 21.545 1055.97 20.0983 Q1058.57 18.6515 1061.95 18.6515 Q1067.54 18.6515 1070.4 22.1237 Q1073.27 25.567 1073.27 32.2799 Z" fill="#000000" fill-rule="nonzero" fill-opacity="1" /><path clip-path="url(#clip330)" d="M1105.21 24.3517 L1105.21 6.81709 L1110.54 6.81709 L1110.54 51.84 L1105.21 51.84 L1105.21 46.9789 Q1103.53 49.8724 1100.96 51.2902 Q1098.41 52.6791 1094.82 52.6791 Q1088.95 52.6791 1085.25 47.9916 Q1081.57 43.3042 1081.57 35.6653 Q1081.57 28.0265 1085.25 23.339 Q1088.95 18.6515 1094.82 18.6515 Q1098.41 18.6515 1100.96 20.0693 Q1103.53 21.4582 1105.21 24.3517 M1087.07 35.6653 Q1087.07 41.5391 1089.47 44.8956 Q1091.9 48.2231 1096.13 48.2231 Q1100.35 48.2231 1102.78 44.8956 Q1105.21 41.5391 1105.21 35.6653 Q1105.21 29.7915 1102.78 26.464 Q1100.35 23.1075 1096.13 23.1075 Q1091.9 23.1075 1089.47 26.464 Q1087.07 29.7915 1087.07 35.6653 Z" fill="#000000" fill-rule="nonzero" fill-opacity="1" /><path clip-path="url(#clip330)" d="M1122.26 44.4905 L1128.36 44.4905 L1128.36 51.84 L1122.26 51.84 L1122.26 44.4905 Z" fill="#000000" fill-rule="nonzero" fill-opacity="1" /><path clip-path="url(#clip330)" d="M1191.76 11.9675 L1191.76 18.1307 Q1188.81 15.3819 1185.45 14.0219 Q1182.12 12.662 1178.36 12.662 Q1170.95 12.662 1167.02 17.2048 Q1163.08 21.7186 1163.08 30.2834 Q1163.08 38.8192 1167.02 43.362 Q1170.95 47.8759 1178.36 47.8759 Q1182.12 47.8759 1185.45 46.516 Q1188.81 45.156 1191.76 42.4072 L1191.76 48.5125 Q1188.69 50.5958 1185.25 51.6375 Q1181.83 52.6791 1178.01 52.6791 Q1168.2 52.6791 1162.56 46.6896 Q1156.92 40.6711 1156.92 30.2834 Q1156.92 19.8668 1162.56 13.8772 Q1168.2 7.85875 1178.01 7.85875 Q1181.89 7.85875 1185.3 8.90042 Q1188.75 9.91314 1191.76 11.9675 Z" fill="#000000" fill-rule="nonzero" fill-opacity="1" /><path clip-path="url(#clip330)" d="M1200.78 8.64 L1206.63 8.64 L1206.63 26.3482 L1227.87 26.3482 L1227.87 8.64 L1233.71 8.64 L1233.71 51.84 L1227.87 51.84 L1227.87 31.2672 L1206.63 31.2672 L1206.63 51.84 L1200.78 51.84 L1200.78 8.64 Z" fill="#000000" fill-rule="nonzero" fill-opacity="1" /><path clip-path="url(#clip330)" d="M1245.34 8.64 L1254.05 8.64 L1265.08 38.038 L1276.16 8.64 L1284.87 8.64 L1284.87 51.84 L1279.17 51.84 L1279.17 13.9062 L1268.03 43.5356 L1262.16 43.5356 L1251.02 13.9062 L1251.02 51.84 L1245.34 51.84 L1245.34 8.64 Z" fill="#000000" fill-rule="nonzero" fill-opacity="1" /><path clip-path="url(#clip330)" d="M1296.47 8.64 L1305.18 8.64 L1316.21 38.038 L1327.29 8.64 L1336 8.64 L1336 51.84 L1330.3 51.84 L1330.3 13.9062 L1319.16 43.5356 L1313.28 43.5356 L1302.14 13.9062 L1302.14 51.84 L1296.47 51.84 L1296.47 8.64 Z" fill="#000000" fill-rule="nonzero" fill-opacity="1" /><path clip-path="url(#clip330)" d="M1344.68 33.2348 L1360.27 33.2348 L1360.27 37.9801 L1344.68 37.9801 L1344.68 33.2348 Z" fill="#000000" fill-rule="nonzero" fill-opacity="1" /><path clip-path="url(#clip330)" d="M1374.02 10.2314 L1374.02 19.4328 L1384.99 19.4328 L1384.99 23.5705 L1374.02 23.5705 L1374.02 41.163 Q1374.02 45.1271 1375.09 46.2555 Q1376.19 47.384 1379.52 47.384 L1384.99 47.384 L1384.99 51.84 L1379.52 51.84 Q1373.35 51.84 1371.01 49.5541 Q1368.67 47.2393 1368.67 41.163 L1368.67 23.5705 L1364.76 23.5705 L1364.76 19.4328 L1368.67 19.4328 L1368.67 10.2314 L1374.02 10.2314 Z" fill="#000000" fill-rule="nonzero" fill-opacity="1" /><path clip-path="url(#clip330)" d="M1416.09 10.2314 L1416.09 19.4328 L1427.06 19.4328 L1427.06 23.5705 L1416.09 23.5705 L1416.09 41.163 Q1416.09 45.1271 1417.16 46.2555 Q1418.26 47.384 1421.59 47.384 L1427.06 47.384 L1427.06 51.84 L1421.59 51.84 Q1415.42 51.84 1413.08 49.5541 Q1410.74 47.2393 1410.74 41.163 L1410.74 23.5705 L1406.83 23.5705 L1406.83 19.4328 L1410.74 19.4328 L1410.74 10.2314 L1416.09 10.2314 Z" fill="#000000" fill-rule="nonzero" fill-opacity="1" /><path clip-path="url(#clip330)" d="M1461.78 34.3054 L1461.78 36.9095 L1437.3 36.9095 Q1437.65 42.4072 1440.6 45.3007 Q1443.58 48.1653 1448.87 48.1653 Q1451.94 48.1653 1454.81 47.4129 Q1457.7 46.6606 1460.53 45.156 L1460.53 50.1907 Q1457.67 51.406 1454.66 52.0425 Q1451.65 52.6791 1448.56 52.6791 Q1440.8 52.6791 1436.26 48.1653 Q1431.74 43.6514 1431.74 35.9547 Q1431.74 27.9975 1436.03 23.339 Q1440.34 18.6515 1447.63 18.6515 Q1454.17 18.6515 1457.96 22.876 Q1461.78 27.0716 1461.78 34.3054 M1456.45 32.7429 Q1456.4 28.3737 1454 25.7695 Q1451.62 23.1654 1447.69 23.1654 Q1443.23 23.1654 1440.54 25.6827 Q1437.88 28.2001 1437.47 32.7718 L1456.45 32.7429 Z" fill="#000000" fill-rule="nonzero" fill-opacity="1" /><path clip-path="url(#clip330)" d="M1489.3 24.4096 Q1488.4 23.8888 1487.33 23.6573 Q1486.29 23.3969 1485.01 23.3969 Q1480.5 23.3969 1478.07 26.3482 Q1475.67 29.2707 1475.67 34.7683 L1475.67 51.84 L1470.31 51.84 L1470.31 19.4328 L1475.67 19.4328 L1475.67 24.4675 Q1477.35 21.5161 1480.04 20.0983 Q1482.73 18.6515 1486.58 18.6515 Q1487.13 18.6515 1487.79 18.7383 Q1488.46 18.7962 1489.27 18.9409 L1489.3 24.4096 Z" fill="#000000" fill-rule="nonzero" fill-opacity="1" /><path clip-path="url(#clip330)" d="M1519.07 25.6538 Q1521.07 22.0659 1523.84 20.3587 Q1526.62 18.6515 1530.38 18.6515 Q1535.45 18.6515 1538.2 22.2105 Q1540.95 25.7406 1540.95 32.2799 L1540.95 51.84 L1535.59 51.84 L1535.59 32.4535 Q1535.59 27.795 1533.94 25.5381 Q1532.29 23.2811 1528.91 23.2811 Q1524.77 23.2811 1522.37 26.03 Q1519.97 28.7788 1519.97 33.5241 L1519.97 51.84 L1514.61 51.84 L1514.61 32.4535 Q1514.61 27.7661 1512.96 25.5381 Q1511.32 23.2811 1507.87 23.2811 Q1503.79 23.2811 1501.39 26.0589 Q1498.99 28.8077 1498.99 33.5241 L1498.99 51.84 L1493.64 51.84 L1493.64 19.4328 L1498.99 19.4328 L1498.99 24.4675 Q1500.81 21.4872 1503.36 20.0693 Q1505.9 18.6515 1509.41 18.6515 Q1512.94 18.6515 1515.4 20.4455 Q1517.88 22.2395 1519.07 25.6538 Z" fill="#000000" fill-rule="nonzero" fill-opacity="1" /><path clip-path="url(#clip330)" d="M1551.56 19.4328 L1556.89 19.4328 L1556.89 51.84 L1551.56 51.84 L1551.56 19.4328 M1551.56 6.81709 L1556.89 6.81709 L1556.89 13.559 L1551.56 13.559 L1551.56 6.81709 Z" fill="#000000" fill-rule="nonzero" fill-opacity="1" /><path clip-path="url(#clip330)" d="M1594.97 32.2799 L1594.97 51.84 L1589.64 51.84 L1589.64 32.4535 Q1589.64 27.8529 1587.85 25.567 Q1586.05 23.2811 1582.47 23.2811 Q1578.16 23.2811 1575.67 26.03 Q1573.18 28.7788 1573.18 33.5241 L1573.18 51.84 L1567.83 51.84 L1567.83 19.4328 L1573.18 19.4328 L1573.18 24.4675 Q1575.09 21.545 1577.66 20.0983 Q1580.27 18.6515 1583.65 18.6515 Q1589.24 18.6515 1592.1 22.1237 Q1594.97 25.567 1594.97 32.2799 Z" fill="#000000" fill-rule="nonzero" fill-opacity="1" /><path clip-path="url(#clip330)" d="M1620.31 35.5496 Q1613.86 35.5496 1611.37 37.0253 Q1608.88 38.501 1608.88 42.06 Q1608.88 44.8956 1610.74 46.5738 Q1612.62 48.2231 1615.83 48.2231 Q1620.26 48.2231 1622.92 45.0981 Q1625.61 41.9442 1625.61 36.7359 L1625.61 35.5496 L1620.31 35.5496 M1630.93 33.3505 L1630.93 51.84 L1625.61 51.84 L1625.61 46.921 Q1623.79 49.8724 1621.07 51.2902 Q1618.35 52.6791 1614.41 52.6791 Q1609.43 52.6791 1606.48 49.9014 Q1603.56 47.0947 1603.56 42.4072 Q1603.56 36.9385 1607.21 34.1607 Q1610.88 31.3829 1618.14 31.3829 L1625.61 31.3829 L1625.61 30.8621 Q1625.61 27.1874 1623.18 25.1908 Q1620.78 23.1654 1616.41 23.1654 Q1613.63 23.1654 1611 23.8309 Q1608.36 24.4964 1605.93 25.8274 L1605.93 20.9085 Q1608.86 19.78 1611.6 19.2302 Q1614.35 18.6515 1616.96 18.6515 Q1623.99 18.6515 1627.46 22.2973 Q1630.93 25.9431 1630.93 33.3505 Z" fill="#000000" fill-rule="nonzero" fill-opacity="1" /><path clip-path="url(#clip330)" d="M1641.9 6.81709 L1647.22 6.81709 L1647.22 51.84 L1641.9 51.84 L1641.9 6.81709 Z" fill="#000000" fill-rule="nonzero" fill-opacity="1" /><path clip-path="url(#clip330)" d="M1689.99 6.87496 Q1686.11 13.53 1684.23 20.0404 Q1682.35 26.5508 1682.35 33.2348 Q1682.35 39.9188 1684.23 46.487 Q1686.14 53.0263 1689.99 59.6525 L1685.36 59.6525 Q1681.02 52.8527 1678.85 46.2845 Q1676.71 39.7162 1676.71 33.2348 Q1676.71 26.7823 1678.85 20.2429 Q1680.99 13.7036 1685.36 6.87496 L1689.99 6.87496 Z" fill="#000000" fill-rule="nonzero" fill-opacity="1" /><path clip-path="url(#clip330)" d="M1727.26 32.2799 L1727.26 51.84 L1721.93 51.84 L1721.93 32.4535 Q1721.93 27.8529 1720.14 25.567 Q1718.35 23.2811 1714.76 23.2811 Q1710.45 23.2811 1707.96 26.03 Q1705.47 28.7788 1705.47 33.5241 L1705.47 51.84 L1700.12 51.84 L1700.12 19.4328 L1705.47 19.4328 L1705.47 24.4675 Q1707.38 21.545 1709.95 20.0983 Q1712.56 18.6515 1715.94 18.6515 Q1721.53 18.6515 1724.39 22.1237 Q1727.26 25.567 1727.26 32.2799 Z" fill="#000000" fill-rule="nonzero" fill-opacity="1" /><path clip-path="url(#clip330)" d="M1738.57 24.9304 L1775.67 24.9304 L1775.67 29.7915 L1738.57 29.7915 L1738.57 24.9304 M1738.57 36.7359 L1775.67 36.7359 L1775.67 41.6549 L1738.57 41.6549 L1738.57 36.7359 Z" fill="#000000" fill-rule="nonzero" fill-opacity="1" /><path clip-path="url(#clip330)" d="M1788.34 8.64 L1811.29 8.64 L1811.29 13.559 L1793.69 13.559 L1793.69 24.1492 Q1794.97 23.7152 1796.24 23.5126 Q1797.51 23.2811 1798.79 23.2811 Q1806.02 23.2811 1810.24 27.2452 Q1814.47 31.2093 1814.47 37.9801 Q1814.47 44.9535 1810.13 48.8308 Q1805.79 52.6791 1797.89 52.6791 Q1795.17 52.6791 1792.33 52.2162 Q1789.53 51.7532 1786.52 50.8273 L1786.52 44.9535 Q1789.12 46.3713 1791.9 47.0657 Q1794.68 47.7602 1797.77 47.7602 Q1802.78 47.7602 1805.7 45.1271 Q1808.62 42.494 1808.62 37.9801 Q1808.62 33.4663 1805.7 30.8332 Q1802.78 28.2001 1797.77 28.2001 Q1795.43 28.2001 1793.08 28.7209 Q1790.77 29.2417 1788.34 30.3413 L1788.34 8.64 Z" fill="#000000" fill-rule="nonzero" fill-opacity="1" /><path clip-path="url(#clip330)" d="M1838.48 12.4884 Q1833.97 12.4884 1831.68 16.9444 Q1829.43 21.3714 1829.43 30.2834 Q1829.43 39.1665 1831.68 43.6225 Q1833.97 48.0495 1838.48 48.0495 Q1843.03 48.0495 1845.28 43.6225 Q1847.57 39.1665 1847.57 30.2834 Q1847.57 21.3714 1845.28 16.9444 Q1843.03 12.4884 1838.48 12.4884 M1838.48 7.85875 Q1845.75 7.85875 1849.57 13.6168 Q1853.41 19.346 1853.41 30.2834 Q1853.41 41.1919 1849.57 46.95 Q1845.75 52.6791 1838.48 52.6791 Q1831.22 52.6791 1827.37 46.95 Q1823.55 41.1919 1823.55 30.2834 Q1823.55 19.346 1827.37 13.6168 Q1831.22 7.85875 1838.48 7.85875 Z" fill="#000000" fill-rule="nonzero" fill-opacity="1" /><path clip-path="url(#clip330)" d="M1876.19 12.4884 Q1871.67 12.4884 1869.39 16.9444 Q1867.13 21.3714 1867.13 30.2834 Q1867.13 39.1665 1869.39 43.6225 Q1871.67 48.0495 1876.19 48.0495 Q1880.73 48.0495 1882.99 43.6225 Q1885.27 39.1665 1885.27 30.2834 Q1885.27 21.3714 1882.99 16.9444 Q1880.73 12.4884 1876.19 12.4884 M1876.19 7.85875 Q1883.45 7.85875 1887.27 13.6168 Q1891.12 19.346 1891.12 30.2834 Q1891.12 41.1919 1887.27 46.95 Q1883.45 52.6791 1876.19 52.6791 Q1868.92 52.6791 1865.08 46.95 Q1861.26 41.1919 1861.26 30.2834 Q1861.26 19.346 1865.08 13.6168 Q1868.92 7.85875 1876.19 7.85875 Z" fill="#000000" fill-rule="nonzero" fill-opacity="1" /><path clip-path="url(#clip330)" d="M1899.8 6.87496 L1904.43 6.87496 Q1908.77 13.7036 1910.91 20.2429 Q1913.08 26.7823 1913.08 33.2348 Q1913.08 39.7162 1910.91 46.2845 Q1908.77 52.8527 1904.43 59.6525 L1899.8 59.6525 Q1903.65 53.0263 1905.53 46.487 Q1907.44 39.9188 1907.44 33.2348 Q1907.44 26.5508 1905.53 20.0404 Q1903.65 13.53 1899.8 6.87496 Z" fill="#000000" fill-rule="nonzero" fill-opacity="1" /><path clip-path="url(#clip332)" d="M323.245 1409.6 L323.245 1423.18 L418.814 1423.18 L418.814 1409.6 L323.245 1409.6 L323.245 1409.6  Z" fill="#2e8b57" fill-rule="evenodd" fill-opacity="0.6"/>
<polyline clip-path="url(#clip332)" style="stroke:#000000; stroke-linecap:round; stroke-linejoin:round; stroke-width:4; stroke-opacity:1; fill:none" points="323.245,1409.6 323.245,1423.18 418.814,1423.18 418.814,1409.6 323.245,1409.6 "/>
<path clip-path="url(#clip332)" d="M418.814 1355.29 L418.814 1423.18 L514.383 1423.18 L514.383 1355.29 L418.814 1355.29 L418.814 1355.29  Z" fill="#2e8b57" fill-rule="evenodd" fill-opacity="0.6"/>
<polyline clip-path="url(#clip332)" style="stroke:#000000; stroke-linecap:round; stroke-linejoin:round; stroke-width:4; stroke-opacity:1; fill:none" points="418.814,1355.29 418.814,1423.18 514.383,1423.18 514.383,1355.29 418.814,1355.29 "/>
<path clip-path="url(#clip332)" d="M514.383 907.247 L514.383 1423.18 L609.953 1423.18 L609.953 907.247 L514.383 907.247 L514.383 907.247  Z" fill="#2e8b57" fill-rule="evenodd" fill-opacity="0.6"/>
<polyline clip-path="url(#clip332)" style="stroke:#000000; stroke-linecap:round; stroke-linejoin:round; stroke-width:4; stroke-opacity:1; fill:none" points="514.383,907.247 514.383,1423.18 609.953,1423.18 609.953,907.247 514.383,907.247 "/>
<path clip-path="url(#clip332)" d="M609.953 472.776 L609.953 1423.18 L705.522 1423.18 L705.522 472.776 L609.953 472.776 L609.953 472.776  Z" fill="#2e8b57" fill-rule="evenodd" fill-opacity="0.6"/>
<polyline clip-path="url(#clip332)" style="stroke:#000000; stroke-linecap:round; stroke-linejoin:round; stroke-width:4; stroke-opacity:1; fill:none" points="609.953,472.776 609.953,1423.18 705.522,1423.18 705.522,472.776 609.953,472.776 "/>
<path clip-path="url(#clip332)" d="M705.522 106.192 L705.522 1423.18 L801.092 1423.18 L801.092 106.192 L705.522 106.192 L705.522 106.192  Z" fill="#2e8b57" fill-rule="evenodd" fill-opacity="0.6"/>
<polyline clip-path="url(#clip332)" style="stroke:#000000; stroke-linecap:round; stroke-linejoin:round; stroke-width:4; stroke-opacity:1; fill:none" points="705.522,106.192 705.522,1423.18 801.092,1423.18 801.092,106.192 705.522,106.192 "/>
<path clip-path="url(#clip332)" d="M801.092 282.696 L801.092 1423.18 L896.661 1423.18 L896.661 282.696 L801.092 282.696 L801.092 282.696  Z" fill="#2e8b57" fill-rule="evenodd" fill-opacity="0.6"/>
<polyline clip-path="url(#clip332)" style="stroke:#000000; stroke-linecap:round; stroke-linejoin:round; stroke-width:4; stroke-opacity:1; fill:none" points="801.092,282.696 801.092,1423.18 896.661,1423.18 896.661,282.696 801.092,282.696 "/>
<path clip-path="url(#clip332)" d="M896.661 472.776 L896.661 1423.18 L992.23 1423.18 L992.23 472.776 L896.661 472.776 L896.661 472.776  Z" fill="#2e8b57" fill-rule="evenodd" fill-opacity="0.6"/>
<polyline clip-path="url(#clip332)" style="stroke:#000000; stroke-linecap:round; stroke-linejoin:round; stroke-width:4; stroke-opacity:1; fill:none" points="896.661,472.776 896.661,1423.18 992.23,1423.18 992.23,472.776 896.661,472.776 "/>
<path clip-path="url(#clip332)" d="M992.23 798.629 L992.23 1423.18 L1087.8 1423.18 L1087.8 798.629 L992.23 798.629 L992.23 798.629  Z" fill="#2e8b57" fill-rule="evenodd" fill-opacity="0.6"/>
<polyline clip-path="url(#clip332)" style="stroke:#000000; stroke-linecap:round; stroke-linejoin:round; stroke-width:4; stroke-opacity:1; fill:none" points="992.23,798.629 992.23,1423.18 1087.8,1423.18 1087.8,798.629 992.23,798.629 "/>
<path clip-path="url(#clip332)" d="M1087.8 961.555 L1087.8 1423.18 L1183.37 1423.18 L1183.37 961.555 L1087.8 961.555 L1087.8 961.555  Z" fill="#2e8b57" fill-rule="evenodd" fill-opacity="0.6"/>
<polyline clip-path="url(#clip332)" style="stroke:#000000; stroke-linecap:round; stroke-linejoin:round; stroke-width:4; stroke-opacity:1; fill:none" points="1087.8,961.555 1087.8,1423.18 1183.37,1423.18 1183.37,961.555 1087.8,961.555 "/>
<path clip-path="url(#clip332)" d="M1183.37 1070.17 L1183.37 1423.18 L1278.94 1423.18 L1278.94 1070.17 L1183.37 1070.17 L1183.37 1070.17  Z" fill="#2e8b57" fill-rule="evenodd" fill-opacity="0.6"/>
<polyline clip-path="url(#clip332)" style="stroke:#000000; stroke-linecap:round; stroke-linejoin:round; stroke-width:4; stroke-opacity:1; fill:none" points="1183.37,1070.17 1183.37,1423.18 1278.94,1423.18 1278.94,1070.17 1183.37,1070.17 "/>
<path clip-path="url(#clip332)" d="M1278.94 1287.41 L1278.94 1423.18 L1374.51 1423.18 L1374.51 1287.41 L1278.94 1287.41 L1278.94 1287.41  Z" fill="#2e8b57" fill-rule="evenodd" fill-opacity="0.6"/>
<polyline clip-path="url(#clip332)" style="stroke:#000000; stroke-linecap:round; stroke-linejoin:round; stroke-width:4; stroke-opacity:1; fill:none" points="1278.94,1287.41 1278.94,1423.18 1374.51,1423.18 1374.51,1287.41 1278.94,1287.41 "/>
<path clip-path="url(#clip332)" d="M1374.51 1355.29 L1374.51 1423.18 L1470.08 1423.18 L1470.08 1355.29 L1374.51 1355.29 L1374.51 1355.29  Z" fill="#2e8b57" fill-rule="evenodd" fill-opacity="0.6"/>
<polyline clip-path="url(#clip332)" style="stroke:#000000; stroke-linecap:round; stroke-linejoin:round; stroke-width:4; stroke-opacity:1; fill:none" points="1374.51,1355.29 1374.51,1423.18 1470.08,1423.18 1470.08,1355.29 1374.51,1355.29 "/>
<path clip-path="url(#clip332)" d="M1470.08 1382.45 L1470.08 1423.18 L1565.65 1423.18 L1565.65 1382.45 L1470.08 1382.45 L1470.08 1382.45  Z" fill="#2e8b57" fill-rule="evenodd" fill-opacity="0.6"/>
<polyline clip-path="url(#clip332)" style="stroke:#000000; stroke-linecap:round; stroke-linejoin:round; stroke-width:4; stroke-opacity:1; fill:none" points="1470.08,1382.45 1470.08,1423.18 1565.65,1423.18 1565.65,1382.45 1470.08,1382.45 "/>
<path clip-path="url(#clip332)" d="M1565.65 1409.6 L1565.65 1423.18 L1661.22 1423.18 L1661.22 1409.6 L1565.65 1409.6 L1565.65 1409.6  Z" fill="#2e8b57" fill-rule="evenodd" fill-opacity="0.6"/>
<polyline clip-path="url(#clip332)" style="stroke:#000000; stroke-linecap:round; stroke-linejoin:round; stroke-width:4; stroke-opacity:1; fill:none" points="1565.65,1409.6 1565.65,1423.18 1661.22,1423.18 1661.22,1409.6 1565.65,1409.6 "/>
<path clip-path="url(#clip332)" d="M1661.22 1382.45 L1661.22 1423.18 L1756.79 1423.18 L1756.79 1382.45 L1661.22 1382.45 L1661.22 1382.45  Z" fill="#2e8b57" fill-rule="evenodd" fill-opacity="0.6"/>
<polyline clip-path="url(#clip332)" style="stroke:#000000; stroke-linecap:round; stroke-linejoin:round; stroke-width:4; stroke-opacity:1; fill:none" points="1661.22,1382.45 1661.22,1423.18 1756.79,1423.18 1756.79,1382.45 1661.22,1382.45 "/>
<path clip-path="url(#clip332)" d="M1756.79 1355.29 L1756.79 1423.18 L1852.35 1423.18 L1852.35 1355.29 L1756.79 1355.29 L1756.79 1355.29  Z" fill="#2e8b57" fill-rule="evenodd" fill-opacity="0.6"/>
<polyline clip-path="url(#clip332)" style="stroke:#000000; stroke-linecap:round; stroke-linejoin:round; stroke-width:4; stroke-opacity:1; fill:none" points="1756.79,1355.29 1756.79,1423.18 1852.35,1423.18 1852.35,1355.29 1756.79,1355.29 "/>
<path clip-path="url(#clip332)" d="M1852.35 1409.6 L1852.35 1423.18 L1947.92 1423.18 L1947.92 1409.6 L1852.35 1409.6 L1852.35 1409.6  Z" fill="#2e8b57" fill-rule="evenodd" fill-opacity="0.6"/>
<polyline clip-path="url(#clip332)" style="stroke:#000000; stroke-linecap:round; stroke-linejoin:round; stroke-width:4; stroke-opacity:1; fill:none" points="1852.35,1409.6 1852.35,1423.18 1947.92,1423.18 1947.92,1409.6 1852.35,1409.6 "/>
<path clip-path="url(#clip332)" d="M1947.92 1423.18 L1947.92 1423.18 L2043.49 1423.18 L2043.49 1423.18 L1947.92 1423.18 L1947.92 1423.18  Z" fill="#2e8b57" fill-rule="evenodd" fill-opacity="0.6"/>
<polyline clip-path="url(#clip332)" style="stroke:#000000; stroke-linecap:round; stroke-linejoin:round; stroke-width:4; stroke-opacity:1; fill:none" points="1947.92,1423.18 1947.92,1423.18 2043.49,1423.18 1947.92,1423.18 "/>
<path clip-path="url(#clip332)" d="M2043.49 1423.18 L2043.49 1423.18 L2139.06 1423.18 L2139.06 1423.18 L2043.49 1423.18 L2043.49 1423.18  Z" fill="#2e8b57" fill-rule="evenodd" fill-opacity="0.6"/>
<polyline clip-path="url(#clip332)" style="stroke:#000000; stroke-linecap:round; stroke-linejoin:round; stroke-width:4; stroke-opacity:1; fill:none" points="2043.49,1423.18 2043.49,1423.18 2139.06,1423.18 2043.49,1423.18 "/>
<path clip-path="url(#clip332)" d="M2139.06 1409.6 L2139.06 1423.18 L2234.63 1423.18 L2234.63 1409.6 L2139.06 1409.6 L2139.06 1409.6  Z" fill="#2e8b57" fill-rule="evenodd" fill-opacity="0.6"/>
<polyline clip-path="url(#clip332)" style="stroke:#000000; stroke-linecap:round; stroke-linejoin:round; stroke-width:4; stroke-opacity:1; fill:none" points="2139.06,1409.6 2139.06,1423.18 2234.63,1423.18 2234.63,1409.6 2139.06,1409.6 "/>
<circle clip-path="url(#clip332)" style="fill:#2e8b57; stroke:none; fill-opacity:0" cx="371.029" cy="1409.6" r="2"/>
<circle clip-path="url(#clip332)" style="fill:#2e8b57; stroke:none; fill-opacity:0" cx="466.599" cy="1355.29" r="2"/>
<circle clip-path="url(#clip332)" style="fill:#2e8b57; stroke:none; fill-opacity:0" cx="562.168" cy="907.247" r="2"/>
<circle clip-path="url(#clip332)" style="fill:#2e8b57; stroke:none; fill-opacity:0" cx="657.738" cy="472.776" r="2"/>
<circle clip-path="url(#clip332)" style="fill:#2e8b57; stroke:none; fill-opacity:0" cx="753.307" cy="106.192" r="2"/>
<circle clip-path="url(#clip332)" style="fill:#2e8b57; stroke:none; fill-opacity:0" cx="848.876" cy="282.696" r="2"/>
<circle clip-path="url(#clip332)" style="fill:#2e8b57; stroke:none; fill-opacity:0" cx="944.446" cy="472.776" r="2"/>
<circle clip-path="url(#clip332)" style="fill:#2e8b57; stroke:none; fill-opacity:0" cx="1040.02" cy="798.629" r="2"/>
<circle clip-path="url(#clip332)" style="fill:#2e8b57; stroke:none; fill-opacity:0" cx="1135.58" cy="961.555" r="2"/>
<circle clip-path="url(#clip332)" style="fill:#2e8b57; stroke:none; fill-opacity:0" cx="1231.15" cy="1070.17" r="2"/>
<circle clip-path="url(#clip332)" style="fill:#2e8b57; stroke:none; fill-opacity:0" cx="1326.72" cy="1287.41" r="2"/>
<circle clip-path="url(#clip332)" style="fill:#2e8b57; stroke:none; fill-opacity:0" cx="1422.29" cy="1355.29" r="2"/>
<circle clip-path="url(#clip332)" style="fill:#2e8b57; stroke:none; fill-opacity:0" cx="1517.86" cy="1382.45" r="2"/>
<circle clip-path="url(#clip332)" style="fill:#2e8b57; stroke:none; fill-opacity:0" cx="1613.43" cy="1409.6" r="2"/>
<circle clip-path="url(#clip332)" style="fill:#2e8b57; stroke:none; fill-opacity:0" cx="1709" cy="1382.45" r="2"/>
<circle clip-path="url(#clip332)" style="fill:#2e8b57; stroke:none; fill-opacity:0" cx="1804.57" cy="1355.29" r="2"/>
<circle clip-path="url(#clip332)" style="fill:#2e8b57; stroke:none; fill-opacity:0" cx="1900.14" cy="1409.6" r="2"/>
<circle clip-path="url(#clip332)" style="fill:#2e8b57; stroke:none; fill-opacity:0" cx="1995.71" cy="1423.18" r="2"/>
<circle clip-path="url(#clip332)" style="fill:#2e8b57; stroke:none; fill-opacity:0" cx="2091.28" cy="1423.18" r="2"/>
<circle clip-path="url(#clip332)" style="fill:#2e8b57; stroke:none; fill-opacity:0" cx="2186.85" cy="1409.6" r="2"/>
<polyline clip-path="url(#clip332)" style="stroke:#ff0000; stroke-linecap:round; stroke-linejoin:round; stroke-width:8; stroke-opacity:1; fill:none" points="755.679,2740.17 755.679,-1210.8 "/>
<polyline clip-path="url(#clip332)" style="stroke:#006400; stroke-linecap:round; stroke-linejoin:round; stroke-width:8; stroke-opacity:1; fill:none" stroke-dasharray="32, 20" points="847.382,2740.17 847.382,-1210.8 "/>
<path clip-path="url(#clip330)" d="M1632.33 357.452 L2281.17 357.452 L2281.17 150.092 L1632.33 150.092  Z" fill="#ffffff" fill-rule="evenodd" fill-opacity="1"/>
<polyline clip-path="url(#clip330)" style="stroke:#000000; stroke-linecap:round; stroke-linejoin:round; stroke-width:4; stroke-opacity:1; fill:none" points="1632.33,357.452 2281.17,357.452 2281.17,150.092 1632.33,150.092 1632.33,357.452 "/>
<path clip-path="url(#clip330)" d="M1656.2 222.668 L1799.37 222.668 L1799.37 181.196 L1656.2 181.196 L1656.2 222.668  Z" fill="#2e8b57" fill-rule="evenodd" fill-opacity="0.6"/>
<polyline clip-path="url(#clip330)" style="stroke:#000000; stroke-linecap:round; stroke-linejoin:round; stroke-width:4; stroke-opacity:1; fill:none" points="1656.2,222.668 1799.37,222.668 1799.37,181.196 1656.2,181.196 1656.2,222.668 "/>
<path clip-path="url(#clip330)" d="M1845.48 185.786 L1845.48 190.346 Q1842.82 189.073 1840.46 188.448 Q1838.09 187.823 1835.9 187.823 Q1832.08 187.823 1829.99 189.304 Q1827.93 190.786 1827.93 193.517 Q1827.93 195.809 1829.3 196.99 Q1830.69 198.147 1834.53 198.865 L1837.35 199.443 Q1842.59 200.439 1845.06 202.962 Q1847.56 205.462 1847.56 209.675 Q1847.56 214.698 1844.18 217.29 Q1840.83 219.883 1834.32 219.883 Q1831.87 219.883 1829.09 219.327 Q1826.34 218.772 1823.37 217.684 L1823.37 212.869 Q1826.22 214.466 1828.95 215.277 Q1831.68 216.087 1834.32 216.087 Q1838.33 216.087 1840.5 214.513 Q1842.68 212.939 1842.68 210.022 Q1842.68 207.476 1841.1 206.04 Q1839.55 204.605 1835.99 203.888 L1833.14 203.332 Q1827.91 202.291 1825.57 200.068 Q1823.23 197.846 1823.23 193.888 Q1823.23 189.304 1826.45 186.666 Q1829.69 184.027 1835.36 184.027 Q1837.79 184.027 1840.32 184.467 Q1842.84 184.906 1845.48 185.786 Z" fill="#000000" fill-rule="nonzero" fill-opacity="1" /><path clip-path="url(#clip330)" d="M1854.67 193.286 L1858.93 193.286 L1858.93 219.212 L1854.67 219.212 L1854.67 193.286 M1854.67 183.193 L1858.93 183.193 L1858.93 188.587 L1854.67 188.587 L1854.67 183.193 Z" fill="#000000" fill-rule="nonzero" fill-opacity="1" /><path clip-path="url(#clip330)" d="M1888.03 198.263 Q1889.62 195.392 1891.84 194.027 Q1894.07 192.661 1897.08 192.661 Q1901.13 192.661 1903.33 195.508 Q1905.52 198.332 1905.52 203.564 L1905.52 219.212 L1901.24 219.212 L1901.24 203.703 Q1901.24 199.976 1899.92 198.17 Q1898.6 196.365 1895.9 196.365 Q1892.59 196.365 1890.66 198.564 Q1888.74 200.763 1888.74 204.559 L1888.74 219.212 L1884.46 219.212 L1884.46 203.703 Q1884.46 199.953 1883.14 198.17 Q1881.82 196.365 1879.07 196.365 Q1875.8 196.365 1873.88 198.587 Q1871.96 200.786 1871.96 204.559 L1871.96 219.212 L1867.68 219.212 L1867.68 193.286 L1871.96 193.286 L1871.96 197.314 Q1873.42 194.929 1875.46 193.795 Q1877.49 192.661 1880.29 192.661 Q1883.12 192.661 1885.09 194.096 Q1887.08 195.531 1888.03 198.263 Z" fill="#000000" fill-rule="nonzero" fill-opacity="1" /><path clip-path="url(#clip330)" d="M1913.58 208.98 L1913.58 193.286 L1917.84 193.286 L1917.84 208.818 Q1917.84 212.499 1919.27 214.351 Q1920.71 216.179 1923.58 216.179 Q1927.03 216.179 1929.02 213.98 Q1931.03 211.781 1931.03 207.985 L1931.03 193.286 L1935.29 193.286 L1935.29 219.212 L1931.03 219.212 L1931.03 215.23 Q1929.48 217.591 1927.42 218.749 Q1925.39 219.883 1922.68 219.883 Q1918.21 219.883 1915.9 217.105 Q1913.58 214.327 1913.58 208.98 M1924.3 192.661 L1924.3 192.661 Z" fill="#000000" fill-rule="nonzero" fill-opacity="1" /><path clip-path="url(#clip330)" d="M1944.07 183.193 L1948.33 183.193 L1948.33 219.212 L1944.07 219.212 L1944.07 183.193 Z" fill="#000000" fill-rule="nonzero" fill-opacity="1" /><path clip-path="url(#clip330)" d="M1969.02 206.179 Q1963.86 206.179 1961.87 207.36 Q1959.88 208.54 1959.88 211.388 Q1959.88 213.656 1961.36 214.999 Q1962.86 216.318 1965.43 216.318 Q1968.97 216.318 1971.1 213.818 Q1973.26 211.295 1973.26 207.128 L1973.26 206.179 L1969.02 206.179 M1977.52 204.42 L1977.52 219.212 L1973.26 219.212 L1973.26 215.277 Q1971.8 217.638 1969.62 218.772 Q1967.45 219.883 1964.3 219.883 Q1960.32 219.883 1957.96 217.661 Q1955.62 215.415 1955.62 211.665 Q1955.62 207.29 1958.53 205.068 Q1961.47 202.846 1967.28 202.846 L1973.26 202.846 L1973.26 202.429 Q1973.26 199.49 1971.31 197.892 Q1969.39 196.272 1965.89 196.272 Q1963.67 196.272 1961.57 196.804 Q1959.46 197.337 1957.52 198.402 L1957.52 194.466 Q1959.85 193.564 1962.05 193.124 Q1964.25 192.661 1966.33 192.661 Q1971.96 192.661 1974.74 195.578 Q1977.52 198.494 1977.52 204.42 Z" fill="#000000" fill-rule="nonzero" fill-opacity="1" /><path clip-path="url(#clip330)" d="M1990.5 185.925 L1990.5 193.286 L1999.27 193.286 L1999.27 196.596 L1990.5 196.596 L1990.5 210.67 Q1990.5 213.841 1991.36 214.744 Q1992.24 215.647 1994.9 215.647 L1999.27 215.647 L1999.27 219.212 L1994.9 219.212 Q1989.97 219.212 1988.09 217.383 Q1986.22 215.531 1986.22 210.67 L1986.22 196.596 L1983.09 196.596 L1983.09 193.286 L1986.22 193.286 L1986.22 185.925 L1990.5 185.925 Z" fill="#000000" fill-rule="nonzero" fill-opacity="1" /><path clip-path="url(#clip330)" d="M2027.05 205.184 L2027.05 207.267 L2007.47 207.267 Q2007.75 211.665 2010.11 213.98 Q2012.49 216.272 2016.73 216.272 Q2019.18 216.272 2021.47 215.67 Q2023.79 215.068 2026.06 213.865 L2026.06 217.892 Q2023.77 218.864 2021.36 219.374 Q2018.95 219.883 2016.47 219.883 Q2010.27 219.883 2006.64 216.272 Q2003.02 212.661 2003.02 206.503 Q2003.02 200.138 2006.45 196.411 Q2009.9 192.661 2015.73 192.661 Q2020.96 192.661 2024 196.041 Q2027.05 199.397 2027.05 205.184 M2022.79 203.934 Q2022.75 200.439 2020.83 198.355 Q2018.93 196.272 2015.78 196.272 Q2012.21 196.272 2010.06 198.286 Q2007.93 200.3 2007.61 203.957 L2022.79 203.934 Z" fill="#000000" fill-rule="nonzero" fill-opacity="1" /><path clip-path="url(#clip330)" d="M2051.1 197.221 L2051.1 183.193 L2055.36 183.193 L2055.36 219.212 L2051.1 219.212 L2051.1 215.323 Q2049.76 217.638 2047.7 218.772 Q2045.66 219.883 2042.79 219.883 Q2038.09 219.883 2035.13 216.133 Q2032.19 212.383 2032.19 206.272 Q2032.19 200.161 2035.13 196.411 Q2038.09 192.661 2042.79 192.661 Q2045.66 192.661 2047.7 193.795 Q2049.76 194.906 2051.1 197.221 M2036.59 206.272 Q2036.59 210.971 2038.51 213.656 Q2040.45 216.318 2043.83 216.318 Q2047.21 216.318 2049.16 213.656 Q2051.1 210.971 2051.1 206.272 Q2051.1 201.573 2049.16 198.911 Q2047.21 196.226 2043.83 196.226 Q2040.45 196.226 2038.51 198.911 Q2036.59 201.573 2036.59 206.272 Z" fill="#000000" fill-rule="nonzero" fill-opacity="1" /><polyline clip-path="url(#clip330)" style="stroke:#ff0000; stroke-linecap:round; stroke-linejoin:round; stroke-width:8; stroke-opacity:1; fill:none" points="1656.2,253.772 1799.37,253.772 "/>
<path clip-path="url(#clip330)" d="M1839.25 239.663 Q1834.16 239.663 1831.15 243.459 Q1828.16 247.256 1828.16 253.806 Q1828.16 260.334 1831.15 264.13 Q1834.16 267.927 1839.25 267.927 Q1844.34 267.927 1847.31 264.13 Q1850.29 260.334 1850.29 253.806 Q1850.29 247.256 1847.31 243.459 Q1844.34 239.663 1839.25 239.663 M1839.25 235.867 Q1846.52 235.867 1850.87 240.751 Q1855.22 245.612 1855.22 253.806 Q1855.22 261.978 1850.87 266.862 Q1846.52 271.723 1839.25 271.723 Q1831.96 271.723 1827.59 266.862 Q1823.23 262.001 1823.23 253.806 Q1823.23 245.612 1827.59 240.751 Q1831.96 235.867 1839.25 235.867 Z" fill="#000000" fill-rule="nonzero" fill-opacity="1" /><path clip-path="url(#clip330)" d="M1880.96 258.112 Q1880.96 253.413 1879.02 250.751 Q1877.1 248.066 1873.72 248.066 Q1870.34 248.066 1868.4 250.751 Q1866.47 253.413 1866.47 258.112 Q1866.47 262.811 1868.4 265.496 Q1870.34 268.158 1873.72 268.158 Q1877.1 268.158 1879.02 265.496 Q1880.96 262.811 1880.96 258.112 M1866.47 249.061 Q1867.82 246.746 1869.85 245.635 Q1871.91 244.501 1874.76 244.501 Q1879.48 244.501 1882.42 248.251 Q1885.39 252.001 1885.39 258.112 Q1885.39 264.223 1882.42 267.973 Q1879.48 271.723 1874.76 271.723 Q1871.91 271.723 1869.85 270.612 Q1867.82 269.478 1866.47 267.163 L1866.47 271.052 L1862.19 271.052 L1862.19 235.033 L1866.47 235.033 L1866.47 249.061 Z" fill="#000000" fill-rule="nonzero" fill-opacity="1" /><path clip-path="url(#clip330)" d="M1908.97 245.89 L1908.97 249.918 Q1907.17 248.992 1905.22 248.529 Q1903.28 248.066 1901.2 248.066 Q1898.02 248.066 1896.43 249.038 Q1894.85 250.01 1894.85 251.955 Q1894.85 253.436 1895.99 254.293 Q1897.12 255.126 1900.55 255.89 L1902.01 256.214 Q1906.54 257.186 1908.44 258.968 Q1910.36 260.728 1910.36 263.899 Q1910.36 267.51 1907.49 269.617 Q1904.65 271.723 1899.65 271.723 Q1897.56 271.723 1895.29 271.306 Q1893.05 270.913 1890.55 270.103 L1890.55 265.705 Q1892.91 266.931 1895.2 267.556 Q1897.49 268.158 1899.74 268.158 Q1902.75 268.158 1904.37 267.14 Q1905.99 266.098 1905.99 264.223 Q1905.99 262.487 1904.81 261.561 Q1903.65 260.635 1899.69 259.779 L1898.21 259.431 Q1894.25 258.598 1892.49 256.885 Q1890.73 255.149 1890.73 252.14 Q1890.73 248.482 1893.33 246.492 Q1895.92 244.501 1900.69 244.501 Q1903.05 244.501 1905.13 244.848 Q1907.21 245.195 1908.97 245.89 Z" fill="#000000" fill-rule="nonzero" fill-opacity="1" /><path clip-path="url(#clip330)" d="M1939.32 257.024 L1939.32 259.107 L1919.74 259.107 Q1920.02 263.505 1922.38 265.82 Q1924.76 268.112 1929 268.112 Q1931.45 268.112 1933.74 267.51 Q1936.06 266.908 1938.33 265.705 L1938.33 269.732 Q1936.03 270.704 1933.63 271.214 Q1931.22 271.723 1928.74 271.723 Q1922.54 271.723 1918.9 268.112 Q1915.29 264.501 1915.29 258.343 Q1915.29 251.978 1918.72 248.251 Q1922.17 244.501 1928 244.501 Q1933.23 244.501 1936.27 247.881 Q1939.32 251.237 1939.32 257.024 M1935.06 255.774 Q1935.02 252.279 1933.09 250.195 Q1931.2 248.112 1928.05 248.112 Q1924.48 248.112 1922.33 250.126 Q1920.2 252.14 1919.88 255.797 L1935.06 255.774 Z" fill="#000000" fill-rule="nonzero" fill-opacity="1" /><path clip-path="url(#clip330)" d="M1961.33 249.107 Q1960.62 248.691 1959.76 248.506 Q1958.93 248.297 1957.91 248.297 Q1954.3 248.297 1952.35 250.658 Q1950.43 252.996 1950.43 257.394 L1950.43 271.052 L1946.15 271.052 L1946.15 245.126 L1950.43 245.126 L1950.43 249.154 Q1951.77 246.793 1953.93 245.658 Q1956.08 244.501 1959.16 244.501 Q1959.6 244.501 1960.13 244.57 Q1960.66 244.617 1961.31 244.732 L1961.33 249.107 Z" fill="#000000" fill-rule="nonzero" fill-opacity="1" /><path clip-path="url(#clip330)" d="M1962.75 245.126 L1967.26 245.126 L1975.36 266.885 L1983.46 245.126 L1987.98 245.126 L1978.26 271.052 L1972.47 271.052 L1962.75 245.126 Z" fill="#000000" fill-rule="nonzero" fill-opacity="1" /><path clip-path="url(#clip330)" d="M2016.03 257.024 L2016.03 259.107 L1996.45 259.107 Q1996.73 263.505 1999.09 265.82 Q2001.47 268.112 2005.71 268.112 Q2008.16 268.112 2010.45 267.51 Q2012.77 266.908 2015.04 265.705 L2015.04 269.732 Q2012.75 270.704 2010.34 271.214 Q2007.93 271.723 2005.45 271.723 Q1999.25 271.723 1995.62 268.112 Q1992.01 264.501 1992.01 258.343 Q1992.01 251.978 1995.43 248.251 Q1998.88 244.501 2004.71 244.501 Q2009.95 244.501 2012.98 247.881 Q2016.03 251.237 2016.03 257.024 M2011.77 255.774 Q2011.73 252.279 2009.81 250.195 Q2007.91 248.112 2004.76 248.112 Q2001.2 248.112 1999.04 250.126 Q1996.91 252.14 1996.59 255.797 L2011.77 255.774 Z" fill="#000000" fill-rule="nonzero" fill-opacity="1" /><path clip-path="url(#clip330)" d="M2040.08 249.061 L2040.08 235.033 L2044.34 235.033 L2044.34 271.052 L2040.08 271.052 L2040.08 267.163 Q2038.74 269.478 2036.68 270.612 Q2034.64 271.723 2031.77 271.723 Q2027.08 271.723 2024.11 267.973 Q2021.17 264.223 2021.17 258.112 Q2021.17 252.001 2024.11 248.251 Q2027.08 244.501 2031.77 244.501 Q2034.64 244.501 2036.68 245.635 Q2038.74 246.746 2040.08 249.061 M2025.57 258.112 Q2025.57 262.811 2027.49 265.496 Q2029.44 268.158 2032.82 268.158 Q2036.2 268.158 2038.14 265.496 Q2040.08 262.811 2040.08 258.112 Q2040.08 253.413 2038.14 250.751 Q2036.2 248.066 2032.82 248.066 Q2029.44 248.066 2027.49 250.751 Q2025.57 253.413 2025.57 258.112 Z" fill="#000000" fill-rule="nonzero" fill-opacity="1" /><path clip-path="url(#clip330)" d="M2072.4 237.765 L2072.4 245.126 L2081.17 245.126 L2081.17 248.436 L2072.4 248.436 L2072.4 262.51 Q2072.4 265.681 2073.26 266.584 Q2074.14 267.487 2076.8 267.487 L2081.17 267.487 L2081.17 271.052 L2076.8 271.052 Q2071.87 271.052 2069.99 269.223 Q2068.12 267.371 2068.12 262.51 L2068.12 248.436 L2064.99 248.436 L2064.99 245.126 L2068.12 245.126 L2068.12 237.765 L2072.4 237.765 Z" fill="#000000" fill-rule="nonzero" fill-opacity="1" /><path clip-path="url(#clip330)" d="M2108.95 257.024 L2108.95 259.107 L2089.37 259.107 Q2089.64 263.505 2092.01 265.82 Q2094.39 268.112 2098.63 268.112 Q2101.08 268.112 2103.37 267.51 Q2105.69 266.908 2107.95 265.705 L2107.95 269.732 Q2105.66 270.704 2103.26 271.214 Q2100.85 271.723 2098.37 271.723 Q2092.17 271.723 2088.53 268.112 Q2084.92 264.501 2084.92 258.343 Q2084.92 251.978 2088.35 248.251 Q2091.8 244.501 2097.63 244.501 Q2102.86 244.501 2105.89 247.881 Q2108.95 251.237 2108.95 257.024 M2104.69 255.774 Q2104.64 252.279 2102.72 250.195 Q2100.82 248.112 2097.68 248.112 Q2094.11 248.112 2091.96 250.126 Q2089.83 252.14 2089.51 255.797 L2104.69 255.774 Z" fill="#000000" fill-rule="nonzero" fill-opacity="1" /><path clip-path="url(#clip330)" d="M2130.96 249.107 Q2130.25 248.691 2129.39 248.506 Q2128.56 248.297 2127.54 248.297 Q2123.93 248.297 2121.98 250.658 Q2120.06 252.996 2120.06 257.394 L2120.06 271.052 L2115.78 271.052 L2115.78 245.126 L2120.06 245.126 L2120.06 249.154 Q2121.4 246.793 2123.56 245.658 Q2125.71 244.501 2128.79 244.501 Q2129.23 244.501 2129.76 244.57 Q2130.29 244.617 2130.94 244.732 L2130.96 249.107 Z" fill="#000000" fill-rule="nonzero" fill-opacity="1" /><path clip-path="url(#clip330)" d="M2154.78 250.103 Q2156.38 247.232 2158.6 245.867 Q2160.82 244.501 2163.83 244.501 Q2167.88 244.501 2170.08 247.348 Q2172.28 250.172 2172.28 255.404 L2172.28 271.052 L2168 271.052 L2168 255.543 Q2168 251.816 2166.68 250.01 Q2165.36 248.205 2162.65 248.205 Q2159.34 248.205 2157.42 250.404 Q2155.5 252.603 2155.5 256.399 L2155.5 271.052 L2151.22 271.052 L2151.22 255.543 Q2151.22 251.793 2149.9 250.01 Q2148.58 248.205 2145.82 248.205 Q2142.56 248.205 2140.64 250.427 Q2138.72 252.626 2138.72 256.399 L2138.72 271.052 L2134.44 271.052 L2134.44 245.126 L2138.72 245.126 L2138.72 249.154 Q2140.18 246.769 2142.21 245.635 Q2144.25 244.501 2147.05 244.501 Q2149.88 244.501 2151.84 245.936 Q2153.83 247.371 2154.78 250.103 Z" fill="#000000" fill-rule="nonzero" fill-opacity="1" /><path clip-path="url(#clip330)" d="M2180.78 245.126 L2185.04 245.126 L2185.04 271.052 L2180.78 271.052 L2180.78 245.126 M2180.78 235.033 L2185.04 235.033 L2185.04 240.427 L2180.78 240.427 L2180.78 235.033 Z" fill="#000000" fill-rule="nonzero" fill-opacity="1" /><path clip-path="url(#clip330)" d="M2215.5 255.404 L2215.5 271.052 L2211.24 271.052 L2211.24 255.543 Q2211.24 251.862 2209.81 250.033 Q2208.37 248.205 2205.5 248.205 Q2202.05 248.205 2200.06 250.404 Q2198.07 252.603 2198.07 256.399 L2198.07 271.052 L2193.79 271.052 L2193.79 245.126 L2198.07 245.126 L2198.07 249.154 Q2199.6 246.816 2201.66 245.658 Q2203.74 244.501 2206.45 244.501 Q2210.92 244.501 2213.21 247.279 Q2215.5 250.033 2215.5 255.404 Z" fill="#000000" fill-rule="nonzero" fill-opacity="1" /><path clip-path="url(#clip330)" d="M2235.78 258.019 Q2230.62 258.019 2228.63 259.2 Q2226.63 260.38 2226.63 263.228 Q2226.63 265.496 2228.12 266.839 Q2229.62 268.158 2232.19 268.158 Q2235.73 268.158 2237.86 265.658 Q2240.01 263.135 2240.01 258.968 L2240.01 258.019 L2235.78 258.019 M2244.27 256.26 L2244.27 271.052 L2240.01 271.052 L2240.01 267.117 Q2238.56 269.478 2236.38 270.612 Q2234.2 271.723 2231.06 271.723 Q2227.07 271.723 2224.71 269.501 Q2222.38 267.255 2222.38 263.505 Q2222.38 259.13 2225.29 256.908 Q2228.23 254.686 2234.04 254.686 L2240.01 254.686 L2240.01 254.269 Q2240.01 251.33 2238.07 249.732 Q2236.15 248.112 2232.65 248.112 Q2230.43 248.112 2228.32 248.644 Q2226.22 249.177 2224.27 250.242 L2224.27 246.306 Q2226.61 245.404 2228.81 244.964 Q2231.01 244.501 2233.09 244.501 Q2238.72 244.501 2241.5 247.418 Q2244.27 250.334 2244.27 256.26 Z" fill="#000000" fill-rule="nonzero" fill-opacity="1" /><path clip-path="url(#clip330)" d="M2253.05 235.033 L2257.31 235.033 L2257.31 271.052 L2253.05 271.052 L2253.05 235.033 Z" fill="#000000" fill-rule="nonzero" fill-opacity="1" /><polyline clip-path="url(#clip330)" style="stroke:#006400; stroke-linecap:round; stroke-linejoin:round; stroke-width:8; stroke-opacity:1; fill:none" stroke-dasharray="32, 20" points="1656.2,305.612 1799.37,305.612 "/>
<path clip-path="url(#clip330)" d="M1845.48 289.466 L1845.48 294.026 Q1842.82 292.753 1840.46 292.128 Q1838.09 291.503 1835.9 291.503 Q1832.08 291.503 1829.99 292.984 Q1827.93 294.466 1827.93 297.197 Q1827.93 299.489 1829.3 300.67 Q1830.69 301.827 1834.53 302.545 L1837.35 303.123 Q1842.59 304.119 1845.06 306.642 Q1847.56 309.142 1847.56 313.355 Q1847.56 318.378 1844.18 320.97 Q1840.83 323.563 1834.32 323.563 Q1831.87 323.563 1829.09 323.007 Q1826.34 322.452 1823.37 321.364 L1823.37 316.549 Q1826.22 318.146 1828.95 318.957 Q1831.68 319.767 1834.32 319.767 Q1838.33 319.767 1840.5 318.193 Q1842.68 316.619 1842.68 313.702 Q1842.68 311.156 1841.1 309.72 Q1839.55 308.285 1835.99 307.568 L1833.14 307.012 Q1827.91 305.971 1825.57 303.748 Q1823.23 301.526 1823.23 297.568 Q1823.23 292.984 1826.45 290.346 Q1829.69 287.707 1835.36 287.707 Q1837.79 287.707 1840.32 288.147 Q1842.84 288.586 1845.48 289.466 Z" fill="#000000" fill-rule="nonzero" fill-opacity="1" /><path clip-path="url(#clip330)" d="M1854.67 296.966 L1858.93 296.966 L1858.93 322.892 L1854.67 322.892 L1854.67 296.966 M1854.67 286.873 L1858.93 286.873 L1858.93 292.267 L1854.67 292.267 L1854.67 286.873 Z" fill="#000000" fill-rule="nonzero" fill-opacity="1" /><path clip-path="url(#clip330)" d="M1888.03 301.943 Q1889.62 299.072 1891.84 297.707 Q1894.07 296.341 1897.08 296.341 Q1901.13 296.341 1903.33 299.188 Q1905.52 302.012 1905.52 307.244 L1905.52 322.892 L1901.24 322.892 L1901.24 307.383 Q1901.24 303.656 1899.92 301.85 Q1898.6 300.045 1895.9 300.045 Q1892.59 300.045 1890.66 302.244 Q1888.74 304.443 1888.74 308.239 L1888.74 322.892 L1884.46 322.892 L1884.46 307.383 Q1884.46 303.633 1883.14 301.85 Q1881.82 300.045 1879.07 300.045 Q1875.8 300.045 1873.88 302.267 Q1871.96 304.466 1871.96 308.239 L1871.96 322.892 L1867.68 322.892 L1867.68 296.966 L1871.96 296.966 L1871.96 300.994 Q1873.42 298.609 1875.46 297.475 Q1877.49 296.341 1880.29 296.341 Q1883.12 296.341 1885.09 297.776 Q1887.08 299.211 1888.03 301.943 Z" fill="#000000" fill-rule="nonzero" fill-opacity="1" /><path clip-path="url(#clip330)" d="M1913.58 312.66 L1913.58 296.966 L1917.84 296.966 L1917.84 312.498 Q1917.84 316.179 1919.27 318.031 Q1920.71 319.859 1923.58 319.859 Q1927.03 319.859 1929.02 317.66 Q1931.03 315.461 1931.03 311.665 L1931.03 296.966 L1935.29 296.966 L1935.29 322.892 L1931.03 322.892 L1931.03 318.91 Q1929.48 321.271 1927.42 322.429 Q1925.39 323.563 1922.68 323.563 Q1918.21 323.563 1915.9 320.785 Q1913.58 318.007 1913.58 312.66 M1924.3 296.341 L1924.3 296.341 Z" fill="#000000" fill-rule="nonzero" fill-opacity="1" /><path clip-path="url(#clip330)" d="M1944.07 286.873 L1948.33 286.873 L1948.33 322.892 L1944.07 322.892 L1944.07 286.873 Z" fill="#000000" fill-rule="nonzero" fill-opacity="1" /><path clip-path="url(#clip330)" d="M1969.02 309.859 Q1963.86 309.859 1961.87 311.04 Q1959.88 312.22 1959.88 315.068 Q1959.88 317.336 1961.36 318.679 Q1962.86 319.998 1965.43 319.998 Q1968.97 319.998 1971.1 317.498 Q1973.26 314.975 1973.26 310.808 L1973.26 309.859 L1969.02 309.859 M1977.52 308.1 L1977.52 322.892 L1973.26 322.892 L1973.26 318.957 Q1971.8 321.318 1969.62 322.452 Q1967.45 323.563 1964.3 323.563 Q1960.32 323.563 1957.96 321.341 Q1955.62 319.095 1955.62 315.345 Q1955.62 310.97 1958.53 308.748 Q1961.47 306.526 1967.28 306.526 L1973.26 306.526 L1973.26 306.109 Q1973.26 303.17 1971.31 301.572 Q1969.39 299.952 1965.89 299.952 Q1963.67 299.952 1961.57 300.484 Q1959.46 301.017 1957.52 302.082 L1957.52 298.146 Q1959.85 297.244 1962.05 296.804 Q1964.25 296.341 1966.33 296.341 Q1971.96 296.341 1974.74 299.258 Q1977.52 302.174 1977.52 308.1 Z" fill="#000000" fill-rule="nonzero" fill-opacity="1" /><path clip-path="url(#clip330)" d="M1990.5 289.605 L1990.5 296.966 L1999.27 296.966 L1999.27 300.276 L1990.5 300.276 L1990.5 314.35 Q1990.5 317.521 1991.36 318.424 Q1992.24 319.327 1994.9 319.327 L1999.27 319.327 L1999.27 322.892 L1994.9 322.892 Q1989.97 322.892 1988.09 321.063 Q1986.22 319.211 1986.22 314.35 L1986.22 300.276 L1983.09 300.276 L1983.09 296.966 L1986.22 296.966 L1986.22 289.605 L1990.5 289.605 Z" fill="#000000" fill-rule="nonzero" fill-opacity="1" /><path clip-path="url(#clip330)" d="M2027.05 308.864 L2027.05 310.947 L2007.47 310.947 Q2007.75 315.345 2010.11 317.66 Q2012.49 319.952 2016.73 319.952 Q2019.18 319.952 2021.47 319.35 Q2023.79 318.748 2026.06 317.545 L2026.06 321.572 Q2023.77 322.544 2021.36 323.054 Q2018.95 323.563 2016.47 323.563 Q2010.27 323.563 2006.64 319.952 Q2003.02 316.341 2003.02 310.183 Q2003.02 303.818 2006.45 300.091 Q2009.9 296.341 2015.73 296.341 Q2020.96 296.341 2024 299.721 Q2027.05 303.077 2027.05 308.864 M2022.79 307.614 Q2022.75 304.119 2020.83 302.035 Q2018.93 299.952 2015.78 299.952 Q2012.21 299.952 2010.06 301.966 Q2007.93 303.98 2007.61 307.637 L2022.79 307.614 Z" fill="#000000" fill-rule="nonzero" fill-opacity="1" /><path clip-path="url(#clip330)" d="M2051.1 300.901 L2051.1 286.873 L2055.36 286.873 L2055.36 322.892 L2051.1 322.892 L2051.1 319.003 Q2049.76 321.318 2047.7 322.452 Q2045.66 323.563 2042.79 323.563 Q2038.09 323.563 2035.13 319.813 Q2032.19 316.063 2032.19 309.952 Q2032.19 303.841 2035.13 300.091 Q2038.09 296.341 2042.79 296.341 Q2045.66 296.341 2047.7 297.475 Q2049.76 298.586 2051.1 300.901 M2036.59 309.952 Q2036.59 314.651 2038.51 317.336 Q2040.45 319.998 2043.83 319.998 Q2047.21 319.998 2049.16 317.336 Q2051.1 314.651 2051.1 309.952 Q2051.1 305.253 2049.16 302.591 Q2047.21 299.906 2043.83 299.906 Q2040.45 299.906 2038.51 302.591 Q2036.59 305.253 2036.59 309.952 Z" fill="#000000" fill-rule="nonzero" fill-opacity="1" /><path clip-path="url(#clip330)" d="M2099.39 301.943 Q2100.99 299.072 2103.21 297.707 Q2105.43 296.341 2108.44 296.341 Q2112.49 296.341 2114.69 299.188 Q2116.89 302.012 2116.89 307.244 L2116.89 322.892 L2112.61 322.892 L2112.61 307.383 Q2112.61 303.656 2111.29 301.85 Q2109.97 300.045 2107.26 300.045 Q2103.95 300.045 2102.03 302.244 Q2100.11 304.443 2100.11 308.239 L2100.11 322.892 L2095.82 322.892 L2095.82 307.383 Q2095.82 303.633 2094.51 301.85 Q2093.19 300.045 2090.43 300.045 Q2087.17 300.045 2085.25 302.267 Q2083.32 304.466 2083.32 308.239 L2083.32 322.892 L2079.04 322.892 L2079.04 296.966 L2083.32 296.966 L2083.32 300.994 Q2084.78 298.609 2086.82 297.475 Q2088.86 296.341 2091.66 296.341 Q2094.48 296.341 2096.45 297.776 Q2098.44 299.211 2099.39 301.943 Z" fill="#000000" fill-rule="nonzero" fill-opacity="1" /><path clip-path="url(#clip330)" d="M2147.56 308.864 L2147.56 310.947 L2127.98 310.947 Q2128.26 315.345 2130.62 317.66 Q2133 319.952 2137.24 319.952 Q2139.69 319.952 2141.98 319.35 Q2144.3 318.748 2146.57 317.545 L2146.57 321.572 Q2144.27 322.544 2141.87 323.054 Q2139.46 323.563 2136.98 323.563 Q2130.78 323.563 2127.14 319.952 Q2123.53 316.341 2123.53 310.183 Q2123.53 303.818 2126.96 300.091 Q2130.41 296.341 2136.24 296.341 Q2141.47 296.341 2144.51 299.721 Q2147.56 303.077 2147.56 308.864 M2143.3 307.614 Q2143.26 304.119 2141.33 302.035 Q2139.44 299.952 2136.29 299.952 Q2132.72 299.952 2130.57 301.966 Q2128.44 303.98 2128.12 307.637 L2143.3 307.614 Z" fill="#000000" fill-rule="nonzero" fill-opacity="1" /><path clip-path="url(#clip330)" d="M2171.61 300.901 L2171.61 286.873 L2175.87 286.873 L2175.87 322.892 L2171.61 322.892 L2171.61 319.003 Q2170.27 321.318 2168.21 322.452 Q2166.17 323.563 2163.3 323.563 Q2158.6 323.563 2155.64 319.813 Q2152.7 316.063 2152.7 309.952 Q2152.7 303.841 2155.64 300.091 Q2158.6 296.341 2163.3 296.341 Q2166.17 296.341 2168.21 297.475 Q2170.27 298.586 2171.61 300.901 M2157.1 309.952 Q2157.1 314.651 2159.02 317.336 Q2160.96 319.998 2164.34 319.998 Q2167.72 319.998 2169.67 317.336 Q2171.61 314.651 2171.61 309.952 Q2171.61 305.253 2169.67 302.591 Q2167.72 299.906 2164.34 299.906 Q2160.96 299.906 2159.02 302.591 Q2157.1 305.253 2157.1 309.952 Z" fill="#000000" fill-rule="nonzero" fill-opacity="1" /><path clip-path="url(#clip330)" d="M2184.64 296.966 L2188.9 296.966 L2188.9 322.892 L2184.64 322.892 L2184.64 296.966 M2184.64 286.873 L2188.9 286.873 L2188.9 292.267 L2184.64 292.267 L2184.64 286.873 Z" fill="#000000" fill-rule="nonzero" fill-opacity="1" /><path clip-path="url(#clip330)" d="M2209.6 309.859 Q2204.44 309.859 2202.44 311.04 Q2200.45 312.22 2200.45 315.068 Q2200.45 317.336 2201.94 318.679 Q2203.44 319.998 2206.01 319.998 Q2209.55 319.998 2211.68 317.498 Q2213.83 314.975 2213.83 310.808 L2213.83 309.859 L2209.6 309.859 M2218.09 308.1 L2218.09 322.892 L2213.83 322.892 L2213.83 318.957 Q2212.38 321.318 2210.2 322.452 Q2208.02 323.563 2204.88 323.563 Q2200.89 323.563 2198.53 321.341 Q2196.19 319.095 2196.19 315.345 Q2196.19 310.97 2199.11 308.748 Q2202.05 306.526 2207.86 306.526 L2213.83 306.526 L2213.83 306.109 Q2213.83 303.17 2211.89 301.572 Q2209.97 299.952 2206.47 299.952 Q2204.25 299.952 2202.14 300.484 Q2200.04 301.017 2198.09 302.082 L2198.09 298.146 Q2200.43 297.244 2202.63 296.804 Q2204.83 296.341 2206.91 296.341 Q2212.54 296.341 2215.31 299.258 Q2218.09 302.174 2218.09 308.1 Z" fill="#000000" fill-rule="nonzero" fill-opacity="1" /><path clip-path="url(#clip330)" d="M2248.42 307.244 L2248.42 322.892 L2244.16 322.892 L2244.16 307.383 Q2244.16 303.702 2242.72 301.873 Q2241.29 300.045 2238.42 300.045 Q2234.97 300.045 2232.98 302.244 Q2230.99 304.443 2230.99 308.239 L2230.99 322.892 L2226.7 322.892 L2226.7 296.966 L2230.99 296.966 L2230.99 300.994 Q2232.51 298.656 2234.57 297.498 Q2236.66 296.341 2239.37 296.341 Q2243.83 296.341 2246.12 299.119 Q2248.42 301.873 2248.42 307.244 Z" fill="#000000" fill-rule="nonzero" fill-opacity="1" /></svg>
