<?xml version="1.0" encoding="utf-8"?>
<svg xmlns="http://www.w3.org/2000/svg" xmlns:xlink="http://www.w3.org/1999/xlink" width="600" height="400" viewBox="0 0 2400 1600">
<defs>
  <clipPath id="clip600">
    <rect x="0" y="0" width="2400" height="1600"/>
  </clipPath>
</defs>
<path clip-path="url(#clip600)" d="M0 1600 L2400 1600 L2400 8.88178e-14 L0 8.88178e-14  Z" fill="#ffffff" fill-rule="evenodd" fill-opacity="1"/>
<defs>
  <clipPath id="clip601">
    <rect x="235" y="106" width="2118" height="1318"/>
  </clipPath>
</defs>
<path clip-path="url(#clip600)" d="M205.121 1423.18 L2352.76 1423.18 L2352.76 106.192 L205.121 106.192  Z" fill="#ffffff" fill-rule="evenodd" fill-opacity="1"/>
<defs>
  <clipPath id="clip602">
    <rect x="205" y="106" width="2149" height="1318"/>
  </clipPath>
</defs>
<polyline clip-path="url(#clip602)" style="stroke:#000000; stroke-linecap:round; stroke-linejoin:round; stroke-width:2; stroke-opacity:0.1; fill:none" points="423.844,1423.18 423.844,106.192 "/>
<polyline clip-path="url(#clip602)" style="stroke:#000000; stroke-linecap:round; stroke-linejoin:round; stroke-width:2; stroke-opacity:0.1; fill:none" points="926.841,1423.18 926.841,106.192 "/>
<polyline clip-path="url(#clip602)" style="stroke:#000000; stroke-linecap:round; stroke-linejoin:round; stroke-width:2; stroke-opacity:0.1; fill:none" points="1429.84,1423.18 1429.84,106.192 "/>
<polyline clip-path="url(#clip602)" style="stroke:#000000; stroke-linecap:round; stroke-linejoin:round; stroke-width:2; stroke-opacity:0.1; fill:none" points="1932.83,1423.18 1932.83,106.192 "/>
<polyline clip-path="url(#clip602)" style="stroke:#000000; stroke-linecap:round; stroke-linejoin:round; stroke-width:2; stroke-opacity:0.1; fill:none" points="205.121,1423.18 2352.76,1423.18 "/>
<polyline clip-path="url(#clip602)" style="stroke:#000000; stroke-linecap:round; stroke-linejoin:round; stroke-width:2; stroke-opacity:0.1; fill:none" points="205.121,1093.93 2352.76,1093.93 "/>
<polyline clip-path="url(#clip602)" style="stroke:#000000; stroke-linecap:round; stroke-linejoin:round; stroke-width:2; stroke-opacity:0.1; fill:none" points="205.121,764.686 2352.76,764.686 "/>
<polyline clip-path="url(#clip602)" style="stroke:#000000; stroke-linecap:round; stroke-linejoin:round; stroke-width:2; stroke-opacity:0.1; fill:none" points="205.121,435.439 2352.76,435.439 "/>
<polyline clip-path="url(#clip602)" style="stroke:#000000; stroke-linecap:round; stroke-linejoin:round; stroke-width:2; stroke-opacity:0.1; fill:none" points="205.121,106.192 2352.76,106.192 "/>
<polyline clip-path="url(#clip600)" style="stroke:#000000; stroke-linecap:round; stroke-linejoin:round; stroke-width:4; stroke-opacity:1; fill:none" points="205.121,1423.18 2352.76,1423.18 "/>
<polyline clip-path="url(#clip600)" style="stroke:#000000; stroke-linecap:round; stroke-linejoin:round; stroke-width:4; stroke-opacity:1; fill:none" points="423.844,1423.18 423.844,1404.28 "/>
<polyline clip-path="url(#clip600)" style="stroke:#000000; stroke-linecap:round; stroke-linejoin:round; stroke-width:4; stroke-opacity:1; fill:none" points="926.841,1423.18 926.841,1404.28 "/>
<polyline clip-path="url(#clip600)" style="stroke:#000000; stroke-linecap:round; stroke-linejoin:round; stroke-width:4; stroke-opacity:1; fill:none" points="1429.84,1423.18 1429.84,1404.28 "/>
<polyline clip-path="url(#clip600)" style="stroke:#000000; stroke-linecap:round; stroke-linejoin:round; stroke-width:4; stroke-opacity:1; fill:none" points="1932.83,1423.18 1932.83,1404.28 "/>
<path clip-path="url(#clip600)" d="M387.536 1481.64 L403.856 1481.64 L403.856 1485.58 L381.911 1485.58 L381.911 1481.64 Q384.573 1478.89 389.157 1474.26 Q393.763 1469.61 394.944 1468.27 Q397.189 1465.74 398.069 1464.01 Q398.972 1462.25 398.972 1460.56 Q398.972 1457.8 397.027 1456.07 Q395.106 1454.33 392.004 1454.33 Q389.805 1454.33 387.351 1455.09 Q384.921 1455.86 382.143 1457.41 L382.143 1452.69 Q384.967 1451.55 387.421 1450.97 Q389.874 1450.39 391.911 1450.39 Q397.282 1450.39 400.476 1453.08 Q403.671 1455.77 403.671 1460.26 Q403.671 1462.39 402.86 1464.31 Q402.073 1466.2 399.967 1468.8 Q399.388 1469.47 396.286 1472.69 Q393.184 1475.88 387.536 1481.64 Z" fill="#000000" fill-rule="nonzero" fill-opacity="1" /><path clip-path="url(#clip600)" d="M413.717 1451.02 L432.073 1451.02 L432.073 1454.96 L417.999 1454.96 L417.999 1463.43 Q419.018 1463.08 420.036 1462.92 Q421.055 1462.73 422.073 1462.73 Q427.86 1462.73 431.24 1465.9 Q434.619 1469.08 434.619 1474.49 Q434.619 1480.07 431.147 1483.17 Q427.675 1486.25 421.356 1486.25 Q419.18 1486.25 416.911 1485.88 Q414.666 1485.51 412.258 1484.77 L412.258 1480.07 Q414.342 1481.2 416.564 1481.76 Q418.786 1482.32 421.263 1482.32 Q425.268 1482.32 427.606 1480.21 Q429.944 1478.1 429.944 1474.49 Q429.944 1470.88 427.606 1468.77 Q425.268 1466.67 421.263 1466.67 Q419.388 1466.67 417.513 1467.08 Q415.661 1467.5 413.717 1468.38 L413.717 1451.02 Z" fill="#000000" fill-rule="nonzero" fill-opacity="1" /><path clip-path="url(#clip600)" d="M453.832 1454.1 Q450.221 1454.1 448.393 1457.66 Q446.587 1461.2 446.587 1468.33 Q446.587 1475.44 448.393 1479.01 Q450.221 1482.55 453.832 1482.55 Q457.467 1482.55 459.272 1479.01 Q461.101 1475.44 461.101 1468.33 Q461.101 1461.2 459.272 1457.66 Q457.467 1454.1 453.832 1454.1 M453.832 1450.39 Q459.642 1450.39 462.698 1455 Q465.777 1459.58 465.777 1468.33 Q465.777 1477.06 462.698 1481.67 Q459.642 1486.25 453.832 1486.25 Q448.022 1486.25 444.943 1481.67 Q441.888 1477.06 441.888 1468.33 Q441.888 1459.58 444.943 1455 Q448.022 1450.39 453.832 1450.39 Z" fill="#000000" fill-rule="nonzero" fill-opacity="1" /><path clip-path="url(#clip600)" d="M886.459 1451.02 L904.815 1451.02 L904.815 1454.96 L890.741 1454.96 L890.741 1463.43 Q891.76 1463.08 892.778 1462.92 Q893.797 1462.73 894.815 1462.73 Q900.602 1462.73 903.982 1465.9 Q907.362 1469.08 907.362 1474.49 Q907.362 1480.07 903.889 1483.17 Q900.417 1486.25 894.098 1486.25 Q891.922 1486.25 889.653 1485.88 Q887.408 1485.51 885.001 1484.77 L885.001 1480.07 Q887.084 1481.2 889.306 1481.76 Q891.528 1482.32 894.005 1482.32 Q898.01 1482.32 900.348 1480.21 Q902.686 1478.1 902.686 1474.49 Q902.686 1470.88 900.348 1468.77 Q898.01 1466.67 894.005 1466.67 Q892.13 1466.67 890.255 1467.08 Q888.403 1467.5 886.459 1468.38 L886.459 1451.02 Z" fill="#000000" fill-rule="nonzero" fill-opacity="1" /><path clip-path="url(#clip600)" d="M926.575 1454.1 Q922.963 1454.1 921.135 1457.66 Q919.329 1461.2 919.329 1468.33 Q919.329 1475.44 921.135 1479.01 Q922.963 1482.55 926.575 1482.55 Q930.209 1482.55 932.014 1479.01 Q933.843 1475.44 933.843 1468.33 Q933.843 1461.2 932.014 1457.66 Q930.209 1454.1 926.575 1454.1 M926.575 1450.39 Q932.385 1450.39 935.44 1455 Q938.519 1459.58 938.519 1468.33 Q938.519 1477.06 935.44 1481.67 Q932.385 1486.25 926.575 1486.25 Q920.764 1486.25 917.686 1481.67 Q914.63 1477.06 914.63 1468.33 Q914.63 1459.58 917.686 1455 Q920.764 1450.39 926.575 1450.39 Z" fill="#000000" fill-rule="nonzero" fill-opacity="1" /><path clip-path="url(#clip600)" d="M956.736 1454.1 Q953.125 1454.1 951.297 1457.66 Q949.491 1461.2 949.491 1468.33 Q949.491 1475.44 951.297 1479.01 Q953.125 1482.55 956.736 1482.55 Q960.371 1482.55 962.176 1479.01 Q964.005 1475.44 964.005 1468.33 Q964.005 1461.2 962.176 1457.66 Q960.371 1454.1 956.736 1454.1 M956.736 1450.39 Q962.547 1450.39 965.602 1455 Q968.681 1459.58 968.681 1468.33 Q968.681 1477.06 965.602 1481.67 Q962.547 1486.25 956.736 1486.25 Q950.926 1486.25 947.848 1481.67 Q944.792 1477.06 944.792 1468.33 Q944.792 1459.58 947.848 1455 Q950.926 1450.39 956.736 1450.39 Z" fill="#000000" fill-rule="nonzero" fill-opacity="1" /><path clip-path="url(#clip600)" d="M1388.11 1451.02 L1410.34 1451.02 L1410.34 1453.01 L1397.79 1485.58 L1392.9 1485.58 L1404.71 1454.96 L1388.11 1454.96 L1388.11 1451.02 Z" fill="#000000" fill-rule="nonzero" fill-opacity="1" /><path clip-path="url(#clip600)" d="M1419.5 1451.02 L1437.86 1451.02 L1437.86 1454.96 L1423.78 1454.96 L1423.78 1463.43 Q1424.8 1463.08 1425.82 1462.92 Q1426.84 1462.73 1427.86 1462.73 Q1433.65 1462.73 1437.02 1465.9 Q1440.4 1469.08 1440.4 1474.49 Q1440.4 1480.07 1436.93 1483.17 Q1433.46 1486.25 1427.14 1486.25 Q1424.96 1486.25 1422.7 1485.88 Q1420.45 1485.51 1418.04 1484.77 L1418.04 1480.07 Q1420.13 1481.2 1422.35 1481.76 Q1424.57 1482.32 1427.05 1482.32 Q1431.05 1482.32 1433.39 1480.21 Q1435.73 1478.1 1435.73 1474.49 Q1435.73 1470.88 1433.39 1468.77 Q1431.05 1466.67 1427.05 1466.67 Q1425.17 1466.67 1423.3 1467.08 Q1421.45 1467.5 1419.5 1468.38 L1419.5 1451.02 Z" fill="#000000" fill-rule="nonzero" fill-opacity="1" /><path clip-path="url(#clip600)" d="M1459.62 1454.1 Q1456.01 1454.1 1454.18 1457.66 Q1452.37 1461.2 1452.37 1468.33 Q1452.37 1475.44 1454.18 1479.01 Q1456.01 1482.55 1459.62 1482.55 Q1463.25 1482.55 1465.06 1479.01 Q1466.89 1475.44 1466.89 1468.33 Q1466.89 1461.2 1465.06 1457.66 Q1463.25 1454.1 1459.62 1454.1 M1459.62 1450.39 Q1465.43 1450.39 1468.48 1455 Q1471.56 1459.58 1471.56 1468.33 Q1471.56 1477.06 1468.48 1481.67 Q1465.43 1486.25 1459.62 1486.25 Q1453.81 1486.25 1450.73 1481.67 Q1447.67 1477.06 1447.67 1468.33 Q1447.67 1459.58 1450.73 1455 Q1453.81 1450.39 1459.62 1450.39 Z" fill="#000000" fill-rule="nonzero" fill-opacity="1" /><path clip-path="url(#clip600)" d="M1877.36 1481.64 L1885 1481.64 L1885 1455.28 L1876.69 1456.95 L1876.69 1452.69 L1884.95 1451.02 L1889.63 1451.02 L1889.63 1481.64 L1897.27 1481.64 L1897.27 1485.58 L1877.36 1485.58 L1877.36 1481.64 Z" fill="#000000" fill-rule="nonzero" fill-opacity="1" /><path clip-path="url(#clip600)" d="M1916.71 1454.1 Q1913.1 1454.1 1911.27 1457.66 Q1909.47 1461.2 1909.47 1468.33 Q1909.47 1475.44 1911.27 1479.01 Q1913.1 1482.55 1916.71 1482.55 Q1920.35 1482.55 1922.15 1479.01 Q1923.98 1475.44 1923.98 1468.33 Q1923.98 1461.2 1922.15 1457.66 Q1920.35 1454.1 1916.71 1454.1 M1916.71 1450.39 Q1922.52 1450.39 1925.58 1455 Q1928.66 1459.58 1928.66 1468.33 Q1928.66 1477.06 1925.58 1481.67 Q1922.52 1486.25 1916.71 1486.25 Q1910.9 1486.25 1907.82 1481.67 Q1904.77 1477.06 1904.77 1468.33 Q1904.77 1459.58 1907.82 1455 Q1910.9 1450.39 1916.71 1450.39 Z" fill="#000000" fill-rule="nonzero" fill-opacity="1" /><path clip-path="url(#clip600)" d="M1946.87 1454.1 Q1943.26 1454.1 1941.43 1457.66 Q1939.63 1461.2 1939.63 1468.33 Q1939.63 1475.44 1941.43 1479.01 Q1943.26 1482.55 1946.87 1482.55 Q1950.51 1482.55 1952.31 1479.01 Q1954.14 1475.44 1954.14 1468.33 Q1954.14 1461.2 1952.31 1457.66 Q1950.51 1454.1 1946.87 1454.1 M1946.87 1450.39 Q1952.68 1450.39 1955.74 1455 Q1958.82 1459.58 1958.82 1468.33 Q1958.82 1477.06 1955.74 1481.67 Q1952.68 1486.25 1946.87 1486.25 Q1941.06 1486.25 1937.98 1481.67 Q1934.93 1477.06 1934.93 1468.33 Q1934.93 1459.58 1937.98 1455 Q1941.06 1450.39 1946.87 1450.39 Z" fill="#000000" fill-rule="nonzero" fill-opacity="1" /><path clip-path="url(#clip600)" d="M1977.04 1454.1 Q1973.42 1454.1 1971.6 1457.66 Q1969.79 1461.2 1969.79 1468.33 Q1969.79 1475.44 1971.6 1479.01 Q1973.42 1482.55 1977.04 1482.55 Q1980.67 1482.55 1982.48 1479.01 Q1984.3 1475.44 1984.3 1468.33 Q1984.3 1461.2 1982.48 1457.66 Q1980.67 1454.1 1977.04 1454.1 M1977.04 1450.39 Q1982.85 1450.39 1985.9 1455 Q1988.98 1459.58 1988.98 1468.33 Q1988.98 1477.06 1985.9 1481.67 Q1982.85 1486.25 1977.04 1486.25 Q1971.23 1486.25 1968.15 1481.67 Q1965.09 1477.06 1965.09 1468.33 Q1965.09 1459.58 1968.15 1455 Q1971.23 1450.39 1977.04 1450.39 Z" fill="#000000" fill-rule="nonzero" fill-opacity="1" /><path clip-path="url(#clip600)" d="M1051.36 1520.52 L1091.56 1520.52 L1091.56 1525.93 L1074.69 1525.93 L1074.69 1568.04 L1068.23 1568.04 L1068.23 1525.93 L1051.36 1525.93 L1051.36 1520.52 Z" fill="#000000" fill-rule="nonzero" fill-opacity="1" /><path clip-path="url(#clip600)" d="M1116.93 1548.76 L1116.93 1551.62 L1090 1551.62 Q1090.39 1557.67 1093.63 1560.85 Q1096.91 1564 1102.74 1564 Q1106.11 1564 1109.26 1563.17 Q1112.44 1562.35 1115.56 1560.69 L1115.56 1566.23 Q1112.41 1567.57 1109.1 1568.27 Q1105.79 1568.97 1102.39 1568.97 Q1093.86 1568.97 1088.86 1564 Q1083.89 1559.04 1083.89 1550.57 Q1083.89 1541.82 1088.6 1536.69 Q1093.35 1531.54 1101.37 1531.54 Q1108.56 1531.54 1112.73 1536.18 Q1116.93 1540.8 1116.93 1548.76 M1111.07 1547.04 Q1111.01 1542.23 1108.37 1539.37 Q1105.76 1536.5 1101.43 1536.5 Q1096.53 1536.5 1093.57 1539.27 Q1090.64 1542.04 1090.2 1547.07 L1111.07 1547.04 Z" fill="#000000" fill-rule="nonzero" fill-opacity="1" /><path clip-path="url(#clip600)" d="M1147.2 1537.87 Q1146.21 1537.3 1145.04 1537.04 Q1143.89 1536.76 1142.49 1536.76 Q1137.52 1536.76 1134.85 1540 Q1132.21 1543.22 1132.21 1549.27 L1132.21 1568.04 L1126.32 1568.04 L1126.32 1532.4 L1132.21 1532.4 L1132.21 1537.93 Q1134.05 1534.69 1137.02 1533.13 Q1139.98 1531.54 1144.21 1531.54 Q1144.81 1531.54 1145.55 1531.63 Q1146.28 1531.7 1147.17 1531.85 L1147.2 1537.87 Z" fill="#000000" fill-rule="nonzero" fill-opacity="1" /><path clip-path="url(#clip600)" d="M1179.95 1539.24 Q1182.15 1535.29 1185.2 1533.41 Q1188.26 1531.54 1192.4 1531.54 Q1197.97 1531.54 1200.99 1535.45 Q1204.01 1539.33 1204.01 1546.53 L1204.01 1568.04 L1198.13 1568.04 L1198.13 1546.72 Q1198.13 1541.59 1196.31 1539.11 Q1194.5 1536.63 1190.77 1536.63 Q1186.22 1536.63 1183.58 1539.65 Q1180.94 1542.68 1180.94 1547.9 L1180.94 1568.04 L1175.05 1568.04 L1175.05 1546.72 Q1175.05 1541.56 1173.24 1539.11 Q1171.42 1536.63 1167.63 1536.63 Q1163.15 1536.63 1160.5 1539.68 Q1157.86 1542.71 1157.86 1547.9 L1157.86 1568.04 L1151.97 1568.04 L1151.97 1532.4 L1157.86 1532.4 L1157.86 1537.93 Q1159.87 1534.66 1162.67 1533.1 Q1165.47 1531.54 1169.32 1531.54 Q1173.2 1531.54 1175.91 1533.51 Q1178.65 1535.48 1179.95 1539.24 Z" fill="#000000" fill-rule="nonzero" fill-opacity="1" /><path clip-path="url(#clip600)" d="M1215.7 1532.4 L1221.55 1532.4 L1221.55 1568.04 L1215.7 1568.04 L1215.7 1532.4 M1215.7 1518.52 L1221.55 1518.52 L1221.55 1525.93 L1215.7 1525.93 L1215.7 1518.52 Z" fill="#000000" fill-rule="nonzero" fill-opacity="1" /><path clip-path="url(#clip600)" d="M1263.44 1546.53 L1263.44 1568.04 L1257.58 1568.04 L1257.58 1546.72 Q1257.58 1541.66 1255.61 1539.14 Q1253.63 1536.63 1249.69 1536.63 Q1244.95 1536.63 1242.21 1539.65 Q1239.47 1542.68 1239.47 1547.9 L1239.47 1568.04 L1233.58 1568.04 L1233.58 1532.4 L1239.47 1532.4 L1239.47 1537.93 Q1241.57 1534.72 1244.4 1533.13 Q1247.27 1531.54 1250.99 1531.54 Q1257.14 1531.54 1260.29 1535.36 Q1263.44 1539.14 1263.44 1546.53 Z" fill="#000000" fill-rule="nonzero" fill-opacity="1" /><path clip-path="url(#clip600)" d="M1291.32 1550.12 Q1284.22 1550.12 1281.48 1551.75 Q1278.75 1553.37 1278.75 1557.29 Q1278.75 1560.4 1280.78 1562.25 Q1282.85 1564.07 1286.39 1564.07 Q1291.26 1564.07 1294.18 1560.63 Q1297.14 1557.16 1297.14 1551.43 L1297.14 1550.12 L1291.32 1550.12 M1303 1547.71 L1303 1568.04 L1297.14 1568.04 L1297.14 1562.63 Q1295.14 1565.88 1292.15 1567.44 Q1289.16 1568.97 1284.83 1568.97 Q1279.35 1568.97 1276.11 1565.91 Q1272.89 1562.82 1272.89 1557.67 Q1272.89 1551.65 1276.9 1548.6 Q1280.94 1545.54 1288.93 1545.54 L1297.14 1545.54 L1297.14 1544.97 Q1297.14 1540.93 1294.47 1538.73 Q1291.83 1536.5 1287.02 1536.5 Q1283.97 1536.5 1281.07 1537.23 Q1278.17 1537.97 1275.5 1539.43 L1275.5 1534.02 Q1278.72 1532.78 1281.74 1532.17 Q1284.76 1531.54 1287.63 1531.54 Q1295.36 1531.54 1299.18 1535.55 Q1303 1539.56 1303 1547.71 Z" fill="#000000" fill-rule="nonzero" fill-opacity="1" /><path clip-path="url(#clip600)" d="M1315.06 1518.52 L1320.92 1518.52 L1320.92 1568.04 L1315.06 1568.04 L1315.06 1518.52 Z" fill="#000000" fill-rule="nonzero" fill-opacity="1" /><path clip-path="url(#clip600)" d="M1359.56 1562.7 L1359.56 1581.6 L1353.67 1581.6 L1353.67 1532.4 L1359.56 1532.4 L1359.56 1537.81 Q1361.41 1534.62 1364.21 1533.1 Q1367.04 1531.54 1370.95 1531.54 Q1377.45 1531.54 1381.49 1536.69 Q1385.56 1541.85 1385.56 1550.25 Q1385.56 1558.65 1381.49 1563.81 Q1377.45 1568.97 1370.95 1568.97 Q1367.04 1568.97 1364.21 1567.44 Q1361.41 1565.88 1359.56 1562.7 M1379.48 1550.25 Q1379.48 1543.79 1376.81 1540.13 Q1374.17 1536.44 1369.52 1536.44 Q1364.88 1536.44 1362.2 1540.13 Q1359.56 1543.79 1359.56 1550.25 Q1359.56 1556.71 1362.2 1560.4 Q1364.88 1564.07 1369.52 1564.07 Q1374.17 1564.07 1376.81 1560.4 Q1379.48 1556.71 1379.48 1550.25 Z" fill="#000000" fill-rule="nonzero" fill-opacity="1" /><path clip-path="url(#clip600)" d="M1415.93 1537.87 Q1414.94 1537.3 1413.76 1537.04 Q1412.62 1536.76 1411.22 1536.76 Q1406.25 1536.76 1403.58 1540 Q1400.94 1543.22 1400.94 1549.27 L1400.94 1568.04 L1395.05 1568.04 L1395.05 1532.4 L1400.94 1532.4 L1400.94 1537.93 Q1402.78 1534.69 1405.74 1533.13 Q1408.7 1531.54 1412.94 1531.54 Q1413.54 1531.54 1414.27 1531.63 Q1415.01 1531.7 1415.9 1531.85 L1415.93 1537.87 Z" fill="#000000" fill-rule="nonzero" fill-opacity="1" /><path clip-path="url(#clip600)" d="M1422.07 1532.4 L1427.93 1532.4 L1427.93 1568.04 L1422.07 1568.04 L1422.07 1532.4 M1422.07 1518.52 L1427.93 1518.52 L1427.93 1525.93 L1422.07 1525.93 L1422.07 1518.52 Z" fill="#000000" fill-rule="nonzero" fill-opacity="1" /><path clip-path="url(#clip600)" d="M1465.84 1533.76 L1465.84 1539.24 Q1463.35 1537.87 1460.84 1537.2 Q1458.36 1536.5 1455.81 1536.5 Q1450.11 1536.5 1446.96 1540.13 Q1443.81 1543.73 1443.81 1550.25 Q1443.81 1556.78 1446.96 1560.4 Q1450.11 1564 1455.81 1564 Q1458.36 1564 1460.84 1563.33 Q1463.35 1562.63 1465.84 1561.26 L1465.84 1566.68 Q1463.38 1567.82 1460.74 1568.39 Q1458.13 1568.97 1455.17 1568.97 Q1447.12 1568.97 1442.38 1563.91 Q1437.64 1558.85 1437.64 1550.25 Q1437.64 1541.53 1442.41 1536.53 Q1447.22 1531.54 1455.55 1531.54 Q1458.26 1531.54 1460.84 1532.11 Q1463.42 1532.65 1465.84 1533.76 Z" fill="#000000" fill-rule="nonzero" fill-opacity="1" /><path clip-path="url(#clip600)" d="M1506.51 1548.76 L1506.51 1551.62 L1479.59 1551.62 Q1479.97 1557.67 1483.21 1560.85 Q1486.49 1564 1492.32 1564 Q1495.69 1564 1498.84 1563.17 Q1502.02 1562.35 1505.14 1560.69 L1505.14 1566.23 Q1501.99 1567.57 1498.68 1568.27 Q1495.37 1568.97 1491.97 1568.97 Q1483.44 1568.97 1478.44 1564 Q1473.47 1559.04 1473.47 1550.57 Q1473.47 1541.82 1478.19 1536.69 Q1482.93 1531.54 1490.95 1531.54 Q1498.14 1531.54 1502.31 1536.18 Q1506.51 1540.8 1506.51 1548.76 M1500.66 1547.04 Q1500.59 1542.23 1497.95 1539.37 Q1495.34 1536.5 1491.01 1536.5 Q1486.11 1536.5 1483.15 1539.27 Q1480.22 1542.04 1479.78 1547.07 L1500.66 1547.04 Z" fill="#000000" fill-rule="nonzero" fill-opacity="1" /><polyline clip-path="url(#clip600)" style="stroke:#000000; stroke-linecap:round; stroke-linejoin:round; stroke-width:4; stroke-opacity:1; fill:none" points="205.121,1423.18 205.121,106.192 "/>
<polyline clip-path="url(#clip600)" style="stroke:#000000; stroke-linecap:round; stroke-linejoin:round; stroke-width:4; stroke-opacity:1; fill:none" points="205.121,1423.18 224.019,1423.18 "/>
<polyline clip-path="url(#clip600)" style="stroke:#000000; stroke-linecap:round; stroke-linejoin:round; stroke-width:4; stroke-opacity:1; fill:none" points="205.121,1093.93 224.019,1093.93 "/>
<polyline clip-path="url(#clip600)" style="stroke:#000000; stroke-linecap:round; stroke-linejoin:round; stroke-width:4; stroke-opacity:1; fill:none" points="205.121,764.686 224.019,764.686 "/>
<polyline clip-path="url(#clip600)" style="stroke:#000000; stroke-linecap:round; stroke-linejoin:round; stroke-width:4; stroke-opacity:1; fill:none" points="205.121,435.439 224.019,435.439 "/>
<polyline clip-path="url(#clip600)" style="stroke:#000000; stroke-linecap:round; stroke-linejoin:round; stroke-width:4; stroke-opacity:1; fill:none" points="205.121,106.192 224.019,106.192 "/>
<path clip-path="url(#clip600)" d="M157.177 1408.98 Q153.566 1408.98 151.737 1412.54 Q149.931 1416.08 149.931 1423.21 Q149.931 1430.32 151.737 1433.89 Q153.566 1437.43 157.177 1437.43 Q160.811 1437.43 162.616 1433.89 Q164.445 1430.32 164.445 1423.21 Q164.445 1416.08 162.616 1412.54 Q160.811 1408.98 157.177 1408.98 M157.177 1405.27 Q162.987 1405.27 166.042 1409.88 Q169.121 1414.46 169.121 1423.21 Q169.121 1431.94 166.042 1436.55 Q162.987 1441.13 157.177 1441.13 Q151.366 1441.13 148.288 1436.55 Q145.232 1431.94 145.232 1423.21 Q145.232 1414.46 148.288 1409.88 Q151.366 1405.27 157.177 1405.27 Z" fill="#000000" fill-rule="nonzero" fill-opacity="1" /><path clip-path="url(#clip600)" d="M121.043 1107.28 L137.362 1107.28 L137.362 1111.21 L115.418 1111.21 L115.418 1107.28 Q118.08 1104.52 122.663 1099.89 Q127.269 1095.24 128.45 1093.9 Q130.695 1091.38 131.575 1089.64 Q132.478 1087.88 132.478 1086.19 Q132.478 1083.44 130.533 1081.7 Q128.612 1079.96 125.51 1079.96 Q123.311 1079.96 120.857 1080.73 Q118.427 1081.49 115.649 1083.04 L115.649 1078.32 Q118.473 1077.19 120.927 1076.61 Q123.38 1076.03 125.418 1076.03 Q130.788 1076.03 133.982 1078.71 Q137.177 1081.4 137.177 1085.89 Q137.177 1088.02 136.367 1089.94 Q135.579 1091.84 133.473 1094.43 Q132.894 1095.1 129.792 1098.32 Q126.691 1101.51 121.043 1107.28 Z" fill="#000000" fill-rule="nonzero" fill-opacity="1" /><path clip-path="url(#clip600)" d="M157.177 1079.73 Q153.566 1079.73 151.737 1083.3 Q149.931 1086.84 149.931 1093.97 Q149.931 1101.07 151.737 1104.64 Q153.566 1108.18 157.177 1108.18 Q160.811 1108.18 162.616 1104.64 Q164.445 1101.07 164.445 1093.97 Q164.445 1086.84 162.616 1083.3 Q160.811 1079.73 157.177 1079.73 M157.177 1076.03 Q162.987 1076.03 166.042 1080.63 Q169.121 1085.22 169.121 1093.97 Q169.121 1102.69 166.042 1107.3 Q162.987 1111.88 157.177 1111.88 Q151.366 1111.88 148.288 1107.3 Q145.232 1102.69 145.232 1093.97 Q145.232 1085.22 148.288 1080.63 Q151.366 1076.03 157.177 1076.03 Z" fill="#000000" fill-rule="nonzero" fill-opacity="1" /><path clip-path="url(#clip600)" d="M129.862 751.48 L118.056 769.929 L129.862 769.929 L129.862 751.48 M128.635 747.406 L134.515 747.406 L134.515 769.929 L139.445 769.929 L139.445 773.818 L134.515 773.818 L134.515 781.966 L129.862 781.966 L129.862 773.818 L114.26 773.818 L114.26 769.304 L128.635 747.406 Z" fill="#000000" fill-rule="nonzero" fill-opacity="1" /><path clip-path="url(#clip600)" d="M157.177 750.485 Q153.566 750.485 151.737 754.049 Q149.931 757.591 149.931 764.721 Q149.931 771.827 151.737 775.392 Q153.566 778.934 157.177 778.934 Q160.811 778.934 162.616 775.392 Q164.445 771.827 164.445 764.721 Q164.445 757.591 162.616 754.049 Q160.811 750.485 157.177 750.485 M157.177 746.781 Q162.987 746.781 166.042 751.387 Q169.121 755.971 169.121 764.721 Q169.121 773.448 166.042 778.054 Q162.987 782.637 157.177 782.637 Q151.366 782.637 148.288 778.054 Q145.232 773.448 145.232 764.721 Q145.232 755.971 148.288 751.387 Q151.366 746.781 157.177 746.781 Z" fill="#000000" fill-rule="nonzero" fill-opacity="1" /><path clip-path="url(#clip600)" d="M127.593 433.576 Q124.445 433.576 122.593 435.728 Q120.765 437.881 120.765 441.631 Q120.765 445.358 122.593 447.534 Q124.445 449.687 127.593 449.687 Q130.742 449.687 132.57 447.534 Q134.422 445.358 134.422 441.631 Q134.422 437.881 132.57 435.728 Q130.742 433.576 127.593 433.576 M136.876 418.923 L136.876 423.182 Q135.117 422.349 133.311 421.909 Q131.529 421.469 129.769 421.469 Q125.14 421.469 122.686 424.594 Q120.255 427.719 119.908 434.039 Q121.274 432.025 123.334 430.96 Q125.394 429.872 127.871 429.872 Q133.08 429.872 136.089 433.043 Q139.121 436.191 139.121 441.631 Q139.121 446.955 135.973 450.173 Q132.825 453.39 127.593 453.39 Q121.598 453.39 118.427 448.807 Q115.256 444.201 115.256 435.474 Q115.256 427.279 119.144 422.418 Q123.033 417.534 129.584 417.534 Q131.343 417.534 133.126 417.881 Q134.931 418.228 136.876 418.923 Z" fill="#000000" fill-rule="nonzero" fill-opacity="1" /><path clip-path="url(#clip600)" d="M157.177 421.238 Q153.566 421.238 151.737 424.803 Q149.931 428.344 149.931 435.474 Q149.931 442.58 151.737 446.145 Q153.566 449.687 157.177 449.687 Q160.811 449.687 162.616 446.145 Q164.445 442.58 164.445 435.474 Q164.445 428.344 162.616 424.803 Q160.811 421.238 157.177 421.238 M157.177 417.534 Q162.987 417.534 166.042 422.141 Q169.121 426.724 169.121 435.474 Q169.121 444.201 166.042 448.807 Q162.987 453.39 157.177 453.39 Q151.366 453.39 148.288 448.807 Q145.232 444.201 145.232 435.474 Q145.232 426.724 148.288 422.141 Q151.366 417.534 157.177 417.534 Z" fill="#000000" fill-rule="nonzero" fill-opacity="1" /><path clip-path="url(#clip600)" d="M127.015 107.06 Q123.681 107.06 121.76 108.843 Q119.862 110.625 119.862 113.75 Q119.862 116.875 121.76 118.657 Q123.681 120.44 127.015 120.44 Q130.348 120.44 132.269 118.657 Q134.191 116.852 134.191 113.75 Q134.191 110.625 132.269 108.843 Q130.371 107.06 127.015 107.06 M122.339 105.069 Q119.33 104.329 117.64 102.269 Q115.973 100.208 115.973 97.2454 Q115.973 93.1019 118.913 90.6945 Q121.876 88.2871 127.015 88.2871 Q132.177 88.2871 135.117 90.6945 Q138.056 93.1019 138.056 97.2454 Q138.056 100.208 136.367 102.269 Q134.7 104.329 131.714 105.069 Q135.093 105.856 136.968 108.148 Q138.867 110.44 138.867 113.75 Q138.867 118.773 135.788 121.458 Q132.732 124.143 127.015 124.143 Q121.297 124.143 118.218 121.458 Q115.163 118.773 115.163 113.75 Q115.163 110.44 117.061 108.148 Q118.959 105.856 122.339 105.069 M120.626 97.6852 Q120.626 100.37 122.293 101.875 Q123.982 103.38 127.015 103.38 Q130.024 103.38 131.714 101.875 Q133.427 100.37 133.427 97.6852 Q133.427 95.0001 131.714 93.4954 Q130.024 91.9908 127.015 91.9908 Q123.982 91.9908 122.293 93.4954 Q120.626 95.0001 120.626 97.6852 Z" fill="#000000" fill-rule="nonzero" fill-opacity="1" /><path clip-path="url(#clip600)" d="M157.177 91.9908 Q153.566 91.9908 151.737 95.5556 Q149.931 99.0973 149.931 106.227 Q149.931 113.333 151.737 116.898 Q153.566 120.44 157.177 120.44 Q160.811 120.44 162.616 116.898 Q164.445 113.333 164.445 106.227 Q164.445 99.0973 162.616 95.5556 Q160.811 91.9908 157.177 91.9908 M157.177 88.2871 Q162.987 88.2871 166.042 92.8936 Q169.121 97.4769 169.121 106.227 Q169.121 114.954 166.042 119.56 Q162.987 124.143 157.177 124.143 Q151.366 124.143 148.288 119.56 Q145.232 114.954 145.232 106.227 Q145.232 97.4769 148.288 92.8936 Q151.366 88.2871 157.177 88.2871 Z" fill="#000000" fill-rule="nonzero" fill-opacity="1" /><path clip-path="url(#clip600)" d="M20.1444 820.545 L26.9239 820.545 Q23.9002 823.792 22.4043 827.484 Q20.9083 831.144 20.9083 835.282 Q20.9083 843.43 25.9054 847.758 Q30.8707 852.087 40.2919 852.087 Q49.6813 852.087 54.6784 847.758 Q59.6436 843.43 59.6436 835.282 Q59.6436 831.144 58.1477 827.484 Q56.6518 823.792 53.6281 820.545 L60.3439 820.545 Q62.6355 823.919 63.7814 827.706 Q64.9272 831.462 64.9272 835.664 Q64.9272 846.453 58.3387 852.66 Q51.7183 858.867 40.2919 858.867 Q28.8336 858.867 22.2451 852.66 Q15.6248 846.453 15.6248 835.664 Q15.6248 831.399 16.7706 827.643 Q17.8846 823.855 20.1444 820.545 Z" fill="#000000" fill-rule="nonzero" fill-opacity="1" /><path clip-path="url(#clip600)" d="M32.4621 797.056 Q32.4621 801.766 36.1542 804.503 Q39.8145 807.241 46.212 807.241 Q52.6095 807.241 56.3017 804.535 Q59.9619 801.798 59.9619 797.056 Q59.9619 792.377 56.2698 789.64 Q52.5777 786.902 46.212 786.902 Q39.8781 786.902 36.186 789.64 Q32.4621 792.377 32.4621 797.056 M27.4968 797.056 Q27.4968 789.417 32.4621 785.056 Q37.4273 780.696 46.212 780.696 Q54.9649 780.696 59.9619 785.056 Q64.9272 789.417 64.9272 797.056 Q64.9272 804.726 59.9619 809.087 Q54.9649 813.415 46.212 813.415 Q37.4273 813.415 32.4621 809.087 Q27.4968 804.726 27.4968 797.056 Z" fill="#000000" fill-rule="nonzero" fill-opacity="1" /><path clip-path="url(#clip600)" d="M49.9359 771.593 L28.3562 771.593 L28.3562 765.736 L49.7131 765.736 Q54.7739 765.736 57.3202 763.763 Q59.8346 761.79 59.8346 757.843 Q59.8346 753.1 56.8109 750.363 Q53.7872 747.594 48.5673 747.594 L28.3562 747.594 L28.3562 741.738 L64.0042 741.738 L64.0042 747.594 L58.5296 747.594 Q61.7762 749.727 63.3676 752.559 Q64.9272 755.36 64.9272 759.084 Q64.9272 765.227 61.1078 768.41 Q57.2883 771.593 49.9359 771.593 M27.4968 756.856 L27.4968 756.856 Z" fill="#000000" fill-rule="nonzero" fill-opacity="1" /><path clip-path="url(#clip600)" d="M42.4881 700.042 L64.0042 700.042 L64.0042 705.899 L42.679 705.899 Q37.6183 705.899 35.1038 707.872 Q32.5894 709.845 32.5894 713.792 Q32.5894 718.535 35.6131 721.272 Q38.6368 724.009 43.8567 724.009 L64.0042 724.009 L64.0042 729.897 L28.3562 729.897 L28.3562 724.009 L33.8944 724.009 Q30.6797 721.908 29.0883 719.076 Q27.4968 716.211 27.4968 712.487 Q27.4968 706.344 31.3163 703.193 Q35.1038 700.042 42.4881 700.042 Z" fill="#000000" fill-rule="nonzero" fill-opacity="1" /><path clip-path="url(#clip600)" d="M18.2347 682.568 L28.3562 682.568 L28.3562 670.505 L32.9077 670.505 L32.9077 682.568 L52.2594 682.568 Q56.6199 682.568 57.8613 681.391 Q59.1026 680.181 59.1026 676.521 L59.1026 670.505 L64.0042 670.505 L64.0042 676.521 Q64.0042 683.3 61.4897 685.879 Q58.9434 688.457 52.2594 688.457 L32.9077 688.457 L32.9077 692.753 L28.3562 692.753 L28.3562 688.457 L18.2347 688.457 L18.2347 682.568 Z" fill="#000000" fill-rule="nonzero" fill-opacity="1" /><path clip-path="url(#clip600)" d="M667.136 12.6041 Q660.77 12.6041 657.009 17.3494 Q653.276 22.0948 653.276 30.2834 Q653.276 38.4431 657.009 43.1884 Q660.77 47.9338 667.136 47.9338 Q673.502 47.9338 677.206 43.1884 Q680.938 38.4431 680.938 30.2834 Q680.938 22.0948 677.206 17.3494 Q673.502 12.6041 667.136 12.6041 M675.325 51.0588 L683.021 59.4788 L675.961 59.4788 L669.567 52.5634 Q668.612 52.6212 668.091 52.6502 Q667.599 52.6791 667.136 52.6791 Q658.022 52.6791 652.553 46.6028 Q647.113 40.4975 647.113 30.2834 Q647.113 20.0404 652.553 13.964 Q658.022 7.85875 667.136 7.85875 Q676.222 7.85875 681.662 13.964 Q687.101 20.0404 687.101 30.2834 Q687.101 37.8065 684.063 43.1595 Q681.054 48.5125 675.325 51.0588 Z" fill="#000000" fill-rule="nonzero" fill-opacity="1" /><path clip-path="url(#clip600)" d="M713.779 12.6041 Q707.414 12.6041 703.652 17.3494 Q699.92 22.0948 699.92 30.2834 Q699.92 38.4431 703.652 43.1884 Q707.414 47.9338 713.779 47.9338 Q720.145 47.9338 723.849 43.1884 Q727.581 38.4431 727.581 30.2834 Q727.581 22.0948 723.849 17.3494 Q720.145 12.6041 713.779 12.6041 M721.968 51.0588 L729.665 59.4788 L722.605 59.4788 L716.21 52.5634 Q715.255 52.6212 714.734 52.6502 Q714.242 52.6791 713.779 52.6791 Q704.665 52.6791 699.196 46.6028 Q693.756 40.4975 693.756 30.2834 Q693.756 20.0404 699.196 13.964 Q704.665 7.85875 713.779 7.85875 Q722.865 7.85875 728.305 13.964 Q733.745 20.0404 733.745 30.2834 Q733.745 37.8065 730.706 43.1595 Q727.697 48.5125 721.968 51.0588 Z" fill="#000000" fill-rule="nonzero" fill-opacity="1" /><path clip-path="url(#clip600)" d="M760.423 12.6041 Q754.057 12.6041 750.295 17.3494 Q746.563 22.0948 746.563 30.2834 Q746.563 38.4431 750.295 43.1884 Q754.057 47.9338 760.423 47.9338 Q766.788 47.9338 770.492 43.1884 Q774.225 38.4431 774.225 30.2834 Q774.225 22.0948 770.492 17.3494 Q766.788 12.6041 760.423 12.6041 M768.611 51.0588 L776.308 59.4788 L769.248 59.4788 L762.853 52.5634 Q761.898 52.6212 761.378 52.6502 Q760.886 52.6791 760.423 52.6791 Q751.308 52.6791 745.839 46.6028 Q740.4 40.4975 740.4 30.2834 Q740.4 20.0404 745.839 13.964 Q751.308 7.85875 760.423 7.85875 Q769.508 7.85875 774.948 13.964 Q780.388 20.0404 780.388 30.2834 Q780.388 37.8065 777.35 43.1595 Q774.34 48.5125 768.611 51.0588 Z" fill="#000000" fill-rule="nonzero" fill-opacity="1" /><path clip-path="url(#clip600)" d="M805.446 33.2348 L821.042 33.2348 L821.042 37.9801 L805.446 37.9801 L805.446 33.2348 Z" fill="#000000" fill-rule="nonzero" fill-opacity="1" /><path clip-path="url(#clip600)" d="M859.728 51.84 L843.235 8.64 L849.34 8.64 L863.026 45.0113 L876.742 8.64 L882.818 8.64 L866.354 51.84 L859.728 51.84 Z" fill="#000000" fill-rule="nonzero" fill-opacity="1" /><path clip-path="url(#clip600)" d="M889.126 8.64 L894.971 8.64 L894.971 51.84 L889.126 51.84 L889.126 8.64 Z" fill="#000000" fill-rule="nonzero" fill-opacity="1" /><path clip-path="url(#clip600)" d="M904.519 8.64 L910.798 8.64 L921.533 24.6989 L932.326 8.64 L938.605 8.64 L924.716 29.3864 L939.531 51.84 L933.252 51.84 L921.099 33.4663 L908.859 51.84 L902.552 51.84 L917.974 28.7788 L904.519 8.64 Z" fill="#000000" fill-rule="nonzero" fill-opacity="1" /><path clip-path="url(#clip600)" d="M941.325 33.2348 L956.92 33.2348 L956.92 37.9801 L941.325 37.9801 L941.325 33.2348 Z" fill="#000000" fill-rule="nonzero" fill-opacity="1" /><path clip-path="url(#clip600)" d="M988.72 20.677 L988.72 25.6538 Q986.463 24.4096 984.177 23.802 Q981.92 23.1654 979.606 23.1654 Q974.426 23.1654 971.562 26.464 Q968.697 29.7336 968.697 35.6653 Q968.697 41.597 971.562 44.8956 Q974.426 48.1653 979.606 48.1653 Q981.92 48.1653 984.177 47.5576 Q986.463 46.921 988.72 45.6768 L988.72 50.5958 Q986.492 51.6375 984.09 52.1583 Q981.718 52.6791 979.027 52.6791 Q971.706 52.6791 967.395 48.0784 Q963.084 43.4778 963.084 35.6653 Q963.084 27.7371 967.424 23.1943 Q971.793 18.6515 979.374 18.6515 Q981.834 18.6515 984.177 19.1724 Q986.521 19.6642 988.72 20.677 Z" fill="#000000" fill-rule="nonzero" fill-opacity="1" /><path clip-path="url(#clip600)" d="M1010.54 23.1654 Q1006.25 23.1654 1003.77 26.5218 Q1001.28 29.8494 1001.28 35.6653 Q1001.28 41.4813 1003.74 44.8377 Q1006.23 48.1653 1010.54 48.1653 Q1014.79 48.1653 1017.28 44.8088 Q1019.77 41.4523 1019.77 35.6653 Q1019.77 29.9072 1017.28 26.5508 Q1014.79 23.1654 1010.54 23.1654 M1010.54 18.6515 Q1017.48 18.6515 1021.45 23.1654 Q1025.41 27.6792 1025.41 35.6653 Q1025.41 43.6225 1021.45 48.1653 Q1017.48 52.6791 1010.54 52.6791 Q1003.56 52.6791 999.6 48.1653 Q995.664 43.6225 995.664 35.6653 Q995.664 27.6792 999.6 23.1654 Q1003.56 18.6515 1010.54 18.6515 Z" fill="#000000" fill-rule="nonzero" fill-opacity="1" /><path clip-path="url(#clip600)" d="M1061.17 32.2799 L1061.17 51.84 L1055.85 51.84 L1055.85 32.4535 Q1055.85 27.8529 1054.06 25.567 Q1052.26 23.2811 1048.67 23.2811 Q1044.36 23.2811 1041.87 26.03 Q1039.39 28.7788 1039.39 33.5241 L1039.39 51.84 L1034.03 51.84 L1034.03 19.4328 L1039.39 19.4328 L1039.39 24.4675 Q1041.3 21.545 1043.87 20.0983 Q1046.47 18.6515 1049.86 18.6515 Q1055.44 18.6515 1058.31 22.1237 Q1061.17 25.567 1061.17 32.2799 Z" fill="#000000" fill-rule="nonzero" fill-opacity="1" /><path clip-path="url(#clip600)" d="M1093.12 24.3517 L1093.12 6.81709 L1098.44 6.81709 L1098.44 51.84 L1093.12 51.84 L1093.12 46.9789 Q1091.44 49.8724 1088.86 51.2902 Q1086.32 52.6791 1082.73 52.6791 Q1076.86 52.6791 1073.15 47.9916 Q1069.48 43.3042 1069.48 35.6653 Q1069.48 28.0265 1073.15 23.339 Q1076.86 18.6515 1082.73 18.6515 Q1086.32 18.6515 1088.86 20.0693 Q1091.44 21.4582 1093.12 24.3517 M1074.98 35.6653 Q1074.98 41.5391 1077.38 44.8956 Q1079.81 48.2231 1084.03 48.2231 Q1088.26 48.2231 1090.69 44.8956 Q1093.12 41.5391 1093.12 35.6653 Q1093.12 29.7915 1090.69 26.464 Q1088.26 23.1075 1084.03 23.1075 Q1079.81 23.1075 1077.38 26.464 Q1074.98 29.7915 1074.98 35.6653 Z" fill="#000000" fill-rule="nonzero" fill-opacity="1" /><path clip-path="url(#clip600)" d="M1110.16 44.4905 L1116.27 44.4905 L1116.27 51.84 L1110.16 51.84 L1110.16 44.4905 Z" fill="#000000" fill-rule="nonzero" fill-opacity="1" /><path clip-path="url(#clip600)" d="M1179.66 11.9675 L1179.66 18.1307 Q1176.71 15.3819 1173.35 14.0219 Q1170.03 12.662 1166.27 12.662 Q1158.86 12.662 1154.92 17.2048 Q1150.99 21.7186 1150.99 30.2834 Q1150.99 38.8192 1154.92 43.362 Q1158.86 47.8759 1166.27 47.8759 Q1170.03 47.8759 1173.35 46.516 Q1176.71 45.156 1179.66 42.4072 L1179.66 48.5125 Q1176.6 50.5958 1173.15 51.6375 Q1169.74 52.6791 1165.92 52.6791 Q1156.11 52.6791 1150.47 46.6896 Q1144.82 40.6711 1144.82 30.2834 Q1144.82 19.8668 1150.47 13.8772 Q1156.11 7.85875 1165.92 7.85875 Q1169.8 7.85875 1173.21 8.90042 Q1176.65 9.91314 1179.66 11.9675 Z" fill="#000000" fill-rule="nonzero" fill-opacity="1" /><path clip-path="url(#clip600)" d="M1188.69 8.64 L1194.53 8.64 L1194.53 26.3482 L1215.77 26.3482 L1215.77 8.64 L1221.62 8.64 L1221.62 51.84 L1215.77 51.84 L1215.77 31.2672 L1194.53 31.2672 L1194.53 51.84 L1188.69 51.84 L1188.69 8.64 Z" fill="#000000" fill-rule="nonzero" fill-opacity="1" /><path clip-path="url(#clip600)" d="M1233.25 8.64 L1241.96 8.64 L1252.98 38.038 L1264.07 8.64 L1272.78 8.64 L1272.78 51.84 L1267.08 51.84 L1267.08 13.9062 L1255.94 43.5356 L1250.06 43.5356 L1238.92 13.9062 L1238.92 51.84 L1233.25 51.84 L1233.25 8.64 Z" fill="#000000" fill-rule="nonzero" fill-opacity="1" /><path clip-path="url(#clip600)" d="M1284.38 8.64 L1293.09 8.64 L1304.11 38.038 L1315.19 8.64 L1323.9 8.64 L1323.9 51.84 L1318.2 51.84 L1318.2 13.9062 L1307.06 43.5356 L1301.19 43.5356 L1290.05 13.9062 L1290.05 51.84 L1284.38 51.84 L1284.38 8.64 Z" fill="#000000" fill-rule="nonzero" fill-opacity="1" /><path clip-path="url(#clip600)" d="M1332.58 33.2348 L1348.18 33.2348 L1348.18 37.9801 L1332.58 37.9801 L1332.58 33.2348 Z" fill="#000000" fill-rule="nonzero" fill-opacity="1" /><path clip-path="url(#clip600)" d="M1356.89 8.64 L1362.73 8.64 L1362.73 46.921 L1383.77 46.921 L1383.77 51.84 L1356.89 51.84 L1356.89 8.64 Z" fill="#000000" fill-rule="nonzero" fill-opacity="1" /><path clip-path="url(#clip600)" d="M1413.78 10.2314 L1413.78 19.4328 L1424.74 19.4328 L1424.74 23.5705 L1413.78 23.5705 L1413.78 41.163 Q1413.78 45.1271 1414.85 46.2555 Q1415.95 47.384 1419.27 47.384 L1424.74 47.384 L1424.74 51.84 L1419.27 51.84 Q1413.11 51.84 1410.77 49.5541 Q1408.42 47.2393 1408.42 41.163 L1408.42 23.5705 L1404.52 23.5705 L1404.52 19.4328 L1408.42 19.4328 L1408.42 10.2314 L1413.78 10.2314 Z" fill="#000000" fill-rule="nonzero" fill-opacity="1" /><path clip-path="url(#clip600)" d="M1459.46 34.3054 L1459.46 36.9095 L1434.99 36.9095 Q1435.33 42.4072 1438.28 45.3007 Q1441.26 48.1653 1446.56 48.1653 Q1449.63 48.1653 1452.49 47.4129 Q1455.38 46.6606 1458.22 45.156 L1458.22 50.1907 Q1455.36 51.406 1452.35 52.0425 Q1449.34 52.6791 1446.24 52.6791 Q1438.49 52.6791 1433.94 48.1653 Q1429.43 43.6514 1429.43 35.9547 Q1429.43 27.9975 1433.71 23.339 Q1438.02 18.6515 1445.31 18.6515 Q1451.85 18.6515 1455.64 22.876 Q1459.46 27.0716 1459.46 34.3054 M1454.14 32.7429 Q1454.08 28.3737 1451.68 25.7695 Q1449.31 23.1654 1445.37 23.1654 Q1440.92 23.1654 1438.23 25.6827 Q1435.56 28.2001 1435.16 32.7718 L1454.14 32.7429 Z" fill="#000000" fill-rule="nonzero" fill-opacity="1" /><path clip-path="url(#clip600)" d="M1486.98 24.4096 Q1486.08 23.8888 1485.01 23.6573 Q1483.97 23.3969 1482.7 23.3969 Q1478.19 23.3969 1475.75 26.3482 Q1473.35 29.2707 1473.35 34.7683 L1473.35 51.84 L1468 51.84 L1468 19.4328 L1473.35 19.4328 L1473.35 24.4675 Q1475.03 21.5161 1477.72 20.0983 Q1480.41 18.6515 1484.26 18.6515 Q1484.81 18.6515 1485.48 18.7383 Q1486.14 18.7962 1486.95 18.9409 L1486.98 24.4096 Z" fill="#000000" fill-rule="nonzero" fill-opacity="1" /><path clip-path="url(#clip600)" d="M1516.76 25.6538 Q1518.75 22.0659 1521.53 20.3587 Q1524.31 18.6515 1528.07 18.6515 Q1533.13 18.6515 1535.88 22.2105 Q1538.63 25.7406 1538.63 32.2799 L1538.63 51.84 L1533.28 51.84 L1533.28 32.4535 Q1533.28 27.795 1531.63 25.5381 Q1529.98 23.2811 1526.59 23.2811 Q1522.46 23.2811 1520.05 26.03 Q1517.65 28.7788 1517.65 33.5241 L1517.65 51.84 L1512.3 51.84 L1512.3 32.4535 Q1512.3 27.7661 1510.65 25.5381 Q1509 23.2811 1505.56 23.2811 Q1501.48 23.2811 1499.08 26.0589 Q1496.67 28.8077 1496.67 33.5241 L1496.67 51.84 L1491.32 51.84 L1491.32 19.4328 L1496.67 19.4328 L1496.67 24.4675 Q1498.5 21.4872 1501.04 20.0693 Q1503.59 18.6515 1507.09 18.6515 Q1510.62 18.6515 1513.08 20.4455 Q1515.57 22.2395 1516.76 25.6538 Z" fill="#000000" fill-rule="nonzero" fill-opacity="1" /><path clip-path="url(#clip600)" d="M1549.25 19.4328 L1554.57 19.4328 L1554.57 51.84 L1549.25 51.84 L1549.25 19.4328 M1549.25 6.81709 L1554.57 6.81709 L1554.57 13.559 L1549.25 13.559 L1549.25 6.81709 Z" fill="#000000" fill-rule="nonzero" fill-opacity="1" /><path clip-path="url(#clip600)" d="M1592.65 32.2799 L1592.65 51.84 L1587.33 51.84 L1587.33 32.4535 Q1587.33 27.8529 1585.53 25.567 Q1583.74 23.2811 1580.15 23.2811 Q1575.84 23.2811 1573.35 26.03 Q1570.86 28.7788 1570.86 33.5241 L1570.86 51.84 L1565.51 51.84 L1565.51 19.4328 L1570.86 19.4328 L1570.86 24.4675 Q1572.77 21.545 1575.35 20.0983 Q1577.95 18.6515 1581.34 18.6515 Q1586.92 18.6515 1589.79 22.1237 Q1592.65 25.567 1592.65 32.2799 Z" fill="#000000" fill-rule="nonzero" fill-opacity="1" /><path clip-path="url(#clip600)" d="M1618 35.5496 Q1611.55 35.5496 1609.06 37.0253 Q1606.57 38.501 1606.57 42.06 Q1606.57 44.8956 1608.42 46.5738 Q1610.3 48.2231 1613.51 48.2231 Q1617.94 48.2231 1620.6 45.0981 Q1623.29 41.9442 1623.29 36.7359 L1623.29 35.5496 L1618 35.5496 M1628.62 33.3505 L1628.62 51.84 L1623.29 51.84 L1623.29 46.921 Q1621.47 49.8724 1618.75 51.2902 Q1616.03 52.6791 1612.1 52.6791 Q1607.12 52.6791 1604.17 49.9014 Q1601.25 47.0947 1601.25 42.4072 Q1601.25 36.9385 1604.89 34.1607 Q1608.57 31.3829 1615.83 31.3829 L1623.29 31.3829 L1623.29 30.8621 Q1623.29 27.1874 1620.86 25.1908 Q1618.46 23.1654 1614.09 23.1654 Q1611.32 23.1654 1608.68 23.8309 Q1606.05 24.4964 1603.62 25.8274 L1603.62 20.9085 Q1606.54 19.78 1609.29 19.2302 Q1612.04 18.6515 1614.64 18.6515 Q1621.67 18.6515 1625.15 22.2973 Q1628.62 25.9431 1628.62 33.3505 Z" fill="#000000" fill-rule="nonzero" fill-opacity="1" /><path clip-path="url(#clip600)" d="M1639.58 6.81709 L1644.91 6.81709 L1644.91 51.84 L1639.58 51.84 L1639.58 6.81709 Z" fill="#000000" fill-rule="nonzero" fill-opacity="1" /><path clip-path="url(#clip600)" d="M1687.67 6.87496 Q1683.8 13.53 1681.92 20.0404 Q1680.04 26.5508 1680.04 33.2348 Q1680.04 39.9188 1681.92 46.487 Q1683.83 53.0263 1687.67 59.6525 L1683.05 59.6525 Q1678.7 52.8527 1676.53 46.2845 Q1674.39 39.7162 1674.39 33.2348 Q1674.39 26.7823 1676.53 20.2429 Q1678.68 13.7036 1683.05 6.87496 L1687.67 6.87496 Z" fill="#000000" fill-rule="nonzero" fill-opacity="1" /><path clip-path="url(#clip600)" d="M1724.94 32.2799 L1724.94 51.84 L1719.62 51.84 L1719.62 32.4535 Q1719.62 27.8529 1717.82 25.567 Q1716.03 23.2811 1712.44 23.2811 Q1708.13 23.2811 1705.64 26.03 Q1703.15 28.7788 1703.15 33.5241 L1703.15 51.84 L1697.8 51.84 L1697.8 19.4328 L1703.15 19.4328 L1703.15 24.4675 Q1705.06 21.545 1707.64 20.0983 Q1710.24 18.6515 1713.63 18.6515 Q1719.21 18.6515 1722.08 22.1237 Q1724.94 25.567 1724.94 32.2799 Z" fill="#000000" fill-rule="nonzero" fill-opacity="1" /><path clip-path="url(#clip600)" d="M1736.26 24.9304 L1773.35 24.9304 L1773.35 29.7915 L1736.26 29.7915 L1736.26 24.9304 M1736.26 36.7359 L1773.35 36.7359 L1773.35 41.6549 L1736.26 41.6549 L1736.26 36.7359 Z" fill="#000000" fill-rule="nonzero" fill-opacity="1" /><path clip-path="url(#clip600)" d="M1786.02 8.64 L1808.97 8.64 L1808.97 13.559 L1791.38 13.559 L1791.38 24.1492 Q1792.65 23.7152 1793.92 23.5126 Q1795.2 23.2811 1796.47 23.2811 Q1803.7 23.2811 1807.93 27.2452 Q1812.15 31.2093 1812.15 37.9801 Q1812.15 44.9535 1807.81 48.8308 Q1803.47 52.6791 1795.57 52.6791 Q1792.85 52.6791 1790.02 52.2162 Q1787.21 51.7532 1784.2 50.8273 L1784.2 44.9535 Q1786.81 46.3713 1789.58 47.0657 Q1792.36 47.7602 1795.46 47.7602 Q1800.46 47.7602 1803.39 45.1271 Q1806.31 42.494 1806.31 37.9801 Q1806.31 33.4663 1803.39 30.8332 Q1800.46 28.2001 1795.46 28.2001 Q1793.11 28.2001 1790.77 28.7209 Q1788.46 29.2417 1786.02 30.3413 L1786.02 8.64 Z" fill="#000000" fill-rule="nonzero" fill-opacity="1" /><path clip-path="url(#clip600)" d="M1836.17 12.4884 Q1831.66 12.4884 1829.37 16.9444 Q1827.11 21.3714 1827.11 30.2834 Q1827.11 39.1665 1829.37 43.6225 Q1831.66 48.0495 1836.17 48.0495 Q1840.71 48.0495 1842.97 43.6225 Q1845.25 39.1665 1845.25 30.2834 Q1845.25 21.3714 1842.97 16.9444 Q1840.71 12.4884 1836.17 12.4884 M1836.17 7.85875 Q1843.43 7.85875 1847.25 13.6168 Q1851.1 19.346 1851.1 30.2834 Q1851.1 41.1919 1847.25 46.95 Q1843.43 52.6791 1836.17 52.6791 Q1828.91 52.6791 1825.06 46.95 Q1821.24 41.1919 1821.24 30.2834 Q1821.24 19.346 1825.06 13.6168 Q1828.91 7.85875 1836.17 7.85875 Z" fill="#000000" fill-rule="nonzero" fill-opacity="1" /><path clip-path="url(#clip600)" d="M1873.87 12.4884 Q1869.36 12.4884 1867.07 16.9444 Q1864.81 21.3714 1864.81 30.2834 Q1864.81 39.1665 1867.07 43.6225 Q1869.36 48.0495 1873.87 48.0495 Q1878.41 48.0495 1880.67 43.6225 Q1882.96 39.1665 1882.96 30.2834 Q1882.96 21.3714 1880.67 16.9444 Q1878.41 12.4884 1873.87 12.4884 M1873.87 7.85875 Q1881.13 7.85875 1884.95 13.6168 Q1888.8 19.346 1888.8 30.2834 Q1888.8 41.1919 1884.95 46.95 Q1881.13 52.6791 1873.87 52.6791 Q1866.61 52.6791 1862.76 46.95 Q1858.94 41.1919 1858.94 30.2834 Q1858.94 19.346 1862.76 13.6168 Q1866.61 7.85875 1873.87 7.85875 Z" fill="#000000" fill-rule="nonzero" fill-opacity="1" /><path clip-path="url(#clip600)" d="M1897.48 6.87496 L1902.11 6.87496 Q1906.45 13.7036 1908.59 20.2429 Q1910.76 26.7823 1910.76 33.2348 Q1910.76 39.7162 1908.59 46.2845 Q1906.45 52.8527 1902.11 59.6525 L1897.48 59.6525 Q1901.33 53.0263 1903.21 46.487 Q1905.12 39.9188 1905.12 33.2348 Q1905.12 26.5508 1903.21 20.0404 Q1901.33 13.53 1897.48 6.87496 Z" fill="#000000" fill-rule="nonzero" fill-opacity="1" /><path clip-path="url(#clip602)" d="M323.245 1406.72 L323.245 1423.18 L423.844 1423.18 L423.844 1406.72 L323.245 1406.72 L323.245 1406.72  Z" fill="#2e8b57" fill-rule="evenodd" fill-opacity="0.6"/>
<polyline clip-path="url(#clip602)" style="stroke:#000000; stroke-linecap:round; stroke-linejoin:round; stroke-width:4; stroke-opacity:1; fill:none" points="323.245,1406.72 323.245,1423.18 423.844,1423.18 423.844,1406.72 323.245,1406.72 "/>
<path clip-path="url(#clip602)" d="M423.844 1340.87 L423.844 1423.18 L524.443 1423.18 L524.443 1340.87 L423.844 1340.87 L423.844 1340.87  Z" fill="#2e8b57" fill-rule="evenodd" fill-opacity="0.6"/>
<polyline clip-path="url(#clip602)" style="stroke:#000000; stroke-linecap:round; stroke-linejoin:round; stroke-width:4; stroke-opacity:1; fill:none" points="423.844,1340.87 423.844,1423.18 524.443,1423.18 524.443,1340.87 423.844,1340.87 "/>
<path clip-path="url(#clip602)" d="M524.443 1061.01 L524.443 1423.18 L625.043 1423.18 L625.043 1061.01 L524.443 1061.01 L524.443 1061.01  Z" fill="#2e8b57" fill-rule="evenodd" fill-opacity="0.6"/>
<polyline clip-path="url(#clip602)" style="stroke:#000000; stroke-linecap:round; stroke-linejoin:round; stroke-width:4; stroke-opacity:1; fill:none" points="524.443,1061.01 524.443,1423.18 625.043,1423.18 625.043,1061.01 524.443,1061.01 "/>
<path clip-path="url(#clip602)" d="M625.043 649.45 L625.043 1423.18 L725.642 1423.18 L725.642 649.45 L625.043 649.45 L625.043 649.45  Z" fill="#2e8b57" fill-rule="evenodd" fill-opacity="0.6"/>
<polyline clip-path="url(#clip602)" style="stroke:#000000; stroke-linecap:round; stroke-linejoin:round; stroke-width:4; stroke-opacity:1; fill:none" points="625.043,649.45 625.043,1423.18 725.642,1423.18 725.642,649.45 625.043,649.45 "/>
<path clip-path="url(#clip602)" d="M725.642 418.977 L725.642 1423.18 L826.241 1423.18 L826.241 418.977 L725.642 418.977 L725.642 418.977  Z" fill="#2e8b57" fill-rule="evenodd" fill-opacity="0.6"/>
<polyline clip-path="url(#clip602)" style="stroke:#000000; stroke-linecap:round; stroke-linejoin:round; stroke-width:4; stroke-opacity:1; fill:none" points="725.642,418.977 725.642,1423.18 826.241,1423.18 826.241,418.977 725.642,418.977 "/>
<path clip-path="url(#clip602)" d="M826.241 254.353 L826.241 1423.18 L926.841 1423.18 L926.841 254.353 L826.241 254.353 L826.241 254.353  Z" fill="#2e8b57" fill-rule="evenodd" fill-opacity="0.6"/>
<polyline clip-path="url(#clip602)" style="stroke:#000000; stroke-linecap:round; stroke-linejoin:round; stroke-width:4; stroke-opacity:1; fill:none" points="826.241,254.353 826.241,1423.18 926.841,1423.18 926.841,254.353 826.241,254.353 "/>
<path clip-path="url(#clip602)" d="M926.841 106.192 L926.841 1423.18 L1027.44 1423.18 L1027.44 106.192 L926.841 106.192 L926.841 106.192  Z" fill="#2e8b57" fill-rule="evenodd" fill-opacity="0.6"/>
<polyline clip-path="url(#clip602)" style="stroke:#000000; stroke-linecap:round; stroke-linejoin:round; stroke-width:4; stroke-opacity:1; fill:none" points="926.841,106.192 926.841,1423.18 1027.44,1423.18 1027.44,106.192 926.841,106.192 "/>
<path clip-path="url(#clip602)" d="M1027.44 336.665 L1027.44 1423.18 L1128.04 1423.18 L1128.04 336.665 L1027.44 336.665 L1027.44 336.665  Z" fill="#2e8b57" fill-rule="evenodd" fill-opacity="0.6"/>
<polyline clip-path="url(#clip602)" style="stroke:#000000; stroke-linecap:round; stroke-linejoin:round; stroke-width:4; stroke-opacity:1; fill:none" points="1027.44,336.665 1027.44,1423.18 1128.04,1423.18 1128.04,336.665 1027.44,336.665 "/>
<path clip-path="url(#clip602)" d="M1128.04 698.837 L1128.04 1423.18 L1228.64 1423.18 L1228.64 698.837 L1128.04 698.837 L1128.04 698.837  Z" fill="#2e8b57" fill-rule="evenodd" fill-opacity="0.6"/>
<polyline clip-path="url(#clip602)" style="stroke:#000000; stroke-linecap:round; stroke-linejoin:round; stroke-width:4; stroke-opacity:1; fill:none" points="1128.04,698.837 1128.04,1423.18 1228.64,1423.18 1228.64,698.837 1128.04,698.837 "/>
<path clip-path="url(#clip602)" d="M1228.64 830.535 L1228.64 1423.18 L1329.24 1423.18 L1329.24 830.535 L1228.64 830.535 L1228.64 830.535  Z" fill="#2e8b57" fill-rule="evenodd" fill-opacity="0.6"/>
<polyline clip-path="url(#clip602)" style="stroke:#000000; stroke-linecap:round; stroke-linejoin:round; stroke-width:4; stroke-opacity:1; fill:none" points="1228.64,830.535 1228.64,1423.18 1329.24,1423.18 1329.24,830.535 1228.64,830.535 "/>
<path clip-path="url(#clip602)" d="M1329.24 1044.55 L1329.24 1423.18 L1429.84 1423.18 L1429.84 1044.55 L1329.24 1044.55 L1329.24 1044.55  Z" fill="#2e8b57" fill-rule="evenodd" fill-opacity="0.6"/>
<polyline clip-path="url(#clip602)" style="stroke:#000000; stroke-linecap:round; stroke-linejoin:round; stroke-width:4; stroke-opacity:1; fill:none" points="1329.24,1044.55 1329.24,1423.18 1429.84,1423.18 1429.84,1044.55 1329.24,1044.55 "/>
<path clip-path="url(#clip602)" d="M1429.84 1176.24 L1429.84 1423.18 L1530.44 1423.18 L1530.44 1176.24 L1429.84 1176.24 L1429.84 1176.24  Z" fill="#2e8b57" fill-rule="evenodd" fill-opacity="0.6"/>
<polyline clip-path="url(#clip602)" style="stroke:#000000; stroke-linecap:round; stroke-linejoin:round; stroke-width:4; stroke-opacity:1; fill:none" points="1429.84,1176.24 1429.84,1423.18 1530.44,1423.18 1530.44,1176.24 1429.84,1176.24 "/>
<path clip-path="url(#clip602)" d="M1530.44 1176.24 L1530.44 1423.18 L1631.04 1423.18 L1631.04 1176.24 L1530.44 1176.24 L1530.44 1176.24  Z" fill="#2e8b57" fill-rule="evenodd" fill-opacity="0.6"/>
<polyline clip-path="url(#clip602)" style="stroke:#000000; stroke-linecap:round; stroke-linejoin:round; stroke-width:4; stroke-opacity:1; fill:none" points="1530.44,1176.24 1530.44,1423.18 1631.04,1423.18 1631.04,1176.24 1530.44,1176.24 "/>
<path clip-path="url(#clip602)" d="M1631.04 1340.87 L1631.04 1423.18 L1731.64 1423.18 L1731.64 1340.87 L1631.04 1340.87 L1631.04 1340.87  Z" fill="#2e8b57" fill-rule="evenodd" fill-opacity="0.6"/>
<polyline clip-path="url(#clip602)" style="stroke:#000000; stroke-linecap:round; stroke-linejoin:round; stroke-width:4; stroke-opacity:1; fill:none" points="1631.04,1340.87 1631.04,1423.18 1731.64,1423.18 1731.64,1340.87 1631.04,1340.87 "/>
<path clip-path="url(#clip602)" d="M1731.64 1324.41 L1731.64 1423.18 L1832.23 1423.18 L1832.23 1324.41 L1731.64 1324.41 L1731.64 1324.41  Z" fill="#2e8b57" fill-rule="evenodd" fill-opacity="0.6"/>
<polyline clip-path="url(#clip602)" style="stroke:#000000; stroke-linecap:round; stroke-linejoin:round; stroke-width:4; stroke-opacity:1; fill:none" points="1731.64,1324.41 1731.64,1423.18 1832.23,1423.18 1832.23,1324.41 1731.64,1324.41 "/>
<path clip-path="url(#clip602)" d="M1832.23 1390.26 L1832.23 1423.18 L1932.83 1423.18 L1932.83 1390.26 L1832.23 1390.26 L1832.23 1390.26  Z" fill="#2e8b57" fill-rule="evenodd" fill-opacity="0.6"/>
<polyline clip-path="url(#clip602)" style="stroke:#000000; stroke-linecap:round; stroke-linejoin:round; stroke-width:4; stroke-opacity:1; fill:none" points="1832.23,1390.26 1832.23,1423.18 1932.83,1423.18 1932.83,1390.26 1832.23,1390.26 "/>
<path clip-path="url(#clip602)" d="M1932.83 1423.18 L1932.83 1423.18 L2033.43 1423.18 L2033.43 1423.18 L1932.83 1423.18 L1932.83 1423.18  Z" fill="#2e8b57" fill-rule="evenodd" fill-opacity="0.6"/>
<polyline clip-path="url(#clip602)" style="stroke:#000000; stroke-linecap:round; stroke-linejoin:round; stroke-width:4; stroke-opacity:1; fill:none" points="1932.83,1423.18 1932.83,1423.18 2033.43,1423.18 1932.83,1423.18 "/>
<path clip-path="url(#clip602)" d="M2033.43 1423.18 L2033.43 1423.18 L2134.03 1423.18 L2134.03 1423.18 L2033.43 1423.18 L2033.43 1423.18  Z" fill="#2e8b57" fill-rule="evenodd" fill-opacity="0.6"/>
<polyline clip-path="url(#clip602)" style="stroke:#000000; stroke-linecap:round; stroke-linejoin:round; stroke-width:4; stroke-opacity:1; fill:none" points="2033.43,1423.18 2033.43,1423.18 2134.03,1423.18 2033.43,1423.18 "/>
<path clip-path="url(#clip602)" d="M2134.03 1406.72 L2134.03 1423.18 L2234.63 1423.18 L2234.63 1406.72 L2134.03 1406.72 L2134.03 1406.72  Z" fill="#2e8b57" fill-rule="evenodd" fill-opacity="0.6"/>
<polyline clip-path="url(#clip602)" style="stroke:#000000; stroke-linecap:round; stroke-linejoin:round; stroke-width:4; stroke-opacity:1; fill:none" points="2134.03,1406.72 2134.03,1423.18 2234.63,1423.18 2234.63,1406.72 2134.03,1406.72 "/>
<circle clip-path="url(#clip602)" style="fill:#2e8b57; stroke:none; fill-opacity:0" cx="373.544" cy="1406.72" r="2"/>
<circle clip-path="url(#clip602)" style="fill:#2e8b57; stroke:none; fill-opacity:0" cx="474.144" cy="1340.87" r="2"/>
<circle clip-path="url(#clip602)" style="fill:#2e8b57; stroke:none; fill-opacity:0" cx="574.743" cy="1061.01" r="2"/>
<circle clip-path="url(#clip602)" style="fill:#2e8b57; stroke:none; fill-opacity:0" cx="675.342" cy="649.45" r="2"/>
<circle clip-path="url(#clip602)" style="fill:#2e8b57; stroke:none; fill-opacity:0" cx="775.942" cy="418.977" r="2"/>
<circle clip-path="url(#clip602)" style="fill:#2e8b57; stroke:none; fill-opacity:0" cx="876.541" cy="254.353" r="2"/>
<circle clip-path="url(#clip602)" style="fill:#2e8b57; stroke:none; fill-opacity:0" cx="977.14" cy="106.192" r="2"/>
<circle clip-path="url(#clip602)" style="fill:#2e8b57; stroke:none; fill-opacity:0" cx="1077.74" cy="336.665" r="2"/>
<circle clip-path="url(#clip602)" style="fill:#2e8b57; stroke:none; fill-opacity:0" cx="1178.34" cy="698.837" r="2"/>
<circle clip-path="url(#clip602)" style="fill:#2e8b57; stroke:none; fill-opacity:0" cx="1278.94" cy="830.535" r="2"/>
<circle clip-path="url(#clip602)" style="fill:#2e8b57; stroke:none; fill-opacity:0" cx="1379.54" cy="1044.55" r="2"/>
<circle clip-path="url(#clip602)" style="fill:#2e8b57; stroke:none; fill-opacity:0" cx="1480.14" cy="1176.24" r="2"/>
<circle clip-path="url(#clip602)" style="fill:#2e8b57; stroke:none; fill-opacity:0" cx="1580.74" cy="1176.24" r="2"/>
<circle clip-path="url(#clip602)" style="fill:#2e8b57; stroke:none; fill-opacity:0" cx="1681.34" cy="1340.87" r="2"/>
<circle clip-path="url(#clip602)" style="fill:#2e8b57; stroke:none; fill-opacity:0" cx="1781.94" cy="1324.41" r="2"/>
<circle clip-path="url(#clip602)" style="fill:#2e8b57; stroke:none; fill-opacity:0" cx="1882.53" cy="1390.26" r="2"/>
<circle clip-path="url(#clip602)" style="fill:#2e8b57; stroke:none; fill-opacity:0" cx="1983.13" cy="1423.18" r="2"/>
<circle clip-path="url(#clip602)" style="fill:#2e8b57; stroke:none; fill-opacity:0" cx="2083.73" cy="1423.18" r="2"/>
<circle clip-path="url(#clip602)" style="fill:#2e8b57; stroke:none; fill-opacity:0" cx="2184.33" cy="1406.72" r="2"/>
<polyline clip-path="url(#clip602)" style="stroke:#ff0000; stroke-linecap:round; stroke-linejoin:round; stroke-width:8; stroke-opacity:1; fill:none" points="1226.67,2740.17 1226.67,-1210.8 "/>
<polyline clip-path="url(#clip602)" style="stroke:#006400; stroke-linecap:round; stroke-linejoin:round; stroke-width:8; stroke-opacity:1; fill:none" stroke-dasharray="32, 20" points="978.83,2740.17 978.83,-1210.8 "/>
<path clip-path="url(#clip600)" d="M1632.33 357.452 L2281.17 357.452 L2281.17 150.092 L1632.33 150.092  Z" fill="#ffffff" fill-rule="evenodd" fill-opacity="1"/>
<polyline clip-path="url(#clip600)" style="stroke:#000000; stroke-linecap:round; stroke-linejoin:round; stroke-width:4; stroke-opacity:1; fill:none" points="1632.33,357.452 2281.17,357.452 2281.17,150.092 1632.33,150.092 1632.33,357.452 "/>
<path clip-path="url(#clip600)" d="M1656.2 222.668 L1799.37 222.668 L1799.37 181.196 L1656.2 181.196 L1656.2 222.668  Z" fill="#2e8b57" fill-rule="evenodd" fill-opacity="0.6"/>
<polyline clip-path="url(#clip600)" style="stroke:#000000; stroke-linecap:round; stroke-linejoin:round; stroke-width:4; stroke-opacity:1; fill:none" points="1656.2,222.668 1799.37,222.668 1799.37,181.196 1656.2,181.196 1656.2,222.668 "/>
<path clip-path="url(#clip600)" d="M1845.48 185.786 L1845.48 190.346 Q1842.82 189.073 1840.46 188.448 Q1838.09 187.823 1835.9 187.823 Q1832.08 187.823 1829.99 189.304 Q1827.93 190.786 1827.93 193.517 Q1827.93 195.809 1829.3 196.99 Q1830.69 198.147 1834.53 198.865 L1837.35 199.443 Q1842.59 200.439 1845.06 202.962 Q1847.56 205.462 1847.56 209.675 Q1847.56 214.698 1844.18 217.29 Q1840.83 219.883 1834.32 219.883 Q1831.87 219.883 1829.09 219.327 Q1826.34 218.772 1823.37 217.684 L1823.37 212.869 Q1826.22 214.466 1828.95 215.277 Q1831.68 216.087 1834.32 216.087 Q1838.33 216.087 1840.5 214.513 Q1842.68 212.939 1842.68 210.022 Q1842.68 207.476 1841.1 206.04 Q1839.55 204.605 1835.99 203.888 L1833.14 203.332 Q1827.91 202.291 1825.57 200.068 Q1823.23 197.846 1823.23 193.888 Q1823.23 189.304 1826.45 186.666 Q1829.69 184.027 1835.36 184.027 Q1837.79 184.027 1840.32 184.467 Q1842.84 184.906 1845.48 185.786 Z" fill="#000000" fill-rule="nonzero" fill-opacity="1" /><path clip-path="url(#clip600)" d="M1854.67 193.286 L1858.93 193.286 L1858.93 219.212 L1854.67 219.212 L1854.67 193.286 M1854.67 183.193 L1858.93 183.193 L1858.93 188.587 L1854.67 188.587 L1854.67 183.193 Z" fill="#000000" fill-rule="nonzero" fill-opacity="1" /><path clip-path="url(#clip600)" d="M1888.03 198.263 Q1889.62 195.392 1891.84 194.027 Q1894.07 192.661 1897.08 192.661 Q1901.13 192.661 1903.33 195.508 Q1905.52 198.332 1905.52 203.564 L1905.52 219.212 L1901.24 219.212 L1901.24 203.703 Q1901.24 199.976 1899.92 198.17 Q1898.6 196.365 1895.9 196.365 Q1892.59 196.365 1890.66 198.564 Q1888.74 200.763 1888.74 204.559 L1888.74 219.212 L1884.46 219.212 L1884.46 203.703 Q1884.46 199.953 1883.14 198.17 Q1881.82 196.365 1879.07 196.365 Q1875.8 196.365 1873.88 198.587 Q1871.96 200.786 1871.96 204.559 L1871.96 219.212 L1867.68 219.212 L1867.68 193.286 L1871.96 193.286 L1871.96 197.314 Q1873.42 194.929 1875.46 193.795 Q1877.49 192.661 1880.29 192.661 Q1883.12 192.661 1885.09 194.096 Q1887.08 195.531 1888.03 198.263 Z" fill="#000000" fill-rule="nonzero" fill-opacity="1" /><path clip-path="url(#clip600)" d="M1913.58 208.98 L1913.58 193.286 L1917.84 193.286 L1917.84 208.818 Q1917.84 212.499 1919.27 214.351 Q1920.71 216.179 1923.58 216.179 Q1927.03 216.179 1929.02 213.98 Q1931.03 211.781 1931.03 207.985 L1931.03 193.286 L1935.29 193.286 L1935.29 219.212 L1931.03 219.212 L1931.03 215.23 Q1929.48 217.591 1927.42 218.749 Q1925.39 219.883 1922.68 219.883 Q1918.21 219.883 1915.9 217.105 Q1913.58 214.327 1913.58 208.98 M1924.3 192.661 L1924.3 192.661 Z" fill="#000000" fill-rule="nonzero" fill-opacity="1" /><path clip-path="url(#clip600)" d="M1944.07 183.193 L1948.33 183.193 L1948.33 219.212 L1944.07 219.212 L1944.07 183.193 Z" fill="#000000" fill-rule="nonzero" fill-opacity="1" /><path clip-path="url(#clip600)" d="M1969.02 206.179 Q1963.86 206.179 1961.87 207.36 Q1959.88 208.54 1959.88 211.388 Q1959.88 213.656 1961.36 214.999 Q1962.86 216.318 1965.43 216.318 Q1968.97 216.318 1971.1 213.818 Q1973.26 211.295 1973.26 207.128 L1973.26 206.179 L1969.02 206.179 M1977.52 204.42 L1977.52 219.212 L1973.26 219.212 L1973.26 215.277 Q1971.8 217.638 1969.62 218.772 Q1967.45 219.883 1964.3 219.883 Q1960.32 219.883 1957.96 217.661 Q1955.62 215.415 1955.62 211.665 Q1955.62 207.29 1958.53 205.068 Q1961.47 202.846 1967.28 202.846 L1973.26 202.846 L1973.26 202.429 Q1973.26 199.49 1971.31 197.892 Q1969.39 196.272 1965.89 196.272 Q1963.67 196.272 1961.57 196.804 Q1959.46 197.337 1957.52 198.402 L1957.52 194.466 Q1959.85 193.564 1962.05 193.124 Q1964.25 192.661 1966.33 192.661 Q1971.96 192.661 1974.74 195.578 Q1977.52 198.494 1977.52 204.42 Z" fill="#000000" fill-rule="nonzero" fill-opacity="1" /><path clip-path="url(#clip600)" d="M1990.5 185.925 L1990.5 193.286 L1999.27 193.286 L1999.27 196.596 L1990.5 196.596 L1990.5 210.67 Q1990.5 213.841 1991.36 214.744 Q1992.24 215.647 1994.9 215.647 L1999.27 215.647 L1999.27 219.212 L1994.9 219.212 Q1989.97 219.212 1988.09 217.383 Q1986.22 215.531 1986.22 210.67 L1986.22 196.596 L1983.09 196.596 L1983.09 193.286 L1986.22 193.286 L1986.22 185.925 L1990.5 185.925 Z" fill="#000000" fill-rule="nonzero" fill-opacity="1" /><path clip-path="url(#clip600)" d="M2027.05 205.184 L2027.05 207.267 L2007.47 207.267 Q2007.75 211.665 2010.11 213.98 Q2012.49 216.272 2016.73 216.272 Q2019.18 216.272 2021.47 215.67 Q2023.79 215.068 2026.06 213.865 L2026.06 217.892 Q2023.77 218.864 2021.36 219.374 Q2018.95 219.883 2016.47 219.883 Q2010.27 219.883 2006.64 216.272 Q2003.02 212.661 2003.02 206.503 Q2003.02 200.138 2006.45 196.411 Q2009.9 192.661 2015.73 192.661 Q2020.96 192.661 2024 196.041 Q2027.05 199.397 2027.05 205.184 M2022.79 203.934 Q2022.75 200.439 2020.83 198.355 Q2018.93 196.272 2015.78 196.272 Q2012.21 196.272 2010.06 198.286 Q2007.93 200.3 2007.61 203.957 L2022.79 203.934 Z" fill="#000000" fill-rule="nonzero" fill-opacity="1" /><path clip-path="url(#clip600)" d="M2051.1 197.221 L2051.1 183.193 L2055.36 183.193 L2055.36 219.212 L2051.1 219.212 L2051.1 215.323 Q2049.76 217.638 2047.7 218.772 Q2045.66 219.883 2042.79 219.883 Q2038.09 219.883 2035.13 216.133 Q2032.19 212.383 2032.19 206.272 Q2032.19 200.161 2035.13 196.411 Q2038.09 192.661 2042.79 192.661 Q2045.66 192.661 2047.7 193.795 Q2049.76 194.906 2051.1 197.221 M2036.59 206.272 Q2036.59 210.971 2038.51 213.656 Q2040.45 216.318 2043.83 216.318 Q2047.21 216.318 2049.16 213.656 Q2051.1 210.971 2051.1 206.272 Q2051.1 201.573 2049.16 198.911 Q2047.21 196.226 2043.83 196.226 Q2040.45 196.226 2038.51 198.911 Q2036.59 201.573 2036.59 206.272 Z" fill="#000000" fill-rule="nonzero" fill-opacity="1" /><polyline clip-path="url(#clip600)" style="stroke:#ff0000; stroke-linecap:round; stroke-linejoin:round; stroke-width:8; stroke-opacity:1; fill:none" points="1656.2,253.772 1799.37,253.772 "/>
<path clip-path="url(#clip600)" d="M1839.25 239.663 Q1834.16 239.663 1831.15 243.459 Q1828.16 247.256 1828.16 253.806 Q1828.16 260.334 1831.15 264.13 Q1834.16 267.927 1839.25 267.927 Q1844.34 267.927 1847.31 264.13 Q1850.29 260.334 1850.29 253.806 Q1850.29 247.256 1847.31 243.459 Q1844.34 239.663 1839.25 239.663 M1839.25 235.867 Q1846.52 235.867 1850.87 240.751 Q1855.22 245.612 1855.22 253.806 Q1855.22 261.978 1850.87 266.862 Q1846.52 271.723 1839.25 271.723 Q1831.96 271.723 1827.59 266.862 Q1823.23 262.001 1823.23 253.806 Q1823.23 245.612 1827.59 240.751 Q1831.96 235.867 1839.25 235.867 Z" fill="#000000" fill-rule="nonzero" fill-opacity="1" /><path clip-path="url(#clip600)" d="M1880.96 258.112 Q1880.96 253.413 1879.02 250.751 Q1877.1 248.066 1873.72 248.066 Q1870.34 248.066 1868.4 250.751 Q1866.47 253.413 1866.47 258.112 Q1866.47 262.811 1868.4 265.496 Q1870.34 268.158 1873.72 268.158 Q1877.1 268.158 1879.02 265.496 Q1880.96 262.811 1880.96 258.112 M1866.47 249.061 Q1867.82 246.746 1869.85 245.635 Q1871.91 244.501 1874.76 244.501 Q1879.48 244.501 1882.42 248.251 Q1885.39 252.001 1885.39 258.112 Q1885.39 264.223 1882.42 267.973 Q1879.48 271.723 1874.76 271.723 Q1871.91 271.723 1869.85 270.612 Q1867.82 269.478 1866.47 267.163 L1866.47 271.052 L1862.19 271.052 L1862.19 235.033 L1866.47 235.033 L1866.47 249.061 Z" fill="#000000" fill-rule="nonzero" fill-opacity="1" /><path clip-path="url(#clip600)" d="M1908.97 245.89 L1908.97 249.918 Q1907.17 248.992 1905.22 248.529 Q1903.28 248.066 1901.2 248.066 Q1898.02 248.066 1896.43 249.038 Q1894.85 250.01 1894.85 251.955 Q1894.85 253.436 1895.99 254.293 Q1897.12 255.126 1900.55 255.89 L1902.01 256.214 Q1906.54 257.186 1908.44 258.968 Q1910.36 260.728 1910.36 263.899 Q1910.36 267.51 1907.49 269.617 Q1904.65 271.723 1899.65 271.723 Q1897.56 271.723 1895.29 271.306 Q1893.05 270.913 1890.55 270.103 L1890.55 265.705 Q1892.91 266.931 1895.2 267.556 Q1897.49 268.158 1899.74 268.158 Q1902.75 268.158 1904.37 267.14 Q1905.99 266.098 1905.99 264.223 Q1905.99 262.487 1904.81 261.561 Q1903.65 260.635 1899.69 259.779 L1898.21 259.431 Q1894.25 258.598 1892.49 256.885 Q1890.73 255.149 1890.73 252.14 Q1890.73 248.482 1893.33 246.492 Q1895.92 244.501 1900.69 244.501 Q1903.05 244.501 1905.13 244.848 Q1907.21 245.195 1908.97 245.89 Z" fill="#000000" fill-rule="nonzero" fill-opacity="1" /><path clip-path="url(#clip600)" d="M1939.32 257.024 L1939.32 259.107 L1919.74 259.107 Q1920.02 263.505 1922.38 265.82 Q1924.76 268.112 1929 268.112 Q1931.45 268.112 1933.74 267.51 Q1936.06 266.908 1938.33 265.705 L1938.33 269.732 Q1936.03 270.704 1933.63 271.214 Q1931.22 271.723 1928.74 271.723 Q1922.54 271.723 1918.9 268.112 Q1915.29 264.501 1915.29 258.343 Q1915.29 251.978 1918.72 248.251 Q1922.17 244.501 1928 244.501 Q1933.23 244.501 1936.27 247.881 Q1939.32 251.237 1939.32 257.024 M1935.06 255.774 Q1935.02 252.279 1933.09 250.195 Q1931.2 248.112 1928.05 248.112 Q1924.48 248.112 1922.33 250.126 Q1920.2 252.14 1919.88 255.797 L1935.06 255.774 Z" fill="#000000" fill-rule="nonzero" fill-opacity="1" /><path clip-path="url(#clip600)" d="M1961.33 249.107 Q1960.62 248.691 1959.76 248.506 Q1958.93 248.297 1957.91 248.297 Q1954.3 248.297 1952.35 250.658 Q1950.43 252.996 1950.43 257.394 L1950.43 271.052 L1946.15 271.052 L1946.15 245.126 L1950.43 245.126 L1950.43 249.154 Q1951.77 246.793 1953.93 245.658 Q1956.08 244.501 1959.16 244.501 Q1959.6 244.501 1960.13 244.57 Q1960.66 244.617 1961.31 244.732 L1961.33 249.107 Z" fill="#000000" fill-rule="nonzero" fill-opacity="1" /><path clip-path="url(#clip600)" d="M1962.75 245.126 L1967.26 245.126 L1975.36 266.885 L1983.46 245.126 L1987.98 245.126 L1978.26 271.052 L1972.47 271.052 L1962.75 245.126 Z" fill="#000000" fill-rule="nonzero" fill-opacity="1" /><path clip-path="url(#clip600)" d="M2016.03 257.024 L2016.03 259.107 L1996.45 259.107 Q1996.73 263.505 1999.09 265.82 Q2001.47 268.112 2005.71 268.112 Q2008.16 268.112 2010.45 267.51 Q2012.77 266.908 2015.04 265.705 L2015.04 269.732 Q2012.75 270.704 2010.34 271.214 Q2007.93 271.723 2005.45 271.723 Q1999.25 271.723 1995.62 268.112 Q1992.01 264.501 1992.01 258.343 Q1992.01 251.978 1995.43 248.251 Q1998.88 244.501 2004.71 244.501 Q2009.95 244.501 2012.98 247.881 Q2016.03 251.237 2016.03 257.024 M2011.77 255.774 Q2011.73 252.279 2009.81 250.195 Q2007.91 248.112 2004.76 248.112 Q2001.2 248.112 1999.04 250.126 Q1996.91 252.14 1996.59 255.797 L2011.77 255.774 Z" fill="#000000" fill-rule="nonzero" fill-opacity="1" /><path clip-path="url(#clip600)" d="M2040.08 249.061 L2040.08 235.033 L2044.34 235.033 L2044.34 271.052 L2040.08 271.052 L2040.08 267.163 Q2038.74 269.478 2036.68 270.612 Q2034.64 271.723 2031.77 271.723 Q2027.08 271.723 2024.11 267.973 Q2021.17 264.223 2021.17 258.112 Q2021.17 252.001 2024.11 248.251 Q2027.08 244.501 2031.77 244.501 Q2034.64 244.501 2036.68 245.635 Q2038.74 246.746 2040.08 249.061 M2025.57 258.112 Q2025.57 262.811 2027.49 265.496 Q2029.44 268.158 2032.82 268.158 Q2036.2 268.158 2038.14 265.496 Q2040.08 262.811 2040.08 258.112 Q2040.08 253.413 2038.14 250.751 Q2036.2 248.066 2032.82 248.066 Q2029.44 248.066 2027.49 250.751 Q2025.57 253.413 2025.57 258.112 Z" fill="#000000" fill-rule="nonzero" fill-opacity="1" /><path clip-path="url(#clip600)" d="M2072.4 237.765 L2072.4 245.126 L2081.17 245.126 L2081.17 248.436 L2072.4 248.436 L2072.4 262.51 Q2072.4 265.681 2073.26 266.584 Q2074.14 267.487 2076.8 267.487 L2081.17 267.487 L2081.17 271.052 L2076.8 271.052 Q2071.87 271.052 2069.99 269.223 Q2068.12 267.371 2068.12 262.51 L2068.12 248.436 L2064.99 248.436 L2064.99 245.126 L2068.12 245.126 L2068.12 237.765 L2072.4 237.765 Z" fill="#000000" fill-rule="nonzero" fill-opacity="1" /><path clip-path="url(#clip600)" d="M2108.95 257.024 L2108.95 259.107 L2089.37 259.107 Q2089.64 263.505 2092.01 265.82 Q2094.39 268.112 2098.63 268.112 Q2101.08 268.112 2103.37 267.51 Q2105.69 266.908 2107.95 265.705 L2107.95 269.732 Q2105.66 270.704 2103.26 271.214 Q2100.85 271.723 2098.37 271.723 Q2092.17 271.723 2088.53 268.112 Q2084.92 264.501 2084.92 258.343 Q2084.92 251.978 2088.35 248.251 Q2091.8 244.501 2097.63 244.501 Q2102.86 244.501 2105.89 247.881 Q2108.95 251.237 2108.95 257.024 M2104.69 255.774 Q2104.64 252.279 2102.72 250.195 Q2100.82 248.112 2097.68 248.112 Q2094.11 248.112 2091.96 250.126 Q2089.83 252.14 2089.51 255.797 L2104.69 255.774 Z" fill="#000000" fill-rule="nonzero" fill-opacity="1" /><path clip-path="url(#clip600)" d="M2130.96 249.107 Q2130.25 248.691 2129.39 248.506 Q2128.56 248.297 2127.54 248.297 Q2123.93 248.297 2121.98 250.658 Q2120.06 252.996 2120.06 257.394 L2120.06 271.052 L2115.78 271.052 L2115.78 245.126 L2120.06 245.126 L2120.06 249.154 Q2121.4 246.793 2123.56 245.658 Q2125.71 244.501 2128.79 244.501 Q2129.23 244.501 2129.76 244.57 Q2130.29 244.617 2130.94 244.732 L2130.96 249.107 Z" fill="#000000" fill-rule="nonzero" fill-opacity="1" /><path clip-path="url(#clip600)" d="M2154.78 250.103 Q2156.38 247.232 2158.6 245.867 Q2160.82 244.501 2163.83 244.501 Q2167.88 244.501 2170.08 247.348 Q2172.28 250.172 2172.28 255.404 L2172.28 271.052 L2168 271.052 L2168 255.543 Q2168 251.816 2166.68 250.01 Q2165.36 248.205 2162.65 248.205 Q2159.34 248.205 2157.42 250.404 Q2155.5 252.603 2155.5 256.399 L2155.5 271.052 L2151.22 271.052 L2151.22 255.543 Q2151.22 251.793 2149.9 250.01 Q2148.58 248.205 2145.82 248.205 Q2142.56 248.205 2140.64 250.427 Q2138.72 252.626 2138.72 256.399 L2138.72 271.052 L2134.44 271.052 L2134.44 245.126 L2138.72 245.126 L2138.72 249.154 Q2140.18 246.769 2142.21 245.635 Q2144.25 244.501 2147.05 244.501 Q2149.88 244.501 2151.84 245.936 Q2153.83 247.371 2154.78 250.103 Z" fill="#000000" fill-rule="nonzero" fill-opacity="1" /><path clip-path="url(#clip600)" d="M2180.78 245.126 L2185.04 245.126 L2185.04 271.052 L2180.78 271.052 L2180.78 245.126 M2180.78 235.033 L2185.04 235.033 L2185.04 240.427 L2180.78 240.427 L2180.78 235.033 Z" fill="#000000" fill-rule="nonzero" fill-opacity="1" /><path clip-path="url(#clip600)" d="M2215.5 255.404 L2215.5 271.052 L2211.24 271.052 L2211.24 255.543 Q2211.24 251.862 2209.81 250.033 Q2208.37 248.205 2205.5 248.205 Q2202.05 248.205 2200.06 250.404 Q2198.07 252.603 2198.07 256.399 L2198.07 271.052 L2193.79 271.052 L2193.79 245.126 L2198.07 245.126 L2198.07 249.154 Q2199.6 246.816 2201.66 245.658 Q2203.74 244.501 2206.45 244.501 Q2210.92 244.501 2213.21 247.279 Q2215.5 250.033 2215.5 255.404 Z" fill="#000000" fill-rule="nonzero" fill-opacity="1" /><path clip-path="url(#clip600)" d="M2235.78 258.019 Q2230.62 258.019 2228.63 259.2 Q2226.63 260.38 2226.63 263.228 Q2226.63 265.496 2228.12 266.839 Q2229.62 268.158 2232.19 268.158 Q2235.73 268.158 2237.86 265.658 Q2240.01 263.135 2240.01 258.968 L2240.01 258.019 L2235.78 258.019 M2244.27 256.26 L2244.27 271.052 L2240.01 271.052 L2240.01 267.117 Q2238.56 269.478 2236.38 270.612 Q2234.2 271.723 2231.06 271.723 Q2227.07 271.723 2224.71 269.501 Q2222.38 267.255 2222.38 263.505 Q2222.38 259.13 2225.29 256.908 Q2228.23 254.686 2234.04 254.686 L2240.01 254.686 L2240.01 254.269 Q2240.01 251.33 2238.07 249.732 Q2236.15 248.112 2232.65 248.112 Q2230.43 248.112 2228.32 248.644 Q2226.22 249.177 2224.27 250.242 L2224.27 246.306 Q2226.61 245.404 2228.81 244.964 Q2231.01 244.501 2233.09 244.501 Q2238.72 244.501 2241.5 247.418 Q2244.27 250.334 2244.27 256.26 Z" fill="#000000" fill-rule="nonzero" fill-opacity="1" /><path clip-path="url(#clip600)" d="M2253.05 235.033 L2257.31 235.033 L2257.31 271.052 L2253.05 271.052 L2253.05 235.033 Z" fill="#000000" fill-rule="nonzero" fill-opacity="1" /><polyline clip-path="url(#clip600)" style="stroke:#006400; stroke-linecap:round; stroke-linejoin:round; stroke-width:8; stroke-opacity:1; fill:none" stroke-dasharray="32, 20" points="1656.2,305.612 1799.37,305.612 "/>
<path clip-path="url(#clip600)" d="M1845.48 289.466 L1845.48 294.026 Q1842.82 292.753 1840.46 292.128 Q1838.09 291.503 1835.9 291.503 Q1832.08 291.503 1829.99 292.984 Q1827.93 294.466 1827.93 297.197 Q1827.93 299.489 1829.3 300.67 Q1830.69 301.827 1834.53 302.545 L1837.35 303.123 Q1842.59 304.119 1845.06 306.642 Q1847.56 309.142 1847.56 313.355 Q1847.56 318.378 1844.18 320.97 Q1840.83 323.563 1834.32 323.563 Q1831.87 323.563 1829.09 323.007 Q1826.34 322.452 1823.37 321.364 L1823.37 316.549 Q1826.22 318.146 1828.95 318.957 Q1831.68 319.767 1834.32 319.767 Q1838.33 319.767 1840.5 318.193 Q1842.68 316.619 1842.68 313.702 Q1842.68 311.156 1841.1 309.72 Q1839.55 308.285 1835.99 307.568 L1833.14 307.012 Q1827.91 305.971 1825.57 303.748 Q1823.23 301.526 1823.23 297.568 Q1823.23 292.984 1826.45 290.346 Q1829.69 287.707 1835.36 287.707 Q1837.79 287.707 1840.32 288.147 Q1842.84 288.586 1845.48 289.466 Z" fill="#000000" fill-rule="nonzero" fill-opacity="1" /><path clip-path="url(#clip600)" d="M1854.67 296.966 L1858.93 296.966 L1858.93 322.892 L1854.67 322.892 L1854.67 296.966 M1854.67 286.873 L1858.93 286.873 L1858.93 292.267 L1854.67 292.267 L1854.67 286.873 Z" fill="#000000" fill-rule="nonzero" fill-opacity="1" /><path clip-path="url(#clip600)" d="M1888.03 301.943 Q1889.62 299.072 1891.84 297.707 Q1894.07 296.341 1897.08 296.341 Q1901.13 296.341 1903.33 299.188 Q1905.52 302.012 1905.52 307.244 L1905.52 322.892 L1901.24 322.892 L1901.24 307.383 Q1901.24 303.656 1899.92 301.85 Q1898.6 300.045 1895.9 300.045 Q1892.59 300.045 1890.66 302.244 Q1888.74 304.443 1888.74 308.239 L1888.74 322.892 L1884.46 322.892 L1884.46 307.383 Q1884.46 303.633 1883.14 301.85 Q1881.82 300.045 1879.07 300.045 Q1875.8 300.045 1873.88 302.267 Q1871.96 304.466 1871.96 308.239 L1871.96 322.892 L1867.68 322.892 L1867.68 296.966 L1871.96 296.966 L1871.96 300.994 Q1873.42 298.609 1875.46 297.475 Q1877.49 296.341 1880.29 296.341 Q1883.12 296.341 1885.09 297.776 Q1887.08 299.211 1888.03 301.943 Z" fill="#000000" fill-rule="nonzero" fill-opacity="1" /><path clip-path="url(#clip600)" d="M1913.58 312.66 L1913.58 296.966 L1917.84 296.966 L1917.84 312.498 Q1917.84 316.179 1919.27 318.031 Q1920.71 319.859 1923.58 319.859 Q1927.03 319.859 1929.02 317.66 Q1931.03 315.461 1931.03 311.665 L1931.03 296.966 L1935.29 296.966 L1935.29 322.892 L1931.03 322.892 L1931.03 318.91 Q1929.48 321.271 1927.42 322.429 Q1925.39 323.563 1922.68 323.563 Q1918.21 323.563 1915.9 320.785 Q1913.58 318.007 1913.58 312.66 M1924.3 296.341 L1924.3 296.341 Z" fill="#000000" fill-rule="nonzero" fill-opacity="1" /><path clip-path="url(#clip600)" d="M1944.07 286.873 L1948.33 286.873 L1948.33 322.892 L1944.07 322.892 L1944.07 286.873 Z" fill="#000000" fill-rule="nonzero" fill-opacity="1" /><path clip-path="url(#clip600)" d="M1969.02 309.859 Q1963.86 309.859 1961.87 311.04 Q1959.88 312.22 1959.88 315.068 Q1959.88 317.336 1961.36 318.679 Q1962.86 319.998 1965.43 319.998 Q1968.97 319.998 1971.1 317.498 Q1973.26 314.975 1973.26 310.808 L1973.26 309.859 L1969.02 309.859 M1977.52 308.1 L1977.52 322.892 L1973.26 322.892 L1973.26 318.957 Q1971.8 321.318 1969.62 322.452 Q1967.45 323.563 1964.3 323.563 Q1960.32 323.563 1957.96 321.341 Q1955.62 319.095 1955.62 315.345 Q1955.62 310.97 1958.53 308.748 Q1961.47 306.526 1967.28 306.526 L1973.26 306.526 L1973.26 306.109 Q1973.26 303.17 1971.31 301.572 Q1969.39 299.952 1965.89 299.952 Q1963.67 299.952 1961.57 300.484 Q1959.46 301.017 1957.52 302.082 L1957.52 298.146 Q1959.85 297.244 1962.05 296.804 Q1964.25 296.341 1966.33 296.341 Q1971.96 296.341 1974.74 299.258 Q1977.52 302.174 1977.52 308.1 Z" fill="#000000" fill-rule="nonzero" fill-opacity="1" /><path clip-path="url(#clip600)" d="M1990.5 289.605 L1990.5 296.966 L1999.27 296.966 L1999.27 300.276 L1990.5 300.276 L1990.5 314.35 Q1990.5 317.521 1991.36 318.424 Q1992.24 319.327 1994.9 319.327 L1999.27 319.327 L1999.27 322.892 L1994.9 322.892 Q1989.97 322.892 1988.09 321.063 Q1986.22 319.211 1986.22 314.35 L1986.22 300.276 L1983.09 300.276 L1983.09 296.966 L1986.22 296.966 L1986.22 289.605 L1990.5 289.605 Z" fill="#000000" fill-rule="nonzero" fill-opacity="1" /><path clip-path="url(#clip600)" d="M2027.05 308.864 L2027.05 310.947 L2007.47 310.947 Q2007.75 315.345 2010.11 317.66 Q2012.49 319.952 2016.73 319.952 Q2019.18 319.952 2021.47 319.35 Q2023.79 318.748 2026.06 317.545 L2026.06 321.572 Q2023.77 322.544 2021.36 323.054 Q2018.95 323.563 2016.47 323.563 Q2010.27 323.563 2006.64 319.952 Q2003.02 316.341 2003.02 310.183 Q2003.02 303.818 2006.45 300.091 Q2009.9 296.341 2015.73 296.341 Q2020.96 296.341 2024 299.721 Q2027.05 303.077 2027.05 308.864 M2022.79 307.614 Q2022.75 304.119 2020.83 302.035 Q2018.93 299.952 2015.78 299.952 Q2012.21 299.952 2010.06 301.966 Q2007.93 303.98 2007.61 307.637 L2022.79 307.614 Z" fill="#000000" fill-rule="nonzero" fill-opacity="1" /><path clip-path="url(#clip600)" d="M2051.1 300.901 L2051.1 286.873 L2055.36 286.873 L2055.36 322.892 L2051.1 322.892 L2051.1 319.003 Q2049.76 321.318 2047.7 322.452 Q2045.66 323.563 2042.79 323.563 Q2038.09 323.563 2035.13 319.813 Q2032.19 316.063 2032.19 309.952 Q2032.19 303.841 2035.13 300.091 Q2038.09 296.341 2042.79 296.341 Q2045.66 296.341 2047.7 297.475 Q2049.76 298.586 2051.1 300.901 M2036.59 309.952 Q2036.59 314.651 2038.51 317.336 Q2040.45 319.998 2043.83 319.998 Q2047.21 319.998 2049.16 317.336 Q2051.1 314.651 2051.1 309.952 Q2051.1 305.253 2049.16 302.591 Q2047.21 299.906 2043.83 299.906 Q2040.45 299.906 2038.51 302.591 Q2036.59 305.253 2036.59 309.952 Z" fill="#000000" fill-rule="nonzero" fill-opacity="1" /><path clip-path="url(#clip600)" d="M2099.39 301.943 Q2100.99 299.072 2103.21 297.707 Q2105.43 296.341 2108.44 296.341 Q2112.49 296.341 2114.69 299.188 Q2116.89 302.012 2116.89 307.244 L2116.89 322.892 L2112.61 322.892 L2112.61 307.383 Q2112.61 303.656 2111.29 301.85 Q2109.97 300.045 2107.26 300.045 Q2103.95 300.045 2102.03 302.244 Q2100.11 304.443 2100.11 308.239 L2100.11 322.892 L2095.82 322.892 L2095.82 307.383 Q2095.82 303.633 2094.51 301.85 Q2093.19 300.045 2090.43 300.045 Q2087.17 300.045 2085.25 302.267 Q2083.32 304.466 2083.32 308.239 L2083.32 322.892 L2079.04 322.892 L2079.04 296.966 L2083.32 296.966 L2083.32 300.994 Q2084.78 298.609 2086.82 297.475 Q2088.86 296.341 2091.66 296.341 Q2094.48 296.341 2096.45 297.776 Q2098.44 299.211 2099.39 301.943 Z" fill="#000000" fill-rule="nonzero" fill-opacity="1" /><path clip-path="url(#clip600)" d="M2147.56 308.864 L2147.56 310.947 L2127.98 310.947 Q2128.26 315.345 2130.62 317.66 Q2133 319.952 2137.24 319.952 Q2139.69 319.952 2141.98 319.35 Q2144.3 318.748 2146.57 317.545 L2146.57 321.572 Q2144.27 322.544 2141.87 323.054 Q2139.46 323.563 2136.98 323.563 Q2130.78 323.563 2127.14 319.952 Q2123.53 316.341 2123.53 310.183 Q2123.53 303.818 2126.96 300.091 Q2130.41 296.341 2136.24 296.341 Q2141.47 296.341 2144.51 299.721 Q2147.56 303.077 2147.56 308.864 M2143.3 307.614 Q2143.26 304.119 2141.33 302.035 Q2139.44 299.952 2136.29 299.952 Q2132.72 299.952 2130.57 301.966 Q2128.44 303.98 2128.12 307.637 L2143.3 307.614 Z" fill="#000000" fill-rule="nonzero" fill-opacity="1" /><path clip-path="url(#clip600)" d="M2171.61 300.901 L2171.61 286.873 L2175.87 286.873 L2175.87 322.892 L2171.61 322.892 L2171.61 319.003 Q2170.27 321.318 2168.21 322.452 Q2166.17 323.563 2163.3 323.563 Q2158.6 323.563 2155.64 319.813 Q2152.7 316.063 2152.7 309.952 Q2152.7 303.841 2155.64 300.091 Q2158.6 296.341 2163.3 296.341 Q2166.17 296.341 2168.21 297.475 Q2170.27 298.586 2171.61 300.901 M2157.1 309.952 Q2157.1 314.651 2159.02 317.336 Q2160.96 319.998 2164.34 319.998 Q2167.72 319.998 2169.67 317.336 Q2171.61 314.651 2171.61 309.952 Q2171.61 305.253 2169.67 302.591 Q2167.72 299.906 2164.34 299.906 Q2160.96 299.906 2159.02 302.591 Q2157.1 305.253 2157.1 309.952 Z" fill="#000000" fill-rule="nonzero" fill-opacity="1" /><path clip-path="url(#clip600)" d="M2184.64 296.966 L2188.9 296.966 L2188.9 322.892 L2184.64 322.892 L2184.64 296.966 M2184.64 286.873 L2188.9 286.873 L2188.9 292.267 L2184.64 292.267 L2184.64 286.873 Z" fill="#000000" fill-rule="nonzero" fill-opacity="1" /><path clip-path="url(#clip600)" d="M2209.6 309.859 Q2204.44 309.859 2202.44 311.04 Q2200.45 312.22 2200.45 315.068 Q2200.45 317.336 2201.94 318.679 Q2203.44 319.998 2206.01 319.998 Q2209.55 319.998 2211.68 317.498 Q2213.83 314.975 2213.83 310.808 L2213.83 309.859 L2209.6 309.859 M2218.09 308.1 L2218.09 322.892 L2213.83 322.892 L2213.83 318.957 Q2212.38 321.318 2210.2 322.452 Q2208.02 323.563 2204.88 323.563 Q2200.89 323.563 2198.53 321.341 Q2196.19 319.095 2196.19 315.345 Q2196.19 310.97 2199.11 308.748 Q2202.05 306.526 2207.86 306.526 L2213.83 306.526 L2213.83 306.109 Q2213.83 303.17 2211.89 301.572 Q2209.97 299.952 2206.47 299.952 Q2204.25 299.952 2202.14 300.484 Q2200.04 301.017 2198.09 302.082 L2198.09 298.146 Q2200.43 297.244 2202.63 296.804 Q2204.83 296.341 2206.91 296.341 Q2212.54 296.341 2215.31 299.258 Q2218.09 302.174 2218.09 308.1 Z" fill="#000000" fill-rule="nonzero" fill-opacity="1" /><path clip-path="url(#clip600)" d="M2248.42 307.244 L2248.42 322.892 L2244.16 322.892 L2244.16 307.383 Q2244.16 303.702 2242.72 301.873 Q2241.29 300.045 2238.42 300.045 Q2234.97 300.045 2232.98 302.244 Q2230.99 304.443 2230.99 308.239 L2230.99 322.892 L2226.7 322.892 L2226.7 296.966 L2230.99 296.966 L2230.99 300.994 Q2232.51 298.656 2234.57 297.498 Q2236.66 296.341 2239.37 296.341 Q2243.83 296.341 2246.12 299.119 Q2248.42 301.873 2248.42 307.244 Z" fill="#000000" fill-rule="nonzero" fill-opacity="1" /></svg>
