<?xml version="1.0" encoding="utf-8"?>
<svg xmlns="http://www.w3.org/2000/svg" xmlns:xlink="http://www.w3.org/1999/xlink" width="700" height="500" viewBox="0 0 2800 2000">
<defs>
  <clipPath id="clip990">
    <rect x="0" y="0" width="2800" height="2000"/>
  </clipPath>
</defs>
<path clip-path="url(#clip990)" d="M0 2000 L2800 2000 L2800 -4.44089e-14 L0 -4.44089e-14  Z" fill="#ffffff" fill-rule="evenodd" fill-opacity="1"/>
<defs>
  <clipPath id="clip991">
    <rect x="532" y="125" width="2142" height="1506"/>
  </clipPath>
</defs>
<path clip-path="url(#clip990)" d="M448.779 1630.83 L2674.02 1630.83 L2674.02 125.984 L448.779 125.984  Z" fill="#ffffff" fill-rule="evenodd" fill-opacity="1"/>
<defs>
  <clipPath id="clip992">
    <rect x="448" y="125" width="2226" height="1506"/>
  </clipPath>
</defs>
<polyline clip-path="url(#clip992)" style="stroke:#000000; stroke-linecap:round; stroke-linejoin:round; stroke-width:2; stroke-opacity:0.1; fill:none" points="503.394,1630.83 503.394,125.984 "/>
<polyline clip-path="url(#clip992)" style="stroke:#000000; stroke-linecap:round; stroke-linejoin:round; stroke-width:2; stroke-opacity:0.1; fill:none" points="921.577,1630.83 921.577,125.984 "/>
<polyline clip-path="url(#clip992)" style="stroke:#000000; stroke-linecap:round; stroke-linejoin:round; stroke-width:2; stroke-opacity:0.1; fill:none" points="1339.76,1630.83 1339.76,125.984 "/>
<polyline clip-path="url(#clip992)" style="stroke:#000000; stroke-linecap:round; stroke-linejoin:round; stroke-width:2; stroke-opacity:0.1; fill:none" points="1757.94,1630.83 1757.94,125.984 "/>
<polyline clip-path="url(#clip992)" style="stroke:#000000; stroke-linecap:round; stroke-linejoin:round; stroke-width:2; stroke-opacity:0.1; fill:none" points="2176.13,1630.83 2176.13,125.984 "/>
<polyline clip-path="url(#clip992)" style="stroke:#000000; stroke-linecap:round; stroke-linejoin:round; stroke-width:2; stroke-opacity:0.1; fill:none" points="2594.31,1630.83 2594.31,125.984 "/>
<polyline clip-path="url(#clip992)" style="stroke:#000000; stroke-linecap:round; stroke-linejoin:round; stroke-width:2; stroke-opacity:0.1; fill:none" points="448.779,1391.68 2674.02,1391.68 "/>
<polyline clip-path="url(#clip992)" style="stroke:#000000; stroke-linecap:round; stroke-linejoin:round; stroke-width:2; stroke-opacity:0.1; fill:none" points="448.779,1019.71 2674.02,1019.71 "/>
<polyline clip-path="url(#clip992)" style="stroke:#000000; stroke-linecap:round; stroke-linejoin:round; stroke-width:2; stroke-opacity:0.1; fill:none" points="448.779,647.747 2674.02,647.747 "/>
<polyline clip-path="url(#clip992)" style="stroke:#000000; stroke-linecap:round; stroke-linejoin:round; stroke-width:2; stroke-opacity:0.1; fill:none" points="448.779,275.78 2674.02,275.78 "/>
<polyline clip-path="url(#clip990)" style="stroke:#000000; stroke-linecap:round; stroke-linejoin:round; stroke-width:4; stroke-opacity:1; fill:none" points="448.779,1630.83 2674.02,1630.83 "/>
<polyline clip-path="url(#clip990)" style="stroke:#000000; stroke-linecap:round; stroke-linejoin:round; stroke-width:4; stroke-opacity:1; fill:none" points="503.394,1630.83 503.394,1611.93 "/>
<polyline clip-path="url(#clip990)" style="stroke:#000000; stroke-linecap:round; stroke-linejoin:round; stroke-width:4; stroke-opacity:1; fill:none" points="921.577,1630.83 921.577,1611.93 "/>
<polyline clip-path="url(#clip990)" style="stroke:#000000; stroke-linecap:round; stroke-linejoin:round; stroke-width:4; stroke-opacity:1; fill:none" points="1339.76,1630.83 1339.76,1611.93 "/>
<polyline clip-path="url(#clip990)" style="stroke:#000000; stroke-linecap:round; stroke-linejoin:round; stroke-width:4; stroke-opacity:1; fill:none" points="1757.94,1630.83 1757.94,1611.93 "/>
<polyline clip-path="url(#clip990)" style="stroke:#000000; stroke-linecap:round; stroke-linejoin:round; stroke-width:4; stroke-opacity:1; fill:none" points="2176.13,1630.83 2176.13,1611.93 "/>
<polyline clip-path="url(#clip990)" style="stroke:#000000; stroke-linecap:round; stroke-linejoin:round; stroke-width:4; stroke-opacity:1; fill:none" points="2594.31,1630.83 2594.31,1611.93 "/>
<path clip-path="url(#clip990)" d="M503.394 1667.88 Q498.88 1667.88 496.594 1672.34 Q494.337 1676.76 494.337 1685.67 Q494.337 1694.56 496.594 1699.01 Q498.88 1703.44 503.394 1703.44 Q507.936 1703.44 510.193 1699.01 Q512.479 1694.56 512.479 1685.67 Q512.479 1676.76 510.193 1672.34 Q507.936 1667.88 503.394 1667.88 M503.394 1663.25 Q510.656 1663.25 514.476 1669.01 Q518.324 1674.74 518.324 1685.67 Q518.324 1696.58 514.476 1702.34 Q510.656 1708.07 503.394 1708.07 Q496.131 1708.07 492.283 1702.34 Q488.463 1696.58 488.463 1685.67 Q488.463 1674.74 492.283 1669.01 Q496.131 1663.25 503.394 1663.25 Z" fill="#000000" fill-rule="nonzero" fill-opacity="1" /><path clip-path="url(#clip990)" d="M889.951 1664.03 L912.896 1664.03 L912.896 1668.95 L895.304 1668.95 L895.304 1679.54 Q896.577 1679.11 897.85 1678.9 Q899.123 1678.67 900.396 1678.67 Q907.63 1678.67 911.855 1682.64 Q916.079 1686.6 916.079 1693.37 Q916.079 1700.34 911.739 1704.22 Q907.399 1708.07 899.499 1708.07 Q896.78 1708.07 893.944 1707.61 Q891.137 1707.14 888.128 1706.22 L888.128 1700.34 Q890.732 1701.76 893.51 1702.46 Q896.288 1703.15 899.384 1703.15 Q904.389 1703.15 907.312 1700.52 Q910.234 1697.89 910.234 1693.37 Q910.234 1688.86 907.312 1686.22 Q904.389 1683.59 899.384 1683.59 Q897.04 1683.59 894.696 1684.11 Q892.381 1684.63 889.951 1685.73 L889.951 1664.03 Z" fill="#000000" fill-rule="nonzero" fill-opacity="1" /><path clip-path="url(#clip990)" d="M940.095 1667.88 Q935.581 1667.88 933.296 1672.34 Q931.039 1676.76 931.039 1685.67 Q931.039 1694.56 933.296 1699.01 Q935.581 1703.44 940.095 1703.44 Q944.638 1703.44 946.895 1699.01 Q949.181 1694.56 949.181 1685.67 Q949.181 1676.76 946.895 1672.34 Q944.638 1667.88 940.095 1667.88 M940.095 1663.25 Q947.358 1663.25 951.177 1669.01 Q955.026 1674.74 955.026 1685.67 Q955.026 1696.58 951.177 1702.34 Q947.358 1708.07 940.095 1708.07 Q932.833 1708.07 928.984 1702.34 Q925.165 1696.58 925.165 1685.67 Q925.165 1674.74 928.984 1669.01 Q932.833 1663.25 940.095 1663.25 Z" fill="#000000" fill-rule="nonzero" fill-opacity="1" /><path clip-path="url(#clip990)" d="M1289.27 1702.31 L1298.82 1702.31 L1298.82 1669.36 L1288.43 1671.44 L1288.43 1666.11 L1298.76 1664.03 L1304.6 1664.03 L1304.6 1702.31 L1314.15 1702.31 L1314.15 1707.23 L1289.27 1707.23 L1289.27 1702.31 Z" fill="#000000" fill-rule="nonzero" fill-opacity="1" /><path clip-path="url(#clip990)" d="M1338.46 1667.88 Q1333.94 1667.88 1331.66 1672.34 Q1329.4 1676.76 1329.4 1685.67 Q1329.4 1694.56 1331.66 1699.01 Q1333.94 1703.44 1338.46 1703.44 Q1343 1703.44 1345.26 1699.01 Q1347.54 1694.56 1347.54 1685.67 Q1347.54 1676.76 1345.26 1672.34 Q1343 1667.88 1338.46 1667.88 M1338.46 1663.25 Q1345.72 1663.25 1349.54 1669.01 Q1353.39 1674.74 1353.39 1685.67 Q1353.39 1696.58 1349.54 1702.34 Q1345.72 1708.07 1338.46 1708.07 Q1331.2 1708.07 1327.35 1702.34 Q1323.53 1696.58 1323.53 1685.67 Q1323.53 1674.74 1327.35 1669.01 Q1331.2 1663.25 1338.46 1663.25 Z" fill="#000000" fill-rule="nonzero" fill-opacity="1" /><path clip-path="url(#clip990)" d="M1376.16 1667.88 Q1371.65 1667.88 1369.36 1672.34 Q1367.1 1676.76 1367.1 1685.67 Q1367.1 1694.56 1369.36 1699.01 Q1371.65 1703.44 1376.16 1703.44 Q1380.7 1703.44 1382.96 1699.01 Q1385.25 1694.56 1385.25 1685.67 Q1385.25 1676.76 1382.96 1672.34 Q1380.7 1667.88 1376.16 1667.88 M1376.16 1663.25 Q1383.42 1663.25 1387.24 1669.01 Q1391.09 1674.74 1391.09 1685.67 Q1391.09 1696.58 1387.24 1702.34 Q1383.42 1708.07 1376.16 1708.07 Q1368.9 1708.07 1365.05 1702.34 Q1361.23 1696.58 1361.23 1685.67 Q1361.23 1674.74 1365.05 1669.01 Q1368.9 1663.25 1376.16 1663.25 Z" fill="#000000" fill-rule="nonzero" fill-opacity="1" /><path clip-path="url(#clip990)" d="M1707.45 1702.31 L1717 1702.31 L1717 1669.36 L1706.61 1671.44 L1706.61 1666.11 L1716.94 1664.03 L1722.79 1664.03 L1722.79 1702.31 L1732.34 1702.31 L1732.34 1707.23 L1707.45 1707.23 L1707.45 1702.31 Z" fill="#000000" fill-rule="nonzero" fill-opacity="1" /><path clip-path="url(#clip990)" d="M1744.2 1664.03 L1767.14 1664.03 L1767.14 1668.95 L1749.55 1668.95 L1749.55 1679.54 Q1750.83 1679.11 1752.1 1678.9 Q1753.37 1678.67 1754.64 1678.67 Q1761.88 1678.67 1766.1 1682.64 Q1770.33 1686.6 1770.33 1693.37 Q1770.33 1700.34 1765.99 1704.22 Q1761.65 1708.07 1753.75 1708.07 Q1751.03 1708.07 1748.19 1707.61 Q1745.39 1707.14 1742.38 1706.22 L1742.38 1700.34 Q1744.98 1701.76 1747.76 1702.46 Q1750.54 1703.15 1753.63 1703.15 Q1758.64 1703.15 1761.56 1700.52 Q1764.48 1697.89 1764.48 1693.37 Q1764.48 1688.86 1761.56 1686.22 Q1758.64 1683.59 1753.63 1683.59 Q1751.29 1683.59 1748.94 1684.11 Q1746.63 1684.63 1744.2 1685.73 L1744.2 1664.03 Z" fill="#000000" fill-rule="nonzero" fill-opacity="1" /><path clip-path="url(#clip990)" d="M1794.34 1667.88 Q1789.83 1667.88 1787.54 1672.34 Q1785.29 1676.76 1785.29 1685.67 Q1785.29 1694.56 1787.54 1699.01 Q1789.83 1703.44 1794.34 1703.44 Q1798.89 1703.44 1801.14 1699.01 Q1803.43 1694.56 1803.43 1685.67 Q1803.43 1676.76 1801.14 1672.34 Q1798.89 1667.88 1794.34 1667.88 M1794.34 1663.25 Q1801.61 1663.25 1805.43 1669.01 Q1809.27 1674.74 1809.27 1685.67 Q1809.27 1696.58 1805.43 1702.34 Q1801.61 1708.07 1794.34 1708.07 Q1787.08 1708.07 1783.23 1702.34 Q1779.41 1696.58 1779.41 1685.67 Q1779.41 1674.74 1783.23 1669.01 Q1787.08 1663.25 1794.34 1663.25 Z" fill="#000000" fill-rule="nonzero" fill-opacity="1" /><path clip-path="url(#clip990)" d="M2130.74 1702.31 L2151.14 1702.31 L2151.14 1707.23 L2123.71 1707.23 L2123.71 1702.31 Q2127.04 1698.87 2132.77 1693.08 Q2138.53 1687.27 2140 1685.59 Q2142.81 1682.43 2143.91 1680.26 Q2145.04 1678.06 2145.04 1675.95 Q2145.04 1672.51 2142.61 1670.34 Q2140.2 1668.17 2136.33 1668.17 Q2133.58 1668.17 2130.51 1669.12 Q2127.47 1670.08 2124 1672.02 L2124 1666.11 Q2127.53 1664.7 2130.6 1663.97 Q2133.66 1663.25 2136.21 1663.25 Q2142.92 1663.25 2146.92 1666.61 Q2150.91 1669.96 2150.91 1675.58 Q2150.91 1678.24 2149.9 1680.64 Q2148.91 1683.01 2146.28 1686.25 Q2145.56 1687.09 2141.68 1691.11 Q2137.8 1695.11 2130.74 1702.31 Z" fill="#000000" fill-rule="nonzero" fill-opacity="1" /><path clip-path="url(#clip990)" d="M2175.91 1667.88 Q2171.4 1667.88 2169.11 1672.34 Q2166.85 1676.76 2166.85 1685.67 Q2166.85 1694.56 2169.11 1699.01 Q2171.4 1703.44 2175.91 1703.44 Q2180.45 1703.44 2182.71 1699.01 Q2185 1694.56 2185 1685.67 Q2185 1676.76 2182.71 1672.34 Q2180.45 1667.88 2175.91 1667.88 M2175.91 1663.25 Q2183.17 1663.25 2186.99 1669.01 Q2190.84 1674.74 2190.84 1685.67 Q2190.84 1696.58 2186.99 1702.34 Q2183.17 1708.07 2175.91 1708.07 Q2168.65 1708.07 2164.8 1702.34 Q2160.98 1696.58 2160.98 1685.67 Q2160.98 1674.74 2164.8 1669.01 Q2168.65 1663.25 2175.91 1663.25 Z" fill="#000000" fill-rule="nonzero" fill-opacity="1" /><path clip-path="url(#clip990)" d="M2213.61 1667.88 Q2209.1 1667.88 2206.81 1672.34 Q2204.56 1676.76 2204.56 1685.67 Q2204.56 1694.56 2206.81 1699.01 Q2209.1 1703.44 2213.61 1703.44 Q2218.15 1703.44 2220.41 1699.01 Q2222.7 1694.56 2222.7 1685.67 Q2222.7 1676.76 2220.41 1672.34 Q2218.15 1667.88 2213.61 1667.88 M2213.61 1663.25 Q2220.87 1663.25 2224.69 1669.01 Q2228.54 1674.74 2228.54 1685.67 Q2228.54 1696.58 2224.69 1702.34 Q2220.87 1708.07 2213.61 1708.07 Q2206.35 1708.07 2202.5 1702.34 Q2198.68 1696.58 2198.68 1685.67 Q2198.68 1674.74 2202.5 1669.01 Q2206.35 1663.25 2213.61 1663.25 Z" fill="#000000" fill-rule="nonzero" fill-opacity="1" /><path clip-path="url(#clip990)" d="M2548.93 1702.31 L2569.32 1702.31 L2569.32 1707.23 L2541.89 1707.23 L2541.89 1702.31 Q2545.22 1698.87 2550.95 1693.08 Q2556.71 1687.27 2558.18 1685.59 Q2560.99 1682.43 2562.09 1680.26 Q2563.22 1678.06 2563.22 1675.95 Q2563.22 1672.51 2560.79 1670.34 Q2558.39 1668.17 2554.51 1668.17 Q2551.76 1668.17 2548.69 1669.12 Q2545.66 1670.08 2542.18 1672.02 L2542.18 1666.11 Q2545.71 1664.7 2548.78 1663.97 Q2551.85 1663.25 2554.39 1663.25 Q2561.11 1663.25 2565.1 1666.61 Q2569.09 1669.96 2569.09 1675.58 Q2569.09 1678.24 2568.08 1680.64 Q2567.1 1683.01 2564.46 1686.25 Q2563.74 1687.09 2559.86 1691.11 Q2555.99 1695.11 2548.93 1702.31 Z" fill="#000000" fill-rule="nonzero" fill-opacity="1" /><path clip-path="url(#clip990)" d="M2581.65 1664.03 L2604.6 1664.03 L2604.6 1668.95 L2587 1668.95 L2587 1679.54 Q2588.28 1679.11 2589.55 1678.9 Q2590.82 1678.67 2592.1 1678.67 Q2599.33 1678.67 2603.55 1682.64 Q2607.78 1686.6 2607.78 1693.37 Q2607.78 1700.34 2603.44 1704.22 Q2599.1 1708.07 2591.2 1708.07 Q2588.48 1708.07 2585.64 1707.61 Q2582.84 1707.14 2579.83 1706.22 L2579.83 1700.34 Q2582.43 1701.76 2585.21 1702.46 Q2587.99 1703.15 2591.08 1703.15 Q2596.09 1703.15 2599.01 1700.52 Q2601.93 1697.89 2601.93 1693.37 Q2601.93 1688.86 2599.01 1686.22 Q2596.09 1683.59 2591.08 1683.59 Q2588.74 1683.59 2586.4 1684.11 Q2584.08 1684.63 2581.65 1685.73 L2581.65 1664.03 Z" fill="#000000" fill-rule="nonzero" fill-opacity="1" /><path clip-path="url(#clip990)" d="M2631.8 1667.88 Q2627.28 1667.88 2625 1672.34 Q2622.74 1676.76 2622.74 1685.67 Q2622.74 1694.56 2625 1699.01 Q2627.28 1703.44 2631.8 1703.44 Q2636.34 1703.44 2638.6 1699.01 Q2640.88 1694.56 2640.88 1685.67 Q2640.88 1676.76 2638.6 1672.34 Q2636.34 1667.88 2631.8 1667.88 M2631.8 1663.25 Q2639.06 1663.25 2642.88 1669.01 Q2646.73 1674.74 2646.73 1685.67 Q2646.73 1696.58 2642.88 1702.34 Q2639.06 1708.07 2631.8 1708.07 Q2624.53 1708.07 2620.68 1702.34 Q2616.86 1696.58 2616.86 1685.67 Q2616.86 1674.74 2620.68 1669.01 Q2624.53 1663.25 2631.8 1663.25 Z" fill="#000000" fill-rule="nonzero" fill-opacity="1" /><path clip-path="url(#clip990)" d="M1508.74 1747.14 L1515.17 1747.14 L1515.17 1789.24 L1538.31 1789.24 L1538.31 1794.66 L1508.74 1794.66 L1508.74 1747.14 Z" fill="#000000" fill-rule="nonzero" fill-opacity="1" /><path clip-path="url(#clip990)" d="M1561 1776.74 Q1553.9 1776.74 1551.16 1778.36 Q1548.43 1779.98 1548.43 1783.9 Q1548.43 1787.02 1550.46 1788.86 Q1552.53 1790.68 1556.07 1790.68 Q1560.94 1790.68 1563.86 1787.24 Q1566.82 1783.77 1566.82 1778.04 L1566.82 1776.74 L1561 1776.74 M1572.68 1774.32 L1572.68 1794.66 L1566.82 1794.66 L1566.82 1789.24 Q1564.82 1792.49 1561.83 1794.05 Q1558.84 1795.58 1554.51 1795.58 Q1549.03 1795.58 1545.79 1792.52 Q1542.57 1789.44 1542.57 1784.28 Q1542.57 1778.26 1546.58 1775.21 Q1550.62 1772.15 1558.61 1772.15 L1566.82 1772.15 L1566.82 1771.58 Q1566.82 1767.54 1564.15 1765.34 Q1561.51 1763.11 1556.7 1763.11 Q1553.65 1763.11 1550.75 1763.85 Q1547.85 1764.58 1545.18 1766.04 L1545.18 1760.63 Q1548.4 1759.39 1551.42 1758.78 Q1554.44 1758.15 1557.31 1758.15 Q1565.04 1758.15 1568.86 1762.16 Q1572.68 1766.17 1572.68 1774.32 Z" fill="#000000" fill-rule="nonzero" fill-opacity="1" /><path clip-path="url(#clip990)" d="M1608.2 1776.42 Q1608.2 1770.05 1605.56 1766.55 Q1602.95 1763.05 1598.21 1763.05 Q1593.5 1763.05 1590.85 1766.55 Q1588.24 1770.05 1588.24 1776.42 Q1588.24 1782.75 1590.85 1786.25 Q1593.5 1789.75 1598.21 1789.75 Q1602.95 1789.75 1605.56 1786.25 Q1608.2 1782.75 1608.2 1776.42 M1614.06 1790.23 Q1614.06 1799.33 1610.02 1803.76 Q1605.97 1808.21 1597.63 1808.21 Q1594.55 1808.21 1591.81 1807.74 Q1589.07 1807.29 1586.49 1806.34 L1586.49 1800.64 Q1589.07 1802.04 1591.59 1802.71 Q1594.1 1803.38 1596.71 1803.38 Q1602.47 1803.38 1605.34 1800.35 Q1608.2 1797.36 1608.2 1791.28 L1608.2 1788.39 Q1606.39 1791.54 1603.55 1793.1 Q1600.72 1794.66 1596.77 1794.66 Q1590.22 1794.66 1586.21 1789.66 Q1582.2 1784.66 1582.2 1776.42 Q1582.2 1768.14 1586.21 1763.15 Q1590.22 1758.15 1596.77 1758.15 Q1600.72 1758.15 1603.55 1759.71 Q1606.39 1761.27 1608.2 1764.42 L1608.2 1759.01 L1614.06 1759.01 L1614.06 1790.23 Z" fill="#000000" fill-rule="nonzero" fill-opacity="1" /><polyline clip-path="url(#clip990)" style="stroke:#000000; stroke-linecap:round; stroke-linejoin:round; stroke-width:4; stroke-opacity:1; fill:none" points="448.779,1630.83 448.779,125.984 "/>
<polyline clip-path="url(#clip990)" style="stroke:#000000; stroke-linecap:round; stroke-linejoin:round; stroke-width:4; stroke-opacity:1; fill:none" points="448.779,1391.68 467.676,1391.68 "/>
<polyline clip-path="url(#clip990)" style="stroke:#000000; stroke-linecap:round; stroke-linejoin:round; stroke-width:4; stroke-opacity:1; fill:none" points="448.779,1019.71 467.676,1019.71 "/>
<polyline clip-path="url(#clip990)" style="stroke:#000000; stroke-linecap:round; stroke-linejoin:round; stroke-width:4; stroke-opacity:1; fill:none" points="448.779,647.747 467.676,647.747 "/>
<polyline clip-path="url(#clip990)" style="stroke:#000000; stroke-linecap:round; stroke-linejoin:round; stroke-width:4; stroke-opacity:1; fill:none" points="448.779,275.78 467.676,275.78 "/>
<path clip-path="url(#clip990)" d="M335.309 1373.93 Q330.795 1373.93 328.51 1378.38 Q326.253 1382.81 326.253 1391.72 Q326.253 1400.61 328.51 1405.06 Q330.795 1409.49 335.309 1409.49 Q339.852 1409.49 342.109 1405.06 Q344.395 1400.61 344.395 1391.72 Q344.395 1382.81 342.109 1378.38 Q339.852 1373.93 335.309 1373.93 M335.309 1369.3 Q342.572 1369.3 346.391 1375.06 Q350.24 1380.79 350.24 1391.72 Q350.24 1402.63 346.391 1408.39 Q342.572 1414.12 335.309 1414.12 Q328.047 1414.12 324.198 1408.39 Q320.379 1402.63 320.379 1391.72 Q320.379 1380.79 324.198 1375.06 Q328.047 1369.3 335.309 1369.3 Z" fill="#000000" fill-rule="nonzero" fill-opacity="1" /><path clip-path="url(#clip990)" d="M360.512 1405.93 L366.617 1405.93 L366.617 1413.28 L360.512 1413.28 L360.512 1405.93 Z" fill="#000000" fill-rule="nonzero" fill-opacity="1" /><path clip-path="url(#clip990)" d="M391.848 1373.93 Q387.335 1373.93 385.049 1378.38 Q382.792 1382.81 382.792 1391.72 Q382.792 1400.61 385.049 1405.06 Q387.335 1409.49 391.848 1409.49 Q396.391 1409.49 398.648 1405.06 Q400.934 1400.61 400.934 1391.72 Q400.934 1382.81 398.648 1378.38 Q396.391 1373.93 391.848 1373.93 M391.848 1369.3 Q399.111 1369.3 402.93 1375.06 Q406.779 1380.79 406.779 1391.72 Q406.779 1402.63 402.93 1408.39 Q399.111 1414.12 391.848 1414.12 Q384.586 1414.12 380.737 1408.39 Q376.918 1402.63 376.918 1391.72 Q376.918 1380.79 380.737 1375.06 Q384.586 1369.3 391.848 1369.3 Z" fill="#000000" fill-rule="nonzero" fill-opacity="1" /><path clip-path="url(#clip990)" d="M336.843 1001.96 Q332.329 1001.96 330.043 1006.42 Q327.786 1010.84 327.786 1019.76 Q327.786 1028.64 330.043 1033.1 Q332.329 1037.52 336.843 1037.52 Q341.386 1037.52 343.643 1033.1 Q345.928 1028.64 345.928 1019.76 Q345.928 1010.84 343.643 1006.42 Q341.386 1001.96 336.843 1001.96 M336.843 997.332 Q344.106 997.332 347.925 1003.09 Q351.773 1008.82 351.773 1019.76 Q351.773 1030.67 347.925 1036.42 Q344.106 1042.15 336.843 1042.15 Q329.58 1042.15 325.732 1036.42 Q321.912 1030.67 321.912 1019.76 Q321.912 1008.82 325.732 1003.09 Q329.58 997.332 336.843 997.332 Z" fill="#000000" fill-rule="nonzero" fill-opacity="1" /><path clip-path="url(#clip990)" d="M362.045 1033.96 L368.151 1033.96 L368.151 1041.31 L362.045 1041.31 L362.045 1033.96 Z" fill="#000000" fill-rule="nonzero" fill-opacity="1" /><path clip-path="url(#clip990)" d="M381.895 1036.39 L391.443 1036.39 L391.443 1003.44 L381.056 1005.52 L381.056 1000.2 L391.385 998.113 L397.23 998.113 L397.23 1036.39 L406.779 1036.39 L406.779 1041.31 L381.895 1041.31 L381.895 1036.39 Z" fill="#000000" fill-rule="nonzero" fill-opacity="1" /><path clip-path="url(#clip990)" d="M337.306 629.995 Q332.792 629.995 330.506 634.451 Q328.249 638.878 328.249 647.79 Q328.249 656.673 330.506 661.129 Q332.792 665.556 337.306 665.556 Q341.849 665.556 344.106 661.129 Q346.391 656.673 346.391 647.79 Q346.391 638.878 344.106 634.451 Q341.849 629.995 337.306 629.995 M337.306 625.365 Q344.569 625.365 348.388 631.124 Q352.236 636.853 352.236 647.79 Q352.236 658.699 348.388 664.457 Q344.569 670.186 337.306 670.186 Q330.043 670.186 326.195 664.457 Q322.375 658.699 322.375 647.79 Q322.375 636.853 326.195 631.124 Q330.043 625.365 337.306 625.365 Z" fill="#000000" fill-rule="nonzero" fill-opacity="1" /><path clip-path="url(#clip990)" d="M362.508 661.997 L368.614 661.997 L368.614 669.347 L362.508 669.347 L362.508 661.997 Z" fill="#000000" fill-rule="nonzero" fill-opacity="1" /><path clip-path="url(#clip990)" d="M386.38 664.428 L406.779 664.428 L406.779 669.347 L379.348 669.347 L379.348 664.428 Q382.676 660.985 388.405 655.198 Q394.163 649.382 395.639 647.703 Q398.446 644.549 399.545 642.379 Q400.674 640.18 400.674 638.068 Q400.674 634.625 398.243 632.455 Q395.841 630.284 391.964 630.284 Q389.215 630.284 386.148 631.239 Q383.11 632.194 379.638 634.133 L379.638 628.23 Q383.168 626.812 386.235 626.089 Q389.302 625.365 391.848 625.365 Q398.561 625.365 402.554 628.722 Q406.547 632.078 406.547 637.692 Q406.547 640.354 405.535 642.755 Q404.551 645.128 401.918 648.369 Q401.194 649.208 397.317 653.23 Q393.44 657.223 386.38 664.428 Z" fill="#000000" fill-rule="nonzero" fill-opacity="1" /><path clip-path="url(#clip990)" d="M336.12 258.029 Q331.606 258.029 329.32 262.485 Q327.063 266.912 327.063 275.824 Q327.063 284.707 329.32 289.163 Q331.606 293.59 336.12 293.59 Q340.662 293.59 342.919 289.163 Q345.205 284.707 345.205 275.824 Q345.205 266.912 342.919 262.485 Q340.662 258.029 336.12 258.029 M336.12 253.399 Q343.382 253.399 347.202 259.157 Q351.05 264.886 351.05 275.824 Q351.05 286.732 347.202 292.49 Q343.382 298.219 336.12 298.219 Q328.857 298.219 325.008 292.49 Q321.189 286.732 321.189 275.824 Q321.189 264.886 325.008 259.157 Q328.857 253.399 336.12 253.399 Z" fill="#000000" fill-rule="nonzero" fill-opacity="1" /><path clip-path="url(#clip990)" d="M361.322 290.031 L367.427 290.031 L367.427 297.38 L361.322 297.38 L361.322 290.031 Z" fill="#000000" fill-rule="nonzero" fill-opacity="1" /><path clip-path="url(#clip990)" d="M397.867 274.088 Q402.062 274.985 404.406 277.82 Q406.779 280.656 406.779 284.822 Q406.779 291.217 402.381 294.718 Q397.983 298.219 389.881 298.219 Q387.161 298.219 384.267 297.67 Q381.403 297.149 378.336 296.078 L378.336 290.436 Q380.766 291.854 383.66 292.577 Q386.553 293.3 389.707 293.3 Q395.205 293.3 398.069 291.13 Q400.963 288.96 400.963 284.822 Q400.963 281.003 398.272 278.862 Q395.61 276.692 390.836 276.692 L385.801 276.692 L385.801 271.888 L391.067 271.888 Q395.378 271.888 397.664 270.181 Q399.95 268.445 399.95 265.204 Q399.95 261.877 397.578 260.112 Q395.234 258.318 390.836 258.318 Q388.434 258.318 385.685 258.839 Q382.936 259.36 379.638 260.459 L379.638 255.251 Q382.965 254.325 385.859 253.862 Q388.781 253.399 391.356 253.399 Q398.012 253.399 401.889 256.437 Q405.766 259.446 405.766 264.597 Q405.766 268.185 403.712 270.673 Q401.657 273.133 397.867 274.088 Z" fill="#000000" fill-rule="nonzero" fill-opacity="1" /><path clip-path="url(#clip990)" d="M222.937 1043.9 L246.585 1052.62 L246.585 1035.15 L222.937 1043.9 M216.603 1047.53 L216.603 1040.24 L264.123 1022.13 L264.123 1028.81 L251.933 1033.14 L251.933 1054.56 L264.123 1058.89 L264.123 1065.67 L216.603 1047.53 Z" fill="#000000" fill-rule="nonzero" fill-opacity="1" /><path clip-path="url(#clip990)" d="M220.263 980.753 L227.043 980.753 Q224.019 983.999 222.523 987.691 Q221.027 991.351 221.027 995.489 Q221.027 1003.64 226.024 1007.97 Q230.989 1012.29 240.411 1012.29 Q249.8 1012.29 254.797 1007.97 Q259.762 1003.64 259.762 995.489 Q259.762 991.351 258.266 987.691 Q256.77 983.999 253.747 980.753 L260.463 980.753 Q262.754 984.126 263.9 987.914 Q265.046 991.67 265.046 995.871 Q265.046 1006.66 258.457 1012.87 Q251.837 1019.07 240.411 1019.07 Q228.952 1019.07 222.364 1012.87 Q215.743 1006.66 215.743 995.871 Q215.743 991.606 216.889 987.85 Q218.003 984.063 220.263 980.753 Z" fill="#000000" fill-rule="nonzero" fill-opacity="1" /><path clip-path="url(#clip990)" d="M216.603 970.822 L216.603 943.513 L222.014 943.513 L222.014 964.393 L236.018 964.393 L236.018 945.55 L241.429 945.55 L241.429 964.393 L264.123 964.393 L264.123 970.822 L216.603 970.822 Z" fill="#000000" fill-rule="nonzero" fill-opacity="1" /><path clip-path="url(#clip990)" d="M232.581 899.049 Q232.581 903.759 236.273 906.497 Q239.933 909.234 246.331 909.234 Q252.728 909.234 256.42 906.528 Q260.081 903.791 260.081 899.049 Q260.081 894.37 256.389 891.633 Q252.696 888.895 246.331 888.895 Q239.997 888.895 236.305 891.633 Q232.581 894.37 232.581 899.049 M227.616 899.049 Q227.616 891.41 232.581 887.049 Q237.546 882.689 246.331 882.689 Q255.084 882.689 260.081 887.049 Q265.046 891.41 265.046 899.049 Q265.046 906.719 260.081 911.08 Q255.084 915.409 246.331 915.409 Q237.546 915.409 232.581 911.08 Q227.616 906.719 227.616 899.049 Z" fill="#000000" fill-rule="nonzero" fill-opacity="1" /><path clip-path="url(#clip990)" d="M214.598 854.934 L219.467 854.934 L219.467 860.536 Q219.467 863.687 220.741 864.928 Q222.014 866.138 225.324 866.138 L228.475 866.138 L228.475 856.494 L233.026 856.494 L233.026 866.138 L264.123 866.138 L264.123 872.026 L233.026 872.026 L233.026 877.628 L228.475 877.628 L228.475 872.026 L225.992 872.026 Q220.04 872.026 217.335 869.257 Q214.598 866.488 214.598 860.472 L214.598 854.934 Z" fill="#000000" fill-rule="nonzero" fill-opacity="1" /><path clip-path="url(#clip990)" d="M214.311 821.769 L279.496 821.769 L279.496 827.18 L214.311 827.18 L214.311 821.769 Z" fill="#000000" fill-rule="nonzero" fill-opacity="1" /><path clip-path="url(#clip990)" d="M257.343 774.695 L244.58 774.695 L244.58 785.198 L239.297 785.198 L239.297 768.329 L259.699 768.329 Q262.34 772.053 263.709 776.541 Q265.046 781.028 265.046 786.121 Q265.046 797.261 258.553 803.563 Q252.028 809.833 240.411 809.833 Q228.761 809.833 222.268 803.563 Q215.743 797.261 215.743 786.121 Q215.743 781.474 216.889 777.305 Q218.035 773.103 220.263 769.57 L227.106 769.57 Q224.083 773.135 222.555 777.145 Q221.027 781.156 221.027 785.58 Q221.027 794.301 225.897 798.693 Q230.767 803.054 240.411 803.054 Q250.023 803.054 254.893 798.693 Q259.762 794.301 259.762 785.58 Q259.762 782.174 259.189 779.501 Q258.585 776.827 257.343 774.695 Z" fill="#000000" fill-rule="nonzero" fill-opacity="1" /><path clip-path="url(#clip990)" d="M274.945 729.753 L279.496 729.753 L279.496 763.618 L274.945 763.618 L274.945 729.753 Z" fill="#000000" fill-rule="nonzero" fill-opacity="1" /><path clip-path="url(#clip990)" d="M218.353 718.454 L228.475 718.454 L228.475 706.391 L233.026 706.391 L233.026 718.454 L252.378 718.454 Q256.739 718.454 257.98 717.276 Q259.221 716.066 259.221 712.406 L259.221 706.391 L264.123 706.391 L264.123 712.406 Q264.123 719.186 261.608 721.764 Q259.062 724.342 252.378 724.342 L233.026 724.342 L233.026 728.639 L228.475 728.639 L228.475 724.342 L218.353 724.342 L218.353 718.454 Z" fill="#000000" fill-rule="nonzero" fill-opacity="1" /><path clip-path="url(#clip990)" d="M214.311 691.145 L279.496 691.145 L279.496 696.556 L214.311 696.556 L214.311 691.145 Z" fill="#000000" fill-rule="nonzero" fill-opacity="1" /><polyline clip-path="url(#clip992)" style="stroke:#ff0000; stroke-linecap:round; stroke-linejoin:round; stroke-width:8; stroke-opacity:1; fill:none" stroke-dasharray="32, 20" points="511.757,260.91 520.121,402.971 528.485,194.501 536.848,329.708 545.212,401.046 553.576,481.975 561.939,485.309 570.303,347.477 578.667,410.636 587.03,374.282 595.394,638.937 603.758,623.758 612.121,558.627 620.485,648.594 628.849,620.271 637.212,824.32 645.576,501.093 653.94,576.335 662.303,805.907 670.667,651.593 679.031,817.103 687.394,796.021 695.758,722.097 704.122,923.437 712.485,856.447 720.849,844.57 729.213,922.938 737.576,963.713 745.94,793.407 754.304,890.889 762.667,944.827 771.031,990.489 779.395,943.225 787.758,1017.79 796.122,982.436 804.486,961.738 812.849,1002.79 821.213,948.343 829.577,918.522 837.94,1053.35 846.304,1008.84 854.668,1004.94 863.031,1023.31 871.395,1159.63 879.759,1075.06 888.122,938.402 896.486,1215.29 904.85,1132.38 913.213,1042.77 921.577,1174.54 929.941,1100.19 938.304,1135.35 946.668,1110.53 955.032,1155.87 963.395,1069.45 971.759,1122.59 980.123,1157.48 988.486,1142.41 996.85,1083.37 1005.21,1232.6 1013.58,1179.58 1021.94,1197.67 1030.3,1075.73 1038.67,1243.84 1047.03,1221.52 1055.4,1187.54 1063.76,1266.66 1072.12,1176.43 1080.49,1245.75 1088.85,1251.17 1097.21,1253.93 1105.58,1124.82 1113.94,1267.91 1122.3,1229.8 1130.67,1171.63 1139.03,1131.16 1147.4,1233.57 1155.76,1264.3 1164.12,1228.11 1172.49,1294.55 1180.85,1240.68 1189.21,1210.22 1197.58,1317.9 1205.94,1306.07 1214.31,1262.12 1222.67,1315.4 1231.03,1309.49 1239.4,1261.89 1247.76,1328.38 1256.12,1251.7 1264.49,1267.15 1272.85,1185.82 1281.21,1330.67 1289.58,1216.37 1297.94,1214.83 1306.31,1261.66 1314.67,1128.78 1323.03,1222.38 1331.4,1241.92 1339.76,1190.92 1348.12,1181.76 1356.49,1194.97 1364.85,1191.21 1373.21,1276.71 1381.58,1152.97 1389.94,1194.68 1398.31,1227.1 1406.67,1320.51 1415.03,1209.9 1423.4,1328.29 1431.76,1236.46 1440.12,1312.16 1448.49,1222.15 1456.85,1252.3 1465.22,1226.48 1473.58,1201.67 1481.94,1220.44 1490.31,1254.86 1498.67,1170.06 1507.03,1133.35 1515.4,1172.6 1523.76,1191.68 1532.12,1238.01 1540.49,1195.77 1548.85,1257.6 1557.22,1207.93 1565.58,1245.92 1573.94,1250.28 1582.31,1177.43 1590.67,1177.86 1599.03,1117.7 1607.4,1286.69 1615.76,1244.6 1624.12,1229.47 1632.49,1267.03 1640.85,1240.18 1649.22,1297.64 1657.58,1150.82 1665.94,1206.89 1674.31,1256.99 1682.67,1266.23 1691.03,1237.72 1699.4,1236.28 1707.76,1242.58 1716.13,1230.14 1724.49,1201.55 1732.85,1396.77 1741.22,1243.38 1749.58,1236.72 1757.94,1289.7 1766.31,1116.41 1774.67,1203.02 1783.03,1217.46 1791.4,1229.22 1799.76,1237.74 1808.13,1193.52 1816.49,1277.09 1824.85,1216.12 1833.22,1261.59 1841.58,1152.67 1849.94,1152.49 1858.31,1218.46 1866.67,1239.66 1875.03,1273.77 1883.4,1285.15 1891.76,1302.09 1900.13,1332.58 1908.49,1212.56 1916.85,1211.07 1925.22,1244.57 1933.58,1292.83 1941.94,1206.19 1950.31,1220.03 1958.67,1237.98 1967.04,1389 1975.4,1265.38 1983.76,1266.02 1992.13,1374.49 2000.49,1284.62 2008.85,1391.54 2017.22,1380.06 2025.58,1274.28 2033.94,1325.78 2042.31,1412.7 2050.67,1386.15 2059.04,1437.29 2067.4,1364.04 2075.76,1393.2 2084.13,1356.28 2092.49,1399.66 2100.85,1391.6 2109.22,1354.3 2117.58,1398.9 2125.94,1377.49 2134.31,1396.39 2142.67,1415.46 2151.04,1320.34 2159.4,1318.91 2167.76,1371.14 2176.13,1416.97 2184.49,1307.14 2192.85,1349.91 2201.22,1262.93 2209.58,1319.39 2217.95,1428.34 2226.31,1306.23 2234.67,1324.14 2243.04,1342.37 2251.4,1365.63 2259.76,1417.92 2268.13,1275.16 2276.49,1334.09 2284.85,1421.55 2293.22,1291.43 2301.58,1375.8 2309.95,1304.55 2318.31,1335.84 2326.67,1393.82 2335.04,1383.07 2343.4,1474.7 2351.76,1317.62 2360.13,1405.06 2368.49,1441.03 2376.85,1356.47 2385.22,1455.44 2393.58,1457.91 2401.95,1463.72 2410.31,1477.17 2418.67,1491.46 2427.04,1545.72 2435.4,1447.19 2443.76,1495.66 2452.13,1540.8 2460.49,1454.42 2468.86,1475.01 2477.22,1518.03 2485.58,1459.05 2493.95,1584.7 2502.31,1459.14 2510.67,1492.51 2519.04,1548.43 2527.4,1439.59 2535.76,1588.24 2544.13,1507.96 2552.49,1491.64 2560.86,1528.52 2569.22,1558.18 2577.58,1474.36 2585.95,1485.26 2594.31,1555.33 2602.67,1485.16 2611.04,1544.11 "/>
<polyline clip-path="url(#clip992)" style="stroke:#000080; stroke-linecap:round; stroke-linejoin:round; stroke-width:8; stroke-opacity:1; fill:none" points="511.757,303.265 520.121,448.718 528.485,531.346 536.848,604.51 545.212,675.27 553.576,730.848 561.939,790.016 570.303,837.894 578.667,885.28 587.03,938.363 595.394,977.01 603.758,1013.73 612.121,1038.3 620.485,1077.7 628.849,1102.71 637.212,1126.68 645.576,1162.37 653.94,1178.91 662.303,1193.57 670.667,1221.86 679.031,1232.96 687.394,1238.36 695.758,1262.43 704.122,1265.3 712.485,1282.37 720.849,1295.28 729.213,1302.81 737.576,1312.02 745.94,1311.88 754.304,1323.7 762.667,1344.71 771.031,1342.12 779.395,1354.69 787.758,1356.2 796.122,1370.01 804.486,1365.98 812.849,1371.76 821.213,1369.77 829.577,1375.57 837.94,1383.56 846.304,1383.13 854.668,1381.88 863.031,1378.29 871.395,1385.75 879.759,1388.27 888.122,1393.11 896.486,1391.54 904.85,1398.17 913.213,1398.36 921.577,1397.85 929.941,1397.36 938.304,1393.39 946.668,1402.93 955.032,1402.74 963.395,1399.52 971.759,1389.28 980.123,1397.48 988.486,1398.49 996.85,1394.64 1005.21,1399.26 1013.58,1397.75 1021.94,1396.42 1030.3,1402.39 1038.67,1393.34 1047.03,1394.12 1055.4,1394.17 1063.76,1398.61 1072.12,1405.57 1080.49,1404.01 1088.85,1404.2 1097.21,1403.99 1105.58,1399.52 1113.94,1395.81 1122.3,1399.8 1130.67,1395.22 1139.03,1398.56 1147.4,1402.99 1155.76,1400.42 1164.12,1398.8 1172.49,1404.46 1180.85,1408.04 1189.21,1401.85 1197.58,1396.53 1205.94,1396.08 1214.31,1404.09 1222.67,1397.12 1231.03,1400.81 1239.4,1396.54 1247.76,1393.38 1256.12,1395.02 1264.49,1407.04 1272.85,1396.85 1281.21,1393.77 1289.58,1394.94 1297.94,1390.83 1306.31,1397.37 1314.67,1393.32 1323.03,1395.88 1331.4,1390.7 1339.76,1394.7 1348.12,1395.99 1356.49,1393.9 1364.85,1397.79 1373.21,1397.77 1381.58,1398.29 1389.94,1396.66 1398.31,1402.42 1406.67,1402.26 1415.03,1395.5 1423.4,1398.21 1431.76,1394.69 1440.12,1402.68 1448.49,1396.17 1456.85,1402.39 1465.22,1403.91 1473.58,1406.01 1481.94,1391.57 1490.31,1402.25 1498.67,1400.54 1507.03,1401.25 1515.4,1393.91 1523.76,1402.06 1532.12,1398.03 1540.49,1399.71 1548.85,1392.78 1557.22,1400.27 1565.58,1396.2 1573.94,1400.49 1582.31,1402.54 1590.67,1405.76 1599.03,1404.1 1607.4,1395.45 1615.76,1403.1 1624.12,1394.93 1632.49,1401.85 1640.85,1402.85 1649.22,1396 1657.58,1393.55 1665.94,1396.66 1674.31,1400.32 1682.67,1403.29 1691.03,1400.74 1699.4,1397 1707.76,1397.85 1716.13,1401.83 1724.49,1395.19 1732.85,1406.43 1741.22,1404.55 1749.58,1402.09 1757.94,1401.43 1766.31,1408.12 1774.67,1408.53 1783.03,1406.82 1791.4,1404.92 1799.76,1414.57 1808.13,1413.55 1816.49,1406.83 1824.85,1408.17 1833.22,1403.4 1841.58,1405.79 1849.94,1402.47 1858.31,1410.19 1866.67,1406.51 1875.03,1412.42 1883.4,1408.23 1891.76,1401.42 1900.13,1409.05 1908.49,1409.55 1916.85,1406.3 1925.22,1405.47 1933.58,1403.23 1941.94,1405.21 1950.31,1406.97 1958.67,1404.48 1967.04,1402.55 1975.4,1407.72 1983.76,1405.72 1992.13,1401.41 2000.49,1405.47 2008.85,1405.49 2017.22,1404.66 2025.58,1408.41 2033.94,1405.07 2042.31,1406.42 2050.67,1407.11 2059.04,1404.05 2067.4,1398.86 2075.76,1401.97 2084.13,1409.61 2092.49,1402.1 2100.85,1407.22 2109.22,1410.07 2117.58,1408.06 2125.94,1415.03 2134.31,1412.19 2142.67,1409.57 2151.04,1413.09 2159.4,1424.35 2167.76,1412.08 2176.13,1413.26 2184.49,1413.78 2192.85,1405.94 2201.22,1409.08 2209.58,1410.9 2217.95,1412.23 2226.31,1408.98 2234.67,1409.53 2243.04,1410.92 2251.4,1414.33 2259.76,1406.33 2268.13,1402.66 2276.49,1406.37 2284.85,1397.1 2293.22,1406.49 2301.58,1406.59 2309.95,1402.95 2318.31,1392.85 2326.67,1402.42 2335.04,1408.46 2343.4,1403.29 2351.76,1396.56 2360.13,1407.62 2368.49,1401.22 2376.85,1408.55 2385.22,1410.36 2393.58,1403.44 2401.95,1396.95 2410.31,1401.96 2418.67,1407.87 2427.04,1406.73 2435.4,1403.36 2443.76,1403.6 2452.13,1398.09 2460.49,1402.05 2468.86,1401.82 2477.22,1397.97 2485.58,1400.02 2493.95,1387.62 2502.31,1401.29 2510.67,1401.54 2519.04,1402.3 2527.4,1398.17 2535.76,1398.89 2544.13,1400.92 2552.49,1400.88 2560.86,1400.09 2569.22,1397.4 2577.58,1398.49 2585.95,1401.68 2594.31,1401.73 2602.67,1397.67 2611.04,1400.11 "/>
<path clip-path="url(#clip992)" d="M511.757 428.258 L520.121 572.768 L528.485 650.156 L536.848 721.278 L545.212 796.457 L553.576 844.603 L561.939 910.209 L570.303 964.86 L578.667 1020.58 L587.03 1066.48 L595.394 1120.58 L603.758 1140.92 L612.121 1169.23 L620.485 1217.56 L628.849 1238.6 L637.212 1249.78 L645.576 1275.05 L653.94 1319.86 L662.303 1317.19 L670.667 1348.78 L679.031 1361.2 L687.394 1368.55 L695.758 1387.75 L704.122 1391.31 L712.485 1410.36 L720.849 1429.52 L729.213 1437.73 L737.576 1436.72 L745.94 1439.19 L754.304 1441.36 L762.667 1456.89 L771.031 1483.9 L779.395 1471.88 L787.758 1477.16 L796.122 1496.28 L804.486 1496.23 L812.849 1492.01 L821.213 1502.7 L829.577 1509.25 L837.94 1516.88 L846.304 1510.73 L854.668 1510.68 L863.031 1494.65 L871.395 1514.26 L879.759 1512.41 L888.122 1521.3 L896.486 1521.68 L904.85 1525.11 L913.213 1519.07 L921.577 1528.41 L929.941 1522.69 L938.304 1523.18 L946.668 1540.07 L955.032 1536.31 L963.395 1530.31 L971.759 1516.61 L980.123 1529.08 L988.486 1528.95 L996.85 1531.66 L1005.21 1538.04 L1013.58 1528.39 L1021.94 1546.95 L1030.3 1540.17 L1038.67 1538.18 L1047.03 1513.43 L1055.4 1522.69 L1063.76 1537.44 L1072.12 1531.62 L1080.49 1528.78 L1088.85 1511.46 L1097.21 1535.68 L1105.58 1537.57 L1113.94 1527.95 L1122.3 1551.32 L1130.67 1519.02 L1139.03 1546.04 L1147.4 1549.57 L1155.76 1551.33 L1164.12 1545.19 L1172.49 1526.51 L1180.85 1525.41 L1189.21 1525.31 L1197.58 1510.6 L1205.94 1526.65 L1214.31 1528.19 L1222.67 1518.13 L1231.03 1521.97 L1239.4 1532.99 L1247.76 1517 L1256.12 1529.37 L1264.49 1546.23 L1272.85 1531.91 L1281.21 1522.17 L1289.58 1513.87 L1297.94 1528.24 L1306.31 1524.75 L1314.67 1526.43 L1323.03 1527.76 L1331.4 1522.33 L1339.76 1511.95 L1348.12 1539.71 L1356.49 1522.22 L1364.85 1560.33 L1373.21 1517.38 L1381.58 1518.91 L1389.94 1538.2 L1398.31 1525.07 L1406.67 1531.17 L1415.03 1515.7 L1423.4 1528.77 L1431.76 1515.46 L1440.12 1538.22 L1448.49 1522.72 L1456.85 1522.9 L1465.22 1524.69 L1473.58 1521.28 L1481.94 1529.76 L1490.31 1525.09 L1498.67 1530.28 L1507.03 1518.8 L1515.4 1526.4 L1523.76 1535.3 L1532.12 1507.76 L1540.49 1519.07 L1548.85 1516.78 L1557.22 1514.94 L1565.58 1520.96 L1573.94 1524.98 L1582.31 1518.04 L1590.67 1533.7 L1599.03 1535.27 L1607.4 1505.56 L1615.76 1522.39 L1624.12 1511.4 L1632.49 1528.73 L1640.85 1515.83 L1649.22 1523.74 L1657.58 1532.78 L1665.94 1533.69 L1674.31 1546.09 L1682.67 1535.86 L1691.03 1527.51 L1699.4 1522.66 L1707.76 1536.75 L1716.13 1519.55 L1724.49 1507.37 L1732.85 1532.91 L1741.22 1520.21 L1749.58 1542.53 L1757.94 1513.25 L1766.31 1523.53 L1774.67 1516.25 L1783.03 1532.04 L1791.4 1532.38 L1799.76 1550.25 L1808.13 1548.31 L1816.49 1525.81 L1824.85 1529.91 L1833.22 1514.89 L1841.58 1529.93 L1849.94 1541.83 L1858.31 1547.69 L1866.67 1535.69 L1875.03 1561.29 L1883.4 1541.26 L1891.76 1538.76 L1900.13 1540.51 L1908.49 1552.21 L1916.85 1554.41 L1925.22 1541.77 L1933.58 1542.44 L1941.94 1535.55 L1950.31 1540.31 L1958.67 1544.13 L1967.04 1538.45 L1975.4 1542.58 L1983.76 1524.22 L1992.13 1544.75 L2000.49 1535.22 L2008.85 1528.78 L2017.22 1531.49 L2025.58 1534.53 L2033.94 1542.77 L2042.31 1529.81 L2050.67 1515.8 L2059.04 1522.35 L2067.4 1512.2 L2075.76 1526.26 L2084.13 1521.03 L2092.49 1528.8 L2100.85 1534.64 L2109.22 1532.37 L2117.58 1532.41 L2125.94 1539.73 L2134.31 1530.55 L2142.67 1529.22 L2151.04 1541.87 L2159.4 1533.37 L2167.76 1528.05 L2176.13 1535.35 L2184.49 1531.55 L2192.85 1537.96 L2201.22 1529.12 L2209.58 1520.87 L2217.95 1525.01 L2226.31 1505.99 L2234.67 1526.09 L2243.04 1534.79 L2251.4 1535.28 L2259.76 1523.7 L2268.13 1521.19 L2276.49 1523.38 L2284.85 1526.73 L2293.22 1539.18 L2301.58 1524.44 L2309.95 1527.73 L2318.31 1510.91 L2326.67 1517.44 L2335.04 1513.57 L2343.4 1520.56 L2351.76 1528.1 L2360.13 1510.26 L2368.49 1519.65 L2376.85 1542.07 L2385.22 1549.99 L2393.58 1524.36 L2401.95 1542.52 L2410.31 1524.48 L2418.67 1539.45 L2427.04 1546.82 L2435.4 1526.57 L2443.76 1525.87 L2452.13 1544.05 L2460.49 1543.49 L2468.86 1542.14 L2477.22 1528.31 L2485.58 1529.56 L2493.95 1513.73 L2502.31 1515.35 L2510.67 1514.78 L2519.04 1525.26 L2527.4 1501.15 L2535.76 1502.91 L2544.13 1504.79 L2552.49 1510.68 L2560.86 1523.21 L2569.22 1512.05 L2577.58 1511.09 L2585.95 1517.3 L2594.31 1520.31 L2602.67 1527.38 L2611.04 1512.98 L2611.04 1287.76 L2602.67 1277.97 L2594.31 1291.25 L2585.95 1292.51 L2577.58 1282.13 L2569.22 1271.65 L2560.86 1288.67 L2552.49 1277.17 L2544.13 1281.82 L2535.76 1280.49 L2527.4 1274.32 L2519.04 1298.37 L2510.67 1294.49 L2502.31 1285.17 L2493.95 1276.36 L2485.58 1259.73 L2477.22 1270.12 L2468.86 1262.67 L2460.49 1274.09 L2452.13 1272.49 L2443.76 1272.3 L2435.4 1275.54 L2427.04 1276.41 L2418.67 1279.92 L2410.31 1275.02 L2401.95 1267.19 L2393.58 1282.12 L2385.22 1296.01 L2376.85 1287.98 L2368.49 1278.94 L2360.13 1281.89 L2351.76 1265.65 L2343.4 1288.42 L2335.04 1275.08 L2326.67 1272.4 L2318.31 1269.86 L2309.95 1278.25 L2301.58 1292.01 L2293.22 1257.9 L2284.85 1269.44 L2276.49 1280.86 L2268.13 1285.06 L2259.76 1286 L2251.4 1296.86 L2243.04 1291.67 L2234.67 1291.25 L2226.31 1314.43 L2217.95 1282.63 L2209.58 1300.62 L2201.22 1282.99 L2192.85 1270.41 L2184.49 1298.62 L2176.13 1278.63 L2167.76 1291.19 L2159.4 1307.91 L2151.04 1287.82 L2142.67 1284.37 L2134.31 1264.19 L2125.94 1289.5 L2117.58 1278.71 L2109.22 1277.41 L2100.85 1273.92 L2092.49 1270.81 L2084.13 1289.46 L2075.76 1266.81 L2067.4 1264.28 L2059.04 1284.57 L2050.67 1281.22 L2042.31 1278.25 L2033.94 1267.69 L2025.58 1271.92 L2017.22 1276.52 L2008.85 1266.5 L2000.49 1280.58 L1992.13 1271.77 L1983.76 1284.68 L1975.4 1283.35 L1967.04 1283.43 L1958.67 1280.2 L1950.31 1281.04 L1941.94 1273.34 L1933.58 1271.59 L1925.22 1280.32 L1916.85 1276.9 L1908.49 1273.46 L1900.13 1283.55 L1891.76 1262.05 L1883.4 1288.85 L1875.03 1286.08 L1866.67 1280.57 L1858.31 1277.33 L1849.94 1265.73 L1841.58 1269.61 L1833.22 1279.09 L1824.85 1293.5 L1816.49 1266.55 L1808.13 1298.99 L1799.76 1275.98 L1791.4 1277.65 L1783.03 1287.51 L1774.67 1295.84 L1766.31 1296.3 L1757.94 1280.45 L1749.58 1278.71 L1741.22 1275.61 L1732.85 1258.5 L1724.49 1265.74 L1716.13 1269.07 L1707.76 1260.03 L1699.4 1262.86 L1691.03 1261.07 L1682.67 1267.62 L1674.31 1261.69 L1665.94 1253.71 L1657.58 1255.46 L1649.22 1261.74 L1640.85 1276.78 L1632.49 1261.4 L1624.12 1257.09 L1615.76 1278.37 L1607.4 1266.83 L1599.03 1269.94 L1590.67 1271.83 L1582.31 1267.99 L1573.94 1272.59 L1565.58 1263.79 L1557.22 1262.61 L1548.85 1259.74 L1540.49 1262.85 L1532.12 1272.7 L1523.76 1266.31 L1515.4 1266.97 L1507.03 1287.11 L1498.67 1258.39 L1490.31 1282.65 L1481.94 1281.14 L1473.58 1284.99 L1465.22 1274.63 L1456.85 1280.6 L1448.49 1258.16 L1440.12 1274.8 L1431.76 1256.21 L1423.4 1272.43 L1415.03 1263.79 L1406.67 1261.56 L1398.31 1261.07 L1389.94 1253.58 L1381.58 1270.06 L1373.21 1269.66 L1364.85 1253.06 L1356.49 1259.88 L1348.12 1272.51 L1339.76 1286.38 L1331.4 1259.97 L1323.03 1265.06 L1314.67 1268.1 L1306.31 1275.04 L1297.94 1259.9 L1289.58 1268.35 L1281.21 1259.92 L1272.85 1265.63 L1264.49 1294.68 L1256.12 1273.66 L1247.76 1272.04 L1239.4 1271.68 L1231.03 1248.44 L1222.67 1255.93 L1214.31 1284.02 L1205.94 1243.25 L1197.58 1279.87 L1189.21 1265.92 L1180.85 1292.61 L1172.49 1269.31 L1164.12 1279.57 L1155.76 1280.47 L1147.4 1271.05 L1139.03 1266.18 L1130.67 1257.6 L1122.3 1261.19 L1113.94 1266.14 L1105.58 1261.47 L1097.21 1285.36 L1088.85 1272.8 L1080.49 1264.24 L1072.12 1283.55 L1063.76 1267.34 L1055.4 1264.87 L1047.03 1254.74 L1038.67 1263.25 L1030.3 1275.65 L1021.94 1261.32 L1013.58 1253.81 L1005.21 1264.55 L996.85 1251.27 L988.486 1262.08 L980.123 1271.93 L971.759 1264.58 L963.395 1271.85 L955.032 1275.01 L946.668 1254.4 L938.304 1254.42 L929.941 1272.59 L921.577 1274.48 L913.213 1267.91 L904.85 1269.75 L896.486 1265.98 L888.122 1263.4 L879.759 1261.71 L871.395 1259.11 L863.031 1260.8 L854.668 1260.68 L846.304 1241.25 L837.94 1250.23 L829.577 1237.37 L821.213 1245.94 L812.849 1235.03 L804.486 1232.24 L796.122 1257.51 L787.758 1214.3 L779.395 1235.42 L771.031 1200.12 L762.667 1218.66 L754.304 1190.21 L745.94 1180.61 L737.576 1184 L729.213 1172.93 L720.849 1175.39 L712.485 1161.51 L704.122 1137.57 L695.758 1133.09 L687.394 1103.42 L679.031 1101.92 L670.667 1108.54 L662.303 1051.24 L653.94 1036.1 L645.576 1034.13 L637.212 993.087 L628.849 965.33 L620.485 930.284 L612.121 921.075 L603.758 878.2 L595.394 841.209 L587.03 801.876 L578.667 746.721 L570.303 707.935 L561.939 662.597 L553.576 609.359 L545.212 549.844 L536.848 491.251 L528.485 414.024 L520.121 316.55 L511.757 168.574  Z" fill="#000080" fill-rule="evenodd" fill-opacity="0.15"/>
<polyline clip-path="url(#clip992)" style="stroke:#000080; stroke-linecap:round; stroke-linejoin:round; stroke-width:4; stroke-opacity:0.15; fill:none" points="511.757,428.258 520.121,572.768 528.485,650.156 536.848,721.278 545.212,796.457 553.576,844.603 561.939,910.209 570.303,964.86 578.667,1020.58 587.03,1066.48 595.394,1120.58 603.758,1140.92 612.121,1169.23 620.485,1217.56 628.849,1238.6 637.212,1249.78 645.576,1275.05 653.94,1319.86 662.303,1317.19 670.667,1348.78 679.031,1361.2 687.394,1368.55 695.758,1387.75 704.122,1391.31 712.485,1410.36 720.849,1429.52 729.213,1437.73 737.576,1436.72 745.94,1439.19 754.304,1441.36 762.667,1456.89 771.031,1483.9 779.395,1471.88 787.758,1477.16 796.122,1496.28 804.486,1496.23 812.849,1492.01 821.213,1502.7 829.577,1509.25 837.94,1516.88 846.304,1510.73 854.668,1510.68 863.031,1494.65 871.395,1514.26 879.759,1512.41 888.122,1521.3 896.486,1521.68 904.85,1525.11 913.213,1519.07 921.577,1528.41 929.941,1522.69 938.304,1523.18 946.668,1540.07 955.032,1536.31 963.395,1530.31 971.759,1516.61 980.123,1529.08 988.486,1528.95 996.85,1531.66 1005.21,1538.04 1013.58,1528.39 1021.94,1546.95 1030.3,1540.17 1038.67,1538.18 1047.03,1513.43 1055.4,1522.69 1063.76,1537.44 1072.12,1531.62 1080.49,1528.78 1088.85,1511.46 1097.21,1535.68 1105.58,1537.57 1113.94,1527.95 1122.3,1551.32 1130.67,1519.02 1139.03,1546.04 1147.4,1549.57 1155.76,1551.33 1164.12,1545.19 1172.49,1526.51 1180.85,1525.41 1189.21,1525.31 1197.58,1510.6 1205.94,1526.65 1214.31,1528.19 1222.67,1518.13 1231.03,1521.97 1239.4,1532.99 1247.76,1517 1256.12,1529.37 1264.49,1546.23 1272.85,1531.91 1281.21,1522.17 1289.58,1513.87 1297.94,1528.24 1306.31,1524.75 1314.67,1526.43 1323.03,1527.76 1331.4,1522.33 1339.76,1511.95 1348.12,1539.71 1356.49,1522.22 1364.85,1560.33 1373.21,1517.38 1381.58,1518.91 1389.94,1538.2 1398.31,1525.07 1406.67,1531.17 1415.03,1515.7 1423.4,1528.77 1431.76,1515.46 1440.12,1538.22 1448.49,1522.72 1456.85,1522.9 1465.22,1524.69 1473.58,1521.28 1481.94,1529.76 1490.31,1525.09 1498.67,1530.28 1507.03,1518.8 1515.4,1526.4 1523.76,1535.3 1532.12,1507.76 1540.49,1519.07 1548.85,1516.78 1557.22,1514.94 1565.58,1520.96 1573.94,1524.98 1582.31,1518.04 1590.67,1533.7 1599.03,1535.27 1607.4,1505.56 1615.76,1522.39 1624.12,1511.4 1632.49,1528.73 1640.85,1515.83 1649.22,1523.74 1657.58,1532.78 1665.94,1533.69 1674.31,1546.09 1682.67,1535.86 1691.03,1527.51 1699.4,1522.66 1707.76,1536.75 1716.13,1519.55 1724.49,1507.37 1732.85,1532.91 1741.22,1520.21 1749.58,1542.53 1757.94,1513.25 1766.31,1523.53 1774.67,1516.25 1783.03,1532.04 1791.4,1532.38 1799.76,1550.25 1808.13,1548.31 1816.49,1525.81 1824.85,1529.91 1833.22,1514.89 1841.58,1529.93 1849.94,1541.83 1858.31,1547.69 1866.67,1535.69 1875.03,1561.29 1883.4,1541.26 1891.76,1538.76 1900.13,1540.51 1908.49,1552.21 1916.85,1554.41 1925.22,1541.77 1933.58,1542.44 1941.94,1535.55 1950.31,1540.31 1958.67,1544.13 1967.04,1538.45 1975.4,1542.58 1983.76,1524.22 1992.13,1544.75 2000.49,1535.22 2008.85,1528.78 2017.22,1531.49 2025.58,1534.53 2033.94,1542.77 2042.31,1529.81 2050.67,1515.8 2059.04,1522.35 2067.4,1512.2 2075.76,1526.26 2084.13,1521.03 2092.49,1528.8 2100.85,1534.64 2109.22,1532.37 2117.58,1532.41 2125.94,1539.73 2134.31,1530.55 2142.67,1529.22 2151.04,1541.87 2159.4,1533.37 2167.76,1528.05 2176.13,1535.35 2184.49,1531.55 2192.85,1537.96 2201.22,1529.12 2209.58,1520.87 2217.95,1525.01 2226.31,1505.99 2234.67,1526.09 2243.04,1534.79 2251.4,1535.28 2259.76,1523.7 2268.13,1521.19 2276.49,1523.38 2284.85,1526.73 2293.22,1539.18 2301.58,1524.44 2309.95,1527.73 2318.31,1510.91 2326.67,1517.44 2335.04,1513.57 2343.4,1520.56 2351.76,1528.1 2360.13,1510.26 2368.49,1519.65 2376.85,1542.07 2385.22,1549.99 2393.58,1524.36 2401.95,1542.52 2410.31,1524.48 2418.67,1539.45 2427.04,1546.82 2435.4,1526.57 2443.76,1525.87 2452.13,1544.05 2460.49,1543.49 2468.86,1542.14 2477.22,1528.31 2485.58,1529.56 2493.95,1513.73 2502.31,1515.35 2510.67,1514.78 2519.04,1525.26 2527.4,1501.15 2535.76,1502.91 2544.13,1504.79 2552.49,1510.68 2560.86,1523.21 2569.22,1512.05 2577.58,1511.09 2585.95,1517.3 2594.31,1520.31 2602.67,1527.38 2611.04,1512.98 "/>
<path clip-path="url(#clip990)" d="M2005.7 409.426 L2599.84 409.426 L2599.84 176.146 L2005.7 176.146  Z" fill="#ffffff" fill-rule="evenodd" fill-opacity="1"/>
<polyline clip-path="url(#clip990)" style="stroke:#000000; stroke-linecap:round; stroke-linejoin:round; stroke-width:4; stroke-opacity:1; fill:none" points="2005.7,409.426 2599.84,409.426 2599.84,176.146 2005.7,176.146 2005.7,409.426 "/>
<polyline clip-path="url(#clip990)" style="stroke:#ff0000; stroke-linecap:round; stroke-linejoin:round; stroke-width:9; stroke-opacity:1; fill:none" stroke-dasharray="36, 23" points="2030.43,234.466 2178.78,234.466 "/>
<path clip-path="url(#clip990)" d="M2221.52 218.594 Q2215.8 218.594 2212.41 222.864 Q2209.05 227.135 2209.05 234.505 Q2209.05 241.849 2212.41 246.119 Q2215.8 250.39 2221.52 250.39 Q2227.25 250.39 2230.59 246.119 Q2233.95 241.849 2233.95 234.505 Q2233.95 227.135 2230.59 222.864 Q2227.25 218.594 2221.52 218.594 M2221.52 214.323 Q2229.7 214.323 2234.6 219.817 Q2239.49 225.286 2239.49 234.505 Q2239.49 243.698 2234.6 249.192 Q2229.7 254.661 2221.52 254.661 Q2213.32 254.661 2208.4 249.192 Q2203.5 243.724 2203.5 234.505 Q2203.5 225.286 2208.4 219.817 Q2213.32 214.323 2221.52 214.323 Z" fill="#000000" fill-rule="nonzero" fill-opacity="1" /><path clip-path="url(#clip990)" d="M2268.45 239.349 Q2268.45 234.062 2266.26 231.067 Q2264.1 228.047 2260.3 228.047 Q2256.5 228.047 2254.31 231.067 Q2252.15 234.062 2252.15 239.349 Q2252.15 244.635 2254.31 247.656 Q2256.5 250.651 2260.3 250.651 Q2264.1 250.651 2266.26 247.656 Q2268.45 244.635 2268.45 239.349 M2252.15 229.166 Q2253.66 226.562 2255.95 225.312 Q2258.27 224.036 2261.47 224.036 Q2266.78 224.036 2270.09 228.255 Q2273.43 232.474 2273.43 239.349 Q2273.43 246.224 2270.09 250.442 Q2266.78 254.661 2261.47 254.661 Q2258.27 254.661 2255.95 253.411 Q2253.66 252.135 2252.15 249.531 L2252.15 253.906 L2247.33 253.906 L2247.33 213.385 L2252.15 213.385 L2252.15 229.166 Z" fill="#000000" fill-rule="nonzero" fill-opacity="1" /><path clip-path="url(#clip990)" d="M2299.96 225.599 L2299.96 230.13 Q2297.93 229.088 2295.74 228.567 Q2293.56 228.047 2291.21 228.047 Q2287.64 228.047 2285.85 229.14 Q2284.08 230.234 2284.08 232.422 Q2284.08 234.088 2285.35 235.052 Q2286.63 235.989 2290.48 236.849 L2292.12 237.213 Q2297.23 238.307 2299.36 240.312 Q2301.52 242.291 2301.52 245.859 Q2301.52 249.921 2298.29 252.291 Q2295.09 254.661 2289.47 254.661 Q2287.12 254.661 2284.57 254.192 Q2282.04 253.75 2279.23 252.838 L2279.23 247.89 Q2281.89 249.27 2284.47 249.974 Q2287.04 250.651 2289.57 250.651 Q2292.96 250.651 2294.78 249.505 Q2296.6 248.333 2296.6 246.224 Q2296.6 244.27 2295.27 243.229 Q2293.97 242.187 2289.52 241.224 L2287.85 240.833 Q2283.4 239.895 2281.42 237.968 Q2279.44 236.015 2279.44 232.63 Q2279.44 228.515 2282.36 226.276 Q2285.27 224.036 2290.64 224.036 Q2293.29 224.036 2295.64 224.427 Q2297.98 224.817 2299.96 225.599 Z" fill="#000000" fill-rule="nonzero" fill-opacity="1" /><path clip-path="url(#clip990)" d="M2334.1 238.125 L2334.1 240.468 L2312.07 240.468 Q2312.38 245.416 2315.04 248.02 Q2317.72 250.599 2322.49 250.599 Q2325.25 250.599 2327.83 249.921 Q2330.43 249.244 2332.98 247.89 L2332.98 252.421 Q2330.4 253.515 2327.7 254.088 Q2324.99 254.661 2322.2 254.661 Q2315.22 254.661 2311.13 250.599 Q2307.07 246.536 2307.07 239.609 Q2307.07 232.448 2310.93 228.255 Q2314.81 224.036 2321.37 224.036 Q2327.25 224.036 2330.66 227.838 Q2334.1 231.614 2334.1 238.125 M2329.31 236.718 Q2329.26 232.786 2327.1 230.442 Q2324.96 228.099 2321.42 228.099 Q2317.41 228.099 2314.99 230.364 Q2312.59 232.63 2312.23 236.744 L2329.31 236.718 Z" fill="#000000" fill-rule="nonzero" fill-opacity="1" /><path clip-path="url(#clip990)" d="M2358.87 229.218 Q2358.06 228.75 2357.1 228.541 Q2356.16 228.307 2355.01 228.307 Q2350.95 228.307 2348.76 230.963 Q2346.6 233.593 2346.6 238.541 L2346.6 253.906 L2341.78 253.906 L2341.78 224.739 L2346.6 224.739 L2346.6 229.271 Q2348.11 226.614 2350.53 225.338 Q2352.96 224.036 2356.42 224.036 Q2356.91 224.036 2357.51 224.114 Q2358.11 224.166 2358.84 224.297 L2358.87 229.218 Z" fill="#000000" fill-rule="nonzero" fill-opacity="1" /><path clip-path="url(#clip990)" d="M2360.46 224.739 L2365.53 224.739 L2374.65 249.218 L2383.76 224.739 L2388.84 224.739 L2377.9 253.906 L2371.39 253.906 L2360.46 224.739 Z" fill="#000000" fill-rule="nonzero" fill-opacity="1" /><path clip-path="url(#clip990)" d="M2420.4 238.125 L2420.4 240.468 L2398.37 240.468 Q2398.68 245.416 2401.34 248.02 Q2404.02 250.599 2408.79 250.599 Q2411.55 250.599 2414.13 249.921 Q2416.73 249.244 2419.28 247.89 L2419.28 252.421 Q2416.71 253.515 2414 254.088 Q2411.29 254.661 2408.5 254.661 Q2401.52 254.661 2397.43 250.599 Q2393.37 246.536 2393.37 239.609 Q2393.37 232.448 2397.23 228.255 Q2401.11 224.036 2407.67 224.036 Q2413.55 224.036 2416.97 227.838 Q2420.4 231.614 2420.4 238.125 M2415.61 236.718 Q2415.56 232.786 2413.4 230.442 Q2411.26 228.099 2407.72 228.099 Q2403.71 228.099 2401.29 230.364 Q2398.89 232.63 2398.53 236.744 L2415.61 236.718 Z" fill="#000000" fill-rule="nonzero" fill-opacity="1" /><path clip-path="url(#clip990)" d="M2447.46 229.166 L2447.46 213.385 L2452.25 213.385 L2452.25 253.906 L2447.46 253.906 L2447.46 249.531 Q2445.95 252.135 2443.63 253.411 Q2441.34 254.661 2438.11 254.661 Q2432.83 254.661 2429.49 250.442 Q2426.18 246.224 2426.18 239.349 Q2426.18 232.474 2429.49 228.255 Q2432.83 224.036 2438.11 224.036 Q2441.34 224.036 2443.63 225.312 Q2445.95 226.562 2447.46 229.166 M2431.13 239.349 Q2431.13 244.635 2433.29 247.656 Q2435.48 250.651 2439.28 250.651 Q2443.09 250.651 2445.27 247.656 Q2447.46 244.635 2447.46 239.349 Q2447.46 234.062 2445.27 231.067 Q2443.09 228.047 2439.28 228.047 Q2435.48 228.047 2433.29 231.067 Q2431.13 234.062 2431.13 239.349 Z" fill="#000000" fill-rule="nonzero" fill-opacity="1" /><polyline clip-path="url(#clip990)" style="stroke:#000080; stroke-linecap:round; stroke-linejoin:round; stroke-width:9; stroke-opacity:1; fill:none" points="2030.43,292.786 2178.78,292.786 "/>
<path clip-path="url(#clip990)" d="M2234.86 276.341 L2234.86 281.887 Q2232.2 279.414 2229.18 278.19 Q2226.19 276.966 2222.8 276.966 Q2216.13 276.966 2212.59 281.054 Q2209.05 285.117 2209.05 292.825 Q2209.05 300.507 2212.59 304.596 Q2216.13 308.658 2222.8 308.658 Q2226.19 308.658 2229.18 307.434 Q2232.2 306.21 2234.86 303.736 L2234.86 309.231 Q2232.1 311.106 2229 312.044 Q2225.93 312.981 2222.49 312.981 Q2213.66 312.981 2208.58 307.59 Q2203.5 302.174 2203.5 292.825 Q2203.5 283.45 2208.58 278.059 Q2213.66 272.643 2222.49 272.643 Q2225.98 272.643 2229.05 273.58 Q2232.15 274.492 2234.86 276.341 Z" fill="#000000" fill-rule="nonzero" fill-opacity="1" /><path clip-path="url(#clip990)" d="M2242.98 273.346 L2248.24 273.346 L2248.24 289.283 L2267.36 289.283 L2267.36 273.346 L2272.62 273.346 L2272.62 312.226 L2267.36 312.226 L2267.36 293.71 L2248.24 293.71 L2248.24 312.226 L2242.98 312.226 L2242.98 273.346 Z" fill="#000000" fill-rule="nonzero" fill-opacity="1" /><path clip-path="url(#clip990)" d="M2283.09 273.346 L2290.93 273.346 L2300.85 299.804 L2310.82 273.346 L2318.66 273.346 L2318.66 312.226 L2313.53 312.226 L2313.53 278.085 L2303.5 304.752 L2298.22 304.752 L2288.19 278.085 L2288.19 312.226 L2283.09 312.226 L2283.09 273.346 Z" fill="#000000" fill-rule="nonzero" fill-opacity="1" /><path clip-path="url(#clip990)" d="M2329.1 273.346 L2336.94 273.346 L2346.86 299.804 L2356.84 273.346 L2364.67 273.346 L2364.67 312.226 L2359.54 312.226 L2359.54 278.085 L2349.52 304.752 L2344.23 304.752 L2334.21 278.085 L2334.21 312.226 L2329.1 312.226 L2329.1 273.346 Z" fill="#000000" fill-rule="nonzero" fill-opacity="1" /><path clip-path="url(#clip990)" d="M2403.37 271.757 Q2399.88 277.747 2398.19 283.606 Q2396.5 289.466 2396.5 295.481 Q2396.5 301.497 2398.19 307.408 Q2399.91 313.294 2403.37 319.257 L2399.21 319.257 Q2395.3 313.137 2393.35 307.226 Q2391.42 301.314 2391.42 295.481 Q2391.42 289.674 2393.35 283.788 Q2395.27 277.903 2399.21 271.757 L2403.37 271.757 Z" fill="#000000" fill-rule="nonzero" fill-opacity="1" /><path clip-path="url(#clip990)" d="M2435.38 288.658 Q2437.17 285.429 2439.67 283.893 Q2442.17 282.356 2445.56 282.356 Q2450.12 282.356 2452.59 285.559 Q2455.06 288.736 2455.06 294.622 L2455.06 312.226 L2450.25 312.226 L2450.25 294.778 Q2450.25 290.585 2448.76 288.554 Q2447.28 286.523 2444.23 286.523 Q2440.51 286.523 2438.35 288.997 Q2436.18 291.471 2436.18 295.742 L2436.18 312.226 L2431.37 312.226 L2431.37 294.778 Q2431.37 290.559 2429.88 288.554 Q2428.4 286.523 2425.3 286.523 Q2421.63 286.523 2419.47 289.023 Q2417.3 291.497 2417.3 295.742 L2417.3 312.226 L2412.49 312.226 L2412.49 283.059 L2417.3 283.059 L2417.3 287.591 Q2418.95 284.908 2421.24 283.632 Q2423.53 282.356 2426.68 282.356 Q2429.86 282.356 2432.07 283.971 Q2434.31 285.585 2435.38 288.658 Z" fill="#000000" fill-rule="nonzero" fill-opacity="1" /><path clip-path="url(#clip990)" d="M2489.57 296.445 L2489.57 298.788 L2467.54 298.788 Q2467.85 303.736 2470.51 306.34 Q2473.19 308.919 2477.96 308.919 Q2480.72 308.919 2483.29 308.241 Q2485.9 307.564 2488.45 306.21 L2488.45 310.741 Q2485.87 311.835 2483.16 312.408 Q2480.46 312.981 2477.67 312.981 Q2470.69 312.981 2466.6 308.919 Q2462.54 304.856 2462.54 297.929 Q2462.54 290.768 2466.39 286.575 Q2470.27 282.356 2476.84 282.356 Q2482.72 282.356 2486.13 286.158 Q2489.57 289.934 2489.57 296.445 M2484.78 295.038 Q2484.73 291.106 2482.56 288.762 Q2480.43 286.419 2476.89 286.419 Q2472.88 286.419 2470.46 288.684 Q2468.06 290.95 2467.7 295.064 L2484.78 295.038 Z" fill="#000000" fill-rule="nonzero" fill-opacity="1" /><path clip-path="url(#clip990)" d="M2510.69 297.564 Q2504.88 297.564 2502.64 298.893 Q2500.4 300.221 2500.4 303.424 Q2500.4 305.976 2502.07 307.486 Q2503.76 308.971 2506.65 308.971 Q2510.64 308.971 2513.03 306.158 Q2515.46 303.32 2515.46 298.632 L2515.46 297.564 L2510.69 297.564 M2520.25 295.585 L2520.25 312.226 L2515.46 312.226 L2515.46 307.799 Q2513.81 310.455 2511.37 311.731 Q2508.92 312.981 2505.38 312.981 Q2500.9 312.981 2498.24 310.481 Q2495.61 307.955 2495.61 303.736 Q2495.61 298.814 2498.89 296.314 Q2502.2 293.814 2508.74 293.814 L2515.46 293.814 L2515.46 293.346 Q2515.46 290.038 2513.27 288.242 Q2511.11 286.419 2507.17 286.419 Q2504.67 286.419 2502.3 287.018 Q2499.93 287.617 2497.75 288.814 L2497.75 284.387 Q2500.38 283.372 2502.85 282.877 Q2505.33 282.356 2507.67 282.356 Q2514 282.356 2517.12 285.637 Q2520.25 288.919 2520.25 295.585 Z" fill="#000000" fill-rule="nonzero" fill-opacity="1" /><path clip-path="url(#clip990)" d="M2554.36 294.622 L2554.36 312.226 L2549.57 312.226 L2549.57 294.778 Q2549.57 290.637 2547.96 288.58 Q2546.34 286.523 2543.11 286.523 Q2539.23 286.523 2536.99 288.997 Q2534.75 291.471 2534.75 295.742 L2534.75 312.226 L2529.93 312.226 L2529.93 283.059 L2534.75 283.059 L2534.75 287.591 Q2536.47 284.96 2538.79 283.658 Q2541.13 282.356 2544.18 282.356 Q2549.21 282.356 2551.78 285.481 Q2554.36 288.58 2554.36 294.622 Z" fill="#000000" fill-rule="nonzero" fill-opacity="1" /><path clip-path="url(#clip990)" d="M2563.16 271.757 L2567.33 271.757 Q2571.24 277.903 2573.16 283.788 Q2575.12 289.674 2575.12 295.481 Q2575.12 301.314 2573.16 307.226 Q2571.24 313.137 2567.33 319.257 L2563.16 319.257 Q2566.63 313.294 2568.32 307.408 Q2570.04 301.497 2570.04 295.481 Q2570.04 289.466 2568.32 283.606 Q2566.63 277.747 2563.16 271.757 Z" fill="#000000" fill-rule="nonzero" fill-opacity="1" /><path clip-path="url(#clip990)" d="M2030.43 374.434 L2178.78 374.434 L2178.78 327.778 L2030.43 327.778 L2030.43 374.434  Z" fill="#000080" fill-rule="evenodd" fill-opacity="0.15"/>
<polyline clip-path="url(#clip990)" style="stroke:#000080; stroke-linecap:round; stroke-linejoin:round; stroke-width:4.5; stroke-opacity:0.15; fill:none" points="2030.43,327.778 2178.78,327.778 "/>
<path clip-path="url(#clip990)" d="M2204.26 366.119 L2212.85 366.119 L2212.85 336.457 L2203.5 338.332 L2203.5 333.541 L2212.8 331.666 L2218.06 331.666 L2218.06 366.119 L2226.65 366.119 L2226.65 370.546 L2204.26 370.546 L2204.26 366.119 Z" fill="#000000" fill-rule="nonzero" fill-opacity="1" /><path clip-path="url(#clip990)" d="M2248.53 335.129 Q2244.47 335.129 2242.41 339.14 Q2240.38 343.124 2240.38 351.145 Q2240.38 359.14 2242.41 363.15 Q2244.47 367.134 2248.53 367.134 Q2252.62 367.134 2254.65 363.15 Q2256.71 359.14 2256.71 351.145 Q2256.71 343.124 2254.65 339.14 Q2252.62 335.129 2248.53 335.129 M2248.53 330.963 Q2255.07 330.963 2258.5 336.145 Q2261.97 341.301 2261.97 351.145 Q2261.97 360.963 2258.5 366.145 Q2255.07 371.301 2248.53 371.301 Q2241.99 371.301 2238.53 366.145 Q2235.09 360.963 2235.09 351.145 Q2235.09 341.301 2238.53 336.145 Q2241.99 330.963 2248.53 330.963 Z" fill="#000000" fill-rule="nonzero" fill-opacity="1" /><path clip-path="url(#clip990)" d="M2268.11 353.801 L2282.15 353.801 L2282.15 358.072 L2268.11 358.072 L2268.11 353.801 Z" fill="#000000" fill-rule="nonzero" fill-opacity="1" /><path clip-path="url(#clip990)" d="M2290.61 369.739 L2290.61 364.947 Q2292.59 365.884 2294.62 366.379 Q2296.65 366.874 2298.61 366.874 Q2303.82 366.874 2306.55 363.384 Q2309.31 359.869 2309.7 352.733 Q2308.19 354.973 2305.87 356.171 Q2303.56 357.369 2300.74 357.369 Q2294.91 357.369 2291.5 353.853 Q2288.11 350.312 2288.11 344.192 Q2288.11 338.202 2291.65 334.582 Q2295.2 330.963 2301.08 330.963 Q2307.83 330.963 2311.37 336.145 Q2314.94 341.301 2314.94 351.145 Q2314.94 360.338 2310.56 365.832 Q2306.21 371.301 2298.84 371.301 Q2296.86 371.301 2294.83 370.91 Q2292.8 370.52 2290.61 369.739 M2301.08 353.254 Q2304.62 353.254 2306.68 350.832 Q2308.76 348.411 2308.76 344.192 Q2308.76 339.999 2306.68 337.577 Q2304.62 335.129 2301.08 335.129 Q2297.54 335.129 2295.46 337.577 Q2293.4 339.999 2293.4 344.192 Q2293.4 348.411 2295.46 350.832 Q2297.54 353.254 2301.08 353.254 Z" fill="#000000" fill-rule="nonzero" fill-opacity="1" /><path clip-path="url(#clip990)" d="M2335.64 335.129 Q2331.58 335.129 2329.52 339.14 Q2327.49 343.124 2327.49 351.145 Q2327.49 359.14 2329.52 363.15 Q2331.58 367.134 2335.64 367.134 Q2339.73 367.134 2341.76 363.15 Q2343.82 359.14 2343.82 351.145 Q2343.82 343.124 2341.76 339.14 Q2339.73 335.129 2335.64 335.129 M2335.64 330.963 Q2342.17 330.963 2345.61 336.145 Q2349.08 341.301 2349.08 351.145 Q2349.08 360.963 2345.61 366.145 Q2342.17 371.301 2335.64 371.301 Q2329.1 371.301 2325.64 366.145 Q2322.2 360.963 2322.2 351.145 Q2322.2 341.301 2325.64 336.145 Q2329.1 330.963 2335.64 330.963 Z" fill="#000000" fill-rule="nonzero" fill-opacity="1" /><path clip-path="url(#clip990)" d="M2362.38 333.098 L2362.38 341.379 L2372.25 341.379 L2372.25 345.103 L2362.38 345.103 L2362.38 360.937 Q2362.38 364.504 2363.35 365.52 Q2364.34 366.535 2367.33 366.535 L2372.25 366.535 L2372.25 370.546 L2367.33 370.546 Q2361.78 370.546 2359.67 368.489 Q2357.57 366.405 2357.57 360.937 L2357.57 345.103 L2354.05 345.103 L2354.05 341.379 L2357.57 341.379 L2357.57 333.098 L2362.38 333.098 Z" fill="#000000" fill-rule="nonzero" fill-opacity="1" /><path clip-path="url(#clip990)" d="M2402.8 352.942 L2402.8 370.546 L2398.01 370.546 L2398.01 353.098 Q2398.01 348.957 2396.39 346.9 Q2394.78 344.843 2391.55 344.843 Q2387.67 344.843 2385.43 347.317 Q2383.19 349.791 2383.19 354.062 L2383.19 370.546 L2378.37 370.546 L2378.37 330.025 L2383.19 330.025 L2383.19 345.911 Q2384.91 343.28 2387.23 341.978 Q2389.57 340.676 2392.62 340.676 Q2397.64 340.676 2400.22 343.801 Q2402.8 346.9 2402.8 352.942 Z" fill="#000000" fill-rule="nonzero" fill-opacity="1" /><path clip-path="url(#clip990)" d="M2433.95 366.171 L2433.95 381.64 L2429.13 381.64 L2429.13 341.379 L2433.95 341.379 L2433.95 345.806 Q2435.46 343.202 2437.75 341.952 Q2440.06 340.676 2443.27 340.676 Q2448.58 340.676 2451.89 344.895 Q2455.22 349.114 2455.22 355.989 Q2455.22 362.864 2451.89 367.082 Q2448.58 371.301 2443.27 371.301 Q2440.06 371.301 2437.75 370.051 Q2435.46 368.775 2433.95 366.171 M2450.25 355.989 Q2450.25 350.702 2448.06 347.707 Q2445.9 344.687 2442.1 344.687 Q2438.29 344.687 2436.11 347.707 Q2433.95 350.702 2433.95 355.989 Q2433.95 361.275 2436.11 364.296 Q2438.29 367.291 2442.1 367.291 Q2445.9 367.291 2448.06 364.296 Q2450.25 361.275 2450.25 355.989 Z" fill="#000000" fill-rule="nonzero" fill-opacity="1" /><path clip-path="url(#clip990)" d="M2484.15 342.499 L2484.15 346.978 Q2482.12 345.858 2480.06 345.312 Q2478.03 344.739 2475.95 344.739 Q2471.29 344.739 2468.71 347.707 Q2466.13 350.65 2466.13 355.989 Q2466.13 361.327 2468.71 364.296 Q2471.29 367.239 2475.95 367.239 Q2478.03 367.239 2480.06 366.692 Q2482.12 366.119 2484.15 364.999 L2484.15 369.426 Q2482.15 370.364 2479.99 370.832 Q2477.85 371.301 2475.43 371.301 Q2468.84 371.301 2464.96 367.16 Q2461.08 363.02 2461.08 355.989 Q2461.08 348.853 2464.99 344.765 Q2468.92 340.676 2475.74 340.676 Q2477.96 340.676 2480.06 341.145 Q2482.17 341.588 2484.15 342.499 Z" fill="#000000" fill-rule="nonzero" fill-opacity="1" /><path clip-path="url(#clip990)" d="M2497.23 333.098 L2497.23 341.379 L2507.1 341.379 L2507.1 345.103 L2497.23 345.103 L2497.23 360.937 Q2497.23 364.504 2498.19 365.52 Q2499.18 366.535 2502.17 366.535 L2507.1 366.535 L2507.1 370.546 L2502.17 370.546 Q2496.63 370.546 2494.52 368.489 Q2492.41 366.405 2492.41 360.937 L2492.41 345.103 L2488.89 345.103 L2488.89 341.379 L2492.41 341.379 L2492.41 333.098 L2497.23 333.098 Z" fill="#000000" fill-rule="nonzero" fill-opacity="1" /><path clip-path="url(#clip990)" d="M2513.4 330.025 L2518.19 330.025 L2518.19 370.546 L2513.4 370.546 L2513.4 330.025 Z" fill="#000000" fill-rule="nonzero" fill-opacity="1" /></svg>
