<?xml version="1.0" encoding="utf-8"?>
<svg xmlns="http://www.w3.org/2000/svg" xmlns:xlink="http://www.w3.org/1999/xlink" width="600" height="400" viewBox="0 0 2400 1600">
<defs>
  <clipPath id="clip840">
    <rect x="0" y="0" width="2400" height="1600"/>
  </clipPath>
</defs>
<path clip-path="url(#clip840)" d="M0 1600 L2400 1600 L2400 8.88178e-14 L0 8.88178e-14  Z" fill="#ffffff" fill-rule="evenodd" fill-opacity="1"/>
<defs>
  <clipPath id="clip841">
    <rect x="521" y="0" width="1488" height="1325"/>
  </clipPath>
</defs>
<path clip-path="url(#clip840)" d="M386.466 1241.31 L2274.02 1241.31 L2274.02 125.984 L386.466 125.984  Z" fill="#ffffff" fill-rule="evenodd" fill-opacity="1"/>
<defs>
  <clipPath id="clip842">
    <rect x="386" y="125" width="1889" height="1116"/>
  </clipPath>
</defs>
<polyline clip-path="url(#clip842)" style="stroke:#000000; stroke-linecap:round; stroke-linejoin:round; stroke-width:2; stroke-opacity:0.1; fill:none" points="441.825,1241.31 441.825,125.984 "/>
<polyline clip-path="url(#clip842)" style="stroke:#000000; stroke-linecap:round; stroke-linejoin:round; stroke-width:2; stroke-opacity:0.1; fill:none" points="845.651,1241.31 845.651,125.984 "/>
<polyline clip-path="url(#clip842)" style="stroke:#000000; stroke-linecap:round; stroke-linejoin:round; stroke-width:2; stroke-opacity:0.1; fill:none" points="1249.48,1241.31 1249.48,125.984 "/>
<polyline clip-path="url(#clip842)" style="stroke:#000000; stroke-linecap:round; stroke-linejoin:round; stroke-width:2; stroke-opacity:0.1; fill:none" points="1653.3,1241.31 1653.3,125.984 "/>
<polyline clip-path="url(#clip842)" style="stroke:#000000; stroke-linecap:round; stroke-linejoin:round; stroke-width:2; stroke-opacity:0.1; fill:none" points="2057.13,1241.31 2057.13,125.984 "/>
<polyline clip-path="url(#clip842)" style="stroke:#000000; stroke-linecap:round; stroke-linejoin:round; stroke-width:2; stroke-opacity:0.1; fill:none" points="386.466,1241.31 2274.02,1241.31 "/>
<polyline clip-path="url(#clip842)" style="stroke:#000000; stroke-linecap:round; stroke-linejoin:round; stroke-width:2; stroke-opacity:0.1; fill:none" points="386.466,949.728 2274.02,949.728 "/>
<polyline clip-path="url(#clip842)" style="stroke:#000000; stroke-linecap:round; stroke-linejoin:round; stroke-width:2; stroke-opacity:0.1; fill:none" points="386.466,658.145 2274.02,658.145 "/>
<polyline clip-path="url(#clip842)" style="stroke:#000000; stroke-linecap:round; stroke-linejoin:round; stroke-width:2; stroke-opacity:0.1; fill:none" points="386.466,366.562 2274.02,366.562 "/>
<polyline clip-path="url(#clip840)" style="stroke:#000000; stroke-linecap:round; stroke-linejoin:round; stroke-width:4; stroke-opacity:1; fill:none" points="386.466,1241.31 2274.02,1241.31 "/>
<polyline clip-path="url(#clip840)" style="stroke:#000000; stroke-linecap:round; stroke-linejoin:round; stroke-width:4; stroke-opacity:1; fill:none" points="441.825,1241.31 441.825,1222.41 "/>
<polyline clip-path="url(#clip840)" style="stroke:#000000; stroke-linecap:round; stroke-linejoin:round; stroke-width:4; stroke-opacity:1; fill:none" points="845.651,1241.31 845.651,1222.41 "/>
<polyline clip-path="url(#clip840)" style="stroke:#000000; stroke-linecap:round; stroke-linejoin:round; stroke-width:4; stroke-opacity:1; fill:none" points="1249.48,1241.31 1249.48,1222.41 "/>
<polyline clip-path="url(#clip840)" style="stroke:#000000; stroke-linecap:round; stroke-linejoin:round; stroke-width:4; stroke-opacity:1; fill:none" points="1653.3,1241.31 1653.3,1222.41 "/>
<polyline clip-path="url(#clip840)" style="stroke:#000000; stroke-linecap:round; stroke-linejoin:round; stroke-width:4; stroke-opacity:1; fill:none" points="2057.13,1241.31 2057.13,1222.41 "/>
<path clip-path="url(#clip840)" d="M441.825 1275.16 Q437.312 1275.16 435.026 1279.62 Q432.769 1284.04 432.769 1292.95 Q432.769 1301.84 435.026 1306.29 Q437.312 1310.72 441.825 1310.72 Q446.368 1310.72 448.625 1306.29 Q450.911 1301.84 450.911 1292.95 Q450.911 1284.04 448.625 1279.62 Q446.368 1275.16 441.825 1275.16 M441.825 1270.53 Q449.088 1270.53 452.908 1276.29 Q456.756 1282.02 456.756 1292.95 Q456.756 1303.86 452.908 1309.62 Q449.088 1315.35 441.825 1315.35 Q434.563 1315.35 430.714 1309.62 Q426.895 1303.86 426.895 1292.95 Q426.895 1282.02 430.714 1276.29 Q434.563 1270.53 441.825 1270.53 Z" fill="#000000" fill-rule="nonzero" fill-opacity="1" /><path clip-path="url(#clip840)" d="M833.498 1271.31 L856.443 1271.31 L856.443 1276.23 L838.851 1276.23 L838.851 1286.82 Q840.124 1286.39 841.397 1286.18 Q842.67 1285.95 843.943 1285.95 Q851.177 1285.95 855.402 1289.92 Q859.626 1293.88 859.626 1300.65 Q859.626 1307.62 855.286 1311.5 Q850.946 1315.35 843.046 1315.35 Q840.327 1315.35 837.491 1314.89 Q834.684 1314.42 831.675 1313.5 L831.675 1307.62 Q834.279 1309.04 837.057 1309.74 Q839.835 1310.43 842.931 1310.43 Q847.936 1310.43 850.859 1307.8 Q853.781 1305.17 853.781 1300.65 Q853.781 1296.14 850.859 1293.5 Q847.936 1290.87 842.931 1290.87 Q840.587 1290.87 838.243 1291.39 Q835.928 1291.91 833.498 1293.01 L833.498 1271.31 Z" fill="#000000" fill-rule="nonzero" fill-opacity="1" /><path clip-path="url(#clip840)" d="M1217.84 1309.59 L1227.38 1309.59 L1227.38 1276.64 L1217 1278.72 L1217 1273.39 L1227.33 1271.31 L1233.17 1271.31 L1233.17 1309.59 L1242.72 1309.59 L1242.72 1314.51 L1217.84 1314.51 L1217.84 1309.59 Z" fill="#000000" fill-rule="nonzero" fill-opacity="1" /><path clip-path="url(#clip840)" d="M1267.02 1275.16 Q1262.51 1275.16 1260.23 1279.62 Q1257.97 1284.04 1257.97 1292.95 Q1257.97 1301.84 1260.23 1306.29 Q1262.51 1310.72 1267.02 1310.72 Q1271.57 1310.72 1273.82 1306.29 Q1276.11 1301.84 1276.11 1292.95 Q1276.11 1284.04 1273.82 1279.62 Q1271.57 1275.16 1267.02 1275.16 M1267.02 1270.53 Q1274.29 1270.53 1278.11 1276.29 Q1281.96 1282.02 1281.96 1292.95 Q1281.96 1303.86 1278.11 1309.62 Q1274.29 1315.35 1267.02 1315.35 Q1259.76 1315.35 1255.91 1309.62 Q1252.09 1303.86 1252.09 1292.95 Q1252.09 1282.02 1255.91 1276.29 Q1259.76 1270.53 1267.02 1270.53 Z" fill="#000000" fill-rule="nonzero" fill-opacity="1" /><path clip-path="url(#clip840)" d="M1622.28 1309.59 L1631.83 1309.59 L1631.83 1276.64 L1621.44 1278.72 L1621.44 1273.39 L1631.77 1271.31 L1637.62 1271.31 L1637.62 1309.59 L1647.17 1309.59 L1647.17 1314.51 L1622.28 1314.51 L1622.28 1309.59 Z" fill="#000000" fill-rule="nonzero" fill-opacity="1" /><path clip-path="url(#clip840)" d="M1659.03 1271.31 L1681.98 1271.31 L1681.98 1276.23 L1664.38 1276.23 L1664.38 1286.82 Q1665.66 1286.39 1666.93 1286.18 Q1668.2 1285.95 1669.48 1285.95 Q1676.71 1285.95 1680.93 1289.92 Q1685.16 1293.88 1685.16 1300.65 Q1685.16 1307.62 1680.82 1311.5 Q1676.48 1315.35 1668.58 1315.35 Q1665.86 1315.35 1663.02 1314.89 Q1660.22 1314.42 1657.21 1313.5 L1657.21 1307.62 Q1659.81 1309.04 1662.59 1309.74 Q1665.37 1310.43 1668.46 1310.43 Q1673.47 1310.43 1676.39 1307.8 Q1679.31 1305.17 1679.31 1300.65 Q1679.31 1296.14 1676.39 1293.5 Q1673.47 1290.87 1668.46 1290.87 Q1666.12 1290.87 1663.78 1291.39 Q1661.46 1291.91 1659.03 1293.01 L1659.03 1271.31 Z" fill="#000000" fill-rule="nonzero" fill-opacity="1" /><path clip-path="url(#clip840)" d="M2030.59 1309.59 L2050.99 1309.59 L2050.99 1314.51 L2023.56 1314.51 L2023.56 1309.59 Q2026.89 1306.15 2032.62 1300.36 Q2038.38 1294.55 2039.85 1292.87 Q2042.66 1289.71 2043.76 1287.54 Q2044.89 1285.34 2044.89 1283.23 Q2044.89 1279.79 2042.46 1277.62 Q2040.05 1275.45 2036.18 1275.45 Q2033.43 1275.45 2030.36 1276.4 Q2027.32 1277.36 2023.85 1279.3 L2023.85 1273.39 Q2027.38 1271.98 2030.45 1271.25 Q2033.52 1270.53 2036.06 1270.53 Q2042.77 1270.53 2046.77 1273.89 Q2050.76 1277.24 2050.76 1282.86 Q2050.76 1285.52 2049.75 1287.92 Q2048.76 1290.29 2046.13 1293.53 Q2045.41 1294.37 2041.53 1298.39 Q2037.65 1302.39 2030.59 1309.59 Z" fill="#000000" fill-rule="nonzero" fill-opacity="1" /><path clip-path="url(#clip840)" d="M2075.76 1275.16 Q2071.25 1275.16 2068.96 1279.62 Q2066.7 1284.04 2066.7 1292.95 Q2066.7 1301.84 2068.96 1306.29 Q2071.25 1310.72 2075.76 1310.72 Q2080.3 1310.72 2082.56 1306.29 Q2084.85 1301.84 2084.85 1292.95 Q2084.85 1284.04 2082.56 1279.62 Q2080.3 1275.16 2075.76 1275.16 M2075.76 1270.53 Q2083.02 1270.53 2086.84 1276.29 Q2090.69 1282.02 2090.69 1292.95 Q2090.69 1303.86 2086.84 1309.62 Q2083.02 1315.35 2075.76 1315.35 Q2068.5 1315.35 2064.65 1309.62 Q2060.83 1303.86 2060.83 1292.95 Q2060.83 1282.02 2064.65 1276.29 Q2068.5 1270.53 2075.76 1270.53 Z" fill="#000000" fill-rule="nonzero" fill-opacity="1" /><path clip-path="url(#clip840)" d="M1278.44 1353.18 L1278.44 1359.45 Q1274.78 1357.69 1271.53 1356.84 Q1268.29 1355.98 1265.26 1355.98 Q1260.01 1355.98 1257.15 1358.01 Q1254.31 1360.05 1254.31 1363.81 Q1254.31 1366.96 1256.19 1368.58 Q1258.1 1370.17 1263.38 1371.16 L1267.27 1371.95 Q1274.46 1373.32 1277.87 1376.79 Q1281.3 1380.23 1281.3 1386.02 Q1281.3 1392.93 1276.66 1396.49 Q1272.04 1400.06 1263.1 1400.06 Q1259.72 1400.06 1255.91 1399.29 Q1252.12 1398.53 1248.04 1397.03 L1248.04 1390.41 Q1251.96 1392.61 1255.71 1393.72 Q1259.47 1394.84 1263.1 1394.84 Q1268.6 1394.84 1271.6 1392.67 Q1274.59 1390.51 1274.59 1386.5 Q1274.59 1383 1272.42 1381.03 Q1270.29 1379.05 1265.39 1378.07 L1261.48 1377.3 Q1254.28 1375.87 1251.07 1372.81 Q1247.85 1369.76 1247.85 1364.32 Q1247.85 1358.01 1252.28 1354.38 Q1256.73 1350.76 1264.53 1350.76 Q1267.87 1350.76 1271.34 1351.36 Q1274.81 1351.97 1278.44 1353.18 Z" fill="#000000" fill-rule="nonzero" fill-opacity="1" /><path clip-path="url(#clip840)" d="M1296.87 1353.37 L1296.87 1363.49 L1308.93 1363.49 L1308.93 1368.04 L1296.87 1368.04 L1296.87 1387.39 Q1296.87 1391.75 1298.05 1392.99 Q1299.26 1394.23 1302.92 1394.23 L1308.93 1394.23 L1308.93 1399.14 L1302.92 1399.14 Q1296.14 1399.14 1293.56 1396.62 Q1290.98 1394.07 1290.98 1387.39 L1290.98 1368.04 L1286.68 1368.04 L1286.68 1363.49 L1290.98 1363.49 L1290.98 1353.37 L1296.87 1353.37 Z" fill="#000000" fill-rule="nonzero" fill-opacity="1" /><path clip-path="url(#clip840)" d="M1332.83 1381.22 Q1325.74 1381.22 1323 1382.84 Q1320.26 1384.46 1320.26 1388.38 Q1320.26 1391.5 1322.3 1393.34 Q1324.37 1395.16 1327.9 1395.16 Q1332.77 1395.16 1335.7 1391.72 Q1338.66 1388.25 1338.66 1382.52 L1338.66 1381.22 L1332.83 1381.22 M1344.52 1378.8 L1344.52 1399.14 L1338.66 1399.14 L1338.66 1393.72 Q1336.65 1396.97 1333.66 1398.53 Q1330.67 1400.06 1326.34 1400.06 Q1320.87 1400.06 1317.62 1397 Q1314.41 1393.92 1314.41 1388.76 Q1314.41 1382.74 1318.42 1379.69 Q1322.46 1376.63 1330.45 1376.63 L1338.66 1376.63 L1338.66 1376.06 Q1338.66 1372.02 1335.99 1369.82 Q1333.34 1367.59 1328.54 1367.59 Q1325.48 1367.59 1322.59 1368.33 Q1319.69 1369.06 1317.02 1370.52 L1317.02 1365.11 Q1320.23 1363.87 1323.25 1363.26 Q1326.28 1362.63 1329.14 1362.63 Q1336.88 1362.63 1340.7 1366.64 Q1344.52 1370.65 1344.52 1378.8 Z" fill="#000000" fill-rule="nonzero" fill-opacity="1" /><path clip-path="url(#clip840)" d="M1362.37 1353.37 L1362.37 1363.49 L1374.43 1363.49 L1374.43 1368.04 L1362.37 1368.04 L1362.37 1387.39 Q1362.37 1391.75 1363.55 1392.99 Q1364.76 1394.23 1368.42 1394.23 L1374.43 1394.23 L1374.43 1399.14 L1368.42 1399.14 Q1361.64 1399.14 1359.06 1396.62 Q1356.48 1394.07 1356.48 1387.39 L1356.48 1368.04 L1352.19 1368.04 L1352.19 1363.49 L1356.48 1363.49 L1356.48 1353.37 L1362.37 1353.37 Z" fill="#000000" fill-rule="nonzero" fill-opacity="1" /><path clip-path="url(#clip840)" d="M1412.63 1379.85 L1412.63 1382.71 L1385.7 1382.71 Q1386.08 1388.76 1389.33 1391.94 Q1392.61 1395.09 1398.43 1395.09 Q1401.81 1395.09 1404.96 1394.27 Q1408.14 1393.44 1411.26 1391.78 L1411.26 1397.32 Q1408.11 1398.66 1404.8 1399.36 Q1401.49 1400.06 1398.08 1400.06 Q1389.55 1400.06 1384.56 1395.09 Q1379.59 1390.13 1379.59 1381.66 Q1379.59 1372.91 1384.3 1367.78 Q1389.04 1362.63 1397.06 1362.63 Q1404.26 1362.63 1408.43 1367.28 Q1412.63 1371.89 1412.63 1379.85 M1406.77 1378.13 Q1406.71 1373.32 1404.07 1370.46 Q1401.46 1367.59 1397.13 1367.59 Q1392.23 1367.59 1389.27 1370.36 Q1386.34 1373.13 1385.89 1378.16 L1406.77 1378.13 Z" fill="#000000" fill-rule="nonzero" fill-opacity="1" /><polyline clip-path="url(#clip840)" style="stroke:#000000; stroke-linecap:round; stroke-linejoin:round; stroke-width:4; stroke-opacity:1; fill:none" points="386.466,1241.31 386.466,125.984 "/>
<polyline clip-path="url(#clip840)" style="stroke:#000000; stroke-linecap:round; stroke-linejoin:round; stroke-width:4; stroke-opacity:1; fill:none" points="386.466,1241.31 405.364,1241.31 "/>
<polyline clip-path="url(#clip840)" style="stroke:#000000; stroke-linecap:round; stroke-linejoin:round; stroke-width:4; stroke-opacity:1; fill:none" points="386.466,949.728 405.364,949.728 "/>
<polyline clip-path="url(#clip840)" style="stroke:#000000; stroke-linecap:round; stroke-linejoin:round; stroke-width:4; stroke-opacity:1; fill:none" points="386.466,658.145 405.364,658.145 "/>
<polyline clip-path="url(#clip840)" style="stroke:#000000; stroke-linecap:round; stroke-linejoin:round; stroke-width:4; stroke-opacity:1; fill:none" points="386.466,366.562 405.364,366.562 "/>
<path clip-path="url(#clip840)" d="M335.535 1223.56 Q331.022 1223.56 328.736 1228.02 Q326.479 1232.44 326.479 1241.35 Q326.479 1250.24 328.736 1254.69 Q331.022 1259.12 335.535 1259.12 Q340.078 1259.12 342.335 1254.69 Q344.621 1250.24 344.621 1241.35 Q344.621 1232.44 342.335 1228.02 Q340.078 1223.56 335.535 1223.56 M335.535 1218.93 Q342.798 1218.93 346.618 1224.69 Q350.466 1230.42 350.466 1241.35 Q350.466 1252.26 346.618 1258.02 Q342.798 1263.75 335.535 1263.75 Q328.273 1263.75 324.424 1258.02 Q320.605 1252.26 320.605 1241.35 Q320.605 1230.42 324.424 1224.69 Q328.273 1218.93 335.535 1218.93 Z" fill="#000000" fill-rule="nonzero" fill-opacity="1" /><path clip-path="url(#clip840)" d="M330.067 966.409 L350.466 966.409 L350.466 971.328 L323.035 971.328 L323.035 966.409 Q326.363 962.966 332.092 957.179 Q337.85 951.363 339.326 949.685 Q342.133 946.531 343.232 944.361 Q344.361 942.162 344.361 940.05 Q344.361 936.606 341.93 934.436 Q339.528 932.266 335.651 932.266 Q332.902 932.266 329.835 933.221 Q326.797 934.176 323.325 936.115 L323.325 930.212 Q326.855 928.794 329.922 928.071 Q332.989 927.347 335.535 927.347 Q342.248 927.347 346.241 930.704 Q350.234 934.06 350.234 939.674 Q350.234 942.336 349.222 944.737 Q348.238 947.11 345.605 950.351 Q344.881 951.19 341.004 955.212 Q337.127 959.205 330.067 966.409 Z" fill="#000000" fill-rule="nonzero" fill-opacity="1" /><path clip-path="url(#clip840)" d="M338.487 641.638 L323.73 664.699 L338.487 664.699 L338.487 641.638 M336.953 636.545 L344.303 636.545 L344.303 664.699 L350.466 664.699 L350.466 669.56 L344.303 669.56 L344.303 679.745 L338.487 679.745 L338.487 669.56 L318.985 669.56 L318.985 663.918 L336.953 636.545 Z" fill="#000000" fill-rule="nonzero" fill-opacity="1" /><path clip-path="url(#clip840)" d="M336.056 364.233 Q332.121 364.233 329.806 366.924 Q327.52 369.615 327.52 374.302 Q327.52 378.961 329.806 381.681 Q332.121 384.372 336.056 384.372 Q339.991 384.372 342.277 381.681 Q344.592 378.961 344.592 374.302 Q344.592 369.615 342.277 366.924 Q339.991 364.233 336.056 364.233 M347.659 345.917 L347.659 351.241 Q345.46 350.2 343.203 349.65 Q340.975 349.1 338.776 349.1 Q332.989 349.1 329.922 353.006 Q326.884 356.913 326.45 364.812 Q328.157 362.294 330.732 360.963 Q333.307 359.603 336.403 359.603 Q342.914 359.603 346.675 363.568 Q350.466 367.503 350.466 374.302 Q350.466 380.958 346.531 384.98 Q342.596 389.001 336.056 389.001 Q328.562 389.001 324.598 383.272 Q320.634 377.514 320.634 366.606 Q320.634 356.363 325.495 350.286 Q330.356 344.181 338.545 344.181 Q340.744 344.181 342.972 344.615 Q345.229 345.049 347.659 345.917 Z" fill="#000000" fill-rule="nonzero" fill-opacity="1" /><path clip-path="url(#clip840)" d="M222.768 740.51 L229.038 740.51 Q227.288 744.17 226.428 747.416 Q225.569 750.663 225.569 753.687 Q225.569 758.938 227.606 761.803 Q229.643 764.636 233.399 764.636 Q236.55 764.636 238.173 762.758 Q239.765 760.848 240.751 755.564 L241.547 751.681 Q242.916 744.488 246.385 741.082 Q249.822 737.645 255.615 737.645 Q262.522 737.645 266.087 742.292 Q269.652 746.907 269.652 755.851 Q269.652 759.225 268.888 763.044 Q268.124 766.832 266.628 770.906 L260.008 770.906 Q262.204 766.991 263.318 763.235 Q264.432 759.479 264.432 755.851 Q264.432 750.345 262.267 747.353 Q260.103 744.361 256.093 744.361 Q252.592 744.361 250.618 746.525 Q248.645 748.658 247.658 753.559 L246.894 757.474 Q245.462 764.667 242.406 767.882 Q239.351 771.097 233.908 771.097 Q227.606 771.097 223.978 766.673 Q220.349 762.217 220.349 754.419 Q220.349 751.077 220.954 747.607 Q221.559 744.138 222.768 740.51 Z" fill="#000000" fill-rule="nonzero" fill-opacity="1" /><path clip-path="url(#clip840)" d="M222.959 722.081 L233.081 722.081 L233.081 710.018 L237.632 710.018 L237.632 722.081 L256.984 722.081 Q261.344 722.081 262.586 720.903 Q263.827 719.694 263.827 716.033 L263.827 710.018 L268.729 710.018 L268.729 716.033 Q268.729 722.813 266.214 725.391 Q263.668 727.969 256.984 727.969 L237.632 727.969 L237.632 732.266 L233.081 732.266 L233.081 727.969 L222.959 727.969 L222.959 722.081 Z" fill="#000000" fill-rule="nonzero" fill-opacity="1" /><path clip-path="url(#clip840)" d="M249.44 671.824 L252.305 671.824 L252.305 698.751 Q258.352 698.369 261.535 695.122 Q264.686 691.844 264.686 686.019 Q264.686 682.645 263.859 679.494 Q263.031 676.311 261.376 673.192 L266.914 673.192 Q268.251 676.343 268.951 679.653 Q269.652 682.964 269.652 686.369 Q269.652 694.899 264.686 699.896 Q259.721 704.862 251.255 704.862 Q242.502 704.862 237.377 700.151 Q232.221 695.409 232.221 687.388 Q232.221 680.194 236.868 676.025 Q241.483 671.824 249.44 671.824 M247.722 677.68 Q242.916 677.744 240.051 680.385 Q237.186 682.995 237.186 687.324 Q237.186 692.226 239.956 695.186 Q242.725 698.114 247.754 698.56 L247.722 677.68 Z" fill="#000000" fill-rule="nonzero" fill-opacity="1" /><path clip-path="url(#clip840)" d="M263.381 656.546 L282.288 656.546 L282.288 662.434 L233.081 662.434 L233.081 656.546 L238.491 656.546 Q235.309 654.7 233.781 651.899 Q232.221 649.066 232.221 645.151 Q232.221 638.658 237.377 634.616 Q242.534 630.542 250.936 630.542 Q259.339 630.542 264.495 634.616 Q269.652 638.658 269.652 645.151 Q269.652 649.066 268.124 651.899 Q266.564 654.7 263.381 656.546 M250.936 636.621 Q244.475 636.621 240.815 639.295 Q237.123 641.937 237.123 646.584 Q237.123 651.231 240.815 653.904 Q244.475 656.546 250.936 656.546 Q257.398 656.546 261.09 653.904 Q264.75 651.231 264.75 646.584 Q264.75 641.937 261.09 639.295 Q257.398 636.621 250.936 636.621 Z" fill="#000000" fill-rule="nonzero" fill-opacity="1" /><path clip-path="url(#clip840)" d="M234.131 598.109 L239.669 598.109 Q238.396 600.591 237.759 603.265 Q237.123 605.939 237.123 608.803 Q237.123 613.164 238.46 615.36 Q239.796 617.524 242.47 617.524 Q244.507 617.524 245.685 615.964 Q246.831 614.405 247.881 609.694 L248.326 607.689 Q249.663 601.451 252.114 598.841 Q254.533 596.199 258.894 596.199 Q263.859 596.199 266.755 600.146 Q269.652 604.061 269.652 610.936 Q269.652 613.8 269.079 616.919 Q268.538 620.007 267.424 623.444 L261.376 623.444 Q263.063 620.198 263.922 617.047 Q264.75 613.896 264.75 610.808 Q264.75 606.671 263.35 604.443 Q261.917 602.215 259.339 602.215 Q256.952 602.215 255.679 603.838 Q254.406 605.429 253.228 610.872 L252.751 612.909 Q251.605 618.352 249.25 620.771 Q246.862 623.19 242.725 623.19 Q237.696 623.19 234.958 619.625 Q232.221 616.06 232.221 609.503 Q232.221 606.257 232.699 603.392 Q233.176 600.528 234.131 598.109 Z" fill="#000000" fill-rule="nonzero" fill-opacity="1" /><path clip-path="url(#clip842)" d="M490.284 125.984 L490.284 1241.31 L554.897 1241.31 L554.897 125.984 L490.284 125.984 L490.284 125.984  Z" fill="#4682b4" fill-rule="evenodd" fill-opacity="0.7"/>
<polyline clip-path="url(#clip842)" style="stroke:#000000; stroke-linecap:round; stroke-linejoin:round; stroke-width:4; stroke-opacity:0.7; fill:none" points="490.284,125.984 490.284,1241.31 554.897,1241.31 554.897,125.984 490.284,125.984 "/>
<path clip-path="url(#clip842)" d="M571.05 1077.2 L571.05 1241.31 L635.662 1241.31 L635.662 1077.2 L571.05 1077.2 L571.05 1077.2  Z" fill="#4682b4" fill-rule="evenodd" fill-opacity="0.7"/>
<polyline clip-path="url(#clip842)" style="stroke:#000000; stroke-linecap:round; stroke-linejoin:round; stroke-width:4; stroke-opacity:0.7; fill:none" points="571.05,1077.2 571.05,1241.31 635.662,1241.31 635.662,1077.2 571.05,1077.2 "/>
<path clip-path="url(#clip842)" d="M651.815 1095.52 L651.815 1241.31 L716.427 1241.31 L716.427 1095.52 L651.815 1095.52 L651.815 1095.52  Z" fill="#4682b4" fill-rule="evenodd" fill-opacity="0.7"/>
<polyline clip-path="url(#clip842)" style="stroke:#000000; stroke-linecap:round; stroke-linejoin:round; stroke-width:4; stroke-opacity:0.7; fill:none" points="651.815,1095.52 651.815,1241.31 716.427,1241.31 716.427,1095.52 651.815,1095.52 "/>
<path clip-path="url(#clip842)" d="M732.58 1095.52 L732.58 1241.31 L797.192 1241.31 L797.192 1095.52 L732.58 1095.52 L732.58 1095.52  Z" fill="#4682b4" fill-rule="evenodd" fill-opacity="0.7"/>
<polyline clip-path="url(#clip842)" style="stroke:#000000; stroke-linecap:round; stroke-linejoin:round; stroke-width:4; stroke-opacity:0.7; fill:none" points="732.58,1095.52 732.58,1241.31 797.192,1241.31 797.192,1095.52 732.58,1095.52 "/>
<path clip-path="url(#clip842)" d="M813.345 1095.52 L813.345 1241.31 L877.957 1241.31 L877.957 1095.52 L813.345 1095.52 L813.345 1095.52  Z" fill="#4682b4" fill-rule="evenodd" fill-opacity="0.7"/>
<polyline clip-path="url(#clip842)" style="stroke:#000000; stroke-linecap:round; stroke-linejoin:round; stroke-width:4; stroke-opacity:0.7; fill:none" points="813.345,1095.52 813.345,1241.31 877.957,1241.31 877.957,1095.52 813.345,1095.52 "/>
<path clip-path="url(#clip842)" d="M894.11 1065.82 L894.11 1241.31 L958.722 1241.31 L958.722 1065.82 L894.11 1065.82 L894.11 1065.82  Z" fill="#4682b4" fill-rule="evenodd" fill-opacity="0.7"/>
<polyline clip-path="url(#clip842)" style="stroke:#000000; stroke-linecap:round; stroke-linejoin:round; stroke-width:4; stroke-opacity:0.7; fill:none" points="894.11,1065.82 894.11,1241.31 958.722,1241.31 958.722,1065.82 894.11,1065.82 "/>
<path clip-path="url(#clip842)" d="M974.875 1066.18 L974.875 1241.31 L1039.49 1241.31 L1039.49 1066.18 L974.875 1066.18 L974.875 1066.18  Z" fill="#4682b4" fill-rule="evenodd" fill-opacity="0.7"/>
<polyline clip-path="url(#clip842)" style="stroke:#000000; stroke-linecap:round; stroke-linejoin:round; stroke-width:4; stroke-opacity:0.7; fill:none" points="974.875,1066.18 974.875,1241.31 1039.49,1241.31 1039.49,1066.18 974.875,1066.18 "/>
<path clip-path="url(#clip842)" d="M1055.64 1072.65 L1055.64 1241.31 L1120.25 1241.31 L1120.25 1072.65 L1055.64 1072.65 L1055.64 1072.65  Z" fill="#4682b4" fill-rule="evenodd" fill-opacity="0.7"/>
<polyline clip-path="url(#clip842)" style="stroke:#000000; stroke-linecap:round; stroke-linejoin:round; stroke-width:4; stroke-opacity:0.7; fill:none" points="1055.64,1072.65 1055.64,1241.31 1120.25,1241.31 1120.25,1072.65 1055.64,1072.65 "/>
<path clip-path="url(#clip842)" d="M1136.4 1086.19 L1136.4 1241.31 L1201.02 1241.31 L1201.02 1086.19 L1136.4 1086.19 L1136.4 1086.19  Z" fill="#4682b4" fill-rule="evenodd" fill-opacity="0.7"/>
<polyline clip-path="url(#clip842)" style="stroke:#000000; stroke-linecap:round; stroke-linejoin:round; stroke-width:4; stroke-opacity:0.7; fill:none" points="1136.4,1086.19 1136.4,1241.31 1201.02,1241.31 1201.02,1086.19 1136.4,1086.19 "/>
<path clip-path="url(#clip842)" d="M1217.17 1080.85 L1217.17 1241.31 L1281.78 1241.31 L1281.78 1080.85 L1217.17 1080.85 L1217.17 1080.85  Z" fill="#4682b4" fill-rule="evenodd" fill-opacity="0.7"/>
<polyline clip-path="url(#clip842)" style="stroke:#000000; stroke-linecap:round; stroke-linejoin:round; stroke-width:4; stroke-opacity:0.7; fill:none" points="1217.17,1080.85 1217.17,1241.31 1281.78,1241.31 1281.78,1080.85 1217.17,1080.85 "/>
<path clip-path="url(#clip842)" d="M1297.93 1070.95 L1297.93 1241.31 L1362.55 1241.31 L1362.55 1070.95 L1297.93 1070.95 L1297.93 1070.95  Z" fill="#4682b4" fill-rule="evenodd" fill-opacity="0.7"/>
<polyline clip-path="url(#clip842)" style="stroke:#000000; stroke-linecap:round; stroke-linejoin:round; stroke-width:4; stroke-opacity:0.7; fill:none" points="1297.93,1070.95 1297.93,1241.31 1362.55,1241.31 1362.55,1070.95 1297.93,1070.95 "/>
<path clip-path="url(#clip842)" d="M1378.7 1077.57 L1378.7 1241.31 L1443.31 1241.31 L1443.31 1077.57 L1378.7 1077.57 L1378.7 1077.57  Z" fill="#4682b4" fill-rule="evenodd" fill-opacity="0.7"/>
<polyline clip-path="url(#clip842)" style="stroke:#000000; stroke-linecap:round; stroke-linejoin:round; stroke-width:4; stroke-opacity:0.7; fill:none" points="1378.7,1077.57 1378.7,1241.31 1443.31,1241.31 1443.31,1077.57 1378.7,1077.57 "/>
<path clip-path="url(#clip842)" d="M1459.46 1090.26 L1459.46 1241.31 L1524.08 1241.31 L1524.08 1090.26 L1459.46 1090.26 L1459.46 1090.26  Z" fill="#4682b4" fill-rule="evenodd" fill-opacity="0.7"/>
<polyline clip-path="url(#clip842)" style="stroke:#000000; stroke-linecap:round; stroke-linejoin:round; stroke-width:4; stroke-opacity:0.7; fill:none" points="1459.46,1090.26 1459.46,1241.31 1524.08,1241.31 1524.08,1090.26 1459.46,1090.26 "/>
<path clip-path="url(#clip842)" d="M1540.23 1093.57 L1540.23 1241.31 L1604.84 1241.31 L1604.84 1093.57 L1540.23 1093.57 L1540.23 1093.57  Z" fill="#4682b4" fill-rule="evenodd" fill-opacity="0.7"/>
<polyline clip-path="url(#clip842)" style="stroke:#000000; stroke-linecap:round; stroke-linejoin:round; stroke-width:4; stroke-opacity:0.7; fill:none" points="1540.23,1093.57 1540.23,1241.31 1604.84,1241.31 1604.84,1093.57 1540.23,1093.57 "/>
<path clip-path="url(#clip842)" d="M1620.99 1085.06 L1620.99 1241.31 L1685.61 1241.31 L1685.61 1085.06 L1620.99 1085.06 L1620.99 1085.06  Z" fill="#4682b4" fill-rule="evenodd" fill-opacity="0.7"/>
<polyline clip-path="url(#clip842)" style="stroke:#000000; stroke-linecap:round; stroke-linejoin:round; stroke-width:4; stroke-opacity:0.7; fill:none" points="1620.99,1085.06 1620.99,1241.31 1685.61,1241.31 1685.61,1085.06 1620.99,1085.06 "/>
<path clip-path="url(#clip842)" d="M1701.76 1085.73 L1701.76 1241.31 L1766.37 1241.31 L1766.37 1085.73 L1701.76 1085.73 L1701.76 1085.73  Z" fill="#4682b4" fill-rule="evenodd" fill-opacity="0.7"/>
<polyline clip-path="url(#clip842)" style="stroke:#000000; stroke-linecap:round; stroke-linejoin:round; stroke-width:4; stroke-opacity:0.7; fill:none" points="1701.76,1085.73 1701.76,1241.31 1766.37,1241.31 1766.37,1085.73 1701.76,1085.73 "/>
<path clip-path="url(#clip842)" d="M1782.52 1078.23 L1782.52 1241.31 L1847.14 1241.31 L1847.14 1078.23 L1782.52 1078.23 L1782.52 1078.23  Z" fill="#4682b4" fill-rule="evenodd" fill-opacity="0.7"/>
<polyline clip-path="url(#clip842)" style="stroke:#000000; stroke-linecap:round; stroke-linejoin:round; stroke-width:4; stroke-opacity:0.7; fill:none" points="1782.52,1078.23 1782.52,1241.31 1847.14,1241.31 1847.14,1078.23 1782.52,1078.23 "/>
<path clip-path="url(#clip842)" d="M1863.29 1083.33 L1863.29 1241.31 L1927.9 1241.31 L1927.9 1083.33 L1863.29 1083.33 L1863.29 1083.33  Z" fill="#4682b4" fill-rule="evenodd" fill-opacity="0.7"/>
<polyline clip-path="url(#clip842)" style="stroke:#000000; stroke-linecap:round; stroke-linejoin:round; stroke-width:4; stroke-opacity:0.7; fill:none" points="1863.29,1083.33 1863.29,1241.31 1927.9,1241.31 1927.9,1083.33 1863.29,1083.33 "/>
<path clip-path="url(#clip842)" d="M1944.06 1080.71 L1944.06 1241.31 L2008.67 1241.31 L2008.67 1080.71 L1944.06 1080.71 L1944.06 1080.71  Z" fill="#4682b4" fill-rule="evenodd" fill-opacity="0.7"/>
<polyline clip-path="url(#clip842)" style="stroke:#000000; stroke-linecap:round; stroke-linejoin:round; stroke-width:4; stroke-opacity:0.7; fill:none" points="1944.06,1080.71 1944.06,1241.31 2008.67,1241.31 2008.67,1080.71 1944.06,1080.71 "/>
<path clip-path="url(#clip842)" d="M2024.82 1095.52 L2024.82 1241.31 L2089.43 1241.31 L2089.43 1095.52 L2024.82 1095.52 L2024.82 1095.52  Z" fill="#4682b4" fill-rule="evenodd" fill-opacity="0.7"/>
<polyline clip-path="url(#clip842)" style="stroke:#000000; stroke-linecap:round; stroke-linejoin:round; stroke-width:4; stroke-opacity:0.7; fill:none" points="2024.82,1095.52 2024.82,1241.31 2089.43,1241.31 2089.43,1095.52 2024.82,1095.52 "/>
<path clip-path="url(#clip842)" d="M2105.59 601.911 L2105.59 1241.31 L2170.2 1241.31 L2170.2 601.911 L2105.59 601.911 L2105.59 601.911  Z" fill="#4682b4" fill-rule="evenodd" fill-opacity="0.7"/>
<polyline clip-path="url(#clip842)" style="stroke:#000000; stroke-linecap:round; stroke-linejoin:round; stroke-width:4; stroke-opacity:0.7; fill:none" points="2105.59,601.911 2105.59,1241.31 2170.2,1241.31 2170.2,601.911 2105.59,601.911 "/>
<circle clip-path="url(#clip842)" style="fill:#4682b4; stroke:none; fill-opacity:0" cx="522.59" cy="125.984" r="2"/>
<circle clip-path="url(#clip842)" style="fill:#4682b4; stroke:none; fill-opacity:0" cx="603.356" cy="1077.2" r="2"/>
<circle clip-path="url(#clip842)" style="fill:#4682b4; stroke:none; fill-opacity:0" cx="684.121" cy="1095.52" r="2"/>
<circle clip-path="url(#clip842)" style="fill:#4682b4; stroke:none; fill-opacity:0" cx="764.886" cy="1095.52" r="2"/>
<circle clip-path="url(#clip842)" style="fill:#4682b4; stroke:none; fill-opacity:0" cx="845.651" cy="1095.52" r="2"/>
<circle clip-path="url(#clip842)" style="fill:#4682b4; stroke:none; fill-opacity:0" cx="926.416" cy="1065.82" r="2"/>
<circle clip-path="url(#clip842)" style="fill:#4682b4; stroke:none; fill-opacity:0" cx="1007.18" cy="1066.18" r="2"/>
<circle clip-path="url(#clip842)" style="fill:#4682b4; stroke:none; fill-opacity:0" cx="1087.95" cy="1072.65" r="2"/>
<circle clip-path="url(#clip842)" style="fill:#4682b4; stroke:none; fill-opacity:0" cx="1168.71" cy="1086.19" r="2"/>
<circle clip-path="url(#clip842)" style="fill:#4682b4; stroke:none; fill-opacity:0" cx="1249.48" cy="1080.85" r="2"/>
<circle clip-path="url(#clip842)" style="fill:#4682b4; stroke:none; fill-opacity:0" cx="1330.24" cy="1070.95" r="2"/>
<circle clip-path="url(#clip842)" style="fill:#4682b4; stroke:none; fill-opacity:0" cx="1411.01" cy="1077.57" r="2"/>
<circle clip-path="url(#clip842)" style="fill:#4682b4; stroke:none; fill-opacity:0" cx="1491.77" cy="1090.26" r="2"/>
<circle clip-path="url(#clip842)" style="fill:#4682b4; stroke:none; fill-opacity:0" cx="1572.54" cy="1093.57" r="2"/>
<circle clip-path="url(#clip842)" style="fill:#4682b4; stroke:none; fill-opacity:0" cx="1653.3" cy="1085.06" r="2"/>
<circle clip-path="url(#clip842)" style="fill:#4682b4; stroke:none; fill-opacity:0" cx="1734.07" cy="1085.73" r="2"/>
<circle clip-path="url(#clip842)" style="fill:#4682b4; stroke:none; fill-opacity:0" cx="1814.83" cy="1078.23" r="2"/>
<circle clip-path="url(#clip842)" style="fill:#4682b4; stroke:none; fill-opacity:0" cx="1895.6" cy="1083.33" r="2"/>
<circle clip-path="url(#clip842)" style="fill:#4682b4; stroke:none; fill-opacity:0" cx="1976.36" cy="1080.71" r="2"/>
<circle clip-path="url(#clip842)" style="fill:#4682b4; stroke:none; fill-opacity:0" cx="2057.13" cy="1095.52" r="2"/>
<circle clip-path="url(#clip842)" style="fill:#4682b4; stroke:none; fill-opacity:0" cx="2137.89" cy="601.911" r="2"/>
</svg>
