<?xml version="1.0" encoding="utf-8"?>
<svg xmlns="http://www.w3.org/2000/svg" xmlns:xlink="http://www.w3.org/1999/xlink" width="600" height="400" viewBox="0 0 2400 1600">
<defs>
  <clipPath id="clip850">
    <rect x="0" y="0" width="2400" height="1600"/>
  </clipPath>
</defs>
<path clip-path="url(#clip850)" d="M0 1600 L2400 1600 L2400 8.88178e-14 L0 8.88178e-14  Z" fill="#ffffff" fill-rule="evenodd" fill-opacity="1"/>
<defs>
  <clipPath id="clip851">
    <rect x="175" y="106" width="2178" height="1318"/>
  </clipPath>
</defs>
<path clip-path="url(#clip850)" d="M249.542 1423.18 L2352.76 1423.18 L2352.76 106.192 L249.542 106.192  Z" fill="#ffffff" fill-rule="evenodd" fill-opacity="1"/>
<defs>
  <clipPath id="clip852">
    <rect x="249" y="106" width="2104" height="1318"/>
  </clipPath>
</defs>
<polyline clip-path="url(#clip852)" style="stroke:#000000; stroke-linecap:round; stroke-linejoin:round; stroke-width:2; stroke-opacity:0.1; fill:none" points="311.227,1423.18 311.227,106.192 "/>
<polyline clip-path="url(#clip852)" style="stroke:#000000; stroke-linecap:round; stroke-linejoin:round; stroke-width:2; stroke-opacity:0.1; fill:none" points="761.191,1423.18 761.191,106.192 "/>
<polyline clip-path="url(#clip852)" style="stroke:#000000; stroke-linecap:round; stroke-linejoin:round; stroke-width:2; stroke-opacity:0.1; fill:none" points="1211.16,1423.18 1211.16,106.192 "/>
<polyline clip-path="url(#clip852)" style="stroke:#000000; stroke-linecap:round; stroke-linejoin:round; stroke-width:2; stroke-opacity:0.1; fill:none" points="1661.12,1423.18 1661.12,106.192 "/>
<polyline clip-path="url(#clip852)" style="stroke:#000000; stroke-linecap:round; stroke-linejoin:round; stroke-width:2; stroke-opacity:0.1; fill:none" points="2111.09,1423.18 2111.09,106.192 "/>
<polyline clip-path="url(#clip852)" style="stroke:#000000; stroke-linecap:round; stroke-linejoin:round; stroke-width:2; stroke-opacity:0.1; fill:none" points="249.542,1423.18 2352.76,1423.18 "/>
<polyline clip-path="url(#clip852)" style="stroke:#000000; stroke-linecap:round; stroke-linejoin:round; stroke-width:2; stroke-opacity:0.1; fill:none" points="249.542,1157.19 2352.76,1157.19 "/>
<polyline clip-path="url(#clip852)" style="stroke:#000000; stroke-linecap:round; stroke-linejoin:round; stroke-width:2; stroke-opacity:0.1; fill:none" points="249.542,891.2 2352.76,891.2 "/>
<polyline clip-path="url(#clip852)" style="stroke:#000000; stroke-linecap:round; stroke-linejoin:round; stroke-width:2; stroke-opacity:0.1; fill:none" points="249.542,625.21 2352.76,625.21 "/>
<polyline clip-path="url(#clip852)" style="stroke:#000000; stroke-linecap:round; stroke-linejoin:round; stroke-width:2; stroke-opacity:0.1; fill:none" points="249.542,359.22 2352.76,359.22 "/>
<polyline clip-path="url(#clip850)" style="stroke:#000000; stroke-linecap:round; stroke-linejoin:round; stroke-width:4; stroke-opacity:1; fill:none" points="249.542,1423.18 2352.76,1423.18 "/>
<polyline clip-path="url(#clip850)" style="stroke:#000000; stroke-linecap:round; stroke-linejoin:round; stroke-width:4; stroke-opacity:1; fill:none" points="311.227,1423.18 311.227,1404.28 "/>
<polyline clip-path="url(#clip850)" style="stroke:#000000; stroke-linecap:round; stroke-linejoin:round; stroke-width:4; stroke-opacity:1; fill:none" points="761.191,1423.18 761.191,1404.28 "/>
<polyline clip-path="url(#clip850)" style="stroke:#000000; stroke-linecap:round; stroke-linejoin:round; stroke-width:4; stroke-opacity:1; fill:none" points="1211.16,1423.18 1211.16,1404.28 "/>
<polyline clip-path="url(#clip850)" style="stroke:#000000; stroke-linecap:round; stroke-linejoin:round; stroke-width:4; stroke-opacity:1; fill:none" points="1661.12,1423.18 1661.12,1404.28 "/>
<polyline clip-path="url(#clip850)" style="stroke:#000000; stroke-linecap:round; stroke-linejoin:round; stroke-width:4; stroke-opacity:1; fill:none" points="2111.09,1423.18 2111.09,1404.28 "/>
<path clip-path="url(#clip850)" d="M311.227 1454.1 Q307.616 1454.1 305.787 1457.66 Q303.981 1461.2 303.981 1468.33 Q303.981 1475.44 305.787 1479.01 Q307.616 1482.55 311.227 1482.55 Q314.861 1482.55 316.667 1479.01 Q318.495 1475.44 318.495 1468.33 Q318.495 1461.2 316.667 1457.66 Q314.861 1454.1 311.227 1454.1 M311.227 1450.39 Q317.037 1450.39 320.092 1455 Q323.171 1459.58 323.171 1468.33 Q323.171 1477.06 320.092 1481.67 Q317.037 1486.25 311.227 1486.25 Q305.417 1486.25 302.338 1481.67 Q299.282 1477.06 299.282 1468.33 Q299.282 1459.58 302.338 1455 Q305.417 1450.39 311.227 1450.39 Z" fill="#000000" fill-rule="nonzero" fill-opacity="1" /><path clip-path="url(#clip850)" d="M751.469 1451.02 L769.826 1451.02 L769.826 1454.96 L755.752 1454.96 L755.752 1463.43 Q756.77 1463.08 757.789 1462.92 Q758.807 1462.73 759.826 1462.73 Q765.613 1462.73 768.992 1465.9 Q772.372 1469.08 772.372 1474.49 Q772.372 1480.07 768.9 1483.17 Q765.428 1486.25 759.108 1486.25 Q756.932 1486.25 754.664 1485.88 Q752.418 1485.51 750.011 1484.77 L750.011 1480.07 Q752.094 1481.2 754.316 1481.76 Q756.539 1482.32 759.015 1482.32 Q763.02 1482.32 765.358 1480.21 Q767.696 1478.1 767.696 1474.49 Q767.696 1470.88 765.358 1468.77 Q763.02 1466.67 759.015 1466.67 Q757.141 1466.67 755.266 1467.08 Q753.414 1467.5 751.469 1468.38 L751.469 1451.02 Z" fill="#000000" fill-rule="nonzero" fill-opacity="1" /><path clip-path="url(#clip850)" d="M1185.84 1481.64 L1193.48 1481.64 L1193.48 1455.28 L1185.17 1456.95 L1185.17 1452.69 L1193.44 1451.02 L1198.11 1451.02 L1198.11 1481.64 L1205.75 1481.64 L1205.75 1485.58 L1185.84 1485.58 L1185.84 1481.64 Z" fill="#000000" fill-rule="nonzero" fill-opacity="1" /><path clip-path="url(#clip850)" d="M1225.2 1454.1 Q1221.58 1454.1 1219.76 1457.66 Q1217.95 1461.2 1217.95 1468.33 Q1217.95 1475.44 1219.76 1479.01 Q1221.58 1482.55 1225.2 1482.55 Q1228.83 1482.55 1230.64 1479.01 Q1232.46 1475.44 1232.46 1468.33 Q1232.46 1461.2 1230.64 1457.66 Q1228.83 1454.1 1225.2 1454.1 M1225.2 1450.39 Q1231.01 1450.39 1234.06 1455 Q1237.14 1459.58 1237.14 1468.33 Q1237.14 1477.06 1234.06 1481.67 Q1231.01 1486.25 1225.2 1486.25 Q1219.39 1486.25 1216.31 1481.67 Q1213.25 1477.06 1213.25 1468.33 Q1213.25 1459.58 1216.31 1455 Q1219.39 1450.39 1225.2 1450.39 Z" fill="#000000" fill-rule="nonzero" fill-opacity="1" /><path clip-path="url(#clip850)" d="M1636.31 1481.64 L1643.94 1481.64 L1643.94 1455.28 L1635.63 1456.95 L1635.63 1452.69 L1643.9 1451.02 L1648.57 1451.02 L1648.57 1481.64 L1656.21 1481.64 L1656.21 1485.58 L1636.31 1485.58 L1636.31 1481.64 Z" fill="#000000" fill-rule="nonzero" fill-opacity="1" /><path clip-path="url(#clip850)" d="M1665.7 1451.02 L1684.06 1451.02 L1684.06 1454.96 L1669.99 1454.96 L1669.99 1463.43 Q1671 1463.08 1672.02 1462.92 Q1673.04 1462.73 1674.06 1462.73 Q1679.85 1462.73 1683.23 1465.9 Q1686.61 1469.08 1686.61 1474.49 Q1686.61 1480.07 1683.13 1483.17 Q1679.66 1486.25 1673.34 1486.25 Q1671.17 1486.25 1668.9 1485.88 Q1666.65 1485.51 1664.25 1484.77 L1664.25 1480.07 Q1666.33 1481.2 1668.55 1481.76 Q1670.77 1482.32 1673.25 1482.32 Q1677.25 1482.32 1679.59 1480.21 Q1681.93 1478.1 1681.93 1474.49 Q1681.93 1470.88 1679.59 1468.77 Q1677.25 1466.67 1673.25 1466.67 Q1671.38 1466.67 1669.5 1467.08 Q1667.65 1467.5 1665.7 1468.38 L1665.7 1451.02 Z" fill="#000000" fill-rule="nonzero" fill-opacity="1" /><path clip-path="url(#clip850)" d="M2089.86 1481.64 L2106.18 1481.64 L2106.18 1485.58 L2084.23 1485.58 L2084.23 1481.64 Q2086.9 1478.89 2091.48 1474.26 Q2096.09 1469.61 2097.27 1468.27 Q2099.51 1465.74 2100.39 1464.01 Q2101.29 1462.25 2101.29 1460.56 Q2101.29 1457.8 2099.35 1456.07 Q2097.43 1454.33 2094.33 1454.33 Q2092.13 1454.33 2089.67 1455.09 Q2087.24 1455.86 2084.47 1457.41 L2084.47 1452.69 Q2087.29 1451.55 2089.74 1450.97 Q2092.2 1450.39 2094.23 1450.39 Q2099.6 1450.39 2102.8 1453.08 Q2105.99 1455.77 2105.99 1460.26 Q2105.99 1462.39 2105.18 1464.31 Q2104.4 1466.2 2102.29 1468.8 Q2101.71 1469.47 2098.61 1472.69 Q2095.51 1475.88 2089.86 1481.64 Z" fill="#000000" fill-rule="nonzero" fill-opacity="1" /><path clip-path="url(#clip850)" d="M2125.99 1454.1 Q2122.38 1454.1 2120.55 1457.66 Q2118.75 1461.2 2118.75 1468.33 Q2118.75 1475.44 2120.55 1479.01 Q2122.38 1482.55 2125.99 1482.55 Q2129.63 1482.55 2131.43 1479.01 Q2133.26 1475.44 2133.26 1468.33 Q2133.26 1461.2 2131.43 1457.66 Q2129.63 1454.1 2125.99 1454.1 M2125.99 1450.39 Q2131.8 1450.39 2134.86 1455 Q2137.94 1459.58 2137.94 1468.33 Q2137.94 1477.06 2134.86 1481.67 Q2131.8 1486.25 2125.99 1486.25 Q2120.18 1486.25 2117.1 1481.67 Q2114.05 1477.06 2114.05 1468.33 Q2114.05 1459.58 2117.1 1455 Q2120.18 1450.39 2125.99 1450.39 Z" fill="#000000" fill-rule="nonzero" fill-opacity="1" /><path clip-path="url(#clip850)" d="M1249.35 1522.08 L1249.35 1528.35 Q1245.69 1526.6 1242.44 1525.74 Q1239.19 1524.88 1236.17 1524.88 Q1230.92 1524.88 1228.05 1526.92 Q1225.22 1528.96 1225.22 1532.71 Q1225.22 1535.87 1227.1 1537.49 Q1229.01 1539.08 1234.29 1540.07 L1238.18 1540.86 Q1245.37 1542.23 1248.78 1545.7 Q1252.21 1549.14 1252.21 1554.93 Q1252.21 1561.84 1247.57 1565.4 Q1242.95 1568.97 1234.01 1568.97 Q1230.63 1568.97 1226.81 1568.2 Q1223.03 1567.44 1218.95 1565.94 L1218.95 1559.32 Q1222.87 1561.52 1226.62 1562.63 Q1230.38 1563.75 1234.01 1563.75 Q1239.51 1563.75 1242.5 1561.58 Q1245.5 1559.42 1245.5 1555.41 Q1245.5 1551.91 1243.33 1549.93 Q1241.2 1547.96 1236.3 1546.97 L1232.38 1546.21 Q1225.19 1544.78 1221.98 1541.72 Q1218.76 1538.67 1218.76 1533.22 Q1218.76 1526.92 1223.18 1523.29 Q1227.64 1519.66 1235.44 1519.66 Q1238.78 1519.66 1242.25 1520.27 Q1245.72 1520.87 1249.35 1522.08 Z" fill="#000000" fill-rule="nonzero" fill-opacity="1" /><path clip-path="url(#clip850)" d="M1267.78 1522.27 L1267.78 1532.4 L1279.84 1532.4 L1279.84 1536.95 L1267.78 1536.95 L1267.78 1556.3 Q1267.78 1560.66 1268.95 1561.9 Q1270.16 1563.14 1273.82 1563.14 L1279.84 1563.14 L1279.84 1568.04 L1273.82 1568.04 Q1267.04 1568.04 1264.47 1565.53 Q1261.89 1562.98 1261.89 1556.3 L1261.89 1536.95 L1257.59 1536.95 L1257.59 1532.4 L1261.89 1532.4 L1261.89 1522.27 L1267.78 1522.27 Z" fill="#000000" fill-rule="nonzero" fill-opacity="1" /><path clip-path="url(#clip850)" d="M1303.74 1550.12 Q1296.65 1550.12 1293.91 1551.75 Q1291.17 1553.37 1291.17 1557.29 Q1291.17 1560.4 1293.21 1562.25 Q1295.28 1564.07 1298.81 1564.07 Q1303.68 1564.07 1306.61 1560.63 Q1309.57 1557.16 1309.57 1551.43 L1309.57 1550.12 L1303.74 1550.12 M1315.42 1547.71 L1315.42 1568.04 L1309.57 1568.04 L1309.57 1562.63 Q1307.56 1565.88 1304.57 1567.44 Q1301.58 1568.97 1297.25 1568.97 Q1291.78 1568.97 1288.53 1565.91 Q1285.31 1562.82 1285.31 1557.67 Q1285.31 1551.65 1289.32 1548.6 Q1293.37 1545.54 1301.36 1545.54 L1309.57 1545.54 L1309.57 1544.97 Q1309.57 1540.93 1306.89 1538.73 Q1304.25 1536.5 1299.45 1536.5 Q1296.39 1536.5 1293.49 1537.23 Q1290.6 1537.97 1287.92 1539.43 L1287.92 1534.02 Q1291.14 1532.78 1294.16 1532.17 Q1297.19 1531.54 1300.05 1531.54 Q1307.79 1531.54 1311.6 1535.55 Q1315.42 1539.56 1315.42 1547.71 Z" fill="#000000" fill-rule="nonzero" fill-opacity="1" /><path clip-path="url(#clip850)" d="M1333.28 1522.27 L1333.28 1532.4 L1345.34 1532.4 L1345.34 1536.95 L1333.28 1536.95 L1333.28 1556.3 Q1333.28 1560.66 1334.46 1561.9 Q1335.67 1563.14 1339.33 1563.14 L1345.34 1563.14 L1345.34 1568.04 L1339.33 1568.04 Q1332.55 1568.04 1329.97 1565.53 Q1327.39 1562.98 1327.39 1556.3 L1327.39 1536.95 L1323.09 1536.95 L1323.09 1532.4 L1327.39 1532.4 L1327.39 1522.27 L1333.28 1522.27 Z" fill="#000000" fill-rule="nonzero" fill-opacity="1" /><path clip-path="url(#clip850)" d="M1383.54 1548.76 L1383.54 1551.62 L1356.61 1551.62 Q1356.99 1557.67 1360.24 1560.85 Q1363.52 1564 1369.34 1564 Q1372.72 1564 1375.87 1563.17 Q1379.05 1562.35 1382.17 1560.69 L1382.17 1566.23 Q1379.02 1567.57 1375.71 1568.27 Q1372.4 1568.97 1368.99 1568.97 Q1360.46 1568.97 1355.46 1564 Q1350.5 1559.04 1350.5 1550.57 Q1350.5 1541.82 1355.21 1536.69 Q1359.95 1531.54 1367.97 1531.54 Q1375.17 1531.54 1379.34 1536.18 Q1383.54 1540.8 1383.54 1548.76 M1377.68 1547.04 Q1377.62 1542.23 1374.98 1539.37 Q1372.37 1536.5 1368.04 1536.5 Q1363.14 1536.5 1360.17 1539.27 Q1357.25 1542.04 1356.8 1547.07 L1377.68 1547.04 Z" fill="#000000" fill-rule="nonzero" fill-opacity="1" /><polyline clip-path="url(#clip850)" style="stroke:#000000; stroke-linecap:round; stroke-linejoin:round; stroke-width:4; stroke-opacity:1; fill:none" points="249.542,1423.18 249.542,106.192 "/>
<polyline clip-path="url(#clip850)" style="stroke:#000000; stroke-linecap:round; stroke-linejoin:round; stroke-width:4; stroke-opacity:1; fill:none" points="249.542,1423.18 268.44,1423.18 "/>
<polyline clip-path="url(#clip850)" style="stroke:#000000; stroke-linecap:round; stroke-linejoin:round; stroke-width:4; stroke-opacity:1; fill:none" points="249.542,1157.19 268.44,1157.19 "/>
<polyline clip-path="url(#clip850)" style="stroke:#000000; stroke-linecap:round; stroke-linejoin:round; stroke-width:4; stroke-opacity:1; fill:none" points="249.542,891.2 268.44,891.2 "/>
<polyline clip-path="url(#clip850)" style="stroke:#000000; stroke-linecap:round; stroke-linejoin:round; stroke-width:4; stroke-opacity:1; fill:none" points="249.542,625.21 268.44,625.21 "/>
<polyline clip-path="url(#clip850)" style="stroke:#000000; stroke-linecap:round; stroke-linejoin:round; stroke-width:4; stroke-opacity:1; fill:none" points="249.542,359.22 268.44,359.22 "/>
<path clip-path="url(#clip850)" d="M126.205 1408.98 Q122.593 1408.98 120.765 1412.54 Q118.959 1416.08 118.959 1423.21 Q118.959 1430.32 120.765 1433.89 Q122.593 1437.43 126.205 1437.43 Q129.839 1437.43 131.644 1433.89 Q133.473 1430.32 133.473 1423.21 Q133.473 1416.08 131.644 1412.54 Q129.839 1408.98 126.205 1408.98 M126.205 1405.27 Q132.015 1405.27 135.07 1409.88 Q138.149 1414.46 138.149 1423.21 Q138.149 1431.94 135.07 1436.55 Q132.015 1441.13 126.205 1441.13 Q120.394 1441.13 117.316 1436.55 Q114.26 1431.94 114.26 1423.21 Q114.26 1414.46 117.316 1409.88 Q120.394 1405.27 126.205 1405.27 Z" fill="#000000" fill-rule="nonzero" fill-opacity="1" /><path clip-path="url(#clip850)" d="M146.366 1434.58 L151.251 1434.58 L151.251 1440.46 L146.366 1440.46 L146.366 1434.58 Z" fill="#000000" fill-rule="nonzero" fill-opacity="1" /><path clip-path="url(#clip850)" d="M171.436 1408.98 Q167.825 1408.98 165.996 1412.54 Q164.19 1416.08 164.19 1423.21 Q164.19 1430.32 165.996 1433.89 Q167.825 1437.43 171.436 1437.43 Q175.07 1437.43 176.876 1433.89 Q178.704 1430.32 178.704 1423.21 Q178.704 1416.08 176.876 1412.54 Q175.07 1408.98 171.436 1408.98 M171.436 1405.27 Q177.246 1405.27 180.301 1409.88 Q183.38 1414.46 183.38 1423.21 Q183.38 1431.94 180.301 1436.55 Q177.246 1441.13 171.436 1441.13 Q165.626 1441.13 162.547 1436.55 Q159.491 1431.94 159.491 1423.21 Q159.491 1414.46 162.547 1409.88 Q165.626 1405.27 171.436 1405.27 Z" fill="#000000" fill-rule="nonzero" fill-opacity="1" /><path clip-path="url(#clip850)" d="M201.598 1408.98 Q197.987 1408.98 196.158 1412.54 Q194.352 1416.08 194.352 1423.21 Q194.352 1430.32 196.158 1433.89 Q197.987 1437.43 201.598 1437.43 Q205.232 1437.43 207.037 1433.89 Q208.866 1430.32 208.866 1423.21 Q208.866 1416.08 207.037 1412.54 Q205.232 1408.98 201.598 1408.98 M201.598 1405.27 Q207.408 1405.27 210.463 1409.88 Q213.542 1414.46 213.542 1423.21 Q213.542 1431.94 210.463 1436.55 Q207.408 1441.13 201.598 1441.13 Q195.787 1441.13 192.709 1436.55 Q189.653 1431.94 189.653 1423.21 Q189.653 1414.46 192.709 1409.88 Q195.787 1405.27 201.598 1405.27 Z" fill="#000000" fill-rule="nonzero" fill-opacity="1" /><path clip-path="url(#clip850)" d="M127.2 1142.99 Q123.589 1142.99 121.76 1146.55 Q119.955 1150.1 119.955 1157.22 Q119.955 1164.33 121.76 1167.9 Q123.589 1171.44 127.2 1171.44 Q130.834 1171.44 132.64 1167.9 Q134.468 1164.33 134.468 1157.22 Q134.468 1150.1 132.64 1146.55 Q130.834 1142.99 127.2 1142.99 M127.2 1139.28 Q133.01 1139.28 136.066 1143.89 Q139.144 1148.47 139.144 1157.22 Q139.144 1165.95 136.066 1170.56 Q133.01 1175.14 127.2 1175.14 Q121.39 1175.14 118.311 1170.56 Q115.256 1165.95 115.256 1157.22 Q115.256 1148.47 118.311 1143.89 Q121.39 1139.28 127.2 1139.28 Z" fill="#000000" fill-rule="nonzero" fill-opacity="1" /><path clip-path="url(#clip850)" d="M147.362 1168.59 L152.246 1168.59 L152.246 1174.47 L147.362 1174.47 L147.362 1168.59 Z" fill="#000000" fill-rule="nonzero" fill-opacity="1" /><path clip-path="url(#clip850)" d="M172.431 1142.99 Q168.82 1142.99 166.991 1146.55 Q165.186 1150.1 165.186 1157.22 Q165.186 1164.33 166.991 1167.9 Q168.82 1171.44 172.431 1171.44 Q176.065 1171.44 177.871 1167.9 Q179.7 1164.33 179.7 1157.22 Q179.7 1150.1 177.871 1146.55 Q176.065 1142.99 172.431 1142.99 M172.431 1139.28 Q178.241 1139.28 181.297 1143.89 Q184.376 1148.47 184.376 1157.22 Q184.376 1165.95 181.297 1170.56 Q178.241 1175.14 172.431 1175.14 Q166.621 1175.14 163.542 1170.56 Q160.487 1165.95 160.487 1157.22 Q160.487 1148.47 163.542 1143.89 Q166.621 1139.28 172.431 1139.28 Z" fill="#000000" fill-rule="nonzero" fill-opacity="1" /><path clip-path="url(#clip850)" d="M192.639 1139.91 L210.996 1139.91 L210.996 1143.85 L196.922 1143.85 L196.922 1152.32 Q197.94 1151.97 198.959 1151.81 Q199.977 1151.62 200.996 1151.62 Q206.783 1151.62 210.162 1154.79 Q213.542 1157.97 213.542 1163.38 Q213.542 1168.96 210.07 1172.06 Q206.598 1175.14 200.278 1175.14 Q198.102 1175.14 195.834 1174.77 Q193.588 1174.4 191.181 1173.66 L191.181 1168.96 Q193.264 1170.09 195.487 1170.65 Q197.709 1171.21 200.186 1171.21 Q204.19 1171.21 206.528 1169.1 Q208.866 1166.99 208.866 1163.38 Q208.866 1159.77 206.528 1157.66 Q204.19 1155.56 200.186 1155.56 Q198.311 1155.56 196.436 1155.97 Q194.584 1156.39 192.639 1157.27 L192.639 1139.91 Z" fill="#000000" fill-rule="nonzero" fill-opacity="1" /><path clip-path="url(#clip850)" d="M126.205 876.999 Q122.593 876.999 120.765 880.564 Q118.959 884.105 118.959 891.235 Q118.959 898.341 120.765 901.906 Q122.593 905.448 126.205 905.448 Q129.839 905.448 131.644 901.906 Q133.473 898.341 133.473 891.235 Q133.473 884.105 131.644 880.564 Q129.839 876.999 126.205 876.999 M126.205 873.295 Q132.015 873.295 135.07 877.902 Q138.149 882.485 138.149 891.235 Q138.149 899.962 135.07 904.568 Q132.015 909.151 126.205 909.151 Q120.394 909.151 117.316 904.568 Q114.26 899.962 114.26 891.235 Q114.26 882.485 117.316 877.902 Q120.394 873.295 126.205 873.295 Z" fill="#000000" fill-rule="nonzero" fill-opacity="1" /><path clip-path="url(#clip850)" d="M146.366 902.6 L151.251 902.6 L151.251 908.48 L146.366 908.48 L146.366 902.6 Z" fill="#000000" fill-rule="nonzero" fill-opacity="1" /><path clip-path="url(#clip850)" d="M162.246 904.545 L169.885 904.545 L169.885 878.179 L161.575 879.846 L161.575 875.587 L169.839 873.92 L174.514 873.92 L174.514 904.545 L182.153 904.545 L182.153 908.48 L162.246 908.48 L162.246 904.545 Z" fill="#000000" fill-rule="nonzero" fill-opacity="1" /><path clip-path="url(#clip850)" d="M201.598 876.999 Q197.987 876.999 196.158 880.564 Q194.352 884.105 194.352 891.235 Q194.352 898.341 196.158 901.906 Q197.987 905.448 201.598 905.448 Q205.232 905.448 207.037 901.906 Q208.866 898.341 208.866 891.235 Q208.866 884.105 207.037 880.564 Q205.232 876.999 201.598 876.999 M201.598 873.295 Q207.408 873.295 210.463 877.902 Q213.542 882.485 213.542 891.235 Q213.542 899.962 210.463 904.568 Q207.408 909.151 201.598 909.151 Q195.787 909.151 192.709 904.568 Q189.653 899.962 189.653 891.235 Q189.653 882.485 192.709 877.902 Q195.787 873.295 201.598 873.295 Z" fill="#000000" fill-rule="nonzero" fill-opacity="1" /><path clip-path="url(#clip850)" d="M127.2 611.009 Q123.589 611.009 121.76 614.574 Q119.955 618.115 119.955 625.245 Q119.955 632.351 121.76 635.916 Q123.589 639.458 127.2 639.458 Q130.834 639.458 132.64 635.916 Q134.468 632.351 134.468 625.245 Q134.468 618.115 132.64 614.574 Q130.834 611.009 127.2 611.009 M127.2 607.305 Q133.01 607.305 136.066 611.912 Q139.144 616.495 139.144 625.245 Q139.144 633.972 136.066 638.578 Q133.01 643.162 127.2 643.162 Q121.39 643.162 118.311 638.578 Q115.256 633.972 115.256 625.245 Q115.256 616.495 118.311 611.912 Q121.39 607.305 127.2 607.305 Z" fill="#000000" fill-rule="nonzero" fill-opacity="1" /><path clip-path="url(#clip850)" d="M147.362 636.611 L152.246 636.611 L152.246 642.49 L147.362 642.49 L147.362 636.611 Z" fill="#000000" fill-rule="nonzero" fill-opacity="1" /><path clip-path="url(#clip850)" d="M163.241 638.555 L170.88 638.555 L170.88 612.189 L162.57 613.856 L162.57 609.597 L170.834 607.93 L175.51 607.93 L175.51 638.555 L183.149 638.555 L183.149 642.49 L163.241 642.49 L163.241 638.555 Z" fill="#000000" fill-rule="nonzero" fill-opacity="1" /><path clip-path="url(#clip850)" d="M192.639 607.93 L210.996 607.93 L210.996 611.865 L196.922 611.865 L196.922 620.338 Q197.94 619.99 198.959 619.828 Q199.977 619.643 200.996 619.643 Q206.783 619.643 210.162 622.814 Q213.542 625.986 213.542 631.402 Q213.542 636.981 210.07 640.083 Q206.598 643.162 200.278 643.162 Q198.102 643.162 195.834 642.791 Q193.588 642.421 191.181 641.68 L191.181 636.981 Q193.264 638.115 195.487 638.671 Q197.709 639.226 200.186 639.226 Q204.19 639.226 206.528 637.12 Q208.866 635.013 208.866 631.402 Q208.866 627.791 206.528 625.685 Q204.19 623.578 200.186 623.578 Q198.311 623.578 196.436 623.995 Q194.584 624.412 192.639 625.291 L192.639 607.93 Z" fill="#000000" fill-rule="nonzero" fill-opacity="1" /><path clip-path="url(#clip850)" d="M126.205 345.019 Q122.593 345.019 120.765 348.584 Q118.959 352.125 118.959 359.255 Q118.959 366.361 120.765 369.926 Q122.593 373.468 126.205 373.468 Q129.839 373.468 131.644 369.926 Q133.473 366.361 133.473 359.255 Q133.473 352.125 131.644 348.584 Q129.839 345.019 126.205 345.019 M126.205 341.315 Q132.015 341.315 135.07 345.922 Q138.149 350.505 138.149 359.255 Q138.149 367.982 135.07 372.588 Q132.015 377.172 126.205 377.172 Q120.394 377.172 117.316 372.588 Q114.26 367.982 114.26 359.255 Q114.26 350.505 117.316 345.922 Q120.394 341.315 126.205 341.315 Z" fill="#000000" fill-rule="nonzero" fill-opacity="1" /><path clip-path="url(#clip850)" d="M146.366 370.621 L151.251 370.621 L151.251 376.5 L146.366 376.5 L146.366 370.621 Z" fill="#000000" fill-rule="nonzero" fill-opacity="1" /><path clip-path="url(#clip850)" d="M165.464 372.565 L181.783 372.565 L181.783 376.5 L159.839 376.5 L159.839 372.565 Q162.501 369.811 167.084 365.181 Q171.69 360.528 172.871 359.186 Q175.116 356.662 175.996 354.926 Q176.899 353.167 176.899 351.477 Q176.899 348.723 174.954 346.987 Q173.033 345.251 169.931 345.251 Q167.732 345.251 165.278 346.014 Q162.848 346.778 160.07 348.329 L160.07 343.607 Q162.894 342.473 165.348 341.894 Q167.802 341.315 169.839 341.315 Q175.209 341.315 178.403 344.001 Q181.598 346.686 181.598 351.176 Q181.598 353.306 180.788 355.227 Q180.001 357.125 177.894 359.718 Q177.315 360.389 174.214 363.607 Q171.112 366.801 165.464 372.565 Z" fill="#000000" fill-rule="nonzero" fill-opacity="1" /><path clip-path="url(#clip850)" d="M201.598 345.019 Q197.987 345.019 196.158 348.584 Q194.352 352.125 194.352 359.255 Q194.352 366.361 196.158 369.926 Q197.987 373.468 201.598 373.468 Q205.232 373.468 207.037 369.926 Q208.866 366.361 208.866 359.255 Q208.866 352.125 207.037 348.584 Q205.232 345.019 201.598 345.019 M201.598 341.315 Q207.408 341.315 210.463 345.922 Q213.542 350.505 213.542 359.255 Q213.542 367.982 210.463 372.588 Q207.408 377.172 201.598 377.172 Q195.787 377.172 192.709 372.588 Q189.653 367.982 189.653 359.255 Q189.653 350.505 192.709 345.922 Q195.787 341.315 201.598 341.315 Z" fill="#000000" fill-rule="nonzero" fill-opacity="1" /><path clip-path="url(#clip850)" d="M21.7677 926.375 L39.6235 926.375 L39.6235 918.29 Q39.6235 913.803 37.3 911.352 Q34.9765 908.901 30.6797 908.901 Q26.4147 908.901 24.0912 911.352 Q21.7677 913.803 21.7677 918.29 L21.7677 926.375 M16.4842 932.804 L16.4842 918.29 Q16.4842 910.302 20.1126 906.227 Q23.7092 902.122 30.6797 902.122 Q37.7138 902.122 41.3104 906.227 Q44.907 910.302 44.907 918.29 L44.907 926.375 L64.0042 926.375 L64.0042 932.804 L16.4842 932.804 Z" fill="#000000" fill-rule="nonzero" fill-opacity="1" /><path clip-path="url(#clip850)" d="M33.8307 874.24 Q33.2578 875.226 33.0032 876.404 Q32.7167 877.55 32.7167 878.95 Q32.7167 883.916 35.9632 886.589 Q39.1779 889.231 45.2253 889.231 L64.0042 889.231 L64.0042 895.119 L28.3562 895.119 L28.3562 889.231 L33.8944 889.231 Q30.6479 887.385 29.0883 884.425 Q27.4968 881.465 27.4968 877.232 Q27.4968 876.627 27.5923 875.895 Q27.656 875.163 27.8151 874.272 L33.8307 874.24 Z" fill="#000000" fill-rule="nonzero" fill-opacity="1" /><path clip-path="url(#clip850)" d="M32.4621 855.716 Q32.4621 860.426 36.1542 863.163 Q39.8145 865.901 46.212 865.901 Q52.6095 865.901 56.3017 863.195 Q59.9619 860.458 59.9619 855.716 Q59.9619 851.037 56.2698 848.3 Q52.5777 845.562 46.212 845.562 Q39.8781 845.562 36.186 848.3 Q32.4621 851.037 32.4621 855.716 M27.4968 855.716 Q27.4968 848.077 32.4621 843.716 Q37.4273 839.356 46.212 839.356 Q54.9649 839.356 59.9619 843.716 Q64.9272 848.077 64.9272 855.716 Q64.9272 863.386 59.9619 867.747 Q54.9649 872.075 46.212 872.075 Q37.4273 872.075 32.4621 867.747 Q27.4968 863.386 27.4968 855.716 Z" fill="#000000" fill-rule="nonzero" fill-opacity="1" /><path clip-path="url(#clip850)" d="M46.212 804.058 Q39.7508 804.058 36.0905 806.731 Q32.3984 809.373 32.3984 814.02 Q32.3984 818.667 36.0905 821.341 Q39.7508 823.983 46.212 823.983 Q52.6732 823.983 56.3653 821.341 Q60.0256 818.667 60.0256 814.02 Q60.0256 809.373 56.3653 806.731 Q52.6732 804.058 46.212 804.058 M33.7671 823.983 Q30.5842 822.136 29.0564 819.336 Q27.4968 816.503 27.4968 812.588 Q27.4968 806.095 32.6531 802.053 Q37.8093 797.979 46.212 797.979 Q54.6147 797.979 59.771 802.053 Q64.9272 806.095 64.9272 812.588 Q64.9272 816.503 63.3994 819.336 Q61.8398 822.136 58.657 823.983 L64.0042 823.983 L64.0042 829.871 L14.479 829.871 L14.479 823.983 L33.7671 823.983 Z" fill="#000000" fill-rule="nonzero" fill-opacity="1" /><path clip-path="url(#clip850)" d="M46.0847 772.07 Q46.0847 779.168 47.7079 781.905 Q49.3312 784.642 53.2461 784.642 Q56.3653 784.642 58.2114 782.605 Q60.0256 780.537 60.0256 777.004 Q60.0256 772.134 56.5881 769.206 Q53.1188 766.246 47.3897 766.246 L46.0847 766.246 L46.0847 772.07 M43.6657 760.389 L64.0042 760.389 L64.0042 766.246 L58.5933 766.246 Q61.8398 768.251 63.3994 771.243 Q64.9272 774.235 64.9272 778.563 Q64.9272 784.038 61.8716 787.284 Q58.7843 790.499 53.6281 790.499 Q47.6125 790.499 44.5569 786.489 Q41.5014 782.446 41.5014 774.457 L41.5014 766.246 L40.9285 766.246 Q36.8862 766.246 34.6901 768.919 Q32.4621 771.561 32.4621 776.367 Q32.4621 779.423 33.1941 782.319 Q33.9262 785.215 35.3903 787.889 L29.9795 787.889 Q28.7381 784.674 28.1334 781.651 Q27.4968 778.627 27.4968 775.762 Q27.4968 768.028 31.5072 764.209 Q35.5176 760.389 43.6657 760.389 Z" fill="#000000" fill-rule="nonzero" fill-opacity="1" /><path clip-path="url(#clip850)" d="M46.212 722.736 Q39.7508 722.736 36.0905 725.41 Q32.3984 728.051 32.3984 732.698 Q32.3984 737.345 36.0905 740.019 Q39.7508 742.661 46.212 742.661 Q52.6732 742.661 56.3653 740.019 Q60.0256 737.345 60.0256 732.698 Q60.0256 728.051 56.3653 725.41 Q52.6732 722.736 46.212 722.736 M33.7671 742.661 Q30.5842 740.815 29.0564 738.014 Q27.4968 735.181 27.4968 731.266 Q27.4968 724.773 32.6531 720.731 Q37.8093 716.657 46.212 716.657 Q54.6147 716.657 59.771 720.731 Q64.9272 724.773 64.9272 731.266 Q64.9272 735.181 63.3994 738.014 Q61.8398 740.815 58.657 742.661 L64.0042 742.661 L64.0042 748.549 L14.479 748.549 L14.479 742.661 L33.7671 742.661 Z" fill="#000000" fill-rule="nonzero" fill-opacity="1" /><path clip-path="url(#clip850)" d="M28.3562 706.949 L28.3562 701.093 L64.0042 701.093 L64.0042 706.949 L28.3562 706.949 M14.479 706.949 L14.479 701.093 L21.895 701.093 L21.895 706.949 L14.479 706.949 Z" fill="#000000" fill-rule="nonzero" fill-opacity="1" /><path clip-path="url(#clip850)" d="M14.479 688.839 L14.479 682.982 L64.0042 682.982 L64.0042 688.839 L14.479 688.839 Z" fill="#000000" fill-rule="nonzero" fill-opacity="1" /><path clip-path="url(#clip850)" d="M28.3562 670.728 L28.3562 664.872 L64.0042 664.872 L64.0042 670.728 L28.3562 670.728 M14.479 670.728 L14.479 664.872 L21.895 664.872 L21.895 670.728 L14.479 670.728 Z" fill="#000000" fill-rule="nonzero" fill-opacity="1" /><path clip-path="url(#clip850)" d="M18.2347 646.825 L28.3562 646.825 L28.3562 634.762 L32.9077 634.762 L32.9077 646.825 L52.2594 646.825 Q56.6199 646.825 57.8613 645.647 Q59.1026 644.438 59.1026 640.778 L59.1026 634.762 L64.0042 634.762 L64.0042 640.778 Q64.0042 647.557 61.4897 650.135 Q58.9434 652.713 52.2594 652.713 L32.9077 652.713 L32.9077 657.01 L28.3562 657.01 L28.3562 652.713 L18.2347 652.713 L18.2347 646.825 Z" fill="#000000" fill-rule="nonzero" fill-opacity="1" /><path clip-path="url(#clip850)" d="M67.3143 612.227 Q73.68 614.71 75.6216 617.065 Q77.5631 619.421 77.5631 623.367 L77.5631 628.046 L72.6615 628.046 L72.6615 624.609 Q72.6615 622.19 71.5157 620.853 Q70.3699 619.516 66.1048 617.893 L63.4312 616.842 L28.3562 631.261 L28.3562 625.054 L56.238 613.914 L28.3562 602.774 L28.3562 596.568 L67.3143 612.227 Z" fill="#000000" fill-rule="nonzero" fill-opacity="1" /><path clip-path="url(#clip850)" d="M840.474 10.0578 L840.474 15.758 Q837.147 14.1666 834.195 13.3853 Q831.244 12.6041 828.495 12.6041 Q823.721 12.6041 821.117 14.4559 Q818.542 16.3078 818.542 19.7221 Q818.542 22.5867 820.249 24.0624 Q821.985 25.5091 826.788 26.4061 L830.318 27.1295 Q836.857 28.3737 839.954 31.5276 Q843.079 34.6526 843.079 39.9188 Q843.079 46.1977 838.854 49.4384 Q834.658 52.6791 826.528 52.6791 Q823.461 52.6791 819.988 51.9847 Q816.545 51.2902 812.841 49.9303 L812.841 43.9118 Q816.4 45.9083 819.815 46.921 Q823.229 47.9338 826.528 47.9338 Q831.533 47.9338 834.253 45.9662 Q836.973 43.9986 836.973 40.3528 Q836.973 37.1699 835.006 35.376 Q833.067 33.582 828.611 32.685 L825.052 31.9906 Q818.513 30.6885 815.59 27.9107 Q812.668 25.133 812.668 20.1851 Q812.668 14.4559 816.69 11.1573 Q820.741 7.85875 827.83 7.85875 Q830.868 7.85875 834.022 8.40852 Q837.176 8.95829 840.474 10.0578 Z" fill="#000000" fill-rule="nonzero" fill-opacity="1" /><path clip-path="url(#clip850)" d="M857.228 10.2314 L857.228 19.4328 L868.194 19.4328 L868.194 23.5705 L857.228 23.5705 L857.228 41.163 Q857.228 45.1271 858.298 46.2555 Q859.398 47.384 862.725 47.384 L868.194 47.384 L868.194 51.84 L862.725 51.84 Q856.562 51.84 854.218 49.5541 Q851.875 47.2393 851.875 41.163 L851.875 23.5705 L847.969 23.5705 L847.969 19.4328 L851.875 19.4328 L851.875 10.2314 L857.228 10.2314 Z" fill="#000000" fill-rule="nonzero" fill-opacity="1" /><path clip-path="url(#clip850)" d="M889.924 35.5496 Q883.472 35.5496 880.983 37.0253 Q878.495 38.501 878.495 42.06 Q878.495 44.8956 880.347 46.5738 Q882.228 48.2231 885.439 48.2231 Q889.866 48.2231 892.528 45.0981 Q895.219 41.9442 895.219 36.7359 L895.219 35.5496 L889.924 35.5496 M900.543 33.3505 L900.543 51.84 L895.219 51.84 L895.219 46.921 Q893.397 49.8724 890.677 51.2902 Q887.957 52.6791 884.022 52.6791 Q879.045 52.6791 876.093 49.9014 Q873.171 47.0947 873.171 42.4072 Q873.171 36.9385 876.817 34.1607 Q880.492 31.3829 887.754 31.3829 L895.219 31.3829 L895.219 30.8621 Q895.219 27.1874 892.789 25.1908 Q890.387 23.1654 886.018 23.1654 Q883.24 23.1654 880.607 23.8309 Q877.974 24.4964 875.544 25.8274 L875.544 20.9085 Q878.466 19.78 881.215 19.2302 Q883.964 18.6515 886.568 18.6515 Q893.599 18.6515 897.071 22.2973 Q900.543 25.9431 900.543 33.3505 Z" fill="#000000" fill-rule="nonzero" fill-opacity="1" /><path clip-path="url(#clip850)" d="M916.776 10.2314 L916.776 19.4328 L927.742 19.4328 L927.742 23.5705 L916.776 23.5705 L916.776 41.163 Q916.776 45.1271 917.847 46.2555 Q918.946 47.384 922.274 47.384 L927.742 47.384 L927.742 51.84 L922.274 51.84 Q916.111 51.84 913.767 49.5541 Q911.423 47.2393 911.423 41.163 L911.423 23.5705 L907.517 23.5705 L907.517 19.4328 L911.423 19.4328 L911.423 10.2314 L916.776 10.2314 Z" fill="#000000" fill-rule="nonzero" fill-opacity="1" /><path clip-path="url(#clip850)" d="M934.745 19.4328 L940.069 19.4328 L940.069 51.84 L934.745 51.84 L934.745 19.4328 M934.745 6.81709 L940.069 6.81709 L940.069 13.559 L934.745 13.559 L934.745 6.81709 Z" fill="#000000" fill-rule="nonzero" fill-opacity="1" /><path clip-path="url(#clip850)" d="M963.767 23.1654 Q959.484 23.1654 956.996 26.5218 Q954.507 29.8494 954.507 35.6653 Q954.507 41.4813 956.967 44.8377 Q959.455 48.1653 963.767 48.1653 Q968.02 48.1653 970.508 44.8088 Q972.997 41.4523 972.997 35.6653 Q972.997 29.9072 970.508 26.5508 Q968.02 23.1654 963.767 23.1654 M963.767 18.6515 Q970.711 18.6515 974.675 23.1654 Q978.639 27.6792 978.639 35.6653 Q978.639 43.6225 974.675 48.1653 Q970.711 52.6791 963.767 52.6791 Q956.793 52.6791 952.829 48.1653 Q948.894 43.6225 948.894 35.6653 Q948.894 27.6792 952.829 23.1654 Q956.793 18.6515 963.767 18.6515 Z" fill="#000000" fill-rule="nonzero" fill-opacity="1" /><path clip-path="url(#clip850)" d="M1014.4 32.2799 L1014.4 51.84 L1009.08 51.84 L1009.08 32.4535 Q1009.08 27.8529 1007.28 25.567 Q1005.49 23.2811 1001.9 23.2811 Q997.592 23.2811 995.103 26.03 Q992.615 28.7788 992.615 33.5241 L992.615 51.84 L987.262 51.84 L987.262 19.4328 L992.615 19.4328 L992.615 24.4675 Q994.524 21.545 997.1 20.0983 Q999.704 18.6515 1003.09 18.6515 Q1008.67 18.6515 1011.54 22.1237 Q1014.4 25.567 1014.4 32.2799 Z" fill="#000000" fill-rule="nonzero" fill-opacity="1" /><path clip-path="url(#clip850)" d="M1039.75 35.5496 Q1033.3 35.5496 1030.81 37.0253 Q1028.32 38.501 1028.32 42.06 Q1028.32 44.8956 1030.17 46.5738 Q1032.05 48.2231 1035.26 48.2231 Q1039.69 48.2231 1042.35 45.0981 Q1045.05 41.9442 1045.05 36.7359 L1045.05 35.5496 L1039.75 35.5496 M1050.37 33.3505 L1050.37 51.84 L1045.05 51.84 L1045.05 46.921 Q1043.22 49.8724 1040.5 51.2902 Q1037.78 52.6791 1033.85 52.6791 Q1028.87 52.6791 1025.92 49.9014 Q1023 47.0947 1023 42.4072 Q1023 36.9385 1026.64 34.1607 Q1030.32 31.3829 1037.58 31.3829 L1045.05 31.3829 L1045.05 30.8621 Q1045.05 27.1874 1042.61 25.1908 Q1040.21 23.1654 1035.84 23.1654 Q1033.07 23.1654 1030.43 23.8309 Q1027.8 24.4964 1025.37 25.8274 L1025.37 20.9085 Q1028.29 19.78 1031.04 19.2302 Q1033.79 18.6515 1036.39 18.6515 Q1043.42 18.6515 1046.9 22.2973 Q1050.37 25.9431 1050.37 33.3505 Z" fill="#000000" fill-rule="nonzero" fill-opacity="1" /><path clip-path="url(#clip850)" d="M1080.11 24.4096 Q1079.22 23.8888 1078.15 23.6573 Q1077.11 23.3969 1075.83 23.3969 Q1071.32 23.3969 1068.89 26.3482 Q1066.49 29.2707 1066.49 34.7683 L1066.49 51.84 L1061.13 51.84 L1061.13 19.4328 L1066.49 19.4328 L1066.49 24.4675 Q1068.16 21.5161 1070.86 20.0983 Q1073.55 18.6515 1077.39 18.6515 Q1077.94 18.6515 1078.61 18.7383 Q1079.28 18.7962 1080.09 18.9409 L1080.11 24.4096 Z" fill="#000000" fill-rule="nonzero" fill-opacity="1" /><path clip-path="url(#clip850)" d="M1099.18 54.8492 Q1096.93 60.6362 1094.78 62.4013 Q1092.64 64.1663 1089.06 64.1663 L1084.8 64.1663 L1084.8 59.7103 L1087.93 59.7103 Q1090.13 59.7103 1091.34 58.6687 Q1092.56 57.627 1094.03 53.7497 L1094.99 51.3192 L1081.88 19.4328 L1087.52 19.4328 L1097.65 44.7799 L1107.78 19.4328 L1113.42 19.4328 L1099.18 54.8492 Z" fill="#000000" fill-rule="nonzero" fill-opacity="1" /><path clip-path="url(#clip850)" d="M1145.68 13.4432 L1145.68 47.0368 L1152.74 47.0368 Q1161.68 47.0368 1165.82 42.9859 Q1169.99 38.935 1169.99 30.1966 Q1169.99 21.5161 1165.82 17.4941 Q1161.68 13.4432 1152.74 13.4432 L1145.68 13.4432 M1139.84 8.64 L1151.84 8.64 Q1164.4 8.64 1170.28 13.8772 Q1176.15 19.0855 1176.15 30.1966 Q1176.15 41.3655 1170.25 46.6028 Q1164.34 51.84 1151.84 51.84 L1139.84 51.84 L1139.84 8.64 Z" fill="#000000" fill-rule="nonzero" fill-opacity="1" /><path clip-path="url(#clip850)" d="M1185.24 19.4328 L1190.56 19.4328 L1190.56 51.84 L1185.24 51.84 L1185.24 19.4328 M1185.24 6.81709 L1190.56 6.81709 L1190.56 13.559 L1185.24 13.559 L1185.24 6.81709 Z" fill="#000000" fill-rule="nonzero" fill-opacity="1" /><path clip-path="url(#clip850)" d="M1222.36 20.3876 L1222.36 25.4223 Q1220.1 24.2649 1217.67 23.6862 Q1215.24 23.1075 1212.64 23.1075 Q1208.67 23.1075 1206.68 24.3228 Q1204.71 25.5381 1204.71 27.9686 Q1204.71 29.8204 1206.13 30.891 Q1207.54 31.9327 1211.83 32.8876 L1213.65 33.2926 Q1219.32 34.5079 1221.69 36.7359 Q1224.09 38.935 1224.09 42.8991 Q1224.09 47.4129 1220.51 50.046 Q1216.95 52.6791 1210.7 52.6791 Q1208.09 52.6791 1205.26 52.1583 Q1202.45 51.6664 1199.33 50.6537 L1199.33 45.156 Q1202.28 46.6896 1205.14 47.4708 Q1208.01 48.2231 1210.81 48.2231 Q1214.58 48.2231 1216.6 46.95 Q1218.63 45.6479 1218.63 43.3042 Q1218.63 41.134 1217.15 39.9766 Q1215.7 38.8192 1210.76 37.7486 L1208.9 37.3146 Q1203.96 36.273 1201.76 34.1318 Q1199.56 31.9616 1199.56 28.2001 Q1199.56 23.6283 1202.8 21.1399 Q1206.04 18.6515 1212 18.6515 Q1214.95 18.6515 1217.56 19.0855 Q1220.16 19.5196 1222.36 20.3876 Z" fill="#000000" fill-rule="nonzero" fill-opacity="1" /><path clip-path="url(#clip850)" d="M1237.84 10.2314 L1237.84 19.4328 L1248.81 19.4328 L1248.81 23.5705 L1237.84 23.5705 L1237.84 41.163 Q1237.84 45.1271 1238.91 46.2555 Q1240.01 47.384 1243.34 47.384 L1248.81 47.384 L1248.81 51.84 L1243.34 51.84 Q1237.17 51.84 1234.83 49.5541 Q1232.49 47.2393 1232.49 41.163 L1232.49 23.5705 L1228.58 23.5705 L1228.58 19.4328 L1232.49 19.4328 L1232.49 10.2314 L1237.84 10.2314 Z" fill="#000000" fill-rule="nonzero" fill-opacity="1" /><path clip-path="url(#clip850)" d="M1274.59 24.4096 Q1273.69 23.8888 1272.62 23.6573 Q1271.58 23.3969 1270.3 23.3969 Q1265.79 23.3969 1263.36 26.3482 Q1260.96 29.2707 1260.96 34.7683 L1260.96 51.84 L1255.61 51.84 L1255.61 19.4328 L1260.96 19.4328 L1260.96 24.4675 Q1262.64 21.5161 1265.33 20.0983 Q1268.02 18.6515 1271.87 18.6515 Q1272.42 18.6515 1273.08 18.7383 Q1273.75 18.7962 1274.56 18.9409 L1274.59 24.4096 Z" fill="#000000" fill-rule="nonzero" fill-opacity="1" /><path clip-path="url(#clip850)" d="M1280.17 19.4328 L1285.5 19.4328 L1285.5 51.84 L1280.17 51.84 L1280.17 19.4328 M1280.17 6.81709 L1285.5 6.81709 L1285.5 13.559 L1280.17 13.559 L1280.17 6.81709 Z" fill="#000000" fill-rule="nonzero" fill-opacity="1" /><path clip-path="url(#clip850)" d="M1319.9 35.6653 Q1319.9 29.7915 1317.47 26.464 Q1315.07 23.1075 1310.84 23.1075 Q1306.62 23.1075 1304.19 26.464 Q1301.79 29.7915 1301.79 35.6653 Q1301.79 41.5391 1304.19 44.8956 Q1306.62 48.2231 1310.84 48.2231 Q1315.07 48.2231 1317.47 44.8956 Q1319.9 41.5391 1319.9 35.6653 M1301.79 24.3517 Q1303.46 21.4582 1306.01 20.0693 Q1308.59 18.6515 1312.14 18.6515 Q1318.05 18.6515 1321.72 23.339 Q1325.43 28.0265 1325.43 35.6653 Q1325.43 43.3042 1321.72 47.9916 Q1318.05 52.6791 1312.14 52.6791 Q1308.59 52.6791 1306.01 51.2902 Q1303.46 49.8724 1301.79 46.9789 L1301.79 51.84 L1296.43 51.84 L1296.43 6.81709 L1301.79 6.81709 L1301.79 24.3517 Z" fill="#000000" fill-rule="nonzero" fill-opacity="1" /><path clip-path="url(#clip850)" d="M1333.7 39.0507 L1333.7 19.4328 L1339.02 19.4328 L1339.02 38.8482 Q1339.02 43.4488 1340.82 45.7636 Q1342.61 48.0495 1346.2 48.0495 Q1350.51 48.0495 1353 45.3007 Q1355.52 42.5519 1355.52 37.8065 L1355.52 19.4328 L1360.84 19.4328 L1360.84 51.84 L1355.52 51.84 L1355.52 46.8632 Q1353.58 49.8145 1351 51.2613 Q1348.46 52.6791 1345.07 52.6791 Q1339.49 52.6791 1336.59 49.2069 Q1333.7 45.7347 1333.7 39.0507 M1347.1 18.6515 L1347.1 18.6515 Z" fill="#000000" fill-rule="nonzero" fill-opacity="1" /><path clip-path="url(#clip850)" d="M1377.07 10.2314 L1377.07 19.4328 L1388.04 19.4328 L1388.04 23.5705 L1377.07 23.5705 L1377.07 41.163 Q1377.07 45.1271 1378.15 46.2555 Q1379.24 47.384 1382.57 47.384 L1388.04 47.384 L1388.04 51.84 L1382.57 51.84 Q1376.41 51.84 1374.07 49.5541 Q1371.72 47.2393 1371.72 41.163 L1371.72 23.5705 L1367.82 23.5705 L1367.82 19.4328 L1371.72 19.4328 L1371.72 10.2314 L1377.07 10.2314 Z" fill="#000000" fill-rule="nonzero" fill-opacity="1" /><path clip-path="url(#clip850)" d="M1395.04 19.4328 L1400.37 19.4328 L1400.37 51.84 L1395.04 51.84 L1395.04 19.4328 M1395.04 6.81709 L1400.37 6.81709 L1400.37 13.559 L1395.04 13.559 L1395.04 6.81709 Z" fill="#000000" fill-rule="nonzero" fill-opacity="1" /><path clip-path="url(#clip850)" d="M1424.06 23.1654 Q1419.78 23.1654 1417.29 26.5218 Q1414.81 29.8494 1414.81 35.6653 Q1414.81 41.4813 1417.27 44.8377 Q1419.75 48.1653 1424.06 48.1653 Q1428.32 48.1653 1430.81 44.8088 Q1433.3 41.4523 1433.3 35.6653 Q1433.3 29.9072 1430.81 26.5508 Q1428.32 23.1654 1424.06 23.1654 M1424.06 18.6515 Q1431.01 18.6515 1434.97 23.1654 Q1438.94 27.6792 1438.94 35.6653 Q1438.94 43.6225 1434.97 48.1653 Q1431.01 52.6791 1424.06 52.6791 Q1417.09 52.6791 1413.13 48.1653 Q1409.19 43.6225 1409.19 35.6653 Q1409.19 27.6792 1413.13 23.1654 Q1417.09 18.6515 1424.06 18.6515 Z" fill="#000000" fill-rule="nonzero" fill-opacity="1" /><path clip-path="url(#clip850)" d="M1474.7 32.2799 L1474.7 51.84 L1469.38 51.84 L1469.38 32.4535 Q1469.38 27.8529 1467.58 25.567 Q1465.79 23.2811 1462.2 23.2811 Q1457.89 23.2811 1455.4 26.03 Q1452.91 28.7788 1452.91 33.5241 L1452.91 51.84 L1447.56 51.84 L1447.56 19.4328 L1452.91 19.4328 L1452.91 24.4675 Q1454.82 21.545 1457.4 20.0983 Q1460 18.6515 1463.39 18.6515 Q1468.97 18.6515 1471.84 22.1237 Q1474.7 25.567 1474.7 32.2799 Z" fill="#000000" fill-rule="nonzero" fill-opacity="1" /><path clip-path="url(#clip850)" d="M1500.71 19.4328 L1531.76 19.4328 L1531.76 24.7568 L1527.68 24.7568 L1527.68 44.6641 Q1527.68 46.7474 1528.38 47.6734 Q1529.1 48.5703 1530.69 48.5703 Q1531.12 48.5703 1531.76 48.5125 Q1532.4 48.4257 1532.6 48.3967 L1532.6 52.2451 Q1531.59 52.6212 1530.52 52.7949 Q1529.45 52.9685 1528.38 52.9685 Q1524.9 52.9685 1523.57 51.0877 Q1522.24 49.178 1522.24 44.0854 L1522.24 24.7568 L1510.29 24.7568 L1510.29 51.84 L1504.85 51.84 L1504.85 24.7568 L1500.71 24.7568 L1500.71 19.4328 Z" fill="#000000" fill-rule="nonzero" fill-opacity="1" /><path clip-path="url(#clip850)" d="M1555.98 33.5241 L1609.45 33.5241 L1609.45 37.6908 L1555.98 37.6908 L1555.98 33.5241 Z" fill="#000000" fill-rule="nonzero" fill-opacity="1" /><path clip-path="url(#clip850)" d="M1637 8.64 L1642.84 8.64 L1642.84 26.898 L1662.23 8.64 L1669.75 8.64 L1648.31 28.7788 L1671.29 51.84 L1663.59 51.84 L1642.84 31.0357 L1642.84 51.84 L1637 51.84 L1637 8.64 Z" fill="#000000" fill-rule="nonzero" fill-opacity="1" /><path clip-path="url(#clip850)" d="M1676.32 24.9304 L1713.42 24.9304 L1713.42 29.7915 L1676.32 29.7915 L1676.32 24.9304 M1676.32 36.7359 L1713.42 36.7359 L1713.42 41.6549 L1676.32 41.6549 L1676.32 36.7359 Z" fill="#000000" fill-rule="nonzero" fill-opacity="1" /><path clip-path="url(#clip850)" d="M1731.07 46.921 L1751.46 46.921 L1751.46 51.84 L1724.03 51.84 L1724.03 46.921 Q1727.36 43.4778 1733.09 37.6908 Q1738.85 31.8748 1740.32 30.1966 Q1743.13 27.0427 1744.23 24.8726 Q1745.36 22.6735 1745.36 20.5612 Q1745.36 17.118 1742.93 14.9478 Q1740.53 12.7777 1736.65 12.7777 Q1733.9 12.7777 1730.83 13.7326 Q1727.8 14.6874 1724.32 16.6261 L1724.32 10.7233 Q1727.85 9.30551 1730.92 8.58213 Q1733.99 7.85875 1736.53 7.85875 Q1743.25 7.85875 1747.24 11.2152 Q1751.23 14.5717 1751.23 20.1851 Q1751.23 22.8471 1750.22 25.2487 Q1749.24 27.6214 1746.6 30.8621 Q1745.88 31.7012 1742 35.7232 Q1738.13 39.7162 1731.07 46.921 Z" fill="#000000" fill-rule="nonzero" fill-opacity="1" /><path clip-path="url(#clip850)" d="M1764.75 46.921 L1774.29 46.921 L1774.29 13.964 L1763.91 16.0474 L1763.91 10.7233 L1774.24 8.64 L1780.08 8.64 L1780.08 46.921 L1789.63 46.921 L1789.63 51.84 L1764.75 51.84 L1764.75 46.921 Z" fill="#000000" fill-rule="nonzero" fill-opacity="1" /><path clip-path="url(#clip852)" d="M365.223 813.387 L365.223 1423.18 L437.217 1423.18 L437.217 813.387 L365.223 813.387 L365.223 813.387  Z" fill="#4682b4" fill-rule="evenodd" fill-opacity="0.7"/>
<polyline clip-path="url(#clip852)" style="stroke:#000000; stroke-linecap:round; stroke-linejoin:round; stroke-width:4; stroke-opacity:0.7; fill:none" points="365.223,813.387 365.223,1423.18 437.217,1423.18 437.217,813.387 365.223,813.387 "/>
<path clip-path="url(#clip852)" d="M455.215 1244.22 L455.215 1423.18 L527.21 1423.18 L527.21 1244.22 L455.215 1244.22 L455.215 1244.22  Z" fill="#4682b4" fill-rule="evenodd" fill-opacity="0.7"/>
<polyline clip-path="url(#clip852)" style="stroke:#000000; stroke-linecap:round; stroke-linejoin:round; stroke-width:4; stroke-opacity:0.7; fill:none" points="455.215,1244.22 455.215,1423.18 527.21,1423.18 527.21,1244.22 455.215,1244.22 "/>
<path clip-path="url(#clip852)" d="M545.208 1310.59 L545.208 1423.18 L617.203 1423.18 L617.203 1310.59 L545.208 1310.59 L545.208 1310.59  Z" fill="#4682b4" fill-rule="evenodd" fill-opacity="0.7"/>
<polyline clip-path="url(#clip852)" style="stroke:#000000; stroke-linecap:round; stroke-linejoin:round; stroke-width:4; stroke-opacity:0.7; fill:none" points="545.208,1310.59 545.208,1423.18 617.203,1423.18 617.203,1310.59 545.208,1310.59 "/>
<path clip-path="url(#clip852)" d="M635.201 1329.46 L635.201 1423.18 L707.196 1423.18 L707.196 1329.46 L635.201 1329.46 L635.201 1329.46  Z" fill="#4682b4" fill-rule="evenodd" fill-opacity="0.7"/>
<polyline clip-path="url(#clip852)" style="stroke:#000000; stroke-linecap:round; stroke-linejoin:round; stroke-width:4; stroke-opacity:0.7; fill:none" points="635.201,1329.46 635.201,1423.18 707.196,1423.18 707.196,1329.46 635.201,1329.46 "/>
<path clip-path="url(#clip852)" d="M725.194 1326.95 L725.194 1423.18 L797.189 1423.18 L797.189 1326.95 L725.194 1326.95 L725.194 1326.95  Z" fill="#4682b4" fill-rule="evenodd" fill-opacity="0.7"/>
<polyline clip-path="url(#clip852)" style="stroke:#000000; stroke-linecap:round; stroke-linejoin:round; stroke-width:4; stroke-opacity:0.7; fill:none" points="725.194,1326.95 725.194,1423.18 797.189,1423.18 797.189,1326.95 725.194,1326.95 "/>
<path clip-path="url(#clip852)" d="M815.187 1224.64 L815.187 1423.18 L887.182 1423.18 L887.182 1224.64 L815.187 1224.64 L815.187 1224.64  Z" fill="#4682b4" fill-rule="evenodd" fill-opacity="0.7"/>
<polyline clip-path="url(#clip852)" style="stroke:#000000; stroke-linecap:round; stroke-linejoin:round; stroke-width:4; stroke-opacity:0.7; fill:none" points="815.187,1224.64 815.187,1423.18 887.182,1423.18 887.182,1224.64 815.187,1224.64 "/>
<path clip-path="url(#clip852)" d="M905.18 1200.69 L905.18 1423.18 L977.174 1423.18 L977.174 1200.69 L905.18 1200.69 L905.18 1200.69  Z" fill="#4682b4" fill-rule="evenodd" fill-opacity="0.7"/>
<polyline clip-path="url(#clip852)" style="stroke:#000000; stroke-linecap:round; stroke-linejoin:round; stroke-width:4; stroke-opacity:0.7; fill:none" points="905.18,1200.69 905.18,1423.18 977.174,1423.18 977.174,1200.69 905.18,1200.69 "/>
<path clip-path="url(#clip852)" d="M995.173 1222.1 L995.173 1423.18 L1067.17 1423.18 L1067.17 1222.1 L995.173 1222.1 L995.173 1222.1  Z" fill="#4682b4" fill-rule="evenodd" fill-opacity="0.7"/>
<polyline clip-path="url(#clip852)" style="stroke:#000000; stroke-linecap:round; stroke-linejoin:round; stroke-width:4; stroke-opacity:0.7; fill:none" points="995.173,1222.1 995.173,1423.18 1067.17,1423.18 1067.17,1222.1 995.173,1222.1 "/>
<path clip-path="url(#clip852)" d="M1085.17 1153.96 L1085.17 1423.18 L1157.16 1423.18 L1157.16 1153.96 L1085.17 1153.96 L1085.17 1153.96  Z" fill="#4682b4" fill-rule="evenodd" fill-opacity="0.7"/>
<polyline clip-path="url(#clip852)" style="stroke:#000000; stroke-linecap:round; stroke-linejoin:round; stroke-width:4; stroke-opacity:0.7; fill:none" points="1085.17,1153.96 1085.17,1423.18 1157.16,1423.18 1157.16,1153.96 1085.17,1153.96 "/>
<path clip-path="url(#clip852)" d="M1175.16 1257.37 L1175.16 1423.18 L1247.15 1423.18 L1247.15 1257.37 L1175.16 1257.37 L1175.16 1257.37  Z" fill="#4682b4" fill-rule="evenodd" fill-opacity="0.7"/>
<polyline clip-path="url(#clip852)" style="stroke:#000000; stroke-linecap:round; stroke-linejoin:round; stroke-width:4; stroke-opacity:0.7; fill:none" points="1175.16,1257.37 1175.16,1423.18 1247.15,1423.18 1247.15,1257.37 1175.16,1257.37 "/>
<path clip-path="url(#clip852)" d="M1265.15 1218.3 L1265.15 1423.18 L1337.15 1423.18 L1337.15 1218.3 L1265.15 1218.3 L1265.15 1218.3  Z" fill="#4682b4" fill-rule="evenodd" fill-opacity="0.7"/>
<polyline clip-path="url(#clip852)" style="stroke:#000000; stroke-linecap:round; stroke-linejoin:round; stroke-width:4; stroke-opacity:0.7; fill:none" points="1265.15,1218.3 1265.15,1423.18 1337.15,1423.18 1337.15,1218.3 1265.15,1218.3 "/>
<path clip-path="url(#clip852)" d="M1355.14 1259.29 L1355.14 1423.18 L1427.14 1423.18 L1427.14 1259.29 L1355.14 1259.29 L1355.14 1259.29  Z" fill="#4682b4" fill-rule="evenodd" fill-opacity="0.7"/>
<polyline clip-path="url(#clip852)" style="stroke:#000000; stroke-linecap:round; stroke-linejoin:round; stroke-width:4; stroke-opacity:0.7; fill:none" points="1355.14,1259.29 1355.14,1423.18 1427.14,1423.18 1427.14,1259.29 1355.14,1259.29 "/>
<path clip-path="url(#clip852)" d="M1445.14 1185.17 L1445.14 1423.18 L1517.13 1423.18 L1517.13 1185.17 L1445.14 1185.17 L1445.14 1185.17  Z" fill="#4682b4" fill-rule="evenodd" fill-opacity="0.7"/>
<polyline clip-path="url(#clip852)" style="stroke:#000000; stroke-linecap:round; stroke-linejoin:round; stroke-width:4; stroke-opacity:0.7; fill:none" points="1445.14,1185.17 1445.14,1423.18 1517.13,1423.18 1517.13,1185.17 1445.14,1185.17 "/>
<path clip-path="url(#clip852)" d="M1535.13 1214.45 L1535.13 1423.18 L1607.12 1423.18 L1607.12 1214.45 L1535.13 1214.45 L1535.13 1214.45  Z" fill="#4682b4" fill-rule="evenodd" fill-opacity="0.7"/>
<polyline clip-path="url(#clip852)" style="stroke:#000000; stroke-linecap:round; stroke-linejoin:round; stroke-width:4; stroke-opacity:0.7; fill:none" points="1535.13,1214.45 1535.13,1423.18 1607.12,1423.18 1607.12,1214.45 1535.13,1214.45 "/>
<path clip-path="url(#clip852)" d="M1625.12 1294.23 L1625.12 1423.18 L1697.12 1423.18 L1697.12 1294.23 L1625.12 1294.23 L1625.12 1294.23  Z" fill="#4682b4" fill-rule="evenodd" fill-opacity="0.7"/>
<polyline clip-path="url(#clip852)" style="stroke:#000000; stroke-linecap:round; stroke-linejoin:round; stroke-width:4; stroke-opacity:0.7; fill:none" points="1625.12,1294.23 1625.12,1423.18 1697.12,1423.18 1697.12,1294.23 1625.12,1294.23 "/>
<path clip-path="url(#clip852)" d="M1715.12 1188.41 L1715.12 1423.18 L1787.11 1423.18 L1787.11 1188.41 L1715.12 1188.41 L1715.12 1188.41  Z" fill="#4682b4" fill-rule="evenodd" fill-opacity="0.7"/>
<polyline clip-path="url(#clip852)" style="stroke:#000000; stroke-linecap:round; stroke-linejoin:round; stroke-width:4; stroke-opacity:0.7; fill:none" points="1715.12,1188.41 1715.12,1423.18 1787.11,1423.18 1787.11,1188.41 1715.12,1188.41 "/>
<path clip-path="url(#clip852)" d="M1805.11 1214.38 L1805.11 1423.18 L1877.1 1423.18 L1877.1 1214.38 L1805.11 1214.38 L1805.11 1214.38  Z" fill="#4682b4" fill-rule="evenodd" fill-opacity="0.7"/>
<polyline clip-path="url(#clip852)" style="stroke:#000000; stroke-linecap:round; stroke-linejoin:round; stroke-width:4; stroke-opacity:0.7; fill:none" points="1805.11,1214.38 1805.11,1423.18 1877.1,1423.18 1877.1,1214.38 1805.11,1214.38 "/>
<path clip-path="url(#clip852)" d="M1895.1 1272.83 L1895.1 1423.18 L1967.1 1423.18 L1967.1 1272.83 L1895.1 1272.83 L1895.1 1272.83  Z" fill="#4682b4" fill-rule="evenodd" fill-opacity="0.7"/>
<polyline clip-path="url(#clip852)" style="stroke:#000000; stroke-linecap:round; stroke-linejoin:round; stroke-width:4; stroke-opacity:0.7; fill:none" points="1895.1,1272.83 1895.1,1423.18 1967.1,1423.18 1967.1,1272.83 1895.1,1272.83 "/>
<path clip-path="url(#clip852)" d="M1985.1 1250.65 L1985.1 1423.18 L2057.09 1423.18 L2057.09 1250.65 L1985.1 1250.65 L1985.1 1250.65  Z" fill="#4682b4" fill-rule="evenodd" fill-opacity="0.7"/>
<polyline clip-path="url(#clip852)" style="stroke:#000000; stroke-linecap:round; stroke-linejoin:round; stroke-width:4; stroke-opacity:0.7; fill:none" points="1985.1,1250.65 1985.1,1423.18 2057.09,1423.18 2057.09,1250.65 1985.1,1250.65 "/>
<path clip-path="url(#clip852)" d="M2075.09 1279.7 L2075.09 1423.18 L2147.08 1423.18 L2147.08 1279.7 L2075.09 1279.7 L2075.09 1279.7  Z" fill="#4682b4" fill-rule="evenodd" fill-opacity="0.7"/>
<polyline clip-path="url(#clip852)" style="stroke:#000000; stroke-linecap:round; stroke-linejoin:round; stroke-width:4; stroke-opacity:0.7; fill:none" points="2075.09,1279.7 2075.09,1423.18 2147.08,1423.18 2147.08,1279.7 2075.09,1279.7 "/>
<path clip-path="url(#clip852)" d="M2165.08 106.192 L2165.08 1423.18 L2237.08 1423.18 L2237.08 106.192 L2165.08 106.192 L2165.08 106.192  Z" fill="#4682b4" fill-rule="evenodd" fill-opacity="0.7"/>
<polyline clip-path="url(#clip852)" style="stroke:#000000; stroke-linecap:round; stroke-linejoin:round; stroke-width:4; stroke-opacity:0.7; fill:none" points="2165.08,106.192 2165.08,1423.18 2237.08,1423.18 2237.08,106.192 2165.08,106.192 "/>
<circle clip-path="url(#clip852)" style="fill:#4682b4; stroke:none; fill-opacity:0" cx="401.22" cy="813.387" r="2"/>
<circle clip-path="url(#clip852)" style="fill:#4682b4; stroke:none; fill-opacity:0" cx="491.213" cy="1244.22" r="2"/>
<circle clip-path="url(#clip852)" style="fill:#4682b4; stroke:none; fill-opacity:0" cx="581.206" cy="1310.59" r="2"/>
<circle clip-path="url(#clip852)" style="fill:#4682b4; stroke:none; fill-opacity:0" cx="671.198" cy="1329.46" r="2"/>
<circle clip-path="url(#clip852)" style="fill:#4682b4; stroke:none; fill-opacity:0" cx="761.191" cy="1326.95" r="2"/>
<circle clip-path="url(#clip852)" style="fill:#4682b4; stroke:none; fill-opacity:0" cx="851.184" cy="1224.64" r="2"/>
<circle clip-path="url(#clip852)" style="fill:#4682b4; stroke:none; fill-opacity:0" cx="941.177" cy="1200.69" r="2"/>
<circle clip-path="url(#clip852)" style="fill:#4682b4; stroke:none; fill-opacity:0" cx="1031.17" cy="1222.1" r="2"/>
<circle clip-path="url(#clip852)" style="fill:#4682b4; stroke:none; fill-opacity:0" cx="1121.16" cy="1153.96" r="2"/>
<circle clip-path="url(#clip852)" style="fill:#4682b4; stroke:none; fill-opacity:0" cx="1211.16" cy="1257.37" r="2"/>
<circle clip-path="url(#clip852)" style="fill:#4682b4; stroke:none; fill-opacity:0" cx="1301.15" cy="1218.3" r="2"/>
<circle clip-path="url(#clip852)" style="fill:#4682b4; stroke:none; fill-opacity:0" cx="1391.14" cy="1259.29" r="2"/>
<circle clip-path="url(#clip852)" style="fill:#4682b4; stroke:none; fill-opacity:0" cx="1481.13" cy="1185.17" r="2"/>
<circle clip-path="url(#clip852)" style="fill:#4682b4; stroke:none; fill-opacity:0" cx="1571.13" cy="1214.45" r="2"/>
<circle clip-path="url(#clip852)" style="fill:#4682b4; stroke:none; fill-opacity:0" cx="1661.12" cy="1294.23" r="2"/>
<circle clip-path="url(#clip852)" style="fill:#4682b4; stroke:none; fill-opacity:0" cx="1751.11" cy="1188.41" r="2"/>
<circle clip-path="url(#clip852)" style="fill:#4682b4; stroke:none; fill-opacity:0" cx="1841.11" cy="1214.38" r="2"/>
<circle clip-path="url(#clip852)" style="fill:#4682b4; stroke:none; fill-opacity:0" cx="1931.1" cy="1272.83" r="2"/>
<circle clip-path="url(#clip852)" style="fill:#4682b4; stroke:none; fill-opacity:0" cx="2021.09" cy="1250.65" r="2"/>
<circle clip-path="url(#clip852)" style="fill:#4682b4; stroke:none; fill-opacity:0" cx="2111.09" cy="1279.7" r="2"/>
<circle clip-path="url(#clip852)" style="fill:#4682b4; stroke:none; fill-opacity:0" cx="2201.08" cy="106.192" r="2"/>
</svg>
