<?xml version="1.0" encoding="utf-8"?>
<svg xmlns="http://www.w3.org/2000/svg" xmlns:xlink="http://www.w3.org/1999/xlink" width="600" height="400" viewBox="0 0 2400 1600">
<defs>
  <clipPath id="clip290">
    <rect x="0" y="0" width="2400" height="1600"/>
  </clipPath>
</defs>
<path clip-path="url(#clip290)" d="M0 1600 L2400 1600 L2400 8.88178e-14 L0 8.88178e-14  Z" fill="#ffffff" fill-rule="evenodd" fill-opacity="1"/>
<defs>
  <clipPath id="clip291">
    <rect x="259" y="0" width="1844" height="1563"/>
  </clipPath>
</defs>
<path clip-path="url(#clip290)" d="M175.445 1423.18 L2352.76 1423.18 L2352.76 106.192 L175.445 106.192  Z" fill="#ffffff" fill-rule="evenodd" fill-opacity="1"/>
<defs>
  <clipPath id="clip292">
    <rect x="175" y="106" width="2178" height="1318"/>
  </clipPath>
</defs>
<polyline clip-path="url(#clip292)" style="stroke:#000000; stroke-linecap:round; stroke-linejoin:round; stroke-width:2; stroke-opacity:0.1; fill:none" points="239.303,1423.18 239.303,106.192 "/>
<polyline clip-path="url(#clip292)" style="stroke:#000000; stroke-linecap:round; stroke-linejoin:round; stroke-width:2; stroke-opacity:0.1; fill:none" points="705.12,1423.18 705.12,106.192 "/>
<polyline clip-path="url(#clip292)" style="stroke:#000000; stroke-linecap:round; stroke-linejoin:round; stroke-width:2; stroke-opacity:0.1; fill:none" points="1170.94,1423.18 1170.94,106.192 "/>
<polyline clip-path="url(#clip292)" style="stroke:#000000; stroke-linecap:round; stroke-linejoin:round; stroke-width:2; stroke-opacity:0.1; fill:none" points="1636.75,1423.18 1636.75,106.192 "/>
<polyline clip-path="url(#clip292)" style="stroke:#000000; stroke-linecap:round; stroke-linejoin:round; stroke-width:2; stroke-opacity:0.1; fill:none" points="2102.57,1423.18 2102.57,106.192 "/>
<polyline clip-path="url(#clip292)" style="stroke:#000000; stroke-linecap:round; stroke-linejoin:round; stroke-width:2; stroke-opacity:0.1; fill:none" points="175.445,1423.18 2352.76,1423.18 "/>
<polyline clip-path="url(#clip292)" style="stroke:#000000; stroke-linecap:round; stroke-linejoin:round; stroke-width:2; stroke-opacity:0.1; fill:none" points="175.445,1078.88 2352.76,1078.88 "/>
<polyline clip-path="url(#clip292)" style="stroke:#000000; stroke-linecap:round; stroke-linejoin:round; stroke-width:2; stroke-opacity:0.1; fill:none" points="175.445,734.572 2352.76,734.572 "/>
<polyline clip-path="url(#clip292)" style="stroke:#000000; stroke-linecap:round; stroke-linejoin:round; stroke-width:2; stroke-opacity:0.1; fill:none" points="175.445,390.269 2352.76,390.269 "/>
<polyline clip-path="url(#clip290)" style="stroke:#000000; stroke-linecap:round; stroke-linejoin:round; stroke-width:4; stroke-opacity:1; fill:none" points="175.445,1423.18 2352.76,1423.18 "/>
<polyline clip-path="url(#clip290)" style="stroke:#000000; stroke-linecap:round; stroke-linejoin:round; stroke-width:4; stroke-opacity:1; fill:none" points="239.303,1423.18 239.303,1404.28 "/>
<polyline clip-path="url(#clip290)" style="stroke:#000000; stroke-linecap:round; stroke-linejoin:round; stroke-width:4; stroke-opacity:1; fill:none" points="705.12,1423.18 705.12,1404.28 "/>
<polyline clip-path="url(#clip290)" style="stroke:#000000; stroke-linecap:round; stroke-linejoin:round; stroke-width:4; stroke-opacity:1; fill:none" points="1170.94,1423.18 1170.94,1404.28 "/>
<polyline clip-path="url(#clip290)" style="stroke:#000000; stroke-linecap:round; stroke-linejoin:round; stroke-width:4; stroke-opacity:1; fill:none" points="1636.75,1423.18 1636.75,1404.28 "/>
<polyline clip-path="url(#clip290)" style="stroke:#000000; stroke-linecap:round; stroke-linejoin:round; stroke-width:4; stroke-opacity:1; fill:none" points="2102.57,1423.18 2102.57,1404.28 "/>
<path clip-path="url(#clip290)" d="M239.303 1454.1 Q235.692 1454.1 233.863 1457.66 Q232.058 1461.2 232.058 1468.33 Q232.058 1475.44 233.863 1479.01 Q235.692 1482.55 239.303 1482.55 Q242.937 1482.55 244.743 1479.01 Q246.572 1475.44 246.572 1468.33 Q246.572 1461.2 244.743 1457.66 Q242.937 1454.1 239.303 1454.1 M239.303 1450.39 Q245.113 1450.39 248.169 1455 Q251.248 1459.58 251.248 1468.33 Q251.248 1477.06 248.169 1481.67 Q245.113 1486.25 239.303 1486.25 Q233.493 1486.25 230.414 1481.67 Q227.359 1477.06 227.359 1468.33 Q227.359 1459.58 230.414 1455 Q233.493 1450.39 239.303 1450.39 Z" fill="#000000" fill-rule="nonzero" fill-opacity="1" /><path clip-path="url(#clip290)" d="M695.398 1451.02 L713.754 1451.02 L713.754 1454.96 L699.68 1454.96 L699.68 1463.43 Q700.699 1463.08 701.717 1462.92 Q702.736 1462.73 703.754 1462.73 Q709.541 1462.73 712.921 1465.9 Q716.301 1469.08 716.301 1474.49 Q716.301 1480.07 712.828 1483.17 Q709.356 1486.25 703.037 1486.25 Q700.861 1486.25 698.592 1485.88 Q696.347 1485.51 693.94 1484.77 L693.94 1480.07 Q696.023 1481.2 698.245 1481.76 Q700.467 1482.32 702.944 1482.32 Q706.949 1482.32 709.287 1480.21 Q711.625 1478.1 711.625 1474.49 Q711.625 1470.88 709.287 1468.77 Q706.949 1466.67 702.944 1466.67 Q701.069 1466.67 699.194 1467.08 Q697.342 1467.5 695.398 1468.38 L695.398 1451.02 Z" fill="#000000" fill-rule="nonzero" fill-opacity="1" /><path clip-path="url(#clip290)" d="M1145.62 1481.64 L1153.26 1481.64 L1153.26 1455.28 L1144.95 1456.95 L1144.95 1452.69 L1153.22 1451.02 L1157.89 1451.02 L1157.89 1481.64 L1165.53 1481.64 L1165.53 1485.58 L1145.62 1485.58 L1145.62 1481.64 Z" fill="#000000" fill-rule="nonzero" fill-opacity="1" /><path clip-path="url(#clip290)" d="M1184.98 1454.1 Q1181.37 1454.1 1179.54 1457.66 Q1177.73 1461.2 1177.73 1468.33 Q1177.73 1475.44 1179.54 1479.01 Q1181.37 1482.55 1184.98 1482.55 Q1188.61 1482.55 1190.42 1479.01 Q1192.24 1475.44 1192.24 1468.33 Q1192.24 1461.2 1190.42 1457.66 Q1188.61 1454.1 1184.98 1454.1 M1184.98 1450.39 Q1190.79 1450.39 1193.84 1455 Q1196.92 1459.58 1196.92 1468.33 Q1196.92 1477.06 1193.84 1481.67 Q1190.79 1486.25 1184.98 1486.25 Q1179.17 1486.25 1176.09 1481.67 Q1173.03 1477.06 1173.03 1468.33 Q1173.03 1459.58 1176.09 1455 Q1179.17 1450.39 1184.98 1450.39 Z" fill="#000000" fill-rule="nonzero" fill-opacity="1" /><path clip-path="url(#clip290)" d="M1611.94 1481.64 L1619.58 1481.64 L1619.58 1455.28 L1611.27 1456.95 L1611.27 1452.69 L1619.53 1451.02 L1624.21 1451.02 L1624.21 1481.64 L1631.85 1481.64 L1631.85 1485.58 L1611.94 1485.58 L1611.94 1481.64 Z" fill="#000000" fill-rule="nonzero" fill-opacity="1" /><path clip-path="url(#clip290)" d="M1641.34 1451.02 L1659.69 1451.02 L1659.69 1454.96 L1645.62 1454.96 L1645.62 1463.43 Q1646.64 1463.08 1647.66 1462.92 Q1648.68 1462.73 1649.69 1462.73 Q1655.48 1462.73 1658.86 1465.9 Q1662.24 1469.08 1662.24 1474.49 Q1662.24 1480.07 1658.77 1483.17 Q1655.3 1486.25 1648.98 1486.25 Q1646.8 1486.25 1644.53 1485.88 Q1642.29 1485.51 1639.88 1484.77 L1639.88 1480.07 Q1641.96 1481.2 1644.18 1481.76 Q1646.41 1482.32 1648.88 1482.32 Q1652.89 1482.32 1655.23 1480.21 Q1657.56 1478.1 1657.56 1474.49 Q1657.56 1470.88 1655.23 1468.77 Q1652.89 1466.67 1648.88 1466.67 Q1647.01 1466.67 1645.13 1467.08 Q1643.28 1467.5 1641.34 1468.38 L1641.34 1451.02 Z" fill="#000000" fill-rule="nonzero" fill-opacity="1" /><path clip-path="url(#clip290)" d="M2081.34 1481.64 L2097.66 1481.64 L2097.66 1485.58 L2075.72 1485.58 L2075.72 1481.64 Q2078.38 1478.89 2082.96 1474.26 Q2087.57 1469.61 2088.75 1468.27 Q2091 1465.74 2091.88 1464.01 Q2092.78 1462.25 2092.78 1460.56 Q2092.78 1457.8 2090.84 1456.07 Q2088.91 1454.33 2085.81 1454.33 Q2083.61 1454.33 2081.16 1455.09 Q2078.73 1455.86 2075.95 1457.41 L2075.95 1452.69 Q2078.78 1451.55 2081.23 1450.97 Q2083.68 1450.39 2085.72 1450.39 Q2091.09 1450.39 2094.28 1453.08 Q2097.48 1455.77 2097.48 1460.26 Q2097.48 1462.39 2096.67 1464.31 Q2095.88 1466.2 2093.77 1468.8 Q2093.2 1469.47 2090.09 1472.69 Q2086.99 1475.88 2081.34 1481.64 Z" fill="#000000" fill-rule="nonzero" fill-opacity="1" /><path clip-path="url(#clip290)" d="M2117.48 1454.1 Q2113.87 1454.1 2112.04 1457.66 Q2110.23 1461.2 2110.23 1468.33 Q2110.23 1475.44 2112.04 1479.01 Q2113.87 1482.55 2117.48 1482.55 Q2121.11 1482.55 2122.92 1479.01 Q2124.75 1475.44 2124.75 1468.33 Q2124.75 1461.2 2122.92 1457.66 Q2121.11 1454.1 2117.48 1454.1 M2117.48 1450.39 Q2123.29 1450.39 2126.34 1455 Q2129.42 1459.58 2129.42 1468.33 Q2129.42 1477.06 2126.34 1481.67 Q2123.29 1486.25 2117.48 1486.25 Q2111.67 1486.25 2108.59 1481.67 Q2105.53 1477.06 2105.53 1468.33 Q2105.53 1459.58 2108.59 1455 Q2111.67 1450.39 2117.48 1450.39 Z" fill="#000000" fill-rule="nonzero" fill-opacity="1" /><path clip-path="url(#clip290)" d="M1212.3 1522.08 L1212.3 1528.35 Q1208.64 1526.6 1205.39 1525.74 Q1202.15 1524.88 1199.12 1524.88 Q1193.87 1524.88 1191.01 1526.92 Q1188.17 1528.96 1188.17 1532.71 Q1188.17 1535.87 1190.05 1537.49 Q1191.96 1539.08 1197.24 1540.07 L1201.13 1540.86 Q1208.32 1542.23 1211.73 1545.7 Q1215.16 1549.14 1215.16 1554.93 Q1215.16 1561.84 1210.52 1565.4 Q1205.9 1568.97 1196.96 1568.97 Q1193.58 1568.97 1189.77 1568.2 Q1185.98 1567.44 1181.9 1565.94 L1181.9 1559.32 Q1185.82 1561.52 1189.57 1562.63 Q1193.33 1563.75 1196.96 1563.75 Q1202.46 1563.75 1205.46 1561.58 Q1208.45 1559.42 1208.45 1555.41 Q1208.45 1551.91 1206.28 1549.93 Q1204.15 1547.96 1199.25 1546.97 L1195.34 1546.21 Q1188.14 1544.78 1184.93 1541.72 Q1181.71 1538.67 1181.71 1533.22 Q1181.71 1526.92 1186.14 1523.29 Q1190.59 1519.66 1198.39 1519.66 Q1201.73 1519.66 1205.2 1520.27 Q1208.67 1520.87 1212.3 1522.08 Z" fill="#000000" fill-rule="nonzero" fill-opacity="1" /><path clip-path="url(#clip290)" d="M1230.73 1522.27 L1230.73 1532.4 L1242.79 1532.4 L1242.79 1536.95 L1230.73 1536.95 L1230.73 1556.3 Q1230.73 1560.66 1231.91 1561.9 Q1233.12 1563.14 1236.78 1563.14 L1242.79 1563.14 L1242.79 1568.04 L1236.78 1568.04 Q1230 1568.04 1227.42 1565.53 Q1224.84 1562.98 1224.84 1556.3 L1224.84 1536.95 L1220.54 1536.95 L1220.54 1532.4 L1224.84 1532.4 L1224.84 1522.27 L1230.73 1522.27 Z" fill="#000000" fill-rule="nonzero" fill-opacity="1" /><path clip-path="url(#clip290)" d="M1266.69 1550.12 Q1259.6 1550.12 1256.86 1551.75 Q1254.12 1553.37 1254.12 1557.29 Q1254.12 1560.4 1256.16 1562.25 Q1258.23 1564.07 1261.76 1564.07 Q1266.63 1564.07 1269.56 1560.63 Q1272.52 1557.16 1272.52 1551.43 L1272.52 1550.12 L1266.69 1550.12 M1278.38 1547.71 L1278.38 1568.04 L1272.52 1568.04 L1272.52 1562.63 Q1270.51 1565.88 1267.52 1567.44 Q1264.53 1568.97 1260.2 1568.97 Q1254.73 1568.97 1251.48 1565.91 Q1248.27 1562.82 1248.27 1557.67 Q1248.27 1551.65 1252.28 1548.6 Q1256.32 1545.54 1264.31 1545.54 L1272.52 1545.54 L1272.52 1544.97 Q1272.52 1540.93 1269.85 1538.73 Q1267.2 1536.5 1262.4 1536.5 Q1259.34 1536.5 1256.45 1537.23 Q1253.55 1537.97 1250.88 1539.43 L1250.88 1534.02 Q1254.09 1532.78 1257.11 1532.17 Q1260.14 1531.54 1263 1531.54 Q1270.74 1531.54 1274.56 1535.55 Q1278.38 1539.56 1278.38 1547.71 Z" fill="#000000" fill-rule="nonzero" fill-opacity="1" /><path clip-path="url(#clip290)" d="M1296.23 1522.27 L1296.23 1532.4 L1308.29 1532.4 L1308.29 1536.95 L1296.23 1536.95 L1296.23 1556.3 Q1296.23 1560.66 1297.41 1561.9 Q1298.62 1563.14 1302.28 1563.14 L1308.29 1563.14 L1308.29 1568.04 L1302.28 1568.04 Q1295.5 1568.04 1292.92 1565.53 Q1290.34 1562.98 1290.34 1556.3 L1290.34 1536.95 L1286.05 1536.95 L1286.05 1532.4 L1290.34 1532.4 L1290.34 1522.27 L1296.23 1522.27 Z" fill="#000000" fill-rule="nonzero" fill-opacity="1" /><path clip-path="url(#clip290)" d="M1346.49 1548.76 L1346.49 1551.62 L1319.56 1551.62 Q1319.94 1557.67 1323.19 1560.85 Q1326.47 1564 1332.29 1564 Q1335.67 1564 1338.82 1563.17 Q1342 1562.35 1345.12 1560.69 L1345.12 1566.23 Q1341.97 1567.57 1338.66 1568.27 Q1335.35 1568.97 1331.94 1568.97 Q1323.41 1568.97 1318.42 1564 Q1313.45 1559.04 1313.45 1550.57 Q1313.45 1541.82 1318.16 1536.69 Q1322.9 1531.54 1330.92 1531.54 Q1338.12 1531.54 1342.29 1536.18 Q1346.49 1540.8 1346.49 1548.76 M1340.63 1547.04 Q1340.57 1542.23 1337.93 1539.37 Q1335.32 1536.5 1330.99 1536.5 Q1326.09 1536.5 1323.13 1539.27 Q1320.2 1542.04 1319.75 1547.07 L1340.63 1547.04 Z" fill="#000000" fill-rule="nonzero" fill-opacity="1" /><polyline clip-path="url(#clip290)" style="stroke:#000000; stroke-linecap:round; stroke-linejoin:round; stroke-width:4; stroke-opacity:1; fill:none" points="175.445,1423.18 175.445,106.192 "/>
<polyline clip-path="url(#clip290)" style="stroke:#000000; stroke-linecap:round; stroke-linejoin:round; stroke-width:4; stroke-opacity:1; fill:none" points="175.445,1423.18 194.343,1423.18 "/>
<polyline clip-path="url(#clip290)" style="stroke:#000000; stroke-linecap:round; stroke-linejoin:round; stroke-width:4; stroke-opacity:1; fill:none" points="175.445,1078.88 194.343,1078.88 "/>
<polyline clip-path="url(#clip290)" style="stroke:#000000; stroke-linecap:round; stroke-linejoin:round; stroke-width:4; stroke-opacity:1; fill:none" points="175.445,734.572 194.343,734.572 "/>
<polyline clip-path="url(#clip290)" style="stroke:#000000; stroke-linecap:round; stroke-linejoin:round; stroke-width:4; stroke-opacity:1; fill:none" points="175.445,390.269 194.343,390.269 "/>
<path clip-path="url(#clip290)" d="M127.501 1408.98 Q123.89 1408.98 122.061 1412.54 Q120.255 1416.08 120.255 1423.21 Q120.255 1430.32 122.061 1433.89 Q123.89 1437.43 127.501 1437.43 Q131.135 1437.43 132.941 1433.89 Q134.769 1430.32 134.769 1423.21 Q134.769 1416.08 132.941 1412.54 Q131.135 1408.98 127.501 1408.98 M127.501 1405.27 Q133.311 1405.27 136.367 1409.88 Q139.445 1414.46 139.445 1423.21 Q139.445 1431.94 136.367 1436.55 Q133.311 1441.13 127.501 1441.13 Q121.691 1441.13 118.612 1436.55 Q115.556 1431.94 115.556 1423.21 Q115.556 1414.46 118.612 1409.88 Q121.691 1405.27 127.501 1405.27 Z" fill="#000000" fill-rule="nonzero" fill-opacity="1" /><path clip-path="url(#clip290)" d="M123.126 1092.22 L139.445 1092.22 L139.445 1096.16 L117.501 1096.16 L117.501 1092.22 Q120.163 1089.47 124.746 1084.84 Q129.353 1080.18 130.533 1078.84 Q132.779 1076.32 133.658 1074.58 Q134.561 1072.82 134.561 1071.13 Q134.561 1068.38 132.617 1066.64 Q130.695 1064.91 127.593 1064.91 Q125.394 1064.91 122.941 1065.67 Q120.51 1066.43 117.732 1067.99 L117.732 1063.26 Q120.556 1062.13 123.01 1061.55 Q125.464 1060.97 127.501 1060.97 Q132.871 1060.97 136.066 1063.66 Q139.26 1066.34 139.26 1070.83 Q139.26 1072.96 138.45 1074.88 Q137.663 1076.78 135.556 1079.37 Q134.978 1080.05 131.876 1083.26 Q128.774 1086.46 123.126 1092.22 Z" fill="#000000" fill-rule="nonzero" fill-opacity="1" /><path clip-path="url(#clip290)" d="M129.862 721.367 L118.056 739.815 L129.862 739.815 L129.862 721.367 M128.635 717.292 L134.515 717.292 L134.515 739.815 L139.445 739.815 L139.445 743.704 L134.515 743.704 L134.515 751.852 L129.862 751.852 L129.862 743.704 L114.26 743.704 L114.26 739.19 L128.635 717.292 Z" fill="#000000" fill-rule="nonzero" fill-opacity="1" /><path clip-path="url(#clip290)" d="M127.917 388.405 Q124.769 388.405 122.918 390.558 Q121.089 392.711 121.089 396.461 Q121.089 400.188 122.918 402.364 Q124.769 404.516 127.917 404.516 Q131.066 404.516 132.894 402.364 Q134.746 400.188 134.746 396.461 Q134.746 392.711 132.894 390.558 Q131.066 388.405 127.917 388.405 M137.2 373.753 L137.2 378.012 Q135.441 377.179 133.635 376.739 Q131.853 376.299 130.093 376.299 Q125.464 376.299 123.01 379.424 Q120.58 382.549 120.232 388.868 Q121.598 386.854 123.658 385.79 Q125.718 384.702 128.195 384.702 Q133.404 384.702 136.413 387.873 Q139.445 391.021 139.445 396.461 Q139.445 401.785 136.297 405.002 Q133.149 408.22 127.917 408.22 Q121.922 408.22 118.751 403.637 Q115.58 399.03 115.58 390.303 Q115.58 382.109 119.468 377.248 Q123.357 372.364 129.908 372.364 Q131.667 372.364 133.45 372.711 Q135.255 373.058 137.2 373.753 Z" fill="#000000" fill-rule="nonzero" fill-opacity="1" /><path clip-path="url(#clip290)" d="M18.0438 821.548 L24.314 821.548 Q22.5634 825.208 21.704 828.454 Q20.8447 831.701 20.8447 834.725 Q20.8447 839.976 22.8817 842.841 Q24.9187 845.674 28.6745 845.674 Q31.8255 845.674 33.4488 843.796 Q35.0402 841.886 36.0269 836.603 L36.8226 832.719 Q38.1912 825.526 41.6605 822.121 Q45.098 818.683 50.8908 818.683 Q57.7976 818.683 61.3624 823.33 Q64.9272 827.945 64.9272 836.889 Q64.9272 840.263 64.1633 844.082 Q63.3994 847.87 61.9035 851.944 L55.2831 851.944 Q57.4793 848.029 58.5933 844.273 Q59.7073 840.517 59.7073 836.889 Q59.7073 831.383 57.543 828.391 Q55.3786 825.399 51.3682 825.399 Q47.8671 825.399 45.8937 827.563 Q43.9204 829.696 42.9337 834.597 L42.1698 838.512 Q40.7375 845.706 37.682 848.92 Q34.6264 852.135 29.1837 852.135 Q22.8817 852.135 19.2532 847.711 Q15.6248 843.255 15.6248 835.457 Q15.6248 832.115 16.2295 828.645 Q16.8343 825.176 18.0438 821.548 Z" fill="#000000" fill-rule="nonzero" fill-opacity="1" /><path clip-path="url(#clip290)" d="M18.2347 803.119 L28.3562 803.119 L28.3562 791.056 L32.9077 791.056 L32.9077 803.119 L52.2594 803.119 Q56.6199 803.119 57.8613 801.941 Q59.1026 800.732 59.1026 797.072 L59.1026 791.056 L64.0042 791.056 L64.0042 797.072 Q64.0042 803.851 61.4897 806.429 Q58.9434 809.007 52.2594 809.007 L32.9077 809.007 L32.9077 813.304 L28.3562 813.304 L28.3562 809.007 L18.2347 809.007 L18.2347 803.119 Z" fill="#000000" fill-rule="nonzero" fill-opacity="1" /><path clip-path="url(#clip290)" d="M44.7161 752.862 L47.5806 752.862 L47.5806 779.789 Q53.6281 779.407 56.8109 776.16 Q59.9619 772.882 59.9619 767.057 Q59.9619 763.683 59.1344 760.532 Q58.3069 757.35 56.6518 754.23 L62.1899 754.23 Q63.5267 757.381 64.227 760.692 Q64.9272 764.002 64.9272 767.407 Q64.9272 775.937 59.9619 780.934 Q54.9967 785.9 46.5303 785.9 Q37.7774 785.9 32.6531 781.189 Q27.4968 776.447 27.4968 768.426 Q27.4968 761.233 32.1438 757.063 Q36.7589 752.862 44.7161 752.862 M42.9973 758.718 Q38.1912 758.782 35.3266 761.424 Q32.4621 764.033 32.4621 768.362 Q32.4621 773.264 35.2312 776.224 Q38.0002 779.152 43.0292 779.598 L42.9973 758.718 Z" fill="#000000" fill-rule="nonzero" fill-opacity="1" /><path clip-path="url(#clip290)" d="M58.657 737.584 L77.5631 737.584 L77.5631 743.472 L28.3562 743.472 L28.3562 737.584 L33.7671 737.584 Q30.5842 735.738 29.0564 732.937 Q27.4968 730.104 27.4968 726.189 Q27.4968 719.696 32.6531 715.654 Q37.8093 711.58 46.212 711.58 Q54.6147 711.58 59.771 715.654 Q64.9272 719.696 64.9272 726.189 Q64.9272 730.104 63.3994 732.937 Q61.8398 735.738 58.657 737.584 M46.212 717.659 Q39.7508 717.659 36.0905 720.333 Q32.3984 722.975 32.3984 727.622 Q32.3984 732.269 36.0905 734.942 Q39.7508 737.584 46.212 737.584 Q52.6732 737.584 56.3653 734.942 Q60.0256 732.269 60.0256 727.622 Q60.0256 722.975 56.3653 720.333 Q52.6732 717.659 46.212 717.659 Z" fill="#000000" fill-rule="nonzero" fill-opacity="1" /><path clip-path="url(#clip290)" d="M29.4065 679.147 L34.9447 679.147 Q33.6716 681.629 33.035 684.303 Q32.3984 686.977 32.3984 689.841 Q32.3984 694.202 33.7352 696.398 Q35.072 698.562 37.7456 698.562 Q39.7826 698.562 40.9603 697.003 Q42.1061 695.443 43.1565 690.732 L43.6021 688.727 Q44.9389 682.489 47.3897 679.879 Q49.8086 677.237 54.1691 677.237 Q59.1344 677.237 62.0308 681.184 Q64.9272 685.099 64.9272 691.974 Q64.9272 694.838 64.3543 697.957 Q63.8132 701.045 62.6992 704.482 L56.6518 704.482 Q58.3387 701.236 59.198 698.085 Q60.0256 694.934 60.0256 691.846 Q60.0256 687.709 58.6251 685.481 Q57.1929 683.253 54.6147 683.253 Q52.2276 683.253 50.9545 684.876 Q49.6813 686.467 48.5037 691.91 L48.0262 693.947 Q46.8804 699.39 44.5251 701.809 Q42.138 704.228 38.0002 704.228 Q32.9713 704.228 30.2341 700.663 Q27.4968 697.098 27.4968 690.541 Q27.4968 687.295 27.9743 684.43 Q28.4517 681.566 29.4065 679.147 Z" fill="#000000" fill-rule="nonzero" fill-opacity="1" /><path clip-path="url(#clip290)" d="M787.193 8.64 L795.064 8.64 L814.219 44.7799 L814.219 8.64 L819.89 8.64 L819.89 51.84 L812.02 51.84 L792.865 15.7001 L792.865 51.84 L787.193 51.84 L787.193 8.64 Z" fill="#000000" fill-rule="nonzero" fill-opacity="1" /><path clip-path="url(#clip290)" d="M846.018 35.5496 Q839.566 35.5496 837.077 37.0253 Q834.589 38.501 834.589 42.06 Q834.589 44.8956 836.441 46.5738 Q838.322 48.2231 841.533 48.2231 Q845.96 48.2231 848.622 45.0981 Q851.313 41.9442 851.313 36.7359 L851.313 35.5496 L846.018 35.5496 M856.637 33.3505 L856.637 51.84 L851.313 51.84 L851.313 46.921 Q849.491 49.8724 846.771 51.2902 Q844.051 52.6791 840.116 52.6791 Q835.139 52.6791 832.187 49.9014 Q829.265 47.0947 829.265 42.4072 Q829.265 36.9385 832.911 34.1607 Q836.585 31.3829 843.848 31.3829 L851.313 31.3829 L851.313 30.8621 Q851.313 27.1874 848.883 25.1908 Q846.481 23.1654 842.112 23.1654 Q839.334 23.1654 836.701 23.8309 Q834.068 24.4964 831.638 25.8274 L831.638 20.9085 Q834.56 19.78 837.309 19.2302 Q840.058 18.6515 842.662 18.6515 Q849.693 18.6515 853.165 22.2973 Q856.637 25.9431 856.637 33.3505 Z" fill="#000000" fill-rule="nonzero" fill-opacity="1" /><path clip-path="url(#clip290)" d="M872.87 10.2314 L872.87 19.4328 L883.836 19.4328 L883.836 23.5705 L872.87 23.5705 L872.87 41.163 Q872.87 45.1271 873.941 46.2555 Q875.04 47.384 878.368 47.384 L883.836 47.384 L883.836 51.84 L878.368 51.84 Q872.205 51.84 869.861 49.5541 Q867.517 47.2393 867.517 41.163 L867.517 23.5705 L863.611 23.5705 L863.611 19.4328 L867.517 19.4328 L867.517 10.2314 L872.87 10.2314 Z" fill="#000000" fill-rule="nonzero" fill-opacity="1" /><path clip-path="url(#clip290)" d="M890.289 39.0507 L890.289 19.4328 L895.613 19.4328 L895.613 38.8482 Q895.613 43.4488 897.407 45.7636 Q899.201 48.0495 902.789 48.0495 Q907.1 48.0495 909.589 45.3007 Q912.106 42.5519 912.106 37.8065 L912.106 19.4328 L917.43 19.4328 L917.43 51.84 L912.106 51.84 L912.106 46.8632 Q910.167 49.8145 907.592 51.2613 Q905.046 52.6791 901.66 52.6791 Q896.076 52.6791 893.182 49.2069 Q890.289 45.7347 890.289 39.0507 M903.686 18.6515 L903.686 18.6515 Z" fill="#000000" fill-rule="nonzero" fill-opacity="1" /><path clip-path="url(#clip290)" d="M947.175 24.4096 Q946.278 23.8888 945.208 23.6573 Q944.166 23.3969 942.893 23.3969 Q938.379 23.3969 935.948 26.3482 Q933.547 29.2707 933.547 34.7683 L933.547 51.84 L928.194 51.84 L928.194 19.4328 L933.547 19.4328 L933.547 24.4675 Q935.225 21.5161 937.916 20.0983 Q940.607 18.6515 944.455 18.6515 Q945.005 18.6515 945.671 18.7383 Q946.336 18.7962 947.146 18.9409 L947.175 24.4096 Z" fill="#000000" fill-rule="nonzero" fill-opacity="1" /><path clip-path="url(#clip290)" d="M967.488 35.5496 Q961.035 35.5496 958.547 37.0253 Q956.058 38.501 956.058 42.06 Q956.058 44.8956 957.91 46.5738 Q959.791 48.2231 963.003 48.2231 Q967.43 48.2231 970.092 45.0981 Q972.783 41.9442 972.783 36.7359 L972.783 35.5496 L967.488 35.5496 M978.107 33.3505 L978.107 51.84 L972.783 51.84 L972.783 46.921 Q970.96 49.8724 968.24 51.2902 Q965.52 52.6791 961.585 52.6791 Q956.608 52.6791 953.657 49.9014 Q950.734 47.0947 950.734 42.4072 Q950.734 36.9385 954.38 34.1607 Q958.055 31.3829 965.317 31.3829 L972.783 31.3829 L972.783 30.8621 Q972.783 27.1874 970.352 25.1908 Q967.951 23.1654 963.581 23.1654 Q960.804 23.1654 958.17 23.8309 Q955.537 24.4964 953.107 25.8274 L953.107 20.9085 Q956.029 19.78 958.778 19.2302 Q961.527 18.6515 964.131 18.6515 Q971.162 18.6515 974.635 22.2973 Q978.107 25.9431 978.107 33.3505 Z" fill="#000000" fill-rule="nonzero" fill-opacity="1" /><path clip-path="url(#clip290)" d="M989.073 6.81709 L994.397 6.81709 L994.397 51.84 L989.073 51.84 L989.073 6.81709 Z" fill="#000000" fill-rule="nonzero" fill-opacity="1" /><path clip-path="url(#clip290)" d="M1045.09 31.5855 Q1046.97 32.222 1048.74 34.3054 Q1050.53 36.3887 1052.33 40.0345 L1058.26 51.84 L1051.98 51.84 L1046.45 40.7579 Q1044.31 36.4176 1042.28 34.9998 Q1040.29 33.582 1036.82 33.582 L1030.45 33.582 L1030.45 51.84 L1024.61 51.84 L1024.61 8.64 L1037.8 8.64 Q1045.21 8.64 1048.85 11.736 Q1052.5 14.8321 1052.5 21.0821 Q1052.5 25.1619 1050.59 27.8529 Q1048.71 30.5438 1045.09 31.5855 M1030.45 13.4432 L1030.45 28.7788 L1037.8 28.7788 Q1042.02 28.7788 1044.17 26.8401 Q1046.34 24.8726 1046.34 21.0821 Q1046.34 17.2916 1044.17 15.3819 Q1042.02 13.4432 1037.8 13.4432 L1030.45 13.4432 Z" fill="#000000" fill-rule="nonzero" fill-opacity="1" /><path clip-path="url(#clip290)" d="M1090.61 34.3054 L1090.61 36.9095 L1066.13 36.9095 Q1066.47 42.4072 1069.43 45.3007 Q1072.41 48.1653 1077.7 48.1653 Q1080.77 48.1653 1083.63 47.4129 Q1086.53 46.6606 1089.36 45.156 L1089.36 50.1907 Q1086.5 51.406 1083.49 52.0425 Q1080.48 52.6791 1077.38 52.6791 Q1069.63 52.6791 1065.09 48.1653 Q1060.57 43.6514 1060.57 35.9547 Q1060.57 27.9975 1064.85 23.339 Q1069.17 18.6515 1076.46 18.6515 Q1083 18.6515 1086.79 22.876 Q1090.61 27.0716 1090.61 34.3054 M1085.28 32.7429 Q1085.22 28.3737 1082.82 25.7695 Q1080.45 23.1654 1076.51 23.1654 Q1072.06 23.1654 1069.37 25.6827 Q1066.71 28.2001 1066.3 32.7718 L1085.28 32.7429 Z" fill="#000000" fill-rule="nonzero" fill-opacity="1" /><path clip-path="url(#clip290)" d="M1120 20.3876 L1120 25.4223 Q1117.75 24.2649 1115.32 23.6862 Q1112.89 23.1075 1110.28 23.1075 Q1106.32 23.1075 1104.32 24.3228 Q1102.35 25.5381 1102.35 27.9686 Q1102.35 29.8204 1103.77 30.891 Q1105.19 31.9327 1109.47 32.8876 L1111.29 33.2926 Q1116.97 34.5079 1119.34 36.7359 Q1121.74 38.935 1121.74 42.8991 Q1121.74 47.4129 1118.15 50.046 Q1114.59 52.6791 1108.34 52.6791 Q1105.74 52.6791 1102.9 52.1583 Q1100.1 51.6664 1096.97 50.6537 L1096.97 45.156 Q1099.92 46.6896 1102.79 47.4708 Q1105.65 48.2231 1108.46 48.2231 Q1112.22 48.2231 1114.25 46.95 Q1116.27 45.6479 1116.27 43.3042 Q1116.27 41.134 1114.8 39.9766 Q1113.35 38.8192 1108.4 37.7486 L1106.55 37.3146 Q1101.6 36.273 1099.4 34.1318 Q1097.2 31.9616 1097.2 28.2001 Q1097.2 23.6283 1100.44 21.1399 Q1103.68 18.6515 1109.65 18.6515 Q1112.6 18.6515 1115.2 19.0855 Q1117.81 19.5196 1120 20.3876 Z" fill="#000000" fill-rule="nonzero" fill-opacity="1" /><path clip-path="url(#clip290)" d="M1130.22 19.4328 L1135.54 19.4328 L1135.54 51.84 L1130.22 51.84 L1130.22 19.4328 M1130.22 6.81709 L1135.54 6.81709 L1135.54 13.559 L1130.22 13.559 L1130.22 6.81709 Z" fill="#000000" fill-rule="nonzero" fill-opacity="1" /><path clip-path="url(#clip290)" d="M1168.01 24.3517 L1168.01 6.81709 L1173.33 6.81709 L1173.33 51.84 L1168.01 51.84 L1168.01 46.9789 Q1166.33 49.8724 1163.75 51.2902 Q1161.21 52.6791 1157.62 52.6791 Q1151.75 52.6791 1148.04 47.9916 Q1144.37 43.3042 1144.37 35.6653 Q1144.37 28.0265 1148.04 23.339 Q1151.75 18.6515 1157.62 18.6515 Q1161.21 18.6515 1163.75 20.0693 Q1166.33 21.4582 1168.01 24.3517 M1149.87 35.6653 Q1149.87 41.5391 1152.27 44.8956 Q1154.7 48.2231 1158.92 48.2231 Q1163.15 48.2231 1165.58 44.8956 Q1168.01 41.5391 1168.01 35.6653 Q1168.01 29.7915 1165.58 26.464 Q1163.15 23.1075 1158.92 23.1075 Q1154.7 23.1075 1152.27 26.464 Q1149.87 29.7915 1149.87 35.6653 Z" fill="#000000" fill-rule="nonzero" fill-opacity="1" /><path clip-path="url(#clip290)" d="M1212.02 34.3054 L1212.02 36.9095 L1187.54 36.9095 Q1187.89 42.4072 1190.84 45.3007 Q1193.82 48.1653 1199.11 48.1653 Q1202.18 48.1653 1205.04 47.4129 Q1207.94 46.6606 1210.77 45.156 L1210.77 50.1907 Q1207.91 51.406 1204.9 52.0425 Q1201.89 52.6791 1198.79 52.6791 Q1191.04 52.6791 1186.5 48.1653 Q1181.98 43.6514 1181.98 35.9547 Q1181.98 27.9975 1186.27 23.339 Q1190.58 18.6515 1197.87 18.6515 Q1204.41 18.6515 1208.2 22.876 Q1212.02 27.0716 1212.02 34.3054 M1206.69 32.7429 Q1206.64 28.3737 1204.23 25.7695 Q1201.86 23.1654 1197.93 23.1654 Q1193.47 23.1654 1190.78 25.6827 Q1188.12 28.2001 1187.71 32.7718 L1206.69 32.7429 Z" fill="#000000" fill-rule="nonzero" fill-opacity="1" /><path clip-path="url(#clip290)" d="M1247.69 32.2799 L1247.69 51.84 L1242.37 51.84 L1242.37 32.4535 Q1242.37 27.8529 1240.58 25.567 Q1238.78 23.2811 1235.19 23.2811 Q1230.88 23.2811 1228.39 26.03 Q1225.91 28.7788 1225.91 33.5241 L1225.91 51.84 L1220.55 51.84 L1220.55 19.4328 L1225.91 19.4328 L1225.91 24.4675 Q1227.82 21.545 1230.39 20.0983 Q1233 18.6515 1236.38 18.6515 Q1241.97 18.6515 1244.83 22.1237 Q1247.69 25.567 1247.69 32.2799 Z" fill="#000000" fill-rule="nonzero" fill-opacity="1" /><path clip-path="url(#clip290)" d="M1281.64 20.677 L1281.64 25.6538 Q1279.38 24.4096 1277.09 23.802 Q1274.84 23.1654 1272.52 23.1654 Q1267.34 23.1654 1264.48 26.464 Q1261.61 29.7336 1261.61 35.6653 Q1261.61 41.597 1264.48 44.8956 Q1267.34 48.1653 1272.52 48.1653 Q1274.84 48.1653 1277.09 47.5576 Q1279.38 46.921 1281.64 45.6768 L1281.64 50.5958 Q1279.41 51.6375 1277.01 52.1583 Q1274.63 52.6791 1271.94 52.6791 Q1264.62 52.6791 1260.31 48.0784 Q1256 43.4778 1256 35.6653 Q1256 27.7371 1260.34 23.1943 Q1264.71 18.6515 1272.29 18.6515 Q1274.75 18.6515 1277.09 19.1724 Q1279.44 19.6642 1281.64 20.677 Z" fill="#000000" fill-rule="nonzero" fill-opacity="1" /><path clip-path="url(#clip290)" d="M1318.61 34.3054 L1318.61 36.9095 L1294.14 36.9095 Q1294.48 42.4072 1297.43 45.3007 Q1300.41 48.1653 1305.71 48.1653 Q1308.78 48.1653 1311.64 47.4129 Q1314.53 46.6606 1317.37 45.156 L1317.37 50.1907 Q1314.51 51.406 1311.5 52.0425 Q1308.49 52.6791 1305.39 52.6791 Q1297.64 52.6791 1293.09 48.1653 Q1288.58 43.6514 1288.58 35.9547 Q1288.58 27.9975 1292.86 23.339 Q1297.17 18.6515 1304.46 18.6515 Q1311 18.6515 1314.79 22.876 Q1318.61 27.0716 1318.61 34.3054 M1313.29 32.7429 Q1313.23 28.3737 1310.83 25.7695 Q1308.46 23.1654 1304.52 23.1654 Q1300.07 23.1654 1297.38 25.6827 Q1294.71 28.2001 1294.31 32.7718 L1313.29 32.7429 Z" fill="#000000" fill-rule="nonzero" fill-opacity="1" /><path clip-path="url(#clip290)" d="M1340.43 8.64 L1376.98 8.64 L1376.98 13.559 L1361.64 13.559 L1361.64 51.84 L1355.77 51.84 L1355.77 13.559 L1340.43 13.559 L1340.43 8.64 Z" fill="#000000" fill-rule="nonzero" fill-opacity="1" /><path clip-path="url(#clip290)" d="M1380.56 19.4328 L1385.89 19.4328 L1385.89 51.84 L1380.56 51.84 L1380.56 19.4328 M1380.56 6.81709 L1385.89 6.81709 L1385.89 13.559 L1380.56 13.559 L1380.56 6.81709 Z" fill="#000000" fill-rule="nonzero" fill-opacity="1" /><path clip-path="url(#clip290)" d="M1422.26 25.6538 Q1424.26 22.0659 1427.03 20.3587 Q1429.81 18.6515 1433.57 18.6515 Q1438.64 18.6515 1441.39 22.2105 Q1444.13 25.7406 1444.13 32.2799 L1444.13 51.84 L1438.78 51.84 L1438.78 32.4535 Q1438.78 27.795 1437.13 25.5381 Q1435.48 23.2811 1432.1 23.2811 Q1427.96 23.2811 1425.56 26.03 Q1423.16 28.7788 1423.16 33.5241 L1423.16 51.84 L1417.8 51.84 L1417.8 32.4535 Q1417.8 27.7661 1416.15 25.5381 Q1414.5 23.2811 1411.06 23.2811 Q1406.98 23.2811 1404.58 26.0589 Q1402.18 28.8077 1402.18 33.5241 L1402.18 51.84 L1396.83 51.84 L1396.83 19.4328 L1402.18 19.4328 L1402.18 24.4675 Q1404 21.4872 1406.55 20.0693 Q1409.09 18.6515 1412.6 18.6515 Q1416.13 18.6515 1418.58 20.4455 Q1421.07 22.2395 1422.26 25.6538 Z" fill="#000000" fill-rule="nonzero" fill-opacity="1" /><path clip-path="url(#clip290)" d="M1482.47 34.3054 L1482.47 36.9095 L1457.99 36.9095 Q1458.34 42.4072 1461.29 45.3007 Q1464.27 48.1653 1469.57 48.1653 Q1472.64 48.1653 1475.5 47.4129 Q1478.39 46.6606 1481.23 45.156 L1481.23 50.1907 Q1478.36 51.406 1475.36 52.0425 Q1472.35 52.6791 1469.25 52.6791 Q1461.5 52.6791 1456.95 48.1653 Q1452.44 43.6514 1452.44 35.9547 Q1452.44 27.9975 1456.72 23.339 Q1461.03 18.6515 1468.32 18.6515 Q1474.86 18.6515 1478.65 22.876 Q1482.47 27.0716 1482.47 34.3054 M1477.15 32.7429 Q1477.09 28.3737 1474.69 25.7695 Q1472.32 23.1654 1468.38 23.1654 Q1463.93 23.1654 1461.23 25.6827 Q1458.57 28.2001 1458.17 32.7718 L1477.15 32.7429 Z" fill="#000000" fill-rule="nonzero" fill-opacity="1" /><path clip-path="url(#clip290)" d="M1507.36 33.5241 L1560.83 33.5241 L1560.83 37.6908 L1507.36 37.6908 L1507.36 33.5241 Z" fill="#000000" fill-rule="nonzero" fill-opacity="1" /><path clip-path="url(#clip290)" d="M1588.38 8.64 L1594.22 8.64 L1594.22 26.898 L1613.61 8.64 L1621.13 8.64 L1599.69 28.7788 L1622.66 51.84 L1614.97 51.84 L1594.22 31.0357 L1594.22 51.84 L1588.38 51.84 L1588.38 8.64 Z" fill="#000000" fill-rule="nonzero" fill-opacity="1" /><path clip-path="url(#clip290)" d="M1627.7 24.9304 L1664.79 24.9304 L1664.79 29.7915 L1627.7 29.7915 L1627.7 24.9304 M1627.7 36.7359 L1664.79 36.7359 L1664.79 41.6549 L1627.7 41.6549 L1627.7 36.7359 Z" fill="#000000" fill-rule="nonzero" fill-opacity="1" /><path clip-path="url(#clip290)" d="M1682.44 46.921 L1702.84 46.921 L1702.84 51.84 L1675.41 51.84 L1675.41 46.921 Q1678.74 43.4778 1684.47 37.6908 Q1690.23 31.8748 1691.7 30.1966 Q1694.51 27.0427 1695.61 24.8726 Q1696.74 22.6735 1696.74 20.5612 Q1696.74 17.118 1694.31 14.9478 Q1691.9 12.7777 1688.03 12.7777 Q1685.28 12.7777 1682.21 13.7326 Q1679.17 14.6874 1675.7 16.6261 L1675.7 10.7233 Q1679.23 9.30551 1682.3 8.58213 Q1685.37 7.85875 1687.91 7.85875 Q1694.62 7.85875 1698.62 11.2152 Q1702.61 14.5717 1702.61 20.1851 Q1702.61 22.8471 1701.6 25.2487 Q1700.61 27.6214 1697.98 30.8621 Q1697.26 31.7012 1693.38 35.7232 Q1689.5 39.7162 1682.44 46.921 Z" fill="#000000" fill-rule="nonzero" fill-opacity="1" /><path clip-path="url(#clip290)" d="M1716.12 46.921 L1725.67 46.921 L1725.67 13.964 L1715.28 16.0474 L1715.28 10.7233 L1725.61 8.64 L1731.46 8.64 L1731.46 46.921 L1741.01 46.921 L1741.01 51.84 L1716.12 51.84 L1716.12 46.921 Z" fill="#000000" fill-rule="nonzero" fill-opacity="1" /><path clip-path="url(#clip292)" d="M295.201 106.192 L295.201 1423.18 L369.732 1423.18 L369.732 106.192 L295.201 106.192 L295.201 106.192  Z" fill="#4682b4" fill-rule="evenodd" fill-opacity="0.7"/>
<polyline clip-path="url(#clip292)" style="stroke:#000000; stroke-linecap:round; stroke-linejoin:round; stroke-width:4; stroke-opacity:0.7; fill:none" points="295.201,106.192 295.201,1423.18 369.732,1423.18 369.732,106.192 295.201,106.192 "/>
<path clip-path="url(#clip292)" d="M388.365 1229.39 L388.365 1423.18 L462.895 1423.18 L462.895 1229.39 L388.365 1229.39 L388.365 1229.39  Z" fill="#4682b4" fill-rule="evenodd" fill-opacity="0.7"/>
<polyline clip-path="url(#clip292)" style="stroke:#000000; stroke-linecap:round; stroke-linejoin:round; stroke-width:4; stroke-opacity:0.7; fill:none" points="388.365,1229.39 388.365,1423.18 462.895,1423.18 462.895,1229.39 388.365,1229.39 "/>
<path clip-path="url(#clip292)" d="M481.528 1251.03 L481.528 1423.18 L556.059 1423.18 L556.059 1251.03 L481.528 1251.03 L481.528 1251.03  Z" fill="#4682b4" fill-rule="evenodd" fill-opacity="0.7"/>
<polyline clip-path="url(#clip292)" style="stroke:#000000; stroke-linecap:round; stroke-linejoin:round; stroke-width:4; stroke-opacity:0.7; fill:none" points="481.528,1251.03 481.528,1423.18 556.059,1423.18 556.059,1251.03 481.528,1251.03 "/>
<path clip-path="url(#clip292)" d="M574.691 1251.03 L574.691 1423.18 L649.222 1423.18 L649.222 1251.03 L574.691 1251.03 L574.691 1251.03  Z" fill="#4682b4" fill-rule="evenodd" fill-opacity="0.7"/>
<polyline clip-path="url(#clip292)" style="stroke:#000000; stroke-linecap:round; stroke-linejoin:round; stroke-width:4; stroke-opacity:0.7; fill:none" points="574.691,1251.03 574.691,1423.18 649.222,1423.18 649.222,1251.03 574.691,1251.03 "/>
<path clip-path="url(#clip292)" d="M667.855 1251.03 L667.855 1423.18 L742.386 1423.18 L742.386 1251.03 L667.855 1251.03 L667.855 1251.03  Z" fill="#4682b4" fill-rule="evenodd" fill-opacity="0.7"/>
<polyline clip-path="url(#clip292)" style="stroke:#000000; stroke-linecap:round; stroke-linejoin:round; stroke-width:4; stroke-opacity:0.7; fill:none" points="667.855,1251.03 667.855,1423.18 742.386,1423.18 742.386,1251.03 667.855,1251.03 "/>
<path clip-path="url(#clip292)" d="M761.018 1215.96 L761.018 1423.18 L835.549 1423.18 L835.549 1215.96 L761.018 1215.96 L761.018 1215.96  Z" fill="#4682b4" fill-rule="evenodd" fill-opacity="0.7"/>
<polyline clip-path="url(#clip292)" style="stroke:#000000; stroke-linecap:round; stroke-linejoin:round; stroke-width:4; stroke-opacity:0.7; fill:none" points="761.018,1215.96 761.018,1423.18 835.549,1423.18 835.549,1215.96 761.018,1215.96 "/>
<path clip-path="url(#clip292)" d="M854.182 1216.38 L854.182 1423.18 L928.712 1423.18 L928.712 1216.38 L854.182 1216.38 L854.182 1216.38  Z" fill="#4682b4" fill-rule="evenodd" fill-opacity="0.7"/>
<polyline clip-path="url(#clip292)" style="stroke:#000000; stroke-linecap:round; stroke-linejoin:round; stroke-width:4; stroke-opacity:0.7; fill:none" points="854.182,1216.38 854.182,1423.18 928.712,1423.18 928.712,1216.38 854.182,1216.38 "/>
<path clip-path="url(#clip292)" d="M947.345 1224.02 L947.345 1423.18 L1021.88 1423.18 L1021.88 1224.02 L947.345 1224.02 L947.345 1224.02  Z" fill="#4682b4" fill-rule="evenodd" fill-opacity="0.7"/>
<polyline clip-path="url(#clip292)" style="stroke:#000000; stroke-linecap:round; stroke-linejoin:round; stroke-width:4; stroke-opacity:0.7; fill:none" points="947.345,1224.02 947.345,1423.18 1021.88,1423.18 1021.88,1224.02 947.345,1224.02 "/>
<path clip-path="url(#clip292)" d="M1040.51 1240.01 L1040.51 1423.18 L1115.04 1423.18 L1115.04 1240.01 L1040.51 1240.01 L1040.51 1240.01  Z" fill="#4682b4" fill-rule="evenodd" fill-opacity="0.7"/>
<polyline clip-path="url(#clip292)" style="stroke:#000000; stroke-linecap:round; stroke-linejoin:round; stroke-width:4; stroke-opacity:0.7; fill:none" points="1040.51,1240.01 1040.51,1423.18 1115.04,1423.18 1115.04,1240.01 1040.51,1240.01 "/>
<path clip-path="url(#clip292)" d="M1133.67 1233.71 L1133.67 1423.18 L1208.2 1423.18 L1208.2 1233.71 L1133.67 1233.71 L1133.67 1233.71  Z" fill="#4682b4" fill-rule="evenodd" fill-opacity="0.7"/>
<polyline clip-path="url(#clip292)" style="stroke:#000000; stroke-linecap:round; stroke-linejoin:round; stroke-width:4; stroke-opacity:0.7; fill:none" points="1133.67,1233.71 1133.67,1423.18 1208.2,1423.18 1208.2,1233.71 1133.67,1233.71 "/>
<path clip-path="url(#clip292)" d="M1226.84 1222.01 L1226.84 1423.18 L1301.37 1423.18 L1301.37 1222.01 L1226.84 1222.01 L1226.84 1222.01  Z" fill="#4682b4" fill-rule="evenodd" fill-opacity="0.7"/>
<polyline clip-path="url(#clip292)" style="stroke:#000000; stroke-linecap:round; stroke-linejoin:round; stroke-width:4; stroke-opacity:0.7; fill:none" points="1226.84,1222.01 1226.84,1423.18 1301.37,1423.18 1301.37,1222.01 1226.84,1222.01 "/>
<path clip-path="url(#clip292)" d="M1320 1229.83 L1320 1423.18 L1394.53 1423.18 L1394.53 1229.83 L1320 1229.83 L1320 1229.83  Z" fill="#4682b4" fill-rule="evenodd" fill-opacity="0.7"/>
<polyline clip-path="url(#clip292)" style="stroke:#000000; stroke-linecap:round; stroke-linejoin:round; stroke-width:4; stroke-opacity:0.7; fill:none" points="1320,1229.83 1320,1423.18 1394.53,1423.18 1394.53,1229.83 1320,1229.83 "/>
<path clip-path="url(#clip292)" d="M1413.16 1244.82 L1413.16 1423.18 L1487.69 1423.18 L1487.69 1244.82 L1413.16 1244.82 L1413.16 1244.82  Z" fill="#4682b4" fill-rule="evenodd" fill-opacity="0.7"/>
<polyline clip-path="url(#clip292)" style="stroke:#000000; stroke-linecap:round; stroke-linejoin:round; stroke-width:4; stroke-opacity:0.7; fill:none" points="1413.16,1244.82 1413.16,1423.18 1487.69,1423.18 1487.69,1244.82 1413.16,1244.82 "/>
<path clip-path="url(#clip292)" d="M1506.33 1248.73 L1506.33 1423.18 L1580.86 1423.18 L1580.86 1248.73 L1506.33 1248.73 L1506.33 1248.73  Z" fill="#4682b4" fill-rule="evenodd" fill-opacity="0.7"/>
<polyline clip-path="url(#clip292)" style="stroke:#000000; stroke-linecap:round; stroke-linejoin:round; stroke-width:4; stroke-opacity:0.7; fill:none" points="1506.33,1248.73 1506.33,1423.18 1580.86,1423.18 1580.86,1248.73 1506.33,1248.73 "/>
<path clip-path="url(#clip292)" d="M1599.49 1238.68 L1599.49 1423.18 L1674.02 1423.18 L1674.02 1238.68 L1599.49 1238.68 L1599.49 1238.68  Z" fill="#4682b4" fill-rule="evenodd" fill-opacity="0.7"/>
<polyline clip-path="url(#clip292)" style="stroke:#000000; stroke-linecap:round; stroke-linejoin:round; stroke-width:4; stroke-opacity:0.7; fill:none" points="1599.49,1238.68 1599.49,1423.18 1674.02,1423.18 1674.02,1238.68 1599.49,1238.68 "/>
<path clip-path="url(#clip292)" d="M1692.65 1239.46 L1692.65 1423.18 L1767.18 1423.18 L1767.18 1239.46 L1692.65 1239.46 L1692.65 1239.46  Z" fill="#4682b4" fill-rule="evenodd" fill-opacity="0.7"/>
<polyline clip-path="url(#clip292)" style="stroke:#000000; stroke-linecap:round; stroke-linejoin:round; stroke-width:4; stroke-opacity:0.7; fill:none" points="1692.65,1239.46 1692.65,1423.18 1767.18,1423.18 1767.18,1239.46 1692.65,1239.46 "/>
<path clip-path="url(#clip292)" d="M1785.82 1230.62 L1785.82 1423.18 L1860.35 1423.18 L1860.35 1230.62 L1785.82 1230.62 L1785.82 1230.62  Z" fill="#4682b4" fill-rule="evenodd" fill-opacity="0.7"/>
<polyline clip-path="url(#clip292)" style="stroke:#000000; stroke-linecap:round; stroke-linejoin:round; stroke-width:4; stroke-opacity:0.7; fill:none" points="1785.82,1230.62 1785.82,1423.18 1860.35,1423.18 1860.35,1230.62 1785.82,1230.62 "/>
<path clip-path="url(#clip292)" d="M1878.98 1236.63 L1878.98 1423.18 L1953.51 1423.18 L1953.51 1236.63 L1878.98 1236.63 L1878.98 1236.63  Z" fill="#4682b4" fill-rule="evenodd" fill-opacity="0.7"/>
<polyline clip-path="url(#clip292)" style="stroke:#000000; stroke-linecap:round; stroke-linejoin:round; stroke-width:4; stroke-opacity:0.7; fill:none" points="1878.98,1236.63 1878.98,1423.18 1953.51,1423.18 1953.51,1236.63 1878.98,1236.63 "/>
<path clip-path="url(#clip292)" d="M1972.14 1233.54 L1972.14 1423.18 L2046.67 1423.18 L2046.67 1233.54 L1972.14 1233.54 L1972.14 1233.54  Z" fill="#4682b4" fill-rule="evenodd" fill-opacity="0.7"/>
<polyline clip-path="url(#clip292)" style="stroke:#000000; stroke-linecap:round; stroke-linejoin:round; stroke-width:4; stroke-opacity:0.7; fill:none" points="1972.14,1233.54 1972.14,1423.18 2046.67,1423.18 2046.67,1233.54 1972.14,1233.54 "/>
<path clip-path="url(#clip292)" d="M2065.31 1251.03 L2065.31 1423.18 L2139.84 1423.18 L2139.84 1251.03 L2065.31 1251.03 L2065.31 1251.03  Z" fill="#4682b4" fill-rule="evenodd" fill-opacity="0.7"/>
<polyline clip-path="url(#clip292)" style="stroke:#000000; stroke-linecap:round; stroke-linejoin:round; stroke-width:4; stroke-opacity:0.7; fill:none" points="2065.31,1251.03 2065.31,1423.18 2139.84,1423.18 2139.84,1251.03 2065.31,1251.03 "/>
<path clip-path="url(#clip292)" d="M2158.47 668.17 L2158.47 1423.18 L2233 1423.18 L2233 668.17 L2158.47 668.17 L2158.47 668.17  Z" fill="#4682b4" fill-rule="evenodd" fill-opacity="0.7"/>
<polyline clip-path="url(#clip292)" style="stroke:#000000; stroke-linecap:round; stroke-linejoin:round; stroke-width:4; stroke-opacity:0.7; fill:none" points="2158.47,668.17 2158.47,1423.18 2233,1423.18 2233,668.17 2158.47,668.17 "/>
<circle clip-path="url(#clip292)" style="fill:#4682b4; stroke:none; fill-opacity:0" cx="332.467" cy="106.192" r="2"/>
<circle clip-path="url(#clip292)" style="fill:#4682b4; stroke:none; fill-opacity:0" cx="425.63" cy="1229.39" r="2"/>
<circle clip-path="url(#clip292)" style="fill:#4682b4; stroke:none; fill-opacity:0" cx="518.793" cy="1251.03" r="2"/>
<circle clip-path="url(#clip292)" style="fill:#4682b4; stroke:none; fill-opacity:0" cx="611.957" cy="1251.03" r="2"/>
<circle clip-path="url(#clip292)" style="fill:#4682b4; stroke:none; fill-opacity:0" cx="705.12" cy="1251.03" r="2"/>
<circle clip-path="url(#clip292)" style="fill:#4682b4; stroke:none; fill-opacity:0" cx="798.284" cy="1215.96" r="2"/>
<circle clip-path="url(#clip292)" style="fill:#4682b4; stroke:none; fill-opacity:0" cx="891.447" cy="1216.38" r="2"/>
<circle clip-path="url(#clip292)" style="fill:#4682b4; stroke:none; fill-opacity:0" cx="984.61" cy="1224.02" r="2"/>
<circle clip-path="url(#clip292)" style="fill:#4682b4; stroke:none; fill-opacity:0" cx="1077.77" cy="1240.01" r="2"/>
<circle clip-path="url(#clip292)" style="fill:#4682b4; stroke:none; fill-opacity:0" cx="1170.94" cy="1233.71" r="2"/>
<circle clip-path="url(#clip292)" style="fill:#4682b4; stroke:none; fill-opacity:0" cx="1264.1" cy="1222.01" r="2"/>
<circle clip-path="url(#clip292)" style="fill:#4682b4; stroke:none; fill-opacity:0" cx="1357.26" cy="1229.83" r="2"/>
<circle clip-path="url(#clip292)" style="fill:#4682b4; stroke:none; fill-opacity:0" cx="1450.43" cy="1244.82" r="2"/>
<circle clip-path="url(#clip292)" style="fill:#4682b4; stroke:none; fill-opacity:0" cx="1543.59" cy="1248.73" r="2"/>
<circle clip-path="url(#clip292)" style="fill:#4682b4; stroke:none; fill-opacity:0" cx="1636.75" cy="1238.68" r="2"/>
<circle clip-path="url(#clip292)" style="fill:#4682b4; stroke:none; fill-opacity:0" cx="1729.92" cy="1239.46" r="2"/>
<circle clip-path="url(#clip292)" style="fill:#4682b4; stroke:none; fill-opacity:0" cx="1823.08" cy="1230.62" r="2"/>
<circle clip-path="url(#clip292)" style="fill:#4682b4; stroke:none; fill-opacity:0" cx="1916.24" cy="1236.63" r="2"/>
<circle clip-path="url(#clip292)" style="fill:#4682b4; stroke:none; fill-opacity:0" cx="2009.41" cy="1233.54" r="2"/>
<circle clip-path="url(#clip292)" style="fill:#4682b4; stroke:none; fill-opacity:0" cx="2102.57" cy="1251.03" r="2"/>
<circle clip-path="url(#clip292)" style="fill:#4682b4; stroke:none; fill-opacity:0" cx="2195.73" cy="668.17" r="2"/>
</svg>
