<?xml version="1.0" encoding="utf-8"?>
<svg xmlns="http://www.w3.org/2000/svg" xmlns:xlink="http://www.w3.org/1999/xlink" width="760" height="420" viewBox="0 0 3040 1680">
<defs>
  <clipPath id="clip760">
    <rect x="0" y="0" width="3040" height="1680"/>
  </clipPath>
</defs>
<path clip-path="url(#clip760)" d="M0 1680 L3040 1680 L3040 9.14356e-14 L0 9.14356e-14  Z" fill="#ffffff" fill-rule="evenodd" fill-opacity="1"/>
<defs>
  <clipPath id="clip761">
    <rect x="608" y="0" width="2129" height="1680"/>
  </clipPath>
</defs>
<path clip-path="url(#clip760)" d="M277.975 1516.42 L2992.76 1516.42 L2992.76 98.8027 L277.975 98.8027  Z" fill="#ffffff" fill-rule="evenodd" fill-opacity="1"/>
<defs>
  <clipPath id="clip762">
    <rect x="277" y="98" width="2716" height="1419"/>
  </clipPath>
</defs>
<polyline clip-path="url(#clip762)" style="stroke:#000000; stroke-linecap:round; stroke-linejoin:round; stroke-width:2; stroke-opacity:0.1; fill:none" points="580.79,1516.42 580.79,98.8027 "/>
<polyline clip-path="url(#clip762)" style="stroke:#000000; stroke-linecap:round; stroke-linejoin:round; stroke-width:2; stroke-opacity:0.1; fill:none" points="957.424,1516.42 957.424,98.8027 "/>
<polyline clip-path="url(#clip762)" style="stroke:#000000; stroke-linecap:round; stroke-linejoin:round; stroke-width:2; stroke-opacity:0.1; fill:none" points="1334.06,1516.42 1334.06,98.8027 "/>
<polyline clip-path="url(#clip762)" style="stroke:#000000; stroke-linecap:round; stroke-linejoin:round; stroke-width:2; stroke-opacity:0.1; fill:none" points="1710.69,1516.42 1710.69,98.8027 "/>
<polyline clip-path="url(#clip762)" style="stroke:#000000; stroke-linecap:round; stroke-linejoin:round; stroke-width:2; stroke-opacity:0.1; fill:none" points="2087.33,1516.42 2087.33,98.8027 "/>
<polyline clip-path="url(#clip762)" style="stroke:#000000; stroke-linecap:round; stroke-linejoin:round; stroke-width:2; stroke-opacity:0.1; fill:none" points="2463.96,1516.42 2463.96,98.8027 "/>
<polyline clip-path="url(#clip762)" style="stroke:#000000; stroke-linecap:round; stroke-linejoin:round; stroke-width:2; stroke-opacity:0.1; fill:none" points="2840.6,1516.42 2840.6,98.8027 "/>
<polyline clip-path="url(#clip762)" style="stroke:#000000; stroke-linecap:round; stroke-linejoin:round; stroke-width:2; stroke-opacity:0.1; fill:none" points="277.975,1306.27 2992.76,1306.27 "/>
<polyline clip-path="url(#clip762)" style="stroke:#000000; stroke-linecap:round; stroke-linejoin:round; stroke-width:2; stroke-opacity:0.1; fill:none" points="277.975,1001.88 2992.76,1001.88 "/>
<polyline clip-path="url(#clip762)" style="stroke:#000000; stroke-linecap:round; stroke-linejoin:round; stroke-width:2; stroke-opacity:0.1; fill:none" points="277.975,697.477 2992.76,697.477 "/>
<polyline clip-path="url(#clip762)" style="stroke:#000000; stroke-linecap:round; stroke-linejoin:round; stroke-width:2; stroke-opacity:0.1; fill:none" points="277.975,393.078 2992.76,393.078 "/>
<polyline clip-path="url(#clip760)" style="stroke:#000000; stroke-linecap:round; stroke-linejoin:round; stroke-width:4; stroke-opacity:1; fill:none" points="277.975,1516.42 2992.76,1516.42 "/>
<polyline clip-path="url(#clip760)" style="stroke:#000000; stroke-linecap:round; stroke-linejoin:round; stroke-width:4; stroke-opacity:1; fill:none" points="580.79,1516.42 580.79,1497.52 "/>
<polyline clip-path="url(#clip760)" style="stroke:#000000; stroke-linecap:round; stroke-linejoin:round; stroke-width:4; stroke-opacity:1; fill:none" points="957.424,1516.42 957.424,1497.52 "/>
<polyline clip-path="url(#clip760)" style="stroke:#000000; stroke-linecap:round; stroke-linejoin:round; stroke-width:4; stroke-opacity:1; fill:none" points="1334.06,1516.42 1334.06,1497.52 "/>
<polyline clip-path="url(#clip760)" style="stroke:#000000; stroke-linecap:round; stroke-linejoin:round; stroke-width:4; stroke-opacity:1; fill:none" points="1710.69,1516.42 1710.69,1497.52 "/>
<polyline clip-path="url(#clip760)" style="stroke:#000000; stroke-linecap:round; stroke-linejoin:round; stroke-width:4; stroke-opacity:1; fill:none" points="2087.33,1516.42 2087.33,1497.52 "/>
<polyline clip-path="url(#clip760)" style="stroke:#000000; stroke-linecap:round; stroke-linejoin:round; stroke-width:4; stroke-opacity:1; fill:none" points="2463.96,1516.42 2463.96,1497.52 "/>
<polyline clip-path="url(#clip760)" style="stroke:#000000; stroke-linecap:round; stroke-linejoin:round; stroke-width:4; stroke-opacity:1; fill:none" points="2840.6,1516.42 2840.6,1497.52 "/>
<path clip-path="url(#clip760)" d="M552.526 1580 L568.845 1580 L568.845 1583.94 L546.901 1583.94 L546.901 1580 Q549.563 1577.25 554.146 1572.62 Q558.753 1567.97 559.933 1566.63 Q562.178 1564.1 563.058 1562.37 Q563.961 1560.61 563.961 1558.92 Q563.961 1556.16 562.016 1554.43 Q560.095 1552.69 556.993 1552.69 Q554.794 1552.69 552.341 1553.45 Q549.91 1554.22 547.132 1555.77 L547.132 1551.05 Q549.956 1549.91 552.41 1549.33 Q554.864 1548.75 556.901 1548.75 Q562.271 1548.75 565.466 1551.44 Q568.66 1554.13 568.66 1558.62 Q568.66 1560.75 567.85 1562.67 Q567.063 1564.56 564.956 1567.16 Q564.378 1567.83 561.276 1571.05 Q558.174 1574.24 552.526 1580 Z" fill="#000000" fill-rule="nonzero" fill-opacity="1" /><path clip-path="url(#clip760)" d="M578.66 1578.06 L583.544 1578.06 L583.544 1583.94 L578.66 1583.94 L578.66 1578.06 Z" fill="#000000" fill-rule="nonzero" fill-opacity="1" /><path clip-path="url(#clip760)" d="M593.776 1549.38 L612.132 1549.38 L612.132 1553.32 L598.058 1553.32 L598.058 1561.79 Q599.076 1561.44 600.095 1561.28 Q601.113 1561.09 602.132 1561.09 Q607.919 1561.09 611.299 1564.26 Q614.678 1567.44 614.678 1572.85 Q614.678 1578.43 611.206 1581.53 Q607.734 1584.61 601.414 1584.61 Q599.238 1584.61 596.97 1584.24 Q594.725 1583.87 592.317 1583.13 L592.317 1578.43 Q594.401 1579.56 596.623 1580.12 Q598.845 1580.68 601.322 1580.68 Q605.326 1580.68 607.664 1578.57 Q610.002 1576.46 610.002 1572.85 Q610.002 1569.24 607.664 1567.13 Q605.326 1565.03 601.322 1565.03 Q599.447 1565.03 597.572 1565.44 Q595.72 1565.86 593.776 1566.74 L593.776 1549.38 Z" fill="#000000" fill-rule="nonzero" fill-opacity="1" /><path clip-path="url(#clip760)" d="M924.588 1549.38 L942.945 1549.38 L942.945 1553.32 L928.871 1553.32 L928.871 1561.79 Q929.889 1561.44 930.908 1561.28 Q931.926 1561.09 932.945 1561.09 Q938.732 1561.09 942.111 1564.26 Q945.491 1567.44 945.491 1572.85 Q945.491 1578.43 942.019 1581.53 Q938.547 1584.61 932.227 1584.61 Q930.051 1584.61 927.783 1584.24 Q925.537 1583.87 923.13 1583.13 L923.13 1578.43 Q925.213 1579.56 927.436 1580.12 Q929.658 1580.68 932.135 1580.68 Q936.139 1580.68 938.477 1578.57 Q940.815 1576.46 940.815 1572.85 Q940.815 1569.24 938.477 1567.13 Q936.139 1565.03 932.135 1565.03 Q930.26 1565.03 928.385 1565.44 Q926.533 1565.86 924.588 1566.74 L924.588 1549.38 Z" fill="#000000" fill-rule="nonzero" fill-opacity="1" /><path clip-path="url(#clip760)" d="M954.704 1578.06 L959.588 1578.06 L959.588 1583.94 L954.704 1583.94 L954.704 1578.06 Z" fill="#000000" fill-rule="nonzero" fill-opacity="1" /><path clip-path="url(#clip760)" d="M979.773 1552.46 Q976.162 1552.46 974.333 1556.02 Q972.528 1559.56 972.528 1566.69 Q972.528 1573.8 974.333 1577.37 Q976.162 1580.91 979.773 1580.91 Q983.408 1580.91 985.213 1577.37 Q987.042 1573.8 987.042 1566.69 Q987.042 1559.56 985.213 1556.02 Q983.408 1552.46 979.773 1552.46 M979.773 1548.75 Q985.583 1548.75 988.639 1553.36 Q991.718 1557.94 991.718 1566.69 Q991.718 1575.42 988.639 1580.03 Q985.583 1584.61 979.773 1584.61 Q973.963 1584.61 970.884 1580.03 Q967.829 1575.42 967.829 1566.69 Q967.829 1557.94 970.884 1553.36 Q973.963 1548.75 979.773 1548.75 Z" fill="#000000" fill-rule="nonzero" fill-opacity="1" /><path clip-path="url(#clip760)" d="M1300.38 1549.38 L1322.6 1549.38 L1322.6 1551.37 L1310.05 1583.94 L1305.17 1583.94 L1316.97 1553.32 L1300.38 1553.32 L1300.38 1549.38 Z" fill="#000000" fill-rule="nonzero" fill-opacity="1" /><path clip-path="url(#clip760)" d="M1331.72 1578.06 L1336.6 1578.06 L1336.6 1583.94 L1331.72 1583.94 L1331.72 1578.06 Z" fill="#000000" fill-rule="nonzero" fill-opacity="1" /><path clip-path="url(#clip760)" d="M1346.84 1549.38 L1365.19 1549.38 L1365.19 1553.32 L1351.12 1553.32 L1351.12 1561.79 Q1352.14 1561.44 1353.16 1561.28 Q1354.17 1561.09 1355.19 1561.09 Q1360.98 1561.09 1364.36 1564.26 Q1367.74 1567.44 1367.74 1572.85 Q1367.74 1578.43 1364.27 1581.53 Q1360.79 1584.61 1354.47 1584.61 Q1352.3 1584.61 1350.03 1584.24 Q1347.78 1583.87 1345.38 1583.13 L1345.38 1578.43 Q1347.46 1579.56 1349.68 1580.12 Q1351.91 1580.68 1354.38 1580.68 Q1358.39 1580.68 1360.72 1578.57 Q1363.06 1576.46 1363.06 1572.85 Q1363.06 1569.24 1360.72 1567.13 Q1358.39 1565.03 1354.38 1565.03 Q1352.51 1565.03 1350.63 1565.44 Q1348.78 1565.86 1346.84 1566.74 L1346.84 1549.38 Z" fill="#000000" fill-rule="nonzero" fill-opacity="1" /><path clip-path="url(#clip760)" d="M1662.76 1580 L1670.4 1580 L1670.4 1553.64 L1662.09 1555.31 L1662.09 1551.05 L1670.36 1549.38 L1675.03 1549.38 L1675.03 1580 L1682.67 1580 L1682.67 1583.94 L1662.76 1583.94 L1662.76 1580 Z" fill="#000000" fill-rule="nonzero" fill-opacity="1" /><path clip-path="url(#clip760)" d="M1702.12 1552.46 Q1698.51 1552.46 1696.68 1556.02 Q1694.87 1559.56 1694.87 1566.69 Q1694.87 1573.8 1696.68 1577.37 Q1698.51 1580.91 1702.12 1580.91 Q1705.75 1580.91 1707.56 1577.37 Q1709.38 1573.8 1709.38 1566.69 Q1709.38 1559.56 1707.56 1556.02 Q1705.75 1552.46 1702.12 1552.46 M1702.12 1548.75 Q1707.93 1548.75 1710.98 1553.36 Q1714.06 1557.94 1714.06 1566.69 Q1714.06 1575.42 1710.98 1580.03 Q1707.93 1584.61 1702.12 1584.61 Q1696.31 1584.61 1693.23 1580.03 Q1690.17 1575.42 1690.17 1566.69 Q1690.17 1557.94 1693.23 1553.36 Q1696.31 1548.75 1702.12 1548.75 Z" fill="#000000" fill-rule="nonzero" fill-opacity="1" /><path clip-path="url(#clip760)" d="M1722.28 1578.06 L1727.16 1578.06 L1727.16 1583.94 L1722.28 1583.94 L1722.28 1578.06 Z" fill="#000000" fill-rule="nonzero" fill-opacity="1" /><path clip-path="url(#clip760)" d="M1747.35 1552.46 Q1743.74 1552.46 1741.91 1556.02 Q1740.1 1559.56 1740.1 1566.69 Q1740.1 1573.8 1741.91 1577.37 Q1743.74 1580.91 1747.35 1580.91 Q1750.98 1580.91 1752.79 1577.37 Q1754.62 1573.8 1754.62 1566.69 Q1754.62 1559.56 1752.79 1556.02 Q1750.98 1552.46 1747.35 1552.46 M1747.35 1548.75 Q1753.16 1548.75 1756.21 1553.36 Q1759.29 1557.94 1759.29 1566.69 Q1759.29 1575.42 1756.21 1580.03 Q1753.16 1584.61 1747.35 1584.61 Q1741.54 1584.61 1738.46 1580.03 Q1735.4 1575.42 1735.4 1566.69 Q1735.4 1557.94 1738.46 1553.36 Q1741.54 1548.75 1747.35 1548.75 Z" fill="#000000" fill-rule="nonzero" fill-opacity="1" /><path clip-path="url(#clip760)" d="M2039.9 1580 L2047.54 1580 L2047.54 1553.64 L2039.23 1555.31 L2039.23 1551.05 L2047.49 1549.38 L2052.17 1549.38 L2052.17 1580 L2059.8 1580 L2059.8 1583.94 L2039.9 1583.94 L2039.9 1580 Z" fill="#000000" fill-rule="nonzero" fill-opacity="1" /><path clip-path="url(#clip760)" d="M2073.28 1580 L2089.6 1580 L2089.6 1583.94 L2067.65 1583.94 L2067.65 1580 Q2070.31 1577.25 2074.9 1572.62 Q2079.5 1567.97 2080.68 1566.63 Q2082.93 1564.1 2083.81 1562.37 Q2084.71 1560.61 2084.71 1558.92 Q2084.71 1556.16 2082.77 1554.43 Q2080.85 1552.69 2077.74 1552.69 Q2075.54 1552.69 2073.09 1553.45 Q2070.66 1554.22 2067.88 1555.77 L2067.88 1551.05 Q2070.71 1549.91 2073.16 1549.33 Q2075.61 1548.75 2077.65 1548.75 Q2083.02 1548.75 2086.22 1551.44 Q2089.41 1554.13 2089.41 1558.62 Q2089.41 1560.75 2088.6 1562.67 Q2087.81 1564.56 2085.71 1567.16 Q2085.13 1567.83 2082.03 1571.05 Q2078.92 1574.24 2073.28 1580 Z" fill="#000000" fill-rule="nonzero" fill-opacity="1" /><path clip-path="url(#clip760)" d="M2099.41 1578.06 L2104.29 1578.06 L2104.29 1583.94 L2099.41 1583.94 L2099.41 1578.06 Z" fill="#000000" fill-rule="nonzero" fill-opacity="1" /><path clip-path="url(#clip760)" d="M2114.53 1549.38 L2132.88 1549.38 L2132.88 1553.32 L2118.81 1553.32 L2118.81 1561.79 Q2119.83 1561.44 2120.85 1561.28 Q2121.86 1561.09 2122.88 1561.09 Q2128.67 1561.09 2132.05 1564.26 Q2135.43 1567.44 2135.43 1572.85 Q2135.43 1578.43 2131.96 1581.53 Q2128.48 1584.61 2122.16 1584.61 Q2119.99 1584.61 2117.72 1584.24 Q2115.47 1583.87 2113.07 1583.13 L2113.07 1578.43 Q2115.15 1579.56 2117.37 1580.12 Q2119.6 1580.68 2122.07 1580.68 Q2126.08 1580.68 2128.41 1578.57 Q2130.75 1576.46 2130.75 1572.85 Q2130.75 1569.24 2128.41 1567.13 Q2126.08 1565.03 2122.07 1565.03 Q2120.2 1565.03 2118.32 1565.44 Q2116.47 1565.86 2114.53 1566.74 L2114.53 1549.38 Z" fill="#000000" fill-rule="nonzero" fill-opacity="1" /><path clip-path="url(#clip760)" d="M2416.03 1580 L2423.67 1580 L2423.67 1553.64 L2415.36 1555.31 L2415.36 1551.05 L2423.63 1549.38 L2428.3 1549.38 L2428.3 1580 L2435.94 1580 L2435.94 1583.94 L2416.03 1583.94 L2416.03 1580 Z" fill="#000000" fill-rule="nonzero" fill-opacity="1" /><path clip-path="url(#clip760)" d="M2445.43 1549.38 L2463.79 1549.38 L2463.79 1553.32 L2449.71 1553.32 L2449.71 1561.79 Q2450.73 1561.44 2451.75 1561.28 Q2452.77 1561.09 2453.79 1561.09 Q2459.57 1561.09 2462.95 1564.26 Q2466.33 1567.44 2466.33 1572.85 Q2466.33 1578.43 2462.86 1581.53 Q2459.39 1584.61 2453.07 1584.61 Q2450.89 1584.61 2448.63 1584.24 Q2446.38 1583.87 2443.97 1583.13 L2443.97 1578.43 Q2446.06 1579.56 2448.28 1580.12 Q2450.5 1580.68 2452.98 1580.68 Q2456.98 1580.68 2459.32 1578.57 Q2461.66 1576.46 2461.66 1572.85 Q2461.66 1569.24 2459.32 1567.13 Q2456.98 1565.03 2452.98 1565.03 Q2451.1 1565.03 2449.23 1565.44 Q2447.38 1565.86 2445.43 1566.74 L2445.43 1549.38 Z" fill="#000000" fill-rule="nonzero" fill-opacity="1" /><path clip-path="url(#clip760)" d="M2475.55 1578.06 L2480.43 1578.06 L2480.43 1583.94 L2475.55 1583.94 L2475.55 1578.06 Z" fill="#000000" fill-rule="nonzero" fill-opacity="1" /><path clip-path="url(#clip760)" d="M2500.62 1552.46 Q2497.01 1552.46 2495.18 1556.02 Q2493.37 1559.56 2493.37 1566.69 Q2493.37 1573.8 2495.18 1577.37 Q2497.01 1580.91 2500.62 1580.91 Q2504.25 1580.91 2506.06 1577.37 Q2507.88 1573.8 2507.88 1566.69 Q2507.88 1559.56 2506.06 1556.02 Q2504.25 1552.46 2500.62 1552.46 M2500.62 1548.75 Q2506.43 1548.75 2509.48 1553.36 Q2512.56 1557.94 2512.56 1566.69 Q2512.56 1575.42 2509.48 1580.03 Q2506.43 1584.61 2500.62 1584.61 Q2494.81 1584.61 2491.73 1580.03 Q2488.67 1575.42 2488.67 1566.69 Q2488.67 1557.94 2491.73 1553.36 Q2494.81 1548.75 2500.62 1548.75 Z" fill="#000000" fill-rule="nonzero" fill-opacity="1" /><path clip-path="url(#clip760)" d="M2793.17 1580 L2800.8 1580 L2800.8 1553.64 L2792.49 1555.31 L2792.49 1551.05 L2800.76 1549.38 L2805.43 1549.38 L2805.43 1580 L2813.07 1580 L2813.07 1583.94 L2793.17 1583.94 L2793.17 1580 Z" fill="#000000" fill-rule="nonzero" fill-opacity="1" /><path clip-path="url(#clip760)" d="M2821.34 1549.38 L2843.56 1549.38 L2843.56 1551.37 L2831.01 1583.94 L2826.13 1583.94 L2837.93 1553.32 L2821.34 1553.32 L2821.34 1549.38 Z" fill="#000000" fill-rule="nonzero" fill-opacity="1" /><path clip-path="url(#clip760)" d="M2852.68 1578.06 L2857.56 1578.06 L2857.56 1583.94 L2852.68 1583.94 L2852.68 1578.06 Z" fill="#000000" fill-rule="nonzero" fill-opacity="1" /><path clip-path="url(#clip760)" d="M2867.79 1549.38 L2886.15 1549.38 L2886.15 1553.32 L2872.08 1553.32 L2872.08 1561.79 Q2873.1 1561.44 2874.11 1561.28 Q2875.13 1561.09 2876.15 1561.09 Q2881.94 1561.09 2885.32 1564.26 Q2888.7 1567.44 2888.7 1572.85 Q2888.7 1578.43 2885.23 1581.53 Q2881.75 1584.61 2875.43 1584.61 Q2873.26 1584.61 2870.99 1584.24 Q2868.74 1583.87 2866.34 1583.13 L2866.34 1578.43 Q2868.42 1579.56 2870.64 1580.12 Q2872.86 1580.68 2875.34 1580.68 Q2879.35 1580.68 2881.68 1578.57 Q2884.02 1576.46 2884.02 1572.85 Q2884.02 1569.24 2881.68 1567.13 Q2879.35 1565.03 2875.34 1565.03 Q2873.47 1565.03 2871.59 1565.44 Q2869.74 1565.86 2867.79 1566.74 L2867.79 1549.38 Z" fill="#000000" fill-rule="nonzero" fill-opacity="1" /><path clip-path="url(#clip760)" d="M1541.54 1623.36 L1571.58 1623.36 L1571.58 1628.77 L1547.96 1628.77 L1547.96 1642.84 L1570.59 1642.84 L1570.59 1648.25 L1547.96 1648.25 L1547.96 1665.47 L1572.15 1665.47 L1572.15 1670.88 L1541.54 1670.88 L1541.54 1623.36 Z" fill="#000000" fill-rule="nonzero" fill-opacity="1" /><path clip-path="url(#clip760)" d="M1588.13 1665.54 L1588.13 1684.44 L1582.24 1684.44 L1582.24 1635.24 L1588.13 1635.24 L1588.13 1640.65 Q1589.98 1637.46 1592.78 1635.94 Q1595.61 1634.38 1599.53 1634.38 Q1606.02 1634.38 1610.06 1639.53 Q1614.14 1644.69 1614.14 1653.09 Q1614.14 1661.49 1610.06 1666.65 Q1606.02 1671.81 1599.53 1671.81 Q1595.61 1671.81 1592.78 1670.28 Q1589.98 1668.72 1588.13 1665.54 M1608.06 1653.09 Q1608.06 1646.63 1605.38 1642.97 Q1602.74 1639.28 1598.09 1639.28 Q1593.45 1639.28 1590.77 1642.97 Q1588.13 1646.63 1588.13 1653.09 Q1588.13 1659.55 1590.77 1663.24 Q1593.45 1666.91 1598.09 1666.91 Q1602.74 1666.91 1605.38 1663.24 Q1608.06 1659.55 1608.06 1653.09 Z" fill="#000000" fill-rule="nonzero" fill-opacity="1" /><path clip-path="url(#clip760)" d="M1637.66 1639.34 Q1632.95 1639.34 1630.21 1643.03 Q1627.47 1646.69 1627.47 1653.09 Q1627.47 1659.49 1630.18 1663.18 Q1632.91 1666.84 1637.66 1666.84 Q1642.34 1666.84 1645.07 1663.15 Q1647.81 1659.46 1647.81 1653.09 Q1647.81 1646.76 1645.07 1643.07 Q1642.34 1639.34 1637.66 1639.34 M1637.66 1634.38 Q1645.3 1634.38 1649.66 1639.34 Q1654.02 1644.31 1654.02 1653.09 Q1654.02 1661.84 1649.66 1666.84 Q1645.3 1671.81 1637.66 1671.81 Q1629.99 1671.81 1625.63 1666.84 Q1621.3 1661.84 1621.3 1653.09 Q1621.3 1644.31 1625.63 1639.34 Q1629.99 1634.38 1637.66 1634.38 Z" fill="#000000" fill-rule="nonzero" fill-opacity="1" /><path clip-path="url(#clip760)" d="M1689.38 1636.6 L1689.38 1642.08 Q1686.9 1640.71 1684.38 1640.04 Q1681.9 1639.34 1679.35 1639.34 Q1673.66 1639.34 1670.5 1642.97 Q1667.35 1646.57 1667.35 1653.09 Q1667.35 1659.62 1670.5 1663.24 Q1673.66 1666.84 1679.35 1666.84 Q1681.9 1666.84 1684.38 1666.17 Q1686.9 1665.47 1689.38 1664.1 L1689.38 1669.52 Q1686.93 1670.66 1684.29 1671.23 Q1681.68 1671.81 1678.72 1671.81 Q1670.66 1671.81 1665.92 1666.75 Q1661.18 1661.69 1661.18 1653.09 Q1661.18 1644.37 1665.95 1639.37 Q1670.76 1634.38 1679.1 1634.38 Q1681.8 1634.38 1684.38 1634.95 Q1686.96 1635.49 1689.38 1636.6 Z" fill="#000000" fill-rule="nonzero" fill-opacity="1" /><path clip-path="url(#clip760)" d="M1729.2 1649.37 L1729.2 1670.88 L1723.34 1670.88 L1723.34 1649.56 Q1723.34 1644.5 1721.37 1641.98 Q1719.39 1639.47 1715.45 1639.47 Q1710.7 1639.47 1707.97 1642.49 Q1705.23 1645.52 1705.23 1650.74 L1705.23 1670.88 L1699.34 1670.88 L1699.34 1621.36 L1705.23 1621.36 L1705.23 1640.77 Q1707.33 1637.56 1710.16 1635.97 Q1713.03 1634.38 1716.75 1634.38 Q1722.89 1634.38 1726.05 1638.2 Q1729.2 1641.98 1729.2 1649.37 Z" fill="#000000" fill-rule="nonzero" fill-opacity="1" /><polyline clip-path="url(#clip760)" style="stroke:#000000; stroke-linecap:round; stroke-linejoin:round; stroke-width:4; stroke-opacity:1; fill:none" points="277.975,1516.42 277.975,98.8027 "/>
<polyline clip-path="url(#clip760)" style="stroke:#000000; stroke-linecap:round; stroke-linejoin:round; stroke-width:4; stroke-opacity:1; fill:none" points="277.975,1306.27 296.873,1306.27 "/>
<polyline clip-path="url(#clip760)" style="stroke:#000000; stroke-linecap:round; stroke-linejoin:round; stroke-width:4; stroke-opacity:1; fill:none" points="277.975,1001.88 296.873,1001.88 "/>
<polyline clip-path="url(#clip760)" style="stroke:#000000; stroke-linecap:round; stroke-linejoin:round; stroke-width:4; stroke-opacity:1; fill:none" points="277.975,697.477 296.873,697.477 "/>
<polyline clip-path="url(#clip760)" style="stroke:#000000; stroke-linecap:round; stroke-linejoin:round; stroke-width:4; stroke-opacity:1; fill:none" points="277.975,393.078 296.873,393.078 "/>
<path clip-path="url(#clip760)" d="M114.876 1292.07 Q111.265 1292.07 109.436 1295.64 Q107.631 1299.18 107.631 1306.31 Q107.631 1313.42 109.436 1316.98 Q111.265 1320.52 114.876 1320.52 Q118.51 1320.52 120.316 1316.98 Q122.145 1313.42 122.145 1306.31 Q122.145 1299.18 120.316 1295.64 Q118.51 1292.07 114.876 1292.07 M114.876 1288.37 Q120.686 1288.37 123.742 1292.98 Q126.82 1297.56 126.82 1306.31 Q126.82 1315.04 123.742 1319.64 Q120.686 1324.23 114.876 1324.23 Q109.066 1324.23 105.987 1319.64 Q102.932 1315.04 102.932 1306.31 Q102.932 1297.56 105.987 1292.98 Q109.066 1288.37 114.876 1288.37 Z" fill="#000000" fill-rule="nonzero" fill-opacity="1" /><path clip-path="url(#clip760)" d="M135.038 1317.67 L139.922 1317.67 L139.922 1323.55 L135.038 1323.55 L135.038 1317.67 Z" fill="#000000" fill-rule="nonzero" fill-opacity="1" /><path clip-path="url(#clip760)" d="M148.927 1288.99 L171.149 1288.99 L171.149 1290.98 L158.603 1323.55 L153.719 1323.55 L165.524 1292.93 L148.927 1292.93 L148.927 1288.99 Z" fill="#000000" fill-rule="nonzero" fill-opacity="1" /><path clip-path="url(#clip760)" d="M180.316 1288.99 L198.672 1288.99 L198.672 1292.93 L184.598 1292.93 L184.598 1301.4 Q185.616 1301.05 186.635 1300.89 Q187.654 1300.71 188.672 1300.71 Q194.459 1300.71 197.839 1303.88 Q201.218 1307.05 201.218 1312.47 Q201.218 1318.04 197.746 1321.15 Q194.274 1324.23 187.954 1324.23 Q185.779 1324.23 183.51 1323.85 Q181.265 1323.48 178.857 1322.74 L178.857 1318.04 Q180.941 1319.18 183.163 1319.73 Q185.385 1320.29 187.862 1320.29 Q191.866 1320.29 194.204 1318.18 Q196.542 1316.08 196.542 1312.47 Q196.542 1308.85 194.204 1306.75 Q191.866 1304.64 187.862 1304.64 Q185.987 1304.64 184.112 1305.06 Q182.26 1305.48 180.316 1306.35 L180.316 1288.99 Z" fill="#000000" fill-rule="nonzero" fill-opacity="1" /><path clip-path="url(#clip760)" d="M220.431 1292.07 Q216.82 1292.07 214.991 1295.64 Q213.186 1299.18 213.186 1306.31 Q213.186 1313.42 214.991 1316.98 Q216.82 1320.52 220.431 1320.52 Q224.065 1320.52 225.871 1316.98 Q227.7 1313.42 227.7 1306.31 Q227.7 1299.18 225.871 1295.64 Q224.065 1292.07 220.431 1292.07 M220.431 1288.37 Q226.241 1288.37 229.297 1292.98 Q232.375 1297.56 232.375 1306.31 Q232.375 1315.04 229.297 1319.64 Q226.241 1324.23 220.431 1324.23 Q214.621 1324.23 211.542 1319.64 Q208.487 1315.04 208.487 1306.31 Q208.487 1297.56 211.542 1292.98 Q214.621 1288.37 220.431 1288.37 Z" fill="#000000" fill-rule="nonzero" fill-opacity="1" /><path clip-path="url(#clip760)" d="M115.871 987.674 Q112.26 987.674 110.432 991.239 Q108.626 994.78 108.626 1001.91 Q108.626 1009.02 110.432 1012.58 Q112.26 1016.12 115.871 1016.12 Q119.506 1016.12 121.311 1012.58 Q123.14 1009.02 123.14 1001.91 Q123.14 994.78 121.311 991.239 Q119.506 987.674 115.871 987.674 M115.871 983.97 Q121.682 983.97 124.737 988.577 Q127.816 993.16 127.816 1001.91 Q127.816 1010.64 124.737 1015.24 Q121.682 1019.83 115.871 1019.83 Q110.061 1019.83 106.983 1015.24 Q103.927 1010.64 103.927 1001.91 Q103.927 993.16 106.983 988.577 Q110.061 983.97 115.871 983.97 Z" fill="#000000" fill-rule="nonzero" fill-opacity="1" /><path clip-path="url(#clip760)" d="M136.033 1013.28 L140.918 1013.28 L140.918 1019.16 L136.033 1019.16 L136.033 1013.28 Z" fill="#000000" fill-rule="nonzero" fill-opacity="1" /><path clip-path="url(#clip760)" d="M149.922 984.595 L172.144 984.595 L172.144 986.586 L159.598 1019.16 L154.714 1019.16 L166.519 988.53 L149.922 988.53 L149.922 984.595 Z" fill="#000000" fill-rule="nonzero" fill-opacity="1" /><path clip-path="url(#clip760)" d="M180.084 984.595 L202.306 984.595 L202.306 986.586 L189.76 1019.16 L184.876 1019.16 L196.681 988.53 L180.084 988.53 L180.084 984.595 Z" fill="#000000" fill-rule="nonzero" fill-opacity="1" /><path clip-path="url(#clip760)" d="M211.473 984.595 L229.829 984.595 L229.829 988.53 L215.755 988.53 L215.755 997.003 Q216.774 996.655 217.792 996.493 Q218.811 996.308 219.829 996.308 Q225.616 996.308 228.996 999.479 Q232.375 1002.65 232.375 1008.07 Q232.375 1013.65 228.903 1016.75 Q225.431 1019.83 219.112 1019.83 Q216.936 1019.83 214.667 1019.46 Q212.422 1019.09 210.014 1018.35 L210.014 1013.65 Q212.098 1014.78 214.32 1015.34 Q216.542 1015.89 219.019 1015.89 Q223.024 1015.89 225.362 1013.78 Q227.7 1011.68 227.7 1008.07 Q227.7 1004.46 225.362 1002.35 Q223.024 1000.24 219.019 1000.24 Q217.144 1000.24 215.269 1000.66 Q213.417 1001.08 211.473 1001.96 L211.473 984.595 Z" fill="#000000" fill-rule="nonzero" fill-opacity="1" /><path clip-path="url(#clip760)" d="M114.876 683.275 Q111.265 683.275 109.436 686.84 Q107.631 690.382 107.631 697.511 Q107.631 704.618 109.436 708.183 Q111.265 711.724 114.876 711.724 Q118.51 711.724 120.316 708.183 Q122.145 704.618 122.145 697.511 Q122.145 690.382 120.316 686.84 Q118.51 683.275 114.876 683.275 M114.876 679.572 Q120.686 679.572 123.742 684.178 Q126.82 688.761 126.82 697.511 Q126.82 706.238 123.742 710.845 Q120.686 715.428 114.876 715.428 Q109.066 715.428 105.987 710.845 Q102.932 706.238 102.932 697.511 Q102.932 688.761 105.987 684.178 Q109.066 679.572 114.876 679.572 Z" fill="#000000" fill-rule="nonzero" fill-opacity="1" /><path clip-path="url(#clip760)" d="M135.038 708.877 L139.922 708.877 L139.922 714.757 L135.038 714.757 L135.038 708.877 Z" fill="#000000" fill-rule="nonzero" fill-opacity="1" /><path clip-path="url(#clip760)" d="M160.107 698.345 Q156.774 698.345 154.853 700.127 Q152.955 701.909 152.955 705.034 Q152.955 708.159 154.853 709.942 Q156.774 711.724 160.107 711.724 Q163.441 711.724 165.362 709.942 Q167.283 708.136 167.283 705.034 Q167.283 701.909 165.362 700.127 Q163.464 698.345 160.107 698.345 M155.431 696.354 Q152.422 695.613 150.732 693.553 Q149.066 691.493 149.066 688.53 Q149.066 684.386 152.006 681.979 Q154.968 679.572 160.107 679.572 Q165.269 679.572 168.209 681.979 Q171.149 684.386 171.149 688.53 Q171.149 691.493 169.459 693.553 Q167.792 695.613 164.806 696.354 Q168.186 697.141 170.061 699.433 Q171.959 701.724 171.959 705.034 Q171.959 710.058 168.88 712.743 Q165.825 715.428 160.107 715.428 Q154.39 715.428 151.311 712.743 Q148.256 710.058 148.256 705.034 Q148.256 701.724 150.154 699.433 Q152.052 697.141 155.431 696.354 M153.719 688.97 Q153.719 691.655 155.385 693.16 Q157.075 694.664 160.107 694.664 Q163.117 694.664 164.806 693.16 Q166.519 691.655 166.519 688.97 Q166.519 686.285 164.806 684.78 Q163.117 683.275 160.107 683.275 Q157.075 683.275 155.385 684.78 Q153.719 686.285 153.719 688.97 Z" fill="#000000" fill-rule="nonzero" fill-opacity="1" /><path clip-path="url(#clip760)" d="M190.269 683.275 Q186.658 683.275 184.829 686.84 Q183.024 690.382 183.024 697.511 Q183.024 704.618 184.829 708.183 Q186.658 711.724 190.269 711.724 Q193.903 711.724 195.709 708.183 Q197.538 704.618 197.538 697.511 Q197.538 690.382 195.709 686.84 Q193.903 683.275 190.269 683.275 M190.269 679.572 Q196.079 679.572 199.135 684.178 Q202.214 688.761 202.214 697.511 Q202.214 706.238 199.135 710.845 Q196.079 715.428 190.269 715.428 Q184.459 715.428 181.38 710.845 Q178.325 706.238 178.325 697.511 Q178.325 688.761 181.38 684.178 Q184.459 679.572 190.269 679.572 Z" fill="#000000" fill-rule="nonzero" fill-opacity="1" /><path clip-path="url(#clip760)" d="M220.431 683.275 Q216.82 683.275 214.991 686.84 Q213.186 690.382 213.186 697.511 Q213.186 704.618 214.991 708.183 Q216.82 711.724 220.431 711.724 Q224.065 711.724 225.871 708.183 Q227.7 704.618 227.7 697.511 Q227.7 690.382 225.871 686.84 Q224.065 683.275 220.431 683.275 M220.431 679.572 Q226.241 679.572 229.297 684.178 Q232.375 688.761 232.375 697.511 Q232.375 706.238 229.297 710.845 Q226.241 715.428 220.431 715.428 Q214.621 715.428 211.542 710.845 Q208.487 706.238 208.487 697.511 Q208.487 688.761 211.542 684.178 Q214.621 679.572 220.431 679.572 Z" fill="#000000" fill-rule="nonzero" fill-opacity="1" /><path clip-path="url(#clip760)" d="M115.871 378.877 Q112.26 378.877 110.432 382.441 Q108.626 385.983 108.626 393.113 Q108.626 400.219 110.432 403.784 Q112.26 407.326 115.871 407.326 Q119.506 407.326 121.311 403.784 Q123.14 400.219 123.14 393.113 Q123.14 385.983 121.311 382.441 Q119.506 378.877 115.871 378.877 M115.871 375.173 Q121.682 375.173 124.737 379.779 Q127.816 384.363 127.816 393.113 Q127.816 401.839 124.737 406.446 Q121.682 411.029 115.871 411.029 Q110.061 411.029 106.983 406.446 Q103.927 401.839 103.927 393.113 Q103.927 384.363 106.983 379.779 Q110.061 375.173 115.871 375.173 Z" fill="#000000" fill-rule="nonzero" fill-opacity="1" /><path clip-path="url(#clip760)" d="M136.033 404.478 L140.918 404.478 L140.918 410.358 L136.033 410.358 L136.033 404.478 Z" fill="#000000" fill-rule="nonzero" fill-opacity="1" /><path clip-path="url(#clip760)" d="M161.103 393.946 Q157.769 393.946 155.848 395.728 Q153.95 397.511 153.95 400.636 Q153.95 403.761 155.848 405.543 Q157.769 407.326 161.103 407.326 Q164.436 407.326 166.357 405.543 Q168.279 403.738 168.279 400.636 Q168.279 397.511 166.357 395.728 Q164.459 393.946 161.103 393.946 M156.427 391.955 Q153.418 391.215 151.728 389.154 Q150.061 387.094 150.061 384.131 Q150.061 379.988 153.001 377.58 Q155.964 375.173 161.103 375.173 Q166.265 375.173 169.205 377.58 Q172.144 379.988 172.144 384.131 Q172.144 387.094 170.455 389.154 Q168.788 391.215 165.802 391.955 Q169.181 392.742 171.056 395.034 Q172.955 397.326 172.955 400.636 Q172.955 405.659 169.876 408.344 Q166.82 411.029 161.103 411.029 Q155.385 411.029 152.306 408.344 Q149.251 405.659 149.251 400.636 Q149.251 397.326 151.149 395.034 Q153.047 392.742 156.427 391.955 M154.714 384.571 Q154.714 387.256 156.381 388.761 Q158.07 390.265 161.103 390.265 Q164.112 390.265 165.802 388.761 Q167.515 387.256 167.515 384.571 Q167.515 381.886 165.802 380.381 Q164.112 378.877 161.103 378.877 Q158.07 378.877 156.381 380.381 Q154.714 381.886 154.714 384.571 Z" fill="#000000" fill-rule="nonzero" fill-opacity="1" /><path clip-path="url(#clip760)" d="M185.292 406.423 L201.612 406.423 L201.612 410.358 L179.667 410.358 L179.667 406.423 Q182.329 403.668 186.913 399.039 Q191.519 394.386 192.7 393.043 Q194.945 390.52 195.825 388.784 Q196.728 387.025 196.728 385.335 Q196.728 382.58 194.783 380.844 Q192.862 379.108 189.76 379.108 Q187.561 379.108 185.107 379.872 Q182.677 380.636 179.899 382.187 L179.899 377.465 Q182.723 376.33 185.177 375.752 Q187.63 375.173 189.667 375.173 Q195.038 375.173 198.232 377.858 Q201.427 380.543 201.427 385.034 Q201.427 387.164 200.616 389.085 Q199.829 390.983 197.723 393.576 Q197.144 394.247 194.042 397.464 Q190.941 400.659 185.292 406.423 Z" fill="#000000" fill-rule="nonzero" fill-opacity="1" /><path clip-path="url(#clip760)" d="M211.473 375.798 L229.829 375.798 L229.829 379.733 L215.755 379.733 L215.755 388.205 Q216.774 387.858 217.792 387.696 Q218.811 387.511 219.829 387.511 Q225.616 387.511 228.996 390.682 Q232.375 393.853 232.375 399.27 Q232.375 404.849 228.903 407.951 Q225.431 411.029 219.112 411.029 Q216.936 411.029 214.667 410.659 Q212.422 410.288 210.014 409.548 L210.014 404.849 Q212.098 405.983 214.32 406.539 Q216.542 407.094 219.019 407.094 Q223.024 407.094 225.362 404.988 Q227.7 402.881 227.7 399.27 Q227.7 395.659 225.362 393.552 Q223.024 391.446 219.019 391.446 Q217.144 391.446 215.269 391.863 Q213.417 392.279 211.473 393.159 L211.473 375.798 Z" fill="#000000" fill-rule="nonzero" fill-opacity="1" /><path clip-path="url(#clip760)" d="M-4.44426 871.73 L-4.44426 862.149 L27.8935 850.023 L-4.44426 837.832 L-4.44426 828.252 L43.0757 828.252 L43.0757 834.522 L1.34853 834.522 L33.9409 846.776 L33.9409 853.237 L1.34853 865.491 L43.0757 865.491 L43.0757 871.73 L-4.44426 871.73 Z" fill="#000000" fill-rule="nonzero" fill-opacity="1" /><path clip-path="url(#clip760)" d="M-2.88467 787.002 L3.38556 787.002 Q1.63499 790.663 0.775616 793.909 Q-0.0837545 797.156 -0.0837545 800.179 Q-0.0837545 805.431 1.95327 808.296 Q3.9903 811.128 7.74606 811.128 Q10.8971 811.128 12.5203 809.25 Q14.1118 807.341 15.0985 802.057 L15.8942 798.174 Q17.2628 790.981 20.7321 787.575 Q24.1696 784.138 29.9624 784.138 Q36.8692 784.138 40.434 788.785 Q43.9988 793.4 43.9988 802.344 Q43.9988 805.717 43.2349 809.537 Q42.471 813.324 40.9751 817.399 L34.3547 817.399 Q36.5509 813.484 37.6649 809.728 Q38.7789 805.972 38.7789 802.344 Q38.7789 796.837 36.6145 793.845 Q34.4502 790.854 30.4398 790.854 Q26.9387 790.854 24.9653 793.018 Q22.9919 795.15 22.0052 800.052 L21.2414 803.967 Q19.8091 811.16 16.7535 814.375 Q13.698 817.589 8.25532 817.589 Q1.95327 817.589 -1.67518 813.165 Q-5.30363 808.709 -5.30363 800.911 Q-5.30363 797.569 -4.69889 794.1 Q-4.09415 790.631 -2.88467 787.002 Z" fill="#000000" fill-rule="nonzero" fill-opacity="1" /><path clip-path="url(#clip760)" d="M-4.44426 774.112 L-4.44426 744.066 L0.966587 744.066 L0.966587 767.682 L15.0348 767.682 L15.0348 745.052 L20.4456 745.052 L20.4456 767.682 L37.6649 767.682 L37.6649 743.493 L43.0757 743.493 L43.0757 774.112 L-4.44426 774.112 Z" fill="#000000" fill-rule="nonzero" fill-opacity="1" /><path clip-path="url(#clip760)" d="M1193.44 8.64 L1199.34 8.64 L1208.43 45.156 L1217.49 8.64 L1224.05 8.64 L1233.14 45.156 L1242.2 8.64 L1248.13 8.64 L1237.28 51.84 L1229.93 51.84 L1220.81 14.3402 L1211.61 51.84 L1204.26 51.84 L1193.44 8.64 Z" fill="#000000" fill-rule="nonzero" fill-opacity="1" /><path clip-path="url(#clip760)" d="M1254.35 19.4328 L1259.67 19.4328 L1259.67 51.84 L1254.35 51.84 L1254.35 19.4328 M1254.35 6.81709 L1259.67 6.81709 L1259.67 13.559 L1254.35 13.559 L1254.35 6.81709 Z" fill="#000000" fill-rule="nonzero" fill-opacity="1" /><path clip-path="url(#clip760)" d="M1297.75 32.2799 L1297.75 51.84 L1292.43 51.84 L1292.43 32.4535 Q1292.43 27.8529 1290.63 25.567 Q1288.84 23.2811 1285.25 23.2811 Q1280.94 23.2811 1278.45 26.03 Q1275.96 28.7788 1275.96 33.5241 L1275.96 51.84 L1270.61 51.84 L1270.61 19.4328 L1275.96 19.4328 L1275.96 24.4675 Q1277.87 21.545 1280.45 20.0983 Q1283.05 18.6515 1286.44 18.6515 Q1292.02 18.6515 1294.89 22.1237 Q1297.75 25.567 1297.75 32.2799 Z" fill="#000000" fill-rule="nonzero" fill-opacity="1" /><path clip-path="url(#clip760)" d="M1329.7 24.3517 L1329.7 6.81709 L1335.02 6.81709 L1335.02 51.84 L1329.7 51.84 L1329.7 46.9789 Q1328.02 49.8724 1325.44 51.2902 Q1322.9 52.6791 1319.31 52.6791 Q1313.43 52.6791 1309.73 47.9916 Q1306.06 43.3042 1306.06 35.6653 Q1306.06 28.0265 1309.73 23.339 Q1313.43 18.6515 1319.31 18.6515 Q1322.9 18.6515 1325.44 20.0693 Q1328.02 21.4582 1329.7 24.3517 M1311.55 35.6653 Q1311.55 41.5391 1313.96 44.8956 Q1316.39 48.2231 1320.61 48.2231 Q1324.83 48.2231 1327.27 44.8956 Q1329.7 41.5391 1329.7 35.6653 Q1329.7 29.7915 1327.27 26.464 Q1324.83 23.1075 1320.61 23.1075 Q1316.39 23.1075 1313.96 26.464 Q1311.55 29.7915 1311.55 35.6653 Z" fill="#000000" fill-rule="nonzero" fill-opacity="1" /><path clip-path="url(#clip760)" d="M1358.54 23.1654 Q1354.26 23.1654 1351.77 26.5218 Q1349.29 29.8494 1349.29 35.6653 Q1349.29 41.4813 1351.74 44.8377 Q1354.23 48.1653 1358.54 48.1653 Q1362.8 48.1653 1365.29 44.8088 Q1367.77 41.4523 1367.77 35.6653 Q1367.77 29.9072 1365.29 26.5508 Q1362.8 23.1654 1358.54 23.1654 M1358.54 18.6515 Q1365.49 18.6515 1369.45 23.1654 Q1373.42 27.6792 1373.42 35.6653 Q1373.42 43.6225 1369.45 48.1653 Q1365.49 52.6791 1358.54 52.6791 Q1351.57 52.6791 1347.61 48.1653 Q1343.67 43.6225 1343.67 35.6653 Q1343.67 27.6792 1347.61 23.1654 Q1351.57 18.6515 1358.54 18.6515 Z" fill="#000000" fill-rule="nonzero" fill-opacity="1" /><path clip-path="url(#clip760)" d="M1379.15 19.4328 L1384.47 19.4328 L1391.13 44.722 L1397.75 19.4328 L1404.03 19.4328 L1410.69 44.722 L1417.31 19.4328 L1422.64 19.4328 L1414.16 51.84 L1407.88 51.84 L1400.91 25.2776 L1393.9 51.84 L1387.62 51.84 L1379.15 19.4328 Z" fill="#000000" fill-rule="nonzero" fill-opacity="1" /><path clip-path="url(#clip760)" d="M1470.87 24.3517 L1470.87 6.81709 L1476.19 6.81709 L1476.19 51.84 L1470.87 51.84 L1470.87 46.9789 Q1469.19 49.8724 1466.62 51.2902 Q1464.07 52.6791 1460.48 52.6791 Q1454.61 52.6791 1450.9 47.9916 Q1447.23 43.3042 1447.23 35.6653 Q1447.23 28.0265 1450.9 23.339 Q1454.61 18.6515 1460.48 18.6515 Q1464.07 18.6515 1466.62 20.0693 Q1469.19 21.4582 1470.87 24.3517 M1452.73 35.6653 Q1452.73 41.5391 1455.13 44.8956 Q1457.56 48.2231 1461.78 48.2231 Q1466.01 48.2231 1468.44 44.8956 Q1470.87 41.5391 1470.87 35.6653 Q1470.87 29.7915 1468.44 26.464 Q1466.01 23.1075 1461.78 23.1075 Q1457.56 23.1075 1455.13 26.464 Q1452.73 29.7915 1452.73 35.6653 Z" fill="#000000" fill-rule="nonzero" fill-opacity="1" /><path clip-path="url(#clip760)" d="M1487.16 19.4328 L1492.48 19.4328 L1492.48 51.84 L1487.16 51.84 L1487.16 19.4328 M1487.16 6.81709 L1492.48 6.81709 L1492.48 13.559 L1487.16 13.559 L1487.16 6.81709 Z" fill="#000000" fill-rule="nonzero" fill-opacity="1" /><path clip-path="url(#clip760)" d="M1520.03 6.81709 L1520.03 11.2442 L1514.94 11.2442 Q1512.07 11.2442 1510.95 12.4016 Q1509.85 13.559 1509.85 16.5682 L1509.85 19.4328 L1518.61 19.4328 L1518.61 23.5705 L1509.85 23.5705 L1509.85 51.84 L1504.49 51.84 L1504.49 23.5705 L1499.4 23.5705 L1499.4 19.4328 L1504.49 19.4328 L1504.49 17.1758 Q1504.49 11.765 1507.01 9.30551 Q1509.53 6.81709 1515 6.81709 L1520.03 6.81709 Z" fill="#000000" fill-rule="nonzero" fill-opacity="1" /><path clip-path="url(#clip760)" d="M1540.89 6.81709 L1540.89 11.2442 L1535.8 11.2442 Q1532.94 11.2442 1531.81 12.4016 Q1530.71 13.559 1530.71 16.5682 L1530.71 19.4328 L1539.48 19.4328 L1539.48 23.5705 L1530.71 23.5705 L1530.71 51.84 L1525.35 51.84 L1525.35 23.5705 L1520.26 23.5705 L1520.26 19.4328 L1525.35 19.4328 L1525.35 17.1758 Q1525.35 11.765 1527.87 9.30551 Q1530.39 6.81709 1535.86 6.81709 L1540.89 6.81709 Z" fill="#000000" fill-rule="nonzero" fill-opacity="1" /><path clip-path="url(#clip760)" d="M1544.8 39.0507 L1544.8 19.4328 L1550.12 19.4328 L1550.12 38.8482 Q1550.12 43.4488 1551.92 45.7636 Q1553.71 48.0495 1557.3 48.0495 Q1561.61 48.0495 1564.1 45.3007 Q1566.62 42.5519 1566.62 37.8065 L1566.62 19.4328 L1571.94 19.4328 L1571.94 51.84 L1566.62 51.84 L1566.62 46.8632 Q1564.68 49.8145 1562.1 51.2613 Q1559.56 52.6791 1556.17 52.6791 Q1550.59 52.6791 1547.69 49.2069 Q1544.8 45.7347 1544.8 39.0507 M1558.2 18.6515 L1558.2 18.6515 Z" fill="#000000" fill-rule="nonzero" fill-opacity="1" /><path clip-path="url(#clip760)" d="M1603.57 20.3876 L1603.57 25.4223 Q1601.31 24.2649 1598.88 23.6862 Q1596.45 23.1075 1593.84 23.1075 Q1589.88 23.1075 1587.88 24.3228 Q1585.92 25.5381 1585.92 27.9686 Q1585.92 29.8204 1587.33 30.891 Q1588.75 31.9327 1593.03 32.8876 L1594.86 33.2926 Q1600.53 34.5079 1602.9 36.7359 Q1605.3 38.935 1605.3 42.8991 Q1605.3 47.4129 1601.71 50.046 Q1598.16 52.6791 1591.91 52.6791 Q1589.3 52.6791 1586.47 52.1583 Q1583.66 51.6664 1580.53 50.6537 L1580.53 45.156 Q1583.49 46.6896 1586.35 47.4708 Q1589.21 48.2231 1592.02 48.2231 Q1595.78 48.2231 1597.81 46.95 Q1599.83 45.6479 1599.83 43.3042 Q1599.83 41.134 1598.36 39.9766 Q1596.91 38.8192 1591.96 37.7486 L1590.11 37.3146 Q1585.16 36.273 1582.96 34.1318 Q1580.77 31.9616 1580.77 28.2001 Q1580.77 23.6283 1584.01 21.1399 Q1587.25 18.6515 1593.21 18.6515 Q1596.16 18.6515 1598.76 19.0855 Q1601.37 19.5196 1603.57 20.3876 Z" fill="#000000" fill-rule="nonzero" fill-opacity="1" /><path clip-path="url(#clip760)" d="M1613.78 19.4328 L1619.1 19.4328 L1619.1 51.84 L1613.78 51.84 L1613.78 19.4328 M1613.78 6.81709 L1619.1 6.81709 L1619.1 13.559 L1613.78 13.559 L1613.78 6.81709 Z" fill="#000000" fill-rule="nonzero" fill-opacity="1" /><path clip-path="url(#clip760)" d="M1642.8 23.1654 Q1638.52 23.1654 1636.03 26.5218 Q1633.54 29.8494 1633.54 35.6653 Q1633.54 41.4813 1636 44.8377 Q1638.49 48.1653 1642.8 48.1653 Q1647.06 48.1653 1649.54 44.8088 Q1652.03 41.4523 1652.03 35.6653 Q1652.03 29.9072 1649.54 26.5508 Q1647.06 23.1654 1642.8 23.1654 M1642.8 18.6515 Q1649.75 18.6515 1653.71 23.1654 Q1657.67 27.6792 1657.67 35.6653 Q1657.67 43.6225 1653.71 48.1653 Q1649.75 52.6791 1642.8 52.6791 Q1635.83 52.6791 1631.86 48.1653 Q1627.93 43.6225 1627.93 35.6653 Q1627.93 27.6792 1631.86 23.1654 Q1635.83 18.6515 1642.8 18.6515 Z" fill="#000000" fill-rule="nonzero" fill-opacity="1" /><path clip-path="url(#clip760)" d="M1693.44 32.2799 L1693.44 51.84 L1688.11 51.84 L1688.11 32.4535 Q1688.11 27.8529 1686.32 25.567 Q1684.53 23.2811 1680.94 23.2811 Q1676.63 23.2811 1674.14 26.03 Q1671.65 28.7788 1671.65 33.5241 L1671.65 51.84 L1666.3 51.84 L1666.3 19.4328 L1671.65 19.4328 L1671.65 24.4675 Q1673.56 21.545 1676.14 20.0983 Q1678.74 18.6515 1682.12 18.6515 Q1687.71 18.6515 1690.57 22.1237 Q1693.44 25.567 1693.44 32.2799 Z" fill="#000000" fill-rule="nonzero" fill-opacity="1" /><path clip-path="url(#clip760)" d="M1728.16 10.2314 L1728.16 19.4328 L1739.13 19.4328 L1739.13 23.5705 L1728.16 23.5705 L1728.16 41.163 Q1728.16 45.1271 1729.23 46.2555 Q1730.33 47.384 1733.66 47.384 L1739.13 47.384 L1739.13 51.84 L1733.66 51.84 Q1727.49 51.84 1725.15 49.5541 Q1722.81 47.2393 1722.81 41.163 L1722.81 23.5705 L1718.9 23.5705 L1718.9 19.4328 L1722.81 19.4328 L1722.81 10.2314 L1728.16 10.2314 Z" fill="#000000" fill-rule="nonzero" fill-opacity="1" /><path clip-path="url(#clip760)" d="M1764.91 24.4096 Q1764.01 23.8888 1762.94 23.6573 Q1761.9 23.3969 1760.63 23.3969 Q1756.11 23.3969 1753.68 26.3482 Q1751.28 29.2707 1751.28 34.7683 L1751.28 51.84 L1745.93 51.84 L1745.93 19.4328 L1751.28 19.4328 L1751.28 24.4675 Q1752.96 21.5161 1755.65 20.0983 Q1758.34 18.6515 1762.19 18.6515 Q1762.74 18.6515 1763.4 18.7383 Q1764.07 18.7962 1764.88 18.9409 L1764.91 24.4096 Z" fill="#000000" fill-rule="nonzero" fill-opacity="1" /><path clip-path="url(#clip760)" d="M1785.22 35.5496 Q1778.77 35.5496 1776.28 37.0253 Q1773.79 38.501 1773.79 42.06 Q1773.79 44.8956 1775.64 46.5738 Q1777.52 48.2231 1780.74 48.2231 Q1785.16 48.2231 1787.82 45.0981 Q1790.52 41.9442 1790.52 36.7359 L1790.52 35.5496 L1785.22 35.5496 M1795.84 33.3505 L1795.84 51.84 L1790.52 51.84 L1790.52 46.921 Q1788.69 49.8724 1785.97 51.2902 Q1783.25 52.6791 1779.32 52.6791 Q1774.34 52.6791 1771.39 49.9014 Q1768.47 47.0947 1768.47 42.4072 Q1768.47 36.9385 1772.11 34.1607 Q1775.79 31.3829 1783.05 31.3829 L1790.52 31.3829 L1790.52 30.8621 Q1790.52 27.1874 1788.08 25.1908 Q1785.68 23.1654 1781.31 23.1654 Q1778.54 23.1654 1775.9 23.8309 Q1773.27 24.4964 1770.84 25.8274 L1770.84 20.9085 Q1773.76 19.78 1776.51 19.2302 Q1779.26 18.6515 1781.86 18.6515 Q1788.89 18.6515 1792.37 22.2973 Q1795.84 25.9431 1795.84 33.3505 Z" fill="#000000" fill-rule="nonzero" fill-opacity="1" /><path clip-path="url(#clip760)" d="M1806.81 19.4328 L1812.13 19.4328 L1812.13 51.84 L1806.81 51.84 L1806.81 19.4328 M1806.81 6.81709 L1812.13 6.81709 L1812.13 13.559 L1806.81 13.559 L1806.81 6.81709 Z" fill="#000000" fill-rule="nonzero" fill-opacity="1" /><path clip-path="url(#clip760)" d="M1850.21 32.2799 L1850.21 51.84 L1844.88 51.84 L1844.88 32.4535 Q1844.88 27.8529 1843.09 25.567 Q1841.3 23.2811 1837.71 23.2811 Q1833.4 23.2811 1830.91 26.03 Q1828.42 28.7788 1828.42 33.5241 L1828.42 51.84 L1823.07 51.84 L1823.07 19.4328 L1828.42 19.4328 L1828.42 24.4675 Q1830.33 21.545 1832.91 20.0983 Q1835.51 18.6515 1838.89 18.6515 Q1844.48 18.6515 1847.34 22.1237 Q1850.21 25.567 1850.21 32.2799 Z" fill="#000000" fill-rule="nonzero" fill-opacity="1" /><path clip-path="url(#clip760)" d="M1860.83 19.4328 L1866.15 19.4328 L1866.15 51.84 L1860.83 51.84 L1860.83 19.4328 M1860.83 6.81709 L1866.15 6.81709 L1866.15 13.559 L1860.83 13.559 L1860.83 6.81709 Z" fill="#000000" fill-rule="nonzero" fill-opacity="1" /><path clip-path="url(#clip760)" d="M1904.23 32.2799 L1904.23 51.84 L1898.91 51.84 L1898.91 32.4535 Q1898.91 27.8529 1897.11 25.567 Q1895.32 23.2811 1891.73 23.2811 Q1887.42 23.2811 1884.93 26.03 Q1882.44 28.7788 1882.44 33.5241 L1882.44 51.84 L1877.09 51.84 L1877.09 19.4328 L1882.44 19.4328 L1882.44 24.4675 Q1884.35 21.545 1886.93 20.0983 Q1889.53 18.6515 1892.92 18.6515 Q1898.5 18.6515 1901.37 22.1237 Q1904.23 25.567 1904.23 32.2799 Z" fill="#000000" fill-rule="nonzero" fill-opacity="1" /><path clip-path="url(#clip760)" d="M1936.17 35.2602 Q1936.17 29.4732 1933.77 26.2904 Q1931.4 23.1075 1927.09 23.1075 Q1922.81 23.1075 1920.4 26.2904 Q1918.03 29.4732 1918.03 35.2602 Q1918.03 41.0183 1920.4 44.2012 Q1922.81 47.384 1927.09 47.384 Q1931.4 47.384 1933.77 44.2012 Q1936.17 41.0183 1936.17 35.2602 M1941.5 47.818 Q1941.5 56.0934 1937.82 60.1154 Q1934.15 64.1663 1926.57 64.1663 Q1923.76 64.1663 1921.27 63.7323 Q1918.78 63.3272 1916.44 62.4592 L1916.44 57.2798 Q1918.78 58.5529 1921.07 59.1606 Q1923.36 59.7682 1925.73 59.7682 Q1930.97 59.7682 1933.57 57.0194 Q1936.17 54.2995 1936.17 48.7729 L1936.17 46.1398 Q1934.52 49.0044 1931.95 50.4222 Q1929.37 51.84 1925.79 51.84 Q1919.83 51.84 1916.18 47.2972 Q1912.53 42.7544 1912.53 35.2602 Q1912.53 27.7371 1916.18 23.1943 Q1919.83 18.6515 1925.79 18.6515 Q1929.37 18.6515 1931.95 20.0693 Q1934.52 21.4872 1936.17 24.3517 L1936.17 19.4328 L1941.5 19.4328 L1941.5 47.818 Z" fill="#000000" fill-rule="nonzero" fill-opacity="1" /><path clip-path="url(#clip760)" d="M1971.3 6.81709 L1976.63 6.81709 L1976.63 51.84 L1971.3 51.84 L1971.3 6.81709 Z" fill="#000000" fill-rule="nonzero" fill-opacity="1" /><path clip-path="url(#clip760)" d="M2000.32 23.1654 Q1996.04 23.1654 1993.55 26.5218 Q1991.06 29.8494 1991.06 35.6653 Q1991.06 41.4813 1993.52 44.8377 Q1996.01 48.1653 2000.32 48.1653 Q2004.58 48.1653 2007.07 44.8088 Q2009.55 41.4523 2009.55 35.6653 Q2009.55 29.9072 2007.07 26.5508 Q2004.58 23.1654 2000.32 23.1654 M2000.32 18.6515 Q2007.27 18.6515 2011.23 23.1654 Q2015.2 27.6792 2015.2 35.6653 Q2015.2 43.6225 2011.23 48.1653 Q2007.27 52.6791 2000.32 52.6791 Q1993.35 52.6791 1989.39 48.1653 Q1985.45 43.6225 1985.45 35.6653 Q1985.45 27.6792 1989.39 23.1654 Q1993.35 18.6515 2000.32 18.6515 Z" fill="#000000" fill-rule="nonzero" fill-opacity="1" /><path clip-path="url(#clip760)" d="M2044.68 20.3876 L2044.68 25.4223 Q2042.42 24.2649 2039.99 23.6862 Q2037.56 23.1075 2034.96 23.1075 Q2030.99 23.1075 2029 24.3228 Q2027.03 25.5381 2027.03 27.9686 Q2027.03 29.8204 2028.45 30.891 Q2029.87 31.9327 2034.15 32.8876 L2035.97 33.2926 Q2041.64 34.5079 2044.02 36.7359 Q2046.42 38.935 2046.42 42.8991 Q2046.42 47.4129 2042.83 50.046 Q2039.27 52.6791 2033.02 52.6791 Q2030.42 52.6791 2027.58 52.1583 Q2024.77 51.6664 2021.65 50.6537 L2021.65 45.156 Q2024.6 46.6896 2027.46 47.4708 Q2030.33 48.2231 2033.14 48.2231 Q2036.9 48.2231 2038.92 46.95 Q2040.95 45.6479 2040.95 43.3042 Q2040.95 41.134 2039.47 39.9766 Q2038.03 38.8192 2033.08 37.7486 L2031.23 37.3146 Q2026.28 36.273 2024.08 34.1318 Q2021.88 31.9616 2021.88 28.2001 Q2021.88 23.6283 2025.12 21.1399 Q2028.36 18.6515 2034.32 18.6515 Q2037.27 18.6515 2039.88 19.0855 Q2042.48 19.5196 2044.68 20.3876 Z" fill="#000000" fill-rule="nonzero" fill-opacity="1" /><path clip-path="url(#clip760)" d="M2075.55 20.3876 L2075.55 25.4223 Q2073.3 24.2649 2070.87 23.6862 Q2068.44 23.1075 2065.83 23.1075 Q2061.87 23.1075 2059.87 24.3228 Q2057.9 25.5381 2057.9 27.9686 Q2057.9 29.8204 2059.32 30.891 Q2060.74 31.9327 2065.02 32.8876 L2066.84 33.2926 Q2072.52 34.5079 2074.89 36.7359 Q2077.29 38.935 2077.29 42.8991 Q2077.29 47.4129 2073.7 50.046 Q2070.14 52.6791 2063.89 52.6791 Q2061.29 52.6791 2058.45 52.1583 Q2055.65 51.6664 2052.52 50.6537 L2052.52 45.156 Q2055.47 46.6896 2058.34 47.4708 Q2061.2 48.2231 2064.01 48.2231 Q2067.77 48.2231 2069.8 46.95 Q2071.82 45.6479 2071.82 43.3042 Q2071.82 41.134 2070.35 39.9766 Q2068.9 38.8192 2063.95 37.7486 L2062.1 37.3146 Q2057.15 36.273 2054.95 34.1318 Q2052.75 31.9616 2052.75 28.2001 Q2052.75 23.6283 2055.99 21.1399 Q2059.23 18.6515 2065.2 18.6515 Q2068.15 18.6515 2070.75 19.0855 Q2073.36 19.5196 2075.55 20.3876 Z" fill="#000000" fill-rule="nonzero" fill-opacity="1" /><polyline clip-path="url(#clip762)" style="stroke:#006400; stroke-linecap:round; stroke-linejoin:round; stroke-width:8; stroke-opacity:1; fill:none" points="354.809,138.924 505.463,871.26 656.116,1172.82 806.77,1056.78 957.424,1053.9 1108.08,1250.78 1258.73,1178.15 1409.39,1111.69 1560.04,1436.39 1710.69,1022.04 1861.35,1033.83 2012,1212.35 2162.65,1087.87 2313.31,1220.81 2463.96,1463.87 2614.62,1415.58 2765.27,1134.33 2915.92,1476.3 "/>
<circle clip-path="url(#clip762)" cx="354.809" cy="138.924" r="10.8" fill="#006400" fill-rule="evenodd" fill-opacity="1" stroke="#000000" stroke-opacity="1" stroke-width="3.36"/>
<circle clip-path="url(#clip762)" cx="505.463" cy="871.26" r="10.8" fill="#006400" fill-rule="evenodd" fill-opacity="1" stroke="#000000" stroke-opacity="1" stroke-width="3.36"/>
<circle clip-path="url(#clip762)" cx="656.116" cy="1172.82" r="10.8" fill="#006400" fill-rule="evenodd" fill-opacity="1" stroke="#000000" stroke-opacity="1" stroke-width="3.36"/>
<circle clip-path="url(#clip762)" cx="806.77" cy="1056.78" r="10.8" fill="#006400" fill-rule="evenodd" fill-opacity="1" stroke="#000000" stroke-opacity="1" stroke-width="3.36"/>
<circle clip-path="url(#clip762)" cx="957.424" cy="1053.9" r="10.8" fill="#006400" fill-rule="evenodd" fill-opacity="1" stroke="#000000" stroke-opacity="1" stroke-width="3.36"/>
<circle clip-path="url(#clip762)" cx="1108.08" cy="1250.78" r="10.8" fill="#006400" fill-rule="evenodd" fill-opacity="1" stroke="#000000" stroke-opacity="1" stroke-width="3.36"/>
<circle clip-path="url(#clip762)" cx="1258.73" cy="1178.15" r="10.8" fill="#006400" fill-rule="evenodd" fill-opacity="1" stroke="#000000" stroke-opacity="1" stroke-width="3.36"/>
<circle clip-path="url(#clip762)" cx="1409.39" cy="1111.69" r="10.8" fill="#006400" fill-rule="evenodd" fill-opacity="1" stroke="#000000" stroke-opacity="1" stroke-width="3.36"/>
<circle clip-path="url(#clip762)" cx="1560.04" cy="1436.39" r="10.8" fill="#006400" fill-rule="evenodd" fill-opacity="1" stroke="#000000" stroke-opacity="1" stroke-width="3.36"/>
<circle clip-path="url(#clip762)" cx="1710.69" cy="1022.04" r="10.8" fill="#006400" fill-rule="evenodd" fill-opacity="1" stroke="#000000" stroke-opacity="1" stroke-width="3.36"/>
<circle clip-path="url(#clip762)" cx="1861.35" cy="1033.83" r="10.8" fill="#006400" fill-rule="evenodd" fill-opacity="1" stroke="#000000" stroke-opacity="1" stroke-width="3.36"/>
<circle clip-path="url(#clip762)" cx="2012" cy="1212.35" r="10.8" fill="#006400" fill-rule="evenodd" fill-opacity="1" stroke="#000000" stroke-opacity="1" stroke-width="3.36"/>
<circle clip-path="url(#clip762)" cx="2162.65" cy="1087.87" r="10.8" fill="#006400" fill-rule="evenodd" fill-opacity="1" stroke="#000000" stroke-opacity="1" stroke-width="3.36"/>
<circle clip-path="url(#clip762)" cx="2313.31" cy="1220.81" r="10.8" fill="#006400" fill-rule="evenodd" fill-opacity="1" stroke="#000000" stroke-opacity="1" stroke-width="3.36"/>
<circle clip-path="url(#clip762)" cx="2463.96" cy="1463.87" r="10.8" fill="#006400" fill-rule="evenodd" fill-opacity="1" stroke="#000000" stroke-opacity="1" stroke-width="3.36"/>
<circle clip-path="url(#clip762)" cx="2614.62" cy="1415.58" r="10.8" fill="#006400" fill-rule="evenodd" fill-opacity="1" stroke="#000000" stroke-opacity="1" stroke-width="3.36"/>
<circle clip-path="url(#clip762)" cx="2765.27" cy="1134.33" r="10.8" fill="#006400" fill-rule="evenodd" fill-opacity="1" stroke="#000000" stroke-opacity="1" stroke-width="3.36"/>
<circle clip-path="url(#clip762)" cx="2915.92" cy="1476.3" r="10.8" fill="#006400" fill-rule="evenodd" fill-opacity="1" stroke="#000000" stroke-opacity="1" stroke-width="3.36"/>
<path clip-path="url(#clip760)" d="M2578.35 249.737 L2902.26 249.737 L2902.26 146.057 L2578.35 146.057  Z" fill="#ffffff" fill-rule="evenodd" fill-opacity="1"/>
<polyline clip-path="url(#clip760)" style="stroke:#000000; stroke-linecap:round; stroke-linejoin:round; stroke-width:4; stroke-opacity:1; fill:none" points="2578.35,249.737 2902.26,249.737 2902.26,146.057 2578.35,146.057 2578.35,249.737 "/>
<polyline clip-path="url(#clip760)" style="stroke:#006400; stroke-linecap:round; stroke-linejoin:round; stroke-width:8; stroke-opacity:1; fill:none" points="2608.52,197.897 2789.5,197.897 "/>
<circle clip-path="url(#clip760)" cx="2699.01" cy="197.897" r="19.7486" fill="#006400" fill-rule="evenodd" fill-opacity="1" stroke="#000000" stroke-opacity="1" stroke-width="6.144"/>
<path clip-path="url(#clip760)" d="M2833.51 217.584 Q2831.71 222.214 2829.99 223.626 Q2828.28 225.038 2825.41 225.038 L2822.01 225.038 L2822.01 221.473 L2824.51 221.473 Q2826.27 221.473 2827.24 220.639 Q2828.21 219.806 2829.39 216.704 L2830.15 214.76 L2819.67 189.251 L2824.18 189.251 L2832.28 209.528 L2840.39 189.251 L2844.9 189.251 L2833.51 217.584 Z" fill="#000000" fill-rule="nonzero" fill-opacity="1" /><path clip-path="url(#clip760)" d="M2852.19 211.241 L2859.83 211.241 L2859.83 184.876 L2851.52 186.542 L2851.52 182.283 L2859.78 180.617 L2864.46 180.617 L2864.46 211.241 L2872.1 211.241 L2872.1 215.177 L2852.19 215.177 L2852.19 211.241 Z" fill="#000000" fill-rule="nonzero" fill-opacity="1" /></svg>
