<?xml version="1.0" encoding="utf-8"?>
<svg xmlns="http://www.w3.org/2000/svg" xmlns:xlink="http://www.w3.org/1999/xlink" width="600" height="400" viewBox="0 0 2400 1600">
<defs>
  <clipPath id="clip490">
    <rect x="0" y="0" width="2400" height="1600"/>
  </clipPath>
</defs>
<path clip-path="url(#clip490)" d="M0 1600 L2400 1600 L2400 8.88178e-14 L0 8.88178e-14  Z" fill="#ffffff" fill-rule="evenodd" fill-opacity="1"/>
<defs>
  <clipPath id="clip491">
    <rect x="586" y="0" width="1423" height="1317"/>
  </clipPath>
</defs>
<path clip-path="url(#clip490)" d="M419.944 1241.31 L2274.02 1241.31 L2274.02 125.984 L419.944 125.984  Z" fill="#ffffff" fill-rule="evenodd" fill-opacity="1"/>
<defs>
  <clipPath id="clip492">
    <rect x="419" y="125" width="1855" height="1116"/>
  </clipPath>
</defs>
<polyline clip-path="url(#clip492)" style="stroke:#000000; stroke-linecap:round; stroke-linejoin:round; stroke-width:2; stroke-opacity:0.1; fill:none" points="438.017,1241.31 438.017,125.984 "/>
<polyline clip-path="url(#clip492)" style="stroke:#000000; stroke-linecap:round; stroke-linejoin:round; stroke-width:2; stroke-opacity:0.1; fill:none" points="717.698,1241.31 717.698,125.984 "/>
<polyline clip-path="url(#clip492)" style="stroke:#000000; stroke-linecap:round; stroke-linejoin:round; stroke-width:2; stroke-opacity:0.1; fill:none" points="997.379,1241.31 997.379,125.984 "/>
<polyline clip-path="url(#clip492)" style="stroke:#000000; stroke-linecap:round; stroke-linejoin:round; stroke-width:2; stroke-opacity:0.1; fill:none" points="1277.06,1241.31 1277.06,125.984 "/>
<polyline clip-path="url(#clip492)" style="stroke:#000000; stroke-linecap:round; stroke-linejoin:round; stroke-width:2; stroke-opacity:0.1; fill:none" points="1556.74,1241.31 1556.74,125.984 "/>
<polyline clip-path="url(#clip492)" style="stroke:#000000; stroke-linecap:round; stroke-linejoin:round; stroke-width:2; stroke-opacity:0.1; fill:none" points="1836.42,1241.31 1836.42,125.984 "/>
<polyline clip-path="url(#clip492)" style="stroke:#000000; stroke-linecap:round; stroke-linejoin:round; stroke-width:2; stroke-opacity:0.1; fill:none" points="2116.1,1241.31 2116.1,125.984 "/>
<polyline clip-path="url(#clip492)" style="stroke:#000000; stroke-linecap:round; stroke-linejoin:round; stroke-width:2; stroke-opacity:0.1; fill:none" points="419.944,1241.31 2274.02,1241.31 "/>
<polyline clip-path="url(#clip492)" style="stroke:#000000; stroke-linecap:round; stroke-linejoin:round; stroke-width:2; stroke-opacity:0.1; fill:none" points="419.944,883.048 2274.02,883.048 "/>
<polyline clip-path="url(#clip492)" style="stroke:#000000; stroke-linecap:round; stroke-linejoin:round; stroke-width:2; stroke-opacity:0.1; fill:none" points="419.944,524.784 2274.02,524.784 "/>
<polyline clip-path="url(#clip492)" style="stroke:#000000; stroke-linecap:round; stroke-linejoin:round; stroke-width:2; stroke-opacity:0.1; fill:none" points="419.944,166.521 2274.02,166.521 "/>
<polyline clip-path="url(#clip490)" style="stroke:#000000; stroke-linecap:round; stroke-linejoin:round; stroke-width:4; stroke-opacity:1; fill:none" points="419.944,1241.31 2274.02,1241.31 "/>
<polyline clip-path="url(#clip490)" style="stroke:#000000; stroke-linecap:round; stroke-linejoin:round; stroke-width:4; stroke-opacity:1; fill:none" points="438.017,1241.31 438.017,1222.41 "/>
<polyline clip-path="url(#clip490)" style="stroke:#000000; stroke-linecap:round; stroke-linejoin:round; stroke-width:4; stroke-opacity:1; fill:none" points="717.698,1241.31 717.698,1222.41 "/>
<polyline clip-path="url(#clip490)" style="stroke:#000000; stroke-linecap:round; stroke-linejoin:round; stroke-width:4; stroke-opacity:1; fill:none" points="997.379,1241.31 997.379,1222.41 "/>
<polyline clip-path="url(#clip490)" style="stroke:#000000; stroke-linecap:round; stroke-linejoin:round; stroke-width:4; stroke-opacity:1; fill:none" points="1277.06,1241.31 1277.06,1222.41 "/>
<polyline clip-path="url(#clip490)" style="stroke:#000000; stroke-linecap:round; stroke-linejoin:round; stroke-width:4; stroke-opacity:1; fill:none" points="1556.74,1241.31 1556.74,1222.41 "/>
<polyline clip-path="url(#clip490)" style="stroke:#000000; stroke-linecap:round; stroke-linejoin:round; stroke-width:4; stroke-opacity:1; fill:none" points="1836.42,1241.31 1836.42,1222.41 "/>
<polyline clip-path="url(#clip490)" style="stroke:#000000; stroke-linecap:round; stroke-linejoin:round; stroke-width:4; stroke-opacity:1; fill:none" points="2116.1,1241.31 2116.1,1222.41 "/>
<path clip-path="url(#clip490)" d="M438.017 1275.16 Q433.503 1275.16 431.217 1279.62 Q428.96 1284.04 428.96 1292.95 Q428.96 1301.84 431.217 1306.29 Q433.503 1310.72 438.017 1310.72 Q442.559 1310.72 444.816 1306.29 Q447.102 1301.84 447.102 1292.95 Q447.102 1284.04 444.816 1279.62 Q442.559 1275.16 438.017 1275.16 M438.017 1270.53 Q445.279 1270.53 449.099 1276.29 Q452.947 1282.02 452.947 1292.95 Q452.947 1303.86 449.099 1309.62 Q445.279 1315.35 438.017 1315.35 Q430.754 1315.35 426.906 1309.62 Q423.086 1303.86 423.086 1292.95 Q423.086 1282.02 426.906 1276.29 Q430.754 1270.53 438.017 1270.53 Z" fill="#000000" fill-rule="nonzero" fill-opacity="1" /><path clip-path="url(#clip490)" d="M711.014 1309.59 L731.413 1309.59 L731.413 1314.51 L703.982 1314.51 L703.982 1309.59 Q707.31 1306.15 713.039 1300.36 Q718.797 1294.55 720.273 1292.87 Q723.08 1289.71 724.179 1287.54 Q725.308 1285.34 725.308 1283.23 Q725.308 1279.79 722.877 1277.62 Q720.475 1275.45 716.598 1275.45 Q713.849 1275.45 710.782 1276.4 Q707.744 1277.36 704.272 1279.3 L704.272 1273.39 Q707.802 1271.98 710.869 1271.25 Q713.936 1270.53 716.482 1270.53 Q723.195 1270.53 727.188 1273.89 Q731.181 1277.24 731.181 1282.86 Q731.181 1285.52 730.169 1287.92 Q729.185 1290.29 726.552 1293.53 Q725.828 1294.37 721.951 1298.39 Q718.074 1302.39 711.014 1309.59 Z" fill="#000000" fill-rule="nonzero" fill-opacity="1" /><path clip-path="url(#clip490)" d="M1001.14 1276.4 L986.383 1299.47 L1001.14 1299.47 L1001.14 1276.4 M999.607 1271.31 L1006.96 1271.31 L1006.96 1299.47 L1013.12 1299.47 L1013.12 1304.33 L1006.96 1304.33 L1006.96 1314.51 L1001.14 1314.51 L1001.14 1304.33 L981.638 1304.33 L981.638 1298.68 L999.607 1271.31 Z" fill="#000000" fill-rule="nonzero" fill-opacity="1" /><path clip-path="url(#clip490)" d="M1277.57 1290.58 Q1273.63 1290.58 1271.32 1293.27 Q1269.03 1295.96 1269.03 1300.65 Q1269.03 1305.31 1271.32 1308.03 Q1273.63 1310.72 1277.57 1310.72 Q1281.5 1310.72 1283.79 1308.03 Q1286.1 1305.31 1286.1 1300.65 Q1286.1 1295.96 1283.79 1293.27 Q1281.5 1290.58 1277.57 1290.58 M1289.17 1272.27 L1289.17 1277.59 Q1286.97 1276.55 1284.71 1276 Q1282.48 1275.45 1280.29 1275.45 Q1274.5 1275.45 1271.43 1279.36 Q1268.39 1283.26 1267.96 1291.16 Q1269.67 1288.64 1272.24 1287.31 Q1274.82 1285.95 1277.91 1285.95 Q1284.42 1285.95 1288.19 1289.92 Q1291.98 1293.85 1291.98 1300.65 Q1291.98 1307.31 1288.04 1311.33 Q1284.11 1315.35 1277.57 1315.35 Q1270.07 1315.35 1266.11 1309.62 Q1262.14 1303.86 1262.14 1292.95 Q1262.14 1282.71 1267 1276.64 Q1271.87 1270.53 1280.05 1270.53 Q1282.25 1270.53 1284.48 1270.96 Q1286.74 1271.4 1289.17 1272.27 Z" fill="#000000" fill-rule="nonzero" fill-opacity="1" /><path clip-path="url(#clip490)" d="M1556.74 1294 Q1552.57 1294 1550.17 1296.22 Q1547.8 1298.45 1547.8 1302.36 Q1547.8 1306.27 1550.17 1308.49 Q1552.57 1310.72 1556.74 1310.72 Q1560.91 1310.72 1563.31 1308.49 Q1565.71 1306.24 1565.71 1302.36 Q1565.71 1298.45 1563.31 1296.22 Q1560.94 1294 1556.74 1294 M1550.9 1291.51 Q1547.13 1290.58 1545.02 1288.01 Q1542.94 1285.43 1542.94 1281.73 Q1542.94 1276.55 1546.61 1273.54 Q1550.32 1270.53 1556.74 1270.53 Q1563.19 1270.53 1566.87 1273.54 Q1570.54 1276.55 1570.54 1281.73 Q1570.54 1285.43 1568.43 1288.01 Q1566.35 1290.58 1562.61 1291.51 Q1566.84 1292.49 1569.18 1295.36 Q1571.56 1298.22 1571.56 1302.36 Q1571.56 1308.64 1567.71 1311.99 Q1563.89 1315.35 1556.74 1315.35 Q1549.59 1315.35 1545.75 1311.99 Q1541.93 1308.64 1541.93 1302.36 Q1541.93 1298.22 1544.3 1295.36 Q1546.67 1292.49 1550.9 1291.51 M1548.75 1282.28 Q1548.75 1285.63 1550.84 1287.52 Q1552.95 1289.4 1556.74 1289.4 Q1560.5 1289.4 1562.61 1287.52 Q1564.76 1285.63 1564.76 1282.28 Q1564.76 1278.92 1562.61 1277.04 Q1560.5 1275.16 1556.74 1275.16 Q1552.95 1275.16 1550.84 1277.04 Q1548.75 1278.92 1548.75 1282.28 Z" fill="#000000" fill-rule="nonzero" fill-opacity="1" /><path clip-path="url(#clip490)" d="M1804.78 1309.59 L1814.33 1309.59 L1814.33 1276.64 L1803.94 1278.72 L1803.94 1273.39 L1814.27 1271.31 L1820.12 1271.31 L1820.12 1309.59 L1829.67 1309.59 L1829.67 1314.51 L1804.78 1314.51 L1804.78 1309.59 Z" fill="#000000" fill-rule="nonzero" fill-opacity="1" /><path clip-path="url(#clip490)" d="M1853.97 1275.16 Q1849.46 1275.16 1847.17 1279.62 Q1844.91 1284.04 1844.91 1292.95 Q1844.91 1301.84 1847.17 1306.29 Q1849.46 1310.72 1853.97 1310.72 Q1858.51 1310.72 1860.77 1306.29 Q1863.06 1301.84 1863.06 1292.95 Q1863.06 1284.04 1860.77 1279.62 Q1858.51 1275.16 1853.97 1275.16 M1853.97 1270.53 Q1861.23 1270.53 1865.05 1276.29 Q1868.9 1282.02 1868.9 1292.95 Q1868.9 1303.86 1865.05 1309.62 Q1861.23 1315.35 1853.97 1315.35 Q1846.71 1315.35 1842.86 1309.62 Q1839.04 1303.86 1839.04 1292.95 Q1839.04 1282.02 1842.86 1276.29 Q1846.71 1270.53 1853.97 1270.53 Z" fill="#000000" fill-rule="nonzero" fill-opacity="1" /><path clip-path="url(#clip490)" d="M2085.46 1309.59 L2095.01 1309.59 L2095.01 1276.64 L2084.62 1278.72 L2084.62 1273.39 L2094.95 1271.31 L2100.8 1271.31 L2100.8 1309.59 L2110.34 1309.59 L2110.34 1314.51 L2085.46 1314.51 L2085.46 1309.59 Z" fill="#000000" fill-rule="nonzero" fill-opacity="1" /><path clip-path="url(#clip490)" d="M2127.18 1309.59 L2147.58 1309.59 L2147.58 1314.51 L2120.15 1314.51 L2120.15 1309.59 Q2123.48 1306.15 2129.21 1300.36 Q2134.97 1294.55 2136.44 1292.87 Q2139.25 1289.71 2140.35 1287.54 Q2141.48 1285.34 2141.48 1283.23 Q2141.48 1279.79 2139.05 1277.62 Q2136.65 1275.45 2132.77 1275.45 Q2130.02 1275.45 2126.95 1276.4 Q2123.91 1277.36 2120.44 1279.3 L2120.44 1273.39 Q2123.97 1271.98 2127.04 1271.25 Q2130.11 1270.53 2132.65 1270.53 Q2139.37 1270.53 2143.36 1273.89 Q2147.35 1277.24 2147.35 1282.86 Q2147.35 1285.52 2146.34 1287.92 Q2145.36 1290.29 2142.72 1293.53 Q2142 1294.37 2138.12 1298.39 Q2134.24 1302.39 2127.18 1309.59 Z" fill="#000000" fill-rule="nonzero" fill-opacity="1" /><path clip-path="url(#clip490)" d="M1295.18 1353.18 L1295.18 1359.45 Q1291.52 1357.69 1288.27 1356.84 Q1285.03 1355.98 1282 1355.98 Q1276.75 1355.98 1273.89 1358.01 Q1271.05 1360.05 1271.05 1363.81 Q1271.05 1366.96 1272.93 1368.58 Q1274.84 1370.17 1280.12 1371.16 L1284.01 1371.95 Q1291.2 1373.32 1294.61 1376.79 Q1298.04 1380.23 1298.04 1386.02 Q1298.04 1392.93 1293.4 1396.49 Q1288.78 1400.06 1279.84 1400.06 Q1276.46 1400.06 1272.64 1399.29 Q1268.86 1398.53 1264.78 1397.03 L1264.78 1390.41 Q1268.7 1392.61 1272.45 1393.72 Q1276.21 1394.84 1279.84 1394.84 Q1285.34 1394.84 1288.34 1392.67 Q1291.33 1390.51 1291.33 1386.5 Q1291.33 1383 1289.16 1381.03 Q1287.03 1379.05 1282.13 1378.07 L1278.21 1377.3 Q1271.02 1375.87 1267.81 1372.81 Q1264.59 1369.76 1264.59 1364.32 Q1264.59 1358.01 1269.02 1354.38 Q1273.47 1350.76 1281.27 1350.76 Q1284.61 1350.76 1288.08 1351.36 Q1291.55 1351.97 1295.18 1353.18 Z" fill="#000000" fill-rule="nonzero" fill-opacity="1" /><path clip-path="url(#clip490)" d="M1313.61 1353.37 L1313.61 1363.49 L1325.67 1363.49 L1325.67 1368.04 L1313.61 1368.04 L1313.61 1387.39 Q1313.61 1391.75 1314.79 1392.99 Q1315.99 1394.23 1319.65 1394.23 L1325.67 1394.23 L1325.67 1399.14 L1319.65 1399.14 Q1312.88 1399.14 1310.3 1396.62 Q1307.72 1394.07 1307.72 1387.39 L1307.72 1368.04 L1303.42 1368.04 L1303.42 1363.49 L1307.72 1363.49 L1307.72 1353.37 L1313.61 1353.37 Z" fill="#000000" fill-rule="nonzero" fill-opacity="1" /><path clip-path="url(#clip490)" d="M1349.57 1381.22 Q1342.48 1381.22 1339.74 1382.84 Q1337 1384.46 1337 1388.38 Q1337 1391.5 1339.04 1393.34 Q1341.11 1395.16 1344.64 1395.16 Q1349.51 1395.16 1352.44 1391.72 Q1355.4 1388.25 1355.4 1382.52 L1355.4 1381.22 L1349.57 1381.22 M1361.25 1378.8 L1361.25 1399.14 L1355.4 1399.14 L1355.4 1393.72 Q1353.39 1396.97 1350.4 1398.53 Q1347.41 1400.06 1343.08 1400.06 Q1337.61 1400.06 1334.36 1397 Q1331.15 1393.92 1331.15 1388.76 Q1331.15 1382.74 1335.16 1379.69 Q1339.2 1376.63 1347.19 1376.63 L1355.4 1376.63 L1355.4 1376.06 Q1355.4 1372.02 1352.72 1369.82 Q1350.08 1367.59 1345.28 1367.59 Q1342.22 1367.59 1339.32 1368.33 Q1336.43 1369.06 1333.75 1370.52 L1333.75 1365.11 Q1336.97 1363.87 1339.99 1363.26 Q1343.02 1362.63 1345.88 1362.63 Q1353.62 1362.63 1357.44 1366.64 Q1361.25 1370.65 1361.25 1378.8 Z" fill="#000000" fill-rule="nonzero" fill-opacity="1" /><path clip-path="url(#clip490)" d="M1379.11 1353.37 L1379.11 1363.49 L1391.17 1363.49 L1391.17 1368.04 L1379.11 1368.04 L1379.11 1387.39 Q1379.11 1391.75 1380.29 1392.99 Q1381.5 1394.23 1385.16 1394.23 L1391.17 1394.23 L1391.17 1399.14 L1385.16 1399.14 Q1378.38 1399.14 1375.8 1396.62 Q1373.22 1394.07 1373.22 1387.39 L1373.22 1368.04 L1368.93 1368.04 L1368.93 1363.49 L1373.22 1363.49 L1373.22 1353.37 L1379.11 1353.37 Z" fill="#000000" fill-rule="nonzero" fill-opacity="1" /><path clip-path="url(#clip490)" d="M1429.37 1379.85 L1429.37 1382.71 L1402.44 1382.71 Q1402.82 1388.76 1406.07 1391.94 Q1409.35 1395.09 1415.17 1395.09 Q1418.55 1395.09 1421.7 1394.27 Q1424.88 1393.44 1428 1391.78 L1428 1397.32 Q1424.85 1398.66 1421.54 1399.36 Q1418.23 1400.06 1414.82 1400.06 Q1406.29 1400.06 1401.3 1395.09 Q1396.33 1390.13 1396.33 1381.66 Q1396.33 1372.91 1401.04 1367.78 Q1405.78 1362.63 1413.8 1362.63 Q1421 1362.63 1425.17 1367.28 Q1429.37 1371.89 1429.37 1379.85 M1423.51 1378.13 Q1423.45 1373.32 1420.81 1370.46 Q1418.2 1367.59 1413.87 1367.59 Q1408.97 1367.59 1406.01 1370.36 Q1403.08 1373.13 1402.63 1378.16 L1423.51 1378.13 Z" fill="#000000" fill-rule="nonzero" fill-opacity="1" /><polyline clip-path="url(#clip490)" style="stroke:#000000; stroke-linecap:round; stroke-linejoin:round; stroke-width:4; stroke-opacity:1; fill:none" points="419.944,1241.31 419.944,125.984 "/>
<polyline clip-path="url(#clip490)" style="stroke:#000000; stroke-linecap:round; stroke-linejoin:round; stroke-width:4; stroke-opacity:1; fill:none" points="419.944,1241.31 438.841,1241.31 "/>
<polyline clip-path="url(#clip490)" style="stroke:#000000; stroke-linecap:round; stroke-linejoin:round; stroke-width:4; stroke-opacity:1; fill:none" points="419.944,883.048 438.841,883.048 "/>
<polyline clip-path="url(#clip490)" style="stroke:#000000; stroke-linecap:round; stroke-linejoin:round; stroke-width:4; stroke-opacity:1; fill:none" points="419.944,524.784 438.841,524.784 "/>
<polyline clip-path="url(#clip490)" style="stroke:#000000; stroke-linecap:round; stroke-linejoin:round; stroke-width:4; stroke-opacity:1; fill:none" points="419.944,166.521 438.841,166.521 "/>
<path clip-path="url(#clip490)" d="M369.013 1223.56 Q364.499 1223.56 362.214 1228.02 Q359.957 1232.44 359.957 1241.35 Q359.957 1250.24 362.214 1254.69 Q364.499 1259.12 369.013 1259.12 Q373.556 1259.12 375.813 1254.69 Q378.099 1250.24 378.099 1241.35 Q378.099 1232.44 375.813 1228.02 Q373.556 1223.56 369.013 1223.56 M369.013 1218.93 Q376.276 1218.93 380.095 1224.69 Q383.944 1230.42 383.944 1241.35 Q383.944 1252.26 380.095 1258.02 Q376.276 1263.75 369.013 1263.75 Q361.751 1263.75 357.902 1258.02 Q354.083 1252.26 354.083 1241.35 Q354.083 1230.42 357.902 1224.69 Q361.751 1218.93 369.013 1218.93 Z" fill="#000000" fill-rule="nonzero" fill-opacity="1" /><path clip-path="url(#clip490)" d="M357.815 861.448 L380.761 861.448 L380.761 866.367 L363.168 866.367 L363.168 876.957 Q364.441 876.523 365.715 876.321 Q366.988 876.089 368.261 876.089 Q375.495 876.089 379.719 880.053 Q383.944 884.017 383.944 890.788 Q383.944 897.761 379.603 901.639 Q375.263 905.487 367.364 905.487 Q364.644 905.487 361.808 905.024 Q359.002 904.561 355.992 903.635 L355.992 897.761 Q358.597 899.179 361.374 899.874 Q364.152 900.568 367.248 900.568 Q372.254 900.568 375.176 897.935 Q378.099 895.302 378.099 890.788 Q378.099 886.274 375.176 883.641 Q372.254 881.008 367.248 881.008 Q364.904 881.008 362.561 881.529 Q360.246 882.05 357.815 883.149 L357.815 861.448 Z" fill="#000000" fill-rule="nonzero" fill-opacity="1" /><path clip-path="url(#clip490)" d="M319.824 541.465 L329.372 541.465 L329.372 508.508 L318.985 510.592 L318.985 505.268 L329.314 503.184 L335.159 503.184 L335.159 541.465 L344.708 541.465 L344.708 546.384 L319.824 546.384 L319.824 541.465 Z" fill="#000000" fill-rule="nonzero" fill-opacity="1" /><path clip-path="url(#clip490)" d="M369.013 507.033 Q364.499 507.033 362.214 511.489 Q359.957 515.916 359.957 524.828 Q359.957 533.711 362.214 538.167 Q364.499 542.594 369.013 542.594 Q373.556 542.594 375.813 538.167 Q378.099 533.711 378.099 524.828 Q378.099 515.916 375.813 511.489 Q373.556 507.033 369.013 507.033 M369.013 502.403 Q376.276 502.403 380.095 508.161 Q383.944 513.89 383.944 524.828 Q383.944 535.736 380.095 541.494 Q376.276 547.223 369.013 547.223 Q361.751 547.223 357.902 541.494 Q354.083 535.736 354.083 524.828 Q354.083 513.89 357.902 508.161 Q361.751 502.403 369.013 502.403 Z" fill="#000000" fill-rule="nonzero" fill-opacity="1" /><path clip-path="url(#clip490)" d="M321.068 183.202 L330.616 183.202 L330.616 150.245 L320.229 152.328 L320.229 147.004 L330.559 144.921 L336.403 144.921 L336.403 183.202 L345.952 183.202 L345.952 188.121 L321.068 188.121 L321.068 183.202 Z" fill="#000000" fill-rule="nonzero" fill-opacity="1" /><path clip-path="url(#clip490)" d="M357.815 144.921 L380.761 144.921 L380.761 149.84 L363.168 149.84 L363.168 160.43 Q364.441 159.996 365.715 159.793 Q366.988 159.562 368.261 159.562 Q375.495 159.562 379.719 163.526 Q383.944 167.49 383.944 174.261 Q383.944 181.234 379.603 185.112 Q375.263 188.96 367.364 188.96 Q364.644 188.96 361.808 188.497 Q359.002 188.034 355.992 187.108 L355.992 181.234 Q358.597 182.652 361.374 183.347 Q364.152 184.041 367.248 184.041 Q372.254 184.041 375.176 181.408 Q378.099 178.775 378.099 174.261 Q378.099 169.747 375.176 167.114 Q372.254 164.481 367.248 164.481 Q364.904 164.481 362.561 165.002 Q360.246 165.523 357.815 166.622 L357.815 144.921 Z" fill="#000000" fill-rule="nonzero" fill-opacity="1" /><path clip-path="url(#clip490)" d="M222.768 740.51 L229.038 740.51 Q227.288 744.17 226.428 747.416 Q225.569 750.663 225.569 753.687 Q225.569 758.938 227.606 761.803 Q229.643 764.636 233.399 764.636 Q236.55 764.636 238.173 762.758 Q239.765 760.848 240.751 755.564 L241.547 751.681 Q242.916 744.488 246.385 741.082 Q249.822 737.645 255.615 737.645 Q262.522 737.645 266.087 742.292 Q269.652 746.907 269.652 755.851 Q269.652 759.225 268.888 763.044 Q268.124 766.832 266.628 770.906 L260.008 770.906 Q262.204 766.991 263.318 763.235 Q264.432 759.479 264.432 755.851 Q264.432 750.345 262.267 747.353 Q260.103 744.361 256.093 744.361 Q252.592 744.361 250.618 746.525 Q248.645 748.658 247.658 753.559 L246.894 757.474 Q245.462 764.667 242.406 767.882 Q239.351 771.097 233.908 771.097 Q227.606 771.097 223.978 766.673 Q220.349 762.217 220.349 754.419 Q220.349 751.077 220.954 747.607 Q221.559 744.138 222.768 740.51 Z" fill="#000000" fill-rule="nonzero" fill-opacity="1" /><path clip-path="url(#clip490)" d="M222.959 722.081 L233.081 722.081 L233.081 710.018 L237.632 710.018 L237.632 722.081 L256.984 722.081 Q261.344 722.081 262.586 720.903 Q263.827 719.694 263.827 716.033 L263.827 710.018 L268.729 710.018 L268.729 716.033 Q268.729 722.813 266.214 725.391 Q263.668 727.969 256.984 727.969 L237.632 727.969 L237.632 732.266 L233.081 732.266 L233.081 727.969 L222.959 727.969 L222.959 722.081 Z" fill="#000000" fill-rule="nonzero" fill-opacity="1" /><path clip-path="url(#clip490)" d="M249.44 671.824 L252.305 671.824 L252.305 698.751 Q258.352 698.369 261.535 695.122 Q264.686 691.844 264.686 686.019 Q264.686 682.645 263.859 679.494 Q263.031 676.311 261.376 673.192 L266.914 673.192 Q268.251 676.343 268.951 679.653 Q269.652 682.964 269.652 686.369 Q269.652 694.899 264.686 699.896 Q259.721 704.862 251.255 704.862 Q242.502 704.862 237.377 700.151 Q232.221 695.409 232.221 687.388 Q232.221 680.194 236.868 676.025 Q241.483 671.824 249.44 671.824 M247.722 677.68 Q242.916 677.744 240.051 680.385 Q237.186 682.995 237.186 687.324 Q237.186 692.226 239.956 695.186 Q242.725 698.114 247.754 698.56 L247.722 677.68 Z" fill="#000000" fill-rule="nonzero" fill-opacity="1" /><path clip-path="url(#clip490)" d="M263.381 656.546 L282.288 656.546 L282.288 662.434 L233.081 662.434 L233.081 656.546 L238.491 656.546 Q235.309 654.7 233.781 651.899 Q232.221 649.066 232.221 645.151 Q232.221 638.658 237.377 634.616 Q242.534 630.542 250.936 630.542 Q259.339 630.542 264.495 634.616 Q269.652 638.658 269.652 645.151 Q269.652 649.066 268.124 651.899 Q266.564 654.7 263.381 656.546 M250.936 636.621 Q244.475 636.621 240.815 639.295 Q237.123 641.937 237.123 646.584 Q237.123 651.231 240.815 653.904 Q244.475 656.546 250.936 656.546 Q257.398 656.546 261.09 653.904 Q264.75 651.231 264.75 646.584 Q264.75 641.937 261.09 639.295 Q257.398 636.621 250.936 636.621 Z" fill="#000000" fill-rule="nonzero" fill-opacity="1" /><path clip-path="url(#clip490)" d="M234.131 598.109 L239.669 598.109 Q238.396 600.591 237.759 603.265 Q237.123 605.939 237.123 608.803 Q237.123 613.164 238.46 615.36 Q239.796 617.524 242.47 617.524 Q244.507 617.524 245.685 615.964 Q246.831 614.405 247.881 609.694 L248.326 607.689 Q249.663 601.451 252.114 598.841 Q254.533 596.199 258.894 596.199 Q263.859 596.199 266.755 600.146 Q269.652 604.061 269.652 610.936 Q269.652 613.8 269.079 616.919 Q268.538 620.007 267.424 623.444 L261.376 623.444 Q263.063 620.198 263.922 617.047 Q264.75 613.896 264.75 610.808 Q264.75 606.671 263.35 604.443 Q261.917 602.215 259.339 602.215 Q256.952 602.215 255.679 603.838 Q254.406 605.429 253.228 610.872 L252.751 612.909 Q251.605 618.352 249.25 620.771 Q246.862 623.19 242.725 623.19 Q237.696 623.19 234.958 619.625 Q232.221 616.06 232.221 609.503 Q232.221 606.257 232.699 603.392 Q233.176 600.528 234.131 598.109 Z" fill="#000000" fill-rule="nonzero" fill-opacity="1" /><path clip-path="url(#clip492)" d="M521.921 125.984 L521.921 1241.31 L633.793 1241.31 L633.793 125.984 L521.921 125.984 L521.921 125.984  Z" fill="#4682b4" fill-rule="evenodd" fill-opacity="0.7"/>
<polyline clip-path="url(#clip492)" style="stroke:#000000; stroke-linecap:round; stroke-linejoin:round; stroke-width:4; stroke-opacity:0.7; fill:none" points="521.921,125.984 521.921,1241.31 633.793,1241.31 633.793,125.984 521.921,125.984 "/>
<path clip-path="url(#clip492)" d="M661.761 1162.9 L661.761 1241.31 L773.634 1241.31 L773.634 1162.9 L661.761 1162.9 L661.761 1162.9  Z" fill="#4682b4" fill-rule="evenodd" fill-opacity="0.7"/>
<polyline clip-path="url(#clip492)" style="stroke:#000000; stroke-linecap:round; stroke-linejoin:round; stroke-width:4; stroke-opacity:0.7; fill:none" points="661.761,1162.9 661.761,1241.31 773.634,1241.31 773.634,1162.9 661.761,1162.9 "/>
<path clip-path="url(#clip492)" d="M801.602 1158.1 L801.602 1241.31 L913.474 1241.31 L913.474 1158.1 L801.602 1158.1 L801.602 1158.1  Z" fill="#4682b4" fill-rule="evenodd" fill-opacity="0.7"/>
<polyline clip-path="url(#clip492)" style="stroke:#000000; stroke-linecap:round; stroke-linejoin:round; stroke-width:4; stroke-opacity:0.7; fill:none" points="801.602,1158.1 801.602,1241.31 913.474,1241.31 913.474,1158.1 801.602,1158.1 "/>
<path clip-path="url(#clip492)" d="M941.442 1155.67 L941.442 1241.31 L1053.31 1241.31 L1053.31 1155.67 L941.442 1155.67 L941.442 1155.67  Z" fill="#4682b4" fill-rule="evenodd" fill-opacity="0.7"/>
<polyline clip-path="url(#clip492)" style="stroke:#000000; stroke-linecap:round; stroke-linejoin:round; stroke-width:4; stroke-opacity:0.7; fill:none" points="941.442,1155.67 941.442,1241.31 1053.31,1241.31 1053.31,1155.67 941.442,1155.67 "/>
<path clip-path="url(#clip492)" d="M1081.28 1161.39 L1081.28 1241.31 L1193.16 1241.31 L1193.16 1161.39 L1081.28 1161.39 L1081.28 1161.39  Z" fill="#4682b4" fill-rule="evenodd" fill-opacity="0.7"/>
<polyline clip-path="url(#clip492)" style="stroke:#000000; stroke-linecap:round; stroke-linejoin:round; stroke-width:4; stroke-opacity:0.7; fill:none" points="1081.28,1161.39 1081.28,1241.31 1193.16,1241.31 1193.16,1161.39 1081.28,1161.39 "/>
<path clip-path="url(#clip492)" d="M1221.12 1143.85 L1221.12 1241.31 L1333 1241.31 L1333 1143.85 L1221.12 1143.85 L1221.12 1143.85  Z" fill="#4682b4" fill-rule="evenodd" fill-opacity="0.7"/>
<polyline clip-path="url(#clip492)" style="stroke:#000000; stroke-linecap:round; stroke-linejoin:round; stroke-width:4; stroke-opacity:0.7; fill:none" points="1221.12,1143.85 1221.12,1241.31 1333,1241.31 1333,1143.85 1221.12,1143.85 "/>
<path clip-path="url(#clip492)" d="M1360.96 1161.84 L1360.96 1241.31 L1472.84 1241.31 L1472.84 1161.84 L1360.96 1161.84 L1360.96 1161.84  Z" fill="#4682b4" fill-rule="evenodd" fill-opacity="0.7"/>
<polyline clip-path="url(#clip492)" style="stroke:#000000; stroke-linecap:round; stroke-linejoin:round; stroke-width:4; stroke-opacity:0.7; fill:none" points="1360.96,1161.84 1360.96,1241.31 1472.84,1241.31 1472.84,1161.84 1360.96,1161.84 "/>
<path clip-path="url(#clip492)" d="M1500.8 1151.09 L1500.8 1241.31 L1612.68 1241.31 L1612.68 1151.09 L1500.8 1151.09 L1500.8 1151.09  Z" fill="#4682b4" fill-rule="evenodd" fill-opacity="0.7"/>
<polyline clip-path="url(#clip492)" style="stroke:#000000; stroke-linecap:round; stroke-linejoin:round; stroke-width:4; stroke-opacity:0.7; fill:none" points="1500.8,1151.09 1500.8,1241.31 1612.68,1241.31 1612.68,1151.09 1500.8,1151.09 "/>
<path clip-path="url(#clip492)" d="M1640.64 1164.59 L1640.64 1241.31 L1752.52 1241.31 L1752.52 1164.59 L1640.64 1164.59 L1640.64 1164.59  Z" fill="#4682b4" fill-rule="evenodd" fill-opacity="0.7"/>
<polyline clip-path="url(#clip492)" style="stroke:#000000; stroke-linecap:round; stroke-linejoin:round; stroke-width:4; stroke-opacity:0.7; fill:none" points="1640.64,1164.59 1640.64,1241.31 1752.52,1241.31 1752.52,1164.59 1640.64,1164.59 "/>
<path clip-path="url(#clip492)" d="M1780.49 1160.24 L1780.49 1241.31 L1892.36 1241.31 L1892.36 1160.24 L1780.49 1160.24 L1780.49 1160.24  Z" fill="#4682b4" fill-rule="evenodd" fill-opacity="0.7"/>
<polyline clip-path="url(#clip492)" style="stroke:#000000; stroke-linecap:round; stroke-linejoin:round; stroke-width:4; stroke-opacity:0.7; fill:none" points="1780.49,1160.24 1780.49,1241.31 1892.36,1241.31 1892.36,1160.24 1780.49,1160.24 "/>
<path clip-path="url(#clip492)" d="M1920.33 1149.34 L1920.33 1241.31 L2032.2 1241.31 L2032.2 1149.34 L1920.33 1149.34 L1920.33 1149.34  Z" fill="#4682b4" fill-rule="evenodd" fill-opacity="0.7"/>
<polyline clip-path="url(#clip492)" style="stroke:#000000; stroke-linecap:round; stroke-linejoin:round; stroke-width:4; stroke-opacity:0.7; fill:none" points="1920.33,1149.34 1920.33,1241.31 2032.2,1241.31 2032.2,1149.34 1920.33,1149.34 "/>
<path clip-path="url(#clip492)" d="M2060.17 463.436 L2060.17 1241.31 L2172.04 1241.31 L2172.04 463.436 L2060.17 463.436 L2060.17 463.436  Z" fill="#4682b4" fill-rule="evenodd" fill-opacity="0.7"/>
<polyline clip-path="url(#clip492)" style="stroke:#000000; stroke-linecap:round; stroke-linejoin:round; stroke-width:4; stroke-opacity:0.7; fill:none" points="2060.17,463.436 2060.17,1241.31 2172.04,1241.31 2172.04,463.436 2060.17,463.436 "/>
<circle clip-path="url(#clip492)" style="fill:#4682b4; stroke:none; fill-opacity:0" cx="577.857" cy="125.984" r="2"/>
<circle clip-path="url(#clip492)" style="fill:#4682b4; stroke:none; fill-opacity:0" cx="717.698" cy="1162.9" r="2"/>
<circle clip-path="url(#clip492)" style="fill:#4682b4; stroke:none; fill-opacity:0" cx="857.538" cy="1158.1" r="2"/>
<circle clip-path="url(#clip492)" style="fill:#4682b4; stroke:none; fill-opacity:0" cx="997.379" cy="1155.67" r="2"/>
<circle clip-path="url(#clip492)" style="fill:#4682b4; stroke:none; fill-opacity:0" cx="1137.22" cy="1161.39" r="2"/>
<circle clip-path="url(#clip492)" style="fill:#4682b4; stroke:none; fill-opacity:0" cx="1277.06" cy="1143.85" r="2"/>
<circle clip-path="url(#clip492)" style="fill:#4682b4; stroke:none; fill-opacity:0" cx="1416.9" cy="1161.84" r="2"/>
<circle clip-path="url(#clip492)" style="fill:#4682b4; stroke:none; fill-opacity:0" cx="1556.74" cy="1151.09" r="2"/>
<circle clip-path="url(#clip492)" style="fill:#4682b4; stroke:none; fill-opacity:0" cx="1696.58" cy="1164.59" r="2"/>
<circle clip-path="url(#clip492)" style="fill:#4682b4; stroke:none; fill-opacity:0" cx="1836.42" cy="1160.24" r="2"/>
<circle clip-path="url(#clip492)" style="fill:#4682b4; stroke:none; fill-opacity:0" cx="1976.26" cy="1149.34" r="2"/>
<circle clip-path="url(#clip492)" style="fill:#4682b4; stroke:none; fill-opacity:0" cx="2116.1" cy="463.436" r="2"/>
</svg>
