<?xml version="1.0" encoding="utf-8"?>
<svg xmlns="http://www.w3.org/2000/svg" xmlns:xlink="http://www.w3.org/1999/xlink" width="600" height="400" viewBox="0 0 2400 1600">
<defs>
  <clipPath id="clip390">
    <rect x="0" y="0" width="2400" height="1600"/>
  </clipPath>
</defs>
<path clip-path="url(#clip390)" d="M0 1600 L2400 1600 L2400 8.88178e-14 L0 8.88178e-14  Z" fill="#ffffff" fill-rule="evenodd" fill-opacity="1"/>
<defs>
  <clipPath id="clip391">
    <rect x="176" y="914" width="2171" height="35"/>
  </clipPath>
</defs>
<path clip-path="url(#clip390)" d="M469.828 1241.31 L2274.02 1241.31 L2274.02 184.932 L469.828 184.932  Z" fill="#ffffff" fill-rule="evenodd" fill-opacity="1"/>
<defs>
  <clipPath id="clip392">
    <rect x="469" y="184" width="1805" height="1057"/>
  </clipPath>
</defs>
<polyline clip-path="url(#clip392)" style="stroke:#000000; stroke-linecap:round; stroke-linejoin:round; stroke-width:2; stroke-opacity:0.1; fill:none" points="517.479,1241.31 517.479,184.932 "/>
<polyline clip-path="url(#clip392)" style="stroke:#000000; stroke-linecap:round; stroke-linejoin:round; stroke-width:2; stroke-opacity:0.1; fill:none" points="858.574,1241.31 858.574,184.932 "/>
<polyline clip-path="url(#clip392)" style="stroke:#000000; stroke-linecap:round; stroke-linejoin:round; stroke-width:2; stroke-opacity:0.1; fill:none" points="1199.67,1241.31 1199.67,184.932 "/>
<polyline clip-path="url(#clip392)" style="stroke:#000000; stroke-linecap:round; stroke-linejoin:round; stroke-width:2; stroke-opacity:0.1; fill:none" points="1540.76,1241.31 1540.76,184.932 "/>
<polyline clip-path="url(#clip392)" style="stroke:#000000; stroke-linecap:round; stroke-linejoin:round; stroke-width:2; stroke-opacity:0.1; fill:none" points="1881.86,1241.31 1881.86,184.932 "/>
<polyline clip-path="url(#clip392)" style="stroke:#000000; stroke-linecap:round; stroke-linejoin:round; stroke-width:2; stroke-opacity:0.1; fill:none" points="2222.95,1241.31 2222.95,184.932 "/>
<polyline clip-path="url(#clip392)" style="stroke:#000000; stroke-linecap:round; stroke-linejoin:round; stroke-width:2; stroke-opacity:0.1; fill:none" points="469.828,1162.63 2274.02,1162.63 "/>
<polyline clip-path="url(#clip392)" style="stroke:#000000; stroke-linecap:round; stroke-linejoin:round; stroke-width:2; stroke-opacity:0.1; fill:none" points="469.828,906.013 2274.02,906.013 "/>
<polyline clip-path="url(#clip392)" style="stroke:#000000; stroke-linecap:round; stroke-linejoin:round; stroke-width:2; stroke-opacity:0.1; fill:none" points="469.828,649.394 2274.02,649.394 "/>
<polyline clip-path="url(#clip392)" style="stroke:#000000; stroke-linecap:round; stroke-linejoin:round; stroke-width:2; stroke-opacity:0.1; fill:none" points="469.828,392.774 2274.02,392.774 "/>
<polyline clip-path="url(#clip390)" style="stroke:#000000; stroke-linecap:round; stroke-linejoin:round; stroke-width:4; stroke-opacity:1; fill:none" points="469.828,1241.31 2274.02,1241.31 "/>
<polyline clip-path="url(#clip390)" style="stroke:#000000; stroke-linecap:round; stroke-linejoin:round; stroke-width:4; stroke-opacity:1; fill:none" points="517.479,1241.31 517.479,1222.41 "/>
<polyline clip-path="url(#clip390)" style="stroke:#000000; stroke-linecap:round; stroke-linejoin:round; stroke-width:4; stroke-opacity:1; fill:none" points="858.574,1241.31 858.574,1222.41 "/>
<polyline clip-path="url(#clip390)" style="stroke:#000000; stroke-linecap:round; stroke-linejoin:round; stroke-width:4; stroke-opacity:1; fill:none" points="1199.67,1241.31 1199.67,1222.41 "/>
<polyline clip-path="url(#clip390)" style="stroke:#000000; stroke-linecap:round; stroke-linejoin:round; stroke-width:4; stroke-opacity:1; fill:none" points="1540.76,1241.31 1540.76,1222.41 "/>
<polyline clip-path="url(#clip390)" style="stroke:#000000; stroke-linecap:round; stroke-linejoin:round; stroke-width:4; stroke-opacity:1; fill:none" points="1881.86,1241.31 1881.86,1222.41 "/>
<polyline clip-path="url(#clip390)" style="stroke:#000000; stroke-linecap:round; stroke-linejoin:round; stroke-width:4; stroke-opacity:1; fill:none" points="2222.95,1241.31 2222.95,1222.41 "/>
<path clip-path="url(#clip390)" d="M517.479 1275.16 Q512.965 1275.16 510.679 1279.62 Q508.422 1284.04 508.422 1292.95 Q508.422 1301.84 510.679 1306.29 Q512.965 1310.72 517.479 1310.72 Q522.021 1310.72 524.278 1306.29 Q526.564 1301.84 526.564 1292.95 Q526.564 1284.04 524.278 1279.62 Q522.021 1275.16 517.479 1275.16 M517.479 1270.53 Q524.741 1270.53 528.561 1276.29 Q532.409 1282.02 532.409 1292.95 Q532.409 1303.86 528.561 1309.62 Q524.741 1315.35 517.479 1315.35 Q510.216 1315.35 506.368 1309.62 Q502.548 1303.86 502.548 1292.95 Q502.548 1282.02 506.368 1276.29 Q510.216 1270.53 517.479 1270.53 Z" fill="#000000" fill-rule="nonzero" fill-opacity="1" /><path clip-path="url(#clip390)" d="M808.082 1309.59 L817.631 1309.59 L817.631 1276.64 L807.243 1278.72 L807.243 1273.39 L817.573 1271.31 L823.418 1271.31 L823.418 1309.59 L832.966 1309.59 L832.966 1314.51 L808.082 1314.51 L808.082 1309.59 Z" fill="#000000" fill-rule="nonzero" fill-opacity="1" /><path clip-path="url(#clip390)" d="M857.272 1275.16 Q852.758 1275.16 850.472 1279.62 Q848.215 1284.04 848.215 1292.95 Q848.215 1301.84 850.472 1306.29 Q852.758 1310.72 857.272 1310.72 Q861.814 1310.72 864.071 1306.29 Q866.357 1301.84 866.357 1292.95 Q866.357 1284.04 864.071 1279.62 Q861.814 1275.16 857.272 1275.16 M857.272 1270.53 Q864.534 1270.53 868.354 1276.29 Q872.202 1282.02 872.202 1292.95 Q872.202 1303.86 868.354 1309.62 Q864.534 1315.35 857.272 1315.35 Q850.009 1315.35 846.161 1309.62 Q842.341 1303.86 842.341 1292.95 Q842.341 1282.02 846.161 1276.29 Q850.009 1270.53 857.272 1270.53 Z" fill="#000000" fill-rule="nonzero" fill-opacity="1" /><path clip-path="url(#clip390)" d="M894.974 1275.16 Q890.46 1275.16 888.174 1279.62 Q885.917 1284.04 885.917 1292.95 Q885.917 1301.84 888.174 1306.29 Q890.46 1310.72 894.974 1310.72 Q899.517 1310.72 901.774 1306.29 Q904.06 1301.84 904.06 1292.95 Q904.06 1284.04 901.774 1279.62 Q899.517 1275.16 894.974 1275.16 M894.974 1270.53 Q902.237 1270.53 906.056 1276.29 Q909.904 1282.02 909.904 1292.95 Q909.904 1303.86 906.056 1309.62 Q902.237 1315.35 894.974 1315.35 Q887.711 1315.35 883.863 1309.62 Q880.043 1303.86 880.043 1292.95 Q880.043 1282.02 883.863 1276.29 Q887.711 1270.53 894.974 1270.53 Z" fill="#000000" fill-rule="nonzero" fill-opacity="1" /><path clip-path="url(#clip390)" d="M1154.28 1309.59 L1174.68 1309.59 L1174.68 1314.51 L1147.25 1314.51 L1147.25 1309.59 Q1150.58 1306.15 1156.31 1300.36 Q1162.07 1294.55 1163.54 1292.87 Q1166.35 1289.71 1167.45 1287.54 Q1168.58 1285.34 1168.58 1283.23 Q1168.58 1279.79 1166.15 1277.62 Q1163.75 1275.45 1159.87 1275.45 Q1157.12 1275.45 1154.05 1276.4 Q1151.01 1277.36 1147.54 1279.3 L1147.54 1273.39 Q1151.07 1271.98 1154.14 1271.25 Q1157.21 1270.53 1159.75 1270.53 Q1166.47 1270.53 1170.46 1273.89 Q1174.45 1277.24 1174.45 1282.86 Q1174.45 1285.52 1173.44 1287.92 Q1172.46 1290.29 1169.82 1293.53 Q1169.1 1294.37 1165.22 1298.39 Q1161.34 1302.39 1154.28 1309.59 Z" fill="#000000" fill-rule="nonzero" fill-opacity="1" /><path clip-path="url(#clip390)" d="M1199.45 1275.16 Q1194.94 1275.16 1192.65 1279.62 Q1190.4 1284.04 1190.4 1292.95 Q1190.4 1301.84 1192.65 1306.29 Q1194.94 1310.72 1199.45 1310.72 Q1203.99 1310.72 1206.25 1306.29 Q1208.54 1301.84 1208.54 1292.95 Q1208.54 1284.04 1206.25 1279.62 Q1203.99 1275.16 1199.45 1275.16 M1199.45 1270.53 Q1206.71 1270.53 1210.53 1276.29 Q1214.38 1282.02 1214.38 1292.95 Q1214.38 1303.86 1210.53 1309.62 Q1206.71 1315.35 1199.45 1315.35 Q1192.19 1315.35 1188.34 1309.62 Q1184.52 1303.86 1184.52 1292.95 Q1184.52 1282.02 1188.34 1276.29 Q1192.19 1270.53 1199.45 1270.53 Z" fill="#000000" fill-rule="nonzero" fill-opacity="1" /><path clip-path="url(#clip390)" d="M1237.15 1275.16 Q1232.64 1275.16 1230.35 1279.62 Q1228.1 1284.04 1228.1 1292.95 Q1228.1 1301.84 1230.35 1306.29 Q1232.64 1310.72 1237.15 1310.72 Q1241.7 1310.72 1243.95 1306.29 Q1246.24 1301.84 1246.24 1292.95 Q1246.24 1284.04 1243.95 1279.62 Q1241.7 1275.16 1237.15 1275.16 M1237.15 1270.53 Q1244.42 1270.53 1248.24 1276.29 Q1252.08 1282.02 1252.08 1292.95 Q1252.08 1303.86 1248.24 1309.62 Q1244.42 1315.35 1237.15 1315.35 Q1229.89 1315.35 1226.04 1309.62 Q1222.22 1303.86 1222.22 1292.95 Q1222.22 1282.02 1226.04 1276.29 Q1229.89 1270.53 1237.15 1270.53 Z" fill="#000000" fill-rule="nonzero" fill-opacity="1" /><path clip-path="url(#clip390)" d="M1507.97 1291.22 Q1512.16 1292.12 1514.51 1294.95 Q1516.88 1297.79 1516.88 1301.95 Q1516.88 1308.35 1512.48 1311.85 Q1508.08 1315.35 1499.98 1315.35 Q1497.26 1315.35 1494.37 1314.8 Q1491.5 1314.28 1488.43 1313.21 L1488.43 1307.57 Q1490.87 1308.98 1493.76 1309.71 Q1496.65 1310.43 1499.81 1310.43 Q1505.3 1310.43 1508.17 1308.26 Q1511.06 1306.09 1511.06 1301.95 Q1511.06 1298.13 1508.37 1295.99 Q1505.71 1293.82 1500.93 1293.82 L1495.9 1293.82 L1495.9 1289.02 L1501.17 1289.02 Q1505.48 1289.02 1507.76 1287.31 Q1510.05 1285.58 1510.05 1282.34 Q1510.05 1279.01 1507.68 1277.24 Q1505.33 1275.45 1500.93 1275.45 Q1498.53 1275.45 1495.78 1275.97 Q1493.04 1276.49 1489.74 1277.59 L1489.74 1272.38 Q1493.06 1271.46 1495.96 1270.99 Q1498.88 1270.53 1501.46 1270.53 Q1508.11 1270.53 1511.99 1273.57 Q1515.87 1276.58 1515.87 1281.73 Q1515.87 1285.32 1513.81 1287.8 Q1511.76 1290.26 1507.97 1291.22 Z" fill="#000000" fill-rule="nonzero" fill-opacity="1" /><path clip-path="url(#clip390)" d="M1540.46 1275.16 Q1535.95 1275.16 1533.66 1279.62 Q1531.4 1284.04 1531.4 1292.95 Q1531.4 1301.84 1533.66 1306.29 Q1535.95 1310.72 1540.46 1310.72 Q1545 1310.72 1547.26 1306.29 Q1549.55 1301.84 1549.55 1292.95 Q1549.55 1284.04 1547.26 1279.62 Q1545 1275.16 1540.46 1275.16 M1540.46 1270.53 Q1547.72 1270.53 1551.54 1276.29 Q1555.39 1282.02 1555.39 1292.95 Q1555.39 1303.86 1551.54 1309.62 Q1547.72 1315.35 1540.46 1315.35 Q1533.2 1315.35 1529.35 1309.62 Q1525.53 1303.86 1525.53 1292.95 Q1525.53 1282.02 1529.35 1276.29 Q1533.2 1270.53 1540.46 1270.53 Z" fill="#000000" fill-rule="nonzero" fill-opacity="1" /><path clip-path="url(#clip390)" d="M1578.16 1275.16 Q1573.65 1275.16 1571.36 1279.62 Q1569.11 1284.04 1569.11 1292.95 Q1569.11 1301.84 1571.36 1306.29 Q1573.65 1310.72 1578.16 1310.72 Q1582.71 1310.72 1584.96 1306.29 Q1587.25 1301.84 1587.25 1292.95 Q1587.25 1284.04 1584.96 1279.62 Q1582.71 1275.16 1578.16 1275.16 M1578.16 1270.53 Q1585.42 1270.53 1589.24 1276.29 Q1593.09 1282.02 1593.09 1292.95 Q1593.09 1303.86 1589.24 1309.62 Q1585.42 1315.35 1578.16 1315.35 Q1570.9 1315.35 1567.05 1309.62 Q1563.23 1303.86 1563.23 1292.95 Q1563.23 1282.02 1567.05 1276.29 Q1570.9 1270.53 1578.16 1270.53 Z" fill="#000000" fill-rule="nonzero" fill-opacity="1" /><path clip-path="url(#clip390)" d="M1848.22 1276.4 L1833.46 1299.47 L1848.22 1299.47 L1848.22 1276.4 M1846.69 1271.31 L1854.04 1271.31 L1854.04 1299.47 L1860.2 1299.47 L1860.2 1304.33 L1854.04 1304.33 L1854.04 1314.51 L1848.22 1314.51 L1848.22 1304.33 L1828.72 1304.33 L1828.72 1298.68 L1846.69 1271.31 Z" fill="#000000" fill-rule="nonzero" fill-opacity="1" /><path clip-path="url(#clip390)" d="M1882.37 1275.16 Q1877.85 1275.16 1875.57 1279.62 Q1873.31 1284.04 1873.31 1292.95 Q1873.31 1301.84 1875.57 1306.29 Q1877.85 1310.72 1882.37 1310.72 Q1886.91 1310.72 1889.16 1306.29 Q1891.45 1301.84 1891.45 1292.95 Q1891.45 1284.04 1889.16 1279.62 Q1886.91 1275.16 1882.37 1275.16 M1882.37 1270.53 Q1889.63 1270.53 1893.45 1276.29 Q1897.3 1282.02 1897.3 1292.95 Q1897.3 1303.86 1893.45 1309.62 Q1889.63 1315.35 1882.37 1315.35 Q1875.1 1315.35 1871.25 1309.62 Q1867.43 1303.86 1867.43 1292.95 Q1867.43 1282.02 1871.25 1276.29 Q1875.1 1270.53 1882.37 1270.53 Z" fill="#000000" fill-rule="nonzero" fill-opacity="1" /><path clip-path="url(#clip390)" d="M1920.07 1275.16 Q1915.55 1275.16 1913.27 1279.62 Q1911.01 1284.04 1911.01 1292.95 Q1911.01 1301.84 1913.27 1306.29 Q1915.55 1310.72 1920.07 1310.72 Q1924.61 1310.72 1926.87 1306.29 Q1929.15 1301.84 1929.15 1292.95 Q1929.15 1284.04 1926.87 1279.62 Q1924.61 1275.16 1920.07 1275.16 M1920.07 1270.53 Q1927.33 1270.53 1931.15 1276.29 Q1935 1282.02 1935 1292.95 Q1935 1303.86 1931.15 1309.62 Q1927.33 1315.35 1920.07 1315.35 Q1912.8 1315.35 1908.96 1309.62 Q1905.14 1303.86 1905.14 1292.95 Q1905.14 1282.02 1908.96 1276.29 Q1912.8 1270.53 1920.07 1270.53 Z" fill="#000000" fill-rule="nonzero" fill-opacity="1" /><path clip-path="url(#clip390)" d="M2172.48 1271.31 L2195.42 1271.31 L2195.42 1276.23 L2177.83 1276.23 L2177.83 1286.82 Q2179.1 1286.39 2180.38 1286.18 Q2181.65 1285.95 2182.92 1285.95 Q2190.16 1285.95 2194.38 1289.92 Q2198.6 1293.88 2198.6 1300.65 Q2198.6 1307.62 2194.26 1311.5 Q2189.92 1315.35 2182.03 1315.35 Q2179.31 1315.35 2176.47 1314.89 Q2173.66 1314.42 2170.65 1313.5 L2170.65 1307.62 Q2173.26 1309.04 2176.04 1309.74 Q2178.81 1310.43 2181.91 1310.43 Q2186.92 1310.43 2189.84 1307.8 Q2192.76 1305.17 2192.76 1300.65 Q2192.76 1296.14 2189.84 1293.5 Q2186.92 1290.87 2181.91 1290.87 Q2179.57 1290.87 2177.22 1291.39 Q2174.91 1291.91 2172.48 1293.01 L2172.48 1271.31 Z" fill="#000000" fill-rule="nonzero" fill-opacity="1" /><path clip-path="url(#clip390)" d="M2222.62 1275.16 Q2218.11 1275.16 2215.82 1279.62 Q2213.56 1284.04 2213.56 1292.95 Q2213.56 1301.84 2215.82 1306.29 Q2218.11 1310.72 2222.62 1310.72 Q2227.16 1310.72 2229.42 1306.29 Q2231.71 1301.84 2231.71 1292.95 Q2231.71 1284.04 2229.42 1279.62 Q2227.16 1275.16 2222.62 1275.16 M2222.62 1270.53 Q2229.88 1270.53 2233.7 1276.29 Q2237.55 1282.02 2237.55 1292.95 Q2237.55 1303.86 2233.7 1309.62 Q2229.88 1315.35 2222.62 1315.35 Q2215.36 1315.35 2211.51 1309.62 Q2207.69 1303.86 2207.69 1292.95 Q2207.69 1282.02 2211.51 1276.29 Q2215.36 1270.53 2222.62 1270.53 Z" fill="#000000" fill-rule="nonzero" fill-opacity="1" /><path clip-path="url(#clip390)" d="M2260.32 1275.16 Q2255.81 1275.16 2253.52 1279.62 Q2251.27 1284.04 2251.27 1292.95 Q2251.27 1301.84 2253.52 1306.29 Q2255.81 1310.72 2260.32 1310.72 Q2264.87 1310.72 2267.12 1306.29 Q2269.41 1301.84 2269.41 1292.95 Q2269.41 1284.04 2267.12 1279.62 Q2264.87 1275.16 2260.32 1275.16 M2260.32 1270.53 Q2267.59 1270.53 2271.41 1276.29 Q2275.25 1282.02 2275.25 1292.95 Q2275.25 1303.86 2271.41 1309.62 Q2267.59 1315.35 2260.32 1315.35 Q2253.06 1315.35 2249.21 1309.62 Q2245.39 1303.86 2245.39 1292.95 Q2245.39 1282.02 2249.21 1276.29 Q2253.06 1270.53 2260.32 1270.53 Z" fill="#000000" fill-rule="nonzero" fill-opacity="1" /><path clip-path="url(#clip390)" d="M1178.5 1351.62 L1218.7 1351.62 L1218.7 1357.03 L1201.83 1357.03 L1201.83 1399.14 L1195.37 1399.14 L1195.37 1357.03 L1178.5 1357.03 L1178.5 1351.62 Z" fill="#000000" fill-rule="nonzero" fill-opacity="1" /><path clip-path="url(#clip390)" d="M1235.73 1368.96 Q1234.74 1368.39 1233.56 1368.13 Q1232.42 1367.85 1231.02 1367.85 Q1226.05 1367.85 1223.38 1371.09 Q1220.74 1374.31 1220.74 1380.36 L1220.74 1399.14 L1214.85 1399.14 L1214.85 1363.49 L1220.74 1363.49 L1220.74 1369.03 Q1222.58 1365.78 1225.54 1364.22 Q1228.5 1362.63 1232.74 1362.63 Q1233.34 1362.63 1234.07 1362.72 Q1234.8 1362.79 1235.7 1362.95 L1235.73 1368.96 Z" fill="#000000" fill-rule="nonzero" fill-opacity="1" /><path clip-path="url(#clip390)" d="M1258.07 1381.22 Q1250.97 1381.22 1248.24 1382.84 Q1245.5 1384.46 1245.5 1388.38 Q1245.5 1391.5 1247.54 1393.34 Q1249.6 1395.16 1253.14 1395.16 Q1258.01 1395.16 1260.94 1391.72 Q1263.9 1388.25 1263.9 1382.52 L1263.9 1381.22 L1258.07 1381.22 M1269.75 1378.8 L1269.75 1399.14 L1263.9 1399.14 L1263.9 1393.72 Q1261.89 1396.97 1258.9 1398.53 Q1255.91 1400.06 1251.58 1400.06 Q1246.1 1400.06 1242.86 1397 Q1239.64 1393.92 1239.64 1388.76 Q1239.64 1382.74 1243.65 1379.69 Q1247.69 1376.63 1255.68 1376.63 L1263.9 1376.63 L1263.9 1376.06 Q1263.9 1372.02 1261.22 1369.82 Q1258.58 1367.59 1253.77 1367.59 Q1250.72 1367.59 1247.82 1368.33 Q1244.93 1369.06 1242.25 1370.52 L1242.25 1365.11 Q1245.47 1363.87 1248.49 1363.26 Q1251.51 1362.63 1254.38 1362.63 Q1262.11 1362.63 1265.93 1366.64 Q1269.75 1370.65 1269.75 1378.8 Z" fill="#000000" fill-rule="nonzero" fill-opacity="1" /><path clip-path="url(#clip390)" d="M1305.27 1368.9 L1305.27 1349.61 L1311.13 1349.61 L1311.13 1399.14 L1305.27 1399.14 L1305.27 1393.79 Q1303.43 1396.97 1300.59 1398.53 Q1297.79 1400.06 1293.85 1400.06 Q1287.39 1400.06 1283.31 1394.9 Q1279.27 1389.75 1279.27 1381.34 Q1279.27 1372.94 1283.31 1367.78 Q1287.39 1362.63 1293.85 1362.63 Q1297.79 1362.63 1300.59 1364.19 Q1303.43 1365.72 1305.27 1368.9 M1285.32 1381.34 Q1285.32 1387.8 1287.96 1391.5 Q1290.63 1395.16 1295.28 1395.16 Q1299.93 1395.16 1302.6 1391.5 Q1305.27 1387.8 1305.27 1381.34 Q1305.27 1374.88 1302.6 1371.22 Q1299.93 1367.53 1295.28 1367.53 Q1290.63 1367.53 1287.96 1371.22 Q1285.32 1374.88 1285.32 1381.34 Z" fill="#000000" fill-rule="nonzero" fill-opacity="1" /><path clip-path="url(#clip390)" d="M1323.19 1363.49 L1329.05 1363.49 L1329.05 1399.14 L1323.19 1399.14 L1323.19 1363.49 M1323.19 1349.61 L1329.05 1349.61 L1329.05 1357.03 L1323.19 1357.03 L1323.19 1349.61 Z" fill="#000000" fill-rule="nonzero" fill-opacity="1" /><path clip-path="url(#clip390)" d="M1370.94 1377.62 L1370.94 1399.14 L1365.08 1399.14 L1365.08 1377.81 Q1365.08 1372.75 1363.11 1370.24 Q1361.13 1367.72 1357.19 1367.72 Q1352.44 1367.72 1349.71 1370.74 Q1346.97 1373.77 1346.97 1378.99 L1346.97 1399.14 L1341.08 1399.14 L1341.08 1363.49 L1346.97 1363.49 L1346.97 1369.03 Q1349.07 1365.81 1351.9 1364.22 Q1354.77 1362.63 1358.49 1362.63 Q1364.63 1362.63 1367.78 1366.45 Q1370.94 1370.24 1370.94 1377.62 Z" fill="#000000" fill-rule="nonzero" fill-opacity="1" /><path clip-path="url(#clip390)" d="M1406.07 1380.9 Q1406.07 1374.53 1403.43 1371.03 Q1400.82 1367.53 1396.08 1367.53 Q1391.37 1367.53 1388.73 1371.03 Q1386.12 1374.53 1386.12 1380.9 Q1386.12 1387.23 1388.73 1390.73 Q1391.37 1394.23 1396.08 1394.23 Q1400.82 1394.23 1403.43 1390.73 Q1406.07 1387.23 1406.07 1380.9 M1411.93 1394.71 Q1411.93 1403.81 1407.89 1408.24 Q1403.85 1412.69 1395.51 1412.69 Q1392.42 1412.69 1389.68 1412.22 Q1386.94 1411.77 1384.37 1410.82 L1384.37 1405.12 Q1386.94 1406.52 1389.46 1407.19 Q1391.97 1407.86 1394.58 1407.86 Q1400.34 1407.86 1403.21 1404.83 Q1406.07 1401.84 1406.07 1395.76 L1406.07 1392.87 Q1404.26 1396.02 1401.43 1397.58 Q1398.59 1399.14 1394.65 1399.14 Q1388.09 1399.14 1384.08 1394.14 Q1380.07 1389.14 1380.07 1380.9 Q1380.07 1372.62 1384.08 1367.63 Q1388.09 1362.63 1394.65 1362.63 Q1398.59 1362.63 1401.43 1364.19 Q1404.26 1365.75 1406.07 1368.9 L1406.07 1363.49 L1411.93 1363.49 L1411.93 1394.71 Z" fill="#000000" fill-rule="nonzero" fill-opacity="1" /><path clip-path="url(#clip390)" d="M1451.4 1356.9 L1451.4 1393.85 L1459.16 1393.85 Q1469 1393.85 1473.55 1389.4 Q1478.13 1384.94 1478.13 1375.33 Q1478.13 1365.78 1473.55 1361.36 Q1469 1356.9 1459.16 1356.9 L1451.4 1356.9 M1444.97 1351.62 L1458.18 1351.62 Q1471.99 1351.62 1478.45 1357.38 Q1484.91 1363.11 1484.91 1375.33 Q1484.91 1387.61 1478.42 1393.37 Q1471.93 1399.14 1458.18 1399.14 L1444.97 1399.14 L1444.97 1351.62 Z" fill="#000000" fill-rule="nonzero" fill-opacity="1" /><path clip-path="url(#clip390)" d="M1511.11 1381.22 Q1504.01 1381.22 1501.27 1382.84 Q1498.54 1384.46 1498.54 1388.38 Q1498.54 1391.5 1500.57 1393.34 Q1502.64 1395.16 1506.17 1395.16 Q1511.04 1395.16 1513.97 1391.72 Q1516.93 1388.25 1516.93 1382.52 L1516.93 1381.22 L1511.11 1381.22 M1522.79 1378.8 L1522.79 1399.14 L1516.93 1399.14 L1516.93 1393.72 Q1514.93 1396.97 1511.94 1398.53 Q1508.94 1400.06 1504.61 1400.06 Q1499.14 1400.06 1495.89 1397 Q1492.68 1393.92 1492.68 1388.76 Q1492.68 1382.74 1496.69 1379.69 Q1500.73 1376.63 1508.72 1376.63 L1516.93 1376.63 L1516.93 1376.06 Q1516.93 1372.02 1514.26 1369.82 Q1511.62 1367.59 1506.81 1367.59 Q1503.76 1367.59 1500.86 1368.33 Q1497.96 1369.06 1495.29 1370.52 L1495.29 1365.11 Q1498.5 1363.87 1501.53 1363.26 Q1504.55 1362.63 1507.42 1362.63 Q1515.15 1362.63 1518.97 1366.64 Q1522.79 1370.65 1522.79 1378.8 Z" fill="#000000" fill-rule="nonzero" fill-opacity="1" /><path clip-path="url(#clip390)" d="M1549.68 1402.45 Q1547.2 1408.81 1544.85 1410.75 Q1542.49 1412.69 1538.54 1412.69 L1533.87 1412.69 L1533.87 1407.79 L1537.3 1407.79 Q1539.72 1407.79 1541.06 1406.65 Q1542.4 1405.5 1544.02 1401.24 L1545.07 1398.56 L1530.65 1363.49 L1536.86 1363.49 L1548 1391.37 L1559.14 1363.49 L1565.34 1363.49 L1549.68 1402.45 Z" fill="#000000" fill-rule="nonzero" fill-opacity="1" /><polyline clip-path="url(#clip390)" style="stroke:#000000; stroke-linecap:round; stroke-linejoin:round; stroke-width:4; stroke-opacity:1; fill:none" points="469.828,1241.31 469.828,184.932 "/>
<polyline clip-path="url(#clip390)" style="stroke:#000000; stroke-linecap:round; stroke-linejoin:round; stroke-width:4; stroke-opacity:1; fill:none" points="469.828,1162.63 488.725,1162.63 "/>
<polyline clip-path="url(#clip390)" style="stroke:#000000; stroke-linecap:round; stroke-linejoin:round; stroke-width:4; stroke-opacity:1; fill:none" points="469.828,906.013 488.725,906.013 "/>
<polyline clip-path="url(#clip390)" style="stroke:#000000; stroke-linecap:round; stroke-linejoin:round; stroke-width:4; stroke-opacity:1; fill:none" points="469.828,649.394 488.725,649.394 "/>
<polyline clip-path="url(#clip390)" style="stroke:#000000; stroke-linecap:round; stroke-linejoin:round; stroke-width:4; stroke-opacity:1; fill:none" points="469.828,392.774 488.725,392.774 "/>
<path clip-path="url(#clip390)" d="M318.985 1163.2 L356.079 1163.2 L356.079 1168.12 L318.985 1168.12 L318.985 1163.2 Z" fill="#000000" fill-rule="nonzero" fill-opacity="1" /><path clip-path="url(#clip390)" d="M369.708 1179.31 L379.256 1179.31 L379.256 1146.36 L368.869 1148.44 L368.869 1143.12 L379.198 1141.03 L385.043 1141.03 L385.043 1179.31 L394.592 1179.31 L394.592 1184.23 L369.708 1184.23 L369.708 1179.31 Z" fill="#000000" fill-rule="nonzero" fill-opacity="1" /><path clip-path="url(#clip390)" d="M418.897 1144.88 Q414.383 1144.88 412.097 1149.34 Q409.841 1153.76 409.841 1162.68 Q409.841 1171.56 412.097 1176.01 Q414.383 1180.44 418.897 1180.44 Q423.44 1180.44 425.697 1176.01 Q427.983 1171.56 427.983 1162.68 Q427.983 1153.76 425.697 1149.34 Q423.44 1144.88 418.897 1144.88 M418.897 1140.25 Q426.16 1140.25 429.979 1146.01 Q433.828 1151.74 433.828 1162.68 Q433.828 1173.58 429.979 1179.34 Q426.16 1185.07 418.897 1185.07 Q411.635 1185.07 407.786 1179.34 Q403.967 1173.58 403.967 1162.68 Q403.967 1151.74 407.786 1146.01 Q411.635 1140.25 418.897 1140.25 Z" fill="#000000" fill-rule="nonzero" fill-opacity="1" /><path clip-path="url(#clip390)" d="M357.931 906.577 L395.026 906.577 L395.026 911.496 L357.931 911.496 L357.931 906.577 Z" fill="#000000" fill-rule="nonzero" fill-opacity="1" /><path clip-path="url(#clip390)" d="M407.699 884.413 L430.645 884.413 L430.645 889.332 L413.052 889.332 L413.052 899.922 Q414.325 899.488 415.599 899.286 Q416.872 899.054 418.145 899.054 Q425.379 899.054 429.603 903.018 Q433.828 906.982 433.828 913.753 Q433.828 920.727 429.487 924.604 Q425.147 928.452 417.248 928.452 Q414.528 928.452 411.692 927.989 Q408.886 927.526 405.876 926.6 L405.876 920.727 Q408.481 922.144 411.258 922.839 Q414.036 923.533 417.132 923.533 Q422.138 923.533 425.06 920.9 Q427.983 918.267 427.983 913.753 Q427.983 909.239 425.06 906.606 Q422.138 903.973 417.132 903.973 Q414.788 903.973 412.445 904.494 Q410.13 905.015 407.699 906.114 L407.699 884.413 Z" fill="#000000" fill-rule="nonzero" fill-opacity="1" /><path clip-path="url(#clip390)" d="M418.897 631.642 Q414.383 631.642 412.097 636.098 Q409.841 640.525 409.841 649.437 Q409.841 658.32 412.097 662.776 Q414.383 667.203 418.897 667.203 Q423.44 667.203 425.697 662.776 Q427.983 658.32 427.983 649.437 Q427.983 640.525 425.697 636.098 Q423.44 631.642 418.897 631.642 M418.897 627.013 Q426.16 627.013 429.979 632.771 Q433.828 638.5 433.828 649.437 Q433.828 660.346 429.979 666.104 Q426.16 671.833 418.897 671.833 Q411.635 671.833 407.786 666.104 Q403.967 660.346 403.967 649.437 Q403.967 638.5 407.786 632.771 Q411.635 627.013 418.897 627.013 Z" fill="#000000" fill-rule="nonzero" fill-opacity="1" /><path clip-path="url(#clip390)" d="M407.699 371.174 L430.645 371.174 L430.645 376.093 L413.052 376.093 L413.052 386.684 Q414.325 386.25 415.599 386.047 Q416.872 385.816 418.145 385.816 Q425.379 385.816 429.603 389.78 Q433.828 393.744 433.828 400.515 Q433.828 407.488 429.487 411.365 Q425.147 415.214 417.248 415.214 Q414.528 415.214 411.692 414.751 Q408.886 414.288 405.876 413.362 L405.876 407.488 Q408.481 408.906 411.258 409.6 Q414.036 410.295 417.132 410.295 Q422.138 410.295 425.06 407.662 Q427.983 405.028 427.983 400.515 Q427.983 396.001 425.06 393.368 Q422.138 390.735 417.132 390.735 Q414.788 390.735 412.445 391.255 Q410.13 391.776 407.699 392.876 L407.699 371.174 Z" fill="#000000" fill-rule="nonzero" fill-opacity="1" /><path clip-path="url(#clip390)" d="M221.209 1032.86 L221.209 1002.81 L226.619 1002.81 L226.619 1026.43 L240.688 1026.43 L240.688 1003.8 L246.098 1003.8 L246.098 1026.43 L263.318 1026.43 L263.318 1002.24 L268.729 1002.24 L268.729 1032.86 L221.209 1032.86 Z" fill="#000000" fill-rule="nonzero" fill-opacity="1" /><path clip-path="url(#clip390)" d="M233.081 962.292 L250.427 975.182 L268.729 961.623 L268.729 968.53 L254.724 978.906 L268.729 989.282 L268.729 996.189 L250.077 982.344 L233.081 995.011 L233.081 988.105 L245.78 978.651 L233.081 969.198 L233.081 962.292 Z" fill="#000000" fill-rule="nonzero" fill-opacity="1" /><path clip-path="url(#clip390)" d="M234.449 928.84 L239.924 928.84 Q238.555 931.322 237.887 933.837 Q237.186 936.319 237.186 938.866 Q237.186 944.563 240.815 947.714 Q244.412 950.865 250.936 950.865 Q257.461 950.865 261.09 947.714 Q264.686 944.563 264.686 938.866 Q264.686 936.319 264.018 933.837 Q263.318 931.322 261.949 928.84 L267.36 928.84 Q268.506 931.291 269.079 933.932 Q269.652 936.542 269.652 939.502 Q269.652 947.555 264.591 952.297 Q259.53 957.04 250.936 957.04 Q242.215 957.04 237.218 952.266 Q232.221 947.459 232.221 939.12 Q232.221 936.415 232.794 933.837 Q233.335 931.259 234.449 928.84 Z" fill="#000000" fill-rule="nonzero" fill-opacity="1" /><path clip-path="url(#clip390)" d="M249.44 888.163 L252.305 888.163 L252.305 915.09 Q258.352 914.708 261.535 911.461 Q264.686 908.183 264.686 902.358 Q264.686 898.985 263.859 895.834 Q263.031 892.651 261.376 889.532 L266.914 889.532 Q268.251 892.683 268.951 895.993 Q269.652 899.303 269.652 902.709 Q269.652 911.239 264.686 916.236 Q259.721 921.201 251.255 921.201 Q242.502 921.201 237.377 916.49 Q232.221 911.748 232.221 903.727 Q232.221 896.534 236.868 892.364 Q241.483 888.163 249.44 888.163 M247.722 894.019 Q242.916 894.083 240.051 896.725 Q237.186 899.335 237.186 903.663 Q237.186 908.565 239.956 911.525 Q242.725 914.453 247.754 914.899 L247.722 894.019 Z" fill="#000000" fill-rule="nonzero" fill-opacity="1" /><path clip-path="url(#clip390)" d="M234.131 855.825 L239.669 855.825 Q238.396 858.308 237.759 860.981 Q237.123 863.655 237.123 866.52 Q237.123 870.88 238.46 873.076 Q239.796 875.241 242.47 875.241 Q244.507 875.241 245.685 873.681 Q246.831 872.121 247.881 867.411 L248.326 865.406 Q249.663 859.167 252.114 856.557 Q254.533 853.915 258.894 853.915 Q263.859 853.915 266.755 857.862 Q269.652 861.777 269.652 868.652 Q269.652 871.517 269.079 874.636 Q268.538 877.723 267.424 881.161 L261.376 881.161 Q263.063 877.914 263.922 874.763 Q264.75 871.612 264.75 868.525 Q264.75 864.387 263.35 862.159 Q261.917 859.931 259.339 859.931 Q256.952 859.931 255.679 861.554 Q254.406 863.146 253.228 868.588 L252.751 870.625 Q251.605 876.068 249.25 878.487 Q246.862 880.906 242.725 880.906 Q237.696 880.906 234.958 877.341 Q232.221 873.776 232.221 867.22 Q232.221 863.973 232.699 861.109 Q233.176 858.244 234.131 855.825 Z" fill="#000000" fill-rule="nonzero" fill-opacity="1" /><path clip-path="url(#clip390)" d="M234.131 821.864 L239.669 821.864 Q238.396 824.347 237.759 827.02 Q237.123 829.694 237.123 832.558 Q237.123 836.919 238.46 839.115 Q239.796 841.279 242.47 841.279 Q244.507 841.279 245.685 839.72 Q246.831 838.16 247.881 833.45 L248.326 831.444 Q249.663 825.206 252.114 822.596 Q254.533 819.954 258.894 819.954 Q263.859 819.954 266.755 823.901 Q269.652 827.816 269.652 834.691 Q269.652 837.556 269.079 840.675 Q268.538 843.762 267.424 847.2 L261.376 847.2 Q263.063 843.953 263.922 840.802 Q264.75 837.651 264.75 834.564 Q264.75 830.426 263.35 828.198 Q261.917 825.97 259.339 825.97 Q256.952 825.97 255.679 827.593 Q254.406 829.185 253.228 834.627 L252.751 836.664 Q251.605 842.107 249.25 844.526 Q246.862 846.945 242.725 846.945 Q237.696 846.945 234.958 843.38 Q232.221 839.815 232.221 833.259 Q232.221 830.012 232.699 827.148 Q233.176 824.283 234.131 821.864 Z" fill="#000000" fill-rule="nonzero" fill-opacity="1" /><path clip-path="url(#clip390)" d="M261.949 757.252 L249.186 757.252 L249.186 767.756 L243.902 767.756 L243.902 750.886 L264.304 750.886 Q266.946 754.61 268.315 759.098 Q269.652 763.586 269.652 768.679 Q269.652 779.819 263.159 786.121 Q256.634 792.391 245.016 792.391 Q233.367 792.391 226.874 786.121 Q220.349 779.819 220.349 768.679 Q220.349 764.032 221.495 759.862 Q222.641 755.661 224.869 752.128 L231.712 752.128 Q228.688 755.693 227.161 759.703 Q225.633 763.713 225.633 768.138 Q225.633 776.859 230.502 781.251 Q235.372 785.611 245.016 785.611 Q254.629 785.611 259.498 781.251 Q264.368 776.859 264.368 768.138 Q264.368 764.732 263.795 762.058 Q263.19 759.385 261.949 757.252 Z" fill="#000000" fill-rule="nonzero" fill-opacity="1" /><path clip-path="url(#clip390)" d="M238.555 718.74 Q237.982 719.726 237.728 720.904 Q237.441 722.05 237.441 723.45 Q237.441 728.415 240.688 731.089 Q243.902 733.731 249.95 733.731 L268.729 733.731 L268.729 739.619 L233.081 739.619 L233.081 733.731 L238.619 733.731 Q235.372 731.885 233.813 728.925 Q232.221 725.965 232.221 721.732 Q232.221 721.127 232.317 720.395 Q232.38 719.663 232.54 718.771 L238.555 718.74 Z" fill="#000000" fill-rule="nonzero" fill-opacity="1" /><path clip-path="url(#clip390)" d="M237.186 700.215 Q237.186 704.926 240.879 707.663 Q244.539 710.401 250.936 710.401 Q257.334 710.401 261.026 707.695 Q264.686 704.958 264.686 700.215 Q264.686 695.537 260.994 692.799 Q257.302 690.062 250.936 690.062 Q244.603 690.062 240.91 692.799 Q237.186 695.537 237.186 700.215 M232.221 700.215 Q232.221 692.577 237.186 688.216 Q242.152 683.856 250.936 683.856 Q259.689 683.856 264.686 688.216 Q269.652 692.577 269.652 700.215 Q269.652 707.886 264.686 712.247 Q259.689 716.575 250.936 716.575 Q242.152 716.575 237.186 712.247 Q232.221 707.886 232.221 700.215 Z" fill="#000000" fill-rule="nonzero" fill-opacity="1" /><path clip-path="url(#clip390)" d="M233.081 677.554 L233.081 671.697 L260.899 664.376 L233.081 657.088 L233.081 650.181 L260.899 642.86 L233.081 635.572 L233.081 629.715 L268.729 639.041 L268.729 645.948 L239.51 653.618 L268.729 661.321 L268.729 668.228 L233.081 677.554 Z" fill="#000000" fill-rule="nonzero" fill-opacity="1" /><path clip-path="url(#clip390)" d="M222.959 615.042 L233.081 615.042 L233.081 602.979 L237.632 602.979 L237.632 615.042 L256.984 615.042 Q261.344 615.042 262.586 613.865 Q263.827 612.655 263.827 608.995 L263.827 602.979 L268.729 602.979 L268.729 608.995 Q268.729 615.774 266.214 618.352 Q263.668 620.931 256.984 620.931 L237.632 620.931 L237.632 625.227 L233.081 625.227 L233.081 620.931 L222.959 620.931 L222.959 615.042 Z" fill="#000000" fill-rule="nonzero" fill-opacity="1" /><path clip-path="url(#clip390)" d="M247.212 565.644 L268.729 565.644 L268.729 571.501 L247.403 571.501 Q242.343 571.501 239.828 573.474 Q237.314 575.448 237.314 579.394 Q237.314 584.137 240.338 586.874 Q243.361 589.611 248.581 589.611 L268.729 589.611 L268.729 595.5 L219.203 595.5 L219.203 589.611 L238.619 589.611 Q235.404 587.511 233.813 584.678 Q232.221 581.813 232.221 578.089 Q232.221 571.946 236.041 568.795 Q239.828 565.644 247.212 565.644 Z" fill="#000000" fill-rule="nonzero" fill-opacity="1" /><path clip-path="url(#clip390)" d="M246.449 510.454 Q247.149 508.385 249.44 506.443 Q251.732 504.47 255.743 502.497 L268.729 495.972 L268.729 502.879 L256.538 508.958 Q251.764 511.313 250.204 513.541 Q248.645 515.737 248.645 519.557 L248.645 526.559 L268.729 526.559 L268.729 532.988 L221.209 532.988 L221.209 518.474 Q221.209 510.326 224.614 506.316 Q228.02 502.306 234.895 502.306 Q239.383 502.306 242.343 504.406 Q245.303 506.475 246.449 510.454 M226.492 526.559 L243.361 526.559 L243.361 518.474 Q243.361 513.828 241.229 511.472 Q239.064 509.085 234.895 509.085 Q230.725 509.085 228.625 511.472 Q226.492 513.828 226.492 518.474 L226.492 526.559 Z" fill="#000000" fill-rule="nonzero" fill-opacity="1" /><path clip-path="url(#clip390)" d="M250.809 473.182 Q250.809 480.28 252.432 483.018 Q254.056 485.755 257.971 485.755 Q261.09 485.755 262.936 483.718 Q264.75 481.649 264.75 478.116 Q264.75 473.246 261.313 470.318 Q257.843 467.358 252.114 467.358 L250.809 467.358 L250.809 473.182 M248.39 461.501 L268.729 461.501 L268.729 467.358 L263.318 467.358 Q266.564 469.363 268.124 472.355 Q269.652 475.347 269.652 479.676 Q269.652 485.15 266.596 488.397 Q263.509 491.611 258.352 491.611 Q252.337 491.611 249.281 487.601 Q246.226 483.559 246.226 475.57 L246.226 467.358 L245.653 467.358 Q241.611 467.358 239.414 470.031 Q237.186 472.673 237.186 477.479 Q237.186 480.535 237.919 483.431 Q238.651 486.328 240.115 489.001 L234.704 489.001 Q233.463 485.787 232.858 482.763 Q232.221 479.739 232.221 476.875 Q232.221 469.14 236.232 465.321 Q240.242 461.501 248.39 461.501 Z" fill="#000000" fill-rule="nonzero" fill-opacity="1" /><path clip-path="url(#clip390)" d="M222.959 443.646 L233.081 443.646 L233.081 431.583 L237.632 431.583 L237.632 443.646 L256.984 443.646 Q261.344 443.646 262.586 442.468 Q263.827 441.258 263.827 437.598 L263.827 431.583 L268.729 431.583 L268.729 437.598 Q268.729 444.378 266.214 446.956 Q263.668 449.534 256.984 449.534 L237.632 449.534 L237.632 453.831 L233.081 453.831 L233.081 449.534 L222.959 449.534 L222.959 443.646 Z" fill="#000000" fill-rule="nonzero" fill-opacity="1" /><path clip-path="url(#clip390)" d="M249.44 393.388 L252.305 393.388 L252.305 420.315 Q258.352 419.933 261.535 416.687 Q264.686 413.409 264.686 407.584 Q264.686 404.21 263.859 401.059 Q263.031 397.876 261.376 394.757 L266.914 394.757 Q268.251 397.908 268.951 401.218 Q269.652 404.528 269.652 407.934 Q269.652 416.464 264.686 421.461 Q259.721 426.426 251.255 426.426 Q242.502 426.426 237.377 421.716 Q232.221 416.973 232.221 408.953 Q232.221 401.759 236.868 397.59 Q241.483 393.388 249.44 393.388 M247.722 399.245 Q242.916 399.308 240.051 401.95 Q237.186 404.56 237.186 408.889 Q237.186 413.79 239.956 416.751 Q242.725 419.679 247.754 420.124 L247.722 399.245 Z" fill="#000000" fill-rule="nonzero" fill-opacity="1" /><path clip-path="url(#clip390)" d="M768.467 31.5855 Q770.348 32.222 772.113 34.3054 Q773.907 36.3887 775.701 40.0345 L781.633 51.84 L775.354 51.84 L769.827 40.7579 Q767.686 36.4176 765.661 34.9998 Q763.664 33.582 760.192 33.582 L753.826 33.582 L753.826 51.84 L747.981 51.84 L747.981 8.64 L761.176 8.64 Q768.583 8.64 772.229 11.736 Q775.875 14.8321 775.875 21.0821 Q775.875 25.1619 773.965 27.8529 Q772.084 30.5438 768.467 31.5855 M753.826 13.4432 L753.826 28.7788 L761.176 28.7788 Q765.4 28.7788 767.541 26.8401 Q769.711 24.8726 769.711 21.0821 Q769.711 17.2916 767.541 15.3819 Q765.4 13.4432 761.176 13.4432 L753.826 13.4432 Z" fill="#000000" fill-rule="nonzero" fill-opacity="1" /><path clip-path="url(#clip390)" d="M813.982 34.3054 L813.982 36.9095 L789.503 36.9095 Q789.85 42.4072 792.802 45.3007 Q795.782 48.1653 801.077 48.1653 Q804.144 48.1653 807.009 47.4129 Q809.902 46.6606 812.738 45.156 L812.738 50.1907 Q809.873 51.406 806.864 52.0425 Q803.855 52.6791 800.759 52.6791 Q793.004 52.6791 788.461 48.1653 Q783.947 43.6514 783.947 35.9547 Q783.947 27.9975 788.23 23.339 Q792.541 18.6515 799.833 18.6515 Q806.372 18.6515 810.163 22.876 Q813.982 27.0716 813.982 34.3054 M808.658 32.7429 Q808.6 28.3737 806.198 25.7695 Q803.826 23.1654 799.891 23.1654 Q795.435 23.1654 792.744 25.6827 Q790.082 28.2001 789.677 32.7718 L808.658 32.7429 Z" fill="#000000" fill-rule="nonzero" fill-opacity="1" /><path clip-path="url(#clip390)" d="M827.987 10.2314 L827.987 19.4328 L838.953 19.4328 L838.953 23.5705 L827.987 23.5705 L827.987 41.163 Q827.987 45.1271 829.057 46.2555 Q830.157 47.384 833.484 47.384 L838.953 47.384 L838.953 51.84 L833.484 51.84 Q827.321 51.84 824.977 49.5541 Q822.634 47.2393 822.634 41.163 L822.634 23.5705 L818.727 23.5705 L818.727 19.4328 L822.634 19.4328 L822.634 10.2314 L827.987 10.2314 Z" fill="#000000" fill-rule="nonzero" fill-opacity="1" /><path clip-path="url(#clip390)" d="M845.405 39.0507 L845.405 19.4328 L850.729 19.4328 L850.729 38.8482 Q850.729 43.4488 852.523 45.7636 Q854.317 48.0495 857.905 48.0495 Q862.217 48.0495 864.705 45.3007 Q867.222 42.5519 867.222 37.8065 L867.222 19.4328 L872.547 19.4328 L872.547 51.84 L867.222 51.84 L867.222 46.8632 Q865.284 49.8145 862.709 51.2613 Q860.162 52.6791 856.777 52.6791 Q851.192 52.6791 848.299 49.2069 Q845.405 45.7347 845.405 39.0507 M858.802 18.6515 L858.802 18.6515 Z" fill="#000000" fill-rule="nonzero" fill-opacity="1" /><path clip-path="url(#clip390)" d="M902.292 24.4096 Q901.395 23.8888 900.324 23.6573 Q899.282 23.3969 898.009 23.3969 Q893.495 23.3969 891.065 26.3482 Q888.663 29.2707 888.663 34.7683 L888.663 51.84 L883.31 51.84 L883.31 19.4328 L888.663 19.4328 L888.663 24.4675 Q890.342 21.5161 893.033 20.0983 Q895.723 18.6515 899.572 18.6515 Q900.122 18.6515 900.787 18.7383 Q901.453 18.7962 902.263 18.9409 L902.292 24.4096 Z" fill="#000000" fill-rule="nonzero" fill-opacity="1" /><path clip-path="url(#clip390)" d="M933.773 32.2799 L933.773 51.84 L928.449 51.84 L928.449 32.4535 Q928.449 27.8529 926.655 25.567 Q924.861 23.2811 921.273 23.2811 Q916.962 23.2811 914.473 26.03 Q911.985 28.7788 911.985 33.5241 L911.985 51.84 L906.632 51.84 L906.632 19.4328 L911.985 19.4328 L911.985 24.4675 Q913.895 21.545 916.47 20.0983 Q919.074 18.6515 922.459 18.6515 Q928.044 18.6515 930.908 22.1237 Q933.773 25.567 933.773 32.2799 Z" fill="#000000" fill-rule="nonzero" fill-opacity="1" /><path clip-path="url(#clip390)" d="M957.471 8.64 L994.016 8.64 L994.016 13.559 L978.68 13.559 L978.68 51.84 L972.806 51.84 L972.806 13.559 L957.471 13.559 L957.471 8.64 Z" fill="#000000" fill-rule="nonzero" fill-opacity="1" /><path clip-path="url(#clip390)" d="M1009.5 24.4096 Q1008.6 23.8888 1007.53 23.6573 Q1006.49 23.3969 1005.21 23.3969 Q1000.7 23.3969 998.269 26.3482 Q995.868 29.2707 995.868 34.7683 L995.868 51.84 L990.515 51.84 L990.515 19.4328 L995.868 19.4328 L995.868 24.4675 Q997.546 21.5161 1000.24 20.0983 Q1002.93 18.6515 1006.78 18.6515 Q1007.33 18.6515 1007.99 18.7383 Q1008.66 18.7962 1009.47 18.9409 L1009.5 24.4096 Z" fill="#000000" fill-rule="nonzero" fill-opacity="1" /><path clip-path="url(#clip390)" d="M1029.81 35.5496 Q1023.36 35.5496 1020.87 37.0253 Q1018.38 38.501 1018.38 42.06 Q1018.38 44.8956 1020.23 46.5738 Q1022.11 48.2231 1025.32 48.2231 Q1029.75 48.2231 1032.41 45.0981 Q1035.1 41.9442 1035.1 36.7359 L1035.1 35.5496 L1029.81 35.5496 M1040.43 33.3505 L1040.43 51.84 L1035.1 51.84 L1035.1 46.921 Q1033.28 49.8724 1030.56 51.2902 Q1027.84 52.6791 1023.91 52.6791 Q1018.93 52.6791 1015.98 49.9014 Q1013.06 47.0947 1013.06 42.4072 Q1013.06 36.9385 1016.7 34.1607 Q1020.38 31.3829 1027.64 31.3829 L1035.1 31.3829 L1035.1 30.8621 Q1035.1 27.1874 1032.67 25.1908 Q1030.27 23.1654 1025.9 23.1654 Q1023.12 23.1654 1020.49 23.8309 Q1017.86 24.4964 1015.43 25.8274 L1015.43 20.9085 Q1018.35 19.78 1021.1 19.2302 Q1023.85 18.6515 1026.45 18.6515 Q1033.48 18.6515 1036.96 22.2973 Q1040.43 25.9431 1040.43 33.3505 Z" fill="#000000" fill-rule="nonzero" fill-opacity="1" /><path clip-path="url(#clip390)" d="M1051.39 19.4328 L1056.72 19.4328 L1056.72 52.4187 Q1056.72 58.6108 1054.35 61.3886 Q1052 64.1663 1046.76 64.1663 L1044.74 64.1663 L1044.74 59.6525 L1046.16 59.6525 Q1049.19 59.6525 1050.29 58.2346 Q1051.39 56.8458 1051.39 52.4187 L1051.39 19.4328 M1051.39 6.81709 L1056.72 6.81709 L1056.72 13.559 L1051.39 13.559 L1051.39 6.81709 Z" fill="#000000" fill-rule="nonzero" fill-opacity="1" /><path clip-path="url(#clip390)" d="M1095.58 34.3054 L1095.58 36.9095 L1071.1 36.9095 Q1071.45 42.4072 1074.4 45.3007 Q1077.38 48.1653 1082.67 48.1653 Q1085.74 48.1653 1088.6 47.4129 Q1091.5 46.6606 1094.33 45.156 L1094.33 50.1907 Q1091.47 51.406 1088.46 52.0425 Q1085.45 52.6791 1082.35 52.6791 Q1074.6 52.6791 1070.06 48.1653 Q1065.54 43.6514 1065.54 35.9547 Q1065.54 27.9975 1069.83 23.339 Q1074.14 18.6515 1081.43 18.6515 Q1087.97 18.6515 1091.76 22.876 Q1095.58 27.0716 1095.58 34.3054 M1090.25 32.7429 Q1090.2 28.3737 1087.79 25.7695 Q1085.42 23.1654 1081.49 23.1654 Q1077.03 23.1654 1074.34 25.6827 Q1071.68 28.2001 1071.27 32.7718 L1090.25 32.7429 Z" fill="#000000" fill-rule="nonzero" fill-opacity="1" /><path clip-path="url(#clip390)" d="M1127.64 20.677 L1127.64 25.6538 Q1125.38 24.4096 1123.09 23.802 Q1120.84 23.1654 1118.52 23.1654 Q1113.34 23.1654 1110.48 26.464 Q1107.61 29.7336 1107.61 35.6653 Q1107.61 41.597 1110.48 44.8956 Q1113.34 48.1653 1118.52 48.1653 Q1120.84 48.1653 1123.09 47.5576 Q1125.38 46.921 1127.64 45.6768 L1127.64 50.5958 Q1125.41 51.6375 1123.01 52.1583 Q1120.64 52.6791 1117.94 52.6791 Q1110.62 52.6791 1106.31 48.0784 Q1102 43.4778 1102 35.6653 Q1102 27.7371 1106.34 23.1943 Q1110.71 18.6515 1118.29 18.6515 Q1120.75 18.6515 1123.09 19.1724 Q1125.44 19.6642 1127.64 20.677 Z" fill="#000000" fill-rule="nonzero" fill-opacity="1" /><path clip-path="url(#clip390)" d="M1142.16 10.2314 L1142.16 19.4328 L1153.13 19.4328 L1153.13 23.5705 L1142.16 23.5705 L1142.16 41.163 Q1142.16 45.1271 1143.23 46.2555 Q1144.33 47.384 1147.66 47.384 L1153.13 47.384 L1153.13 51.84 L1147.66 51.84 Q1141.5 51.84 1139.15 49.5541 Q1136.81 47.2393 1136.81 41.163 L1136.81 23.5705 L1132.9 23.5705 L1132.9 19.4328 L1136.81 19.4328 L1136.81 10.2314 L1142.16 10.2314 Z" fill="#000000" fill-rule="nonzero" fill-opacity="1" /><path clip-path="url(#clip390)" d="M1172.69 23.1654 Q1168.41 23.1654 1165.92 26.5218 Q1163.43 29.8494 1163.43 35.6653 Q1163.43 41.4813 1165.89 44.8377 Q1168.38 48.1653 1172.69 48.1653 Q1176.94 48.1653 1179.43 44.8088 Q1181.92 41.4523 1181.92 35.6653 Q1181.92 29.9072 1179.43 26.5508 Q1176.94 23.1654 1172.69 23.1654 M1172.69 18.6515 Q1179.63 18.6515 1183.6 23.1654 Q1187.56 27.6792 1187.56 35.6653 Q1187.56 43.6225 1183.6 48.1653 Q1179.63 52.6791 1172.69 52.6791 Q1165.72 52.6791 1161.75 48.1653 Q1157.82 43.6225 1157.82 35.6653 Q1157.82 27.6792 1161.75 23.1654 Q1165.72 18.6515 1172.69 18.6515 Z" fill="#000000" fill-rule="nonzero" fill-opacity="1" /><path clip-path="url(#clip390)" d="M1215.17 24.4096 Q1214.27 23.8888 1213.2 23.6573 Q1212.16 23.3969 1210.88 23.3969 Q1206.37 23.3969 1203.94 26.3482 Q1201.54 29.2707 1201.54 34.7683 L1201.54 51.84 L1196.18 51.84 L1196.18 19.4328 L1201.54 19.4328 L1201.54 24.4675 Q1203.22 21.5161 1205.91 20.0983 Q1208.6 18.6515 1212.45 18.6515 Q1213 18.6515 1213.66 18.7383 Q1214.33 18.7962 1215.14 18.9409 L1215.17 24.4096 Z" fill="#000000" fill-rule="nonzero" fill-opacity="1" /><path clip-path="url(#clip390)" d="M1234.23 54.8492 Q1231.98 60.6362 1229.84 62.4013 Q1227.7 64.1663 1224.11 64.1663 L1219.85 64.1663 L1219.85 59.7103 L1222.98 59.7103 Q1225.18 59.7103 1226.39 58.6687 Q1227.61 57.627 1229.08 53.7497 L1230.04 51.3192 L1216.93 19.4328 L1222.57 19.4328 L1232.7 44.7799 L1242.83 19.4328 L1248.47 19.4328 L1234.23 54.8492 Z" fill="#000000" fill-rule="nonzero" fill-opacity="1" /><path clip-path="url(#clip390)" d="M1287.45 6.87496 Q1283.57 13.53 1281.69 20.0404 Q1279.81 26.5508 1279.81 33.2348 Q1279.81 39.9188 1281.69 46.487 Q1283.6 53.0263 1287.45 59.6525 L1282.82 59.6525 Q1278.48 52.8527 1276.31 46.2845 Q1274.16 39.7162 1274.16 33.2348 Q1274.16 26.7823 1276.31 20.2429 Q1278.45 13.7036 1282.82 6.87496 L1287.45 6.87496 Z" fill="#000000" fill-rule="nonzero" fill-opacity="1" /><path clip-path="url(#clip390)" d="M1314.18 6.81709 L1314.18 11.2442 L1309.09 11.2442 Q1306.22 11.2442 1305.1 12.4016 Q1304 13.559 1304 16.5682 L1304 19.4328 L1312.76 19.4328 L1312.76 23.5705 L1304 23.5705 L1304 51.84 L1298.64 51.84 L1298.64 23.5705 L1293.55 23.5705 L1293.55 19.4328 L1298.64 19.4328 L1298.64 17.1758 Q1298.64 11.765 1301.16 9.30551 Q1303.68 6.81709 1309.15 6.81709 L1314.18 6.81709 Z" fill="#000000" fill-rule="nonzero" fill-opacity="1" /><path clip-path="url(#clip390)" d="M1318.64 19.4328 L1323.96 19.4328 L1323.96 51.84 L1318.64 51.84 L1318.64 19.4328 M1318.64 6.81709 L1323.96 6.81709 L1323.96 13.559 L1318.64 13.559 L1318.64 6.81709 Z" fill="#000000" fill-rule="nonzero" fill-opacity="1" /><path clip-path="url(#clip390)" d="M1353.88 24.4096 Q1352.98 23.8888 1351.91 23.6573 Q1350.87 23.3969 1349.6 23.3969 Q1345.08 23.3969 1342.65 26.3482 Q1340.25 29.2707 1340.25 34.7683 L1340.25 51.84 L1334.9 51.84 L1334.9 19.4328 L1340.25 19.4328 L1340.25 24.4675 Q1341.93 21.5161 1344.62 20.0983 Q1347.31 18.6515 1351.16 18.6515 Q1351.71 18.6515 1352.38 18.7383 Q1353.04 18.7962 1353.85 18.9409 L1353.88 24.4096 Z" fill="#000000" fill-rule="nonzero" fill-opacity="1" /><path clip-path="url(#clip390)" d="M1380.12 20.3876 L1380.12 25.4223 Q1377.87 24.2649 1375.44 23.6862 Q1373.01 23.1075 1370.4 23.1075 Q1366.44 23.1075 1364.44 24.3228 Q1362.47 25.5381 1362.47 27.9686 Q1362.47 29.8204 1363.89 30.891 Q1365.31 31.9327 1369.59 32.8876 L1371.42 33.2926 Q1377.09 34.5079 1379.46 36.7359 Q1381.86 38.935 1381.86 42.8991 Q1381.86 47.4129 1378.27 50.046 Q1374.71 52.6791 1368.46 52.6791 Q1365.86 52.6791 1363.02 52.1583 Q1360.22 51.6664 1357.09 50.6537 L1357.09 45.156 Q1360.04 46.6896 1362.91 47.4708 Q1365.77 48.2231 1368.58 48.2231 Q1372.34 48.2231 1374.37 46.95 Q1376.39 45.6479 1376.39 43.3042 Q1376.39 41.134 1374.92 39.9766 Q1373.47 38.8192 1368.52 37.7486 L1366.67 37.3146 Q1361.72 36.273 1359.52 34.1318 Q1357.32 31.9616 1357.32 28.2001 Q1357.32 23.6283 1360.56 21.1399 Q1363.81 18.6515 1369.77 18.6515 Q1372.72 18.6515 1375.32 19.0855 Q1377.93 19.5196 1380.12 20.3876 Z" fill="#000000" fill-rule="nonzero" fill-opacity="1" /><path clip-path="url(#clip390)" d="M1395.61 10.2314 L1395.61 19.4328 L1406.57 19.4328 L1406.57 23.5705 L1395.61 23.5705 L1395.61 41.163 Q1395.61 45.1271 1396.68 46.2555 Q1397.78 47.384 1401.1 47.384 L1406.57 47.384 L1406.57 51.84 L1401.1 51.84 Q1394.94 51.84 1392.6 49.5541 Q1390.25 47.2393 1390.25 41.163 L1390.25 23.5705 L1386.35 23.5705 L1386.35 19.4328 L1390.25 19.4328 L1390.25 10.2314 L1395.61 10.2314 Z" fill="#000000" fill-rule="nonzero" fill-opacity="1" /><path clip-path="url(#clip390)" d="M1433.22 8.64 L1456.17 8.64 L1456.17 13.559 L1438.57 13.559 L1438.57 24.1492 Q1439.85 23.7152 1441.12 23.5126 Q1442.39 23.2811 1443.67 23.2811 Q1450.9 23.2811 1455.12 27.2452 Q1459.35 31.2093 1459.35 37.9801 Q1459.35 44.9535 1455.01 48.8308 Q1450.67 52.6791 1442.77 52.6791 Q1440.05 52.6791 1437.21 52.2162 Q1434.41 51.7532 1431.4 50.8273 L1431.4 44.9535 Q1434 46.3713 1436.78 47.0657 Q1439.56 47.7602 1442.65 47.7602 Q1447.66 47.7602 1450.58 45.1271 Q1453.5 42.494 1453.5 37.9801 Q1453.5 33.4663 1450.58 30.8332 Q1447.66 28.2001 1442.65 28.2001 Q1440.31 28.2001 1437.97 28.7209 Q1435.65 29.2417 1433.22 30.3413 L1433.22 8.64 Z" fill="#000000" fill-rule="nonzero" fill-opacity="1" /><path clip-path="url(#clip390)" d="M1483.36 12.4884 Q1478.85 12.4884 1476.57 16.9444 Q1474.31 21.3714 1474.31 30.2834 Q1474.31 39.1665 1476.57 43.6225 Q1478.85 48.0495 1483.36 48.0495 Q1487.91 48.0495 1490.16 43.6225 Q1492.45 39.1665 1492.45 30.2834 Q1492.45 21.3714 1490.16 16.9444 Q1487.91 12.4884 1483.36 12.4884 M1483.36 7.85875 Q1490.63 7.85875 1494.45 13.6168 Q1498.3 19.346 1498.3 30.2834 Q1498.3 41.1919 1494.45 46.95 Q1490.63 52.6791 1483.36 52.6791 Q1476.1 52.6791 1472.25 46.95 Q1468.43 41.1919 1468.43 30.2834 Q1468.43 19.346 1472.25 13.6168 Q1476.1 7.85875 1483.36 7.85875 Z" fill="#000000" fill-rule="nonzero" fill-opacity="1" /><path clip-path="url(#clip390)" d="M1521.07 12.4884 Q1516.55 12.4884 1514.27 16.9444 Q1512.01 21.3714 1512.01 30.2834 Q1512.01 39.1665 1514.27 43.6225 Q1516.55 48.0495 1521.07 48.0495 Q1525.61 48.0495 1527.87 43.6225 Q1530.15 39.1665 1530.15 30.2834 Q1530.15 21.3714 1527.87 16.9444 Q1525.61 12.4884 1521.07 12.4884 M1521.07 7.85875 Q1528.33 7.85875 1532.15 13.6168 Q1536 19.346 1536 30.2834 Q1536 41.1919 1532.15 46.95 Q1528.33 52.6791 1521.07 52.6791 Q1513.8 52.6791 1509.96 46.95 Q1506.14 41.1919 1506.14 30.2834 Q1506.14 19.346 1509.96 13.6168 Q1513.8 7.85875 1521.07 7.85875 Z" fill="#000000" fill-rule="nonzero" fill-opacity="1" /><path clip-path="url(#clip390)" d="M1585.01 20.3876 L1585.01 25.4223 Q1582.76 24.2649 1580.33 23.6862 Q1577.9 23.1075 1575.29 23.1075 Q1571.33 23.1075 1569.33 24.3228 Q1567.36 25.5381 1567.36 27.9686 Q1567.36 29.8204 1568.78 30.891 Q1570.2 31.9327 1574.48 32.8876 L1576.3 33.2926 Q1581.98 34.5079 1584.35 36.7359 Q1586.75 38.935 1586.75 42.8991 Q1586.75 47.4129 1583.16 50.046 Q1579.6 52.6791 1573.35 52.6791 Q1570.75 52.6791 1567.91 52.1583 Q1565.11 51.6664 1561.98 50.6537 L1561.98 45.156 Q1564.93 46.6896 1567.8 47.4708 Q1570.66 48.2231 1573.47 48.2231 Q1577.23 48.2231 1579.26 46.95 Q1581.28 45.6479 1581.28 43.3042 Q1581.28 41.134 1579.81 39.9766 Q1578.36 38.8192 1573.41 37.7486 L1571.56 37.3146 Q1566.61 36.273 1564.41 34.1318 Q1562.21 31.9616 1562.21 28.2001 Q1562.21 23.6283 1565.45 21.1399 Q1568.69 18.6515 1574.66 18.6515 Q1577.61 18.6515 1580.21 19.0855 Q1582.81 19.5196 1585.01 20.3876 Z" fill="#000000" fill-rule="nonzero" fill-opacity="1" /><path clip-path="url(#clip390)" d="M1600.49 10.2314 L1600.49 19.4328 L1611.46 19.4328 L1611.46 23.5705 L1600.49 23.5705 L1600.49 41.163 Q1600.49 45.1271 1601.56 46.2555 Q1602.66 47.384 1605.99 47.384 L1611.46 47.384 L1611.46 51.84 L1605.99 51.84 Q1599.83 51.84 1597.48 49.5541 Q1595.14 47.2393 1595.14 41.163 L1595.14 23.5705 L1591.23 23.5705 L1591.23 19.4328 L1595.14 19.4328 L1595.14 10.2314 L1600.49 10.2314 Z" fill="#000000" fill-rule="nonzero" fill-opacity="1" /><path clip-path="url(#clip390)" d="M1646.18 34.3054 L1646.18 36.9095 L1621.7 36.9095 Q1622.05 42.4072 1625 45.3007 Q1627.98 48.1653 1633.28 48.1653 Q1636.34 48.1653 1639.21 47.4129 Q1642.1 46.6606 1644.94 45.156 L1644.94 50.1907 Q1642.07 51.406 1639.06 52.0425 Q1636.06 52.6791 1632.96 52.6791 Q1625.2 52.6791 1620.66 48.1653 Q1616.15 43.6514 1616.15 35.9547 Q1616.15 27.9975 1620.43 23.339 Q1624.74 18.6515 1632.03 18.6515 Q1638.57 18.6515 1642.36 22.876 Q1646.18 27.0716 1646.18 34.3054 M1640.86 32.7429 Q1640.8 28.3737 1638.4 25.7695 Q1636.03 23.1654 1632.09 23.1654 Q1627.64 23.1654 1624.94 25.6827 Q1622.28 28.2001 1621.88 32.7718 L1640.86 32.7429 Z" fill="#000000" fill-rule="nonzero" fill-opacity="1" /><path clip-path="url(#clip390)" d="M1660.07 46.9789 L1660.07 64.1663 L1654.72 64.1663 L1654.72 19.4328 L1660.07 19.4328 L1660.07 24.3517 Q1661.75 21.4582 1664.3 20.0693 Q1666.87 18.6515 1670.43 18.6515 Q1676.33 18.6515 1680.01 23.339 Q1683.71 28.0265 1683.71 35.6653 Q1683.71 43.3042 1680.01 47.9916 Q1676.33 52.6791 1670.43 52.6791 Q1666.87 52.6791 1664.3 51.2902 Q1661.75 49.8724 1660.07 46.9789 M1678.18 35.6653 Q1678.18 29.7915 1675.75 26.464 Q1673.35 23.1075 1669.13 23.1075 Q1664.9 23.1075 1662.47 26.464 Q1660.07 29.7915 1660.07 35.6653 Q1660.07 41.5391 1662.47 44.8956 Q1664.9 48.2231 1669.13 48.2231 Q1673.35 48.2231 1675.75 44.8956 Q1678.18 41.5391 1678.18 35.6653 Z" fill="#000000" fill-rule="nonzero" fill-opacity="1" /><path clip-path="url(#clip390)" d="M1713.2 20.3876 L1713.2 25.4223 Q1710.94 24.2649 1708.51 23.6862 Q1706.08 23.1075 1703.47 23.1075 Q1699.51 23.1075 1697.51 24.3228 Q1695.55 25.5381 1695.55 27.9686 Q1695.55 29.8204 1696.96 30.891 Q1698.38 31.9327 1702.66 32.8876 L1704.49 33.2926 Q1710.16 34.5079 1712.53 36.7359 Q1714.93 38.935 1714.93 42.8991 Q1714.93 47.4129 1711.34 50.046 Q1707.79 52.6791 1701.54 52.6791 Q1698.93 52.6791 1696.1 52.1583 Q1693.29 51.6664 1690.16 50.6537 L1690.16 45.156 Q1693.12 46.6896 1695.98 47.4708 Q1698.84 48.2231 1701.65 48.2231 Q1705.41 48.2231 1707.44 46.95 Q1709.46 45.6479 1709.46 43.3042 Q1709.46 41.134 1707.99 39.9766 Q1706.54 38.8192 1701.59 37.7486 L1699.74 37.3146 Q1694.79 36.273 1692.59 34.1318 Q1690.4 31.9616 1690.4 28.2001 Q1690.4 23.6283 1693.64 21.1399 Q1696.88 18.6515 1702.84 18.6515 Q1705.79 18.6515 1708.39 19.0855 Q1711 19.5196 1713.2 20.3876 Z" fill="#000000" fill-rule="nonzero" fill-opacity="1" /><path clip-path="url(#clip390)" d="M1722.57 6.87496 L1727.2 6.87496 Q1731.54 13.7036 1733.68 20.2429 Q1735.85 26.7823 1735.85 33.2348 Q1735.85 39.7162 1733.68 46.2845 Q1731.54 52.8527 1727.2 59.6525 L1722.57 59.6525 Q1726.42 53.0263 1728.3 46.487 Q1730.21 39.9188 1730.21 33.2348 Q1730.21 26.5508 1728.3 20.0404 Q1726.42 13.53 1722.57 6.87496 Z" fill="#000000" fill-rule="nonzero" fill-opacity="1" /><path clip-path="url(#clip390)" d="M1762.67 33.5241 L1816.15 33.5241 L1816.15 37.6908 L1762.67 37.6908 L1762.67 33.5241 Z" fill="#000000" fill-rule="nonzero" fill-opacity="1" /><path clip-path="url(#clip390)" d="M1843.69 8.64 L1849.54 8.64 L1849.54 26.898 L1868.92 8.64 L1876.45 8.64 L1855.01 28.7788 L1877.98 51.84 L1870.28 51.84 L1849.54 31.0357 L1849.54 51.84 L1843.69 51.84 L1843.69 8.64 Z" fill="#000000" fill-rule="nonzero" fill-opacity="1" /><path clip-path="url(#clip390)" d="M1883.02 24.9304 L1920.11 24.9304 L1920.11 29.7915 L1883.02 29.7915 L1883.02 24.9304 M1883.02 36.7359 L1920.11 36.7359 L1920.11 41.6549 L1883.02 41.6549 L1883.02 36.7359 Z" fill="#000000" fill-rule="nonzero" fill-opacity="1" /><path clip-path="url(#clip390)" d="M1933.74 46.921 L1943.29 46.921 L1943.29 13.964 L1932.9 16.0474 L1932.9 10.7233 L1943.23 8.64 L1949.07 8.64 L1949.07 46.921 L1958.62 46.921 L1958.62 51.84 L1933.74 51.84 L1933.74 46.921 Z" fill="#000000" fill-rule="nonzero" fill-opacity="1" /><path clip-path="url(#clip390)" d="M1975.46 46.921 L1995.86 46.921 L1995.86 51.84 L1968.43 51.84 L1968.43 46.921 Q1971.76 43.4778 1977.49 37.6908 Q1983.25 31.8748 1984.72 30.1966 Q1987.53 27.0427 1988.63 24.8726 Q1989.76 22.6735 1989.76 20.5612 Q1989.76 17.118 1987.33 14.9478 Q1984.92 12.7777 1981.05 12.7777 Q1978.3 12.7777 1975.23 13.7326 Q1972.19 14.6874 1968.72 16.6261 L1968.72 10.7233 Q1972.25 9.30551 1975.32 8.58213 Q1978.39 7.85875 1980.93 7.85875 Q1987.64 7.85875 1991.64 11.2152 Q1995.63 14.5717 1995.63 20.1851 Q1995.63 22.8471 1994.62 25.2487 Q1993.63 27.6214 1991 30.8621 Q1990.28 31.7012 1986.4 35.7232 Q1982.52 39.7162 1975.46 46.921 Z" fill="#000000" fill-rule="nonzero" fill-opacity="1" /><polyline clip-path="url(#clip392)" style="stroke:#ff0000; stroke-linecap:round; stroke-linejoin:round; stroke-width:4; stroke-opacity:0.6; fill:none" points="520.89,679.395 524.301,604.094 527.712,638.821 531.122,647.758 534.533,633.979 537.944,717.962 541.355,630.686 544.766,544.536 548.177,663.767 551.588,669.609 554.999,651.123 558.41,626.74 561.821,749.842 565.232,828.414 568.643,786.507 572.054,619.169 575.465,719.973 578.876,568.182 582.287,701.585 585.698,848.815 589.109,682.418 592.52,665.084 595.931,520.422 599.341,502.976 602.752,572.915 606.163,533.391 609.574,590.367 612.985,634.075 616.396,560.365 619.807,609.755 623.218,667.155 626.629,664.92 630.04,606.835 633.451,585.077 636.862,675.544 640.273,643.96 643.684,629.425 647.095,577.175 650.506,750.689 653.917,476.778 657.328,620.785 660.739,613.275 664.15,657.524 667.56,673.828 670.971,657.744 674.382,708.551 677.793,703.482 681.204,717.275 684.615,565.636 688.026,574.678 691.437,662.262 694.848,648.855 698.259,653.057 701.67,761.069 705.081,602.123 708.492,651.693 711.903,755.343 715.314,579.222 718.725,560.689 722.136,585.116 725.547,594.529 728.958,646.898 732.369,714.007 735.779,840.213 739.19,669.084 742.601,552.973 746.012,729.502 749.423,838.394 752.834,629.964 756.245,603.77 759.656,492.563 763.067,587.811 766.478,612.428 769.889,575.413 773.3,667.6 776.711,639.995 780.122,732.871 783.533,652.805 786.944,570.036 790.355,630.502 793.766,624.127 797.177,644.113 800.588,681.821 803.999,675.811 807.409,671.373 810.82,585.314 814.231,692.791 817.642,529.261 821.053,597.143 824.464,689.014 827.875,786.606 831.286,647.089 834.697,584.046 838.108,683.052 841.519,595.715 844.93,590.532 848.341,607.088 851.752,573.36 855.163,636.772 858.574,621.996 861.985,613.744 865.396,633.173 868.807,649.709 872.218,630.766 875.628,587.092 879.039,561.247 882.45,625.908 885.861,662.005 889.272,674.183 892.683,714.171 896.094,654.654 899.505,632.193 902.916,627.043 906.327,601.495 909.738,583.603 913.149,675.636 916.56,651.533 919.971,669.13 923.382,676.231 926.793,656.674 930.204,620.801 933.615,624.959 937.026,572.391 940.437,636.485 943.847,595.014 947.258,679.54 950.669,725.951 954.08,621.079 957.491,701.749 960.902,630.491 964.313,570.495 967.724,664.746 971.135,610.09 974.546,720.98 977.957,635.271 981.368,645.035 984.779,579.906 988.19,620.826 991.601,637.447 995.012,711.939 998.423,671.685 1001.83,635.174 1005.24,694.384 1008.66,821.805 1012.07,765.569 1015.48,611.287 1018.89,691.409 1022.3,679.928 1025.71,678.549 1029.12,615.439 1032.53,523.386 1035.94,684.963 1039.35,583.072 1042.77,590.827 1046.18,641.441 1049.59,546.941 1053,579.427 1056.41,617.465 1059.82,600.156 1063.23,658.458 1066.64,596.313 1070.05,623.919 1073.46,662.354 1076.87,670.482 1080.29,616.99 1083.7,645.452 1087.11,632.976 1090.52,655.644 1093.93,666.871 1097.34,632.348 1100.75,704.411 1104.16,665.793 1107.57,632.794 1110.98,676.789 1114.39,682.62 1117.81,586.281 1121.22,591.798 1124.63,599.412 1128.04,682.513 1131.45,758.76 1134.86,701.148 1138.27,637.061 1141.68,744.98 1145.09,645.506 1148.5,658.069 1151.92,640.43 1155.33,793.136 1158.74,726.295 1162.15,506.144 1165.56,621.952 1168.97,772.806 1172.38,653.892 1175.79,674.685 1179.2,801.15 1182.61,821.796 1186.02,726.536 1189.44,873.342 1192.85,612.562 1196.26,448.706 1199.67,584.738 1203.08,412.483 1206.49,592.703 1209.9,574.027 1213.31,595.874 1216.72,641.038 1220.13,540.313 1223.55,616.062 1226.96,607.721 1230.37,483.886 1233.78,611.644 1237.19,701.992 1240.6,582.218 1244.01,607.865 1247.42,618.3 1250.83,617.682 1254.24,630.764 1257.65,654.321 1261.07,638.051 1264.48,645.725 1267.89,644.225 1271.3,581.081 1274.71,670.288 1278.12,630.547 1281.53,559.717 1284.94,621.423 1288.35,641.423 1291.76,640.143 1295.18,651.689 1298.59,734.685 1302,606.806 1305.41,590.379 1308.82,654.876 1312.23,621.29 1315.64,710.635 1319.05,754.368 1322.46,711.467 1325.87,619.564 1329.28,808.432 1332.7,774.528 1336.11,701.993 1339.52,608.32 1342.93,339.837 1346.34,572.617 1349.75,605.298 1353.16,595.568 1356.57,635.295 1359.98,620.491 1363.39,639.921 1366.81,693.707 1370.22,717.331 1373.63,743.305 1377.04,819.283 1380.45,778.064 1383.86,576.569 1387.27,439.928 1390.68,677.45 1394.09,763.134 1397.5,652.958 1400.91,813.036 1404.33,666.465 1407.74,630.469 1411.15,573.804 1414.56,578.711 1417.97,516.377 1421.38,599.806 1424.79,681.289 1428.2,767.904 1431.61,718.998 1435.02,756.441 1438.44,635.232 1441.85,691.332 1445.26,403.394 1448.67,613.124 1452.08,566.236 1455.49,617.308 1458.9,723.035 1462.31,592.934 1465.72,594.768 1469.13,545.527 1472.54,588.13 1475.96,624.01 1479.37,647.07 1482.78,644.261 1486.19,628.244 1489.6,608.699 1493.01,612.647 1496.42,641.98 1499.83,670.748 1503.24,666.879 1506.65,618.066 1510.07,679.281 1513.48,707.155 1516.89,630.529 1520.3,756.381 1523.71,681.499 1527.12,778.673 1530.53,724.039 1533.94,554.333 1537.35,689.24 1540.76,533.654 1544.17,640.359 1547.59,571.428 1551,610.691 1554.41,620.244 1557.82,627.453 1561.23,709.894 1564.64,788.304 1568.05,772.762 1571.46,634.083 1574.87,498.76 1578.28,701.939 1581.7,751.818 1585.11,593.486 1588.52,584.744 1591.93,611.817 1595.34,659.209 1598.75,624.473 1602.16,560.04 1605.57,642.648 1608.98,694.156 1612.39,562.07 1615.8,659.775 1619.22,771.428 1622.63,565.503 1626.04,639.752 1629.45,636.083 1632.86,588.009 1636.27,619.51 1639.68,661.992 1643.09,686.785 1646.5,658.068 1649.91,737.616 1653.33,598.167 1656.74,559.831 1660.15,751.076 1663.56,753.522 1666.97,626.138 1670.38,503.526 1673.79,630.916 1677.2,732.252 1680.61,623.796 1684.02,568.643 1687.43,606.062 1690.85,615.914 1694.26,632.608 1697.67,655.039 1701.08,631.039 1704.49,657.727 1707.9,765.706 1711.31,595.712 1714.72,644.651 1718.13,690.376 1721.54,649.253 1724.96,665.25 1728.37,609.777 1731.78,725.986 1735.19,700.519 1738.6,703.08 1742.01,681.602 1745.42,523.14 1748.83,583.413 1752.24,722.485 1755.65,739.659 1759.06,606.326 1762.48,596.714 1765.89,539.75 1769.3,722.015 1772.71,595.582 1776.12,649.192 1779.53,700.472 1782.94,693.622 1786.35,681.66 1789.76,817.163 1793.17,712.709 1796.59,590.424 1800,629.215 1803.41,704.401 1806.82,667.846 1810.23,698.665 1813.64,629.84 1817.05,563.798 1820.46,519.089 1823.87,573.017 1827.28,637.074 1830.69,581.827 1834.11,624.534 1837.52,618.287 1840.93,696.899 1844.34,687.951 1847.75,695.048 1851.16,766.527 1854.57,761.87 1857.98,560.039 1861.39,524.854 1864.8,638.839 1868.21,635.827 1871.63,715.623 1875.04,656.084 1878.45,593.544 1881.86,761.329 1885.27,706.496 1888.68,497.098 1892.09,731.055 1895.5,739.766 1898.91,558.278 1902.32,637.595 1905.74,609.67 1909.15,622.811 1912.56,743.114 1915.97,839.778 1919.38,977.22 1922.79,1209.56 1926.2,652.319 1929.61,703.334 1933.02,214.83 1936.43,563.916 1939.84,705.182 1943.26,929.006 1946.67,645.977 1950.08,489.718 1953.49,848.03 1956.9,444.051 1960.31,614.967 1963.72,739.985 1967.13,629.24 1970.54,632.952 1973.95,539.663 1977.37,535.023 1980.78,581.095 1984.19,919.13 1987.6,646.266 1991.01,817.676 1994.42,662.265 1997.83,762.349 2001.24,545.888 2004.65,943.012 2008.06,718.536 2011.47,476.182 2014.89,615.094 2018.3,575.916 2021.71,296.718 2025.12,634.518 2028.53,596.439 2031.94,568.005 2035.35,564.524 2038.76,643.047 2042.17,679.335 2045.58,727.767 2049,567.134 2052.41,533.751 2055.82,641.743 2059.23,636.64 2062.64,675.316 2066.05,559.426 2069.46,468.684 2072.87,645.527 2076.28,691.982 2079.69,571.768 2083.1,578.586 2086.52,658.678 2089.93,588.185 2093.34,576.681 2096.75,666.352 2100.16,677.188 2103.57,683.13 2106.98,725.226 2110.39,666.811 2113.8,635.957 2117.21,782.362 2120.63,818.876 2124.04,612.688 2127.45,531.788 2130.86,554.279 2134.27,570.313 2137.68,599.582 2141.09,656.8 2144.5,680.993 2147.91,608.597 2151.32,651.499 2154.73,674.28 2158.15,594.888 2161.56,671.235 2164.97,816.047 2168.38,568.818 2171.79,643.033 2175.2,731.186 2178.61,707.661 2182.02,645.195 2185.43,835.943 2188.84,740.456 2192.26,443.741 2195.67,550.824 2199.08,662.652 2202.49,947.914 2205.9,682.301 2209.31,539.866 2212.72,499.984 2216.13,609.28 2219.54,710.871 2222.95,517.745 "/>
<polyline clip-path="url(#clip392)" style="stroke:#000080; stroke-linecap:round; stroke-linejoin:round; stroke-width:4; stroke-opacity:0.6; fill:none" points="520.89,658.877 524.301,601.211 527.712,629.996 531.122,632.851 534.533,579.816 537.944,642.334 541.355,596.651 544.766,648.399 548.177,636.28 551.588,626.108 554.999,642.265 558.41,642.073 561.821,673.066 565.232,562.046 568.643,648.078 572.054,650.293 575.465,643.213 578.876,629.07 582.287,801.099 585.698,675.19 589.109,625.846 592.52,684.47 595.931,571.316 599.341,657.269 602.752,682.406 606.163,625.963 609.574,676.585 612.985,691.219 616.396,735.388 619.807,768.291 623.218,772.883 626.629,810.799 630.04,711.005 633.451,806.444 636.862,929.146 640.273,517.348 643.684,1125.72 647.095,777.946 650.506,964.173 653.917,817.86 657.328,712.878 660.739,419.566 664.15,431.584 667.56,870.81 670.971,929.204 674.382,641.417 677.793,773.085 681.204,736.349 684.615,723.695 688.026,736.032 691.437,789.069 694.848,980.448 698.259,763.266 701.67,783.333 705.081,850.589 708.492,677.964 711.903,546.684 715.314,629.519 718.725,615.744 722.136,597.104 725.547,601.535 728.958,702.662 732.369,935.823 735.779,816.732 739.19,649.406 742.601,564.331 746.012,639.183 749.423,613.311 752.834,707.284 756.245,714.514 759.656,570.153 763.067,644.062 766.478,679.545 769.889,582.365 773.3,554.957 776.711,622.125 780.122,651.518 783.533,698.556 786.944,639.172 790.355,663.653 793.766,651.624 797.177,597.662 800.588,599.356 803.999,656.175 807.409,630.431 810.82,572.998 814.231,654.095 817.642,648.024 821.053,749.318 824.464,673.68 827.875,598.325 831.286,613.787 834.697,808.99 838.108,781.284 841.519,744.978 844.93,408.585 848.341,773.76 851.752,802.183 855.163,601.819 858.574,824.936 861.985,503.914 865.396,707.554 868.807,665.846 872.218,674.535 875.628,754.3 879.039,738.526 882.45,565.662 885.861,543.938 889.272,529.331 892.683,619.621 896.094,623.683 899.505,668.521 902.916,678.33 906.327,611.678 909.738,626.162 913.149,682.258 916.56,595.551 919.971,617.582 923.382,600.243 926.793,560.78 930.204,638.814 933.615,590.359 937.026,660.507 940.437,669.101 943.847,684.426 947.258,573.918 950.669,636.474 954.08,598.846 957.491,634.029 960.902,646.619 964.313,696.514 967.724,734.114 971.135,666.059 974.546,629.098 977.957,610.452 981.368,572.349 984.779,700.336 988.19,667.662 991.601,499.236 995.012,518.944 998.423,579.103 1001.83,656.951 1005.24,553.208 1008.66,627.678 1012.07,654.214 1015.48,737.334 1018.89,622.306 1022.3,475.999 1025.71,532.257 1029.12,661.967 1032.53,627.699 1035.94,580.426 1039.35,611.985 1042.77,652.109 1046.18,628.914 1049.59,643.734 1053,688.697 1056.41,583.436 1059.82,694.946 1063.23,798.354 1066.64,598.225 1070.05,593.515 1073.46,700.206 1076.87,771.197 1080.29,700.854 1083.7,602.033 1087.11,670.621 1090.52,659.391 1093.93,703.136 1097.34,781.845 1100.75,723.229 1104.16,627.006 1107.57,648.141 1110.98,639.437 1114.39,656.733 1117.81,693.712 1121.22,749.665 1124.63,509.583 1128.04,586.964 1131.45,654.484 1134.86,662.204 1138.27,668.436 1141.68,680.493 1145.09,737.767 1148.5,532.429 1151.92,535.872 1155.33,543.433 1158.74,607.631 1162.15,645.211 1165.56,686.372 1168.97,593.085 1172.38,636.223 1175.79,569.43 1179.2,527.602 1182.61,599.077 1186.02,658.857 1189.44,628.357 1192.85,745.35 1196.26,647.447 1199.67,711.232 1203.08,673.54 1206.49,785.328 1209.9,746.147 1213.31,593.53 1216.72,927.079 1220.13,431.573 1223.55,620.194 1226.96,511.153 1230.37,507.617 1233.78,632.558 1237.19,571.12 1240.6,765.57 1244.01,708.279 1247.42,819.878 1250.83,673.641 1254.24,538.244 1257.65,591.379 1261.07,714.01 1264.48,552.343 1267.89,662.938 1271.3,583.327 1274.71,600.065 1278.12,609.269 1281.53,645.329 1284.94,642.097 1288.35,569.574 1291.76,644.482 1295.18,547.977 1298.59,608.493 1302,625.511 1305.41,700.312 1308.82,661.63 1312.23,654.765 1315.64,675.572 1319.05,660.179 1322.46,656.345 1325.87,562.59 1329.28,593.461 1332.7,674.844 1336.11,688.918 1339.52,628.144 1342.93,591.906 1346.34,604.909 1349.75,665.865 1353.16,613.709 1356.57,586.475 1359.98,686.208 1363.39,609.749 1366.81,640.818 1370.22,697.38 1373.63,685.265 1377.04,649.803 1380.45,612.158 1383.86,597.448 1387.27,645.884 1390.68,656.192 1394.09,631.096 1397.5,602.379 1400.91,652.926 1404.33,608.63 1407.74,646.841 1411.15,655.679 1414.56,694.647 1417.97,745.006 1421.38,698.058 1424.79,488.355 1428.2,576.375 1431.61,629.895 1435.02,563.143 1438.44,599.999 1441.85,647.602 1445.26,642.749 1448.67,642.987 1452.08,646.463 1455.49,725.412 1458.9,736.296 1462.31,478.636 1465.72,550.087 1469.13,634.826 1472.54,705.567 1475.96,768.701 1479.37,818.094 1482.78,593.939 1486.19,562.108 1489.6,499.076 1493.01,684.364 1496.42,710.827 1499.83,624.763 1503.24,648.731 1506.65,751.75 1510.07,496.971 1513.48,519.451 1516.89,596.185 1520.3,786.781 1523.71,656.947 1527.12,537.042 1530.53,785.606 1533.94,653.715 1537.35,579.773 1540.76,538.426 1544.17,787.677 1547.59,754.354 1551,823.952 1554.41,796.65 1557.82,482.88 1561.23,595.722 1564.64,738.846 1568.05,545.403 1571.46,346.81 1574.87,837.701 1578.28,931.688 1581.7,1035.15 1585.11,283.66 1588.52,557.922 1591.93,559.93 1595.34,713.68 1598.75,404.34 1602.16,933.665 1605.57,572.346 1608.98,640.979 1612.39,555.901 1615.8,1060.28 1619.22,1211.41 1622.63,1052.75 1626.04,566.751 1629.45,636.28 1632.86,464.972 1636.27,739.498 1639.68,686.559 1643.09,938.418 1646.5,721.942 1649.91,506.975 1653.33,744.208 1656.74,856.076 1660.15,754.627 1663.56,677.423 1666.97,750.626 1670.38,573.021 1673.79,640.129 1677.2,556.581 1680.61,477.447 1684.02,908.62 1687.43,750.218 1690.85,591.737 1694.26,557.621 1697.67,546.379 1701.08,657.694 1704.49,650.568 1707.9,685.026 1711.31,580.048 1714.72,601.26 1718.13,657.1 1721.54,676.32 1724.96,594.748 1728.37,575.035 1731.78,610.969 1735.19,596.165 1738.6,662.021 1742.01,756.114 1745.42,662.907 1748.83,566.704 1752.24,536.817 1755.65,628.976 1759.06,416.226 1762.48,613.138 1765.89,577.651 1769.3,806.192 1772.71,845.05 1776.12,585.532 1779.53,594.049 1782.94,752.959 1786.35,487.18 1789.76,578.889 1793.17,705.936 1796.59,513.757 1800,657.454 1803.41,525.224 1806.82,831.653 1810.23,652.955 1813.64,604.976 1817.05,753.547 1820.46,538.147 1823.87,661.786 1827.28,647.272 1830.69,766.141 1834.11,661.483 1837.52,761.677 1840.93,641.638 1844.34,548.163 1847.75,781.337 1851.16,783.793 1854.57,654.587 1857.98,540.899 1861.39,658.07 1864.8,661.557 1868.21,862.851 1871.63,555.006 1875.04,735.77 1878.45,643.883 1881.86,876.824 1885.27,681.646 1888.68,658.361 1892.09,739.519 1895.5,580.846 1898.91,698.966 1902.32,335.221 1905.74,456.678 1909.15,774.699 1912.56,794.113 1915.97,520.62 1919.38,631.769 1922.79,600.51 1926.2,710.356 1929.61,835.174 1933.02,494.27 1936.43,449.352 1939.84,663.609 1943.26,586.997 1946.67,675.944 1950.08,612.248 1953.49,610.662 1956.9,638.691 1960.31,663.183 1963.72,628.389 1967.13,689.259 1970.54,673.656 1973.95,648.831 1977.37,641.722 1980.78,648.863 1984.19,656.09 1987.6,626.309 1991.01,620.597 1994.42,631.741 1997.83,611.55 2001.24,598.007 2004.65,778.296 2008.06,674.98 2011.47,664.837 2014.89,582.13 2018.3,635.75 2021.71,679.744 2025.12,694.543 2028.53,556.522 2031.94,631.239 2035.35,551.499 2038.76,628.562 2042.17,683.486 2045.58,597.057 2049,691.886 2052.41,556.539 2055.82,606.316 2059.23,600.495 2062.64,704.758 2066.05,648.66 2069.46,634.512 2072.87,622.245 2076.28,605.735 2079.69,618.199 2083.1,601.47 2086.52,655.337 2089.93,640.746 2093.34,489.412 2096.75,552.398 2100.16,630.633 2103.57,643.407 2106.98,642.476 2110.39,645.71 2113.8,759.641 2117.21,534.555 2120.63,563.787 2124.04,637.153 2127.45,700.743 2130.86,530.42 2134.27,649.232 2137.68,599.088 2141.09,642.792 2144.5,698.302 2147.91,627.259 2151.32,612.512 2154.73,648.912 2158.15,694.762 2161.56,716.385 2164.97,595.76 2168.38,675.519 2171.79,682.836 2175.2,673.462 2178.61,687.66 2182.02,654.362 2185.43,583.841 2188.84,622.707 2192.26,661.519 2195.67,631.72 2199.08,688.38 2202.49,832.864 2205.9,600.168 2209.31,609.889 2212.72,674.03 2216.13,764.588 2219.54,707.171 2222.95,633.429 "/>
<path clip-path="url(#clip390)" d="M1573.1 1206.1 L2213.88 1206.1 L2213.88 1031.14 L1573.1 1031.14  Z" fill="#ffffff" fill-rule="evenodd" fill-opacity="1"/>
<polyline clip-path="url(#clip390)" style="stroke:#000000; stroke-linecap:round; stroke-linejoin:round; stroke-width:4; stroke-opacity:1; fill:none" points="1573.1,1206.1 2213.88,1206.1 2213.88,1031.14 1573.1,1031.14 1573.1,1206.1 "/>
<polyline clip-path="url(#clip390)" style="stroke:#ff0000; stroke-linecap:round; stroke-linejoin:round; stroke-width:4.5; stroke-opacity:0.6; fill:none" points="1593.14,1089.46 1713.42,1089.46 "/>
<path clip-path="url(#clip390)" d="M1751.49 1073.59 Q1745.76 1073.59 1742.37 1077.86 Q1739.01 1082.13 1739.01 1089.5 Q1739.01 1096.84 1742.37 1101.11 Q1745.76 1105.38 1751.49 1105.38 Q1757.22 1105.38 1760.55 1101.11 Q1763.91 1096.84 1763.91 1089.5 Q1763.91 1082.13 1760.55 1077.86 Q1757.22 1073.59 1751.49 1073.59 M1751.49 1069.32 Q1759.67 1069.32 1764.56 1074.81 Q1769.46 1080.28 1769.46 1089.5 Q1769.46 1098.69 1764.56 1104.19 Q1759.67 1109.65 1751.49 1109.65 Q1743.29 1109.65 1738.36 1104.19 Q1733.47 1098.72 1733.47 1089.5 Q1733.47 1080.28 1738.36 1074.81 Q1743.29 1069.32 1751.49 1069.32 Z" fill="#000000" fill-rule="nonzero" fill-opacity="1" /><path clip-path="url(#clip390)" d="M1798.42 1094.34 Q1798.42 1089.06 1796.23 1086.06 Q1794.07 1083.04 1790.26 1083.04 Q1786.46 1083.04 1784.27 1086.06 Q1782.11 1089.06 1782.11 1094.34 Q1782.11 1099.63 1784.27 1102.65 Q1786.46 1105.64 1790.26 1105.64 Q1794.07 1105.64 1796.23 1102.65 Q1798.42 1099.63 1798.42 1094.34 M1782.11 1084.16 Q1783.62 1081.56 1785.92 1080.31 Q1788.23 1079.03 1791.44 1079.03 Q1796.75 1079.03 1800.06 1083.25 Q1803.39 1087.47 1803.39 1094.34 Q1803.39 1101.22 1800.06 1105.44 Q1796.75 1109.65 1791.44 1109.65 Q1788.23 1109.65 1785.92 1108.4 Q1783.62 1107.13 1782.11 1104.52 L1782.11 1108.9 L1777.3 1108.9 L1777.3 1068.38 L1782.11 1068.38 L1782.11 1084.16 Z" fill="#000000" fill-rule="nonzero" fill-opacity="1" /><path clip-path="url(#clip390)" d="M1829.93 1080.59 L1829.93 1085.12 Q1827.89 1084.08 1825.71 1083.56 Q1823.52 1083.04 1821.18 1083.04 Q1817.61 1083.04 1815.81 1084.13 Q1814.04 1085.23 1814.04 1087.41 Q1814.04 1089.08 1815.32 1090.04 Q1816.59 1090.98 1820.45 1091.84 L1822.09 1092.21 Q1827.19 1093.3 1829.33 1095.31 Q1831.49 1097.28 1831.49 1100.85 Q1831.49 1104.91 1828.26 1107.28 Q1825.06 1109.65 1819.43 1109.65 Q1817.09 1109.65 1814.53 1109.19 Q1812.01 1108.74 1809.2 1107.83 L1809.2 1102.88 Q1811.85 1104.26 1814.43 1104.97 Q1817.01 1105.64 1819.53 1105.64 Q1822.92 1105.64 1824.74 1104.5 Q1826.57 1103.33 1826.57 1101.22 Q1826.57 1099.26 1825.24 1098.22 Q1823.94 1097.18 1819.48 1096.22 L1817.82 1095.83 Q1813.36 1094.89 1811.38 1092.96 Q1809.4 1091.01 1809.4 1087.62 Q1809.4 1083.51 1812.32 1081.27 Q1815.24 1079.03 1820.6 1079.03 Q1823.26 1079.03 1825.6 1079.42 Q1827.95 1079.81 1829.93 1080.59 Z" fill="#000000" fill-rule="nonzero" fill-opacity="1" /><path clip-path="url(#clip390)" d="M1864.07 1093.12 L1864.07 1095.46 L1842.03 1095.46 Q1842.35 1100.41 1845 1103.01 Q1847.69 1105.59 1852.45 1105.59 Q1855.21 1105.59 1857.79 1104.91 Q1860.39 1104.24 1862.95 1102.88 L1862.95 1107.41 Q1860.37 1108.51 1857.66 1109.08 Q1854.95 1109.65 1852.16 1109.65 Q1845.19 1109.65 1841.1 1105.59 Q1837.03 1101.53 1837.03 1094.6 Q1837.03 1087.44 1840.89 1083.25 Q1844.77 1079.03 1851.33 1079.03 Q1857.22 1079.03 1860.63 1082.83 Q1864.07 1086.61 1864.07 1093.12 M1859.27 1091.71 Q1859.22 1087.78 1857.06 1085.44 Q1854.93 1083.09 1851.38 1083.09 Q1847.37 1083.09 1844.95 1085.36 Q1842.56 1087.62 1842.19 1091.74 L1859.27 1091.71 Z" fill="#000000" fill-rule="nonzero" fill-opacity="1" /><path clip-path="url(#clip390)" d="M1888.83 1084.21 Q1888.02 1083.74 1887.06 1083.53 Q1886.12 1083.3 1884.98 1083.3 Q1880.91 1083.3 1878.73 1085.96 Q1876.57 1088.59 1876.57 1093.53 L1876.57 1108.9 L1871.75 1108.9 L1871.75 1079.73 L1876.57 1079.73 L1876.57 1084.26 Q1878.08 1081.61 1880.5 1080.33 Q1882.92 1079.03 1886.38 1079.03 Q1886.88 1079.03 1887.48 1079.11 Q1888.08 1079.16 1888.81 1079.29 L1888.83 1084.21 Z" fill="#000000" fill-rule="nonzero" fill-opacity="1" /><path clip-path="url(#clip390)" d="M1890.42 1079.73 L1895.5 1079.73 L1904.61 1104.21 L1913.73 1079.73 L1918.81 1079.73 L1907.87 1108.9 L1901.36 1108.9 L1890.42 1079.73 Z" fill="#000000" fill-rule="nonzero" fill-opacity="1" /><path clip-path="url(#clip390)" d="M1950.37 1093.12 L1950.37 1095.46 L1928.34 1095.46 Q1928.65 1100.41 1931.3 1103.01 Q1933.99 1105.59 1938.75 1105.59 Q1941.51 1105.59 1944.09 1104.91 Q1946.7 1104.24 1949.25 1102.88 L1949.25 1107.41 Q1946.67 1108.51 1943.96 1109.08 Q1941.25 1109.65 1938.47 1109.65 Q1931.49 1109.65 1927.4 1105.59 Q1923.34 1101.53 1923.34 1094.6 Q1923.34 1087.44 1927.19 1083.25 Q1931.07 1079.03 1937.63 1079.03 Q1943.52 1079.03 1946.93 1082.83 Q1950.37 1086.61 1950.37 1093.12 M1945.58 1091.71 Q1945.52 1087.78 1943.36 1085.44 Q1941.23 1083.09 1937.69 1083.09 Q1933.67 1083.09 1931.25 1085.36 Q1928.86 1087.62 1928.49 1091.74 L1945.58 1091.71 Z" fill="#000000" fill-rule="nonzero" fill-opacity="1" /><path clip-path="url(#clip390)" d="M1977.42 1084.16 L1977.42 1068.38 L1982.22 1068.38 L1982.22 1108.9 L1977.42 1108.9 L1977.42 1104.52 Q1975.91 1107.13 1973.6 1108.4 Q1971.3 1109.65 1968.08 1109.65 Q1962.79 1109.65 1959.46 1105.44 Q1956.15 1101.22 1956.15 1094.34 Q1956.15 1087.47 1959.46 1083.25 Q1962.79 1079.03 1968.08 1079.03 Q1971.3 1079.03 1973.6 1080.31 Q1975.91 1081.56 1977.42 1084.16 M1961.1 1094.34 Q1961.1 1099.63 1963.26 1102.65 Q1965.45 1105.64 1969.25 1105.64 Q1973.05 1105.64 1975.24 1102.65 Q1977.42 1099.63 1977.42 1094.34 Q1977.42 1089.06 1975.24 1086.06 Q1973.05 1083.04 1969.25 1083.04 Q1965.45 1083.04 1963.26 1086.06 Q1961.1 1089.06 1961.1 1094.34 Z" fill="#000000" fill-rule="nonzero" fill-opacity="1" /><polyline clip-path="url(#clip390)" style="stroke:#000080; stroke-linecap:round; stroke-linejoin:round; stroke-width:4.5; stroke-opacity:0.6; fill:none" points="1593.14,1147.78 1713.42,1147.78 "/>
<path clip-path="url(#clip390)" d="M1764.82 1131.33 L1764.82 1136.88 Q1762.17 1134.41 1759.14 1133.18 Q1756.15 1131.96 1752.76 1131.96 Q1746.1 1131.96 1742.56 1136.05 Q1739.01 1140.11 1739.01 1147.82 Q1739.01 1155.5 1742.56 1159.59 Q1746.1 1163.65 1752.76 1163.65 Q1756.15 1163.65 1759.14 1162.43 Q1762.17 1161.2 1764.82 1158.73 L1764.82 1164.22 Q1762.06 1166.1 1758.96 1167.04 Q1755.89 1167.97 1752.45 1167.97 Q1743.62 1167.97 1738.55 1162.58 Q1733.47 1157.17 1733.47 1147.82 Q1733.47 1138.44 1738.55 1133.05 Q1743.62 1127.64 1752.45 1127.64 Q1755.94 1127.64 1759.01 1128.57 Q1762.11 1129.48 1764.82 1131.33 Z" fill="#000000" fill-rule="nonzero" fill-opacity="1" /><path clip-path="url(#clip390)" d="M1772.95 1128.34 L1778.21 1128.34 L1778.21 1144.28 L1797.32 1144.28 L1797.32 1128.34 L1802.58 1128.34 L1802.58 1167.22 L1797.32 1167.22 L1797.32 1148.7 L1778.21 1148.7 L1778.21 1167.22 L1772.95 1167.22 L1772.95 1128.34 Z" fill="#000000" fill-rule="nonzero" fill-opacity="1" /><path clip-path="url(#clip390)" d="M1813.05 1128.34 L1820.89 1128.34 L1830.81 1154.8 L1840.78 1128.34 L1848.62 1128.34 L1848.62 1167.22 L1843.49 1167.22 L1843.49 1133.08 L1833.47 1159.74 L1828.18 1159.74 L1818.15 1133.08 L1818.15 1167.22 L1813.05 1167.22 L1813.05 1128.34 Z" fill="#000000" fill-rule="nonzero" fill-opacity="1" /><path clip-path="url(#clip390)" d="M1859.07 1128.34 L1866.9 1128.34 L1876.83 1154.8 L1886.8 1128.34 L1894.64 1128.34 L1894.64 1167.22 L1889.51 1167.22 L1889.51 1133.08 L1879.48 1159.74 L1874.2 1159.74 L1864.17 1133.08 L1864.17 1167.22 L1859.07 1167.22 L1859.07 1128.34 Z" fill="#000000" fill-rule="nonzero" fill-opacity="1" /><path clip-path="url(#clip390)" d="M1933.34 1126.75 Q1929.85 1132.74 1928.15 1138.6 Q1926.46 1144.46 1926.46 1150.47 Q1926.46 1156.49 1928.15 1162.4 Q1929.87 1168.29 1933.34 1174.25 L1929.17 1174.25 Q1925.26 1168.13 1923.31 1162.22 Q1921.38 1156.31 1921.38 1150.47 Q1921.38 1144.67 1923.31 1138.78 Q1925.24 1132.9 1929.17 1126.75 L1933.34 1126.75 Z" fill="#000000" fill-rule="nonzero" fill-opacity="1" /><path clip-path="url(#clip390)" d="M1947.27 1162.84 L1947.27 1178.31 L1942.45 1178.31 L1942.45 1138.05 L1947.27 1138.05 L1947.27 1142.48 Q1948.78 1139.88 1951.07 1138.63 Q1953.39 1137.35 1956.59 1137.35 Q1961.9 1137.35 1965.21 1141.57 Q1968.54 1145.79 1968.54 1152.66 Q1968.54 1159.54 1965.21 1163.76 Q1961.9 1167.97 1956.59 1167.97 Q1953.39 1167.97 1951.07 1166.72 Q1948.78 1165.45 1947.27 1162.84 M1963.57 1152.66 Q1963.57 1147.38 1961.38 1144.38 Q1959.22 1141.36 1955.42 1141.36 Q1951.62 1141.36 1949.43 1144.38 Q1947.27 1147.38 1947.27 1152.66 Q1947.27 1157.95 1949.43 1160.97 Q1951.62 1163.96 1955.42 1163.96 Q1959.22 1163.96 1961.38 1160.97 Q1963.57 1157.95 1963.57 1152.66 Z" fill="#000000" fill-rule="nonzero" fill-opacity="1" /><path clip-path="url(#clip390)" d="M1989.74 1152.56 Q1983.93 1152.56 1981.7 1153.89 Q1979.46 1155.21 1979.46 1158.42 Q1979.46 1160.97 1981.12 1162.48 Q1982.82 1163.96 1985.71 1163.96 Q1989.69 1163.96 1992.09 1161.15 Q1994.51 1158.31 1994.51 1153.63 L1994.51 1152.56 L1989.74 1152.56 M1999.3 1150.58 L1999.3 1167.22 L1994.51 1167.22 L1994.51 1162.79 Q1992.87 1165.45 1990.42 1166.72 Q1987.97 1167.97 1984.43 1167.97 Q1979.95 1167.97 1977.29 1165.47 Q1974.66 1162.95 1974.66 1158.73 Q1974.66 1153.81 1977.95 1151.31 Q1981.25 1148.81 1987.79 1148.81 L1994.51 1148.81 L1994.51 1148.34 Q1994.51 1145.03 1992.32 1143.23 Q1990.16 1141.41 1986.23 1141.41 Q1983.73 1141.41 1981.36 1142.01 Q1978.99 1142.61 1976.8 1143.81 L1976.8 1139.38 Q1979.43 1138.36 1981.9 1137.87 Q1984.38 1137.35 1986.72 1137.35 Q1993.05 1137.35 1996.17 1140.63 Q1999.3 1143.91 1999.3 1150.58 Z" fill="#000000" fill-rule="nonzero" fill-opacity="1" /><path clip-path="url(#clip390)" d="M2013.91 1129.77 L2013.91 1138.05 L2023.78 1138.05 L2023.78 1141.78 L2013.91 1141.78 L2013.91 1157.61 Q2013.91 1161.18 2014.87 1162.19 Q2015.86 1163.21 2018.86 1163.21 L2023.78 1163.21 L2023.78 1167.22 L2018.86 1167.22 Q2013.31 1167.22 2011.2 1165.16 Q2009.09 1163.08 2009.09 1157.61 L2009.09 1141.78 L2005.58 1141.78 L2005.58 1138.05 L2009.09 1138.05 L2009.09 1129.77 L2013.91 1129.77 Z" fill="#000000" fill-rule="nonzero" fill-opacity="1" /><path clip-path="url(#clip390)" d="M2054.33 1149.61 L2054.33 1167.22 L2049.53 1167.22 L2049.53 1149.77 Q2049.53 1145.63 2047.92 1143.57 Q2046.3 1141.52 2043.08 1141.52 Q2039.2 1141.52 2036.96 1143.99 Q2034.72 1146.46 2034.72 1150.73 L2034.72 1167.22 L2029.9 1167.22 L2029.9 1126.7 L2034.72 1126.7 L2034.72 1142.58 Q2036.43 1139.95 2038.75 1138.65 Q2041.1 1137.35 2044.14 1137.35 Q2049.17 1137.35 2051.75 1140.47 Q2054.33 1143.57 2054.33 1149.61 Z" fill="#000000" fill-rule="nonzero" fill-opacity="1" /><path clip-path="url(#clip390)" d="M2092.76 1148.76 Q2089.01 1148.76 2086.85 1150.76 Q2084.72 1152.77 2084.72 1156.28 Q2084.72 1159.8 2086.85 1161.8 Q2089.01 1163.81 2092.76 1163.81 Q2096.51 1163.81 2098.67 1161.8 Q2100.84 1159.77 2100.84 1156.28 Q2100.84 1152.77 2098.67 1150.76 Q2096.54 1148.76 2092.76 1148.76 M2087.5 1146.52 Q2084.12 1145.68 2082.22 1143.36 Q2080.34 1141.05 2080.34 1137.71 Q2080.34 1133.05 2083.65 1130.34 Q2086.98 1127.64 2092.76 1127.64 Q2098.57 1127.64 2101.88 1130.34 Q2105.18 1133.05 2105.18 1137.71 Q2105.18 1141.05 2103.28 1143.36 Q2101.41 1145.68 2098.05 1146.52 Q2101.85 1147.4 2103.96 1149.98 Q2106.1 1152.56 2106.1 1156.28 Q2106.1 1161.93 2102.63 1164.95 Q2099.19 1167.97 2092.76 1167.97 Q2086.33 1167.97 2082.87 1164.95 Q2079.43 1161.93 2079.43 1156.28 Q2079.43 1152.56 2081.56 1149.98 Q2083.7 1147.4 2087.5 1146.52 M2085.57 1138.21 Q2085.57 1141.23 2087.45 1142.92 Q2089.35 1144.61 2092.76 1144.61 Q2096.15 1144.61 2098.05 1142.92 Q2099.98 1141.23 2099.98 1138.21 Q2099.98 1135.19 2098.05 1133.5 Q2096.15 1131.8 2092.76 1131.8 Q2089.35 1131.8 2087.45 1133.5 Q2085.57 1135.19 2085.57 1138.21 Z" fill="#000000" fill-rule="nonzero" fill-opacity="1" /><path clip-path="url(#clip390)" d="M2127.35 1145.68 Q2123.8 1145.68 2121.72 1148.1 Q2119.66 1150.53 2119.66 1154.74 Q2119.66 1158.94 2121.72 1161.39 Q2123.8 1163.81 2127.35 1163.81 Q2130.89 1163.81 2132.94 1161.39 Q2135.03 1158.94 2135.03 1154.74 Q2135.03 1150.53 2132.94 1148.1 Q2130.89 1145.68 2127.35 1145.68 M2137.79 1129.2 L2137.79 1133.99 Q2135.81 1133.05 2133.78 1132.56 Q2131.77 1132.06 2129.79 1132.06 Q2124.59 1132.06 2121.82 1135.58 Q2119.09 1139.09 2118.7 1146.2 Q2120.24 1143.94 2122.55 1142.74 Q2124.87 1141.52 2127.66 1141.52 Q2133.52 1141.52 2136.9 1145.08 Q2140.31 1148.63 2140.31 1154.74 Q2140.31 1160.73 2136.77 1164.35 Q2133.23 1167.97 2127.35 1167.97 Q2120.6 1167.97 2117.03 1162.82 Q2113.47 1157.64 2113.47 1147.82 Q2113.47 1138.6 2117.84 1133.13 Q2122.22 1127.64 2129.59 1127.64 Q2131.56 1127.64 2133.57 1128.03 Q2135.6 1128.42 2137.79 1129.2 Z" fill="#000000" fill-rule="nonzero" fill-opacity="1" /><path clip-path="url(#clip390)" d="M2163.83 1132.92 L2150.55 1153.68 L2163.83 1153.68 L2163.83 1132.92 M2162.45 1128.34 L2169.06 1128.34 L2169.06 1153.68 L2174.61 1153.68 L2174.61 1158.05 L2169.06 1158.05 L2169.06 1167.22 L2163.83 1167.22 L2163.83 1158.05 L2146.28 1158.05 L2146.28 1152.97 L2162.45 1128.34 Z" fill="#000000" fill-rule="nonzero" fill-opacity="1" /><path clip-path="url(#clip390)" d="M2181.88 1126.75 L2186.04 1126.75 Q2189.95 1132.9 2191.88 1138.78 Q2193.83 1144.67 2193.83 1150.47 Q2193.83 1156.31 2191.88 1162.22 Q2189.95 1168.13 2186.04 1174.25 L2181.88 1174.25 Q2185.34 1168.29 2187.03 1162.4 Q2188.75 1156.49 2188.75 1150.47 Q2188.75 1144.46 2187.03 1138.6 Q2185.34 1132.74 2181.88 1126.75 Z" fill="#000000" fill-rule="nonzero" fill-opacity="1" /></svg>
