<?xml version="1.0" encoding="utf-8"?>
<svg xmlns="http://www.w3.org/2000/svg" xmlns:xlink="http://www.w3.org/1999/xlink" width="600" height="400" viewBox="0 0 2400 1600">
<defs>
  <clipPath id="clip520">
    <rect x="0" y="0" width="2400" height="1600"/>
  </clipPath>
</defs>
<path clip-path="url(#clip520)" d="M0 1600 L2400 1600 L2400 8.88178e-14 L0 8.88178e-14  Z" fill="#ffffff" fill-rule="evenodd" fill-opacity="1"/>
<defs>
  <clipPath id="clip521">
    <rect x="419" y="125" width="1855" height="1116"/>
  </clipPath>
</defs>
<path clip-path="url(#clip520)" d="M479.087 1241.31 L2274.02 1241.31 L2274.02 125.984 L479.087 125.984  Z" fill="#ffffff" fill-rule="evenodd" fill-opacity="1"/>
<defs>
  <clipPath id="clip522">
    <rect x="479" y="125" width="1796" height="1116"/>
  </clipPath>
</defs>
<polyline clip-path="url(#clip522)" style="stroke:#000000; stroke-linecap:round; stroke-linejoin:round; stroke-width:2; stroke-opacity:0.1; fill:none" points="496.583,1241.31 496.583,125.984 "/>
<polyline clip-path="url(#clip522)" style="stroke:#000000; stroke-linecap:round; stroke-linejoin:round; stroke-width:2; stroke-opacity:0.1; fill:none" points="767.343,1241.31 767.343,125.984 "/>
<polyline clip-path="url(#clip522)" style="stroke:#000000; stroke-linecap:round; stroke-linejoin:round; stroke-width:2; stroke-opacity:0.1; fill:none" points="1038.1,1241.31 1038.1,125.984 "/>
<polyline clip-path="url(#clip522)" style="stroke:#000000; stroke-linecap:round; stroke-linejoin:round; stroke-width:2; stroke-opacity:0.1; fill:none" points="1308.86,1241.31 1308.86,125.984 "/>
<polyline clip-path="url(#clip522)" style="stroke:#000000; stroke-linecap:round; stroke-linejoin:round; stroke-width:2; stroke-opacity:0.1; fill:none" points="1579.62,1241.31 1579.62,125.984 "/>
<polyline clip-path="url(#clip522)" style="stroke:#000000; stroke-linecap:round; stroke-linejoin:round; stroke-width:2; stroke-opacity:0.1; fill:none" points="1850.38,1241.31 1850.38,125.984 "/>
<polyline clip-path="url(#clip522)" style="stroke:#000000; stroke-linecap:round; stroke-linejoin:round; stroke-width:2; stroke-opacity:0.1; fill:none" points="2121.14,1241.31 2121.14,125.984 "/>
<polyline clip-path="url(#clip522)" style="stroke:#000000; stroke-linecap:round; stroke-linejoin:round; stroke-width:2; stroke-opacity:0.1; fill:none" points="479.087,1241.31 2274.02,1241.31 "/>
<polyline clip-path="url(#clip522)" style="stroke:#000000; stroke-linecap:round; stroke-linejoin:round; stroke-width:2; stroke-opacity:0.1; fill:none" points="479.087,1054.97 2274.02,1054.97 "/>
<polyline clip-path="url(#clip522)" style="stroke:#000000; stroke-linecap:round; stroke-linejoin:round; stroke-width:2; stroke-opacity:0.1; fill:none" points="479.087,868.625 2274.02,868.625 "/>
<polyline clip-path="url(#clip522)" style="stroke:#000000; stroke-linecap:round; stroke-linejoin:round; stroke-width:2; stroke-opacity:0.1; fill:none" points="479.087,682.282 2274.02,682.282 "/>
<polyline clip-path="url(#clip522)" style="stroke:#000000; stroke-linecap:round; stroke-linejoin:round; stroke-width:2; stroke-opacity:0.1; fill:none" points="479.087,495.939 2274.02,495.939 "/>
<polyline clip-path="url(#clip522)" style="stroke:#000000; stroke-linecap:round; stroke-linejoin:round; stroke-width:2; stroke-opacity:0.1; fill:none" points="479.087,309.596 2274.02,309.596 "/>
<polyline clip-path="url(#clip520)" style="stroke:#000000; stroke-linecap:round; stroke-linejoin:round; stroke-width:4; stroke-opacity:1; fill:none" points="479.087,1241.31 2274.02,1241.31 "/>
<polyline clip-path="url(#clip520)" style="stroke:#000000; stroke-linecap:round; stroke-linejoin:round; stroke-width:4; stroke-opacity:1; fill:none" points="496.583,1241.31 496.583,1222.41 "/>
<polyline clip-path="url(#clip520)" style="stroke:#000000; stroke-linecap:round; stroke-linejoin:round; stroke-width:4; stroke-opacity:1; fill:none" points="767.343,1241.31 767.343,1222.41 "/>
<polyline clip-path="url(#clip520)" style="stroke:#000000; stroke-linecap:round; stroke-linejoin:round; stroke-width:4; stroke-opacity:1; fill:none" points="1038.1,1241.31 1038.1,1222.41 "/>
<polyline clip-path="url(#clip520)" style="stroke:#000000; stroke-linecap:round; stroke-linejoin:round; stroke-width:4; stroke-opacity:1; fill:none" points="1308.86,1241.31 1308.86,1222.41 "/>
<polyline clip-path="url(#clip520)" style="stroke:#000000; stroke-linecap:round; stroke-linejoin:round; stroke-width:4; stroke-opacity:1; fill:none" points="1579.62,1241.31 1579.62,1222.41 "/>
<polyline clip-path="url(#clip520)" style="stroke:#000000; stroke-linecap:round; stroke-linejoin:round; stroke-width:4; stroke-opacity:1; fill:none" points="1850.38,1241.31 1850.38,1222.41 "/>
<polyline clip-path="url(#clip520)" style="stroke:#000000; stroke-linecap:round; stroke-linejoin:round; stroke-width:4; stroke-opacity:1; fill:none" points="2121.14,1241.31 2121.14,1222.41 "/>
<path clip-path="url(#clip520)" d="M496.583 1275.16 Q492.07 1275.16 489.784 1279.62 Q487.527 1284.04 487.527 1292.95 Q487.527 1301.84 489.784 1306.29 Q492.07 1310.72 496.583 1310.72 Q501.126 1310.72 503.383 1306.29 Q505.669 1301.84 505.669 1292.95 Q505.669 1284.04 503.383 1279.62 Q501.126 1275.16 496.583 1275.16 M496.583 1270.53 Q503.846 1270.53 507.665 1276.29 Q511.514 1282.02 511.514 1292.95 Q511.514 1303.86 507.665 1309.62 Q503.846 1315.35 496.583 1315.35 Q489.321 1315.35 485.472 1309.62 Q481.653 1303.86 481.653 1292.95 Q481.653 1282.02 485.472 1276.29 Q489.321 1270.53 496.583 1270.53 Z" fill="#000000" fill-rule="nonzero" fill-opacity="1" /><path clip-path="url(#clip520)" d="M760.659 1309.59 L781.058 1309.59 L781.058 1314.51 L753.628 1314.51 L753.628 1309.59 Q756.955 1306.15 762.684 1300.36 Q768.442 1294.55 769.918 1292.87 Q772.725 1289.71 773.824 1287.54 Q774.953 1285.34 774.953 1283.23 Q774.953 1279.79 772.522 1277.62 Q770.121 1275.45 766.243 1275.45 Q763.494 1275.45 760.427 1276.4 Q757.389 1277.36 753.917 1279.3 L753.917 1273.39 Q757.447 1271.98 760.514 1271.25 Q763.581 1270.53 766.127 1270.53 Q772.84 1270.53 776.833 1273.89 Q780.826 1277.24 780.826 1282.86 Q780.826 1285.52 779.814 1287.92 Q778.83 1290.29 776.197 1293.53 Q775.473 1294.37 771.596 1298.39 Q767.719 1302.39 760.659 1309.59 Z" fill="#000000" fill-rule="nonzero" fill-opacity="1" /><path clip-path="url(#clip520)" d="M1041.86 1276.4 L1027.11 1299.47 L1041.86 1299.47 L1041.86 1276.4 M1040.33 1271.31 L1047.68 1271.31 L1047.68 1299.47 L1053.84 1299.47 L1053.84 1304.33 L1047.68 1304.33 L1047.68 1314.51 L1041.86 1314.51 L1041.86 1304.33 L1022.36 1304.33 L1022.36 1298.68 L1040.33 1271.31 Z" fill="#000000" fill-rule="nonzero" fill-opacity="1" /><path clip-path="url(#clip520)" d="M1309.37 1290.58 Q1305.43 1290.58 1303.12 1293.27 Q1300.83 1295.96 1300.83 1300.65 Q1300.83 1305.31 1303.12 1308.03 Q1305.43 1310.72 1309.37 1310.72 Q1313.3 1310.72 1315.59 1308.03 Q1317.9 1305.31 1317.9 1300.65 Q1317.9 1295.96 1315.59 1293.27 Q1313.3 1290.58 1309.37 1290.58 M1320.97 1272.27 L1320.97 1277.59 Q1318.77 1276.55 1316.51 1276 Q1314.29 1275.45 1312.09 1275.45 Q1306.3 1275.45 1303.23 1279.36 Q1300.2 1283.26 1299.76 1291.16 Q1301.47 1288.64 1304.04 1287.31 Q1306.62 1285.95 1309.72 1285.95 Q1316.23 1285.95 1319.99 1289.92 Q1323.78 1293.85 1323.78 1300.65 Q1323.78 1307.31 1319.84 1311.33 Q1315.91 1315.35 1309.37 1315.35 Q1301.87 1315.35 1297.91 1309.62 Q1293.95 1303.86 1293.95 1292.95 Q1293.95 1282.71 1298.81 1276.64 Q1303.67 1270.53 1311.86 1270.53 Q1314.06 1270.53 1316.28 1270.96 Q1318.54 1271.4 1320.97 1272.27 Z" fill="#000000" fill-rule="nonzero" fill-opacity="1" /><path clip-path="url(#clip520)" d="M1579.62 1294 Q1575.45 1294 1573.05 1296.22 Q1570.68 1298.45 1570.68 1302.36 Q1570.68 1306.27 1573.05 1308.49 Q1575.45 1310.72 1579.62 1310.72 Q1583.79 1310.72 1586.19 1308.49 Q1588.59 1306.24 1588.59 1302.36 Q1588.59 1298.45 1586.19 1296.22 Q1583.82 1294 1579.62 1294 M1573.78 1291.51 Q1570.01 1290.58 1567.9 1288.01 Q1565.82 1285.43 1565.82 1281.73 Q1565.82 1276.55 1569.49 1273.54 Q1573.2 1270.53 1579.62 1270.53 Q1586.07 1270.53 1589.75 1273.54 Q1593.42 1276.55 1593.42 1281.73 Q1593.42 1285.43 1591.31 1288.01 Q1589.23 1290.58 1585.49 1291.51 Q1589.72 1292.49 1592.06 1295.36 Q1594.44 1298.22 1594.44 1302.36 Q1594.44 1308.64 1590.59 1311.99 Q1586.77 1315.35 1579.62 1315.35 Q1572.47 1315.35 1568.63 1311.99 Q1564.81 1308.64 1564.81 1302.36 Q1564.81 1298.22 1567.18 1295.36 Q1569.55 1292.49 1573.78 1291.51 M1571.63 1282.28 Q1571.63 1285.63 1573.72 1287.52 Q1575.83 1289.4 1579.62 1289.4 Q1583.38 1289.4 1585.49 1287.52 Q1587.64 1285.63 1587.64 1282.28 Q1587.64 1278.92 1585.49 1277.04 Q1583.38 1275.16 1579.62 1275.16 Q1575.83 1275.16 1573.72 1277.04 Q1571.63 1278.92 1571.63 1282.28 Z" fill="#000000" fill-rule="nonzero" fill-opacity="1" /><path clip-path="url(#clip520)" d="M1818.74 1309.59 L1828.29 1309.59 L1828.29 1276.64 L1817.9 1278.72 L1817.9 1273.39 L1828.23 1271.31 L1834.08 1271.31 L1834.08 1309.59 L1843.62 1309.59 L1843.62 1314.51 L1818.74 1314.51 L1818.74 1309.59 Z" fill="#000000" fill-rule="nonzero" fill-opacity="1" /><path clip-path="url(#clip520)" d="M1867.93 1275.16 Q1863.42 1275.16 1861.13 1279.62 Q1858.87 1284.04 1858.87 1292.95 Q1858.87 1301.84 1861.13 1306.29 Q1863.42 1310.72 1867.93 1310.72 Q1872.47 1310.72 1874.73 1306.29 Q1877.01 1301.84 1877.01 1292.95 Q1877.01 1284.04 1874.73 1279.62 Q1872.47 1275.16 1867.93 1275.16 M1867.93 1270.53 Q1875.19 1270.53 1879.01 1276.29 Q1882.86 1282.02 1882.86 1292.95 Q1882.86 1303.86 1879.01 1309.62 Q1875.19 1315.35 1867.93 1315.35 Q1860.67 1315.35 1856.82 1309.62 Q1853 1303.86 1853 1292.95 Q1853 1282.02 1856.82 1276.29 Q1860.67 1270.53 1867.93 1270.53 Z" fill="#000000" fill-rule="nonzero" fill-opacity="1" /><path clip-path="url(#clip520)" d="M2090.5 1309.59 L2100.05 1309.59 L2100.05 1276.64 L2089.66 1278.72 L2089.66 1273.39 L2099.99 1271.31 L2105.83 1271.31 L2105.83 1309.59 L2115.38 1309.59 L2115.38 1314.51 L2090.5 1314.51 L2090.5 1309.59 Z" fill="#000000" fill-rule="nonzero" fill-opacity="1" /><path clip-path="url(#clip520)" d="M2132.22 1309.59 L2152.62 1309.59 L2152.62 1314.51 L2125.19 1314.51 L2125.19 1309.59 Q2128.52 1306.15 2134.25 1300.36 Q2140.01 1294.55 2141.48 1292.87 Q2144.29 1289.71 2145.39 1287.54 Q2146.52 1285.34 2146.52 1283.23 Q2146.52 1279.79 2144.09 1277.62 Q2141.68 1275.45 2137.81 1275.45 Q2135.06 1275.45 2131.99 1276.4 Q2128.95 1277.36 2125.48 1279.3 L2125.48 1273.39 Q2129.01 1271.98 2132.08 1271.25 Q2135.14 1270.53 2137.69 1270.53 Q2144.4 1270.53 2148.4 1273.89 Q2152.39 1277.24 2152.39 1282.86 Q2152.39 1285.52 2151.38 1287.92 Q2150.39 1290.29 2147.76 1293.53 Q2147.04 1294.37 2143.16 1298.39 Q2139.28 1302.39 2132.22 1309.59 Z" fill="#000000" fill-rule="nonzero" fill-opacity="1" /><path clip-path="url(#clip520)" d="M1324.75 1353.18 L1324.75 1359.45 Q1321.09 1357.69 1317.84 1356.84 Q1314.6 1355.98 1311.57 1355.98 Q1306.32 1355.98 1303.46 1358.01 Q1300.62 1360.05 1300.62 1363.81 Q1300.62 1366.96 1302.5 1368.58 Q1304.41 1370.17 1309.7 1371.16 L1313.58 1371.95 Q1320.77 1373.32 1324.18 1376.79 Q1327.61 1380.23 1327.61 1386.02 Q1327.61 1392.93 1322.97 1396.49 Q1318.35 1400.06 1309.41 1400.06 Q1306.04 1400.06 1302.22 1399.29 Q1298.43 1398.53 1294.35 1397.03 L1294.35 1390.41 Q1298.27 1392.61 1302.02 1393.72 Q1305.78 1394.84 1309.41 1394.84 Q1314.92 1394.84 1317.91 1392.67 Q1320.9 1390.51 1320.9 1386.5 Q1320.9 1383 1318.73 1381.03 Q1316.6 1379.05 1311.7 1378.07 L1307.79 1377.3 Q1300.59 1375.87 1297.38 1372.81 Q1294.16 1369.76 1294.16 1364.32 Q1294.16 1358.01 1298.59 1354.38 Q1303.04 1350.76 1310.84 1350.76 Q1314.18 1350.76 1317.65 1351.36 Q1321.12 1351.97 1324.75 1353.18 Z" fill="#000000" fill-rule="nonzero" fill-opacity="1" /><path clip-path="url(#clip520)" d="M1343.18 1353.37 L1343.18 1363.49 L1355.24 1363.49 L1355.24 1368.04 L1343.18 1368.04 L1343.18 1387.39 Q1343.18 1391.75 1344.36 1392.99 Q1345.57 1394.23 1349.23 1394.23 L1355.24 1394.23 L1355.24 1399.14 L1349.23 1399.14 Q1342.45 1399.14 1339.87 1396.62 Q1337.29 1394.07 1337.29 1387.39 L1337.29 1368.04 L1332.99 1368.04 L1332.99 1363.49 L1337.29 1363.49 L1337.29 1353.37 L1343.18 1353.37 Z" fill="#000000" fill-rule="nonzero" fill-opacity="1" /><path clip-path="url(#clip520)" d="M1379.15 1381.22 Q1372.05 1381.22 1369.31 1382.84 Q1366.57 1384.46 1366.57 1388.38 Q1366.57 1391.5 1368.61 1393.34 Q1370.68 1395.16 1374.21 1395.16 Q1379.08 1395.16 1382.01 1391.72 Q1384.97 1388.25 1384.97 1382.52 L1384.97 1381.22 L1379.15 1381.22 M1390.83 1378.8 L1390.83 1399.14 L1384.97 1399.14 L1384.97 1393.72 Q1382.96 1396.97 1379.97 1398.53 Q1376.98 1400.06 1372.65 1400.06 Q1367.18 1400.06 1363.93 1397 Q1360.72 1393.92 1360.72 1388.76 Q1360.72 1382.74 1364.73 1379.69 Q1368.77 1376.63 1376.76 1376.63 L1384.97 1376.63 L1384.97 1376.06 Q1384.97 1372.02 1382.3 1369.82 Q1379.65 1367.59 1374.85 1367.59 Q1371.79 1367.59 1368.9 1368.33 Q1366 1369.06 1363.33 1370.52 L1363.33 1365.11 Q1366.54 1363.87 1369.56 1363.26 Q1372.59 1362.63 1375.45 1362.63 Q1383.19 1362.63 1387.01 1366.64 Q1390.83 1370.65 1390.83 1378.8 Z" fill="#000000" fill-rule="nonzero" fill-opacity="1" /><path clip-path="url(#clip520)" d="M1408.68 1353.37 L1408.68 1363.49 L1420.75 1363.49 L1420.75 1368.04 L1408.68 1368.04 L1408.68 1387.39 Q1408.68 1391.75 1409.86 1392.99 Q1411.07 1394.23 1414.73 1394.23 L1420.75 1394.23 L1420.75 1399.14 L1414.73 1399.14 Q1407.95 1399.14 1405.37 1396.62 Q1402.79 1394.07 1402.79 1387.39 L1402.79 1368.04 L1398.5 1368.04 L1398.5 1363.49 L1402.79 1363.49 L1402.79 1353.37 L1408.68 1353.37 Z" fill="#000000" fill-rule="nonzero" fill-opacity="1" /><path clip-path="url(#clip520)" d="M1458.94 1379.85 L1458.94 1382.71 L1432.01 1382.71 Q1432.39 1388.76 1435.64 1391.94 Q1438.92 1395.09 1444.74 1395.09 Q1448.12 1395.09 1451.27 1394.27 Q1454.45 1393.44 1457.57 1391.78 L1457.57 1397.32 Q1454.42 1398.66 1451.11 1399.36 Q1447.8 1400.06 1444.39 1400.06 Q1435.86 1400.06 1430.87 1395.09 Q1425.9 1390.13 1425.9 1381.66 Q1425.9 1372.91 1430.61 1367.78 Q1435.35 1362.63 1443.38 1362.63 Q1450.57 1362.63 1454.74 1367.28 Q1458.94 1371.89 1458.94 1379.85 M1453.08 1378.13 Q1453.02 1373.32 1450.38 1370.46 Q1447.77 1367.59 1443.44 1367.59 Q1438.54 1367.59 1435.58 1370.36 Q1432.65 1373.13 1432.2 1378.16 L1453.08 1378.13 Z" fill="#000000" fill-rule="nonzero" fill-opacity="1" /><polyline clip-path="url(#clip520)" style="stroke:#000000; stroke-linecap:round; stroke-linejoin:round; stroke-width:4; stroke-opacity:1; fill:none" points="479.087,1241.31 479.087,125.984 "/>
<polyline clip-path="url(#clip520)" style="stroke:#000000; stroke-linecap:round; stroke-linejoin:round; stroke-width:4; stroke-opacity:1; fill:none" points="479.087,1241.31 497.985,1241.31 "/>
<polyline clip-path="url(#clip520)" style="stroke:#000000; stroke-linecap:round; stroke-linejoin:round; stroke-width:4; stroke-opacity:1; fill:none" points="479.087,1054.97 497.985,1054.97 "/>
<polyline clip-path="url(#clip520)" style="stroke:#000000; stroke-linecap:round; stroke-linejoin:round; stroke-width:4; stroke-opacity:1; fill:none" points="479.087,868.625 497.985,868.625 "/>
<polyline clip-path="url(#clip520)" style="stroke:#000000; stroke-linecap:round; stroke-linejoin:round; stroke-width:4; stroke-opacity:1; fill:none" points="479.087,682.282 497.985,682.282 "/>
<polyline clip-path="url(#clip520)" style="stroke:#000000; stroke-linecap:round; stroke-linejoin:round; stroke-width:4; stroke-opacity:1; fill:none" points="479.087,495.939 497.985,495.939 "/>
<polyline clip-path="url(#clip520)" style="stroke:#000000; stroke-linecap:round; stroke-linejoin:round; stroke-width:4; stroke-opacity:1; fill:none" points="479.087,309.596 497.985,309.596 "/>
<path clip-path="url(#clip520)" d="M333.915 1223.56 Q329.401 1223.56 327.115 1228.02 Q324.858 1232.44 324.858 1241.35 Q324.858 1250.24 327.115 1254.69 Q329.401 1259.12 333.915 1259.12 Q338.458 1259.12 340.715 1254.69 Q343.001 1250.24 343.001 1241.35 Q343.001 1232.44 340.715 1228.02 Q338.458 1223.56 333.915 1223.56 M333.915 1218.93 Q341.178 1218.93 344.997 1224.69 Q348.846 1230.42 348.846 1241.35 Q348.846 1252.26 344.997 1258.02 Q341.178 1263.75 333.915 1263.75 Q326.652 1263.75 322.804 1258.02 Q318.985 1252.26 318.985 1241.35 Q318.985 1230.42 322.804 1224.69 Q326.652 1218.93 333.915 1218.93 Z" fill="#000000" fill-rule="nonzero" fill-opacity="1" /><path clip-path="url(#clip520)" d="M359.117 1255.56 L365.223 1255.56 L365.223 1262.91 L359.117 1262.91 L359.117 1255.56 Z" fill="#000000" fill-rule="nonzero" fill-opacity="1" /><path clip-path="url(#clip520)" d="M390.454 1223.56 Q385.94 1223.56 383.654 1228.02 Q381.397 1232.44 381.397 1241.35 Q381.397 1250.24 383.654 1254.69 Q385.94 1259.12 390.454 1259.12 Q394.997 1259.12 397.254 1254.69 Q399.54 1250.24 399.54 1241.35 Q399.54 1232.44 397.254 1228.02 Q394.997 1223.56 390.454 1223.56 M390.454 1218.93 Q397.717 1218.93 401.536 1224.69 Q405.385 1230.42 405.385 1241.35 Q405.385 1252.26 401.536 1258.02 Q397.717 1263.75 390.454 1263.75 Q383.191 1263.75 379.343 1258.02 Q375.524 1252.26 375.524 1241.35 Q375.524 1230.42 379.343 1224.69 Q383.191 1218.93 390.454 1218.93 Z" fill="#000000" fill-rule="nonzero" fill-opacity="1" /><path clip-path="url(#clip520)" d="M428.156 1223.56 Q423.643 1223.56 421.357 1228.02 Q419.1 1232.44 419.1 1241.35 Q419.1 1250.24 421.357 1254.69 Q423.643 1259.12 428.156 1259.12 Q432.699 1259.12 434.956 1254.69 Q437.242 1250.24 437.242 1241.35 Q437.242 1232.44 434.956 1228.02 Q432.699 1223.56 428.156 1223.56 M428.156 1218.93 Q435.419 1218.93 439.239 1224.69 Q443.087 1230.42 443.087 1241.35 Q443.087 1252.26 439.239 1258.02 Q435.419 1263.75 428.156 1263.75 Q420.894 1263.75 417.045 1258.02 Q413.226 1252.26 413.226 1241.35 Q413.226 1230.42 417.045 1224.69 Q420.894 1218.93 428.156 1218.93 Z" fill="#000000" fill-rule="nonzero" fill-opacity="1" /><path clip-path="url(#clip520)" d="M335.159 1037.22 Q330.645 1037.22 328.36 1041.67 Q326.103 1046.1 326.103 1055.01 Q326.103 1063.89 328.36 1068.35 Q330.645 1072.78 335.159 1072.78 Q339.702 1072.78 341.959 1068.35 Q344.245 1063.89 344.245 1055.01 Q344.245 1046.1 341.959 1041.67 Q339.702 1037.22 335.159 1037.22 M335.159 1032.59 Q342.422 1032.59 346.241 1038.35 Q350.09 1044.07 350.09 1055.01 Q350.09 1065.92 346.241 1071.68 Q342.422 1077.41 335.159 1077.41 Q327.897 1077.41 324.048 1071.68 Q320.229 1065.92 320.229 1055.01 Q320.229 1044.07 324.048 1038.35 Q327.897 1032.59 335.159 1032.59 Z" fill="#000000" fill-rule="nonzero" fill-opacity="1" /><path clip-path="url(#clip520)" d="M360.362 1069.22 L366.467 1069.22 L366.467 1076.57 L360.362 1076.57 L360.362 1069.22 Z" fill="#000000" fill-rule="nonzero" fill-opacity="1" /><path clip-path="url(#clip520)" d="M391.698 1037.22 Q387.184 1037.22 384.899 1041.67 Q382.642 1046.1 382.642 1055.01 Q382.642 1063.89 384.899 1068.35 Q387.184 1072.78 391.698 1072.78 Q396.241 1072.78 398.498 1068.35 Q400.784 1063.89 400.784 1055.01 Q400.784 1046.1 398.498 1041.67 Q396.241 1037.22 391.698 1037.22 M391.698 1032.59 Q398.961 1032.59 402.78 1038.35 Q406.629 1044.07 406.629 1055.01 Q406.629 1065.92 402.78 1071.68 Q398.961 1077.41 391.698 1077.41 Q384.436 1077.41 380.587 1071.68 Q376.768 1065.92 376.768 1055.01 Q376.768 1044.07 380.587 1038.35 Q384.436 1032.59 391.698 1032.59 Z" fill="#000000" fill-rule="nonzero" fill-opacity="1" /><path clip-path="url(#clip520)" d="M416.959 1033.37 L439.904 1033.37 L439.904 1038.29 L422.312 1038.29 L422.312 1048.88 Q423.585 1048.44 424.858 1048.24 Q426.131 1048.01 427.404 1048.01 Q434.638 1048.01 438.862 1051.97 Q443.087 1055.94 443.087 1062.71 Q443.087 1069.68 438.747 1073.56 Q434.406 1077.41 426.507 1077.41 Q423.787 1077.41 420.952 1076.94 Q418.145 1076.48 415.136 1075.56 L415.136 1069.68 Q417.74 1071.1 420.518 1071.79 Q423.295 1072.49 426.391 1072.49 Q431.397 1072.49 434.32 1069.86 Q437.242 1067.22 437.242 1062.71 Q437.242 1058.19 434.32 1055.56 Q431.397 1052.93 426.391 1052.93 Q424.048 1052.93 421.704 1053.45 Q419.389 1053.97 416.959 1055.07 L416.959 1033.37 Z" fill="#000000" fill-rule="nonzero" fill-opacity="1" /><path clip-path="url(#clip520)" d="M333.915 850.873 Q329.401 850.873 327.115 855.329 Q324.858 859.757 324.858 868.669 Q324.858 877.552 327.115 882.008 Q329.401 886.435 333.915 886.435 Q338.458 886.435 340.715 882.008 Q343.001 877.552 343.001 868.669 Q343.001 859.757 340.715 855.329 Q338.458 850.873 333.915 850.873 M333.915 846.244 Q341.178 846.244 344.997 852.002 Q348.846 857.731 348.846 868.669 Q348.846 879.577 344.997 885.335 Q341.178 891.064 333.915 891.064 Q326.652 891.064 322.804 885.335 Q318.985 879.577 318.985 868.669 Q318.985 857.731 322.804 852.002 Q326.652 846.244 333.915 846.244 Z" fill="#000000" fill-rule="nonzero" fill-opacity="1" /><path clip-path="url(#clip520)" d="M359.117 882.876 L365.223 882.876 L365.223 890.225 L359.117 890.225 L359.117 882.876 Z" fill="#000000" fill-rule="nonzero" fill-opacity="1" /><path clip-path="url(#clip520)" d="M378.967 885.306 L388.515 885.306 L388.515 852.349 L378.128 854.433 L378.128 849.108 L388.458 847.025 L394.302 847.025 L394.302 885.306 L403.851 885.306 L403.851 890.225 L378.967 890.225 L378.967 885.306 Z" fill="#000000" fill-rule="nonzero" fill-opacity="1" /><path clip-path="url(#clip520)" d="M428.156 850.873 Q423.643 850.873 421.357 855.329 Q419.1 859.757 419.1 868.669 Q419.1 877.552 421.357 882.008 Q423.643 886.435 428.156 886.435 Q432.699 886.435 434.956 882.008 Q437.242 877.552 437.242 868.669 Q437.242 859.757 434.956 855.329 Q432.699 850.873 428.156 850.873 M428.156 846.244 Q435.419 846.244 439.239 852.002 Q443.087 857.731 443.087 868.669 Q443.087 879.577 439.239 885.335 Q435.419 891.064 428.156 891.064 Q420.894 891.064 417.045 885.335 Q413.226 879.577 413.226 868.669 Q413.226 857.731 417.045 852.002 Q420.894 846.244 428.156 846.244 Z" fill="#000000" fill-rule="nonzero" fill-opacity="1" /><path clip-path="url(#clip520)" d="M335.159 664.53 Q330.645 664.53 328.36 668.986 Q326.103 673.413 326.103 682.325 Q326.103 691.208 328.36 695.664 Q330.645 700.091 335.159 700.091 Q339.702 700.091 341.959 695.664 Q344.245 691.208 344.245 682.325 Q344.245 673.413 341.959 668.986 Q339.702 664.53 335.159 664.53 M335.159 659.901 Q342.422 659.901 346.241 665.659 Q350.09 671.388 350.09 682.325 Q350.09 693.234 346.241 698.992 Q342.422 704.721 335.159 704.721 Q327.897 704.721 324.048 698.992 Q320.229 693.234 320.229 682.325 Q320.229 671.388 324.048 665.659 Q327.897 659.901 335.159 659.901 Z" fill="#000000" fill-rule="nonzero" fill-opacity="1" /><path clip-path="url(#clip520)" d="M360.362 696.532 L366.467 696.532 L366.467 703.882 L360.362 703.882 L360.362 696.532 Z" fill="#000000" fill-rule="nonzero" fill-opacity="1" /><path clip-path="url(#clip520)" d="M380.211 698.963 L389.76 698.963 L389.76 666.006 L379.372 668.089 L379.372 662.765 L389.702 660.682 L395.547 660.682 L395.547 698.963 L405.095 698.963 L405.095 703.882 L380.211 703.882 L380.211 698.963 Z" fill="#000000" fill-rule="nonzero" fill-opacity="1" /><path clip-path="url(#clip520)" d="M416.959 660.682 L439.904 660.682 L439.904 665.601 L422.312 665.601 L422.312 676.191 Q423.585 675.757 424.858 675.555 Q426.131 675.323 427.404 675.323 Q434.638 675.323 438.862 679.287 Q443.087 683.251 443.087 690.022 Q443.087 696.995 438.747 700.873 Q434.406 704.721 426.507 704.721 Q423.787 704.721 420.952 704.258 Q418.145 703.795 415.136 702.869 L415.136 696.995 Q417.74 698.413 420.518 699.108 Q423.295 699.802 426.391 699.802 Q431.397 699.802 434.32 697.169 Q437.242 694.536 437.242 690.022 Q437.242 685.508 434.32 682.875 Q431.397 680.242 426.391 680.242 Q424.048 680.242 421.704 680.763 Q419.389 681.284 416.959 682.383 L416.959 660.682 Z" fill="#000000" fill-rule="nonzero" fill-opacity="1" /><path clip-path="url(#clip520)" d="M333.915 478.187 Q329.401 478.187 327.115 482.643 Q324.858 487.07 324.858 495.982 Q324.858 504.865 327.115 509.321 Q329.401 513.748 333.915 513.748 Q338.458 513.748 340.715 509.321 Q343.001 504.865 343.001 495.982 Q343.001 487.07 340.715 482.643 Q338.458 478.187 333.915 478.187 M333.915 473.558 Q341.178 473.558 344.997 479.316 Q348.846 485.045 348.846 495.982 Q348.846 506.891 344.997 512.649 Q341.178 518.378 333.915 518.378 Q326.652 518.378 322.804 512.649 Q318.985 506.891 318.985 495.982 Q318.985 485.045 322.804 479.316 Q326.652 473.558 333.915 473.558 Z" fill="#000000" fill-rule="nonzero" fill-opacity="1" /><path clip-path="url(#clip520)" d="M359.117 510.189 L365.223 510.189 L365.223 517.539 L359.117 517.539 L359.117 510.189 Z" fill="#000000" fill-rule="nonzero" fill-opacity="1" /><path clip-path="url(#clip520)" d="M382.989 512.62 L403.388 512.62 L403.388 517.539 L375.958 517.539 L375.958 512.62 Q379.285 509.177 385.014 503.39 Q390.772 497.574 392.248 495.895 Q395.055 492.741 396.154 490.571 Q397.283 488.372 397.283 486.26 Q397.283 482.817 394.852 480.647 Q392.451 478.476 388.573 478.476 Q385.824 478.476 382.757 479.431 Q379.719 480.386 376.247 482.325 L376.247 476.422 Q379.777 475.004 382.844 474.281 Q385.911 473.558 388.458 473.558 Q395.171 473.558 399.164 476.914 Q403.157 480.27 403.157 485.884 Q403.157 488.546 402.144 490.947 Q401.16 493.32 398.527 496.561 Q397.804 497.4 393.926 501.422 Q390.049 505.415 382.989 512.62 Z" fill="#000000" fill-rule="nonzero" fill-opacity="1" /><path clip-path="url(#clip520)" d="M428.156 478.187 Q423.643 478.187 421.357 482.643 Q419.1 487.07 419.1 495.982 Q419.1 504.865 421.357 509.321 Q423.643 513.748 428.156 513.748 Q432.699 513.748 434.956 509.321 Q437.242 504.865 437.242 495.982 Q437.242 487.07 434.956 482.643 Q432.699 478.187 428.156 478.187 M428.156 473.558 Q435.419 473.558 439.239 479.316 Q443.087 485.045 443.087 495.982 Q443.087 506.891 439.239 512.649 Q435.419 518.378 428.156 518.378 Q420.894 518.378 417.045 512.649 Q413.226 506.891 413.226 495.982 Q413.226 485.045 417.045 479.316 Q420.894 473.558 428.156 473.558 Z" fill="#000000" fill-rule="nonzero" fill-opacity="1" /><path clip-path="url(#clip520)" d="M335.159 291.844 Q330.645 291.844 328.36 296.3 Q326.103 300.727 326.103 309.639 Q326.103 318.522 328.36 322.978 Q330.645 327.405 335.159 327.405 Q339.702 327.405 341.959 322.978 Q344.245 318.522 344.245 309.639 Q344.245 300.727 341.959 296.3 Q339.702 291.844 335.159 291.844 M335.159 287.214 Q342.422 287.214 346.241 292.972 Q350.09 298.702 350.09 309.639 Q350.09 320.548 346.241 326.306 Q342.422 332.035 335.159 332.035 Q327.897 332.035 324.048 326.306 Q320.229 320.548 320.229 309.639 Q320.229 298.702 324.048 292.972 Q327.897 287.214 335.159 287.214 Z" fill="#000000" fill-rule="nonzero" fill-opacity="1" /><path clip-path="url(#clip520)" d="M360.362 323.846 L366.467 323.846 L366.467 331.196 L360.362 331.196 L360.362 323.846 Z" fill="#000000" fill-rule="nonzero" fill-opacity="1" /><path clip-path="url(#clip520)" d="M384.233 326.277 L404.632 326.277 L404.632 331.196 L377.202 331.196 L377.202 326.277 Q380.529 322.833 386.259 317.046 Q392.017 311.23 393.492 309.552 Q396.299 306.398 397.398 304.228 Q398.527 302.029 398.527 299.917 Q398.527 296.474 396.096 294.303 Q393.695 292.133 389.818 292.133 Q387.069 292.133 384.002 293.088 Q380.963 294.043 377.491 295.982 L377.491 290.079 Q381.021 288.661 384.088 287.938 Q387.155 287.214 389.702 287.214 Q396.415 287.214 400.408 290.571 Q404.401 293.927 404.401 299.541 Q404.401 302.203 403.388 304.604 Q402.404 306.977 399.771 310.218 Q399.048 311.057 395.171 315.079 Q391.293 319.072 384.233 326.277 Z" fill="#000000" fill-rule="nonzero" fill-opacity="1" /><path clip-path="url(#clip520)" d="M416.959 287.996 L439.904 287.996 L439.904 292.915 L422.312 292.915 L422.312 303.505 Q423.585 303.071 424.858 302.868 Q426.131 302.637 427.404 302.637 Q434.638 302.637 438.862 306.601 Q443.087 310.565 443.087 317.336 Q443.087 324.309 438.747 328.186 Q434.406 332.035 426.507 332.035 Q423.787 332.035 420.952 331.572 Q418.145 331.109 415.136 330.183 L415.136 324.309 Q417.74 325.727 420.518 326.421 Q423.295 327.116 426.391 327.116 Q431.397 327.116 434.32 324.483 Q437.242 321.85 437.242 317.336 Q437.242 312.822 434.32 310.189 Q431.397 307.556 426.391 307.556 Q424.048 307.556 421.704 308.077 Q419.389 308.597 416.959 309.697 L416.959 287.996 Z" fill="#000000" fill-rule="nonzero" fill-opacity="1" /><path clip-path="url(#clip520)" d="M226.492 845.337 L244.348 845.337 L244.348 837.252 Q244.348 832.765 242.024 830.314 Q239.701 827.863 235.404 827.863 Q231.139 827.863 228.816 830.314 Q226.492 832.765 226.492 837.252 L226.492 845.337 M221.209 851.766 L221.209 837.252 Q221.209 829.263 224.837 825.189 Q228.434 821.083 235.404 821.083 Q242.438 821.083 246.035 825.189 Q249.631 829.263 249.631 837.252 L249.631 845.337 L268.729 845.337 L268.729 851.766 L221.209 851.766 Z" fill="#000000" fill-rule="nonzero" fill-opacity="1" /><path clip-path="url(#clip520)" d="M238.555 793.202 Q237.982 794.188 237.728 795.366 Q237.441 796.512 237.441 797.912 Q237.441 802.878 240.688 805.551 Q243.902 808.193 249.95 808.193 L268.729 808.193 L268.729 814.081 L233.081 814.081 L233.081 808.193 L238.619 808.193 Q235.372 806.347 233.813 803.387 Q232.221 800.427 232.221 796.194 Q232.221 795.589 232.317 794.857 Q232.38 794.125 232.54 793.234 L238.555 793.202 Z" fill="#000000" fill-rule="nonzero" fill-opacity="1" /><path clip-path="url(#clip520)" d="M237.186 774.677 Q237.186 779.388 240.879 782.125 Q244.539 784.863 250.936 784.863 Q257.334 784.863 261.026 782.157 Q264.686 779.42 264.686 774.677 Q264.686 769.999 260.994 767.261 Q257.302 764.524 250.936 764.524 Q244.603 764.524 240.91 767.261 Q237.186 769.999 237.186 774.677 M232.221 774.677 Q232.221 767.039 237.186 762.678 Q242.152 758.318 250.936 758.318 Q259.689 758.318 264.686 762.678 Q269.652 767.039 269.652 774.677 Q269.652 782.348 264.686 786.709 Q259.689 791.037 250.936 791.037 Q242.152 791.037 237.186 786.709 Q232.221 782.348 232.221 774.677 Z" fill="#000000" fill-rule="nonzero" fill-opacity="1" /><path clip-path="url(#clip520)" d="M250.936 723.02 Q244.475 723.02 240.815 725.693 Q237.123 728.335 237.123 732.982 Q237.123 737.629 240.815 740.303 Q244.475 742.944 250.936 742.944 Q257.398 742.944 261.09 740.303 Q264.75 737.629 264.75 732.982 Q264.75 728.335 261.09 725.693 Q257.398 723.02 250.936 723.02 M238.491 742.944 Q235.309 741.098 233.781 738.297 Q232.221 735.465 232.221 731.55 Q232.221 725.057 237.377 721.015 Q242.534 716.941 250.936 716.941 Q259.339 716.941 264.495 721.015 Q269.652 725.057 269.652 731.55 Q269.652 735.465 268.124 738.297 Q266.564 741.098 263.381 742.944 L268.729 742.944 L268.729 748.833 L219.203 748.833 L219.203 742.944 L238.491 742.944 Z" fill="#000000" fill-rule="nonzero" fill-opacity="1" /><path clip-path="url(#clip520)" d="M250.809 691.032 Q250.809 698.13 252.432 700.867 Q254.056 703.604 257.971 703.604 Q261.09 703.604 262.936 701.567 Q264.75 699.498 264.75 695.966 Q264.75 691.096 261.313 688.168 Q257.843 685.207 252.114 685.207 L250.809 685.207 L250.809 691.032 M248.39 679.351 L268.729 679.351 L268.729 685.207 L263.318 685.207 Q266.564 687.213 268.124 690.205 Q269.652 693.196 269.652 697.525 Q269.652 703 266.596 706.246 Q263.509 709.461 258.352 709.461 Q252.337 709.461 249.281 705.45 Q246.226 701.408 246.226 693.419 L246.226 685.207 L245.653 685.207 Q241.611 685.207 239.414 687.881 Q237.186 690.523 237.186 695.329 Q237.186 698.384 237.919 701.281 Q238.651 704.177 240.115 706.851 L234.704 706.851 Q233.463 703.636 232.858 700.612 Q232.221 697.589 232.221 694.724 Q232.221 686.99 236.232 683.17 Q240.242 679.351 248.39 679.351 Z" fill="#000000" fill-rule="nonzero" fill-opacity="1" /><path clip-path="url(#clip520)" d="M250.936 641.698 Q244.475 641.698 240.815 644.371 Q237.123 647.013 237.123 651.66 Q237.123 656.307 240.815 658.981 Q244.475 661.623 250.936 661.623 Q257.398 661.623 261.09 658.981 Q264.75 656.307 264.75 651.66 Q264.75 647.013 261.09 644.371 Q257.398 641.698 250.936 641.698 M238.491 661.623 Q235.309 659.776 233.781 656.976 Q232.221 654.143 232.221 650.228 Q232.221 643.735 237.377 639.693 Q242.534 635.619 250.936 635.619 Q259.339 635.619 264.495 639.693 Q269.652 643.735 269.652 650.228 Q269.652 654.143 268.124 656.976 Q266.564 659.776 263.381 661.623 L268.729 661.623 L268.729 667.511 L219.203 667.511 L219.203 661.623 L238.491 661.623 Z" fill="#000000" fill-rule="nonzero" fill-opacity="1" /><path clip-path="url(#clip520)" d="M233.081 625.911 L233.081 620.054 L268.729 620.054 L268.729 625.911 L233.081 625.911 M219.203 625.911 L219.203 620.054 L226.619 620.054 L226.619 625.911 L219.203 625.911 Z" fill="#000000" fill-rule="nonzero" fill-opacity="1" /><path clip-path="url(#clip520)" d="M219.203 607.8 L219.203 601.944 L268.729 601.944 L268.729 607.8 L219.203 607.8 Z" fill="#000000" fill-rule="nonzero" fill-opacity="1" /><path clip-path="url(#clip520)" d="M233.081 589.69 L233.081 583.834 L268.729 583.834 L268.729 589.69 L233.081 589.69 M219.203 589.69 L219.203 583.834 L226.619 583.834 L226.619 589.69 L219.203 589.69 Z" fill="#000000" fill-rule="nonzero" fill-opacity="1" /><path clip-path="url(#clip520)" d="M222.959 565.787 L233.081 565.787 L233.081 553.724 L237.632 553.724 L237.632 565.787 L256.984 565.787 Q261.344 565.787 262.586 564.609 Q263.827 563.4 263.827 559.739 L263.827 553.724 L268.729 553.724 L268.729 559.739 Q268.729 566.519 266.214 569.097 Q263.668 571.675 256.984 571.675 L237.632 571.675 L237.632 575.972 L233.081 575.972 L233.081 571.675 L222.959 571.675 L222.959 565.787 Z" fill="#000000" fill-rule="nonzero" fill-opacity="1" /><path clip-path="url(#clip520)" d="M272.039 531.189 Q278.404 533.672 280.346 536.027 Q282.288 538.382 282.288 542.329 L282.288 547.008 L277.386 547.008 L277.386 543.57 Q277.386 541.152 276.24 539.815 Q275.094 538.478 270.829 536.855 L268.156 535.804 L233.081 550.223 L233.081 544.016 L260.962 532.876 L233.081 521.736 L233.081 515.53 L272.039 531.189 Z" fill="#000000" fill-rule="nonzero" fill-opacity="1" /><path clip-path="url(#clip522)" d="M577.811 819.458 L577.811 1241.31 L686.115 1241.31 L686.115 819.458 L577.811 819.458 L577.811 819.458  Z" fill="#4682b4" fill-rule="evenodd" fill-opacity="0.7"/>
<polyline clip-path="url(#clip522)" style="stroke:#000000; stroke-linecap:round; stroke-linejoin:round; stroke-width:4; stroke-opacity:0.7; fill:none" points="577.811,819.458 577.811,1241.31 686.115,1241.31 686.115,819.458 577.811,819.458 "/>
<path clip-path="url(#clip522)" d="M713.191 1068.39 L713.191 1241.31 L821.495 1241.31 L821.495 1068.39 L713.191 1068.39 L713.191 1068.39  Z" fill="#4682b4" fill-rule="evenodd" fill-opacity="0.7"/>
<polyline clip-path="url(#clip522)" style="stroke:#000000; stroke-linecap:round; stroke-linejoin:round; stroke-width:4; stroke-opacity:0.7; fill:none" points="713.191,1068.39 713.191,1241.31 821.495,1241.31 821.495,1068.39 713.191,1068.39 "/>
<path clip-path="url(#clip522)" d="M848.571 959.973 L848.571 1241.31 L956.874 1241.31 L956.874 959.973 L848.571 959.973 L848.571 959.973  Z" fill="#4682b4" fill-rule="evenodd" fill-opacity="0.7"/>
<polyline clip-path="url(#clip522)" style="stroke:#000000; stroke-linecap:round; stroke-linejoin:round; stroke-width:4; stroke-opacity:0.7; fill:none" points="848.571,959.973 848.571,1241.31 956.874,1241.31 956.874,959.973 848.571,959.973 "/>
<path clip-path="url(#clip522)" d="M983.95 1117.28 L983.95 1241.31 L1092.25 1241.31 L1092.25 1117.28 L983.95 1117.28 L983.95 1117.28  Z" fill="#4682b4" fill-rule="evenodd" fill-opacity="0.7"/>
<polyline clip-path="url(#clip522)" style="stroke:#000000; stroke-linecap:round; stroke-linejoin:round; stroke-width:4; stroke-opacity:0.7; fill:none" points="983.95,1117.28 983.95,1241.31 1092.25,1241.31 1092.25,1117.28 983.95,1117.28 "/>
<path clip-path="url(#clip522)" d="M1119.33 1029.36 L1119.33 1241.31 L1227.63 1241.31 L1227.63 1029.36 L1119.33 1029.36 L1119.33 1029.36  Z" fill="#4682b4" fill-rule="evenodd" fill-opacity="0.7"/>
<polyline clip-path="url(#clip522)" style="stroke:#000000; stroke-linecap:round; stroke-linejoin:round; stroke-width:4; stroke-opacity:0.7; fill:none" points="1119.33,1029.36 1119.33,1241.31 1227.63,1241.31 1227.63,1029.36 1119.33,1029.36 "/>
<path clip-path="url(#clip522)" d="M1254.71 974.947 L1254.71 1241.31 L1363.01 1241.31 L1363.01 974.947 L1254.71 974.947 L1254.71 974.947  Z" fill="#4682b4" fill-rule="evenodd" fill-opacity="0.7"/>
<polyline clip-path="url(#clip522)" style="stroke:#000000; stroke-linecap:round; stroke-linejoin:round; stroke-width:4; stroke-opacity:0.7; fill:none" points="1254.71,974.947 1254.71,1241.31 1363.01,1241.31 1363.01,974.947 1254.71,974.947 "/>
<path clip-path="url(#clip522)" d="M1390.09 968.65 L1390.09 1241.31 L1498.39 1241.31 L1498.39 968.65 L1390.09 968.65 L1390.09 968.65  Z" fill="#4682b4" fill-rule="evenodd" fill-opacity="0.7"/>
<polyline clip-path="url(#clip522)" style="stroke:#000000; stroke-linecap:round; stroke-linejoin:round; stroke-width:4; stroke-opacity:0.7; fill:none" points="1390.09,968.65 1390.09,1241.31 1498.39,1241.31 1498.39,968.65 1390.09,968.65 "/>
<path clip-path="url(#clip522)" d="M1525.47 1024.35 L1525.47 1241.31 L1633.77 1241.31 L1633.77 1024.35 L1525.47 1024.35 L1525.47 1024.35  Z" fill="#4682b4" fill-rule="evenodd" fill-opacity="0.7"/>
<polyline clip-path="url(#clip522)" style="stroke:#000000; stroke-linecap:round; stroke-linejoin:round; stroke-width:4; stroke-opacity:0.7; fill:none" points="1525.47,1024.35 1525.47,1241.31 1633.77,1241.31 1633.77,1024.35 1525.47,1024.35 "/>
<path clip-path="url(#clip522)" d="M1660.85 1024.67 L1660.85 1241.31 L1769.15 1241.31 L1769.15 1024.67 L1660.85 1024.67 L1660.85 1024.67  Z" fill="#4682b4" fill-rule="evenodd" fill-opacity="0.7"/>
<polyline clip-path="url(#clip522)" style="stroke:#000000; stroke-linecap:round; stroke-linejoin:round; stroke-width:4; stroke-opacity:0.7; fill:none" points="1660.85,1024.67 1660.85,1241.31 1769.15,1241.31 1769.15,1024.67 1660.85,1024.67 "/>
<path clip-path="url(#clip522)" d="M1796.23 1008.44 L1796.23 1241.31 L1904.53 1241.31 L1904.53 1008.44 L1796.23 1008.44 L1796.23 1008.44  Z" fill="#4682b4" fill-rule="evenodd" fill-opacity="0.7"/>
<polyline clip-path="url(#clip522)" style="stroke:#000000; stroke-linecap:round; stroke-linejoin:round; stroke-width:4; stroke-opacity:0.7; fill:none" points="1796.23,1008.44 1796.23,1241.31 1904.53,1241.31 1904.53,1008.44 1796.23,1008.44 "/>
<path clip-path="url(#clip522)" d="M1931.61 1047.38 L1931.61 1241.31 L2039.91 1241.31 L2039.91 1047.38 L1931.61 1047.38 L1931.61 1047.38  Z" fill="#4682b4" fill-rule="evenodd" fill-opacity="0.7"/>
<polyline clip-path="url(#clip522)" style="stroke:#000000; stroke-linecap:round; stroke-linejoin:round; stroke-width:4; stroke-opacity:0.7; fill:none" points="1931.61,1047.38 1931.61,1241.31 2039.91,1241.31 2039.91,1047.38 1931.61,1047.38 "/>
<path clip-path="url(#clip522)" d="M2066.99 125.984 L2066.99 1241.31 L2175.29 1241.31 L2175.29 125.984 L2066.99 125.984 L2066.99 125.984  Z" fill="#4682b4" fill-rule="evenodd" fill-opacity="0.7"/>
<polyline clip-path="url(#clip522)" style="stroke:#000000; stroke-linecap:round; stroke-linejoin:round; stroke-width:4; stroke-opacity:0.7; fill:none" points="2066.99,125.984 2066.99,1241.31 2175.29,1241.31 2175.29,125.984 2066.99,125.984 "/>
<circle clip-path="url(#clip522)" style="fill:#4682b4; stroke:none; fill-opacity:0" cx="631.963" cy="819.458" r="2"/>
<circle clip-path="url(#clip522)" style="fill:#4682b4; stroke:none; fill-opacity:0" cx="767.343" cy="1068.39" r="2"/>
<circle clip-path="url(#clip522)" style="fill:#4682b4; stroke:none; fill-opacity:0" cx="902.722" cy="959.973" r="2"/>
<circle clip-path="url(#clip522)" style="fill:#4682b4; stroke:none; fill-opacity:0" cx="1038.1" cy="1117.28" r="2"/>
<circle clip-path="url(#clip522)" style="fill:#4682b4; stroke:none; fill-opacity:0" cx="1173.48" cy="1029.36" r="2"/>
<circle clip-path="url(#clip522)" style="fill:#4682b4; stroke:none; fill-opacity:0" cx="1308.86" cy="974.947" r="2"/>
<circle clip-path="url(#clip522)" style="fill:#4682b4; stroke:none; fill-opacity:0" cx="1444.24" cy="968.65" r="2"/>
<circle clip-path="url(#clip522)" style="fill:#4682b4; stroke:none; fill-opacity:0" cx="1579.62" cy="1024.35" r="2"/>
<circle clip-path="url(#clip522)" style="fill:#4682b4; stroke:none; fill-opacity:0" cx="1715" cy="1024.67" r="2"/>
<circle clip-path="url(#clip522)" style="fill:#4682b4; stroke:none; fill-opacity:0" cx="1850.38" cy="1008.44" r="2"/>
<circle clip-path="url(#clip522)" style="fill:#4682b4; stroke:none; fill-opacity:0" cx="1985.76" cy="1047.38" r="2"/>
<circle clip-path="url(#clip522)" style="fill:#4682b4; stroke:none; fill-opacity:0" cx="2121.14" cy="125.984" r="2"/>
</svg>
