<?xml version="1.0" encoding="utf-8"?>
<svg xmlns="http://www.w3.org/2000/svg" xmlns:xlink="http://www.w3.org/1999/xlink" width="700" height="500" viewBox="0 0 2800 2000">
<defs>
  <clipPath id="clip640">
    <rect x="0" y="0" width="2800" height="2000"/>
  </clipPath>
</defs>
<path clip-path="url(#clip640)" d="M0 2000 L2800 2000 L2800 -4.44089e-14 L0 -4.44089e-14  Z" fill="#ffffff" fill-rule="evenodd" fill-opacity="1"/>
<defs>
  <clipPath id="clip641">
    <rect x="532" y="125" width="2142" height="1506"/>
  </clipPath>
</defs>
<path clip-path="url(#clip640)" d="M448.779 1630.83 L2674.02 1630.83 L2674.02 125.984 L448.779 125.984  Z" fill="#ffffff" fill-rule="evenodd" fill-opacity="1"/>
<defs>
  <clipPath id="clip642">
    <rect x="448" y="125" width="2226" height="1506"/>
  </clipPath>
</defs>
<polyline clip-path="url(#clip642)" style="stroke:#000000; stroke-linecap:round; stroke-linejoin:round; stroke-width:2; stroke-opacity:0.1; fill:none" points="503.394,1630.83 503.394,125.984 "/>
<polyline clip-path="url(#clip642)" style="stroke:#000000; stroke-linecap:round; stroke-linejoin:round; stroke-width:2; stroke-opacity:0.1; fill:none" points="921.577,1630.83 921.577,125.984 "/>
<polyline clip-path="url(#clip642)" style="stroke:#000000; stroke-linecap:round; stroke-linejoin:round; stroke-width:2; stroke-opacity:0.1; fill:none" points="1339.76,1630.83 1339.76,125.984 "/>
<polyline clip-path="url(#clip642)" style="stroke:#000000; stroke-linecap:round; stroke-linejoin:round; stroke-width:2; stroke-opacity:0.1; fill:none" points="1757.94,1630.83 1757.94,125.984 "/>
<polyline clip-path="url(#clip642)" style="stroke:#000000; stroke-linecap:round; stroke-linejoin:round; stroke-width:2; stroke-opacity:0.1; fill:none" points="2176.13,1630.83 2176.13,125.984 "/>
<polyline clip-path="url(#clip642)" style="stroke:#000000; stroke-linecap:round; stroke-linejoin:round; stroke-width:2; stroke-opacity:0.1; fill:none" points="2594.31,1630.83 2594.31,125.984 "/>
<polyline clip-path="url(#clip642)" style="stroke:#000000; stroke-linecap:round; stroke-linejoin:round; stroke-width:2; stroke-opacity:0.1; fill:none" points="448.779,1400.51 2674.02,1400.51 "/>
<polyline clip-path="url(#clip642)" style="stroke:#000000; stroke-linecap:round; stroke-linejoin:round; stroke-width:2; stroke-opacity:0.1; fill:none" points="448.779,1045.25 2674.02,1045.25 "/>
<polyline clip-path="url(#clip642)" style="stroke:#000000; stroke-linecap:round; stroke-linejoin:round; stroke-width:2; stroke-opacity:0.1; fill:none" points="448.779,689.987 2674.02,689.987 "/>
<polyline clip-path="url(#clip642)" style="stroke:#000000; stroke-linecap:round; stroke-linejoin:round; stroke-width:2; stroke-opacity:0.1; fill:none" points="448.779,334.726 2674.02,334.726 "/>
<polyline clip-path="url(#clip640)" style="stroke:#000000; stroke-linecap:round; stroke-linejoin:round; stroke-width:4; stroke-opacity:1; fill:none" points="448.779,1630.83 2674.02,1630.83 "/>
<polyline clip-path="url(#clip640)" style="stroke:#000000; stroke-linecap:round; stroke-linejoin:round; stroke-width:4; stroke-opacity:1; fill:none" points="503.394,1630.83 503.394,1611.93 "/>
<polyline clip-path="url(#clip640)" style="stroke:#000000; stroke-linecap:round; stroke-linejoin:round; stroke-width:4; stroke-opacity:1; fill:none" points="921.577,1630.83 921.577,1611.93 "/>
<polyline clip-path="url(#clip640)" style="stroke:#000000; stroke-linecap:round; stroke-linejoin:round; stroke-width:4; stroke-opacity:1; fill:none" points="1339.76,1630.83 1339.76,1611.93 "/>
<polyline clip-path="url(#clip640)" style="stroke:#000000; stroke-linecap:round; stroke-linejoin:round; stroke-width:4; stroke-opacity:1; fill:none" points="1757.94,1630.83 1757.94,1611.93 "/>
<polyline clip-path="url(#clip640)" style="stroke:#000000; stroke-linecap:round; stroke-linejoin:round; stroke-width:4; stroke-opacity:1; fill:none" points="2176.13,1630.83 2176.13,1611.93 "/>
<polyline clip-path="url(#clip640)" style="stroke:#000000; stroke-linecap:round; stroke-linejoin:round; stroke-width:4; stroke-opacity:1; fill:none" points="2594.31,1630.83 2594.31,1611.93 "/>
<path clip-path="url(#clip640)" d="M503.394 1667.88 Q498.88 1667.88 496.594 1672.34 Q494.337 1676.76 494.337 1685.67 Q494.337 1694.56 496.594 1699.01 Q498.88 1703.44 503.394 1703.44 Q507.936 1703.44 510.193 1699.01 Q512.479 1694.56 512.479 1685.67 Q512.479 1676.76 510.193 1672.34 Q507.936 1667.88 503.394 1667.88 M503.394 1663.25 Q510.656 1663.25 514.476 1669.01 Q518.324 1674.74 518.324 1685.67 Q518.324 1696.58 514.476 1702.34 Q510.656 1708.07 503.394 1708.07 Q496.131 1708.07 492.283 1702.34 Q488.463 1696.58 488.463 1685.67 Q488.463 1674.74 492.283 1669.01 Q496.131 1663.25 503.394 1663.25 Z" fill="#000000" fill-rule="nonzero" fill-opacity="1" /><path clip-path="url(#clip640)" d="M889.951 1664.03 L912.896 1664.03 L912.896 1668.95 L895.304 1668.95 L895.304 1679.54 Q896.577 1679.11 897.85 1678.9 Q899.123 1678.67 900.396 1678.67 Q907.63 1678.67 911.855 1682.64 Q916.079 1686.6 916.079 1693.37 Q916.079 1700.34 911.739 1704.22 Q907.399 1708.07 899.499 1708.07 Q896.78 1708.07 893.944 1707.61 Q891.137 1707.14 888.128 1706.22 L888.128 1700.34 Q890.732 1701.76 893.51 1702.46 Q896.288 1703.15 899.384 1703.15 Q904.389 1703.15 907.312 1700.52 Q910.234 1697.89 910.234 1693.37 Q910.234 1688.86 907.312 1686.22 Q904.389 1683.59 899.384 1683.59 Q897.04 1683.59 894.696 1684.11 Q892.381 1684.63 889.951 1685.73 L889.951 1664.03 Z" fill="#000000" fill-rule="nonzero" fill-opacity="1" /><path clip-path="url(#clip640)" d="M940.095 1667.88 Q935.581 1667.88 933.296 1672.34 Q931.039 1676.76 931.039 1685.67 Q931.039 1694.56 933.296 1699.01 Q935.581 1703.44 940.095 1703.44 Q944.638 1703.44 946.895 1699.01 Q949.181 1694.56 949.181 1685.67 Q949.181 1676.76 946.895 1672.34 Q944.638 1667.88 940.095 1667.88 M940.095 1663.25 Q947.358 1663.25 951.177 1669.01 Q955.026 1674.74 955.026 1685.67 Q955.026 1696.58 951.177 1702.34 Q947.358 1708.07 940.095 1708.07 Q932.833 1708.07 928.984 1702.34 Q925.165 1696.58 925.165 1685.67 Q925.165 1674.74 928.984 1669.01 Q932.833 1663.25 940.095 1663.25 Z" fill="#000000" fill-rule="nonzero" fill-opacity="1" /><path clip-path="url(#clip640)" d="M1289.27 1702.31 L1298.82 1702.31 L1298.82 1669.36 L1288.43 1671.44 L1288.43 1666.11 L1298.76 1664.03 L1304.6 1664.03 L1304.6 1702.31 L1314.15 1702.31 L1314.15 1707.23 L1289.27 1707.23 L1289.27 1702.31 Z" fill="#000000" fill-rule="nonzero" fill-opacity="1" /><path clip-path="url(#clip640)" d="M1338.46 1667.88 Q1333.94 1667.88 1331.66 1672.34 Q1329.4 1676.76 1329.4 1685.67 Q1329.4 1694.56 1331.66 1699.01 Q1333.94 1703.44 1338.46 1703.44 Q1343 1703.44 1345.26 1699.01 Q1347.54 1694.56 1347.54 1685.67 Q1347.54 1676.76 1345.26 1672.34 Q1343 1667.88 1338.46 1667.88 M1338.46 1663.25 Q1345.72 1663.25 1349.54 1669.01 Q1353.39 1674.74 1353.39 1685.67 Q1353.39 1696.58 1349.54 1702.34 Q1345.72 1708.07 1338.46 1708.07 Q1331.2 1708.07 1327.35 1702.34 Q1323.53 1696.58 1323.53 1685.67 Q1323.53 1674.74 1327.35 1669.01 Q1331.2 1663.25 1338.46 1663.25 Z" fill="#000000" fill-rule="nonzero" fill-opacity="1" /><path clip-path="url(#clip640)" d="M1376.16 1667.88 Q1371.65 1667.88 1369.36 1672.34 Q1367.1 1676.76 1367.1 1685.67 Q1367.1 1694.56 1369.36 1699.01 Q1371.65 1703.44 1376.16 1703.44 Q1380.7 1703.44 1382.96 1699.01 Q1385.25 1694.56 1385.25 1685.67 Q1385.25 1676.76 1382.96 1672.34 Q1380.7 1667.88 1376.16 1667.88 M1376.16 1663.25 Q1383.42 1663.25 1387.24 1669.01 Q1391.09 1674.74 1391.09 1685.67 Q1391.09 1696.58 1387.24 1702.34 Q1383.42 1708.07 1376.16 1708.07 Q1368.9 1708.07 1365.05 1702.34 Q1361.23 1696.58 1361.23 1685.67 Q1361.23 1674.74 1365.05 1669.01 Q1368.9 1663.25 1376.16 1663.25 Z" fill="#000000" fill-rule="nonzero" fill-opacity="1" /><path clip-path="url(#clip640)" d="M1707.45 1702.31 L1717 1702.31 L1717 1669.36 L1706.61 1671.44 L1706.61 1666.11 L1716.94 1664.03 L1722.79 1664.03 L1722.79 1702.31 L1732.34 1702.31 L1732.34 1707.23 L1707.45 1707.23 L1707.45 1702.31 Z" fill="#000000" fill-rule="nonzero" fill-opacity="1" /><path clip-path="url(#clip640)" d="M1744.2 1664.03 L1767.14 1664.03 L1767.14 1668.95 L1749.55 1668.95 L1749.55 1679.54 Q1750.83 1679.11 1752.1 1678.9 Q1753.37 1678.67 1754.64 1678.67 Q1761.88 1678.67 1766.1 1682.64 Q1770.33 1686.6 1770.33 1693.37 Q1770.33 1700.34 1765.99 1704.22 Q1761.65 1708.07 1753.75 1708.07 Q1751.03 1708.07 1748.19 1707.61 Q1745.39 1707.14 1742.38 1706.22 L1742.38 1700.34 Q1744.98 1701.76 1747.76 1702.46 Q1750.54 1703.15 1753.63 1703.15 Q1758.64 1703.15 1761.56 1700.52 Q1764.48 1697.89 1764.48 1693.37 Q1764.48 1688.86 1761.56 1686.22 Q1758.64 1683.59 1753.63 1683.59 Q1751.29 1683.59 1748.94 1684.11 Q1746.63 1684.63 1744.2 1685.73 L1744.2 1664.03 Z" fill="#000000" fill-rule="nonzero" fill-opacity="1" /><path clip-path="url(#clip640)" d="M1794.34 1667.88 Q1789.83 1667.88 1787.54 1672.34 Q1785.29 1676.76 1785.29 1685.67 Q1785.29 1694.56 1787.54 1699.01 Q1789.83 1703.44 1794.34 1703.44 Q1798.89 1703.44 1801.14 1699.01 Q1803.43 1694.56 1803.43 1685.67 Q1803.43 1676.76 1801.14 1672.34 Q1798.89 1667.88 1794.34 1667.88 M1794.34 1663.25 Q1801.61 1663.25 1805.43 1669.01 Q1809.27 1674.74 1809.27 1685.67 Q1809.27 1696.58 1805.43 1702.34 Q1801.61 1708.07 1794.34 1708.07 Q1787.08 1708.07 1783.23 1702.34 Q1779.41 1696.58 1779.41 1685.67 Q1779.41 1674.74 1783.23 1669.01 Q1787.08 1663.25 1794.34 1663.25 Z" fill="#000000" fill-rule="nonzero" fill-opacity="1" /><path clip-path="url(#clip640)" d="M2130.74 1702.31 L2151.14 1702.31 L2151.14 1707.23 L2123.71 1707.23 L2123.71 1702.31 Q2127.04 1698.87 2132.77 1693.08 Q2138.53 1687.27 2140 1685.59 Q2142.81 1682.43 2143.91 1680.26 Q2145.04 1678.06 2145.04 1675.95 Q2145.04 1672.51 2142.61 1670.34 Q2140.2 1668.17 2136.33 1668.17 Q2133.58 1668.17 2130.51 1669.12 Q2127.47 1670.08 2124 1672.02 L2124 1666.11 Q2127.53 1664.7 2130.6 1663.97 Q2133.66 1663.25 2136.21 1663.25 Q2142.92 1663.25 2146.92 1666.61 Q2150.91 1669.96 2150.91 1675.58 Q2150.91 1678.24 2149.9 1680.64 Q2148.91 1683.01 2146.28 1686.25 Q2145.56 1687.09 2141.68 1691.11 Q2137.8 1695.11 2130.74 1702.31 Z" fill="#000000" fill-rule="nonzero" fill-opacity="1" /><path clip-path="url(#clip640)" d="M2175.91 1667.88 Q2171.4 1667.88 2169.11 1672.34 Q2166.85 1676.76 2166.85 1685.67 Q2166.85 1694.56 2169.11 1699.01 Q2171.4 1703.44 2175.91 1703.44 Q2180.45 1703.44 2182.71 1699.01 Q2185 1694.56 2185 1685.67 Q2185 1676.76 2182.71 1672.34 Q2180.45 1667.88 2175.91 1667.88 M2175.91 1663.25 Q2183.17 1663.25 2186.99 1669.01 Q2190.84 1674.74 2190.84 1685.67 Q2190.84 1696.58 2186.99 1702.34 Q2183.17 1708.07 2175.91 1708.07 Q2168.65 1708.07 2164.8 1702.34 Q2160.98 1696.58 2160.98 1685.67 Q2160.98 1674.74 2164.8 1669.01 Q2168.65 1663.25 2175.91 1663.25 Z" fill="#000000" fill-rule="nonzero" fill-opacity="1" /><path clip-path="url(#clip640)" d="M2213.61 1667.88 Q2209.1 1667.88 2206.81 1672.34 Q2204.56 1676.76 2204.56 1685.67 Q2204.56 1694.56 2206.81 1699.01 Q2209.1 1703.44 2213.61 1703.44 Q2218.15 1703.44 2220.41 1699.01 Q2222.7 1694.56 2222.7 1685.67 Q2222.7 1676.76 2220.41 1672.34 Q2218.15 1667.88 2213.61 1667.88 M2213.61 1663.25 Q2220.87 1663.25 2224.69 1669.01 Q2228.54 1674.74 2228.54 1685.67 Q2228.54 1696.58 2224.69 1702.34 Q2220.87 1708.07 2213.61 1708.07 Q2206.35 1708.07 2202.5 1702.34 Q2198.68 1696.58 2198.68 1685.67 Q2198.68 1674.74 2202.5 1669.01 Q2206.35 1663.25 2213.61 1663.25 Z" fill="#000000" fill-rule="nonzero" fill-opacity="1" /><path clip-path="url(#clip640)" d="M2548.93 1702.31 L2569.32 1702.31 L2569.32 1707.23 L2541.89 1707.23 L2541.89 1702.31 Q2545.22 1698.87 2550.95 1693.08 Q2556.71 1687.27 2558.18 1685.59 Q2560.99 1682.43 2562.09 1680.26 Q2563.22 1678.06 2563.22 1675.95 Q2563.22 1672.51 2560.79 1670.34 Q2558.39 1668.17 2554.51 1668.17 Q2551.76 1668.17 2548.69 1669.12 Q2545.66 1670.08 2542.18 1672.02 L2542.18 1666.11 Q2545.71 1664.7 2548.78 1663.97 Q2551.85 1663.25 2554.39 1663.25 Q2561.11 1663.25 2565.1 1666.61 Q2569.09 1669.96 2569.09 1675.58 Q2569.09 1678.24 2568.08 1680.64 Q2567.1 1683.01 2564.46 1686.25 Q2563.74 1687.09 2559.86 1691.11 Q2555.99 1695.11 2548.93 1702.31 Z" fill="#000000" fill-rule="nonzero" fill-opacity="1" /><path clip-path="url(#clip640)" d="M2581.65 1664.03 L2604.6 1664.03 L2604.6 1668.95 L2587 1668.95 L2587 1679.54 Q2588.28 1679.11 2589.55 1678.9 Q2590.82 1678.67 2592.1 1678.67 Q2599.33 1678.67 2603.55 1682.64 Q2607.78 1686.6 2607.78 1693.37 Q2607.78 1700.34 2603.44 1704.22 Q2599.1 1708.07 2591.2 1708.07 Q2588.48 1708.07 2585.64 1707.61 Q2582.84 1707.14 2579.83 1706.22 L2579.83 1700.34 Q2582.43 1701.76 2585.21 1702.46 Q2587.99 1703.15 2591.08 1703.15 Q2596.09 1703.15 2599.01 1700.52 Q2601.93 1697.89 2601.93 1693.37 Q2601.93 1688.86 2599.01 1686.22 Q2596.09 1683.59 2591.08 1683.59 Q2588.74 1683.59 2586.4 1684.11 Q2584.08 1684.63 2581.65 1685.73 L2581.65 1664.03 Z" fill="#000000" fill-rule="nonzero" fill-opacity="1" /><path clip-path="url(#clip640)" d="M2631.8 1667.88 Q2627.28 1667.88 2625 1672.34 Q2622.74 1676.76 2622.74 1685.67 Q2622.74 1694.56 2625 1699.01 Q2627.28 1703.44 2631.8 1703.44 Q2636.34 1703.44 2638.6 1699.01 Q2640.88 1694.56 2640.88 1685.67 Q2640.88 1676.76 2638.6 1672.34 Q2636.34 1667.88 2631.8 1667.88 M2631.8 1663.25 Q2639.06 1663.25 2642.88 1669.01 Q2646.73 1674.74 2646.73 1685.67 Q2646.73 1696.58 2642.88 1702.34 Q2639.06 1708.07 2631.8 1708.07 Q2624.53 1708.07 2620.68 1702.34 Q2616.86 1696.58 2616.86 1685.67 Q2616.86 1674.74 2620.68 1669.01 Q2624.53 1663.25 2631.8 1663.25 Z" fill="#000000" fill-rule="nonzero" fill-opacity="1" /><path clip-path="url(#clip640)" d="M1508.74 1747.14 L1515.17 1747.14 L1515.17 1789.24 L1538.31 1789.24 L1538.31 1794.66 L1508.74 1794.66 L1508.74 1747.14 Z" fill="#000000" fill-rule="nonzero" fill-opacity="1" /><path clip-path="url(#clip640)" d="M1561 1776.74 Q1553.9 1776.74 1551.16 1778.36 Q1548.43 1779.98 1548.43 1783.9 Q1548.43 1787.02 1550.46 1788.86 Q1552.53 1790.68 1556.07 1790.68 Q1560.94 1790.68 1563.86 1787.24 Q1566.82 1783.77 1566.82 1778.04 L1566.82 1776.74 L1561 1776.74 M1572.68 1774.32 L1572.68 1794.66 L1566.82 1794.66 L1566.82 1789.24 Q1564.82 1792.49 1561.83 1794.05 Q1558.84 1795.58 1554.51 1795.58 Q1549.03 1795.58 1545.79 1792.52 Q1542.57 1789.44 1542.57 1784.28 Q1542.57 1778.26 1546.58 1775.21 Q1550.62 1772.15 1558.61 1772.15 L1566.82 1772.15 L1566.82 1771.58 Q1566.82 1767.54 1564.15 1765.34 Q1561.51 1763.11 1556.7 1763.11 Q1553.65 1763.11 1550.75 1763.85 Q1547.85 1764.58 1545.18 1766.04 L1545.18 1760.63 Q1548.4 1759.39 1551.42 1758.78 Q1554.44 1758.15 1557.31 1758.15 Q1565.04 1758.15 1568.86 1762.16 Q1572.68 1766.17 1572.68 1774.32 Z" fill="#000000" fill-rule="nonzero" fill-opacity="1" /><path clip-path="url(#clip640)" d="M1608.2 1776.42 Q1608.2 1770.05 1605.56 1766.55 Q1602.95 1763.05 1598.21 1763.05 Q1593.5 1763.05 1590.85 1766.55 Q1588.24 1770.05 1588.24 1776.42 Q1588.24 1782.75 1590.85 1786.25 Q1593.5 1789.75 1598.21 1789.75 Q1602.95 1789.75 1605.56 1786.25 Q1608.2 1782.75 1608.2 1776.42 M1614.06 1790.23 Q1614.06 1799.33 1610.02 1803.76 Q1605.97 1808.21 1597.63 1808.21 Q1594.55 1808.21 1591.81 1807.74 Q1589.07 1807.29 1586.49 1806.34 L1586.49 1800.64 Q1589.07 1802.04 1591.59 1802.71 Q1594.1 1803.38 1596.71 1803.38 Q1602.47 1803.38 1605.34 1800.35 Q1608.2 1797.36 1608.2 1791.28 L1608.2 1788.39 Q1606.39 1791.54 1603.55 1793.1 Q1600.72 1794.66 1596.77 1794.66 Q1590.22 1794.66 1586.21 1789.66 Q1582.2 1784.66 1582.2 1776.42 Q1582.2 1768.14 1586.21 1763.15 Q1590.22 1758.15 1596.77 1758.15 Q1600.72 1758.15 1603.55 1759.71 Q1606.39 1761.27 1608.2 1764.42 L1608.2 1759.01 L1614.06 1759.01 L1614.06 1790.23 Z" fill="#000000" fill-rule="nonzero" fill-opacity="1" /><polyline clip-path="url(#clip640)" style="stroke:#000000; stroke-linecap:round; stroke-linejoin:round; stroke-width:4; stroke-opacity:1; fill:none" points="448.779,1630.83 448.779,125.984 "/>
<polyline clip-path="url(#clip640)" style="stroke:#000000; stroke-linecap:round; stroke-linejoin:round; stroke-width:4; stroke-opacity:1; fill:none" points="448.779,1400.51 467.676,1400.51 "/>
<polyline clip-path="url(#clip640)" style="stroke:#000000; stroke-linecap:round; stroke-linejoin:round; stroke-width:4; stroke-opacity:1; fill:none" points="448.779,1045.25 467.676,1045.25 "/>
<polyline clip-path="url(#clip640)" style="stroke:#000000; stroke-linecap:round; stroke-linejoin:round; stroke-width:4; stroke-opacity:1; fill:none" points="448.779,689.987 467.676,689.987 "/>
<polyline clip-path="url(#clip640)" style="stroke:#000000; stroke-linecap:round; stroke-linejoin:round; stroke-width:4; stroke-opacity:1; fill:none" points="448.779,334.726 467.676,334.726 "/>
<path clip-path="url(#clip640)" d="M335.309 1382.76 Q330.795 1382.76 328.51 1387.21 Q326.253 1391.64 326.253 1400.55 Q326.253 1409.43 328.51 1413.89 Q330.795 1418.32 335.309 1418.32 Q339.852 1418.32 342.109 1413.89 Q344.395 1409.43 344.395 1400.55 Q344.395 1391.64 342.109 1387.21 Q339.852 1382.76 335.309 1382.76 M335.309 1378.13 Q342.572 1378.13 346.391 1383.88 Q350.24 1389.61 350.24 1400.55 Q350.24 1411.46 346.391 1417.22 Q342.572 1422.95 335.309 1422.95 Q328.047 1422.95 324.198 1417.22 Q320.379 1411.46 320.379 1400.55 Q320.379 1389.61 324.198 1383.88 Q328.047 1378.13 335.309 1378.13 Z" fill="#000000" fill-rule="nonzero" fill-opacity="1" /><path clip-path="url(#clip640)" d="M360.512 1414.76 L366.617 1414.76 L366.617 1422.11 L360.512 1422.11 L360.512 1414.76 Z" fill="#000000" fill-rule="nonzero" fill-opacity="1" /><path clip-path="url(#clip640)" d="M391.848 1382.76 Q387.335 1382.76 385.049 1387.21 Q382.792 1391.64 382.792 1400.55 Q382.792 1409.43 385.049 1413.89 Q387.335 1418.32 391.848 1418.32 Q396.391 1418.32 398.648 1413.89 Q400.934 1409.43 400.934 1400.55 Q400.934 1391.64 398.648 1387.21 Q396.391 1382.76 391.848 1382.76 M391.848 1378.13 Q399.111 1378.13 402.93 1383.88 Q406.779 1389.61 406.779 1400.55 Q406.779 1411.46 402.93 1417.22 Q399.111 1422.95 391.848 1422.95 Q384.586 1422.95 380.737 1417.22 Q376.918 1411.46 376.918 1400.55 Q376.918 1389.61 380.737 1383.88 Q384.586 1378.13 391.848 1378.13 Z" fill="#000000" fill-rule="nonzero" fill-opacity="1" /><path clip-path="url(#clip640)" d="M336.843 1027.5 Q332.329 1027.5 330.043 1031.95 Q327.786 1036.38 327.786 1045.29 Q327.786 1054.17 330.043 1058.63 Q332.329 1063.06 336.843 1063.06 Q341.386 1063.06 343.643 1058.63 Q345.928 1054.17 345.928 1045.29 Q345.928 1036.38 343.643 1031.95 Q341.386 1027.5 336.843 1027.5 M336.843 1022.87 Q344.106 1022.87 347.925 1028.62 Q351.773 1034.35 351.773 1045.29 Q351.773 1056.2 347.925 1061.96 Q344.106 1067.69 336.843 1067.69 Q329.58 1067.69 325.732 1061.96 Q321.912 1056.2 321.912 1045.29 Q321.912 1034.35 325.732 1028.62 Q329.58 1022.87 336.843 1022.87 Z" fill="#000000" fill-rule="nonzero" fill-opacity="1" /><path clip-path="url(#clip640)" d="M362.045 1059.5 L368.151 1059.5 L368.151 1066.85 L362.045 1066.85 L362.045 1059.5 Z" fill="#000000" fill-rule="nonzero" fill-opacity="1" /><path clip-path="url(#clip640)" d="M381.895 1061.93 L391.443 1061.93 L391.443 1028.97 L381.056 1031.05 L381.056 1025.73 L391.385 1023.65 L397.23 1023.65 L397.23 1061.93 L406.779 1061.93 L406.779 1066.85 L381.895 1066.85 L381.895 1061.93 Z" fill="#000000" fill-rule="nonzero" fill-opacity="1" /><path clip-path="url(#clip640)" d="M337.306 672.235 Q332.792 672.235 330.506 676.691 Q328.249 681.118 328.249 690.03 Q328.249 698.913 330.506 703.369 Q332.792 707.796 337.306 707.796 Q341.849 707.796 344.106 703.369 Q346.391 698.913 346.391 690.03 Q346.391 681.118 344.106 676.691 Q341.849 672.235 337.306 672.235 M337.306 667.606 Q344.569 667.606 348.388 673.364 Q352.236 679.093 352.236 690.03 Q352.236 700.939 348.388 706.697 Q344.569 712.426 337.306 712.426 Q330.043 712.426 326.195 706.697 Q322.375 700.939 322.375 690.03 Q322.375 679.093 326.195 673.364 Q330.043 667.606 337.306 667.606 Z" fill="#000000" fill-rule="nonzero" fill-opacity="1" /><path clip-path="url(#clip640)" d="M362.508 704.237 L368.614 704.237 L368.614 711.587 L362.508 711.587 L362.508 704.237 Z" fill="#000000" fill-rule="nonzero" fill-opacity="1" /><path clip-path="url(#clip640)" d="M386.38 706.668 L406.779 706.668 L406.779 711.587 L379.348 711.587 L379.348 706.668 Q382.676 703.225 388.405 697.438 Q394.163 691.622 395.639 689.943 Q398.446 686.789 399.545 684.619 Q400.674 682.42 400.674 680.308 Q400.674 676.865 398.243 674.695 Q395.841 672.525 391.964 672.525 Q389.215 672.525 386.148 673.479 Q383.11 674.434 379.638 676.373 L379.638 670.47 Q383.168 669.052 386.235 668.329 Q389.302 667.606 391.848 667.606 Q398.561 667.606 402.554 670.962 Q406.547 674.318 406.547 679.932 Q406.547 682.594 405.535 684.996 Q404.551 687.368 401.918 690.609 Q401.194 691.448 397.317 695.47 Q393.44 699.463 386.38 706.668 Z" fill="#000000" fill-rule="nonzero" fill-opacity="1" /><path clip-path="url(#clip640)" d="M336.12 316.975 Q331.606 316.975 329.32 321.431 Q327.063 325.858 327.063 334.77 Q327.063 343.653 329.32 348.109 Q331.606 352.536 336.12 352.536 Q340.662 352.536 342.919 348.109 Q345.205 343.653 345.205 334.77 Q345.205 325.858 342.919 321.431 Q340.662 316.975 336.12 316.975 M336.12 312.345 Q343.382 312.345 347.202 318.103 Q351.05 323.832 351.05 334.77 Q351.05 345.678 347.202 351.436 Q343.382 357.165 336.12 357.165 Q328.857 357.165 325.008 351.436 Q321.189 345.678 321.189 334.77 Q321.189 323.832 325.008 318.103 Q328.857 312.345 336.12 312.345 Z" fill="#000000" fill-rule="nonzero" fill-opacity="1" /><path clip-path="url(#clip640)" d="M361.322 348.977 L367.427 348.977 L367.427 356.326 L361.322 356.326 L361.322 348.977 Z" fill="#000000" fill-rule="nonzero" fill-opacity="1" /><path clip-path="url(#clip640)" d="M397.867 333.034 Q402.062 333.931 404.406 336.766 Q406.779 339.602 406.779 343.768 Q406.779 350.163 402.381 353.664 Q397.983 357.165 389.881 357.165 Q387.161 357.165 384.267 356.616 Q381.403 356.095 378.336 355.024 L378.336 349.382 Q380.766 350.8 383.66 351.523 Q386.553 352.246 389.707 352.246 Q395.205 352.246 398.069 350.076 Q400.963 347.906 400.963 343.768 Q400.963 339.949 398.272 337.808 Q395.61 335.638 390.836 335.638 L385.801 335.638 L385.801 330.834 L391.067 330.834 Q395.378 330.834 397.664 329.127 Q399.95 327.391 399.95 324.15 Q399.95 320.823 397.578 319.058 Q395.234 317.264 390.836 317.264 Q388.434 317.264 385.685 317.785 Q382.936 318.306 379.638 319.405 L379.638 314.197 Q382.965 313.271 385.859 312.808 Q388.781 312.345 391.356 312.345 Q398.012 312.345 401.889 315.383 Q405.766 318.392 405.766 323.543 Q405.766 327.131 403.712 329.619 Q401.657 332.079 397.867 333.034 Z" fill="#000000" fill-rule="nonzero" fill-opacity="1" /><path clip-path="url(#clip640)" d="M222.937 1043.9 L246.585 1052.62 L246.585 1035.15 L222.937 1043.9 M216.603 1047.53 L216.603 1040.24 L264.123 1022.13 L264.123 1028.81 L251.933 1033.14 L251.933 1054.56 L264.123 1058.89 L264.123 1065.67 L216.603 1047.53 Z" fill="#000000" fill-rule="nonzero" fill-opacity="1" /><path clip-path="url(#clip640)" d="M220.263 980.753 L227.043 980.753 Q224.019 983.999 222.523 987.691 Q221.027 991.351 221.027 995.489 Q221.027 1003.64 226.024 1007.97 Q230.989 1012.29 240.411 1012.29 Q249.8 1012.29 254.797 1007.97 Q259.762 1003.64 259.762 995.489 Q259.762 991.351 258.266 987.691 Q256.77 983.999 253.747 980.753 L260.463 980.753 Q262.754 984.126 263.9 987.914 Q265.046 991.67 265.046 995.871 Q265.046 1006.66 258.457 1012.87 Q251.837 1019.07 240.411 1019.07 Q228.952 1019.07 222.364 1012.87 Q215.743 1006.66 215.743 995.871 Q215.743 991.606 216.889 987.85 Q218.003 984.063 220.263 980.753 Z" fill="#000000" fill-rule="nonzero" fill-opacity="1" /><path clip-path="url(#clip640)" d="M216.603 970.822 L216.603 943.513 L222.014 943.513 L222.014 964.393 L236.018 964.393 L236.018 945.55 L241.429 945.55 L241.429 964.393 L264.123 964.393 L264.123 970.822 L216.603 970.822 Z" fill="#000000" fill-rule="nonzero" fill-opacity="1" /><path clip-path="url(#clip640)" d="M232.581 899.049 Q232.581 903.759 236.273 906.497 Q239.933 909.234 246.331 909.234 Q252.728 909.234 256.42 906.528 Q260.081 903.791 260.081 899.049 Q260.081 894.37 256.389 891.633 Q252.696 888.895 246.331 888.895 Q239.997 888.895 236.305 891.633 Q232.581 894.37 232.581 899.049 M227.616 899.049 Q227.616 891.41 232.581 887.049 Q237.546 882.689 246.331 882.689 Q255.084 882.689 260.081 887.049 Q265.046 891.41 265.046 899.049 Q265.046 906.719 260.081 911.08 Q255.084 915.409 246.331 915.409 Q237.546 915.409 232.581 911.08 Q227.616 906.719 227.616 899.049 Z" fill="#000000" fill-rule="nonzero" fill-opacity="1" /><path clip-path="url(#clip640)" d="M214.598 854.934 L219.467 854.934 L219.467 860.536 Q219.467 863.687 220.741 864.928 Q222.014 866.138 225.324 866.138 L228.475 866.138 L228.475 856.494 L233.026 856.494 L233.026 866.138 L264.123 866.138 L264.123 872.026 L233.026 872.026 L233.026 877.628 L228.475 877.628 L228.475 872.026 L225.992 872.026 Q220.04 872.026 217.335 869.257 Q214.598 866.488 214.598 860.472 L214.598 854.934 Z" fill="#000000" fill-rule="nonzero" fill-opacity="1" /><path clip-path="url(#clip640)" d="M214.311 821.769 L279.496 821.769 L279.496 827.18 L214.311 827.18 L214.311 821.769 Z" fill="#000000" fill-rule="nonzero" fill-opacity="1" /><path clip-path="url(#clip640)" d="M257.343 774.695 L244.58 774.695 L244.58 785.198 L239.297 785.198 L239.297 768.329 L259.699 768.329 Q262.34 772.053 263.709 776.541 Q265.046 781.028 265.046 786.121 Q265.046 797.261 258.553 803.563 Q252.028 809.833 240.411 809.833 Q228.761 809.833 222.268 803.563 Q215.743 797.261 215.743 786.121 Q215.743 781.474 216.889 777.305 Q218.035 773.103 220.263 769.57 L227.106 769.57 Q224.083 773.135 222.555 777.145 Q221.027 781.156 221.027 785.58 Q221.027 794.301 225.897 798.693 Q230.767 803.054 240.411 803.054 Q250.023 803.054 254.893 798.693 Q259.762 794.301 259.762 785.58 Q259.762 782.174 259.189 779.501 Q258.585 776.827 257.343 774.695 Z" fill="#000000" fill-rule="nonzero" fill-opacity="1" /><path clip-path="url(#clip640)" d="M274.945 729.753 L279.496 729.753 L279.496 763.618 L274.945 763.618 L274.945 729.753 Z" fill="#000000" fill-rule="nonzero" fill-opacity="1" /><path clip-path="url(#clip640)" d="M218.353 718.454 L228.475 718.454 L228.475 706.391 L233.026 706.391 L233.026 718.454 L252.378 718.454 Q256.739 718.454 257.98 717.276 Q259.221 716.066 259.221 712.406 L259.221 706.391 L264.123 706.391 L264.123 712.406 Q264.123 719.186 261.608 721.764 Q259.062 724.342 252.378 724.342 L233.026 724.342 L233.026 728.639 L228.475 728.639 L228.475 724.342 L218.353 724.342 L218.353 718.454 Z" fill="#000000" fill-rule="nonzero" fill-opacity="1" /><path clip-path="url(#clip640)" d="M214.311 691.145 L279.496 691.145 L279.496 696.556 L214.311 696.556 L214.311 691.145 Z" fill="#000000" fill-rule="nonzero" fill-opacity="1" /><polyline clip-path="url(#clip642)" style="stroke:#ff0000; stroke-linecap:round; stroke-linejoin:round; stroke-width:8; stroke-opacity:1; fill:none" stroke-dasharray="32, 20" points="511.757,320.524 520.121,456.205 528.485,257.097 536.848,386.232 545.212,454.366 553.576,531.66 561.939,534.845 570.303,403.203 578.667,463.526 587.03,428.804 595.394,681.573 603.758,667.076 612.121,604.87 620.485,690.796 628.849,663.745 637.212,858.63 645.576,549.919 653.94,621.782 662.303,841.043 670.667,693.661 679.031,851.736 687.394,831.602 695.758,760.998 704.122,953.295 712.485,889.314 720.849,877.971 729.213,952.818 737.576,991.762 745.94,829.105 754.304,922.209 762.667,973.725 771.031,1017.34 779.395,972.194 787.758,1043.41 796.122,1009.64 804.486,989.876 812.849,1029.09 821.213,977.083 829.577,948.601 837.94,1077.37 846.304,1034.86 854.668,1031.14 863.031,1048.68 871.395,1178.88 879.759,1098.11 888.122,967.588 896.486,1232.04 904.85,1152.86 913.213,1067.27 921.577,1193.12 929.941,1122.11 938.304,1155.69 946.668,1131.99 955.032,1175.28 963.395,1092.75 971.759,1143.5 980.123,1176.82 988.486,1162.43 996.85,1106.04 1005.21,1248.58 1013.58,1197.93 1021.94,1215.21 1030.3,1098.75 1038.67,1259.31 1047.03,1237.99 1055.4,1205.53 1063.76,1281.1 1072.12,1194.93 1080.49,1261.13 1088.85,1266.31 1097.21,1268.94 1105.58,1145.63 1113.94,1282.3 1122.3,1245.9 1130.67,1190.34 1139.03,1151.69 1147.4,1249.5 1155.76,1278.85 1164.12,1244.29 1172.49,1307.74 1180.85,1256.29 1189.21,1227.19 1197.58,1330.04 1205.94,1318.74 1214.31,1276.76 1222.67,1327.65 1231.03,1322.01 1239.4,1276.55 1247.76,1340.05 1256.12,1266.82 1264.49,1281.57 1272.85,1203.89 1281.21,1342.24 1289.58,1233.08 1297.94,1231.6 1306.31,1276.33 1314.67,1149.42 1323.03,1238.81 1331.4,1257.47 1339.76,1208.76 1348.12,1200.02 1356.49,1212.64 1364.85,1209.04 1373.21,1290.7 1381.58,1172.52 1389.94,1212.36 1398.31,1243.32 1406.67,1332.54 1415.03,1226.89 1423.4,1339.97 1431.76,1252.26 1440.12,1324.56 1448.49,1238.59 1456.85,1267.39 1465.22,1242.72 1473.58,1219.03 1481.94,1236.96 1490.31,1269.83 1498.67,1188.85 1507.03,1153.78 1515.4,1191.27 1523.76,1209.49 1532.12,1253.74 1540.49,1213.4 1548.85,1272.45 1557.22,1225.01 1565.58,1261.29 1573.94,1265.45 1582.31,1195.88 1590.67,1196.29 1599.03,1138.83 1607.4,1300.24 1615.76,1260.03 1624.12,1245.58 1632.49,1281.46 1640.85,1255.81 1649.22,1310.69 1657.58,1170.46 1665.94,1224.01 1674.31,1271.87 1682.67,1280.69 1691.03,1253.46 1699.4,1252.09 1707.76,1258.1 1716.13,1246.22 1724.49,1218.92 1732.85,1405.37 1741.22,1258.87 1749.58,1252.5 1757.94,1303.11 1766.31,1137.6 1774.67,1220.32 1783.03,1234.11 1791.4,1245.34 1799.76,1253.48 1808.13,1211.25 1816.49,1291.07 1824.85,1232.83 1833.22,1276.26 1841.58,1172.23 1849.94,1172.06 1858.31,1235.06 1866.67,1255.32 1875.03,1287.9 1883.4,1298.76 1891.76,1314.94 1900.13,1344.06 1908.49,1229.43 1916.85,1228.01 1925.22,1260.01 1933.58,1306.1 1941.94,1223.35 1950.31,1236.57 1958.67,1253.71 1967.04,1397.95 1975.4,1279.88 1983.76,1280.49 1992.13,1384.09 2000.49,1298.26 2008.85,1400.38 2017.22,1389.41 2025.58,1288.38 2033.94,1337.57 2042.31,1420.58 2050.67,1395.22 2059.04,1444.07 2067.4,1374.11 2075.76,1401.96 2084.13,1366.7 2092.49,1408.13 2100.85,1400.43 2109.22,1364.81 2117.58,1407.41 2125.94,1386.95 2134.31,1405.01 2142.67,1423.22 2151.04,1332.37 2159.4,1331.01 2167.76,1380.89 2176.13,1424.66 2184.49,1319.76 2192.85,1360.61 2201.22,1277.54 2209.58,1331.47 2217.95,1435.52 2226.31,1318.89 2234.67,1336 2243.04,1353.41 2251.4,1375.63 2259.76,1425.57 2268.13,1289.22 2276.49,1345.51 2284.85,1429.03 2293.22,1304.76 2301.58,1385.34 2309.95,1317.29 2318.31,1347.18 2326.67,1402.55 2335.04,1392.28 2343.4,1479.8 2351.76,1329.78 2360.13,1413.29 2368.49,1447.64 2376.85,1366.88 2385.22,1461.41 2393.58,1463.77 2401.95,1469.31 2410.31,1482.16 2418.67,1495.81 2427.04,1547.63 2435.4,1453.53 2443.76,1499.82 2452.13,1542.93 2460.49,1460.43 2468.86,1480.09 2477.22,1521.19 2485.58,1464.85 2493.95,1584.86 2502.31,1464.94 2510.67,1496.81 2519.04,1550.22 2527.4,1446.26 2535.76,1588.24 2544.13,1511.57 2552.49,1495.98 2560.86,1531.2 2569.22,1559.53 2577.58,1479.48 2585.95,1489.88 2594.31,1556.81 2602.67,1489.79 2611.04,1546.09 "/>
<polyline clip-path="url(#clip642)" style="stroke:#000080; stroke-linecap:round; stroke-linejoin:round; stroke-width:8; stroke-opacity:1; fill:none" points="511.757,298.051 520.121,398.081 528.485,476.723 536.848,538.165 545.212,596.231 553.576,649.882 561.939,704.17 570.303,751.946 578.667,791.414 587.03,834.181 595.394,864.149 603.758,902.263 612.121,943.523 620.485,973.169 628.849,994.441 637.212,1026.8 645.576,1045.26 653.94,1088.44 662.303,1098.18 670.667,1126.12 679.031,1137.99 687.394,1154.06 695.758,1167.86 704.122,1179.48 712.485,1204.19 720.849,1211.89 729.213,1226.19 737.576,1236.83 745.94,1255.55 754.304,1257.78 762.667,1274.51 771.031,1273.24 779.395,1286.06 787.758,1297.75 796.122,1298.84 804.486,1300.28 812.849,1308.29 821.213,1322.04 829.577,1324.99 837.94,1336.71 846.304,1336.04 854.668,1337.02 863.031,1346.36 871.395,1351.51 879.759,1354.86 888.122,1363.86 896.486,1358.26 904.85,1368.36 913.213,1364.38 921.577,1368.92 929.941,1370.61 938.304,1380.16 946.668,1383.21 955.032,1381.6 963.395,1386.19 971.759,1387.95 980.123,1387 988.486,1386.57 996.85,1393.87 1005.21,1394.21 1013.58,1394.99 1021.94,1394.52 1030.3,1396 1038.67,1392.95 1047.03,1398.67 1055.4,1400.28 1063.76,1401.5 1072.12,1399.89 1080.49,1407.23 1088.85,1404.43 1097.21,1407.18 1105.58,1408.18 1113.94,1409.37 1122.3,1398.88 1130.67,1403.18 1139.03,1410.63 1147.4,1398.44 1155.76,1406.72 1164.12,1398.77 1172.49,1404.57 1180.85,1406.54 1189.21,1401.62 1197.58,1406.38 1205.94,1405.33 1214.31,1407.22 1222.67,1407.35 1231.03,1412.98 1239.4,1412.52 1247.76,1407.29 1256.12,1407.95 1264.49,1412.73 1272.85,1404.87 1281.21,1401 1289.58,1407.18 1297.94,1407.61 1306.31,1407.58 1314.67,1408.3 1323.03,1407.67 1331.4,1411.11 1339.76,1411.33 1348.12,1404 1356.49,1403.65 1364.85,1405.87 1373.21,1404.18 1381.58,1413.77 1389.94,1405.76 1398.31,1405.61 1406.67,1409.34 1415.03,1402.62 1423.4,1409.07 1431.76,1406.99 1440.12,1410.24 1448.49,1399.18 1456.85,1412.13 1465.22,1412.41 1473.58,1402.87 1481.94,1409.71 1490.31,1421.34 1498.67,1411.79 1507.03,1423.92 1515.4,1414.94 1523.76,1409.41 1532.12,1413.89 1540.49,1413.81 1548.85,1420.11 1557.22,1420.92 1565.58,1418.4 1573.94,1420.04 1582.31,1414.11 1590.67,1420.91 1599.03,1424.36 1607.4,1420.25 1615.76,1420.12 1624.12,1422.18 1632.49,1423.92 1640.85,1421.02 1649.22,1430.07 1657.58,1425.62 1665.94,1424.85 1674.31,1421.05 1682.67,1422.51 1691.03,1420.47 1699.4,1420.81 1707.76,1414.39 1716.13,1420.74 1724.49,1409.7 1732.85,1412.12 1741.22,1413.2 1749.58,1409.98 1757.94,1410.94 1766.31,1411.41 1774.67,1410.51 1783.03,1410.21 1791.4,1416.41 1799.76,1411.67 1808.13,1406.85 1816.49,1407.86 1824.85,1407.7 1833.22,1407.49 1841.58,1414.65 1849.94,1409.58 1858.31,1410.83 1866.67,1408.15 1875.03,1408.04 1883.4,1410.54 1891.76,1404.15 1900.13,1408.13 1908.49,1402.23 1916.85,1411.84 1925.22,1403.02 1933.58,1409.87 1941.94,1406.49 1950.31,1406.87 1958.67,1407.96 1967.04,1408.43 1975.4,1413.23 1983.76,1416.97 1992.13,1407.56 2000.49,1413.3 2008.85,1405.29 2017.22,1408.99 2025.58,1410.79 2033.94,1409.36 2042.31,1412.9 2050.67,1413.21 2059.04,1412.69 2067.4,1410.46 2075.76,1422.53 2084.13,1421.26 2092.49,1414.42 2100.85,1408.87 2109.22,1417.44 2117.58,1417.23 2125.94,1415.43 2134.31,1420.44 2142.67,1417.9 2151.04,1422.92 2159.4,1421.24 2167.76,1418.82 2176.13,1423.51 2184.49,1431.11 2192.85,1421.79 2201.22,1425.75 2209.58,1423.31 2217.95,1425.35 2226.31,1430.38 2234.67,1418.6 2243.04,1424.68 2251.4,1424.88 2259.76,1416.86 2268.13,1424.1 2276.49,1418.98 2284.85,1423.37 2293.22,1416.37 2301.58,1416.85 2309.95,1416.42 2318.31,1416.59 2326.67,1420.69 2335.04,1418.49 2343.4,1418.72 2351.76,1418.45 2360.13,1418.9 2368.49,1424.69 2376.85,1420.91 2385.22,1417.58 2393.58,1421.02 2401.95,1422.21 2410.31,1422.72 2418.67,1425.5 2427.04,1418.18 2435.4,1423.03 2443.76,1421.78 2452.13,1420.98 2460.49,1418.64 2468.86,1418.1 2477.22,1424.96 2485.58,1418.9 2493.95,1418.21 2502.31,1417.14 2510.67,1416.38 2519.04,1419.67 2527.4,1423.12 2535.76,1423.3 2544.13,1421.02 2552.49,1418.59 2560.86,1412.12 2569.22,1412.31 2577.58,1410.26 2585.95,1412.75 2594.31,1416.56 2602.67,1415.05 2611.04,1412.41 "/>
<path clip-path="url(#clip642)" d="M511.757 440.035 L520.121 548.098 L528.485 626.04 L536.848 699.829 L545.212 766.249 L553.576 816.49 L561.939 873.105 L570.303 918.492 L578.667 973.466 L587.03 998.794 L595.394 1020.68 L603.758 1085.95 L612.121 1112.45 L620.485 1149.98 L628.849 1161.19 L637.212 1195.25 L645.576 1218.99 L653.94 1240.68 L662.303 1260.32 L670.667 1303.14 L679.031 1316.87 L687.394 1328.54 L695.758 1318.14 L704.122 1359.79 L712.485 1356.22 L720.849 1363.56 L729.213 1389.1 L737.576 1399.81 L745.94 1444.64 L754.304 1405.25 L762.667 1440.49 L771.031 1430.54 L779.395 1447.47 L787.758 1448.67 L796.122 1454.72 L804.486 1439.74 L812.849 1450.74 L821.213 1462.93 L829.577 1480.3 L837.94 1492.38 L846.304 1495.85 L854.668 1492.15 L863.031 1490.34 L871.395 1482.25 L879.759 1505.94 L888.122 1512.21 L896.486 1504.71 L904.85 1514.31 L913.213 1498.94 L921.577 1533.14 L929.941 1517.43 L938.304 1522.22 L946.668 1517.56 L955.032 1527.66 L963.395 1533.98 L971.759 1538.11 L980.123 1522.71 L988.486 1533.6 L996.85 1539.92 L1005.21 1535.63 L1013.58 1552.41 L1021.94 1519.41 L1030.3 1537.24 L1038.67 1529.89 L1047.03 1542.96 L1055.4 1540.27 L1063.76 1543.35 L1072.12 1548.79 L1080.49 1540.06 L1088.85 1531.98 L1097.21 1559.18 L1105.58 1543.06 L1113.94 1567.72 L1122.3 1548.26 L1130.67 1549.76 L1139.03 1544.06 L1147.4 1554.45 L1155.76 1549.96 L1164.12 1536.78 L1172.49 1543.42 L1180.85 1539.31 L1189.21 1540.37 L1197.58 1559.59 L1205.94 1548.76 L1214.31 1552.42 L1222.67 1547.78 L1231.03 1566.53 L1239.4 1546.33 L1247.76 1553.1 L1256.12 1557.96 L1264.49 1549.34 L1272.85 1563.07 L1281.21 1545.94 L1289.58 1537.64 L1297.94 1553.26 L1306.31 1538.31 L1314.67 1544.31 L1323.03 1553.58 L1331.4 1537.07 L1339.76 1544.71 L1348.12 1533.83 L1356.49 1552.63 L1364.85 1540.47 L1373.21 1540.9 L1381.58 1554.04 L1389.94 1536.95 L1398.31 1543.23 L1406.67 1544.14 L1415.03 1540.63 L1423.4 1543.6 L1431.76 1542.09 L1440.12 1539.04 L1448.49 1531.09 L1456.85 1549.86 L1465.22 1553.89 L1473.58 1534.8 L1481.94 1548.67 L1490.31 1556.37 L1498.67 1542.65 L1507.03 1563.7 L1515.4 1547.76 L1523.76 1554.15 L1532.12 1553.31 L1540.49 1541.08 L1548.85 1536.86 L1557.22 1551 L1565.58 1559.77 L1573.94 1559.71 L1582.31 1535.82 L1590.67 1549.73 L1599.03 1559.74 L1607.4 1555.9 L1615.76 1555.52 L1624.12 1563.15 L1632.49 1551.5 L1640.85 1563.14 L1649.22 1540.17 L1657.58 1541.57 L1665.94 1551.95 L1674.31 1539.29 L1682.67 1548.34 L1691.03 1544.56 L1699.4 1554.54 L1707.76 1537.05 L1716.13 1541.81 L1724.49 1548.96 L1732.85 1537.35 L1741.22 1542.18 L1749.58 1530.64 L1757.94 1541.96 L1766.31 1523.38 L1774.67 1537.89 L1783.03 1526.35 L1791.4 1543.26 L1799.76 1557.14 L1808.13 1554.65 L1816.49 1551.1 L1824.85 1552.88 L1833.22 1531.9 L1841.58 1545.52 L1849.94 1547.38 L1858.31 1545.16 L1866.67 1540.55 L1875.03 1547.07 L1883.4 1546.73 L1891.76 1533.39 L1900.13 1542.54 L1908.49 1538.77 L1916.85 1545.22 L1925.22 1548.27 L1933.58 1560.54 L1941.94 1542.13 L1950.31 1550.93 L1958.67 1542.15 L1967.04 1537.55 L1975.4 1535.61 L1983.76 1549.33 L1992.13 1546.42 L2000.49 1539.51 L2008.85 1538.07 L2017.22 1530.92 L2025.58 1532.8 L2033.94 1529.92 L2042.31 1527.07 L2050.67 1544.26 L2059.04 1536.48 L2067.4 1546.59 L2075.76 1552.35 L2084.13 1547.08 L2092.49 1528.28 L2100.85 1538.28 L2109.22 1541.98 L2117.58 1551.48 L2125.94 1532.45 L2134.31 1542.36 L2142.67 1537.06 L2151.04 1541.92 L2159.4 1542.85 L2167.76 1546.03 L2176.13 1536.64 L2184.49 1566.15 L2192.85 1544.45 L2201.22 1543.62 L2209.58 1549.91 L2217.95 1548.33 L2226.31 1554.16 L2234.67 1531.75 L2243.04 1539.47 L2251.4 1542.99 L2259.76 1535.59 L2268.13 1533.25 L2276.49 1534.01 L2284.85 1541.1 L2293.22 1539.46 L2301.58 1556.98 L2309.95 1549.48 L2318.31 1542.31 L2326.67 1547.36 L2335.04 1533.51 L2343.4 1534.93 L2351.76 1541.07 L2360.13 1542.41 L2368.49 1545.82 L2376.85 1536.57 L2385.22 1550.6 L2393.58 1548.96 L2401.95 1553.73 L2410.31 1537.16 L2418.67 1555.81 L2427.04 1542.43 L2435.4 1541.16 L2443.76 1544.24 L2452.13 1536.7 L2460.49 1534.51 L2468.86 1547.45 L2477.22 1541.07 L2485.58 1537.39 L2493.95 1537.23 L2502.31 1530.97 L2510.67 1527.44 L2519.04 1555.35 L2527.4 1555.51 L2535.76 1545.79 L2544.13 1540.19 L2552.49 1537.56 L2560.86 1529.03 L2569.22 1536.97 L2577.58 1532.7 L2585.95 1532.74 L2594.31 1539.22 L2602.67 1542.37 L2611.04 1542.11 L2611.04 1286.21 L2602.67 1295.59 L2594.31 1288.45 L2585.95 1286.37 L2577.58 1291.43 L2569.22 1289.3 L2560.86 1287.96 L2552.49 1300 L2544.13 1305.56 L2535.76 1307.72 L2527.4 1295.57 L2519.04 1279.9 L2510.67 1294.19 L2502.31 1297.87 L2493.95 1297.42 L2485.58 1297.09 L2477.22 1310.18 L2468.86 1294.8 L2460.49 1317.65 L2452.13 1289.14 L2443.76 1309.97 L2435.4 1309 L2427.04 1307.21 L2418.67 1312.07 L2410.31 1307.64 L2401.95 1277.14 L2393.58 1282.83 L2385.22 1291.36 L2376.85 1309.58 L2368.49 1306.81 L2360.13 1292.7 L2351.76 1299.39 L2343.4 1289.07 L2335.04 1289.04 L2326.67 1293.93 L2318.31 1278.8 L2309.95 1290.76 L2301.58 1274.15 L2293.22 1274 L2284.85 1278.77 L2276.49 1295.66 L2268.13 1290.41 L2259.76 1284.13 L2251.4 1291.42 L2243.04 1292.88 L2234.67 1293.5 L2226.31 1288.71 L2217.95 1305.32 L2209.58 1307.53 L2201.22 1293.09 L2192.85 1299.28 L2184.49 1307.69 L2176.13 1300.73 L2167.76 1283.89 L2159.4 1299.18 L2151.04 1281.68 L2142.67 1294.7 L2134.31 1295.59 L2125.94 1298.99 L2117.58 1285 L2109.22 1303.47 L2100.85 1269.72 L2092.49 1279.92 L2084.13 1292.02 L2075.76 1276.6 L2067.4 1271.66 L2059.04 1277.84 L2050.67 1292.05 L2042.31 1291.99 L2033.94 1277.63 L2025.58 1284.54 L2017.22 1289.34 L2008.85 1290.25 L2000.49 1289.42 L1992.13 1268.73 L1983.76 1259.68 L1975.4 1263.08 L1967.04 1274.56 L1958.67 1284.66 L1950.31 1256.85 L1941.94 1257.65 L1933.58 1270.34 L1925.22 1260.58 L1916.85 1272.88 L1908.49 1271.24 L1900.13 1256.42 L1891.76 1259.6 L1883.4 1280.55 L1875.03 1272.38 L1866.67 1284.56 L1858.31 1263.3 L1849.94 1270.34 L1841.58 1265.56 L1833.22 1268.88 L1824.85 1274.95 L1816.49 1261.64 L1808.13 1265.4 L1799.76 1275.33 L1791.4 1271.08 L1783.03 1270.14 L1774.67 1277.29 L1766.31 1285.09 L1757.94 1278.23 L1749.58 1287.45 L1741.22 1288.88 L1732.85 1287.44 L1724.49 1284.84 L1716.13 1289.63 L1707.76 1279.73 L1699.4 1290.92 L1691.03 1293.17 L1682.67 1284.16 L1674.31 1285.9 L1665.94 1276.77 L1657.58 1306.01 L1649.22 1303.62 L1640.85 1285.23 L1632.49 1284.19 L1624.12 1276.26 L1615.76 1267.77 L1607.4 1263.99 L1599.03 1289.12 L1590.67 1284.83 L1582.31 1277.72 L1573.94 1286.25 L1565.58 1268.82 L1557.22 1278.49 L1548.85 1262.16 L1540.49 1282.93 L1532.12 1269.49 L1523.76 1259.99 L1515.4 1274.47 L1507.03 1277.07 L1498.67 1267.47 L1490.31 1301.52 L1481.94 1271.08 L1473.58 1255.97 L1465.22 1247.94 L1456.85 1264.62 L1448.49 1275.49 L1440.12 1260.52 L1431.76 1266.21 L1423.4 1274.8 L1415.03 1275.18 L1406.67 1270.94 L1398.31 1281.31 L1389.94 1272.41 L1381.58 1256.41 L1373.21 1280.23 L1364.85 1266.28 L1356.49 1274.74 L1348.12 1256.39 L1339.76 1276.6 L1331.4 1278.86 L1323.03 1272.29 L1314.67 1262.82 L1306.31 1266.41 L1297.94 1274.5 L1289.58 1260.77 L1281.21 1260.36 L1272.85 1252.5 L1264.49 1264.68 L1256.12 1275.65 L1247.76 1251.17 L1239.4 1271.94 L1231.03 1276.94 L1222.67 1263.28 L1214.31 1265.68 L1205.94 1251.43 L1197.58 1251.01 L1189.21 1260.68 L1180.85 1266.58 L1172.49 1262.28 L1164.12 1244.86 L1155.76 1265.68 L1147.4 1255.94 L1139.03 1251.34 L1130.67 1266.83 L1122.3 1258.03 L1113.94 1268.57 L1105.58 1287.23 L1097.21 1258.63 L1088.85 1250.84 L1080.49 1254.29 L1072.12 1243.14 L1063.76 1260.54 L1055.4 1246.85 L1047.03 1239.49 L1038.67 1254.4 L1030.3 1248.37 L1021.94 1234.41 L1013.58 1255.91 L1005.21 1253.07 L996.85 1248.05 L988.486 1240.55 L980.123 1226.2 L971.759 1232.37 L963.395 1235.23 L955.032 1225.17 L946.668 1224.22 L938.304 1243.59 L929.941 1224.92 L921.577 1224.82 L913.213 1215.95 L904.85 1210.73 L896.486 1215.4 L888.122 1194.77 L879.759 1198.7 L871.395 1202.88 L863.031 1190.44 L854.668 1180.25 L846.304 1169.63 L837.94 1200.34 L829.577 1167.92 L821.213 1159.02 L812.849 1163.24 L804.486 1125.31 L796.122 1136.94 L787.758 1120.86 L779.395 1134.97 L771.031 1108.73 L762.667 1111.27 L754.304 1102.13 L745.94 1092.98 L737.576 1063.69 L729.213 1058.59 L720.849 1036.88 L712.485 1030.23 L704.122 1012.13 L695.758 990.559 L687.394 968.511 L679.031 973.686 L670.667 961.423 L662.303 942.882 L653.94 927.863 L645.576 881.365 L637.212 842.888 L628.849 855.674 L620.485 816.506 L612.121 791.192 L603.758 728.213 L595.394 712.666 L587.03 683.143 L578.667 632.649 L570.303 585.046 L561.939 562.531 L553.576 483.568 L545.212 449.101 L536.848 386.809 L528.485 331.13 L520.121 246.504 L511.757 168.574  Z" fill="#000080" fill-rule="evenodd" fill-opacity="0.15"/>
<polyline clip-path="url(#clip642)" style="stroke:#000080; stroke-linecap:round; stroke-linejoin:round; stroke-width:4; stroke-opacity:0.15; fill:none" points="511.757,440.035 520.121,548.098 528.485,626.04 536.848,699.829 545.212,766.249 553.576,816.49 561.939,873.105 570.303,918.492 578.667,973.466 587.03,998.794 595.394,1020.68 603.758,1085.95 612.121,1112.45 620.485,1149.98 628.849,1161.19 637.212,1195.25 645.576,1218.99 653.94,1240.68 662.303,1260.32 670.667,1303.14 679.031,1316.87 687.394,1328.54 695.758,1318.14 704.122,1359.79 712.485,1356.22 720.849,1363.56 729.213,1389.1 737.576,1399.81 745.94,1444.64 754.304,1405.25 762.667,1440.49 771.031,1430.54 779.395,1447.47 787.758,1448.67 796.122,1454.72 804.486,1439.74 812.849,1450.74 821.213,1462.93 829.577,1480.3 837.94,1492.38 846.304,1495.85 854.668,1492.15 863.031,1490.34 871.395,1482.25 879.759,1505.94 888.122,1512.21 896.486,1504.71 904.85,1514.31 913.213,1498.94 921.577,1533.14 929.941,1517.43 938.304,1522.22 946.668,1517.56 955.032,1527.66 963.395,1533.98 971.759,1538.11 980.123,1522.71 988.486,1533.6 996.85,1539.92 1005.21,1535.63 1013.58,1552.41 1021.94,1519.41 1030.3,1537.24 1038.67,1529.89 1047.03,1542.96 1055.4,1540.27 1063.76,1543.35 1072.12,1548.79 1080.49,1540.06 1088.85,1531.98 1097.21,1559.18 1105.58,1543.06 1113.94,1567.72 1122.3,1548.26 1130.67,1549.76 1139.03,1544.06 1147.4,1554.45 1155.76,1549.96 1164.12,1536.78 1172.49,1543.42 1180.85,1539.31 1189.21,1540.37 1197.58,1559.59 1205.94,1548.76 1214.31,1552.42 1222.67,1547.78 1231.03,1566.53 1239.4,1546.33 1247.76,1553.1 1256.12,1557.96 1264.49,1549.34 1272.85,1563.07 1281.21,1545.94 1289.58,1537.64 1297.94,1553.26 1306.31,1538.31 1314.67,1544.31 1323.03,1553.58 1331.4,1537.07 1339.76,1544.71 1348.12,1533.83 1356.49,1552.63 1364.85,1540.47 1373.21,1540.9 1381.58,1554.04 1389.94,1536.95 1398.31,1543.23 1406.67,1544.14 1415.03,1540.63 1423.4,1543.6 1431.76,1542.09 1440.12,1539.04 1448.49,1531.09 1456.85,1549.86 1465.22,1553.89 1473.58,1534.8 1481.94,1548.67 1490.31,1556.37 1498.67,1542.65 1507.03,1563.7 1515.4,1547.76 1523.76,1554.15 1532.12,1553.31 1540.49,1541.08 1548.85,1536.86 1557.22,1551 1565.58,1559.77 1573.94,1559.71 1582.31,1535.82 1590.67,1549.73 1599.03,1559.74 1607.4,1555.9 1615.76,1555.52 1624.12,1563.15 1632.49,1551.5 1640.85,1563.14 1649.22,1540.17 1657.58,1541.57 1665.94,1551.95 1674.31,1539.29 1682.67,1548.34 1691.03,1544.56 1699.4,1554.54 1707.76,1537.05 1716.13,1541.81 1724.49,1548.96 1732.85,1537.35 1741.22,1542.18 1749.58,1530.64 1757.94,1541.96 1766.31,1523.38 1774.67,1537.89 1783.03,1526.35 1791.4,1543.26 1799.76,1557.14 1808.13,1554.65 1816.49,1551.1 1824.85,1552.88 1833.22,1531.9 1841.58,1545.52 1849.94,1547.38 1858.31,1545.16 1866.67,1540.55 1875.03,1547.07 1883.4,1546.73 1891.76,1533.39 1900.13,1542.54 1908.49,1538.77 1916.85,1545.22 1925.22,1548.27 1933.58,1560.54 1941.94,1542.13 1950.31,1550.93 1958.67,1542.15 1967.04,1537.55 1975.4,1535.61 1983.76,1549.33 1992.13,1546.42 2000.49,1539.51 2008.85,1538.07 2017.22,1530.92 2025.58,1532.8 2033.94,1529.92 2042.31,1527.07 2050.67,1544.26 2059.04,1536.48 2067.4,1546.59 2075.76,1552.35 2084.13,1547.08 2092.49,1528.28 2100.85,1538.28 2109.22,1541.98 2117.58,1551.48 2125.94,1532.45 2134.31,1542.36 2142.67,1537.06 2151.04,1541.92 2159.4,1542.85 2167.76,1546.03 2176.13,1536.64 2184.49,1566.15 2192.85,1544.45 2201.22,1543.62 2209.58,1549.91 2217.95,1548.33 2226.31,1554.16 2234.67,1531.75 2243.04,1539.47 2251.4,1542.99 2259.76,1535.59 2268.13,1533.25 2276.49,1534.01 2284.85,1541.1 2293.22,1539.46 2301.58,1556.98 2309.95,1549.48 2318.31,1542.31 2326.67,1547.36 2335.04,1533.51 2343.4,1534.93 2351.76,1541.07 2360.13,1542.41 2368.49,1545.82 2376.85,1536.57 2385.22,1550.6 2393.58,1548.96 2401.95,1553.73 2410.31,1537.16 2418.67,1555.81 2427.04,1542.43 2435.4,1541.16 2443.76,1544.24 2452.13,1536.7 2460.49,1534.51 2468.86,1547.45 2477.22,1541.07 2485.58,1537.39 2493.95,1537.23 2502.31,1530.97 2510.67,1527.44 2519.04,1555.35 2527.4,1555.51 2535.76,1545.79 2544.13,1540.19 2552.49,1537.56 2560.86,1529.03 2569.22,1536.97 2577.58,1532.7 2585.95,1532.74 2594.31,1539.22 2602.67,1542.37 2611.04,1542.11 "/>
<path clip-path="url(#clip640)" d="M2005.7 409.426 L2599.84 409.426 L2599.84 176.146 L2005.7 176.146  Z" fill="#ffffff" fill-rule="evenodd" fill-opacity="1"/>
<polyline clip-path="url(#clip640)" style="stroke:#000000; stroke-linecap:round; stroke-linejoin:round; stroke-width:4; stroke-opacity:1; fill:none" points="2005.7,409.426 2599.84,409.426 2599.84,176.146 2005.7,176.146 2005.7,409.426 "/>
<polyline clip-path="url(#clip640)" style="stroke:#ff0000; stroke-linecap:round; stroke-linejoin:round; stroke-width:9; stroke-opacity:1; fill:none" stroke-dasharray="36, 23" points="2030.43,234.466 2178.78,234.466 "/>
<path clip-path="url(#clip640)" d="M2221.52 218.594 Q2215.8 218.594 2212.41 222.864 Q2209.05 227.135 2209.05 234.505 Q2209.05 241.849 2212.41 246.119 Q2215.8 250.39 2221.52 250.39 Q2227.25 250.39 2230.59 246.119 Q2233.95 241.849 2233.95 234.505 Q2233.95 227.135 2230.59 222.864 Q2227.25 218.594 2221.52 218.594 M2221.52 214.323 Q2229.7 214.323 2234.6 219.817 Q2239.49 225.286 2239.49 234.505 Q2239.49 243.698 2234.6 249.192 Q2229.7 254.661 2221.52 254.661 Q2213.32 254.661 2208.4 249.192 Q2203.5 243.724 2203.5 234.505 Q2203.5 225.286 2208.4 219.817 Q2213.32 214.323 2221.52 214.323 Z" fill="#000000" fill-rule="nonzero" fill-opacity="1" /><path clip-path="url(#clip640)" d="M2268.45 239.349 Q2268.45 234.062 2266.26 231.067 Q2264.1 228.047 2260.3 228.047 Q2256.5 228.047 2254.31 231.067 Q2252.15 234.062 2252.15 239.349 Q2252.15 244.635 2254.31 247.656 Q2256.5 250.651 2260.3 250.651 Q2264.1 250.651 2266.26 247.656 Q2268.45 244.635 2268.45 239.349 M2252.15 229.166 Q2253.66 226.562 2255.95 225.312 Q2258.27 224.036 2261.47 224.036 Q2266.78 224.036 2270.09 228.255 Q2273.43 232.474 2273.43 239.349 Q2273.43 246.224 2270.09 250.442 Q2266.78 254.661 2261.47 254.661 Q2258.27 254.661 2255.95 253.411 Q2253.66 252.135 2252.15 249.531 L2252.15 253.906 L2247.33 253.906 L2247.33 213.385 L2252.15 213.385 L2252.15 229.166 Z" fill="#000000" fill-rule="nonzero" fill-opacity="1" /><path clip-path="url(#clip640)" d="M2299.96 225.599 L2299.96 230.13 Q2297.93 229.088 2295.74 228.567 Q2293.56 228.047 2291.21 228.047 Q2287.64 228.047 2285.85 229.14 Q2284.08 230.234 2284.08 232.422 Q2284.08 234.088 2285.35 235.052 Q2286.63 235.989 2290.48 236.849 L2292.12 237.213 Q2297.23 238.307 2299.36 240.312 Q2301.52 242.291 2301.52 245.859 Q2301.52 249.921 2298.29 252.291 Q2295.09 254.661 2289.47 254.661 Q2287.12 254.661 2284.57 254.192 Q2282.04 253.75 2279.23 252.838 L2279.23 247.89 Q2281.89 249.27 2284.47 249.974 Q2287.04 250.651 2289.57 250.651 Q2292.96 250.651 2294.78 249.505 Q2296.6 248.333 2296.6 246.224 Q2296.6 244.27 2295.27 243.229 Q2293.97 242.187 2289.52 241.224 L2287.85 240.833 Q2283.4 239.895 2281.42 237.968 Q2279.44 236.015 2279.44 232.63 Q2279.44 228.515 2282.36 226.276 Q2285.27 224.036 2290.64 224.036 Q2293.29 224.036 2295.64 224.427 Q2297.98 224.817 2299.96 225.599 Z" fill="#000000" fill-rule="nonzero" fill-opacity="1" /><path clip-path="url(#clip640)" d="M2334.1 238.125 L2334.1 240.468 L2312.07 240.468 Q2312.38 245.416 2315.04 248.02 Q2317.72 250.599 2322.49 250.599 Q2325.25 250.599 2327.83 249.921 Q2330.43 249.244 2332.98 247.89 L2332.98 252.421 Q2330.4 253.515 2327.7 254.088 Q2324.99 254.661 2322.2 254.661 Q2315.22 254.661 2311.13 250.599 Q2307.07 246.536 2307.07 239.609 Q2307.07 232.448 2310.93 228.255 Q2314.81 224.036 2321.37 224.036 Q2327.25 224.036 2330.66 227.838 Q2334.1 231.614 2334.1 238.125 M2329.31 236.718 Q2329.26 232.786 2327.1 230.442 Q2324.96 228.099 2321.42 228.099 Q2317.41 228.099 2314.99 230.364 Q2312.59 232.63 2312.23 236.744 L2329.31 236.718 Z" fill="#000000" fill-rule="nonzero" fill-opacity="1" /><path clip-path="url(#clip640)" d="M2358.87 229.218 Q2358.06 228.75 2357.1 228.541 Q2356.16 228.307 2355.01 228.307 Q2350.95 228.307 2348.76 230.963 Q2346.6 233.593 2346.6 238.541 L2346.6 253.906 L2341.78 253.906 L2341.78 224.739 L2346.6 224.739 L2346.6 229.271 Q2348.11 226.614 2350.53 225.338 Q2352.96 224.036 2356.42 224.036 Q2356.91 224.036 2357.51 224.114 Q2358.11 224.166 2358.84 224.297 L2358.87 229.218 Z" fill="#000000" fill-rule="nonzero" fill-opacity="1" /><path clip-path="url(#clip640)" d="M2360.46 224.739 L2365.53 224.739 L2374.65 249.218 L2383.76 224.739 L2388.84 224.739 L2377.9 253.906 L2371.39 253.906 L2360.46 224.739 Z" fill="#000000" fill-rule="nonzero" fill-opacity="1" /><path clip-path="url(#clip640)" d="M2420.4 238.125 L2420.4 240.468 L2398.37 240.468 Q2398.68 245.416 2401.34 248.02 Q2404.02 250.599 2408.79 250.599 Q2411.55 250.599 2414.13 249.921 Q2416.73 249.244 2419.28 247.89 L2419.28 252.421 Q2416.71 253.515 2414 254.088 Q2411.29 254.661 2408.5 254.661 Q2401.52 254.661 2397.43 250.599 Q2393.37 246.536 2393.37 239.609 Q2393.37 232.448 2397.23 228.255 Q2401.11 224.036 2407.67 224.036 Q2413.55 224.036 2416.97 227.838 Q2420.4 231.614 2420.4 238.125 M2415.61 236.718 Q2415.56 232.786 2413.4 230.442 Q2411.26 228.099 2407.72 228.099 Q2403.71 228.099 2401.29 230.364 Q2398.89 232.63 2398.53 236.744 L2415.61 236.718 Z" fill="#000000" fill-rule="nonzero" fill-opacity="1" /><path clip-path="url(#clip640)" d="M2447.46 229.166 L2447.46 213.385 L2452.25 213.385 L2452.25 253.906 L2447.46 253.906 L2447.46 249.531 Q2445.95 252.135 2443.63 253.411 Q2441.34 254.661 2438.11 254.661 Q2432.83 254.661 2429.49 250.442 Q2426.18 246.224 2426.18 239.349 Q2426.18 232.474 2429.49 228.255 Q2432.83 224.036 2438.11 224.036 Q2441.34 224.036 2443.63 225.312 Q2445.95 226.562 2447.46 229.166 M2431.13 239.349 Q2431.13 244.635 2433.29 247.656 Q2435.48 250.651 2439.28 250.651 Q2443.09 250.651 2445.27 247.656 Q2447.46 244.635 2447.46 239.349 Q2447.46 234.062 2445.27 231.067 Q2443.09 228.047 2439.28 228.047 Q2435.48 228.047 2433.29 231.067 Q2431.13 234.062 2431.13 239.349 Z" fill="#000000" fill-rule="nonzero" fill-opacity="1" /><polyline clip-path="url(#clip640)" style="stroke:#000080; stroke-linecap:round; stroke-linejoin:round; stroke-width:9; stroke-opacity:1; fill:none" points="2030.43,292.786 2178.78,292.786 "/>
<path clip-path="url(#clip640)" d="M2234.86 276.341 L2234.86 281.887 Q2232.2 279.414 2229.18 278.19 Q2226.19 276.966 2222.8 276.966 Q2216.13 276.966 2212.59 281.054 Q2209.05 285.117 2209.05 292.825 Q2209.05 300.507 2212.59 304.596 Q2216.13 308.658 2222.8 308.658 Q2226.19 308.658 2229.18 307.434 Q2232.2 306.21 2234.86 303.736 L2234.86 309.231 Q2232.1 311.106 2229 312.044 Q2225.93 312.981 2222.49 312.981 Q2213.66 312.981 2208.58 307.59 Q2203.5 302.174 2203.5 292.825 Q2203.5 283.45 2208.58 278.059 Q2213.66 272.643 2222.49 272.643 Q2225.98 272.643 2229.05 273.58 Q2232.15 274.492 2234.86 276.341 Z" fill="#000000" fill-rule="nonzero" fill-opacity="1" /><path clip-path="url(#clip640)" d="M2242.98 273.346 L2248.24 273.346 L2248.24 289.283 L2267.36 289.283 L2267.36 273.346 L2272.62 273.346 L2272.62 312.226 L2267.36 312.226 L2267.36 293.71 L2248.24 293.71 L2248.24 312.226 L2242.98 312.226 L2242.98 273.346 Z" fill="#000000" fill-rule="nonzero" fill-opacity="1" /><path clip-path="url(#clip640)" d="M2283.09 273.346 L2290.93 273.346 L2300.85 299.804 L2310.82 273.346 L2318.66 273.346 L2318.66 312.226 L2313.53 312.226 L2313.53 278.085 L2303.5 304.752 L2298.22 304.752 L2288.19 278.085 L2288.19 312.226 L2283.09 312.226 L2283.09 273.346 Z" fill="#000000" fill-rule="nonzero" fill-opacity="1" /><path clip-path="url(#clip640)" d="M2329.1 273.346 L2336.94 273.346 L2346.86 299.804 L2356.84 273.346 L2364.67 273.346 L2364.67 312.226 L2359.54 312.226 L2359.54 278.085 L2349.52 304.752 L2344.23 304.752 L2334.21 278.085 L2334.21 312.226 L2329.1 312.226 L2329.1 273.346 Z" fill="#000000" fill-rule="nonzero" fill-opacity="1" /><path clip-path="url(#clip640)" d="M2403.37 271.757 Q2399.88 277.747 2398.19 283.606 Q2396.5 289.466 2396.5 295.481 Q2396.5 301.497 2398.19 307.408 Q2399.91 313.294 2403.37 319.257 L2399.21 319.257 Q2395.3 313.137 2393.35 307.226 Q2391.42 301.314 2391.42 295.481 Q2391.42 289.674 2393.35 283.788 Q2395.27 277.903 2399.21 271.757 L2403.37 271.757 Z" fill="#000000" fill-rule="nonzero" fill-opacity="1" /><path clip-path="url(#clip640)" d="M2435.38 288.658 Q2437.17 285.429 2439.67 283.893 Q2442.17 282.356 2445.56 282.356 Q2450.12 282.356 2452.59 285.559 Q2455.06 288.736 2455.06 294.622 L2455.06 312.226 L2450.25 312.226 L2450.25 294.778 Q2450.25 290.585 2448.76 288.554 Q2447.28 286.523 2444.23 286.523 Q2440.51 286.523 2438.35 288.997 Q2436.18 291.471 2436.18 295.742 L2436.18 312.226 L2431.37 312.226 L2431.37 294.778 Q2431.37 290.559 2429.88 288.554 Q2428.4 286.523 2425.3 286.523 Q2421.63 286.523 2419.47 289.023 Q2417.3 291.497 2417.3 295.742 L2417.3 312.226 L2412.49 312.226 L2412.49 283.059 L2417.3 283.059 L2417.3 287.591 Q2418.95 284.908 2421.24 283.632 Q2423.53 282.356 2426.68 282.356 Q2429.86 282.356 2432.07 283.971 Q2434.31 285.585 2435.38 288.658 Z" fill="#000000" fill-rule="nonzero" fill-opacity="1" /><path clip-path="url(#clip640)" d="M2489.57 296.445 L2489.57 298.788 L2467.54 298.788 Q2467.85 303.736 2470.51 306.34 Q2473.19 308.919 2477.96 308.919 Q2480.72 308.919 2483.29 308.241 Q2485.9 307.564 2488.45 306.21 L2488.45 310.741 Q2485.87 311.835 2483.16 312.408 Q2480.46 312.981 2477.67 312.981 Q2470.69 312.981 2466.6 308.919 Q2462.54 304.856 2462.54 297.929 Q2462.54 290.768 2466.39 286.575 Q2470.27 282.356 2476.84 282.356 Q2482.72 282.356 2486.13 286.158 Q2489.57 289.934 2489.57 296.445 M2484.78 295.038 Q2484.73 291.106 2482.56 288.762 Q2480.43 286.419 2476.89 286.419 Q2472.88 286.419 2470.46 288.684 Q2468.06 290.95 2467.7 295.064 L2484.78 295.038 Z" fill="#000000" fill-rule="nonzero" fill-opacity="1" /><path clip-path="url(#clip640)" d="M2510.69 297.564 Q2504.88 297.564 2502.64 298.893 Q2500.4 300.221 2500.4 303.424 Q2500.4 305.976 2502.07 307.486 Q2503.76 308.971 2506.65 308.971 Q2510.64 308.971 2513.03 306.158 Q2515.46 303.32 2515.46 298.632 L2515.46 297.564 L2510.69 297.564 M2520.25 295.585 L2520.25 312.226 L2515.46 312.226 L2515.46 307.799 Q2513.81 310.455 2511.37 311.731 Q2508.92 312.981 2505.38 312.981 Q2500.9 312.981 2498.24 310.481 Q2495.61 307.955 2495.61 303.736 Q2495.61 298.814 2498.89 296.314 Q2502.2 293.814 2508.74 293.814 L2515.46 293.814 L2515.46 293.346 Q2515.46 290.038 2513.27 288.242 Q2511.11 286.419 2507.17 286.419 Q2504.67 286.419 2502.3 287.018 Q2499.93 287.617 2497.75 288.814 L2497.75 284.387 Q2500.38 283.372 2502.85 282.877 Q2505.33 282.356 2507.67 282.356 Q2514 282.356 2517.12 285.637 Q2520.25 288.919 2520.25 295.585 Z" fill="#000000" fill-rule="nonzero" fill-opacity="1" /><path clip-path="url(#clip640)" d="M2554.36 294.622 L2554.36 312.226 L2549.57 312.226 L2549.57 294.778 Q2549.57 290.637 2547.96 288.58 Q2546.34 286.523 2543.11 286.523 Q2539.23 286.523 2536.99 288.997 Q2534.75 291.471 2534.75 295.742 L2534.75 312.226 L2529.93 312.226 L2529.93 283.059 L2534.75 283.059 L2534.75 287.591 Q2536.47 284.96 2538.79 283.658 Q2541.13 282.356 2544.18 282.356 Q2549.21 282.356 2551.78 285.481 Q2554.36 288.58 2554.36 294.622 Z" fill="#000000" fill-rule="nonzero" fill-opacity="1" /><path clip-path="url(#clip640)" d="M2563.16 271.757 L2567.33 271.757 Q2571.24 277.903 2573.16 283.788 Q2575.12 289.674 2575.12 295.481 Q2575.12 301.314 2573.16 307.226 Q2571.24 313.137 2567.33 319.257 L2563.16 319.257 Q2566.63 313.294 2568.32 307.408 Q2570.04 301.497 2570.04 295.481 Q2570.04 289.466 2568.32 283.606 Q2566.63 277.747 2563.16 271.757 Z" fill="#000000" fill-rule="nonzero" fill-opacity="1" /><path clip-path="url(#clip640)" d="M2030.43 374.434 L2178.78 374.434 L2178.78 327.778 L2030.43 327.778 L2030.43 374.434  Z" fill="#000080" fill-rule="evenodd" fill-opacity="0.15"/>
<polyline clip-path="url(#clip640)" style="stroke:#000080; stroke-linecap:round; stroke-linejoin:round; stroke-width:4.5; stroke-opacity:0.15; fill:none" points="2030.43,327.778 2178.78,327.778 "/>
<path clip-path="url(#clip640)" d="M2204.26 366.119 L2212.85 366.119 L2212.85 336.457 L2203.5 338.332 L2203.5 333.541 L2212.8 331.666 L2218.06 331.666 L2218.06 366.119 L2226.65 366.119 L2226.65 370.546 L2204.26 370.546 L2204.26 366.119 Z" fill="#000000" fill-rule="nonzero" fill-opacity="1" /><path clip-path="url(#clip640)" d="M2248.53 335.129 Q2244.47 335.129 2242.41 339.14 Q2240.38 343.124 2240.38 351.145 Q2240.38 359.14 2242.41 363.15 Q2244.47 367.134 2248.53 367.134 Q2252.62 367.134 2254.65 363.15 Q2256.71 359.14 2256.71 351.145 Q2256.71 343.124 2254.65 339.14 Q2252.62 335.129 2248.53 335.129 M2248.53 330.963 Q2255.07 330.963 2258.5 336.145 Q2261.97 341.301 2261.97 351.145 Q2261.97 360.963 2258.5 366.145 Q2255.07 371.301 2248.53 371.301 Q2241.99 371.301 2238.53 366.145 Q2235.09 360.963 2235.09 351.145 Q2235.09 341.301 2238.53 336.145 Q2241.99 330.963 2248.53 330.963 Z" fill="#000000" fill-rule="nonzero" fill-opacity="1" /><path clip-path="url(#clip640)" d="M2268.11 353.801 L2282.15 353.801 L2282.15 358.072 L2268.11 358.072 L2268.11 353.801 Z" fill="#000000" fill-rule="nonzero" fill-opacity="1" /><path clip-path="url(#clip640)" d="M2290.61 369.739 L2290.61 364.947 Q2292.59 365.884 2294.62 366.379 Q2296.65 366.874 2298.61 366.874 Q2303.82 366.874 2306.55 363.384 Q2309.31 359.869 2309.7 352.733 Q2308.19 354.973 2305.87 356.171 Q2303.56 357.369 2300.74 357.369 Q2294.91 357.369 2291.5 353.853 Q2288.11 350.312 2288.11 344.192 Q2288.11 338.202 2291.65 334.582 Q2295.2 330.963 2301.08 330.963 Q2307.83 330.963 2311.37 336.145 Q2314.94 341.301 2314.94 351.145 Q2314.94 360.338 2310.56 365.832 Q2306.21 371.301 2298.84 371.301 Q2296.86 371.301 2294.83 370.91 Q2292.8 370.52 2290.61 369.739 M2301.08 353.254 Q2304.62 353.254 2306.68 350.832 Q2308.76 348.411 2308.76 344.192 Q2308.76 339.999 2306.68 337.577 Q2304.62 335.129 2301.08 335.129 Q2297.54 335.129 2295.46 337.577 Q2293.4 339.999 2293.4 344.192 Q2293.4 348.411 2295.46 350.832 Q2297.54 353.254 2301.08 353.254 Z" fill="#000000" fill-rule="nonzero" fill-opacity="1" /><path clip-path="url(#clip640)" d="M2335.64 335.129 Q2331.58 335.129 2329.52 339.14 Q2327.49 343.124 2327.49 351.145 Q2327.49 359.14 2329.52 363.15 Q2331.58 367.134 2335.64 367.134 Q2339.73 367.134 2341.76 363.15 Q2343.82 359.14 2343.82 351.145 Q2343.82 343.124 2341.76 339.14 Q2339.73 335.129 2335.64 335.129 M2335.64 330.963 Q2342.17 330.963 2345.61 336.145 Q2349.08 341.301 2349.08 351.145 Q2349.08 360.963 2345.61 366.145 Q2342.17 371.301 2335.64 371.301 Q2329.1 371.301 2325.64 366.145 Q2322.2 360.963 2322.2 351.145 Q2322.2 341.301 2325.64 336.145 Q2329.1 330.963 2335.64 330.963 Z" fill="#000000" fill-rule="nonzero" fill-opacity="1" /><path clip-path="url(#clip640)" d="M2362.38 333.098 L2362.38 341.379 L2372.25 341.379 L2372.25 345.103 L2362.38 345.103 L2362.38 360.937 Q2362.38 364.504 2363.35 365.52 Q2364.34 366.535 2367.33 366.535 L2372.25 366.535 L2372.25 370.546 L2367.33 370.546 Q2361.78 370.546 2359.67 368.489 Q2357.57 366.405 2357.57 360.937 L2357.57 345.103 L2354.05 345.103 L2354.05 341.379 L2357.57 341.379 L2357.57 333.098 L2362.38 333.098 Z" fill="#000000" fill-rule="nonzero" fill-opacity="1" /><path clip-path="url(#clip640)" d="M2402.8 352.942 L2402.8 370.546 L2398.01 370.546 L2398.01 353.098 Q2398.01 348.957 2396.39 346.9 Q2394.78 344.843 2391.55 344.843 Q2387.67 344.843 2385.43 347.317 Q2383.19 349.791 2383.19 354.062 L2383.19 370.546 L2378.37 370.546 L2378.37 330.025 L2383.19 330.025 L2383.19 345.911 Q2384.91 343.28 2387.23 341.978 Q2389.57 340.676 2392.62 340.676 Q2397.64 340.676 2400.22 343.801 Q2402.8 346.9 2402.8 352.942 Z" fill="#000000" fill-rule="nonzero" fill-opacity="1" /><path clip-path="url(#clip640)" d="M2433.95 366.171 L2433.95 381.64 L2429.13 381.64 L2429.13 341.379 L2433.95 341.379 L2433.95 345.806 Q2435.46 343.202 2437.75 341.952 Q2440.06 340.676 2443.27 340.676 Q2448.58 340.676 2451.89 344.895 Q2455.22 349.114 2455.22 355.989 Q2455.22 362.864 2451.89 367.082 Q2448.58 371.301 2443.27 371.301 Q2440.06 371.301 2437.75 370.051 Q2435.46 368.775 2433.95 366.171 M2450.25 355.989 Q2450.25 350.702 2448.06 347.707 Q2445.9 344.687 2442.1 344.687 Q2438.29 344.687 2436.11 347.707 Q2433.95 350.702 2433.95 355.989 Q2433.95 361.275 2436.11 364.296 Q2438.29 367.291 2442.1 367.291 Q2445.9 367.291 2448.06 364.296 Q2450.25 361.275 2450.25 355.989 Z" fill="#000000" fill-rule="nonzero" fill-opacity="1" /><path clip-path="url(#clip640)" d="M2484.15 342.499 L2484.15 346.978 Q2482.12 345.858 2480.06 345.312 Q2478.03 344.739 2475.95 344.739 Q2471.29 344.739 2468.71 347.707 Q2466.13 350.65 2466.13 355.989 Q2466.13 361.327 2468.71 364.296 Q2471.29 367.239 2475.95 367.239 Q2478.03 367.239 2480.06 366.692 Q2482.12 366.119 2484.15 364.999 L2484.15 369.426 Q2482.15 370.364 2479.99 370.832 Q2477.85 371.301 2475.43 371.301 Q2468.84 371.301 2464.96 367.16 Q2461.08 363.02 2461.08 355.989 Q2461.08 348.853 2464.99 344.765 Q2468.92 340.676 2475.74 340.676 Q2477.96 340.676 2480.06 341.145 Q2482.17 341.588 2484.15 342.499 Z" fill="#000000" fill-rule="nonzero" fill-opacity="1" /><path clip-path="url(#clip640)" d="M2497.23 333.098 L2497.23 341.379 L2507.1 341.379 L2507.1 345.103 L2497.23 345.103 L2497.23 360.937 Q2497.23 364.504 2498.19 365.52 Q2499.18 366.535 2502.17 366.535 L2507.1 366.535 L2507.1 370.546 L2502.17 370.546 Q2496.63 370.546 2494.52 368.489 Q2492.41 366.405 2492.41 360.937 L2492.41 345.103 L2488.89 345.103 L2488.89 341.379 L2492.41 341.379 L2492.41 333.098 L2497.23 333.098 Z" fill="#000000" fill-rule="nonzero" fill-opacity="1" /><path clip-path="url(#clip640)" d="M2513.4 330.025 L2518.19 330.025 L2518.19 370.546 L2513.4 370.546 L2513.4 330.025 Z" fill="#000000" fill-rule="nonzero" fill-opacity="1" /></svg>
