<?xml version="1.0" encoding="utf-8"?>
<svg xmlns="http://www.w3.org/2000/svg" xmlns:xlink="http://www.w3.org/1999/xlink" width="600" height="400" viewBox="0 0 2400 1600">
<defs>
  <clipPath id="clip040">
    <rect x="0" y="0" width="2400" height="1600"/>
  </clipPath>
</defs>
<path clip-path="url(#clip040)" d="M0 1600 L2400 1600 L2400 8.88178e-14 L0 8.88178e-14  Z" fill="#ffffff" fill-rule="evenodd" fill-opacity="1"/>
<defs>
  <clipPath id="clip041">
    <rect x="202" y="106" width="2152" height="1318"/>
  </clipPath>
</defs>
<path clip-path="url(#clip040)" d="M249.542 1423.18 L2352.76 1423.18 L2352.76 106.192 L249.542 106.192  Z" fill="#ffffff" fill-rule="evenodd" fill-opacity="1"/>
<defs>
  <clipPath id="clip042">
    <rect x="249" y="106" width="2104" height="1318"/>
  </clipPath>
</defs>
<polyline clip-path="url(#clip042)" style="stroke:#000000; stroke-linecap:round; stroke-linejoin:round; stroke-width:2; stroke-opacity:0.1; fill:none" points="270.044,1423.18 270.044,106.192 "/>
<polyline clip-path="url(#clip042)" style="stroke:#000000; stroke-linecap:round; stroke-linejoin:round; stroke-width:2; stroke-opacity:0.1; fill:none" points="587.307,1423.18 587.307,106.192 "/>
<polyline clip-path="url(#clip042)" style="stroke:#000000; stroke-linecap:round; stroke-linejoin:round; stroke-width:2; stroke-opacity:0.1; fill:none" points="904.57,1423.18 904.57,106.192 "/>
<polyline clip-path="url(#clip042)" style="stroke:#000000; stroke-linecap:round; stroke-linejoin:round; stroke-width:2; stroke-opacity:0.1; fill:none" points="1221.83,1423.18 1221.83,106.192 "/>
<polyline clip-path="url(#clip042)" style="stroke:#000000; stroke-linecap:round; stroke-linejoin:round; stroke-width:2; stroke-opacity:0.1; fill:none" points="1539.1,1423.18 1539.1,106.192 "/>
<polyline clip-path="url(#clip042)" style="stroke:#000000; stroke-linecap:round; stroke-linejoin:round; stroke-width:2; stroke-opacity:0.1; fill:none" points="1856.36,1423.18 1856.36,106.192 "/>
<polyline clip-path="url(#clip042)" style="stroke:#000000; stroke-linecap:round; stroke-linejoin:round; stroke-width:2; stroke-opacity:0.1; fill:none" points="2173.62,1423.18 2173.62,106.192 "/>
<polyline clip-path="url(#clip042)" style="stroke:#000000; stroke-linecap:round; stroke-linejoin:round; stroke-width:2; stroke-opacity:0.1; fill:none" points="249.542,1423.18 2352.76,1423.18 "/>
<polyline clip-path="url(#clip042)" style="stroke:#000000; stroke-linecap:round; stroke-linejoin:round; stroke-width:2; stroke-opacity:0.1; fill:none" points="249.542,1178.14 2352.76,1178.14 "/>
<polyline clip-path="url(#clip042)" style="stroke:#000000; stroke-linecap:round; stroke-linejoin:round; stroke-width:2; stroke-opacity:0.1; fill:none" points="249.542,933.096 2352.76,933.096 "/>
<polyline clip-path="url(#clip042)" style="stroke:#000000; stroke-linecap:round; stroke-linejoin:round; stroke-width:2; stroke-opacity:0.1; fill:none" points="249.542,688.055 2352.76,688.055 "/>
<polyline clip-path="url(#clip042)" style="stroke:#000000; stroke-linecap:round; stroke-linejoin:round; stroke-width:2; stroke-opacity:0.1; fill:none" points="249.542,443.013 2352.76,443.013 "/>
<polyline clip-path="url(#clip042)" style="stroke:#000000; stroke-linecap:round; stroke-linejoin:round; stroke-width:2; stroke-opacity:0.1; fill:none" points="249.542,197.971 2352.76,197.971 "/>
<polyline clip-path="url(#clip040)" style="stroke:#000000; stroke-linecap:round; stroke-linejoin:round; stroke-width:4; stroke-opacity:1; fill:none" points="249.542,1423.18 2352.76,1423.18 "/>
<polyline clip-path="url(#clip040)" style="stroke:#000000; stroke-linecap:round; stroke-linejoin:round; stroke-width:4; stroke-opacity:1; fill:none" points="270.044,1423.18 270.044,1404.28 "/>
<polyline clip-path="url(#clip040)" style="stroke:#000000; stroke-linecap:round; stroke-linejoin:round; stroke-width:4; stroke-opacity:1; fill:none" points="587.307,1423.18 587.307,1404.28 "/>
<polyline clip-path="url(#clip040)" style="stroke:#000000; stroke-linecap:round; stroke-linejoin:round; stroke-width:4; stroke-opacity:1; fill:none" points="904.57,1423.18 904.57,1404.28 "/>
<polyline clip-path="url(#clip040)" style="stroke:#000000; stroke-linecap:round; stroke-linejoin:round; stroke-width:4; stroke-opacity:1; fill:none" points="1221.83,1423.18 1221.83,1404.28 "/>
<polyline clip-path="url(#clip040)" style="stroke:#000000; stroke-linecap:round; stroke-linejoin:round; stroke-width:4; stroke-opacity:1; fill:none" points="1539.1,1423.18 1539.1,1404.28 "/>
<polyline clip-path="url(#clip040)" style="stroke:#000000; stroke-linecap:round; stroke-linejoin:round; stroke-width:4; stroke-opacity:1; fill:none" points="1856.36,1423.18 1856.36,1404.28 "/>
<polyline clip-path="url(#clip040)" style="stroke:#000000; stroke-linecap:round; stroke-linejoin:round; stroke-width:4; stroke-opacity:1; fill:none" points="2173.62,1423.18 2173.62,1404.28 "/>
<path clip-path="url(#clip040)" d="M270.044 1454.1 Q266.432 1454.1 264.604 1457.66 Q262.798 1461.2 262.798 1468.33 Q262.798 1475.44 264.604 1479.01 Q266.432 1482.55 270.044 1482.55 Q273.678 1482.55 275.483 1479.01 Q277.312 1475.44 277.312 1468.33 Q277.312 1461.2 275.483 1457.66 Q273.678 1454.1 270.044 1454.1 M270.044 1450.39 Q275.854 1450.39 278.909 1455 Q281.988 1459.58 281.988 1468.33 Q281.988 1477.06 278.909 1481.67 Q275.854 1486.25 270.044 1486.25 Q264.233 1486.25 261.155 1481.67 Q258.099 1477.06 258.099 1468.33 Q258.099 1459.58 261.155 1455 Q264.233 1450.39 270.044 1450.39 Z" fill="#000000" fill-rule="nonzero" fill-opacity="1" /><path clip-path="url(#clip040)" d="M581.96 1481.64 L598.279 1481.64 L598.279 1485.58 L576.335 1485.58 L576.335 1481.64 Q578.997 1478.89 583.58 1474.26 Q588.186 1469.61 589.367 1468.27 Q591.612 1465.74 592.492 1464.01 Q593.395 1462.25 593.395 1460.56 Q593.395 1457.8 591.45 1456.07 Q589.529 1454.33 586.427 1454.33 Q584.228 1454.33 581.774 1455.09 Q579.344 1455.86 576.566 1457.41 L576.566 1452.69 Q579.39 1451.55 581.844 1450.97 Q584.298 1450.39 586.335 1450.39 Q591.705 1450.39 594.899 1453.08 Q598.094 1455.77 598.094 1460.26 Q598.094 1462.39 597.284 1464.31 Q596.497 1466.2 594.39 1468.8 Q593.811 1469.47 590.71 1472.69 Q587.608 1475.88 581.96 1481.64 Z" fill="#000000" fill-rule="nonzero" fill-opacity="1" /><path clip-path="url(#clip040)" d="M907.579 1455.09 L895.774 1473.54 L907.579 1473.54 L907.579 1455.09 M906.352 1451.02 L912.232 1451.02 L912.232 1473.54 L917.162 1473.54 L917.162 1477.43 L912.232 1477.43 L912.232 1485.58 L907.579 1485.58 L907.579 1477.43 L891.977 1477.43 L891.977 1472.92 L906.352 1451.02 Z" fill="#000000" fill-rule="nonzero" fill-opacity="1" /><path clip-path="url(#clip040)" d="M1222.24 1466.44 Q1219.09 1466.44 1217.24 1468.59 Q1215.41 1470.74 1215.41 1474.49 Q1215.41 1478.22 1217.24 1480.39 Q1219.09 1482.55 1222.24 1482.55 Q1225.39 1482.55 1227.22 1480.39 Q1229.07 1478.22 1229.07 1474.49 Q1229.07 1470.74 1227.22 1468.59 Q1225.39 1466.44 1222.24 1466.44 M1231.52 1451.78 L1231.52 1456.04 Q1229.76 1455.21 1227.96 1454.77 Q1226.17 1454.33 1224.41 1454.33 Q1219.78 1454.33 1217.33 1457.45 Q1214.9 1460.58 1214.55 1466.9 Q1215.92 1464.89 1217.98 1463.82 Q1220.04 1462.73 1222.52 1462.73 Q1227.72 1462.73 1230.73 1465.9 Q1233.77 1469.05 1233.77 1474.49 Q1233.77 1479.82 1230.62 1483.03 Q1227.47 1486.25 1222.24 1486.25 Q1216.24 1486.25 1213.07 1481.67 Q1209.9 1477.06 1209.9 1468.33 Q1209.9 1460.14 1213.79 1455.28 Q1217.68 1450.39 1224.23 1450.39 Q1225.99 1450.39 1227.77 1450.74 Q1229.58 1451.09 1231.52 1451.78 Z" fill="#000000" fill-rule="nonzero" fill-opacity="1" /><path clip-path="url(#clip040)" d="M1539.1 1469.17 Q1535.76 1469.17 1533.84 1470.95 Q1531.94 1472.73 1531.94 1475.86 Q1531.94 1478.98 1533.84 1480.77 Q1535.76 1482.55 1539.1 1482.55 Q1542.43 1482.55 1544.35 1480.77 Q1546.27 1478.96 1546.27 1475.86 Q1546.27 1472.73 1544.35 1470.95 Q1542.45 1469.17 1539.1 1469.17 M1534.42 1467.18 Q1531.41 1466.44 1529.72 1464.38 Q1528.05 1462.32 1528.05 1459.35 Q1528.05 1455.21 1530.99 1452.8 Q1533.96 1450.39 1539.1 1450.39 Q1544.26 1450.39 1547.2 1452.8 Q1550.14 1455.21 1550.14 1459.35 Q1550.14 1462.32 1548.45 1464.38 Q1546.78 1466.44 1543.8 1467.18 Q1547.18 1467.96 1549.05 1470.26 Q1550.95 1472.55 1550.95 1475.86 Q1550.95 1480.88 1547.87 1483.57 Q1544.81 1486.25 1539.1 1486.25 Q1533.38 1486.25 1530.3 1483.57 Q1527.24 1480.88 1527.24 1475.86 Q1527.24 1472.55 1529.14 1470.26 Q1531.04 1467.96 1534.42 1467.18 M1532.71 1459.79 Q1532.71 1462.48 1534.37 1463.98 Q1536.06 1465.49 1539.1 1465.49 Q1542.11 1465.49 1543.8 1463.98 Q1545.51 1462.48 1545.51 1459.79 Q1545.51 1457.11 1543.8 1455.6 Q1542.11 1454.1 1539.1 1454.1 Q1536.06 1454.1 1534.37 1455.6 Q1532.71 1457.11 1532.71 1459.79 Z" fill="#000000" fill-rule="nonzero" fill-opacity="1" /><path clip-path="url(#clip040)" d="M1831.05 1481.64 L1838.69 1481.64 L1838.69 1455.28 L1830.38 1456.95 L1830.38 1452.69 L1838.64 1451.02 L1843.32 1451.02 L1843.32 1481.64 L1850.95 1481.64 L1850.95 1485.58 L1831.05 1485.58 L1831.05 1481.64 Z" fill="#000000" fill-rule="nonzero" fill-opacity="1" /><path clip-path="url(#clip040)" d="M1870.4 1454.1 Q1866.79 1454.1 1864.96 1457.66 Q1863.15 1461.2 1863.15 1468.33 Q1863.15 1475.44 1864.96 1479.01 Q1866.79 1482.55 1870.4 1482.55 Q1874.03 1482.55 1875.84 1479.01 Q1877.67 1475.44 1877.67 1468.33 Q1877.67 1461.2 1875.84 1457.66 Q1874.03 1454.1 1870.4 1454.1 M1870.4 1450.39 Q1876.21 1450.39 1879.26 1455 Q1882.34 1459.58 1882.34 1468.33 Q1882.34 1477.06 1879.26 1481.67 Q1876.21 1486.25 1870.4 1486.25 Q1864.59 1486.25 1861.51 1481.67 Q1858.45 1477.06 1858.45 1468.33 Q1858.45 1459.58 1861.51 1455 Q1864.59 1450.39 1870.4 1450.39 Z" fill="#000000" fill-rule="nonzero" fill-opacity="1" /><path clip-path="url(#clip040)" d="M2149.11 1481.64 L2156.75 1481.64 L2156.75 1455.28 L2148.44 1456.95 L2148.44 1452.69 L2156.7 1451.02 L2161.38 1451.02 L2161.38 1481.64 L2169.02 1481.64 L2169.02 1485.58 L2149.11 1485.58 L2149.11 1481.64 Z" fill="#000000" fill-rule="nonzero" fill-opacity="1" /><path clip-path="url(#clip040)" d="M2182.49 1481.64 L2198.81 1481.64 L2198.81 1485.58 L2176.86 1485.58 L2176.86 1481.64 Q2179.53 1478.89 2184.11 1474.26 Q2188.72 1469.61 2189.9 1468.27 Q2192.14 1465.74 2193.02 1464.01 Q2193.92 1462.25 2193.92 1460.56 Q2193.92 1457.8 2191.98 1456.07 Q2190.06 1454.33 2186.96 1454.33 Q2184.76 1454.33 2182.3 1455.09 Q2179.87 1455.86 2177.09 1457.41 L2177.09 1452.69 Q2179.92 1451.55 2182.37 1450.97 Q2184.83 1450.39 2186.86 1450.39 Q2192.23 1450.39 2195.43 1453.08 Q2198.62 1455.77 2198.62 1460.26 Q2198.62 1462.39 2197.81 1464.31 Q2197.03 1466.2 2194.92 1468.8 Q2194.34 1469.47 2191.24 1472.69 Q2188.14 1475.88 2182.49 1481.64 Z" fill="#000000" fill-rule="nonzero" fill-opacity="1" /><path clip-path="url(#clip040)" d="M1249.35 1522.08 L1249.35 1528.35 Q1245.69 1526.6 1242.44 1525.74 Q1239.19 1524.88 1236.17 1524.88 Q1230.92 1524.88 1228.05 1526.92 Q1225.22 1528.96 1225.22 1532.71 Q1225.22 1535.87 1227.1 1537.49 Q1229.01 1539.08 1234.29 1540.07 L1238.18 1540.86 Q1245.37 1542.23 1248.78 1545.7 Q1252.21 1549.14 1252.21 1554.93 Q1252.21 1561.84 1247.57 1565.4 Q1242.95 1568.97 1234.01 1568.97 Q1230.63 1568.97 1226.81 1568.2 Q1223.03 1567.44 1218.95 1565.94 L1218.95 1559.32 Q1222.87 1561.52 1226.62 1562.63 Q1230.38 1563.75 1234.01 1563.75 Q1239.51 1563.75 1242.5 1561.58 Q1245.5 1559.42 1245.5 1555.41 Q1245.5 1551.91 1243.33 1549.93 Q1241.2 1547.96 1236.3 1546.97 L1232.38 1546.21 Q1225.19 1544.78 1221.98 1541.72 Q1218.76 1538.67 1218.76 1533.22 Q1218.76 1526.92 1223.18 1523.29 Q1227.64 1519.66 1235.44 1519.66 Q1238.78 1519.66 1242.25 1520.27 Q1245.72 1520.87 1249.35 1522.08 Z" fill="#000000" fill-rule="nonzero" fill-opacity="1" /><path clip-path="url(#clip040)" d="M1267.78 1522.27 L1267.78 1532.4 L1279.84 1532.4 L1279.84 1536.95 L1267.78 1536.95 L1267.78 1556.3 Q1267.78 1560.66 1268.95 1561.9 Q1270.16 1563.14 1273.82 1563.14 L1279.84 1563.14 L1279.84 1568.04 L1273.82 1568.04 Q1267.04 1568.04 1264.47 1565.53 Q1261.89 1562.98 1261.89 1556.3 L1261.89 1536.95 L1257.59 1536.95 L1257.59 1532.4 L1261.89 1532.4 L1261.89 1522.27 L1267.78 1522.27 Z" fill="#000000" fill-rule="nonzero" fill-opacity="1" /><path clip-path="url(#clip040)" d="M1303.74 1550.12 Q1296.65 1550.12 1293.91 1551.75 Q1291.17 1553.37 1291.17 1557.29 Q1291.17 1560.4 1293.21 1562.25 Q1295.28 1564.07 1298.81 1564.07 Q1303.68 1564.07 1306.61 1560.63 Q1309.57 1557.16 1309.57 1551.43 L1309.57 1550.12 L1303.74 1550.12 M1315.42 1547.71 L1315.42 1568.04 L1309.57 1568.04 L1309.57 1562.63 Q1307.56 1565.88 1304.57 1567.44 Q1301.58 1568.97 1297.25 1568.97 Q1291.78 1568.97 1288.53 1565.91 Q1285.31 1562.82 1285.31 1557.67 Q1285.31 1551.65 1289.32 1548.6 Q1293.37 1545.54 1301.36 1545.54 L1309.57 1545.54 L1309.57 1544.97 Q1309.57 1540.93 1306.89 1538.73 Q1304.25 1536.5 1299.45 1536.5 Q1296.39 1536.5 1293.49 1537.23 Q1290.6 1537.97 1287.92 1539.43 L1287.92 1534.02 Q1291.14 1532.78 1294.16 1532.17 Q1297.19 1531.54 1300.05 1531.54 Q1307.79 1531.54 1311.6 1535.55 Q1315.42 1539.56 1315.42 1547.71 Z" fill="#000000" fill-rule="nonzero" fill-opacity="1" /><path clip-path="url(#clip040)" d="M1333.28 1522.27 L1333.28 1532.4 L1345.34 1532.4 L1345.34 1536.95 L1333.28 1536.95 L1333.28 1556.3 Q1333.28 1560.66 1334.46 1561.9 Q1335.67 1563.14 1339.33 1563.14 L1345.34 1563.14 L1345.34 1568.04 L1339.33 1568.04 Q1332.55 1568.04 1329.97 1565.53 Q1327.39 1562.98 1327.39 1556.3 L1327.39 1536.95 L1323.09 1536.95 L1323.09 1532.4 L1327.39 1532.4 L1327.39 1522.27 L1333.28 1522.27 Z" fill="#000000" fill-rule="nonzero" fill-opacity="1" /><path clip-path="url(#clip040)" d="M1383.54 1548.76 L1383.54 1551.62 L1356.61 1551.62 Q1356.99 1557.67 1360.24 1560.85 Q1363.52 1564 1369.34 1564 Q1372.72 1564 1375.87 1563.17 Q1379.05 1562.35 1382.17 1560.69 L1382.17 1566.23 Q1379.02 1567.57 1375.71 1568.27 Q1372.4 1568.97 1368.99 1568.97 Q1360.46 1568.97 1355.46 1564 Q1350.5 1559.04 1350.5 1550.57 Q1350.5 1541.82 1355.21 1536.69 Q1359.95 1531.54 1367.97 1531.54 Q1375.17 1531.54 1379.34 1536.18 Q1383.54 1540.8 1383.54 1548.76 M1377.68 1547.04 Q1377.62 1542.23 1374.98 1539.37 Q1372.37 1536.5 1368.04 1536.5 Q1363.14 1536.5 1360.17 1539.27 Q1357.25 1542.04 1356.8 1547.07 L1377.68 1547.04 Z" fill="#000000" fill-rule="nonzero" fill-opacity="1" /><polyline clip-path="url(#clip040)" style="stroke:#000000; stroke-linecap:round; stroke-linejoin:round; stroke-width:4; stroke-opacity:1; fill:none" points="249.542,1423.18 249.542,106.192 "/>
<polyline clip-path="url(#clip040)" style="stroke:#000000; stroke-linecap:round; stroke-linejoin:round; stroke-width:4; stroke-opacity:1; fill:none" points="249.542,1423.18 268.44,1423.18 "/>
<polyline clip-path="url(#clip040)" style="stroke:#000000; stroke-linecap:round; stroke-linejoin:round; stroke-width:4; stroke-opacity:1; fill:none" points="249.542,1178.14 268.44,1178.14 "/>
<polyline clip-path="url(#clip040)" style="stroke:#000000; stroke-linecap:round; stroke-linejoin:round; stroke-width:4; stroke-opacity:1; fill:none" points="249.542,933.096 268.44,933.096 "/>
<polyline clip-path="url(#clip040)" style="stroke:#000000; stroke-linecap:round; stroke-linejoin:round; stroke-width:4; stroke-opacity:1; fill:none" points="249.542,688.055 268.44,688.055 "/>
<polyline clip-path="url(#clip040)" style="stroke:#000000; stroke-linecap:round; stroke-linejoin:round; stroke-width:4; stroke-opacity:1; fill:none" points="249.542,443.013 268.44,443.013 "/>
<polyline clip-path="url(#clip040)" style="stroke:#000000; stroke-linecap:round; stroke-linejoin:round; stroke-width:4; stroke-opacity:1; fill:none" points="249.542,197.971 268.44,197.971 "/>
<path clip-path="url(#clip040)" d="M126.205 1408.98 Q122.593 1408.98 120.765 1412.54 Q118.959 1416.08 118.959 1423.21 Q118.959 1430.32 120.765 1433.89 Q122.593 1437.43 126.205 1437.43 Q129.839 1437.43 131.644 1433.89 Q133.473 1430.32 133.473 1423.21 Q133.473 1416.08 131.644 1412.54 Q129.839 1408.98 126.205 1408.98 M126.205 1405.27 Q132.015 1405.27 135.07 1409.88 Q138.149 1414.46 138.149 1423.21 Q138.149 1431.94 135.07 1436.55 Q132.015 1441.13 126.205 1441.13 Q120.394 1441.13 117.316 1436.55 Q114.26 1431.94 114.26 1423.21 Q114.26 1414.46 117.316 1409.88 Q120.394 1405.27 126.205 1405.27 Z" fill="#000000" fill-rule="nonzero" fill-opacity="1" /><path clip-path="url(#clip040)" d="M146.366 1434.58 L151.251 1434.58 L151.251 1440.46 L146.366 1440.46 L146.366 1434.58 Z" fill="#000000" fill-rule="nonzero" fill-opacity="1" /><path clip-path="url(#clip040)" d="M171.436 1408.98 Q167.825 1408.98 165.996 1412.54 Q164.19 1416.08 164.19 1423.21 Q164.19 1430.32 165.996 1433.89 Q167.825 1437.43 171.436 1437.43 Q175.07 1437.43 176.876 1433.89 Q178.704 1430.32 178.704 1423.21 Q178.704 1416.08 176.876 1412.54 Q175.07 1408.98 171.436 1408.98 M171.436 1405.27 Q177.246 1405.27 180.301 1409.88 Q183.38 1414.46 183.38 1423.21 Q183.38 1431.94 180.301 1436.55 Q177.246 1441.13 171.436 1441.13 Q165.626 1441.13 162.547 1436.55 Q159.491 1431.94 159.491 1423.21 Q159.491 1414.46 162.547 1409.88 Q165.626 1405.27 171.436 1405.27 Z" fill="#000000" fill-rule="nonzero" fill-opacity="1" /><path clip-path="url(#clip040)" d="M201.598 1408.98 Q197.987 1408.98 196.158 1412.54 Q194.352 1416.08 194.352 1423.21 Q194.352 1430.32 196.158 1433.89 Q197.987 1437.43 201.598 1437.43 Q205.232 1437.43 207.037 1433.89 Q208.866 1430.32 208.866 1423.21 Q208.866 1416.08 207.037 1412.54 Q205.232 1408.98 201.598 1408.98 M201.598 1405.27 Q207.408 1405.27 210.463 1409.88 Q213.542 1414.46 213.542 1423.21 Q213.542 1431.94 210.463 1436.55 Q207.408 1441.13 201.598 1441.13 Q195.787 1441.13 192.709 1436.55 Q189.653 1431.94 189.653 1423.21 Q189.653 1414.46 192.709 1409.88 Q195.787 1405.27 201.598 1405.27 Z" fill="#000000" fill-rule="nonzero" fill-opacity="1" /><path clip-path="url(#clip040)" d="M127.2 1163.94 Q123.589 1163.94 121.76 1167.5 Q119.955 1171.04 119.955 1178.17 Q119.955 1185.28 121.76 1188.84 Q123.589 1192.39 127.2 1192.39 Q130.834 1192.39 132.64 1188.84 Q134.468 1185.28 134.468 1178.17 Q134.468 1171.04 132.64 1167.5 Q130.834 1163.94 127.2 1163.94 M127.2 1160.23 Q133.01 1160.23 136.066 1164.84 Q139.144 1169.42 139.144 1178.17 Q139.144 1186.9 136.066 1191.51 Q133.01 1196.09 127.2 1196.09 Q121.39 1196.09 118.311 1191.51 Q115.256 1186.9 115.256 1178.17 Q115.256 1169.42 118.311 1164.84 Q121.39 1160.23 127.2 1160.23 Z" fill="#000000" fill-rule="nonzero" fill-opacity="1" /><path clip-path="url(#clip040)" d="M147.362 1189.54 L152.246 1189.54 L152.246 1195.42 L147.362 1195.42 L147.362 1189.54 Z" fill="#000000" fill-rule="nonzero" fill-opacity="1" /><path clip-path="url(#clip040)" d="M172.431 1163.94 Q168.82 1163.94 166.991 1167.5 Q165.186 1171.04 165.186 1178.17 Q165.186 1185.28 166.991 1188.84 Q168.82 1192.39 172.431 1192.39 Q176.065 1192.39 177.871 1188.84 Q179.7 1185.28 179.7 1178.17 Q179.7 1171.04 177.871 1167.5 Q176.065 1163.94 172.431 1163.94 M172.431 1160.23 Q178.241 1160.23 181.297 1164.84 Q184.376 1169.42 184.376 1178.17 Q184.376 1186.9 181.297 1191.51 Q178.241 1196.09 172.431 1196.09 Q166.621 1196.09 163.542 1191.51 Q160.487 1186.9 160.487 1178.17 Q160.487 1169.42 163.542 1164.84 Q166.621 1160.23 172.431 1160.23 Z" fill="#000000" fill-rule="nonzero" fill-opacity="1" /><path clip-path="url(#clip040)" d="M192.639 1160.86 L210.996 1160.86 L210.996 1164.79 L196.922 1164.79 L196.922 1173.27 Q197.94 1172.92 198.959 1172.76 Q199.977 1172.57 200.996 1172.57 Q206.783 1172.57 210.162 1175.74 Q213.542 1178.91 213.542 1184.33 Q213.542 1189.91 210.07 1193.01 Q206.598 1196.09 200.278 1196.09 Q198.102 1196.09 195.834 1195.72 Q193.588 1195.35 191.181 1194.61 L191.181 1189.91 Q193.264 1191.04 195.487 1191.6 Q197.709 1192.15 200.186 1192.15 Q204.19 1192.15 206.528 1190.05 Q208.866 1187.94 208.866 1184.33 Q208.866 1180.72 206.528 1178.61 Q204.19 1176.51 200.186 1176.51 Q198.311 1176.51 196.436 1176.92 Q194.584 1177.34 192.639 1178.22 L192.639 1160.86 Z" fill="#000000" fill-rule="nonzero" fill-opacity="1" /><path clip-path="url(#clip040)" d="M126.205 918.895 Q122.593 918.895 120.765 922.46 Q118.959 926.001 118.959 933.131 Q118.959 940.237 120.765 943.802 Q122.593 947.344 126.205 947.344 Q129.839 947.344 131.644 943.802 Q133.473 940.237 133.473 933.131 Q133.473 926.001 131.644 922.46 Q129.839 918.895 126.205 918.895 M126.205 915.191 Q132.015 915.191 135.07 919.798 Q138.149 924.381 138.149 933.131 Q138.149 941.858 135.07 946.464 Q132.015 951.048 126.205 951.048 Q120.394 951.048 117.316 946.464 Q114.26 941.858 114.26 933.131 Q114.26 924.381 117.316 919.798 Q120.394 915.191 126.205 915.191 Z" fill="#000000" fill-rule="nonzero" fill-opacity="1" /><path clip-path="url(#clip040)" d="M146.366 944.497 L151.251 944.497 L151.251 950.376 L146.366 950.376 L146.366 944.497 Z" fill="#000000" fill-rule="nonzero" fill-opacity="1" /><path clip-path="url(#clip040)" d="M162.246 946.441 L169.885 946.441 L169.885 920.076 L161.575 921.742 L161.575 917.483 L169.839 915.816 L174.514 915.816 L174.514 946.441 L182.153 946.441 L182.153 950.376 L162.246 950.376 L162.246 946.441 Z" fill="#000000" fill-rule="nonzero" fill-opacity="1" /><path clip-path="url(#clip040)" d="M201.598 918.895 Q197.987 918.895 196.158 922.46 Q194.352 926.001 194.352 933.131 Q194.352 940.237 196.158 943.802 Q197.987 947.344 201.598 947.344 Q205.232 947.344 207.037 943.802 Q208.866 940.237 208.866 933.131 Q208.866 926.001 207.037 922.46 Q205.232 918.895 201.598 918.895 M201.598 915.191 Q207.408 915.191 210.463 919.798 Q213.542 924.381 213.542 933.131 Q213.542 941.858 210.463 946.464 Q207.408 951.048 201.598 951.048 Q195.787 951.048 192.709 946.464 Q189.653 941.858 189.653 933.131 Q189.653 924.381 192.709 919.798 Q195.787 915.191 201.598 915.191 Z" fill="#000000" fill-rule="nonzero" fill-opacity="1" /><path clip-path="url(#clip040)" d="M127.2 673.853 Q123.589 673.853 121.76 677.418 Q119.955 680.96 119.955 688.089 Q119.955 695.196 121.76 698.76 Q123.589 702.302 127.2 702.302 Q130.834 702.302 132.64 698.76 Q134.468 695.196 134.468 688.089 Q134.468 680.96 132.64 677.418 Q130.834 673.853 127.2 673.853 M127.2 670.15 Q133.01 670.15 136.066 674.756 Q139.144 679.339 139.144 688.089 Q139.144 696.816 136.066 701.423 Q133.01 706.006 127.2 706.006 Q121.39 706.006 118.311 701.423 Q115.256 696.816 115.256 688.089 Q115.256 679.339 118.311 674.756 Q121.39 670.15 127.2 670.15 Z" fill="#000000" fill-rule="nonzero" fill-opacity="1" /><path clip-path="url(#clip040)" d="M147.362 699.455 L152.246 699.455 L152.246 705.335 L147.362 705.335 L147.362 699.455 Z" fill="#000000" fill-rule="nonzero" fill-opacity="1" /><path clip-path="url(#clip040)" d="M163.241 701.399 L170.88 701.399 L170.88 675.034 L162.57 676.7 L162.57 672.441 L170.834 670.775 L175.51 670.775 L175.51 701.399 L183.149 701.399 L183.149 705.335 L163.241 705.335 L163.241 701.399 Z" fill="#000000" fill-rule="nonzero" fill-opacity="1" /><path clip-path="url(#clip040)" d="M192.639 670.775 L210.996 670.775 L210.996 674.71 L196.922 674.71 L196.922 683.182 Q197.94 682.835 198.959 682.673 Q199.977 682.487 200.996 682.487 Q206.783 682.487 210.162 685.659 Q213.542 688.83 213.542 694.247 Q213.542 699.825 210.07 702.927 Q206.598 706.006 200.278 706.006 Q198.102 706.006 195.834 705.635 Q193.588 705.265 191.181 704.524 L191.181 699.825 Q193.264 700.96 195.487 701.515 Q197.709 702.071 200.186 702.071 Q204.19 702.071 206.528 699.964 Q208.866 697.858 208.866 694.247 Q208.866 690.636 206.528 688.529 Q204.19 686.423 200.186 686.423 Q198.311 686.423 196.436 686.839 Q194.584 687.256 192.639 688.136 L192.639 670.775 Z" fill="#000000" fill-rule="nonzero" fill-opacity="1" /><path clip-path="url(#clip040)" d="M126.205 428.811 Q122.593 428.811 120.765 432.376 Q118.959 435.918 118.959 443.047 Q118.959 450.154 120.765 453.719 Q122.593 457.26 126.205 457.26 Q129.839 457.26 131.644 453.719 Q133.473 450.154 133.473 443.047 Q133.473 435.918 131.644 432.376 Q129.839 428.811 126.205 428.811 M126.205 425.108 Q132.015 425.108 135.07 429.714 Q138.149 434.298 138.149 443.047 Q138.149 451.774 135.07 456.381 Q132.015 460.964 126.205 460.964 Q120.394 460.964 117.316 456.381 Q114.26 451.774 114.26 443.047 Q114.26 434.298 117.316 429.714 Q120.394 425.108 126.205 425.108 Z" fill="#000000" fill-rule="nonzero" fill-opacity="1" /><path clip-path="url(#clip040)" d="M146.366 454.413 L151.251 454.413 L151.251 460.293 L146.366 460.293 L146.366 454.413 Z" fill="#000000" fill-rule="nonzero" fill-opacity="1" /><path clip-path="url(#clip040)" d="M165.464 456.358 L181.783 456.358 L181.783 460.293 L159.839 460.293 L159.839 456.358 Q162.501 453.603 167.084 448.973 Q171.69 444.321 172.871 442.978 Q175.116 440.455 175.996 438.719 Q176.899 436.96 176.899 435.27 Q176.899 432.515 174.954 430.779 Q173.033 429.043 169.931 429.043 Q167.732 429.043 165.278 429.807 Q162.848 430.571 160.07 432.122 L160.07 427.399 Q162.894 426.265 165.348 425.686 Q167.802 425.108 169.839 425.108 Q175.209 425.108 178.403 427.793 Q181.598 430.478 181.598 434.969 Q181.598 437.098 180.788 439.02 Q180.001 440.918 177.894 443.51 Q177.315 444.182 174.214 447.399 Q171.112 450.594 165.464 456.358 Z" fill="#000000" fill-rule="nonzero" fill-opacity="1" /><path clip-path="url(#clip040)" d="M201.598 428.811 Q197.987 428.811 196.158 432.376 Q194.352 435.918 194.352 443.047 Q194.352 450.154 196.158 453.719 Q197.987 457.26 201.598 457.26 Q205.232 457.26 207.037 453.719 Q208.866 450.154 208.866 443.047 Q208.866 435.918 207.037 432.376 Q205.232 428.811 201.598 428.811 M201.598 425.108 Q207.408 425.108 210.463 429.714 Q213.542 434.298 213.542 443.047 Q213.542 451.774 210.463 456.381 Q207.408 460.964 201.598 460.964 Q195.787 460.964 192.709 456.381 Q189.653 451.774 189.653 443.047 Q189.653 434.298 192.709 429.714 Q195.787 425.108 201.598 425.108 Z" fill="#000000" fill-rule="nonzero" fill-opacity="1" /><path clip-path="url(#clip040)" d="M127.2 183.77 Q123.589 183.77 121.76 187.334 Q119.955 190.876 119.955 198.006 Q119.955 205.112 121.76 208.677 Q123.589 212.219 127.2 212.219 Q130.834 212.219 132.64 208.677 Q134.468 205.112 134.468 198.006 Q134.468 190.876 132.64 187.334 Q130.834 183.77 127.2 183.77 M127.2 180.066 Q133.01 180.066 136.066 184.672 Q139.144 189.256 139.144 198.006 Q139.144 206.732 136.066 211.339 Q133.01 215.922 127.2 215.922 Q121.39 215.922 118.311 211.339 Q115.256 206.732 115.256 198.006 Q115.256 189.256 118.311 184.672 Q121.39 180.066 127.2 180.066 Z" fill="#000000" fill-rule="nonzero" fill-opacity="1" /><path clip-path="url(#clip040)" d="M147.362 209.371 L152.246 209.371 L152.246 215.251 L147.362 215.251 L147.362 209.371 Z" fill="#000000" fill-rule="nonzero" fill-opacity="1" /><path clip-path="url(#clip040)" d="M166.459 211.316 L182.778 211.316 L182.778 215.251 L160.834 215.251 L160.834 211.316 Q163.496 208.561 168.079 203.932 Q172.686 199.279 173.866 197.936 Q176.112 195.413 176.991 193.677 Q177.894 191.918 177.894 190.228 Q177.894 187.473 175.95 185.737 Q174.028 184.001 170.927 184.001 Q168.727 184.001 166.274 184.765 Q163.843 185.529 161.065 187.08 L161.065 182.358 Q163.89 181.223 166.343 180.645 Q168.797 180.066 170.834 180.066 Q176.204 180.066 179.399 182.751 Q182.593 185.436 182.593 189.927 Q182.593 192.057 181.783 193.978 Q180.996 195.876 178.889 198.469 Q178.311 199.14 175.209 202.358 Q172.107 205.552 166.459 211.316 Z" fill="#000000" fill-rule="nonzero" fill-opacity="1" /><path clip-path="url(#clip040)" d="M192.639 180.691 L210.996 180.691 L210.996 184.626 L196.922 184.626 L196.922 193.098 Q197.94 192.751 198.959 192.589 Q199.977 192.404 200.996 192.404 Q206.783 192.404 210.162 195.575 Q213.542 198.746 213.542 204.163 Q213.542 209.742 210.07 212.844 Q206.598 215.922 200.278 215.922 Q198.102 215.922 195.834 215.552 Q193.588 215.182 191.181 214.441 L191.181 209.742 Q193.264 210.876 195.487 211.432 Q197.709 211.987 200.186 211.987 Q204.19 211.987 206.528 209.881 Q208.866 207.774 208.866 204.163 Q208.866 200.552 206.528 198.446 Q204.19 196.339 200.186 196.339 Q198.311 196.339 196.436 196.756 Q194.584 197.172 192.639 198.052 L192.639 180.691 Z" fill="#000000" fill-rule="nonzero" fill-opacity="1" /><path clip-path="url(#clip040)" d="M21.7677 926.375 L39.6235 926.375 L39.6235 918.29 Q39.6235 913.803 37.3 911.352 Q34.9765 908.901 30.6797 908.901 Q26.4147 908.901 24.0912 911.352 Q21.7677 913.803 21.7677 918.29 L21.7677 926.375 M16.4842 932.804 L16.4842 918.29 Q16.4842 910.302 20.1126 906.227 Q23.7092 902.122 30.6797 902.122 Q37.7138 902.122 41.3104 906.227 Q44.907 910.302 44.907 918.29 L44.907 926.375 L64.0042 926.375 L64.0042 932.804 L16.4842 932.804 Z" fill="#000000" fill-rule="nonzero" fill-opacity="1" /><path clip-path="url(#clip040)" d="M33.8307 874.24 Q33.2578 875.226 33.0032 876.404 Q32.7167 877.55 32.7167 878.95 Q32.7167 883.916 35.9632 886.589 Q39.1779 889.231 45.2253 889.231 L64.0042 889.231 L64.0042 895.119 L28.3562 895.119 L28.3562 889.231 L33.8944 889.231 Q30.6479 887.385 29.0883 884.425 Q27.4968 881.465 27.4968 877.232 Q27.4968 876.627 27.5923 875.895 Q27.656 875.163 27.8151 874.272 L33.8307 874.24 Z" fill="#000000" fill-rule="nonzero" fill-opacity="1" /><path clip-path="url(#clip040)" d="M32.4621 855.716 Q32.4621 860.426 36.1542 863.163 Q39.8145 865.901 46.212 865.901 Q52.6095 865.901 56.3017 863.195 Q59.9619 860.458 59.9619 855.716 Q59.9619 851.037 56.2698 848.3 Q52.5777 845.562 46.212 845.562 Q39.8781 845.562 36.186 848.3 Q32.4621 851.037 32.4621 855.716 M27.4968 855.716 Q27.4968 848.077 32.4621 843.716 Q37.4273 839.356 46.212 839.356 Q54.9649 839.356 59.9619 843.716 Q64.9272 848.077 64.9272 855.716 Q64.9272 863.386 59.9619 867.747 Q54.9649 872.075 46.212 872.075 Q37.4273 872.075 32.4621 867.747 Q27.4968 863.386 27.4968 855.716 Z" fill="#000000" fill-rule="nonzero" fill-opacity="1" /><path clip-path="url(#clip040)" d="M46.212 804.058 Q39.7508 804.058 36.0905 806.731 Q32.3984 809.373 32.3984 814.02 Q32.3984 818.667 36.0905 821.341 Q39.7508 823.983 46.212 823.983 Q52.6732 823.983 56.3653 821.341 Q60.0256 818.667 60.0256 814.02 Q60.0256 809.373 56.3653 806.731 Q52.6732 804.058 46.212 804.058 M33.7671 823.983 Q30.5842 822.136 29.0564 819.336 Q27.4968 816.503 27.4968 812.588 Q27.4968 806.095 32.6531 802.053 Q37.8093 797.979 46.212 797.979 Q54.6147 797.979 59.771 802.053 Q64.9272 806.095 64.9272 812.588 Q64.9272 816.503 63.3994 819.336 Q61.8398 822.136 58.657 823.983 L64.0042 823.983 L64.0042 829.871 L14.479 829.871 L14.479 823.983 L33.7671 823.983 Z" fill="#000000" fill-rule="nonzero" fill-opacity="1" /><path clip-path="url(#clip040)" d="M46.0847 772.07 Q46.0847 779.168 47.7079 781.905 Q49.3312 784.642 53.2461 784.642 Q56.3653 784.642 58.2114 782.605 Q60.0256 780.537 60.0256 777.004 Q60.0256 772.134 56.5881 769.206 Q53.1188 766.246 47.3897 766.246 L46.0847 766.246 L46.0847 772.07 M43.6657 760.389 L64.0042 760.389 L64.0042 766.246 L58.5933 766.246 Q61.8398 768.251 63.3994 771.243 Q64.9272 774.235 64.9272 778.563 Q64.9272 784.038 61.8716 787.284 Q58.7843 790.499 53.6281 790.499 Q47.6125 790.499 44.5569 786.489 Q41.5014 782.446 41.5014 774.457 L41.5014 766.246 L40.9285 766.246 Q36.8862 766.246 34.6901 768.919 Q32.4621 771.561 32.4621 776.367 Q32.4621 779.423 33.1941 782.319 Q33.9262 785.215 35.3903 787.889 L29.9795 787.889 Q28.7381 784.674 28.1334 781.651 Q27.4968 778.627 27.4968 775.762 Q27.4968 768.028 31.5072 764.209 Q35.5176 760.389 43.6657 760.389 Z" fill="#000000" fill-rule="nonzero" fill-opacity="1" /><path clip-path="url(#clip040)" d="M46.212 722.736 Q39.7508 722.736 36.0905 725.41 Q32.3984 728.051 32.3984 732.698 Q32.3984 737.345 36.0905 740.019 Q39.7508 742.661 46.212 742.661 Q52.6732 742.661 56.3653 740.019 Q60.0256 737.345 60.0256 732.698 Q60.0256 728.051 56.3653 725.41 Q52.6732 722.736 46.212 722.736 M33.7671 742.661 Q30.5842 740.815 29.0564 738.014 Q27.4968 735.181 27.4968 731.266 Q27.4968 724.773 32.6531 720.731 Q37.8093 716.657 46.212 716.657 Q54.6147 716.657 59.771 720.731 Q64.9272 724.773 64.9272 731.266 Q64.9272 735.181 63.3994 738.014 Q61.8398 740.815 58.657 742.661 L64.0042 742.661 L64.0042 748.549 L14.479 748.549 L14.479 742.661 L33.7671 742.661 Z" fill="#000000" fill-rule="nonzero" fill-opacity="1" /><path clip-path="url(#clip040)" d="M28.3562 706.949 L28.3562 701.093 L64.0042 701.093 L64.0042 706.949 L28.3562 706.949 M14.479 706.949 L14.479 701.093 L21.895 701.093 L21.895 706.949 L14.479 706.949 Z" fill="#000000" fill-rule="nonzero" fill-opacity="1" /><path clip-path="url(#clip040)" d="M14.479 688.839 L14.479 682.982 L64.0042 682.982 L64.0042 688.839 L14.479 688.839 Z" fill="#000000" fill-rule="nonzero" fill-opacity="1" /><path clip-path="url(#clip040)" d="M28.3562 670.728 L28.3562 664.872 L64.0042 664.872 L64.0042 670.728 L28.3562 670.728 M14.479 670.728 L14.479 664.872 L21.895 664.872 L21.895 670.728 L14.479 670.728 Z" fill="#000000" fill-rule="nonzero" fill-opacity="1" /><path clip-path="url(#clip040)" d="M18.2347 646.825 L28.3562 646.825 L28.3562 634.762 L32.9077 634.762 L32.9077 646.825 L52.2594 646.825 Q56.6199 646.825 57.8613 645.647 Q59.1026 644.438 59.1026 640.778 L59.1026 634.762 L64.0042 634.762 L64.0042 640.778 Q64.0042 647.557 61.4897 650.135 Q58.9434 652.713 52.2594 652.713 L32.9077 652.713 L32.9077 657.01 L28.3562 657.01 L28.3562 652.713 L18.2347 652.713 L18.2347 646.825 Z" fill="#000000" fill-rule="nonzero" fill-opacity="1" /><path clip-path="url(#clip040)" d="M67.3143 612.227 Q73.68 614.71 75.6216 617.065 Q77.5631 619.421 77.5631 623.367 L77.5631 628.046 L72.6615 628.046 L72.6615 624.609 Q72.6615 622.19 71.5157 620.853 Q70.3699 619.516 66.1048 617.893 L63.4312 616.842 L28.3562 631.261 L28.3562 625.054 L56.238 613.914 L28.3562 602.774 L28.3562 596.568 L67.3143 612.227 Z" fill="#000000" fill-rule="nonzero" fill-opacity="1" /><path clip-path="url(#clip040)" d="M840.706 10.0578 L840.706 15.758 Q837.378 14.1666 834.427 13.3853 Q831.476 12.6041 828.727 12.6041 Q823.952 12.6041 821.348 14.4559 Q818.773 16.3078 818.773 19.7221 Q818.773 22.5867 820.48 24.0624 Q822.216 25.5091 827.02 26.4061 L830.55 27.1295 Q837.089 28.3737 840.185 31.5276 Q843.31 34.6526 843.31 39.9188 Q843.31 46.1977 839.085 49.4384 Q834.89 52.6791 826.759 52.6791 Q823.692 52.6791 820.22 51.9847 Q816.777 51.2902 813.073 49.9303 L813.073 43.9118 Q816.632 45.9083 820.046 46.921 Q823.461 47.9338 826.759 47.9338 Q831.765 47.9338 834.485 45.9662 Q837.205 43.9986 837.205 40.3528 Q837.205 37.1699 835.237 35.376 Q833.298 33.582 828.842 32.685 L825.283 31.9906 Q818.744 30.6885 815.822 27.9107 Q812.899 25.133 812.899 20.1851 Q812.899 14.4559 816.921 11.1573 Q820.972 7.85875 828.061 7.85875 Q831.099 7.85875 834.253 8.40852 Q837.407 8.95829 840.706 10.0578 Z" fill="#000000" fill-rule="nonzero" fill-opacity="1" /><path clip-path="url(#clip040)" d="M857.459 10.2314 L857.459 19.4328 L868.426 19.4328 L868.426 23.5705 L857.459 23.5705 L857.459 41.163 Q857.459 45.1271 858.53 46.2555 Q859.629 47.384 862.957 47.384 L868.426 47.384 L868.426 51.84 L862.957 51.84 Q856.794 51.84 854.45 49.5541 Q852.106 47.2393 852.106 41.163 L852.106 23.5705 L848.2 23.5705 L848.2 19.4328 L852.106 19.4328 L852.106 10.2314 L857.459 10.2314 Z" fill="#000000" fill-rule="nonzero" fill-opacity="1" /><path clip-path="url(#clip040)" d="M890.156 35.5496 Q883.703 35.5496 881.215 37.0253 Q878.726 38.501 878.726 42.06 Q878.726 44.8956 880.578 46.5738 Q882.459 48.2231 885.671 48.2231 Q890.098 48.2231 892.76 45.0981 Q895.451 41.9442 895.451 36.7359 L895.451 35.5496 L890.156 35.5496 M900.775 33.3505 L900.775 51.84 L895.451 51.84 L895.451 46.921 Q893.628 49.8724 890.908 51.2902 Q888.188 52.6791 884.253 52.6791 Q879.276 52.6791 876.325 49.9014 Q873.402 47.0947 873.402 42.4072 Q873.402 36.9385 877.048 34.1607 Q880.723 31.3829 887.986 31.3829 L895.451 31.3829 L895.451 30.8621 Q895.451 27.1874 893.02 25.1908 Q890.619 23.1654 886.25 23.1654 Q883.472 23.1654 880.839 23.8309 Q878.206 24.4964 875.775 25.8274 L875.775 20.9085 Q878.698 19.78 881.446 19.2302 Q884.195 18.6515 886.799 18.6515 Q893.831 18.6515 897.303 22.2973 Q900.775 25.9431 900.775 33.3505 Z" fill="#000000" fill-rule="nonzero" fill-opacity="1" /><path clip-path="url(#clip040)" d="M917.008 10.2314 L917.008 19.4328 L927.974 19.4328 L927.974 23.5705 L917.008 23.5705 L917.008 41.163 Q917.008 45.1271 918.078 46.2555 Q919.178 47.384 922.505 47.384 L927.974 47.384 L927.974 51.84 L922.505 51.84 Q916.342 51.84 913.998 49.5541 Q911.655 47.2393 911.655 41.163 L911.655 23.5705 L907.748 23.5705 L907.748 19.4328 L911.655 19.4328 L911.655 10.2314 L917.008 10.2314 Z" fill="#000000" fill-rule="nonzero" fill-opacity="1" /><path clip-path="url(#clip040)" d="M934.976 19.4328 L940.3 19.4328 L940.3 51.84 L934.976 51.84 L934.976 19.4328 M934.976 6.81709 L940.3 6.81709 L940.3 13.559 L934.976 13.559 L934.976 6.81709 Z" fill="#000000" fill-rule="nonzero" fill-opacity="1" /><path clip-path="url(#clip040)" d="M963.998 23.1654 Q959.716 23.1654 957.227 26.5218 Q954.739 29.8494 954.739 35.6653 Q954.739 41.4813 957.198 44.8377 Q959.687 48.1653 963.998 48.1653 Q968.251 48.1653 970.74 44.8088 Q973.228 41.4523 973.228 35.6653 Q973.228 29.9072 970.74 26.5508 Q968.251 23.1654 963.998 23.1654 M963.998 18.6515 Q970.942 18.6515 974.907 23.1654 Q978.871 27.6792 978.871 35.6653 Q978.871 43.6225 974.907 48.1653 Q970.942 52.6791 963.998 52.6791 Q957.025 52.6791 953.061 48.1653 Q949.125 43.6225 949.125 35.6653 Q949.125 27.6792 953.061 23.1654 Q957.025 18.6515 963.998 18.6515 Z" fill="#000000" fill-rule="nonzero" fill-opacity="1" /><path clip-path="url(#clip040)" d="M1014.63 32.2799 L1014.63 51.84 L1009.31 51.84 L1009.31 32.4535 Q1009.31 27.8529 1007.52 25.567 Q1005.72 23.2811 1002.13 23.2811 Q997.823 23.2811 995.335 26.03 Q992.846 28.7788 992.846 33.5241 L992.846 51.84 L987.493 51.84 L987.493 19.4328 L992.846 19.4328 L992.846 24.4675 Q994.756 21.545 997.331 20.0983 Q999.935 18.6515 1003.32 18.6515 Q1008.91 18.6515 1011.77 22.1237 Q1014.63 25.567 1014.63 32.2799 Z" fill="#000000" fill-rule="nonzero" fill-opacity="1" /><path clip-path="url(#clip040)" d="M1039.98 35.5496 Q1033.53 35.5496 1031.04 37.0253 Q1028.55 38.501 1028.55 42.06 Q1028.55 44.8956 1030.4 46.5738 Q1032.28 48.2231 1035.5 48.2231 Q1039.92 48.2231 1042.59 45.0981 Q1045.28 41.9442 1045.28 36.7359 L1045.28 35.5496 L1039.98 35.5496 M1050.6 33.3505 L1050.6 51.84 L1045.28 51.84 L1045.28 46.921 Q1043.45 49.8724 1040.73 51.2902 Q1038.01 52.6791 1034.08 52.6791 Q1029.1 52.6791 1026.15 49.9014 Q1023.23 47.0947 1023.23 42.4072 Q1023.23 36.9385 1026.87 34.1607 Q1030.55 31.3829 1037.81 31.3829 L1045.28 31.3829 L1045.28 30.8621 Q1045.28 27.1874 1042.85 25.1908 Q1040.44 23.1654 1036.08 23.1654 Q1033.3 23.1654 1030.66 23.8309 Q1028.03 24.4964 1025.6 25.8274 L1025.6 20.9085 Q1028.52 19.78 1031.27 19.2302 Q1034.02 18.6515 1036.62 18.6515 Q1043.66 18.6515 1047.13 22.2973 Q1050.6 25.9431 1050.6 33.3505 Z" fill="#000000" fill-rule="nonzero" fill-opacity="1" /><path clip-path="url(#clip040)" d="M1080.35 24.4096 Q1079.45 23.8888 1078.38 23.6573 Q1077.34 23.3969 1076.06 23.3969 Q1071.55 23.3969 1069.12 26.3482 Q1066.72 29.2707 1066.72 34.7683 L1066.72 51.84 L1061.36 51.84 L1061.36 19.4328 L1066.72 19.4328 L1066.72 24.4675 Q1068.4 21.5161 1071.09 20.0983 Q1073.78 18.6515 1077.63 18.6515 Q1078.18 18.6515 1078.84 18.7383 Q1079.51 18.7962 1080.32 18.9409 L1080.35 24.4096 Z" fill="#000000" fill-rule="nonzero" fill-opacity="1" /><path clip-path="url(#clip040)" d="M1099.41 54.8492 Q1097.16 60.6362 1095.02 62.4013 Q1092.87 64.1663 1089.29 64.1663 L1085.03 64.1663 L1085.03 59.7103 L1088.16 59.7103 Q1090.36 59.7103 1091.57 58.6687 Q1092.79 57.627 1094.26 53.7497 L1095.22 51.3192 L1082.11 19.4328 L1087.75 19.4328 L1097.88 44.7799 L1108.01 19.4328 L1113.65 19.4328 L1099.41 54.8492 Z" fill="#000000" fill-rule="nonzero" fill-opacity="1" /><path clip-path="url(#clip040)" d="M1145.91 13.4432 L1145.91 47.0368 L1152.97 47.0368 Q1161.91 47.0368 1166.05 42.9859 Q1170.22 38.935 1170.22 30.1966 Q1170.22 21.5161 1166.05 17.4941 Q1161.91 13.4432 1152.97 13.4432 L1145.91 13.4432 M1140.07 8.64 L1152.08 8.64 Q1164.63 8.64 1170.51 13.8772 Q1176.38 19.0855 1176.38 30.1966 Q1176.38 41.3655 1170.48 46.6028 Q1164.58 51.84 1152.08 51.84 L1140.07 51.84 L1140.07 8.64 Z" fill="#000000" fill-rule="nonzero" fill-opacity="1" /><path clip-path="url(#clip040)" d="M1185.47 19.4328 L1190.79 19.4328 L1190.79 51.84 L1185.47 51.84 L1185.47 19.4328 M1185.47 6.81709 L1190.79 6.81709 L1190.79 13.559 L1185.47 13.559 L1185.47 6.81709 Z" fill="#000000" fill-rule="nonzero" fill-opacity="1" /><path clip-path="url(#clip040)" d="M1222.59 20.3876 L1222.59 25.4223 Q1220.33 24.2649 1217.9 23.6862 Q1215.47 23.1075 1212.87 23.1075 Q1208.9 23.1075 1206.91 24.3228 Q1204.94 25.5381 1204.94 27.9686 Q1204.94 29.8204 1206.36 30.891 Q1207.78 31.9327 1212.06 32.8876 L1213.88 33.2926 Q1219.55 34.5079 1221.92 36.7359 Q1224.33 38.935 1224.33 42.8991 Q1224.33 47.4129 1220.74 50.046 Q1217.18 52.6791 1210.93 52.6791 Q1208.33 52.6791 1205.49 52.1583 Q1202.68 51.6664 1199.56 50.6537 L1199.56 45.156 Q1202.51 46.6896 1205.37 47.4708 Q1208.24 48.2231 1211.05 48.2231 Q1214.81 48.2231 1216.83 46.95 Q1218.86 45.6479 1218.86 43.3042 Q1218.86 41.134 1217.38 39.9766 Q1215.94 38.8192 1210.99 37.7486 L1209.14 37.3146 Q1204.19 36.273 1201.99 34.1318 Q1199.79 31.9616 1199.79 28.2001 Q1199.79 23.6283 1203.03 21.1399 Q1206.27 18.6515 1212.23 18.6515 Q1215.18 18.6515 1217.79 19.0855 Q1220.39 19.5196 1222.59 20.3876 Z" fill="#000000" fill-rule="nonzero" fill-opacity="1" /><path clip-path="url(#clip040)" d="M1238.07 10.2314 L1238.07 19.4328 L1249.04 19.4328 L1249.04 23.5705 L1238.07 23.5705 L1238.07 41.163 Q1238.07 45.1271 1239.14 46.2555 Q1240.24 47.384 1243.57 47.384 L1249.04 47.384 L1249.04 51.84 L1243.57 51.84 Q1237.41 51.84 1235.06 49.5541 Q1232.72 47.2393 1232.72 41.163 L1232.72 23.5705 L1228.81 23.5705 L1228.81 19.4328 L1232.72 19.4328 L1232.72 10.2314 L1238.07 10.2314 Z" fill="#000000" fill-rule="nonzero" fill-opacity="1" /><path clip-path="url(#clip040)" d="M1274.82 24.4096 Q1273.92 23.8888 1272.85 23.6573 Q1271.81 23.3969 1270.54 23.3969 Q1266.02 23.3969 1263.59 26.3482 Q1261.19 29.2707 1261.19 34.7683 L1261.19 51.84 L1255.84 51.84 L1255.84 19.4328 L1261.19 19.4328 L1261.19 24.4675 Q1262.87 21.5161 1265.56 20.0983 Q1268.25 18.6515 1272.1 18.6515 Q1272.65 18.6515 1273.31 18.7383 Q1273.98 18.7962 1274.79 18.9409 L1274.82 24.4096 Z" fill="#000000" fill-rule="nonzero" fill-opacity="1" /><path clip-path="url(#clip040)" d="M1280.4 19.4328 L1285.73 19.4328 L1285.73 51.84 L1280.4 51.84 L1280.4 19.4328 M1280.4 6.81709 L1285.73 6.81709 L1285.73 13.559 L1280.4 13.559 L1280.4 6.81709 Z" fill="#000000" fill-rule="nonzero" fill-opacity="1" /><path clip-path="url(#clip040)" d="M1320.13 35.6653 Q1320.13 29.7915 1317.7 26.464 Q1315.3 23.1075 1311.07 23.1075 Q1306.85 23.1075 1304.42 26.464 Q1302.02 29.7915 1302.02 35.6653 Q1302.02 41.5391 1304.42 44.8956 Q1306.85 48.2231 1311.07 48.2231 Q1315.3 48.2231 1317.7 44.8956 Q1320.13 41.5391 1320.13 35.6653 M1302.02 24.3517 Q1303.7 21.4582 1306.24 20.0693 Q1308.82 18.6515 1312.38 18.6515 Q1318.28 18.6515 1321.95 23.339 Q1325.66 28.0265 1325.66 35.6653 Q1325.66 43.3042 1321.95 47.9916 Q1318.28 52.6791 1312.38 52.6791 Q1308.82 52.6791 1306.24 51.2902 Q1303.7 49.8724 1302.02 46.9789 L1302.02 51.84 L1296.66 51.84 L1296.66 6.81709 L1302.02 6.81709 L1302.02 24.3517 Z" fill="#000000" fill-rule="nonzero" fill-opacity="1" /><path clip-path="url(#clip040)" d="M1333.93 39.0507 L1333.93 19.4328 L1339.26 19.4328 L1339.26 38.8482 Q1339.26 43.4488 1341.05 45.7636 Q1342.84 48.0495 1346.43 48.0495 Q1350.74 48.0495 1353.23 45.3007 Q1355.75 42.5519 1355.75 37.8065 L1355.75 19.4328 L1361.07 19.4328 L1361.07 51.84 L1355.75 51.84 L1355.75 46.8632 Q1353.81 49.8145 1351.24 51.2613 Q1348.69 52.6791 1345.3 52.6791 Q1339.72 52.6791 1336.83 49.2069 Q1333.93 45.7347 1333.93 39.0507 M1347.33 18.6515 L1347.33 18.6515 Z" fill="#000000" fill-rule="nonzero" fill-opacity="1" /><path clip-path="url(#clip040)" d="M1377.31 10.2314 L1377.31 19.4328 L1388.27 19.4328 L1388.27 23.5705 L1377.31 23.5705 L1377.31 41.163 Q1377.31 45.1271 1378.38 46.2555 Q1379.48 47.384 1382.8 47.384 L1388.27 47.384 L1388.27 51.84 L1382.8 51.84 Q1376.64 51.84 1374.3 49.5541 Q1371.95 47.2393 1371.95 41.163 L1371.95 23.5705 L1368.05 23.5705 L1368.05 19.4328 L1371.95 19.4328 L1371.95 10.2314 L1377.31 10.2314 Z" fill="#000000" fill-rule="nonzero" fill-opacity="1" /><path clip-path="url(#clip040)" d="M1395.27 19.4328 L1400.6 19.4328 L1400.6 51.84 L1395.27 51.84 L1395.27 19.4328 M1395.27 6.81709 L1400.6 6.81709 L1400.6 13.559 L1395.27 13.559 L1395.27 6.81709 Z" fill="#000000" fill-rule="nonzero" fill-opacity="1" /><path clip-path="url(#clip040)" d="M1424.3 23.1654 Q1420.01 23.1654 1417.53 26.5218 Q1415.04 29.8494 1415.04 35.6653 Q1415.04 41.4813 1417.5 44.8377 Q1419.99 48.1653 1424.3 48.1653 Q1428.55 48.1653 1431.04 44.8088 Q1433.53 41.4523 1433.53 35.6653 Q1433.53 29.9072 1431.04 26.5508 Q1428.55 23.1654 1424.3 23.1654 M1424.3 18.6515 Q1431.24 18.6515 1435.2 23.1654 Q1439.17 27.6792 1439.17 35.6653 Q1439.17 43.6225 1435.2 48.1653 Q1431.24 52.6791 1424.3 52.6791 Q1417.32 52.6791 1413.36 48.1653 Q1409.42 43.6225 1409.42 35.6653 Q1409.42 27.6792 1413.36 23.1654 Q1417.32 18.6515 1424.3 18.6515 Z" fill="#000000" fill-rule="nonzero" fill-opacity="1" /><path clip-path="url(#clip040)" d="M1474.93 32.2799 L1474.93 51.84 L1469.61 51.84 L1469.61 32.4535 Q1469.61 27.8529 1467.81 25.567 Q1466.02 23.2811 1462.43 23.2811 Q1458.12 23.2811 1455.63 26.03 Q1453.14 28.7788 1453.14 33.5241 L1453.14 51.84 L1447.79 51.84 L1447.79 19.4328 L1453.14 19.4328 L1453.14 24.4675 Q1455.05 21.545 1457.63 20.0983 Q1460.23 18.6515 1463.62 18.6515 Q1469.2 18.6515 1472.07 22.1237 Q1474.93 25.567 1474.93 32.2799 Z" fill="#000000" fill-rule="nonzero" fill-opacity="1" /><path clip-path="url(#clip040)" d="M1500.95 19.4328 L1531.99 19.4328 L1531.99 24.7568 L1527.91 24.7568 L1527.91 44.6641 Q1527.91 46.7474 1528.61 47.6734 Q1529.33 48.5703 1530.92 48.5703 Q1531.36 48.5703 1531.99 48.5125 Q1532.63 48.4257 1532.83 48.3967 L1532.83 52.2451 Q1531.82 52.6212 1530.75 52.7949 Q1529.68 52.9685 1528.61 52.9685 Q1525.14 52.9685 1523.8 51.0877 Q1522.47 49.178 1522.47 44.0854 L1522.47 24.7568 L1510.52 24.7568 L1510.52 51.84 L1505.08 51.84 L1505.08 24.7568 L1500.95 24.7568 L1500.95 19.4328 Z" fill="#000000" fill-rule="nonzero" fill-opacity="1" /><path clip-path="url(#clip040)" d="M1556.21 33.5241 L1609.68 33.5241 L1609.68 37.6908 L1556.21 37.6908 L1556.21 33.5241 Z" fill="#000000" fill-rule="nonzero" fill-opacity="1" /><path clip-path="url(#clip040)" d="M1637.23 8.64 L1643.07 8.64 L1643.07 26.898 L1662.46 8.64 L1669.98 8.64 L1648.54 28.7788 L1671.52 51.84 L1663.82 51.84 L1643.07 31.0357 L1643.07 51.84 L1637.23 51.84 L1637.23 8.64 Z" fill="#000000" fill-rule="nonzero" fill-opacity="1" /><path clip-path="url(#clip040)" d="M1676.55 24.9304 L1713.65 24.9304 L1713.65 29.7915 L1676.55 29.7915 L1676.55 24.9304 M1676.55 36.7359 L1713.65 36.7359 L1713.65 41.6549 L1676.55 41.6549 L1676.55 36.7359 Z" fill="#000000" fill-rule="nonzero" fill-opacity="1" /><path clip-path="url(#clip040)" d="M1727.28 46.921 L1736.82 46.921 L1736.82 13.964 L1726.44 16.0474 L1726.44 10.7233 L1736.77 8.64 L1742.61 8.64 L1742.61 46.921 L1752.16 46.921 L1752.16 51.84 L1727.28 51.84 L1727.28 46.921 Z" fill="#000000" fill-rule="nonzero" fill-opacity="1" /><path clip-path="url(#clip040)" d="M1769 46.921 L1789.4 46.921 L1789.4 51.84 L1761.97 51.84 L1761.97 46.921 Q1765.3 43.4778 1771.02 37.6908 Q1776.78 31.8748 1778.26 30.1966 Q1781.07 27.0427 1782.16 24.8726 Q1783.29 22.6735 1783.29 20.5612 Q1783.29 17.118 1780.86 14.9478 Q1778.46 12.7777 1774.58 12.7777 Q1771.84 12.7777 1768.77 13.7326 Q1765.73 14.6874 1762.26 16.6261 L1762.26 10.7233 Q1765.79 9.30551 1768.85 8.58213 Q1771.92 7.85875 1774.47 7.85875 Q1781.18 7.85875 1785.17 11.2152 Q1789.17 14.5717 1789.17 20.1851 Q1789.17 22.8471 1788.15 25.2487 Q1787.17 27.6214 1784.54 30.8621 Q1783.81 31.7012 1779.94 35.7232 Q1776.06 39.7162 1769 46.921 Z" fill="#000000" fill-rule="nonzero" fill-opacity="1" /><path clip-path="url(#clip042)" d="M365.223 717.542 L365.223 1423.18 L492.128 1423.18 L492.128 717.542 L365.223 717.542 L365.223 717.542  Z" fill="#4682b4" fill-rule="evenodd" fill-opacity="0.7"/>
<polyline clip-path="url(#clip042)" style="stroke:#000000; stroke-linecap:round; stroke-linejoin:round; stroke-width:4; stroke-opacity:0.7; fill:none" points="365.223,717.542 365.223,1423.18 492.128,1423.18 492.128,717.542 365.223,717.542 "/>
<path clip-path="url(#clip042)" d="M523.854 1166.08 L523.854 1423.18 L650.759 1423.18 L650.759 1166.08 L523.854 1166.08 L523.854 1166.08  Z" fill="#4682b4" fill-rule="evenodd" fill-opacity="0.7"/>
<polyline clip-path="url(#clip042)" style="stroke:#000000; stroke-linecap:round; stroke-linejoin:round; stroke-width:4; stroke-opacity:0.7; fill:none" points="523.854,1166.08 523.854,1423.18 650.759,1423.18 650.759,1166.08 523.854,1166.08 "/>
<path clip-path="url(#clip042)" d="M682.486 1073.07 L682.486 1423.18 L809.391 1423.18 L809.391 1073.07 L682.486 1073.07 L682.486 1073.07  Z" fill="#4682b4" fill-rule="evenodd" fill-opacity="0.7"/>
<polyline clip-path="url(#clip042)" style="stroke:#000000; stroke-linecap:round; stroke-linejoin:round; stroke-width:4; stroke-opacity:0.7; fill:none" points="682.486,1073.07 682.486,1423.18 809.391,1423.18 809.391,1073.07 682.486,1073.07 "/>
<path clip-path="url(#clip042)" d="M841.117 1232.82 L841.117 1423.18 L968.023 1423.18 L968.023 1232.82 L841.117 1232.82 L841.117 1232.82  Z" fill="#4682b4" fill-rule="evenodd" fill-opacity="0.7"/>
<polyline clip-path="url(#clip042)" style="stroke:#000000; stroke-linecap:round; stroke-linejoin:round; stroke-width:4; stroke-opacity:0.7; fill:none" points="841.117,1232.82 841.117,1423.18 968.023,1423.18 968.023,1232.82 841.117,1232.82 "/>
<path clip-path="url(#clip042)" d="M999.749 1032.82 L999.749 1423.18 L1126.65 1423.18 L1126.65 1032.82 L999.749 1032.82 L999.749 1032.82  Z" fill="#4682b4" fill-rule="evenodd" fill-opacity="0.7"/>
<polyline clip-path="url(#clip042)" style="stroke:#000000; stroke-linecap:round; stroke-linejoin:round; stroke-width:4; stroke-opacity:0.7; fill:none" points="999.749,1032.82 999.749,1423.18 1126.65,1423.18 1126.65,1032.82 999.749,1032.82 "/>
<path clip-path="url(#clip042)" d="M1158.38 1098.96 L1158.38 1423.18 L1285.29 1423.18 L1285.29 1098.96 L1158.38 1098.96 L1158.38 1098.96  Z" fill="#4682b4" fill-rule="evenodd" fill-opacity="0.7"/>
<polyline clip-path="url(#clip042)" style="stroke:#000000; stroke-linecap:round; stroke-linejoin:round; stroke-width:4; stroke-opacity:0.7; fill:none" points="1158.38,1098.96 1158.38,1423.18 1285.29,1423.18 1285.29,1098.96 1158.38,1098.96 "/>
<path clip-path="url(#clip042)" d="M1317.01 1134.01 L1317.01 1423.18 L1443.92 1423.18 L1443.92 1134.01 L1317.01 1134.01 L1317.01 1134.01  Z" fill="#4682b4" fill-rule="evenodd" fill-opacity="0.7"/>
<polyline clip-path="url(#clip042)" style="stroke:#000000; stroke-linecap:round; stroke-linejoin:round; stroke-width:4; stroke-opacity:0.7; fill:none" points="1317.01,1134.01 1317.01,1423.18 1443.92,1423.18 1443.92,1134.01 1317.01,1134.01 "/>
<path clip-path="url(#clip042)" d="M1475.64 1187.87 L1475.64 1423.18 L1602.55 1423.18 L1602.55 1187.87 L1475.64 1187.87 L1475.64 1187.87  Z" fill="#4682b4" fill-rule="evenodd" fill-opacity="0.7"/>
<polyline clip-path="url(#clip042)" style="stroke:#000000; stroke-linecap:round; stroke-linejoin:round; stroke-width:4; stroke-opacity:0.7; fill:none" points="1475.64,1187.87 1475.64,1423.18 1602.55,1423.18 1602.55,1187.87 1475.64,1187.87 "/>
<path clip-path="url(#clip042)" d="M1634.28 1162.15 L1634.28 1423.18 L1761.18 1423.18 L1761.18 1162.15 L1634.28 1162.15 L1634.28 1162.15  Z" fill="#4682b4" fill-rule="evenodd" fill-opacity="0.7"/>
<polyline clip-path="url(#clip042)" style="stroke:#000000; stroke-linecap:round; stroke-linejoin:round; stroke-width:4; stroke-opacity:0.7; fill:none" points="1634.28,1162.15 1634.28,1423.18 1761.18,1423.18 1761.18,1162.15 1634.28,1162.15 "/>
<path clip-path="url(#clip042)" d="M1792.91 1096.51 L1792.91 1423.18 L1919.81 1423.18 L1919.81 1096.51 L1792.91 1096.51 L1792.91 1096.51  Z" fill="#4682b4" fill-rule="evenodd" fill-opacity="0.7"/>
<polyline clip-path="url(#clip042)" style="stroke:#000000; stroke-linecap:round; stroke-linejoin:round; stroke-width:4; stroke-opacity:0.7; fill:none" points="1792.91,1096.51 1792.91,1423.18 1919.81,1423.18 1919.81,1096.51 1792.91,1096.51 "/>
<path clip-path="url(#clip042)" d="M1951.54 1169.31 L1951.54 1423.18 L2078.44 1423.18 L2078.44 1169.31 L1951.54 1169.31 L1951.54 1169.31  Z" fill="#4682b4" fill-rule="evenodd" fill-opacity="0.7"/>
<polyline clip-path="url(#clip042)" style="stroke:#000000; stroke-linecap:round; stroke-linejoin:round; stroke-width:4; stroke-opacity:0.7; fill:none" points="1951.54,1169.31 1951.54,1423.18 2078.44,1423.18 2078.44,1169.31 1951.54,1169.31 "/>
<path clip-path="url(#clip042)" d="M2110.17 106.192 L2110.17 1423.18 L2237.08 1423.18 L2237.08 106.192 L2110.17 106.192 L2110.17 106.192  Z" fill="#4682b4" fill-rule="evenodd" fill-opacity="0.7"/>
<polyline clip-path="url(#clip042)" style="stroke:#000000; stroke-linecap:round; stroke-linejoin:round; stroke-width:4; stroke-opacity:0.7; fill:none" points="2110.17,106.192 2110.17,1423.18 2237.08,1423.18 2237.08,106.192 2110.17,106.192 "/>
<circle clip-path="url(#clip042)" style="fill:#4682b4; stroke:none; fill-opacity:0" cx="428.675" cy="717.542" r="2"/>
<circle clip-path="url(#clip042)" style="fill:#4682b4; stroke:none; fill-opacity:0" cx="587.307" cy="1166.08" r="2"/>
<circle clip-path="url(#clip042)" style="fill:#4682b4; stroke:none; fill-opacity:0" cx="745.938" cy="1073.07" r="2"/>
<circle clip-path="url(#clip042)" style="fill:#4682b4; stroke:none; fill-opacity:0" cx="904.57" cy="1232.82" r="2"/>
<circle clip-path="url(#clip042)" style="fill:#4682b4; stroke:none; fill-opacity:0" cx="1063.2" cy="1032.82" r="2"/>
<circle clip-path="url(#clip042)" style="fill:#4682b4; stroke:none; fill-opacity:0" cx="1221.83" cy="1098.96" r="2"/>
<circle clip-path="url(#clip042)" style="fill:#4682b4; stroke:none; fill-opacity:0" cx="1380.46" cy="1134.01" r="2"/>
<circle clip-path="url(#clip042)" style="fill:#4682b4; stroke:none; fill-opacity:0" cx="1539.1" cy="1187.87" r="2"/>
<circle clip-path="url(#clip042)" style="fill:#4682b4; stroke:none; fill-opacity:0" cx="1697.73" cy="1162.15" r="2"/>
<circle clip-path="url(#clip042)" style="fill:#4682b4; stroke:none; fill-opacity:0" cx="1856.36" cy="1096.51" r="2"/>
<circle clip-path="url(#clip042)" style="fill:#4682b4; stroke:none; fill-opacity:0" cx="2014.99" cy="1169.31" r="2"/>
<circle clip-path="url(#clip042)" style="fill:#4682b4; stroke:none; fill-opacity:0" cx="2173.62" cy="106.192" r="2"/>
</svg>
