<?xml version="1.0" encoding="utf-8"?>
<svg xmlns="http://www.w3.org/2000/svg" xmlns:xlink="http://www.w3.org/1999/xlink" width="600" height="400" viewBox="0 0 2400 1600">
<defs>
  <clipPath id="clip270">
    <rect x="0" y="0" width="2400" height="1600"/>
  </clipPath>
</defs>
<path clip-path="url(#clip270)" d="M0 1600 L2400 1600 L2400 8.88178e-14 L0 8.88178e-14  Z" fill="#ffffff" fill-rule="evenodd" fill-opacity="1"/>
<defs>
  <clipPath id="clip271">
    <rect x="225" y="0" width="1879" height="1566"/>
  </clipPath>
</defs>
<path clip-path="url(#clip270)" d="M247.459 1423.18 L2352.76 1423.18 L2352.76 106.192 L247.459 106.192  Z" fill="#ffffff" fill-rule="evenodd" fill-opacity="1"/>
<defs>
  <clipPath id="clip272">
    <rect x="247" y="106" width="2106" height="1318"/>
  </clipPath>
</defs>
<polyline clip-path="url(#clip272)" style="stroke:#000000; stroke-linecap:round; stroke-linejoin:round; stroke-width:2; stroke-opacity:0.1; fill:none" points="661.344,1423.18 661.344,106.192 "/>
<polyline clip-path="url(#clip272)" style="stroke:#000000; stroke-linecap:round; stroke-linejoin:round; stroke-width:2; stroke-opacity:0.1; fill:none" points="1087.19,1423.18 1087.19,106.192 "/>
<polyline clip-path="url(#clip272)" style="stroke:#000000; stroke-linecap:round; stroke-linejoin:round; stroke-width:2; stroke-opacity:0.1; fill:none" points="1513.03,1423.18 1513.03,106.192 "/>
<polyline clip-path="url(#clip272)" style="stroke:#000000; stroke-linecap:round; stroke-linejoin:round; stroke-width:2; stroke-opacity:0.1; fill:none" points="1938.87,1423.18 1938.87,106.192 "/>
<polyline clip-path="url(#clip272)" style="stroke:#000000; stroke-linecap:round; stroke-linejoin:round; stroke-width:2; stroke-opacity:0.1; fill:none" points="247.459,1423.18 2352.76,1423.18 "/>
<polyline clip-path="url(#clip272)" style="stroke:#000000; stroke-linecap:round; stroke-linejoin:round; stroke-width:2; stroke-opacity:0.1; fill:none" points="247.459,1199.36 2352.76,1199.36 "/>
<polyline clip-path="url(#clip272)" style="stroke:#000000; stroke-linecap:round; stroke-linejoin:round; stroke-width:2; stroke-opacity:0.1; fill:none" points="247.459,975.543 2352.76,975.543 "/>
<polyline clip-path="url(#clip272)" style="stroke:#000000; stroke-linecap:round; stroke-linejoin:round; stroke-width:2; stroke-opacity:0.1; fill:none" points="247.459,751.725 2352.76,751.725 "/>
<polyline clip-path="url(#clip272)" style="stroke:#000000; stroke-linecap:round; stroke-linejoin:round; stroke-width:2; stroke-opacity:0.1; fill:none" points="247.459,527.906 2352.76,527.906 "/>
<polyline clip-path="url(#clip272)" style="stroke:#000000; stroke-linecap:round; stroke-linejoin:round; stroke-width:2; stroke-opacity:0.1; fill:none" points="247.459,304.088 2352.76,304.088 "/>
<polyline clip-path="url(#clip270)" style="stroke:#000000; stroke-linecap:round; stroke-linejoin:round; stroke-width:4; stroke-opacity:1; fill:none" points="247.459,1423.18 2352.76,1423.18 "/>
<polyline clip-path="url(#clip270)" style="stroke:#000000; stroke-linecap:round; stroke-linejoin:round; stroke-width:4; stroke-opacity:1; fill:none" points="661.344,1423.18 661.344,1404.28 "/>
<polyline clip-path="url(#clip270)" style="stroke:#000000; stroke-linecap:round; stroke-linejoin:round; stroke-width:4; stroke-opacity:1; fill:none" points="1087.19,1423.18 1087.19,1404.28 "/>
<polyline clip-path="url(#clip270)" style="stroke:#000000; stroke-linecap:round; stroke-linejoin:round; stroke-width:4; stroke-opacity:1; fill:none" points="1513.03,1423.18 1513.03,1404.28 "/>
<polyline clip-path="url(#clip270)" style="stroke:#000000; stroke-linecap:round; stroke-linejoin:round; stroke-width:4; stroke-opacity:1; fill:none" points="1938.87,1423.18 1938.87,1404.28 "/>
<path clip-path="url(#clip270)" d="M655.996 1481.64 L672.316 1481.64 L672.316 1485.58 L650.371 1485.58 L650.371 1481.64 Q653.033 1478.89 657.617 1474.26 Q662.223 1469.61 663.404 1468.27 Q665.649 1465.74 666.529 1464.01 Q667.431 1462.25 667.431 1460.56 Q667.431 1457.8 665.487 1456.07 Q663.566 1454.33 660.464 1454.33 Q658.265 1454.33 655.811 1455.09 Q653.381 1455.86 650.603 1457.41 L650.603 1452.69 Q653.427 1451.55 655.881 1450.97 Q658.334 1450.39 660.371 1450.39 Q665.742 1450.39 668.936 1453.08 Q672.131 1455.77 672.131 1460.26 Q672.131 1462.39 671.32 1464.31 Q670.533 1466.2 668.427 1468.8 Q667.848 1469.47 664.746 1472.69 Q661.644 1475.88 655.996 1481.64 Z" fill="#000000" fill-rule="nonzero" fill-opacity="1" /><path clip-path="url(#clip270)" d="M1090.2 1455.09 L1078.39 1473.54 L1090.2 1473.54 L1090.2 1455.09 M1088.97 1451.02 L1094.85 1451.02 L1094.85 1473.54 L1099.78 1473.54 L1099.78 1477.43 L1094.85 1477.43 L1094.85 1485.58 L1090.2 1485.58 L1090.2 1477.43 L1074.59 1477.43 L1074.59 1472.92 L1088.97 1451.02 Z" fill="#000000" fill-rule="nonzero" fill-opacity="1" /><path clip-path="url(#clip270)" d="M1513.43 1466.44 Q1510.29 1466.44 1508.43 1468.59 Q1506.6 1470.74 1506.6 1474.49 Q1506.6 1478.22 1508.43 1480.39 Q1510.29 1482.55 1513.43 1482.55 Q1516.58 1482.55 1518.41 1480.39 Q1520.26 1478.22 1520.26 1474.49 Q1520.26 1470.74 1518.41 1468.59 Q1516.58 1466.44 1513.43 1466.44 M1522.72 1451.78 L1522.72 1456.04 Q1520.96 1455.21 1519.15 1454.77 Q1517.37 1454.33 1515.61 1454.33 Q1510.98 1454.33 1508.53 1457.45 Q1506.1 1460.58 1505.75 1466.9 Q1507.11 1464.89 1509.17 1463.82 Q1511.23 1462.73 1513.71 1462.73 Q1518.92 1462.73 1521.93 1465.9 Q1524.96 1469.05 1524.96 1474.49 Q1524.96 1479.82 1521.81 1483.03 Q1518.67 1486.25 1513.43 1486.25 Q1507.44 1486.25 1504.27 1481.67 Q1501.1 1477.06 1501.1 1468.33 Q1501.1 1460.14 1504.98 1455.28 Q1508.87 1450.39 1515.42 1450.39 Q1517.18 1450.39 1518.97 1450.74 Q1520.77 1451.09 1522.72 1451.78 Z" fill="#000000" fill-rule="nonzero" fill-opacity="1" /><path clip-path="url(#clip270)" d="M1938.87 1469.17 Q1935.54 1469.17 1933.62 1470.95 Q1931.72 1472.73 1931.72 1475.86 Q1931.72 1478.98 1933.62 1480.77 Q1935.54 1482.55 1938.87 1482.55 Q1942.2 1482.55 1944.13 1480.77 Q1946.05 1478.96 1946.05 1475.86 Q1946.05 1472.73 1944.13 1470.95 Q1942.23 1469.17 1938.87 1469.17 M1934.2 1467.18 Q1931.19 1466.44 1929.5 1464.38 Q1927.83 1462.32 1927.83 1459.35 Q1927.83 1455.21 1930.77 1452.8 Q1933.73 1450.39 1938.87 1450.39 Q1944.03 1450.39 1946.97 1452.8 Q1949.91 1455.21 1949.91 1459.35 Q1949.91 1462.32 1948.22 1464.38 Q1946.56 1466.44 1943.57 1467.18 Q1946.95 1467.96 1948.82 1470.26 Q1950.72 1472.55 1950.72 1475.86 Q1950.72 1480.88 1947.64 1483.57 Q1944.59 1486.25 1938.87 1486.25 Q1933.15 1486.25 1930.07 1483.57 Q1927.02 1480.88 1927.02 1475.86 Q1927.02 1472.55 1928.92 1470.26 Q1930.82 1467.96 1934.2 1467.18 M1932.48 1459.79 Q1932.48 1462.48 1934.15 1463.98 Q1935.84 1465.49 1938.87 1465.49 Q1941.88 1465.49 1943.57 1463.98 Q1945.28 1462.48 1945.28 1459.79 Q1945.28 1457.11 1943.57 1455.6 Q1941.88 1454.1 1938.87 1454.1 Q1935.84 1454.1 1934.15 1455.6 Q1932.48 1457.11 1932.48 1459.79 Z" fill="#000000" fill-rule="nonzero" fill-opacity="1" /><path clip-path="url(#clip270)" d="M1248.31 1522.08 L1248.31 1528.35 Q1244.65 1526.6 1241.4 1525.74 Q1238.15 1524.88 1235.13 1524.88 Q1229.88 1524.88 1227.01 1526.92 Q1224.18 1528.96 1224.18 1532.71 Q1224.18 1535.87 1226.06 1537.49 Q1227.97 1539.08 1233.25 1540.07 L1237.13 1540.86 Q1244.33 1542.23 1247.73 1545.7 Q1251.17 1549.14 1251.17 1554.93 Q1251.17 1561.84 1246.52 1565.4 Q1241.91 1568.97 1232.97 1568.97 Q1229.59 1568.97 1225.77 1568.2 Q1221.98 1567.44 1217.91 1565.94 L1217.91 1559.32 Q1221.83 1561.52 1225.58 1562.63 Q1229.34 1563.75 1232.97 1563.75 Q1238.47 1563.75 1241.46 1561.58 Q1244.46 1559.42 1244.46 1555.41 Q1244.46 1551.91 1242.29 1549.93 Q1240.16 1547.96 1235.26 1546.97 L1231.34 1546.21 Q1224.15 1544.78 1220.93 1541.72 Q1217.72 1538.67 1217.72 1533.22 Q1217.72 1526.92 1222.14 1523.29 Q1226.6 1519.66 1234.4 1519.66 Q1237.74 1519.66 1241.21 1520.27 Q1244.68 1520.87 1248.31 1522.08 Z" fill="#000000" fill-rule="nonzero" fill-opacity="1" /><path clip-path="url(#clip270)" d="M1266.74 1522.27 L1266.74 1532.4 L1278.8 1532.4 L1278.8 1536.95 L1266.74 1536.95 L1266.74 1556.3 Q1266.74 1560.66 1267.91 1561.9 Q1269.12 1563.14 1272.78 1563.14 L1278.8 1563.14 L1278.8 1568.04 L1272.78 1568.04 Q1266 1568.04 1263.42 1565.53 Q1260.85 1562.98 1260.85 1556.3 L1260.85 1536.95 L1256.55 1536.95 L1256.55 1532.4 L1260.85 1532.4 L1260.85 1522.27 L1266.74 1522.27 Z" fill="#000000" fill-rule="nonzero" fill-opacity="1" /><path clip-path="url(#clip270)" d="M1302.7 1550.12 Q1295.6 1550.12 1292.87 1551.75 Q1290.13 1553.37 1290.13 1557.29 Q1290.13 1560.4 1292.17 1562.25 Q1294.23 1564.07 1297.77 1564.07 Q1302.64 1564.07 1305.57 1560.63 Q1308.53 1557.16 1308.53 1551.43 L1308.53 1550.12 L1302.7 1550.12 M1314.38 1547.71 L1314.38 1568.04 L1308.53 1568.04 L1308.53 1562.63 Q1306.52 1565.88 1303.53 1567.44 Q1300.54 1568.97 1296.21 1568.97 Q1290.73 1568.97 1287.49 1565.91 Q1284.27 1562.82 1284.27 1557.67 Q1284.27 1551.65 1288.28 1548.6 Q1292.33 1545.54 1300.31 1545.54 L1308.53 1545.54 L1308.53 1544.97 Q1308.53 1540.93 1305.85 1538.73 Q1303.21 1536.5 1298.4 1536.5 Q1295.35 1536.5 1292.45 1537.23 Q1289.56 1537.97 1286.88 1539.43 L1286.88 1534.02 Q1290.1 1532.78 1293.12 1532.17 Q1296.14 1531.54 1299.01 1531.54 Q1306.74 1531.54 1310.56 1535.55 Q1314.38 1539.56 1314.38 1547.71 Z" fill="#000000" fill-rule="nonzero" fill-opacity="1" /><path clip-path="url(#clip270)" d="M1332.24 1522.27 L1332.24 1532.4 L1344.3 1532.4 L1344.3 1536.95 L1332.24 1536.95 L1332.24 1556.3 Q1332.24 1560.66 1333.42 1561.9 Q1334.63 1563.14 1338.29 1563.14 L1344.3 1563.14 L1344.3 1568.04 L1338.29 1568.04 Q1331.51 1568.04 1328.93 1565.53 Q1326.35 1562.98 1326.35 1556.3 L1326.35 1536.95 L1322.05 1536.95 L1322.05 1532.4 L1326.35 1532.4 L1326.35 1522.27 L1332.24 1522.27 Z" fill="#000000" fill-rule="nonzero" fill-opacity="1" /><path clip-path="url(#clip270)" d="M1382.5 1548.76 L1382.5 1551.62 L1355.57 1551.62 Q1355.95 1557.67 1359.2 1560.85 Q1362.48 1564 1368.3 1564 Q1371.67 1564 1374.82 1563.17 Q1378.01 1562.35 1381.13 1560.69 L1381.13 1566.23 Q1377.98 1567.57 1374.67 1568.27 Q1371.36 1568.97 1367.95 1568.97 Q1359.42 1568.97 1354.42 1564 Q1349.46 1559.04 1349.46 1550.57 Q1349.46 1541.82 1354.17 1536.69 Q1358.91 1531.54 1366.93 1531.54 Q1374.12 1531.54 1378.29 1536.18 Q1382.5 1540.8 1382.5 1548.76 M1376.64 1547.04 Q1376.58 1542.23 1373.93 1539.37 Q1371.32 1536.5 1366.99 1536.5 Q1362.09 1536.5 1359.13 1539.27 Q1356.21 1542.04 1355.76 1547.07 L1376.64 1547.04 Z" fill="#000000" fill-rule="nonzero" fill-opacity="1" /><polyline clip-path="url(#clip270)" style="stroke:#000000; stroke-linecap:round; stroke-linejoin:round; stroke-width:4; stroke-opacity:1; fill:none" points="247.459,1423.18 247.459,106.192 "/>
<polyline clip-path="url(#clip270)" style="stroke:#000000; stroke-linecap:round; stroke-linejoin:round; stroke-width:4; stroke-opacity:1; fill:none" points="247.459,1423.18 266.356,1423.18 "/>
<polyline clip-path="url(#clip270)" style="stroke:#000000; stroke-linecap:round; stroke-linejoin:round; stroke-width:4; stroke-opacity:1; fill:none" points="247.459,1199.36 266.356,1199.36 "/>
<polyline clip-path="url(#clip270)" style="stroke:#000000; stroke-linecap:round; stroke-linejoin:round; stroke-width:4; stroke-opacity:1; fill:none" points="247.459,975.543 266.356,975.543 "/>
<polyline clip-path="url(#clip270)" style="stroke:#000000; stroke-linecap:round; stroke-linejoin:round; stroke-width:4; stroke-opacity:1; fill:none" points="247.459,751.725 266.356,751.725 "/>
<polyline clip-path="url(#clip270)" style="stroke:#000000; stroke-linecap:round; stroke-linejoin:round; stroke-width:4; stroke-opacity:1; fill:none" points="247.459,527.906 266.356,527.906 "/>
<polyline clip-path="url(#clip270)" style="stroke:#000000; stroke-linecap:round; stroke-linejoin:round; stroke-width:4; stroke-opacity:1; fill:none" points="247.459,304.088 266.356,304.088 "/>
<path clip-path="url(#clip270)" d="M154.283 1408.98 Q150.672 1408.98 148.843 1412.54 Q147.038 1416.08 147.038 1423.21 Q147.038 1430.32 148.843 1433.89 Q150.672 1437.43 154.283 1437.43 Q157.917 1437.43 159.723 1433.89 Q161.552 1430.32 161.552 1423.21 Q161.552 1416.08 159.723 1412.54 Q157.917 1408.98 154.283 1408.98 M154.283 1405.27 Q160.093 1405.27 163.149 1409.88 Q166.227 1414.46 166.227 1423.21 Q166.227 1431.94 163.149 1436.55 Q160.093 1441.13 154.283 1441.13 Q148.473 1441.13 145.394 1436.55 Q142.339 1431.94 142.339 1423.21 Q142.339 1414.46 145.394 1409.88 Q148.473 1405.27 154.283 1405.27 Z" fill="#000000" fill-rule="nonzero" fill-opacity="1" /><path clip-path="url(#clip270)" d="M174.445 1434.58 L179.329 1434.58 L179.329 1440.46 L174.445 1440.46 L174.445 1434.58 Z" fill="#000000" fill-rule="nonzero" fill-opacity="1" /><path clip-path="url(#clip270)" d="M199.514 1408.98 Q195.903 1408.98 194.075 1412.54 Q192.269 1416.08 192.269 1423.21 Q192.269 1430.32 194.075 1433.89 Q195.903 1437.43 199.514 1437.43 Q203.149 1437.43 204.954 1433.89 Q206.783 1430.32 206.783 1423.21 Q206.783 1416.08 204.954 1412.54 Q203.149 1408.98 199.514 1408.98 M199.514 1405.27 Q205.324 1405.27 208.38 1409.88 Q211.459 1414.46 211.459 1423.21 Q211.459 1431.94 208.38 1436.55 Q205.324 1441.13 199.514 1441.13 Q193.704 1441.13 190.625 1436.55 Q187.57 1431.94 187.57 1423.21 Q187.57 1414.46 190.625 1409.88 Q193.704 1405.27 199.514 1405.27 Z" fill="#000000" fill-rule="nonzero" fill-opacity="1" /><path clip-path="url(#clip270)" d="M149.306 1212.71 L165.626 1212.71 L165.626 1216.64 L143.681 1216.64 L143.681 1212.71 Q146.343 1209.95 150.927 1205.32 Q155.533 1200.67 156.714 1199.33 Q158.959 1196.8 159.839 1195.07 Q160.741 1193.31 160.741 1191.62 Q160.741 1188.86 158.797 1187.13 Q156.876 1185.39 153.774 1185.39 Q151.575 1185.39 149.121 1186.16 Q146.691 1186.92 143.913 1188.47 L143.913 1183.75 Q146.737 1182.61 149.191 1182.04 Q151.644 1181.46 153.681 1181.46 Q159.052 1181.46 162.246 1184.14 Q165.44 1186.83 165.44 1191.32 Q165.44 1193.45 164.63 1195.37 Q163.843 1197.27 161.737 1199.86 Q161.158 1200.53 158.056 1203.75 Q154.954 1206.94 149.306 1212.71 Z" fill="#000000" fill-rule="nonzero" fill-opacity="1" /><path clip-path="url(#clip270)" d="M175.44 1210.76 L180.325 1210.76 L180.325 1216.64 L175.44 1216.64 L175.44 1210.76 Z" fill="#000000" fill-rule="nonzero" fill-opacity="1" /><path clip-path="url(#clip270)" d="M190.556 1182.08 L208.912 1182.08 L208.912 1186.02 L194.838 1186.02 L194.838 1194.49 Q195.857 1194.14 196.875 1193.98 Q197.894 1193.79 198.912 1193.79 Q204.699 1193.79 208.079 1196.97 Q211.459 1200.14 211.459 1205.55 Q211.459 1211.13 207.987 1214.23 Q204.514 1217.31 198.195 1217.31 Q196.019 1217.31 193.75 1216.94 Q191.505 1216.57 189.098 1215.83 L189.098 1211.13 Q191.181 1212.27 193.403 1212.82 Q195.625 1213.38 198.102 1213.38 Q202.107 1213.38 204.445 1211.27 Q206.783 1209.16 206.783 1205.55 Q206.783 1201.94 204.445 1199.84 Q202.107 1197.73 198.102 1197.73 Q196.227 1197.73 194.352 1198.15 Q192.5 1198.56 190.556 1199.44 L190.556 1182.08 Z" fill="#000000" fill-rule="nonzero" fill-opacity="1" /><path clip-path="url(#clip270)" d="M144.329 958.263 L162.686 958.263 L162.686 962.198 L148.612 962.198 L148.612 970.67 Q149.63 970.323 150.649 970.161 Q151.667 969.976 152.686 969.976 Q158.473 969.976 161.852 973.147 Q165.232 976.319 165.232 981.735 Q165.232 987.314 161.76 990.416 Q158.288 993.494 151.968 993.494 Q149.792 993.494 147.524 993.124 Q145.279 992.754 142.871 992.013 L142.871 987.314 Q144.954 988.448 147.177 989.004 Q149.399 989.559 151.876 989.559 Q155.88 989.559 158.218 987.453 Q160.556 985.346 160.556 981.735 Q160.556 978.124 158.218 976.018 Q155.88 973.911 151.876 973.911 Q150.001 973.911 148.126 974.328 Q146.274 974.745 144.329 975.624 L144.329 958.263 Z" fill="#000000" fill-rule="nonzero" fill-opacity="1" /><path clip-path="url(#clip270)" d="M174.445 986.944 L179.329 986.944 L179.329 992.823 L174.445 992.823 L174.445 986.944 Z" fill="#000000" fill-rule="nonzero" fill-opacity="1" /><path clip-path="url(#clip270)" d="M199.514 961.342 Q195.903 961.342 194.075 964.907 Q192.269 968.448 192.269 975.578 Q192.269 982.684 194.075 986.249 Q195.903 989.791 199.514 989.791 Q203.149 989.791 204.954 986.249 Q206.783 982.684 206.783 975.578 Q206.783 968.448 204.954 964.907 Q203.149 961.342 199.514 961.342 M199.514 957.638 Q205.324 957.638 208.38 962.245 Q211.459 966.828 211.459 975.578 Q211.459 984.305 208.38 988.911 Q205.324 993.494 199.514 993.494 Q193.704 993.494 190.625 988.911 Q187.57 984.305 187.57 975.578 Q187.57 966.828 190.625 962.245 Q193.704 957.638 199.514 957.638 Z" fill="#000000" fill-rule="nonzero" fill-opacity="1" /><path clip-path="url(#clip270)" d="M144.098 734.445 L166.32 734.445 L166.32 736.435 L153.774 769.005 L148.89 769.005 L160.695 738.38 L144.098 738.38 L144.098 734.445 Z" fill="#000000" fill-rule="nonzero" fill-opacity="1" /><path clip-path="url(#clip270)" d="M175.44 763.125 L180.325 763.125 L180.325 769.005 L175.44 769.005 L175.44 763.125 Z" fill="#000000" fill-rule="nonzero" fill-opacity="1" /><path clip-path="url(#clip270)" d="M190.556 734.445 L208.912 734.445 L208.912 738.38 L194.838 738.38 L194.838 746.852 Q195.857 746.505 196.875 746.343 Q197.894 746.158 198.912 746.158 Q204.699 746.158 208.079 749.329 Q211.459 752.5 211.459 757.917 Q211.459 763.496 207.987 766.597 Q204.514 769.676 198.195 769.676 Q196.019 769.676 193.75 769.306 Q191.505 768.935 189.098 768.195 L189.098 763.496 Q191.181 764.63 193.403 765.185 Q195.625 765.741 198.102 765.741 Q202.107 765.741 204.445 763.634 Q206.783 761.528 206.783 757.917 Q206.783 754.306 204.445 752.199 Q202.107 750.093 198.102 750.093 Q196.227 750.093 194.352 750.509 Q192.5 750.926 190.556 751.806 L190.556 734.445 Z" fill="#000000" fill-rule="nonzero" fill-opacity="1" /><path clip-path="url(#clip270)" d="M114.931 541.251 L122.57 541.251 L122.57 514.886 L114.26 516.552 L114.26 512.293 L122.524 510.626 L127.2 510.626 L127.2 541.251 L134.839 541.251 L134.839 545.186 L114.931 545.186 L114.931 541.251 Z" fill="#000000" fill-rule="nonzero" fill-opacity="1" /><path clip-path="url(#clip270)" d="M154.283 513.705 Q150.672 513.705 148.843 517.27 Q147.038 520.812 147.038 527.941 Q147.038 535.048 148.843 538.612 Q150.672 542.154 154.283 542.154 Q157.917 542.154 159.723 538.612 Q161.552 535.048 161.552 527.941 Q161.552 520.812 159.723 517.27 Q157.917 513.705 154.283 513.705 M154.283 510.001 Q160.093 510.001 163.149 514.608 Q166.227 519.191 166.227 527.941 Q166.227 536.668 163.149 541.274 Q160.093 545.858 154.283 545.858 Q148.473 545.858 145.394 541.274 Q142.339 536.668 142.339 527.941 Q142.339 519.191 145.394 514.608 Q148.473 510.001 154.283 510.001 Z" fill="#000000" fill-rule="nonzero" fill-opacity="1" /><path clip-path="url(#clip270)" d="M174.445 539.307 L179.329 539.307 L179.329 545.186 L174.445 545.186 L174.445 539.307 Z" fill="#000000" fill-rule="nonzero" fill-opacity="1" /><path clip-path="url(#clip270)" d="M199.514 513.705 Q195.903 513.705 194.075 517.27 Q192.269 520.812 192.269 527.941 Q192.269 535.048 194.075 538.612 Q195.903 542.154 199.514 542.154 Q203.149 542.154 204.954 538.612 Q206.783 535.048 206.783 527.941 Q206.783 520.812 204.954 517.27 Q203.149 513.705 199.514 513.705 M199.514 510.001 Q205.324 510.001 208.38 514.608 Q211.459 519.191 211.459 527.941 Q211.459 536.668 208.38 541.274 Q205.324 545.858 199.514 545.858 Q193.704 545.858 190.625 541.274 Q187.57 536.668 187.57 527.941 Q187.57 519.191 190.625 514.608 Q193.704 510.001 199.514 510.001 Z" fill="#000000" fill-rule="nonzero" fill-opacity="1" /><path clip-path="url(#clip270)" d="M115.927 317.433 L123.566 317.433 L123.566 291.067 L115.256 292.734 L115.256 288.475 L123.519 286.808 L128.195 286.808 L128.195 317.433 L135.834 317.433 L135.834 321.368 L115.927 321.368 L115.927 317.433 Z" fill="#000000" fill-rule="nonzero" fill-opacity="1" /><path clip-path="url(#clip270)" d="M149.306 317.433 L165.626 317.433 L165.626 321.368 L143.681 321.368 L143.681 317.433 Q146.343 314.678 150.927 310.049 Q155.533 305.396 156.714 304.053 Q158.959 301.53 159.839 299.794 Q160.741 298.035 160.741 296.345 Q160.741 293.59 158.797 291.854 Q156.876 290.118 153.774 290.118 Q151.575 290.118 149.121 290.882 Q146.691 291.646 143.913 293.197 L143.913 288.475 Q146.737 287.34 149.191 286.762 Q151.644 286.183 153.681 286.183 Q159.052 286.183 162.246 288.868 Q165.44 291.553 165.44 296.044 Q165.44 298.174 164.63 300.095 Q163.843 301.993 161.737 304.586 Q161.158 305.257 158.056 308.475 Q154.954 311.669 149.306 317.433 Z" fill="#000000" fill-rule="nonzero" fill-opacity="1" /><path clip-path="url(#clip270)" d="M175.44 315.488 L180.325 315.488 L180.325 321.368 L175.44 321.368 L175.44 315.488 Z" fill="#000000" fill-rule="nonzero" fill-opacity="1" /><path clip-path="url(#clip270)" d="M190.556 286.808 L208.912 286.808 L208.912 290.743 L194.838 290.743 L194.838 299.215 Q195.857 298.868 196.875 298.706 Q197.894 298.521 198.912 298.521 Q204.699 298.521 208.079 301.692 Q211.459 304.863 211.459 310.28 Q211.459 315.859 207.987 318.961 Q204.514 322.039 198.195 322.039 Q196.019 322.039 193.75 321.669 Q191.505 321.299 189.098 320.558 L189.098 315.859 Q191.181 316.993 193.403 317.549 Q195.625 318.104 198.102 318.104 Q202.107 318.104 204.445 315.998 Q206.783 313.891 206.783 310.28 Q206.783 306.669 204.445 304.563 Q202.107 302.456 198.102 302.456 Q196.227 302.456 194.352 302.873 Q192.5 303.289 190.556 304.169 L190.556 286.808 Z" fill="#000000" fill-rule="nonzero" fill-opacity="1" /><path clip-path="url(#clip270)" d="M18.0438 821.548 L24.314 821.548 Q22.5634 825.208 21.704 828.454 Q20.8447 831.701 20.8447 834.725 Q20.8447 839.976 22.8817 842.841 Q24.9187 845.674 28.6745 845.674 Q31.8255 845.674 33.4488 843.796 Q35.0402 841.886 36.0269 836.603 L36.8226 832.719 Q38.1912 825.526 41.6605 822.121 Q45.098 818.683 50.8908 818.683 Q57.7976 818.683 61.3624 823.33 Q64.9272 827.945 64.9272 836.889 Q64.9272 840.263 64.1633 844.082 Q63.3994 847.87 61.9035 851.944 L55.2831 851.944 Q57.4793 848.029 58.5933 844.273 Q59.7073 840.517 59.7073 836.889 Q59.7073 831.383 57.543 828.391 Q55.3786 825.399 51.3682 825.399 Q47.8671 825.399 45.8937 827.563 Q43.9204 829.696 42.9337 834.597 L42.1698 838.512 Q40.7375 845.706 37.682 848.92 Q34.6264 852.135 29.1837 852.135 Q22.8817 852.135 19.2532 847.711 Q15.6248 843.255 15.6248 835.457 Q15.6248 832.115 16.2295 828.645 Q16.8343 825.176 18.0438 821.548 Z" fill="#000000" fill-rule="nonzero" fill-opacity="1" /><path clip-path="url(#clip270)" d="M18.2347 803.119 L28.3562 803.119 L28.3562 791.056 L32.9077 791.056 L32.9077 803.119 L52.2594 803.119 Q56.6199 803.119 57.8613 801.941 Q59.1026 800.732 59.1026 797.072 L59.1026 791.056 L64.0042 791.056 L64.0042 797.072 Q64.0042 803.851 61.4897 806.429 Q58.9434 809.007 52.2594 809.007 L32.9077 809.007 L32.9077 813.304 L28.3562 813.304 L28.3562 809.007 L18.2347 809.007 L18.2347 803.119 Z" fill="#000000" fill-rule="nonzero" fill-opacity="1" /><path clip-path="url(#clip270)" d="M44.7161 752.862 L47.5806 752.862 L47.5806 779.789 Q53.6281 779.407 56.8109 776.16 Q59.9619 772.882 59.9619 767.057 Q59.9619 763.683 59.1344 760.532 Q58.3069 757.35 56.6518 754.23 L62.1899 754.23 Q63.5267 757.381 64.227 760.692 Q64.9272 764.002 64.9272 767.407 Q64.9272 775.937 59.9619 780.934 Q54.9967 785.9 46.5303 785.9 Q37.7774 785.9 32.6531 781.189 Q27.4968 776.447 27.4968 768.426 Q27.4968 761.233 32.1438 757.063 Q36.7589 752.862 44.7161 752.862 M42.9973 758.718 Q38.1912 758.782 35.3266 761.424 Q32.4621 764.033 32.4621 768.362 Q32.4621 773.264 35.2312 776.224 Q38.0002 779.152 43.0292 779.598 L42.9973 758.718 Z" fill="#000000" fill-rule="nonzero" fill-opacity="1" /><path clip-path="url(#clip270)" d="M58.657 737.584 L77.5631 737.584 L77.5631 743.472 L28.3562 743.472 L28.3562 737.584 L33.7671 737.584 Q30.5842 735.738 29.0564 732.937 Q27.4968 730.104 27.4968 726.189 Q27.4968 719.696 32.6531 715.654 Q37.8093 711.58 46.212 711.58 Q54.6147 711.58 59.771 715.654 Q64.9272 719.696 64.9272 726.189 Q64.9272 730.104 63.3994 732.937 Q61.8398 735.738 58.657 737.584 M46.212 717.659 Q39.7508 717.659 36.0905 720.333 Q32.3984 722.975 32.3984 727.622 Q32.3984 732.269 36.0905 734.942 Q39.7508 737.584 46.212 737.584 Q52.6732 737.584 56.3653 734.942 Q60.0256 732.269 60.0256 727.622 Q60.0256 722.975 56.3653 720.333 Q52.6732 717.659 46.212 717.659 Z" fill="#000000" fill-rule="nonzero" fill-opacity="1" /><path clip-path="url(#clip270)" d="M29.4065 679.147 L34.9447 679.147 Q33.6716 681.629 33.035 684.303 Q32.3984 686.977 32.3984 689.841 Q32.3984 694.202 33.7352 696.398 Q35.072 698.562 37.7456 698.562 Q39.7826 698.562 40.9603 697.003 Q42.1061 695.443 43.1565 690.732 L43.6021 688.727 Q44.9389 682.489 47.3897 679.879 Q49.8086 677.237 54.1691 677.237 Q59.1344 677.237 62.0308 681.184 Q64.9272 685.099 64.9272 691.974 Q64.9272 694.838 64.3543 697.957 Q63.8132 701.045 62.6992 704.482 L56.6518 704.482 Q58.3387 701.236 59.198 698.085 Q60.0256 694.934 60.0256 691.846 Q60.0256 687.709 58.6251 685.481 Q57.1929 683.253 54.6147 683.253 Q52.2276 683.253 50.9545 684.876 Q49.6813 686.467 48.5037 691.91 L48.0262 693.947 Q46.8804 699.39 44.5251 701.809 Q42.138 704.228 38.0002 704.228 Q32.9713 704.228 30.2341 700.663 Q27.4968 697.098 27.4968 690.541 Q27.4968 687.295 27.9743 684.43 Q28.4517 681.566 29.4065 679.147 Z" fill="#000000" fill-rule="nonzero" fill-opacity="1" /><path clip-path="url(#clip270)" d="M841.4 8.64 L849.271 8.64 L868.426 44.7799 L868.426 8.64 L874.097 8.64 L874.097 51.84 L866.227 51.84 L847.072 15.7001 L847.072 51.84 L841.4 51.84 L841.4 8.64 Z" fill="#000000" fill-rule="nonzero" fill-opacity="1" /><path clip-path="url(#clip270)" d="M900.225 35.5496 Q893.773 35.5496 891.284 37.0253 Q888.796 38.501 888.796 42.06 Q888.796 44.8956 890.648 46.5738 Q892.528 48.2231 895.74 48.2231 Q900.167 48.2231 902.829 45.0981 Q905.52 41.9442 905.52 36.7359 L905.52 35.5496 L900.225 35.5496 M910.844 33.3505 L910.844 51.84 L905.52 51.84 L905.52 46.921 Q903.697 49.8724 900.978 51.2902 Q898.258 52.6791 894.322 52.6791 Q889.346 52.6791 886.394 49.9014 Q883.472 47.0947 883.472 42.4072 Q883.472 36.9385 887.118 34.1607 Q890.792 31.3829 898.055 31.3829 L905.52 31.3829 L905.52 30.8621 Q905.52 27.1874 903.09 25.1908 Q900.688 23.1654 896.319 23.1654 Q893.541 23.1654 890.908 23.8309 Q888.275 24.4964 885.844 25.8274 L885.844 20.9085 Q888.767 19.78 891.516 19.2302 Q894.265 18.6515 896.869 18.6515 Q903.9 18.6515 907.372 22.2973 Q910.844 25.9431 910.844 33.3505 Z" fill="#000000" fill-rule="nonzero" fill-opacity="1" /><path clip-path="url(#clip270)" d="M927.077 10.2314 L927.077 19.4328 L938.043 19.4328 L938.043 23.5705 L927.077 23.5705 L927.077 41.163 Q927.077 45.1271 928.147 46.2555 Q929.247 47.384 932.575 47.384 L938.043 47.384 L938.043 51.84 L932.575 51.84 Q926.411 51.84 924.068 49.5541 Q921.724 47.2393 921.724 41.163 L921.724 23.5705 L917.818 23.5705 L917.818 19.4328 L921.724 19.4328 L921.724 10.2314 L927.077 10.2314 Z" fill="#000000" fill-rule="nonzero" fill-opacity="1" /><path clip-path="url(#clip270)" d="M944.496 39.0507 L944.496 19.4328 L949.82 19.4328 L949.82 38.8482 Q949.82 43.4488 951.614 45.7636 Q953.408 48.0495 956.996 48.0495 Q961.307 48.0495 963.795 45.3007 Q966.313 42.5519 966.313 37.8065 L966.313 19.4328 L971.637 19.4328 L971.637 51.84 L966.313 51.84 L966.313 46.8632 Q964.374 49.8145 961.799 51.2613 Q959.253 52.6791 955.867 52.6791 Q950.283 52.6791 947.389 49.2069 Q944.496 45.7347 944.496 39.0507 M957.893 18.6515 L957.893 18.6515 Z" fill="#000000" fill-rule="nonzero" fill-opacity="1" /><path clip-path="url(#clip270)" d="M1001.38 24.4096 Q1000.49 23.8888 999.414 23.6573 Q998.373 23.3969 997.1 23.3969 Q992.586 23.3969 990.155 26.3482 Q987.754 29.2707 987.754 34.7683 L987.754 51.84 L982.401 51.84 L982.401 19.4328 L987.754 19.4328 L987.754 24.4675 Q989.432 21.5161 992.123 20.0983 Q994.814 18.6515 998.662 18.6515 Q999.212 18.6515 999.877 18.7383 Q1000.54 18.7962 1001.35 18.9409 L1001.38 24.4096 Z" fill="#000000" fill-rule="nonzero" fill-opacity="1" /><path clip-path="url(#clip270)" d="M1021.69 35.5496 Q1015.24 35.5496 1012.75 37.0253 Q1010.27 38.501 1010.27 42.06 Q1010.27 44.8956 1012.12 46.5738 Q1014 48.2231 1017.21 48.2231 Q1021.64 48.2231 1024.3 45.0981 Q1026.99 41.9442 1026.99 36.7359 L1026.99 35.5496 L1021.69 35.5496 M1032.31 33.3505 L1032.31 51.84 L1026.99 51.84 L1026.99 46.921 Q1025.17 49.8724 1022.45 51.2902 Q1019.73 52.6791 1015.79 52.6791 Q1010.81 52.6791 1007.86 49.9014 Q1004.94 47.0947 1004.94 42.4072 Q1004.94 36.9385 1008.59 34.1607 Q1012.26 31.3829 1019.52 31.3829 L1026.99 31.3829 L1026.99 30.8621 Q1026.99 27.1874 1024.56 25.1908 Q1022.16 23.1654 1017.79 23.1654 Q1015.01 23.1654 1012.38 23.8309 Q1009.74 24.4964 1007.31 25.8274 L1007.31 20.9085 Q1010.24 19.78 1012.99 19.2302 Q1015.73 18.6515 1018.34 18.6515 Q1025.37 18.6515 1028.84 22.2973 Q1032.31 25.9431 1032.31 33.3505 Z" fill="#000000" fill-rule="nonzero" fill-opacity="1" /><path clip-path="url(#clip270)" d="M1043.28 6.81709 L1048.6 6.81709 L1048.6 51.84 L1043.28 51.84 L1043.28 6.81709 Z" fill="#000000" fill-rule="nonzero" fill-opacity="1" /><path clip-path="url(#clip270)" d="M1099.3 31.5855 Q1101.18 32.222 1102.94 34.3054 Q1104.74 36.3887 1106.53 40.0345 L1112.46 51.84 L1106.18 51.84 L1100.66 40.7579 Q1098.52 36.4176 1096.49 34.9998 Q1094.49 33.582 1091.02 33.582 L1084.66 33.582 L1084.66 51.84 L1078.81 51.84 L1078.81 8.64 L1092.01 8.64 Q1099.41 8.64 1103.06 11.736 Q1106.71 14.8321 1106.71 21.0821 Q1106.71 25.1619 1104.8 27.8529 Q1102.92 30.5438 1099.3 31.5855 M1084.66 13.4432 L1084.66 28.7788 L1092.01 28.7788 Q1096.23 28.7788 1098.37 26.8401 Q1100.54 24.8726 1100.54 21.0821 Q1100.54 17.2916 1098.37 15.3819 Q1096.23 13.4432 1092.01 13.4432 L1084.66 13.4432 Z" fill="#000000" fill-rule="nonzero" fill-opacity="1" /><path clip-path="url(#clip270)" d="M1144.81 34.3054 L1144.81 36.9095 L1120.33 36.9095 Q1120.68 42.4072 1123.63 45.3007 Q1126.61 48.1653 1131.91 48.1653 Q1134.98 48.1653 1137.84 47.4129 Q1140.73 46.6606 1143.57 45.156 L1143.57 50.1907 Q1140.7 51.406 1137.69 52.0425 Q1134.69 52.6791 1131.59 52.6791 Q1123.84 52.6791 1119.29 48.1653 Q1114.78 43.6514 1114.78 35.9547 Q1114.78 27.9975 1119.06 23.339 Q1123.37 18.6515 1130.66 18.6515 Q1137.2 18.6515 1140.99 22.876 Q1144.81 27.0716 1144.81 34.3054 M1139.49 32.7429 Q1139.43 28.3737 1137.03 25.7695 Q1134.66 23.1654 1130.72 23.1654 Q1126.27 23.1654 1123.57 25.6827 Q1120.91 28.2001 1120.51 32.7718 L1139.49 32.7429 Z" fill="#000000" fill-rule="nonzero" fill-opacity="1" /><path clip-path="url(#clip270)" d="M1174.21 20.3876 L1174.21 25.4223 Q1171.95 24.2649 1169.52 23.6862 Q1167.09 23.1075 1164.49 23.1075 Q1160.52 23.1075 1158.53 24.3228 Q1156.56 25.5381 1156.56 27.9686 Q1156.56 29.8204 1157.98 30.891 Q1159.4 31.9327 1163.68 32.8876 L1165.5 33.2926 Q1171.17 34.5079 1173.55 36.7359 Q1175.95 38.935 1175.95 42.8991 Q1175.95 47.4129 1172.36 50.046 Q1168.8 52.6791 1162.55 52.6791 Q1159.95 52.6791 1157.11 52.1583 Q1154.3 51.6664 1151.18 50.6537 L1151.18 45.156 Q1154.13 46.6896 1156.99 47.4708 Q1159.86 48.2231 1162.67 48.2231 Q1166.43 48.2231 1168.45 46.95 Q1170.48 45.6479 1170.48 43.3042 Q1170.48 41.134 1169 39.9766 Q1167.56 38.8192 1162.61 37.7486 L1160.76 37.3146 Q1155.81 36.273 1153.61 34.1318 Q1151.41 31.9616 1151.41 28.2001 Q1151.41 23.6283 1154.65 21.1399 Q1157.89 18.6515 1163.85 18.6515 Q1166.8 18.6515 1169.41 19.0855 Q1172.01 19.5196 1174.21 20.3876 Z" fill="#000000" fill-rule="nonzero" fill-opacity="1" /><path clip-path="url(#clip270)" d="M1184.43 19.4328 L1189.75 19.4328 L1189.75 51.84 L1184.43 51.84 L1184.43 19.4328 M1184.43 6.81709 L1189.75 6.81709 L1189.75 13.559 L1184.43 13.559 L1184.43 6.81709 Z" fill="#000000" fill-rule="nonzero" fill-opacity="1" /><path clip-path="url(#clip270)" d="M1222.21 24.3517 L1222.21 6.81709 L1227.54 6.81709 L1227.54 51.84 L1222.21 51.84 L1222.21 46.9789 Q1220.54 49.8724 1217.96 51.2902 Q1215.41 52.6791 1211.83 52.6791 Q1205.95 52.6791 1202.25 47.9916 Q1198.57 43.3042 1198.57 35.6653 Q1198.57 28.0265 1202.25 23.339 Q1205.95 18.6515 1211.83 18.6515 Q1215.41 18.6515 1217.96 20.0693 Q1220.54 21.4582 1222.21 24.3517 M1204.07 35.6653 Q1204.07 41.5391 1206.47 44.8956 Q1208.9 48.2231 1213.13 48.2231 Q1217.35 48.2231 1219.78 44.8956 Q1222.21 41.5391 1222.21 35.6653 Q1222.21 29.7915 1219.78 26.464 Q1217.35 23.1075 1213.13 23.1075 Q1208.9 23.1075 1206.47 26.464 Q1204.07 29.7915 1204.07 35.6653 Z" fill="#000000" fill-rule="nonzero" fill-opacity="1" /><path clip-path="url(#clip270)" d="M1266.22 34.3054 L1266.22 36.9095 L1241.75 36.9095 Q1242.09 42.4072 1245.04 45.3007 Q1248.02 48.1653 1253.32 48.1653 Q1256.39 48.1653 1259.25 47.4129 Q1262.14 46.6606 1264.98 45.156 L1264.98 50.1907 Q1262.12 51.406 1259.11 52.0425 Q1256.1 52.6791 1253 52.6791 Q1245.25 52.6791 1240.7 48.1653 Q1236.19 43.6514 1236.19 35.9547 Q1236.19 27.9975 1240.47 23.339 Q1244.78 18.6515 1252.08 18.6515 Q1258.61 18.6515 1262.4 22.876 Q1266.22 27.0716 1266.22 34.3054 M1260.9 32.7429 Q1260.84 28.3737 1258.44 25.7695 Q1256.07 23.1654 1252.13 23.1654 Q1247.68 23.1654 1244.99 25.6827 Q1242.32 28.2001 1241.92 32.7718 L1260.9 32.7429 Z" fill="#000000" fill-rule="nonzero" fill-opacity="1" /><path clip-path="url(#clip270)" d="M1301.9 32.2799 L1301.9 51.84 L1296.58 51.84 L1296.58 32.4535 Q1296.58 27.8529 1294.78 25.567 Q1292.99 23.2811 1289.4 23.2811 Q1285.09 23.2811 1282.6 26.03 Q1280.11 28.7788 1280.11 33.5241 L1280.11 51.84 L1274.76 51.84 L1274.76 19.4328 L1280.11 19.4328 L1280.11 24.4675 Q1282.02 21.545 1284.6 20.0983 Q1287.2 18.6515 1290.59 18.6515 Q1296.17 18.6515 1299.04 22.1237 Q1301.9 25.567 1301.9 32.2799 Z" fill="#000000" fill-rule="nonzero" fill-opacity="1" /><path clip-path="url(#clip270)" d="M1335.84 20.677 L1335.84 25.6538 Q1333.59 24.4096 1331.3 23.802 Q1329.04 23.1654 1326.73 23.1654 Q1321.55 23.1654 1318.68 26.464 Q1315.82 29.7336 1315.82 35.6653 Q1315.82 41.597 1318.68 44.8956 Q1321.55 48.1653 1326.73 48.1653 Q1329.04 48.1653 1331.3 47.5576 Q1333.59 46.921 1335.84 45.6768 L1335.84 50.5958 Q1333.61 51.6375 1331.21 52.1583 Q1328.84 52.6791 1326.15 52.6791 Q1318.83 52.6791 1314.52 48.0784 Q1310.21 43.4778 1310.21 35.6653 Q1310.21 27.7371 1314.55 23.1943 Q1318.92 18.6515 1326.5 18.6515 Q1328.96 18.6515 1331.3 19.1724 Q1333.64 19.6642 1335.84 20.677 Z" fill="#000000" fill-rule="nonzero" fill-opacity="1" /><path clip-path="url(#clip270)" d="M1372.82 34.3054 L1372.82 36.9095 L1348.34 36.9095 Q1348.69 42.4072 1351.64 45.3007 Q1354.62 48.1653 1359.92 48.1653 Q1362.98 48.1653 1365.85 47.4129 Q1368.74 46.6606 1371.58 45.156 L1371.58 50.1907 Q1368.71 51.406 1365.7 52.0425 Q1362.69 52.6791 1359.6 52.6791 Q1351.84 52.6791 1347.3 48.1653 Q1342.79 43.6514 1342.79 35.9547 Q1342.79 27.9975 1347.07 23.339 Q1351.38 18.6515 1358.67 18.6515 Q1365.21 18.6515 1369 22.876 Q1372.82 27.0716 1372.82 34.3054 M1367.5 32.7429 Q1367.44 28.3737 1365.04 25.7695 Q1362.66 23.1654 1358.73 23.1654 Q1354.27 23.1654 1351.58 25.6827 Q1348.92 28.2001 1348.52 32.7718 L1367.5 32.7429 Z" fill="#000000" fill-rule="nonzero" fill-opacity="1" /><path clip-path="url(#clip270)" d="M1394.64 8.64 L1431.18 8.64 L1431.18 13.559 L1415.85 13.559 L1415.85 51.84 L1409.97 51.84 L1409.97 13.559 L1394.64 13.559 L1394.64 8.64 Z" fill="#000000" fill-rule="nonzero" fill-opacity="1" /><path clip-path="url(#clip270)" d="M1434.77 19.4328 L1440.09 19.4328 L1440.09 51.84 L1434.77 51.84 L1434.77 19.4328 M1434.77 6.81709 L1440.09 6.81709 L1440.09 13.559 L1434.77 13.559 L1434.77 6.81709 Z" fill="#000000" fill-rule="nonzero" fill-opacity="1" /><path clip-path="url(#clip270)" d="M1476.47 25.6538 Q1478.46 22.0659 1481.24 20.3587 Q1484.02 18.6515 1487.78 18.6515 Q1492.84 18.6515 1495.59 22.2105 Q1498.34 25.7406 1498.34 32.2799 L1498.34 51.84 L1492.99 51.84 L1492.99 32.4535 Q1492.99 27.795 1491.34 25.5381 Q1489.69 23.2811 1486.3 23.2811 Q1482.17 23.2811 1479.76 26.03 Q1477.36 28.7788 1477.36 33.5241 L1477.36 51.84 L1472.01 51.84 L1472.01 32.4535 Q1472.01 27.7661 1470.36 25.5381 Q1468.71 23.2811 1465.27 23.2811 Q1461.19 23.2811 1458.79 26.0589 Q1456.39 28.8077 1456.39 33.5241 L1456.39 51.84 L1451.03 51.84 L1451.03 19.4328 L1456.39 19.4328 L1456.39 24.4675 Q1458.21 21.4872 1460.75 20.0693 Q1463.3 18.6515 1466.8 18.6515 Q1470.33 18.6515 1472.79 20.4455 Q1475.28 22.2395 1476.47 25.6538 Z" fill="#000000" fill-rule="nonzero" fill-opacity="1" /><path clip-path="url(#clip270)" d="M1536.68 34.3054 L1536.68 36.9095 L1512.2 36.9095 Q1512.55 42.4072 1515.5 45.3007 Q1518.48 48.1653 1523.78 48.1653 Q1526.84 48.1653 1529.71 47.4129 Q1532.6 46.6606 1535.44 45.156 L1535.44 50.1907 Q1532.57 51.406 1529.56 52.0425 Q1526.55 52.6791 1523.46 52.6791 Q1515.7 52.6791 1511.16 48.1653 Q1506.65 43.6514 1506.65 35.9547 Q1506.65 27.9975 1510.93 23.339 Q1515.24 18.6515 1522.53 18.6515 Q1529.07 18.6515 1532.86 22.876 Q1536.68 27.0716 1536.68 34.3054 M1531.36 32.7429 Q1531.3 28.3737 1528.9 25.7695 Q1526.52 23.1654 1522.59 23.1654 Q1518.13 23.1654 1515.44 25.6827 Q1512.78 28.2001 1512.37 32.7718 L1531.36 32.7429 Z" fill="#000000" fill-rule="nonzero" fill-opacity="1" /><path clip-path="url(#clip270)" d="M1561.56 33.5241 L1615.04 33.5241 L1615.04 37.6908 L1561.56 37.6908 L1561.56 33.5241 Z" fill="#000000" fill-rule="nonzero" fill-opacity="1" /><path clip-path="url(#clip270)" d="M1642.58 8.64 L1648.43 8.64 L1648.43 26.898 L1667.81 8.64 L1675.34 8.64 L1653.9 28.7788 L1676.87 51.84 L1669.17 51.84 L1648.43 31.0357 L1648.43 51.84 L1642.58 51.84 L1642.58 8.64 Z" fill="#000000" fill-rule="nonzero" fill-opacity="1" /><path clip-path="url(#clip270)" d="M1681.91 24.9304 L1719 24.9304 L1719 29.7915 L1681.91 29.7915 L1681.91 24.9304 M1681.91 36.7359 L1719 36.7359 L1719 41.6549 L1681.91 41.6549 L1681.91 36.7359 Z" fill="#000000" fill-rule="nonzero" fill-opacity="1" /><path clip-path="url(#clip270)" d="M1731.79 50.943 L1731.79 45.619 Q1733.99 46.6606 1736.25 47.2104 Q1738.5 47.7602 1740.67 47.7602 Q1746.46 47.7602 1749.5 43.8829 Q1752.56 39.9766 1753 32.0484 Q1751.32 34.5369 1748.74 35.8679 Q1746.17 37.1989 1743.04 37.1989 Q1736.56 37.1989 1732.77 33.2926 Q1729.01 29.3575 1729.01 22.5577 Q1729.01 15.9027 1732.95 11.8807 Q1736.88 7.85875 1743.42 7.85875 Q1750.92 7.85875 1754.85 13.6168 Q1758.81 19.346 1758.81 30.2834 Q1758.81 40.4975 1753.95 46.6028 Q1749.12 52.6791 1740.93 52.6791 Q1738.73 52.6791 1736.48 52.2451 Q1734.22 51.8111 1731.79 50.943 M1743.42 32.6271 Q1747.36 32.6271 1749.64 29.9362 Q1751.96 27.2452 1751.96 22.5577 Q1751.96 17.8992 1749.64 15.2083 Q1747.36 12.4884 1743.42 12.4884 Q1739.49 12.4884 1737.17 15.2083 Q1734.89 17.8992 1734.89 22.5577 Q1734.89 27.2452 1737.17 29.9362 Q1739.49 32.6271 1743.42 32.6271 Z" fill="#000000" fill-rule="nonzero" fill-opacity="1" /><path clip-path="url(#clip272)" d="M363.254 106.192 L363.254 1423.18 L533.591 1423.18 L533.591 106.192 L363.254 106.192 L363.254 106.192  Z" fill="#4682b4" fill-rule="evenodd" fill-opacity="0.7"/>
<polyline clip-path="url(#clip272)" style="stroke:#000000; stroke-linecap:round; stroke-linejoin:round; stroke-width:4; stroke-opacity:0.7; fill:none" points="363.254,106.192 363.254,1423.18 533.591,1423.18 533.591,106.192 363.254,106.192 "/>
<path clip-path="url(#clip272)" d="M576.175 1317.63 L576.175 1423.18 L746.512 1423.18 L746.512 1317.63 L576.175 1317.63 L576.175 1317.63  Z" fill="#4682b4" fill-rule="evenodd" fill-opacity="0.7"/>
<polyline clip-path="url(#clip272)" style="stroke:#000000; stroke-linecap:round; stroke-linejoin:round; stroke-width:4; stroke-opacity:0.7; fill:none" points="576.175,1317.63 576.175,1423.18 746.512,1423.18 746.512,1317.63 576.175,1317.63 "/>
<path clip-path="url(#clip272)" d="M789.096 1311.53 L789.096 1423.18 L959.433 1423.18 L959.433 1311.53 L789.096 1311.53 L789.096 1311.53  Z" fill="#4682b4" fill-rule="evenodd" fill-opacity="0.7"/>
<polyline clip-path="url(#clip272)" style="stroke:#000000; stroke-linecap:round; stroke-linejoin:round; stroke-width:4; stroke-opacity:0.7; fill:none" points="789.096,1311.53 789.096,1423.18 959.433,1423.18 959.433,1311.53 789.096,1311.53 "/>
<path clip-path="url(#clip272)" d="M1002.02 1307.02 L1002.02 1423.18 L1172.35 1423.18 L1172.35 1307.02 L1002.02 1307.02 L1002.02 1307.02  Z" fill="#4682b4" fill-rule="evenodd" fill-opacity="0.7"/>
<polyline clip-path="url(#clip272)" style="stroke:#000000; stroke-linecap:round; stroke-linejoin:round; stroke-width:4; stroke-opacity:0.7; fill:none" points="1002.02,1307.02 1002.02,1423.18 1172.35,1423.18 1172.35,1307.02 1002.02,1307.02 "/>
<path clip-path="url(#clip272)" d="M1214.94 1303.37 L1214.94 1423.18 L1385.28 1423.18 L1385.28 1303.37 L1214.94 1303.37 L1214.94 1303.37  Z" fill="#4682b4" fill-rule="evenodd" fill-opacity="0.7"/>
<polyline clip-path="url(#clip272)" style="stroke:#000000; stroke-linecap:round; stroke-linejoin:round; stroke-width:4; stroke-opacity:0.7; fill:none" points="1214.94,1303.37 1214.94,1423.18 1385.28,1423.18 1385.28,1303.37 1214.94,1303.37 "/>
<path clip-path="url(#clip272)" d="M1427.86 1314.94 L1427.86 1423.18 L1598.2 1423.18 L1598.2 1314.94 L1427.86 1314.94 L1427.86 1314.94  Z" fill="#4682b4" fill-rule="evenodd" fill-opacity="0.7"/>
<polyline clip-path="url(#clip272)" style="stroke:#000000; stroke-linecap:round; stroke-linejoin:round; stroke-width:4; stroke-opacity:0.7; fill:none" points="1427.86,1314.94 1427.86,1423.18 1598.2,1423.18 1598.2,1314.94 1427.86,1314.94 "/>
<path clip-path="url(#clip272)" d="M1640.78 1317.88 L1640.78 1423.18 L1811.12 1423.18 L1811.12 1317.88 L1640.78 1317.88 L1640.78 1317.88  Z" fill="#4682b4" fill-rule="evenodd" fill-opacity="0.7"/>
<polyline clip-path="url(#clip272)" style="stroke:#000000; stroke-linecap:round; stroke-linejoin:round; stroke-width:4; stroke-opacity:0.7; fill:none" points="1640.78,1317.88 1640.78,1423.18 1811.12,1423.18 1811.12,1317.88 1640.78,1317.88 "/>
<path clip-path="url(#clip272)" d="M1853.7 1310.8 L1853.7 1423.18 L2024.04 1423.18 L2024.04 1310.8 L1853.7 1310.8 L1853.7 1310.8  Z" fill="#4682b4" fill-rule="evenodd" fill-opacity="0.7"/>
<polyline clip-path="url(#clip272)" style="stroke:#000000; stroke-linecap:round; stroke-linejoin:round; stroke-width:4; stroke-opacity:0.7; fill:none" points="1853.7,1310.8 1853.7,1423.18 2024.04,1423.18 2024.04,1310.8 1853.7,1310.8 "/>
<path clip-path="url(#clip272)" d="M2066.62 382.612 L2066.62 1423.18 L2236.96 1423.18 L2236.96 382.612 L2066.62 382.612 L2066.62 382.612  Z" fill="#4682b4" fill-rule="evenodd" fill-opacity="0.7"/>
<polyline clip-path="url(#clip272)" style="stroke:#000000; stroke-linecap:round; stroke-linejoin:round; stroke-width:4; stroke-opacity:0.7; fill:none" points="2066.62,382.612 2066.62,1423.18 2236.96,1423.18 2236.96,382.612 2066.62,382.612 "/>
<circle clip-path="url(#clip272)" style="fill:#4682b4; stroke:none; fill-opacity:0" cx="448.422" cy="106.192" r="2"/>
<circle clip-path="url(#clip272)" style="fill:#4682b4; stroke:none; fill-opacity:0" cx="661.344" cy="1317.63" r="2"/>
<circle clip-path="url(#clip272)" style="fill:#4682b4; stroke:none; fill-opacity:0" cx="874.265" cy="1311.53" r="2"/>
<circle clip-path="url(#clip272)" style="fill:#4682b4; stroke:none; fill-opacity:0" cx="1087.19" cy="1307.02" r="2"/>
<circle clip-path="url(#clip272)" style="fill:#4682b4; stroke:none; fill-opacity:0" cx="1300.11" cy="1303.37" r="2"/>
<circle clip-path="url(#clip272)" style="fill:#4682b4; stroke:none; fill-opacity:0" cx="1513.03" cy="1314.94" r="2"/>
<circle clip-path="url(#clip272)" style="fill:#4682b4; stroke:none; fill-opacity:0" cx="1725.95" cy="1317.88" r="2"/>
<circle clip-path="url(#clip272)" style="fill:#4682b4; stroke:none; fill-opacity:0" cx="1938.87" cy="1310.8" r="2"/>
<circle clip-path="url(#clip272)" style="fill:#4682b4; stroke:none; fill-opacity:0" cx="2151.79" cy="382.612" r="2"/>
</svg>
