<?xml version="1.0" encoding="utf-8"?>
<svg xmlns="http://www.w3.org/2000/svg" xmlns:xlink="http://www.w3.org/1999/xlink" width="600" height="400" viewBox="0 0 2400 1600">
<defs>
  <clipPath id="clip010">
    <rect x="0" y="0" width="2400" height="1600"/>
  </clipPath>
</defs>
<path clip-path="url(#clip010)" d="M0 1600 L2400 1600 L2400 8.88178e-14 L0 8.88178e-14  Z" fill="#ffffff" fill-rule="evenodd" fill-opacity="1"/>
<defs>
  <clipPath id="clip011">
    <rect x="476" y="184" width="1799" height="1057"/>
  </clipPath>
</defs>
<path clip-path="url(#clip010)" d="M479.087 1241.31 L2274.02 1241.31 L2274.02 184.932 L479.087 184.932  Z" fill="#ffffff" fill-rule="evenodd" fill-opacity="1"/>
<defs>
  <clipPath id="clip012">
    <rect x="479" y="184" width="1796" height="1057"/>
  </clipPath>
</defs>
<polyline clip-path="url(#clip012)" style="stroke:#000000; stroke-linecap:round; stroke-linejoin:round; stroke-width:2; stroke-opacity:0.1; fill:none" points="831.956,1241.31 831.956,184.932 "/>
<polyline clip-path="url(#clip012)" style="stroke:#000000; stroke-linecap:round; stroke-linejoin:round; stroke-width:2; stroke-opacity:0.1; fill:none" points="1195.02,1241.31 1195.02,184.932 "/>
<polyline clip-path="url(#clip012)" style="stroke:#000000; stroke-linecap:round; stroke-linejoin:round; stroke-width:2; stroke-opacity:0.1; fill:none" points="1558.08,1241.31 1558.08,184.932 "/>
<polyline clip-path="url(#clip012)" style="stroke:#000000; stroke-linecap:round; stroke-linejoin:round; stroke-width:2; stroke-opacity:0.1; fill:none" points="1921.15,1241.31 1921.15,184.932 "/>
<polyline clip-path="url(#clip012)" style="stroke:#000000; stroke-linecap:round; stroke-linejoin:round; stroke-width:2; stroke-opacity:0.1; fill:none" points="479.087,1241.31 2274.02,1241.31 "/>
<polyline clip-path="url(#clip012)" style="stroke:#000000; stroke-linecap:round; stroke-linejoin:round; stroke-width:2; stroke-opacity:0.1; fill:none" points="479.087,1064.25 2274.02,1064.25 "/>
<polyline clip-path="url(#clip012)" style="stroke:#000000; stroke-linecap:round; stroke-linejoin:round; stroke-width:2; stroke-opacity:0.1; fill:none" points="479.087,887.179 2274.02,887.179 "/>
<polyline clip-path="url(#clip012)" style="stroke:#000000; stroke-linecap:round; stroke-linejoin:round; stroke-width:2; stroke-opacity:0.1; fill:none" points="479.087,710.113 2274.02,710.113 "/>
<polyline clip-path="url(#clip012)" style="stroke:#000000; stroke-linecap:round; stroke-linejoin:round; stroke-width:2; stroke-opacity:0.1; fill:none" points="479.087,533.047 2274.02,533.047 "/>
<polyline clip-path="url(#clip012)" style="stroke:#000000; stroke-linecap:round; stroke-linejoin:round; stroke-width:2; stroke-opacity:0.1; fill:none" points="479.087,355.981 2274.02,355.981 "/>
<polyline clip-path="url(#clip010)" style="stroke:#000000; stroke-linecap:round; stroke-linejoin:round; stroke-width:4; stroke-opacity:1; fill:none" points="479.087,1241.31 2274.02,1241.31 "/>
<polyline clip-path="url(#clip010)" style="stroke:#000000; stroke-linecap:round; stroke-linejoin:round; stroke-width:4; stroke-opacity:1; fill:none" points="831.956,1241.31 831.956,1222.41 "/>
<polyline clip-path="url(#clip010)" style="stroke:#000000; stroke-linecap:round; stroke-linejoin:round; stroke-width:4; stroke-opacity:1; fill:none" points="1195.02,1241.31 1195.02,1222.41 "/>
<polyline clip-path="url(#clip010)" style="stroke:#000000; stroke-linecap:round; stroke-linejoin:round; stroke-width:4; stroke-opacity:1; fill:none" points="1558.08,1241.31 1558.08,1222.41 "/>
<polyline clip-path="url(#clip010)" style="stroke:#000000; stroke-linecap:round; stroke-linejoin:round; stroke-width:4; stroke-opacity:1; fill:none" points="1921.15,1241.31 1921.15,1222.41 "/>
<path clip-path="url(#clip010)" d="M825.272 1309.59 L845.671 1309.59 L845.671 1314.51 L818.241 1314.51 L818.241 1309.59 Q821.568 1306.15 827.297 1300.36 Q833.055 1294.55 834.531 1292.87 Q837.338 1289.71 838.437 1287.54 Q839.566 1285.34 839.566 1283.23 Q839.566 1279.79 837.135 1277.62 Q834.734 1275.45 830.856 1275.45 Q828.107 1275.45 825.04 1276.4 Q822.002 1277.36 818.53 1279.3 L818.53 1273.39 Q822.06 1271.98 825.127 1271.25 Q828.194 1270.53 830.741 1270.53 Q837.453 1270.53 841.446 1273.89 Q845.44 1277.24 845.44 1282.86 Q845.44 1285.52 844.427 1287.92 Q843.443 1290.29 840.81 1293.53 Q840.087 1294.37 836.209 1298.39 Q832.332 1302.39 825.272 1309.59 Z" fill="#000000" fill-rule="nonzero" fill-opacity="1" /><path clip-path="url(#clip010)" d="M1198.78 1276.4 L1184.02 1299.47 L1198.78 1299.47 L1198.78 1276.4 M1197.25 1271.31 L1204.6 1271.31 L1204.6 1299.47 L1210.76 1299.47 L1210.76 1304.33 L1204.6 1304.33 L1204.6 1314.51 L1198.78 1314.51 L1198.78 1304.33 L1179.28 1304.33 L1179.28 1298.68 L1197.25 1271.31 Z" fill="#000000" fill-rule="nonzero" fill-opacity="1" /><path clip-path="url(#clip010)" d="M1558.59 1290.58 Q1554.65 1290.58 1552.34 1293.27 Q1550.05 1295.96 1550.05 1300.65 Q1550.05 1305.31 1552.34 1308.03 Q1554.65 1310.72 1558.59 1310.72 Q1562.52 1310.72 1564.81 1308.03 Q1567.13 1305.31 1567.13 1300.65 Q1567.13 1295.96 1564.81 1293.27 Q1562.52 1290.58 1558.59 1290.58 M1570.19 1272.27 L1570.19 1277.59 Q1567.99 1276.55 1565.74 1276 Q1563.51 1275.45 1561.31 1275.45 Q1555.52 1275.45 1552.46 1279.36 Q1549.42 1283.26 1548.98 1291.16 Q1550.69 1288.64 1553.27 1287.31 Q1555.84 1285.95 1558.94 1285.95 Q1565.45 1285.95 1569.21 1289.92 Q1573 1293.85 1573 1300.65 Q1573 1307.31 1569.06 1311.33 Q1565.13 1315.35 1558.59 1315.35 Q1551.1 1315.35 1547.13 1309.62 Q1543.17 1303.86 1543.17 1292.95 Q1543.17 1282.71 1548.03 1276.64 Q1552.89 1270.53 1561.08 1270.53 Q1563.28 1270.53 1565.51 1270.96 Q1567.76 1271.4 1570.19 1272.27 Z" fill="#000000" fill-rule="nonzero" fill-opacity="1" /><path clip-path="url(#clip010)" d="M1921.15 1294 Q1916.98 1294 1914.58 1296.22 Q1912.21 1298.45 1912.21 1302.36 Q1912.21 1306.27 1914.58 1308.49 Q1916.98 1310.72 1921.15 1310.72 Q1925.31 1310.72 1927.72 1308.49 Q1930.12 1306.24 1930.12 1302.36 Q1930.12 1298.45 1927.72 1296.22 Q1925.34 1294 1921.15 1294 M1915.3 1291.51 Q1911.54 1290.58 1909.43 1288.01 Q1907.34 1285.43 1907.34 1281.73 Q1907.34 1276.55 1911.02 1273.54 Q1914.72 1270.53 1921.15 1270.53 Q1927.6 1270.53 1931.27 1273.54 Q1934.95 1276.55 1934.95 1281.73 Q1934.95 1285.43 1932.84 1288.01 Q1930.75 1290.58 1927.02 1291.51 Q1931.25 1292.49 1933.59 1295.36 Q1935.96 1298.22 1935.96 1302.36 Q1935.96 1308.64 1932.11 1311.99 Q1928.29 1315.35 1921.15 1315.35 Q1914 1315.35 1910.15 1311.99 Q1906.33 1308.64 1906.33 1302.36 Q1906.33 1298.22 1908.7 1295.36 Q1911.08 1292.49 1915.3 1291.51 M1913.16 1282.28 Q1913.16 1285.63 1915.24 1287.52 Q1917.36 1289.4 1921.15 1289.4 Q1924.91 1289.4 1927.02 1287.52 Q1929.16 1285.63 1929.16 1282.28 Q1929.16 1278.92 1927.02 1277.04 Q1924.91 1275.16 1921.15 1275.16 Q1917.36 1275.16 1915.24 1277.04 Q1913.16 1278.92 1913.16 1282.28 Z" fill="#000000" fill-rule="nonzero" fill-opacity="1" /><path clip-path="url(#clip010)" d="M1324.75 1353.18 L1324.75 1359.45 Q1321.09 1357.69 1317.84 1356.84 Q1314.6 1355.98 1311.57 1355.98 Q1306.32 1355.98 1303.46 1358.01 Q1300.62 1360.05 1300.62 1363.81 Q1300.62 1366.96 1302.5 1368.58 Q1304.41 1370.17 1309.7 1371.16 L1313.58 1371.95 Q1320.77 1373.32 1324.18 1376.79 Q1327.61 1380.23 1327.61 1386.02 Q1327.61 1392.93 1322.97 1396.49 Q1318.35 1400.06 1309.41 1400.06 Q1306.04 1400.06 1302.22 1399.29 Q1298.43 1398.53 1294.35 1397.03 L1294.35 1390.41 Q1298.27 1392.61 1302.02 1393.72 Q1305.78 1394.84 1309.41 1394.84 Q1314.92 1394.84 1317.91 1392.67 Q1320.9 1390.51 1320.9 1386.5 Q1320.9 1383 1318.73 1381.03 Q1316.6 1379.05 1311.7 1378.07 L1307.79 1377.3 Q1300.59 1375.87 1297.38 1372.81 Q1294.16 1369.76 1294.16 1364.32 Q1294.16 1358.01 1298.59 1354.38 Q1303.04 1350.76 1310.84 1350.76 Q1314.18 1350.76 1317.65 1351.36 Q1321.12 1351.97 1324.75 1353.18 Z" fill="#000000" fill-rule="nonzero" fill-opacity="1" /><path clip-path="url(#clip010)" d="M1343.18 1353.37 L1343.18 1363.49 L1355.24 1363.49 L1355.24 1368.04 L1343.18 1368.04 L1343.18 1387.39 Q1343.18 1391.75 1344.36 1392.99 Q1345.57 1394.23 1349.23 1394.23 L1355.24 1394.23 L1355.24 1399.14 L1349.23 1399.14 Q1342.45 1399.14 1339.87 1396.62 Q1337.29 1394.07 1337.29 1387.39 L1337.29 1368.04 L1332.99 1368.04 L1332.99 1363.49 L1337.29 1363.49 L1337.29 1353.37 L1343.18 1353.37 Z" fill="#000000" fill-rule="nonzero" fill-opacity="1" /><path clip-path="url(#clip010)" d="M1379.15 1381.22 Q1372.05 1381.22 1369.31 1382.84 Q1366.57 1384.46 1366.57 1388.38 Q1366.57 1391.5 1368.61 1393.34 Q1370.68 1395.16 1374.21 1395.16 Q1379.08 1395.16 1382.01 1391.72 Q1384.97 1388.25 1384.97 1382.52 L1384.97 1381.22 L1379.15 1381.22 M1390.83 1378.8 L1390.83 1399.14 L1384.97 1399.14 L1384.97 1393.72 Q1382.96 1396.97 1379.97 1398.53 Q1376.98 1400.06 1372.65 1400.06 Q1367.18 1400.06 1363.93 1397 Q1360.72 1393.92 1360.72 1388.76 Q1360.72 1382.74 1364.73 1379.69 Q1368.77 1376.63 1376.76 1376.63 L1384.97 1376.63 L1384.97 1376.06 Q1384.97 1372.02 1382.3 1369.82 Q1379.65 1367.59 1374.85 1367.59 Q1371.79 1367.59 1368.9 1368.33 Q1366 1369.06 1363.33 1370.52 L1363.33 1365.11 Q1366.54 1363.87 1369.56 1363.26 Q1372.59 1362.63 1375.45 1362.63 Q1383.19 1362.63 1387.01 1366.64 Q1390.83 1370.65 1390.83 1378.8 Z" fill="#000000" fill-rule="nonzero" fill-opacity="1" /><path clip-path="url(#clip010)" d="M1408.68 1353.37 L1408.68 1363.49 L1420.75 1363.49 L1420.75 1368.04 L1408.68 1368.04 L1408.68 1387.39 Q1408.68 1391.75 1409.86 1392.99 Q1411.07 1394.23 1414.73 1394.23 L1420.75 1394.23 L1420.75 1399.14 L1414.73 1399.14 Q1407.95 1399.14 1405.37 1396.62 Q1402.79 1394.07 1402.79 1387.39 L1402.79 1368.04 L1398.5 1368.04 L1398.5 1363.49 L1402.79 1363.49 L1402.79 1353.37 L1408.68 1353.37 Z" fill="#000000" fill-rule="nonzero" fill-opacity="1" /><path clip-path="url(#clip010)" d="M1458.94 1379.85 L1458.94 1382.71 L1432.01 1382.71 Q1432.39 1388.76 1435.64 1391.94 Q1438.92 1395.09 1444.74 1395.09 Q1448.12 1395.09 1451.27 1394.27 Q1454.45 1393.44 1457.57 1391.78 L1457.57 1397.32 Q1454.42 1398.66 1451.11 1399.36 Q1447.8 1400.06 1444.39 1400.06 Q1435.86 1400.06 1430.87 1395.09 Q1425.9 1390.13 1425.9 1381.66 Q1425.9 1372.91 1430.61 1367.78 Q1435.35 1362.63 1443.38 1362.63 Q1450.57 1362.63 1454.74 1367.28 Q1458.94 1371.89 1458.94 1379.85 M1453.08 1378.13 Q1453.02 1373.32 1450.38 1370.46 Q1447.77 1367.59 1443.44 1367.59 Q1438.54 1367.59 1435.58 1370.36 Q1432.65 1373.13 1432.2 1378.16 L1453.08 1378.13 Z" fill="#000000" fill-rule="nonzero" fill-opacity="1" /><polyline clip-path="url(#clip010)" style="stroke:#000000; stroke-linecap:round; stroke-linejoin:round; stroke-width:4; stroke-opacity:1; fill:none" points="479.087,1241.31 479.087,184.932 "/>
<polyline clip-path="url(#clip010)" style="stroke:#000000; stroke-linecap:round; stroke-linejoin:round; stroke-width:4; stroke-opacity:1; fill:none" points="479.087,1241.31 497.985,1241.31 "/>
<polyline clip-path="url(#clip010)" style="stroke:#000000; stroke-linecap:round; stroke-linejoin:round; stroke-width:4; stroke-opacity:1; fill:none" points="479.087,1064.25 497.985,1064.25 "/>
<polyline clip-path="url(#clip010)" style="stroke:#000000; stroke-linecap:round; stroke-linejoin:round; stroke-width:4; stroke-opacity:1; fill:none" points="479.087,887.179 497.985,887.179 "/>
<polyline clip-path="url(#clip010)" style="stroke:#000000; stroke-linecap:round; stroke-linejoin:round; stroke-width:4; stroke-opacity:1; fill:none" points="479.087,710.113 497.985,710.113 "/>
<polyline clip-path="url(#clip010)" style="stroke:#000000; stroke-linecap:round; stroke-linejoin:round; stroke-width:4; stroke-opacity:1; fill:none" points="479.087,533.047 497.985,533.047 "/>
<polyline clip-path="url(#clip010)" style="stroke:#000000; stroke-linecap:round; stroke-linejoin:round; stroke-width:4; stroke-opacity:1; fill:none" points="479.087,355.981 497.985,355.981 "/>
<path clip-path="url(#clip010)" d="M333.915 1223.56 Q329.401 1223.56 327.115 1228.02 Q324.858 1232.44 324.858 1241.35 Q324.858 1250.24 327.115 1254.69 Q329.401 1259.12 333.915 1259.12 Q338.458 1259.12 340.715 1254.69 Q343.001 1250.24 343.001 1241.35 Q343.001 1232.44 340.715 1228.02 Q338.458 1223.56 333.915 1223.56 M333.915 1218.93 Q341.178 1218.93 344.997 1224.69 Q348.846 1230.42 348.846 1241.35 Q348.846 1252.26 344.997 1258.02 Q341.178 1263.75 333.915 1263.75 Q326.652 1263.75 322.804 1258.02 Q318.985 1252.26 318.985 1241.35 Q318.985 1230.42 322.804 1224.69 Q326.652 1218.93 333.915 1218.93 Z" fill="#000000" fill-rule="nonzero" fill-opacity="1" /><path clip-path="url(#clip010)" d="M359.117 1255.56 L365.223 1255.56 L365.223 1262.91 L359.117 1262.91 L359.117 1255.56 Z" fill="#000000" fill-rule="nonzero" fill-opacity="1" /><path clip-path="url(#clip010)" d="M390.454 1223.56 Q385.94 1223.56 383.654 1228.02 Q381.397 1232.44 381.397 1241.35 Q381.397 1250.24 383.654 1254.69 Q385.94 1259.12 390.454 1259.12 Q394.997 1259.12 397.254 1254.69 Q399.54 1250.24 399.54 1241.35 Q399.54 1232.44 397.254 1228.02 Q394.997 1223.56 390.454 1223.56 M390.454 1218.93 Q397.717 1218.93 401.536 1224.69 Q405.385 1230.42 405.385 1241.35 Q405.385 1252.26 401.536 1258.02 Q397.717 1263.75 390.454 1263.75 Q383.191 1263.75 379.343 1258.02 Q375.524 1252.26 375.524 1241.35 Q375.524 1230.42 379.343 1224.69 Q383.191 1218.93 390.454 1218.93 Z" fill="#000000" fill-rule="nonzero" fill-opacity="1" /><path clip-path="url(#clip010)" d="M428.156 1223.56 Q423.643 1223.56 421.357 1228.02 Q419.1 1232.44 419.1 1241.35 Q419.1 1250.24 421.357 1254.69 Q423.643 1259.12 428.156 1259.12 Q432.699 1259.12 434.956 1254.69 Q437.242 1250.24 437.242 1241.35 Q437.242 1232.44 434.956 1228.02 Q432.699 1223.56 428.156 1223.56 M428.156 1218.93 Q435.419 1218.93 439.239 1224.69 Q443.087 1230.42 443.087 1241.35 Q443.087 1252.26 439.239 1258.02 Q435.419 1263.75 428.156 1263.75 Q420.894 1263.75 417.045 1258.02 Q413.226 1252.26 413.226 1241.35 Q413.226 1230.42 417.045 1224.69 Q420.894 1218.93 428.156 1218.93 Z" fill="#000000" fill-rule="nonzero" fill-opacity="1" /><path clip-path="url(#clip010)" d="M335.159 1046.49 Q330.645 1046.49 328.36 1050.95 Q326.103 1055.38 326.103 1064.29 Q326.103 1073.17 328.36 1077.63 Q330.645 1082.05 335.159 1082.05 Q339.702 1082.05 341.959 1077.63 Q344.245 1073.17 344.245 1064.29 Q344.245 1055.38 341.959 1050.95 Q339.702 1046.49 335.159 1046.49 M335.159 1041.86 Q342.422 1041.86 346.241 1047.62 Q350.09 1053.35 350.09 1064.29 Q350.09 1075.2 346.241 1080.96 Q342.422 1086.68 335.159 1086.68 Q327.897 1086.68 324.048 1080.96 Q320.229 1075.2 320.229 1064.29 Q320.229 1053.35 324.048 1047.62 Q327.897 1041.86 335.159 1041.86 Z" fill="#000000" fill-rule="nonzero" fill-opacity="1" /><path clip-path="url(#clip010)" d="M360.362 1078.5 L366.467 1078.5 L366.467 1085.85 L360.362 1085.85 L360.362 1078.5 Z" fill="#000000" fill-rule="nonzero" fill-opacity="1" /><path clip-path="url(#clip010)" d="M391.698 1046.49 Q387.184 1046.49 384.899 1050.95 Q382.642 1055.38 382.642 1064.29 Q382.642 1073.17 384.899 1077.63 Q387.184 1082.05 391.698 1082.05 Q396.241 1082.05 398.498 1077.63 Q400.784 1073.17 400.784 1064.29 Q400.784 1055.38 398.498 1050.95 Q396.241 1046.49 391.698 1046.49 M391.698 1041.86 Q398.961 1041.86 402.78 1047.62 Q406.629 1053.35 406.629 1064.29 Q406.629 1075.2 402.78 1080.96 Q398.961 1086.68 391.698 1086.68 Q384.436 1086.68 380.587 1080.96 Q376.768 1075.2 376.768 1064.29 Q376.768 1053.35 380.587 1047.62 Q384.436 1041.86 391.698 1041.86 Z" fill="#000000" fill-rule="nonzero" fill-opacity="1" /><path clip-path="url(#clip010)" d="M416.959 1042.65 L439.904 1042.65 L439.904 1047.56 L422.312 1047.56 L422.312 1058.15 Q423.585 1057.72 424.858 1057.52 Q426.131 1057.29 427.404 1057.29 Q434.638 1057.29 438.862 1061.25 Q443.087 1065.21 443.087 1071.99 Q443.087 1078.96 438.747 1082.84 Q434.406 1086.68 426.507 1086.68 Q423.787 1086.68 420.952 1086.22 Q418.145 1085.76 415.136 1084.83 L415.136 1078.96 Q417.74 1080.38 420.518 1081.07 Q423.295 1081.77 426.391 1081.77 Q431.397 1081.77 434.32 1079.13 Q437.242 1076.5 437.242 1071.99 Q437.242 1067.47 434.32 1064.84 Q431.397 1062.21 426.391 1062.21 Q424.048 1062.21 421.704 1062.73 Q419.389 1063.25 416.959 1064.35 L416.959 1042.65 Z" fill="#000000" fill-rule="nonzero" fill-opacity="1" /><path clip-path="url(#clip010)" d="M333.915 869.427 Q329.401 869.427 327.115 873.883 Q324.858 878.311 324.858 887.223 Q324.858 896.106 327.115 900.562 Q329.401 904.989 333.915 904.989 Q338.458 904.989 340.715 900.562 Q343.001 896.106 343.001 887.223 Q343.001 878.311 340.715 873.883 Q338.458 869.427 333.915 869.427 M333.915 864.798 Q341.178 864.798 344.997 870.556 Q348.846 876.285 348.846 887.223 Q348.846 898.131 344.997 903.889 Q341.178 909.618 333.915 909.618 Q326.652 909.618 322.804 903.889 Q318.985 898.131 318.985 887.223 Q318.985 876.285 322.804 870.556 Q326.652 864.798 333.915 864.798 Z" fill="#000000" fill-rule="nonzero" fill-opacity="1" /><path clip-path="url(#clip010)" d="M359.117 901.43 L365.223 901.43 L365.223 908.779 L359.117 908.779 L359.117 901.43 Z" fill="#000000" fill-rule="nonzero" fill-opacity="1" /><path clip-path="url(#clip010)" d="M378.967 903.86 L388.515 903.86 L388.515 870.903 L378.128 872.986 L378.128 867.662 L388.458 865.579 L394.302 865.579 L394.302 903.86 L403.851 903.86 L403.851 908.779 L378.967 908.779 L378.967 903.86 Z" fill="#000000" fill-rule="nonzero" fill-opacity="1" /><path clip-path="url(#clip010)" d="M428.156 869.427 Q423.643 869.427 421.357 873.883 Q419.1 878.311 419.1 887.223 Q419.1 896.106 421.357 900.562 Q423.643 904.989 428.156 904.989 Q432.699 904.989 434.956 900.562 Q437.242 896.106 437.242 887.223 Q437.242 878.311 434.956 873.883 Q432.699 869.427 428.156 869.427 M428.156 864.798 Q435.419 864.798 439.239 870.556 Q443.087 876.285 443.087 887.223 Q443.087 898.131 439.239 903.889 Q435.419 909.618 428.156 909.618 Q420.894 909.618 417.045 903.889 Q413.226 898.131 413.226 887.223 Q413.226 876.285 417.045 870.556 Q420.894 864.798 428.156 864.798 Z" fill="#000000" fill-rule="nonzero" fill-opacity="1" /><path clip-path="url(#clip010)" d="M335.159 692.361 Q330.645 692.361 328.36 696.817 Q326.103 701.244 326.103 710.156 Q326.103 719.039 328.36 723.495 Q330.645 727.922 335.159 727.922 Q339.702 727.922 341.959 723.495 Q344.245 719.039 344.245 710.156 Q344.245 701.244 341.959 696.817 Q339.702 692.361 335.159 692.361 M335.159 687.732 Q342.422 687.732 346.241 693.49 Q350.09 699.219 350.09 710.156 Q350.09 721.065 346.241 726.823 Q342.422 732.552 335.159 732.552 Q327.897 732.552 324.048 726.823 Q320.229 721.065 320.229 710.156 Q320.229 699.219 324.048 693.49 Q327.897 687.732 335.159 687.732 Z" fill="#000000" fill-rule="nonzero" fill-opacity="1" /><path clip-path="url(#clip010)" d="M360.362 724.363 L366.467 724.363 L366.467 731.713 L360.362 731.713 L360.362 724.363 Z" fill="#000000" fill-rule="nonzero" fill-opacity="1" /><path clip-path="url(#clip010)" d="M380.211 726.794 L389.76 726.794 L389.76 693.837 L379.372 695.92 L379.372 690.596 L389.702 688.513 L395.547 688.513 L395.547 726.794 L405.095 726.794 L405.095 731.713 L380.211 731.713 L380.211 726.794 Z" fill="#000000" fill-rule="nonzero" fill-opacity="1" /><path clip-path="url(#clip010)" d="M416.959 688.513 L439.904 688.513 L439.904 693.432 L422.312 693.432 L422.312 704.022 Q423.585 703.588 424.858 703.386 Q426.131 703.154 427.404 703.154 Q434.638 703.154 438.862 707.118 Q443.087 711.082 443.087 717.853 Q443.087 724.826 438.747 728.704 Q434.406 732.552 426.507 732.552 Q423.787 732.552 420.952 732.089 Q418.145 731.626 415.136 730.7 L415.136 724.826 Q417.74 726.244 420.518 726.939 Q423.295 727.633 426.391 727.633 Q431.397 727.633 434.32 725 Q437.242 722.367 437.242 717.853 Q437.242 713.339 434.32 710.706 Q431.397 708.073 426.391 708.073 Q424.048 708.073 421.704 708.594 Q419.389 709.115 416.959 710.214 L416.959 688.513 Z" fill="#000000" fill-rule="nonzero" fill-opacity="1" /><path clip-path="url(#clip010)" d="M333.915 515.295 Q329.401 515.295 327.115 519.751 Q324.858 524.178 324.858 533.09 Q324.858 541.973 327.115 546.429 Q329.401 550.856 333.915 550.856 Q338.458 550.856 340.715 546.429 Q343.001 541.973 343.001 533.09 Q343.001 524.178 340.715 519.751 Q338.458 515.295 333.915 515.295 M333.915 510.665 Q341.178 510.665 344.997 516.424 Q348.846 522.153 348.846 533.09 Q348.846 543.999 344.997 549.757 Q341.178 555.486 333.915 555.486 Q326.652 555.486 322.804 549.757 Q318.985 543.999 318.985 533.09 Q318.985 522.153 322.804 516.424 Q326.652 510.665 333.915 510.665 Z" fill="#000000" fill-rule="nonzero" fill-opacity="1" /><path clip-path="url(#clip010)" d="M359.117 547.297 L365.223 547.297 L365.223 554.647 L359.117 554.647 L359.117 547.297 Z" fill="#000000" fill-rule="nonzero" fill-opacity="1" /><path clip-path="url(#clip010)" d="M382.989 549.728 L403.388 549.728 L403.388 554.647 L375.958 554.647 L375.958 549.728 Q379.285 546.285 385.014 540.498 Q390.772 534.682 392.248 533.003 Q395.055 529.849 396.154 527.679 Q397.283 525.48 397.283 523.368 Q397.283 519.925 394.852 517.755 Q392.451 515.584 388.573 515.584 Q385.824 515.584 382.757 516.539 Q379.719 517.494 376.247 519.433 L376.247 513.53 Q379.777 512.112 382.844 511.389 Q385.911 510.665 388.458 510.665 Q395.171 510.665 399.164 514.022 Q403.157 517.378 403.157 522.992 Q403.157 525.654 402.144 528.055 Q401.16 530.428 398.527 533.669 Q397.804 534.508 393.926 538.53 Q390.049 542.523 382.989 549.728 Z" fill="#000000" fill-rule="nonzero" fill-opacity="1" /><path clip-path="url(#clip010)" d="M428.156 515.295 Q423.643 515.295 421.357 519.751 Q419.1 524.178 419.1 533.09 Q419.1 541.973 421.357 546.429 Q423.643 550.856 428.156 550.856 Q432.699 550.856 434.956 546.429 Q437.242 541.973 437.242 533.09 Q437.242 524.178 434.956 519.751 Q432.699 515.295 428.156 515.295 M428.156 510.665 Q435.419 510.665 439.239 516.424 Q443.087 522.153 443.087 533.09 Q443.087 543.999 439.239 549.757 Q435.419 555.486 428.156 555.486 Q420.894 555.486 417.045 549.757 Q413.226 543.999 413.226 533.09 Q413.226 522.153 417.045 516.424 Q420.894 510.665 428.156 510.665 Z" fill="#000000" fill-rule="nonzero" fill-opacity="1" /><path clip-path="url(#clip010)" d="M335.159 338.229 Q330.645 338.229 328.36 342.685 Q326.103 347.112 326.103 356.024 Q326.103 364.907 328.36 369.363 Q330.645 373.79 335.159 373.79 Q339.702 373.79 341.959 369.363 Q344.245 364.907 344.245 356.024 Q344.245 347.112 341.959 342.685 Q339.702 338.229 335.159 338.229 M335.159 333.599 Q342.422 333.599 346.241 339.357 Q350.09 345.087 350.09 356.024 Q350.09 366.932 346.241 372.691 Q342.422 378.42 335.159 378.42 Q327.897 378.42 324.048 372.691 Q320.229 366.932 320.229 356.024 Q320.229 345.087 324.048 339.357 Q327.897 333.599 335.159 333.599 Z" fill="#000000" fill-rule="nonzero" fill-opacity="1" /><path clip-path="url(#clip010)" d="M360.362 370.231 L366.467 370.231 L366.467 377.581 L360.362 377.581 L360.362 370.231 Z" fill="#000000" fill-rule="nonzero" fill-opacity="1" /><path clip-path="url(#clip010)" d="M384.233 372.662 L404.632 372.662 L404.632 377.581 L377.202 377.581 L377.202 372.662 Q380.529 369.218 386.259 363.431 Q392.017 357.615 393.492 355.937 Q396.299 352.783 397.398 350.613 Q398.527 348.414 398.527 346.302 Q398.527 342.859 396.096 340.688 Q393.695 338.518 389.818 338.518 Q387.069 338.518 384.002 339.473 Q380.963 340.428 377.491 342.367 L377.491 336.464 Q381.021 335.046 384.088 334.323 Q387.155 333.599 389.702 333.599 Q396.415 333.599 400.408 336.956 Q404.401 340.312 404.401 345.926 Q404.401 348.588 403.388 350.989 Q402.404 353.362 399.771 356.603 Q399.048 357.442 395.171 361.464 Q391.293 365.457 384.233 372.662 Z" fill="#000000" fill-rule="nonzero" fill-opacity="1" /><path clip-path="url(#clip010)" d="M416.959 334.381 L439.904 334.381 L439.904 339.3 L422.312 339.3 L422.312 349.89 Q423.585 349.456 424.858 349.253 Q426.131 349.022 427.404 349.022 Q434.638 349.022 438.862 352.986 Q443.087 356.95 443.087 363.721 Q443.087 370.694 438.747 374.571 Q434.406 378.42 426.507 378.42 Q423.787 378.42 420.952 377.957 Q418.145 377.494 415.136 376.568 L415.136 370.694 Q417.74 372.112 420.518 372.806 Q423.295 373.501 426.391 373.501 Q431.397 373.501 434.32 370.868 Q437.242 368.235 437.242 363.721 Q437.242 359.207 434.32 356.574 Q431.397 353.941 426.391 353.941 Q424.048 353.941 421.704 354.461 Q419.389 354.982 416.959 356.082 L416.959 334.381 Z" fill="#000000" fill-rule="nonzero" fill-opacity="1" /><path clip-path="url(#clip010)" d="M226.492 874.811 L244.348 874.811 L244.348 866.726 Q244.348 862.239 242.024 859.788 Q239.701 857.337 235.404 857.337 Q231.139 857.337 228.816 859.788 Q226.492 862.239 226.492 866.726 L226.492 874.811 M221.209 881.24 L221.209 866.726 Q221.209 858.737 224.837 854.663 Q228.434 850.557 235.404 850.557 Q242.438 850.557 246.035 854.663 Q249.631 858.737 249.631 866.726 L249.631 874.811 L268.729 874.811 L268.729 881.24 L221.209 881.24 Z" fill="#000000" fill-rule="nonzero" fill-opacity="1" /><path clip-path="url(#clip010)" d="M238.555 822.676 Q237.982 823.662 237.728 824.84 Q237.441 825.986 237.441 827.386 Q237.441 832.352 240.688 835.025 Q243.902 837.667 249.95 837.667 L268.729 837.667 L268.729 843.555 L233.081 843.555 L233.081 837.667 L238.619 837.667 Q235.372 835.821 233.813 832.861 Q232.221 829.901 232.221 825.668 Q232.221 825.063 232.317 824.331 Q232.38 823.599 232.54 822.708 L238.555 822.676 Z" fill="#000000" fill-rule="nonzero" fill-opacity="1" /><path clip-path="url(#clip010)" d="M237.186 804.151 Q237.186 808.862 240.879 811.599 Q244.539 814.337 250.936 814.337 Q257.334 814.337 261.026 811.631 Q264.686 808.894 264.686 804.151 Q264.686 799.473 260.994 796.735 Q257.302 793.998 250.936 793.998 Q244.603 793.998 240.91 796.735 Q237.186 799.473 237.186 804.151 M232.221 804.151 Q232.221 796.513 237.186 792.152 Q242.152 787.792 250.936 787.792 Q259.689 787.792 264.686 792.152 Q269.652 796.513 269.652 804.151 Q269.652 811.822 264.686 816.183 Q259.689 820.511 250.936 820.511 Q242.152 820.511 237.186 816.183 Q232.221 811.822 232.221 804.151 Z" fill="#000000" fill-rule="nonzero" fill-opacity="1" /><path clip-path="url(#clip010)" d="M250.936 752.494 Q244.475 752.494 240.815 755.167 Q237.123 757.809 237.123 762.456 Q237.123 767.103 240.815 769.777 Q244.475 772.418 250.936 772.418 Q257.398 772.418 261.09 769.777 Q264.75 767.103 264.75 762.456 Q264.75 757.809 261.09 755.167 Q257.398 752.494 250.936 752.494 M238.491 772.418 Q235.309 770.572 233.781 767.771 Q232.221 764.939 232.221 761.024 Q232.221 754.531 237.377 750.489 Q242.534 746.415 250.936 746.415 Q259.339 746.415 264.495 750.489 Q269.652 754.531 269.652 761.024 Q269.652 764.939 268.124 767.771 Q266.564 770.572 263.381 772.418 L268.729 772.418 L268.729 778.307 L219.203 778.307 L219.203 772.418 L238.491 772.418 Z" fill="#000000" fill-rule="nonzero" fill-opacity="1" /><path clip-path="url(#clip010)" d="M250.809 720.506 Q250.809 727.604 252.432 730.341 Q254.056 733.078 257.971 733.078 Q261.09 733.078 262.936 731.041 Q264.75 728.972 264.75 725.44 Q264.75 720.57 261.313 717.642 Q257.843 714.681 252.114 714.681 L250.809 714.681 L250.809 720.506 M248.39 708.825 L268.729 708.825 L268.729 714.681 L263.318 714.681 Q266.564 716.687 268.124 719.679 Q269.652 722.67 269.652 726.999 Q269.652 732.474 266.596 735.72 Q263.509 738.935 258.352 738.935 Q252.337 738.935 249.281 734.924 Q246.226 730.882 246.226 722.893 L246.226 714.681 L245.653 714.681 Q241.611 714.681 239.414 717.355 Q237.186 719.997 237.186 724.803 Q237.186 727.859 237.919 730.755 Q238.651 733.651 240.115 736.325 L234.704 736.325 Q233.463 733.11 232.858 730.086 Q232.221 727.063 232.221 724.198 Q232.221 716.464 236.232 712.644 Q240.242 708.825 248.39 708.825 Z" fill="#000000" fill-rule="nonzero" fill-opacity="1" /><path clip-path="url(#clip010)" d="M250.936 671.172 Q244.475 671.172 240.815 673.845 Q237.123 676.487 237.123 681.134 Q237.123 685.781 240.815 688.455 Q244.475 691.097 250.936 691.097 Q257.398 691.097 261.09 688.455 Q264.75 685.781 264.75 681.134 Q264.75 676.487 261.09 673.845 Q257.398 671.172 250.936 671.172 M238.491 691.097 Q235.309 689.25 233.781 686.45 Q232.221 683.617 232.221 679.702 Q232.221 673.209 237.377 669.167 Q242.534 665.093 250.936 665.093 Q259.339 665.093 264.495 669.167 Q269.652 673.209 269.652 679.702 Q269.652 683.617 268.124 686.45 Q266.564 689.25 263.381 691.097 L268.729 691.097 L268.729 696.985 L219.203 696.985 L219.203 691.097 L238.491 691.097 Z" fill="#000000" fill-rule="nonzero" fill-opacity="1" /><path clip-path="url(#clip010)" d="M233.081 655.385 L233.081 649.528 L268.729 649.528 L268.729 655.385 L233.081 655.385 M219.203 655.385 L219.203 649.528 L226.619 649.528 L226.619 655.385 L219.203 655.385 Z" fill="#000000" fill-rule="nonzero" fill-opacity="1" /><path clip-path="url(#clip010)" d="M219.203 637.274 L219.203 631.418 L268.729 631.418 L268.729 637.274 L219.203 637.274 Z" fill="#000000" fill-rule="nonzero" fill-opacity="1" /><path clip-path="url(#clip010)" d="M233.081 619.164 L233.081 613.308 L268.729 613.308 L268.729 619.164 L233.081 619.164 M219.203 619.164 L219.203 613.308 L226.619 613.308 L226.619 619.164 L219.203 619.164 Z" fill="#000000" fill-rule="nonzero" fill-opacity="1" /><path clip-path="url(#clip010)" d="M222.959 595.261 L233.081 595.261 L233.081 583.198 L237.632 583.198 L237.632 595.261 L256.984 595.261 Q261.344 595.261 262.586 594.083 Q263.827 592.874 263.827 589.213 L263.827 583.198 L268.729 583.198 L268.729 589.213 Q268.729 595.993 266.214 598.571 Q263.668 601.149 256.984 601.149 L237.632 601.149 L237.632 605.446 L233.081 605.446 L233.081 601.149 L222.959 601.149 L222.959 595.261 Z" fill="#000000" fill-rule="nonzero" fill-opacity="1" /><path clip-path="url(#clip010)" d="M272.039 560.663 Q278.404 563.146 280.346 565.501 Q282.288 567.856 282.288 571.803 L282.288 576.482 L277.386 576.482 L277.386 573.045 Q277.386 570.626 276.24 569.289 Q275.094 567.952 270.829 566.329 L268.156 565.278 L233.081 579.697 L233.081 573.49 L260.962 562.35 L233.081 551.21 L233.081 545.004 L272.039 560.663 Z" fill="#000000" fill-rule="nonzero" fill-opacity="1" /><path clip-path="url(#clip010)" d="M934.077 10.0578 L934.077 15.758 Q930.749 14.1666 927.798 13.3853 Q924.847 12.6041 922.098 12.6041 Q917.323 12.6041 914.719 14.4559 Q912.144 16.3078 912.144 19.7221 Q912.144 22.5867 913.851 24.0624 Q915.587 25.5091 920.391 26.4061 L923.921 27.1295 Q930.46 28.3737 933.556 31.5276 Q936.681 34.6526 936.681 39.9188 Q936.681 46.1977 932.456 49.4384 Q928.261 52.6791 920.13 52.6791 Q917.063 52.6791 913.591 51.9847 Q910.148 51.2902 906.444 49.9303 L906.444 43.9118 Q910.003 45.9083 913.417 46.921 Q916.832 47.9338 920.13 47.9338 Q925.136 47.9338 927.856 45.9662 Q930.576 43.9986 930.576 40.3528 Q930.576 37.1699 928.608 35.376 Q926.669 33.582 922.213 32.685 L918.654 31.9906 Q912.115 30.6885 909.193 27.9107 Q906.27 25.133 906.27 20.1851 Q906.27 14.4559 910.292 11.1573 Q914.343 7.85875 921.432 7.85875 Q924.47 7.85875 927.624 8.40852 Q930.778 8.95829 934.077 10.0578 Z" fill="#000000" fill-rule="nonzero" fill-opacity="1" /><path clip-path="url(#clip010)" d="M950.83 10.2314 L950.83 19.4328 L961.797 19.4328 L961.797 23.5705 L950.83 23.5705 L950.83 41.163 Q950.83 45.1271 951.901 46.2555 Q953 47.384 956.328 47.384 L961.797 47.384 L961.797 51.84 L956.328 51.84 Q950.165 51.84 947.821 49.5541 Q945.477 47.2393 945.477 41.163 L945.477 23.5705 L941.571 23.5705 L941.571 19.4328 L945.477 19.4328 L945.477 10.2314 L950.83 10.2314 Z" fill="#000000" fill-rule="nonzero" fill-opacity="1" /><path clip-path="url(#clip010)" d="M983.527 35.5496 Q977.074 35.5496 974.586 37.0253 Q972.097 38.501 972.097 42.06 Q972.097 44.8956 973.949 46.5738 Q975.83 48.2231 979.042 48.2231 Q983.469 48.2231 986.131 45.0981 Q988.822 41.9442 988.822 36.7359 L988.822 35.5496 L983.527 35.5496 M994.146 33.3505 L994.146 51.84 L988.822 51.84 L988.822 46.921 Q986.999 49.8724 984.279 51.2902 Q981.559 52.6791 977.624 52.6791 Q972.647 52.6791 969.696 49.9014 Q966.773 47.0947 966.773 42.4072 Q966.773 36.9385 970.419 34.1607 Q974.094 31.3829 981.357 31.3829 L988.822 31.3829 L988.822 30.8621 Q988.822 27.1874 986.391 25.1908 Q983.99 23.1654 979.621 23.1654 Q976.843 23.1654 974.21 23.8309 Q971.577 24.4964 969.146 25.8274 L969.146 20.9085 Q972.069 19.78 974.817 19.2302 Q977.566 18.6515 980.17 18.6515 Q987.202 18.6515 990.674 22.2973 Q994.146 25.9431 994.146 33.3505 Z" fill="#000000" fill-rule="nonzero" fill-opacity="1" /><path clip-path="url(#clip010)" d="M1010.38 10.2314 L1010.38 19.4328 L1021.34 19.4328 L1021.34 23.5705 L1010.38 23.5705 L1010.38 41.163 Q1010.38 45.1271 1011.45 46.2555 Q1012.55 47.384 1015.88 47.384 L1021.34 47.384 L1021.34 51.84 L1015.88 51.84 Q1009.71 51.84 1007.37 49.5541 Q1005.03 47.2393 1005.03 41.163 L1005.03 23.5705 L1001.12 23.5705 L1001.12 19.4328 L1005.03 19.4328 L1005.03 10.2314 L1010.38 10.2314 Z" fill="#000000" fill-rule="nonzero" fill-opacity="1" /><path clip-path="url(#clip010)" d="M1028.35 19.4328 L1033.67 19.4328 L1033.67 51.84 L1028.35 51.84 L1028.35 19.4328 M1028.35 6.81709 L1033.67 6.81709 L1033.67 13.559 L1028.35 13.559 L1028.35 6.81709 Z" fill="#000000" fill-rule="nonzero" fill-opacity="1" /><path clip-path="url(#clip010)" d="M1057.37 23.1654 Q1053.09 23.1654 1050.6 26.5218 Q1048.11 29.8494 1048.11 35.6653 Q1048.11 41.4813 1050.57 44.8377 Q1053.06 48.1653 1057.37 48.1653 Q1061.62 48.1653 1064.11 44.8088 Q1066.6 41.4523 1066.6 35.6653 Q1066.6 29.9072 1064.11 26.5508 Q1061.62 23.1654 1057.37 23.1654 M1057.37 18.6515 Q1064.31 18.6515 1068.28 23.1654 Q1072.24 27.6792 1072.24 35.6653 Q1072.24 43.6225 1068.28 48.1653 Q1064.31 52.6791 1057.37 52.6791 Q1050.4 52.6791 1046.43 48.1653 Q1042.5 43.6225 1042.5 35.6653 Q1042.5 27.6792 1046.43 23.1654 Q1050.4 18.6515 1057.37 18.6515 Z" fill="#000000" fill-rule="nonzero" fill-opacity="1" /><path clip-path="url(#clip010)" d="M1108.01 32.2799 L1108.01 51.84 L1102.68 51.84 L1102.68 32.4535 Q1102.68 27.8529 1100.89 25.567 Q1099.09 23.2811 1095.51 23.2811 Q1091.19 23.2811 1088.71 26.03 Q1086.22 28.7788 1086.22 33.5241 L1086.22 51.84 L1080.86 51.84 L1080.86 19.4328 L1086.22 19.4328 L1086.22 24.4675 Q1088.13 21.545 1090.7 20.0983 Q1093.31 18.6515 1096.69 18.6515 Q1102.28 18.6515 1105.14 22.1237 Q1108.01 25.567 1108.01 32.2799 Z" fill="#000000" fill-rule="nonzero" fill-opacity="1" /><path clip-path="url(#clip010)" d="M1133.35 35.5496 Q1126.9 35.5496 1124.41 37.0253 Q1121.92 38.501 1121.92 42.06 Q1121.92 44.8956 1123.77 46.5738 Q1125.66 48.2231 1128.87 48.2231 Q1133.29 48.2231 1135.96 45.0981 Q1138.65 41.9442 1138.65 36.7359 L1138.65 35.5496 L1133.35 35.5496 M1143.97 33.3505 L1143.97 51.84 L1138.65 51.84 L1138.65 46.921 Q1136.82 49.8724 1134.1 51.2902 Q1131.38 52.6791 1127.45 52.6791 Q1122.47 52.6791 1119.52 49.9014 Q1116.6 47.0947 1116.6 42.4072 Q1116.6 36.9385 1120.24 34.1607 Q1123.92 31.3829 1131.18 31.3829 L1138.65 31.3829 L1138.65 30.8621 Q1138.65 27.1874 1136.22 25.1908 Q1133.82 23.1654 1129.45 23.1654 Q1126.67 23.1654 1124.04 23.8309 Q1121.4 24.4964 1118.97 25.8274 L1118.97 20.9085 Q1121.89 19.78 1124.64 19.2302 Q1127.39 18.6515 1130 18.6515 Q1137.03 18.6515 1140.5 22.2973 Q1143.97 25.9431 1143.97 33.3505 Z" fill="#000000" fill-rule="nonzero" fill-opacity="1" /><path clip-path="url(#clip010)" d="M1173.72 24.4096 Q1172.82 23.8888 1171.75 23.6573 Q1170.71 23.3969 1169.43 23.3969 Q1164.92 23.3969 1162.49 26.3482 Q1160.09 29.2707 1160.09 34.7683 L1160.09 51.84 L1154.74 51.84 L1154.74 19.4328 L1160.09 19.4328 L1160.09 24.4675 Q1161.77 21.5161 1164.46 20.0983 Q1167.15 18.6515 1171 18.6515 Q1171.55 18.6515 1172.21 18.7383 Q1172.88 18.7962 1173.69 18.9409 L1173.72 24.4096 Z" fill="#000000" fill-rule="nonzero" fill-opacity="1" /><path clip-path="url(#clip010)" d="M1192.78 54.8492 Q1190.53 60.6362 1188.39 62.4013 Q1186.25 64.1663 1182.66 64.1663 L1178.4 64.1663 L1178.4 59.7103 L1181.53 59.7103 Q1183.73 59.7103 1184.94 58.6687 Q1186.16 57.627 1187.63 53.7497 L1188.59 51.3192 L1175.48 19.4328 L1181.12 19.4328 L1191.25 44.7799 L1201.38 19.4328 L1207.02 19.4328 L1192.78 54.8492 Z" fill="#000000" fill-rule="nonzero" fill-opacity="1" /><path clip-path="url(#clip010)" d="M1239.28 13.4432 L1239.28 47.0368 L1246.34 47.0368 Q1255.28 47.0368 1259.42 42.9859 Q1263.59 38.935 1263.59 30.1966 Q1263.59 21.5161 1259.42 17.4941 Q1255.28 13.4432 1246.34 13.4432 L1239.28 13.4432 M1233.44 8.64 L1245.45 8.64 Q1258 8.64 1263.88 13.8772 Q1269.75 19.0855 1269.75 30.1966 Q1269.75 41.3655 1263.85 46.6028 Q1257.95 51.84 1245.45 51.84 L1233.44 51.84 L1233.44 8.64 Z" fill="#000000" fill-rule="nonzero" fill-opacity="1" /><path clip-path="url(#clip010)" d="M1278.84 19.4328 L1284.16 19.4328 L1284.16 51.84 L1278.84 51.84 L1278.84 19.4328 M1278.84 6.81709 L1284.16 6.81709 L1284.16 13.559 L1278.84 13.559 L1278.84 6.81709 Z" fill="#000000" fill-rule="nonzero" fill-opacity="1" /><path clip-path="url(#clip010)" d="M1315.96 20.3876 L1315.96 25.4223 Q1313.7 24.2649 1311.27 23.6862 Q1308.84 23.1075 1306.24 23.1075 Q1302.28 23.1075 1300.28 24.3228 Q1298.31 25.5381 1298.31 27.9686 Q1298.31 29.8204 1299.73 30.891 Q1301.15 31.9327 1305.43 32.8876 L1307.25 33.2926 Q1312.92 34.5079 1315.3 36.7359 Q1317.7 38.935 1317.7 42.8991 Q1317.7 47.4129 1314.11 50.046 Q1310.55 52.6791 1304.3 52.6791 Q1301.7 52.6791 1298.86 52.1583 Q1296.05 51.6664 1292.93 50.6537 L1292.93 45.156 Q1295.88 46.6896 1298.75 47.4708 Q1301.61 48.2231 1304.42 48.2231 Q1308.18 48.2231 1310.2 46.95 Q1312.23 45.6479 1312.23 43.3042 Q1312.23 41.134 1310.75 39.9766 Q1309.31 38.8192 1304.36 37.7486 L1302.51 37.3146 Q1297.56 36.273 1295.36 34.1318 Q1293.16 31.9616 1293.16 28.2001 Q1293.16 23.6283 1296.4 21.1399 Q1299.64 18.6515 1305.6 18.6515 Q1308.55 18.6515 1311.16 19.0855 Q1313.76 19.5196 1315.96 20.3876 Z" fill="#000000" fill-rule="nonzero" fill-opacity="1" /><path clip-path="url(#clip010)" d="M1331.44 10.2314 L1331.44 19.4328 L1342.41 19.4328 L1342.41 23.5705 L1331.44 23.5705 L1331.44 41.163 Q1331.44 45.1271 1332.51 46.2555 Q1333.61 47.384 1336.94 47.384 L1342.41 47.384 L1342.41 51.84 L1336.94 51.84 Q1330.78 51.84 1328.43 49.5541 Q1326.09 47.2393 1326.09 41.163 L1326.09 23.5705 L1322.18 23.5705 L1322.18 19.4328 L1326.09 19.4328 L1326.09 10.2314 L1331.44 10.2314 Z" fill="#000000" fill-rule="nonzero" fill-opacity="1" /><path clip-path="url(#clip010)" d="M1368.19 24.4096 Q1367.29 23.8888 1366.22 23.6573 Q1365.18 23.3969 1363.91 23.3969 Q1359.39 23.3969 1356.96 26.3482 Q1354.56 29.2707 1354.56 34.7683 L1354.56 51.84 L1349.21 51.84 L1349.21 19.4328 L1354.56 19.4328 L1354.56 24.4675 Q1356.24 21.5161 1358.93 20.0983 Q1361.62 18.6515 1365.47 18.6515 Q1366.02 18.6515 1366.68 18.7383 Q1367.35 18.7962 1368.16 18.9409 L1368.19 24.4096 Z" fill="#000000" fill-rule="nonzero" fill-opacity="1" /><path clip-path="url(#clip010)" d="M1373.77 19.4328 L1379.1 19.4328 L1379.1 51.84 L1373.77 51.84 L1373.77 19.4328 M1373.77 6.81709 L1379.1 6.81709 L1379.1 13.559 L1373.77 13.559 L1373.77 6.81709 Z" fill="#000000" fill-rule="nonzero" fill-opacity="1" /><path clip-path="url(#clip010)" d="M1413.5 35.6653 Q1413.5 29.7915 1411.07 26.464 Q1408.67 23.1075 1404.44 23.1075 Q1400.22 23.1075 1397.79 26.464 Q1395.39 29.7915 1395.39 35.6653 Q1395.39 41.5391 1397.79 44.8956 Q1400.22 48.2231 1404.44 48.2231 Q1408.67 48.2231 1411.07 44.8956 Q1413.5 41.5391 1413.5 35.6653 M1395.39 24.3517 Q1397.07 21.4582 1399.61 20.0693 Q1402.19 18.6515 1405.75 18.6515 Q1411.65 18.6515 1415.32 23.339 Q1419.03 28.0265 1419.03 35.6653 Q1419.03 43.3042 1415.32 47.9916 Q1411.65 52.6791 1405.75 52.6791 Q1402.19 52.6791 1399.61 51.2902 Q1397.07 49.8724 1395.39 46.9789 L1395.39 51.84 L1390.04 51.84 L1390.04 6.81709 L1395.39 6.81709 L1395.39 24.3517 Z" fill="#000000" fill-rule="nonzero" fill-opacity="1" /><path clip-path="url(#clip010)" d="M1427.3 39.0507 L1427.3 19.4328 L1432.63 19.4328 L1432.63 38.8482 Q1432.63 43.4488 1434.42 45.7636 Q1436.22 48.0495 1439.8 48.0495 Q1444.11 48.0495 1446.6 45.3007 Q1449.12 42.5519 1449.12 37.8065 L1449.12 19.4328 L1454.44 19.4328 L1454.44 51.84 L1449.12 51.84 L1449.12 46.8632 Q1447.18 49.8145 1444.61 51.2613 Q1442.06 52.6791 1438.67 52.6791 Q1433.09 52.6791 1430.2 49.2069 Q1427.3 45.7347 1427.3 39.0507 M1440.7 18.6515 L1440.7 18.6515 Z" fill="#000000" fill-rule="nonzero" fill-opacity="1" /><path clip-path="url(#clip010)" d="M1470.68 10.2314 L1470.68 19.4328 L1481.64 19.4328 L1481.64 23.5705 L1470.68 23.5705 L1470.68 41.163 Q1470.68 45.1271 1471.75 46.2555 Q1472.85 47.384 1476.17 47.384 L1481.64 47.384 L1481.64 51.84 L1476.17 51.84 Q1470.01 51.84 1467.67 49.5541 Q1465.32 47.2393 1465.32 41.163 L1465.32 23.5705 L1461.42 23.5705 L1461.42 19.4328 L1465.32 19.4328 L1465.32 10.2314 L1470.68 10.2314 Z" fill="#000000" fill-rule="nonzero" fill-opacity="1" /><path clip-path="url(#clip010)" d="M1488.65 19.4328 L1493.97 19.4328 L1493.97 51.84 L1488.65 51.84 L1488.65 19.4328 M1488.65 6.81709 L1493.97 6.81709 L1493.97 13.559 L1488.65 13.559 L1488.65 6.81709 Z" fill="#000000" fill-rule="nonzero" fill-opacity="1" /><path clip-path="url(#clip010)" d="M1517.67 23.1654 Q1513.39 23.1654 1510.9 26.5218 Q1508.41 29.8494 1508.41 35.6653 Q1508.41 41.4813 1510.87 44.8377 Q1513.36 48.1653 1517.67 48.1653 Q1521.92 48.1653 1524.41 44.8088 Q1526.9 41.4523 1526.9 35.6653 Q1526.9 29.9072 1524.41 26.5508 Q1521.92 23.1654 1517.67 23.1654 M1517.67 18.6515 Q1524.61 18.6515 1528.58 23.1654 Q1532.54 27.6792 1532.54 35.6653 Q1532.54 43.6225 1528.58 48.1653 Q1524.61 52.6791 1517.67 52.6791 Q1510.69 52.6791 1506.73 48.1653 Q1502.79 43.6225 1502.79 35.6653 Q1502.79 27.6792 1506.73 23.1654 Q1510.69 18.6515 1517.67 18.6515 Z" fill="#000000" fill-rule="nonzero" fill-opacity="1" /><path clip-path="url(#clip010)" d="M1568.3 32.2799 L1568.3 51.84 L1562.98 51.84 L1562.98 32.4535 Q1562.98 27.8529 1561.19 25.567 Q1559.39 23.2811 1555.8 23.2811 Q1551.49 23.2811 1549 26.03 Q1546.52 28.7788 1546.52 33.5241 L1546.52 51.84 L1541.16 51.84 L1541.16 19.4328 L1546.52 19.4328 L1546.52 24.4675 Q1548.43 21.545 1551 20.0983 Q1553.6 18.6515 1556.99 18.6515 Q1562.57 18.6515 1565.44 22.1237 Q1568.3 25.567 1568.3 32.2799 Z" fill="#000000" fill-rule="nonzero" fill-opacity="1" /><path clip-path="url(#clip010)" d="M1594.32 19.4328 L1625.36 19.4328 L1625.36 24.7568 L1621.28 24.7568 L1621.28 44.6641 Q1621.28 46.7474 1621.98 47.6734 Q1622.7 48.5703 1624.29 48.5703 Q1624.73 48.5703 1625.36 48.5125 Q1626 48.4257 1626.2 48.3967 L1626.2 52.2451 Q1625.19 52.6212 1624.12 52.7949 Q1623.05 52.9685 1621.98 52.9685 Q1618.51 52.9685 1617.18 51.0877 Q1615.84 49.178 1615.84 44.0854 L1615.84 24.7568 L1603.89 24.7568 L1603.89 51.84 L1598.45 51.84 L1598.45 24.7568 L1594.32 24.7568 L1594.32 19.4328 Z" fill="#000000" fill-rule="nonzero" fill-opacity="1" /><path clip-path="url(#clip010)" d="M1649.58 33.5241 L1703.05 33.5241 L1703.05 37.6908 L1649.58 37.6908 L1649.58 33.5241 Z" fill="#000000" fill-rule="nonzero" fill-opacity="1" /><path clip-path="url(#clip010)" d="M1730.6 8.64 L1736.45 8.64 L1736.45 26.898 L1755.83 8.64 L1763.35 8.64 L1741.91 28.7788 L1764.89 51.84 L1757.19 51.84 L1736.45 31.0357 L1736.45 51.84 L1730.6 51.84 L1730.6 8.64 Z" fill="#000000" fill-rule="nonzero" fill-opacity="1" /><path clip-path="url(#clip010)" d="M1769.92 24.9304 L1807.02 24.9304 L1807.02 29.7915 L1769.92 29.7915 L1769.92 24.9304 M1769.92 36.7359 L1807.02 36.7359 L1807.02 41.6549 L1769.92 41.6549 L1769.92 36.7359 Z" fill="#000000" fill-rule="nonzero" fill-opacity="1" /><path clip-path="url(#clip010)" d="M1819.81 50.943 L1819.81 45.619 Q1822.01 46.6606 1824.26 47.2104 Q1826.52 47.7602 1828.69 47.7602 Q1834.48 47.7602 1837.52 43.8829 Q1840.58 39.9766 1841.02 32.0484 Q1839.34 34.5369 1836.76 35.8679 Q1834.19 37.1989 1831.06 37.1989 Q1824.58 37.1989 1820.79 33.2926 Q1817.03 29.3575 1817.03 22.5577 Q1817.03 15.9027 1820.96 11.8807 Q1824.9 7.85875 1831.44 7.85875 Q1838.93 7.85875 1842.87 13.6168 Q1846.83 19.346 1846.83 30.2834 Q1846.83 40.4975 1841.97 46.6028 Q1837.14 52.6791 1828.95 52.6791 Q1826.75 52.6791 1824.49 52.2451 Q1822.24 51.8111 1819.81 50.943 M1831.44 32.6271 Q1835.37 32.6271 1837.66 29.9362 Q1839.97 27.2452 1839.97 22.5577 Q1839.97 17.8992 1837.66 15.2083 Q1835.37 12.4884 1831.44 12.4884 Q1827.5 12.4884 1825.19 15.2083 Q1822.9 17.8992 1822.9 22.5577 Q1822.9 27.2452 1825.19 29.9362 Q1827.5 32.6271 1831.44 32.6271 Z" fill="#000000" fill-rule="nonzero" fill-opacity="1" /><path clip-path="url(#clip012)" d="M577.811 843.068 L577.811 1241.31 L723.037 1241.31 L723.037 843.068 L577.811 843.068 L577.811 843.068  Z" fill="#4682b4" fill-rule="evenodd" fill-opacity="0.7"/>
<polyline clip-path="url(#clip012)" style="stroke:#000000; stroke-linecap:round; stroke-linejoin:round; stroke-width:4; stroke-opacity:0.7; fill:none" points="577.811,843.068 577.811,1241.31 723.037,1241.31 723.037,843.068 577.811,843.068 "/>
<path clip-path="url(#clip012)" d="M759.343 1075.92 L759.343 1241.31 L904.569 1241.31 L904.569 1075.92 L759.343 1075.92 L759.343 1075.92  Z" fill="#4682b4" fill-rule="evenodd" fill-opacity="0.7"/>
<polyline clip-path="url(#clip012)" style="stroke:#000000; stroke-linecap:round; stroke-linejoin:round; stroke-width:4; stroke-opacity:0.7; fill:none" points="759.343,1075.92 759.343,1241.31 904.569,1241.31 904.569,1075.92 759.343,1075.92 "/>
<path clip-path="url(#clip012)" d="M940.875 910.032 L940.875 1241.31 L1086.1 1241.31 L1086.1 910.032 L940.875 910.032 L940.875 910.032  Z" fill="#4682b4" fill-rule="evenodd" fill-opacity="0.7"/>
<polyline clip-path="url(#clip012)" style="stroke:#000000; stroke-linecap:round; stroke-linejoin:round; stroke-width:4; stroke-opacity:0.7; fill:none" points="940.875,910.032 940.875,1241.31 1086.1,1241.31 1086.1,910.032 940.875,910.032 "/>
<path clip-path="url(#clip012)" d="M1122.41 862.864 L1122.41 1241.31 L1267.63 1241.31 L1267.63 862.864 L1122.41 862.864 L1122.41 862.864  Z" fill="#4682b4" fill-rule="evenodd" fill-opacity="0.7"/>
<polyline clip-path="url(#clip012)" style="stroke:#000000; stroke-linecap:round; stroke-linejoin:round; stroke-width:4; stroke-opacity:0.7; fill:none" points="1122.41,862.864 1122.41,1241.31 1267.63,1241.31 1267.63,862.864 1122.41,862.864 "/>
<path clip-path="url(#clip012)" d="M1303.94 1001.76 L1303.94 1241.31 L1449.16 1241.31 L1449.16 1001.76 L1303.94 1001.76 L1303.94 1001.76  Z" fill="#4682b4" fill-rule="evenodd" fill-opacity="0.7"/>
<polyline clip-path="url(#clip012)" style="stroke:#000000; stroke-linecap:round; stroke-linejoin:round; stroke-width:4; stroke-opacity:0.7; fill:none" points="1303.94,1001.76 1303.94,1241.31 1449.16,1241.31 1449.16,1001.76 1303.94,1001.76 "/>
<path clip-path="url(#clip012)" d="M1485.47 963.853 L1485.47 1241.31 L1630.7 1241.31 L1630.7 963.853 L1485.47 963.853 L1485.47 963.853  Z" fill="#4682b4" fill-rule="evenodd" fill-opacity="0.7"/>
<polyline clip-path="url(#clip012)" style="stroke:#000000; stroke-linecap:round; stroke-linejoin:round; stroke-width:4; stroke-opacity:0.7; fill:none" points="1485.47,963.853 1485.47,1241.31 1630.7,1241.31 1630.7,963.853 1485.47,963.853 "/>
<path clip-path="url(#clip012)" d="M1667 810.173 L1667 1241.31 L1812.23 1241.31 L1812.23 810.173 L1667 810.173 L1667 810.173  Z" fill="#4682b4" fill-rule="evenodd" fill-opacity="0.7"/>
<polyline clip-path="url(#clip012)" style="stroke:#000000; stroke-linecap:round; stroke-linejoin:round; stroke-width:4; stroke-opacity:0.7; fill:none" points="1667,810.173 1667,1241.31 1812.23,1241.31 1812.23,810.173 1667,810.173 "/>
<path clip-path="url(#clip012)" d="M1848.53 977.87 L1848.53 1241.31 L1993.76 1241.31 L1993.76 977.87 L1848.53 977.87 L1848.53 977.87  Z" fill="#4682b4" fill-rule="evenodd" fill-opacity="0.7"/>
<polyline clip-path="url(#clip012)" style="stroke:#000000; stroke-linecap:round; stroke-linejoin:round; stroke-width:4; stroke-opacity:0.7; fill:none" points="1848.53,977.87 1848.53,1241.31 1993.76,1241.31 1993.76,977.87 1848.53,977.87 "/>
<path clip-path="url(#clip012)" d="M2030.07 184.932 L2030.07 1241.31 L2175.29 1241.31 L2175.29 184.932 L2030.07 184.932 L2030.07 184.932  Z" fill="#4682b4" fill-rule="evenodd" fill-opacity="0.7"/>
<polyline clip-path="url(#clip012)" style="stroke:#000000; stroke-linecap:round; stroke-linejoin:round; stroke-width:4; stroke-opacity:0.7; fill:none" points="2030.07,184.932 2030.07,1241.31 2175.29,1241.31 2175.29,184.932 2030.07,184.932 "/>
<circle clip-path="url(#clip012)" style="fill:#4682b4; stroke:none; fill-opacity:0" cx="650.424" cy="843.068" r="2"/>
<circle clip-path="url(#clip012)" style="fill:#4682b4; stroke:none; fill-opacity:0" cx="831.956" cy="1075.92" r="2"/>
<circle clip-path="url(#clip012)" style="fill:#4682b4; stroke:none; fill-opacity:0" cx="1013.49" cy="910.032" r="2"/>
<circle clip-path="url(#clip012)" style="fill:#4682b4; stroke:none; fill-opacity:0" cx="1195.02" cy="862.864" r="2"/>
<circle clip-path="url(#clip012)" style="fill:#4682b4; stroke:none; fill-opacity:0" cx="1376.55" cy="1001.76" r="2"/>
<circle clip-path="url(#clip012)" style="fill:#4682b4; stroke:none; fill-opacity:0" cx="1558.08" cy="963.853" r="2"/>
<circle clip-path="url(#clip012)" style="fill:#4682b4; stroke:none; fill-opacity:0" cx="1739.62" cy="810.173" r="2"/>
<circle clip-path="url(#clip012)" style="fill:#4682b4; stroke:none; fill-opacity:0" cx="1921.15" cy="977.87" r="2"/>
<circle clip-path="url(#clip012)" style="fill:#4682b4; stroke:none; fill-opacity:0" cx="2102.68" cy="184.932" r="2"/>
</svg>
