<?xml version="1.0" encoding="utf-8"?>
<svg xmlns="http://www.w3.org/2000/svg" xmlns:xlink="http://www.w3.org/1999/xlink" width="600" height="400" viewBox="0 0 2400 1600">
<defs>
  <clipPath id="clip890">
    <rect x="0" y="0" width="2400" height="1600"/>
  </clipPath>
</defs>
<path clip-path="url(#clip890)" d="M0 1600 L2400 1600 L2400 8.88178e-14 L0 8.88178e-14  Z" fill="#ffffff" fill-rule="evenodd" fill-opacity="1"/>
<defs>
  <clipPath id="clip891">
    <rect x="313" y="640" width="2012" height="49"/>
  </clipPath>
</defs>
<path clip-path="url(#clip890)" d="M545.232 1241.31 L2274.02 1241.31 L2274.02 184.932 L545.232 184.932  Z" fill="#ffffff" fill-rule="evenodd" fill-opacity="1"/>
<defs>
  <clipPath id="clip892">
    <rect x="545" y="184" width="1730" height="1057"/>
  </clipPath>
</defs>
<polyline clip-path="url(#clip892)" style="stroke:#000000; stroke-linecap:round; stroke-linejoin:round; stroke-width:2; stroke-opacity:0.1; fill:none" points="566.517,1241.31 566.517,184.932 "/>
<polyline clip-path="url(#clip892)" style="stroke:#000000; stroke-linecap:round; stroke-linejoin:round; stroke-width:2; stroke-opacity:0.1; fill:none" points="842.946,1241.31 842.946,184.932 "/>
<polyline clip-path="url(#clip892)" style="stroke:#000000; stroke-linecap:round; stroke-linejoin:round; stroke-width:2; stroke-opacity:0.1; fill:none" points="1119.37,1241.31 1119.37,184.932 "/>
<polyline clip-path="url(#clip892)" style="stroke:#000000; stroke-linecap:round; stroke-linejoin:round; stroke-width:2; stroke-opacity:0.1; fill:none" points="1395.8,1241.31 1395.8,184.932 "/>
<polyline clip-path="url(#clip892)" style="stroke:#000000; stroke-linecap:round; stroke-linejoin:round; stroke-width:2; stroke-opacity:0.1; fill:none" points="1672.23,1241.31 1672.23,184.932 "/>
<polyline clip-path="url(#clip892)" style="stroke:#000000; stroke-linecap:round; stroke-linejoin:round; stroke-width:2; stroke-opacity:0.1; fill:none" points="1948.66,1241.31 1948.66,184.932 "/>
<polyline clip-path="url(#clip892)" style="stroke:#000000; stroke-linecap:round; stroke-linejoin:round; stroke-width:2; stroke-opacity:0.1; fill:none" points="2225.09,1241.31 2225.09,184.932 "/>
<polyline clip-path="url(#clip892)" style="stroke:#000000; stroke-linecap:round; stroke-linejoin:round; stroke-width:2; stroke-opacity:0.1; fill:none" points="545.232,1209.92 2274.02,1209.92 "/>
<polyline clip-path="url(#clip892)" style="stroke:#000000; stroke-linecap:round; stroke-linejoin:round; stroke-width:2; stroke-opacity:0.1; fill:none" points="545.232,1050.02 2274.02,1050.02 "/>
<polyline clip-path="url(#clip892)" style="stroke:#000000; stroke-linecap:round; stroke-linejoin:round; stroke-width:2; stroke-opacity:0.1; fill:none" points="545.232,890.125 2274.02,890.125 "/>
<polyline clip-path="url(#clip892)" style="stroke:#000000; stroke-linecap:round; stroke-linejoin:round; stroke-width:2; stroke-opacity:0.1; fill:none" points="545.232,730.227 2274.02,730.227 "/>
<polyline clip-path="url(#clip892)" style="stroke:#000000; stroke-linecap:round; stroke-linejoin:round; stroke-width:2; stroke-opacity:0.1; fill:none" points="545.232,570.329 2274.02,570.329 "/>
<polyline clip-path="url(#clip892)" style="stroke:#000000; stroke-linecap:round; stroke-linejoin:round; stroke-width:2; stroke-opacity:0.1; fill:none" points="545.232,410.431 2274.02,410.431 "/>
<polyline clip-path="url(#clip892)" style="stroke:#000000; stroke-linecap:round; stroke-linejoin:round; stroke-width:2; stroke-opacity:0.1; fill:none" points="545.232,250.532 2274.02,250.532 "/>
<polyline clip-path="url(#clip890)" style="stroke:#000000; stroke-linecap:round; stroke-linejoin:round; stroke-width:4; stroke-opacity:1; fill:none" points="545.232,1241.31 2274.02,1241.31 "/>
<polyline clip-path="url(#clip890)" style="stroke:#000000; stroke-linecap:round; stroke-linejoin:round; stroke-width:4; stroke-opacity:1; fill:none" points="566.517,1241.31 566.517,1222.41 "/>
<polyline clip-path="url(#clip890)" style="stroke:#000000; stroke-linecap:round; stroke-linejoin:round; stroke-width:4; stroke-opacity:1; fill:none" points="842.946,1241.31 842.946,1222.41 "/>
<polyline clip-path="url(#clip890)" style="stroke:#000000; stroke-linecap:round; stroke-linejoin:round; stroke-width:4; stroke-opacity:1; fill:none" points="1119.37,1241.31 1119.37,1222.41 "/>
<polyline clip-path="url(#clip890)" style="stroke:#000000; stroke-linecap:round; stroke-linejoin:round; stroke-width:4; stroke-opacity:1; fill:none" points="1395.8,1241.31 1395.8,1222.41 "/>
<polyline clip-path="url(#clip890)" style="stroke:#000000; stroke-linecap:round; stroke-linejoin:round; stroke-width:4; stroke-opacity:1; fill:none" points="1672.23,1241.31 1672.23,1222.41 "/>
<polyline clip-path="url(#clip890)" style="stroke:#000000; stroke-linecap:round; stroke-linejoin:round; stroke-width:4; stroke-opacity:1; fill:none" points="1948.66,1241.31 1948.66,1222.41 "/>
<polyline clip-path="url(#clip890)" style="stroke:#000000; stroke-linecap:round; stroke-linejoin:round; stroke-width:4; stroke-opacity:1; fill:none" points="2225.09,1241.31 2225.09,1222.41 "/>
<path clip-path="url(#clip890)" d="M566.517 1275.16 Q562.004 1275.16 559.718 1279.62 Q557.461 1284.04 557.461 1292.95 Q557.461 1301.84 559.718 1306.29 Q562.004 1310.72 566.517 1310.72 Q571.06 1310.72 573.317 1306.29 Q575.603 1301.84 575.603 1292.95 Q575.603 1284.04 573.317 1279.62 Q571.06 1275.16 566.517 1275.16 M566.517 1270.53 Q573.78 1270.53 577.599 1276.29 Q581.448 1282.02 581.448 1292.95 Q581.448 1303.86 577.599 1309.62 Q573.78 1315.35 566.517 1315.35 Q559.255 1315.35 555.406 1309.62 Q551.587 1303.86 551.587 1292.95 Q551.587 1282.02 555.406 1276.29 Q559.255 1270.53 566.517 1270.53 Z" fill="#000000" fill-rule="nonzero" fill-opacity="1" /><path clip-path="url(#clip890)" d="M811.305 1309.59 L820.854 1309.59 L820.854 1276.64 L810.466 1278.72 L810.466 1273.39 L820.796 1271.31 L826.641 1271.31 L826.641 1309.59 L836.189 1309.59 L836.189 1314.51 L811.305 1314.51 L811.305 1309.59 Z" fill="#000000" fill-rule="nonzero" fill-opacity="1" /><path clip-path="url(#clip890)" d="M860.495 1275.16 Q855.981 1275.16 853.695 1279.62 Q851.438 1284.04 851.438 1292.95 Q851.438 1301.84 853.695 1306.29 Q855.981 1310.72 860.495 1310.72 Q865.038 1310.72 867.295 1306.29 Q869.58 1301.84 869.58 1292.95 Q869.58 1284.04 867.295 1279.62 Q865.038 1275.16 860.495 1275.16 M860.495 1270.53 Q867.758 1270.53 871.577 1276.29 Q875.425 1282.02 875.425 1292.95 Q875.425 1303.86 871.577 1309.62 Q867.758 1315.35 860.495 1315.35 Q853.232 1315.35 849.384 1309.62 Q845.564 1303.86 845.564 1292.95 Q845.564 1282.02 849.384 1276.29 Q853.232 1270.53 860.495 1270.53 Z" fill="#000000" fill-rule="nonzero" fill-opacity="1" /><path clip-path="url(#clip890)" d="M1092.84 1309.59 L1113.24 1309.59 L1113.24 1314.51 L1085.81 1314.51 L1085.81 1309.59 Q1089.14 1306.15 1094.87 1300.36 Q1100.62 1294.55 1102.1 1292.87 Q1104.91 1289.71 1106.01 1287.54 Q1107.13 1285.34 1107.13 1283.23 Q1107.13 1279.79 1104.7 1277.62 Q1102.3 1275.45 1098.43 1275.45 Q1095.68 1275.45 1092.61 1276.4 Q1089.57 1277.36 1086.1 1279.3 L1086.1 1273.39 Q1089.63 1271.98 1092.7 1271.25 Q1095.76 1270.53 1098.31 1270.53 Q1105.02 1270.53 1109.02 1273.89 Q1113.01 1277.24 1113.01 1282.86 Q1113.01 1285.52 1112 1287.92 Q1111.01 1290.29 1108.38 1293.53 Q1107.66 1294.37 1103.78 1298.39 Q1099.9 1302.39 1092.84 1309.59 Z" fill="#000000" fill-rule="nonzero" fill-opacity="1" /><path clip-path="url(#clip890)" d="M1138.01 1275.16 Q1133.49 1275.16 1131.21 1279.62 Q1128.95 1284.04 1128.95 1292.95 Q1128.95 1301.84 1131.21 1306.29 Q1133.49 1310.72 1138.01 1310.72 Q1142.55 1310.72 1144.81 1306.29 Q1147.09 1301.84 1147.09 1292.95 Q1147.09 1284.04 1144.81 1279.62 Q1142.55 1275.16 1138.01 1275.16 M1138.01 1270.53 Q1145.27 1270.53 1149.09 1276.29 Q1152.94 1282.02 1152.94 1292.95 Q1152.94 1303.86 1149.09 1309.62 Q1145.27 1315.35 1138.01 1315.35 Q1130.75 1315.35 1126.9 1309.62 Q1123.08 1303.86 1123.08 1292.95 Q1123.08 1282.02 1126.9 1276.29 Q1130.75 1270.53 1138.01 1270.53 Z" fill="#000000" fill-rule="nonzero" fill-opacity="1" /><path clip-path="url(#clip890)" d="M1381.86 1291.22 Q1386.05 1292.12 1388.4 1294.95 Q1390.77 1297.79 1390.77 1301.95 Q1390.77 1308.35 1386.37 1311.85 Q1381.97 1315.35 1373.87 1315.35 Q1371.15 1315.35 1368.26 1314.8 Q1365.39 1314.28 1362.32 1313.21 L1362.32 1307.57 Q1364.76 1308.98 1367.65 1309.71 Q1370.54 1310.43 1373.7 1310.43 Q1379.19 1310.43 1382.06 1308.26 Q1384.95 1306.09 1384.95 1301.95 Q1384.95 1298.13 1382.26 1295.99 Q1379.6 1293.82 1374.82 1293.82 L1369.79 1293.82 L1369.79 1289.02 L1375.06 1289.02 Q1379.37 1289.02 1381.65 1287.31 Q1383.94 1285.58 1383.94 1282.34 Q1383.94 1279.01 1381.57 1277.24 Q1379.22 1275.45 1374.82 1275.45 Q1372.42 1275.45 1369.67 1275.97 Q1366.93 1276.49 1363.63 1277.59 L1363.63 1272.38 Q1366.95 1271.46 1369.85 1270.99 Q1372.77 1270.53 1375.35 1270.53 Q1382 1270.53 1385.88 1273.57 Q1389.76 1276.58 1389.76 1281.73 Q1389.76 1285.32 1387.7 1287.8 Q1385.65 1290.26 1381.86 1291.22 Z" fill="#000000" fill-rule="nonzero" fill-opacity="1" /><path clip-path="url(#clip890)" d="M1414.35 1275.16 Q1409.84 1275.16 1407.55 1279.62 Q1405.29 1284.04 1405.29 1292.95 Q1405.29 1301.84 1407.55 1306.29 Q1409.84 1310.72 1414.35 1310.72 Q1418.89 1310.72 1421.15 1306.29 Q1423.44 1301.84 1423.44 1292.95 Q1423.44 1284.04 1421.15 1279.62 Q1418.89 1275.16 1414.35 1275.16 M1414.35 1270.53 Q1421.61 1270.53 1425.43 1276.29 Q1429.28 1282.02 1429.28 1292.95 Q1429.28 1303.86 1425.43 1309.62 Q1421.61 1315.35 1414.35 1315.35 Q1407.09 1315.35 1403.24 1309.62 Q1399.42 1303.86 1399.42 1292.95 Q1399.42 1282.02 1403.24 1276.29 Q1407.09 1270.53 1414.35 1270.53 Z" fill="#000000" fill-rule="nonzero" fill-opacity="1" /><path clip-path="url(#clip890)" d="M1657.45 1276.4 L1642.69 1299.47 L1657.45 1299.47 L1657.45 1276.4 M1655.91 1271.31 L1663.26 1271.31 L1663.26 1299.47 L1669.42 1299.47 L1669.42 1304.33 L1663.26 1304.33 L1663.26 1314.51 L1657.45 1314.51 L1657.45 1304.33 L1637.94 1304.33 L1637.94 1298.68 L1655.91 1271.31 Z" fill="#000000" fill-rule="nonzero" fill-opacity="1" /><path clip-path="url(#clip890)" d="M1691.59 1275.16 Q1687.07 1275.16 1684.79 1279.62 Q1682.53 1284.04 1682.53 1292.95 Q1682.53 1301.84 1684.79 1306.29 Q1687.07 1310.72 1691.59 1310.72 Q1696.13 1310.72 1698.39 1306.29 Q1700.67 1301.84 1700.67 1292.95 Q1700.67 1284.04 1698.39 1279.62 Q1696.13 1275.16 1691.59 1275.16 M1691.59 1270.53 Q1698.85 1270.53 1702.67 1276.29 Q1706.52 1282.02 1706.52 1292.95 Q1706.52 1303.86 1702.67 1309.62 Q1698.85 1315.35 1691.59 1315.35 Q1684.33 1315.35 1680.48 1309.62 Q1676.66 1303.86 1676.66 1292.95 Q1676.66 1282.02 1680.48 1276.29 Q1684.33 1270.53 1691.59 1270.53 Z" fill="#000000" fill-rule="nonzero" fill-opacity="1" /><path clip-path="url(#clip890)" d="M1917.03 1271.31 L1939.98 1271.31 L1939.98 1276.23 L1922.39 1276.23 L1922.39 1286.82 Q1923.66 1286.39 1924.93 1286.18 Q1926.21 1285.95 1927.48 1285.95 Q1934.71 1285.95 1938.94 1289.92 Q1943.16 1293.88 1943.16 1300.65 Q1943.16 1307.62 1938.82 1311.5 Q1934.48 1315.35 1926.58 1315.35 Q1923.86 1315.35 1921.03 1314.89 Q1918.22 1314.42 1915.21 1313.5 L1915.21 1307.62 Q1917.81 1309.04 1920.59 1309.74 Q1923.37 1310.43 1926.47 1310.43 Q1931.47 1310.43 1934.39 1307.8 Q1937.32 1305.17 1937.32 1300.65 Q1937.32 1296.14 1934.39 1293.5 Q1931.47 1290.87 1926.47 1290.87 Q1924.12 1290.87 1921.78 1291.39 Q1919.46 1291.91 1917.03 1293.01 L1917.03 1271.31 Z" fill="#000000" fill-rule="nonzero" fill-opacity="1" /><path clip-path="url(#clip890)" d="M1967.18 1275.16 Q1962.66 1275.16 1960.38 1279.62 Q1958.12 1284.04 1958.12 1292.95 Q1958.12 1301.84 1960.38 1306.29 Q1962.66 1310.72 1967.18 1310.72 Q1971.72 1310.72 1973.98 1306.29 Q1976.26 1301.84 1976.26 1292.95 Q1976.26 1284.04 1973.98 1279.62 Q1971.72 1275.16 1967.18 1275.16 M1967.18 1270.53 Q1974.44 1270.53 1978.26 1276.29 Q1982.11 1282.02 1982.11 1292.95 Q1982.11 1303.86 1978.26 1309.62 Q1974.44 1315.35 1967.18 1315.35 Q1959.92 1315.35 1956.07 1309.62 Q1952.25 1303.86 1952.25 1292.95 Q1952.25 1282.02 1956.07 1276.29 Q1959.92 1270.53 1967.18 1270.53 Z" fill="#000000" fill-rule="nonzero" fill-opacity="1" /><path clip-path="url(#clip890)" d="M2206.84 1290.58 Q2202.91 1290.58 2200.59 1293.27 Q2198.31 1295.96 2198.31 1300.65 Q2198.31 1305.31 2200.59 1308.03 Q2202.91 1310.72 2206.84 1310.72 Q2210.78 1310.72 2213.07 1308.03 Q2215.38 1305.31 2215.38 1300.65 Q2215.38 1295.96 2213.07 1293.27 Q2210.78 1290.58 2206.84 1290.58 M2218.45 1272.27 L2218.45 1277.59 Q2216.25 1276.55 2213.99 1276 Q2211.76 1275.45 2209.56 1275.45 Q2203.78 1275.45 2200.71 1279.36 Q2197.67 1283.26 2197.24 1291.16 Q2198.95 1288.64 2201.52 1287.31 Q2204.1 1285.95 2207.19 1285.95 Q2213.7 1285.95 2217.46 1289.92 Q2221.25 1293.85 2221.25 1300.65 Q2221.25 1307.31 2217.32 1311.33 Q2213.38 1315.35 2206.84 1315.35 Q2199.35 1315.35 2195.39 1309.62 Q2191.42 1303.86 2191.42 1292.95 Q2191.42 1282.71 2196.28 1276.64 Q2201.14 1270.53 2209.33 1270.53 Q2211.53 1270.53 2213.76 1270.96 Q2216.02 1271.4 2218.45 1272.27 Z" fill="#000000" fill-rule="nonzero" fill-opacity="1" /><path clip-path="url(#clip890)" d="M2243.82 1275.16 Q2239.31 1275.16 2237.02 1279.62 Q2234.77 1284.04 2234.77 1292.95 Q2234.77 1301.84 2237.02 1306.29 Q2239.31 1310.72 2243.82 1310.72 Q2248.37 1310.72 2250.62 1306.29 Q2252.91 1301.84 2252.91 1292.95 Q2252.91 1284.04 2250.62 1279.62 Q2248.37 1275.16 2243.82 1275.16 M2243.82 1270.53 Q2251.09 1270.53 2254.91 1276.29 Q2258.75 1282.02 2258.75 1292.95 Q2258.75 1303.86 2254.91 1309.62 Q2251.09 1315.35 2243.82 1315.35 Q2236.56 1315.35 2232.71 1309.62 Q2228.89 1303.86 2228.89 1292.95 Q2228.89 1282.02 2232.71 1276.29 Q2236.56 1270.53 2243.82 1270.53 Z" fill="#000000" fill-rule="nonzero" fill-opacity="1" /><path clip-path="url(#clip890)" d="M1277.34 1351.62 L1283.77 1351.62 L1283.77 1399.14 L1277.34 1399.14 L1277.34 1351.62 Z" fill="#000000" fill-rule="nonzero" fill-opacity="1" /><path clip-path="url(#clip890)" d="M1302.11 1353.37 L1302.11 1363.49 L1314.17 1363.49 L1314.17 1368.04 L1302.11 1368.04 L1302.11 1387.39 Q1302.11 1391.75 1303.28 1392.99 Q1304.49 1394.23 1308.15 1394.23 L1314.17 1394.23 L1314.17 1399.14 L1308.15 1399.14 Q1301.38 1399.14 1298.8 1396.62 Q1296.22 1394.07 1296.22 1387.39 L1296.22 1368.04 L1291.92 1368.04 L1291.92 1363.49 L1296.22 1363.49 L1296.22 1353.37 L1302.11 1353.37 Z" fill="#000000" fill-rule="nonzero" fill-opacity="1" /><path clip-path="url(#clip890)" d="M1352.36 1379.85 L1352.36 1382.71 L1325.44 1382.71 Q1325.82 1388.76 1329.07 1391.94 Q1332.34 1395.09 1338.17 1395.09 Q1341.54 1395.09 1344.69 1394.27 Q1347.88 1393.44 1351 1391.78 L1351 1397.32 Q1347.84 1398.66 1344.53 1399.36 Q1341.22 1400.06 1337.82 1400.06 Q1329.29 1400.06 1324.29 1395.09 Q1319.33 1390.13 1319.33 1381.66 Q1319.33 1372.91 1324.04 1367.78 Q1328.78 1362.63 1336.8 1362.63 Q1343.99 1362.63 1348.16 1367.28 Q1352.36 1371.89 1352.36 1379.85 M1346.51 1378.13 Q1346.44 1373.32 1343.8 1370.46 Q1341.19 1367.59 1336.86 1367.59 Q1331.96 1367.59 1329 1370.36 Q1326.07 1373.13 1325.63 1378.16 L1346.51 1378.13 Z" fill="#000000" fill-rule="nonzero" fill-opacity="1" /><path clip-path="url(#clip890)" d="M1382.63 1368.96 Q1381.65 1368.39 1380.47 1368.13 Q1379.32 1367.85 1377.92 1367.85 Q1372.96 1367.85 1370.28 1371.09 Q1367.64 1374.31 1367.64 1380.36 L1367.64 1399.14 L1361.75 1399.14 L1361.75 1363.49 L1367.64 1363.49 L1367.64 1369.03 Q1369.49 1365.78 1372.45 1364.22 Q1375.41 1362.63 1379.64 1362.63 Q1380.25 1362.63 1380.98 1362.72 Q1381.71 1362.79 1382.6 1362.95 L1382.63 1368.96 Z" fill="#000000" fill-rule="nonzero" fill-opacity="1" /><path clip-path="url(#clip890)" d="M1404.98 1381.22 Q1397.88 1381.22 1395.14 1382.84 Q1392.4 1384.46 1392.4 1388.38 Q1392.4 1391.5 1394.44 1393.34 Q1396.51 1395.16 1400.04 1395.16 Q1404.91 1395.16 1407.84 1391.72 Q1410.8 1388.25 1410.8 1382.52 L1410.8 1381.22 L1404.98 1381.22 M1416.66 1378.8 L1416.66 1399.14 L1410.8 1399.14 L1410.8 1393.72 Q1408.8 1396.97 1405.8 1398.53 Q1402.81 1400.06 1398.48 1400.06 Q1393.01 1400.06 1389.76 1397 Q1386.55 1393.92 1386.55 1388.76 Q1386.55 1382.74 1390.56 1379.69 Q1394.6 1376.63 1402.59 1376.63 L1410.8 1376.63 L1410.8 1376.06 Q1410.8 1372.02 1408.13 1369.82 Q1405.49 1367.59 1400.68 1367.59 Q1397.62 1367.59 1394.73 1368.33 Q1391.83 1369.06 1389.16 1370.52 L1389.16 1365.11 Q1392.37 1363.87 1395.4 1363.26 Q1398.42 1362.63 1401.28 1362.63 Q1409.02 1362.63 1412.84 1366.64 Q1416.66 1370.65 1416.66 1378.8 Z" fill="#000000" fill-rule="nonzero" fill-opacity="1" /><path clip-path="url(#clip890)" d="M1434.51 1353.37 L1434.51 1363.49 L1446.58 1363.49 L1446.58 1368.04 L1434.51 1368.04 L1434.51 1387.39 Q1434.51 1391.75 1435.69 1392.99 Q1436.9 1394.23 1440.56 1394.23 L1446.58 1394.23 L1446.58 1399.14 L1440.56 1399.14 Q1433.78 1399.14 1431.2 1396.62 Q1428.63 1394.07 1428.63 1387.39 L1428.63 1368.04 L1424.33 1368.04 L1424.33 1363.49 L1428.63 1363.49 L1428.63 1353.37 L1434.51 1353.37 Z" fill="#000000" fill-rule="nonzero" fill-opacity="1" /><path clip-path="url(#clip890)" d="M1454.28 1363.49 L1460.14 1363.49 L1460.14 1399.14 L1454.28 1399.14 L1454.28 1363.49 M1454.28 1349.61 L1460.14 1349.61 L1460.14 1357.03 L1454.28 1357.03 L1454.28 1349.61 Z" fill="#000000" fill-rule="nonzero" fill-opacity="1" /><path clip-path="url(#clip890)" d="M1486.2 1367.59 Q1481.49 1367.59 1478.76 1371.29 Q1476.02 1374.95 1476.02 1381.34 Q1476.02 1387.74 1478.72 1391.43 Q1481.46 1395.09 1486.2 1395.09 Q1490.88 1395.09 1493.62 1391.4 Q1496.36 1387.71 1496.36 1381.34 Q1496.36 1375.01 1493.62 1371.32 Q1490.88 1367.59 1486.2 1367.59 M1486.2 1362.63 Q1493.84 1362.63 1498.2 1367.59 Q1502.56 1372.56 1502.56 1381.34 Q1502.56 1390.1 1498.2 1395.09 Q1493.84 1400.06 1486.2 1400.06 Q1478.53 1400.06 1474.17 1395.09 Q1469.84 1390.1 1469.84 1381.34 Q1469.84 1372.56 1474.17 1367.59 Q1478.53 1362.63 1486.2 1362.63 Z" fill="#000000" fill-rule="nonzero" fill-opacity="1" /><path clip-path="url(#clip890)" d="M1541.9 1377.62 L1541.9 1399.14 L1536.05 1399.14 L1536.05 1377.81 Q1536.05 1372.75 1534.07 1370.24 Q1532.1 1367.72 1528.15 1367.72 Q1523.41 1367.72 1520.67 1370.74 Q1517.94 1373.77 1517.94 1378.99 L1517.94 1399.14 L1512.05 1399.14 L1512.05 1363.49 L1517.94 1363.49 L1517.94 1369.03 Q1520.04 1365.81 1522.87 1364.22 Q1525.73 1362.63 1529.46 1362.63 Q1535.6 1362.63 1538.75 1366.45 Q1541.9 1370.24 1541.9 1377.62 Z" fill="#000000" fill-rule="nonzero" fill-opacity="1" /><polyline clip-path="url(#clip890)" style="stroke:#000000; stroke-linecap:round; stroke-linejoin:round; stroke-width:4; stroke-opacity:1; fill:none" points="545.232,1241.31 545.232,184.932 "/>
<polyline clip-path="url(#clip890)" style="stroke:#000000; stroke-linecap:round; stroke-linejoin:round; stroke-width:4; stroke-opacity:1; fill:none" points="545.232,1209.92 564.13,1209.92 "/>
<polyline clip-path="url(#clip890)" style="stroke:#000000; stroke-linecap:round; stroke-linejoin:round; stroke-width:4; stroke-opacity:1; fill:none" points="545.232,1050.02 564.13,1050.02 "/>
<polyline clip-path="url(#clip890)" style="stroke:#000000; stroke-linecap:round; stroke-linejoin:round; stroke-width:4; stroke-opacity:1; fill:none" points="545.232,890.125 564.13,890.125 "/>
<polyline clip-path="url(#clip890)" style="stroke:#000000; stroke-linecap:round; stroke-linejoin:round; stroke-width:4; stroke-opacity:1; fill:none" points="545.232,730.227 564.13,730.227 "/>
<polyline clip-path="url(#clip890)" style="stroke:#000000; stroke-linecap:round; stroke-linejoin:round; stroke-width:4; stroke-opacity:1; fill:none" points="545.232,570.329 564.13,570.329 "/>
<polyline clip-path="url(#clip890)" style="stroke:#000000; stroke-linecap:round; stroke-linejoin:round; stroke-width:4; stroke-opacity:1; fill:none" points="545.232,410.431 564.13,410.431 "/>
<polyline clip-path="url(#clip890)" style="stroke:#000000; stroke-linecap:round; stroke-linejoin:round; stroke-width:4; stroke-opacity:1; fill:none" points="545.232,250.532 564.13,250.532 "/>
<path clip-path="url(#clip890)" d="M318.985 1210.49 L356.079 1210.49 L356.079 1215.41 L318.985 1215.41 L318.985 1210.49 Z" fill="#000000" fill-rule="nonzero" fill-opacity="1" /><path clip-path="url(#clip890)" d="M368.753 1188.32 L391.698 1188.32 L391.698 1193.24 L374.106 1193.24 L374.106 1203.83 Q375.379 1203.4 376.652 1203.19 Q377.925 1202.96 379.198 1202.96 Q386.432 1202.96 390.657 1206.93 Q394.881 1210.89 394.881 1217.66 Q394.881 1224.64 390.541 1228.51 Q386.201 1232.36 378.301 1232.36 Q375.581 1232.36 372.746 1231.9 Q369.939 1231.44 366.93 1230.51 L366.93 1224.64 Q369.534 1226.05 372.312 1226.75 Q375.09 1227.44 378.186 1227.44 Q383.191 1227.44 386.114 1224.81 Q389.036 1222.18 389.036 1217.66 Q389.036 1213.15 386.114 1210.51 Q383.191 1207.88 378.186 1207.88 Q375.842 1207.88 373.498 1208.4 Q371.183 1208.92 368.753 1210.02 L368.753 1188.32 Z" fill="#000000" fill-rule="nonzero" fill-opacity="1" /><path clip-path="url(#clip890)" d="M406.455 1188.32 L429.401 1188.32 L429.401 1193.24 L411.808 1193.24 L411.808 1203.83 Q413.081 1203.4 414.354 1203.19 Q415.628 1202.96 416.901 1202.96 Q424.134 1202.96 428.359 1206.93 Q432.583 1210.89 432.583 1217.66 Q432.583 1224.64 428.243 1228.51 Q423.903 1232.36 416.004 1232.36 Q413.284 1232.36 410.448 1231.9 Q407.641 1231.44 404.632 1230.51 L404.632 1224.64 Q407.236 1226.05 410.014 1226.75 Q412.792 1227.44 415.888 1227.44 Q420.894 1227.44 423.816 1224.81 Q426.739 1222.18 426.739 1217.66 Q426.739 1213.15 423.816 1210.51 Q420.894 1207.88 415.888 1207.88 Q413.544 1207.88 411.201 1208.4 Q408.886 1208.92 406.455 1210.02 L406.455 1188.32 Z" fill="#000000" fill-rule="nonzero" fill-opacity="1" /><path clip-path="url(#clip890)" d="M456.6 1192.17 Q452.086 1192.17 449.8 1196.63 Q447.543 1201.05 447.543 1209.97 Q447.543 1218.85 449.8 1223.3 Q452.086 1227.73 456.6 1227.73 Q461.142 1227.73 463.399 1223.3 Q465.685 1218.85 465.685 1209.97 Q465.685 1201.05 463.399 1196.63 Q461.142 1192.17 456.6 1192.17 M456.6 1187.54 Q463.862 1187.54 467.682 1193.3 Q471.53 1199.03 471.53 1209.97 Q471.53 1220.87 467.682 1226.63 Q463.862 1232.36 456.6 1232.36 Q449.337 1232.36 445.489 1226.63 Q441.669 1220.87 441.669 1209.97 Q441.669 1199.03 445.489 1193.3 Q449.337 1187.54 456.6 1187.54 Z" fill="#000000" fill-rule="nonzero" fill-opacity="1" /><path clip-path="url(#clip890)" d="M494.302 1192.17 Q489.788 1192.17 487.502 1196.63 Q485.245 1201.05 485.245 1209.97 Q485.245 1218.85 487.502 1223.3 Q489.788 1227.73 494.302 1227.73 Q498.845 1227.73 501.102 1223.3 Q503.388 1218.85 503.388 1209.97 Q503.388 1201.05 501.102 1196.63 Q498.845 1192.17 494.302 1192.17 M494.302 1187.54 Q501.565 1187.54 505.384 1193.3 Q509.232 1199.03 509.232 1209.97 Q509.232 1220.87 505.384 1226.63 Q501.565 1232.36 494.302 1232.36 Q487.039 1232.36 483.191 1226.63 Q479.371 1220.87 479.371 1209.97 Q479.371 1199.03 483.191 1193.3 Q487.039 1187.54 494.302 1187.54 Z" fill="#000000" fill-rule="nonzero" fill-opacity="1" /><path clip-path="url(#clip890)" d="M318.985 1050.59 L356.079 1050.59 L356.079 1055.51 L318.985 1055.51 L318.985 1050.59 Z" fill="#000000" fill-rule="nonzero" fill-opacity="1" /><path clip-path="url(#clip890)" d="M368.753 1028.42 L391.698 1028.42 L391.698 1033.34 L374.106 1033.34 L374.106 1043.93 Q375.379 1043.5 376.652 1043.3 Q377.925 1043.06 379.198 1043.06 Q386.432 1043.06 390.657 1047.03 Q394.881 1050.99 394.881 1057.76 Q394.881 1064.74 390.541 1068.61 Q386.201 1072.46 378.301 1072.46 Q375.581 1072.46 372.746 1072 Q369.939 1071.54 366.93 1070.61 L366.93 1064.74 Q369.534 1066.15 372.312 1066.85 Q375.09 1067.54 378.186 1067.54 Q383.191 1067.54 386.114 1064.91 Q389.036 1062.28 389.036 1057.76 Q389.036 1053.25 386.114 1050.62 Q383.191 1047.98 378.186 1047.98 Q375.842 1047.98 373.498 1048.5 Q371.183 1049.03 368.753 1050.12 L368.753 1028.42 Z" fill="#000000" fill-rule="nonzero" fill-opacity="1" /><path clip-path="url(#clip890)" d="M422.456 1033.52 L407.699 1056.58 L422.456 1056.58 L422.456 1033.52 M420.923 1028.42 L428.272 1028.42 L428.272 1056.58 L434.435 1056.58 L434.435 1061.44 L428.272 1061.44 L428.272 1071.62 L422.456 1071.62 L422.456 1061.44 L402.954 1061.44 L402.954 1055.8 L420.923 1028.42 Z" fill="#000000" fill-rule="nonzero" fill-opacity="1" /><path clip-path="url(#clip890)" d="M456.6 1032.27 Q452.086 1032.27 449.8 1036.73 Q447.543 1041.15 447.543 1050.07 Q447.543 1058.95 449.8 1063.41 Q452.086 1067.83 456.6 1067.83 Q461.142 1067.83 463.399 1063.41 Q465.685 1058.95 465.685 1050.07 Q465.685 1041.15 463.399 1036.73 Q461.142 1032.27 456.6 1032.27 M456.6 1027.64 Q463.862 1027.64 467.682 1033.4 Q471.53 1039.13 471.53 1050.07 Q471.53 1060.98 467.682 1066.73 Q463.862 1072.46 456.6 1072.46 Q449.337 1072.46 445.489 1066.73 Q441.669 1060.98 441.669 1050.07 Q441.669 1039.13 445.489 1033.4 Q449.337 1027.64 456.6 1027.64 Z" fill="#000000" fill-rule="nonzero" fill-opacity="1" /><path clip-path="url(#clip890)" d="M494.302 1032.27 Q489.788 1032.27 487.502 1036.73 Q485.245 1041.15 485.245 1050.07 Q485.245 1058.95 487.502 1063.41 Q489.788 1067.83 494.302 1067.83 Q498.845 1067.83 501.102 1063.41 Q503.388 1058.95 503.388 1050.07 Q503.388 1041.15 501.102 1036.73 Q498.845 1032.27 494.302 1032.27 M494.302 1027.64 Q501.565 1027.64 505.384 1033.4 Q509.232 1039.13 509.232 1050.07 Q509.232 1060.98 505.384 1066.73 Q501.565 1072.46 494.302 1072.46 Q487.039 1072.46 483.191 1066.73 Q479.371 1060.98 479.371 1050.07 Q479.371 1039.13 483.191 1033.4 Q487.039 1027.64 494.302 1027.64 Z" fill="#000000" fill-rule="nonzero" fill-opacity="1" /><path clip-path="url(#clip890)" d="M318.985 890.69 L356.079 890.69 L356.079 895.609 L318.985 895.609 L318.985 890.69 Z" fill="#000000" fill-rule="nonzero" fill-opacity="1" /><path clip-path="url(#clip890)" d="M368.753 868.525 L391.698 868.525 L391.698 873.444 L374.106 873.444 L374.106 884.035 Q375.379 883.6 376.652 883.398 Q377.925 883.166 379.198 883.166 Q386.432 883.166 390.657 887.131 Q394.881 891.095 394.881 897.865 Q394.881 904.839 390.541 908.716 Q386.201 912.564 378.301 912.564 Q375.581 912.564 372.746 912.101 Q369.939 911.639 366.93 910.713 L366.93 904.839 Q369.534 906.257 372.312 906.951 Q375.09 907.646 378.186 907.646 Q383.191 907.646 386.114 905.012 Q389.036 902.379 389.036 897.865 Q389.036 893.352 386.114 890.719 Q383.191 888.085 378.186 888.085 Q375.842 888.085 373.498 888.606 Q371.183 889.127 368.753 890.227 L368.753 868.525 Z" fill="#000000" fill-rule="nonzero" fill-opacity="1" /><path clip-path="url(#clip890)" d="M424.106 888.433 Q428.301 889.33 430.645 892.165 Q433.018 895.001 433.018 899.168 Q433.018 905.562 428.619 909.063 Q424.221 912.564 416.119 912.564 Q413.4 912.564 410.506 912.015 Q407.641 911.494 404.574 910.423 L404.574 904.781 Q407.005 906.199 409.898 906.922 Q412.792 907.646 415.946 907.646 Q421.444 907.646 424.308 905.475 Q427.202 903.305 427.202 899.168 Q427.202 895.348 424.511 893.207 Q421.849 891.037 417.074 891.037 L412.04 891.037 L412.04 886.234 L417.306 886.234 Q421.617 886.234 423.903 884.526 Q426.189 882.79 426.189 879.55 Q426.189 876.222 423.816 874.457 Q421.472 872.663 417.074 872.663 Q414.673 872.663 411.924 873.184 Q409.175 873.705 405.876 874.804 L405.876 869.596 Q409.204 868.67 412.097 868.207 Q415.02 867.744 417.595 867.744 Q424.25 867.744 428.128 870.782 Q432.005 873.792 432.005 878.942 Q432.005 882.53 429.95 885.018 Q427.896 887.478 424.106 888.433 Z" fill="#000000" fill-rule="nonzero" fill-opacity="1" /><path clip-path="url(#clip890)" d="M456.6 872.374 Q452.086 872.374 449.8 876.83 Q447.543 881.257 447.543 890.169 Q447.543 899.052 449.8 903.508 Q452.086 907.935 456.6 907.935 Q461.142 907.935 463.399 903.508 Q465.685 899.052 465.685 890.169 Q465.685 881.257 463.399 876.83 Q461.142 872.374 456.6 872.374 M456.6 867.744 Q463.862 867.744 467.682 873.502 Q471.53 879.231 471.53 890.169 Q471.53 901.077 467.682 906.835 Q463.862 912.564 456.6 912.564 Q449.337 912.564 445.489 906.835 Q441.669 901.077 441.669 890.169 Q441.669 879.231 445.489 873.502 Q449.337 867.744 456.6 867.744 Z" fill="#000000" fill-rule="nonzero" fill-opacity="1" /><path clip-path="url(#clip890)" d="M494.302 872.374 Q489.788 872.374 487.502 876.83 Q485.245 881.257 485.245 890.169 Q485.245 899.052 487.502 903.508 Q489.788 907.935 494.302 907.935 Q498.845 907.935 501.102 903.508 Q503.388 899.052 503.388 890.169 Q503.388 881.257 501.102 876.83 Q498.845 872.374 494.302 872.374 M494.302 867.744 Q501.565 867.744 505.384 873.502 Q509.232 879.231 509.232 890.169 Q509.232 901.077 505.384 906.835 Q501.565 912.564 494.302 912.564 Q487.039 912.564 483.191 906.835 Q479.371 901.077 479.371 890.169 Q479.371 879.231 483.191 873.502 Q487.039 867.744 494.302 867.744 Z" fill="#000000" fill-rule="nonzero" fill-opacity="1" /><path clip-path="url(#clip890)" d="M318.985 730.791 L356.079 730.791 L356.079 735.71 L318.985 735.71 L318.985 730.791 Z" fill="#000000" fill-rule="nonzero" fill-opacity="1" /><path clip-path="url(#clip890)" d="M368.753 708.627 L391.698 708.627 L391.698 713.546 L374.106 713.546 L374.106 724.136 Q375.379 723.702 376.652 723.5 Q377.925 723.268 379.198 723.268 Q386.432 723.268 390.657 727.232 Q394.881 731.196 394.881 737.967 Q394.881 744.941 390.541 748.818 Q386.201 752.666 378.301 752.666 Q375.581 752.666 372.746 752.203 Q369.939 751.74 366.93 750.814 L366.93 744.941 Q369.534 746.358 372.312 747.053 Q375.09 747.747 378.186 747.747 Q383.191 747.747 386.114 745.114 Q389.036 742.481 389.036 737.967 Q389.036 733.453 386.114 730.82 Q383.191 728.187 378.186 728.187 Q375.842 728.187 373.498 728.708 Q371.183 729.229 368.753 730.328 L368.753 708.627 Z" fill="#000000" fill-rule="nonzero" fill-opacity="1" /><path clip-path="url(#clip890)" d="M411.432 746.908 L431.831 746.908 L431.831 751.827 L404.401 751.827 L404.401 746.908 Q407.728 743.465 413.457 737.678 Q419.216 731.862 420.691 730.184 Q423.498 727.03 424.597 724.86 Q425.726 722.661 425.726 720.548 Q425.726 717.105 423.295 714.935 Q420.894 712.765 417.016 712.765 Q414.268 712.765 411.201 713.72 Q408.162 714.675 404.69 716.613 L404.69 710.71 Q408.22 709.293 411.287 708.569 Q414.354 707.846 416.901 707.846 Q423.614 707.846 427.607 711.202 Q431.6 714.559 431.6 720.172 Q431.6 722.834 430.587 725.236 Q429.603 727.608 426.97 730.849 Q426.247 731.688 422.369 735.71 Q418.492 739.703 411.432 746.908 Z" fill="#000000" fill-rule="nonzero" fill-opacity="1" /><path clip-path="url(#clip890)" d="M456.6 712.475 Q452.086 712.475 449.8 716.931 Q447.543 721.359 447.543 730.271 Q447.543 739.154 449.8 743.61 Q452.086 748.037 456.6 748.037 Q461.142 748.037 463.399 743.61 Q465.685 739.154 465.685 730.271 Q465.685 721.359 463.399 716.931 Q461.142 712.475 456.6 712.475 M456.6 707.846 Q463.862 707.846 467.682 713.604 Q471.53 719.333 471.53 730.271 Q471.53 741.179 467.682 746.937 Q463.862 752.666 456.6 752.666 Q449.337 752.666 445.489 746.937 Q441.669 741.179 441.669 730.271 Q441.669 719.333 445.489 713.604 Q449.337 707.846 456.6 707.846 Z" fill="#000000" fill-rule="nonzero" fill-opacity="1" /><path clip-path="url(#clip890)" d="M494.302 712.475 Q489.788 712.475 487.502 716.931 Q485.245 721.359 485.245 730.271 Q485.245 739.154 487.502 743.61 Q489.788 748.037 494.302 748.037 Q498.845 748.037 501.102 743.61 Q503.388 739.154 503.388 730.271 Q503.388 721.359 501.102 716.931 Q498.845 712.475 494.302 712.475 M494.302 707.846 Q501.565 707.846 505.384 713.604 Q509.232 719.333 509.232 730.271 Q509.232 741.179 505.384 746.937 Q501.565 752.666 494.302 752.666 Q487.039 752.666 483.191 746.937 Q479.371 741.179 479.371 730.271 Q479.371 719.333 483.191 713.604 Q487.039 707.846 494.302 707.846 Z" fill="#000000" fill-rule="nonzero" fill-opacity="1" /><path clip-path="url(#clip890)" d="M318.985 570.893 L356.079 570.893 L356.079 575.812 L318.985 575.812 L318.985 570.893 Z" fill="#000000" fill-rule="nonzero" fill-opacity="1" /><path clip-path="url(#clip890)" d="M368.753 548.729 L391.698 548.729 L391.698 553.648 L374.106 553.648 L374.106 564.238 Q375.379 563.804 376.652 563.601 Q377.925 563.37 379.198 563.37 Q386.432 563.37 390.657 567.334 Q394.881 571.298 394.881 578.069 Q394.881 585.042 390.541 588.92 Q386.201 592.768 378.301 592.768 Q375.581 592.768 372.746 592.305 Q369.939 591.842 366.93 590.916 L366.93 585.042 Q369.534 586.46 372.312 587.155 Q375.09 587.849 378.186 587.849 Q383.191 587.849 386.114 585.216 Q389.036 582.583 389.036 578.069 Q389.036 573.555 386.114 570.922 Q383.191 568.289 378.186 568.289 Q375.842 568.289 373.498 568.81 Q371.183 569.331 368.753 570.43 L368.753 548.729 Z" fill="#000000" fill-rule="nonzero" fill-opacity="1" /><path clip-path="url(#clip890)" d="M407.41 587.01 L416.959 587.01 L416.959 554.053 L406.571 556.136 L406.571 550.812 L416.901 548.729 L422.746 548.729 L422.746 587.01 L432.294 587.01 L432.294 591.929 L407.41 591.929 L407.41 587.01 Z" fill="#000000" fill-rule="nonzero" fill-opacity="1" /><path clip-path="url(#clip890)" d="M456.6 552.577 Q452.086 552.577 449.8 557.033 Q447.543 561.46 447.543 570.372 Q447.543 579.255 449.8 583.711 Q452.086 588.138 456.6 588.138 Q461.142 588.138 463.399 583.711 Q465.685 579.255 465.685 570.372 Q465.685 561.46 463.399 557.033 Q461.142 552.577 456.6 552.577 M456.6 547.948 Q463.862 547.948 467.682 553.706 Q471.53 559.435 471.53 570.372 Q471.53 581.281 467.682 587.039 Q463.862 592.768 456.6 592.768 Q449.337 592.768 445.489 587.039 Q441.669 581.281 441.669 570.372 Q441.669 559.435 445.489 553.706 Q449.337 547.948 456.6 547.948 Z" fill="#000000" fill-rule="nonzero" fill-opacity="1" /><path clip-path="url(#clip890)" d="M494.302 552.577 Q489.788 552.577 487.502 557.033 Q485.245 561.46 485.245 570.372 Q485.245 579.255 487.502 583.711 Q489.788 588.138 494.302 588.138 Q498.845 588.138 501.102 583.711 Q503.388 579.255 503.388 570.372 Q503.388 561.46 501.102 557.033 Q498.845 552.577 494.302 552.577 M494.302 547.948 Q501.565 547.948 505.384 553.706 Q509.232 559.435 509.232 570.372 Q509.232 581.281 505.384 587.039 Q501.565 592.768 494.302 592.768 Q487.039 592.768 483.191 587.039 Q479.371 581.281 479.371 570.372 Q479.371 559.435 483.191 553.706 Q487.039 547.948 494.302 547.948 Z" fill="#000000" fill-rule="nonzero" fill-opacity="1" /><path clip-path="url(#clip890)" d="M318.985 410.995 L356.079 410.995 L356.079 415.914 L318.985 415.914 L318.985 410.995 Z" fill="#000000" fill-rule="nonzero" fill-opacity="1" /><path clip-path="url(#clip890)" d="M368.753 388.831 L391.698 388.831 L391.698 393.75 L374.106 393.75 L374.106 404.34 Q375.379 403.906 376.652 403.703 Q377.925 403.472 379.198 403.472 Q386.432 403.472 390.657 407.436 Q394.881 411.4 394.881 418.171 Q394.881 425.144 390.541 429.021 Q386.201 432.87 378.301 432.87 Q375.581 432.87 372.746 432.407 Q369.939 431.944 366.93 431.018 L366.93 425.144 Q369.534 426.562 372.312 427.256 Q375.09 427.951 378.186 427.951 Q383.191 427.951 386.114 425.318 Q389.036 422.685 389.036 418.171 Q389.036 413.657 386.114 411.024 Q383.191 408.391 378.186 408.391 Q375.842 408.391 373.498 408.912 Q371.183 409.432 368.753 410.532 L368.753 388.831 Z" fill="#000000" fill-rule="nonzero" fill-opacity="1" /><path clip-path="url(#clip890)" d="M418.897 392.679 Q414.383 392.679 412.097 397.135 Q409.841 401.562 409.841 410.474 Q409.841 419.357 412.097 423.813 Q414.383 428.24 418.897 428.24 Q423.44 428.24 425.697 423.813 Q427.983 419.357 427.983 410.474 Q427.983 401.562 425.697 397.135 Q423.44 392.679 418.897 392.679 M418.897 388.049 Q426.16 388.049 429.979 393.807 Q433.828 399.537 433.828 410.474 Q433.828 421.383 429.979 427.141 Q426.16 432.87 418.897 432.87 Q411.635 432.87 407.786 427.141 Q403.967 421.383 403.967 410.474 Q403.967 399.537 407.786 393.807 Q411.635 388.049 418.897 388.049 Z" fill="#000000" fill-rule="nonzero" fill-opacity="1" /><path clip-path="url(#clip890)" d="M456.6 392.679 Q452.086 392.679 449.8 397.135 Q447.543 401.562 447.543 410.474 Q447.543 419.357 449.8 423.813 Q452.086 428.24 456.6 428.24 Q461.142 428.24 463.399 423.813 Q465.685 419.357 465.685 410.474 Q465.685 401.562 463.399 397.135 Q461.142 392.679 456.6 392.679 M456.6 388.049 Q463.862 388.049 467.682 393.807 Q471.53 399.537 471.53 410.474 Q471.53 421.383 467.682 427.141 Q463.862 432.87 456.6 432.87 Q449.337 432.87 445.489 427.141 Q441.669 421.383 441.669 410.474 Q441.669 399.537 445.489 393.807 Q449.337 388.049 456.6 388.049 Z" fill="#000000" fill-rule="nonzero" fill-opacity="1" /><path clip-path="url(#clip890)" d="M494.302 392.679 Q489.788 392.679 487.502 397.135 Q485.245 401.562 485.245 410.474 Q485.245 419.357 487.502 423.813 Q489.788 428.24 494.302 428.24 Q498.845 428.24 501.102 423.813 Q503.388 419.357 503.388 410.474 Q503.388 401.562 501.102 397.135 Q498.845 392.679 494.302 392.679 M494.302 388.049 Q501.565 388.049 505.384 393.807 Q509.232 399.537 509.232 410.474 Q509.232 421.383 505.384 427.141 Q501.565 432.87 494.302 432.87 Q487.039 432.87 483.191 427.141 Q479.371 421.383 479.371 410.474 Q479.371 399.537 483.191 393.807 Q487.039 388.049 494.302 388.049 Z" fill="#000000" fill-rule="nonzero" fill-opacity="1" /><path clip-path="url(#clip890)" d="M318.985 251.097 L356.079 251.097 L356.079 256.016 L318.985 256.016 L318.985 251.097 Z" fill="#000000" fill-rule="nonzero" fill-opacity="1" /><path clip-path="url(#clip890)" d="M384.754 234.025 L369.997 257.086 L384.754 257.086 L384.754 234.025 M383.22 228.932 L390.57 228.932 L390.57 257.086 L396.733 257.086 L396.733 261.947 L390.57 261.947 L390.57 272.132 L384.754 272.132 L384.754 261.947 L365.252 261.947 L365.252 256.305 L383.22 228.932 Z" fill="#000000" fill-rule="nonzero" fill-opacity="1" /><path clip-path="url(#clip890)" d="M406.571 271.235 L406.571 265.911 Q408.77 266.953 411.027 267.503 Q413.284 268.053 415.454 268.053 Q421.241 268.053 424.279 264.175 Q427.346 260.269 427.78 252.341 Q426.102 254.829 423.527 256.16 Q420.952 257.491 417.827 257.491 Q411.345 257.491 407.555 253.585 Q403.793 249.65 403.793 242.85 Q403.793 236.195 407.728 232.173 Q411.663 228.151 418.203 228.151 Q425.697 228.151 429.632 233.909 Q433.596 239.638 433.596 250.576 Q433.596 260.79 428.735 266.895 Q423.903 272.971 415.714 272.971 Q413.515 272.971 411.258 272.537 Q409.001 272.103 406.571 271.235 M418.203 252.92 Q422.138 252.92 424.424 250.229 Q426.739 247.538 426.739 242.85 Q426.739 238.192 424.424 235.501 Q422.138 232.781 418.203 232.781 Q414.268 232.781 411.953 235.501 Q409.667 238.192 409.667 242.85 Q409.667 247.538 411.953 250.229 Q414.268 252.92 418.203 252.92 Z" fill="#000000" fill-rule="nonzero" fill-opacity="1" /><path clip-path="url(#clip890)" d="M456.6 232.781 Q452.086 232.781 449.8 237.237 Q447.543 241.664 447.543 250.576 Q447.543 259.459 449.8 263.915 Q452.086 268.342 456.6 268.342 Q461.142 268.342 463.399 263.915 Q465.685 259.459 465.685 250.576 Q465.685 241.664 463.399 237.237 Q461.142 232.781 456.6 232.781 M456.6 228.151 Q463.862 228.151 467.682 233.909 Q471.53 239.638 471.53 250.576 Q471.53 261.484 467.682 267.242 Q463.862 272.971 456.6 272.971 Q449.337 272.971 445.489 267.242 Q441.669 261.484 441.669 250.576 Q441.669 239.638 445.489 233.909 Q449.337 228.151 456.6 228.151 Z" fill="#000000" fill-rule="nonzero" fill-opacity="1" /><path clip-path="url(#clip890)" d="M494.302 232.781 Q489.788 232.781 487.502 237.237 Q485.245 241.664 485.245 250.576 Q485.245 259.459 487.502 263.915 Q489.788 268.342 494.302 268.342 Q498.845 268.342 501.102 263.915 Q503.388 259.459 503.388 250.576 Q503.388 241.664 501.102 237.237 Q498.845 232.781 494.302 232.781 M494.302 228.151 Q501.565 228.151 505.384 233.909 Q509.232 239.638 509.232 250.576 Q509.232 261.484 505.384 267.242 Q501.565 272.971 494.302 272.971 Q487.039 272.971 483.191 267.242 Q479.371 261.484 479.371 250.576 Q479.371 239.638 483.191 233.909 Q487.039 228.151 494.302 228.151 Z" fill="#000000" fill-rule="nonzero" fill-opacity="1" /><path clip-path="url(#clip890)" d="M221.209 941.253 L221.209 934.824 L263.318 934.824 L263.318 911.684 L268.729 911.684 L268.729 941.253 L221.209 941.253 Z" fill="#000000" fill-rule="nonzero" fill-opacity="1" /><path clip-path="url(#clip890)" d="M237.186 892.523 Q237.186 897.234 240.879 899.971 Q244.539 902.709 250.936 902.709 Q257.334 902.709 261.026 900.003 Q264.686 897.266 264.686 892.523 Q264.686 887.845 260.994 885.107 Q257.302 882.37 250.936 882.37 Q244.603 882.37 240.91 885.107 Q237.186 887.845 237.186 892.523 M232.221 892.523 Q232.221 884.885 237.186 880.524 Q242.152 876.164 250.936 876.164 Q259.689 876.164 264.686 880.524 Q269.652 884.885 269.652 892.523 Q269.652 900.194 264.686 904.555 Q259.689 908.883 250.936 908.883 Q242.152 908.883 237.186 904.555 Q232.221 900.194 232.221 892.523 Z" fill="#000000" fill-rule="nonzero" fill-opacity="1" /><path clip-path="url(#clip890)" d="M250.491 842.998 Q244.125 842.998 240.624 845.64 Q237.123 848.25 237.123 852.992 Q237.123 857.703 240.624 860.345 Q244.125 862.955 250.491 862.955 Q256.825 862.955 260.326 860.345 Q263.827 857.703 263.827 852.992 Q263.827 848.25 260.326 845.64 Q256.825 842.998 250.491 842.998 M264.304 837.142 Q273.407 837.142 277.832 841.184 Q282.288 845.226 282.288 853.565 Q282.288 856.653 281.81 859.39 Q281.364 862.127 280.41 864.705 L274.712 864.705 Q276.113 862.127 276.781 859.613 Q277.45 857.098 277.45 854.488 Q277.45 848.727 274.426 845.863 Q271.434 842.998 265.355 842.998 L262.458 842.998 Q265.609 844.812 267.169 847.645 Q268.729 850.478 268.729 854.425 Q268.729 860.981 263.731 864.992 Q258.734 869.002 250.491 869.002 Q242.215 869.002 237.218 864.992 Q232.221 860.981 232.221 854.425 Q232.221 850.478 233.781 847.645 Q235.34 844.812 238.491 842.998 L233.081 842.998 L233.081 837.142 L264.304 837.142 Z" fill="#000000" fill-rule="nonzero" fill-opacity="1" /><path clip-path="url(#clip890)" d="M248.263 828.039 L248.263 810.883 L253.483 810.883 L253.483 828.039 L248.263 828.039 Z" fill="#000000" fill-rule="nonzero" fill-opacity="1" /><path clip-path="url(#clip890)" d="M221.209 801.303 L221.209 794.873 L263.318 794.873 L263.318 771.734 L268.729 771.734 L268.729 801.303 L221.209 801.303 Z" fill="#000000" fill-rule="nonzero" fill-opacity="1" /><path clip-path="url(#clip890)" d="M233.081 765.241 L233.081 759.385 L268.729 759.385 L268.729 765.241 L233.081 765.241 M219.203 765.241 L219.203 759.385 L226.619 759.385 L226.619 765.241 L219.203 765.241 Z" fill="#000000" fill-rule="nonzero" fill-opacity="1" /><path clip-path="url(#clip890)" d="M219.203 747.353 L219.203 741.465 L248.454 741.465 L233.081 723.991 L233.081 716.512 L249.759 735.418 L268.729 715.716 L268.729 723.355 L251.318 741.465 L268.729 741.465 L268.729 747.353 L219.203 747.353 Z" fill="#000000" fill-rule="nonzero" fill-opacity="1" /><path clip-path="url(#clip890)" d="M249.44 681.214 L252.305 681.214 L252.305 708.141 Q258.352 707.759 261.535 704.512 Q264.686 701.234 264.686 695.409 Q264.686 692.035 263.859 688.884 Q263.031 685.702 261.376 682.582 L266.914 682.582 Q268.251 685.733 268.951 689.044 Q269.652 692.354 269.652 695.759 Q269.652 704.289 264.686 709.287 Q259.721 714.252 251.255 714.252 Q242.502 714.252 237.377 709.541 Q232.221 704.799 232.221 696.778 Q232.221 689.585 236.868 685.415 Q241.483 681.214 249.44 681.214 M247.722 687.07 Q242.916 687.134 240.051 689.776 Q237.186 692.386 237.186 696.714 Q237.186 701.616 239.956 704.576 Q242.725 707.504 247.754 707.95 L247.722 687.07 Z" fill="#000000" fill-rule="nonzero" fill-opacity="1" /><path clip-path="url(#clip890)" d="M219.203 671.602 L219.203 665.745 L268.729 665.745 L268.729 671.602 L219.203 671.602 Z" fill="#000000" fill-rule="nonzero" fill-opacity="1" /><path clip-path="url(#clip890)" d="M233.081 653.491 L233.081 647.635 L268.729 647.635 L268.729 653.491 L233.081 653.491 M219.203 653.491 L219.203 647.635 L226.619 647.635 L226.619 653.491 L219.203 653.491 Z" fill="#000000" fill-rule="nonzero" fill-opacity="1" /><path clip-path="url(#clip890)" d="M247.212 605.748 L268.729 605.748 L268.729 611.605 L247.403 611.605 Q242.343 611.605 239.828 613.578 Q237.314 615.552 237.314 619.498 Q237.314 624.241 240.338 626.978 Q243.361 629.715 248.581 629.715 L268.729 629.715 L268.729 635.603 L219.203 635.603 L219.203 629.715 L238.619 629.715 Q235.404 627.615 233.813 624.782 Q232.221 621.917 232.221 618.193 Q232.221 612.05 236.041 608.899 Q239.828 605.748 247.212 605.748 Z" fill="#000000" fill-rule="nonzero" fill-opacity="1" /><path clip-path="url(#clip890)" d="M237.186 580.254 Q237.186 584.964 240.879 587.702 Q244.539 590.439 250.936 590.439 Q257.334 590.439 261.026 587.733 Q264.686 584.996 264.686 580.254 Q264.686 575.575 260.994 572.838 Q257.302 570.1 250.936 570.1 Q244.603 570.1 240.91 572.838 Q237.186 575.575 237.186 580.254 M232.221 580.254 Q232.221 572.615 237.186 568.254 Q242.152 563.894 250.936 563.894 Q259.689 563.894 264.686 568.254 Q269.652 572.615 269.652 580.254 Q269.652 587.924 264.686 592.285 Q259.689 596.614 250.936 596.614 Q242.152 596.614 237.186 592.285 Q232.221 587.924 232.221 580.254 Z" fill="#000000" fill-rule="nonzero" fill-opacity="1" /><path clip-path="url(#clip890)" d="M237.186 540.373 Q237.186 545.083 240.879 547.82 Q244.539 550.558 250.936 550.558 Q257.334 550.558 261.026 547.852 Q264.686 545.115 264.686 540.373 Q264.686 535.694 260.994 532.956 Q257.302 530.219 250.936 530.219 Q244.603 530.219 240.91 532.956 Q237.186 535.694 237.186 540.373 M232.221 540.373 Q232.221 532.734 237.186 528.373 Q242.152 524.013 250.936 524.013 Q259.689 524.013 264.686 528.373 Q269.652 532.734 269.652 540.373 Q269.652 548.043 264.686 552.404 Q259.689 556.732 250.936 556.732 Q242.152 556.732 237.186 552.404 Q232.221 548.043 232.221 540.373 Z" fill="#000000" fill-rule="nonzero" fill-opacity="1" /><path clip-path="url(#clip890)" d="M238.491 490.847 L219.203 490.847 L219.203 484.991 L268.729 484.991 L268.729 490.847 L263.381 490.847 Q266.564 492.693 268.124 495.526 Q269.652 498.327 269.652 502.274 Q269.652 508.735 264.495 512.809 Q259.339 516.851 250.936 516.851 Q242.534 516.851 237.377 512.809 Q232.221 508.735 232.221 502.274 Q232.221 498.327 233.781 495.526 Q235.309 492.693 238.491 490.847 M250.936 510.804 Q257.398 510.804 261.09 508.162 Q264.75 505.488 264.75 500.841 Q264.75 496.195 261.09 493.521 Q257.398 490.847 250.936 490.847 Q244.475 490.847 240.815 493.521 Q237.123 496.195 237.123 500.841 Q237.123 505.488 240.815 508.162 Q244.475 510.804 250.936 510.804 Z" fill="#000000" fill-rule="nonzero" fill-opacity="1" /><path clip-path="url(#clip890)" d="M862.839 31.2093 L862.839 47.0368 L872.214 47.0368 Q876.93 47.0368 879.187 45.0981 Q881.473 43.1306 881.473 39.1086 Q881.473 35.0577 879.187 33.148 Q876.93 31.2093 872.214 31.2093 L862.839 31.2093 M862.839 13.4432 L862.839 26.464 L871.49 26.464 Q875.773 26.464 877.856 24.8726 Q879.968 23.2522 879.968 19.9536 Q879.968 16.6839 877.856 15.0636 Q875.773 13.4432 871.49 13.4432 L862.839 13.4432 M856.994 8.64 L871.924 8.64 Q878.608 8.64 882.225 11.4178 Q885.842 14.1955 885.842 19.317 Q885.842 23.2811 883.99 25.6249 Q882.138 27.9686 878.551 28.5473 Q882.862 29.4732 885.235 32.4246 Q887.636 35.347 887.636 39.7452 Q887.636 45.5322 883.701 48.6861 Q879.766 51.84 872.503 51.84 L856.994 51.84 L856.994 8.64 Z" fill="#000000" fill-rule="nonzero" fill-opacity="1" /><path clip-path="url(#clip890)" d="M912.144 35.5496 Q905.692 35.5496 903.203 37.0253 Q900.715 38.501 900.715 42.06 Q900.715 44.8956 902.567 46.5738 Q904.447 48.2231 907.659 48.2231 Q912.086 48.2231 914.748 45.0981 Q917.439 41.9442 917.439 36.7359 L917.439 35.5496 L912.144 35.5496 M922.763 33.3505 L922.763 51.84 L917.439 51.84 L917.439 46.921 Q915.616 49.8724 912.896 51.2902 Q910.177 52.6791 906.241 52.6791 Q901.265 52.6791 898.313 49.9014 Q895.391 47.0947 895.391 42.4072 Q895.391 36.9385 899.037 34.1607 Q902.711 31.3829 909.974 31.3829 L917.439 31.3829 L917.439 30.8621 Q917.439 27.1874 915.009 25.1908 Q912.607 23.1654 908.238 23.1654 Q905.46 23.1654 902.827 23.8309 Q900.194 24.4964 897.763 25.8274 L897.763 20.9085 Q900.686 19.78 903.435 19.2302 Q906.183 18.6515 908.788 18.6515 Q915.819 18.6515 919.291 22.2973 Q922.763 25.9431 922.763 33.3505 Z" fill="#000000" fill-rule="nonzero" fill-opacity="1" /><path clip-path="url(#clip890)" d="M933.18 39.0507 L933.18 19.4328 L938.504 19.4328 L938.504 38.8482 Q938.504 43.4488 940.298 45.7636 Q942.092 48.0495 945.68 48.0495 Q949.991 48.0495 952.48 45.3007 Q954.997 42.5519 954.997 37.8065 L954.997 19.4328 L960.321 19.4328 L960.321 51.84 L954.997 51.84 L954.997 46.8632 Q953.058 49.8145 950.483 51.2613 Q947.937 52.6791 944.551 52.6791 Q938.967 52.6791 936.073 49.2069 Q933.18 45.7347 933.18 39.0507 M946.577 18.6515 L946.577 18.6515 Z" fill="#000000" fill-rule="nonzero" fill-opacity="1" /><path clip-path="url(#clip890)" d="M996.519 25.6538 Q998.515 22.0659 1001.29 20.3587 Q1004.07 18.6515 1007.83 18.6515 Q1012.9 18.6515 1015.64 22.2105 Q1018.39 25.7406 1018.39 32.2799 L1018.39 51.84 L1013.04 51.84 L1013.04 32.4535 Q1013.04 27.795 1011.39 25.5381 Q1009.74 23.2811 1006.36 23.2811 Q1002.22 23.2811 999.817 26.03 Q997.416 28.7788 997.416 33.5241 L997.416 51.84 L992.063 51.84 L992.063 32.4535 Q992.063 27.7661 990.413 25.5381 Q988.764 23.2811 985.321 23.2811 Q981.241 23.2811 978.839 26.0589 Q976.438 28.8077 976.438 33.5241 L976.438 51.84 L971.085 51.84 L971.085 19.4328 L976.438 19.4328 L976.438 24.4675 Q978.261 21.4872 980.807 20.0693 Q983.353 18.6515 986.854 18.6515 Q990.384 18.6515 992.844 20.4455 Q995.332 22.2395 996.519 25.6538 Z" fill="#000000" fill-rule="nonzero" fill-opacity="1" /><path clip-path="url(#clip890)" d="M1026.32 33.2348 L1041.92 33.2348 L1041.92 37.9801 L1026.32 37.9801 L1026.32 33.2348 Z" fill="#000000" fill-rule="nonzero" fill-opacity="1" /><path clip-path="url(#clip890)" d="M1044.38 8.64 L1050.28 8.64 L1059.37 45.156 L1068.42 8.64 L1074.99 8.64 L1084.08 45.156 L1093.13 8.64 L1099.06 8.64 L1088.21 51.84 L1080.86 51.84 L1071.75 14.3402 L1062.55 51.84 L1055.2 51.84 L1044.38 8.64 Z" fill="#000000" fill-rule="nonzero" fill-opacity="1" /><path clip-path="url(#clip890)" d="M1130.84 34.3054 L1130.84 36.9095 L1106.36 36.9095 Q1106.7 42.4072 1109.65 45.3007 Q1112.63 48.1653 1117.93 48.1653 Q1121 48.1653 1123.86 47.4129 Q1126.76 46.6606 1129.59 45.156 L1129.59 50.1907 Q1126.73 51.406 1123.72 52.0425 Q1120.71 52.6791 1117.61 52.6791 Q1109.86 52.6791 1105.31 48.1653 Q1100.8 43.6514 1100.8 35.9547 Q1100.8 27.9975 1105.08 23.339 Q1109.39 18.6515 1116.69 18.6515 Q1123.23 18.6515 1127.02 22.876 Q1130.84 27.0716 1130.84 34.3054 M1125.51 32.7429 Q1125.45 28.3737 1123.05 25.7695 Q1120.68 23.1654 1116.74 23.1654 Q1112.29 23.1654 1109.6 25.6827 Q1106.93 28.2001 1106.53 32.7718 L1125.51 32.7429 Z" fill="#000000" fill-rule="nonzero" fill-opacity="1" /><path clip-path="url(#clip890)" d="M1139.57 6.81709 L1144.9 6.81709 L1144.9 51.84 L1139.57 51.84 L1139.57 6.81709 Z" fill="#000000" fill-rule="nonzero" fill-opacity="1" /><path clip-path="url(#clip890)" d="M1179.36 20.677 L1179.36 25.6538 Q1177.1 24.4096 1174.82 23.802 Q1172.56 23.1654 1170.24 23.1654 Q1165.07 23.1654 1162.2 26.464 Q1159.34 29.7336 1159.34 35.6653 Q1159.34 41.597 1162.2 44.8956 Q1165.07 48.1653 1170.24 48.1653 Q1172.56 48.1653 1174.82 47.5576 Q1177.1 46.921 1179.36 45.6768 L1179.36 50.5958 Q1177.13 51.6375 1174.73 52.1583 Q1172.36 52.6791 1169.67 52.6791 Q1162.35 52.6791 1158.03 48.0784 Q1153.72 43.4778 1153.72 35.6653 Q1153.72 27.7371 1158.06 23.1943 Q1162.43 18.6515 1170.01 18.6515 Q1172.47 18.6515 1174.82 19.1724 Q1177.16 19.6642 1179.36 20.677 Z" fill="#000000" fill-rule="nonzero" fill-opacity="1" /><path clip-path="url(#clip890)" d="M1215.56 32.2799 L1215.56 51.84 L1210.23 51.84 L1210.23 32.4535 Q1210.23 27.8529 1208.44 25.567 Q1206.64 23.2811 1203.06 23.2811 Q1198.75 23.2811 1196.26 26.03 Q1193.77 28.7788 1193.77 33.5241 L1193.77 51.84 L1188.42 51.84 L1188.42 6.81709 L1193.77 6.81709 L1193.77 24.4675 Q1195.68 21.545 1198.25 20.0983 Q1200.86 18.6515 1204.24 18.6515 Q1209.83 18.6515 1212.69 22.1237 Q1215.56 25.567 1215.56 32.2799 Z" fill="#000000" fill-rule="nonzero" fill-opacity="1" /><path clip-path="url(#clip890)" d="M1277.59 11.9675 L1277.59 18.1307 Q1274.64 15.3819 1271.29 14.0219 Q1267.96 12.662 1264.2 12.662 Q1256.79 12.662 1252.85 17.2048 Q1248.92 21.7186 1248.92 30.2834 Q1248.92 38.8192 1252.85 43.362 Q1256.79 47.8759 1264.2 47.8759 Q1267.96 47.8759 1271.29 46.516 Q1274.64 45.156 1277.59 42.4072 L1277.59 48.5125 Q1274.53 50.5958 1271.08 51.6375 Q1267.67 52.6791 1263.85 52.6791 Q1254.04 52.6791 1248.4 46.6896 Q1242.76 40.6711 1242.76 30.2834 Q1242.76 19.8668 1248.4 13.8772 Q1254.04 7.85875 1263.85 7.85875 Q1267.73 7.85875 1271.14 8.90042 Q1274.58 9.91314 1277.59 11.9675 Z" fill="#000000" fill-rule="nonzero" fill-opacity="1" /><path clip-path="url(#clip890)" d="M1298.95 23.1654 Q1294.67 23.1654 1292.18 26.5218 Q1289.69 29.8494 1289.69 35.6653 Q1289.69 41.4813 1292.15 44.8377 Q1294.64 48.1653 1298.95 48.1653 Q1303.2 48.1653 1305.69 44.8088 Q1308.18 41.4523 1308.18 35.6653 Q1308.18 29.9072 1305.69 26.5508 Q1303.2 23.1654 1298.95 23.1654 M1298.95 18.6515 Q1305.89 18.6515 1309.86 23.1654 Q1313.82 27.6792 1313.82 35.6653 Q1313.82 43.6225 1309.86 48.1653 Q1305.89 52.6791 1298.95 52.6791 Q1291.97 52.6791 1288.01 48.1653 Q1284.07 43.6225 1284.07 35.6653 Q1284.07 27.6792 1288.01 23.1654 Q1291.97 18.6515 1298.95 18.6515 Z" fill="#000000" fill-rule="nonzero" fill-opacity="1" /><path clip-path="url(#clip890)" d="M1349.58 32.2799 L1349.58 51.84 L1344.26 51.84 L1344.26 32.4535 Q1344.26 27.8529 1342.47 25.567 Q1340.67 23.2811 1337.08 23.2811 Q1332.77 23.2811 1330.28 26.03 Q1327.8 28.7788 1327.8 33.5241 L1327.8 51.84 L1322.44 51.84 L1322.44 19.4328 L1327.8 19.4328 L1327.8 24.4675 Q1329.71 21.545 1332.28 20.0983 Q1334.88 18.6515 1338.27 18.6515 Q1343.85 18.6515 1346.72 22.1237 Q1349.58 25.567 1349.58 32.2799 Z" fill="#000000" fill-rule="nonzero" fill-opacity="1" /><path clip-path="url(#clip890)" d="M1356.38 19.4328 L1362.03 19.4328 L1372.15 46.6317 L1382.28 19.4328 L1387.92 19.4328 L1375.77 51.84 L1368.54 51.84 L1356.38 19.4328 Z" fill="#000000" fill-rule="nonzero" fill-opacity="1" /><path clip-path="url(#clip890)" d="M1422.99 34.3054 L1422.99 36.9095 L1398.51 36.9095 Q1398.86 42.4072 1401.81 45.3007 Q1404.79 48.1653 1410.09 48.1653 Q1413.15 48.1653 1416.02 47.4129 Q1418.91 46.6606 1421.75 45.156 L1421.75 50.1907 Q1418.88 51.406 1415.87 52.0425 Q1412.86 52.6791 1409.77 52.6791 Q1402.01 52.6791 1397.47 48.1653 Q1392.96 43.6514 1392.96 35.9547 Q1392.96 27.9975 1397.24 23.339 Q1401.55 18.6515 1408.84 18.6515 Q1415.38 18.6515 1419.17 22.876 Q1422.99 27.0716 1422.99 34.3054 M1417.67 32.7429 Q1417.61 28.3737 1415.21 25.7695 Q1412.84 23.1654 1408.9 23.1654 Q1404.44 23.1654 1401.75 25.6827 Q1399.09 28.2001 1398.69 32.7718 L1417.67 32.7429 Z" fill="#000000" fill-rule="nonzero" fill-opacity="1" /><path clip-path="url(#clip890)" d="M1450.51 24.4096 Q1449.61 23.8888 1448.54 23.6573 Q1447.5 23.3969 1446.23 23.3969 Q1441.71 23.3969 1439.28 26.3482 Q1436.88 29.2707 1436.88 34.7683 L1436.88 51.84 L1431.53 51.84 L1431.53 19.4328 L1436.88 19.4328 L1436.88 24.4675 Q1438.56 21.5161 1441.25 20.0983 Q1443.94 18.6515 1447.79 18.6515 Q1448.34 18.6515 1449 18.7383 Q1449.67 18.7962 1450.48 18.9409 L1450.51 24.4096 Z" fill="#000000" fill-rule="nonzero" fill-opacity="1" /><path clip-path="url(#clip890)" d="M1476.38 35.2602 Q1476.38 29.4732 1473.98 26.2904 Q1471.6 23.1075 1467.29 23.1075 Q1463.01 23.1075 1460.61 26.2904 Q1458.23 29.4732 1458.23 35.2602 Q1458.23 41.0183 1460.61 44.2012 Q1463.01 47.384 1467.29 47.384 Q1471.6 47.384 1473.98 44.2012 Q1476.38 41.0183 1476.38 35.2602 M1481.7 47.818 Q1481.7 56.0934 1478.03 60.1154 Q1474.35 64.1663 1466.77 64.1663 Q1463.96 64.1663 1461.48 63.7323 Q1458.99 63.3272 1456.64 62.4592 L1456.64 57.2798 Q1458.99 58.5529 1461.27 59.1606 Q1463.56 59.7682 1465.93 59.7682 Q1471.17 59.7682 1473.77 57.0194 Q1476.38 54.2995 1476.38 48.7729 L1476.38 46.1398 Q1474.73 49.0044 1472.15 50.4222 Q1469.58 51.84 1465.99 51.84 Q1460.03 51.84 1456.38 47.2972 Q1452.74 42.7544 1452.74 35.2602 Q1452.74 27.7371 1456.38 23.1943 Q1460.03 18.6515 1465.99 18.6515 Q1469.58 18.6515 1472.15 20.0693 Q1474.73 21.4872 1476.38 24.3517 L1476.38 19.4328 L1481.7 19.4328 L1481.7 47.818 Z" fill="#000000" fill-rule="nonzero" fill-opacity="1" /><path clip-path="url(#clip890)" d="M1520.39 34.3054 L1520.39 36.9095 L1495.91 36.9095 Q1496.26 42.4072 1499.21 45.3007 Q1502.19 48.1653 1507.48 48.1653 Q1510.55 48.1653 1513.41 47.4129 Q1516.31 46.6606 1519.14 45.156 L1519.14 50.1907 Q1516.28 51.406 1513.27 52.0425 Q1510.26 52.6791 1507.16 52.6791 Q1499.41 52.6791 1494.87 48.1653 Q1490.35 43.6514 1490.35 35.9547 Q1490.35 27.9975 1494.64 23.339 Q1498.95 18.6515 1506.24 18.6515 Q1512.78 18.6515 1516.57 22.876 Q1520.39 27.0716 1520.39 34.3054 M1515.06 32.7429 Q1515.01 28.3737 1512.6 25.7695 Q1510.23 23.1654 1506.3 23.1654 Q1501.84 23.1654 1499.15 25.6827 Q1496.49 28.2001 1496.08 32.7718 L1515.06 32.7429 Z" fill="#000000" fill-rule="nonzero" fill-opacity="1" /><path clip-path="url(#clip890)" d="M1556.06 32.2799 L1556.06 51.84 L1550.74 51.84 L1550.74 32.4535 Q1550.74 27.8529 1548.95 25.567 Q1547.15 23.2811 1543.56 23.2811 Q1539.25 23.2811 1536.76 26.03 Q1534.28 28.7788 1534.28 33.5241 L1534.28 51.84 L1528.92 51.84 L1528.92 19.4328 L1534.28 19.4328 L1534.28 24.4675 Q1536.19 21.545 1538.76 20.0983 Q1541.37 18.6515 1544.75 18.6515 Q1550.34 18.6515 1553.2 22.1237 Q1556.06 25.567 1556.06 32.2799 Z" fill="#000000" fill-rule="nonzero" fill-opacity="1" /><path clip-path="url(#clip890)" d="M1590.01 20.677 L1590.01 25.6538 Q1587.75 24.4096 1585.46 23.802 Q1583.21 23.1654 1580.89 23.1654 Q1575.71 23.1654 1572.85 26.464 Q1569.98 29.7336 1569.98 35.6653 Q1569.98 41.597 1572.85 44.8956 Q1575.71 48.1653 1580.89 48.1653 Q1583.21 48.1653 1585.46 47.5576 Q1587.75 46.921 1590.01 45.6768 L1590.01 50.5958 Q1587.78 51.6375 1585.38 52.1583 Q1583 52.6791 1580.31 52.6791 Q1572.99 52.6791 1568.68 48.0784 Q1564.37 43.4778 1564.37 35.6653 Q1564.37 27.7371 1568.71 23.1943 Q1573.08 18.6515 1580.66 18.6515 Q1583.12 18.6515 1585.46 19.1724 Q1587.81 19.6642 1590.01 20.677 Z" fill="#000000" fill-rule="nonzero" fill-opacity="1" /><path clip-path="url(#clip890)" d="M1626.98 34.3054 L1626.98 36.9095 L1602.5 36.9095 Q1602.85 42.4072 1605.8 45.3007 Q1608.78 48.1653 1614.08 48.1653 Q1617.15 48.1653 1620.01 47.4129 Q1622.9 46.6606 1625.74 45.156 L1625.74 50.1907 Q1622.88 51.406 1619.87 52.0425 Q1616.86 52.6791 1613.76 52.6791 Q1606.01 52.6791 1601.46 48.1653 Q1596.95 43.6514 1596.95 35.9547 Q1596.95 27.9975 1601.23 23.339 Q1605.54 18.6515 1612.83 18.6515 Q1619.37 18.6515 1623.16 22.876 Q1626.98 27.0716 1626.98 34.3054 M1621.66 32.7429 Q1621.6 28.3737 1619.2 25.7695 Q1616.83 23.1654 1612.89 23.1654 Q1608.44 23.1654 1605.75 25.6827 Q1603.08 28.2001 1602.68 32.7718 L1621.66 32.7429 Z" fill="#000000" fill-rule="nonzero" fill-opacity="1" /><path clip-path="url(#clip890)" d="M1667.35 6.87496 Q1663.47 13.53 1661.59 20.0404 Q1659.71 26.5508 1659.71 33.2348 Q1659.71 39.9188 1661.59 46.487 Q1663.5 53.0263 1667.35 59.6525 L1662.72 59.6525 Q1658.38 52.8527 1656.21 46.2845 Q1654.07 39.7162 1654.07 33.2348 Q1654.07 26.7823 1656.21 20.2429 Q1658.35 13.7036 1662.72 6.87496 L1667.35 6.87496 Z" fill="#000000" fill-rule="nonzero" fill-opacity="1" /><path clip-path="url(#clip890)" d="M1703.81 10.0578 L1703.81 15.758 Q1700.48 14.1666 1697.53 13.3853 Q1694.58 12.6041 1691.83 12.6041 Q1687.05 12.6041 1684.45 14.4559 Q1681.87 16.3078 1681.87 19.7221 Q1681.87 22.5867 1683.58 24.0624 Q1685.32 25.5091 1690.12 26.4061 L1693.65 27.1295 Q1700.19 28.3737 1703.29 31.5276 Q1706.41 34.6526 1706.41 39.9188 Q1706.41 46.1977 1702.19 49.4384 Q1697.99 52.6791 1689.86 52.6791 Q1686.79 52.6791 1683.32 51.9847 Q1679.88 51.2902 1676.17 49.9303 L1676.17 43.9118 Q1679.73 45.9083 1683.15 46.921 Q1686.56 47.9338 1689.86 47.9338 Q1694.87 47.9338 1697.59 45.9662 Q1700.31 43.9986 1700.31 40.3528 Q1700.31 37.1699 1698.34 35.376 Q1696.4 33.582 1691.94 32.685 L1688.38 31.9906 Q1681.84 30.6885 1678.92 27.9107 Q1676 25.133 1676 20.1851 Q1676 14.4559 1680.02 11.1573 Q1684.07 7.85875 1691.16 7.85875 Q1694.2 7.85875 1697.35 8.40852 Q1700.51 8.95829 1703.81 10.0578 Z" fill="#000000" fill-rule="nonzero" fill-opacity="1" /><path clip-path="url(#clip890)" d="M1721.37 13.4432 L1721.37 29.6758 L1728.72 29.6758 Q1732.8 29.6758 1735.03 27.5635 Q1737.26 25.4513 1737.26 21.545 Q1737.26 17.6677 1735.03 15.5555 Q1732.8 13.4432 1728.72 13.4432 L1721.37 13.4432 M1715.53 8.64 L1728.72 8.64 Q1735.98 8.64 1739.69 11.9386 Q1743.42 15.2083 1743.42 21.545 Q1743.42 27.9397 1739.69 31.2093 Q1735.98 34.479 1728.72 34.479 L1721.37 34.479 L1721.37 51.84 L1715.53 51.84 L1715.53 8.64 Z" fill="#000000" fill-rule="nonzero" fill-opacity="1" /><path clip-path="url(#clip890)" d="M1744.03 8.64 L1750.31 8.64 L1762.28 26.4061 L1774.18 8.64 L1780.46 8.64 L1765.18 31.2672 L1765.18 51.84 L1759.3 51.84 L1759.3 31.2672 L1744.03 8.64 Z" fill="#000000" fill-rule="nonzero" fill-opacity="1" /><path clip-path="url(#clip890)" d="M1787.28 44.4905 L1793.39 44.4905 L1793.39 49.4673 L1788.64 58.7265 L1784.91 58.7265 L1787.28 49.4673 L1787.28 44.4905 Z" fill="#000000" fill-rule="nonzero" fill-opacity="1" /><path clip-path="url(#clip890)" d="M1823.83 8.64 L1829.67 8.64 L1829.67 26.898 L1849.06 8.64 L1856.58 8.64 L1835.14 28.7788 L1858.12 51.84 L1850.42 51.84 L1829.67 31.0357 L1829.67 51.84 L1823.83 51.84 L1823.83 8.64 Z" fill="#000000" fill-rule="nonzero" fill-opacity="1" /><path clip-path="url(#clip890)" d="M1863.15 24.9304 L1900.25 24.9304 L1900.25 29.7915 L1863.15 29.7915 L1863.15 24.9304 M1863.15 36.7359 L1900.25 36.7359 L1900.25 41.6549 L1863.15 41.6549 L1863.15 36.7359 Z" fill="#000000" fill-rule="nonzero" fill-opacity="1" /><path clip-path="url(#clip890)" d="M1913.04 50.943 L1913.04 45.619 Q1915.23 46.6606 1917.49 47.2104 Q1919.75 47.7602 1921.92 47.7602 Q1927.71 47.7602 1930.74 43.8829 Q1933.81 39.9766 1934.25 32.0484 Q1932.57 34.5369 1929.99 35.8679 Q1927.42 37.1989 1924.29 37.1989 Q1917.81 37.1989 1914.02 33.2926 Q1910.26 29.3575 1910.26 22.5577 Q1910.26 15.9027 1914.19 11.8807 Q1918.13 7.85875 1924.67 7.85875 Q1932.16 7.85875 1936.1 13.6168 Q1940.06 19.346 1940.06 30.2834 Q1940.06 40.4975 1935.2 46.6028 Q1930.37 52.6791 1922.18 52.6791 Q1919.98 52.6791 1917.72 52.2451 Q1915.47 51.8111 1913.04 50.943 M1924.67 32.6271 Q1928.6 32.6271 1930.89 29.9362 Q1933.2 27.2452 1933.2 22.5577 Q1933.2 17.8992 1930.89 15.2083 Q1928.6 12.4884 1924.67 12.4884 Q1920.73 12.4884 1918.42 15.2083 Q1916.13 17.8992 1916.13 22.5577 Q1916.13 27.2452 1918.42 29.9362 Q1920.73 32.6271 1924.67 32.6271 Z" fill="#000000" fill-rule="nonzero" fill-opacity="1" /><path clip-path="url(#clip890)" d="M1948.97 6.87496 L1953.6 6.87496 Q1957.94 13.7036 1960.08 20.2429 Q1962.25 26.7823 1962.25 33.2348 Q1962.25 39.7162 1960.08 46.2845 Q1957.94 52.8527 1953.6 59.6525 L1948.97 59.6525 Q1952.82 53.0263 1954.7 46.487 Q1956.61 39.9188 1956.61 33.2348 Q1956.61 26.5508 1954.7 20.0404 Q1952.82 13.53 1948.97 6.87496 Z" fill="#000000" fill-rule="nonzero" fill-opacity="1" /><polyline clip-path="url(#clip892)" style="stroke:#000080; stroke-linecap:round; stroke-linejoin:round; stroke-width:8; stroke-opacity:1; fill:none" points="594.16,1211.41 621.803,808.877 649.446,709.152 677.089,647.595 704.732,600.813 732.374,561.564 760.017,526.429 787.66,493.15 815.303,460.289 842.946,428.506 870.589,400.258 898.231,376.579 925.874,357.192 953.517,341.389 981.16,328.488 1008.8,317.987 1036.45,309.467 1064.09,302.544 1091.73,296.891 1119.37,292.254 1147.02,288.425 1174.66,285.228 1202.3,282.515 1229.95,280.161 1257.59,278.064 1285.23,276.141 1312.87,274.328 1340.52,272.575 1368.16,270.846 1395.8,269.115 1423.45,267.365 1451.09,265.59 1478.73,263.793 1506.37,261.983 1534.02,260.174 1561.66,258.378 1589.3,256.601 1616.95,254.843 1644.59,253.09 1672.23,251.324 1699.87,249.519 1727.52,247.645 1755.16,245.671 1782.8,243.577 1810.45,241.354 1838.09,239.016 1865.73,236.601 1893.37,234.169 1921.02,231.786 1948.66,229.509 1976.3,227.377 2003.95,225.408 2031.59,223.609 2059.23,221.972 2086.87,220.485 2114.52,219.133 2142.16,217.902 2169.8,216.78 2197.45,215.758 2225.09,214.83 "/>
<circle clip-path="url(#clip892)" cx="594.16" cy="1211.41" r="10.8" fill="#000080" fill-rule="evenodd" fill-opacity="1" stroke="#000000" stroke-opacity="1" stroke-width="3.2"/>
<circle clip-path="url(#clip892)" cx="621.803" cy="808.877" r="10.8" fill="#000080" fill-rule="evenodd" fill-opacity="1" stroke="#000000" stroke-opacity="1" stroke-width="3.2"/>
<circle clip-path="url(#clip892)" cx="649.446" cy="709.152" r="10.8" fill="#000080" fill-rule="evenodd" fill-opacity="1" stroke="#000000" stroke-opacity="1" stroke-width="3.2"/>
<circle clip-path="url(#clip892)" cx="677.089" cy="647.595" r="10.8" fill="#000080" fill-rule="evenodd" fill-opacity="1" stroke="#000000" stroke-opacity="1" stroke-width="3.2"/>
<circle clip-path="url(#clip892)" cx="704.732" cy="600.813" r="10.8" fill="#000080" fill-rule="evenodd" fill-opacity="1" stroke="#000000" stroke-opacity="1" stroke-width="3.2"/>
<circle clip-path="url(#clip892)" cx="732.374" cy="561.564" r="10.8" fill="#000080" fill-rule="evenodd" fill-opacity="1" stroke="#000000" stroke-opacity="1" stroke-width="3.2"/>
<circle clip-path="url(#clip892)" cx="760.017" cy="526.429" r="10.8" fill="#000080" fill-rule="evenodd" fill-opacity="1" stroke="#000000" stroke-opacity="1" stroke-width="3.2"/>
<circle clip-path="url(#clip892)" cx="787.66" cy="493.15" r="10.8" fill="#000080" fill-rule="evenodd" fill-opacity="1" stroke="#000000" stroke-opacity="1" stroke-width="3.2"/>
<circle clip-path="url(#clip892)" cx="815.303" cy="460.289" r="10.8" fill="#000080" fill-rule="evenodd" fill-opacity="1" stroke="#000000" stroke-opacity="1" stroke-width="3.2"/>
<circle clip-path="url(#clip892)" cx="842.946" cy="428.506" r="10.8" fill="#000080" fill-rule="evenodd" fill-opacity="1" stroke="#000000" stroke-opacity="1" stroke-width="3.2"/>
<circle clip-path="url(#clip892)" cx="870.589" cy="400.258" r="10.8" fill="#000080" fill-rule="evenodd" fill-opacity="1" stroke="#000000" stroke-opacity="1" stroke-width="3.2"/>
<circle clip-path="url(#clip892)" cx="898.231" cy="376.579" r="10.8" fill="#000080" fill-rule="evenodd" fill-opacity="1" stroke="#000000" stroke-opacity="1" stroke-width="3.2"/>
<circle clip-path="url(#clip892)" cx="925.874" cy="357.192" r="10.8" fill="#000080" fill-rule="evenodd" fill-opacity="1" stroke="#000000" stroke-opacity="1" stroke-width="3.2"/>
<circle clip-path="url(#clip892)" cx="953.517" cy="341.389" r="10.8" fill="#000080" fill-rule="evenodd" fill-opacity="1" stroke="#000000" stroke-opacity="1" stroke-width="3.2"/>
<circle clip-path="url(#clip892)" cx="981.16" cy="328.488" r="10.8" fill="#000080" fill-rule="evenodd" fill-opacity="1" stroke="#000000" stroke-opacity="1" stroke-width="3.2"/>
<circle clip-path="url(#clip892)" cx="1008.8" cy="317.987" r="10.8" fill="#000080" fill-rule="evenodd" fill-opacity="1" stroke="#000000" stroke-opacity="1" stroke-width="3.2"/>
<circle clip-path="url(#clip892)" cx="1036.45" cy="309.467" r="10.8" fill="#000080" fill-rule="evenodd" fill-opacity="1" stroke="#000000" stroke-opacity="1" stroke-width="3.2"/>
<circle clip-path="url(#clip892)" cx="1064.09" cy="302.544" r="10.8" fill="#000080" fill-rule="evenodd" fill-opacity="1" stroke="#000000" stroke-opacity="1" stroke-width="3.2"/>
<circle clip-path="url(#clip892)" cx="1091.73" cy="296.891" r="10.8" fill="#000080" fill-rule="evenodd" fill-opacity="1" stroke="#000000" stroke-opacity="1" stroke-width="3.2"/>
<circle clip-path="url(#clip892)" cx="1119.37" cy="292.254" r="10.8" fill="#000080" fill-rule="evenodd" fill-opacity="1" stroke="#000000" stroke-opacity="1" stroke-width="3.2"/>
<circle clip-path="url(#clip892)" cx="1147.02" cy="288.425" r="10.8" fill="#000080" fill-rule="evenodd" fill-opacity="1" stroke="#000000" stroke-opacity="1" stroke-width="3.2"/>
<circle clip-path="url(#clip892)" cx="1174.66" cy="285.228" r="10.8" fill="#000080" fill-rule="evenodd" fill-opacity="1" stroke="#000000" stroke-opacity="1" stroke-width="3.2"/>
<circle clip-path="url(#clip892)" cx="1202.3" cy="282.515" r="10.8" fill="#000080" fill-rule="evenodd" fill-opacity="1" stroke="#000000" stroke-opacity="1" stroke-width="3.2"/>
<circle clip-path="url(#clip892)" cx="1229.95" cy="280.161" r="10.8" fill="#000080" fill-rule="evenodd" fill-opacity="1" stroke="#000000" stroke-opacity="1" stroke-width="3.2"/>
<circle clip-path="url(#clip892)" cx="1257.59" cy="278.064" r="10.8" fill="#000080" fill-rule="evenodd" fill-opacity="1" stroke="#000000" stroke-opacity="1" stroke-width="3.2"/>
<circle clip-path="url(#clip892)" cx="1285.23" cy="276.141" r="10.8" fill="#000080" fill-rule="evenodd" fill-opacity="1" stroke="#000000" stroke-opacity="1" stroke-width="3.2"/>
<circle clip-path="url(#clip892)" cx="1312.87" cy="274.328" r="10.8" fill="#000080" fill-rule="evenodd" fill-opacity="1" stroke="#000000" stroke-opacity="1" stroke-width="3.2"/>
<circle clip-path="url(#clip892)" cx="1340.52" cy="272.575" r="10.8" fill="#000080" fill-rule="evenodd" fill-opacity="1" stroke="#000000" stroke-opacity="1" stroke-width="3.2"/>
<circle clip-path="url(#clip892)" cx="1368.16" cy="270.846" r="10.8" fill="#000080" fill-rule="evenodd" fill-opacity="1" stroke="#000000" stroke-opacity="1" stroke-width="3.2"/>
<circle clip-path="url(#clip892)" cx="1395.8" cy="269.115" r="10.8" fill="#000080" fill-rule="evenodd" fill-opacity="1" stroke="#000000" stroke-opacity="1" stroke-width="3.2"/>
<circle clip-path="url(#clip892)" cx="1423.45" cy="267.365" r="10.8" fill="#000080" fill-rule="evenodd" fill-opacity="1" stroke="#000000" stroke-opacity="1" stroke-width="3.2"/>
<circle clip-path="url(#clip892)" cx="1451.09" cy="265.59" r="10.8" fill="#000080" fill-rule="evenodd" fill-opacity="1" stroke="#000000" stroke-opacity="1" stroke-width="3.2"/>
<circle clip-path="url(#clip892)" cx="1478.73" cy="263.793" r="10.8" fill="#000080" fill-rule="evenodd" fill-opacity="1" stroke="#000000" stroke-opacity="1" stroke-width="3.2"/>
<circle clip-path="url(#clip892)" cx="1506.37" cy="261.983" r="10.8" fill="#000080" fill-rule="evenodd" fill-opacity="1" stroke="#000000" stroke-opacity="1" stroke-width="3.2"/>
<circle clip-path="url(#clip892)" cx="1534.02" cy="260.174" r="10.8" fill="#000080" fill-rule="evenodd" fill-opacity="1" stroke="#000000" stroke-opacity="1" stroke-width="3.2"/>
<circle clip-path="url(#clip892)" cx="1561.66" cy="258.378" r="10.8" fill="#000080" fill-rule="evenodd" fill-opacity="1" stroke="#000000" stroke-opacity="1" stroke-width="3.2"/>
<circle clip-path="url(#clip892)" cx="1589.3" cy="256.601" r="10.8" fill="#000080" fill-rule="evenodd" fill-opacity="1" stroke="#000000" stroke-opacity="1" stroke-width="3.2"/>
<circle clip-path="url(#clip892)" cx="1616.95" cy="254.843" r="10.8" fill="#000080" fill-rule="evenodd" fill-opacity="1" stroke="#000000" stroke-opacity="1" stroke-width="3.2"/>
<circle clip-path="url(#clip892)" cx="1644.59" cy="253.09" r="10.8" fill="#000080" fill-rule="evenodd" fill-opacity="1" stroke="#000000" stroke-opacity="1" stroke-width="3.2"/>
<circle clip-path="url(#clip892)" cx="1672.23" cy="251.324" r="10.8" fill="#000080" fill-rule="evenodd" fill-opacity="1" stroke="#000000" stroke-opacity="1" stroke-width="3.2"/>
<circle clip-path="url(#clip892)" cx="1699.87" cy="249.519" r="10.8" fill="#000080" fill-rule="evenodd" fill-opacity="1" stroke="#000000" stroke-opacity="1" stroke-width="3.2"/>
<circle clip-path="url(#clip892)" cx="1727.52" cy="247.645" r="10.8" fill="#000080" fill-rule="evenodd" fill-opacity="1" stroke="#000000" stroke-opacity="1" stroke-width="3.2"/>
<circle clip-path="url(#clip892)" cx="1755.16" cy="245.671" r="10.8" fill="#000080" fill-rule="evenodd" fill-opacity="1" stroke="#000000" stroke-opacity="1" stroke-width="3.2"/>
<circle clip-path="url(#clip892)" cx="1782.8" cy="243.577" r="10.8" fill="#000080" fill-rule="evenodd" fill-opacity="1" stroke="#000000" stroke-opacity="1" stroke-width="3.2"/>
<circle clip-path="url(#clip892)" cx="1810.45" cy="241.354" r="10.8" fill="#000080" fill-rule="evenodd" fill-opacity="1" stroke="#000000" stroke-opacity="1" stroke-width="3.2"/>
<circle clip-path="url(#clip892)" cx="1838.09" cy="239.016" r="10.8" fill="#000080" fill-rule="evenodd" fill-opacity="1" stroke="#000000" stroke-opacity="1" stroke-width="3.2"/>
<circle clip-path="url(#clip892)" cx="1865.73" cy="236.601" r="10.8" fill="#000080" fill-rule="evenodd" fill-opacity="1" stroke="#000000" stroke-opacity="1" stroke-width="3.2"/>
<circle clip-path="url(#clip892)" cx="1893.37" cy="234.169" r="10.8" fill="#000080" fill-rule="evenodd" fill-opacity="1" stroke="#000000" stroke-opacity="1" stroke-width="3.2"/>
<circle clip-path="url(#clip892)" cx="1921.02" cy="231.786" r="10.8" fill="#000080" fill-rule="evenodd" fill-opacity="1" stroke="#000000" stroke-opacity="1" stroke-width="3.2"/>
<circle clip-path="url(#clip892)" cx="1948.66" cy="229.509" r="10.8" fill="#000080" fill-rule="evenodd" fill-opacity="1" stroke="#000000" stroke-opacity="1" stroke-width="3.2"/>
<circle clip-path="url(#clip892)" cx="1976.3" cy="227.377" r="10.8" fill="#000080" fill-rule="evenodd" fill-opacity="1" stroke="#000000" stroke-opacity="1" stroke-width="3.2"/>
<circle clip-path="url(#clip892)" cx="2003.95" cy="225.408" r="10.8" fill="#000080" fill-rule="evenodd" fill-opacity="1" stroke="#000000" stroke-opacity="1" stroke-width="3.2"/>
<circle clip-path="url(#clip892)" cx="2031.59" cy="223.609" r="10.8" fill="#000080" fill-rule="evenodd" fill-opacity="1" stroke="#000000" stroke-opacity="1" stroke-width="3.2"/>
<circle clip-path="url(#clip892)" cx="2059.23" cy="221.972" r="10.8" fill="#000080" fill-rule="evenodd" fill-opacity="1" stroke="#000000" stroke-opacity="1" stroke-width="3.2"/>
<circle clip-path="url(#clip892)" cx="2086.87" cy="220.485" r="10.8" fill="#000080" fill-rule="evenodd" fill-opacity="1" stroke="#000000" stroke-opacity="1" stroke-width="3.2"/>
<circle clip-path="url(#clip892)" cx="2114.52" cy="219.133" r="10.8" fill="#000080" fill-rule="evenodd" fill-opacity="1" stroke="#000000" stroke-opacity="1" stroke-width="3.2"/>
<circle clip-path="url(#clip892)" cx="2142.16" cy="217.902" r="10.8" fill="#000080" fill-rule="evenodd" fill-opacity="1" stroke="#000000" stroke-opacity="1" stroke-width="3.2"/>
<circle clip-path="url(#clip892)" cx="2169.8" cy="216.78" r="10.8" fill="#000080" fill-rule="evenodd" fill-opacity="1" stroke="#000000" stroke-opacity="1" stroke-width="3.2"/>
<circle clip-path="url(#clip892)" cx="2197.45" cy="215.758" r="10.8" fill="#000080" fill-rule="evenodd" fill-opacity="1" stroke="#000000" stroke-opacity="1" stroke-width="3.2"/>
<circle clip-path="url(#clip892)" cx="2225.09" cy="214.83" r="10.8" fill="#000080" fill-rule="evenodd" fill-opacity="1" stroke="#000000" stroke-opacity="1" stroke-width="3.2"/>
</svg>
