<?xml version="1.0" encoding="utf-8"?>
<svg xmlns="http://www.w3.org/2000/svg" xmlns:xlink="http://www.w3.org/1999/xlink" width="600" height="400" viewBox="0 0 2400 1600">
<defs>
  <clipPath id="clip120">
    <rect x="0" y="0" width="2400" height="1600"/>
  </clipPath>
</defs>
<path clip-path="url(#clip120)" d="M0 1600 L2400 1600 L2400 8.88178e-14 L0 8.88178e-14  Z" fill="#ffffff" fill-rule="evenodd" fill-opacity="1"/>
<defs>
  <clipPath id="clip121">
    <rect x="170" y="640" width="2203" height="49"/>
  </clipPath>
</defs>
<path clip-path="url(#clip120)" d="M302.458 1423.18 L2352.76 1423.18 L2352.76 106.192 L302.458 106.192  Z" fill="#ffffff" fill-rule="evenodd" fill-opacity="1"/>
<defs>
  <clipPath id="clip122">
    <rect x="302" y="106" width="2051" height="1318"/>
  </clipPath>
</defs>
<polyline clip-path="url(#clip122)" style="stroke:#000000; stroke-linecap:round; stroke-linejoin:round; stroke-width:2; stroke-opacity:0.1; fill:none" points="327.702,1423.18 327.702,106.192 "/>
<polyline clip-path="url(#clip122)" style="stroke:#000000; stroke-linecap:round; stroke-linejoin:round; stroke-width:2; stroke-opacity:0.1; fill:none" points="655.54,1423.18 655.54,106.192 "/>
<polyline clip-path="url(#clip122)" style="stroke:#000000; stroke-linecap:round; stroke-linejoin:round; stroke-width:2; stroke-opacity:0.1; fill:none" points="983.377,1423.18 983.377,106.192 "/>
<polyline clip-path="url(#clip122)" style="stroke:#000000; stroke-linecap:round; stroke-linejoin:round; stroke-width:2; stroke-opacity:0.1; fill:none" points="1311.22,1423.18 1311.22,106.192 "/>
<polyline clip-path="url(#clip122)" style="stroke:#000000; stroke-linecap:round; stroke-linejoin:round; stroke-width:2; stroke-opacity:0.1; fill:none" points="1639.05,1423.18 1639.05,106.192 "/>
<polyline clip-path="url(#clip122)" style="stroke:#000000; stroke-linecap:round; stroke-linejoin:round; stroke-width:2; stroke-opacity:0.1; fill:none" points="1966.89,1423.18 1966.89,106.192 "/>
<polyline clip-path="url(#clip122)" style="stroke:#000000; stroke-linecap:round; stroke-linejoin:round; stroke-width:2; stroke-opacity:0.1; fill:none" points="2294.73,1423.18 2294.73,106.192 "/>
<polyline clip-path="url(#clip122)" style="stroke:#000000; stroke-linecap:round; stroke-linejoin:round; stroke-width:2; stroke-opacity:0.1; fill:none" points="302.458,1384.05 2352.76,1384.05 "/>
<polyline clip-path="url(#clip122)" style="stroke:#000000; stroke-linecap:round; stroke-linejoin:round; stroke-width:2; stroke-opacity:0.1; fill:none" points="302.458,1184.7 2352.76,1184.7 "/>
<polyline clip-path="url(#clip122)" style="stroke:#000000; stroke-linecap:round; stroke-linejoin:round; stroke-width:2; stroke-opacity:0.1; fill:none" points="302.458,985.356 2352.76,985.356 "/>
<polyline clip-path="url(#clip122)" style="stroke:#000000; stroke-linecap:round; stroke-linejoin:round; stroke-width:2; stroke-opacity:0.1; fill:none" points="302.458,786.011 2352.76,786.011 "/>
<polyline clip-path="url(#clip122)" style="stroke:#000000; stroke-linecap:round; stroke-linejoin:round; stroke-width:2; stroke-opacity:0.1; fill:none" points="302.458,586.666 2352.76,586.666 "/>
<polyline clip-path="url(#clip122)" style="stroke:#000000; stroke-linecap:round; stroke-linejoin:round; stroke-width:2; stroke-opacity:0.1; fill:none" points="302.458,387.321 2352.76,387.321 "/>
<polyline clip-path="url(#clip122)" style="stroke:#000000; stroke-linecap:round; stroke-linejoin:round; stroke-width:2; stroke-opacity:0.1; fill:none" points="302.458,187.976 2352.76,187.976 "/>
<polyline clip-path="url(#clip120)" style="stroke:#000000; stroke-linecap:round; stroke-linejoin:round; stroke-width:4; stroke-opacity:1; fill:none" points="302.458,1423.18 2352.76,1423.18 "/>
<polyline clip-path="url(#clip120)" style="stroke:#000000; stroke-linecap:round; stroke-linejoin:round; stroke-width:4; stroke-opacity:1; fill:none" points="327.702,1423.18 327.702,1404.28 "/>
<polyline clip-path="url(#clip120)" style="stroke:#000000; stroke-linecap:round; stroke-linejoin:round; stroke-width:4; stroke-opacity:1; fill:none" points="655.54,1423.18 655.54,1404.28 "/>
<polyline clip-path="url(#clip120)" style="stroke:#000000; stroke-linecap:round; stroke-linejoin:round; stroke-width:4; stroke-opacity:1; fill:none" points="983.377,1423.18 983.377,1404.28 "/>
<polyline clip-path="url(#clip120)" style="stroke:#000000; stroke-linecap:round; stroke-linejoin:round; stroke-width:4; stroke-opacity:1; fill:none" points="1311.22,1423.18 1311.22,1404.28 "/>
<polyline clip-path="url(#clip120)" style="stroke:#000000; stroke-linecap:round; stroke-linejoin:round; stroke-width:4; stroke-opacity:1; fill:none" points="1639.05,1423.18 1639.05,1404.28 "/>
<polyline clip-path="url(#clip120)" style="stroke:#000000; stroke-linecap:round; stroke-linejoin:round; stroke-width:4; stroke-opacity:1; fill:none" points="1966.89,1423.18 1966.89,1404.28 "/>
<polyline clip-path="url(#clip120)" style="stroke:#000000; stroke-linecap:round; stroke-linejoin:round; stroke-width:4; stroke-opacity:1; fill:none" points="2294.73,1423.18 2294.73,1404.28 "/>
<path clip-path="url(#clip120)" d="M327.702 1454.1 Q324.091 1454.1 322.262 1457.66 Q320.457 1461.2 320.457 1468.33 Q320.457 1475.44 322.262 1479.01 Q324.091 1482.55 327.702 1482.55 Q331.336 1482.55 333.142 1479.01 Q334.97 1475.44 334.97 1468.33 Q334.97 1461.2 333.142 1457.66 Q331.336 1454.1 327.702 1454.1 M327.702 1450.39 Q333.512 1450.39 336.568 1455 Q339.646 1459.58 339.646 1468.33 Q339.646 1477.06 336.568 1481.67 Q333.512 1486.25 327.702 1486.25 Q321.892 1486.25 318.813 1481.67 Q315.758 1477.06 315.758 1468.33 Q315.758 1459.58 318.813 1455 Q321.892 1450.39 327.702 1450.39 Z" fill="#000000" fill-rule="nonzero" fill-opacity="1" /><path clip-path="url(#clip120)" d="M630.227 1481.64 L637.866 1481.64 L637.866 1455.28 L629.556 1456.95 L629.556 1452.69 L637.82 1451.02 L642.496 1451.02 L642.496 1481.64 L650.135 1481.64 L650.135 1485.58 L630.227 1485.58 L630.227 1481.64 Z" fill="#000000" fill-rule="nonzero" fill-opacity="1" /><path clip-path="url(#clip120)" d="M669.579 1454.1 Q665.968 1454.1 664.139 1457.66 Q662.334 1461.2 662.334 1468.33 Q662.334 1475.44 664.139 1479.01 Q665.968 1482.55 669.579 1482.55 Q673.213 1482.55 675.019 1479.01 Q676.847 1475.44 676.847 1468.33 Q676.847 1461.2 675.019 1457.66 Q673.213 1454.1 669.579 1454.1 M669.579 1450.39 Q675.389 1450.39 678.445 1455 Q681.523 1459.58 681.523 1468.33 Q681.523 1477.06 678.445 1481.67 Q675.389 1486.25 669.579 1486.25 Q663.769 1486.25 660.69 1481.67 Q657.635 1477.06 657.635 1468.33 Q657.635 1459.58 660.69 1455 Q663.769 1450.39 669.579 1450.39 Z" fill="#000000" fill-rule="nonzero" fill-opacity="1" /><path clip-path="url(#clip120)" d="M962.151 1481.64 L978.47 1481.64 L978.47 1485.58 L956.526 1485.58 L956.526 1481.64 Q959.188 1478.89 963.771 1474.26 Q968.378 1469.61 969.558 1468.27 Q971.803 1465.74 972.683 1464.01 Q973.586 1462.25 973.586 1460.56 Q973.586 1457.8 971.641 1456.07 Q969.72 1454.33 966.618 1454.33 Q964.419 1454.33 961.966 1455.09 Q959.535 1455.86 956.757 1457.41 L956.757 1452.69 Q959.581 1451.55 962.035 1450.97 Q964.489 1450.39 966.526 1450.39 Q971.896 1450.39 975.09 1453.08 Q978.285 1455.77 978.285 1460.26 Q978.285 1462.39 977.475 1464.31 Q976.688 1466.2 974.581 1468.8 Q974.003 1469.47 970.901 1472.69 Q967.799 1475.88 962.151 1481.64 Z" fill="#000000" fill-rule="nonzero" fill-opacity="1" /><path clip-path="url(#clip120)" d="M998.285 1454.1 Q994.674 1454.1 992.845 1457.66 Q991.039 1461.2 991.039 1468.33 Q991.039 1475.44 992.845 1479.01 Q994.674 1482.55 998.285 1482.55 Q1001.92 1482.55 1003.72 1479.01 Q1005.55 1475.44 1005.55 1468.33 Q1005.55 1461.2 1003.72 1457.66 Q1001.92 1454.1 998.285 1454.1 M998.285 1450.39 Q1004.09 1450.39 1007.15 1455 Q1010.23 1459.58 1010.23 1468.33 Q1010.23 1477.06 1007.15 1481.67 Q1004.09 1486.25 998.285 1486.25 Q992.475 1486.25 989.396 1481.67 Q986.34 1477.06 986.34 1468.33 Q986.34 1459.58 989.396 1455 Q992.475 1450.39 998.285 1450.39 Z" fill="#000000" fill-rule="nonzero" fill-opacity="1" /><path clip-path="url(#clip120)" d="M1300.06 1466.95 Q1303.41 1467.66 1305.29 1469.93 Q1307.19 1472.2 1307.19 1475.53 Q1307.19 1480.65 1303.67 1483.45 Q1300.15 1486.25 1293.67 1486.25 Q1291.49 1486.25 1289.18 1485.81 Q1286.89 1485.39 1284.43 1484.54 L1284.43 1480.02 Q1286.38 1481.16 1288.69 1481.74 Q1291.01 1482.32 1293.53 1482.32 Q1297.93 1482.32 1300.22 1480.58 Q1302.53 1478.84 1302.53 1475.53 Q1302.53 1472.48 1300.38 1470.77 Q1298.25 1469.03 1294.43 1469.03 L1290.41 1469.03 L1290.41 1465.19 L1294.62 1465.19 Q1298.07 1465.19 1299.9 1463.82 Q1301.72 1462.43 1301.72 1459.84 Q1301.72 1457.18 1299.83 1455.77 Q1297.95 1454.33 1294.43 1454.33 Q1292.51 1454.33 1290.31 1454.75 Q1288.11 1455.16 1285.47 1456.04 L1285.47 1451.88 Q1288.14 1451.14 1290.45 1450.77 Q1292.79 1450.39 1294.85 1450.39 Q1300.17 1450.39 1303.28 1452.83 Q1306.38 1455.23 1306.38 1459.35 Q1306.38 1462.22 1304.73 1464.21 Q1303.09 1466.18 1300.06 1466.95 Z" fill="#000000" fill-rule="nonzero" fill-opacity="1" /><path clip-path="url(#clip120)" d="M1326.05 1454.1 Q1322.44 1454.1 1320.61 1457.66 Q1318.81 1461.2 1318.81 1468.33 Q1318.81 1475.44 1320.61 1479.01 Q1322.44 1482.55 1326.05 1482.55 Q1329.69 1482.55 1331.49 1479.01 Q1333.32 1475.44 1333.32 1468.33 Q1333.32 1461.2 1331.49 1457.66 Q1329.69 1454.1 1326.05 1454.1 M1326.05 1450.39 Q1331.86 1450.39 1334.92 1455 Q1338 1459.58 1338 1468.33 Q1338 1477.06 1334.92 1481.67 Q1331.86 1486.25 1326.05 1486.25 Q1320.24 1486.25 1317.16 1481.67 Q1314.11 1477.06 1314.11 1468.33 Q1314.11 1459.58 1317.16 1455 Q1320.24 1450.39 1326.05 1450.39 Z" fill="#000000" fill-rule="nonzero" fill-opacity="1" /><path clip-path="url(#clip120)" d="M1627.22 1455.09 L1615.42 1473.54 L1627.22 1473.54 L1627.22 1455.09 M1626 1451.02 L1631.88 1451.02 L1631.88 1473.54 L1636.81 1473.54 L1636.81 1477.43 L1631.88 1477.43 L1631.88 1485.58 L1627.22 1485.58 L1627.22 1477.43 L1611.62 1477.43 L1611.62 1472.92 L1626 1451.02 Z" fill="#000000" fill-rule="nonzero" fill-opacity="1" /><path clip-path="url(#clip120)" d="M1654.54 1454.1 Q1650.93 1454.1 1649.1 1457.66 Q1647.29 1461.2 1647.29 1468.33 Q1647.29 1475.44 1649.1 1479.01 Q1650.93 1482.55 1654.54 1482.55 Q1658.17 1482.55 1659.98 1479.01 Q1661.81 1475.44 1661.81 1468.33 Q1661.81 1461.2 1659.98 1457.66 Q1658.17 1454.1 1654.54 1454.1 M1654.54 1450.39 Q1660.35 1450.39 1663.4 1455 Q1666.48 1459.58 1666.48 1468.33 Q1666.48 1477.06 1663.4 1481.67 Q1660.35 1486.25 1654.54 1486.25 Q1648.73 1486.25 1645.65 1481.67 Q1642.59 1477.06 1642.59 1468.33 Q1642.59 1459.58 1645.65 1455 Q1648.73 1450.39 1654.54 1450.39 Z" fill="#000000" fill-rule="nonzero" fill-opacity="1" /><path clip-path="url(#clip120)" d="M1941.59 1451.02 L1959.95 1451.02 L1959.95 1454.96 L1945.87 1454.96 L1945.87 1463.43 Q1946.89 1463.08 1947.91 1462.92 Q1948.93 1462.73 1949.95 1462.73 Q1955.73 1462.73 1959.11 1465.9 Q1962.49 1469.08 1962.49 1474.49 Q1962.49 1480.07 1959.02 1483.17 Q1955.55 1486.25 1949.23 1486.25 Q1947.05 1486.25 1944.78 1485.88 Q1942.54 1485.51 1940.13 1484.77 L1940.13 1480.07 Q1942.22 1481.2 1944.44 1481.76 Q1946.66 1482.32 1949.14 1482.32 Q1953.14 1482.32 1955.48 1480.21 Q1957.82 1478.1 1957.82 1474.49 Q1957.82 1470.88 1955.48 1468.77 Q1953.14 1466.67 1949.14 1466.67 Q1947.26 1466.67 1945.39 1467.08 Q1943.53 1467.5 1941.59 1468.38 L1941.59 1451.02 Z" fill="#000000" fill-rule="nonzero" fill-opacity="1" /><path clip-path="url(#clip120)" d="M1981.71 1454.1 Q1978.09 1454.1 1976.27 1457.66 Q1974.46 1461.2 1974.46 1468.33 Q1974.46 1475.44 1976.27 1479.01 Q1978.09 1482.55 1981.71 1482.55 Q1985.34 1482.55 1987.15 1479.01 Q1988.97 1475.44 1988.97 1468.33 Q1988.97 1461.2 1987.15 1457.66 Q1985.34 1454.1 1981.71 1454.1 M1981.71 1450.39 Q1987.52 1450.39 1990.57 1455 Q1993.65 1459.58 1993.65 1468.33 Q1993.65 1477.06 1990.57 1481.67 Q1987.52 1486.25 1981.71 1486.25 Q1975.9 1486.25 1972.82 1481.67 Q1969.76 1477.06 1969.76 1468.33 Q1969.76 1459.58 1972.82 1455 Q1975.9 1450.39 1981.71 1450.39 Z" fill="#000000" fill-rule="nonzero" fill-opacity="1" /><path clip-path="url(#clip120)" d="M2280.13 1466.44 Q2276.99 1466.44 2275.13 1468.59 Q2273.31 1470.74 2273.31 1474.49 Q2273.31 1478.22 2275.13 1480.39 Q2276.99 1482.55 2280.13 1482.55 Q2283.28 1482.55 2285.11 1480.39 Q2286.96 1478.22 2286.96 1474.49 Q2286.96 1470.74 2285.11 1468.59 Q2283.28 1466.44 2280.13 1466.44 M2289.42 1451.78 L2289.42 1456.04 Q2287.66 1455.21 2285.85 1454.77 Q2284.07 1454.33 2282.31 1454.33 Q2277.68 1454.33 2275.23 1457.45 Q2272.8 1460.58 2272.45 1466.9 Q2273.81 1464.89 2275.87 1463.82 Q2277.93 1462.73 2280.41 1462.73 Q2285.62 1462.73 2288.63 1465.9 Q2291.66 1469.05 2291.66 1474.49 Q2291.66 1479.82 2288.51 1483.03 Q2285.37 1486.25 2280.13 1486.25 Q2274.14 1486.25 2270.97 1481.67 Q2267.8 1477.06 2267.8 1468.33 Q2267.8 1460.14 2271.68 1455.28 Q2275.57 1450.39 2282.12 1450.39 Q2283.88 1450.39 2285.67 1450.74 Q2287.47 1451.09 2289.42 1451.78 Z" fill="#000000" fill-rule="nonzero" fill-opacity="1" /><path clip-path="url(#clip120)" d="M2309.72 1454.1 Q2306.11 1454.1 2304.28 1457.66 Q2302.47 1461.2 2302.47 1468.33 Q2302.47 1475.44 2304.28 1479.01 Q2306.11 1482.55 2309.72 1482.55 Q2313.35 1482.55 2315.16 1479.01 Q2316.99 1475.44 2316.99 1468.33 Q2316.99 1461.2 2315.16 1457.66 Q2313.35 1454.1 2309.72 1454.1 M2309.72 1450.39 Q2315.53 1450.39 2318.58 1455 Q2321.66 1459.58 2321.66 1468.33 Q2321.66 1477.06 2318.58 1481.67 Q2315.53 1486.25 2309.72 1486.25 Q2303.91 1486.25 2300.83 1481.67 Q2297.77 1477.06 2297.77 1468.33 Q2297.77 1459.58 2300.83 1455 Q2303.91 1450.39 2309.72 1450.39 Z" fill="#000000" fill-rule="nonzero" fill-opacity="1" /><path clip-path="url(#clip120)" d="M1195.33 1520.52 L1201.76 1520.52 L1201.76 1568.04 L1195.33 1568.04 L1195.33 1520.52 Z" fill="#000000" fill-rule="nonzero" fill-opacity="1" /><path clip-path="url(#clip120)" d="M1220.09 1522.27 L1220.09 1532.4 L1232.15 1532.4 L1232.15 1536.95 L1220.09 1536.95 L1220.09 1556.3 Q1220.09 1560.66 1221.27 1561.9 Q1222.48 1563.14 1226.14 1563.14 L1232.15 1563.14 L1232.15 1568.04 L1226.14 1568.04 Q1219.36 1568.04 1216.78 1565.53 Q1214.2 1562.98 1214.2 1556.3 L1214.2 1536.95 L1209.91 1536.95 L1209.91 1532.4 L1214.2 1532.4 L1214.2 1522.27 L1220.09 1522.27 Z" fill="#000000" fill-rule="nonzero" fill-opacity="1" /><path clip-path="url(#clip120)" d="M1270.35 1548.76 L1270.35 1551.62 L1243.42 1551.62 Q1243.8 1557.67 1247.05 1560.85 Q1250.33 1564 1256.15 1564 Q1259.53 1564 1262.68 1563.17 Q1265.86 1562.35 1268.98 1560.69 L1268.98 1566.23 Q1265.83 1567.57 1262.52 1568.27 Q1259.21 1568.97 1255.8 1568.97 Q1247.27 1568.97 1242.27 1564 Q1237.31 1559.04 1237.31 1550.57 Q1237.31 1541.82 1242.02 1536.69 Q1246.76 1531.54 1254.78 1531.54 Q1261.98 1531.54 1266.15 1536.18 Q1270.35 1540.8 1270.35 1548.76 M1264.49 1547.04 Q1264.43 1542.23 1261.79 1539.37 Q1259.18 1536.5 1254.85 1536.5 Q1249.95 1536.5 1246.99 1539.27 Q1244.06 1542.04 1243.61 1547.07 L1264.49 1547.04 Z" fill="#000000" fill-rule="nonzero" fill-opacity="1" /><path clip-path="url(#clip120)" d="M1300.62 1537.87 Q1299.63 1537.3 1298.45 1537.04 Q1297.31 1536.76 1295.91 1536.76 Q1290.94 1536.76 1288.27 1540 Q1285.63 1543.22 1285.63 1549.27 L1285.63 1568.04 L1279.74 1568.04 L1279.74 1532.4 L1285.63 1532.4 L1285.63 1537.93 Q1287.47 1534.69 1290.43 1533.13 Q1293.39 1531.54 1297.62 1531.54 Q1298.23 1531.54 1298.96 1531.63 Q1299.69 1531.7 1300.58 1531.85 L1300.62 1537.87 Z" fill="#000000" fill-rule="nonzero" fill-opacity="1" /><path clip-path="url(#clip120)" d="M1322.96 1550.12 Q1315.86 1550.12 1313.13 1551.75 Q1310.39 1553.37 1310.39 1557.29 Q1310.39 1560.4 1312.42 1562.25 Q1314.49 1564.07 1318.03 1564.07 Q1322.9 1564.07 1325.82 1560.63 Q1328.78 1557.16 1328.78 1551.43 L1328.78 1550.12 L1322.96 1550.12 M1334.64 1547.71 L1334.64 1568.04 L1328.78 1568.04 L1328.78 1562.63 Q1326.78 1565.88 1323.79 1567.44 Q1320.8 1568.97 1316.47 1568.97 Q1310.99 1568.97 1307.75 1565.91 Q1304.53 1562.82 1304.53 1557.67 Q1304.53 1551.65 1308.54 1548.6 Q1312.58 1545.54 1320.57 1545.54 L1328.78 1545.54 L1328.78 1544.97 Q1328.78 1540.93 1326.11 1538.73 Q1323.47 1536.5 1318.66 1536.5 Q1315.61 1536.5 1312.71 1537.23 Q1309.82 1537.97 1307.14 1539.43 L1307.14 1534.02 Q1310.36 1532.78 1313.38 1532.17 Q1316.4 1531.54 1319.27 1531.54 Q1327 1531.54 1330.82 1535.55 Q1334.64 1539.56 1334.64 1547.71 Z" fill="#000000" fill-rule="nonzero" fill-opacity="1" /><path clip-path="url(#clip120)" d="M1352.5 1522.27 L1352.5 1532.4 L1364.56 1532.4 L1364.56 1536.95 L1352.5 1536.95 L1352.5 1556.3 Q1352.5 1560.66 1353.67 1561.9 Q1354.88 1563.14 1358.54 1563.14 L1364.56 1563.14 L1364.56 1568.04 L1358.54 1568.04 Q1351.77 1568.04 1349.19 1565.53 Q1346.61 1562.98 1346.61 1556.3 L1346.61 1536.95 L1342.31 1536.95 L1342.31 1532.4 L1346.61 1532.4 L1346.61 1522.27 L1352.5 1522.27 Z" fill="#000000" fill-rule="nonzero" fill-opacity="1" /><path clip-path="url(#clip120)" d="M1372.26 1532.4 L1378.12 1532.4 L1378.12 1568.04 L1372.26 1568.04 L1372.26 1532.4 M1372.26 1518.52 L1378.12 1518.52 L1378.12 1525.93 L1372.26 1525.93 L1372.26 1518.52 Z" fill="#000000" fill-rule="nonzero" fill-opacity="1" /><path clip-path="url(#clip120)" d="M1404.19 1536.5 Q1399.48 1536.5 1396.74 1540.19 Q1394 1543.85 1394 1550.25 Q1394 1556.65 1396.71 1560.34 Q1399.44 1564 1404.19 1564 Q1408.87 1564 1411.6 1560.31 Q1414.34 1556.62 1414.34 1550.25 Q1414.34 1543.92 1411.6 1540.23 Q1408.87 1536.5 1404.19 1536.5 M1404.19 1531.54 Q1411.83 1531.54 1416.19 1536.5 Q1420.55 1541.47 1420.55 1550.25 Q1420.55 1559 1416.19 1564 Q1411.83 1568.97 1404.19 1568.97 Q1396.52 1568.97 1392.16 1564 Q1387.83 1559 1387.83 1550.25 Q1387.83 1541.47 1392.16 1536.5 Q1396.52 1531.54 1404.19 1531.54 Z" fill="#000000" fill-rule="nonzero" fill-opacity="1" /><path clip-path="url(#clip120)" d="M1459.89 1546.53 L1459.89 1568.04 L1454.03 1568.04 L1454.03 1546.72 Q1454.03 1541.66 1452.06 1539.14 Q1450.08 1536.63 1446.14 1536.63 Q1441.39 1536.63 1438.66 1539.65 Q1435.92 1542.68 1435.92 1547.9 L1435.92 1568.04 L1430.03 1568.04 L1430.03 1532.4 L1435.92 1532.4 L1435.92 1537.93 Q1438.02 1534.72 1440.85 1533.13 Q1443.72 1531.54 1447.44 1531.54 Q1453.58 1531.54 1456.74 1535.36 Q1459.89 1539.14 1459.89 1546.53 Z" fill="#000000" fill-rule="nonzero" fill-opacity="1" /><polyline clip-path="url(#clip120)" style="stroke:#000000; stroke-linecap:round; stroke-linejoin:round; stroke-width:4; stroke-opacity:1; fill:none" points="302.458,1423.18 302.458,106.192 "/>
<polyline clip-path="url(#clip120)" style="stroke:#000000; stroke-linecap:round; stroke-linejoin:round; stroke-width:4; stroke-opacity:1; fill:none" points="302.458,1384.05 321.356,1384.05 "/>
<polyline clip-path="url(#clip120)" style="stroke:#000000; stroke-linecap:round; stroke-linejoin:round; stroke-width:4; stroke-opacity:1; fill:none" points="302.458,1184.7 321.356,1184.7 "/>
<polyline clip-path="url(#clip120)" style="stroke:#000000; stroke-linecap:round; stroke-linejoin:round; stroke-width:4; stroke-opacity:1; fill:none" points="302.458,985.356 321.356,985.356 "/>
<polyline clip-path="url(#clip120)" style="stroke:#000000; stroke-linecap:round; stroke-linejoin:round; stroke-width:4; stroke-opacity:1; fill:none" points="302.458,786.011 321.356,786.011 "/>
<polyline clip-path="url(#clip120)" style="stroke:#000000; stroke-linecap:round; stroke-linejoin:round; stroke-width:4; stroke-opacity:1; fill:none" points="302.458,586.666 321.356,586.666 "/>
<polyline clip-path="url(#clip120)" style="stroke:#000000; stroke-linecap:round; stroke-linejoin:round; stroke-width:4; stroke-opacity:1; fill:none" points="302.458,387.321 321.356,387.321 "/>
<polyline clip-path="url(#clip120)" style="stroke:#000000; stroke-linecap:round; stroke-linejoin:round; stroke-width:4; stroke-opacity:1; fill:none" points="302.458,187.976 321.356,187.976 "/>
<path clip-path="url(#clip120)" d="M114.26 1384.5 L143.936 1384.5 L143.936 1388.43 L114.26 1388.43 L114.26 1384.5 Z" fill="#000000" fill-rule="nonzero" fill-opacity="1" /><path clip-path="url(#clip120)" d="M154.075 1366.77 L172.431 1366.77 L172.431 1370.7 L158.357 1370.7 L158.357 1379.17 Q159.376 1378.83 160.394 1378.66 Q161.413 1378.48 162.431 1378.48 Q168.218 1378.48 171.598 1381.65 Q174.977 1384.82 174.977 1390.24 Q174.977 1395.82 171.505 1398.92 Q168.033 1402 161.714 1402 Q159.538 1402 157.269 1401.63 Q155.024 1401.26 152.616 1400.52 L152.616 1395.82 Q154.7 1396.95 156.922 1397.51 Q159.144 1398.06 161.621 1398.06 Q165.626 1398.06 167.964 1395.96 Q170.302 1393.85 170.302 1390.24 Q170.302 1386.63 167.964 1384.52 Q165.626 1382.41 161.621 1382.41 Q159.746 1382.41 157.871 1382.83 Q156.019 1383.25 154.075 1384.13 L154.075 1366.77 Z" fill="#000000" fill-rule="nonzero" fill-opacity="1" /><path clip-path="url(#clip120)" d="M184.237 1366.77 L202.593 1366.77 L202.593 1370.7 L188.519 1370.7 L188.519 1379.17 Q189.538 1378.83 190.556 1378.66 Q191.575 1378.48 192.593 1378.48 Q198.38 1378.48 201.76 1381.65 Q205.139 1384.82 205.139 1390.24 Q205.139 1395.82 201.667 1398.92 Q198.195 1402 191.875 1402 Q189.7 1402 187.431 1401.63 Q185.186 1401.26 182.778 1400.52 L182.778 1395.82 Q184.862 1396.95 187.084 1397.51 Q189.306 1398.06 191.783 1398.06 Q195.787 1398.06 198.125 1395.96 Q200.463 1393.85 200.463 1390.24 Q200.463 1386.63 198.125 1384.52 Q195.787 1382.41 191.783 1382.41 Q189.908 1382.41 188.033 1382.83 Q186.181 1383.25 184.237 1384.13 L184.237 1366.77 Z" fill="#000000" fill-rule="nonzero" fill-opacity="1" /><path clip-path="url(#clip120)" d="M224.352 1369.85 Q220.741 1369.85 218.912 1373.41 Q217.107 1376.95 217.107 1384.08 Q217.107 1391.19 218.912 1394.75 Q220.741 1398.29 224.352 1398.29 Q227.986 1398.29 229.792 1394.75 Q231.621 1391.19 231.621 1384.08 Q231.621 1376.95 229.792 1373.41 Q227.986 1369.85 224.352 1369.85 M224.352 1366.14 Q230.162 1366.14 233.218 1370.75 Q236.297 1375.33 236.297 1384.08 Q236.297 1392.81 233.218 1397.41 Q230.162 1402 224.352 1402 Q218.542 1402 215.463 1397.41 Q212.408 1392.81 212.408 1384.08 Q212.408 1375.33 215.463 1370.75 Q218.542 1366.14 224.352 1366.14 Z" fill="#000000" fill-rule="nonzero" fill-opacity="1" /><path clip-path="url(#clip120)" d="M254.514 1369.85 Q250.903 1369.85 249.074 1373.41 Q247.269 1376.95 247.269 1384.08 Q247.269 1391.19 249.074 1394.75 Q250.903 1398.29 254.514 1398.29 Q258.148 1398.29 259.954 1394.75 Q261.783 1391.19 261.783 1384.08 Q261.783 1376.95 259.954 1373.41 Q258.148 1369.85 254.514 1369.85 M254.514 1366.14 Q260.324 1366.14 263.38 1370.75 Q266.458 1375.33 266.458 1384.08 Q266.458 1392.81 263.38 1397.41 Q260.324 1402 254.514 1402 Q248.704 1402 245.625 1397.41 Q242.57 1392.81 242.57 1384.08 Q242.57 1375.33 245.625 1370.75 Q248.704 1366.14 254.514 1366.14 Z" fill="#000000" fill-rule="nonzero" fill-opacity="1" /><path clip-path="url(#clip120)" d="M114.26 1185.15 L143.936 1185.15 L143.936 1189.09 L114.26 1189.09 L114.26 1185.15 Z" fill="#000000" fill-rule="nonzero" fill-opacity="1" /><path clip-path="url(#clip120)" d="M154.075 1167.42 L172.431 1167.42 L172.431 1171.36 L158.357 1171.36 L158.357 1179.83 Q159.376 1179.48 160.394 1179.32 Q161.413 1179.13 162.431 1179.13 Q168.218 1179.13 171.598 1182.31 Q174.977 1185.48 174.977 1190.89 Q174.977 1196.47 171.505 1199.57 Q168.033 1202.65 161.714 1202.65 Q159.538 1202.65 157.269 1202.28 Q155.024 1201.91 152.616 1201.17 L152.616 1196.47 Q154.7 1197.61 156.922 1198.16 Q159.144 1198.72 161.621 1198.72 Q165.626 1198.72 167.964 1196.61 Q170.302 1194.5 170.302 1190.89 Q170.302 1187.28 167.964 1185.18 Q165.626 1183.07 161.621 1183.07 Q159.746 1183.07 157.871 1183.49 Q156.019 1183.9 154.075 1184.78 L154.075 1167.42 Z" fill="#000000" fill-rule="nonzero" fill-opacity="1" /><path clip-path="url(#clip120)" d="M197.037 1171.5 L185.232 1189.94 L197.037 1189.94 L197.037 1171.5 M195.811 1167.42 L201.69 1167.42 L201.69 1189.94 L206.621 1189.94 L206.621 1193.83 L201.69 1193.83 L201.69 1201.98 L197.037 1201.98 L197.037 1193.83 L181.436 1193.83 L181.436 1189.32 L195.811 1167.42 Z" fill="#000000" fill-rule="nonzero" fill-opacity="1" /><path clip-path="url(#clip120)" d="M224.352 1170.5 Q220.741 1170.5 218.912 1174.06 Q217.107 1177.61 217.107 1184.74 Q217.107 1191.84 218.912 1195.41 Q220.741 1198.95 224.352 1198.95 Q227.986 1198.95 229.792 1195.41 Q231.621 1191.84 231.621 1184.74 Q231.621 1177.61 229.792 1174.06 Q227.986 1170.5 224.352 1170.5 M224.352 1166.8 Q230.162 1166.8 233.218 1171.4 Q236.297 1175.99 236.297 1184.74 Q236.297 1193.46 233.218 1198.07 Q230.162 1202.65 224.352 1202.65 Q218.542 1202.65 215.463 1198.07 Q212.408 1193.46 212.408 1184.74 Q212.408 1175.99 215.463 1171.4 Q218.542 1166.8 224.352 1166.8 Z" fill="#000000" fill-rule="nonzero" fill-opacity="1" /><path clip-path="url(#clip120)" d="M254.514 1170.5 Q250.903 1170.5 249.074 1174.06 Q247.269 1177.61 247.269 1184.74 Q247.269 1191.84 249.074 1195.41 Q250.903 1198.95 254.514 1198.95 Q258.148 1198.95 259.954 1195.41 Q261.783 1191.84 261.783 1184.74 Q261.783 1177.61 259.954 1174.06 Q258.148 1170.5 254.514 1170.5 M254.514 1166.8 Q260.324 1166.8 263.38 1171.4 Q266.458 1175.99 266.458 1184.74 Q266.458 1193.46 263.38 1198.07 Q260.324 1202.65 254.514 1202.65 Q248.704 1202.65 245.625 1198.07 Q242.57 1193.46 242.57 1184.74 Q242.57 1175.99 245.625 1171.4 Q248.704 1166.8 254.514 1166.8 Z" fill="#000000" fill-rule="nonzero" fill-opacity="1" /><path clip-path="url(#clip120)" d="M114.26 985.808 L143.936 985.808 L143.936 989.743 L114.26 989.743 L114.26 985.808 Z" fill="#000000" fill-rule="nonzero" fill-opacity="1" /><path clip-path="url(#clip120)" d="M154.075 968.076 L172.431 968.076 L172.431 972.011 L158.357 972.011 L158.357 980.483 Q159.376 980.136 160.394 979.974 Q161.413 979.789 162.431 979.789 Q168.218 979.789 171.598 982.96 Q174.977 986.132 174.977 991.548 Q174.977 997.127 171.505 1000.23 Q168.033 1003.31 161.714 1003.31 Q159.538 1003.31 157.269 1002.94 Q155.024 1002.57 152.616 1001.83 L152.616 997.127 Q154.7 998.261 156.922 998.817 Q159.144 999.372 161.621 999.372 Q165.626 999.372 167.964 997.266 Q170.302 995.159 170.302 991.548 Q170.302 987.937 167.964 985.831 Q165.626 983.724 161.621 983.724 Q159.746 983.724 157.871 984.141 Q156.019 984.558 154.075 985.437 L154.075 968.076 Z" fill="#000000" fill-rule="nonzero" fill-opacity="1" /><path clip-path="url(#clip120)" d="M198.357 984.002 Q201.713 984.72 203.588 986.988 Q205.487 989.257 205.487 992.59 Q205.487 997.706 201.968 1000.51 Q198.45 1003.31 191.968 1003.31 Q189.792 1003.31 187.477 1002.87 Q185.186 1002.45 182.732 1001.59 L182.732 997.081 Q184.676 998.215 186.991 998.794 Q189.306 999.372 191.829 999.372 Q196.227 999.372 198.519 997.636 Q200.834 995.9 200.834 992.59 Q200.834 989.534 198.681 987.821 Q196.551 986.085 192.732 986.085 L188.704 986.085 L188.704 982.243 L192.917 982.243 Q196.366 982.243 198.195 980.877 Q200.024 979.488 200.024 976.896 Q200.024 974.234 198.125 972.821 Q196.25 971.386 192.732 971.386 Q190.811 971.386 188.612 971.803 Q186.413 972.22 183.774 973.099 L183.774 968.933 Q186.436 968.192 188.75 967.822 Q191.088 967.451 193.149 967.451 Q198.473 967.451 201.575 969.882 Q204.676 972.289 204.676 976.409 Q204.676 979.28 203.033 981.271 Q201.389 983.238 198.357 984.002 Z" fill="#000000" fill-rule="nonzero" fill-opacity="1" /><path clip-path="url(#clip120)" d="M224.352 971.155 Q220.741 971.155 218.912 974.72 Q217.107 978.261 217.107 985.391 Q217.107 992.497 218.912 996.062 Q220.741 999.604 224.352 999.604 Q227.986 999.604 229.792 996.062 Q231.621 992.497 231.621 985.391 Q231.621 978.261 229.792 974.72 Q227.986 971.155 224.352 971.155 M224.352 967.451 Q230.162 967.451 233.218 972.058 Q236.297 976.641 236.297 985.391 Q236.297 994.118 233.218 998.724 Q230.162 1003.31 224.352 1003.31 Q218.542 1003.31 215.463 998.724 Q212.408 994.118 212.408 985.391 Q212.408 976.641 215.463 972.058 Q218.542 967.451 224.352 967.451 Z" fill="#000000" fill-rule="nonzero" fill-opacity="1" /><path clip-path="url(#clip120)" d="M254.514 971.155 Q250.903 971.155 249.074 974.72 Q247.269 978.261 247.269 985.391 Q247.269 992.497 249.074 996.062 Q250.903 999.604 254.514 999.604 Q258.148 999.604 259.954 996.062 Q261.783 992.497 261.783 985.391 Q261.783 978.261 259.954 974.72 Q258.148 971.155 254.514 971.155 M254.514 967.451 Q260.324 967.451 263.38 972.058 Q266.458 976.641 266.458 985.391 Q266.458 994.118 263.38 998.724 Q260.324 1003.31 254.514 1003.31 Q248.704 1003.31 245.625 998.724 Q242.57 994.118 242.57 985.391 Q242.57 976.641 245.625 972.058 Q248.704 967.451 254.514 967.451 Z" fill="#000000" fill-rule="nonzero" fill-opacity="1" /><path clip-path="url(#clip120)" d="M114.26 786.462 L143.936 786.462 L143.936 790.398 L114.26 790.398 L114.26 786.462 Z" fill="#000000" fill-rule="nonzero" fill-opacity="1" /><path clip-path="url(#clip120)" d="M154.075 768.731 L172.431 768.731 L172.431 772.666 L158.357 772.666 L158.357 781.138 Q159.376 780.791 160.394 780.629 Q161.413 780.444 162.431 780.444 Q168.218 780.444 171.598 783.615 Q174.977 786.787 174.977 792.203 Q174.977 797.782 171.505 800.884 Q168.033 803.962 161.714 803.962 Q159.538 803.962 157.269 803.592 Q155.024 803.222 152.616 802.481 L152.616 797.782 Q154.7 798.916 156.922 799.472 Q159.144 800.027 161.621 800.027 Q165.626 800.027 167.964 797.921 Q170.302 795.814 170.302 792.203 Q170.302 788.592 167.964 786.486 Q165.626 784.379 161.621 784.379 Q159.746 784.379 157.871 784.796 Q156.019 785.212 154.075 786.092 L154.075 768.731 Z" fill="#000000" fill-rule="nonzero" fill-opacity="1" /><path clip-path="url(#clip120)" d="M188.218 799.356 L204.537 799.356 L204.537 803.291 L182.593 803.291 L182.593 799.356 Q185.255 796.601 189.838 791.972 Q194.445 787.319 195.625 785.976 Q197.871 783.453 198.75 781.717 Q199.653 779.958 199.653 778.268 Q199.653 775.513 197.709 773.777 Q195.787 772.041 192.686 772.041 Q190.487 772.041 188.033 772.805 Q185.602 773.569 182.825 775.12 L182.825 770.398 Q185.649 769.263 188.102 768.685 Q190.556 768.106 192.593 768.106 Q197.963 768.106 201.158 770.791 Q204.352 773.476 204.352 777.967 Q204.352 780.097 203.542 782.018 Q202.755 783.916 200.649 786.509 Q200.07 787.18 196.968 790.398 Q193.866 793.592 188.218 799.356 Z" fill="#000000" fill-rule="nonzero" fill-opacity="1" /><path clip-path="url(#clip120)" d="M224.352 771.81 Q220.741 771.81 218.912 775.375 Q217.107 778.916 217.107 786.046 Q217.107 793.152 218.912 796.717 Q220.741 800.259 224.352 800.259 Q227.986 800.259 229.792 796.717 Q231.621 793.152 231.621 786.046 Q231.621 778.916 229.792 775.375 Q227.986 771.81 224.352 771.81 M224.352 768.106 Q230.162 768.106 233.218 772.713 Q236.297 777.296 236.297 786.046 Q236.297 794.773 233.218 799.379 Q230.162 803.962 224.352 803.962 Q218.542 803.962 215.463 799.379 Q212.408 794.773 212.408 786.046 Q212.408 777.296 215.463 772.713 Q218.542 768.106 224.352 768.106 Z" fill="#000000" fill-rule="nonzero" fill-opacity="1" /><path clip-path="url(#clip120)" d="M254.514 771.81 Q250.903 771.81 249.074 775.375 Q247.269 778.916 247.269 786.046 Q247.269 793.152 249.074 796.717 Q250.903 800.259 254.514 800.259 Q258.148 800.259 259.954 796.717 Q261.783 793.152 261.783 786.046 Q261.783 778.916 259.954 775.375 Q258.148 771.81 254.514 771.81 M254.514 768.106 Q260.324 768.106 263.38 772.713 Q266.458 777.296 266.458 786.046 Q266.458 794.773 263.38 799.379 Q260.324 803.962 254.514 803.962 Q248.704 803.962 245.625 799.379 Q242.57 794.773 242.57 786.046 Q242.57 777.296 245.625 772.713 Q248.704 768.106 254.514 768.106 Z" fill="#000000" fill-rule="nonzero" fill-opacity="1" /><path clip-path="url(#clip120)" d="M114.26 587.117 L143.936 587.117 L143.936 591.052 L114.26 591.052 L114.26 587.117 Z" fill="#000000" fill-rule="nonzero" fill-opacity="1" /><path clip-path="url(#clip120)" d="M154.075 569.386 L172.431 569.386 L172.431 573.321 L158.357 573.321 L158.357 581.793 Q159.376 581.446 160.394 581.284 Q161.413 581.099 162.431 581.099 Q168.218 581.099 171.598 584.27 Q174.977 587.441 174.977 592.858 Q174.977 598.437 171.505 601.539 Q168.033 604.617 161.714 604.617 Q159.538 604.617 157.269 604.247 Q155.024 603.877 152.616 603.136 L152.616 598.437 Q154.7 599.571 156.922 600.127 Q159.144 600.682 161.621 600.682 Q165.626 600.682 167.964 598.576 Q170.302 596.469 170.302 592.858 Q170.302 589.247 167.964 587.14 Q165.626 585.034 161.621 585.034 Q159.746 585.034 157.871 585.451 Q156.019 585.867 154.075 586.747 L154.075 569.386 Z" fill="#000000" fill-rule="nonzero" fill-opacity="1" /><path clip-path="url(#clip120)" d="M185.001 600.011 L192.639 600.011 L192.639 573.645 L184.329 575.312 L184.329 571.053 L192.593 569.386 L197.269 569.386 L197.269 600.011 L204.908 600.011 L204.908 603.946 L185.001 603.946 L185.001 600.011 Z" fill="#000000" fill-rule="nonzero" fill-opacity="1" /><path clip-path="url(#clip120)" d="M224.352 572.465 Q220.741 572.465 218.912 576.029 Q217.107 579.571 217.107 586.701 Q217.107 593.807 218.912 597.372 Q220.741 600.914 224.352 600.914 Q227.986 600.914 229.792 597.372 Q231.621 593.807 231.621 586.701 Q231.621 579.571 229.792 576.029 Q227.986 572.465 224.352 572.465 M224.352 568.761 Q230.162 568.761 233.218 573.367 Q236.297 577.951 236.297 586.701 Q236.297 595.427 233.218 600.034 Q230.162 604.617 224.352 604.617 Q218.542 604.617 215.463 600.034 Q212.408 595.427 212.408 586.701 Q212.408 577.951 215.463 573.367 Q218.542 568.761 224.352 568.761 Z" fill="#000000" fill-rule="nonzero" fill-opacity="1" /><path clip-path="url(#clip120)" d="M254.514 572.465 Q250.903 572.465 249.074 576.029 Q247.269 579.571 247.269 586.701 Q247.269 593.807 249.074 597.372 Q250.903 600.914 254.514 600.914 Q258.148 600.914 259.954 597.372 Q261.783 593.807 261.783 586.701 Q261.783 579.571 259.954 576.029 Q258.148 572.465 254.514 572.465 M254.514 568.761 Q260.324 568.761 263.38 573.367 Q266.458 577.951 266.458 586.701 Q266.458 595.427 263.38 600.034 Q260.324 604.617 254.514 604.617 Q248.704 604.617 245.625 600.034 Q242.57 595.427 242.57 586.701 Q242.57 577.951 245.625 573.367 Q248.704 568.761 254.514 568.761 Z" fill="#000000" fill-rule="nonzero" fill-opacity="1" /><path clip-path="url(#clip120)" d="M114.26 387.772 L143.936 387.772 L143.936 391.707 L114.26 391.707 L114.26 387.772 Z" fill="#000000" fill-rule="nonzero" fill-opacity="1" /><path clip-path="url(#clip120)" d="M154.075 370.041 L172.431 370.041 L172.431 373.976 L158.357 373.976 L158.357 382.448 Q159.376 382.101 160.394 381.939 Q161.413 381.754 162.431 381.754 Q168.218 381.754 171.598 384.925 Q174.977 388.096 174.977 393.513 Q174.977 399.092 171.505 402.193 Q168.033 405.272 161.714 405.272 Q159.538 405.272 157.269 404.902 Q155.024 404.531 152.616 403.791 L152.616 399.092 Q154.7 400.226 156.922 400.781 Q159.144 401.337 161.621 401.337 Q165.626 401.337 167.964 399.231 Q170.302 397.124 170.302 393.513 Q170.302 389.902 167.964 387.795 Q165.626 385.689 161.621 385.689 Q159.746 385.689 157.871 386.106 Q156.019 386.522 154.075 387.402 L154.075 370.041 Z" fill="#000000" fill-rule="nonzero" fill-opacity="1" /><path clip-path="url(#clip120)" d="M194.19 373.12 Q190.579 373.12 188.75 376.684 Q186.945 380.226 186.945 387.356 Q186.945 394.462 188.75 398.027 Q190.579 401.568 194.19 401.568 Q197.825 401.568 199.63 398.027 Q201.459 394.462 201.459 387.356 Q201.459 380.226 199.63 376.684 Q197.825 373.12 194.19 373.12 M194.19 369.416 Q200 369.416 203.056 374.022 Q206.135 378.606 206.135 387.356 Q206.135 396.082 203.056 400.689 Q200 405.272 194.19 405.272 Q188.38 405.272 185.301 400.689 Q182.246 396.082 182.246 387.356 Q182.246 378.606 185.301 374.022 Q188.38 369.416 194.19 369.416 Z" fill="#000000" fill-rule="nonzero" fill-opacity="1" /><path clip-path="url(#clip120)" d="M224.352 373.12 Q220.741 373.12 218.912 376.684 Q217.107 380.226 217.107 387.356 Q217.107 394.462 218.912 398.027 Q220.741 401.568 224.352 401.568 Q227.986 401.568 229.792 398.027 Q231.621 394.462 231.621 387.356 Q231.621 380.226 229.792 376.684 Q227.986 373.12 224.352 373.12 M224.352 369.416 Q230.162 369.416 233.218 374.022 Q236.297 378.606 236.297 387.356 Q236.297 396.082 233.218 400.689 Q230.162 405.272 224.352 405.272 Q218.542 405.272 215.463 400.689 Q212.408 396.082 212.408 387.356 Q212.408 378.606 215.463 374.022 Q218.542 369.416 224.352 369.416 Z" fill="#000000" fill-rule="nonzero" fill-opacity="1" /><path clip-path="url(#clip120)" d="M254.514 373.12 Q250.903 373.12 249.074 376.684 Q247.269 380.226 247.269 387.356 Q247.269 394.462 249.074 398.027 Q250.903 401.568 254.514 401.568 Q258.148 401.568 259.954 398.027 Q261.783 394.462 261.783 387.356 Q261.783 380.226 259.954 376.684 Q258.148 373.12 254.514 373.12 M254.514 369.416 Q260.324 369.416 263.38 374.022 Q266.458 378.606 266.458 387.356 Q266.458 396.082 263.38 400.689 Q260.324 405.272 254.514 405.272 Q248.704 405.272 245.625 400.689 Q242.57 396.082 242.57 387.356 Q242.57 378.606 245.625 374.022 Q248.704 369.416 254.514 369.416 Z" fill="#000000" fill-rule="nonzero" fill-opacity="1" /><path clip-path="url(#clip120)" d="M114.26 188.427 L143.936 188.427 L143.936 192.362 L114.26 192.362 L114.26 188.427 Z" fill="#000000" fill-rule="nonzero" fill-opacity="1" /><path clip-path="url(#clip120)" d="M166.876 174.77 L155.07 193.219 L166.876 193.219 L166.876 174.77 M165.649 170.696 L171.528 170.696 L171.528 193.219 L176.459 193.219 L176.459 197.108 L171.528 197.108 L171.528 205.256 L166.876 205.256 L166.876 197.108 L151.274 197.108 L151.274 192.594 L165.649 170.696 Z" fill="#000000" fill-rule="nonzero" fill-opacity="1" /><path clip-path="url(#clip120)" d="M184.329 204.538 L184.329 200.279 Q186.088 201.112 187.894 201.552 Q189.7 201.992 191.436 201.992 Q196.065 201.992 198.496 198.89 Q200.95 195.765 201.297 189.422 Q199.954 191.413 197.894 192.478 Q195.834 193.543 193.334 193.543 Q188.149 193.543 185.116 190.418 Q182.107 187.27 182.107 181.83 Q182.107 176.506 185.255 173.288 Q188.403 170.071 193.635 170.071 Q199.63 170.071 202.778 174.677 Q205.949 179.261 205.949 188.01 Q205.949 196.182 202.061 201.066 Q198.195 205.927 191.644 205.927 Q189.885 205.927 188.079 205.58 Q186.274 205.233 184.329 204.538 M193.635 189.885 Q196.783 189.885 198.612 187.733 Q200.463 185.58 200.463 181.83 Q200.463 178.103 198.612 175.95 Q196.783 173.774 193.635 173.774 Q190.487 173.774 188.635 175.95 Q186.806 178.103 186.806 181.83 Q186.806 185.58 188.635 187.733 Q190.487 189.885 193.635 189.885 Z" fill="#000000" fill-rule="nonzero" fill-opacity="1" /><path clip-path="url(#clip120)" d="M224.352 173.774 Q220.741 173.774 218.912 177.339 Q217.107 180.881 217.107 188.01 Q217.107 195.117 218.912 198.682 Q220.741 202.223 224.352 202.223 Q227.986 202.223 229.792 198.682 Q231.621 195.117 231.621 188.01 Q231.621 180.881 229.792 177.339 Q227.986 173.774 224.352 173.774 M224.352 170.071 Q230.162 170.071 233.218 174.677 Q236.297 179.261 236.297 188.01 Q236.297 196.737 233.218 201.344 Q230.162 205.927 224.352 205.927 Q218.542 205.927 215.463 201.344 Q212.408 196.737 212.408 188.01 Q212.408 179.261 215.463 174.677 Q218.542 170.071 224.352 170.071 Z" fill="#000000" fill-rule="nonzero" fill-opacity="1" /><path clip-path="url(#clip120)" d="M254.514 173.774 Q250.903 173.774 249.074 177.339 Q247.269 180.881 247.269 188.01 Q247.269 195.117 249.074 198.682 Q250.903 202.223 254.514 202.223 Q258.148 202.223 259.954 198.682 Q261.783 195.117 261.783 188.01 Q261.783 180.881 259.954 177.339 Q258.148 173.774 254.514 173.774 M254.514 170.071 Q260.324 170.071 263.38 174.677 Q266.458 179.261 266.458 188.01 Q266.458 196.737 263.38 201.344 Q260.324 205.927 254.514 205.927 Q248.704 205.927 245.625 201.344 Q242.57 196.737 242.57 188.01 Q242.57 179.261 245.625 174.677 Q248.704 170.071 254.514 170.071 Z" fill="#000000" fill-rule="nonzero" fill-opacity="1" /><path clip-path="url(#clip120)" d="M16.4842 992.817 L16.4842 986.388 L58.5933 986.388 L58.5933 963.248 L64.0042 963.248 L64.0042 992.817 L16.4842 992.817 Z" fill="#000000" fill-rule="nonzero" fill-opacity="1" /><path clip-path="url(#clip120)" d="M32.4621 944.088 Q32.4621 948.798 36.1542 951.535 Q39.8145 954.273 46.212 954.273 Q52.6095 954.273 56.3017 951.567 Q59.9619 948.83 59.9619 944.088 Q59.9619 939.409 56.2698 936.671 Q52.5777 933.934 46.212 933.934 Q39.8781 933.934 36.186 936.671 Q32.4621 939.409 32.4621 944.088 M27.4968 944.088 Q27.4968 936.449 32.4621 932.088 Q37.4273 927.728 46.212 927.728 Q54.9649 927.728 59.9619 932.088 Q64.9272 936.449 64.9272 944.088 Q64.9272 951.758 59.9619 956.119 Q54.9649 960.447 46.212 960.447 Q37.4273 960.447 32.4621 956.119 Q27.4968 951.758 27.4968 944.088 Z" fill="#000000" fill-rule="nonzero" fill-opacity="1" /><path clip-path="url(#clip120)" d="M45.7664 894.562 Q39.4007 894.562 35.8996 897.204 Q32.3984 899.814 32.3984 904.556 Q32.3984 909.267 35.8996 911.909 Q39.4007 914.519 45.7664 914.519 Q52.1003 914.519 55.6014 911.909 Q59.1026 909.267 59.1026 904.556 Q59.1026 899.814 55.6014 897.204 Q52.1003 894.562 45.7664 894.562 M59.58 888.706 Q68.683 888.706 73.1071 892.748 Q77.5631 896.79 77.5631 905.129 Q77.5631 908.217 77.0857 910.954 Q76.6401 913.691 75.6852 916.269 L69.9879 916.269 Q71.3884 913.691 72.0568 911.177 Q72.7252 908.662 72.7252 906.052 Q72.7252 900.291 69.7015 897.427 Q66.7096 894.562 60.6303 894.562 L57.7339 894.562 Q60.885 896.377 62.4446 899.209 Q64.0042 902.042 64.0042 905.989 Q64.0042 912.545 59.0071 916.556 Q54.01 920.566 45.7664 920.566 Q37.491 920.566 32.4939 916.556 Q27.4968 912.545 27.4968 905.989 Q27.4968 902.042 29.0564 899.209 Q30.616 896.377 33.7671 894.562 L28.3562 894.562 L28.3562 888.706 L59.58 888.706 Z" fill="#000000" fill-rule="nonzero" fill-opacity="1" /><path clip-path="url(#clip120)" d="M43.5384 879.603 L43.5384 862.447 L48.7583 862.447 L48.7583 879.603 L43.5384 879.603 Z" fill="#000000" fill-rule="nonzero" fill-opacity="1" /><path clip-path="url(#clip120)" d="M16.4842 852.867 L16.4842 846.438 L58.5933 846.438 L58.5933 823.298 L64.0042 823.298 L64.0042 852.867 L16.4842 852.867 Z" fill="#000000" fill-rule="nonzero" fill-opacity="1" /><path clip-path="url(#clip120)" d="M28.3562 816.805 L28.3562 810.949 L64.0042 810.949 L64.0042 816.805 L28.3562 816.805 M14.479 816.805 L14.479 810.949 L21.895 810.949 L21.895 816.805 L14.479 816.805 Z" fill="#000000" fill-rule="nonzero" fill-opacity="1" /><path clip-path="url(#clip120)" d="M14.479 798.918 L14.479 793.029 L43.7294 793.029 L28.3562 775.555 L28.3562 768.076 L45.0344 786.982 L64.0042 767.28 L64.0042 774.919 L46.5939 793.029 L64.0042 793.029 L64.0042 798.918 L14.479 798.918 Z" fill="#000000" fill-rule="nonzero" fill-opacity="1" /><path clip-path="url(#clip120)" d="M44.7161 732.778 L47.5806 732.778 L47.5806 759.705 Q53.6281 759.323 56.8109 756.076 Q59.9619 752.798 59.9619 746.973 Q59.9619 743.6 59.1344 740.449 Q58.3069 737.266 56.6518 734.147 L62.1899 734.147 Q63.5267 737.298 64.227 740.608 Q64.9272 743.918 64.9272 747.324 Q64.9272 755.854 59.9619 760.851 Q54.9967 765.816 46.5303 765.816 Q37.7774 765.816 32.6531 761.105 Q27.4968 756.363 27.4968 748.342 Q27.4968 741.149 32.1438 736.979 Q36.7589 732.778 44.7161 732.778 M42.9973 738.634 Q38.1912 738.698 35.3266 741.34 Q32.4621 743.95 32.4621 748.278 Q32.4621 753.18 35.2312 756.14 Q38.0002 759.068 43.0292 759.514 L42.9973 738.634 Z" fill="#000000" fill-rule="nonzero" fill-opacity="1" /><path clip-path="url(#clip120)" d="M14.479 723.166 L14.479 717.309 L64.0042 717.309 L64.0042 723.166 L14.479 723.166 Z" fill="#000000" fill-rule="nonzero" fill-opacity="1" /><path clip-path="url(#clip120)" d="M28.3562 705.055 L28.3562 699.199 L64.0042 699.199 L64.0042 705.055 L28.3562 705.055 M14.479 705.055 L14.479 699.199 L21.895 699.199 L21.895 705.055 L14.479 705.055 Z" fill="#000000" fill-rule="nonzero" fill-opacity="1" /><path clip-path="url(#clip120)" d="M42.4881 657.312 L64.0042 657.312 L64.0042 663.169 L42.679 663.169 Q37.6183 663.169 35.1038 665.142 Q32.5894 667.116 32.5894 671.062 Q32.5894 675.805 35.6131 678.542 Q38.6368 681.279 43.8567 681.279 L64.0042 681.279 L64.0042 687.168 L14.479 687.168 L14.479 681.279 L33.8944 681.279 Q30.6797 679.179 29.0883 676.346 Q27.4968 673.481 27.4968 669.757 Q27.4968 663.614 31.3163 660.463 Q35.1038 657.312 42.4881 657.312 Z" fill="#000000" fill-rule="nonzero" fill-opacity="1" /><path clip-path="url(#clip120)" d="M32.4621 631.818 Q32.4621 636.528 36.1542 639.266 Q39.8145 642.003 46.212 642.003 Q52.6095 642.003 56.3017 639.297 Q59.9619 636.56 59.9619 631.818 Q59.9619 627.139 56.2698 624.402 Q52.5777 621.664 46.212 621.664 Q39.8781 621.664 36.186 624.402 Q32.4621 627.139 32.4621 631.818 M27.4968 631.818 Q27.4968 624.179 32.4621 619.818 Q37.4273 615.458 46.212 615.458 Q54.9649 615.458 59.9619 619.818 Q64.9272 624.179 64.9272 631.818 Q64.9272 639.488 59.9619 643.849 Q54.9649 648.178 46.212 648.178 Q37.4273 648.178 32.4621 643.849 Q27.4968 639.488 27.4968 631.818 Z" fill="#000000" fill-rule="nonzero" fill-opacity="1" /><path clip-path="url(#clip120)" d="M32.4621 591.937 Q32.4621 596.647 36.1542 599.384 Q39.8145 602.122 46.212 602.122 Q52.6095 602.122 56.3017 599.416 Q59.9619 596.679 59.9619 591.937 Q59.9619 587.258 56.2698 584.521 Q52.5777 581.783 46.212 581.783 Q39.8781 581.783 36.186 584.521 Q32.4621 587.258 32.4621 591.937 M27.4968 591.937 Q27.4968 584.298 32.4621 579.937 Q37.4273 575.577 46.212 575.577 Q54.9649 575.577 59.9619 579.937 Q64.9272 584.298 64.9272 591.937 Q64.9272 599.607 59.9619 603.968 Q54.9649 608.296 46.212 608.296 Q37.4273 608.296 32.4621 603.968 Q27.4968 599.607 27.4968 591.937 Z" fill="#000000" fill-rule="nonzero" fill-opacity="1" /><path clip-path="url(#clip120)" d="M33.7671 542.411 L14.479 542.411 L14.479 536.555 L64.0042 536.555 L64.0042 542.411 L58.657 542.411 Q61.8398 544.257 63.3994 547.09 Q64.9272 549.891 64.9272 553.838 Q64.9272 560.299 59.771 564.373 Q54.6147 568.415 46.212 568.415 Q37.8093 568.415 32.6531 564.373 Q27.4968 560.299 27.4968 553.838 Q27.4968 549.891 29.0564 547.09 Q30.5842 544.257 33.7671 542.411 M46.212 562.368 Q52.6732 562.368 56.3653 559.726 Q60.0256 557.053 60.0256 552.406 Q60.0256 547.759 56.3653 545.085 Q52.6732 542.411 46.212 542.411 Q39.7508 542.411 36.0905 545.085 Q32.3984 547.759 32.3984 552.406 Q32.3984 557.053 36.0905 559.726 Q39.7508 562.368 46.212 562.368 Z" fill="#000000" fill-rule="nonzero" fill-opacity="1" /><path clip-path="url(#clip120)" d="M780.822 31.2093 L780.822 47.0368 L790.197 47.0368 Q794.913 47.0368 797.17 45.0981 Q799.456 43.1306 799.456 39.1086 Q799.456 35.0577 797.17 33.148 Q794.913 31.2093 790.197 31.2093 L780.822 31.2093 M780.822 13.4432 L780.822 26.464 L789.473 26.464 Q793.756 26.464 795.839 24.8726 Q797.951 23.2522 797.951 19.9536 Q797.951 16.6839 795.839 15.0636 Q793.756 13.4432 789.473 13.4432 L780.822 13.4432 M774.977 8.64 L789.907 8.64 Q796.591 8.64 800.208 11.4178 Q803.825 14.1955 803.825 19.317 Q803.825 23.2811 801.973 25.6249 Q800.122 27.9686 796.534 28.5473 Q800.845 29.4732 803.218 32.4246 Q805.619 35.347 805.619 39.7452 Q805.619 45.5322 801.684 48.6861 Q797.749 51.84 790.486 51.84 L774.977 51.84 L774.977 8.64 Z" fill="#000000" fill-rule="nonzero" fill-opacity="1" /><path clip-path="url(#clip120)" d="M830.127 35.5496 Q823.675 35.5496 821.186 37.0253 Q818.698 38.501 818.698 42.06 Q818.698 44.8956 820.55 46.5738 Q822.43 48.2231 825.642 48.2231 Q830.069 48.2231 832.731 45.0981 Q835.422 41.9442 835.422 36.7359 L835.422 35.5496 L830.127 35.5496 M840.746 33.3505 L840.746 51.84 L835.422 51.84 L835.422 46.921 Q833.599 49.8724 830.879 51.2902 Q828.16 52.6791 824.224 52.6791 Q819.248 52.6791 816.296 49.9014 Q813.374 47.0947 813.374 42.4072 Q813.374 36.9385 817.02 34.1607 Q820.694 31.3829 827.957 31.3829 L835.422 31.3829 L835.422 30.8621 Q835.422 27.1874 832.992 25.1908 Q830.59 23.1654 826.221 23.1654 Q823.443 23.1654 820.81 23.8309 Q818.177 24.4964 815.746 25.8274 L815.746 20.9085 Q818.669 19.78 821.418 19.2302 Q824.167 18.6515 826.771 18.6515 Q833.802 18.6515 837.274 22.2973 Q840.746 25.9431 840.746 33.3505 Z" fill="#000000" fill-rule="nonzero" fill-opacity="1" /><path clip-path="url(#clip120)" d="M851.163 39.0507 L851.163 19.4328 L856.487 19.4328 L856.487 38.8482 Q856.487 43.4488 858.281 45.7636 Q860.075 48.0495 863.663 48.0495 Q867.974 48.0495 870.463 45.3007 Q872.98 42.5519 872.98 37.8065 L872.98 19.4328 L878.304 19.4328 L878.304 51.84 L872.98 51.84 L872.98 46.8632 Q871.041 49.8145 868.466 51.2613 Q865.92 52.6791 862.534 52.6791 Q856.95 52.6791 854.056 49.2069 Q851.163 45.7347 851.163 39.0507 M864.56 18.6515 L864.56 18.6515 Z" fill="#000000" fill-rule="nonzero" fill-opacity="1" /><path clip-path="url(#clip120)" d="M914.502 25.6538 Q916.498 22.0659 919.276 20.3587 Q922.054 18.6515 925.815 18.6515 Q930.879 18.6515 933.628 22.2105 Q936.377 25.7406 936.377 32.2799 L936.377 51.84 L931.024 51.84 L931.024 32.4535 Q931.024 27.795 929.374 25.5381 Q927.725 23.2811 924.34 23.2811 Q920.202 23.2811 917.8 26.03 Q915.399 28.7788 915.399 33.5241 L915.399 51.84 L910.046 51.84 L910.046 32.4535 Q910.046 27.7661 908.396 25.5381 Q906.747 23.2811 903.304 23.2811 Q899.224 23.2811 896.822 26.0589 Q894.421 28.8077 894.421 33.5241 L894.421 51.84 L889.068 51.84 L889.068 19.4328 L894.421 19.4328 L894.421 24.4675 Q896.244 21.4872 898.79 20.0693 Q901.336 18.6515 904.837 18.6515 Q908.368 18.6515 910.827 20.4455 Q913.315 22.2395 914.502 25.6538 Z" fill="#000000" fill-rule="nonzero" fill-opacity="1" /><path clip-path="url(#clip120)" d="M944.305 33.2348 L959.901 33.2348 L959.901 37.9801 L944.305 37.9801 L944.305 33.2348 Z" fill="#000000" fill-rule="nonzero" fill-opacity="1" /><path clip-path="url(#clip120)" d="M962.36 8.64 L968.263 8.64 L977.349 45.156 L986.405 8.64 L992.974 8.64 L1002.06 45.156 L1011.12 8.64 L1017.05 8.64 L1006.2 51.84 L998.847 51.84 L989.733 14.3402 L980.531 51.84 L973.182 51.84 L962.36 8.64 Z" fill="#000000" fill-rule="nonzero" fill-opacity="1" /><path clip-path="url(#clip120)" d="M1048.82 34.3054 L1048.82 36.9095 L1024.34 36.9095 Q1024.69 42.4072 1027.64 45.3007 Q1030.62 48.1653 1035.91 48.1653 Q1038.98 48.1653 1041.84 47.4129 Q1044.74 46.6606 1047.57 45.156 L1047.57 50.1907 Q1044.71 51.406 1041.7 52.0425 Q1038.69 52.6791 1035.59 52.6791 Q1027.84 52.6791 1023.3 48.1653 Q1018.78 43.6514 1018.78 35.9547 Q1018.78 27.9975 1023.07 23.339 Q1027.38 18.6515 1034.67 18.6515 Q1041.21 18.6515 1045 22.876 Q1048.82 27.0716 1048.82 34.3054 M1043.49 32.7429 Q1043.44 28.3737 1041.03 25.7695 Q1038.66 23.1654 1034.73 23.1654 Q1030.27 23.1654 1027.58 25.6827 Q1024.92 28.2001 1024.51 32.7718 L1043.49 32.7429 Z" fill="#000000" fill-rule="nonzero" fill-opacity="1" /><path clip-path="url(#clip120)" d="M1057.56 6.81709 L1062.88 6.81709 L1062.88 51.84 L1057.56 51.84 L1057.56 6.81709 Z" fill="#000000" fill-rule="nonzero" fill-opacity="1" /><path clip-path="url(#clip120)" d="M1097.34 20.677 L1097.34 25.6538 Q1095.09 24.4096 1092.8 23.802 Q1090.54 23.1654 1088.23 23.1654 Q1083.05 23.1654 1080.18 26.464 Q1077.32 29.7336 1077.32 35.6653 Q1077.32 41.597 1080.18 44.8956 Q1083.05 48.1653 1088.23 48.1653 Q1090.54 48.1653 1092.8 47.5576 Q1095.09 46.921 1097.34 45.6768 L1097.34 50.5958 Q1095.11 51.6375 1092.71 52.1583 Q1090.34 52.6791 1087.65 52.6791 Q1080.33 52.6791 1076.02 48.0784 Q1071.71 43.4778 1071.71 35.6653 Q1071.71 27.7371 1076.05 23.1943 Q1080.42 18.6515 1088 18.6515 Q1090.46 18.6515 1092.8 19.1724 Q1095.14 19.6642 1097.34 20.677 Z" fill="#000000" fill-rule="nonzero" fill-opacity="1" /><path clip-path="url(#clip120)" d="M1133.54 32.2799 L1133.54 51.84 L1128.22 51.84 L1128.22 32.4535 Q1128.22 27.8529 1126.42 25.567 Q1124.63 23.2811 1121.04 23.2811 Q1116.73 23.2811 1114.24 26.03 Q1111.75 28.7788 1111.75 33.5241 L1111.75 51.84 L1106.4 51.84 L1106.4 6.81709 L1111.75 6.81709 L1111.75 24.4675 Q1113.66 21.545 1116.24 20.0983 Q1118.84 18.6515 1122.23 18.6515 Q1127.81 18.6515 1130.68 22.1237 Q1133.54 25.567 1133.54 32.2799 Z" fill="#000000" fill-rule="nonzero" fill-opacity="1" /><path clip-path="url(#clip120)" d="M1195.58 11.9675 L1195.58 18.1307 Q1192.63 15.3819 1189.27 14.0219 Q1185.94 12.662 1182.18 12.662 Q1174.77 12.662 1170.84 17.2048 Q1166.9 21.7186 1166.9 30.2834 Q1166.9 38.8192 1170.84 43.362 Q1174.77 47.8759 1182.18 47.8759 Q1185.94 47.8759 1189.27 46.516 Q1192.63 45.156 1195.58 42.4072 L1195.58 48.5125 Q1192.51 50.5958 1189.07 51.6375 Q1185.65 52.6791 1181.83 52.6791 Q1172.02 52.6791 1166.38 46.6896 Q1160.74 40.6711 1160.74 30.2834 Q1160.74 19.8668 1166.38 13.8772 Q1172.02 7.85875 1181.83 7.85875 Q1185.71 7.85875 1189.12 8.90042 Q1192.57 9.91314 1195.58 11.9675 Z" fill="#000000" fill-rule="nonzero" fill-opacity="1" /><path clip-path="url(#clip120)" d="M1216.93 23.1654 Q1212.65 23.1654 1210.16 26.5218 Q1207.67 29.8494 1207.67 35.6653 Q1207.67 41.4813 1210.13 44.8377 Q1212.62 48.1653 1216.93 48.1653 Q1221.18 48.1653 1223.67 44.8088 Q1226.16 41.4523 1226.16 35.6653 Q1226.16 29.9072 1223.67 26.5508 Q1221.18 23.1654 1216.93 23.1654 M1216.93 18.6515 Q1223.88 18.6515 1227.84 23.1654 Q1231.8 27.6792 1231.8 35.6653 Q1231.8 43.6225 1227.84 48.1653 Q1223.88 52.6791 1216.93 52.6791 Q1209.96 52.6791 1205.99 48.1653 Q1202.06 43.6225 1202.06 35.6653 Q1202.06 27.6792 1205.99 23.1654 Q1209.96 18.6515 1216.93 18.6515 Z" fill="#000000" fill-rule="nonzero" fill-opacity="1" /><path clip-path="url(#clip120)" d="M1267.57 32.2799 L1267.57 51.84 L1262.24 51.84 L1262.24 32.4535 Q1262.24 27.8529 1260.45 25.567 Q1258.65 23.2811 1255.07 23.2811 Q1250.76 23.2811 1248.27 26.03 Q1245.78 28.7788 1245.78 33.5241 L1245.78 51.84 L1240.43 51.84 L1240.43 19.4328 L1245.78 19.4328 L1245.78 24.4675 Q1247.69 21.545 1250.26 20.0983 Q1252.87 18.6515 1256.25 18.6515 Q1261.84 18.6515 1264.7 22.1237 Q1267.57 25.567 1267.57 32.2799 Z" fill="#000000" fill-rule="nonzero" fill-opacity="1" /><path clip-path="url(#clip120)" d="M1274.37 19.4328 L1280.01 19.4328 L1290.14 46.6317 L1300.26 19.4328 L1305.91 19.4328 L1293.75 51.84 L1286.52 51.84 L1274.37 19.4328 Z" fill="#000000" fill-rule="nonzero" fill-opacity="1" /><path clip-path="url(#clip120)" d="M1340.98 34.3054 L1340.98 36.9095 L1316.5 36.9095 Q1316.84 42.4072 1319.79 45.3007 Q1322.78 48.1653 1328.07 48.1653 Q1331.14 48.1653 1334 47.4129 Q1336.9 46.6606 1339.73 45.156 L1339.73 50.1907 Q1336.87 51.406 1333.86 52.0425 Q1330.85 52.6791 1327.75 52.6791 Q1320 52.6791 1315.45 48.1653 Q1310.94 43.6514 1310.94 35.9547 Q1310.94 27.9975 1315.22 23.339 Q1319.53 18.6515 1326.83 18.6515 Q1333.37 18.6515 1337.16 22.876 Q1340.98 27.0716 1340.98 34.3054 M1335.65 32.7429 Q1335.59 28.3737 1333.19 25.7695 Q1330.82 23.1654 1326.88 23.1654 Q1322.43 23.1654 1319.74 25.6827 Q1317.07 28.2001 1316.67 32.7718 L1335.65 32.7429 Z" fill="#000000" fill-rule="nonzero" fill-opacity="1" /><path clip-path="url(#clip120)" d="M1368.49 24.4096 Q1367.6 23.8888 1366.52 23.6573 Q1365.48 23.3969 1364.21 23.3969 Q1359.7 23.3969 1357.27 26.3482 Q1354.86 29.2707 1354.86 34.7683 L1354.86 51.84 L1349.51 51.84 L1349.51 19.4328 L1354.86 19.4328 L1354.86 24.4675 Q1356.54 21.5161 1359.23 20.0983 Q1361.92 18.6515 1365.77 18.6515 Q1366.32 18.6515 1366.99 18.7383 Q1367.65 18.7962 1368.46 18.9409 L1368.49 24.4096 Z" fill="#000000" fill-rule="nonzero" fill-opacity="1" /><path clip-path="url(#clip120)" d="M1394.36 35.2602 Q1394.36 29.4732 1391.96 26.2904 Q1389.59 23.1075 1385.27 23.1075 Q1380.99 23.1075 1378.59 26.2904 Q1376.22 29.4732 1376.22 35.2602 Q1376.22 41.0183 1378.59 44.2012 Q1380.99 47.384 1385.27 47.384 Q1389.59 47.384 1391.96 44.2012 Q1394.36 41.0183 1394.36 35.2602 M1399.68 47.818 Q1399.68 56.0934 1396.01 60.1154 Q1392.33 64.1663 1384.75 64.1663 Q1381.95 64.1663 1379.46 63.7323 Q1376.97 63.3272 1374.63 62.4592 L1374.63 57.2798 Q1376.97 58.5529 1379.26 59.1606 Q1381.54 59.7682 1383.91 59.7682 Q1389.15 59.7682 1391.76 57.0194 Q1394.36 54.2995 1394.36 48.7729 L1394.36 46.1398 Q1392.71 49.0044 1390.14 50.4222 Q1387.56 51.84 1383.97 51.84 Q1378.01 51.84 1374.37 47.2972 Q1370.72 42.7544 1370.72 35.2602 Q1370.72 27.7371 1374.37 23.1943 Q1378.01 18.6515 1383.97 18.6515 Q1387.56 18.6515 1390.14 20.0693 Q1392.71 21.4872 1394.36 24.3517 L1394.36 19.4328 L1399.68 19.4328 L1399.68 47.818 Z" fill="#000000" fill-rule="nonzero" fill-opacity="1" /><path clip-path="url(#clip120)" d="M1438.37 34.3054 L1438.37 36.9095 L1413.89 36.9095 Q1414.24 42.4072 1417.19 45.3007 Q1420.17 48.1653 1425.47 48.1653 Q1428.53 48.1653 1431.4 47.4129 Q1434.29 46.6606 1437.13 45.156 L1437.13 50.1907 Q1434.26 51.406 1431.25 52.0425 Q1428.24 52.6791 1425.15 52.6791 Q1417.39 52.6791 1412.85 48.1653 Q1408.34 43.6514 1408.34 35.9547 Q1408.34 27.9975 1412.62 23.339 Q1416.93 18.6515 1424.22 18.6515 Q1430.76 18.6515 1434.55 22.876 Q1438.37 27.0716 1438.37 34.3054 M1433.05 32.7429 Q1432.99 28.3737 1430.59 25.7695 Q1428.21 23.1654 1424.28 23.1654 Q1419.82 23.1654 1417.13 25.6827 Q1414.47 28.2001 1414.07 32.7718 L1433.05 32.7429 Z" fill="#000000" fill-rule="nonzero" fill-opacity="1" /><path clip-path="url(#clip120)" d="M1474.05 32.2799 L1474.05 51.84 L1468.72 51.84 L1468.72 32.4535 Q1468.72 27.8529 1466.93 25.567 Q1465.14 23.2811 1461.55 23.2811 Q1457.24 23.2811 1454.75 26.03 Q1452.26 28.7788 1452.26 33.5241 L1452.26 51.84 L1446.91 51.84 L1446.91 19.4328 L1452.26 19.4328 L1452.26 24.4675 Q1454.17 21.545 1456.74 20.0983 Q1459.35 18.6515 1462.73 18.6515 Q1468.32 18.6515 1471.18 22.1237 Q1474.05 25.567 1474.05 32.2799 Z" fill="#000000" fill-rule="nonzero" fill-opacity="1" /><path clip-path="url(#clip120)" d="M1507.99 20.677 L1507.99 25.6538 Q1505.73 24.4096 1503.45 23.802 Q1501.19 23.1654 1498.87 23.1654 Q1493.69 23.1654 1490.83 26.464 Q1487.97 29.7336 1487.97 35.6653 Q1487.97 41.597 1490.83 44.8956 Q1493.69 48.1653 1498.87 48.1653 Q1501.19 48.1653 1503.45 47.5576 Q1505.73 46.921 1507.99 45.6768 L1507.99 50.5958 Q1505.76 51.6375 1503.36 52.1583 Q1500.99 52.6791 1498.29 52.6791 Q1490.97 52.6791 1486.66 48.0784 Q1482.35 43.4778 1482.35 35.6653 Q1482.35 27.7371 1486.69 23.1943 Q1491.06 18.6515 1498.64 18.6515 Q1501.1 18.6515 1503.45 19.1724 Q1505.79 19.6642 1507.99 20.677 Z" fill="#000000" fill-rule="nonzero" fill-opacity="1" /><path clip-path="url(#clip120)" d="M1544.97 34.3054 L1544.97 36.9095 L1520.49 36.9095 Q1520.84 42.4072 1523.79 45.3007 Q1526.77 48.1653 1532.06 48.1653 Q1535.13 48.1653 1537.99 47.4129 Q1540.89 46.6606 1543.72 45.156 L1543.72 50.1907 Q1540.86 51.406 1537.85 52.0425 Q1534.84 52.6791 1531.74 52.6791 Q1523.99 52.6791 1519.45 48.1653 Q1514.93 43.6514 1514.93 35.9547 Q1514.93 27.9975 1519.21 23.339 Q1523.53 18.6515 1530.82 18.6515 Q1537.36 18.6515 1541.15 22.876 Q1544.97 27.0716 1544.97 34.3054 M1539.64 32.7429 Q1539.59 28.3737 1537.18 25.7695 Q1534.81 23.1654 1530.88 23.1654 Q1526.42 23.1654 1523.73 25.6827 Q1521.07 28.2001 1520.66 32.7718 L1539.64 32.7429 Z" fill="#000000" fill-rule="nonzero" fill-opacity="1" /><path clip-path="url(#clip120)" d="M1585.33 6.87496 Q1581.45 13.53 1579.57 20.0404 Q1577.69 26.5508 1577.69 33.2348 Q1577.69 39.9188 1579.57 46.487 Q1581.48 53.0263 1585.33 59.6525 L1580.7 59.6525 Q1576.36 52.8527 1574.19 46.2845 Q1572.05 39.7162 1572.05 33.2348 Q1572.05 26.7823 1574.19 20.2429 Q1576.33 13.7036 1580.7 6.87496 L1585.33 6.87496 Z" fill="#000000" fill-rule="nonzero" fill-opacity="1" /><path clip-path="url(#clip120)" d="M1621.79 10.0578 L1621.79 15.758 Q1618.46 14.1666 1615.51 13.3853 Q1612.56 12.6041 1609.81 12.6041 Q1605.04 12.6041 1602.43 14.4559 Q1599.86 16.3078 1599.86 19.7221 Q1599.86 22.5867 1601.56 24.0624 Q1603.3 25.5091 1608.1 26.4061 L1611.63 27.1295 Q1618.17 28.3737 1621.27 31.5276 Q1624.39 34.6526 1624.39 39.9188 Q1624.39 46.1977 1620.17 49.4384 Q1615.97 52.6791 1607.84 52.6791 Q1604.78 52.6791 1601.3 51.9847 Q1597.86 51.2902 1594.16 49.9303 L1594.16 43.9118 Q1597.72 45.9083 1601.13 46.921 Q1604.54 47.9338 1607.84 47.9338 Q1612.85 47.9338 1615.57 45.9662 Q1618.29 43.9986 1618.29 40.3528 Q1618.29 37.1699 1616.32 35.376 Q1614.38 33.582 1609.93 32.685 L1606.37 31.9906 Q1599.83 30.6885 1596.91 27.9107 Q1593.98 25.133 1593.98 20.1851 Q1593.98 14.4559 1598.01 11.1573 Q1602.06 7.85875 1609.15 7.85875 Q1612.18 7.85875 1615.34 8.40852 Q1618.49 8.95829 1621.79 10.0578 Z" fill="#000000" fill-rule="nonzero" fill-opacity="1" /><path clip-path="url(#clip120)" d="M1639.35 13.4432 L1639.35 29.6758 L1646.7 29.6758 Q1650.78 29.6758 1653.01 27.5635 Q1655.24 25.4513 1655.24 21.545 Q1655.24 17.6677 1653.01 15.5555 Q1650.78 13.4432 1646.7 13.4432 L1639.35 13.4432 M1633.51 8.64 L1646.7 8.64 Q1653.97 8.64 1657.67 11.9386 Q1661.4 15.2083 1661.4 21.545 Q1661.4 27.9397 1657.67 31.2093 Q1653.97 34.479 1646.7 34.479 L1639.35 34.479 L1639.35 51.84 L1633.51 51.84 L1633.51 8.64 Z" fill="#000000" fill-rule="nonzero" fill-opacity="1" /><path clip-path="url(#clip120)" d="M1662.01 8.64 L1668.29 8.64 L1680.27 26.4061 L1692.16 8.64 L1698.44 8.64 L1683.16 31.2672 L1683.16 51.84 L1677.29 51.84 L1677.29 31.2672 L1662.01 8.64 Z" fill="#000000" fill-rule="nonzero" fill-opacity="1" /><path clip-path="url(#clip120)" d="M1705.27 44.4905 L1711.37 44.4905 L1711.37 49.4673 L1706.63 58.7265 L1702.89 58.7265 L1705.27 49.4673 L1705.27 44.4905 Z" fill="#000000" fill-rule="nonzero" fill-opacity="1" /><path clip-path="url(#clip120)" d="M1741.81 8.64 L1747.66 8.64 L1747.66 26.898 L1767.04 8.64 L1774.57 8.64 L1753.13 28.7788 L1776.1 51.84 L1768.4 51.84 L1747.66 31.0357 L1747.66 51.84 L1741.81 51.84 L1741.81 8.64 Z" fill="#000000" fill-rule="nonzero" fill-opacity="1" /><path clip-path="url(#clip120)" d="M1781.13 24.9304 L1818.23 24.9304 L1818.23 29.7915 L1781.13 29.7915 L1781.13 24.9304 M1781.13 36.7359 L1818.23 36.7359 L1818.23 41.6549 L1781.13 41.6549 L1781.13 36.7359 Z" fill="#000000" fill-rule="nonzero" fill-opacity="1" /><path clip-path="url(#clip120)" d="M1831.02 50.943 L1831.02 45.619 Q1833.22 46.6606 1835.47 47.2104 Q1837.73 47.7602 1839.9 47.7602 Q1845.69 47.7602 1848.73 43.8829 Q1851.79 39.9766 1852.23 32.0484 Q1850.55 34.5369 1847.97 35.8679 Q1845.4 37.1989 1842.27 37.1989 Q1835.79 37.1989 1832 33.2926 Q1828.24 29.3575 1828.24 22.5577 Q1828.24 15.9027 1832.18 11.8807 Q1836.11 7.85875 1842.65 7.85875 Q1850.14 7.85875 1854.08 13.6168 Q1858.04 19.346 1858.04 30.2834 Q1858.04 40.4975 1853.18 46.6028 Q1848.35 52.6791 1840.16 52.6791 Q1837.96 52.6791 1835.71 52.2451 Q1833.45 51.8111 1831.02 50.943 M1842.65 32.6271 Q1846.59 32.6271 1848.87 29.9362 Q1851.19 27.2452 1851.19 22.5577 Q1851.19 17.8992 1848.87 15.2083 Q1846.59 12.4884 1842.65 12.4884 Q1838.72 12.4884 1836.4 15.2083 Q1834.11 17.8992 1834.11 22.5577 Q1834.11 27.2452 1836.4 29.9362 Q1838.72 32.6271 1842.65 32.6271 Z" fill="#000000" fill-rule="nonzero" fill-opacity="1" /><path clip-path="url(#clip120)" d="M1866.96 6.87496 L1871.59 6.87496 Q1875.93 13.7036 1878.07 20.2429 Q1880.24 26.7823 1880.24 33.2348 Q1880.24 39.7162 1878.07 46.2845 Q1875.93 52.8527 1871.59 59.6525 L1866.96 59.6525 Q1870.8 53.0263 1872.69 46.487 Q1874.59 39.9188 1874.59 33.2348 Q1874.59 26.5508 1872.69 20.0404 Q1870.8 13.53 1866.96 6.87496 Z" fill="#000000" fill-rule="nonzero" fill-opacity="1" /><polyline clip-path="url(#clip122)" style="stroke:#000080; stroke-linecap:round; stroke-linejoin:round; stroke-width:8; stroke-opacity:1; fill:none" points="360.486,1385.91 393.269,884.064 426.053,759.737 458.837,682.993 491.621,624.67 524.405,575.739 557.188,531.937 589.972,490.447 622.756,449.479 655.54,409.856 688.323,374.639 721.107,345.118 753.891,320.949 786.675,301.246 819.459,285.163 852.242,272.071 885.026,261.45 917.81,252.818 950.594,245.771 983.377,239.99 1016.16,235.216 1048.95,231.23 1081.73,227.848 1114.51,224.914 1147.3,222.3 1180.08,219.902 1212.86,217.642 1245.65,215.457 1278.43,213.301 1311.22,211.143 1344,208.961 1376.78,206.748 1409.57,204.507 1442.35,202.251 1475.13,199.996 1507.92,197.757 1540.7,195.542 1573.49,193.349 1606.27,191.164 1639.05,188.963 1671.84,186.713 1704.62,184.376 1737.4,181.916 1770.19,179.305 1802.97,176.534 1835.76,173.618 1868.54,170.608 1901.32,167.576 1934.11,164.605 1966.89,161.766 1999.67,159.108 2032.46,156.654 2065.24,154.41 2098.03,152.369 2130.81,150.516 2163.59,148.83 2196.38,147.296 2229.16,145.897 2261.94,144.623 2294.73,143.465 "/>
<circle clip-path="url(#clip122)" cx="360.486" cy="1385.91" r="10.8" fill="#000080" fill-rule="evenodd" fill-opacity="1" stroke="#000000" stroke-opacity="1" stroke-width="3.2"/>
<circle clip-path="url(#clip122)" cx="393.269" cy="884.064" r="10.8" fill="#000080" fill-rule="evenodd" fill-opacity="1" stroke="#000000" stroke-opacity="1" stroke-width="3.2"/>
<circle clip-path="url(#clip122)" cx="426.053" cy="759.737" r="10.8" fill="#000080" fill-rule="evenodd" fill-opacity="1" stroke="#000000" stroke-opacity="1" stroke-width="3.2"/>
<circle clip-path="url(#clip122)" cx="458.837" cy="682.993" r="10.8" fill="#000080" fill-rule="evenodd" fill-opacity="1" stroke="#000000" stroke-opacity="1" stroke-width="3.2"/>
<circle clip-path="url(#clip122)" cx="491.621" cy="624.67" r="10.8" fill="#000080" fill-rule="evenodd" fill-opacity="1" stroke="#000000" stroke-opacity="1" stroke-width="3.2"/>
<circle clip-path="url(#clip122)" cx="524.405" cy="575.739" r="10.8" fill="#000080" fill-rule="evenodd" fill-opacity="1" stroke="#000000" stroke-opacity="1" stroke-width="3.2"/>
<circle clip-path="url(#clip122)" cx="557.188" cy="531.937" r="10.8" fill="#000080" fill-rule="evenodd" fill-opacity="1" stroke="#000000" stroke-opacity="1" stroke-width="3.2"/>
<circle clip-path="url(#clip122)" cx="589.972" cy="490.447" r="10.8" fill="#000080" fill-rule="evenodd" fill-opacity="1" stroke="#000000" stroke-opacity="1" stroke-width="3.2"/>
<circle clip-path="url(#clip122)" cx="622.756" cy="449.479" r="10.8" fill="#000080" fill-rule="evenodd" fill-opacity="1" stroke="#000000" stroke-opacity="1" stroke-width="3.2"/>
<circle clip-path="url(#clip122)" cx="655.54" cy="409.856" r="10.8" fill="#000080" fill-rule="evenodd" fill-opacity="1" stroke="#000000" stroke-opacity="1" stroke-width="3.2"/>
<circle clip-path="url(#clip122)" cx="688.323" cy="374.639" r="10.8" fill="#000080" fill-rule="evenodd" fill-opacity="1" stroke="#000000" stroke-opacity="1" stroke-width="3.2"/>
<circle clip-path="url(#clip122)" cx="721.107" cy="345.118" r="10.8" fill="#000080" fill-rule="evenodd" fill-opacity="1" stroke="#000000" stroke-opacity="1" stroke-width="3.2"/>
<circle clip-path="url(#clip122)" cx="753.891" cy="320.949" r="10.8" fill="#000080" fill-rule="evenodd" fill-opacity="1" stroke="#000000" stroke-opacity="1" stroke-width="3.2"/>
<circle clip-path="url(#clip122)" cx="786.675" cy="301.246" r="10.8" fill="#000080" fill-rule="evenodd" fill-opacity="1" stroke="#000000" stroke-opacity="1" stroke-width="3.2"/>
<circle clip-path="url(#clip122)" cx="819.459" cy="285.163" r="10.8" fill="#000080" fill-rule="evenodd" fill-opacity="1" stroke="#000000" stroke-opacity="1" stroke-width="3.2"/>
<circle clip-path="url(#clip122)" cx="852.242" cy="272.071" r="10.8" fill="#000080" fill-rule="evenodd" fill-opacity="1" stroke="#000000" stroke-opacity="1" stroke-width="3.2"/>
<circle clip-path="url(#clip122)" cx="885.026" cy="261.45" r="10.8" fill="#000080" fill-rule="evenodd" fill-opacity="1" stroke="#000000" stroke-opacity="1" stroke-width="3.2"/>
<circle clip-path="url(#clip122)" cx="917.81" cy="252.818" r="10.8" fill="#000080" fill-rule="evenodd" fill-opacity="1" stroke="#000000" stroke-opacity="1" stroke-width="3.2"/>
<circle clip-path="url(#clip122)" cx="950.594" cy="245.771" r="10.8" fill="#000080" fill-rule="evenodd" fill-opacity="1" stroke="#000000" stroke-opacity="1" stroke-width="3.2"/>
<circle clip-path="url(#clip122)" cx="983.377" cy="239.99" r="10.8" fill="#000080" fill-rule="evenodd" fill-opacity="1" stroke="#000000" stroke-opacity="1" stroke-width="3.2"/>
<circle clip-path="url(#clip122)" cx="1016.16" cy="235.216" r="10.8" fill="#000080" fill-rule="evenodd" fill-opacity="1" stroke="#000000" stroke-opacity="1" stroke-width="3.2"/>
<circle clip-path="url(#clip122)" cx="1048.95" cy="231.23" r="10.8" fill="#000080" fill-rule="evenodd" fill-opacity="1" stroke="#000000" stroke-opacity="1" stroke-width="3.2"/>
<circle clip-path="url(#clip122)" cx="1081.73" cy="227.848" r="10.8" fill="#000080" fill-rule="evenodd" fill-opacity="1" stroke="#000000" stroke-opacity="1" stroke-width="3.2"/>
<circle clip-path="url(#clip122)" cx="1114.51" cy="224.914" r="10.8" fill="#000080" fill-rule="evenodd" fill-opacity="1" stroke="#000000" stroke-opacity="1" stroke-width="3.2"/>
<circle clip-path="url(#clip122)" cx="1147.3" cy="222.3" r="10.8" fill="#000080" fill-rule="evenodd" fill-opacity="1" stroke="#000000" stroke-opacity="1" stroke-width="3.2"/>
<circle clip-path="url(#clip122)" cx="1180.08" cy="219.902" r="10.8" fill="#000080" fill-rule="evenodd" fill-opacity="1" stroke="#000000" stroke-opacity="1" stroke-width="3.2"/>
<circle clip-path="url(#clip122)" cx="1212.86" cy="217.642" r="10.8" fill="#000080" fill-rule="evenodd" fill-opacity="1" stroke="#000000" stroke-opacity="1" stroke-width="3.2"/>
<circle clip-path="url(#clip122)" cx="1245.65" cy="215.457" r="10.8" fill="#000080" fill-rule="evenodd" fill-opacity="1" stroke="#000000" stroke-opacity="1" stroke-width="3.2"/>
<circle clip-path="url(#clip122)" cx="1278.43" cy="213.301" r="10.8" fill="#000080" fill-rule="evenodd" fill-opacity="1" stroke="#000000" stroke-opacity="1" stroke-width="3.2"/>
<circle clip-path="url(#clip122)" cx="1311.22" cy="211.143" r="10.8" fill="#000080" fill-rule="evenodd" fill-opacity="1" stroke="#000000" stroke-opacity="1" stroke-width="3.2"/>
<circle clip-path="url(#clip122)" cx="1344" cy="208.961" r="10.8" fill="#000080" fill-rule="evenodd" fill-opacity="1" stroke="#000000" stroke-opacity="1" stroke-width="3.2"/>
<circle clip-path="url(#clip122)" cx="1376.78" cy="206.748" r="10.8" fill="#000080" fill-rule="evenodd" fill-opacity="1" stroke="#000000" stroke-opacity="1" stroke-width="3.2"/>
<circle clip-path="url(#clip122)" cx="1409.57" cy="204.507" r="10.8" fill="#000080" fill-rule="evenodd" fill-opacity="1" stroke="#000000" stroke-opacity="1" stroke-width="3.2"/>
<circle clip-path="url(#clip122)" cx="1442.35" cy="202.251" r="10.8" fill="#000080" fill-rule="evenodd" fill-opacity="1" stroke="#000000" stroke-opacity="1" stroke-width="3.2"/>
<circle clip-path="url(#clip122)" cx="1475.13" cy="199.996" r="10.8" fill="#000080" fill-rule="evenodd" fill-opacity="1" stroke="#000000" stroke-opacity="1" stroke-width="3.2"/>
<circle clip-path="url(#clip122)" cx="1507.92" cy="197.757" r="10.8" fill="#000080" fill-rule="evenodd" fill-opacity="1" stroke="#000000" stroke-opacity="1" stroke-width="3.2"/>
<circle clip-path="url(#clip122)" cx="1540.7" cy="195.542" r="10.8" fill="#000080" fill-rule="evenodd" fill-opacity="1" stroke="#000000" stroke-opacity="1" stroke-width="3.2"/>
<circle clip-path="url(#clip122)" cx="1573.49" cy="193.349" r="10.8" fill="#000080" fill-rule="evenodd" fill-opacity="1" stroke="#000000" stroke-opacity="1" stroke-width="3.2"/>
<circle clip-path="url(#clip122)" cx="1606.27" cy="191.164" r="10.8" fill="#000080" fill-rule="evenodd" fill-opacity="1" stroke="#000000" stroke-opacity="1" stroke-width="3.2"/>
<circle clip-path="url(#clip122)" cx="1639.05" cy="188.963" r="10.8" fill="#000080" fill-rule="evenodd" fill-opacity="1" stroke="#000000" stroke-opacity="1" stroke-width="3.2"/>
<circle clip-path="url(#clip122)" cx="1671.84" cy="186.713" r="10.8" fill="#000080" fill-rule="evenodd" fill-opacity="1" stroke="#000000" stroke-opacity="1" stroke-width="3.2"/>
<circle clip-path="url(#clip122)" cx="1704.62" cy="184.376" r="10.8" fill="#000080" fill-rule="evenodd" fill-opacity="1" stroke="#000000" stroke-opacity="1" stroke-width="3.2"/>
<circle clip-path="url(#clip122)" cx="1737.4" cy="181.916" r="10.8" fill="#000080" fill-rule="evenodd" fill-opacity="1" stroke="#000000" stroke-opacity="1" stroke-width="3.2"/>
<circle clip-path="url(#clip122)" cx="1770.19" cy="179.305" r="10.8" fill="#000080" fill-rule="evenodd" fill-opacity="1" stroke="#000000" stroke-opacity="1" stroke-width="3.2"/>
<circle clip-path="url(#clip122)" cx="1802.97" cy="176.534" r="10.8" fill="#000080" fill-rule="evenodd" fill-opacity="1" stroke="#000000" stroke-opacity="1" stroke-width="3.2"/>
<circle clip-path="url(#clip122)" cx="1835.76" cy="173.618" r="10.8" fill="#000080" fill-rule="evenodd" fill-opacity="1" stroke="#000000" stroke-opacity="1" stroke-width="3.2"/>
<circle clip-path="url(#clip122)" cx="1868.54" cy="170.608" r="10.8" fill="#000080" fill-rule="evenodd" fill-opacity="1" stroke="#000000" stroke-opacity="1" stroke-width="3.2"/>
<circle clip-path="url(#clip122)" cx="1901.32" cy="167.576" r="10.8" fill="#000080" fill-rule="evenodd" fill-opacity="1" stroke="#000000" stroke-opacity="1" stroke-width="3.2"/>
<circle clip-path="url(#clip122)" cx="1934.11" cy="164.605" r="10.8" fill="#000080" fill-rule="evenodd" fill-opacity="1" stroke="#000000" stroke-opacity="1" stroke-width="3.2"/>
<circle clip-path="url(#clip122)" cx="1966.89" cy="161.766" r="10.8" fill="#000080" fill-rule="evenodd" fill-opacity="1" stroke="#000000" stroke-opacity="1" stroke-width="3.2"/>
<circle clip-path="url(#clip122)" cx="1999.67" cy="159.108" r="10.8" fill="#000080" fill-rule="evenodd" fill-opacity="1" stroke="#000000" stroke-opacity="1" stroke-width="3.2"/>
<circle clip-path="url(#clip122)" cx="2032.46" cy="156.654" r="10.8" fill="#000080" fill-rule="evenodd" fill-opacity="1" stroke="#000000" stroke-opacity="1" stroke-width="3.2"/>
<circle clip-path="url(#clip122)" cx="2065.24" cy="154.41" r="10.8" fill="#000080" fill-rule="evenodd" fill-opacity="1" stroke="#000000" stroke-opacity="1" stroke-width="3.2"/>
<circle clip-path="url(#clip122)" cx="2098.03" cy="152.369" r="10.8" fill="#000080" fill-rule="evenodd" fill-opacity="1" stroke="#000000" stroke-opacity="1" stroke-width="3.2"/>
<circle clip-path="url(#clip122)" cx="2130.81" cy="150.516" r="10.8" fill="#000080" fill-rule="evenodd" fill-opacity="1" stroke="#000000" stroke-opacity="1" stroke-width="3.2"/>
<circle clip-path="url(#clip122)" cx="2163.59" cy="148.83" r="10.8" fill="#000080" fill-rule="evenodd" fill-opacity="1" stroke="#000000" stroke-opacity="1" stroke-width="3.2"/>
<circle clip-path="url(#clip122)" cx="2196.38" cy="147.296" r="10.8" fill="#000080" fill-rule="evenodd" fill-opacity="1" stroke="#000000" stroke-opacity="1" stroke-width="3.2"/>
<circle clip-path="url(#clip122)" cx="2229.16" cy="145.897" r="10.8" fill="#000080" fill-rule="evenodd" fill-opacity="1" stroke="#000000" stroke-opacity="1" stroke-width="3.2"/>
<circle clip-path="url(#clip122)" cx="2261.94" cy="144.623" r="10.8" fill="#000080" fill-rule="evenodd" fill-opacity="1" stroke="#000000" stroke-opacity="1" stroke-width="3.2"/>
<circle clip-path="url(#clip122)" cx="2294.73" cy="143.465" r="10.8" fill="#000080" fill-rule="evenodd" fill-opacity="1" stroke="#000000" stroke-opacity="1" stroke-width="3.2"/>
</svg>
