<?xml version="1.0" encoding="utf-8"?>
<svg xmlns="http://www.w3.org/2000/svg" xmlns:xlink="http://www.w3.org/1999/xlink" width="600" height="400" viewBox="0 0 2400 1600">
<defs>
  <clipPath id="clip740">
    <rect x="0" y="0" width="2400" height="1600"/>
  </clipPath>
</defs>
<path clip-path="url(#clip740)" d="M0 1600 L2400 1600 L2400 8.88178e-14 L0 8.88178e-14  Z" fill="#ffffff" fill-rule="evenodd" fill-opacity="1"/>
<defs>
  <clipPath id="clip741">
    <rect x="234" y="106" width="2120" height="1318"/>
  </clipPath>
</defs>
<path clip-path="url(#clip740)" d="M205.121 1423.18 L2352.76 1423.18 L2352.76 106.192 L205.121 106.192  Z" fill="#ffffff" fill-rule="evenodd" fill-opacity="1"/>
<defs>
  <clipPath id="clip742">
    <rect x="205" y="106" width="2149" height="1318"/>
  </clipPath>
</defs>
<polyline clip-path="url(#clip742)" style="stroke:#000000; stroke-linecap:round; stroke-linejoin:round; stroke-width:2; stroke-opacity:0.1; fill:none" points="548.114,1423.18 548.114,106.192 "/>
<polyline clip-path="url(#clip742)" style="stroke:#000000; stroke-linecap:round; stroke-linejoin:round; stroke-width:2; stroke-opacity:0.1; fill:none" points="1110.29,1423.18 1110.29,106.192 "/>
<polyline clip-path="url(#clip742)" style="stroke:#000000; stroke-linecap:round; stroke-linejoin:round; stroke-width:2; stroke-opacity:0.1; fill:none" points="1672.46,1423.18 1672.46,106.192 "/>
<polyline clip-path="url(#clip742)" style="stroke:#000000; stroke-linecap:round; stroke-linejoin:round; stroke-width:2; stroke-opacity:0.1; fill:none" points="2234.63,1423.18 2234.63,106.192 "/>
<polyline clip-path="url(#clip742)" style="stroke:#000000; stroke-linecap:round; stroke-linejoin:round; stroke-width:2; stroke-opacity:0.1; fill:none" points="205.121,1423.18 2352.76,1423.18 "/>
<polyline clip-path="url(#clip742)" style="stroke:#000000; stroke-linecap:round; stroke-linejoin:round; stroke-width:2; stroke-opacity:0.1; fill:none" points="205.121,1123.86 2352.76,1123.86 "/>
<polyline clip-path="url(#clip742)" style="stroke:#000000; stroke-linecap:round; stroke-linejoin:round; stroke-width:2; stroke-opacity:0.1; fill:none" points="205.121,824.549 2352.76,824.549 "/>
<polyline clip-path="url(#clip742)" style="stroke:#000000; stroke-linecap:round; stroke-linejoin:round; stroke-width:2; stroke-opacity:0.1; fill:none" points="205.121,525.234 2352.76,525.234 "/>
<polyline clip-path="url(#clip742)" style="stroke:#000000; stroke-linecap:round; stroke-linejoin:round; stroke-width:2; stroke-opacity:0.1; fill:none" points="205.121,225.918 2352.76,225.918 "/>
<polyline clip-path="url(#clip740)" style="stroke:#000000; stroke-linecap:round; stroke-linejoin:round; stroke-width:4; stroke-opacity:1; fill:none" points="205.121,1423.18 2352.76,1423.18 "/>
<polyline clip-path="url(#clip740)" style="stroke:#000000; stroke-linecap:round; stroke-linejoin:round; stroke-width:4; stroke-opacity:1; fill:none" points="548.114,1423.18 548.114,1404.28 "/>
<polyline clip-path="url(#clip740)" style="stroke:#000000; stroke-linecap:round; stroke-linejoin:round; stroke-width:4; stroke-opacity:1; fill:none" points="1110.29,1423.18 1110.29,1404.28 "/>
<polyline clip-path="url(#clip740)" style="stroke:#000000; stroke-linecap:round; stroke-linejoin:round; stroke-width:4; stroke-opacity:1; fill:none" points="1672.46,1423.18 1672.46,1404.28 "/>
<polyline clip-path="url(#clip740)" style="stroke:#000000; stroke-linecap:round; stroke-linejoin:round; stroke-width:4; stroke-opacity:1; fill:none" points="2234.63,1423.18 2234.63,1404.28 "/>
<path clip-path="url(#clip740)" d="M507.721 1481.64 L515.359 1481.64 L515.359 1455.28 L507.049 1456.95 L507.049 1452.69 L515.313 1451.02 L519.989 1451.02 L519.989 1481.64 L527.628 1481.64 L527.628 1485.58 L507.721 1485.58 L507.721 1481.64 Z" fill="#000000" fill-rule="nonzero" fill-opacity="1" /><path clip-path="url(#clip740)" d="M547.072 1454.1 Q543.461 1454.1 541.632 1457.66 Q539.827 1461.2 539.827 1468.33 Q539.827 1475.44 541.632 1479.01 Q543.461 1482.55 547.072 1482.55 Q550.706 1482.55 552.512 1479.01 Q554.341 1475.44 554.341 1468.33 Q554.341 1461.2 552.512 1457.66 Q550.706 1454.1 547.072 1454.1 M547.072 1450.39 Q552.882 1450.39 555.938 1455 Q559.017 1459.58 559.017 1468.33 Q559.017 1477.06 555.938 1481.67 Q552.882 1486.25 547.072 1486.25 Q541.262 1486.25 538.183 1481.67 Q535.128 1477.06 535.128 1468.33 Q535.128 1459.58 538.183 1455 Q541.262 1450.39 547.072 1450.39 Z" fill="#000000" fill-rule="nonzero" fill-opacity="1" /><path clip-path="url(#clip740)" d="M577.234 1454.1 Q573.623 1454.1 571.794 1457.66 Q569.989 1461.2 569.989 1468.33 Q569.989 1475.44 571.794 1479.01 Q573.623 1482.55 577.234 1482.55 Q580.868 1482.55 582.674 1479.01 Q584.503 1475.44 584.503 1468.33 Q584.503 1461.2 582.674 1457.66 Q580.868 1454.1 577.234 1454.1 M577.234 1450.39 Q583.044 1450.39 586.1 1455 Q589.178 1459.58 589.178 1468.33 Q589.178 1477.06 586.1 1481.67 Q583.044 1486.25 577.234 1486.25 Q571.424 1486.25 568.345 1481.67 Q565.29 1477.06 565.29 1468.33 Q565.29 1459.58 568.345 1455 Q571.424 1450.39 577.234 1450.39 Z" fill="#000000" fill-rule="nonzero" fill-opacity="1" /><path clip-path="url(#clip740)" d="M1073.98 1481.64 L1090.3 1481.64 L1090.3 1485.58 L1068.35 1485.58 L1068.35 1481.64 Q1071.02 1478.89 1075.6 1474.26 Q1080.21 1469.61 1081.39 1468.27 Q1083.63 1465.74 1084.51 1464.01 Q1085.41 1462.25 1085.41 1460.56 Q1085.41 1457.8 1083.47 1456.07 Q1081.55 1454.33 1078.45 1454.33 Q1076.25 1454.33 1073.79 1455.09 Q1071.36 1455.86 1068.59 1457.41 L1068.59 1452.69 Q1071.41 1451.55 1073.86 1450.97 Q1076.32 1450.39 1078.35 1450.39 Q1083.72 1450.39 1086.92 1453.08 Q1090.11 1455.77 1090.11 1460.26 Q1090.11 1462.39 1089.3 1464.31 Q1088.52 1466.2 1086.41 1468.8 Q1085.83 1469.47 1082.73 1472.69 Q1079.63 1475.88 1073.98 1481.64 Z" fill="#000000" fill-rule="nonzero" fill-opacity="1" /><path clip-path="url(#clip740)" d="M1110.11 1454.1 Q1106.5 1454.1 1104.67 1457.66 Q1102.87 1461.2 1102.87 1468.33 Q1102.87 1475.44 1104.67 1479.01 Q1106.5 1482.55 1110.11 1482.55 Q1113.75 1482.55 1115.55 1479.01 Q1117.38 1475.44 1117.38 1468.33 Q1117.38 1461.2 1115.55 1457.66 Q1113.75 1454.1 1110.11 1454.1 M1110.11 1450.39 Q1115.92 1450.39 1118.98 1455 Q1122.06 1459.58 1122.06 1468.33 Q1122.06 1477.06 1118.98 1481.67 Q1115.92 1486.25 1110.11 1486.25 Q1104.3 1486.25 1101.22 1481.67 Q1098.17 1477.06 1098.17 1468.33 Q1098.17 1459.58 1101.22 1455 Q1104.3 1450.39 1110.11 1450.39 Z" fill="#000000" fill-rule="nonzero" fill-opacity="1" /><path clip-path="url(#clip740)" d="M1140.27 1454.1 Q1136.66 1454.1 1134.84 1457.66 Q1133.03 1461.2 1133.03 1468.33 Q1133.03 1475.44 1134.84 1479.01 Q1136.66 1482.55 1140.27 1482.55 Q1143.91 1482.55 1145.71 1479.01 Q1147.54 1475.44 1147.54 1468.33 Q1147.54 1461.2 1145.71 1457.66 Q1143.91 1454.1 1140.27 1454.1 M1140.27 1450.39 Q1146.09 1450.39 1149.14 1455 Q1152.22 1459.58 1152.22 1468.33 Q1152.22 1477.06 1149.14 1481.67 Q1146.09 1486.25 1140.27 1486.25 Q1134.46 1486.25 1131.39 1481.67 Q1128.33 1477.06 1128.33 1468.33 Q1128.33 1459.58 1131.39 1455 Q1134.46 1450.39 1140.27 1450.39 Z" fill="#000000" fill-rule="nonzero" fill-opacity="1" /><path clip-path="url(#clip740)" d="M1646.22 1466.95 Q1649.58 1467.66 1651.45 1469.93 Q1653.35 1472.2 1653.35 1475.53 Q1653.35 1480.65 1649.83 1483.45 Q1646.31 1486.25 1639.83 1486.25 Q1637.66 1486.25 1635.34 1485.81 Q1633.05 1485.39 1630.6 1484.54 L1630.6 1480.02 Q1632.54 1481.16 1634.86 1481.74 Q1637.17 1482.32 1639.69 1482.32 Q1644.09 1482.32 1646.38 1480.58 Q1648.7 1478.84 1648.7 1475.53 Q1648.7 1472.48 1646.55 1470.77 Q1644.42 1469.03 1640.6 1469.03 L1636.57 1469.03 L1636.57 1465.19 L1640.78 1465.19 Q1644.23 1465.19 1646.06 1463.82 Q1647.89 1462.43 1647.89 1459.84 Q1647.89 1457.18 1645.99 1455.77 Q1644.11 1454.33 1640.6 1454.33 Q1638.67 1454.33 1636.48 1454.75 Q1634.28 1455.16 1631.64 1456.04 L1631.64 1451.88 Q1634.3 1451.14 1636.61 1450.77 Q1638.95 1450.39 1641.01 1450.39 Q1646.34 1450.39 1649.44 1452.83 Q1652.54 1455.23 1652.54 1459.35 Q1652.54 1462.22 1650.9 1464.21 Q1649.25 1466.18 1646.22 1466.95 Z" fill="#000000" fill-rule="nonzero" fill-opacity="1" /><path clip-path="url(#clip740)" d="M1672.22 1454.1 Q1668.61 1454.1 1666.78 1457.66 Q1664.97 1461.2 1664.97 1468.33 Q1664.97 1475.44 1666.78 1479.01 Q1668.61 1482.55 1672.22 1482.55 Q1675.85 1482.55 1677.66 1479.01 Q1679.48 1475.44 1679.48 1468.33 Q1679.48 1461.2 1677.66 1457.66 Q1675.85 1454.1 1672.22 1454.1 M1672.22 1450.39 Q1678.03 1450.39 1681.08 1455 Q1684.16 1459.58 1684.16 1468.33 Q1684.16 1477.06 1681.08 1481.67 Q1678.03 1486.25 1672.22 1486.25 Q1666.41 1486.25 1663.33 1481.67 Q1660.27 1477.06 1660.27 1468.33 Q1660.27 1459.58 1663.33 1455 Q1666.41 1450.39 1672.22 1450.39 Z" fill="#000000" fill-rule="nonzero" fill-opacity="1" /><path clip-path="url(#clip740)" d="M1702.38 1454.1 Q1698.77 1454.1 1696.94 1457.66 Q1695.13 1461.2 1695.13 1468.33 Q1695.13 1475.44 1696.94 1479.01 Q1698.77 1482.55 1702.38 1482.55 Q1706.01 1482.55 1707.82 1479.01 Q1709.65 1475.44 1709.65 1468.33 Q1709.65 1461.2 1707.82 1457.66 Q1706.01 1454.1 1702.38 1454.1 M1702.38 1450.39 Q1708.19 1450.39 1711.24 1455 Q1714.32 1459.58 1714.32 1468.33 Q1714.32 1477.06 1711.24 1481.67 Q1708.19 1486.25 1702.38 1486.25 Q1696.57 1486.25 1693.49 1481.67 Q1690.43 1477.06 1690.43 1468.33 Q1690.43 1459.58 1693.49 1455 Q1696.57 1450.39 1702.38 1450.39 Z" fill="#000000" fill-rule="nonzero" fill-opacity="1" /><path clip-path="url(#clip740)" d="M2207.72 1455.09 L2195.92 1473.54 L2207.72 1473.54 L2207.72 1455.09 M2206.5 1451.02 L2212.38 1451.02 L2212.38 1473.54 L2217.31 1473.54 L2217.31 1477.43 L2212.38 1477.43 L2212.38 1485.58 L2207.72 1485.58 L2207.72 1477.43 L2192.12 1477.43 L2192.12 1472.92 L2206.5 1451.02 Z" fill="#000000" fill-rule="nonzero" fill-opacity="1" /><path clip-path="url(#clip740)" d="M2235.04 1454.1 Q2231.43 1454.1 2229.6 1457.66 Q2227.79 1461.2 2227.79 1468.33 Q2227.79 1475.44 2229.6 1479.01 Q2231.43 1482.55 2235.04 1482.55 Q2238.67 1482.55 2240.48 1479.01 Q2242.31 1475.44 2242.31 1468.33 Q2242.31 1461.2 2240.48 1457.66 Q2238.67 1454.1 2235.04 1454.1 M2235.04 1450.39 Q2240.85 1450.39 2243.9 1455 Q2246.98 1459.58 2246.98 1468.33 Q2246.98 1477.06 2243.9 1481.67 Q2240.85 1486.25 2235.04 1486.25 Q2229.23 1486.25 2226.15 1481.67 Q2223.09 1477.06 2223.09 1468.33 Q2223.09 1459.58 2226.15 1455 Q2229.23 1450.39 2235.04 1450.39 Z" fill="#000000" fill-rule="nonzero" fill-opacity="1" /><path clip-path="url(#clip740)" d="M2265.2 1454.1 Q2261.59 1454.1 2259.76 1457.66 Q2257.95 1461.2 2257.95 1468.33 Q2257.95 1475.44 2259.76 1479.01 Q2261.59 1482.55 2265.2 1482.55 Q2268.83 1482.55 2270.64 1479.01 Q2272.47 1475.44 2272.47 1468.33 Q2272.47 1461.2 2270.64 1457.66 Q2268.83 1454.1 2265.2 1454.1 M2265.2 1450.39 Q2271.01 1450.39 2274.06 1455 Q2277.14 1459.58 2277.14 1468.33 Q2277.14 1477.06 2274.06 1481.67 Q2271.01 1486.25 2265.2 1486.25 Q2259.39 1486.25 2256.31 1481.67 Q2253.25 1477.06 2253.25 1468.33 Q2253.25 1459.58 2256.31 1455 Q2259.39 1450.39 2265.2 1450.39 Z" fill="#000000" fill-rule="nonzero" fill-opacity="1" /><path clip-path="url(#clip740)" d="M1051.36 1520.52 L1091.56 1520.52 L1091.56 1525.93 L1074.69 1525.93 L1074.69 1568.04 L1068.23 1568.04 L1068.23 1525.93 L1051.36 1525.93 L1051.36 1520.52 Z" fill="#000000" fill-rule="nonzero" fill-opacity="1" /><path clip-path="url(#clip740)" d="M1116.93 1548.76 L1116.93 1551.62 L1090 1551.62 Q1090.39 1557.67 1093.63 1560.85 Q1096.91 1564 1102.74 1564 Q1106.11 1564 1109.26 1563.17 Q1112.44 1562.35 1115.56 1560.69 L1115.56 1566.23 Q1112.41 1567.57 1109.1 1568.27 Q1105.79 1568.97 1102.39 1568.97 Q1093.86 1568.97 1088.86 1564 Q1083.89 1559.04 1083.89 1550.57 Q1083.89 1541.82 1088.6 1536.69 Q1093.35 1531.54 1101.37 1531.54 Q1108.56 1531.54 1112.73 1536.18 Q1116.93 1540.8 1116.93 1548.76 M1111.07 1547.04 Q1111.01 1542.23 1108.37 1539.37 Q1105.76 1536.5 1101.43 1536.5 Q1096.53 1536.5 1093.57 1539.27 Q1090.64 1542.04 1090.2 1547.07 L1111.07 1547.04 Z" fill="#000000" fill-rule="nonzero" fill-opacity="1" /><path clip-path="url(#clip740)" d="M1147.2 1537.87 Q1146.21 1537.3 1145.04 1537.04 Q1143.89 1536.76 1142.49 1536.76 Q1137.52 1536.76 1134.85 1540 Q1132.21 1543.22 1132.21 1549.27 L1132.21 1568.04 L1126.32 1568.04 L1126.32 1532.4 L1132.21 1532.4 L1132.21 1537.93 Q1134.05 1534.69 1137.02 1533.13 Q1139.98 1531.54 1144.21 1531.54 Q1144.81 1531.54 1145.55 1531.63 Q1146.28 1531.7 1147.17 1531.85 L1147.2 1537.87 Z" fill="#000000" fill-rule="nonzero" fill-opacity="1" /><path clip-path="url(#clip740)" d="M1179.95 1539.24 Q1182.15 1535.29 1185.2 1533.41 Q1188.26 1531.54 1192.4 1531.54 Q1197.97 1531.54 1200.99 1535.45 Q1204.01 1539.33 1204.01 1546.53 L1204.01 1568.04 L1198.13 1568.04 L1198.13 1546.72 Q1198.13 1541.59 1196.31 1539.11 Q1194.5 1536.63 1190.77 1536.63 Q1186.22 1536.63 1183.58 1539.65 Q1180.94 1542.68 1180.94 1547.9 L1180.94 1568.04 L1175.05 1568.04 L1175.05 1546.72 Q1175.05 1541.56 1173.24 1539.11 Q1171.42 1536.63 1167.63 1536.63 Q1163.15 1536.63 1160.5 1539.68 Q1157.86 1542.71 1157.86 1547.9 L1157.86 1568.04 L1151.97 1568.04 L1151.97 1532.4 L1157.86 1532.4 L1157.86 1537.93 Q1159.87 1534.66 1162.67 1533.1 Q1165.47 1531.54 1169.32 1531.54 Q1173.2 1531.54 1175.91 1533.51 Q1178.65 1535.48 1179.95 1539.24 Z" fill="#000000" fill-rule="nonzero" fill-opacity="1" /><path clip-path="url(#clip740)" d="M1215.7 1532.4 L1221.55 1532.4 L1221.55 1568.04 L1215.7 1568.04 L1215.7 1532.4 M1215.7 1518.52 L1221.55 1518.52 L1221.55 1525.93 L1215.7 1525.93 L1215.7 1518.52 Z" fill="#000000" fill-rule="nonzero" fill-opacity="1" /><path clip-path="url(#clip740)" d="M1263.44 1546.53 L1263.44 1568.04 L1257.58 1568.04 L1257.58 1546.72 Q1257.58 1541.66 1255.61 1539.14 Q1253.63 1536.63 1249.69 1536.63 Q1244.95 1536.63 1242.21 1539.65 Q1239.47 1542.68 1239.47 1547.9 L1239.47 1568.04 L1233.58 1568.04 L1233.58 1532.4 L1239.47 1532.4 L1239.47 1537.93 Q1241.57 1534.72 1244.4 1533.13 Q1247.27 1531.54 1250.99 1531.54 Q1257.14 1531.54 1260.29 1535.36 Q1263.44 1539.14 1263.44 1546.53 Z" fill="#000000" fill-rule="nonzero" fill-opacity="1" /><path clip-path="url(#clip740)" d="M1291.32 1550.12 Q1284.22 1550.12 1281.48 1551.75 Q1278.75 1553.37 1278.75 1557.29 Q1278.75 1560.4 1280.78 1562.25 Q1282.85 1564.07 1286.39 1564.07 Q1291.26 1564.07 1294.18 1560.63 Q1297.14 1557.16 1297.14 1551.43 L1297.14 1550.12 L1291.32 1550.12 M1303 1547.71 L1303 1568.04 L1297.14 1568.04 L1297.14 1562.63 Q1295.14 1565.88 1292.15 1567.44 Q1289.16 1568.97 1284.83 1568.97 Q1279.35 1568.97 1276.11 1565.91 Q1272.89 1562.82 1272.89 1557.67 Q1272.89 1551.65 1276.9 1548.6 Q1280.94 1545.54 1288.93 1545.54 L1297.14 1545.54 L1297.14 1544.97 Q1297.14 1540.93 1294.47 1538.73 Q1291.83 1536.5 1287.02 1536.5 Q1283.97 1536.5 1281.07 1537.23 Q1278.17 1537.97 1275.5 1539.43 L1275.5 1534.02 Q1278.72 1532.78 1281.74 1532.17 Q1284.76 1531.54 1287.63 1531.54 Q1295.36 1531.54 1299.18 1535.55 Q1303 1539.56 1303 1547.71 Z" fill="#000000" fill-rule="nonzero" fill-opacity="1" /><path clip-path="url(#clip740)" d="M1315.06 1518.52 L1320.92 1518.52 L1320.92 1568.04 L1315.06 1568.04 L1315.06 1518.52 Z" fill="#000000" fill-rule="nonzero" fill-opacity="1" /><path clip-path="url(#clip740)" d="M1359.56 1562.7 L1359.56 1581.6 L1353.67 1581.6 L1353.67 1532.4 L1359.56 1532.4 L1359.56 1537.81 Q1361.41 1534.62 1364.21 1533.1 Q1367.04 1531.54 1370.95 1531.54 Q1377.45 1531.54 1381.49 1536.69 Q1385.56 1541.85 1385.56 1550.25 Q1385.56 1558.65 1381.49 1563.81 Q1377.45 1568.97 1370.95 1568.97 Q1367.04 1568.97 1364.21 1567.44 Q1361.41 1565.88 1359.56 1562.7 M1379.48 1550.25 Q1379.48 1543.79 1376.81 1540.13 Q1374.17 1536.44 1369.52 1536.44 Q1364.88 1536.44 1362.2 1540.13 Q1359.56 1543.79 1359.56 1550.25 Q1359.56 1556.71 1362.2 1560.4 Q1364.88 1564.07 1369.52 1564.07 Q1374.17 1564.07 1376.81 1560.4 Q1379.48 1556.71 1379.48 1550.25 Z" fill="#000000" fill-rule="nonzero" fill-opacity="1" /><path clip-path="url(#clip740)" d="M1415.93 1537.87 Q1414.94 1537.3 1413.76 1537.04 Q1412.62 1536.76 1411.22 1536.76 Q1406.25 1536.76 1403.58 1540 Q1400.94 1543.22 1400.94 1549.27 L1400.94 1568.04 L1395.05 1568.04 L1395.05 1532.4 L1400.94 1532.4 L1400.94 1537.93 Q1402.78 1534.69 1405.74 1533.13 Q1408.7 1531.54 1412.94 1531.54 Q1413.54 1531.54 1414.27 1531.63 Q1415.01 1531.7 1415.9 1531.85 L1415.93 1537.87 Z" fill="#000000" fill-rule="nonzero" fill-opacity="1" /><path clip-path="url(#clip740)" d="M1422.07 1532.4 L1427.93 1532.4 L1427.93 1568.04 L1422.07 1568.04 L1422.07 1532.4 M1422.07 1518.52 L1427.93 1518.52 L1427.93 1525.93 L1422.07 1525.93 L1422.07 1518.52 Z" fill="#000000" fill-rule="nonzero" fill-opacity="1" /><path clip-path="url(#clip740)" d="M1465.84 1533.76 L1465.84 1539.24 Q1463.35 1537.87 1460.84 1537.2 Q1458.36 1536.5 1455.81 1536.5 Q1450.11 1536.5 1446.96 1540.13 Q1443.81 1543.73 1443.81 1550.25 Q1443.81 1556.78 1446.96 1560.4 Q1450.11 1564 1455.81 1564 Q1458.36 1564 1460.84 1563.33 Q1463.35 1562.63 1465.84 1561.26 L1465.84 1566.68 Q1463.38 1567.82 1460.74 1568.39 Q1458.13 1568.97 1455.17 1568.97 Q1447.12 1568.97 1442.38 1563.91 Q1437.64 1558.85 1437.64 1550.25 Q1437.64 1541.53 1442.41 1536.53 Q1447.22 1531.54 1455.55 1531.54 Q1458.26 1531.54 1460.84 1532.11 Q1463.42 1532.65 1465.84 1533.76 Z" fill="#000000" fill-rule="nonzero" fill-opacity="1" /><path clip-path="url(#clip740)" d="M1506.51 1548.76 L1506.51 1551.62 L1479.59 1551.62 Q1479.97 1557.67 1483.21 1560.85 Q1486.49 1564 1492.32 1564 Q1495.69 1564 1498.84 1563.17 Q1502.02 1562.35 1505.14 1560.69 L1505.14 1566.23 Q1501.99 1567.57 1498.68 1568.27 Q1495.37 1568.97 1491.97 1568.97 Q1483.44 1568.97 1478.44 1564 Q1473.47 1559.04 1473.47 1550.57 Q1473.47 1541.82 1478.19 1536.69 Q1482.93 1531.54 1490.95 1531.54 Q1498.14 1531.54 1502.31 1536.18 Q1506.51 1540.8 1506.51 1548.76 M1500.66 1547.04 Q1500.59 1542.23 1497.95 1539.37 Q1495.34 1536.5 1491.01 1536.5 Q1486.11 1536.5 1483.15 1539.27 Q1480.22 1542.04 1479.78 1547.07 L1500.66 1547.04 Z" fill="#000000" fill-rule="nonzero" fill-opacity="1" /><polyline clip-path="url(#clip740)" style="stroke:#000000; stroke-linecap:round; stroke-linejoin:round; stroke-width:4; stroke-opacity:1; fill:none" points="205.121,1423.18 205.121,106.192 "/>
<polyline clip-path="url(#clip740)" style="stroke:#000000; stroke-linecap:round; stroke-linejoin:round; stroke-width:4; stroke-opacity:1; fill:none" points="205.121,1423.18 224.019,1423.18 "/>
<polyline clip-path="url(#clip740)" style="stroke:#000000; stroke-linecap:round; stroke-linejoin:round; stroke-width:4; stroke-opacity:1; fill:none" points="205.121,1123.86 224.019,1123.86 "/>
<polyline clip-path="url(#clip740)" style="stroke:#000000; stroke-linecap:round; stroke-linejoin:round; stroke-width:4; stroke-opacity:1; fill:none" points="205.121,824.549 224.019,824.549 "/>
<polyline clip-path="url(#clip740)" style="stroke:#000000; stroke-linecap:round; stroke-linejoin:round; stroke-width:4; stroke-opacity:1; fill:none" points="205.121,525.234 224.019,525.234 "/>
<polyline clip-path="url(#clip740)" style="stroke:#000000; stroke-linecap:round; stroke-linejoin:round; stroke-width:4; stroke-opacity:1; fill:none" points="205.121,225.918 224.019,225.918 "/>
<path clip-path="url(#clip740)" d="M157.177 1408.98 Q153.566 1408.98 151.737 1412.54 Q149.931 1416.08 149.931 1423.21 Q149.931 1430.32 151.737 1433.89 Q153.566 1437.43 157.177 1437.43 Q160.811 1437.43 162.616 1433.89 Q164.445 1430.32 164.445 1423.21 Q164.445 1416.08 162.616 1412.54 Q160.811 1408.98 157.177 1408.98 M157.177 1405.27 Q162.987 1405.27 166.042 1409.88 Q169.121 1414.46 169.121 1423.21 Q169.121 1431.94 166.042 1436.55 Q162.987 1441.13 157.177 1441.13 Q151.366 1441.13 148.288 1436.55 Q145.232 1431.94 145.232 1423.21 Q145.232 1414.46 148.288 1409.88 Q151.366 1405.27 157.177 1405.27 Z" fill="#000000" fill-rule="nonzero" fill-opacity="1" /><path clip-path="url(#clip740)" d="M117.825 1137.21 L125.464 1137.21 L125.464 1110.84 L117.154 1112.51 L117.154 1108.25 L125.418 1106.58 L130.093 1106.58 L130.093 1137.21 L137.732 1137.21 L137.732 1141.14 L117.825 1141.14 L117.825 1137.21 Z" fill="#000000" fill-rule="nonzero" fill-opacity="1" /><path clip-path="url(#clip740)" d="M157.177 1109.66 Q153.566 1109.66 151.737 1113.23 Q149.931 1116.77 149.931 1123.9 Q149.931 1131.01 151.737 1134.57 Q153.566 1138.11 157.177 1138.11 Q160.811 1138.11 162.616 1134.57 Q164.445 1131.01 164.445 1123.9 Q164.445 1116.77 162.616 1113.23 Q160.811 1109.66 157.177 1109.66 M157.177 1105.96 Q162.987 1105.96 166.042 1110.57 Q169.121 1115.15 169.121 1123.9 Q169.121 1132.63 166.042 1137.23 Q162.987 1141.82 157.177 1141.82 Q151.366 1141.82 148.288 1137.23 Q145.232 1132.63 145.232 1123.9 Q145.232 1115.15 148.288 1110.57 Q151.366 1105.96 157.177 1105.96 Z" fill="#000000" fill-rule="nonzero" fill-opacity="1" /><path clip-path="url(#clip740)" d="M121.043 837.894 L137.362 837.894 L137.362 841.829 L115.418 841.829 L115.418 837.894 Q118.08 835.139 122.663 830.51 Q127.269 825.857 128.45 824.514 Q130.695 821.991 131.575 820.255 Q132.478 818.496 132.478 816.806 Q132.478 814.051 130.533 812.315 Q128.612 810.579 125.51 810.579 Q123.311 810.579 120.857 811.343 Q118.427 812.107 115.649 813.658 L115.649 808.936 Q118.473 807.801 120.927 807.223 Q123.38 806.644 125.418 806.644 Q130.788 806.644 133.982 809.329 Q137.177 812.014 137.177 816.505 Q137.177 818.635 136.367 820.556 Q135.579 822.454 133.473 825.047 Q132.894 825.718 129.792 828.936 Q126.691 832.13 121.043 837.894 Z" fill="#000000" fill-rule="nonzero" fill-opacity="1" /><path clip-path="url(#clip740)" d="M157.177 810.348 Q153.566 810.348 151.737 813.913 Q149.931 817.454 149.931 824.584 Q149.931 831.69 151.737 835.255 Q153.566 838.797 157.177 838.797 Q160.811 838.797 162.616 835.255 Q164.445 831.69 164.445 824.584 Q164.445 817.454 162.616 813.913 Q160.811 810.348 157.177 810.348 M157.177 806.644 Q162.987 806.644 166.042 811.251 Q169.121 815.834 169.121 824.584 Q169.121 833.311 166.042 837.917 Q162.987 842.5 157.177 842.5 Q151.366 842.5 148.288 837.917 Q145.232 833.311 145.232 824.584 Q145.232 815.834 148.288 811.251 Q151.366 806.644 157.177 806.644 Z" fill="#000000" fill-rule="nonzero" fill-opacity="1" /><path clip-path="url(#clip740)" d="M131.181 523.88 Q134.538 524.597 136.413 526.866 Q138.311 529.134 138.311 532.467 Q138.311 537.583 134.792 540.384 Q131.274 543.185 124.793 543.185 Q122.617 543.185 120.302 542.745 Q118.01 542.328 115.556 541.472 L115.556 536.958 Q117.501 538.092 119.816 538.671 Q122.13 539.25 124.654 539.25 Q129.052 539.25 131.343 537.514 Q133.658 535.778 133.658 532.467 Q133.658 529.412 131.505 527.699 Q129.376 525.963 125.556 525.963 L121.529 525.963 L121.529 522.12 L125.742 522.12 Q129.191 522.12 131.019 520.755 Q132.848 519.366 132.848 516.773 Q132.848 514.111 130.95 512.699 Q129.075 511.264 125.556 511.264 Q123.635 511.264 121.436 511.681 Q119.237 512.097 116.598 512.977 L116.598 508.81 Q119.26 508.069 121.575 507.699 Q123.913 507.329 125.973 507.329 Q131.297 507.329 134.399 509.759 Q137.501 512.167 137.501 516.287 Q137.501 519.157 135.857 521.148 Q134.214 523.116 131.181 523.88 Z" fill="#000000" fill-rule="nonzero" fill-opacity="1" /><path clip-path="url(#clip740)" d="M157.177 511.032 Q153.566 511.032 151.737 514.597 Q149.931 518.139 149.931 525.268 Q149.931 532.375 151.737 535.94 Q153.566 539.481 157.177 539.481 Q160.811 539.481 162.616 535.94 Q164.445 532.375 164.445 525.268 Q164.445 518.139 162.616 514.597 Q160.811 511.032 157.177 511.032 M157.177 507.329 Q162.987 507.329 166.042 511.935 Q169.121 516.518 169.121 525.268 Q169.121 533.995 166.042 538.602 Q162.987 543.185 157.177 543.185 Q151.366 543.185 148.288 538.602 Q145.232 533.995 145.232 525.268 Q145.232 516.518 148.288 511.935 Q151.366 507.329 157.177 507.329 Z" fill="#000000" fill-rule="nonzero" fill-opacity="1" /><path clip-path="url(#clip740)" d="M129.862 212.712 L118.056 231.161 L129.862 231.161 L129.862 212.712 M128.635 208.638 L134.515 208.638 L134.515 231.161 L139.445 231.161 L139.445 235.05 L134.515 235.05 L134.515 243.198 L129.862 243.198 L129.862 235.05 L114.26 235.05 L114.26 230.536 L128.635 208.638 Z" fill="#000000" fill-rule="nonzero" fill-opacity="1" /><path clip-path="url(#clip740)" d="M157.177 211.717 Q153.566 211.717 151.737 215.282 Q149.931 218.823 149.931 225.953 Q149.931 233.059 151.737 236.624 Q153.566 240.166 157.177 240.166 Q160.811 240.166 162.616 236.624 Q164.445 233.059 164.445 225.953 Q164.445 218.823 162.616 215.282 Q160.811 211.717 157.177 211.717 M157.177 208.013 Q162.987 208.013 166.042 212.62 Q169.121 217.203 169.121 225.953 Q169.121 234.68 166.042 239.286 Q162.987 243.87 157.177 243.87 Q151.366 243.87 148.288 239.286 Q145.232 234.68 145.232 225.953 Q145.232 217.203 148.288 212.62 Q151.366 208.013 157.177 208.013 Z" fill="#000000" fill-rule="nonzero" fill-opacity="1" /><path clip-path="url(#clip740)" d="M20.1444 820.545 L26.9239 820.545 Q23.9002 823.792 22.4043 827.484 Q20.9083 831.144 20.9083 835.282 Q20.9083 843.43 25.9054 847.758 Q30.8707 852.087 40.2919 852.087 Q49.6813 852.087 54.6784 847.758 Q59.6436 843.43 59.6436 835.282 Q59.6436 831.144 58.1477 827.484 Q56.6518 823.792 53.6281 820.545 L60.3439 820.545 Q62.6355 823.919 63.7814 827.706 Q64.9272 831.462 64.9272 835.664 Q64.9272 846.453 58.3387 852.66 Q51.7183 858.867 40.2919 858.867 Q28.8336 858.867 22.2451 852.66 Q15.6248 846.453 15.6248 835.664 Q15.6248 831.399 16.7706 827.643 Q17.8846 823.855 20.1444 820.545 Z" fill="#000000" fill-rule="nonzero" fill-opacity="1" /><path clip-path="url(#clip740)" d="M32.4621 797.056 Q32.4621 801.766 36.1542 804.503 Q39.8145 807.241 46.212 807.241 Q52.6095 807.241 56.3017 804.535 Q59.9619 801.798 59.9619 797.056 Q59.9619 792.377 56.2698 789.64 Q52.5777 786.902 46.212 786.902 Q39.8781 786.902 36.186 789.64 Q32.4621 792.377 32.4621 797.056 M27.4968 797.056 Q27.4968 789.417 32.4621 785.056 Q37.4273 780.696 46.212 780.696 Q54.9649 780.696 59.9619 785.056 Q64.9272 789.417 64.9272 797.056 Q64.9272 804.726 59.9619 809.087 Q54.9649 813.415 46.212 813.415 Q37.4273 813.415 32.4621 809.087 Q27.4968 804.726 27.4968 797.056 Z" fill="#000000" fill-rule="nonzero" fill-opacity="1" /><path clip-path="url(#clip740)" d="M49.9359 771.593 L28.3562 771.593 L28.3562 765.736 L49.7131 765.736 Q54.7739 765.736 57.3202 763.763 Q59.8346 761.79 59.8346 757.843 Q59.8346 753.1 56.8109 750.363 Q53.7872 747.594 48.5673 747.594 L28.3562 747.594 L28.3562 741.738 L64.0042 741.738 L64.0042 747.594 L58.5296 747.594 Q61.7762 749.727 63.3676 752.559 Q64.9272 755.36 64.9272 759.084 Q64.9272 765.227 61.1078 768.41 Q57.2883 771.593 49.9359 771.593 M27.4968 756.856 L27.4968 756.856 Z" fill="#000000" fill-rule="nonzero" fill-opacity="1" /><path clip-path="url(#clip740)" d="M42.4881 700.042 L64.0042 700.042 L64.0042 705.899 L42.679 705.899 Q37.6183 705.899 35.1038 707.872 Q32.5894 709.845 32.5894 713.792 Q32.5894 718.535 35.6131 721.272 Q38.6368 724.009 43.8567 724.009 L64.0042 724.009 L64.0042 729.897 L28.3562 729.897 L28.3562 724.009 L33.8944 724.009 Q30.6797 721.908 29.0883 719.076 Q27.4968 716.211 27.4968 712.487 Q27.4968 706.344 31.3163 703.193 Q35.1038 700.042 42.4881 700.042 Z" fill="#000000" fill-rule="nonzero" fill-opacity="1" /><path clip-path="url(#clip740)" d="M18.2347 682.568 L28.3562 682.568 L28.3562 670.505 L32.9077 670.505 L32.9077 682.568 L52.2594 682.568 Q56.6199 682.568 57.8613 681.391 Q59.1026 680.181 59.1026 676.521 L59.1026 670.505 L64.0042 670.505 L64.0042 676.521 Q64.0042 683.3 61.4897 685.879 Q58.9434 688.457 52.2594 688.457 L32.9077 688.457 L32.9077 692.753 L28.3562 692.753 L28.3562 688.457 L18.2347 688.457 L18.2347 682.568 Z" fill="#000000" fill-rule="nonzero" fill-opacity="1" /><path clip-path="url(#clip740)" d="M754.216 8.64 L760.061 8.64 L760.061 48.8308 Q760.061 56.6432 757.081 60.1733 Q754.129 63.7034 747.561 63.7034 L745.333 63.7034 L745.333 58.7844 L747.156 58.7844 Q751.033 58.7844 752.625 56.6143 Q754.216 54.4442 754.216 48.8308 L754.216 8.64 Z" fill="#000000" fill-rule="nonzero" fill-opacity="1" /><path clip-path="url(#clip740)" d="M771.693 8.64 L779.563 8.64 L798.718 44.7799 L798.718 8.64 L804.389 8.64 L804.389 51.84 L796.519 51.84 L777.364 15.7001 L777.364 51.84 L771.693 51.84 L771.693 8.64 Z" fill="#000000" fill-rule="nonzero" fill-opacity="1" /><path clip-path="url(#clip740)" d="M816.021 8.64 L821.866 8.64 L821.866 48.8308 Q821.866 56.6432 818.886 60.1733 Q815.935 63.7034 809.366 63.7034 L807.138 63.7034 L807.138 58.7844 L808.961 58.7844 Q812.839 58.7844 814.43 56.6143 Q816.021 54.4442 816.021 48.8308 L816.021 8.64 Z" fill="#000000" fill-rule="nonzero" fill-opacity="1" /><path clip-path="url(#clip740)" d="M849.412 33.2348 L865.008 33.2348 L865.008 37.9801 L849.412 37.9801 L849.412 33.2348 Z" fill="#000000" fill-rule="nonzero" fill-opacity="1" /><path clip-path="url(#clip740)" d="M924.904 11.9675 L924.904 18.1307 Q921.953 15.3819 918.596 14.0219 Q915.269 12.662 911.507 12.662 Q904.1 12.662 900.164 17.2048 Q896.229 21.7186 896.229 30.2834 Q896.229 38.8192 900.164 43.362 Q904.1 47.8759 911.507 47.8759 Q915.269 47.8759 918.596 46.516 Q921.953 45.156 924.904 42.4072 L924.904 48.5125 Q921.837 50.5958 918.393 51.6375 Q914.979 52.6791 911.16 52.6791 Q901.351 52.6791 895.708 46.6896 Q890.066 40.6711 890.066 30.2834 Q890.066 19.8668 895.708 13.8772 Q901.351 7.85875 911.16 7.85875 Q915.037 7.85875 918.451 8.90042 Q921.895 9.91314 924.904 11.9675 Z" fill="#000000" fill-rule="nonzero" fill-opacity="1" /><path clip-path="url(#clip740)" d="M933.932 8.64 L939.776 8.64 L939.776 26.3482 L961.015 26.3482 L961.015 8.64 L966.86 8.64 L966.86 51.84 L961.015 51.84 L961.015 31.2672 L939.776 31.2672 L939.776 51.84 L933.932 51.84 L933.932 8.64 Z" fill="#000000" fill-rule="nonzero" fill-opacity="1" /><path clip-path="url(#clip740)" d="M978.492 8.64 L987.201 8.64 L998.225 38.038 L1009.31 8.64 L1018.02 8.64 L1018.02 51.84 L1012.32 51.84 L1012.32 13.9062 L1001.18 43.5356 L995.303 43.5356 L984.163 13.9062 L984.163 51.84 L978.492 51.84 L978.492 8.64 Z" fill="#000000" fill-rule="nonzero" fill-opacity="1" /><path clip-path="url(#clip740)" d="M1029.62 8.64 L1038.33 8.64 L1049.35 38.038 L1060.44 8.64 L1069.15 8.64 L1069.15 51.84 L1063.44 51.84 L1063.44 13.9062 L1052.3 43.5356 L1046.43 43.5356 L1035.29 13.9062 L1035.29 51.84 L1029.62 51.84 L1029.62 8.64 Z" fill="#000000" fill-rule="nonzero" fill-opacity="1" /><path clip-path="url(#clip740)" d="M1077.83 33.2348 L1093.42 33.2348 L1093.42 37.9801 L1077.83 37.9801 L1077.83 33.2348 Z" fill="#000000" fill-rule="nonzero" fill-opacity="1" /><path clip-path="url(#clip740)" d="M1107.17 10.2314 L1107.17 19.4328 L1118.13 19.4328 L1118.13 23.5705 L1107.17 23.5705 L1107.17 41.163 Q1107.17 45.1271 1108.24 46.2555 Q1109.34 47.384 1112.66 47.384 L1118.13 47.384 L1118.13 51.84 L1112.66 51.84 Q1106.5 51.84 1104.16 49.5541 Q1101.81 47.2393 1101.81 41.163 L1101.81 23.5705 L1097.91 23.5705 L1097.91 19.4328 L1101.81 19.4328 L1101.81 10.2314 L1107.17 10.2314 Z" fill="#000000" fill-rule="nonzero" fill-opacity="1" /><path clip-path="url(#clip740)" d="M1149.24 10.2314 L1149.24 19.4328 L1160.2 19.4328 L1160.2 23.5705 L1149.24 23.5705 L1149.24 41.163 Q1149.24 45.1271 1150.31 46.2555 Q1151.41 47.384 1154.73 47.384 L1160.2 47.384 L1160.2 51.84 L1154.73 51.84 Q1148.57 51.84 1146.23 49.5541 Q1143.88 47.2393 1143.88 41.163 L1143.88 23.5705 L1139.98 23.5705 L1139.98 19.4328 L1143.88 19.4328 L1143.88 10.2314 L1149.24 10.2314 Z" fill="#000000" fill-rule="nonzero" fill-opacity="1" /><path clip-path="url(#clip740)" d="M1194.93 34.3054 L1194.93 36.9095 L1170.45 36.9095 Q1170.79 42.4072 1173.75 45.3007 Q1176.73 48.1653 1182.02 48.1653 Q1185.09 48.1653 1187.95 47.4129 Q1190.85 46.6606 1193.68 45.156 L1193.68 50.1907 Q1190.82 51.406 1187.81 52.0425 Q1184.8 52.6791 1181.7 52.6791 Q1173.95 52.6791 1169.4 48.1653 Q1164.89 43.6514 1164.89 35.9547 Q1164.89 27.9975 1169.17 23.339 Q1173.48 18.6515 1180.78 18.6515 Q1187.32 18.6515 1191.11 22.876 Q1194.93 27.0716 1194.93 34.3054 M1189.6 32.7429 Q1189.54 28.3737 1187.14 25.7695 Q1184.77 23.1654 1180.83 23.1654 Q1176.38 23.1654 1173.69 25.6827 Q1171.03 28.2001 1170.62 32.7718 L1189.6 32.7429 Z" fill="#000000" fill-rule="nonzero" fill-opacity="1" /><path clip-path="url(#clip740)" d="M1222.44 24.4096 Q1221.55 23.8888 1220.48 23.6573 Q1219.43 23.3969 1218.16 23.3969 Q1213.65 23.3969 1211.22 26.3482 Q1208.81 29.2707 1208.81 34.7683 L1208.81 51.84 L1203.46 51.84 L1203.46 19.4328 L1208.81 19.4328 L1208.81 24.4675 Q1210.49 21.5161 1213.18 20.0983 Q1215.87 18.6515 1219.72 18.6515 Q1220.27 18.6515 1220.94 18.7383 Q1221.6 18.7962 1222.41 18.9409 L1222.44 24.4096 Z" fill="#000000" fill-rule="nonzero" fill-opacity="1" /><path clip-path="url(#clip740)" d="M1252.22 25.6538 Q1254.21 22.0659 1256.99 20.3587 Q1259.77 18.6515 1263.53 18.6515 Q1268.59 18.6515 1271.34 22.2105 Q1274.09 25.7406 1274.09 32.2799 L1274.09 51.84 L1268.74 51.84 L1268.74 32.4535 Q1268.74 27.795 1267.09 25.5381 Q1265.44 23.2811 1262.05 23.2811 Q1257.92 23.2811 1255.52 26.03 Q1253.11 28.7788 1253.11 33.5241 L1253.11 51.84 L1247.76 51.84 L1247.76 32.4535 Q1247.76 27.7661 1246.11 25.5381 Q1244.46 23.2811 1241.02 23.2811 Q1236.94 23.2811 1234.54 26.0589 Q1232.14 28.8077 1232.14 33.5241 L1232.14 51.84 L1226.78 51.84 L1226.78 19.4328 L1232.14 19.4328 L1232.14 24.4675 Q1233.96 21.4872 1236.51 20.0693 Q1239.05 18.6515 1242.55 18.6515 Q1246.08 18.6515 1248.54 20.4455 Q1251.03 22.2395 1252.22 25.6538 Z" fill="#000000" fill-rule="nonzero" fill-opacity="1" /><path clip-path="url(#clip740)" d="M1284.71 19.4328 L1290.04 19.4328 L1290.04 51.84 L1284.71 51.84 L1284.71 19.4328 M1284.71 6.81709 L1290.04 6.81709 L1290.04 13.559 L1284.71 13.559 L1284.71 6.81709 Z" fill="#000000" fill-rule="nonzero" fill-opacity="1" /><path clip-path="url(#clip740)" d="M1328.11 32.2799 L1328.11 51.84 L1322.79 51.84 L1322.79 32.4535 Q1322.79 27.8529 1321 25.567 Q1319.2 23.2811 1315.61 23.2811 Q1311.3 23.2811 1308.81 26.03 Q1306.33 28.7788 1306.33 33.5241 L1306.33 51.84 L1300.97 51.84 L1300.97 19.4328 L1306.33 19.4328 L1306.33 24.4675 Q1308.24 21.545 1310.81 20.0983 Q1313.41 18.6515 1316.8 18.6515 Q1322.38 18.6515 1325.25 22.1237 Q1328.11 25.567 1328.11 32.2799 Z" fill="#000000" fill-rule="nonzero" fill-opacity="1" /><path clip-path="url(#clip740)" d="M1353.46 35.5496 Q1347.01 35.5496 1344.52 37.0253 Q1342.03 38.501 1342.03 42.06 Q1342.03 44.8956 1343.88 46.5738 Q1345.76 48.2231 1348.98 48.2231 Q1353.4 48.2231 1356.06 45.0981 Q1358.76 41.9442 1358.76 36.7359 L1358.76 35.5496 L1353.46 35.5496 M1364.08 33.3505 L1364.08 51.84 L1358.76 51.84 L1358.76 46.921 Q1356.93 49.8724 1354.21 51.2902 Q1351.49 52.6791 1347.56 52.6791 Q1342.58 52.6791 1339.63 49.9014 Q1336.71 47.0947 1336.71 42.4072 Q1336.71 36.9385 1340.35 34.1607 Q1344.03 31.3829 1351.29 31.3829 L1358.76 31.3829 L1358.76 30.8621 Q1358.76 27.1874 1356.33 25.1908 Q1353.92 23.1654 1349.55 23.1654 Q1346.78 23.1654 1344.14 23.8309 Q1341.51 24.4964 1339.08 25.8274 L1339.08 20.9085 Q1342 19.78 1344.75 19.2302 Q1347.5 18.6515 1350.1 18.6515 Q1357.14 18.6515 1360.61 22.2973 Q1364.08 25.9431 1364.08 33.3505 Z" fill="#000000" fill-rule="nonzero" fill-opacity="1" /><path clip-path="url(#clip740)" d="M1375.05 6.81709 L1380.37 6.81709 L1380.37 51.84 L1375.05 51.84 L1375.05 6.81709 Z" fill="#000000" fill-rule="nonzero" fill-opacity="1" /><path clip-path="url(#clip740)" d="M1415.5 46.9789 L1415.5 64.1663 L1410.14 64.1663 L1410.14 19.4328 L1415.5 19.4328 L1415.5 24.3517 Q1417.18 21.4582 1419.72 20.0693 Q1422.3 18.6515 1425.86 18.6515 Q1431.76 18.6515 1435.43 23.339 Q1439.14 28.0265 1439.14 35.6653 Q1439.14 43.3042 1435.43 47.9916 Q1431.76 52.6791 1425.86 52.6791 Q1422.3 52.6791 1419.72 51.2902 Q1417.18 49.8724 1415.5 46.9789 M1433.61 35.6653 Q1433.61 29.7915 1431.18 26.464 Q1428.78 23.1075 1424.55 23.1075 Q1420.33 23.1075 1417.9 26.464 Q1415.5 29.7915 1415.5 35.6653 Q1415.5 41.5391 1417.9 44.8956 Q1420.33 48.2231 1424.55 48.2231 Q1428.78 48.2231 1431.18 44.8956 Q1433.61 41.5391 1433.61 35.6653 Z" fill="#000000" fill-rule="nonzero" fill-opacity="1" /><path clip-path="url(#clip740)" d="M1466.74 24.4096 Q1465.84 23.8888 1464.77 23.6573 Q1463.73 23.3969 1462.46 23.3969 Q1457.95 23.3969 1455.51 26.3482 Q1453.11 29.2707 1453.11 34.7683 L1453.11 51.84 L1447.76 51.84 L1447.76 19.4328 L1453.11 19.4328 L1453.11 24.4675 Q1454.79 21.5161 1457.48 20.0983 Q1460.17 18.6515 1464.02 18.6515 Q1464.57 18.6515 1465.24 18.7383 Q1465.9 18.7962 1466.71 18.9409 L1466.74 24.4096 Z" fill="#000000" fill-rule="nonzero" fill-opacity="1" /><path clip-path="url(#clip740)" d="M1472.33 19.4328 L1477.65 19.4328 L1477.65 51.84 L1472.33 51.84 L1472.33 19.4328 M1472.33 6.81709 L1477.65 6.81709 L1477.65 13.559 L1472.33 13.559 L1472.33 6.81709 Z" fill="#000000" fill-rule="nonzero" fill-opacity="1" /><path clip-path="url(#clip740)" d="M1512.11 20.677 L1512.11 25.6538 Q1509.85 24.4096 1507.57 23.802 Q1505.31 23.1654 1503 23.1654 Q1497.82 23.1654 1494.95 26.464 Q1492.09 29.7336 1492.09 35.6653 Q1492.09 41.597 1494.95 44.8956 Q1497.82 48.1653 1503 48.1653 Q1505.31 48.1653 1507.57 47.5576 Q1509.85 46.921 1512.11 45.6768 L1512.11 50.5958 Q1509.88 51.6375 1507.48 52.1583 Q1505.11 52.6791 1502.42 52.6791 Q1495.1 52.6791 1490.79 48.0784 Q1486.47 43.4778 1486.47 35.6653 Q1486.47 27.7371 1490.82 23.1943 Q1495.18 18.6515 1502.77 18.6515 Q1505.22 18.6515 1507.57 19.1724 Q1509.91 19.6642 1512.11 20.677 Z" fill="#000000" fill-rule="nonzero" fill-opacity="1" /><path clip-path="url(#clip740)" d="M1549.09 34.3054 L1549.09 36.9095 L1524.61 36.9095 Q1524.96 42.4072 1527.91 45.3007 Q1530.89 48.1653 1536.19 48.1653 Q1539.25 48.1653 1542.12 47.4129 Q1545.01 46.6606 1547.85 45.156 L1547.85 50.1907 Q1544.98 51.406 1541.97 52.0425 Q1538.96 52.6791 1535.87 52.6791 Q1528.11 52.6791 1523.57 48.1653 Q1519.06 43.6514 1519.06 35.9547 Q1519.06 27.9975 1523.34 23.339 Q1527.65 18.6515 1534.94 18.6515 Q1541.48 18.6515 1545.27 22.876 Q1549.09 27.0716 1549.09 34.3054 M1543.77 32.7429 Q1543.71 28.3737 1541.31 25.7695 Q1538.93 23.1654 1535 23.1654 Q1530.54 23.1654 1527.85 25.6827 Q1525.19 28.2001 1524.78 32.7718 L1543.77 32.7429 Z" fill="#000000" fill-rule="nonzero" fill-opacity="1" /><path clip-path="url(#clip740)" d="M1589.45 6.87496 Q1585.58 13.53 1583.7 20.0404 Q1581.82 26.5508 1581.82 33.2348 Q1581.82 39.9188 1583.7 46.487 Q1585.61 53.0263 1589.45 59.6525 L1584.83 59.6525 Q1580.48 52.8527 1578.31 46.2845 Q1576.17 39.7162 1576.17 33.2348 Q1576.17 26.7823 1578.31 20.2429 Q1580.46 13.7036 1584.83 6.87496 L1589.45 6.87496 Z" fill="#000000" fill-rule="nonzero" fill-opacity="1" /><path clip-path="url(#clip740)" d="M1626.72 32.2799 L1626.72 51.84 L1621.4 51.84 L1621.4 32.4535 Q1621.4 27.8529 1619.61 25.567 Q1617.81 23.2811 1614.22 23.2811 Q1609.91 23.2811 1607.42 26.03 Q1604.93 28.7788 1604.93 33.5241 L1604.93 51.84 L1599.58 51.84 L1599.58 19.4328 L1604.93 19.4328 L1604.93 24.4675 Q1606.84 21.545 1609.42 20.0983 Q1612.02 18.6515 1615.41 18.6515 Q1620.99 18.6515 1623.86 22.1237 Q1626.72 25.567 1626.72 32.2799 Z" fill="#000000" fill-rule="nonzero" fill-opacity="1" /><path clip-path="url(#clip740)" d="M1638.04 24.9304 L1675.13 24.9304 L1675.13 29.7915 L1638.04 29.7915 L1638.04 24.9304 M1638.04 36.7359 L1675.13 36.7359 L1675.13 41.6549 L1638.04 41.6549 L1638.04 36.7359 Z" fill="#000000" fill-rule="nonzero" fill-opacity="1" /><path clip-path="url(#clip740)" d="M1687.8 8.64 L1710.75 8.64 L1710.75 13.559 L1693.16 13.559 L1693.16 24.1492 Q1694.43 23.7152 1695.7 23.5126 Q1696.98 23.2811 1698.25 23.2811 Q1705.48 23.2811 1709.71 27.2452 Q1713.93 31.2093 1713.93 37.9801 Q1713.93 44.9535 1709.59 48.8308 Q1705.25 52.6791 1697.35 52.6791 Q1694.63 52.6791 1691.8 52.2162 Q1688.99 51.7532 1685.98 50.8273 L1685.98 44.9535 Q1688.59 46.3713 1691.36 47.0657 Q1694.14 47.7602 1697.24 47.7602 Q1702.24 47.7602 1705.17 45.1271 Q1708.09 42.494 1708.09 37.9801 Q1708.09 33.4663 1705.17 30.8332 Q1702.24 28.2001 1697.24 28.2001 Q1694.89 28.2001 1692.55 28.7209 Q1690.24 29.2417 1687.8 30.3413 L1687.8 8.64 Z" fill="#000000" fill-rule="nonzero" fill-opacity="1" /><path clip-path="url(#clip740)" d="M1737.95 12.4884 Q1733.44 12.4884 1731.15 16.9444 Q1728.89 21.3714 1728.89 30.2834 Q1728.89 39.1665 1731.15 43.6225 Q1733.44 48.0495 1737.95 48.0495 Q1742.49 48.0495 1744.75 43.6225 Q1747.03 39.1665 1747.03 30.2834 Q1747.03 21.3714 1744.75 16.9444 Q1742.49 12.4884 1737.95 12.4884 M1737.95 7.85875 Q1745.21 7.85875 1749.03 13.6168 Q1752.88 19.346 1752.88 30.2834 Q1752.88 41.1919 1749.03 46.95 Q1745.21 52.6791 1737.95 52.6791 Q1730.69 52.6791 1726.84 46.95 Q1723.02 41.1919 1723.02 30.2834 Q1723.02 19.346 1726.84 13.6168 Q1730.69 7.85875 1737.95 7.85875 Z" fill="#000000" fill-rule="nonzero" fill-opacity="1" /><path clip-path="url(#clip740)" d="M1775.65 12.4884 Q1771.14 12.4884 1768.85 16.9444 Q1766.59 21.3714 1766.59 30.2834 Q1766.59 39.1665 1768.85 43.6225 Q1771.14 48.0495 1775.65 48.0495 Q1780.19 48.0495 1782.45 43.6225 Q1784.74 39.1665 1784.74 30.2834 Q1784.74 21.3714 1782.45 16.9444 Q1780.19 12.4884 1775.65 12.4884 M1775.65 7.85875 Q1782.91 7.85875 1786.73 13.6168 Q1790.58 19.346 1790.58 30.2834 Q1790.58 41.1919 1786.73 46.95 Q1782.91 52.6791 1775.65 52.6791 Q1768.39 52.6791 1764.54 46.95 Q1760.72 41.1919 1760.72 30.2834 Q1760.72 19.346 1764.54 13.6168 Q1768.39 7.85875 1775.65 7.85875 Z" fill="#000000" fill-rule="nonzero" fill-opacity="1" /><path clip-path="url(#clip740)" d="M1799.26 6.87496 L1803.89 6.87496 Q1808.23 13.7036 1810.37 20.2429 Q1812.54 26.7823 1812.54 33.2348 Q1812.54 39.7162 1810.37 46.2845 Q1808.23 52.8527 1803.89 59.6525 L1799.26 59.6525 Q1803.11 53.0263 1804.99 46.487 Q1806.9 39.9188 1806.9 33.2348 Q1806.9 26.5508 1804.99 20.0404 Q1803.11 13.53 1799.26 6.87496 Z" fill="#000000" fill-rule="nonzero" fill-opacity="1" /><path clip-path="url(#clip742)" d="M323.245 1363.32 L323.245 1423.18 L379.462 1423.18 L379.462 1363.32 L323.245 1363.32 L323.245 1363.32  Z" fill="#4682b4" fill-rule="evenodd" fill-opacity="0.6"/>
<polyline clip-path="url(#clip742)" style="stroke:#000000; stroke-linecap:round; stroke-linejoin:round; stroke-width:4; stroke-opacity:1; fill:none" points="323.245,1363.32 323.245,1423.18 379.462,1423.18 379.462,1363.32 323.245,1363.32 "/>
<path clip-path="url(#clip742)" d="M379.462 1363.32 L379.462 1423.18 L435.679 1423.18 L435.679 1363.32 L379.462 1363.32 L379.462 1363.32  Z" fill="#4682b4" fill-rule="evenodd" fill-opacity="0.6"/>
<polyline clip-path="url(#clip742)" style="stroke:#000000; stroke-linecap:round; stroke-linejoin:round; stroke-width:4; stroke-opacity:1; fill:none" points="379.462,1363.32 379.462,1423.18 435.679,1423.18 435.679,1363.32 379.462,1363.32 "/>
<path clip-path="url(#clip742)" d="M435.679 1393.25 L435.679 1423.18 L491.897 1423.18 L491.897 1393.25 L435.679 1393.25 L435.679 1393.25  Z" fill="#4682b4" fill-rule="evenodd" fill-opacity="0.6"/>
<polyline clip-path="url(#clip742)" style="stroke:#000000; stroke-linecap:round; stroke-linejoin:round; stroke-width:4; stroke-opacity:1; fill:none" points="435.679,1393.25 435.679,1423.18 491.897,1423.18 491.897,1393.25 435.679,1393.25 "/>
<path clip-path="url(#clip742)" d="M491.897 1303.45 L491.897 1423.18 L548.114 1423.18 L548.114 1303.45 L491.897 1303.45 L491.897 1303.45  Z" fill="#4682b4" fill-rule="evenodd" fill-opacity="0.6"/>
<polyline clip-path="url(#clip742)" style="stroke:#000000; stroke-linecap:round; stroke-linejoin:round; stroke-width:4; stroke-opacity:1; fill:none" points="491.897,1303.45 491.897,1423.18 548.114,1423.18 548.114,1303.45 491.897,1303.45 "/>
<path clip-path="url(#clip742)" d="M548.114 1213.66 L548.114 1423.18 L604.331 1423.18 L604.331 1213.66 L548.114 1213.66 L548.114 1213.66  Z" fill="#4682b4" fill-rule="evenodd" fill-opacity="0.6"/>
<polyline clip-path="url(#clip742)" style="stroke:#000000; stroke-linecap:round; stroke-linejoin:round; stroke-width:4; stroke-opacity:1; fill:none" points="548.114,1213.66 548.114,1423.18 604.331,1423.18 604.331,1213.66 548.114,1213.66 "/>
<path clip-path="url(#clip742)" d="M604.331 794.618 L604.331 1423.18 L660.548 1423.18 L660.548 794.618 L604.331 794.618 L604.331 794.618  Z" fill="#4682b4" fill-rule="evenodd" fill-opacity="0.6"/>
<polyline clip-path="url(#clip742)" style="stroke:#000000; stroke-linecap:round; stroke-linejoin:round; stroke-width:4; stroke-opacity:1; fill:none" points="604.331,794.618 604.331,1423.18 660.548,1423.18 660.548,794.618 604.331,794.618 "/>
<path clip-path="url(#clip742)" d="M660.548 764.686 L660.548 1423.18 L716.766 1423.18 L716.766 764.686 L660.548 764.686 L660.548 764.686  Z" fill="#4682b4" fill-rule="evenodd" fill-opacity="0.6"/>
<polyline clip-path="url(#clip742)" style="stroke:#000000; stroke-linecap:round; stroke-linejoin:round; stroke-width:4; stroke-opacity:1; fill:none" points="660.548,764.686 660.548,1423.18 716.766,1423.18 716.766,764.686 660.548,764.686 "/>
<path clip-path="url(#clip742)" d="M716.766 615.028 L716.766 1423.18 L772.983 1423.18 L772.983 615.028 L716.766 615.028 L716.766 615.028  Z" fill="#4682b4" fill-rule="evenodd" fill-opacity="0.6"/>
<polyline clip-path="url(#clip742)" style="stroke:#000000; stroke-linecap:round; stroke-linejoin:round; stroke-width:4; stroke-opacity:1; fill:none" points="716.766,615.028 716.766,1423.18 772.983,1423.18 772.983,615.028 716.766,615.028 "/>
<path clip-path="url(#clip742)" d="M772.983 525.234 L772.983 1423.18 L829.2 1423.18 L829.2 525.234 L772.983 525.234 L772.983 525.234  Z" fill="#4682b4" fill-rule="evenodd" fill-opacity="0.6"/>
<polyline clip-path="url(#clip742)" style="stroke:#000000; stroke-linecap:round; stroke-linejoin:round; stroke-width:4; stroke-opacity:1; fill:none" points="772.983,525.234 772.983,1423.18 829.2,1423.18 829.2,525.234 772.983,525.234 "/>
<path clip-path="url(#clip742)" d="M829.2 495.302 L829.2 1423.18 L885.417 1423.18 L885.417 495.302 L829.2 495.302 L829.2 495.302  Z" fill="#4682b4" fill-rule="evenodd" fill-opacity="0.6"/>
<polyline clip-path="url(#clip742)" style="stroke:#000000; stroke-linecap:round; stroke-linejoin:round; stroke-width:4; stroke-opacity:1; fill:none" points="829.2,495.302 829.2,1423.18 885.417,1423.18 885.417,495.302 829.2,495.302 "/>
<path clip-path="url(#clip742)" d="M885.417 225.918 L885.417 1423.18 L941.635 1423.18 L941.635 225.918 L885.417 225.918 L885.417 225.918  Z" fill="#4682b4" fill-rule="evenodd" fill-opacity="0.6"/>
<polyline clip-path="url(#clip742)" style="stroke:#000000; stroke-linecap:round; stroke-linejoin:round; stroke-width:4; stroke-opacity:1; fill:none" points="885.417,225.918 885.417,1423.18 941.635,1423.18 941.635,225.918 885.417,225.918 "/>
<path clip-path="url(#clip742)" d="M941.635 255.85 L941.635 1423.18 L997.852 1423.18 L997.852 255.85 L941.635 255.85 L941.635 255.85  Z" fill="#4682b4" fill-rule="evenodd" fill-opacity="0.6"/>
<polyline clip-path="url(#clip742)" style="stroke:#000000; stroke-linecap:round; stroke-linejoin:round; stroke-width:4; stroke-opacity:1; fill:none" points="941.635,255.85 941.635,1423.18 997.852,1423.18 997.852,255.85 941.635,255.85 "/>
<path clip-path="url(#clip742)" d="M997.852 166.055 L997.852 1423.18 L1054.07 1423.18 L1054.07 166.055 L997.852 166.055 L997.852 166.055  Z" fill="#4682b4" fill-rule="evenodd" fill-opacity="0.6"/>
<polyline clip-path="url(#clip742)" style="stroke:#000000; stroke-linecap:round; stroke-linejoin:round; stroke-width:4; stroke-opacity:1; fill:none" points="997.852,166.055 997.852,1423.18 1054.07,1423.18 1054.07,166.055 997.852,166.055 "/>
<path clip-path="url(#clip742)" d="M1054.07 106.192 L1054.07 1423.18 L1110.29 1423.18 L1110.29 106.192 L1054.07 106.192 L1054.07 106.192  Z" fill="#4682b4" fill-rule="evenodd" fill-opacity="0.6"/>
<polyline clip-path="url(#clip742)" style="stroke:#000000; stroke-linecap:round; stroke-linejoin:round; stroke-width:4; stroke-opacity:1; fill:none" points="1054.07,106.192 1054.07,1423.18 1110.29,1423.18 1110.29,106.192 1054.07,106.192 "/>
<path clip-path="url(#clip742)" d="M1110.29 285.781 L1110.29 1423.18 L1166.5 1423.18 L1166.5 285.781 L1110.29 285.781 L1110.29 285.781  Z" fill="#4682b4" fill-rule="evenodd" fill-opacity="0.6"/>
<polyline clip-path="url(#clip742)" style="stroke:#000000; stroke-linecap:round; stroke-linejoin:round; stroke-width:4; stroke-opacity:1; fill:none" points="1110.29,285.781 1110.29,1423.18 1166.5,1423.18 1166.5,285.781 1110.29,285.781 "/>
<path clip-path="url(#clip742)" d="M1166.5 525.234 L1166.5 1423.18 L1222.72 1423.18 L1222.72 525.234 L1166.5 525.234 L1166.5 525.234  Z" fill="#4682b4" fill-rule="evenodd" fill-opacity="0.6"/>
<polyline clip-path="url(#clip742)" style="stroke:#000000; stroke-linecap:round; stroke-linejoin:round; stroke-width:4; stroke-opacity:1; fill:none" points="1166.5,525.234 1166.5,1423.18 1222.72,1423.18 1222.72,525.234 1166.5,525.234 "/>
<path clip-path="url(#clip742)" d="M1222.72 375.576 L1222.72 1423.18 L1278.94 1423.18 L1278.94 375.576 L1222.72 375.576 L1222.72 375.576  Z" fill="#4682b4" fill-rule="evenodd" fill-opacity="0.6"/>
<polyline clip-path="url(#clip742)" style="stroke:#000000; stroke-linecap:round; stroke-linejoin:round; stroke-width:4; stroke-opacity:1; fill:none" points="1222.72,375.576 1222.72,1423.18 1278.94,1423.18 1278.94,375.576 1222.72,375.576 "/>
<path clip-path="url(#clip742)" d="M1278.94 1034.07 L1278.94 1423.18 L1335.16 1423.18 L1335.16 1034.07 L1278.94 1034.07 L1278.94 1034.07  Z" fill="#4682b4" fill-rule="evenodd" fill-opacity="0.6"/>
<polyline clip-path="url(#clip742)" style="stroke:#000000; stroke-linecap:round; stroke-linejoin:round; stroke-width:4; stroke-opacity:1; fill:none" points="1278.94,1034.07 1278.94,1423.18 1335.16,1423.18 1335.16,1034.07 1278.94,1034.07 "/>
<path clip-path="url(#clip742)" d="M1335.16 884.412 L1335.16 1423.18 L1391.37 1423.18 L1391.37 884.412 L1335.16 884.412 L1335.16 884.412  Z" fill="#4682b4" fill-rule="evenodd" fill-opacity="0.6"/>
<polyline clip-path="url(#clip742)" style="stroke:#000000; stroke-linecap:round; stroke-linejoin:round; stroke-width:4; stroke-opacity:1; fill:none" points="1335.16,884.412 1335.16,1423.18 1391.37,1423.18 1391.37,884.412 1335.16,884.412 "/>
<path clip-path="url(#clip742)" d="M1391.37 1123.86 L1391.37 1423.18 L1447.59 1423.18 L1447.59 1123.86 L1391.37 1123.86 L1391.37 1123.86  Z" fill="#4682b4" fill-rule="evenodd" fill-opacity="0.6"/>
<polyline clip-path="url(#clip742)" style="stroke:#000000; stroke-linecap:round; stroke-linejoin:round; stroke-width:4; stroke-opacity:1; fill:none" points="1391.37,1123.86 1391.37,1423.18 1447.59,1423.18 1447.59,1123.86 1391.37,1123.86 "/>
<path clip-path="url(#clip742)" d="M1447.59 1093.93 L1447.59 1423.18 L1503.81 1423.18 L1503.81 1093.93 L1447.59 1093.93 L1447.59 1093.93  Z" fill="#4682b4" fill-rule="evenodd" fill-opacity="0.6"/>
<polyline clip-path="url(#clip742)" style="stroke:#000000; stroke-linecap:round; stroke-linejoin:round; stroke-width:4; stroke-opacity:1; fill:none" points="1447.59,1093.93 1447.59,1423.18 1503.81,1423.18 1503.81,1093.93 1447.59,1093.93 "/>
<path clip-path="url(#clip742)" d="M1503.81 1303.45 L1503.81 1423.18 L1560.02 1423.18 L1560.02 1303.45 L1503.81 1303.45 L1503.81 1303.45  Z" fill="#4682b4" fill-rule="evenodd" fill-opacity="0.6"/>
<polyline clip-path="url(#clip742)" style="stroke:#000000; stroke-linecap:round; stroke-linejoin:round; stroke-width:4; stroke-opacity:1; fill:none" points="1503.81,1303.45 1503.81,1423.18 1560.02,1423.18 1560.02,1303.45 1503.81,1303.45 "/>
<path clip-path="url(#clip742)" d="M1560.02 1183.73 L1560.02 1423.18 L1616.24 1423.18 L1616.24 1183.73 L1560.02 1183.73 L1560.02 1183.73  Z" fill="#4682b4" fill-rule="evenodd" fill-opacity="0.6"/>
<polyline clip-path="url(#clip742)" style="stroke:#000000; stroke-linecap:round; stroke-linejoin:round; stroke-width:4; stroke-opacity:1; fill:none" points="1560.02,1183.73 1560.02,1423.18 1616.24,1423.18 1616.24,1183.73 1560.02,1183.73 "/>
<path clip-path="url(#clip742)" d="M1616.24 1333.39 L1616.24 1423.18 L1672.46 1423.18 L1672.46 1333.39 L1616.24 1333.39 L1616.24 1333.39  Z" fill="#4682b4" fill-rule="evenodd" fill-opacity="0.6"/>
<polyline clip-path="url(#clip742)" style="stroke:#000000; stroke-linecap:round; stroke-linejoin:round; stroke-width:4; stroke-opacity:1; fill:none" points="1616.24,1333.39 1616.24,1423.18 1672.46,1423.18 1672.46,1333.39 1616.24,1333.39 "/>
<path clip-path="url(#clip742)" d="M1672.46 1363.32 L1672.46 1423.18 L1728.68 1423.18 L1728.68 1363.32 L1672.46 1363.32 L1672.46 1363.32  Z" fill="#4682b4" fill-rule="evenodd" fill-opacity="0.6"/>
<polyline clip-path="url(#clip742)" style="stroke:#000000; stroke-linecap:round; stroke-linejoin:round; stroke-width:4; stroke-opacity:1; fill:none" points="1672.46,1363.32 1672.46,1423.18 1728.68,1423.18 1728.68,1363.32 1672.46,1363.32 "/>
<path clip-path="url(#clip742)" d="M1728.68 1363.32 L1728.68 1423.18 L1784.89 1423.18 L1784.89 1363.32 L1728.68 1363.32 L1728.68 1363.32  Z" fill="#4682b4" fill-rule="evenodd" fill-opacity="0.6"/>
<polyline clip-path="url(#clip742)" style="stroke:#000000; stroke-linecap:round; stroke-linejoin:round; stroke-width:4; stroke-opacity:1; fill:none" points="1728.68,1363.32 1728.68,1423.18 1784.89,1423.18 1784.89,1363.32 1728.68,1363.32 "/>
<path clip-path="url(#clip742)" d="M1784.89 1273.52 L1784.89 1423.18 L1841.11 1423.18 L1841.11 1273.52 L1784.89 1273.52 L1784.89 1273.52  Z" fill="#4682b4" fill-rule="evenodd" fill-opacity="0.6"/>
<polyline clip-path="url(#clip742)" style="stroke:#000000; stroke-linecap:round; stroke-linejoin:round; stroke-width:4; stroke-opacity:1; fill:none" points="1784.89,1273.52 1784.89,1423.18 1841.11,1423.18 1841.11,1273.52 1784.89,1273.52 "/>
<path clip-path="url(#clip742)" d="M1841.11 1363.32 L1841.11 1423.18 L1897.33 1423.18 L1897.33 1363.32 L1841.11 1363.32 L1841.11 1363.32  Z" fill="#4682b4" fill-rule="evenodd" fill-opacity="0.6"/>
<polyline clip-path="url(#clip742)" style="stroke:#000000; stroke-linecap:round; stroke-linejoin:round; stroke-width:4; stroke-opacity:1; fill:none" points="1841.11,1363.32 1841.11,1423.18 1897.33,1423.18 1897.33,1363.32 1841.11,1363.32 "/>
<path clip-path="url(#clip742)" d="M1897.33 1393.25 L1897.33 1423.18 L1953.55 1423.18 L1953.55 1393.25 L1897.33 1393.25 L1897.33 1393.25  Z" fill="#4682b4" fill-rule="evenodd" fill-opacity="0.6"/>
<polyline clip-path="url(#clip742)" style="stroke:#000000; stroke-linecap:round; stroke-linejoin:round; stroke-width:4; stroke-opacity:1; fill:none" points="1897.33,1393.25 1897.33,1423.18 1953.55,1423.18 1953.55,1393.25 1897.33,1393.25 "/>
<path clip-path="url(#clip742)" d="M1953.55 1393.25 L1953.55 1423.18 L2009.76 1423.18 L2009.76 1393.25 L1953.55 1393.25 L1953.55 1393.25  Z" fill="#4682b4" fill-rule="evenodd" fill-opacity="0.6"/>
<polyline clip-path="url(#clip742)" style="stroke:#000000; stroke-linecap:round; stroke-linejoin:round; stroke-width:4; stroke-opacity:1; fill:none" points="1953.55,1393.25 1953.55,1423.18 2009.76,1423.18 2009.76,1393.25 1953.55,1393.25 "/>
<path clip-path="url(#clip742)" d="M2009.76 1333.39 L2009.76 1423.18 L2065.98 1423.18 L2065.98 1333.39 L2009.76 1333.39 L2009.76 1333.39  Z" fill="#4682b4" fill-rule="evenodd" fill-opacity="0.6"/>
<polyline clip-path="url(#clip742)" style="stroke:#000000; stroke-linecap:round; stroke-linejoin:round; stroke-width:4; stroke-opacity:1; fill:none" points="2009.76,1333.39 2009.76,1423.18 2065.98,1423.18 2065.98,1333.39 2009.76,1333.39 "/>
<path clip-path="url(#clip742)" d="M2065.98 1423.18 L2065.98 1423.18 L2122.2 1423.18 L2122.2 1423.18 L2065.98 1423.18 L2065.98 1423.18  Z" fill="#4682b4" fill-rule="evenodd" fill-opacity="0.6"/>
<polyline clip-path="url(#clip742)" style="stroke:#000000; stroke-linecap:round; stroke-linejoin:round; stroke-width:4; stroke-opacity:1; fill:none" points="2065.98,1423.18 2065.98,1423.18 2122.2,1423.18 2065.98,1423.18 "/>
<path clip-path="url(#clip742)" d="M2122.2 1393.25 L2122.2 1423.18 L2178.41 1423.18 L2178.41 1393.25 L2122.2 1393.25 L2122.2 1393.25  Z" fill="#4682b4" fill-rule="evenodd" fill-opacity="0.6"/>
<polyline clip-path="url(#clip742)" style="stroke:#000000; stroke-linecap:round; stroke-linejoin:round; stroke-width:4; stroke-opacity:1; fill:none" points="2122.2,1393.25 2122.2,1423.18 2178.41,1423.18 2178.41,1393.25 2122.2,1393.25 "/>
<path clip-path="url(#clip742)" d="M2178.41 1393.25 L2178.41 1423.18 L2234.63 1423.18 L2234.63 1393.25 L2178.41 1393.25 L2178.41 1393.25  Z" fill="#4682b4" fill-rule="evenodd" fill-opacity="0.6"/>
<polyline clip-path="url(#clip742)" style="stroke:#000000; stroke-linecap:round; stroke-linejoin:round; stroke-width:4; stroke-opacity:1; fill:none" points="2178.41,1393.25 2178.41,1423.18 2234.63,1423.18 2234.63,1393.25 2178.41,1393.25 "/>
<circle clip-path="url(#clip742)" style="fill:#4682b4; stroke:none; fill-opacity:0" cx="351.353" cy="1363.32" r="2"/>
<circle clip-path="url(#clip742)" style="fill:#4682b4; stroke:none; fill-opacity:0" cx="407.571" cy="1363.32" r="2"/>
<circle clip-path="url(#clip742)" style="fill:#4682b4; stroke:none; fill-opacity:0" cx="463.788" cy="1393.25" r="2"/>
<circle clip-path="url(#clip742)" style="fill:#4682b4; stroke:none; fill-opacity:0" cx="520.005" cy="1303.45" r="2"/>
<circle clip-path="url(#clip742)" style="fill:#4682b4; stroke:none; fill-opacity:0" cx="576.222" cy="1213.66" r="2"/>
<circle clip-path="url(#clip742)" style="fill:#4682b4; stroke:none; fill-opacity:0" cx="632.44" cy="794.618" r="2"/>
<circle clip-path="url(#clip742)" style="fill:#4682b4; stroke:none; fill-opacity:0" cx="688.657" cy="764.686" r="2"/>
<circle clip-path="url(#clip742)" style="fill:#4682b4; stroke:none; fill-opacity:0" cx="744.874" cy="615.028" r="2"/>
<circle clip-path="url(#clip742)" style="fill:#4682b4; stroke:none; fill-opacity:0" cx="801.092" cy="525.234" r="2"/>
<circle clip-path="url(#clip742)" style="fill:#4682b4; stroke:none; fill-opacity:0" cx="857.309" cy="495.302" r="2"/>
<circle clip-path="url(#clip742)" style="fill:#4682b4; stroke:none; fill-opacity:0" cx="913.526" cy="225.918" r="2"/>
<circle clip-path="url(#clip742)" style="fill:#4682b4; stroke:none; fill-opacity:0" cx="969.743" cy="255.85" r="2"/>
<circle clip-path="url(#clip742)" style="fill:#4682b4; stroke:none; fill-opacity:0" cx="1025.96" cy="166.055" r="2"/>
<circle clip-path="url(#clip742)" style="fill:#4682b4; stroke:none; fill-opacity:0" cx="1082.18" cy="106.192" r="2"/>
<circle clip-path="url(#clip742)" style="fill:#4682b4; stroke:none; fill-opacity:0" cx="1138.4" cy="285.781" r="2"/>
<circle clip-path="url(#clip742)" style="fill:#4682b4; stroke:none; fill-opacity:0" cx="1194.61" cy="525.234" r="2"/>
<circle clip-path="url(#clip742)" style="fill:#4682b4; stroke:none; fill-opacity:0" cx="1250.83" cy="375.576" r="2"/>
<circle clip-path="url(#clip742)" style="fill:#4682b4; stroke:none; fill-opacity:0" cx="1307.05" cy="1034.07" r="2"/>
<circle clip-path="url(#clip742)" style="fill:#4682b4; stroke:none; fill-opacity:0" cx="1363.26" cy="884.412" r="2"/>
<circle clip-path="url(#clip742)" style="fill:#4682b4; stroke:none; fill-opacity:0" cx="1419.48" cy="1123.86" r="2"/>
<circle clip-path="url(#clip742)" style="fill:#4682b4; stroke:none; fill-opacity:0" cx="1475.7" cy="1093.93" r="2"/>
<circle clip-path="url(#clip742)" style="fill:#4682b4; stroke:none; fill-opacity:0" cx="1531.92" cy="1303.45" r="2"/>
<circle clip-path="url(#clip742)" style="fill:#4682b4; stroke:none; fill-opacity:0" cx="1588.13" cy="1183.73" r="2"/>
<circle clip-path="url(#clip742)" style="fill:#4682b4; stroke:none; fill-opacity:0" cx="1644.35" cy="1333.39" r="2"/>
<circle clip-path="url(#clip742)" style="fill:#4682b4; stroke:none; fill-opacity:0" cx="1700.57" cy="1363.32" r="2"/>
<circle clip-path="url(#clip742)" style="fill:#4682b4; stroke:none; fill-opacity:0" cx="1756.79" cy="1363.32" r="2"/>
<circle clip-path="url(#clip742)" style="fill:#4682b4; stroke:none; fill-opacity:0" cx="1813" cy="1273.52" r="2"/>
<circle clip-path="url(#clip742)" style="fill:#4682b4; stroke:none; fill-opacity:0" cx="1869.22" cy="1363.32" r="2"/>
<circle clip-path="url(#clip742)" style="fill:#4682b4; stroke:none; fill-opacity:0" cx="1925.44" cy="1393.25" r="2"/>
<circle clip-path="url(#clip742)" style="fill:#4682b4; stroke:none; fill-opacity:0" cx="1981.65" cy="1393.25" r="2"/>
<circle clip-path="url(#clip742)" style="fill:#4682b4; stroke:none; fill-opacity:0" cx="2037.87" cy="1333.39" r="2"/>
<circle clip-path="url(#clip742)" style="fill:#4682b4; stroke:none; fill-opacity:0" cx="2094.09" cy="1423.18" r="2"/>
<circle clip-path="url(#clip742)" style="fill:#4682b4; stroke:none; fill-opacity:0" cx="2150.31" cy="1393.25" r="2"/>
<circle clip-path="url(#clip742)" style="fill:#4682b4; stroke:none; fill-opacity:0" cx="2206.52" cy="1393.25" r="2"/>
<polyline clip-path="url(#clip742)" style="stroke:#ff0000; stroke-linecap:round; stroke-linejoin:round; stroke-width:8; stroke-opacity:1; fill:none" points="1290.13,2740.17 1290.13,-1210.8 "/>
<polyline clip-path="url(#clip742)" style="stroke:#0000ff; stroke-linecap:round; stroke-linejoin:round; stroke-width:8; stroke-opacity:1; fill:none" stroke-dasharray="32, 20" points="1026.82,2740.17 1026.82,-1210.8 "/>
<path clip-path="url(#clip740)" d="M1632.33 357.452 L2281.17 357.452 L2281.17 150.092 L1632.33 150.092  Z" fill="#ffffff" fill-rule="evenodd" fill-opacity="1"/>
<polyline clip-path="url(#clip740)" style="stroke:#000000; stroke-linecap:round; stroke-linejoin:round; stroke-width:4; stroke-opacity:1; fill:none" points="1632.33,357.452 2281.17,357.452 2281.17,150.092 1632.33,150.092 1632.33,357.452 "/>
<path clip-path="url(#clip740)" d="M1656.2 222.668 L1799.37 222.668 L1799.37 181.196 L1656.2 181.196 L1656.2 222.668  Z" fill="#4682b4" fill-rule="evenodd" fill-opacity="0.6"/>
<polyline clip-path="url(#clip740)" style="stroke:#000000; stroke-linecap:round; stroke-linejoin:round; stroke-width:4; stroke-opacity:1; fill:none" points="1656.2,222.668 1799.37,222.668 1799.37,181.196 1656.2,181.196 1656.2,222.668 "/>
<path clip-path="url(#clip740)" d="M1845.48 185.786 L1845.48 190.346 Q1842.82 189.073 1840.46 188.448 Q1838.09 187.823 1835.9 187.823 Q1832.08 187.823 1829.99 189.304 Q1827.93 190.786 1827.93 193.517 Q1827.93 195.809 1829.3 196.99 Q1830.69 198.147 1834.53 198.865 L1837.35 199.443 Q1842.59 200.439 1845.06 202.962 Q1847.56 205.462 1847.56 209.675 Q1847.56 214.698 1844.18 217.29 Q1840.83 219.883 1834.32 219.883 Q1831.87 219.883 1829.09 219.327 Q1826.34 218.772 1823.37 217.684 L1823.37 212.869 Q1826.22 214.466 1828.95 215.277 Q1831.68 216.087 1834.32 216.087 Q1838.33 216.087 1840.5 214.513 Q1842.68 212.939 1842.68 210.022 Q1842.68 207.476 1841.1 206.04 Q1839.55 204.605 1835.99 203.888 L1833.14 203.332 Q1827.91 202.291 1825.57 200.068 Q1823.23 197.846 1823.23 193.888 Q1823.23 189.304 1826.45 186.666 Q1829.69 184.027 1835.36 184.027 Q1837.79 184.027 1840.32 184.467 Q1842.84 184.906 1845.48 185.786 Z" fill="#000000" fill-rule="nonzero" fill-opacity="1" /><path clip-path="url(#clip740)" d="M1854.67 193.286 L1858.93 193.286 L1858.93 219.212 L1854.67 219.212 L1854.67 193.286 M1854.67 183.193 L1858.93 183.193 L1858.93 188.587 L1854.67 188.587 L1854.67 183.193 Z" fill="#000000" fill-rule="nonzero" fill-opacity="1" /><path clip-path="url(#clip740)" d="M1888.03 198.263 Q1889.62 195.392 1891.84 194.027 Q1894.07 192.661 1897.08 192.661 Q1901.13 192.661 1903.33 195.508 Q1905.52 198.332 1905.52 203.564 L1905.52 219.212 L1901.24 219.212 L1901.24 203.703 Q1901.24 199.976 1899.92 198.17 Q1898.6 196.365 1895.9 196.365 Q1892.59 196.365 1890.66 198.564 Q1888.74 200.763 1888.74 204.559 L1888.74 219.212 L1884.46 219.212 L1884.46 203.703 Q1884.46 199.953 1883.14 198.17 Q1881.82 196.365 1879.07 196.365 Q1875.8 196.365 1873.88 198.587 Q1871.96 200.786 1871.96 204.559 L1871.96 219.212 L1867.68 219.212 L1867.68 193.286 L1871.96 193.286 L1871.96 197.314 Q1873.42 194.929 1875.46 193.795 Q1877.49 192.661 1880.29 192.661 Q1883.12 192.661 1885.09 194.096 Q1887.08 195.531 1888.03 198.263 Z" fill="#000000" fill-rule="nonzero" fill-opacity="1" /><path clip-path="url(#clip740)" d="M1913.58 208.98 L1913.58 193.286 L1917.84 193.286 L1917.84 208.818 Q1917.84 212.499 1919.27 214.351 Q1920.71 216.179 1923.58 216.179 Q1927.03 216.179 1929.02 213.98 Q1931.03 211.781 1931.03 207.985 L1931.03 193.286 L1935.29 193.286 L1935.29 219.212 L1931.03 219.212 L1931.03 215.23 Q1929.48 217.591 1927.42 218.749 Q1925.39 219.883 1922.68 219.883 Q1918.21 219.883 1915.9 217.105 Q1913.58 214.327 1913.58 208.98 M1924.3 192.661 L1924.3 192.661 Z" fill="#000000" fill-rule="nonzero" fill-opacity="1" /><path clip-path="url(#clip740)" d="M1944.07 183.193 L1948.33 183.193 L1948.33 219.212 L1944.07 219.212 L1944.07 183.193 Z" fill="#000000" fill-rule="nonzero" fill-opacity="1" /><path clip-path="url(#clip740)" d="M1969.02 206.179 Q1963.86 206.179 1961.87 207.36 Q1959.88 208.54 1959.88 211.388 Q1959.88 213.656 1961.36 214.999 Q1962.86 216.318 1965.43 216.318 Q1968.97 216.318 1971.1 213.818 Q1973.26 211.295 1973.26 207.128 L1973.26 206.179 L1969.02 206.179 M1977.52 204.42 L1977.52 219.212 L1973.26 219.212 L1973.26 215.277 Q1971.8 217.638 1969.62 218.772 Q1967.45 219.883 1964.3 219.883 Q1960.32 219.883 1957.96 217.661 Q1955.62 215.415 1955.62 211.665 Q1955.62 207.29 1958.53 205.068 Q1961.47 202.846 1967.28 202.846 L1973.26 202.846 L1973.26 202.429 Q1973.26 199.49 1971.31 197.892 Q1969.39 196.272 1965.89 196.272 Q1963.67 196.272 1961.57 196.804 Q1959.46 197.337 1957.52 198.402 L1957.52 194.466 Q1959.85 193.564 1962.05 193.124 Q1964.25 192.661 1966.33 192.661 Q1971.96 192.661 1974.74 195.578 Q1977.52 198.494 1977.52 204.42 Z" fill="#000000" fill-rule="nonzero" fill-opacity="1" /><path clip-path="url(#clip740)" d="M1990.5 185.925 L1990.5 193.286 L1999.27 193.286 L1999.27 196.596 L1990.5 196.596 L1990.5 210.67 Q1990.5 213.841 1991.36 214.744 Q1992.24 215.647 1994.9 215.647 L1999.27 215.647 L1999.27 219.212 L1994.9 219.212 Q1989.97 219.212 1988.09 217.383 Q1986.22 215.531 1986.22 210.67 L1986.22 196.596 L1983.09 196.596 L1983.09 193.286 L1986.22 193.286 L1986.22 185.925 L1990.5 185.925 Z" fill="#000000" fill-rule="nonzero" fill-opacity="1" /><path clip-path="url(#clip740)" d="M2027.05 205.184 L2027.05 207.267 L2007.47 207.267 Q2007.75 211.665 2010.11 213.98 Q2012.49 216.272 2016.73 216.272 Q2019.18 216.272 2021.47 215.67 Q2023.79 215.068 2026.06 213.865 L2026.06 217.892 Q2023.77 218.864 2021.36 219.374 Q2018.95 219.883 2016.47 219.883 Q2010.27 219.883 2006.64 216.272 Q2003.02 212.661 2003.02 206.503 Q2003.02 200.138 2006.45 196.411 Q2009.9 192.661 2015.73 192.661 Q2020.96 192.661 2024 196.041 Q2027.05 199.397 2027.05 205.184 M2022.79 203.934 Q2022.75 200.439 2020.83 198.355 Q2018.93 196.272 2015.78 196.272 Q2012.21 196.272 2010.06 198.286 Q2007.93 200.3 2007.61 203.957 L2022.79 203.934 Z" fill="#000000" fill-rule="nonzero" fill-opacity="1" /><path clip-path="url(#clip740)" d="M2051.1 197.221 L2051.1 183.193 L2055.36 183.193 L2055.36 219.212 L2051.1 219.212 L2051.1 215.323 Q2049.76 217.638 2047.7 218.772 Q2045.66 219.883 2042.79 219.883 Q2038.09 219.883 2035.13 216.133 Q2032.19 212.383 2032.19 206.272 Q2032.19 200.161 2035.13 196.411 Q2038.09 192.661 2042.79 192.661 Q2045.66 192.661 2047.7 193.795 Q2049.76 194.906 2051.1 197.221 M2036.59 206.272 Q2036.59 210.971 2038.51 213.656 Q2040.45 216.318 2043.83 216.318 Q2047.21 216.318 2049.16 213.656 Q2051.1 210.971 2051.1 206.272 Q2051.1 201.573 2049.16 198.911 Q2047.21 196.226 2043.83 196.226 Q2040.45 196.226 2038.51 198.911 Q2036.59 201.573 2036.59 206.272 Z" fill="#000000" fill-rule="nonzero" fill-opacity="1" /><polyline clip-path="url(#clip740)" style="stroke:#ff0000; stroke-linecap:round; stroke-linejoin:round; stroke-width:8; stroke-opacity:1; fill:none" points="1656.2,253.772 1799.37,253.772 "/>
<path clip-path="url(#clip740)" d="M1839.25 239.663 Q1834.16 239.663 1831.15 243.459 Q1828.16 247.256 1828.16 253.806 Q1828.16 260.334 1831.15 264.13 Q1834.16 267.927 1839.25 267.927 Q1844.34 267.927 1847.31 264.13 Q1850.29 260.334 1850.29 253.806 Q1850.29 247.256 1847.31 243.459 Q1844.34 239.663 1839.25 239.663 M1839.25 235.867 Q1846.52 235.867 1850.87 240.751 Q1855.22 245.612 1855.22 253.806 Q1855.22 261.978 1850.87 266.862 Q1846.52 271.723 1839.25 271.723 Q1831.96 271.723 1827.59 266.862 Q1823.23 262.001 1823.23 253.806 Q1823.23 245.612 1827.59 240.751 Q1831.96 235.867 1839.25 235.867 Z" fill="#000000" fill-rule="nonzero" fill-opacity="1" /><path clip-path="url(#clip740)" d="M1880.96 258.112 Q1880.96 253.413 1879.02 250.751 Q1877.1 248.066 1873.72 248.066 Q1870.34 248.066 1868.4 250.751 Q1866.47 253.413 1866.47 258.112 Q1866.47 262.811 1868.4 265.496 Q1870.34 268.158 1873.72 268.158 Q1877.1 268.158 1879.02 265.496 Q1880.96 262.811 1880.96 258.112 M1866.47 249.061 Q1867.82 246.746 1869.85 245.635 Q1871.91 244.501 1874.76 244.501 Q1879.48 244.501 1882.42 248.251 Q1885.39 252.001 1885.39 258.112 Q1885.39 264.223 1882.42 267.973 Q1879.48 271.723 1874.76 271.723 Q1871.91 271.723 1869.85 270.612 Q1867.82 269.478 1866.47 267.163 L1866.47 271.052 L1862.19 271.052 L1862.19 235.033 L1866.47 235.033 L1866.47 249.061 Z" fill="#000000" fill-rule="nonzero" fill-opacity="1" /><path clip-path="url(#clip740)" d="M1908.97 245.89 L1908.97 249.918 Q1907.17 248.992 1905.22 248.529 Q1903.28 248.066 1901.2 248.066 Q1898.02 248.066 1896.43 249.038 Q1894.85 250.01 1894.85 251.955 Q1894.85 253.436 1895.99 254.293 Q1897.12 255.126 1900.55 255.89 L1902.01 256.214 Q1906.54 257.186 1908.44 258.968 Q1910.36 260.728 1910.36 263.899 Q1910.36 267.51 1907.49 269.617 Q1904.65 271.723 1899.65 271.723 Q1897.56 271.723 1895.29 271.306 Q1893.05 270.913 1890.55 270.103 L1890.55 265.705 Q1892.91 266.931 1895.2 267.556 Q1897.49 268.158 1899.74 268.158 Q1902.75 268.158 1904.37 267.14 Q1905.99 266.098 1905.99 264.223 Q1905.99 262.487 1904.81 261.561 Q1903.65 260.635 1899.69 259.779 L1898.21 259.431 Q1894.25 258.598 1892.49 256.885 Q1890.73 255.149 1890.73 252.14 Q1890.73 248.482 1893.33 246.492 Q1895.92 244.501 1900.69 244.501 Q1903.05 244.501 1905.13 244.848 Q1907.21 245.195 1908.97 245.89 Z" fill="#000000" fill-rule="nonzero" fill-opacity="1" /><path clip-path="url(#clip740)" d="M1939.32 257.024 L1939.32 259.107 L1919.74 259.107 Q1920.02 263.505 1922.38 265.82 Q1924.76 268.112 1929 268.112 Q1931.45 268.112 1933.74 267.51 Q1936.06 266.908 1938.33 265.705 L1938.33 269.732 Q1936.03 270.704 1933.63 271.214 Q1931.22 271.723 1928.74 271.723 Q1922.54 271.723 1918.9 268.112 Q1915.29 264.501 1915.29 258.343 Q1915.29 251.978 1918.72 248.251 Q1922.17 244.501 1928 244.501 Q1933.23 244.501 1936.27 247.881 Q1939.32 251.237 1939.32 257.024 M1935.06 255.774 Q1935.02 252.279 1933.09 250.195 Q1931.2 248.112 1928.05 248.112 Q1924.48 248.112 1922.33 250.126 Q1920.2 252.14 1919.88 255.797 L1935.06 255.774 Z" fill="#000000" fill-rule="nonzero" fill-opacity="1" /><path clip-path="url(#clip740)" d="M1961.33 249.107 Q1960.62 248.691 1959.76 248.506 Q1958.93 248.297 1957.91 248.297 Q1954.3 248.297 1952.35 250.658 Q1950.43 252.996 1950.43 257.394 L1950.43 271.052 L1946.15 271.052 L1946.15 245.126 L1950.43 245.126 L1950.43 249.154 Q1951.77 246.793 1953.93 245.658 Q1956.08 244.501 1959.16 244.501 Q1959.6 244.501 1960.13 244.57 Q1960.66 244.617 1961.31 244.732 L1961.33 249.107 Z" fill="#000000" fill-rule="nonzero" fill-opacity="1" /><path clip-path="url(#clip740)" d="M1962.75 245.126 L1967.26 245.126 L1975.36 266.885 L1983.46 245.126 L1987.98 245.126 L1978.26 271.052 L1972.47 271.052 L1962.75 245.126 Z" fill="#000000" fill-rule="nonzero" fill-opacity="1" /><path clip-path="url(#clip740)" d="M2016.03 257.024 L2016.03 259.107 L1996.45 259.107 Q1996.73 263.505 1999.09 265.82 Q2001.47 268.112 2005.71 268.112 Q2008.16 268.112 2010.45 267.51 Q2012.77 266.908 2015.04 265.705 L2015.04 269.732 Q2012.75 270.704 2010.34 271.214 Q2007.93 271.723 2005.45 271.723 Q1999.25 271.723 1995.62 268.112 Q1992.01 264.501 1992.01 258.343 Q1992.01 251.978 1995.43 248.251 Q1998.88 244.501 2004.71 244.501 Q2009.95 244.501 2012.98 247.881 Q2016.03 251.237 2016.03 257.024 M2011.77 255.774 Q2011.73 252.279 2009.81 250.195 Q2007.91 248.112 2004.76 248.112 Q2001.2 248.112 1999.04 250.126 Q1996.91 252.14 1996.59 255.797 L2011.77 255.774 Z" fill="#000000" fill-rule="nonzero" fill-opacity="1" /><path clip-path="url(#clip740)" d="M2040.08 249.061 L2040.08 235.033 L2044.34 235.033 L2044.34 271.052 L2040.08 271.052 L2040.08 267.163 Q2038.74 269.478 2036.68 270.612 Q2034.64 271.723 2031.77 271.723 Q2027.08 271.723 2024.11 267.973 Q2021.17 264.223 2021.17 258.112 Q2021.17 252.001 2024.11 248.251 Q2027.08 244.501 2031.77 244.501 Q2034.64 244.501 2036.68 245.635 Q2038.74 246.746 2040.08 249.061 M2025.57 258.112 Q2025.57 262.811 2027.49 265.496 Q2029.44 268.158 2032.82 268.158 Q2036.2 268.158 2038.14 265.496 Q2040.08 262.811 2040.08 258.112 Q2040.08 253.413 2038.14 250.751 Q2036.2 248.066 2032.82 248.066 Q2029.44 248.066 2027.49 250.751 Q2025.57 253.413 2025.57 258.112 Z" fill="#000000" fill-rule="nonzero" fill-opacity="1" /><path clip-path="url(#clip740)" d="M2072.4 237.765 L2072.4 245.126 L2081.17 245.126 L2081.17 248.436 L2072.4 248.436 L2072.4 262.51 Q2072.4 265.681 2073.26 266.584 Q2074.14 267.487 2076.8 267.487 L2081.17 267.487 L2081.17 271.052 L2076.8 271.052 Q2071.87 271.052 2069.99 269.223 Q2068.12 267.371 2068.12 262.51 L2068.12 248.436 L2064.99 248.436 L2064.99 245.126 L2068.12 245.126 L2068.12 237.765 L2072.4 237.765 Z" fill="#000000" fill-rule="nonzero" fill-opacity="1" /><path clip-path="url(#clip740)" d="M2108.95 257.024 L2108.95 259.107 L2089.37 259.107 Q2089.64 263.505 2092.01 265.82 Q2094.39 268.112 2098.63 268.112 Q2101.08 268.112 2103.37 267.51 Q2105.69 266.908 2107.95 265.705 L2107.95 269.732 Q2105.66 270.704 2103.26 271.214 Q2100.85 271.723 2098.37 271.723 Q2092.17 271.723 2088.53 268.112 Q2084.92 264.501 2084.92 258.343 Q2084.92 251.978 2088.35 248.251 Q2091.8 244.501 2097.63 244.501 Q2102.86 244.501 2105.89 247.881 Q2108.95 251.237 2108.95 257.024 M2104.69 255.774 Q2104.64 252.279 2102.72 250.195 Q2100.82 248.112 2097.68 248.112 Q2094.11 248.112 2091.96 250.126 Q2089.83 252.14 2089.51 255.797 L2104.69 255.774 Z" fill="#000000" fill-rule="nonzero" fill-opacity="1" /><path clip-path="url(#clip740)" d="M2130.96 249.107 Q2130.25 248.691 2129.39 248.506 Q2128.56 248.297 2127.54 248.297 Q2123.93 248.297 2121.98 250.658 Q2120.06 252.996 2120.06 257.394 L2120.06 271.052 L2115.78 271.052 L2115.78 245.126 L2120.06 245.126 L2120.06 249.154 Q2121.4 246.793 2123.56 245.658 Q2125.71 244.501 2128.79 244.501 Q2129.23 244.501 2129.76 244.57 Q2130.29 244.617 2130.94 244.732 L2130.96 249.107 Z" fill="#000000" fill-rule="nonzero" fill-opacity="1" /><path clip-path="url(#clip740)" d="M2154.78 250.103 Q2156.38 247.232 2158.6 245.867 Q2160.82 244.501 2163.83 244.501 Q2167.88 244.501 2170.08 247.348 Q2172.28 250.172 2172.28 255.404 L2172.28 271.052 L2168 271.052 L2168 255.543 Q2168 251.816 2166.68 250.01 Q2165.36 248.205 2162.65 248.205 Q2159.34 248.205 2157.42 250.404 Q2155.5 252.603 2155.5 256.399 L2155.5 271.052 L2151.22 271.052 L2151.22 255.543 Q2151.22 251.793 2149.9 250.01 Q2148.58 248.205 2145.82 248.205 Q2142.56 248.205 2140.64 250.427 Q2138.72 252.626 2138.72 256.399 L2138.72 271.052 L2134.44 271.052 L2134.44 245.126 L2138.72 245.126 L2138.72 249.154 Q2140.18 246.769 2142.21 245.635 Q2144.25 244.501 2147.05 244.501 Q2149.88 244.501 2151.84 245.936 Q2153.83 247.371 2154.78 250.103 Z" fill="#000000" fill-rule="nonzero" fill-opacity="1" /><path clip-path="url(#clip740)" d="M2180.78 245.126 L2185.04 245.126 L2185.04 271.052 L2180.78 271.052 L2180.78 245.126 M2180.78 235.033 L2185.04 235.033 L2185.04 240.427 L2180.78 240.427 L2180.78 235.033 Z" fill="#000000" fill-rule="nonzero" fill-opacity="1" /><path clip-path="url(#clip740)" d="M2215.5 255.404 L2215.5 271.052 L2211.24 271.052 L2211.24 255.543 Q2211.24 251.862 2209.81 250.033 Q2208.37 248.205 2205.5 248.205 Q2202.05 248.205 2200.06 250.404 Q2198.07 252.603 2198.07 256.399 L2198.07 271.052 L2193.79 271.052 L2193.79 245.126 L2198.07 245.126 L2198.07 249.154 Q2199.6 246.816 2201.66 245.658 Q2203.74 244.501 2206.45 244.501 Q2210.92 244.501 2213.21 247.279 Q2215.5 250.033 2215.5 255.404 Z" fill="#000000" fill-rule="nonzero" fill-opacity="1" /><path clip-path="url(#clip740)" d="M2235.78 258.019 Q2230.62 258.019 2228.63 259.2 Q2226.63 260.38 2226.63 263.228 Q2226.63 265.496 2228.12 266.839 Q2229.62 268.158 2232.19 268.158 Q2235.73 268.158 2237.86 265.658 Q2240.01 263.135 2240.01 258.968 L2240.01 258.019 L2235.78 258.019 M2244.27 256.26 L2244.27 271.052 L2240.01 271.052 L2240.01 267.117 Q2238.56 269.478 2236.38 270.612 Q2234.2 271.723 2231.06 271.723 Q2227.07 271.723 2224.71 269.501 Q2222.38 267.255 2222.38 263.505 Q2222.38 259.13 2225.29 256.908 Q2228.23 254.686 2234.04 254.686 L2240.01 254.686 L2240.01 254.269 Q2240.01 251.33 2238.07 249.732 Q2236.15 248.112 2232.65 248.112 Q2230.43 248.112 2228.32 248.644 Q2226.22 249.177 2224.27 250.242 L2224.27 246.306 Q2226.61 245.404 2228.81 244.964 Q2231.01 244.501 2233.09 244.501 Q2238.72 244.501 2241.5 247.418 Q2244.27 250.334 2244.27 256.26 Z" fill="#000000" fill-rule="nonzero" fill-opacity="1" /><path clip-path="url(#clip740)" d="M2253.05 235.033 L2257.31 235.033 L2257.31 271.052 L2253.05 271.052 L2253.05 235.033 Z" fill="#000000" fill-rule="nonzero" fill-opacity="1" /><polyline clip-path="url(#clip740)" style="stroke:#0000ff; stroke-linecap:round; stroke-linejoin:round; stroke-width:8; stroke-opacity:1; fill:none" stroke-dasharray="32, 20" points="1656.2,305.612 1799.37,305.612 "/>
<path clip-path="url(#clip740)" d="M1845.48 289.466 L1845.48 294.026 Q1842.82 292.753 1840.46 292.128 Q1838.09 291.503 1835.9 291.503 Q1832.08 291.503 1829.99 292.984 Q1827.93 294.466 1827.93 297.197 Q1827.93 299.489 1829.3 300.67 Q1830.69 301.827 1834.53 302.545 L1837.35 303.123 Q1842.59 304.119 1845.06 306.642 Q1847.56 309.142 1847.56 313.355 Q1847.56 318.378 1844.18 320.97 Q1840.83 323.563 1834.32 323.563 Q1831.87 323.563 1829.09 323.007 Q1826.34 322.452 1823.37 321.364 L1823.37 316.549 Q1826.22 318.146 1828.95 318.957 Q1831.68 319.767 1834.32 319.767 Q1838.33 319.767 1840.5 318.193 Q1842.68 316.619 1842.68 313.702 Q1842.68 311.156 1841.1 309.72 Q1839.55 308.285 1835.99 307.568 L1833.14 307.012 Q1827.91 305.971 1825.57 303.748 Q1823.23 301.526 1823.23 297.568 Q1823.23 292.984 1826.45 290.346 Q1829.69 287.707 1835.36 287.707 Q1837.79 287.707 1840.32 288.147 Q1842.84 288.586 1845.48 289.466 Z" fill="#000000" fill-rule="nonzero" fill-opacity="1" /><path clip-path="url(#clip740)" d="M1854.67 296.966 L1858.93 296.966 L1858.93 322.892 L1854.67 322.892 L1854.67 296.966 M1854.67 286.873 L1858.93 286.873 L1858.93 292.267 L1854.67 292.267 L1854.67 286.873 Z" fill="#000000" fill-rule="nonzero" fill-opacity="1" /><path clip-path="url(#clip740)" d="M1888.03 301.943 Q1889.62 299.072 1891.84 297.707 Q1894.07 296.341 1897.08 296.341 Q1901.13 296.341 1903.33 299.188 Q1905.52 302.012 1905.52 307.244 L1905.52 322.892 L1901.24 322.892 L1901.24 307.383 Q1901.24 303.656 1899.92 301.85 Q1898.6 300.045 1895.9 300.045 Q1892.59 300.045 1890.66 302.244 Q1888.74 304.443 1888.74 308.239 L1888.74 322.892 L1884.46 322.892 L1884.46 307.383 Q1884.46 303.633 1883.14 301.85 Q1881.82 300.045 1879.07 300.045 Q1875.8 300.045 1873.88 302.267 Q1871.96 304.466 1871.96 308.239 L1871.96 322.892 L1867.68 322.892 L1867.68 296.966 L1871.96 296.966 L1871.96 300.994 Q1873.42 298.609 1875.46 297.475 Q1877.49 296.341 1880.29 296.341 Q1883.12 296.341 1885.09 297.776 Q1887.08 299.211 1888.03 301.943 Z" fill="#000000" fill-rule="nonzero" fill-opacity="1" /><path clip-path="url(#clip740)" d="M1913.58 312.66 L1913.58 296.966 L1917.84 296.966 L1917.84 312.498 Q1917.84 316.179 1919.27 318.031 Q1920.71 319.859 1923.58 319.859 Q1927.03 319.859 1929.02 317.66 Q1931.03 315.461 1931.03 311.665 L1931.03 296.966 L1935.29 296.966 L1935.29 322.892 L1931.03 322.892 L1931.03 318.91 Q1929.48 321.271 1927.42 322.429 Q1925.39 323.563 1922.68 323.563 Q1918.21 323.563 1915.9 320.785 Q1913.58 318.007 1913.58 312.66 M1924.3 296.341 L1924.3 296.341 Z" fill="#000000" fill-rule="nonzero" fill-opacity="1" /><path clip-path="url(#clip740)" d="M1944.07 286.873 L1948.33 286.873 L1948.33 322.892 L1944.07 322.892 L1944.07 286.873 Z" fill="#000000" fill-rule="nonzero" fill-opacity="1" /><path clip-path="url(#clip740)" d="M1969.02 309.859 Q1963.86 309.859 1961.87 311.04 Q1959.88 312.22 1959.88 315.068 Q1959.88 317.336 1961.36 318.679 Q1962.86 319.998 1965.43 319.998 Q1968.97 319.998 1971.1 317.498 Q1973.26 314.975 1973.26 310.808 L1973.26 309.859 L1969.02 309.859 M1977.52 308.1 L1977.52 322.892 L1973.26 322.892 L1973.26 318.957 Q1971.8 321.318 1969.62 322.452 Q1967.45 323.563 1964.3 323.563 Q1960.32 323.563 1957.96 321.341 Q1955.62 319.095 1955.62 315.345 Q1955.62 310.97 1958.53 308.748 Q1961.47 306.526 1967.28 306.526 L1973.26 306.526 L1973.26 306.109 Q1973.26 303.17 1971.31 301.572 Q1969.39 299.952 1965.89 299.952 Q1963.67 299.952 1961.57 300.484 Q1959.46 301.017 1957.52 302.082 L1957.52 298.146 Q1959.85 297.244 1962.05 296.804 Q1964.25 296.341 1966.33 296.341 Q1971.96 296.341 1974.74 299.258 Q1977.52 302.174 1977.52 308.1 Z" fill="#000000" fill-rule="nonzero" fill-opacity="1" /><path clip-path="url(#clip740)" d="M1990.5 289.605 L1990.5 296.966 L1999.27 296.966 L1999.27 300.276 L1990.5 300.276 L1990.5 314.35 Q1990.5 317.521 1991.36 318.424 Q1992.24 319.327 1994.9 319.327 L1999.27 319.327 L1999.27 322.892 L1994.9 322.892 Q1989.97 322.892 1988.09 321.063 Q1986.22 319.211 1986.22 314.35 L1986.22 300.276 L1983.09 300.276 L1983.09 296.966 L1986.22 296.966 L1986.22 289.605 L1990.5 289.605 Z" fill="#000000" fill-rule="nonzero" fill-opacity="1" /><path clip-path="url(#clip740)" d="M2027.05 308.864 L2027.05 310.947 L2007.47 310.947 Q2007.75 315.345 2010.11 317.66 Q2012.49 319.952 2016.73 319.952 Q2019.18 319.952 2021.47 319.35 Q2023.79 318.748 2026.06 317.545 L2026.06 321.572 Q2023.77 322.544 2021.36 323.054 Q2018.95 323.563 2016.47 323.563 Q2010.27 323.563 2006.64 319.952 Q2003.02 316.341 2003.02 310.183 Q2003.02 303.818 2006.45 300.091 Q2009.9 296.341 2015.73 296.341 Q2020.96 296.341 2024 299.721 Q2027.05 303.077 2027.05 308.864 M2022.79 307.614 Q2022.75 304.119 2020.83 302.035 Q2018.93 299.952 2015.78 299.952 Q2012.21 299.952 2010.06 301.966 Q2007.93 303.98 2007.61 307.637 L2022.79 307.614 Z" fill="#000000" fill-rule="nonzero" fill-opacity="1" /><path clip-path="url(#clip740)" d="M2051.1 300.901 L2051.1 286.873 L2055.36 286.873 L2055.36 322.892 L2051.1 322.892 L2051.1 319.003 Q2049.76 321.318 2047.7 322.452 Q2045.66 323.563 2042.79 323.563 Q2038.09 323.563 2035.13 319.813 Q2032.19 316.063 2032.19 309.952 Q2032.19 303.841 2035.13 300.091 Q2038.09 296.341 2042.79 296.341 Q2045.66 296.341 2047.7 297.475 Q2049.76 298.586 2051.1 300.901 M2036.59 309.952 Q2036.59 314.651 2038.51 317.336 Q2040.45 319.998 2043.83 319.998 Q2047.21 319.998 2049.16 317.336 Q2051.1 314.651 2051.1 309.952 Q2051.1 305.253 2049.16 302.591 Q2047.21 299.906 2043.83 299.906 Q2040.45 299.906 2038.51 302.591 Q2036.59 305.253 2036.59 309.952 Z" fill="#000000" fill-rule="nonzero" fill-opacity="1" /><path clip-path="url(#clip740)" d="M2099.39 301.943 Q2100.99 299.072 2103.21 297.707 Q2105.43 296.341 2108.44 296.341 Q2112.49 296.341 2114.69 299.188 Q2116.89 302.012 2116.89 307.244 L2116.89 322.892 L2112.61 322.892 L2112.61 307.383 Q2112.61 303.656 2111.29 301.85 Q2109.97 300.045 2107.26 300.045 Q2103.95 300.045 2102.03 302.244 Q2100.11 304.443 2100.11 308.239 L2100.11 322.892 L2095.82 322.892 L2095.82 307.383 Q2095.82 303.633 2094.51 301.85 Q2093.19 300.045 2090.43 300.045 Q2087.17 300.045 2085.25 302.267 Q2083.32 304.466 2083.32 308.239 L2083.32 322.892 L2079.04 322.892 L2079.04 296.966 L2083.32 296.966 L2083.32 300.994 Q2084.78 298.609 2086.82 297.475 Q2088.86 296.341 2091.66 296.341 Q2094.48 296.341 2096.45 297.776 Q2098.44 299.211 2099.39 301.943 Z" fill="#000000" fill-rule="nonzero" fill-opacity="1" /><path clip-path="url(#clip740)" d="M2147.56 308.864 L2147.56 310.947 L2127.98 310.947 Q2128.26 315.345 2130.62 317.66 Q2133 319.952 2137.24 319.952 Q2139.69 319.952 2141.98 319.35 Q2144.3 318.748 2146.57 317.545 L2146.57 321.572 Q2144.27 322.544 2141.87 323.054 Q2139.46 323.563 2136.98 323.563 Q2130.78 323.563 2127.14 319.952 Q2123.53 316.341 2123.53 310.183 Q2123.53 303.818 2126.96 300.091 Q2130.41 296.341 2136.24 296.341 Q2141.47 296.341 2144.51 299.721 Q2147.56 303.077 2147.56 308.864 M2143.3 307.614 Q2143.26 304.119 2141.33 302.035 Q2139.44 299.952 2136.29 299.952 Q2132.72 299.952 2130.57 301.966 Q2128.44 303.98 2128.12 307.637 L2143.3 307.614 Z" fill="#000000" fill-rule="nonzero" fill-opacity="1" /><path clip-path="url(#clip740)" d="M2171.61 300.901 L2171.61 286.873 L2175.87 286.873 L2175.87 322.892 L2171.61 322.892 L2171.61 319.003 Q2170.27 321.318 2168.21 322.452 Q2166.17 323.563 2163.3 323.563 Q2158.6 323.563 2155.64 319.813 Q2152.7 316.063 2152.7 309.952 Q2152.7 303.841 2155.64 300.091 Q2158.6 296.341 2163.3 296.341 Q2166.17 296.341 2168.21 297.475 Q2170.27 298.586 2171.61 300.901 M2157.1 309.952 Q2157.1 314.651 2159.02 317.336 Q2160.96 319.998 2164.34 319.998 Q2167.72 319.998 2169.67 317.336 Q2171.61 314.651 2171.61 309.952 Q2171.61 305.253 2169.67 302.591 Q2167.72 299.906 2164.34 299.906 Q2160.96 299.906 2159.02 302.591 Q2157.1 305.253 2157.1 309.952 Z" fill="#000000" fill-rule="nonzero" fill-opacity="1" /><path clip-path="url(#clip740)" d="M2184.64 296.966 L2188.9 296.966 L2188.9 322.892 L2184.64 322.892 L2184.64 296.966 M2184.64 286.873 L2188.9 286.873 L2188.9 292.267 L2184.64 292.267 L2184.64 286.873 Z" fill="#000000" fill-rule="nonzero" fill-opacity="1" /><path clip-path="url(#clip740)" d="M2209.6 309.859 Q2204.44 309.859 2202.44 311.04 Q2200.45 312.22 2200.45 315.068 Q2200.45 317.336 2201.94 318.679 Q2203.44 319.998 2206.01 319.998 Q2209.55 319.998 2211.68 317.498 Q2213.83 314.975 2213.83 310.808 L2213.83 309.859 L2209.6 309.859 M2218.09 308.1 L2218.09 322.892 L2213.83 322.892 L2213.83 318.957 Q2212.38 321.318 2210.2 322.452 Q2208.02 323.563 2204.88 323.563 Q2200.89 323.563 2198.53 321.341 Q2196.19 319.095 2196.19 315.345 Q2196.19 310.97 2199.11 308.748 Q2202.05 306.526 2207.86 306.526 L2213.83 306.526 L2213.83 306.109 Q2213.83 303.17 2211.89 301.572 Q2209.97 299.952 2206.47 299.952 Q2204.25 299.952 2202.14 300.484 Q2200.04 301.017 2198.09 302.082 L2198.09 298.146 Q2200.43 297.244 2202.63 296.804 Q2204.83 296.341 2206.91 296.341 Q2212.54 296.341 2215.31 299.258 Q2218.09 302.174 2218.09 308.1 Z" fill="#000000" fill-rule="nonzero" fill-opacity="1" /><path clip-path="url(#clip740)" d="M2248.42 307.244 L2248.42 322.892 L2244.16 322.892 L2244.16 307.383 Q2244.16 303.702 2242.72 301.873 Q2241.29 300.045 2238.42 300.045 Q2234.97 300.045 2232.98 302.244 Q2230.99 304.443 2230.99 308.239 L2230.99 322.892 L2226.7 322.892 L2226.7 296.966 L2230.99 296.966 L2230.99 300.994 Q2232.51 298.656 2234.57 297.498 Q2236.66 296.341 2239.37 296.341 Q2243.83 296.341 2246.12 299.119 Q2248.42 301.873 2248.42 307.244 Z" fill="#000000" fill-rule="nonzero" fill-opacity="1" /></svg>
