<?xml version="1.0" encoding="utf-8"?>
<svg xmlns="http://www.w3.org/2000/svg" xmlns:xlink="http://www.w3.org/1999/xlink" width="600" height="400" viewBox="0 0 2400 1600">
<defs>
  <clipPath id="clip800">
    <rect x="0" y="0" width="2400" height="1600"/>
  </clipPath>
</defs>
<path clip-path="url(#clip800)" d="M0 1600 L2400 1600 L2400 8.88178e-14 L0 8.88178e-14  Z" fill="#ffffff" fill-rule="evenodd" fill-opacity="1"/>
<defs>
  <clipPath id="clip801">
    <rect x="234" y="106" width="2120" height="1318"/>
  </clipPath>
</defs>
<path clip-path="url(#clip800)" d="M205.121 1423.18 L2352.76 1423.18 L2352.76 106.192 L205.121 106.192  Z" fill="#ffffff" fill-rule="evenodd" fill-opacity="1"/>
<defs>
  <clipPath id="clip802">
    <rect x="205" y="106" width="2149" height="1318"/>
  </clipPath>
</defs>
<polyline clip-path="url(#clip802)" style="stroke:#000000; stroke-linecap:round; stroke-linejoin:round; stroke-width:2; stroke-opacity:0.1; fill:none" points="396.76,1423.18 396.76,106.192 "/>
<polyline clip-path="url(#clip802)" style="stroke:#000000; stroke-linecap:round; stroke-linejoin:round; stroke-width:2; stroke-opacity:0.1; fill:none" points="764.334,1423.18 764.334,106.192 "/>
<polyline clip-path="url(#clip802)" style="stroke:#000000; stroke-linecap:round; stroke-linejoin:round; stroke-width:2; stroke-opacity:0.1; fill:none" points="1131.91,1423.18 1131.91,106.192 "/>
<polyline clip-path="url(#clip802)" style="stroke:#000000; stroke-linecap:round; stroke-linejoin:round; stroke-width:2; stroke-opacity:0.1; fill:none" points="1499.48,1423.18 1499.48,106.192 "/>
<polyline clip-path="url(#clip802)" style="stroke:#000000; stroke-linecap:round; stroke-linejoin:round; stroke-width:2; stroke-opacity:0.1; fill:none" points="1867.06,1423.18 1867.06,106.192 "/>
<polyline clip-path="url(#clip802)" style="stroke:#000000; stroke-linecap:round; stroke-linejoin:round; stroke-width:2; stroke-opacity:0.1; fill:none" points="2234.63,1423.18 2234.63,106.192 "/>
<polyline clip-path="url(#clip802)" style="stroke:#000000; stroke-linecap:round; stroke-linejoin:round; stroke-width:2; stroke-opacity:0.1; fill:none" points="205.121,1423.18 2352.76,1423.18 "/>
<polyline clip-path="url(#clip802)" style="stroke:#000000; stroke-linecap:round; stroke-linejoin:round; stroke-width:2; stroke-opacity:0.1; fill:none" points="205.121,1183.73 2352.76,1183.73 "/>
<polyline clip-path="url(#clip802)" style="stroke:#000000; stroke-linecap:round; stroke-linejoin:round; stroke-width:2; stroke-opacity:0.1; fill:none" points="205.121,944.275 2352.76,944.275 "/>
<polyline clip-path="url(#clip802)" style="stroke:#000000; stroke-linecap:round; stroke-linejoin:round; stroke-width:2; stroke-opacity:0.1; fill:none" points="205.121,704.823 2352.76,704.823 "/>
<polyline clip-path="url(#clip802)" style="stroke:#000000; stroke-linecap:round; stroke-linejoin:round; stroke-width:2; stroke-opacity:0.1; fill:none" points="205.121,465.371 2352.76,465.371 "/>
<polyline clip-path="url(#clip802)" style="stroke:#000000; stroke-linecap:round; stroke-linejoin:round; stroke-width:2; stroke-opacity:0.1; fill:none" points="205.121,225.918 2352.76,225.918 "/>
<polyline clip-path="url(#clip800)" style="stroke:#000000; stroke-linecap:round; stroke-linejoin:round; stroke-width:4; stroke-opacity:1; fill:none" points="205.121,1423.18 2352.76,1423.18 "/>
<polyline clip-path="url(#clip800)" style="stroke:#000000; stroke-linecap:round; stroke-linejoin:round; stroke-width:4; stroke-opacity:1; fill:none" points="396.76,1423.18 396.76,1404.28 "/>
<polyline clip-path="url(#clip800)" style="stroke:#000000; stroke-linecap:round; stroke-linejoin:round; stroke-width:4; stroke-opacity:1; fill:none" points="764.334,1423.18 764.334,1404.28 "/>
<polyline clip-path="url(#clip800)" style="stroke:#000000; stroke-linecap:round; stroke-linejoin:round; stroke-width:4; stroke-opacity:1; fill:none" points="1131.91,1423.18 1131.91,1404.28 "/>
<polyline clip-path="url(#clip800)" style="stroke:#000000; stroke-linecap:round; stroke-linejoin:round; stroke-width:4; stroke-opacity:1; fill:none" points="1499.48,1423.18 1499.48,1404.28 "/>
<polyline clip-path="url(#clip800)" style="stroke:#000000; stroke-linecap:round; stroke-linejoin:round; stroke-width:4; stroke-opacity:1; fill:none" points="1867.06,1423.18 1867.06,1404.28 "/>
<polyline clip-path="url(#clip800)" style="stroke:#000000; stroke-linecap:round; stroke-linejoin:round; stroke-width:4; stroke-opacity:1; fill:none" points="2234.63,1423.18 2234.63,1404.28 "/>
<path clip-path="url(#clip800)" d="M356.366 1481.64 L364.005 1481.64 L364.005 1455.28 L355.695 1456.95 L355.695 1452.69 L363.959 1451.02 L368.635 1451.02 L368.635 1481.64 L376.274 1481.64 L376.274 1485.58 L356.366 1485.58 L356.366 1481.64 Z" fill="#000000" fill-rule="nonzero" fill-opacity="1" /><path clip-path="url(#clip800)" d="M395.718 1454.1 Q392.107 1454.1 390.278 1457.66 Q388.473 1461.2 388.473 1468.33 Q388.473 1475.44 390.278 1479.01 Q392.107 1482.55 395.718 1482.55 Q399.352 1482.55 401.158 1479.01 Q402.986 1475.44 402.986 1468.33 Q402.986 1461.2 401.158 1457.66 Q399.352 1454.1 395.718 1454.1 M395.718 1450.39 Q401.528 1450.39 404.584 1455 Q407.662 1459.58 407.662 1468.33 Q407.662 1477.06 404.584 1481.67 Q401.528 1486.25 395.718 1486.25 Q389.908 1486.25 386.829 1481.67 Q383.774 1477.06 383.774 1468.33 Q383.774 1459.58 386.829 1455 Q389.908 1450.39 395.718 1450.39 Z" fill="#000000" fill-rule="nonzero" fill-opacity="1" /><path clip-path="url(#clip800)" d="M425.88 1454.1 Q422.269 1454.1 420.44 1457.66 Q418.635 1461.2 418.635 1468.33 Q418.635 1475.44 420.44 1479.01 Q422.269 1482.55 425.88 1482.55 Q429.514 1482.55 431.32 1479.01 Q433.148 1475.44 433.148 1468.33 Q433.148 1461.2 431.32 1457.66 Q429.514 1454.1 425.88 1454.1 M425.88 1450.39 Q431.69 1450.39 434.746 1455 Q437.824 1459.58 437.824 1468.33 Q437.824 1477.06 434.746 1481.67 Q431.69 1486.25 425.88 1486.25 Q420.07 1486.25 416.991 1481.67 Q413.935 1477.06 413.935 1468.33 Q413.935 1459.58 416.991 1455 Q420.07 1450.39 425.88 1450.39 Z" fill="#000000" fill-rule="nonzero" fill-opacity="1" /><path clip-path="url(#clip800)" d="M723.941 1481.64 L731.58 1481.64 L731.58 1455.28 L723.27 1456.95 L723.27 1452.69 L731.533 1451.02 L736.209 1451.02 L736.209 1481.64 L743.848 1481.64 L743.848 1485.58 L723.941 1485.58 L723.941 1481.64 Z" fill="#000000" fill-rule="nonzero" fill-opacity="1" /><path clip-path="url(#clip800)" d="M753.339 1451.02 L771.695 1451.02 L771.695 1454.96 L757.621 1454.96 L757.621 1463.43 Q758.64 1463.08 759.658 1462.92 Q760.677 1462.73 761.695 1462.73 Q767.482 1462.73 770.862 1465.9 Q774.241 1469.08 774.241 1474.49 Q774.241 1480.07 770.769 1483.17 Q767.297 1486.25 760.978 1486.25 Q758.802 1486.25 756.533 1485.88 Q754.288 1485.51 751.88 1484.77 L751.88 1480.07 Q753.964 1481.2 756.186 1481.76 Q758.408 1482.32 760.885 1482.32 Q764.89 1482.32 767.228 1480.21 Q769.566 1478.1 769.566 1474.49 Q769.566 1470.88 767.228 1468.77 Q764.89 1466.67 760.885 1466.67 Q759.01 1466.67 757.135 1467.08 Q755.283 1467.5 753.339 1468.38 L753.339 1451.02 Z" fill="#000000" fill-rule="nonzero" fill-opacity="1" /><path clip-path="url(#clip800)" d="M793.454 1454.1 Q789.843 1454.1 788.015 1457.66 Q786.209 1461.2 786.209 1468.33 Q786.209 1475.44 788.015 1479.01 Q789.843 1482.55 793.454 1482.55 Q797.089 1482.55 798.894 1479.01 Q800.723 1475.44 800.723 1468.33 Q800.723 1461.2 798.894 1457.66 Q797.089 1454.1 793.454 1454.1 M793.454 1450.39 Q799.264 1450.39 802.32 1455 Q805.399 1459.58 805.399 1468.33 Q805.399 1477.06 802.32 1481.67 Q799.264 1486.25 793.454 1486.25 Q787.644 1486.25 784.566 1481.67 Q781.51 1477.06 781.51 1468.33 Q781.51 1459.58 784.566 1455 Q787.644 1450.39 793.454 1450.39 Z" fill="#000000" fill-rule="nonzero" fill-opacity="1" /><path clip-path="url(#clip800)" d="M1095.6 1481.64 L1111.92 1481.64 L1111.92 1485.58 L1089.98 1485.58 L1089.98 1481.64 Q1092.64 1478.89 1097.22 1474.26 Q1101.83 1469.61 1103.01 1468.27 Q1105.25 1465.74 1106.13 1464.01 Q1107.04 1462.25 1107.04 1460.56 Q1107.04 1457.8 1105.09 1456.07 Q1103.17 1454.33 1100.07 1454.33 Q1097.87 1454.33 1095.42 1455.09 Q1092.99 1455.86 1090.21 1457.41 L1090.21 1452.69 Q1093.03 1451.55 1095.49 1450.97 Q1097.94 1450.39 1099.98 1450.39 Q1105.35 1450.39 1108.54 1453.08 Q1111.74 1455.77 1111.74 1460.26 Q1111.74 1462.39 1110.92 1464.31 Q1110.14 1466.2 1108.03 1468.8 Q1107.45 1469.47 1104.35 1472.69 Q1101.25 1475.88 1095.6 1481.64 Z" fill="#000000" fill-rule="nonzero" fill-opacity="1" /><path clip-path="url(#clip800)" d="M1131.74 1454.1 Q1128.12 1454.1 1126.3 1457.66 Q1124.49 1461.2 1124.49 1468.33 Q1124.49 1475.44 1126.3 1479.01 Q1128.12 1482.55 1131.74 1482.55 Q1135.37 1482.55 1137.17 1479.01 Q1139 1475.44 1139 1468.33 Q1139 1461.2 1137.17 1457.66 Q1135.37 1454.1 1131.74 1454.1 M1131.74 1450.39 Q1137.55 1450.39 1140.6 1455 Q1143.68 1459.58 1143.68 1468.33 Q1143.68 1477.06 1140.6 1481.67 Q1137.55 1486.25 1131.74 1486.25 Q1125.92 1486.25 1122.85 1481.67 Q1119.79 1477.06 1119.79 1468.33 Q1119.79 1459.58 1122.85 1455 Q1125.92 1450.39 1131.74 1450.39 Z" fill="#000000" fill-rule="nonzero" fill-opacity="1" /><path clip-path="url(#clip800)" d="M1161.9 1454.1 Q1158.29 1454.1 1156.46 1457.66 Q1154.65 1461.2 1154.65 1468.33 Q1154.65 1475.44 1156.46 1479.01 Q1158.29 1482.55 1161.9 1482.55 Q1165.53 1482.55 1167.34 1479.01 Q1169.17 1475.44 1169.17 1468.33 Q1169.17 1461.2 1167.34 1457.66 Q1165.53 1454.1 1161.9 1454.1 M1161.9 1450.39 Q1167.71 1450.39 1170.76 1455 Q1173.84 1459.58 1173.84 1468.33 Q1173.84 1477.06 1170.76 1481.67 Q1167.71 1486.25 1161.9 1486.25 Q1156.09 1486.25 1153.01 1481.67 Q1149.95 1477.06 1149.95 1468.33 Q1149.95 1459.58 1153.01 1455 Q1156.09 1450.39 1161.9 1450.39 Z" fill="#000000" fill-rule="nonzero" fill-opacity="1" /><path clip-path="url(#clip800)" d="M1463.18 1481.64 L1479.49 1481.64 L1479.49 1485.58 L1457.55 1485.58 L1457.55 1481.64 Q1460.21 1478.89 1464.8 1474.26 Q1469.4 1469.61 1470.58 1468.27 Q1472.83 1465.74 1473.71 1464.01 Q1474.61 1462.25 1474.61 1460.56 Q1474.61 1457.8 1472.67 1456.07 Q1470.74 1454.33 1467.64 1454.33 Q1465.44 1454.33 1462.99 1455.09 Q1460.56 1455.86 1457.78 1457.41 L1457.78 1452.69 Q1460.61 1451.55 1463.06 1450.97 Q1465.51 1450.39 1467.55 1450.39 Q1472.92 1450.39 1476.12 1453.08 Q1479.31 1455.77 1479.31 1460.26 Q1479.31 1462.39 1478.5 1464.31 Q1477.71 1466.2 1475.61 1468.8 Q1475.03 1469.47 1471.93 1472.69 Q1468.82 1475.88 1463.18 1481.64 Z" fill="#000000" fill-rule="nonzero" fill-opacity="1" /><path clip-path="url(#clip800)" d="M1489.36 1451.02 L1507.71 1451.02 L1507.71 1454.96 L1493.64 1454.96 L1493.64 1463.43 Q1494.66 1463.08 1495.68 1462.92 Q1496.69 1462.73 1497.71 1462.73 Q1503.5 1462.73 1506.88 1465.9 Q1510.26 1469.08 1510.26 1474.49 Q1510.26 1480.07 1506.79 1483.17 Q1503.31 1486.25 1496.99 1486.25 Q1494.82 1486.25 1492.55 1485.88 Q1490.3 1485.51 1487.9 1484.77 L1487.9 1480.07 Q1489.98 1481.2 1492.2 1481.76 Q1494.43 1482.32 1496.9 1482.32 Q1500.91 1482.32 1503.24 1480.21 Q1505.58 1478.1 1505.58 1474.49 Q1505.58 1470.88 1503.24 1468.77 Q1500.91 1466.67 1496.9 1466.67 Q1495.03 1466.67 1493.15 1467.08 Q1491.3 1467.5 1489.36 1468.38 L1489.36 1451.02 Z" fill="#000000" fill-rule="nonzero" fill-opacity="1" /><path clip-path="url(#clip800)" d="M1529.47 1454.1 Q1525.86 1454.1 1524.03 1457.66 Q1522.23 1461.2 1522.23 1468.33 Q1522.23 1475.44 1524.03 1479.01 Q1525.86 1482.55 1529.47 1482.55 Q1533.11 1482.55 1534.91 1479.01 Q1536.74 1475.44 1536.74 1468.33 Q1536.74 1461.2 1534.91 1457.66 Q1533.11 1454.1 1529.47 1454.1 M1529.47 1450.39 Q1535.28 1450.39 1538.34 1455 Q1541.42 1459.58 1541.42 1468.33 Q1541.42 1477.06 1538.34 1481.67 Q1535.28 1486.25 1529.47 1486.25 Q1523.66 1486.25 1520.58 1481.67 Q1517.53 1477.06 1517.53 1468.33 Q1517.53 1459.58 1520.58 1455 Q1523.66 1450.39 1529.47 1450.39 Z" fill="#000000" fill-rule="nonzero" fill-opacity="1" /><path clip-path="url(#clip800)" d="M1840.82 1466.95 Q1844.18 1467.66 1846.05 1469.93 Q1847.95 1472.2 1847.95 1475.53 Q1847.95 1480.65 1844.43 1483.45 Q1840.91 1486.25 1834.43 1486.25 Q1832.25 1486.25 1829.94 1485.81 Q1827.65 1485.39 1825.19 1484.54 L1825.19 1480.02 Q1827.14 1481.16 1829.45 1481.74 Q1831.77 1482.32 1834.29 1482.32 Q1838.69 1482.32 1840.98 1480.58 Q1843.3 1478.84 1843.3 1475.53 Q1843.3 1472.48 1841.14 1470.77 Q1839.01 1469.03 1835.19 1469.03 L1831.17 1469.03 L1831.17 1465.19 L1835.38 1465.19 Q1838.83 1465.19 1840.66 1463.82 Q1842.49 1462.43 1842.49 1459.84 Q1842.49 1457.18 1840.59 1455.77 Q1838.71 1454.33 1835.19 1454.33 Q1833.27 1454.33 1831.07 1454.75 Q1828.87 1455.16 1826.24 1456.04 L1826.24 1451.88 Q1828.9 1451.14 1831.21 1450.77 Q1833.55 1450.39 1835.61 1450.39 Q1840.94 1450.39 1844.04 1452.83 Q1847.14 1455.23 1847.14 1459.35 Q1847.14 1462.22 1845.5 1464.21 Q1843.85 1466.18 1840.82 1466.95 Z" fill="#000000" fill-rule="nonzero" fill-opacity="1" /><path clip-path="url(#clip800)" d="M1866.81 1454.1 Q1863.2 1454.1 1861.37 1457.66 Q1859.57 1461.2 1859.57 1468.33 Q1859.57 1475.44 1861.37 1479.01 Q1863.2 1482.55 1866.81 1482.55 Q1870.45 1482.55 1872.25 1479.01 Q1874.08 1475.44 1874.08 1468.33 Q1874.08 1461.2 1872.25 1457.66 Q1870.45 1454.1 1866.81 1454.1 M1866.81 1450.39 Q1872.62 1450.39 1875.68 1455 Q1878.76 1459.58 1878.76 1468.33 Q1878.76 1477.06 1875.68 1481.67 Q1872.62 1486.25 1866.81 1486.25 Q1861 1486.25 1857.93 1481.67 Q1854.87 1477.06 1854.87 1468.33 Q1854.87 1459.58 1857.93 1455 Q1861 1450.39 1866.81 1450.39 Z" fill="#000000" fill-rule="nonzero" fill-opacity="1" /><path clip-path="url(#clip800)" d="M1896.98 1454.1 Q1893.37 1454.1 1891.54 1457.66 Q1889.73 1461.2 1889.73 1468.33 Q1889.73 1475.44 1891.54 1479.01 Q1893.37 1482.55 1896.98 1482.55 Q1900.61 1482.55 1902.42 1479.01 Q1904.24 1475.44 1904.24 1468.33 Q1904.24 1461.2 1902.42 1457.66 Q1900.61 1454.1 1896.98 1454.1 M1896.98 1450.39 Q1902.79 1450.39 1905.84 1455 Q1908.92 1459.58 1908.92 1468.33 Q1908.92 1477.06 1905.84 1481.67 Q1902.79 1486.25 1896.98 1486.25 Q1891.17 1486.25 1888.09 1481.67 Q1885.03 1477.06 1885.03 1468.33 Q1885.03 1459.58 1888.09 1455 Q1891.17 1450.39 1896.98 1450.39 Z" fill="#000000" fill-rule="nonzero" fill-opacity="1" /><path clip-path="url(#clip800)" d="M2208.39 1466.95 Q2211.75 1467.66 2213.63 1469.93 Q2215.52 1472.2 2215.52 1475.53 Q2215.52 1480.65 2212 1483.45 Q2208.49 1486.25 2202.01 1486.25 Q2199.83 1486.25 2197.51 1485.81 Q2195.22 1485.39 2192.77 1484.54 L2192.77 1480.02 Q2194.71 1481.16 2197.03 1481.74 Q2199.34 1482.32 2201.87 1482.32 Q2206.26 1482.32 2208.56 1480.58 Q2210.87 1478.84 2210.87 1475.53 Q2210.87 1472.48 2208.72 1470.77 Q2206.59 1469.03 2202.77 1469.03 L2198.74 1469.03 L2198.74 1465.19 L2202.95 1465.19 Q2206.4 1465.19 2208.23 1463.82 Q2210.06 1462.43 2210.06 1459.84 Q2210.06 1457.18 2208.16 1455.77 Q2206.29 1454.33 2202.77 1454.33 Q2200.85 1454.33 2198.65 1454.75 Q2196.45 1455.16 2193.81 1456.04 L2193.81 1451.88 Q2196.47 1451.14 2198.79 1450.77 Q2201.13 1450.39 2203.19 1450.39 Q2208.51 1450.39 2211.61 1452.83 Q2214.71 1455.23 2214.71 1459.35 Q2214.71 1462.22 2213.07 1464.21 Q2211.43 1466.18 2208.39 1466.95 Z" fill="#000000" fill-rule="nonzero" fill-opacity="1" /><path clip-path="url(#clip800)" d="M2224.44 1451.02 L2242.79 1451.02 L2242.79 1454.96 L2228.72 1454.96 L2228.72 1463.43 Q2229.74 1463.08 2230.75 1462.92 Q2231.77 1462.73 2232.79 1462.73 Q2238.58 1462.73 2241.96 1465.9 Q2245.34 1469.08 2245.34 1474.49 Q2245.34 1480.07 2241.87 1483.17 Q2238.39 1486.25 2232.07 1486.25 Q2229.9 1486.25 2227.63 1485.88 Q2225.38 1485.51 2222.98 1484.77 L2222.98 1480.07 Q2225.06 1481.2 2227.28 1481.76 Q2229.5 1482.32 2231.98 1482.32 Q2235.99 1482.32 2238.32 1480.21 Q2240.66 1478.1 2240.66 1474.49 Q2240.66 1470.88 2238.32 1468.77 Q2235.99 1466.67 2231.98 1466.67 Q2230.11 1466.67 2228.23 1467.08 Q2226.38 1467.5 2224.44 1468.38 L2224.44 1451.02 Z" fill="#000000" fill-rule="nonzero" fill-opacity="1" /><path clip-path="url(#clip800)" d="M2264.55 1454.1 Q2260.94 1454.1 2259.11 1457.66 Q2257.31 1461.2 2257.31 1468.33 Q2257.31 1475.44 2259.11 1479.01 Q2260.94 1482.55 2264.55 1482.55 Q2268.19 1482.55 2269.99 1479.01 Q2271.82 1475.44 2271.82 1468.33 Q2271.82 1461.2 2269.99 1457.66 Q2268.19 1454.1 2264.55 1454.1 M2264.55 1450.39 Q2270.36 1450.39 2273.42 1455 Q2276.5 1459.58 2276.5 1468.33 Q2276.5 1477.06 2273.42 1481.67 Q2270.36 1486.25 2264.55 1486.25 Q2258.74 1486.25 2255.66 1481.67 Q2252.61 1477.06 2252.61 1468.33 Q2252.61 1459.58 2255.66 1455 Q2258.74 1450.39 2264.55 1450.39 Z" fill="#000000" fill-rule="nonzero" fill-opacity="1" /><path clip-path="url(#clip800)" d="M1051.36 1520.52 L1091.56 1520.52 L1091.56 1525.93 L1074.69 1525.93 L1074.69 1568.04 L1068.23 1568.04 L1068.23 1525.93 L1051.36 1525.93 L1051.36 1520.52 Z" fill="#000000" fill-rule="nonzero" fill-opacity="1" /><path clip-path="url(#clip800)" d="M1116.93 1548.76 L1116.93 1551.62 L1090 1551.62 Q1090.39 1557.67 1093.63 1560.85 Q1096.91 1564 1102.74 1564 Q1106.11 1564 1109.26 1563.17 Q1112.44 1562.35 1115.56 1560.69 L1115.56 1566.23 Q1112.41 1567.57 1109.1 1568.27 Q1105.79 1568.97 1102.39 1568.97 Q1093.86 1568.97 1088.86 1564 Q1083.89 1559.04 1083.89 1550.57 Q1083.89 1541.82 1088.6 1536.69 Q1093.35 1531.54 1101.37 1531.54 Q1108.56 1531.54 1112.73 1536.18 Q1116.93 1540.8 1116.93 1548.76 M1111.07 1547.04 Q1111.01 1542.23 1108.37 1539.37 Q1105.76 1536.5 1101.43 1536.5 Q1096.53 1536.5 1093.57 1539.27 Q1090.64 1542.04 1090.2 1547.07 L1111.07 1547.04 Z" fill="#000000" fill-rule="nonzero" fill-opacity="1" /><path clip-path="url(#clip800)" d="M1147.2 1537.87 Q1146.21 1537.3 1145.04 1537.04 Q1143.89 1536.76 1142.49 1536.76 Q1137.52 1536.76 1134.85 1540 Q1132.21 1543.22 1132.21 1549.27 L1132.21 1568.04 L1126.32 1568.04 L1126.32 1532.4 L1132.21 1532.4 L1132.21 1537.93 Q1134.05 1534.69 1137.02 1533.13 Q1139.98 1531.54 1144.21 1531.54 Q1144.81 1531.54 1145.55 1531.63 Q1146.28 1531.7 1147.17 1531.85 L1147.2 1537.87 Z" fill="#000000" fill-rule="nonzero" fill-opacity="1" /><path clip-path="url(#clip800)" d="M1179.95 1539.24 Q1182.15 1535.29 1185.2 1533.41 Q1188.26 1531.54 1192.4 1531.54 Q1197.97 1531.54 1200.99 1535.45 Q1204.01 1539.33 1204.01 1546.53 L1204.01 1568.04 L1198.13 1568.04 L1198.13 1546.72 Q1198.13 1541.59 1196.31 1539.11 Q1194.5 1536.63 1190.77 1536.63 Q1186.22 1536.63 1183.58 1539.65 Q1180.94 1542.68 1180.94 1547.9 L1180.94 1568.04 L1175.05 1568.04 L1175.05 1546.72 Q1175.05 1541.56 1173.24 1539.11 Q1171.42 1536.63 1167.63 1536.63 Q1163.15 1536.63 1160.5 1539.68 Q1157.86 1542.71 1157.86 1547.9 L1157.86 1568.04 L1151.97 1568.04 L1151.97 1532.4 L1157.86 1532.4 L1157.86 1537.93 Q1159.87 1534.66 1162.67 1533.1 Q1165.47 1531.54 1169.32 1531.54 Q1173.2 1531.54 1175.91 1533.51 Q1178.65 1535.48 1179.95 1539.24 Z" fill="#000000" fill-rule="nonzero" fill-opacity="1" /><path clip-path="url(#clip800)" d="M1215.7 1532.4 L1221.55 1532.4 L1221.55 1568.04 L1215.7 1568.04 L1215.7 1532.4 M1215.7 1518.52 L1221.55 1518.52 L1221.55 1525.93 L1215.7 1525.93 L1215.7 1518.52 Z" fill="#000000" fill-rule="nonzero" fill-opacity="1" /><path clip-path="url(#clip800)" d="M1263.44 1546.53 L1263.44 1568.04 L1257.58 1568.04 L1257.58 1546.72 Q1257.58 1541.66 1255.61 1539.14 Q1253.63 1536.63 1249.69 1536.63 Q1244.95 1536.63 1242.21 1539.65 Q1239.47 1542.68 1239.47 1547.9 L1239.47 1568.04 L1233.58 1568.04 L1233.58 1532.4 L1239.47 1532.4 L1239.47 1537.93 Q1241.57 1534.72 1244.4 1533.13 Q1247.27 1531.54 1250.99 1531.54 Q1257.14 1531.54 1260.29 1535.36 Q1263.44 1539.14 1263.44 1546.53 Z" fill="#000000" fill-rule="nonzero" fill-opacity="1" /><path clip-path="url(#clip800)" d="M1291.32 1550.12 Q1284.22 1550.12 1281.48 1551.75 Q1278.75 1553.37 1278.75 1557.29 Q1278.75 1560.4 1280.78 1562.25 Q1282.85 1564.07 1286.39 1564.07 Q1291.26 1564.07 1294.18 1560.63 Q1297.14 1557.16 1297.14 1551.43 L1297.14 1550.12 L1291.32 1550.12 M1303 1547.71 L1303 1568.04 L1297.14 1568.04 L1297.14 1562.63 Q1295.14 1565.88 1292.15 1567.44 Q1289.16 1568.97 1284.83 1568.97 Q1279.35 1568.97 1276.11 1565.91 Q1272.89 1562.82 1272.89 1557.67 Q1272.89 1551.65 1276.9 1548.6 Q1280.94 1545.54 1288.93 1545.54 L1297.14 1545.54 L1297.14 1544.97 Q1297.14 1540.93 1294.47 1538.73 Q1291.83 1536.5 1287.02 1536.5 Q1283.97 1536.5 1281.07 1537.23 Q1278.17 1537.97 1275.5 1539.43 L1275.5 1534.02 Q1278.72 1532.78 1281.74 1532.17 Q1284.76 1531.54 1287.63 1531.54 Q1295.36 1531.54 1299.18 1535.55 Q1303 1539.56 1303 1547.71 Z" fill="#000000" fill-rule="nonzero" fill-opacity="1" /><path clip-path="url(#clip800)" d="M1315.06 1518.52 L1320.92 1518.52 L1320.92 1568.04 L1315.06 1568.04 L1315.06 1518.52 Z" fill="#000000" fill-rule="nonzero" fill-opacity="1" /><path clip-path="url(#clip800)" d="M1359.56 1562.7 L1359.56 1581.6 L1353.67 1581.6 L1353.67 1532.4 L1359.56 1532.4 L1359.56 1537.81 Q1361.41 1534.62 1364.21 1533.1 Q1367.04 1531.54 1370.95 1531.54 Q1377.45 1531.54 1381.49 1536.69 Q1385.56 1541.85 1385.56 1550.25 Q1385.56 1558.65 1381.49 1563.81 Q1377.45 1568.97 1370.95 1568.97 Q1367.04 1568.97 1364.21 1567.44 Q1361.41 1565.88 1359.56 1562.7 M1379.48 1550.25 Q1379.48 1543.79 1376.81 1540.13 Q1374.17 1536.44 1369.52 1536.44 Q1364.88 1536.44 1362.2 1540.13 Q1359.56 1543.79 1359.56 1550.25 Q1359.56 1556.71 1362.2 1560.4 Q1364.88 1564.07 1369.52 1564.07 Q1374.17 1564.07 1376.81 1560.4 Q1379.48 1556.71 1379.48 1550.25 Z" fill="#000000" fill-rule="nonzero" fill-opacity="1" /><path clip-path="url(#clip800)" d="M1415.93 1537.87 Q1414.94 1537.3 1413.76 1537.04 Q1412.62 1536.76 1411.22 1536.76 Q1406.25 1536.76 1403.58 1540 Q1400.94 1543.22 1400.94 1549.27 L1400.94 1568.04 L1395.05 1568.04 L1395.05 1532.4 L1400.94 1532.4 L1400.94 1537.93 Q1402.78 1534.69 1405.74 1533.13 Q1408.7 1531.54 1412.94 1531.54 Q1413.54 1531.54 1414.27 1531.63 Q1415.01 1531.7 1415.9 1531.85 L1415.93 1537.87 Z" fill="#000000" fill-rule="nonzero" fill-opacity="1" /><path clip-path="url(#clip800)" d="M1422.07 1532.4 L1427.93 1532.4 L1427.93 1568.04 L1422.07 1568.04 L1422.07 1532.4 M1422.07 1518.52 L1427.93 1518.52 L1427.93 1525.93 L1422.07 1525.93 L1422.07 1518.52 Z" fill="#000000" fill-rule="nonzero" fill-opacity="1" /><path clip-path="url(#clip800)" d="M1465.84 1533.76 L1465.84 1539.24 Q1463.35 1537.87 1460.84 1537.2 Q1458.36 1536.5 1455.81 1536.5 Q1450.11 1536.5 1446.96 1540.13 Q1443.81 1543.73 1443.81 1550.25 Q1443.81 1556.78 1446.96 1560.4 Q1450.11 1564 1455.81 1564 Q1458.36 1564 1460.84 1563.33 Q1463.35 1562.63 1465.84 1561.26 L1465.84 1566.68 Q1463.38 1567.82 1460.74 1568.39 Q1458.13 1568.97 1455.17 1568.97 Q1447.12 1568.97 1442.38 1563.91 Q1437.64 1558.85 1437.64 1550.25 Q1437.64 1541.53 1442.41 1536.53 Q1447.22 1531.54 1455.55 1531.54 Q1458.26 1531.54 1460.84 1532.11 Q1463.42 1532.65 1465.84 1533.76 Z" fill="#000000" fill-rule="nonzero" fill-opacity="1" /><path clip-path="url(#clip800)" d="M1506.51 1548.76 L1506.51 1551.62 L1479.59 1551.62 Q1479.97 1557.67 1483.21 1560.85 Q1486.49 1564 1492.32 1564 Q1495.69 1564 1498.84 1563.17 Q1502.02 1562.35 1505.14 1560.69 L1505.14 1566.23 Q1501.99 1567.57 1498.68 1568.27 Q1495.37 1568.97 1491.97 1568.97 Q1483.44 1568.97 1478.44 1564 Q1473.47 1559.04 1473.47 1550.57 Q1473.47 1541.82 1478.19 1536.69 Q1482.93 1531.54 1490.95 1531.54 Q1498.14 1531.54 1502.31 1536.18 Q1506.51 1540.8 1506.51 1548.76 M1500.66 1547.04 Q1500.59 1542.23 1497.95 1539.37 Q1495.34 1536.5 1491.01 1536.5 Q1486.11 1536.5 1483.15 1539.27 Q1480.22 1542.04 1479.78 1547.07 L1500.66 1547.04 Z" fill="#000000" fill-rule="nonzero" fill-opacity="1" /><polyline clip-path="url(#clip800)" style="stroke:#000000; stroke-linecap:round; stroke-linejoin:round; stroke-width:4; stroke-opacity:1; fill:none" points="205.121,1423.18 205.121,106.192 "/>
<polyline clip-path="url(#clip800)" style="stroke:#000000; stroke-linecap:round; stroke-linejoin:round; stroke-width:4; stroke-opacity:1; fill:none" points="205.121,1423.18 224.019,1423.18 "/>
<polyline clip-path="url(#clip800)" style="stroke:#000000; stroke-linecap:round; stroke-linejoin:round; stroke-width:4; stroke-opacity:1; fill:none" points="205.121,1183.73 224.019,1183.73 "/>
<polyline clip-path="url(#clip800)" style="stroke:#000000; stroke-linecap:round; stroke-linejoin:round; stroke-width:4; stroke-opacity:1; fill:none" points="205.121,944.275 224.019,944.275 "/>
<polyline clip-path="url(#clip800)" style="stroke:#000000; stroke-linecap:round; stroke-linejoin:round; stroke-width:4; stroke-opacity:1; fill:none" points="205.121,704.823 224.019,704.823 "/>
<polyline clip-path="url(#clip800)" style="stroke:#000000; stroke-linecap:round; stroke-linejoin:round; stroke-width:4; stroke-opacity:1; fill:none" points="205.121,465.371 224.019,465.371 "/>
<polyline clip-path="url(#clip800)" style="stroke:#000000; stroke-linecap:round; stroke-linejoin:round; stroke-width:4; stroke-opacity:1; fill:none" points="205.121,225.918 224.019,225.918 "/>
<path clip-path="url(#clip800)" d="M157.177 1408.98 Q153.566 1408.98 151.737 1412.54 Q149.931 1416.08 149.931 1423.21 Q149.931 1430.32 151.737 1433.89 Q153.566 1437.43 157.177 1437.43 Q160.811 1437.43 162.616 1433.89 Q164.445 1430.32 164.445 1423.21 Q164.445 1416.08 162.616 1412.54 Q160.811 1408.98 157.177 1408.98 M157.177 1405.27 Q162.987 1405.27 166.042 1409.88 Q169.121 1414.46 169.121 1423.21 Q169.121 1431.94 166.042 1436.55 Q162.987 1441.13 157.177 1441.13 Q151.366 1441.13 148.288 1436.55 Q145.232 1431.94 145.232 1423.21 Q145.232 1414.46 148.288 1409.88 Q151.366 1405.27 157.177 1405.27 Z" fill="#000000" fill-rule="nonzero" fill-opacity="1" /><path clip-path="url(#clip800)" d="M117.825 1197.07 L125.464 1197.07 L125.464 1170.71 L117.154 1172.37 L117.154 1168.11 L125.418 1166.45 L130.093 1166.45 L130.093 1197.07 L137.732 1197.07 L137.732 1201.01 L117.825 1201.01 L117.825 1197.07 Z" fill="#000000" fill-rule="nonzero" fill-opacity="1" /><path clip-path="url(#clip800)" d="M157.177 1169.53 Q153.566 1169.53 151.737 1173.09 Q149.931 1176.63 149.931 1183.76 Q149.931 1190.87 151.737 1194.43 Q153.566 1197.98 157.177 1197.98 Q160.811 1197.98 162.616 1194.43 Q164.445 1190.87 164.445 1183.76 Q164.445 1176.63 162.616 1173.09 Q160.811 1169.53 157.177 1169.53 M157.177 1165.82 Q162.987 1165.82 166.042 1170.43 Q169.121 1175.01 169.121 1183.76 Q169.121 1192.49 166.042 1197.1 Q162.987 1201.68 157.177 1201.68 Q151.366 1201.68 148.288 1197.1 Q145.232 1192.49 145.232 1183.76 Q145.232 1175.01 148.288 1170.43 Q151.366 1165.82 157.177 1165.82 Z" fill="#000000" fill-rule="nonzero" fill-opacity="1" /><path clip-path="url(#clip800)" d="M121.043 957.62 L137.362 957.62 L137.362 961.555 L115.418 961.555 L115.418 957.62 Q118.08 954.865 122.663 950.236 Q127.269 945.583 128.45 944.24 Q130.695 941.717 131.575 939.981 Q132.478 938.222 132.478 936.532 Q132.478 933.778 130.533 932.041 Q128.612 930.305 125.51 930.305 Q123.311 930.305 120.857 931.069 Q118.427 931.833 115.649 933.384 L115.649 928.662 Q118.473 927.528 120.927 926.949 Q123.38 926.37 125.418 926.37 Q130.788 926.37 133.982 929.055 Q137.177 931.741 137.177 936.231 Q137.177 938.361 136.367 940.282 Q135.579 942.18 133.473 944.773 Q132.894 945.444 129.792 948.662 Q126.691 951.856 121.043 957.62 Z" fill="#000000" fill-rule="nonzero" fill-opacity="1" /><path clip-path="url(#clip800)" d="M157.177 930.074 Q153.566 930.074 151.737 933.639 Q149.931 937.18 149.931 944.31 Q149.931 951.416 151.737 954.981 Q153.566 958.523 157.177 958.523 Q160.811 958.523 162.616 954.981 Q164.445 951.416 164.445 944.31 Q164.445 937.18 162.616 933.639 Q160.811 930.074 157.177 930.074 M157.177 926.37 Q162.987 926.37 166.042 930.977 Q169.121 935.56 169.121 944.31 Q169.121 953.037 166.042 957.643 Q162.987 962.227 157.177 962.227 Q151.366 962.227 148.288 957.643 Q145.232 953.037 145.232 944.31 Q145.232 935.56 148.288 930.977 Q151.366 926.37 157.177 926.37 Z" fill="#000000" fill-rule="nonzero" fill-opacity="1" /><path clip-path="url(#clip800)" d="M131.181 703.469 Q134.538 704.186 136.413 706.455 Q138.311 708.723 138.311 712.057 Q138.311 717.172 134.792 719.973 Q131.274 722.774 124.793 722.774 Q122.617 722.774 120.302 722.334 Q118.01 721.918 115.556 721.061 L115.556 716.547 Q117.501 717.682 119.816 718.26 Q122.13 718.839 124.654 718.839 Q129.052 718.839 131.343 717.103 Q133.658 715.367 133.658 712.057 Q133.658 709.001 131.505 707.288 Q129.376 705.552 125.556 705.552 L121.529 705.552 L121.529 701.709 L125.742 701.709 Q129.191 701.709 131.019 700.344 Q132.848 698.955 132.848 696.362 Q132.848 693.7 130.95 692.288 Q129.075 690.853 125.556 690.853 Q123.635 690.853 121.436 691.27 Q119.237 691.686 116.598 692.566 L116.598 688.399 Q119.26 687.659 121.575 687.288 Q123.913 686.918 125.973 686.918 Q131.297 686.918 134.399 689.348 Q137.501 691.756 137.501 695.876 Q137.501 698.747 135.857 700.737 Q134.214 702.705 131.181 703.469 Z" fill="#000000" fill-rule="nonzero" fill-opacity="1" /><path clip-path="url(#clip800)" d="M157.177 690.622 Q153.566 690.622 151.737 694.186 Q149.931 697.728 149.931 704.858 Q149.931 711.964 151.737 715.529 Q153.566 719.071 157.177 719.071 Q160.811 719.071 162.616 715.529 Q164.445 711.964 164.445 704.858 Q164.445 697.728 162.616 694.186 Q160.811 690.622 157.177 690.622 M157.177 686.918 Q162.987 686.918 166.042 691.524 Q169.121 696.108 169.121 704.858 Q169.121 713.584 166.042 718.191 Q162.987 722.774 157.177 722.774 Q151.366 722.774 148.288 718.191 Q145.232 713.584 145.232 704.858 Q145.232 696.108 148.288 691.524 Q151.366 686.918 157.177 686.918 Z" fill="#000000" fill-rule="nonzero" fill-opacity="1" /><path clip-path="url(#clip800)" d="M129.862 452.165 L118.056 470.614 L129.862 470.614 L129.862 452.165 M128.635 448.091 L134.515 448.091 L134.515 470.614 L139.445 470.614 L139.445 474.502 L134.515 474.502 L134.515 482.651 L129.862 482.651 L129.862 474.502 L114.26 474.502 L114.26 469.989 L128.635 448.091 Z" fill="#000000" fill-rule="nonzero" fill-opacity="1" /><path clip-path="url(#clip800)" d="M157.177 451.169 Q153.566 451.169 151.737 454.734 Q149.931 458.276 149.931 465.405 Q149.931 472.512 151.737 476.077 Q153.566 479.618 157.177 479.618 Q160.811 479.618 162.616 476.077 Q164.445 472.512 164.445 465.405 Q164.445 458.276 162.616 454.734 Q160.811 451.169 157.177 451.169 M157.177 447.466 Q162.987 447.466 166.042 452.072 Q169.121 456.655 169.121 465.405 Q169.121 474.132 166.042 478.739 Q162.987 483.322 157.177 483.322 Q151.366 483.322 148.288 478.739 Q145.232 474.132 145.232 465.405 Q145.232 456.655 148.288 452.072 Q151.366 447.466 157.177 447.466 Z" fill="#000000" fill-rule="nonzero" fill-opacity="1" /><path clip-path="url(#clip800)" d="M117.061 208.638 L135.417 208.638 L135.417 212.573 L121.343 212.573 L121.343 221.046 Q122.362 220.698 123.38 220.536 Q124.399 220.351 125.418 220.351 Q131.205 220.351 134.584 223.522 Q137.964 226.694 137.964 232.11 Q137.964 237.689 134.492 240.791 Q131.019 243.87 124.7 243.87 Q122.524 243.87 120.255 243.499 Q118.01 243.129 115.603 242.388 L115.603 237.689 Q117.686 238.823 119.908 239.379 Q122.13 239.934 124.607 239.934 Q128.612 239.934 130.95 237.828 Q133.288 235.721 133.288 232.11 Q133.288 228.499 130.95 226.393 Q128.612 224.286 124.607 224.286 Q122.732 224.286 120.857 224.703 Q119.006 225.12 117.061 225.999 L117.061 208.638 Z" fill="#000000" fill-rule="nonzero" fill-opacity="1" /><path clip-path="url(#clip800)" d="M157.177 211.717 Q153.566 211.717 151.737 215.282 Q149.931 218.823 149.931 225.953 Q149.931 233.059 151.737 236.624 Q153.566 240.166 157.177 240.166 Q160.811 240.166 162.616 236.624 Q164.445 233.059 164.445 225.953 Q164.445 218.823 162.616 215.282 Q160.811 211.717 157.177 211.717 M157.177 208.013 Q162.987 208.013 166.042 212.62 Q169.121 217.203 169.121 225.953 Q169.121 234.68 166.042 239.286 Q162.987 243.87 157.177 243.87 Q151.366 243.87 148.288 239.286 Q145.232 234.68 145.232 225.953 Q145.232 217.203 148.288 212.62 Q151.366 208.013 157.177 208.013 Z" fill="#000000" fill-rule="nonzero" fill-opacity="1" /><path clip-path="url(#clip800)" d="M20.1444 820.545 L26.9239 820.545 Q23.9002 823.792 22.4043 827.484 Q20.9083 831.144 20.9083 835.282 Q20.9083 843.43 25.9054 847.758 Q30.8707 852.087 40.2919 852.087 Q49.6813 852.087 54.6784 847.758 Q59.6436 843.43 59.6436 835.282 Q59.6436 831.144 58.1477 827.484 Q56.6518 823.792 53.6281 820.545 L60.3439 820.545 Q62.6355 823.919 63.7814 827.706 Q64.9272 831.462 64.9272 835.664 Q64.9272 846.453 58.3387 852.66 Q51.7183 858.867 40.2919 858.867 Q28.8336 858.867 22.2451 852.66 Q15.6248 846.453 15.6248 835.664 Q15.6248 831.399 16.7706 827.643 Q17.8846 823.855 20.1444 820.545 Z" fill="#000000" fill-rule="nonzero" fill-opacity="1" /><path clip-path="url(#clip800)" d="M32.4621 797.056 Q32.4621 801.766 36.1542 804.503 Q39.8145 807.241 46.212 807.241 Q52.6095 807.241 56.3017 804.535 Q59.9619 801.798 59.9619 797.056 Q59.9619 792.377 56.2698 789.64 Q52.5777 786.902 46.212 786.902 Q39.8781 786.902 36.186 789.64 Q32.4621 792.377 32.4621 797.056 M27.4968 797.056 Q27.4968 789.417 32.4621 785.056 Q37.4273 780.696 46.212 780.696 Q54.9649 780.696 59.9619 785.056 Q64.9272 789.417 64.9272 797.056 Q64.9272 804.726 59.9619 809.087 Q54.9649 813.415 46.212 813.415 Q37.4273 813.415 32.4621 809.087 Q27.4968 804.726 27.4968 797.056 Z" fill="#000000" fill-rule="nonzero" fill-opacity="1" /><path clip-path="url(#clip800)" d="M49.9359 771.593 L28.3562 771.593 L28.3562 765.736 L49.7131 765.736 Q54.7739 765.736 57.3202 763.763 Q59.8346 761.79 59.8346 757.843 Q59.8346 753.1 56.8109 750.363 Q53.7872 747.594 48.5673 747.594 L28.3562 747.594 L28.3562 741.738 L64.0042 741.738 L64.0042 747.594 L58.5296 747.594 Q61.7762 749.727 63.3676 752.559 Q64.9272 755.36 64.9272 759.084 Q64.9272 765.227 61.1078 768.41 Q57.2883 771.593 49.9359 771.593 M27.4968 756.856 L27.4968 756.856 Z" fill="#000000" fill-rule="nonzero" fill-opacity="1" /><path clip-path="url(#clip800)" d="M42.4881 700.042 L64.0042 700.042 L64.0042 705.899 L42.679 705.899 Q37.6183 705.899 35.1038 707.872 Q32.5894 709.845 32.5894 713.792 Q32.5894 718.535 35.6131 721.272 Q38.6368 724.009 43.8567 724.009 L64.0042 724.009 L64.0042 729.897 L28.3562 729.897 L28.3562 724.009 L33.8944 724.009 Q30.6797 721.908 29.0883 719.076 Q27.4968 716.211 27.4968 712.487 Q27.4968 706.344 31.3163 703.193 Q35.1038 700.042 42.4881 700.042 Z" fill="#000000" fill-rule="nonzero" fill-opacity="1" /><path clip-path="url(#clip800)" d="M18.2347 682.568 L28.3562 682.568 L28.3562 670.505 L32.9077 670.505 L32.9077 682.568 L52.2594 682.568 Q56.6199 682.568 57.8613 681.391 Q59.1026 680.181 59.1026 676.521 L59.1026 670.505 L64.0042 670.505 L64.0042 676.521 Q64.0042 683.3 61.4897 685.879 Q58.9434 688.457 52.2594 688.457 L32.9077 688.457 L32.9077 692.753 L28.3562 692.753 L28.3562 688.457 L18.2347 688.457 L18.2347 682.568 Z" fill="#000000" fill-rule="nonzero" fill-opacity="1" /><path clip-path="url(#clip800)" d="M749.326 8.64 L755.171 8.64 L755.171 48.8308 Q755.171 56.6432 752.191 60.1733 Q749.239 63.7034 742.671 63.7034 L740.443 63.7034 L740.443 58.7844 L742.266 58.7844 Q746.143 58.7844 747.735 56.6143 Q749.326 54.4442 749.326 48.8308 L749.326 8.64 Z" fill="#000000" fill-rule="nonzero" fill-opacity="1" /><path clip-path="url(#clip800)" d="M766.803 8.64 L774.673 8.64 L793.828 44.7799 L793.828 8.64 L799.499 8.64 L799.499 51.84 L791.629 51.84 L772.474 15.7001 L772.474 51.84 L766.803 51.84 L766.803 8.64 Z" fill="#000000" fill-rule="nonzero" fill-opacity="1" /><path clip-path="url(#clip800)" d="M811.131 8.64 L816.976 8.64 L816.976 48.8308 Q816.976 56.6432 813.996 60.1733 Q811.045 63.7034 804.476 63.7034 L802.248 63.7034 L802.248 58.7844 L804.071 58.7844 Q807.948 58.7844 809.54 56.6143 Q811.131 54.4442 811.131 48.8308 L811.131 8.64 Z" fill="#000000" fill-rule="nonzero" fill-opacity="1" /><path clip-path="url(#clip800)" d="M844.522 33.2348 L860.118 33.2348 L860.118 37.9801 L844.522 37.9801 L844.522 33.2348 Z" fill="#000000" fill-rule="nonzero" fill-opacity="1" /><path clip-path="url(#clip800)" d="M920.014 11.9675 L920.014 18.1307 Q917.062 15.3819 913.706 14.0219 Q910.378 12.662 906.617 12.662 Q899.21 12.662 895.274 17.2048 Q891.339 21.7186 891.339 30.2834 Q891.339 38.8192 895.274 43.362 Q899.21 47.8759 906.617 47.8759 Q910.378 47.8759 913.706 46.516 Q917.062 45.156 920.014 42.4072 L920.014 48.5125 Q916.947 50.5958 913.503 51.6375 Q910.089 52.6791 906.27 52.6791 Q896.461 52.6791 890.818 46.6896 Q885.176 40.6711 885.176 30.2834 Q885.176 19.8668 890.818 13.8772 Q896.461 7.85875 906.27 7.85875 Q910.147 7.85875 913.561 8.90042 Q917.005 9.91314 920.014 11.9675 Z" fill="#000000" fill-rule="nonzero" fill-opacity="1" /><path clip-path="url(#clip800)" d="M929.042 8.64 L934.886 8.64 L934.886 26.3482 L956.125 26.3482 L956.125 8.64 L961.97 8.64 L961.97 51.84 L956.125 51.84 L956.125 31.2672 L934.886 31.2672 L934.886 51.84 L929.042 51.84 L929.042 8.64 Z" fill="#000000" fill-rule="nonzero" fill-opacity="1" /><path clip-path="url(#clip800)" d="M973.602 8.64 L982.311 8.64 L993.335 38.038 L1004.42 8.64 L1013.13 8.64 L1013.13 51.84 L1007.43 51.84 L1007.43 13.9062 L996.287 43.5356 L990.413 43.5356 L979.273 13.9062 L979.273 51.84 L973.602 51.84 L973.602 8.64 Z" fill="#000000" fill-rule="nonzero" fill-opacity="1" /><path clip-path="url(#clip800)" d="M1024.73 8.64 L1033.44 8.64 L1044.46 38.038 L1055.55 8.64 L1064.25 8.64 L1064.25 51.84 L1058.55 51.84 L1058.55 13.9062 L1047.41 43.5356 L1041.54 43.5356 L1030.4 13.9062 L1030.4 51.84 L1024.73 51.84 L1024.73 8.64 Z" fill="#000000" fill-rule="nonzero" fill-opacity="1" /><path clip-path="url(#clip800)" d="M1072.94 33.2348 L1088.53 33.2348 L1088.53 37.9801 L1072.94 37.9801 L1072.94 33.2348 Z" fill="#000000" fill-rule="nonzero" fill-opacity="1" /><path clip-path="url(#clip800)" d="M1097.24 8.64 L1103.09 8.64 L1103.09 46.921 L1124.12 46.921 L1124.12 51.84 L1097.24 51.84 L1097.24 8.64 Z" fill="#000000" fill-rule="nonzero" fill-opacity="1" /><path clip-path="url(#clip800)" d="M1154.13 10.2314 L1154.13 19.4328 L1165.09 19.4328 L1165.09 23.5705 L1154.13 23.5705 L1154.13 41.163 Q1154.13 45.1271 1155.2 46.2555 Q1156.3 47.384 1159.62 47.384 L1165.09 47.384 L1165.09 51.84 L1159.62 51.84 Q1153.46 51.84 1151.12 49.5541 Q1148.77 47.2393 1148.77 41.163 L1148.77 23.5705 L1144.87 23.5705 L1144.87 19.4328 L1148.77 19.4328 L1148.77 10.2314 L1154.13 10.2314 Z" fill="#000000" fill-rule="nonzero" fill-opacity="1" /><path clip-path="url(#clip800)" d="M1199.82 34.3054 L1199.82 36.9095 L1175.34 36.9095 Q1175.68 42.4072 1178.64 45.3007 Q1181.62 48.1653 1186.91 48.1653 Q1189.98 48.1653 1192.84 47.4129 Q1195.74 46.6606 1198.57 45.156 L1198.57 50.1907 Q1195.71 51.406 1192.7 52.0425 Q1189.69 52.6791 1186.59 52.6791 Q1178.84 52.6791 1174.29 48.1653 Q1169.78 43.6514 1169.78 35.9547 Q1169.78 27.9975 1174.06 23.339 Q1178.37 18.6515 1185.67 18.6515 Q1192.21 18.6515 1196 22.876 Q1199.82 27.0716 1199.82 34.3054 M1194.49 32.7429 Q1194.43 28.3737 1192.03 25.7695 Q1189.66 23.1654 1185.72 23.1654 Q1181.27 23.1654 1178.58 25.6827 Q1175.92 28.2001 1175.51 32.7718 L1194.49 32.7429 Z" fill="#000000" fill-rule="nonzero" fill-opacity="1" /><path clip-path="url(#clip800)" d="M1227.33 24.4096 Q1226.44 23.8888 1225.37 23.6573 Q1224.32 23.3969 1223.05 23.3969 Q1218.54 23.3969 1216.11 26.3482 Q1213.7 29.2707 1213.7 34.7683 L1213.7 51.84 L1208.35 51.84 L1208.35 19.4328 L1213.7 19.4328 L1213.7 24.4675 Q1215.38 21.5161 1218.07 20.0983 Q1220.76 18.6515 1224.61 18.6515 Q1225.16 18.6515 1225.83 18.7383 Q1226.49 18.7962 1227.3 18.9409 L1227.33 24.4096 Z" fill="#000000" fill-rule="nonzero" fill-opacity="1" /><path clip-path="url(#clip800)" d="M1257.11 25.6538 Q1259.1 22.0659 1261.88 20.3587 Q1264.66 18.6515 1268.42 18.6515 Q1273.48 18.6515 1276.23 22.2105 Q1278.98 25.7406 1278.98 32.2799 L1278.98 51.84 L1273.63 51.84 L1273.63 32.4535 Q1273.63 27.795 1271.98 25.5381 Q1270.33 23.2811 1266.94 23.2811 Q1262.81 23.2811 1260.41 26.03 Q1258 28.7788 1258 33.5241 L1258 51.84 L1252.65 51.84 L1252.65 32.4535 Q1252.65 27.7661 1251 25.5381 Q1249.35 23.2811 1245.91 23.2811 Q1241.83 23.2811 1239.43 26.0589 Q1237.03 28.8077 1237.03 33.5241 L1237.03 51.84 L1231.67 51.84 L1231.67 19.4328 L1237.03 19.4328 L1237.03 24.4675 Q1238.85 21.4872 1241.4 20.0693 Q1243.94 18.6515 1247.44 18.6515 Q1250.97 18.6515 1253.43 20.4455 Q1255.92 22.2395 1257.11 25.6538 Z" fill="#000000" fill-rule="nonzero" fill-opacity="1" /><path clip-path="url(#clip800)" d="M1289.6 19.4328 L1294.93 19.4328 L1294.93 51.84 L1289.6 51.84 L1289.6 19.4328 M1289.6 6.81709 L1294.93 6.81709 L1294.93 13.559 L1289.6 13.559 L1289.6 6.81709 Z" fill="#000000" fill-rule="nonzero" fill-opacity="1" /><path clip-path="url(#clip800)" d="M1333 32.2799 L1333 51.84 L1327.68 51.84 L1327.68 32.4535 Q1327.68 27.8529 1325.89 25.567 Q1324.09 23.2811 1320.5 23.2811 Q1316.19 23.2811 1313.7 26.03 Q1311.22 28.7788 1311.22 33.5241 L1311.22 51.84 L1305.86 51.84 L1305.86 19.4328 L1311.22 19.4328 L1311.22 24.4675 Q1313.13 21.545 1315.7 20.0983 Q1318.3 18.6515 1321.69 18.6515 Q1327.27 18.6515 1330.14 22.1237 Q1333 25.567 1333 32.2799 Z" fill="#000000" fill-rule="nonzero" fill-opacity="1" /><path clip-path="url(#clip800)" d="M1358.35 35.5496 Q1351.9 35.5496 1349.41 37.0253 Q1346.92 38.501 1346.92 42.06 Q1346.92 44.8956 1348.77 46.5738 Q1350.65 48.2231 1353.87 48.2231 Q1358.29 48.2231 1360.95 45.0981 Q1363.65 41.9442 1363.65 36.7359 L1363.65 35.5496 L1358.35 35.5496 M1368.97 33.3505 L1368.97 51.84 L1363.65 51.84 L1363.65 46.921 Q1361.82 49.8724 1359.1 51.2902 Q1356.38 52.6791 1352.45 52.6791 Q1347.47 52.6791 1344.52 49.9014 Q1341.6 47.0947 1341.6 42.4072 Q1341.6 36.9385 1345.24 34.1607 Q1348.92 31.3829 1356.18 31.3829 L1363.65 31.3829 L1363.65 30.8621 Q1363.65 27.1874 1361.22 25.1908 Q1358.81 23.1654 1354.44 23.1654 Q1351.67 23.1654 1349.03 23.8309 Q1346.4 24.4964 1343.97 25.8274 L1343.97 20.9085 Q1346.89 19.78 1349.64 19.2302 Q1352.39 18.6515 1354.99 18.6515 Q1362.03 18.6515 1365.5 22.2973 Q1368.97 25.9431 1368.97 33.3505 Z" fill="#000000" fill-rule="nonzero" fill-opacity="1" /><path clip-path="url(#clip800)" d="M1379.94 6.81709 L1385.26 6.81709 L1385.26 51.84 L1379.94 51.84 L1379.94 6.81709 Z" fill="#000000" fill-rule="nonzero" fill-opacity="1" /><path clip-path="url(#clip800)" d="M1420.39 46.9789 L1420.39 64.1663 L1415.03 64.1663 L1415.03 19.4328 L1420.39 19.4328 L1420.39 24.3517 Q1422.07 21.4582 1424.61 20.0693 Q1427.19 18.6515 1430.75 18.6515 Q1436.65 18.6515 1440.32 23.339 Q1444.03 28.0265 1444.03 35.6653 Q1444.03 43.3042 1440.32 47.9916 Q1436.65 52.6791 1430.75 52.6791 Q1427.19 52.6791 1424.61 51.2902 Q1422.07 49.8724 1420.39 46.9789 M1438.5 35.6653 Q1438.5 29.7915 1436.07 26.464 Q1433.67 23.1075 1429.44 23.1075 Q1425.22 23.1075 1422.79 26.464 Q1420.39 29.7915 1420.39 35.6653 Q1420.39 41.5391 1422.79 44.8956 Q1425.22 48.2231 1429.44 48.2231 Q1433.67 48.2231 1436.07 44.8956 Q1438.5 41.5391 1438.5 35.6653 Z" fill="#000000" fill-rule="nonzero" fill-opacity="1" /><path clip-path="url(#clip800)" d="M1471.63 24.4096 Q1470.73 23.8888 1469.66 23.6573 Q1468.62 23.3969 1467.35 23.3969 Q1462.84 23.3969 1460.4 26.3482 Q1458 29.2707 1458 34.7683 L1458 51.84 L1452.65 51.84 L1452.65 19.4328 L1458 19.4328 L1458 24.4675 Q1459.68 21.5161 1462.37 20.0983 Q1465.06 18.6515 1468.91 18.6515 Q1469.46 18.6515 1470.13 18.7383 Q1470.79 18.7962 1471.6 18.9409 L1471.63 24.4096 Z" fill="#000000" fill-rule="nonzero" fill-opacity="1" /><path clip-path="url(#clip800)" d="M1477.22 19.4328 L1482.54 19.4328 L1482.54 51.84 L1477.22 51.84 L1477.22 19.4328 M1477.22 6.81709 L1482.54 6.81709 L1482.54 13.559 L1477.22 13.559 L1477.22 6.81709 Z" fill="#000000" fill-rule="nonzero" fill-opacity="1" /><path clip-path="url(#clip800)" d="M1517 20.677 L1517 25.6538 Q1514.74 24.4096 1512.46 23.802 Q1510.2 23.1654 1507.89 23.1654 Q1502.71 23.1654 1499.84 26.464 Q1496.98 29.7336 1496.98 35.6653 Q1496.98 41.597 1499.84 44.8956 Q1502.71 48.1653 1507.89 48.1653 Q1510.2 48.1653 1512.46 47.5576 Q1514.74 46.921 1517 45.6768 L1517 50.5958 Q1514.77 51.6375 1512.37 52.1583 Q1510 52.6791 1507.31 52.6791 Q1499.99 52.6791 1495.68 48.0784 Q1491.36 43.4778 1491.36 35.6653 Q1491.36 27.7371 1495.71 23.1943 Q1500.07 18.6515 1507.66 18.6515 Q1510.11 18.6515 1512.46 19.1724 Q1514.8 19.6642 1517 20.677 Z" fill="#000000" fill-rule="nonzero" fill-opacity="1" /><path clip-path="url(#clip800)" d="M1553.98 34.3054 L1553.98 36.9095 L1529.5 36.9095 Q1529.85 42.4072 1532.8 45.3007 Q1535.78 48.1653 1541.08 48.1653 Q1544.14 48.1653 1547.01 47.4129 Q1549.9 46.6606 1552.74 45.156 L1552.74 50.1907 Q1549.87 51.406 1546.86 52.0425 Q1543.85 52.6791 1540.76 52.6791 Q1533 52.6791 1528.46 48.1653 Q1523.95 43.6514 1523.95 35.9547 Q1523.95 27.9975 1528.23 23.339 Q1532.54 18.6515 1539.83 18.6515 Q1546.37 18.6515 1550.16 22.876 Q1553.98 27.0716 1553.98 34.3054 M1548.66 32.7429 Q1548.6 28.3737 1546.2 25.7695 Q1543.82 23.1654 1539.89 23.1654 Q1535.43 23.1654 1532.74 25.6827 Q1530.08 28.2001 1529.67 32.7718 L1548.66 32.7429 Z" fill="#000000" fill-rule="nonzero" fill-opacity="1" /><path clip-path="url(#clip800)" d="M1594.34 6.87496 Q1590.47 13.53 1588.59 20.0404 Q1586.71 26.5508 1586.71 33.2348 Q1586.71 39.9188 1588.59 46.487 Q1590.5 53.0263 1594.34 59.6525 L1589.72 59.6525 Q1585.37 52.8527 1583.2 46.2845 Q1581.06 39.7162 1581.06 33.2348 Q1581.06 26.7823 1583.2 20.2429 Q1585.35 13.7036 1589.72 6.87496 L1594.34 6.87496 Z" fill="#000000" fill-rule="nonzero" fill-opacity="1" /><path clip-path="url(#clip800)" d="M1631.61 32.2799 L1631.61 51.84 L1626.29 51.84 L1626.29 32.4535 Q1626.29 27.8529 1624.5 25.567 Q1622.7 23.2811 1619.11 23.2811 Q1614.8 23.2811 1612.31 26.03 Q1609.82 28.7788 1609.82 33.5241 L1609.82 51.84 L1604.47 51.84 L1604.47 19.4328 L1609.82 19.4328 L1609.82 24.4675 Q1611.73 21.545 1614.31 20.0983 Q1616.91 18.6515 1620.3 18.6515 Q1625.88 18.6515 1628.75 22.1237 Q1631.61 25.567 1631.61 32.2799 Z" fill="#000000" fill-rule="nonzero" fill-opacity="1" /><path clip-path="url(#clip800)" d="M1642.93 24.9304 L1680.02 24.9304 L1680.02 29.7915 L1642.93 29.7915 L1642.93 24.9304 M1642.93 36.7359 L1680.02 36.7359 L1680.02 41.6549 L1642.93 41.6549 L1642.93 36.7359 Z" fill="#000000" fill-rule="nonzero" fill-opacity="1" /><path clip-path="url(#clip800)" d="M1692.69 8.64 L1715.64 8.64 L1715.64 13.559 L1698.05 13.559 L1698.05 24.1492 Q1699.32 23.7152 1700.59 23.5126 Q1701.87 23.2811 1703.14 23.2811 Q1710.37 23.2811 1714.6 27.2452 Q1718.82 31.2093 1718.82 37.9801 Q1718.82 44.9535 1714.48 48.8308 Q1710.14 52.6791 1702.24 52.6791 Q1699.52 52.6791 1696.69 52.2162 Q1693.88 51.7532 1690.87 50.8273 L1690.87 44.9535 Q1693.48 46.3713 1696.25 47.0657 Q1699.03 47.7602 1702.13 47.7602 Q1707.13 47.7602 1710.06 45.1271 Q1712.98 42.494 1712.98 37.9801 Q1712.98 33.4663 1710.06 30.8332 Q1707.13 28.2001 1702.13 28.2001 Q1699.78 28.2001 1697.44 28.7209 Q1695.13 29.2417 1692.69 30.3413 L1692.69 8.64 Z" fill="#000000" fill-rule="nonzero" fill-opacity="1" /><path clip-path="url(#clip800)" d="M1742.84 12.4884 Q1738.33 12.4884 1736.04 16.9444 Q1733.78 21.3714 1733.78 30.2834 Q1733.78 39.1665 1736.04 43.6225 Q1738.33 48.0495 1742.84 48.0495 Q1747.38 48.0495 1749.64 43.6225 Q1751.92 39.1665 1751.92 30.2834 Q1751.92 21.3714 1749.64 16.9444 Q1747.38 12.4884 1742.84 12.4884 M1742.84 7.85875 Q1750.1 7.85875 1753.92 13.6168 Q1757.77 19.346 1757.77 30.2834 Q1757.77 41.1919 1753.92 46.95 Q1750.1 52.6791 1742.84 52.6791 Q1735.58 52.6791 1731.73 46.95 Q1727.91 41.1919 1727.91 30.2834 Q1727.91 19.346 1731.73 13.6168 Q1735.58 7.85875 1742.84 7.85875 Z" fill="#000000" fill-rule="nonzero" fill-opacity="1" /><path clip-path="url(#clip800)" d="M1780.54 12.4884 Q1776.03 12.4884 1773.74 16.9444 Q1771.48 21.3714 1771.48 30.2834 Q1771.48 39.1665 1773.74 43.6225 Q1776.03 48.0495 1780.54 48.0495 Q1785.08 48.0495 1787.34 43.6225 Q1789.63 39.1665 1789.63 30.2834 Q1789.63 21.3714 1787.34 16.9444 Q1785.08 12.4884 1780.54 12.4884 M1780.54 7.85875 Q1787.8 7.85875 1791.62 13.6168 Q1795.47 19.346 1795.47 30.2834 Q1795.47 41.1919 1791.62 46.95 Q1787.8 52.6791 1780.54 52.6791 Q1773.28 52.6791 1769.43 46.95 Q1765.61 41.1919 1765.61 30.2834 Q1765.61 19.346 1769.43 13.6168 Q1773.28 7.85875 1780.54 7.85875 Z" fill="#000000" fill-rule="nonzero" fill-opacity="1" /><path clip-path="url(#clip800)" d="M1804.15 6.87496 L1808.78 6.87496 Q1813.12 13.7036 1815.26 20.2429 Q1817.43 26.7823 1817.43 33.2348 Q1817.43 39.7162 1815.26 46.2845 Q1813.12 52.8527 1808.78 59.6525 L1804.15 59.6525 Q1808 53.0263 1809.88 46.487 Q1811.79 39.9188 1811.79 33.2348 Q1811.79 26.5508 1809.88 20.0404 Q1808 13.53 1804.15 6.87496 Z" fill="#000000" fill-rule="nonzero" fill-opacity="1" /><path clip-path="url(#clip802)" d="M323.245 1375.29 L323.245 1423.18 L396.76 1423.18 L396.76 1375.29 L323.245 1375.29 L323.245 1375.29  Z" fill="#4682b4" fill-rule="evenodd" fill-opacity="0.6"/>
<polyline clip-path="url(#clip802)" style="stroke:#000000; stroke-linecap:round; stroke-linejoin:round; stroke-width:4; stroke-opacity:1; fill:none" points="323.245,1375.29 323.245,1423.18 396.76,1423.18 396.76,1375.29 323.245,1375.29 "/>
<path clip-path="url(#clip802)" d="M396.76 1207.67 L396.76 1423.18 L470.275 1423.18 L470.275 1207.67 L396.76 1207.67 L396.76 1207.67  Z" fill="#4682b4" fill-rule="evenodd" fill-opacity="0.6"/>
<polyline clip-path="url(#clip802)" style="stroke:#000000; stroke-linecap:round; stroke-linejoin:round; stroke-width:4; stroke-opacity:1; fill:none" points="396.76,1207.67 396.76,1423.18 470.275,1423.18 470.275,1207.67 396.76,1207.67 "/>
<path clip-path="url(#clip802)" d="M470.275 1303.45 L470.275 1423.18 L543.789 1423.18 L543.789 1303.45 L470.275 1303.45 L470.275 1303.45  Z" fill="#4682b4" fill-rule="evenodd" fill-opacity="0.6"/>
<polyline clip-path="url(#clip802)" style="stroke:#000000; stroke-linecap:round; stroke-linejoin:round; stroke-width:4; stroke-opacity:1; fill:none" points="470.275,1303.45 470.275,1423.18 543.789,1423.18 543.789,1303.45 470.275,1303.45 "/>
<path clip-path="url(#clip802)" d="M543.789 872.44 L543.789 1423.18 L617.304 1423.18 L617.304 872.44 L543.789 872.44 L543.789 872.44  Z" fill="#4682b4" fill-rule="evenodd" fill-opacity="0.6"/>
<polyline clip-path="url(#clip802)" style="stroke:#000000; stroke-linecap:round; stroke-linejoin:round; stroke-width:4; stroke-opacity:1; fill:none" points="543.789,872.44 543.789,1423.18 617.304,1423.18 617.304,872.44 543.789,872.44 "/>
<path clip-path="url(#clip802)" d="M617.304 824.549 L617.304 1423.18 L690.819 1423.18 L690.819 824.549 L617.304 824.549 L617.304 824.549  Z" fill="#4682b4" fill-rule="evenodd" fill-opacity="0.6"/>
<polyline clip-path="url(#clip802)" style="stroke:#000000; stroke-linecap:round; stroke-linejoin:round; stroke-width:4; stroke-opacity:1; fill:none" points="617.304,824.549 617.304,1423.18 690.819,1423.18 690.819,824.549 617.304,824.549 "/>
<path clip-path="url(#clip802)" d="M690.819 393.535 L690.819 1423.18 L764.334 1423.18 L764.334 393.535 L690.819 393.535 L690.819 393.535  Z" fill="#4682b4" fill-rule="evenodd" fill-opacity="0.6"/>
<polyline clip-path="url(#clip802)" style="stroke:#000000; stroke-linecap:round; stroke-linejoin:round; stroke-width:4; stroke-opacity:1; fill:none" points="690.819,393.535 690.819,1423.18 764.334,1423.18 764.334,393.535 690.819,393.535 "/>
<path clip-path="url(#clip802)" d="M764.334 178.028 L764.334 1423.18 L837.849 1423.18 L837.849 178.028 L764.334 178.028 L764.334 178.028  Z" fill="#4682b4" fill-rule="evenodd" fill-opacity="0.6"/>
<polyline clip-path="url(#clip802)" style="stroke:#000000; stroke-linecap:round; stroke-linejoin:round; stroke-width:4; stroke-opacity:1; fill:none" points="764.334,178.028 764.334,1423.18 837.849,1423.18 837.849,178.028 764.334,178.028 "/>
<path clip-path="url(#clip802)" d="M837.849 106.192 L837.849 1423.18 L911.364 1423.18 L911.364 106.192 L837.849 106.192 L837.849 106.192  Z" fill="#4682b4" fill-rule="evenodd" fill-opacity="0.6"/>
<polyline clip-path="url(#clip802)" style="stroke:#000000; stroke-linecap:round; stroke-linejoin:round; stroke-width:4; stroke-opacity:1; fill:none" points="837.849,106.192 837.849,1423.18 911.364,1423.18 911.364,106.192 837.849,106.192 "/>
<path clip-path="url(#clip802)" d="M911.364 513.261 L911.364 1423.18 L984.879 1423.18 L984.879 513.261 L911.364 513.261 L911.364 513.261  Z" fill="#4682b4" fill-rule="evenodd" fill-opacity="0.6"/>
<polyline clip-path="url(#clip802)" style="stroke:#000000; stroke-linecap:round; stroke-linejoin:round; stroke-width:4; stroke-opacity:1; fill:none" points="911.364,513.261 911.364,1423.18 984.879,1423.18 984.879,513.261 911.364,513.261 "/>
<path clip-path="url(#clip802)" d="M984.879 441.425 L984.879 1423.18 L1058.39 1423.18 L1058.39 441.425 L984.879 441.425 L984.879 441.425  Z" fill="#4682b4" fill-rule="evenodd" fill-opacity="0.6"/>
<polyline clip-path="url(#clip802)" style="stroke:#000000; stroke-linecap:round; stroke-linejoin:round; stroke-width:4; stroke-opacity:1; fill:none" points="984.879,441.425 984.879,1423.18 1058.39,1423.18 1058.39,441.425 984.879,441.425 "/>
<path clip-path="url(#clip802)" d="M1058.39 345.644 L1058.39 1423.18 L1131.91 1423.18 L1131.91 345.644 L1058.39 345.644 L1058.39 345.644  Z" fill="#4682b4" fill-rule="evenodd" fill-opacity="0.6"/>
<polyline clip-path="url(#clip802)" style="stroke:#000000; stroke-linecap:round; stroke-linejoin:round; stroke-width:4; stroke-opacity:1; fill:none" points="1058.39,345.644 1058.39,1423.18 1131.91,1423.18 1131.91,345.644 1058.39,345.644 "/>
<path clip-path="url(#clip802)" d="M1131.91 561.152 L1131.91 1423.18 L1205.42 1423.18 L1205.42 561.152 L1131.91 561.152 L1131.91 561.152  Z" fill="#4682b4" fill-rule="evenodd" fill-opacity="0.6"/>
<polyline clip-path="url(#clip802)" style="stroke:#000000; stroke-linecap:round; stroke-linejoin:round; stroke-width:4; stroke-opacity:1; fill:none" points="1131.91,561.152 1131.91,1423.18 1205.42,1423.18 1205.42,561.152 1131.91,561.152 "/>
<path clip-path="url(#clip802)" d="M1205.42 872.44 L1205.42 1423.18 L1278.94 1423.18 L1278.94 872.44 L1205.42 872.44 L1205.42 872.44  Z" fill="#4682b4" fill-rule="evenodd" fill-opacity="0.6"/>
<polyline clip-path="url(#clip802)" style="stroke:#000000; stroke-linecap:round; stroke-linejoin:round; stroke-width:4; stroke-opacity:1; fill:none" points="1205.42,872.44 1205.42,1423.18 1278.94,1423.18 1278.94,872.44 1205.42,872.44 "/>
<path clip-path="url(#clip802)" d="M1278.94 800.604 L1278.94 1423.18 L1352.45 1423.18 L1352.45 800.604 L1278.94 800.604 L1278.94 800.604  Z" fill="#4682b4" fill-rule="evenodd" fill-opacity="0.6"/>
<polyline clip-path="url(#clip802)" style="stroke:#000000; stroke-linecap:round; stroke-linejoin:round; stroke-width:4; stroke-opacity:1; fill:none" points="1278.94,800.604 1278.94,1423.18 1352.45,1423.18 1352.45,800.604 1278.94,800.604 "/>
<path clip-path="url(#clip802)" d="M1352.45 1040.06 L1352.45 1423.18 L1425.97 1423.18 L1425.97 1040.06 L1352.45 1040.06 L1352.45 1040.06  Z" fill="#4682b4" fill-rule="evenodd" fill-opacity="0.6"/>
<polyline clip-path="url(#clip802)" style="stroke:#000000; stroke-linecap:round; stroke-linejoin:round; stroke-width:4; stroke-opacity:1; fill:none" points="1352.45,1040.06 1352.45,1423.18 1425.97,1423.18 1425.97,1040.06 1352.45,1040.06 "/>
<path clip-path="url(#clip802)" d="M1425.97 992.166 L1425.97 1423.18 L1499.48 1423.18 L1499.48 992.166 L1425.97 992.166 L1425.97 992.166  Z" fill="#4682b4" fill-rule="evenodd" fill-opacity="0.6"/>
<polyline clip-path="url(#clip802)" style="stroke:#000000; stroke-linecap:round; stroke-linejoin:round; stroke-width:4; stroke-opacity:1; fill:none" points="1425.97,992.166 1425.97,1423.18 1499.48,1423.18 1499.48,992.166 1425.97,992.166 "/>
<path clip-path="url(#clip802)" d="M1499.48 1231.62 L1499.48 1423.18 L1573 1423.18 L1573 1231.62 L1499.48 1231.62 L1499.48 1231.62  Z" fill="#4682b4" fill-rule="evenodd" fill-opacity="0.6"/>
<polyline clip-path="url(#clip802)" style="stroke:#000000; stroke-linecap:round; stroke-linejoin:round; stroke-width:4; stroke-opacity:1; fill:none" points="1499.48,1231.62 1499.48,1423.18 1573,1423.18 1573,1231.62 1499.48,1231.62 "/>
<path clip-path="url(#clip802)" d="M1573 1183.73 L1573 1423.18 L1646.51 1423.18 L1646.51 1183.73 L1573 1183.73 L1573 1183.73  Z" fill="#4682b4" fill-rule="evenodd" fill-opacity="0.6"/>
<polyline clip-path="url(#clip802)" style="stroke:#000000; stroke-linecap:round; stroke-linejoin:round; stroke-width:4; stroke-opacity:1; fill:none" points="1573,1183.73 1573,1423.18 1646.51,1423.18 1646.51,1183.73 1573,1183.73 "/>
<path clip-path="url(#clip802)" d="M1646.51 1231.62 L1646.51 1423.18 L1720.03 1423.18 L1720.03 1231.62 L1646.51 1231.62 L1646.51 1231.62  Z" fill="#4682b4" fill-rule="evenodd" fill-opacity="0.6"/>
<polyline clip-path="url(#clip802)" style="stroke:#000000; stroke-linecap:round; stroke-linejoin:round; stroke-width:4; stroke-opacity:1; fill:none" points="1646.51,1231.62 1646.51,1423.18 1720.03,1423.18 1720.03,1231.62 1646.51,1231.62 "/>
<path clip-path="url(#clip802)" d="M1720.03 1279.51 L1720.03 1423.18 L1793.54 1423.18 L1793.54 1279.51 L1720.03 1279.51 L1720.03 1279.51  Z" fill="#4682b4" fill-rule="evenodd" fill-opacity="0.6"/>
<polyline clip-path="url(#clip802)" style="stroke:#000000; stroke-linecap:round; stroke-linejoin:round; stroke-width:4; stroke-opacity:1; fill:none" points="1720.03,1279.51 1720.03,1423.18 1793.54,1423.18 1793.54,1279.51 1720.03,1279.51 "/>
<path clip-path="url(#clip802)" d="M1793.54 1375.29 L1793.54 1423.18 L1867.06 1423.18 L1867.06 1375.29 L1793.54 1375.29 L1793.54 1375.29  Z" fill="#4682b4" fill-rule="evenodd" fill-opacity="0.6"/>
<polyline clip-path="url(#clip802)" style="stroke:#000000; stroke-linecap:round; stroke-linejoin:round; stroke-width:4; stroke-opacity:1; fill:none" points="1793.54,1375.29 1793.54,1423.18 1867.06,1423.18 1867.06,1375.29 1793.54,1375.29 "/>
<path clip-path="url(#clip802)" d="M1867.06 1375.29 L1867.06 1423.18 L1940.57 1423.18 L1940.57 1375.29 L1867.06 1375.29 L1867.06 1375.29  Z" fill="#4682b4" fill-rule="evenodd" fill-opacity="0.6"/>
<polyline clip-path="url(#clip802)" style="stroke:#000000; stroke-linecap:round; stroke-linejoin:round; stroke-width:4; stroke-opacity:1; fill:none" points="1867.06,1375.29 1867.06,1423.18 1940.57,1423.18 1940.57,1375.29 1867.06,1375.29 "/>
<path clip-path="url(#clip802)" d="M1940.57 1327.4 L1940.57 1423.18 L2014.09 1423.18 L2014.09 1327.4 L1940.57 1327.4 L1940.57 1327.4  Z" fill="#4682b4" fill-rule="evenodd" fill-opacity="0.6"/>
<polyline clip-path="url(#clip802)" style="stroke:#000000; stroke-linecap:round; stroke-linejoin:round; stroke-width:4; stroke-opacity:1; fill:none" points="1940.57,1327.4 1940.57,1423.18 2014.09,1423.18 2014.09,1327.4 1940.57,1327.4 "/>
<path clip-path="url(#clip802)" d="M2014.09 1399.23 L2014.09 1423.18 L2087.6 1423.18 L2087.6 1399.23 L2014.09 1399.23 L2014.09 1399.23  Z" fill="#4682b4" fill-rule="evenodd" fill-opacity="0.6"/>
<polyline clip-path="url(#clip802)" style="stroke:#000000; stroke-linecap:round; stroke-linejoin:round; stroke-width:4; stroke-opacity:1; fill:none" points="2014.09,1399.23 2014.09,1423.18 2087.6,1423.18 2087.6,1399.23 2014.09,1399.23 "/>
<path clip-path="url(#clip802)" d="M2087.6 1399.23 L2087.6 1423.18 L2161.12 1423.18 L2161.12 1399.23 L2087.6 1399.23 L2087.6 1399.23  Z" fill="#4682b4" fill-rule="evenodd" fill-opacity="0.6"/>
<polyline clip-path="url(#clip802)" style="stroke:#000000; stroke-linecap:round; stroke-linejoin:round; stroke-width:4; stroke-opacity:1; fill:none" points="2087.6,1399.23 2087.6,1423.18 2161.12,1423.18 2161.12,1399.23 2087.6,1399.23 "/>
<path clip-path="url(#clip802)" d="M2161.12 1399.23 L2161.12 1423.18 L2234.63 1423.18 L2234.63 1399.23 L2161.12 1399.23 L2161.12 1399.23  Z" fill="#4682b4" fill-rule="evenodd" fill-opacity="0.6"/>
<polyline clip-path="url(#clip802)" style="stroke:#000000; stroke-linecap:round; stroke-linejoin:round; stroke-width:4; stroke-opacity:1; fill:none" points="2161.12,1399.23 2161.12,1423.18 2234.63,1423.18 2234.63,1399.23 2161.12,1399.23 "/>
<circle clip-path="url(#clip802)" style="fill:#4682b4; stroke:none; fill-opacity:0" cx="360.002" cy="1375.29" r="2"/>
<circle clip-path="url(#clip802)" style="fill:#4682b4; stroke:none; fill-opacity:0" cx="433.517" cy="1207.67" r="2"/>
<circle clip-path="url(#clip802)" style="fill:#4682b4; stroke:none; fill-opacity:0" cx="507.032" cy="1303.45" r="2"/>
<circle clip-path="url(#clip802)" style="fill:#4682b4; stroke:none; fill-opacity:0" cx="580.547" cy="872.44" r="2"/>
<circle clip-path="url(#clip802)" style="fill:#4682b4; stroke:none; fill-opacity:0" cx="654.062" cy="824.549" r="2"/>
<circle clip-path="url(#clip802)" style="fill:#4682b4; stroke:none; fill-opacity:0" cx="727.577" cy="393.535" r="2"/>
<circle clip-path="url(#clip802)" style="fill:#4682b4; stroke:none; fill-opacity:0" cx="801.092" cy="178.028" r="2"/>
<circle clip-path="url(#clip802)" style="fill:#4682b4; stroke:none; fill-opacity:0" cx="874.606" cy="106.192" r="2"/>
<circle clip-path="url(#clip802)" style="fill:#4682b4; stroke:none; fill-opacity:0" cx="948.121" cy="513.261" r="2"/>
<circle clip-path="url(#clip802)" style="fill:#4682b4; stroke:none; fill-opacity:0" cx="1021.64" cy="441.425" r="2"/>
<circle clip-path="url(#clip802)" style="fill:#4682b4; stroke:none; fill-opacity:0" cx="1095.15" cy="345.644" r="2"/>
<circle clip-path="url(#clip802)" style="fill:#4682b4; stroke:none; fill-opacity:0" cx="1168.67" cy="561.152" r="2"/>
<circle clip-path="url(#clip802)" style="fill:#4682b4; stroke:none; fill-opacity:0" cx="1242.18" cy="872.44" r="2"/>
<circle clip-path="url(#clip802)" style="fill:#4682b4; stroke:none; fill-opacity:0" cx="1315.7" cy="800.604" r="2"/>
<circle clip-path="url(#clip802)" style="fill:#4682b4; stroke:none; fill-opacity:0" cx="1389.21" cy="1040.06" r="2"/>
<circle clip-path="url(#clip802)" style="fill:#4682b4; stroke:none; fill-opacity:0" cx="1462.73" cy="992.166" r="2"/>
<circle clip-path="url(#clip802)" style="fill:#4682b4; stroke:none; fill-opacity:0" cx="1536.24" cy="1231.62" r="2"/>
<circle clip-path="url(#clip802)" style="fill:#4682b4; stroke:none; fill-opacity:0" cx="1609.76" cy="1183.73" r="2"/>
<circle clip-path="url(#clip802)" style="fill:#4682b4; stroke:none; fill-opacity:0" cx="1683.27" cy="1231.62" r="2"/>
<circle clip-path="url(#clip802)" style="fill:#4682b4; stroke:none; fill-opacity:0" cx="1756.79" cy="1279.51" r="2"/>
<circle clip-path="url(#clip802)" style="fill:#4682b4; stroke:none; fill-opacity:0" cx="1830.3" cy="1375.29" r="2"/>
<circle clip-path="url(#clip802)" style="fill:#4682b4; stroke:none; fill-opacity:0" cx="1903.82" cy="1375.29" r="2"/>
<circle clip-path="url(#clip802)" style="fill:#4682b4; stroke:none; fill-opacity:0" cx="1977.33" cy="1327.4" r="2"/>
<circle clip-path="url(#clip802)" style="fill:#4682b4; stroke:none; fill-opacity:0" cx="2050.84" cy="1399.23" r="2"/>
<circle clip-path="url(#clip802)" style="fill:#4682b4; stroke:none; fill-opacity:0" cx="2124.36" cy="1399.23" r="2"/>
<circle clip-path="url(#clip802)" style="fill:#4682b4; stroke:none; fill-opacity:0" cx="2197.87" cy="1399.23" r="2"/>
<polyline clip-path="url(#clip802)" style="stroke:#ff0000; stroke-linecap:round; stroke-linejoin:round; stroke-width:8; stroke-opacity:1; fill:none" points="1367.09,2740.17 1367.09,-1210.8 "/>
<polyline clip-path="url(#clip802)" style="stroke:#0000ff; stroke-linecap:round; stroke-linejoin:round; stroke-width:8; stroke-opacity:1; fill:none" stroke-dasharray="32, 20" points="976.088,2740.17 976.088,-1210.8 "/>
<path clip-path="url(#clip800)" d="M1632.33 357.452 L2281.17 357.452 L2281.17 150.092 L1632.33 150.092  Z" fill="#ffffff" fill-rule="evenodd" fill-opacity="1"/>
<polyline clip-path="url(#clip800)" style="stroke:#000000; stroke-linecap:round; stroke-linejoin:round; stroke-width:4; stroke-opacity:1; fill:none" points="1632.33,357.452 2281.17,357.452 2281.17,150.092 1632.33,150.092 1632.33,357.452 "/>
<path clip-path="url(#clip800)" d="M1656.2 222.668 L1799.37 222.668 L1799.37 181.196 L1656.2 181.196 L1656.2 222.668  Z" fill="#4682b4" fill-rule="evenodd" fill-opacity="0.6"/>
<polyline clip-path="url(#clip800)" style="stroke:#000000; stroke-linecap:round; stroke-linejoin:round; stroke-width:4; stroke-opacity:1; fill:none" points="1656.2,222.668 1799.37,222.668 1799.37,181.196 1656.2,181.196 1656.2,222.668 "/>
<path clip-path="url(#clip800)" d="M1845.48 185.786 L1845.48 190.346 Q1842.82 189.073 1840.46 188.448 Q1838.09 187.823 1835.9 187.823 Q1832.08 187.823 1829.99 189.304 Q1827.93 190.786 1827.93 193.517 Q1827.93 195.809 1829.3 196.99 Q1830.69 198.147 1834.53 198.865 L1837.35 199.443 Q1842.59 200.439 1845.06 202.962 Q1847.56 205.462 1847.56 209.675 Q1847.56 214.698 1844.18 217.29 Q1840.83 219.883 1834.32 219.883 Q1831.87 219.883 1829.09 219.327 Q1826.34 218.772 1823.37 217.684 L1823.37 212.869 Q1826.22 214.466 1828.95 215.277 Q1831.68 216.087 1834.32 216.087 Q1838.33 216.087 1840.5 214.513 Q1842.68 212.939 1842.68 210.022 Q1842.68 207.476 1841.1 206.04 Q1839.55 204.605 1835.99 203.888 L1833.14 203.332 Q1827.91 202.291 1825.57 200.068 Q1823.23 197.846 1823.23 193.888 Q1823.23 189.304 1826.45 186.666 Q1829.69 184.027 1835.36 184.027 Q1837.79 184.027 1840.32 184.467 Q1842.84 184.906 1845.48 185.786 Z" fill="#000000" fill-rule="nonzero" fill-opacity="1" /><path clip-path="url(#clip800)" d="M1854.67 193.286 L1858.93 193.286 L1858.93 219.212 L1854.67 219.212 L1854.67 193.286 M1854.67 183.193 L1858.93 183.193 L1858.93 188.587 L1854.67 188.587 L1854.67 183.193 Z" fill="#000000" fill-rule="nonzero" fill-opacity="1" /><path clip-path="url(#clip800)" d="M1888.03 198.263 Q1889.62 195.392 1891.84 194.027 Q1894.07 192.661 1897.08 192.661 Q1901.13 192.661 1903.33 195.508 Q1905.52 198.332 1905.52 203.564 L1905.52 219.212 L1901.24 219.212 L1901.24 203.703 Q1901.24 199.976 1899.92 198.17 Q1898.6 196.365 1895.9 196.365 Q1892.59 196.365 1890.66 198.564 Q1888.74 200.763 1888.74 204.559 L1888.74 219.212 L1884.46 219.212 L1884.46 203.703 Q1884.46 199.953 1883.14 198.17 Q1881.82 196.365 1879.07 196.365 Q1875.8 196.365 1873.88 198.587 Q1871.96 200.786 1871.96 204.559 L1871.96 219.212 L1867.68 219.212 L1867.68 193.286 L1871.96 193.286 L1871.96 197.314 Q1873.42 194.929 1875.46 193.795 Q1877.49 192.661 1880.29 192.661 Q1883.12 192.661 1885.09 194.096 Q1887.08 195.531 1888.03 198.263 Z" fill="#000000" fill-rule="nonzero" fill-opacity="1" /><path clip-path="url(#clip800)" d="M1913.58 208.98 L1913.58 193.286 L1917.84 193.286 L1917.84 208.818 Q1917.84 212.499 1919.27 214.351 Q1920.71 216.179 1923.58 216.179 Q1927.03 216.179 1929.02 213.98 Q1931.03 211.781 1931.03 207.985 L1931.03 193.286 L1935.29 193.286 L1935.29 219.212 L1931.03 219.212 L1931.03 215.23 Q1929.48 217.591 1927.42 218.749 Q1925.39 219.883 1922.68 219.883 Q1918.21 219.883 1915.9 217.105 Q1913.58 214.327 1913.58 208.98 M1924.3 192.661 L1924.3 192.661 Z" fill="#000000" fill-rule="nonzero" fill-opacity="1" /><path clip-path="url(#clip800)" d="M1944.07 183.193 L1948.33 183.193 L1948.33 219.212 L1944.07 219.212 L1944.07 183.193 Z" fill="#000000" fill-rule="nonzero" fill-opacity="1" /><path clip-path="url(#clip800)" d="M1969.02 206.179 Q1963.86 206.179 1961.87 207.36 Q1959.88 208.54 1959.88 211.388 Q1959.88 213.656 1961.36 214.999 Q1962.86 216.318 1965.43 216.318 Q1968.97 216.318 1971.1 213.818 Q1973.26 211.295 1973.26 207.128 L1973.26 206.179 L1969.02 206.179 M1977.52 204.42 L1977.52 219.212 L1973.26 219.212 L1973.26 215.277 Q1971.8 217.638 1969.62 218.772 Q1967.45 219.883 1964.3 219.883 Q1960.32 219.883 1957.96 217.661 Q1955.62 215.415 1955.62 211.665 Q1955.62 207.29 1958.53 205.068 Q1961.47 202.846 1967.28 202.846 L1973.26 202.846 L1973.26 202.429 Q1973.26 199.49 1971.31 197.892 Q1969.39 196.272 1965.89 196.272 Q1963.67 196.272 1961.57 196.804 Q1959.46 197.337 1957.52 198.402 L1957.52 194.466 Q1959.85 193.564 1962.05 193.124 Q1964.25 192.661 1966.33 192.661 Q1971.96 192.661 1974.74 195.578 Q1977.52 198.494 1977.52 204.42 Z" fill="#000000" fill-rule="nonzero" fill-opacity="1" /><path clip-path="url(#clip800)" d="M1990.5 185.925 L1990.5 193.286 L1999.27 193.286 L1999.27 196.596 L1990.5 196.596 L1990.5 210.67 Q1990.5 213.841 1991.36 214.744 Q1992.24 215.647 1994.9 215.647 L1999.27 215.647 L1999.27 219.212 L1994.9 219.212 Q1989.97 219.212 1988.09 217.383 Q1986.22 215.531 1986.22 210.67 L1986.22 196.596 L1983.09 196.596 L1983.09 193.286 L1986.22 193.286 L1986.22 185.925 L1990.5 185.925 Z" fill="#000000" fill-rule="nonzero" fill-opacity="1" /><path clip-path="url(#clip800)" d="M2027.05 205.184 L2027.05 207.267 L2007.47 207.267 Q2007.75 211.665 2010.11 213.98 Q2012.49 216.272 2016.73 216.272 Q2019.18 216.272 2021.47 215.67 Q2023.79 215.068 2026.06 213.865 L2026.06 217.892 Q2023.77 218.864 2021.36 219.374 Q2018.95 219.883 2016.47 219.883 Q2010.27 219.883 2006.64 216.272 Q2003.02 212.661 2003.02 206.503 Q2003.02 200.138 2006.45 196.411 Q2009.9 192.661 2015.73 192.661 Q2020.96 192.661 2024 196.041 Q2027.05 199.397 2027.05 205.184 M2022.79 203.934 Q2022.75 200.439 2020.83 198.355 Q2018.93 196.272 2015.78 196.272 Q2012.21 196.272 2010.06 198.286 Q2007.93 200.3 2007.61 203.957 L2022.79 203.934 Z" fill="#000000" fill-rule="nonzero" fill-opacity="1" /><path clip-path="url(#clip800)" d="M2051.1 197.221 L2051.1 183.193 L2055.36 183.193 L2055.36 219.212 L2051.1 219.212 L2051.1 215.323 Q2049.76 217.638 2047.7 218.772 Q2045.66 219.883 2042.79 219.883 Q2038.09 219.883 2035.13 216.133 Q2032.19 212.383 2032.19 206.272 Q2032.19 200.161 2035.13 196.411 Q2038.09 192.661 2042.79 192.661 Q2045.66 192.661 2047.7 193.795 Q2049.76 194.906 2051.1 197.221 M2036.59 206.272 Q2036.59 210.971 2038.51 213.656 Q2040.45 216.318 2043.83 216.318 Q2047.21 216.318 2049.16 213.656 Q2051.1 210.971 2051.1 206.272 Q2051.1 201.573 2049.16 198.911 Q2047.21 196.226 2043.83 196.226 Q2040.45 196.226 2038.51 198.911 Q2036.59 201.573 2036.59 206.272 Z" fill="#000000" fill-rule="nonzero" fill-opacity="1" /><polyline clip-path="url(#clip800)" style="stroke:#ff0000; stroke-linecap:round; stroke-linejoin:round; stroke-width:8; stroke-opacity:1; fill:none" points="1656.2,253.772 1799.37,253.772 "/>
<path clip-path="url(#clip800)" d="M1839.25 239.663 Q1834.16 239.663 1831.15 243.459 Q1828.16 247.256 1828.16 253.806 Q1828.16 260.334 1831.15 264.13 Q1834.16 267.927 1839.25 267.927 Q1844.34 267.927 1847.31 264.13 Q1850.29 260.334 1850.29 253.806 Q1850.29 247.256 1847.31 243.459 Q1844.34 239.663 1839.25 239.663 M1839.25 235.867 Q1846.52 235.867 1850.87 240.751 Q1855.22 245.612 1855.22 253.806 Q1855.22 261.978 1850.87 266.862 Q1846.52 271.723 1839.25 271.723 Q1831.96 271.723 1827.59 266.862 Q1823.23 262.001 1823.23 253.806 Q1823.23 245.612 1827.59 240.751 Q1831.96 235.867 1839.25 235.867 Z" fill="#000000" fill-rule="nonzero" fill-opacity="1" /><path clip-path="url(#clip800)" d="M1880.96 258.112 Q1880.96 253.413 1879.02 250.751 Q1877.1 248.066 1873.72 248.066 Q1870.34 248.066 1868.4 250.751 Q1866.47 253.413 1866.47 258.112 Q1866.47 262.811 1868.4 265.496 Q1870.34 268.158 1873.72 268.158 Q1877.1 268.158 1879.02 265.496 Q1880.96 262.811 1880.96 258.112 M1866.47 249.061 Q1867.82 246.746 1869.85 245.635 Q1871.91 244.501 1874.76 244.501 Q1879.48 244.501 1882.42 248.251 Q1885.39 252.001 1885.39 258.112 Q1885.39 264.223 1882.42 267.973 Q1879.48 271.723 1874.76 271.723 Q1871.91 271.723 1869.85 270.612 Q1867.82 269.478 1866.47 267.163 L1866.47 271.052 L1862.19 271.052 L1862.19 235.033 L1866.47 235.033 L1866.47 249.061 Z" fill="#000000" fill-rule="nonzero" fill-opacity="1" /><path clip-path="url(#clip800)" d="M1908.97 245.89 L1908.97 249.918 Q1907.17 248.992 1905.22 248.529 Q1903.28 248.066 1901.2 248.066 Q1898.02 248.066 1896.43 249.038 Q1894.85 250.01 1894.85 251.955 Q1894.85 253.436 1895.99 254.293 Q1897.12 255.126 1900.55 255.89 L1902.01 256.214 Q1906.54 257.186 1908.44 258.968 Q1910.36 260.728 1910.36 263.899 Q1910.36 267.51 1907.49 269.617 Q1904.65 271.723 1899.65 271.723 Q1897.56 271.723 1895.29 271.306 Q1893.05 270.913 1890.55 270.103 L1890.55 265.705 Q1892.91 266.931 1895.2 267.556 Q1897.49 268.158 1899.74 268.158 Q1902.75 268.158 1904.37 267.14 Q1905.99 266.098 1905.99 264.223 Q1905.99 262.487 1904.81 261.561 Q1903.65 260.635 1899.69 259.779 L1898.21 259.431 Q1894.25 258.598 1892.49 256.885 Q1890.73 255.149 1890.73 252.14 Q1890.73 248.482 1893.33 246.492 Q1895.92 244.501 1900.69 244.501 Q1903.05 244.501 1905.13 244.848 Q1907.21 245.195 1908.97 245.89 Z" fill="#000000" fill-rule="nonzero" fill-opacity="1" /><path clip-path="url(#clip800)" d="M1939.32 257.024 L1939.32 259.107 L1919.74 259.107 Q1920.02 263.505 1922.38 265.82 Q1924.76 268.112 1929 268.112 Q1931.45 268.112 1933.74 267.51 Q1936.06 266.908 1938.33 265.705 L1938.33 269.732 Q1936.03 270.704 1933.63 271.214 Q1931.22 271.723 1928.74 271.723 Q1922.54 271.723 1918.9 268.112 Q1915.29 264.501 1915.29 258.343 Q1915.29 251.978 1918.72 248.251 Q1922.17 244.501 1928 244.501 Q1933.23 244.501 1936.27 247.881 Q1939.32 251.237 1939.32 257.024 M1935.06 255.774 Q1935.02 252.279 1933.09 250.195 Q1931.2 248.112 1928.05 248.112 Q1924.48 248.112 1922.33 250.126 Q1920.2 252.14 1919.88 255.797 L1935.06 255.774 Z" fill="#000000" fill-rule="nonzero" fill-opacity="1" /><path clip-path="url(#clip800)" d="M1961.33 249.107 Q1960.62 248.691 1959.76 248.506 Q1958.93 248.297 1957.91 248.297 Q1954.3 248.297 1952.35 250.658 Q1950.43 252.996 1950.43 257.394 L1950.43 271.052 L1946.15 271.052 L1946.15 245.126 L1950.43 245.126 L1950.43 249.154 Q1951.77 246.793 1953.93 245.658 Q1956.08 244.501 1959.16 244.501 Q1959.6 244.501 1960.13 244.57 Q1960.66 244.617 1961.31 244.732 L1961.33 249.107 Z" fill="#000000" fill-rule="nonzero" fill-opacity="1" /><path clip-path="url(#clip800)" d="M1962.75 245.126 L1967.26 245.126 L1975.36 266.885 L1983.46 245.126 L1987.98 245.126 L1978.26 271.052 L1972.47 271.052 L1962.75 245.126 Z" fill="#000000" fill-rule="nonzero" fill-opacity="1" /><path clip-path="url(#clip800)" d="M2016.03 257.024 L2016.03 259.107 L1996.45 259.107 Q1996.73 263.505 1999.09 265.82 Q2001.47 268.112 2005.71 268.112 Q2008.16 268.112 2010.45 267.51 Q2012.77 266.908 2015.04 265.705 L2015.04 269.732 Q2012.75 270.704 2010.34 271.214 Q2007.93 271.723 2005.45 271.723 Q1999.25 271.723 1995.62 268.112 Q1992.01 264.501 1992.01 258.343 Q1992.01 251.978 1995.43 248.251 Q1998.88 244.501 2004.71 244.501 Q2009.95 244.501 2012.98 247.881 Q2016.03 251.237 2016.03 257.024 M2011.77 255.774 Q2011.73 252.279 2009.81 250.195 Q2007.91 248.112 2004.76 248.112 Q2001.2 248.112 1999.04 250.126 Q1996.91 252.14 1996.59 255.797 L2011.77 255.774 Z" fill="#000000" fill-rule="nonzero" fill-opacity="1" /><path clip-path="url(#clip800)" d="M2040.08 249.061 L2040.08 235.033 L2044.34 235.033 L2044.34 271.052 L2040.08 271.052 L2040.08 267.163 Q2038.74 269.478 2036.68 270.612 Q2034.64 271.723 2031.77 271.723 Q2027.08 271.723 2024.11 267.973 Q2021.17 264.223 2021.17 258.112 Q2021.17 252.001 2024.11 248.251 Q2027.08 244.501 2031.77 244.501 Q2034.64 244.501 2036.68 245.635 Q2038.74 246.746 2040.08 249.061 M2025.57 258.112 Q2025.57 262.811 2027.49 265.496 Q2029.44 268.158 2032.82 268.158 Q2036.2 268.158 2038.14 265.496 Q2040.08 262.811 2040.08 258.112 Q2040.08 253.413 2038.14 250.751 Q2036.2 248.066 2032.82 248.066 Q2029.44 248.066 2027.49 250.751 Q2025.57 253.413 2025.57 258.112 Z" fill="#000000" fill-rule="nonzero" fill-opacity="1" /><path clip-path="url(#clip800)" d="M2072.4 237.765 L2072.4 245.126 L2081.17 245.126 L2081.17 248.436 L2072.4 248.436 L2072.4 262.51 Q2072.4 265.681 2073.26 266.584 Q2074.14 267.487 2076.8 267.487 L2081.17 267.487 L2081.17 271.052 L2076.8 271.052 Q2071.87 271.052 2069.99 269.223 Q2068.12 267.371 2068.12 262.51 L2068.12 248.436 L2064.99 248.436 L2064.99 245.126 L2068.12 245.126 L2068.12 237.765 L2072.4 237.765 Z" fill="#000000" fill-rule="nonzero" fill-opacity="1" /><path clip-path="url(#clip800)" d="M2108.95 257.024 L2108.95 259.107 L2089.37 259.107 Q2089.64 263.505 2092.01 265.82 Q2094.39 268.112 2098.63 268.112 Q2101.08 268.112 2103.37 267.51 Q2105.69 266.908 2107.95 265.705 L2107.95 269.732 Q2105.66 270.704 2103.26 271.214 Q2100.85 271.723 2098.37 271.723 Q2092.17 271.723 2088.53 268.112 Q2084.92 264.501 2084.92 258.343 Q2084.92 251.978 2088.35 248.251 Q2091.8 244.501 2097.63 244.501 Q2102.86 244.501 2105.89 247.881 Q2108.95 251.237 2108.95 257.024 M2104.69 255.774 Q2104.64 252.279 2102.72 250.195 Q2100.82 248.112 2097.68 248.112 Q2094.11 248.112 2091.96 250.126 Q2089.83 252.14 2089.51 255.797 L2104.69 255.774 Z" fill="#000000" fill-rule="nonzero" fill-opacity="1" /><path clip-path="url(#clip800)" d="M2130.96 249.107 Q2130.25 248.691 2129.39 248.506 Q2128.56 248.297 2127.54 248.297 Q2123.93 248.297 2121.98 250.658 Q2120.06 252.996 2120.06 257.394 L2120.06 271.052 L2115.78 271.052 L2115.78 245.126 L2120.06 245.126 L2120.06 249.154 Q2121.4 246.793 2123.56 245.658 Q2125.71 244.501 2128.79 244.501 Q2129.23 244.501 2129.76 244.57 Q2130.29 244.617 2130.94 244.732 L2130.96 249.107 Z" fill="#000000" fill-rule="nonzero" fill-opacity="1" /><path clip-path="url(#clip800)" d="M2154.78 250.103 Q2156.38 247.232 2158.6 245.867 Q2160.82 244.501 2163.83 244.501 Q2167.88 244.501 2170.08 247.348 Q2172.28 250.172 2172.28 255.404 L2172.28 271.052 L2168 271.052 L2168 255.543 Q2168 251.816 2166.68 250.01 Q2165.36 248.205 2162.65 248.205 Q2159.34 248.205 2157.42 250.404 Q2155.5 252.603 2155.5 256.399 L2155.5 271.052 L2151.22 271.052 L2151.22 255.543 Q2151.22 251.793 2149.9 250.01 Q2148.58 248.205 2145.82 248.205 Q2142.56 248.205 2140.64 250.427 Q2138.72 252.626 2138.72 256.399 L2138.72 271.052 L2134.44 271.052 L2134.44 245.126 L2138.72 245.126 L2138.72 249.154 Q2140.18 246.769 2142.21 245.635 Q2144.25 244.501 2147.05 244.501 Q2149.88 244.501 2151.84 245.936 Q2153.83 247.371 2154.78 250.103 Z" fill="#000000" fill-rule="nonzero" fill-opacity="1" /><path clip-path="url(#clip800)" d="M2180.78 245.126 L2185.04 245.126 L2185.04 271.052 L2180.78 271.052 L2180.78 245.126 M2180.78 235.033 L2185.04 235.033 L2185.04 240.427 L2180.78 240.427 L2180.78 235.033 Z" fill="#000000" fill-rule="nonzero" fill-opacity="1" /><path clip-path="url(#clip800)" d="M2215.5 255.404 L2215.5 271.052 L2211.24 271.052 L2211.24 255.543 Q2211.24 251.862 2209.81 250.033 Q2208.37 248.205 2205.5 248.205 Q2202.05 248.205 2200.06 250.404 Q2198.07 252.603 2198.07 256.399 L2198.07 271.052 L2193.79 271.052 L2193.79 245.126 L2198.07 245.126 L2198.07 249.154 Q2199.6 246.816 2201.66 245.658 Q2203.74 244.501 2206.45 244.501 Q2210.92 244.501 2213.21 247.279 Q2215.5 250.033 2215.5 255.404 Z" fill="#000000" fill-rule="nonzero" fill-opacity="1" /><path clip-path="url(#clip800)" d="M2235.78 258.019 Q2230.62 258.019 2228.63 259.2 Q2226.63 260.38 2226.63 263.228 Q2226.63 265.496 2228.12 266.839 Q2229.62 268.158 2232.19 268.158 Q2235.73 268.158 2237.86 265.658 Q2240.01 263.135 2240.01 258.968 L2240.01 258.019 L2235.78 258.019 M2244.27 256.26 L2244.27 271.052 L2240.01 271.052 L2240.01 267.117 Q2238.56 269.478 2236.38 270.612 Q2234.2 271.723 2231.06 271.723 Q2227.07 271.723 2224.71 269.501 Q2222.38 267.255 2222.38 263.505 Q2222.38 259.13 2225.29 256.908 Q2228.23 254.686 2234.04 254.686 L2240.01 254.686 L2240.01 254.269 Q2240.01 251.33 2238.07 249.732 Q2236.15 248.112 2232.65 248.112 Q2230.43 248.112 2228.32 248.644 Q2226.22 249.177 2224.27 250.242 L2224.27 246.306 Q2226.61 245.404 2228.81 244.964 Q2231.01 244.501 2233.09 244.501 Q2238.72 244.501 2241.5 247.418 Q2244.27 250.334 2244.27 256.26 Z" fill="#000000" fill-rule="nonzero" fill-opacity="1" /><path clip-path="url(#clip800)" d="M2253.05 235.033 L2257.31 235.033 L2257.31 271.052 L2253.05 271.052 L2253.05 235.033 Z" fill="#000000" fill-rule="nonzero" fill-opacity="1" /><polyline clip-path="url(#clip800)" style="stroke:#0000ff; stroke-linecap:round; stroke-linejoin:round; stroke-width:8; stroke-opacity:1; fill:none" stroke-dasharray="32, 20" points="1656.2,305.612 1799.37,305.612 "/>
<path clip-path="url(#clip800)" d="M1845.48 289.466 L1845.48 294.026 Q1842.82 292.753 1840.46 292.128 Q1838.09 291.503 1835.9 291.503 Q1832.08 291.503 1829.99 292.984 Q1827.93 294.466 1827.93 297.197 Q1827.93 299.489 1829.3 300.67 Q1830.69 301.827 1834.53 302.545 L1837.35 303.123 Q1842.59 304.119 1845.06 306.642 Q1847.56 309.142 1847.56 313.355 Q1847.56 318.378 1844.18 320.97 Q1840.83 323.563 1834.32 323.563 Q1831.87 323.563 1829.09 323.007 Q1826.34 322.452 1823.37 321.364 L1823.37 316.549 Q1826.22 318.146 1828.95 318.957 Q1831.68 319.767 1834.32 319.767 Q1838.33 319.767 1840.5 318.193 Q1842.68 316.619 1842.68 313.702 Q1842.68 311.156 1841.1 309.72 Q1839.55 308.285 1835.99 307.568 L1833.14 307.012 Q1827.91 305.971 1825.57 303.748 Q1823.23 301.526 1823.23 297.568 Q1823.23 292.984 1826.45 290.346 Q1829.69 287.707 1835.36 287.707 Q1837.79 287.707 1840.32 288.147 Q1842.84 288.586 1845.48 289.466 Z" fill="#000000" fill-rule="nonzero" fill-opacity="1" /><path clip-path="url(#clip800)" d="M1854.67 296.966 L1858.93 296.966 L1858.93 322.892 L1854.67 322.892 L1854.67 296.966 M1854.67 286.873 L1858.93 286.873 L1858.93 292.267 L1854.67 292.267 L1854.67 286.873 Z" fill="#000000" fill-rule="nonzero" fill-opacity="1" /><path clip-path="url(#clip800)" d="M1888.03 301.943 Q1889.62 299.072 1891.84 297.707 Q1894.07 296.341 1897.08 296.341 Q1901.13 296.341 1903.33 299.188 Q1905.52 302.012 1905.52 307.244 L1905.52 322.892 L1901.24 322.892 L1901.24 307.383 Q1901.24 303.656 1899.92 301.85 Q1898.6 300.045 1895.9 300.045 Q1892.59 300.045 1890.66 302.244 Q1888.74 304.443 1888.74 308.239 L1888.74 322.892 L1884.46 322.892 L1884.46 307.383 Q1884.46 303.633 1883.14 301.85 Q1881.82 300.045 1879.07 300.045 Q1875.8 300.045 1873.88 302.267 Q1871.96 304.466 1871.96 308.239 L1871.96 322.892 L1867.68 322.892 L1867.68 296.966 L1871.96 296.966 L1871.96 300.994 Q1873.42 298.609 1875.46 297.475 Q1877.49 296.341 1880.29 296.341 Q1883.12 296.341 1885.09 297.776 Q1887.08 299.211 1888.03 301.943 Z" fill="#000000" fill-rule="nonzero" fill-opacity="1" /><path clip-path="url(#clip800)" d="M1913.58 312.66 L1913.58 296.966 L1917.84 296.966 L1917.84 312.498 Q1917.84 316.179 1919.27 318.031 Q1920.71 319.859 1923.58 319.859 Q1927.03 319.859 1929.02 317.66 Q1931.03 315.461 1931.03 311.665 L1931.03 296.966 L1935.29 296.966 L1935.29 322.892 L1931.03 322.892 L1931.03 318.91 Q1929.48 321.271 1927.42 322.429 Q1925.39 323.563 1922.68 323.563 Q1918.21 323.563 1915.9 320.785 Q1913.58 318.007 1913.58 312.66 M1924.3 296.341 L1924.3 296.341 Z" fill="#000000" fill-rule="nonzero" fill-opacity="1" /><path clip-path="url(#clip800)" d="M1944.07 286.873 L1948.33 286.873 L1948.33 322.892 L1944.07 322.892 L1944.07 286.873 Z" fill="#000000" fill-rule="nonzero" fill-opacity="1" /><path clip-path="url(#clip800)" d="M1969.02 309.859 Q1963.86 309.859 1961.87 311.04 Q1959.88 312.22 1959.88 315.068 Q1959.88 317.336 1961.36 318.679 Q1962.86 319.998 1965.43 319.998 Q1968.97 319.998 1971.1 317.498 Q1973.26 314.975 1973.26 310.808 L1973.26 309.859 L1969.02 309.859 M1977.52 308.1 L1977.52 322.892 L1973.26 322.892 L1973.26 318.957 Q1971.8 321.318 1969.62 322.452 Q1967.45 323.563 1964.3 323.563 Q1960.32 323.563 1957.96 321.341 Q1955.62 319.095 1955.62 315.345 Q1955.62 310.97 1958.53 308.748 Q1961.47 306.526 1967.28 306.526 L1973.26 306.526 L1973.26 306.109 Q1973.26 303.17 1971.31 301.572 Q1969.39 299.952 1965.89 299.952 Q1963.67 299.952 1961.57 300.484 Q1959.46 301.017 1957.52 302.082 L1957.52 298.146 Q1959.85 297.244 1962.05 296.804 Q1964.25 296.341 1966.33 296.341 Q1971.96 296.341 1974.74 299.258 Q1977.52 302.174 1977.52 308.1 Z" fill="#000000" fill-rule="nonzero" fill-opacity="1" /><path clip-path="url(#clip800)" d="M1990.5 289.605 L1990.5 296.966 L1999.27 296.966 L1999.27 300.276 L1990.5 300.276 L1990.5 314.35 Q1990.5 317.521 1991.36 318.424 Q1992.24 319.327 1994.9 319.327 L1999.27 319.327 L1999.27 322.892 L1994.9 322.892 Q1989.97 322.892 1988.09 321.063 Q1986.22 319.211 1986.22 314.35 L1986.22 300.276 L1983.09 300.276 L1983.09 296.966 L1986.22 296.966 L1986.22 289.605 L1990.5 289.605 Z" fill="#000000" fill-rule="nonzero" fill-opacity="1" /><path clip-path="url(#clip800)" d="M2027.05 308.864 L2027.05 310.947 L2007.47 310.947 Q2007.75 315.345 2010.11 317.66 Q2012.49 319.952 2016.73 319.952 Q2019.18 319.952 2021.47 319.35 Q2023.79 318.748 2026.06 317.545 L2026.06 321.572 Q2023.77 322.544 2021.36 323.054 Q2018.95 323.563 2016.47 323.563 Q2010.27 323.563 2006.64 319.952 Q2003.02 316.341 2003.02 310.183 Q2003.02 303.818 2006.45 300.091 Q2009.9 296.341 2015.73 296.341 Q2020.96 296.341 2024 299.721 Q2027.05 303.077 2027.05 308.864 M2022.79 307.614 Q2022.75 304.119 2020.83 302.035 Q2018.93 299.952 2015.78 299.952 Q2012.21 299.952 2010.06 301.966 Q2007.93 303.98 2007.61 307.637 L2022.79 307.614 Z" fill="#000000" fill-rule="nonzero" fill-opacity="1" /><path clip-path="url(#clip800)" d="M2051.1 300.901 L2051.1 286.873 L2055.36 286.873 L2055.36 322.892 L2051.1 322.892 L2051.1 319.003 Q2049.76 321.318 2047.7 322.452 Q2045.66 323.563 2042.79 323.563 Q2038.09 323.563 2035.13 319.813 Q2032.19 316.063 2032.19 309.952 Q2032.19 303.841 2035.13 300.091 Q2038.09 296.341 2042.79 296.341 Q2045.66 296.341 2047.7 297.475 Q2049.76 298.586 2051.1 300.901 M2036.59 309.952 Q2036.59 314.651 2038.51 317.336 Q2040.45 319.998 2043.83 319.998 Q2047.21 319.998 2049.16 317.336 Q2051.1 314.651 2051.1 309.952 Q2051.1 305.253 2049.16 302.591 Q2047.21 299.906 2043.83 299.906 Q2040.45 299.906 2038.51 302.591 Q2036.59 305.253 2036.59 309.952 Z" fill="#000000" fill-rule="nonzero" fill-opacity="1" /><path clip-path="url(#clip800)" d="M2099.39 301.943 Q2100.99 299.072 2103.21 297.707 Q2105.43 296.341 2108.44 296.341 Q2112.49 296.341 2114.69 299.188 Q2116.89 302.012 2116.89 307.244 L2116.89 322.892 L2112.61 322.892 L2112.61 307.383 Q2112.61 303.656 2111.29 301.85 Q2109.97 300.045 2107.26 300.045 Q2103.95 300.045 2102.03 302.244 Q2100.11 304.443 2100.11 308.239 L2100.11 322.892 L2095.82 322.892 L2095.82 307.383 Q2095.82 303.633 2094.51 301.85 Q2093.19 300.045 2090.43 300.045 Q2087.17 300.045 2085.25 302.267 Q2083.32 304.466 2083.32 308.239 L2083.32 322.892 L2079.04 322.892 L2079.04 296.966 L2083.32 296.966 L2083.32 300.994 Q2084.78 298.609 2086.82 297.475 Q2088.86 296.341 2091.66 296.341 Q2094.48 296.341 2096.45 297.776 Q2098.44 299.211 2099.39 301.943 Z" fill="#000000" fill-rule="nonzero" fill-opacity="1" /><path clip-path="url(#clip800)" d="M2147.56 308.864 L2147.56 310.947 L2127.98 310.947 Q2128.26 315.345 2130.62 317.66 Q2133 319.952 2137.24 319.952 Q2139.69 319.952 2141.98 319.35 Q2144.3 318.748 2146.57 317.545 L2146.57 321.572 Q2144.27 322.544 2141.87 323.054 Q2139.46 323.563 2136.98 323.563 Q2130.78 323.563 2127.14 319.952 Q2123.53 316.341 2123.53 310.183 Q2123.53 303.818 2126.96 300.091 Q2130.41 296.341 2136.24 296.341 Q2141.47 296.341 2144.51 299.721 Q2147.56 303.077 2147.56 308.864 M2143.3 307.614 Q2143.26 304.119 2141.33 302.035 Q2139.44 299.952 2136.29 299.952 Q2132.72 299.952 2130.57 301.966 Q2128.44 303.98 2128.12 307.637 L2143.3 307.614 Z" fill="#000000" fill-rule="nonzero" fill-opacity="1" /><path clip-path="url(#clip800)" d="M2171.61 300.901 L2171.61 286.873 L2175.87 286.873 L2175.87 322.892 L2171.61 322.892 L2171.61 319.003 Q2170.27 321.318 2168.21 322.452 Q2166.17 323.563 2163.3 323.563 Q2158.6 323.563 2155.64 319.813 Q2152.7 316.063 2152.7 309.952 Q2152.7 303.841 2155.64 300.091 Q2158.6 296.341 2163.3 296.341 Q2166.17 296.341 2168.21 297.475 Q2170.27 298.586 2171.61 300.901 M2157.1 309.952 Q2157.1 314.651 2159.02 317.336 Q2160.96 319.998 2164.34 319.998 Q2167.72 319.998 2169.67 317.336 Q2171.61 314.651 2171.61 309.952 Q2171.61 305.253 2169.67 302.591 Q2167.72 299.906 2164.34 299.906 Q2160.96 299.906 2159.02 302.591 Q2157.1 305.253 2157.1 309.952 Z" fill="#000000" fill-rule="nonzero" fill-opacity="1" /><path clip-path="url(#clip800)" d="M2184.64 296.966 L2188.9 296.966 L2188.9 322.892 L2184.64 322.892 L2184.64 296.966 M2184.64 286.873 L2188.9 286.873 L2188.9 292.267 L2184.64 292.267 L2184.64 286.873 Z" fill="#000000" fill-rule="nonzero" fill-opacity="1" /><path clip-path="url(#clip800)" d="M2209.6 309.859 Q2204.44 309.859 2202.44 311.04 Q2200.45 312.22 2200.45 315.068 Q2200.45 317.336 2201.94 318.679 Q2203.44 319.998 2206.01 319.998 Q2209.55 319.998 2211.68 317.498 Q2213.83 314.975 2213.83 310.808 L2213.83 309.859 L2209.6 309.859 M2218.09 308.1 L2218.09 322.892 L2213.83 322.892 L2213.83 318.957 Q2212.38 321.318 2210.2 322.452 Q2208.02 323.563 2204.88 323.563 Q2200.89 323.563 2198.53 321.341 Q2196.19 319.095 2196.19 315.345 Q2196.19 310.97 2199.11 308.748 Q2202.05 306.526 2207.86 306.526 L2213.83 306.526 L2213.83 306.109 Q2213.83 303.17 2211.89 301.572 Q2209.97 299.952 2206.47 299.952 Q2204.25 299.952 2202.14 300.484 Q2200.04 301.017 2198.09 302.082 L2198.09 298.146 Q2200.43 297.244 2202.63 296.804 Q2204.83 296.341 2206.91 296.341 Q2212.54 296.341 2215.31 299.258 Q2218.09 302.174 2218.09 308.1 Z" fill="#000000" fill-rule="nonzero" fill-opacity="1" /><path clip-path="url(#clip800)" d="M2248.42 307.244 L2248.42 322.892 L2244.16 322.892 L2244.16 307.383 Q2244.16 303.702 2242.72 301.873 Q2241.29 300.045 2238.42 300.045 Q2234.97 300.045 2232.98 302.244 Q2230.99 304.443 2230.99 308.239 L2230.99 322.892 L2226.7 322.892 L2226.7 296.966 L2230.99 296.966 L2230.99 300.994 Q2232.51 298.656 2234.57 297.498 Q2236.66 296.341 2239.37 296.341 Q2243.83 296.341 2246.12 299.119 Q2248.42 301.873 2248.42 307.244 Z" fill="#000000" fill-rule="nonzero" fill-opacity="1" /></svg>
