<?xml version="1.0" encoding="utf-8"?>
<svg xmlns="http://www.w3.org/2000/svg" xmlns:xlink="http://www.w3.org/1999/xlink" width="600" height="400" viewBox="0 0 2400 1600">
<defs>
  <clipPath id="clip040">
    <rect x="0" y="0" width="2400" height="1600"/>
  </clipPath>
</defs>
<path clip-path="url(#clip040)" d="M0 1600 L2400 1600 L2400 8.88178e-14 L0 8.88178e-14  Z" fill="#ffffff" fill-rule="evenodd" fill-opacity="1"/>
<defs>
  <clipPath id="clip041">
    <rect x="235" y="106" width="2118" height="1318"/>
  </clipPath>
</defs>
<path clip-path="url(#clip040)" d="M205.121 1423.18 L2352.76 1423.18 L2352.76 106.192 L205.121 106.192  Z" fill="#ffffff" fill-rule="evenodd" fill-opacity="1"/>
<defs>
  <clipPath id="clip042">
    <rect x="205" y="106" width="2149" height="1318"/>
  </clipPath>
</defs>
<polyline clip-path="url(#clip042)" style="stroke:#000000; stroke-linecap:round; stroke-linejoin:round; stroke-width:2; stroke-opacity:0.1; fill:none" points="236.363,1423.18 236.363,106.192 "/>
<polyline clip-path="url(#clip042)" style="stroke:#000000; stroke-linecap:round; stroke-linejoin:round; stroke-width:2; stroke-opacity:0.1; fill:none" points="670.77,1423.18 670.77,106.192 "/>
<polyline clip-path="url(#clip042)" style="stroke:#000000; stroke-linecap:round; stroke-linejoin:round; stroke-width:2; stroke-opacity:0.1; fill:none" points="1105.18,1423.18 1105.18,106.192 "/>
<polyline clip-path="url(#clip042)" style="stroke:#000000; stroke-linecap:round; stroke-linejoin:round; stroke-width:2; stroke-opacity:0.1; fill:none" points="1539.58,1423.18 1539.58,106.192 "/>
<polyline clip-path="url(#clip042)" style="stroke:#000000; stroke-linecap:round; stroke-linejoin:round; stroke-width:2; stroke-opacity:0.1; fill:none" points="1973.99,1423.18 1973.99,106.192 "/>
<polyline clip-path="url(#clip042)" style="stroke:#000000; stroke-linecap:round; stroke-linejoin:round; stroke-width:2; stroke-opacity:0.1; fill:none" points="205.121,1423.18 2352.76,1423.18 "/>
<polyline clip-path="url(#clip042)" style="stroke:#000000; stroke-linecap:round; stroke-linejoin:round; stroke-width:2; stroke-opacity:0.1; fill:none" points="205.121,1123.86 2352.76,1123.86 "/>
<polyline clip-path="url(#clip042)" style="stroke:#000000; stroke-linecap:round; stroke-linejoin:round; stroke-width:2; stroke-opacity:0.1; fill:none" points="205.121,824.549 2352.76,824.549 "/>
<polyline clip-path="url(#clip042)" style="stroke:#000000; stroke-linecap:round; stroke-linejoin:round; stroke-width:2; stroke-opacity:0.1; fill:none" points="205.121,525.234 2352.76,525.234 "/>
<polyline clip-path="url(#clip042)" style="stroke:#000000; stroke-linecap:round; stroke-linejoin:round; stroke-width:2; stroke-opacity:0.1; fill:none" points="205.121,225.918 2352.76,225.918 "/>
<polyline clip-path="url(#clip040)" style="stroke:#000000; stroke-linecap:round; stroke-linejoin:round; stroke-width:4; stroke-opacity:1; fill:none" points="205.121,1423.18 2352.76,1423.18 "/>
<polyline clip-path="url(#clip040)" style="stroke:#000000; stroke-linecap:round; stroke-linejoin:round; stroke-width:4; stroke-opacity:1; fill:none" points="236.363,1423.18 236.363,1404.28 "/>
<polyline clip-path="url(#clip040)" style="stroke:#000000; stroke-linecap:round; stroke-linejoin:round; stroke-width:4; stroke-opacity:1; fill:none" points="670.77,1423.18 670.77,1404.28 "/>
<polyline clip-path="url(#clip040)" style="stroke:#000000; stroke-linecap:round; stroke-linejoin:round; stroke-width:4; stroke-opacity:1; fill:none" points="1105.18,1423.18 1105.18,1404.28 "/>
<polyline clip-path="url(#clip040)" style="stroke:#000000; stroke-linecap:round; stroke-linejoin:round; stroke-width:4; stroke-opacity:1; fill:none" points="1539.58,1423.18 1539.58,1404.28 "/>
<polyline clip-path="url(#clip040)" style="stroke:#000000; stroke-linecap:round; stroke-linejoin:round; stroke-width:4; stroke-opacity:1; fill:none" points="1973.99,1423.18 1973.99,1404.28 "/>
<path clip-path="url(#clip040)" d="M236.363 1454.1 Q232.752 1454.1 230.924 1457.66 Q229.118 1461.2 229.118 1468.33 Q229.118 1475.44 230.924 1479.01 Q232.752 1482.55 236.363 1482.55 Q239.998 1482.55 241.803 1479.01 Q243.632 1475.44 243.632 1468.33 Q243.632 1461.2 241.803 1457.66 Q239.998 1454.1 236.363 1454.1 M236.363 1450.39 Q242.174 1450.39 245.229 1455 Q248.308 1459.58 248.308 1468.33 Q248.308 1477.06 245.229 1481.67 Q242.174 1486.25 236.363 1486.25 Q230.553 1486.25 227.475 1481.67 Q224.419 1477.06 224.419 1468.33 Q224.419 1459.58 227.475 1455 Q230.553 1450.39 236.363 1450.39 Z" fill="#000000" fill-rule="nonzero" fill-opacity="1" /><path clip-path="url(#clip040)" d="M634.462 1481.64 L650.781 1481.64 L650.781 1485.58 L628.837 1485.58 L628.837 1481.64 Q631.499 1478.89 636.082 1474.26 Q640.689 1469.61 641.869 1468.27 Q644.115 1465.74 644.994 1464.01 Q645.897 1462.25 645.897 1460.56 Q645.897 1457.8 643.953 1456.07 Q642.031 1454.33 638.93 1454.33 Q636.731 1454.33 634.277 1455.09 Q631.846 1455.86 629.069 1457.41 L629.069 1452.69 Q631.893 1451.55 634.346 1450.97 Q636.8 1450.39 638.837 1450.39 Q644.207 1450.39 647.402 1453.08 Q650.596 1455.77 650.596 1460.26 Q650.596 1462.39 649.786 1464.31 Q648.999 1466.2 646.893 1468.8 Q646.314 1469.47 643.212 1472.69 Q640.11 1475.88 634.462 1481.64 Z" fill="#000000" fill-rule="nonzero" fill-opacity="1" /><path clip-path="url(#clip040)" d="M660.642 1451.02 L678.999 1451.02 L678.999 1454.96 L664.925 1454.96 L664.925 1463.43 Q665.943 1463.08 666.962 1462.92 Q667.98 1462.73 668.999 1462.73 Q674.786 1462.73 678.166 1465.9 Q681.545 1469.08 681.545 1474.49 Q681.545 1480.07 678.073 1483.17 Q674.601 1486.25 668.281 1486.25 Q666.105 1486.25 663.837 1485.88 Q661.592 1485.51 659.184 1484.77 L659.184 1480.07 Q661.267 1481.2 663.49 1481.76 Q665.712 1482.32 668.189 1482.32 Q672.193 1482.32 674.531 1480.21 Q676.869 1478.1 676.869 1474.49 Q676.869 1470.88 674.531 1468.77 Q672.193 1466.67 668.189 1466.67 Q666.314 1466.67 664.439 1467.08 Q662.587 1467.5 660.642 1468.38 L660.642 1451.02 Z" fill="#000000" fill-rule="nonzero" fill-opacity="1" /><path clip-path="url(#clip040)" d="M700.758 1454.1 Q697.147 1454.1 695.318 1457.66 Q693.513 1461.2 693.513 1468.33 Q693.513 1475.44 695.318 1479.01 Q697.147 1482.55 700.758 1482.55 Q704.392 1482.55 706.198 1479.01 Q708.026 1475.44 708.026 1468.33 Q708.026 1461.2 706.198 1457.66 Q704.392 1454.1 700.758 1454.1 M700.758 1450.39 Q706.568 1450.39 709.624 1455 Q712.702 1459.58 712.702 1468.33 Q712.702 1477.06 709.624 1481.67 Q706.568 1486.25 700.758 1486.25 Q694.948 1486.25 691.869 1481.67 Q688.814 1477.06 688.814 1468.33 Q688.814 1459.58 691.869 1455 Q694.948 1450.39 700.758 1450.39 Z" fill="#000000" fill-rule="nonzero" fill-opacity="1" /><path clip-path="url(#clip040)" d="M1064.79 1451.02 L1083.15 1451.02 L1083.15 1454.96 L1069.08 1454.96 L1069.08 1463.43 Q1070.1 1463.08 1071.11 1462.92 Q1072.13 1462.73 1073.15 1462.73 Q1078.94 1462.73 1082.32 1465.9 Q1085.7 1469.08 1085.7 1474.49 Q1085.7 1480.07 1082.22 1483.17 Q1078.75 1486.25 1072.43 1486.25 Q1070.26 1486.25 1067.99 1485.88 Q1065.74 1485.51 1063.34 1484.77 L1063.34 1480.07 Q1065.42 1481.2 1067.64 1481.76 Q1069.86 1482.32 1072.34 1482.32 Q1076.35 1482.32 1078.68 1480.21 Q1081.02 1478.1 1081.02 1474.49 Q1081.02 1470.88 1078.68 1468.77 Q1076.35 1466.67 1072.34 1466.67 Q1070.47 1466.67 1068.59 1467.08 Q1066.74 1467.5 1064.79 1468.38 L1064.79 1451.02 Z" fill="#000000" fill-rule="nonzero" fill-opacity="1" /><path clip-path="url(#clip040)" d="M1104.91 1454.1 Q1101.3 1454.1 1099.47 1457.66 Q1097.66 1461.2 1097.66 1468.33 Q1097.66 1475.44 1099.47 1479.01 Q1101.3 1482.55 1104.91 1482.55 Q1108.54 1482.55 1110.35 1479.01 Q1112.18 1475.44 1112.18 1468.33 Q1112.18 1461.2 1110.35 1457.66 Q1108.54 1454.1 1104.91 1454.1 M1104.91 1450.39 Q1110.72 1450.39 1113.78 1455 Q1116.85 1459.58 1116.85 1468.33 Q1116.85 1477.06 1113.78 1481.67 Q1110.72 1486.25 1104.91 1486.25 Q1099.1 1486.25 1096.02 1481.67 Q1092.97 1477.06 1092.97 1468.33 Q1092.97 1459.58 1096.02 1455 Q1099.1 1450.39 1104.91 1450.39 Z" fill="#000000" fill-rule="nonzero" fill-opacity="1" /><path clip-path="url(#clip040)" d="M1135.07 1454.1 Q1131.46 1454.1 1129.63 1457.66 Q1127.83 1461.2 1127.83 1468.33 Q1127.83 1475.44 1129.63 1479.01 Q1131.46 1482.55 1135.07 1482.55 Q1138.71 1482.55 1140.51 1479.01 Q1142.34 1475.44 1142.34 1468.33 Q1142.34 1461.2 1140.51 1457.66 Q1138.71 1454.1 1135.07 1454.1 M1135.07 1450.39 Q1140.88 1450.39 1143.94 1455 Q1147.02 1459.58 1147.02 1468.33 Q1147.02 1477.06 1143.94 1481.67 Q1140.88 1486.25 1135.07 1486.25 Q1129.26 1486.25 1126.18 1481.67 Q1123.13 1477.06 1123.13 1468.33 Q1123.13 1459.58 1126.18 1455 Q1129.26 1450.39 1135.07 1450.39 Z" fill="#000000" fill-rule="nonzero" fill-opacity="1" /><path clip-path="url(#clip040)" d="M1497.86 1451.02 L1520.08 1451.02 L1520.08 1453.01 L1507.53 1485.58 L1502.65 1485.58 L1514.46 1454.96 L1497.86 1454.96 L1497.86 1451.02 Z" fill="#000000" fill-rule="nonzero" fill-opacity="1" /><path clip-path="url(#clip040)" d="M1529.25 1451.02 L1547.6 1451.02 L1547.6 1454.96 L1533.53 1454.96 L1533.53 1463.43 Q1534.55 1463.08 1535.57 1462.92 Q1536.58 1462.73 1537.6 1462.73 Q1543.39 1462.73 1546.77 1465.9 Q1550.15 1469.08 1550.15 1474.49 Q1550.15 1480.07 1546.68 1483.17 Q1543.2 1486.25 1536.89 1486.25 Q1534.71 1486.25 1532.44 1485.88 Q1530.2 1485.51 1527.79 1484.77 L1527.79 1480.07 Q1529.87 1481.2 1532.09 1481.76 Q1534.32 1482.32 1536.79 1482.32 Q1540.8 1482.32 1543.14 1480.21 Q1545.47 1478.1 1545.47 1474.49 Q1545.47 1470.88 1543.14 1468.77 Q1540.8 1466.67 1536.79 1466.67 Q1534.92 1466.67 1533.04 1467.08 Q1531.19 1467.5 1529.25 1468.38 L1529.25 1451.02 Z" fill="#000000" fill-rule="nonzero" fill-opacity="1" /><path clip-path="url(#clip040)" d="M1569.36 1454.1 Q1565.75 1454.1 1563.92 1457.66 Q1562.12 1461.2 1562.12 1468.33 Q1562.12 1475.44 1563.92 1479.01 Q1565.75 1482.55 1569.36 1482.55 Q1573 1482.55 1574.8 1479.01 Q1576.63 1475.44 1576.63 1468.33 Q1576.63 1461.2 1574.8 1457.66 Q1573 1454.1 1569.36 1454.1 M1569.36 1450.39 Q1575.17 1450.39 1578.23 1455 Q1581.31 1459.58 1581.31 1468.33 Q1581.31 1477.06 1578.23 1481.67 Q1575.17 1486.25 1569.36 1486.25 Q1563.55 1486.25 1560.47 1481.67 Q1557.42 1477.06 1557.42 1468.33 Q1557.42 1459.58 1560.47 1455 Q1563.55 1450.39 1569.36 1450.39 Z" fill="#000000" fill-rule="nonzero" fill-opacity="1" /><path clip-path="url(#clip040)" d="M1918.51 1481.64 L1926.15 1481.64 L1926.15 1455.28 L1917.84 1456.95 L1917.84 1452.69 L1926.11 1451.02 L1930.78 1451.02 L1930.78 1481.64 L1938.42 1481.64 L1938.42 1485.58 L1918.51 1485.58 L1918.51 1481.64 Z" fill="#000000" fill-rule="nonzero" fill-opacity="1" /><path clip-path="url(#clip040)" d="M1957.87 1454.1 Q1954.25 1454.1 1952.43 1457.66 Q1950.62 1461.2 1950.62 1468.33 Q1950.62 1475.44 1952.43 1479.01 Q1954.25 1482.55 1957.87 1482.55 Q1961.5 1482.55 1963.31 1479.01 Q1965.13 1475.44 1965.13 1468.33 Q1965.13 1461.2 1963.31 1457.66 Q1961.5 1454.1 1957.87 1454.1 M1957.87 1450.39 Q1963.68 1450.39 1966.73 1455 Q1969.81 1459.58 1969.81 1468.33 Q1969.81 1477.06 1966.73 1481.67 Q1963.68 1486.25 1957.87 1486.25 Q1952.06 1486.25 1948.98 1481.67 Q1945.92 1477.06 1945.92 1468.33 Q1945.92 1459.58 1948.98 1455 Q1952.06 1450.39 1957.87 1450.39 Z" fill="#000000" fill-rule="nonzero" fill-opacity="1" /><path clip-path="url(#clip040)" d="M1988.03 1454.1 Q1984.42 1454.1 1982.59 1457.66 Q1980.78 1461.2 1980.78 1468.33 Q1980.78 1475.44 1982.59 1479.01 Q1984.42 1482.55 1988.03 1482.55 Q1991.66 1482.55 1993.47 1479.01 Q1995.3 1475.44 1995.3 1468.33 Q1995.3 1461.2 1993.47 1457.66 Q1991.66 1454.1 1988.03 1454.1 M1988.03 1450.39 Q1993.84 1450.39 1996.89 1455 Q1999.97 1459.58 1999.97 1468.33 Q1999.97 1477.06 1996.89 1481.67 Q1993.84 1486.25 1988.03 1486.25 Q1982.22 1486.25 1979.14 1481.67 Q1976.08 1477.06 1976.08 1468.33 Q1976.08 1459.58 1979.14 1455 Q1982.22 1450.39 1988.03 1450.39 Z" fill="#000000" fill-rule="nonzero" fill-opacity="1" /><path clip-path="url(#clip040)" d="M2018.19 1454.1 Q2014.58 1454.1 2012.75 1457.66 Q2010.94 1461.2 2010.94 1468.33 Q2010.94 1475.44 2012.75 1479.01 Q2014.58 1482.55 2018.19 1482.55 Q2021.82 1482.55 2023.63 1479.01 Q2025.46 1475.44 2025.46 1468.33 Q2025.46 1461.2 2023.63 1457.66 Q2021.82 1454.1 2018.19 1454.1 M2018.19 1450.39 Q2024 1450.39 2027.06 1455 Q2030.13 1459.58 2030.13 1468.33 Q2030.13 1477.06 2027.06 1481.67 Q2024 1486.25 2018.19 1486.25 Q2012.38 1486.25 2009.3 1481.67 Q2006.25 1477.06 2006.25 1468.33 Q2006.25 1459.58 2009.3 1455 Q2012.38 1450.39 2018.19 1450.39 Z" fill="#000000" fill-rule="nonzero" fill-opacity="1" /><path clip-path="url(#clip040)" d="M1051.36 1520.52 L1091.56 1520.52 L1091.56 1525.93 L1074.69 1525.93 L1074.69 1568.04 L1068.23 1568.04 L1068.23 1525.93 L1051.36 1525.93 L1051.36 1520.52 Z" fill="#000000" fill-rule="nonzero" fill-opacity="1" /><path clip-path="url(#clip040)" d="M1116.93 1548.76 L1116.93 1551.62 L1090 1551.62 Q1090.39 1557.67 1093.63 1560.85 Q1096.91 1564 1102.74 1564 Q1106.11 1564 1109.26 1563.17 Q1112.44 1562.35 1115.56 1560.69 L1115.56 1566.23 Q1112.41 1567.57 1109.1 1568.27 Q1105.79 1568.97 1102.39 1568.97 Q1093.86 1568.97 1088.86 1564 Q1083.89 1559.04 1083.89 1550.57 Q1083.89 1541.82 1088.6 1536.69 Q1093.35 1531.54 1101.37 1531.54 Q1108.56 1531.54 1112.73 1536.18 Q1116.93 1540.8 1116.93 1548.76 M1111.07 1547.04 Q1111.01 1542.23 1108.37 1539.37 Q1105.76 1536.5 1101.43 1536.5 Q1096.53 1536.5 1093.57 1539.27 Q1090.64 1542.04 1090.2 1547.07 L1111.07 1547.04 Z" fill="#000000" fill-rule="nonzero" fill-opacity="1" /><path clip-path="url(#clip040)" d="M1147.2 1537.87 Q1146.21 1537.3 1145.04 1537.04 Q1143.89 1536.76 1142.49 1536.76 Q1137.52 1536.76 1134.85 1540 Q1132.21 1543.22 1132.21 1549.27 L1132.21 1568.04 L1126.32 1568.04 L1126.32 1532.4 L1132.21 1532.4 L1132.21 1537.93 Q1134.05 1534.69 1137.02 1533.13 Q1139.98 1531.54 1144.21 1531.54 Q1144.81 1531.54 1145.55 1531.63 Q1146.28 1531.7 1147.17 1531.85 L1147.2 1537.87 Z" fill="#000000" fill-rule="nonzero" fill-opacity="1" /><path clip-path="url(#clip040)" d="M1179.95 1539.24 Q1182.15 1535.29 1185.2 1533.41 Q1188.26 1531.54 1192.4 1531.54 Q1197.97 1531.54 1200.99 1535.45 Q1204.01 1539.33 1204.01 1546.53 L1204.01 1568.04 L1198.13 1568.04 L1198.13 1546.72 Q1198.13 1541.59 1196.31 1539.11 Q1194.5 1536.63 1190.77 1536.63 Q1186.22 1536.63 1183.58 1539.65 Q1180.94 1542.68 1180.94 1547.9 L1180.94 1568.04 L1175.05 1568.04 L1175.05 1546.72 Q1175.05 1541.56 1173.24 1539.11 Q1171.42 1536.63 1167.63 1536.63 Q1163.15 1536.63 1160.5 1539.68 Q1157.86 1542.71 1157.86 1547.9 L1157.86 1568.04 L1151.97 1568.04 L1151.97 1532.4 L1157.86 1532.4 L1157.86 1537.93 Q1159.87 1534.66 1162.67 1533.1 Q1165.47 1531.54 1169.32 1531.54 Q1173.2 1531.54 1175.91 1533.51 Q1178.65 1535.48 1179.95 1539.24 Z" fill="#000000" fill-rule="nonzero" fill-opacity="1" /><path clip-path="url(#clip040)" d="M1215.7 1532.4 L1221.55 1532.4 L1221.55 1568.04 L1215.7 1568.04 L1215.7 1532.4 M1215.7 1518.52 L1221.55 1518.52 L1221.55 1525.93 L1215.7 1525.93 L1215.7 1518.52 Z" fill="#000000" fill-rule="nonzero" fill-opacity="1" /><path clip-path="url(#clip040)" d="M1263.44 1546.53 L1263.44 1568.04 L1257.58 1568.04 L1257.58 1546.72 Q1257.58 1541.66 1255.61 1539.14 Q1253.63 1536.63 1249.69 1536.63 Q1244.95 1536.63 1242.21 1539.65 Q1239.47 1542.68 1239.47 1547.9 L1239.47 1568.04 L1233.58 1568.04 L1233.58 1532.4 L1239.47 1532.4 L1239.47 1537.93 Q1241.57 1534.72 1244.4 1533.13 Q1247.27 1531.54 1250.99 1531.54 Q1257.14 1531.54 1260.29 1535.36 Q1263.44 1539.14 1263.44 1546.53 Z" fill="#000000" fill-rule="nonzero" fill-opacity="1" /><path clip-path="url(#clip040)" d="M1291.32 1550.12 Q1284.22 1550.12 1281.48 1551.75 Q1278.75 1553.37 1278.75 1557.29 Q1278.75 1560.4 1280.78 1562.25 Q1282.85 1564.07 1286.39 1564.07 Q1291.26 1564.07 1294.18 1560.63 Q1297.14 1557.16 1297.14 1551.43 L1297.14 1550.12 L1291.32 1550.12 M1303 1547.71 L1303 1568.04 L1297.14 1568.04 L1297.14 1562.63 Q1295.14 1565.88 1292.15 1567.44 Q1289.16 1568.97 1284.83 1568.97 Q1279.35 1568.97 1276.11 1565.91 Q1272.89 1562.82 1272.89 1557.67 Q1272.89 1551.65 1276.9 1548.6 Q1280.94 1545.54 1288.93 1545.54 L1297.14 1545.54 L1297.14 1544.97 Q1297.14 1540.93 1294.47 1538.73 Q1291.83 1536.5 1287.02 1536.5 Q1283.97 1536.5 1281.07 1537.23 Q1278.17 1537.97 1275.5 1539.43 L1275.5 1534.02 Q1278.72 1532.78 1281.74 1532.17 Q1284.76 1531.54 1287.63 1531.54 Q1295.36 1531.54 1299.18 1535.55 Q1303 1539.56 1303 1547.71 Z" fill="#000000" fill-rule="nonzero" fill-opacity="1" /><path clip-path="url(#clip040)" d="M1315.06 1518.52 L1320.92 1518.52 L1320.92 1568.04 L1315.06 1568.04 L1315.06 1518.52 Z" fill="#000000" fill-rule="nonzero" fill-opacity="1" /><path clip-path="url(#clip040)" d="M1359.56 1562.7 L1359.56 1581.6 L1353.67 1581.6 L1353.67 1532.4 L1359.56 1532.4 L1359.56 1537.81 Q1361.41 1534.62 1364.21 1533.1 Q1367.04 1531.54 1370.95 1531.54 Q1377.45 1531.54 1381.49 1536.69 Q1385.56 1541.85 1385.56 1550.25 Q1385.56 1558.65 1381.49 1563.81 Q1377.45 1568.97 1370.95 1568.97 Q1367.04 1568.97 1364.21 1567.44 Q1361.41 1565.88 1359.56 1562.7 M1379.48 1550.25 Q1379.48 1543.79 1376.81 1540.13 Q1374.17 1536.44 1369.52 1536.44 Q1364.88 1536.44 1362.2 1540.13 Q1359.56 1543.79 1359.56 1550.25 Q1359.56 1556.71 1362.2 1560.4 Q1364.88 1564.07 1369.52 1564.07 Q1374.17 1564.07 1376.81 1560.4 Q1379.48 1556.71 1379.48 1550.25 Z" fill="#000000" fill-rule="nonzero" fill-opacity="1" /><path clip-path="url(#clip040)" d="M1415.93 1537.87 Q1414.94 1537.3 1413.76 1537.04 Q1412.62 1536.76 1411.22 1536.76 Q1406.25 1536.76 1403.58 1540 Q1400.94 1543.22 1400.94 1549.27 L1400.94 1568.04 L1395.05 1568.04 L1395.05 1532.4 L1400.94 1532.4 L1400.94 1537.93 Q1402.78 1534.69 1405.74 1533.13 Q1408.7 1531.54 1412.94 1531.54 Q1413.54 1531.54 1414.27 1531.63 Q1415.01 1531.7 1415.9 1531.85 L1415.93 1537.87 Z" fill="#000000" fill-rule="nonzero" fill-opacity="1" /><path clip-path="url(#clip040)" d="M1422.07 1532.4 L1427.93 1532.4 L1427.93 1568.04 L1422.07 1568.04 L1422.07 1532.4 M1422.07 1518.52 L1427.93 1518.52 L1427.93 1525.93 L1422.07 1525.93 L1422.07 1518.52 Z" fill="#000000" fill-rule="nonzero" fill-opacity="1" /><path clip-path="url(#clip040)" d="M1465.84 1533.76 L1465.84 1539.24 Q1463.35 1537.87 1460.84 1537.2 Q1458.36 1536.5 1455.81 1536.5 Q1450.11 1536.5 1446.96 1540.13 Q1443.81 1543.73 1443.81 1550.25 Q1443.81 1556.78 1446.96 1560.4 Q1450.11 1564 1455.81 1564 Q1458.36 1564 1460.84 1563.33 Q1463.35 1562.63 1465.84 1561.26 L1465.84 1566.68 Q1463.38 1567.82 1460.74 1568.39 Q1458.13 1568.97 1455.17 1568.97 Q1447.12 1568.97 1442.38 1563.91 Q1437.64 1558.85 1437.64 1550.25 Q1437.64 1541.53 1442.41 1536.53 Q1447.22 1531.54 1455.55 1531.54 Q1458.26 1531.54 1460.84 1532.11 Q1463.42 1532.65 1465.84 1533.76 Z" fill="#000000" fill-rule="nonzero" fill-opacity="1" /><path clip-path="url(#clip040)" d="M1506.51 1548.76 L1506.51 1551.62 L1479.59 1551.62 Q1479.97 1557.67 1483.21 1560.85 Q1486.49 1564 1492.32 1564 Q1495.69 1564 1498.84 1563.17 Q1502.02 1562.35 1505.14 1560.69 L1505.14 1566.23 Q1501.99 1567.57 1498.68 1568.27 Q1495.37 1568.97 1491.97 1568.97 Q1483.44 1568.97 1478.44 1564 Q1473.47 1559.04 1473.47 1550.57 Q1473.47 1541.82 1478.19 1536.69 Q1482.93 1531.54 1490.95 1531.54 Q1498.14 1531.54 1502.31 1536.18 Q1506.51 1540.8 1506.51 1548.76 M1500.66 1547.04 Q1500.59 1542.23 1497.95 1539.37 Q1495.34 1536.5 1491.01 1536.5 Q1486.11 1536.5 1483.15 1539.27 Q1480.22 1542.04 1479.78 1547.07 L1500.66 1547.04 Z" fill="#000000" fill-rule="nonzero" fill-opacity="1" /><polyline clip-path="url(#clip040)" style="stroke:#000000; stroke-linecap:round; stroke-linejoin:round; stroke-width:4; stroke-opacity:1; fill:none" points="205.121,1423.18 205.121,106.192 "/>
<polyline clip-path="url(#clip040)" style="stroke:#000000; stroke-linecap:round; stroke-linejoin:round; stroke-width:4; stroke-opacity:1; fill:none" points="205.121,1423.18 224.019,1423.18 "/>
<polyline clip-path="url(#clip040)" style="stroke:#000000; stroke-linecap:round; stroke-linejoin:round; stroke-width:4; stroke-opacity:1; fill:none" points="205.121,1123.86 224.019,1123.86 "/>
<polyline clip-path="url(#clip040)" style="stroke:#000000; stroke-linecap:round; stroke-linejoin:round; stroke-width:4; stroke-opacity:1; fill:none" points="205.121,824.549 224.019,824.549 "/>
<polyline clip-path="url(#clip040)" style="stroke:#000000; stroke-linecap:round; stroke-linejoin:round; stroke-width:4; stroke-opacity:1; fill:none" points="205.121,525.234 224.019,525.234 "/>
<polyline clip-path="url(#clip040)" style="stroke:#000000; stroke-linecap:round; stroke-linejoin:round; stroke-width:4; stroke-opacity:1; fill:none" points="205.121,225.918 224.019,225.918 "/>
<path clip-path="url(#clip040)" d="M157.177 1408.98 Q153.566 1408.98 151.737 1412.54 Q149.931 1416.08 149.931 1423.21 Q149.931 1430.32 151.737 1433.89 Q153.566 1437.43 157.177 1437.43 Q160.811 1437.43 162.616 1433.89 Q164.445 1430.32 164.445 1423.21 Q164.445 1416.08 162.616 1412.54 Q160.811 1408.98 157.177 1408.98 M157.177 1405.27 Q162.987 1405.27 166.042 1409.88 Q169.121 1414.46 169.121 1423.21 Q169.121 1431.94 166.042 1436.55 Q162.987 1441.13 157.177 1441.13 Q151.366 1441.13 148.288 1436.55 Q145.232 1431.94 145.232 1423.21 Q145.232 1414.46 148.288 1409.88 Q151.366 1405.27 157.177 1405.27 Z" fill="#000000" fill-rule="nonzero" fill-opacity="1" /><path clip-path="url(#clip040)" d="M121.043 1137.21 L137.362 1137.21 L137.362 1141.14 L115.418 1141.14 L115.418 1137.21 Q118.08 1134.45 122.663 1129.83 Q127.269 1125.17 128.45 1123.83 Q130.695 1121.31 131.575 1119.57 Q132.478 1117.81 132.478 1116.12 Q132.478 1113.37 130.533 1111.63 Q128.612 1109.89 125.51 1109.89 Q123.311 1109.89 120.857 1110.66 Q118.427 1111.42 115.649 1112.97 L115.649 1108.25 Q118.473 1107.12 120.927 1106.54 Q123.38 1105.96 125.418 1105.96 Q130.788 1105.96 133.982 1108.64 Q137.177 1111.33 137.177 1115.82 Q137.177 1117.95 136.367 1119.87 Q135.579 1121.77 133.473 1124.36 Q132.894 1125.03 129.792 1128.25 Q126.691 1131.45 121.043 1137.21 Z" fill="#000000" fill-rule="nonzero" fill-opacity="1" /><path clip-path="url(#clip040)" d="M157.177 1109.66 Q153.566 1109.66 151.737 1113.23 Q149.931 1116.77 149.931 1123.9 Q149.931 1131.01 151.737 1134.57 Q153.566 1138.11 157.177 1138.11 Q160.811 1138.11 162.616 1134.57 Q164.445 1131.01 164.445 1123.9 Q164.445 1116.77 162.616 1113.23 Q160.811 1109.66 157.177 1109.66 M157.177 1105.96 Q162.987 1105.96 166.042 1110.57 Q169.121 1115.15 169.121 1123.9 Q169.121 1132.63 166.042 1137.23 Q162.987 1141.82 157.177 1141.82 Q151.366 1141.82 148.288 1137.23 Q145.232 1132.63 145.232 1123.9 Q145.232 1115.15 148.288 1110.57 Q151.366 1105.96 157.177 1105.96 Z" fill="#000000" fill-rule="nonzero" fill-opacity="1" /><path clip-path="url(#clip040)" d="M129.862 811.343 L118.056 829.792 L129.862 829.792 L129.862 811.343 M128.635 807.269 L134.515 807.269 L134.515 829.792 L139.445 829.792 L139.445 833.681 L134.515 833.681 L134.515 841.829 L129.862 841.829 L129.862 833.681 L114.26 833.681 L114.26 829.167 L128.635 807.269 Z" fill="#000000" fill-rule="nonzero" fill-opacity="1" /><path clip-path="url(#clip040)" d="M157.177 810.348 Q153.566 810.348 151.737 813.913 Q149.931 817.454 149.931 824.584 Q149.931 831.69 151.737 835.255 Q153.566 838.797 157.177 838.797 Q160.811 838.797 162.616 835.255 Q164.445 831.69 164.445 824.584 Q164.445 817.454 162.616 813.913 Q160.811 810.348 157.177 810.348 M157.177 806.644 Q162.987 806.644 166.042 811.251 Q169.121 815.834 169.121 824.584 Q169.121 833.311 166.042 837.917 Q162.987 842.5 157.177 842.5 Q151.366 842.5 148.288 837.917 Q145.232 833.311 145.232 824.584 Q145.232 815.834 148.288 811.251 Q151.366 806.644 157.177 806.644 Z" fill="#000000" fill-rule="nonzero" fill-opacity="1" /><path clip-path="url(#clip040)" d="M127.593 523.37 Q124.445 523.37 122.593 525.523 Q120.765 527.676 120.765 531.426 Q120.765 535.153 122.593 537.329 Q124.445 539.481 127.593 539.481 Q130.742 539.481 132.57 537.329 Q134.422 535.153 134.422 531.426 Q134.422 527.676 132.57 525.523 Q130.742 523.37 127.593 523.37 M136.876 508.718 L136.876 512.977 Q135.117 512.143 133.311 511.704 Q131.529 511.264 129.769 511.264 Q125.14 511.264 122.686 514.389 Q120.255 517.514 119.908 523.833 Q121.274 521.819 123.334 520.755 Q125.394 519.667 127.871 519.667 Q133.08 519.667 136.089 522.838 Q139.121 525.986 139.121 531.426 Q139.121 536.75 135.973 539.967 Q132.825 543.185 127.593 543.185 Q121.598 543.185 118.427 538.602 Q115.256 533.995 115.256 525.268 Q115.256 517.074 119.144 512.213 Q123.033 507.329 129.584 507.329 Q131.343 507.329 133.126 507.676 Q134.931 508.023 136.876 508.718 Z" fill="#000000" fill-rule="nonzero" fill-opacity="1" /><path clip-path="url(#clip040)" d="M157.177 511.032 Q153.566 511.032 151.737 514.597 Q149.931 518.139 149.931 525.268 Q149.931 532.375 151.737 535.94 Q153.566 539.481 157.177 539.481 Q160.811 539.481 162.616 535.94 Q164.445 532.375 164.445 525.268 Q164.445 518.139 162.616 514.597 Q160.811 511.032 157.177 511.032 M157.177 507.329 Q162.987 507.329 166.042 511.935 Q169.121 516.518 169.121 525.268 Q169.121 533.995 166.042 538.602 Q162.987 543.185 157.177 543.185 Q151.366 543.185 148.288 538.602 Q145.232 533.995 145.232 525.268 Q145.232 516.518 148.288 511.935 Q151.366 507.329 157.177 507.329 Z" fill="#000000" fill-rule="nonzero" fill-opacity="1" /><path clip-path="url(#clip040)" d="M127.015 226.786 Q123.681 226.786 121.76 228.569 Q119.862 230.351 119.862 233.476 Q119.862 236.601 121.76 238.383 Q123.681 240.166 127.015 240.166 Q130.348 240.166 132.269 238.383 Q134.191 236.578 134.191 233.476 Q134.191 230.351 132.269 228.569 Q130.371 226.786 127.015 226.786 M122.339 224.796 Q119.33 224.055 117.64 221.995 Q115.973 219.935 115.973 216.972 Q115.973 212.828 118.913 210.421 Q121.876 208.013 127.015 208.013 Q132.177 208.013 135.117 210.421 Q138.056 212.828 138.056 216.972 Q138.056 219.935 136.367 221.995 Q134.7 224.055 131.714 224.796 Q135.093 225.583 136.968 227.874 Q138.867 230.166 138.867 233.476 Q138.867 238.499 135.788 241.184 Q132.732 243.87 127.015 243.87 Q121.297 243.87 118.218 241.184 Q115.163 238.499 115.163 233.476 Q115.163 230.166 117.061 227.874 Q118.959 225.583 122.339 224.796 M120.626 217.411 Q120.626 220.097 122.293 221.601 Q123.982 223.106 127.015 223.106 Q130.024 223.106 131.714 221.601 Q133.427 220.097 133.427 217.411 Q133.427 214.726 131.714 213.222 Q130.024 211.717 127.015 211.717 Q123.982 211.717 122.293 213.222 Q120.626 214.726 120.626 217.411 Z" fill="#000000" fill-rule="nonzero" fill-opacity="1" /><path clip-path="url(#clip040)" d="M157.177 211.717 Q153.566 211.717 151.737 215.282 Q149.931 218.823 149.931 225.953 Q149.931 233.059 151.737 236.624 Q153.566 240.166 157.177 240.166 Q160.811 240.166 162.616 236.624 Q164.445 233.059 164.445 225.953 Q164.445 218.823 162.616 215.282 Q160.811 211.717 157.177 211.717 M157.177 208.013 Q162.987 208.013 166.042 212.62 Q169.121 217.203 169.121 225.953 Q169.121 234.68 166.042 239.286 Q162.987 243.87 157.177 243.87 Q151.366 243.87 148.288 239.286 Q145.232 234.68 145.232 225.953 Q145.232 217.203 148.288 212.62 Q151.366 208.013 157.177 208.013 Z" fill="#000000" fill-rule="nonzero" fill-opacity="1" /><path clip-path="url(#clip040)" d="M20.1444 820.545 L26.9239 820.545 Q23.9002 823.792 22.4043 827.484 Q20.9083 831.144 20.9083 835.282 Q20.9083 843.43 25.9054 847.758 Q30.8707 852.087 40.2919 852.087 Q49.6813 852.087 54.6784 847.758 Q59.6436 843.43 59.6436 835.282 Q59.6436 831.144 58.1477 827.484 Q56.6518 823.792 53.6281 820.545 L60.3439 820.545 Q62.6355 823.919 63.7814 827.706 Q64.9272 831.462 64.9272 835.664 Q64.9272 846.453 58.3387 852.66 Q51.7183 858.867 40.2919 858.867 Q28.8336 858.867 22.2451 852.66 Q15.6248 846.453 15.6248 835.664 Q15.6248 831.399 16.7706 827.643 Q17.8846 823.855 20.1444 820.545 Z" fill="#000000" fill-rule="nonzero" fill-opacity="1" /><path clip-path="url(#clip040)" d="M32.4621 797.056 Q32.4621 801.766 36.1542 804.503 Q39.8145 807.241 46.212 807.241 Q52.6095 807.241 56.3017 804.535 Q59.9619 801.798 59.9619 797.056 Q59.9619 792.377 56.2698 789.64 Q52.5777 786.902 46.212 786.902 Q39.8781 786.902 36.186 789.64 Q32.4621 792.377 32.4621 797.056 M27.4968 797.056 Q27.4968 789.417 32.4621 785.056 Q37.4273 780.696 46.212 780.696 Q54.9649 780.696 59.9619 785.056 Q64.9272 789.417 64.9272 797.056 Q64.9272 804.726 59.9619 809.087 Q54.9649 813.415 46.212 813.415 Q37.4273 813.415 32.4621 809.087 Q27.4968 804.726 27.4968 797.056 Z" fill="#000000" fill-rule="nonzero" fill-opacity="1" /><path clip-path="url(#clip040)" d="M49.9359 771.593 L28.3562 771.593 L28.3562 765.736 L49.7131 765.736 Q54.7739 765.736 57.3202 763.763 Q59.8346 761.79 59.8346 757.843 Q59.8346 753.1 56.8109 750.363 Q53.7872 747.594 48.5673 747.594 L28.3562 747.594 L28.3562 741.738 L64.0042 741.738 L64.0042 747.594 L58.5296 747.594 Q61.7762 749.727 63.3676 752.559 Q64.9272 755.36 64.9272 759.084 Q64.9272 765.227 61.1078 768.41 Q57.2883 771.593 49.9359 771.593 M27.4968 756.856 L27.4968 756.856 Z" fill="#000000" fill-rule="nonzero" fill-opacity="1" /><path clip-path="url(#clip040)" d="M42.4881 700.042 L64.0042 700.042 L64.0042 705.899 L42.679 705.899 Q37.6183 705.899 35.1038 707.872 Q32.5894 709.845 32.5894 713.792 Q32.5894 718.535 35.6131 721.272 Q38.6368 724.009 43.8567 724.009 L64.0042 724.009 L64.0042 729.897 L28.3562 729.897 L28.3562 724.009 L33.8944 724.009 Q30.6797 721.908 29.0883 719.076 Q27.4968 716.211 27.4968 712.487 Q27.4968 706.344 31.3163 703.193 Q35.1038 700.042 42.4881 700.042 Z" fill="#000000" fill-rule="nonzero" fill-opacity="1" /><path clip-path="url(#clip040)" d="M18.2347 682.568 L28.3562 682.568 L28.3562 670.505 L32.9077 670.505 L32.9077 682.568 L52.2594 682.568 Q56.6199 682.568 57.8613 681.391 Q59.1026 680.181 59.1026 676.521 L59.1026 670.505 L64.0042 670.505 L64.0042 676.521 Q64.0042 683.3 61.4897 685.879 Q58.9434 688.457 52.2594 688.457 L32.9077 688.457 L32.9077 692.753 L28.3562 692.753 L28.3562 688.457 L18.2347 688.457 L18.2347 682.568 Z" fill="#000000" fill-rule="nonzero" fill-opacity="1" /><path clip-path="url(#clip040)" d="M720.246 14.3981 L712.318 35.8968 L728.204 35.8968 L720.246 14.3981 M716.948 8.64 L723.574 8.64 L740.038 51.84 L733.962 51.84 L730.026 40.7579 L710.553 40.7579 L706.618 51.84 L700.455 51.84 L716.948 8.64 Z" fill="#000000" fill-rule="nonzero" fill-opacity="1" /><path clip-path="url(#clip040)" d="M762.434 14.3981 L754.505 35.8968 L770.391 35.8968 L762.434 14.3981 M759.135 8.64 L765.761 8.64 L782.225 51.84 L776.149 51.84 L772.214 40.7579 L752.74 40.7579 L748.805 51.84 L742.642 51.84 L759.135 8.64 Z" fill="#000000" fill-rule="nonzero" fill-opacity="1" /><path clip-path="url(#clip040)" d="M794.378 13.4432 L794.378 29.6758 L801.727 29.6758 Q805.807 29.6758 808.035 27.5635 Q810.263 25.4513 810.263 21.545 Q810.263 17.6677 808.035 15.5555 Q805.807 13.4432 801.727 13.4432 L794.378 13.4432 M788.533 8.64 L801.727 8.64 Q808.99 8.64 812.694 11.9386 Q816.426 15.2083 816.426 21.545 Q816.426 27.9397 812.694 31.2093 Q808.99 34.479 801.727 34.479 L794.378 34.479 L794.378 51.84 L788.533 51.84 L788.533 8.64 Z" fill="#000000" fill-rule="nonzero" fill-opacity="1" /><path clip-path="url(#clip040)" d="M824.268 8.64 L830.113 8.64 L830.113 46.921 L851.148 46.921 L851.148 51.84 L824.268 51.84 L824.268 8.64 Z" fill="#000000" fill-rule="nonzero" fill-opacity="1" /><path clip-path="url(#clip040)" d="M873.197 33.2348 L888.793 33.2348 L888.793 37.9801 L873.197 37.9801 L873.197 33.2348 Z" fill="#000000" fill-rule="nonzero" fill-opacity="1" /><path clip-path="url(#clip040)" d="M948.688 11.9675 L948.688 18.1307 Q945.737 15.3819 942.381 14.0219 Q939.053 12.662 935.292 12.662 Q927.884 12.662 923.949 17.2048 Q920.014 21.7186 920.014 30.2834 Q920.014 38.8192 923.949 43.362 Q927.884 47.8759 935.292 47.8759 Q939.053 47.8759 942.381 46.516 Q945.737 45.156 948.688 42.4072 L948.688 48.5125 Q945.621 50.5958 942.178 51.6375 Q938.764 52.6791 934.944 52.6791 Q925.135 52.6791 919.493 46.6896 Q913.851 40.6711 913.851 30.2834 Q913.851 19.8668 919.493 13.8772 Q925.135 7.85875 934.944 7.85875 Q938.822 7.85875 942.236 8.90042 Q945.679 9.91314 948.688 11.9675 Z" fill="#000000" fill-rule="nonzero" fill-opacity="1" /><path clip-path="url(#clip040)" d="M957.716 8.64 L963.561 8.64 L963.561 26.3482 L984.799 26.3482 L984.799 8.64 L990.644 8.64 L990.644 51.84 L984.799 51.84 L984.799 31.2672 L963.561 31.2672 L963.561 51.84 L957.716 51.84 L957.716 8.64 Z" fill="#000000" fill-rule="nonzero" fill-opacity="1" /><path clip-path="url(#clip040)" d="M1002.28 8.64 L1010.99 8.64 L1022.01 38.038 L1033.09 8.64 L1041.8 8.64 L1041.8 51.84 L1036.1 51.84 L1036.1 13.9062 L1024.96 43.5356 L1019.09 43.5356 L1007.95 13.9062 L1007.95 51.84 L1002.28 51.84 L1002.28 8.64 Z" fill="#000000" fill-rule="nonzero" fill-opacity="1" /><path clip-path="url(#clip040)" d="M1053.4 8.64 L1062.11 8.64 L1073.14 38.038 L1084.22 8.64 L1092.93 8.64 L1092.93 51.84 L1087.23 51.84 L1087.23 13.9062 L1076.09 43.5356 L1070.22 43.5356 L1059.08 13.9062 L1059.08 51.84 L1053.4 51.84 L1053.4 8.64 Z" fill="#000000" fill-rule="nonzero" fill-opacity="1" /><path clip-path="url(#clip040)" d="M1101.61 33.2348 L1117.21 33.2348 L1117.21 37.9801 L1101.61 37.9801 L1101.61 33.2348 Z" fill="#000000" fill-rule="nonzero" fill-opacity="1" /><path clip-path="url(#clip040)" d="M1125.92 8.64 L1133.79 8.64 L1152.94 44.7799 L1152.94 8.64 L1158.61 8.64 L1158.61 51.84 L1150.74 51.84 L1131.59 15.7001 L1131.59 51.84 L1125.92 51.84 L1125.92 8.64 Z" fill="#000000" fill-rule="nonzero" fill-opacity="1" /><path clip-path="url(#clip040)" d="M1194.12 10.2314 L1194.12 19.4328 L1205.08 19.4328 L1205.08 23.5705 L1194.12 23.5705 L1194.12 41.163 Q1194.12 45.1271 1195.19 46.2555 Q1196.29 47.384 1199.61 47.384 L1205.08 47.384 L1205.08 51.84 L1199.61 51.84 Q1193.45 51.84 1191.11 49.5541 Q1188.76 47.2393 1188.76 41.163 L1188.76 23.5705 L1184.86 23.5705 L1184.86 19.4328 L1188.76 19.4328 L1188.76 10.2314 L1194.12 10.2314 Z" fill="#000000" fill-rule="nonzero" fill-opacity="1" /><path clip-path="url(#clip040)" d="M1239.8 34.3054 L1239.8 36.9095 L1215.32 36.9095 Q1215.67 42.4072 1218.62 45.3007 Q1221.6 48.1653 1226.9 48.1653 Q1229.97 48.1653 1232.83 47.4129 Q1235.72 46.6606 1238.56 45.156 L1238.56 50.1907 Q1235.7 51.406 1232.69 52.0425 Q1229.68 52.6791 1226.58 52.6791 Q1218.83 52.6791 1214.28 48.1653 Q1209.77 43.6514 1209.77 35.9547 Q1209.77 27.9975 1214.05 23.339 Q1218.36 18.6515 1225.65 18.6515 Q1232.19 18.6515 1235.98 22.876 Q1239.8 27.0716 1239.8 34.3054 M1234.48 32.7429 Q1234.42 28.3737 1232.02 25.7695 Q1229.65 23.1654 1225.71 23.1654 Q1221.26 23.1654 1218.57 25.6827 Q1215.9 28.2001 1215.5 32.7718 L1234.48 32.7429 Z" fill="#000000" fill-rule="nonzero" fill-opacity="1" /><path clip-path="url(#clip040)" d="M1267.32 24.4096 Q1266.42 23.8888 1265.35 23.6573 Q1264.31 23.3969 1263.04 23.3969 Q1258.52 23.3969 1256.09 26.3482 Q1253.69 29.2707 1253.69 34.7683 L1253.69 51.84 L1248.34 51.84 L1248.34 19.4328 L1253.69 19.4328 L1253.69 24.4675 Q1255.37 21.5161 1258.06 20.0983 Q1260.75 18.6515 1264.6 18.6515 Q1265.15 18.6515 1265.82 18.7383 Q1266.48 18.7962 1267.29 18.9409 L1267.32 24.4096 Z" fill="#000000" fill-rule="nonzero" fill-opacity="1" /><path clip-path="url(#clip040)" d="M1297.1 25.6538 Q1299.09 22.0659 1301.87 20.3587 Q1304.65 18.6515 1308.41 18.6515 Q1313.47 18.6515 1316.22 22.2105 Q1318.97 25.7406 1318.97 32.2799 L1318.97 51.84 L1313.62 51.84 L1313.62 32.4535 Q1313.62 27.795 1311.97 25.5381 Q1310.32 23.2811 1306.93 23.2811 Q1302.8 23.2811 1300.39 26.03 Q1297.99 28.7788 1297.99 33.5241 L1297.99 51.84 L1292.64 51.84 L1292.64 32.4535 Q1292.64 27.7661 1290.99 25.5381 Q1289.34 23.2811 1285.9 23.2811 Q1281.82 23.2811 1279.42 26.0589 Q1277.01 28.8077 1277.01 33.5241 L1277.01 51.84 L1271.66 51.84 L1271.66 19.4328 L1277.01 19.4328 L1277.01 24.4675 Q1278.84 21.4872 1281.38 20.0693 Q1283.93 18.6515 1287.43 18.6515 Q1290.96 18.6515 1293.42 20.4455 Q1295.91 22.2395 1297.1 25.6538 Z" fill="#000000" fill-rule="nonzero" fill-opacity="1" /><path clip-path="url(#clip040)" d="M1329.59 19.4328 L1334.91 19.4328 L1334.91 51.84 L1329.59 51.84 L1329.59 19.4328 M1329.59 6.81709 L1334.91 6.81709 L1334.91 13.559 L1329.59 13.559 L1329.59 6.81709 Z" fill="#000000" fill-rule="nonzero" fill-opacity="1" /><path clip-path="url(#clip040)" d="M1372.99 32.2799 L1372.99 51.84 L1367.67 51.84 L1367.67 32.4535 Q1367.67 27.8529 1365.87 25.567 Q1364.08 23.2811 1360.49 23.2811 Q1356.18 23.2811 1353.69 26.03 Q1351.2 28.7788 1351.2 33.5241 L1351.2 51.84 L1345.85 51.84 L1345.85 19.4328 L1351.2 19.4328 L1351.2 24.4675 Q1353.11 21.545 1355.69 20.0983 Q1358.29 18.6515 1361.68 18.6515 Q1367.26 18.6515 1370.13 22.1237 Q1372.99 25.567 1372.99 32.2799 Z" fill="#000000" fill-rule="nonzero" fill-opacity="1" /><path clip-path="url(#clip040)" d="M1398.34 35.5496 Q1391.89 35.5496 1389.4 37.0253 Q1386.91 38.501 1386.91 42.06 Q1386.91 44.8956 1388.76 46.5738 Q1390.64 48.2231 1393.85 48.2231 Q1398.28 48.2231 1400.94 45.0981 Q1403.63 41.9442 1403.63 36.7359 L1403.63 35.5496 L1398.34 35.5496 M1408.96 33.3505 L1408.96 51.84 L1403.63 51.84 L1403.63 46.921 Q1401.81 49.8724 1399.09 51.2902 Q1396.37 52.6791 1392.44 52.6791 Q1387.46 52.6791 1384.51 49.9014 Q1381.59 47.0947 1381.59 42.4072 Q1381.59 36.9385 1385.23 34.1607 Q1388.91 31.3829 1396.17 31.3829 L1403.63 31.3829 L1403.63 30.8621 Q1403.63 27.1874 1401.2 25.1908 Q1398.8 23.1654 1394.43 23.1654 Q1391.65 23.1654 1389.02 23.8309 Q1386.39 24.4964 1383.96 25.8274 L1383.96 20.9085 Q1386.88 19.78 1389.63 19.2302 Q1392.38 18.6515 1394.98 18.6515 Q1402.01 18.6515 1405.49 22.2973 Q1408.96 25.9431 1408.96 33.3505 Z" fill="#000000" fill-rule="nonzero" fill-opacity="1" /><path clip-path="url(#clip040)" d="M1419.92 6.81709 L1425.25 6.81709 L1425.25 51.84 L1419.92 51.84 L1419.92 6.81709 Z" fill="#000000" fill-rule="nonzero" fill-opacity="1" /><path clip-path="url(#clip040)" d="M1460.38 46.9789 L1460.38 64.1663 L1455.02 64.1663 L1455.02 19.4328 L1460.38 19.4328 L1460.38 24.3517 Q1462.05 21.4582 1464.6 20.0693 Q1467.18 18.6515 1470.73 18.6515 Q1476.64 18.6515 1480.31 23.339 Q1484.02 28.0265 1484.02 35.6653 Q1484.02 43.3042 1480.31 47.9916 Q1476.64 52.6791 1470.73 52.6791 Q1467.18 52.6791 1464.6 51.2902 Q1462.05 49.8724 1460.38 46.9789 M1478.49 35.6653 Q1478.49 29.7915 1476.06 26.464 Q1473.66 23.1075 1469.43 23.1075 Q1465.21 23.1075 1462.78 26.464 Q1460.38 29.7915 1460.38 35.6653 Q1460.38 41.5391 1462.78 44.8956 Q1465.21 48.2231 1469.43 48.2231 Q1473.66 48.2231 1476.06 44.8956 Q1478.49 41.5391 1478.49 35.6653 Z" fill="#000000" fill-rule="nonzero" fill-opacity="1" /><path clip-path="url(#clip040)" d="M1511.62 24.4096 Q1510.72 23.8888 1509.65 23.6573 Q1508.61 23.3969 1507.34 23.3969 Q1502.82 23.3969 1500.39 26.3482 Q1497.99 29.2707 1497.99 34.7683 L1497.99 51.84 L1492.64 51.84 L1492.64 19.4328 L1497.99 19.4328 L1497.99 24.4675 Q1499.67 21.5161 1502.36 20.0983 Q1505.05 18.6515 1508.9 18.6515 Q1509.45 18.6515 1510.11 18.7383 Q1510.78 18.7962 1511.59 18.9409 L1511.62 24.4096 Z" fill="#000000" fill-rule="nonzero" fill-opacity="1" /><path clip-path="url(#clip040)" d="M1517.2 19.4328 L1522.53 19.4328 L1522.53 51.84 L1517.2 51.84 L1517.2 19.4328 M1517.2 6.81709 L1522.53 6.81709 L1522.53 13.559 L1517.2 13.559 L1517.2 6.81709 Z" fill="#000000" fill-rule="nonzero" fill-opacity="1" /><path clip-path="url(#clip040)" d="M1556.99 20.677 L1556.99 25.6538 Q1554.73 24.4096 1552.45 23.802 Q1550.19 23.1654 1547.88 23.1654 Q1542.7 23.1654 1539.83 26.464 Q1536.97 29.7336 1536.97 35.6653 Q1536.97 41.597 1539.83 44.8956 Q1542.7 48.1653 1547.88 48.1653 Q1550.19 48.1653 1552.45 47.5576 Q1554.73 46.921 1556.99 45.6768 L1556.99 50.5958 Q1554.76 51.6375 1552.36 52.1583 Q1549.99 52.6791 1547.3 52.6791 Q1539.98 52.6791 1535.66 48.0784 Q1531.35 43.4778 1531.35 35.6653 Q1531.35 27.7371 1535.69 23.1943 Q1540.06 18.6515 1547.64 18.6515 Q1550.1 18.6515 1552.45 19.1724 Q1554.79 19.6642 1556.99 20.677 Z" fill="#000000" fill-rule="nonzero" fill-opacity="1" /><path clip-path="url(#clip040)" d="M1593.97 34.3054 L1593.97 36.9095 L1569.49 36.9095 Q1569.84 42.4072 1572.79 45.3007 Q1575.77 48.1653 1581.06 48.1653 Q1584.13 48.1653 1587 47.4129 Q1589.89 46.6606 1592.72 45.156 L1592.72 50.1907 Q1589.86 51.406 1586.85 52.0425 Q1583.84 52.6791 1580.75 52.6791 Q1572.99 52.6791 1568.45 48.1653 Q1563.93 43.6514 1563.93 35.9547 Q1563.93 27.9975 1568.22 23.339 Q1572.53 18.6515 1579.82 18.6515 Q1586.36 18.6515 1590.15 22.876 Q1593.97 27.0716 1593.97 34.3054 M1588.64 32.7429 Q1588.59 28.3737 1586.19 25.7695 Q1583.81 23.1654 1579.88 23.1654 Q1575.42 23.1654 1572.73 25.6827 Q1570.07 28.2001 1569.66 32.7718 L1588.64 32.7429 Z" fill="#000000" fill-rule="nonzero" fill-opacity="1" /><path clip-path="url(#clip040)" d="M1634.33 6.87496 Q1630.46 13.53 1628.57 20.0404 Q1626.69 26.5508 1626.69 33.2348 Q1626.69 39.9188 1628.57 46.487 Q1630.48 53.0263 1634.33 59.6525 L1629.7 59.6525 Q1625.36 52.8527 1623.19 46.2845 Q1621.05 39.7162 1621.05 33.2348 Q1621.05 26.7823 1623.19 20.2429 Q1625.33 13.7036 1629.7 6.87496 L1634.33 6.87496 Z" fill="#000000" fill-rule="nonzero" fill-opacity="1" /><path clip-path="url(#clip040)" d="M1671.6 32.2799 L1671.6 51.84 L1666.28 51.84 L1666.28 32.4535 Q1666.28 27.8529 1664.48 25.567 Q1662.69 23.2811 1659.1 23.2811 Q1654.79 23.2811 1652.3 26.03 Q1649.81 28.7788 1649.81 33.5241 L1649.81 51.84 L1644.46 51.84 L1644.46 19.4328 L1649.81 19.4328 L1649.81 24.4675 Q1651.72 21.545 1654.3 20.0983 Q1656.9 18.6515 1660.29 18.6515 Q1665.87 18.6515 1668.74 22.1237 Q1671.6 25.567 1671.6 32.2799 Z" fill="#000000" fill-rule="nonzero" fill-opacity="1" /><path clip-path="url(#clip040)" d="M1682.91 24.9304 L1720.01 24.9304 L1720.01 29.7915 L1682.91 29.7915 L1682.91 24.9304 M1682.91 36.7359 L1720.01 36.7359 L1720.01 41.6549 L1682.91 41.6549 L1682.91 36.7359 Z" fill="#000000" fill-rule="nonzero" fill-opacity="1" /><path clip-path="url(#clip040)" d="M1732.68 8.64 L1755.63 8.64 L1755.63 13.559 L1738.04 13.559 L1738.04 24.1492 Q1739.31 23.7152 1740.58 23.5126 Q1741.86 23.2811 1743.13 23.2811 Q1750.36 23.2811 1754.59 27.2452 Q1758.81 31.2093 1758.81 37.9801 Q1758.81 44.9535 1754.47 48.8308 Q1750.13 52.6791 1742.23 52.6791 Q1739.51 52.6791 1736.68 52.2162 Q1733.87 51.7532 1730.86 50.8273 L1730.86 44.9535 Q1733.46 46.3713 1736.24 47.0657 Q1739.02 47.7602 1742.12 47.7602 Q1747.12 47.7602 1750.04 45.1271 Q1752.97 42.494 1752.97 37.9801 Q1752.97 33.4663 1750.04 30.8332 Q1747.12 28.2001 1742.12 28.2001 Q1739.77 28.2001 1737.43 28.7209 Q1735.11 29.2417 1732.68 30.3413 L1732.68 8.64 Z" fill="#000000" fill-rule="nonzero" fill-opacity="1" /><path clip-path="url(#clip040)" d="M1782.83 12.4884 Q1778.31 12.4884 1776.03 16.9444 Q1773.77 21.3714 1773.77 30.2834 Q1773.77 39.1665 1776.03 43.6225 Q1778.31 48.0495 1782.83 48.0495 Q1787.37 48.0495 1789.63 43.6225 Q1791.91 39.1665 1791.91 30.2834 Q1791.91 21.3714 1789.63 16.9444 Q1787.37 12.4884 1782.83 12.4884 M1782.83 7.85875 Q1790.09 7.85875 1793.91 13.6168 Q1797.76 19.346 1797.76 30.2834 Q1797.76 41.1919 1793.91 46.95 Q1790.09 52.6791 1782.83 52.6791 Q1775.56 52.6791 1771.72 46.95 Q1767.9 41.1919 1767.9 30.2834 Q1767.9 19.346 1771.72 13.6168 Q1775.56 7.85875 1782.83 7.85875 Z" fill="#000000" fill-rule="nonzero" fill-opacity="1" /><path clip-path="url(#clip040)" d="M1820.53 12.4884 Q1816.02 12.4884 1813.73 16.9444 Q1811.47 21.3714 1811.47 30.2834 Q1811.47 39.1665 1813.73 43.6225 Q1816.02 48.0495 1820.53 48.0495 Q1825.07 48.0495 1827.33 43.6225 Q1829.62 39.1665 1829.62 30.2834 Q1829.62 21.3714 1827.33 16.9444 Q1825.07 12.4884 1820.53 12.4884 M1820.53 7.85875 Q1827.79 7.85875 1831.61 13.6168 Q1835.46 19.346 1835.46 30.2834 Q1835.46 41.1919 1831.61 46.95 Q1827.79 52.6791 1820.53 52.6791 Q1813.27 52.6791 1809.42 46.95 Q1805.6 41.1919 1805.6 30.2834 Q1805.6 19.346 1809.42 13.6168 Q1813.27 7.85875 1820.53 7.85875 Z" fill="#000000" fill-rule="nonzero" fill-opacity="1" /><path clip-path="url(#clip040)" d="M1844.14 6.87496 L1848.77 6.87496 Q1853.11 13.7036 1855.25 20.2429 Q1857.42 26.7823 1857.42 33.2348 Q1857.42 39.7162 1855.25 46.2845 Q1853.11 52.8527 1848.77 59.6525 L1844.14 59.6525 Q1847.99 53.0263 1849.87 46.487 Q1851.78 39.9188 1851.78 33.2348 Q1851.78 26.5508 1849.87 20.0404 Q1847.99 13.53 1844.14 6.87496 Z" fill="#000000" fill-rule="nonzero" fill-opacity="1" /><path clip-path="url(#clip042)" d="M323.245 1378.28 L323.245 1423.18 L410.126 1423.18 L410.126 1378.28 L323.245 1378.28 L323.245 1378.28  Z" fill="#4682b4" fill-rule="evenodd" fill-opacity="0.6"/>
<polyline clip-path="url(#clip042)" style="stroke:#000000; stroke-linecap:round; stroke-linejoin:round; stroke-width:4; stroke-opacity:1; fill:none" points="323.245,1378.28 323.245,1423.18 410.126,1423.18 410.126,1378.28 323.245,1378.28 "/>
<path clip-path="url(#clip042)" d="M410.126 1138.83 L410.126 1423.18 L497.007 1423.18 L497.007 1138.83 L410.126 1138.83 L410.126 1138.83  Z" fill="#4682b4" fill-rule="evenodd" fill-opacity="0.6"/>
<polyline clip-path="url(#clip042)" style="stroke:#000000; stroke-linecap:round; stroke-linejoin:round; stroke-width:4; stroke-opacity:1; fill:none" points="410.126,1138.83 410.126,1423.18 497.007,1423.18 497.007,1138.83 410.126,1138.83 "/>
<path clip-path="url(#clip042)" d="M497.007 749.72 L497.007 1423.18 L583.888 1423.18 L583.888 749.72 L497.007 749.72 L497.007 749.72  Z" fill="#4682b4" fill-rule="evenodd" fill-opacity="0.6"/>
<polyline clip-path="url(#clip042)" style="stroke:#000000; stroke-linecap:round; stroke-linejoin:round; stroke-width:4; stroke-opacity:1; fill:none" points="497.007,749.72 497.007,1423.18 583.888,1423.18 583.888,749.72 497.007,749.72 "/>
<path clip-path="url(#clip042)" d="M583.888 210.953 L583.888 1423.18 L670.77 1423.18 L670.77 210.953 L583.888 210.953 L583.888 210.953  Z" fill="#4682b4" fill-rule="evenodd" fill-opacity="0.6"/>
<polyline clip-path="url(#clip042)" style="stroke:#000000; stroke-linecap:round; stroke-linejoin:round; stroke-width:4; stroke-opacity:1; fill:none" points="583.888,210.953 583.888,1423.18 670.77,1423.18 670.77,210.953 583.888,210.953 "/>
<path clip-path="url(#clip042)" d="M670.77 106.192 L670.77 1423.18 L757.651 1423.18 L757.651 106.192 L670.77 106.192 L670.77 106.192  Z" fill="#4682b4" fill-rule="evenodd" fill-opacity="0.6"/>
<polyline clip-path="url(#clip042)" style="stroke:#000000; stroke-linecap:round; stroke-linejoin:round; stroke-width:4; stroke-opacity:1; fill:none" points="670.77,106.192 670.77,1423.18 757.651,1423.18 757.651,106.192 670.77,106.192 "/>
<path clip-path="url(#clip042)" d="M757.651 390.542 L757.651 1423.18 L844.532 1423.18 L844.532 390.542 L757.651 390.542 L757.651 390.542  Z" fill="#4682b4" fill-rule="evenodd" fill-opacity="0.6"/>
<polyline clip-path="url(#clip042)" style="stroke:#000000; stroke-linecap:round; stroke-linejoin:round; stroke-width:4; stroke-opacity:1; fill:none" points="757.651,390.542 757.651,1423.18 844.532,1423.18 844.532,390.542 757.651,390.542 "/>
<path clip-path="url(#clip042)" d="M844.532 615.028 L844.532 1423.18 L931.413 1423.18 L931.413 615.028 L844.532 615.028 L844.532 615.028  Z" fill="#4682b4" fill-rule="evenodd" fill-opacity="0.6"/>
<polyline clip-path="url(#clip042)" style="stroke:#000000; stroke-linecap:round; stroke-linejoin:round; stroke-width:4; stroke-opacity:1; fill:none" points="844.532,615.028 844.532,1423.18 931.413,1423.18 931.413,615.028 844.532,615.028 "/>
<path clip-path="url(#clip042)" d="M931.413 704.823 L931.413 1423.18 L1018.29 1423.18 L1018.29 704.823 L931.413 704.823 L931.413 704.823  Z" fill="#4682b4" fill-rule="evenodd" fill-opacity="0.6"/>
<polyline clip-path="url(#clip042)" style="stroke:#000000; stroke-linecap:round; stroke-linejoin:round; stroke-width:4; stroke-opacity:1; fill:none" points="931.413,704.823 931.413,1423.18 1018.29,1423.18 1018.29,704.823 931.413,704.823 "/>
<path clip-path="url(#clip042)" d="M1018.29 1019.1 L1018.29 1423.18 L1105.18 1423.18 L1105.18 1019.1 L1018.29 1019.1 L1018.29 1019.1  Z" fill="#4682b4" fill-rule="evenodd" fill-opacity="0.6"/>
<polyline clip-path="url(#clip042)" style="stroke:#000000; stroke-linecap:round; stroke-linejoin:round; stroke-width:4; stroke-opacity:1; fill:none" points="1018.29,1019.1 1018.29,1423.18 1105.18,1423.18 1105.18,1019.1 1018.29,1019.1 "/>
<path clip-path="url(#clip042)" d="M1105.18 1108.9 L1105.18 1423.18 L1192.06 1423.18 L1192.06 1108.9 L1105.18 1108.9 L1105.18 1108.9  Z" fill="#4682b4" fill-rule="evenodd" fill-opacity="0.6"/>
<polyline clip-path="url(#clip042)" style="stroke:#000000; stroke-linecap:round; stroke-linejoin:round; stroke-width:4; stroke-opacity:1; fill:none" points="1105.18,1108.9 1105.18,1423.18 1192.06,1423.18 1192.06,1108.9 1105.18,1108.9 "/>
<path clip-path="url(#clip042)" d="M1192.06 1183.73 L1192.06 1423.18 L1278.94 1423.18 L1278.94 1183.73 L1192.06 1183.73 L1192.06 1183.73  Z" fill="#4682b4" fill-rule="evenodd" fill-opacity="0.6"/>
<polyline clip-path="url(#clip042)" style="stroke:#000000; stroke-linecap:round; stroke-linejoin:round; stroke-width:4; stroke-opacity:1; fill:none" points="1192.06,1183.73 1192.06,1423.18 1278.94,1423.18 1278.94,1183.73 1192.06,1183.73 "/>
<path clip-path="url(#clip042)" d="M1278.94 1273.52 L1278.94 1423.18 L1365.82 1423.18 L1365.82 1273.52 L1278.94 1273.52 L1278.94 1273.52  Z" fill="#4682b4" fill-rule="evenodd" fill-opacity="0.6"/>
<polyline clip-path="url(#clip042)" style="stroke:#000000; stroke-linecap:round; stroke-linejoin:round; stroke-width:4; stroke-opacity:1; fill:none" points="1278.94,1273.52 1278.94,1423.18 1365.82,1423.18 1365.82,1273.52 1278.94,1273.52 "/>
<path clip-path="url(#clip042)" d="M1365.82 1363.32 L1365.82 1423.18 L1452.7 1423.18 L1452.7 1363.32 L1365.82 1363.32 L1365.82 1363.32  Z" fill="#4682b4" fill-rule="evenodd" fill-opacity="0.6"/>
<polyline clip-path="url(#clip042)" style="stroke:#000000; stroke-linecap:round; stroke-linejoin:round; stroke-width:4; stroke-opacity:1; fill:none" points="1365.82,1363.32 1365.82,1423.18 1452.7,1423.18 1452.7,1363.32 1365.82,1363.32 "/>
<path clip-path="url(#clip042)" d="M1452.7 1378.28 L1452.7 1423.18 L1539.58 1423.18 L1539.58 1378.28 L1452.7 1378.28 L1452.7 1378.28  Z" fill="#4682b4" fill-rule="evenodd" fill-opacity="0.6"/>
<polyline clip-path="url(#clip042)" style="stroke:#000000; stroke-linecap:round; stroke-linejoin:round; stroke-width:4; stroke-opacity:1; fill:none" points="1452.7,1378.28 1452.7,1423.18 1539.58,1423.18 1539.58,1378.28 1452.7,1378.28 "/>
<path clip-path="url(#clip042)" d="M1539.58 1363.32 L1539.58 1423.18 L1626.46 1423.18 L1626.46 1363.32 L1539.58 1363.32 L1539.58 1363.32  Z" fill="#4682b4" fill-rule="evenodd" fill-opacity="0.6"/>
<polyline clip-path="url(#clip042)" style="stroke:#000000; stroke-linecap:round; stroke-linejoin:round; stroke-width:4; stroke-opacity:1; fill:none" points="1539.58,1363.32 1539.58,1423.18 1626.46,1423.18 1626.46,1363.32 1539.58,1363.32 "/>
<path clip-path="url(#clip042)" d="M1626.46 1378.28 L1626.46 1423.18 L1713.34 1423.18 L1713.34 1378.28 L1626.46 1378.28 L1626.46 1378.28  Z" fill="#4682b4" fill-rule="evenodd" fill-opacity="0.6"/>
<polyline clip-path="url(#clip042)" style="stroke:#000000; stroke-linecap:round; stroke-linejoin:round; stroke-width:4; stroke-opacity:1; fill:none" points="1626.46,1378.28 1626.46,1423.18 1713.34,1423.18 1713.34,1378.28 1626.46,1378.28 "/>
<path clip-path="url(#clip042)" d="M1713.34 1408.21 L1713.34 1423.18 L1800.23 1423.18 L1800.23 1408.21 L1713.34 1408.21 L1713.34 1408.21  Z" fill="#4682b4" fill-rule="evenodd" fill-opacity="0.6"/>
<polyline clip-path="url(#clip042)" style="stroke:#000000; stroke-linecap:round; stroke-linejoin:round; stroke-width:4; stroke-opacity:1; fill:none" points="1713.34,1408.21 1713.34,1423.18 1800.23,1423.18 1800.23,1408.21 1713.34,1408.21 "/>
<path clip-path="url(#clip042)" d="M1800.23 1393.25 L1800.23 1423.18 L1887.11 1423.18 L1887.11 1393.25 L1800.23 1393.25 L1800.23 1393.25  Z" fill="#4682b4" fill-rule="evenodd" fill-opacity="0.6"/>
<polyline clip-path="url(#clip042)" style="stroke:#000000; stroke-linecap:round; stroke-linejoin:round; stroke-width:4; stroke-opacity:1; fill:none" points="1800.23,1393.25 1800.23,1423.18 1887.11,1423.18 1887.11,1393.25 1800.23,1393.25 "/>
<path clip-path="url(#clip042)" d="M1887.11 1423.18 L1887.11 1423.18 L1973.99 1423.18 L1973.99 1423.18 L1887.11 1423.18 L1887.11 1423.18  Z" fill="#4682b4" fill-rule="evenodd" fill-opacity="0.6"/>
<polyline clip-path="url(#clip042)" style="stroke:#000000; stroke-linecap:round; stroke-linejoin:round; stroke-width:4; stroke-opacity:1; fill:none" points="1887.11,1423.18 1887.11,1423.18 1973.99,1423.18 1887.11,1423.18 "/>
<path clip-path="url(#clip042)" d="M1973.99 1423.18 L1973.99 1423.18 L2060.87 1423.18 L2060.87 1423.18 L1973.99 1423.18 L1973.99 1423.18  Z" fill="#4682b4" fill-rule="evenodd" fill-opacity="0.6"/>
<polyline clip-path="url(#clip042)" style="stroke:#000000; stroke-linecap:round; stroke-linejoin:round; stroke-width:4; stroke-opacity:1; fill:none" points="1973.99,1423.18 1973.99,1423.18 2060.87,1423.18 1973.99,1423.18 "/>
<path clip-path="url(#clip042)" d="M2060.87 1408.21 L2060.87 1423.18 L2147.75 1423.18 L2147.75 1408.21 L2060.87 1408.21 L2060.87 1408.21  Z" fill="#4682b4" fill-rule="evenodd" fill-opacity="0.6"/>
<polyline clip-path="url(#clip042)" style="stroke:#000000; stroke-linecap:round; stroke-linejoin:round; stroke-width:4; stroke-opacity:1; fill:none" points="2060.87,1408.21 2060.87,1423.18 2147.75,1423.18 2147.75,1408.21 2060.87,1408.21 "/>
<path clip-path="url(#clip042)" d="M2147.75 1408.21 L2147.75 1423.18 L2234.63 1423.18 L2234.63 1408.21 L2147.75 1408.21 L2147.75 1408.21  Z" fill="#4682b4" fill-rule="evenodd" fill-opacity="0.6"/>
<polyline clip-path="url(#clip042)" style="stroke:#000000; stroke-linecap:round; stroke-linejoin:round; stroke-width:4; stroke-opacity:1; fill:none" points="2147.75,1408.21 2147.75,1423.18 2234.63,1423.18 2234.63,1408.21 2147.75,1408.21 "/>
<circle clip-path="url(#clip042)" style="fill:#4682b4; stroke:none; fill-opacity:0" cx="366.685" cy="1378.28" r="2"/>
<circle clip-path="url(#clip042)" style="fill:#4682b4; stroke:none; fill-opacity:0" cx="453.567" cy="1138.83" r="2"/>
<circle clip-path="url(#clip042)" style="fill:#4682b4; stroke:none; fill-opacity:0" cx="540.448" cy="749.72" r="2"/>
<circle clip-path="url(#clip042)" style="fill:#4682b4; stroke:none; fill-opacity:0" cx="627.329" cy="210.953" r="2"/>
<circle clip-path="url(#clip042)" style="fill:#4682b4; stroke:none; fill-opacity:0" cx="714.21" cy="106.192" r="2"/>
<circle clip-path="url(#clip042)" style="fill:#4682b4; stroke:none; fill-opacity:0" cx="801.092" cy="390.542" r="2"/>
<circle clip-path="url(#clip042)" style="fill:#4682b4; stroke:none; fill-opacity:0" cx="887.973" cy="615.028" r="2"/>
<circle clip-path="url(#clip042)" style="fill:#4682b4; stroke:none; fill-opacity:0" cx="974.854" cy="704.823" r="2"/>
<circle clip-path="url(#clip042)" style="fill:#4682b4; stroke:none; fill-opacity:0" cx="1061.74" cy="1019.1" r="2"/>
<circle clip-path="url(#clip042)" style="fill:#4682b4; stroke:none; fill-opacity:0" cx="1148.62" cy="1108.9" r="2"/>
<circle clip-path="url(#clip042)" style="fill:#4682b4; stroke:none; fill-opacity:0" cx="1235.5" cy="1183.73" r="2"/>
<circle clip-path="url(#clip042)" style="fill:#4682b4; stroke:none; fill-opacity:0" cx="1322.38" cy="1273.52" r="2"/>
<circle clip-path="url(#clip042)" style="fill:#4682b4; stroke:none; fill-opacity:0" cx="1409.26" cy="1363.32" r="2"/>
<circle clip-path="url(#clip042)" style="fill:#4682b4; stroke:none; fill-opacity:0" cx="1496.14" cy="1378.28" r="2"/>
<circle clip-path="url(#clip042)" style="fill:#4682b4; stroke:none; fill-opacity:0" cx="1583.02" cy="1363.32" r="2"/>
<circle clip-path="url(#clip042)" style="fill:#4682b4; stroke:none; fill-opacity:0" cx="1669.9" cy="1378.28" r="2"/>
<circle clip-path="url(#clip042)" style="fill:#4682b4; stroke:none; fill-opacity:0" cx="1756.79" cy="1408.21" r="2"/>
<circle clip-path="url(#clip042)" style="fill:#4682b4; stroke:none; fill-opacity:0" cx="1843.67" cy="1393.25" r="2"/>
<circle clip-path="url(#clip042)" style="fill:#4682b4; stroke:none; fill-opacity:0" cx="1930.55" cy="1423.18" r="2"/>
<circle clip-path="url(#clip042)" style="fill:#4682b4; stroke:none; fill-opacity:0" cx="2017.43" cy="1423.18" r="2"/>
<circle clip-path="url(#clip042)" style="fill:#4682b4; stroke:none; fill-opacity:0" cx="2104.31" cy="1408.21" r="2"/>
<circle clip-path="url(#clip042)" style="fill:#4682b4; stroke:none; fill-opacity:0" cx="2191.19" cy="1408.21" r="2"/>
<polyline clip-path="url(#clip042)" style="stroke:#ff0000; stroke-linecap:round; stroke-linejoin:round; stroke-width:8; stroke-opacity:1; fill:none" points="716.366,2740.17 716.366,-1210.8 "/>
<polyline clip-path="url(#clip042)" style="stroke:#0000ff; stroke-linecap:round; stroke-linejoin:round; stroke-width:8; stroke-opacity:1; fill:none" stroke-dasharray="32, 20" points="780.34,2740.17 780.34,-1210.8 "/>
<path clip-path="url(#clip040)" d="M1632.33 357.452 L2281.17 357.452 L2281.17 150.092 L1632.33 150.092  Z" fill="#ffffff" fill-rule="evenodd" fill-opacity="1"/>
<polyline clip-path="url(#clip040)" style="stroke:#000000; stroke-linecap:round; stroke-linejoin:round; stroke-width:4; stroke-opacity:1; fill:none" points="1632.33,357.452 2281.17,357.452 2281.17,150.092 1632.33,150.092 1632.33,357.452 "/>
<path clip-path="url(#clip040)" d="M1656.2 222.668 L1799.37 222.668 L1799.37 181.196 L1656.2 181.196 L1656.2 222.668  Z" fill="#4682b4" fill-rule="evenodd" fill-opacity="0.6"/>
<polyline clip-path="url(#clip040)" style="stroke:#000000; stroke-linecap:round; stroke-linejoin:round; stroke-width:4; stroke-opacity:1; fill:none" points="1656.2,222.668 1799.37,222.668 1799.37,181.196 1656.2,181.196 1656.2,222.668 "/>
<path clip-path="url(#clip040)" d="M1845.48 185.786 L1845.48 190.346 Q1842.82 189.073 1840.46 188.448 Q1838.09 187.823 1835.9 187.823 Q1832.08 187.823 1829.99 189.304 Q1827.93 190.786 1827.93 193.517 Q1827.93 195.809 1829.3 196.99 Q1830.69 198.147 1834.53 198.865 L1837.35 199.443 Q1842.59 200.439 1845.06 202.962 Q1847.56 205.462 1847.56 209.675 Q1847.56 214.698 1844.18 217.29 Q1840.83 219.883 1834.32 219.883 Q1831.87 219.883 1829.09 219.327 Q1826.34 218.772 1823.37 217.684 L1823.37 212.869 Q1826.22 214.466 1828.95 215.277 Q1831.68 216.087 1834.32 216.087 Q1838.33 216.087 1840.5 214.513 Q1842.68 212.939 1842.68 210.022 Q1842.68 207.476 1841.1 206.04 Q1839.55 204.605 1835.99 203.888 L1833.14 203.332 Q1827.91 202.291 1825.57 200.068 Q1823.23 197.846 1823.23 193.888 Q1823.23 189.304 1826.45 186.666 Q1829.69 184.027 1835.36 184.027 Q1837.79 184.027 1840.32 184.467 Q1842.84 184.906 1845.48 185.786 Z" fill="#000000" fill-rule="nonzero" fill-opacity="1" /><path clip-path="url(#clip040)" d="M1854.67 193.286 L1858.93 193.286 L1858.93 219.212 L1854.67 219.212 L1854.67 193.286 M1854.67 183.193 L1858.93 183.193 L1858.93 188.587 L1854.67 188.587 L1854.67 183.193 Z" fill="#000000" fill-rule="nonzero" fill-opacity="1" /><path clip-path="url(#clip040)" d="M1888.03 198.263 Q1889.62 195.392 1891.84 194.027 Q1894.07 192.661 1897.08 192.661 Q1901.13 192.661 1903.33 195.508 Q1905.52 198.332 1905.52 203.564 L1905.52 219.212 L1901.24 219.212 L1901.24 203.703 Q1901.24 199.976 1899.92 198.17 Q1898.6 196.365 1895.9 196.365 Q1892.59 196.365 1890.66 198.564 Q1888.74 200.763 1888.74 204.559 L1888.74 219.212 L1884.46 219.212 L1884.46 203.703 Q1884.46 199.953 1883.14 198.17 Q1881.82 196.365 1879.07 196.365 Q1875.8 196.365 1873.88 198.587 Q1871.96 200.786 1871.96 204.559 L1871.96 219.212 L1867.68 219.212 L1867.68 193.286 L1871.96 193.286 L1871.96 197.314 Q1873.42 194.929 1875.46 193.795 Q1877.49 192.661 1880.29 192.661 Q1883.12 192.661 1885.09 194.096 Q1887.08 195.531 1888.03 198.263 Z" fill="#000000" fill-rule="nonzero" fill-opacity="1" /><path clip-path="url(#clip040)" d="M1913.58 208.98 L1913.58 193.286 L1917.84 193.286 L1917.84 208.818 Q1917.84 212.499 1919.27 214.351 Q1920.71 216.179 1923.58 216.179 Q1927.03 216.179 1929.02 213.98 Q1931.03 211.781 1931.03 207.985 L1931.03 193.286 L1935.29 193.286 L1935.29 219.212 L1931.03 219.212 L1931.03 215.23 Q1929.48 217.591 1927.42 218.749 Q1925.39 219.883 1922.68 219.883 Q1918.21 219.883 1915.9 217.105 Q1913.58 214.327 1913.58 208.98 M1924.3 192.661 L1924.3 192.661 Z" fill="#000000" fill-rule="nonzero" fill-opacity="1" /><path clip-path="url(#clip040)" d="M1944.07 183.193 L1948.33 183.193 L1948.33 219.212 L1944.07 219.212 L1944.07 183.193 Z" fill="#000000" fill-rule="nonzero" fill-opacity="1" /><path clip-path="url(#clip040)" d="M1969.02 206.179 Q1963.86 206.179 1961.87 207.36 Q1959.88 208.54 1959.88 211.388 Q1959.88 213.656 1961.36 214.999 Q1962.86 216.318 1965.43 216.318 Q1968.97 216.318 1971.1 213.818 Q1973.26 211.295 1973.26 207.128 L1973.26 206.179 L1969.02 206.179 M1977.52 204.42 L1977.52 219.212 L1973.26 219.212 L1973.26 215.277 Q1971.8 217.638 1969.62 218.772 Q1967.45 219.883 1964.3 219.883 Q1960.32 219.883 1957.96 217.661 Q1955.62 215.415 1955.62 211.665 Q1955.62 207.29 1958.53 205.068 Q1961.47 202.846 1967.28 202.846 L1973.26 202.846 L1973.26 202.429 Q1973.26 199.49 1971.31 197.892 Q1969.39 196.272 1965.89 196.272 Q1963.67 196.272 1961.57 196.804 Q1959.46 197.337 1957.52 198.402 L1957.52 194.466 Q1959.85 193.564 1962.05 193.124 Q1964.25 192.661 1966.33 192.661 Q1971.96 192.661 1974.74 195.578 Q1977.52 198.494 1977.52 204.42 Z" fill="#000000" fill-rule="nonzero" fill-opacity="1" /><path clip-path="url(#clip040)" d="M1990.5 185.925 L1990.5 193.286 L1999.27 193.286 L1999.27 196.596 L1990.5 196.596 L1990.5 210.67 Q1990.5 213.841 1991.36 214.744 Q1992.24 215.647 1994.9 215.647 L1999.27 215.647 L1999.27 219.212 L1994.9 219.212 Q1989.97 219.212 1988.09 217.383 Q1986.22 215.531 1986.22 210.67 L1986.22 196.596 L1983.09 196.596 L1983.09 193.286 L1986.22 193.286 L1986.22 185.925 L1990.5 185.925 Z" fill="#000000" fill-rule="nonzero" fill-opacity="1" /><path clip-path="url(#clip040)" d="M2027.05 205.184 L2027.05 207.267 L2007.47 207.267 Q2007.75 211.665 2010.11 213.98 Q2012.49 216.272 2016.73 216.272 Q2019.18 216.272 2021.47 215.67 Q2023.79 215.068 2026.06 213.865 L2026.06 217.892 Q2023.77 218.864 2021.36 219.374 Q2018.95 219.883 2016.47 219.883 Q2010.27 219.883 2006.64 216.272 Q2003.02 212.661 2003.02 206.503 Q2003.02 200.138 2006.45 196.411 Q2009.9 192.661 2015.73 192.661 Q2020.96 192.661 2024 196.041 Q2027.05 199.397 2027.05 205.184 M2022.79 203.934 Q2022.75 200.439 2020.83 198.355 Q2018.93 196.272 2015.78 196.272 Q2012.21 196.272 2010.06 198.286 Q2007.93 200.3 2007.61 203.957 L2022.79 203.934 Z" fill="#000000" fill-rule="nonzero" fill-opacity="1" /><path clip-path="url(#clip040)" d="M2051.1 197.221 L2051.1 183.193 L2055.36 183.193 L2055.36 219.212 L2051.1 219.212 L2051.1 215.323 Q2049.76 217.638 2047.7 218.772 Q2045.66 219.883 2042.79 219.883 Q2038.09 219.883 2035.13 216.133 Q2032.19 212.383 2032.19 206.272 Q2032.19 200.161 2035.13 196.411 Q2038.09 192.661 2042.79 192.661 Q2045.66 192.661 2047.7 193.795 Q2049.76 194.906 2051.1 197.221 M2036.59 206.272 Q2036.59 210.971 2038.51 213.656 Q2040.45 216.318 2043.83 216.318 Q2047.21 216.318 2049.16 213.656 Q2051.1 210.971 2051.1 206.272 Q2051.1 201.573 2049.16 198.911 Q2047.21 196.226 2043.83 196.226 Q2040.45 196.226 2038.51 198.911 Q2036.59 201.573 2036.59 206.272 Z" fill="#000000" fill-rule="nonzero" fill-opacity="1" /><polyline clip-path="url(#clip040)" style="stroke:#ff0000; stroke-linecap:round; stroke-linejoin:round; stroke-width:8; stroke-opacity:1; fill:none" points="1656.2,253.772 1799.37,253.772 "/>
<path clip-path="url(#clip040)" d="M1839.25 239.663 Q1834.16 239.663 1831.15 243.459 Q1828.16 247.256 1828.16 253.806 Q1828.16 260.334 1831.15 264.13 Q1834.16 267.927 1839.25 267.927 Q1844.34 267.927 1847.31 264.13 Q1850.29 260.334 1850.29 253.806 Q1850.29 247.256 1847.31 243.459 Q1844.34 239.663 1839.25 239.663 M1839.25 235.867 Q1846.52 235.867 1850.87 240.751 Q1855.22 245.612 1855.22 253.806 Q1855.22 261.978 1850.87 266.862 Q1846.52 271.723 1839.25 271.723 Q1831.96 271.723 1827.59 266.862 Q1823.23 262.001 1823.23 253.806 Q1823.23 245.612 1827.59 240.751 Q1831.96 235.867 1839.25 235.867 Z" fill="#000000" fill-rule="nonzero" fill-opacity="1" /><path clip-path="url(#clip040)" d="M1880.96 258.112 Q1880.96 253.413 1879.02 250.751 Q1877.1 248.066 1873.72 248.066 Q1870.34 248.066 1868.4 250.751 Q1866.47 253.413 1866.47 258.112 Q1866.47 262.811 1868.4 265.496 Q1870.34 268.158 1873.72 268.158 Q1877.1 268.158 1879.02 265.496 Q1880.96 262.811 1880.96 258.112 M1866.47 249.061 Q1867.82 246.746 1869.85 245.635 Q1871.91 244.501 1874.76 244.501 Q1879.48 244.501 1882.42 248.251 Q1885.39 252.001 1885.39 258.112 Q1885.39 264.223 1882.42 267.973 Q1879.48 271.723 1874.76 271.723 Q1871.91 271.723 1869.85 270.612 Q1867.82 269.478 1866.47 267.163 L1866.47 271.052 L1862.19 271.052 L1862.19 235.033 L1866.47 235.033 L1866.47 249.061 Z" fill="#000000" fill-rule="nonzero" fill-opacity="1" /><path clip-path="url(#clip040)" d="M1908.97 245.89 L1908.97 249.918 Q1907.17 248.992 1905.22 248.529 Q1903.28 248.066 1901.2 248.066 Q1898.02 248.066 1896.43 249.038 Q1894.85 250.01 1894.85 251.955 Q1894.85 253.436 1895.99 254.293 Q1897.12 255.126 1900.55 255.89 L1902.01 256.214 Q1906.54 257.186 1908.44 258.968 Q1910.36 260.728 1910.36 263.899 Q1910.36 267.51 1907.49 269.617 Q1904.65 271.723 1899.65 271.723 Q1897.56 271.723 1895.29 271.306 Q1893.05 270.913 1890.55 270.103 L1890.55 265.705 Q1892.91 266.931 1895.2 267.556 Q1897.49 268.158 1899.74 268.158 Q1902.75 268.158 1904.37 267.14 Q1905.99 266.098 1905.99 264.223 Q1905.99 262.487 1904.81 261.561 Q1903.65 260.635 1899.69 259.779 L1898.21 259.431 Q1894.25 258.598 1892.49 256.885 Q1890.73 255.149 1890.73 252.14 Q1890.73 248.482 1893.33 246.492 Q1895.92 244.501 1900.69 244.501 Q1903.05 244.501 1905.13 244.848 Q1907.21 245.195 1908.97 245.89 Z" fill="#000000" fill-rule="nonzero" fill-opacity="1" /><path clip-path="url(#clip040)" d="M1939.32 257.024 L1939.32 259.107 L1919.74 259.107 Q1920.02 263.505 1922.38 265.82 Q1924.76 268.112 1929 268.112 Q1931.45 268.112 1933.74 267.51 Q1936.06 266.908 1938.33 265.705 L1938.33 269.732 Q1936.03 270.704 1933.63 271.214 Q1931.22 271.723 1928.74 271.723 Q1922.54 271.723 1918.9 268.112 Q1915.29 264.501 1915.29 258.343 Q1915.29 251.978 1918.72 248.251 Q1922.17 244.501 1928 244.501 Q1933.23 244.501 1936.27 247.881 Q1939.32 251.237 1939.32 257.024 M1935.06 255.774 Q1935.02 252.279 1933.09 250.195 Q1931.2 248.112 1928.05 248.112 Q1924.48 248.112 1922.33 250.126 Q1920.2 252.14 1919.88 255.797 L1935.06 255.774 Z" fill="#000000" fill-rule="nonzero" fill-opacity="1" /><path clip-path="url(#clip040)" d="M1961.33 249.107 Q1960.62 248.691 1959.76 248.506 Q1958.93 248.297 1957.91 248.297 Q1954.3 248.297 1952.35 250.658 Q1950.43 252.996 1950.43 257.394 L1950.43 271.052 L1946.15 271.052 L1946.15 245.126 L1950.43 245.126 L1950.43 249.154 Q1951.77 246.793 1953.93 245.658 Q1956.08 244.501 1959.16 244.501 Q1959.6 244.501 1960.13 244.57 Q1960.66 244.617 1961.31 244.732 L1961.33 249.107 Z" fill="#000000" fill-rule="nonzero" fill-opacity="1" /><path clip-path="url(#clip040)" d="M1962.75 245.126 L1967.26 245.126 L1975.36 266.885 L1983.46 245.126 L1987.98 245.126 L1978.26 271.052 L1972.47 271.052 L1962.75 245.126 Z" fill="#000000" fill-rule="nonzero" fill-opacity="1" /><path clip-path="url(#clip040)" d="M2016.03 257.024 L2016.03 259.107 L1996.45 259.107 Q1996.73 263.505 1999.09 265.82 Q2001.47 268.112 2005.71 268.112 Q2008.16 268.112 2010.45 267.51 Q2012.77 266.908 2015.04 265.705 L2015.04 269.732 Q2012.75 270.704 2010.34 271.214 Q2007.93 271.723 2005.45 271.723 Q1999.25 271.723 1995.62 268.112 Q1992.01 264.501 1992.01 258.343 Q1992.01 251.978 1995.43 248.251 Q1998.88 244.501 2004.71 244.501 Q2009.95 244.501 2012.98 247.881 Q2016.03 251.237 2016.03 257.024 M2011.77 255.774 Q2011.73 252.279 2009.81 250.195 Q2007.91 248.112 2004.76 248.112 Q2001.2 248.112 1999.04 250.126 Q1996.91 252.14 1996.59 255.797 L2011.77 255.774 Z" fill="#000000" fill-rule="nonzero" fill-opacity="1" /><path clip-path="url(#clip040)" d="M2040.08 249.061 L2040.08 235.033 L2044.34 235.033 L2044.34 271.052 L2040.08 271.052 L2040.08 267.163 Q2038.74 269.478 2036.68 270.612 Q2034.64 271.723 2031.77 271.723 Q2027.08 271.723 2024.11 267.973 Q2021.17 264.223 2021.17 258.112 Q2021.17 252.001 2024.11 248.251 Q2027.08 244.501 2031.77 244.501 Q2034.64 244.501 2036.68 245.635 Q2038.74 246.746 2040.08 249.061 M2025.57 258.112 Q2025.57 262.811 2027.49 265.496 Q2029.44 268.158 2032.82 268.158 Q2036.2 268.158 2038.14 265.496 Q2040.08 262.811 2040.08 258.112 Q2040.08 253.413 2038.14 250.751 Q2036.2 248.066 2032.82 248.066 Q2029.44 248.066 2027.49 250.751 Q2025.57 253.413 2025.57 258.112 Z" fill="#000000" fill-rule="nonzero" fill-opacity="1" /><path clip-path="url(#clip040)" d="M2072.4 237.765 L2072.4 245.126 L2081.17 245.126 L2081.17 248.436 L2072.4 248.436 L2072.4 262.51 Q2072.4 265.681 2073.26 266.584 Q2074.14 267.487 2076.8 267.487 L2081.17 267.487 L2081.17 271.052 L2076.8 271.052 Q2071.87 271.052 2069.99 269.223 Q2068.12 267.371 2068.12 262.51 L2068.12 248.436 L2064.99 248.436 L2064.99 245.126 L2068.12 245.126 L2068.12 237.765 L2072.4 237.765 Z" fill="#000000" fill-rule="nonzero" fill-opacity="1" /><path clip-path="url(#clip040)" d="M2108.95 257.024 L2108.95 259.107 L2089.37 259.107 Q2089.64 263.505 2092.01 265.82 Q2094.39 268.112 2098.63 268.112 Q2101.08 268.112 2103.37 267.51 Q2105.69 266.908 2107.95 265.705 L2107.95 269.732 Q2105.66 270.704 2103.26 271.214 Q2100.85 271.723 2098.37 271.723 Q2092.17 271.723 2088.53 268.112 Q2084.92 264.501 2084.92 258.343 Q2084.92 251.978 2088.35 248.251 Q2091.8 244.501 2097.63 244.501 Q2102.86 244.501 2105.89 247.881 Q2108.95 251.237 2108.95 257.024 M2104.69 255.774 Q2104.64 252.279 2102.72 250.195 Q2100.82 248.112 2097.68 248.112 Q2094.11 248.112 2091.96 250.126 Q2089.83 252.14 2089.51 255.797 L2104.69 255.774 Z" fill="#000000" fill-rule="nonzero" fill-opacity="1" /><path clip-path="url(#clip040)" d="M2130.96 249.107 Q2130.25 248.691 2129.39 248.506 Q2128.56 248.297 2127.54 248.297 Q2123.93 248.297 2121.98 250.658 Q2120.06 252.996 2120.06 257.394 L2120.06 271.052 L2115.78 271.052 L2115.78 245.126 L2120.06 245.126 L2120.06 249.154 Q2121.4 246.793 2123.56 245.658 Q2125.71 244.501 2128.79 244.501 Q2129.23 244.501 2129.76 244.57 Q2130.29 244.617 2130.94 244.732 L2130.96 249.107 Z" fill="#000000" fill-rule="nonzero" fill-opacity="1" /><path clip-path="url(#clip040)" d="M2154.78 250.103 Q2156.38 247.232 2158.6 245.867 Q2160.82 244.501 2163.83 244.501 Q2167.88 244.501 2170.08 247.348 Q2172.28 250.172 2172.28 255.404 L2172.28 271.052 L2168 271.052 L2168 255.543 Q2168 251.816 2166.68 250.01 Q2165.36 248.205 2162.65 248.205 Q2159.34 248.205 2157.42 250.404 Q2155.5 252.603 2155.5 256.399 L2155.5 271.052 L2151.22 271.052 L2151.22 255.543 Q2151.22 251.793 2149.9 250.01 Q2148.58 248.205 2145.82 248.205 Q2142.56 248.205 2140.64 250.427 Q2138.72 252.626 2138.72 256.399 L2138.72 271.052 L2134.44 271.052 L2134.44 245.126 L2138.72 245.126 L2138.72 249.154 Q2140.18 246.769 2142.21 245.635 Q2144.25 244.501 2147.05 244.501 Q2149.88 244.501 2151.84 245.936 Q2153.83 247.371 2154.78 250.103 Z" fill="#000000" fill-rule="nonzero" fill-opacity="1" /><path clip-path="url(#clip040)" d="M2180.78 245.126 L2185.04 245.126 L2185.04 271.052 L2180.78 271.052 L2180.78 245.126 M2180.78 235.033 L2185.04 235.033 L2185.04 240.427 L2180.78 240.427 L2180.78 235.033 Z" fill="#000000" fill-rule="nonzero" fill-opacity="1" /><path clip-path="url(#clip040)" d="M2215.5 255.404 L2215.5 271.052 L2211.24 271.052 L2211.24 255.543 Q2211.24 251.862 2209.81 250.033 Q2208.37 248.205 2205.5 248.205 Q2202.05 248.205 2200.06 250.404 Q2198.07 252.603 2198.07 256.399 L2198.07 271.052 L2193.79 271.052 L2193.79 245.126 L2198.07 245.126 L2198.07 249.154 Q2199.6 246.816 2201.66 245.658 Q2203.74 244.501 2206.45 244.501 Q2210.92 244.501 2213.21 247.279 Q2215.5 250.033 2215.5 255.404 Z" fill="#000000" fill-rule="nonzero" fill-opacity="1" /><path clip-path="url(#clip040)" d="M2235.78 258.019 Q2230.62 258.019 2228.63 259.2 Q2226.63 260.38 2226.63 263.228 Q2226.63 265.496 2228.12 266.839 Q2229.62 268.158 2232.19 268.158 Q2235.73 268.158 2237.86 265.658 Q2240.01 263.135 2240.01 258.968 L2240.01 258.019 L2235.78 258.019 M2244.27 256.26 L2244.27 271.052 L2240.01 271.052 L2240.01 267.117 Q2238.56 269.478 2236.38 270.612 Q2234.2 271.723 2231.06 271.723 Q2227.07 271.723 2224.71 269.501 Q2222.38 267.255 2222.38 263.505 Q2222.38 259.13 2225.29 256.908 Q2228.23 254.686 2234.04 254.686 L2240.01 254.686 L2240.01 254.269 Q2240.01 251.33 2238.07 249.732 Q2236.15 248.112 2232.65 248.112 Q2230.43 248.112 2228.32 248.644 Q2226.22 249.177 2224.27 250.242 L2224.27 246.306 Q2226.61 245.404 2228.81 244.964 Q2231.01 244.501 2233.09 244.501 Q2238.72 244.501 2241.5 247.418 Q2244.27 250.334 2244.27 256.26 Z" fill="#000000" fill-rule="nonzero" fill-opacity="1" /><path clip-path="url(#clip040)" d="M2253.05 235.033 L2257.31 235.033 L2257.31 271.052 L2253.05 271.052 L2253.05 235.033 Z" fill="#000000" fill-rule="nonzero" fill-opacity="1" /><polyline clip-path="url(#clip040)" style="stroke:#0000ff; stroke-linecap:round; stroke-linejoin:round; stroke-width:8; stroke-opacity:1; fill:none" stroke-dasharray="32, 20" points="1656.2,305.612 1799.37,305.612 "/>
<path clip-path="url(#clip040)" d="M1845.48 289.466 L1845.48 294.026 Q1842.82 292.753 1840.46 292.128 Q1838.09 291.503 1835.9 291.503 Q1832.08 291.503 1829.99 292.984 Q1827.93 294.466 1827.93 297.197 Q1827.93 299.489 1829.3 300.67 Q1830.69 301.827 1834.53 302.545 L1837.35 303.123 Q1842.59 304.119 1845.06 306.642 Q1847.56 309.142 1847.56 313.355 Q1847.56 318.378 1844.18 320.97 Q1840.83 323.563 1834.32 323.563 Q1831.87 323.563 1829.09 323.007 Q1826.34 322.452 1823.37 321.364 L1823.37 316.549 Q1826.22 318.146 1828.95 318.957 Q1831.68 319.767 1834.32 319.767 Q1838.33 319.767 1840.5 318.193 Q1842.68 316.619 1842.68 313.702 Q1842.68 311.156 1841.1 309.72 Q1839.55 308.285 1835.99 307.568 L1833.14 307.012 Q1827.91 305.971 1825.57 303.748 Q1823.23 301.526 1823.23 297.568 Q1823.23 292.984 1826.45 290.346 Q1829.69 287.707 1835.36 287.707 Q1837.79 287.707 1840.32 288.147 Q1842.84 288.586 1845.48 289.466 Z" fill="#000000" fill-rule="nonzero" fill-opacity="1" /><path clip-path="url(#clip040)" d="M1854.67 296.966 L1858.93 296.966 L1858.93 322.892 L1854.67 322.892 L1854.67 296.966 M1854.67 286.873 L1858.93 286.873 L1858.93 292.267 L1854.67 292.267 L1854.67 286.873 Z" fill="#000000" fill-rule="nonzero" fill-opacity="1" /><path clip-path="url(#clip040)" d="M1888.03 301.943 Q1889.62 299.072 1891.84 297.707 Q1894.07 296.341 1897.08 296.341 Q1901.13 296.341 1903.33 299.188 Q1905.52 302.012 1905.52 307.244 L1905.52 322.892 L1901.24 322.892 L1901.24 307.383 Q1901.24 303.656 1899.92 301.85 Q1898.6 300.045 1895.9 300.045 Q1892.59 300.045 1890.66 302.244 Q1888.74 304.443 1888.74 308.239 L1888.74 322.892 L1884.46 322.892 L1884.46 307.383 Q1884.46 303.633 1883.14 301.85 Q1881.82 300.045 1879.07 300.045 Q1875.8 300.045 1873.88 302.267 Q1871.96 304.466 1871.96 308.239 L1871.96 322.892 L1867.68 322.892 L1867.68 296.966 L1871.96 296.966 L1871.96 300.994 Q1873.42 298.609 1875.46 297.475 Q1877.49 296.341 1880.29 296.341 Q1883.12 296.341 1885.09 297.776 Q1887.08 299.211 1888.03 301.943 Z" fill="#000000" fill-rule="nonzero" fill-opacity="1" /><path clip-path="url(#clip040)" d="M1913.58 312.66 L1913.58 296.966 L1917.84 296.966 L1917.84 312.498 Q1917.84 316.179 1919.27 318.031 Q1920.71 319.859 1923.58 319.859 Q1927.03 319.859 1929.02 317.66 Q1931.03 315.461 1931.03 311.665 L1931.03 296.966 L1935.29 296.966 L1935.29 322.892 L1931.03 322.892 L1931.03 318.91 Q1929.48 321.271 1927.42 322.429 Q1925.39 323.563 1922.68 323.563 Q1918.21 323.563 1915.9 320.785 Q1913.58 318.007 1913.58 312.66 M1924.3 296.341 L1924.3 296.341 Z" fill="#000000" fill-rule="nonzero" fill-opacity="1" /><path clip-path="url(#clip040)" d="M1944.07 286.873 L1948.33 286.873 L1948.33 322.892 L1944.07 322.892 L1944.07 286.873 Z" fill="#000000" fill-rule="nonzero" fill-opacity="1" /><path clip-path="url(#clip040)" d="M1969.02 309.859 Q1963.86 309.859 1961.87 311.04 Q1959.88 312.22 1959.88 315.068 Q1959.88 317.336 1961.36 318.679 Q1962.86 319.998 1965.43 319.998 Q1968.97 319.998 1971.1 317.498 Q1973.26 314.975 1973.26 310.808 L1973.26 309.859 L1969.02 309.859 M1977.52 308.1 L1977.52 322.892 L1973.26 322.892 L1973.26 318.957 Q1971.8 321.318 1969.62 322.452 Q1967.45 323.563 1964.3 323.563 Q1960.32 323.563 1957.96 321.341 Q1955.62 319.095 1955.62 315.345 Q1955.62 310.97 1958.53 308.748 Q1961.47 306.526 1967.28 306.526 L1973.26 306.526 L1973.26 306.109 Q1973.26 303.17 1971.31 301.572 Q1969.39 299.952 1965.89 299.952 Q1963.67 299.952 1961.57 300.484 Q1959.46 301.017 1957.52 302.082 L1957.52 298.146 Q1959.85 297.244 1962.05 296.804 Q1964.25 296.341 1966.33 296.341 Q1971.96 296.341 1974.74 299.258 Q1977.52 302.174 1977.52 308.1 Z" fill="#000000" fill-rule="nonzero" fill-opacity="1" /><path clip-path="url(#clip040)" d="M1990.5 289.605 L1990.5 296.966 L1999.27 296.966 L1999.27 300.276 L1990.5 300.276 L1990.5 314.35 Q1990.5 317.521 1991.36 318.424 Q1992.24 319.327 1994.9 319.327 L1999.27 319.327 L1999.27 322.892 L1994.9 322.892 Q1989.97 322.892 1988.09 321.063 Q1986.22 319.211 1986.22 314.35 L1986.22 300.276 L1983.09 300.276 L1983.09 296.966 L1986.22 296.966 L1986.22 289.605 L1990.5 289.605 Z" fill="#000000" fill-rule="nonzero" fill-opacity="1" /><path clip-path="url(#clip040)" d="M2027.05 308.864 L2027.05 310.947 L2007.47 310.947 Q2007.75 315.345 2010.11 317.66 Q2012.49 319.952 2016.73 319.952 Q2019.18 319.952 2021.47 319.35 Q2023.79 318.748 2026.06 317.545 L2026.06 321.572 Q2023.77 322.544 2021.36 323.054 Q2018.95 323.563 2016.47 323.563 Q2010.27 323.563 2006.64 319.952 Q2003.02 316.341 2003.02 310.183 Q2003.02 303.818 2006.45 300.091 Q2009.9 296.341 2015.73 296.341 Q2020.96 296.341 2024 299.721 Q2027.05 303.077 2027.05 308.864 M2022.79 307.614 Q2022.75 304.119 2020.83 302.035 Q2018.93 299.952 2015.78 299.952 Q2012.21 299.952 2010.06 301.966 Q2007.93 303.98 2007.61 307.637 L2022.79 307.614 Z" fill="#000000" fill-rule="nonzero" fill-opacity="1" /><path clip-path="url(#clip040)" d="M2051.1 300.901 L2051.1 286.873 L2055.36 286.873 L2055.36 322.892 L2051.1 322.892 L2051.1 319.003 Q2049.76 321.318 2047.7 322.452 Q2045.66 323.563 2042.79 323.563 Q2038.09 323.563 2035.13 319.813 Q2032.19 316.063 2032.19 309.952 Q2032.19 303.841 2035.13 300.091 Q2038.09 296.341 2042.79 296.341 Q2045.66 296.341 2047.7 297.475 Q2049.76 298.586 2051.1 300.901 M2036.59 309.952 Q2036.59 314.651 2038.51 317.336 Q2040.45 319.998 2043.83 319.998 Q2047.21 319.998 2049.16 317.336 Q2051.1 314.651 2051.1 309.952 Q2051.1 305.253 2049.16 302.591 Q2047.21 299.906 2043.83 299.906 Q2040.45 299.906 2038.51 302.591 Q2036.59 305.253 2036.59 309.952 Z" fill="#000000" fill-rule="nonzero" fill-opacity="1" /><path clip-path="url(#clip040)" d="M2099.39 301.943 Q2100.99 299.072 2103.21 297.707 Q2105.43 296.341 2108.44 296.341 Q2112.49 296.341 2114.69 299.188 Q2116.89 302.012 2116.89 307.244 L2116.89 322.892 L2112.61 322.892 L2112.61 307.383 Q2112.61 303.656 2111.29 301.85 Q2109.97 300.045 2107.26 300.045 Q2103.95 300.045 2102.03 302.244 Q2100.11 304.443 2100.11 308.239 L2100.11 322.892 L2095.82 322.892 L2095.82 307.383 Q2095.82 303.633 2094.51 301.85 Q2093.19 300.045 2090.43 300.045 Q2087.17 300.045 2085.25 302.267 Q2083.32 304.466 2083.32 308.239 L2083.32 322.892 L2079.04 322.892 L2079.04 296.966 L2083.32 296.966 L2083.32 300.994 Q2084.78 298.609 2086.82 297.475 Q2088.86 296.341 2091.66 296.341 Q2094.48 296.341 2096.45 297.776 Q2098.44 299.211 2099.39 301.943 Z" fill="#000000" fill-rule="nonzero" fill-opacity="1" /><path clip-path="url(#clip040)" d="M2147.56 308.864 L2147.56 310.947 L2127.98 310.947 Q2128.26 315.345 2130.62 317.66 Q2133 319.952 2137.24 319.952 Q2139.69 319.952 2141.98 319.35 Q2144.3 318.748 2146.57 317.545 L2146.57 321.572 Q2144.27 322.544 2141.87 323.054 Q2139.46 323.563 2136.98 323.563 Q2130.78 323.563 2127.14 319.952 Q2123.53 316.341 2123.53 310.183 Q2123.53 303.818 2126.96 300.091 Q2130.41 296.341 2136.24 296.341 Q2141.47 296.341 2144.51 299.721 Q2147.56 303.077 2147.56 308.864 M2143.3 307.614 Q2143.26 304.119 2141.33 302.035 Q2139.44 299.952 2136.29 299.952 Q2132.72 299.952 2130.57 301.966 Q2128.44 303.98 2128.12 307.637 L2143.3 307.614 Z" fill="#000000" fill-rule="nonzero" fill-opacity="1" /><path clip-path="url(#clip040)" d="M2171.61 300.901 L2171.61 286.873 L2175.87 286.873 L2175.87 322.892 L2171.61 322.892 L2171.61 319.003 Q2170.27 321.318 2168.21 322.452 Q2166.17 323.563 2163.3 323.563 Q2158.6 323.563 2155.64 319.813 Q2152.7 316.063 2152.7 309.952 Q2152.7 303.841 2155.64 300.091 Q2158.6 296.341 2163.3 296.341 Q2166.17 296.341 2168.21 297.475 Q2170.27 298.586 2171.61 300.901 M2157.1 309.952 Q2157.1 314.651 2159.02 317.336 Q2160.96 319.998 2164.34 319.998 Q2167.72 319.998 2169.67 317.336 Q2171.61 314.651 2171.61 309.952 Q2171.61 305.253 2169.67 302.591 Q2167.72 299.906 2164.34 299.906 Q2160.96 299.906 2159.02 302.591 Q2157.1 305.253 2157.1 309.952 Z" fill="#000000" fill-rule="nonzero" fill-opacity="1" /><path clip-path="url(#clip040)" d="M2184.64 296.966 L2188.9 296.966 L2188.9 322.892 L2184.64 322.892 L2184.64 296.966 M2184.64 286.873 L2188.9 286.873 L2188.9 292.267 L2184.64 292.267 L2184.64 286.873 Z" fill="#000000" fill-rule="nonzero" fill-opacity="1" /><path clip-path="url(#clip040)" d="M2209.6 309.859 Q2204.44 309.859 2202.44 311.04 Q2200.45 312.22 2200.45 315.068 Q2200.45 317.336 2201.94 318.679 Q2203.44 319.998 2206.01 319.998 Q2209.55 319.998 2211.68 317.498 Q2213.83 314.975 2213.83 310.808 L2213.83 309.859 L2209.6 309.859 M2218.09 308.1 L2218.09 322.892 L2213.83 322.892 L2213.83 318.957 Q2212.38 321.318 2210.2 322.452 Q2208.02 323.563 2204.88 323.563 Q2200.89 323.563 2198.53 321.341 Q2196.19 319.095 2196.19 315.345 Q2196.19 310.97 2199.11 308.748 Q2202.05 306.526 2207.86 306.526 L2213.83 306.526 L2213.83 306.109 Q2213.83 303.17 2211.89 301.572 Q2209.97 299.952 2206.47 299.952 Q2204.25 299.952 2202.14 300.484 Q2200.04 301.017 2198.09 302.082 L2198.09 298.146 Q2200.43 297.244 2202.63 296.804 Q2204.83 296.341 2206.91 296.341 Q2212.54 296.341 2215.31 299.258 Q2218.09 302.174 2218.09 308.1 Z" fill="#000000" fill-rule="nonzero" fill-opacity="1" /><path clip-path="url(#clip040)" d="M2248.42 307.244 L2248.42 322.892 L2244.16 322.892 L2244.16 307.383 Q2244.16 303.702 2242.72 301.873 Q2241.29 300.045 2238.42 300.045 Q2234.97 300.045 2232.98 302.244 Q2230.99 304.443 2230.99 308.239 L2230.99 322.892 L2226.7 322.892 L2226.7 296.966 L2230.99 296.966 L2230.99 300.994 Q2232.51 298.656 2234.57 297.498 Q2236.66 296.341 2239.37 296.341 Q2243.83 296.341 2246.12 299.119 Q2248.42 301.873 2248.42 307.244 Z" fill="#000000" fill-rule="nonzero" fill-opacity="1" /></svg>
