<?xml version="1.0" encoding="utf-8"?>
<svg xmlns="http://www.w3.org/2000/svg" xmlns:xlink="http://www.w3.org/1999/xlink" width="600" height="400" viewBox="0 0 2400 1600">
<defs>
  <clipPath id="clip490">
    <rect x="0" y="0" width="2400" height="1600"/>
  </clipPath>
</defs>
<path clip-path="url(#clip490)" d="M0 1600 L2400 1600 L2400 8.88178e-14 L0 8.88178e-14  Z" fill="#ffffff" fill-rule="evenodd" fill-opacity="1"/>
<defs>
  <clipPath id="clip491">
    <rect x="461" y="125" width="1814" height="1116"/>
  </clipPath>
</defs>
<path clip-path="url(#clip490)" d="M421.882 1241.31 L2274.02 1241.31 L2274.02 125.984 L421.882 125.984  Z" fill="#ffffff" fill-rule="evenodd" fill-opacity="1"/>
<defs>
  <clipPath id="clip492">
    <rect x="421" y="125" width="1853" height="1116"/>
  </clipPath>
</defs>
<polyline clip-path="url(#clip492)" style="stroke:#000000; stroke-linecap:round; stroke-linejoin:round; stroke-width:2; stroke-opacity:0.1; fill:none" points="523.753,1241.31 523.753,125.984 "/>
<polyline clip-path="url(#clip492)" style="stroke:#000000; stroke-linecap:round; stroke-linejoin:round; stroke-width:2; stroke-opacity:0.1; fill:none" points="935.851,1241.31 935.851,125.984 "/>
<polyline clip-path="url(#clip492)" style="stroke:#000000; stroke-linecap:round; stroke-linejoin:round; stroke-width:2; stroke-opacity:0.1; fill:none" points="1347.95,1241.31 1347.95,125.984 "/>
<polyline clip-path="url(#clip492)" style="stroke:#000000; stroke-linecap:round; stroke-linejoin:round; stroke-width:2; stroke-opacity:0.1; fill:none" points="1760.05,1241.31 1760.05,125.984 "/>
<polyline clip-path="url(#clip492)" style="stroke:#000000; stroke-linecap:round; stroke-linejoin:round; stroke-width:2; stroke-opacity:0.1; fill:none" points="2172.15,1241.31 2172.15,125.984 "/>
<polyline clip-path="url(#clip492)" style="stroke:#000000; stroke-linecap:round; stroke-linejoin:round; stroke-width:2; stroke-opacity:0.1; fill:none" points="421.882,1241.31 2274.02,1241.31 "/>
<polyline clip-path="url(#clip492)" style="stroke:#000000; stroke-linecap:round; stroke-linejoin:round; stroke-width:2; stroke-opacity:0.1; fill:none" points="421.882,869.536 2274.02,869.536 "/>
<polyline clip-path="url(#clip492)" style="stroke:#000000; stroke-linecap:round; stroke-linejoin:round; stroke-width:2; stroke-opacity:0.1; fill:none" points="421.882,497.76 2274.02,497.76 "/>
<polyline clip-path="url(#clip492)" style="stroke:#000000; stroke-linecap:round; stroke-linejoin:round; stroke-width:2; stroke-opacity:0.1; fill:none" points="421.882,125.984 2274.02,125.984 "/>
<polyline clip-path="url(#clip490)" style="stroke:#000000; stroke-linecap:round; stroke-linejoin:round; stroke-width:4; stroke-opacity:1; fill:none" points="421.882,1241.31 2274.02,1241.31 "/>
<polyline clip-path="url(#clip490)" style="stroke:#000000; stroke-linecap:round; stroke-linejoin:round; stroke-width:4; stroke-opacity:1; fill:none" points="523.753,1241.31 523.753,1222.41 "/>
<polyline clip-path="url(#clip490)" style="stroke:#000000; stroke-linecap:round; stroke-linejoin:round; stroke-width:4; stroke-opacity:1; fill:none" points="935.851,1241.31 935.851,1222.41 "/>
<polyline clip-path="url(#clip490)" style="stroke:#000000; stroke-linecap:round; stroke-linejoin:round; stroke-width:4; stroke-opacity:1; fill:none" points="1347.95,1241.31 1347.95,1222.41 "/>
<polyline clip-path="url(#clip490)" style="stroke:#000000; stroke-linecap:round; stroke-linejoin:round; stroke-width:4; stroke-opacity:1; fill:none" points="1760.05,1241.31 1760.05,1222.41 "/>
<polyline clip-path="url(#clip490)" style="stroke:#000000; stroke-linecap:round; stroke-linejoin:round; stroke-width:4; stroke-opacity:1; fill:none" points="2172.15,1241.31 2172.15,1222.41 "/>
<path clip-path="url(#clip490)" d="M478.368 1309.59 L498.768 1309.59 L498.768 1314.51 L471.337 1314.51 L471.337 1309.59 Q474.665 1306.15 480.394 1300.36 Q486.152 1294.55 487.628 1292.87 Q490.434 1289.71 491.534 1287.54 Q492.662 1285.34 492.662 1283.23 Q492.662 1279.79 490.232 1277.62 Q487.83 1275.45 483.953 1275.45 Q481.204 1275.45 478.137 1276.4 Q475.099 1277.36 471.627 1279.3 L471.627 1273.39 Q475.157 1271.98 478.224 1271.25 Q481.291 1270.53 483.837 1270.53 Q490.55 1270.53 494.543 1273.89 Q498.536 1277.24 498.536 1282.86 Q498.536 1285.52 497.523 1287.92 Q496.54 1290.29 493.907 1293.53 Q493.183 1294.37 489.306 1298.39 Q485.429 1302.39 478.368 1309.59 Z" fill="#000000" fill-rule="nonzero" fill-opacity="1" /><path clip-path="url(#clip490)" d="M511.094 1271.31 L534.039 1271.31 L534.039 1276.23 L516.447 1276.23 L516.447 1286.82 Q517.72 1286.39 518.993 1286.18 Q520.266 1285.95 521.539 1285.95 Q528.773 1285.95 532.998 1289.92 Q537.222 1293.88 537.222 1300.65 Q537.222 1307.62 532.882 1311.5 Q528.542 1315.35 520.642 1315.35 Q517.923 1315.35 515.087 1314.89 Q512.28 1314.42 509.271 1313.5 L509.271 1307.62 Q511.875 1309.04 514.653 1309.74 Q517.431 1310.43 520.527 1310.43 Q525.532 1310.43 528.455 1307.8 Q531.377 1305.17 531.377 1300.65 Q531.377 1296.14 528.455 1293.5 Q525.532 1290.87 520.527 1290.87 Q518.183 1290.87 515.839 1291.39 Q513.524 1291.91 511.094 1293.01 L511.094 1271.31 Z" fill="#000000" fill-rule="nonzero" fill-opacity="1" /><path clip-path="url(#clip490)" d="M561.238 1275.16 Q556.724 1275.16 554.439 1279.62 Q552.182 1284.04 552.182 1292.95 Q552.182 1301.84 554.439 1306.29 Q556.724 1310.72 561.238 1310.72 Q565.781 1310.72 568.038 1306.29 Q570.324 1301.84 570.324 1292.95 Q570.324 1284.04 568.038 1279.62 Q565.781 1275.16 561.238 1275.16 M561.238 1270.53 Q568.501 1270.53 572.32 1276.29 Q576.169 1282.02 576.169 1292.95 Q576.169 1303.86 572.32 1309.62 Q568.501 1315.35 561.238 1315.35 Q553.976 1315.35 550.127 1309.62 Q546.308 1303.86 546.308 1292.95 Q546.308 1282.02 550.127 1276.29 Q553.976 1270.53 561.238 1270.53 Z" fill="#000000" fill-rule="nonzero" fill-opacity="1" /><path clip-path="url(#clip490)" d="M885.374 1271.31 L908.319 1271.31 L908.319 1276.23 L890.727 1276.23 L890.727 1286.82 Q892 1286.39 893.273 1286.18 Q894.546 1285.95 895.819 1285.95 Q903.053 1285.95 907.278 1289.92 Q911.502 1293.88 911.502 1300.65 Q911.502 1307.62 907.162 1311.5 Q902.822 1315.35 894.922 1315.35 Q892.203 1315.35 889.367 1314.89 Q886.56 1314.42 883.551 1313.5 L883.551 1307.62 Q886.155 1309.04 888.933 1309.74 Q891.711 1310.43 894.807 1310.43 Q899.812 1310.43 902.735 1307.8 Q905.657 1305.17 905.657 1300.65 Q905.657 1296.14 902.735 1293.5 Q899.812 1290.87 894.807 1290.87 Q892.463 1290.87 890.119 1291.39 Q887.804 1291.91 885.374 1293.01 L885.374 1271.31 Z" fill="#000000" fill-rule="nonzero" fill-opacity="1" /><path clip-path="url(#clip490)" d="M935.518 1275.16 Q931.004 1275.16 928.719 1279.62 Q926.462 1284.04 926.462 1292.95 Q926.462 1301.84 928.719 1306.29 Q931.004 1310.72 935.518 1310.72 Q940.061 1310.72 942.318 1306.29 Q944.604 1301.84 944.604 1292.95 Q944.604 1284.04 942.318 1279.62 Q940.061 1275.16 935.518 1275.16 M935.518 1270.53 Q942.781 1270.53 946.6 1276.29 Q950.449 1282.02 950.449 1292.95 Q950.449 1303.86 946.6 1309.62 Q942.781 1315.35 935.518 1315.35 Q928.256 1315.35 924.407 1309.62 Q920.588 1303.86 920.588 1292.95 Q920.588 1282.02 924.407 1276.29 Q928.256 1270.53 935.518 1270.53 Z" fill="#000000" fill-rule="nonzero" fill-opacity="1" /><path clip-path="url(#clip490)" d="M973.221 1275.16 Q968.707 1275.16 966.421 1279.62 Q964.164 1284.04 964.164 1292.95 Q964.164 1301.84 966.421 1306.29 Q968.707 1310.72 973.221 1310.72 Q977.763 1310.72 980.02 1306.29 Q982.306 1301.84 982.306 1292.95 Q982.306 1284.04 980.02 1279.62 Q977.763 1275.16 973.221 1275.16 M973.221 1270.53 Q980.483 1270.53 984.303 1276.29 Q988.151 1282.02 988.151 1292.95 Q988.151 1303.86 984.303 1309.62 Q980.483 1315.35 973.221 1315.35 Q965.958 1315.35 962.11 1309.62 Q958.29 1303.86 958.29 1292.95 Q958.29 1282.02 962.11 1276.29 Q965.958 1270.53 973.221 1270.53 Z" fill="#000000" fill-rule="nonzero" fill-opacity="1" /><path clip-path="url(#clip490)" d="M1295.79 1271.31 L1323.57 1271.31 L1323.57 1273.8 L1307.89 1314.51 L1301.78 1314.51 L1316.54 1276.23 L1295.79 1276.23 L1295.79 1271.31 Z" fill="#000000" fill-rule="nonzero" fill-opacity="1" /><path clip-path="url(#clip490)" d="M1335.03 1271.31 L1357.98 1271.31 L1357.98 1276.23 L1340.38 1276.23 L1340.38 1286.82 Q1341.66 1286.39 1342.93 1286.18 Q1344.2 1285.95 1345.48 1285.95 Q1352.71 1285.95 1356.93 1289.92 Q1361.16 1293.88 1361.16 1300.65 Q1361.16 1307.62 1356.82 1311.5 Q1352.48 1315.35 1344.58 1315.35 Q1341.86 1315.35 1339.02 1314.89 Q1336.22 1314.42 1333.21 1313.5 L1333.21 1307.62 Q1335.81 1309.04 1338.59 1309.74 Q1341.37 1310.43 1344.46 1310.43 Q1349.47 1310.43 1352.39 1307.8 Q1355.31 1305.17 1355.31 1300.65 Q1355.31 1296.14 1352.39 1293.5 Q1349.47 1290.87 1344.46 1290.87 Q1342.12 1290.87 1339.77 1291.39 Q1337.46 1291.91 1335.03 1293.01 L1335.03 1271.31 Z" fill="#000000" fill-rule="nonzero" fill-opacity="1" /><path clip-path="url(#clip490)" d="M1385.17 1275.16 Q1380.66 1275.16 1378.37 1279.62 Q1376.12 1284.04 1376.12 1292.95 Q1376.12 1301.84 1378.37 1306.29 Q1380.66 1310.72 1385.17 1310.72 Q1389.72 1310.72 1391.97 1306.29 Q1394.26 1301.84 1394.26 1292.95 Q1394.26 1284.04 1391.97 1279.62 Q1389.72 1275.16 1385.17 1275.16 M1385.17 1270.53 Q1392.44 1270.53 1396.26 1276.29 Q1400.1 1282.02 1400.1 1292.95 Q1400.1 1303.86 1396.26 1309.62 Q1392.44 1315.35 1385.17 1315.35 Q1377.91 1315.35 1374.06 1309.62 Q1370.24 1303.86 1370.24 1292.95 Q1370.24 1282.02 1374.06 1276.29 Q1377.91 1270.53 1385.17 1270.53 Z" fill="#000000" fill-rule="nonzero" fill-opacity="1" /><path clip-path="url(#clip490)" d="M1690.7 1309.59 L1700.25 1309.59 L1700.25 1276.64 L1689.87 1278.72 L1689.87 1273.39 L1700.19 1271.31 L1706.04 1271.31 L1706.04 1309.59 L1715.59 1309.59 L1715.59 1314.51 L1690.7 1314.51 L1690.7 1309.59 Z" fill="#000000" fill-rule="nonzero" fill-opacity="1" /><path clip-path="url(#clip490)" d="M1739.89 1275.16 Q1735.38 1275.16 1733.09 1279.62 Q1730.84 1284.04 1730.84 1292.95 Q1730.84 1301.84 1733.09 1306.29 Q1735.38 1310.72 1739.89 1310.72 Q1744.44 1310.72 1746.69 1306.29 Q1748.98 1301.84 1748.98 1292.95 Q1748.98 1284.04 1746.69 1279.62 Q1744.44 1275.16 1739.89 1275.16 M1739.89 1270.53 Q1747.16 1270.53 1750.98 1276.29 Q1754.82 1282.02 1754.82 1292.95 Q1754.82 1303.86 1750.98 1309.62 Q1747.16 1315.35 1739.89 1315.35 Q1732.63 1315.35 1728.78 1309.62 Q1724.96 1303.86 1724.96 1292.95 Q1724.96 1282.02 1728.78 1276.29 Q1732.63 1270.53 1739.89 1270.53 Z" fill="#000000" fill-rule="nonzero" fill-opacity="1" /><path clip-path="url(#clip490)" d="M1777.6 1275.16 Q1773.08 1275.16 1770.8 1279.62 Q1768.54 1284.04 1768.54 1292.95 Q1768.54 1301.84 1770.8 1306.29 Q1773.08 1310.72 1777.6 1310.72 Q1782.14 1310.72 1784.4 1306.29 Q1786.68 1301.84 1786.68 1292.95 Q1786.68 1284.04 1784.4 1279.62 Q1782.14 1275.16 1777.6 1275.16 M1777.6 1270.53 Q1784.86 1270.53 1788.68 1276.29 Q1792.53 1282.02 1792.53 1292.95 Q1792.53 1303.86 1788.68 1309.62 Q1784.86 1315.35 1777.6 1315.35 Q1770.33 1315.35 1766.49 1309.62 Q1762.67 1303.86 1762.67 1292.95 Q1762.67 1282.02 1766.49 1276.29 Q1770.33 1270.53 1777.6 1270.53 Z" fill="#000000" fill-rule="nonzero" fill-opacity="1" /><path clip-path="url(#clip490)" d="M1815.3 1275.16 Q1810.78 1275.16 1808.5 1279.62 Q1806.24 1284.04 1806.24 1292.95 Q1806.24 1301.84 1808.5 1306.29 Q1810.78 1310.72 1815.3 1310.72 Q1819.84 1310.72 1822.1 1306.29 Q1824.38 1301.84 1824.38 1292.95 Q1824.38 1284.04 1822.1 1279.62 Q1819.84 1275.16 1815.3 1275.16 M1815.3 1270.53 Q1822.56 1270.53 1826.38 1276.29 Q1830.23 1282.02 1830.23 1292.95 Q1830.23 1303.86 1826.38 1309.62 Q1822.56 1315.35 1815.3 1315.35 Q1808.04 1315.35 1804.19 1309.62 Q1800.37 1303.86 1800.37 1292.95 Q1800.37 1282.02 1804.19 1276.29 Q1808.04 1270.53 1815.3 1270.53 Z" fill="#000000" fill-rule="nonzero" fill-opacity="1" /><path clip-path="url(#clip490)" d="M2102.8 1309.59 L2112.35 1309.59 L2112.35 1276.64 L2101.96 1278.72 L2101.96 1273.39 L2112.29 1271.31 L2118.14 1271.31 L2118.14 1309.59 L2127.69 1309.59 L2127.69 1314.51 L2102.8 1314.51 L2102.8 1309.59 Z" fill="#000000" fill-rule="nonzero" fill-opacity="1" /><path clip-path="url(#clip490)" d="M2144.53 1309.59 L2164.93 1309.59 L2164.93 1314.51 L2137.5 1314.51 L2137.5 1309.59 Q2140.82 1306.15 2146.55 1300.36 Q2152.31 1294.55 2153.79 1292.87 Q2156.59 1289.71 2157.69 1287.54 Q2158.82 1285.34 2158.82 1283.23 Q2158.82 1279.79 2156.39 1277.62 Q2153.99 1275.45 2150.11 1275.45 Q2147.36 1275.45 2144.3 1276.4 Q2141.26 1277.36 2137.78 1279.3 L2137.78 1273.39 Q2141.31 1271.98 2144.38 1271.25 Q2147.45 1270.53 2150 1270.53 Q2156.71 1270.53 2160.7 1273.89 Q2164.69 1277.24 2164.69 1282.86 Q2164.69 1285.52 2163.68 1287.92 Q2162.7 1290.29 2160.06 1293.53 Q2159.34 1294.37 2155.46 1298.39 Q2151.59 1302.39 2144.53 1309.59 Z" fill="#000000" fill-rule="nonzero" fill-opacity="1" /><path clip-path="url(#clip490)" d="M2177.25 1271.31 L2200.2 1271.31 L2200.2 1276.23 L2182.61 1276.23 L2182.61 1286.82 Q2183.88 1286.39 2185.15 1286.18 Q2186.42 1285.95 2187.7 1285.95 Q2194.93 1285.95 2199.16 1289.92 Q2203.38 1293.88 2203.38 1300.65 Q2203.38 1307.62 2199.04 1311.5 Q2194.7 1315.35 2186.8 1315.35 Q2184.08 1315.35 2181.25 1314.89 Q2178.44 1314.42 2175.43 1313.5 L2175.43 1307.62 Q2178.03 1309.04 2180.81 1309.74 Q2183.59 1310.43 2186.68 1310.43 Q2191.69 1310.43 2194.61 1307.8 Q2197.54 1305.17 2197.54 1300.65 Q2197.54 1296.14 2194.61 1293.5 Q2191.69 1290.87 2186.68 1290.87 Q2184.34 1290.87 2182 1291.39 Q2179.68 1291.91 2177.25 1293.01 L2177.25 1271.31 Z" fill="#000000" fill-rule="nonzero" fill-opacity="1" /><path clip-path="url(#clip490)" d="M2227.4 1275.16 Q2222.88 1275.16 2220.6 1279.62 Q2218.34 1284.04 2218.34 1292.95 Q2218.34 1301.84 2220.6 1306.29 Q2222.88 1310.72 2227.4 1310.72 Q2231.94 1310.72 2234.2 1306.29 Q2236.48 1301.84 2236.48 1292.95 Q2236.48 1284.04 2234.2 1279.62 Q2231.94 1275.16 2227.4 1275.16 M2227.4 1270.53 Q2234.66 1270.53 2238.48 1276.29 Q2242.33 1282.02 2242.33 1292.95 Q2242.33 1303.86 2238.48 1309.62 Q2234.66 1315.35 2227.4 1315.35 Q2220.13 1315.35 2216.29 1309.62 Q2212.47 1303.86 2212.47 1292.95 Q2212.47 1282.02 2216.29 1276.29 Q2220.13 1270.53 2227.4 1270.53 Z" fill="#000000" fill-rule="nonzero" fill-opacity="1" /><path clip-path="url(#clip490)" d="M648.708 1351.62 L688.907 1351.62 L688.907 1357.03 L672.038 1357.03 L672.038 1399.14 L665.577 1399.14 L665.577 1357.03 L648.708 1357.03 L648.708 1351.62 Z" fill="#000000" fill-rule="nonzero" fill-opacity="1" /><path clip-path="url(#clip490)" d="M714.275 1379.85 L714.275 1382.71 L687.348 1382.71 Q687.73 1388.76 690.976 1391.94 Q694.255 1395.09 700.079 1395.09 Q703.453 1395.09 706.604 1394.27 Q709.787 1393.44 712.906 1391.78 L712.906 1397.32 Q709.755 1398.66 706.445 1399.36 Q703.135 1400.06 699.729 1400.06 Q691.199 1400.06 686.202 1395.09 Q681.237 1390.13 681.237 1381.66 Q681.237 1372.91 685.947 1367.78 Q690.69 1362.63 698.711 1362.63 Q705.904 1362.63 710.073 1367.28 Q714.275 1371.89 714.275 1379.85 M708.418 1378.13 Q708.355 1373.32 705.713 1370.46 Q703.103 1367.59 698.774 1367.59 Q693.873 1367.59 690.913 1370.36 Q687.984 1373.13 687.539 1378.16 L708.418 1378.13 Z" fill="#000000" fill-rule="nonzero" fill-opacity="1" /><path clip-path="url(#clip490)" d="M744.544 1368.96 Q743.557 1368.39 742.379 1368.13 Q741.234 1367.85 739.833 1367.85 Q734.868 1367.85 732.194 1371.09 Q729.552 1374.31 729.552 1380.36 L729.552 1399.14 L723.664 1399.14 L723.664 1363.49 L729.552 1363.49 L729.552 1369.03 Q731.399 1365.78 734.359 1364.22 Q737.319 1362.63 741.552 1362.63 Q742.157 1362.63 742.889 1362.72 Q743.621 1362.79 744.512 1362.95 L744.544 1368.96 Z" fill="#000000" fill-rule="nonzero" fill-opacity="1" /><path clip-path="url(#clip490)" d="M777.295 1370.33 Q779.491 1366.38 782.547 1364.51 Q785.603 1362.63 789.74 1362.63 Q795.31 1362.63 798.334 1366.54 Q801.358 1370.43 801.358 1377.62 L801.358 1399.14 L795.469 1399.14 L795.469 1377.81 Q795.469 1372.69 793.655 1370.2 Q791.841 1367.72 788.117 1367.72 Q783.566 1367.72 780.924 1370.74 Q778.282 1373.77 778.282 1378.99 L778.282 1399.14 L772.394 1399.14 L772.394 1377.81 Q772.394 1372.65 770.579 1370.2 Q768.765 1367.72 764.978 1367.72 Q760.49 1367.72 757.848 1370.78 Q755.206 1373.8 755.206 1378.99 L755.206 1399.14 L749.318 1399.14 L749.318 1363.49 L755.206 1363.49 L755.206 1369.03 Q757.211 1365.75 760.012 1364.19 Q762.813 1362.63 766.665 1362.63 Q770.548 1362.63 773.253 1364.6 Q775.99 1366.57 777.295 1370.33 Z" fill="#000000" fill-rule="nonzero" fill-opacity="1" /><path clip-path="url(#clip490)" d="M813.039 1363.49 L818.895 1363.49 L818.895 1399.14 L813.039 1399.14 L813.039 1363.49 M813.039 1349.61 L818.895 1349.61 L818.895 1357.03 L813.039 1357.03 L813.039 1349.61 Z" fill="#000000" fill-rule="nonzero" fill-opacity="1" /><path clip-path="url(#clip490)" d="M860.782 1377.62 L860.782 1399.14 L854.925 1399.14 L854.925 1377.81 Q854.925 1372.75 852.952 1370.24 Q850.978 1367.72 847.032 1367.72 Q842.289 1367.72 839.552 1370.74 Q836.815 1373.77 836.815 1378.99 L836.815 1399.14 L830.926 1399.14 L830.926 1363.49 L836.815 1363.49 L836.815 1369.03 Q838.915 1365.81 841.748 1364.22 Q844.613 1362.63 848.337 1362.63 Q854.479 1362.63 857.63 1366.45 Q860.782 1370.24 860.782 1377.62 Z" fill="#000000" fill-rule="nonzero" fill-opacity="1" /><path clip-path="url(#clip490)" d="M888.663 1381.22 Q881.566 1381.22 878.828 1382.84 Q876.091 1384.46 876.091 1388.38 Q876.091 1391.5 878.128 1393.34 Q880.197 1395.16 883.73 1395.16 Q888.6 1395.16 891.528 1391.72 Q894.488 1388.25 894.488 1382.52 L894.488 1381.22 L888.663 1381.22 M900.344 1378.8 L900.344 1399.14 L894.488 1399.14 L894.488 1393.72 Q892.483 1396.97 889.491 1398.53 Q886.499 1400.06 882.17 1400.06 Q876.696 1400.06 873.449 1397 Q870.235 1393.92 870.235 1388.76 Q870.235 1382.74 874.245 1379.69 Q878.287 1376.63 886.276 1376.63 L894.488 1376.63 L894.488 1376.06 Q894.488 1372.02 891.814 1369.82 Q889.173 1367.59 884.366 1367.59 Q881.311 1367.59 878.415 1368.33 Q875.518 1369.06 872.845 1370.52 L872.845 1365.11 Q876.059 1363.87 879.083 1363.26 Q882.107 1362.63 884.971 1362.63 Q892.706 1362.63 896.525 1366.64 Q900.344 1370.65 900.344 1378.8 Z" fill="#000000" fill-rule="nonzero" fill-opacity="1" /><path clip-path="url(#clip490)" d="M912.407 1349.61 L918.264 1349.61 L918.264 1399.14 L912.407 1399.14 L912.407 1349.61 Z" fill="#000000" fill-rule="nonzero" fill-opacity="1" /><path clip-path="url(#clip490)" d="M956.904 1393.79 L956.904 1412.69 L951.015 1412.69 L951.015 1363.49 L956.904 1363.49 L956.904 1368.9 Q958.75 1365.72 961.551 1364.19 Q964.383 1362.63 968.298 1362.63 Q974.791 1362.63 978.834 1367.78 Q982.908 1372.94 982.908 1381.34 Q982.908 1389.75 978.834 1394.9 Q974.791 1400.06 968.298 1400.06 Q964.383 1400.06 961.551 1398.53 Q958.75 1396.97 956.904 1393.79 M976.828 1381.34 Q976.828 1374.88 974.155 1371.22 Q971.513 1367.53 966.866 1367.53 Q962.219 1367.53 959.545 1371.22 Q956.904 1374.88 956.904 1381.34 Q956.904 1387.8 959.545 1391.5 Q962.219 1395.16 966.866 1395.16 Q971.513 1395.16 974.155 1391.5 Q976.828 1387.8 976.828 1381.34 Z" fill="#000000" fill-rule="nonzero" fill-opacity="1" /><path clip-path="url(#clip490)" d="M1013.27 1368.96 Q1012.29 1368.39 1011.11 1368.13 Q1009.96 1367.85 1008.56 1367.85 Q1003.6 1367.85 1000.92 1371.09 Q998.281 1374.31 998.281 1380.36 L998.281 1399.14 L992.393 1399.14 L992.393 1363.49 L998.281 1363.49 L998.281 1369.03 Q1000.13 1365.78 1003.09 1364.22 Q1006.05 1362.63 1010.28 1362.63 Q1010.88 1362.63 1011.62 1362.72 Q1012.35 1362.79 1013.24 1362.95 L1013.27 1368.96 Z" fill="#000000" fill-rule="nonzero" fill-opacity="1" /><path clip-path="url(#clip490)" d="M1019.41 1363.49 L1025.27 1363.49 L1025.27 1399.14 L1019.41 1399.14 L1019.41 1363.49 M1019.41 1349.61 L1025.27 1349.61 L1025.27 1357.03 L1019.41 1357.03 L1019.41 1349.61 Z" fill="#000000" fill-rule="nonzero" fill-opacity="1" /><path clip-path="url(#clip490)" d="M1063.18 1364.86 L1063.18 1370.33 Q1060.7 1368.96 1058.18 1368.29 Q1055.7 1367.59 1053.15 1367.59 Q1047.46 1367.59 1044.3 1371.22 Q1041.15 1374.82 1041.15 1381.34 Q1041.15 1387.87 1044.3 1391.5 Q1047.46 1395.09 1053.15 1395.09 Q1055.7 1395.09 1058.18 1394.42 Q1060.7 1393.72 1063.18 1392.36 L1063.18 1397.77 Q1060.73 1398.91 1058.09 1399.49 Q1055.48 1400.06 1052.52 1400.06 Q1044.46 1400.06 1039.72 1395 Q1034.98 1389.94 1034.98 1381.34 Q1034.98 1372.62 1039.75 1367.63 Q1044.56 1362.63 1052.9 1362.63 Q1055.6 1362.63 1058.18 1363.2 Q1060.76 1363.74 1063.18 1364.86 Z" fill="#000000" fill-rule="nonzero" fill-opacity="1" /><path clip-path="url(#clip490)" d="M1103.86 1379.85 L1103.86 1382.71 L1076.93 1382.71 Q1077.31 1388.76 1080.56 1391.94 Q1083.84 1395.09 1089.66 1395.09 Q1093.03 1395.09 1096.19 1394.27 Q1099.37 1393.44 1102.49 1391.78 L1102.49 1397.32 Q1099.34 1398.66 1096.03 1399.36 Q1092.72 1400.06 1089.31 1400.06 Q1080.78 1400.06 1075.78 1395.09 Q1070.82 1390.13 1070.82 1381.66 Q1070.82 1372.91 1075.53 1367.78 Q1080.27 1362.63 1088.29 1362.63 Q1095.49 1362.63 1099.65 1367.28 Q1103.86 1371.89 1103.86 1379.85 M1098 1378.13 Q1097.94 1373.32 1095.29 1370.46 Q1092.68 1367.59 1088.36 1367.59 Q1083.45 1367.59 1080.49 1370.36 Q1077.57 1373.13 1077.12 1378.16 L1098 1378.13 Z" fill="#000000" fill-rule="nonzero" fill-opacity="1" /><path clip-path="url(#clip490)" d="M1150.39 1381.22 Q1143.29 1381.22 1140.55 1382.84 Q1137.82 1384.46 1137.82 1388.38 Q1137.82 1391.5 1139.85 1393.34 Q1141.92 1395.16 1145.46 1395.16 Q1150.33 1395.16 1153.25 1391.72 Q1156.21 1388.25 1156.21 1382.52 L1156.21 1381.22 L1150.39 1381.22 M1162.07 1378.8 L1162.07 1399.14 L1156.21 1399.14 L1156.21 1393.72 Q1154.21 1396.97 1151.22 1398.53 Q1148.23 1400.06 1143.9 1400.06 Q1138.42 1400.06 1135.18 1397 Q1131.96 1393.92 1131.96 1388.76 Q1131.96 1382.74 1135.97 1379.69 Q1140.01 1376.63 1148 1376.63 L1156.21 1376.63 L1156.21 1376.06 Q1156.21 1372.02 1153.54 1369.82 Q1150.9 1367.59 1146.09 1367.59 Q1143.04 1367.59 1140.14 1368.33 Q1137.24 1369.06 1134.57 1370.52 L1134.57 1365.11 Q1137.79 1363.87 1140.81 1363.26 Q1143.83 1362.63 1146.7 1362.63 Q1154.43 1362.63 1158.25 1366.64 Q1162.07 1370.65 1162.07 1378.8 Z" fill="#000000" fill-rule="nonzero" fill-opacity="1" /><path clip-path="url(#clip490)" d="M1179.93 1353.37 L1179.93 1363.49 L1191.99 1363.49 L1191.99 1368.04 L1179.93 1368.04 L1179.93 1387.39 Q1179.93 1391.75 1181.1 1392.99 Q1182.31 1394.23 1185.97 1394.23 L1191.99 1394.23 L1191.99 1399.14 L1185.97 1399.14 Q1179.19 1399.14 1176.62 1396.62 Q1174.04 1394.07 1174.04 1387.39 L1174.04 1368.04 L1169.74 1368.04 L1169.74 1363.49 L1174.04 1363.49 L1174.04 1353.37 L1179.93 1353.37 Z" fill="#000000" fill-rule="nonzero" fill-opacity="1" /><path clip-path="url(#clip490)" d="M1250.9 1379.85 L1250.9 1382.71 L1223.98 1382.71 Q1224.36 1388.76 1227.61 1391.94 Q1230.88 1395.09 1236.71 1395.09 Q1240.08 1395.09 1243.23 1394.27 Q1246.42 1393.44 1249.54 1391.78 L1249.54 1397.32 Q1246.38 1398.66 1243.07 1399.36 Q1239.76 1400.06 1236.36 1400.06 Q1227.83 1400.06 1222.83 1395.09 Q1217.87 1390.13 1217.87 1381.66 Q1217.87 1372.91 1222.58 1367.78 Q1227.32 1362.63 1235.34 1362.63 Q1242.53 1362.63 1246.7 1367.28 Q1250.9 1371.89 1250.9 1379.85 M1245.05 1378.13 Q1244.98 1373.32 1242.34 1370.46 Q1239.73 1367.59 1235.4 1367.59 Q1230.5 1367.59 1227.54 1370.36 Q1224.61 1373.13 1224.17 1378.16 L1245.05 1378.13 Z" fill="#000000" fill-rule="nonzero" fill-opacity="1" /><path clip-path="url(#clip490)" d="M1290.15 1377.62 L1290.15 1399.14 L1284.29 1399.14 L1284.29 1377.81 Q1284.29 1372.75 1282.32 1370.24 Q1280.35 1367.72 1276.4 1367.72 Q1271.66 1367.72 1268.92 1370.74 Q1266.18 1373.77 1266.18 1378.99 L1266.18 1399.14 L1260.29 1399.14 L1260.29 1363.49 L1266.18 1363.49 L1266.18 1369.03 Q1268.28 1365.81 1271.11 1364.22 Q1273.98 1362.63 1277.7 1362.63 Q1283.85 1362.63 1287 1366.45 Q1290.15 1370.24 1290.15 1377.62 Z" fill="#000000" fill-rule="nonzero" fill-opacity="1" /><path clip-path="url(#clip490)" d="M1325.29 1368.9 L1325.29 1349.61 L1331.14 1349.61 L1331.14 1399.14 L1325.29 1399.14 L1325.29 1393.79 Q1323.44 1396.97 1320.61 1398.53 Q1317.81 1400.06 1313.86 1400.06 Q1307.4 1400.06 1303.33 1394.9 Q1299.28 1389.75 1299.28 1381.34 Q1299.28 1372.94 1303.33 1367.78 Q1307.4 1362.63 1313.86 1362.63 Q1317.81 1362.63 1320.61 1364.19 Q1323.44 1365.72 1325.29 1368.9 M1305.33 1381.34 Q1305.33 1387.8 1307.97 1391.5 Q1310.65 1395.16 1315.29 1395.16 Q1319.94 1395.16 1322.61 1391.5 Q1325.29 1387.8 1325.29 1381.34 Q1325.29 1374.88 1322.61 1371.22 Q1319.94 1367.53 1315.29 1367.53 Q1310.65 1367.53 1307.97 1371.22 Q1305.33 1374.88 1305.33 1381.34 Z" fill="#000000" fill-rule="nonzero" fill-opacity="1" /><path clip-path="url(#clip490)" d="M1377.74 1367.59 Q1373.03 1367.59 1370.29 1371.29 Q1367.56 1374.95 1367.56 1381.34 Q1367.56 1387.74 1370.26 1391.43 Q1373 1395.09 1377.74 1395.09 Q1382.42 1395.09 1385.16 1391.4 Q1387.89 1387.71 1387.89 1381.34 Q1387.89 1375.01 1385.16 1371.32 Q1382.42 1367.59 1377.74 1367.59 M1377.74 1362.63 Q1385.38 1362.63 1389.74 1367.59 Q1394.1 1372.56 1394.1 1381.34 Q1394.1 1390.1 1389.74 1395.09 Q1385.38 1400.06 1377.74 1400.06 Q1370.07 1400.06 1365.71 1395.09 Q1361.38 1390.1 1361.38 1381.34 Q1361.38 1372.56 1365.71 1367.59 Q1370.07 1362.63 1377.74 1362.63 Z" fill="#000000" fill-rule="nonzero" fill-opacity="1" /><path clip-path="url(#clip490)" d="M1421.85 1349.61 L1421.85 1354.48 L1416.25 1354.48 Q1413.1 1354.48 1411.86 1355.75 Q1410.65 1357.03 1410.65 1360.34 L1410.65 1363.49 L1420.3 1363.49 L1420.3 1368.04 L1410.65 1368.04 L1410.65 1399.14 L1404.76 1399.14 L1404.76 1368.04 L1399.16 1368.04 L1399.16 1363.49 L1404.76 1363.49 L1404.76 1361 Q1404.76 1355.05 1407.53 1352.35 Q1410.3 1349.61 1416.32 1349.61 L1421.85 1349.61 Z" fill="#000000" fill-rule="nonzero" fill-opacity="1" /><path clip-path="url(#clip490)" d="M1467.02 1355.98 Q1460.02 1355.98 1455.88 1361.2 Q1451.77 1366.42 1451.77 1375.42 Q1451.77 1384.4 1455.88 1389.62 Q1460.02 1394.84 1467.02 1394.84 Q1474.02 1394.84 1478.1 1389.62 Q1482.2 1384.4 1482.2 1375.42 Q1482.2 1366.42 1478.1 1361.2 Q1474.02 1355.98 1467.02 1355.98 M1467.02 1350.76 Q1477.01 1350.76 1483 1357.47 Q1488.98 1364.16 1488.98 1375.42 Q1488.98 1386.66 1483 1393.37 Q1477.01 1400.06 1467.02 1400.06 Q1456.99 1400.06 1450.98 1393.37 Q1444.99 1386.69 1444.99 1375.42 Q1444.99 1364.16 1450.98 1357.47 Q1456.99 1350.76 1467.02 1350.76 Z" fill="#000000" fill-rule="nonzero" fill-opacity="1" /><path clip-path="url(#clip490)" d="M1512.6 1367.59 Q1507.89 1367.59 1505.15 1371.29 Q1502.41 1374.95 1502.41 1381.34 Q1502.41 1387.74 1505.12 1391.43 Q1507.86 1395.09 1512.6 1395.09 Q1517.28 1395.09 1520.01 1391.4 Q1522.75 1387.71 1522.75 1381.34 Q1522.75 1375.01 1520.01 1371.32 Q1517.28 1367.59 1512.6 1367.59 M1512.6 1362.63 Q1520.24 1362.63 1524.6 1367.59 Q1528.96 1372.56 1528.96 1381.34 Q1528.96 1390.1 1524.6 1395.09 Q1520.24 1400.06 1512.6 1400.06 Q1504.93 1400.06 1500.57 1395.09 Q1496.24 1390.1 1496.24 1381.34 Q1496.24 1372.56 1500.57 1367.59 Q1504.93 1362.63 1512.6 1362.63 Z" fill="#000000" fill-rule="nonzero" fill-opacity="1" /><path clip-path="url(#clip490)" d="M1567.41 1353.18 L1567.41 1359.45 Q1563.75 1357.69 1560.5 1356.84 Q1557.25 1355.98 1554.23 1355.98 Q1548.98 1355.98 1546.11 1358.01 Q1543.28 1360.05 1543.28 1363.81 Q1543.28 1366.96 1545.16 1368.58 Q1547.07 1370.17 1552.35 1371.16 L1556.23 1371.95 Q1563.43 1373.32 1566.83 1376.79 Q1570.27 1380.23 1570.27 1386.02 Q1570.27 1392.93 1565.62 1396.49 Q1561.01 1400.06 1552.07 1400.06 Q1548.69 1400.06 1544.87 1399.29 Q1541.08 1398.53 1537.01 1397.03 L1537.01 1390.41 Q1540.93 1392.61 1544.68 1393.72 Q1548.44 1394.84 1552.07 1394.84 Q1557.57 1394.84 1560.56 1392.67 Q1563.56 1390.51 1563.56 1386.5 Q1563.56 1383 1561.39 1381.03 Q1559.26 1379.05 1554.36 1378.07 L1550.44 1377.3 Q1543.25 1375.87 1540.03 1372.81 Q1536.82 1369.76 1536.82 1364.32 Q1536.82 1358.01 1541.24 1354.38 Q1545.7 1350.76 1553.5 1350.76 Q1556.84 1350.76 1560.31 1351.36 Q1563.78 1351.97 1567.41 1353.18 Z" fill="#000000" fill-rule="nonzero" fill-opacity="1" /><path clip-path="url(#clip490)" d="M1597.36 1363.49 L1603.21 1363.49 L1610.53 1391.31 L1617.82 1363.49 L1624.73 1363.49 L1632.05 1391.31 L1639.34 1363.49 L1645.2 1363.49 L1635.87 1399.14 L1628.96 1399.14 L1621.29 1369.92 L1613.59 1399.14 L1606.68 1399.14 L1597.36 1363.49 Z" fill="#000000" fill-rule="nonzero" fill-opacity="1" /><path clip-path="url(#clip490)" d="M1654.08 1363.49 L1659.93 1363.49 L1659.93 1399.14 L1654.08 1399.14 L1654.08 1363.49 M1654.08 1349.61 L1659.93 1349.61 L1659.93 1357.03 L1654.08 1357.03 L1654.08 1349.61 Z" fill="#000000" fill-rule="nonzero" fill-opacity="1" /><path clip-path="url(#clip490)" d="M1701.82 1377.62 L1701.82 1399.14 L1695.96 1399.14 L1695.96 1377.81 Q1695.96 1372.75 1693.99 1370.24 Q1692.02 1367.72 1688.07 1367.72 Q1683.33 1367.72 1680.59 1370.74 Q1677.85 1373.77 1677.85 1378.99 L1677.85 1399.14 L1671.96 1399.14 L1671.96 1363.49 L1677.85 1363.49 L1677.85 1369.03 Q1679.95 1365.81 1682.79 1364.22 Q1685.65 1362.63 1689.37 1362.63 Q1695.52 1362.63 1698.67 1366.45 Q1701.82 1370.24 1701.82 1377.62 Z" fill="#000000" fill-rule="nonzero" fill-opacity="1" /><path clip-path="url(#clip490)" d="M1736.96 1368.9 L1736.96 1349.61 L1742.81 1349.61 L1742.81 1399.14 L1736.96 1399.14 L1736.96 1393.79 Q1735.11 1396.97 1732.28 1398.53 Q1729.48 1400.06 1725.53 1400.06 Q1719.07 1400.06 1715 1394.9 Q1710.95 1389.75 1710.95 1381.34 Q1710.95 1372.94 1715 1367.78 Q1719.07 1362.63 1725.53 1362.63 Q1729.48 1362.63 1732.28 1364.19 Q1735.11 1365.72 1736.96 1368.9 M1717 1381.34 Q1717 1387.8 1719.64 1391.5 Q1722.32 1395.16 1726.96 1395.16 Q1731.61 1395.16 1734.28 1391.5 Q1736.96 1387.8 1736.96 1381.34 Q1736.96 1374.88 1734.28 1371.22 Q1731.61 1367.53 1726.96 1367.53 Q1722.32 1367.53 1719.64 1371.22 Q1717 1374.88 1717 1381.34 Z" fill="#000000" fill-rule="nonzero" fill-opacity="1" /><path clip-path="url(#clip490)" d="M1768.69 1367.59 Q1763.98 1367.59 1761.24 1371.29 Q1758.51 1374.95 1758.51 1381.34 Q1758.51 1387.74 1761.21 1391.43 Q1763.95 1395.09 1768.69 1395.09 Q1773.37 1395.09 1776.11 1391.4 Q1778.84 1387.71 1778.84 1381.34 Q1778.84 1375.01 1776.11 1371.32 Q1773.37 1367.59 1768.69 1367.59 M1768.69 1362.63 Q1776.33 1362.63 1780.69 1367.59 Q1785.05 1372.56 1785.05 1381.34 Q1785.05 1390.1 1780.69 1395.09 Q1776.33 1400.06 1768.69 1400.06 Q1761.02 1400.06 1756.66 1395.09 Q1752.33 1390.1 1752.33 1381.34 Q1752.33 1372.56 1756.66 1367.59 Q1761.02 1362.63 1768.69 1362.63 Z" fill="#000000" fill-rule="nonzero" fill-opacity="1" /><path clip-path="url(#clip490)" d="M1791.35 1363.49 L1797.21 1363.49 L1804.53 1391.31 L1811.82 1363.49 L1818.72 1363.49 L1826.05 1391.31 L1833.33 1363.49 L1839.19 1363.49 L1829.86 1399.14 L1822.96 1399.14 L1815.29 1369.92 L1807.58 1399.14 L1800.68 1399.14 L1791.35 1363.49 Z" fill="#000000" fill-rule="nonzero" fill-opacity="1" /><path clip-path="url(#clip490)" d="M1882.86 1349.67 Q1878.59 1356.99 1876.53 1364.16 Q1874.46 1371.32 1874.46 1378.67 Q1874.46 1386.02 1876.53 1393.25 Q1878.63 1400.44 1882.86 1407.73 L1877.77 1407.73 Q1872.99 1400.25 1870.61 1393.02 Q1868.25 1385.8 1868.25 1378.67 Q1868.25 1371.57 1870.61 1364.38 Q1872.96 1357.19 1877.77 1349.67 L1882.86 1349.67 Z" fill="#000000" fill-rule="nonzero" fill-opacity="1" /><path clip-path="url(#clip490)" d="M1893.74 1351.62 L1900.21 1351.62 L1900.21 1380.48 Q1900.21 1388.12 1902.98 1391.5 Q1905.74 1394.84 1911.95 1394.84 Q1918.13 1394.84 1920.89 1391.5 Q1923.66 1388.12 1923.66 1380.48 L1923.66 1351.62 L1930.12 1351.62 L1930.12 1381.28 Q1930.12 1390.57 1925.51 1395.32 Q1920.93 1400.06 1911.95 1400.06 Q1902.94 1400.06 1898.33 1395.32 Q1893.74 1390.57 1893.74 1381.28 L1893.74 1351.62 Z" fill="#000000" fill-rule="nonzero" fill-opacity="1" /><path clip-path="url(#clip490)" d="M1970.67 1353.18 L1970.67 1359.45 Q1967.01 1357.69 1963.77 1356.84 Q1960.52 1355.98 1957.5 1355.98 Q1952.25 1355.98 1949.38 1358.01 Q1946.55 1360.05 1946.55 1363.81 Q1946.55 1366.96 1948.43 1368.58 Q1950.34 1370.17 1955.62 1371.16 L1959.5 1371.95 Q1966.7 1373.32 1970.1 1376.79 Q1973.54 1380.23 1973.54 1386.02 Q1973.54 1392.93 1968.89 1396.49 Q1964.28 1400.06 1955.33 1400.06 Q1951.96 1400.06 1948.14 1399.29 Q1944.35 1398.53 1940.28 1397.03 L1940.28 1390.41 Q1944.19 1392.61 1947.95 1393.72 Q1951.7 1394.84 1955.33 1394.84 Q1960.84 1394.84 1963.83 1392.67 Q1966.82 1390.51 1966.82 1386.5 Q1966.82 1383 1964.66 1381.03 Q1962.53 1379.05 1957.62 1378.07 L1953.71 1377.3 Q1946.52 1375.87 1943.3 1372.81 Q1940.09 1369.76 1940.09 1364.32 Q1940.09 1358.01 1944.51 1354.38 Q1948.97 1350.76 1956.77 1350.76 Q1960.11 1350.76 1963.58 1351.36 Q1967.05 1351.97 1970.67 1353.18 Z" fill="#000000" fill-rule="nonzero" fill-opacity="1" /><path clip-path="url(#clip490)" d="M1989.99 1356.9 L1989.99 1393.85 L1997.76 1393.85 Q2007.6 1393.85 2012.15 1389.4 Q2016.73 1384.94 2016.73 1375.33 Q2016.73 1365.78 2012.15 1361.36 Q2007.6 1356.9 1997.76 1356.9 L1989.99 1356.9 M1983.56 1351.62 L1996.77 1351.62 Q2010.59 1351.62 2017.05 1357.38 Q2023.51 1363.11 2023.51 1375.33 Q2023.51 1387.61 2017.02 1393.37 Q2010.52 1399.14 1996.77 1399.14 L1983.56 1399.14 L1983.56 1351.62 Z" fill="#000000" fill-rule="nonzero" fill-opacity="1" /><path clip-path="url(#clip490)" d="M2032.58 1349.67 L2037.67 1349.67 Q2042.45 1357.19 2044.8 1364.38 Q2047.19 1371.57 2047.19 1378.67 Q2047.19 1385.8 2044.8 1393.02 Q2042.45 1400.25 2037.67 1407.73 L2032.58 1407.73 Q2036.81 1400.44 2038.88 1393.25 Q2040.98 1386.02 2040.98 1378.67 Q2040.98 1371.32 2038.88 1364.16 Q2036.81 1356.99 2032.58 1349.67 Z" fill="#000000" fill-rule="nonzero" fill-opacity="1" /><polyline clip-path="url(#clip490)" style="stroke:#000000; stroke-linecap:round; stroke-linejoin:round; stroke-width:4; stroke-opacity:1; fill:none" points="421.882,1241.31 421.882,125.984 "/>
<polyline clip-path="url(#clip490)" style="stroke:#000000; stroke-linecap:round; stroke-linejoin:round; stroke-width:4; stroke-opacity:1; fill:none" points="421.882,1241.31 440.78,1241.31 "/>
<polyline clip-path="url(#clip490)" style="stroke:#000000; stroke-linecap:round; stroke-linejoin:round; stroke-width:4; stroke-opacity:1; fill:none" points="421.882,869.536 440.78,869.536 "/>
<polyline clip-path="url(#clip490)" style="stroke:#000000; stroke-linecap:round; stroke-linejoin:round; stroke-width:4; stroke-opacity:1; fill:none" points="421.882,497.76 440.78,497.76 "/>
<polyline clip-path="url(#clip490)" style="stroke:#000000; stroke-linecap:round; stroke-linejoin:round; stroke-width:4; stroke-opacity:1; fill:none" points="421.882,125.984 440.78,125.984 "/>
<path clip-path="url(#clip490)" d="M370.952 1223.56 Q366.438 1223.56 364.152 1228.02 Q361.895 1232.44 361.895 1241.35 Q361.895 1250.24 364.152 1254.69 Q366.438 1259.12 370.952 1259.12 Q375.495 1259.12 377.752 1254.69 Q380.037 1250.24 380.037 1241.35 Q380.037 1232.44 377.752 1228.02 Q375.495 1223.56 370.952 1223.56 M370.952 1218.93 Q378.215 1218.93 382.034 1224.69 Q385.882 1230.42 385.882 1241.35 Q385.882 1252.26 382.034 1258.02 Q378.215 1263.75 370.952 1263.75 Q363.689 1263.75 359.841 1258.02 Q356.021 1252.26 356.021 1241.35 Q356.021 1230.42 359.841 1224.69 Q363.689 1218.93 370.952 1218.93 Z" fill="#000000" fill-rule="nonzero" fill-opacity="1" /><path clip-path="url(#clip490)" d="M327.029 886.217 L347.428 886.217 L347.428 891.136 L319.997 891.136 L319.997 886.217 Q323.325 882.774 329.054 876.987 Q334.812 871.171 336.288 869.492 Q339.094 866.338 340.194 864.168 Q341.322 861.969 341.322 859.857 Q341.322 856.414 338.892 854.244 Q336.49 852.073 332.613 852.073 Q329.864 852.073 326.797 853.028 Q323.759 853.983 320.287 855.922 L320.287 850.019 Q323.817 848.601 326.884 847.878 Q329.951 847.155 332.497 847.155 Q339.21 847.155 343.203 850.511 Q347.196 853.867 347.196 859.481 Q347.196 862.143 346.183 864.544 Q345.2 866.917 342.567 870.158 Q341.843 870.997 337.966 875.019 Q334.089 879.012 327.029 886.217 Z" fill="#000000" fill-rule="nonzero" fill-opacity="1" /><path clip-path="url(#clip490)" d="M359.754 847.936 L382.7 847.936 L382.7 852.855 L365.107 852.855 L365.107 863.445 Q366.38 863.011 367.653 862.808 Q368.926 862.577 370.2 862.577 Q377.433 862.577 381.658 866.541 Q385.882 870.505 385.882 877.276 Q385.882 884.249 381.542 888.127 Q377.202 891.975 369.303 891.975 Q366.583 891.975 363.747 891.512 Q360.94 891.049 357.931 890.123 L357.931 884.249 Q360.535 885.667 363.313 886.361 Q366.091 887.056 369.187 887.056 Q374.193 887.056 377.115 884.423 Q380.037 881.79 380.037 877.276 Q380.037 872.762 377.115 870.129 Q374.193 867.496 369.187 867.496 Q366.843 867.496 364.499 868.017 Q362.185 868.537 359.754 869.637 L359.754 847.936 Z" fill="#000000" fill-rule="nonzero" fill-opacity="1" /><path clip-path="url(#clip490)" d="M320.807 476.16 L343.753 476.16 L343.753 481.079 L326.16 481.079 L326.16 491.669 Q327.434 491.235 328.707 491.033 Q329.98 490.801 331.253 490.801 Q338.487 490.801 342.711 494.765 Q346.936 498.729 346.936 505.5 Q346.936 512.473 342.596 516.351 Q338.255 520.199 330.356 520.199 Q327.636 520.199 324.801 519.736 Q321.994 519.273 318.985 518.347 L318.985 512.473 Q321.589 513.891 324.366 514.586 Q327.144 515.28 330.24 515.28 Q335.246 515.28 338.168 512.647 Q341.091 510.014 341.091 505.5 Q341.091 500.986 338.168 498.353 Q335.246 495.72 330.24 495.72 Q327.897 495.72 325.553 496.241 Q323.238 496.762 320.807 497.861 L320.807 476.16 Z" fill="#000000" fill-rule="nonzero" fill-opacity="1" /><path clip-path="url(#clip490)" d="M370.952 480.008 Q366.438 480.008 364.152 484.464 Q361.895 488.891 361.895 497.803 Q361.895 506.686 364.152 511.142 Q366.438 515.57 370.952 515.57 Q375.495 515.57 377.752 511.142 Q380.037 506.686 380.037 497.803 Q380.037 488.891 377.752 484.464 Q375.495 480.008 370.952 480.008 M370.952 475.379 Q378.215 475.379 382.034 481.137 Q385.882 486.866 385.882 497.803 Q385.882 508.712 382.034 514.47 Q378.215 520.199 370.952 520.199 Q363.689 520.199 359.841 514.47 Q356.021 508.712 356.021 497.803 Q356.021 486.866 359.841 481.137 Q363.689 475.379 370.952 475.379 Z" fill="#000000" fill-rule="nonzero" fill-opacity="1" /><path clip-path="url(#clip490)" d="M320.518 104.384 L348.296 104.384 L348.296 106.873 L332.613 147.584 L326.508 147.584 L341.265 109.303 L320.518 109.303 L320.518 104.384 Z" fill="#000000" fill-rule="nonzero" fill-opacity="1" /><path clip-path="url(#clip490)" d="M359.754 104.384 L382.7 104.384 L382.7 109.303 L365.107 109.303 L365.107 119.893 Q366.38 119.459 367.653 119.257 Q368.926 119.025 370.2 119.025 Q377.433 119.025 381.658 122.989 Q385.882 126.954 385.882 133.724 Q385.882 140.698 381.542 144.575 Q377.202 148.423 369.303 148.423 Q366.583 148.423 363.747 147.96 Q360.94 147.497 357.931 146.572 L357.931 140.698 Q360.535 142.116 363.313 142.81 Q366.091 143.504 369.187 143.504 Q374.193 143.504 377.115 140.871 Q380.037 138.238 380.037 133.724 Q380.037 129.211 377.115 126.577 Q374.193 123.944 369.187 123.944 Q366.843 123.944 364.499 124.465 Q362.185 124.986 359.754 126.086 L359.754 104.384 Z" fill="#000000" fill-rule="nonzero" fill-opacity="1" /><path clip-path="url(#clip490)" d="M224.869 739.507 L231.648 739.507 Q228.625 742.753 227.129 746.446 Q225.633 750.106 225.633 754.244 Q225.633 762.392 230.63 766.72 Q235.595 771.049 245.016 771.049 Q254.406 771.049 259.403 766.72 Q264.368 762.392 264.368 754.244 Q264.368 750.106 262.872 746.446 Q261.376 742.753 258.352 739.507 L265.068 739.507 Q267.36 742.881 268.506 746.668 Q269.652 750.424 269.652 754.626 Q269.652 765.415 263.063 771.622 Q256.443 777.829 245.016 777.829 Q233.558 777.829 226.97 771.622 Q220.349 765.415 220.349 754.626 Q220.349 750.36 221.495 746.605 Q222.609 742.817 224.869 739.507 Z" fill="#000000" fill-rule="nonzero" fill-opacity="1" /><path clip-path="url(#clip490)" d="M237.186 716.017 Q237.186 720.728 240.879 723.465 Q244.539 726.203 250.936 726.203 Q257.334 726.203 261.026 723.497 Q264.686 720.76 264.686 716.017 Q264.686 711.339 260.994 708.601 Q257.302 705.864 250.936 705.864 Q244.603 705.864 240.91 708.601 Q237.186 711.339 237.186 716.017 M232.221 716.017 Q232.221 708.379 237.186 704.018 Q242.152 699.658 250.936 699.658 Q259.689 699.658 264.686 704.018 Q269.652 708.379 269.652 716.017 Q269.652 723.688 264.686 728.049 Q259.689 732.377 250.936 732.377 Q242.152 732.377 237.186 728.049 Q232.221 723.688 232.221 716.017 Z" fill="#000000" fill-rule="nonzero" fill-opacity="1" /><path clip-path="url(#clip490)" d="M254.66 690.555 L233.081 690.555 L233.081 684.698 L254.438 684.698 Q259.498 684.698 262.045 682.725 Q264.559 680.751 264.559 676.805 Q264.559 672.062 261.535 669.325 Q258.512 666.556 253.292 666.556 L233.081 666.556 L233.081 660.7 L268.729 660.7 L268.729 666.556 L263.254 666.556 Q266.501 668.688 268.092 671.521 Q269.652 674.322 269.652 678.046 Q269.652 684.189 265.832 687.372 Q262.013 690.555 254.66 690.555 M232.221 675.818 L232.221 675.818 Z" fill="#000000" fill-rule="nonzero" fill-opacity="1" /><path clip-path="url(#clip490)" d="M247.212 619.004 L268.729 619.004 L268.729 624.861 L247.403 624.861 Q242.343 624.861 239.828 626.834 Q237.314 628.807 237.314 632.754 Q237.314 637.497 240.338 640.234 Q243.361 642.971 248.581 642.971 L268.729 642.971 L268.729 648.859 L233.081 648.859 L233.081 642.971 L238.619 642.971 Q235.404 640.87 233.813 638.038 Q232.221 635.173 232.221 631.449 Q232.221 625.306 236.041 622.155 Q239.828 619.004 247.212 619.004 Z" fill="#000000" fill-rule="nonzero" fill-opacity="1" /><path clip-path="url(#clip490)" d="M222.959 601.53 L233.081 601.53 L233.081 589.467 L237.632 589.467 L237.632 601.53 L256.984 601.53 Q261.344 601.53 262.586 600.353 Q263.827 599.143 263.827 595.483 L263.827 589.467 L268.729 589.467 L268.729 595.483 Q268.729 602.262 266.214 604.84 Q263.668 607.419 256.984 607.419 L237.632 607.419 L237.632 611.715 L233.081 611.715 L233.081 607.419 L222.959 607.419 L222.959 601.53 Z" fill="#000000" fill-rule="nonzero" fill-opacity="1" /><path clip-path="url(#clip492)" d="M523.753 1211.57 L523.753 1241.31 L606.173 1241.31 L606.173 1211.57 L523.753 1211.57 L523.753 1211.57  Z" fill="#4682b4" fill-rule="evenodd" fill-opacity="0.6"/>
<polyline clip-path="url(#clip492)" style="stroke:#000000; stroke-linecap:round; stroke-linejoin:round; stroke-width:4; stroke-opacity:1; fill:none" points="523.753,1211.57 523.753,1241.31 606.173,1241.31 606.173,1211.57 523.753,1211.57 "/>
<path clip-path="url(#clip492)" d="M606.173 1166.96 L606.173 1241.31 L688.592 1241.31 L688.592 1166.96 L606.173 1166.96 L606.173 1166.96  Z" fill="#4682b4" fill-rule="evenodd" fill-opacity="0.6"/>
<polyline clip-path="url(#clip492)" style="stroke:#000000; stroke-linecap:round; stroke-linejoin:round; stroke-width:4; stroke-opacity:1; fill:none" points="606.173,1166.96 606.173,1241.31 688.592,1241.31 688.592,1166.96 606.173,1166.96 "/>
<path clip-path="url(#clip492)" d="M688.592 884.407 L688.592 1241.31 L771.012 1241.31 L771.012 884.407 L688.592 884.407 L688.592 884.407  Z" fill="#4682b4" fill-rule="evenodd" fill-opacity="0.6"/>
<polyline clip-path="url(#clip492)" style="stroke:#000000; stroke-linecap:round; stroke-linejoin:round; stroke-width:4; stroke-opacity:1; fill:none" points="688.592,884.407 688.592,1241.31 771.012,1241.31 771.012,884.407 688.592,884.407 "/>
<path clip-path="url(#clip492)" d="M771.012 542.373 L771.012 1241.31 L853.431 1241.31 L853.431 542.373 L771.012 542.373 L771.012 542.373  Z" fill="#4682b4" fill-rule="evenodd" fill-opacity="0.6"/>
<polyline clip-path="url(#clip492)" style="stroke:#000000; stroke-linecap:round; stroke-linejoin:round; stroke-width:4; stroke-opacity:1; fill:none" points="771.012,542.373 771.012,1241.31 853.431,1241.31 853.431,542.373 771.012,542.373 "/>
<path clip-path="url(#clip492)" d="M853.431 482.889 L853.431 1241.31 L935.851 1241.31 L935.851 482.889 L853.431 482.889 L853.431 482.889  Z" fill="#4682b4" fill-rule="evenodd" fill-opacity="0.6"/>
<polyline clip-path="url(#clip492)" style="stroke:#000000; stroke-linecap:round; stroke-linejoin:round; stroke-width:4; stroke-opacity:1; fill:none" points="853.431,482.889 853.431,1241.31 935.851,1241.31 935.851,482.889 853.431,482.889 "/>
<path clip-path="url(#clip492)" d="M935.851 125.984 L935.851 1241.31 L1018.27 1241.31 L1018.27 125.984 L935.851 125.984 L935.851 125.984  Z" fill="#4682b4" fill-rule="evenodd" fill-opacity="0.6"/>
<polyline clip-path="url(#clip492)" style="stroke:#000000; stroke-linecap:round; stroke-linejoin:round; stroke-width:4; stroke-opacity:1; fill:none" points="935.851,125.984 935.851,1241.31 1018.27,1241.31 1018.27,125.984 935.851,125.984 "/>
<path clip-path="url(#clip492)" d="M1018.27 259.824 L1018.27 1241.31 L1100.69 1241.31 L1100.69 259.824 L1018.27 259.824 L1018.27 259.824  Z" fill="#4682b4" fill-rule="evenodd" fill-opacity="0.6"/>
<polyline clip-path="url(#clip492)" style="stroke:#000000; stroke-linecap:round; stroke-linejoin:round; stroke-width:4; stroke-opacity:1; fill:none" points="1018.27,259.824 1018.27,1241.31 1100.69,1241.31 1100.69,259.824 1018.27,259.824 "/>
<path clip-path="url(#clip492)" d="M1100.69 170.597 L1100.69 1241.31 L1183.11 1241.31 L1183.11 170.597 L1100.69 170.597 L1100.69 170.597  Z" fill="#4682b4" fill-rule="evenodd" fill-opacity="0.6"/>
<polyline clip-path="url(#clip492)" style="stroke:#000000; stroke-linecap:round; stroke-linejoin:round; stroke-width:4; stroke-opacity:1; fill:none" points="1100.69,170.597 1100.69,1241.31 1183.11,1241.31 1183.11,170.597 1100.69,170.597 "/>
<path clip-path="url(#clip492)" d="M1183.11 319.308 L1183.11 1241.31 L1265.53 1241.31 L1265.53 319.308 L1183.11 319.308 L1183.11 319.308  Z" fill="#4682b4" fill-rule="evenodd" fill-opacity="0.6"/>
<polyline clip-path="url(#clip492)" style="stroke:#000000; stroke-linecap:round; stroke-linejoin:round; stroke-width:4; stroke-opacity:1; fill:none" points="1183.11,319.308 1183.11,1241.31 1265.53,1241.31 1265.53,319.308 1183.11,319.308 "/>
<path clip-path="url(#clip492)" d="M1265.53 735.696 L1265.53 1241.31 L1347.95 1241.31 L1347.95 735.696 L1265.53 735.696 L1265.53 735.696  Z" fill="#4682b4" fill-rule="evenodd" fill-opacity="0.6"/>
<polyline clip-path="url(#clip492)" style="stroke:#000000; stroke-linecap:round; stroke-linejoin:round; stroke-width:4; stroke-opacity:1; fill:none" points="1265.53,735.696 1265.53,1241.31 1347.95,1241.31 1347.95,735.696 1265.53,735.696 "/>
<path clip-path="url(#clip492)" d="M1347.95 735.696 L1347.95 1241.31 L1430.37 1241.31 L1430.37 735.696 L1347.95 735.696 L1347.95 735.696  Z" fill="#4682b4" fill-rule="evenodd" fill-opacity="0.6"/>
<polyline clip-path="url(#clip492)" style="stroke:#000000; stroke-linecap:round; stroke-linejoin:round; stroke-width:4; stroke-opacity:1; fill:none" points="1347.95,735.696 1347.95,1241.31 1430.37,1241.31 1430.37,735.696 1347.95,735.696 "/>
<path clip-path="url(#clip492)" d="M1430.37 1033.12 L1430.37 1241.31 L1512.79 1241.31 L1512.79 1033.12 L1430.37 1033.12 L1430.37 1033.12  Z" fill="#4682b4" fill-rule="evenodd" fill-opacity="0.6"/>
<polyline clip-path="url(#clip492)" style="stroke:#000000; stroke-linecap:round; stroke-linejoin:round; stroke-width:4; stroke-opacity:1; fill:none" points="1430.37,1033.12 1430.37,1241.31 1512.79,1241.31 1512.79,1033.12 1430.37,1033.12 "/>
<path clip-path="url(#clip492)" d="M1512.79 1122.34 L1512.79 1241.31 L1595.21 1241.31 L1595.21 1122.34 L1512.79 1122.34 L1512.79 1122.34  Z" fill="#4682b4" fill-rule="evenodd" fill-opacity="0.6"/>
<polyline clip-path="url(#clip492)" style="stroke:#000000; stroke-linecap:round; stroke-linejoin:round; stroke-width:4; stroke-opacity:1; fill:none" points="1512.79,1122.34 1512.79,1241.31 1595.21,1241.31 1595.21,1122.34 1512.79,1122.34 "/>
<path clip-path="url(#clip492)" d="M1595.21 1196.7 L1595.21 1241.31 L1677.63 1241.31 L1677.63 1196.7 L1595.21 1196.7 L1595.21 1196.7  Z" fill="#4682b4" fill-rule="evenodd" fill-opacity="0.6"/>
<polyline clip-path="url(#clip492)" style="stroke:#000000; stroke-linecap:round; stroke-linejoin:round; stroke-width:4; stroke-opacity:1; fill:none" points="1595.21,1196.7 1595.21,1241.31 1677.63,1241.31 1677.63,1196.7 1595.21,1196.7 "/>
<path clip-path="url(#clip492)" d="M1677.63 1241.31 L1677.63 1241.31 L1760.05 1241.31 L1760.05 1241.31 L1677.63 1241.31 L1677.63 1241.31  Z" fill="#4682b4" fill-rule="evenodd" fill-opacity="0.6"/>
<polyline clip-path="url(#clip492)" style="stroke:#000000; stroke-linecap:round; stroke-linejoin:round; stroke-width:4; stroke-opacity:1; fill:none" points="1677.63,1241.31 1677.63,1241.31 1760.05,1241.31 1677.63,1241.31 "/>
<path clip-path="url(#clip492)" d="M1760.05 1226.44 L1760.05 1241.31 L1842.47 1241.31 L1842.47 1226.44 L1760.05 1226.44 L1760.05 1226.44  Z" fill="#4682b4" fill-rule="evenodd" fill-opacity="0.6"/>
<polyline clip-path="url(#clip492)" style="stroke:#000000; stroke-linecap:round; stroke-linejoin:round; stroke-width:4; stroke-opacity:1; fill:none" points="1760.05,1226.44 1760.05,1241.31 1842.47,1241.31 1842.47,1226.44 1760.05,1226.44 "/>
<path clip-path="url(#clip492)" d="M1842.47 1241.31 L1842.47 1241.31 L1924.89 1241.31 L1924.89 1241.31 L1842.47 1241.31 L1842.47 1241.31  Z" fill="#4682b4" fill-rule="evenodd" fill-opacity="0.6"/>
<polyline clip-path="url(#clip492)" style="stroke:#000000; stroke-linecap:round; stroke-linejoin:round; stroke-width:4; stroke-opacity:1; fill:none" points="1842.47,1241.31 1842.47,1241.31 1924.89,1241.31 1842.47,1241.31 "/>
<path clip-path="url(#clip492)" d="M1924.89 1241.31 L1924.89 1241.31 L2007.31 1241.31 L2007.31 1241.31 L1924.89 1241.31 L1924.89 1241.31  Z" fill="#4682b4" fill-rule="evenodd" fill-opacity="0.6"/>
<polyline clip-path="url(#clip492)" style="stroke:#000000; stroke-linecap:round; stroke-linejoin:round; stroke-width:4; stroke-opacity:1; fill:none" points="1924.89,1241.31 1924.89,1241.31 2007.31,1241.31 1924.89,1241.31 "/>
<path clip-path="url(#clip492)" d="M2007.31 1226.44 L2007.31 1241.31 L2089.73 1241.31 L2089.73 1226.44 L2007.31 1226.44 L2007.31 1226.44  Z" fill="#4682b4" fill-rule="evenodd" fill-opacity="0.6"/>
<polyline clip-path="url(#clip492)" style="stroke:#000000; stroke-linecap:round; stroke-linejoin:round; stroke-width:4; stroke-opacity:1; fill:none" points="2007.31,1226.44 2007.31,1241.31 2089.73,1241.31 2089.73,1226.44 2007.31,1226.44 "/>
<path clip-path="url(#clip492)" d="M2089.73 1226.44 L2089.73 1241.31 L2172.15 1241.31 L2172.15 1226.44 L2089.73 1226.44 L2089.73 1226.44  Z" fill="#4682b4" fill-rule="evenodd" fill-opacity="0.6"/>
<polyline clip-path="url(#clip492)" style="stroke:#000000; stroke-linecap:round; stroke-linejoin:round; stroke-width:4; stroke-opacity:1; fill:none" points="2089.73,1226.44 2089.73,1241.31 2172.15,1241.31 2172.15,1226.44 2089.73,1226.44 "/>
<circle clip-path="url(#clip492)" style="fill:#4682b4; stroke:none; fill-opacity:0" cx="564.963" cy="1211.57" r="2"/>
<circle clip-path="url(#clip492)" style="fill:#4682b4; stroke:none; fill-opacity:0" cx="647.382" cy="1166.96" r="2"/>
<circle clip-path="url(#clip492)" style="fill:#4682b4; stroke:none; fill-opacity:0" cx="729.802" cy="884.407" r="2"/>
<circle clip-path="url(#clip492)" style="fill:#4682b4; stroke:none; fill-opacity:0" cx="812.222" cy="542.373" r="2"/>
<circle clip-path="url(#clip492)" style="fill:#4682b4; stroke:none; fill-opacity:0" cx="894.641" cy="482.889" r="2"/>
<circle clip-path="url(#clip492)" style="fill:#4682b4; stroke:none; fill-opacity:0" cx="977.061" cy="125.984" r="2"/>
<circle clip-path="url(#clip492)" style="fill:#4682b4; stroke:none; fill-opacity:0" cx="1059.48" cy="259.824" r="2"/>
<circle clip-path="url(#clip492)" style="fill:#4682b4; stroke:none; fill-opacity:0" cx="1141.9" cy="170.597" r="2"/>
<circle clip-path="url(#clip492)" style="fill:#4682b4; stroke:none; fill-opacity:0" cx="1224.32" cy="319.308" r="2"/>
<circle clip-path="url(#clip492)" style="fill:#4682b4; stroke:none; fill-opacity:0" cx="1306.74" cy="735.696" r="2"/>
<circle clip-path="url(#clip492)" style="fill:#4682b4; stroke:none; fill-opacity:0" cx="1389.16" cy="735.696" r="2"/>
<circle clip-path="url(#clip492)" style="fill:#4682b4; stroke:none; fill-opacity:0" cx="1471.58" cy="1033.12" r="2"/>
<circle clip-path="url(#clip492)" style="fill:#4682b4; stroke:none; fill-opacity:0" cx="1554" cy="1122.34" r="2"/>
<circle clip-path="url(#clip492)" style="fill:#4682b4; stroke:none; fill-opacity:0" cx="1636.42" cy="1196.7" r="2"/>
<circle clip-path="url(#clip492)" style="fill:#4682b4; stroke:none; fill-opacity:0" cx="1718.84" cy="1241.31" r="2"/>
<circle clip-path="url(#clip492)" style="fill:#4682b4; stroke:none; fill-opacity:0" cx="1801.26" cy="1226.44" r="2"/>
<circle clip-path="url(#clip492)" style="fill:#4682b4; stroke:none; fill-opacity:0" cx="1883.68" cy="1241.31" r="2"/>
<circle clip-path="url(#clip492)" style="fill:#4682b4; stroke:none; fill-opacity:0" cx="1966.1" cy="1241.31" r="2"/>
<circle clip-path="url(#clip492)" style="fill:#4682b4; stroke:none; fill-opacity:0" cx="2048.52" cy="1226.44" r="2"/>
<circle clip-path="url(#clip492)" style="fill:#4682b4; stroke:none; fill-opacity:0" cx="2130.94" cy="1226.44" r="2"/>
<polyline clip-path="url(#clip492)" style="stroke:#ff0000; stroke-linecap:round; stroke-linejoin:round; stroke-width:8; stroke-opacity:1; fill:none" points="1282.23,2356.64 1282.23,-989.343 "/>
<polyline clip-path="url(#clip492)" style="stroke:#0000ff; stroke-linecap:round; stroke-linejoin:round; stroke-width:8; stroke-opacity:1; fill:none" stroke-dasharray="32, 20" points="1070.52,2356.64 1070.52,-989.343 "/>
<path clip-path="url(#clip490)" d="M1346.47 396.442 L2212.28 396.442 L2212.28 163.162 L1346.47 163.162  Z" fill="#ffffff" fill-rule="evenodd" fill-opacity="1"/>
<polyline clip-path="url(#clip490)" style="stroke:#000000; stroke-linecap:round; stroke-linejoin:round; stroke-width:4; stroke-opacity:1; fill:none" points="1346.47,396.442 2212.28,396.442 2212.28,163.162 1346.47,163.162 1346.47,396.442 "/>
<path clip-path="url(#clip490)" d="M1367.05 244.81 L1490.52 244.81 L1490.52 198.154 L1367.05 198.154 L1367.05 244.81  Z" fill="#4682b4" fill-rule="evenodd" fill-opacity="0.6"/>
<polyline clip-path="url(#clip490)" style="stroke:#000000; stroke-linecap:round; stroke-linejoin:round; stroke-width:4.5; stroke-opacity:1; fill:none" points="1367.05,244.81 1490.52,244.81 1490.52,198.154 1367.05,198.154 1367.05,244.81 "/>
<path clip-path="url(#clip490)" d="M1536.13 203.318 L1536.13 208.448 Q1533.13 207.016 1530.48 206.313 Q1527.82 205.61 1525.35 205.61 Q1521.05 205.61 1518.71 207.276 Q1516.39 208.943 1516.39 212.016 Q1516.39 214.594 1517.93 215.922 Q1519.49 217.224 1523.81 218.031 L1526.99 218.682 Q1532.87 219.802 1535.66 222.641 Q1538.47 225.453 1538.47 230.193 Q1538.47 235.844 1534.67 238.76 Q1530.89 241.677 1523.58 241.677 Q1520.82 241.677 1517.69 241.052 Q1514.59 240.427 1511.26 239.203 L1511.26 233.786 Q1514.46 235.583 1517.54 236.495 Q1520.61 237.406 1523.58 237.406 Q1528.08 237.406 1530.53 235.635 Q1532.98 233.865 1532.98 230.583 Q1532.98 227.719 1531.21 226.104 Q1529.46 224.49 1525.45 223.682 L1522.25 223.057 Q1516.36 221.885 1513.73 219.385 Q1511.1 216.885 1511.1 212.432 Q1511.1 207.276 1514.72 204.307 Q1518.37 201.339 1524.75 201.339 Q1527.48 201.339 1530.32 201.833 Q1533.16 202.328 1536.13 203.318 Z" fill="#000000" fill-rule="nonzero" fill-opacity="1" /><path clip-path="url(#clip490)" d="M1546.47 211.755 L1551.26 211.755 L1551.26 240.922 L1546.47 240.922 L1546.47 211.755 M1546.47 200.401 L1551.26 200.401 L1551.26 206.469 L1546.47 206.469 L1546.47 200.401 Z" fill="#000000" fill-rule="nonzero" fill-opacity="1" /><path clip-path="url(#clip490)" d="M1583.99 217.354 Q1585.79 214.125 1588.29 212.589 Q1590.79 211.052 1594.18 211.052 Q1598.73 211.052 1601.21 214.255 Q1603.68 217.432 1603.68 223.318 L1603.68 240.922 L1598.86 240.922 L1598.86 223.474 Q1598.86 219.281 1597.38 217.25 Q1595.89 215.219 1592.85 215.219 Q1589.12 215.219 1586.96 217.693 Q1584.8 220.167 1584.8 224.438 L1584.8 240.922 L1579.98 240.922 L1579.98 223.474 Q1579.98 219.255 1578.5 217.25 Q1577.01 215.219 1573.92 215.219 Q1570.24 215.219 1568.08 217.719 Q1565.92 220.193 1565.92 224.438 L1565.92 240.922 L1561.1 240.922 L1561.1 211.755 L1565.92 211.755 L1565.92 216.287 Q1567.56 213.604 1569.85 212.328 Q1572.14 211.052 1575.3 211.052 Q1578.47 211.052 1580.69 212.667 Q1582.93 214.281 1583.99 217.354 Z" fill="#000000" fill-rule="nonzero" fill-opacity="1" /><path clip-path="url(#clip490)" d="M1612.74 229.411 L1612.74 211.755 L1617.54 211.755 L1617.54 229.229 Q1617.54 233.37 1619.15 235.453 Q1620.76 237.51 1623.99 237.51 Q1627.87 237.51 1630.11 235.036 Q1632.38 232.562 1632.38 228.292 L1632.38 211.755 L1637.17 211.755 L1637.17 240.922 L1632.38 240.922 L1632.38 236.443 Q1630.63 239.099 1628.32 240.401 Q1626.02 241.677 1622.98 241.677 Q1617.95 241.677 1615.35 238.552 Q1612.74 235.427 1612.74 229.411 M1624.8 211.052 L1624.8 211.052 Z" fill="#000000" fill-rule="nonzero" fill-opacity="1" /><path clip-path="url(#clip490)" d="M1647.04 200.401 L1651.83 200.401 L1651.83 240.922 L1647.04 240.922 L1647.04 200.401 Z" fill="#000000" fill-rule="nonzero" fill-opacity="1" /><path clip-path="url(#clip490)" d="M1675.11 226.26 Q1669.31 226.26 1667.07 227.589 Q1664.83 228.917 1664.83 232.12 Q1664.83 234.672 1666.49 236.182 Q1668.19 237.667 1671.08 237.667 Q1675.06 237.667 1677.46 234.854 Q1679.88 232.016 1679.88 227.328 L1679.88 226.26 L1675.11 226.26 M1684.67 224.281 L1684.67 240.922 L1679.88 240.922 L1679.88 236.495 Q1678.24 239.151 1675.79 240.427 Q1673.34 241.677 1669.8 241.677 Q1665.32 241.677 1662.67 239.177 Q1660.03 236.651 1660.03 232.432 Q1660.03 227.51 1663.32 225.01 Q1666.62 222.51 1673.16 222.51 L1679.88 222.51 L1679.88 222.042 Q1679.88 218.734 1677.69 216.938 Q1675.53 215.115 1671.6 215.115 Q1669.1 215.115 1666.73 215.714 Q1664.36 216.313 1662.17 217.51 L1662.17 213.083 Q1664.8 212.068 1667.27 211.573 Q1669.75 211.052 1672.09 211.052 Q1678.42 211.052 1681.55 214.333 Q1684.67 217.615 1684.67 224.281 Z" fill="#000000" fill-rule="nonzero" fill-opacity="1" /><path clip-path="url(#clip490)" d="M1699.28 203.474 L1699.28 211.755 L1709.15 211.755 L1709.15 215.479 L1699.28 215.479 L1699.28 231.313 Q1699.28 234.88 1700.24 235.896 Q1701.23 236.911 1704.23 236.911 L1709.15 236.911 L1709.15 240.922 L1704.23 240.922 Q1698.68 240.922 1696.57 238.865 Q1694.46 236.781 1694.46 231.313 L1694.46 215.479 L1690.95 215.479 L1690.95 211.755 L1694.46 211.755 L1694.46 203.474 L1699.28 203.474 Z" fill="#000000" fill-rule="nonzero" fill-opacity="1" /><path clip-path="url(#clip490)" d="M1740.4 225.141 L1740.4 227.484 L1718.37 227.484 Q1718.68 232.432 1721.34 235.036 Q1724.02 237.615 1728.78 237.615 Q1731.54 237.615 1734.12 236.937 Q1736.73 236.26 1739.28 234.906 L1739.28 239.437 Q1736.7 240.531 1733.99 241.104 Q1731.28 241.677 1728.5 241.677 Q1721.52 241.677 1717.43 237.615 Q1713.37 233.552 1713.37 226.625 Q1713.37 219.464 1717.22 215.271 Q1721.1 211.052 1727.66 211.052 Q1733.55 211.052 1736.96 214.854 Q1740.4 218.63 1740.4 225.141 M1735.61 223.734 Q1735.56 219.802 1733.39 217.458 Q1731.26 215.115 1727.72 215.115 Q1723.71 215.115 1721.28 217.38 Q1718.89 219.646 1718.52 223.76 L1735.61 223.734 Z" fill="#000000" fill-rule="nonzero" fill-opacity="1" /><path clip-path="url(#clip490)" d="M1767.46 216.182 L1767.46 200.401 L1772.25 200.401 L1772.25 240.922 L1767.46 240.922 L1767.46 236.547 Q1765.95 239.151 1763.63 240.427 Q1761.34 241.677 1758.11 241.677 Q1752.82 241.677 1749.49 237.458 Q1746.18 233.24 1746.18 226.365 Q1746.18 219.49 1749.49 215.271 Q1752.82 211.052 1758.11 211.052 Q1761.34 211.052 1763.63 212.328 Q1765.95 213.578 1767.46 216.182 M1751.13 226.365 Q1751.13 231.651 1753.29 234.672 Q1755.48 237.667 1759.28 237.667 Q1763.08 237.667 1765.27 234.672 Q1767.46 231.651 1767.46 226.365 Q1767.46 221.078 1765.27 218.083 Q1763.08 215.063 1759.28 215.063 Q1755.48 215.063 1753.29 218.083 Q1751.13 221.078 1751.13 226.365 Z" fill="#000000" fill-rule="nonzero" fill-opacity="1" /><path clip-path="url(#clip490)" d="M1803.81 203.474 L1803.81 211.755 L1813.68 211.755 L1813.68 215.479 L1803.81 215.479 L1803.81 231.313 Q1803.81 234.88 1804.77 235.896 Q1805.76 236.911 1808.76 236.911 L1813.68 236.911 L1813.68 240.922 L1808.76 240.922 Q1803.21 240.922 1801.1 238.865 Q1798.99 236.781 1798.99 231.313 L1798.99 215.479 L1795.48 215.479 L1795.48 211.755 L1798.99 211.755 L1798.99 203.474 L1803.81 203.474 Z" fill="#000000" fill-rule="nonzero" fill-opacity="1" /><path clip-path="url(#clip490)" d="M1844.93 225.141 L1844.93 227.484 L1822.9 227.484 Q1823.21 232.432 1825.87 235.036 Q1828.55 237.615 1833.32 237.615 Q1836.08 237.615 1838.65 236.937 Q1841.26 236.26 1843.81 234.906 L1843.81 239.437 Q1841.23 240.531 1838.52 241.104 Q1835.82 241.677 1833.03 241.677 Q1826.05 241.677 1821.96 237.615 Q1817.9 233.552 1817.9 226.625 Q1817.9 219.464 1821.75 215.271 Q1825.63 211.052 1832.2 211.052 Q1838.08 211.052 1841.49 214.854 Q1844.93 218.63 1844.93 225.141 M1840.14 223.734 Q1840.09 219.802 1837.92 217.458 Q1835.79 215.115 1832.25 215.115 Q1828.24 215.115 1825.82 217.38 Q1823.42 219.646 1823.05 223.76 L1840.14 223.734 Z" fill="#000000" fill-rule="nonzero" fill-opacity="1" /><path clip-path="url(#clip490)" d="M1869.7 216.234 Q1868.89 215.766 1867.92 215.557 Q1866.99 215.323 1865.84 215.323 Q1861.78 215.323 1859.59 217.979 Q1857.43 220.609 1857.43 225.557 L1857.43 240.922 L1852.61 240.922 L1852.61 211.755 L1857.43 211.755 L1857.43 216.287 Q1858.94 213.63 1861.36 212.354 Q1863.78 211.052 1867.25 211.052 Q1867.74 211.052 1868.34 211.13 Q1868.94 211.182 1869.67 211.313 L1869.7 216.234 Z" fill="#000000" fill-rule="nonzero" fill-opacity="1" /><path clip-path="url(#clip490)" d="M1896.49 217.354 Q1898.29 214.125 1900.79 212.589 Q1903.29 211.052 1906.67 211.052 Q1911.23 211.052 1913.71 214.255 Q1916.18 217.432 1916.18 223.318 L1916.18 240.922 L1911.36 240.922 L1911.36 223.474 Q1911.36 219.281 1909.88 217.25 Q1908.39 215.219 1905.35 215.219 Q1901.62 215.219 1899.46 217.693 Q1897.3 220.167 1897.3 224.438 L1897.3 240.922 L1892.48 240.922 L1892.48 223.474 Q1892.48 219.255 1891 217.25 Q1889.51 215.219 1886.41 215.219 Q1882.74 215.219 1880.58 217.719 Q1878.42 220.193 1878.42 224.438 L1878.42 240.922 L1873.6 240.922 L1873.6 211.755 L1878.42 211.755 L1878.42 216.287 Q1880.06 213.604 1882.35 212.328 Q1884.64 211.052 1887.79 211.052 Q1890.97 211.052 1893.18 212.667 Q1895.42 214.281 1896.49 217.354 Z" fill="#000000" fill-rule="nonzero" fill-opacity="1" /><path clip-path="url(#clip490)" d="M1925.74 211.755 L1930.53 211.755 L1930.53 240.922 L1925.74 240.922 L1925.74 211.755 M1925.74 200.401 L1930.53 200.401 L1930.53 206.469 L1925.74 206.469 L1925.74 200.401 Z" fill="#000000" fill-rule="nonzero" fill-opacity="1" /><path clip-path="url(#clip490)" d="M1964.8 223.318 L1964.8 240.922 L1960.01 240.922 L1960.01 223.474 Q1960.01 219.333 1958.39 217.276 Q1956.78 215.219 1953.55 215.219 Q1949.67 215.219 1947.43 217.693 Q1945.19 220.167 1945.19 224.438 L1945.19 240.922 L1940.37 240.922 L1940.37 211.755 L1945.19 211.755 L1945.19 216.287 Q1946.91 213.656 1949.23 212.354 Q1951.57 211.052 1954.62 211.052 Q1959.64 211.052 1962.22 214.177 Q1964.8 217.276 1964.8 223.318 Z" fill="#000000" fill-rule="nonzero" fill-opacity="1" /><path clip-path="url(#clip490)" d="M1987.61 226.26 Q1981.8 226.26 1979.56 227.589 Q1977.32 228.917 1977.32 232.12 Q1977.32 234.672 1978.99 236.182 Q1980.68 237.667 1983.57 237.667 Q1987.56 237.667 1989.95 234.854 Q1992.38 232.016 1992.38 227.328 L1992.38 226.26 L1987.61 226.26 M1997.17 224.281 L1997.17 240.922 L1992.38 240.922 L1992.38 236.495 Q1990.74 239.151 1988.29 240.427 Q1985.84 241.677 1982.3 241.677 Q1977.82 241.677 1975.16 239.177 Q1972.53 236.651 1972.53 232.432 Q1972.53 227.51 1975.81 225.01 Q1979.12 222.51 1985.66 222.51 L1992.38 222.51 L1992.38 222.042 Q1992.38 218.734 1990.19 216.938 Q1988.03 215.115 1984.1 215.115 Q1981.6 215.115 1979.23 215.714 Q1976.86 216.313 1974.67 217.51 L1974.67 213.083 Q1977.3 212.068 1979.77 211.573 Q1982.25 211.052 1984.59 211.052 Q1990.92 211.052 1994.04 214.333 Q1997.17 217.615 1997.17 224.281 Z" fill="#000000" fill-rule="nonzero" fill-opacity="1" /><path clip-path="url(#clip490)" d="M2007.04 200.401 L2011.83 200.401 L2011.83 240.922 L2007.04 240.922 L2007.04 200.401 Z" fill="#000000" fill-rule="nonzero" fill-opacity="1" /><path clip-path="url(#clip490)" d="M2043.44 236.547 L2043.44 252.016 L2038.63 252.016 L2038.63 211.755 L2043.44 211.755 L2043.44 216.182 Q2044.95 213.578 2047.25 212.328 Q2049.56 211.052 2052.77 211.052 Q2058.08 211.052 2061.39 215.271 Q2064.72 219.49 2064.72 226.365 Q2064.72 233.24 2061.39 237.458 Q2058.08 241.677 2052.77 241.677 Q2049.56 241.677 2047.25 240.427 Q2044.95 239.151 2043.44 236.547 M2059.75 226.365 Q2059.75 221.078 2057.56 218.083 Q2055.4 215.063 2051.6 215.063 Q2047.79 215.063 2045.61 218.083 Q2043.44 221.078 2043.44 226.365 Q2043.44 231.651 2045.61 234.672 Q2047.79 237.667 2051.6 237.667 Q2055.4 237.667 2057.56 234.672 Q2059.75 231.651 2059.75 226.365 Z" fill="#000000" fill-rule="nonzero" fill-opacity="1" /><path clip-path="url(#clip490)" d="M2089.56 216.234 Q2088.76 215.766 2087.79 215.557 Q2086.86 215.323 2085.71 215.323 Q2081.65 215.323 2079.46 217.979 Q2077.3 220.609 2077.3 225.557 L2077.3 240.922 L2072.48 240.922 L2072.48 211.755 L2077.3 211.755 L2077.3 216.287 Q2078.81 213.63 2081.23 212.354 Q2083.65 211.052 2087.12 211.052 Q2087.61 211.052 2088.21 211.13 Q2088.81 211.182 2089.54 211.313 L2089.56 216.234 Z" fill="#000000" fill-rule="nonzero" fill-opacity="1" /><path clip-path="url(#clip490)" d="M2094.59 211.755 L2099.38 211.755 L2099.38 240.922 L2094.59 240.922 L2094.59 211.755 M2094.59 200.401 L2099.38 200.401 L2099.38 206.469 L2094.59 206.469 L2094.59 200.401 Z" fill="#000000" fill-rule="nonzero" fill-opacity="1" /><path clip-path="url(#clip490)" d="M2130.4 212.875 L2130.4 217.354 Q2128.37 216.234 2126.31 215.688 Q2124.28 215.115 2122.19 215.115 Q2117.53 215.115 2114.95 218.083 Q2112.38 221.026 2112.38 226.365 Q2112.38 231.703 2114.95 234.672 Q2117.53 237.615 2122.19 237.615 Q2124.28 237.615 2126.31 237.068 Q2128.37 236.495 2130.4 235.375 L2130.4 239.802 Q2128.39 240.74 2126.23 241.208 Q2124.09 241.677 2121.67 241.677 Q2115.08 241.677 2111.2 237.536 Q2107.32 233.396 2107.32 226.365 Q2107.32 219.229 2111.23 215.141 Q2115.16 211.052 2121.99 211.052 Q2124.2 211.052 2126.31 211.521 Q2128.42 211.964 2130.4 212.875 Z" fill="#000000" fill-rule="nonzero" fill-opacity="1" /><path clip-path="url(#clip490)" d="M2163.68 225.141 L2163.68 227.484 L2141.65 227.484 Q2141.96 232.432 2144.62 235.036 Q2147.3 237.615 2152.06 237.615 Q2154.82 237.615 2157.4 236.937 Q2160.01 236.26 2162.56 234.906 L2162.56 239.437 Q2159.98 240.531 2157.27 241.104 Q2154.56 241.677 2151.78 241.677 Q2144.8 241.677 2140.71 237.615 Q2136.65 233.552 2136.65 226.625 Q2136.65 219.464 2140.5 215.271 Q2144.38 211.052 2150.94 211.052 Q2156.83 211.052 2160.24 214.854 Q2163.68 218.63 2163.68 225.141 M2158.89 223.734 Q2158.83 219.802 2156.67 217.458 Q2154.54 215.115 2151 215.115 Q2146.99 215.115 2144.56 217.38 Q2142.17 219.646 2141.8 223.76 L2158.89 223.734 Z" fill="#000000" fill-rule="nonzero" fill-opacity="1" /><path clip-path="url(#clip490)" d="M2190.14 212.615 L2190.14 217.146 Q2188.1 216.104 2185.92 215.583 Q2183.73 215.063 2181.39 215.063 Q2177.82 215.063 2176.02 216.156 Q2174.25 217.25 2174.25 219.438 Q2174.25 221.104 2175.53 222.068 Q2176.8 223.005 2180.66 223.865 L2182.3 224.229 Q2187.4 225.323 2189.54 227.328 Q2191.7 229.307 2191.7 232.875 Q2191.7 236.937 2188.47 239.307 Q2185.27 241.677 2179.64 241.677 Q2177.3 241.677 2174.75 241.208 Q2172.22 240.766 2169.41 239.854 L2169.41 234.906 Q2172.06 236.286 2174.64 236.99 Q2177.22 237.667 2179.75 237.667 Q2183.13 237.667 2184.95 236.521 Q2186.78 235.349 2186.78 233.24 Q2186.78 231.286 2185.45 230.245 Q2184.15 229.203 2179.69 228.24 L2178.03 227.849 Q2173.57 226.911 2171.59 224.984 Q2169.62 223.031 2169.62 219.646 Q2169.62 215.531 2172.53 213.292 Q2175.45 211.052 2180.81 211.052 Q2183.47 211.052 2185.81 211.443 Q2188.16 211.833 2190.14 212.615 Z" fill="#000000" fill-rule="nonzero" fill-opacity="1" /><polyline clip-path="url(#clip490)" style="stroke:#ff0000; stroke-linecap:round; stroke-linejoin:round; stroke-width:9; stroke-opacity:1; fill:none" points="1367.05,279.802 1490.52,279.802 "/>
<path clip-path="url(#clip490)" d="M1529.12 263.93 Q1523.39 263.93 1520.01 268.2 Q1516.65 272.471 1516.65 279.841 Q1516.65 287.185 1520.01 291.455 Q1523.39 295.726 1529.12 295.726 Q1534.85 295.726 1538.19 291.455 Q1541.55 287.185 1541.55 279.841 Q1541.55 272.471 1538.19 268.2 Q1534.85 263.93 1529.12 263.93 M1529.12 259.659 Q1537.3 259.659 1542.2 265.153 Q1547.09 270.622 1547.09 279.841 Q1547.09 289.034 1542.2 294.528 Q1537.3 299.997 1529.12 299.997 Q1520.92 299.997 1516 294.528 Q1511.1 289.06 1511.1 279.841 Q1511.1 270.622 1516 265.153 Q1520.92 259.659 1529.12 259.659 Z" fill="#000000" fill-rule="nonzero" fill-opacity="1" /><path clip-path="url(#clip490)" d="M1576.05 284.685 Q1576.05 279.398 1573.86 276.403 Q1571.7 273.383 1567.9 273.383 Q1564.1 273.383 1561.91 276.403 Q1559.75 279.398 1559.75 284.685 Q1559.75 289.971 1561.91 292.992 Q1564.1 295.987 1567.9 295.987 Q1571.7 295.987 1573.86 292.992 Q1576.05 289.971 1576.05 284.685 M1559.75 274.502 Q1561.26 271.898 1563.55 270.648 Q1565.87 269.372 1569.07 269.372 Q1574.38 269.372 1577.69 273.591 Q1581.02 277.81 1581.02 284.685 Q1581.02 291.56 1577.69 295.778 Q1574.38 299.997 1569.07 299.997 Q1565.87 299.997 1563.55 298.747 Q1561.26 297.471 1559.75 294.867 L1559.75 299.242 L1554.93 299.242 L1554.93 258.721 L1559.75 258.721 L1559.75 274.502 Z" fill="#000000" fill-rule="nonzero" fill-opacity="1" /><path clip-path="url(#clip490)" d="M1607.56 270.935 L1607.56 275.466 Q1605.53 274.424 1603.34 273.903 Q1601.15 273.383 1598.81 273.383 Q1595.24 273.383 1593.45 274.476 Q1591.68 275.57 1591.68 277.758 Q1591.68 279.424 1592.95 280.388 Q1594.23 281.325 1598.08 282.185 L1599.72 282.549 Q1604.83 283.643 1606.96 285.648 Q1609.12 287.627 1609.12 291.195 Q1609.12 295.257 1605.89 297.627 Q1602.69 299.997 1597.07 299.997 Q1594.72 299.997 1592.17 299.528 Q1589.64 299.086 1586.83 298.174 L1586.83 293.226 Q1589.49 294.606 1592.07 295.31 Q1594.64 295.987 1597.17 295.987 Q1600.56 295.987 1602.38 294.841 Q1604.2 293.669 1604.2 291.56 Q1604.2 289.606 1602.87 288.565 Q1601.57 287.523 1597.12 286.56 L1595.45 286.169 Q1591 285.231 1589.02 283.304 Q1587.04 281.351 1587.04 277.966 Q1587.04 273.851 1589.96 271.612 Q1592.87 269.372 1598.24 269.372 Q1600.89 269.372 1603.24 269.763 Q1605.58 270.153 1607.56 270.935 Z" fill="#000000" fill-rule="nonzero" fill-opacity="1" /><path clip-path="url(#clip490)" d="M1641.7 283.461 L1641.7 285.804 L1619.67 285.804 Q1619.98 290.752 1622.64 293.356 Q1625.32 295.935 1630.09 295.935 Q1632.85 295.935 1635.43 295.257 Q1638.03 294.58 1640.58 293.226 L1640.58 297.757 Q1638 298.851 1635.3 299.424 Q1632.59 299.997 1629.8 299.997 Q1622.82 299.997 1618.73 295.935 Q1614.67 291.872 1614.67 284.945 Q1614.67 277.784 1618.52 273.591 Q1622.4 269.372 1628.97 269.372 Q1634.85 269.372 1638.26 273.174 Q1641.7 276.95 1641.7 283.461 M1636.91 282.054 Q1636.86 278.122 1634.7 275.778 Q1632.56 273.435 1629.02 273.435 Q1625.01 273.435 1622.59 275.7 Q1620.19 277.966 1619.83 282.08 L1636.91 282.054 Z" fill="#000000" fill-rule="nonzero" fill-opacity="1" /><path clip-path="url(#clip490)" d="M1666.47 274.554 Q1665.66 274.086 1664.7 273.877 Q1663.76 273.643 1662.61 273.643 Q1658.55 273.643 1656.36 276.299 Q1654.2 278.929 1654.2 283.877 L1654.2 299.242 L1649.38 299.242 L1649.38 270.075 L1654.2 270.075 L1654.2 274.607 Q1655.71 271.95 1658.13 270.674 Q1660.56 269.372 1664.02 269.372 Q1664.51 269.372 1665.11 269.45 Q1665.71 269.502 1666.44 269.633 L1666.47 274.554 Z" fill="#000000" fill-rule="nonzero" fill-opacity="1" /><path clip-path="url(#clip490)" d="M1668.06 270.075 L1673.13 270.075 L1682.25 294.554 L1691.36 270.075 L1696.44 270.075 L1685.5 299.242 L1678.99 299.242 L1668.06 270.075 Z" fill="#000000" fill-rule="nonzero" fill-opacity="1" /><path clip-path="url(#clip490)" d="M1728 283.461 L1728 285.804 L1705.97 285.804 Q1706.28 290.752 1708.94 293.356 Q1711.62 295.935 1716.39 295.935 Q1719.15 295.935 1721.73 295.257 Q1724.33 294.58 1726.88 293.226 L1726.88 297.757 Q1724.31 298.851 1721.6 299.424 Q1718.89 299.997 1716.1 299.997 Q1709.12 299.997 1705.03 295.935 Q1700.97 291.872 1700.97 284.945 Q1700.97 277.784 1704.83 273.591 Q1708.71 269.372 1715.27 269.372 Q1721.15 269.372 1724.57 273.174 Q1728 276.95 1728 283.461 M1723.21 282.054 Q1723.16 278.122 1721 275.778 Q1718.86 273.435 1715.32 273.435 Q1711.31 273.435 1708.89 275.7 Q1706.49 277.966 1706.13 282.08 L1723.21 282.054 Z" fill="#000000" fill-rule="nonzero" fill-opacity="1" /><path clip-path="url(#clip490)" d="M1755.06 274.502 L1755.06 258.721 L1759.85 258.721 L1759.85 299.242 L1755.06 299.242 L1755.06 294.867 Q1753.55 297.471 1751.23 298.747 Q1748.94 299.997 1745.71 299.997 Q1740.43 299.997 1737.09 295.778 Q1733.78 291.56 1733.78 284.685 Q1733.78 277.81 1737.09 273.591 Q1740.43 269.372 1745.71 269.372 Q1748.94 269.372 1751.23 270.648 Q1753.55 271.898 1755.06 274.502 M1738.73 284.685 Q1738.73 289.971 1740.89 292.992 Q1743.08 295.987 1746.88 295.987 Q1750.69 295.987 1752.87 292.992 Q1755.06 289.971 1755.06 284.685 Q1755.06 279.398 1752.87 276.403 Q1750.69 273.383 1746.88 273.383 Q1743.08 273.383 1740.89 276.403 Q1738.73 279.398 1738.73 284.685 Z" fill="#000000" fill-rule="nonzero" fill-opacity="1" /><path clip-path="url(#clip490)" d="M1791.41 261.794 L1791.41 270.075 L1801.28 270.075 L1801.28 273.799 L1791.41 273.799 L1791.41 289.633 Q1791.41 293.2 1792.38 294.216 Q1793.37 295.231 1796.36 295.231 L1801.28 295.231 L1801.28 299.242 L1796.36 299.242 Q1790.82 299.242 1788.71 297.185 Q1786.6 295.101 1786.6 289.633 L1786.6 273.799 L1783.08 273.799 L1783.08 270.075 L1786.6 270.075 L1786.6 261.794 L1791.41 261.794 Z" fill="#000000" fill-rule="nonzero" fill-opacity="1" /><path clip-path="url(#clip490)" d="M1832.53 283.461 L1832.53 285.804 L1810.5 285.804 Q1810.82 290.752 1813.47 293.356 Q1816.15 295.935 1820.92 295.935 Q1823.68 295.935 1826.26 295.257 Q1828.86 294.58 1831.41 293.226 L1831.41 297.757 Q1828.84 298.851 1826.13 299.424 Q1823.42 299.997 1820.63 299.997 Q1813.65 299.997 1809.57 295.935 Q1805.5 291.872 1805.5 284.945 Q1805.5 277.784 1809.36 273.591 Q1813.24 269.372 1819.8 269.372 Q1825.69 269.372 1829.1 273.174 Q1832.53 276.95 1832.53 283.461 M1827.74 282.054 Q1827.69 278.122 1825.53 275.778 Q1823.39 273.435 1819.85 273.435 Q1815.84 273.435 1813.42 275.7 Q1811.02 277.966 1810.66 282.08 L1827.74 282.054 Z" fill="#000000" fill-rule="nonzero" fill-opacity="1" /><path clip-path="url(#clip490)" d="M1857.3 274.554 Q1856.49 274.086 1855.53 273.877 Q1854.59 273.643 1853.45 273.643 Q1849.38 273.643 1847.2 276.299 Q1845.03 278.929 1845.03 283.877 L1845.03 299.242 L1840.22 299.242 L1840.22 270.075 L1845.03 270.075 L1845.03 274.607 Q1846.54 271.95 1848.97 270.674 Q1851.39 269.372 1854.85 269.372 Q1855.35 269.372 1855.95 269.45 Q1856.54 269.502 1857.27 269.633 L1857.3 274.554 Z" fill="#000000" fill-rule="nonzero" fill-opacity="1" /><path clip-path="url(#clip490)" d="M1884.1 275.674 Q1885.89 272.445 1888.39 270.909 Q1890.89 269.372 1894.28 269.372 Q1898.84 269.372 1901.31 272.575 Q1903.78 275.752 1903.78 281.638 L1903.78 299.242 L1898.97 299.242 L1898.97 281.794 Q1898.97 277.601 1897.48 275.57 Q1896 273.539 1892.95 273.539 Q1889.23 273.539 1887.06 276.013 Q1884.9 278.487 1884.9 282.758 L1884.9 299.242 L1880.09 299.242 L1880.09 281.794 Q1880.09 277.575 1878.6 275.57 Q1877.12 273.539 1874.02 273.539 Q1870.35 273.539 1868.18 276.039 Q1866.02 278.513 1866.02 282.758 L1866.02 299.242 L1861.21 299.242 L1861.21 270.075 L1866.02 270.075 L1866.02 274.607 Q1867.66 271.924 1869.96 270.648 Q1872.25 269.372 1875.4 269.372 Q1878.58 269.372 1880.79 270.987 Q1883.03 272.601 1884.1 275.674 Z" fill="#000000" fill-rule="nonzero" fill-opacity="1" /><path clip-path="url(#clip490)" d="M1913.34 270.075 L1918.13 270.075 L1918.13 299.242 L1913.34 299.242 L1913.34 270.075 M1913.34 258.721 L1918.13 258.721 L1918.13 264.789 L1913.34 264.789 L1913.34 258.721 Z" fill="#000000" fill-rule="nonzero" fill-opacity="1" /><path clip-path="url(#clip490)" d="M1952.4 281.638 L1952.4 299.242 L1947.61 299.242 L1947.61 281.794 Q1947.61 277.653 1946 275.596 Q1944.38 273.539 1941.15 273.539 Q1937.27 273.539 1935.03 276.013 Q1932.79 278.487 1932.79 282.758 L1932.79 299.242 L1927.98 299.242 L1927.98 270.075 L1932.79 270.075 L1932.79 274.607 Q1934.51 271.976 1936.83 270.674 Q1939.17 269.372 1942.22 269.372 Q1947.25 269.372 1949.83 272.497 Q1952.4 275.596 1952.4 281.638 Z" fill="#000000" fill-rule="nonzero" fill-opacity="1" /><path clip-path="url(#clip490)" d="M1975.22 284.58 Q1969.41 284.58 1967.17 285.909 Q1964.93 287.237 1964.93 290.44 Q1964.93 292.992 1966.6 294.502 Q1968.29 295.987 1971.18 295.987 Q1975.16 295.987 1977.56 293.174 Q1979.98 290.336 1979.98 285.648 L1979.98 284.58 L1975.22 284.58 M1984.77 282.601 L1984.77 299.242 L1979.98 299.242 L1979.98 294.815 Q1978.34 297.471 1975.89 298.747 Q1973.44 299.997 1969.9 299.997 Q1965.42 299.997 1962.77 297.497 Q1960.14 294.971 1960.14 290.752 Q1960.14 285.83 1963.42 283.33 Q1966.73 280.83 1973.26 280.83 L1979.98 280.83 L1979.98 280.362 Q1979.98 277.054 1977.79 275.258 Q1975.63 273.435 1971.7 273.435 Q1969.2 273.435 1966.83 274.034 Q1964.46 274.633 1962.27 275.83 L1962.27 271.403 Q1964.9 270.388 1967.38 269.893 Q1969.85 269.372 1972.19 269.372 Q1978.52 269.372 1981.65 272.653 Q1984.77 275.935 1984.77 282.601 Z" fill="#000000" fill-rule="nonzero" fill-opacity="1" /><path clip-path="url(#clip490)" d="M1994.64 258.721 L1999.43 258.721 L1999.43 299.242 L1994.64 299.242 L1994.64 258.721 Z" fill="#000000" fill-rule="nonzero" fill-opacity="1" /><polyline clip-path="url(#clip490)" style="stroke:#0000ff; stroke-linecap:round; stroke-linejoin:round; stroke-width:9; stroke-opacity:1; fill:none" stroke-dasharray="36, 23" points="1367.05,338.122 1490.52,338.122 "/>
<path clip-path="url(#clip490)" d="M1536.13 319.958 L1536.13 325.088 Q1533.13 323.656 1530.48 322.953 Q1527.82 322.25 1525.35 322.25 Q1521.05 322.25 1518.71 323.916 Q1516.39 325.583 1516.39 328.656 Q1516.39 331.234 1517.93 332.562 Q1519.49 333.864 1523.81 334.671 L1526.99 335.322 Q1532.87 336.442 1535.66 339.281 Q1538.47 342.093 1538.47 346.833 Q1538.47 352.484 1534.67 355.4 Q1530.89 358.317 1523.58 358.317 Q1520.82 358.317 1517.69 357.692 Q1514.59 357.067 1511.26 355.843 L1511.26 350.426 Q1514.46 352.223 1517.54 353.135 Q1520.61 354.046 1523.58 354.046 Q1528.08 354.046 1530.53 352.275 Q1532.98 350.505 1532.98 347.223 Q1532.98 344.359 1531.21 342.744 Q1529.46 341.13 1525.45 340.322 L1522.25 339.697 Q1516.36 338.525 1513.73 336.025 Q1511.1 333.525 1511.1 329.072 Q1511.1 323.916 1514.72 320.947 Q1518.37 317.979 1524.75 317.979 Q1527.48 317.979 1530.32 318.473 Q1533.16 318.968 1536.13 319.958 Z" fill="#000000" fill-rule="nonzero" fill-opacity="1" /><path clip-path="url(#clip490)" d="M1546.47 328.395 L1551.26 328.395 L1551.26 357.562 L1546.47 357.562 L1546.47 328.395 M1546.47 317.041 L1551.26 317.041 L1551.26 323.109 L1546.47 323.109 L1546.47 317.041 Z" fill="#000000" fill-rule="nonzero" fill-opacity="1" /><path clip-path="url(#clip490)" d="M1583.99 333.994 Q1585.79 330.765 1588.29 329.229 Q1590.79 327.692 1594.18 327.692 Q1598.73 327.692 1601.21 330.895 Q1603.68 334.072 1603.68 339.958 L1603.68 357.562 L1598.86 357.562 L1598.86 340.114 Q1598.86 335.921 1597.38 333.89 Q1595.89 331.859 1592.85 331.859 Q1589.12 331.859 1586.96 334.333 Q1584.8 336.807 1584.8 341.078 L1584.8 357.562 L1579.98 357.562 L1579.98 340.114 Q1579.98 335.895 1578.5 333.89 Q1577.01 331.859 1573.92 331.859 Q1570.24 331.859 1568.08 334.359 Q1565.92 336.833 1565.92 341.078 L1565.92 357.562 L1561.1 357.562 L1561.1 328.395 L1565.92 328.395 L1565.92 332.927 Q1567.56 330.244 1569.85 328.968 Q1572.14 327.692 1575.3 327.692 Q1578.47 327.692 1580.69 329.307 Q1582.93 330.921 1583.99 333.994 Z" fill="#000000" fill-rule="nonzero" fill-opacity="1" /><path clip-path="url(#clip490)" d="M1612.74 346.051 L1612.74 328.395 L1617.54 328.395 L1617.54 345.869 Q1617.54 350.01 1619.15 352.093 Q1620.76 354.15 1623.99 354.15 Q1627.87 354.15 1630.11 351.676 Q1632.38 349.202 1632.38 344.932 L1632.38 328.395 L1637.17 328.395 L1637.17 357.562 L1632.38 357.562 L1632.38 353.083 Q1630.63 355.739 1628.32 357.041 Q1626.02 358.317 1622.98 358.317 Q1617.95 358.317 1615.35 355.192 Q1612.74 352.067 1612.74 346.051 M1624.8 327.692 L1624.8 327.692 Z" fill="#000000" fill-rule="nonzero" fill-opacity="1" /><path clip-path="url(#clip490)" d="M1647.04 317.041 L1651.83 317.041 L1651.83 357.562 L1647.04 357.562 L1647.04 317.041 Z" fill="#000000" fill-rule="nonzero" fill-opacity="1" /><path clip-path="url(#clip490)" d="M1675.11 342.9 Q1669.31 342.9 1667.07 344.229 Q1664.83 345.557 1664.83 348.76 Q1664.83 351.312 1666.49 352.822 Q1668.19 354.307 1671.08 354.307 Q1675.06 354.307 1677.46 351.494 Q1679.88 348.656 1679.88 343.968 L1679.88 342.9 L1675.11 342.9 M1684.67 340.921 L1684.67 357.562 L1679.88 357.562 L1679.88 353.135 Q1678.24 355.791 1675.79 357.067 Q1673.34 358.317 1669.8 358.317 Q1665.32 358.317 1662.67 355.817 Q1660.03 353.291 1660.03 349.072 Q1660.03 344.15 1663.32 341.65 Q1666.62 339.15 1673.16 339.15 L1679.88 339.15 L1679.88 338.682 Q1679.88 335.374 1677.69 333.578 Q1675.53 331.755 1671.6 331.755 Q1669.1 331.755 1666.73 332.354 Q1664.36 332.953 1662.17 334.15 L1662.17 329.723 Q1664.8 328.708 1667.27 328.213 Q1669.75 327.692 1672.09 327.692 Q1678.42 327.692 1681.55 330.973 Q1684.67 334.255 1684.67 340.921 Z" fill="#000000" fill-rule="nonzero" fill-opacity="1" /><path clip-path="url(#clip490)" d="M1699.28 320.114 L1699.28 328.395 L1709.15 328.395 L1709.15 332.119 L1699.28 332.119 L1699.28 347.953 Q1699.28 351.52 1700.24 352.536 Q1701.23 353.551 1704.23 353.551 L1709.15 353.551 L1709.15 357.562 L1704.23 357.562 Q1698.68 357.562 1696.57 355.505 Q1694.46 353.421 1694.46 347.953 L1694.46 332.119 L1690.95 332.119 L1690.95 328.395 L1694.46 328.395 L1694.46 320.114 L1699.28 320.114 Z" fill="#000000" fill-rule="nonzero" fill-opacity="1" /><path clip-path="url(#clip490)" d="M1740.4 341.781 L1740.4 344.124 L1718.37 344.124 Q1718.68 349.072 1721.34 351.676 Q1724.02 354.255 1728.78 354.255 Q1731.54 354.255 1734.12 353.577 Q1736.73 352.9 1739.28 351.546 L1739.28 356.077 Q1736.7 357.171 1733.99 357.744 Q1731.28 358.317 1728.5 358.317 Q1721.52 358.317 1717.43 354.255 Q1713.37 350.192 1713.37 343.265 Q1713.37 336.104 1717.22 331.911 Q1721.1 327.692 1727.66 327.692 Q1733.55 327.692 1736.96 331.494 Q1740.4 335.27 1740.4 341.781 M1735.61 340.374 Q1735.56 336.442 1733.39 334.098 Q1731.26 331.755 1727.72 331.755 Q1723.71 331.755 1721.28 334.02 Q1718.89 336.286 1718.52 340.4 L1735.61 340.374 Z" fill="#000000" fill-rule="nonzero" fill-opacity="1" /><path clip-path="url(#clip490)" d="M1767.46 332.822 L1767.46 317.041 L1772.25 317.041 L1772.25 357.562 L1767.46 357.562 L1767.46 353.187 Q1765.95 355.791 1763.63 357.067 Q1761.34 358.317 1758.11 358.317 Q1752.82 358.317 1749.49 354.098 Q1746.18 349.88 1746.18 343.005 Q1746.18 336.13 1749.49 331.911 Q1752.82 327.692 1758.11 327.692 Q1761.34 327.692 1763.63 328.968 Q1765.95 330.218 1767.46 332.822 M1751.13 343.005 Q1751.13 348.291 1753.29 351.312 Q1755.48 354.307 1759.28 354.307 Q1763.08 354.307 1765.27 351.312 Q1767.46 348.291 1767.46 343.005 Q1767.46 337.718 1765.27 334.723 Q1763.08 331.703 1759.28 331.703 Q1755.48 331.703 1753.29 334.723 Q1751.13 337.718 1751.13 343.005 Z" fill="#000000" fill-rule="nonzero" fill-opacity="1" /><path clip-path="url(#clip490)" d="M1821.78 333.994 Q1823.58 330.765 1826.08 329.229 Q1828.58 327.692 1831.96 327.692 Q1836.52 327.692 1838.99 330.895 Q1841.47 334.072 1841.47 339.958 L1841.47 357.562 L1836.65 357.562 L1836.65 340.114 Q1836.65 335.921 1835.16 333.89 Q1833.68 331.859 1830.63 331.859 Q1826.91 331.859 1824.75 334.333 Q1822.59 336.807 1822.59 341.078 L1822.59 357.562 L1817.77 357.562 L1817.77 340.114 Q1817.77 335.895 1816.28 333.89 Q1814.8 331.859 1811.7 331.859 Q1808.03 331.859 1805.87 334.359 Q1803.71 336.833 1803.71 341.078 L1803.71 357.562 L1798.89 357.562 L1798.89 328.395 L1803.71 328.395 L1803.71 332.927 Q1805.35 330.244 1807.64 328.968 Q1809.93 327.692 1813.08 327.692 Q1816.26 327.692 1818.47 329.307 Q1820.71 330.921 1821.78 333.994 Z" fill="#000000" fill-rule="nonzero" fill-opacity="1" /><path clip-path="url(#clip490)" d="M1875.97 341.781 L1875.97 344.124 L1853.94 344.124 Q1854.25 349.072 1856.91 351.676 Q1859.59 354.255 1864.36 354.255 Q1867.12 354.255 1869.7 353.577 Q1872.3 352.9 1874.85 351.546 L1874.85 356.077 Q1872.27 357.171 1869.57 357.744 Q1866.86 358.317 1864.07 358.317 Q1857.09 358.317 1853 354.255 Q1848.94 350.192 1848.94 343.265 Q1848.94 336.104 1852.79 331.911 Q1856.67 327.692 1863.24 327.692 Q1869.12 327.692 1872.53 331.494 Q1875.97 335.27 1875.97 341.781 M1871.18 340.374 Q1871.13 336.442 1868.97 334.098 Q1866.83 331.755 1863.29 331.755 Q1859.28 331.755 1856.86 334.02 Q1854.46 336.286 1854.1 340.4 L1871.18 340.374 Z" fill="#000000" fill-rule="nonzero" fill-opacity="1" /><path clip-path="url(#clip490)" d="M1903.03 332.822 L1903.03 317.041 L1907.82 317.041 L1907.82 357.562 L1903.03 357.562 L1903.03 353.187 Q1901.52 355.791 1899.2 357.067 Q1896.91 358.317 1893.68 358.317 Q1888.39 358.317 1885.06 354.098 Q1881.75 349.88 1881.75 343.005 Q1881.75 336.13 1885.06 331.911 Q1888.39 327.692 1893.68 327.692 Q1896.91 327.692 1899.2 328.968 Q1901.52 330.218 1903.03 332.822 M1886.7 343.005 Q1886.7 348.291 1888.86 351.312 Q1891.05 354.307 1894.85 354.307 Q1898.65 354.307 1900.84 351.312 Q1903.03 348.291 1903.03 343.005 Q1903.03 337.718 1900.84 334.723 Q1898.65 331.703 1894.85 331.703 Q1891.05 331.703 1888.86 334.723 Q1886.7 337.718 1886.7 343.005 Z" fill="#000000" fill-rule="nonzero" fill-opacity="1" /><path clip-path="url(#clip490)" d="M1917.69 328.395 L1922.48 328.395 L1922.48 357.562 L1917.69 357.562 L1917.69 328.395 M1917.69 317.041 L1922.48 317.041 L1922.48 323.109 L1917.69 323.109 L1917.69 317.041 Z" fill="#000000" fill-rule="nonzero" fill-opacity="1" /><path clip-path="url(#clip490)" d="M1945.76 342.9 Q1939.96 342.9 1937.72 344.229 Q1935.48 345.557 1935.48 348.76 Q1935.48 351.312 1937.14 352.822 Q1938.84 354.307 1941.73 354.307 Q1945.71 354.307 1948.11 351.494 Q1950.53 348.656 1950.53 343.968 L1950.53 342.9 L1945.76 342.9 M1955.32 340.921 L1955.32 357.562 L1950.53 357.562 L1950.53 353.135 Q1948.89 355.791 1946.44 357.067 Q1943.99 358.317 1940.45 358.317 Q1935.97 358.317 1933.31 355.817 Q1930.68 353.291 1930.68 349.072 Q1930.68 344.15 1933.97 341.65 Q1937.27 339.15 1943.81 339.15 L1950.53 339.15 L1950.53 338.682 Q1950.53 335.374 1948.34 333.578 Q1946.18 331.755 1942.25 331.755 Q1939.75 331.755 1937.38 332.354 Q1935.01 332.953 1932.82 334.15 L1932.82 329.723 Q1935.45 328.708 1937.92 328.213 Q1940.4 327.692 1942.74 327.692 Q1949.07 327.692 1952.19 330.973 Q1955.32 334.255 1955.32 340.921 Z" fill="#000000" fill-rule="nonzero" fill-opacity="1" /><path clip-path="url(#clip490)" d="M1989.43 339.958 L1989.43 357.562 L1984.64 357.562 L1984.64 340.114 Q1984.64 335.973 1983.03 333.916 Q1981.41 331.859 1978.18 331.859 Q1974.3 331.859 1972.06 334.333 Q1969.82 336.807 1969.82 341.078 L1969.82 357.562 L1965.01 357.562 L1965.01 328.395 L1969.82 328.395 L1969.82 332.927 Q1971.54 330.296 1973.86 328.994 Q1976.21 327.692 1979.25 327.692 Q1984.28 327.692 1986.86 330.817 Q1989.43 333.916 1989.43 339.958 Z" fill="#000000" fill-rule="nonzero" fill-opacity="1" /></svg>
