<?xml version="1.0" encoding="utf-8"?>
<svg xmlns="http://www.w3.org/2000/svg" xmlns:xlink="http://www.w3.org/1999/xlink" width="600" height="400" viewBox="0 0 2400 1600">
<defs>
  <clipPath id="clip440">
    <rect x="0" y="0" width="2400" height="1600"/>
  </clipPath>
</defs>
<path clip-path="url(#clip440)" d="M0 1600 L2400 1600 L2400 8.88178e-14 L0 8.88178e-14  Z" fill="#ffffff" fill-rule="evenodd" fill-opacity="1"/>
<defs>
  <clipPath id="clip441">
    <rect x="235" y="106" width="2118" height="1318"/>
  </clipPath>
</defs>
<path clip-path="url(#clip440)" d="M205.121 1423.18 L2352.76 1423.18 L2352.76 106.192 L205.121 106.192  Z" fill="#ffffff" fill-rule="evenodd" fill-opacity="1"/>
<defs>
  <clipPath id="clip442">
    <rect x="205" y="106" width="2149" height="1318"/>
  </clipPath>
</defs>
<polyline clip-path="url(#clip442)" style="stroke:#000000; stroke-linecap:round; stroke-linejoin:round; stroke-width:2; stroke-opacity:0.1; fill:none" points="323.245,1423.18 323.245,106.192 "/>
<polyline clip-path="url(#clip442)" style="stroke:#000000; stroke-linecap:round; stroke-linejoin:round; stroke-width:2; stroke-opacity:0.1; fill:none" points="757.651,1423.18 757.651,106.192 "/>
<polyline clip-path="url(#clip442)" style="stroke:#000000; stroke-linecap:round; stroke-linejoin:round; stroke-width:2; stroke-opacity:0.1; fill:none" points="1192.06,1423.18 1192.06,106.192 "/>
<polyline clip-path="url(#clip442)" style="stroke:#000000; stroke-linecap:round; stroke-linejoin:round; stroke-width:2; stroke-opacity:0.1; fill:none" points="1626.46,1423.18 1626.46,106.192 "/>
<polyline clip-path="url(#clip442)" style="stroke:#000000; stroke-linecap:round; stroke-linejoin:round; stroke-width:2; stroke-opacity:0.1; fill:none" points="2060.87,1423.18 2060.87,106.192 "/>
<polyline clip-path="url(#clip442)" style="stroke:#000000; stroke-linecap:round; stroke-linejoin:round; stroke-width:2; stroke-opacity:0.1; fill:none" points="205.121,1423.18 2352.76,1423.18 "/>
<polyline clip-path="url(#clip442)" style="stroke:#000000; stroke-linecap:round; stroke-linejoin:round; stroke-width:2; stroke-opacity:0.1; fill:none" points="205.121,1098 2352.76,1098 "/>
<polyline clip-path="url(#clip442)" style="stroke:#000000; stroke-linecap:round; stroke-linejoin:round; stroke-width:2; stroke-opacity:0.1; fill:none" points="205.121,772.816 2352.76,772.816 "/>
<polyline clip-path="url(#clip442)" style="stroke:#000000; stroke-linecap:round; stroke-linejoin:round; stroke-width:2; stroke-opacity:0.1; fill:none" points="205.121,447.633 2352.76,447.633 "/>
<polyline clip-path="url(#clip442)" style="stroke:#000000; stroke-linecap:round; stroke-linejoin:round; stroke-width:2; stroke-opacity:0.1; fill:none" points="205.121,122.451 2352.76,122.451 "/>
<polyline clip-path="url(#clip440)" style="stroke:#000000; stroke-linecap:round; stroke-linejoin:round; stroke-width:4; stroke-opacity:1; fill:none" points="205.121,1423.18 2352.76,1423.18 "/>
<polyline clip-path="url(#clip440)" style="stroke:#000000; stroke-linecap:round; stroke-linejoin:round; stroke-width:4; stroke-opacity:1; fill:none" points="323.245,1423.18 323.245,1404.28 "/>
<polyline clip-path="url(#clip440)" style="stroke:#000000; stroke-linecap:round; stroke-linejoin:round; stroke-width:4; stroke-opacity:1; fill:none" points="757.651,1423.18 757.651,1404.28 "/>
<polyline clip-path="url(#clip440)" style="stroke:#000000; stroke-linecap:round; stroke-linejoin:round; stroke-width:4; stroke-opacity:1; fill:none" points="1192.06,1423.18 1192.06,1404.28 "/>
<polyline clip-path="url(#clip440)" style="stroke:#000000; stroke-linecap:round; stroke-linejoin:round; stroke-width:4; stroke-opacity:1; fill:none" points="1626.46,1423.18 1626.46,1404.28 "/>
<polyline clip-path="url(#clip440)" style="stroke:#000000; stroke-linecap:round; stroke-linejoin:round; stroke-width:4; stroke-opacity:1; fill:none" points="2060.87,1423.18 2060.87,1404.28 "/>
<path clip-path="url(#clip440)" d="M286.937 1481.64 L303.256 1481.64 L303.256 1485.58 L281.312 1485.58 L281.312 1481.64 Q283.974 1478.89 288.557 1474.26 Q293.164 1469.61 294.344 1468.27 Q296.59 1465.74 297.469 1464.01 Q298.372 1462.25 298.372 1460.56 Q298.372 1457.8 296.428 1456.07 Q294.506 1454.33 291.405 1454.33 Q289.206 1454.33 286.752 1455.09 Q284.321 1455.86 281.544 1457.41 L281.544 1452.69 Q284.368 1451.55 286.821 1450.97 Q289.275 1450.39 291.312 1450.39 Q296.682 1450.39 299.877 1453.08 Q303.071 1455.77 303.071 1460.26 Q303.071 1462.39 302.261 1464.31 Q301.474 1466.2 299.368 1468.8 Q298.789 1469.47 295.687 1472.69 Q292.585 1475.88 286.937 1481.64 Z" fill="#000000" fill-rule="nonzero" fill-opacity="1" /><path clip-path="url(#clip440)" d="M313.117 1451.02 L331.474 1451.02 L331.474 1454.96 L317.4 1454.96 L317.4 1463.43 Q318.418 1463.08 319.437 1462.92 Q320.455 1462.73 321.474 1462.73 Q327.261 1462.73 330.641 1465.9 Q334.02 1469.08 334.02 1474.49 Q334.02 1480.07 330.548 1483.17 Q327.076 1486.25 320.756 1486.25 Q318.58 1486.25 316.312 1485.88 Q314.067 1485.51 311.659 1484.77 L311.659 1480.07 Q313.742 1481.2 315.965 1481.76 Q318.187 1482.32 320.664 1482.32 Q324.668 1482.32 327.006 1480.21 Q329.344 1478.1 329.344 1474.49 Q329.344 1470.88 327.006 1468.77 Q324.668 1466.67 320.664 1466.67 Q318.789 1466.67 316.914 1467.08 Q315.062 1467.5 313.117 1468.38 L313.117 1451.02 Z" fill="#000000" fill-rule="nonzero" fill-opacity="1" /><path clip-path="url(#clip440)" d="M353.233 1454.1 Q349.622 1454.1 347.793 1457.66 Q345.988 1461.2 345.988 1468.33 Q345.988 1475.44 347.793 1479.01 Q349.622 1482.55 353.233 1482.55 Q356.867 1482.55 358.673 1479.01 Q360.501 1475.44 360.501 1468.33 Q360.501 1461.2 358.673 1457.66 Q356.867 1454.1 353.233 1454.1 M353.233 1450.39 Q359.043 1450.39 362.099 1455 Q365.177 1459.58 365.177 1468.33 Q365.177 1477.06 362.099 1481.67 Q359.043 1486.25 353.233 1486.25 Q347.423 1486.25 344.344 1481.67 Q341.289 1477.06 341.289 1468.33 Q341.289 1459.58 344.344 1455 Q347.423 1450.39 353.233 1450.39 Z" fill="#000000" fill-rule="nonzero" fill-opacity="1" /><path clip-path="url(#clip440)" d="M717.269 1451.02 L735.626 1451.02 L735.626 1454.96 L721.552 1454.96 L721.552 1463.43 Q722.57 1463.08 723.589 1462.92 Q724.607 1462.73 725.626 1462.73 Q731.413 1462.73 734.792 1465.9 Q738.172 1469.08 738.172 1474.49 Q738.172 1480.07 734.7 1483.17 Q731.227 1486.25 724.908 1486.25 Q722.732 1486.25 720.464 1485.88 Q718.218 1485.51 715.811 1484.77 L715.811 1480.07 Q717.894 1481.2 720.116 1481.76 Q722.339 1482.32 724.815 1482.32 Q728.82 1482.32 731.158 1480.21 Q733.496 1478.1 733.496 1474.49 Q733.496 1470.88 731.158 1468.77 Q728.82 1466.67 724.815 1466.67 Q722.94 1466.67 721.066 1467.08 Q719.214 1467.5 717.269 1468.38 L717.269 1451.02 Z" fill="#000000" fill-rule="nonzero" fill-opacity="1" /><path clip-path="url(#clip440)" d="M757.385 1454.1 Q753.774 1454.1 751.945 1457.66 Q750.139 1461.2 750.139 1468.33 Q750.139 1475.44 751.945 1479.01 Q753.774 1482.55 757.385 1482.55 Q761.019 1482.55 762.825 1479.01 Q764.653 1475.44 764.653 1468.33 Q764.653 1461.2 762.825 1457.66 Q761.019 1454.1 757.385 1454.1 M757.385 1450.39 Q763.195 1450.39 766.25 1455 Q769.329 1459.58 769.329 1468.33 Q769.329 1477.06 766.25 1481.67 Q763.195 1486.25 757.385 1486.25 Q751.575 1486.25 748.496 1481.67 Q745.44 1477.06 745.44 1468.33 Q745.44 1459.58 748.496 1455 Q751.575 1450.39 757.385 1450.39 Z" fill="#000000" fill-rule="nonzero" fill-opacity="1" /><path clip-path="url(#clip440)" d="M787.547 1454.1 Q783.936 1454.1 782.107 1457.66 Q780.301 1461.2 780.301 1468.33 Q780.301 1475.44 782.107 1479.01 Q783.936 1482.55 787.547 1482.55 Q791.181 1482.55 792.986 1479.01 Q794.815 1475.44 794.815 1468.33 Q794.815 1461.2 792.986 1457.66 Q791.181 1454.1 787.547 1454.1 M787.547 1450.39 Q793.357 1450.39 796.412 1455 Q799.491 1459.58 799.491 1468.33 Q799.491 1477.06 796.412 1481.67 Q793.357 1486.25 787.547 1486.25 Q781.736 1486.25 778.658 1481.67 Q775.602 1477.06 775.602 1468.33 Q775.602 1459.58 778.658 1455 Q781.736 1450.39 787.547 1450.39 Z" fill="#000000" fill-rule="nonzero" fill-opacity="1" /><path clip-path="url(#clip440)" d="M1150.33 1451.02 L1172.55 1451.02 L1172.55 1453.01 L1160.01 1485.58 L1155.12 1485.58 L1166.93 1454.96 L1150.33 1454.96 L1150.33 1451.02 Z" fill="#000000" fill-rule="nonzero" fill-opacity="1" /><path clip-path="url(#clip440)" d="M1181.72 1451.02 L1200.08 1451.02 L1200.08 1454.96 L1186 1454.96 L1186 1463.43 Q1187.02 1463.08 1188.04 1462.92 Q1189.06 1462.73 1190.08 1462.73 Q1195.87 1462.73 1199.24 1465.9 Q1202.62 1469.08 1202.62 1474.49 Q1202.62 1480.07 1199.15 1483.17 Q1195.68 1486.25 1189.36 1486.25 Q1187.18 1486.25 1184.92 1485.88 Q1182.67 1485.51 1180.26 1484.77 L1180.26 1480.07 Q1182.35 1481.2 1184.57 1481.76 Q1186.79 1482.32 1189.27 1482.32 Q1193.27 1482.32 1195.61 1480.21 Q1197.95 1478.1 1197.95 1474.49 Q1197.95 1470.88 1195.61 1468.77 Q1193.27 1466.67 1189.27 1466.67 Q1187.39 1466.67 1185.52 1467.08 Q1183.67 1467.5 1181.72 1468.38 L1181.72 1451.02 Z" fill="#000000" fill-rule="nonzero" fill-opacity="1" /><path clip-path="url(#clip440)" d="M1221.84 1454.1 Q1218.23 1454.1 1216.4 1457.66 Q1214.59 1461.2 1214.59 1468.33 Q1214.59 1475.44 1216.4 1479.01 Q1218.23 1482.55 1221.84 1482.55 Q1225.47 1482.55 1227.28 1479.01 Q1229.11 1475.44 1229.11 1468.33 Q1229.11 1461.2 1227.28 1457.66 Q1225.47 1454.1 1221.84 1454.1 M1221.84 1450.39 Q1227.65 1450.39 1230.7 1455 Q1233.78 1459.58 1233.78 1468.33 Q1233.78 1477.06 1230.7 1481.67 Q1227.65 1486.25 1221.84 1486.25 Q1216.03 1486.25 1212.95 1481.67 Q1209.89 1477.06 1209.89 1468.33 Q1209.89 1459.58 1212.95 1455 Q1216.03 1450.39 1221.84 1450.39 Z" fill="#000000" fill-rule="nonzero" fill-opacity="1" /><path clip-path="url(#clip440)" d="M1570.99 1481.64 L1578.63 1481.64 L1578.63 1455.28 L1570.32 1456.95 L1570.32 1452.69 L1578.58 1451.02 L1583.26 1451.02 L1583.26 1481.64 L1590.9 1481.64 L1590.9 1485.58 L1570.99 1485.58 L1570.99 1481.64 Z" fill="#000000" fill-rule="nonzero" fill-opacity="1" /><path clip-path="url(#clip440)" d="M1610.34 1454.1 Q1606.73 1454.1 1604.9 1457.66 Q1603.1 1461.2 1603.1 1468.33 Q1603.1 1475.44 1604.9 1479.01 Q1606.73 1482.55 1610.34 1482.55 Q1613.98 1482.55 1615.78 1479.01 Q1617.61 1475.44 1617.61 1468.33 Q1617.61 1461.2 1615.78 1457.66 Q1613.98 1454.1 1610.34 1454.1 M1610.34 1450.39 Q1616.15 1450.39 1619.21 1455 Q1622.29 1459.58 1622.29 1468.33 Q1622.29 1477.06 1619.21 1481.67 Q1616.15 1486.25 1610.34 1486.25 Q1604.53 1486.25 1601.45 1481.67 Q1598.4 1477.06 1598.4 1468.33 Q1598.4 1459.58 1601.45 1455 Q1604.53 1450.39 1610.34 1450.39 Z" fill="#000000" fill-rule="nonzero" fill-opacity="1" /><path clip-path="url(#clip440)" d="M1640.5 1454.1 Q1636.89 1454.1 1635.06 1457.66 Q1633.26 1461.2 1633.26 1468.33 Q1633.26 1475.44 1635.06 1479.01 Q1636.89 1482.55 1640.5 1482.55 Q1644.14 1482.55 1645.94 1479.01 Q1647.77 1475.44 1647.77 1468.33 Q1647.77 1461.2 1645.94 1457.66 Q1644.14 1454.1 1640.5 1454.1 M1640.5 1450.39 Q1646.31 1450.39 1649.37 1455 Q1652.45 1459.58 1652.45 1468.33 Q1652.45 1477.06 1649.37 1481.67 Q1646.31 1486.25 1640.5 1486.25 Q1634.69 1486.25 1631.61 1481.67 Q1628.56 1477.06 1628.56 1468.33 Q1628.56 1459.58 1631.61 1455 Q1634.69 1450.39 1640.5 1450.39 Z" fill="#000000" fill-rule="nonzero" fill-opacity="1" /><path clip-path="url(#clip440)" d="M1670.66 1454.1 Q1667.05 1454.1 1665.22 1457.66 Q1663.42 1461.2 1663.42 1468.33 Q1663.42 1475.44 1665.22 1479.01 Q1667.05 1482.55 1670.66 1482.55 Q1674.3 1482.55 1676.1 1479.01 Q1677.93 1475.44 1677.93 1468.33 Q1677.93 1461.2 1676.1 1457.66 Q1674.3 1454.1 1670.66 1454.1 M1670.66 1450.39 Q1676.47 1450.39 1679.53 1455 Q1682.61 1459.58 1682.61 1468.33 Q1682.61 1477.06 1679.53 1481.67 Q1676.47 1486.25 1670.66 1486.25 Q1664.85 1486.25 1661.78 1481.67 Q1658.72 1477.06 1658.72 1468.33 Q1658.72 1459.58 1661.78 1455 Q1664.85 1450.39 1670.66 1450.39 Z" fill="#000000" fill-rule="nonzero" fill-opacity="1" /><path clip-path="url(#clip440)" d="M2005.4 1481.64 L2013.03 1481.64 L2013.03 1455.28 L2004.72 1456.95 L2004.72 1452.69 L2012.99 1451.02 L2017.66 1451.02 L2017.66 1481.64 L2025.3 1481.64 L2025.3 1485.58 L2005.4 1485.58 L2005.4 1481.64 Z" fill="#000000" fill-rule="nonzero" fill-opacity="1" /><path clip-path="url(#clip440)" d="M2038.77 1481.64 L2055.09 1481.64 L2055.09 1485.58 L2033.15 1485.58 L2033.15 1481.64 Q2035.81 1478.89 2040.4 1474.26 Q2045 1469.61 2046.18 1468.27 Q2048.43 1465.74 2049.31 1464.01 Q2050.21 1462.25 2050.21 1460.56 Q2050.21 1457.8 2048.27 1456.07 Q2046.34 1454.33 2043.24 1454.33 Q2041.04 1454.33 2038.59 1455.09 Q2036.16 1455.86 2033.38 1457.41 L2033.38 1452.69 Q2036.21 1451.55 2038.66 1450.97 Q2041.11 1450.39 2043.15 1450.39 Q2048.52 1450.39 2051.71 1453.08 Q2054.91 1455.77 2054.91 1460.26 Q2054.91 1462.39 2054.1 1464.31 Q2053.31 1466.2 2051.21 1468.8 Q2050.63 1469.47 2047.52 1472.69 Q2044.42 1475.88 2038.77 1481.64 Z" fill="#000000" fill-rule="nonzero" fill-opacity="1" /><path clip-path="url(#clip440)" d="M2064.96 1451.02 L2083.31 1451.02 L2083.31 1454.96 L2069.24 1454.96 L2069.24 1463.43 Q2070.26 1463.08 2071.27 1462.92 Q2072.29 1462.73 2073.31 1462.73 Q2079.1 1462.73 2082.48 1465.9 Q2085.86 1469.08 2085.86 1474.49 Q2085.86 1480.07 2082.39 1483.17 Q2078.91 1486.25 2072.59 1486.25 Q2070.42 1486.25 2068.15 1485.88 Q2065.9 1485.51 2063.5 1484.77 L2063.5 1480.07 Q2065.58 1481.2 2067.8 1481.76 Q2070.02 1482.32 2072.5 1482.32 Q2076.51 1482.32 2078.84 1480.21 Q2081.18 1478.1 2081.18 1474.49 Q2081.18 1470.88 2078.84 1468.77 Q2076.51 1466.67 2072.5 1466.67 Q2070.63 1466.67 2068.75 1467.08 Q2066.9 1467.5 2064.96 1468.38 L2064.96 1451.02 Z" fill="#000000" fill-rule="nonzero" fill-opacity="1" /><path clip-path="url(#clip440)" d="M2105.07 1454.1 Q2101.46 1454.1 2099.63 1457.66 Q2097.83 1461.2 2097.83 1468.33 Q2097.83 1475.44 2099.63 1479.01 Q2101.46 1482.55 2105.07 1482.55 Q2108.71 1482.55 2110.51 1479.01 Q2112.34 1475.44 2112.34 1468.33 Q2112.34 1461.2 2110.51 1457.66 Q2108.71 1454.1 2105.07 1454.1 M2105.07 1450.39 Q2110.88 1450.39 2113.94 1455 Q2117.02 1459.58 2117.02 1468.33 Q2117.02 1477.06 2113.94 1481.67 Q2110.88 1486.25 2105.07 1486.25 Q2099.26 1486.25 2096.18 1481.67 Q2093.13 1477.06 2093.13 1468.33 Q2093.13 1459.58 2096.18 1455 Q2099.26 1450.39 2105.07 1450.39 Z" fill="#000000" fill-rule="nonzero" fill-opacity="1" /><path clip-path="url(#clip440)" d="M1051.36 1520.52 L1091.56 1520.52 L1091.56 1525.93 L1074.69 1525.93 L1074.69 1568.04 L1068.23 1568.04 L1068.23 1525.93 L1051.36 1525.93 L1051.36 1520.52 Z" fill="#000000" fill-rule="nonzero" fill-opacity="1" /><path clip-path="url(#clip440)" d="M1116.93 1548.76 L1116.93 1551.62 L1090 1551.62 Q1090.39 1557.67 1093.63 1560.85 Q1096.91 1564 1102.74 1564 Q1106.11 1564 1109.26 1563.17 Q1112.44 1562.35 1115.56 1560.69 L1115.56 1566.23 Q1112.41 1567.57 1109.1 1568.27 Q1105.79 1568.97 1102.39 1568.97 Q1093.86 1568.97 1088.86 1564 Q1083.89 1559.04 1083.89 1550.57 Q1083.89 1541.82 1088.6 1536.69 Q1093.35 1531.54 1101.37 1531.54 Q1108.56 1531.54 1112.73 1536.18 Q1116.93 1540.8 1116.93 1548.76 M1111.07 1547.04 Q1111.01 1542.23 1108.37 1539.37 Q1105.76 1536.5 1101.43 1536.5 Q1096.53 1536.5 1093.57 1539.27 Q1090.64 1542.04 1090.2 1547.07 L1111.07 1547.04 Z" fill="#000000" fill-rule="nonzero" fill-opacity="1" /><path clip-path="url(#clip440)" d="M1147.2 1537.87 Q1146.21 1537.3 1145.04 1537.04 Q1143.89 1536.76 1142.49 1536.76 Q1137.52 1536.76 1134.85 1540 Q1132.21 1543.22 1132.21 1549.27 L1132.21 1568.04 L1126.32 1568.04 L1126.32 1532.4 L1132.21 1532.4 L1132.21 1537.93 Q1134.05 1534.69 1137.02 1533.13 Q1139.98 1531.54 1144.21 1531.54 Q1144.81 1531.54 1145.55 1531.63 Q1146.28 1531.7 1147.17 1531.85 L1147.2 1537.87 Z" fill="#000000" fill-rule="nonzero" fill-opacity="1" /><path clip-path="url(#clip440)" d="M1179.95 1539.24 Q1182.15 1535.29 1185.2 1533.41 Q1188.26 1531.54 1192.4 1531.54 Q1197.97 1531.54 1200.99 1535.45 Q1204.01 1539.33 1204.01 1546.53 L1204.01 1568.04 L1198.13 1568.04 L1198.13 1546.72 Q1198.13 1541.59 1196.31 1539.11 Q1194.5 1536.63 1190.77 1536.63 Q1186.22 1536.63 1183.58 1539.65 Q1180.94 1542.68 1180.94 1547.9 L1180.94 1568.04 L1175.05 1568.04 L1175.05 1546.72 Q1175.05 1541.56 1173.24 1539.11 Q1171.42 1536.63 1167.63 1536.63 Q1163.15 1536.63 1160.5 1539.68 Q1157.86 1542.71 1157.86 1547.9 L1157.86 1568.04 L1151.97 1568.04 L1151.97 1532.4 L1157.86 1532.4 L1157.86 1537.93 Q1159.87 1534.66 1162.67 1533.1 Q1165.47 1531.54 1169.32 1531.54 Q1173.2 1531.54 1175.91 1533.51 Q1178.65 1535.48 1179.95 1539.24 Z" fill="#000000" fill-rule="nonzero" fill-opacity="1" /><path clip-path="url(#clip440)" d="M1215.7 1532.4 L1221.55 1532.4 L1221.55 1568.04 L1215.7 1568.04 L1215.7 1532.4 M1215.7 1518.52 L1221.55 1518.52 L1221.55 1525.93 L1215.7 1525.93 L1215.7 1518.52 Z" fill="#000000" fill-rule="nonzero" fill-opacity="1" /><path clip-path="url(#clip440)" d="M1263.44 1546.53 L1263.44 1568.04 L1257.58 1568.04 L1257.58 1546.72 Q1257.58 1541.66 1255.61 1539.14 Q1253.63 1536.63 1249.69 1536.63 Q1244.95 1536.63 1242.21 1539.65 Q1239.47 1542.68 1239.47 1547.9 L1239.47 1568.04 L1233.58 1568.04 L1233.58 1532.4 L1239.47 1532.4 L1239.47 1537.93 Q1241.57 1534.72 1244.4 1533.13 Q1247.27 1531.54 1250.99 1531.54 Q1257.14 1531.54 1260.29 1535.36 Q1263.44 1539.14 1263.44 1546.53 Z" fill="#000000" fill-rule="nonzero" fill-opacity="1" /><path clip-path="url(#clip440)" d="M1291.32 1550.12 Q1284.22 1550.12 1281.48 1551.75 Q1278.75 1553.37 1278.75 1557.29 Q1278.75 1560.4 1280.78 1562.25 Q1282.85 1564.07 1286.39 1564.07 Q1291.26 1564.07 1294.18 1560.63 Q1297.14 1557.16 1297.14 1551.43 L1297.14 1550.12 L1291.32 1550.12 M1303 1547.71 L1303 1568.04 L1297.14 1568.04 L1297.14 1562.63 Q1295.14 1565.88 1292.15 1567.44 Q1289.16 1568.97 1284.83 1568.97 Q1279.35 1568.97 1276.11 1565.91 Q1272.89 1562.82 1272.89 1557.67 Q1272.89 1551.65 1276.9 1548.6 Q1280.94 1545.54 1288.93 1545.54 L1297.14 1545.54 L1297.14 1544.97 Q1297.14 1540.93 1294.47 1538.73 Q1291.83 1536.5 1287.02 1536.5 Q1283.97 1536.5 1281.07 1537.23 Q1278.17 1537.97 1275.5 1539.43 L1275.5 1534.02 Q1278.72 1532.78 1281.74 1532.17 Q1284.76 1531.54 1287.63 1531.54 Q1295.36 1531.54 1299.18 1535.55 Q1303 1539.56 1303 1547.71 Z" fill="#000000" fill-rule="nonzero" fill-opacity="1" /><path clip-path="url(#clip440)" d="M1315.06 1518.52 L1320.92 1518.52 L1320.92 1568.04 L1315.06 1568.04 L1315.06 1518.52 Z" fill="#000000" fill-rule="nonzero" fill-opacity="1" /><path clip-path="url(#clip440)" d="M1359.56 1562.7 L1359.56 1581.6 L1353.67 1581.6 L1353.67 1532.4 L1359.56 1532.4 L1359.56 1537.81 Q1361.41 1534.62 1364.21 1533.1 Q1367.04 1531.54 1370.95 1531.54 Q1377.45 1531.54 1381.49 1536.69 Q1385.56 1541.85 1385.56 1550.25 Q1385.56 1558.65 1381.49 1563.81 Q1377.45 1568.97 1370.95 1568.97 Q1367.04 1568.97 1364.21 1567.44 Q1361.41 1565.88 1359.56 1562.7 M1379.48 1550.25 Q1379.48 1543.79 1376.81 1540.13 Q1374.17 1536.44 1369.52 1536.44 Q1364.88 1536.44 1362.2 1540.13 Q1359.56 1543.79 1359.56 1550.25 Q1359.56 1556.71 1362.2 1560.4 Q1364.88 1564.07 1369.52 1564.07 Q1374.17 1564.07 1376.81 1560.4 Q1379.48 1556.71 1379.48 1550.25 Z" fill="#000000" fill-rule="nonzero" fill-opacity="1" /><path clip-path="url(#clip440)" d="M1415.93 1537.87 Q1414.94 1537.3 1413.76 1537.04 Q1412.62 1536.76 1411.22 1536.76 Q1406.25 1536.76 1403.58 1540 Q1400.94 1543.22 1400.94 1549.27 L1400.94 1568.04 L1395.05 1568.04 L1395.05 1532.4 L1400.94 1532.4 L1400.94 1537.93 Q1402.78 1534.69 1405.74 1533.13 Q1408.7 1531.54 1412.94 1531.54 Q1413.54 1531.54 1414.27 1531.63 Q1415.01 1531.7 1415.9 1531.85 L1415.93 1537.87 Z" fill="#000000" fill-rule="nonzero" fill-opacity="1" /><path clip-path="url(#clip440)" d="M1422.07 1532.4 L1427.93 1532.4 L1427.93 1568.04 L1422.07 1568.04 L1422.07 1532.4 M1422.07 1518.52 L1427.93 1518.52 L1427.93 1525.93 L1422.07 1525.93 L1422.07 1518.52 Z" fill="#000000" fill-rule="nonzero" fill-opacity="1" /><path clip-path="url(#clip440)" d="M1465.84 1533.76 L1465.84 1539.24 Q1463.35 1537.87 1460.84 1537.2 Q1458.36 1536.5 1455.81 1536.5 Q1450.11 1536.5 1446.96 1540.13 Q1443.81 1543.73 1443.81 1550.25 Q1443.81 1556.78 1446.96 1560.4 Q1450.11 1564 1455.81 1564 Q1458.36 1564 1460.84 1563.33 Q1463.35 1562.63 1465.84 1561.26 L1465.84 1566.68 Q1463.38 1567.82 1460.74 1568.39 Q1458.13 1568.97 1455.17 1568.97 Q1447.12 1568.97 1442.38 1563.91 Q1437.64 1558.85 1437.64 1550.25 Q1437.64 1541.53 1442.41 1536.53 Q1447.22 1531.54 1455.55 1531.54 Q1458.26 1531.54 1460.84 1532.11 Q1463.42 1532.65 1465.84 1533.76 Z" fill="#000000" fill-rule="nonzero" fill-opacity="1" /><path clip-path="url(#clip440)" d="M1506.51 1548.76 L1506.51 1551.62 L1479.59 1551.62 Q1479.97 1557.67 1483.21 1560.85 Q1486.49 1564 1492.32 1564 Q1495.69 1564 1498.84 1563.17 Q1502.02 1562.35 1505.14 1560.69 L1505.14 1566.23 Q1501.99 1567.57 1498.68 1568.27 Q1495.37 1568.97 1491.97 1568.97 Q1483.44 1568.97 1478.44 1564 Q1473.47 1559.04 1473.47 1550.57 Q1473.47 1541.82 1478.19 1536.69 Q1482.93 1531.54 1490.95 1531.54 Q1498.14 1531.54 1502.31 1536.18 Q1506.51 1540.8 1506.51 1548.76 M1500.66 1547.04 Q1500.59 1542.23 1497.95 1539.37 Q1495.34 1536.5 1491.01 1536.5 Q1486.11 1536.5 1483.15 1539.27 Q1480.22 1542.04 1479.78 1547.07 L1500.66 1547.04 Z" fill="#000000" fill-rule="nonzero" fill-opacity="1" /><polyline clip-path="url(#clip440)" style="stroke:#000000; stroke-linecap:round; stroke-linejoin:round; stroke-width:4; stroke-opacity:1; fill:none" points="205.121,1423.18 205.121,106.192 "/>
<polyline clip-path="url(#clip440)" style="stroke:#000000; stroke-linecap:round; stroke-linejoin:round; stroke-width:4; stroke-opacity:1; fill:none" points="205.121,1423.18 224.019,1423.18 "/>
<polyline clip-path="url(#clip440)" style="stroke:#000000; stroke-linecap:round; stroke-linejoin:round; stroke-width:4; stroke-opacity:1; fill:none" points="205.121,1098 224.019,1098 "/>
<polyline clip-path="url(#clip440)" style="stroke:#000000; stroke-linecap:round; stroke-linejoin:round; stroke-width:4; stroke-opacity:1; fill:none" points="205.121,772.816 224.019,772.816 "/>
<polyline clip-path="url(#clip440)" style="stroke:#000000; stroke-linecap:round; stroke-linejoin:round; stroke-width:4; stroke-opacity:1; fill:none" points="205.121,447.633 224.019,447.633 "/>
<polyline clip-path="url(#clip440)" style="stroke:#000000; stroke-linecap:round; stroke-linejoin:round; stroke-width:4; stroke-opacity:1; fill:none" points="205.121,122.451 224.019,122.451 "/>
<path clip-path="url(#clip440)" d="M157.177 1408.98 Q153.566 1408.98 151.737 1412.54 Q149.931 1416.08 149.931 1423.21 Q149.931 1430.32 151.737 1433.89 Q153.566 1437.43 157.177 1437.43 Q160.811 1437.43 162.616 1433.89 Q164.445 1430.32 164.445 1423.21 Q164.445 1416.08 162.616 1412.54 Q160.811 1408.98 157.177 1408.98 M157.177 1405.27 Q162.987 1405.27 166.042 1409.88 Q169.121 1414.46 169.121 1423.21 Q169.121 1431.94 166.042 1436.55 Q162.987 1441.13 157.177 1441.13 Q151.366 1441.13 148.288 1436.55 Q145.232 1431.94 145.232 1423.21 Q145.232 1414.46 148.288 1409.88 Q151.366 1405.27 157.177 1405.27 Z" fill="#000000" fill-rule="nonzero" fill-opacity="1" /><path clip-path="url(#clip440)" d="M121.043 1111.34 L137.362 1111.34 L137.362 1115.28 L115.418 1115.28 L115.418 1111.34 Q118.08 1108.59 122.663 1103.96 Q127.269 1099.31 128.45 1097.96 Q130.695 1095.44 131.575 1093.7 Q132.478 1091.94 132.478 1090.25 Q132.478 1087.5 130.533 1085.76 Q128.612 1084.03 125.51 1084.03 Q123.311 1084.03 120.857 1084.79 Q118.427 1085.56 115.649 1087.11 L115.649 1082.38 Q118.473 1081.25 120.927 1080.67 Q123.38 1080.09 125.418 1080.09 Q130.788 1080.09 133.982 1082.78 Q137.177 1085.46 137.177 1089.95 Q137.177 1092.08 136.367 1094 Q135.579 1095.9 133.473 1098.5 Q132.894 1099.17 129.792 1102.38 Q126.691 1105.58 121.043 1111.34 Z" fill="#000000" fill-rule="nonzero" fill-opacity="1" /><path clip-path="url(#clip440)" d="M157.177 1083.8 Q153.566 1083.8 151.737 1087.36 Q149.931 1090.9 149.931 1098.03 Q149.931 1105.14 151.737 1108.7 Q153.566 1112.25 157.177 1112.25 Q160.811 1112.25 162.616 1108.7 Q164.445 1105.14 164.445 1098.03 Q164.445 1090.9 162.616 1087.36 Q160.811 1083.8 157.177 1083.8 M157.177 1080.09 Q162.987 1080.09 166.042 1084.7 Q169.121 1089.28 169.121 1098.03 Q169.121 1106.76 166.042 1111.37 Q162.987 1115.95 157.177 1115.95 Q151.366 1115.95 148.288 1111.37 Q145.232 1106.76 145.232 1098.03 Q145.232 1089.28 148.288 1084.7 Q151.366 1080.09 157.177 1080.09 Z" fill="#000000" fill-rule="nonzero" fill-opacity="1" /><path clip-path="url(#clip440)" d="M129.862 759.61 L118.056 778.059 L129.862 778.059 L129.862 759.61 M128.635 755.536 L134.515 755.536 L134.515 778.059 L139.445 778.059 L139.445 781.947 L134.515 781.947 L134.515 790.096 L129.862 790.096 L129.862 781.947 L114.26 781.947 L114.26 777.434 L128.635 755.536 Z" fill="#000000" fill-rule="nonzero" fill-opacity="1" /><path clip-path="url(#clip440)" d="M157.177 758.614 Q153.566 758.614 151.737 762.179 Q149.931 765.721 149.931 772.85 Q149.931 779.957 151.737 783.521 Q153.566 787.063 157.177 787.063 Q160.811 787.063 162.616 783.521 Q164.445 779.957 164.445 772.85 Q164.445 765.721 162.616 762.179 Q160.811 758.614 157.177 758.614 M157.177 754.911 Q162.987 754.911 166.042 759.517 Q169.121 764.1 169.121 772.85 Q169.121 781.577 166.042 786.184 Q162.987 790.767 157.177 790.767 Q151.366 790.767 148.288 786.184 Q145.232 781.577 145.232 772.85 Q145.232 764.1 148.288 759.517 Q151.366 754.911 157.177 754.911 Z" fill="#000000" fill-rule="nonzero" fill-opacity="1" /><path clip-path="url(#clip440)" d="M127.593 445.77 Q124.445 445.77 122.593 447.923 Q120.765 450.076 120.765 453.825 Q120.765 457.552 122.593 459.728 Q124.445 461.881 127.593 461.881 Q130.742 461.881 132.57 459.728 Q134.422 457.552 134.422 453.825 Q134.422 450.076 132.57 447.923 Q130.742 445.77 127.593 445.77 M136.876 431.117 L136.876 435.377 Q135.117 434.543 133.311 434.103 Q131.529 433.664 129.769 433.664 Q125.14 433.664 122.686 436.789 Q120.255 439.914 119.908 446.233 Q121.274 444.219 123.334 443.154 Q125.394 442.066 127.871 442.066 Q133.08 442.066 136.089 445.238 Q139.121 448.386 139.121 453.825 Q139.121 459.15 135.973 462.367 Q132.825 465.585 127.593 465.585 Q121.598 465.585 118.427 461.001 Q115.256 456.395 115.256 447.668 Q115.256 439.474 119.144 434.613 Q123.033 429.728 129.584 429.728 Q131.343 429.728 133.126 430.076 Q134.931 430.423 136.876 431.117 Z" fill="#000000" fill-rule="nonzero" fill-opacity="1" /><path clip-path="url(#clip440)" d="M157.177 433.432 Q153.566 433.432 151.737 436.997 Q149.931 440.539 149.931 447.668 Q149.931 454.775 151.737 458.339 Q153.566 461.881 157.177 461.881 Q160.811 461.881 162.616 458.339 Q164.445 454.775 164.445 447.668 Q164.445 440.539 162.616 436.997 Q160.811 433.432 157.177 433.432 M157.177 429.728 Q162.987 429.728 166.042 434.335 Q169.121 438.918 169.121 447.668 Q169.121 456.395 166.042 461.001 Q162.987 465.585 157.177 465.585 Q151.366 465.585 148.288 461.001 Q145.232 456.395 145.232 447.668 Q145.232 438.918 148.288 434.335 Q151.366 429.728 157.177 429.728 Z" fill="#000000" fill-rule="nonzero" fill-opacity="1" /><path clip-path="url(#clip440)" d="M127.015 123.319 Q123.681 123.319 121.76 125.102 Q119.862 126.884 119.862 130.009 Q119.862 133.134 121.76 134.916 Q123.681 136.699 127.015 136.699 Q130.348 136.699 132.269 134.916 Q134.191 133.111 134.191 130.009 Q134.191 126.884 132.269 125.102 Q130.371 123.319 127.015 123.319 M122.339 121.329 Q119.33 120.588 117.64 118.528 Q115.973 116.467 115.973 113.505 Q115.973 109.361 118.913 106.954 Q121.876 104.546 127.015 104.546 Q132.177 104.546 135.117 106.954 Q138.056 109.361 138.056 113.505 Q138.056 116.467 136.367 118.528 Q134.7 120.588 131.714 121.329 Q135.093 122.116 136.968 124.407 Q138.867 126.699 138.867 130.009 Q138.867 135.032 135.788 137.717 Q132.732 140.403 127.015 140.403 Q121.297 140.403 118.218 137.717 Q115.163 135.032 115.163 130.009 Q115.163 126.699 117.061 124.407 Q118.959 122.116 122.339 121.329 M120.626 113.944 Q120.626 116.63 122.293 118.134 Q123.982 119.639 127.015 119.639 Q130.024 119.639 131.714 118.134 Q133.427 116.63 133.427 113.944 Q133.427 111.259 131.714 109.755 Q130.024 108.25 127.015 108.25 Q123.982 108.25 122.293 109.755 Q120.626 111.259 120.626 113.944 Z" fill="#000000" fill-rule="nonzero" fill-opacity="1" /><path clip-path="url(#clip440)" d="M157.177 108.25 Q153.566 108.25 151.737 111.815 Q149.931 115.356 149.931 122.486 Q149.931 129.592 151.737 133.157 Q153.566 136.699 157.177 136.699 Q160.811 136.699 162.616 133.157 Q164.445 129.592 164.445 122.486 Q164.445 115.356 162.616 111.815 Q160.811 108.25 157.177 108.25 M157.177 104.546 Q162.987 104.546 166.042 109.153 Q169.121 113.736 169.121 122.486 Q169.121 131.213 166.042 135.819 Q162.987 140.403 157.177 140.403 Q151.366 140.403 148.288 135.819 Q145.232 131.213 145.232 122.486 Q145.232 113.736 148.288 109.153 Q151.366 104.546 157.177 104.546 Z" fill="#000000" fill-rule="nonzero" fill-opacity="1" /><path clip-path="url(#clip440)" d="M20.1444 820.545 L26.9239 820.545 Q23.9002 823.792 22.4043 827.484 Q20.9083 831.144 20.9083 835.282 Q20.9083 843.43 25.9054 847.758 Q30.8707 852.087 40.2919 852.087 Q49.6813 852.087 54.6784 847.758 Q59.6436 843.43 59.6436 835.282 Q59.6436 831.144 58.1477 827.484 Q56.6518 823.792 53.6281 820.545 L60.3439 820.545 Q62.6355 823.919 63.7814 827.706 Q64.9272 831.462 64.9272 835.664 Q64.9272 846.453 58.3387 852.66 Q51.7183 858.867 40.2919 858.867 Q28.8336 858.867 22.2451 852.66 Q15.6248 846.453 15.6248 835.664 Q15.6248 831.399 16.7706 827.643 Q17.8846 823.855 20.1444 820.545 Z" fill="#000000" fill-rule="nonzero" fill-opacity="1" /><path clip-path="url(#clip440)" d="M32.4621 797.056 Q32.4621 801.766 36.1542 804.503 Q39.8145 807.241 46.212 807.241 Q52.6095 807.241 56.3017 804.535 Q59.9619 801.798 59.9619 797.056 Q59.9619 792.377 56.2698 789.64 Q52.5777 786.902 46.212 786.902 Q39.8781 786.902 36.186 789.64 Q32.4621 792.377 32.4621 797.056 M27.4968 797.056 Q27.4968 789.417 32.4621 785.056 Q37.4273 780.696 46.212 780.696 Q54.9649 780.696 59.9619 785.056 Q64.9272 789.417 64.9272 797.056 Q64.9272 804.726 59.9619 809.087 Q54.9649 813.415 46.212 813.415 Q37.4273 813.415 32.4621 809.087 Q27.4968 804.726 27.4968 797.056 Z" fill="#000000" fill-rule="nonzero" fill-opacity="1" /><path clip-path="url(#clip440)" d="M49.9359 771.593 L28.3562 771.593 L28.3562 765.736 L49.7131 765.736 Q54.7739 765.736 57.3202 763.763 Q59.8346 761.79 59.8346 757.843 Q59.8346 753.1 56.8109 750.363 Q53.7872 747.594 48.5673 747.594 L28.3562 747.594 L28.3562 741.738 L64.0042 741.738 L64.0042 747.594 L58.5296 747.594 Q61.7762 749.727 63.3676 752.559 Q64.9272 755.36 64.9272 759.084 Q64.9272 765.227 61.1078 768.41 Q57.2883 771.593 49.9359 771.593 M27.4968 756.856 L27.4968 756.856 Z" fill="#000000" fill-rule="nonzero" fill-opacity="1" /><path clip-path="url(#clip440)" d="M42.4881 700.042 L64.0042 700.042 L64.0042 705.899 L42.679 705.899 Q37.6183 705.899 35.1038 707.872 Q32.5894 709.845 32.5894 713.792 Q32.5894 718.535 35.6131 721.272 Q38.6368 724.009 43.8567 724.009 L64.0042 724.009 L64.0042 729.897 L28.3562 729.897 L28.3562 724.009 L33.8944 724.009 Q30.6797 721.908 29.0883 719.076 Q27.4968 716.211 27.4968 712.487 Q27.4968 706.344 31.3163 703.193 Q35.1038 700.042 42.4881 700.042 Z" fill="#000000" fill-rule="nonzero" fill-opacity="1" /><path clip-path="url(#clip440)" d="M18.2347 682.568 L28.3562 682.568 L28.3562 670.505 L32.9077 670.505 L32.9077 682.568 L52.2594 682.568 Q56.6199 682.568 57.8613 681.391 Q59.1026 680.181 59.1026 676.521 L59.1026 670.505 L64.0042 670.505 L64.0042 676.521 Q64.0042 683.3 61.4897 685.879 Q58.9434 688.457 52.2594 688.457 L32.9077 688.457 L32.9077 692.753 L28.3562 692.753 L28.3562 688.457 L18.2347 688.457 L18.2347 682.568 Z" fill="#000000" fill-rule="nonzero" fill-opacity="1" /><path clip-path="url(#clip440)" d="M757.254 10.0578 L757.254 15.758 Q753.927 14.1666 750.975 13.3853 Q748.024 12.6041 745.275 12.6041 Q740.501 12.6041 737.897 14.4559 Q735.322 16.3078 735.322 19.7221 Q735.322 22.5867 737.029 24.0624 Q738.765 25.5091 743.568 26.4061 L747.098 27.1295 Q753.637 28.3737 756.733 31.5276 Q759.858 34.6526 759.858 39.9188 Q759.858 46.1977 755.634 49.4384 Q751.438 52.6791 743.308 52.6791 Q740.241 52.6791 736.768 51.9847 Q733.325 51.2902 729.621 49.9303 L729.621 43.9118 Q733.18 45.9083 736.595 46.921 Q740.009 47.9338 743.308 47.9338 Q748.313 47.9338 751.033 45.9662 Q753.753 43.9986 753.753 40.3528 Q753.753 37.1699 751.786 35.376 Q749.847 33.582 745.391 32.685 L741.832 31.9906 Q735.293 30.6885 732.37 27.9107 Q729.448 25.133 729.448 20.1851 Q729.448 14.4559 733.47 11.1573 Q737.521 7.85875 744.61 7.85875 Q747.648 7.85875 750.802 8.40852 Q753.956 8.95829 757.254 10.0578 Z" fill="#000000" fill-rule="nonzero" fill-opacity="1" /><path clip-path="url(#clip440)" d="M774.818 13.4432 L774.818 29.6758 L782.167 29.6758 Q786.247 29.6758 788.475 27.5635 Q790.703 25.4513 790.703 21.545 Q790.703 17.6677 788.475 15.5555 Q786.247 13.4432 782.167 13.4432 L774.818 13.4432 M768.973 8.64 L782.167 8.64 Q789.43 8.64 793.134 11.9386 Q796.866 15.2083 796.866 21.545 Q796.866 27.9397 793.134 31.2093 Q789.43 34.479 782.167 34.479 L774.818 34.479 L774.818 51.84 L768.973 51.84 L768.973 8.64 Z" fill="#000000" fill-rule="nonzero" fill-opacity="1" /><path clip-path="url(#clip440)" d="M797.474 8.64 L803.753 8.64 L815.732 26.4061 L827.624 8.64 L833.903 8.64 L818.626 31.2672 L818.626 51.84 L812.752 51.84 L812.752 31.2672 L797.474 8.64 Z" fill="#000000" fill-rule="nonzero" fill-opacity="1" /><path clip-path="url(#clip440)" d="M855.518 33.2348 L871.114 33.2348 L871.114 37.9801 L855.518 37.9801 L855.518 33.2348 Z" fill="#000000" fill-rule="nonzero" fill-opacity="1" /><path clip-path="url(#clip440)" d="M931.009 11.9675 L931.009 18.1307 Q928.058 15.3819 924.701 14.0219 Q921.374 12.662 917.612 12.662 Q910.205 12.662 906.27 17.2048 Q902.335 21.7186 902.335 30.2834 Q902.335 38.8192 906.27 43.362 Q910.205 47.8759 917.612 47.8759 Q921.374 47.8759 924.701 46.516 Q928.058 45.156 931.009 42.4072 L931.009 48.5125 Q927.942 50.5958 924.499 51.6375 Q921.084 52.6791 917.265 52.6791 Q907.456 52.6791 901.814 46.6896 Q896.171 40.6711 896.171 30.2834 Q896.171 19.8668 901.814 13.8772 Q907.456 7.85875 917.265 7.85875 Q921.142 7.85875 924.557 8.90042 Q928 9.91314 931.009 11.9675 Z" fill="#000000" fill-rule="nonzero" fill-opacity="1" /><path clip-path="url(#clip440)" d="M940.037 8.64 L945.882 8.64 L945.882 26.3482 L967.12 26.3482 L967.12 8.64 L972.965 8.64 L972.965 51.84 L967.12 51.84 L967.12 31.2672 L945.882 31.2672 L945.882 51.84 L940.037 51.84 L940.037 8.64 Z" fill="#000000" fill-rule="nonzero" fill-opacity="1" /><path clip-path="url(#clip440)" d="M984.597 8.64 L993.306 8.64 L1004.33 38.038 L1015.41 8.64 L1024.12 8.64 L1024.12 51.84 L1018.42 51.84 L1018.42 13.9062 L1007.28 43.5356 L1001.41 43.5356 L990.268 13.9062 L990.268 51.84 L984.597 51.84 L984.597 8.64 Z" fill="#000000" fill-rule="nonzero" fill-opacity="1" /><path clip-path="url(#clip440)" d="M1035.73 8.64 L1044.43 8.64 L1055.46 38.038 L1066.54 8.64 L1075.25 8.64 L1075.25 51.84 L1069.55 51.84 L1069.55 13.9062 L1058.41 43.5356 L1052.54 43.5356 L1041.4 13.9062 L1041.4 51.84 L1035.73 51.84 L1035.73 8.64 Z" fill="#000000" fill-rule="nonzero" fill-opacity="1" /><path clip-path="url(#clip440)" d="M1083.93 33.2348 L1099.53 33.2348 L1099.53 37.9801 L1083.93 37.9801 L1083.93 33.2348 Z" fill="#000000" fill-rule="nonzero" fill-opacity="1" /><path clip-path="url(#clip440)" d="M1108.24 8.64 L1114.08 8.64 L1114.08 46.921 L1135.12 46.921 L1135.12 51.84 L1108.24 51.84 L1108.24 8.64 Z" fill="#000000" fill-rule="nonzero" fill-opacity="1" /><path clip-path="url(#clip440)" d="M1165.12 10.2314 L1165.12 19.4328 L1176.09 19.4328 L1176.09 23.5705 L1165.12 23.5705 L1165.12 41.163 Q1165.12 45.1271 1166.19 46.2555 Q1167.29 47.384 1170.62 47.384 L1176.09 47.384 L1176.09 51.84 L1170.62 51.84 Q1164.46 51.84 1162.11 49.5541 Q1159.77 47.2393 1159.77 41.163 L1159.77 23.5705 L1155.86 23.5705 L1155.86 19.4328 L1159.77 19.4328 L1159.77 10.2314 L1165.12 10.2314 Z" fill="#000000" fill-rule="nonzero" fill-opacity="1" /><path clip-path="url(#clip440)" d="M1210.81 34.3054 L1210.81 36.9095 L1186.33 36.9095 Q1186.68 42.4072 1189.63 45.3007 Q1192.61 48.1653 1197.91 48.1653 Q1200.97 48.1653 1203.84 47.4129 Q1206.73 46.6606 1209.57 45.156 L1209.57 50.1907 Q1206.7 51.406 1203.69 52.0425 Q1200.68 52.6791 1197.59 52.6791 Q1189.83 52.6791 1185.29 48.1653 Q1180.78 43.6514 1180.78 35.9547 Q1180.78 27.9975 1185.06 23.339 Q1189.37 18.6515 1196.66 18.6515 Q1203.2 18.6515 1206.99 22.876 Q1210.81 27.0716 1210.81 34.3054 M1205.49 32.7429 Q1205.43 28.3737 1203.03 25.7695 Q1200.65 23.1654 1196.72 23.1654 Q1192.26 23.1654 1189.57 25.6827 Q1186.91 28.2001 1186.51 32.7718 L1205.49 32.7429 Z" fill="#000000" fill-rule="nonzero" fill-opacity="1" /><path clip-path="url(#clip440)" d="M1238.33 24.4096 Q1237.43 23.8888 1236.36 23.6573 Q1235.32 23.3969 1234.05 23.3969 Q1229.53 23.3969 1227.1 26.3482 Q1224.7 29.2707 1224.7 34.7683 L1224.7 51.84 L1219.35 51.84 L1219.35 19.4328 L1224.7 19.4328 L1224.7 24.4675 Q1226.38 21.5161 1229.07 20.0983 Q1231.76 18.6515 1235.61 18.6515 Q1236.16 18.6515 1236.82 18.7383 Q1237.49 18.7962 1238.3 18.9409 L1238.33 24.4096 Z" fill="#000000" fill-rule="nonzero" fill-opacity="1" /><path clip-path="url(#clip440)" d="M1268.1 25.6538 Q1270.1 22.0659 1272.88 20.3587 Q1275.65 18.6515 1279.42 18.6515 Q1284.48 18.6515 1287.23 22.2105 Q1289.98 25.7406 1289.98 32.2799 L1289.98 51.84 L1284.62 51.84 L1284.62 32.4535 Q1284.62 27.795 1282.97 25.5381 Q1281.33 23.2811 1277.94 23.2811 Q1273.8 23.2811 1271.4 26.03 Q1269 28.7788 1269 33.5241 L1269 51.84 L1263.65 51.84 L1263.65 32.4535 Q1263.65 27.7661 1262 25.5381 Q1260.35 23.2811 1256.9 23.2811 Q1252.82 23.2811 1250.42 26.0589 Q1248.02 28.8077 1248.02 33.5241 L1248.02 51.84 L1242.67 51.84 L1242.67 19.4328 L1248.02 19.4328 L1248.02 24.4675 Q1249.84 21.4872 1252.39 20.0693 Q1254.94 18.6515 1258.44 18.6515 Q1261.97 18.6515 1264.43 20.4455 Q1266.92 22.2395 1268.1 25.6538 Z" fill="#000000" fill-rule="nonzero" fill-opacity="1" /><path clip-path="url(#clip440)" d="M1300.6 19.4328 L1305.92 19.4328 L1305.92 51.84 L1300.6 51.84 L1300.6 19.4328 M1300.6 6.81709 L1305.92 6.81709 L1305.92 13.559 L1300.6 13.559 L1300.6 6.81709 Z" fill="#000000" fill-rule="nonzero" fill-opacity="1" /><path clip-path="url(#clip440)" d="M1344 32.2799 L1344 51.84 L1338.67 51.84 L1338.67 32.4535 Q1338.67 27.8529 1336.88 25.567 Q1335.09 23.2811 1331.5 23.2811 Q1327.19 23.2811 1324.7 26.03 Q1322.21 28.7788 1322.21 33.5241 L1322.21 51.84 L1316.86 51.84 L1316.86 19.4328 L1322.21 19.4328 L1322.21 24.4675 Q1324.12 21.545 1326.7 20.0983 Q1329.3 18.6515 1332.69 18.6515 Q1338.27 18.6515 1341.13 22.1237 Q1344 25.567 1344 32.2799 Z" fill="#000000" fill-rule="nonzero" fill-opacity="1" /><path clip-path="url(#clip440)" d="M1369.35 35.5496 Q1362.89 35.5496 1360.41 37.0253 Q1357.92 38.501 1357.92 42.06 Q1357.92 44.8956 1359.77 46.5738 Q1361.65 48.2231 1364.86 48.2231 Q1369.29 48.2231 1371.95 45.0981 Q1374.64 41.9442 1374.64 36.7359 L1374.64 35.5496 L1369.35 35.5496 M1379.97 33.3505 L1379.97 51.84 L1374.64 51.84 L1374.64 46.921 Q1372.82 49.8724 1370.1 51.2902 Q1367.38 52.6791 1363.44 52.6791 Q1358.47 52.6791 1355.51 49.9014 Q1352.59 47.0947 1352.59 42.4072 Q1352.59 36.9385 1356.24 34.1607 Q1359.91 31.3829 1367.18 31.3829 L1374.64 31.3829 L1374.64 30.8621 Q1374.64 27.1874 1372.21 25.1908 Q1369.81 23.1654 1365.44 23.1654 Q1362.66 23.1654 1360.03 23.8309 Q1357.4 24.4964 1354.97 25.8274 L1354.97 20.9085 Q1357.89 19.78 1360.64 19.2302 Q1363.39 18.6515 1365.99 18.6515 Q1373.02 18.6515 1376.49 22.2973 Q1379.97 25.9431 1379.97 33.3505 Z" fill="#000000" fill-rule="nonzero" fill-opacity="1" /><path clip-path="url(#clip440)" d="M1390.93 6.81709 L1396.26 6.81709 L1396.26 51.84 L1390.93 51.84 L1390.93 6.81709 Z" fill="#000000" fill-rule="nonzero" fill-opacity="1" /><path clip-path="url(#clip440)" d="M1431.38 46.9789 L1431.38 64.1663 L1426.03 64.1663 L1426.03 19.4328 L1431.38 19.4328 L1431.38 24.3517 Q1433.06 21.4582 1435.61 20.0693 Q1438.18 18.6515 1441.74 18.6515 Q1447.64 18.6515 1451.32 23.339 Q1455.02 28.0265 1455.02 35.6653 Q1455.02 43.3042 1451.32 47.9916 Q1447.64 52.6791 1441.74 52.6791 Q1438.18 52.6791 1435.61 51.2902 Q1433.06 49.8724 1431.38 46.9789 M1449.5 35.6653 Q1449.5 29.7915 1447.07 26.464 Q1444.66 23.1075 1440.44 23.1075 Q1436.21 23.1075 1433.78 26.464 Q1431.38 29.7915 1431.38 35.6653 Q1431.38 41.5391 1433.78 44.8956 Q1436.21 48.2231 1440.44 48.2231 Q1444.66 48.2231 1447.07 44.8956 Q1449.5 41.5391 1449.5 35.6653 Z" fill="#000000" fill-rule="nonzero" fill-opacity="1" /><path clip-path="url(#clip440)" d="M1482.63 24.4096 Q1481.73 23.8888 1480.66 23.6573 Q1479.62 23.3969 1478.34 23.3969 Q1473.83 23.3969 1471.4 26.3482 Q1469 29.2707 1469 34.7683 L1469 51.84 L1463.65 51.84 L1463.65 19.4328 L1469 19.4328 L1469 24.4675 Q1470.68 21.5161 1473.37 20.0983 Q1476.06 18.6515 1479.91 18.6515 Q1480.46 18.6515 1481.12 18.7383 Q1481.79 18.7962 1482.6 18.9409 L1482.63 24.4096 Z" fill="#000000" fill-rule="nonzero" fill-opacity="1" /><path clip-path="url(#clip440)" d="M1488.21 19.4328 L1493.54 19.4328 L1493.54 51.84 L1488.21 51.84 L1488.21 19.4328 M1488.21 6.81709 L1493.54 6.81709 L1493.54 13.559 L1488.21 13.559 L1488.21 6.81709 Z" fill="#000000" fill-rule="nonzero" fill-opacity="1" /><path clip-path="url(#clip440)" d="M1528 20.677 L1528 25.6538 Q1525.74 24.4096 1523.45 23.802 Q1521.2 23.1654 1518.88 23.1654 Q1513.7 23.1654 1510.84 26.464 Q1507.97 29.7336 1507.97 35.6653 Q1507.97 41.597 1510.84 44.8956 Q1513.7 48.1653 1518.88 48.1653 Q1521.2 48.1653 1523.45 47.5576 Q1525.74 46.921 1528 45.6768 L1528 50.5958 Q1525.77 51.6375 1523.37 52.1583 Q1520.99 52.6791 1518.3 52.6791 Q1510.98 52.6791 1506.67 48.0784 Q1502.36 43.4778 1502.36 35.6653 Q1502.36 27.7371 1506.7 23.1943 Q1511.07 18.6515 1518.65 18.6515 Q1521.11 18.6515 1523.45 19.1724 Q1525.8 19.6642 1528 20.677 Z" fill="#000000" fill-rule="nonzero" fill-opacity="1" /><path clip-path="url(#clip440)" d="M1564.98 34.3054 L1564.98 36.9095 L1540.5 36.9095 Q1540.84 42.4072 1543.8 45.3007 Q1546.78 48.1653 1552.07 48.1653 Q1555.14 48.1653 1558 47.4129 Q1560.9 46.6606 1563.73 45.156 L1563.73 50.1907 Q1560.87 51.406 1557.86 52.0425 Q1554.85 52.6791 1551.75 52.6791 Q1544 52.6791 1539.45 48.1653 Q1534.94 43.6514 1534.94 35.9547 Q1534.94 27.9975 1539.22 23.339 Q1543.53 18.6515 1550.83 18.6515 Q1557.37 18.6515 1561.16 22.876 Q1564.98 27.0716 1564.98 34.3054 M1559.65 32.7429 Q1559.59 28.3737 1557.19 25.7695 Q1554.82 23.1654 1550.88 23.1654 Q1546.43 23.1654 1543.74 25.6827 Q1541.08 28.2001 1540.67 32.7718 L1559.65 32.7429 Z" fill="#000000" fill-rule="nonzero" fill-opacity="1" /><path clip-path="url(#clip440)" d="M1605.34 6.87496 Q1601.46 13.53 1599.58 20.0404 Q1597.7 26.5508 1597.7 33.2348 Q1597.7 39.9188 1599.58 46.487 Q1601.49 53.0263 1605.34 59.6525 L1600.71 59.6525 Q1596.37 52.8527 1594.2 46.2845 Q1592.06 39.7162 1592.06 33.2348 Q1592.06 26.7823 1594.2 20.2429 Q1596.34 13.7036 1600.71 6.87496 L1605.34 6.87496 Z" fill="#000000" fill-rule="nonzero" fill-opacity="1" /><path clip-path="url(#clip440)" d="M1642.61 32.2799 L1642.61 51.84 L1637.28 51.84 L1637.28 32.4535 Q1637.28 27.8529 1635.49 25.567 Q1633.7 23.2811 1630.11 23.2811 Q1625.8 23.2811 1623.31 26.03 Q1620.82 28.7788 1620.82 33.5241 L1620.82 51.84 L1615.47 51.84 L1615.47 19.4328 L1620.82 19.4328 L1620.82 24.4675 Q1622.73 21.545 1625.31 20.0983 Q1627.91 18.6515 1631.29 18.6515 Q1636.88 18.6515 1639.74 22.1237 Q1642.61 25.567 1642.61 32.2799 Z" fill="#000000" fill-rule="nonzero" fill-opacity="1" /><path clip-path="url(#clip440)" d="M1653.92 24.9304 L1691.02 24.9304 L1691.02 29.7915 L1653.92 29.7915 L1653.92 24.9304 M1653.92 36.7359 L1691.02 36.7359 L1691.02 41.6549 L1653.92 41.6549 L1653.92 36.7359 Z" fill="#000000" fill-rule="nonzero" fill-opacity="1" /><path clip-path="url(#clip440)" d="M1703.69 8.64 L1726.64 8.64 L1726.64 13.559 L1709.04 13.559 L1709.04 24.1492 Q1710.32 23.7152 1711.59 23.5126 Q1712.86 23.2811 1714.14 23.2811 Q1721.37 23.2811 1725.59 27.2452 Q1729.82 31.2093 1729.82 37.9801 Q1729.82 44.9535 1725.48 48.8308 Q1721.14 52.6791 1713.24 52.6791 Q1710.52 52.6791 1707.68 52.2162 Q1704.88 51.7532 1701.87 50.8273 L1701.87 44.9535 Q1704.47 46.3713 1707.25 47.0657 Q1710.03 47.7602 1713.12 47.7602 Q1718.13 47.7602 1721.05 45.1271 Q1723.97 42.494 1723.97 37.9801 Q1723.97 33.4663 1721.05 30.8332 Q1718.13 28.2001 1713.12 28.2001 Q1710.78 28.2001 1708.44 28.7209 Q1706.12 29.2417 1703.69 30.3413 L1703.69 8.64 Z" fill="#000000" fill-rule="nonzero" fill-opacity="1" /><path clip-path="url(#clip440)" d="M1753.83 12.4884 Q1749.32 12.4884 1747.03 16.9444 Q1744.78 21.3714 1744.78 30.2834 Q1744.78 39.1665 1747.03 43.6225 Q1749.32 48.0495 1753.83 48.0495 Q1758.38 48.0495 1760.63 43.6225 Q1762.92 39.1665 1762.92 30.2834 Q1762.92 21.3714 1760.63 16.9444 Q1758.38 12.4884 1753.83 12.4884 M1753.83 7.85875 Q1761.1 7.85875 1764.92 13.6168 Q1768.77 19.346 1768.77 30.2834 Q1768.77 41.1919 1764.92 46.95 Q1761.1 52.6791 1753.83 52.6791 Q1746.57 52.6791 1742.72 46.95 Q1738.9 41.1919 1738.9 30.2834 Q1738.9 19.346 1742.72 13.6168 Q1746.57 7.85875 1753.83 7.85875 Z" fill="#000000" fill-rule="nonzero" fill-opacity="1" /><path clip-path="url(#clip440)" d="M1791.54 12.4884 Q1787.02 12.4884 1784.74 16.9444 Q1782.48 21.3714 1782.48 30.2834 Q1782.48 39.1665 1784.74 43.6225 Q1787.02 48.0495 1791.54 48.0495 Q1796.08 48.0495 1798.34 43.6225 Q1800.62 39.1665 1800.62 30.2834 Q1800.62 21.3714 1798.34 16.9444 Q1796.08 12.4884 1791.54 12.4884 M1791.54 7.85875 Q1798.8 7.85875 1802.62 13.6168 Q1806.47 19.346 1806.47 30.2834 Q1806.47 41.1919 1802.62 46.95 Q1798.8 52.6791 1791.54 52.6791 Q1784.27 52.6791 1780.43 46.95 Q1776.61 41.1919 1776.61 30.2834 Q1776.61 19.346 1780.43 13.6168 Q1784.27 7.85875 1791.54 7.85875 Z" fill="#000000" fill-rule="nonzero" fill-opacity="1" /><path clip-path="url(#clip440)" d="M1815.15 6.87496 L1819.78 6.87496 Q1824.12 13.7036 1826.26 20.2429 Q1828.43 26.7823 1828.43 33.2348 Q1828.43 39.7162 1826.26 46.2845 Q1824.12 52.8527 1819.78 59.6525 L1815.15 59.6525 Q1819 53.0263 1820.88 46.487 Q1822.79 39.9188 1822.79 33.2348 Q1822.79 26.5508 1820.88 20.0404 Q1819 13.53 1815.15 6.87496 Z" fill="#000000" fill-rule="nonzero" fill-opacity="1" /><path clip-path="url(#clip442)" d="M323.245 1406.92 L323.245 1423.18 L410.126 1423.18 L410.126 1406.92 L323.245 1406.92 L323.245 1406.92  Z" fill="#4682b4" fill-rule="evenodd" fill-opacity="0.6"/>
<polyline clip-path="url(#clip442)" style="stroke:#000000; stroke-linecap:round; stroke-linejoin:round; stroke-width:4; stroke-opacity:1; fill:none" points="323.245,1406.92 323.245,1423.18 410.126,1423.18 410.126,1406.92 323.245,1406.92 "/>
<path clip-path="url(#clip442)" d="M410.126 1358.14 L410.126 1423.18 L497.007 1423.18 L497.007 1358.14 L410.126 1358.14 L410.126 1358.14  Z" fill="#4682b4" fill-rule="evenodd" fill-opacity="0.6"/>
<polyline clip-path="url(#clip442)" style="stroke:#000000; stroke-linecap:round; stroke-linejoin:round; stroke-width:4; stroke-opacity:1; fill:none" points="410.126,1358.14 410.126,1423.18 497.007,1423.18 497.007,1358.14 410.126,1358.14 "/>
<path clip-path="url(#clip442)" d="M497.007 1146.78 L497.007 1423.18 L583.888 1423.18 L583.888 1146.78 L497.007 1146.78 L497.007 1146.78  Z" fill="#4682b4" fill-rule="evenodd" fill-opacity="0.6"/>
<polyline clip-path="url(#clip442)" style="stroke:#000000; stroke-linecap:round; stroke-linejoin:round; stroke-width:4; stroke-opacity:1; fill:none" points="497.007,1146.78 497.007,1423.18 583.888,1423.18 583.888,1146.78 497.007,1146.78 "/>
<path clip-path="url(#clip442)" d="M583.888 886.629 L583.888 1423.18 L670.77 1423.18 L670.77 886.629 L583.888 886.629 L583.888 886.629  Z" fill="#4682b4" fill-rule="evenodd" fill-opacity="0.6"/>
<polyline clip-path="url(#clip442)" style="stroke:#000000; stroke-linecap:round; stroke-linejoin:round; stroke-width:4; stroke-opacity:1; fill:none" points="583.888,886.629 583.888,1423.18 670.77,1423.18 670.77,886.629 583.888,886.629 "/>
<path clip-path="url(#clip442)" d="M670.77 545.188 L670.77 1423.18 L757.651 1423.18 L757.651 545.188 L670.77 545.188 L670.77 545.188  Z" fill="#4682b4" fill-rule="evenodd" fill-opacity="0.6"/>
<polyline clip-path="url(#clip442)" style="stroke:#000000; stroke-linecap:round; stroke-linejoin:round; stroke-width:4; stroke-opacity:1; fill:none" points="670.77,545.188 670.77,1423.18 757.651,1423.18 757.651,545.188 670.77,545.188 "/>
<path clip-path="url(#clip442)" d="M757.651 333.82 L757.651 1423.18 L844.532 1423.18 L844.532 333.82 L757.651 333.82 L757.651 333.82  Z" fill="#4682b4" fill-rule="evenodd" fill-opacity="0.6"/>
<polyline clip-path="url(#clip442)" style="stroke:#000000; stroke-linecap:round; stroke-linejoin:round; stroke-width:4; stroke-opacity:1; fill:none" points="757.651,333.82 757.651,1423.18 844.532,1423.18 844.532,333.82 757.651,333.82 "/>
<path clip-path="url(#clip442)" d="M844.532 106.192 L844.532 1423.18 L931.413 1423.18 L931.413 106.192 L844.532 106.192 L844.532 106.192  Z" fill="#4682b4" fill-rule="evenodd" fill-opacity="0.6"/>
<polyline clip-path="url(#clip442)" style="stroke:#000000; stroke-linecap:round; stroke-linejoin:round; stroke-width:4; stroke-opacity:1; fill:none" points="844.532,106.192 844.532,1423.18 931.413,1423.18 931.413,106.192 844.532,106.192 "/>
<path clip-path="url(#clip442)" d="M931.413 545.188 L931.413 1423.18 L1018.29 1423.18 L1018.29 545.188 L931.413 545.188 L931.413 545.188  Z" fill="#4682b4" fill-rule="evenodd" fill-opacity="0.6"/>
<polyline clip-path="url(#clip442)" style="stroke:#000000; stroke-linecap:round; stroke-linejoin:round; stroke-width:4; stroke-opacity:1; fill:none" points="931.413,545.188 931.413,1423.18 1018.29,1423.18 1018.29,545.188 931.413,545.188 "/>
<path clip-path="url(#clip442)" d="M1018.29 317.561 L1018.29 1423.18 L1105.18 1423.18 L1105.18 317.561 L1018.29 317.561 L1018.29 317.561  Z" fill="#4682b4" fill-rule="evenodd" fill-opacity="0.6"/>
<polyline clip-path="url(#clip442)" style="stroke:#000000; stroke-linecap:round; stroke-linejoin:round; stroke-width:4; stroke-opacity:1; fill:none" points="1018.29,317.561 1018.29,1423.18 1105.18,1423.18 1105.18,317.561 1018.29,317.561 "/>
<path clip-path="url(#clip442)" d="M1105.18 675.261 L1105.18 1423.18 L1192.06 1423.18 L1192.06 675.261 L1105.18 675.261 L1105.18 675.261  Z" fill="#4682b4" fill-rule="evenodd" fill-opacity="0.6"/>
<polyline clip-path="url(#clip442)" style="stroke:#000000; stroke-linecap:round; stroke-linejoin:round; stroke-width:4; stroke-opacity:1; fill:none" points="1105.18,675.261 1105.18,1423.18 1192.06,1423.18 1192.06,675.261 1105.18,675.261 "/>
<path clip-path="url(#clip442)" d="M1192.06 935.407 L1192.06 1423.18 L1278.94 1423.18 L1278.94 935.407 L1192.06 935.407 L1192.06 935.407  Z" fill="#4682b4" fill-rule="evenodd" fill-opacity="0.6"/>
<polyline clip-path="url(#clip442)" style="stroke:#000000; stroke-linecap:round; stroke-linejoin:round; stroke-width:4; stroke-opacity:1; fill:none" points="1192.06,935.407 1192.06,1423.18 1278.94,1423.18 1278.94,935.407 1192.06,935.407 "/>
<path clip-path="url(#clip442)" d="M1278.94 1195.55 L1278.94 1423.18 L1365.82 1423.18 L1365.82 1195.55 L1278.94 1195.55 L1278.94 1195.55  Z" fill="#4682b4" fill-rule="evenodd" fill-opacity="0.6"/>
<polyline clip-path="url(#clip442)" style="stroke:#000000; stroke-linecap:round; stroke-linejoin:round; stroke-width:4; stroke-opacity:1; fill:none" points="1278.94,1195.55 1278.94,1423.18 1365.82,1423.18 1365.82,1195.55 1278.94,1195.55 "/>
<path clip-path="url(#clip442)" d="M1365.82 1309.37 L1365.82 1423.18 L1452.7 1423.18 L1452.7 1309.37 L1365.82 1309.37 L1365.82 1309.37  Z" fill="#4682b4" fill-rule="evenodd" fill-opacity="0.6"/>
<polyline clip-path="url(#clip442)" style="stroke:#000000; stroke-linecap:round; stroke-linejoin:round; stroke-width:4; stroke-opacity:1; fill:none" points="1365.82,1309.37 1365.82,1423.18 1452.7,1423.18 1452.7,1309.37 1365.82,1309.37 "/>
<path clip-path="url(#clip442)" d="M1452.7 1195.55 L1452.7 1423.18 L1539.58 1423.18 L1539.58 1195.55 L1452.7 1195.55 L1452.7 1195.55  Z" fill="#4682b4" fill-rule="evenodd" fill-opacity="0.6"/>
<polyline clip-path="url(#clip442)" style="stroke:#000000; stroke-linecap:round; stroke-linejoin:round; stroke-width:4; stroke-opacity:1; fill:none" points="1452.7,1195.55 1452.7,1423.18 1539.58,1423.18 1539.58,1195.55 1452.7,1195.55 "/>
<path clip-path="url(#clip442)" d="M1539.58 1358.14 L1539.58 1423.18 L1626.46 1423.18 L1626.46 1358.14 L1539.58 1358.14 L1539.58 1358.14  Z" fill="#4682b4" fill-rule="evenodd" fill-opacity="0.6"/>
<polyline clip-path="url(#clip442)" style="stroke:#000000; stroke-linecap:round; stroke-linejoin:round; stroke-width:4; stroke-opacity:1; fill:none" points="1539.58,1358.14 1539.58,1423.18 1626.46,1423.18 1626.46,1358.14 1539.58,1358.14 "/>
<path clip-path="url(#clip442)" d="M1626.46 1358.14 L1626.46 1423.18 L1713.34 1423.18 L1713.34 1358.14 L1626.46 1358.14 L1626.46 1358.14  Z" fill="#4682b4" fill-rule="evenodd" fill-opacity="0.6"/>
<polyline clip-path="url(#clip442)" style="stroke:#000000; stroke-linecap:round; stroke-linejoin:round; stroke-width:4; stroke-opacity:1; fill:none" points="1626.46,1358.14 1626.46,1423.18 1713.34,1423.18 1713.34,1358.14 1626.46,1358.14 "/>
<path clip-path="url(#clip442)" d="M1713.34 1423.18 L1713.34 1423.18 L1800.23 1423.18 L1800.23 1423.18 L1713.34 1423.18 L1713.34 1423.18  Z" fill="#4682b4" fill-rule="evenodd" fill-opacity="0.6"/>
<polyline clip-path="url(#clip442)" style="stroke:#000000; stroke-linecap:round; stroke-linejoin:round; stroke-width:4; stroke-opacity:1; fill:none" points="1713.34,1423.18 1713.34,1423.18 1800.23,1423.18 1713.34,1423.18 "/>
<path clip-path="url(#clip442)" d="M1800.23 1406.92 L1800.23 1423.18 L1887.11 1423.18 L1887.11 1406.92 L1800.23 1406.92 L1800.23 1406.92  Z" fill="#4682b4" fill-rule="evenodd" fill-opacity="0.6"/>
<polyline clip-path="url(#clip442)" style="stroke:#000000; stroke-linecap:round; stroke-linejoin:round; stroke-width:4; stroke-opacity:1; fill:none" points="1800.23,1406.92 1800.23,1423.18 1887.11,1423.18 1887.11,1406.92 1800.23,1406.92 "/>
<path clip-path="url(#clip442)" d="M1887.11 1423.18 L1887.11 1423.18 L1973.99 1423.18 L1973.99 1423.18 L1887.11 1423.18 L1887.11 1423.18  Z" fill="#4682b4" fill-rule="evenodd" fill-opacity="0.6"/>
<polyline clip-path="url(#clip442)" style="stroke:#000000; stroke-linecap:round; stroke-linejoin:round; stroke-width:4; stroke-opacity:1; fill:none" points="1887.11,1423.18 1887.11,1423.18 1973.99,1423.18 1887.11,1423.18 "/>
<path clip-path="url(#clip442)" d="M1973.99 1423.18 L1973.99 1423.18 L2060.87 1423.18 L2060.87 1423.18 L1973.99 1423.18 L1973.99 1423.18  Z" fill="#4682b4" fill-rule="evenodd" fill-opacity="0.6"/>
<polyline clip-path="url(#clip442)" style="stroke:#000000; stroke-linecap:round; stroke-linejoin:round; stroke-width:4; stroke-opacity:1; fill:none" points="1973.99,1423.18 1973.99,1423.18 2060.87,1423.18 1973.99,1423.18 "/>
<path clip-path="url(#clip442)" d="M2060.87 1423.18 L2060.87 1423.18 L2147.75 1423.18 L2147.75 1423.18 L2060.87 1423.18 L2060.87 1423.18  Z" fill="#4682b4" fill-rule="evenodd" fill-opacity="0.6"/>
<polyline clip-path="url(#clip442)" style="stroke:#000000; stroke-linecap:round; stroke-linejoin:round; stroke-width:4; stroke-opacity:1; fill:none" points="2060.87,1423.18 2060.87,1423.18 2147.75,1423.18 2060.87,1423.18 "/>
<path clip-path="url(#clip442)" d="M2147.75 1406.92 L2147.75 1423.18 L2234.63 1423.18 L2234.63 1406.92 L2147.75 1406.92 L2147.75 1406.92  Z" fill="#4682b4" fill-rule="evenodd" fill-opacity="0.6"/>
<polyline clip-path="url(#clip442)" style="stroke:#000000; stroke-linecap:round; stroke-linejoin:round; stroke-width:4; stroke-opacity:1; fill:none" points="2147.75,1406.92 2147.75,1423.18 2234.63,1423.18 2234.63,1406.92 2147.75,1406.92 "/>
<circle clip-path="url(#clip442)" style="fill:#4682b4; stroke:none; fill-opacity:0" cx="366.685" cy="1406.92" r="2"/>
<circle clip-path="url(#clip442)" style="fill:#4682b4; stroke:none; fill-opacity:0" cx="453.567" cy="1358.14" r="2"/>
<circle clip-path="url(#clip442)" style="fill:#4682b4; stroke:none; fill-opacity:0" cx="540.448" cy="1146.78" r="2"/>
<circle clip-path="url(#clip442)" style="fill:#4682b4; stroke:none; fill-opacity:0" cx="627.329" cy="886.629" r="2"/>
<circle clip-path="url(#clip442)" style="fill:#4682b4; stroke:none; fill-opacity:0" cx="714.21" cy="545.188" r="2"/>
<circle clip-path="url(#clip442)" style="fill:#4682b4; stroke:none; fill-opacity:0" cx="801.092" cy="333.82" r="2"/>
<circle clip-path="url(#clip442)" style="fill:#4682b4; stroke:none; fill-opacity:0" cx="887.973" cy="106.192" r="2"/>
<circle clip-path="url(#clip442)" style="fill:#4682b4; stroke:none; fill-opacity:0" cx="974.854" cy="545.188" r="2"/>
<circle clip-path="url(#clip442)" style="fill:#4682b4; stroke:none; fill-opacity:0" cx="1061.74" cy="317.561" r="2"/>
<circle clip-path="url(#clip442)" style="fill:#4682b4; stroke:none; fill-opacity:0" cx="1148.62" cy="675.261" r="2"/>
<circle clip-path="url(#clip442)" style="fill:#4682b4; stroke:none; fill-opacity:0" cx="1235.5" cy="935.407" r="2"/>
<circle clip-path="url(#clip442)" style="fill:#4682b4; stroke:none; fill-opacity:0" cx="1322.38" cy="1195.55" r="2"/>
<circle clip-path="url(#clip442)" style="fill:#4682b4; stroke:none; fill-opacity:0" cx="1409.26" cy="1309.37" r="2"/>
<circle clip-path="url(#clip442)" style="fill:#4682b4; stroke:none; fill-opacity:0" cx="1496.14" cy="1195.55" r="2"/>
<circle clip-path="url(#clip442)" style="fill:#4682b4; stroke:none; fill-opacity:0" cx="1583.02" cy="1358.14" r="2"/>
<circle clip-path="url(#clip442)" style="fill:#4682b4; stroke:none; fill-opacity:0" cx="1669.9" cy="1358.14" r="2"/>
<circle clip-path="url(#clip442)" style="fill:#4682b4; stroke:none; fill-opacity:0" cx="1756.79" cy="1423.18" r="2"/>
<circle clip-path="url(#clip442)" style="fill:#4682b4; stroke:none; fill-opacity:0" cx="1843.67" cy="1406.92" r="2"/>
<circle clip-path="url(#clip442)" style="fill:#4682b4; stroke:none; fill-opacity:0" cx="1930.55" cy="1423.18" r="2"/>
<circle clip-path="url(#clip442)" style="fill:#4682b4; stroke:none; fill-opacity:0" cx="2017.43" cy="1423.18" r="2"/>
<circle clip-path="url(#clip442)" style="fill:#4682b4; stroke:none; fill-opacity:0" cx="2104.31" cy="1423.18" r="2"/>
<circle clip-path="url(#clip442)" style="fill:#4682b4; stroke:none; fill-opacity:0" cx="2191.19" cy="1406.92" r="2"/>
<polyline clip-path="url(#clip442)" style="stroke:#ff0000; stroke-linecap:round; stroke-linejoin:round; stroke-width:8; stroke-opacity:1; fill:none" points="1122.79,2740.17 1122.79,-1210.8 "/>
<polyline clip-path="url(#clip442)" style="stroke:#0000ff; stroke-linecap:round; stroke-linejoin:round; stroke-width:8; stroke-opacity:1; fill:none" stroke-dasharray="32, 20" points="926.119,2740.17 926.119,-1210.8 "/>
<path clip-path="url(#clip440)" d="M1632.33 357.452 L2281.17 357.452 L2281.17 150.092 L1632.33 150.092  Z" fill="#ffffff" fill-rule="evenodd" fill-opacity="1"/>
<polyline clip-path="url(#clip440)" style="stroke:#000000; stroke-linecap:round; stroke-linejoin:round; stroke-width:4; stroke-opacity:1; fill:none" points="1632.33,357.452 2281.17,357.452 2281.17,150.092 1632.33,150.092 1632.33,357.452 "/>
<path clip-path="url(#clip440)" d="M1656.2 222.668 L1799.37 222.668 L1799.37 181.196 L1656.2 181.196 L1656.2 222.668  Z" fill="#4682b4" fill-rule="evenodd" fill-opacity="0.6"/>
<polyline clip-path="url(#clip440)" style="stroke:#000000; stroke-linecap:round; stroke-linejoin:round; stroke-width:4; stroke-opacity:1; fill:none" points="1656.2,222.668 1799.37,222.668 1799.37,181.196 1656.2,181.196 1656.2,222.668 "/>
<path clip-path="url(#clip440)" d="M1845.48 185.786 L1845.48 190.346 Q1842.82 189.073 1840.46 188.448 Q1838.09 187.823 1835.9 187.823 Q1832.08 187.823 1829.99 189.304 Q1827.93 190.786 1827.93 193.517 Q1827.93 195.809 1829.3 196.99 Q1830.69 198.147 1834.53 198.865 L1837.35 199.443 Q1842.59 200.439 1845.06 202.962 Q1847.56 205.462 1847.56 209.675 Q1847.56 214.698 1844.18 217.29 Q1840.83 219.883 1834.32 219.883 Q1831.87 219.883 1829.09 219.327 Q1826.34 218.772 1823.37 217.684 L1823.37 212.869 Q1826.22 214.466 1828.95 215.277 Q1831.68 216.087 1834.32 216.087 Q1838.33 216.087 1840.5 214.513 Q1842.68 212.939 1842.68 210.022 Q1842.68 207.476 1841.1 206.04 Q1839.55 204.605 1835.99 203.888 L1833.14 203.332 Q1827.91 202.291 1825.57 200.068 Q1823.23 197.846 1823.23 193.888 Q1823.23 189.304 1826.45 186.666 Q1829.69 184.027 1835.36 184.027 Q1837.79 184.027 1840.32 184.467 Q1842.84 184.906 1845.48 185.786 Z" fill="#000000" fill-rule="nonzero" fill-opacity="1" /><path clip-path="url(#clip440)" d="M1854.67 193.286 L1858.93 193.286 L1858.93 219.212 L1854.67 219.212 L1854.67 193.286 M1854.67 183.193 L1858.93 183.193 L1858.93 188.587 L1854.67 188.587 L1854.67 183.193 Z" fill="#000000" fill-rule="nonzero" fill-opacity="1" /><path clip-path="url(#clip440)" d="M1888.03 198.263 Q1889.62 195.392 1891.84 194.027 Q1894.07 192.661 1897.08 192.661 Q1901.13 192.661 1903.33 195.508 Q1905.52 198.332 1905.52 203.564 L1905.52 219.212 L1901.24 219.212 L1901.24 203.703 Q1901.24 199.976 1899.92 198.17 Q1898.6 196.365 1895.9 196.365 Q1892.59 196.365 1890.66 198.564 Q1888.74 200.763 1888.74 204.559 L1888.74 219.212 L1884.46 219.212 L1884.46 203.703 Q1884.46 199.953 1883.14 198.17 Q1881.82 196.365 1879.07 196.365 Q1875.8 196.365 1873.88 198.587 Q1871.96 200.786 1871.96 204.559 L1871.96 219.212 L1867.68 219.212 L1867.68 193.286 L1871.96 193.286 L1871.96 197.314 Q1873.42 194.929 1875.46 193.795 Q1877.49 192.661 1880.29 192.661 Q1883.12 192.661 1885.09 194.096 Q1887.08 195.531 1888.03 198.263 Z" fill="#000000" fill-rule="nonzero" fill-opacity="1" /><path clip-path="url(#clip440)" d="M1913.58 208.98 L1913.58 193.286 L1917.84 193.286 L1917.84 208.818 Q1917.84 212.499 1919.27 214.351 Q1920.71 216.179 1923.58 216.179 Q1927.03 216.179 1929.02 213.98 Q1931.03 211.781 1931.03 207.985 L1931.03 193.286 L1935.29 193.286 L1935.29 219.212 L1931.03 219.212 L1931.03 215.23 Q1929.48 217.591 1927.42 218.749 Q1925.39 219.883 1922.68 219.883 Q1918.21 219.883 1915.9 217.105 Q1913.58 214.327 1913.58 208.98 M1924.3 192.661 L1924.3 192.661 Z" fill="#000000" fill-rule="nonzero" fill-opacity="1" /><path clip-path="url(#clip440)" d="M1944.07 183.193 L1948.33 183.193 L1948.33 219.212 L1944.07 219.212 L1944.07 183.193 Z" fill="#000000" fill-rule="nonzero" fill-opacity="1" /><path clip-path="url(#clip440)" d="M1969.02 206.179 Q1963.86 206.179 1961.87 207.36 Q1959.88 208.54 1959.88 211.388 Q1959.88 213.656 1961.36 214.999 Q1962.86 216.318 1965.43 216.318 Q1968.97 216.318 1971.1 213.818 Q1973.26 211.295 1973.26 207.128 L1973.26 206.179 L1969.02 206.179 M1977.52 204.42 L1977.52 219.212 L1973.26 219.212 L1973.26 215.277 Q1971.8 217.638 1969.62 218.772 Q1967.45 219.883 1964.3 219.883 Q1960.32 219.883 1957.96 217.661 Q1955.62 215.415 1955.62 211.665 Q1955.62 207.29 1958.53 205.068 Q1961.47 202.846 1967.28 202.846 L1973.26 202.846 L1973.26 202.429 Q1973.26 199.49 1971.31 197.892 Q1969.39 196.272 1965.89 196.272 Q1963.67 196.272 1961.57 196.804 Q1959.46 197.337 1957.52 198.402 L1957.52 194.466 Q1959.85 193.564 1962.05 193.124 Q1964.25 192.661 1966.33 192.661 Q1971.96 192.661 1974.74 195.578 Q1977.52 198.494 1977.52 204.42 Z" fill="#000000" fill-rule="nonzero" fill-opacity="1" /><path clip-path="url(#clip440)" d="M1990.5 185.925 L1990.5 193.286 L1999.27 193.286 L1999.27 196.596 L1990.5 196.596 L1990.5 210.67 Q1990.5 213.841 1991.36 214.744 Q1992.24 215.647 1994.9 215.647 L1999.27 215.647 L1999.27 219.212 L1994.9 219.212 Q1989.97 219.212 1988.09 217.383 Q1986.22 215.531 1986.22 210.67 L1986.22 196.596 L1983.09 196.596 L1983.09 193.286 L1986.22 193.286 L1986.22 185.925 L1990.5 185.925 Z" fill="#000000" fill-rule="nonzero" fill-opacity="1" /><path clip-path="url(#clip440)" d="M2027.05 205.184 L2027.05 207.267 L2007.47 207.267 Q2007.75 211.665 2010.11 213.98 Q2012.49 216.272 2016.73 216.272 Q2019.18 216.272 2021.47 215.67 Q2023.79 215.068 2026.06 213.865 L2026.06 217.892 Q2023.77 218.864 2021.36 219.374 Q2018.95 219.883 2016.47 219.883 Q2010.27 219.883 2006.64 216.272 Q2003.02 212.661 2003.02 206.503 Q2003.02 200.138 2006.45 196.411 Q2009.9 192.661 2015.73 192.661 Q2020.96 192.661 2024 196.041 Q2027.05 199.397 2027.05 205.184 M2022.79 203.934 Q2022.75 200.439 2020.83 198.355 Q2018.93 196.272 2015.78 196.272 Q2012.21 196.272 2010.06 198.286 Q2007.93 200.3 2007.61 203.957 L2022.79 203.934 Z" fill="#000000" fill-rule="nonzero" fill-opacity="1" /><path clip-path="url(#clip440)" d="M2051.1 197.221 L2051.1 183.193 L2055.36 183.193 L2055.36 219.212 L2051.1 219.212 L2051.1 215.323 Q2049.76 217.638 2047.7 218.772 Q2045.66 219.883 2042.79 219.883 Q2038.09 219.883 2035.13 216.133 Q2032.19 212.383 2032.19 206.272 Q2032.19 200.161 2035.13 196.411 Q2038.09 192.661 2042.79 192.661 Q2045.66 192.661 2047.7 193.795 Q2049.76 194.906 2051.1 197.221 M2036.59 206.272 Q2036.59 210.971 2038.51 213.656 Q2040.45 216.318 2043.83 216.318 Q2047.21 216.318 2049.16 213.656 Q2051.1 210.971 2051.1 206.272 Q2051.1 201.573 2049.16 198.911 Q2047.21 196.226 2043.83 196.226 Q2040.45 196.226 2038.51 198.911 Q2036.59 201.573 2036.59 206.272 Z" fill="#000000" fill-rule="nonzero" fill-opacity="1" /><polyline clip-path="url(#clip440)" style="stroke:#ff0000; stroke-linecap:round; stroke-linejoin:round; stroke-width:8; stroke-opacity:1; fill:none" points="1656.2,253.772 1799.37,253.772 "/>
<path clip-path="url(#clip440)" d="M1839.25 239.663 Q1834.16 239.663 1831.15 243.459 Q1828.16 247.256 1828.16 253.806 Q1828.16 260.334 1831.15 264.13 Q1834.16 267.927 1839.25 267.927 Q1844.34 267.927 1847.31 264.13 Q1850.29 260.334 1850.29 253.806 Q1850.29 247.256 1847.31 243.459 Q1844.34 239.663 1839.25 239.663 M1839.25 235.867 Q1846.52 235.867 1850.87 240.751 Q1855.22 245.612 1855.22 253.806 Q1855.22 261.978 1850.87 266.862 Q1846.52 271.723 1839.25 271.723 Q1831.96 271.723 1827.59 266.862 Q1823.23 262.001 1823.23 253.806 Q1823.23 245.612 1827.59 240.751 Q1831.96 235.867 1839.25 235.867 Z" fill="#000000" fill-rule="nonzero" fill-opacity="1" /><path clip-path="url(#clip440)" d="M1880.96 258.112 Q1880.96 253.413 1879.02 250.751 Q1877.1 248.066 1873.72 248.066 Q1870.34 248.066 1868.4 250.751 Q1866.47 253.413 1866.47 258.112 Q1866.47 262.811 1868.4 265.496 Q1870.34 268.158 1873.72 268.158 Q1877.1 268.158 1879.02 265.496 Q1880.96 262.811 1880.96 258.112 M1866.47 249.061 Q1867.82 246.746 1869.85 245.635 Q1871.91 244.501 1874.76 244.501 Q1879.48 244.501 1882.42 248.251 Q1885.39 252.001 1885.39 258.112 Q1885.39 264.223 1882.42 267.973 Q1879.48 271.723 1874.76 271.723 Q1871.91 271.723 1869.85 270.612 Q1867.82 269.478 1866.47 267.163 L1866.47 271.052 L1862.19 271.052 L1862.19 235.033 L1866.47 235.033 L1866.47 249.061 Z" fill="#000000" fill-rule="nonzero" fill-opacity="1" /><path clip-path="url(#clip440)" d="M1908.97 245.89 L1908.97 249.918 Q1907.17 248.992 1905.22 248.529 Q1903.28 248.066 1901.2 248.066 Q1898.02 248.066 1896.43 249.038 Q1894.85 250.01 1894.85 251.955 Q1894.85 253.436 1895.99 254.293 Q1897.12 255.126 1900.55 255.89 L1902.01 256.214 Q1906.54 257.186 1908.44 258.968 Q1910.36 260.728 1910.36 263.899 Q1910.36 267.51 1907.49 269.617 Q1904.65 271.723 1899.65 271.723 Q1897.56 271.723 1895.29 271.306 Q1893.05 270.913 1890.55 270.103 L1890.55 265.705 Q1892.91 266.931 1895.2 267.556 Q1897.49 268.158 1899.74 268.158 Q1902.75 268.158 1904.37 267.14 Q1905.99 266.098 1905.99 264.223 Q1905.99 262.487 1904.81 261.561 Q1903.65 260.635 1899.69 259.779 L1898.21 259.431 Q1894.25 258.598 1892.49 256.885 Q1890.73 255.149 1890.73 252.14 Q1890.73 248.482 1893.33 246.492 Q1895.92 244.501 1900.69 244.501 Q1903.05 244.501 1905.13 244.848 Q1907.21 245.195 1908.97 245.89 Z" fill="#000000" fill-rule="nonzero" fill-opacity="1" /><path clip-path="url(#clip440)" d="M1939.32 257.024 L1939.32 259.107 L1919.74 259.107 Q1920.02 263.505 1922.38 265.82 Q1924.76 268.112 1929 268.112 Q1931.45 268.112 1933.74 267.51 Q1936.06 266.908 1938.33 265.705 L1938.33 269.732 Q1936.03 270.704 1933.63 271.214 Q1931.22 271.723 1928.74 271.723 Q1922.54 271.723 1918.9 268.112 Q1915.29 264.501 1915.29 258.343 Q1915.29 251.978 1918.72 248.251 Q1922.17 244.501 1928 244.501 Q1933.23 244.501 1936.27 247.881 Q1939.32 251.237 1939.32 257.024 M1935.06 255.774 Q1935.02 252.279 1933.09 250.195 Q1931.2 248.112 1928.05 248.112 Q1924.48 248.112 1922.33 250.126 Q1920.2 252.14 1919.88 255.797 L1935.06 255.774 Z" fill="#000000" fill-rule="nonzero" fill-opacity="1" /><path clip-path="url(#clip440)" d="M1961.33 249.107 Q1960.62 248.691 1959.76 248.506 Q1958.93 248.297 1957.91 248.297 Q1954.3 248.297 1952.35 250.658 Q1950.43 252.996 1950.43 257.394 L1950.43 271.052 L1946.15 271.052 L1946.15 245.126 L1950.43 245.126 L1950.43 249.154 Q1951.77 246.793 1953.93 245.658 Q1956.08 244.501 1959.16 244.501 Q1959.6 244.501 1960.13 244.57 Q1960.66 244.617 1961.31 244.732 L1961.33 249.107 Z" fill="#000000" fill-rule="nonzero" fill-opacity="1" /><path clip-path="url(#clip440)" d="M1962.75 245.126 L1967.26 245.126 L1975.36 266.885 L1983.46 245.126 L1987.98 245.126 L1978.26 271.052 L1972.47 271.052 L1962.75 245.126 Z" fill="#000000" fill-rule="nonzero" fill-opacity="1" /><path clip-path="url(#clip440)" d="M2016.03 257.024 L2016.03 259.107 L1996.45 259.107 Q1996.73 263.505 1999.09 265.82 Q2001.47 268.112 2005.71 268.112 Q2008.16 268.112 2010.45 267.51 Q2012.77 266.908 2015.04 265.705 L2015.04 269.732 Q2012.75 270.704 2010.34 271.214 Q2007.93 271.723 2005.45 271.723 Q1999.25 271.723 1995.62 268.112 Q1992.01 264.501 1992.01 258.343 Q1992.01 251.978 1995.43 248.251 Q1998.88 244.501 2004.71 244.501 Q2009.95 244.501 2012.98 247.881 Q2016.03 251.237 2016.03 257.024 M2011.77 255.774 Q2011.73 252.279 2009.81 250.195 Q2007.91 248.112 2004.76 248.112 Q2001.2 248.112 1999.04 250.126 Q1996.91 252.14 1996.59 255.797 L2011.77 255.774 Z" fill="#000000" fill-rule="nonzero" fill-opacity="1" /><path clip-path="url(#clip440)" d="M2040.08 249.061 L2040.08 235.033 L2044.34 235.033 L2044.34 271.052 L2040.08 271.052 L2040.08 267.163 Q2038.74 269.478 2036.68 270.612 Q2034.64 271.723 2031.77 271.723 Q2027.08 271.723 2024.11 267.973 Q2021.17 264.223 2021.17 258.112 Q2021.17 252.001 2024.11 248.251 Q2027.08 244.501 2031.77 244.501 Q2034.64 244.501 2036.68 245.635 Q2038.74 246.746 2040.08 249.061 M2025.57 258.112 Q2025.57 262.811 2027.49 265.496 Q2029.44 268.158 2032.82 268.158 Q2036.2 268.158 2038.14 265.496 Q2040.08 262.811 2040.08 258.112 Q2040.08 253.413 2038.14 250.751 Q2036.2 248.066 2032.82 248.066 Q2029.44 248.066 2027.49 250.751 Q2025.57 253.413 2025.57 258.112 Z" fill="#000000" fill-rule="nonzero" fill-opacity="1" /><path clip-path="url(#clip440)" d="M2072.4 237.765 L2072.4 245.126 L2081.17 245.126 L2081.17 248.436 L2072.4 248.436 L2072.4 262.51 Q2072.4 265.681 2073.26 266.584 Q2074.14 267.487 2076.8 267.487 L2081.17 267.487 L2081.17 271.052 L2076.8 271.052 Q2071.87 271.052 2069.99 269.223 Q2068.12 267.371 2068.12 262.51 L2068.12 248.436 L2064.99 248.436 L2064.99 245.126 L2068.12 245.126 L2068.12 237.765 L2072.4 237.765 Z" fill="#000000" fill-rule="nonzero" fill-opacity="1" /><path clip-path="url(#clip440)" d="M2108.95 257.024 L2108.95 259.107 L2089.37 259.107 Q2089.64 263.505 2092.01 265.82 Q2094.39 268.112 2098.63 268.112 Q2101.08 268.112 2103.37 267.51 Q2105.69 266.908 2107.95 265.705 L2107.95 269.732 Q2105.66 270.704 2103.26 271.214 Q2100.85 271.723 2098.37 271.723 Q2092.17 271.723 2088.53 268.112 Q2084.92 264.501 2084.92 258.343 Q2084.92 251.978 2088.35 248.251 Q2091.8 244.501 2097.63 244.501 Q2102.86 244.501 2105.89 247.881 Q2108.95 251.237 2108.95 257.024 M2104.69 255.774 Q2104.64 252.279 2102.72 250.195 Q2100.82 248.112 2097.68 248.112 Q2094.11 248.112 2091.96 250.126 Q2089.83 252.14 2089.51 255.797 L2104.69 255.774 Z" fill="#000000" fill-rule="nonzero" fill-opacity="1" /><path clip-path="url(#clip440)" d="M2130.96 249.107 Q2130.25 248.691 2129.39 248.506 Q2128.56 248.297 2127.54 248.297 Q2123.93 248.297 2121.98 250.658 Q2120.06 252.996 2120.06 257.394 L2120.06 271.052 L2115.78 271.052 L2115.78 245.126 L2120.06 245.126 L2120.06 249.154 Q2121.4 246.793 2123.56 245.658 Q2125.71 244.501 2128.79 244.501 Q2129.23 244.501 2129.76 244.57 Q2130.29 244.617 2130.94 244.732 L2130.96 249.107 Z" fill="#000000" fill-rule="nonzero" fill-opacity="1" /><path clip-path="url(#clip440)" d="M2154.78 250.103 Q2156.38 247.232 2158.6 245.867 Q2160.82 244.501 2163.83 244.501 Q2167.88 244.501 2170.08 247.348 Q2172.28 250.172 2172.28 255.404 L2172.28 271.052 L2168 271.052 L2168 255.543 Q2168 251.816 2166.68 250.01 Q2165.36 248.205 2162.65 248.205 Q2159.34 248.205 2157.42 250.404 Q2155.5 252.603 2155.5 256.399 L2155.5 271.052 L2151.22 271.052 L2151.22 255.543 Q2151.22 251.793 2149.9 250.01 Q2148.58 248.205 2145.82 248.205 Q2142.56 248.205 2140.64 250.427 Q2138.72 252.626 2138.72 256.399 L2138.72 271.052 L2134.44 271.052 L2134.44 245.126 L2138.72 245.126 L2138.72 249.154 Q2140.18 246.769 2142.21 245.635 Q2144.25 244.501 2147.05 244.501 Q2149.88 244.501 2151.84 245.936 Q2153.83 247.371 2154.78 250.103 Z" fill="#000000" fill-rule="nonzero" fill-opacity="1" /><path clip-path="url(#clip440)" d="M2180.78 245.126 L2185.04 245.126 L2185.04 271.052 L2180.78 271.052 L2180.78 245.126 M2180.78 235.033 L2185.04 235.033 L2185.04 240.427 L2180.78 240.427 L2180.78 235.033 Z" fill="#000000" fill-rule="nonzero" fill-opacity="1" /><path clip-path="url(#clip440)" d="M2215.5 255.404 L2215.5 271.052 L2211.24 271.052 L2211.24 255.543 Q2211.24 251.862 2209.81 250.033 Q2208.37 248.205 2205.5 248.205 Q2202.05 248.205 2200.06 250.404 Q2198.07 252.603 2198.07 256.399 L2198.07 271.052 L2193.79 271.052 L2193.79 245.126 L2198.07 245.126 L2198.07 249.154 Q2199.6 246.816 2201.66 245.658 Q2203.74 244.501 2206.45 244.501 Q2210.92 244.501 2213.21 247.279 Q2215.5 250.033 2215.5 255.404 Z" fill="#000000" fill-rule="nonzero" fill-opacity="1" /><path clip-path="url(#clip440)" d="M2235.78 258.019 Q2230.62 258.019 2228.63 259.2 Q2226.63 260.38 2226.63 263.228 Q2226.63 265.496 2228.12 266.839 Q2229.62 268.158 2232.19 268.158 Q2235.73 268.158 2237.86 265.658 Q2240.01 263.135 2240.01 258.968 L2240.01 258.019 L2235.78 258.019 M2244.27 256.26 L2244.27 271.052 L2240.01 271.052 L2240.01 267.117 Q2238.56 269.478 2236.38 270.612 Q2234.2 271.723 2231.06 271.723 Q2227.07 271.723 2224.71 269.501 Q2222.38 267.255 2222.38 263.505 Q2222.38 259.13 2225.29 256.908 Q2228.23 254.686 2234.04 254.686 L2240.01 254.686 L2240.01 254.269 Q2240.01 251.33 2238.07 249.732 Q2236.15 248.112 2232.65 248.112 Q2230.43 248.112 2228.32 248.644 Q2226.22 249.177 2224.27 250.242 L2224.27 246.306 Q2226.61 245.404 2228.81 244.964 Q2231.01 244.501 2233.09 244.501 Q2238.72 244.501 2241.5 247.418 Q2244.27 250.334 2244.27 256.26 Z" fill="#000000" fill-rule="nonzero" fill-opacity="1" /><path clip-path="url(#clip440)" d="M2253.05 235.033 L2257.31 235.033 L2257.31 271.052 L2253.05 271.052 L2253.05 235.033 Z" fill="#000000" fill-rule="nonzero" fill-opacity="1" /><polyline clip-path="url(#clip440)" style="stroke:#0000ff; stroke-linecap:round; stroke-linejoin:round; stroke-width:8; stroke-opacity:1; fill:none" stroke-dasharray="32, 20" points="1656.2,305.612 1799.37,305.612 "/>
<path clip-path="url(#clip440)" d="M1845.48 289.466 L1845.48 294.026 Q1842.82 292.753 1840.46 292.128 Q1838.09 291.503 1835.9 291.503 Q1832.08 291.503 1829.99 292.984 Q1827.93 294.466 1827.93 297.197 Q1827.93 299.489 1829.3 300.67 Q1830.69 301.827 1834.53 302.545 L1837.35 303.123 Q1842.59 304.119 1845.06 306.642 Q1847.56 309.142 1847.56 313.355 Q1847.56 318.378 1844.18 320.97 Q1840.83 323.563 1834.32 323.563 Q1831.87 323.563 1829.09 323.007 Q1826.34 322.452 1823.37 321.364 L1823.37 316.549 Q1826.22 318.146 1828.95 318.957 Q1831.68 319.767 1834.32 319.767 Q1838.33 319.767 1840.5 318.193 Q1842.68 316.619 1842.68 313.702 Q1842.68 311.156 1841.1 309.72 Q1839.55 308.285 1835.99 307.568 L1833.14 307.012 Q1827.91 305.971 1825.57 303.748 Q1823.23 301.526 1823.23 297.568 Q1823.23 292.984 1826.45 290.346 Q1829.69 287.707 1835.36 287.707 Q1837.79 287.707 1840.32 288.147 Q1842.84 288.586 1845.48 289.466 Z" fill="#000000" fill-rule="nonzero" fill-opacity="1" /><path clip-path="url(#clip440)" d="M1854.67 296.966 L1858.93 296.966 L1858.93 322.892 L1854.67 322.892 L1854.67 296.966 M1854.67 286.873 L1858.93 286.873 L1858.93 292.267 L1854.67 292.267 L1854.67 286.873 Z" fill="#000000" fill-rule="nonzero" fill-opacity="1" /><path clip-path="url(#clip440)" d="M1888.03 301.943 Q1889.62 299.072 1891.84 297.707 Q1894.07 296.341 1897.08 296.341 Q1901.13 296.341 1903.33 299.188 Q1905.52 302.012 1905.52 307.244 L1905.52 322.892 L1901.24 322.892 L1901.24 307.383 Q1901.24 303.656 1899.92 301.85 Q1898.6 300.045 1895.9 300.045 Q1892.59 300.045 1890.66 302.244 Q1888.74 304.443 1888.74 308.239 L1888.74 322.892 L1884.46 322.892 L1884.46 307.383 Q1884.46 303.633 1883.14 301.85 Q1881.82 300.045 1879.07 300.045 Q1875.8 300.045 1873.88 302.267 Q1871.96 304.466 1871.96 308.239 L1871.96 322.892 L1867.68 322.892 L1867.68 296.966 L1871.96 296.966 L1871.96 300.994 Q1873.42 298.609 1875.46 297.475 Q1877.49 296.341 1880.29 296.341 Q1883.12 296.341 1885.09 297.776 Q1887.08 299.211 1888.03 301.943 Z" fill="#000000" fill-rule="nonzero" fill-opacity="1" /><path clip-path="url(#clip440)" d="M1913.58 312.66 L1913.58 296.966 L1917.84 296.966 L1917.84 312.498 Q1917.84 316.179 1919.27 318.031 Q1920.71 319.859 1923.58 319.859 Q1927.03 319.859 1929.02 317.66 Q1931.03 315.461 1931.03 311.665 L1931.03 296.966 L1935.29 296.966 L1935.29 322.892 L1931.03 322.892 L1931.03 318.91 Q1929.48 321.271 1927.42 322.429 Q1925.39 323.563 1922.68 323.563 Q1918.21 323.563 1915.9 320.785 Q1913.58 318.007 1913.58 312.66 M1924.3 296.341 L1924.3 296.341 Z" fill="#000000" fill-rule="nonzero" fill-opacity="1" /><path clip-path="url(#clip440)" d="M1944.07 286.873 L1948.33 286.873 L1948.33 322.892 L1944.07 322.892 L1944.07 286.873 Z" fill="#000000" fill-rule="nonzero" fill-opacity="1" /><path clip-path="url(#clip440)" d="M1969.02 309.859 Q1963.86 309.859 1961.87 311.04 Q1959.88 312.22 1959.88 315.068 Q1959.88 317.336 1961.36 318.679 Q1962.86 319.998 1965.43 319.998 Q1968.97 319.998 1971.1 317.498 Q1973.26 314.975 1973.26 310.808 L1973.26 309.859 L1969.02 309.859 M1977.52 308.1 L1977.52 322.892 L1973.26 322.892 L1973.26 318.957 Q1971.8 321.318 1969.62 322.452 Q1967.45 323.563 1964.3 323.563 Q1960.32 323.563 1957.96 321.341 Q1955.62 319.095 1955.62 315.345 Q1955.62 310.97 1958.53 308.748 Q1961.47 306.526 1967.28 306.526 L1973.26 306.526 L1973.26 306.109 Q1973.26 303.17 1971.31 301.572 Q1969.39 299.952 1965.89 299.952 Q1963.67 299.952 1961.57 300.484 Q1959.46 301.017 1957.52 302.082 L1957.52 298.146 Q1959.85 297.244 1962.05 296.804 Q1964.25 296.341 1966.33 296.341 Q1971.96 296.341 1974.74 299.258 Q1977.52 302.174 1977.52 308.1 Z" fill="#000000" fill-rule="nonzero" fill-opacity="1" /><path clip-path="url(#clip440)" d="M1990.5 289.605 L1990.5 296.966 L1999.27 296.966 L1999.27 300.276 L1990.5 300.276 L1990.5 314.35 Q1990.5 317.521 1991.36 318.424 Q1992.24 319.327 1994.9 319.327 L1999.27 319.327 L1999.27 322.892 L1994.9 322.892 Q1989.97 322.892 1988.09 321.063 Q1986.22 319.211 1986.22 314.35 L1986.22 300.276 L1983.09 300.276 L1983.09 296.966 L1986.22 296.966 L1986.22 289.605 L1990.5 289.605 Z" fill="#000000" fill-rule="nonzero" fill-opacity="1" /><path clip-path="url(#clip440)" d="M2027.05 308.864 L2027.05 310.947 L2007.47 310.947 Q2007.75 315.345 2010.11 317.66 Q2012.49 319.952 2016.73 319.952 Q2019.18 319.952 2021.47 319.35 Q2023.79 318.748 2026.06 317.545 L2026.06 321.572 Q2023.77 322.544 2021.36 323.054 Q2018.95 323.563 2016.47 323.563 Q2010.27 323.563 2006.64 319.952 Q2003.02 316.341 2003.02 310.183 Q2003.02 303.818 2006.45 300.091 Q2009.9 296.341 2015.73 296.341 Q2020.96 296.341 2024 299.721 Q2027.05 303.077 2027.05 308.864 M2022.79 307.614 Q2022.75 304.119 2020.83 302.035 Q2018.93 299.952 2015.78 299.952 Q2012.21 299.952 2010.06 301.966 Q2007.93 303.98 2007.61 307.637 L2022.79 307.614 Z" fill="#000000" fill-rule="nonzero" fill-opacity="1" /><path clip-path="url(#clip440)" d="M2051.1 300.901 L2051.1 286.873 L2055.36 286.873 L2055.36 322.892 L2051.1 322.892 L2051.1 319.003 Q2049.76 321.318 2047.7 322.452 Q2045.66 323.563 2042.79 323.563 Q2038.09 323.563 2035.13 319.813 Q2032.19 316.063 2032.19 309.952 Q2032.19 303.841 2035.13 300.091 Q2038.09 296.341 2042.79 296.341 Q2045.66 296.341 2047.7 297.475 Q2049.76 298.586 2051.1 300.901 M2036.59 309.952 Q2036.59 314.651 2038.51 317.336 Q2040.45 319.998 2043.83 319.998 Q2047.21 319.998 2049.16 317.336 Q2051.1 314.651 2051.1 309.952 Q2051.1 305.253 2049.16 302.591 Q2047.21 299.906 2043.83 299.906 Q2040.45 299.906 2038.51 302.591 Q2036.59 305.253 2036.59 309.952 Z" fill="#000000" fill-rule="nonzero" fill-opacity="1" /><path clip-path="url(#clip440)" d="M2099.39 301.943 Q2100.99 299.072 2103.21 297.707 Q2105.43 296.341 2108.44 296.341 Q2112.49 296.341 2114.69 299.188 Q2116.89 302.012 2116.89 307.244 L2116.89 322.892 L2112.61 322.892 L2112.61 307.383 Q2112.61 303.656 2111.29 301.85 Q2109.97 300.045 2107.26 300.045 Q2103.95 300.045 2102.03 302.244 Q2100.11 304.443 2100.11 308.239 L2100.11 322.892 L2095.82 322.892 L2095.82 307.383 Q2095.82 303.633 2094.51 301.85 Q2093.19 300.045 2090.43 300.045 Q2087.17 300.045 2085.25 302.267 Q2083.32 304.466 2083.32 308.239 L2083.32 322.892 L2079.04 322.892 L2079.04 296.966 L2083.32 296.966 L2083.32 300.994 Q2084.78 298.609 2086.82 297.475 Q2088.86 296.341 2091.66 296.341 Q2094.48 296.341 2096.45 297.776 Q2098.44 299.211 2099.39 301.943 Z" fill="#000000" fill-rule="nonzero" fill-opacity="1" /><path clip-path="url(#clip440)" d="M2147.56 308.864 L2147.56 310.947 L2127.98 310.947 Q2128.26 315.345 2130.62 317.66 Q2133 319.952 2137.24 319.952 Q2139.69 319.952 2141.98 319.35 Q2144.3 318.748 2146.57 317.545 L2146.57 321.572 Q2144.27 322.544 2141.87 323.054 Q2139.46 323.563 2136.98 323.563 Q2130.78 323.563 2127.14 319.952 Q2123.53 316.341 2123.53 310.183 Q2123.53 303.818 2126.96 300.091 Q2130.41 296.341 2136.24 296.341 Q2141.47 296.341 2144.51 299.721 Q2147.56 303.077 2147.56 308.864 M2143.3 307.614 Q2143.26 304.119 2141.33 302.035 Q2139.44 299.952 2136.29 299.952 Q2132.72 299.952 2130.57 301.966 Q2128.44 303.98 2128.12 307.637 L2143.3 307.614 Z" fill="#000000" fill-rule="nonzero" fill-opacity="1" /><path clip-path="url(#clip440)" d="M2171.61 300.901 L2171.61 286.873 L2175.87 286.873 L2175.87 322.892 L2171.61 322.892 L2171.61 319.003 Q2170.27 321.318 2168.21 322.452 Q2166.17 323.563 2163.3 323.563 Q2158.6 323.563 2155.64 319.813 Q2152.7 316.063 2152.7 309.952 Q2152.7 303.841 2155.64 300.091 Q2158.6 296.341 2163.3 296.341 Q2166.17 296.341 2168.21 297.475 Q2170.27 298.586 2171.61 300.901 M2157.1 309.952 Q2157.1 314.651 2159.02 317.336 Q2160.96 319.998 2164.34 319.998 Q2167.72 319.998 2169.67 317.336 Q2171.61 314.651 2171.61 309.952 Q2171.61 305.253 2169.67 302.591 Q2167.72 299.906 2164.34 299.906 Q2160.96 299.906 2159.02 302.591 Q2157.1 305.253 2157.1 309.952 Z" fill="#000000" fill-rule="nonzero" fill-opacity="1" /><path clip-path="url(#clip440)" d="M2184.64 296.966 L2188.9 296.966 L2188.9 322.892 L2184.64 322.892 L2184.64 296.966 M2184.64 286.873 L2188.9 286.873 L2188.9 292.267 L2184.64 292.267 L2184.64 286.873 Z" fill="#000000" fill-rule="nonzero" fill-opacity="1" /><path clip-path="url(#clip440)" d="M2209.6 309.859 Q2204.44 309.859 2202.44 311.04 Q2200.45 312.22 2200.45 315.068 Q2200.45 317.336 2201.94 318.679 Q2203.44 319.998 2206.01 319.998 Q2209.55 319.998 2211.68 317.498 Q2213.83 314.975 2213.83 310.808 L2213.83 309.859 L2209.6 309.859 M2218.09 308.1 L2218.09 322.892 L2213.83 322.892 L2213.83 318.957 Q2212.38 321.318 2210.2 322.452 Q2208.02 323.563 2204.88 323.563 Q2200.89 323.563 2198.53 321.341 Q2196.19 319.095 2196.19 315.345 Q2196.19 310.97 2199.11 308.748 Q2202.05 306.526 2207.86 306.526 L2213.83 306.526 L2213.83 306.109 Q2213.83 303.17 2211.89 301.572 Q2209.97 299.952 2206.47 299.952 Q2204.25 299.952 2202.14 300.484 Q2200.04 301.017 2198.09 302.082 L2198.09 298.146 Q2200.43 297.244 2202.63 296.804 Q2204.83 296.341 2206.91 296.341 Q2212.54 296.341 2215.31 299.258 Q2218.09 302.174 2218.09 308.1 Z" fill="#000000" fill-rule="nonzero" fill-opacity="1" /><path clip-path="url(#clip440)" d="M2248.42 307.244 L2248.42 322.892 L2244.16 322.892 L2244.16 307.383 Q2244.16 303.702 2242.72 301.873 Q2241.29 300.045 2238.42 300.045 Q2234.97 300.045 2232.98 302.244 Q2230.99 304.443 2230.99 308.239 L2230.99 322.892 L2226.7 322.892 L2226.7 296.966 L2230.99 296.966 L2230.99 300.994 Q2232.51 298.656 2234.57 297.498 Q2236.66 296.341 2239.37 296.341 Q2243.83 296.341 2246.12 299.119 Q2248.42 301.873 2248.42 307.244 Z" fill="#000000" fill-rule="nonzero" fill-opacity="1" /></svg>
