<?xml version="1.0" encoding="utf-8"?>
<svg xmlns="http://www.w3.org/2000/svg" xmlns:xlink="http://www.w3.org/1999/xlink" width="600" height="400" viewBox="0 0 2400 1600">
<defs>
  <clipPath id="clip620">
    <rect x="0" y="0" width="2400" height="1600"/>
  </clipPath>
</defs>
<path clip-path="url(#clip620)" d="M0 1600 L2400 1600 L2400 8.88178e-14 L0 8.88178e-14  Z" fill="#ffffff" fill-rule="evenodd" fill-opacity="1"/>
<defs>
  <clipPath id="clip621">
    <rect x="234" y="106" width="2120" height="1318"/>
  </clipPath>
</defs>
<path clip-path="url(#clip620)" d="M205.121 1423.18 L2352.76 1423.18 L2352.76 106.192 L205.121 106.192  Z" fill="#ffffff" fill-rule="evenodd" fill-opacity="1"/>
<defs>
  <clipPath id="clip622">
    <rect x="205" y="106" width="2149" height="1318"/>
  </clipPath>
</defs>
<polyline clip-path="url(#clip622)" style="stroke:#000000; stroke-linecap:round; stroke-linejoin:round; stroke-width:2; stroke-opacity:0.1; fill:none" points="267.027,1423.18 267.027,106.192 "/>
<polyline clip-path="url(#clip622)" style="stroke:#000000; stroke-linecap:round; stroke-linejoin:round; stroke-width:2; stroke-opacity:0.1; fill:none" points="829.2,1423.18 829.2,106.192 "/>
<polyline clip-path="url(#clip622)" style="stroke:#000000; stroke-linecap:round; stroke-linejoin:round; stroke-width:2; stroke-opacity:0.1; fill:none" points="1391.37,1423.18 1391.37,106.192 "/>
<polyline clip-path="url(#clip622)" style="stroke:#000000; stroke-linecap:round; stroke-linejoin:round; stroke-width:2; stroke-opacity:0.1; fill:none" points="1953.55,1423.18 1953.55,106.192 "/>
<polyline clip-path="url(#clip622)" style="stroke:#000000; stroke-linecap:round; stroke-linejoin:round; stroke-width:2; stroke-opacity:0.1; fill:none" points="205.121,1423.18 2352.76,1423.18 "/>
<polyline clip-path="url(#clip622)" style="stroke:#000000; stroke-linecap:round; stroke-linejoin:round; stroke-width:2; stroke-opacity:0.1; fill:none" points="205.121,1062.36 2352.76,1062.36 "/>
<polyline clip-path="url(#clip622)" style="stroke:#000000; stroke-linecap:round; stroke-linejoin:round; stroke-width:2; stroke-opacity:0.1; fill:none" points="205.121,701.543 2352.76,701.543 "/>
<polyline clip-path="url(#clip622)" style="stroke:#000000; stroke-linecap:round; stroke-linejoin:round; stroke-width:2; stroke-opacity:0.1; fill:none" points="205.121,340.724 2352.76,340.724 "/>
<polyline clip-path="url(#clip620)" style="stroke:#000000; stroke-linecap:round; stroke-linejoin:round; stroke-width:4; stroke-opacity:1; fill:none" points="205.121,1423.18 2352.76,1423.18 "/>
<polyline clip-path="url(#clip620)" style="stroke:#000000; stroke-linecap:round; stroke-linejoin:round; stroke-width:4; stroke-opacity:1; fill:none" points="267.027,1423.18 267.027,1404.28 "/>
<polyline clip-path="url(#clip620)" style="stroke:#000000; stroke-linecap:round; stroke-linejoin:round; stroke-width:4; stroke-opacity:1; fill:none" points="829.2,1423.18 829.2,1404.28 "/>
<polyline clip-path="url(#clip620)" style="stroke:#000000; stroke-linecap:round; stroke-linejoin:round; stroke-width:4; stroke-opacity:1; fill:none" points="1391.37,1423.18 1391.37,1404.28 "/>
<polyline clip-path="url(#clip620)" style="stroke:#000000; stroke-linecap:round; stroke-linejoin:round; stroke-width:4; stroke-opacity:1; fill:none" points="1953.55,1423.18 1953.55,1404.28 "/>
<path clip-path="url(#clip620)" d="M267.027 1454.1 Q263.416 1454.1 261.588 1457.66 Q259.782 1461.2 259.782 1468.33 Q259.782 1475.44 261.588 1479.01 Q263.416 1482.55 267.027 1482.55 Q270.662 1482.55 272.467 1479.01 Q274.296 1475.44 274.296 1468.33 Q274.296 1461.2 272.467 1457.66 Q270.662 1454.1 267.027 1454.1 M267.027 1450.39 Q272.838 1450.39 275.893 1455 Q278.972 1459.58 278.972 1468.33 Q278.972 1477.06 275.893 1481.67 Q272.838 1486.25 267.027 1486.25 Q261.217 1486.25 258.139 1481.67 Q255.083 1477.06 255.083 1468.33 Q255.083 1459.58 258.139 1455 Q261.217 1450.39 267.027 1450.39 Z" fill="#000000" fill-rule="nonzero" fill-opacity="1" /><path clip-path="url(#clip620)" d="M792.893 1481.64 L809.212 1481.64 L809.212 1485.58 L787.268 1485.58 L787.268 1481.64 Q789.93 1478.89 794.513 1474.26 Q799.119 1469.61 800.3 1468.27 Q802.545 1465.74 803.425 1464.01 Q804.328 1462.25 804.328 1460.56 Q804.328 1457.8 802.383 1456.07 Q800.462 1454.33 797.36 1454.33 Q795.161 1454.33 792.707 1455.09 Q790.277 1455.86 787.499 1457.41 L787.499 1452.69 Q790.323 1451.55 792.777 1450.97 Q795.23 1450.39 797.268 1450.39 Q802.638 1450.39 805.832 1453.08 Q809.027 1455.77 809.027 1460.26 Q809.027 1462.39 808.217 1464.31 Q807.43 1466.2 805.323 1468.8 Q804.744 1469.47 801.642 1472.69 Q798.541 1475.88 792.893 1481.64 Z" fill="#000000" fill-rule="nonzero" fill-opacity="1" /><path clip-path="url(#clip620)" d="M829.027 1454.1 Q825.416 1454.1 823.587 1457.66 Q821.781 1461.2 821.781 1468.33 Q821.781 1475.44 823.587 1479.01 Q825.416 1482.55 829.027 1482.55 Q832.661 1482.55 834.466 1479.01 Q836.295 1475.44 836.295 1468.33 Q836.295 1461.2 834.466 1457.66 Q832.661 1454.1 829.027 1454.1 M829.027 1450.39 Q834.837 1450.39 837.892 1455 Q840.971 1459.58 840.971 1468.33 Q840.971 1477.06 837.892 1481.67 Q834.837 1486.25 829.027 1486.25 Q823.216 1486.25 820.138 1481.67 Q817.082 1477.06 817.082 1468.33 Q817.082 1459.58 820.138 1455 Q823.216 1450.39 829.027 1450.39 Z" fill="#000000" fill-rule="nonzero" fill-opacity="1" /><path clip-path="url(#clip620)" d="M859.188 1454.1 Q855.577 1454.1 853.749 1457.66 Q851.943 1461.2 851.943 1468.33 Q851.943 1475.44 853.749 1479.01 Q855.577 1482.55 859.188 1482.55 Q862.823 1482.55 864.628 1479.01 Q866.457 1475.44 866.457 1468.33 Q866.457 1461.2 864.628 1457.66 Q862.823 1454.1 859.188 1454.1 M859.188 1450.39 Q864.999 1450.39 868.054 1455 Q871.133 1459.58 871.133 1468.33 Q871.133 1477.06 868.054 1481.67 Q864.999 1486.25 859.188 1486.25 Q853.378 1486.25 850.3 1481.67 Q847.244 1477.06 847.244 1468.33 Q847.244 1459.58 850.3 1455 Q853.378 1450.39 859.188 1450.39 Z" fill="#000000" fill-rule="nonzero" fill-opacity="1" /><path clip-path="url(#clip620)" d="M1364.46 1455.09 L1352.66 1473.54 L1364.46 1473.54 L1364.46 1455.09 M1363.24 1451.02 L1369.12 1451.02 L1369.12 1473.54 L1374.05 1473.54 L1374.05 1477.43 L1369.12 1477.43 L1369.12 1485.58 L1364.46 1485.58 L1364.46 1477.43 L1348.86 1477.43 L1348.86 1472.92 L1363.24 1451.02 Z" fill="#000000" fill-rule="nonzero" fill-opacity="1" /><path clip-path="url(#clip620)" d="M1391.78 1454.1 Q1388.17 1454.1 1386.34 1457.66 Q1384.53 1461.2 1384.53 1468.33 Q1384.53 1475.44 1386.34 1479.01 Q1388.17 1482.55 1391.78 1482.55 Q1395.41 1482.55 1397.22 1479.01 Q1399.05 1475.44 1399.05 1468.33 Q1399.05 1461.2 1397.22 1457.66 Q1395.41 1454.1 1391.78 1454.1 M1391.78 1450.39 Q1397.59 1450.39 1400.64 1455 Q1403.72 1459.58 1403.72 1468.33 Q1403.72 1477.06 1400.64 1481.67 Q1397.59 1486.25 1391.78 1486.25 Q1385.97 1486.25 1382.89 1481.67 Q1379.83 1477.06 1379.83 1468.33 Q1379.83 1459.58 1382.89 1455 Q1385.97 1450.39 1391.78 1450.39 Z" fill="#000000" fill-rule="nonzero" fill-opacity="1" /><path clip-path="url(#clip620)" d="M1421.94 1454.1 Q1418.33 1454.1 1416.5 1457.66 Q1414.69 1461.2 1414.69 1468.33 Q1414.69 1475.44 1416.5 1479.01 Q1418.33 1482.55 1421.94 1482.55 Q1425.57 1482.55 1427.38 1479.01 Q1429.21 1475.44 1429.21 1468.33 Q1429.21 1461.2 1427.38 1457.66 Q1425.57 1454.1 1421.94 1454.1 M1421.94 1450.39 Q1427.75 1450.39 1430.81 1455 Q1433.88 1459.58 1433.88 1468.33 Q1433.88 1477.06 1430.81 1481.67 Q1427.75 1486.25 1421.94 1486.25 Q1416.13 1486.25 1413.05 1481.67 Q1410 1477.06 1410 1468.33 Q1410 1459.58 1413.05 1455 Q1416.13 1450.39 1421.94 1450.39 Z" fill="#000000" fill-rule="nonzero" fill-opacity="1" /><path clip-path="url(#clip620)" d="M1923.87 1466.44 Q1920.72 1466.44 1918.87 1468.59 Q1917.04 1470.74 1917.04 1474.49 Q1917.04 1478.22 1918.87 1480.39 Q1920.72 1482.55 1923.87 1482.55 Q1927.02 1482.55 1928.85 1480.39 Q1930.7 1478.22 1930.7 1474.49 Q1930.7 1470.74 1928.85 1468.59 Q1927.02 1466.44 1923.87 1466.44 M1933.15 1451.78 L1933.15 1456.04 Q1931.39 1455.21 1929.59 1454.77 Q1927.81 1454.33 1926.05 1454.33 Q1921.42 1454.33 1918.96 1457.45 Q1916.53 1460.58 1916.18 1466.9 Q1917.55 1464.89 1919.61 1463.82 Q1921.67 1462.73 1924.15 1462.73 Q1929.36 1462.73 1932.37 1465.9 Q1935.4 1469.05 1935.4 1474.49 Q1935.4 1479.82 1932.25 1483.03 Q1929.1 1486.25 1923.87 1486.25 Q1917.87 1486.25 1914.7 1481.67 Q1911.53 1477.06 1911.53 1468.33 Q1911.53 1460.14 1915.42 1455.28 Q1919.31 1450.39 1925.86 1450.39 Q1927.62 1450.39 1929.4 1450.74 Q1931.21 1451.09 1933.15 1451.78 Z" fill="#000000" fill-rule="nonzero" fill-opacity="1" /><path clip-path="url(#clip620)" d="M1953.45 1454.1 Q1949.84 1454.1 1948.01 1457.66 Q1946.21 1461.2 1946.21 1468.33 Q1946.21 1475.44 1948.01 1479.01 Q1949.84 1482.55 1953.45 1482.55 Q1957.09 1482.55 1958.89 1479.01 Q1960.72 1475.44 1960.72 1468.33 Q1960.72 1461.2 1958.89 1457.66 Q1957.09 1454.1 1953.45 1454.1 M1953.45 1450.39 Q1959.26 1450.39 1962.32 1455 Q1965.4 1459.58 1965.4 1468.33 Q1965.4 1477.06 1962.32 1481.67 Q1959.26 1486.25 1953.45 1486.25 Q1947.64 1486.25 1944.56 1481.67 Q1941.51 1477.06 1941.51 1468.33 Q1941.51 1459.58 1944.56 1455 Q1947.64 1450.39 1953.45 1450.39 Z" fill="#000000" fill-rule="nonzero" fill-opacity="1" /><path clip-path="url(#clip620)" d="M1983.62 1454.1 Q1980 1454.1 1978.18 1457.66 Q1976.37 1461.2 1976.37 1468.33 Q1976.37 1475.44 1978.18 1479.01 Q1980 1482.55 1983.62 1482.55 Q1987.25 1482.55 1989.05 1479.01 Q1990.88 1475.44 1990.88 1468.33 Q1990.88 1461.2 1989.05 1457.66 Q1987.25 1454.1 1983.62 1454.1 M1983.62 1450.39 Q1989.43 1450.39 1992.48 1455 Q1995.56 1459.58 1995.56 1468.33 Q1995.56 1477.06 1992.48 1481.67 Q1989.43 1486.25 1983.62 1486.25 Q1977.8 1486.25 1974.73 1481.67 Q1971.67 1477.06 1971.67 1468.33 Q1971.67 1459.58 1974.73 1455 Q1977.8 1450.39 1983.62 1450.39 Z" fill="#000000" fill-rule="nonzero" fill-opacity="1" /><path clip-path="url(#clip620)" d="M1051.36 1520.52 L1091.56 1520.52 L1091.56 1525.93 L1074.69 1525.93 L1074.69 1568.04 L1068.23 1568.04 L1068.23 1525.93 L1051.36 1525.93 L1051.36 1520.52 Z" fill="#000000" fill-rule="nonzero" fill-opacity="1" /><path clip-path="url(#clip620)" d="M1116.93 1548.76 L1116.93 1551.62 L1090 1551.62 Q1090.39 1557.67 1093.63 1560.85 Q1096.91 1564 1102.74 1564 Q1106.11 1564 1109.26 1563.17 Q1112.44 1562.35 1115.56 1560.69 L1115.56 1566.23 Q1112.41 1567.57 1109.1 1568.27 Q1105.79 1568.97 1102.39 1568.97 Q1093.86 1568.97 1088.86 1564 Q1083.89 1559.04 1083.89 1550.57 Q1083.89 1541.82 1088.6 1536.69 Q1093.35 1531.54 1101.37 1531.54 Q1108.56 1531.54 1112.73 1536.18 Q1116.93 1540.8 1116.93 1548.76 M1111.07 1547.04 Q1111.01 1542.23 1108.37 1539.37 Q1105.76 1536.5 1101.43 1536.5 Q1096.53 1536.5 1093.57 1539.27 Q1090.64 1542.04 1090.2 1547.07 L1111.07 1547.04 Z" fill="#000000" fill-rule="nonzero" fill-opacity="1" /><path clip-path="url(#clip620)" d="M1147.2 1537.87 Q1146.21 1537.3 1145.04 1537.04 Q1143.89 1536.76 1142.49 1536.76 Q1137.52 1536.76 1134.85 1540 Q1132.21 1543.22 1132.21 1549.27 L1132.21 1568.04 L1126.32 1568.04 L1126.32 1532.4 L1132.21 1532.4 L1132.21 1537.93 Q1134.05 1534.69 1137.02 1533.13 Q1139.98 1531.54 1144.21 1531.54 Q1144.81 1531.54 1145.55 1531.63 Q1146.28 1531.7 1147.17 1531.85 L1147.2 1537.87 Z" fill="#000000" fill-rule="nonzero" fill-opacity="1" /><path clip-path="url(#clip620)" d="M1179.95 1539.24 Q1182.15 1535.29 1185.2 1533.41 Q1188.26 1531.54 1192.4 1531.54 Q1197.97 1531.54 1200.99 1535.45 Q1204.01 1539.33 1204.01 1546.53 L1204.01 1568.04 L1198.13 1568.04 L1198.13 1546.72 Q1198.13 1541.59 1196.31 1539.11 Q1194.5 1536.63 1190.77 1536.63 Q1186.22 1536.63 1183.58 1539.65 Q1180.94 1542.68 1180.94 1547.9 L1180.94 1568.04 L1175.05 1568.04 L1175.05 1546.72 Q1175.05 1541.56 1173.24 1539.11 Q1171.42 1536.63 1167.63 1536.63 Q1163.15 1536.63 1160.5 1539.68 Q1157.86 1542.71 1157.86 1547.9 L1157.86 1568.04 L1151.97 1568.04 L1151.97 1532.4 L1157.86 1532.4 L1157.86 1537.93 Q1159.87 1534.66 1162.67 1533.1 Q1165.47 1531.54 1169.32 1531.54 Q1173.2 1531.54 1175.91 1533.51 Q1178.65 1535.48 1179.95 1539.24 Z" fill="#000000" fill-rule="nonzero" fill-opacity="1" /><path clip-path="url(#clip620)" d="M1215.7 1532.4 L1221.55 1532.4 L1221.55 1568.04 L1215.7 1568.04 L1215.7 1532.4 M1215.7 1518.52 L1221.55 1518.52 L1221.55 1525.93 L1215.7 1525.93 L1215.7 1518.52 Z" fill="#000000" fill-rule="nonzero" fill-opacity="1" /><path clip-path="url(#clip620)" d="M1263.44 1546.53 L1263.44 1568.04 L1257.58 1568.04 L1257.58 1546.72 Q1257.58 1541.66 1255.61 1539.14 Q1253.63 1536.63 1249.69 1536.63 Q1244.95 1536.63 1242.21 1539.65 Q1239.47 1542.68 1239.47 1547.9 L1239.47 1568.04 L1233.58 1568.04 L1233.58 1532.4 L1239.47 1532.4 L1239.47 1537.93 Q1241.57 1534.72 1244.4 1533.13 Q1247.27 1531.54 1250.99 1531.54 Q1257.14 1531.54 1260.29 1535.36 Q1263.44 1539.14 1263.44 1546.53 Z" fill="#000000" fill-rule="nonzero" fill-opacity="1" /><path clip-path="url(#clip620)" d="M1291.32 1550.12 Q1284.22 1550.12 1281.48 1551.75 Q1278.75 1553.37 1278.75 1557.29 Q1278.75 1560.4 1280.78 1562.25 Q1282.85 1564.07 1286.39 1564.07 Q1291.26 1564.07 1294.18 1560.63 Q1297.14 1557.16 1297.14 1551.43 L1297.14 1550.12 L1291.32 1550.12 M1303 1547.71 L1303 1568.04 L1297.14 1568.04 L1297.14 1562.63 Q1295.14 1565.88 1292.15 1567.44 Q1289.16 1568.97 1284.83 1568.97 Q1279.35 1568.97 1276.11 1565.91 Q1272.89 1562.82 1272.89 1557.67 Q1272.89 1551.65 1276.9 1548.6 Q1280.94 1545.54 1288.93 1545.54 L1297.14 1545.54 L1297.14 1544.97 Q1297.14 1540.93 1294.47 1538.73 Q1291.83 1536.5 1287.02 1536.5 Q1283.97 1536.5 1281.07 1537.23 Q1278.17 1537.97 1275.5 1539.43 L1275.5 1534.02 Q1278.72 1532.78 1281.74 1532.17 Q1284.76 1531.54 1287.63 1531.54 Q1295.36 1531.54 1299.18 1535.55 Q1303 1539.56 1303 1547.71 Z" fill="#000000" fill-rule="nonzero" fill-opacity="1" /><path clip-path="url(#clip620)" d="M1315.06 1518.52 L1320.92 1518.52 L1320.92 1568.04 L1315.06 1568.04 L1315.06 1518.52 Z" fill="#000000" fill-rule="nonzero" fill-opacity="1" /><path clip-path="url(#clip620)" d="M1359.56 1562.7 L1359.56 1581.6 L1353.67 1581.6 L1353.67 1532.4 L1359.56 1532.4 L1359.56 1537.81 Q1361.41 1534.62 1364.21 1533.1 Q1367.04 1531.54 1370.95 1531.54 Q1377.45 1531.54 1381.49 1536.69 Q1385.56 1541.85 1385.56 1550.25 Q1385.56 1558.65 1381.49 1563.81 Q1377.45 1568.97 1370.95 1568.97 Q1367.04 1568.97 1364.21 1567.44 Q1361.41 1565.88 1359.56 1562.7 M1379.48 1550.25 Q1379.48 1543.79 1376.81 1540.13 Q1374.17 1536.44 1369.52 1536.44 Q1364.88 1536.44 1362.2 1540.13 Q1359.56 1543.79 1359.56 1550.25 Q1359.56 1556.71 1362.2 1560.4 Q1364.88 1564.07 1369.52 1564.07 Q1374.17 1564.07 1376.81 1560.4 Q1379.48 1556.71 1379.48 1550.25 Z" fill="#000000" fill-rule="nonzero" fill-opacity="1" /><path clip-path="url(#clip620)" d="M1415.93 1537.87 Q1414.94 1537.3 1413.76 1537.04 Q1412.62 1536.76 1411.22 1536.76 Q1406.25 1536.76 1403.58 1540 Q1400.94 1543.22 1400.94 1549.27 L1400.94 1568.04 L1395.05 1568.04 L1395.05 1532.4 L1400.94 1532.4 L1400.94 1537.93 Q1402.78 1534.69 1405.74 1533.13 Q1408.7 1531.54 1412.94 1531.54 Q1413.54 1531.54 1414.27 1531.63 Q1415.01 1531.7 1415.9 1531.85 L1415.93 1537.87 Z" fill="#000000" fill-rule="nonzero" fill-opacity="1" /><path clip-path="url(#clip620)" d="M1422.07 1532.4 L1427.93 1532.4 L1427.93 1568.04 L1422.07 1568.04 L1422.07 1532.4 M1422.07 1518.52 L1427.93 1518.52 L1427.93 1525.93 L1422.07 1525.93 L1422.07 1518.52 Z" fill="#000000" fill-rule="nonzero" fill-opacity="1" /><path clip-path="url(#clip620)" d="M1465.84 1533.76 L1465.84 1539.24 Q1463.35 1537.87 1460.84 1537.2 Q1458.36 1536.5 1455.81 1536.5 Q1450.11 1536.5 1446.96 1540.13 Q1443.81 1543.73 1443.81 1550.25 Q1443.81 1556.78 1446.96 1560.4 Q1450.11 1564 1455.81 1564 Q1458.36 1564 1460.84 1563.33 Q1463.35 1562.63 1465.84 1561.26 L1465.84 1566.68 Q1463.38 1567.82 1460.74 1568.39 Q1458.13 1568.97 1455.17 1568.97 Q1447.12 1568.97 1442.38 1563.91 Q1437.64 1558.85 1437.64 1550.25 Q1437.64 1541.53 1442.41 1536.53 Q1447.22 1531.54 1455.55 1531.54 Q1458.26 1531.54 1460.84 1532.11 Q1463.42 1532.65 1465.84 1533.76 Z" fill="#000000" fill-rule="nonzero" fill-opacity="1" /><path clip-path="url(#clip620)" d="M1506.51 1548.76 L1506.51 1551.62 L1479.59 1551.62 Q1479.97 1557.67 1483.21 1560.85 Q1486.49 1564 1492.32 1564 Q1495.69 1564 1498.84 1563.17 Q1502.02 1562.35 1505.14 1560.69 L1505.14 1566.23 Q1501.99 1567.57 1498.68 1568.27 Q1495.37 1568.97 1491.97 1568.97 Q1483.44 1568.97 1478.44 1564 Q1473.47 1559.04 1473.47 1550.57 Q1473.47 1541.82 1478.19 1536.69 Q1482.93 1531.54 1490.95 1531.54 Q1498.14 1531.54 1502.31 1536.18 Q1506.51 1540.8 1506.51 1548.76 M1500.66 1547.04 Q1500.59 1542.23 1497.95 1539.37 Q1495.34 1536.5 1491.01 1536.5 Q1486.11 1536.5 1483.15 1539.27 Q1480.22 1542.04 1479.78 1547.07 L1500.66 1547.04 Z" fill="#000000" fill-rule="nonzero" fill-opacity="1" /><polyline clip-path="url(#clip620)" style="stroke:#000000; stroke-linecap:round; stroke-linejoin:round; stroke-width:4; stroke-opacity:1; fill:none" points="205.121,1423.18 205.121,106.192 "/>
<polyline clip-path="url(#clip620)" style="stroke:#000000; stroke-linecap:round; stroke-linejoin:round; stroke-width:4; stroke-opacity:1; fill:none" points="205.121,1423.18 224.019,1423.18 "/>
<polyline clip-path="url(#clip620)" style="stroke:#000000; stroke-linecap:round; stroke-linejoin:round; stroke-width:4; stroke-opacity:1; fill:none" points="205.121,1062.36 224.019,1062.36 "/>
<polyline clip-path="url(#clip620)" style="stroke:#000000; stroke-linecap:round; stroke-linejoin:round; stroke-width:4; stroke-opacity:1; fill:none" points="205.121,701.543 224.019,701.543 "/>
<polyline clip-path="url(#clip620)" style="stroke:#000000; stroke-linecap:round; stroke-linejoin:round; stroke-width:4; stroke-opacity:1; fill:none" points="205.121,340.724 224.019,340.724 "/>
<path clip-path="url(#clip620)" d="M157.177 1408.98 Q153.566 1408.98 151.737 1412.54 Q149.931 1416.08 149.931 1423.21 Q149.931 1430.32 151.737 1433.89 Q153.566 1437.43 157.177 1437.43 Q160.811 1437.43 162.616 1433.89 Q164.445 1430.32 164.445 1423.21 Q164.445 1416.08 162.616 1412.54 Q160.811 1408.98 157.177 1408.98 M157.177 1405.27 Q162.987 1405.27 166.042 1409.88 Q169.121 1414.46 169.121 1423.21 Q169.121 1431.94 166.042 1436.55 Q162.987 1441.13 157.177 1441.13 Q151.366 1441.13 148.288 1436.55 Q145.232 1431.94 145.232 1423.21 Q145.232 1414.46 148.288 1409.88 Q151.366 1405.27 157.177 1405.27 Z" fill="#000000" fill-rule="nonzero" fill-opacity="1" /><path clip-path="url(#clip620)" d="M121.043 1075.71 L137.362 1075.71 L137.362 1079.64 L115.418 1079.64 L115.418 1075.71 Q118.08 1072.95 122.663 1068.32 Q127.269 1063.67 128.45 1062.33 Q130.695 1059.8 131.575 1058.07 Q132.478 1056.31 132.478 1054.62 Q132.478 1051.86 130.533 1050.13 Q128.612 1048.39 125.51 1048.39 Q123.311 1048.39 120.857 1049.16 Q118.427 1049.92 115.649 1051.47 L115.649 1046.75 Q118.473 1045.61 120.927 1045.03 Q123.38 1044.46 125.418 1044.46 Q130.788 1044.46 133.982 1047.14 Q137.177 1049.83 137.177 1054.32 Q137.177 1056.45 136.367 1058.37 Q135.579 1060.27 133.473 1062.86 Q132.894 1063.53 129.792 1066.75 Q126.691 1069.94 121.043 1075.71 Z" fill="#000000" fill-rule="nonzero" fill-opacity="1" /><path clip-path="url(#clip620)" d="M157.177 1048.16 Q153.566 1048.16 151.737 1051.72 Q149.931 1055.27 149.931 1062.4 Q149.931 1069.5 151.737 1073.07 Q153.566 1076.61 157.177 1076.61 Q160.811 1076.61 162.616 1073.07 Q164.445 1069.5 164.445 1062.4 Q164.445 1055.27 162.616 1051.72 Q160.811 1048.16 157.177 1048.16 M157.177 1044.46 Q162.987 1044.46 166.042 1049.06 Q169.121 1053.65 169.121 1062.4 Q169.121 1071.12 166.042 1075.73 Q162.987 1080.31 157.177 1080.31 Q151.366 1080.31 148.288 1075.73 Q145.232 1071.12 145.232 1062.4 Q145.232 1053.65 148.288 1049.06 Q151.366 1044.46 157.177 1044.46 Z" fill="#000000" fill-rule="nonzero" fill-opacity="1" /><path clip-path="url(#clip620)" d="M129.862 688.337 L118.056 706.786 L129.862 706.786 L129.862 688.337 M128.635 684.263 L134.515 684.263 L134.515 706.786 L139.445 706.786 L139.445 710.675 L134.515 710.675 L134.515 718.823 L129.862 718.823 L129.862 710.675 L114.26 710.675 L114.26 706.161 L128.635 684.263 Z" fill="#000000" fill-rule="nonzero" fill-opacity="1" /><path clip-path="url(#clip620)" d="M157.177 687.341 Q153.566 687.341 151.737 690.906 Q149.931 694.448 149.931 701.577 Q149.931 708.684 151.737 712.249 Q153.566 715.79 157.177 715.79 Q160.811 715.79 162.616 712.249 Q164.445 708.684 164.445 701.577 Q164.445 694.448 162.616 690.906 Q160.811 687.341 157.177 687.341 M157.177 683.638 Q162.987 683.638 166.042 688.244 Q169.121 692.828 169.121 701.577 Q169.121 710.304 166.042 714.911 Q162.987 719.494 157.177 719.494 Q151.366 719.494 148.288 714.911 Q145.232 710.304 145.232 701.577 Q145.232 692.828 148.288 688.244 Q151.366 683.638 157.177 683.638 Z" fill="#000000" fill-rule="nonzero" fill-opacity="1" /><path clip-path="url(#clip620)" d="M127.593 338.861 Q124.445 338.861 122.593 341.014 Q120.765 343.166 120.765 346.916 Q120.765 350.643 122.593 352.819 Q124.445 354.972 127.593 354.972 Q130.742 354.972 132.57 352.819 Q134.422 350.643 134.422 346.916 Q134.422 343.166 132.57 341.014 Q130.742 338.861 127.593 338.861 M136.876 324.208 L136.876 328.467 Q135.117 327.634 133.311 327.194 Q131.529 326.754 129.769 326.754 Q125.14 326.754 122.686 329.879 Q120.255 333.004 119.908 339.324 Q121.274 337.31 123.334 336.245 Q125.394 335.157 127.871 335.157 Q133.08 335.157 136.089 338.328 Q139.121 341.476 139.121 346.916 Q139.121 352.24 135.973 355.458 Q132.825 358.675 127.593 358.675 Q121.598 358.675 118.427 354.092 Q115.256 349.486 115.256 340.759 Q115.256 332.565 119.144 327.703 Q123.033 322.819 129.584 322.819 Q131.343 322.819 133.126 323.166 Q134.931 323.514 136.876 324.208 Z" fill="#000000" fill-rule="nonzero" fill-opacity="1" /><path clip-path="url(#clip620)" d="M157.177 326.523 Q153.566 326.523 151.737 330.088 Q149.931 333.629 149.931 340.759 Q149.931 347.865 151.737 351.43 Q153.566 354.972 157.177 354.972 Q160.811 354.972 162.616 351.43 Q164.445 347.865 164.445 340.759 Q164.445 333.629 162.616 330.088 Q160.811 326.523 157.177 326.523 M157.177 322.819 Q162.987 322.819 166.042 327.426 Q169.121 332.009 169.121 340.759 Q169.121 349.486 166.042 354.092 Q162.987 358.675 157.177 358.675 Q151.366 358.675 148.288 354.092 Q145.232 349.486 145.232 340.759 Q145.232 332.009 148.288 327.426 Q151.366 322.819 157.177 322.819 Z" fill="#000000" fill-rule="nonzero" fill-opacity="1" /><path clip-path="url(#clip620)" d="M20.1444 820.545 L26.9239 820.545 Q23.9002 823.792 22.4043 827.484 Q20.9083 831.144 20.9083 835.282 Q20.9083 843.43 25.9054 847.758 Q30.8707 852.087 40.2919 852.087 Q49.6813 852.087 54.6784 847.758 Q59.6436 843.43 59.6436 835.282 Q59.6436 831.144 58.1477 827.484 Q56.6518 823.792 53.6281 820.545 L60.3439 820.545 Q62.6355 823.919 63.7814 827.706 Q64.9272 831.462 64.9272 835.664 Q64.9272 846.453 58.3387 852.66 Q51.7183 858.867 40.2919 858.867 Q28.8336 858.867 22.2451 852.66 Q15.6248 846.453 15.6248 835.664 Q15.6248 831.399 16.7706 827.643 Q17.8846 823.855 20.1444 820.545 Z" fill="#000000" fill-rule="nonzero" fill-opacity="1" /><path clip-path="url(#clip620)" d="M32.4621 797.056 Q32.4621 801.766 36.1542 804.503 Q39.8145 807.241 46.212 807.241 Q52.6095 807.241 56.3017 804.535 Q59.9619 801.798 59.9619 797.056 Q59.9619 792.377 56.2698 789.64 Q52.5777 786.902 46.212 786.902 Q39.8781 786.902 36.186 789.64 Q32.4621 792.377 32.4621 797.056 M27.4968 797.056 Q27.4968 789.417 32.4621 785.056 Q37.4273 780.696 46.212 780.696 Q54.9649 780.696 59.9619 785.056 Q64.9272 789.417 64.9272 797.056 Q64.9272 804.726 59.9619 809.087 Q54.9649 813.415 46.212 813.415 Q37.4273 813.415 32.4621 809.087 Q27.4968 804.726 27.4968 797.056 Z" fill="#000000" fill-rule="nonzero" fill-opacity="1" /><path clip-path="url(#clip620)" d="M49.9359 771.593 L28.3562 771.593 L28.3562 765.736 L49.7131 765.736 Q54.7739 765.736 57.3202 763.763 Q59.8346 761.79 59.8346 757.843 Q59.8346 753.1 56.8109 750.363 Q53.7872 747.594 48.5673 747.594 L28.3562 747.594 L28.3562 741.738 L64.0042 741.738 L64.0042 747.594 L58.5296 747.594 Q61.7762 749.727 63.3676 752.559 Q64.9272 755.36 64.9272 759.084 Q64.9272 765.227 61.1078 768.41 Q57.2883 771.593 49.9359 771.593 M27.4968 756.856 L27.4968 756.856 Z" fill="#000000" fill-rule="nonzero" fill-opacity="1" /><path clip-path="url(#clip620)" d="M42.4881 700.042 L64.0042 700.042 L64.0042 705.899 L42.679 705.899 Q37.6183 705.899 35.1038 707.872 Q32.5894 709.845 32.5894 713.792 Q32.5894 718.535 35.6131 721.272 Q38.6368 724.009 43.8567 724.009 L64.0042 724.009 L64.0042 729.897 L28.3562 729.897 L28.3562 724.009 L33.8944 724.009 Q30.6797 721.908 29.0883 719.076 Q27.4968 716.211 27.4968 712.487 Q27.4968 706.344 31.3163 703.193 Q35.1038 700.042 42.4881 700.042 Z" fill="#000000" fill-rule="nonzero" fill-opacity="1" /><path clip-path="url(#clip620)" d="M18.2347 682.568 L28.3562 682.568 L28.3562 670.505 L32.9077 670.505 L32.9077 682.568 L52.2594 682.568 Q56.6199 682.568 57.8613 681.391 Q59.1026 680.181 59.1026 676.521 L59.1026 670.505 L64.0042 670.505 L64.0042 676.521 Q64.0042 683.3 61.4897 685.879 Q58.9434 688.457 52.2594 688.457 L32.9077 688.457 L32.9077 692.753 L28.3562 692.753 L28.3562 688.457 L18.2347 688.457 L18.2347 682.568 Z" fill="#000000" fill-rule="nonzero" fill-opacity="1" /><path clip-path="url(#clip620)" d="M699.529 8.64 L707.399 8.64 L726.554 44.7799 L726.554 8.64 L732.226 8.64 L732.226 51.84 L724.355 51.84 L705.2 15.7001 L705.2 51.84 L699.529 51.84 L699.529 8.64 Z" fill="#000000" fill-rule="nonzero" fill-opacity="1" /><path clip-path="url(#clip620)" d="M754.997 51.84 L738.504 8.64 L744.61 8.64 L758.296 45.0113 L772.011 8.64 L778.088 8.64 L761.624 51.84 L754.997 51.84 Z" fill="#000000" fill-rule="nonzero" fill-opacity="1" /><path clip-path="url(#clip620)" d="M790.24 13.4432 L790.24 47.0368 L797.3 47.0368 Q806.241 47.0368 810.379 42.9859 Q814.546 38.935 814.546 30.1966 Q814.546 21.5161 810.379 17.4941 Q806.241 13.4432 797.3 13.4432 L790.24 13.4432 M784.395 8.64 L796.403 8.64 Q808.961 8.64 814.835 13.8772 Q820.709 19.0855 820.709 30.1966 Q820.709 41.3655 814.806 46.6028 Q808.903 51.84 796.403 51.84 L784.395 51.84 L784.395 8.64 Z" fill="#000000" fill-rule="nonzero" fill-opacity="1" /><path clip-path="url(#clip620)" d="M843.423 14.3981 L835.495 35.8968 L851.38 35.8968 L843.423 14.3981 M840.124 8.64 L846.75 8.64 L863.214 51.84 L857.138 51.84 L853.203 40.7579 L833.73 40.7579 L829.794 51.84 L823.631 51.84 L840.124 8.64 Z" fill="#000000" fill-rule="nonzero" fill-opacity="1" /><path clip-path="url(#clip620)" d="M885.436 33.2348 L901.032 33.2348 L901.032 37.9801 L885.436 37.9801 L885.436 33.2348 Z" fill="#000000" fill-rule="nonzero" fill-opacity="1" /><path clip-path="url(#clip620)" d="M960.928 11.9675 L960.928 18.1307 Q957.977 15.3819 954.62 14.0219 Q951.293 12.662 947.531 12.662 Q940.124 12.662 936.189 17.2048 Q932.253 21.7186 932.253 30.2834 Q932.253 38.8192 936.189 43.362 Q940.124 47.8759 947.531 47.8759 Q951.293 47.8759 954.62 46.516 Q957.977 45.156 960.928 42.4072 L960.928 48.5125 Q957.861 50.5958 954.418 51.6375 Q951.003 52.6791 947.184 52.6791 Q937.375 52.6791 931.733 46.6896 Q926.09 40.6711 926.09 30.2834 Q926.09 19.8668 931.733 13.8772 Q937.375 7.85875 947.184 7.85875 Q951.061 7.85875 954.475 8.90042 Q957.919 9.91314 960.928 11.9675 Z" fill="#000000" fill-rule="nonzero" fill-opacity="1" /><path clip-path="url(#clip620)" d="M969.956 8.64 L975.801 8.64 L975.801 26.3482 L997.039 26.3482 L997.039 8.64 L1002.88 8.64 L1002.88 51.84 L997.039 51.84 L997.039 31.2672 L975.801 31.2672 L975.801 51.84 L969.956 51.84 L969.956 8.64 Z" fill="#000000" fill-rule="nonzero" fill-opacity="1" /><path clip-path="url(#clip620)" d="M1014.52 8.64 L1023.23 8.64 L1034.25 38.038 L1045.33 8.64 L1054.04 8.64 L1054.04 51.84 L1048.34 51.84 L1048.34 13.9062 L1037.2 43.5356 L1031.33 43.5356 L1020.19 13.9062 L1020.19 51.84 L1014.52 51.84 L1014.52 8.64 Z" fill="#000000" fill-rule="nonzero" fill-opacity="1" /><path clip-path="url(#clip620)" d="M1065.64 8.64 L1074.35 8.64 L1085.38 38.038 L1096.46 8.64 L1105.17 8.64 L1105.17 51.84 L1099.47 51.84 L1099.47 13.9062 L1088.33 43.5356 L1082.46 43.5356 L1071.32 13.9062 L1071.32 51.84 L1065.64 51.84 L1065.64 8.64 Z" fill="#000000" fill-rule="nonzero" fill-opacity="1" /><path clip-path="url(#clip620)" d="M1113.85 33.2348 L1129.45 33.2348 L1129.45 37.9801 L1113.85 37.9801 L1113.85 33.2348 Z" fill="#000000" fill-rule="nonzero" fill-opacity="1" /><path clip-path="url(#clip620)" d="M1138.16 8.64 L1144 8.64 L1144 46.921 L1165.04 46.921 L1165.04 51.84 L1138.16 51.84 L1138.16 8.64 Z" fill="#000000" fill-rule="nonzero" fill-opacity="1" /><path clip-path="url(#clip620)" d="M1195.04 10.2314 L1195.04 19.4328 L1206.01 19.4328 L1206.01 23.5705 L1195.04 23.5705 L1195.04 41.163 Q1195.04 45.1271 1196.11 46.2555 Q1197.21 47.384 1200.54 47.384 L1206.01 47.384 L1206.01 51.84 L1200.54 51.84 Q1194.38 51.84 1192.03 49.5541 Q1189.69 47.2393 1189.69 41.163 L1189.69 23.5705 L1185.78 23.5705 L1185.78 19.4328 L1189.69 19.4328 L1189.69 10.2314 L1195.04 10.2314 Z" fill="#000000" fill-rule="nonzero" fill-opacity="1" /><path clip-path="url(#clip620)" d="M1240.73 34.3054 L1240.73 36.9095 L1216.25 36.9095 Q1216.6 42.4072 1219.55 45.3007 Q1222.53 48.1653 1227.82 48.1653 Q1230.89 48.1653 1233.76 47.4129 Q1236.65 46.6606 1239.49 45.156 L1239.49 50.1907 Q1236.62 51.406 1233.61 52.0425 Q1230.6 52.6791 1227.51 52.6791 Q1219.75 52.6791 1215.21 48.1653 Q1210.7 43.6514 1210.7 35.9547 Q1210.7 27.9975 1214.98 23.339 Q1219.29 18.6515 1226.58 18.6515 Q1233.12 18.6515 1236.91 22.876 Q1240.73 27.0716 1240.73 34.3054 M1235.41 32.7429 Q1235.35 28.3737 1232.95 25.7695 Q1230.57 23.1654 1226.64 23.1654 Q1222.18 23.1654 1219.49 25.6827 Q1216.83 28.2001 1216.42 32.7718 L1235.41 32.7429 Z" fill="#000000" fill-rule="nonzero" fill-opacity="1" /><path clip-path="url(#clip620)" d="M1268.25 24.4096 Q1267.35 23.8888 1266.28 23.6573 Q1265.24 23.3969 1263.96 23.3969 Q1259.45 23.3969 1257.02 26.3482 Q1254.62 29.2707 1254.62 34.7683 L1254.62 51.84 L1249.27 51.84 L1249.27 19.4328 L1254.62 19.4328 L1254.62 24.4675 Q1256.3 21.5161 1258.99 20.0983 Q1261.68 18.6515 1265.53 18.6515 Q1266.08 18.6515 1266.74 18.7383 Q1267.41 18.7962 1268.22 18.9409 L1268.25 24.4096 Z" fill="#000000" fill-rule="nonzero" fill-opacity="1" /><path clip-path="url(#clip620)" d="M1298.02 25.6538 Q1300.02 22.0659 1302.8 20.3587 Q1305.57 18.6515 1309.33 18.6515 Q1314.4 18.6515 1317.15 22.2105 Q1319.9 25.7406 1319.9 32.2799 L1319.9 51.84 L1314.54 51.84 L1314.54 32.4535 Q1314.54 27.795 1312.89 25.5381 Q1311.24 23.2811 1307.86 23.2811 Q1303.72 23.2811 1301.32 26.03 Q1298.92 28.7788 1298.92 33.5241 L1298.92 51.84 L1293.57 51.84 L1293.57 32.4535 Q1293.57 27.7661 1291.92 25.5381 Q1290.27 23.2811 1286.82 23.2811 Q1282.74 23.2811 1280.34 26.0589 Q1277.94 28.8077 1277.94 33.5241 L1277.94 51.84 L1272.59 51.84 L1272.59 19.4328 L1277.94 19.4328 L1277.94 24.4675 Q1279.76 21.4872 1282.31 20.0693 Q1284.86 18.6515 1288.36 18.6515 Q1291.89 18.6515 1294.35 20.4455 Q1296.83 22.2395 1298.02 25.6538 Z" fill="#000000" fill-rule="nonzero" fill-opacity="1" /><path clip-path="url(#clip620)" d="M1330.52 19.4328 L1335.84 19.4328 L1335.84 51.84 L1330.52 51.84 L1330.52 19.4328 M1330.52 6.81709 L1335.84 6.81709 L1335.84 13.559 L1330.52 13.559 L1330.52 6.81709 Z" fill="#000000" fill-rule="nonzero" fill-opacity="1" /><path clip-path="url(#clip620)" d="M1373.92 32.2799 L1373.92 51.84 L1368.59 51.84 L1368.59 32.4535 Q1368.59 27.8529 1366.8 25.567 Q1365.01 23.2811 1361.42 23.2811 Q1357.11 23.2811 1354.62 26.03 Q1352.13 28.7788 1352.13 33.5241 L1352.13 51.84 L1346.78 51.84 L1346.78 19.4328 L1352.13 19.4328 L1352.13 24.4675 Q1354.04 21.545 1356.61 20.0983 Q1359.22 18.6515 1362.6 18.6515 Q1368.19 18.6515 1371.05 22.1237 Q1373.92 25.567 1373.92 32.2799 Z" fill="#000000" fill-rule="nonzero" fill-opacity="1" /><path clip-path="url(#clip620)" d="M1399.26 35.5496 Q1392.81 35.5496 1390.32 37.0253 Q1387.84 38.501 1387.84 42.06 Q1387.84 44.8956 1389.69 46.5738 Q1391.57 48.2231 1394.78 48.2231 Q1399.21 48.2231 1401.87 45.0981 Q1404.56 41.9442 1404.56 36.7359 L1404.56 35.5496 L1399.26 35.5496 M1409.88 33.3505 L1409.88 51.84 L1404.56 51.84 L1404.56 46.921 Q1402.74 49.8724 1400.02 51.2902 Q1397.3 52.6791 1393.36 52.6791 Q1388.39 52.6791 1385.43 49.9014 Q1382.51 47.0947 1382.51 42.4072 Q1382.51 36.9385 1386.16 34.1607 Q1389.83 31.3829 1397.09 31.3829 L1404.56 31.3829 L1404.56 30.8621 Q1404.56 27.1874 1402.13 25.1908 Q1399.73 23.1654 1395.36 23.1654 Q1392.58 23.1654 1389.95 23.8309 Q1387.31 24.4964 1384.88 25.8274 L1384.88 20.9085 Q1387.81 19.78 1390.56 19.2302 Q1393.3 18.6515 1395.91 18.6515 Q1402.94 18.6515 1406.41 22.2973 Q1409.88 25.9431 1409.88 33.3505 Z" fill="#000000" fill-rule="nonzero" fill-opacity="1" /><path clip-path="url(#clip620)" d="M1420.85 6.81709 L1426.17 6.81709 L1426.17 51.84 L1420.85 51.84 L1420.85 6.81709 Z" fill="#000000" fill-rule="nonzero" fill-opacity="1" /><path clip-path="url(#clip620)" d="M1461.3 46.9789 L1461.3 64.1663 L1455.95 64.1663 L1455.95 19.4328 L1461.3 19.4328 L1461.3 24.3517 Q1462.98 21.4582 1465.53 20.0693 Q1468.1 18.6515 1471.66 18.6515 Q1477.56 18.6515 1481.24 23.339 Q1484.94 28.0265 1484.94 35.6653 Q1484.94 43.3042 1481.24 47.9916 Q1477.56 52.6791 1471.66 52.6791 Q1468.1 52.6791 1465.53 51.2902 Q1462.98 49.8724 1461.3 46.9789 M1479.41 35.6653 Q1479.41 29.7915 1476.98 26.464 Q1474.58 23.1075 1470.36 23.1075 Q1466.13 23.1075 1463.7 26.464 Q1461.3 29.7915 1461.3 35.6653 Q1461.3 41.5391 1463.7 44.8956 Q1466.13 48.2231 1470.36 48.2231 Q1474.58 48.2231 1476.98 44.8956 Q1479.41 41.5391 1479.41 35.6653 Z" fill="#000000" fill-rule="nonzero" fill-opacity="1" /><path clip-path="url(#clip620)" d="M1512.55 24.4096 Q1511.65 23.8888 1510.58 23.6573 Q1509.54 23.3969 1508.26 23.3969 Q1503.75 23.3969 1501.32 26.3482 Q1498.92 29.2707 1498.92 34.7683 L1498.92 51.84 L1493.56 51.84 L1493.56 19.4328 L1498.92 19.4328 L1498.92 24.4675 Q1500.6 21.5161 1503.29 20.0983 Q1505.98 18.6515 1509.83 18.6515 Q1510.38 18.6515 1511.04 18.7383 Q1511.71 18.7962 1512.52 18.9409 L1512.55 24.4096 Z" fill="#000000" fill-rule="nonzero" fill-opacity="1" /><path clip-path="url(#clip620)" d="M1518.13 19.4328 L1523.45 19.4328 L1523.45 51.84 L1518.13 51.84 L1518.13 19.4328 M1518.13 6.81709 L1523.45 6.81709 L1523.45 13.559 L1518.13 13.559 L1518.13 6.81709 Z" fill="#000000" fill-rule="nonzero" fill-opacity="1" /><path clip-path="url(#clip620)" d="M1557.92 20.677 L1557.92 25.6538 Q1555.66 24.4096 1553.37 23.802 Q1551.12 23.1654 1548.8 23.1654 Q1543.62 23.1654 1540.76 26.464 Q1537.89 29.7336 1537.89 35.6653 Q1537.89 41.597 1540.76 44.8956 Q1543.62 48.1653 1548.8 48.1653 Q1551.12 48.1653 1553.37 47.5576 Q1555.66 46.921 1557.92 45.6768 L1557.92 50.5958 Q1555.69 51.6375 1553.29 52.1583 Q1550.91 52.6791 1548.22 52.6791 Q1540.9 52.6791 1536.59 48.0784 Q1532.28 43.4778 1532.28 35.6653 Q1532.28 27.7371 1536.62 23.1943 Q1540.99 18.6515 1548.57 18.6515 Q1551.03 18.6515 1553.37 19.1724 Q1555.72 19.6642 1557.92 20.677 Z" fill="#000000" fill-rule="nonzero" fill-opacity="1" /><path clip-path="url(#clip620)" d="M1594.89 34.3054 L1594.89 36.9095 L1570.42 36.9095 Q1570.76 42.4072 1573.71 45.3007 Q1576.69 48.1653 1581.99 48.1653 Q1585.06 48.1653 1587.92 47.4129 Q1590.81 46.6606 1593.65 45.156 L1593.65 50.1907 Q1590.79 51.406 1587.78 52.0425 Q1584.77 52.6791 1581.67 52.6791 Q1573.92 52.6791 1569.37 48.1653 Q1564.86 43.6514 1564.86 35.9547 Q1564.86 27.9975 1569.14 23.339 Q1573.45 18.6515 1580.75 18.6515 Q1587.28 18.6515 1591.08 22.876 Q1594.89 27.0716 1594.89 34.3054 M1589.57 32.7429 Q1589.51 28.3737 1587.11 25.7695 Q1584.74 23.1654 1580.8 23.1654 Q1576.35 23.1654 1573.66 25.6827 Q1570.99 28.2001 1570.59 32.7718 L1589.57 32.7429 Z" fill="#000000" fill-rule="nonzero" fill-opacity="1" /><path clip-path="url(#clip620)" d="M1635.26 6.87496 Q1631.38 13.53 1629.5 20.0404 Q1627.62 26.5508 1627.62 33.2348 Q1627.62 39.9188 1629.5 46.487 Q1631.41 53.0263 1635.26 59.6525 L1630.63 59.6525 Q1626.29 52.8527 1624.12 46.2845 Q1621.98 39.7162 1621.98 33.2348 Q1621.98 26.7823 1624.12 20.2429 Q1626.26 13.7036 1630.63 6.87496 L1635.26 6.87496 Z" fill="#000000" fill-rule="nonzero" fill-opacity="1" /><path clip-path="url(#clip620)" d="M1672.53 32.2799 L1672.53 51.84 L1667.2 51.84 L1667.2 32.4535 Q1667.2 27.8529 1665.41 25.567 Q1663.62 23.2811 1660.03 23.2811 Q1655.72 23.2811 1653.23 26.03 Q1650.74 28.7788 1650.74 33.5241 L1650.74 51.84 L1645.39 51.84 L1645.39 19.4328 L1650.74 19.4328 L1650.74 24.4675 Q1652.65 21.545 1655.22 20.0983 Q1657.83 18.6515 1661.21 18.6515 Q1666.8 18.6515 1669.66 22.1237 Q1672.53 25.567 1672.53 32.2799 Z" fill="#000000" fill-rule="nonzero" fill-opacity="1" /><path clip-path="url(#clip620)" d="M1683.84 24.9304 L1720.94 24.9304 L1720.94 29.7915 L1683.84 29.7915 L1683.84 24.9304 M1683.84 36.7359 L1720.94 36.7359 L1720.94 41.6549 L1683.84 41.6549 L1683.84 36.7359 Z" fill="#000000" fill-rule="nonzero" fill-opacity="1" /><path clip-path="url(#clip620)" d="M1733.61 8.64 L1756.55 8.64 L1756.55 13.559 L1738.96 13.559 L1738.96 24.1492 Q1740.24 23.7152 1741.51 23.5126 Q1742.78 23.2811 1744.05 23.2811 Q1751.29 23.2811 1755.51 27.2452 Q1759.74 31.2093 1759.74 37.9801 Q1759.74 44.9535 1755.4 48.8308 Q1751.06 52.6791 1743.16 52.6791 Q1740.44 52.6791 1737.6 52.2162 Q1734.8 51.7532 1731.79 50.8273 L1731.79 44.9535 Q1734.39 46.3713 1737.17 47.0657 Q1739.95 47.7602 1743.04 47.7602 Q1748.05 47.7602 1750.97 45.1271 Q1753.89 42.494 1753.89 37.9801 Q1753.89 33.4663 1750.97 30.8332 Q1748.05 28.2001 1743.04 28.2001 Q1740.7 28.2001 1738.35 28.7209 Q1736.04 29.2417 1733.61 30.3413 L1733.61 8.64 Z" fill="#000000" fill-rule="nonzero" fill-opacity="1" /><path clip-path="url(#clip620)" d="M1783.75 12.4884 Q1779.24 12.4884 1776.95 16.9444 Q1774.7 21.3714 1774.7 30.2834 Q1774.7 39.1665 1776.95 43.6225 Q1779.24 48.0495 1783.75 48.0495 Q1788.3 48.0495 1790.55 43.6225 Q1792.84 39.1665 1792.84 30.2834 Q1792.84 21.3714 1790.55 16.9444 Q1788.3 12.4884 1783.75 12.4884 M1783.75 7.85875 Q1791.02 7.85875 1794.84 13.6168 Q1798.68 19.346 1798.68 30.2834 Q1798.68 41.1919 1794.84 46.95 Q1791.02 52.6791 1783.75 52.6791 Q1776.49 52.6791 1772.64 46.95 Q1768.82 41.1919 1768.82 30.2834 Q1768.82 19.346 1772.64 13.6168 Q1776.49 7.85875 1783.75 7.85875 Z" fill="#000000" fill-rule="nonzero" fill-opacity="1" /><path clip-path="url(#clip620)" d="M1821.46 12.4884 Q1816.94 12.4884 1814.66 16.9444 Q1812.4 21.3714 1812.4 30.2834 Q1812.4 39.1665 1814.66 43.6225 Q1816.94 48.0495 1821.46 48.0495 Q1826 48.0495 1828.26 43.6225 Q1830.54 39.1665 1830.54 30.2834 Q1830.54 21.3714 1828.26 16.9444 Q1826 12.4884 1821.46 12.4884 M1821.46 7.85875 Q1828.72 7.85875 1832.54 13.6168 Q1836.39 19.346 1836.39 30.2834 Q1836.39 41.1919 1832.54 46.95 Q1828.72 52.6791 1821.46 52.6791 Q1814.19 52.6791 1810.34 46.95 Q1806.53 41.1919 1806.53 30.2834 Q1806.53 19.346 1810.34 13.6168 Q1814.19 7.85875 1821.46 7.85875 Z" fill="#000000" fill-rule="nonzero" fill-opacity="1" /><path clip-path="url(#clip620)" d="M1845.07 6.87496 L1849.7 6.87496 Q1854.04 13.7036 1856.18 20.2429 Q1858.35 26.7823 1858.35 33.2348 Q1858.35 39.7162 1856.18 46.2845 Q1854.04 52.8527 1849.7 59.6525 L1845.07 59.6525 Q1848.92 53.0263 1850.8 46.487 Q1852.71 39.9188 1852.71 33.2348 Q1852.71 26.5508 1850.8 20.0404 Q1848.92 13.53 1845.07 6.87496 Z" fill="#000000" fill-rule="nonzero" fill-opacity="1" /><path clip-path="url(#clip622)" d="M323.245 972.157 L323.245 1423.18 L379.462 1423.18 L379.462 972.157 L323.245 972.157 L323.245 972.157  Z" fill="#4682b4" fill-rule="evenodd" fill-opacity="0.6"/>
<polyline clip-path="url(#clip622)" style="stroke:#000000; stroke-linecap:round; stroke-linejoin:round; stroke-width:4; stroke-opacity:1; fill:none" points="323.245,972.157 323.245,1423.18 379.462,1423.18 379.462,972.157 323.245,972.157 "/>
<path clip-path="url(#clip622)" d="M379.462 755.666 L379.462 1423.18 L435.679 1423.18 L435.679 755.666 L379.462 755.666 L379.462 755.666  Z" fill="#4682b4" fill-rule="evenodd" fill-opacity="0.6"/>
<polyline clip-path="url(#clip622)" style="stroke:#000000; stroke-linecap:round; stroke-linejoin:round; stroke-width:4; stroke-opacity:1; fill:none" points="379.462,755.666 379.462,1423.18 435.679,1423.18 435.679,755.666 379.462,755.666 "/>
<path clip-path="url(#clip622)" d="M435.679 304.642 L435.679 1423.18 L491.897 1423.18 L491.897 304.642 L435.679 304.642 L435.679 304.642  Z" fill="#4682b4" fill-rule="evenodd" fill-opacity="0.6"/>
<polyline clip-path="url(#clip622)" style="stroke:#000000; stroke-linecap:round; stroke-linejoin:round; stroke-width:4; stroke-opacity:1; fill:none" points="435.679,304.642 435.679,1423.18 491.897,1423.18 491.897,304.642 435.679,304.642 "/>
<path clip-path="url(#clip622)" d="M491.897 106.192 L491.897 1423.18 L548.114 1423.18 L548.114 106.192 L491.897 106.192 L491.897 106.192  Z" fill="#4682b4" fill-rule="evenodd" fill-opacity="0.6"/>
<polyline clip-path="url(#clip622)" style="stroke:#000000; stroke-linecap:round; stroke-linejoin:round; stroke-width:4; stroke-opacity:1; fill:none" points="491.897,106.192 491.897,1423.18 548.114,1423.18 548.114,106.192 491.897,106.192 "/>
<path clip-path="url(#clip622)" d="M548.114 448.97 L548.114 1423.18 L604.331 1423.18 L604.331 448.97 L548.114 448.97 L548.114 448.97  Z" fill="#4682b4" fill-rule="evenodd" fill-opacity="0.6"/>
<polyline clip-path="url(#clip622)" style="stroke:#000000; stroke-linecap:round; stroke-linejoin:round; stroke-width:4; stroke-opacity:1; fill:none" points="548.114,448.97 548.114,1423.18 604.331,1423.18 604.331,448.97 548.114,448.97 "/>
<path clip-path="url(#clip622)" d="M604.331 521.133 L604.331 1423.18 L660.548 1423.18 L660.548 521.133 L604.331 521.133 L604.331 521.133  Z" fill="#4682b4" fill-rule="evenodd" fill-opacity="0.6"/>
<polyline clip-path="url(#clip622)" style="stroke:#000000; stroke-linecap:round; stroke-linejoin:round; stroke-width:4; stroke-opacity:1; fill:none" points="604.331,521.133 604.331,1423.18 660.548,1423.18 660.548,521.133 604.331,521.133 "/>
<path clip-path="url(#clip622)" d="M660.548 755.666 L660.548 1423.18 L716.766 1423.18 L716.766 755.666 L660.548 755.666 L660.548 755.666  Z" fill="#4682b4" fill-rule="evenodd" fill-opacity="0.6"/>
<polyline clip-path="url(#clip622)" style="stroke:#000000; stroke-linecap:round; stroke-linejoin:round; stroke-width:4; stroke-opacity:1; fill:none" points="660.548,755.666 660.548,1423.18 716.766,1423.18 716.766,755.666 660.548,755.666 "/>
<path clip-path="url(#clip622)" d="M716.766 1026.28 L716.766 1423.18 L772.983 1423.18 L772.983 1026.28 L716.766 1026.28 L716.766 1026.28  Z" fill="#4682b4" fill-rule="evenodd" fill-opacity="0.6"/>
<polyline clip-path="url(#clip622)" style="stroke:#000000; stroke-linecap:round; stroke-linejoin:round; stroke-width:4; stroke-opacity:1; fill:none" points="716.766,1026.28 716.766,1423.18 772.983,1423.18 772.983,1026.28 716.766,1026.28 "/>
<path clip-path="url(#clip622)" d="M772.983 881.952 L772.983 1423.18 L829.2 1423.18 L829.2 881.952 L772.983 881.952 L772.983 881.952  Z" fill="#4682b4" fill-rule="evenodd" fill-opacity="0.6"/>
<polyline clip-path="url(#clip622)" style="stroke:#000000; stroke-linecap:round; stroke-linejoin:round; stroke-width:4; stroke-opacity:1; fill:none" points="772.983,881.952 772.983,1423.18 829.2,1423.18 829.2,881.952 772.983,881.952 "/>
<path clip-path="url(#clip622)" d="M829.2 1062.36 L829.2 1423.18 L885.417 1423.18 L885.417 1062.36 L829.2 1062.36 L829.2 1062.36  Z" fill="#4682b4" fill-rule="evenodd" fill-opacity="0.6"/>
<polyline clip-path="url(#clip622)" style="stroke:#000000; stroke-linecap:round; stroke-linejoin:round; stroke-width:4; stroke-opacity:1; fill:none" points="829.2,1062.36 829.2,1423.18 885.417,1423.18 885.417,1062.36 829.2,1062.36 "/>
<path clip-path="url(#clip622)" d="M885.417 1170.61 L885.417 1423.18 L941.635 1423.18 L941.635 1170.61 L885.417 1170.61 L885.417 1170.61  Z" fill="#4682b4" fill-rule="evenodd" fill-opacity="0.6"/>
<polyline clip-path="url(#clip622)" style="stroke:#000000; stroke-linecap:round; stroke-linejoin:round; stroke-width:4; stroke-opacity:1; fill:none" points="885.417,1170.61 885.417,1423.18 941.635,1423.18 941.635,1170.61 885.417,1170.61 "/>
<path clip-path="url(#clip622)" d="M941.635 1278.85 L941.635 1423.18 L997.852 1423.18 L997.852 1278.85 L941.635 1278.85 L941.635 1278.85  Z" fill="#4682b4" fill-rule="evenodd" fill-opacity="0.6"/>
<polyline clip-path="url(#clip622)" style="stroke:#000000; stroke-linecap:round; stroke-linejoin:round; stroke-width:4; stroke-opacity:1; fill:none" points="941.635,1278.85 941.635,1423.18 997.852,1423.18 997.852,1278.85 941.635,1278.85 "/>
<path clip-path="url(#clip622)" d="M997.852 1170.61 L997.852 1423.18 L1054.07 1423.18 L1054.07 1170.61 L997.852 1170.61 L997.852 1170.61  Z" fill="#4682b4" fill-rule="evenodd" fill-opacity="0.6"/>
<polyline clip-path="url(#clip622)" style="stroke:#000000; stroke-linecap:round; stroke-linejoin:round; stroke-width:4; stroke-opacity:1; fill:none" points="997.852,1170.61 997.852,1423.18 1054.07,1423.18 1054.07,1170.61 997.852,1170.61 "/>
<path clip-path="url(#clip622)" d="M1054.07 1206.69 L1054.07 1423.18 L1110.29 1423.18 L1110.29 1206.69 L1054.07 1206.69 L1054.07 1206.69  Z" fill="#4682b4" fill-rule="evenodd" fill-opacity="0.6"/>
<polyline clip-path="url(#clip622)" style="stroke:#000000; stroke-linecap:round; stroke-linejoin:round; stroke-width:4; stroke-opacity:1; fill:none" points="1054.07,1206.69 1054.07,1423.18 1110.29,1423.18 1110.29,1206.69 1054.07,1206.69 "/>
<path clip-path="url(#clip622)" d="M1110.29 1278.85 L1110.29 1423.18 L1166.5 1423.18 L1166.5 1278.85 L1110.29 1278.85 L1110.29 1278.85  Z" fill="#4682b4" fill-rule="evenodd" fill-opacity="0.6"/>
<polyline clip-path="url(#clip622)" style="stroke:#000000; stroke-linecap:round; stroke-linejoin:round; stroke-width:4; stroke-opacity:1; fill:none" points="1110.29,1278.85 1110.29,1423.18 1166.5,1423.18 1166.5,1278.85 1110.29,1278.85 "/>
<path clip-path="url(#clip622)" d="M1166.5 1369.06 L1166.5 1423.18 L1222.72 1423.18 L1222.72 1369.06 L1166.5 1369.06 L1166.5 1369.06  Z" fill="#4682b4" fill-rule="evenodd" fill-opacity="0.6"/>
<polyline clip-path="url(#clip622)" style="stroke:#000000; stroke-linecap:round; stroke-linejoin:round; stroke-width:4; stroke-opacity:1; fill:none" points="1166.5,1369.06 1166.5,1423.18 1222.72,1423.18 1222.72,1369.06 1166.5,1369.06 "/>
<path clip-path="url(#clip622)" d="M1222.72 1278.85 L1222.72 1423.18 L1278.94 1423.18 L1278.94 1278.85 L1222.72 1278.85 L1222.72 1278.85  Z" fill="#4682b4" fill-rule="evenodd" fill-opacity="0.6"/>
<polyline clip-path="url(#clip622)" style="stroke:#000000; stroke-linecap:round; stroke-linejoin:round; stroke-width:4; stroke-opacity:1; fill:none" points="1222.72,1278.85 1222.72,1423.18 1278.94,1423.18 1278.94,1278.85 1222.72,1278.85 "/>
<path clip-path="url(#clip622)" d="M1278.94 1387.1 L1278.94 1423.18 L1335.16 1423.18 L1335.16 1387.1 L1278.94 1387.1 L1278.94 1387.1  Z" fill="#4682b4" fill-rule="evenodd" fill-opacity="0.6"/>
<polyline clip-path="url(#clip622)" style="stroke:#000000; stroke-linecap:round; stroke-linejoin:round; stroke-width:4; stroke-opacity:1; fill:none" points="1278.94,1387.1 1278.94,1423.18 1335.16,1423.18 1335.16,1387.1 1278.94,1387.1 "/>
<path clip-path="url(#clip622)" d="M1335.16 1314.93 L1335.16 1423.18 L1391.37 1423.18 L1391.37 1314.93 L1335.16 1314.93 L1335.16 1314.93  Z" fill="#4682b4" fill-rule="evenodd" fill-opacity="0.6"/>
<polyline clip-path="url(#clip622)" style="stroke:#000000; stroke-linecap:round; stroke-linejoin:round; stroke-width:4; stroke-opacity:1; fill:none" points="1335.16,1314.93 1335.16,1423.18 1391.37,1423.18 1391.37,1314.93 1335.16,1314.93 "/>
<path clip-path="url(#clip622)" d="M1391.37 1405.14 L1391.37 1423.18 L1447.59 1423.18 L1447.59 1405.14 L1391.37 1405.14 L1391.37 1405.14  Z" fill="#4682b4" fill-rule="evenodd" fill-opacity="0.6"/>
<polyline clip-path="url(#clip622)" style="stroke:#000000; stroke-linecap:round; stroke-linejoin:round; stroke-width:4; stroke-opacity:1; fill:none" points="1391.37,1405.14 1391.37,1423.18 1447.59,1423.18 1447.59,1405.14 1391.37,1405.14 "/>
<path clip-path="url(#clip622)" d="M1447.59 1351.02 L1447.59 1423.18 L1503.81 1423.18 L1503.81 1351.02 L1447.59 1351.02 L1447.59 1351.02  Z" fill="#4682b4" fill-rule="evenodd" fill-opacity="0.6"/>
<polyline clip-path="url(#clip622)" style="stroke:#000000; stroke-linecap:round; stroke-linejoin:round; stroke-width:4; stroke-opacity:1; fill:none" points="1447.59,1351.02 1447.59,1423.18 1503.81,1423.18 1503.81,1351.02 1447.59,1351.02 "/>
<path clip-path="url(#clip622)" d="M1503.81 1423.18 L1503.81 1423.18 L1560.02 1423.18 L1560.02 1423.18 L1503.81 1423.18 L1503.81 1423.18  Z" fill="#4682b4" fill-rule="evenodd" fill-opacity="0.6"/>
<polyline clip-path="url(#clip622)" style="stroke:#000000; stroke-linecap:round; stroke-linejoin:round; stroke-width:4; stroke-opacity:1; fill:none" points="1503.81,1423.18 1503.81,1423.18 1560.02,1423.18 1503.81,1423.18 "/>
<path clip-path="url(#clip622)" d="M1560.02 1405.14 L1560.02 1423.18 L1616.24 1423.18 L1616.24 1405.14 L1560.02 1405.14 L1560.02 1405.14  Z" fill="#4682b4" fill-rule="evenodd" fill-opacity="0.6"/>
<polyline clip-path="url(#clip622)" style="stroke:#000000; stroke-linecap:round; stroke-linejoin:round; stroke-width:4; stroke-opacity:1; fill:none" points="1560.02,1405.14 1560.02,1423.18 1616.24,1423.18 1616.24,1405.14 1560.02,1405.14 "/>
<path clip-path="url(#clip622)" d="M1616.24 1387.1 L1616.24 1423.18 L1672.46 1423.18 L1672.46 1387.1 L1616.24 1387.1 L1616.24 1387.1  Z" fill="#4682b4" fill-rule="evenodd" fill-opacity="0.6"/>
<polyline clip-path="url(#clip622)" style="stroke:#000000; stroke-linecap:round; stroke-linejoin:round; stroke-width:4; stroke-opacity:1; fill:none" points="1616.24,1387.1 1616.24,1423.18 1672.46,1423.18 1672.46,1387.1 1616.24,1387.1 "/>
<path clip-path="url(#clip622)" d="M1672.46 1387.1 L1672.46 1423.18 L1728.68 1423.18 L1728.68 1387.1 L1672.46 1387.1 L1672.46 1387.1  Z" fill="#4682b4" fill-rule="evenodd" fill-opacity="0.6"/>
<polyline clip-path="url(#clip622)" style="stroke:#000000; stroke-linecap:round; stroke-linejoin:round; stroke-width:4; stroke-opacity:1; fill:none" points="1672.46,1387.1 1672.46,1423.18 1728.68,1423.18 1728.68,1387.1 1672.46,1387.1 "/>
<path clip-path="url(#clip622)" d="M1728.68 1405.14 L1728.68 1423.18 L1784.89 1423.18 L1784.89 1405.14 L1728.68 1405.14 L1728.68 1405.14  Z" fill="#4682b4" fill-rule="evenodd" fill-opacity="0.6"/>
<polyline clip-path="url(#clip622)" style="stroke:#000000; stroke-linecap:round; stroke-linejoin:round; stroke-width:4; stroke-opacity:1; fill:none" points="1728.68,1405.14 1728.68,1423.18 1784.89,1423.18 1784.89,1405.14 1728.68,1405.14 "/>
<path clip-path="url(#clip622)" d="M1784.89 1423.18 L1784.89 1423.18 L1841.11 1423.18 L1841.11 1423.18 L1784.89 1423.18 L1784.89 1423.18  Z" fill="#4682b4" fill-rule="evenodd" fill-opacity="0.6"/>
<polyline clip-path="url(#clip622)" style="stroke:#000000; stroke-linecap:round; stroke-linejoin:round; stroke-width:4; stroke-opacity:1; fill:none" points="1784.89,1423.18 1784.89,1423.18 1841.11,1423.18 1784.89,1423.18 "/>
<path clip-path="url(#clip622)" d="M1841.11 1423.18 L1841.11 1423.18 L1897.33 1423.18 L1897.33 1423.18 L1841.11 1423.18 L1841.11 1423.18  Z" fill="#4682b4" fill-rule="evenodd" fill-opacity="0.6"/>
<polyline clip-path="url(#clip622)" style="stroke:#000000; stroke-linecap:round; stroke-linejoin:round; stroke-width:4; stroke-opacity:1; fill:none" points="1841.11,1423.18 1841.11,1423.18 1897.33,1423.18 1841.11,1423.18 "/>
<path clip-path="url(#clip622)" d="M1897.33 1423.18 L1897.33 1423.18 L1953.55 1423.18 L1953.55 1423.18 L1897.33 1423.18 L1897.33 1423.18  Z" fill="#4682b4" fill-rule="evenodd" fill-opacity="0.6"/>
<polyline clip-path="url(#clip622)" style="stroke:#000000; stroke-linecap:round; stroke-linejoin:round; stroke-width:4; stroke-opacity:1; fill:none" points="1897.33,1423.18 1897.33,1423.18 1953.55,1423.18 1897.33,1423.18 "/>
<path clip-path="url(#clip622)" d="M1953.55 1405.14 L1953.55 1423.18 L2009.76 1423.18 L2009.76 1405.14 L1953.55 1405.14 L1953.55 1405.14  Z" fill="#4682b4" fill-rule="evenodd" fill-opacity="0.6"/>
<polyline clip-path="url(#clip622)" style="stroke:#000000; stroke-linecap:round; stroke-linejoin:round; stroke-width:4; stroke-opacity:1; fill:none" points="1953.55,1405.14 1953.55,1423.18 2009.76,1423.18 2009.76,1405.14 1953.55,1405.14 "/>
<path clip-path="url(#clip622)" d="M2009.76 1423.18 L2009.76 1423.18 L2065.98 1423.18 L2065.98 1423.18 L2009.76 1423.18 L2009.76 1423.18  Z" fill="#4682b4" fill-rule="evenodd" fill-opacity="0.6"/>
<polyline clip-path="url(#clip622)" style="stroke:#000000; stroke-linecap:round; stroke-linejoin:round; stroke-width:4; stroke-opacity:1; fill:none" points="2009.76,1423.18 2009.76,1423.18 2065.98,1423.18 2009.76,1423.18 "/>
<path clip-path="url(#clip622)" d="M2065.98 1405.14 L2065.98 1423.18 L2122.2 1423.18 L2122.2 1405.14 L2065.98 1405.14 L2065.98 1405.14  Z" fill="#4682b4" fill-rule="evenodd" fill-opacity="0.6"/>
<polyline clip-path="url(#clip622)" style="stroke:#000000; stroke-linecap:round; stroke-linejoin:round; stroke-width:4; stroke-opacity:1; fill:none" points="2065.98,1405.14 2065.98,1423.18 2122.2,1423.18 2122.2,1405.14 2065.98,1405.14 "/>
<path clip-path="url(#clip622)" d="M2122.2 1405.14 L2122.2 1423.18 L2178.41 1423.18 L2178.41 1405.14 L2122.2 1405.14 L2122.2 1405.14  Z" fill="#4682b4" fill-rule="evenodd" fill-opacity="0.6"/>
<polyline clip-path="url(#clip622)" style="stroke:#000000; stroke-linecap:round; stroke-linejoin:round; stroke-width:4; stroke-opacity:1; fill:none" points="2122.2,1405.14 2122.2,1423.18 2178.41,1423.18 2178.41,1405.14 2122.2,1405.14 "/>
<path clip-path="url(#clip622)" d="M2178.41 1405.14 L2178.41 1423.18 L2234.63 1423.18 L2234.63 1405.14 L2178.41 1405.14 L2178.41 1405.14  Z" fill="#4682b4" fill-rule="evenodd" fill-opacity="0.6"/>
<polyline clip-path="url(#clip622)" style="stroke:#000000; stroke-linecap:round; stroke-linejoin:round; stroke-width:4; stroke-opacity:1; fill:none" points="2178.41,1405.14 2178.41,1423.18 2234.63,1423.18 2234.63,1405.14 2178.41,1405.14 "/>
<circle clip-path="url(#clip622)" style="fill:#4682b4; stroke:none; fill-opacity:0" cx="351.353" cy="972.157" r="2"/>
<circle clip-path="url(#clip622)" style="fill:#4682b4; stroke:none; fill-opacity:0" cx="407.571" cy="755.666" r="2"/>
<circle clip-path="url(#clip622)" style="fill:#4682b4; stroke:none; fill-opacity:0" cx="463.788" cy="304.642" r="2"/>
<circle clip-path="url(#clip622)" style="fill:#4682b4; stroke:none; fill-opacity:0" cx="520.005" cy="106.192" r="2"/>
<circle clip-path="url(#clip622)" style="fill:#4682b4; stroke:none; fill-opacity:0" cx="576.222" cy="448.97" r="2"/>
<circle clip-path="url(#clip622)" style="fill:#4682b4; stroke:none; fill-opacity:0" cx="632.44" cy="521.133" r="2"/>
<circle clip-path="url(#clip622)" style="fill:#4682b4; stroke:none; fill-opacity:0" cx="688.657" cy="755.666" r="2"/>
<circle clip-path="url(#clip622)" style="fill:#4682b4; stroke:none; fill-opacity:0" cx="744.874" cy="1026.28" r="2"/>
<circle clip-path="url(#clip622)" style="fill:#4682b4; stroke:none; fill-opacity:0" cx="801.092" cy="881.952" r="2"/>
<circle clip-path="url(#clip622)" style="fill:#4682b4; stroke:none; fill-opacity:0" cx="857.309" cy="1062.36" r="2"/>
<circle clip-path="url(#clip622)" style="fill:#4682b4; stroke:none; fill-opacity:0" cx="913.526" cy="1170.61" r="2"/>
<circle clip-path="url(#clip622)" style="fill:#4682b4; stroke:none; fill-opacity:0" cx="969.743" cy="1278.85" r="2"/>
<circle clip-path="url(#clip622)" style="fill:#4682b4; stroke:none; fill-opacity:0" cx="1025.96" cy="1170.61" r="2"/>
<circle clip-path="url(#clip622)" style="fill:#4682b4; stroke:none; fill-opacity:0" cx="1082.18" cy="1206.69" r="2"/>
<circle clip-path="url(#clip622)" style="fill:#4682b4; stroke:none; fill-opacity:0" cx="1138.4" cy="1278.85" r="2"/>
<circle clip-path="url(#clip622)" style="fill:#4682b4; stroke:none; fill-opacity:0" cx="1194.61" cy="1369.06" r="2"/>
<circle clip-path="url(#clip622)" style="fill:#4682b4; stroke:none; fill-opacity:0" cx="1250.83" cy="1278.85" r="2"/>
<circle clip-path="url(#clip622)" style="fill:#4682b4; stroke:none; fill-opacity:0" cx="1307.05" cy="1387.1" r="2"/>
<circle clip-path="url(#clip622)" style="fill:#4682b4; stroke:none; fill-opacity:0" cx="1363.26" cy="1314.93" r="2"/>
<circle clip-path="url(#clip622)" style="fill:#4682b4; stroke:none; fill-opacity:0" cx="1419.48" cy="1405.14" r="2"/>
<circle clip-path="url(#clip622)" style="fill:#4682b4; stroke:none; fill-opacity:0" cx="1475.7" cy="1351.02" r="2"/>
<circle clip-path="url(#clip622)" style="fill:#4682b4; stroke:none; fill-opacity:0" cx="1531.92" cy="1423.18" r="2"/>
<circle clip-path="url(#clip622)" style="fill:#4682b4; stroke:none; fill-opacity:0" cx="1588.13" cy="1405.14" r="2"/>
<circle clip-path="url(#clip622)" style="fill:#4682b4; stroke:none; fill-opacity:0" cx="1644.35" cy="1387.1" r="2"/>
<circle clip-path="url(#clip622)" style="fill:#4682b4; stroke:none; fill-opacity:0" cx="1700.57" cy="1387.1" r="2"/>
<circle clip-path="url(#clip622)" style="fill:#4682b4; stroke:none; fill-opacity:0" cx="1756.79" cy="1405.14" r="2"/>
<circle clip-path="url(#clip622)" style="fill:#4682b4; stroke:none; fill-opacity:0" cx="1813" cy="1423.18" r="2"/>
<circle clip-path="url(#clip622)" style="fill:#4682b4; stroke:none; fill-opacity:0" cx="1869.22" cy="1423.18" r="2"/>
<circle clip-path="url(#clip622)" style="fill:#4682b4; stroke:none; fill-opacity:0" cx="1925.44" cy="1423.18" r="2"/>
<circle clip-path="url(#clip622)" style="fill:#4682b4; stroke:none; fill-opacity:0" cx="1981.65" cy="1405.14" r="2"/>
<circle clip-path="url(#clip622)" style="fill:#4682b4; stroke:none; fill-opacity:0" cx="2037.87" cy="1423.18" r="2"/>
<circle clip-path="url(#clip622)" style="fill:#4682b4; stroke:none; fill-opacity:0" cx="2094.09" cy="1405.14" r="2"/>
<circle clip-path="url(#clip622)" style="fill:#4682b4; stroke:none; fill-opacity:0" cx="2150.31" cy="1405.14" r="2"/>
<circle clip-path="url(#clip622)" style="fill:#4682b4; stroke:none; fill-opacity:0" cx="2206.52" cy="1405.14" r="2"/>
<polyline clip-path="url(#clip622)" style="stroke:#ff0000; stroke-linecap:round; stroke-linejoin:round; stroke-width:8; stroke-opacity:1; fill:none" points="823.781,2740.17 823.781,-1210.8 "/>
<polyline clip-path="url(#clip622)" style="stroke:#0000ff; stroke-linecap:round; stroke-linejoin:round; stroke-width:8; stroke-opacity:1; fill:none" stroke-dasharray="32, 20" points="604.238,2740.17 604.238,-1210.8 "/>
<path clip-path="url(#clip620)" d="M1632.33 357.452 L2281.17 357.452 L2281.17 150.092 L1632.33 150.092  Z" fill="#ffffff" fill-rule="evenodd" fill-opacity="1"/>
<polyline clip-path="url(#clip620)" style="stroke:#000000; stroke-linecap:round; stroke-linejoin:round; stroke-width:4; stroke-opacity:1; fill:none" points="1632.33,357.452 2281.17,357.452 2281.17,150.092 1632.33,150.092 1632.33,357.452 "/>
<path clip-path="url(#clip620)" d="M1656.2 222.668 L1799.37 222.668 L1799.37 181.196 L1656.2 181.196 L1656.2 222.668  Z" fill="#4682b4" fill-rule="evenodd" fill-opacity="0.6"/>
<polyline clip-path="url(#clip620)" style="stroke:#000000; stroke-linecap:round; stroke-linejoin:round; stroke-width:4; stroke-opacity:1; fill:none" points="1656.2,222.668 1799.37,222.668 1799.37,181.196 1656.2,181.196 1656.2,222.668 "/>
<path clip-path="url(#clip620)" d="M1845.48 185.786 L1845.48 190.346 Q1842.82 189.073 1840.46 188.448 Q1838.09 187.823 1835.9 187.823 Q1832.08 187.823 1829.99 189.304 Q1827.93 190.786 1827.93 193.517 Q1827.93 195.809 1829.3 196.99 Q1830.69 198.147 1834.53 198.865 L1837.35 199.443 Q1842.59 200.439 1845.06 202.962 Q1847.56 205.462 1847.56 209.675 Q1847.56 214.698 1844.18 217.29 Q1840.83 219.883 1834.32 219.883 Q1831.87 219.883 1829.09 219.327 Q1826.34 218.772 1823.37 217.684 L1823.37 212.869 Q1826.22 214.466 1828.95 215.277 Q1831.68 216.087 1834.32 216.087 Q1838.33 216.087 1840.5 214.513 Q1842.68 212.939 1842.68 210.022 Q1842.68 207.476 1841.1 206.04 Q1839.55 204.605 1835.99 203.888 L1833.14 203.332 Q1827.91 202.291 1825.57 200.068 Q1823.23 197.846 1823.23 193.888 Q1823.23 189.304 1826.45 186.666 Q1829.69 184.027 1835.36 184.027 Q1837.79 184.027 1840.32 184.467 Q1842.84 184.906 1845.48 185.786 Z" fill="#000000" fill-rule="nonzero" fill-opacity="1" /><path clip-path="url(#clip620)" d="M1854.67 193.286 L1858.93 193.286 L1858.93 219.212 L1854.67 219.212 L1854.67 193.286 M1854.67 183.193 L1858.93 183.193 L1858.93 188.587 L1854.67 188.587 L1854.67 183.193 Z" fill="#000000" fill-rule="nonzero" fill-opacity="1" /><path clip-path="url(#clip620)" d="M1888.03 198.263 Q1889.62 195.392 1891.84 194.027 Q1894.07 192.661 1897.08 192.661 Q1901.13 192.661 1903.33 195.508 Q1905.52 198.332 1905.52 203.564 L1905.52 219.212 L1901.24 219.212 L1901.24 203.703 Q1901.24 199.976 1899.92 198.17 Q1898.6 196.365 1895.9 196.365 Q1892.59 196.365 1890.66 198.564 Q1888.74 200.763 1888.74 204.559 L1888.74 219.212 L1884.46 219.212 L1884.46 203.703 Q1884.46 199.953 1883.14 198.17 Q1881.82 196.365 1879.07 196.365 Q1875.8 196.365 1873.88 198.587 Q1871.96 200.786 1871.96 204.559 L1871.96 219.212 L1867.68 219.212 L1867.68 193.286 L1871.96 193.286 L1871.96 197.314 Q1873.42 194.929 1875.46 193.795 Q1877.49 192.661 1880.29 192.661 Q1883.12 192.661 1885.09 194.096 Q1887.08 195.531 1888.03 198.263 Z" fill="#000000" fill-rule="nonzero" fill-opacity="1" /><path clip-path="url(#clip620)" d="M1913.58 208.98 L1913.58 193.286 L1917.84 193.286 L1917.84 208.818 Q1917.84 212.499 1919.27 214.351 Q1920.71 216.179 1923.58 216.179 Q1927.03 216.179 1929.02 213.98 Q1931.03 211.781 1931.03 207.985 L1931.03 193.286 L1935.29 193.286 L1935.29 219.212 L1931.03 219.212 L1931.03 215.23 Q1929.48 217.591 1927.42 218.749 Q1925.39 219.883 1922.68 219.883 Q1918.21 219.883 1915.9 217.105 Q1913.58 214.327 1913.58 208.98 M1924.3 192.661 L1924.3 192.661 Z" fill="#000000" fill-rule="nonzero" fill-opacity="1" /><path clip-path="url(#clip620)" d="M1944.07 183.193 L1948.33 183.193 L1948.33 219.212 L1944.07 219.212 L1944.07 183.193 Z" fill="#000000" fill-rule="nonzero" fill-opacity="1" /><path clip-path="url(#clip620)" d="M1969.02 206.179 Q1963.86 206.179 1961.87 207.36 Q1959.88 208.54 1959.88 211.388 Q1959.88 213.656 1961.36 214.999 Q1962.86 216.318 1965.43 216.318 Q1968.97 216.318 1971.1 213.818 Q1973.26 211.295 1973.26 207.128 L1973.26 206.179 L1969.02 206.179 M1977.52 204.42 L1977.52 219.212 L1973.26 219.212 L1973.26 215.277 Q1971.8 217.638 1969.62 218.772 Q1967.45 219.883 1964.3 219.883 Q1960.32 219.883 1957.96 217.661 Q1955.62 215.415 1955.62 211.665 Q1955.62 207.29 1958.53 205.068 Q1961.47 202.846 1967.28 202.846 L1973.26 202.846 L1973.26 202.429 Q1973.26 199.49 1971.31 197.892 Q1969.39 196.272 1965.89 196.272 Q1963.67 196.272 1961.57 196.804 Q1959.46 197.337 1957.52 198.402 L1957.52 194.466 Q1959.85 193.564 1962.05 193.124 Q1964.25 192.661 1966.33 192.661 Q1971.96 192.661 1974.74 195.578 Q1977.52 198.494 1977.52 204.42 Z" fill="#000000" fill-rule="nonzero" fill-opacity="1" /><path clip-path="url(#clip620)" d="M1990.5 185.925 L1990.5 193.286 L1999.27 193.286 L1999.27 196.596 L1990.5 196.596 L1990.5 210.67 Q1990.5 213.841 1991.36 214.744 Q1992.24 215.647 1994.9 215.647 L1999.27 215.647 L1999.27 219.212 L1994.9 219.212 Q1989.97 219.212 1988.09 217.383 Q1986.22 215.531 1986.22 210.67 L1986.22 196.596 L1983.09 196.596 L1983.09 193.286 L1986.22 193.286 L1986.22 185.925 L1990.5 185.925 Z" fill="#000000" fill-rule="nonzero" fill-opacity="1" /><path clip-path="url(#clip620)" d="M2027.05 205.184 L2027.05 207.267 L2007.47 207.267 Q2007.75 211.665 2010.11 213.98 Q2012.49 216.272 2016.73 216.272 Q2019.18 216.272 2021.47 215.67 Q2023.79 215.068 2026.06 213.865 L2026.06 217.892 Q2023.77 218.864 2021.36 219.374 Q2018.95 219.883 2016.47 219.883 Q2010.27 219.883 2006.64 216.272 Q2003.02 212.661 2003.02 206.503 Q2003.02 200.138 2006.45 196.411 Q2009.9 192.661 2015.73 192.661 Q2020.96 192.661 2024 196.041 Q2027.05 199.397 2027.05 205.184 M2022.79 203.934 Q2022.75 200.439 2020.83 198.355 Q2018.93 196.272 2015.78 196.272 Q2012.21 196.272 2010.06 198.286 Q2007.93 200.3 2007.61 203.957 L2022.79 203.934 Z" fill="#000000" fill-rule="nonzero" fill-opacity="1" /><path clip-path="url(#clip620)" d="M2051.1 197.221 L2051.1 183.193 L2055.36 183.193 L2055.36 219.212 L2051.1 219.212 L2051.1 215.323 Q2049.76 217.638 2047.7 218.772 Q2045.66 219.883 2042.79 219.883 Q2038.09 219.883 2035.13 216.133 Q2032.19 212.383 2032.19 206.272 Q2032.19 200.161 2035.13 196.411 Q2038.09 192.661 2042.79 192.661 Q2045.66 192.661 2047.7 193.795 Q2049.76 194.906 2051.1 197.221 M2036.59 206.272 Q2036.59 210.971 2038.51 213.656 Q2040.45 216.318 2043.83 216.318 Q2047.21 216.318 2049.16 213.656 Q2051.1 210.971 2051.1 206.272 Q2051.1 201.573 2049.16 198.911 Q2047.21 196.226 2043.83 196.226 Q2040.45 196.226 2038.51 198.911 Q2036.59 201.573 2036.59 206.272 Z" fill="#000000" fill-rule="nonzero" fill-opacity="1" /><polyline clip-path="url(#clip620)" style="stroke:#ff0000; stroke-linecap:round; stroke-linejoin:round; stroke-width:8; stroke-opacity:1; fill:none" points="1656.2,253.772 1799.37,253.772 "/>
<path clip-path="url(#clip620)" d="M1839.25 239.663 Q1834.16 239.663 1831.15 243.459 Q1828.16 247.256 1828.16 253.806 Q1828.16 260.334 1831.15 264.13 Q1834.16 267.927 1839.25 267.927 Q1844.34 267.927 1847.31 264.13 Q1850.29 260.334 1850.29 253.806 Q1850.29 247.256 1847.31 243.459 Q1844.34 239.663 1839.25 239.663 M1839.25 235.867 Q1846.52 235.867 1850.87 240.751 Q1855.22 245.612 1855.22 253.806 Q1855.22 261.978 1850.87 266.862 Q1846.52 271.723 1839.25 271.723 Q1831.96 271.723 1827.59 266.862 Q1823.23 262.001 1823.23 253.806 Q1823.23 245.612 1827.59 240.751 Q1831.96 235.867 1839.25 235.867 Z" fill="#000000" fill-rule="nonzero" fill-opacity="1" /><path clip-path="url(#clip620)" d="M1880.96 258.112 Q1880.96 253.413 1879.02 250.751 Q1877.1 248.066 1873.72 248.066 Q1870.34 248.066 1868.4 250.751 Q1866.47 253.413 1866.47 258.112 Q1866.47 262.811 1868.4 265.496 Q1870.34 268.158 1873.72 268.158 Q1877.1 268.158 1879.02 265.496 Q1880.96 262.811 1880.96 258.112 M1866.47 249.061 Q1867.82 246.746 1869.85 245.635 Q1871.91 244.501 1874.76 244.501 Q1879.48 244.501 1882.42 248.251 Q1885.39 252.001 1885.39 258.112 Q1885.39 264.223 1882.42 267.973 Q1879.48 271.723 1874.76 271.723 Q1871.91 271.723 1869.85 270.612 Q1867.82 269.478 1866.47 267.163 L1866.47 271.052 L1862.19 271.052 L1862.19 235.033 L1866.47 235.033 L1866.47 249.061 Z" fill="#000000" fill-rule="nonzero" fill-opacity="1" /><path clip-path="url(#clip620)" d="M1908.97 245.89 L1908.97 249.918 Q1907.17 248.992 1905.22 248.529 Q1903.28 248.066 1901.2 248.066 Q1898.02 248.066 1896.43 249.038 Q1894.85 250.01 1894.85 251.955 Q1894.85 253.436 1895.99 254.293 Q1897.12 255.126 1900.55 255.89 L1902.01 256.214 Q1906.54 257.186 1908.44 258.968 Q1910.36 260.728 1910.36 263.899 Q1910.36 267.51 1907.49 269.617 Q1904.65 271.723 1899.65 271.723 Q1897.56 271.723 1895.29 271.306 Q1893.05 270.913 1890.55 270.103 L1890.55 265.705 Q1892.91 266.931 1895.2 267.556 Q1897.49 268.158 1899.74 268.158 Q1902.75 268.158 1904.37 267.14 Q1905.99 266.098 1905.99 264.223 Q1905.99 262.487 1904.81 261.561 Q1903.65 260.635 1899.69 259.779 L1898.21 259.431 Q1894.25 258.598 1892.49 256.885 Q1890.73 255.149 1890.73 252.14 Q1890.73 248.482 1893.33 246.492 Q1895.92 244.501 1900.69 244.501 Q1903.05 244.501 1905.13 244.848 Q1907.21 245.195 1908.97 245.89 Z" fill="#000000" fill-rule="nonzero" fill-opacity="1" /><path clip-path="url(#clip620)" d="M1939.32 257.024 L1939.32 259.107 L1919.74 259.107 Q1920.02 263.505 1922.38 265.82 Q1924.76 268.112 1929 268.112 Q1931.45 268.112 1933.74 267.51 Q1936.06 266.908 1938.33 265.705 L1938.33 269.732 Q1936.03 270.704 1933.63 271.214 Q1931.22 271.723 1928.74 271.723 Q1922.54 271.723 1918.9 268.112 Q1915.29 264.501 1915.29 258.343 Q1915.29 251.978 1918.72 248.251 Q1922.17 244.501 1928 244.501 Q1933.23 244.501 1936.27 247.881 Q1939.32 251.237 1939.32 257.024 M1935.06 255.774 Q1935.02 252.279 1933.09 250.195 Q1931.2 248.112 1928.05 248.112 Q1924.48 248.112 1922.33 250.126 Q1920.2 252.14 1919.88 255.797 L1935.06 255.774 Z" fill="#000000" fill-rule="nonzero" fill-opacity="1" /><path clip-path="url(#clip620)" d="M1961.33 249.107 Q1960.62 248.691 1959.76 248.506 Q1958.93 248.297 1957.91 248.297 Q1954.3 248.297 1952.35 250.658 Q1950.43 252.996 1950.43 257.394 L1950.43 271.052 L1946.15 271.052 L1946.15 245.126 L1950.43 245.126 L1950.43 249.154 Q1951.77 246.793 1953.93 245.658 Q1956.08 244.501 1959.16 244.501 Q1959.6 244.501 1960.13 244.57 Q1960.66 244.617 1961.31 244.732 L1961.33 249.107 Z" fill="#000000" fill-rule="nonzero" fill-opacity="1" /><path clip-path="url(#clip620)" d="M1962.75 245.126 L1967.26 245.126 L1975.36 266.885 L1983.46 245.126 L1987.98 245.126 L1978.26 271.052 L1972.47 271.052 L1962.75 245.126 Z" fill="#000000" fill-rule="nonzero" fill-opacity="1" /><path clip-path="url(#clip620)" d="M2016.03 257.024 L2016.03 259.107 L1996.45 259.107 Q1996.73 263.505 1999.09 265.82 Q2001.47 268.112 2005.71 268.112 Q2008.16 268.112 2010.45 267.51 Q2012.77 266.908 2015.04 265.705 L2015.04 269.732 Q2012.75 270.704 2010.34 271.214 Q2007.93 271.723 2005.45 271.723 Q1999.25 271.723 1995.62 268.112 Q1992.01 264.501 1992.01 258.343 Q1992.01 251.978 1995.43 248.251 Q1998.88 244.501 2004.71 244.501 Q2009.95 244.501 2012.98 247.881 Q2016.03 251.237 2016.03 257.024 M2011.77 255.774 Q2011.73 252.279 2009.81 250.195 Q2007.91 248.112 2004.76 248.112 Q2001.2 248.112 1999.04 250.126 Q1996.91 252.14 1996.59 255.797 L2011.77 255.774 Z" fill="#000000" fill-rule="nonzero" fill-opacity="1" /><path clip-path="url(#clip620)" d="M2040.08 249.061 L2040.08 235.033 L2044.34 235.033 L2044.34 271.052 L2040.08 271.052 L2040.08 267.163 Q2038.74 269.478 2036.68 270.612 Q2034.64 271.723 2031.77 271.723 Q2027.08 271.723 2024.11 267.973 Q2021.17 264.223 2021.17 258.112 Q2021.17 252.001 2024.11 248.251 Q2027.08 244.501 2031.77 244.501 Q2034.64 244.501 2036.68 245.635 Q2038.74 246.746 2040.08 249.061 M2025.57 258.112 Q2025.57 262.811 2027.49 265.496 Q2029.44 268.158 2032.82 268.158 Q2036.2 268.158 2038.14 265.496 Q2040.08 262.811 2040.08 258.112 Q2040.08 253.413 2038.14 250.751 Q2036.2 248.066 2032.82 248.066 Q2029.44 248.066 2027.49 250.751 Q2025.57 253.413 2025.57 258.112 Z" fill="#000000" fill-rule="nonzero" fill-opacity="1" /><path clip-path="url(#clip620)" d="M2072.4 237.765 L2072.4 245.126 L2081.17 245.126 L2081.17 248.436 L2072.4 248.436 L2072.4 262.51 Q2072.4 265.681 2073.26 266.584 Q2074.14 267.487 2076.8 267.487 L2081.17 267.487 L2081.17 271.052 L2076.8 271.052 Q2071.87 271.052 2069.99 269.223 Q2068.12 267.371 2068.12 262.51 L2068.12 248.436 L2064.99 248.436 L2064.99 245.126 L2068.12 245.126 L2068.12 237.765 L2072.4 237.765 Z" fill="#000000" fill-rule="nonzero" fill-opacity="1" /><path clip-path="url(#clip620)" d="M2108.95 257.024 L2108.95 259.107 L2089.37 259.107 Q2089.64 263.505 2092.01 265.82 Q2094.39 268.112 2098.63 268.112 Q2101.08 268.112 2103.37 267.51 Q2105.69 266.908 2107.95 265.705 L2107.95 269.732 Q2105.66 270.704 2103.26 271.214 Q2100.85 271.723 2098.37 271.723 Q2092.17 271.723 2088.53 268.112 Q2084.92 264.501 2084.92 258.343 Q2084.92 251.978 2088.35 248.251 Q2091.8 244.501 2097.63 244.501 Q2102.86 244.501 2105.89 247.881 Q2108.95 251.237 2108.95 257.024 M2104.69 255.774 Q2104.64 252.279 2102.72 250.195 Q2100.82 248.112 2097.68 248.112 Q2094.11 248.112 2091.96 250.126 Q2089.83 252.14 2089.51 255.797 L2104.69 255.774 Z" fill="#000000" fill-rule="nonzero" fill-opacity="1" /><path clip-path="url(#clip620)" d="M2130.96 249.107 Q2130.25 248.691 2129.39 248.506 Q2128.56 248.297 2127.54 248.297 Q2123.93 248.297 2121.98 250.658 Q2120.06 252.996 2120.06 257.394 L2120.06 271.052 L2115.78 271.052 L2115.78 245.126 L2120.06 245.126 L2120.06 249.154 Q2121.4 246.793 2123.56 245.658 Q2125.71 244.501 2128.79 244.501 Q2129.23 244.501 2129.76 244.57 Q2130.29 244.617 2130.94 244.732 L2130.96 249.107 Z" fill="#000000" fill-rule="nonzero" fill-opacity="1" /><path clip-path="url(#clip620)" d="M2154.78 250.103 Q2156.38 247.232 2158.6 245.867 Q2160.82 244.501 2163.83 244.501 Q2167.88 244.501 2170.08 247.348 Q2172.28 250.172 2172.28 255.404 L2172.28 271.052 L2168 271.052 L2168 255.543 Q2168 251.816 2166.68 250.01 Q2165.36 248.205 2162.65 248.205 Q2159.34 248.205 2157.42 250.404 Q2155.5 252.603 2155.5 256.399 L2155.5 271.052 L2151.22 271.052 L2151.22 255.543 Q2151.22 251.793 2149.9 250.01 Q2148.58 248.205 2145.82 248.205 Q2142.56 248.205 2140.64 250.427 Q2138.72 252.626 2138.72 256.399 L2138.72 271.052 L2134.44 271.052 L2134.44 245.126 L2138.72 245.126 L2138.72 249.154 Q2140.18 246.769 2142.21 245.635 Q2144.25 244.501 2147.05 244.501 Q2149.88 244.501 2151.84 245.936 Q2153.83 247.371 2154.78 250.103 Z" fill="#000000" fill-rule="nonzero" fill-opacity="1" /><path clip-path="url(#clip620)" d="M2180.78 245.126 L2185.04 245.126 L2185.04 271.052 L2180.78 271.052 L2180.78 245.126 M2180.78 235.033 L2185.04 235.033 L2185.04 240.427 L2180.78 240.427 L2180.78 235.033 Z" fill="#000000" fill-rule="nonzero" fill-opacity="1" /><path clip-path="url(#clip620)" d="M2215.5 255.404 L2215.5 271.052 L2211.24 271.052 L2211.24 255.543 Q2211.24 251.862 2209.81 250.033 Q2208.37 248.205 2205.5 248.205 Q2202.05 248.205 2200.06 250.404 Q2198.07 252.603 2198.07 256.399 L2198.07 271.052 L2193.79 271.052 L2193.79 245.126 L2198.07 245.126 L2198.07 249.154 Q2199.6 246.816 2201.66 245.658 Q2203.74 244.501 2206.45 244.501 Q2210.92 244.501 2213.21 247.279 Q2215.5 250.033 2215.5 255.404 Z" fill="#000000" fill-rule="nonzero" fill-opacity="1" /><path clip-path="url(#clip620)" d="M2235.78 258.019 Q2230.62 258.019 2228.63 259.2 Q2226.63 260.38 2226.63 263.228 Q2226.63 265.496 2228.12 266.839 Q2229.62 268.158 2232.19 268.158 Q2235.73 268.158 2237.86 265.658 Q2240.01 263.135 2240.01 258.968 L2240.01 258.019 L2235.78 258.019 M2244.27 256.26 L2244.27 271.052 L2240.01 271.052 L2240.01 267.117 Q2238.56 269.478 2236.38 270.612 Q2234.2 271.723 2231.06 271.723 Q2227.07 271.723 2224.71 269.501 Q2222.38 267.255 2222.38 263.505 Q2222.38 259.13 2225.29 256.908 Q2228.23 254.686 2234.04 254.686 L2240.01 254.686 L2240.01 254.269 Q2240.01 251.33 2238.07 249.732 Q2236.15 248.112 2232.65 248.112 Q2230.43 248.112 2228.32 248.644 Q2226.22 249.177 2224.27 250.242 L2224.27 246.306 Q2226.61 245.404 2228.81 244.964 Q2231.01 244.501 2233.09 244.501 Q2238.72 244.501 2241.5 247.418 Q2244.27 250.334 2244.27 256.26 Z" fill="#000000" fill-rule="nonzero" fill-opacity="1" /><path clip-path="url(#clip620)" d="M2253.05 235.033 L2257.31 235.033 L2257.31 271.052 L2253.05 271.052 L2253.05 235.033 Z" fill="#000000" fill-rule="nonzero" fill-opacity="1" /><polyline clip-path="url(#clip620)" style="stroke:#0000ff; stroke-linecap:round; stroke-linejoin:round; stroke-width:8; stroke-opacity:1; fill:none" stroke-dasharray="32, 20" points="1656.2,305.612 1799.37,305.612 "/>
<path clip-path="url(#clip620)" d="M1845.48 289.466 L1845.48 294.026 Q1842.82 292.753 1840.46 292.128 Q1838.09 291.503 1835.9 291.503 Q1832.08 291.503 1829.99 292.984 Q1827.93 294.466 1827.93 297.197 Q1827.93 299.489 1829.3 300.67 Q1830.69 301.827 1834.53 302.545 L1837.35 303.123 Q1842.59 304.119 1845.06 306.642 Q1847.56 309.142 1847.56 313.355 Q1847.56 318.378 1844.18 320.97 Q1840.83 323.563 1834.32 323.563 Q1831.87 323.563 1829.09 323.007 Q1826.34 322.452 1823.37 321.364 L1823.37 316.549 Q1826.22 318.146 1828.95 318.957 Q1831.68 319.767 1834.32 319.767 Q1838.33 319.767 1840.5 318.193 Q1842.68 316.619 1842.68 313.702 Q1842.68 311.156 1841.1 309.72 Q1839.55 308.285 1835.99 307.568 L1833.14 307.012 Q1827.91 305.971 1825.57 303.748 Q1823.23 301.526 1823.23 297.568 Q1823.23 292.984 1826.45 290.346 Q1829.69 287.707 1835.36 287.707 Q1837.79 287.707 1840.32 288.147 Q1842.84 288.586 1845.48 289.466 Z" fill="#000000" fill-rule="nonzero" fill-opacity="1" /><path clip-path="url(#clip620)" d="M1854.67 296.966 L1858.93 296.966 L1858.93 322.892 L1854.67 322.892 L1854.67 296.966 M1854.67 286.873 L1858.93 286.873 L1858.93 292.267 L1854.67 292.267 L1854.67 286.873 Z" fill="#000000" fill-rule="nonzero" fill-opacity="1" /><path clip-path="url(#clip620)" d="M1888.03 301.943 Q1889.62 299.072 1891.84 297.707 Q1894.07 296.341 1897.08 296.341 Q1901.13 296.341 1903.33 299.188 Q1905.52 302.012 1905.52 307.244 L1905.52 322.892 L1901.24 322.892 L1901.24 307.383 Q1901.24 303.656 1899.92 301.85 Q1898.6 300.045 1895.9 300.045 Q1892.59 300.045 1890.66 302.244 Q1888.74 304.443 1888.74 308.239 L1888.74 322.892 L1884.46 322.892 L1884.46 307.383 Q1884.46 303.633 1883.14 301.85 Q1881.82 300.045 1879.07 300.045 Q1875.8 300.045 1873.88 302.267 Q1871.96 304.466 1871.96 308.239 L1871.96 322.892 L1867.68 322.892 L1867.68 296.966 L1871.96 296.966 L1871.96 300.994 Q1873.42 298.609 1875.46 297.475 Q1877.49 296.341 1880.29 296.341 Q1883.12 296.341 1885.09 297.776 Q1887.08 299.211 1888.03 301.943 Z" fill="#000000" fill-rule="nonzero" fill-opacity="1" /><path clip-path="url(#clip620)" d="M1913.58 312.66 L1913.58 296.966 L1917.84 296.966 L1917.84 312.498 Q1917.84 316.179 1919.27 318.031 Q1920.71 319.859 1923.58 319.859 Q1927.03 319.859 1929.02 317.66 Q1931.03 315.461 1931.03 311.665 L1931.03 296.966 L1935.29 296.966 L1935.29 322.892 L1931.03 322.892 L1931.03 318.91 Q1929.48 321.271 1927.42 322.429 Q1925.39 323.563 1922.68 323.563 Q1918.21 323.563 1915.9 320.785 Q1913.58 318.007 1913.58 312.66 M1924.3 296.341 L1924.3 296.341 Z" fill="#000000" fill-rule="nonzero" fill-opacity="1" /><path clip-path="url(#clip620)" d="M1944.07 286.873 L1948.33 286.873 L1948.33 322.892 L1944.07 322.892 L1944.07 286.873 Z" fill="#000000" fill-rule="nonzero" fill-opacity="1" /><path clip-path="url(#clip620)" d="M1969.02 309.859 Q1963.86 309.859 1961.87 311.04 Q1959.88 312.22 1959.88 315.068 Q1959.88 317.336 1961.36 318.679 Q1962.86 319.998 1965.43 319.998 Q1968.97 319.998 1971.1 317.498 Q1973.26 314.975 1973.26 310.808 L1973.26 309.859 L1969.02 309.859 M1977.52 308.1 L1977.52 322.892 L1973.26 322.892 L1973.26 318.957 Q1971.8 321.318 1969.62 322.452 Q1967.45 323.563 1964.3 323.563 Q1960.32 323.563 1957.96 321.341 Q1955.62 319.095 1955.62 315.345 Q1955.62 310.97 1958.53 308.748 Q1961.47 306.526 1967.28 306.526 L1973.26 306.526 L1973.26 306.109 Q1973.26 303.17 1971.31 301.572 Q1969.39 299.952 1965.89 299.952 Q1963.67 299.952 1961.57 300.484 Q1959.46 301.017 1957.52 302.082 L1957.52 298.146 Q1959.85 297.244 1962.05 296.804 Q1964.25 296.341 1966.33 296.341 Q1971.96 296.341 1974.74 299.258 Q1977.52 302.174 1977.52 308.1 Z" fill="#000000" fill-rule="nonzero" fill-opacity="1" /><path clip-path="url(#clip620)" d="M1990.5 289.605 L1990.5 296.966 L1999.27 296.966 L1999.27 300.276 L1990.5 300.276 L1990.5 314.35 Q1990.5 317.521 1991.36 318.424 Q1992.24 319.327 1994.9 319.327 L1999.27 319.327 L1999.27 322.892 L1994.9 322.892 Q1989.97 322.892 1988.09 321.063 Q1986.22 319.211 1986.22 314.35 L1986.22 300.276 L1983.09 300.276 L1983.09 296.966 L1986.22 296.966 L1986.22 289.605 L1990.5 289.605 Z" fill="#000000" fill-rule="nonzero" fill-opacity="1" /><path clip-path="url(#clip620)" d="M2027.05 308.864 L2027.05 310.947 L2007.47 310.947 Q2007.75 315.345 2010.11 317.66 Q2012.49 319.952 2016.73 319.952 Q2019.18 319.952 2021.47 319.35 Q2023.79 318.748 2026.06 317.545 L2026.06 321.572 Q2023.77 322.544 2021.36 323.054 Q2018.95 323.563 2016.47 323.563 Q2010.27 323.563 2006.64 319.952 Q2003.02 316.341 2003.02 310.183 Q2003.02 303.818 2006.45 300.091 Q2009.9 296.341 2015.73 296.341 Q2020.96 296.341 2024 299.721 Q2027.05 303.077 2027.05 308.864 M2022.79 307.614 Q2022.75 304.119 2020.83 302.035 Q2018.93 299.952 2015.78 299.952 Q2012.21 299.952 2010.06 301.966 Q2007.93 303.98 2007.61 307.637 L2022.79 307.614 Z" fill="#000000" fill-rule="nonzero" fill-opacity="1" /><path clip-path="url(#clip620)" d="M2051.1 300.901 L2051.1 286.873 L2055.36 286.873 L2055.36 322.892 L2051.1 322.892 L2051.1 319.003 Q2049.76 321.318 2047.7 322.452 Q2045.66 323.563 2042.79 323.563 Q2038.09 323.563 2035.13 319.813 Q2032.19 316.063 2032.19 309.952 Q2032.19 303.841 2035.13 300.091 Q2038.09 296.341 2042.79 296.341 Q2045.66 296.341 2047.7 297.475 Q2049.76 298.586 2051.1 300.901 M2036.59 309.952 Q2036.59 314.651 2038.51 317.336 Q2040.45 319.998 2043.83 319.998 Q2047.21 319.998 2049.16 317.336 Q2051.1 314.651 2051.1 309.952 Q2051.1 305.253 2049.16 302.591 Q2047.21 299.906 2043.83 299.906 Q2040.45 299.906 2038.51 302.591 Q2036.59 305.253 2036.59 309.952 Z" fill="#000000" fill-rule="nonzero" fill-opacity="1" /><path clip-path="url(#clip620)" d="M2099.39 301.943 Q2100.99 299.072 2103.21 297.707 Q2105.43 296.341 2108.44 296.341 Q2112.49 296.341 2114.69 299.188 Q2116.89 302.012 2116.89 307.244 L2116.89 322.892 L2112.61 322.892 L2112.61 307.383 Q2112.61 303.656 2111.29 301.85 Q2109.97 300.045 2107.26 300.045 Q2103.95 300.045 2102.03 302.244 Q2100.11 304.443 2100.11 308.239 L2100.11 322.892 L2095.82 322.892 L2095.82 307.383 Q2095.82 303.633 2094.51 301.85 Q2093.19 300.045 2090.43 300.045 Q2087.17 300.045 2085.25 302.267 Q2083.32 304.466 2083.32 308.239 L2083.32 322.892 L2079.04 322.892 L2079.04 296.966 L2083.32 296.966 L2083.32 300.994 Q2084.78 298.609 2086.82 297.475 Q2088.86 296.341 2091.66 296.341 Q2094.48 296.341 2096.45 297.776 Q2098.44 299.211 2099.39 301.943 Z" fill="#000000" fill-rule="nonzero" fill-opacity="1" /><path clip-path="url(#clip620)" d="M2147.56 308.864 L2147.56 310.947 L2127.98 310.947 Q2128.26 315.345 2130.62 317.66 Q2133 319.952 2137.24 319.952 Q2139.69 319.952 2141.98 319.35 Q2144.3 318.748 2146.57 317.545 L2146.57 321.572 Q2144.27 322.544 2141.87 323.054 Q2139.46 323.563 2136.98 323.563 Q2130.78 323.563 2127.14 319.952 Q2123.53 316.341 2123.53 310.183 Q2123.53 303.818 2126.96 300.091 Q2130.41 296.341 2136.24 296.341 Q2141.47 296.341 2144.51 299.721 Q2147.56 303.077 2147.56 308.864 M2143.3 307.614 Q2143.26 304.119 2141.33 302.035 Q2139.44 299.952 2136.29 299.952 Q2132.72 299.952 2130.57 301.966 Q2128.44 303.98 2128.12 307.637 L2143.3 307.614 Z" fill="#000000" fill-rule="nonzero" fill-opacity="1" /><path clip-path="url(#clip620)" d="M2171.61 300.901 L2171.61 286.873 L2175.87 286.873 L2175.87 322.892 L2171.61 322.892 L2171.61 319.003 Q2170.27 321.318 2168.21 322.452 Q2166.17 323.563 2163.3 323.563 Q2158.6 323.563 2155.64 319.813 Q2152.7 316.063 2152.7 309.952 Q2152.7 303.841 2155.64 300.091 Q2158.6 296.341 2163.3 296.341 Q2166.17 296.341 2168.21 297.475 Q2170.27 298.586 2171.61 300.901 M2157.1 309.952 Q2157.1 314.651 2159.02 317.336 Q2160.96 319.998 2164.34 319.998 Q2167.72 319.998 2169.67 317.336 Q2171.61 314.651 2171.61 309.952 Q2171.61 305.253 2169.67 302.591 Q2167.72 299.906 2164.34 299.906 Q2160.96 299.906 2159.02 302.591 Q2157.1 305.253 2157.1 309.952 Z" fill="#000000" fill-rule="nonzero" fill-opacity="1" /><path clip-path="url(#clip620)" d="M2184.64 296.966 L2188.9 296.966 L2188.9 322.892 L2184.64 322.892 L2184.64 296.966 M2184.64 286.873 L2188.9 286.873 L2188.9 292.267 L2184.64 292.267 L2184.64 286.873 Z" fill="#000000" fill-rule="nonzero" fill-opacity="1" /><path clip-path="url(#clip620)" d="M2209.6 309.859 Q2204.44 309.859 2202.44 311.04 Q2200.45 312.22 2200.45 315.068 Q2200.45 317.336 2201.94 318.679 Q2203.44 319.998 2206.01 319.998 Q2209.55 319.998 2211.68 317.498 Q2213.83 314.975 2213.83 310.808 L2213.83 309.859 L2209.6 309.859 M2218.09 308.1 L2218.09 322.892 L2213.83 322.892 L2213.83 318.957 Q2212.38 321.318 2210.2 322.452 Q2208.02 323.563 2204.88 323.563 Q2200.89 323.563 2198.53 321.341 Q2196.19 319.095 2196.19 315.345 Q2196.19 310.97 2199.11 308.748 Q2202.05 306.526 2207.86 306.526 L2213.83 306.526 L2213.83 306.109 Q2213.83 303.17 2211.89 301.572 Q2209.97 299.952 2206.47 299.952 Q2204.25 299.952 2202.14 300.484 Q2200.04 301.017 2198.09 302.082 L2198.09 298.146 Q2200.43 297.244 2202.63 296.804 Q2204.83 296.341 2206.91 296.341 Q2212.54 296.341 2215.31 299.258 Q2218.09 302.174 2218.09 308.1 Z" fill="#000000" fill-rule="nonzero" fill-opacity="1" /><path clip-path="url(#clip620)" d="M2248.42 307.244 L2248.42 322.892 L2244.16 322.892 L2244.16 307.383 Q2244.16 303.702 2242.72 301.873 Q2241.29 300.045 2238.42 300.045 Q2234.97 300.045 2232.98 302.244 Q2230.99 304.443 2230.99 308.239 L2230.99 322.892 L2226.7 322.892 L2226.7 296.966 L2230.99 296.966 L2230.99 300.994 Q2232.51 298.656 2234.57 297.498 Q2236.66 296.341 2239.37 296.341 Q2243.83 296.341 2246.12 299.119 Q2248.42 301.873 2248.42 307.244 Z" fill="#000000" fill-rule="nonzero" fill-opacity="1" /></svg>
