<?xml version="1.0" encoding="utf-8"?>
<svg xmlns="http://www.w3.org/2000/svg" xmlns:xlink="http://www.w3.org/1999/xlink" width="600" height="400" viewBox="0 0 2400 1600">
<defs>
  <clipPath id="clip160">
    <rect x="0" y="0" width="2400" height="1600"/>
  </clipPath>
</defs>
<path clip-path="url(#clip160)" d="M0 1600 L2400 1600 L2400 8.88178e-14 L0 8.88178e-14  Z" fill="#ffffff" fill-rule="evenodd" fill-opacity="1"/>
<defs>
  <clipPath id="clip161">
    <rect x="235" y="106" width="2118" height="1318"/>
  </clipPath>
</defs>
<path clip-path="url(#clip160)" d="M205.121 1423.18 L2352.76 1423.18 L2352.76 106.192 L205.121 106.192  Z" fill="#ffffff" fill-rule="evenodd" fill-opacity="1"/>
<defs>
  <clipPath id="clip162">
    <rect x="205" y="106" width="2149" height="1318"/>
  </clipPath>
</defs>
<polyline clip-path="url(#clip162)" style="stroke:#000000; stroke-linecap:round; stroke-linejoin:round; stroke-width:2; stroke-opacity:0.1; fill:none" points="596.3,1423.18 596.3,106.192 "/>
<polyline clip-path="url(#clip162)" style="stroke:#000000; stroke-linecap:round; stroke-linejoin:round; stroke-width:2; stroke-opacity:0.1; fill:none" points="1051.39,1423.18 1051.39,106.192 "/>
<polyline clip-path="url(#clip162)" style="stroke:#000000; stroke-linecap:round; stroke-linejoin:round; stroke-width:2; stroke-opacity:0.1; fill:none" points="1506.48,1423.18 1506.48,106.192 "/>
<polyline clip-path="url(#clip162)" style="stroke:#000000; stroke-linecap:round; stroke-linejoin:round; stroke-width:2; stroke-opacity:0.1; fill:none" points="1961.58,1423.18 1961.58,106.192 "/>
<polyline clip-path="url(#clip162)" style="stroke:#000000; stroke-linecap:round; stroke-linejoin:round; stroke-width:2; stroke-opacity:0.1; fill:none" points="205.121,1423.18 2352.76,1423.18 "/>
<polyline clip-path="url(#clip162)" style="stroke:#000000; stroke-linecap:round; stroke-linejoin:round; stroke-width:2; stroke-opacity:0.1; fill:none" points="205.121,1093.93 2352.76,1093.93 "/>
<polyline clip-path="url(#clip162)" style="stroke:#000000; stroke-linecap:round; stroke-linejoin:round; stroke-width:2; stroke-opacity:0.1; fill:none" points="205.121,764.686 2352.76,764.686 "/>
<polyline clip-path="url(#clip162)" style="stroke:#000000; stroke-linecap:round; stroke-linejoin:round; stroke-width:2; stroke-opacity:0.1; fill:none" points="205.121,435.439 2352.76,435.439 "/>
<polyline clip-path="url(#clip162)" style="stroke:#000000; stroke-linecap:round; stroke-linejoin:round; stroke-width:2; stroke-opacity:0.1; fill:none" points="205.121,106.192 2352.76,106.192 "/>
<polyline clip-path="url(#clip160)" style="stroke:#000000; stroke-linecap:round; stroke-linejoin:round; stroke-width:4; stroke-opacity:1; fill:none" points="205.121,1423.18 2352.76,1423.18 "/>
<polyline clip-path="url(#clip160)" style="stroke:#000000; stroke-linecap:round; stroke-linejoin:round; stroke-width:4; stroke-opacity:1; fill:none" points="596.3,1423.18 596.3,1404.28 "/>
<polyline clip-path="url(#clip160)" style="stroke:#000000; stroke-linecap:round; stroke-linejoin:round; stroke-width:4; stroke-opacity:1; fill:none" points="1051.39,1423.18 1051.39,1404.28 "/>
<polyline clip-path="url(#clip160)" style="stroke:#000000; stroke-linecap:round; stroke-linejoin:round; stroke-width:4; stroke-opacity:1; fill:none" points="1506.48,1423.18 1506.48,1404.28 "/>
<polyline clip-path="url(#clip160)" style="stroke:#000000; stroke-linecap:round; stroke-linejoin:round; stroke-width:4; stroke-opacity:1; fill:none" points="1961.58,1423.18 1961.58,1404.28 "/>
<path clip-path="url(#clip160)" d="M559.992 1481.64 L576.312 1481.64 L576.312 1485.58 L554.367 1485.58 L554.367 1481.64 Q557.029 1478.89 561.613 1474.26 Q566.219 1469.61 567.4 1468.27 Q569.645 1465.74 570.525 1464.01 Q571.428 1462.25 571.428 1460.56 Q571.428 1457.8 569.483 1456.07 Q567.562 1454.33 564.46 1454.33 Q562.261 1454.33 559.807 1455.09 Q557.377 1455.86 554.599 1457.41 L554.599 1452.69 Q557.423 1451.55 559.877 1450.97 Q562.33 1450.39 564.367 1450.39 Q569.738 1450.39 572.932 1453.08 Q576.127 1455.77 576.127 1460.26 Q576.127 1462.39 575.316 1464.31 Q574.529 1466.2 572.423 1468.8 Q571.844 1469.47 568.742 1472.69 Q565.641 1475.88 559.992 1481.64 Z" fill="#000000" fill-rule="nonzero" fill-opacity="1" /><path clip-path="url(#clip160)" d="M596.126 1454.1 Q592.515 1454.1 590.687 1457.66 Q588.881 1461.2 588.881 1468.33 Q588.881 1475.44 590.687 1479.01 Q592.515 1482.55 596.126 1482.55 Q599.761 1482.55 601.566 1479.01 Q603.395 1475.44 603.395 1468.33 Q603.395 1461.2 601.566 1457.66 Q599.761 1454.1 596.126 1454.1 M596.126 1450.39 Q601.937 1450.39 604.992 1455 Q608.071 1459.58 608.071 1468.33 Q608.071 1477.06 604.992 1481.67 Q601.937 1486.25 596.126 1486.25 Q590.316 1486.25 587.238 1481.67 Q584.182 1477.06 584.182 1468.33 Q584.182 1459.58 587.238 1455 Q590.316 1450.39 596.126 1450.39 Z" fill="#000000" fill-rule="nonzero" fill-opacity="1" /><path clip-path="url(#clip160)" d="M626.288 1454.1 Q622.677 1454.1 620.849 1457.66 Q619.043 1461.2 619.043 1468.33 Q619.043 1475.44 620.849 1479.01 Q622.677 1482.55 626.288 1482.55 Q629.923 1482.55 631.728 1479.01 Q633.557 1475.44 633.557 1468.33 Q633.557 1461.2 631.728 1457.66 Q629.923 1454.1 626.288 1454.1 M626.288 1450.39 Q632.098 1450.39 635.154 1455 Q638.233 1459.58 638.233 1468.33 Q638.233 1477.06 635.154 1481.67 Q632.098 1486.25 626.288 1486.25 Q620.478 1486.25 617.399 1481.67 Q614.344 1477.06 614.344 1468.33 Q614.344 1459.58 617.399 1455 Q620.478 1450.39 626.288 1450.39 Z" fill="#000000" fill-rule="nonzero" fill-opacity="1" /><path clip-path="url(#clip160)" d="M1024.48 1455.09 L1012.68 1473.54 L1024.48 1473.54 L1024.48 1455.09 M1023.26 1451.02 L1029.14 1451.02 L1029.14 1473.54 L1034.07 1473.54 L1034.07 1477.43 L1029.14 1477.43 L1029.14 1485.58 L1024.48 1485.58 L1024.48 1477.43 L1008.88 1477.43 L1008.88 1472.92 L1023.26 1451.02 Z" fill="#000000" fill-rule="nonzero" fill-opacity="1" /><path clip-path="url(#clip160)" d="M1051.8 1454.1 Q1048.19 1454.1 1046.36 1457.66 Q1044.55 1461.2 1044.55 1468.33 Q1044.55 1475.44 1046.36 1479.01 Q1048.19 1482.55 1051.8 1482.55 Q1055.43 1482.55 1057.24 1479.01 Q1059.07 1475.44 1059.07 1468.33 Q1059.07 1461.2 1057.24 1457.66 Q1055.43 1454.1 1051.8 1454.1 M1051.8 1450.39 Q1057.61 1450.39 1060.66 1455 Q1063.74 1459.58 1063.74 1468.33 Q1063.74 1477.06 1060.66 1481.67 Q1057.61 1486.25 1051.8 1486.25 Q1045.99 1486.25 1042.91 1481.67 Q1039.85 1477.06 1039.85 1468.33 Q1039.85 1459.58 1042.91 1455 Q1045.99 1450.39 1051.8 1450.39 Z" fill="#000000" fill-rule="nonzero" fill-opacity="1" /><path clip-path="url(#clip160)" d="M1081.96 1454.1 Q1078.35 1454.1 1076.52 1457.66 Q1074.71 1461.2 1074.71 1468.33 Q1074.71 1475.44 1076.52 1479.01 Q1078.35 1482.55 1081.96 1482.55 Q1085.59 1482.55 1087.4 1479.01 Q1089.23 1475.44 1089.23 1468.33 Q1089.23 1461.2 1087.4 1457.66 Q1085.59 1454.1 1081.96 1454.1 M1081.96 1450.39 Q1087.77 1450.39 1090.82 1455 Q1093.9 1459.58 1093.9 1468.33 Q1093.9 1477.06 1090.82 1481.67 Q1087.77 1486.25 1081.96 1486.25 Q1076.15 1486.25 1073.07 1481.67 Q1070.01 1477.06 1070.01 1468.33 Q1070.01 1459.58 1073.07 1455 Q1076.15 1450.39 1081.96 1450.39 Z" fill="#000000" fill-rule="nonzero" fill-opacity="1" /><path clip-path="url(#clip160)" d="M1476.81 1466.44 Q1473.66 1466.44 1471.81 1468.59 Q1469.98 1470.74 1469.98 1474.49 Q1469.98 1478.22 1471.81 1480.39 Q1473.66 1482.55 1476.81 1482.55 Q1479.96 1482.55 1481.79 1480.39 Q1483.64 1478.22 1483.64 1474.49 Q1483.64 1470.74 1481.79 1468.59 Q1479.96 1466.44 1476.81 1466.44 M1486.09 1451.78 L1486.09 1456.04 Q1484.33 1455.21 1482.53 1454.77 Q1480.74 1454.33 1478.98 1454.33 Q1474.36 1454.33 1471.9 1457.45 Q1469.47 1460.58 1469.12 1466.9 Q1470.49 1464.89 1472.55 1463.82 Q1474.61 1462.73 1477.09 1462.73 Q1482.29 1462.73 1485.3 1465.9 Q1488.34 1469.05 1488.34 1474.49 Q1488.34 1479.82 1485.19 1483.03 Q1482.04 1486.25 1476.81 1486.25 Q1470.81 1486.25 1467.64 1481.67 Q1464.47 1477.06 1464.47 1468.33 Q1464.47 1460.14 1468.36 1455.28 Q1472.25 1450.39 1478.8 1450.39 Q1480.56 1450.39 1482.34 1450.74 Q1484.15 1451.09 1486.09 1451.78 Z" fill="#000000" fill-rule="nonzero" fill-opacity="1" /><path clip-path="url(#clip160)" d="M1506.39 1454.1 Q1502.78 1454.1 1500.95 1457.66 Q1499.15 1461.2 1499.15 1468.33 Q1499.15 1475.44 1500.95 1479.01 Q1502.78 1482.55 1506.39 1482.55 Q1510.03 1482.55 1511.83 1479.01 Q1513.66 1475.44 1513.66 1468.33 Q1513.66 1461.2 1511.83 1457.66 Q1510.03 1454.1 1506.39 1454.1 M1506.39 1450.39 Q1512.2 1450.39 1515.26 1455 Q1518.34 1459.58 1518.34 1468.33 Q1518.34 1477.06 1515.26 1481.67 Q1512.2 1486.25 1506.39 1486.25 Q1500.58 1486.25 1497.5 1481.67 Q1494.45 1477.06 1494.45 1468.33 Q1494.45 1459.58 1497.5 1455 Q1500.58 1450.39 1506.39 1450.39 Z" fill="#000000" fill-rule="nonzero" fill-opacity="1" /><path clip-path="url(#clip160)" d="M1536.55 1454.1 Q1532.94 1454.1 1531.11 1457.66 Q1529.31 1461.2 1529.31 1468.33 Q1529.31 1475.44 1531.11 1479.01 Q1532.94 1482.55 1536.55 1482.55 Q1540.19 1482.55 1541.99 1479.01 Q1543.82 1475.44 1543.82 1468.33 Q1543.82 1461.2 1541.99 1457.66 Q1540.19 1454.1 1536.55 1454.1 M1536.55 1450.39 Q1542.36 1450.39 1545.42 1455 Q1548.5 1459.58 1548.5 1468.33 Q1548.5 1477.06 1545.42 1481.67 Q1542.36 1486.25 1536.55 1486.25 Q1530.74 1486.25 1527.67 1481.67 Q1524.61 1477.06 1524.61 1468.33 Q1524.61 1459.58 1527.67 1455 Q1530.74 1450.39 1536.55 1450.39 Z" fill="#000000" fill-rule="nonzero" fill-opacity="1" /><path clip-path="url(#clip160)" d="M1931.37 1469.17 Q1928.04 1469.17 1926.11 1470.95 Q1924.22 1472.73 1924.22 1475.86 Q1924.22 1478.98 1926.11 1480.77 Q1928.04 1482.55 1931.37 1482.55 Q1934.7 1482.55 1936.62 1480.77 Q1938.54 1478.96 1938.54 1475.86 Q1938.54 1472.73 1936.62 1470.95 Q1934.73 1469.17 1931.37 1469.17 M1926.69 1467.18 Q1923.68 1466.44 1921.99 1464.38 Q1920.33 1462.32 1920.33 1459.35 Q1920.33 1455.21 1923.27 1452.8 Q1926.23 1450.39 1931.37 1450.39 Q1936.53 1450.39 1939.47 1452.8 Q1942.41 1455.21 1942.41 1459.35 Q1942.41 1462.32 1940.72 1464.38 Q1939.05 1466.44 1936.07 1467.18 Q1939.45 1467.96 1941.32 1470.26 Q1943.22 1472.55 1943.22 1475.86 Q1943.22 1480.88 1940.14 1483.57 Q1937.09 1486.25 1931.37 1486.25 Q1925.65 1486.25 1922.57 1483.57 Q1919.52 1480.88 1919.52 1475.86 Q1919.52 1472.55 1921.41 1470.26 Q1923.31 1467.96 1926.69 1467.18 M1924.98 1459.79 Q1924.98 1462.48 1926.65 1463.98 Q1928.34 1465.49 1931.37 1465.49 Q1934.38 1465.49 1936.07 1463.98 Q1937.78 1462.48 1937.78 1459.79 Q1937.78 1457.11 1936.07 1455.6 Q1934.38 1454.1 1931.37 1454.1 Q1928.34 1454.1 1926.65 1455.6 Q1924.98 1457.11 1924.98 1459.79 Z" fill="#000000" fill-rule="nonzero" fill-opacity="1" /><path clip-path="url(#clip160)" d="M1961.53 1454.1 Q1957.92 1454.1 1956.09 1457.66 Q1954.29 1461.2 1954.29 1468.33 Q1954.29 1475.44 1956.09 1479.01 Q1957.92 1482.55 1961.53 1482.55 Q1965.16 1482.55 1966.97 1479.01 Q1968.8 1475.44 1968.8 1468.33 Q1968.8 1461.2 1966.97 1457.66 Q1965.16 1454.1 1961.53 1454.1 M1961.53 1450.39 Q1967.34 1450.39 1970.4 1455 Q1973.47 1459.58 1973.47 1468.33 Q1973.47 1477.06 1970.4 1481.67 Q1967.34 1486.25 1961.53 1486.25 Q1955.72 1486.25 1952.64 1481.67 Q1949.59 1477.06 1949.59 1468.33 Q1949.59 1459.58 1952.64 1455 Q1955.72 1450.39 1961.53 1450.39 Z" fill="#000000" fill-rule="nonzero" fill-opacity="1" /><path clip-path="url(#clip160)" d="M1991.69 1454.1 Q1988.08 1454.1 1986.25 1457.66 Q1984.45 1461.2 1984.45 1468.33 Q1984.45 1475.44 1986.25 1479.01 Q1988.08 1482.55 1991.69 1482.55 Q1995.33 1482.55 1997.13 1479.01 Q1998.96 1475.44 1998.96 1468.33 Q1998.96 1461.2 1997.13 1457.66 Q1995.33 1454.1 1991.69 1454.1 M1991.69 1450.39 Q1997.5 1450.39 2000.56 1455 Q2003.64 1459.58 2003.64 1468.33 Q2003.64 1477.06 2000.56 1481.67 Q1997.5 1486.25 1991.69 1486.25 Q1985.88 1486.25 1982.8 1481.67 Q1979.75 1477.06 1979.75 1468.33 Q1979.75 1459.58 1982.8 1455 Q1985.88 1450.39 1991.69 1450.39 Z" fill="#000000" fill-rule="nonzero" fill-opacity="1" /><path clip-path="url(#clip160)" d="M1051.36 1520.52 L1091.56 1520.52 L1091.56 1525.93 L1074.69 1525.93 L1074.69 1568.04 L1068.23 1568.04 L1068.23 1525.93 L1051.36 1525.93 L1051.36 1520.52 Z" fill="#000000" fill-rule="nonzero" fill-opacity="1" /><path clip-path="url(#clip160)" d="M1116.93 1548.76 L1116.93 1551.62 L1090 1551.62 Q1090.39 1557.67 1093.63 1560.85 Q1096.91 1564 1102.74 1564 Q1106.11 1564 1109.26 1563.17 Q1112.44 1562.35 1115.56 1560.69 L1115.56 1566.23 Q1112.41 1567.57 1109.1 1568.27 Q1105.79 1568.97 1102.39 1568.97 Q1093.86 1568.97 1088.86 1564 Q1083.89 1559.04 1083.89 1550.57 Q1083.89 1541.82 1088.6 1536.69 Q1093.35 1531.54 1101.37 1531.54 Q1108.56 1531.54 1112.73 1536.18 Q1116.93 1540.8 1116.93 1548.76 M1111.07 1547.04 Q1111.01 1542.23 1108.37 1539.37 Q1105.76 1536.5 1101.43 1536.5 Q1096.53 1536.5 1093.57 1539.27 Q1090.64 1542.04 1090.2 1547.07 L1111.07 1547.04 Z" fill="#000000" fill-rule="nonzero" fill-opacity="1" /><path clip-path="url(#clip160)" d="M1147.2 1537.87 Q1146.21 1537.3 1145.04 1537.04 Q1143.89 1536.76 1142.49 1536.76 Q1137.52 1536.76 1134.85 1540 Q1132.21 1543.22 1132.21 1549.27 L1132.21 1568.04 L1126.32 1568.04 L1126.32 1532.4 L1132.21 1532.4 L1132.21 1537.93 Q1134.05 1534.69 1137.02 1533.13 Q1139.98 1531.54 1144.21 1531.54 Q1144.81 1531.54 1145.55 1531.63 Q1146.28 1531.7 1147.17 1531.85 L1147.2 1537.87 Z" fill="#000000" fill-rule="nonzero" fill-opacity="1" /><path clip-path="url(#clip160)" d="M1179.95 1539.24 Q1182.15 1535.29 1185.2 1533.41 Q1188.26 1531.54 1192.4 1531.54 Q1197.97 1531.54 1200.99 1535.45 Q1204.01 1539.33 1204.01 1546.53 L1204.01 1568.04 L1198.13 1568.04 L1198.13 1546.72 Q1198.13 1541.59 1196.31 1539.11 Q1194.5 1536.63 1190.77 1536.63 Q1186.22 1536.63 1183.58 1539.65 Q1180.94 1542.68 1180.94 1547.9 L1180.94 1568.04 L1175.05 1568.04 L1175.05 1546.72 Q1175.05 1541.56 1173.24 1539.11 Q1171.42 1536.63 1167.63 1536.63 Q1163.15 1536.63 1160.5 1539.68 Q1157.86 1542.71 1157.86 1547.9 L1157.86 1568.04 L1151.97 1568.04 L1151.97 1532.4 L1157.86 1532.4 L1157.86 1537.93 Q1159.87 1534.66 1162.67 1533.1 Q1165.47 1531.54 1169.32 1531.54 Q1173.2 1531.54 1175.91 1533.51 Q1178.65 1535.48 1179.95 1539.24 Z" fill="#000000" fill-rule="nonzero" fill-opacity="1" /><path clip-path="url(#clip160)" d="M1215.7 1532.4 L1221.55 1532.4 L1221.55 1568.04 L1215.7 1568.04 L1215.7 1532.4 M1215.7 1518.52 L1221.55 1518.52 L1221.55 1525.93 L1215.7 1525.93 L1215.7 1518.52 Z" fill="#000000" fill-rule="nonzero" fill-opacity="1" /><path clip-path="url(#clip160)" d="M1263.44 1546.53 L1263.44 1568.04 L1257.58 1568.04 L1257.58 1546.72 Q1257.58 1541.66 1255.61 1539.14 Q1253.63 1536.63 1249.69 1536.63 Q1244.95 1536.63 1242.21 1539.65 Q1239.47 1542.68 1239.47 1547.9 L1239.47 1568.04 L1233.58 1568.04 L1233.58 1532.4 L1239.47 1532.4 L1239.47 1537.93 Q1241.57 1534.72 1244.4 1533.13 Q1247.27 1531.54 1250.99 1531.54 Q1257.14 1531.54 1260.29 1535.36 Q1263.44 1539.14 1263.44 1546.53 Z" fill="#000000" fill-rule="nonzero" fill-opacity="1" /><path clip-path="url(#clip160)" d="M1291.32 1550.12 Q1284.22 1550.12 1281.48 1551.75 Q1278.75 1553.37 1278.75 1557.29 Q1278.75 1560.4 1280.78 1562.25 Q1282.85 1564.07 1286.39 1564.07 Q1291.26 1564.07 1294.18 1560.63 Q1297.14 1557.16 1297.14 1551.43 L1297.14 1550.12 L1291.32 1550.12 M1303 1547.71 L1303 1568.04 L1297.14 1568.04 L1297.14 1562.63 Q1295.14 1565.88 1292.15 1567.44 Q1289.16 1568.97 1284.83 1568.97 Q1279.35 1568.97 1276.11 1565.91 Q1272.89 1562.82 1272.89 1557.67 Q1272.89 1551.65 1276.9 1548.6 Q1280.94 1545.54 1288.93 1545.54 L1297.14 1545.54 L1297.14 1544.97 Q1297.14 1540.93 1294.47 1538.73 Q1291.83 1536.5 1287.02 1536.5 Q1283.97 1536.5 1281.07 1537.23 Q1278.17 1537.97 1275.5 1539.43 L1275.5 1534.02 Q1278.72 1532.78 1281.74 1532.17 Q1284.76 1531.54 1287.63 1531.54 Q1295.36 1531.54 1299.18 1535.55 Q1303 1539.56 1303 1547.71 Z" fill="#000000" fill-rule="nonzero" fill-opacity="1" /><path clip-path="url(#clip160)" d="M1315.06 1518.52 L1320.92 1518.52 L1320.92 1568.04 L1315.06 1568.04 L1315.06 1518.52 Z" fill="#000000" fill-rule="nonzero" fill-opacity="1" /><path clip-path="url(#clip160)" d="M1359.56 1562.7 L1359.56 1581.6 L1353.67 1581.6 L1353.67 1532.4 L1359.56 1532.4 L1359.56 1537.81 Q1361.41 1534.62 1364.21 1533.1 Q1367.04 1531.54 1370.95 1531.54 Q1377.45 1531.54 1381.49 1536.69 Q1385.56 1541.85 1385.56 1550.25 Q1385.56 1558.65 1381.49 1563.81 Q1377.45 1568.97 1370.95 1568.97 Q1367.04 1568.97 1364.21 1567.44 Q1361.41 1565.88 1359.56 1562.7 M1379.48 1550.25 Q1379.48 1543.79 1376.81 1540.13 Q1374.17 1536.44 1369.52 1536.44 Q1364.88 1536.44 1362.2 1540.13 Q1359.56 1543.79 1359.56 1550.25 Q1359.56 1556.71 1362.2 1560.4 Q1364.88 1564.07 1369.52 1564.07 Q1374.17 1564.07 1376.81 1560.4 Q1379.48 1556.71 1379.48 1550.25 Z" fill="#000000" fill-rule="nonzero" fill-opacity="1" /><path clip-path="url(#clip160)" d="M1415.93 1537.87 Q1414.94 1537.3 1413.76 1537.04 Q1412.62 1536.76 1411.22 1536.76 Q1406.25 1536.76 1403.58 1540 Q1400.94 1543.22 1400.94 1549.27 L1400.94 1568.04 L1395.05 1568.04 L1395.05 1532.4 L1400.94 1532.4 L1400.94 1537.93 Q1402.78 1534.69 1405.74 1533.13 Q1408.7 1531.54 1412.94 1531.54 Q1413.54 1531.54 1414.27 1531.63 Q1415.01 1531.7 1415.9 1531.85 L1415.93 1537.87 Z" fill="#000000" fill-rule="nonzero" fill-opacity="1" /><path clip-path="url(#clip160)" d="M1422.07 1532.4 L1427.93 1532.4 L1427.93 1568.04 L1422.07 1568.04 L1422.07 1532.4 M1422.07 1518.52 L1427.93 1518.52 L1427.93 1525.93 L1422.07 1525.93 L1422.07 1518.52 Z" fill="#000000" fill-rule="nonzero" fill-opacity="1" /><path clip-path="url(#clip160)" d="M1465.84 1533.76 L1465.84 1539.24 Q1463.35 1537.87 1460.84 1537.2 Q1458.36 1536.5 1455.81 1536.5 Q1450.11 1536.5 1446.96 1540.13 Q1443.81 1543.73 1443.81 1550.25 Q1443.81 1556.78 1446.96 1560.4 Q1450.11 1564 1455.81 1564 Q1458.36 1564 1460.84 1563.33 Q1463.35 1562.63 1465.84 1561.26 L1465.84 1566.68 Q1463.38 1567.82 1460.74 1568.39 Q1458.13 1568.97 1455.17 1568.97 Q1447.12 1568.97 1442.38 1563.91 Q1437.64 1558.85 1437.64 1550.25 Q1437.64 1541.53 1442.41 1536.53 Q1447.22 1531.54 1455.55 1531.54 Q1458.26 1531.54 1460.84 1532.11 Q1463.42 1532.65 1465.84 1533.76 Z" fill="#000000" fill-rule="nonzero" fill-opacity="1" /><path clip-path="url(#clip160)" d="M1506.51 1548.76 L1506.51 1551.62 L1479.59 1551.62 Q1479.97 1557.67 1483.21 1560.85 Q1486.49 1564 1492.32 1564 Q1495.69 1564 1498.84 1563.17 Q1502.02 1562.35 1505.14 1560.69 L1505.14 1566.23 Q1501.99 1567.57 1498.68 1568.27 Q1495.37 1568.97 1491.97 1568.97 Q1483.44 1568.97 1478.44 1564 Q1473.47 1559.04 1473.47 1550.57 Q1473.47 1541.82 1478.19 1536.69 Q1482.93 1531.54 1490.95 1531.54 Q1498.14 1531.54 1502.31 1536.18 Q1506.51 1540.8 1506.51 1548.76 M1500.66 1547.04 Q1500.59 1542.23 1497.95 1539.37 Q1495.34 1536.5 1491.01 1536.5 Q1486.11 1536.5 1483.15 1539.27 Q1480.22 1542.04 1479.78 1547.07 L1500.66 1547.04 Z" fill="#000000" fill-rule="nonzero" fill-opacity="1" /><polyline clip-path="url(#clip160)" style="stroke:#000000; stroke-linecap:round; stroke-linejoin:round; stroke-width:4; stroke-opacity:1; fill:none" points="205.121,1423.18 205.121,106.192 "/>
<polyline clip-path="url(#clip160)" style="stroke:#000000; stroke-linecap:round; stroke-linejoin:round; stroke-width:4; stroke-opacity:1; fill:none" points="205.121,1423.18 224.019,1423.18 "/>
<polyline clip-path="url(#clip160)" style="stroke:#000000; stroke-linecap:round; stroke-linejoin:round; stroke-width:4; stroke-opacity:1; fill:none" points="205.121,1093.93 224.019,1093.93 "/>
<polyline clip-path="url(#clip160)" style="stroke:#000000; stroke-linecap:round; stroke-linejoin:round; stroke-width:4; stroke-opacity:1; fill:none" points="205.121,764.686 224.019,764.686 "/>
<polyline clip-path="url(#clip160)" style="stroke:#000000; stroke-linecap:round; stroke-linejoin:round; stroke-width:4; stroke-opacity:1; fill:none" points="205.121,435.439 224.019,435.439 "/>
<polyline clip-path="url(#clip160)" style="stroke:#000000; stroke-linecap:round; stroke-linejoin:round; stroke-width:4; stroke-opacity:1; fill:none" points="205.121,106.192 224.019,106.192 "/>
<path clip-path="url(#clip160)" d="M157.177 1408.98 Q153.566 1408.98 151.737 1412.54 Q149.931 1416.08 149.931 1423.21 Q149.931 1430.32 151.737 1433.89 Q153.566 1437.43 157.177 1437.43 Q160.811 1437.43 162.616 1433.89 Q164.445 1430.32 164.445 1423.21 Q164.445 1416.08 162.616 1412.54 Q160.811 1408.98 157.177 1408.98 M157.177 1405.27 Q162.987 1405.27 166.042 1409.88 Q169.121 1414.46 169.121 1423.21 Q169.121 1431.94 166.042 1436.55 Q162.987 1441.13 157.177 1441.13 Q151.366 1441.13 148.288 1436.55 Q145.232 1431.94 145.232 1423.21 Q145.232 1414.46 148.288 1409.88 Q151.366 1405.27 157.177 1405.27 Z" fill="#000000" fill-rule="nonzero" fill-opacity="1" /><path clip-path="url(#clip160)" d="M117.825 1107.28 L125.464 1107.28 L125.464 1080.91 L117.154 1082.58 L117.154 1078.32 L125.418 1076.65 L130.093 1076.65 L130.093 1107.28 L137.732 1107.28 L137.732 1111.21 L117.825 1111.21 L117.825 1107.28 Z" fill="#000000" fill-rule="nonzero" fill-opacity="1" /><path clip-path="url(#clip160)" d="M157.177 1079.73 Q153.566 1079.73 151.737 1083.3 Q149.931 1086.84 149.931 1093.97 Q149.931 1101.07 151.737 1104.64 Q153.566 1108.18 157.177 1108.18 Q160.811 1108.18 162.616 1104.64 Q164.445 1101.07 164.445 1093.97 Q164.445 1086.84 162.616 1083.3 Q160.811 1079.73 157.177 1079.73 M157.177 1076.03 Q162.987 1076.03 166.042 1080.63 Q169.121 1085.22 169.121 1093.97 Q169.121 1102.69 166.042 1107.3 Q162.987 1111.88 157.177 1111.88 Q151.366 1111.88 148.288 1107.3 Q145.232 1102.69 145.232 1093.97 Q145.232 1085.22 148.288 1080.63 Q151.366 1076.03 157.177 1076.03 Z" fill="#000000" fill-rule="nonzero" fill-opacity="1" /><path clip-path="url(#clip160)" d="M121.043 778.031 L137.362 778.031 L137.362 781.966 L115.418 781.966 L115.418 778.031 Q118.08 775.276 122.663 770.647 Q127.269 765.994 128.45 764.651 Q130.695 762.128 131.575 760.392 Q132.478 758.633 132.478 756.943 Q132.478 754.188 130.533 752.452 Q128.612 750.716 125.51 750.716 Q123.311 750.716 120.857 751.48 Q118.427 752.244 115.649 753.795 L115.649 749.073 Q118.473 747.938 120.927 747.36 Q123.38 746.781 125.418 746.781 Q130.788 746.781 133.982 749.466 Q137.177 752.151 137.177 756.642 Q137.177 758.772 136.367 760.693 Q135.579 762.591 133.473 765.184 Q132.894 765.855 129.792 769.073 Q126.691 772.267 121.043 778.031 Z" fill="#000000" fill-rule="nonzero" fill-opacity="1" /><path clip-path="url(#clip160)" d="M157.177 750.485 Q153.566 750.485 151.737 754.049 Q149.931 757.591 149.931 764.721 Q149.931 771.827 151.737 775.392 Q153.566 778.934 157.177 778.934 Q160.811 778.934 162.616 775.392 Q164.445 771.827 164.445 764.721 Q164.445 757.591 162.616 754.049 Q160.811 750.485 157.177 750.485 M157.177 746.781 Q162.987 746.781 166.042 751.387 Q169.121 755.971 169.121 764.721 Q169.121 773.448 166.042 778.054 Q162.987 782.637 157.177 782.637 Q151.366 782.637 148.288 778.054 Q145.232 773.448 145.232 764.721 Q145.232 755.971 148.288 751.387 Q151.366 746.781 157.177 746.781 Z" fill="#000000" fill-rule="nonzero" fill-opacity="1" /><path clip-path="url(#clip160)" d="M131.181 434.085 Q134.538 434.802 136.413 437.071 Q138.311 439.339 138.311 442.673 Q138.311 447.789 134.792 450.589 Q131.274 453.39 124.793 453.39 Q122.617 453.39 120.302 452.951 Q118.01 452.534 115.556 451.677 L115.556 447.164 Q117.501 448.298 119.816 448.876 Q122.13 449.455 124.654 449.455 Q129.052 449.455 131.343 447.719 Q133.658 445.983 133.658 442.673 Q133.658 439.617 131.505 437.904 Q129.376 436.168 125.556 436.168 L121.529 436.168 L121.529 432.326 L125.742 432.326 Q129.191 432.326 131.019 430.96 Q132.848 429.571 132.848 426.978 Q132.848 424.316 130.95 422.904 Q129.075 421.469 125.556 421.469 Q123.635 421.469 121.436 421.886 Q119.237 422.303 116.598 423.182 L116.598 419.016 Q119.26 418.275 121.575 417.904 Q123.913 417.534 125.973 417.534 Q131.297 417.534 134.399 419.965 Q137.501 422.372 137.501 426.492 Q137.501 429.363 135.857 431.353 Q134.214 433.321 131.181 434.085 Z" fill="#000000" fill-rule="nonzero" fill-opacity="1" /><path clip-path="url(#clip160)" d="M157.177 421.238 Q153.566 421.238 151.737 424.803 Q149.931 428.344 149.931 435.474 Q149.931 442.58 151.737 446.145 Q153.566 449.687 157.177 449.687 Q160.811 449.687 162.616 446.145 Q164.445 442.58 164.445 435.474 Q164.445 428.344 162.616 424.803 Q160.811 421.238 157.177 421.238 M157.177 417.534 Q162.987 417.534 166.042 422.141 Q169.121 426.724 169.121 435.474 Q169.121 444.201 166.042 448.807 Q162.987 453.39 157.177 453.39 Q151.366 453.39 148.288 448.807 Q145.232 444.201 145.232 435.474 Q145.232 426.724 148.288 422.141 Q151.366 417.534 157.177 417.534 Z" fill="#000000" fill-rule="nonzero" fill-opacity="1" /><path clip-path="url(#clip160)" d="M129.862 92.9862 L118.056 111.435 L129.862 111.435 L129.862 92.9862 M128.635 88.9121 L134.515 88.9121 L134.515 111.435 L139.445 111.435 L139.445 115.324 L134.515 115.324 L134.515 123.472 L129.862 123.472 L129.862 115.324 L114.26 115.324 L114.26 110.81 L128.635 88.9121 Z" fill="#000000" fill-rule="nonzero" fill-opacity="1" /><path clip-path="url(#clip160)" d="M157.177 91.9908 Q153.566 91.9908 151.737 95.5556 Q149.931 99.0973 149.931 106.227 Q149.931 113.333 151.737 116.898 Q153.566 120.44 157.177 120.44 Q160.811 120.44 162.616 116.898 Q164.445 113.333 164.445 106.227 Q164.445 99.0973 162.616 95.5556 Q160.811 91.9908 157.177 91.9908 M157.177 88.2871 Q162.987 88.2871 166.042 92.8936 Q169.121 97.4769 169.121 106.227 Q169.121 114.954 166.042 119.56 Q162.987 124.143 157.177 124.143 Q151.366 124.143 148.288 119.56 Q145.232 114.954 145.232 106.227 Q145.232 97.4769 148.288 92.8936 Q151.366 88.2871 157.177 88.2871 Z" fill="#000000" fill-rule="nonzero" fill-opacity="1" /><path clip-path="url(#clip160)" d="M20.1444 820.545 L26.9239 820.545 Q23.9002 823.792 22.4043 827.484 Q20.9083 831.144 20.9083 835.282 Q20.9083 843.43 25.9054 847.758 Q30.8707 852.087 40.2919 852.087 Q49.6813 852.087 54.6784 847.758 Q59.6436 843.43 59.6436 835.282 Q59.6436 831.144 58.1477 827.484 Q56.6518 823.792 53.6281 820.545 L60.3439 820.545 Q62.6355 823.919 63.7814 827.706 Q64.9272 831.462 64.9272 835.664 Q64.9272 846.453 58.3387 852.66 Q51.7183 858.867 40.2919 858.867 Q28.8336 858.867 22.2451 852.66 Q15.6248 846.453 15.6248 835.664 Q15.6248 831.399 16.7706 827.643 Q17.8846 823.855 20.1444 820.545 Z" fill="#000000" fill-rule="nonzero" fill-opacity="1" /><path clip-path="url(#clip160)" d="M32.4621 797.056 Q32.4621 801.766 36.1542 804.503 Q39.8145 807.241 46.212 807.241 Q52.6095 807.241 56.3017 804.535 Q59.9619 801.798 59.9619 797.056 Q59.9619 792.377 56.2698 789.64 Q52.5777 786.902 46.212 786.902 Q39.8781 786.902 36.186 789.64 Q32.4621 792.377 32.4621 797.056 M27.4968 797.056 Q27.4968 789.417 32.4621 785.056 Q37.4273 780.696 46.212 780.696 Q54.9649 780.696 59.9619 785.056 Q64.9272 789.417 64.9272 797.056 Q64.9272 804.726 59.9619 809.087 Q54.9649 813.415 46.212 813.415 Q37.4273 813.415 32.4621 809.087 Q27.4968 804.726 27.4968 797.056 Z" fill="#000000" fill-rule="nonzero" fill-opacity="1" /><path clip-path="url(#clip160)" d="M49.9359 771.593 L28.3562 771.593 L28.3562 765.736 L49.7131 765.736 Q54.7739 765.736 57.3202 763.763 Q59.8346 761.79 59.8346 757.843 Q59.8346 753.1 56.8109 750.363 Q53.7872 747.594 48.5673 747.594 L28.3562 747.594 L28.3562 741.738 L64.0042 741.738 L64.0042 747.594 L58.5296 747.594 Q61.7762 749.727 63.3676 752.559 Q64.9272 755.36 64.9272 759.084 Q64.9272 765.227 61.1078 768.41 Q57.2883 771.593 49.9359 771.593 M27.4968 756.856 L27.4968 756.856 Z" fill="#000000" fill-rule="nonzero" fill-opacity="1" /><path clip-path="url(#clip160)" d="M42.4881 700.042 L64.0042 700.042 L64.0042 705.899 L42.679 705.899 Q37.6183 705.899 35.1038 707.872 Q32.5894 709.845 32.5894 713.792 Q32.5894 718.535 35.6131 721.272 Q38.6368 724.009 43.8567 724.009 L64.0042 724.009 L64.0042 729.897 L28.3562 729.897 L28.3562 724.009 L33.8944 724.009 Q30.6797 721.908 29.0883 719.076 Q27.4968 716.211 27.4968 712.487 Q27.4968 706.344 31.3163 703.193 Q35.1038 700.042 42.4881 700.042 Z" fill="#000000" fill-rule="nonzero" fill-opacity="1" /><path clip-path="url(#clip160)" d="M18.2347 682.568 L28.3562 682.568 L28.3562 670.505 L32.9077 670.505 L32.9077 682.568 L52.2594 682.568 Q56.6199 682.568 57.8613 681.391 Q59.1026 680.181 59.1026 676.521 L59.1026 670.505 L64.0042 670.505 L64.0042 676.521 Q64.0042 683.3 61.4897 685.879 Q58.9434 688.457 52.2594 688.457 L32.9077 688.457 L32.9077 692.753 L28.3562 692.753 L28.3562 688.457 L18.2347 688.457 L18.2347 682.568 Z" fill="#000000" fill-rule="nonzero" fill-opacity="1" /><path clip-path="url(#clip160)" d="M725.903 14.3981 L717.975 35.8968 L733.86 35.8968 L725.903 14.3981 M722.605 8.64 L729.231 8.64 L745.695 51.84 L739.618 51.84 L735.683 40.7579 L716.21 40.7579 L712.275 51.84 L706.112 51.84 L722.605 8.64 Z" fill="#000000" fill-rule="nonzero" fill-opacity="1" /><path clip-path="url(#clip160)" d="M768.09 14.3981 L760.162 35.8968 L776.048 35.8968 L768.09 14.3981 M764.792 8.64 L771.418 8.64 L787.882 51.84 L781.806 51.84 L777.871 40.7579 L758.397 40.7579 L754.462 51.84 L748.299 51.84 L764.792 8.64 Z" fill="#000000" fill-rule="nonzero" fill-opacity="1" /><path clip-path="url(#clip160)" d="M800.035 13.4432 L800.035 29.6758 L807.384 29.6758 Q811.464 29.6758 813.692 27.5635 Q815.92 25.4513 815.92 21.545 Q815.92 17.6677 813.692 15.5555 Q811.464 13.4432 807.384 13.4432 L800.035 13.4432 M794.19 8.64 L807.384 8.64 Q814.647 8.64 818.351 11.9386 Q822.083 15.2083 822.083 21.545 Q822.083 27.9397 818.351 31.2093 Q814.647 34.479 807.384 34.479 L800.035 34.479 L800.035 51.84 L794.19 51.84 L794.19 8.64 Z" fill="#000000" fill-rule="nonzero" fill-opacity="1" /><path clip-path="url(#clip160)" d="M829.925 8.64 L835.77 8.64 L835.77 46.921 L856.805 46.921 L856.805 51.84 L829.925 51.84 L829.925 8.64 Z" fill="#000000" fill-rule="nonzero" fill-opacity="1" /><path clip-path="url(#clip160)" d="M878.854 33.2348 L894.45 33.2348 L894.45 37.9801 L878.854 37.9801 L878.854 33.2348 Z" fill="#000000" fill-rule="nonzero" fill-opacity="1" /><path clip-path="url(#clip160)" d="M954.345 11.9675 L954.345 18.1307 Q951.394 15.3819 948.037 14.0219 Q944.71 12.662 940.948 12.662 Q933.541 12.662 929.606 17.2048 Q925.671 21.7186 925.671 30.2834 Q925.671 38.8192 929.606 43.362 Q933.541 47.8759 940.948 47.8759 Q944.71 47.8759 948.037 46.516 Q951.394 45.156 954.345 42.4072 L954.345 48.5125 Q951.278 50.5958 947.835 51.6375 Q944.421 52.6791 940.601 52.6791 Q930.792 52.6791 925.15 46.6896 Q919.507 40.6711 919.507 30.2834 Q919.507 19.8668 925.15 13.8772 Q930.792 7.85875 940.601 7.85875 Q944.478 7.85875 947.893 8.90042 Q951.336 9.91314 954.345 11.9675 Z" fill="#000000" fill-rule="nonzero" fill-opacity="1" /><path clip-path="url(#clip160)" d="M963.373 8.64 L969.218 8.64 L969.218 26.3482 L990.456 26.3482 L990.456 8.64 L996.301 8.64 L996.301 51.84 L990.456 51.84 L990.456 31.2672 L969.218 31.2672 L969.218 51.84 L963.373 51.84 L963.373 8.64 Z" fill="#000000" fill-rule="nonzero" fill-opacity="1" /><path clip-path="url(#clip160)" d="M1007.93 8.64 L1016.64 8.64 L1027.67 38.038 L1038.75 8.64 L1047.46 8.64 L1047.46 51.84 L1041.76 51.84 L1041.76 13.9062 L1030.62 43.5356 L1024.74 43.5356 L1013.6 13.9062 L1013.6 51.84 L1007.93 51.84 L1007.93 8.64 Z" fill="#000000" fill-rule="nonzero" fill-opacity="1" /><path clip-path="url(#clip160)" d="M1059.06 8.64 L1067.77 8.64 L1078.79 38.038 L1089.88 8.64 L1098.59 8.64 L1098.59 51.84 L1092.89 51.84 L1092.89 13.9062 L1081.75 43.5356 L1075.87 43.5356 L1064.73 13.9062 L1064.73 51.84 L1059.06 51.84 L1059.06 8.64 Z" fill="#000000" fill-rule="nonzero" fill-opacity="1" /><path clip-path="url(#clip160)" d="M1107.27 33.2348 L1122.86 33.2348 L1122.86 37.9801 L1107.27 37.9801 L1107.27 33.2348 Z" fill="#000000" fill-rule="nonzero" fill-opacity="1" /><path clip-path="url(#clip160)" d="M1131.57 8.64 L1137.42 8.64 L1137.42 46.921 L1158.45 46.921 L1158.45 51.84 L1131.57 51.84 L1131.57 8.64 Z" fill="#000000" fill-rule="nonzero" fill-opacity="1" /><path clip-path="url(#clip160)" d="M1188.46 10.2314 L1188.46 19.4328 L1199.42 19.4328 L1199.42 23.5705 L1188.46 23.5705 L1188.46 41.163 Q1188.46 45.1271 1189.53 46.2555 Q1190.63 47.384 1193.96 47.384 L1199.42 47.384 L1199.42 51.84 L1193.96 51.84 Q1187.79 51.84 1185.45 49.5541 Q1183.11 47.2393 1183.11 41.163 L1183.11 23.5705 L1179.2 23.5705 L1179.2 19.4328 L1183.11 19.4328 L1183.11 10.2314 L1188.46 10.2314 Z" fill="#000000" fill-rule="nonzero" fill-opacity="1" /><path clip-path="url(#clip160)" d="M1234.15 34.3054 L1234.15 36.9095 L1209.67 36.9095 Q1210.02 42.4072 1212.97 45.3007 Q1215.95 48.1653 1221.24 48.1653 Q1224.31 48.1653 1227.17 47.4129 Q1230.07 46.6606 1232.9 45.156 L1232.9 50.1907 Q1230.04 51.406 1227.03 52.0425 Q1224.02 52.6791 1220.92 52.6791 Q1213.17 52.6791 1208.63 48.1653 Q1204.11 43.6514 1204.11 35.9547 Q1204.11 27.9975 1208.39 23.339 Q1212.71 18.6515 1220 18.6515 Q1226.54 18.6515 1230.33 22.876 Q1234.15 27.0716 1234.15 34.3054 M1228.82 32.7429 Q1228.77 28.3737 1226.36 25.7695 Q1223.99 23.1654 1220.06 23.1654 Q1215.6 23.1654 1212.91 25.6827 Q1210.25 28.2001 1209.84 32.7718 L1228.82 32.7429 Z" fill="#000000" fill-rule="nonzero" fill-opacity="1" /><path clip-path="url(#clip160)" d="M1261.66 24.4096 Q1260.77 23.8888 1259.7 23.6573 Q1258.65 23.3969 1257.38 23.3969 Q1252.87 23.3969 1250.44 26.3482 Q1248.04 29.2707 1248.04 34.7683 L1248.04 51.84 L1242.68 51.84 L1242.68 19.4328 L1248.04 19.4328 L1248.04 24.4675 Q1249.71 21.5161 1252.41 20.0983 Q1255.1 18.6515 1258.94 18.6515 Q1259.49 18.6515 1260.16 18.7383 Q1260.83 18.7962 1261.64 18.9409 L1261.66 24.4096 Z" fill="#000000" fill-rule="nonzero" fill-opacity="1" /><path clip-path="url(#clip160)" d="M1291.44 25.6538 Q1293.43 22.0659 1296.21 20.3587 Q1298.99 18.6515 1302.75 18.6515 Q1307.82 18.6515 1310.56 22.2105 Q1313.31 25.7406 1313.31 32.2799 L1313.31 51.84 L1307.96 51.84 L1307.96 32.4535 Q1307.96 27.795 1306.31 25.5381 Q1304.66 23.2811 1301.28 23.2811 Q1297.14 23.2811 1294.74 26.03 Q1292.34 28.7788 1292.34 33.5241 L1292.34 51.84 L1286.98 51.84 L1286.98 32.4535 Q1286.98 27.7661 1285.33 25.5381 Q1283.68 23.2811 1280.24 23.2811 Q1276.16 23.2811 1273.76 26.0589 Q1271.36 28.8077 1271.36 33.5241 L1271.36 51.84 L1266 51.84 L1266 19.4328 L1271.36 19.4328 L1271.36 24.4675 Q1273.18 21.4872 1275.73 20.0693 Q1278.27 18.6515 1281.77 18.6515 Q1285.3 18.6515 1287.76 20.4455 Q1290.25 22.2395 1291.44 25.6538 Z" fill="#000000" fill-rule="nonzero" fill-opacity="1" /><path clip-path="url(#clip160)" d="M1323.93 19.4328 L1329.26 19.4328 L1329.26 51.84 L1323.93 51.84 L1323.93 19.4328 M1323.93 6.81709 L1329.26 6.81709 L1329.26 13.559 L1323.93 13.559 L1323.93 6.81709 Z" fill="#000000" fill-rule="nonzero" fill-opacity="1" /><path clip-path="url(#clip160)" d="M1367.33 32.2799 L1367.33 51.84 L1362.01 51.84 L1362.01 32.4535 Q1362.01 27.8529 1360.22 25.567 Q1358.42 23.2811 1354.84 23.2811 Q1350.52 23.2811 1348.04 26.03 Q1345.55 28.7788 1345.55 33.5241 L1345.55 51.84 L1340.19 51.84 L1340.19 19.4328 L1345.55 19.4328 L1345.55 24.4675 Q1347.46 21.545 1350.03 20.0983 Q1352.64 18.6515 1356.02 18.6515 Q1361.61 18.6515 1364.47 22.1237 Q1367.33 25.567 1367.33 32.2799 Z" fill="#000000" fill-rule="nonzero" fill-opacity="1" /><path clip-path="url(#clip160)" d="M1392.68 35.5496 Q1386.23 35.5496 1383.74 37.0253 Q1381.25 38.501 1381.25 42.06 Q1381.25 44.8956 1383.1 46.5738 Q1384.99 48.2231 1388.2 48.2231 Q1392.62 48.2231 1395.29 45.0981 Q1397.98 41.9442 1397.98 36.7359 L1397.98 35.5496 L1392.68 35.5496 M1403.3 33.3505 L1403.3 51.84 L1397.98 51.84 L1397.98 46.921 Q1396.15 49.8724 1393.43 51.2902 Q1390.71 52.6791 1386.78 52.6791 Q1381.8 52.6791 1378.85 49.9014 Q1375.93 47.0947 1375.93 42.4072 Q1375.93 36.9385 1379.57 34.1607 Q1383.25 31.3829 1390.51 31.3829 L1397.98 31.3829 L1397.98 30.8621 Q1397.98 27.1874 1395.55 25.1908 Q1393.15 23.1654 1388.78 23.1654 Q1386 23.1654 1383.36 23.8309 Q1380.73 24.4964 1378.3 25.8274 L1378.3 20.9085 Q1381.22 19.78 1383.97 19.2302 Q1386.72 18.6515 1389.33 18.6515 Q1396.36 18.6515 1399.83 22.2973 Q1403.3 25.9431 1403.3 33.3505 Z" fill="#000000" fill-rule="nonzero" fill-opacity="1" /><path clip-path="url(#clip160)" d="M1414.27 6.81709 L1419.59 6.81709 L1419.59 51.84 L1414.27 51.84 L1414.27 6.81709 Z" fill="#000000" fill-rule="nonzero" fill-opacity="1" /><path clip-path="url(#clip160)" d="M1454.72 46.9789 L1454.72 64.1663 L1449.37 64.1663 L1449.37 19.4328 L1454.72 19.4328 L1454.72 24.3517 Q1456.4 21.4582 1458.94 20.0693 Q1461.52 18.6515 1465.08 18.6515 Q1470.98 18.6515 1474.65 23.339 Q1478.36 28.0265 1478.36 35.6653 Q1478.36 43.3042 1474.65 47.9916 Q1470.98 52.6791 1465.08 52.6791 Q1461.52 52.6791 1458.94 51.2902 Q1456.4 49.8724 1454.72 46.9789 M1472.83 35.6653 Q1472.83 29.7915 1470.4 26.464 Q1468 23.1075 1463.78 23.1075 Q1459.55 23.1075 1457.12 26.464 Q1454.72 29.7915 1454.72 35.6653 Q1454.72 41.5391 1457.12 44.8956 Q1459.55 48.2231 1463.78 48.2231 Q1468 48.2231 1470.4 44.8956 Q1472.83 41.5391 1472.83 35.6653 Z" fill="#000000" fill-rule="nonzero" fill-opacity="1" /><path clip-path="url(#clip160)" d="M1505.96 24.4096 Q1505.07 23.8888 1504 23.6573 Q1502.95 23.3969 1501.68 23.3969 Q1497.17 23.3969 1494.74 26.3482 Q1492.33 29.2707 1492.33 34.7683 L1492.33 51.84 L1486.98 51.84 L1486.98 19.4328 L1492.33 19.4328 L1492.33 24.4675 Q1494.01 21.5161 1496.7 20.0983 Q1499.39 18.6515 1503.24 18.6515 Q1503.79 18.6515 1504.46 18.7383 Q1505.12 18.7962 1505.93 18.9409 L1505.96 24.4096 Z" fill="#000000" fill-rule="nonzero" fill-opacity="1" /><path clip-path="url(#clip160)" d="M1511.55 19.4328 L1516.87 19.4328 L1516.87 51.84 L1511.55 51.84 L1511.55 19.4328 M1511.55 6.81709 L1516.87 6.81709 L1516.87 13.559 L1511.55 13.559 L1511.55 6.81709 Z" fill="#000000" fill-rule="nonzero" fill-opacity="1" /><path clip-path="url(#clip160)" d="M1551.33 20.677 L1551.33 25.6538 Q1549.08 24.4096 1546.79 23.802 Q1544.53 23.1654 1542.22 23.1654 Q1537.04 23.1654 1534.17 26.464 Q1531.31 29.7336 1531.31 35.6653 Q1531.31 41.597 1534.17 44.8956 Q1537.04 48.1653 1542.22 48.1653 Q1544.53 48.1653 1546.79 47.5576 Q1549.08 46.921 1551.33 45.6768 L1551.33 50.5958 Q1549.1 51.6375 1546.7 52.1583 Q1544.33 52.6791 1541.64 52.6791 Q1534.32 52.6791 1530.01 48.0784 Q1525.7 43.4778 1525.7 35.6653 Q1525.7 27.7371 1530.04 23.1943 Q1534.41 18.6515 1541.99 18.6515 Q1544.45 18.6515 1546.79 19.1724 Q1549.13 19.6642 1551.33 20.677 Z" fill="#000000" fill-rule="nonzero" fill-opacity="1" /><path clip-path="url(#clip160)" d="M1588.31 34.3054 L1588.31 36.9095 L1563.83 36.9095 Q1564.18 42.4072 1567.13 45.3007 Q1570.11 48.1653 1575.41 48.1653 Q1578.47 48.1653 1581.34 47.4129 Q1584.23 46.6606 1587.07 45.156 L1587.07 50.1907 Q1584.2 51.406 1581.19 52.0425 Q1578.18 52.6791 1575.09 52.6791 Q1567.33 52.6791 1562.79 48.1653 Q1558.28 43.6514 1558.28 35.9547 Q1558.28 27.9975 1562.56 23.339 Q1566.87 18.6515 1574.16 18.6515 Q1580.7 18.6515 1584.49 22.876 Q1588.31 27.0716 1588.31 34.3054 M1582.99 32.7429 Q1582.93 28.3737 1580.53 25.7695 Q1578.16 23.1654 1574.22 23.1654 Q1569.76 23.1654 1567.07 25.6827 Q1564.41 28.2001 1564.01 32.7718 L1582.99 32.7429 Z" fill="#000000" fill-rule="nonzero" fill-opacity="1" /><path clip-path="url(#clip160)" d="M1628.68 6.87496 Q1624.8 13.53 1622.92 20.0404 Q1621.04 26.5508 1621.04 33.2348 Q1621.04 39.9188 1622.92 46.487 Q1624.83 53.0263 1628.68 59.6525 L1624.05 59.6525 Q1619.71 52.8527 1617.54 46.2845 Q1615.39 39.7162 1615.39 33.2348 Q1615.39 26.7823 1617.54 20.2429 Q1619.68 13.7036 1624.05 6.87496 L1628.68 6.87496 Z" fill="#000000" fill-rule="nonzero" fill-opacity="1" /><path clip-path="url(#clip160)" d="M1665.94 32.2799 L1665.94 51.84 L1660.62 51.84 L1660.62 32.4535 Q1660.62 27.8529 1658.83 25.567 Q1657.03 23.2811 1653.44 23.2811 Q1649.13 23.2811 1646.64 26.03 Q1644.16 28.7788 1644.16 33.5241 L1644.16 51.84 L1638.8 51.84 L1638.8 19.4328 L1644.16 19.4328 L1644.16 24.4675 Q1646.07 21.545 1648.64 20.0983 Q1651.25 18.6515 1654.63 18.6515 Q1660.22 18.6515 1663.08 22.1237 Q1665.94 25.567 1665.94 32.2799 Z" fill="#000000" fill-rule="nonzero" fill-opacity="1" /><path clip-path="url(#clip160)" d="M1677.26 24.9304 L1714.35 24.9304 L1714.35 29.7915 L1677.26 29.7915 L1677.26 24.9304 M1677.26 36.7359 L1714.35 36.7359 L1714.35 41.6549 L1677.26 41.6549 L1677.26 36.7359 Z" fill="#000000" fill-rule="nonzero" fill-opacity="1" /><path clip-path="url(#clip160)" d="M1727.03 8.64 L1749.97 8.64 L1749.97 13.559 L1732.38 13.559 L1732.38 24.1492 Q1733.65 23.7152 1734.93 23.5126 Q1736.2 23.2811 1737.47 23.2811 Q1744.71 23.2811 1748.93 27.2452 Q1753.15 31.2093 1753.15 37.9801 Q1753.15 44.9535 1748.81 48.8308 Q1744.47 52.6791 1736.57 52.6791 Q1733.85 52.6791 1731.02 52.2162 Q1728.21 51.7532 1725.2 50.8273 L1725.2 44.9535 Q1727.81 46.3713 1730.59 47.0657 Q1733.36 47.7602 1736.46 47.7602 Q1741.46 47.7602 1744.39 45.1271 Q1747.31 42.494 1747.31 37.9801 Q1747.31 33.4663 1744.39 30.8332 Q1741.46 28.2001 1736.46 28.2001 Q1734.12 28.2001 1731.77 28.7209 Q1729.46 29.2417 1727.03 30.3413 L1727.03 8.64 Z" fill="#000000" fill-rule="nonzero" fill-opacity="1" /><path clip-path="url(#clip160)" d="M1777.17 12.4884 Q1772.66 12.4884 1770.37 16.9444 Q1768.11 21.3714 1768.11 30.2834 Q1768.11 39.1665 1770.37 43.6225 Q1772.66 48.0495 1777.17 48.0495 Q1781.71 48.0495 1783.97 43.6225 Q1786.26 39.1665 1786.26 30.2834 Q1786.26 21.3714 1783.97 16.9444 Q1781.71 12.4884 1777.17 12.4884 M1777.17 7.85875 Q1784.43 7.85875 1788.25 13.6168 Q1792.1 19.346 1792.1 30.2834 Q1792.1 41.1919 1788.25 46.95 Q1784.43 52.6791 1777.17 52.6791 Q1769.91 52.6791 1766.06 46.95 Q1762.24 41.1919 1762.24 30.2834 Q1762.24 19.346 1766.06 13.6168 Q1769.91 7.85875 1777.17 7.85875 Z" fill="#000000" fill-rule="nonzero" fill-opacity="1" /><path clip-path="url(#clip160)" d="M1814.87 12.4884 Q1810.36 12.4884 1808.07 16.9444 Q1805.82 21.3714 1805.82 30.2834 Q1805.82 39.1665 1808.07 43.6225 Q1810.36 48.0495 1814.87 48.0495 Q1819.42 48.0495 1821.67 43.6225 Q1823.96 39.1665 1823.96 30.2834 Q1823.96 21.3714 1821.67 16.9444 Q1819.42 12.4884 1814.87 12.4884 M1814.87 7.85875 Q1822.14 7.85875 1825.96 13.6168 Q1829.8 19.346 1829.8 30.2834 Q1829.8 41.1919 1825.96 46.95 Q1822.14 52.6791 1814.87 52.6791 Q1807.61 52.6791 1803.76 46.95 Q1799.94 41.1919 1799.94 30.2834 Q1799.94 19.346 1803.76 13.6168 Q1807.61 7.85875 1814.87 7.85875 Z" fill="#000000" fill-rule="nonzero" fill-opacity="1" /><path clip-path="url(#clip160)" d="M1838.48 6.87496 L1843.11 6.87496 Q1847.45 13.7036 1849.6 20.2429 Q1851.77 26.7823 1851.77 33.2348 Q1851.77 39.7162 1849.6 46.2845 Q1847.45 52.8527 1843.11 59.6525 L1838.48 59.6525 Q1842.33 53.0263 1844.21 46.487 Q1846.12 39.9188 1846.12 33.2348 Q1846.12 26.5508 1844.21 20.0404 Q1842.33 13.53 1838.48 6.87496 Z" fill="#000000" fill-rule="nonzero" fill-opacity="1" /><path clip-path="url(#clip162)" d="M323.245 1357.33 L323.245 1423.18 L368.754 1423.18 L368.754 1357.33 L323.245 1357.33 L323.245 1357.33  Z" fill="#4682b4" fill-rule="evenodd" fill-opacity="0.6"/>
<polyline clip-path="url(#clip162)" style="stroke:#000000; stroke-linecap:round; stroke-linejoin:round; stroke-width:4; stroke-opacity:1; fill:none" points="323.245,1357.33 323.245,1423.18 368.754,1423.18 368.754,1357.33 323.245,1357.33 "/>
<path clip-path="url(#clip162)" d="M368.754 1159.78 L368.754 1423.18 L414.263 1423.18 L414.263 1159.78 L368.754 1159.78 L368.754 1159.78  Z" fill="#4682b4" fill-rule="evenodd" fill-opacity="0.6"/>
<polyline clip-path="url(#clip162)" style="stroke:#000000; stroke-linecap:round; stroke-linejoin:round; stroke-width:4; stroke-opacity:1; fill:none" points="368.754,1159.78 368.754,1423.18 414.263,1423.18 414.263,1159.78 368.754,1159.78 "/>
<path clip-path="url(#clip162)" d="M414.263 995.159 L414.263 1423.18 L459.772 1423.18 L459.772 995.159 L414.263 995.159 L414.263 995.159  Z" fill="#4682b4" fill-rule="evenodd" fill-opacity="0.6"/>
<polyline clip-path="url(#clip162)" style="stroke:#000000; stroke-linecap:round; stroke-linejoin:round; stroke-width:4; stroke-opacity:1; fill:none" points="414.263,995.159 414.263,1423.18 459.772,1423.18 459.772,995.159 414.263,995.159 "/>
<path clip-path="url(#clip162)" d="M459.772 929.309 L459.772 1423.18 L505.282 1423.18 L505.282 929.309 L459.772 929.309 L459.772 929.309  Z" fill="#4682b4" fill-rule="evenodd" fill-opacity="0.6"/>
<polyline clip-path="url(#clip162)" style="stroke:#000000; stroke-linecap:round; stroke-linejoin:round; stroke-width:4; stroke-opacity:1; fill:none" points="459.772,929.309 459.772,1423.18 505.282,1423.18 505.282,929.309 459.772,929.309 "/>
<path clip-path="url(#clip162)" d="M505.282 567.138 L505.282 1423.18 L550.791 1423.18 L550.791 567.138 L505.282 567.138 L505.282 567.138  Z" fill="#4682b4" fill-rule="evenodd" fill-opacity="0.6"/>
<polyline clip-path="url(#clip162)" style="stroke:#000000; stroke-linecap:round; stroke-linejoin:round; stroke-width:4; stroke-opacity:1; fill:none" points="505.282,567.138 505.282,1423.18 550.791,1423.18 550.791,567.138 505.282,567.138 "/>
<path clip-path="url(#clip162)" d="M550.791 534.213 L550.791 1423.18 L596.3 1423.18 L596.3 534.213 L550.791 534.213 L550.791 534.213  Z" fill="#4682b4" fill-rule="evenodd" fill-opacity="0.6"/>
<polyline clip-path="url(#clip162)" style="stroke:#000000; stroke-linecap:round; stroke-linejoin:round; stroke-width:4; stroke-opacity:1; fill:none" points="550.791,534.213 550.791,1423.18 596.3,1423.18 596.3,534.213 550.791,534.213 "/>
<path clip-path="url(#clip162)" d="M596.3 204.966 L596.3 1423.18 L641.809 1423.18 L641.809 204.966 L596.3 204.966 L596.3 204.966  Z" fill="#4682b4" fill-rule="evenodd" fill-opacity="0.6"/>
<polyline clip-path="url(#clip162)" style="stroke:#000000; stroke-linecap:round; stroke-linejoin:round; stroke-width:4; stroke-opacity:1; fill:none" points="596.3,204.966 596.3,1423.18 641.809,1423.18 641.809,204.966 596.3,204.966 "/>
<path clip-path="url(#clip162)" d="M641.809 106.192 L641.809 1423.18 L687.319 1423.18 L687.319 106.192 L641.809 106.192 L641.809 106.192  Z" fill="#4682b4" fill-rule="evenodd" fill-opacity="0.6"/>
<polyline clip-path="url(#clip162)" style="stroke:#000000; stroke-linecap:round; stroke-linejoin:round; stroke-width:4; stroke-opacity:1; fill:none" points="641.809,106.192 641.809,1423.18 687.319,1423.18 687.319,106.192 641.809,106.192 "/>
<path clip-path="url(#clip162)" d="M687.319 204.966 L687.319 1423.18 L732.828 1423.18 L732.828 204.966 L687.319 204.966 L687.319 204.966  Z" fill="#4682b4" fill-rule="evenodd" fill-opacity="0.6"/>
<polyline clip-path="url(#clip162)" style="stroke:#000000; stroke-linecap:round; stroke-linejoin:round; stroke-width:4; stroke-opacity:1; fill:none" points="687.319,204.966 687.319,1423.18 732.828,1423.18 732.828,204.966 687.319,204.966 "/>
<path clip-path="url(#clip162)" d="M732.828 270.816 L732.828 1423.18 L778.337 1423.18 L778.337 270.816 L732.828 270.816 L732.828 270.816  Z" fill="#4682b4" fill-rule="evenodd" fill-opacity="0.6"/>
<polyline clip-path="url(#clip162)" style="stroke:#000000; stroke-linecap:round; stroke-linejoin:round; stroke-width:4; stroke-opacity:1; fill:none" points="732.828,270.816 732.828,1423.18 778.337,1423.18 778.337,270.816 732.828,270.816 "/>
<path clip-path="url(#clip162)" d="M778.337 237.891 L778.337 1423.18 L823.846 1423.18 L823.846 237.891 L778.337 237.891 L778.337 237.891  Z" fill="#4682b4" fill-rule="evenodd" fill-opacity="0.6"/>
<polyline clip-path="url(#clip162)" style="stroke:#000000; stroke-linecap:round; stroke-linejoin:round; stroke-width:4; stroke-opacity:1; fill:none" points="778.337,237.891 778.337,1423.18 823.846,1423.18 823.846,237.891 778.337,237.891 "/>
<path clip-path="url(#clip162)" d="M823.846 369.59 L823.846 1423.18 L869.355 1423.18 L869.355 369.59 L823.846 369.59 L823.846 369.59  Z" fill="#4682b4" fill-rule="evenodd" fill-opacity="0.6"/>
<polyline clip-path="url(#clip162)" style="stroke:#000000; stroke-linecap:round; stroke-linejoin:round; stroke-width:4; stroke-opacity:1; fill:none" points="823.846,369.59 823.846,1423.18 869.355,1423.18 869.355,369.59 823.846,369.59 "/>
<path clip-path="url(#clip162)" d="M869.355 303.74 L869.355 1423.18 L914.865 1423.18 L914.865 303.74 L869.355 303.74 L869.355 303.74  Z" fill="#4682b4" fill-rule="evenodd" fill-opacity="0.6"/>
<polyline clip-path="url(#clip162)" style="stroke:#000000; stroke-linecap:round; stroke-linejoin:round; stroke-width:4; stroke-opacity:1; fill:none" points="869.355,303.74 869.355,1423.18 914.865,1423.18 914.865,303.74 869.355,303.74 "/>
<path clip-path="url(#clip162)" d="M914.865 797.611 L914.865 1423.18 L960.374 1423.18 L960.374 797.611 L914.865 797.611 L914.865 797.611  Z" fill="#4682b4" fill-rule="evenodd" fill-opacity="0.6"/>
<polyline clip-path="url(#clip162)" style="stroke:#000000; stroke-linecap:round; stroke-linejoin:round; stroke-width:4; stroke-opacity:1; fill:none" points="914.865,797.611 914.865,1423.18 960.374,1423.18 960.374,797.611 914.865,797.611 "/>
<path clip-path="url(#clip162)" d="M960.374 797.611 L960.374 1423.18 L1005.88 1423.18 L1005.88 797.611 L960.374 797.611 L960.374 797.611  Z" fill="#4682b4" fill-rule="evenodd" fill-opacity="0.6"/>
<polyline clip-path="url(#clip162)" style="stroke:#000000; stroke-linecap:round; stroke-linejoin:round; stroke-width:4; stroke-opacity:1; fill:none" points="960.374,797.611 960.374,1423.18 1005.88,1423.18 1005.88,797.611 960.374,797.611 "/>
<path clip-path="url(#clip162)" d="M1005.88 764.686 L1005.88 1423.18 L1051.39 1423.18 L1051.39 764.686 L1005.88 764.686 L1005.88 764.686  Z" fill="#4682b4" fill-rule="evenodd" fill-opacity="0.6"/>
<polyline clip-path="url(#clip162)" style="stroke:#000000; stroke-linecap:round; stroke-linejoin:round; stroke-width:4; stroke-opacity:1; fill:none" points="1005.88,764.686 1005.88,1423.18 1051.39,1423.18 1051.39,764.686 1005.88,764.686 "/>
<path clip-path="url(#clip162)" d="M1051.39 995.159 L1051.39 1423.18 L1096.9 1423.18 L1096.9 995.159 L1051.39 995.159 L1051.39 995.159  Z" fill="#4682b4" fill-rule="evenodd" fill-opacity="0.6"/>
<polyline clip-path="url(#clip162)" style="stroke:#000000; stroke-linecap:round; stroke-linejoin:round; stroke-width:4; stroke-opacity:1; fill:none" points="1051.39,995.159 1051.39,1423.18 1096.9,1423.18 1096.9,995.159 1051.39,995.159 "/>
<path clip-path="url(#clip162)" d="M1096.9 929.309 L1096.9 1423.18 L1142.41 1423.18 L1142.41 929.309 L1096.9 929.309 L1096.9 929.309  Z" fill="#4682b4" fill-rule="evenodd" fill-opacity="0.6"/>
<polyline clip-path="url(#clip162)" style="stroke:#000000; stroke-linecap:round; stroke-linejoin:round; stroke-width:4; stroke-opacity:1; fill:none" points="1096.9,929.309 1096.9,1423.18 1142.41,1423.18 1142.41,929.309 1096.9,929.309 "/>
<path clip-path="url(#clip162)" d="M1142.41 1093.93 L1142.41 1423.18 L1187.92 1423.18 L1187.92 1093.93 L1142.41 1093.93 L1142.41 1093.93  Z" fill="#4682b4" fill-rule="evenodd" fill-opacity="0.6"/>
<polyline clip-path="url(#clip162)" style="stroke:#000000; stroke-linecap:round; stroke-linejoin:round; stroke-width:4; stroke-opacity:1; fill:none" points="1142.41,1093.93 1142.41,1423.18 1187.92,1423.18 1187.92,1093.93 1142.41,1093.93 "/>
<path clip-path="url(#clip162)" d="M1187.92 1126.86 L1187.92 1423.18 L1233.43 1423.18 L1233.43 1126.86 L1187.92 1126.86 L1187.92 1126.86  Z" fill="#4682b4" fill-rule="evenodd" fill-opacity="0.6"/>
<polyline clip-path="url(#clip162)" style="stroke:#000000; stroke-linecap:round; stroke-linejoin:round; stroke-width:4; stroke-opacity:1; fill:none" points="1187.92,1126.86 1187.92,1423.18 1233.43,1423.18 1233.43,1126.86 1187.92,1126.86 "/>
<path clip-path="url(#clip162)" d="M1233.43 1126.86 L1233.43 1423.18 L1278.94 1423.18 L1278.94 1126.86 L1233.43 1126.86 L1233.43 1126.86  Z" fill="#4682b4" fill-rule="evenodd" fill-opacity="0.6"/>
<polyline clip-path="url(#clip162)" style="stroke:#000000; stroke-linecap:round; stroke-linejoin:round; stroke-width:4; stroke-opacity:1; fill:none" points="1233.43,1126.86 1233.43,1423.18 1278.94,1423.18 1278.94,1126.86 1233.43,1126.86 "/>
<path clip-path="url(#clip162)" d="M1278.94 1192.71 L1278.94 1423.18 L1324.45 1423.18 L1324.45 1192.71 L1278.94 1192.71 L1278.94 1192.71  Z" fill="#4682b4" fill-rule="evenodd" fill-opacity="0.6"/>
<polyline clip-path="url(#clip162)" style="stroke:#000000; stroke-linecap:round; stroke-linejoin:round; stroke-width:4; stroke-opacity:1; fill:none" points="1278.94,1192.71 1278.94,1423.18 1324.45,1423.18 1324.45,1192.71 1278.94,1192.71 "/>
<path clip-path="url(#clip162)" d="M1324.45 1126.86 L1324.45 1423.18 L1369.96 1423.18 L1369.96 1126.86 L1324.45 1126.86 L1324.45 1126.86  Z" fill="#4682b4" fill-rule="evenodd" fill-opacity="0.6"/>
<polyline clip-path="url(#clip162)" style="stroke:#000000; stroke-linecap:round; stroke-linejoin:round; stroke-width:4; stroke-opacity:1; fill:none" points="1324.45,1126.86 1324.45,1423.18 1369.96,1423.18 1369.96,1126.86 1324.45,1126.86 "/>
<path clip-path="url(#clip162)" d="M1369.96 1192.71 L1369.96 1423.18 L1415.47 1423.18 L1415.47 1192.71 L1369.96 1192.71 L1369.96 1192.71  Z" fill="#4682b4" fill-rule="evenodd" fill-opacity="0.6"/>
<polyline clip-path="url(#clip162)" style="stroke:#000000; stroke-linecap:round; stroke-linejoin:round; stroke-width:4; stroke-opacity:1; fill:none" points="1369.96,1192.71 1369.96,1423.18 1415.47,1423.18 1415.47,1192.71 1369.96,1192.71 "/>
<path clip-path="url(#clip162)" d="M1415.47 1357.33 L1415.47 1423.18 L1460.98 1423.18 L1460.98 1357.33 L1415.47 1357.33 L1415.47 1357.33  Z" fill="#4682b4" fill-rule="evenodd" fill-opacity="0.6"/>
<polyline clip-path="url(#clip162)" style="stroke:#000000; stroke-linecap:round; stroke-linejoin:round; stroke-width:4; stroke-opacity:1; fill:none" points="1415.47,1357.33 1415.47,1423.18 1460.98,1423.18 1460.98,1357.33 1415.47,1357.33 "/>
<path clip-path="url(#clip162)" d="M1460.98 1225.63 L1460.98 1423.18 L1506.48 1423.18 L1506.48 1225.63 L1460.98 1225.63 L1460.98 1225.63  Z" fill="#4682b4" fill-rule="evenodd" fill-opacity="0.6"/>
<polyline clip-path="url(#clip162)" style="stroke:#000000; stroke-linecap:round; stroke-linejoin:round; stroke-width:4; stroke-opacity:1; fill:none" points="1460.98,1225.63 1460.98,1423.18 1506.48,1423.18 1506.48,1225.63 1460.98,1225.63 "/>
<path clip-path="url(#clip162)" d="M1506.48 1357.33 L1506.48 1423.18 L1551.99 1423.18 L1551.99 1357.33 L1506.48 1357.33 L1506.48 1357.33  Z" fill="#4682b4" fill-rule="evenodd" fill-opacity="0.6"/>
<polyline clip-path="url(#clip162)" style="stroke:#000000; stroke-linecap:round; stroke-linejoin:round; stroke-width:4; stroke-opacity:1; fill:none" points="1506.48,1357.33 1506.48,1423.18 1551.99,1423.18 1551.99,1357.33 1506.48,1357.33 "/>
<path clip-path="url(#clip162)" d="M1551.99 1423.18 L1551.99 1423.18 L1597.5 1423.18 L1597.5 1423.18 L1551.99 1423.18 L1551.99 1423.18  Z" fill="#4682b4" fill-rule="evenodd" fill-opacity="0.6"/>
<polyline clip-path="url(#clip162)" style="stroke:#000000; stroke-linecap:round; stroke-linejoin:round; stroke-width:4; stroke-opacity:1; fill:none" points="1551.99,1423.18 1551.99,1423.18 1597.5,1423.18 1551.99,1423.18 "/>
<path clip-path="url(#clip162)" d="M1597.5 1324.41 L1597.5 1423.18 L1643.01 1423.18 L1643.01 1324.41 L1597.5 1324.41 L1597.5 1324.41  Z" fill="#4682b4" fill-rule="evenodd" fill-opacity="0.6"/>
<polyline clip-path="url(#clip162)" style="stroke:#000000; stroke-linecap:round; stroke-linejoin:round; stroke-width:4; stroke-opacity:1; fill:none" points="1597.5,1324.41 1597.5,1423.18 1643.01,1423.18 1643.01,1324.41 1597.5,1324.41 "/>
<path clip-path="url(#clip162)" d="M1643.01 1390.26 L1643.01 1423.18 L1688.52 1423.18 L1688.52 1390.26 L1643.01 1390.26 L1643.01 1390.26  Z" fill="#4682b4" fill-rule="evenodd" fill-opacity="0.6"/>
<polyline clip-path="url(#clip162)" style="stroke:#000000; stroke-linecap:round; stroke-linejoin:round; stroke-width:4; stroke-opacity:1; fill:none" points="1643.01,1390.26 1643.01,1423.18 1688.52,1423.18 1688.52,1390.26 1643.01,1390.26 "/>
<path clip-path="url(#clip162)" d="M1688.52 1390.26 L1688.52 1423.18 L1734.03 1423.18 L1734.03 1390.26 L1688.52 1390.26 L1688.52 1390.26  Z" fill="#4682b4" fill-rule="evenodd" fill-opacity="0.6"/>
<polyline clip-path="url(#clip162)" style="stroke:#000000; stroke-linecap:round; stroke-linejoin:round; stroke-width:4; stroke-opacity:1; fill:none" points="1688.52,1390.26 1688.52,1423.18 1734.03,1423.18 1734.03,1390.26 1688.52,1390.26 "/>
<path clip-path="url(#clip162)" d="M1734.03 1357.33 L1734.03 1423.18 L1779.54 1423.18 L1779.54 1357.33 L1734.03 1357.33 L1734.03 1357.33  Z" fill="#4682b4" fill-rule="evenodd" fill-opacity="0.6"/>
<polyline clip-path="url(#clip162)" style="stroke:#000000; stroke-linecap:round; stroke-linejoin:round; stroke-width:4; stroke-opacity:1; fill:none" points="1734.03,1357.33 1734.03,1423.18 1779.54,1423.18 1779.54,1357.33 1734.03,1357.33 "/>
<path clip-path="url(#clip162)" d="M1779.54 1390.26 L1779.54 1423.18 L1825.05 1423.18 L1825.05 1390.26 L1779.54 1390.26 L1779.54 1390.26  Z" fill="#4682b4" fill-rule="evenodd" fill-opacity="0.6"/>
<polyline clip-path="url(#clip162)" style="stroke:#000000; stroke-linecap:round; stroke-linejoin:round; stroke-width:4; stroke-opacity:1; fill:none" points="1779.54,1390.26 1779.54,1423.18 1825.05,1423.18 1825.05,1390.26 1779.54,1390.26 "/>
<path clip-path="url(#clip162)" d="M1825.05 1423.18 L1825.05 1423.18 L1870.56 1423.18 L1870.56 1423.18 L1825.05 1423.18 L1825.05 1423.18  Z" fill="#4682b4" fill-rule="evenodd" fill-opacity="0.6"/>
<polyline clip-path="url(#clip162)" style="stroke:#000000; stroke-linecap:round; stroke-linejoin:round; stroke-width:4; stroke-opacity:1; fill:none" points="1825.05,1423.18 1825.05,1423.18 1870.56,1423.18 1825.05,1423.18 "/>
<path clip-path="url(#clip162)" d="M1870.56 1390.26 L1870.56 1423.18 L1916.07 1423.18 L1916.07 1390.26 L1870.56 1390.26 L1870.56 1390.26  Z" fill="#4682b4" fill-rule="evenodd" fill-opacity="0.6"/>
<polyline clip-path="url(#clip162)" style="stroke:#000000; stroke-linecap:round; stroke-linejoin:round; stroke-width:4; stroke-opacity:1; fill:none" points="1870.56,1390.26 1870.56,1423.18 1916.07,1423.18 1916.07,1390.26 1870.56,1390.26 "/>
<path clip-path="url(#clip162)" d="M1916.07 1423.18 L1916.07 1423.18 L1961.58 1423.18 L1961.58 1423.18 L1916.07 1423.18 L1916.07 1423.18  Z" fill="#4682b4" fill-rule="evenodd" fill-opacity="0.6"/>
<polyline clip-path="url(#clip162)" style="stroke:#000000; stroke-linecap:round; stroke-linejoin:round; stroke-width:4; stroke-opacity:1; fill:none" points="1916.07,1423.18 1916.07,1423.18 1961.58,1423.18 1916.07,1423.18 "/>
<path clip-path="url(#clip162)" d="M1961.58 1390.26 L1961.58 1423.18 L2007.09 1423.18 L2007.09 1390.26 L1961.58 1390.26 L1961.58 1390.26  Z" fill="#4682b4" fill-rule="evenodd" fill-opacity="0.6"/>
<polyline clip-path="url(#clip162)" style="stroke:#000000; stroke-linecap:round; stroke-linejoin:round; stroke-width:4; stroke-opacity:1; fill:none" points="1961.58,1390.26 1961.58,1423.18 2007.09,1423.18 2007.09,1390.26 1961.58,1390.26 "/>
<path clip-path="url(#clip162)" d="M2007.09 1423.18 L2007.09 1423.18 L2052.6 1423.18 L2052.6 1423.18 L2007.09 1423.18 L2007.09 1423.18  Z" fill="#4682b4" fill-rule="evenodd" fill-opacity="0.6"/>
<polyline clip-path="url(#clip162)" style="stroke:#000000; stroke-linecap:round; stroke-linejoin:round; stroke-width:4; stroke-opacity:1; fill:none" points="2007.09,1423.18 2007.09,1423.18 2052.6,1423.18 2007.09,1423.18 "/>
<path clip-path="url(#clip162)" d="M2052.6 1423.18 L2052.6 1423.18 L2098.1 1423.18 L2098.1 1423.18 L2052.6 1423.18 L2052.6 1423.18  Z" fill="#4682b4" fill-rule="evenodd" fill-opacity="0.6"/>
<polyline clip-path="url(#clip162)" style="stroke:#000000; stroke-linecap:round; stroke-linejoin:round; stroke-width:4; stroke-opacity:1; fill:none" points="2052.6,1423.18 2052.6,1423.18 2098.1,1423.18 2052.6,1423.18 "/>
<path clip-path="url(#clip162)" d="M2098.1 1423.18 L2098.1 1423.18 L2143.61 1423.18 L2143.61 1423.18 L2098.1 1423.18 L2098.1 1423.18  Z" fill="#4682b4" fill-rule="evenodd" fill-opacity="0.6"/>
<polyline clip-path="url(#clip162)" style="stroke:#000000; stroke-linecap:round; stroke-linejoin:round; stroke-width:4; stroke-opacity:1; fill:none" points="2098.1,1423.18 2098.1,1423.18 2143.61,1423.18 2098.1,1423.18 "/>
<path clip-path="url(#clip162)" d="M2143.61 1423.18 L2143.61 1423.18 L2189.12 1423.18 L2189.12 1423.18 L2143.61 1423.18 L2143.61 1423.18  Z" fill="#4682b4" fill-rule="evenodd" fill-opacity="0.6"/>
<polyline clip-path="url(#clip162)" style="stroke:#000000; stroke-linecap:round; stroke-linejoin:round; stroke-width:4; stroke-opacity:1; fill:none" points="2143.61,1423.18 2143.61,1423.18 2189.12,1423.18 2143.61,1423.18 "/>
<path clip-path="url(#clip162)" d="M2189.12 1390.26 L2189.12 1423.18 L2234.63 1423.18 L2234.63 1390.26 L2189.12 1390.26 L2189.12 1390.26  Z" fill="#4682b4" fill-rule="evenodd" fill-opacity="0.6"/>
<polyline clip-path="url(#clip162)" style="stroke:#000000; stroke-linecap:round; stroke-linejoin:round; stroke-width:4; stroke-opacity:1; fill:none" points="2189.12,1390.26 2189.12,1423.18 2234.63,1423.18 2234.63,1390.26 2189.12,1390.26 "/>
<circle clip-path="url(#clip162)" style="fill:#4682b4; stroke:none; fill-opacity:0" cx="345.999" cy="1357.33" r="2"/>
<circle clip-path="url(#clip162)" style="fill:#4682b4; stroke:none; fill-opacity:0" cx="391.509" cy="1159.78" r="2"/>
<circle clip-path="url(#clip162)" style="fill:#4682b4; stroke:none; fill-opacity:0" cx="437.018" cy="995.159" r="2"/>
<circle clip-path="url(#clip162)" style="fill:#4682b4; stroke:none; fill-opacity:0" cx="482.527" cy="929.309" r="2"/>
<circle clip-path="url(#clip162)" style="fill:#4682b4; stroke:none; fill-opacity:0" cx="528.036" cy="567.138" r="2"/>
<circle clip-path="url(#clip162)" style="fill:#4682b4; stroke:none; fill-opacity:0" cx="573.545" cy="534.213" r="2"/>
<circle clip-path="url(#clip162)" style="fill:#4682b4; stroke:none; fill-opacity:0" cx="619.055" cy="204.966" r="2"/>
<circle clip-path="url(#clip162)" style="fill:#4682b4; stroke:none; fill-opacity:0" cx="664.564" cy="106.192" r="2"/>
<circle clip-path="url(#clip162)" style="fill:#4682b4; stroke:none; fill-opacity:0" cx="710.073" cy="204.966" r="2"/>
<circle clip-path="url(#clip162)" style="fill:#4682b4; stroke:none; fill-opacity:0" cx="755.582" cy="270.816" r="2"/>
<circle clip-path="url(#clip162)" style="fill:#4682b4; stroke:none; fill-opacity:0" cx="801.092" cy="237.891" r="2"/>
<circle clip-path="url(#clip162)" style="fill:#4682b4; stroke:none; fill-opacity:0" cx="846.601" cy="369.59" r="2"/>
<circle clip-path="url(#clip162)" style="fill:#4682b4; stroke:none; fill-opacity:0" cx="892.11" cy="303.74" r="2"/>
<circle clip-path="url(#clip162)" style="fill:#4682b4; stroke:none; fill-opacity:0" cx="937.619" cy="797.611" r="2"/>
<circle clip-path="url(#clip162)" style="fill:#4682b4; stroke:none; fill-opacity:0" cx="983.128" cy="797.611" r="2"/>
<circle clip-path="url(#clip162)" style="fill:#4682b4; stroke:none; fill-opacity:0" cx="1028.64" cy="764.686" r="2"/>
<circle clip-path="url(#clip162)" style="fill:#4682b4; stroke:none; fill-opacity:0" cx="1074.15" cy="995.159" r="2"/>
<circle clip-path="url(#clip162)" style="fill:#4682b4; stroke:none; fill-opacity:0" cx="1119.66" cy="929.309" r="2"/>
<circle clip-path="url(#clip162)" style="fill:#4682b4; stroke:none; fill-opacity:0" cx="1165.17" cy="1093.93" r="2"/>
<circle clip-path="url(#clip162)" style="fill:#4682b4; stroke:none; fill-opacity:0" cx="1210.67" cy="1126.86" r="2"/>
<circle clip-path="url(#clip162)" style="fill:#4682b4; stroke:none; fill-opacity:0" cx="1256.18" cy="1126.86" r="2"/>
<circle clip-path="url(#clip162)" style="fill:#4682b4; stroke:none; fill-opacity:0" cx="1301.69" cy="1192.71" r="2"/>
<circle clip-path="url(#clip162)" style="fill:#4682b4; stroke:none; fill-opacity:0" cx="1347.2" cy="1126.86" r="2"/>
<circle clip-path="url(#clip162)" style="fill:#4682b4; stroke:none; fill-opacity:0" cx="1392.71" cy="1192.71" r="2"/>
<circle clip-path="url(#clip162)" style="fill:#4682b4; stroke:none; fill-opacity:0" cx="1438.22" cy="1357.33" r="2"/>
<circle clip-path="url(#clip162)" style="fill:#4682b4; stroke:none; fill-opacity:0" cx="1483.73" cy="1225.63" r="2"/>
<circle clip-path="url(#clip162)" style="fill:#4682b4; stroke:none; fill-opacity:0" cx="1529.24" cy="1357.33" r="2"/>
<circle clip-path="url(#clip162)" style="fill:#4682b4; stroke:none; fill-opacity:0" cx="1574.75" cy="1423.18" r="2"/>
<circle clip-path="url(#clip162)" style="fill:#4682b4; stroke:none; fill-opacity:0" cx="1620.26" cy="1324.41" r="2"/>
<circle clip-path="url(#clip162)" style="fill:#4682b4; stroke:none; fill-opacity:0" cx="1665.77" cy="1390.26" r="2"/>
<circle clip-path="url(#clip162)" style="fill:#4682b4; stroke:none; fill-opacity:0" cx="1711.28" cy="1390.26" r="2"/>
<circle clip-path="url(#clip162)" style="fill:#4682b4; stroke:none; fill-opacity:0" cx="1756.79" cy="1357.33" r="2"/>
<circle clip-path="url(#clip162)" style="fill:#4682b4; stroke:none; fill-opacity:0" cx="1802.29" cy="1390.26" r="2"/>
<circle clip-path="url(#clip162)" style="fill:#4682b4; stroke:none; fill-opacity:0" cx="1847.8" cy="1423.18" r="2"/>
<circle clip-path="url(#clip162)" style="fill:#4682b4; stroke:none; fill-opacity:0" cx="1893.31" cy="1390.26" r="2"/>
<circle clip-path="url(#clip162)" style="fill:#4682b4; stroke:none; fill-opacity:0" cx="1938.82" cy="1423.18" r="2"/>
<circle clip-path="url(#clip162)" style="fill:#4682b4; stroke:none; fill-opacity:0" cx="1984.33" cy="1390.26" r="2"/>
<circle clip-path="url(#clip162)" style="fill:#4682b4; stroke:none; fill-opacity:0" cx="2029.84" cy="1423.18" r="2"/>
<circle clip-path="url(#clip162)" style="fill:#4682b4; stroke:none; fill-opacity:0" cx="2075.35" cy="1423.18" r="2"/>
<circle clip-path="url(#clip162)" style="fill:#4682b4; stroke:none; fill-opacity:0" cx="2120.86" cy="1423.18" r="2"/>
<circle clip-path="url(#clip162)" style="fill:#4682b4; stroke:none; fill-opacity:0" cx="2166.37" cy="1423.18" r="2"/>
<circle clip-path="url(#clip162)" style="fill:#4682b4; stroke:none; fill-opacity:0" cx="2211.88" cy="1390.26" r="2"/>
<polyline clip-path="url(#clip162)" style="stroke:#ff0000; stroke-linecap:round; stroke-linejoin:round; stroke-width:8; stroke-opacity:1; fill:none" points="769.783,2740.17 769.783,-1210.8 "/>
<polyline clip-path="url(#clip162)" style="stroke:#0000ff; stroke-linecap:round; stroke-linejoin:round; stroke-width:8; stroke-opacity:1; fill:none" stroke-dasharray="32, 20" points="785.748,2740.17 785.748,-1210.8 "/>
<path clip-path="url(#clip160)" d="M1632.33 357.452 L2281.17 357.452 L2281.17 150.092 L1632.33 150.092  Z" fill="#ffffff" fill-rule="evenodd" fill-opacity="1"/>
<polyline clip-path="url(#clip160)" style="stroke:#000000; stroke-linecap:round; stroke-linejoin:round; stroke-width:4; stroke-opacity:1; fill:none" points="1632.33,357.452 2281.17,357.452 2281.17,150.092 1632.33,150.092 1632.33,357.452 "/>
<path clip-path="url(#clip160)" d="M1656.2 222.668 L1799.37 222.668 L1799.37 181.196 L1656.2 181.196 L1656.2 222.668  Z" fill="#4682b4" fill-rule="evenodd" fill-opacity="0.6"/>
<polyline clip-path="url(#clip160)" style="stroke:#000000; stroke-linecap:round; stroke-linejoin:round; stroke-width:4; stroke-opacity:1; fill:none" points="1656.2,222.668 1799.37,222.668 1799.37,181.196 1656.2,181.196 1656.2,222.668 "/>
<path clip-path="url(#clip160)" d="M1845.48 185.786 L1845.48 190.346 Q1842.82 189.073 1840.46 188.448 Q1838.09 187.823 1835.9 187.823 Q1832.08 187.823 1829.99 189.304 Q1827.93 190.786 1827.93 193.517 Q1827.93 195.809 1829.3 196.99 Q1830.69 198.147 1834.53 198.865 L1837.35 199.443 Q1842.59 200.439 1845.06 202.962 Q1847.56 205.462 1847.56 209.675 Q1847.56 214.698 1844.18 217.29 Q1840.83 219.883 1834.32 219.883 Q1831.87 219.883 1829.09 219.327 Q1826.34 218.772 1823.37 217.684 L1823.37 212.869 Q1826.22 214.466 1828.95 215.277 Q1831.68 216.087 1834.32 216.087 Q1838.33 216.087 1840.5 214.513 Q1842.68 212.939 1842.68 210.022 Q1842.68 207.476 1841.1 206.04 Q1839.55 204.605 1835.99 203.888 L1833.14 203.332 Q1827.91 202.291 1825.57 200.068 Q1823.23 197.846 1823.23 193.888 Q1823.23 189.304 1826.45 186.666 Q1829.69 184.027 1835.36 184.027 Q1837.79 184.027 1840.32 184.467 Q1842.84 184.906 1845.48 185.786 Z" fill="#000000" fill-rule="nonzero" fill-opacity="1" /><path clip-path="url(#clip160)" d="M1854.67 193.286 L1858.93 193.286 L1858.93 219.212 L1854.67 219.212 L1854.67 193.286 M1854.67 183.193 L1858.93 183.193 L1858.93 188.587 L1854.67 188.587 L1854.67 183.193 Z" fill="#000000" fill-rule="nonzero" fill-opacity="1" /><path clip-path="url(#clip160)" d="M1888.03 198.263 Q1889.62 195.392 1891.84 194.027 Q1894.07 192.661 1897.08 192.661 Q1901.13 192.661 1903.33 195.508 Q1905.52 198.332 1905.52 203.564 L1905.52 219.212 L1901.24 219.212 L1901.24 203.703 Q1901.24 199.976 1899.92 198.17 Q1898.6 196.365 1895.9 196.365 Q1892.59 196.365 1890.66 198.564 Q1888.74 200.763 1888.74 204.559 L1888.74 219.212 L1884.46 219.212 L1884.46 203.703 Q1884.46 199.953 1883.14 198.17 Q1881.82 196.365 1879.07 196.365 Q1875.8 196.365 1873.88 198.587 Q1871.96 200.786 1871.96 204.559 L1871.96 219.212 L1867.68 219.212 L1867.68 193.286 L1871.96 193.286 L1871.96 197.314 Q1873.42 194.929 1875.46 193.795 Q1877.49 192.661 1880.29 192.661 Q1883.12 192.661 1885.09 194.096 Q1887.08 195.531 1888.03 198.263 Z" fill="#000000" fill-rule="nonzero" fill-opacity="1" /><path clip-path="url(#clip160)" d="M1913.58 208.98 L1913.58 193.286 L1917.84 193.286 L1917.84 208.818 Q1917.84 212.499 1919.27 214.351 Q1920.71 216.179 1923.58 216.179 Q1927.03 216.179 1929.02 213.98 Q1931.03 211.781 1931.03 207.985 L1931.03 193.286 L1935.29 193.286 L1935.29 219.212 L1931.03 219.212 L1931.03 215.23 Q1929.48 217.591 1927.42 218.749 Q1925.39 219.883 1922.68 219.883 Q1918.21 219.883 1915.9 217.105 Q1913.58 214.327 1913.58 208.98 M1924.3 192.661 L1924.3 192.661 Z" fill="#000000" fill-rule="nonzero" fill-opacity="1" /><path clip-path="url(#clip160)" d="M1944.07 183.193 L1948.33 183.193 L1948.33 219.212 L1944.07 219.212 L1944.07 183.193 Z" fill="#000000" fill-rule="nonzero" fill-opacity="1" /><path clip-path="url(#clip160)" d="M1969.02 206.179 Q1963.86 206.179 1961.87 207.36 Q1959.88 208.54 1959.88 211.388 Q1959.88 213.656 1961.36 214.999 Q1962.86 216.318 1965.43 216.318 Q1968.97 216.318 1971.1 213.818 Q1973.26 211.295 1973.26 207.128 L1973.26 206.179 L1969.02 206.179 M1977.52 204.42 L1977.52 219.212 L1973.26 219.212 L1973.26 215.277 Q1971.8 217.638 1969.62 218.772 Q1967.45 219.883 1964.3 219.883 Q1960.32 219.883 1957.96 217.661 Q1955.62 215.415 1955.62 211.665 Q1955.62 207.29 1958.53 205.068 Q1961.47 202.846 1967.28 202.846 L1973.26 202.846 L1973.26 202.429 Q1973.26 199.49 1971.31 197.892 Q1969.39 196.272 1965.89 196.272 Q1963.67 196.272 1961.57 196.804 Q1959.46 197.337 1957.52 198.402 L1957.52 194.466 Q1959.85 193.564 1962.05 193.124 Q1964.25 192.661 1966.33 192.661 Q1971.96 192.661 1974.74 195.578 Q1977.52 198.494 1977.52 204.42 Z" fill="#000000" fill-rule="nonzero" fill-opacity="1" /><path clip-path="url(#clip160)" d="M1990.5 185.925 L1990.5 193.286 L1999.27 193.286 L1999.27 196.596 L1990.5 196.596 L1990.5 210.67 Q1990.5 213.841 1991.36 214.744 Q1992.24 215.647 1994.9 215.647 L1999.27 215.647 L1999.27 219.212 L1994.9 219.212 Q1989.97 219.212 1988.09 217.383 Q1986.22 215.531 1986.22 210.67 L1986.22 196.596 L1983.09 196.596 L1983.09 193.286 L1986.22 193.286 L1986.22 185.925 L1990.5 185.925 Z" fill="#000000" fill-rule="nonzero" fill-opacity="1" /><path clip-path="url(#clip160)" d="M2027.05 205.184 L2027.05 207.267 L2007.47 207.267 Q2007.75 211.665 2010.11 213.98 Q2012.49 216.272 2016.73 216.272 Q2019.18 216.272 2021.47 215.67 Q2023.79 215.068 2026.06 213.865 L2026.06 217.892 Q2023.77 218.864 2021.36 219.374 Q2018.95 219.883 2016.47 219.883 Q2010.27 219.883 2006.64 216.272 Q2003.02 212.661 2003.02 206.503 Q2003.02 200.138 2006.45 196.411 Q2009.9 192.661 2015.73 192.661 Q2020.96 192.661 2024 196.041 Q2027.05 199.397 2027.05 205.184 M2022.79 203.934 Q2022.75 200.439 2020.83 198.355 Q2018.93 196.272 2015.78 196.272 Q2012.21 196.272 2010.06 198.286 Q2007.93 200.3 2007.61 203.957 L2022.79 203.934 Z" fill="#000000" fill-rule="nonzero" fill-opacity="1" /><path clip-path="url(#clip160)" d="M2051.1 197.221 L2051.1 183.193 L2055.36 183.193 L2055.36 219.212 L2051.1 219.212 L2051.1 215.323 Q2049.76 217.638 2047.7 218.772 Q2045.66 219.883 2042.79 219.883 Q2038.09 219.883 2035.13 216.133 Q2032.19 212.383 2032.19 206.272 Q2032.19 200.161 2035.13 196.411 Q2038.09 192.661 2042.79 192.661 Q2045.66 192.661 2047.7 193.795 Q2049.76 194.906 2051.1 197.221 M2036.59 206.272 Q2036.59 210.971 2038.51 213.656 Q2040.45 216.318 2043.83 216.318 Q2047.21 216.318 2049.16 213.656 Q2051.1 210.971 2051.1 206.272 Q2051.1 201.573 2049.16 198.911 Q2047.21 196.226 2043.83 196.226 Q2040.45 196.226 2038.51 198.911 Q2036.59 201.573 2036.59 206.272 Z" fill="#000000" fill-rule="nonzero" fill-opacity="1" /><polyline clip-path="url(#clip160)" style="stroke:#ff0000; stroke-linecap:round; stroke-linejoin:round; stroke-width:8; stroke-opacity:1; fill:none" points="1656.2,253.772 1799.37,253.772 "/>
<path clip-path="url(#clip160)" d="M1839.25 239.663 Q1834.16 239.663 1831.15 243.459 Q1828.16 247.256 1828.16 253.806 Q1828.16 260.334 1831.15 264.13 Q1834.16 267.927 1839.25 267.927 Q1844.34 267.927 1847.31 264.13 Q1850.29 260.334 1850.29 253.806 Q1850.29 247.256 1847.31 243.459 Q1844.34 239.663 1839.25 239.663 M1839.25 235.867 Q1846.52 235.867 1850.87 240.751 Q1855.22 245.612 1855.22 253.806 Q1855.22 261.978 1850.87 266.862 Q1846.52 271.723 1839.25 271.723 Q1831.96 271.723 1827.59 266.862 Q1823.23 262.001 1823.23 253.806 Q1823.23 245.612 1827.59 240.751 Q1831.96 235.867 1839.25 235.867 Z" fill="#000000" fill-rule="nonzero" fill-opacity="1" /><path clip-path="url(#clip160)" d="M1880.96 258.112 Q1880.96 253.413 1879.02 250.751 Q1877.1 248.066 1873.72 248.066 Q1870.34 248.066 1868.4 250.751 Q1866.47 253.413 1866.47 258.112 Q1866.47 262.811 1868.4 265.496 Q1870.34 268.158 1873.72 268.158 Q1877.1 268.158 1879.02 265.496 Q1880.96 262.811 1880.96 258.112 M1866.47 249.061 Q1867.82 246.746 1869.85 245.635 Q1871.91 244.501 1874.76 244.501 Q1879.48 244.501 1882.42 248.251 Q1885.39 252.001 1885.39 258.112 Q1885.39 264.223 1882.42 267.973 Q1879.48 271.723 1874.76 271.723 Q1871.91 271.723 1869.85 270.612 Q1867.82 269.478 1866.47 267.163 L1866.47 271.052 L1862.19 271.052 L1862.19 235.033 L1866.47 235.033 L1866.47 249.061 Z" fill="#000000" fill-rule="nonzero" fill-opacity="1" /><path clip-path="url(#clip160)" d="M1908.97 245.89 L1908.97 249.918 Q1907.17 248.992 1905.22 248.529 Q1903.28 248.066 1901.2 248.066 Q1898.02 248.066 1896.43 249.038 Q1894.85 250.01 1894.85 251.955 Q1894.85 253.436 1895.99 254.293 Q1897.12 255.126 1900.55 255.89 L1902.01 256.214 Q1906.54 257.186 1908.44 258.968 Q1910.36 260.728 1910.36 263.899 Q1910.36 267.51 1907.49 269.617 Q1904.65 271.723 1899.65 271.723 Q1897.56 271.723 1895.29 271.306 Q1893.05 270.913 1890.55 270.103 L1890.55 265.705 Q1892.91 266.931 1895.2 267.556 Q1897.49 268.158 1899.74 268.158 Q1902.75 268.158 1904.37 267.14 Q1905.99 266.098 1905.99 264.223 Q1905.99 262.487 1904.81 261.561 Q1903.65 260.635 1899.69 259.779 L1898.21 259.431 Q1894.25 258.598 1892.49 256.885 Q1890.73 255.149 1890.73 252.14 Q1890.73 248.482 1893.33 246.492 Q1895.92 244.501 1900.69 244.501 Q1903.05 244.501 1905.13 244.848 Q1907.21 245.195 1908.97 245.89 Z" fill="#000000" fill-rule="nonzero" fill-opacity="1" /><path clip-path="url(#clip160)" d="M1939.32 257.024 L1939.32 259.107 L1919.74 259.107 Q1920.02 263.505 1922.38 265.82 Q1924.76 268.112 1929 268.112 Q1931.45 268.112 1933.74 267.51 Q1936.06 266.908 1938.33 265.705 L1938.33 269.732 Q1936.03 270.704 1933.63 271.214 Q1931.22 271.723 1928.74 271.723 Q1922.54 271.723 1918.9 268.112 Q1915.29 264.501 1915.29 258.343 Q1915.29 251.978 1918.72 248.251 Q1922.17 244.501 1928 244.501 Q1933.23 244.501 1936.27 247.881 Q1939.32 251.237 1939.32 257.024 M1935.06 255.774 Q1935.02 252.279 1933.09 250.195 Q1931.2 248.112 1928.05 248.112 Q1924.48 248.112 1922.33 250.126 Q1920.2 252.14 1919.88 255.797 L1935.06 255.774 Z" fill="#000000" fill-rule="nonzero" fill-opacity="1" /><path clip-path="url(#clip160)" d="M1961.33 249.107 Q1960.62 248.691 1959.76 248.506 Q1958.93 248.297 1957.91 248.297 Q1954.3 248.297 1952.35 250.658 Q1950.43 252.996 1950.43 257.394 L1950.43 271.052 L1946.15 271.052 L1946.15 245.126 L1950.43 245.126 L1950.43 249.154 Q1951.77 246.793 1953.93 245.658 Q1956.08 244.501 1959.16 244.501 Q1959.6 244.501 1960.13 244.57 Q1960.66 244.617 1961.31 244.732 L1961.33 249.107 Z" fill="#000000" fill-rule="nonzero" fill-opacity="1" /><path clip-path="url(#clip160)" d="M1962.75 245.126 L1967.26 245.126 L1975.36 266.885 L1983.46 245.126 L1987.98 245.126 L1978.26 271.052 L1972.47 271.052 L1962.75 245.126 Z" fill="#000000" fill-rule="nonzero" fill-opacity="1" /><path clip-path="url(#clip160)" d="M2016.03 257.024 L2016.03 259.107 L1996.45 259.107 Q1996.73 263.505 1999.09 265.82 Q2001.47 268.112 2005.71 268.112 Q2008.16 268.112 2010.45 267.51 Q2012.77 266.908 2015.04 265.705 L2015.04 269.732 Q2012.75 270.704 2010.34 271.214 Q2007.93 271.723 2005.45 271.723 Q1999.25 271.723 1995.62 268.112 Q1992.01 264.501 1992.01 258.343 Q1992.01 251.978 1995.43 248.251 Q1998.88 244.501 2004.71 244.501 Q2009.95 244.501 2012.98 247.881 Q2016.03 251.237 2016.03 257.024 M2011.77 255.774 Q2011.73 252.279 2009.81 250.195 Q2007.91 248.112 2004.76 248.112 Q2001.2 248.112 1999.04 250.126 Q1996.91 252.14 1996.59 255.797 L2011.77 255.774 Z" fill="#000000" fill-rule="nonzero" fill-opacity="1" /><path clip-path="url(#clip160)" d="M2040.08 249.061 L2040.08 235.033 L2044.34 235.033 L2044.34 271.052 L2040.08 271.052 L2040.08 267.163 Q2038.74 269.478 2036.68 270.612 Q2034.64 271.723 2031.77 271.723 Q2027.08 271.723 2024.11 267.973 Q2021.17 264.223 2021.17 258.112 Q2021.17 252.001 2024.11 248.251 Q2027.08 244.501 2031.77 244.501 Q2034.64 244.501 2036.68 245.635 Q2038.74 246.746 2040.08 249.061 M2025.57 258.112 Q2025.57 262.811 2027.49 265.496 Q2029.44 268.158 2032.82 268.158 Q2036.2 268.158 2038.14 265.496 Q2040.08 262.811 2040.08 258.112 Q2040.08 253.413 2038.14 250.751 Q2036.2 248.066 2032.82 248.066 Q2029.44 248.066 2027.49 250.751 Q2025.57 253.413 2025.57 258.112 Z" fill="#000000" fill-rule="nonzero" fill-opacity="1" /><path clip-path="url(#clip160)" d="M2072.4 237.765 L2072.4 245.126 L2081.17 245.126 L2081.17 248.436 L2072.4 248.436 L2072.4 262.51 Q2072.4 265.681 2073.26 266.584 Q2074.14 267.487 2076.8 267.487 L2081.17 267.487 L2081.17 271.052 L2076.8 271.052 Q2071.87 271.052 2069.99 269.223 Q2068.12 267.371 2068.12 262.51 L2068.12 248.436 L2064.99 248.436 L2064.99 245.126 L2068.12 245.126 L2068.12 237.765 L2072.4 237.765 Z" fill="#000000" fill-rule="nonzero" fill-opacity="1" /><path clip-path="url(#clip160)" d="M2108.95 257.024 L2108.95 259.107 L2089.37 259.107 Q2089.64 263.505 2092.01 265.82 Q2094.39 268.112 2098.63 268.112 Q2101.08 268.112 2103.37 267.51 Q2105.69 266.908 2107.95 265.705 L2107.95 269.732 Q2105.66 270.704 2103.26 271.214 Q2100.85 271.723 2098.37 271.723 Q2092.17 271.723 2088.53 268.112 Q2084.92 264.501 2084.92 258.343 Q2084.92 251.978 2088.35 248.251 Q2091.8 244.501 2097.63 244.501 Q2102.86 244.501 2105.89 247.881 Q2108.95 251.237 2108.95 257.024 M2104.69 255.774 Q2104.64 252.279 2102.72 250.195 Q2100.82 248.112 2097.68 248.112 Q2094.11 248.112 2091.96 250.126 Q2089.83 252.14 2089.51 255.797 L2104.69 255.774 Z" fill="#000000" fill-rule="nonzero" fill-opacity="1" /><path clip-path="url(#clip160)" d="M2130.96 249.107 Q2130.25 248.691 2129.39 248.506 Q2128.56 248.297 2127.54 248.297 Q2123.93 248.297 2121.98 250.658 Q2120.06 252.996 2120.06 257.394 L2120.06 271.052 L2115.78 271.052 L2115.78 245.126 L2120.06 245.126 L2120.06 249.154 Q2121.4 246.793 2123.56 245.658 Q2125.71 244.501 2128.79 244.501 Q2129.23 244.501 2129.76 244.57 Q2130.29 244.617 2130.94 244.732 L2130.96 249.107 Z" fill="#000000" fill-rule="nonzero" fill-opacity="1" /><path clip-path="url(#clip160)" d="M2154.78 250.103 Q2156.38 247.232 2158.6 245.867 Q2160.82 244.501 2163.83 244.501 Q2167.88 244.501 2170.08 247.348 Q2172.28 250.172 2172.28 255.404 L2172.28 271.052 L2168 271.052 L2168 255.543 Q2168 251.816 2166.68 250.01 Q2165.36 248.205 2162.65 248.205 Q2159.34 248.205 2157.42 250.404 Q2155.5 252.603 2155.5 256.399 L2155.5 271.052 L2151.22 271.052 L2151.22 255.543 Q2151.22 251.793 2149.9 250.01 Q2148.58 248.205 2145.82 248.205 Q2142.56 248.205 2140.64 250.427 Q2138.72 252.626 2138.72 256.399 L2138.72 271.052 L2134.44 271.052 L2134.44 245.126 L2138.72 245.126 L2138.72 249.154 Q2140.18 246.769 2142.21 245.635 Q2144.25 244.501 2147.05 244.501 Q2149.88 244.501 2151.84 245.936 Q2153.83 247.371 2154.78 250.103 Z" fill="#000000" fill-rule="nonzero" fill-opacity="1" /><path clip-path="url(#clip160)" d="M2180.78 245.126 L2185.04 245.126 L2185.04 271.052 L2180.78 271.052 L2180.78 245.126 M2180.78 235.033 L2185.04 235.033 L2185.04 240.427 L2180.78 240.427 L2180.78 235.033 Z" fill="#000000" fill-rule="nonzero" fill-opacity="1" /><path clip-path="url(#clip160)" d="M2215.5 255.404 L2215.5 271.052 L2211.24 271.052 L2211.24 255.543 Q2211.24 251.862 2209.81 250.033 Q2208.37 248.205 2205.5 248.205 Q2202.05 248.205 2200.06 250.404 Q2198.07 252.603 2198.07 256.399 L2198.07 271.052 L2193.79 271.052 L2193.79 245.126 L2198.07 245.126 L2198.07 249.154 Q2199.6 246.816 2201.66 245.658 Q2203.74 244.501 2206.45 244.501 Q2210.92 244.501 2213.21 247.279 Q2215.5 250.033 2215.5 255.404 Z" fill="#000000" fill-rule="nonzero" fill-opacity="1" /><path clip-path="url(#clip160)" d="M2235.78 258.019 Q2230.62 258.019 2228.63 259.2 Q2226.63 260.38 2226.63 263.228 Q2226.63 265.496 2228.12 266.839 Q2229.62 268.158 2232.19 268.158 Q2235.73 268.158 2237.86 265.658 Q2240.01 263.135 2240.01 258.968 L2240.01 258.019 L2235.78 258.019 M2244.27 256.26 L2244.27 271.052 L2240.01 271.052 L2240.01 267.117 Q2238.56 269.478 2236.38 270.612 Q2234.2 271.723 2231.06 271.723 Q2227.07 271.723 2224.71 269.501 Q2222.38 267.255 2222.38 263.505 Q2222.38 259.13 2225.29 256.908 Q2228.23 254.686 2234.04 254.686 L2240.01 254.686 L2240.01 254.269 Q2240.01 251.33 2238.07 249.732 Q2236.15 248.112 2232.65 248.112 Q2230.43 248.112 2228.32 248.644 Q2226.22 249.177 2224.27 250.242 L2224.27 246.306 Q2226.61 245.404 2228.81 244.964 Q2231.01 244.501 2233.09 244.501 Q2238.72 244.501 2241.5 247.418 Q2244.27 250.334 2244.27 256.26 Z" fill="#000000" fill-rule="nonzero" fill-opacity="1" /><path clip-path="url(#clip160)" d="M2253.05 235.033 L2257.31 235.033 L2257.31 271.052 L2253.05 271.052 L2253.05 235.033 Z" fill="#000000" fill-rule="nonzero" fill-opacity="1" /><polyline clip-path="url(#clip160)" style="stroke:#0000ff; stroke-linecap:round; stroke-linejoin:round; stroke-width:8; stroke-opacity:1; fill:none" stroke-dasharray="32, 20" points="1656.2,305.612 1799.37,305.612 "/>
<path clip-path="url(#clip160)" d="M1845.48 289.466 L1845.48 294.026 Q1842.82 292.753 1840.46 292.128 Q1838.09 291.503 1835.9 291.503 Q1832.08 291.503 1829.99 292.984 Q1827.93 294.466 1827.93 297.197 Q1827.93 299.489 1829.3 300.67 Q1830.69 301.827 1834.53 302.545 L1837.35 303.123 Q1842.59 304.119 1845.06 306.642 Q1847.56 309.142 1847.56 313.355 Q1847.56 318.378 1844.18 320.97 Q1840.83 323.563 1834.32 323.563 Q1831.87 323.563 1829.09 323.007 Q1826.34 322.452 1823.37 321.364 L1823.37 316.549 Q1826.22 318.146 1828.95 318.957 Q1831.68 319.767 1834.32 319.767 Q1838.33 319.767 1840.5 318.193 Q1842.68 316.619 1842.68 313.702 Q1842.68 311.156 1841.1 309.72 Q1839.55 308.285 1835.99 307.568 L1833.14 307.012 Q1827.91 305.971 1825.57 303.748 Q1823.23 301.526 1823.23 297.568 Q1823.23 292.984 1826.45 290.346 Q1829.69 287.707 1835.36 287.707 Q1837.79 287.707 1840.32 288.147 Q1842.84 288.586 1845.48 289.466 Z" fill="#000000" fill-rule="nonzero" fill-opacity="1" /><path clip-path="url(#clip160)" d="M1854.67 296.966 L1858.93 296.966 L1858.93 322.892 L1854.67 322.892 L1854.67 296.966 M1854.67 286.873 L1858.93 286.873 L1858.93 292.267 L1854.67 292.267 L1854.67 286.873 Z" fill="#000000" fill-rule="nonzero" fill-opacity="1" /><path clip-path="url(#clip160)" d="M1888.03 301.943 Q1889.62 299.072 1891.84 297.707 Q1894.07 296.341 1897.08 296.341 Q1901.13 296.341 1903.33 299.188 Q1905.52 302.012 1905.52 307.244 L1905.52 322.892 L1901.24 322.892 L1901.24 307.383 Q1901.24 303.656 1899.92 301.85 Q1898.6 300.045 1895.9 300.045 Q1892.59 300.045 1890.66 302.244 Q1888.74 304.443 1888.74 308.239 L1888.74 322.892 L1884.46 322.892 L1884.46 307.383 Q1884.46 303.633 1883.14 301.85 Q1881.82 300.045 1879.07 300.045 Q1875.8 300.045 1873.88 302.267 Q1871.96 304.466 1871.96 308.239 L1871.96 322.892 L1867.68 322.892 L1867.68 296.966 L1871.96 296.966 L1871.96 300.994 Q1873.42 298.609 1875.46 297.475 Q1877.49 296.341 1880.29 296.341 Q1883.12 296.341 1885.09 297.776 Q1887.08 299.211 1888.03 301.943 Z" fill="#000000" fill-rule="nonzero" fill-opacity="1" /><path clip-path="url(#clip160)" d="M1913.58 312.66 L1913.58 296.966 L1917.84 296.966 L1917.84 312.498 Q1917.84 316.179 1919.27 318.031 Q1920.71 319.859 1923.58 319.859 Q1927.03 319.859 1929.02 317.66 Q1931.03 315.461 1931.03 311.665 L1931.03 296.966 L1935.29 296.966 L1935.29 322.892 L1931.03 322.892 L1931.03 318.91 Q1929.48 321.271 1927.42 322.429 Q1925.39 323.563 1922.68 323.563 Q1918.21 323.563 1915.9 320.785 Q1913.58 318.007 1913.58 312.66 M1924.3 296.341 L1924.3 296.341 Z" fill="#000000" fill-rule="nonzero" fill-opacity="1" /><path clip-path="url(#clip160)" d="M1944.07 286.873 L1948.33 286.873 L1948.33 322.892 L1944.07 322.892 L1944.07 286.873 Z" fill="#000000" fill-rule="nonzero" fill-opacity="1" /><path clip-path="url(#clip160)" d="M1969.02 309.859 Q1963.86 309.859 1961.87 311.04 Q1959.88 312.22 1959.88 315.068 Q1959.88 317.336 1961.36 318.679 Q1962.86 319.998 1965.43 319.998 Q1968.97 319.998 1971.1 317.498 Q1973.26 314.975 1973.26 310.808 L1973.26 309.859 L1969.02 309.859 M1977.52 308.1 L1977.52 322.892 L1973.26 322.892 L1973.26 318.957 Q1971.8 321.318 1969.62 322.452 Q1967.45 323.563 1964.3 323.563 Q1960.32 323.563 1957.96 321.341 Q1955.62 319.095 1955.62 315.345 Q1955.62 310.97 1958.53 308.748 Q1961.47 306.526 1967.28 306.526 L1973.26 306.526 L1973.26 306.109 Q1973.26 303.17 1971.31 301.572 Q1969.39 299.952 1965.89 299.952 Q1963.67 299.952 1961.57 300.484 Q1959.46 301.017 1957.52 302.082 L1957.52 298.146 Q1959.85 297.244 1962.05 296.804 Q1964.25 296.341 1966.33 296.341 Q1971.96 296.341 1974.74 299.258 Q1977.52 302.174 1977.52 308.1 Z" fill="#000000" fill-rule="nonzero" fill-opacity="1" /><path clip-path="url(#clip160)" d="M1990.5 289.605 L1990.5 296.966 L1999.27 296.966 L1999.27 300.276 L1990.5 300.276 L1990.5 314.35 Q1990.5 317.521 1991.36 318.424 Q1992.24 319.327 1994.9 319.327 L1999.27 319.327 L1999.27 322.892 L1994.9 322.892 Q1989.97 322.892 1988.09 321.063 Q1986.22 319.211 1986.22 314.35 L1986.22 300.276 L1983.09 300.276 L1983.09 296.966 L1986.22 296.966 L1986.22 289.605 L1990.5 289.605 Z" fill="#000000" fill-rule="nonzero" fill-opacity="1" /><path clip-path="url(#clip160)" d="M2027.05 308.864 L2027.05 310.947 L2007.47 310.947 Q2007.75 315.345 2010.11 317.66 Q2012.49 319.952 2016.73 319.952 Q2019.18 319.952 2021.47 319.35 Q2023.79 318.748 2026.06 317.545 L2026.06 321.572 Q2023.77 322.544 2021.36 323.054 Q2018.95 323.563 2016.47 323.563 Q2010.27 323.563 2006.64 319.952 Q2003.02 316.341 2003.02 310.183 Q2003.02 303.818 2006.45 300.091 Q2009.9 296.341 2015.73 296.341 Q2020.96 296.341 2024 299.721 Q2027.05 303.077 2027.05 308.864 M2022.79 307.614 Q2022.75 304.119 2020.83 302.035 Q2018.93 299.952 2015.78 299.952 Q2012.21 299.952 2010.06 301.966 Q2007.93 303.98 2007.61 307.637 L2022.79 307.614 Z" fill="#000000" fill-rule="nonzero" fill-opacity="1" /><path clip-path="url(#clip160)" d="M2051.1 300.901 L2051.1 286.873 L2055.36 286.873 L2055.36 322.892 L2051.1 322.892 L2051.1 319.003 Q2049.76 321.318 2047.7 322.452 Q2045.66 323.563 2042.79 323.563 Q2038.09 323.563 2035.13 319.813 Q2032.19 316.063 2032.19 309.952 Q2032.19 303.841 2035.13 300.091 Q2038.09 296.341 2042.79 296.341 Q2045.66 296.341 2047.7 297.475 Q2049.76 298.586 2051.1 300.901 M2036.59 309.952 Q2036.59 314.651 2038.51 317.336 Q2040.45 319.998 2043.83 319.998 Q2047.21 319.998 2049.16 317.336 Q2051.1 314.651 2051.1 309.952 Q2051.1 305.253 2049.16 302.591 Q2047.21 299.906 2043.83 299.906 Q2040.45 299.906 2038.51 302.591 Q2036.59 305.253 2036.59 309.952 Z" fill="#000000" fill-rule="nonzero" fill-opacity="1" /><path clip-path="url(#clip160)" d="M2099.39 301.943 Q2100.99 299.072 2103.21 297.707 Q2105.43 296.341 2108.44 296.341 Q2112.49 296.341 2114.69 299.188 Q2116.89 302.012 2116.89 307.244 L2116.89 322.892 L2112.61 322.892 L2112.61 307.383 Q2112.61 303.656 2111.29 301.85 Q2109.97 300.045 2107.26 300.045 Q2103.95 300.045 2102.03 302.244 Q2100.11 304.443 2100.11 308.239 L2100.11 322.892 L2095.82 322.892 L2095.82 307.383 Q2095.82 303.633 2094.51 301.85 Q2093.19 300.045 2090.43 300.045 Q2087.17 300.045 2085.25 302.267 Q2083.32 304.466 2083.32 308.239 L2083.32 322.892 L2079.04 322.892 L2079.04 296.966 L2083.32 296.966 L2083.32 300.994 Q2084.78 298.609 2086.82 297.475 Q2088.86 296.341 2091.66 296.341 Q2094.48 296.341 2096.45 297.776 Q2098.44 299.211 2099.39 301.943 Z" fill="#000000" fill-rule="nonzero" fill-opacity="1" /><path clip-path="url(#clip160)" d="M2147.56 308.864 L2147.56 310.947 L2127.98 310.947 Q2128.26 315.345 2130.62 317.66 Q2133 319.952 2137.24 319.952 Q2139.69 319.952 2141.98 319.35 Q2144.3 318.748 2146.57 317.545 L2146.57 321.572 Q2144.27 322.544 2141.87 323.054 Q2139.46 323.563 2136.98 323.563 Q2130.78 323.563 2127.14 319.952 Q2123.53 316.341 2123.53 310.183 Q2123.53 303.818 2126.96 300.091 Q2130.41 296.341 2136.24 296.341 Q2141.47 296.341 2144.51 299.721 Q2147.56 303.077 2147.56 308.864 M2143.3 307.614 Q2143.26 304.119 2141.33 302.035 Q2139.44 299.952 2136.29 299.952 Q2132.72 299.952 2130.57 301.966 Q2128.44 303.98 2128.12 307.637 L2143.3 307.614 Z" fill="#000000" fill-rule="nonzero" fill-opacity="1" /><path clip-path="url(#clip160)" d="M2171.61 300.901 L2171.61 286.873 L2175.87 286.873 L2175.87 322.892 L2171.61 322.892 L2171.61 319.003 Q2170.27 321.318 2168.21 322.452 Q2166.17 323.563 2163.3 323.563 Q2158.6 323.563 2155.64 319.813 Q2152.7 316.063 2152.7 309.952 Q2152.7 303.841 2155.64 300.091 Q2158.6 296.341 2163.3 296.341 Q2166.17 296.341 2168.21 297.475 Q2170.27 298.586 2171.61 300.901 M2157.1 309.952 Q2157.1 314.651 2159.02 317.336 Q2160.96 319.998 2164.34 319.998 Q2167.72 319.998 2169.67 317.336 Q2171.61 314.651 2171.61 309.952 Q2171.61 305.253 2169.67 302.591 Q2167.72 299.906 2164.34 299.906 Q2160.96 299.906 2159.02 302.591 Q2157.1 305.253 2157.1 309.952 Z" fill="#000000" fill-rule="nonzero" fill-opacity="1" /><path clip-path="url(#clip160)" d="M2184.64 296.966 L2188.9 296.966 L2188.9 322.892 L2184.64 322.892 L2184.64 296.966 M2184.64 286.873 L2188.9 286.873 L2188.9 292.267 L2184.64 292.267 L2184.64 286.873 Z" fill="#000000" fill-rule="nonzero" fill-opacity="1" /><path clip-path="url(#clip160)" d="M2209.6 309.859 Q2204.44 309.859 2202.44 311.04 Q2200.45 312.22 2200.45 315.068 Q2200.45 317.336 2201.94 318.679 Q2203.44 319.998 2206.01 319.998 Q2209.55 319.998 2211.68 317.498 Q2213.83 314.975 2213.83 310.808 L2213.83 309.859 L2209.6 309.859 M2218.09 308.1 L2218.09 322.892 L2213.83 322.892 L2213.83 318.957 Q2212.38 321.318 2210.2 322.452 Q2208.02 323.563 2204.88 323.563 Q2200.89 323.563 2198.53 321.341 Q2196.19 319.095 2196.19 315.345 Q2196.19 310.97 2199.11 308.748 Q2202.05 306.526 2207.86 306.526 L2213.83 306.526 L2213.83 306.109 Q2213.83 303.17 2211.89 301.572 Q2209.97 299.952 2206.47 299.952 Q2204.25 299.952 2202.14 300.484 Q2200.04 301.017 2198.09 302.082 L2198.09 298.146 Q2200.43 297.244 2202.63 296.804 Q2204.83 296.341 2206.91 296.341 Q2212.54 296.341 2215.31 299.258 Q2218.09 302.174 2218.09 308.1 Z" fill="#000000" fill-rule="nonzero" fill-opacity="1" /><path clip-path="url(#clip160)" d="M2248.42 307.244 L2248.42 322.892 L2244.16 322.892 L2244.16 307.383 Q2244.16 303.702 2242.72 301.873 Q2241.29 300.045 2238.42 300.045 Q2234.97 300.045 2232.98 302.244 Q2230.99 304.443 2230.99 308.239 L2230.99 322.892 L2226.7 322.892 L2226.7 296.966 L2230.99 296.966 L2230.99 300.994 Q2232.51 298.656 2234.57 297.498 Q2236.66 296.341 2239.37 296.341 Q2243.83 296.341 2246.12 299.119 Q2248.42 301.873 2248.42 307.244 Z" fill="#000000" fill-rule="nonzero" fill-opacity="1" /></svg>
