<?xml version="1.0" encoding="utf-8"?>
<svg xmlns="http://www.w3.org/2000/svg" xmlns:xlink="http://www.w3.org/1999/xlink" width="600" height="400" viewBox="0 0 2400 1600">
<defs>
  <clipPath id="clip220">
    <rect x="0" y="0" width="2400" height="1600"/>
  </clipPath>
</defs>
<path clip-path="url(#clip220)" d="M0 1600 L2400 1600 L2400 8.88178e-14 L0 8.88178e-14  Z" fill="#ffffff" fill-rule="evenodd" fill-opacity="1"/>
<defs>
  <clipPath id="clip221">
    <rect x="235" y="106" width="2118" height="1318"/>
  </clipPath>
</defs>
<path clip-path="url(#clip220)" d="M205.121 1423.18 L2352.76 1423.18 L2352.76 106.192 L205.121 106.192  Z" fill="#ffffff" fill-rule="evenodd" fill-opacity="1"/>
<defs>
  <clipPath id="clip222">
    <rect x="205" y="106" width="2149" height="1318"/>
  </clipPath>
</defs>
<polyline clip-path="url(#clip222)" style="stroke:#000000; stroke-linecap:round; stroke-linejoin:round; stroke-width:2; stroke-opacity:0.1; fill:none" points="476.156,1423.18 476.156,106.192 "/>
<polyline clip-path="url(#clip222)" style="stroke:#000000; stroke-linecap:round; stroke-linejoin:round; stroke-width:2; stroke-opacity:0.1; fill:none" points="858.433,1423.18 858.433,106.192 "/>
<polyline clip-path="url(#clip222)" style="stroke:#000000; stroke-linecap:round; stroke-linejoin:round; stroke-width:2; stroke-opacity:0.1; fill:none" points="1240.71,1423.18 1240.71,106.192 "/>
<polyline clip-path="url(#clip222)" style="stroke:#000000; stroke-linecap:round; stroke-linejoin:round; stroke-width:2; stroke-opacity:0.1; fill:none" points="1622.99,1423.18 1622.99,106.192 "/>
<polyline clip-path="url(#clip222)" style="stroke:#000000; stroke-linecap:round; stroke-linejoin:round; stroke-width:2; stroke-opacity:0.1; fill:none" points="2005.27,1423.18 2005.27,106.192 "/>
<polyline clip-path="url(#clip222)" style="stroke:#000000; stroke-linecap:round; stroke-linejoin:round; stroke-width:2; stroke-opacity:0.1; fill:none" points="205.121,1423.18 2352.76,1423.18 "/>
<polyline clip-path="url(#clip222)" style="stroke:#000000; stroke-linecap:round; stroke-linejoin:round; stroke-width:2; stroke-opacity:0.1; fill:none" points="205.121,1220.57 2352.76,1220.57 "/>
<polyline clip-path="url(#clip222)" style="stroke:#000000; stroke-linecap:round; stroke-linejoin:round; stroke-width:2; stroke-opacity:0.1; fill:none" points="205.121,1017.95 2352.76,1017.95 "/>
<polyline clip-path="url(#clip222)" style="stroke:#000000; stroke-linecap:round; stroke-linejoin:round; stroke-width:2; stroke-opacity:0.1; fill:none" points="205.121,815.339 2352.76,815.339 "/>
<polyline clip-path="url(#clip222)" style="stroke:#000000; stroke-linecap:round; stroke-linejoin:round; stroke-width:2; stroke-opacity:0.1; fill:none" points="205.121,612.726 2352.76,612.726 "/>
<polyline clip-path="url(#clip222)" style="stroke:#000000; stroke-linecap:round; stroke-linejoin:round; stroke-width:2; stroke-opacity:0.1; fill:none" points="205.121,410.112 2352.76,410.112 "/>
<polyline clip-path="url(#clip222)" style="stroke:#000000; stroke-linecap:round; stroke-linejoin:round; stroke-width:2; stroke-opacity:0.1; fill:none" points="205.121,207.499 2352.76,207.499 "/>
<polyline clip-path="url(#clip220)" style="stroke:#000000; stroke-linecap:round; stroke-linejoin:round; stroke-width:4; stroke-opacity:1; fill:none" points="205.121,1423.18 2352.76,1423.18 "/>
<polyline clip-path="url(#clip220)" style="stroke:#000000; stroke-linecap:round; stroke-linejoin:round; stroke-width:4; stroke-opacity:1; fill:none" points="476.156,1423.18 476.156,1404.28 "/>
<polyline clip-path="url(#clip220)" style="stroke:#000000; stroke-linecap:round; stroke-linejoin:round; stroke-width:4; stroke-opacity:1; fill:none" points="858.433,1423.18 858.433,1404.28 "/>
<polyline clip-path="url(#clip220)" style="stroke:#000000; stroke-linecap:round; stroke-linejoin:round; stroke-width:4; stroke-opacity:1; fill:none" points="1240.71,1423.18 1240.71,1404.28 "/>
<polyline clip-path="url(#clip220)" style="stroke:#000000; stroke-linecap:round; stroke-linejoin:round; stroke-width:4; stroke-opacity:1; fill:none" points="1622.99,1423.18 1622.99,1404.28 "/>
<polyline clip-path="url(#clip220)" style="stroke:#000000; stroke-linecap:round; stroke-linejoin:round; stroke-width:4; stroke-opacity:1; fill:none" points="2005.27,1423.18 2005.27,1404.28 "/>
<path clip-path="url(#clip220)" d="M439.848 1481.64 L456.167 1481.64 L456.167 1485.58 L434.223 1485.58 L434.223 1481.64 Q436.885 1478.89 441.468 1474.26 Q446.075 1469.61 447.255 1468.27 Q449.501 1465.74 450.38 1464.01 Q451.283 1462.25 451.283 1460.56 Q451.283 1457.8 449.339 1456.07 Q447.417 1454.33 444.316 1454.33 Q442.117 1454.33 439.663 1455.09 Q437.232 1455.86 434.455 1457.41 L434.455 1452.69 Q437.279 1451.55 439.732 1450.97 Q442.186 1450.39 444.223 1450.39 Q449.593 1450.39 452.788 1453.08 Q455.982 1455.77 455.982 1460.26 Q455.982 1462.39 455.172 1464.31 Q454.385 1466.2 452.279 1468.8 Q451.7 1469.47 448.598 1472.69 Q445.496 1475.88 439.848 1481.64 Z" fill="#000000" fill-rule="nonzero" fill-opacity="1" /><path clip-path="url(#clip220)" d="M466.028 1451.02 L484.385 1451.02 L484.385 1454.96 L470.311 1454.96 L470.311 1463.43 Q471.329 1463.08 472.348 1462.92 Q473.366 1462.73 474.385 1462.73 Q480.172 1462.73 483.552 1465.9 Q486.931 1469.08 486.931 1474.49 Q486.931 1480.07 483.459 1483.17 Q479.987 1486.25 473.667 1486.25 Q471.491 1486.25 469.223 1485.88 Q466.978 1485.51 464.57 1484.77 L464.57 1480.07 Q466.653 1481.2 468.876 1481.76 Q471.098 1482.32 473.575 1482.32 Q477.579 1482.32 479.917 1480.21 Q482.255 1478.1 482.255 1474.49 Q482.255 1470.88 479.917 1468.77 Q477.579 1466.67 473.575 1466.67 Q471.7 1466.67 469.825 1467.08 Q467.973 1467.5 466.028 1468.38 L466.028 1451.02 Z" fill="#000000" fill-rule="nonzero" fill-opacity="1" /><path clip-path="url(#clip220)" d="M506.144 1454.1 Q502.533 1454.1 500.704 1457.66 Q498.899 1461.2 498.899 1468.33 Q498.899 1475.44 500.704 1479.01 Q502.533 1482.55 506.144 1482.55 Q509.778 1482.55 511.584 1479.01 Q513.412 1475.44 513.412 1468.33 Q513.412 1461.2 511.584 1457.66 Q509.778 1454.1 506.144 1454.1 M506.144 1450.39 Q511.954 1450.39 515.01 1455 Q518.088 1459.58 518.088 1468.33 Q518.088 1477.06 515.01 1481.67 Q511.954 1486.25 506.144 1486.25 Q500.334 1486.25 497.255 1481.67 Q494.2 1477.06 494.2 1468.33 Q494.2 1459.58 497.255 1455 Q500.334 1450.39 506.144 1450.39 Z" fill="#000000" fill-rule="nonzero" fill-opacity="1" /><path clip-path="url(#clip220)" d="M818.051 1451.02 L836.408 1451.02 L836.408 1454.96 L822.334 1454.96 L822.334 1463.43 Q823.352 1463.08 824.371 1462.92 Q825.389 1462.73 826.408 1462.73 Q832.195 1462.73 835.575 1465.9 Q838.954 1469.08 838.954 1474.49 Q838.954 1480.07 835.482 1483.17 Q832.01 1486.25 825.69 1486.25 Q823.514 1486.25 821.246 1485.88 Q819.001 1485.51 816.593 1484.77 L816.593 1480.07 Q818.676 1481.2 820.899 1481.76 Q823.121 1482.32 825.598 1482.32 Q829.602 1482.32 831.94 1480.21 Q834.278 1478.1 834.278 1474.49 Q834.278 1470.88 831.94 1468.77 Q829.602 1466.67 825.598 1466.67 Q823.723 1466.67 821.848 1467.08 Q819.996 1467.5 818.051 1468.38 L818.051 1451.02 Z" fill="#000000" fill-rule="nonzero" fill-opacity="1" /><path clip-path="url(#clip220)" d="M858.167 1454.1 Q854.556 1454.1 852.727 1457.66 Q850.922 1461.2 850.922 1468.33 Q850.922 1475.44 852.727 1479.01 Q854.556 1482.55 858.167 1482.55 Q861.801 1482.55 863.607 1479.01 Q865.435 1475.44 865.435 1468.33 Q865.435 1461.2 863.607 1457.66 Q861.801 1454.1 858.167 1454.1 M858.167 1450.39 Q863.977 1450.39 867.033 1455 Q870.111 1459.58 870.111 1468.33 Q870.111 1477.06 867.033 1481.67 Q863.977 1486.25 858.167 1486.25 Q852.357 1486.25 849.278 1481.67 Q846.223 1477.06 846.223 1468.33 Q846.223 1459.58 849.278 1455 Q852.357 1450.39 858.167 1450.39 Z" fill="#000000" fill-rule="nonzero" fill-opacity="1" /><path clip-path="url(#clip220)" d="M888.329 1454.1 Q884.718 1454.1 882.889 1457.66 Q881.084 1461.2 881.084 1468.33 Q881.084 1475.44 882.889 1479.01 Q884.718 1482.55 888.329 1482.55 Q891.963 1482.55 893.769 1479.01 Q895.597 1475.44 895.597 1468.33 Q895.597 1461.2 893.769 1457.66 Q891.963 1454.1 888.329 1454.1 M888.329 1450.39 Q894.139 1450.39 897.195 1455 Q900.273 1459.58 900.273 1468.33 Q900.273 1477.06 897.195 1481.67 Q894.139 1486.25 888.329 1486.25 Q882.519 1486.25 879.44 1481.67 Q876.384 1477.06 876.384 1468.33 Q876.384 1459.58 879.44 1455 Q882.519 1450.39 888.329 1450.39 Z" fill="#000000" fill-rule="nonzero" fill-opacity="1" /><path clip-path="url(#clip220)" d="M1198.99 1451.02 L1221.21 1451.02 L1221.21 1453.01 L1208.66 1485.58 L1203.78 1485.58 L1215.58 1454.96 L1198.99 1454.96 L1198.99 1451.02 Z" fill="#000000" fill-rule="nonzero" fill-opacity="1" /><path clip-path="url(#clip220)" d="M1230.38 1451.02 L1248.73 1451.02 L1248.73 1454.96 L1234.66 1454.96 L1234.66 1463.43 Q1235.68 1463.08 1236.69 1462.92 Q1237.71 1462.73 1238.73 1462.73 Q1244.52 1462.73 1247.9 1465.9 Q1251.28 1469.08 1251.28 1474.49 Q1251.28 1480.07 1247.81 1483.17 Q1244.33 1486.25 1238.01 1486.25 Q1235.84 1486.25 1233.57 1485.88 Q1231.32 1485.51 1228.92 1484.77 L1228.92 1480.07 Q1231 1481.2 1233.22 1481.76 Q1235.44 1482.32 1237.92 1482.32 Q1241.93 1482.32 1244.26 1480.21 Q1246.6 1478.1 1246.6 1474.49 Q1246.6 1470.88 1244.26 1468.77 Q1241.93 1466.67 1237.92 1466.67 Q1236.05 1466.67 1234.17 1467.08 Q1232.32 1467.5 1230.38 1468.38 L1230.38 1451.02 Z" fill="#000000" fill-rule="nonzero" fill-opacity="1" /><path clip-path="url(#clip220)" d="M1270.49 1454.1 Q1266.88 1454.1 1265.05 1457.66 Q1263.25 1461.2 1263.25 1468.33 Q1263.25 1475.44 1265.05 1479.01 Q1266.88 1482.55 1270.49 1482.55 Q1274.12 1482.55 1275.93 1479.01 Q1277.76 1475.44 1277.76 1468.33 Q1277.76 1461.2 1275.93 1457.66 Q1274.12 1454.1 1270.49 1454.1 M1270.49 1450.39 Q1276.3 1450.39 1279.36 1455 Q1282.44 1459.58 1282.44 1468.33 Q1282.44 1477.06 1279.36 1481.67 Q1276.3 1486.25 1270.49 1486.25 Q1264.68 1486.25 1261.6 1481.67 Q1258.55 1477.06 1258.55 1468.33 Q1258.55 1459.58 1261.6 1455 Q1264.68 1450.39 1270.49 1450.39 Z" fill="#000000" fill-rule="nonzero" fill-opacity="1" /><path clip-path="url(#clip220)" d="M1567.51 1481.64 L1575.15 1481.64 L1575.15 1455.28 L1566.84 1456.95 L1566.84 1452.69 L1575.11 1451.02 L1579.78 1451.02 L1579.78 1481.64 L1587.42 1481.64 L1587.42 1485.58 L1567.51 1485.58 L1567.51 1481.64 Z" fill="#000000" fill-rule="nonzero" fill-opacity="1" /><path clip-path="url(#clip220)" d="M1606.87 1454.1 Q1603.25 1454.1 1601.43 1457.66 Q1599.62 1461.2 1599.62 1468.33 Q1599.62 1475.44 1601.43 1479.01 Q1603.25 1482.55 1606.87 1482.55 Q1610.5 1482.55 1612.31 1479.01 Q1614.13 1475.44 1614.13 1468.33 Q1614.13 1461.2 1612.31 1457.66 Q1610.5 1454.1 1606.87 1454.1 M1606.87 1450.39 Q1612.68 1450.39 1615.73 1455 Q1618.81 1459.58 1618.81 1468.33 Q1618.81 1477.06 1615.73 1481.67 Q1612.68 1486.25 1606.87 1486.25 Q1601.06 1486.25 1597.98 1481.67 Q1594.92 1477.06 1594.92 1468.33 Q1594.92 1459.58 1597.98 1455 Q1601.06 1450.39 1606.87 1450.39 Z" fill="#000000" fill-rule="nonzero" fill-opacity="1" /><path clip-path="url(#clip220)" d="M1637.03 1454.1 Q1633.42 1454.1 1631.59 1457.66 Q1629.78 1461.2 1629.78 1468.33 Q1629.78 1475.44 1631.59 1479.01 Q1633.42 1482.55 1637.03 1482.55 Q1640.66 1482.55 1642.47 1479.01 Q1644.3 1475.44 1644.3 1468.33 Q1644.3 1461.2 1642.47 1457.66 Q1640.66 1454.1 1637.03 1454.1 M1637.03 1450.39 Q1642.84 1450.39 1645.89 1455 Q1648.97 1459.58 1648.97 1468.33 Q1648.97 1477.06 1645.89 1481.67 Q1642.84 1486.25 1637.03 1486.25 Q1631.22 1486.25 1628.14 1481.67 Q1625.08 1477.06 1625.08 1468.33 Q1625.08 1459.58 1628.14 1455 Q1631.22 1450.39 1637.03 1450.39 Z" fill="#000000" fill-rule="nonzero" fill-opacity="1" /><path clip-path="url(#clip220)" d="M1667.19 1454.1 Q1663.58 1454.1 1661.75 1457.66 Q1659.94 1461.2 1659.94 1468.33 Q1659.94 1475.44 1661.75 1479.01 Q1663.58 1482.55 1667.19 1482.55 Q1670.82 1482.55 1672.63 1479.01 Q1674.46 1475.44 1674.46 1468.33 Q1674.46 1461.2 1672.63 1457.66 Q1670.82 1454.1 1667.19 1454.1 M1667.19 1450.39 Q1673 1450.39 1676.06 1455 Q1679.13 1459.58 1679.13 1468.33 Q1679.13 1477.06 1676.06 1481.67 Q1673 1486.25 1667.19 1486.25 Q1661.38 1486.25 1658.3 1481.67 Q1655.24 1477.06 1655.24 1468.33 Q1655.24 1459.58 1658.3 1455 Q1661.38 1450.39 1667.19 1450.39 Z" fill="#000000" fill-rule="nonzero" fill-opacity="1" /><path clip-path="url(#clip220)" d="M1949.79 1481.64 L1957.43 1481.64 L1957.43 1455.28 L1949.12 1456.95 L1949.12 1452.69 L1957.38 1451.02 L1962.06 1451.02 L1962.06 1481.64 L1969.7 1481.64 L1969.7 1485.58 L1949.79 1485.58 L1949.79 1481.64 Z" fill="#000000" fill-rule="nonzero" fill-opacity="1" /><path clip-path="url(#clip220)" d="M1983.17 1481.64 L1999.49 1481.64 L1999.49 1485.58 L1977.55 1485.58 L1977.55 1481.64 Q1980.21 1478.89 1984.79 1474.26 Q1989.4 1469.61 1990.58 1468.27 Q1992.82 1465.74 1993.7 1464.01 Q1994.61 1462.25 1994.61 1460.56 Q1994.61 1457.8 1992.66 1456.07 Q1990.74 1454.33 1987.64 1454.33 Q1985.44 1454.33 1982.99 1455.09 Q1980.56 1455.86 1977.78 1457.41 L1977.78 1452.69 Q1980.6 1451.55 1983.06 1450.97 Q1985.51 1450.39 1987.55 1450.39 Q1992.92 1450.39 1996.11 1453.08 Q1999.31 1455.77 1999.31 1460.26 Q1999.31 1462.39 1998.49 1464.31 Q1997.71 1466.2 1995.6 1468.8 Q1995.02 1469.47 1991.92 1472.69 Q1988.82 1475.88 1983.17 1481.64 Z" fill="#000000" fill-rule="nonzero" fill-opacity="1" /><path clip-path="url(#clip220)" d="M2009.35 1451.02 L2027.71 1451.02 L2027.71 1454.96 L2013.63 1454.96 L2013.63 1463.43 Q2014.65 1463.08 2015.67 1462.92 Q2016.69 1462.73 2017.71 1462.73 Q2023.49 1462.73 2026.87 1465.9 Q2030.25 1469.08 2030.25 1474.49 Q2030.25 1480.07 2026.78 1483.17 Q2023.31 1486.25 2016.99 1486.25 Q2014.81 1486.25 2012.55 1485.88 Q2010.3 1485.51 2007.89 1484.77 L2007.89 1480.07 Q2009.98 1481.2 2012.2 1481.76 Q2014.42 1482.32 2016.9 1482.32 Q2020.9 1482.32 2023.24 1480.21 Q2025.58 1478.1 2025.58 1474.49 Q2025.58 1470.88 2023.24 1468.77 Q2020.9 1466.67 2016.9 1466.67 Q2015.02 1466.67 2013.15 1467.08 Q2011.3 1467.5 2009.35 1468.38 L2009.35 1451.02 Z" fill="#000000" fill-rule="nonzero" fill-opacity="1" /><path clip-path="url(#clip220)" d="M2049.47 1454.1 Q2045.86 1454.1 2044.03 1457.66 Q2042.22 1461.2 2042.22 1468.33 Q2042.22 1475.44 2044.03 1479.01 Q2045.86 1482.55 2049.47 1482.55 Q2053.1 1482.55 2054.91 1479.01 Q2056.74 1475.44 2056.74 1468.33 Q2056.74 1461.2 2054.91 1457.66 Q2053.1 1454.1 2049.47 1454.1 M2049.47 1450.39 Q2055.28 1450.39 2058.33 1455 Q2061.41 1459.58 2061.41 1468.33 Q2061.41 1477.06 2058.33 1481.67 Q2055.28 1486.25 2049.47 1486.25 Q2043.66 1486.25 2040.58 1481.67 Q2037.52 1477.06 2037.52 1468.33 Q2037.52 1459.58 2040.58 1455 Q2043.66 1450.39 2049.47 1450.39 Z" fill="#000000" fill-rule="nonzero" fill-opacity="1" /><path clip-path="url(#clip220)" d="M1051.36 1520.52 L1091.56 1520.52 L1091.56 1525.93 L1074.69 1525.93 L1074.69 1568.04 L1068.23 1568.04 L1068.23 1525.93 L1051.36 1525.93 L1051.36 1520.52 Z" fill="#000000" fill-rule="nonzero" fill-opacity="1" /><path clip-path="url(#clip220)" d="M1116.93 1548.76 L1116.93 1551.62 L1090 1551.62 Q1090.39 1557.67 1093.63 1560.85 Q1096.91 1564 1102.74 1564 Q1106.11 1564 1109.26 1563.17 Q1112.44 1562.35 1115.56 1560.69 L1115.56 1566.23 Q1112.41 1567.57 1109.1 1568.27 Q1105.79 1568.97 1102.39 1568.97 Q1093.86 1568.97 1088.86 1564 Q1083.89 1559.04 1083.89 1550.57 Q1083.89 1541.82 1088.6 1536.69 Q1093.35 1531.54 1101.37 1531.54 Q1108.56 1531.54 1112.73 1536.18 Q1116.93 1540.8 1116.93 1548.76 M1111.07 1547.04 Q1111.01 1542.23 1108.37 1539.37 Q1105.76 1536.5 1101.43 1536.5 Q1096.53 1536.5 1093.57 1539.27 Q1090.64 1542.04 1090.2 1547.07 L1111.07 1547.04 Z" fill="#000000" fill-rule="nonzero" fill-opacity="1" /><path clip-path="url(#clip220)" d="M1147.2 1537.87 Q1146.21 1537.3 1145.04 1537.04 Q1143.89 1536.76 1142.49 1536.76 Q1137.52 1536.76 1134.85 1540 Q1132.21 1543.22 1132.21 1549.27 L1132.21 1568.04 L1126.32 1568.04 L1126.32 1532.4 L1132.21 1532.4 L1132.21 1537.93 Q1134.05 1534.69 1137.02 1533.13 Q1139.98 1531.54 1144.21 1531.54 Q1144.81 1531.54 1145.55 1531.63 Q1146.28 1531.7 1147.17 1531.85 L1147.2 1537.87 Z" fill="#000000" fill-rule="nonzero" fill-opacity="1" /><path clip-path="url(#clip220)" d="M1179.95 1539.24 Q1182.15 1535.29 1185.2 1533.41 Q1188.26 1531.54 1192.4 1531.54 Q1197.97 1531.54 1200.99 1535.45 Q1204.01 1539.33 1204.01 1546.53 L1204.01 1568.04 L1198.13 1568.04 L1198.13 1546.72 Q1198.13 1541.59 1196.31 1539.11 Q1194.5 1536.63 1190.77 1536.63 Q1186.22 1536.63 1183.58 1539.65 Q1180.94 1542.68 1180.94 1547.9 L1180.94 1568.04 L1175.05 1568.04 L1175.05 1546.72 Q1175.05 1541.56 1173.24 1539.11 Q1171.42 1536.63 1167.63 1536.63 Q1163.15 1536.63 1160.5 1539.68 Q1157.86 1542.71 1157.86 1547.9 L1157.86 1568.04 L1151.97 1568.04 L1151.97 1532.4 L1157.86 1532.4 L1157.86 1537.93 Q1159.87 1534.66 1162.67 1533.1 Q1165.47 1531.54 1169.32 1531.54 Q1173.2 1531.54 1175.91 1533.51 Q1178.65 1535.48 1179.95 1539.24 Z" fill="#000000" fill-rule="nonzero" fill-opacity="1" /><path clip-path="url(#clip220)" d="M1215.7 1532.4 L1221.55 1532.4 L1221.55 1568.04 L1215.7 1568.04 L1215.7 1532.4 M1215.7 1518.52 L1221.55 1518.52 L1221.55 1525.93 L1215.7 1525.93 L1215.7 1518.52 Z" fill="#000000" fill-rule="nonzero" fill-opacity="1" /><path clip-path="url(#clip220)" d="M1263.44 1546.53 L1263.44 1568.04 L1257.58 1568.04 L1257.58 1546.72 Q1257.58 1541.66 1255.61 1539.14 Q1253.63 1536.63 1249.69 1536.63 Q1244.95 1536.63 1242.21 1539.65 Q1239.47 1542.68 1239.47 1547.9 L1239.47 1568.04 L1233.58 1568.04 L1233.58 1532.4 L1239.47 1532.4 L1239.47 1537.93 Q1241.57 1534.72 1244.4 1533.13 Q1247.27 1531.54 1250.99 1531.54 Q1257.14 1531.54 1260.29 1535.36 Q1263.44 1539.14 1263.44 1546.53 Z" fill="#000000" fill-rule="nonzero" fill-opacity="1" /><path clip-path="url(#clip220)" d="M1291.32 1550.12 Q1284.22 1550.12 1281.48 1551.75 Q1278.75 1553.37 1278.75 1557.29 Q1278.75 1560.4 1280.78 1562.25 Q1282.85 1564.07 1286.39 1564.07 Q1291.26 1564.07 1294.18 1560.63 Q1297.14 1557.16 1297.14 1551.43 L1297.14 1550.12 L1291.32 1550.12 M1303 1547.71 L1303 1568.04 L1297.14 1568.04 L1297.14 1562.63 Q1295.14 1565.88 1292.15 1567.44 Q1289.16 1568.97 1284.83 1568.97 Q1279.35 1568.97 1276.11 1565.91 Q1272.89 1562.82 1272.89 1557.67 Q1272.89 1551.65 1276.9 1548.6 Q1280.94 1545.54 1288.93 1545.54 L1297.14 1545.54 L1297.14 1544.97 Q1297.14 1540.93 1294.47 1538.73 Q1291.83 1536.5 1287.02 1536.5 Q1283.97 1536.5 1281.07 1537.23 Q1278.17 1537.97 1275.5 1539.43 L1275.5 1534.02 Q1278.72 1532.78 1281.74 1532.17 Q1284.76 1531.54 1287.63 1531.54 Q1295.36 1531.54 1299.18 1535.55 Q1303 1539.56 1303 1547.71 Z" fill="#000000" fill-rule="nonzero" fill-opacity="1" /><path clip-path="url(#clip220)" d="M1315.06 1518.52 L1320.92 1518.52 L1320.92 1568.04 L1315.06 1568.04 L1315.06 1518.52 Z" fill="#000000" fill-rule="nonzero" fill-opacity="1" /><path clip-path="url(#clip220)" d="M1359.56 1562.7 L1359.56 1581.6 L1353.67 1581.6 L1353.67 1532.4 L1359.56 1532.4 L1359.56 1537.81 Q1361.41 1534.62 1364.21 1533.1 Q1367.04 1531.54 1370.95 1531.54 Q1377.45 1531.54 1381.49 1536.69 Q1385.56 1541.85 1385.56 1550.25 Q1385.56 1558.65 1381.49 1563.81 Q1377.45 1568.97 1370.95 1568.97 Q1367.04 1568.97 1364.21 1567.44 Q1361.41 1565.88 1359.56 1562.7 M1379.48 1550.25 Q1379.48 1543.79 1376.81 1540.13 Q1374.17 1536.44 1369.52 1536.44 Q1364.88 1536.44 1362.2 1540.13 Q1359.56 1543.79 1359.56 1550.25 Q1359.56 1556.71 1362.2 1560.4 Q1364.88 1564.07 1369.52 1564.07 Q1374.17 1564.07 1376.81 1560.4 Q1379.48 1556.71 1379.48 1550.25 Z" fill="#000000" fill-rule="nonzero" fill-opacity="1" /><path clip-path="url(#clip220)" d="M1415.93 1537.87 Q1414.94 1537.3 1413.76 1537.04 Q1412.62 1536.76 1411.22 1536.76 Q1406.25 1536.76 1403.58 1540 Q1400.94 1543.22 1400.94 1549.27 L1400.94 1568.04 L1395.05 1568.04 L1395.05 1532.4 L1400.94 1532.4 L1400.94 1537.93 Q1402.78 1534.69 1405.74 1533.13 Q1408.7 1531.54 1412.94 1531.54 Q1413.54 1531.54 1414.27 1531.63 Q1415.01 1531.7 1415.9 1531.85 L1415.93 1537.87 Z" fill="#000000" fill-rule="nonzero" fill-opacity="1" /><path clip-path="url(#clip220)" d="M1422.07 1532.4 L1427.93 1532.4 L1427.93 1568.04 L1422.07 1568.04 L1422.07 1532.4 M1422.07 1518.52 L1427.93 1518.52 L1427.93 1525.93 L1422.07 1525.93 L1422.07 1518.52 Z" fill="#000000" fill-rule="nonzero" fill-opacity="1" /><path clip-path="url(#clip220)" d="M1465.84 1533.76 L1465.84 1539.24 Q1463.35 1537.87 1460.84 1537.2 Q1458.36 1536.5 1455.81 1536.5 Q1450.11 1536.5 1446.96 1540.13 Q1443.81 1543.73 1443.81 1550.25 Q1443.81 1556.78 1446.96 1560.4 Q1450.11 1564 1455.81 1564 Q1458.36 1564 1460.84 1563.33 Q1463.35 1562.63 1465.84 1561.26 L1465.84 1566.68 Q1463.38 1567.82 1460.74 1568.39 Q1458.13 1568.97 1455.17 1568.97 Q1447.12 1568.97 1442.38 1563.91 Q1437.64 1558.85 1437.64 1550.25 Q1437.64 1541.53 1442.41 1536.53 Q1447.22 1531.54 1455.55 1531.54 Q1458.26 1531.54 1460.84 1532.11 Q1463.42 1532.65 1465.84 1533.76 Z" fill="#000000" fill-rule="nonzero" fill-opacity="1" /><path clip-path="url(#clip220)" d="M1506.51 1548.76 L1506.51 1551.62 L1479.59 1551.62 Q1479.97 1557.67 1483.21 1560.85 Q1486.49 1564 1492.32 1564 Q1495.69 1564 1498.84 1563.17 Q1502.02 1562.35 1505.14 1560.69 L1505.14 1566.23 Q1501.99 1567.57 1498.68 1568.27 Q1495.37 1568.97 1491.97 1568.97 Q1483.44 1568.97 1478.44 1564 Q1473.47 1559.04 1473.47 1550.57 Q1473.47 1541.82 1478.19 1536.69 Q1482.93 1531.54 1490.95 1531.54 Q1498.14 1531.54 1502.31 1536.18 Q1506.51 1540.8 1506.51 1548.76 M1500.66 1547.04 Q1500.59 1542.23 1497.95 1539.37 Q1495.34 1536.5 1491.01 1536.5 Q1486.11 1536.5 1483.15 1539.27 Q1480.22 1542.04 1479.78 1547.07 L1500.66 1547.04 Z" fill="#000000" fill-rule="nonzero" fill-opacity="1" /><polyline clip-path="url(#clip220)" style="stroke:#000000; stroke-linecap:round; stroke-linejoin:round; stroke-width:4; stroke-opacity:1; fill:none" points="205.121,1423.18 205.121,106.192 "/>
<polyline clip-path="url(#clip220)" style="stroke:#000000; stroke-linecap:round; stroke-linejoin:round; stroke-width:4; stroke-opacity:1; fill:none" points="205.121,1423.18 224.019,1423.18 "/>
<polyline clip-path="url(#clip220)" style="stroke:#000000; stroke-linecap:round; stroke-linejoin:round; stroke-width:4; stroke-opacity:1; fill:none" points="205.121,1220.57 224.019,1220.57 "/>
<polyline clip-path="url(#clip220)" style="stroke:#000000; stroke-linecap:round; stroke-linejoin:round; stroke-width:4; stroke-opacity:1; fill:none" points="205.121,1017.95 224.019,1017.95 "/>
<polyline clip-path="url(#clip220)" style="stroke:#000000; stroke-linecap:round; stroke-linejoin:round; stroke-width:4; stroke-opacity:1; fill:none" points="205.121,815.339 224.019,815.339 "/>
<polyline clip-path="url(#clip220)" style="stroke:#000000; stroke-linecap:round; stroke-linejoin:round; stroke-width:4; stroke-opacity:1; fill:none" points="205.121,612.726 224.019,612.726 "/>
<polyline clip-path="url(#clip220)" style="stroke:#000000; stroke-linecap:round; stroke-linejoin:round; stroke-width:4; stroke-opacity:1; fill:none" points="205.121,410.112 224.019,410.112 "/>
<polyline clip-path="url(#clip220)" style="stroke:#000000; stroke-linecap:round; stroke-linejoin:round; stroke-width:4; stroke-opacity:1; fill:none" points="205.121,207.499 224.019,207.499 "/>
<path clip-path="url(#clip220)" d="M157.177 1408.98 Q153.566 1408.98 151.737 1412.54 Q149.931 1416.08 149.931 1423.21 Q149.931 1430.32 151.737 1433.89 Q153.566 1437.43 157.177 1437.43 Q160.811 1437.43 162.616 1433.89 Q164.445 1430.32 164.445 1423.21 Q164.445 1416.08 162.616 1412.54 Q160.811 1408.98 157.177 1408.98 M157.177 1405.27 Q162.987 1405.27 166.042 1409.88 Q169.121 1414.46 169.121 1423.21 Q169.121 1431.94 166.042 1436.55 Q162.987 1441.13 157.177 1441.13 Q151.366 1441.13 148.288 1436.55 Q145.232 1431.94 145.232 1423.21 Q145.232 1414.46 148.288 1409.88 Q151.366 1405.27 157.177 1405.27 Z" fill="#000000" fill-rule="nonzero" fill-opacity="1" /><path clip-path="url(#clip220)" d="M117.825 1233.91 L125.464 1233.91 L125.464 1207.55 L117.154 1209.21 L117.154 1204.95 L125.418 1203.29 L130.093 1203.29 L130.093 1233.91 L137.732 1233.91 L137.732 1237.85 L117.825 1237.85 L117.825 1233.91 Z" fill="#000000" fill-rule="nonzero" fill-opacity="1" /><path clip-path="url(#clip220)" d="M157.177 1206.37 Q153.566 1206.37 151.737 1209.93 Q149.931 1213.47 149.931 1220.6 Q149.931 1227.71 151.737 1231.27 Q153.566 1234.81 157.177 1234.81 Q160.811 1234.81 162.616 1231.27 Q164.445 1227.71 164.445 1220.6 Q164.445 1213.47 162.616 1209.93 Q160.811 1206.37 157.177 1206.37 M157.177 1202.66 Q162.987 1202.66 166.042 1207.27 Q169.121 1211.85 169.121 1220.6 Q169.121 1229.33 166.042 1233.93 Q162.987 1238.52 157.177 1238.52 Q151.366 1238.52 148.288 1233.93 Q145.232 1229.33 145.232 1220.6 Q145.232 1211.85 148.288 1207.27 Q151.366 1202.66 157.177 1202.66 Z" fill="#000000" fill-rule="nonzero" fill-opacity="1" /><path clip-path="url(#clip220)" d="M121.043 1031.3 L137.362 1031.3 L137.362 1035.23 L115.418 1035.23 L115.418 1031.3 Q118.08 1028.54 122.663 1023.91 Q127.269 1019.26 128.45 1017.92 Q130.695 1015.39 131.575 1013.66 Q132.478 1011.9 132.478 1010.21 Q132.478 1007.46 130.533 1005.72 Q128.612 1003.98 125.51 1003.98 Q123.311 1003.98 120.857 1004.75 Q118.427 1005.51 115.649 1007.06 L115.649 1002.34 Q118.473 1001.21 120.927 1000.63 Q123.38 1000.05 125.418 1000.05 Q130.788 1000.05 133.982 1002.73 Q137.177 1005.42 137.177 1009.91 Q137.177 1012.04 136.367 1013.96 Q135.579 1015.86 133.473 1018.45 Q132.894 1019.12 129.792 1022.34 Q126.691 1025.53 121.043 1031.3 Z" fill="#000000" fill-rule="nonzero" fill-opacity="1" /><path clip-path="url(#clip220)" d="M157.177 1003.75 Q153.566 1003.75 151.737 1007.32 Q149.931 1010.86 149.931 1017.99 Q149.931 1025.09 151.737 1028.66 Q153.566 1032.2 157.177 1032.2 Q160.811 1032.2 162.616 1028.66 Q164.445 1025.09 164.445 1017.99 Q164.445 1010.86 162.616 1007.32 Q160.811 1003.75 157.177 1003.75 M157.177 1000.05 Q162.987 1000.05 166.042 1004.65 Q169.121 1009.24 169.121 1017.99 Q169.121 1026.71 166.042 1031.32 Q162.987 1035.9 157.177 1035.9 Q151.366 1035.9 148.288 1031.32 Q145.232 1026.71 145.232 1017.99 Q145.232 1009.24 148.288 1004.65 Q151.366 1000.05 157.177 1000.05 Z" fill="#000000" fill-rule="nonzero" fill-opacity="1" /><path clip-path="url(#clip220)" d="M131.181 813.985 Q134.538 814.703 136.413 816.971 Q138.311 819.24 138.311 822.573 Q138.311 827.689 134.792 830.49 Q131.274 833.291 124.793 833.291 Q122.617 833.291 120.302 832.851 Q118.01 832.434 115.556 831.578 L115.556 827.064 Q117.501 828.198 119.816 828.777 Q122.13 829.355 124.654 829.355 Q129.052 829.355 131.343 827.619 Q133.658 825.883 133.658 822.573 Q133.658 819.518 131.505 817.805 Q129.376 816.069 125.556 816.069 L121.529 816.069 L121.529 812.226 L125.742 812.226 Q129.191 812.226 131.019 810.86 Q132.848 809.471 132.848 806.879 Q132.848 804.217 130.95 802.805 Q129.075 801.37 125.556 801.37 Q123.635 801.37 121.436 801.786 Q119.237 802.203 116.598 803.082 L116.598 798.916 Q119.26 798.175 121.575 797.805 Q123.913 797.434 125.973 797.434 Q131.297 797.434 134.399 799.865 Q137.501 802.272 137.501 806.393 Q137.501 809.263 135.857 811.254 Q134.214 813.221 131.181 813.985 Z" fill="#000000" fill-rule="nonzero" fill-opacity="1" /><path clip-path="url(#clip220)" d="M157.177 801.138 Q153.566 801.138 151.737 804.703 Q149.931 808.244 149.931 815.374 Q149.931 822.481 151.737 826.045 Q153.566 829.587 157.177 829.587 Q160.811 829.587 162.616 826.045 Q164.445 822.481 164.445 815.374 Q164.445 808.244 162.616 804.703 Q160.811 801.138 157.177 801.138 M157.177 797.434 Q162.987 797.434 166.042 802.041 Q169.121 806.624 169.121 815.374 Q169.121 824.101 166.042 828.707 Q162.987 833.291 157.177 833.291 Q151.366 833.291 148.288 828.707 Q145.232 824.101 145.232 815.374 Q145.232 806.624 148.288 802.041 Q151.366 797.434 157.177 797.434 Z" fill="#000000" fill-rule="nonzero" fill-opacity="1" /><path clip-path="url(#clip220)" d="M129.862 599.52 L118.056 617.969 L129.862 617.969 L129.862 599.52 M128.635 595.446 L134.515 595.446 L134.515 617.969 L139.445 617.969 L139.445 621.858 L134.515 621.858 L134.515 630.006 L129.862 630.006 L129.862 621.858 L114.26 621.858 L114.26 617.344 L128.635 595.446 Z" fill="#000000" fill-rule="nonzero" fill-opacity="1" /><path clip-path="url(#clip220)" d="M157.177 598.525 Q153.566 598.525 151.737 602.089 Q149.931 605.631 149.931 612.761 Q149.931 619.867 151.737 623.432 Q153.566 626.973 157.177 626.973 Q160.811 626.973 162.616 623.432 Q164.445 619.867 164.445 612.761 Q164.445 605.631 162.616 602.089 Q160.811 598.525 157.177 598.525 M157.177 594.821 Q162.987 594.821 166.042 599.427 Q169.121 604.011 169.121 612.761 Q169.121 621.487 166.042 626.094 Q162.987 630.677 157.177 630.677 Q151.366 630.677 148.288 626.094 Q145.232 621.487 145.232 612.761 Q145.232 604.011 148.288 599.427 Q151.366 594.821 157.177 594.821 Z" fill="#000000" fill-rule="nonzero" fill-opacity="1" /><path clip-path="url(#clip220)" d="M117.061 392.832 L135.417 392.832 L135.417 396.768 L121.343 396.768 L121.343 405.24 Q122.362 404.892 123.38 404.73 Q124.399 404.545 125.418 404.545 Q131.205 404.545 134.584 407.717 Q137.964 410.888 137.964 416.304 Q137.964 421.883 134.492 424.985 Q131.019 428.064 124.7 428.064 Q122.524 428.064 120.255 427.693 Q118.01 427.323 115.603 426.582 L115.603 421.883 Q117.686 423.017 119.908 423.573 Q122.13 424.128 124.607 424.128 Q128.612 424.128 130.95 422.022 Q133.288 419.916 133.288 416.304 Q133.288 412.693 130.95 410.587 Q128.612 408.48 124.607 408.48 Q122.732 408.48 120.857 408.897 Q119.006 409.314 117.061 410.193 L117.061 392.832 Z" fill="#000000" fill-rule="nonzero" fill-opacity="1" /><path clip-path="url(#clip220)" d="M157.177 395.911 Q153.566 395.911 151.737 399.476 Q149.931 403.017 149.931 410.147 Q149.931 417.254 151.737 420.818 Q153.566 424.36 157.177 424.36 Q160.811 424.36 162.616 420.818 Q164.445 417.254 164.445 410.147 Q164.445 403.017 162.616 399.476 Q160.811 395.911 157.177 395.911 M157.177 392.207 Q162.987 392.207 166.042 396.814 Q169.121 401.397 169.121 410.147 Q169.121 418.874 166.042 423.48 Q162.987 428.064 157.177 428.064 Q151.366 428.064 148.288 423.48 Q145.232 418.874 145.232 410.147 Q145.232 401.397 148.288 396.814 Q151.366 392.207 157.177 392.207 Z" fill="#000000" fill-rule="nonzero" fill-opacity="1" /><path clip-path="url(#clip220)" d="M127.593 205.635 Q124.445 205.635 122.593 207.788 Q120.765 209.941 120.765 213.691 Q120.765 217.418 122.593 219.594 Q124.445 221.746 127.593 221.746 Q130.742 221.746 132.57 219.594 Q134.422 217.418 134.422 213.691 Q134.422 209.941 132.57 207.788 Q130.742 205.635 127.593 205.635 M136.876 190.983 L136.876 195.242 Q135.117 194.409 133.311 193.969 Q131.529 193.529 129.769 193.529 Q125.14 193.529 122.686 196.654 Q120.255 199.779 119.908 206.098 Q121.274 204.085 123.334 203.02 Q125.394 201.932 127.871 201.932 Q133.08 201.932 136.089 205.103 Q139.121 208.251 139.121 213.691 Q139.121 219.015 135.973 222.233 Q132.825 225.45 127.593 225.45 Q121.598 225.45 118.427 220.867 Q115.256 216.26 115.256 207.534 Q115.256 199.339 119.144 194.478 Q123.033 189.594 129.584 189.594 Q131.343 189.594 133.126 189.941 Q134.931 190.288 136.876 190.983 Z" fill="#000000" fill-rule="nonzero" fill-opacity="1" /><path clip-path="url(#clip220)" d="M157.177 193.298 Q153.566 193.298 151.737 196.862 Q149.931 200.404 149.931 207.534 Q149.931 214.64 151.737 218.205 Q153.566 221.746 157.177 221.746 Q160.811 221.746 162.616 218.205 Q164.445 214.64 164.445 207.534 Q164.445 200.404 162.616 196.862 Q160.811 193.298 157.177 193.298 M157.177 189.594 Q162.987 189.594 166.042 194.2 Q169.121 198.784 169.121 207.534 Q169.121 216.26 166.042 220.867 Q162.987 225.45 157.177 225.45 Q151.366 225.45 148.288 220.867 Q145.232 216.26 145.232 207.534 Q145.232 198.784 148.288 194.2 Q151.366 189.594 157.177 189.594 Z" fill="#000000" fill-rule="nonzero" fill-opacity="1" /><path clip-path="url(#clip220)" d="M20.1444 820.545 L26.9239 820.545 Q23.9002 823.792 22.4043 827.484 Q20.9083 831.144 20.9083 835.282 Q20.9083 843.43 25.9054 847.758 Q30.8707 852.087 40.2919 852.087 Q49.6813 852.087 54.6784 847.758 Q59.6436 843.43 59.6436 835.282 Q59.6436 831.144 58.1477 827.484 Q56.6518 823.792 53.6281 820.545 L60.3439 820.545 Q62.6355 823.919 63.7814 827.706 Q64.9272 831.462 64.9272 835.664 Q64.9272 846.453 58.3387 852.66 Q51.7183 858.867 40.2919 858.867 Q28.8336 858.867 22.2451 852.66 Q15.6248 846.453 15.6248 835.664 Q15.6248 831.399 16.7706 827.643 Q17.8846 823.855 20.1444 820.545 Z" fill="#000000" fill-rule="nonzero" fill-opacity="1" /><path clip-path="url(#clip220)" d="M32.4621 797.056 Q32.4621 801.766 36.1542 804.503 Q39.8145 807.241 46.212 807.241 Q52.6095 807.241 56.3017 804.535 Q59.9619 801.798 59.9619 797.056 Q59.9619 792.377 56.2698 789.64 Q52.5777 786.902 46.212 786.902 Q39.8781 786.902 36.186 789.64 Q32.4621 792.377 32.4621 797.056 M27.4968 797.056 Q27.4968 789.417 32.4621 785.056 Q37.4273 780.696 46.212 780.696 Q54.9649 780.696 59.9619 785.056 Q64.9272 789.417 64.9272 797.056 Q64.9272 804.726 59.9619 809.087 Q54.9649 813.415 46.212 813.415 Q37.4273 813.415 32.4621 809.087 Q27.4968 804.726 27.4968 797.056 Z" fill="#000000" fill-rule="nonzero" fill-opacity="1" /><path clip-path="url(#clip220)" d="M49.9359 771.593 L28.3562 771.593 L28.3562 765.736 L49.7131 765.736 Q54.7739 765.736 57.3202 763.763 Q59.8346 761.79 59.8346 757.843 Q59.8346 753.1 56.8109 750.363 Q53.7872 747.594 48.5673 747.594 L28.3562 747.594 L28.3562 741.738 L64.0042 741.738 L64.0042 747.594 L58.5296 747.594 Q61.7762 749.727 63.3676 752.559 Q64.9272 755.36 64.9272 759.084 Q64.9272 765.227 61.1078 768.41 Q57.2883 771.593 49.9359 771.593 M27.4968 756.856 L27.4968 756.856 Z" fill="#000000" fill-rule="nonzero" fill-opacity="1" /><path clip-path="url(#clip220)" d="M42.4881 700.042 L64.0042 700.042 L64.0042 705.899 L42.679 705.899 Q37.6183 705.899 35.1038 707.872 Q32.5894 709.845 32.5894 713.792 Q32.5894 718.535 35.6131 721.272 Q38.6368 724.009 43.8567 724.009 L64.0042 724.009 L64.0042 729.897 L28.3562 729.897 L28.3562 724.009 L33.8944 724.009 Q30.6797 721.908 29.0883 719.076 Q27.4968 716.211 27.4968 712.487 Q27.4968 706.344 31.3163 703.193 Q35.1038 700.042 42.4881 700.042 Z" fill="#000000" fill-rule="nonzero" fill-opacity="1" /><path clip-path="url(#clip220)" d="M18.2347 682.568 L28.3562 682.568 L28.3562 670.505 L32.9077 670.505 L32.9077 682.568 L52.2594 682.568 Q56.6199 682.568 57.8613 681.391 Q59.1026 680.181 59.1026 676.521 L59.1026 670.505 L64.0042 670.505 L64.0042 676.521 Q64.0042 683.3 61.4897 685.879 Q58.9434 688.457 52.2594 688.457 L32.9077 688.457 L32.9077 692.753 L28.3562 692.753 L28.3562 688.457 L18.2347 688.457 L18.2347 682.568 Z" fill="#000000" fill-rule="nonzero" fill-opacity="1" /><path clip-path="url(#clip220)" d="M727.683 12.6041 Q721.317 12.6041 717.555 17.3494 Q713.823 22.0948 713.823 30.2834 Q713.823 38.4431 717.555 43.1884 Q721.317 47.9338 727.683 47.9338 Q734.048 47.9338 737.752 43.1884 Q741.485 38.4431 741.485 30.2834 Q741.485 22.0948 737.752 17.3494 Q734.048 12.6041 727.683 12.6041 M735.871 51.0588 L743.568 59.4788 L736.508 59.4788 L730.113 52.5634 Q729.158 52.6212 728.638 52.6502 Q728.146 52.6791 727.683 52.6791 Q718.568 52.6791 713.099 46.6028 Q707.66 40.4975 707.66 30.2834 Q707.66 20.0404 713.099 13.964 Q718.568 7.85875 727.683 7.85875 Q736.768 7.85875 742.208 13.964 Q747.648 20.0404 747.648 30.2834 Q747.648 37.8065 744.61 43.1595 Q741.6 48.5125 735.871 51.0588 Z" fill="#000000" fill-rule="nonzero" fill-opacity="1" /><path clip-path="url(#clip220)" d="M774.326 12.6041 Q767.96 12.6041 764.199 17.3494 Q760.466 22.0948 760.466 30.2834 Q760.466 38.4431 764.199 43.1884 Q767.96 47.9338 774.326 47.9338 Q780.692 47.9338 784.395 43.1884 Q788.128 38.4431 788.128 30.2834 Q788.128 22.0948 784.395 17.3494 Q780.692 12.6041 774.326 12.6041 M782.515 51.0588 L790.211 59.4788 L783.151 59.4788 L776.757 52.5634 Q775.802 52.6212 775.281 52.6502 Q774.789 52.6791 774.326 52.6791 Q765.211 52.6791 759.743 46.6028 Q754.303 40.4975 754.303 30.2834 Q754.303 20.0404 759.743 13.964 Q765.211 7.85875 774.326 7.85875 Q783.412 7.85875 788.851 13.964 Q794.291 20.0404 794.291 30.2834 Q794.291 37.8065 791.253 43.1595 Q788.244 48.5125 782.515 51.0588 Z" fill="#000000" fill-rule="nonzero" fill-opacity="1" /><path clip-path="url(#clip220)" d="M820.969 12.6041 Q814.604 12.6041 810.842 17.3494 Q807.109 22.0948 807.109 30.2834 Q807.109 38.4431 810.842 43.1884 Q814.604 47.9338 820.969 47.9338 Q827.335 47.9338 831.039 43.1884 Q834.771 38.4431 834.771 30.2834 Q834.771 22.0948 831.039 17.3494 Q827.335 12.6041 820.969 12.6041 M829.158 51.0588 L836.855 59.4788 L829.794 59.4788 L823.4 52.5634 Q822.445 52.6212 821.924 52.6502 Q821.432 52.6791 820.969 52.6791 Q811.855 52.6791 806.386 46.6028 Q800.946 40.4975 800.946 30.2834 Q800.946 20.0404 806.386 13.964 Q811.855 7.85875 820.969 7.85875 Q830.055 7.85875 835.495 13.964 Q840.934 20.0404 840.934 30.2834 Q840.934 37.8065 837.896 43.1595 Q834.887 48.5125 829.158 51.0588 Z" fill="#000000" fill-rule="nonzero" fill-opacity="1" /><path clip-path="url(#clip220)" d="M865.992 33.2348 L881.588 33.2348 L881.588 37.9801 L865.992 37.9801 L865.992 33.2348 Z" fill="#000000" fill-rule="nonzero" fill-opacity="1" /><path clip-path="url(#clip220)" d="M941.484 11.9675 L941.484 18.1307 Q938.532 15.3819 935.176 14.0219 Q931.848 12.662 928.087 12.662 Q920.679 12.662 916.744 17.2048 Q912.809 21.7186 912.809 30.2834 Q912.809 38.8192 916.744 43.362 Q920.679 47.8759 928.087 47.8759 Q931.848 47.8759 935.176 46.516 Q938.532 45.156 941.484 42.4072 L941.484 48.5125 Q938.417 50.5958 934.973 51.6375 Q931.559 52.6791 927.74 52.6791 Q917.931 52.6791 912.288 46.6896 Q906.646 40.6711 906.646 30.2834 Q906.646 19.8668 912.288 13.8772 Q917.931 7.85875 927.74 7.85875 Q931.617 7.85875 935.031 8.90042 Q938.474 9.91314 941.484 11.9675 Z" fill="#000000" fill-rule="nonzero" fill-opacity="1" /><path clip-path="url(#clip220)" d="M950.511 8.64 L956.356 8.64 L956.356 26.3482 L977.595 26.3482 L977.595 8.64 L983.439 8.64 L983.439 51.84 L977.595 51.84 L977.595 31.2672 L956.356 31.2672 L956.356 51.84 L950.511 51.84 L950.511 8.64 Z" fill="#000000" fill-rule="nonzero" fill-opacity="1" /><path clip-path="url(#clip220)" d="M995.071 8.64 L1003.78 8.64 L1014.81 38.038 L1025.89 8.64 L1034.6 8.64 L1034.6 51.84 L1028.9 51.84 L1028.9 13.9062 L1017.76 43.5356 L1011.88 43.5356 L1000.74 13.9062 L1000.74 51.84 L995.071 51.84 L995.071 8.64 Z" fill="#000000" fill-rule="nonzero" fill-opacity="1" /><path clip-path="url(#clip220)" d="M1046.2 8.64 L1054.91 8.64 L1065.93 38.038 L1077.02 8.64 L1085.72 8.64 L1085.72 51.84 L1080.02 51.84 L1080.02 13.9062 L1068.88 43.5356 L1063.01 43.5356 L1051.87 13.9062 L1051.87 51.84 L1046.2 51.84 L1046.2 8.64 Z" fill="#000000" fill-rule="nonzero" fill-opacity="1" /><path clip-path="url(#clip220)" d="M1094.41 33.2348 L1110 33.2348 L1110 37.9801 L1094.41 37.9801 L1094.41 33.2348 Z" fill="#000000" fill-rule="nonzero" fill-opacity="1" /><path clip-path="url(#clip220)" d="M1118.71 8.64 L1126.58 8.64 L1145.74 44.7799 L1145.74 8.64 L1151.41 8.64 L1151.41 51.84 L1143.54 51.84 L1124.38 15.7001 L1124.38 51.84 L1118.71 51.84 L1118.71 8.64 Z" fill="#000000" fill-rule="nonzero" fill-opacity="1" /><path clip-path="url(#clip220)" d="M1186.91 10.2314 L1186.91 19.4328 L1197.88 19.4328 L1197.88 23.5705 L1186.91 23.5705 L1186.91 41.163 Q1186.91 45.1271 1187.98 46.2555 Q1189.08 47.384 1192.41 47.384 L1197.88 47.384 L1197.88 51.84 L1192.41 51.84 Q1186.25 51.84 1183.9 49.5541 Q1181.56 47.2393 1181.56 41.163 L1181.56 23.5705 L1177.65 23.5705 L1177.65 19.4328 L1181.56 19.4328 L1181.56 10.2314 L1186.91 10.2314 Z" fill="#000000" fill-rule="nonzero" fill-opacity="1" /><path clip-path="url(#clip220)" d="M1232.6 34.3054 L1232.6 36.9095 L1208.12 36.9095 Q1208.47 42.4072 1211.42 45.3007 Q1214.4 48.1653 1219.69 48.1653 Q1222.76 48.1653 1225.63 47.4129 Q1228.52 46.6606 1231.35 45.156 L1231.35 50.1907 Q1228.49 51.406 1225.48 52.0425 Q1222.47 52.6791 1219.38 52.6791 Q1211.62 52.6791 1207.08 48.1653 Q1202.56 43.6514 1202.56 35.9547 Q1202.56 27.9975 1206.85 23.339 Q1211.16 18.6515 1218.45 18.6515 Q1224.99 18.6515 1228.78 22.876 Q1232.6 27.0716 1232.6 34.3054 M1227.27 32.7429 Q1227.22 28.3737 1224.82 25.7695 Q1222.44 23.1654 1218.51 23.1654 Q1214.05 23.1654 1211.36 25.6827 Q1208.7 28.2001 1208.29 32.7718 L1227.27 32.7429 Z" fill="#000000" fill-rule="nonzero" fill-opacity="1" /><path clip-path="url(#clip220)" d="M1260.12 24.4096 Q1259.22 23.8888 1258.15 23.6573 Q1257.11 23.3969 1255.83 23.3969 Q1251.32 23.3969 1248.89 26.3482 Q1246.49 29.2707 1246.49 34.7683 L1246.49 51.84 L1241.13 51.84 L1241.13 19.4328 L1246.49 19.4328 L1246.49 24.4675 Q1248.17 21.5161 1250.86 20.0983 Q1253.55 18.6515 1257.4 18.6515 Q1257.95 18.6515 1258.61 18.7383 Q1259.28 18.7962 1260.09 18.9409 L1260.12 24.4096 Z" fill="#000000" fill-rule="nonzero" fill-opacity="1" /><path clip-path="url(#clip220)" d="M1289.89 25.6538 Q1291.89 22.0659 1294.66 20.3587 Q1297.44 18.6515 1301.2 18.6515 Q1306.27 18.6515 1309.02 22.2105 Q1311.77 25.7406 1311.77 32.2799 L1311.77 51.84 L1306.41 51.84 L1306.41 32.4535 Q1306.41 27.795 1304.76 25.5381 Q1303.11 23.2811 1299.73 23.2811 Q1295.59 23.2811 1293.19 26.03 Q1290.79 28.7788 1290.79 33.5241 L1290.79 51.84 L1285.43 51.84 L1285.43 32.4535 Q1285.43 27.7661 1283.79 25.5381 Q1282.14 23.2811 1278.69 23.2811 Q1274.61 23.2811 1272.21 26.0589 Q1269.81 28.8077 1269.81 33.5241 L1269.81 51.84 L1264.46 51.84 L1264.46 19.4328 L1269.81 19.4328 L1269.81 24.4675 Q1271.63 21.4872 1274.18 20.0693 Q1276.72 18.6515 1280.23 18.6515 Q1283.76 18.6515 1286.22 20.4455 Q1288.7 22.2395 1289.89 25.6538 Z" fill="#000000" fill-rule="nonzero" fill-opacity="1" /><path clip-path="url(#clip220)" d="M1322.38 19.4328 L1327.71 19.4328 L1327.71 51.84 L1322.38 51.84 L1322.38 19.4328 M1322.38 6.81709 L1327.71 6.81709 L1327.71 13.559 L1322.38 13.559 L1322.38 6.81709 Z" fill="#000000" fill-rule="nonzero" fill-opacity="1" /><path clip-path="url(#clip220)" d="M1365.79 32.2799 L1365.79 51.84 L1360.46 51.84 L1360.46 32.4535 Q1360.46 27.8529 1358.67 25.567 Q1356.87 23.2811 1353.29 23.2811 Q1348.98 23.2811 1346.49 26.03 Q1344 28.7788 1344 33.5241 L1344 51.84 L1338.65 51.84 L1338.65 19.4328 L1344 19.4328 L1344 24.4675 Q1345.91 21.545 1348.48 20.0983 Q1351.09 18.6515 1354.47 18.6515 Q1360.06 18.6515 1362.92 22.1237 Q1365.79 25.567 1365.79 32.2799 Z" fill="#000000" fill-rule="nonzero" fill-opacity="1" /><path clip-path="url(#clip220)" d="M1391.13 35.5496 Q1384.68 35.5496 1382.19 37.0253 Q1379.7 38.501 1379.7 42.06 Q1379.7 44.8956 1381.56 46.5738 Q1383.44 48.2231 1386.65 48.2231 Q1391.08 48.2231 1393.74 45.0981 Q1396.43 41.9442 1396.43 36.7359 L1396.43 35.5496 L1391.13 35.5496 M1401.75 33.3505 L1401.75 51.84 L1396.43 51.84 L1396.43 46.921 Q1394.61 49.8724 1391.89 51.2902 Q1389.17 52.6791 1385.23 52.6791 Q1380.25 52.6791 1377.3 49.9014 Q1374.38 47.0947 1374.38 42.4072 Q1374.38 36.9385 1378.03 34.1607 Q1381.7 31.3829 1388.96 31.3829 L1396.43 31.3829 L1396.43 30.8621 Q1396.43 27.1874 1394 25.1908 Q1391.6 23.1654 1387.23 23.1654 Q1384.45 23.1654 1381.82 23.8309 Q1379.18 24.4964 1376.75 25.8274 L1376.75 20.9085 Q1379.68 19.78 1382.42 19.2302 Q1385.17 18.6515 1387.78 18.6515 Q1394.81 18.6515 1398.28 22.2973 Q1401.75 25.9431 1401.75 33.3505 Z" fill="#000000" fill-rule="nonzero" fill-opacity="1" /><path clip-path="url(#clip220)" d="M1412.72 6.81709 L1418.04 6.81709 L1418.04 51.84 L1412.72 51.84 L1412.72 6.81709 Z" fill="#000000" fill-rule="nonzero" fill-opacity="1" /><path clip-path="url(#clip220)" d="M1453.17 46.9789 L1453.17 64.1663 L1447.82 64.1663 L1447.82 19.4328 L1453.17 19.4328 L1453.17 24.3517 Q1454.85 21.4582 1457.4 20.0693 Q1459.97 18.6515 1463.53 18.6515 Q1469.43 18.6515 1473.11 23.339 Q1476.81 28.0265 1476.81 35.6653 Q1476.81 43.3042 1473.11 47.9916 Q1469.43 52.6791 1463.53 52.6791 Q1459.97 52.6791 1457.4 51.2902 Q1454.85 49.8724 1453.17 46.9789 M1471.28 35.6653 Q1471.28 29.7915 1468.85 26.464 Q1466.45 23.1075 1462.23 23.1075 Q1458 23.1075 1455.57 26.464 Q1453.17 29.7915 1453.17 35.6653 Q1453.17 41.5391 1455.57 44.8956 Q1458 48.2231 1462.23 48.2231 Q1466.45 48.2231 1468.85 44.8956 Q1471.28 41.5391 1471.28 35.6653 Z" fill="#000000" fill-rule="nonzero" fill-opacity="1" /><path clip-path="url(#clip220)" d="M1504.41 24.4096 Q1503.52 23.8888 1502.45 23.6573 Q1501.41 23.3969 1500.13 23.3969 Q1495.62 23.3969 1493.19 26.3482 Q1490.79 29.2707 1490.79 34.7683 L1490.79 51.84 L1485.43 51.84 L1485.43 19.4328 L1490.79 19.4328 L1490.79 24.4675 Q1492.46 21.5161 1495.16 20.0983 Q1497.85 18.6515 1501.69 18.6515 Q1502.24 18.6515 1502.91 18.7383 Q1503.58 18.7962 1504.39 18.9409 L1504.41 24.4096 Z" fill="#000000" fill-rule="nonzero" fill-opacity="1" /><path clip-path="url(#clip220)" d="M1510 19.4328 L1515.32 19.4328 L1515.32 51.84 L1510 51.84 L1510 19.4328 M1510 6.81709 L1515.32 6.81709 L1515.32 13.559 L1510 13.559 L1510 6.81709 Z" fill="#000000" fill-rule="nonzero" fill-opacity="1" /><path clip-path="url(#clip220)" d="M1549.78 20.677 L1549.78 25.6538 Q1547.53 24.4096 1545.24 23.802 Q1542.99 23.1654 1540.67 23.1654 Q1535.49 23.1654 1532.63 26.464 Q1529.76 29.7336 1529.76 35.6653 Q1529.76 41.597 1532.63 44.8956 Q1535.49 48.1653 1540.67 48.1653 Q1542.99 48.1653 1545.24 47.5576 Q1547.53 46.921 1549.78 45.6768 L1549.78 50.5958 Q1547.56 51.6375 1545.16 52.1583 Q1542.78 52.6791 1540.09 52.6791 Q1532.77 52.6791 1528.46 48.0784 Q1524.15 43.4778 1524.15 35.6653 Q1524.15 27.7371 1528.49 23.1943 Q1532.86 18.6515 1540.44 18.6515 Q1542.9 18.6515 1545.24 19.1724 Q1547.59 19.6642 1549.78 20.677 Z" fill="#000000" fill-rule="nonzero" fill-opacity="1" /><path clip-path="url(#clip220)" d="M1586.76 34.3054 L1586.76 36.9095 L1562.28 36.9095 Q1562.63 42.4072 1565.58 45.3007 Q1568.56 48.1653 1573.86 48.1653 Q1576.93 48.1653 1579.79 47.4129 Q1582.68 46.6606 1585.52 45.156 L1585.52 50.1907 Q1582.65 51.406 1579.65 52.0425 Q1576.64 52.6791 1573.54 52.6791 Q1565.79 52.6791 1561.24 48.1653 Q1556.73 43.6514 1556.73 35.9547 Q1556.73 27.9975 1561.01 23.339 Q1565.32 18.6515 1572.61 18.6515 Q1579.15 18.6515 1582.94 22.876 Q1586.76 27.0716 1586.76 34.3054 M1581.44 32.7429 Q1581.38 28.3737 1578.98 25.7695 Q1576.61 23.1654 1572.67 23.1654 Q1568.22 23.1654 1565.53 25.6827 Q1562.86 28.2001 1562.46 32.7718 L1581.44 32.7429 Z" fill="#000000" fill-rule="nonzero" fill-opacity="1" /><path clip-path="url(#clip220)" d="M1627.13 6.87496 Q1623.25 13.53 1621.37 20.0404 Q1619.49 26.5508 1619.49 33.2348 Q1619.49 39.9188 1621.37 46.487 Q1623.28 53.0263 1627.13 59.6525 L1622.5 59.6525 Q1618.16 52.8527 1615.99 46.2845 Q1613.85 39.7162 1613.85 33.2348 Q1613.85 26.7823 1615.99 20.2429 Q1618.13 13.7036 1622.5 6.87496 L1627.13 6.87496 Z" fill="#000000" fill-rule="nonzero" fill-opacity="1" /><path clip-path="url(#clip220)" d="M1664.4 32.2799 L1664.4 51.84 L1659.07 51.84 L1659.07 32.4535 Q1659.07 27.8529 1657.28 25.567 Q1655.48 23.2811 1651.9 23.2811 Q1647.59 23.2811 1645.1 26.03 Q1642.61 28.7788 1642.61 33.5241 L1642.61 51.84 L1637.26 51.84 L1637.26 19.4328 L1642.61 19.4328 L1642.61 24.4675 Q1644.52 21.545 1647.09 20.0983 Q1649.7 18.6515 1653.08 18.6515 Q1658.67 18.6515 1661.53 22.1237 Q1664.4 25.567 1664.4 32.2799 Z" fill="#000000" fill-rule="nonzero" fill-opacity="1" /><path clip-path="url(#clip220)" d="M1675.71 24.9304 L1712.8 24.9304 L1712.8 29.7915 L1675.71 29.7915 L1675.71 24.9304 M1675.71 36.7359 L1712.8 36.7359 L1712.8 41.6549 L1675.71 41.6549 L1675.71 36.7359 Z" fill="#000000" fill-rule="nonzero" fill-opacity="1" /><path clip-path="url(#clip220)" d="M1725.48 8.64 L1748.42 8.64 L1748.42 13.559 L1730.83 13.559 L1730.83 24.1492 Q1732.1 23.7152 1733.38 23.5126 Q1734.65 23.2811 1735.92 23.2811 Q1743.16 23.2811 1747.38 27.2452 Q1751.61 31.2093 1751.61 37.9801 Q1751.61 44.9535 1747.27 48.8308 Q1742.93 52.6791 1735.03 52.6791 Q1732.31 52.6791 1729.47 52.2162 Q1726.66 51.7532 1723.66 50.8273 L1723.66 44.9535 Q1726.26 46.3713 1729.04 47.0657 Q1731.82 47.7602 1734.91 47.7602 Q1739.92 47.7602 1742.84 45.1271 Q1745.76 42.494 1745.76 37.9801 Q1745.76 33.4663 1742.84 30.8332 Q1739.92 28.2001 1734.91 28.2001 Q1732.57 28.2001 1730.22 28.7209 Q1727.91 29.2417 1725.48 30.3413 L1725.48 8.64 Z" fill="#000000" fill-rule="nonzero" fill-opacity="1" /><path clip-path="url(#clip220)" d="M1775.62 12.4884 Q1771.11 12.4884 1768.82 16.9444 Q1766.57 21.3714 1766.57 30.2834 Q1766.57 39.1665 1768.82 43.6225 Q1771.11 48.0495 1775.62 48.0495 Q1780.17 48.0495 1782.42 43.6225 Q1784.71 39.1665 1784.71 30.2834 Q1784.71 21.3714 1782.42 16.9444 Q1780.17 12.4884 1775.62 12.4884 M1775.62 7.85875 Q1782.89 7.85875 1786.7 13.6168 Q1790.55 19.346 1790.55 30.2834 Q1790.55 41.1919 1786.7 46.95 Q1782.89 52.6791 1775.62 52.6791 Q1768.36 52.6791 1764.51 46.95 Q1760.69 41.1919 1760.69 30.2834 Q1760.69 19.346 1764.51 13.6168 Q1768.36 7.85875 1775.62 7.85875 Z" fill="#000000" fill-rule="nonzero" fill-opacity="1" /><path clip-path="url(#clip220)" d="M1813.33 12.4884 Q1808.81 12.4884 1806.53 16.9444 Q1804.27 21.3714 1804.27 30.2834 Q1804.27 39.1665 1806.53 43.6225 Q1808.81 48.0495 1813.33 48.0495 Q1817.87 48.0495 1820.12 43.6225 Q1822.41 39.1665 1822.41 30.2834 Q1822.41 21.3714 1820.12 16.9444 Q1817.87 12.4884 1813.33 12.4884 M1813.33 7.85875 Q1820.59 7.85875 1824.41 13.6168 Q1828.26 19.346 1828.26 30.2834 Q1828.26 41.1919 1824.41 46.95 Q1820.59 52.6791 1813.33 52.6791 Q1806.06 52.6791 1802.21 46.95 Q1798.39 41.1919 1798.39 30.2834 Q1798.39 19.346 1802.21 13.6168 Q1806.06 7.85875 1813.33 7.85875 Z" fill="#000000" fill-rule="nonzero" fill-opacity="1" /><path clip-path="url(#clip220)" d="M1836.94 6.87496 L1841.57 6.87496 Q1845.91 13.7036 1848.05 20.2429 Q1850.22 26.7823 1850.22 33.2348 Q1850.22 39.7162 1848.05 46.2845 Q1845.91 52.8527 1841.57 59.6525 L1836.94 59.6525 Q1840.78 53.0263 1842.67 46.487 Q1844.57 39.9188 1844.57 33.2348 Q1844.57 26.5508 1842.67 20.0404 Q1840.78 13.53 1836.94 6.87496 Z" fill="#000000" fill-rule="nonzero" fill-opacity="1" /><path clip-path="url(#clip222)" d="M323.245 1402.92 L323.245 1423.18 L399.7 1423.18 L399.7 1402.92 L323.245 1402.92 L323.245 1402.92  Z" fill="#4682b4" fill-rule="evenodd" fill-opacity="0.6"/>
<polyline clip-path="url(#clip222)" style="stroke:#000000; stroke-linecap:round; stroke-linejoin:round; stroke-width:4; stroke-opacity:1; fill:none" points="323.245,1402.92 323.245,1423.18 399.7,1423.18 399.7,1402.92 323.245,1402.92 "/>
<path clip-path="url(#clip222)" d="M399.7 1423.18 L399.7 1423.18 L476.156 1423.18 L476.156 1423.18 L399.7 1423.18 L399.7 1423.18  Z" fill="#4682b4" fill-rule="evenodd" fill-opacity="0.6"/>
<polyline clip-path="url(#clip222)" style="stroke:#000000; stroke-linecap:round; stroke-linejoin:round; stroke-width:4; stroke-opacity:1; fill:none" points="399.7,1423.18 399.7,1423.18 476.156,1423.18 399.7,1423.18 "/>
<path clip-path="url(#clip222)" d="M476.156 1362.4 L476.156 1423.18 L552.611 1423.18 L552.611 1362.4 L476.156 1362.4 L476.156 1362.4  Z" fill="#4682b4" fill-rule="evenodd" fill-opacity="0.6"/>
<polyline clip-path="url(#clip222)" style="stroke:#000000; stroke-linecap:round; stroke-linejoin:round; stroke-width:4; stroke-opacity:1; fill:none" points="476.156,1362.4 476.156,1423.18 552.611,1423.18 552.611,1362.4 476.156,1362.4 "/>
<path clip-path="url(#clip222)" d="M552.611 1078.74 L552.611 1423.18 L629.067 1423.18 L629.067 1078.74 L552.611 1078.74 L552.611 1078.74  Z" fill="#4682b4" fill-rule="evenodd" fill-opacity="0.6"/>
<polyline clip-path="url(#clip222)" style="stroke:#000000; stroke-linecap:round; stroke-linejoin:round; stroke-width:4; stroke-opacity:1; fill:none" points="552.611,1078.74 552.611,1423.18 629.067,1423.18 629.067,1078.74 552.611,1078.74 "/>
<path clip-path="url(#clip222)" d="M629.067 754.555 L629.067 1423.18 L705.522 1423.18 L705.522 754.555 L629.067 754.555 L629.067 754.555  Z" fill="#4682b4" fill-rule="evenodd" fill-opacity="0.6"/>
<polyline clip-path="url(#clip222)" style="stroke:#000000; stroke-linecap:round; stroke-linejoin:round; stroke-width:4; stroke-opacity:1; fill:none" points="629.067,754.555 629.067,1423.18 705.522,1423.18 705.522,754.555 629.067,754.555 "/>
<path clip-path="url(#clip222)" d="M705.522 491.158 L705.522 1423.18 L781.978 1423.18 L781.978 491.158 L705.522 491.158 L705.522 491.158  Z" fill="#4682b4" fill-rule="evenodd" fill-opacity="0.6"/>
<polyline clip-path="url(#clip222)" style="stroke:#000000; stroke-linecap:round; stroke-linejoin:round; stroke-width:4; stroke-opacity:1; fill:none" points="705.522,491.158 705.522,1423.18 781.978,1423.18 781.978,491.158 705.522,491.158 "/>
<path clip-path="url(#clip222)" d="M781.978 470.896 L781.978 1423.18 L858.433 1423.18 L858.433 470.896 L781.978 470.896 L781.978 470.896  Z" fill="#4682b4" fill-rule="evenodd" fill-opacity="0.6"/>
<polyline clip-path="url(#clip222)" style="stroke:#000000; stroke-linecap:round; stroke-linejoin:round; stroke-width:4; stroke-opacity:1; fill:none" points="781.978,470.896 781.978,1423.18 858.433,1423.18 858.433,470.896 781.978,470.896 "/>
<path clip-path="url(#clip222)" d="M858.433 106.192 L858.433 1423.18 L934.889 1423.18 L934.889 106.192 L858.433 106.192 L858.433 106.192  Z" fill="#4682b4" fill-rule="evenodd" fill-opacity="0.6"/>
<polyline clip-path="url(#clip222)" style="stroke:#000000; stroke-linecap:round; stroke-linejoin:round; stroke-width:4; stroke-opacity:1; fill:none" points="858.433,106.192 858.433,1423.18 934.889,1423.18 934.889,106.192 858.433,106.192 "/>
<path clip-path="url(#clip222)" d="M934.889 288.544 L934.889 1423.18 L1011.34 1423.18 L1011.34 288.544 L934.889 288.544 L934.889 288.544  Z" fill="#4682b4" fill-rule="evenodd" fill-opacity="0.6"/>
<polyline clip-path="url(#clip222)" style="stroke:#000000; stroke-linecap:round; stroke-linejoin:round; stroke-width:4; stroke-opacity:1; fill:none" points="934.889,288.544 934.889,1423.18 1011.34,1423.18 1011.34,288.544 934.889,288.544 "/>
<path clip-path="url(#clip222)" d="M1011.34 329.067 L1011.34 1423.18 L1087.8 1423.18 L1087.8 329.067 L1011.34 329.067 L1011.34 329.067  Z" fill="#4682b4" fill-rule="evenodd" fill-opacity="0.6"/>
<polyline clip-path="url(#clip222)" style="stroke:#000000; stroke-linecap:round; stroke-linejoin:round; stroke-width:4; stroke-opacity:1; fill:none" points="1011.34,329.067 1011.34,1423.18 1087.8,1423.18 1087.8,329.067 1011.34,329.067 "/>
<path clip-path="url(#clip222)" d="M1087.8 511.419 L1087.8 1423.18 L1164.26 1423.18 L1164.26 511.419 L1087.8 511.419 L1087.8 511.419  Z" fill="#4682b4" fill-rule="evenodd" fill-opacity="0.6"/>
<polyline clip-path="url(#clip222)" style="stroke:#000000; stroke-linecap:round; stroke-linejoin:round; stroke-width:4; stroke-opacity:1; fill:none" points="1087.8,511.419 1087.8,1423.18 1164.26,1423.18 1164.26,511.419 1087.8,511.419 "/>
<path clip-path="url(#clip222)" d="M1164.26 774.817 L1164.26 1423.18 L1240.71 1423.18 L1240.71 774.817 L1164.26 774.817 L1164.26 774.817  Z" fill="#4682b4" fill-rule="evenodd" fill-opacity="0.6"/>
<polyline clip-path="url(#clip222)" style="stroke:#000000; stroke-linecap:round; stroke-linejoin:round; stroke-width:4; stroke-opacity:1; fill:none" points="1164.26,774.817 1164.26,1423.18 1240.71,1423.18 1240.71,774.817 1164.26,774.817 "/>
<path clip-path="url(#clip222)" d="M1240.71 693.771 L1240.71 1423.18 L1317.17 1423.18 L1317.17 693.771 L1240.71 693.771 L1240.71 693.771  Z" fill="#4682b4" fill-rule="evenodd" fill-opacity="0.6"/>
<polyline clip-path="url(#clip222)" style="stroke:#000000; stroke-linecap:round; stroke-linejoin:round; stroke-width:4; stroke-opacity:1; fill:none" points="1240.71,693.771 1240.71,1423.18 1317.17,1423.18 1317.17,693.771 1240.71,693.771 "/>
<path clip-path="url(#clip222)" d="M1317.17 957.169 L1317.17 1423.18 L1393.62 1423.18 L1393.62 957.169 L1317.17 957.169 L1317.17 957.169  Z" fill="#4682b4" fill-rule="evenodd" fill-opacity="0.6"/>
<polyline clip-path="url(#clip222)" style="stroke:#000000; stroke-linecap:round; stroke-linejoin:round; stroke-width:4; stroke-opacity:1; fill:none" points="1317.17,957.169 1317.17,1423.18 1393.62,1423.18 1393.62,957.169 1317.17,957.169 "/>
<path clip-path="url(#clip222)" d="M1393.62 1200.3 L1393.62 1423.18 L1470.08 1423.18 L1470.08 1200.3 L1393.62 1200.3 L1393.62 1200.3  Z" fill="#4682b4" fill-rule="evenodd" fill-opacity="0.6"/>
<polyline clip-path="url(#clip222)" style="stroke:#000000; stroke-linecap:round; stroke-linejoin:round; stroke-width:4; stroke-opacity:1; fill:none" points="1393.62,1200.3 1393.62,1423.18 1470.08,1423.18 1470.08,1200.3 1393.62,1200.3 "/>
<path clip-path="url(#clip222)" d="M1470.08 1220.57 L1470.08 1423.18 L1546.53 1423.18 L1546.53 1220.57 L1470.08 1220.57 L1470.08 1220.57  Z" fill="#4682b4" fill-rule="evenodd" fill-opacity="0.6"/>
<polyline clip-path="url(#clip222)" style="stroke:#000000; stroke-linecap:round; stroke-linejoin:round; stroke-width:4; stroke-opacity:1; fill:none" points="1470.08,1220.57 1470.08,1423.18 1546.53,1423.18 1546.53,1220.57 1470.08,1220.57 "/>
<path clip-path="url(#clip222)" d="M1546.53 1261.09 L1546.53 1423.18 L1622.99 1423.18 L1622.99 1261.09 L1546.53 1261.09 L1546.53 1261.09  Z" fill="#4682b4" fill-rule="evenodd" fill-opacity="0.6"/>
<polyline clip-path="url(#clip222)" style="stroke:#000000; stroke-linecap:round; stroke-linejoin:round; stroke-width:4; stroke-opacity:1; fill:none" points="1546.53,1261.09 1546.53,1423.18 1622.99,1423.18 1622.99,1261.09 1546.53,1261.09 "/>
<path clip-path="url(#clip222)" d="M1622.99 1301.61 L1622.99 1423.18 L1699.44 1423.18 L1699.44 1301.61 L1622.99 1301.61 L1622.99 1301.61  Z" fill="#4682b4" fill-rule="evenodd" fill-opacity="0.6"/>
<polyline clip-path="url(#clip222)" style="stroke:#000000; stroke-linecap:round; stroke-linejoin:round; stroke-width:4; stroke-opacity:1; fill:none" points="1622.99,1301.61 1622.99,1423.18 1699.44,1423.18 1699.44,1301.61 1622.99,1301.61 "/>
<path clip-path="url(#clip222)" d="M1699.44 1342.13 L1699.44 1423.18 L1775.9 1423.18 L1775.9 1342.13 L1699.44 1342.13 L1699.44 1342.13  Z" fill="#4682b4" fill-rule="evenodd" fill-opacity="0.6"/>
<polyline clip-path="url(#clip222)" style="stroke:#000000; stroke-linecap:round; stroke-linejoin:round; stroke-width:4; stroke-opacity:1; fill:none" points="1699.44,1342.13 1699.44,1423.18 1775.9,1423.18 1775.9,1342.13 1699.44,1342.13 "/>
<path clip-path="url(#clip222)" d="M1775.9 1382.66 L1775.9 1423.18 L1852.35 1423.18 L1852.35 1382.66 L1775.9 1382.66 L1775.9 1382.66  Z" fill="#4682b4" fill-rule="evenodd" fill-opacity="0.6"/>
<polyline clip-path="url(#clip222)" style="stroke:#000000; stroke-linecap:round; stroke-linejoin:round; stroke-width:4; stroke-opacity:1; fill:none" points="1775.9,1382.66 1775.9,1423.18 1852.35,1423.18 1852.35,1382.66 1775.9,1382.66 "/>
<path clip-path="url(#clip222)" d="M1852.35 1423.18 L1852.35 1423.18 L1928.81 1423.18 L1928.81 1423.18 L1852.35 1423.18 L1852.35 1423.18  Z" fill="#4682b4" fill-rule="evenodd" fill-opacity="0.6"/>
<polyline clip-path="url(#clip222)" style="stroke:#000000; stroke-linecap:round; stroke-linejoin:round; stroke-width:4; stroke-opacity:1; fill:none" points="1852.35,1423.18 1852.35,1423.18 1928.81,1423.18 1852.35,1423.18 "/>
<path clip-path="url(#clip222)" d="M1928.81 1423.18 L1928.81 1423.18 L2005.27 1423.18 L2005.27 1423.18 L1928.81 1423.18 L1928.81 1423.18  Z" fill="#4682b4" fill-rule="evenodd" fill-opacity="0.6"/>
<polyline clip-path="url(#clip222)" style="stroke:#000000; stroke-linecap:round; stroke-linejoin:round; stroke-width:4; stroke-opacity:1; fill:none" points="1928.81,1423.18 1928.81,1423.18 2005.27,1423.18 1928.81,1423.18 "/>
<path clip-path="url(#clip222)" d="M2005.27 1423.18 L2005.27 1423.18 L2081.72 1423.18 L2081.72 1423.18 L2005.27 1423.18 L2005.27 1423.18  Z" fill="#4682b4" fill-rule="evenodd" fill-opacity="0.6"/>
<polyline clip-path="url(#clip222)" style="stroke:#000000; stroke-linecap:round; stroke-linejoin:round; stroke-width:4; stroke-opacity:1; fill:none" points="2005.27,1423.18 2005.27,1423.18 2081.72,1423.18 2005.27,1423.18 "/>
<path clip-path="url(#clip222)" d="M2081.72 1423.18 L2081.72 1423.18 L2158.18 1423.18 L2158.18 1423.18 L2081.72 1423.18 L2081.72 1423.18  Z" fill="#4682b4" fill-rule="evenodd" fill-opacity="0.6"/>
<polyline clip-path="url(#clip222)" style="stroke:#000000; stroke-linecap:round; stroke-linejoin:round; stroke-width:4; stroke-opacity:1; fill:none" points="2081.72,1423.18 2081.72,1423.18 2158.18,1423.18 2081.72,1423.18 "/>
<path clip-path="url(#clip222)" d="M2158.18 1402.92 L2158.18 1423.18 L2234.63 1423.18 L2234.63 1402.92 L2158.18 1402.92 L2158.18 1402.92  Z" fill="#4682b4" fill-rule="evenodd" fill-opacity="0.6"/>
<polyline clip-path="url(#clip222)" style="stroke:#000000; stroke-linecap:round; stroke-linejoin:round; stroke-width:4; stroke-opacity:1; fill:none" points="2158.18,1402.92 2158.18,1423.18 2234.63,1423.18 2234.63,1402.92 2158.18,1402.92 "/>
<circle clip-path="url(#clip222)" style="fill:#4682b4; stroke:none; fill-opacity:0" cx="361.472" cy="1402.92" r="2"/>
<circle clip-path="url(#clip222)" style="fill:#4682b4; stroke:none; fill-opacity:0" cx="437.928" cy="1423.18" r="2"/>
<circle clip-path="url(#clip222)" style="fill:#4682b4; stroke:none; fill-opacity:0" cx="514.383" cy="1362.4" r="2"/>
<circle clip-path="url(#clip222)" style="fill:#4682b4; stroke:none; fill-opacity:0" cx="590.839" cy="1078.74" r="2"/>
<circle clip-path="url(#clip222)" style="fill:#4682b4; stroke:none; fill-opacity:0" cx="667.294" cy="754.555" r="2"/>
<circle clip-path="url(#clip222)" style="fill:#4682b4; stroke:none; fill-opacity:0" cx="743.75" cy="491.158" r="2"/>
<circle clip-path="url(#clip222)" style="fill:#4682b4; stroke:none; fill-opacity:0" cx="820.205" cy="470.896" r="2"/>
<circle clip-path="url(#clip222)" style="fill:#4682b4; stroke:none; fill-opacity:0" cx="896.661" cy="106.192" r="2"/>
<circle clip-path="url(#clip222)" style="fill:#4682b4; stroke:none; fill-opacity:0" cx="973.116" cy="288.544" r="2"/>
<circle clip-path="url(#clip222)" style="fill:#4682b4; stroke:none; fill-opacity:0" cx="1049.57" cy="329.067" r="2"/>
<circle clip-path="url(#clip222)" style="fill:#4682b4; stroke:none; fill-opacity:0" cx="1126.03" cy="511.419" r="2"/>
<circle clip-path="url(#clip222)" style="fill:#4682b4; stroke:none; fill-opacity:0" cx="1202.48" cy="774.817" r="2"/>
<circle clip-path="url(#clip222)" style="fill:#4682b4; stroke:none; fill-opacity:0" cx="1278.94" cy="693.771" r="2"/>
<circle clip-path="url(#clip222)" style="fill:#4682b4; stroke:none; fill-opacity:0" cx="1355.39" cy="957.169" r="2"/>
<circle clip-path="url(#clip222)" style="fill:#4682b4; stroke:none; fill-opacity:0" cx="1431.85" cy="1200.3" r="2"/>
<circle clip-path="url(#clip222)" style="fill:#4682b4; stroke:none; fill-opacity:0" cx="1508.3" cy="1220.57" r="2"/>
<circle clip-path="url(#clip222)" style="fill:#4682b4; stroke:none; fill-opacity:0" cx="1584.76" cy="1261.09" r="2"/>
<circle clip-path="url(#clip222)" style="fill:#4682b4; stroke:none; fill-opacity:0" cx="1661.22" cy="1301.61" r="2"/>
<circle clip-path="url(#clip222)" style="fill:#4682b4; stroke:none; fill-opacity:0" cx="1737.67" cy="1342.13" r="2"/>
<circle clip-path="url(#clip222)" style="fill:#4682b4; stroke:none; fill-opacity:0" cx="1814.13" cy="1382.66" r="2"/>
<circle clip-path="url(#clip222)" style="fill:#4682b4; stroke:none; fill-opacity:0" cx="1890.58" cy="1423.18" r="2"/>
<circle clip-path="url(#clip222)" style="fill:#4682b4; stroke:none; fill-opacity:0" cx="1967.04" cy="1423.18" r="2"/>
<circle clip-path="url(#clip222)" style="fill:#4682b4; stroke:none; fill-opacity:0" cx="2043.49" cy="1423.18" r="2"/>
<circle clip-path="url(#clip222)" style="fill:#4682b4; stroke:none; fill-opacity:0" cx="2119.95" cy="1423.18" r="2"/>
<circle clip-path="url(#clip222)" style="fill:#4682b4; stroke:none; fill-opacity:0" cx="2196.4" cy="1402.92" r="2"/>
<polyline clip-path="url(#clip222)" style="stroke:#ff0000; stroke-linecap:round; stroke-linejoin:round; stroke-width:8; stroke-opacity:1; fill:none" points="1086.3,2740.17 1086.3,-1210.8 "/>
<polyline clip-path="url(#clip222)" style="stroke:#0000ff; stroke-linecap:round; stroke-linejoin:round; stroke-width:8; stroke-opacity:1; fill:none" stroke-dasharray="32, 20" points="987.953,2740.17 987.953,-1210.8 "/>
<path clip-path="url(#clip220)" d="M1632.33 357.452 L2281.17 357.452 L2281.17 150.092 L1632.33 150.092  Z" fill="#ffffff" fill-rule="evenodd" fill-opacity="1"/>
<polyline clip-path="url(#clip220)" style="stroke:#000000; stroke-linecap:round; stroke-linejoin:round; stroke-width:4; stroke-opacity:1; fill:none" points="1632.33,357.452 2281.17,357.452 2281.17,150.092 1632.33,150.092 1632.33,357.452 "/>
<path clip-path="url(#clip220)" d="M1656.2 222.668 L1799.37 222.668 L1799.37 181.196 L1656.2 181.196 L1656.2 222.668  Z" fill="#4682b4" fill-rule="evenodd" fill-opacity="0.6"/>
<polyline clip-path="url(#clip220)" style="stroke:#000000; stroke-linecap:round; stroke-linejoin:round; stroke-width:4; stroke-opacity:1; fill:none" points="1656.2,222.668 1799.37,222.668 1799.37,181.196 1656.2,181.196 1656.2,222.668 "/>
<path clip-path="url(#clip220)" d="M1845.48 185.786 L1845.48 190.346 Q1842.82 189.073 1840.46 188.448 Q1838.09 187.823 1835.9 187.823 Q1832.08 187.823 1829.99 189.304 Q1827.93 190.786 1827.93 193.517 Q1827.93 195.809 1829.3 196.99 Q1830.69 198.147 1834.53 198.865 L1837.35 199.443 Q1842.59 200.439 1845.06 202.962 Q1847.56 205.462 1847.56 209.675 Q1847.56 214.698 1844.18 217.29 Q1840.83 219.883 1834.32 219.883 Q1831.87 219.883 1829.09 219.327 Q1826.34 218.772 1823.37 217.684 L1823.37 212.869 Q1826.22 214.466 1828.95 215.277 Q1831.68 216.087 1834.32 216.087 Q1838.33 216.087 1840.5 214.513 Q1842.68 212.939 1842.68 210.022 Q1842.68 207.476 1841.1 206.04 Q1839.55 204.605 1835.99 203.888 L1833.14 203.332 Q1827.91 202.291 1825.57 200.068 Q1823.23 197.846 1823.23 193.888 Q1823.23 189.304 1826.45 186.666 Q1829.69 184.027 1835.36 184.027 Q1837.79 184.027 1840.32 184.467 Q1842.84 184.906 1845.48 185.786 Z" fill="#000000" fill-rule="nonzero" fill-opacity="1" /><path clip-path="url(#clip220)" d="M1854.67 193.286 L1858.93 193.286 L1858.93 219.212 L1854.67 219.212 L1854.67 193.286 M1854.67 183.193 L1858.93 183.193 L1858.93 188.587 L1854.67 188.587 L1854.67 183.193 Z" fill="#000000" fill-rule="nonzero" fill-opacity="1" /><path clip-path="url(#clip220)" d="M1888.03 198.263 Q1889.62 195.392 1891.84 194.027 Q1894.07 192.661 1897.08 192.661 Q1901.13 192.661 1903.33 195.508 Q1905.52 198.332 1905.52 203.564 L1905.52 219.212 L1901.24 219.212 L1901.24 203.703 Q1901.24 199.976 1899.92 198.17 Q1898.6 196.365 1895.9 196.365 Q1892.59 196.365 1890.66 198.564 Q1888.74 200.763 1888.74 204.559 L1888.74 219.212 L1884.46 219.212 L1884.46 203.703 Q1884.46 199.953 1883.14 198.17 Q1881.82 196.365 1879.07 196.365 Q1875.8 196.365 1873.88 198.587 Q1871.96 200.786 1871.96 204.559 L1871.96 219.212 L1867.68 219.212 L1867.68 193.286 L1871.96 193.286 L1871.96 197.314 Q1873.42 194.929 1875.46 193.795 Q1877.49 192.661 1880.29 192.661 Q1883.12 192.661 1885.09 194.096 Q1887.08 195.531 1888.03 198.263 Z" fill="#000000" fill-rule="nonzero" fill-opacity="1" /><path clip-path="url(#clip220)" d="M1913.58 208.98 L1913.58 193.286 L1917.84 193.286 L1917.84 208.818 Q1917.84 212.499 1919.27 214.351 Q1920.71 216.179 1923.58 216.179 Q1927.03 216.179 1929.02 213.98 Q1931.03 211.781 1931.03 207.985 L1931.03 193.286 L1935.29 193.286 L1935.29 219.212 L1931.03 219.212 L1931.03 215.23 Q1929.48 217.591 1927.42 218.749 Q1925.39 219.883 1922.68 219.883 Q1918.21 219.883 1915.9 217.105 Q1913.58 214.327 1913.58 208.98 M1924.3 192.661 L1924.3 192.661 Z" fill="#000000" fill-rule="nonzero" fill-opacity="1" /><path clip-path="url(#clip220)" d="M1944.07 183.193 L1948.33 183.193 L1948.33 219.212 L1944.07 219.212 L1944.07 183.193 Z" fill="#000000" fill-rule="nonzero" fill-opacity="1" /><path clip-path="url(#clip220)" d="M1969.02 206.179 Q1963.86 206.179 1961.87 207.36 Q1959.88 208.54 1959.88 211.388 Q1959.88 213.656 1961.36 214.999 Q1962.86 216.318 1965.43 216.318 Q1968.97 216.318 1971.1 213.818 Q1973.26 211.295 1973.26 207.128 L1973.26 206.179 L1969.02 206.179 M1977.52 204.42 L1977.52 219.212 L1973.26 219.212 L1973.26 215.277 Q1971.8 217.638 1969.62 218.772 Q1967.45 219.883 1964.3 219.883 Q1960.32 219.883 1957.96 217.661 Q1955.62 215.415 1955.62 211.665 Q1955.62 207.29 1958.53 205.068 Q1961.47 202.846 1967.28 202.846 L1973.26 202.846 L1973.26 202.429 Q1973.26 199.49 1971.31 197.892 Q1969.39 196.272 1965.89 196.272 Q1963.67 196.272 1961.57 196.804 Q1959.46 197.337 1957.52 198.402 L1957.52 194.466 Q1959.85 193.564 1962.05 193.124 Q1964.25 192.661 1966.33 192.661 Q1971.96 192.661 1974.74 195.578 Q1977.52 198.494 1977.52 204.42 Z" fill="#000000" fill-rule="nonzero" fill-opacity="1" /><path clip-path="url(#clip220)" d="M1990.5 185.925 L1990.5 193.286 L1999.27 193.286 L1999.27 196.596 L1990.5 196.596 L1990.5 210.67 Q1990.5 213.841 1991.36 214.744 Q1992.24 215.647 1994.9 215.647 L1999.27 215.647 L1999.27 219.212 L1994.9 219.212 Q1989.97 219.212 1988.09 217.383 Q1986.22 215.531 1986.22 210.67 L1986.22 196.596 L1983.09 196.596 L1983.09 193.286 L1986.22 193.286 L1986.22 185.925 L1990.5 185.925 Z" fill="#000000" fill-rule="nonzero" fill-opacity="1" /><path clip-path="url(#clip220)" d="M2027.05 205.184 L2027.05 207.267 L2007.47 207.267 Q2007.75 211.665 2010.11 213.98 Q2012.49 216.272 2016.73 216.272 Q2019.18 216.272 2021.47 215.67 Q2023.79 215.068 2026.06 213.865 L2026.06 217.892 Q2023.77 218.864 2021.36 219.374 Q2018.95 219.883 2016.47 219.883 Q2010.27 219.883 2006.64 216.272 Q2003.02 212.661 2003.02 206.503 Q2003.02 200.138 2006.45 196.411 Q2009.9 192.661 2015.73 192.661 Q2020.96 192.661 2024 196.041 Q2027.05 199.397 2027.05 205.184 M2022.79 203.934 Q2022.75 200.439 2020.83 198.355 Q2018.93 196.272 2015.78 196.272 Q2012.21 196.272 2010.06 198.286 Q2007.93 200.3 2007.61 203.957 L2022.79 203.934 Z" fill="#000000" fill-rule="nonzero" fill-opacity="1" /><path clip-path="url(#clip220)" d="M2051.1 197.221 L2051.1 183.193 L2055.36 183.193 L2055.36 219.212 L2051.1 219.212 L2051.1 215.323 Q2049.76 217.638 2047.7 218.772 Q2045.66 219.883 2042.79 219.883 Q2038.09 219.883 2035.13 216.133 Q2032.19 212.383 2032.19 206.272 Q2032.19 200.161 2035.13 196.411 Q2038.09 192.661 2042.79 192.661 Q2045.66 192.661 2047.7 193.795 Q2049.76 194.906 2051.1 197.221 M2036.59 206.272 Q2036.59 210.971 2038.51 213.656 Q2040.45 216.318 2043.83 216.318 Q2047.21 216.318 2049.16 213.656 Q2051.1 210.971 2051.1 206.272 Q2051.1 201.573 2049.16 198.911 Q2047.21 196.226 2043.83 196.226 Q2040.45 196.226 2038.51 198.911 Q2036.59 201.573 2036.59 206.272 Z" fill="#000000" fill-rule="nonzero" fill-opacity="1" /><polyline clip-path="url(#clip220)" style="stroke:#ff0000; stroke-linecap:round; stroke-linejoin:round; stroke-width:8; stroke-opacity:1; fill:none" points="1656.2,253.772 1799.37,253.772 "/>
<path clip-path="url(#clip220)" d="M1839.25 239.663 Q1834.16 239.663 1831.15 243.459 Q1828.16 247.256 1828.16 253.806 Q1828.16 260.334 1831.15 264.13 Q1834.16 267.927 1839.25 267.927 Q1844.34 267.927 1847.31 264.13 Q1850.29 260.334 1850.29 253.806 Q1850.29 247.256 1847.31 243.459 Q1844.34 239.663 1839.25 239.663 M1839.25 235.867 Q1846.52 235.867 1850.87 240.751 Q1855.22 245.612 1855.22 253.806 Q1855.22 261.978 1850.87 266.862 Q1846.52 271.723 1839.25 271.723 Q1831.96 271.723 1827.59 266.862 Q1823.23 262.001 1823.23 253.806 Q1823.23 245.612 1827.59 240.751 Q1831.96 235.867 1839.25 235.867 Z" fill="#000000" fill-rule="nonzero" fill-opacity="1" /><path clip-path="url(#clip220)" d="M1880.96 258.112 Q1880.96 253.413 1879.02 250.751 Q1877.1 248.066 1873.72 248.066 Q1870.34 248.066 1868.4 250.751 Q1866.47 253.413 1866.47 258.112 Q1866.47 262.811 1868.4 265.496 Q1870.34 268.158 1873.72 268.158 Q1877.1 268.158 1879.02 265.496 Q1880.96 262.811 1880.96 258.112 M1866.47 249.061 Q1867.82 246.746 1869.85 245.635 Q1871.91 244.501 1874.76 244.501 Q1879.48 244.501 1882.42 248.251 Q1885.39 252.001 1885.39 258.112 Q1885.39 264.223 1882.42 267.973 Q1879.48 271.723 1874.76 271.723 Q1871.91 271.723 1869.85 270.612 Q1867.82 269.478 1866.47 267.163 L1866.47 271.052 L1862.19 271.052 L1862.19 235.033 L1866.47 235.033 L1866.47 249.061 Z" fill="#000000" fill-rule="nonzero" fill-opacity="1" /><path clip-path="url(#clip220)" d="M1908.97 245.89 L1908.97 249.918 Q1907.17 248.992 1905.22 248.529 Q1903.28 248.066 1901.2 248.066 Q1898.02 248.066 1896.43 249.038 Q1894.85 250.01 1894.85 251.955 Q1894.85 253.436 1895.99 254.293 Q1897.12 255.126 1900.55 255.89 L1902.01 256.214 Q1906.54 257.186 1908.44 258.968 Q1910.36 260.728 1910.36 263.899 Q1910.36 267.51 1907.49 269.617 Q1904.65 271.723 1899.65 271.723 Q1897.56 271.723 1895.29 271.306 Q1893.05 270.913 1890.55 270.103 L1890.55 265.705 Q1892.91 266.931 1895.2 267.556 Q1897.49 268.158 1899.74 268.158 Q1902.75 268.158 1904.37 267.14 Q1905.99 266.098 1905.99 264.223 Q1905.99 262.487 1904.81 261.561 Q1903.65 260.635 1899.69 259.779 L1898.21 259.431 Q1894.25 258.598 1892.49 256.885 Q1890.73 255.149 1890.73 252.14 Q1890.73 248.482 1893.33 246.492 Q1895.92 244.501 1900.69 244.501 Q1903.05 244.501 1905.13 244.848 Q1907.21 245.195 1908.97 245.89 Z" fill="#000000" fill-rule="nonzero" fill-opacity="1" /><path clip-path="url(#clip220)" d="M1939.32 257.024 L1939.32 259.107 L1919.74 259.107 Q1920.02 263.505 1922.38 265.82 Q1924.76 268.112 1929 268.112 Q1931.45 268.112 1933.74 267.51 Q1936.06 266.908 1938.33 265.705 L1938.33 269.732 Q1936.03 270.704 1933.63 271.214 Q1931.22 271.723 1928.74 271.723 Q1922.54 271.723 1918.9 268.112 Q1915.29 264.501 1915.29 258.343 Q1915.29 251.978 1918.72 248.251 Q1922.17 244.501 1928 244.501 Q1933.23 244.501 1936.27 247.881 Q1939.32 251.237 1939.32 257.024 M1935.06 255.774 Q1935.02 252.279 1933.09 250.195 Q1931.2 248.112 1928.05 248.112 Q1924.48 248.112 1922.33 250.126 Q1920.2 252.14 1919.88 255.797 L1935.06 255.774 Z" fill="#000000" fill-rule="nonzero" fill-opacity="1" /><path clip-path="url(#clip220)" d="M1961.33 249.107 Q1960.62 248.691 1959.76 248.506 Q1958.93 248.297 1957.91 248.297 Q1954.3 248.297 1952.35 250.658 Q1950.43 252.996 1950.43 257.394 L1950.43 271.052 L1946.15 271.052 L1946.15 245.126 L1950.43 245.126 L1950.43 249.154 Q1951.77 246.793 1953.93 245.658 Q1956.08 244.501 1959.16 244.501 Q1959.6 244.501 1960.13 244.57 Q1960.66 244.617 1961.31 244.732 L1961.33 249.107 Z" fill="#000000" fill-rule="nonzero" fill-opacity="1" /><path clip-path="url(#clip220)" d="M1962.75 245.126 L1967.26 245.126 L1975.36 266.885 L1983.46 245.126 L1987.98 245.126 L1978.26 271.052 L1972.47 271.052 L1962.75 245.126 Z" fill="#000000" fill-rule="nonzero" fill-opacity="1" /><path clip-path="url(#clip220)" d="M2016.03 257.024 L2016.03 259.107 L1996.45 259.107 Q1996.73 263.505 1999.09 265.82 Q2001.47 268.112 2005.71 268.112 Q2008.16 268.112 2010.45 267.51 Q2012.77 266.908 2015.04 265.705 L2015.04 269.732 Q2012.75 270.704 2010.34 271.214 Q2007.93 271.723 2005.45 271.723 Q1999.25 271.723 1995.62 268.112 Q1992.01 264.501 1992.01 258.343 Q1992.01 251.978 1995.43 248.251 Q1998.88 244.501 2004.71 244.501 Q2009.95 244.501 2012.98 247.881 Q2016.03 251.237 2016.03 257.024 M2011.77 255.774 Q2011.73 252.279 2009.81 250.195 Q2007.91 248.112 2004.76 248.112 Q2001.2 248.112 1999.04 250.126 Q1996.91 252.14 1996.59 255.797 L2011.77 255.774 Z" fill="#000000" fill-rule="nonzero" fill-opacity="1" /><path clip-path="url(#clip220)" d="M2040.08 249.061 L2040.08 235.033 L2044.34 235.033 L2044.34 271.052 L2040.08 271.052 L2040.08 267.163 Q2038.74 269.478 2036.68 270.612 Q2034.64 271.723 2031.77 271.723 Q2027.08 271.723 2024.11 267.973 Q2021.17 264.223 2021.17 258.112 Q2021.17 252.001 2024.11 248.251 Q2027.08 244.501 2031.77 244.501 Q2034.64 244.501 2036.68 245.635 Q2038.74 246.746 2040.08 249.061 M2025.57 258.112 Q2025.57 262.811 2027.49 265.496 Q2029.44 268.158 2032.82 268.158 Q2036.2 268.158 2038.14 265.496 Q2040.08 262.811 2040.08 258.112 Q2040.08 253.413 2038.14 250.751 Q2036.2 248.066 2032.82 248.066 Q2029.44 248.066 2027.49 250.751 Q2025.57 253.413 2025.57 258.112 Z" fill="#000000" fill-rule="nonzero" fill-opacity="1" /><path clip-path="url(#clip220)" d="M2072.4 237.765 L2072.4 245.126 L2081.17 245.126 L2081.17 248.436 L2072.4 248.436 L2072.4 262.51 Q2072.4 265.681 2073.26 266.584 Q2074.14 267.487 2076.8 267.487 L2081.17 267.487 L2081.17 271.052 L2076.8 271.052 Q2071.87 271.052 2069.99 269.223 Q2068.12 267.371 2068.12 262.51 L2068.12 248.436 L2064.99 248.436 L2064.99 245.126 L2068.12 245.126 L2068.12 237.765 L2072.4 237.765 Z" fill="#000000" fill-rule="nonzero" fill-opacity="1" /><path clip-path="url(#clip220)" d="M2108.95 257.024 L2108.95 259.107 L2089.37 259.107 Q2089.64 263.505 2092.01 265.82 Q2094.39 268.112 2098.63 268.112 Q2101.08 268.112 2103.37 267.51 Q2105.69 266.908 2107.95 265.705 L2107.95 269.732 Q2105.66 270.704 2103.26 271.214 Q2100.85 271.723 2098.37 271.723 Q2092.17 271.723 2088.53 268.112 Q2084.92 264.501 2084.92 258.343 Q2084.92 251.978 2088.35 248.251 Q2091.8 244.501 2097.63 244.501 Q2102.86 244.501 2105.89 247.881 Q2108.95 251.237 2108.95 257.024 M2104.69 255.774 Q2104.64 252.279 2102.72 250.195 Q2100.82 248.112 2097.68 248.112 Q2094.11 248.112 2091.96 250.126 Q2089.83 252.14 2089.51 255.797 L2104.69 255.774 Z" fill="#000000" fill-rule="nonzero" fill-opacity="1" /><path clip-path="url(#clip220)" d="M2130.96 249.107 Q2130.25 248.691 2129.39 248.506 Q2128.56 248.297 2127.54 248.297 Q2123.93 248.297 2121.98 250.658 Q2120.06 252.996 2120.06 257.394 L2120.06 271.052 L2115.78 271.052 L2115.78 245.126 L2120.06 245.126 L2120.06 249.154 Q2121.4 246.793 2123.56 245.658 Q2125.71 244.501 2128.79 244.501 Q2129.23 244.501 2129.76 244.57 Q2130.29 244.617 2130.94 244.732 L2130.96 249.107 Z" fill="#000000" fill-rule="nonzero" fill-opacity="1" /><path clip-path="url(#clip220)" d="M2154.78 250.103 Q2156.38 247.232 2158.6 245.867 Q2160.82 244.501 2163.83 244.501 Q2167.88 244.501 2170.08 247.348 Q2172.28 250.172 2172.28 255.404 L2172.28 271.052 L2168 271.052 L2168 255.543 Q2168 251.816 2166.68 250.01 Q2165.36 248.205 2162.65 248.205 Q2159.34 248.205 2157.42 250.404 Q2155.5 252.603 2155.5 256.399 L2155.5 271.052 L2151.22 271.052 L2151.22 255.543 Q2151.22 251.793 2149.9 250.01 Q2148.58 248.205 2145.82 248.205 Q2142.56 248.205 2140.64 250.427 Q2138.72 252.626 2138.72 256.399 L2138.72 271.052 L2134.44 271.052 L2134.44 245.126 L2138.72 245.126 L2138.72 249.154 Q2140.18 246.769 2142.21 245.635 Q2144.25 244.501 2147.05 244.501 Q2149.88 244.501 2151.84 245.936 Q2153.83 247.371 2154.78 250.103 Z" fill="#000000" fill-rule="nonzero" fill-opacity="1" /><path clip-path="url(#clip220)" d="M2180.78 245.126 L2185.04 245.126 L2185.04 271.052 L2180.78 271.052 L2180.78 245.126 M2180.78 235.033 L2185.04 235.033 L2185.04 240.427 L2180.78 240.427 L2180.78 235.033 Z" fill="#000000" fill-rule="nonzero" fill-opacity="1" /><path clip-path="url(#clip220)" d="M2215.5 255.404 L2215.5 271.052 L2211.24 271.052 L2211.24 255.543 Q2211.24 251.862 2209.81 250.033 Q2208.37 248.205 2205.5 248.205 Q2202.05 248.205 2200.06 250.404 Q2198.07 252.603 2198.07 256.399 L2198.07 271.052 L2193.79 271.052 L2193.79 245.126 L2198.07 245.126 L2198.07 249.154 Q2199.6 246.816 2201.66 245.658 Q2203.74 244.501 2206.45 244.501 Q2210.92 244.501 2213.21 247.279 Q2215.5 250.033 2215.5 255.404 Z" fill="#000000" fill-rule="nonzero" fill-opacity="1" /><path clip-path="url(#clip220)" d="M2235.78 258.019 Q2230.62 258.019 2228.63 259.2 Q2226.63 260.38 2226.63 263.228 Q2226.63 265.496 2228.12 266.839 Q2229.62 268.158 2232.19 268.158 Q2235.73 268.158 2237.86 265.658 Q2240.01 263.135 2240.01 258.968 L2240.01 258.019 L2235.78 258.019 M2244.27 256.26 L2244.27 271.052 L2240.01 271.052 L2240.01 267.117 Q2238.56 269.478 2236.38 270.612 Q2234.2 271.723 2231.06 271.723 Q2227.07 271.723 2224.71 269.501 Q2222.38 267.255 2222.38 263.505 Q2222.38 259.13 2225.29 256.908 Q2228.23 254.686 2234.04 254.686 L2240.01 254.686 L2240.01 254.269 Q2240.01 251.33 2238.07 249.732 Q2236.15 248.112 2232.65 248.112 Q2230.43 248.112 2228.32 248.644 Q2226.22 249.177 2224.27 250.242 L2224.27 246.306 Q2226.61 245.404 2228.81 244.964 Q2231.01 244.501 2233.09 244.501 Q2238.72 244.501 2241.5 247.418 Q2244.27 250.334 2244.27 256.26 Z" fill="#000000" fill-rule="nonzero" fill-opacity="1" /><path clip-path="url(#clip220)" d="M2253.05 235.033 L2257.31 235.033 L2257.31 271.052 L2253.05 271.052 L2253.05 235.033 Z" fill="#000000" fill-rule="nonzero" fill-opacity="1" /><polyline clip-path="url(#clip220)" style="stroke:#0000ff; stroke-linecap:round; stroke-linejoin:round; stroke-width:8; stroke-opacity:1; fill:none" stroke-dasharray="32, 20" points="1656.2,305.612 1799.37,305.612 "/>
<path clip-path="url(#clip220)" d="M1845.48 289.466 L1845.48 294.026 Q1842.82 292.753 1840.46 292.128 Q1838.09 291.503 1835.9 291.503 Q1832.08 291.503 1829.99 292.984 Q1827.93 294.466 1827.93 297.197 Q1827.93 299.489 1829.3 300.67 Q1830.69 301.827 1834.53 302.545 L1837.35 303.123 Q1842.59 304.119 1845.06 306.642 Q1847.56 309.142 1847.56 313.355 Q1847.56 318.378 1844.18 320.97 Q1840.83 323.563 1834.32 323.563 Q1831.87 323.563 1829.09 323.007 Q1826.34 322.452 1823.37 321.364 L1823.37 316.549 Q1826.22 318.146 1828.95 318.957 Q1831.68 319.767 1834.32 319.767 Q1838.33 319.767 1840.5 318.193 Q1842.68 316.619 1842.68 313.702 Q1842.68 311.156 1841.1 309.72 Q1839.55 308.285 1835.99 307.568 L1833.14 307.012 Q1827.91 305.971 1825.57 303.748 Q1823.23 301.526 1823.23 297.568 Q1823.23 292.984 1826.45 290.346 Q1829.69 287.707 1835.36 287.707 Q1837.79 287.707 1840.32 288.147 Q1842.84 288.586 1845.48 289.466 Z" fill="#000000" fill-rule="nonzero" fill-opacity="1" /><path clip-path="url(#clip220)" d="M1854.67 296.966 L1858.93 296.966 L1858.93 322.892 L1854.67 322.892 L1854.67 296.966 M1854.67 286.873 L1858.93 286.873 L1858.93 292.267 L1854.67 292.267 L1854.67 286.873 Z" fill="#000000" fill-rule="nonzero" fill-opacity="1" /><path clip-path="url(#clip220)" d="M1888.03 301.943 Q1889.62 299.072 1891.84 297.707 Q1894.07 296.341 1897.08 296.341 Q1901.13 296.341 1903.33 299.188 Q1905.52 302.012 1905.52 307.244 L1905.52 322.892 L1901.24 322.892 L1901.24 307.383 Q1901.24 303.656 1899.92 301.85 Q1898.6 300.045 1895.9 300.045 Q1892.59 300.045 1890.66 302.244 Q1888.74 304.443 1888.74 308.239 L1888.74 322.892 L1884.46 322.892 L1884.46 307.383 Q1884.46 303.633 1883.14 301.85 Q1881.82 300.045 1879.07 300.045 Q1875.8 300.045 1873.88 302.267 Q1871.96 304.466 1871.96 308.239 L1871.96 322.892 L1867.68 322.892 L1867.68 296.966 L1871.96 296.966 L1871.96 300.994 Q1873.42 298.609 1875.46 297.475 Q1877.49 296.341 1880.29 296.341 Q1883.12 296.341 1885.09 297.776 Q1887.08 299.211 1888.03 301.943 Z" fill="#000000" fill-rule="nonzero" fill-opacity="1" /><path clip-path="url(#clip220)" d="M1913.58 312.66 L1913.58 296.966 L1917.84 296.966 L1917.84 312.498 Q1917.84 316.179 1919.27 318.031 Q1920.71 319.859 1923.58 319.859 Q1927.03 319.859 1929.02 317.66 Q1931.03 315.461 1931.03 311.665 L1931.03 296.966 L1935.29 296.966 L1935.29 322.892 L1931.03 322.892 L1931.03 318.91 Q1929.48 321.271 1927.42 322.429 Q1925.39 323.563 1922.68 323.563 Q1918.21 323.563 1915.9 320.785 Q1913.58 318.007 1913.58 312.66 M1924.3 296.341 L1924.3 296.341 Z" fill="#000000" fill-rule="nonzero" fill-opacity="1" /><path clip-path="url(#clip220)" d="M1944.07 286.873 L1948.33 286.873 L1948.33 322.892 L1944.07 322.892 L1944.07 286.873 Z" fill="#000000" fill-rule="nonzero" fill-opacity="1" /><path clip-path="url(#clip220)" d="M1969.02 309.859 Q1963.86 309.859 1961.87 311.04 Q1959.88 312.22 1959.88 315.068 Q1959.88 317.336 1961.36 318.679 Q1962.86 319.998 1965.43 319.998 Q1968.97 319.998 1971.1 317.498 Q1973.26 314.975 1973.26 310.808 L1973.26 309.859 L1969.02 309.859 M1977.52 308.1 L1977.52 322.892 L1973.26 322.892 L1973.26 318.957 Q1971.8 321.318 1969.62 322.452 Q1967.45 323.563 1964.3 323.563 Q1960.32 323.563 1957.96 321.341 Q1955.62 319.095 1955.62 315.345 Q1955.62 310.97 1958.53 308.748 Q1961.47 306.526 1967.28 306.526 L1973.26 306.526 L1973.26 306.109 Q1973.26 303.17 1971.31 301.572 Q1969.39 299.952 1965.89 299.952 Q1963.67 299.952 1961.57 300.484 Q1959.46 301.017 1957.52 302.082 L1957.52 298.146 Q1959.85 297.244 1962.05 296.804 Q1964.25 296.341 1966.33 296.341 Q1971.96 296.341 1974.74 299.258 Q1977.52 302.174 1977.52 308.1 Z" fill="#000000" fill-rule="nonzero" fill-opacity="1" /><path clip-path="url(#clip220)" d="M1990.5 289.605 L1990.5 296.966 L1999.27 296.966 L1999.27 300.276 L1990.5 300.276 L1990.5 314.35 Q1990.5 317.521 1991.36 318.424 Q1992.24 319.327 1994.9 319.327 L1999.27 319.327 L1999.27 322.892 L1994.9 322.892 Q1989.97 322.892 1988.09 321.063 Q1986.22 319.211 1986.22 314.35 L1986.22 300.276 L1983.09 300.276 L1983.09 296.966 L1986.22 296.966 L1986.22 289.605 L1990.5 289.605 Z" fill="#000000" fill-rule="nonzero" fill-opacity="1" /><path clip-path="url(#clip220)" d="M2027.05 308.864 L2027.05 310.947 L2007.47 310.947 Q2007.75 315.345 2010.11 317.66 Q2012.49 319.952 2016.73 319.952 Q2019.18 319.952 2021.47 319.35 Q2023.79 318.748 2026.06 317.545 L2026.06 321.572 Q2023.77 322.544 2021.36 323.054 Q2018.95 323.563 2016.47 323.563 Q2010.27 323.563 2006.64 319.952 Q2003.02 316.341 2003.02 310.183 Q2003.02 303.818 2006.45 300.091 Q2009.9 296.341 2015.73 296.341 Q2020.96 296.341 2024 299.721 Q2027.05 303.077 2027.05 308.864 M2022.79 307.614 Q2022.75 304.119 2020.83 302.035 Q2018.93 299.952 2015.78 299.952 Q2012.21 299.952 2010.06 301.966 Q2007.93 303.98 2007.61 307.637 L2022.79 307.614 Z" fill="#000000" fill-rule="nonzero" fill-opacity="1" /><path clip-path="url(#clip220)" d="M2051.1 300.901 L2051.1 286.873 L2055.36 286.873 L2055.36 322.892 L2051.1 322.892 L2051.1 319.003 Q2049.76 321.318 2047.7 322.452 Q2045.66 323.563 2042.79 323.563 Q2038.09 323.563 2035.13 319.813 Q2032.19 316.063 2032.19 309.952 Q2032.19 303.841 2035.13 300.091 Q2038.09 296.341 2042.79 296.341 Q2045.66 296.341 2047.7 297.475 Q2049.76 298.586 2051.1 300.901 M2036.59 309.952 Q2036.59 314.651 2038.51 317.336 Q2040.45 319.998 2043.83 319.998 Q2047.21 319.998 2049.16 317.336 Q2051.1 314.651 2051.1 309.952 Q2051.1 305.253 2049.16 302.591 Q2047.21 299.906 2043.83 299.906 Q2040.45 299.906 2038.51 302.591 Q2036.59 305.253 2036.59 309.952 Z" fill="#000000" fill-rule="nonzero" fill-opacity="1" /><path clip-path="url(#clip220)" d="M2099.39 301.943 Q2100.99 299.072 2103.21 297.707 Q2105.43 296.341 2108.44 296.341 Q2112.49 296.341 2114.69 299.188 Q2116.89 302.012 2116.89 307.244 L2116.89 322.892 L2112.61 322.892 L2112.61 307.383 Q2112.61 303.656 2111.29 301.85 Q2109.97 300.045 2107.26 300.045 Q2103.95 300.045 2102.03 302.244 Q2100.11 304.443 2100.11 308.239 L2100.11 322.892 L2095.82 322.892 L2095.82 307.383 Q2095.82 303.633 2094.51 301.85 Q2093.19 300.045 2090.43 300.045 Q2087.17 300.045 2085.25 302.267 Q2083.32 304.466 2083.32 308.239 L2083.32 322.892 L2079.04 322.892 L2079.04 296.966 L2083.32 296.966 L2083.32 300.994 Q2084.78 298.609 2086.82 297.475 Q2088.86 296.341 2091.66 296.341 Q2094.48 296.341 2096.45 297.776 Q2098.44 299.211 2099.39 301.943 Z" fill="#000000" fill-rule="nonzero" fill-opacity="1" /><path clip-path="url(#clip220)" d="M2147.56 308.864 L2147.56 310.947 L2127.98 310.947 Q2128.26 315.345 2130.62 317.66 Q2133 319.952 2137.24 319.952 Q2139.69 319.952 2141.98 319.35 Q2144.3 318.748 2146.57 317.545 L2146.57 321.572 Q2144.27 322.544 2141.87 323.054 Q2139.46 323.563 2136.98 323.563 Q2130.78 323.563 2127.14 319.952 Q2123.53 316.341 2123.53 310.183 Q2123.53 303.818 2126.96 300.091 Q2130.41 296.341 2136.24 296.341 Q2141.47 296.341 2144.51 299.721 Q2147.56 303.077 2147.56 308.864 M2143.3 307.614 Q2143.26 304.119 2141.33 302.035 Q2139.44 299.952 2136.29 299.952 Q2132.72 299.952 2130.57 301.966 Q2128.44 303.98 2128.12 307.637 L2143.3 307.614 Z" fill="#000000" fill-rule="nonzero" fill-opacity="1" /><path clip-path="url(#clip220)" d="M2171.61 300.901 L2171.61 286.873 L2175.87 286.873 L2175.87 322.892 L2171.61 322.892 L2171.61 319.003 Q2170.27 321.318 2168.21 322.452 Q2166.17 323.563 2163.3 323.563 Q2158.6 323.563 2155.64 319.813 Q2152.7 316.063 2152.7 309.952 Q2152.7 303.841 2155.64 300.091 Q2158.6 296.341 2163.3 296.341 Q2166.17 296.341 2168.21 297.475 Q2170.27 298.586 2171.61 300.901 M2157.1 309.952 Q2157.1 314.651 2159.02 317.336 Q2160.96 319.998 2164.34 319.998 Q2167.72 319.998 2169.67 317.336 Q2171.61 314.651 2171.61 309.952 Q2171.61 305.253 2169.67 302.591 Q2167.72 299.906 2164.34 299.906 Q2160.96 299.906 2159.02 302.591 Q2157.1 305.253 2157.1 309.952 Z" fill="#000000" fill-rule="nonzero" fill-opacity="1" /><path clip-path="url(#clip220)" d="M2184.64 296.966 L2188.9 296.966 L2188.9 322.892 L2184.64 322.892 L2184.64 296.966 M2184.64 286.873 L2188.9 286.873 L2188.9 292.267 L2184.64 292.267 L2184.64 286.873 Z" fill="#000000" fill-rule="nonzero" fill-opacity="1" /><path clip-path="url(#clip220)" d="M2209.6 309.859 Q2204.44 309.859 2202.44 311.04 Q2200.45 312.22 2200.45 315.068 Q2200.45 317.336 2201.94 318.679 Q2203.44 319.998 2206.01 319.998 Q2209.55 319.998 2211.68 317.498 Q2213.83 314.975 2213.83 310.808 L2213.83 309.859 L2209.6 309.859 M2218.09 308.1 L2218.09 322.892 L2213.83 322.892 L2213.83 318.957 Q2212.38 321.318 2210.2 322.452 Q2208.02 323.563 2204.88 323.563 Q2200.89 323.563 2198.53 321.341 Q2196.19 319.095 2196.19 315.345 Q2196.19 310.97 2199.11 308.748 Q2202.05 306.526 2207.86 306.526 L2213.83 306.526 L2213.83 306.109 Q2213.83 303.17 2211.89 301.572 Q2209.97 299.952 2206.47 299.952 Q2204.25 299.952 2202.14 300.484 Q2200.04 301.017 2198.09 302.082 L2198.09 298.146 Q2200.43 297.244 2202.63 296.804 Q2204.83 296.341 2206.91 296.341 Q2212.54 296.341 2215.31 299.258 Q2218.09 302.174 2218.09 308.1 Z" fill="#000000" fill-rule="nonzero" fill-opacity="1" /><path clip-path="url(#clip220)" d="M2248.42 307.244 L2248.42 322.892 L2244.16 322.892 L2244.16 307.383 Q2244.16 303.702 2242.72 301.873 Q2241.29 300.045 2238.42 300.045 Q2234.97 300.045 2232.98 302.244 Q2230.99 304.443 2230.99 308.239 L2230.99 322.892 L2226.7 322.892 L2226.7 296.966 L2230.99 296.966 L2230.99 300.994 Q2232.51 298.656 2234.57 297.498 Q2236.66 296.341 2239.37 296.341 Q2243.83 296.341 2246.12 299.119 Q2248.42 301.873 2248.42 307.244 Z" fill="#000000" fill-rule="nonzero" fill-opacity="1" /></svg>
