<?xml version="1.0" encoding="utf-8"?>
<svg xmlns="http://www.w3.org/2000/svg" xmlns:xlink="http://www.w3.org/1999/xlink" width="600" height="400" viewBox="0 0 2400 1600">
<defs>
  <clipPath id="clip980">
    <rect x="0" y="0" width="2400" height="1600"/>
  </clipPath>
</defs>
<path clip-path="url(#clip980)" d="M0 1600 L2400 1600 L2400 8.88178e-14 L0 8.88178e-14  Z" fill="#ffffff" fill-rule="evenodd" fill-opacity="1"/>
<defs>
  <clipPath id="clip981">
    <rect x="234" y="106" width="2120" height="1318"/>
  </clipPath>
</defs>
<path clip-path="url(#clip980)" d="M205.121 1423.18 L2352.76 1423.18 L2352.76 106.192 L205.121 106.192  Z" fill="#ffffff" fill-rule="evenodd" fill-opacity="1"/>
<defs>
  <clipPath id="clip982">
    <rect x="205" y="106" width="2149" height="1318"/>
  </clipPath>
</defs>
<polyline clip-path="url(#clip982)" style="stroke:#000000; stroke-linecap:round; stroke-linejoin:round; stroke-width:2; stroke-opacity:0.1; fill:none" points="459.772,1423.18 459.772,106.192 "/>
<polyline clip-path="url(#clip982)" style="stroke:#000000; stroke-linecap:round; stroke-linejoin:round; stroke-width:2; stroke-opacity:0.1; fill:none" points="801.092,1423.18 801.092,106.192 "/>
<polyline clip-path="url(#clip982)" style="stroke:#000000; stroke-linecap:round; stroke-linejoin:round; stroke-width:2; stroke-opacity:0.1; fill:none" points="1142.41,1423.18 1142.41,106.192 "/>
<polyline clip-path="url(#clip982)" style="stroke:#000000; stroke-linecap:round; stroke-linejoin:round; stroke-width:2; stroke-opacity:0.1; fill:none" points="1483.73,1423.18 1483.73,106.192 "/>
<polyline clip-path="url(#clip982)" style="stroke:#000000; stroke-linecap:round; stroke-linejoin:round; stroke-width:2; stroke-opacity:0.1; fill:none" points="1825.05,1423.18 1825.05,106.192 "/>
<polyline clip-path="url(#clip982)" style="stroke:#000000; stroke-linecap:round; stroke-linejoin:round; stroke-width:2; stroke-opacity:0.1; fill:none" points="2166.37,1423.18 2166.37,106.192 "/>
<polyline clip-path="url(#clip982)" style="stroke:#000000; stroke-linecap:round; stroke-linejoin:round; stroke-width:2; stroke-opacity:0.1; fill:none" points="205.121,1423.18 2352.76,1423.18 "/>
<polyline clip-path="url(#clip982)" style="stroke:#000000; stroke-linecap:round; stroke-linejoin:round; stroke-width:2; stroke-opacity:0.1; fill:none" points="205.121,1183.73 2352.76,1183.73 "/>
<polyline clip-path="url(#clip982)" style="stroke:#000000; stroke-linecap:round; stroke-linejoin:round; stroke-width:2; stroke-opacity:0.1; fill:none" points="205.121,944.275 2352.76,944.275 "/>
<polyline clip-path="url(#clip982)" style="stroke:#000000; stroke-linecap:round; stroke-linejoin:round; stroke-width:2; stroke-opacity:0.1; fill:none" points="205.121,704.823 2352.76,704.823 "/>
<polyline clip-path="url(#clip982)" style="stroke:#000000; stroke-linecap:round; stroke-linejoin:round; stroke-width:2; stroke-opacity:0.1; fill:none" points="205.121,465.371 2352.76,465.371 "/>
<polyline clip-path="url(#clip982)" style="stroke:#000000; stroke-linecap:round; stroke-linejoin:round; stroke-width:2; stroke-opacity:0.1; fill:none" points="205.121,225.918 2352.76,225.918 "/>
<polyline clip-path="url(#clip980)" style="stroke:#000000; stroke-linecap:round; stroke-linejoin:round; stroke-width:4; stroke-opacity:1; fill:none" points="205.121,1423.18 2352.76,1423.18 "/>
<polyline clip-path="url(#clip980)" style="stroke:#000000; stroke-linecap:round; stroke-linejoin:round; stroke-width:4; stroke-opacity:1; fill:none" points="459.772,1423.18 459.772,1404.28 "/>
<polyline clip-path="url(#clip980)" style="stroke:#000000; stroke-linecap:round; stroke-linejoin:round; stroke-width:4; stroke-opacity:1; fill:none" points="801.092,1423.18 801.092,1404.28 "/>
<polyline clip-path="url(#clip980)" style="stroke:#000000; stroke-linecap:round; stroke-linejoin:round; stroke-width:4; stroke-opacity:1; fill:none" points="1142.41,1423.18 1142.41,1404.28 "/>
<polyline clip-path="url(#clip980)" style="stroke:#000000; stroke-linecap:round; stroke-linejoin:round; stroke-width:4; stroke-opacity:1; fill:none" points="1483.73,1423.18 1483.73,1404.28 "/>
<polyline clip-path="url(#clip980)" style="stroke:#000000; stroke-linecap:round; stroke-linejoin:round; stroke-width:4; stroke-opacity:1; fill:none" points="1825.05,1423.18 1825.05,1404.28 "/>
<polyline clip-path="url(#clip980)" style="stroke:#000000; stroke-linecap:round; stroke-linejoin:round; stroke-width:4; stroke-opacity:1; fill:none" points="2166.37,1423.18 2166.37,1404.28 "/>
<path clip-path="url(#clip980)" d="M419.379 1481.64 L427.018 1481.64 L427.018 1455.28 L418.708 1456.95 L418.708 1452.69 L426.972 1451.02 L431.648 1451.02 L431.648 1481.64 L439.286 1481.64 L439.286 1485.58 L419.379 1485.58 L419.379 1481.64 Z" fill="#000000" fill-rule="nonzero" fill-opacity="1" /><path clip-path="url(#clip980)" d="M458.731 1454.1 Q455.12 1454.1 453.291 1457.66 Q451.485 1461.2 451.485 1468.33 Q451.485 1475.44 453.291 1479.01 Q455.12 1482.55 458.731 1482.55 Q462.365 1482.55 464.171 1479.01 Q465.999 1475.44 465.999 1468.33 Q465.999 1461.2 464.171 1457.66 Q462.365 1454.1 458.731 1454.1 M458.731 1450.39 Q464.541 1450.39 467.596 1455 Q470.675 1459.58 470.675 1468.33 Q470.675 1477.06 467.596 1481.67 Q464.541 1486.25 458.731 1486.25 Q452.921 1486.25 449.842 1481.67 Q446.786 1477.06 446.786 1468.33 Q446.786 1459.58 449.842 1455 Q452.921 1450.39 458.731 1450.39 Z" fill="#000000" fill-rule="nonzero" fill-opacity="1" /><path clip-path="url(#clip980)" d="M488.893 1454.1 Q485.282 1454.1 483.453 1457.66 Q481.647 1461.2 481.647 1468.33 Q481.647 1475.44 483.453 1479.01 Q485.282 1482.55 488.893 1482.55 Q492.527 1482.55 494.332 1479.01 Q496.161 1475.44 496.161 1468.33 Q496.161 1461.2 494.332 1457.66 Q492.527 1454.1 488.893 1454.1 M488.893 1450.39 Q494.703 1450.39 497.758 1455 Q500.837 1459.58 500.837 1468.33 Q500.837 1477.06 497.758 1481.67 Q494.703 1486.25 488.893 1486.25 Q483.082 1486.25 480.004 1481.67 Q476.948 1477.06 476.948 1468.33 Q476.948 1459.58 480.004 1455 Q483.082 1450.39 488.893 1450.39 Z" fill="#000000" fill-rule="nonzero" fill-opacity="1" /><path clip-path="url(#clip980)" d="M764.784 1481.64 L781.103 1481.64 L781.103 1485.58 L759.159 1485.58 L759.159 1481.64 Q761.821 1478.89 766.404 1474.26 Q771.011 1469.61 772.191 1468.27 Q774.437 1465.74 775.316 1464.01 Q776.219 1462.25 776.219 1460.56 Q776.219 1457.8 774.275 1456.07 Q772.353 1454.33 769.251 1454.33 Q767.052 1454.33 764.599 1455.09 Q762.168 1455.86 759.39 1457.41 L759.39 1452.69 Q762.214 1451.55 764.668 1450.97 Q767.122 1450.39 769.159 1450.39 Q774.529 1450.39 777.724 1453.08 Q780.918 1455.77 780.918 1460.26 Q780.918 1462.39 780.108 1464.31 Q779.321 1466.2 777.214 1468.8 Q776.636 1469.47 773.534 1472.69 Q770.432 1475.88 764.784 1481.64 Z" fill="#000000" fill-rule="nonzero" fill-opacity="1" /><path clip-path="url(#clip980)" d="M800.918 1454.1 Q797.307 1454.1 795.478 1457.66 Q793.673 1461.2 793.673 1468.33 Q793.673 1475.44 795.478 1479.01 Q797.307 1482.55 800.918 1482.55 Q804.552 1482.55 806.358 1479.01 Q808.186 1475.44 808.186 1468.33 Q808.186 1461.2 806.358 1457.66 Q804.552 1454.1 800.918 1454.1 M800.918 1450.39 Q806.728 1450.39 809.784 1455 Q812.862 1459.58 812.862 1468.33 Q812.862 1477.06 809.784 1481.67 Q806.728 1486.25 800.918 1486.25 Q795.108 1486.25 792.029 1481.67 Q788.974 1477.06 788.974 1468.33 Q788.974 1459.58 792.029 1455 Q795.108 1450.39 800.918 1450.39 Z" fill="#000000" fill-rule="nonzero" fill-opacity="1" /><path clip-path="url(#clip980)" d="M831.08 1454.1 Q827.469 1454.1 825.64 1457.66 Q823.835 1461.2 823.835 1468.33 Q823.835 1475.44 825.64 1479.01 Q827.469 1482.55 831.08 1482.55 Q834.714 1482.55 836.52 1479.01 Q838.348 1475.44 838.348 1468.33 Q838.348 1461.2 836.52 1457.66 Q834.714 1454.1 831.08 1454.1 M831.08 1450.39 Q836.89 1450.39 839.946 1455 Q843.024 1459.58 843.024 1468.33 Q843.024 1477.06 839.946 1481.67 Q836.89 1486.25 831.08 1486.25 Q825.27 1486.25 822.191 1481.67 Q819.135 1477.06 819.135 1468.33 Q819.135 1459.58 822.191 1455 Q825.27 1450.39 831.08 1450.39 Z" fill="#000000" fill-rule="nonzero" fill-opacity="1" /><path clip-path="url(#clip980)" d="M1116.17 1466.95 Q1119.53 1467.66 1121.4 1469.93 Q1123.3 1472.2 1123.3 1475.53 Q1123.3 1480.65 1119.78 1483.45 Q1116.27 1486.25 1109.78 1486.25 Q1107.61 1486.25 1105.29 1485.81 Q1103 1485.39 1100.55 1484.54 L1100.55 1480.02 Q1102.49 1481.16 1104.81 1481.74 Q1107.12 1482.32 1109.64 1482.32 Q1114.04 1482.32 1116.33 1480.58 Q1118.65 1478.84 1118.65 1475.53 Q1118.65 1472.48 1116.5 1470.77 Q1114.37 1469.03 1110.55 1469.03 L1106.52 1469.03 L1106.52 1465.19 L1110.73 1465.19 Q1114.18 1465.19 1116.01 1463.82 Q1117.84 1462.43 1117.84 1459.84 Q1117.84 1457.18 1115.94 1455.77 Q1114.07 1454.33 1110.55 1454.33 Q1108.63 1454.33 1106.43 1454.75 Q1104.23 1455.16 1101.59 1456.04 L1101.59 1451.88 Q1104.25 1451.14 1106.57 1450.77 Q1108.9 1450.39 1110.96 1450.39 Q1116.29 1450.39 1119.39 1452.83 Q1122.49 1455.23 1122.49 1459.35 Q1122.49 1462.22 1120.85 1464.21 Q1119.2 1466.18 1116.17 1466.95 Z" fill="#000000" fill-rule="nonzero" fill-opacity="1" /><path clip-path="url(#clip980)" d="M1142.17 1454.1 Q1138.56 1454.1 1136.73 1457.66 Q1134.92 1461.2 1134.92 1468.33 Q1134.92 1475.44 1136.73 1479.01 Q1138.56 1482.55 1142.17 1482.55 Q1145.8 1482.55 1147.61 1479.01 Q1149.44 1475.44 1149.44 1468.33 Q1149.44 1461.2 1147.61 1457.66 Q1145.8 1454.1 1142.17 1454.1 M1142.17 1450.39 Q1147.98 1450.39 1151.03 1455 Q1154.11 1459.58 1154.11 1468.33 Q1154.11 1477.06 1151.03 1481.67 Q1147.98 1486.25 1142.17 1486.25 Q1136.36 1486.25 1133.28 1481.67 Q1130.22 1477.06 1130.22 1468.33 Q1130.22 1459.58 1133.28 1455 Q1136.36 1450.39 1142.17 1450.39 Z" fill="#000000" fill-rule="nonzero" fill-opacity="1" /><path clip-path="url(#clip980)" d="M1172.33 1454.1 Q1168.72 1454.1 1166.89 1457.66 Q1165.08 1461.2 1165.08 1468.33 Q1165.08 1475.44 1166.89 1479.01 Q1168.72 1482.55 1172.33 1482.55 Q1175.96 1482.55 1177.77 1479.01 Q1179.6 1475.44 1179.6 1468.33 Q1179.6 1461.2 1177.77 1457.66 Q1175.96 1454.1 1172.33 1454.1 M1172.33 1450.39 Q1178.14 1450.39 1181.2 1455 Q1184.27 1459.58 1184.27 1468.33 Q1184.27 1477.06 1181.2 1481.67 Q1178.14 1486.25 1172.33 1486.25 Q1166.52 1486.25 1163.44 1481.67 Q1160.39 1477.06 1160.39 1468.33 Q1160.39 1459.58 1163.44 1455 Q1166.52 1450.39 1172.33 1450.39 Z" fill="#000000" fill-rule="nonzero" fill-opacity="1" /><path clip-path="url(#clip980)" d="M1456.82 1455.09 L1445.01 1473.54 L1456.82 1473.54 L1456.82 1455.09 M1455.59 1451.02 L1461.47 1451.02 L1461.47 1473.54 L1466.4 1473.54 L1466.4 1477.43 L1461.47 1477.43 L1461.47 1485.58 L1456.82 1485.58 L1456.82 1477.43 L1441.22 1477.43 L1441.22 1472.92 L1455.59 1451.02 Z" fill="#000000" fill-rule="nonzero" fill-opacity="1" /><path clip-path="url(#clip980)" d="M1484.14 1454.1 Q1480.52 1454.1 1478.7 1457.66 Q1476.89 1461.2 1476.89 1468.33 Q1476.89 1475.44 1478.7 1479.01 Q1480.52 1482.55 1484.14 1482.55 Q1487.77 1482.55 1489.57 1479.01 Q1491.4 1475.44 1491.4 1468.33 Q1491.4 1461.2 1489.57 1457.66 Q1487.77 1454.1 1484.14 1454.1 M1484.14 1450.39 Q1489.95 1450.39 1493 1455 Q1496.08 1459.58 1496.08 1468.33 Q1496.08 1477.06 1493 1481.67 Q1489.95 1486.25 1484.14 1486.25 Q1478.32 1486.25 1475.25 1481.67 Q1472.19 1477.06 1472.19 1468.33 Q1472.19 1459.58 1475.25 1455 Q1478.32 1450.39 1484.14 1450.39 Z" fill="#000000" fill-rule="nonzero" fill-opacity="1" /><path clip-path="url(#clip980)" d="M1514.3 1454.1 Q1510.69 1454.1 1508.86 1457.66 Q1507.05 1461.2 1507.05 1468.33 Q1507.05 1475.44 1508.86 1479.01 Q1510.69 1482.55 1514.3 1482.55 Q1517.93 1482.55 1519.74 1479.01 Q1521.57 1475.44 1521.57 1468.33 Q1521.57 1461.2 1519.74 1457.66 Q1517.93 1454.1 1514.3 1454.1 M1514.3 1450.39 Q1520.11 1450.39 1523.16 1455 Q1526.24 1459.58 1526.24 1468.33 Q1526.24 1477.06 1523.16 1481.67 Q1520.11 1486.25 1514.3 1486.25 Q1508.49 1486.25 1505.41 1481.67 Q1502.35 1477.06 1502.35 1468.33 Q1502.35 1459.58 1505.41 1455 Q1508.49 1450.39 1514.3 1450.39 Z" fill="#000000" fill-rule="nonzero" fill-opacity="1" /><path clip-path="url(#clip980)" d="M1784.67 1451.02 L1803.02 1451.02 L1803.02 1454.96 L1788.95 1454.96 L1788.95 1463.43 Q1789.97 1463.08 1790.99 1462.92 Q1792.01 1462.73 1793.02 1462.73 Q1798.81 1462.73 1802.19 1465.9 Q1805.57 1469.08 1805.57 1474.49 Q1805.57 1480.07 1802.1 1483.17 Q1798.63 1486.25 1792.31 1486.25 Q1790.13 1486.25 1787.86 1485.88 Q1785.62 1485.51 1783.21 1484.77 L1783.21 1480.07 Q1785.29 1481.2 1787.51 1481.76 Q1789.74 1482.32 1792.21 1482.32 Q1796.22 1482.32 1798.56 1480.21 Q1800.89 1478.1 1800.89 1474.49 Q1800.89 1470.88 1798.56 1468.77 Q1796.22 1466.67 1792.21 1466.67 Q1790.34 1466.67 1788.46 1467.08 Q1786.61 1467.5 1784.67 1468.38 L1784.67 1451.02 Z" fill="#000000" fill-rule="nonzero" fill-opacity="1" /><path clip-path="url(#clip980)" d="M1824.78 1454.1 Q1821.17 1454.1 1819.34 1457.66 Q1817.54 1461.2 1817.54 1468.33 Q1817.54 1475.44 1819.34 1479.01 Q1821.17 1482.55 1824.78 1482.55 Q1828.42 1482.55 1830.22 1479.01 Q1832.05 1475.44 1832.05 1468.33 Q1832.05 1461.2 1830.22 1457.66 Q1828.42 1454.1 1824.78 1454.1 M1824.78 1450.39 Q1830.59 1450.39 1833.65 1455 Q1836.73 1459.58 1836.73 1468.33 Q1836.73 1477.06 1833.65 1481.67 Q1830.59 1486.25 1824.78 1486.25 Q1818.97 1486.25 1815.89 1481.67 Q1812.84 1477.06 1812.84 1468.33 Q1812.84 1459.58 1815.89 1455 Q1818.97 1450.39 1824.78 1450.39 Z" fill="#000000" fill-rule="nonzero" fill-opacity="1" /><path clip-path="url(#clip980)" d="M1854.94 1454.1 Q1851.33 1454.1 1849.51 1457.66 Q1847.7 1461.2 1847.7 1468.33 Q1847.7 1475.44 1849.51 1479.01 Q1851.33 1482.55 1854.94 1482.55 Q1858.58 1482.55 1860.38 1479.01 Q1862.21 1475.44 1862.21 1468.33 Q1862.21 1461.2 1860.38 1457.66 Q1858.58 1454.1 1854.94 1454.1 M1854.94 1450.39 Q1860.75 1450.39 1863.81 1455 Q1866.89 1459.58 1866.89 1468.33 Q1866.89 1477.06 1863.81 1481.67 Q1860.75 1486.25 1854.94 1486.25 Q1849.13 1486.25 1846.06 1481.67 Q1843 1477.06 1843 1468.33 Q1843 1459.58 1846.06 1455 Q1849.13 1450.39 1854.94 1450.39 Z" fill="#000000" fill-rule="nonzero" fill-opacity="1" /><path clip-path="url(#clip980)" d="M2136.69 1466.44 Q2133.54 1466.44 2131.69 1468.59 Q2129.86 1470.74 2129.86 1474.49 Q2129.86 1478.22 2131.69 1480.39 Q2133.54 1482.55 2136.69 1482.55 Q2139.84 1482.55 2141.67 1480.39 Q2143.52 1478.22 2143.52 1474.49 Q2143.52 1470.74 2141.67 1468.59 Q2139.84 1466.44 2136.69 1466.44 M2145.97 1451.78 L2145.97 1456.04 Q2144.22 1455.21 2142.41 1454.77 Q2140.63 1454.33 2138.87 1454.33 Q2134.24 1454.33 2131.79 1457.45 Q2129.35 1460.58 2129.01 1466.9 Q2130.37 1464.89 2132.43 1463.82 Q2134.49 1462.73 2136.97 1462.73 Q2142.18 1462.73 2145.19 1465.9 Q2148.22 1469.05 2148.22 1474.49 Q2148.22 1479.82 2145.07 1483.03 Q2141.92 1486.25 2136.69 1486.25 Q2130.7 1486.25 2127.53 1481.67 Q2124.35 1477.06 2124.35 1468.33 Q2124.35 1460.14 2128.24 1455.28 Q2132.13 1450.39 2138.68 1450.39 Q2140.44 1450.39 2142.22 1450.74 Q2144.03 1451.09 2145.97 1451.78 Z" fill="#000000" fill-rule="nonzero" fill-opacity="1" /><path clip-path="url(#clip980)" d="M2166.28 1454.1 Q2162.66 1454.1 2160.84 1457.66 Q2159.03 1461.2 2159.03 1468.33 Q2159.03 1475.44 2160.84 1479.01 Q2162.66 1482.55 2166.28 1482.55 Q2169.91 1482.55 2171.72 1479.01 Q2173.54 1475.44 2173.54 1468.33 Q2173.54 1461.2 2171.72 1457.66 Q2169.91 1454.1 2166.28 1454.1 M2166.28 1450.39 Q2172.09 1450.39 2175.14 1455 Q2178.22 1459.58 2178.22 1468.33 Q2178.22 1477.06 2175.14 1481.67 Q2172.09 1486.25 2166.28 1486.25 Q2160.47 1486.25 2157.39 1481.67 Q2154.33 1477.06 2154.33 1468.33 Q2154.33 1459.58 2157.39 1455 Q2160.47 1450.39 2166.28 1450.39 Z" fill="#000000" fill-rule="nonzero" fill-opacity="1" /><path clip-path="url(#clip980)" d="M2196.44 1454.1 Q2192.83 1454.1 2191 1457.66 Q2189.19 1461.2 2189.19 1468.33 Q2189.19 1475.44 2191 1479.01 Q2192.83 1482.55 2196.44 1482.55 Q2200.07 1482.55 2201.88 1479.01 Q2203.71 1475.44 2203.71 1468.33 Q2203.71 1461.2 2201.88 1457.66 Q2200.07 1454.1 2196.44 1454.1 M2196.44 1450.39 Q2202.25 1450.39 2205.3 1455 Q2208.38 1459.58 2208.38 1468.33 Q2208.38 1477.06 2205.3 1481.67 Q2202.25 1486.25 2196.44 1486.25 Q2190.63 1486.25 2187.55 1481.67 Q2184.49 1477.06 2184.49 1468.33 Q2184.49 1459.58 2187.55 1455 Q2190.63 1450.39 2196.44 1450.39 Z" fill="#000000" fill-rule="nonzero" fill-opacity="1" /><path clip-path="url(#clip980)" d="M1051.36 1520.52 L1091.56 1520.52 L1091.56 1525.93 L1074.69 1525.93 L1074.69 1568.04 L1068.23 1568.04 L1068.23 1525.93 L1051.36 1525.93 L1051.36 1520.52 Z" fill="#000000" fill-rule="nonzero" fill-opacity="1" /><path clip-path="url(#clip980)" d="M1116.93 1548.76 L1116.93 1551.62 L1090 1551.62 Q1090.39 1557.67 1093.63 1560.85 Q1096.91 1564 1102.74 1564 Q1106.11 1564 1109.26 1563.17 Q1112.44 1562.35 1115.56 1560.69 L1115.56 1566.23 Q1112.41 1567.57 1109.1 1568.27 Q1105.79 1568.97 1102.39 1568.97 Q1093.86 1568.97 1088.86 1564 Q1083.89 1559.04 1083.89 1550.57 Q1083.89 1541.82 1088.6 1536.69 Q1093.35 1531.54 1101.37 1531.54 Q1108.56 1531.54 1112.73 1536.18 Q1116.93 1540.8 1116.93 1548.76 M1111.07 1547.04 Q1111.01 1542.23 1108.37 1539.37 Q1105.76 1536.5 1101.43 1536.5 Q1096.53 1536.5 1093.57 1539.27 Q1090.64 1542.04 1090.2 1547.07 L1111.07 1547.04 Z" fill="#000000" fill-rule="nonzero" fill-opacity="1" /><path clip-path="url(#clip980)" d="M1147.2 1537.87 Q1146.21 1537.3 1145.04 1537.04 Q1143.89 1536.76 1142.49 1536.76 Q1137.52 1536.76 1134.85 1540 Q1132.21 1543.22 1132.21 1549.27 L1132.21 1568.04 L1126.32 1568.04 L1126.32 1532.4 L1132.21 1532.4 L1132.21 1537.93 Q1134.05 1534.69 1137.02 1533.13 Q1139.98 1531.54 1144.21 1531.54 Q1144.81 1531.54 1145.55 1531.63 Q1146.28 1531.7 1147.17 1531.85 L1147.2 1537.87 Z" fill="#000000" fill-rule="nonzero" fill-opacity="1" /><path clip-path="url(#clip980)" d="M1179.95 1539.24 Q1182.15 1535.29 1185.2 1533.41 Q1188.26 1531.54 1192.4 1531.54 Q1197.97 1531.54 1200.99 1535.45 Q1204.01 1539.33 1204.01 1546.53 L1204.01 1568.04 L1198.13 1568.04 L1198.13 1546.72 Q1198.13 1541.59 1196.31 1539.11 Q1194.5 1536.63 1190.77 1536.63 Q1186.22 1536.63 1183.58 1539.65 Q1180.94 1542.68 1180.94 1547.9 L1180.94 1568.04 L1175.05 1568.04 L1175.05 1546.72 Q1175.05 1541.56 1173.24 1539.11 Q1171.42 1536.63 1167.63 1536.63 Q1163.15 1536.63 1160.5 1539.68 Q1157.86 1542.71 1157.86 1547.9 L1157.86 1568.04 L1151.97 1568.04 L1151.97 1532.4 L1157.86 1532.4 L1157.86 1537.93 Q1159.87 1534.66 1162.67 1533.1 Q1165.47 1531.54 1169.32 1531.54 Q1173.2 1531.54 1175.91 1533.51 Q1178.65 1535.48 1179.95 1539.24 Z" fill="#000000" fill-rule="nonzero" fill-opacity="1" /><path clip-path="url(#clip980)" d="M1215.7 1532.4 L1221.55 1532.4 L1221.55 1568.04 L1215.7 1568.04 L1215.7 1532.4 M1215.7 1518.52 L1221.55 1518.52 L1221.55 1525.93 L1215.7 1525.93 L1215.7 1518.52 Z" fill="#000000" fill-rule="nonzero" fill-opacity="1" /><path clip-path="url(#clip980)" d="M1263.44 1546.53 L1263.44 1568.04 L1257.58 1568.04 L1257.58 1546.72 Q1257.58 1541.66 1255.61 1539.14 Q1253.63 1536.63 1249.69 1536.63 Q1244.95 1536.63 1242.21 1539.65 Q1239.47 1542.68 1239.47 1547.9 L1239.47 1568.04 L1233.58 1568.04 L1233.58 1532.4 L1239.47 1532.4 L1239.47 1537.93 Q1241.57 1534.72 1244.4 1533.13 Q1247.27 1531.54 1250.99 1531.54 Q1257.14 1531.54 1260.29 1535.36 Q1263.44 1539.14 1263.44 1546.53 Z" fill="#000000" fill-rule="nonzero" fill-opacity="1" /><path clip-path="url(#clip980)" d="M1291.32 1550.12 Q1284.22 1550.12 1281.48 1551.75 Q1278.75 1553.37 1278.75 1557.29 Q1278.75 1560.4 1280.78 1562.25 Q1282.85 1564.07 1286.39 1564.07 Q1291.26 1564.07 1294.18 1560.63 Q1297.14 1557.16 1297.14 1551.43 L1297.14 1550.12 L1291.32 1550.12 M1303 1547.71 L1303 1568.04 L1297.14 1568.04 L1297.14 1562.63 Q1295.14 1565.88 1292.15 1567.44 Q1289.16 1568.97 1284.83 1568.97 Q1279.35 1568.97 1276.11 1565.91 Q1272.89 1562.82 1272.89 1557.67 Q1272.89 1551.65 1276.9 1548.6 Q1280.94 1545.54 1288.93 1545.54 L1297.14 1545.54 L1297.14 1544.97 Q1297.14 1540.93 1294.47 1538.73 Q1291.83 1536.5 1287.02 1536.5 Q1283.97 1536.5 1281.07 1537.23 Q1278.17 1537.97 1275.5 1539.43 L1275.5 1534.02 Q1278.72 1532.78 1281.74 1532.17 Q1284.76 1531.54 1287.63 1531.54 Q1295.36 1531.54 1299.18 1535.55 Q1303 1539.56 1303 1547.71 Z" fill="#000000" fill-rule="nonzero" fill-opacity="1" /><path clip-path="url(#clip980)" d="M1315.06 1518.52 L1320.92 1518.52 L1320.92 1568.04 L1315.06 1568.04 L1315.06 1518.52 Z" fill="#000000" fill-rule="nonzero" fill-opacity="1" /><path clip-path="url(#clip980)" d="M1359.56 1562.7 L1359.56 1581.6 L1353.67 1581.6 L1353.67 1532.4 L1359.56 1532.4 L1359.56 1537.81 Q1361.41 1534.62 1364.21 1533.1 Q1367.04 1531.54 1370.95 1531.54 Q1377.45 1531.54 1381.49 1536.69 Q1385.56 1541.85 1385.56 1550.25 Q1385.56 1558.65 1381.49 1563.81 Q1377.45 1568.97 1370.95 1568.97 Q1367.04 1568.97 1364.21 1567.44 Q1361.41 1565.88 1359.56 1562.7 M1379.48 1550.25 Q1379.48 1543.79 1376.81 1540.13 Q1374.17 1536.44 1369.52 1536.44 Q1364.88 1536.44 1362.2 1540.13 Q1359.56 1543.79 1359.56 1550.25 Q1359.56 1556.71 1362.2 1560.4 Q1364.88 1564.07 1369.52 1564.07 Q1374.17 1564.07 1376.81 1560.4 Q1379.48 1556.71 1379.48 1550.25 Z" fill="#000000" fill-rule="nonzero" fill-opacity="1" /><path clip-path="url(#clip980)" d="M1415.93 1537.87 Q1414.94 1537.3 1413.76 1537.04 Q1412.62 1536.76 1411.22 1536.76 Q1406.25 1536.76 1403.58 1540 Q1400.94 1543.22 1400.94 1549.27 L1400.94 1568.04 L1395.05 1568.04 L1395.05 1532.4 L1400.94 1532.4 L1400.94 1537.93 Q1402.78 1534.69 1405.74 1533.13 Q1408.7 1531.54 1412.94 1531.54 Q1413.54 1531.54 1414.27 1531.63 Q1415.01 1531.7 1415.9 1531.85 L1415.93 1537.87 Z" fill="#000000" fill-rule="nonzero" fill-opacity="1" /><path clip-path="url(#clip980)" d="M1422.07 1532.4 L1427.93 1532.4 L1427.93 1568.04 L1422.07 1568.04 L1422.07 1532.4 M1422.07 1518.52 L1427.93 1518.52 L1427.93 1525.93 L1422.07 1525.93 L1422.07 1518.52 Z" fill="#000000" fill-rule="nonzero" fill-opacity="1" /><path clip-path="url(#clip980)" d="M1465.84 1533.76 L1465.84 1539.24 Q1463.35 1537.87 1460.84 1537.2 Q1458.36 1536.5 1455.81 1536.5 Q1450.11 1536.5 1446.96 1540.13 Q1443.81 1543.73 1443.81 1550.25 Q1443.81 1556.78 1446.96 1560.4 Q1450.11 1564 1455.81 1564 Q1458.36 1564 1460.84 1563.33 Q1463.35 1562.63 1465.84 1561.26 L1465.84 1566.68 Q1463.38 1567.82 1460.74 1568.39 Q1458.13 1568.97 1455.17 1568.97 Q1447.12 1568.97 1442.38 1563.91 Q1437.64 1558.85 1437.64 1550.25 Q1437.64 1541.53 1442.41 1536.53 Q1447.22 1531.54 1455.55 1531.54 Q1458.26 1531.54 1460.84 1532.11 Q1463.42 1532.65 1465.84 1533.76 Z" fill="#000000" fill-rule="nonzero" fill-opacity="1" /><path clip-path="url(#clip980)" d="M1506.51 1548.76 L1506.51 1551.62 L1479.59 1551.62 Q1479.97 1557.67 1483.21 1560.85 Q1486.49 1564 1492.32 1564 Q1495.69 1564 1498.84 1563.17 Q1502.02 1562.35 1505.14 1560.69 L1505.14 1566.23 Q1501.99 1567.57 1498.68 1568.27 Q1495.37 1568.97 1491.97 1568.97 Q1483.44 1568.97 1478.44 1564 Q1473.47 1559.04 1473.47 1550.57 Q1473.47 1541.82 1478.19 1536.69 Q1482.93 1531.54 1490.95 1531.54 Q1498.14 1531.54 1502.31 1536.18 Q1506.51 1540.8 1506.51 1548.76 M1500.66 1547.04 Q1500.59 1542.23 1497.95 1539.37 Q1495.34 1536.5 1491.01 1536.5 Q1486.11 1536.5 1483.15 1539.27 Q1480.22 1542.04 1479.78 1547.07 L1500.66 1547.04 Z" fill="#000000" fill-rule="nonzero" fill-opacity="1" /><polyline clip-path="url(#clip980)" style="stroke:#000000; stroke-linecap:round; stroke-linejoin:round; stroke-width:4; stroke-opacity:1; fill:none" points="205.121,1423.18 205.121,106.192 "/>
<polyline clip-path="url(#clip980)" style="stroke:#000000; stroke-linecap:round; stroke-linejoin:round; stroke-width:4; stroke-opacity:1; fill:none" points="205.121,1423.18 224.019,1423.18 "/>
<polyline clip-path="url(#clip980)" style="stroke:#000000; stroke-linecap:round; stroke-linejoin:round; stroke-width:4; stroke-opacity:1; fill:none" points="205.121,1183.73 224.019,1183.73 "/>
<polyline clip-path="url(#clip980)" style="stroke:#000000; stroke-linecap:round; stroke-linejoin:round; stroke-width:4; stroke-opacity:1; fill:none" points="205.121,944.275 224.019,944.275 "/>
<polyline clip-path="url(#clip980)" style="stroke:#000000; stroke-linecap:round; stroke-linejoin:round; stroke-width:4; stroke-opacity:1; fill:none" points="205.121,704.823 224.019,704.823 "/>
<polyline clip-path="url(#clip980)" style="stroke:#000000; stroke-linecap:round; stroke-linejoin:round; stroke-width:4; stroke-opacity:1; fill:none" points="205.121,465.371 224.019,465.371 "/>
<polyline clip-path="url(#clip980)" style="stroke:#000000; stroke-linecap:round; stroke-linejoin:round; stroke-width:4; stroke-opacity:1; fill:none" points="205.121,225.918 224.019,225.918 "/>
<path clip-path="url(#clip980)" d="M157.177 1408.98 Q153.566 1408.98 151.737 1412.54 Q149.931 1416.08 149.931 1423.21 Q149.931 1430.32 151.737 1433.89 Q153.566 1437.43 157.177 1437.43 Q160.811 1437.43 162.616 1433.89 Q164.445 1430.32 164.445 1423.21 Q164.445 1416.08 162.616 1412.54 Q160.811 1408.98 157.177 1408.98 M157.177 1405.27 Q162.987 1405.27 166.042 1409.88 Q169.121 1414.46 169.121 1423.21 Q169.121 1431.94 166.042 1436.55 Q162.987 1441.13 157.177 1441.13 Q151.366 1441.13 148.288 1436.55 Q145.232 1431.94 145.232 1423.21 Q145.232 1414.46 148.288 1409.88 Q151.366 1405.27 157.177 1405.27 Z" fill="#000000" fill-rule="nonzero" fill-opacity="1" /><path clip-path="url(#clip980)" d="M117.825 1197.07 L125.464 1197.07 L125.464 1170.71 L117.154 1172.37 L117.154 1168.11 L125.418 1166.45 L130.093 1166.45 L130.093 1197.07 L137.732 1197.07 L137.732 1201.01 L117.825 1201.01 L117.825 1197.07 Z" fill="#000000" fill-rule="nonzero" fill-opacity="1" /><path clip-path="url(#clip980)" d="M157.177 1169.53 Q153.566 1169.53 151.737 1173.09 Q149.931 1176.63 149.931 1183.76 Q149.931 1190.87 151.737 1194.43 Q153.566 1197.98 157.177 1197.98 Q160.811 1197.98 162.616 1194.43 Q164.445 1190.87 164.445 1183.76 Q164.445 1176.63 162.616 1173.09 Q160.811 1169.53 157.177 1169.53 M157.177 1165.82 Q162.987 1165.82 166.042 1170.43 Q169.121 1175.01 169.121 1183.76 Q169.121 1192.49 166.042 1197.1 Q162.987 1201.68 157.177 1201.68 Q151.366 1201.68 148.288 1197.1 Q145.232 1192.49 145.232 1183.76 Q145.232 1175.01 148.288 1170.43 Q151.366 1165.82 157.177 1165.82 Z" fill="#000000" fill-rule="nonzero" fill-opacity="1" /><path clip-path="url(#clip980)" d="M121.043 957.62 L137.362 957.62 L137.362 961.555 L115.418 961.555 L115.418 957.62 Q118.08 954.865 122.663 950.236 Q127.269 945.583 128.45 944.24 Q130.695 941.717 131.575 939.981 Q132.478 938.222 132.478 936.532 Q132.478 933.778 130.533 932.041 Q128.612 930.305 125.51 930.305 Q123.311 930.305 120.857 931.069 Q118.427 931.833 115.649 933.384 L115.649 928.662 Q118.473 927.528 120.927 926.949 Q123.38 926.37 125.418 926.37 Q130.788 926.37 133.982 929.055 Q137.177 931.741 137.177 936.231 Q137.177 938.361 136.367 940.282 Q135.579 942.18 133.473 944.773 Q132.894 945.444 129.792 948.662 Q126.691 951.856 121.043 957.62 Z" fill="#000000" fill-rule="nonzero" fill-opacity="1" /><path clip-path="url(#clip980)" d="M157.177 930.074 Q153.566 930.074 151.737 933.639 Q149.931 937.18 149.931 944.31 Q149.931 951.416 151.737 954.981 Q153.566 958.523 157.177 958.523 Q160.811 958.523 162.616 954.981 Q164.445 951.416 164.445 944.31 Q164.445 937.18 162.616 933.639 Q160.811 930.074 157.177 930.074 M157.177 926.37 Q162.987 926.37 166.042 930.977 Q169.121 935.56 169.121 944.31 Q169.121 953.037 166.042 957.643 Q162.987 962.227 157.177 962.227 Q151.366 962.227 148.288 957.643 Q145.232 953.037 145.232 944.31 Q145.232 935.56 148.288 930.977 Q151.366 926.37 157.177 926.37 Z" fill="#000000" fill-rule="nonzero" fill-opacity="1" /><path clip-path="url(#clip980)" d="M131.181 703.469 Q134.538 704.186 136.413 706.455 Q138.311 708.723 138.311 712.057 Q138.311 717.172 134.792 719.973 Q131.274 722.774 124.793 722.774 Q122.617 722.774 120.302 722.334 Q118.01 721.918 115.556 721.061 L115.556 716.547 Q117.501 717.682 119.816 718.26 Q122.13 718.839 124.654 718.839 Q129.052 718.839 131.343 717.103 Q133.658 715.367 133.658 712.057 Q133.658 709.001 131.505 707.288 Q129.376 705.552 125.556 705.552 L121.529 705.552 L121.529 701.709 L125.742 701.709 Q129.191 701.709 131.019 700.344 Q132.848 698.955 132.848 696.362 Q132.848 693.7 130.95 692.288 Q129.075 690.853 125.556 690.853 Q123.635 690.853 121.436 691.27 Q119.237 691.686 116.598 692.566 L116.598 688.399 Q119.26 687.659 121.575 687.288 Q123.913 686.918 125.973 686.918 Q131.297 686.918 134.399 689.348 Q137.501 691.756 137.501 695.876 Q137.501 698.747 135.857 700.737 Q134.214 702.705 131.181 703.469 Z" fill="#000000" fill-rule="nonzero" fill-opacity="1" /><path clip-path="url(#clip980)" d="M157.177 690.622 Q153.566 690.622 151.737 694.186 Q149.931 697.728 149.931 704.858 Q149.931 711.964 151.737 715.529 Q153.566 719.071 157.177 719.071 Q160.811 719.071 162.616 715.529 Q164.445 711.964 164.445 704.858 Q164.445 697.728 162.616 694.186 Q160.811 690.622 157.177 690.622 M157.177 686.918 Q162.987 686.918 166.042 691.524 Q169.121 696.108 169.121 704.858 Q169.121 713.584 166.042 718.191 Q162.987 722.774 157.177 722.774 Q151.366 722.774 148.288 718.191 Q145.232 713.584 145.232 704.858 Q145.232 696.108 148.288 691.524 Q151.366 686.918 157.177 686.918 Z" fill="#000000" fill-rule="nonzero" fill-opacity="1" /><path clip-path="url(#clip980)" d="M129.862 452.165 L118.056 470.614 L129.862 470.614 L129.862 452.165 M128.635 448.091 L134.515 448.091 L134.515 470.614 L139.445 470.614 L139.445 474.502 L134.515 474.502 L134.515 482.651 L129.862 482.651 L129.862 474.502 L114.26 474.502 L114.26 469.989 L128.635 448.091 Z" fill="#000000" fill-rule="nonzero" fill-opacity="1" /><path clip-path="url(#clip980)" d="M157.177 451.169 Q153.566 451.169 151.737 454.734 Q149.931 458.276 149.931 465.405 Q149.931 472.512 151.737 476.077 Q153.566 479.618 157.177 479.618 Q160.811 479.618 162.616 476.077 Q164.445 472.512 164.445 465.405 Q164.445 458.276 162.616 454.734 Q160.811 451.169 157.177 451.169 M157.177 447.466 Q162.987 447.466 166.042 452.072 Q169.121 456.655 169.121 465.405 Q169.121 474.132 166.042 478.739 Q162.987 483.322 157.177 483.322 Q151.366 483.322 148.288 478.739 Q145.232 474.132 145.232 465.405 Q145.232 456.655 148.288 452.072 Q151.366 447.466 157.177 447.466 Z" fill="#000000" fill-rule="nonzero" fill-opacity="1" /><path clip-path="url(#clip980)" d="M117.061 208.638 L135.417 208.638 L135.417 212.573 L121.343 212.573 L121.343 221.046 Q122.362 220.698 123.38 220.536 Q124.399 220.351 125.418 220.351 Q131.205 220.351 134.584 223.522 Q137.964 226.694 137.964 232.11 Q137.964 237.689 134.492 240.791 Q131.019 243.87 124.7 243.87 Q122.524 243.87 120.255 243.499 Q118.01 243.129 115.603 242.388 L115.603 237.689 Q117.686 238.823 119.908 239.379 Q122.13 239.934 124.607 239.934 Q128.612 239.934 130.95 237.828 Q133.288 235.721 133.288 232.11 Q133.288 228.499 130.95 226.393 Q128.612 224.286 124.607 224.286 Q122.732 224.286 120.857 224.703 Q119.006 225.12 117.061 225.999 L117.061 208.638 Z" fill="#000000" fill-rule="nonzero" fill-opacity="1" /><path clip-path="url(#clip980)" d="M157.177 211.717 Q153.566 211.717 151.737 215.282 Q149.931 218.823 149.931 225.953 Q149.931 233.059 151.737 236.624 Q153.566 240.166 157.177 240.166 Q160.811 240.166 162.616 236.624 Q164.445 233.059 164.445 225.953 Q164.445 218.823 162.616 215.282 Q160.811 211.717 157.177 211.717 M157.177 208.013 Q162.987 208.013 166.042 212.62 Q169.121 217.203 169.121 225.953 Q169.121 234.68 166.042 239.286 Q162.987 243.87 157.177 243.87 Q151.366 243.87 148.288 239.286 Q145.232 234.68 145.232 225.953 Q145.232 217.203 148.288 212.62 Q151.366 208.013 157.177 208.013 Z" fill="#000000" fill-rule="nonzero" fill-opacity="1" /><path clip-path="url(#clip980)" d="M20.1444 820.545 L26.9239 820.545 Q23.9002 823.792 22.4043 827.484 Q20.9083 831.144 20.9083 835.282 Q20.9083 843.43 25.9054 847.758 Q30.8707 852.087 40.2919 852.087 Q49.6813 852.087 54.6784 847.758 Q59.6436 843.43 59.6436 835.282 Q59.6436 831.144 58.1477 827.484 Q56.6518 823.792 53.6281 820.545 L60.3439 820.545 Q62.6355 823.919 63.7814 827.706 Q64.9272 831.462 64.9272 835.664 Q64.9272 846.453 58.3387 852.66 Q51.7183 858.867 40.2919 858.867 Q28.8336 858.867 22.2451 852.66 Q15.6248 846.453 15.6248 835.664 Q15.6248 831.399 16.7706 827.643 Q17.8846 823.855 20.1444 820.545 Z" fill="#000000" fill-rule="nonzero" fill-opacity="1" /><path clip-path="url(#clip980)" d="M32.4621 797.056 Q32.4621 801.766 36.1542 804.503 Q39.8145 807.241 46.212 807.241 Q52.6095 807.241 56.3017 804.535 Q59.9619 801.798 59.9619 797.056 Q59.9619 792.377 56.2698 789.64 Q52.5777 786.902 46.212 786.902 Q39.8781 786.902 36.186 789.64 Q32.4621 792.377 32.4621 797.056 M27.4968 797.056 Q27.4968 789.417 32.4621 785.056 Q37.4273 780.696 46.212 780.696 Q54.9649 780.696 59.9619 785.056 Q64.9272 789.417 64.9272 797.056 Q64.9272 804.726 59.9619 809.087 Q54.9649 813.415 46.212 813.415 Q37.4273 813.415 32.4621 809.087 Q27.4968 804.726 27.4968 797.056 Z" fill="#000000" fill-rule="nonzero" fill-opacity="1" /><path clip-path="url(#clip980)" d="M49.9359 771.593 L28.3562 771.593 L28.3562 765.736 L49.7131 765.736 Q54.7739 765.736 57.3202 763.763 Q59.8346 761.79 59.8346 757.843 Q59.8346 753.1 56.8109 750.363 Q53.7872 747.594 48.5673 747.594 L28.3562 747.594 L28.3562 741.738 L64.0042 741.738 L64.0042 747.594 L58.5296 747.594 Q61.7762 749.727 63.3676 752.559 Q64.9272 755.36 64.9272 759.084 Q64.9272 765.227 61.1078 768.41 Q57.2883 771.593 49.9359 771.593 M27.4968 756.856 L27.4968 756.856 Z" fill="#000000" fill-rule="nonzero" fill-opacity="1" /><path clip-path="url(#clip980)" d="M42.4881 700.042 L64.0042 700.042 L64.0042 705.899 L42.679 705.899 Q37.6183 705.899 35.1038 707.872 Q32.5894 709.845 32.5894 713.792 Q32.5894 718.535 35.6131 721.272 Q38.6368 724.009 43.8567 724.009 L64.0042 724.009 L64.0042 729.897 L28.3562 729.897 L28.3562 724.009 L33.8944 724.009 Q30.6797 721.908 29.0883 719.076 Q27.4968 716.211 27.4968 712.487 Q27.4968 706.344 31.3163 703.193 Q35.1038 700.042 42.4881 700.042 Z" fill="#000000" fill-rule="nonzero" fill-opacity="1" /><path clip-path="url(#clip980)" d="M18.2347 682.568 L28.3562 682.568 L28.3562 670.505 L32.9077 670.505 L32.9077 682.568 L52.2594 682.568 Q56.6199 682.568 57.8613 681.391 Q59.1026 680.181 59.1026 676.521 L59.1026 670.505 L64.0042 670.505 L64.0042 676.521 Q64.0042 683.3 61.4897 685.879 Q58.9434 688.457 52.2594 688.457 L32.9077 688.457 L32.9077 692.753 L28.3562 692.753 L28.3562 688.457 L18.2347 688.457 L18.2347 682.568 Z" fill="#000000" fill-rule="nonzero" fill-opacity="1" /><path clip-path="url(#clip980)" d="M736.797 8.64 L742.642 8.64 L742.642 48.8308 Q742.642 56.6432 739.662 60.1733 Q736.71 63.7034 730.142 63.7034 L727.914 63.7034 L727.914 58.7844 L729.737 58.7844 Q733.614 58.7844 735.206 56.6143 Q736.797 54.4442 736.797 48.8308 L736.797 8.64 Z" fill="#000000" fill-rule="nonzero" fill-opacity="1" /><path clip-path="url(#clip980)" d="M760.119 13.4432 L760.119 29.6758 L767.468 29.6758 Q771.548 29.6758 773.776 27.5635 Q776.004 25.4513 776.004 21.545 Q776.004 17.6677 773.776 15.5555 Q771.548 13.4432 767.468 13.4432 L760.119 13.4432 M754.274 8.64 L767.468 8.64 Q774.731 8.64 778.435 11.9386 Q782.167 15.2083 782.167 21.545 Q782.167 27.9397 778.435 31.2093 Q774.731 34.479 767.468 34.479 L760.119 34.479 L760.119 51.84 L754.274 51.84 L754.274 8.64 Z" fill="#000000" fill-rule="nonzero" fill-opacity="1" /><path clip-path="url(#clip980)" d="M790.009 8.64 L798.718 8.64 L809.742 38.038 L820.825 8.64 L829.534 8.64 L829.534 51.84 L823.834 51.84 L823.834 13.9062 L812.694 43.5356 L806.82 43.5356 L795.68 13.9062 L795.68 51.84 L790.009 51.84 L790.009 8.64 Z" fill="#000000" fill-rule="nonzero" fill-opacity="1" /><path clip-path="url(#clip980)" d="M857.051 33.2348 L872.647 33.2348 L872.647 37.9801 L857.051 37.9801 L857.051 33.2348 Z" fill="#000000" fill-rule="nonzero" fill-opacity="1" /><path clip-path="url(#clip980)" d="M932.543 11.9675 L932.543 18.1307 Q929.591 15.3819 926.235 14.0219 Q922.907 12.662 919.146 12.662 Q911.738 12.662 907.803 17.2048 Q903.868 21.7186 903.868 30.2834 Q903.868 38.8192 907.803 43.362 Q911.738 47.8759 919.146 47.8759 Q922.907 47.8759 926.235 46.516 Q929.591 45.156 932.543 42.4072 L932.543 48.5125 Q929.476 50.5958 926.032 51.6375 Q922.618 52.6791 918.799 52.6791 Q908.99 52.6791 903.347 46.6896 Q897.705 40.6711 897.705 30.2834 Q897.705 19.8668 903.347 13.8772 Q908.99 7.85875 918.799 7.85875 Q922.676 7.85875 926.09 8.90042 Q929.533 9.91314 932.543 11.9675 Z" fill="#000000" fill-rule="nonzero" fill-opacity="1" /><path clip-path="url(#clip980)" d="M941.57 8.64 L947.415 8.64 L947.415 26.3482 L968.654 26.3482 L968.654 8.64 L974.499 8.64 L974.499 51.84 L968.654 51.84 L968.654 31.2672 L947.415 31.2672 L947.415 51.84 L941.57 51.84 L941.57 8.64 Z" fill="#000000" fill-rule="nonzero" fill-opacity="1" /><path clip-path="url(#clip980)" d="M986.13 8.64 L994.84 8.64 L1005.86 38.038 L1016.95 8.64 L1025.66 8.64 L1025.66 51.84 L1019.96 51.84 L1019.96 13.9062 L1008.82 43.5356 L1002.94 43.5356 L991.802 13.9062 L991.802 51.84 L986.13 51.84 L986.13 8.64 Z" fill="#000000" fill-rule="nonzero" fill-opacity="1" /><path clip-path="url(#clip980)" d="M1037.26 8.64 L1045.97 8.64 L1056.99 38.038 L1068.07 8.64 L1076.78 8.64 L1076.78 51.84 L1071.08 51.84 L1071.08 13.9062 L1059.94 43.5356 L1054.07 43.5356 L1042.93 13.9062 L1042.93 51.84 L1037.26 51.84 L1037.26 8.64 Z" fill="#000000" fill-rule="nonzero" fill-opacity="1" /><path clip-path="url(#clip980)" d="M1085.46 33.2348 L1101.06 33.2348 L1101.06 37.9801 L1085.46 37.9801 L1085.46 33.2348 Z" fill="#000000" fill-rule="nonzero" fill-opacity="1" /><path clip-path="url(#clip980)" d="M1109.77 8.64 L1115.61 8.64 L1115.61 46.921 L1136.65 46.921 L1136.65 51.84 L1109.77 51.84 L1109.77 8.64 Z" fill="#000000" fill-rule="nonzero" fill-opacity="1" /><path clip-path="url(#clip980)" d="M1166.66 10.2314 L1166.66 19.4328 L1177.62 19.4328 L1177.62 23.5705 L1166.66 23.5705 L1166.66 41.163 Q1166.66 45.1271 1167.73 46.2555 Q1168.83 47.384 1172.15 47.384 L1177.62 47.384 L1177.62 51.84 L1172.15 51.84 Q1165.99 51.84 1163.65 49.5541 Q1161.3 47.2393 1161.3 41.163 L1161.3 23.5705 L1157.4 23.5705 L1157.4 19.4328 L1161.3 19.4328 L1161.3 10.2314 L1166.66 10.2314 Z" fill="#000000" fill-rule="nonzero" fill-opacity="1" /><path clip-path="url(#clip980)" d="M1212.34 34.3054 L1212.34 36.9095 L1187.87 36.9095 Q1188.21 42.4072 1191.16 45.3007 Q1194.14 48.1653 1199.44 48.1653 Q1202.51 48.1653 1205.37 47.4129 Q1208.26 46.6606 1211.1 45.156 L1211.1 50.1907 Q1208.24 51.406 1205.23 52.0425 Q1202.22 52.6791 1199.12 52.6791 Q1191.37 52.6791 1186.82 48.1653 Q1182.31 43.6514 1182.31 35.9547 Q1182.31 27.9975 1186.59 23.339 Q1190.9 18.6515 1198.2 18.6515 Q1204.73 18.6515 1208.53 22.876 Q1212.34 27.0716 1212.34 34.3054 M1207.02 32.7429 Q1206.96 28.3737 1204.56 25.7695 Q1202.19 23.1654 1198.25 23.1654 Q1193.8 23.1654 1191.11 25.6827 Q1188.44 28.2001 1188.04 32.7718 L1207.02 32.7429 Z" fill="#000000" fill-rule="nonzero" fill-opacity="1" /><path clip-path="url(#clip980)" d="M1239.86 24.4096 Q1238.96 23.8888 1237.89 23.6573 Q1236.85 23.3969 1235.58 23.3969 Q1231.07 23.3969 1228.63 26.3482 Q1226.23 29.2707 1226.23 34.7683 L1226.23 51.84 L1220.88 51.84 L1220.88 19.4328 L1226.23 19.4328 L1226.23 24.4675 Q1227.91 21.5161 1230.6 20.0983 Q1233.29 18.6515 1237.14 18.6515 Q1237.69 18.6515 1238.36 18.7383 Q1239.02 18.7962 1239.83 18.9409 L1239.86 24.4096 Z" fill="#000000" fill-rule="nonzero" fill-opacity="1" /><path clip-path="url(#clip980)" d="M1269.64 25.6538 Q1271.63 22.0659 1274.41 20.3587 Q1277.19 18.6515 1280.95 18.6515 Q1286.01 18.6515 1288.76 22.2105 Q1291.51 25.7406 1291.51 32.2799 L1291.51 51.84 L1286.16 51.84 L1286.16 32.4535 Q1286.16 27.795 1284.51 25.5381 Q1282.86 23.2811 1279.47 23.2811 Q1275.34 23.2811 1272.93 26.03 Q1270.53 28.7788 1270.53 33.5241 L1270.53 51.84 L1265.18 51.84 L1265.18 32.4535 Q1265.18 27.7661 1263.53 25.5381 Q1261.88 23.2811 1258.44 23.2811 Q1254.36 23.2811 1251.96 26.0589 Q1249.55 28.8077 1249.55 33.5241 L1249.55 51.84 L1244.2 51.84 L1244.2 19.4328 L1249.55 19.4328 L1249.55 24.4675 Q1251.38 21.4872 1253.92 20.0693 Q1256.47 18.6515 1259.97 18.6515 Q1263.5 18.6515 1265.96 20.4455 Q1268.45 22.2395 1269.64 25.6538 Z" fill="#000000" fill-rule="nonzero" fill-opacity="1" /><path clip-path="url(#clip980)" d="M1302.13 19.4328 L1307.45 19.4328 L1307.45 51.84 L1302.13 51.84 L1302.13 19.4328 M1302.13 6.81709 L1307.45 6.81709 L1307.45 13.559 L1302.13 13.559 L1302.13 6.81709 Z" fill="#000000" fill-rule="nonzero" fill-opacity="1" /><path clip-path="url(#clip980)" d="M1345.53 32.2799 L1345.53 51.84 L1340.21 51.84 L1340.21 32.4535 Q1340.21 27.8529 1338.41 25.567 Q1336.62 23.2811 1333.03 23.2811 Q1328.72 23.2811 1326.23 26.03 Q1323.74 28.7788 1323.74 33.5241 L1323.74 51.84 L1318.39 51.84 L1318.39 19.4328 L1323.74 19.4328 L1323.74 24.4675 Q1325.65 21.545 1328.23 20.0983 Q1330.83 18.6515 1334.22 18.6515 Q1339.8 18.6515 1342.67 22.1237 Q1345.53 25.567 1345.53 32.2799 Z" fill="#000000" fill-rule="nonzero" fill-opacity="1" /><path clip-path="url(#clip980)" d="M1370.88 35.5496 Q1364.43 35.5496 1361.94 37.0253 Q1359.45 38.501 1359.45 42.06 Q1359.45 44.8956 1361.3 46.5738 Q1363.18 48.2231 1366.39 48.2231 Q1370.82 48.2231 1373.48 45.0981 Q1376.17 41.9442 1376.17 36.7359 L1376.17 35.5496 L1370.88 35.5496 M1381.5 33.3505 L1381.5 51.84 L1376.17 51.84 L1376.17 46.921 Q1374.35 49.8724 1371.63 51.2902 Q1368.91 52.6791 1364.98 52.6791 Q1360 52.6791 1357.05 49.9014 Q1354.13 47.0947 1354.13 42.4072 Q1354.13 36.9385 1357.77 34.1607 Q1361.45 31.3829 1368.71 31.3829 L1376.17 31.3829 L1376.17 30.8621 Q1376.17 27.1874 1373.74 25.1908 Q1371.34 23.1654 1366.97 23.1654 Q1364.2 23.1654 1361.56 23.8309 Q1358.93 24.4964 1356.5 25.8274 L1356.5 20.9085 Q1359.42 19.78 1362.17 19.2302 Q1364.92 18.6515 1367.52 18.6515 Q1374.55 18.6515 1378.03 22.2973 Q1381.5 25.9431 1381.5 33.3505 Z" fill="#000000" fill-rule="nonzero" fill-opacity="1" /><path clip-path="url(#clip980)" d="M1392.47 6.81709 L1397.79 6.81709 L1397.79 51.84 L1392.47 51.84 L1392.47 6.81709 Z" fill="#000000" fill-rule="nonzero" fill-opacity="1" /><path clip-path="url(#clip980)" d="M1432.92 46.9789 L1432.92 64.1663 L1427.56 64.1663 L1427.56 19.4328 L1432.92 19.4328 L1432.92 24.3517 Q1434.59 21.4582 1437.14 20.0693 Q1439.72 18.6515 1443.27 18.6515 Q1449.18 18.6515 1452.85 23.339 Q1456.56 28.0265 1456.56 35.6653 Q1456.56 43.3042 1452.85 47.9916 Q1449.18 52.6791 1443.27 52.6791 Q1439.72 52.6791 1437.14 51.2902 Q1434.59 49.8724 1432.92 46.9789 M1451.03 35.6653 Q1451.03 29.7915 1448.6 26.464 Q1446.2 23.1075 1441.97 23.1075 Q1437.75 23.1075 1435.32 26.464 Q1432.92 29.7915 1432.92 35.6653 Q1432.92 41.5391 1435.32 44.8956 Q1437.75 48.2231 1441.97 48.2231 Q1446.2 48.2231 1448.6 44.8956 Q1451.03 41.5391 1451.03 35.6653 Z" fill="#000000" fill-rule="nonzero" fill-opacity="1" /><path clip-path="url(#clip980)" d="M1484.16 24.4096 Q1483.26 23.8888 1482.19 23.6573 Q1481.15 23.3969 1479.88 23.3969 Q1475.36 23.3969 1472.93 26.3482 Q1470.53 29.2707 1470.53 34.7683 L1470.53 51.84 L1465.18 51.84 L1465.18 19.4328 L1470.53 19.4328 L1470.53 24.4675 Q1472.21 21.5161 1474.9 20.0983 Q1477.59 18.6515 1481.44 18.6515 Q1481.99 18.6515 1482.66 18.7383 Q1483.32 18.7962 1484.13 18.9409 L1484.16 24.4096 Z" fill="#000000" fill-rule="nonzero" fill-opacity="1" /><path clip-path="url(#clip980)" d="M1489.74 19.4328 L1495.07 19.4328 L1495.07 51.84 L1489.74 51.84 L1489.74 19.4328 M1489.74 6.81709 L1495.07 6.81709 L1495.07 13.559 L1489.74 13.559 L1489.74 6.81709 Z" fill="#000000" fill-rule="nonzero" fill-opacity="1" /><path clip-path="url(#clip980)" d="M1529.53 20.677 L1529.53 25.6538 Q1527.27 24.4096 1524.99 23.802 Q1522.73 23.1654 1520.42 23.1654 Q1515.24 23.1654 1512.37 26.464 Q1509.51 29.7336 1509.51 35.6653 Q1509.51 41.597 1512.37 44.8956 Q1515.24 48.1653 1520.42 48.1653 Q1522.73 48.1653 1524.99 47.5576 Q1527.27 46.921 1529.53 45.6768 L1529.53 50.5958 Q1527.3 51.6375 1524.9 52.1583 Q1522.53 52.6791 1519.84 52.6791 Q1512.52 52.6791 1508.21 48.0784 Q1503.89 43.4778 1503.89 35.6653 Q1503.89 27.7371 1508.23 23.1943 Q1512.6 18.6515 1520.18 18.6515 Q1522.64 18.6515 1524.99 19.1724 Q1527.33 19.6642 1529.53 20.677 Z" fill="#000000" fill-rule="nonzero" fill-opacity="1" /><path clip-path="url(#clip980)" d="M1566.51 34.3054 L1566.51 36.9095 L1542.03 36.9095 Q1542.38 42.4072 1545.33 45.3007 Q1548.31 48.1653 1553.6 48.1653 Q1556.67 48.1653 1559.54 47.4129 Q1562.43 46.6606 1565.27 45.156 L1565.27 50.1907 Q1562.4 51.406 1559.39 52.0425 Q1556.38 52.6791 1553.29 52.6791 Q1545.53 52.6791 1540.99 48.1653 Q1536.47 43.6514 1536.47 35.9547 Q1536.47 27.9975 1540.76 23.339 Q1545.07 18.6515 1552.36 18.6515 Q1558.9 18.6515 1562.69 22.876 Q1566.51 27.0716 1566.51 34.3054 M1561.19 32.7429 Q1561.13 28.3737 1558.73 25.7695 Q1556.35 23.1654 1552.42 23.1654 Q1547.96 23.1654 1545.27 25.6827 Q1542.61 28.2001 1542.2 32.7718 L1561.19 32.7429 Z" fill="#000000" fill-rule="nonzero" fill-opacity="1" /><path clip-path="url(#clip980)" d="M1606.87 6.87496 Q1603 13.53 1601.12 20.0404 Q1599.23 26.5508 1599.23 33.2348 Q1599.23 39.9188 1601.12 46.487 Q1603.03 53.0263 1606.87 59.6525 L1602.24 59.6525 Q1597.9 52.8527 1595.73 46.2845 Q1593.59 39.7162 1593.59 33.2348 Q1593.59 26.7823 1595.73 20.2429 Q1597.87 13.7036 1602.24 6.87496 L1606.87 6.87496 Z" fill="#000000" fill-rule="nonzero" fill-opacity="1" /><path clip-path="url(#clip980)" d="M1644.14 32.2799 L1644.14 51.84 L1638.82 51.84 L1638.82 32.4535 Q1638.82 27.8529 1637.02 25.567 Q1635.23 23.2811 1631.64 23.2811 Q1627.33 23.2811 1624.84 26.03 Q1622.35 28.7788 1622.35 33.5241 L1622.35 51.84 L1617 51.84 L1617 19.4328 L1622.35 19.4328 L1622.35 24.4675 Q1624.26 21.545 1626.84 20.0983 Q1629.44 18.6515 1632.83 18.6515 Q1638.41 18.6515 1641.28 22.1237 Q1644.14 25.567 1644.14 32.2799 Z" fill="#000000" fill-rule="nonzero" fill-opacity="1" /><path clip-path="url(#clip980)" d="M1655.46 24.9304 L1692.55 24.9304 L1692.55 29.7915 L1655.46 29.7915 L1655.46 24.9304 M1655.46 36.7359 L1692.55 36.7359 L1692.55 41.6549 L1655.46 41.6549 L1655.46 36.7359 Z" fill="#000000" fill-rule="nonzero" fill-opacity="1" /><path clip-path="url(#clip980)" d="M1705.22 8.64 L1728.17 8.64 L1728.17 13.559 L1710.58 13.559 L1710.58 24.1492 Q1711.85 23.7152 1713.12 23.5126 Q1714.4 23.2811 1715.67 23.2811 Q1722.9 23.2811 1727.13 27.2452 Q1731.35 31.2093 1731.35 37.9801 Q1731.35 44.9535 1727.01 48.8308 Q1722.67 52.6791 1714.77 52.6791 Q1712.05 52.6791 1709.22 52.2162 Q1706.41 51.7532 1703.4 50.8273 L1703.4 44.9535 Q1706.01 46.3713 1708.78 47.0657 Q1711.56 47.7602 1714.66 47.7602 Q1719.66 47.7602 1722.58 45.1271 Q1725.51 42.494 1725.51 37.9801 Q1725.51 33.4663 1722.58 30.8332 Q1719.66 28.2001 1714.66 28.2001 Q1712.31 28.2001 1709.97 28.7209 Q1707.65 29.2417 1705.22 30.3413 L1705.22 8.64 Z" fill="#000000" fill-rule="nonzero" fill-opacity="1" /><path clip-path="url(#clip980)" d="M1755.37 12.4884 Q1750.85 12.4884 1748.57 16.9444 Q1746.31 21.3714 1746.31 30.2834 Q1746.31 39.1665 1748.57 43.6225 Q1750.85 48.0495 1755.37 48.0495 Q1759.91 48.0495 1762.17 43.6225 Q1764.45 39.1665 1764.45 30.2834 Q1764.45 21.3714 1762.17 16.9444 Q1759.91 12.4884 1755.37 12.4884 M1755.37 7.85875 Q1762.63 7.85875 1766.45 13.6168 Q1770.3 19.346 1770.3 30.2834 Q1770.3 41.1919 1766.45 46.95 Q1762.63 52.6791 1755.37 52.6791 Q1748.11 52.6791 1744.26 46.95 Q1740.44 41.1919 1740.44 30.2834 Q1740.44 19.346 1744.26 13.6168 Q1748.11 7.85875 1755.37 7.85875 Z" fill="#000000" fill-rule="nonzero" fill-opacity="1" /><path clip-path="url(#clip980)" d="M1793.07 12.4884 Q1788.56 12.4884 1786.27 16.9444 Q1784.01 21.3714 1784.01 30.2834 Q1784.01 39.1665 1786.27 43.6225 Q1788.56 48.0495 1793.07 48.0495 Q1797.61 48.0495 1799.87 43.6225 Q1802.16 39.1665 1802.16 30.2834 Q1802.16 21.3714 1799.87 16.9444 Q1797.61 12.4884 1793.07 12.4884 M1793.07 7.85875 Q1800.33 7.85875 1804.15 13.6168 Q1808 19.346 1808 30.2834 Q1808 41.1919 1804.15 46.95 Q1800.33 52.6791 1793.07 52.6791 Q1785.81 52.6791 1781.96 46.95 Q1778.14 41.1919 1778.14 30.2834 Q1778.14 19.346 1781.96 13.6168 Q1785.81 7.85875 1793.07 7.85875 Z" fill="#000000" fill-rule="nonzero" fill-opacity="1" /><path clip-path="url(#clip980)" d="M1816.68 6.87496 L1821.31 6.87496 Q1825.65 13.7036 1827.79 20.2429 Q1829.96 26.7823 1829.96 33.2348 Q1829.96 39.7162 1827.79 46.2845 Q1825.65 52.8527 1821.31 59.6525 L1816.68 59.6525 Q1820.53 53.0263 1822.41 46.487 Q1824.32 39.9188 1824.32 33.2348 Q1824.32 26.5508 1822.41 20.0404 Q1820.53 13.53 1816.68 6.87496 Z" fill="#000000" fill-rule="nonzero" fill-opacity="1" /><path clip-path="url(#clip982)" d="M323.245 1327.4 L323.245 1423.18 L391.509 1423.18 L391.509 1327.4 L323.245 1327.4 L323.245 1327.4  Z" fill="#4682b4" fill-rule="evenodd" fill-opacity="0.6"/>
<polyline clip-path="url(#clip982)" style="stroke:#000000; stroke-linecap:round; stroke-linejoin:round; stroke-width:4; stroke-opacity:1; fill:none" points="323.245,1327.4 323.245,1423.18 391.509,1423.18 391.509,1327.4 323.245,1327.4 "/>
<path clip-path="url(#clip982)" d="M391.509 1135.84 L391.509 1423.18 L459.772 1423.18 L459.772 1135.84 L391.509 1135.84 L391.509 1135.84  Z" fill="#4682b4" fill-rule="evenodd" fill-opacity="0.6"/>
<polyline clip-path="url(#clip982)" style="stroke:#000000; stroke-linecap:round; stroke-linejoin:round; stroke-width:4; stroke-opacity:1; fill:none" points="391.509,1135.84 391.509,1423.18 459.772,1423.18 459.772,1135.84 391.509,1135.84 "/>
<path clip-path="url(#clip982)" d="M459.772 1159.78 L459.772 1423.18 L528.036 1423.18 L528.036 1159.78 L459.772 1159.78 L459.772 1159.78  Z" fill="#4682b4" fill-rule="evenodd" fill-opacity="0.6"/>
<polyline clip-path="url(#clip982)" style="stroke:#000000; stroke-linecap:round; stroke-linejoin:round; stroke-width:4; stroke-opacity:1; fill:none" points="459.772,1159.78 459.772,1423.18 528.036,1423.18 528.036,1159.78 459.772,1159.78 "/>
<path clip-path="url(#clip982)" d="M528.036 561.152 L528.036 1423.18 L596.3 1423.18 L596.3 561.152 L528.036 561.152 L528.036 561.152  Z" fill="#4682b4" fill-rule="evenodd" fill-opacity="0.6"/>
<polyline clip-path="url(#clip982)" style="stroke:#000000; stroke-linecap:round; stroke-linejoin:round; stroke-width:4; stroke-opacity:1; fill:none" points="528.036,561.152 528.036,1423.18 596.3,1423.18 596.3,561.152 528.036,561.152 "/>
<path clip-path="url(#clip982)" d="M596.3 297.754 L596.3 1423.18 L664.564 1423.18 L664.564 297.754 L596.3 297.754 L596.3 297.754  Z" fill="#4682b4" fill-rule="evenodd" fill-opacity="0.6"/>
<polyline clip-path="url(#clip982)" style="stroke:#000000; stroke-linecap:round; stroke-linejoin:round; stroke-width:4; stroke-opacity:1; fill:none" points="596.3,297.754 596.3,1423.18 664.564,1423.18 664.564,297.754 596.3,297.754 "/>
<path clip-path="url(#clip982)" d="M664.564 130.137 L664.564 1423.18 L732.828 1423.18 L732.828 130.137 L664.564 130.137 L664.564 130.137  Z" fill="#4682b4" fill-rule="evenodd" fill-opacity="0.6"/>
<polyline clip-path="url(#clip982)" style="stroke:#000000; stroke-linecap:round; stroke-linejoin:round; stroke-width:4; stroke-opacity:1; fill:none" points="664.564,130.137 664.564,1423.18 732.828,1423.18 732.828,130.137 664.564,130.137 "/>
<path clip-path="url(#clip982)" d="M732.828 106.192 L732.828 1423.18 L801.092 1423.18 L801.092 106.192 L732.828 106.192 L732.828 106.192  Z" fill="#4682b4" fill-rule="evenodd" fill-opacity="0.6"/>
<polyline clip-path="url(#clip982)" style="stroke:#000000; stroke-linecap:round; stroke-linejoin:round; stroke-width:4; stroke-opacity:1; fill:none" points="732.828,106.192 732.828,1423.18 801.092,1423.18 801.092,106.192 732.828,106.192 "/>
<path clip-path="url(#clip982)" d="M801.092 154.083 L801.092 1423.18 L869.355 1423.18 L869.355 154.083 L801.092 154.083 L801.092 154.083  Z" fill="#4682b4" fill-rule="evenodd" fill-opacity="0.6"/>
<polyline clip-path="url(#clip982)" style="stroke:#000000; stroke-linecap:round; stroke-linejoin:round; stroke-width:4; stroke-opacity:1; fill:none" points="801.092,154.083 801.092,1423.18 869.355,1423.18 869.355,154.083 801.092,154.083 "/>
<path clip-path="url(#clip982)" d="M869.355 249.864 L869.355 1423.18 L937.619 1423.18 L937.619 249.864 L869.355 249.864 L869.355 249.864  Z" fill="#4682b4" fill-rule="evenodd" fill-opacity="0.6"/>
<polyline clip-path="url(#clip982)" style="stroke:#000000; stroke-linecap:round; stroke-linejoin:round; stroke-width:4; stroke-opacity:1; fill:none" points="869.355,249.864 869.355,1423.18 937.619,1423.18 937.619,249.864 869.355,249.864 "/>
<path clip-path="url(#clip982)" d="M937.619 632.987 L937.619 1423.18 L1005.88 1423.18 L1005.88 632.987 L937.619 632.987 L937.619 632.987  Z" fill="#4682b4" fill-rule="evenodd" fill-opacity="0.6"/>
<polyline clip-path="url(#clip982)" style="stroke:#000000; stroke-linecap:round; stroke-linejoin:round; stroke-width:4; stroke-opacity:1; fill:none" points="937.619,632.987 937.619,1423.18 1005.88,1423.18 1005.88,632.987 937.619,632.987 "/>
<path clip-path="url(#clip982)" d="M1005.88 680.878 L1005.88 1423.18 L1074.15 1423.18 L1074.15 680.878 L1005.88 680.878 L1005.88 680.878  Z" fill="#4682b4" fill-rule="evenodd" fill-opacity="0.6"/>
<polyline clip-path="url(#clip982)" style="stroke:#000000; stroke-linecap:round; stroke-linejoin:round; stroke-width:4; stroke-opacity:1; fill:none" points="1005.88,680.878 1005.88,1423.18 1074.15,1423.18 1074.15,680.878 1005.88,680.878 "/>
<path clip-path="url(#clip982)" d="M1074.15 609.042 L1074.15 1423.18 L1142.41 1423.18 L1142.41 609.042 L1074.15 609.042 L1074.15 609.042  Z" fill="#4682b4" fill-rule="evenodd" fill-opacity="0.6"/>
<polyline clip-path="url(#clip982)" style="stroke:#000000; stroke-linecap:round; stroke-linejoin:round; stroke-width:4; stroke-opacity:1; fill:none" points="1074.15,609.042 1074.15,1423.18 1142.41,1423.18 1142.41,609.042 1074.15,609.042 "/>
<path clip-path="url(#clip982)" d="M1142.41 872.44 L1142.41 1423.18 L1210.67 1423.18 L1210.67 872.44 L1142.41 872.44 L1142.41 872.44  Z" fill="#4682b4" fill-rule="evenodd" fill-opacity="0.6"/>
<polyline clip-path="url(#clip982)" style="stroke:#000000; stroke-linecap:round; stroke-linejoin:round; stroke-width:4; stroke-opacity:1; fill:none" points="1142.41,872.44 1142.41,1423.18 1210.67,1423.18 1210.67,872.44 1142.41,872.44 "/>
<path clip-path="url(#clip982)" d="M1210.67 1207.67 L1210.67 1423.18 L1278.94 1423.18 L1278.94 1207.67 L1210.67 1207.67 L1210.67 1207.67  Z" fill="#4682b4" fill-rule="evenodd" fill-opacity="0.6"/>
<polyline clip-path="url(#clip982)" style="stroke:#000000; stroke-linecap:round; stroke-linejoin:round; stroke-width:4; stroke-opacity:1; fill:none" points="1210.67,1207.67 1210.67,1423.18 1278.94,1423.18 1278.94,1207.67 1210.67,1207.67 "/>
<path clip-path="url(#clip982)" d="M1278.94 1064 L1278.94 1423.18 L1347.2 1423.18 L1347.2 1064 L1278.94 1064 L1278.94 1064  Z" fill="#4682b4" fill-rule="evenodd" fill-opacity="0.6"/>
<polyline clip-path="url(#clip982)" style="stroke:#000000; stroke-linecap:round; stroke-linejoin:round; stroke-width:4; stroke-opacity:1; fill:none" points="1278.94,1064 1278.94,1423.18 1347.2,1423.18 1347.2,1064 1278.94,1064 "/>
<path clip-path="url(#clip982)" d="M1347.2 1255.56 L1347.2 1423.18 L1415.47 1423.18 L1415.47 1255.56 L1347.2 1255.56 L1347.2 1255.56  Z" fill="#4682b4" fill-rule="evenodd" fill-opacity="0.6"/>
<polyline clip-path="url(#clip982)" style="stroke:#000000; stroke-linecap:round; stroke-linejoin:round; stroke-width:4; stroke-opacity:1; fill:none" points="1347.2,1255.56 1347.2,1423.18 1415.47,1423.18 1415.47,1255.56 1347.2,1255.56 "/>
<path clip-path="url(#clip982)" d="M1415.47 1279.51 L1415.47 1423.18 L1483.73 1423.18 L1483.73 1279.51 L1415.47 1279.51 L1415.47 1279.51  Z" fill="#4682b4" fill-rule="evenodd" fill-opacity="0.6"/>
<polyline clip-path="url(#clip982)" style="stroke:#000000; stroke-linecap:round; stroke-linejoin:round; stroke-width:4; stroke-opacity:1; fill:none" points="1415.47,1279.51 1415.47,1423.18 1483.73,1423.18 1483.73,1279.51 1415.47,1279.51 "/>
<path clip-path="url(#clip982)" d="M1483.73 1351.34 L1483.73 1423.18 L1551.99 1423.18 L1551.99 1351.34 L1483.73 1351.34 L1483.73 1351.34  Z" fill="#4682b4" fill-rule="evenodd" fill-opacity="0.6"/>
<polyline clip-path="url(#clip982)" style="stroke:#000000; stroke-linecap:round; stroke-linejoin:round; stroke-width:4; stroke-opacity:1; fill:none" points="1483.73,1351.34 1483.73,1423.18 1551.99,1423.18 1551.99,1351.34 1483.73,1351.34 "/>
<path clip-path="url(#clip982)" d="M1551.99 1303.45 L1551.99 1423.18 L1620.26 1423.18 L1620.26 1303.45 L1551.99 1303.45 L1551.99 1303.45  Z" fill="#4682b4" fill-rule="evenodd" fill-opacity="0.6"/>
<polyline clip-path="url(#clip982)" style="stroke:#000000; stroke-linecap:round; stroke-linejoin:round; stroke-width:4; stroke-opacity:1; fill:none" points="1551.99,1303.45 1551.99,1423.18 1620.26,1423.18 1620.26,1303.45 1551.99,1303.45 "/>
<path clip-path="url(#clip982)" d="M1620.26 1255.56 L1620.26 1423.18 L1688.52 1423.18 L1688.52 1255.56 L1620.26 1255.56 L1620.26 1255.56  Z" fill="#4682b4" fill-rule="evenodd" fill-opacity="0.6"/>
<polyline clip-path="url(#clip982)" style="stroke:#000000; stroke-linecap:round; stroke-linejoin:round; stroke-width:4; stroke-opacity:1; fill:none" points="1620.26,1255.56 1620.26,1423.18 1688.52,1423.18 1688.52,1255.56 1620.26,1255.56 "/>
<path clip-path="url(#clip982)" d="M1688.52 1375.29 L1688.52 1423.18 L1756.79 1423.18 L1756.79 1375.29 L1688.52 1375.29 L1688.52 1375.29  Z" fill="#4682b4" fill-rule="evenodd" fill-opacity="0.6"/>
<polyline clip-path="url(#clip982)" style="stroke:#000000; stroke-linecap:round; stroke-linejoin:round; stroke-width:4; stroke-opacity:1; fill:none" points="1688.52,1375.29 1688.52,1423.18 1756.79,1423.18 1756.79,1375.29 1688.52,1375.29 "/>
<path clip-path="url(#clip982)" d="M1756.79 1423.18 L1756.79 1423.18 L1825.05 1423.18 L1825.05 1423.18 L1756.79 1423.18 L1756.79 1423.18  Z" fill="#4682b4" fill-rule="evenodd" fill-opacity="0.6"/>
<polyline clip-path="url(#clip982)" style="stroke:#000000; stroke-linecap:round; stroke-linejoin:round; stroke-width:4; stroke-opacity:1; fill:none" points="1756.79,1423.18 1756.79,1423.18 1825.05,1423.18 1756.79,1423.18 "/>
<path clip-path="url(#clip982)" d="M1825.05 1399.23 L1825.05 1423.18 L1893.31 1423.18 L1893.31 1399.23 L1825.05 1399.23 L1825.05 1399.23  Z" fill="#4682b4" fill-rule="evenodd" fill-opacity="0.6"/>
<polyline clip-path="url(#clip982)" style="stroke:#000000; stroke-linecap:round; stroke-linejoin:round; stroke-width:4; stroke-opacity:1; fill:none" points="1825.05,1399.23 1825.05,1423.18 1893.31,1423.18 1893.31,1399.23 1825.05,1399.23 "/>
<path clip-path="url(#clip982)" d="M1893.31 1423.18 L1893.31 1423.18 L1961.58 1423.18 L1961.58 1423.18 L1893.31 1423.18 L1893.31 1423.18  Z" fill="#4682b4" fill-rule="evenodd" fill-opacity="0.6"/>
<polyline clip-path="url(#clip982)" style="stroke:#000000; stroke-linecap:round; stroke-linejoin:round; stroke-width:4; stroke-opacity:1; fill:none" points="1893.31,1423.18 1893.31,1423.18 1961.58,1423.18 1893.31,1423.18 "/>
<path clip-path="url(#clip982)" d="M1961.58 1375.29 L1961.58 1423.18 L2029.84 1423.18 L2029.84 1375.29 L1961.58 1375.29 L1961.58 1375.29  Z" fill="#4682b4" fill-rule="evenodd" fill-opacity="0.6"/>
<polyline clip-path="url(#clip982)" style="stroke:#000000; stroke-linecap:round; stroke-linejoin:round; stroke-width:4; stroke-opacity:1; fill:none" points="1961.58,1375.29 1961.58,1423.18 2029.84,1423.18 2029.84,1375.29 1961.58,1375.29 "/>
<path clip-path="url(#clip982)" d="M2029.84 1423.18 L2029.84 1423.18 L2098.1 1423.18 L2098.1 1423.18 L2029.84 1423.18 L2029.84 1423.18  Z" fill="#4682b4" fill-rule="evenodd" fill-opacity="0.6"/>
<polyline clip-path="url(#clip982)" style="stroke:#000000; stroke-linecap:round; stroke-linejoin:round; stroke-width:4; stroke-opacity:1; fill:none" points="2029.84,1423.18 2029.84,1423.18 2098.1,1423.18 2029.84,1423.18 "/>
<path clip-path="url(#clip982)" d="M2098.1 1423.18 L2098.1 1423.18 L2166.37 1423.18 L2166.37 1423.18 L2098.1 1423.18 L2098.1 1423.18  Z" fill="#4682b4" fill-rule="evenodd" fill-opacity="0.6"/>
<polyline clip-path="url(#clip982)" style="stroke:#000000; stroke-linecap:round; stroke-linejoin:round; stroke-width:4; stroke-opacity:1; fill:none" points="2098.1,1423.18 2098.1,1423.18 2166.37,1423.18 2098.1,1423.18 "/>
<path clip-path="url(#clip982)" d="M2166.37 1399.23 L2166.37 1423.18 L2234.63 1423.18 L2234.63 1399.23 L2166.37 1399.23 L2166.37 1399.23  Z" fill="#4682b4" fill-rule="evenodd" fill-opacity="0.6"/>
<polyline clip-path="url(#clip982)" style="stroke:#000000; stroke-linecap:round; stroke-linejoin:round; stroke-width:4; stroke-opacity:1; fill:none" points="2166.37,1399.23 2166.37,1423.18 2234.63,1423.18 2234.63,1399.23 2166.37,1399.23 "/>
<circle clip-path="url(#clip982)" style="fill:#4682b4; stroke:none; fill-opacity:0" cx="357.377" cy="1327.4" r="2"/>
<circle clip-path="url(#clip982)" style="fill:#4682b4; stroke:none; fill-opacity:0" cx="425.64" cy="1135.84" r="2"/>
<circle clip-path="url(#clip982)" style="fill:#4682b4; stroke:none; fill-opacity:0" cx="493.904" cy="1159.78" r="2"/>
<circle clip-path="url(#clip982)" style="fill:#4682b4; stroke:none; fill-opacity:0" cx="562.168" cy="561.152" r="2"/>
<circle clip-path="url(#clip982)" style="fill:#4682b4; stroke:none; fill-opacity:0" cx="630.432" cy="297.754" r="2"/>
<circle clip-path="url(#clip982)" style="fill:#4682b4; stroke:none; fill-opacity:0" cx="698.696" cy="130.137" r="2"/>
<circle clip-path="url(#clip982)" style="fill:#4682b4; stroke:none; fill-opacity:0" cx="766.96" cy="106.192" r="2"/>
<circle clip-path="url(#clip982)" style="fill:#4682b4; stroke:none; fill-opacity:0" cx="835.223" cy="154.083" r="2"/>
<circle clip-path="url(#clip982)" style="fill:#4682b4; stroke:none; fill-opacity:0" cx="903.487" cy="249.864" r="2"/>
<circle clip-path="url(#clip982)" style="fill:#4682b4; stroke:none; fill-opacity:0" cx="971.751" cy="632.987" r="2"/>
<circle clip-path="url(#clip982)" style="fill:#4682b4; stroke:none; fill-opacity:0" cx="1040.02" cy="680.878" r="2"/>
<circle clip-path="url(#clip982)" style="fill:#4682b4; stroke:none; fill-opacity:0" cx="1108.28" cy="609.042" r="2"/>
<circle clip-path="url(#clip982)" style="fill:#4682b4; stroke:none; fill-opacity:0" cx="1176.54" cy="872.44" r="2"/>
<circle clip-path="url(#clip982)" style="fill:#4682b4; stroke:none; fill-opacity:0" cx="1244.81" cy="1207.67" r="2"/>
<circle clip-path="url(#clip982)" style="fill:#4682b4; stroke:none; fill-opacity:0" cx="1313.07" cy="1064" r="2"/>
<circle clip-path="url(#clip982)" style="fill:#4682b4; stroke:none; fill-opacity:0" cx="1381.33" cy="1255.56" r="2"/>
<circle clip-path="url(#clip982)" style="fill:#4682b4; stroke:none; fill-opacity:0" cx="1449.6" cy="1279.51" r="2"/>
<circle clip-path="url(#clip982)" style="fill:#4682b4; stroke:none; fill-opacity:0" cx="1517.86" cy="1351.34" r="2"/>
<circle clip-path="url(#clip982)" style="fill:#4682b4; stroke:none; fill-opacity:0" cx="1586.13" cy="1303.45" r="2"/>
<circle clip-path="url(#clip982)" style="fill:#4682b4; stroke:none; fill-opacity:0" cx="1654.39" cy="1255.56" r="2"/>
<circle clip-path="url(#clip982)" style="fill:#4682b4; stroke:none; fill-opacity:0" cx="1722.65" cy="1375.29" r="2"/>
<circle clip-path="url(#clip982)" style="fill:#4682b4; stroke:none; fill-opacity:0" cx="1790.92" cy="1423.18" r="2"/>
<circle clip-path="url(#clip982)" style="fill:#4682b4; stroke:none; fill-opacity:0" cx="1859.18" cy="1399.23" r="2"/>
<circle clip-path="url(#clip982)" style="fill:#4682b4; stroke:none; fill-opacity:0" cx="1927.44" cy="1423.18" r="2"/>
<circle clip-path="url(#clip982)" style="fill:#4682b4; stroke:none; fill-opacity:0" cx="1995.71" cy="1375.29" r="2"/>
<circle clip-path="url(#clip982)" style="fill:#4682b4; stroke:none; fill-opacity:0" cx="2063.97" cy="1423.18" r="2"/>
<circle clip-path="url(#clip982)" style="fill:#4682b4; stroke:none; fill-opacity:0" cx="2132.24" cy="1423.18" r="2"/>
<circle clip-path="url(#clip982)" style="fill:#4682b4; stroke:none; fill-opacity:0" cx="2200.5" cy="1399.23" r="2"/>
<polyline clip-path="url(#clip982)" style="stroke:#ff0000; stroke-linecap:round; stroke-linejoin:round; stroke-width:8; stroke-opacity:1; fill:none" points="1190.83,2740.17 1190.83,-1210.8 "/>
<polyline clip-path="url(#clip982)" style="stroke:#0000ff; stroke-linecap:round; stroke-linejoin:round; stroke-width:8; stroke-opacity:1; fill:none" stroke-dasharray="32, 20" points="829.686,2740.17 829.686,-1210.8 "/>
<path clip-path="url(#clip980)" d="M1632.33 357.452 L2281.17 357.452 L2281.17 150.092 L1632.33 150.092  Z" fill="#ffffff" fill-rule="evenodd" fill-opacity="1"/>
<polyline clip-path="url(#clip980)" style="stroke:#000000; stroke-linecap:round; stroke-linejoin:round; stroke-width:4; stroke-opacity:1; fill:none" points="1632.33,357.452 2281.17,357.452 2281.17,150.092 1632.33,150.092 1632.33,357.452 "/>
<path clip-path="url(#clip980)" d="M1656.2 222.668 L1799.37 222.668 L1799.37 181.196 L1656.2 181.196 L1656.2 222.668  Z" fill="#4682b4" fill-rule="evenodd" fill-opacity="0.6"/>
<polyline clip-path="url(#clip980)" style="stroke:#000000; stroke-linecap:round; stroke-linejoin:round; stroke-width:4; stroke-opacity:1; fill:none" points="1656.2,222.668 1799.37,222.668 1799.37,181.196 1656.2,181.196 1656.2,222.668 "/>
<path clip-path="url(#clip980)" d="M1845.48 185.786 L1845.48 190.346 Q1842.82 189.073 1840.46 188.448 Q1838.09 187.823 1835.9 187.823 Q1832.08 187.823 1829.99 189.304 Q1827.93 190.786 1827.93 193.517 Q1827.93 195.809 1829.3 196.99 Q1830.69 198.147 1834.53 198.865 L1837.35 199.443 Q1842.59 200.439 1845.06 202.962 Q1847.56 205.462 1847.56 209.675 Q1847.56 214.698 1844.18 217.29 Q1840.83 219.883 1834.32 219.883 Q1831.87 219.883 1829.09 219.327 Q1826.34 218.772 1823.37 217.684 L1823.37 212.869 Q1826.22 214.466 1828.95 215.277 Q1831.68 216.087 1834.32 216.087 Q1838.33 216.087 1840.5 214.513 Q1842.68 212.939 1842.68 210.022 Q1842.68 207.476 1841.1 206.04 Q1839.55 204.605 1835.99 203.888 L1833.14 203.332 Q1827.91 202.291 1825.57 200.068 Q1823.23 197.846 1823.23 193.888 Q1823.23 189.304 1826.45 186.666 Q1829.69 184.027 1835.36 184.027 Q1837.79 184.027 1840.32 184.467 Q1842.84 184.906 1845.48 185.786 Z" fill="#000000" fill-rule="nonzero" fill-opacity="1" /><path clip-path="url(#clip980)" d="M1854.67 193.286 L1858.93 193.286 L1858.93 219.212 L1854.67 219.212 L1854.67 193.286 M1854.67 183.193 L1858.93 183.193 L1858.93 188.587 L1854.67 188.587 L1854.67 183.193 Z" fill="#000000" fill-rule="nonzero" fill-opacity="1" /><path clip-path="url(#clip980)" d="M1888.03 198.263 Q1889.62 195.392 1891.84 194.027 Q1894.07 192.661 1897.08 192.661 Q1901.13 192.661 1903.33 195.508 Q1905.52 198.332 1905.52 203.564 L1905.52 219.212 L1901.24 219.212 L1901.24 203.703 Q1901.24 199.976 1899.92 198.17 Q1898.6 196.365 1895.9 196.365 Q1892.59 196.365 1890.66 198.564 Q1888.74 200.763 1888.74 204.559 L1888.74 219.212 L1884.46 219.212 L1884.46 203.703 Q1884.46 199.953 1883.14 198.17 Q1881.82 196.365 1879.07 196.365 Q1875.8 196.365 1873.88 198.587 Q1871.96 200.786 1871.96 204.559 L1871.96 219.212 L1867.68 219.212 L1867.68 193.286 L1871.96 193.286 L1871.96 197.314 Q1873.42 194.929 1875.46 193.795 Q1877.49 192.661 1880.29 192.661 Q1883.12 192.661 1885.09 194.096 Q1887.08 195.531 1888.03 198.263 Z" fill="#000000" fill-rule="nonzero" fill-opacity="1" /><path clip-path="url(#clip980)" d="M1913.58 208.98 L1913.58 193.286 L1917.84 193.286 L1917.84 208.818 Q1917.84 212.499 1919.27 214.351 Q1920.71 216.179 1923.58 216.179 Q1927.03 216.179 1929.02 213.98 Q1931.03 211.781 1931.03 207.985 L1931.03 193.286 L1935.29 193.286 L1935.29 219.212 L1931.03 219.212 L1931.03 215.23 Q1929.48 217.591 1927.42 218.749 Q1925.39 219.883 1922.68 219.883 Q1918.21 219.883 1915.9 217.105 Q1913.58 214.327 1913.58 208.98 M1924.3 192.661 L1924.3 192.661 Z" fill="#000000" fill-rule="nonzero" fill-opacity="1" /><path clip-path="url(#clip980)" d="M1944.07 183.193 L1948.33 183.193 L1948.33 219.212 L1944.07 219.212 L1944.07 183.193 Z" fill="#000000" fill-rule="nonzero" fill-opacity="1" /><path clip-path="url(#clip980)" d="M1969.02 206.179 Q1963.86 206.179 1961.87 207.36 Q1959.88 208.54 1959.88 211.388 Q1959.88 213.656 1961.36 214.999 Q1962.86 216.318 1965.43 216.318 Q1968.97 216.318 1971.1 213.818 Q1973.26 211.295 1973.26 207.128 L1973.26 206.179 L1969.02 206.179 M1977.52 204.42 L1977.52 219.212 L1973.26 219.212 L1973.26 215.277 Q1971.8 217.638 1969.62 218.772 Q1967.45 219.883 1964.3 219.883 Q1960.32 219.883 1957.96 217.661 Q1955.62 215.415 1955.62 211.665 Q1955.62 207.29 1958.53 205.068 Q1961.47 202.846 1967.28 202.846 L1973.26 202.846 L1973.26 202.429 Q1973.26 199.49 1971.31 197.892 Q1969.39 196.272 1965.89 196.272 Q1963.67 196.272 1961.57 196.804 Q1959.46 197.337 1957.52 198.402 L1957.52 194.466 Q1959.85 193.564 1962.05 193.124 Q1964.25 192.661 1966.33 192.661 Q1971.96 192.661 1974.74 195.578 Q1977.52 198.494 1977.52 204.42 Z" fill="#000000" fill-rule="nonzero" fill-opacity="1" /><path clip-path="url(#clip980)" d="M1990.5 185.925 L1990.5 193.286 L1999.27 193.286 L1999.27 196.596 L1990.5 196.596 L1990.5 210.67 Q1990.5 213.841 1991.36 214.744 Q1992.24 215.647 1994.9 215.647 L1999.27 215.647 L1999.27 219.212 L1994.9 219.212 Q1989.97 219.212 1988.09 217.383 Q1986.22 215.531 1986.22 210.67 L1986.22 196.596 L1983.09 196.596 L1983.09 193.286 L1986.22 193.286 L1986.22 185.925 L1990.5 185.925 Z" fill="#000000" fill-rule="nonzero" fill-opacity="1" /><path clip-path="url(#clip980)" d="M2027.05 205.184 L2027.05 207.267 L2007.47 207.267 Q2007.75 211.665 2010.11 213.98 Q2012.49 216.272 2016.73 216.272 Q2019.18 216.272 2021.47 215.67 Q2023.79 215.068 2026.06 213.865 L2026.06 217.892 Q2023.77 218.864 2021.36 219.374 Q2018.95 219.883 2016.47 219.883 Q2010.27 219.883 2006.64 216.272 Q2003.02 212.661 2003.02 206.503 Q2003.02 200.138 2006.45 196.411 Q2009.9 192.661 2015.73 192.661 Q2020.96 192.661 2024 196.041 Q2027.05 199.397 2027.05 205.184 M2022.79 203.934 Q2022.75 200.439 2020.83 198.355 Q2018.93 196.272 2015.78 196.272 Q2012.21 196.272 2010.06 198.286 Q2007.93 200.3 2007.61 203.957 L2022.79 203.934 Z" fill="#000000" fill-rule="nonzero" fill-opacity="1" /><path clip-path="url(#clip980)" d="M2051.1 197.221 L2051.1 183.193 L2055.36 183.193 L2055.36 219.212 L2051.1 219.212 L2051.1 215.323 Q2049.76 217.638 2047.7 218.772 Q2045.66 219.883 2042.79 219.883 Q2038.09 219.883 2035.13 216.133 Q2032.19 212.383 2032.19 206.272 Q2032.19 200.161 2035.13 196.411 Q2038.09 192.661 2042.79 192.661 Q2045.66 192.661 2047.7 193.795 Q2049.76 194.906 2051.1 197.221 M2036.59 206.272 Q2036.59 210.971 2038.51 213.656 Q2040.45 216.318 2043.83 216.318 Q2047.21 216.318 2049.16 213.656 Q2051.1 210.971 2051.1 206.272 Q2051.1 201.573 2049.16 198.911 Q2047.21 196.226 2043.83 196.226 Q2040.45 196.226 2038.51 198.911 Q2036.59 201.573 2036.59 206.272 Z" fill="#000000" fill-rule="nonzero" fill-opacity="1" /><polyline clip-path="url(#clip980)" style="stroke:#ff0000; stroke-linecap:round; stroke-linejoin:round; stroke-width:8; stroke-opacity:1; fill:none" points="1656.2,253.772 1799.37,253.772 "/>
<path clip-path="url(#clip980)" d="M1839.25 239.663 Q1834.16 239.663 1831.15 243.459 Q1828.16 247.256 1828.16 253.806 Q1828.16 260.334 1831.15 264.13 Q1834.16 267.927 1839.25 267.927 Q1844.34 267.927 1847.31 264.13 Q1850.29 260.334 1850.29 253.806 Q1850.29 247.256 1847.31 243.459 Q1844.34 239.663 1839.25 239.663 M1839.25 235.867 Q1846.52 235.867 1850.87 240.751 Q1855.22 245.612 1855.22 253.806 Q1855.22 261.978 1850.87 266.862 Q1846.52 271.723 1839.25 271.723 Q1831.96 271.723 1827.59 266.862 Q1823.23 262.001 1823.23 253.806 Q1823.23 245.612 1827.59 240.751 Q1831.96 235.867 1839.25 235.867 Z" fill="#000000" fill-rule="nonzero" fill-opacity="1" /><path clip-path="url(#clip980)" d="M1880.96 258.112 Q1880.96 253.413 1879.02 250.751 Q1877.1 248.066 1873.72 248.066 Q1870.34 248.066 1868.4 250.751 Q1866.47 253.413 1866.47 258.112 Q1866.47 262.811 1868.4 265.496 Q1870.34 268.158 1873.72 268.158 Q1877.1 268.158 1879.02 265.496 Q1880.96 262.811 1880.96 258.112 M1866.47 249.061 Q1867.82 246.746 1869.85 245.635 Q1871.91 244.501 1874.76 244.501 Q1879.48 244.501 1882.42 248.251 Q1885.39 252.001 1885.39 258.112 Q1885.39 264.223 1882.42 267.973 Q1879.48 271.723 1874.76 271.723 Q1871.91 271.723 1869.85 270.612 Q1867.82 269.478 1866.47 267.163 L1866.47 271.052 L1862.19 271.052 L1862.19 235.033 L1866.47 235.033 L1866.47 249.061 Z" fill="#000000" fill-rule="nonzero" fill-opacity="1" /><path clip-path="url(#clip980)" d="M1908.97 245.89 L1908.97 249.918 Q1907.17 248.992 1905.22 248.529 Q1903.28 248.066 1901.2 248.066 Q1898.02 248.066 1896.43 249.038 Q1894.85 250.01 1894.85 251.955 Q1894.85 253.436 1895.99 254.293 Q1897.12 255.126 1900.55 255.89 L1902.01 256.214 Q1906.54 257.186 1908.44 258.968 Q1910.36 260.728 1910.36 263.899 Q1910.36 267.51 1907.49 269.617 Q1904.65 271.723 1899.65 271.723 Q1897.56 271.723 1895.29 271.306 Q1893.05 270.913 1890.55 270.103 L1890.55 265.705 Q1892.91 266.931 1895.2 267.556 Q1897.49 268.158 1899.74 268.158 Q1902.75 268.158 1904.37 267.14 Q1905.99 266.098 1905.99 264.223 Q1905.99 262.487 1904.81 261.561 Q1903.65 260.635 1899.69 259.779 L1898.21 259.431 Q1894.25 258.598 1892.49 256.885 Q1890.73 255.149 1890.73 252.14 Q1890.73 248.482 1893.33 246.492 Q1895.92 244.501 1900.69 244.501 Q1903.05 244.501 1905.13 244.848 Q1907.21 245.195 1908.97 245.89 Z" fill="#000000" fill-rule="nonzero" fill-opacity="1" /><path clip-path="url(#clip980)" d="M1939.32 257.024 L1939.32 259.107 L1919.74 259.107 Q1920.02 263.505 1922.38 265.82 Q1924.76 268.112 1929 268.112 Q1931.45 268.112 1933.74 267.51 Q1936.06 266.908 1938.33 265.705 L1938.33 269.732 Q1936.03 270.704 1933.63 271.214 Q1931.22 271.723 1928.74 271.723 Q1922.54 271.723 1918.9 268.112 Q1915.29 264.501 1915.29 258.343 Q1915.29 251.978 1918.72 248.251 Q1922.17 244.501 1928 244.501 Q1933.23 244.501 1936.27 247.881 Q1939.32 251.237 1939.32 257.024 M1935.06 255.774 Q1935.02 252.279 1933.09 250.195 Q1931.2 248.112 1928.05 248.112 Q1924.48 248.112 1922.33 250.126 Q1920.2 252.14 1919.88 255.797 L1935.06 255.774 Z" fill="#000000" fill-rule="nonzero" fill-opacity="1" /><path clip-path="url(#clip980)" d="M1961.33 249.107 Q1960.62 248.691 1959.76 248.506 Q1958.93 248.297 1957.91 248.297 Q1954.3 248.297 1952.35 250.658 Q1950.43 252.996 1950.43 257.394 L1950.43 271.052 L1946.15 271.052 L1946.15 245.126 L1950.43 245.126 L1950.43 249.154 Q1951.77 246.793 1953.93 245.658 Q1956.08 244.501 1959.16 244.501 Q1959.6 244.501 1960.13 244.57 Q1960.66 244.617 1961.31 244.732 L1961.33 249.107 Z" fill="#000000" fill-rule="nonzero" fill-opacity="1" /><path clip-path="url(#clip980)" d="M1962.75 245.126 L1967.26 245.126 L1975.36 266.885 L1983.46 245.126 L1987.98 245.126 L1978.26 271.052 L1972.47 271.052 L1962.75 245.126 Z" fill="#000000" fill-rule="nonzero" fill-opacity="1" /><path clip-path="url(#clip980)" d="M2016.03 257.024 L2016.03 259.107 L1996.45 259.107 Q1996.73 263.505 1999.09 265.82 Q2001.47 268.112 2005.71 268.112 Q2008.16 268.112 2010.45 267.51 Q2012.77 266.908 2015.04 265.705 L2015.04 269.732 Q2012.75 270.704 2010.34 271.214 Q2007.93 271.723 2005.45 271.723 Q1999.25 271.723 1995.62 268.112 Q1992.01 264.501 1992.01 258.343 Q1992.01 251.978 1995.43 248.251 Q1998.88 244.501 2004.71 244.501 Q2009.95 244.501 2012.98 247.881 Q2016.03 251.237 2016.03 257.024 M2011.77 255.774 Q2011.73 252.279 2009.81 250.195 Q2007.91 248.112 2004.76 248.112 Q2001.2 248.112 1999.04 250.126 Q1996.91 252.14 1996.59 255.797 L2011.77 255.774 Z" fill="#000000" fill-rule="nonzero" fill-opacity="1" /><path clip-path="url(#clip980)" d="M2040.08 249.061 L2040.08 235.033 L2044.34 235.033 L2044.34 271.052 L2040.08 271.052 L2040.08 267.163 Q2038.74 269.478 2036.68 270.612 Q2034.64 271.723 2031.77 271.723 Q2027.08 271.723 2024.11 267.973 Q2021.17 264.223 2021.17 258.112 Q2021.17 252.001 2024.11 248.251 Q2027.08 244.501 2031.77 244.501 Q2034.64 244.501 2036.68 245.635 Q2038.74 246.746 2040.08 249.061 M2025.57 258.112 Q2025.57 262.811 2027.49 265.496 Q2029.44 268.158 2032.82 268.158 Q2036.2 268.158 2038.14 265.496 Q2040.08 262.811 2040.08 258.112 Q2040.08 253.413 2038.14 250.751 Q2036.2 248.066 2032.82 248.066 Q2029.44 248.066 2027.49 250.751 Q2025.57 253.413 2025.57 258.112 Z" fill="#000000" fill-rule="nonzero" fill-opacity="1" /><path clip-path="url(#clip980)" d="M2072.4 237.765 L2072.4 245.126 L2081.17 245.126 L2081.17 248.436 L2072.4 248.436 L2072.4 262.51 Q2072.4 265.681 2073.26 266.584 Q2074.14 267.487 2076.8 267.487 L2081.17 267.487 L2081.17 271.052 L2076.8 271.052 Q2071.87 271.052 2069.99 269.223 Q2068.12 267.371 2068.12 262.51 L2068.12 248.436 L2064.99 248.436 L2064.99 245.126 L2068.12 245.126 L2068.12 237.765 L2072.4 237.765 Z" fill="#000000" fill-rule="nonzero" fill-opacity="1" /><path clip-path="url(#clip980)" d="M2108.95 257.024 L2108.95 259.107 L2089.37 259.107 Q2089.64 263.505 2092.01 265.82 Q2094.39 268.112 2098.63 268.112 Q2101.08 268.112 2103.37 267.51 Q2105.69 266.908 2107.95 265.705 L2107.95 269.732 Q2105.66 270.704 2103.26 271.214 Q2100.85 271.723 2098.37 271.723 Q2092.17 271.723 2088.53 268.112 Q2084.92 264.501 2084.92 258.343 Q2084.92 251.978 2088.35 248.251 Q2091.8 244.501 2097.63 244.501 Q2102.86 244.501 2105.89 247.881 Q2108.95 251.237 2108.95 257.024 M2104.69 255.774 Q2104.64 252.279 2102.72 250.195 Q2100.82 248.112 2097.68 248.112 Q2094.11 248.112 2091.96 250.126 Q2089.83 252.14 2089.51 255.797 L2104.69 255.774 Z" fill="#000000" fill-rule="nonzero" fill-opacity="1" /><path clip-path="url(#clip980)" d="M2130.96 249.107 Q2130.25 248.691 2129.39 248.506 Q2128.56 248.297 2127.54 248.297 Q2123.93 248.297 2121.98 250.658 Q2120.06 252.996 2120.06 257.394 L2120.06 271.052 L2115.78 271.052 L2115.78 245.126 L2120.06 245.126 L2120.06 249.154 Q2121.4 246.793 2123.56 245.658 Q2125.71 244.501 2128.79 244.501 Q2129.23 244.501 2129.76 244.57 Q2130.29 244.617 2130.94 244.732 L2130.96 249.107 Z" fill="#000000" fill-rule="nonzero" fill-opacity="1" /><path clip-path="url(#clip980)" d="M2154.78 250.103 Q2156.38 247.232 2158.6 245.867 Q2160.82 244.501 2163.83 244.501 Q2167.88 244.501 2170.08 247.348 Q2172.28 250.172 2172.28 255.404 L2172.28 271.052 L2168 271.052 L2168 255.543 Q2168 251.816 2166.68 250.01 Q2165.36 248.205 2162.65 248.205 Q2159.34 248.205 2157.42 250.404 Q2155.5 252.603 2155.5 256.399 L2155.5 271.052 L2151.22 271.052 L2151.22 255.543 Q2151.22 251.793 2149.9 250.01 Q2148.58 248.205 2145.82 248.205 Q2142.56 248.205 2140.64 250.427 Q2138.72 252.626 2138.72 256.399 L2138.72 271.052 L2134.44 271.052 L2134.44 245.126 L2138.72 245.126 L2138.72 249.154 Q2140.18 246.769 2142.21 245.635 Q2144.25 244.501 2147.05 244.501 Q2149.88 244.501 2151.84 245.936 Q2153.83 247.371 2154.78 250.103 Z" fill="#000000" fill-rule="nonzero" fill-opacity="1" /><path clip-path="url(#clip980)" d="M2180.78 245.126 L2185.04 245.126 L2185.04 271.052 L2180.78 271.052 L2180.78 245.126 M2180.78 235.033 L2185.04 235.033 L2185.04 240.427 L2180.78 240.427 L2180.78 235.033 Z" fill="#000000" fill-rule="nonzero" fill-opacity="1" /><path clip-path="url(#clip980)" d="M2215.5 255.404 L2215.5 271.052 L2211.24 271.052 L2211.24 255.543 Q2211.24 251.862 2209.81 250.033 Q2208.37 248.205 2205.5 248.205 Q2202.05 248.205 2200.06 250.404 Q2198.07 252.603 2198.07 256.399 L2198.07 271.052 L2193.79 271.052 L2193.79 245.126 L2198.07 245.126 L2198.07 249.154 Q2199.6 246.816 2201.66 245.658 Q2203.74 244.501 2206.45 244.501 Q2210.92 244.501 2213.21 247.279 Q2215.5 250.033 2215.5 255.404 Z" fill="#000000" fill-rule="nonzero" fill-opacity="1" /><path clip-path="url(#clip980)" d="M2235.78 258.019 Q2230.62 258.019 2228.63 259.2 Q2226.63 260.38 2226.63 263.228 Q2226.63 265.496 2228.12 266.839 Q2229.62 268.158 2232.19 268.158 Q2235.73 268.158 2237.86 265.658 Q2240.01 263.135 2240.01 258.968 L2240.01 258.019 L2235.78 258.019 M2244.27 256.26 L2244.27 271.052 L2240.01 271.052 L2240.01 267.117 Q2238.56 269.478 2236.38 270.612 Q2234.2 271.723 2231.06 271.723 Q2227.07 271.723 2224.71 269.501 Q2222.38 267.255 2222.38 263.505 Q2222.38 259.13 2225.29 256.908 Q2228.23 254.686 2234.04 254.686 L2240.01 254.686 L2240.01 254.269 Q2240.01 251.33 2238.07 249.732 Q2236.15 248.112 2232.65 248.112 Q2230.43 248.112 2228.32 248.644 Q2226.22 249.177 2224.27 250.242 L2224.27 246.306 Q2226.61 245.404 2228.81 244.964 Q2231.01 244.501 2233.09 244.501 Q2238.72 244.501 2241.5 247.418 Q2244.27 250.334 2244.27 256.26 Z" fill="#000000" fill-rule="nonzero" fill-opacity="1" /><path clip-path="url(#clip980)" d="M2253.05 235.033 L2257.31 235.033 L2257.31 271.052 L2253.05 271.052 L2253.05 235.033 Z" fill="#000000" fill-rule="nonzero" fill-opacity="1" /><polyline clip-path="url(#clip980)" style="stroke:#0000ff; stroke-linecap:round; stroke-linejoin:round; stroke-width:8; stroke-opacity:1; fill:none" stroke-dasharray="32, 20" points="1656.2,305.612 1799.37,305.612 "/>
<path clip-path="url(#clip980)" d="M1845.48 289.466 L1845.48 294.026 Q1842.82 292.753 1840.46 292.128 Q1838.09 291.503 1835.9 291.503 Q1832.08 291.503 1829.99 292.984 Q1827.93 294.466 1827.93 297.197 Q1827.93 299.489 1829.3 300.67 Q1830.69 301.827 1834.53 302.545 L1837.35 303.123 Q1842.59 304.119 1845.06 306.642 Q1847.56 309.142 1847.56 313.355 Q1847.56 318.378 1844.18 320.97 Q1840.83 323.563 1834.32 323.563 Q1831.87 323.563 1829.09 323.007 Q1826.34 322.452 1823.37 321.364 L1823.37 316.549 Q1826.22 318.146 1828.95 318.957 Q1831.68 319.767 1834.32 319.767 Q1838.33 319.767 1840.5 318.193 Q1842.68 316.619 1842.68 313.702 Q1842.68 311.156 1841.1 309.72 Q1839.55 308.285 1835.99 307.568 L1833.14 307.012 Q1827.91 305.971 1825.57 303.748 Q1823.23 301.526 1823.23 297.568 Q1823.23 292.984 1826.45 290.346 Q1829.69 287.707 1835.36 287.707 Q1837.79 287.707 1840.32 288.147 Q1842.84 288.586 1845.48 289.466 Z" fill="#000000" fill-rule="nonzero" fill-opacity="1" /><path clip-path="url(#clip980)" d="M1854.67 296.966 L1858.93 296.966 L1858.93 322.892 L1854.67 322.892 L1854.67 296.966 M1854.67 286.873 L1858.93 286.873 L1858.93 292.267 L1854.67 292.267 L1854.67 286.873 Z" fill="#000000" fill-rule="nonzero" fill-opacity="1" /><path clip-path="url(#clip980)" d="M1888.03 301.943 Q1889.62 299.072 1891.84 297.707 Q1894.07 296.341 1897.08 296.341 Q1901.13 296.341 1903.33 299.188 Q1905.52 302.012 1905.52 307.244 L1905.52 322.892 L1901.24 322.892 L1901.24 307.383 Q1901.24 303.656 1899.92 301.85 Q1898.6 300.045 1895.9 300.045 Q1892.59 300.045 1890.66 302.244 Q1888.74 304.443 1888.74 308.239 L1888.74 322.892 L1884.46 322.892 L1884.46 307.383 Q1884.46 303.633 1883.14 301.85 Q1881.82 300.045 1879.07 300.045 Q1875.8 300.045 1873.88 302.267 Q1871.96 304.466 1871.96 308.239 L1871.96 322.892 L1867.68 322.892 L1867.68 296.966 L1871.96 296.966 L1871.96 300.994 Q1873.42 298.609 1875.46 297.475 Q1877.49 296.341 1880.29 296.341 Q1883.12 296.341 1885.09 297.776 Q1887.08 299.211 1888.03 301.943 Z" fill="#000000" fill-rule="nonzero" fill-opacity="1" /><path clip-path="url(#clip980)" d="M1913.58 312.66 L1913.58 296.966 L1917.84 296.966 L1917.84 312.498 Q1917.84 316.179 1919.27 318.031 Q1920.71 319.859 1923.58 319.859 Q1927.03 319.859 1929.02 317.66 Q1931.03 315.461 1931.03 311.665 L1931.03 296.966 L1935.29 296.966 L1935.29 322.892 L1931.03 322.892 L1931.03 318.91 Q1929.48 321.271 1927.42 322.429 Q1925.39 323.563 1922.68 323.563 Q1918.21 323.563 1915.9 320.785 Q1913.58 318.007 1913.58 312.66 M1924.3 296.341 L1924.3 296.341 Z" fill="#000000" fill-rule="nonzero" fill-opacity="1" /><path clip-path="url(#clip980)" d="M1944.07 286.873 L1948.33 286.873 L1948.33 322.892 L1944.07 322.892 L1944.07 286.873 Z" fill="#000000" fill-rule="nonzero" fill-opacity="1" /><path clip-path="url(#clip980)" d="M1969.02 309.859 Q1963.86 309.859 1961.87 311.04 Q1959.88 312.22 1959.88 315.068 Q1959.88 317.336 1961.36 318.679 Q1962.86 319.998 1965.43 319.998 Q1968.97 319.998 1971.1 317.498 Q1973.26 314.975 1973.26 310.808 L1973.26 309.859 L1969.02 309.859 M1977.52 308.1 L1977.52 322.892 L1973.26 322.892 L1973.26 318.957 Q1971.8 321.318 1969.62 322.452 Q1967.45 323.563 1964.3 323.563 Q1960.32 323.563 1957.96 321.341 Q1955.62 319.095 1955.62 315.345 Q1955.62 310.97 1958.53 308.748 Q1961.47 306.526 1967.28 306.526 L1973.26 306.526 L1973.26 306.109 Q1973.26 303.17 1971.31 301.572 Q1969.39 299.952 1965.89 299.952 Q1963.67 299.952 1961.57 300.484 Q1959.46 301.017 1957.52 302.082 L1957.52 298.146 Q1959.85 297.244 1962.05 296.804 Q1964.25 296.341 1966.33 296.341 Q1971.96 296.341 1974.74 299.258 Q1977.52 302.174 1977.52 308.1 Z" fill="#000000" fill-rule="nonzero" fill-opacity="1" /><path clip-path="url(#clip980)" d="M1990.5 289.605 L1990.5 296.966 L1999.27 296.966 L1999.27 300.276 L1990.5 300.276 L1990.5 314.35 Q1990.5 317.521 1991.36 318.424 Q1992.24 319.327 1994.9 319.327 L1999.27 319.327 L1999.27 322.892 L1994.9 322.892 Q1989.97 322.892 1988.09 321.063 Q1986.22 319.211 1986.22 314.35 L1986.22 300.276 L1983.09 300.276 L1983.09 296.966 L1986.22 296.966 L1986.22 289.605 L1990.5 289.605 Z" fill="#000000" fill-rule="nonzero" fill-opacity="1" /><path clip-path="url(#clip980)" d="M2027.05 308.864 L2027.05 310.947 L2007.47 310.947 Q2007.75 315.345 2010.11 317.66 Q2012.49 319.952 2016.73 319.952 Q2019.18 319.952 2021.47 319.35 Q2023.79 318.748 2026.06 317.545 L2026.06 321.572 Q2023.77 322.544 2021.36 323.054 Q2018.95 323.563 2016.47 323.563 Q2010.27 323.563 2006.64 319.952 Q2003.02 316.341 2003.02 310.183 Q2003.02 303.818 2006.45 300.091 Q2009.9 296.341 2015.73 296.341 Q2020.96 296.341 2024 299.721 Q2027.05 303.077 2027.05 308.864 M2022.79 307.614 Q2022.75 304.119 2020.83 302.035 Q2018.93 299.952 2015.78 299.952 Q2012.21 299.952 2010.06 301.966 Q2007.93 303.98 2007.61 307.637 L2022.79 307.614 Z" fill="#000000" fill-rule="nonzero" fill-opacity="1" /><path clip-path="url(#clip980)" d="M2051.1 300.901 L2051.1 286.873 L2055.36 286.873 L2055.36 322.892 L2051.1 322.892 L2051.1 319.003 Q2049.76 321.318 2047.7 322.452 Q2045.66 323.563 2042.79 323.563 Q2038.09 323.563 2035.13 319.813 Q2032.19 316.063 2032.19 309.952 Q2032.19 303.841 2035.13 300.091 Q2038.09 296.341 2042.79 296.341 Q2045.66 296.341 2047.7 297.475 Q2049.76 298.586 2051.1 300.901 M2036.59 309.952 Q2036.59 314.651 2038.51 317.336 Q2040.45 319.998 2043.83 319.998 Q2047.21 319.998 2049.16 317.336 Q2051.1 314.651 2051.1 309.952 Q2051.1 305.253 2049.16 302.591 Q2047.21 299.906 2043.83 299.906 Q2040.45 299.906 2038.51 302.591 Q2036.59 305.253 2036.59 309.952 Z" fill="#000000" fill-rule="nonzero" fill-opacity="1" /><path clip-path="url(#clip980)" d="M2099.39 301.943 Q2100.99 299.072 2103.21 297.707 Q2105.43 296.341 2108.44 296.341 Q2112.49 296.341 2114.69 299.188 Q2116.89 302.012 2116.89 307.244 L2116.89 322.892 L2112.61 322.892 L2112.61 307.383 Q2112.61 303.656 2111.29 301.85 Q2109.97 300.045 2107.26 300.045 Q2103.95 300.045 2102.03 302.244 Q2100.11 304.443 2100.11 308.239 L2100.11 322.892 L2095.82 322.892 L2095.82 307.383 Q2095.82 303.633 2094.51 301.85 Q2093.19 300.045 2090.43 300.045 Q2087.17 300.045 2085.25 302.267 Q2083.32 304.466 2083.32 308.239 L2083.32 322.892 L2079.04 322.892 L2079.04 296.966 L2083.32 296.966 L2083.32 300.994 Q2084.78 298.609 2086.82 297.475 Q2088.86 296.341 2091.66 296.341 Q2094.48 296.341 2096.45 297.776 Q2098.44 299.211 2099.39 301.943 Z" fill="#000000" fill-rule="nonzero" fill-opacity="1" /><path clip-path="url(#clip980)" d="M2147.56 308.864 L2147.56 310.947 L2127.98 310.947 Q2128.26 315.345 2130.62 317.66 Q2133 319.952 2137.24 319.952 Q2139.69 319.952 2141.98 319.35 Q2144.3 318.748 2146.57 317.545 L2146.57 321.572 Q2144.27 322.544 2141.87 323.054 Q2139.46 323.563 2136.98 323.563 Q2130.78 323.563 2127.14 319.952 Q2123.53 316.341 2123.53 310.183 Q2123.53 303.818 2126.96 300.091 Q2130.41 296.341 2136.24 296.341 Q2141.47 296.341 2144.51 299.721 Q2147.56 303.077 2147.56 308.864 M2143.3 307.614 Q2143.26 304.119 2141.33 302.035 Q2139.44 299.952 2136.29 299.952 Q2132.72 299.952 2130.57 301.966 Q2128.44 303.98 2128.12 307.637 L2143.3 307.614 Z" fill="#000000" fill-rule="nonzero" fill-opacity="1" /><path clip-path="url(#clip980)" d="M2171.61 300.901 L2171.61 286.873 L2175.87 286.873 L2175.87 322.892 L2171.61 322.892 L2171.61 319.003 Q2170.27 321.318 2168.21 322.452 Q2166.17 323.563 2163.3 323.563 Q2158.6 323.563 2155.64 319.813 Q2152.7 316.063 2152.7 309.952 Q2152.7 303.841 2155.64 300.091 Q2158.6 296.341 2163.3 296.341 Q2166.17 296.341 2168.21 297.475 Q2170.27 298.586 2171.61 300.901 M2157.1 309.952 Q2157.1 314.651 2159.02 317.336 Q2160.96 319.998 2164.34 319.998 Q2167.72 319.998 2169.67 317.336 Q2171.61 314.651 2171.61 309.952 Q2171.61 305.253 2169.67 302.591 Q2167.72 299.906 2164.34 299.906 Q2160.96 299.906 2159.02 302.591 Q2157.1 305.253 2157.1 309.952 Z" fill="#000000" fill-rule="nonzero" fill-opacity="1" /><path clip-path="url(#clip980)" d="M2184.64 296.966 L2188.9 296.966 L2188.9 322.892 L2184.64 322.892 L2184.64 296.966 M2184.64 286.873 L2188.9 286.873 L2188.9 292.267 L2184.64 292.267 L2184.64 286.873 Z" fill="#000000" fill-rule="nonzero" fill-opacity="1" /><path clip-path="url(#clip980)" d="M2209.6 309.859 Q2204.44 309.859 2202.44 311.04 Q2200.45 312.22 2200.45 315.068 Q2200.45 317.336 2201.94 318.679 Q2203.44 319.998 2206.01 319.998 Q2209.55 319.998 2211.68 317.498 Q2213.83 314.975 2213.83 310.808 L2213.83 309.859 L2209.6 309.859 M2218.09 308.1 L2218.09 322.892 L2213.83 322.892 L2213.83 318.957 Q2212.38 321.318 2210.2 322.452 Q2208.02 323.563 2204.88 323.563 Q2200.89 323.563 2198.53 321.341 Q2196.19 319.095 2196.19 315.345 Q2196.19 310.97 2199.11 308.748 Q2202.05 306.526 2207.86 306.526 L2213.83 306.526 L2213.83 306.109 Q2213.83 303.17 2211.89 301.572 Q2209.97 299.952 2206.47 299.952 Q2204.25 299.952 2202.14 300.484 Q2200.04 301.017 2198.09 302.082 L2198.09 298.146 Q2200.43 297.244 2202.63 296.804 Q2204.83 296.341 2206.91 296.341 Q2212.54 296.341 2215.31 299.258 Q2218.09 302.174 2218.09 308.1 Z" fill="#000000" fill-rule="nonzero" fill-opacity="1" /><path clip-path="url(#clip980)" d="M2248.42 307.244 L2248.42 322.892 L2244.16 322.892 L2244.16 307.383 Q2244.16 303.702 2242.72 301.873 Q2241.29 300.045 2238.42 300.045 Q2234.97 300.045 2232.98 302.244 Q2230.99 304.443 2230.99 308.239 L2230.99 322.892 L2226.7 322.892 L2226.7 296.966 L2230.99 296.966 L2230.99 300.994 Q2232.51 298.656 2234.57 297.498 Q2236.66 296.341 2239.37 296.341 Q2243.83 296.341 2246.12 299.119 Q2248.42 301.873 2248.42 307.244 Z" fill="#000000" fill-rule="nonzero" fill-opacity="1" /></svg>
