<?xml version="1.0" encoding="utf-8"?>
<svg xmlns="http://www.w3.org/2000/svg" xmlns:xlink="http://www.w3.org/1999/xlink" width="700" height="420" viewBox="0 0 2800 1680">
<defs>
  <clipPath id="clip760">
    <rect x="0" y="0" width="2800" height="1680"/>
  </clipPath>
</defs>
<path clip-path="url(#clip760)" d="M0 1680 L2800 1680 L2800 6.21725e-14 L0 6.21725e-14  Z" fill="#ffffff" fill-rule="evenodd" fill-opacity="1"/>
<defs>
  <clipPath id="clip761">
    <rect x="278" y="101" width="2475" height="1410"/>
  </clipPath>
</defs>
<path clip-path="url(#clip760)" d="M278.952 1510.59 L2752.76 1510.59 L2752.76 101.872 L278.952 101.872  Z" fill="#ffffff" fill-rule="evenodd" fill-opacity="1"/>
<polyline clip-path="url(#clip761)" style="stroke:#000000; stroke-linecap:round; stroke-linejoin:round; stroke-width:2; stroke-opacity:0.1; fill:none" points="840.287,1510.59 840.287,101.872 "/>
<polyline clip-path="url(#clip761)" style="stroke:#000000; stroke-linecap:round; stroke-linejoin:round; stroke-width:2; stroke-opacity:0.1; fill:none" points="1454.44,1510.59 1454.44,101.872 "/>
<polyline clip-path="url(#clip761)" style="stroke:#000000; stroke-linecap:round; stroke-linejoin:round; stroke-width:2; stroke-opacity:0.1; fill:none" points="2068.59,1510.59 2068.59,101.872 "/>
<polyline clip-path="url(#clip761)" style="stroke:#000000; stroke-linecap:round; stroke-linejoin:round; stroke-width:2; stroke-opacity:0.1; fill:none" points="2682.74,1510.59 2682.74,101.872 "/>
<polyline clip-path="url(#clip761)" style="stroke:#000000; stroke-linecap:round; stroke-linejoin:round; stroke-width:2; stroke-opacity:0.1; fill:none" points="278.952,1475.72 2752.76,1475.72 "/>
<polyline clip-path="url(#clip761)" style="stroke:#000000; stroke-linecap:round; stroke-linejoin:round; stroke-width:2; stroke-opacity:0.1; fill:none" points="278.952,1236.82 2752.76,1236.82 "/>
<polyline clip-path="url(#clip761)" style="stroke:#000000; stroke-linecap:round; stroke-linejoin:round; stroke-width:2; stroke-opacity:0.1; fill:none" points="278.952,997.927 2752.76,997.927 "/>
<polyline clip-path="url(#clip761)" style="stroke:#000000; stroke-linecap:round; stroke-linejoin:round; stroke-width:2; stroke-opacity:0.1; fill:none" points="278.952,759.03 2752.76,759.03 "/>
<polyline clip-path="url(#clip761)" style="stroke:#000000; stroke-linecap:round; stroke-linejoin:round; stroke-width:2; stroke-opacity:0.1; fill:none" points="278.952,520.133 2752.76,520.133 "/>
<polyline clip-path="url(#clip761)" style="stroke:#000000; stroke-linecap:round; stroke-linejoin:round; stroke-width:2; stroke-opacity:0.1; fill:none" points="278.952,281.236 2752.76,281.236 "/>
<polyline clip-path="url(#clip760)" style="stroke:#000000; stroke-linecap:round; stroke-linejoin:round; stroke-width:4; stroke-opacity:1; fill:none" points="278.952,1510.59 2752.76,1510.59 "/>
<polyline clip-path="url(#clip760)" style="stroke:#000000; stroke-linecap:round; stroke-linejoin:round; stroke-width:4; stroke-opacity:1; fill:none" points="840.287,1510.59 840.287,1491.69 "/>
<polyline clip-path="url(#clip760)" style="stroke:#000000; stroke-linecap:round; stroke-linejoin:round; stroke-width:4; stroke-opacity:1; fill:none" points="1454.44,1510.59 1454.44,1491.69 "/>
<polyline clip-path="url(#clip760)" style="stroke:#000000; stroke-linecap:round; stroke-linejoin:round; stroke-width:4; stroke-opacity:1; fill:none" points="2068.59,1510.59 2068.59,1491.69 "/>
<polyline clip-path="url(#clip760)" style="stroke:#000000; stroke-linecap:round; stroke-linejoin:round; stroke-width:4; stroke-opacity:1; fill:none" points="2682.74,1510.59 2682.74,1491.69 "/>
<path clip-path="url(#clip760)" d="M830.565 1541.63 L848.921 1541.63 L848.921 1545.56 L834.847 1545.56 L834.847 1554.04 Q835.866 1553.69 836.884 1553.53 Q837.903 1553.34 838.921 1553.34 Q844.708 1553.34 848.088 1556.51 Q851.467 1559.68 851.467 1565.1 Q851.467 1570.68 847.995 1573.78 Q844.523 1576.86 838.203 1576.86 Q836.028 1576.86 833.759 1576.49 Q831.514 1576.12 829.106 1575.38 L829.106 1570.68 Q831.19 1571.81 833.412 1572.37 Q835.634 1572.92 838.111 1572.92 Q842.115 1572.92 844.453 1570.82 Q846.791 1568.71 846.791 1565.1 Q846.791 1561.49 844.453 1559.38 Q842.115 1557.28 838.111 1557.28 Q836.236 1557.28 834.361 1557.69 Q832.509 1558.11 830.565 1558.99 L830.565 1541.63 Z" fill="#000000" fill-rule="nonzero" fill-opacity="1" /><path clip-path="url(#clip760)" d="M1429.13 1572.25 L1436.77 1572.25 L1436.77 1545.89 L1428.46 1547.55 L1428.46 1543.29 L1436.72 1541.63 L1441.39 1541.63 L1441.39 1572.25 L1449.03 1572.25 L1449.03 1576.19 L1429.13 1576.19 L1429.13 1572.25 Z" fill="#000000" fill-rule="nonzero" fill-opacity="1" /><path clip-path="url(#clip760)" d="M1468.48 1544.71 Q1464.87 1544.71 1463.04 1548.27 Q1461.23 1551.81 1461.23 1558.94 Q1461.23 1566.05 1463.04 1569.61 Q1464.87 1573.16 1468.48 1573.16 Q1472.11 1573.16 1473.92 1569.61 Q1475.75 1566.05 1475.75 1558.94 Q1475.75 1551.81 1473.92 1548.27 Q1472.11 1544.71 1468.48 1544.71 M1468.48 1541 Q1474.29 1541 1477.34 1545.61 Q1480.42 1550.19 1480.42 1558.94 Q1480.42 1567.67 1477.34 1572.28 Q1474.29 1576.86 1468.48 1576.86 Q1462.67 1576.86 1459.59 1572.28 Q1456.53 1567.67 1456.53 1558.94 Q1456.53 1550.19 1459.59 1545.61 Q1462.67 1541 1468.48 1541 Z" fill="#000000" fill-rule="nonzero" fill-opacity="1" /><path clip-path="url(#clip760)" d="M2043.78 1572.25 L2051.41 1572.25 L2051.41 1545.89 L2043.1 1547.55 L2043.1 1543.29 L2051.37 1541.63 L2056.04 1541.63 L2056.04 1572.25 L2063.68 1572.25 L2063.68 1576.19 L2043.78 1576.19 L2043.78 1572.25 Z" fill="#000000" fill-rule="nonzero" fill-opacity="1" /><path clip-path="url(#clip760)" d="M2073.17 1541.63 L2091.53 1541.63 L2091.53 1545.56 L2077.46 1545.56 L2077.46 1554.04 Q2078.47 1553.69 2079.49 1553.53 Q2080.51 1553.34 2081.53 1553.34 Q2087.32 1553.34 2090.7 1556.51 Q2094.08 1559.68 2094.08 1565.1 Q2094.08 1570.68 2090.6 1573.78 Q2087.13 1576.86 2080.81 1576.86 Q2078.64 1576.86 2076.37 1576.49 Q2074.12 1576.12 2071.72 1575.38 L2071.72 1570.68 Q2073.8 1571.81 2076.02 1572.37 Q2078.24 1572.92 2080.72 1572.92 Q2084.72 1572.92 2087.06 1570.82 Q2089.4 1568.71 2089.4 1565.1 Q2089.4 1561.49 2087.06 1559.38 Q2084.72 1557.28 2080.72 1557.28 Q2078.85 1557.28 2076.97 1557.69 Q2075.12 1558.11 2073.17 1558.99 L2073.17 1541.63 Z" fill="#000000" fill-rule="nonzero" fill-opacity="1" /><path clip-path="url(#clip760)" d="M2661.52 1572.25 L2677.84 1572.25 L2677.84 1576.19 L2655.89 1576.19 L2655.89 1572.25 Q2658.55 1569.5 2663.14 1564.87 Q2667.74 1560.22 2668.92 1558.87 Q2671.17 1556.35 2672.05 1554.61 Q2672.95 1552.85 2672.95 1551.16 Q2672.95 1548.41 2671.01 1546.67 Q2669.09 1544.94 2665.98 1544.94 Q2663.78 1544.94 2661.33 1545.7 Q2658.9 1546.47 2656.12 1548.02 L2656.12 1543.29 Q2658.95 1542.16 2661.4 1541.58 Q2663.85 1541 2665.89 1541 Q2671.26 1541 2674.46 1543.69 Q2677.65 1546.37 2677.65 1550.86 Q2677.65 1552.99 2676.84 1554.91 Q2676.05 1556.81 2673.95 1559.41 Q2673.37 1560.08 2670.27 1563.29 Q2667.16 1566.49 2661.52 1572.25 Z" fill="#000000" fill-rule="nonzero" fill-opacity="1" /><path clip-path="url(#clip760)" d="M2697.65 1544.71 Q2694.04 1544.71 2692.21 1548.27 Q2690.4 1551.81 2690.4 1558.94 Q2690.4 1566.05 2692.21 1569.61 Q2694.04 1573.16 2697.65 1573.16 Q2701.28 1573.16 2703.09 1569.61 Q2704.92 1566.05 2704.92 1558.94 Q2704.92 1551.81 2703.09 1548.27 Q2701.28 1544.71 2697.65 1544.71 M2697.65 1541 Q2703.46 1541 2706.52 1545.61 Q2709.59 1550.19 2709.59 1558.94 Q2709.59 1567.67 2706.52 1572.28 Q2703.46 1576.86 2697.65 1576.86 Q2691.84 1576.86 2688.76 1572.28 Q2685.71 1567.67 2685.71 1558.94 Q2685.71 1550.19 2688.76 1545.61 Q2691.84 1541 2697.65 1541 Z" fill="#000000" fill-rule="nonzero" fill-opacity="1" /><path clip-path="url(#clip760)" d="M1422.02 1613.93 L1452.07 1613.93 L1452.07 1619.34 L1428.45 1619.34 L1428.45 1633.41 L1451.08 1633.41 L1451.08 1638.82 L1428.45 1638.82 L1428.45 1656.04 L1452.64 1656.04 L1452.64 1661.45 L1422.02 1661.45 L1422.02 1613.93 Z" fill="#000000" fill-rule="nonzero" fill-opacity="1" /><path clip-path="url(#clip760)" d="M1468.62 1656.1 L1468.62 1675.01 L1462.73 1675.01 L1462.73 1625.8 L1468.62 1625.8 L1468.62 1631.21 Q1470.47 1628.03 1473.27 1626.5 Q1476.1 1624.94 1480.01 1624.94 Q1486.51 1624.94 1490.55 1630.1 Q1494.62 1635.26 1494.62 1643.66 Q1494.62 1652.06 1490.55 1657.22 Q1486.51 1662.37 1480.01 1662.37 Q1476.1 1662.37 1473.27 1660.85 Q1470.47 1659.29 1468.62 1656.1 M1488.55 1643.66 Q1488.55 1637.2 1485.87 1633.54 Q1483.23 1629.85 1478.58 1629.85 Q1473.94 1629.85 1471.26 1633.54 Q1468.62 1637.2 1468.62 1643.66 Q1468.62 1650.12 1471.26 1653.81 Q1473.94 1657.47 1478.58 1657.47 Q1483.23 1657.47 1485.87 1653.81 Q1488.55 1650.12 1488.55 1643.66 Z" fill="#000000" fill-rule="nonzero" fill-opacity="1" /><path clip-path="url(#clip760)" d="M1518.15 1629.91 Q1513.43 1629.91 1510.7 1633.6 Q1507.96 1637.26 1507.96 1643.66 Q1507.96 1650.06 1510.67 1653.75 Q1513.4 1657.41 1518.15 1657.41 Q1522.82 1657.41 1525.56 1653.72 Q1528.3 1650.03 1528.3 1643.66 Q1528.3 1637.33 1525.56 1633.63 Q1522.82 1629.91 1518.15 1629.91 M1518.15 1624.94 Q1525.78 1624.94 1530.14 1629.91 Q1534.51 1634.88 1534.51 1643.66 Q1534.51 1652.41 1530.14 1657.41 Q1525.78 1662.37 1518.15 1662.37 Q1510.47 1662.37 1506.11 1657.41 Q1501.79 1652.41 1501.79 1643.66 Q1501.79 1634.88 1506.11 1629.91 Q1510.47 1624.94 1518.15 1624.94 Z" fill="#000000" fill-rule="nonzero" fill-opacity="1" /><path clip-path="url(#clip760)" d="M1569.87 1627.17 L1569.87 1632.65 Q1567.38 1631.28 1564.87 1630.61 Q1562.39 1629.91 1559.84 1629.91 Q1554.14 1629.91 1550.99 1633.54 Q1547.84 1637.13 1547.84 1643.66 Q1547.84 1650.18 1550.99 1653.81 Q1554.14 1657.41 1559.84 1657.41 Q1562.39 1657.41 1564.87 1656.74 Q1567.38 1656.04 1569.87 1654.67 L1569.87 1660.08 Q1567.42 1661.23 1564.77 1661.8 Q1562.16 1662.37 1559.2 1662.37 Q1551.15 1662.37 1546.41 1657.31 Q1541.67 1652.25 1541.67 1643.66 Q1541.67 1634.94 1546.44 1629.94 Q1551.25 1624.94 1559.59 1624.94 Q1562.29 1624.94 1564.87 1625.52 Q1567.45 1626.06 1569.87 1627.17 Z" fill="#000000" fill-rule="nonzero" fill-opacity="1" /><path clip-path="url(#clip760)" d="M1609.68 1639.94 L1609.68 1661.45 L1603.83 1661.45 L1603.83 1640.13 Q1603.83 1635.07 1601.85 1632.55 Q1599.88 1630.04 1595.93 1630.04 Q1591.19 1630.04 1588.45 1633.06 Q1585.72 1636.08 1585.72 1641.3 L1585.72 1661.45 L1579.83 1661.45 L1579.83 1611.93 L1585.72 1611.93 L1585.72 1631.34 Q1587.82 1628.13 1590.65 1626.54 Q1593.52 1624.94 1597.24 1624.94 Q1603.38 1624.94 1606.53 1628.76 Q1609.68 1632.55 1609.68 1639.94 Z" fill="#000000" fill-rule="nonzero" fill-opacity="1" /><polyline clip-path="url(#clip760)" style="stroke:#000000; stroke-linecap:round; stroke-linejoin:round; stroke-width:4; stroke-opacity:1; fill:none" points="278.952,1510.59 278.952,101.872 "/>
<polyline clip-path="url(#clip760)" style="stroke:#000000; stroke-linecap:round; stroke-linejoin:round; stroke-width:4; stroke-opacity:1; fill:none" points="278.952,1475.72 297.85,1475.72 "/>
<polyline clip-path="url(#clip760)" style="stroke:#000000; stroke-linecap:round; stroke-linejoin:round; stroke-width:4; stroke-opacity:1; fill:none" points="278.952,1236.82 297.85,1236.82 "/>
<polyline clip-path="url(#clip760)" style="stroke:#000000; stroke-linecap:round; stroke-linejoin:round; stroke-width:4; stroke-opacity:1; fill:none" points="278.952,997.927 297.85,997.927 "/>
<polyline clip-path="url(#clip760)" style="stroke:#000000; stroke-linecap:round; stroke-linejoin:round; stroke-width:4; stroke-opacity:1; fill:none" points="278.952,759.03 297.85,759.03 "/>
<polyline clip-path="url(#clip760)" style="stroke:#000000; stroke-linecap:round; stroke-linejoin:round; stroke-width:4; stroke-opacity:1; fill:none" points="278.952,520.133 297.85,520.133 "/>
<polyline clip-path="url(#clip760)" style="stroke:#000000; stroke-linecap:round; stroke-linejoin:round; stroke-width:4; stroke-opacity:1; fill:none" points="278.952,281.236 297.85,281.236 "/>
<path clip-path="url(#clip760)" d="M119.453 1461.52 Q115.841 1461.52 114.013 1465.08 Q112.207 1468.63 112.207 1475.76 Q112.207 1482.86 114.013 1486.43 Q115.841 1489.97 119.453 1489.97 Q123.087 1489.97 124.892 1486.43 Q126.721 1482.86 126.721 1475.76 Q126.721 1468.63 124.892 1465.08 Q123.087 1461.52 119.453 1461.52 M119.453 1457.82 Q125.263 1457.82 128.318 1462.42 Q131.397 1467.01 131.397 1475.76 Q131.397 1484.48 128.318 1489.09 Q125.263 1493.67 119.453 1493.67 Q113.642 1493.67 110.564 1489.09 Q107.508 1484.48 107.508 1475.76 Q107.508 1467.01 110.564 1462.42 Q113.642 1457.82 119.453 1457.82 Z" fill="#000000" fill-rule="nonzero" fill-opacity="1" /><path clip-path="url(#clip760)" d="M139.614 1487.12 L144.499 1487.12 L144.499 1493 L139.614 1493 L139.614 1487.12 Z" fill="#000000" fill-rule="nonzero" fill-opacity="1" /><path clip-path="url(#clip760)" d="M158.712 1489.07 L175.031 1489.07 L175.031 1493 L153.087 1493 L153.087 1489.07 Q155.749 1486.31 160.332 1481.68 Q164.938 1477.03 166.119 1475.69 Q168.364 1473.16 169.244 1471.43 Q170.147 1469.67 170.147 1467.98 Q170.147 1465.22 168.202 1463.49 Q166.281 1461.75 163.179 1461.75 Q160.98 1461.75 158.526 1462.51 Q156.096 1463.28 153.318 1464.83 L153.318 1460.11 Q156.142 1458.97 158.596 1458.39 Q161.05 1457.82 163.087 1457.82 Q168.457 1457.82 171.651 1460.5 Q174.846 1463.19 174.846 1467.68 Q174.846 1469.81 174.036 1471.73 Q173.249 1473.63 171.142 1476.22 Q170.563 1476.89 167.462 1480.11 Q164.36 1483.3 158.712 1489.07 Z" fill="#000000" fill-rule="nonzero" fill-opacity="1" /><path clip-path="url(#clip760)" d="M194.846 1461.52 Q191.235 1461.52 189.406 1465.08 Q187.6 1468.63 187.6 1475.76 Q187.6 1482.86 189.406 1486.43 Q191.235 1489.97 194.846 1489.97 Q198.48 1489.97 200.285 1486.43 Q202.114 1482.86 202.114 1475.76 Q202.114 1468.63 200.285 1465.08 Q198.48 1461.52 194.846 1461.52 M194.846 1457.82 Q200.656 1457.82 203.711 1462.42 Q206.79 1467.01 206.79 1475.76 Q206.79 1484.48 203.711 1489.09 Q200.656 1493.67 194.846 1493.67 Q189.035 1493.67 185.957 1489.09 Q182.901 1484.48 182.901 1475.76 Q182.901 1467.01 185.957 1462.42 Q189.035 1457.82 194.846 1457.82 Z" fill="#000000" fill-rule="nonzero" fill-opacity="1" /><path clip-path="url(#clip760)" d="M225.008 1461.52 Q221.396 1461.52 219.568 1465.08 Q217.762 1468.63 217.762 1475.76 Q217.762 1482.86 219.568 1486.43 Q221.396 1489.97 225.008 1489.97 Q228.642 1489.97 230.447 1486.43 Q232.276 1482.86 232.276 1475.76 Q232.276 1468.63 230.447 1465.08 Q228.642 1461.52 225.008 1461.52 M225.008 1457.82 Q230.818 1457.82 233.873 1462.42 Q236.952 1467.01 236.952 1475.76 Q236.952 1484.48 233.873 1489.09 Q230.818 1493.67 225.008 1493.67 Q219.197 1493.67 216.119 1489.09 Q213.063 1484.48 213.063 1475.76 Q213.063 1467.01 216.119 1462.42 Q219.197 1457.82 225.008 1457.82 Z" fill="#000000" fill-rule="nonzero" fill-opacity="1" /><path clip-path="url(#clip760)" d="M120.448 1222.62 Q116.837 1222.62 115.008 1226.19 Q113.203 1229.73 113.203 1236.86 Q113.203 1243.97 115.008 1247.53 Q116.837 1251.07 120.448 1251.07 Q124.082 1251.07 125.888 1247.53 Q127.716 1243.97 127.716 1236.86 Q127.716 1229.73 125.888 1226.19 Q124.082 1222.62 120.448 1222.62 M120.448 1218.92 Q126.258 1218.92 129.314 1223.53 Q132.392 1228.11 132.392 1236.86 Q132.392 1245.59 129.314 1250.19 Q126.258 1254.78 120.448 1254.78 Q114.638 1254.78 111.559 1250.19 Q108.504 1245.59 108.504 1236.86 Q108.504 1228.11 111.559 1223.53 Q114.638 1218.92 120.448 1218.92 Z" fill="#000000" fill-rule="nonzero" fill-opacity="1" /><path clip-path="url(#clip760)" d="M140.61 1248.22 L145.494 1248.22 L145.494 1254.1 L140.61 1254.1 L140.61 1248.22 Z" fill="#000000" fill-rule="nonzero" fill-opacity="1" /><path clip-path="url(#clip760)" d="M159.707 1250.17 L176.026 1250.17 L176.026 1254.1 L154.082 1254.1 L154.082 1250.17 Q156.744 1247.41 161.327 1242.78 Q165.934 1238.13 167.114 1236.79 Q169.36 1234.27 170.239 1232.53 Q171.142 1230.77 171.142 1229.08 Q171.142 1226.33 169.198 1224.59 Q167.276 1222.85 164.175 1222.85 Q161.975 1222.85 159.522 1223.62 Q157.091 1224.38 154.313 1225.93 L154.313 1221.21 Q157.138 1220.08 159.591 1219.5 Q162.045 1218.92 164.082 1218.92 Q169.452 1218.92 172.647 1221.6 Q175.841 1224.29 175.841 1228.78 Q175.841 1230.91 175.031 1232.83 Q174.244 1234.73 172.137 1237.32 Q171.559 1237.99 168.457 1241.21 Q165.355 1244.4 159.707 1250.17 Z" fill="#000000" fill-rule="nonzero" fill-opacity="1" /><path clip-path="url(#clip760)" d="M189.869 1250.17 L206.188 1250.17 L206.188 1254.1 L184.244 1254.1 L184.244 1250.17 Q186.906 1247.41 191.489 1242.78 Q196.096 1238.13 197.276 1236.79 Q199.522 1234.27 200.401 1232.53 Q201.304 1230.77 201.304 1229.08 Q201.304 1226.33 199.36 1224.59 Q197.438 1222.85 194.336 1222.85 Q192.137 1222.85 189.684 1223.62 Q187.253 1224.38 184.475 1225.93 L184.475 1221.21 Q187.299 1220.08 189.753 1219.5 Q192.207 1218.92 194.244 1218.92 Q199.614 1218.92 202.809 1221.6 Q206.003 1224.29 206.003 1228.78 Q206.003 1230.91 205.193 1232.83 Q204.406 1234.73 202.299 1237.32 Q201.721 1237.99 198.619 1241.21 Q195.517 1244.4 189.869 1250.17 Z" fill="#000000" fill-rule="nonzero" fill-opacity="1" /><path clip-path="url(#clip760)" d="M216.049 1219.54 L234.406 1219.54 L234.406 1223.48 L220.332 1223.48 L220.332 1231.95 Q221.35 1231.6 222.369 1231.44 Q223.387 1231.26 224.406 1231.26 Q230.193 1231.26 233.572 1234.43 Q236.952 1237.6 236.952 1243.02 Q236.952 1248.59 233.48 1251.7 Q230.008 1254.78 223.688 1254.78 Q221.512 1254.78 219.244 1254.4 Q216.998 1254.03 214.591 1253.29 L214.591 1248.59 Q216.674 1249.73 218.896 1250.28 Q221.119 1250.84 223.595 1250.84 Q227.6 1250.84 229.938 1248.73 Q232.276 1246.63 232.276 1243.02 Q232.276 1239.4 229.938 1237.3 Q227.6 1235.19 223.595 1235.19 Q221.721 1235.19 219.846 1235.61 Q217.994 1236.03 216.049 1236.9 L216.049 1219.54 Z" fill="#000000" fill-rule="nonzero" fill-opacity="1" /><path clip-path="url(#clip760)" d="M119.453 983.726 Q115.841 983.726 114.013 987.29 Q112.207 990.832 112.207 997.962 Q112.207 1005.07 114.013 1008.63 Q115.841 1012.17 119.453 1012.17 Q123.087 1012.17 124.892 1008.63 Q126.721 1005.07 126.721 997.962 Q126.721 990.832 124.892 987.29 Q123.087 983.726 119.453 983.726 M119.453 980.022 Q125.263 980.022 128.318 984.628 Q131.397 989.212 131.397 997.962 Q131.397 1006.69 128.318 1011.29 Q125.263 1015.88 119.453 1015.88 Q113.642 1015.88 110.564 1011.29 Q107.508 1006.69 107.508 997.962 Q107.508 989.212 110.564 984.628 Q113.642 980.022 119.453 980.022 Z" fill="#000000" fill-rule="nonzero" fill-opacity="1" /><path clip-path="url(#clip760)" d="M139.614 1009.33 L144.499 1009.33 L144.499 1015.21 L139.614 1015.21 L139.614 1009.33 Z" fill="#000000" fill-rule="nonzero" fill-opacity="1" /><path clip-path="url(#clip760)" d="M158.712 1011.27 L175.031 1011.27 L175.031 1015.21 L153.087 1015.21 L153.087 1011.27 Q155.749 1008.52 160.332 1003.89 Q164.938 999.235 166.119 997.892 Q168.364 995.369 169.244 993.633 Q170.147 991.874 170.147 990.184 Q170.147 987.429 168.202 985.693 Q166.281 983.957 163.179 983.957 Q160.98 983.957 158.526 984.721 Q156.096 985.485 153.318 987.036 L153.318 982.313 Q156.142 981.179 158.596 980.601 Q161.05 980.022 163.087 980.022 Q168.457 980.022 171.651 982.707 Q174.846 985.392 174.846 989.883 Q174.846 992.012 174.036 993.934 Q173.249 995.832 171.142 998.424 Q170.563 999.096 167.462 1002.31 Q164.36 1005.51 158.712 1011.27 Z" fill="#000000" fill-rule="nonzero" fill-opacity="1" /><path clip-path="url(#clip760)" d="M184.892 980.647 L203.248 980.647 L203.248 984.582 L189.174 984.582 L189.174 993.054 Q190.193 992.707 191.211 992.545 Q192.23 992.36 193.248 992.36 Q199.035 992.36 202.415 995.531 Q205.795 998.702 205.795 1004.12 Q205.795 1009.7 202.322 1012.8 Q198.85 1015.88 192.531 1015.88 Q190.355 1015.88 188.086 1015.51 Q185.841 1015.14 183.434 1014.4 L183.434 1009.7 Q185.517 1010.83 187.739 1011.39 Q189.961 1011.94 192.438 1011.94 Q196.443 1011.94 198.781 1009.84 Q201.119 1007.73 201.119 1004.12 Q201.119 1000.51 198.781 998.401 Q196.443 996.295 192.438 996.295 Q190.563 996.295 188.688 996.712 Q186.836 997.128 184.892 998.008 L184.892 980.647 Z" fill="#000000" fill-rule="nonzero" fill-opacity="1" /><path clip-path="url(#clip760)" d="M225.008 983.726 Q221.396 983.726 219.568 987.29 Q217.762 990.832 217.762 997.962 Q217.762 1005.07 219.568 1008.63 Q221.396 1012.17 225.008 1012.17 Q228.642 1012.17 230.447 1008.63 Q232.276 1005.07 232.276 997.962 Q232.276 990.832 230.447 987.29 Q228.642 983.726 225.008 983.726 M225.008 980.022 Q230.818 980.022 233.873 984.628 Q236.952 989.212 236.952 997.962 Q236.952 1006.69 233.873 1011.29 Q230.818 1015.88 225.008 1015.88 Q219.197 1015.88 216.119 1011.29 Q213.063 1006.69 213.063 997.962 Q213.063 989.212 216.119 984.628 Q219.197 980.022 225.008 980.022 Z" fill="#000000" fill-rule="nonzero" fill-opacity="1" /><path clip-path="url(#clip760)" d="M120.448 744.828 Q116.837 744.828 115.008 748.393 Q113.203 751.935 113.203 759.064 Q113.203 766.171 115.008 769.736 Q116.837 773.277 120.448 773.277 Q124.082 773.277 125.888 769.736 Q127.716 766.171 127.716 759.064 Q127.716 751.935 125.888 748.393 Q124.082 744.828 120.448 744.828 M120.448 741.125 Q126.258 741.125 129.314 745.731 Q132.392 750.315 132.392 759.064 Q132.392 767.791 129.314 772.398 Q126.258 776.981 120.448 776.981 Q114.638 776.981 111.559 772.398 Q108.504 767.791 108.504 759.064 Q108.504 750.315 111.559 745.731 Q114.638 741.125 120.448 741.125 Z" fill="#000000" fill-rule="nonzero" fill-opacity="1" /><path clip-path="url(#clip760)" d="M140.61 770.43 L145.494 770.43 L145.494 776.31 L140.61 776.31 L140.61 770.43 Z" fill="#000000" fill-rule="nonzero" fill-opacity="1" /><path clip-path="url(#clip760)" d="M159.707 772.375 L176.026 772.375 L176.026 776.31 L154.082 776.31 L154.082 772.375 Q156.744 769.62 161.327 764.99 Q165.934 760.338 167.114 758.995 Q169.36 756.472 170.239 754.736 Q171.142 752.977 171.142 751.287 Q171.142 748.532 169.198 746.796 Q167.276 745.06 164.175 745.06 Q161.975 745.06 159.522 745.824 Q157.091 746.588 154.313 748.139 L154.313 743.416 Q157.138 742.282 159.591 741.703 Q162.045 741.125 164.082 741.125 Q169.452 741.125 172.647 743.81 Q175.841 746.495 175.841 750.986 Q175.841 753.115 175.031 755.037 Q174.244 756.935 172.137 759.527 Q171.559 760.199 168.457 763.416 Q165.355 766.611 159.707 772.375 Z" fill="#000000" fill-rule="nonzero" fill-opacity="1" /><path clip-path="url(#clip760)" d="M184.661 741.75 L206.883 741.75 L206.883 743.74 L194.336 776.31 L189.452 776.31 L201.258 745.685 L184.661 745.685 L184.661 741.75 Z" fill="#000000" fill-rule="nonzero" fill-opacity="1" /><path clip-path="url(#clip760)" d="M216.049 741.75 L234.406 741.75 L234.406 745.685 L220.332 745.685 L220.332 754.157 Q221.35 753.81 222.369 753.648 Q223.387 753.463 224.406 753.463 Q230.193 753.463 233.572 756.634 Q236.952 759.805 236.952 765.222 Q236.952 770.801 233.48 773.902 Q230.008 776.981 223.688 776.981 Q221.512 776.981 219.244 776.611 Q216.998 776.24 214.591 775.5 L214.591 770.801 Q216.674 771.935 218.896 772.49 Q221.119 773.046 223.595 773.046 Q227.6 773.046 229.938 770.939 Q232.276 768.833 232.276 765.222 Q232.276 761.611 229.938 759.504 Q227.6 757.398 223.595 757.398 Q221.721 757.398 219.846 757.814 Q217.994 758.231 216.049 759.111 L216.049 741.75 Z" fill="#000000" fill-rule="nonzero" fill-opacity="1" /><path clip-path="url(#clip760)" d="M119.453 505.931 Q115.841 505.931 114.013 509.496 Q112.207 513.038 112.207 520.167 Q112.207 527.274 114.013 530.839 Q115.841 534.38 119.453 534.38 Q123.087 534.38 124.892 530.839 Q126.721 527.274 126.721 520.167 Q126.721 513.038 124.892 509.496 Q123.087 505.931 119.453 505.931 M119.453 502.228 Q125.263 502.228 128.318 506.834 Q131.397 511.417 131.397 520.167 Q131.397 528.894 128.318 533.501 Q125.263 538.084 119.453 538.084 Q113.642 538.084 110.564 533.501 Q107.508 528.894 107.508 520.167 Q107.508 511.417 110.564 506.834 Q113.642 502.228 119.453 502.228 Z" fill="#000000" fill-rule="nonzero" fill-opacity="1" /><path clip-path="url(#clip760)" d="M139.614 531.533 L144.499 531.533 L144.499 537.413 L139.614 537.413 L139.614 531.533 Z" fill="#000000" fill-rule="nonzero" fill-opacity="1" /><path clip-path="url(#clip760)" d="M168.85 518.779 Q172.207 519.496 174.082 521.765 Q175.98 524.033 175.98 527.366 Q175.98 532.482 172.462 535.283 Q168.943 538.084 162.462 538.084 Q160.286 538.084 157.971 537.644 Q155.679 537.228 153.226 536.371 L153.226 531.857 Q155.17 532.991 157.485 533.57 Q159.8 534.149 162.323 534.149 Q166.721 534.149 169.012 532.413 Q171.327 530.677 171.327 527.366 Q171.327 524.311 169.174 522.598 Q167.045 520.862 163.225 520.862 L159.198 520.862 L159.198 517.019 L163.411 517.019 Q166.86 517.019 168.688 515.654 Q170.517 514.265 170.517 511.672 Q170.517 509.01 168.619 507.598 Q166.744 506.163 163.225 506.163 Q161.304 506.163 159.105 506.58 Q156.906 506.996 154.267 507.876 L154.267 503.709 Q156.929 502.968 159.244 502.598 Q161.582 502.228 163.642 502.228 Q168.966 502.228 172.068 504.658 Q175.17 507.066 175.17 511.186 Q175.17 514.056 173.526 516.047 Q171.883 518.015 168.85 518.779 Z" fill="#000000" fill-rule="nonzero" fill-opacity="1" /><path clip-path="url(#clip760)" d="M194.846 505.931 Q191.235 505.931 189.406 509.496 Q187.6 513.038 187.6 520.167 Q187.6 527.274 189.406 530.839 Q191.235 534.38 194.846 534.38 Q198.48 534.38 200.285 530.839 Q202.114 527.274 202.114 520.167 Q202.114 513.038 200.285 509.496 Q198.48 505.931 194.846 505.931 M194.846 502.228 Q200.656 502.228 203.711 506.834 Q206.79 511.417 206.79 520.167 Q206.79 528.894 203.711 533.501 Q200.656 538.084 194.846 538.084 Q189.035 538.084 185.957 533.501 Q182.901 528.894 182.901 520.167 Q182.901 511.417 185.957 506.834 Q189.035 502.228 194.846 502.228 Z" fill="#000000" fill-rule="nonzero" fill-opacity="1" /><path clip-path="url(#clip760)" d="M225.008 505.931 Q221.396 505.931 219.568 509.496 Q217.762 513.038 217.762 520.167 Q217.762 527.274 219.568 530.839 Q221.396 534.38 225.008 534.38 Q228.642 534.38 230.447 530.839 Q232.276 527.274 232.276 520.167 Q232.276 513.038 230.447 509.496 Q228.642 505.931 225.008 505.931 M225.008 502.228 Q230.818 502.228 233.873 506.834 Q236.952 511.417 236.952 520.167 Q236.952 528.894 233.873 533.501 Q230.818 538.084 225.008 538.084 Q219.197 538.084 216.119 533.501 Q213.063 528.894 213.063 520.167 Q213.063 511.417 216.119 506.834 Q219.197 502.228 225.008 502.228 Z" fill="#000000" fill-rule="nonzero" fill-opacity="1" /><path clip-path="url(#clip760)" d="M120.448 267.034 Q116.837 267.034 115.008 270.599 Q113.203 274.141 113.203 281.27 Q113.203 288.377 115.008 291.942 Q116.837 295.483 120.448 295.483 Q124.082 295.483 125.888 291.942 Q127.716 288.377 127.716 281.27 Q127.716 274.141 125.888 270.599 Q124.082 267.034 120.448 267.034 M120.448 263.331 Q126.258 263.331 129.314 267.937 Q132.392 272.52 132.392 281.27 Q132.392 289.997 129.314 294.604 Q126.258 299.187 120.448 299.187 Q114.638 299.187 111.559 294.604 Q108.504 289.997 108.504 281.27 Q108.504 272.52 111.559 267.937 Q114.638 263.331 120.448 263.331 Z" fill="#000000" fill-rule="nonzero" fill-opacity="1" /><path clip-path="url(#clip760)" d="M140.61 292.636 L145.494 292.636 L145.494 298.516 L140.61 298.516 L140.61 292.636 Z" fill="#000000" fill-rule="nonzero" fill-opacity="1" /><path clip-path="url(#clip760)" d="M169.846 279.882 Q173.202 280.599 175.077 282.868 Q176.975 285.136 176.975 288.469 Q176.975 293.585 173.457 296.386 Q169.938 299.187 163.457 299.187 Q161.281 299.187 158.966 298.747 Q156.675 298.33 154.221 297.474 L154.221 292.96 Q156.165 294.094 158.48 294.673 Q160.795 295.252 163.318 295.252 Q167.716 295.252 170.008 293.516 Q172.323 291.78 172.323 288.469 Q172.323 285.414 170.17 283.701 Q168.04 281.965 164.221 281.965 L160.193 281.965 L160.193 278.122 L164.406 278.122 Q167.855 278.122 169.684 276.757 Q171.512 275.368 171.512 272.775 Q171.512 270.113 169.614 268.701 Q167.739 267.266 164.221 267.266 Q162.3 267.266 160.1 267.683 Q157.901 268.099 155.263 268.979 L155.263 264.812 Q157.925 264.071 160.239 263.701 Q162.577 263.331 164.637 263.331 Q169.962 263.331 173.063 265.761 Q176.165 268.169 176.165 272.289 Q176.165 275.159 174.522 277.15 Q172.878 279.118 169.846 279.882 Z" fill="#000000" fill-rule="nonzero" fill-opacity="1" /><path clip-path="url(#clip760)" d="M189.869 294.581 L206.188 294.581 L206.188 298.516 L184.244 298.516 L184.244 294.581 Q186.906 291.826 191.489 287.196 Q196.096 282.544 197.276 281.201 Q199.522 278.678 200.401 276.942 Q201.304 275.182 201.304 273.493 Q201.304 270.738 199.36 269.002 Q197.438 267.266 194.336 267.266 Q192.137 267.266 189.684 268.03 Q187.253 268.794 184.475 270.345 L184.475 265.622 Q187.299 264.488 189.753 263.909 Q192.207 263.331 194.244 263.331 Q199.614 263.331 202.809 266.016 Q206.003 268.701 206.003 273.192 Q206.003 275.321 205.193 277.243 Q204.406 279.141 202.299 281.733 Q201.721 282.405 198.619 285.622 Q195.517 288.817 189.869 294.581 Z" fill="#000000" fill-rule="nonzero" fill-opacity="1" /><path clip-path="url(#clip760)" d="M216.049 263.956 L234.406 263.956 L234.406 267.891 L220.332 267.891 L220.332 276.363 Q221.35 276.016 222.369 275.854 Q223.387 275.669 224.406 275.669 Q230.193 275.669 233.572 278.84 Q236.952 282.011 236.952 287.428 Q236.952 293.006 233.48 296.108 Q230.008 299.187 223.688 299.187 Q221.512 299.187 219.244 298.817 Q216.998 298.446 214.591 297.705 L214.591 293.006 Q216.674 294.141 218.896 294.696 Q221.119 295.252 223.595 295.252 Q227.6 295.252 229.938 293.145 Q232.276 291.039 232.276 287.428 Q232.276 283.817 229.938 281.71 Q227.6 279.604 223.595 279.604 Q221.721 279.604 219.846 280.02 Q217.994 280.437 216.049 281.317 L216.049 263.956 Z" fill="#000000" fill-rule="nonzero" fill-opacity="1" /><path clip-path="url(#clip760)" d="M3.73216 1084.87 L3.73216 1076.22 L43.486 1055.15 L3.73216 1055.15 L3.73216 1048.91 L51.2522 1048.91 L51.2522 1057.56 L11.4983 1078.63 L51.2522 1078.63 L51.2522 1084.87 L3.73216 1084.87 Z" fill="#000000" fill-rule="nonzero" fill-opacity="1" /><path clip-path="url(#clip760)" d="M3.73216 1036.11 L3.73216 1029.68 L45.8413 1029.68 L45.8413 1006.54 L51.2522 1006.54 L51.2522 1036.11 L3.73216 1036.11 Z" fill="#000000" fill-rule="nonzero" fill-opacity="1" /><path clip-path="url(#clip760)" d="M3.73216 999.795 L3.73216 993.366 L45.8413 993.366 L45.8413 970.227 L51.2522 970.227 L51.2522 999.795 L3.73216 999.795 Z" fill="#000000" fill-rule="nonzero" fill-opacity="1" /><path clip-path="url(#clip760)" d="M1.79062 928.945 Q9.11118 933.21 16.2726 935.279 Q23.434 937.348 30.7864 937.348 Q38.1388 937.348 45.3639 935.279 Q52.5571 933.178 59.8459 928.945 L59.8459 934.037 Q52.3662 938.812 45.1411 941.199 Q37.916 943.554 30.7864 943.554 Q23.6886 943.554 16.4954 941.199 Q9.30215 938.844 1.79062 934.037 L1.79062 928.945 Z" fill="#000000" fill-rule="nonzero" fill-opacity="1" /><path clip-path="url(#clip760)" d="M45.905 911.917 L64.8111 911.917 L64.8111 917.805 L15.6042 917.805 L15.6042 911.917 L21.0151 911.917 Q17.8322 910.071 16.3044 907.27 Q14.7448 904.437 14.7448 900.522 Q14.7448 894.029 19.9011 889.987 Q25.0573 885.913 33.46 885.913 Q41.8627 885.913 47.019 889.987 Q52.1752 894.029 52.1752 900.522 Q52.1752 904.437 50.6474 907.27 Q49.0878 910.071 45.905 911.917 M33.46 891.992 Q26.9988 891.992 23.3385 894.666 Q19.6464 897.307 19.6464 901.954 Q19.6464 906.601 23.3385 909.275 Q26.9988 911.917 33.46 911.917 Q39.9212 911.917 43.6133 909.275 Q47.2736 906.601 47.2736 901.954 Q47.2736 897.307 43.6133 894.666 Q39.9212 891.992 33.46 891.992 Z" fill="#000000" fill-rule="nonzero" fill-opacity="1" /><path clip-path="url(#clip760)" d="M31.9641 845.713 L34.8286 845.713 L34.8286 872.64 Q40.8761 872.258 44.0589 869.012 Q47.2099 865.733 47.2099 859.909 Q47.2099 856.535 46.3824 853.384 Q45.5549 850.201 43.8998 847.082 L49.4379 847.082 Q50.7747 850.233 51.475 853.543 Q52.1752 856.853 52.1752 860.259 Q52.1752 868.789 47.2099 873.786 Q42.2447 878.751 33.7783 878.751 Q25.0254 878.751 19.9011 874.041 Q14.7448 869.298 14.7448 861.277 Q14.7448 854.084 19.3918 849.915 Q24.0069 845.713 31.9641 845.713 M30.2453 851.57 Q25.4392 851.633 22.5746 854.275 Q19.7101 856.885 19.7101 861.214 Q19.7101 866.115 22.4792 869.075 Q25.2482 872.004 30.2772 872.449 L30.2453 851.57 Z" fill="#000000" fill-rule="nonzero" fill-opacity="1" /><path clip-path="url(#clip760)" d="M21.0787 815.444 Q20.5058 816.431 20.2512 817.609 Q19.9647 818.755 19.9647 820.155 Q19.9647 825.12 23.2112 827.794 Q26.4259 830.436 32.4733 830.436 L51.2522 830.436 L51.2522 836.324 L15.6042 836.324 L15.6042 830.436 L21.1424 830.436 Q17.8959 828.59 16.3363 825.629 Q14.7448 822.669 14.7448 818.436 Q14.7448 817.831 14.8403 817.099 Q14.904 816.367 15.0631 815.476 L21.0787 815.444 Z" fill="#000000" fill-rule="nonzero" fill-opacity="1" /><path clip-path="url(#clip760)" d="M15.6042 791.987 L15.6042 786.13 L43.4223 778.81 L15.6042 771.521 L15.6042 764.614 L43.4223 757.294 L15.6042 750.005 L15.6042 744.148 L51.2522 753.474 L51.2522 760.381 L22.0336 768.052 L51.2522 775.754 L51.2522 782.661 L15.6042 791.987 Z" fill="#000000" fill-rule="nonzero" fill-opacity="1" /><path clip-path="url(#clip760)" d="M15.6042 735.268 L15.6042 729.412 L51.2522 729.412 L51.2522 735.268 L15.6042 735.268 M1.72696 735.268 L1.72696 729.412 L9.14301 729.412 L9.14301 735.268 L1.72696 735.268 Z" fill="#000000" fill-rule="nonzero" fill-opacity="1" /><path clip-path="url(#clip760)" d="M29.7361 687.525 L51.2522 687.525 L51.2522 693.382 L29.927 693.382 Q24.8663 693.382 22.3518 695.355 Q19.8374 697.329 19.8374 701.275 Q19.8374 706.018 22.8611 708.755 Q25.8848 711.492 31.1047 711.492 L51.2522 711.492 L51.2522 717.381 L15.6042 717.381 L15.6042 711.492 L21.1424 711.492 Q17.9277 709.392 16.3363 706.559 Q14.7448 703.694 14.7448 699.97 Q14.7448 693.828 18.5643 690.676 Q22.3518 687.525 29.7361 687.525 Z" fill="#000000" fill-rule="nonzero" fill-opacity="1" /><path clip-path="url(#clip760)" d="M21.0151 652.387 L1.72696 652.387 L1.72696 646.53 L51.2522 646.53 L51.2522 652.387 L45.905 652.387 Q49.0878 654.233 50.6474 657.066 Q52.1752 659.866 52.1752 663.813 Q52.1752 670.274 47.019 674.348 Q41.8627 678.391 33.46 678.391 Q25.0573 678.391 19.9011 674.348 Q14.7448 670.274 14.7448 663.813 Q14.7448 659.866 16.3044 657.066 Q17.8322 654.233 21.0151 652.387 M33.46 672.343 Q39.9212 672.343 43.6133 669.701 Q47.2736 667.028 47.2736 662.381 Q47.2736 657.734 43.6133 655.06 Q39.9212 652.387 33.46 652.387 Q26.9988 652.387 23.3385 655.06 Q19.6464 657.734 19.6464 662.381 Q19.6464 667.028 23.3385 669.701 Q26.9988 672.343 33.46 672.343 Z" fill="#000000" fill-rule="nonzero" fill-opacity="1" /><path clip-path="url(#clip760)" d="M19.7101 620.654 Q19.7101 625.364 23.4022 628.102 Q27.0625 630.839 33.46 630.839 Q39.8575 630.839 43.5497 628.133 Q47.2099 625.396 47.2099 620.654 Q47.2099 615.975 43.5178 613.238 Q39.8257 610.5 33.46 610.5 Q27.1261 610.5 23.434 613.238 Q19.7101 615.975 19.7101 620.654 M14.7448 620.654 Q14.7448 613.015 19.7101 608.654 Q24.6753 604.294 33.46 604.294 Q42.2129 604.294 47.2099 608.654 Q52.1752 613.015 52.1752 620.654 Q52.1752 628.324 47.2099 632.685 Q42.2129 637.014 33.46 637.014 Q24.6753 637.014 19.7101 632.685 Q14.7448 628.324 14.7448 620.654 Z" fill="#000000" fill-rule="nonzero" fill-opacity="1" /><path clip-path="url(#clip760)" d="M15.6042 597.992 L15.6042 592.135 L43.4223 584.815 L15.6042 577.526 L15.6042 570.619 L43.4223 563.299 L15.6042 556.01 L15.6042 550.154 L51.2522 559.479 L51.2522 566.386 L22.0336 574.057 L51.2522 581.759 L51.2522 588.666 L15.6042 597.992 Z" fill="#000000" fill-rule="nonzero" fill-opacity="1" /><path clip-path="url(#clip760)" d="M1.79062 542.196 L1.79062 537.104 Q9.30215 532.33 16.4954 529.974 Q23.6886 527.587 30.7864 527.587 Q37.916 527.587 45.1411 529.974 Q52.3662 532.33 59.8459 537.104 L59.8459 542.196 Q52.5571 537.963 45.3639 535.894 Q38.1388 533.794 30.7864 533.794 Q23.434 533.794 16.2726 535.894 Q9.11118 537.963 1.79062 542.196 Z" fill="#000000" fill-rule="nonzero" fill-opacity="1" /><path clip-path="url(#clip760)" d="M692.392 45.6768 L692.392 34.0739 L682.843 34.0739 L682.843 29.2707 L698.179 29.2707 L698.179 47.818 Q694.793 50.2196 690.714 51.4638 Q686.634 52.6791 682.004 52.6791 Q671.877 52.6791 666.148 46.7764 Q660.448 40.8447 660.448 30.2834 Q660.448 19.6932 666.148 13.7904 Q671.877 7.85875 682.004 7.85875 Q686.229 7.85875 690.019 8.90042 Q693.839 9.94208 697.05 11.9675 L697.05 18.1886 Q693.81 15.4397 690.164 14.0509 Q686.518 12.662 682.496 12.662 Q674.568 12.662 670.575 17.089 Q666.611 21.5161 666.611 30.2834 Q666.611 39.0218 670.575 43.4488 Q674.568 47.8759 682.496 47.8759 Q685.592 47.8759 688.023 47.3551 Q690.453 46.8053 692.392 45.6768 Z" fill="#000000" fill-rule="nonzero" fill-opacity="1" /><path clip-path="url(#clip760)" d="M729.342 31.5855 Q731.223 32.222 732.988 34.3054 Q734.782 36.3887 736.576 40.0345 L742.507 51.84 L736.228 51.84 L730.702 40.7579 Q728.561 36.4176 726.535 34.9998 Q724.539 33.582 721.066 33.582 L714.701 33.582 L714.701 51.84 L708.856 51.84 L708.856 8.64 L722.05 8.64 Q729.458 8.64 733.103 11.736 Q736.749 14.8321 736.749 21.0821 Q736.749 25.1619 734.84 27.8529 Q732.959 30.5438 729.342 31.5855 M714.701 13.4432 L714.701 28.7788 L722.05 28.7788 Q726.275 28.7788 728.416 26.8401 Q730.586 24.8726 730.586 21.0821 Q730.586 17.2916 728.416 15.3819 Q726.275 13.4432 722.05 13.4432 L714.701 13.4432 Z" fill="#000000" fill-rule="nonzero" fill-opacity="1" /><path clip-path="url(#clip760)" d="M749.365 8.64 L755.239 8.64 L755.239 34.8841 Q755.239 41.8285 757.756 44.8956 Q760.273 47.9338 765.916 47.9338 Q771.529 47.9338 774.047 44.8956 Q776.564 41.8285 776.564 34.8841 L776.564 8.64 L782.438 8.64 L782.438 35.6074 Q782.438 44.0565 778.242 48.3678 Q774.075 52.6791 765.916 52.6791 Q757.727 52.6791 753.532 48.3678 Q749.365 44.0565 749.365 35.6074 L749.365 8.64 Z" fill="#000000" fill-rule="nonzero" fill-opacity="1" /><path clip-path="url(#clip760)" d="M817.275 10.2314 L817.275 19.4328 L828.242 19.4328 L828.242 23.5705 L817.275 23.5705 L817.275 41.163 Q817.275 45.1271 818.346 46.2555 Q819.446 47.384 822.773 47.384 L828.242 47.384 L828.242 51.84 L822.773 51.84 Q816.61 51.84 814.266 49.5541 Q811.922 47.2393 811.922 41.163 L811.922 23.5705 L808.016 23.5705 L808.016 19.4328 L811.922 19.4328 L811.922 10.2314 L817.275 10.2314 Z" fill="#000000" fill-rule="nonzero" fill-opacity="1" /><path clip-path="url(#clip760)" d="M854.023 24.4096 Q853.126 23.8888 852.055 23.6573 Q851.014 23.3969 849.741 23.3969 Q845.227 23.3969 842.796 26.3482 Q840.395 29.2707 840.395 34.7683 L840.395 51.84 L835.042 51.84 L835.042 19.4328 L840.395 19.4328 L840.395 24.4675 Q842.073 21.5161 844.764 20.0983 Q847.455 18.6515 851.303 18.6515 Q851.853 18.6515 852.518 18.7383 Q853.184 18.7962 853.994 18.9409 L854.023 24.4096 Z" fill="#000000" fill-rule="nonzero" fill-opacity="1" /><path clip-path="url(#clip760)" d="M874.335 35.5496 Q867.883 35.5496 865.394 37.0253 Q862.906 38.501 862.906 42.06 Q862.906 44.8956 864.758 46.5738 Q866.639 48.2231 869.85 48.2231 Q874.277 48.2231 876.94 45.0981 Q879.63 41.9442 879.63 36.7359 L879.63 35.5496 L874.335 35.5496 M884.955 33.3505 L884.955 51.84 L879.63 51.84 L879.63 46.921 Q877.808 49.8724 875.088 51.2902 Q872.368 52.6791 868.433 52.6791 Q863.456 52.6791 860.504 49.9014 Q857.582 47.0947 857.582 42.4072 Q857.582 36.9385 861.228 34.1607 Q864.903 31.3829 872.165 31.3829 L879.63 31.3829 L879.63 30.8621 Q879.63 27.1874 877.2 25.1908 Q874.798 23.1654 870.429 23.1654 Q867.651 23.1654 865.018 23.8309 Q862.385 24.4964 859.955 25.8274 L859.955 20.9085 Q862.877 19.78 865.626 19.2302 Q868.375 18.6515 870.979 18.6515 Q878.01 18.6515 881.482 22.2973 Q884.955 25.9431 884.955 33.3505 Z" fill="#000000" fill-rule="nonzero" fill-opacity="1" /><path clip-path="url(#clip760)" d="M895.921 19.4328 L901.245 19.4328 L901.245 51.84 L895.921 51.84 L895.921 19.4328 M895.921 6.81709 L901.245 6.81709 L901.245 13.559 L895.921 13.559 L895.921 6.81709 Z" fill="#000000" fill-rule="nonzero" fill-opacity="1" /><path clip-path="url(#clip760)" d="M939.323 32.2799 L939.323 51.84 L933.999 51.84 L933.999 32.4535 Q933.999 27.8529 932.205 25.567 Q930.411 23.2811 926.823 23.2811 Q922.512 23.2811 920.024 26.03 Q917.535 28.7788 917.535 33.5241 L917.535 51.84 L912.182 51.84 L912.182 19.4328 L917.535 19.4328 L917.535 24.4675 Q919.445 21.545 922.02 20.0983 Q924.624 18.6515 928.01 18.6515 Q933.594 18.6515 936.459 22.1237 Q939.323 25.567 939.323 32.2799 Z" fill="#000000" fill-rule="nonzero" fill-opacity="1" /><path clip-path="url(#clip760)" d="M949.943 19.4328 L955.267 19.4328 L955.267 51.84 L949.943 51.84 L949.943 19.4328 M949.943 6.81709 L955.267 6.81709 L955.267 13.559 L949.943 13.559 L949.943 6.81709 Z" fill="#000000" fill-rule="nonzero" fill-opacity="1" /><path clip-path="url(#clip760)" d="M993.345 32.2799 L993.345 51.84 L988.021 51.84 L988.021 32.4535 Q988.021 27.8529 986.227 25.567 Q984.433 23.2811 980.845 23.2811 Q976.534 23.2811 974.045 26.03 Q971.557 28.7788 971.557 33.5241 L971.557 51.84 L966.204 51.84 L966.204 19.4328 L971.557 19.4328 L971.557 24.4675 Q973.467 21.545 976.042 20.0983 Q978.646 18.6515 982.032 18.6515 Q987.616 18.6515 990.481 22.1237 Q993.345 25.567 993.345 32.2799 Z" fill="#000000" fill-rule="nonzero" fill-opacity="1" /><path clip-path="url(#clip760)" d="M1025.29 35.2602 Q1025.29 29.4732 1022.89 26.2904 Q1020.52 23.1075 1016.2 23.1075 Q1011.92 23.1075 1009.52 26.2904 Q1007.15 29.4732 1007.15 35.2602 Q1007.15 41.0183 1009.52 44.2012 Q1011.92 47.384 1016.2 47.384 Q1020.52 47.384 1022.89 44.2012 Q1025.29 41.0183 1025.29 35.2602 M1030.61 47.818 Q1030.61 56.0934 1026.94 60.1154 Q1023.26 64.1663 1015.68 64.1663 Q1012.88 64.1663 1010.39 63.7323 Q1007.9 63.3272 1005.56 62.4592 L1005.56 57.2798 Q1007.9 58.5529 1010.19 59.1606 Q1012.47 59.7682 1014.84 59.7682 Q1020.08 59.7682 1022.69 57.0194 Q1025.29 54.2995 1025.29 48.7729 L1025.29 46.1398 Q1023.64 49.0044 1021.06 50.4222 Q1018.49 51.84 1014.9 51.84 Q1008.94 51.84 1005.3 47.2972 Q1001.65 42.7544 1001.65 35.2602 Q1001.65 27.7371 1005.3 23.1943 Q1008.94 18.6515 1014.9 18.6515 Q1018.49 18.6515 1021.06 20.0693 Q1023.64 21.4872 1025.29 24.3517 L1025.29 19.4328 L1030.61 19.4328 L1030.61 47.818 Z" fill="#000000" fill-rule="nonzero" fill-opacity="1" /><path clip-path="url(#clip760)" d="M1060.42 6.81709 L1065.74 6.81709 L1065.74 51.84 L1060.42 51.84 L1060.42 6.81709 Z" fill="#000000" fill-rule="nonzero" fill-opacity="1" /><path clip-path="url(#clip760)" d="M1089.44 23.1654 Q1085.16 23.1654 1082.67 26.5218 Q1080.18 29.8494 1080.18 35.6653 Q1080.18 41.4813 1082.64 44.8377 Q1085.13 48.1653 1089.44 48.1653 Q1093.69 48.1653 1096.18 44.8088 Q1098.67 41.4523 1098.67 35.6653 Q1098.67 29.9072 1096.18 26.5508 Q1093.69 23.1654 1089.44 23.1654 M1089.44 18.6515 Q1096.38 18.6515 1100.35 23.1654 Q1104.31 27.6792 1104.31 35.6653 Q1104.31 43.6225 1100.35 48.1653 Q1096.38 52.6791 1089.44 52.6791 Q1082.47 52.6791 1078.5 48.1653 Q1074.57 43.6225 1074.57 35.6653 Q1074.57 27.6792 1078.5 23.1654 Q1082.47 18.6515 1089.44 18.6515 Z" fill="#000000" fill-rule="nonzero" fill-opacity="1" /><path clip-path="url(#clip760)" d="M1133.8 20.3876 L1133.8 25.4223 Q1131.54 24.2649 1129.11 23.6862 Q1126.68 23.1075 1124.07 23.1075 Q1120.11 23.1075 1118.11 24.3228 Q1116.15 25.5381 1116.15 27.9686 Q1116.15 29.8204 1117.56 30.891 Q1118.98 31.9327 1123.26 32.8876 L1125.09 33.2926 Q1130.76 34.5079 1133.13 36.7359 Q1135.53 38.935 1135.53 42.8991 Q1135.53 47.4129 1131.94 50.046 Q1128.38 52.6791 1122.13 52.6791 Q1119.53 52.6791 1116.7 52.1583 Q1113.89 51.6664 1110.76 50.6537 L1110.76 45.156 Q1113.71 46.6896 1116.58 47.4708 Q1119.44 48.2231 1122.25 48.2231 Q1126.01 48.2231 1128.04 46.95 Q1130.06 45.6479 1130.06 43.3042 Q1130.06 41.134 1128.59 39.9766 Q1127.14 38.8192 1122.19 37.7486 L1120.34 37.3146 Q1115.39 36.273 1113.19 34.1318 Q1110.99 31.9616 1110.99 28.2001 Q1110.99 23.6283 1114.24 21.1399 Q1117.48 18.6515 1123.44 18.6515 Q1126.39 18.6515 1128.99 19.0855 Q1131.6 19.5196 1133.8 20.3876 Z" fill="#000000" fill-rule="nonzero" fill-opacity="1" /><path clip-path="url(#clip760)" d="M1164.67 20.3876 L1164.67 25.4223 Q1162.41 24.2649 1159.98 23.6862 Q1157.55 23.1075 1154.95 23.1075 Q1150.98 23.1075 1148.99 24.3228 Q1147.02 25.5381 1147.02 27.9686 Q1147.02 29.8204 1148.44 30.891 Q1149.85 31.9327 1154.14 32.8876 L1155.96 33.2926 Q1161.63 34.5079 1164 36.7359 Q1166.41 38.935 1166.41 42.8991 Q1166.41 47.4129 1162.82 50.046 Q1159.26 52.6791 1153.01 52.6791 Q1150.4 52.6791 1147.57 52.1583 Q1144.76 51.6664 1141.64 50.6537 L1141.64 45.156 Q1144.59 46.6896 1147.45 47.4708 Q1150.32 48.2231 1153.12 48.2231 Q1156.89 48.2231 1158.91 46.95 Q1160.94 45.6479 1160.94 43.3042 Q1160.94 41.134 1159.46 39.9766 Q1158.01 38.8192 1153.07 37.7486 L1151.21 37.3146 Q1146.27 36.273 1144.07 34.1318 Q1141.87 31.9616 1141.87 28.2001 Q1141.87 23.6283 1145.11 21.1399 Q1148.35 18.6515 1154.31 18.6515 Q1157.26 18.6515 1159.87 19.0855 Q1162.47 19.5196 1164.67 20.3876 Z" fill="#000000" fill-rule="nonzero" fill-opacity="1" /><path clip-path="url(#clip760)" d="M1191.03 33.5241 L1244.5 33.5241 L1244.5 37.6908 L1191.03 37.6908 L1191.03 33.5241 Z" fill="#000000" fill-rule="nonzero" fill-opacity="1" /><path clip-path="url(#clip760)" d="M1297.94 10.0578 L1297.94 15.758 Q1294.62 14.1666 1291.67 13.3853 Q1288.71 12.6041 1285.97 12.6041 Q1281.19 12.6041 1278.59 14.4559 Q1276.01 16.3078 1276.01 19.7221 Q1276.01 22.5867 1277.72 24.0624 Q1279.45 25.5091 1284.26 26.4061 L1287.79 27.1295 Q1294.33 28.3737 1297.42 31.5276 Q1300.55 34.6526 1300.55 39.9188 Q1300.55 46.1977 1296.32 49.4384 Q1292.13 52.6791 1284 52.6791 Q1280.93 52.6791 1277.46 51.9847 Q1274.01 51.2902 1270.31 49.9303 L1270.31 43.9118 Q1273.87 45.9083 1277.28 46.921 Q1280.7 47.9338 1284 47.9338 Q1289 47.9338 1291.72 45.9662 Q1294.44 43.9986 1294.44 40.3528 Q1294.44 37.1699 1292.48 35.376 Q1290.54 33.582 1286.08 32.685 L1282.52 31.9906 Q1275.98 30.6885 1273.06 27.9107 Q1270.14 25.133 1270.14 20.1851 Q1270.14 14.4559 1274.16 11.1573 Q1278.21 7.85875 1285.3 7.85875 Q1288.34 7.85875 1291.49 8.40852 Q1294.65 8.95829 1297.94 10.0578 Z" fill="#000000" fill-rule="nonzero" fill-opacity="1" /><path clip-path="url(#clip760)" d="M1315.51 13.4432 L1315.51 29.6758 L1322.86 29.6758 Q1326.94 29.6758 1329.17 27.5635 Q1331.39 25.4513 1331.39 21.545 Q1331.39 17.6677 1329.17 15.5555 Q1326.94 13.4432 1322.86 13.4432 L1315.51 13.4432 M1309.66 8.64 L1322.86 8.64 Q1330.12 8.64 1333.82 11.9386 Q1337.56 15.2083 1337.56 21.545 Q1337.56 27.9397 1333.82 31.2093 Q1330.12 34.479 1322.86 34.479 L1315.51 34.479 L1315.51 51.84 L1309.66 51.84 L1309.66 8.64 Z" fill="#000000" fill-rule="nonzero" fill-opacity="1" /><path clip-path="url(#clip760)" d="M1338.16 8.64 L1344.44 8.64 L1356.42 26.4061 L1368.31 8.64 L1374.59 8.64 L1359.32 31.2672 L1359.32 51.84 L1353.44 51.84 L1353.44 31.2672 L1338.16 8.64 Z" fill="#000000" fill-rule="nonzero" fill-opacity="1" /><path clip-path="url(#clip760)" d="M1411.69 6.87496 Q1407.81 13.53 1405.93 20.0404 Q1404.05 26.5508 1404.05 33.2348 Q1404.05 39.9188 1405.93 46.487 Q1407.84 53.0263 1411.69 59.6525 L1407.06 59.6525 Q1402.72 52.8527 1400.55 46.2845 Q1398.41 39.7162 1398.41 33.2348 Q1398.41 26.7823 1400.55 20.2429 Q1402.69 13.7036 1407.06 6.87496 L1411.69 6.87496 Z" fill="#000000" fill-rule="nonzero" fill-opacity="1" /><path clip-path="url(#clip760)" d="M1427.8 46.921 L1448.2 46.921 L1448.2 51.84 L1420.77 51.84 L1420.77 46.921 Q1424.1 43.4778 1429.83 37.6908 Q1435.59 31.8748 1437.06 30.1966 Q1439.87 27.0427 1440.97 24.8726 Q1442.1 22.6735 1442.1 20.5612 Q1442.1 17.118 1439.67 14.9478 Q1437.27 12.7777 1433.39 12.7777 Q1430.64 12.7777 1427.57 13.7326 Q1424.53 14.6874 1421.06 16.6261 L1421.06 10.7233 Q1424.59 9.30551 1427.66 8.58213 Q1430.73 7.85875 1433.27 7.85875 Q1439.99 7.85875 1443.98 11.2152 Q1447.97 14.5717 1447.97 20.1851 Q1447.97 22.8471 1446.96 25.2487 Q1445.98 27.6214 1443.34 30.8621 Q1442.62 31.7012 1438.74 35.7232 Q1434.86 39.7162 1427.8 46.921 Z" fill="#000000" fill-rule="nonzero" fill-opacity="1" /><path clip-path="url(#clip760)" d="M1472.97 12.4884 Q1468.46 12.4884 1466.17 16.9444 Q1463.92 21.3714 1463.92 30.2834 Q1463.92 39.1665 1466.17 43.6225 Q1468.46 48.0495 1472.97 48.0495 Q1477.51 48.0495 1479.77 43.6225 Q1482.06 39.1665 1482.06 30.2834 Q1482.06 21.3714 1479.77 16.9444 Q1477.51 12.4884 1472.97 12.4884 M1472.97 7.85875 Q1480.23 7.85875 1484.05 13.6168 Q1487.9 19.346 1487.9 30.2834 Q1487.9 41.1919 1484.05 46.95 Q1480.23 52.6791 1472.97 52.6791 Q1465.71 52.6791 1461.86 46.95 Q1458.04 41.1919 1458.04 30.2834 Q1458.04 19.346 1461.86 13.6168 Q1465.71 7.85875 1472.97 7.85875 Z" fill="#000000" fill-rule="nonzero" fill-opacity="1" /><path clip-path="url(#clip760)" d="M1543.98 34.3054 L1543.98 36.9095 L1519.5 36.9095 Q1519.85 42.4072 1522.8 45.3007 Q1525.78 48.1653 1531.07 48.1653 Q1534.14 48.1653 1537.01 47.4129 Q1539.9 46.6606 1542.73 45.156 L1542.73 50.1907 Q1539.87 51.406 1536.86 52.0425 Q1533.85 52.6791 1530.76 52.6791 Q1523 52.6791 1518.46 48.1653 Q1513.94 43.6514 1513.94 35.9547 Q1513.94 27.9975 1518.23 23.339 Q1522.54 18.6515 1529.83 18.6515 Q1536.37 18.6515 1540.16 22.876 Q1543.98 27.0716 1543.98 34.3054 M1538.65 32.7429 Q1538.6 28.3737 1536.2 25.7695 Q1533.82 23.1654 1529.89 23.1654 Q1525.43 23.1654 1522.74 25.6827 Q1520.08 28.2001 1519.67 32.7718 L1538.65 32.7429 Z" fill="#000000" fill-rule="nonzero" fill-opacity="1" /><path clip-path="url(#clip760)" d="M1557.87 46.9789 L1557.87 64.1663 L1552.51 64.1663 L1552.51 19.4328 L1557.87 19.4328 L1557.87 24.3517 Q1559.55 21.4582 1562.09 20.0693 Q1564.67 18.6515 1568.23 18.6515 Q1574.13 18.6515 1577.8 23.339 Q1581.51 28.0265 1581.51 35.6653 Q1581.51 43.3042 1577.8 47.9916 Q1574.13 52.6791 1568.23 52.6791 Q1564.67 52.6791 1562.09 51.2902 Q1559.55 49.8724 1557.87 46.9789 M1575.98 35.6653 Q1575.98 29.7915 1573.55 26.464 Q1571.15 23.1075 1566.92 23.1075 Q1562.7 23.1075 1560.27 26.464 Q1557.87 29.7915 1557.87 35.6653 Q1557.87 41.5391 1560.27 44.8956 Q1562.7 48.2231 1566.92 48.2231 Q1571.15 48.2231 1573.55 44.8956 Q1575.98 41.5391 1575.98 35.6653 Z" fill="#000000" fill-rule="nonzero" fill-opacity="1" /><path clip-path="url(#clip760)" d="M1602.89 23.1654 Q1598.61 23.1654 1596.12 26.5218 Q1593.63 29.8494 1593.63 35.6653 Q1593.63 41.4813 1596.09 44.8377 Q1598.58 48.1653 1602.89 48.1653 Q1607.14 48.1653 1609.63 44.8088 Q1612.12 41.4523 1612.12 35.6653 Q1612.12 29.9072 1609.63 26.5508 Q1607.14 23.1654 1602.89 23.1654 M1602.89 18.6515 Q1609.83 18.6515 1613.8 23.1654 Q1617.76 27.6792 1617.76 35.6653 Q1617.76 43.6225 1613.8 48.1653 Q1609.83 52.6791 1602.89 52.6791 Q1595.92 52.6791 1591.95 48.1653 Q1588.02 43.6225 1588.02 35.6653 Q1588.02 27.6792 1591.95 23.1654 Q1595.92 18.6515 1602.89 18.6515 Z" fill="#000000" fill-rule="nonzero" fill-opacity="1" /><path clip-path="url(#clip760)" d="M1649.91 20.677 L1649.91 25.6538 Q1647.65 24.4096 1645.37 23.802 Q1643.11 23.1654 1640.8 23.1654 Q1635.62 23.1654 1632.75 26.464 Q1629.89 29.7336 1629.89 35.6653 Q1629.89 41.597 1632.75 44.8956 Q1635.62 48.1653 1640.8 48.1653 Q1643.11 48.1653 1645.37 47.5576 Q1647.65 46.921 1649.91 45.6768 L1649.91 50.5958 Q1647.68 51.6375 1645.28 52.1583 Q1642.91 52.6791 1640.22 52.6791 Q1632.9 52.6791 1628.58 48.0784 Q1624.27 43.4778 1624.27 35.6653 Q1624.27 27.7371 1628.61 23.1943 Q1632.98 18.6515 1640.56 18.6515 Q1643.02 18.6515 1645.37 19.1724 Q1647.71 19.6642 1649.91 20.677 Z" fill="#000000" fill-rule="nonzero" fill-opacity="1" /><path clip-path="url(#clip760)" d="M1686.11 32.2799 L1686.11 51.84 L1680.78 51.84 L1680.78 32.4535 Q1680.78 27.8529 1678.99 25.567 Q1677.2 23.2811 1673.61 23.2811 Q1669.3 23.2811 1666.81 26.03 Q1664.32 28.7788 1664.32 33.5241 L1664.32 51.84 L1658.97 51.84 L1658.97 6.81709 L1664.32 6.81709 L1664.32 24.4675 Q1666.23 21.545 1668.8 20.0983 Q1671.41 18.6515 1674.79 18.6515 Q1680.38 18.6515 1683.24 22.1237 Q1686.11 25.567 1686.11 32.2799 Z" fill="#000000" fill-rule="nonzero" fill-opacity="1" /><path clip-path="url(#clip760)" d="M1717.39 20.3876 L1717.39 25.4223 Q1715.13 24.2649 1712.7 23.6862 Q1710.27 23.1075 1707.66 23.1075 Q1703.7 23.1075 1701.7 24.3228 Q1699.74 25.5381 1699.74 27.9686 Q1699.74 29.8204 1701.15 30.891 Q1702.57 31.9327 1706.85 32.8876 L1708.68 33.2926 Q1714.35 34.5079 1716.72 36.7359 Q1719.12 38.935 1719.12 42.8991 Q1719.12 47.4129 1715.53 50.046 Q1711.98 52.6791 1705.73 52.6791 Q1703.12 52.6791 1700.29 52.1583 Q1697.48 51.6664 1694.35 50.6537 L1694.35 45.156 Q1697.31 46.6896 1700.17 47.4708 Q1703.03 48.2231 1705.84 48.2231 Q1709.6 48.2231 1711.63 46.95 Q1713.65 45.6479 1713.65 43.3042 Q1713.65 41.134 1712.18 39.9766 Q1710.73 38.8192 1705.78 37.7486 L1703.93 37.3146 Q1698.98 36.273 1696.78 34.1318 Q1694.59 31.9616 1694.59 28.2001 Q1694.59 23.6283 1697.83 21.1399 Q1701.07 18.6515 1707.03 18.6515 Q1709.98 18.6515 1712.58 19.0855 Q1715.19 19.5196 1717.39 20.3876 Z" fill="#000000" fill-rule="nonzero" fill-opacity="1" /><path clip-path="url(#clip760)" d="M1728.96 44.4905 L1735.07 44.4905 L1735.07 49.4673 L1730.32 58.7265 L1726.59 58.7265 L1728.96 49.4673 L1728.96 44.4905 Z" fill="#000000" fill-rule="nonzero" fill-opacity="1" /><path clip-path="url(#clip760)" d="M1792.21 32.2799 L1792.21 51.84 L1786.89 51.84 L1786.89 32.4535 Q1786.89 27.8529 1785.09 25.567 Q1783.3 23.2811 1779.71 23.2811 Q1775.4 23.2811 1772.91 26.03 Q1770.42 28.7788 1770.42 33.5241 L1770.42 51.84 L1765.07 51.84 L1765.07 6.81709 L1770.42 6.81709 L1770.42 24.4675 Q1772.33 21.545 1774.91 20.0983 Q1777.51 18.6515 1780.9 18.6515 Q1786.48 18.6515 1789.35 22.1237 Q1792.21 25.567 1792.21 32.2799 Z" fill="#000000" fill-rule="nonzero" fill-opacity="1" /><path clip-path="url(#clip760)" d="M1802.83 19.4328 L1808.16 19.4328 L1808.16 51.84 L1802.83 51.84 L1802.83 19.4328 M1802.83 6.81709 L1808.16 6.81709 L1808.16 13.559 L1802.83 13.559 L1802.83 6.81709 Z" fill="#000000" fill-rule="nonzero" fill-opacity="1" /><path clip-path="url(#clip760)" d="M1840.62 24.3517 L1840.62 6.81709 L1845.94 6.81709 L1845.94 51.84 L1840.62 51.84 L1840.62 46.9789 Q1838.94 49.8724 1836.37 51.2902 Q1833.82 52.6791 1830.23 52.6791 Q1824.36 52.6791 1820.66 47.9916 Q1816.98 43.3042 1816.98 35.6653 Q1816.98 28.0265 1820.66 23.339 Q1824.36 18.6515 1830.23 18.6515 Q1833.82 18.6515 1836.37 20.0693 Q1838.94 21.4582 1840.62 24.3517 M1822.48 35.6653 Q1822.48 41.5391 1824.88 44.8956 Q1827.31 48.2231 1831.54 48.2231 Q1835.76 48.2231 1838.19 44.8956 Q1840.62 41.5391 1840.62 35.6653 Q1840.62 29.7915 1838.19 26.464 Q1835.76 23.1075 1831.54 23.1075 Q1827.31 23.1075 1824.88 26.464 Q1822.48 29.7915 1822.48 35.6653 Z" fill="#000000" fill-rule="nonzero" fill-opacity="1" /><path clip-path="url(#clip760)" d="M1878.24 24.3517 L1878.24 6.81709 L1883.56 6.81709 L1883.56 51.84 L1878.24 51.84 L1878.24 46.9789 Q1876.56 49.8724 1873.98 51.2902 Q1871.44 52.6791 1867.85 52.6791 Q1861.97 52.6791 1858.27 47.9916 Q1854.6 43.3042 1854.6 35.6653 Q1854.6 28.0265 1858.27 23.339 Q1861.97 18.6515 1867.85 18.6515 Q1871.44 18.6515 1873.98 20.0693 Q1876.56 21.4582 1878.24 24.3517 M1860.09 35.6653 Q1860.09 41.5391 1862.5 44.8956 Q1864.93 48.2231 1869.15 48.2231 Q1873.38 48.2231 1875.81 44.8956 Q1878.24 41.5391 1878.24 35.6653 Q1878.24 29.7915 1875.81 26.464 Q1873.38 23.1075 1869.15 23.1075 Q1864.93 23.1075 1862.5 26.464 Q1860.09 29.7915 1860.09 35.6653 Z" fill="#000000" fill-rule="nonzero" fill-opacity="1" /><path clip-path="url(#clip760)" d="M1922.25 34.3054 L1922.25 36.9095 L1897.77 36.9095 Q1898.11 42.4072 1901.07 45.3007 Q1904.05 48.1653 1909.34 48.1653 Q1912.41 48.1653 1915.27 47.4129 Q1918.17 46.6606 1921 45.156 L1921 50.1907 Q1918.14 51.406 1915.13 52.0425 Q1912.12 52.6791 1909.02 52.6791 Q1901.27 52.6791 1896.73 48.1653 Q1892.21 43.6514 1892.21 35.9547 Q1892.21 27.9975 1896.49 23.339 Q1900.81 18.6515 1908.1 18.6515 Q1914.64 18.6515 1918.43 22.876 Q1922.25 27.0716 1922.25 34.3054 M1916.92 32.7429 Q1916.86 28.3737 1914.46 25.7695 Q1912.09 23.1654 1908.16 23.1654 Q1903.7 23.1654 1901.01 25.6827 Q1898.35 28.2001 1897.94 32.7718 L1916.92 32.7429 Z" fill="#000000" fill-rule="nonzero" fill-opacity="1" /><path clip-path="url(#clip760)" d="M1957.92 32.2799 L1957.92 51.84 L1952.6 51.84 L1952.6 32.4535 Q1952.6 27.8529 1950.81 25.567 Q1949.01 23.2811 1945.42 23.2811 Q1941.11 23.2811 1938.62 26.03 Q1936.14 28.7788 1936.14 33.5241 L1936.14 51.84 L1930.78 51.84 L1930.78 19.4328 L1936.14 19.4328 L1936.14 24.4675 Q1938.04 21.545 1940.62 20.0983 Q1943.22 18.6515 1946.61 18.6515 Q1952.19 18.6515 1955.06 22.1237 Q1957.92 25.567 1957.92 32.2799 Z" fill="#000000" fill-rule="nonzero" fill-opacity="1" /><path clip-path="url(#clip760)" d="M1969.24 24.9304 L2006.33 24.9304 L2006.33 29.7915 L1969.24 29.7915 L1969.24 24.9304 M1969.24 36.7359 L2006.33 36.7359 L2006.33 41.6549 L1969.24 41.6549 L1969.24 36.7359 Z" fill="#000000" fill-rule="nonzero" fill-opacity="1" /><path clip-path="url(#clip760)" d="M2036.66 28.5473 Q2040.85 29.4443 2043.19 32.2799 Q2045.57 35.1156 2045.57 39.2822 Q2045.57 45.6768 2041.17 49.178 Q2036.77 52.6791 2028.67 52.6791 Q2025.95 52.6791 2023.06 52.1294 Q2020.19 51.6085 2017.12 50.5379 L2017.12 44.8956 Q2019.55 46.3134 2022.45 47.0368 Q2025.34 47.7602 2028.5 47.7602 Q2033.99 47.7602 2036.86 45.59 Q2039.75 43.4199 2039.75 39.2822 Q2039.75 35.4628 2037.06 33.3216 Q2034.4 31.1515 2029.62 31.1515 L2024.59 31.1515 L2024.59 26.3482 L2029.86 26.3482 Q2034.17 26.3482 2036.45 24.6411 Q2038.74 22.905 2038.74 19.6642 Q2038.74 16.3367 2036.37 14.5717 Q2034.02 12.7777 2029.62 12.7777 Q2027.22 12.7777 2024.47 13.2985 Q2021.73 13.8194 2018.43 14.9189 L2018.43 9.7106 Q2021.75 8.78468 2024.65 8.32171 Q2027.57 7.85875 2030.15 7.85875 Q2036.8 7.85875 2040.68 10.8969 Q2044.55 13.9062 2044.55 19.0566 Q2044.55 22.6446 2042.5 25.133 Q2040.45 27.5924 2036.66 28.5473 Z" fill="#000000" fill-rule="nonzero" fill-opacity="1" /><path clip-path="url(#clip760)" d="M2061.68 46.921 L2082.08 46.921 L2082.08 51.84 L2054.65 51.84 L2054.65 46.921 Q2057.98 43.4778 2063.71 37.6908 Q2069.47 31.8748 2070.94 30.1966 Q2073.75 27.0427 2074.85 24.8726 Q2075.98 22.6735 2075.98 20.5612 Q2075.98 17.118 2073.55 14.9478 Q2071.15 12.7777 2067.27 12.7777 Q2064.52 12.7777 2061.45 13.7326 Q2058.41 14.6874 2054.94 16.6261 L2054.94 10.7233 Q2058.47 9.30551 2061.54 8.58213 Q2064.61 7.85875 2067.15 7.85875 Q2073.87 7.85875 2077.86 11.2152 Q2081.85 14.5717 2081.85 20.1851 Q2081.85 22.8471 2080.84 25.2487 Q2079.86 27.6214 2077.22 30.8621 Q2076.5 31.7012 2072.62 35.7232 Q2068.74 39.7162 2061.68 46.921 Z" fill="#000000" fill-rule="nonzero" fill-opacity="1" /><path clip-path="url(#clip760)" d="M2094.96 44.4905 L2101.06 44.4905 L2101.06 49.4673 L2096.32 58.7265 L2092.59 58.7265 L2094.96 49.4673 L2094.96 44.4905 Z" fill="#000000" fill-rule="nonzero" fill-opacity="1" /><path clip-path="url(#clip760)" d="M2128.18 19.4328 L2133.5 19.4328 L2140.16 44.722 L2146.78 19.4328 L2153.06 19.4328 L2159.72 44.722 L2166.34 19.4328 L2171.67 19.4328 L2163.19 51.84 L2156.91 51.84 L2149.94 25.2776 L2142.93 51.84 L2136.65 51.84 L2128.18 19.4328 Z" fill="#000000" fill-rule="nonzero" fill-opacity="1" /><path clip-path="url(#clip760)" d="M2179.74 19.4328 L2185.06 19.4328 L2185.06 51.84 L2179.74 51.84 L2179.74 19.4328 M2179.74 6.81709 L2185.06 6.81709 L2185.06 13.559 L2179.74 13.559 L2179.74 6.81709 Z" fill="#000000" fill-rule="nonzero" fill-opacity="1" /><path clip-path="url(#clip760)" d="M2223.14 32.2799 L2223.14 51.84 L2217.82 51.84 L2217.82 32.4535 Q2217.82 27.8529 2216.02 25.567 Q2214.23 23.2811 2210.64 23.2811 Q2206.33 23.2811 2203.84 26.03 Q2201.35 28.7788 2201.35 33.5241 L2201.35 51.84 L2196 51.84 L2196 19.4328 L2201.35 19.4328 L2201.35 24.4675 Q2203.26 21.545 2205.84 20.0983 Q2208.44 18.6515 2211.83 18.6515 Q2217.41 18.6515 2220.28 22.1237 Q2223.14 25.567 2223.14 32.2799 Z" fill="#000000" fill-rule="nonzero" fill-opacity="1" /><path clip-path="url(#clip760)" d="M2234.46 24.9304 L2271.55 24.9304 L2271.55 29.7915 L2234.46 29.7915 L2234.46 24.9304 M2234.46 36.7359 L2271.55 36.7359 L2271.55 41.6549 L2234.46 41.6549 L2234.46 36.7359 Z" fill="#000000" fill-rule="nonzero" fill-opacity="1" /><path clip-path="url(#clip760)" d="M2289.2 46.921 L2309.6 46.921 L2309.6 51.84 L2282.17 51.84 L2282.17 46.921 Q2285.5 43.4778 2291.23 37.6908 Q2296.98 31.8748 2298.46 30.1966 Q2301.27 27.0427 2302.37 24.8726 Q2303.49 22.6735 2303.49 20.5612 Q2303.49 17.118 2301.06 14.9478 Q2298.66 12.7777 2294.78 12.7777 Q2292.04 12.7777 2288.97 13.7326 Q2285.93 14.6874 2282.46 16.6261 L2282.46 10.7233 Q2285.99 9.30551 2289.06 8.58213 Q2292.12 7.85875 2294.67 7.85875 Q2301.38 7.85875 2305.38 11.2152 Q2309.37 14.5717 2309.37 20.1851 Q2309.37 22.8471 2308.36 25.2487 Q2307.37 27.6214 2304.74 30.8621 Q2304.02 31.7012 2300.14 35.7232 Q2296.26 39.7162 2289.2 46.921 Z" fill="#000000" fill-rule="nonzero" fill-opacity="1" /><path clip-path="url(#clip760)" d="M2334.37 12.4884 Q2329.85 12.4884 2327.57 16.9444 Q2325.31 21.3714 2325.31 30.2834 Q2325.31 39.1665 2327.57 43.6225 Q2329.85 48.0495 2334.37 48.0495 Q2338.91 48.0495 2341.17 43.6225 Q2343.45 39.1665 2343.45 30.2834 Q2343.45 21.3714 2341.17 16.9444 Q2338.91 12.4884 2334.37 12.4884 M2334.37 7.85875 Q2341.63 7.85875 2345.45 13.6168 Q2349.3 19.346 2349.3 30.2834 Q2349.3 41.1919 2345.45 46.95 Q2341.63 52.6791 2334.37 52.6791 Q2327.11 52.6791 2323.26 46.95 Q2319.44 41.1919 2319.44 30.2834 Q2319.44 19.346 2323.26 13.6168 Q2327.11 7.85875 2334.37 7.85875 Z" fill="#000000" fill-rule="nonzero" fill-opacity="1" /><path clip-path="url(#clip760)" d="M2357.98 6.87496 L2362.61 6.87496 Q2366.95 13.7036 2369.09 20.2429 Q2371.26 26.7823 2371.26 33.2348 Q2371.26 39.7162 2369.09 46.2845 Q2366.95 52.8527 2362.61 59.6525 L2357.98 59.6525 Q2361.83 53.0263 2363.71 46.487 Q2365.62 39.9188 2365.62 33.2348 Q2365.62 26.5508 2363.71 20.0404 Q2361.83 13.53 2357.98 6.87496 Z" fill="#000000" fill-rule="nonzero" fill-opacity="1" /><polyline clip-path="url(#clip761)" style="stroke:#000080; stroke-linecap:round; stroke-linejoin:round; stroke-width:8; stroke-opacity:1; fill:none" points="348.965,141.741 471.796,735.256 594.626,765.491 717.456,930.84 840.287,867.686 963.117,922.236 1085.95,1030.15 1208.78,1063.15 1331.61,1041.63 1454.44,1100.84 1577.27,1154.64 1700.1,1179.35 1822.93,1229.81 1945.76,1238.33 2068.59,1307.47 2191.42,1288.38 2314.25,1344.6 2437.08,1400.85 2559.91,1424.19 2682.74,1470.72 "/>
<circle clip-path="url(#clip761)" cx="348.965" cy="141.741" r="10.8" fill="#000080" fill-rule="evenodd" fill-opacity="1" stroke="#000000" stroke-opacity="1" stroke-width="3.36"/>
<circle clip-path="url(#clip761)" cx="471.796" cy="735.256" r="10.8" fill="#000080" fill-rule="evenodd" fill-opacity="1" stroke="#000000" stroke-opacity="1" stroke-width="3.36"/>
<circle clip-path="url(#clip761)" cx="594.626" cy="765.491" r="10.8" fill="#000080" fill-rule="evenodd" fill-opacity="1" stroke="#000000" stroke-opacity="1" stroke-width="3.36"/>
<circle clip-path="url(#clip761)" cx="717.456" cy="930.84" r="10.8" fill="#000080" fill-rule="evenodd" fill-opacity="1" stroke="#000000" stroke-opacity="1" stroke-width="3.36"/>
<circle clip-path="url(#clip761)" cx="840.287" cy="867.686" r="10.8" fill="#000080" fill-rule="evenodd" fill-opacity="1" stroke="#000000" stroke-opacity="1" stroke-width="3.36"/>
<circle clip-path="url(#clip761)" cx="963.117" cy="922.236" r="10.8" fill="#000080" fill-rule="evenodd" fill-opacity="1" stroke="#000000" stroke-opacity="1" stroke-width="3.36"/>
<circle clip-path="url(#clip761)" cx="1085.95" cy="1030.15" r="10.8" fill="#000080" fill-rule="evenodd" fill-opacity="1" stroke="#000000" stroke-opacity="1" stroke-width="3.36"/>
<circle clip-path="url(#clip761)" cx="1208.78" cy="1063.15" r="10.8" fill="#000080" fill-rule="evenodd" fill-opacity="1" stroke="#000000" stroke-opacity="1" stroke-width="3.36"/>
<circle clip-path="url(#clip761)" cx="1331.61" cy="1041.63" r="10.8" fill="#000080" fill-rule="evenodd" fill-opacity="1" stroke="#000000" stroke-opacity="1" stroke-width="3.36"/>
<circle clip-path="url(#clip761)" cx="1454.44" cy="1100.84" r="10.8" fill="#000080" fill-rule="evenodd" fill-opacity="1" stroke="#000000" stroke-opacity="1" stroke-width="3.36"/>
<circle clip-path="url(#clip761)" cx="1577.27" cy="1154.64" r="10.8" fill="#000080" fill-rule="evenodd" fill-opacity="1" stroke="#000000" stroke-opacity="1" stroke-width="3.36"/>
<circle clip-path="url(#clip761)" cx="1700.1" cy="1179.35" r="10.8" fill="#000080" fill-rule="evenodd" fill-opacity="1" stroke="#000000" stroke-opacity="1" stroke-width="3.36"/>
<circle clip-path="url(#clip761)" cx="1822.93" cy="1229.81" r="10.8" fill="#000080" fill-rule="evenodd" fill-opacity="1" stroke="#000000" stroke-opacity="1" stroke-width="3.36"/>
<circle clip-path="url(#clip761)" cx="1945.76" cy="1238.33" r="10.8" fill="#000080" fill-rule="evenodd" fill-opacity="1" stroke="#000000" stroke-opacity="1" stroke-width="3.36"/>
<circle clip-path="url(#clip761)" cx="2068.59" cy="1307.47" r="10.8" fill="#000080" fill-rule="evenodd" fill-opacity="1" stroke="#000000" stroke-opacity="1" stroke-width="3.36"/>
<circle clip-path="url(#clip761)" cx="2191.42" cy="1288.38" r="10.8" fill="#000080" fill-rule="evenodd" fill-opacity="1" stroke="#000000" stroke-opacity="1" stroke-width="3.36"/>
<circle clip-path="url(#clip761)" cx="2314.25" cy="1344.6" r="10.8" fill="#000080" fill-rule="evenodd" fill-opacity="1" stroke="#000000" stroke-opacity="1" stroke-width="3.36"/>
<circle clip-path="url(#clip761)" cx="2437.08" cy="1400.85" r="10.8" fill="#000080" fill-rule="evenodd" fill-opacity="1" stroke="#000000" stroke-opacity="1" stroke-width="3.36"/>
<circle clip-path="url(#clip761)" cx="2559.91" cy="1424.19" r="10.8" fill="#000080" fill-rule="evenodd" fill-opacity="1" stroke="#000000" stroke-opacity="1" stroke-width="3.36"/>
<circle clip-path="url(#clip761)" cx="2682.74" cy="1470.72" r="10.8" fill="#000080" fill-rule="evenodd" fill-opacity="1" stroke="#000000" stroke-opacity="1" stroke-width="3.36"/>
</svg>
