<?xml version="1.0" encoding="utf-8"?>
<svg xmlns="http://www.w3.org/2000/svg" xmlns:xlink="http://www.w3.org/1999/xlink" width="600" height="400" viewBox="0 0 2400 1600">
<defs>
  <clipPath id="clip670">
    <rect x="0" y="0" width="2400" height="1600"/>
  </clipPath>
</defs>
<path clip-path="url(#clip670)" d="M0 1600 L2400 1600 L2400 8.88178e-14 L0 8.88178e-14  Z" fill="#f2f2f2" fill-rule="evenodd" fill-opacity="1"/>
<defs>
  <clipPath id="clip671">
    <rect x="480" y="0" width="1681" height="1600"/>
  </clipPath>
</defs>
<path clip-path="url(#clip670)" d="M255.977 1423.18 L2352.76 1423.18 L2352.76 47.2441 L255.977 47.2441  Z" fill="#f2f2f2" fill-rule="evenodd" fill-opacity="1"/>
<defs>
  <clipPath id="clip672">
    <rect x="255" y="47" width="2098" height="1377"/>
  </clipPath>
</defs>
<polyline clip-path="url(#clip672)" style="stroke:#000000; stroke-linecap:round; stroke-linejoin:round; stroke-width:2; stroke-opacity:0.1; fill:none" points="307.408,1423.18 307.408,47.2441 "/>
<polyline clip-path="url(#clip672)" style="stroke:#000000; stroke-linecap:round; stroke-linejoin:round; stroke-width:2; stroke-opacity:0.1; fill:none" points="703.026,1423.18 703.026,47.2441 "/>
<polyline clip-path="url(#clip672)" style="stroke:#000000; stroke-linecap:round; stroke-linejoin:round; stroke-width:2; stroke-opacity:0.1; fill:none" points="1098.64,1423.18 1098.64,47.2441 "/>
<polyline clip-path="url(#clip672)" style="stroke:#000000; stroke-linecap:round; stroke-linejoin:round; stroke-width:2; stroke-opacity:0.1; fill:none" points="1494.26,1423.18 1494.26,47.2441 "/>
<polyline clip-path="url(#clip672)" style="stroke:#000000; stroke-linecap:round; stroke-linejoin:round; stroke-width:2; stroke-opacity:0.1; fill:none" points="1889.88,1423.18 1889.88,47.2441 "/>
<polyline clip-path="url(#clip672)" style="stroke:#000000; stroke-linecap:round; stroke-linejoin:round; stroke-width:2; stroke-opacity:0.1; fill:none" points="2285.5,1423.18 2285.5,47.2441 "/>
<polyline clip-path="url(#clip672)" style="stroke:#000000; stroke-linecap:round; stroke-linejoin:round; stroke-width:2; stroke-opacity:0.1; fill:none" points="307.408,1423.18 307.408,47.2441 "/>
<polyline clip-path="url(#clip672)" style="stroke:#000000; stroke-linecap:round; stroke-linejoin:round; stroke-width:2; stroke-opacity:0.1; fill:none" points="703.026,1423.18 703.026,47.2441 "/>
<polyline clip-path="url(#clip672)" style="stroke:#000000; stroke-linecap:round; stroke-linejoin:round; stroke-width:2; stroke-opacity:0.1; fill:none" points="1098.64,1423.18 1098.64,47.2441 "/>
<polyline clip-path="url(#clip672)" style="stroke:#000000; stroke-linecap:round; stroke-linejoin:round; stroke-width:2; stroke-opacity:0.1; fill:none" points="1494.26,1423.18 1494.26,47.2441 "/>
<polyline clip-path="url(#clip672)" style="stroke:#000000; stroke-linecap:round; stroke-linejoin:round; stroke-width:2; stroke-opacity:0.1; fill:none" points="1889.88,1423.18 1889.88,47.2441 "/>
<polyline clip-path="url(#clip672)" style="stroke:#000000; stroke-linecap:round; stroke-linejoin:round; stroke-width:2; stroke-opacity:0.1; fill:none" points="2285.5,1423.18 2285.5,47.2441 "/>
<polyline clip-path="url(#clip672)" style="stroke:#000000; stroke-linecap:round; stroke-linejoin:round; stroke-width:2; stroke-opacity:0.1; fill:none" points="255.977,1316.1 2352.76,1316.1 "/>
<polyline clip-path="url(#clip672)" style="stroke:#000000; stroke-linecap:round; stroke-linejoin:round; stroke-width:2; stroke-opacity:0.1; fill:none" points="255.977,1025.74 2352.76,1025.74 "/>
<polyline clip-path="url(#clip672)" style="stroke:#000000; stroke-linecap:round; stroke-linejoin:round; stroke-width:2; stroke-opacity:0.1; fill:none" points="255.977,735.38 2352.76,735.38 "/>
<polyline clip-path="url(#clip672)" style="stroke:#000000; stroke-linecap:round; stroke-linejoin:round; stroke-width:2; stroke-opacity:0.1; fill:none" points="255.977,445.022 2352.76,445.022 "/>
<polyline clip-path="url(#clip672)" style="stroke:#000000; stroke-linecap:round; stroke-linejoin:round; stroke-width:2; stroke-opacity:0.1; fill:none" points="255.977,154.664 2352.76,154.664 "/>
<polyline clip-path="url(#clip672)" style="stroke:#000000; stroke-linecap:round; stroke-linejoin:round; stroke-width:2; stroke-opacity:0.1; fill:none" points="255.977,1316.1 2352.76,1316.1 "/>
<polyline clip-path="url(#clip672)" style="stroke:#000000; stroke-linecap:round; stroke-linejoin:round; stroke-width:2; stroke-opacity:0.1; fill:none" points="255.977,1025.74 2352.76,1025.74 "/>
<polyline clip-path="url(#clip672)" style="stroke:#000000; stroke-linecap:round; stroke-linejoin:round; stroke-width:2; stroke-opacity:0.1; fill:none" points="255.977,735.38 2352.76,735.38 "/>
<polyline clip-path="url(#clip672)" style="stroke:#000000; stroke-linecap:round; stroke-linejoin:round; stroke-width:2; stroke-opacity:0.1; fill:none" points="255.977,445.022 2352.76,445.022 "/>
<polyline clip-path="url(#clip672)" style="stroke:#000000; stroke-linecap:round; stroke-linejoin:round; stroke-width:2; stroke-opacity:0.1; fill:none" points="255.977,154.664 2352.76,154.664 "/>
<polyline clip-path="url(#clip670)" style="stroke:#000000; stroke-linecap:round; stroke-linejoin:round; stroke-width:4; stroke-opacity:1; fill:none" points="255.977,1423.18 2352.76,1423.18 "/>
<polyline clip-path="url(#clip670)" style="stroke:#000000; stroke-linecap:round; stroke-linejoin:round; stroke-width:4; stroke-opacity:1; fill:none" points="255.977,47.2441 2352.76,47.2441 "/>
<polyline clip-path="url(#clip670)" style="stroke:#000000; stroke-linecap:round; stroke-linejoin:round; stroke-width:4; stroke-opacity:1; fill:none" points="307.408,1423.18 307.408,1404.28 "/>
<polyline clip-path="url(#clip670)" style="stroke:#000000; stroke-linecap:round; stroke-linejoin:round; stroke-width:4; stroke-opacity:1; fill:none" points="703.026,1423.18 703.026,1404.28 "/>
<polyline clip-path="url(#clip670)" style="stroke:#000000; stroke-linecap:round; stroke-linejoin:round; stroke-width:4; stroke-opacity:1; fill:none" points="1098.64,1423.18 1098.64,1404.28 "/>
<polyline clip-path="url(#clip670)" style="stroke:#000000; stroke-linecap:round; stroke-linejoin:round; stroke-width:4; stroke-opacity:1; fill:none" points="1494.26,1423.18 1494.26,1404.28 "/>
<polyline clip-path="url(#clip670)" style="stroke:#000000; stroke-linecap:round; stroke-linejoin:round; stroke-width:4; stroke-opacity:1; fill:none" points="1889.88,1423.18 1889.88,1404.28 "/>
<polyline clip-path="url(#clip670)" style="stroke:#000000; stroke-linecap:round; stroke-linejoin:round; stroke-width:4; stroke-opacity:1; fill:none" points="2285.5,1423.18 2285.5,1404.28 "/>
<polyline clip-path="url(#clip670)" style="stroke:#000000; stroke-linecap:round; stroke-linejoin:round; stroke-width:4; stroke-opacity:1; fill:none" points="307.408,47.2441 307.408,66.1417 "/>
<polyline clip-path="url(#clip670)" style="stroke:#000000; stroke-linecap:round; stroke-linejoin:round; stroke-width:4; stroke-opacity:1; fill:none" points="703.026,47.2441 703.026,66.1417 "/>
<polyline clip-path="url(#clip670)" style="stroke:#000000; stroke-linecap:round; stroke-linejoin:round; stroke-width:4; stroke-opacity:1; fill:none" points="1098.64,47.2441 1098.64,66.1417 "/>
<polyline clip-path="url(#clip670)" style="stroke:#000000; stroke-linecap:round; stroke-linejoin:round; stroke-width:4; stroke-opacity:1; fill:none" points="1494.26,47.2441 1494.26,66.1417 "/>
<polyline clip-path="url(#clip670)" style="stroke:#000000; stroke-linecap:round; stroke-linejoin:round; stroke-width:4; stroke-opacity:1; fill:none" points="1889.88,47.2441 1889.88,66.1417 "/>
<polyline clip-path="url(#clip670)" style="stroke:#000000; stroke-linecap:round; stroke-linejoin:round; stroke-width:4; stroke-opacity:1; fill:none" points="2285.5,47.2441 2285.5,66.1417 "/>
<path clip-path="url(#clip670)" d="M307.408 1454.1 Q303.797 1454.1 301.968 1457.66 Q300.162 1461.2 300.162 1468.33 Q300.162 1475.44 301.968 1479.01 Q303.797 1482.55 307.408 1482.55 Q311.042 1482.55 312.847 1479.01 Q314.676 1475.44 314.676 1468.33 Q314.676 1461.2 312.847 1457.66 Q311.042 1454.1 307.408 1454.1 M307.408 1450.39 Q313.218 1450.39 316.273 1455 Q319.352 1459.58 319.352 1468.33 Q319.352 1477.06 316.273 1481.67 Q313.218 1486.25 307.408 1486.25 Q301.597 1486.25 298.519 1481.67 Q295.463 1477.06 295.463 1468.33 Q295.463 1459.58 298.519 1455 Q301.597 1450.39 307.408 1450.39 Z" fill="#000000" fill-rule="nonzero" fill-opacity="1" /><path clip-path="url(#clip670)" d="M677.725 1451.02 L696.082 1451.02 L696.082 1454.96 L682.008 1454.96 L682.008 1463.43 Q683.026 1463.08 684.045 1462.92 Q685.063 1462.73 686.082 1462.73 Q691.869 1462.73 695.248 1465.9 Q698.628 1469.08 698.628 1474.49 Q698.628 1480.07 695.156 1483.17 Q691.684 1486.25 685.364 1486.25 Q683.188 1486.25 680.92 1485.88 Q678.675 1485.51 676.267 1484.77 L676.267 1480.07 Q678.35 1481.2 680.573 1481.76 Q682.795 1482.32 685.272 1482.32 Q689.276 1482.32 691.614 1480.21 Q693.952 1478.1 693.952 1474.49 Q693.952 1470.88 691.614 1468.77 Q689.276 1466.67 685.272 1466.67 Q683.397 1466.67 681.522 1467.08 Q679.67 1467.5 677.725 1468.38 L677.725 1451.02 Z" fill="#000000" fill-rule="nonzero" fill-opacity="1" /><path clip-path="url(#clip670)" d="M717.841 1454.1 Q714.23 1454.1 712.401 1457.66 Q710.596 1461.2 710.596 1468.33 Q710.596 1475.44 712.401 1479.01 Q714.23 1482.55 717.841 1482.55 Q721.475 1482.55 723.281 1479.01 Q725.109 1475.44 725.109 1468.33 Q725.109 1461.2 723.281 1457.66 Q721.475 1454.1 717.841 1454.1 M717.841 1450.39 Q723.651 1450.39 726.707 1455 Q729.785 1459.58 729.785 1468.33 Q729.785 1477.06 726.707 1481.67 Q723.651 1486.25 717.841 1486.25 Q712.031 1486.25 708.952 1481.67 Q705.897 1477.06 705.897 1468.33 Q705.897 1459.58 708.952 1455 Q712.031 1450.39 717.841 1450.39 Z" fill="#000000" fill-rule="nonzero" fill-opacity="1" /><path clip-path="url(#clip670)" d="M1058.25 1481.64 L1065.89 1481.64 L1065.89 1455.28 L1057.58 1456.95 L1057.58 1452.69 L1065.84 1451.02 L1070.52 1451.02 L1070.52 1481.64 L1078.16 1481.64 L1078.16 1485.58 L1058.25 1485.58 L1058.25 1481.64 Z" fill="#000000" fill-rule="nonzero" fill-opacity="1" /><path clip-path="url(#clip670)" d="M1097.6 1454.1 Q1093.99 1454.1 1092.16 1457.66 Q1090.36 1461.2 1090.36 1468.33 Q1090.36 1475.44 1092.16 1479.01 Q1093.99 1482.55 1097.6 1482.55 Q1101.24 1482.55 1103.04 1479.01 Q1104.87 1475.44 1104.87 1468.33 Q1104.87 1461.2 1103.04 1457.66 Q1101.24 1454.1 1097.6 1454.1 M1097.6 1450.39 Q1103.41 1450.39 1106.47 1455 Q1109.55 1459.58 1109.55 1468.33 Q1109.55 1477.06 1106.47 1481.67 Q1103.41 1486.25 1097.6 1486.25 Q1091.79 1486.25 1088.71 1481.67 Q1085.66 1477.06 1085.66 1468.33 Q1085.66 1459.58 1088.71 1455 Q1091.79 1450.39 1097.6 1450.39 Z" fill="#000000" fill-rule="nonzero" fill-opacity="1" /><path clip-path="url(#clip670)" d="M1127.77 1454.1 Q1124.15 1454.1 1122.33 1457.66 Q1120.52 1461.2 1120.52 1468.33 Q1120.52 1475.44 1122.33 1479.01 Q1124.15 1482.55 1127.77 1482.55 Q1131.4 1482.55 1133.2 1479.01 Q1135.03 1475.44 1135.03 1468.33 Q1135.03 1461.2 1133.2 1457.66 Q1131.4 1454.1 1127.77 1454.1 M1127.77 1450.39 Q1133.58 1450.39 1136.63 1455 Q1139.71 1459.58 1139.71 1468.33 Q1139.71 1477.06 1136.63 1481.67 Q1133.58 1486.25 1127.77 1486.25 Q1121.95 1486.25 1118.88 1481.67 Q1115.82 1477.06 1115.82 1468.33 Q1115.82 1459.58 1118.88 1455 Q1121.95 1450.39 1127.77 1450.39 Z" fill="#000000" fill-rule="nonzero" fill-opacity="1" /><path clip-path="url(#clip670)" d="M1453.87 1481.64 L1461.51 1481.64 L1461.51 1455.28 L1453.2 1456.95 L1453.2 1452.69 L1461.46 1451.02 L1466.14 1451.02 L1466.14 1481.64 L1473.78 1481.64 L1473.78 1485.58 L1453.87 1485.58 L1453.87 1481.64 Z" fill="#000000" fill-rule="nonzero" fill-opacity="1" /><path clip-path="url(#clip670)" d="M1483.27 1451.02 L1501.62 1451.02 L1501.62 1454.96 L1487.55 1454.96 L1487.55 1463.43 Q1488.57 1463.08 1489.59 1462.92 Q1490.61 1462.73 1491.62 1462.73 Q1497.41 1462.73 1500.79 1465.9 Q1504.17 1469.08 1504.17 1474.49 Q1504.17 1480.07 1500.7 1483.17 Q1497.23 1486.25 1490.91 1486.25 Q1488.73 1486.25 1486.46 1485.88 Q1484.22 1485.51 1481.81 1484.77 L1481.81 1480.07 Q1483.89 1481.2 1486.12 1481.76 Q1488.34 1482.32 1490.81 1482.32 Q1494.82 1482.32 1497.16 1480.21 Q1499.49 1478.1 1499.49 1474.49 Q1499.49 1470.88 1497.16 1468.77 Q1494.82 1466.67 1490.81 1466.67 Q1488.94 1466.67 1487.06 1467.08 Q1485.21 1467.5 1483.27 1468.38 L1483.27 1451.02 Z" fill="#000000" fill-rule="nonzero" fill-opacity="1" /><path clip-path="url(#clip670)" d="M1523.38 1454.1 Q1519.77 1454.1 1517.94 1457.66 Q1516.14 1461.2 1516.14 1468.33 Q1516.14 1475.44 1517.94 1479.01 Q1519.77 1482.55 1523.38 1482.55 Q1527.02 1482.55 1528.82 1479.01 Q1530.65 1475.44 1530.65 1468.33 Q1530.65 1461.2 1528.82 1457.66 Q1527.02 1454.1 1523.38 1454.1 M1523.38 1450.39 Q1529.19 1450.39 1532.25 1455 Q1535.33 1459.58 1535.33 1468.33 Q1535.33 1477.06 1532.25 1481.67 Q1529.19 1486.25 1523.38 1486.25 Q1517.57 1486.25 1514.49 1481.67 Q1511.44 1477.06 1511.44 1468.33 Q1511.44 1459.58 1514.49 1455 Q1517.57 1450.39 1523.38 1450.39 Z" fill="#000000" fill-rule="nonzero" fill-opacity="1" /><path clip-path="url(#clip670)" d="M1853.57 1481.64 L1869.89 1481.64 L1869.89 1485.58 L1847.95 1485.58 L1847.95 1481.64 Q1850.61 1478.89 1855.19 1474.26 Q1859.8 1469.61 1860.98 1468.27 Q1863.23 1465.74 1864.11 1464.01 Q1865.01 1462.25 1865.01 1460.56 Q1865.01 1457.8 1863.07 1456.07 Q1861.14 1454.33 1858.04 1454.33 Q1855.84 1454.33 1853.39 1455.09 Q1850.96 1455.86 1848.18 1457.41 L1848.18 1452.69 Q1851.01 1451.55 1853.46 1450.97 Q1855.91 1450.39 1857.95 1450.39 Q1863.32 1450.39 1866.51 1453.08 Q1869.71 1455.77 1869.71 1460.26 Q1869.71 1462.39 1868.9 1464.31 Q1868.11 1466.2 1866 1468.8 Q1865.43 1469.47 1862.32 1472.69 Q1859.22 1475.88 1853.57 1481.64 Z" fill="#000000" fill-rule="nonzero" fill-opacity="1" /><path clip-path="url(#clip670)" d="M1889.71 1454.1 Q1886.1 1454.1 1884.27 1457.66 Q1882.46 1461.2 1882.46 1468.33 Q1882.46 1475.44 1884.27 1479.01 Q1886.1 1482.55 1889.71 1482.55 Q1893.34 1482.55 1895.15 1479.01 Q1896.98 1475.44 1896.98 1468.33 Q1896.98 1461.2 1895.15 1457.66 Q1893.34 1454.1 1889.71 1454.1 M1889.71 1450.39 Q1895.52 1450.39 1898.57 1455 Q1901.65 1459.58 1901.65 1468.33 Q1901.65 1477.06 1898.57 1481.67 Q1895.52 1486.25 1889.71 1486.25 Q1883.9 1486.25 1880.82 1481.67 Q1877.76 1477.06 1877.76 1468.33 Q1877.76 1459.58 1880.82 1455 Q1883.9 1450.39 1889.71 1450.39 Z" fill="#000000" fill-rule="nonzero" fill-opacity="1" /><path clip-path="url(#clip670)" d="M1919.87 1454.1 Q1916.26 1454.1 1914.43 1457.66 Q1912.63 1461.2 1912.63 1468.33 Q1912.63 1475.44 1914.43 1479.01 Q1916.26 1482.55 1919.87 1482.55 Q1923.5 1482.55 1925.31 1479.01 Q1927.14 1475.44 1927.14 1468.33 Q1927.14 1461.2 1925.31 1457.66 Q1923.5 1454.1 1919.87 1454.1 M1919.87 1450.39 Q1925.68 1450.39 1928.74 1455 Q1931.81 1459.58 1931.81 1468.33 Q1931.81 1477.06 1928.74 1481.67 Q1925.68 1486.25 1919.87 1486.25 Q1914.06 1486.25 1910.98 1481.67 Q1907.93 1477.06 1907.93 1468.33 Q1907.93 1459.58 1910.98 1455 Q1914.06 1450.39 1919.87 1450.39 Z" fill="#000000" fill-rule="nonzero" fill-opacity="1" /><path clip-path="url(#clip670)" d="M2249.19 1481.64 L2265.51 1481.64 L2265.51 1485.58 L2243.57 1485.58 L2243.57 1481.64 Q2246.23 1478.89 2250.81 1474.26 Q2255.42 1469.61 2256.6 1468.27 Q2258.85 1465.74 2259.73 1464.01 Q2260.63 1462.25 2260.63 1460.56 Q2260.63 1457.8 2258.68 1456.07 Q2256.76 1454.33 2253.66 1454.33 Q2251.46 1454.33 2249.01 1455.09 Q2246.58 1455.86 2243.8 1457.41 L2243.8 1452.69 Q2246.62 1451.55 2249.08 1450.97 Q2251.53 1450.39 2253.57 1450.39 Q2258.94 1450.39 2262.13 1453.08 Q2265.33 1455.77 2265.33 1460.26 Q2265.33 1462.39 2264.52 1464.31 Q2263.73 1466.2 2261.62 1468.8 Q2261.04 1469.47 2257.94 1472.69 Q2254.84 1475.88 2249.19 1481.64 Z" fill="#000000" fill-rule="nonzero" fill-opacity="1" /><path clip-path="url(#clip670)" d="M2275.37 1451.02 L2293.73 1451.02 L2293.73 1454.96 L2279.66 1454.96 L2279.66 1463.43 Q2280.67 1463.08 2281.69 1462.92 Q2282.71 1462.73 2283.73 1462.73 Q2289.52 1462.73 2292.9 1465.9 Q2296.28 1469.08 2296.28 1474.49 Q2296.28 1480.07 2292.8 1483.17 Q2289.33 1486.25 2283.01 1486.25 Q2280.84 1486.25 2278.57 1485.88 Q2276.32 1485.51 2273.92 1484.77 L2273.92 1480.07 Q2276 1481.2 2278.22 1481.76 Q2280.44 1482.32 2282.92 1482.32 Q2286.92 1482.32 2289.26 1480.21 Q2291.6 1478.1 2291.6 1474.49 Q2291.6 1470.88 2289.26 1468.77 Q2286.92 1466.67 2282.92 1466.67 Q2281.04 1466.67 2279.17 1467.08 Q2277.32 1467.5 2275.37 1468.38 L2275.37 1451.02 Z" fill="#000000" fill-rule="nonzero" fill-opacity="1" /><path clip-path="url(#clip670)" d="M2315.49 1454.1 Q2311.88 1454.1 2310.05 1457.66 Q2308.24 1461.2 2308.24 1468.33 Q2308.24 1475.44 2310.05 1479.01 Q2311.88 1482.55 2315.49 1482.55 Q2319.12 1482.55 2320.93 1479.01 Q2322.76 1475.44 2322.76 1468.33 Q2322.76 1461.2 2320.93 1457.66 Q2319.12 1454.1 2315.49 1454.1 M2315.49 1450.39 Q2321.3 1450.39 2324.35 1455 Q2327.43 1459.58 2327.43 1468.33 Q2327.43 1477.06 2324.35 1481.67 Q2321.3 1486.25 2315.49 1486.25 Q2309.68 1486.25 2306.6 1481.67 Q2303.54 1477.06 2303.54 1468.33 Q2303.54 1459.58 2306.6 1455 Q2309.68 1450.39 2315.49 1450.39 Z" fill="#000000" fill-rule="nonzero" fill-opacity="1" /><path clip-path="url(#clip670)" d="M1028.21 1520.52 L1034.64 1520.52 L1034.64 1562.63 L1057.77 1562.63 L1057.77 1568.04 L1028.21 1568.04 L1028.21 1520.52 Z" fill="#000000" fill-rule="nonzero" fill-opacity="1" /><path clip-path="url(#clip670)" d="M1080.47 1550.12 Q1073.37 1550.12 1070.63 1551.75 Q1067.9 1553.37 1067.9 1557.29 Q1067.9 1560.4 1069.93 1562.25 Q1072 1564.07 1075.54 1564.07 Q1080.41 1564.07 1083.33 1560.63 Q1086.29 1557.16 1086.29 1551.43 L1086.29 1550.12 L1080.47 1550.12 M1092.15 1547.71 L1092.15 1568.04 L1086.29 1568.04 L1086.29 1562.63 Q1084.29 1565.88 1081.3 1567.44 Q1078.3 1568.97 1073.98 1568.97 Q1068.5 1568.97 1065.25 1565.91 Q1062.04 1562.82 1062.04 1557.67 Q1062.04 1551.65 1066.05 1548.6 Q1070.09 1545.54 1078.08 1545.54 L1086.29 1545.54 L1086.29 1544.97 Q1086.29 1540.93 1083.62 1538.73 Q1080.98 1536.5 1076.17 1536.5 Q1073.12 1536.5 1070.22 1537.23 Q1067.32 1537.97 1064.65 1539.43 L1064.65 1534.02 Q1067.86 1532.78 1070.89 1532.17 Q1073.91 1531.54 1076.78 1531.54 Q1084.51 1531.54 1088.33 1535.55 Q1092.15 1539.56 1092.15 1547.71 Z" fill="#000000" fill-rule="nonzero" fill-opacity="1" /><path clip-path="url(#clip670)" d="M1127.67 1549.81 Q1127.67 1543.44 1125.03 1539.94 Q1122.42 1536.44 1117.68 1536.44 Q1112.97 1536.44 1110.32 1539.94 Q1107.71 1543.44 1107.71 1549.81 Q1107.71 1556.14 1110.32 1559.64 Q1112.97 1563.14 1117.68 1563.14 Q1122.42 1563.14 1125.03 1559.64 Q1127.67 1556.14 1127.67 1549.81 M1133.53 1563.62 Q1133.53 1572.72 1129.48 1577.15 Q1125.44 1581.6 1117.1 1581.6 Q1114.02 1581.6 1111.28 1581.13 Q1108.54 1580.68 1105.96 1579.72 L1105.96 1574.03 Q1108.54 1575.43 1111.06 1576.1 Q1113.57 1576.76 1116.18 1576.76 Q1121.94 1576.76 1124.81 1573.74 Q1127.67 1570.75 1127.67 1564.67 L1127.67 1561.77 Q1125.86 1564.92 1123.02 1566.48 Q1120.19 1568.04 1116.24 1568.04 Q1109.69 1568.04 1105.68 1563.05 Q1101.67 1558.05 1101.67 1549.81 Q1101.67 1541.53 1105.68 1536.53 Q1109.69 1531.54 1116.24 1531.54 Q1120.19 1531.54 1123.02 1533.1 Q1125.86 1534.66 1127.67 1537.81 L1127.67 1532.4 L1133.53 1532.4 L1133.53 1563.62 Z" fill="#000000" fill-rule="nonzero" fill-opacity="1" /><path clip-path="url(#clip670)" d="M1180.38 1518.58 Q1176.11 1525.9 1174.04 1533.06 Q1171.98 1540.23 1171.98 1547.58 Q1171.98 1554.93 1174.04 1562.16 Q1176.15 1569.35 1180.38 1576.64 L1175.29 1576.64 Q1170.51 1569.16 1168.12 1561.93 Q1165.77 1554.71 1165.77 1547.58 Q1165.77 1540.48 1168.12 1533.29 Q1170.48 1526.09 1175.29 1518.58 L1180.38 1518.58 Z" fill="#000000" fill-rule="nonzero" fill-opacity="1" /><path clip-path="url(#clip670)" d="M1197.53 1522.27 L1197.53 1532.4 L1209.6 1532.4 L1209.6 1536.95 L1197.53 1536.95 L1197.53 1556.3 Q1197.53 1560.66 1198.71 1561.9 Q1199.92 1563.14 1203.58 1563.14 L1209.6 1563.14 L1209.6 1568.04 L1203.58 1568.04 Q1196.8 1568.04 1194.22 1565.53 Q1191.65 1562.98 1191.65 1556.3 L1191.65 1536.95 L1187.35 1536.95 L1187.35 1532.4 L1191.65 1532.4 L1191.65 1522.27 L1197.53 1522.27 Z" fill="#000000" fill-rule="nonzero" fill-opacity="1" /><path clip-path="url(#clip670)" d="M1237.96 1537.87 Q1236.97 1537.3 1235.79 1537.04 Q1234.65 1536.76 1233.25 1536.76 Q1228.28 1536.76 1225.61 1540 Q1222.97 1543.22 1222.97 1549.27 L1222.97 1568.04 L1217.08 1568.04 L1217.08 1532.4 L1222.97 1532.4 L1222.97 1537.93 Q1224.81 1534.69 1227.77 1533.13 Q1230.73 1531.54 1234.96 1531.54 Q1235.57 1531.54 1236.3 1531.63 Q1237.03 1531.7 1237.92 1531.85 L1237.96 1537.87 Z" fill="#000000" fill-rule="nonzero" fill-opacity="1" /><path clip-path="url(#clip670)" d="M1260.3 1550.12 Q1253.2 1550.12 1250.46 1551.75 Q1247.73 1553.37 1247.73 1557.29 Q1247.73 1560.4 1249.76 1562.25 Q1251.83 1564.07 1255.37 1564.07 Q1260.24 1564.07 1263.16 1560.63 Q1266.12 1557.16 1266.12 1551.43 L1266.12 1550.12 L1260.3 1550.12 M1271.98 1547.71 L1271.98 1568.04 L1266.12 1568.04 L1266.12 1562.63 Q1264.12 1565.88 1261.13 1567.44 Q1258.14 1568.97 1253.81 1568.97 Q1248.33 1568.97 1245.09 1565.91 Q1241.87 1562.82 1241.87 1557.67 Q1241.87 1551.65 1245.88 1548.6 Q1249.92 1545.54 1257.91 1545.54 L1266.12 1545.54 L1266.12 1544.97 Q1266.12 1540.93 1263.45 1538.73 Q1260.81 1536.5 1256 1536.5 Q1252.95 1536.5 1250.05 1537.23 Q1247.15 1537.97 1244.48 1539.43 L1244.48 1534.02 Q1247.7 1532.78 1250.72 1532.17 Q1253.74 1531.54 1256.61 1531.54 Q1264.34 1531.54 1268.16 1535.55 Q1271.98 1539.56 1271.98 1547.71 Z" fill="#000000" fill-rule="nonzero" fill-opacity="1" /><path clip-path="url(#clip670)" d="M1307.5 1537.81 L1307.5 1518.52 L1313.36 1518.52 L1313.36 1568.04 L1307.5 1568.04 L1307.5 1562.7 Q1305.66 1565.88 1302.82 1567.44 Q1300.02 1568.97 1296.08 1568.97 Q1289.61 1568.97 1285.54 1563.81 Q1281.5 1558.65 1281.5 1550.25 Q1281.5 1541.85 1285.54 1536.69 Q1289.61 1531.54 1296.08 1531.54 Q1300.02 1531.54 1302.82 1533.1 Q1305.66 1534.62 1307.5 1537.81 M1287.55 1550.25 Q1287.55 1556.71 1290.19 1560.4 Q1292.86 1564.07 1297.51 1564.07 Q1302.15 1564.07 1304.83 1560.4 Q1307.5 1556.71 1307.5 1550.25 Q1307.5 1543.79 1304.83 1540.13 Q1302.15 1536.44 1297.51 1536.44 Q1292.86 1536.44 1290.19 1540.13 Q1287.55 1543.79 1287.55 1550.25 Z" fill="#000000" fill-rule="nonzero" fill-opacity="1" /><path clip-path="url(#clip670)" d="M1325.42 1532.4 L1331.28 1532.4 L1331.28 1568.04 L1325.42 1568.04 L1325.42 1532.4 M1325.42 1518.52 L1331.28 1518.52 L1331.28 1525.93 L1325.42 1525.93 L1325.42 1518.52 Z" fill="#000000" fill-rule="nonzero" fill-opacity="1" /><path clip-path="url(#clip670)" d="M1373.16 1546.53 L1373.16 1568.04 L1367.31 1568.04 L1367.31 1546.72 Q1367.31 1541.66 1365.33 1539.14 Q1363.36 1536.63 1359.41 1536.63 Q1354.67 1536.63 1351.93 1539.65 Q1349.2 1542.68 1349.2 1547.9 L1349.2 1568.04 L1343.31 1568.04 L1343.31 1532.4 L1349.2 1532.4 L1349.2 1537.93 Q1351.3 1534.72 1354.13 1533.13 Q1357 1531.54 1360.72 1531.54 Q1366.86 1531.54 1370.01 1535.36 Q1373.16 1539.14 1373.16 1546.53 Z" fill="#000000" fill-rule="nonzero" fill-opacity="1" /><path clip-path="url(#clip670)" d="M1408.3 1549.81 Q1408.3 1543.44 1405.66 1539.94 Q1403.05 1536.44 1398.31 1536.44 Q1393.6 1536.44 1390.96 1539.94 Q1388.35 1543.44 1388.35 1549.81 Q1388.35 1556.14 1390.96 1559.64 Q1393.6 1563.14 1398.31 1563.14 Q1403.05 1563.14 1405.66 1559.64 Q1408.3 1556.14 1408.3 1549.81 M1414.16 1563.62 Q1414.16 1572.72 1410.12 1577.15 Q1406.07 1581.6 1397.74 1581.6 Q1394.65 1581.6 1391.91 1581.13 Q1389.17 1580.68 1386.6 1579.72 L1386.6 1574.03 Q1389.17 1575.43 1391.69 1576.1 Q1394.2 1576.76 1396.81 1576.76 Q1402.57 1576.76 1405.44 1573.74 Q1408.3 1570.75 1408.3 1564.67 L1408.3 1561.77 Q1406.49 1564.92 1403.66 1566.48 Q1400.82 1568.04 1396.88 1568.04 Q1390.32 1568.04 1386.31 1563.05 Q1382.3 1558.05 1382.3 1549.81 Q1382.3 1541.53 1386.31 1536.53 Q1390.32 1531.54 1396.88 1531.54 Q1400.82 1531.54 1403.66 1533.1 Q1406.49 1534.66 1408.3 1537.81 L1408.3 1532.4 L1414.16 1532.4 L1414.16 1563.62 Z" fill="#000000" fill-rule="nonzero" fill-opacity="1" /><path clip-path="url(#clip670)" d="M1470.4 1537.81 L1470.4 1518.52 L1476.26 1518.52 L1476.26 1568.04 L1470.4 1568.04 L1470.4 1562.7 Q1468.55 1565.88 1465.72 1567.44 Q1462.92 1568.97 1458.97 1568.97 Q1452.51 1568.97 1448.44 1563.81 Q1444.4 1558.65 1444.4 1550.25 Q1444.4 1541.85 1448.44 1536.69 Q1452.51 1531.54 1458.97 1531.54 Q1462.92 1531.54 1465.72 1533.1 Q1468.55 1534.62 1470.4 1537.81 M1450.44 1550.25 Q1450.44 1556.71 1453.09 1560.4 Q1455.76 1564.07 1460.41 1564.07 Q1465.05 1564.07 1467.73 1560.4 Q1470.4 1556.71 1470.4 1550.25 Q1470.4 1543.79 1467.73 1540.13 Q1465.05 1536.44 1460.41 1536.44 Q1455.76 1536.44 1453.09 1540.13 Q1450.44 1543.79 1450.44 1550.25 Z" fill="#000000" fill-rule="nonzero" fill-opacity="1" /><path clip-path="url(#clip670)" d="M1504.52 1550.12 Q1497.42 1550.12 1494.69 1551.75 Q1491.95 1553.37 1491.95 1557.29 Q1491.95 1560.4 1493.99 1562.25 Q1496.05 1564.07 1499.59 1564.07 Q1504.46 1564.07 1507.38 1560.63 Q1510.34 1557.16 1510.34 1551.43 L1510.34 1550.12 L1504.52 1550.12 M1516.2 1547.71 L1516.2 1568.04 L1510.34 1568.04 L1510.34 1562.63 Q1508.34 1565.88 1505.35 1567.44 Q1502.36 1568.97 1498.03 1568.97 Q1492.55 1568.97 1489.31 1565.91 Q1486.09 1562.82 1486.09 1557.67 Q1486.09 1551.65 1490.1 1548.6 Q1494.14 1545.54 1502.13 1545.54 L1510.34 1545.54 L1510.34 1544.97 Q1510.34 1540.93 1507.67 1538.73 Q1505.03 1536.5 1500.22 1536.5 Q1497.17 1536.5 1494.27 1537.23 Q1491.38 1537.97 1488.7 1539.43 L1488.7 1534.02 Q1491.92 1532.78 1494.94 1532.17 Q1497.96 1531.54 1500.83 1531.54 Q1508.56 1531.54 1512.38 1535.55 Q1516.2 1539.56 1516.2 1547.71 Z" fill="#000000" fill-rule="nonzero" fill-opacity="1" /><path clip-path="url(#clip670)" d="M1543.1 1571.35 Q1540.61 1577.72 1538.26 1579.66 Q1535.9 1581.6 1531.96 1581.6 L1527.28 1581.6 L1527.28 1576.7 L1530.72 1576.7 Q1533.13 1576.7 1534.47 1575.56 Q1535.81 1574.41 1537.43 1570.14 L1538.48 1567.47 L1524.06 1532.4 L1530.27 1532.4 L1541.41 1560.28 L1552.55 1532.4 L1558.76 1532.4 L1543.1 1571.35 Z" fill="#000000" fill-rule="nonzero" fill-opacity="1" /><path clip-path="url(#clip670)" d="M1565.92 1518.58 L1571.01 1518.58 Q1575.78 1526.09 1578.14 1533.29 Q1580.53 1540.48 1580.53 1547.58 Q1580.53 1554.71 1578.14 1561.93 Q1575.78 1569.16 1571.01 1576.64 L1565.92 1576.64 Q1570.15 1569.35 1572.22 1562.16 Q1574.32 1554.93 1574.32 1547.58 Q1574.32 1540.23 1572.22 1533.06 Q1570.15 1525.9 1565.92 1518.58 Z" fill="#000000" fill-rule="nonzero" fill-opacity="1" /><polyline clip-path="url(#clip670)" style="stroke:#000000; stroke-linecap:round; stroke-linejoin:round; stroke-width:4; stroke-opacity:1; fill:none" points="255.977,1423.18 255.977,47.2441 "/>
<polyline clip-path="url(#clip670)" style="stroke:#000000; stroke-linecap:round; stroke-linejoin:round; stroke-width:4; stroke-opacity:1; fill:none" points="2352.76,1423.18 2352.76,47.2441 "/>
<polyline clip-path="url(#clip670)" style="stroke:#000000; stroke-linecap:round; stroke-linejoin:round; stroke-width:4; stroke-opacity:1; fill:none" points="255.977,1316.1 274.875,1316.1 "/>
<polyline clip-path="url(#clip670)" style="stroke:#000000; stroke-linecap:round; stroke-linejoin:round; stroke-width:4; stroke-opacity:1; fill:none" points="255.977,1025.74 274.875,1025.74 "/>
<polyline clip-path="url(#clip670)" style="stroke:#000000; stroke-linecap:round; stroke-linejoin:round; stroke-width:4; stroke-opacity:1; fill:none" points="255.977,735.38 274.875,735.38 "/>
<polyline clip-path="url(#clip670)" style="stroke:#000000; stroke-linecap:round; stroke-linejoin:round; stroke-width:4; stroke-opacity:1; fill:none" points="255.977,445.022 274.875,445.022 "/>
<polyline clip-path="url(#clip670)" style="stroke:#000000; stroke-linecap:round; stroke-linejoin:round; stroke-width:4; stroke-opacity:1; fill:none" points="255.977,154.664 274.875,154.664 "/>
<polyline clip-path="url(#clip670)" style="stroke:#000000; stroke-linecap:round; stroke-linejoin:round; stroke-width:4; stroke-opacity:1; fill:none" points="2352.76,1316.1 2333.86,1316.1 "/>
<polyline clip-path="url(#clip670)" style="stroke:#000000; stroke-linecap:round; stroke-linejoin:round; stroke-width:4; stroke-opacity:1; fill:none" points="2352.76,1025.74 2333.86,1025.74 "/>
<polyline clip-path="url(#clip670)" style="stroke:#000000; stroke-linecap:round; stroke-linejoin:round; stroke-width:4; stroke-opacity:1; fill:none" points="2352.76,735.38 2333.86,735.38 "/>
<polyline clip-path="url(#clip670)" style="stroke:#000000; stroke-linecap:round; stroke-linejoin:round; stroke-width:4; stroke-opacity:1; fill:none" points="2352.76,445.022 2333.86,445.022 "/>
<polyline clip-path="url(#clip670)" style="stroke:#000000; stroke-linecap:round; stroke-linejoin:round; stroke-width:4; stroke-opacity:1; fill:none" points="2352.76,154.664 2333.86,154.664 "/>
<path clip-path="url(#clip670)" d="M114.26 1316.55 L143.936 1316.55 L143.936 1320.48 L114.26 1320.48 L114.26 1316.55 Z" fill="#000000" fill-rule="nonzero" fill-opacity="1" /><path clip-path="url(#clip670)" d="M164.028 1301.89 Q160.417 1301.89 158.589 1305.46 Q156.783 1309 156.783 1316.13 Q156.783 1323.24 158.589 1326.8 Q160.417 1330.34 164.028 1330.34 Q167.663 1330.34 169.468 1326.8 Q171.297 1323.24 171.297 1316.13 Q171.297 1309 169.468 1305.46 Q167.663 1301.89 164.028 1301.89 M164.028 1298.19 Q169.839 1298.19 172.894 1302.8 Q175.973 1307.38 175.973 1316.13 Q175.973 1324.86 172.894 1329.46 Q169.839 1334.05 164.028 1334.05 Q158.218 1334.05 155.14 1329.46 Q152.084 1324.86 152.084 1316.13 Q152.084 1307.38 155.14 1302.8 Q158.218 1298.19 164.028 1298.19 Z" fill="#000000" fill-rule="nonzero" fill-opacity="1" /><path clip-path="url(#clip670)" d="M184.19 1327.5 L189.075 1327.5 L189.075 1333.38 L184.19 1333.38 L184.19 1327.5 Z" fill="#000000" fill-rule="nonzero" fill-opacity="1" /><path clip-path="url(#clip670)" d="M200.07 1329.44 L207.709 1329.44 L207.709 1303.08 L199.399 1304.74 L199.399 1300.48 L207.662 1298.82 L212.338 1298.82 L212.338 1329.44 L219.977 1329.44 L219.977 1333.38 L200.07 1333.38 L200.07 1329.44 Z" fill="#000000" fill-rule="nonzero" fill-opacity="1" /><path clip-path="url(#clip670)" d="M162.802 1011.54 Q159.19 1011.54 157.362 1015.1 Q155.556 1018.64 155.556 1025.77 Q155.556 1032.88 157.362 1036.44 Q159.19 1039.99 162.802 1039.99 Q166.436 1039.99 168.241 1036.44 Q170.07 1032.88 170.07 1025.77 Q170.07 1018.64 168.241 1015.1 Q166.436 1011.54 162.802 1011.54 M162.802 1007.83 Q168.612 1007.83 171.667 1012.44 Q174.746 1017.02 174.746 1025.77 Q174.746 1034.5 171.667 1039.11 Q168.612 1043.69 162.802 1043.69 Q156.991 1043.69 153.913 1039.11 Q150.857 1034.5 150.857 1025.77 Q150.857 1017.02 153.913 1012.44 Q156.991 1007.83 162.802 1007.83 Z" fill="#000000" fill-rule="nonzero" fill-opacity="1" /><path clip-path="url(#clip670)" d="M182.963 1037.14 L187.848 1037.14 L187.848 1043.02 L182.963 1043.02 L182.963 1037.14 Z" fill="#000000" fill-rule="nonzero" fill-opacity="1" /><path clip-path="url(#clip670)" d="M208.033 1011.54 Q204.422 1011.54 202.593 1015.1 Q200.787 1018.64 200.787 1025.77 Q200.787 1032.88 202.593 1036.44 Q204.422 1039.99 208.033 1039.99 Q211.667 1039.99 213.473 1036.44 Q215.301 1032.88 215.301 1025.77 Q215.301 1018.64 213.473 1015.1 Q211.667 1011.54 208.033 1011.54 M208.033 1007.83 Q213.843 1007.83 216.898 1012.44 Q219.977 1017.02 219.977 1025.77 Q219.977 1034.5 216.898 1039.11 Q213.843 1043.69 208.033 1043.69 Q202.223 1043.69 199.144 1039.11 Q196.088 1034.5 196.088 1025.77 Q196.088 1017.02 199.144 1012.44 Q202.223 1007.83 208.033 1007.83 Z" fill="#000000" fill-rule="nonzero" fill-opacity="1" /><path clip-path="url(#clip670)" d="M164.028 721.179 Q160.417 721.179 158.589 724.743 Q156.783 728.285 156.783 735.415 Q156.783 742.521 158.589 746.086 Q160.417 749.627 164.028 749.627 Q167.663 749.627 169.468 746.086 Q171.297 742.521 171.297 735.415 Q171.297 728.285 169.468 724.743 Q167.663 721.179 164.028 721.179 M164.028 717.475 Q169.839 717.475 172.894 722.081 Q175.973 726.665 175.973 735.415 Q175.973 744.141 172.894 748.748 Q169.839 753.331 164.028 753.331 Q158.218 753.331 155.14 748.748 Q152.084 744.141 152.084 735.415 Q152.084 726.665 155.14 722.081 Q158.218 717.475 164.028 717.475 Z" fill="#000000" fill-rule="nonzero" fill-opacity="1" /><path clip-path="url(#clip670)" d="M184.19 746.78 L189.075 746.78 L189.075 752.66 L184.19 752.66 L184.19 746.78 Z" fill="#000000" fill-rule="nonzero" fill-opacity="1" /><path clip-path="url(#clip670)" d="M200.07 748.725 L207.709 748.725 L207.709 722.359 L199.399 724.026 L199.399 719.767 L207.662 718.1 L212.338 718.1 L212.338 748.725 L219.977 748.725 L219.977 752.66 L200.07 752.66 L200.07 748.725 Z" fill="#000000" fill-rule="nonzero" fill-opacity="1" /><path clip-path="url(#clip670)" d="M164.399 430.821 Q160.788 430.821 158.959 434.385 Q157.153 437.927 157.153 445.057 Q157.153 452.163 158.959 455.728 Q160.788 459.269 164.399 459.269 Q168.033 459.269 169.839 455.728 Q171.667 452.163 171.667 445.057 Q171.667 437.927 169.839 434.385 Q168.033 430.821 164.399 430.821 M164.399 427.117 Q170.209 427.117 173.264 431.723 Q176.343 436.307 176.343 445.057 Q176.343 453.783 173.264 458.39 Q170.209 462.973 164.399 462.973 Q158.589 462.973 155.51 458.39 Q152.454 453.783 152.454 445.057 Q152.454 436.307 155.51 431.723 Q158.589 427.117 164.399 427.117 Z" fill="#000000" fill-rule="nonzero" fill-opacity="1" /><path clip-path="url(#clip670)" d="M184.561 456.422 L189.445 456.422 L189.445 462.302 L184.561 462.302 L184.561 456.422 Z" fill="#000000" fill-rule="nonzero" fill-opacity="1" /><path clip-path="url(#clip670)" d="M203.658 458.367 L219.977 458.367 L219.977 462.302 L198.033 462.302 L198.033 458.367 Q200.695 455.612 205.278 450.982 Q209.885 446.33 211.065 444.987 Q213.311 442.464 214.19 440.728 Q215.093 438.969 215.093 437.279 Q215.093 434.524 213.149 432.788 Q211.227 431.052 208.125 431.052 Q205.926 431.052 203.473 431.816 Q201.042 432.58 198.264 434.131 L198.264 429.409 Q201.088 428.274 203.542 427.696 Q205.996 427.117 208.033 427.117 Q213.403 427.117 216.598 429.802 Q219.792 432.487 219.792 436.978 Q219.792 439.108 218.982 441.029 Q218.195 442.927 216.088 445.52 Q215.51 446.191 212.408 449.408 Q209.306 452.603 203.658 458.367 Z" fill="#000000" fill-rule="nonzero" fill-opacity="1" /><path clip-path="url(#clip670)" d="M163.45 140.463 Q159.839 140.463 158.01 144.027 Q156.204 147.569 156.204 154.699 Q156.204 161.805 158.01 165.37 Q159.839 168.911 163.45 168.911 Q167.084 168.911 168.889 165.37 Q170.718 161.805 170.718 154.699 Q170.718 147.569 168.889 144.027 Q167.084 140.463 163.45 140.463 M163.45 136.759 Q169.26 136.759 172.315 141.365 Q175.394 145.949 175.394 154.699 Q175.394 163.425 172.315 168.032 Q169.26 172.615 163.45 172.615 Q157.64 172.615 154.561 168.032 Q151.505 163.425 151.505 154.699 Q151.505 145.949 154.561 141.365 Q157.64 136.759 163.45 136.759 Z" fill="#000000" fill-rule="nonzero" fill-opacity="1" /><path clip-path="url(#clip670)" d="M183.612 166.064 L188.496 166.064 L188.496 171.944 L183.612 171.944 L183.612 166.064 Z" fill="#000000" fill-rule="nonzero" fill-opacity="1" /><path clip-path="url(#clip670)" d="M212.848 153.31 Q216.204 154.027 218.079 156.296 Q219.977 158.564 219.977 161.898 Q219.977 167.013 216.459 169.814 Q212.94 172.615 206.459 172.615 Q204.283 172.615 201.968 172.175 Q199.676 171.759 197.223 170.902 L197.223 166.388 Q199.167 167.523 201.482 168.101 Q203.797 168.68 206.32 168.68 Q210.718 168.68 213.01 166.944 Q215.324 165.208 215.324 161.898 Q215.324 158.842 213.172 157.129 Q211.042 155.393 207.223 155.393 L203.195 155.393 L203.195 151.55 L207.408 151.55 Q210.857 151.55 212.686 150.185 Q214.514 148.796 214.514 146.203 Q214.514 143.541 212.616 142.129 Q210.741 140.694 207.223 140.694 Q205.301 140.694 203.102 141.111 Q200.903 141.527 198.264 142.407 L198.264 138.24 Q200.926 137.5 203.241 137.129 Q205.579 136.759 207.639 136.759 Q212.963 136.759 216.065 139.189 Q219.167 141.597 219.167 145.717 Q219.167 148.588 217.523 150.578 Q215.88 152.546 212.848 153.31 Z" fill="#000000" fill-rule="nonzero" fill-opacity="1" /><path clip-path="url(#clip670)" d="M22.818 960.972 L46.4666 969.693 L46.4666 952.219 L22.818 960.972 M16.4842 964.6 L16.4842 957.311 L64.0042 939.201 L64.0042 945.885 L51.8138 950.214 L51.8138 971.634 L64.0042 975.963 L64.0042 982.742 L16.4842 964.6 Z" fill="#000000" fill-rule="nonzero" fill-opacity="1" /><path clip-path="url(#clip670)" d="M49.9359 933.122 L28.3562 933.122 L28.3562 927.265 L49.7131 927.265 Q54.7739 927.265 57.3202 925.292 Q59.8346 923.319 59.8346 919.372 Q59.8346 914.629 56.8109 911.892 Q53.7872 909.123 48.5673 909.123 L28.3562 909.123 L28.3562 903.267 L64.0042 903.267 L64.0042 909.123 L58.5296 909.123 Q61.7762 911.256 63.3676 914.088 Q64.9272 916.889 64.9272 920.613 Q64.9272 926.756 61.1078 929.939 Q57.2883 933.122 49.9359 933.122 M27.4968 918.385 L27.4968 918.385 Z" fill="#000000" fill-rule="nonzero" fill-opacity="1" /><path clip-path="url(#clip670)" d="M18.2347 885.411 L28.3562 885.411 L28.3562 873.348 L32.9077 873.348 L32.9077 885.411 L52.2594 885.411 Q56.6199 885.411 57.8613 884.233 Q59.1026 883.024 59.1026 879.363 L59.1026 873.348 L64.0042 873.348 L64.0042 879.363 Q64.0042 886.143 61.4897 888.721 Q58.9434 891.299 52.2594 891.299 L32.9077 891.299 L32.9077 895.596 L28.3562 895.596 L28.3562 891.299 L18.2347 891.299 L18.2347 885.411 Z" fill="#000000" fill-rule="nonzero" fill-opacity="1" /><path clip-path="url(#clip670)" d="M32.4621 851.832 Q32.4621 856.542 36.1542 859.28 Q39.8145 862.017 46.212 862.017 Q52.6095 862.017 56.3017 859.311 Q59.9619 856.574 59.9619 851.832 Q59.9619 847.153 56.2698 844.416 Q52.5777 841.678 46.212 841.678 Q39.8781 841.678 36.186 844.416 Q32.4621 847.153 32.4621 851.832 M27.4968 851.832 Q27.4968 844.193 32.4621 839.832 Q37.4273 835.472 46.212 835.472 Q54.9649 835.472 59.9619 839.832 Q64.9272 844.193 64.9272 851.832 Q64.9272 859.502 59.9619 863.863 Q54.9649 868.192 46.212 868.192 Q37.4273 868.192 32.4621 863.863 Q27.4968 859.502 27.4968 851.832 Z" fill="#000000" fill-rule="nonzero" fill-opacity="1" /><path clip-path="url(#clip670)" d="M29.7248 800.11 L35.1993 800.11 Q33.8307 802.593 33.1623 805.107 Q32.4621 807.59 32.4621 810.136 Q32.4621 815.834 36.0905 818.985 Q39.6872 822.136 46.212 822.136 Q52.7369 822.136 56.3653 818.985 Q59.9619 815.834 59.9619 810.136 Q59.9619 807.59 59.2935 805.107 Q58.5933 802.593 57.2247 800.11 L62.6355 800.11 Q63.7814 802.561 64.3543 805.203 Q64.9272 807.813 64.9272 810.773 Q64.9272 818.826 59.8664 823.568 Q54.8057 828.31 46.212 828.31 Q37.491 828.31 32.4939 823.536 Q27.4968 818.73 27.4968 810.391 Q27.4968 807.686 28.0697 805.107 Q28.6108 802.529 29.7248 800.11 Z" fill="#000000" fill-rule="nonzero" fill-opacity="1" /><path clip-path="url(#clip670)" d="M32.4621 776.112 Q32.4621 780.822 36.1542 783.56 Q39.8145 786.297 46.212 786.297 Q52.6095 786.297 56.3017 783.591 Q59.9619 780.854 59.9619 776.112 Q59.9619 771.433 56.2698 768.696 Q52.5777 765.958 46.212 765.958 Q39.8781 765.958 36.186 768.696 Q32.4621 771.433 32.4621 776.112 M27.4968 776.112 Q27.4968 768.473 32.4621 764.112 Q37.4273 759.752 46.212 759.752 Q54.9649 759.752 59.9619 764.112 Q64.9272 768.473 64.9272 776.112 Q64.9272 783.782 59.9619 788.143 Q54.9649 792.471 46.212 792.471 Q37.4273 792.471 32.4621 788.143 Q27.4968 783.782 27.4968 776.112 Z" fill="#000000" fill-rule="nonzero" fill-opacity="1" /><path clip-path="url(#clip670)" d="M33.8307 729.387 Q33.2578 730.374 33.0032 731.552 Q32.7167 732.698 32.7167 734.098 Q32.7167 739.063 35.9632 741.737 Q39.1779 744.379 45.2253 744.379 L64.0042 744.379 L64.0042 750.267 L28.3562 750.267 L28.3562 744.379 L33.8944 744.379 Q30.6479 742.533 29.0883 739.572 Q27.4968 736.612 27.4968 732.379 Q27.4968 731.774 27.5923 731.042 Q27.656 730.31 27.8151 729.419 L33.8307 729.387 Z" fill="#000000" fill-rule="nonzero" fill-opacity="1" /><path clip-path="url(#clip670)" d="M33.8307 703.734 Q33.2578 704.72 33.0032 705.898 Q32.7167 707.044 32.7167 708.444 Q32.7167 713.409 35.9632 716.083 Q39.1779 718.725 45.2253 718.725 L64.0042 718.725 L64.0042 724.613 L28.3562 724.613 L28.3562 718.725 L33.8944 718.725 Q30.6479 716.879 29.0883 713.919 Q27.4968 710.959 27.4968 706.725 Q27.4968 706.121 27.5923 705.389 Q27.656 704.657 27.8151 703.765 L33.8307 703.734 Z" fill="#000000" fill-rule="nonzero" fill-opacity="1" /><path clip-path="url(#clip670)" d="M44.7161 668.531 L47.5806 668.531 L47.5806 695.458 Q53.6281 695.076 56.8109 691.83 Q59.9619 688.551 59.9619 682.727 Q59.9619 679.353 59.1344 676.202 Q58.3069 673.019 56.6518 669.9 L62.1899 669.9 Q63.5267 673.051 64.227 676.361 Q64.9272 679.671 64.9272 683.077 Q64.9272 691.607 59.9619 696.604 Q54.9967 701.569 46.5303 701.569 Q37.7774 701.569 32.6531 696.859 Q27.4968 692.116 27.4968 684.095 Q27.4968 676.902 32.1438 672.733 Q36.7589 668.531 44.7161 668.531 M42.9973 674.388 Q38.1912 674.451 35.3266 677.093 Q32.4621 679.703 32.4621 684.032 Q32.4621 688.933 35.2312 691.893 Q38.0002 694.822 43.0292 695.267 L42.9973 674.388 Z" fill="#000000" fill-rule="nonzero" fill-opacity="1" /><path clip-path="url(#clip670)" d="M14.479 658.919 L14.479 653.063 L64.0042 653.063 L64.0042 658.919 L14.479 658.919 Z" fill="#000000" fill-rule="nonzero" fill-opacity="1" /><path clip-path="url(#clip670)" d="M46.0847 624.608 Q46.0847 631.706 47.7079 634.443 Q49.3312 637.18 53.2461 637.18 Q56.3653 637.18 58.2114 635.143 Q60.0256 633.074 60.0256 629.541 Q60.0256 624.671 56.5881 621.743 Q53.1188 618.783 47.3897 618.783 L46.0847 618.783 L46.0847 624.608 M43.6657 612.927 L64.0042 612.927 L64.0042 618.783 L58.5933 618.783 Q61.8398 620.788 63.3994 623.78 Q64.9272 626.772 64.9272 631.101 Q64.9272 636.575 61.8716 639.822 Q58.7843 643.037 53.6281 643.037 Q47.6125 643.037 44.5569 639.026 Q41.5014 634.984 41.5014 626.995 L41.5014 618.783 L40.9285 618.783 Q36.8862 618.783 34.6901 621.457 Q32.4621 624.099 32.4621 628.905 Q32.4621 631.96 33.1941 634.857 Q33.9262 637.753 35.3903 640.427 L29.9795 640.427 Q28.7381 637.212 28.1334 634.188 Q27.4968 631.164 27.4968 628.3 Q27.4968 620.566 31.5072 616.746 Q35.5176 612.927 43.6657 612.927 Z" fill="#000000" fill-rule="nonzero" fill-opacity="1" /><path clip-path="url(#clip670)" d="M18.2347 595.071 L28.3562 595.071 L28.3562 583.008 L32.9077 583.008 L32.9077 595.071 L52.2594 595.071 Q56.6199 595.071 57.8613 593.893 Q59.1026 592.684 59.1026 589.024 L59.1026 583.008 L64.0042 583.008 L64.0042 589.024 Q64.0042 595.803 61.4897 598.381 Q58.9434 600.959 52.2594 600.959 L32.9077 600.959 L32.9077 605.256 L28.3562 605.256 L28.3562 600.959 L18.2347 600.959 L18.2347 595.071 Z" fill="#000000" fill-rule="nonzero" fill-opacity="1" /><path clip-path="url(#clip670)" d="M28.3562 575.305 L28.3562 569.449 L64.0042 569.449 L64.0042 575.305 L28.3562 575.305 M14.479 575.305 L14.479 569.449 L21.895 569.449 L21.895 575.305 L14.479 575.305 Z" fill="#000000" fill-rule="nonzero" fill-opacity="1" /><path clip-path="url(#clip670)" d="M32.4621 543.381 Q32.4621 548.092 36.1542 550.829 Q39.8145 553.567 46.212 553.567 Q52.6095 553.567 56.3017 550.861 Q59.9619 548.124 59.9619 543.381 Q59.9619 538.703 56.2698 535.965 Q52.5777 533.228 46.212 533.228 Q39.8781 533.228 36.186 535.965 Q32.4621 538.703 32.4621 543.381 M27.4968 543.381 Q27.4968 535.743 32.4621 531.382 Q37.4273 527.022 46.212 527.022 Q54.9649 527.022 59.9619 531.382 Q64.9272 535.743 64.9272 543.381 Q64.9272 551.052 59.9619 555.413 Q54.9649 559.741 46.212 559.741 Q37.4273 559.741 32.4621 555.413 Q27.4968 551.052 27.4968 543.381 Z" fill="#000000" fill-rule="nonzero" fill-opacity="1" /><path clip-path="url(#clip670)" d="M42.4881 487.681 L64.0042 487.681 L64.0042 493.538 L42.679 493.538 Q37.6183 493.538 35.1038 495.511 Q32.5894 497.485 32.5894 501.431 Q32.5894 506.174 35.6131 508.911 Q38.6368 511.648 43.8567 511.648 L64.0042 511.648 L64.0042 517.537 L28.3562 517.537 L28.3562 511.648 L33.8944 511.648 Q30.6797 509.548 29.0883 506.715 Q27.4968 503.85 27.4968 500.126 Q27.4968 493.984 31.3163 490.832 Q35.1038 487.681 42.4881 487.681 Z" fill="#000000" fill-rule="nonzero" fill-opacity="1" /><polyline clip-path="url(#clip672)" style="stroke:#ff0000; stroke-linecap:round; stroke-linejoin:round; stroke-width:8; stroke-opacity:1; fill:none" points="315.32,138.225 323.232,138.225 323.232,247.4 331.145,247.4 331.145,86.1857 339.057,86.1857 339.057,190.261 346.969,190.261 346.969,247.96 354.882,247.96 354.882,312.023 362.794,312.023 362.794,313.745 370.707,313.745 370.707,209.75 378.619,209.75 378.619,257.871 386.531,257.871 386.531,228.841 394.444,228.841 394.444,432.678 402.356,432.678 402.356,422.687 410.268,422.687 410.268,373.421 418.181,373.421 418.181,443.019 426.093,443.019 426.093,423.38 434.006,423.38 434.006,582.442 441.918,582.442 441.918,331.674 449.83,331.674 449.83,391.229 457.743,391.229 457.743,570.23 465.655,570.23 465.655,447.428 473.567,447.428 473.567,574.637 481.48,574.637 481.48,561.968 489.392,561.968 489.392,502.908 497.305,502.908 497.305,662.288 505.217,662.288 505.217,609.834 513.129,609.834 513.129,600.379 521.042,600.379 521.042,659.935 528.954,659.935 528.954,692.017 536.866,692.017 536.866,558.64 544.779,558.64 544.779,639.128 552.691,639.128 552.691,679.904 560.604,679.904 560.604,714.411 568.516,714.411 568.516,680.034 576.428,680.034 576.428,734.313 584.341,734.313 584.341,706.983 592.253,706.983 592.253,686.211 600.165,686.211 600.165,722.348 608.078,722.348 608.078,681.821 615.99,681.821 615.99,658.694 623.903,658.694 623.903,760.32 631.815,760.32 631.815,727.662 639.727,727.662 639.727,722.816 647.64,722.816 647.64,741.296 655.552,741.296 655.552,846.708 663.464,846.708 663.464,781.332 671.377,781.332 671.377,673.172 679.289,673.172 679.289,889.488 687.201,889.488 687.201,825.037 695.114,825.037 695.114,755.26 703.026,755.26 703.026,854.821 710.939,854.821 710.939,797.905 718.851,797.905 718.851,826.193 726.763,826.193 726.763,803.356 734.676,803.356 734.676,841.456 742.588,841.456 742.588,774.056 750.5,774.056 750.5,817.681 758.413,817.681 758.413,842.906 766.325,842.906 766.325,831.118 774.238,831.118 774.238,787.051 782.15,787.051 782.15,902.614 790.062,902.614 790.062,860.955 797.975,860.955 797.975,877.107 805.887,877.107 805.887,779.915 813.799,779.915 813.799,910.539 821.712,910.539 821.712,895.381 829.624,895.381 829.624,868.65 837.537,868.65 837.537,929.53 845.449,929.53 845.449,858.825 853.361,858.825 853.361,914.096 861.274,914.096 861.274,916.99 869.186,916.99 869.186,918.754 877.098,918.754 877.098,814.411 885.011,814.411 885.011,926.911 892.923,926.911 892.923,901.919 900.836,901.919 900.836,856.753 908.748,856.753 908.748,823.696 916.66,823.696 916.66,900.857 924.573,900.857 924.573,925.365 932.485,925.365 932.485,900.356 940.397,900.356 940.397,949.553 948.31,949.553 948.31,910.123 956.222,910.123 956.222,885.599 964.135,885.599 964.135,968.282 972.047,968.282 972.047,961.776 979.959,961.776 979.959,925.696 987.872,925.696 987.872,968.365 995.784,968.365 995.784,965.231 1003.7,965.231 1003.7,927.341 1011.61,927.341 1011.61,979.218 1019.52,979.218 1019.52,915.399 1027.43,915.399 1027.43,929.951 1035.35,929.951 1035.35,865.516 1043.26,865.516 1043.26,977.283 1051.17,977.283 1051.17,893.751 1059.08,893.751 1059.08,886.574 1067,886.574 1067,923.128 1074.91,923.128 1074.91,822.067 1082.82,822.067 1082.82,895.353 1090.73,895.353 1090.73,908.784 1098.64,908.784 1098.64,866.368 1106.56,866.368 1106.56,863.085 1114.47,863.085 1114.47,874.388 1122.38,874.388 1122.38,869 1130.29,869 1130.29,937.077 1138.21,937.077 1138.21,843.396 1146.12,843.396 1146.12,874.035 1154.03,874.035 1154.03,902.068 1161.94,902.068 1161.94,969.456 1169.86,969.456 1169.86,884.718 1177.77,884.718 1177.77,977.281 1185.68,977.281 1185.68,906.205 1193.59,906.205 1193.59,964.607 1201.51,964.607 1201.51,895.016 1209.42,895.016 1209.42,917.64 1217.33,917.64 1217.33,895.907 1225.24,895.907 1225.24,879.269 1233.16,879.269 1233.16,891.072 1241.07,891.072 1241.07,918.366 1248.98,918.366 1248.98,854.131 1256.89,854.131 1256.89,825.564 1264.8,825.564 1264.8,855.252 1272.72,855.252 1272.72,870.91 1280.63,870.91 1280.63,903.854 1288.54,903.854 1288.54,870.643 1296.45,870.643 1296.45,920.616 1304.37,920.616 1304.37,880.339 1312.28,880.339 1312.28,913.508 1320.19,913.508 1320.19,917.225 1328.1,917.225 1328.1,858.84 1336.02,858.84 1336.02,860.741 1343.93,860.741 1343.93,809.944 1351.84,809.944 1351.84,940.352 1359.75,940.352 1359.75,909.479 1367.67,909.479 1367.67,895.972 1375.58,895.972 1375.58,927.647 1383.49,927.647 1383.49,906.572 1391.4,906.572 1391.4,953.451 1399.32,953.451 1399.32,839.395 1407.23,839.395 1407.23,881.375 1415.14,881.375 1415.14,921.896 1423.05,921.896 1423.05,927.49 1430.96,927.49 1430.96,904.109 1438.88,904.109 1438.88,906.949 1446.79,906.949 1446.79,908.494 1454.7,908.494 1454.7,894.13 1462.61,894.13 1462.61,874.69 1470.53,874.69 1470.53,1026.6 1478.44,1026.6 1478.44,912.047 1486.35,912.047 1486.35,903.778 1494.26,903.778 1494.26,947.507 1502.18,947.507 1502.18,810.098 1510.09,810.098 1510.09,877.372 1518,877.372 1518,889.256 1525.91,889.256 1525.91,892.286 1533.83,892.286 1533.83,901.084 1541.74,901.084 1541.74,867.962 1549.65,867.962 1549.65,938.553 1557.56,938.553 1557.56,889.992 1565.47,889.992 1565.47,921.613 1573.39,921.613 1573.39,837.61 1581.3,837.61 1581.3,838.53 1589.21,838.53 1589.21,888.141 1597.12,888.141 1597.12,903.195 1605.04,903.195 1605.04,933.662 1612.95,933.662 1612.95,938.296 1620.86,938.296 1620.86,955.916 1628.77,955.916 1628.77,978.3 1636.69,978.3 1636.69,884.062 1644.6,884.062 1644.6,880.87 1652.51,880.87 1652.51,910.797 1660.42,910.797 1660.42,948.678 1668.34,948.678 1668.34,877.238 1676.25,877.238 1676.25,890.307 1684.16,890.307 1684.16,902.714 1692.07,902.714 1692.07,1021.53 1699.99,1021.53 1699.99,925.182 1707.9,925.182 1707.9,929.306 1715.81,929.306 1715.81,1011.75 1723.72,1011.75 1723.72,940.819 1731.63,940.819 1731.63,1021.88 1739.55,1021.88 1739.55,1017.2 1747.46,1017.2 1747.46,935.801 1755.37,935.801 1755.37,973.949 1763.28,973.949 1763.28,1041.91 1771.2,1041.91 1771.2,1022.99 1779.11,1022.99 1779.11,1064.27 1787.02,1064.27 1787.02,1004.25 1794.93,1004.25 1794.93,1029.74 1802.85,1029.74 1802.85,998.958 1810.76,998.958 1810.76,1031.63 1818.67,1031.63 1818.67,1029.31 1826.58,1029.31 1826.58,999.478 1834.5,999.478 1834.5,1031.81 1842.41,1031.81 1842.41,1015.26 1850.32,1015.26 1850.32,1032 1858.23,1032 1858.23,1041.58 1866.14,1041.58 1866.14,970.747 1874.06,970.747 1874.06,969.949 1881.97,969.949 1881.97,1009.69 1889.88,1009.69 1889.88,1044.99 1897.79,1044.99 1897.79,961.554 1905.71,961.554 1905.71,993.201 1913.62,993.201 1913.62,926.199 1921.53,926.199 1921.53,972.234 1929.44,972.234 1929.44,1053.05 1937.36,1053.05 1937.36,958.99 1945.27,958.99 1945.27,973.67 1953.18,973.67 1953.18,987.556 1961.09,987.556 1961.09,1007.08 1969.01,1007.08 1969.01,1049.08 1976.92,1049.08 1976.92,935.631 1984.83,935.631 1984.83,983.105 1992.74,983.105 1992.74,1048.07 2000.66,1048.07 2000.66,942.103 2008.57,942.103 2008.57,1014.58 2016.48,1014.58 2016.48,960.484 2024.39,960.484 2024.39,983.228 2032.3,983.228 2032.3,1027.67 2040.22,1027.67 2040.22,1017.45 2048.13,1017.45 2048.13,1094.7 2056.04,1094.7 2056.04,967.861 2063.95,967.861 2063.95,1036.84 2071.87,1036.84 2071.87,1064.6 2079.78,1064.6 2079.78,999.552 2087.69,999.552 2087.69,1078.51 2095.6,1078.51 2095.6,1081.19 2103.52,1081.19 2103.52,1084.59 2111.43,1084.59 2111.43,1093.74 2119.34,1093.74 2119.34,1105.32 2127.25,1105.32 2127.25,1149.22 2135.17,1149.22 2135.17,1070.25 2143.08,1070.25 2143.08,1109.26 2150.99,1109.26 2150.99,1142.86 2158.9,1142.86 2158.9,1074.78 2166.82,1074.78 2166.82,1091.34 2174.73,1091.34 2174.73,1125.8 2182.64,1125.8 2182.64,1077.82 2190.55,1077.82 2190.55,1175.51 2198.46,1175.51 2198.46,1079.53 2206.38,1079.53 2206.38,1107.54 2214.29,1107.54 2214.29,1149.21 2222.2,1149.21 2222.2,1065.32 2230.11,1065.32 2230.11,1183.91 2238.03,1183.91 2238.03,1120.54 2245.94,1120.54 2245.94,1106.78 2253.85,1106.78 2253.85,1134.08 2261.76,1134.08 2261.76,1155.86 2269.68,1155.86 2269.68,1093.37 2277.59,1093.37 2277.59,1102.2 2285.5,1102.2 2285.5,1153.34 2293.41,1153.34 2293.41,1100.52 "/>
<polyline clip-path="url(#clip672)" style="stroke:#0000ff; stroke-linecap:round; stroke-linejoin:round; stroke-width:8; stroke-opacity:1; fill:none" points="315.32,389.092 323.232,389.092 323.232,1012.94 331.145,1012.94 331.145,1063.89 339.057,1063.89 339.057,999.973 346.969,999.973 346.969,971.709 354.882,971.709 354.882,963.529 362.794,963.529 362.794,870 370.707,870 370.707,893.889 378.619,893.889 378.619,955.926 386.531,955.926 386.531,1075.1 394.444,1075.1 394.444,1085.03 402.356,1085.03 402.356,961.57 410.268,961.57 410.268,929.713 418.181,929.713 418.181,971.721 426.093,971.721 426.093,1054.58 434.006,1054.58 434.006,1019.18 441.918,1019.18 441.918,960.874 449.83,960.874 449.83,1021.36 457.743,1021.36 457.743,1056.81 465.655,1056.81 465.655,1060.82 473.567,1060.82 473.567,1057.43 481.48,1057.43 481.48,948.775 489.392,948.775 489.392,953.749 497.305,953.749 497.305,1072.45 505.217,1072.45 505.217,1090.6 513.129,1090.6 513.129,1019.7 521.042,1019.7 521.042,992.057 528.954,992.057 528.954,1017.91 536.866,1017.91 536.866,952.27 544.779,952.27 544.779,998.003 552.691,998.003 552.691,946.383 560.604,946.383 560.604,977.65 568.516,977.65 568.516,1021.91 576.428,1021.91 576.428,1025.27 584.341,1025.27 584.341,929.591 592.253,929.591 592.253,999.595 600.165,999.595 600.165,1026.48 608.078,1026.48 608.078,980.742 615.99,980.742 615.99,1052.54 623.903,1052.54 623.903,1029.6 631.815,1029.6 631.815,888.868 639.727,888.868 639.727,823.521 647.64,823.521 647.64,956.305 655.552,956.305 655.552,1149.94 663.464,1149.94 663.464,1015.91 671.377,1015.91 671.377,998.776 679.289,998.776 679.289,1073.91 687.201,1073.91 687.201,1018.81 695.114,1018.81 695.114,874.414 703.026,874.414 703.026,988.807 710.939,988.807 710.939,955.015 718.851,955.015 718.851,960.531 726.763,960.531 726.763,1010.66 734.676,1010.66 734.676,925.807 742.588,925.807 742.588,932.669 750.5,932.669 750.5,1047.12 758.413,1047.12 758.413,983.556 766.325,983.556 766.325,1081.66 774.238,1081.66 774.238,1056.75 782.15,1056.75 782.15,1032.07 790.062,1032.07 790.062,1074.3 797.975,1074.3 797.975,948.498 805.887,948.498 805.887,980.117 813.799,980.117 813.799,966.695 821.712,966.695 821.712,1070.18 829.624,1070.18 829.624,1158.53 837.537,1158.53 837.537,1078.62 845.449,1078.62 845.449,1026.81 853.361,1026.81 853.361,1069.94 861.274,1069.94 861.274,1060.65 869.186,1060.65 869.186,1028.82 877.098,1028.82 877.098,1132.44 885.011,1132.44 885.011,1016.86 892.923,1016.86 892.923,995.794 900.836,995.794 900.836,1015.36 908.748,1015.36 908.748,1130.48 916.66,1130.48 916.66,1096.74 924.573,1096.74 924.573,979.454 932.485,979.454 932.485,992.761 940.397,992.761 940.397,946.389 948.31,946.389 948.31,994.899 956.222,994.899 956.222,1035.62 964.135,1035.62 964.135,1020.84 972.047,1020.84 972.047,1015.36 979.959,1015.36 979.959,1018.63 987.872,1018.63 987.872,944.671 995.784,944.671 995.784,978.962 1003.7,978.962 1003.7,986.601 1011.61,986.601 1011.61,1083.24 1019.52,1083.24 1019.52,907.976 1027.43,907.976 1027.43,968.06 1035.35,968.06 1035.35,975.96 1043.26,975.96 1043.26,931.722 1051.17,931.722 1051.17,962.789 1059.08,962.789 1059.08,957.043 1067,957.043 1067,1077.4 1074.91,1077.4 1074.91,1044.92 1082.82,1044.92 1082.82,1072.17 1090.73,1072.17 1090.73,1148.19 1098.64,1148.19 1098.64,1021.19 1106.56,1021.19 1106.56,1063.9 1114.47,1063.9 1114.47,980.628 1122.38,980.628 1122.38,1078.32 1130.29,1078.32 1130.29,1045.04 1138.21,1045.04 1138.21,1068.39 1146.12,1068.39 1146.12,982.31 1154.03,982.31 1154.03,964.926 1161.94,964.926 1161.94,960.07 1169.86,960.07 1169.86,948.058 1177.77,948.058 1177.77,1010.6 1185.68,1010.6 1185.68,1107.68 1193.59,1107.68 1193.59,1189.43 1201.51,1189.43 1201.51,1085.12 1209.42,1085.12 1209.42,971.392 1217.33,971.392 1217.33,983.322 1225.24,983.322 1225.24,909.219 1233.16,909.219 1233.16,971.776 1241.07,971.776 1241.07,1043.23 1248.98,1043.23 1248.98,1024.6 1256.89,1024.6 1256.89,1092.16 1264.8,1092.16 1264.8,1075.54 1272.72,1075.54 1272.72,1066.73 1280.63,1066.73 1280.63,1107.96 1288.54,1107.96 1288.54,1112.72 1296.45,1112.72 1296.45,1084.83 1304.37,1084.83 1304.37,998.151 1312.28,998.151 1312.28,999.184 1320.19,999.184 1320.19,1042.25 1328.1,1042.25 1328.1,1063.55 1336.02,1063.55 1336.02,1068.33 1343.93,1068.33 1343.93,1111.02 1351.84,1111.02 1351.84,1047.19 1359.75,1047.19 1359.75,1020.07 1367.67,1020.07 1367.67,977.323 1375.58,977.323 1375.58,997.512 1383.49,997.512 1383.49,1030.6 1391.4,1030.6 1391.4,1009.66 1399.32,1009.66 1399.32,995.797 1407.23,995.797 1407.23,970.086 1415.14,970.086 1415.14,916.152 1423.05,916.152 1423.05,946.251 1430.96,946.251 1430.96,1019.82 1438.88,1019.82 1438.88,1001.82 1446.79,1001.82 1446.79,1008.77 1454.7,1008.77 1454.7,1046.89 1462.61,1046.89 1462.61,984.46 1470.53,984.46 1470.53,876.083 1478.44,876.083 1478.44,920.938 1486.35,920.938 1486.35,936.035 1494.26,936.035 1494.26,1049.31 1502.18,1049.31 1502.18,1035.42 1510.09,1035.42 1510.09,1017.61 1518,1017.61 1518,1089.95 1525.91,1089.95 1525.91,978.323 1533.83,978.323 1533.83,943.884 1541.74,943.884 1541.74,958.819 1549.65,958.819 1549.65,905.628 1557.56,905.628 1557.56,970.825 1565.47,970.825 1565.47,1035.68 1573.39,1035.68 1573.39,1064.08 1581.3,1064.08 1581.3,991.065 1589.21,991.065 1589.21,1014.78 1597.12,1014.78 1597.12,1048.53 1605.04,1048.53 1605.04,1078.49 1612.95,1078.49 1612.95,1164.44 1620.86,1164.44 1620.86,1104.6 1628.77,1104.6 1628.77,951.246 1636.69,951.246 1636.69,978.306 1644.6,978.306 1644.6,1039.1 1652.51,1039.1 1652.51,985.59 1660.42,985.59 1660.42,1015.05 1668.34,1015.05 1668.34,1008.42 1676.25,1008.42 1676.25,967.528 1684.16,967.528 1684.16,1010.4 1692.07,1010.4 1692.07,1012.77 1699.99,1012.77 1699.99,970.61 1707.9,970.61 1707.9,987.049 1715.81,987.049 1715.81,969.985 1723.72,969.985 1723.72,960.202 1731.63,960.202 1731.63,941.532 1739.55,941.532 1739.55,984.331 1747.46,984.331 1747.46,1057.12 1755.37,1057.12 1755.37,1117.1 1763.28,1117.1 1763.28,1068.31 1771.2,1068.31 1771.2,1003.05 1779.11,1003.05 1779.11,881.458 1787.02,881.458 1787.02,972.209 1794.93,972.209 1794.93,1059.69 1802.85,1059.69 1802.85,1045.88 1810.76,1045.88 1810.76,1014.78 1818.67,1014.78 1818.67,1053.85 1826.58,1053.85 1826.58,1035.35 1834.5,1035.35 1834.5,1037.92 1842.41,1037.92 1842.41,1037.01 1850.32,1037.01 1850.32,1067.41 1858.23,1067.41 1858.23,1053.82 1866.14,1053.82 1866.14,960.133 1874.06,960.133 1874.06,998.154 1881.97,998.154 1881.97,918.097 1889.88,918.097 1889.88,994.479 1897.79,994.479 1897.79,1031.34 1905.71,1031.34 1905.71,1076.89 1913.62,1076.89 1913.62,1062.14 1921.53,1062.14 1921.53,1052.19 1929.44,1052.19 1929.44,1161.64 1937.36,1161.64 1937.36,1118.59 1945.27,1118.59 1945.27,1118.83 1953.18,1118.83 1953.18,993.8 1961.09,993.8 1961.09,988.408 1969.01,988.408 1969.01,1041.54 1976.92,1041.54 1976.92,1040.89 1984.83,1040.89 1984.83,1062.5 1992.74,1062.5 1992.74,1076.43 2000.66,1076.43 2000.66,1206.15 2008.57,1206.15 2008.57,1040.31 2016.48,1040.31 2016.48,1059.35 2024.39,1059.35 2024.39,1092.54 2032.3,1092.54 2032.3,1062.87 2040.22,1062.87 2040.22,1107.47 2048.13,1107.47 2048.13,1034 2056.04,1034 2056.04,1047.3 2063.95,1047.3 2063.95,1039.67 2071.87,1039.67 2071.87,1031.76 2079.78,1031.76 2079.78,1099.97 2087.69,1099.97 2087.69,1124.86 2095.6,1124.86 2095.6,1048.06 2103.52,1048.06 2103.52,945.856 2111.43,945.856 2111.43,1047.95 2119.34,1047.95 2119.34,1049.84 2127.25,1049.84 2127.25,1008.03 2135.17,1008.03 2135.17,1098.01 2143.08,1098.01 2143.08,1063.21 2150.99,1063.21 2150.99,1037.86 2158.9,1037.86 2158.9,1003.88 2166.82,1003.88 2166.82,940.736 2174.73,940.736 2174.73,1006.92 2182.64,1006.92 2182.64,1051.18 2190.55,1051.18 2190.55,1053.85 2198.46,1053.85 2198.46,1110.14 2206.38,1110.14 2206.38,1121.94 2214.29,1121.94 2214.29,1047.21 2222.2,1047.21 2222.2,966.906 2230.11,966.906 2230.11,1023.15 2238.03,1023.15 2238.03,1077.98 2245.94,1077.98 2245.94,1195.44 2253.85,1195.44 2253.85,1102.52 2261.76,1102.52 2261.76,983.42 2269.68,983.42 2269.68,992.653 2277.59,992.653 2277.59,974.772 2285.5,974.772 2285.5,906.433 2293.41,906.433 2293.41,998.233 "/>
<polyline clip-path="url(#clip672)" style="stroke:#808080; stroke-linecap:round; stroke-linejoin:round; stroke-width:6; stroke-opacity:1; fill:none" stroke-dasharray="24, 15" points="315.32,667.238 323.232,667.238 331.145,667.238 339.057,667.238 346.969,667.238 354.882,667.238 362.794,667.238 370.707,667.238 378.619,667.238 386.531,667.238 394.444,667.238 402.356,667.238 410.268,667.238 418.181,667.238 426.093,667.238 434.006,667.238 441.918,667.238 449.83,667.238 457.743,667.238 465.655,667.238 473.567,667.238 481.48,667.238 489.392,667.238 497.305,667.238 505.217,667.238 513.129,667.238 521.042,667.238 528.954,667.238 536.866,667.238 544.779,667.238 552.691,667.238 560.604,667.238 568.516,667.238 576.428,667.238 584.341,667.238 592.253,667.238 600.165,667.238 608.078,667.238 615.99,667.238 623.903,667.238 631.815,667.238 639.727,667.238 647.64,667.238 655.552,667.238 663.464,667.238 671.377,667.238 679.289,667.238 687.201,667.238 695.114,667.238 703.026,667.238 710.939,667.238 718.851,667.238 726.763,667.238 734.676,667.238 742.588,667.238 750.5,667.238 758.413,667.238 766.325,667.238 774.238,667.238 782.15,667.238 790.062,667.238 797.975,667.238 805.887,667.238 813.799,667.238 821.712,667.238 829.624,667.238 837.537,667.238 845.449,667.238 853.361,667.238 861.274,667.238 869.186,667.238 877.098,667.238 885.011,667.238 892.923,667.238 900.836,667.238 908.748,667.238 916.66,667.238 924.573,667.238 932.485,667.238 940.397,667.238 948.31,667.238 956.222,667.238 964.135,667.238 972.047,667.238 979.959,667.238 987.872,667.238 995.784,667.238 1003.7,667.238 1011.61,667.238 1019.52,667.238 1027.43,667.238 1035.35,667.238 1043.26,667.238 1051.17,667.238 1059.08,667.238 1067,667.238 1074.91,667.238 1082.82,667.238 1090.73,667.238 1098.64,667.238 1106.56,667.238 1114.47,667.238 1122.38,667.238 1130.29,667.238 1138.21,667.238 1146.12,667.238 1154.03,667.238 1161.94,667.238 1169.86,667.238 1177.77,667.238 1185.68,667.238 1193.59,667.238 1201.51,667.238 1209.42,667.238 1217.33,667.238 1225.24,667.238 1233.16,667.238 1241.07,667.238 1248.98,667.238 1256.89,667.238 1264.8,667.238 1272.72,667.238 1280.63,667.238 1288.54,667.238 1296.45,667.238 1304.37,667.238 1312.28,667.238 1320.19,667.238 1328.1,667.238 1336.02,667.238 1343.93,667.238 1351.84,667.238 1359.75,667.238 1367.67,667.238 1375.58,667.238 1383.49,667.238 1391.4,667.238 1399.32,667.238 1407.23,667.238 1415.14,667.238 1423.05,667.238 1430.96,667.238 1438.88,667.238 1446.79,667.238 1454.7,667.238 1462.61,667.238 1470.53,667.238 1478.44,667.238 1486.35,667.238 1494.26,667.238 1502.18,667.238 1510.09,667.238 1518,667.238 1525.91,667.238 1533.83,667.238 1541.74,667.238 1549.65,667.238 1557.56,667.238 1565.47,667.238 1573.39,667.238 1581.3,667.238 1589.21,667.238 1597.12,667.238 1605.04,667.238 1612.95,667.238 1620.86,667.238 1628.77,667.238 1636.69,667.238 1644.6,667.238 1652.51,667.238 1660.42,667.238 1668.34,667.238 1676.25,667.238 1684.16,667.238 1692.07,667.238 1699.99,667.238 1707.9,667.238 1715.81,667.238 1723.72,667.238 1731.63,667.238 1739.55,667.238 1747.46,667.238 1755.37,667.238 1763.28,667.238 1771.2,667.238 1779.11,667.238 1787.02,667.238 1794.93,667.238 1802.85,667.238 1810.76,667.238 1818.67,667.238 1826.58,667.238 1834.5,667.238 1842.41,667.238 1850.32,667.238 1858.23,667.238 1866.14,667.238 1874.06,667.238 1881.97,667.238 1889.88,667.238 1897.79,667.238 1905.71,667.238 1913.62,667.238 1921.53,667.238 1929.44,667.238 1937.36,667.238 1945.27,667.238 1953.18,667.238 1961.09,667.238 1969.01,667.238 1976.92,667.238 1984.83,667.238 1992.74,667.238 2000.66,667.238 2008.57,667.238 2016.48,667.238 2024.39,667.238 2032.3,667.238 2040.22,667.238 2048.13,667.238 2056.04,667.238 2063.95,667.238 2071.87,667.238 2079.78,667.238 2087.69,667.238 2095.6,667.238 2103.52,667.238 2111.43,667.238 2119.34,667.238 2127.25,667.238 2135.17,667.238 2143.08,667.238 2150.99,667.238 2158.9,667.238 2166.82,667.238 2174.73,667.238 2182.64,667.238 2190.55,667.238 2198.46,667.238 2206.38,667.238 2214.29,667.238 2222.2,667.238 2230.11,667.238 2238.03,667.238 2245.94,667.238 2253.85,667.238 2261.76,667.238 2269.68,667.238 2277.59,667.238 2285.5,667.238 2293.41,667.238 "/>
<polyline clip-path="url(#clip672)" style="stroke:#808080; stroke-linecap:round; stroke-linejoin:round; stroke-width:6; stroke-opacity:1; fill:none" stroke-dasharray="24, 15" points="315.32,1384.24 323.232,1384.24 331.145,1384.24 339.057,1384.24 346.969,1384.24 354.882,1384.24 362.794,1384.24 370.707,1384.24 378.619,1384.24 386.531,1384.24 394.444,1384.24 402.356,1384.24 410.268,1384.24 418.181,1384.24 426.093,1384.24 434.006,1384.24 441.918,1384.24 449.83,1384.24 457.743,1384.24 465.655,1384.24 473.567,1384.24 481.48,1384.24 489.392,1384.24 497.305,1384.24 505.217,1384.24 513.129,1384.24 521.042,1384.24 528.954,1384.24 536.866,1384.24 544.779,1384.24 552.691,1384.24 560.604,1384.24 568.516,1384.24 576.428,1384.24 584.341,1384.24 592.253,1384.24 600.165,1384.24 608.078,1384.24 615.99,1384.24 623.903,1384.24 631.815,1384.24 639.727,1384.24 647.64,1384.24 655.552,1384.24 663.464,1384.24 671.377,1384.24 679.289,1384.24 687.201,1384.24 695.114,1384.24 703.026,1384.24 710.939,1384.24 718.851,1384.24 726.763,1384.24 734.676,1384.24 742.588,1384.24 750.5,1384.24 758.413,1384.24 766.325,1384.24 774.238,1384.24 782.15,1384.24 790.062,1384.24 797.975,1384.24 805.887,1384.24 813.799,1384.24 821.712,1384.24 829.624,1384.24 837.537,1384.24 845.449,1384.24 853.361,1384.24 861.274,1384.24 869.186,1384.24 877.098,1384.24 885.011,1384.24 892.923,1384.24 900.836,1384.24 908.748,1384.24 916.66,1384.24 924.573,1384.24 932.485,1384.24 940.397,1384.24 948.31,1384.24 956.222,1384.24 964.135,1384.24 972.047,1384.24 979.959,1384.24 987.872,1384.24 995.784,1384.24 1003.7,1384.24 1011.61,1384.24 1019.52,1384.24 1027.43,1384.24 1035.35,1384.24 1043.26,1384.24 1051.17,1384.24 1059.08,1384.24 1067,1384.24 1074.91,1384.24 1082.82,1384.24 1090.73,1384.24 1098.64,1384.24 1106.56,1384.24 1114.47,1384.24 1122.38,1384.24 1130.29,1384.24 1138.21,1384.24 1146.12,1384.24 1154.03,1384.24 1161.94,1384.24 1169.86,1384.24 1177.77,1384.24 1185.68,1384.24 1193.59,1384.24 1201.51,1384.24 1209.42,1384.24 1217.33,1384.24 1225.24,1384.24 1233.16,1384.24 1241.07,1384.24 1248.98,1384.24 1256.89,1384.24 1264.8,1384.24 1272.72,1384.24 1280.63,1384.24 1288.54,1384.24 1296.45,1384.24 1304.37,1384.24 1312.28,1384.24 1320.19,1384.24 1328.1,1384.24 1336.02,1384.24 1343.93,1384.24 1351.84,1384.24 1359.75,1384.24 1367.67,1384.24 1375.58,1384.24 1383.49,1384.24 1391.4,1384.24 1399.32,1384.24 1407.23,1384.24 1415.14,1384.24 1423.05,1384.24 1430.96,1384.24 1438.88,1384.24 1446.79,1384.24 1454.7,1384.24 1462.61,1384.24 1470.53,1384.24 1478.44,1384.24 1486.35,1384.24 1494.26,1384.24 1502.18,1384.24 1510.09,1384.24 1518,1384.24 1525.91,1384.24 1533.83,1384.24 1541.74,1384.24 1549.65,1384.24 1557.56,1384.24 1565.47,1384.24 1573.39,1384.24 1581.3,1384.24 1589.21,1384.24 1597.12,1384.24 1605.04,1384.24 1612.95,1384.24 1620.86,1384.24 1628.77,1384.24 1636.69,1384.24 1644.6,1384.24 1652.51,1384.24 1660.42,1384.24 1668.34,1384.24 1676.25,1384.24 1684.16,1384.24 1692.07,1384.24 1699.99,1384.24 1707.9,1384.24 1715.81,1384.24 1723.72,1384.24 1731.63,1384.24 1739.55,1384.24 1747.46,1384.24 1755.37,1384.24 1763.28,1384.24 1771.2,1384.24 1779.11,1384.24 1787.02,1384.24 1794.93,1384.24 1802.85,1384.24 1810.76,1384.24 1818.67,1384.24 1826.58,1384.24 1834.5,1384.24 1842.41,1384.24 1850.32,1384.24 1858.23,1384.24 1866.14,1384.24 1874.06,1384.24 1881.97,1384.24 1889.88,1384.24 1897.79,1384.24 1905.71,1384.24 1913.62,1384.24 1921.53,1384.24 1929.44,1384.24 1937.36,1384.24 1945.27,1384.24 1953.18,1384.24 1961.09,1384.24 1969.01,1384.24 1976.92,1384.24 1984.83,1384.24 1992.74,1384.24 2000.66,1384.24 2008.57,1384.24 2016.48,1384.24 2024.39,1384.24 2032.3,1384.24 2040.22,1384.24 2048.13,1384.24 2056.04,1384.24 2063.95,1384.24 2071.87,1384.24 2079.78,1384.24 2087.69,1384.24 2095.6,1384.24 2103.52,1384.24 2111.43,1384.24 2119.34,1384.24 2127.25,1384.24 2135.17,1384.24 2143.08,1384.24 2150.99,1384.24 2158.9,1384.24 2166.82,1384.24 2174.73,1384.24 2182.64,1384.24 2190.55,1384.24 2198.46,1384.24 2206.38,1384.24 2214.29,1384.24 2222.2,1384.24 2230.11,1384.24 2238.03,1384.24 2245.94,1384.24 2253.85,1384.24 2261.76,1384.24 2269.68,1384.24 2277.59,1384.24 2285.5,1384.24 2293.41,1384.24 "/>
<path clip-path="url(#clip670)" d="M1632.45 300.469 L2282.86 300.469 L2282.86 93.1086 L1632.45 93.1086  Z" fill="#f2f2f2" fill-rule="evenodd" fill-opacity="1"/>
<polyline clip-path="url(#clip670)" style="stroke:#000000; stroke-linecap:round; stroke-linejoin:round; stroke-width:4; stroke-opacity:0; fill:none" points="1632.45,300.469 2282.86,300.469 2282.86,93.1086 1632.45,93.1086 1632.45,300.469 "/>
<polyline clip-path="url(#clip670)" style="stroke:#ff0000; stroke-linecap:round; stroke-linejoin:round; stroke-width:8; stroke-opacity:1; fill:none" points="1655.74,144.949 1795.53,144.949 "/>
<path clip-path="url(#clip670)" d="M1834.85 130.84 Q1829.75 130.84 1826.74 134.636 Q1823.76 138.432 1823.76 144.983 Q1823.76 151.511 1826.74 155.307 Q1829.75 159.104 1834.85 159.104 Q1839.94 159.104 1842.9 155.307 Q1845.89 151.511 1845.89 144.983 Q1845.89 138.432 1842.9 134.636 Q1839.94 130.84 1834.85 130.84 M1834.85 127.044 Q1842.11 127.044 1846.47 131.928 Q1850.82 136.789 1850.82 144.983 Q1850.82 153.155 1846.47 158.039 Q1842.11 162.9 1834.85 162.9 Q1827.55 162.9 1823.18 158.039 Q1818.83 153.178 1818.83 144.983 Q1818.83 136.789 1823.18 131.928 Q1827.55 127.044 1834.85 127.044 Z" fill="#000000" fill-rule="nonzero" fill-opacity="1" /><path clip-path="url(#clip670)" d="M1876.56 149.289 Q1876.56 144.59 1874.61 141.928 Q1872.69 139.243 1869.31 139.243 Q1865.93 139.243 1863.99 141.928 Q1862.07 144.59 1862.07 149.289 Q1862.07 153.988 1863.99 156.673 Q1865.93 159.335 1869.31 159.335 Q1872.69 159.335 1874.61 156.673 Q1876.56 153.988 1876.56 149.289 M1862.07 140.238 Q1863.41 137.923 1865.45 136.812 Q1867.51 135.678 1870.35 135.678 Q1875.08 135.678 1878.02 139.428 Q1880.98 143.178 1880.98 149.289 Q1880.98 155.4 1878.02 159.15 Q1875.08 162.9 1870.35 162.9 Q1867.51 162.9 1865.45 161.789 Q1863.41 160.655 1862.07 158.34 L1862.07 162.229 L1857.79 162.229 L1857.79 126.21 L1862.07 126.21 L1862.07 140.238 Z" fill="#000000" fill-rule="nonzero" fill-opacity="1" /><path clip-path="url(#clip670)" d="M1904.57 137.067 L1904.57 141.094 Q1902.76 140.169 1900.82 139.706 Q1898.87 139.243 1896.79 139.243 Q1893.62 139.243 1892.02 140.215 Q1890.45 141.187 1890.45 143.131 Q1890.45 144.613 1891.58 145.469 Q1892.72 146.303 1896.14 147.067 L1897.6 147.391 Q1902.14 148.363 1904.04 150.145 Q1905.96 151.905 1905.96 155.076 Q1905.96 158.687 1903.09 160.793 Q1900.24 162.9 1895.24 162.9 Q1893.16 162.9 1890.89 162.483 Q1888.64 162.09 1886.14 161.28 L1886.14 156.881 Q1888.5 158.108 1890.79 158.733 Q1893.09 159.335 1895.33 159.335 Q1898.34 159.335 1899.96 158.317 Q1901.58 157.275 1901.58 155.4 Q1901.58 153.664 1900.4 152.738 Q1899.24 151.812 1895.29 150.956 L1893.8 150.608 Q1889.85 149.775 1888.09 148.062 Q1886.33 146.326 1886.33 143.317 Q1886.33 139.659 1888.92 137.669 Q1891.51 135.678 1896.28 135.678 Q1898.64 135.678 1900.73 136.025 Q1902.81 136.372 1904.57 137.067 Z" fill="#000000" fill-rule="nonzero" fill-opacity="1" /><path clip-path="url(#clip670)" d="M1934.91 148.201 L1934.91 150.284 L1915.33 150.284 Q1915.61 154.682 1917.97 156.997 Q1920.35 159.289 1924.59 159.289 Q1927.04 159.289 1929.34 158.687 Q1931.65 158.085 1933.92 156.881 L1933.92 160.909 Q1931.63 161.881 1929.22 162.391 Q1926.81 162.9 1924.34 162.9 Q1918.13 162.9 1914.5 159.289 Q1910.89 155.678 1910.89 149.52 Q1910.89 143.155 1914.31 139.428 Q1917.76 135.678 1923.6 135.678 Q1928.83 135.678 1931.86 139.057 Q1934.91 142.414 1934.91 148.201 M1930.66 146.951 Q1930.61 143.456 1928.69 141.372 Q1926.79 139.289 1923.64 139.289 Q1920.08 139.289 1917.92 141.303 Q1915.79 143.317 1915.47 146.974 L1930.66 146.951 Z" fill="#000000" fill-rule="nonzero" fill-opacity="1" /><path clip-path="url(#clip670)" d="M1956.93 140.284 Q1956.21 139.868 1955.35 139.682 Q1954.52 139.474 1953.5 139.474 Q1949.89 139.474 1947.95 141.835 Q1946.03 144.173 1946.03 148.571 L1946.03 162.229 L1941.74 162.229 L1941.74 136.303 L1946.03 136.303 L1946.03 140.331 Q1947.37 137.969 1949.52 136.835 Q1951.67 135.678 1954.75 135.678 Q1955.19 135.678 1955.72 135.747 Q1956.26 135.794 1956.91 135.909 L1956.93 140.284 Z" fill="#000000" fill-rule="nonzero" fill-opacity="1" /><path clip-path="url(#clip670)" d="M1958.34 136.303 L1962.85 136.303 L1970.96 158.062 L1979.06 136.303 L1983.57 136.303 L1973.85 162.229 L1968.06 162.229 L1958.34 136.303 Z" fill="#000000" fill-rule="nonzero" fill-opacity="1" /><path clip-path="url(#clip670)" d="M2011.63 148.201 L2011.63 150.284 L1992.04 150.284 Q1992.32 154.682 1994.68 156.997 Q1997.07 159.289 2001.3 159.289 Q2003.76 159.289 2006.05 158.687 Q2008.36 158.085 2010.63 156.881 L2010.63 160.909 Q2008.34 161.881 2005.93 162.391 Q2003.53 162.9 2001.05 162.9 Q1994.84 162.9 1991.21 159.289 Q1987.6 155.678 1987.6 149.52 Q1987.6 143.155 1991.03 139.428 Q1994.47 135.678 2000.31 135.678 Q2005.54 135.678 2008.57 139.057 Q2011.63 142.414 2011.63 148.201 M2007.37 146.951 Q2007.32 143.456 2005.4 141.372 Q2003.5 139.289 2000.35 139.289 Q1996.79 139.289 1994.64 141.303 Q1992.51 143.317 1992.18 146.974 L2007.37 146.951 Z" fill="#000000" fill-rule="nonzero" fill-opacity="1" /><path clip-path="url(#clip670)" d="M2035.68 140.238 L2035.68 126.21 L2039.94 126.21 L2039.94 162.229 L2035.68 162.229 L2035.68 158.34 Q2034.34 160.655 2032.28 161.789 Q2030.24 162.9 2027.37 162.9 Q2022.67 162.9 2019.71 159.15 Q2016.77 155.4 2016.77 149.289 Q2016.77 143.178 2019.71 139.428 Q2022.67 135.678 2027.37 135.678 Q2030.24 135.678 2032.28 136.812 Q2034.34 137.923 2035.68 140.238 M2021.16 149.289 Q2021.16 153.988 2023.09 156.673 Q2025.03 159.335 2028.41 159.335 Q2031.79 159.335 2033.73 156.673 Q2035.68 153.988 2035.68 149.289 Q2035.68 144.59 2033.73 141.928 Q2031.79 139.243 2028.41 139.243 Q2025.03 139.243 2023.09 141.928 Q2021.16 144.59 2021.16 149.289 Z" fill="#000000" fill-rule="nonzero" fill-opacity="1" /><polyline clip-path="url(#clip670)" style="stroke:#0000ff; stroke-linecap:round; stroke-linejoin:round; stroke-width:8; stroke-opacity:1; fill:none" points="1655.74,196.789 1795.53,196.789 "/>
<path clip-path="url(#clip670)" d="M1841.07 180.643 L1841.07 185.203 Q1838.41 183.93 1836.05 183.305 Q1833.69 182.68 1831.49 182.68 Q1827.67 182.68 1825.59 184.161 Q1823.53 185.643 1823.53 188.374 Q1823.53 190.666 1824.89 191.847 Q1826.28 193.004 1830.12 193.722 L1832.95 194.3 Q1838.18 195.296 1840.66 197.819 Q1843.16 200.319 1843.16 204.532 Q1843.16 209.555 1839.78 212.147 Q1836.42 214.74 1829.92 214.74 Q1827.46 214.74 1824.68 214.184 Q1821.93 213.629 1818.97 212.541 L1818.97 207.726 Q1821.81 209.323 1824.54 210.133 Q1827.28 210.944 1829.92 210.944 Q1833.92 210.944 1836.1 209.37 Q1838.27 207.796 1838.27 204.879 Q1838.27 202.333 1836.7 200.897 Q1835.15 199.462 1831.58 198.745 L1828.73 198.189 Q1823.5 197.147 1821.17 194.925 Q1818.83 192.703 1818.83 188.745 Q1818.83 184.161 1822.04 181.522 Q1825.29 178.884 1830.96 178.884 Q1833.39 178.884 1835.91 179.323 Q1838.43 179.763 1841.07 180.643 Z" fill="#000000" fill-rule="nonzero" fill-opacity="1" /><path clip-path="url(#clip670)" d="M1850.26 188.143 L1854.52 188.143 L1854.52 214.069 L1850.26 214.069 L1850.26 188.143 M1850.26 178.05 L1854.52 178.05 L1854.52 183.444 L1850.26 183.444 L1850.26 178.05 Z" fill="#000000" fill-rule="nonzero" fill-opacity="1" /><path clip-path="url(#clip670)" d="M1883.62 193.12 Q1885.22 190.249 1887.44 188.884 Q1889.66 187.518 1892.67 187.518 Q1896.72 187.518 1898.92 190.365 Q1901.12 193.189 1901.12 198.421 L1901.12 214.069 L1896.84 214.069 L1896.84 198.559 Q1896.84 194.833 1895.52 193.027 Q1894.2 191.222 1891.49 191.222 Q1888.18 191.222 1886.26 193.421 Q1884.34 195.62 1884.34 199.416 L1884.34 214.069 L1880.05 214.069 L1880.05 198.559 Q1880.05 194.809 1878.73 193.027 Q1877.42 191.222 1874.66 191.222 Q1871.4 191.222 1869.48 193.444 Q1867.55 195.643 1867.55 199.416 L1867.55 214.069 L1863.27 214.069 L1863.27 188.143 L1867.55 188.143 L1867.55 192.171 Q1869.01 189.786 1871.05 188.652 Q1873.09 187.518 1875.89 187.518 Q1878.71 187.518 1880.68 188.953 Q1882.67 190.388 1883.62 193.12 Z" fill="#000000" fill-rule="nonzero" fill-opacity="1" /><path clip-path="url(#clip670)" d="M1909.17 203.837 L1909.17 188.143 L1913.43 188.143 L1913.43 203.675 Q1913.43 207.356 1914.87 209.208 Q1916.3 211.036 1919.17 211.036 Q1922.62 211.036 1924.61 208.837 Q1926.63 206.638 1926.63 202.842 L1926.63 188.143 L1930.89 188.143 L1930.89 214.069 L1926.63 214.069 L1926.63 210.087 Q1925.08 212.448 1923.02 213.606 Q1920.98 214.74 1918.27 214.74 Q1913.8 214.74 1911.49 211.962 Q1909.17 209.184 1909.17 203.837 M1919.89 187.518 L1919.89 187.518 Z" fill="#000000" fill-rule="nonzero" fill-opacity="1" /><path clip-path="url(#clip670)" d="M1939.66 178.05 L1943.92 178.05 L1943.92 214.069 L1939.66 214.069 L1939.66 178.05 Z" fill="#000000" fill-rule="nonzero" fill-opacity="1" /><path clip-path="url(#clip670)" d="M1964.61 201.036 Q1959.45 201.036 1957.46 202.217 Q1955.47 203.397 1955.47 206.245 Q1955.47 208.513 1956.95 209.856 Q1958.46 211.175 1961.03 211.175 Q1964.57 211.175 1966.7 208.675 Q1968.85 206.152 1968.85 201.985 L1968.85 201.036 L1964.61 201.036 M1973.11 199.277 L1973.11 214.069 L1968.85 214.069 L1968.85 210.133 Q1967.39 212.495 1965.22 213.629 Q1963.04 214.74 1959.89 214.74 Q1955.91 214.74 1953.55 212.518 Q1951.21 210.272 1951.21 206.522 Q1951.21 202.147 1954.13 199.925 Q1957.07 197.703 1962.88 197.703 L1968.85 197.703 L1968.85 197.286 Q1968.85 194.347 1966.91 192.749 Q1964.98 191.129 1961.49 191.129 Q1959.27 191.129 1957.16 191.661 Q1955.05 192.194 1953.11 193.259 L1953.11 189.323 Q1955.45 188.421 1957.65 187.981 Q1959.85 187.518 1961.93 187.518 Q1967.55 187.518 1970.33 190.434 Q1973.11 193.351 1973.11 199.277 Z" fill="#000000" fill-rule="nonzero" fill-opacity="1" /><path clip-path="url(#clip670)" d="M1986.09 180.782 L1986.09 188.143 L1994.87 188.143 L1994.87 191.453 L1986.09 191.453 L1986.09 205.527 Q1986.09 208.698 1986.95 209.601 Q1987.83 210.504 1990.49 210.504 L1994.87 210.504 L1994.87 214.069 L1990.49 214.069 Q1985.56 214.069 1983.69 212.24 Q1981.81 210.388 1981.81 205.527 L1981.81 191.453 L1978.69 191.453 L1978.69 188.143 L1981.81 188.143 L1981.81 180.782 L1986.09 180.782 Z" fill="#000000" fill-rule="nonzero" fill-opacity="1" /><path clip-path="url(#clip670)" d="M2000.47 188.143 L2004.73 188.143 L2004.73 214.069 L2000.47 214.069 L2000.47 188.143 M2000.47 178.05 L2004.73 178.05 L2004.73 183.444 L2000.47 183.444 L2000.47 178.05 Z" fill="#000000" fill-rule="nonzero" fill-opacity="1" /><path clip-path="url(#clip670)" d="M2023.69 191.129 Q2020.26 191.129 2018.27 193.814 Q2016.28 196.476 2016.28 201.129 Q2016.28 205.782 2018.25 208.467 Q2020.24 211.129 2023.69 211.129 Q2027.09 211.129 2029.08 208.444 Q2031.07 205.758 2031.07 201.129 Q2031.07 196.522 2029.08 193.837 Q2027.09 191.129 2023.69 191.129 M2023.69 187.518 Q2029.24 187.518 2032.41 191.129 Q2035.59 194.74 2035.59 201.129 Q2035.59 207.495 2032.41 211.129 Q2029.24 214.74 2023.69 214.74 Q2018.11 214.74 2014.94 211.129 Q2011.79 207.495 2011.79 201.129 Q2011.79 194.74 2014.94 191.129 Q2018.11 187.518 2023.69 187.518 Z" fill="#000000" fill-rule="nonzero" fill-opacity="1" /><path clip-path="url(#clip670)" d="M2064.2 198.421 L2064.2 214.069 L2059.94 214.069 L2059.94 198.559 Q2059.94 194.879 2058.5 193.05 Q2057.07 191.222 2054.2 191.222 Q2050.75 191.222 2048.76 193.421 Q2046.77 195.62 2046.77 199.416 L2046.77 214.069 L2042.48 214.069 L2042.48 188.143 L2046.77 188.143 L2046.77 192.171 Q2048.29 189.833 2050.35 188.675 Q2052.44 187.518 2055.15 187.518 Q2059.61 187.518 2061.9 190.296 Q2064.2 193.05 2064.2 198.421 Z" fill="#000000" fill-rule="nonzero" fill-opacity="1" /><path clip-path="url(#clip670)" d="M2097.99 178.097 Q2094.89 183.421 2093.39 188.629 Q2091.88 193.837 2091.88 199.184 Q2091.88 204.532 2093.39 209.786 Q2094.91 215.018 2097.99 220.319 L2094.29 220.319 Q2090.82 214.879 2089.08 209.624 Q2087.37 204.37 2087.37 199.184 Q2087.37 194.022 2089.08 188.791 Q2090.79 183.56 2094.29 178.097 L2097.99 178.097 Z" fill="#000000" fill-rule="nonzero" fill-opacity="1" /><path clip-path="url(#clip670)" d="M2106.26 188.143 L2110.52 188.143 L2110.52 214.069 L2106.26 214.069 L2106.26 188.143 M2106.26 178.05 L2110.52 178.05 L2110.52 183.444 L2106.26 183.444 L2106.26 178.05 Z" fill="#000000" fill-rule="nonzero" fill-opacity="1" /><path clip-path="url(#clip670)" d="M2135.05 192.541 L2164.73 192.541 L2164.73 196.43 L2135.05 196.43 L2135.05 192.541 M2135.05 201.985 L2164.73 201.985 L2164.73 205.921 L2135.05 205.921 L2135.05 201.985 Z" fill="#000000" fill-rule="nonzero" fill-opacity="1" /><path clip-path="url(#clip670)" d="M2200.47 194.925 Q2197.32 194.925 2195.47 197.078 Q2193.64 199.231 2193.64 202.981 Q2193.64 206.708 2195.47 208.883 Q2197.32 211.036 2200.47 211.036 Q2203.62 211.036 2205.45 208.883 Q2207.3 206.708 2207.3 202.981 Q2207.3 199.231 2205.45 197.078 Q2203.62 194.925 2200.47 194.925 M2209.75 180.273 L2209.75 184.532 Q2207.99 183.698 2206.19 183.259 Q2204.4 182.819 2202.64 182.819 Q2198.02 182.819 2195.56 185.944 Q2193.13 189.069 2192.78 195.388 Q2194.15 193.374 2196.21 192.309 Q2198.27 191.222 2200.75 191.222 Q2205.95 191.222 2208.96 194.393 Q2212 197.541 2212 202.981 Q2212 208.305 2208.85 211.522 Q2205.7 214.74 2200.47 214.74 Q2194.47 214.74 2191.3 210.157 Q2188.13 205.55 2188.13 196.823 Q2188.13 188.629 2192.02 183.768 Q2195.91 178.884 2202.46 178.884 Q2204.22 178.884 2206 179.231 Q2207.81 179.578 2209.75 180.273 Z" fill="#000000" fill-rule="nonzero" fill-opacity="1" /><path clip-path="url(#clip670)" d="M2220.1 179.509 L2238.45 179.509 L2238.45 183.444 L2224.38 183.444 L2224.38 191.916 Q2225.4 191.569 2226.42 191.407 Q2227.44 191.222 2228.45 191.222 Q2234.24 191.222 2237.62 194.393 Q2241 197.564 2241 202.981 Q2241 208.559 2237.53 211.661 Q2234.06 214.74 2227.74 214.74 Q2225.56 214.74 2223.29 214.37 Q2221.05 213.999 2218.64 213.258 L2218.64 208.559 Q2220.72 209.694 2222.95 210.249 Q2225.17 210.805 2227.64 210.805 Q2231.65 210.805 2233.99 208.698 Q2236.33 206.592 2236.33 202.981 Q2236.33 199.37 2233.99 197.263 Q2231.65 195.157 2227.64 195.157 Q2225.77 195.157 2223.89 195.573 Q2222.04 195.99 2220.1 196.87 L2220.1 179.509 Z" fill="#000000" fill-rule="nonzero" fill-opacity="1" /><path clip-path="url(#clip670)" d="M2248.94 178.097 L2252.64 178.097 Q2256.12 183.56 2257.83 188.791 Q2259.57 194.022 2259.57 199.184 Q2259.57 204.37 2257.83 209.624 Q2256.12 214.879 2252.64 220.319 L2248.94 220.319 Q2252.02 215.018 2253.52 209.786 Q2255.05 204.532 2255.05 199.184 Q2255.05 193.837 2253.52 188.629 Q2252.02 183.421 2248.94 178.097 Z" fill="#000000" fill-rule="nonzero" fill-opacity="1" /><polyline clip-path="url(#clip670)" style="stroke:#808080; stroke-linecap:round; stroke-linejoin:round; stroke-width:6; stroke-opacity:1; fill:none" stroke-dasharray="24, 15" points="1655.74,248.629 1795.53,248.629 "/>
<path clip-path="url(#clip670)" d="M1821.05 265.191 L1821.05 260.932 Q1822.81 261.765 1824.61 262.205 Q1826.42 262.645 1828.16 262.645 Q1832.79 262.645 1835.22 259.543 Q1837.67 256.418 1838.02 250.075 Q1836.67 252.066 1834.61 253.131 Q1832.55 254.196 1830.05 254.196 Q1824.87 254.196 1821.84 251.071 Q1818.83 247.923 1818.83 242.483 Q1818.83 237.159 1821.98 233.941 Q1825.12 230.724 1830.36 230.724 Q1836.35 230.724 1839.5 235.33 Q1842.67 239.913 1842.67 248.663 Q1842.67 256.835 1838.78 261.719 Q1834.92 266.58 1828.36 266.58 Q1826.61 266.58 1824.8 266.233 Q1822.99 265.885 1821.05 265.191 M1830.36 250.538 Q1833.5 250.538 1835.33 248.386 Q1837.18 246.233 1837.18 242.483 Q1837.18 238.756 1835.33 236.603 Q1833.5 234.427 1830.36 234.427 Q1827.21 234.427 1825.36 236.603 Q1823.53 238.756 1823.53 242.483 Q1823.53 246.233 1825.36 248.386 Q1827.21 250.538 1830.36 250.538 Z" fill="#000000" fill-rule="nonzero" fill-opacity="1" /><path clip-path="url(#clip670)" d="M1851.12 231.349 L1869.48 231.349 L1869.48 235.284 L1855.4 235.284 L1855.4 243.756 Q1856.42 243.409 1857.44 243.247 Q1858.46 243.062 1859.48 243.062 Q1865.26 243.062 1868.64 246.233 Q1872.02 249.404 1872.02 254.821 Q1872.02 260.399 1868.55 263.501 Q1865.08 266.58 1858.76 266.58 Q1856.58 266.58 1854.31 266.21 Q1852.07 265.839 1849.66 265.098 L1849.66 260.399 Q1851.74 261.534 1853.97 262.089 Q1856.19 262.645 1858.67 262.645 Q1862.67 262.645 1865.01 260.538 Q1867.35 258.432 1867.35 254.821 Q1867.35 251.21 1865.01 249.103 Q1862.67 246.997 1858.67 246.997 Q1856.79 246.997 1854.92 247.413 Q1853.06 247.83 1851.12 248.71 L1851.12 231.349 Z" fill="#000000" fill-rule="nonzero" fill-opacity="1" /><path clip-path="url(#clip670)" d="M1910.63 250.7 Q1908.62 250.7 1907.46 252.413 Q1906.33 254.126 1906.33 257.182 Q1906.33 260.191 1907.46 261.927 Q1908.62 263.64 1910.63 263.64 Q1912.6 263.64 1913.73 261.927 Q1914.89 260.191 1914.89 257.182 Q1914.89 254.149 1913.73 252.436 Q1912.6 250.7 1910.63 250.7 M1910.63 247.761 Q1914.29 247.761 1916.44 250.307 Q1918.6 252.853 1918.6 257.182 Q1918.6 261.51 1916.42 264.057 Q1914.27 266.58 1910.63 266.58 Q1906.93 266.58 1904.78 264.057 Q1902.62 261.51 1902.62 257.182 Q1902.62 252.83 1904.78 250.307 Q1906.95 247.761 1910.63 247.761 M1886.74 233.663 Q1884.75 233.663 1883.6 235.4 Q1882.46 237.112 1882.46 240.122 Q1882.46 243.177 1883.6 244.89 Q1884.73 246.603 1886.74 246.603 Q1888.76 246.603 1889.89 244.89 Q1891.05 243.177 1891.05 240.122 Q1891.05 237.136 1889.89 235.4 Q1888.73 233.663 1886.74 233.663 M1907.65 230.724 L1911.35 230.724 L1889.73 266.58 L1886.03 266.58 L1907.65 230.724 M1886.74 230.724 Q1890.4 230.724 1892.58 233.27 Q1894.75 235.793 1894.75 240.122 Q1894.75 244.497 1892.58 247.02 Q1890.42 249.543 1886.74 249.543 Q1883.06 249.543 1880.91 247.02 Q1878.78 244.474 1878.78 240.122 Q1878.78 235.816 1880.93 233.27 Q1883.09 230.724 1886.74 230.724 Z" fill="#000000" fill-rule="nonzero" fill-opacity="1" /><path clip-path="url(#clip670)" d="M1966.81 234.011 L1966.81 238.941 Q1964.45 236.742 1961.77 235.654 Q1959.1 234.566 1956.1 234.566 Q1950.17 234.566 1947.02 238.2 Q1943.87 241.812 1943.87 248.663 Q1943.87 255.492 1947.02 259.126 Q1950.17 262.737 1956.1 262.737 Q1959.1 262.737 1961.77 261.649 Q1964.45 260.561 1966.81 258.362 L1966.81 263.247 Q1964.36 264.913 1961.6 265.747 Q1958.87 266.58 1955.82 266.58 Q1947.97 266.58 1943.46 261.788 Q1938.94 256.973 1938.94 248.663 Q1938.94 240.33 1943.46 235.538 Q1947.97 230.724 1955.82 230.724 Q1958.92 230.724 1961.65 231.557 Q1964.41 232.367 1966.81 234.011 Z" fill="#000000" fill-rule="nonzero" fill-opacity="1" /><path clip-path="url(#clip670)" d="M1974.03 231.349 L1978.71 231.349 L1978.71 265.909 L1974.03 265.909 L1974.03 231.349 Z" fill="#000000" fill-rule="nonzero" fill-opacity="1" /></svg>
