<?xml version="1.0" encoding="utf-8"?>
<svg xmlns="http://www.w3.org/2000/svg" xmlns:xlink="http://www.w3.org/1999/xlink" width="600" height="400" viewBox="0 0 2400 1600">
<defs>
  <clipPath id="clip570">
    <rect x="0" y="0" width="2400" height="1600"/>
  </clipPath>
</defs>
<path clip-path="url(#clip570)" d="M0 1600 L2400 1600 L2400 8.88178e-14 L0 8.88178e-14  Z" fill="#ffffff" fill-rule="evenodd" fill-opacity="1"/>
<defs>
  <clipPath id="clip571">
    <rect x="480" y="0" width="1681" height="1600"/>
  </clipPath>
</defs>
<path clip-path="url(#clip570)" d="M255.977 1423.18 L2352.76 1423.18 L2352.76 47.2441 L255.977 47.2441  Z" fill="#f2f2f2" fill-rule="evenodd" fill-opacity="1"/>
<defs>
  <clipPath id="clip572">
    <rect x="255" y="47" width="2098" height="1377"/>
  </clipPath>
</defs>
<polyline clip-path="url(#clip572)" style="stroke:#000000; stroke-linecap:round; stroke-linejoin:round; stroke-width:2; stroke-opacity:0.1; fill:none" points="306.204,1423.18 306.204,47.2441 "/>
<polyline clip-path="url(#clip572)" style="stroke:#000000; stroke-linecap:round; stroke-linejoin:round; stroke-width:2; stroke-opacity:0.1; fill:none" points="761.986,1423.18 761.986,47.2441 "/>
<polyline clip-path="url(#clip572)" style="stroke:#000000; stroke-linecap:round; stroke-linejoin:round; stroke-width:2; stroke-opacity:0.1; fill:none" points="1217.77,1423.18 1217.77,47.2441 "/>
<polyline clip-path="url(#clip572)" style="stroke:#000000; stroke-linecap:round; stroke-linejoin:round; stroke-width:2; stroke-opacity:0.1; fill:none" points="1673.55,1423.18 1673.55,47.2441 "/>
<polyline clip-path="url(#clip572)" style="stroke:#000000; stroke-linecap:round; stroke-linejoin:round; stroke-width:2; stroke-opacity:0.1; fill:none" points="2129.33,1423.18 2129.33,47.2441 "/>
<polyline clip-path="url(#clip572)" style="stroke:#000000; stroke-linecap:round; stroke-linejoin:round; stroke-width:2; stroke-opacity:0.1; fill:none" points="306.204,1423.18 306.204,47.2441 "/>
<polyline clip-path="url(#clip572)" style="stroke:#000000; stroke-linecap:round; stroke-linejoin:round; stroke-width:2; stroke-opacity:0.1; fill:none" points="761.986,1423.18 761.986,47.2441 "/>
<polyline clip-path="url(#clip572)" style="stroke:#000000; stroke-linecap:round; stroke-linejoin:round; stroke-width:2; stroke-opacity:0.1; fill:none" points="1217.77,1423.18 1217.77,47.2441 "/>
<polyline clip-path="url(#clip572)" style="stroke:#000000; stroke-linecap:round; stroke-linejoin:round; stroke-width:2; stroke-opacity:0.1; fill:none" points="1673.55,1423.18 1673.55,47.2441 "/>
<polyline clip-path="url(#clip572)" style="stroke:#000000; stroke-linecap:round; stroke-linejoin:round; stroke-width:2; stroke-opacity:0.1; fill:none" points="2129.33,1423.18 2129.33,47.2441 "/>
<polyline clip-path="url(#clip572)" style="stroke:#000000; stroke-linecap:round; stroke-linejoin:round; stroke-width:2; stroke-opacity:0.1; fill:none" points="255.977,1270.69 2352.76,1270.69 "/>
<polyline clip-path="url(#clip572)" style="stroke:#000000; stroke-linecap:round; stroke-linejoin:round; stroke-width:2; stroke-opacity:0.1; fill:none" points="255.977,974.551 2352.76,974.551 "/>
<polyline clip-path="url(#clip572)" style="stroke:#000000; stroke-linecap:round; stroke-linejoin:round; stroke-width:2; stroke-opacity:0.1; fill:none" points="255.977,678.416 2352.76,678.416 "/>
<polyline clip-path="url(#clip572)" style="stroke:#000000; stroke-linecap:round; stroke-linejoin:round; stroke-width:2; stroke-opacity:0.1; fill:none" points="255.977,382.281 2352.76,382.281 "/>
<polyline clip-path="url(#clip572)" style="stroke:#000000; stroke-linecap:round; stroke-linejoin:round; stroke-width:2; stroke-opacity:0.1; fill:none" points="255.977,86.1461 2352.76,86.1461 "/>
<polyline clip-path="url(#clip572)" style="stroke:#000000; stroke-linecap:round; stroke-linejoin:round; stroke-width:2; stroke-opacity:0.1; fill:none" points="255.977,1270.69 2352.76,1270.69 "/>
<polyline clip-path="url(#clip572)" style="stroke:#000000; stroke-linecap:round; stroke-linejoin:round; stroke-width:2; stroke-opacity:0.1; fill:none" points="255.977,974.551 2352.76,974.551 "/>
<polyline clip-path="url(#clip572)" style="stroke:#000000; stroke-linecap:round; stroke-linejoin:round; stroke-width:2; stroke-opacity:0.1; fill:none" points="255.977,678.416 2352.76,678.416 "/>
<polyline clip-path="url(#clip572)" style="stroke:#000000; stroke-linecap:round; stroke-linejoin:round; stroke-width:2; stroke-opacity:0.1; fill:none" points="255.977,382.281 2352.76,382.281 "/>
<polyline clip-path="url(#clip572)" style="stroke:#000000; stroke-linecap:round; stroke-linejoin:round; stroke-width:2; stroke-opacity:0.1; fill:none" points="255.977,86.1461 2352.76,86.1461 "/>
<polyline clip-path="url(#clip570)" style="stroke:#000000; stroke-linecap:round; stroke-linejoin:round; stroke-width:4; stroke-opacity:1; fill:none" points="255.977,1423.18 2352.76,1423.18 "/>
<polyline clip-path="url(#clip570)" style="stroke:#000000; stroke-linecap:round; stroke-linejoin:round; stroke-width:4; stroke-opacity:1; fill:none" points="255.977,47.2441 2352.76,47.2441 "/>
<polyline clip-path="url(#clip570)" style="stroke:#000000; stroke-linecap:round; stroke-linejoin:round; stroke-width:4; stroke-opacity:1; fill:none" points="306.204,1423.18 306.204,1404.28 "/>
<polyline clip-path="url(#clip570)" style="stroke:#000000; stroke-linecap:round; stroke-linejoin:round; stroke-width:4; stroke-opacity:1; fill:none" points="761.986,1423.18 761.986,1404.28 "/>
<polyline clip-path="url(#clip570)" style="stroke:#000000; stroke-linecap:round; stroke-linejoin:round; stroke-width:4; stroke-opacity:1; fill:none" points="1217.77,1423.18 1217.77,1404.28 "/>
<polyline clip-path="url(#clip570)" style="stroke:#000000; stroke-linecap:round; stroke-linejoin:round; stroke-width:4; stroke-opacity:1; fill:none" points="1673.55,1423.18 1673.55,1404.28 "/>
<polyline clip-path="url(#clip570)" style="stroke:#000000; stroke-linecap:round; stroke-linejoin:round; stroke-width:4; stroke-opacity:1; fill:none" points="2129.33,1423.18 2129.33,1404.28 "/>
<polyline clip-path="url(#clip570)" style="stroke:#000000; stroke-linecap:round; stroke-linejoin:round; stroke-width:4; stroke-opacity:1; fill:none" points="306.204,47.2441 306.204,66.1417 "/>
<polyline clip-path="url(#clip570)" style="stroke:#000000; stroke-linecap:round; stroke-linejoin:round; stroke-width:4; stroke-opacity:1; fill:none" points="761.986,47.2441 761.986,66.1417 "/>
<polyline clip-path="url(#clip570)" style="stroke:#000000; stroke-linecap:round; stroke-linejoin:round; stroke-width:4; stroke-opacity:1; fill:none" points="1217.77,47.2441 1217.77,66.1417 "/>
<polyline clip-path="url(#clip570)" style="stroke:#000000; stroke-linecap:round; stroke-linejoin:round; stroke-width:4; stroke-opacity:1; fill:none" points="1673.55,47.2441 1673.55,66.1417 "/>
<polyline clip-path="url(#clip570)" style="stroke:#000000; stroke-linecap:round; stroke-linejoin:round; stroke-width:4; stroke-opacity:1; fill:none" points="2129.33,47.2441 2129.33,66.1417 "/>
<path clip-path="url(#clip570)" d="M306.204 1454.1 Q302.593 1454.1 300.765 1457.66 Q298.959 1461.2 298.959 1468.33 Q298.959 1475.44 300.765 1479.01 Q302.593 1482.55 306.204 1482.55 Q309.839 1482.55 311.644 1479.01 Q313.473 1475.44 313.473 1468.33 Q313.473 1461.2 311.644 1457.66 Q309.839 1454.1 306.204 1454.1 M306.204 1450.39 Q312.014 1450.39 315.07 1455 Q318.149 1459.58 318.149 1468.33 Q318.149 1477.06 315.07 1481.67 Q312.014 1486.25 306.204 1486.25 Q300.394 1486.25 297.315 1481.67 Q294.26 1477.06 294.26 1468.33 Q294.26 1459.58 297.315 1455 Q300.394 1450.39 306.204 1450.39 Z" fill="#000000" fill-rule="nonzero" fill-opacity="1" /><path clip-path="url(#clip570)" d="M736.685 1451.02 L755.042 1451.02 L755.042 1454.96 L740.968 1454.96 L740.968 1463.43 Q741.986 1463.08 743.005 1462.92 Q744.023 1462.73 745.042 1462.73 Q750.829 1462.73 754.208 1465.9 Q757.588 1469.08 757.588 1474.49 Q757.588 1480.07 754.116 1483.17 Q750.644 1486.25 744.324 1486.25 Q742.148 1486.25 739.88 1485.88 Q737.634 1485.51 735.227 1484.77 L735.227 1480.07 Q737.31 1481.2 739.533 1481.76 Q741.755 1482.32 744.232 1482.32 Q748.236 1482.32 750.574 1480.21 Q752.912 1478.1 752.912 1474.49 Q752.912 1470.88 750.574 1468.77 Q748.236 1466.67 744.232 1466.67 Q742.357 1466.67 740.482 1467.08 Q738.63 1467.5 736.685 1468.38 L736.685 1451.02 Z" fill="#000000" fill-rule="nonzero" fill-opacity="1" /><path clip-path="url(#clip570)" d="M776.801 1454.1 Q773.19 1454.1 771.361 1457.66 Q769.556 1461.2 769.556 1468.33 Q769.556 1475.44 771.361 1479.01 Q773.19 1482.55 776.801 1482.55 Q780.435 1482.55 782.241 1479.01 Q784.069 1475.44 784.069 1468.33 Q784.069 1461.2 782.241 1457.66 Q780.435 1454.1 776.801 1454.1 M776.801 1450.39 Q782.611 1450.39 785.667 1455 Q788.745 1459.58 788.745 1468.33 Q788.745 1477.06 785.667 1481.67 Q782.611 1486.25 776.801 1486.25 Q770.991 1486.25 767.912 1481.67 Q764.857 1477.06 764.857 1468.33 Q764.857 1459.58 767.912 1455 Q770.991 1450.39 776.801 1450.39 Z" fill="#000000" fill-rule="nonzero" fill-opacity="1" /><path clip-path="url(#clip570)" d="M1177.37 1481.64 L1185.01 1481.64 L1185.01 1455.28 L1176.7 1456.95 L1176.7 1452.69 L1184.97 1451.02 L1189.64 1451.02 L1189.64 1481.64 L1197.28 1481.64 L1197.28 1485.58 L1177.37 1485.58 L1177.37 1481.64 Z" fill="#000000" fill-rule="nonzero" fill-opacity="1" /><path clip-path="url(#clip570)" d="M1216.73 1454.1 Q1213.12 1454.1 1211.29 1457.66 Q1209.48 1461.2 1209.48 1468.33 Q1209.48 1475.44 1211.29 1479.01 Q1213.12 1482.55 1216.73 1482.55 Q1220.36 1482.55 1222.17 1479.01 Q1223.99 1475.44 1223.99 1468.33 Q1223.99 1461.2 1222.17 1457.66 Q1220.36 1454.1 1216.73 1454.1 M1216.73 1450.39 Q1222.54 1450.39 1225.59 1455 Q1228.67 1459.58 1228.67 1468.33 Q1228.67 1477.06 1225.59 1481.67 Q1222.54 1486.25 1216.73 1486.25 Q1210.92 1486.25 1207.84 1481.67 Q1204.78 1477.06 1204.78 1468.33 Q1204.78 1459.58 1207.84 1455 Q1210.92 1450.39 1216.73 1450.39 Z" fill="#000000" fill-rule="nonzero" fill-opacity="1" /><path clip-path="url(#clip570)" d="M1246.89 1454.1 Q1243.28 1454.1 1241.45 1457.66 Q1239.64 1461.2 1239.64 1468.33 Q1239.64 1475.44 1241.45 1479.01 Q1243.28 1482.55 1246.89 1482.55 Q1250.52 1482.55 1252.33 1479.01 Q1254.16 1475.44 1254.16 1468.33 Q1254.16 1461.2 1252.33 1457.66 Q1250.52 1454.1 1246.89 1454.1 M1246.89 1450.39 Q1252.7 1450.39 1255.75 1455 Q1258.83 1459.58 1258.83 1468.33 Q1258.83 1477.06 1255.75 1481.67 Q1252.7 1486.25 1246.89 1486.25 Q1241.08 1486.25 1238 1481.67 Q1234.94 1477.06 1234.94 1468.33 Q1234.94 1459.58 1238 1455 Q1241.08 1450.39 1246.89 1450.39 Z" fill="#000000" fill-rule="nonzero" fill-opacity="1" /><path clip-path="url(#clip570)" d="M1633.16 1481.64 L1640.8 1481.64 L1640.8 1455.28 L1632.49 1456.95 L1632.49 1452.69 L1640.75 1451.02 L1645.42 1451.02 L1645.42 1481.64 L1653.06 1481.64 L1653.06 1485.58 L1633.16 1485.58 L1633.16 1481.64 Z" fill="#000000" fill-rule="nonzero" fill-opacity="1" /><path clip-path="url(#clip570)" d="M1662.55 1451.02 L1680.91 1451.02 L1680.91 1454.96 L1666.84 1454.96 L1666.84 1463.43 Q1667.86 1463.08 1668.87 1462.92 Q1669.89 1462.73 1670.91 1462.73 Q1676.7 1462.73 1680.08 1465.9 Q1683.46 1469.08 1683.46 1474.49 Q1683.46 1480.07 1679.98 1483.17 Q1676.51 1486.25 1670.19 1486.25 Q1668.02 1486.25 1665.75 1485.88 Q1663.5 1485.51 1661.1 1484.77 L1661.1 1480.07 Q1663.18 1481.2 1665.4 1481.76 Q1667.62 1482.32 1670.1 1482.32 Q1674.11 1482.32 1676.44 1480.21 Q1678.78 1478.1 1678.78 1474.49 Q1678.78 1470.88 1676.44 1468.77 Q1674.11 1466.67 1670.1 1466.67 Q1668.23 1466.67 1666.35 1467.08 Q1664.5 1467.5 1662.55 1468.38 L1662.55 1451.02 Z" fill="#000000" fill-rule="nonzero" fill-opacity="1" /><path clip-path="url(#clip570)" d="M1702.67 1454.1 Q1699.06 1454.1 1697.23 1457.66 Q1695.42 1461.2 1695.42 1468.33 Q1695.42 1475.44 1697.23 1479.01 Q1699.06 1482.55 1702.67 1482.55 Q1706.3 1482.55 1708.11 1479.01 Q1709.94 1475.44 1709.94 1468.33 Q1709.94 1461.2 1708.11 1457.66 Q1706.3 1454.1 1702.67 1454.1 M1702.67 1450.39 Q1708.48 1450.39 1711.54 1455 Q1714.61 1459.58 1714.61 1468.33 Q1714.61 1477.06 1711.54 1481.67 Q1708.48 1486.25 1702.67 1486.25 Q1696.86 1486.25 1693.78 1481.67 Q1690.73 1477.06 1690.73 1468.33 Q1690.73 1459.58 1693.78 1455 Q1696.86 1450.39 1702.67 1450.39 Z" fill="#000000" fill-rule="nonzero" fill-opacity="1" /><path clip-path="url(#clip570)" d="M2093.02 1481.64 L2109.34 1481.64 L2109.34 1485.58 L2087.4 1485.58 L2087.4 1481.64 Q2090.06 1478.89 2094.64 1474.26 Q2099.25 1469.61 2100.43 1468.27 Q2102.68 1465.74 2103.56 1464.01 Q2104.46 1462.25 2104.46 1460.56 Q2104.46 1457.8 2102.51 1456.07 Q2100.59 1454.33 2097.49 1454.33 Q2095.29 1454.33 2092.84 1455.09 Q2090.41 1455.86 2087.63 1457.41 L2087.63 1452.69 Q2090.45 1451.55 2092.91 1450.97 Q2095.36 1450.39 2097.4 1450.39 Q2102.77 1450.39 2105.96 1453.08 Q2109.16 1455.77 2109.16 1460.26 Q2109.16 1462.39 2108.35 1464.31 Q2107.56 1466.2 2105.45 1468.8 Q2104.88 1469.47 2101.77 1472.69 Q2098.67 1475.88 2093.02 1481.64 Z" fill="#000000" fill-rule="nonzero" fill-opacity="1" /><path clip-path="url(#clip570)" d="M2129.16 1454.1 Q2125.55 1454.1 2123.72 1457.66 Q2121.91 1461.2 2121.91 1468.33 Q2121.91 1475.44 2123.72 1479.01 Q2125.55 1482.55 2129.16 1482.55 Q2132.79 1482.55 2134.6 1479.01 Q2136.43 1475.44 2136.43 1468.33 Q2136.43 1461.2 2134.6 1457.66 Q2132.79 1454.1 2129.16 1454.1 M2129.16 1450.39 Q2134.97 1450.39 2138.02 1455 Q2141.1 1459.58 2141.1 1468.33 Q2141.1 1477.06 2138.02 1481.67 Q2134.97 1486.25 2129.16 1486.25 Q2123.35 1486.25 2120.27 1481.67 Q2117.21 1477.06 2117.21 1468.33 Q2117.21 1459.58 2120.27 1455 Q2123.35 1450.39 2129.16 1450.39 Z" fill="#000000" fill-rule="nonzero" fill-opacity="1" /><path clip-path="url(#clip570)" d="M2159.32 1454.1 Q2155.71 1454.1 2153.88 1457.66 Q2152.07 1461.2 2152.07 1468.33 Q2152.07 1475.44 2153.88 1479.01 Q2155.71 1482.55 2159.32 1482.55 Q2162.95 1482.55 2164.76 1479.01 Q2166.59 1475.44 2166.59 1468.33 Q2166.59 1461.2 2164.76 1457.66 Q2162.95 1454.1 2159.32 1454.1 M2159.32 1450.39 Q2165.13 1450.39 2168.19 1455 Q2171.26 1459.58 2171.26 1468.33 Q2171.26 1477.06 2168.19 1481.67 Q2165.13 1486.25 2159.32 1486.25 Q2153.51 1486.25 2150.43 1481.67 Q2147.38 1477.06 2147.38 1468.33 Q2147.38 1459.58 2150.43 1455 Q2153.51 1450.39 2159.32 1450.39 Z" fill="#000000" fill-rule="nonzero" fill-opacity="1" /><path clip-path="url(#clip570)" d="M1028.21 1520.52 L1034.64 1520.52 L1034.64 1562.63 L1057.77 1562.63 L1057.77 1568.04 L1028.21 1568.04 L1028.21 1520.52 Z" fill="#000000" fill-rule="nonzero" fill-opacity="1" /><path clip-path="url(#clip570)" d="M1080.47 1550.12 Q1073.37 1550.12 1070.63 1551.75 Q1067.9 1553.37 1067.9 1557.29 Q1067.9 1560.4 1069.93 1562.25 Q1072 1564.07 1075.54 1564.07 Q1080.41 1564.07 1083.33 1560.63 Q1086.29 1557.16 1086.29 1551.43 L1086.29 1550.12 L1080.47 1550.12 M1092.15 1547.71 L1092.15 1568.04 L1086.29 1568.04 L1086.29 1562.63 Q1084.29 1565.88 1081.3 1567.44 Q1078.3 1568.97 1073.98 1568.97 Q1068.5 1568.97 1065.25 1565.91 Q1062.04 1562.82 1062.04 1557.67 Q1062.04 1551.65 1066.05 1548.6 Q1070.09 1545.54 1078.08 1545.54 L1086.29 1545.54 L1086.29 1544.97 Q1086.29 1540.93 1083.62 1538.73 Q1080.98 1536.5 1076.17 1536.5 Q1073.12 1536.5 1070.22 1537.23 Q1067.32 1537.97 1064.65 1539.43 L1064.65 1534.02 Q1067.86 1532.78 1070.89 1532.17 Q1073.91 1531.54 1076.78 1531.54 Q1084.51 1531.54 1088.33 1535.55 Q1092.15 1539.56 1092.15 1547.71 Z" fill="#000000" fill-rule="nonzero" fill-opacity="1" /><path clip-path="url(#clip570)" d="M1127.67 1549.81 Q1127.67 1543.44 1125.03 1539.94 Q1122.42 1536.44 1117.68 1536.44 Q1112.97 1536.44 1110.32 1539.94 Q1107.71 1543.44 1107.71 1549.81 Q1107.71 1556.14 1110.32 1559.64 Q1112.97 1563.14 1117.68 1563.14 Q1122.42 1563.14 1125.03 1559.64 Q1127.67 1556.14 1127.67 1549.81 M1133.53 1563.62 Q1133.53 1572.72 1129.48 1577.15 Q1125.44 1581.6 1117.1 1581.6 Q1114.02 1581.6 1111.28 1581.13 Q1108.54 1580.68 1105.96 1579.72 L1105.96 1574.03 Q1108.54 1575.43 1111.06 1576.1 Q1113.57 1576.76 1116.18 1576.76 Q1121.94 1576.76 1124.81 1573.74 Q1127.67 1570.75 1127.67 1564.67 L1127.67 1561.77 Q1125.86 1564.92 1123.02 1566.48 Q1120.19 1568.04 1116.24 1568.04 Q1109.69 1568.04 1105.68 1563.05 Q1101.67 1558.05 1101.67 1549.81 Q1101.67 1541.53 1105.68 1536.53 Q1109.69 1531.54 1116.24 1531.54 Q1120.19 1531.54 1123.02 1533.1 Q1125.86 1534.66 1127.67 1537.81 L1127.67 1532.4 L1133.53 1532.4 L1133.53 1563.62 Z" fill="#000000" fill-rule="nonzero" fill-opacity="1" /><path clip-path="url(#clip570)" d="M1180.38 1518.58 Q1176.11 1525.9 1174.04 1533.06 Q1171.98 1540.23 1171.98 1547.58 Q1171.98 1554.93 1174.04 1562.16 Q1176.15 1569.35 1180.38 1576.64 L1175.29 1576.64 Q1170.51 1569.16 1168.12 1561.93 Q1165.77 1554.71 1165.77 1547.58 Q1165.77 1540.48 1168.12 1533.29 Q1170.48 1526.09 1175.29 1518.58 L1180.38 1518.58 Z" fill="#000000" fill-rule="nonzero" fill-opacity="1" /><path clip-path="url(#clip570)" d="M1197.53 1522.27 L1197.53 1532.4 L1209.6 1532.4 L1209.6 1536.95 L1197.53 1536.95 L1197.53 1556.3 Q1197.53 1560.66 1198.71 1561.9 Q1199.92 1563.14 1203.58 1563.14 L1209.6 1563.14 L1209.6 1568.04 L1203.58 1568.04 Q1196.8 1568.04 1194.22 1565.53 Q1191.65 1562.98 1191.65 1556.3 L1191.65 1536.95 L1187.35 1536.95 L1187.35 1532.4 L1191.65 1532.4 L1191.65 1522.27 L1197.53 1522.27 Z" fill="#000000" fill-rule="nonzero" fill-opacity="1" /><path clip-path="url(#clip570)" d="M1237.96 1537.87 Q1236.97 1537.3 1235.79 1537.04 Q1234.65 1536.76 1233.25 1536.76 Q1228.28 1536.76 1225.61 1540 Q1222.97 1543.22 1222.97 1549.27 L1222.97 1568.04 L1217.08 1568.04 L1217.08 1532.4 L1222.97 1532.4 L1222.97 1537.93 Q1224.81 1534.69 1227.77 1533.13 Q1230.73 1531.54 1234.96 1531.54 Q1235.57 1531.54 1236.3 1531.63 Q1237.03 1531.7 1237.92 1531.85 L1237.96 1537.87 Z" fill="#000000" fill-rule="nonzero" fill-opacity="1" /><path clip-path="url(#clip570)" d="M1260.3 1550.12 Q1253.2 1550.12 1250.46 1551.75 Q1247.73 1553.37 1247.73 1557.29 Q1247.73 1560.4 1249.76 1562.25 Q1251.83 1564.07 1255.37 1564.07 Q1260.24 1564.07 1263.16 1560.63 Q1266.12 1557.16 1266.12 1551.43 L1266.12 1550.12 L1260.3 1550.12 M1271.98 1547.71 L1271.98 1568.04 L1266.12 1568.04 L1266.12 1562.63 Q1264.12 1565.88 1261.13 1567.44 Q1258.14 1568.97 1253.81 1568.97 Q1248.33 1568.97 1245.09 1565.91 Q1241.87 1562.82 1241.87 1557.67 Q1241.87 1551.65 1245.88 1548.6 Q1249.92 1545.54 1257.91 1545.54 L1266.12 1545.54 L1266.12 1544.97 Q1266.12 1540.93 1263.45 1538.73 Q1260.81 1536.5 1256 1536.5 Q1252.95 1536.5 1250.05 1537.23 Q1247.15 1537.97 1244.48 1539.43 L1244.48 1534.02 Q1247.7 1532.78 1250.72 1532.17 Q1253.74 1531.54 1256.61 1531.54 Q1264.34 1531.54 1268.16 1535.55 Q1271.98 1539.56 1271.98 1547.71 Z" fill="#000000" fill-rule="nonzero" fill-opacity="1" /><path clip-path="url(#clip570)" d="M1307.5 1537.81 L1307.5 1518.52 L1313.36 1518.52 L1313.36 1568.04 L1307.5 1568.04 L1307.5 1562.7 Q1305.66 1565.88 1302.82 1567.44 Q1300.02 1568.97 1296.08 1568.97 Q1289.61 1568.97 1285.54 1563.81 Q1281.5 1558.65 1281.5 1550.25 Q1281.5 1541.85 1285.54 1536.69 Q1289.61 1531.54 1296.08 1531.54 Q1300.02 1531.54 1302.82 1533.1 Q1305.66 1534.62 1307.5 1537.81 M1287.55 1550.25 Q1287.55 1556.71 1290.19 1560.4 Q1292.86 1564.07 1297.51 1564.07 Q1302.15 1564.07 1304.83 1560.4 Q1307.5 1556.71 1307.5 1550.25 Q1307.5 1543.79 1304.83 1540.13 Q1302.15 1536.44 1297.51 1536.44 Q1292.86 1536.44 1290.19 1540.13 Q1287.55 1543.79 1287.55 1550.25 Z" fill="#000000" fill-rule="nonzero" fill-opacity="1" /><path clip-path="url(#clip570)" d="M1325.42 1532.4 L1331.28 1532.4 L1331.28 1568.04 L1325.42 1568.04 L1325.42 1532.4 M1325.42 1518.52 L1331.28 1518.52 L1331.28 1525.93 L1325.42 1525.93 L1325.42 1518.52 Z" fill="#000000" fill-rule="nonzero" fill-opacity="1" /><path clip-path="url(#clip570)" d="M1373.16 1546.53 L1373.16 1568.04 L1367.31 1568.04 L1367.31 1546.72 Q1367.31 1541.66 1365.33 1539.14 Q1363.36 1536.63 1359.41 1536.63 Q1354.67 1536.63 1351.93 1539.65 Q1349.2 1542.68 1349.2 1547.9 L1349.2 1568.04 L1343.31 1568.04 L1343.31 1532.4 L1349.2 1532.4 L1349.2 1537.93 Q1351.3 1534.72 1354.13 1533.13 Q1357 1531.54 1360.72 1531.54 Q1366.86 1531.54 1370.01 1535.36 Q1373.16 1539.14 1373.16 1546.53 Z" fill="#000000" fill-rule="nonzero" fill-opacity="1" /><path clip-path="url(#clip570)" d="M1408.3 1549.81 Q1408.3 1543.44 1405.66 1539.94 Q1403.05 1536.44 1398.31 1536.44 Q1393.6 1536.44 1390.96 1539.94 Q1388.35 1543.44 1388.35 1549.81 Q1388.35 1556.14 1390.96 1559.64 Q1393.6 1563.14 1398.31 1563.14 Q1403.05 1563.14 1405.66 1559.64 Q1408.3 1556.14 1408.3 1549.81 M1414.16 1563.62 Q1414.16 1572.72 1410.12 1577.15 Q1406.07 1581.6 1397.74 1581.6 Q1394.65 1581.6 1391.91 1581.13 Q1389.17 1580.68 1386.6 1579.72 L1386.6 1574.03 Q1389.17 1575.43 1391.69 1576.1 Q1394.2 1576.76 1396.81 1576.76 Q1402.57 1576.76 1405.44 1573.74 Q1408.3 1570.75 1408.3 1564.67 L1408.3 1561.77 Q1406.49 1564.92 1403.66 1566.48 Q1400.82 1568.04 1396.88 1568.04 Q1390.32 1568.04 1386.31 1563.05 Q1382.3 1558.05 1382.3 1549.81 Q1382.3 1541.53 1386.31 1536.53 Q1390.32 1531.54 1396.88 1531.54 Q1400.82 1531.54 1403.66 1533.1 Q1406.49 1534.66 1408.3 1537.81 L1408.3 1532.4 L1414.16 1532.4 L1414.16 1563.62 Z" fill="#000000" fill-rule="nonzero" fill-opacity="1" /><path clip-path="url(#clip570)" d="M1470.4 1537.81 L1470.4 1518.52 L1476.26 1518.52 L1476.26 1568.04 L1470.4 1568.04 L1470.4 1562.7 Q1468.55 1565.88 1465.72 1567.44 Q1462.92 1568.97 1458.97 1568.97 Q1452.51 1568.97 1448.44 1563.81 Q1444.4 1558.65 1444.4 1550.25 Q1444.4 1541.85 1448.44 1536.69 Q1452.51 1531.54 1458.97 1531.54 Q1462.92 1531.54 1465.72 1533.1 Q1468.55 1534.62 1470.4 1537.81 M1450.44 1550.25 Q1450.44 1556.71 1453.09 1560.4 Q1455.76 1564.07 1460.41 1564.07 Q1465.05 1564.07 1467.73 1560.4 Q1470.4 1556.71 1470.4 1550.25 Q1470.4 1543.79 1467.73 1540.13 Q1465.05 1536.44 1460.41 1536.44 Q1455.76 1536.44 1453.09 1540.13 Q1450.44 1543.79 1450.44 1550.25 Z" fill="#000000" fill-rule="nonzero" fill-opacity="1" /><path clip-path="url(#clip570)" d="M1504.52 1550.12 Q1497.42 1550.12 1494.69 1551.75 Q1491.95 1553.37 1491.95 1557.29 Q1491.95 1560.4 1493.99 1562.25 Q1496.05 1564.07 1499.59 1564.07 Q1504.46 1564.07 1507.38 1560.63 Q1510.34 1557.16 1510.34 1551.43 L1510.34 1550.12 L1504.52 1550.12 M1516.2 1547.71 L1516.2 1568.04 L1510.34 1568.04 L1510.34 1562.63 Q1508.34 1565.88 1505.35 1567.44 Q1502.36 1568.97 1498.03 1568.97 Q1492.55 1568.97 1489.31 1565.91 Q1486.09 1562.82 1486.09 1557.67 Q1486.09 1551.65 1490.1 1548.6 Q1494.14 1545.54 1502.13 1545.54 L1510.34 1545.54 L1510.34 1544.97 Q1510.34 1540.93 1507.67 1538.73 Q1505.03 1536.5 1500.22 1536.5 Q1497.17 1536.5 1494.27 1537.23 Q1491.38 1537.97 1488.7 1539.43 L1488.7 1534.02 Q1491.92 1532.78 1494.94 1532.17 Q1497.96 1531.54 1500.83 1531.54 Q1508.56 1531.54 1512.38 1535.55 Q1516.2 1539.56 1516.2 1547.71 Z" fill="#000000" fill-rule="nonzero" fill-opacity="1" /><path clip-path="url(#clip570)" d="M1543.1 1571.35 Q1540.61 1577.72 1538.26 1579.66 Q1535.9 1581.6 1531.96 1581.6 L1527.28 1581.6 L1527.28 1576.7 L1530.72 1576.7 Q1533.13 1576.7 1534.47 1575.56 Q1535.81 1574.41 1537.43 1570.14 L1538.48 1567.47 L1524.06 1532.4 L1530.27 1532.4 L1541.41 1560.28 L1552.55 1532.4 L1558.76 1532.4 L1543.1 1571.35 Z" fill="#000000" fill-rule="nonzero" fill-opacity="1" /><path clip-path="url(#clip570)" d="M1565.92 1518.58 L1571.01 1518.58 Q1575.78 1526.09 1578.14 1533.29 Q1580.53 1540.48 1580.53 1547.58 Q1580.53 1554.71 1578.14 1561.93 Q1575.78 1569.16 1571.01 1576.64 L1565.92 1576.64 Q1570.15 1569.35 1572.22 1562.16 Q1574.32 1554.93 1574.32 1547.58 Q1574.32 1540.23 1572.22 1533.06 Q1570.15 1525.9 1565.92 1518.58 Z" fill="#000000" fill-rule="nonzero" fill-opacity="1" /><polyline clip-path="url(#clip570)" style="stroke:#000000; stroke-linecap:round; stroke-linejoin:round; stroke-width:4; stroke-opacity:1; fill:none" points="255.977,1423.18 255.977,47.2441 "/>
<polyline clip-path="url(#clip570)" style="stroke:#000000; stroke-linecap:round; stroke-linejoin:round; stroke-width:4; stroke-opacity:1; fill:none" points="2352.76,1423.18 2352.76,47.2441 "/>
<polyline clip-path="url(#clip570)" style="stroke:#000000; stroke-linecap:round; stroke-linejoin:round; stroke-width:4; stroke-opacity:1; fill:none" points="255.977,1270.69 274.875,1270.69 "/>
<polyline clip-path="url(#clip570)" style="stroke:#000000; stroke-linecap:round; stroke-linejoin:round; stroke-width:4; stroke-opacity:1; fill:none" points="255.977,974.551 274.875,974.551 "/>
<polyline clip-path="url(#clip570)" style="stroke:#000000; stroke-linecap:round; stroke-linejoin:round; stroke-width:4; stroke-opacity:1; fill:none" points="255.977,678.416 274.875,678.416 "/>
<polyline clip-path="url(#clip570)" style="stroke:#000000; stroke-linecap:round; stroke-linejoin:round; stroke-width:4; stroke-opacity:1; fill:none" points="255.977,382.281 274.875,382.281 "/>
<polyline clip-path="url(#clip570)" style="stroke:#000000; stroke-linecap:round; stroke-linejoin:round; stroke-width:4; stroke-opacity:1; fill:none" points="255.977,86.1461 274.875,86.1461 "/>
<polyline clip-path="url(#clip570)" style="stroke:#000000; stroke-linecap:round; stroke-linejoin:round; stroke-width:4; stroke-opacity:1; fill:none" points="2352.76,1270.69 2333.86,1270.69 "/>
<polyline clip-path="url(#clip570)" style="stroke:#000000; stroke-linecap:round; stroke-linejoin:round; stroke-width:4; stroke-opacity:1; fill:none" points="2352.76,974.551 2333.86,974.551 "/>
<polyline clip-path="url(#clip570)" style="stroke:#000000; stroke-linecap:round; stroke-linejoin:round; stroke-width:4; stroke-opacity:1; fill:none" points="2352.76,678.416 2333.86,678.416 "/>
<polyline clip-path="url(#clip570)" style="stroke:#000000; stroke-linecap:round; stroke-linejoin:round; stroke-width:4; stroke-opacity:1; fill:none" points="2352.76,382.281 2333.86,382.281 "/>
<polyline clip-path="url(#clip570)" style="stroke:#000000; stroke-linecap:round; stroke-linejoin:round; stroke-width:4; stroke-opacity:1; fill:none" points="2352.76,86.1461 2333.86,86.1461 "/>
<path clip-path="url(#clip570)" d="M114.26 1271.14 L143.936 1271.14 L143.936 1275.07 L114.26 1275.07 L114.26 1271.14 Z" fill="#000000" fill-rule="nonzero" fill-opacity="1" /><path clip-path="url(#clip570)" d="M164.028 1256.49 Q160.417 1256.49 158.589 1260.05 Q156.783 1263.59 156.783 1270.72 Q156.783 1277.83 158.589 1281.39 Q160.417 1284.93 164.028 1284.93 Q167.663 1284.93 169.468 1281.39 Q171.297 1277.83 171.297 1270.72 Q171.297 1263.59 169.468 1260.05 Q167.663 1256.49 164.028 1256.49 M164.028 1252.78 Q169.839 1252.78 172.894 1257.39 Q175.973 1261.97 175.973 1270.72 Q175.973 1279.45 172.894 1284.05 Q169.839 1288.64 164.028 1288.64 Q158.218 1288.64 155.14 1284.05 Q152.084 1279.45 152.084 1270.72 Q152.084 1261.97 155.14 1257.39 Q158.218 1252.78 164.028 1252.78 Z" fill="#000000" fill-rule="nonzero" fill-opacity="1" /><path clip-path="url(#clip570)" d="M184.19 1282.09 L189.075 1282.09 L189.075 1287.97 L184.19 1287.97 L184.19 1282.09 Z" fill="#000000" fill-rule="nonzero" fill-opacity="1" /><path clip-path="url(#clip570)" d="M200.07 1284.03 L207.709 1284.03 L207.709 1257.67 L199.399 1259.33 L199.399 1255.07 L207.662 1253.41 L212.338 1253.41 L212.338 1284.03 L219.977 1284.03 L219.977 1287.97 L200.07 1287.97 L200.07 1284.03 Z" fill="#000000" fill-rule="nonzero" fill-opacity="1" /><path clip-path="url(#clip570)" d="M162.802 960.35 Q159.19 960.35 157.362 963.915 Q155.556 967.457 155.556 974.586 Q155.556 981.693 157.362 985.257 Q159.19 988.799 162.802 988.799 Q166.436 988.799 168.241 985.257 Q170.07 981.693 170.07 974.586 Q170.07 967.457 168.241 963.915 Q166.436 960.35 162.802 960.35 M162.802 956.646 Q168.612 956.646 171.667 961.253 Q174.746 965.836 174.746 974.586 Q174.746 983.313 171.667 987.919 Q168.612 992.503 162.802 992.503 Q156.991 992.503 153.913 987.919 Q150.857 983.313 150.857 974.586 Q150.857 965.836 153.913 961.253 Q156.991 956.646 162.802 956.646 Z" fill="#000000" fill-rule="nonzero" fill-opacity="1" /><path clip-path="url(#clip570)" d="M182.963 985.952 L187.848 985.952 L187.848 991.831 L182.963 991.831 L182.963 985.952 Z" fill="#000000" fill-rule="nonzero" fill-opacity="1" /><path clip-path="url(#clip570)" d="M208.033 960.35 Q204.422 960.35 202.593 963.915 Q200.787 967.457 200.787 974.586 Q200.787 981.693 202.593 985.257 Q204.422 988.799 208.033 988.799 Q211.667 988.799 213.473 985.257 Q215.301 981.693 215.301 974.586 Q215.301 967.457 213.473 963.915 Q211.667 960.35 208.033 960.35 M208.033 956.646 Q213.843 956.646 216.898 961.253 Q219.977 965.836 219.977 974.586 Q219.977 983.313 216.898 987.919 Q213.843 992.503 208.033 992.503 Q202.223 992.503 199.144 987.919 Q196.088 983.313 196.088 974.586 Q196.088 965.836 199.144 961.253 Q202.223 956.646 208.033 956.646 Z" fill="#000000" fill-rule="nonzero" fill-opacity="1" /><path clip-path="url(#clip570)" d="M164.028 664.215 Q160.417 664.215 158.589 667.78 Q156.783 671.321 156.783 678.451 Q156.783 685.557 158.589 689.122 Q160.417 692.664 164.028 692.664 Q167.663 692.664 169.468 689.122 Q171.297 685.557 171.297 678.451 Q171.297 671.321 169.468 667.78 Q167.663 664.215 164.028 664.215 M164.028 660.511 Q169.839 660.511 172.894 665.118 Q175.973 669.701 175.973 678.451 Q175.973 687.178 172.894 691.784 Q169.839 696.368 164.028 696.368 Q158.218 696.368 155.14 691.784 Q152.084 687.178 152.084 678.451 Q152.084 669.701 155.14 665.118 Q158.218 660.511 164.028 660.511 Z" fill="#000000" fill-rule="nonzero" fill-opacity="1" /><path clip-path="url(#clip570)" d="M184.19 689.817 L189.075 689.817 L189.075 695.696 L184.19 695.696 L184.19 689.817 Z" fill="#000000" fill-rule="nonzero" fill-opacity="1" /><path clip-path="url(#clip570)" d="M200.07 691.761 L207.709 691.761 L207.709 665.396 L199.399 667.062 L199.399 662.803 L207.662 661.136 L212.338 661.136 L212.338 691.761 L219.977 691.761 L219.977 695.696 L200.07 695.696 L200.07 691.761 Z" fill="#000000" fill-rule="nonzero" fill-opacity="1" /><path clip-path="url(#clip570)" d="M164.399 368.08 Q160.788 368.08 158.959 371.645 Q157.153 375.186 157.153 382.316 Q157.153 389.422 158.959 392.987 Q160.788 396.529 164.399 396.529 Q168.033 396.529 169.839 392.987 Q171.667 389.422 171.667 382.316 Q171.667 375.186 169.839 371.645 Q168.033 368.08 164.399 368.08 M164.399 364.376 Q170.209 364.376 173.264 368.983 Q176.343 373.566 176.343 382.316 Q176.343 391.043 173.264 395.649 Q170.209 400.232 164.399 400.232 Q158.589 400.232 155.51 395.649 Q152.454 391.043 152.454 382.316 Q152.454 373.566 155.51 368.983 Q158.589 364.376 164.399 364.376 Z" fill="#000000" fill-rule="nonzero" fill-opacity="1" /><path clip-path="url(#clip570)" d="M184.561 393.682 L189.445 393.682 L189.445 399.561 L184.561 399.561 L184.561 393.682 Z" fill="#000000" fill-rule="nonzero" fill-opacity="1" /><path clip-path="url(#clip570)" d="M203.658 395.626 L219.977 395.626 L219.977 399.561 L198.033 399.561 L198.033 395.626 Q200.695 392.871 205.278 388.242 Q209.885 383.589 211.065 382.246 Q213.311 379.723 214.19 377.987 Q215.093 376.228 215.093 374.538 Q215.093 371.784 213.149 370.047 Q211.227 368.311 208.125 368.311 Q205.926 368.311 203.473 369.075 Q201.042 369.839 198.264 371.39 L198.264 366.668 Q201.088 365.534 203.542 364.955 Q205.996 364.376 208.033 364.376 Q213.403 364.376 216.598 367.061 Q219.792 369.747 219.792 374.237 Q219.792 376.367 218.982 378.288 Q218.195 380.186 216.088 382.779 Q215.51 383.45 212.408 386.668 Q209.306 389.862 203.658 395.626 Z" fill="#000000" fill-rule="nonzero" fill-opacity="1" /><path clip-path="url(#clip570)" d="M163.45 71.9447 Q159.839 71.9447 158.01 75.5095 Q156.204 79.0512 156.204 86.1808 Q156.204 93.2872 158.01 96.852 Q159.839 100.394 163.45 100.394 Q167.084 100.394 168.889 96.852 Q170.718 93.2872 170.718 86.1808 Q170.718 79.0512 168.889 75.5095 Q167.084 71.9447 163.45 71.9447 M163.45 68.2411 Q169.26 68.2411 172.315 72.8475 Q175.394 77.4308 175.394 86.1808 Q175.394 94.9076 172.315 99.514 Q169.26 104.097 163.45 104.097 Q157.64 104.097 154.561 99.514 Q151.505 94.9076 151.505 86.1808 Q151.505 77.4308 154.561 72.8475 Q157.64 68.2411 163.45 68.2411 Z" fill="#000000" fill-rule="nonzero" fill-opacity="1" /><path clip-path="url(#clip570)" d="M183.612 97.5465 L188.496 97.5465 L188.496 103.426 L183.612 103.426 L183.612 97.5465 Z" fill="#000000" fill-rule="nonzero" fill-opacity="1" /><path clip-path="url(#clip570)" d="M212.848 84.7919 Q216.204 85.5095 218.079 87.778 Q219.977 90.0465 219.977 93.3798 Q219.977 98.4955 216.459 101.296 Q212.94 104.097 206.459 104.097 Q204.283 104.097 201.968 103.658 Q199.676 103.241 197.223 102.384 L197.223 97.8705 Q199.167 99.0048 201.482 99.5835 Q203.797 100.162 206.32 100.162 Q210.718 100.162 213.01 98.4261 Q215.324 96.69 215.324 93.3798 Q215.324 90.3243 213.172 88.6113 Q211.042 86.8752 207.223 86.8752 L203.195 86.8752 L203.195 83.0326 L207.408 83.0326 Q210.857 83.0326 212.686 81.6669 Q214.514 80.278 214.514 77.6854 Q214.514 75.0234 212.616 73.6114 Q210.741 72.1762 207.223 72.1762 Q205.301 72.1762 203.102 72.5929 Q200.903 73.0095 198.264 73.8892 L198.264 69.7225 Q200.926 68.9818 203.241 68.6114 Q205.579 68.2411 207.639 68.2411 Q212.963 68.2411 216.065 70.6716 Q219.167 73.079 219.167 77.1993 Q219.167 80.0697 217.523 82.0604 Q215.88 84.028 212.848 84.7919 Z" fill="#000000" fill-rule="nonzero" fill-opacity="1" /><path clip-path="url(#clip570)" d="M22.818 1259.27 L46.4666 1267.99 L46.4666 1250.52 L22.818 1259.27 M16.4842 1262.9 L16.4842 1255.61 L64.0042 1237.5 L64.0042 1244.18 L51.8138 1248.51 L51.8138 1269.93 L64.0042 1274.26 L64.0042 1281.04 L16.4842 1262.9 Z" fill="#000000" fill-rule="nonzero" fill-opacity="1" /><path clip-path="url(#clip570)" d="M49.9359 1231.42 L28.3562 1231.42 L28.3562 1225.56 L49.7131 1225.56 Q54.7739 1225.56 57.3202 1223.59 Q59.8346 1221.62 59.8346 1217.67 Q59.8346 1212.93 56.8109 1210.19 Q53.7872 1207.42 48.5673 1207.42 L28.3562 1207.42 L28.3562 1201.56 L64.0042 1201.56 L64.0042 1207.42 L58.5296 1207.42 Q61.7762 1209.55 63.3676 1212.39 Q64.9272 1215.19 64.9272 1218.91 Q64.9272 1225.05 61.1078 1228.24 Q57.2883 1231.42 49.9359 1231.42 M27.4968 1216.68 L27.4968 1216.68 Z" fill="#000000" fill-rule="nonzero" fill-opacity="1" /><path clip-path="url(#clip570)" d="M18.2347 1183.71 L28.3562 1183.71 L28.3562 1171.64 L32.9077 1171.64 L32.9077 1183.71 L52.2594 1183.71 Q56.6199 1183.71 57.8613 1182.53 Q59.1026 1181.32 59.1026 1177.66 L59.1026 1171.64 L64.0042 1171.64 L64.0042 1177.66 Q64.0042 1184.44 61.4897 1187.02 Q58.9434 1189.6 52.2594 1189.6 L32.9077 1189.6 L32.9077 1193.89 L28.3562 1193.89 L28.3562 1189.6 L18.2347 1189.6 L18.2347 1183.71 Z" fill="#000000" fill-rule="nonzero" fill-opacity="1" /><path clip-path="url(#clip570)" d="M32.4621 1150.13 Q32.4621 1154.84 36.1542 1157.58 Q39.8145 1160.31 46.212 1160.31 Q52.6095 1160.31 56.3017 1157.61 Q59.9619 1154.87 59.9619 1150.13 Q59.9619 1145.45 56.2698 1142.71 Q52.5777 1139.98 46.212 1139.98 Q39.8781 1139.98 36.186 1142.71 Q32.4621 1145.45 32.4621 1150.13 M27.4968 1150.13 Q27.4968 1142.49 32.4621 1138.13 Q37.4273 1133.77 46.212 1133.77 Q54.9649 1133.77 59.9619 1138.13 Q64.9272 1142.49 64.9272 1150.13 Q64.9272 1157.8 59.9619 1162.16 Q54.9649 1166.49 46.212 1166.49 Q37.4273 1166.49 32.4621 1162.16 Q27.4968 1157.8 27.4968 1150.13 Z" fill="#000000" fill-rule="nonzero" fill-opacity="1" /><path clip-path="url(#clip570)" d="M29.7248 1098.41 L35.1993 1098.41 Q33.8307 1100.89 33.1623 1103.4 Q32.4621 1105.89 32.4621 1108.43 Q32.4621 1114.13 36.0905 1117.28 Q39.6872 1120.43 46.212 1120.43 Q52.7369 1120.43 56.3653 1117.28 Q59.9619 1114.13 59.9619 1108.43 Q59.9619 1105.89 59.2935 1103.4 Q58.5933 1100.89 57.2247 1098.41 L62.6355 1098.41 Q63.7814 1100.86 64.3543 1103.5 Q64.9272 1106.11 64.9272 1109.07 Q64.9272 1117.12 59.8664 1121.86 Q54.8057 1126.61 46.212 1126.61 Q37.491 1126.61 32.4939 1121.83 Q27.4968 1117.03 27.4968 1108.69 Q27.4968 1105.98 28.0697 1103.4 Q28.6108 1100.83 29.7248 1098.41 Z" fill="#000000" fill-rule="nonzero" fill-opacity="1" /><path clip-path="url(#clip570)" d="M32.4621 1074.41 Q32.4621 1079.12 36.1542 1081.86 Q39.8145 1084.59 46.212 1084.59 Q52.6095 1084.59 56.3017 1081.89 Q59.9619 1079.15 59.9619 1074.41 Q59.9619 1069.73 56.2698 1066.99 Q52.5777 1064.26 46.212 1064.26 Q39.8781 1064.26 36.186 1066.99 Q32.4621 1069.73 32.4621 1074.41 M27.4968 1074.41 Q27.4968 1066.77 32.4621 1062.41 Q37.4273 1058.05 46.212 1058.05 Q54.9649 1058.05 59.9619 1062.41 Q64.9272 1066.77 64.9272 1074.41 Q64.9272 1082.08 59.9619 1086.44 Q54.9649 1090.77 46.212 1090.77 Q37.4273 1090.77 32.4621 1086.44 Q27.4968 1082.08 27.4968 1074.41 Z" fill="#000000" fill-rule="nonzero" fill-opacity="1" /><path clip-path="url(#clip570)" d="M33.8307 1027.68 Q33.2578 1028.67 33.0032 1029.85 Q32.7167 1030.99 32.7167 1032.39 Q32.7167 1037.36 35.9632 1040.03 Q39.1779 1042.68 45.2253 1042.68 L64.0042 1042.68 L64.0042 1048.56 L28.3562 1048.56 L28.3562 1042.68 L33.8944 1042.68 Q30.6479 1040.83 29.0883 1037.87 Q27.4968 1034.91 27.4968 1030.68 Q27.4968 1030.07 27.5923 1029.34 Q27.656 1028.61 27.8151 1027.72 L33.8307 1027.68 Z" fill="#000000" fill-rule="nonzero" fill-opacity="1" /><path clip-path="url(#clip570)" d="M33.8307 1002.03 Q33.2578 1003.02 33.0032 1004.19 Q32.7167 1005.34 32.7167 1006.74 Q32.7167 1011.71 35.9632 1014.38 Q39.1779 1017.02 45.2253 1017.02 L64.0042 1017.02 L64.0042 1022.91 L28.3562 1022.91 L28.3562 1017.02 L33.8944 1017.02 Q30.6479 1015.18 29.0883 1012.22 Q27.4968 1009.26 27.4968 1005.02 Q27.4968 1004.42 27.5923 1003.69 Q27.656 1002.95 27.8151 1002.06 L33.8307 1002.03 Z" fill="#000000" fill-rule="nonzero" fill-opacity="1" /><path clip-path="url(#clip570)" d="M44.7161 966.828 L47.5806 966.828 L47.5806 993.755 Q53.6281 993.373 56.8109 990.127 Q59.9619 986.848 59.9619 981.024 Q59.9619 977.65 59.1344 974.499 Q58.3069 971.316 56.6518 968.197 L62.1899 968.197 Q63.5267 971.348 64.227 974.658 Q64.9272 977.968 64.9272 981.374 Q64.9272 989.904 59.9619 994.901 Q54.9967 999.866 46.5303 999.866 Q37.7774 999.866 32.6531 995.156 Q27.4968 990.413 27.4968 982.392 Q27.4968 975.199 32.1438 971.03 Q36.7589 966.828 44.7161 966.828 M42.9973 972.685 Q38.1912 972.748 35.3266 975.39 Q32.4621 978 32.4621 982.329 Q32.4621 987.23 35.2312 990.19 Q38.0002 993.119 43.0292 993.564 L42.9973 972.685 Z" fill="#000000" fill-rule="nonzero" fill-opacity="1" /><path clip-path="url(#clip570)" d="M14.479 957.216 L14.479 951.36 L64.0042 951.36 L64.0042 957.216 L14.479 957.216 Z" fill="#000000" fill-rule="nonzero" fill-opacity="1" /><path clip-path="url(#clip570)" d="M46.0847 922.905 Q46.0847 930.003 47.7079 932.74 Q49.3312 935.477 53.2461 935.477 Q56.3653 935.477 58.2114 933.44 Q60.0256 931.371 60.0256 927.838 Q60.0256 922.968 56.5881 920.04 Q53.1188 917.08 47.3897 917.08 L46.0847 917.08 L46.0847 922.905 M43.6657 911.224 L64.0042 911.224 L64.0042 917.08 L58.5933 917.08 Q61.8398 919.085 63.3994 922.077 Q64.9272 925.069 64.9272 929.398 Q64.9272 934.872 61.8716 938.119 Q58.7843 941.334 53.6281 941.334 Q47.6125 941.334 44.5569 937.323 Q41.5014 933.281 41.5014 925.292 L41.5014 917.08 L40.9285 917.08 Q36.8862 917.08 34.6901 919.754 Q32.4621 922.396 32.4621 927.202 Q32.4621 930.257 33.1941 933.154 Q33.9262 936.05 35.3903 938.724 L29.9795 938.724 Q28.7381 935.509 28.1334 932.485 Q27.4968 929.462 27.4968 926.597 Q27.4968 918.863 31.5072 915.043 Q35.5176 911.224 43.6657 911.224 Z" fill="#000000" fill-rule="nonzero" fill-opacity="1" /><path clip-path="url(#clip570)" d="M18.2347 893.368 L28.3562 893.368 L28.3562 881.305 L32.9077 881.305 L32.9077 893.368 L52.2594 893.368 Q56.6199 893.368 57.8613 892.19 Q59.1026 890.981 59.1026 887.321 L59.1026 881.305 L64.0042 881.305 L64.0042 887.321 Q64.0042 894.1 61.4897 896.678 Q58.9434 899.256 52.2594 899.256 L32.9077 899.256 L32.9077 903.553 L28.3562 903.553 L28.3562 899.256 L18.2347 899.256 L18.2347 893.368 Z" fill="#000000" fill-rule="nonzero" fill-opacity="1" /><path clip-path="url(#clip570)" d="M28.3562 873.602 L28.3562 867.746 L64.0042 867.746 L64.0042 873.602 L28.3562 873.602 M14.479 873.602 L14.479 867.746 L21.895 867.746 L21.895 873.602 L14.479 873.602 Z" fill="#000000" fill-rule="nonzero" fill-opacity="1" /><path clip-path="url(#clip570)" d="M32.4621 841.678 Q32.4621 846.389 36.1542 849.126 Q39.8145 851.864 46.212 851.864 Q52.6095 851.864 56.3017 849.158 Q59.9619 846.421 59.9619 841.678 Q59.9619 837 56.2698 834.262 Q52.5777 831.525 46.212 831.525 Q39.8781 831.525 36.186 834.262 Q32.4621 837 32.4621 841.678 M27.4968 841.678 Q27.4968 834.04 32.4621 829.679 Q37.4273 825.319 46.212 825.319 Q54.9649 825.319 59.9619 829.679 Q64.9272 834.04 64.9272 841.678 Q64.9272 849.349 59.9619 853.71 Q54.9649 858.038 46.212 858.038 Q37.4273 858.038 32.4621 853.71 Q27.4968 849.349 27.4968 841.678 Z" fill="#000000" fill-rule="nonzero" fill-opacity="1" /><path clip-path="url(#clip570)" d="M42.4881 785.978 L64.0042 785.978 L64.0042 791.835 L42.679 791.835 Q37.6183 791.835 35.1038 793.808 Q32.5894 795.782 32.5894 799.728 Q32.5894 804.471 35.6131 807.208 Q38.6368 809.945 43.8567 809.945 L64.0042 809.945 L64.0042 815.834 L28.3562 815.834 L28.3562 809.945 L33.8944 809.945 Q30.6797 807.845 29.0883 805.012 Q27.4968 802.147 27.4968 798.423 Q27.4968 792.281 31.3163 789.13 Q35.1038 785.978 42.4881 785.978 Z" fill="#000000" fill-rule="nonzero" fill-opacity="1" /><path clip-path="url(#clip570)" d="M46.0847 737.376 Q46.0847 744.474 47.7079 747.211 Q49.3312 749.949 53.2461 749.949 Q56.3653 749.949 58.2114 747.912 Q60.0256 745.843 60.0256 742.31 Q60.0256 737.44 56.5881 734.512 Q53.1188 731.552 47.3897 731.552 L46.0847 731.552 L46.0847 737.376 M43.6657 725.695 L64.0042 725.695 L64.0042 731.552 L58.5933 731.552 Q61.8398 733.557 63.3994 736.549 Q64.9272 739.541 64.9272 743.869 Q64.9272 749.344 61.8716 752.59 Q58.7843 755.805 53.6281 755.805 Q47.6125 755.805 44.5569 751.795 Q41.5014 747.752 41.5014 739.763 L41.5014 731.552 L40.9285 731.552 Q36.8862 731.552 34.6901 734.225 Q32.4621 736.867 32.4621 741.673 Q32.4621 744.729 33.1941 747.625 Q33.9262 750.521 35.3903 753.195 L29.9795 753.195 Q28.7381 749.98 28.1334 746.957 Q27.4968 743.933 27.4968 741.068 Q27.4968 733.334 31.5072 729.515 Q35.5176 725.695 43.6657 725.695 Z" fill="#000000" fill-rule="nonzero" fill-opacity="1" /><path clip-path="url(#clip570)" d="M46.212 688.042 Q39.7508 688.042 36.0905 690.716 Q32.3984 693.357 32.3984 698.004 Q32.3984 702.651 36.0905 705.325 Q39.7508 707.967 46.212 707.967 Q52.6732 707.967 56.3653 705.325 Q60.0256 702.651 60.0256 698.004 Q60.0256 693.357 56.3653 690.716 Q52.6732 688.042 46.212 688.042 M33.7671 707.967 Q30.5842 706.121 29.0564 703.32 Q27.4968 700.487 27.4968 696.572 Q27.4968 690.079 32.6531 686.037 Q37.8093 681.963 46.212 681.963 Q54.6147 681.963 59.771 686.037 Q64.9272 690.079 64.9272 696.572 Q64.9272 700.487 63.3994 703.32 Q61.8398 706.121 58.657 707.967 L64.0042 707.967 L64.0042 713.855 L14.479 713.855 L14.479 707.967 L33.7671 707.967 Z" fill="#000000" fill-rule="nonzero" fill-opacity="1" /><path clip-path="url(#clip570)" d="M29.4065 649.53 L34.9447 649.53 Q33.6716 652.012 33.035 654.686 Q32.3984 657.359 32.3984 660.224 Q32.3984 664.584 33.7352 666.781 Q35.072 668.945 37.7456 668.945 Q39.7826 668.945 40.9603 667.385 Q42.1061 665.826 43.1565 661.115 L43.6021 659.11 Q44.9389 652.872 47.3897 650.262 Q49.8086 647.62 54.1691 647.62 Q59.1344 647.62 62.0308 651.567 Q64.9272 655.481 64.9272 662.356 Q64.9272 665.221 64.3543 668.34 Q63.8132 671.428 62.6992 674.865 L56.6518 674.865 Q58.3387 671.619 59.198 668.468 Q60.0256 665.317 60.0256 662.229 Q60.0256 658.091 58.6251 655.863 Q57.1929 653.635 54.6147 653.635 Q52.2276 653.635 50.9545 655.259 Q49.6813 656.85 48.5037 662.293 L48.0262 664.33 Q46.8804 669.773 44.5251 672.191 Q42.138 674.61 38.0002 674.61 Q32.9713 674.61 30.2341 671.046 Q27.4968 667.481 27.4968 660.924 Q27.4968 657.678 27.9743 654.813 Q28.4517 651.949 29.4065 649.53 Z" fill="#000000" fill-rule="nonzero" fill-opacity="1" /><path clip-path="url(#clip570)" d="M14.5426 603.505 Q21.8632 607.771 29.0246 609.839 Q36.186 611.908 43.5384 611.908 Q50.8908 611.908 58.1159 609.839 Q65.3091 607.739 72.5979 603.505 L72.5979 608.598 Q65.1182 613.372 57.8931 615.759 Q50.668 618.115 43.5384 618.115 Q36.4406 618.115 29.2474 615.759 Q22.0542 613.404 14.5426 608.598 L14.5426 603.505 Z" fill="#000000" fill-rule="nonzero" fill-opacity="1" /><path clip-path="url(#clip570)" d="M57.2247 559.487 L44.4614 559.487 L44.4614 569.99 L39.1779 569.99 L39.1779 553.121 L59.58 553.121 Q62.2218 556.845 63.5904 561.333 Q64.9272 565.821 64.9272 570.913 Q64.9272 582.053 58.4342 588.355 Q51.9093 594.625 40.2919 594.625 Q28.6427 594.625 22.1496 588.355 Q15.6248 582.053 15.6248 570.913 Q15.6248 566.266 16.7706 562.097 Q17.9164 557.895 20.1444 554.362 L26.9876 554.362 Q23.9639 557.927 22.4361 561.937 Q20.9083 565.948 20.9083 570.372 Q20.9083 579.093 25.7781 583.485 Q30.6479 587.846 40.2919 587.846 Q49.9041 587.846 54.7739 583.485 Q59.6436 579.093 59.6436 570.372 Q59.6436 566.966 59.0707 564.293 Q58.466 561.619 57.2247 559.487 Z" fill="#000000" fill-rule="nonzero" fill-opacity="1" /><path clip-path="url(#clip570)" d="M33.8307 520.974 Q33.2578 521.961 33.0032 523.138 Q32.7167 524.284 32.7167 525.685 Q32.7167 530.65 35.9632 533.324 Q39.1779 535.965 45.2253 535.965 L64.0042 535.965 L64.0042 541.854 L28.3562 541.854 L28.3562 535.965 L33.8944 535.965 Q30.6479 534.119 29.0883 531.159 Q27.4968 528.199 27.4968 523.966 Q27.4968 523.361 27.5923 522.629 Q27.656 521.897 27.8151 521.006 L33.8307 520.974 Z" fill="#000000" fill-rule="nonzero" fill-opacity="1" /><path clip-path="url(#clip570)" d="M32.4621 502.45 Q32.4621 507.161 36.1542 509.898 Q39.8145 512.635 46.212 512.635 Q52.6095 512.635 56.3017 509.93 Q59.9619 507.192 59.9619 502.45 Q59.9619 497.771 56.2698 495.034 Q52.5777 492.297 46.212 492.297 Q39.8781 492.297 36.186 495.034 Q32.4621 497.771 32.4621 502.45 M27.4968 502.45 Q27.4968 494.811 32.4621 490.451 Q37.4273 486.09 46.212 486.09 Q54.9649 486.09 59.9619 490.451 Q64.9272 494.811 64.9272 502.45 Q64.9272 510.121 59.9619 514.481 Q54.9649 518.81 46.212 518.81 Q37.4273 518.81 32.4621 514.481 Q27.4968 510.121 27.4968 502.45 Z" fill="#000000" fill-rule="nonzero" fill-opacity="1" /><path clip-path="url(#clip570)" d="M28.3562 479.788 L28.3562 473.932 L56.1743 466.611 L28.3562 459.322 L28.3562 452.415 L56.1743 445.095 L28.3562 437.806 L28.3562 431.95 L64.0042 441.275 L64.0042 448.182 L34.7856 455.853 L64.0042 463.555 L64.0042 470.462 L28.3562 479.788 Z" fill="#000000" fill-rule="nonzero" fill-opacity="1" /><path clip-path="url(#clip570)" d="M18.2347 417.277 L28.3562 417.277 L28.3562 405.214 L32.9077 405.214 L32.9077 417.277 L52.2594 417.277 Q56.6199 417.277 57.8613 416.099 Q59.1026 414.89 59.1026 411.229 L59.1026 405.214 L64.0042 405.214 L64.0042 411.229 Q64.0042 418.009 61.4897 420.587 Q58.9434 423.165 52.2594 423.165 L32.9077 423.165 L32.9077 427.462 L28.3562 427.462 L28.3562 423.165 L18.2347 423.165 L18.2347 417.277 Z" fill="#000000" fill-rule="nonzero" fill-opacity="1" /><path clip-path="url(#clip570)" d="M42.4881 367.879 L64.0042 367.879 L64.0042 373.735 L42.679 373.735 Q37.6183 373.735 35.1038 375.709 Q32.5894 377.682 32.5894 381.629 Q32.5894 386.371 35.6131 389.108 Q38.6368 391.846 43.8567 391.846 L64.0042 391.846 L64.0042 397.734 L14.479 397.734 L14.479 391.846 L33.8944 391.846 Q30.6797 389.745 29.0883 386.912 Q27.4968 384.048 27.4968 380.324 Q27.4968 374.181 31.3163 371.03 Q35.1038 367.879 42.4881 367.879 Z" fill="#000000" fill-rule="nonzero" fill-opacity="1" /><path clip-path="url(#clip570)" d="M33.8307 314.821 Q33.2578 315.807 33.0032 316.985 Q32.7167 318.131 32.7167 319.531 Q32.7167 324.497 35.9632 327.17 Q39.1779 329.812 45.2253 329.812 L64.0042 329.812 L64.0042 335.7 L28.3562 335.7 L28.3562 329.812 L33.8944 329.812 Q30.6479 327.966 29.0883 325.006 Q27.4968 322.046 27.4968 317.813 Q27.4968 317.208 27.5923 316.476 Q27.656 315.744 27.8151 314.853 L33.8307 314.821 Z" fill="#000000" fill-rule="nonzero" fill-opacity="1" /><path clip-path="url(#clip570)" d="M46.0847 292.477 Q46.0847 299.575 47.7079 302.312 Q49.3312 305.049 53.2461 305.049 Q56.3653 305.049 58.2114 303.012 Q60.0256 300.943 60.0256 297.41 Q60.0256 292.541 56.5881 289.613 Q53.1188 286.652 47.3897 286.652 L46.0847 286.652 L46.0847 292.477 M43.6657 280.796 L64.0042 280.796 L64.0042 286.652 L58.5933 286.652 Q61.8398 288.658 63.3994 291.65 Q64.9272 294.641 64.9272 298.97 Q64.9272 304.445 61.8716 307.691 Q58.7843 310.906 53.6281 310.906 Q47.6125 310.906 44.5569 306.895 Q41.5014 302.853 41.5014 294.864 L41.5014 286.652 L40.9285 286.652 Q36.8862 286.652 34.6901 289.326 Q32.4621 291.968 32.4621 296.774 Q32.4621 299.829 33.1941 302.726 Q33.9262 305.622 35.3903 308.296 L29.9795 308.296 Q28.7381 305.081 28.1334 302.057 Q27.4968 299.034 27.4968 296.169 Q27.4968 288.435 31.5072 284.615 Q35.5176 280.796 43.6657 280.796 Z" fill="#000000" fill-rule="nonzero" fill-opacity="1" /><path clip-path="url(#clip570)" d="M18.2347 262.94 L28.3562 262.94 L28.3562 250.877 L32.9077 250.877 L32.9077 262.94 L52.2594 262.94 Q56.6199 262.94 57.8613 261.763 Q59.1026 260.553 59.1026 256.893 L59.1026 250.877 L64.0042 250.877 L64.0042 256.893 Q64.0042 263.672 61.4897 266.25 Q58.9434 268.828 52.2594 268.828 L32.9077 268.828 L32.9077 273.125 L28.3562 273.125 L28.3562 268.828 L18.2347 268.828 L18.2347 262.94 Z" fill="#000000" fill-rule="nonzero" fill-opacity="1" /><path clip-path="url(#clip570)" d="M44.7161 212.683 L47.5806 212.683 L47.5806 239.61 Q53.6281 239.228 56.8109 235.981 Q59.9619 232.703 59.9619 226.878 Q59.9619 223.505 59.1344 220.354 Q58.3069 217.171 56.6518 214.052 L62.1899 214.052 Q63.5267 217.203 64.227 220.513 Q64.9272 223.823 64.9272 227.229 Q64.9272 235.759 59.9619 240.756 Q54.9967 245.721 46.5303 245.721 Q37.7774 245.721 32.6531 241.01 Q27.4968 236.268 27.4968 228.247 Q27.4968 221.054 32.1438 216.884 Q36.7589 212.683 44.7161 212.683 M42.9973 218.539 Q38.1912 218.603 35.3266 221.245 Q32.4621 223.855 32.4621 228.183 Q32.4621 233.085 35.2312 236.045 Q38.0002 238.973 43.0292 239.419 L42.9973 218.539 Z" fill="#000000" fill-rule="nonzero" fill-opacity="1" /><path clip-path="url(#clip570)" d="M14.5426 203.994 L14.5426 198.901 Q22.0542 194.127 29.2474 191.772 Q36.4406 189.384 43.5384 189.384 Q50.668 189.384 57.8931 191.772 Q65.1182 194.127 72.5979 198.901 L72.5979 203.994 Q65.3091 199.761 58.1159 197.692 Q50.8908 195.591 43.5384 195.591 Q36.186 195.591 29.0246 197.692 Q21.8632 199.761 14.5426 203.994 Z" fill="#000000" fill-rule="nonzero" fill-opacity="1" /><polyline clip-path="url(#clip572)" style="stroke:#ff0000; stroke-linecap:round; stroke-linejoin:round; stroke-width:4; stroke-opacity:1; fill:none" points="315.32,86.1857 324.436,86.1857 324.436,281.517 333.551,281.517 333.551,467.721 342.667,467.721 342.667,498.039 351.783,498.039 351.783,433.486 360.898,433.486 360.898,508.676 370.014,508.676 370.014,329.752 379.129,329.752 379.129,318.619 388.245,318.619 388.245,349.262 397.361,349.262 397.361,338.991 406.476,338.991 406.476,374.49 415.592,374.49 415.592,454.142 424.708,454.142 424.708,347.495 433.823,347.495 433.823,663.74 442.939,663.74 442.939,417.283 452.055,417.283 452.055,881.781 461.17,881.781 461.17,631.78 470.286,631.78 470.286,667.499 479.401,667.499 479.401,626.8 488.517,626.8 488.517,664.703 497.633,664.703 497.633,761.587 506.748,761.587 506.748,653.732 515.864,653.732 515.864,745.495 524.98,745.495 524.98,709.815 534.095,709.815 534.095,628.968 543.211,628.968 543.211,689.13 552.327,689.13 552.327,899.931 561.442,899.931 561.442,1051.4 570.558,1051.4 570.558,731.654 579.673,731.654 579.673,931.21 588.789,931.21 588.789,1000.14 597.905,1000.14 597.905,904.942 607.02,904.942 607.02,1023.91 616.136,1023.91 616.136,875.341 625.252,875.341 625.252,871.147 634.367,871.147 634.367,1169.94 643.483,1169.94 643.483,1225.06 652.599,1225.06 652.599,1081.23 661.714,1081.23 661.714,1085.99 670.83,1085.99 670.83,984.947 679.945,984.947 679.945,1140.81 689.061,1140.81 689.061,961.944 698.177,961.944 698.177,1122.35 707.292,1122.35 707.292,1108.83 716.408,1108.83 716.408,1384.24 725.524,1384.24 725.524,1036.22 734.639,1036.22 734.639,1132.51 743.755,1132.51 743.755,784.646 752.871,784.646 752.871,1027.94 761.986,1027.94 761.986,1236.01 771.102,1236.01 771.102,1030.94 780.217,1030.94 780.217,1227.4 789.333,1227.4 789.333,982.163 798.449,982.163 798.449,886.858 807.564,886.858 807.564,851.359 816.68,851.359 816.68,1059.85 825.796,1059.85 825.796,1232.24 834.911,1232.24 834.911,943.538 844.027,943.538 844.027,1121.4 853.143,1121.4 853.143,1119.21 862.258,1119.21 862.258,846.837 871.374,846.837 871.374,1145.66 880.489,1145.66 880.489,965.54 889.605,965.54 889.605,1198.65 898.721,1198.65 898.721,1262.63 907.836,1262.63 907.836,1113.82 916.952,1113.82 916.952,1212.13 926.068,1212.13 926.068,1104.37 935.183,1104.37 935.183,943.029 944.299,943.029 944.299,910.014 953.415,910.014 953.415,958.394 962.53,958.394 962.53,1286.95 971.646,1286.95 971.646,1011.65 980.761,1011.65 980.761,1173.29 989.877,1173.29 989.877,1111.26 998.993,1111.26 998.993,1024.13 1008.11,1024.13 1008.11,1190.78 1017.22,1190.78 1017.22,1032.33 1026.34,1032.33 1026.34,1163.04 1035.46,1163.04 1035.46,1064.72 1044.57,1064.72 1044.57,963.397 1053.69,963.397 1053.69,975.133 1062.8,975.133 1062.8,1065.02 1071.92,1065.02 1071.92,1111.85 1081.03,1111.85 1081.03,1201.4 1090.15,1201.4 1090.15,1065.87 1099.26,1065.87 1099.26,1253.04 1108.38,1253.04 1108.38,1116.76 1117.5,1116.76 1117.5,1242.99 1126.61,1242.99 1126.61,1061.85 1135.73,1061.85 1135.73,1160 1144.84,1160 1144.84,1310.77 1153.96,1310.77 1153.96,1021.59 1163.07,1021.59 1163.07,1219.07 1172.19,1219.07 1172.19,1094.01 1181.31,1094.01 1181.31,997.477 1190.42,997.477 1190.42,1123.45 1199.54,1123.45 1199.54,1217.48 1208.65,1217.48 1208.65,1242.88 1217.77,1242.88 1217.77,1153.44 1226.88,1153.44 1226.88,1031.25 1236,1031.25 1236,1109.83 1245.11,1109.83 1245.11,1152.09 1254.23,1152.09 1254.23,1110.38 1263.35,1110.38 1263.35,1131.84 1272.46,1131.84 1272.46,1318.91 1281.58,1318.91 1281.58,1204.42 1290.69,1204.42 1290.69,1170.83 1299.81,1170.83 1299.81,1063.06 1308.92,1063.06 1308.92,1255.13 1318.04,1255.13 1318.04,1141.11 1327.16,1141.11 1327.16,1214.6 1336.27,1214.6 1336.27,1274.36 1345.39,1274.36 1345.39,1277.45 1354.5,1277.45 1354.5,1152.56 1363.62,1152.56 1363.62,1122.62 1372.73,1122.62 1372.73,1112.36 1381.85,1112.36 1381.85,1130.74 1390.97,1130.74 1390.97,1117.7 1400.08,1117.7 1400.08,1207.63 1409.2,1207.63 1409.2,1272.54 1418.31,1272.54 1418.31,1075.59 1427.43,1075.59 1427.43,1235.55 1436.54,1235.55 1436.54,1074.98 1445.66,1074.98 1445.66,1138.26 1454.77,1138.26 1454.77,1157.71 1463.89,1157.71 1463.89,1240.09 1473.01,1240.09 1473.01,1079.97 1482.12,1079.97 1482.12,1029.06 1491.24,1029.06 1491.24,936.573 1500.35,936.573 1500.35,1116.59 1509.47,1116.59 1509.47,1142.82 1518.58,1142.82 1518.58,1063.4 1527.7,1063.4 1527.7,1174.63 1536.82,1174.63 1536.82,1145.56 1545.93,1145.56 1545.93,993.06 1555.05,993.06 1555.05,968.215 1564.16,968.215 1564.16,1108.16 1573.28,1108.16 1573.28,818.532 1582.39,818.532 1582.39,1066.79 1591.51,1066.79 1591.51,891.962 1600.62,891.962 1600.62,1078.91 1609.74,1078.91 1609.74,1078.86 1618.86,1078.86 1618.86,1001.25 1627.97,1001.25 1627.97,1079.41 1637.09,1079.41 1637.09,1030.43 1646.2,1030.43 1646.2,1031.33 1655.32,1031.33 1655.32,941.338 1664.43,941.338 1664.43,870.104 1673.55,870.104 1673.55,911.432 1682.67,911.432 1682.67,731.185 1691.78,731.185 1691.78,969.909 1700.9,969.909 1700.9,1057.15 1710.01,1057.15 1710.01,880.331 1719.13,880.331 1719.13,960.581 1728.24,960.581 1728.24,882.172 1737.36,882.172 1737.36,917.958 1746.47,917.958 1746.47,1004.22 1755.59,1004.22 1755.59,875.658 1764.71,875.658 1764.71,956.201 1773.82,956.201 1773.82,993.849 1782.94,993.849 1782.94,988.655 1792.05,988.655 1792.05,947.303 1801.17,947.303 1801.17,943.696 1810.28,943.696 1810.28,979.545 1819.4,979.545 1819.4,932.048 1828.52,932.048 1828.52,972.637 1837.63,972.637 1837.63,996.708 1846.75,996.708 1846.75,953.47 1855.86,953.47 1855.86,904.75 1864.98,904.75 1864.98,1003.44 1874.09,1003.44 1874.09,953.836 1883.21,953.836 1883.21,957.489 1892.33,957.489 1892.33,992.86 1901.44,992.86 1901.44,989.614 1910.56,989.614 1910.56,980.214 1919.67,980.214 1919.67,950.219 1928.79,950.219 1928.79,969.173 1937.9,969.173 1937.9,969.849 1947.02,969.849 1947.02,975.618 1956.13,975.618 1956.13,963.714 1965.25,963.714 1965.25,1005.25 1974.37,1005.25 1974.37,977.498 1983.48,977.498 1983.48,976.539 1992.6,976.539 1992.6,971.281 2001.71,971.281 2001.71,997.349 2010.83,997.349 2010.83,1004.49 2019.94,1004.49 2019.94,988.896 2029.06,988.896 2029.06,976.114 2038.18,976.114 2038.18,1008.02 2047.29,1008.02 2047.29,973.641 2056.41,973.641 2056.41,981.323 2065.52,981.323 2065.52,991.578 2074.64,991.578 2074.64,960.638 2083.75,960.638 2083.75,1005.65 2092.87,1005.65 2092.87,999.609 2101.98,999.609 2101.98,963.072 2111.1,963.072 2111.1,992.455 2120.22,992.455 2120.22,936.526 2129.33,936.526 2129.33,1013.88 2138.45,1013.88 2138.45,1022.57 2147.56,1022.57 2147.56,912.939 2156.68,912.939 2156.68,1019.54 2165.79,1019.54 2165.79,983.908 2174.91,983.908 2174.91,965.032 2184.03,965.032 2184.03,964.314 2193.14,964.314 2193.14,981.436 2202.26,981.436 2202.26,996.032 2211.37,996.032 2211.37,938.167 2220.49,938.167 2220.49,981.334 2229.6,981.334 2229.6,975.669 2238.72,975.669 2238.72,940.649 2247.83,940.649 2247.83,987.272 2256.95,987.272 2256.95,975.608 2266.07,975.608 2266.07,962.871 2275.18,962.871 2275.18,978.158 2284.3,978.158 2284.3,972.217 2293.41,972.217 2293.41,970.655 "/>
<polyline clip-path="url(#clip572)" style="stroke:#4498f2; stroke-linecap:round; stroke-linejoin:round; stroke-width:4; stroke-opacity:1; fill:none" points="315.32,298.758 324.436,298.758 324.436,1073.28 333.551,1073.28 333.551,1143.23 342.667,1143.23 342.667,926.746 351.783,926.746 351.783,528.727 360.898,528.727 360.898,869.14 370.014,869.14 370.014,860.717 379.129,860.717 379.129,832.963 388.245,832.963 388.245,738.29 397.361,738.29 397.361,662.676 406.476,662.676 406.476,491.894 415.592,491.894 415.592,830.933 424.708,830.933 424.708,763.271 433.823,763.271 433.823,1000.9 442.939,1000.9 442.939,971.747 452.055,971.747 452.055,1129.22 461.17,1129.22 461.17,1170.73 470.286,1170.73 470.286,1076.47 479.401,1076.47 479.401,901.867 488.517,901.867 488.517,1152.11 497.633,1152.11 497.633,961.904 506.748,961.904 506.748,1045.17 515.864,1045.17 515.864,974.506 524.98,974.506 524.98,972.826 534.095,972.826 534.095,972.472 543.211,972.472 543.211,881.926 552.327,881.926 552.327,1013.32 561.442,1013.32 561.442,1127 570.558,1127 570.558,1060.56 579.673,1060.56 579.673,836.628 588.789,836.628 588.789,1040.27 597.905,1040.27 597.905,1041.2 607.02,1041.2 607.02,1016.44 616.136,1016.44 616.136,936.836 625.252,936.836 625.252,959.131 634.367,959.131 634.367,891.951 643.483,891.951 643.483,1088.17 652.599,1088.17 652.599,914.533 661.714,914.533 661.714,1035.68 670.83,1035.68 670.83,881.828 679.945,881.828 679.945,1062.27 689.061,1062.27 689.061,1171.75 698.177,1171.75 698.177,1181.88 707.292,1181.88 707.292,1208.78 716.408,1208.78 716.408,997.542 725.524,997.542 725.524,823.729 734.639,823.729 734.639,795.904 743.755,795.904 743.755,1036.72 752.871,1036.72 752.871,1134.17 761.986,1134.17 761.986,1205.35 771.102,1205.35 771.102,1043.96 780.217,1043.96 780.217,1205.05 789.333,1205.05 789.333,1147.44 798.449,1147.44 798.449,1247.05 807.564,1247.05 807.564,1194.36 816.68,1194.36 816.68,1131.57 825.796,1131.57 825.796,898.082 834.911,898.082 834.911,1018.52 844.027,1018.52 844.027,1062.16 853.143,1062.16 853.143,1080.32 862.258,1080.32 862.258,1233.54 871.374,1233.54 871.374,1184.01 880.489,1184.01 880.489,1255.48 889.605,1255.48 889.605,1271.46 898.721,1271.46 898.721,1156.73 907.836,1156.73 907.836,962.004 916.952,962.004 916.952,1024.76 926.068,1024.76 926.068,1188.52 935.183,1188.52 935.183,1144.56 944.299,1144.56 944.299,918.552 953.415,918.552 953.415,972.289 962.53,972.289 962.53,915.378 971.646,915.378 971.646,947.523 980.761,947.523 980.761,1223.64 989.877,1223.64 989.877,1235.65 998.993,1235.65 998.993,1012.31 1008.11,1012.31 1008.11,1049.48 1017.22,1049.48 1017.22,839.651 1026.34,839.651 1026.34,913.362 1035.46,913.362 1035.46,1022.65 1044.57,1022.65 1044.57,1011.45 1053.69,1011.45 1053.69,982.821 1062.8,982.821 1062.8,978.887 1071.92,978.887 1071.92,904.295 1081.03,904.295 1081.03,895.068 1090.15,895.068 1090.15,941.885 1099.26,941.885 1099.26,978.693 1108.38,978.693 1108.38,1217.24 1117.5,1217.24 1117.5,951.99 1126.61,951.99 1126.61,1121.74 1135.73,1121.74 1135.73,1067.9 1144.84,1067.9 1144.84,819.255 1153.96,819.255 1153.96,918.709 1163.07,918.709 1163.07,885.842 1172.19,885.842 1172.19,979.804 1181.31,979.804 1181.31,1143.16 1190.42,1143.16 1190.42,953.553 1199.54,953.553 1199.54,975.976 1208.65,975.976 1208.65,895.329 1217.77,895.329 1217.77,1015.29 1226.88,1015.29 1226.88,1197.25 1236,1197.25 1236,1118.55 1245.11,1118.55 1245.11,869.548 1254.23,869.548 1254.23,798.621 1263.35,798.621 1263.35,875.821 1272.46,875.821 1272.46,946.764 1281.58,946.764 1281.58,1032.63 1290.69,1032.63 1290.69,958.581 1299.81,958.581 1299.81,876.524 1308.92,876.524 1308.92,766.292 1318.04,766.292 1318.04,952.547 1327.16,952.547 1327.16,842.084 1336.27,842.084 1336.27,1027.24 1345.39,1027.24 1345.39,966.429 1354.5,966.429 1354.5,944.162 1363.62,944.162 1363.62,790.778 1372.73,790.778 1372.73,747.483 1381.85,747.483 1381.85,738.446 1390.97,738.446 1390.97,902.862 1400.08,902.862 1400.08,1189.7 1409.2,1189.7 1409.2,1127.92 1418.31,1127.92 1418.31,844.251 1427.43,844.251 1427.43,606.726 1436.54,606.726 1436.54,844.081 1445.66,844.081 1445.66,1039.46 1454.77,1039.46 1454.77,1073.06 1463.89,1073.06 1463.89,878.527 1473.01,878.527 1473.01,1050.26 1482.12,1050.26 1482.12,845.595 1491.24,845.595 1491.24,1061.36 1500.35,1061.36 1500.35,1250.06 1509.47,1250.06 1509.47,1095.17 1518.58,1095.17 1518.58,852.544 1527.7,852.544 1527.7,774.701 1536.82,774.701 1536.82,1028.03 1545.93,1028.03 1545.93,1147.38 1555.05,1147.38 1555.05,1042.87 1564.16,1042.87 1564.16,938.095 1573.28,938.095 1573.28,1002.86 1582.39,1002.86 1582.39,1209.96 1591.51,1209.96 1591.51,1231.4 1600.62,1231.4 1600.62,1047.41 1609.74,1047.41 1609.74,1048.96 1618.86,1048.96 1618.86,931.149 1627.97,931.149 1627.97,987.387 1637.09,987.387 1637.09,990.193 1646.2,990.193 1646.2,1088.05 1655.32,1088.05 1655.32,1016.46 1664.43,1016.46 1664.43,1036.58 1673.55,1036.58 1673.55,1073.1 1682.67,1073.1 1682.67,981.844 1691.78,981.844 1691.78,912.876 1700.9,912.876 1700.9,1030.31 1710.01,1030.31 1710.01,997.483 1719.13,997.483 1719.13,922.036 1728.24,922.036 1728.24,878.75 1737.36,878.75 1737.36,815.763 1746.47,815.763 1746.47,851.143 1755.59,851.143 1755.59,947.785 1764.71,947.785 1764.71,991.789 1773.82,991.789 1773.82,1088.49 1782.94,1088.49 1782.94,886.04 1792.05,886.04 1792.05,706.918 1801.17,706.918 1801.17,836.758 1810.28,836.758 1810.28,651.339 1819.4,651.339 1819.4,1036.22 1828.52,1036.22 1828.52,829.246 1837.63,829.246 1837.63,1019.01 1846.75,1019.01 1846.75,1092.83 1855.86,1092.83 1855.86,914.598 1864.98,914.598 1864.98,1049.15 1874.09,1049.15 1874.09,970.027 1883.21,970.027 1883.21,1048.59 1892.33,1048.59 1892.33,1057.79 1901.44,1057.79 1901.44,1032.67 1910.56,1032.67 1910.56,868.776 1919.67,868.776 1919.67,1136.84 1928.79,1136.84 1928.79,1074.65 1937.9,1074.65 1937.9,972.055 1947.02,972.055 1947.02,876.549 1956.13,876.549 1956.13,891.284 1965.25,891.284 1965.25,1177.45 1974.37,1177.45 1974.37,1019.71 1983.48,1019.71 1983.48,927.153 1992.6,927.153 1992.6,991.327 2001.71,991.327 2001.71,1017.38 2010.83,1017.38 2010.83,1112.21 2019.94,1112.21 2019.94,974.218 2029.06,974.218 2029.06,779.079 2038.18,779.079 2038.18,930.544 2047.29,930.544 2047.29,1019.9 2056.41,1019.9 2056.41,1008.95 2065.52,1008.95 2065.52,851.376 2074.64,851.376 2074.64,755.119 2083.75,755.119 2083.75,894.85 2092.87,894.85 2092.87,985.519 2101.98,985.519 2101.98,999.741 2111.1,999.741 2111.1,1027.46 2120.22,1027.46 2120.22,1015.53 2129.33,1015.53 2129.33,1011.86 2138.45,1011.86 2138.45,965.754 2147.56,965.754 2147.56,917.398 2156.68,917.398 2156.68,975.009 2165.79,975.009 2165.79,956.908 2174.91,956.908 2174.91,927.809 2184.03,927.809 2184.03,963.433 2193.14,963.433 2193.14,1000.23 2202.26,1000.23 2202.26,1021.45 2211.37,1021.45 2211.37,1005.75 2220.49,1005.75 2220.49,977.352 2229.6,977.352 2229.6,982.708 2238.72,982.708 2238.72,1012.85 2247.83,1012.85 2247.83,1023.19 2256.95,1023.19 2256.95,980.56 2266.07,980.56 2266.07,928.228 2275.18,928.228 2275.18,941.531 2284.3,941.531 2284.3,969.675 2293.41,969.675 2293.41,975.084 "/>
<polyline clip-path="url(#clip572)" style="stroke:#000000; stroke-linecap:round; stroke-linejoin:round; stroke-width:8; stroke-opacity:1; fill:none" stroke-dasharray="32, 20" points="315.32,582.337 324.436,582.337 333.551,582.337 342.667,582.337 351.783,582.337 360.898,582.337 370.014,582.337 379.129,582.337 388.245,582.337 397.361,582.337 406.476,582.337 415.592,582.337 424.708,582.337 433.823,582.337 442.939,582.337 452.055,582.337 461.17,582.337 470.286,582.337 479.401,582.337 488.517,582.337 497.633,582.337 506.748,582.337 515.864,582.337 524.98,582.337 534.095,582.337 543.211,582.337 552.327,582.337 561.442,582.337 570.558,582.337 579.673,582.337 588.789,582.337 597.905,582.337 607.02,582.337 616.136,582.337 625.252,582.337 634.367,582.337 643.483,582.337 652.599,582.337 661.714,582.337 670.83,582.337 679.945,582.337 689.061,582.337 698.177,582.337 707.292,582.337 716.408,582.337 725.524,582.337 734.639,582.337 743.755,582.337 752.871,582.337 761.986,582.337 771.102,582.337 780.217,582.337 789.333,582.337 798.449,582.337 807.564,582.337 816.68,582.337 825.796,582.337 834.911,582.337 844.027,582.337 853.143,582.337 862.258,582.337 871.374,582.337 880.489,582.337 889.605,582.337 898.721,582.337 907.836,582.337 916.952,582.337 926.068,582.337 935.183,582.337 944.299,582.337 953.415,582.337 962.53,582.337 971.646,582.337 980.761,582.337 989.877,582.337 998.993,582.337 1008.11,582.337 1017.22,582.337 1026.34,582.337 1035.46,582.337 1044.57,582.337 1053.69,582.337 1062.8,582.337 1071.92,582.337 1081.03,582.337 1090.15,582.337 1099.26,582.337 1108.38,582.337 1117.5,582.337 1126.61,582.337 1135.73,582.337 1144.84,582.337 1153.96,582.337 1163.07,582.337 1172.19,582.337 1181.31,582.337 1190.42,582.337 1199.54,582.337 1208.65,582.337 1217.77,582.337 1226.88,582.337 1236,582.337 1245.11,582.337 1254.23,582.337 1263.35,582.337 1272.46,582.337 1281.58,582.337 1290.69,582.337 1299.81,582.337 1308.92,582.337 1318.04,582.337 1327.16,582.337 1336.27,582.337 1345.39,582.337 1354.5,582.337 1363.62,582.337 1372.73,582.337 1381.85,582.337 1390.97,582.337 1400.08,582.337 1409.2,582.337 1418.31,582.337 1427.43,582.337 1436.54,582.337 1445.66,582.337 1454.77,582.337 1463.89,582.337 1473.01,582.337 1482.12,582.337 1491.24,582.337 1500.35,582.337 1509.47,582.337 1518.58,582.337 1527.7,582.337 1536.82,582.337 1545.93,582.337 1555.05,582.337 1564.16,582.337 1573.28,582.337 1582.39,582.337 1591.51,582.337 1600.62,582.337 1609.74,582.337 1618.86,582.337 1627.97,582.337 1637.09,582.337 1646.2,582.337 1655.32,582.337 1664.43,582.337 1673.55,582.337 1682.67,582.337 1691.78,582.337 1700.9,582.337 1710.01,582.337 1719.13,582.337 1728.24,582.337 1737.36,582.337 1746.47,582.337 1755.59,582.337 1764.71,582.337 1773.82,582.337 1782.94,582.337 1792.05,582.337 1801.17,582.337 1810.28,582.337 1819.4,582.337 1828.52,582.337 1837.63,582.337 1846.75,582.337 1855.86,582.337 1864.98,582.337 1874.09,582.337 1883.21,582.337 1892.33,582.337 1901.44,582.337 1910.56,582.337 1919.67,582.337 1928.79,582.337 1937.9,582.337 1947.02,582.337 1956.13,582.337 1965.25,582.337 1974.37,582.337 1983.48,582.337 1992.6,582.337 2001.71,582.337 2010.83,582.337 2019.94,582.337 2029.06,582.337 2038.18,582.337 2047.29,582.337 2056.41,582.337 2065.52,582.337 2074.64,582.337 2083.75,582.337 2092.87,582.337 2101.98,582.337 2111.1,582.337 2120.22,582.337 2129.33,582.337 2138.45,582.337 2147.56,582.337 2156.68,582.337 2165.79,582.337 2174.91,582.337 2184.03,582.337 2193.14,582.337 2202.26,582.337 2211.37,582.337 2220.49,582.337 2229.6,582.337 2238.72,582.337 2247.83,582.337 2256.95,582.337 2266.07,582.337 2275.18,582.337 2284.3,582.337 2293.41,582.337 "/>
<polyline clip-path="url(#clip572)" style="stroke:#000000; stroke-linecap:round; stroke-linejoin:round; stroke-width:8; stroke-opacity:1; fill:none" stroke-dasharray="32, 20" points="315.32,1366.77 324.436,1366.77 333.551,1366.77 342.667,1366.77 351.783,1366.77 360.898,1366.77 370.014,1366.77 379.129,1366.77 388.245,1366.77 397.361,1366.77 406.476,1366.77 415.592,1366.77 424.708,1366.77 433.823,1366.77 442.939,1366.77 452.055,1366.77 461.17,1366.77 470.286,1366.77 479.401,1366.77 488.517,1366.77 497.633,1366.77 506.748,1366.77 515.864,1366.77 524.98,1366.77 534.095,1366.77 543.211,1366.77 552.327,1366.77 561.442,1366.77 570.558,1366.77 579.673,1366.77 588.789,1366.77 597.905,1366.77 607.02,1366.77 616.136,1366.77 625.252,1366.77 634.367,1366.77 643.483,1366.77 652.599,1366.77 661.714,1366.77 670.83,1366.77 679.945,1366.77 689.061,1366.77 698.177,1366.77 707.292,1366.77 716.408,1366.77 725.524,1366.77 734.639,1366.77 743.755,1366.77 752.871,1366.77 761.986,1366.77 771.102,1366.77 780.217,1366.77 789.333,1366.77 798.449,1366.77 807.564,1366.77 816.68,1366.77 825.796,1366.77 834.911,1366.77 844.027,1366.77 853.143,1366.77 862.258,1366.77 871.374,1366.77 880.489,1366.77 889.605,1366.77 898.721,1366.77 907.836,1366.77 916.952,1366.77 926.068,1366.77 935.183,1366.77 944.299,1366.77 953.415,1366.77 962.53,1366.77 971.646,1366.77 980.761,1366.77 989.877,1366.77 998.993,1366.77 1008.11,1366.77 1017.22,1366.77 1026.34,1366.77 1035.46,1366.77 1044.57,1366.77 1053.69,1366.77 1062.8,1366.77 1071.92,1366.77 1081.03,1366.77 1090.15,1366.77 1099.26,1366.77 1108.38,1366.77 1117.5,1366.77 1126.61,1366.77 1135.73,1366.77 1144.84,1366.77 1153.96,1366.77 1163.07,1366.77 1172.19,1366.77 1181.31,1366.77 1190.42,1366.77 1199.54,1366.77 1208.65,1366.77 1217.77,1366.77 1226.88,1366.77 1236,1366.77 1245.11,1366.77 1254.23,1366.77 1263.35,1366.77 1272.46,1366.77 1281.58,1366.77 1290.69,1366.77 1299.81,1366.77 1308.92,1366.77 1318.04,1366.77 1327.16,1366.77 1336.27,1366.77 1345.39,1366.77 1354.5,1366.77 1363.62,1366.77 1372.73,1366.77 1381.85,1366.77 1390.97,1366.77 1400.08,1366.77 1409.2,1366.77 1418.31,1366.77 1427.43,1366.77 1436.54,1366.77 1445.66,1366.77 1454.77,1366.77 1463.89,1366.77 1473.01,1366.77 1482.12,1366.77 1491.24,1366.77 1500.35,1366.77 1509.47,1366.77 1518.58,1366.77 1527.7,1366.77 1536.82,1366.77 1545.93,1366.77 1555.05,1366.77 1564.16,1366.77 1573.28,1366.77 1582.39,1366.77 1591.51,1366.77 1600.62,1366.77 1609.74,1366.77 1618.86,1366.77 1627.97,1366.77 1637.09,1366.77 1646.2,1366.77 1655.32,1366.77 1664.43,1366.77 1673.55,1366.77 1682.67,1366.77 1691.78,1366.77 1700.9,1366.77 1710.01,1366.77 1719.13,1366.77 1728.24,1366.77 1737.36,1366.77 1746.47,1366.77 1755.59,1366.77 1764.71,1366.77 1773.82,1366.77 1782.94,1366.77 1792.05,1366.77 1801.17,1366.77 1810.28,1366.77 1819.4,1366.77 1828.52,1366.77 1837.63,1366.77 1846.75,1366.77 1855.86,1366.77 1864.98,1366.77 1874.09,1366.77 1883.21,1366.77 1892.33,1366.77 1901.44,1366.77 1910.56,1366.77 1919.67,1366.77 1928.79,1366.77 1937.9,1366.77 1947.02,1366.77 1956.13,1366.77 1965.25,1366.77 1974.37,1366.77 1983.48,1366.77 1992.6,1366.77 2001.71,1366.77 2010.83,1366.77 2019.94,1366.77 2029.06,1366.77 2038.18,1366.77 2047.29,1366.77 2056.41,1366.77 2065.52,1366.77 2074.64,1366.77 2083.75,1366.77 2092.87,1366.77 2101.98,1366.77 2111.1,1366.77 2120.22,1366.77 2129.33,1366.77 2138.45,1366.77 2147.56,1366.77 2156.68,1366.77 2165.79,1366.77 2174.91,1366.77 2184.03,1366.77 2193.14,1366.77 2202.26,1366.77 2211.37,1366.77 2220.49,1366.77 2229.6,1366.77 2238.72,1366.77 2247.83,1366.77 2256.95,1366.77 2266.07,1366.77 2275.18,1366.77 2284.3,1366.77 2293.41,1366.77 "/>
<path clip-path="url(#clip570)" d="M1645.41 300.469 L2282.86 300.469 L2282.86 93.1086 L1645.41 93.1086  Z" fill="#f2f2f2" fill-rule="evenodd" fill-opacity="1"/>
<polyline clip-path="url(#clip570)" style="stroke:#000000; stroke-linecap:round; stroke-linejoin:round; stroke-width:4; stroke-opacity:0; fill:none" points="1645.41,300.469 2282.86,300.469 2282.86,93.1086 1645.41,93.1086 1645.41,300.469 "/>
<polyline clip-path="url(#clip570)" style="stroke:#ff0000; stroke-linecap:round; stroke-linejoin:round; stroke-width:4; stroke-opacity:1; fill:none" points="1668.71,144.949 1808.49,144.949 "/>
<path clip-path="url(#clip570)" d="M1847.81 130.84 Q1842.72 130.84 1839.71 134.636 Q1836.72 138.432 1836.72 144.983 Q1836.72 151.511 1839.71 155.307 Q1842.72 159.104 1847.81 159.104 Q1852.9 159.104 1855.86 155.307 Q1858.85 151.511 1858.85 144.983 Q1858.85 138.432 1855.86 134.636 Q1852.9 130.84 1847.81 130.84 M1847.81 127.044 Q1855.08 127.044 1859.43 131.928 Q1863.78 136.789 1863.78 144.983 Q1863.78 153.155 1859.43 158.039 Q1855.08 162.9 1847.81 162.9 Q1840.52 162.9 1836.14 158.039 Q1831.79 153.178 1831.79 144.983 Q1831.79 136.789 1836.14 131.928 Q1840.52 127.044 1847.81 127.044 Z" fill="#000000" fill-rule="nonzero" fill-opacity="1" /><path clip-path="url(#clip570)" d="M1889.52 149.289 Q1889.52 144.59 1887.58 141.928 Q1885.66 139.243 1882.28 139.243 Q1878.9 139.243 1876.95 141.928 Q1875.03 144.59 1875.03 149.289 Q1875.03 153.988 1876.95 156.673 Q1878.9 159.335 1882.28 159.335 Q1885.66 159.335 1887.58 156.673 Q1889.52 153.988 1889.52 149.289 M1875.03 140.238 Q1876.37 137.923 1878.41 136.812 Q1880.47 135.678 1883.32 135.678 Q1888.04 135.678 1890.98 139.428 Q1893.94 143.178 1893.94 149.289 Q1893.94 155.4 1890.98 159.15 Q1888.04 162.9 1883.32 162.9 Q1880.47 162.9 1878.41 161.789 Q1876.37 160.655 1875.03 158.34 L1875.03 162.229 L1870.75 162.229 L1870.75 126.21 L1875.03 126.21 L1875.03 140.238 Z" fill="#000000" fill-rule="nonzero" fill-opacity="1" /><path clip-path="url(#clip570)" d="M1917.53 137.067 L1917.53 141.094 Q1915.72 140.169 1913.78 139.706 Q1911.84 139.243 1909.75 139.243 Q1906.58 139.243 1904.98 140.215 Q1903.41 141.187 1903.41 143.131 Q1903.41 144.613 1904.54 145.469 Q1905.68 146.303 1909.1 147.067 L1910.56 147.391 Q1915.1 148.363 1917 150.145 Q1918.92 151.905 1918.92 155.076 Q1918.92 158.687 1916.05 160.793 Q1913.2 162.9 1908.2 162.9 Q1906.12 162.9 1903.85 162.483 Q1901.6 162.09 1899.1 161.28 L1899.1 156.881 Q1901.47 158.108 1903.76 158.733 Q1906.05 159.335 1908.29 159.335 Q1911.3 159.335 1912.92 158.317 Q1914.54 157.275 1914.54 155.4 Q1914.54 153.664 1913.36 152.738 Q1912.21 151.812 1908.25 150.956 L1906.77 150.608 Q1902.81 149.775 1901.05 148.062 Q1899.29 146.326 1899.29 143.317 Q1899.29 139.659 1901.88 137.669 Q1904.48 135.678 1909.24 135.678 Q1911.6 135.678 1913.69 136.025 Q1915.77 136.372 1917.53 137.067 Z" fill="#000000" fill-rule="nonzero" fill-opacity="1" /><path clip-path="url(#clip570)" d="M1947.88 148.201 L1947.88 150.284 L1928.29 150.284 Q1928.57 154.682 1930.93 156.997 Q1933.32 159.289 1937.55 159.289 Q1940.01 159.289 1942.3 158.687 Q1944.61 158.085 1946.88 156.881 L1946.88 160.909 Q1944.59 161.881 1942.18 162.391 Q1939.78 162.9 1937.3 162.9 Q1931.1 162.9 1927.46 159.289 Q1923.85 155.678 1923.85 149.52 Q1923.85 143.155 1927.28 139.428 Q1930.72 135.678 1936.56 135.678 Q1941.79 135.678 1944.82 139.057 Q1947.88 142.414 1947.88 148.201 M1943.62 146.951 Q1943.57 143.456 1941.65 141.372 Q1939.75 139.289 1936.6 139.289 Q1933.04 139.289 1930.89 141.303 Q1928.76 143.317 1928.43 146.974 L1943.62 146.951 Z" fill="#000000" fill-rule="nonzero" fill-opacity="1" /><path clip-path="url(#clip570)" d="M1969.89 140.284 Q1969.17 139.868 1968.32 139.682 Q1967.48 139.474 1966.47 139.474 Q1962.85 139.474 1960.91 141.835 Q1958.99 144.173 1958.99 148.571 L1958.99 162.229 L1954.71 162.229 L1954.71 136.303 L1958.99 136.303 L1958.99 140.331 Q1960.33 137.969 1962.48 136.835 Q1964.64 135.678 1967.72 135.678 Q1968.16 135.678 1968.69 135.747 Q1969.22 135.794 1969.87 135.909 L1969.89 140.284 Z" fill="#000000" fill-rule="nonzero" fill-opacity="1" /><path clip-path="url(#clip570)" d="M1971.3 136.303 L1975.82 136.303 L1983.92 158.062 L1992.02 136.303 L1996.53 136.303 L1986.81 162.229 L1981.03 162.229 L1971.3 136.303 Z" fill="#000000" fill-rule="nonzero" fill-opacity="1" /><path clip-path="url(#clip570)" d="M2024.59 148.201 L2024.59 150.284 L2005.01 150.284 Q2005.28 154.682 2007.65 156.997 Q2010.03 159.289 2014.27 159.289 Q2016.72 159.289 2019.01 158.687 Q2021.33 158.085 2023.59 156.881 L2023.59 160.909 Q2021.3 161.881 2018.9 162.391 Q2016.49 162.9 2014.01 162.9 Q2007.81 162.9 2004.17 159.289 Q2000.56 155.678 2000.56 149.52 Q2000.56 143.155 2003.99 139.428 Q2007.44 135.678 2013.27 135.678 Q2018.5 135.678 2021.53 139.057 Q2024.59 142.414 2024.59 148.201 M2020.33 146.951 Q2020.28 143.456 2018.36 141.372 Q2016.47 139.289 2013.32 139.289 Q2009.75 139.289 2007.6 141.303 Q2005.47 143.317 2005.15 146.974 L2020.33 146.951 Z" fill="#000000" fill-rule="nonzero" fill-opacity="1" /><path clip-path="url(#clip570)" d="M2048.64 140.238 L2048.64 126.21 L2052.9 126.21 L2052.9 162.229 L2048.64 162.229 L2048.64 158.34 Q2047.3 160.655 2045.24 161.789 Q2043.2 162.9 2040.33 162.9 Q2035.63 162.9 2032.67 159.15 Q2029.73 155.4 2029.73 149.289 Q2029.73 143.178 2032.67 139.428 Q2035.63 135.678 2040.33 135.678 Q2043.2 135.678 2045.24 136.812 Q2047.3 137.923 2048.64 140.238 M2034.13 149.289 Q2034.13 153.988 2036.05 156.673 Q2037.99 159.335 2041.37 159.335 Q2044.75 159.335 2046.7 156.673 Q2048.64 153.988 2048.64 149.289 Q2048.64 144.59 2046.7 141.928 Q2044.75 139.243 2041.37 139.243 Q2037.99 139.243 2036.05 141.928 Q2034.13 144.59 2034.13 149.289 Z" fill="#000000" fill-rule="nonzero" fill-opacity="1" /><polyline clip-path="url(#clip570)" style="stroke:#4498f2; stroke-linecap:round; stroke-linejoin:round; stroke-width:4; stroke-opacity:1; fill:none" points="1668.71,196.789 1808.49,196.789 "/>
<path clip-path="url(#clip570)" d="M1854.04 180.643 L1854.04 185.203 Q1851.37 183.93 1849.01 183.305 Q1846.65 182.68 1844.45 182.68 Q1840.63 182.68 1838.55 184.161 Q1836.49 185.643 1836.49 188.374 Q1836.49 190.666 1837.86 191.847 Q1839.24 193.004 1843.09 193.722 L1845.91 194.3 Q1851.14 195.296 1853.62 197.819 Q1856.12 200.319 1856.12 204.532 Q1856.12 209.555 1852.74 212.147 Q1849.38 214.74 1842.88 214.74 Q1840.42 214.74 1837.65 214.184 Q1834.89 213.629 1831.93 212.541 L1831.93 207.726 Q1834.78 209.323 1837.51 210.133 Q1840.24 210.944 1842.88 210.944 Q1846.88 210.944 1849.06 209.37 Q1851.23 207.796 1851.23 204.879 Q1851.23 202.333 1849.66 200.897 Q1848.11 199.462 1844.54 198.745 L1841.7 198.189 Q1836.47 197.147 1834.13 194.925 Q1831.79 192.703 1831.79 188.745 Q1831.79 184.161 1835.01 181.522 Q1838.25 178.884 1843.92 178.884 Q1846.35 178.884 1848.87 179.323 Q1851.4 179.763 1854.04 180.643 Z" fill="#000000" fill-rule="nonzero" fill-opacity="1" /><path clip-path="url(#clip570)" d="M1863.23 188.143 L1867.48 188.143 L1867.48 214.069 L1863.23 214.069 L1863.23 188.143 M1863.23 178.05 L1867.48 178.05 L1867.48 183.444 L1863.23 183.444 L1863.23 178.05 Z" fill="#000000" fill-rule="nonzero" fill-opacity="1" /><path clip-path="url(#clip570)" d="M1896.58 193.12 Q1898.18 190.249 1900.4 188.884 Q1902.62 187.518 1905.63 187.518 Q1909.68 187.518 1911.88 190.365 Q1914.08 193.189 1914.08 198.421 L1914.08 214.069 L1909.8 214.069 L1909.8 198.559 Q1909.8 194.833 1908.48 193.027 Q1907.16 191.222 1904.45 191.222 Q1901.14 191.222 1899.22 193.421 Q1897.3 195.62 1897.3 199.416 L1897.3 214.069 L1893.02 214.069 L1893.02 198.559 Q1893.02 194.809 1891.7 193.027 Q1890.38 191.222 1887.62 191.222 Q1884.36 191.222 1882.44 193.444 Q1880.52 195.643 1880.52 199.416 L1880.52 214.069 L1876.23 214.069 L1876.23 188.143 L1880.52 188.143 L1880.52 192.171 Q1881.98 189.786 1884.01 188.652 Q1886.05 187.518 1888.85 187.518 Q1891.67 187.518 1893.64 188.953 Q1895.63 190.388 1896.58 193.12 Z" fill="#000000" fill-rule="nonzero" fill-opacity="1" /><path clip-path="url(#clip570)" d="M1922.14 203.837 L1922.14 188.143 L1926.4 188.143 L1926.4 203.675 Q1926.4 207.356 1927.83 209.208 Q1929.27 211.036 1932.14 211.036 Q1935.59 211.036 1937.58 208.837 Q1939.59 206.638 1939.59 202.842 L1939.59 188.143 L1943.85 188.143 L1943.85 214.069 L1939.59 214.069 L1939.59 210.087 Q1938.04 212.448 1935.98 213.606 Q1933.94 214.74 1931.23 214.74 Q1926.77 214.74 1924.45 211.962 Q1922.14 209.184 1922.14 203.837 M1932.85 187.518 L1932.85 187.518 Z" fill="#000000" fill-rule="nonzero" fill-opacity="1" /><path clip-path="url(#clip570)" d="M1952.62 178.05 L1956.88 178.05 L1956.88 214.069 L1952.62 214.069 L1952.62 178.05 Z" fill="#000000" fill-rule="nonzero" fill-opacity="1" /><path clip-path="url(#clip570)" d="M1977.58 201.036 Q1972.41 201.036 1970.42 202.217 Q1968.43 203.397 1968.43 206.245 Q1968.43 208.513 1969.91 209.856 Q1971.42 211.175 1973.99 211.175 Q1977.53 211.175 1979.66 208.675 Q1981.81 206.152 1981.81 201.985 L1981.81 201.036 L1977.58 201.036 M1986.07 199.277 L1986.07 214.069 L1981.81 214.069 L1981.81 210.133 Q1980.35 212.495 1978.18 213.629 Q1976 214.74 1972.85 214.74 Q1968.87 214.74 1966.51 212.518 Q1964.17 210.272 1964.17 206.522 Q1964.17 202.147 1967.09 199.925 Q1970.03 197.703 1975.84 197.703 L1981.81 197.703 L1981.81 197.286 Q1981.81 194.347 1979.87 192.749 Q1977.95 191.129 1974.45 191.129 Q1972.23 191.129 1970.12 191.661 Q1968.02 192.194 1966.07 193.259 L1966.07 189.323 Q1968.41 188.421 1970.61 187.981 Q1972.81 187.518 1974.89 187.518 Q1980.52 187.518 1983.29 190.434 Q1986.07 193.351 1986.07 199.277 Z" fill="#000000" fill-rule="nonzero" fill-opacity="1" /><path clip-path="url(#clip570)" d="M1999.06 180.782 L1999.06 188.143 L2007.83 188.143 L2007.83 191.453 L1999.06 191.453 L1999.06 205.527 Q1999.06 208.698 1999.91 209.601 Q2000.79 210.504 2003.46 210.504 L2007.83 210.504 L2007.83 214.069 L2003.46 214.069 Q1998.53 214.069 1996.65 212.24 Q1994.78 210.388 1994.78 205.527 L1994.78 191.453 L1991.65 191.453 L1991.65 188.143 L1994.78 188.143 L1994.78 180.782 L1999.06 180.782 Z" fill="#000000" fill-rule="nonzero" fill-opacity="1" /><path clip-path="url(#clip570)" d="M2035.61 200.041 L2035.61 202.124 L2016.03 202.124 Q2016.3 206.522 2018.66 208.837 Q2021.05 211.129 2025.28 211.129 Q2027.74 211.129 2030.03 210.527 Q2032.34 209.925 2034.61 208.721 L2034.61 212.749 Q2032.32 213.721 2029.91 214.231 Q2027.51 214.74 2025.03 214.74 Q2018.83 214.74 2015.19 211.129 Q2011.58 207.518 2011.58 201.36 Q2011.58 194.995 2015.01 191.268 Q2018.46 187.518 2024.29 187.518 Q2029.52 187.518 2032.55 190.897 Q2035.61 194.254 2035.61 200.041 M2031.35 198.791 Q2031.3 195.296 2029.38 193.212 Q2027.48 191.129 2024.34 191.129 Q2020.77 191.129 2018.62 193.143 Q2016.49 195.157 2016.16 198.814 L2031.35 198.791 Z" fill="#000000" fill-rule="nonzero" fill-opacity="1" /><path clip-path="url(#clip570)" d="M2059.66 192.078 L2059.66 178.05 L2063.92 178.05 L2063.92 214.069 L2059.66 214.069 L2059.66 210.18 Q2058.32 212.495 2056.26 213.629 Q2054.22 214.74 2051.35 214.74 Q2046.65 214.74 2043.69 210.99 Q2040.75 207.24 2040.75 201.129 Q2040.75 195.018 2043.69 191.268 Q2046.65 187.518 2051.35 187.518 Q2054.22 187.518 2056.26 188.652 Q2058.32 189.763 2059.66 192.078 M2045.15 201.129 Q2045.15 205.828 2047.07 208.513 Q2049.01 211.175 2052.39 211.175 Q2055.77 211.175 2057.71 208.513 Q2059.66 205.828 2059.66 201.129 Q2059.66 196.43 2057.71 193.768 Q2055.77 191.083 2052.39 191.083 Q2049.01 191.083 2047.07 193.768 Q2045.15 196.43 2045.15 201.129 Z" fill="#000000" fill-rule="nonzero" fill-opacity="1" /><path clip-path="url(#clip570)" d="M2097.99 178.097 Q2094.89 183.421 2093.39 188.629 Q2091.88 193.837 2091.88 199.184 Q2091.88 204.532 2093.39 209.786 Q2094.91 215.018 2097.99 220.319 L2094.29 220.319 Q2090.82 214.879 2089.08 209.624 Q2087.37 204.37 2087.37 199.184 Q2087.37 194.022 2089.08 188.791 Q2090.79 183.56 2094.29 178.097 L2097.99 178.097 Z" fill="#000000" fill-rule="nonzero" fill-opacity="1" /><path clip-path="url(#clip570)" d="M2106.26 188.143 L2110.52 188.143 L2110.52 214.069 L2106.26 214.069 L2106.26 188.143 M2106.26 178.05 L2110.52 178.05 L2110.52 183.444 L2106.26 183.444 L2106.26 178.05 Z" fill="#000000" fill-rule="nonzero" fill-opacity="1" /><path clip-path="url(#clip570)" d="M2135.05 192.541 L2164.73 192.541 L2164.73 196.43 L2135.05 196.43 L2135.05 192.541 M2135.05 201.985 L2164.73 201.985 L2164.73 205.921 L2135.05 205.921 L2135.05 201.985 Z" fill="#000000" fill-rule="nonzero" fill-opacity="1" /><path clip-path="url(#clip570)" d="M2202.74 183.583 L2190.93 202.032 L2202.74 202.032 L2202.74 183.583 M2201.51 179.509 L2207.39 179.509 L2207.39 202.032 L2212.32 202.032 L2212.32 205.921 L2207.39 205.921 L2207.39 214.069 L2202.74 214.069 L2202.74 205.921 L2187.14 205.921 L2187.14 201.407 L2201.51 179.509 Z" fill="#000000" fill-rule="nonzero" fill-opacity="1" /><path clip-path="url(#clip570)" d="M2234.22 195.434 Q2237.58 196.152 2239.45 198.421 Q2241.35 200.689 2241.35 204.022 Q2241.35 209.138 2237.83 211.939 Q2234.31 214.74 2227.83 214.74 Q2225.65 214.74 2223.34 214.3 Q2221.05 213.883 2218.59 213.027 L2218.59 208.513 Q2220.54 209.647 2222.85 210.226 Q2225.17 210.805 2227.69 210.805 Q2232.09 210.805 2234.38 209.069 Q2236.7 207.333 2236.7 204.022 Q2236.7 200.967 2234.54 199.254 Q2232.41 197.518 2228.59 197.518 L2224.57 197.518 L2224.57 193.675 L2228.78 193.675 Q2232.23 193.675 2234.06 192.309 Q2235.89 190.921 2235.89 188.328 Q2235.89 185.666 2233.99 184.254 Q2232.11 182.819 2228.59 182.819 Q2226.67 182.819 2224.47 183.235 Q2222.27 183.652 2219.64 184.532 L2219.64 180.365 Q2222.3 179.624 2224.61 179.254 Q2226.95 178.884 2229.01 178.884 Q2234.33 178.884 2237.44 181.314 Q2240.54 183.722 2240.54 187.842 Q2240.54 190.712 2238.89 192.703 Q2237.25 194.671 2234.22 195.434 Z" fill="#000000" fill-rule="nonzero" fill-opacity="1" /><path clip-path="url(#clip570)" d="M2248.94 178.097 L2252.64 178.097 Q2256.12 183.56 2257.83 188.791 Q2259.57 194.022 2259.57 199.184 Q2259.57 204.37 2257.83 209.624 Q2256.12 214.879 2252.64 220.319 L2248.94 220.319 Q2252.02 215.018 2253.52 209.786 Q2255.05 204.532 2255.05 199.184 Q2255.05 193.837 2253.52 188.629 Q2252.02 183.421 2248.94 178.097 Z" fill="#000000" fill-rule="nonzero" fill-opacity="1" /><polyline clip-path="url(#clip570)" style="stroke:#000000; stroke-linecap:round; stroke-linejoin:round; stroke-width:8; stroke-opacity:1; fill:none" stroke-dasharray="32, 20" points="1668.71,248.629 1808.49,248.629 "/>
<path clip-path="url(#clip570)" d="M1834.01 265.191 L1834.01 260.932 Q1835.77 261.765 1837.58 262.205 Q1839.38 262.645 1841.12 262.645 Q1845.75 262.645 1848.18 259.543 Q1850.63 256.418 1850.98 250.075 Q1849.64 252.066 1847.58 253.131 Q1845.52 254.196 1843.02 254.196 Q1837.83 254.196 1834.8 251.071 Q1831.79 247.923 1831.79 242.483 Q1831.79 237.159 1834.94 233.941 Q1838.09 230.724 1843.32 230.724 Q1849.31 230.724 1852.46 235.33 Q1855.63 239.913 1855.63 248.663 Q1855.63 256.835 1851.74 261.719 Q1847.88 266.58 1841.33 266.58 Q1839.57 266.58 1837.76 266.233 Q1835.96 265.885 1834.01 265.191 M1843.32 250.538 Q1846.47 250.538 1848.29 248.386 Q1850.15 246.233 1850.15 242.483 Q1850.15 238.756 1848.29 236.603 Q1846.47 234.427 1843.32 234.427 Q1840.17 234.427 1838.32 236.603 Q1836.49 238.756 1836.49 242.483 Q1836.49 246.233 1838.32 248.386 Q1840.17 250.538 1843.32 250.538 Z" fill="#000000" fill-rule="nonzero" fill-opacity="1" /><path clip-path="url(#clip570)" d="M1864.08 231.349 L1882.44 231.349 L1882.44 235.284 L1868.36 235.284 L1868.36 243.756 Q1869.38 243.409 1870.4 243.247 Q1871.42 243.062 1872.44 243.062 Q1878.23 243.062 1881.6 246.233 Q1884.98 249.404 1884.98 254.821 Q1884.98 260.399 1881.51 263.501 Q1878.04 266.58 1871.72 266.58 Q1869.54 266.58 1867.28 266.21 Q1865.03 265.839 1862.62 265.098 L1862.62 260.399 Q1864.71 261.534 1866.93 262.089 Q1869.15 262.645 1871.63 262.645 Q1875.63 262.645 1877.97 260.538 Q1880.31 258.432 1880.31 254.821 Q1880.31 251.21 1877.97 249.103 Q1875.63 246.997 1871.63 246.997 Q1869.75 246.997 1867.88 247.413 Q1866.03 247.83 1864.08 248.71 L1864.08 231.349 Z" fill="#000000" fill-rule="nonzero" fill-opacity="1" /><path clip-path="url(#clip570)" d="M1923.6 250.7 Q1921.58 250.7 1920.42 252.413 Q1919.29 254.126 1919.29 257.182 Q1919.29 260.191 1920.42 261.927 Q1921.58 263.64 1923.6 263.64 Q1925.56 263.64 1926.7 261.927 Q1927.85 260.191 1927.85 257.182 Q1927.85 254.149 1926.7 252.436 Q1925.56 250.7 1923.6 250.7 M1923.6 247.761 Q1927.25 247.761 1929.41 250.307 Q1931.56 252.853 1931.56 257.182 Q1931.56 261.51 1929.38 264.057 Q1927.23 266.58 1923.6 266.58 Q1919.89 266.58 1917.74 264.057 Q1915.59 261.51 1915.59 257.182 Q1915.59 252.83 1917.74 250.307 Q1919.91 247.761 1923.6 247.761 M1899.71 233.663 Q1897.72 233.663 1896.56 235.4 Q1895.42 237.112 1895.42 240.122 Q1895.42 243.177 1896.56 244.89 Q1897.69 246.603 1899.71 246.603 Q1901.72 246.603 1902.85 244.89 Q1904.01 243.177 1904.01 240.122 Q1904.01 237.136 1902.85 235.4 Q1901.7 233.663 1899.71 233.663 M1920.61 230.724 L1924.31 230.724 L1902.69 266.58 L1898.99 266.58 L1920.61 230.724 M1899.71 230.724 Q1903.36 230.724 1905.54 233.27 Q1907.72 235.793 1907.72 240.122 Q1907.72 244.497 1905.54 247.02 Q1903.39 249.543 1899.71 249.543 Q1896.03 249.543 1893.87 247.02 Q1891.74 244.474 1891.74 240.122 Q1891.74 235.816 1893.9 233.27 Q1896.05 230.724 1899.71 230.724 Z" fill="#000000" fill-rule="nonzero" fill-opacity="1" /><path clip-path="url(#clip570)" d="M1972.37 240.978 L1972.37 244.96 Q1970.56 243.964 1968.73 243.478 Q1966.93 242.969 1965.08 242.969 Q1960.93 242.969 1958.64 245.608 Q1956.35 248.224 1956.35 252.969 Q1956.35 257.714 1958.64 260.353 Q1960.93 262.969 1965.08 262.969 Q1966.93 262.969 1968.73 262.483 Q1970.56 261.973 1972.37 260.978 L1972.37 264.913 Q1970.59 265.747 1968.66 266.163 Q1966.77 266.58 1964.61 266.58 Q1958.76 266.58 1955.31 262.899 Q1951.86 259.219 1951.86 252.969 Q1951.86 246.626 1955.33 242.992 Q1958.83 239.358 1964.89 239.358 Q1966.86 239.358 1968.73 239.775 Q1970.61 240.168 1972.37 240.978 Z" fill="#000000" fill-rule="nonzero" fill-opacity="1" /><path clip-path="url(#clip570)" d="M1989.82 242.969 Q1986.4 242.969 1984.41 245.654 Q1982.41 248.316 1982.41 252.969 Q1982.41 257.622 1984.38 260.307 Q1986.37 262.969 1989.82 262.969 Q1993.22 262.969 1995.22 260.284 Q1997.21 257.598 1997.21 252.969 Q1997.21 248.362 1995.22 245.677 Q1993.22 242.969 1989.82 242.969 M1989.82 239.358 Q1995.38 239.358 1998.55 242.969 Q2001.72 246.58 2001.72 252.969 Q2001.72 259.335 1998.55 262.969 Q1995.38 266.58 1989.82 266.58 Q1984.24 266.58 1981.07 262.969 Q1977.92 259.335 1977.92 252.969 Q1977.92 246.58 1981.07 242.969 Q1984.24 239.358 1989.82 239.358 Z" fill="#000000" fill-rule="nonzero" fill-opacity="1" /><path clip-path="url(#clip570)" d="M2030.33 250.261 L2030.33 265.909 L2026.07 265.909 L2026.07 250.399 Q2026.07 246.719 2024.64 244.89 Q2023.2 243.062 2020.33 243.062 Q2016.88 243.062 2014.89 245.261 Q2012.9 247.46 2012.9 251.256 L2012.9 265.909 L2008.62 265.909 L2008.62 239.983 L2012.9 239.983 L2012.9 244.011 Q2014.43 241.673 2016.49 240.515 Q2018.57 239.358 2021.28 239.358 Q2025.75 239.358 2028.04 242.136 Q2030.33 244.89 2030.33 250.261 Z" fill="#000000" fill-rule="nonzero" fill-opacity="1" /><path clip-path="url(#clip570)" d="M2051.95 229.89 L2051.95 233.432 L2047.88 233.432 Q2045.59 233.432 2044.68 234.358 Q2043.8 235.284 2043.8 237.691 L2043.8 239.983 L2050.82 239.983 L2050.82 243.293 L2043.8 243.293 L2043.8 265.909 L2039.52 265.909 L2039.52 243.293 L2035.45 243.293 L2035.45 239.983 L2039.52 239.983 L2039.52 238.177 Q2039.52 233.849 2041.53 231.881 Q2043.55 229.89 2047.92 229.89 L2051.95 229.89 Z" fill="#000000" fill-rule="nonzero" fill-opacity="1" /><path clip-path="url(#clip570)" d="M2055.52 239.983 L2059.78 239.983 L2059.78 265.909 L2055.52 265.909 L2055.52 239.983 M2055.52 229.89 L2059.78 229.89 L2059.78 235.284 L2055.52 235.284 L2055.52 229.89 Z" fill="#000000" fill-rule="nonzero" fill-opacity="1" /><path clip-path="url(#clip570)" d="M2085.75 243.918 L2085.75 229.89 L2090.01 229.89 L2090.01 265.909 L2085.75 265.909 L2085.75 262.02 Q2084.4 264.335 2082.34 265.469 Q2080.31 266.58 2077.44 266.58 Q2072.74 266.58 2069.78 262.83 Q2066.84 259.08 2066.84 252.969 Q2066.84 246.858 2069.78 243.108 Q2072.74 239.358 2077.44 239.358 Q2080.31 239.358 2082.34 240.492 Q2084.4 241.603 2085.75 243.918 M2071.23 252.969 Q2071.23 257.668 2073.15 260.353 Q2075.1 263.015 2078.48 263.015 Q2081.86 263.015 2083.8 260.353 Q2085.75 257.668 2085.75 252.969 Q2085.75 248.27 2083.8 245.608 Q2081.86 242.923 2078.48 242.923 Q2075.1 242.923 2073.15 245.608 Q2071.23 248.27 2071.23 252.969 Z" fill="#000000" fill-rule="nonzero" fill-opacity="1" /><path clip-path="url(#clip570)" d="M2120.96 251.881 L2120.96 253.964 L2101.37 253.964 Q2101.65 258.362 2104.01 260.677 Q2106.4 262.969 2110.63 262.969 Q2113.09 262.969 2115.38 262.367 Q2117.69 261.765 2119.96 260.561 L2119.96 264.589 Q2117.67 265.561 2115.26 266.071 Q2112.85 266.58 2110.38 266.58 Q2104.17 266.58 2100.54 262.969 Q2096.93 259.358 2096.93 253.2 Q2096.93 246.835 2100.35 243.108 Q2103.8 239.358 2109.64 239.358 Q2114.87 239.358 2117.9 242.737 Q2120.96 246.094 2120.96 251.881 M2116.7 250.631 Q2116.65 247.136 2114.73 245.052 Q2112.83 242.969 2109.68 242.969 Q2106.12 242.969 2103.96 244.983 Q2101.84 246.997 2101.51 250.654 L2116.7 250.631 Z" fill="#000000" fill-rule="nonzero" fill-opacity="1" /><path clip-path="url(#clip570)" d="M2149.5 250.261 L2149.5 265.909 L2145.24 265.909 L2145.24 250.399 Q2145.24 246.719 2143.8 244.89 Q2142.37 243.062 2139.5 243.062 Q2136.05 243.062 2134.06 245.261 Q2132.07 247.46 2132.07 251.256 L2132.07 265.909 L2127.78 265.909 L2127.78 239.983 L2132.07 239.983 L2132.07 244.011 Q2133.59 241.673 2135.65 240.515 Q2137.74 239.358 2140.45 239.358 Q2144.91 239.358 2147.21 242.136 Q2149.5 244.89 2149.5 250.261 Z" fill="#000000" fill-rule="nonzero" fill-opacity="1" /><path clip-path="url(#clip570)" d="M2176.65 240.978 L2176.65 244.96 Q2174.84 243.964 2173.02 243.478 Q2171.21 242.969 2169.36 242.969 Q2165.21 242.969 2162.92 245.608 Q2160.63 248.224 2160.63 252.969 Q2160.63 257.714 2162.92 260.353 Q2165.21 262.969 2169.36 262.969 Q2171.21 262.969 2173.02 262.483 Q2174.84 261.973 2176.65 260.978 L2176.65 264.913 Q2174.87 265.747 2172.95 266.163 Q2171.05 266.58 2168.89 266.58 Q2163.04 266.58 2159.59 262.899 Q2156.14 259.219 2156.14 252.969 Q2156.14 246.626 2159.61 242.992 Q2163.11 239.358 2169.17 239.358 Q2171.14 239.358 2173.02 239.775 Q2174.89 240.168 2176.65 240.978 Z" fill="#000000" fill-rule="nonzero" fill-opacity="1" /><path clip-path="url(#clip570)" d="M2206.23 251.881 L2206.23 253.964 L2186.65 253.964 Q2186.93 258.362 2189.29 260.677 Q2191.67 262.969 2195.91 262.969 Q2198.36 262.969 2200.65 262.367 Q2202.97 261.765 2205.24 260.561 L2205.24 264.589 Q2202.95 265.561 2200.54 266.071 Q2198.13 266.58 2195.65 266.58 Q2189.45 266.58 2185.82 262.969 Q2182.21 259.358 2182.21 253.2 Q2182.21 246.835 2185.63 243.108 Q2189.08 239.358 2194.91 239.358 Q2200.14 239.358 2203.18 242.737 Q2206.23 246.094 2206.23 251.881 M2201.97 250.631 Q2201.93 247.136 2200.01 245.052 Q2198.11 242.969 2194.96 242.969 Q2191.39 242.969 2189.24 244.983 Q2187.11 246.997 2186.79 250.654 L2201.97 250.631 Z" fill="#000000" fill-rule="nonzero" fill-opacity="1" /></svg>
