<?xml version="1.0" encoding="utf-8"?>
<svg xmlns="http://www.w3.org/2000/svg" xmlns:xlink="http://www.w3.org/1999/xlink" width="700" height="500" viewBox="0 0 2800 2000">
<defs>
  <clipPath id="clip290">
    <rect x="0" y="0" width="2800" height="2000"/>
  </clipPath>
</defs>
<path clip-path="url(#clip290)" d="M0 2000 L2800 2000 L2800 -4.44089e-14 L0 -4.44089e-14  Z" fill="#ffffff" fill-rule="evenodd" fill-opacity="1"/>
<defs>
  <clipPath id="clip291">
    <rect x="532" y="125" width="2142" height="1506"/>
  </clipPath>
</defs>
<path clip-path="url(#clip290)" d="M448.779 1630.83 L2674.02 1630.83 L2674.02 125.984 L448.779 125.984  Z" fill="#ffffff" fill-rule="evenodd" fill-opacity="1"/>
<defs>
  <clipPath id="clip292">
    <rect x="448" y="125" width="2226" height="1506"/>
  </clipPath>
</defs>
<polyline clip-path="url(#clip292)" style="stroke:#000000; stroke-linecap:round; stroke-linejoin:round; stroke-width:2; stroke-opacity:0.1; fill:none" points="503.394,1630.83 503.394,125.984 "/>
<polyline clip-path="url(#clip292)" style="stroke:#000000; stroke-linecap:round; stroke-linejoin:round; stroke-width:2; stroke-opacity:0.1; fill:none" points="921.577,1630.83 921.577,125.984 "/>
<polyline clip-path="url(#clip292)" style="stroke:#000000; stroke-linecap:round; stroke-linejoin:round; stroke-width:2; stroke-opacity:0.1; fill:none" points="1339.76,1630.83 1339.76,125.984 "/>
<polyline clip-path="url(#clip292)" style="stroke:#000000; stroke-linecap:round; stroke-linejoin:round; stroke-width:2; stroke-opacity:0.1; fill:none" points="1757.94,1630.83 1757.94,125.984 "/>
<polyline clip-path="url(#clip292)" style="stroke:#000000; stroke-linecap:round; stroke-linejoin:round; stroke-width:2; stroke-opacity:0.1; fill:none" points="2176.13,1630.83 2176.13,125.984 "/>
<polyline clip-path="url(#clip292)" style="stroke:#000000; stroke-linecap:round; stroke-linejoin:round; stroke-width:2; stroke-opacity:0.1; fill:none" points="2594.31,1630.83 2594.31,125.984 "/>
<polyline clip-path="url(#clip292)" style="stroke:#000000; stroke-linecap:round; stroke-linejoin:round; stroke-width:2; stroke-opacity:0.1; fill:none" points="448.779,1388.95 2674.02,1388.95 "/>
<polyline clip-path="url(#clip292)" style="stroke:#000000; stroke-linecap:round; stroke-linejoin:round; stroke-width:2; stroke-opacity:0.1; fill:none" points="448.779,1011.83 2674.02,1011.83 "/>
<polyline clip-path="url(#clip292)" style="stroke:#000000; stroke-linecap:round; stroke-linejoin:round; stroke-width:2; stroke-opacity:0.1; fill:none" points="448.779,634.707 2674.02,634.707 "/>
<polyline clip-path="url(#clip292)" style="stroke:#000000; stroke-linecap:round; stroke-linejoin:round; stroke-width:2; stroke-opacity:0.1; fill:none" points="448.779,257.583 2674.02,257.583 "/>
<polyline clip-path="url(#clip290)" style="stroke:#000000; stroke-linecap:round; stroke-linejoin:round; stroke-width:4; stroke-opacity:1; fill:none" points="448.779,1630.83 2674.02,1630.83 "/>
<polyline clip-path="url(#clip290)" style="stroke:#000000; stroke-linecap:round; stroke-linejoin:round; stroke-width:4; stroke-opacity:1; fill:none" points="503.394,1630.83 503.394,1611.93 "/>
<polyline clip-path="url(#clip290)" style="stroke:#000000; stroke-linecap:round; stroke-linejoin:round; stroke-width:4; stroke-opacity:1; fill:none" points="921.577,1630.83 921.577,1611.93 "/>
<polyline clip-path="url(#clip290)" style="stroke:#000000; stroke-linecap:round; stroke-linejoin:round; stroke-width:4; stroke-opacity:1; fill:none" points="1339.76,1630.83 1339.76,1611.93 "/>
<polyline clip-path="url(#clip290)" style="stroke:#000000; stroke-linecap:round; stroke-linejoin:round; stroke-width:4; stroke-opacity:1; fill:none" points="1757.94,1630.83 1757.94,1611.93 "/>
<polyline clip-path="url(#clip290)" style="stroke:#000000; stroke-linecap:round; stroke-linejoin:round; stroke-width:4; stroke-opacity:1; fill:none" points="2176.13,1630.83 2176.13,1611.93 "/>
<polyline clip-path="url(#clip290)" style="stroke:#000000; stroke-linecap:round; stroke-linejoin:round; stroke-width:4; stroke-opacity:1; fill:none" points="2594.31,1630.83 2594.31,1611.93 "/>
<path clip-path="url(#clip290)" d="M503.394 1667.88 Q498.88 1667.88 496.594 1672.34 Q494.337 1676.76 494.337 1685.67 Q494.337 1694.56 496.594 1699.01 Q498.88 1703.44 503.394 1703.44 Q507.936 1703.44 510.193 1699.01 Q512.479 1694.56 512.479 1685.67 Q512.479 1676.76 510.193 1672.34 Q507.936 1667.88 503.394 1667.88 M503.394 1663.25 Q510.656 1663.25 514.476 1669.01 Q518.324 1674.74 518.324 1685.67 Q518.324 1696.58 514.476 1702.34 Q510.656 1708.07 503.394 1708.07 Q496.131 1708.07 492.283 1702.34 Q488.463 1696.58 488.463 1685.67 Q488.463 1674.74 492.283 1669.01 Q496.131 1663.25 503.394 1663.25 Z" fill="#000000" fill-rule="nonzero" fill-opacity="1" /><path clip-path="url(#clip290)" d="M889.951 1664.03 L912.896 1664.03 L912.896 1668.95 L895.304 1668.95 L895.304 1679.54 Q896.577 1679.11 897.85 1678.9 Q899.123 1678.67 900.396 1678.67 Q907.63 1678.67 911.855 1682.64 Q916.079 1686.6 916.079 1693.37 Q916.079 1700.34 911.739 1704.22 Q907.399 1708.07 899.499 1708.07 Q896.78 1708.07 893.944 1707.61 Q891.137 1707.14 888.128 1706.22 L888.128 1700.34 Q890.732 1701.76 893.51 1702.46 Q896.288 1703.15 899.384 1703.15 Q904.389 1703.15 907.312 1700.52 Q910.234 1697.89 910.234 1693.37 Q910.234 1688.86 907.312 1686.22 Q904.389 1683.59 899.384 1683.59 Q897.04 1683.59 894.696 1684.11 Q892.381 1684.63 889.951 1685.73 L889.951 1664.03 Z" fill="#000000" fill-rule="nonzero" fill-opacity="1" /><path clip-path="url(#clip290)" d="M940.095 1667.88 Q935.581 1667.88 933.296 1672.34 Q931.039 1676.76 931.039 1685.67 Q931.039 1694.56 933.296 1699.01 Q935.581 1703.44 940.095 1703.44 Q944.638 1703.44 946.895 1699.01 Q949.181 1694.56 949.181 1685.67 Q949.181 1676.76 946.895 1672.34 Q944.638 1667.88 940.095 1667.88 M940.095 1663.25 Q947.358 1663.25 951.177 1669.01 Q955.026 1674.74 955.026 1685.67 Q955.026 1696.58 951.177 1702.34 Q947.358 1708.07 940.095 1708.07 Q932.833 1708.07 928.984 1702.34 Q925.165 1696.58 925.165 1685.67 Q925.165 1674.74 928.984 1669.01 Q932.833 1663.25 940.095 1663.25 Z" fill="#000000" fill-rule="nonzero" fill-opacity="1" /><path clip-path="url(#clip290)" d="M1289.27 1702.31 L1298.82 1702.31 L1298.82 1669.36 L1288.43 1671.44 L1288.43 1666.11 L1298.76 1664.03 L1304.6 1664.03 L1304.6 1702.31 L1314.15 1702.31 L1314.15 1707.23 L1289.27 1707.23 L1289.27 1702.31 Z" fill="#000000" fill-rule="nonzero" fill-opacity="1" /><path clip-path="url(#clip290)" d="M1338.46 1667.88 Q1333.94 1667.88 1331.66 1672.34 Q1329.4 1676.76 1329.4 1685.67 Q1329.4 1694.56 1331.66 1699.01 Q1333.94 1703.44 1338.46 1703.44 Q1343 1703.44 1345.26 1699.01 Q1347.54 1694.56 1347.54 1685.67 Q1347.54 1676.76 1345.26 1672.34 Q1343 1667.88 1338.46 1667.88 M1338.46 1663.25 Q1345.72 1663.25 1349.54 1669.01 Q1353.39 1674.74 1353.39 1685.67 Q1353.39 1696.58 1349.54 1702.34 Q1345.72 1708.07 1338.46 1708.07 Q1331.2 1708.07 1327.35 1702.34 Q1323.53 1696.58 1323.53 1685.67 Q1323.53 1674.74 1327.35 1669.01 Q1331.2 1663.25 1338.46 1663.25 Z" fill="#000000" fill-rule="nonzero" fill-opacity="1" /><path clip-path="url(#clip290)" d="M1376.16 1667.88 Q1371.65 1667.88 1369.36 1672.34 Q1367.1 1676.76 1367.1 1685.67 Q1367.1 1694.56 1369.36 1699.01 Q1371.65 1703.44 1376.16 1703.44 Q1380.7 1703.44 1382.96 1699.01 Q1385.25 1694.56 1385.25 1685.67 Q1385.25 1676.76 1382.96 1672.34 Q1380.7 1667.88 1376.16 1667.88 M1376.16 1663.25 Q1383.42 1663.25 1387.24 1669.01 Q1391.09 1674.74 1391.09 1685.67 Q1391.09 1696.58 1387.24 1702.34 Q1383.42 1708.07 1376.16 1708.07 Q1368.9 1708.07 1365.05 1702.34 Q1361.23 1696.58 1361.23 1685.67 Q1361.23 1674.74 1365.05 1669.01 Q1368.9 1663.25 1376.16 1663.25 Z" fill="#000000" fill-rule="nonzero" fill-opacity="1" /><path clip-path="url(#clip290)" d="M1707.45 1702.31 L1717 1702.31 L1717 1669.36 L1706.61 1671.44 L1706.61 1666.11 L1716.94 1664.03 L1722.79 1664.03 L1722.79 1702.31 L1732.34 1702.31 L1732.34 1707.23 L1707.45 1707.23 L1707.45 1702.31 Z" fill="#000000" fill-rule="nonzero" fill-opacity="1" /><path clip-path="url(#clip290)" d="M1744.2 1664.03 L1767.14 1664.03 L1767.14 1668.95 L1749.55 1668.95 L1749.55 1679.54 Q1750.83 1679.11 1752.1 1678.9 Q1753.37 1678.67 1754.64 1678.67 Q1761.88 1678.67 1766.1 1682.64 Q1770.33 1686.6 1770.33 1693.37 Q1770.33 1700.34 1765.99 1704.22 Q1761.65 1708.07 1753.75 1708.07 Q1751.03 1708.07 1748.19 1707.61 Q1745.39 1707.14 1742.38 1706.22 L1742.38 1700.34 Q1744.98 1701.76 1747.76 1702.46 Q1750.54 1703.15 1753.63 1703.15 Q1758.64 1703.15 1761.56 1700.52 Q1764.48 1697.89 1764.48 1693.37 Q1764.48 1688.86 1761.56 1686.22 Q1758.64 1683.59 1753.63 1683.59 Q1751.29 1683.59 1748.94 1684.11 Q1746.63 1684.63 1744.2 1685.73 L1744.2 1664.03 Z" fill="#000000" fill-rule="nonzero" fill-opacity="1" /><path clip-path="url(#clip290)" d="M1794.34 1667.88 Q1789.83 1667.88 1787.54 1672.34 Q1785.29 1676.76 1785.29 1685.67 Q1785.29 1694.56 1787.54 1699.01 Q1789.83 1703.44 1794.34 1703.44 Q1798.89 1703.44 1801.14 1699.01 Q1803.43 1694.56 1803.43 1685.67 Q1803.43 1676.76 1801.14 1672.34 Q1798.89 1667.88 1794.34 1667.88 M1794.34 1663.25 Q1801.61 1663.25 1805.43 1669.01 Q1809.27 1674.74 1809.27 1685.67 Q1809.27 1696.58 1805.43 1702.34 Q1801.61 1708.07 1794.34 1708.07 Q1787.08 1708.07 1783.23 1702.34 Q1779.41 1696.58 1779.41 1685.67 Q1779.41 1674.74 1783.23 1669.01 Q1787.08 1663.25 1794.34 1663.25 Z" fill="#000000" fill-rule="nonzero" fill-opacity="1" /><path clip-path="url(#clip290)" d="M2130.74 1702.31 L2151.14 1702.31 L2151.14 1707.23 L2123.71 1707.23 L2123.71 1702.31 Q2127.04 1698.87 2132.77 1693.08 Q2138.53 1687.27 2140 1685.59 Q2142.81 1682.43 2143.91 1680.26 Q2145.04 1678.06 2145.04 1675.95 Q2145.04 1672.51 2142.61 1670.34 Q2140.2 1668.17 2136.33 1668.17 Q2133.58 1668.17 2130.51 1669.12 Q2127.47 1670.08 2124 1672.02 L2124 1666.11 Q2127.53 1664.7 2130.6 1663.97 Q2133.66 1663.25 2136.21 1663.25 Q2142.92 1663.25 2146.92 1666.61 Q2150.91 1669.96 2150.91 1675.58 Q2150.91 1678.24 2149.9 1680.64 Q2148.91 1683.01 2146.28 1686.25 Q2145.56 1687.09 2141.68 1691.11 Q2137.8 1695.11 2130.74 1702.31 Z" fill="#000000" fill-rule="nonzero" fill-opacity="1" /><path clip-path="url(#clip290)" d="M2175.91 1667.88 Q2171.4 1667.88 2169.11 1672.34 Q2166.85 1676.76 2166.85 1685.67 Q2166.85 1694.56 2169.11 1699.01 Q2171.4 1703.44 2175.91 1703.44 Q2180.45 1703.44 2182.71 1699.01 Q2185 1694.56 2185 1685.67 Q2185 1676.76 2182.71 1672.34 Q2180.45 1667.88 2175.91 1667.88 M2175.91 1663.25 Q2183.17 1663.25 2186.99 1669.01 Q2190.84 1674.74 2190.84 1685.67 Q2190.84 1696.58 2186.99 1702.34 Q2183.17 1708.07 2175.91 1708.07 Q2168.65 1708.07 2164.8 1702.34 Q2160.98 1696.58 2160.98 1685.67 Q2160.98 1674.74 2164.8 1669.01 Q2168.65 1663.25 2175.91 1663.25 Z" fill="#000000" fill-rule="nonzero" fill-opacity="1" /><path clip-path="url(#clip290)" d="M2213.61 1667.88 Q2209.1 1667.88 2206.81 1672.34 Q2204.56 1676.76 2204.56 1685.67 Q2204.56 1694.56 2206.81 1699.01 Q2209.1 1703.44 2213.61 1703.44 Q2218.15 1703.44 2220.41 1699.01 Q2222.7 1694.56 2222.7 1685.67 Q2222.7 1676.76 2220.41 1672.34 Q2218.15 1667.88 2213.61 1667.88 M2213.61 1663.25 Q2220.87 1663.25 2224.69 1669.01 Q2228.54 1674.74 2228.54 1685.67 Q2228.54 1696.58 2224.69 1702.34 Q2220.87 1708.07 2213.61 1708.07 Q2206.35 1708.07 2202.5 1702.34 Q2198.68 1696.58 2198.68 1685.67 Q2198.68 1674.74 2202.5 1669.01 Q2206.35 1663.25 2213.61 1663.25 Z" fill="#000000" fill-rule="nonzero" fill-opacity="1" /><path clip-path="url(#clip290)" d="M2548.93 1702.31 L2569.32 1702.31 L2569.32 1707.23 L2541.89 1707.23 L2541.89 1702.31 Q2545.22 1698.87 2550.95 1693.08 Q2556.71 1687.27 2558.18 1685.59 Q2560.99 1682.43 2562.09 1680.26 Q2563.22 1678.06 2563.22 1675.95 Q2563.22 1672.51 2560.79 1670.34 Q2558.39 1668.17 2554.51 1668.17 Q2551.76 1668.17 2548.69 1669.12 Q2545.66 1670.08 2542.18 1672.02 L2542.18 1666.11 Q2545.71 1664.7 2548.78 1663.97 Q2551.85 1663.25 2554.39 1663.25 Q2561.11 1663.25 2565.1 1666.61 Q2569.09 1669.96 2569.09 1675.58 Q2569.09 1678.24 2568.08 1680.64 Q2567.1 1683.01 2564.46 1686.25 Q2563.74 1687.09 2559.86 1691.11 Q2555.99 1695.11 2548.93 1702.31 Z" fill="#000000" fill-rule="nonzero" fill-opacity="1" /><path clip-path="url(#clip290)" d="M2581.65 1664.03 L2604.6 1664.03 L2604.6 1668.95 L2587 1668.95 L2587 1679.54 Q2588.28 1679.11 2589.55 1678.9 Q2590.82 1678.67 2592.1 1678.67 Q2599.33 1678.67 2603.55 1682.64 Q2607.78 1686.6 2607.78 1693.37 Q2607.78 1700.34 2603.44 1704.22 Q2599.1 1708.07 2591.2 1708.07 Q2588.48 1708.07 2585.64 1707.61 Q2582.84 1707.14 2579.83 1706.22 L2579.83 1700.34 Q2582.43 1701.76 2585.21 1702.46 Q2587.99 1703.15 2591.08 1703.15 Q2596.09 1703.15 2599.01 1700.52 Q2601.93 1697.89 2601.93 1693.37 Q2601.93 1688.86 2599.01 1686.22 Q2596.09 1683.59 2591.08 1683.59 Q2588.74 1683.59 2586.4 1684.11 Q2584.08 1684.63 2581.65 1685.73 L2581.65 1664.03 Z" fill="#000000" fill-rule="nonzero" fill-opacity="1" /><path clip-path="url(#clip290)" d="M2631.8 1667.88 Q2627.28 1667.88 2625 1672.34 Q2622.74 1676.76 2622.74 1685.67 Q2622.74 1694.56 2625 1699.01 Q2627.28 1703.44 2631.8 1703.44 Q2636.34 1703.44 2638.6 1699.01 Q2640.88 1694.56 2640.88 1685.67 Q2640.88 1676.76 2638.6 1672.34 Q2636.34 1667.88 2631.8 1667.88 M2631.8 1663.25 Q2639.06 1663.25 2642.88 1669.01 Q2646.73 1674.74 2646.73 1685.67 Q2646.73 1696.58 2642.88 1702.34 Q2639.06 1708.07 2631.8 1708.07 Q2624.53 1708.07 2620.68 1702.34 Q2616.86 1696.58 2616.86 1685.67 Q2616.86 1674.74 2620.68 1669.01 Q2624.53 1663.25 2631.8 1663.25 Z" fill="#000000" fill-rule="nonzero" fill-opacity="1" /><path clip-path="url(#clip290)" d="M1508.74 1747.14 L1515.17 1747.14 L1515.17 1789.24 L1538.31 1789.24 L1538.31 1794.66 L1508.74 1794.66 L1508.74 1747.14 Z" fill="#000000" fill-rule="nonzero" fill-opacity="1" /><path clip-path="url(#clip290)" d="M1561 1776.74 Q1553.9 1776.74 1551.16 1778.36 Q1548.43 1779.98 1548.43 1783.9 Q1548.43 1787.02 1550.46 1788.86 Q1552.53 1790.68 1556.07 1790.68 Q1560.94 1790.68 1563.86 1787.24 Q1566.82 1783.77 1566.82 1778.04 L1566.82 1776.74 L1561 1776.74 M1572.68 1774.32 L1572.68 1794.66 L1566.82 1794.66 L1566.82 1789.24 Q1564.82 1792.49 1561.83 1794.05 Q1558.84 1795.58 1554.51 1795.58 Q1549.03 1795.58 1545.79 1792.52 Q1542.57 1789.44 1542.57 1784.28 Q1542.57 1778.26 1546.58 1775.21 Q1550.62 1772.15 1558.61 1772.15 L1566.82 1772.15 L1566.82 1771.58 Q1566.82 1767.54 1564.15 1765.34 Q1561.51 1763.11 1556.7 1763.11 Q1553.65 1763.11 1550.75 1763.85 Q1547.85 1764.58 1545.18 1766.04 L1545.18 1760.63 Q1548.4 1759.39 1551.42 1758.78 Q1554.44 1758.15 1557.31 1758.15 Q1565.04 1758.15 1568.86 1762.16 Q1572.68 1766.17 1572.68 1774.32 Z" fill="#000000" fill-rule="nonzero" fill-opacity="1" /><path clip-path="url(#clip290)" d="M1608.2 1776.42 Q1608.2 1770.05 1605.56 1766.55 Q1602.95 1763.05 1598.21 1763.05 Q1593.5 1763.05 1590.85 1766.55 Q1588.24 1770.05 1588.24 1776.42 Q1588.24 1782.75 1590.85 1786.25 Q1593.5 1789.75 1598.21 1789.75 Q1602.95 1789.75 1605.56 1786.25 Q1608.2 1782.75 1608.2 1776.42 M1614.06 1790.23 Q1614.06 1799.33 1610.02 1803.76 Q1605.97 1808.21 1597.63 1808.21 Q1594.55 1808.21 1591.81 1807.74 Q1589.07 1807.29 1586.49 1806.34 L1586.49 1800.64 Q1589.07 1802.04 1591.59 1802.71 Q1594.1 1803.38 1596.71 1803.38 Q1602.47 1803.38 1605.34 1800.35 Q1608.2 1797.36 1608.2 1791.28 L1608.2 1788.39 Q1606.39 1791.54 1603.55 1793.1 Q1600.72 1794.66 1596.77 1794.66 Q1590.22 1794.66 1586.21 1789.66 Q1582.2 1784.66 1582.2 1776.42 Q1582.2 1768.14 1586.21 1763.15 Q1590.22 1758.15 1596.77 1758.15 Q1600.72 1758.15 1603.55 1759.71 Q1606.39 1761.27 1608.2 1764.42 L1608.2 1759.01 L1614.06 1759.01 L1614.06 1790.23 Z" fill="#000000" fill-rule="nonzero" fill-opacity="1" /><polyline clip-path="url(#clip290)" style="stroke:#000000; stroke-linecap:round; stroke-linejoin:round; stroke-width:4; stroke-opacity:1; fill:none" points="448.779,1630.83 448.779,125.984 "/>
<polyline clip-path="url(#clip290)" style="stroke:#000000; stroke-linecap:round; stroke-linejoin:round; stroke-width:4; stroke-opacity:1; fill:none" points="448.779,1388.95 467.676,1388.95 "/>
<polyline clip-path="url(#clip290)" style="stroke:#000000; stroke-linecap:round; stroke-linejoin:round; stroke-width:4; stroke-opacity:1; fill:none" points="448.779,1011.83 467.676,1011.83 "/>
<polyline clip-path="url(#clip290)" style="stroke:#000000; stroke-linecap:round; stroke-linejoin:round; stroke-width:4; stroke-opacity:1; fill:none" points="448.779,634.707 467.676,634.707 "/>
<polyline clip-path="url(#clip290)" style="stroke:#000000; stroke-linecap:round; stroke-linejoin:round; stroke-width:4; stroke-opacity:1; fill:none" points="448.779,257.583 467.676,257.583 "/>
<path clip-path="url(#clip290)" d="M335.309 1371.2 Q330.795 1371.2 328.51 1375.66 Q326.253 1380.09 326.253 1389 Q326.253 1397.88 328.51 1402.34 Q330.795 1406.76 335.309 1406.76 Q339.852 1406.76 342.109 1402.34 Q344.395 1397.88 344.395 1389 Q344.395 1380.09 342.109 1375.66 Q339.852 1371.2 335.309 1371.2 M335.309 1366.57 Q342.572 1366.57 346.391 1372.33 Q350.24 1378.06 350.24 1389 Q350.24 1399.91 346.391 1405.66 Q342.572 1411.39 335.309 1411.39 Q328.047 1411.39 324.198 1405.66 Q320.379 1399.91 320.379 1389 Q320.379 1378.06 324.198 1372.33 Q328.047 1366.57 335.309 1366.57 Z" fill="#000000" fill-rule="nonzero" fill-opacity="1" /><path clip-path="url(#clip290)" d="M360.512 1403.21 L366.617 1403.21 L366.617 1410.55 L360.512 1410.55 L360.512 1403.21 Z" fill="#000000" fill-rule="nonzero" fill-opacity="1" /><path clip-path="url(#clip290)" d="M391.848 1371.2 Q387.335 1371.2 385.049 1375.66 Q382.792 1380.09 382.792 1389 Q382.792 1397.88 385.049 1402.34 Q387.335 1406.76 391.848 1406.76 Q396.391 1406.76 398.648 1402.34 Q400.934 1397.88 400.934 1389 Q400.934 1380.09 398.648 1375.66 Q396.391 1371.2 391.848 1371.2 M391.848 1366.57 Q399.111 1366.57 402.93 1372.33 Q406.779 1378.06 406.779 1389 Q406.779 1399.91 402.93 1405.66 Q399.111 1411.39 391.848 1411.39 Q384.586 1411.39 380.737 1405.66 Q376.918 1399.91 376.918 1389 Q376.918 1378.06 380.737 1372.33 Q384.586 1366.57 391.848 1366.57 Z" fill="#000000" fill-rule="nonzero" fill-opacity="1" /><path clip-path="url(#clip290)" d="M336.843 994.079 Q332.329 994.079 330.043 998.535 Q327.786 1002.96 327.786 1011.87 Q327.786 1020.76 330.043 1025.21 Q332.329 1029.64 336.843 1029.64 Q341.386 1029.64 343.643 1025.21 Q345.928 1020.76 345.928 1011.87 Q345.928 1002.96 343.643 998.535 Q341.386 994.079 336.843 994.079 M336.843 989.45 Q344.106 989.45 347.925 995.208 Q351.773 1000.94 351.773 1011.87 Q351.773 1022.78 347.925 1028.54 Q344.106 1034.27 336.843 1034.27 Q329.58 1034.27 325.732 1028.54 Q321.912 1022.78 321.912 1011.87 Q321.912 1000.94 325.732 995.208 Q329.58 989.45 336.843 989.45 Z" fill="#000000" fill-rule="nonzero" fill-opacity="1" /><path clip-path="url(#clip290)" d="M362.045 1026.08 L368.151 1026.08 L368.151 1033.43 L362.045 1033.43 L362.045 1026.08 Z" fill="#000000" fill-rule="nonzero" fill-opacity="1" /><path clip-path="url(#clip290)" d="M381.895 1028.51 L391.443 1028.51 L391.443 995.555 L381.056 997.638 L381.056 992.314 L391.385 990.231 L397.23 990.231 L397.23 1028.51 L406.779 1028.51 L406.779 1033.43 L381.895 1033.43 L381.895 1028.51 Z" fill="#000000" fill-rule="nonzero" fill-opacity="1" /><path clip-path="url(#clip290)" d="M337.306 616.955 Q332.792 616.955 330.506 621.411 Q328.249 625.838 328.249 634.75 Q328.249 643.634 330.506 648.09 Q332.792 652.517 337.306 652.517 Q341.849 652.517 344.106 648.09 Q346.391 643.634 346.391 634.75 Q346.391 625.838 344.106 621.411 Q341.849 616.955 337.306 616.955 M337.306 612.326 Q344.569 612.326 348.388 618.084 Q352.236 623.813 352.236 634.75 Q352.236 645.659 348.388 651.417 Q344.569 657.146 337.306 657.146 Q330.043 657.146 326.195 651.417 Q322.375 645.659 322.375 634.75 Q322.375 623.813 326.195 618.084 Q330.043 612.326 337.306 612.326 Z" fill="#000000" fill-rule="nonzero" fill-opacity="1" /><path clip-path="url(#clip290)" d="M362.508 648.958 L368.614 648.958 L368.614 656.307 L362.508 656.307 L362.508 648.958 Z" fill="#000000" fill-rule="nonzero" fill-opacity="1" /><path clip-path="url(#clip290)" d="M386.38 651.388 L406.779 651.388 L406.779 656.307 L379.348 656.307 L379.348 651.388 Q382.676 647.945 388.405 642.158 Q394.163 636.342 395.639 634.664 Q398.446 631.51 399.545 629.34 Q400.674 627.141 400.674 625.028 Q400.674 621.585 398.243 619.415 Q395.841 617.245 391.964 617.245 Q389.215 617.245 386.148 618.2 Q383.11 619.154 379.638 621.093 L379.638 615.19 Q383.168 613.773 386.235 613.049 Q389.302 612.326 391.848 612.326 Q398.561 612.326 402.554 615.682 Q406.547 619.039 406.547 624.652 Q406.547 627.314 405.535 629.716 Q404.551 632.088 401.918 635.329 Q401.194 636.168 397.317 640.19 Q393.44 644.183 386.38 651.388 Z" fill="#000000" fill-rule="nonzero" fill-opacity="1" /><path clip-path="url(#clip290)" d="M336.12 239.832 Q331.606 239.832 329.32 244.288 Q327.063 248.715 327.063 257.627 Q327.063 266.51 329.32 270.966 Q331.606 275.393 336.12 275.393 Q340.662 275.393 342.919 270.966 Q345.205 266.51 345.205 257.627 Q345.205 248.715 342.919 244.288 Q340.662 239.832 336.12 239.832 M336.12 235.202 Q343.382 235.202 347.202 240.96 Q351.05 246.689 351.05 257.627 Q351.05 268.535 347.202 274.293 Q343.382 280.022 336.12 280.022 Q328.857 280.022 325.008 274.293 Q321.189 268.535 321.189 257.627 Q321.189 246.689 325.008 240.96 Q328.857 235.202 336.12 235.202 Z" fill="#000000" fill-rule="nonzero" fill-opacity="1" /><path clip-path="url(#clip290)" d="M361.322 271.834 L367.427 271.834 L367.427 279.183 L361.322 279.183 L361.322 271.834 Z" fill="#000000" fill-rule="nonzero" fill-opacity="1" /><path clip-path="url(#clip290)" d="M397.867 255.891 Q402.062 256.788 404.406 259.623 Q406.779 262.459 406.779 266.626 Q406.779 273.02 402.381 276.521 Q397.983 280.022 389.881 280.022 Q387.161 280.022 384.267 279.473 Q381.403 278.952 378.336 277.881 L378.336 272.239 Q380.766 273.657 383.66 274.38 Q386.553 275.103 389.707 275.103 Q395.205 275.103 398.069 272.933 Q400.963 270.763 400.963 266.626 Q400.963 262.806 398.272 260.665 Q395.61 258.495 390.836 258.495 L385.801 258.495 L385.801 253.692 L391.067 253.692 Q395.378 253.692 397.664 251.984 Q399.95 250.248 399.95 247.008 Q399.95 243.68 397.578 241.915 Q395.234 240.121 390.836 240.121 Q388.434 240.121 385.685 240.642 Q382.936 241.163 379.638 242.262 L379.638 237.054 Q382.965 236.128 385.859 235.665 Q388.781 235.202 391.356 235.202 Q398.012 235.202 401.889 238.24 Q405.766 241.249 405.766 246.4 Q405.766 249.988 403.712 252.476 Q401.657 254.936 397.867 255.891 Z" fill="#000000" fill-rule="nonzero" fill-opacity="1" /><path clip-path="url(#clip290)" d="M222.937 1043.9 L246.585 1052.62 L246.585 1035.15 L222.937 1043.9 M216.603 1047.53 L216.603 1040.24 L264.123 1022.13 L264.123 1028.81 L251.933 1033.14 L251.933 1054.56 L264.123 1058.89 L264.123 1065.67 L216.603 1047.53 Z" fill="#000000" fill-rule="nonzero" fill-opacity="1" /><path clip-path="url(#clip290)" d="M220.263 980.753 L227.043 980.753 Q224.019 983.999 222.523 987.691 Q221.027 991.351 221.027 995.489 Q221.027 1003.64 226.024 1007.97 Q230.989 1012.29 240.411 1012.29 Q249.8 1012.29 254.797 1007.97 Q259.762 1003.64 259.762 995.489 Q259.762 991.351 258.266 987.691 Q256.77 983.999 253.747 980.753 L260.463 980.753 Q262.754 984.126 263.9 987.914 Q265.046 991.67 265.046 995.871 Q265.046 1006.66 258.457 1012.87 Q251.837 1019.07 240.411 1019.07 Q228.952 1019.07 222.364 1012.87 Q215.743 1006.66 215.743 995.871 Q215.743 991.606 216.889 987.85 Q218.003 984.063 220.263 980.753 Z" fill="#000000" fill-rule="nonzero" fill-opacity="1" /><path clip-path="url(#clip290)" d="M216.603 970.822 L216.603 943.513 L222.014 943.513 L222.014 964.393 L236.018 964.393 L236.018 945.55 L241.429 945.55 L241.429 964.393 L264.123 964.393 L264.123 970.822 L216.603 970.822 Z" fill="#000000" fill-rule="nonzero" fill-opacity="1" /><path clip-path="url(#clip290)" d="M232.581 899.049 Q232.581 903.759 236.273 906.497 Q239.933 909.234 246.331 909.234 Q252.728 909.234 256.42 906.528 Q260.081 903.791 260.081 899.049 Q260.081 894.37 256.389 891.633 Q252.696 888.895 246.331 888.895 Q239.997 888.895 236.305 891.633 Q232.581 894.37 232.581 899.049 M227.616 899.049 Q227.616 891.41 232.581 887.049 Q237.546 882.689 246.331 882.689 Q255.084 882.689 260.081 887.049 Q265.046 891.41 265.046 899.049 Q265.046 906.719 260.081 911.08 Q255.084 915.409 246.331 915.409 Q237.546 915.409 232.581 911.08 Q227.616 906.719 227.616 899.049 Z" fill="#000000" fill-rule="nonzero" fill-opacity="1" /><path clip-path="url(#clip290)" d="M214.598 854.934 L219.467 854.934 L219.467 860.536 Q219.467 863.687 220.741 864.928 Q222.014 866.138 225.324 866.138 L228.475 866.138 L228.475 856.494 L233.026 856.494 L233.026 866.138 L264.123 866.138 L264.123 872.026 L233.026 872.026 L233.026 877.628 L228.475 877.628 L228.475 872.026 L225.992 872.026 Q220.04 872.026 217.335 869.257 Q214.598 866.488 214.598 860.472 L214.598 854.934 Z" fill="#000000" fill-rule="nonzero" fill-opacity="1" /><path clip-path="url(#clip290)" d="M214.311 821.769 L279.496 821.769 L279.496 827.18 L214.311 827.18 L214.311 821.769 Z" fill="#000000" fill-rule="nonzero" fill-opacity="1" /><path clip-path="url(#clip290)" d="M257.343 774.695 L244.58 774.695 L244.58 785.198 L239.297 785.198 L239.297 768.329 L259.699 768.329 Q262.34 772.053 263.709 776.541 Q265.046 781.028 265.046 786.121 Q265.046 797.261 258.553 803.563 Q252.028 809.833 240.411 809.833 Q228.761 809.833 222.268 803.563 Q215.743 797.261 215.743 786.121 Q215.743 781.474 216.889 777.305 Q218.035 773.103 220.263 769.57 L227.106 769.57 Q224.083 773.135 222.555 777.145 Q221.027 781.156 221.027 785.58 Q221.027 794.301 225.897 798.693 Q230.767 803.054 240.411 803.054 Q250.023 803.054 254.893 798.693 Q259.762 794.301 259.762 785.58 Q259.762 782.174 259.189 779.501 Q258.585 776.827 257.343 774.695 Z" fill="#000000" fill-rule="nonzero" fill-opacity="1" /><path clip-path="url(#clip290)" d="M274.945 729.753 L279.496 729.753 L279.496 763.618 L274.945 763.618 L274.945 729.753 Z" fill="#000000" fill-rule="nonzero" fill-opacity="1" /><path clip-path="url(#clip290)" d="M218.353 718.454 L228.475 718.454 L228.475 706.391 L233.026 706.391 L233.026 718.454 L252.378 718.454 Q256.739 718.454 257.98 717.276 Q259.221 716.066 259.221 712.406 L259.221 706.391 L264.123 706.391 L264.123 712.406 Q264.123 719.186 261.608 721.764 Q259.062 724.342 252.378 724.342 L233.026 724.342 L233.026 728.639 L228.475 728.639 L228.475 724.342 L218.353 724.342 L218.353 718.454 Z" fill="#000000" fill-rule="nonzero" fill-opacity="1" /><path clip-path="url(#clip290)" d="M214.311 691.145 L279.496 691.145 L279.496 696.556 L214.311 696.556 L214.311 691.145 Z" fill="#000000" fill-rule="nonzero" fill-opacity="1" /><polyline clip-path="url(#clip292)" style="stroke:#ff0000; stroke-linecap:round; stroke-linejoin:round; stroke-width:8; stroke-opacity:1; fill:none" stroke-dasharray="32, 20" points="511.757,242.507 520.121,386.538 528.485,175.177 536.848,312.259 545.212,384.586 553.576,466.637 561.939,470.018 570.303,330.274 578.667,394.309 587.03,357.451 595.394,625.775 603.758,610.386 612.121,544.352 620.485,635.566 628.849,606.851 637.212,813.728 645.576,486.02 653.94,562.305 662.303,795.06 670.667,638.607 679.031,806.411 687.394,785.037 695.758,710.088 704.122,914.22 712.485,846.301 720.849,834.26 729.213,913.713 737.576,955.054 745.94,782.386 754.304,881.22 762.667,935.906 771.031,982.202 779.395,934.282 787.758,1009.88 796.122,974.037 804.486,953.052 812.849,994.674 821.213,939.471 829.577,909.236 837.94,1045.93 846.304,1000.8 854.668,996.856 863.031,1015.48 871.395,1153.69 879.759,1067.95 888.122,929.392 896.486,1210.12 904.85,1126.06 913.213,1035.21 921.577,1168.8 929.941,1093.42 938.304,1129.07 946.668,1103.91 955.032,1149.87 963.395,1062.26 971.759,1116.13 980.123,1151.51 988.486,1136.23 996.85,1076.37 1005.21,1227.67 1013.58,1173.91 1021.94,1192.26 1030.3,1068.63 1038.67,1239.07 1047.03,1216.43 1055.4,1181.98 1063.76,1262.2 1072.12,1170.72 1080.49,1241 1088.85,1246.5 1097.21,1249.29 1105.58,1118.39 1113.94,1263.47 1122.3,1224.83 1130.67,1165.85 1139.03,1124.82 1147.4,1228.65 1155.76,1259.81 1164.12,1223.12 1172.49,1290.47 1180.85,1235.86 1189.21,1204.98 1197.58,1314.15 1205.94,1302.16 1214.31,1257.6 1222.67,1311.62 1231.03,1305.63 1239.4,1257.37 1247.76,1324.77 1256.12,1247.04 1264.49,1262.7 1272.85,1180.24 1281.21,1327.1 1289.58,1211.22 1297.94,1209.65 1306.31,1257.13 1314.67,1122.41 1323.03,1217.3 1331.4,1237.11 1339.76,1185.41 1348.12,1176.12 1356.49,1189.52 1364.85,1185.7 1373.21,1272.39 1381.58,1146.93 1389.94,1189.23 1398.31,1222.1 1406.67,1316.8 1415.03,1204.65 1423.4,1324.69 1431.76,1231.59 1440.12,1308.33 1448.49,1217.08 1456.85,1247.64 1465.22,1221.46 1473.58,1196.31 1481.94,1215.34 1490.31,1250.24 1498.67,1164.27 1507.03,1127.04 1515.4,1166.84 1523.76,1186.18 1532.12,1233.16 1540.49,1190.33 1548.85,1253.01 1557.22,1202.66 1565.58,1241.17 1573.94,1245.59 1582.31,1171.73 1590.67,1172.17 1599.03,1111.17 1607.4,1282.51 1615.76,1239.84 1624.12,1224.49 1632.49,1262.58 1640.85,1235.35 1649.22,1293.61 1657.58,1144.75 1665.94,1201.6 1674.31,1252.4 1682.67,1261.77 1691.03,1232.86 1699.4,1231.4 1707.76,1237.78 1716.13,1225.17 1724.49,1196.19 1732.85,1394.12 1741.22,1238.6 1749.58,1231.84 1757.94,1285.56 1766.31,1109.87 1774.67,1197.68 1783.03,1212.32 1791.4,1224.24 1799.76,1232.88 1808.13,1188.05 1816.49,1272.78 1824.85,1210.96 1833.22,1257.06 1841.58,1146.63 1849.94,1146.45 1858.31,1213.33 1866.67,1234.83 1875.03,1269.41 1883.4,1280.95 1891.76,1298.12 1900.13,1329.03 1908.49,1207.35 1916.85,1205.84 1925.22,1239.81 1933.58,1288.74 1941.94,1200.9 1950.31,1214.93 1958.67,1233.12 1967.04,1386.24 1975.4,1260.91 1983.76,1261.56 1992.13,1371.52 2000.49,1280.41 2008.85,1388.82 2017.22,1377.18 2025.58,1269.92 2033.94,1322.14 2042.31,1410.26 2050.67,1383.34 2059.04,1435.2 2067.4,1360.93 2075.76,1390.5 2084.13,1353.06 2092.49,1397.05 2100.85,1388.87 2109.22,1351.06 2117.58,1396.28 2125.94,1374.57 2134.31,1393.73 2142.67,1413.06 2151.04,1316.63 2159.4,1315.18 2167.76,1368.13 2176.13,1414.59 2184.49,1303.24 2192.85,1346.6 2201.22,1258.42 2209.58,1315.67 2217.95,1426.12 2226.31,1302.32 2234.67,1320.47 2243.04,1338.96 2251.4,1362.55 2259.76,1415.56 2268.13,1270.81 2276.49,1330.57 2284.85,1419.24 2293.22,1287.32 2301.58,1372.85 2309.95,1300.61 2318.31,1332.34 2326.67,1391.12 2335.04,1380.22 2343.4,1473.13 2351.76,1313.87 2360.13,1402.52 2368.49,1438.99 2376.85,1353.26 2385.22,1453.6 2393.58,1456.11 2401.95,1462 2410.31,1475.63 2418.67,1490.12 2427.04,1545.13 2435.4,1445.24 2443.76,1494.37 2452.13,1540.14 2460.49,1452.56 2468.86,1473.44 2477.22,1517.06 2485.58,1457.25 2493.95,1584.65 2502.31,1457.35 2510.67,1491.18 2519.04,1547.88 2527.4,1437.52 2535.76,1588.24 2544.13,1506.85 2552.49,1490.3 2560.86,1527.69 2569.22,1557.76 2577.58,1472.78 2585.95,1483.83 2594.31,1554.87 2602.67,1483.73 2611.04,1543.5 "/>
<polyline clip-path="url(#clip292)" style="stroke:#000080; stroke-linecap:round; stroke-linejoin:round; stroke-width:8; stroke-opacity:1; fill:none" points="511.757,310.796 520.121,377.465 528.485,438.244 536.848,481.995 545.212,534.618 553.576,566.294 561.939,613.276 570.303,656.265 578.667,692.974 587.03,730.095 595.394,757.241 603.758,792.978 612.121,826.333 620.485,851.619 628.849,885.666 637.212,903.04 645.576,929.259 653.94,950.999 662.303,976.333 670.667,998.561 679.031,1026.63 687.394,1036.26 695.758,1055.37 704.122,1074.17 712.485,1093.66 720.849,1112.58 729.213,1120.64 737.576,1134.84 745.94,1148.46 754.304,1163.84 762.667,1179.53 771.031,1191.24 779.395,1196.39 787.758,1211.09 796.122,1221.31 804.486,1223.3 812.849,1243.25 821.213,1255.56 829.577,1266.68 837.94,1266.72 846.304,1279.47 854.668,1283.01 863.031,1295.19 871.395,1297.28 879.759,1309.07 888.122,1307.27 896.486,1319.21 904.85,1322.08 913.213,1329.65 921.577,1344.72 929.941,1332.22 938.304,1339.7 946.668,1355.32 955.032,1348.28 963.395,1357.48 971.759,1360.69 980.123,1365.48 988.486,1362.5 996.85,1374.89 1005.21,1369.53 1013.58,1376.22 1021.94,1377.99 1030.3,1377.4 1038.67,1374.01 1047.03,1380.99 1055.4,1377.45 1063.76,1383.55 1072.12,1392.25 1080.49,1388.41 1088.85,1381.73 1097.21,1396 1105.58,1387.53 1113.94,1398.59 1122.3,1390.23 1130.67,1393.38 1139.03,1400.12 1147.4,1393.81 1155.76,1408.95 1164.12,1400.69 1172.49,1403.4 1180.85,1395.18 1189.21,1408.86 1197.58,1404.8 1205.94,1404.37 1214.31,1403.3 1222.67,1404.23 1231.03,1401.96 1239.4,1406.4 1247.76,1398.28 1256.12,1407.6 1264.49,1409.15 1272.85,1408.99 1281.21,1408.7 1289.58,1399.97 1297.94,1402.04 1306.31,1401.85 1314.67,1409.58 1323.03,1408.75 1331.4,1403.74 1339.76,1407.3 1348.12,1400.34 1356.49,1395.87 1364.85,1400.43 1373.21,1401.15 1381.58,1406.24 1389.94,1407.12 1398.31,1397.49 1406.67,1398.84 1415.03,1407.33 1423.4,1408.87 1431.76,1398.82 1440.12,1405.32 1448.49,1406.21 1456.85,1408.22 1465.22,1415.6 1473.58,1403.38 1481.94,1406.03 1490.31,1405.33 1498.67,1409.69 1507.03,1407.61 1515.4,1412.17 1523.76,1416.47 1532.12,1415.39 1540.49,1414.53 1548.85,1413.32 1557.22,1410.24 1565.58,1412.57 1573.94,1416.72 1582.31,1416.34 1590.67,1411.75 1599.03,1407.05 1607.4,1414.7 1615.76,1412.07 1624.12,1409.13 1632.49,1406.97 1640.85,1407.32 1649.22,1407.83 1657.58,1402.51 1665.94,1415.85 1674.31,1408.46 1682.67,1406.66 1691.03,1408.13 1699.4,1411.18 1707.76,1407.32 1716.13,1415.77 1724.49,1411.82 1732.85,1405.3 1741.22,1404.99 1749.58,1404.12 1757.94,1401.21 1766.31,1398.02 1774.67,1402.28 1783.03,1397.36 1791.4,1402.94 1799.76,1406.85 1808.13,1401.12 1816.49,1404.15 1824.85,1404.15 1833.22,1401.59 1841.58,1397.94 1849.94,1400.45 1858.31,1407.11 1866.67,1406.16 1875.03,1401.47 1883.4,1405.48 1891.76,1405.38 1900.13,1402.06 1908.49,1395.86 1916.85,1402.56 1925.22,1404.59 1933.58,1405.53 1941.94,1399.76 1950.31,1403.26 1958.67,1403.92 1967.04,1408.03 1975.4,1398.64 1983.76,1405.24 1992.13,1401.96 2000.49,1405.77 2008.85,1396.53 2017.22,1401.81 2025.58,1396.69 2033.94,1397.76 2042.31,1393.01 2050.67,1395.68 2059.04,1394.47 2067.4,1400.06 2075.76,1398.16 2084.13,1394.55 2092.49,1400.96 2100.85,1395.22 2109.22,1393.57 2117.58,1397.83 2125.94,1397.7 2134.31,1392.52 2142.67,1393.06 2151.04,1393.84 2159.4,1393.42 2167.76,1396.11 2176.13,1391.64 2184.49,1389.11 2192.85,1384.53 2201.22,1385.11 2209.58,1391.07 2217.95,1392.2 2226.31,1390.53 2234.67,1390.63 2243.04,1390.69 2251.4,1394.58 2259.76,1394.75 2268.13,1395.13 2276.49,1393.59 2284.85,1396.72 2293.22,1396.11 2301.58,1395.62 2309.95,1391.76 2318.31,1389.04 2326.67,1393.92 2335.04,1395.34 2343.4,1397.86 2351.76,1396.3 2360.13,1396.18 2368.49,1394.77 2376.85,1395.4 2385.22,1395.4 2393.58,1392.84 2401.95,1398.63 2410.31,1401.83 2418.67,1396.11 2427.04,1396.96 2435.4,1391.19 2443.76,1396.91 2452.13,1398.3 2460.49,1398.12 2468.86,1398.45 2477.22,1406.65 2485.58,1403.71 2493.95,1403.43 2502.31,1407.13 2510.67,1401.16 2519.04,1401.31 2527.4,1408.74 2535.76,1408.53 2544.13,1402.83 2552.49,1408.34 2560.86,1405.95 2569.22,1405.99 2577.58,1414.14 2585.95,1411.11 2594.31,1410.48 2602.67,1408.98 2611.04,1419.48 "/>
<path clip-path="url(#clip292)" d="M511.757 450.158 L520.121 502.443 L528.485 584.834 L536.848 619.447 L545.212 664.323 L553.576 693.697 L561.939 758.892 L570.303 779.191 L578.667 837.276 L587.03 870.475 L595.394 910.572 L603.758 956.273 L612.121 973.475 L620.485 1007.73 L628.849 1028.37 L637.212 1051.69 L645.576 1095.83 L653.94 1126.45 L662.303 1149.17 L670.667 1151.59 L679.031 1188.63 L687.394 1195.17 L695.758 1218.18 L704.122 1238.36 L712.485 1245.15 L720.849 1263.36 L729.213 1289.6 L737.576 1299.05 L745.94 1304.39 L754.304 1328.99 L762.667 1350.7 L771.031 1370.4 L779.395 1355.01 L787.758 1370.02 L796.122 1380.88 L804.486 1378.47 L812.849 1397.87 L821.213 1428.55 L829.577 1424.86 L837.94 1435.74 L846.304 1447.97 L854.668 1429.18 L863.031 1456.82 L871.395 1442.03 L879.759 1477.37 L888.122 1474.47 L896.486 1470.29 L904.85 1473.7 L913.213 1481.19 L921.577 1496.65 L929.941 1492.03 L938.304 1497.51 L946.668 1502.94 L955.032 1501.09 L963.395 1489.24 L971.759 1505.53 L980.123 1522.68 L988.486 1510.34 L996.85 1522.47 L1005.21 1525.39 L1013.58 1533.92 L1021.94 1535.85 L1030.3 1536.85 L1038.67 1539.31 L1047.03 1535.31 L1055.4 1534.11 L1063.76 1533.69 L1072.12 1550.82 L1080.49 1535.19 L1088.85 1525.92 L1097.21 1560.08 L1105.58 1547.01 L1113.94 1554.34 L1122.3 1554.13 L1130.67 1541.5 L1139.03 1537.31 L1147.4 1537.64 L1155.76 1547.32 L1164.12 1541.04 L1172.49 1538.01 L1180.85 1532.13 L1189.21 1548.22 L1197.58 1569.3 L1205.94 1560.7 L1214.31 1541.37 L1222.67 1565.75 L1231.03 1568.18 L1239.4 1555.3 L1247.76 1568.28 L1256.12 1559.02 L1264.49 1545.57 L1272.85 1559.56 L1281.21 1552.64 L1289.58 1539.1 L1297.94 1550.43 L1306.31 1543.41 L1314.67 1559.42 L1323.03 1575.26 L1331.4 1550.82 L1339.76 1555.16 L1348.12 1544.03 L1356.49 1535.02 L1364.85 1549.13 L1373.21 1545.27 L1381.58 1561.99 L1389.94 1543.27 L1398.31 1534.65 L1406.67 1545.63 L1415.03 1563.35 L1423.4 1568.03 L1431.76 1560.19 L1440.12 1555.96 L1448.49 1579.05 L1456.85 1563.47 L1465.22 1566.53 L1473.58 1550.07 L1481.94 1569.47 L1490.31 1543.45 L1498.67 1558.18 L1507.03 1565.53 L1515.4 1565.47 L1523.76 1564.63 L1532.12 1563.25 L1540.49 1568.54 L1548.85 1571.62 L1557.22 1558.66 L1565.58 1567.37 L1573.94 1561.22 L1582.31 1580.46 L1590.67 1554.07 L1599.03 1543.31 L1607.4 1558.39 L1615.76 1552.54 L1624.12 1559.28 L1632.49 1560 L1640.85 1546.23 L1649.22 1569.21 L1657.58 1550.54 L1665.94 1583.63 L1674.31 1555.16 L1682.67 1556.56 L1691.03 1553.37 L1699.4 1555.19 L1707.76 1556.28 L1716.13 1556.22 L1724.49 1568.24 L1732.85 1550.63 L1741.22 1548.31 L1749.58 1541.13 L1757.94 1533.37 L1766.31 1549.99 L1774.67 1550.85 L1783.03 1542.96 L1791.4 1555.66 L1799.76 1544.05 L1808.13 1554.51 L1816.49 1555.66 L1824.85 1545.85 L1833.22 1565.05 L1841.58 1561.41 L1849.94 1561.25 L1858.31 1588.07 L1866.67 1555.53 L1875.03 1559.64 L1883.4 1546.41 L1891.76 1566.71 L1900.13 1550.43 L1908.49 1553.69 L1916.85 1551.63 L1925.22 1542.39 L1933.58 1548.56 L1941.94 1532.07 L1950.31 1549.53 L1958.67 1549.63 L1967.04 1532.98 L1975.4 1544.22 L1983.76 1556.8 L1992.13 1543.7 L2000.49 1545.43 L2008.85 1535.33 L2017.22 1540.98 L2025.58 1532.34 L2033.94 1530.99 L2042.31 1525.42 L2050.67 1539.02 L2059.04 1539.93 L2067.4 1534.9 L2075.76 1542.68 L2084.13 1529.67 L2092.49 1545.21 L2100.85 1528.61 L2109.22 1530.83 L2117.58 1544.31 L2125.94 1530.35 L2134.31 1532.02 L2142.67 1525.97 L2151.04 1534.04 L2159.4 1526.78 L2167.76 1530.66 L2176.13 1553.47 L2184.49 1541.59 L2192.85 1524.27 L2201.22 1528.01 L2209.58 1530.01 L2217.95 1535.06 L2226.31 1519.56 L2234.67 1530.22 L2243.04 1540.51 L2251.4 1542.17 L2259.76 1535.71 L2268.13 1539.76 L2276.49 1524.6 L2284.85 1526.25 L2293.22 1526.11 L2301.58 1532.73 L2309.95 1538.4 L2318.31 1512.21 L2326.67 1534.42 L2335.04 1518.31 L2343.4 1546.56 L2351.76 1543.05 L2360.13 1540.84 L2368.49 1514.71 L2376.85 1530.43 L2385.22 1525.79 L2393.58 1533.78 L2401.95 1539.63 L2410.31 1525.51 L2418.67 1521.08 L2427.04 1524.72 L2435.4 1534.39 L2443.76 1538.66 L2452.13 1531.57 L2460.49 1542.07 L2468.86 1526.79 L2477.22 1555.6 L2485.58 1543.1 L2493.95 1544.13 L2502.31 1553.53 L2510.67 1552.08 L2519.04 1528.79 L2527.4 1549.35 L2535.76 1533.43 L2544.13 1536.64 L2552.49 1533.36 L2560.86 1549.75 L2569.22 1546.27 L2577.58 1552.38 L2585.95 1565.49 L2594.31 1535.86 L2602.67 1547.62 L2611.04 1568.61 L2611.04 1293.79 L2602.67 1289.26 L2594.31 1266.43 L2585.95 1276.18 L2577.58 1280.17 L2569.22 1271.72 L2560.86 1275.97 L2552.49 1280.26 L2544.13 1273.24 L2535.76 1265.75 L2527.4 1273.5 L2519.04 1280.21 L2510.67 1258.12 L2502.31 1279.7 L2493.95 1260.77 L2485.58 1239.61 L2477.22 1263.3 L2468.86 1260.44 L2460.49 1261.17 L2452.13 1227.86 L2443.76 1248.51 L2435.4 1239.47 L2427.04 1263.59 L2418.67 1241.12 L2410.31 1254.05 L2401.95 1240.72 L2393.58 1247.06 L2385.22 1250.93 L2376.85 1268.59 L2368.49 1255.56 L2360.13 1228.8 L2351.76 1256.7 L2343.4 1236.43 L2335.04 1232.51 L2326.67 1226.35 L2318.31 1232.19 L2309.95 1248.22 L2301.58 1253.84 L2293.22 1240.58 L2284.85 1240.27 L2276.49 1257.09 L2268.13 1268.33 L2259.76 1252.8 L2251.4 1259.58 L2243.04 1249.5 L2234.67 1248.64 L2226.31 1264.44 L2217.95 1238.62 L2209.58 1253.99 L2201.22 1257.85 L2192.85 1246.33 L2184.49 1257.57 L2176.13 1246.12 L2167.76 1252.07 L2159.4 1245.44 L2151.04 1229.12 L2142.67 1262.18 L2134.31 1237.9 L2125.94 1247.96 L2117.58 1252.6 L2109.22 1243.32 L2100.85 1256.77 L2092.49 1253.43 L2084.13 1252.23 L2075.76 1249.14 L2067.4 1247.03 L2059.04 1264.3 L2050.67 1260.37 L2042.31 1251.8 L2033.94 1258.42 L2025.58 1245.86 L2017.22 1251.83 L2008.85 1260.44 L2000.49 1253.32 L1992.13 1273.94 L1983.76 1258.09 L1975.4 1250.94 L1967.04 1253.12 L1958.67 1270.33 L1950.31 1262.84 L1941.94 1249.98 L1933.58 1250.11 L1925.22 1254.8 L1916.85 1274.49 L1908.49 1234.46 L1900.13 1249.33 L1891.76 1242.4 L1883.4 1249.39 L1875.03 1262.88 L1866.67 1273.18 L1858.31 1245.3 L1849.94 1244.16 L1841.58 1244.94 L1833.22 1265.59 L1824.85 1260.19 L1816.49 1253.23 L1808.13 1257.52 L1799.76 1259.71 L1791.4 1253.15 L1783.03 1240.26 L1774.67 1252.33 L1766.31 1244.85 L1757.94 1253.82 L1749.58 1251.53 L1741.22 1242.45 L1732.85 1270.56 L1724.49 1247.33 L1716.13 1274.73 L1707.76 1263.08 L1699.4 1260 L1691.03 1263.42 L1682.67 1227.78 L1674.31 1239.65 L1665.94 1249.14 L1657.58 1224.92 L1649.22 1242.75 L1640.85 1245.69 L1632.49 1247.7 L1624.12 1239.32 L1615.76 1250.19 L1607.4 1248.72 L1599.03 1239.59 L1590.67 1237.78 L1582.31 1263.01 L1573.94 1248.1 L1565.58 1265.87 L1557.22 1250.37 L1548.85 1240.41 L1540.49 1265.46 L1532.12 1256.36 L1523.76 1255.34 L1515.4 1233.45 L1507.03 1235.08 L1498.67 1242.44 L1490.31 1243.35 L1481.94 1267.64 L1473.58 1244.27 L1465.22 1265.87 L1456.85 1246.9 L1448.49 1253.98 L1440.12 1245.17 L1431.76 1242.85 L1423.4 1250.03 L1415.03 1244.56 L1406.67 1239.89 L1398.31 1241.54 L1389.94 1240.43 L1381.58 1249.37 L1373.21 1235.46 L1364.85 1251.28 L1356.49 1240.9 L1348.12 1244.4 L1339.76 1239.89 L1331.4 1250.68 L1323.03 1238.28 L1314.67 1260.95 L1306.31 1233.41 L1297.94 1247.45 L1289.58 1244.44 L1281.21 1253.31 L1272.85 1259.99 L1264.49 1262.33 L1256.12 1263.33 L1247.76 1241.99 L1239.4 1247.38 L1231.03 1255.37 L1222.67 1264.25 L1214.31 1266.11 L1205.94 1263.39 L1197.58 1262.81 L1189.21 1260.71 L1180.85 1263.09 L1172.49 1262.64 L1164.12 1256.94 L1155.76 1267.17 L1147.4 1237.79 L1139.03 1253.97 L1130.67 1235.92 L1122.3 1230.99 L1113.94 1238.02 L1105.58 1240.53 L1097.21 1246.65 L1088.85 1236.66 L1080.49 1224.11 L1072.12 1222.48 L1063.76 1225.01 L1055.4 1220.88 L1047.03 1224.6 L1038.67 1212.95 L1030.3 1222.35 L1021.94 1226.34 L1013.58 1210.03 L1005.21 1211.16 L996.85 1230.27 L988.486 1197.64 L980.123 1193.59 L971.759 1214.3 L963.395 1199.26 L955.032 1194.97 L946.668 1200.3 L938.304 1173.57 L929.941 1175.01 L921.577 1195.67 L913.213 1178.38 L904.85 1162.31 L896.486 1170.3 L888.122 1138.08 L879.759 1125.8 L871.395 1133.89 L863.031 1129.03 L854.668 1129.6 L846.304 1119.63 L837.94 1113.49 L829.577 1118 L821.213 1081.57 L812.849 1059.98 L804.486 1056.9 L796.122 1061.58 L787.758 1042.34 L779.395 1010.55 L771.031 1028.15 L762.667 1021.51 L754.304 1009.87 L745.94 995.326 L737.576 960.895 L729.213 958.758 L720.849 947.677 L712.485 946.108 L704.122 910.874 L695.758 891.065 L687.394 856.024 L679.031 849.49 L670.667 838.527 L662.303 813.266 L653.94 781.243 L645.576 780.98 L637.212 747.935 L628.849 731.152 L620.485 714.082 L612.121 678.54 L603.758 632.756 L595.394 588.796 L587.03 582.393 L578.667 544.528 L570.303 510.81 L561.939 469.204 L553.576 432.216 L545.212 399.152 L536.848 334.876 L528.485 303.97 L520.121 250.586 L511.757 168.574  Z" fill="#000080" fill-rule="evenodd" fill-opacity="0.15"/>
<polyline clip-path="url(#clip292)" style="stroke:#000080; stroke-linecap:round; stroke-linejoin:round; stroke-width:4; stroke-opacity:0.15; fill:none" points="511.757,450.158 520.121,502.443 528.485,584.834 536.848,619.447 545.212,664.323 553.576,693.697 561.939,758.892 570.303,779.191 578.667,837.276 587.03,870.475 595.394,910.572 603.758,956.273 612.121,973.475 620.485,1007.73 628.849,1028.37 637.212,1051.69 645.576,1095.83 653.94,1126.45 662.303,1149.17 670.667,1151.59 679.031,1188.63 687.394,1195.17 695.758,1218.18 704.122,1238.36 712.485,1245.15 720.849,1263.36 729.213,1289.6 737.576,1299.05 745.94,1304.39 754.304,1328.99 762.667,1350.7 771.031,1370.4 779.395,1355.01 787.758,1370.02 796.122,1380.88 804.486,1378.47 812.849,1397.87 821.213,1428.55 829.577,1424.86 837.94,1435.74 846.304,1447.97 854.668,1429.18 863.031,1456.82 871.395,1442.03 879.759,1477.37 888.122,1474.47 896.486,1470.29 904.85,1473.7 913.213,1481.19 921.577,1496.65 929.941,1492.03 938.304,1497.51 946.668,1502.94 955.032,1501.09 963.395,1489.24 971.759,1505.53 980.123,1522.68 988.486,1510.34 996.85,1522.47 1005.21,1525.39 1013.58,1533.92 1021.94,1535.85 1030.3,1536.85 1038.67,1539.31 1047.03,1535.31 1055.4,1534.11 1063.76,1533.69 1072.12,1550.82 1080.49,1535.19 1088.85,1525.92 1097.21,1560.08 1105.58,1547.01 1113.94,1554.34 1122.3,1554.13 1130.67,1541.5 1139.03,1537.31 1147.4,1537.64 1155.76,1547.32 1164.12,1541.04 1172.49,1538.01 1180.85,1532.13 1189.21,1548.22 1197.58,1569.3 1205.94,1560.7 1214.31,1541.37 1222.67,1565.75 1231.03,1568.18 1239.4,1555.3 1247.76,1568.28 1256.12,1559.02 1264.49,1545.57 1272.85,1559.56 1281.21,1552.64 1289.58,1539.1 1297.94,1550.43 1306.31,1543.41 1314.67,1559.42 1323.03,1575.26 1331.4,1550.82 1339.76,1555.16 1348.12,1544.03 1356.49,1535.02 1364.85,1549.13 1373.21,1545.27 1381.58,1561.99 1389.94,1543.27 1398.31,1534.65 1406.67,1545.63 1415.03,1563.35 1423.4,1568.03 1431.76,1560.19 1440.12,1555.96 1448.49,1579.05 1456.85,1563.47 1465.22,1566.53 1473.58,1550.07 1481.94,1569.47 1490.31,1543.45 1498.67,1558.18 1507.03,1565.53 1515.4,1565.47 1523.76,1564.63 1532.12,1563.25 1540.49,1568.54 1548.85,1571.62 1557.22,1558.66 1565.58,1567.37 1573.94,1561.22 1582.31,1580.46 1590.67,1554.07 1599.03,1543.31 1607.4,1558.39 1615.76,1552.54 1624.12,1559.28 1632.49,1560 1640.85,1546.23 1649.22,1569.21 1657.58,1550.54 1665.94,1583.63 1674.31,1555.16 1682.67,1556.56 1691.03,1553.37 1699.4,1555.19 1707.76,1556.28 1716.13,1556.22 1724.49,1568.24 1732.85,1550.63 1741.22,1548.31 1749.58,1541.13 1757.94,1533.37 1766.31,1549.99 1774.67,1550.85 1783.03,1542.96 1791.4,1555.66 1799.76,1544.05 1808.13,1554.51 1816.49,1555.66 1824.85,1545.85 1833.22,1565.05 1841.58,1561.41 1849.94,1561.25 1858.31,1588.07 1866.67,1555.53 1875.03,1559.64 1883.4,1546.41 1891.76,1566.71 1900.13,1550.43 1908.49,1553.69 1916.85,1551.63 1925.22,1542.39 1933.58,1548.56 1941.94,1532.07 1950.31,1549.53 1958.67,1549.63 1967.04,1532.98 1975.4,1544.22 1983.76,1556.8 1992.13,1543.7 2000.49,1545.43 2008.85,1535.33 2017.22,1540.98 2025.58,1532.34 2033.94,1530.99 2042.31,1525.42 2050.67,1539.02 2059.04,1539.93 2067.4,1534.9 2075.76,1542.68 2084.13,1529.67 2092.49,1545.21 2100.85,1528.61 2109.22,1530.83 2117.58,1544.31 2125.94,1530.35 2134.31,1532.02 2142.67,1525.97 2151.04,1534.04 2159.4,1526.78 2167.76,1530.66 2176.13,1553.47 2184.49,1541.59 2192.85,1524.27 2201.22,1528.01 2209.58,1530.01 2217.95,1535.06 2226.31,1519.56 2234.67,1530.22 2243.04,1540.51 2251.4,1542.17 2259.76,1535.71 2268.13,1539.76 2276.49,1524.6 2284.85,1526.25 2293.22,1526.11 2301.58,1532.73 2309.95,1538.4 2318.31,1512.21 2326.67,1534.42 2335.04,1518.31 2343.4,1546.56 2351.76,1543.05 2360.13,1540.84 2368.49,1514.71 2376.85,1530.43 2385.22,1525.79 2393.58,1533.78 2401.95,1539.63 2410.31,1525.51 2418.67,1521.08 2427.04,1524.72 2435.4,1534.39 2443.76,1538.66 2452.13,1531.57 2460.49,1542.07 2468.86,1526.79 2477.22,1555.6 2485.58,1543.1 2493.95,1544.13 2502.31,1553.53 2510.67,1552.08 2519.04,1528.79 2527.4,1549.35 2535.76,1533.43 2544.13,1536.64 2552.49,1533.36 2560.86,1549.75 2569.22,1546.27 2577.58,1552.38 2585.95,1565.49 2594.31,1535.86 2602.67,1547.62 2611.04,1568.61 "/>
<path clip-path="url(#clip290)" d="M2005.7 409.426 L2599.84 409.426 L2599.84 176.146 L2005.7 176.146  Z" fill="#ffffff" fill-rule="evenodd" fill-opacity="1"/>
<polyline clip-path="url(#clip290)" style="stroke:#000000; stroke-linecap:round; stroke-linejoin:round; stroke-width:4; stroke-opacity:1; fill:none" points="2005.7,409.426 2599.84,409.426 2599.84,176.146 2005.7,176.146 2005.7,409.426 "/>
<polyline clip-path="url(#clip290)" style="stroke:#ff0000; stroke-linecap:round; stroke-linejoin:round; stroke-width:9; stroke-opacity:1; fill:none" stroke-dasharray="36, 23" points="2030.43,234.466 2178.78,234.466 "/>
<path clip-path="url(#clip290)" d="M2221.52 218.594 Q2215.8 218.594 2212.41 222.864 Q2209.05 227.135 2209.05 234.505 Q2209.05 241.849 2212.41 246.119 Q2215.8 250.39 2221.52 250.39 Q2227.25 250.39 2230.59 246.119 Q2233.95 241.849 2233.95 234.505 Q2233.95 227.135 2230.59 222.864 Q2227.25 218.594 2221.52 218.594 M2221.52 214.323 Q2229.7 214.323 2234.6 219.817 Q2239.49 225.286 2239.49 234.505 Q2239.49 243.698 2234.6 249.192 Q2229.7 254.661 2221.52 254.661 Q2213.32 254.661 2208.4 249.192 Q2203.5 243.724 2203.5 234.505 Q2203.5 225.286 2208.4 219.817 Q2213.32 214.323 2221.52 214.323 Z" fill="#000000" fill-rule="nonzero" fill-opacity="1" /><path clip-path="url(#clip290)" d="M2268.45 239.349 Q2268.45 234.062 2266.26 231.067 Q2264.1 228.047 2260.3 228.047 Q2256.5 228.047 2254.31 231.067 Q2252.15 234.062 2252.15 239.349 Q2252.15 244.635 2254.31 247.656 Q2256.5 250.651 2260.3 250.651 Q2264.1 250.651 2266.26 247.656 Q2268.45 244.635 2268.45 239.349 M2252.15 229.166 Q2253.66 226.562 2255.95 225.312 Q2258.27 224.036 2261.47 224.036 Q2266.78 224.036 2270.09 228.255 Q2273.43 232.474 2273.43 239.349 Q2273.43 246.224 2270.09 250.442 Q2266.78 254.661 2261.47 254.661 Q2258.27 254.661 2255.95 253.411 Q2253.66 252.135 2252.15 249.531 L2252.15 253.906 L2247.33 253.906 L2247.33 213.385 L2252.15 213.385 L2252.15 229.166 Z" fill="#000000" fill-rule="nonzero" fill-opacity="1" /><path clip-path="url(#clip290)" d="M2299.96 225.599 L2299.96 230.13 Q2297.93 229.088 2295.74 228.567 Q2293.56 228.047 2291.21 228.047 Q2287.64 228.047 2285.85 229.14 Q2284.08 230.234 2284.08 232.422 Q2284.08 234.088 2285.35 235.052 Q2286.63 235.989 2290.48 236.849 L2292.12 237.213 Q2297.23 238.307 2299.36 240.312 Q2301.52 242.291 2301.52 245.859 Q2301.52 249.921 2298.29 252.291 Q2295.09 254.661 2289.47 254.661 Q2287.12 254.661 2284.57 254.192 Q2282.04 253.75 2279.23 252.838 L2279.23 247.89 Q2281.89 249.27 2284.47 249.974 Q2287.04 250.651 2289.57 250.651 Q2292.96 250.651 2294.78 249.505 Q2296.6 248.333 2296.6 246.224 Q2296.6 244.27 2295.27 243.229 Q2293.97 242.187 2289.52 241.224 L2287.85 240.833 Q2283.4 239.895 2281.42 237.968 Q2279.44 236.015 2279.44 232.63 Q2279.44 228.515 2282.36 226.276 Q2285.27 224.036 2290.64 224.036 Q2293.29 224.036 2295.64 224.427 Q2297.98 224.817 2299.96 225.599 Z" fill="#000000" fill-rule="nonzero" fill-opacity="1" /><path clip-path="url(#clip290)" d="M2334.1 238.125 L2334.1 240.468 L2312.07 240.468 Q2312.38 245.416 2315.04 248.02 Q2317.72 250.599 2322.49 250.599 Q2325.25 250.599 2327.83 249.921 Q2330.43 249.244 2332.98 247.89 L2332.98 252.421 Q2330.4 253.515 2327.7 254.088 Q2324.99 254.661 2322.2 254.661 Q2315.22 254.661 2311.13 250.599 Q2307.07 246.536 2307.07 239.609 Q2307.07 232.448 2310.93 228.255 Q2314.81 224.036 2321.37 224.036 Q2327.25 224.036 2330.66 227.838 Q2334.1 231.614 2334.1 238.125 M2329.31 236.718 Q2329.26 232.786 2327.1 230.442 Q2324.96 228.099 2321.42 228.099 Q2317.41 228.099 2314.99 230.364 Q2312.59 232.63 2312.23 236.744 L2329.31 236.718 Z" fill="#000000" fill-rule="nonzero" fill-opacity="1" /><path clip-path="url(#clip290)" d="M2358.87 229.218 Q2358.06 228.75 2357.1 228.541 Q2356.16 228.307 2355.01 228.307 Q2350.95 228.307 2348.76 230.963 Q2346.6 233.593 2346.6 238.541 L2346.6 253.906 L2341.78 253.906 L2341.78 224.739 L2346.6 224.739 L2346.6 229.271 Q2348.11 226.614 2350.53 225.338 Q2352.96 224.036 2356.42 224.036 Q2356.91 224.036 2357.51 224.114 Q2358.11 224.166 2358.84 224.297 L2358.87 229.218 Z" fill="#000000" fill-rule="nonzero" fill-opacity="1" /><path clip-path="url(#clip290)" d="M2360.46 224.739 L2365.53 224.739 L2374.65 249.218 L2383.76 224.739 L2388.84 224.739 L2377.9 253.906 L2371.39 253.906 L2360.46 224.739 Z" fill="#000000" fill-rule="nonzero" fill-opacity="1" /><path clip-path="url(#clip290)" d="M2420.4 238.125 L2420.4 240.468 L2398.37 240.468 Q2398.68 245.416 2401.34 248.02 Q2404.02 250.599 2408.79 250.599 Q2411.55 250.599 2414.13 249.921 Q2416.73 249.244 2419.28 247.89 L2419.28 252.421 Q2416.71 253.515 2414 254.088 Q2411.29 254.661 2408.5 254.661 Q2401.52 254.661 2397.43 250.599 Q2393.37 246.536 2393.37 239.609 Q2393.37 232.448 2397.23 228.255 Q2401.11 224.036 2407.67 224.036 Q2413.55 224.036 2416.97 227.838 Q2420.4 231.614 2420.4 238.125 M2415.61 236.718 Q2415.56 232.786 2413.4 230.442 Q2411.26 228.099 2407.72 228.099 Q2403.71 228.099 2401.29 230.364 Q2398.89 232.63 2398.53 236.744 L2415.61 236.718 Z" fill="#000000" fill-rule="nonzero" fill-opacity="1" /><path clip-path="url(#clip290)" d="M2447.46 229.166 L2447.46 213.385 L2452.25 213.385 L2452.25 253.906 L2447.46 253.906 L2447.46 249.531 Q2445.95 252.135 2443.63 253.411 Q2441.34 254.661 2438.11 254.661 Q2432.83 254.661 2429.49 250.442 Q2426.18 246.224 2426.18 239.349 Q2426.18 232.474 2429.49 228.255 Q2432.83 224.036 2438.11 224.036 Q2441.34 224.036 2443.63 225.312 Q2445.95 226.562 2447.46 229.166 M2431.13 239.349 Q2431.13 244.635 2433.29 247.656 Q2435.48 250.651 2439.28 250.651 Q2443.09 250.651 2445.27 247.656 Q2447.46 244.635 2447.46 239.349 Q2447.46 234.062 2445.27 231.067 Q2443.09 228.047 2439.28 228.047 Q2435.48 228.047 2433.29 231.067 Q2431.13 234.062 2431.13 239.349 Z" fill="#000000" fill-rule="nonzero" fill-opacity="1" /><polyline clip-path="url(#clip290)" style="stroke:#000080; stroke-linecap:round; stroke-linejoin:round; stroke-width:9; stroke-opacity:1; fill:none" points="2030.43,292.786 2178.78,292.786 "/>
<path clip-path="url(#clip290)" d="M2234.86 276.341 L2234.86 281.887 Q2232.2 279.414 2229.18 278.19 Q2226.19 276.966 2222.8 276.966 Q2216.13 276.966 2212.59 281.054 Q2209.05 285.117 2209.05 292.825 Q2209.05 300.507 2212.59 304.596 Q2216.13 308.658 2222.8 308.658 Q2226.19 308.658 2229.18 307.434 Q2232.2 306.21 2234.86 303.736 L2234.86 309.231 Q2232.1 311.106 2229 312.044 Q2225.93 312.981 2222.49 312.981 Q2213.66 312.981 2208.58 307.59 Q2203.5 302.174 2203.5 292.825 Q2203.5 283.45 2208.58 278.059 Q2213.66 272.643 2222.49 272.643 Q2225.98 272.643 2229.05 273.58 Q2232.15 274.492 2234.86 276.341 Z" fill="#000000" fill-rule="nonzero" fill-opacity="1" /><path clip-path="url(#clip290)" d="M2242.98 273.346 L2248.24 273.346 L2248.24 289.283 L2267.36 289.283 L2267.36 273.346 L2272.62 273.346 L2272.62 312.226 L2267.36 312.226 L2267.36 293.71 L2248.24 293.71 L2248.24 312.226 L2242.98 312.226 L2242.98 273.346 Z" fill="#000000" fill-rule="nonzero" fill-opacity="1" /><path clip-path="url(#clip290)" d="M2283.09 273.346 L2290.93 273.346 L2300.85 299.804 L2310.82 273.346 L2318.66 273.346 L2318.66 312.226 L2313.53 312.226 L2313.53 278.085 L2303.5 304.752 L2298.22 304.752 L2288.19 278.085 L2288.19 312.226 L2283.09 312.226 L2283.09 273.346 Z" fill="#000000" fill-rule="nonzero" fill-opacity="1" /><path clip-path="url(#clip290)" d="M2329.1 273.346 L2336.94 273.346 L2346.86 299.804 L2356.84 273.346 L2364.67 273.346 L2364.67 312.226 L2359.54 312.226 L2359.54 278.085 L2349.52 304.752 L2344.23 304.752 L2334.21 278.085 L2334.21 312.226 L2329.1 312.226 L2329.1 273.346 Z" fill="#000000" fill-rule="nonzero" fill-opacity="1" /><path clip-path="url(#clip290)" d="M2403.37 271.757 Q2399.88 277.747 2398.19 283.606 Q2396.5 289.466 2396.5 295.481 Q2396.5 301.497 2398.19 307.408 Q2399.91 313.294 2403.37 319.257 L2399.21 319.257 Q2395.3 313.137 2393.35 307.226 Q2391.42 301.314 2391.42 295.481 Q2391.42 289.674 2393.35 283.788 Q2395.27 277.903 2399.21 271.757 L2403.37 271.757 Z" fill="#000000" fill-rule="nonzero" fill-opacity="1" /><path clip-path="url(#clip290)" d="M2435.38 288.658 Q2437.17 285.429 2439.67 283.893 Q2442.17 282.356 2445.56 282.356 Q2450.12 282.356 2452.59 285.559 Q2455.06 288.736 2455.06 294.622 L2455.06 312.226 L2450.25 312.226 L2450.25 294.778 Q2450.25 290.585 2448.76 288.554 Q2447.28 286.523 2444.23 286.523 Q2440.51 286.523 2438.35 288.997 Q2436.18 291.471 2436.18 295.742 L2436.18 312.226 L2431.37 312.226 L2431.37 294.778 Q2431.37 290.559 2429.88 288.554 Q2428.4 286.523 2425.3 286.523 Q2421.63 286.523 2419.47 289.023 Q2417.3 291.497 2417.3 295.742 L2417.3 312.226 L2412.49 312.226 L2412.49 283.059 L2417.3 283.059 L2417.3 287.591 Q2418.95 284.908 2421.24 283.632 Q2423.53 282.356 2426.68 282.356 Q2429.86 282.356 2432.07 283.971 Q2434.31 285.585 2435.38 288.658 Z" fill="#000000" fill-rule="nonzero" fill-opacity="1" /><path clip-path="url(#clip290)" d="M2489.57 296.445 L2489.57 298.788 L2467.54 298.788 Q2467.85 303.736 2470.51 306.34 Q2473.19 308.919 2477.96 308.919 Q2480.72 308.919 2483.29 308.241 Q2485.9 307.564 2488.45 306.21 L2488.45 310.741 Q2485.87 311.835 2483.16 312.408 Q2480.46 312.981 2477.67 312.981 Q2470.69 312.981 2466.6 308.919 Q2462.54 304.856 2462.54 297.929 Q2462.54 290.768 2466.39 286.575 Q2470.27 282.356 2476.84 282.356 Q2482.72 282.356 2486.13 286.158 Q2489.57 289.934 2489.57 296.445 M2484.78 295.038 Q2484.73 291.106 2482.56 288.762 Q2480.43 286.419 2476.89 286.419 Q2472.88 286.419 2470.46 288.684 Q2468.06 290.95 2467.7 295.064 L2484.78 295.038 Z" fill="#000000" fill-rule="nonzero" fill-opacity="1" /><path clip-path="url(#clip290)" d="M2510.69 297.564 Q2504.88 297.564 2502.64 298.893 Q2500.4 300.221 2500.4 303.424 Q2500.4 305.976 2502.07 307.486 Q2503.76 308.971 2506.65 308.971 Q2510.64 308.971 2513.03 306.158 Q2515.46 303.32 2515.46 298.632 L2515.46 297.564 L2510.69 297.564 M2520.25 295.585 L2520.25 312.226 L2515.46 312.226 L2515.46 307.799 Q2513.81 310.455 2511.37 311.731 Q2508.92 312.981 2505.38 312.981 Q2500.9 312.981 2498.24 310.481 Q2495.61 307.955 2495.61 303.736 Q2495.61 298.814 2498.89 296.314 Q2502.2 293.814 2508.74 293.814 L2515.46 293.814 L2515.46 293.346 Q2515.46 290.038 2513.27 288.242 Q2511.11 286.419 2507.17 286.419 Q2504.67 286.419 2502.3 287.018 Q2499.93 287.617 2497.75 288.814 L2497.75 284.387 Q2500.38 283.372 2502.85 282.877 Q2505.33 282.356 2507.67 282.356 Q2514 282.356 2517.12 285.637 Q2520.25 288.919 2520.25 295.585 Z" fill="#000000" fill-rule="nonzero" fill-opacity="1" /><path clip-path="url(#clip290)" d="M2554.36 294.622 L2554.36 312.226 L2549.57 312.226 L2549.57 294.778 Q2549.57 290.637 2547.96 288.58 Q2546.34 286.523 2543.11 286.523 Q2539.23 286.523 2536.99 288.997 Q2534.75 291.471 2534.75 295.742 L2534.75 312.226 L2529.93 312.226 L2529.93 283.059 L2534.75 283.059 L2534.75 287.591 Q2536.47 284.96 2538.79 283.658 Q2541.13 282.356 2544.18 282.356 Q2549.21 282.356 2551.78 285.481 Q2554.36 288.58 2554.36 294.622 Z" fill="#000000" fill-rule="nonzero" fill-opacity="1" /><path clip-path="url(#clip290)" d="M2563.16 271.757 L2567.33 271.757 Q2571.24 277.903 2573.16 283.788 Q2575.12 289.674 2575.12 295.481 Q2575.12 301.314 2573.16 307.226 Q2571.24 313.137 2567.33 319.257 L2563.16 319.257 Q2566.63 313.294 2568.32 307.408 Q2570.04 301.497 2570.04 295.481 Q2570.04 289.466 2568.32 283.606 Q2566.63 277.747 2563.16 271.757 Z" fill="#000000" fill-rule="nonzero" fill-opacity="1" /><path clip-path="url(#clip290)" d="M2030.43 374.434 L2178.78 374.434 L2178.78 327.778 L2030.43 327.778 L2030.43 374.434  Z" fill="#000080" fill-rule="evenodd" fill-opacity="0.15"/>
<polyline clip-path="url(#clip290)" style="stroke:#000080; stroke-linecap:round; stroke-linejoin:round; stroke-width:4.5; stroke-opacity:0.15; fill:none" points="2030.43,327.778 2178.78,327.778 "/>
<path clip-path="url(#clip290)" d="M2204.26 366.119 L2212.85 366.119 L2212.85 336.457 L2203.5 338.332 L2203.5 333.541 L2212.8 331.666 L2218.06 331.666 L2218.06 366.119 L2226.65 366.119 L2226.65 370.546 L2204.26 370.546 L2204.26 366.119 Z" fill="#000000" fill-rule="nonzero" fill-opacity="1" /><path clip-path="url(#clip290)" d="M2248.53 335.129 Q2244.47 335.129 2242.41 339.14 Q2240.38 343.124 2240.38 351.145 Q2240.38 359.14 2242.41 363.15 Q2244.47 367.134 2248.53 367.134 Q2252.62 367.134 2254.65 363.15 Q2256.71 359.14 2256.71 351.145 Q2256.71 343.124 2254.65 339.14 Q2252.62 335.129 2248.53 335.129 M2248.53 330.963 Q2255.07 330.963 2258.5 336.145 Q2261.97 341.301 2261.97 351.145 Q2261.97 360.963 2258.5 366.145 Q2255.07 371.301 2248.53 371.301 Q2241.99 371.301 2238.53 366.145 Q2235.09 360.963 2235.09 351.145 Q2235.09 341.301 2238.53 336.145 Q2241.99 330.963 2248.53 330.963 Z" fill="#000000" fill-rule="nonzero" fill-opacity="1" /><path clip-path="url(#clip290)" d="M2268.11 353.801 L2282.15 353.801 L2282.15 358.072 L2268.11 358.072 L2268.11 353.801 Z" fill="#000000" fill-rule="nonzero" fill-opacity="1" /><path clip-path="url(#clip290)" d="M2290.61 369.739 L2290.61 364.947 Q2292.59 365.884 2294.62 366.379 Q2296.65 366.874 2298.61 366.874 Q2303.82 366.874 2306.55 363.384 Q2309.31 359.869 2309.7 352.733 Q2308.19 354.973 2305.87 356.171 Q2303.56 357.369 2300.74 357.369 Q2294.91 357.369 2291.5 353.853 Q2288.11 350.312 2288.11 344.192 Q2288.11 338.202 2291.65 334.582 Q2295.2 330.963 2301.08 330.963 Q2307.83 330.963 2311.37 336.145 Q2314.94 341.301 2314.94 351.145 Q2314.94 360.338 2310.56 365.832 Q2306.21 371.301 2298.84 371.301 Q2296.86 371.301 2294.83 370.91 Q2292.8 370.52 2290.61 369.739 M2301.08 353.254 Q2304.62 353.254 2306.68 350.832 Q2308.76 348.411 2308.76 344.192 Q2308.76 339.999 2306.68 337.577 Q2304.62 335.129 2301.08 335.129 Q2297.54 335.129 2295.46 337.577 Q2293.4 339.999 2293.4 344.192 Q2293.4 348.411 2295.46 350.832 Q2297.54 353.254 2301.08 353.254 Z" fill="#000000" fill-rule="nonzero" fill-opacity="1" /><path clip-path="url(#clip290)" d="M2335.64 335.129 Q2331.58 335.129 2329.52 339.14 Q2327.49 343.124 2327.49 351.145 Q2327.49 359.14 2329.52 363.15 Q2331.58 367.134 2335.64 367.134 Q2339.73 367.134 2341.76 363.15 Q2343.82 359.14 2343.82 351.145 Q2343.82 343.124 2341.76 339.14 Q2339.73 335.129 2335.64 335.129 M2335.64 330.963 Q2342.17 330.963 2345.61 336.145 Q2349.08 341.301 2349.08 351.145 Q2349.08 360.963 2345.61 366.145 Q2342.17 371.301 2335.64 371.301 Q2329.1 371.301 2325.64 366.145 Q2322.2 360.963 2322.2 351.145 Q2322.2 341.301 2325.64 336.145 Q2329.1 330.963 2335.64 330.963 Z" fill="#000000" fill-rule="nonzero" fill-opacity="1" /><path clip-path="url(#clip290)" d="M2362.38 333.098 L2362.38 341.379 L2372.25 341.379 L2372.25 345.103 L2362.38 345.103 L2362.38 360.937 Q2362.38 364.504 2363.35 365.52 Q2364.34 366.535 2367.33 366.535 L2372.25 366.535 L2372.25 370.546 L2367.33 370.546 Q2361.78 370.546 2359.67 368.489 Q2357.57 366.405 2357.57 360.937 L2357.57 345.103 L2354.05 345.103 L2354.05 341.379 L2357.57 341.379 L2357.57 333.098 L2362.38 333.098 Z" fill="#000000" fill-rule="nonzero" fill-opacity="1" /><path clip-path="url(#clip290)" d="M2402.8 352.942 L2402.8 370.546 L2398.01 370.546 L2398.01 353.098 Q2398.01 348.957 2396.39 346.9 Q2394.78 344.843 2391.55 344.843 Q2387.67 344.843 2385.43 347.317 Q2383.19 349.791 2383.19 354.062 L2383.19 370.546 L2378.37 370.546 L2378.37 330.025 L2383.19 330.025 L2383.19 345.911 Q2384.91 343.28 2387.23 341.978 Q2389.57 340.676 2392.62 340.676 Q2397.64 340.676 2400.22 343.801 Q2402.8 346.9 2402.8 352.942 Z" fill="#000000" fill-rule="nonzero" fill-opacity="1" /><path clip-path="url(#clip290)" d="M2433.95 366.171 L2433.95 381.64 L2429.13 381.64 L2429.13 341.379 L2433.95 341.379 L2433.95 345.806 Q2435.46 343.202 2437.75 341.952 Q2440.06 340.676 2443.27 340.676 Q2448.58 340.676 2451.89 344.895 Q2455.22 349.114 2455.22 355.989 Q2455.22 362.864 2451.89 367.082 Q2448.58 371.301 2443.27 371.301 Q2440.06 371.301 2437.75 370.051 Q2435.46 368.775 2433.95 366.171 M2450.25 355.989 Q2450.25 350.702 2448.06 347.707 Q2445.9 344.687 2442.1 344.687 Q2438.29 344.687 2436.11 347.707 Q2433.95 350.702 2433.95 355.989 Q2433.95 361.275 2436.11 364.296 Q2438.29 367.291 2442.1 367.291 Q2445.9 367.291 2448.06 364.296 Q2450.25 361.275 2450.25 355.989 Z" fill="#000000" fill-rule="nonzero" fill-opacity="1" /><path clip-path="url(#clip290)" d="M2484.15 342.499 L2484.15 346.978 Q2482.12 345.858 2480.06 345.312 Q2478.03 344.739 2475.95 344.739 Q2471.29 344.739 2468.71 347.707 Q2466.13 350.65 2466.13 355.989 Q2466.13 361.327 2468.71 364.296 Q2471.29 367.239 2475.95 367.239 Q2478.03 367.239 2480.06 366.692 Q2482.12 366.119 2484.15 364.999 L2484.15 369.426 Q2482.15 370.364 2479.99 370.832 Q2477.85 371.301 2475.43 371.301 Q2468.84 371.301 2464.96 367.16 Q2461.08 363.02 2461.08 355.989 Q2461.08 348.853 2464.99 344.765 Q2468.92 340.676 2475.74 340.676 Q2477.96 340.676 2480.06 341.145 Q2482.17 341.588 2484.15 342.499 Z" fill="#000000" fill-rule="nonzero" fill-opacity="1" /><path clip-path="url(#clip290)" d="M2497.23 333.098 L2497.23 341.379 L2507.1 341.379 L2507.1 345.103 L2497.23 345.103 L2497.23 360.937 Q2497.23 364.504 2498.19 365.52 Q2499.18 366.535 2502.17 366.535 L2507.1 366.535 L2507.1 370.546 L2502.17 370.546 Q2496.63 370.546 2494.52 368.489 Q2492.41 366.405 2492.41 360.937 L2492.41 345.103 L2488.89 345.103 L2488.89 341.379 L2492.41 341.379 L2492.41 333.098 L2497.23 333.098 Z" fill="#000000" fill-rule="nonzero" fill-opacity="1" /><path clip-path="url(#clip290)" d="M2513.4 330.025 L2518.19 330.025 L2518.19 370.546 L2513.4 370.546 L2513.4 330.025 Z" fill="#000000" fill-rule="nonzero" fill-opacity="1" /></svg>
