<?xml version="1.0" encoding="utf-8"?>
<svg xmlns="http://www.w3.org/2000/svg" xmlns:xlink="http://www.w3.org/1999/xlink" width="600" height="400" viewBox="0 0 2400 1600">
<defs>
  <clipPath id="clip170">
    <rect x="0" y="0" width="2400" height="1600"/>
  </clipPath>
</defs>
<path clip-path="url(#clip170)" d="M0 1600 L2400 1600 L2400 8.88178e-14 L0 8.88178e-14  Z" fill="#ffffff" fill-rule="evenodd" fill-opacity="1"/>
<defs>
  <clipPath id="clip171">
    <rect x="422" y="125" width="1853" height="1116"/>
  </clipPath>
</defs>
<path clip-path="url(#clip170)" d="M441.992 1241.31 L2274.02 1241.31 L2274.02 125.984 L441.992 125.984  Z" fill="#ffffff" fill-rule="evenodd" fill-opacity="1"/>
<defs>
  <clipPath id="clip172">
    <rect x="441" y="125" width="1833" height="1116"/>
  </clipPath>
</defs>
<polyline clip-path="url(#clip172)" style="stroke:#000000; stroke-linecap:round; stroke-linejoin:round; stroke-width:2; stroke-opacity:0.1; fill:none" points="484.525,1241.31 484.525,125.984 "/>
<polyline clip-path="url(#clip172)" style="stroke:#000000; stroke-linecap:round; stroke-linejoin:round; stroke-width:2; stroke-opacity:0.1; fill:none" points="775.685,1241.31 775.685,125.984 "/>
<polyline clip-path="url(#clip172)" style="stroke:#000000; stroke-linecap:round; stroke-linejoin:round; stroke-width:2; stroke-opacity:0.1; fill:none" points="1066.84,1241.31 1066.84,125.984 "/>
<polyline clip-path="url(#clip172)" style="stroke:#000000; stroke-linecap:round; stroke-linejoin:round; stroke-width:2; stroke-opacity:0.1; fill:none" points="1358,1241.31 1358,125.984 "/>
<polyline clip-path="url(#clip172)" style="stroke:#000000; stroke-linecap:round; stroke-linejoin:round; stroke-width:2; stroke-opacity:0.1; fill:none" points="1649.16,1241.31 1649.16,125.984 "/>
<polyline clip-path="url(#clip172)" style="stroke:#000000; stroke-linecap:round; stroke-linejoin:round; stroke-width:2; stroke-opacity:0.1; fill:none" points="1940.32,1241.31 1940.32,125.984 "/>
<polyline clip-path="url(#clip172)" style="stroke:#000000; stroke-linecap:round; stroke-linejoin:round; stroke-width:2; stroke-opacity:0.1; fill:none" points="2231.48,1241.31 2231.48,125.984 "/>
<polyline clip-path="url(#clip172)" style="stroke:#000000; stroke-linecap:round; stroke-linejoin:round; stroke-width:2; stroke-opacity:0.1; fill:none" points="441.992,1241.31 2274.02,1241.31 "/>
<polyline clip-path="url(#clip172)" style="stroke:#000000; stroke-linecap:round; stroke-linejoin:round; stroke-width:2; stroke-opacity:0.1; fill:none" points="441.992,985.508 2274.02,985.508 "/>
<polyline clip-path="url(#clip172)" style="stroke:#000000; stroke-linecap:round; stroke-linejoin:round; stroke-width:2; stroke-opacity:0.1; fill:none" points="441.992,729.704 2274.02,729.704 "/>
<polyline clip-path="url(#clip172)" style="stroke:#000000; stroke-linecap:round; stroke-linejoin:round; stroke-width:2; stroke-opacity:0.1; fill:none" points="441.992,473.901 2274.02,473.901 "/>
<polyline clip-path="url(#clip172)" style="stroke:#000000; stroke-linecap:round; stroke-linejoin:round; stroke-width:2; stroke-opacity:0.1; fill:none" points="441.992,218.097 2274.02,218.097 "/>
<polyline clip-path="url(#clip170)" style="stroke:#000000; stroke-linecap:round; stroke-linejoin:round; stroke-width:4; stroke-opacity:1; fill:none" points="441.992,1241.31 2274.02,1241.31 "/>
<polyline clip-path="url(#clip170)" style="stroke:#000000; stroke-linecap:round; stroke-linejoin:round; stroke-width:4; stroke-opacity:1; fill:none" points="484.525,1241.31 484.525,1222.41 "/>
<polyline clip-path="url(#clip170)" style="stroke:#000000; stroke-linecap:round; stroke-linejoin:round; stroke-width:4; stroke-opacity:1; fill:none" points="775.685,1241.31 775.685,1222.41 "/>
<polyline clip-path="url(#clip170)" style="stroke:#000000; stroke-linecap:round; stroke-linejoin:round; stroke-width:4; stroke-opacity:1; fill:none" points="1066.84,1241.31 1066.84,1222.41 "/>
<polyline clip-path="url(#clip170)" style="stroke:#000000; stroke-linecap:round; stroke-linejoin:round; stroke-width:4; stroke-opacity:1; fill:none" points="1358,1241.31 1358,1222.41 "/>
<polyline clip-path="url(#clip170)" style="stroke:#000000; stroke-linecap:round; stroke-linejoin:round; stroke-width:4; stroke-opacity:1; fill:none" points="1649.16,1241.31 1649.16,1222.41 "/>
<polyline clip-path="url(#clip170)" style="stroke:#000000; stroke-linecap:round; stroke-linejoin:round; stroke-width:4; stroke-opacity:1; fill:none" points="1940.32,1241.31 1940.32,1222.41 "/>
<polyline clip-path="url(#clip170)" style="stroke:#000000; stroke-linecap:round; stroke-linejoin:round; stroke-width:4; stroke-opacity:1; fill:none" points="2231.48,1241.31 2231.48,1222.41 "/>
<path clip-path="url(#clip170)" d="M456.877 1275.16 Q452.364 1275.16 450.078 1279.62 Q447.821 1284.04 447.821 1292.95 Q447.821 1301.84 450.078 1306.29 Q452.364 1310.72 456.877 1310.72 Q461.42 1310.72 463.677 1306.29 Q465.963 1301.84 465.963 1292.95 Q465.963 1284.04 463.677 1279.62 Q461.42 1275.16 456.877 1275.16 M456.877 1270.53 Q464.14 1270.53 467.96 1276.29 Q471.808 1282.02 471.808 1292.95 Q471.808 1303.86 467.96 1309.62 Q464.14 1315.35 456.877 1315.35 Q449.615 1315.35 445.766 1309.62 Q441.947 1303.86 441.947 1292.95 Q441.947 1282.02 445.766 1276.29 Q449.615 1270.53 456.877 1270.53 Z" fill="#000000" fill-rule="nonzero" fill-opacity="1" /><path clip-path="url(#clip170)" d="M482.08 1307.16 L488.185 1307.16 L488.185 1314.51 L482.08 1314.51 L482.08 1307.16 Z" fill="#000000" fill-rule="nonzero" fill-opacity="1" /><path clip-path="url(#clip170)" d="M500.974 1271.31 L523.92 1271.31 L523.92 1276.23 L506.327 1276.23 L506.327 1286.82 Q507.601 1286.39 508.874 1286.18 Q510.147 1285.95 511.42 1285.95 Q518.654 1285.95 522.878 1289.92 Q527.103 1293.88 527.103 1300.65 Q527.103 1307.62 522.762 1311.5 Q518.422 1315.35 510.523 1315.35 Q507.803 1315.35 504.967 1314.89 Q502.161 1314.42 499.151 1313.5 L499.151 1307.62 Q501.756 1309.04 504.533 1309.74 Q507.311 1310.43 510.407 1310.43 Q515.413 1310.43 518.335 1307.8 Q521.258 1305.17 521.258 1300.65 Q521.258 1296.14 518.335 1293.5 Q515.413 1290.87 510.407 1290.87 Q508.063 1290.87 505.72 1291.39 Q503.405 1291.91 500.974 1293.01 L500.974 1271.31 Z" fill="#000000" fill-rule="nonzero" fill-opacity="1" /><path clip-path="url(#clip170)" d="M734.626 1309.59 L744.174 1309.59 L744.174 1276.64 L733.787 1278.72 L733.787 1273.39 L744.116 1271.31 L749.961 1271.31 L749.961 1309.59 L759.51 1309.59 L759.51 1314.51 L734.626 1314.51 L734.626 1309.59 Z" fill="#000000" fill-rule="nonzero" fill-opacity="1" /><path clip-path="url(#clip170)" d="M771.315 1307.16 L777.421 1307.16 L777.421 1314.51 L771.315 1314.51 L771.315 1307.16 Z" fill="#000000" fill-rule="nonzero" fill-opacity="1" /><path clip-path="url(#clip170)" d="M802.652 1275.16 Q798.138 1275.16 795.852 1279.62 Q793.595 1284.04 793.595 1292.95 Q793.595 1301.84 795.852 1306.29 Q798.138 1310.72 802.652 1310.72 Q807.195 1310.72 809.452 1306.29 Q811.738 1301.84 811.738 1292.95 Q811.738 1284.04 809.452 1279.62 Q807.195 1275.16 802.652 1275.16 M802.652 1270.53 Q809.915 1270.53 813.734 1276.29 Q817.582 1282.02 817.582 1292.95 Q817.582 1303.86 813.734 1309.62 Q809.915 1315.35 802.652 1315.35 Q795.389 1315.35 791.541 1309.62 Q787.722 1303.86 787.722 1292.95 Q787.722 1282.02 791.541 1276.29 Q795.389 1270.53 802.652 1270.53 Z" fill="#000000" fill-rule="nonzero" fill-opacity="1" /><path clip-path="url(#clip170)" d="M1026.41 1309.59 L1035.96 1309.59 L1035.96 1276.64 L1025.57 1278.72 L1025.57 1273.39 L1035.9 1271.31 L1041.74 1271.31 L1041.74 1309.59 L1051.29 1309.59 L1051.29 1314.51 L1026.41 1314.51 L1026.41 1309.59 Z" fill="#000000" fill-rule="nonzero" fill-opacity="1" /><path clip-path="url(#clip170)" d="M1063.1 1307.16 L1069.2 1307.16 L1069.2 1314.51 L1063.1 1314.51 L1063.1 1307.16 Z" fill="#000000" fill-rule="nonzero" fill-opacity="1" /><path clip-path="url(#clip170)" d="M1081.99 1271.31 L1104.94 1271.31 L1104.94 1276.23 L1087.34 1276.23 L1087.34 1286.82 Q1088.62 1286.39 1089.89 1286.18 Q1091.16 1285.95 1092.44 1285.95 Q1099.67 1285.95 1103.9 1289.92 Q1108.12 1293.88 1108.12 1300.65 Q1108.12 1307.62 1103.78 1311.5 Q1099.44 1315.35 1091.54 1315.35 Q1088.82 1315.35 1085.98 1314.89 Q1083.18 1314.42 1080.17 1313.5 L1080.17 1307.62 Q1082.77 1309.04 1085.55 1309.74 Q1088.33 1310.43 1091.42 1310.43 Q1096.43 1310.43 1099.35 1307.8 Q1102.28 1305.17 1102.28 1300.65 Q1102.28 1296.14 1099.35 1293.5 Q1096.43 1290.87 1091.42 1290.87 Q1089.08 1290.87 1086.74 1291.39 Q1084.42 1291.91 1081.99 1293.01 L1081.99 1271.31 Z" fill="#000000" fill-rule="nonzero" fill-opacity="1" /><path clip-path="url(#clip170)" d="M1322.05 1309.59 L1342.45 1309.59 L1342.45 1314.51 L1315.02 1314.51 L1315.02 1309.59 Q1318.35 1306.15 1324.08 1300.36 Q1329.84 1294.55 1331.31 1292.87 Q1334.12 1289.71 1335.22 1287.54 Q1336.35 1285.34 1336.35 1283.23 Q1336.35 1279.79 1333.92 1277.62 Q1331.51 1275.45 1327.64 1275.45 Q1324.89 1275.45 1321.82 1276.4 Q1318.78 1277.36 1315.31 1279.3 L1315.31 1273.39 Q1318.84 1271.98 1321.91 1271.25 Q1324.97 1270.53 1327.52 1270.53 Q1334.23 1270.53 1338.23 1273.89 Q1342.22 1277.24 1342.22 1282.86 Q1342.22 1285.52 1341.21 1287.92 Q1340.22 1290.29 1337.59 1293.53 Q1336.87 1294.37 1332.99 1298.39 Q1329.11 1302.39 1322.05 1309.59 Z" fill="#000000" fill-rule="nonzero" fill-opacity="1" /><path clip-path="url(#clip170)" d="M1354.72 1307.16 L1360.83 1307.16 L1360.83 1314.51 L1354.72 1314.51 L1354.72 1307.16 Z" fill="#000000" fill-rule="nonzero" fill-opacity="1" /><path clip-path="url(#clip170)" d="M1386.06 1275.16 Q1381.54 1275.16 1379.26 1279.62 Q1377 1284.04 1377 1292.95 Q1377 1301.84 1379.26 1306.29 Q1381.54 1310.72 1386.06 1310.72 Q1390.6 1310.72 1392.86 1306.29 Q1395.14 1301.84 1395.14 1292.95 Q1395.14 1284.04 1392.86 1279.62 Q1390.6 1275.16 1386.06 1275.16 M1386.06 1270.53 Q1393.32 1270.53 1397.14 1276.29 Q1400.99 1282.02 1400.99 1292.95 Q1400.99 1303.86 1397.14 1309.62 Q1393.32 1315.35 1386.06 1315.35 Q1378.79 1315.35 1374.95 1309.62 Q1371.13 1303.86 1371.13 1292.95 Q1371.13 1282.02 1374.95 1276.29 Q1378.79 1270.53 1386.06 1270.53 Z" fill="#000000" fill-rule="nonzero" fill-opacity="1" /><path clip-path="url(#clip170)" d="M1613.83 1309.59 L1634.23 1309.59 L1634.23 1314.51 L1606.8 1314.51 L1606.8 1309.59 Q1610.13 1306.15 1615.86 1300.36 Q1621.62 1294.55 1623.09 1292.87 Q1625.9 1289.71 1627 1287.54 Q1628.13 1285.34 1628.13 1283.23 Q1628.13 1279.79 1625.7 1277.62 Q1623.3 1275.45 1619.42 1275.45 Q1616.67 1275.45 1613.6 1276.4 Q1610.56 1277.36 1607.09 1279.3 L1607.09 1273.39 Q1610.62 1271.98 1613.69 1271.25 Q1616.76 1270.53 1619.3 1270.53 Q1626.02 1270.53 1630.01 1273.89 Q1634 1277.24 1634 1282.86 Q1634 1285.52 1632.99 1287.92 Q1632.01 1290.29 1629.37 1293.53 Q1628.65 1294.37 1624.77 1298.39 Q1620.89 1302.39 1613.83 1309.59 Z" fill="#000000" fill-rule="nonzero" fill-opacity="1" /><path clip-path="url(#clip170)" d="M1646.5 1307.16 L1652.61 1307.16 L1652.61 1314.51 L1646.5 1314.51 L1646.5 1307.16 Z" fill="#000000" fill-rule="nonzero" fill-opacity="1" /><path clip-path="url(#clip170)" d="M1665.4 1271.31 L1688.34 1271.31 L1688.34 1276.23 L1670.75 1276.23 L1670.75 1286.82 Q1672.02 1286.39 1673.3 1286.18 Q1674.57 1285.95 1675.84 1285.95 Q1683.08 1285.95 1687.3 1289.92 Q1691.52 1293.88 1691.52 1300.65 Q1691.52 1307.62 1687.18 1311.5 Q1682.84 1315.35 1674.94 1315.35 Q1672.22 1315.35 1669.39 1314.89 Q1666.58 1314.42 1663.57 1313.5 L1663.57 1307.62 Q1666.18 1309.04 1668.96 1309.74 Q1671.73 1310.43 1674.83 1310.43 Q1679.83 1310.43 1682.76 1307.8 Q1685.68 1305.17 1685.68 1300.65 Q1685.68 1296.14 1682.76 1293.5 Q1679.83 1290.87 1674.83 1290.87 Q1672.49 1290.87 1670.14 1291.39 Q1667.83 1291.91 1665.4 1293.01 L1665.4 1271.31 Z" fill="#000000" fill-rule="nonzero" fill-opacity="1" /><path clip-path="url(#clip170)" d="M1916.96 1291.22 Q1921.15 1292.12 1923.5 1294.95 Q1925.87 1297.79 1925.87 1301.95 Q1925.87 1308.35 1921.47 1311.85 Q1917.07 1315.35 1908.97 1315.35 Q1906.25 1315.35 1903.36 1314.8 Q1900.49 1314.28 1897.43 1313.21 L1897.43 1307.57 Q1899.86 1308.98 1902.75 1309.71 Q1905.64 1310.43 1908.8 1310.43 Q1914.3 1310.43 1917.16 1308.26 Q1920.05 1306.09 1920.05 1301.95 Q1920.05 1298.13 1917.36 1295.99 Q1914.7 1293.82 1909.93 1293.82 L1904.89 1293.82 L1904.89 1289.02 L1910.16 1289.02 Q1914.47 1289.02 1916.76 1287.31 Q1919.04 1285.58 1919.04 1282.34 Q1919.04 1279.01 1916.67 1277.24 Q1914.33 1275.45 1909.93 1275.45 Q1907.53 1275.45 1904.78 1275.97 Q1902.03 1276.49 1898.73 1277.59 L1898.73 1272.38 Q1902.06 1271.46 1904.95 1270.99 Q1907.87 1270.53 1910.45 1270.53 Q1917.1 1270.53 1920.98 1273.57 Q1924.86 1276.58 1924.86 1281.73 Q1924.86 1285.32 1922.8 1287.8 Q1920.75 1290.26 1916.96 1291.22 Z" fill="#000000" fill-rule="nonzero" fill-opacity="1" /><path clip-path="url(#clip170)" d="M1936.95 1307.16 L1943.06 1307.16 L1943.06 1314.51 L1936.95 1314.51 L1936.95 1307.16 Z" fill="#000000" fill-rule="nonzero" fill-opacity="1" /><path clip-path="url(#clip170)" d="M1968.29 1275.16 Q1963.78 1275.16 1961.49 1279.62 Q1959.23 1284.04 1959.23 1292.95 Q1959.23 1301.84 1961.49 1306.29 Q1963.78 1310.72 1968.29 1310.72 Q1972.83 1310.72 1975.09 1306.29 Q1977.37 1301.84 1977.37 1292.95 Q1977.37 1284.04 1975.09 1279.62 Q1972.83 1275.16 1968.29 1275.16 M1968.29 1270.53 Q1975.55 1270.53 1979.37 1276.29 Q1983.22 1282.02 1983.22 1292.95 Q1983.22 1303.86 1979.37 1309.62 Q1975.55 1315.35 1968.29 1315.35 Q1961.03 1315.35 1957.18 1309.62 Q1953.36 1303.86 1953.36 1292.95 Q1953.36 1282.02 1957.18 1276.29 Q1961.03 1270.53 1968.29 1270.53 Z" fill="#000000" fill-rule="nonzero" fill-opacity="1" /><path clip-path="url(#clip170)" d="M2208.74 1291.22 Q2212.94 1292.12 2215.28 1294.95 Q2217.65 1297.79 2217.65 1301.95 Q2217.65 1308.35 2213.25 1311.85 Q2208.86 1315.35 2200.75 1315.35 Q2198.03 1315.35 2195.14 1314.8 Q2192.28 1314.28 2189.21 1313.21 L2189.21 1307.57 Q2191.64 1308.98 2194.53 1309.71 Q2197.43 1310.43 2200.58 1310.43 Q2206.08 1310.43 2208.94 1308.26 Q2211.84 1306.09 2211.84 1301.95 Q2211.84 1298.13 2209.15 1295.99 Q2206.48 1293.82 2201.71 1293.82 L2196.67 1293.82 L2196.67 1289.02 L2201.94 1289.02 Q2206.25 1289.02 2208.54 1287.31 Q2210.82 1285.58 2210.82 1282.34 Q2210.82 1279.01 2208.45 1277.24 Q2206.11 1275.45 2201.71 1275.45 Q2199.31 1275.45 2196.56 1275.97 Q2193.81 1276.49 2190.51 1277.59 L2190.51 1272.38 Q2193.84 1271.46 2196.73 1270.99 Q2199.65 1270.53 2202.23 1270.53 Q2208.88 1270.53 2212.76 1273.57 Q2216.64 1276.58 2216.64 1281.73 Q2216.64 1285.32 2214.59 1287.8 Q2212.53 1290.26 2208.74 1291.22 Z" fill="#000000" fill-rule="nonzero" fill-opacity="1" /><path clip-path="url(#clip170)" d="M2228.73 1307.16 L2234.84 1307.16 L2234.84 1314.51 L2228.73 1314.51 L2228.73 1307.16 Z" fill="#000000" fill-rule="nonzero" fill-opacity="1" /><path clip-path="url(#clip170)" d="M2247.63 1271.31 L2270.57 1271.31 L2270.57 1276.23 L2252.98 1276.23 L2252.98 1286.82 Q2254.26 1286.39 2255.53 1286.18 Q2256.8 1285.95 2258.07 1285.95 Q2265.31 1285.95 2269.53 1289.92 Q2273.76 1293.88 2273.76 1300.65 Q2273.76 1307.62 2269.42 1311.5 Q2265.08 1315.35 2257.18 1315.35 Q2254.46 1315.35 2251.62 1314.89 Q2248.82 1314.42 2245.81 1313.5 L2245.81 1307.62 Q2248.41 1309.04 2251.19 1309.74 Q2253.97 1310.43 2257.06 1310.43 Q2262.07 1310.43 2264.99 1307.8 Q2267.91 1305.17 2267.91 1300.65 Q2267.91 1296.14 2264.99 1293.5 Q2262.07 1290.87 2257.06 1290.87 Q2254.72 1290.87 2252.37 1291.39 Q2250.06 1291.91 2247.63 1293.01 L2247.63 1271.31 Z" fill="#000000" fill-rule="nonzero" fill-opacity="1" /><path clip-path="url(#clip170)" d="M1306.2 1353.18 L1306.2 1359.45 Q1302.54 1357.69 1299.3 1356.84 Q1296.05 1355.98 1293.03 1355.98 Q1287.77 1355.98 1284.91 1358.01 Q1282.08 1360.05 1282.08 1363.81 Q1282.08 1366.96 1283.95 1368.58 Q1285.86 1370.17 1291.15 1371.16 L1295.03 1371.95 Q1302.22 1373.32 1305.63 1376.79 Q1309.07 1380.23 1309.07 1386.02 Q1309.07 1392.93 1304.42 1396.49 Q1299.81 1400.06 1290.86 1400.06 Q1287.49 1400.06 1283.67 1399.29 Q1279.88 1398.53 1275.81 1397.03 L1275.81 1390.41 Q1279.72 1392.61 1283.48 1393.72 Q1287.23 1394.84 1290.86 1394.84 Q1296.37 1394.84 1299.36 1392.67 Q1302.35 1390.51 1302.35 1386.5 Q1302.35 1383 1300.19 1381.03 Q1298.05 1379.05 1293.15 1378.07 L1289.24 1377.3 Q1282.05 1375.87 1278.83 1372.81 Q1275.62 1369.76 1275.62 1364.32 Q1275.62 1358.01 1280.04 1354.38 Q1284.5 1350.76 1292.29 1350.76 Q1295.64 1350.76 1299.11 1351.36 Q1302.57 1351.97 1306.2 1353.18 Z" fill="#000000" fill-rule="nonzero" fill-opacity="1" /><path clip-path="url(#clip170)" d="M1324.63 1353.37 L1324.63 1363.49 L1336.69 1363.49 L1336.69 1368.04 L1324.63 1368.04 L1324.63 1387.39 Q1324.63 1391.75 1325.81 1392.99 Q1327.02 1394.23 1330.68 1394.23 L1336.69 1394.23 L1336.69 1399.14 L1330.68 1399.14 Q1323.9 1399.14 1321.32 1396.62 Q1318.74 1394.07 1318.74 1387.39 L1318.74 1368.04 L1314.45 1368.04 L1314.45 1363.49 L1318.74 1363.49 L1318.74 1353.37 L1324.63 1353.37 Z" fill="#000000" fill-rule="nonzero" fill-opacity="1" /><path clip-path="url(#clip170)" d="M1360.6 1381.22 Q1353.5 1381.22 1350.76 1382.84 Q1348.03 1384.46 1348.03 1388.38 Q1348.03 1391.5 1350.06 1393.34 Q1352.13 1395.16 1355.66 1395.16 Q1360.53 1395.16 1363.46 1391.72 Q1366.42 1388.25 1366.42 1382.52 L1366.42 1381.22 L1360.6 1381.22 M1372.28 1378.8 L1372.28 1399.14 L1366.42 1399.14 L1366.42 1393.72 Q1364.42 1396.97 1361.43 1398.53 Q1358.43 1400.06 1354.1 1400.06 Q1348.63 1400.06 1345.38 1397 Q1342.17 1393.92 1342.17 1388.76 Q1342.17 1382.74 1346.18 1379.69 Q1350.22 1376.63 1358.21 1376.63 L1366.42 1376.63 L1366.42 1376.06 Q1366.42 1372.02 1363.75 1369.82 Q1361.11 1367.59 1356.3 1367.59 Q1353.25 1367.59 1350.35 1368.33 Q1347.45 1369.06 1344.78 1370.52 L1344.78 1365.11 Q1347.99 1363.87 1351.02 1363.26 Q1354.04 1362.63 1356.91 1362.63 Q1364.64 1362.63 1368.46 1366.64 Q1372.28 1370.65 1372.28 1378.8 Z" fill="#000000" fill-rule="nonzero" fill-opacity="1" /><path clip-path="url(#clip170)" d="M1390.13 1353.37 L1390.13 1363.49 L1402.2 1363.49 L1402.2 1368.04 L1390.13 1368.04 L1390.13 1387.39 Q1390.13 1391.75 1391.31 1392.99 Q1392.52 1394.23 1396.18 1394.23 L1402.2 1394.23 L1402.2 1399.14 L1396.18 1399.14 Q1389.4 1399.14 1386.82 1396.62 Q1384.25 1394.07 1384.25 1387.39 L1384.25 1368.04 L1379.95 1368.04 L1379.95 1363.49 L1384.25 1363.49 L1384.25 1353.37 L1390.13 1353.37 Z" fill="#000000" fill-rule="nonzero" fill-opacity="1" /><path clip-path="url(#clip170)" d="M1440.39 1379.85 L1440.39 1382.71 L1413.47 1382.71 Q1413.85 1388.76 1417.09 1391.94 Q1420.37 1395.09 1426.2 1395.09 Q1429.57 1395.09 1432.72 1394.27 Q1435.9 1393.44 1439.02 1391.78 L1439.02 1397.32 Q1435.87 1398.66 1432.56 1399.36 Q1429.25 1400.06 1425.85 1400.06 Q1417.32 1400.06 1412.32 1395.09 Q1407.35 1390.13 1407.35 1381.66 Q1407.35 1372.91 1412.06 1367.78 Q1416.81 1362.63 1424.83 1362.63 Q1432.02 1362.63 1436.19 1367.28 Q1440.39 1371.89 1440.39 1379.85 M1434.54 1378.13 Q1434.47 1373.32 1431.83 1370.46 Q1429.22 1367.59 1424.89 1367.59 Q1419.99 1367.59 1417.03 1370.36 Q1414.1 1373.13 1413.66 1378.16 L1434.54 1378.13 Z" fill="#000000" fill-rule="nonzero" fill-opacity="1" /><polyline clip-path="url(#clip170)" style="stroke:#000000; stroke-linecap:round; stroke-linejoin:round; stroke-width:4; stroke-opacity:1; fill:none" points="441.992,1241.31 441.992,125.984 "/>
<polyline clip-path="url(#clip170)" style="stroke:#000000; stroke-linecap:round; stroke-linejoin:round; stroke-width:4; stroke-opacity:1; fill:none" points="441.992,1241.31 460.89,1241.31 "/>
<polyline clip-path="url(#clip170)" style="stroke:#000000; stroke-linecap:round; stroke-linejoin:round; stroke-width:4; stroke-opacity:1; fill:none" points="441.992,985.508 460.89,985.508 "/>
<polyline clip-path="url(#clip170)" style="stroke:#000000; stroke-linecap:round; stroke-linejoin:round; stroke-width:4; stroke-opacity:1; fill:none" points="441.992,729.704 460.89,729.704 "/>
<polyline clip-path="url(#clip170)" style="stroke:#000000; stroke-linecap:round; stroke-linejoin:round; stroke-width:4; stroke-opacity:1; fill:none" points="441.992,473.901 460.89,473.901 "/>
<polyline clip-path="url(#clip170)" style="stroke:#000000; stroke-linecap:round; stroke-linejoin:round; stroke-width:4; stroke-opacity:1; fill:none" points="441.992,218.097 460.89,218.097 "/>
<path clip-path="url(#clip170)" d="M334.523 1223.56 Q330.009 1223.56 327.723 1228.02 Q325.466 1232.44 325.466 1241.35 Q325.466 1250.24 327.723 1254.69 Q330.009 1259.12 334.523 1259.12 Q339.065 1259.12 341.322 1254.69 Q343.608 1250.24 343.608 1241.35 Q343.608 1232.44 341.322 1228.02 Q339.065 1223.56 334.523 1223.56 M334.523 1218.93 Q341.785 1218.93 345.605 1224.69 Q349.453 1230.42 349.453 1241.35 Q349.453 1252.26 345.605 1258.02 Q341.785 1263.75 334.523 1263.75 Q327.26 1263.75 323.412 1258.02 Q319.592 1252.26 319.592 1241.35 Q319.592 1230.42 323.412 1224.69 Q327.26 1218.93 334.523 1218.93 Z" fill="#000000" fill-rule="nonzero" fill-opacity="1" /><path clip-path="url(#clip170)" d="M359.725 1255.56 L365.83 1255.56 L365.83 1262.91 L359.725 1262.91 L359.725 1255.56 Z" fill="#000000" fill-rule="nonzero" fill-opacity="1" /><path clip-path="url(#clip170)" d="M391.062 1223.56 Q386.548 1223.56 384.262 1228.02 Q382.005 1232.44 382.005 1241.35 Q382.005 1250.24 384.262 1254.69 Q386.548 1259.12 391.062 1259.12 Q395.605 1259.12 397.861 1254.69 Q400.147 1250.24 400.147 1241.35 Q400.147 1232.44 397.861 1228.02 Q395.605 1223.56 391.062 1223.56 M391.062 1218.93 Q398.324 1218.93 402.144 1224.69 Q405.992 1230.42 405.992 1241.35 Q405.992 1252.26 402.144 1258.02 Q398.324 1263.75 391.062 1263.75 Q383.799 1263.75 379.951 1258.02 Q376.131 1252.26 376.131 1241.35 Q376.131 1230.42 379.951 1224.69 Q383.799 1218.93 391.062 1218.93 Z" fill="#000000" fill-rule="nonzero" fill-opacity="1" /><path clip-path="url(#clip170)" d="M336.056 967.756 Q331.542 967.756 329.257 972.212 Q327 976.639 327 985.551 Q327 994.434 329.257 998.89 Q331.542 1003.32 336.056 1003.32 Q340.599 1003.32 342.856 998.89 Q345.142 994.434 345.142 985.551 Q345.142 976.639 342.856 972.212 Q340.599 967.756 336.056 967.756 M336.056 963.127 Q343.319 963.127 347.138 968.885 Q350.987 974.614 350.987 985.551 Q350.987 996.46 347.138 1002.22 Q343.319 1007.95 336.056 1007.95 Q328.794 1007.95 324.945 1002.22 Q321.126 996.46 321.126 985.551 Q321.126 974.614 324.945 968.885 Q328.794 963.127 336.056 963.127 Z" fill="#000000" fill-rule="nonzero" fill-opacity="1" /><path clip-path="url(#clip170)" d="M361.259 999.758 L367.364 999.758 L367.364 1007.11 L361.259 1007.11 L361.259 999.758 Z" fill="#000000" fill-rule="nonzero" fill-opacity="1" /><path clip-path="url(#clip170)" d="M381.108 1002.19 L390.657 1002.19 L390.657 969.232 L380.269 971.315 L380.269 965.991 L390.599 963.908 L396.444 963.908 L396.444 1002.19 L405.992 1002.19 L405.992 1007.11 L381.108 1007.11 L381.108 1002.19 Z" fill="#000000" fill-rule="nonzero" fill-opacity="1" /><path clip-path="url(#clip170)" d="M336.519 711.953 Q332.005 711.953 329.719 716.409 Q327.463 720.836 327.463 729.748 Q327.463 738.631 329.719 743.087 Q332.005 747.514 336.519 747.514 Q341.062 747.514 343.319 743.087 Q345.605 738.631 345.605 729.748 Q345.605 720.836 343.319 716.409 Q341.062 711.953 336.519 711.953 M336.519 707.323 Q343.782 707.323 347.601 713.081 Q351.45 718.81 351.45 729.748 Q351.45 740.656 347.601 746.414 Q343.782 752.143 336.519 752.143 Q329.257 752.143 325.408 746.414 Q321.589 740.656 321.589 729.748 Q321.589 718.81 325.408 713.081 Q329.257 707.323 336.519 707.323 Z" fill="#000000" fill-rule="nonzero" fill-opacity="1" /><path clip-path="url(#clip170)" d="M361.722 743.955 L367.827 743.955 L367.827 751.304 L361.722 751.304 L361.722 743.955 Z" fill="#000000" fill-rule="nonzero" fill-opacity="1" /><path clip-path="url(#clip170)" d="M385.593 746.385 L405.992 746.385 L405.992 751.304 L378.562 751.304 L378.562 746.385 Q381.889 742.942 387.618 737.155 Q393.377 731.339 394.852 729.661 Q397.659 726.507 398.758 724.337 Q399.887 722.138 399.887 720.025 Q399.887 716.582 397.456 714.412 Q395.055 712.242 391.177 712.242 Q388.429 712.242 385.362 713.197 Q382.323 714.152 378.851 716.09 L378.851 710.187 Q382.381 708.77 385.448 708.046 Q388.515 707.323 391.062 707.323 Q397.775 707.323 401.768 710.679 Q405.761 714.036 405.761 719.649 Q405.761 722.311 404.748 724.713 Q403.764 727.086 401.131 730.326 Q400.408 731.165 396.53 735.187 Q392.653 739.18 385.593 746.385 Z" fill="#000000" fill-rule="nonzero" fill-opacity="1" /><path clip-path="url(#clip170)" d="M335.333 456.149 Q330.819 456.149 328.533 460.605 Q326.276 465.032 326.276 473.944 Q326.276 482.827 328.533 487.283 Q330.819 491.71 335.333 491.71 Q339.876 491.71 342.133 487.283 Q344.418 482.827 344.418 473.944 Q344.418 465.032 342.133 460.605 Q339.876 456.149 335.333 456.149 M335.333 451.519 Q342.596 451.519 346.415 457.277 Q350.263 463.006 350.263 473.944 Q350.263 484.852 346.415 490.61 Q342.596 496.34 335.333 496.34 Q328.07 496.34 324.222 490.61 Q320.402 484.852 320.402 473.944 Q320.402 463.006 324.222 457.277 Q328.07 451.519 335.333 451.519 Z" fill="#000000" fill-rule="nonzero" fill-opacity="1" /><path clip-path="url(#clip170)" d="M360.535 488.151 L366.641 488.151 L366.641 495.501 L360.535 495.501 L360.535 488.151 Z" fill="#000000" fill-rule="nonzero" fill-opacity="1" /><path clip-path="url(#clip170)" d="M397.08 472.208 Q401.276 473.105 403.62 475.94 Q405.992 478.776 405.992 482.943 Q405.992 489.337 401.594 492.838 Q397.196 496.34 389.094 496.34 Q386.374 496.34 383.481 495.79 Q380.616 495.269 377.549 494.198 L377.549 488.556 Q379.98 489.974 382.873 490.697 Q385.767 491.421 388.921 491.421 Q394.418 491.421 397.283 489.251 Q400.176 487.08 400.176 482.943 Q400.176 479.123 397.485 476.982 Q394.823 474.812 390.049 474.812 L385.014 474.812 L385.014 470.009 L390.28 470.009 Q394.592 470.009 396.878 468.302 Q399.164 466.565 399.164 463.325 Q399.164 459.997 396.791 458.232 Q394.447 456.438 390.049 456.438 Q387.647 456.438 384.899 456.959 Q382.15 457.48 378.851 458.579 L378.851 453.371 Q382.179 452.445 385.072 451.982 Q387.995 451.519 390.57 451.519 Q397.225 451.519 401.102 454.557 Q404.979 457.567 404.979 462.717 Q404.979 466.305 402.925 468.793 Q400.871 471.253 397.08 472.208 Z" fill="#000000" fill-rule="nonzero" fill-opacity="1" /><path clip-path="url(#clip170)" d="M333.915 200.345 Q329.401 200.345 327.115 204.801 Q324.858 209.228 324.858 218.14 Q324.858 227.023 327.115 231.479 Q329.401 235.906 333.915 235.906 Q338.458 235.906 340.715 231.479 Q343.001 227.023 343.001 218.14 Q343.001 209.228 340.715 204.801 Q338.458 200.345 333.915 200.345 M333.915 195.716 Q341.178 195.716 344.997 201.474 Q348.846 207.203 348.846 218.14 Q348.846 229.049 344.997 234.807 Q341.178 240.536 333.915 240.536 Q326.652 240.536 322.804 234.807 Q318.985 229.049 318.985 218.14 Q318.985 207.203 322.804 201.474 Q326.652 195.716 333.915 195.716 Z" fill="#000000" fill-rule="nonzero" fill-opacity="1" /><path clip-path="url(#clip170)" d="M359.117 232.347 L365.223 232.347 L365.223 239.697 L359.117 239.697 L359.117 232.347 Z" fill="#000000" fill-rule="nonzero" fill-opacity="1" /><path clip-path="url(#clip170)" d="M394.013 201.589 L379.256 224.651 L394.013 224.651 L394.013 201.589 M392.48 196.497 L399.829 196.497 L399.829 224.651 L405.992 224.651 L405.992 229.512 L399.829 229.512 L399.829 239.697 L394.013 239.697 L394.013 229.512 L374.511 229.512 L374.511 223.869 L392.48 196.497 Z" fill="#000000" fill-rule="nonzero" fill-opacity="1" /><path clip-path="url(#clip170)" d="M226.492 845.337 L244.348 845.337 L244.348 837.252 Q244.348 832.765 242.024 830.314 Q239.701 827.863 235.404 827.863 Q231.139 827.863 228.816 830.314 Q226.492 832.765 226.492 837.252 L226.492 845.337 M221.209 851.766 L221.209 837.252 Q221.209 829.263 224.837 825.189 Q228.434 821.083 235.404 821.083 Q242.438 821.083 246.035 825.189 Q249.631 829.263 249.631 837.252 L249.631 845.337 L268.729 845.337 L268.729 851.766 L221.209 851.766 Z" fill="#000000" fill-rule="nonzero" fill-opacity="1" /><path clip-path="url(#clip170)" d="M238.555 793.202 Q237.982 794.188 237.728 795.366 Q237.441 796.512 237.441 797.912 Q237.441 802.878 240.688 805.551 Q243.902 808.193 249.95 808.193 L268.729 808.193 L268.729 814.081 L233.081 814.081 L233.081 808.193 L238.619 808.193 Q235.372 806.347 233.813 803.387 Q232.221 800.427 232.221 796.194 Q232.221 795.589 232.317 794.857 Q232.38 794.125 232.54 793.234 L238.555 793.202 Z" fill="#000000" fill-rule="nonzero" fill-opacity="1" /><path clip-path="url(#clip170)" d="M237.186 774.677 Q237.186 779.388 240.879 782.125 Q244.539 784.863 250.936 784.863 Q257.334 784.863 261.026 782.157 Q264.686 779.42 264.686 774.677 Q264.686 769.999 260.994 767.261 Q257.302 764.524 250.936 764.524 Q244.603 764.524 240.91 767.261 Q237.186 769.999 237.186 774.677 M232.221 774.677 Q232.221 767.039 237.186 762.678 Q242.152 758.318 250.936 758.318 Q259.689 758.318 264.686 762.678 Q269.652 767.039 269.652 774.677 Q269.652 782.348 264.686 786.709 Q259.689 791.037 250.936 791.037 Q242.152 791.037 237.186 786.709 Q232.221 782.348 232.221 774.677 Z" fill="#000000" fill-rule="nonzero" fill-opacity="1" /><path clip-path="url(#clip170)" d="M250.936 723.02 Q244.475 723.02 240.815 725.693 Q237.123 728.335 237.123 732.982 Q237.123 737.629 240.815 740.303 Q244.475 742.944 250.936 742.944 Q257.398 742.944 261.09 740.303 Q264.75 737.629 264.75 732.982 Q264.75 728.335 261.09 725.693 Q257.398 723.02 250.936 723.02 M238.491 742.944 Q235.309 741.098 233.781 738.297 Q232.221 735.465 232.221 731.55 Q232.221 725.057 237.377 721.015 Q242.534 716.941 250.936 716.941 Q259.339 716.941 264.495 721.015 Q269.652 725.057 269.652 731.55 Q269.652 735.465 268.124 738.297 Q266.564 741.098 263.381 742.944 L268.729 742.944 L268.729 748.833 L219.203 748.833 L219.203 742.944 L238.491 742.944 Z" fill="#000000" fill-rule="nonzero" fill-opacity="1" /><path clip-path="url(#clip170)" d="M250.809 691.032 Q250.809 698.13 252.432 700.867 Q254.056 703.604 257.971 703.604 Q261.09 703.604 262.936 701.567 Q264.75 699.498 264.75 695.966 Q264.75 691.096 261.313 688.168 Q257.843 685.207 252.114 685.207 L250.809 685.207 L250.809 691.032 M248.39 679.351 L268.729 679.351 L268.729 685.207 L263.318 685.207 Q266.564 687.213 268.124 690.205 Q269.652 693.196 269.652 697.525 Q269.652 703 266.596 706.246 Q263.509 709.461 258.352 709.461 Q252.337 709.461 249.281 705.45 Q246.226 701.408 246.226 693.419 L246.226 685.207 L245.653 685.207 Q241.611 685.207 239.414 687.881 Q237.186 690.523 237.186 695.329 Q237.186 698.384 237.919 701.281 Q238.651 704.177 240.115 706.851 L234.704 706.851 Q233.463 703.636 232.858 700.612 Q232.221 697.589 232.221 694.724 Q232.221 686.99 236.232 683.17 Q240.242 679.351 248.39 679.351 Z" fill="#000000" fill-rule="nonzero" fill-opacity="1" /><path clip-path="url(#clip170)" d="M250.936 641.698 Q244.475 641.698 240.815 644.371 Q237.123 647.013 237.123 651.66 Q237.123 656.307 240.815 658.981 Q244.475 661.623 250.936 661.623 Q257.398 661.623 261.09 658.981 Q264.75 656.307 264.75 651.66 Q264.75 647.013 261.09 644.371 Q257.398 641.698 250.936 641.698 M238.491 661.623 Q235.309 659.776 233.781 656.976 Q232.221 654.143 232.221 650.228 Q232.221 643.735 237.377 639.693 Q242.534 635.619 250.936 635.619 Q259.339 635.619 264.495 639.693 Q269.652 643.735 269.652 650.228 Q269.652 654.143 268.124 656.976 Q266.564 659.776 263.381 661.623 L268.729 661.623 L268.729 667.511 L219.203 667.511 L219.203 661.623 L238.491 661.623 Z" fill="#000000" fill-rule="nonzero" fill-opacity="1" /><path clip-path="url(#clip170)" d="M233.081 625.911 L233.081 620.054 L268.729 620.054 L268.729 625.911 L233.081 625.911 M219.203 625.911 L219.203 620.054 L226.619 620.054 L226.619 625.911 L219.203 625.911 Z" fill="#000000" fill-rule="nonzero" fill-opacity="1" /><path clip-path="url(#clip170)" d="M219.203 607.8 L219.203 601.944 L268.729 601.944 L268.729 607.8 L219.203 607.8 Z" fill="#000000" fill-rule="nonzero" fill-opacity="1" /><path clip-path="url(#clip170)" d="M233.081 589.69 L233.081 583.834 L268.729 583.834 L268.729 589.69 L233.081 589.69 M219.203 589.69 L219.203 583.834 L226.619 583.834 L226.619 589.69 L219.203 589.69 Z" fill="#000000" fill-rule="nonzero" fill-opacity="1" /><path clip-path="url(#clip170)" d="M222.959 565.787 L233.081 565.787 L233.081 553.724 L237.632 553.724 L237.632 565.787 L256.984 565.787 Q261.344 565.787 262.586 564.609 Q263.827 563.4 263.827 559.739 L263.827 553.724 L268.729 553.724 L268.729 559.739 Q268.729 566.519 266.214 569.097 Q263.668 571.675 256.984 571.675 L237.632 571.675 L237.632 575.972 L233.081 575.972 L233.081 571.675 L222.959 571.675 L222.959 565.787 Z" fill="#000000" fill-rule="nonzero" fill-opacity="1" /><path clip-path="url(#clip170)" d="M272.039 531.189 Q278.404 533.672 280.346 536.027 Q282.288 538.382 282.288 542.329 L282.288 547.008 L277.386 547.008 L277.386 543.57 Q277.386 541.152 276.24 539.815 Q275.094 538.478 270.829 536.855 L268.156 535.804 L233.081 550.223 L233.081 544.016 L260.962 532.876 L233.081 521.736 L233.081 515.53 L272.039 531.189 Z" fill="#000000" fill-rule="nonzero" fill-opacity="1" /><path clip-path="url(#clip172)" d="M542.757 776.157 L542.757 1241.31 L1008.61 1241.31 L1008.61 776.157 L542.757 776.157 L542.757 776.157  Z" fill="#4682b4" fill-rule="evenodd" fill-opacity="0.7"/>
<polyline clip-path="url(#clip172)" style="stroke:#000000; stroke-linecap:round; stroke-linejoin:round; stroke-width:4; stroke-opacity:0.7; fill:none" points="542.757,776.157 542.757,1241.31 1008.61,1241.31 1008.61,776.157 542.757,776.157 "/>
<path clip-path="url(#clip172)" d="M1125.08 263.757 L1125.08 1241.31 L1590.93 1241.31 L1590.93 263.757 L1125.08 263.757 L1125.08 263.757  Z" fill="#4682b4" fill-rule="evenodd" fill-opacity="0.7"/>
<polyline clip-path="url(#clip172)" style="stroke:#000000; stroke-linecap:round; stroke-linejoin:round; stroke-width:4; stroke-opacity:0.7; fill:none" points="1125.08,263.757 1125.08,1241.31 1590.93,1241.31 1590.93,263.757 1125.08,263.757 "/>
<path clip-path="url(#clip172)" d="M1707.4 125.984 L1707.4 1241.31 L2173.25 1241.31 L2173.25 125.984 L1707.4 125.984 L1707.4 125.984  Z" fill="#4682b4" fill-rule="evenodd" fill-opacity="0.7"/>
<polyline clip-path="url(#clip172)" style="stroke:#000000; stroke-linecap:round; stroke-linejoin:round; stroke-width:4; stroke-opacity:0.7; fill:none" points="1707.4,125.984 1707.4,1241.31 2173.25,1241.31 2173.25,125.984 1707.4,125.984 "/>
<circle clip-path="url(#clip172)" style="fill:#4682b4; stroke:none; fill-opacity:0" cx="775.685" cy="776.157" r="2"/>
<circle clip-path="url(#clip172)" style="fill:#4682b4; stroke:none; fill-opacity:0" cx="1358" cy="263.757" r="2"/>
<circle clip-path="url(#clip172)" style="fill:#4682b4; stroke:none; fill-opacity:0" cx="1940.32" cy="125.984" r="2"/>
</svg>
