<?xml version="1.0" encoding="utf-8"?>
<svg xmlns="http://www.w3.org/2000/svg" xmlns:xlink="http://www.w3.org/1999/xlink" width="600" height="400" viewBox="0 0 2400 1600">
<defs>
  <clipPath id="clip470">
    <rect x="0" y="0" width="2400" height="1600"/>
  </clipPath>
</defs>
<path clip-path="url(#clip470)" d="M0 1600 L2400 1600 L2400 8.88178e-14 L0 8.88178e-14  Z" fill="#ffffff" fill-rule="evenodd" fill-opacity="1"/>
<defs>
  <clipPath id="clip471">
    <rect x="422" y="184" width="1853" height="1057"/>
  </clipPath>
</defs>
<path clip-path="url(#clip470)" d="M441.992 1241.31 L2274.02 1241.31 L2274.02 184.932 L441.992 184.932  Z" fill="#ffffff" fill-rule="evenodd" fill-opacity="1"/>
<defs>
  <clipPath id="clip472">
    <rect x="441" y="184" width="1833" height="1057"/>
  </clipPath>
</defs>
<polyline clip-path="url(#clip472)" style="stroke:#000000; stroke-linecap:round; stroke-linejoin:round; stroke-width:2; stroke-opacity:0.1; fill:none" points="484.525,1241.31 484.525,184.932 "/>
<polyline clip-path="url(#clip472)" style="stroke:#000000; stroke-linecap:round; stroke-linejoin:round; stroke-width:2; stroke-opacity:0.1; fill:none" points="775.685,1241.31 775.685,184.932 "/>
<polyline clip-path="url(#clip472)" style="stroke:#000000; stroke-linecap:round; stroke-linejoin:round; stroke-width:2; stroke-opacity:0.1; fill:none" points="1066.84,1241.31 1066.84,184.932 "/>
<polyline clip-path="url(#clip472)" style="stroke:#000000; stroke-linecap:round; stroke-linejoin:round; stroke-width:2; stroke-opacity:0.1; fill:none" points="1358,1241.31 1358,184.932 "/>
<polyline clip-path="url(#clip472)" style="stroke:#000000; stroke-linecap:round; stroke-linejoin:round; stroke-width:2; stroke-opacity:0.1; fill:none" points="1649.16,1241.31 1649.16,184.932 "/>
<polyline clip-path="url(#clip472)" style="stroke:#000000; stroke-linecap:round; stroke-linejoin:round; stroke-width:2; stroke-opacity:0.1; fill:none" points="1940.32,1241.31 1940.32,184.932 "/>
<polyline clip-path="url(#clip472)" style="stroke:#000000; stroke-linecap:round; stroke-linejoin:round; stroke-width:2; stroke-opacity:0.1; fill:none" points="2231.48,1241.31 2231.48,184.932 "/>
<polyline clip-path="url(#clip472)" style="stroke:#000000; stroke-linecap:round; stroke-linejoin:round; stroke-width:2; stroke-opacity:0.1; fill:none" points="441.992,1241.31 2274.02,1241.31 "/>
<polyline clip-path="url(#clip472)" style="stroke:#000000; stroke-linecap:round; stroke-linejoin:round; stroke-width:2; stroke-opacity:0.1; fill:none" points="441.992,999.028 2274.02,999.028 "/>
<polyline clip-path="url(#clip472)" style="stroke:#000000; stroke-linecap:round; stroke-linejoin:round; stroke-width:2; stroke-opacity:0.1; fill:none" points="441.992,756.744 2274.02,756.744 "/>
<polyline clip-path="url(#clip472)" style="stroke:#000000; stroke-linecap:round; stroke-linejoin:round; stroke-width:2; stroke-opacity:0.1; fill:none" points="441.992,514.46 2274.02,514.46 "/>
<polyline clip-path="url(#clip472)" style="stroke:#000000; stroke-linecap:round; stroke-linejoin:round; stroke-width:2; stroke-opacity:0.1; fill:none" points="441.992,272.176 2274.02,272.176 "/>
<polyline clip-path="url(#clip470)" style="stroke:#000000; stroke-linecap:round; stroke-linejoin:round; stroke-width:4; stroke-opacity:1; fill:none" points="441.992,1241.31 2274.02,1241.31 "/>
<polyline clip-path="url(#clip470)" style="stroke:#000000; stroke-linecap:round; stroke-linejoin:round; stroke-width:4; stroke-opacity:1; fill:none" points="484.525,1241.31 484.525,1222.41 "/>
<polyline clip-path="url(#clip470)" style="stroke:#000000; stroke-linecap:round; stroke-linejoin:round; stroke-width:4; stroke-opacity:1; fill:none" points="775.685,1241.31 775.685,1222.41 "/>
<polyline clip-path="url(#clip470)" style="stroke:#000000; stroke-linecap:round; stroke-linejoin:round; stroke-width:4; stroke-opacity:1; fill:none" points="1066.84,1241.31 1066.84,1222.41 "/>
<polyline clip-path="url(#clip470)" style="stroke:#000000; stroke-linecap:round; stroke-linejoin:round; stroke-width:4; stroke-opacity:1; fill:none" points="1358,1241.31 1358,1222.41 "/>
<polyline clip-path="url(#clip470)" style="stroke:#000000; stroke-linecap:round; stroke-linejoin:round; stroke-width:4; stroke-opacity:1; fill:none" points="1649.16,1241.31 1649.16,1222.41 "/>
<polyline clip-path="url(#clip470)" style="stroke:#000000; stroke-linecap:round; stroke-linejoin:round; stroke-width:4; stroke-opacity:1; fill:none" points="1940.32,1241.31 1940.32,1222.41 "/>
<polyline clip-path="url(#clip470)" style="stroke:#000000; stroke-linecap:round; stroke-linejoin:round; stroke-width:4; stroke-opacity:1; fill:none" points="2231.48,1241.31 2231.48,1222.41 "/>
<path clip-path="url(#clip470)" d="M456.877 1275.16 Q452.364 1275.16 450.078 1279.62 Q447.821 1284.04 447.821 1292.95 Q447.821 1301.84 450.078 1306.29 Q452.364 1310.72 456.877 1310.72 Q461.42 1310.72 463.677 1306.29 Q465.963 1301.84 465.963 1292.95 Q465.963 1284.04 463.677 1279.62 Q461.42 1275.16 456.877 1275.16 M456.877 1270.53 Q464.14 1270.53 467.96 1276.29 Q471.808 1282.02 471.808 1292.95 Q471.808 1303.86 467.96 1309.62 Q464.14 1315.35 456.877 1315.35 Q449.615 1315.35 445.766 1309.62 Q441.947 1303.86 441.947 1292.95 Q441.947 1282.02 445.766 1276.29 Q449.615 1270.53 456.877 1270.53 Z" fill="#000000" fill-rule="nonzero" fill-opacity="1" /><path clip-path="url(#clip470)" d="M482.08 1307.16 L488.185 1307.16 L488.185 1314.51 L482.08 1314.51 L482.08 1307.16 Z" fill="#000000" fill-rule="nonzero" fill-opacity="1" /><path clip-path="url(#clip470)" d="M500.974 1271.31 L523.92 1271.31 L523.92 1276.23 L506.327 1276.23 L506.327 1286.82 Q507.601 1286.39 508.874 1286.18 Q510.147 1285.95 511.42 1285.95 Q518.654 1285.95 522.878 1289.92 Q527.103 1293.88 527.103 1300.65 Q527.103 1307.62 522.762 1311.5 Q518.422 1315.35 510.523 1315.35 Q507.803 1315.35 504.967 1314.89 Q502.161 1314.42 499.151 1313.5 L499.151 1307.62 Q501.756 1309.04 504.533 1309.74 Q507.311 1310.43 510.407 1310.43 Q515.413 1310.43 518.335 1307.8 Q521.258 1305.17 521.258 1300.65 Q521.258 1296.14 518.335 1293.5 Q515.413 1290.87 510.407 1290.87 Q508.063 1290.87 505.72 1291.39 Q503.405 1291.91 500.974 1293.01 L500.974 1271.31 Z" fill="#000000" fill-rule="nonzero" fill-opacity="1" /><path clip-path="url(#clip470)" d="M734.626 1309.59 L744.174 1309.59 L744.174 1276.64 L733.787 1278.72 L733.787 1273.39 L744.116 1271.31 L749.961 1271.31 L749.961 1309.59 L759.51 1309.59 L759.51 1314.51 L734.626 1314.51 L734.626 1309.59 Z" fill="#000000" fill-rule="nonzero" fill-opacity="1" /><path clip-path="url(#clip470)" d="M771.315 1307.16 L777.421 1307.16 L777.421 1314.51 L771.315 1314.51 L771.315 1307.16 Z" fill="#000000" fill-rule="nonzero" fill-opacity="1" /><path clip-path="url(#clip470)" d="M802.652 1275.16 Q798.138 1275.16 795.852 1279.62 Q793.595 1284.04 793.595 1292.95 Q793.595 1301.84 795.852 1306.29 Q798.138 1310.72 802.652 1310.72 Q807.195 1310.72 809.452 1306.29 Q811.738 1301.84 811.738 1292.95 Q811.738 1284.04 809.452 1279.62 Q807.195 1275.16 802.652 1275.16 M802.652 1270.53 Q809.915 1270.53 813.734 1276.29 Q817.582 1282.02 817.582 1292.95 Q817.582 1303.86 813.734 1309.62 Q809.915 1315.35 802.652 1315.35 Q795.389 1315.35 791.541 1309.62 Q787.722 1303.86 787.722 1292.95 Q787.722 1282.02 791.541 1276.29 Q795.389 1270.53 802.652 1270.53 Z" fill="#000000" fill-rule="nonzero" fill-opacity="1" /><path clip-path="url(#clip470)" d="M1026.41 1309.59 L1035.96 1309.59 L1035.96 1276.64 L1025.57 1278.72 L1025.57 1273.39 L1035.9 1271.31 L1041.74 1271.31 L1041.74 1309.59 L1051.29 1309.59 L1051.29 1314.51 L1026.41 1314.51 L1026.41 1309.59 Z" fill="#000000" fill-rule="nonzero" fill-opacity="1" /><path clip-path="url(#clip470)" d="M1063.1 1307.16 L1069.2 1307.16 L1069.2 1314.51 L1063.1 1314.51 L1063.1 1307.16 Z" fill="#000000" fill-rule="nonzero" fill-opacity="1" /><path clip-path="url(#clip470)" d="M1081.99 1271.31 L1104.94 1271.31 L1104.94 1276.23 L1087.34 1276.23 L1087.34 1286.82 Q1088.62 1286.39 1089.89 1286.18 Q1091.16 1285.95 1092.44 1285.95 Q1099.67 1285.95 1103.9 1289.92 Q1108.12 1293.88 1108.12 1300.65 Q1108.12 1307.62 1103.78 1311.5 Q1099.44 1315.35 1091.54 1315.35 Q1088.82 1315.35 1085.98 1314.89 Q1083.18 1314.42 1080.17 1313.5 L1080.17 1307.62 Q1082.77 1309.04 1085.55 1309.74 Q1088.33 1310.43 1091.42 1310.43 Q1096.43 1310.43 1099.35 1307.8 Q1102.28 1305.17 1102.28 1300.65 Q1102.28 1296.14 1099.35 1293.5 Q1096.43 1290.87 1091.42 1290.87 Q1089.08 1290.87 1086.74 1291.39 Q1084.42 1291.91 1081.99 1293.01 L1081.99 1271.31 Z" fill="#000000" fill-rule="nonzero" fill-opacity="1" /><path clip-path="url(#clip470)" d="M1322.05 1309.59 L1342.45 1309.59 L1342.45 1314.51 L1315.02 1314.51 L1315.02 1309.59 Q1318.35 1306.15 1324.08 1300.36 Q1329.84 1294.55 1331.31 1292.87 Q1334.12 1289.71 1335.22 1287.54 Q1336.35 1285.34 1336.35 1283.23 Q1336.35 1279.79 1333.92 1277.62 Q1331.51 1275.45 1327.64 1275.45 Q1324.89 1275.45 1321.82 1276.4 Q1318.78 1277.36 1315.31 1279.3 L1315.31 1273.39 Q1318.84 1271.98 1321.91 1271.25 Q1324.97 1270.53 1327.52 1270.53 Q1334.23 1270.53 1338.23 1273.89 Q1342.22 1277.24 1342.22 1282.86 Q1342.22 1285.52 1341.21 1287.92 Q1340.22 1290.29 1337.59 1293.53 Q1336.87 1294.37 1332.99 1298.39 Q1329.11 1302.39 1322.05 1309.59 Z" fill="#000000" fill-rule="nonzero" fill-opacity="1" /><path clip-path="url(#clip470)" d="M1354.72 1307.16 L1360.83 1307.16 L1360.83 1314.51 L1354.72 1314.51 L1354.72 1307.16 Z" fill="#000000" fill-rule="nonzero" fill-opacity="1" /><path clip-path="url(#clip470)" d="M1386.06 1275.16 Q1381.54 1275.16 1379.26 1279.62 Q1377 1284.04 1377 1292.95 Q1377 1301.84 1379.26 1306.29 Q1381.54 1310.72 1386.06 1310.72 Q1390.6 1310.72 1392.86 1306.29 Q1395.14 1301.84 1395.14 1292.95 Q1395.14 1284.04 1392.86 1279.62 Q1390.6 1275.16 1386.06 1275.16 M1386.06 1270.53 Q1393.32 1270.53 1397.14 1276.29 Q1400.99 1282.02 1400.99 1292.95 Q1400.99 1303.86 1397.14 1309.62 Q1393.32 1315.35 1386.06 1315.35 Q1378.79 1315.35 1374.95 1309.62 Q1371.13 1303.86 1371.13 1292.95 Q1371.13 1282.02 1374.95 1276.29 Q1378.79 1270.53 1386.06 1270.53 Z" fill="#000000" fill-rule="nonzero" fill-opacity="1" /><path clip-path="url(#clip470)" d="M1613.83 1309.59 L1634.23 1309.59 L1634.23 1314.51 L1606.8 1314.51 L1606.8 1309.59 Q1610.13 1306.15 1615.86 1300.36 Q1621.62 1294.55 1623.09 1292.87 Q1625.9 1289.71 1627 1287.54 Q1628.13 1285.34 1628.13 1283.23 Q1628.13 1279.79 1625.7 1277.62 Q1623.3 1275.45 1619.42 1275.45 Q1616.67 1275.45 1613.6 1276.4 Q1610.56 1277.36 1607.09 1279.3 L1607.09 1273.39 Q1610.62 1271.98 1613.69 1271.25 Q1616.76 1270.53 1619.3 1270.53 Q1626.02 1270.53 1630.01 1273.89 Q1634 1277.24 1634 1282.86 Q1634 1285.52 1632.99 1287.92 Q1632.01 1290.29 1629.37 1293.53 Q1628.65 1294.37 1624.77 1298.39 Q1620.89 1302.39 1613.83 1309.59 Z" fill="#000000" fill-rule="nonzero" fill-opacity="1" /><path clip-path="url(#clip470)" d="M1646.5 1307.16 L1652.61 1307.16 L1652.61 1314.51 L1646.5 1314.51 L1646.5 1307.16 Z" fill="#000000" fill-rule="nonzero" fill-opacity="1" /><path clip-path="url(#clip470)" d="M1665.4 1271.31 L1688.34 1271.31 L1688.34 1276.23 L1670.75 1276.23 L1670.75 1286.82 Q1672.02 1286.39 1673.3 1286.18 Q1674.57 1285.95 1675.84 1285.95 Q1683.08 1285.95 1687.3 1289.92 Q1691.52 1293.88 1691.52 1300.65 Q1691.52 1307.62 1687.18 1311.5 Q1682.84 1315.35 1674.94 1315.35 Q1672.22 1315.35 1669.39 1314.89 Q1666.58 1314.42 1663.57 1313.5 L1663.57 1307.62 Q1666.18 1309.04 1668.96 1309.74 Q1671.73 1310.43 1674.83 1310.43 Q1679.83 1310.43 1682.76 1307.8 Q1685.68 1305.17 1685.68 1300.65 Q1685.68 1296.14 1682.76 1293.5 Q1679.83 1290.87 1674.83 1290.87 Q1672.49 1290.87 1670.14 1291.39 Q1667.83 1291.91 1665.4 1293.01 L1665.4 1271.31 Z" fill="#000000" fill-rule="nonzero" fill-opacity="1" /><path clip-path="url(#clip470)" d="M1916.96 1291.22 Q1921.15 1292.12 1923.5 1294.95 Q1925.87 1297.79 1925.87 1301.95 Q1925.87 1308.35 1921.47 1311.85 Q1917.07 1315.35 1908.97 1315.35 Q1906.25 1315.35 1903.36 1314.8 Q1900.49 1314.28 1897.43 1313.21 L1897.43 1307.57 Q1899.86 1308.98 1902.75 1309.71 Q1905.64 1310.43 1908.8 1310.43 Q1914.3 1310.43 1917.16 1308.26 Q1920.05 1306.09 1920.05 1301.95 Q1920.05 1298.13 1917.36 1295.99 Q1914.7 1293.82 1909.93 1293.82 L1904.89 1293.82 L1904.89 1289.02 L1910.16 1289.02 Q1914.47 1289.02 1916.76 1287.31 Q1919.04 1285.58 1919.04 1282.34 Q1919.04 1279.01 1916.67 1277.24 Q1914.33 1275.45 1909.93 1275.45 Q1907.53 1275.45 1904.78 1275.97 Q1902.03 1276.49 1898.73 1277.59 L1898.73 1272.38 Q1902.06 1271.46 1904.95 1270.99 Q1907.87 1270.53 1910.45 1270.53 Q1917.1 1270.53 1920.98 1273.57 Q1924.86 1276.58 1924.86 1281.73 Q1924.86 1285.32 1922.8 1287.8 Q1920.75 1290.26 1916.96 1291.22 Z" fill="#000000" fill-rule="nonzero" fill-opacity="1" /><path clip-path="url(#clip470)" d="M1936.95 1307.16 L1943.06 1307.16 L1943.06 1314.51 L1936.95 1314.51 L1936.95 1307.16 Z" fill="#000000" fill-rule="nonzero" fill-opacity="1" /><path clip-path="url(#clip470)" d="M1968.29 1275.16 Q1963.78 1275.16 1961.49 1279.62 Q1959.23 1284.04 1959.23 1292.95 Q1959.23 1301.84 1961.49 1306.29 Q1963.78 1310.72 1968.29 1310.72 Q1972.83 1310.72 1975.09 1306.29 Q1977.37 1301.84 1977.37 1292.95 Q1977.37 1284.04 1975.09 1279.62 Q1972.83 1275.16 1968.29 1275.16 M1968.29 1270.53 Q1975.55 1270.53 1979.37 1276.29 Q1983.22 1282.02 1983.22 1292.95 Q1983.22 1303.86 1979.37 1309.62 Q1975.55 1315.35 1968.29 1315.35 Q1961.03 1315.35 1957.18 1309.62 Q1953.36 1303.86 1953.36 1292.95 Q1953.36 1282.02 1957.18 1276.29 Q1961.03 1270.53 1968.29 1270.53 Z" fill="#000000" fill-rule="nonzero" fill-opacity="1" /><path clip-path="url(#clip470)" d="M2208.74 1291.22 Q2212.94 1292.12 2215.28 1294.95 Q2217.65 1297.79 2217.65 1301.95 Q2217.65 1308.35 2213.25 1311.85 Q2208.86 1315.35 2200.75 1315.35 Q2198.03 1315.35 2195.14 1314.8 Q2192.28 1314.28 2189.21 1313.21 L2189.21 1307.57 Q2191.64 1308.98 2194.53 1309.71 Q2197.43 1310.43 2200.58 1310.43 Q2206.08 1310.43 2208.94 1308.26 Q2211.84 1306.09 2211.84 1301.95 Q2211.84 1298.13 2209.15 1295.99 Q2206.48 1293.82 2201.71 1293.82 L2196.67 1293.82 L2196.67 1289.02 L2201.94 1289.02 Q2206.25 1289.02 2208.54 1287.31 Q2210.82 1285.58 2210.82 1282.34 Q2210.82 1279.01 2208.45 1277.24 Q2206.11 1275.45 2201.71 1275.45 Q2199.31 1275.45 2196.56 1275.97 Q2193.81 1276.49 2190.51 1277.59 L2190.51 1272.38 Q2193.84 1271.46 2196.73 1270.99 Q2199.65 1270.53 2202.23 1270.53 Q2208.88 1270.53 2212.76 1273.57 Q2216.64 1276.58 2216.64 1281.73 Q2216.64 1285.32 2214.59 1287.8 Q2212.53 1290.26 2208.74 1291.22 Z" fill="#000000" fill-rule="nonzero" fill-opacity="1" /><path clip-path="url(#clip470)" d="M2228.73 1307.16 L2234.84 1307.16 L2234.84 1314.51 L2228.73 1314.51 L2228.73 1307.16 Z" fill="#000000" fill-rule="nonzero" fill-opacity="1" /><path clip-path="url(#clip470)" d="M2247.63 1271.31 L2270.57 1271.31 L2270.57 1276.23 L2252.98 1276.23 L2252.98 1286.82 Q2254.26 1286.39 2255.53 1286.18 Q2256.8 1285.95 2258.07 1285.95 Q2265.31 1285.95 2269.53 1289.92 Q2273.76 1293.88 2273.76 1300.65 Q2273.76 1307.62 2269.42 1311.5 Q2265.08 1315.35 2257.18 1315.35 Q2254.46 1315.35 2251.62 1314.89 Q2248.82 1314.42 2245.81 1313.5 L2245.81 1307.62 Q2248.41 1309.04 2251.19 1309.74 Q2253.97 1310.43 2257.06 1310.43 Q2262.07 1310.43 2264.99 1307.8 Q2267.91 1305.17 2267.91 1300.65 Q2267.91 1296.14 2264.99 1293.5 Q2262.07 1290.87 2257.06 1290.87 Q2254.72 1290.87 2252.37 1291.39 Q2250.06 1291.91 2247.63 1293.01 L2247.63 1271.31 Z" fill="#000000" fill-rule="nonzero" fill-opacity="1" /><path clip-path="url(#clip470)" d="M1306.2 1353.18 L1306.2 1359.45 Q1302.54 1357.69 1299.3 1356.84 Q1296.05 1355.98 1293.03 1355.98 Q1287.77 1355.98 1284.91 1358.01 Q1282.08 1360.05 1282.08 1363.81 Q1282.08 1366.96 1283.95 1368.58 Q1285.86 1370.17 1291.15 1371.16 L1295.03 1371.95 Q1302.22 1373.32 1305.63 1376.79 Q1309.07 1380.23 1309.07 1386.02 Q1309.07 1392.93 1304.42 1396.49 Q1299.81 1400.06 1290.86 1400.06 Q1287.49 1400.06 1283.67 1399.29 Q1279.88 1398.53 1275.81 1397.03 L1275.81 1390.41 Q1279.72 1392.61 1283.48 1393.72 Q1287.23 1394.84 1290.86 1394.84 Q1296.37 1394.84 1299.36 1392.67 Q1302.35 1390.51 1302.35 1386.5 Q1302.35 1383 1300.19 1381.03 Q1298.05 1379.05 1293.15 1378.07 L1289.24 1377.3 Q1282.05 1375.87 1278.83 1372.81 Q1275.62 1369.76 1275.62 1364.32 Q1275.62 1358.01 1280.04 1354.38 Q1284.5 1350.76 1292.29 1350.76 Q1295.64 1350.76 1299.11 1351.36 Q1302.57 1351.97 1306.2 1353.18 Z" fill="#000000" fill-rule="nonzero" fill-opacity="1" /><path clip-path="url(#clip470)" d="M1324.63 1353.37 L1324.63 1363.49 L1336.69 1363.49 L1336.69 1368.04 L1324.63 1368.04 L1324.63 1387.39 Q1324.63 1391.75 1325.81 1392.99 Q1327.02 1394.23 1330.68 1394.23 L1336.69 1394.23 L1336.69 1399.14 L1330.68 1399.14 Q1323.9 1399.14 1321.32 1396.62 Q1318.74 1394.07 1318.74 1387.39 L1318.74 1368.04 L1314.45 1368.04 L1314.45 1363.49 L1318.74 1363.49 L1318.74 1353.37 L1324.63 1353.37 Z" fill="#000000" fill-rule="nonzero" fill-opacity="1" /><path clip-path="url(#clip470)" d="M1360.6 1381.22 Q1353.5 1381.22 1350.76 1382.84 Q1348.03 1384.46 1348.03 1388.38 Q1348.03 1391.5 1350.06 1393.34 Q1352.13 1395.16 1355.66 1395.16 Q1360.53 1395.16 1363.46 1391.72 Q1366.42 1388.25 1366.42 1382.52 L1366.42 1381.22 L1360.6 1381.22 M1372.28 1378.8 L1372.28 1399.14 L1366.42 1399.14 L1366.42 1393.72 Q1364.42 1396.97 1361.43 1398.53 Q1358.43 1400.06 1354.1 1400.06 Q1348.63 1400.06 1345.38 1397 Q1342.17 1393.92 1342.17 1388.76 Q1342.17 1382.74 1346.18 1379.69 Q1350.22 1376.63 1358.21 1376.63 L1366.42 1376.63 L1366.42 1376.06 Q1366.42 1372.02 1363.75 1369.82 Q1361.11 1367.59 1356.3 1367.59 Q1353.25 1367.59 1350.35 1368.33 Q1347.45 1369.06 1344.78 1370.52 L1344.78 1365.11 Q1347.99 1363.87 1351.02 1363.26 Q1354.04 1362.63 1356.91 1362.63 Q1364.64 1362.63 1368.46 1366.64 Q1372.28 1370.65 1372.28 1378.8 Z" fill="#000000" fill-rule="nonzero" fill-opacity="1" /><path clip-path="url(#clip470)" d="M1390.13 1353.37 L1390.13 1363.49 L1402.2 1363.49 L1402.2 1368.04 L1390.13 1368.04 L1390.13 1387.39 Q1390.13 1391.75 1391.31 1392.99 Q1392.52 1394.23 1396.18 1394.23 L1402.2 1394.23 L1402.2 1399.14 L1396.18 1399.14 Q1389.4 1399.14 1386.82 1396.62 Q1384.25 1394.07 1384.25 1387.39 L1384.25 1368.04 L1379.95 1368.04 L1379.95 1363.49 L1384.25 1363.49 L1384.25 1353.37 L1390.13 1353.37 Z" fill="#000000" fill-rule="nonzero" fill-opacity="1" /><path clip-path="url(#clip470)" d="M1440.39 1379.85 L1440.39 1382.71 L1413.47 1382.71 Q1413.85 1388.76 1417.09 1391.94 Q1420.37 1395.09 1426.2 1395.09 Q1429.57 1395.09 1432.72 1394.27 Q1435.9 1393.44 1439.02 1391.78 L1439.02 1397.32 Q1435.87 1398.66 1432.56 1399.36 Q1429.25 1400.06 1425.85 1400.06 Q1417.32 1400.06 1412.32 1395.09 Q1407.35 1390.13 1407.35 1381.66 Q1407.35 1372.91 1412.06 1367.78 Q1416.81 1362.63 1424.83 1362.63 Q1432.02 1362.63 1436.19 1367.28 Q1440.39 1371.89 1440.39 1379.85 M1434.54 1378.13 Q1434.47 1373.32 1431.83 1370.46 Q1429.22 1367.59 1424.89 1367.59 Q1419.99 1367.59 1417.03 1370.36 Q1414.1 1373.13 1413.66 1378.16 L1434.54 1378.13 Z" fill="#000000" fill-rule="nonzero" fill-opacity="1" /><polyline clip-path="url(#clip470)" style="stroke:#000000; stroke-linecap:round; stroke-linejoin:round; stroke-width:4; stroke-opacity:1; fill:none" points="441.992,1241.31 441.992,184.932 "/>
<polyline clip-path="url(#clip470)" style="stroke:#000000; stroke-linecap:round; stroke-linejoin:round; stroke-width:4; stroke-opacity:1; fill:none" points="441.992,1241.31 460.89,1241.31 "/>
<polyline clip-path="url(#clip470)" style="stroke:#000000; stroke-linecap:round; stroke-linejoin:round; stroke-width:4; stroke-opacity:1; fill:none" points="441.992,999.028 460.89,999.028 "/>
<polyline clip-path="url(#clip470)" style="stroke:#000000; stroke-linecap:round; stroke-linejoin:round; stroke-width:4; stroke-opacity:1; fill:none" points="441.992,756.744 460.89,756.744 "/>
<polyline clip-path="url(#clip470)" style="stroke:#000000; stroke-linecap:round; stroke-linejoin:round; stroke-width:4; stroke-opacity:1; fill:none" points="441.992,514.46 460.89,514.46 "/>
<polyline clip-path="url(#clip470)" style="stroke:#000000; stroke-linecap:round; stroke-linejoin:round; stroke-width:4; stroke-opacity:1; fill:none" points="441.992,272.176 460.89,272.176 "/>
<path clip-path="url(#clip470)" d="M334.523 1223.56 Q330.009 1223.56 327.723 1228.02 Q325.466 1232.44 325.466 1241.35 Q325.466 1250.24 327.723 1254.69 Q330.009 1259.12 334.523 1259.12 Q339.065 1259.12 341.322 1254.69 Q343.608 1250.24 343.608 1241.35 Q343.608 1232.44 341.322 1228.02 Q339.065 1223.56 334.523 1223.56 M334.523 1218.93 Q341.785 1218.93 345.605 1224.69 Q349.453 1230.42 349.453 1241.35 Q349.453 1252.26 345.605 1258.02 Q341.785 1263.75 334.523 1263.75 Q327.26 1263.75 323.412 1258.02 Q319.592 1252.26 319.592 1241.35 Q319.592 1230.42 323.412 1224.69 Q327.26 1218.93 334.523 1218.93 Z" fill="#000000" fill-rule="nonzero" fill-opacity="1" /><path clip-path="url(#clip470)" d="M359.725 1255.56 L365.83 1255.56 L365.83 1262.91 L359.725 1262.91 L359.725 1255.56 Z" fill="#000000" fill-rule="nonzero" fill-opacity="1" /><path clip-path="url(#clip470)" d="M391.062 1223.56 Q386.548 1223.56 384.262 1228.02 Q382.005 1232.44 382.005 1241.35 Q382.005 1250.24 384.262 1254.69 Q386.548 1259.12 391.062 1259.12 Q395.605 1259.12 397.861 1254.69 Q400.147 1250.24 400.147 1241.35 Q400.147 1232.44 397.861 1228.02 Q395.605 1223.56 391.062 1223.56 M391.062 1218.93 Q398.324 1218.93 402.144 1224.69 Q405.992 1230.42 405.992 1241.35 Q405.992 1252.26 402.144 1258.02 Q398.324 1263.75 391.062 1263.75 Q383.799 1263.75 379.951 1258.02 Q376.131 1252.26 376.131 1241.35 Q376.131 1230.42 379.951 1224.69 Q383.799 1218.93 391.062 1218.93 Z" fill="#000000" fill-rule="nonzero" fill-opacity="1" /><path clip-path="url(#clip470)" d="M336.056 981.276 Q331.542 981.276 329.257 985.732 Q327 990.159 327 999.071 Q327 1007.95 329.257 1012.41 Q331.542 1016.84 336.056 1016.84 Q340.599 1016.84 342.856 1012.41 Q345.142 1007.95 345.142 999.071 Q345.142 990.159 342.856 985.732 Q340.599 981.276 336.056 981.276 M336.056 976.646 Q343.319 976.646 347.138 982.405 Q350.987 988.134 350.987 999.071 Q350.987 1009.98 347.138 1015.74 Q343.319 1021.47 336.056 1021.47 Q328.794 1021.47 324.945 1015.74 Q321.126 1009.98 321.126 999.071 Q321.126 988.134 324.945 982.405 Q328.794 976.646 336.056 976.646 Z" fill="#000000" fill-rule="nonzero" fill-opacity="1" /><path clip-path="url(#clip470)" d="M361.259 1013.28 L367.364 1013.28 L367.364 1020.63 L361.259 1020.63 L361.259 1013.28 Z" fill="#000000" fill-rule="nonzero" fill-opacity="1" /><path clip-path="url(#clip470)" d="M381.108 1015.71 L390.657 1015.71 L390.657 982.752 L380.269 984.835 L380.269 979.511 L390.599 977.428 L396.444 977.428 L396.444 1015.71 L405.992 1015.71 L405.992 1020.63 L381.108 1020.63 L381.108 1015.71 Z" fill="#000000" fill-rule="nonzero" fill-opacity="1" /><path clip-path="url(#clip470)" d="M336.519 738.992 Q332.005 738.992 329.719 743.448 Q327.463 747.875 327.463 756.787 Q327.463 765.67 329.719 770.126 Q332.005 774.554 336.519 774.554 Q341.062 774.554 343.319 770.126 Q345.605 765.67 345.605 756.787 Q345.605 747.875 343.319 743.448 Q341.062 738.992 336.519 738.992 M336.519 734.363 Q343.782 734.363 347.601 740.121 Q351.45 745.85 351.45 756.787 Q351.45 767.696 347.601 773.454 Q343.782 779.183 336.519 779.183 Q329.257 779.183 325.408 773.454 Q321.589 767.696 321.589 756.787 Q321.589 745.85 325.408 740.121 Q329.257 734.363 336.519 734.363 Z" fill="#000000" fill-rule="nonzero" fill-opacity="1" /><path clip-path="url(#clip470)" d="M361.722 770.994 L367.827 770.994 L367.827 778.344 L361.722 778.344 L361.722 770.994 Z" fill="#000000" fill-rule="nonzero" fill-opacity="1" /><path clip-path="url(#clip470)" d="M385.593 773.425 L405.992 773.425 L405.992 778.344 L378.562 778.344 L378.562 773.425 Q381.889 769.982 387.618 764.195 Q393.377 758.379 394.852 756.701 Q397.659 753.547 398.758 751.377 Q399.887 749.177 399.887 747.065 Q399.887 743.622 397.456 741.452 Q395.055 739.282 391.177 739.282 Q388.429 739.282 385.362 740.237 Q382.323 741.191 378.851 743.13 L378.851 737.227 Q382.381 735.809 385.448 735.086 Q388.515 734.363 391.062 734.363 Q397.775 734.363 401.768 737.719 Q405.761 741.076 405.761 746.689 Q405.761 749.351 404.748 751.753 Q403.764 754.125 401.131 757.366 Q400.408 758.205 396.53 762.227 Q392.653 766.22 385.593 773.425 Z" fill="#000000" fill-rule="nonzero" fill-opacity="1" /><path clip-path="url(#clip470)" d="M335.333 496.709 Q330.819 496.709 328.533 501.165 Q326.276 505.592 326.276 514.504 Q326.276 523.387 328.533 527.843 Q330.819 532.27 335.333 532.27 Q339.876 532.27 342.133 527.843 Q344.418 523.387 344.418 514.504 Q344.418 505.592 342.133 501.165 Q339.876 496.709 335.333 496.709 M335.333 492.079 Q342.596 492.079 346.415 497.837 Q350.263 503.566 350.263 514.504 Q350.263 525.412 346.415 531.17 Q342.596 536.899 335.333 536.899 Q328.07 536.899 324.222 531.17 Q320.402 525.412 320.402 514.504 Q320.402 503.566 324.222 497.837 Q328.07 492.079 335.333 492.079 Z" fill="#000000" fill-rule="nonzero" fill-opacity="1" /><path clip-path="url(#clip470)" d="M360.535 528.711 L366.641 528.711 L366.641 536.06 L360.535 536.06 L360.535 528.711 Z" fill="#000000" fill-rule="nonzero" fill-opacity="1" /><path clip-path="url(#clip470)" d="M397.08 512.768 Q401.276 513.665 403.62 516.5 Q405.992 519.336 405.992 523.502 Q405.992 529.897 401.594 533.398 Q397.196 536.899 389.094 536.899 Q386.374 536.899 383.481 536.35 Q380.616 535.829 377.549 534.758 L377.549 529.116 Q379.98 530.534 382.873 531.257 Q385.767 531.98 388.921 531.98 Q394.418 531.98 397.283 529.81 Q400.176 527.64 400.176 523.502 Q400.176 519.683 397.485 517.542 Q394.823 515.372 390.049 515.372 L385.014 515.372 L385.014 510.568 L390.28 510.568 Q394.592 510.568 396.878 508.861 Q399.164 507.125 399.164 503.884 Q399.164 500.557 396.791 498.792 Q394.447 496.998 390.049 496.998 Q387.647 496.998 384.899 497.519 Q382.15 498.04 378.851 499.139 L378.851 493.931 Q382.179 493.005 385.072 492.542 Q387.995 492.079 390.57 492.079 Q397.225 492.079 401.102 495.117 Q404.979 498.126 404.979 503.277 Q404.979 506.865 402.925 509.353 Q400.871 511.813 397.08 512.768 Z" fill="#000000" fill-rule="nonzero" fill-opacity="1" /><path clip-path="url(#clip470)" d="M333.915 254.425 Q329.401 254.425 327.115 258.881 Q324.858 263.308 324.858 272.22 Q324.858 281.103 327.115 285.559 Q329.401 289.986 333.915 289.986 Q338.458 289.986 340.715 285.559 Q343.001 281.103 343.001 272.22 Q343.001 263.308 340.715 258.881 Q338.458 254.425 333.915 254.425 M333.915 249.795 Q341.178 249.795 344.997 255.553 Q348.846 261.282 348.846 272.22 Q348.846 283.128 344.997 288.886 Q341.178 294.616 333.915 294.616 Q326.652 294.616 322.804 288.886 Q318.985 283.128 318.985 272.22 Q318.985 261.282 322.804 255.553 Q326.652 249.795 333.915 249.795 Z" fill="#000000" fill-rule="nonzero" fill-opacity="1" /><path clip-path="url(#clip470)" d="M359.117 286.427 L365.223 286.427 L365.223 293.776 L359.117 293.776 L359.117 286.427 Z" fill="#000000" fill-rule="nonzero" fill-opacity="1" /><path clip-path="url(#clip470)" d="M394.013 255.669 L379.256 278.73 L394.013 278.73 L394.013 255.669 M392.48 250.576 L399.829 250.576 L399.829 278.73 L405.992 278.73 L405.992 283.591 L399.829 283.591 L399.829 293.776 L394.013 293.776 L394.013 283.591 L374.511 283.591 L374.511 277.949 L392.48 250.576 Z" fill="#000000" fill-rule="nonzero" fill-opacity="1" /><path clip-path="url(#clip470)" d="M226.492 874.811 L244.348 874.811 L244.348 866.726 Q244.348 862.239 242.024 859.788 Q239.701 857.337 235.404 857.337 Q231.139 857.337 228.816 859.788 Q226.492 862.239 226.492 866.726 L226.492 874.811 M221.209 881.24 L221.209 866.726 Q221.209 858.737 224.837 854.663 Q228.434 850.557 235.404 850.557 Q242.438 850.557 246.035 854.663 Q249.631 858.737 249.631 866.726 L249.631 874.811 L268.729 874.811 L268.729 881.24 L221.209 881.24 Z" fill="#000000" fill-rule="nonzero" fill-opacity="1" /><path clip-path="url(#clip470)" d="M238.555 822.676 Q237.982 823.662 237.728 824.84 Q237.441 825.986 237.441 827.386 Q237.441 832.352 240.688 835.025 Q243.902 837.667 249.95 837.667 L268.729 837.667 L268.729 843.555 L233.081 843.555 L233.081 837.667 L238.619 837.667 Q235.372 835.821 233.813 832.861 Q232.221 829.901 232.221 825.668 Q232.221 825.063 232.317 824.331 Q232.38 823.599 232.54 822.708 L238.555 822.676 Z" fill="#000000" fill-rule="nonzero" fill-opacity="1" /><path clip-path="url(#clip470)" d="M237.186 804.151 Q237.186 808.862 240.879 811.599 Q244.539 814.337 250.936 814.337 Q257.334 814.337 261.026 811.631 Q264.686 808.894 264.686 804.151 Q264.686 799.473 260.994 796.735 Q257.302 793.998 250.936 793.998 Q244.603 793.998 240.91 796.735 Q237.186 799.473 237.186 804.151 M232.221 804.151 Q232.221 796.513 237.186 792.152 Q242.152 787.792 250.936 787.792 Q259.689 787.792 264.686 792.152 Q269.652 796.513 269.652 804.151 Q269.652 811.822 264.686 816.183 Q259.689 820.511 250.936 820.511 Q242.152 820.511 237.186 816.183 Q232.221 811.822 232.221 804.151 Z" fill="#000000" fill-rule="nonzero" fill-opacity="1" /><path clip-path="url(#clip470)" d="M250.936 752.494 Q244.475 752.494 240.815 755.167 Q237.123 757.809 237.123 762.456 Q237.123 767.103 240.815 769.777 Q244.475 772.418 250.936 772.418 Q257.398 772.418 261.09 769.777 Q264.75 767.103 264.75 762.456 Q264.75 757.809 261.09 755.167 Q257.398 752.494 250.936 752.494 M238.491 772.418 Q235.309 770.572 233.781 767.771 Q232.221 764.939 232.221 761.024 Q232.221 754.531 237.377 750.489 Q242.534 746.415 250.936 746.415 Q259.339 746.415 264.495 750.489 Q269.652 754.531 269.652 761.024 Q269.652 764.939 268.124 767.771 Q266.564 770.572 263.381 772.418 L268.729 772.418 L268.729 778.307 L219.203 778.307 L219.203 772.418 L238.491 772.418 Z" fill="#000000" fill-rule="nonzero" fill-opacity="1" /><path clip-path="url(#clip470)" d="M250.809 720.506 Q250.809 727.604 252.432 730.341 Q254.056 733.078 257.971 733.078 Q261.09 733.078 262.936 731.041 Q264.75 728.972 264.75 725.44 Q264.75 720.57 261.313 717.642 Q257.843 714.681 252.114 714.681 L250.809 714.681 L250.809 720.506 M248.39 708.825 L268.729 708.825 L268.729 714.681 L263.318 714.681 Q266.564 716.687 268.124 719.679 Q269.652 722.67 269.652 726.999 Q269.652 732.474 266.596 735.72 Q263.509 738.935 258.352 738.935 Q252.337 738.935 249.281 734.924 Q246.226 730.882 246.226 722.893 L246.226 714.681 L245.653 714.681 Q241.611 714.681 239.414 717.355 Q237.186 719.997 237.186 724.803 Q237.186 727.859 237.919 730.755 Q238.651 733.651 240.115 736.325 L234.704 736.325 Q233.463 733.11 232.858 730.086 Q232.221 727.063 232.221 724.198 Q232.221 716.464 236.232 712.644 Q240.242 708.825 248.39 708.825 Z" fill="#000000" fill-rule="nonzero" fill-opacity="1" /><path clip-path="url(#clip470)" d="M250.936 671.172 Q244.475 671.172 240.815 673.845 Q237.123 676.487 237.123 681.134 Q237.123 685.781 240.815 688.455 Q244.475 691.097 250.936 691.097 Q257.398 691.097 261.09 688.455 Q264.75 685.781 264.75 681.134 Q264.75 676.487 261.09 673.845 Q257.398 671.172 250.936 671.172 M238.491 691.097 Q235.309 689.25 233.781 686.45 Q232.221 683.617 232.221 679.702 Q232.221 673.209 237.377 669.167 Q242.534 665.093 250.936 665.093 Q259.339 665.093 264.495 669.167 Q269.652 673.209 269.652 679.702 Q269.652 683.617 268.124 686.45 Q266.564 689.25 263.381 691.097 L268.729 691.097 L268.729 696.985 L219.203 696.985 L219.203 691.097 L238.491 691.097 Z" fill="#000000" fill-rule="nonzero" fill-opacity="1" /><path clip-path="url(#clip470)" d="M233.081 655.385 L233.081 649.528 L268.729 649.528 L268.729 655.385 L233.081 655.385 M219.203 655.385 L219.203 649.528 L226.619 649.528 L226.619 655.385 L219.203 655.385 Z" fill="#000000" fill-rule="nonzero" fill-opacity="1" /><path clip-path="url(#clip470)" d="M219.203 637.274 L219.203 631.418 L268.729 631.418 L268.729 637.274 L219.203 637.274 Z" fill="#000000" fill-rule="nonzero" fill-opacity="1" /><path clip-path="url(#clip470)" d="M233.081 619.164 L233.081 613.308 L268.729 613.308 L268.729 619.164 L233.081 619.164 M219.203 619.164 L219.203 613.308 L226.619 613.308 L226.619 619.164 L219.203 619.164 Z" fill="#000000" fill-rule="nonzero" fill-opacity="1" /><path clip-path="url(#clip470)" d="M222.959 595.261 L233.081 595.261 L233.081 583.198 L237.632 583.198 L237.632 595.261 L256.984 595.261 Q261.344 595.261 262.586 594.083 Q263.827 592.874 263.827 589.213 L263.827 583.198 L268.729 583.198 L268.729 589.213 Q268.729 595.993 266.214 598.571 Q263.668 601.149 256.984 601.149 L237.632 601.149 L237.632 605.446 L233.081 605.446 L233.081 601.149 L222.959 601.149 L222.959 595.261 Z" fill="#000000" fill-rule="nonzero" fill-opacity="1" /><path clip-path="url(#clip470)" d="M272.039 560.663 Q278.404 563.146 280.346 565.501 Q282.288 567.856 282.288 571.803 L282.288 576.482 L277.386 576.482 L277.386 573.045 Q277.386 570.626 276.24 569.289 Q275.094 567.952 270.829 566.329 L268.156 565.278 L233.081 579.697 L233.081 573.49 L260.962 562.35 L233.081 551.21 L233.081 545.004 L272.039 560.663 Z" fill="#000000" fill-rule="nonzero" fill-opacity="1" /><path clip-path="url(#clip470)" d="M915.819 10.0578 L915.819 15.758 Q912.491 14.1666 909.54 13.3853 Q906.589 12.6041 903.84 12.6041 Q899.065 12.6041 896.461 14.4559 Q893.886 16.3078 893.886 19.7221 Q893.886 22.5867 895.593 24.0624 Q897.329 25.5091 902.133 26.4061 L905.663 27.1295 Q912.202 28.3737 915.298 31.5276 Q918.423 34.6526 918.423 39.9188 Q918.423 46.1977 914.198 49.4384 Q910.003 52.6791 901.872 52.6791 Q898.805 52.6791 895.333 51.9847 Q891.89 51.2902 888.186 49.9303 L888.186 43.9118 Q891.745 45.9083 895.159 46.921 Q898.574 47.9338 901.872 47.9338 Q906.878 47.9338 909.598 45.9662 Q912.318 43.9986 912.318 40.3528 Q912.318 37.1699 910.35 35.376 Q908.411 33.582 903.955 32.685 L900.396 31.9906 Q893.857 30.6885 890.935 27.9107 Q888.012 25.133 888.012 20.1851 Q888.012 14.4559 892.034 11.1573 Q896.085 7.85875 903.174 7.85875 Q906.212 7.85875 909.366 8.40852 Q912.52 8.95829 915.819 10.0578 Z" fill="#000000" fill-rule="nonzero" fill-opacity="1" /><path clip-path="url(#clip470)" d="M932.572 10.2314 L932.572 19.4328 L943.539 19.4328 L943.539 23.5705 L932.572 23.5705 L932.572 41.163 Q932.572 45.1271 933.643 46.2555 Q934.742 47.384 938.07 47.384 L943.539 47.384 L943.539 51.84 L938.07 51.84 Q931.907 51.84 929.563 49.5541 Q927.219 47.2393 927.219 41.163 L927.219 23.5705 L923.313 23.5705 L923.313 19.4328 L927.219 19.4328 L927.219 10.2314 L932.572 10.2314 Z" fill="#000000" fill-rule="nonzero" fill-opacity="1" /><path clip-path="url(#clip470)" d="M965.269 35.5496 Q958.816 35.5496 956.328 37.0253 Q953.839 38.501 953.839 42.06 Q953.839 44.8956 955.691 46.5738 Q957.572 48.2231 960.784 48.2231 Q965.211 48.2231 967.873 45.0981 Q970.564 41.9442 970.564 36.7359 L970.564 35.5496 L965.269 35.5496 M975.888 33.3505 L975.888 51.84 L970.564 51.84 L970.564 46.921 Q968.741 49.8724 966.021 51.2902 Q963.301 52.6791 959.366 52.6791 Q954.389 52.6791 951.438 49.9014 Q948.515 47.0947 948.515 42.4072 Q948.515 36.9385 952.161 34.1607 Q955.836 31.3829 963.099 31.3829 L970.564 31.3829 L970.564 30.8621 Q970.564 27.1874 968.133 25.1908 Q965.732 23.1654 961.363 23.1654 Q958.585 23.1654 955.952 23.8309 Q953.319 24.4964 950.888 25.8274 L950.888 20.9085 Q953.811 19.78 956.559 19.2302 Q959.308 18.6515 961.912 18.6515 Q968.944 18.6515 972.416 22.2973 Q975.888 25.9431 975.888 33.3505 Z" fill="#000000" fill-rule="nonzero" fill-opacity="1" /><path clip-path="url(#clip470)" d="M992.121 10.2314 L992.121 19.4328 L1003.09 19.4328 L1003.09 23.5705 L992.121 23.5705 L992.121 41.163 Q992.121 45.1271 993.191 46.2555 Q994.291 47.384 997.618 47.384 L1003.09 47.384 L1003.09 51.84 L997.618 51.84 Q991.455 51.84 989.111 49.5541 Q986.768 47.2393 986.768 41.163 L986.768 23.5705 L982.861 23.5705 L982.861 19.4328 L986.768 19.4328 L986.768 10.2314 L992.121 10.2314 Z" fill="#000000" fill-rule="nonzero" fill-opacity="1" /><path clip-path="url(#clip470)" d="M1010.09 19.4328 L1015.41 19.4328 L1015.41 51.84 L1010.09 51.84 L1010.09 19.4328 M1010.09 6.81709 L1015.41 6.81709 L1015.41 13.559 L1010.09 13.559 L1010.09 6.81709 Z" fill="#000000" fill-rule="nonzero" fill-opacity="1" /><path clip-path="url(#clip470)" d="M1039.11 23.1654 Q1034.83 23.1654 1032.34 26.5218 Q1029.85 29.8494 1029.85 35.6653 Q1029.85 41.4813 1032.31 44.8377 Q1034.8 48.1653 1039.11 48.1653 Q1043.36 48.1653 1045.85 44.8088 Q1048.34 41.4523 1048.34 35.6653 Q1048.34 29.9072 1045.85 26.5508 Q1043.36 23.1654 1039.11 23.1654 M1039.11 18.6515 Q1046.06 18.6515 1050.02 23.1654 Q1053.98 27.6792 1053.98 35.6653 Q1053.98 43.6225 1050.02 48.1653 Q1046.06 52.6791 1039.11 52.6791 Q1032.14 52.6791 1028.17 48.1653 Q1024.24 43.6225 1024.24 35.6653 Q1024.24 27.6792 1028.17 23.1654 Q1032.14 18.6515 1039.11 18.6515 Z" fill="#000000" fill-rule="nonzero" fill-opacity="1" /><path clip-path="url(#clip470)" d="M1089.75 32.2799 L1089.75 51.84 L1084.42 51.84 L1084.42 32.4535 Q1084.42 27.8529 1082.63 25.567 Q1080.84 23.2811 1077.25 23.2811 Q1072.94 23.2811 1070.45 26.03 Q1067.96 28.7788 1067.96 33.5241 L1067.96 51.84 L1062.61 51.84 L1062.61 19.4328 L1067.96 19.4328 L1067.96 24.4675 Q1069.87 21.545 1072.44 20.0983 Q1075.05 18.6515 1078.43 18.6515 Q1084.02 18.6515 1086.88 22.1237 Q1089.75 25.567 1089.75 32.2799 Z" fill="#000000" fill-rule="nonzero" fill-opacity="1" /><path clip-path="url(#clip470)" d="M1115.09 35.5496 Q1108.64 35.5496 1106.15 37.0253 Q1103.67 38.501 1103.67 42.06 Q1103.67 44.8956 1105.52 46.5738 Q1107.4 48.2231 1110.61 48.2231 Q1115.04 48.2231 1117.7 45.0981 Q1120.39 41.9442 1120.39 36.7359 L1120.39 35.5496 L1115.09 35.5496 M1125.71 33.3505 L1125.71 51.84 L1120.39 51.84 L1120.39 46.921 Q1118.57 49.8724 1115.85 51.2902 Q1113.13 52.6791 1109.19 52.6791 Q1104.21 52.6791 1101.26 49.9014 Q1098.34 47.0947 1098.34 42.4072 Q1098.34 36.9385 1101.99 34.1607 Q1105.66 31.3829 1112.92 31.3829 L1120.39 31.3829 L1120.39 30.8621 Q1120.39 27.1874 1117.96 25.1908 Q1115.56 23.1654 1111.19 23.1654 Q1108.41 23.1654 1105.78 23.8309 Q1103.14 24.4964 1100.71 25.8274 L1100.71 20.9085 Q1103.64 19.78 1106.38 19.2302 Q1109.13 18.6515 1111.74 18.6515 Q1118.77 18.6515 1122.24 22.2973 Q1125.71 25.9431 1125.71 33.3505 Z" fill="#000000" fill-rule="nonzero" fill-opacity="1" /><path clip-path="url(#clip470)" d="M1155.46 24.4096 Q1154.56 23.8888 1153.49 23.6573 Q1152.45 23.3969 1151.18 23.3969 Q1146.66 23.3969 1144.23 26.3482 Q1141.83 29.2707 1141.83 34.7683 L1141.83 51.84 L1136.48 51.84 L1136.48 19.4328 L1141.83 19.4328 L1141.83 24.4675 Q1143.51 21.5161 1146.2 20.0983 Q1148.89 18.6515 1152.74 18.6515 Q1153.29 18.6515 1153.95 18.7383 Q1154.62 18.7962 1155.43 18.9409 L1155.46 24.4096 Z" fill="#000000" fill-rule="nonzero" fill-opacity="1" /><path clip-path="url(#clip470)" d="M1174.53 54.8492 Q1172.27 60.6362 1170.13 62.4013 Q1167.99 64.1663 1164.4 64.1663 L1160.15 64.1663 L1160.15 59.7103 L1163.27 59.7103 Q1165.47 59.7103 1166.69 58.6687 Q1167.9 57.627 1169.38 53.7497 L1170.33 51.3192 L1157.22 19.4328 L1162.87 19.4328 L1172.99 44.7799 L1183.12 19.4328 L1188.76 19.4328 L1174.53 54.8492 Z" fill="#000000" fill-rule="nonzero" fill-opacity="1" /><path clip-path="url(#clip470)" d="M1221.03 13.4432 L1221.03 47.0368 L1228.09 47.0368 Q1237.03 47.0368 1241.16 42.9859 Q1245.33 38.935 1245.33 30.1966 Q1245.33 21.5161 1241.16 17.4941 Q1237.03 13.4432 1228.09 13.4432 L1221.03 13.4432 M1215.18 8.64 L1227.19 8.64 Q1239.75 8.64 1245.62 13.8772 Q1251.49 19.0855 1251.49 30.1966 Q1251.49 41.3655 1245.59 46.6028 Q1239.69 51.84 1227.19 51.84 L1215.18 51.84 L1215.18 8.64 Z" fill="#000000" fill-rule="nonzero" fill-opacity="1" /><path clip-path="url(#clip470)" d="M1260.58 19.4328 L1265.9 19.4328 L1265.9 51.84 L1260.58 51.84 L1260.58 19.4328 M1260.58 6.81709 L1265.9 6.81709 L1265.9 13.559 L1260.58 13.559 L1260.58 6.81709 Z" fill="#000000" fill-rule="nonzero" fill-opacity="1" /><path clip-path="url(#clip470)" d="M1297.7 20.3876 L1297.7 25.4223 Q1295.45 24.2649 1293.02 23.6862 Q1290.59 23.1075 1287.98 23.1075 Q1284.02 23.1075 1282.02 24.3228 Q1280.05 25.5381 1280.05 27.9686 Q1280.05 29.8204 1281.47 30.891 Q1282.89 31.9327 1287.17 32.8876 L1288.99 33.2926 Q1294.67 34.5079 1297.04 36.7359 Q1299.44 38.935 1299.44 42.8991 Q1299.44 47.4129 1295.85 50.046 Q1292.29 52.6791 1286.04 52.6791 Q1283.44 52.6791 1280.6 52.1583 Q1277.8 51.6664 1274.67 50.6537 L1274.67 45.156 Q1277.62 46.6896 1280.49 47.4708 Q1283.35 48.2231 1286.16 48.2231 Q1289.92 48.2231 1291.95 46.95 Q1293.97 45.6479 1293.97 43.3042 Q1293.97 41.134 1292.5 39.9766 Q1291.05 38.8192 1286.1 37.7486 L1284.25 37.3146 Q1279.3 36.273 1277.1 34.1318 Q1274.9 31.9616 1274.9 28.2001 Q1274.9 23.6283 1278.14 21.1399 Q1281.38 18.6515 1287.34 18.6515 Q1290.3 18.6515 1292.9 19.0855 Q1295.5 19.5196 1297.7 20.3876 Z" fill="#000000" fill-rule="nonzero" fill-opacity="1" /><path clip-path="url(#clip470)" d="M1313.18 10.2314 L1313.18 19.4328 L1324.15 19.4328 L1324.15 23.5705 L1313.18 23.5705 L1313.18 41.163 Q1313.18 45.1271 1314.25 46.2555 Q1315.35 47.384 1318.68 47.384 L1324.15 47.384 L1324.15 51.84 L1318.68 51.84 Q1312.52 51.84 1310.17 49.5541 Q1307.83 47.2393 1307.83 41.163 L1307.83 23.5705 L1303.92 23.5705 L1303.92 19.4328 L1307.83 19.4328 L1307.83 10.2314 L1313.18 10.2314 Z" fill="#000000" fill-rule="nonzero" fill-opacity="1" /><path clip-path="url(#clip470)" d="M1349.93 24.4096 Q1349.03 23.8888 1347.96 23.6573 Q1346.92 23.3969 1345.65 23.3969 Q1341.13 23.3969 1338.7 26.3482 Q1336.3 29.2707 1336.3 34.7683 L1336.3 51.84 L1330.95 51.84 L1330.95 19.4328 L1336.3 19.4328 L1336.3 24.4675 Q1337.98 21.5161 1340.67 20.0983 Q1343.36 18.6515 1347.21 18.6515 Q1347.76 18.6515 1348.43 18.7383 Q1349.09 18.7962 1349.9 18.9409 L1349.93 24.4096 Z" fill="#000000" fill-rule="nonzero" fill-opacity="1" /><path clip-path="url(#clip470)" d="M1355.52 19.4328 L1360.84 19.4328 L1360.84 51.84 L1355.52 51.84 L1355.52 19.4328 M1355.52 6.81709 L1360.84 6.81709 L1360.84 13.559 L1355.52 13.559 L1355.52 6.81709 Z" fill="#000000" fill-rule="nonzero" fill-opacity="1" /><path clip-path="url(#clip470)" d="M1395.24 35.6653 Q1395.24 29.7915 1392.81 26.464 Q1390.41 23.1075 1386.19 23.1075 Q1381.96 23.1075 1379.53 26.464 Q1377.13 29.7915 1377.13 35.6653 Q1377.13 41.5391 1379.53 44.8956 Q1381.96 48.2231 1386.19 48.2231 Q1390.41 48.2231 1392.81 44.8956 Q1395.24 41.5391 1395.24 35.6653 M1377.13 24.3517 Q1378.81 21.4582 1381.35 20.0693 Q1383.93 18.6515 1387.49 18.6515 Q1393.39 18.6515 1397.07 23.339 Q1400.77 28.0265 1400.77 35.6653 Q1400.77 43.3042 1397.07 47.9916 Q1393.39 52.6791 1387.49 52.6791 Q1383.93 52.6791 1381.35 51.2902 Q1378.81 49.8724 1377.13 46.9789 L1377.13 51.84 L1371.78 51.84 L1371.78 6.81709 L1377.13 6.81709 L1377.13 24.3517 Z" fill="#000000" fill-rule="nonzero" fill-opacity="1" /><path clip-path="url(#clip470)" d="M1409.05 39.0507 L1409.05 19.4328 L1414.37 19.4328 L1414.37 38.8482 Q1414.37 43.4488 1416.16 45.7636 Q1417.96 48.0495 1421.55 48.0495 Q1425.86 48.0495 1428.35 45.3007 Q1430.86 42.5519 1430.86 37.8065 L1430.86 19.4328 L1436.19 19.4328 L1436.19 51.84 L1430.86 51.84 L1430.86 46.8632 Q1428.92 49.8145 1426.35 51.2613 Q1423.8 52.6791 1420.42 52.6791 Q1414.83 52.6791 1411.94 49.2069 Q1409.05 45.7347 1409.05 39.0507 M1422.44 18.6515 L1422.44 18.6515 Z" fill="#000000" fill-rule="nonzero" fill-opacity="1" /><path clip-path="url(#clip470)" d="M1452.42 10.2314 L1452.42 19.4328 L1463.39 19.4328 L1463.39 23.5705 L1452.42 23.5705 L1452.42 41.163 Q1452.42 45.1271 1453.49 46.2555 Q1454.59 47.384 1457.92 47.384 L1463.39 47.384 L1463.39 51.84 L1457.92 51.84 Q1451.75 51.84 1449.41 49.5541 Q1447.07 47.2393 1447.07 41.163 L1447.07 23.5705 L1443.16 23.5705 L1443.16 19.4328 L1447.07 19.4328 L1447.07 10.2314 L1452.42 10.2314 Z" fill="#000000" fill-rule="nonzero" fill-opacity="1" /><path clip-path="url(#clip470)" d="M1470.39 19.4328 L1475.71 19.4328 L1475.71 51.84 L1470.39 51.84 L1470.39 19.4328 M1470.39 6.81709 L1475.71 6.81709 L1475.71 13.559 L1470.39 13.559 L1470.39 6.81709 Z" fill="#000000" fill-rule="nonzero" fill-opacity="1" /><path clip-path="url(#clip470)" d="M1499.41 23.1654 Q1495.13 23.1654 1492.64 26.5218 Q1490.15 29.8494 1490.15 35.6653 Q1490.15 41.4813 1492.61 44.8377 Q1495.1 48.1653 1499.41 48.1653 Q1503.66 48.1653 1506.15 44.8088 Q1508.64 41.4523 1508.64 35.6653 Q1508.64 29.9072 1506.15 26.5508 Q1503.66 23.1654 1499.41 23.1654 M1499.41 18.6515 Q1506.35 18.6515 1510.32 23.1654 Q1514.28 27.6792 1514.28 35.6653 Q1514.28 43.6225 1510.32 48.1653 Q1506.35 52.6791 1499.41 52.6791 Q1492.44 52.6791 1488.47 48.1653 Q1484.54 43.6225 1484.54 35.6653 Q1484.54 27.6792 1488.47 23.1654 Q1492.44 18.6515 1499.41 18.6515 Z" fill="#000000" fill-rule="nonzero" fill-opacity="1" /><path clip-path="url(#clip470)" d="M1550.05 32.2799 L1550.05 51.84 L1544.72 51.84 L1544.72 32.4535 Q1544.72 27.8529 1542.93 25.567 Q1541.13 23.2811 1537.55 23.2811 Q1533.23 23.2811 1530.75 26.03 Q1528.26 28.7788 1528.26 33.5241 L1528.26 51.84 L1522.9 51.84 L1522.9 19.4328 L1528.26 19.4328 L1528.26 24.4675 Q1530.17 21.545 1532.74 20.0983 Q1535.35 18.6515 1538.73 18.6515 Q1544.32 18.6515 1547.18 22.1237 Q1550.05 25.567 1550.05 32.2799 Z" fill="#000000" fill-rule="nonzero" fill-opacity="1" /><path clip-path="url(#clip470)" d="M1576.06 19.4328 L1607.11 19.4328 L1607.11 24.7568 L1603.03 24.7568 L1603.03 44.6641 Q1603.03 46.7474 1603.72 47.6734 Q1604.44 48.5703 1606.04 48.5703 Q1606.47 48.5703 1607.11 48.5125 Q1607.74 48.4257 1607.94 48.3967 L1607.94 52.2451 Q1606.93 52.6212 1605.86 52.7949 Q1604.79 52.9685 1603.72 52.9685 Q1600.25 52.9685 1598.92 51.0877 Q1597.59 49.178 1597.59 44.0854 L1597.59 24.7568 L1585.64 24.7568 L1585.64 51.84 L1580.2 51.84 L1580.2 24.7568 L1576.06 24.7568 L1576.06 19.4328 Z" fill="#000000" fill-rule="nonzero" fill-opacity="1" /><path clip-path="url(#clip470)" d="M1631.32 33.5241 L1684.8 33.5241 L1684.8 37.6908 L1631.32 37.6908 L1631.32 33.5241 Z" fill="#000000" fill-rule="nonzero" fill-opacity="1" /><path clip-path="url(#clip470)" d="M1712.34 8.64 L1718.19 8.64 L1718.19 26.898 L1737.57 8.64 L1745.1 8.64 L1723.66 28.7788 L1746.63 51.84 L1738.93 51.84 L1718.19 31.0357 L1718.19 51.84 L1712.34 51.84 L1712.34 8.64 Z" fill="#000000" fill-rule="nonzero" fill-opacity="1" /><path clip-path="url(#clip470)" d="M1751.67 24.9304 L1788.76 24.9304 L1788.76 29.7915 L1751.67 29.7915 L1751.67 24.9304 M1751.67 36.7359 L1788.76 36.7359 L1788.76 41.6549 L1751.67 41.6549 L1751.67 36.7359 Z" fill="#000000" fill-rule="nonzero" fill-opacity="1" /><path clip-path="url(#clip470)" d="M1819.08 28.5473 Q1823.28 29.4443 1825.62 32.2799 Q1828 35.1156 1828 39.2822 Q1828 45.6768 1823.6 49.178 Q1819.2 52.6791 1811.1 52.6791 Q1808.38 52.6791 1805.48 52.1294 Q1802.62 51.6085 1799.55 50.5379 L1799.55 44.8956 Q1801.98 46.3134 1804.88 47.0368 Q1807.77 47.7602 1810.92 47.7602 Q1816.42 47.7602 1819.29 45.59 Q1822.18 43.4199 1822.18 39.2822 Q1822.18 35.4628 1819.49 33.3216 Q1816.83 31.1515 1812.05 31.1515 L1807.02 31.1515 L1807.02 26.3482 L1812.28 26.3482 Q1816.6 26.3482 1818.88 24.6411 Q1821.17 22.905 1821.17 19.6642 Q1821.17 16.3367 1818.79 14.5717 Q1816.45 12.7777 1812.05 12.7777 Q1809.65 12.7777 1806.9 13.2985 Q1804.15 13.8194 1800.85 14.9189 L1800.85 9.7106 Q1804.18 8.78468 1807.08 8.32171 Q1810 7.85875 1812.57 7.85875 Q1819.23 7.85875 1823.11 10.8969 Q1826.98 13.9062 1826.98 19.0566 Q1826.98 22.6446 1824.93 25.133 Q1822.87 27.5924 1819.08 28.5473 Z" fill="#000000" fill-rule="nonzero" fill-opacity="1" /><path clip-path="url(#clip472)" d="M542.757 800.741 L542.757 1241.31 L1008.61 1241.31 L1008.61 800.741 L542.757 800.741 L542.757 800.741  Z" fill="#4682b4" fill-rule="evenodd" fill-opacity="0.7"/>
<polyline clip-path="url(#clip472)" style="stroke:#000000; stroke-linecap:round; stroke-linejoin:round; stroke-width:4; stroke-opacity:0.7; fill:none" points="542.757,800.741 542.757,1241.31 1008.61,1241.31 1008.61,800.741 542.757,800.741 "/>
<path clip-path="url(#clip472)" d="M1125.08 315.423 L1125.08 1241.31 L1590.93 1241.31 L1590.93 315.423 L1125.08 315.423 L1125.08 315.423  Z" fill="#4682b4" fill-rule="evenodd" fill-opacity="0.7"/>
<polyline clip-path="url(#clip472)" style="stroke:#000000; stroke-linecap:round; stroke-linejoin:round; stroke-width:4; stroke-opacity:0.7; fill:none" points="1125.08,315.423 1125.08,1241.31 1590.93,1241.31 1590.93,315.423 1125.08,315.423 "/>
<path clip-path="url(#clip472)" d="M1707.4 184.932 L1707.4 1241.31 L2173.25 1241.31 L2173.25 184.932 L1707.4 184.932 L1707.4 184.932  Z" fill="#4682b4" fill-rule="evenodd" fill-opacity="0.7"/>
<polyline clip-path="url(#clip472)" style="stroke:#000000; stroke-linecap:round; stroke-linejoin:round; stroke-width:4; stroke-opacity:0.7; fill:none" points="1707.4,184.932 1707.4,1241.31 2173.25,1241.31 2173.25,184.932 1707.4,184.932 "/>
<circle clip-path="url(#clip472)" style="fill:#4682b4; stroke:none; fill-opacity:0" cx="775.685" cy="800.741" r="2"/>
<circle clip-path="url(#clip472)" style="fill:#4682b4; stroke:none; fill-opacity:0" cx="1358" cy="315.423" r="2"/>
<circle clip-path="url(#clip472)" style="fill:#4682b4; stroke:none; fill-opacity:0" cx="1940.32" cy="184.932" r="2"/>
</svg>
