<?xml version="1.0" encoding="utf-8"?>
<svg xmlns="http://www.w3.org/2000/svg" xmlns:xlink="http://www.w3.org/1999/xlink" width="600" height="400" viewBox="0 0 2400 1600">
<defs>
  <clipPath id="clip460">
    <rect x="0" y="0" width="2400" height="1600"/>
  </clipPath>
</defs>
<path clip-path="url(#clip460)" d="M0 1600 L2400 1600 L2400 8.88178e-14 L0 8.88178e-14  Z" fill="#ffffff" fill-rule="evenodd" fill-opacity="1"/>
<defs>
  <clipPath id="clip461">
    <rect x="544" y="0" width="1466" height="1246"/>
  </clipPath>
</defs>
<path clip-path="url(#clip460)" d="M422.114 1241.31 L2274.02 1241.31 L2274.02 184.932 L422.114 184.932  Z" fill="#ffffff" fill-rule="evenodd" fill-opacity="1"/>
<defs>
  <clipPath id="clip462">
    <rect x="422" y="184" width="1853" height="1057"/>
  </clipPath>
</defs>
<polyline clip-path="url(#clip462)" style="stroke:#000000; stroke-linecap:round; stroke-linejoin:round; stroke-width:2; stroke-opacity:0.1; fill:none" points="465.108,1241.31 465.108,184.932 "/>
<polyline clip-path="url(#clip462)" style="stroke:#000000; stroke-linecap:round; stroke-linejoin:round; stroke-width:2; stroke-opacity:0.1; fill:none" points="759.427,1241.31 759.427,184.932 "/>
<polyline clip-path="url(#clip462)" style="stroke:#000000; stroke-linecap:round; stroke-linejoin:round; stroke-width:2; stroke-opacity:0.1; fill:none" points="1053.75,1241.31 1053.75,184.932 "/>
<polyline clip-path="url(#clip462)" style="stroke:#000000; stroke-linecap:round; stroke-linejoin:round; stroke-width:2; stroke-opacity:0.1; fill:none" points="1348.06,1241.31 1348.06,184.932 "/>
<polyline clip-path="url(#clip462)" style="stroke:#000000; stroke-linecap:round; stroke-linejoin:round; stroke-width:2; stroke-opacity:0.1; fill:none" points="1642.38,1241.31 1642.38,184.932 "/>
<polyline clip-path="url(#clip462)" style="stroke:#000000; stroke-linecap:round; stroke-linejoin:round; stroke-width:2; stroke-opacity:0.1; fill:none" points="1936.7,1241.31 1936.7,184.932 "/>
<polyline clip-path="url(#clip462)" style="stroke:#000000; stroke-linecap:round; stroke-linejoin:round; stroke-width:2; stroke-opacity:0.1; fill:none" points="2231.02,1241.31 2231.02,184.932 "/>
<polyline clip-path="url(#clip462)" style="stroke:#000000; stroke-linecap:round; stroke-linejoin:round; stroke-width:2; stroke-opacity:0.1; fill:none" points="422.114,1241.31 2274.02,1241.31 "/>
<polyline clip-path="url(#clip462)" style="stroke:#000000; stroke-linecap:round; stroke-linejoin:round; stroke-width:2; stroke-opacity:0.1; fill:none" points="422.114,1017.6 2274.02,1017.6 "/>
<polyline clip-path="url(#clip462)" style="stroke:#000000; stroke-linecap:round; stroke-linejoin:round; stroke-width:2; stroke-opacity:0.1; fill:none" points="422.114,793.879 2274.02,793.879 "/>
<polyline clip-path="url(#clip462)" style="stroke:#000000; stroke-linecap:round; stroke-linejoin:round; stroke-width:2; stroke-opacity:0.1; fill:none" points="422.114,570.163 2274.02,570.163 "/>
<polyline clip-path="url(#clip462)" style="stroke:#000000; stroke-linecap:round; stroke-linejoin:round; stroke-width:2; stroke-opacity:0.1; fill:none" points="422.114,346.447 2274.02,346.447 "/>
<polyline clip-path="url(#clip460)" style="stroke:#000000; stroke-linecap:round; stroke-linejoin:round; stroke-width:4; stroke-opacity:1; fill:none" points="422.114,1241.31 2274.02,1241.31 "/>
<polyline clip-path="url(#clip460)" style="stroke:#000000; stroke-linecap:round; stroke-linejoin:round; stroke-width:4; stroke-opacity:1; fill:none" points="465.108,1241.31 465.108,1222.41 "/>
<polyline clip-path="url(#clip460)" style="stroke:#000000; stroke-linecap:round; stroke-linejoin:round; stroke-width:4; stroke-opacity:1; fill:none" points="759.427,1241.31 759.427,1222.41 "/>
<polyline clip-path="url(#clip460)" style="stroke:#000000; stroke-linecap:round; stroke-linejoin:round; stroke-width:4; stroke-opacity:1; fill:none" points="1053.75,1241.31 1053.75,1222.41 "/>
<polyline clip-path="url(#clip460)" style="stroke:#000000; stroke-linecap:round; stroke-linejoin:round; stroke-width:4; stroke-opacity:1; fill:none" points="1348.06,1241.31 1348.06,1222.41 "/>
<polyline clip-path="url(#clip460)" style="stroke:#000000; stroke-linecap:round; stroke-linejoin:round; stroke-width:4; stroke-opacity:1; fill:none" points="1642.38,1241.31 1642.38,1222.41 "/>
<polyline clip-path="url(#clip460)" style="stroke:#000000; stroke-linecap:round; stroke-linejoin:round; stroke-width:4; stroke-opacity:1; fill:none" points="1936.7,1241.31 1936.7,1222.41 "/>
<polyline clip-path="url(#clip460)" style="stroke:#000000; stroke-linecap:round; stroke-linejoin:round; stroke-width:4; stroke-opacity:1; fill:none" points="2231.02,1241.31 2231.02,1222.41 "/>
<path clip-path="url(#clip460)" d="M437.461 1275.16 Q432.947 1275.16 430.661 1279.62 Q428.404 1284.04 428.404 1292.95 Q428.404 1301.84 430.661 1306.29 Q432.947 1310.72 437.461 1310.72 Q442.003 1310.72 444.26 1306.29 Q446.546 1301.84 446.546 1292.95 Q446.546 1284.04 444.26 1279.62 Q442.003 1275.16 437.461 1275.16 M437.461 1270.53 Q444.723 1270.53 448.543 1276.29 Q452.391 1282.02 452.391 1292.95 Q452.391 1303.86 448.543 1309.62 Q444.723 1315.35 437.461 1315.35 Q430.198 1315.35 426.349 1309.62 Q422.53 1303.86 422.53 1292.95 Q422.53 1282.02 426.349 1276.29 Q430.198 1270.53 437.461 1270.53 Z" fill="#000000" fill-rule="nonzero" fill-opacity="1" /><path clip-path="url(#clip460)" d="M462.663 1307.16 L468.768 1307.16 L468.768 1314.51 L462.663 1314.51 L462.663 1307.16 Z" fill="#000000" fill-rule="nonzero" fill-opacity="1" /><path clip-path="url(#clip460)" d="M481.558 1271.31 L504.503 1271.31 L504.503 1276.23 L486.91 1276.23 L486.91 1286.82 Q488.184 1286.39 489.457 1286.18 Q490.73 1285.95 492.003 1285.95 Q499.237 1285.95 503.461 1289.92 Q507.686 1293.88 507.686 1300.65 Q507.686 1307.62 503.346 1311.5 Q499.005 1315.35 491.106 1315.35 Q488.386 1315.35 485.551 1314.89 Q482.744 1314.42 479.735 1313.5 L479.735 1307.62 Q482.339 1309.04 485.117 1309.74 Q487.894 1310.43 490.99 1310.43 Q495.996 1310.43 498.919 1307.8 Q501.841 1305.17 501.841 1300.65 Q501.841 1296.14 498.919 1293.5 Q495.996 1290.87 490.99 1290.87 Q488.647 1290.87 486.303 1291.39 Q483.988 1291.91 481.558 1293.01 L481.558 1271.31 Z" fill="#000000" fill-rule="nonzero" fill-opacity="1" /><path clip-path="url(#clip460)" d="M718.368 1309.59 L727.917 1309.59 L727.917 1276.64 L717.529 1278.72 L717.529 1273.39 L727.859 1271.31 L733.704 1271.31 L733.704 1309.59 L743.252 1309.59 L743.252 1314.51 L718.368 1314.51 L718.368 1309.59 Z" fill="#000000" fill-rule="nonzero" fill-opacity="1" /><path clip-path="url(#clip460)" d="M755.058 1307.16 L761.163 1307.16 L761.163 1314.51 L755.058 1314.51 L755.058 1307.16 Z" fill="#000000" fill-rule="nonzero" fill-opacity="1" /><path clip-path="url(#clip460)" d="M786.394 1275.16 Q781.88 1275.16 779.595 1279.62 Q777.338 1284.04 777.338 1292.95 Q777.338 1301.84 779.595 1306.29 Q781.88 1310.72 786.394 1310.72 Q790.937 1310.72 793.194 1306.29 Q795.48 1301.84 795.48 1292.95 Q795.48 1284.04 793.194 1279.62 Q790.937 1275.16 786.394 1275.16 M786.394 1270.53 Q793.657 1270.53 797.476 1276.29 Q801.325 1282.02 801.325 1292.95 Q801.325 1303.86 797.476 1309.62 Q793.657 1315.35 786.394 1315.35 Q779.132 1315.35 775.283 1309.62 Q771.464 1303.86 771.464 1292.95 Q771.464 1282.02 775.283 1276.29 Q779.132 1270.53 786.394 1270.53 Z" fill="#000000" fill-rule="nonzero" fill-opacity="1" /><path clip-path="url(#clip460)" d="M1013.31 1309.59 L1022.86 1309.59 L1022.86 1276.64 L1012.47 1278.72 L1012.47 1273.39 L1022.8 1271.31 L1028.64 1271.31 L1028.64 1309.59 L1038.19 1309.59 L1038.19 1314.51 L1013.31 1314.51 L1013.31 1309.59 Z" fill="#000000" fill-rule="nonzero" fill-opacity="1" /><path clip-path="url(#clip460)" d="M1050 1307.16 L1056.1 1307.16 L1056.1 1314.51 L1050 1314.51 L1050 1307.16 Z" fill="#000000" fill-rule="nonzero" fill-opacity="1" /><path clip-path="url(#clip460)" d="M1068.89 1271.31 L1091.84 1271.31 L1091.84 1276.23 L1074.25 1276.23 L1074.25 1286.82 Q1075.52 1286.39 1076.79 1286.18 Q1078.07 1285.95 1079.34 1285.95 Q1086.57 1285.95 1090.8 1289.92 Q1095.02 1293.88 1095.02 1300.65 Q1095.02 1307.62 1090.68 1311.5 Q1086.34 1315.35 1078.44 1315.35 Q1075.72 1315.35 1072.89 1314.89 Q1070.08 1314.42 1067.07 1313.5 L1067.07 1307.62 Q1069.67 1309.04 1072.45 1309.74 Q1075.23 1310.43 1078.33 1310.43 Q1083.33 1310.43 1086.25 1307.8 Q1089.18 1305.17 1089.18 1300.65 Q1089.18 1296.14 1086.25 1293.5 Q1083.33 1290.87 1078.33 1290.87 Q1075.98 1290.87 1073.64 1291.39 Q1071.32 1291.91 1068.89 1293.01 L1068.89 1271.31 Z" fill="#000000" fill-rule="nonzero" fill-opacity="1" /><path clip-path="url(#clip460)" d="M1312.11 1309.59 L1332.51 1309.59 L1332.51 1314.51 L1305.08 1314.51 L1305.08 1309.59 Q1308.41 1306.15 1314.14 1300.36 Q1319.9 1294.55 1321.37 1292.87 Q1324.18 1289.71 1325.28 1287.54 Q1326.41 1285.34 1326.41 1283.23 Q1326.41 1279.79 1323.98 1277.62 Q1321.57 1275.45 1317.7 1275.45 Q1314.95 1275.45 1311.88 1276.4 Q1308.84 1277.36 1305.37 1279.3 L1305.37 1273.39 Q1308.9 1271.98 1311.97 1271.25 Q1315.04 1270.53 1317.58 1270.53 Q1324.29 1270.53 1328.29 1273.89 Q1332.28 1277.24 1332.28 1282.86 Q1332.28 1285.52 1331.27 1287.92 Q1330.28 1290.29 1327.65 1293.53 Q1326.93 1294.37 1323.05 1298.39 Q1319.17 1302.39 1312.11 1309.59 Z" fill="#000000" fill-rule="nonzero" fill-opacity="1" /><path clip-path="url(#clip460)" d="M1344.78 1307.16 L1350.89 1307.16 L1350.89 1314.51 L1344.78 1314.51 L1344.78 1307.16 Z" fill="#000000" fill-rule="nonzero" fill-opacity="1" /><path clip-path="url(#clip460)" d="M1376.12 1275.16 Q1371.6 1275.16 1369.32 1279.62 Q1367.06 1284.04 1367.06 1292.95 Q1367.06 1301.84 1369.32 1306.29 Q1371.6 1310.72 1376.12 1310.72 Q1380.66 1310.72 1382.92 1306.29 Q1385.2 1301.84 1385.2 1292.95 Q1385.2 1284.04 1382.92 1279.62 Q1380.66 1275.16 1376.12 1275.16 M1376.12 1270.53 Q1383.38 1270.53 1387.2 1276.29 Q1391.05 1282.02 1391.05 1292.95 Q1391.05 1303.86 1387.2 1309.62 Q1383.38 1315.35 1376.12 1315.35 Q1368.85 1315.35 1365.01 1309.62 Q1361.19 1303.86 1361.19 1292.95 Q1361.19 1282.02 1365.01 1276.29 Q1368.85 1270.53 1376.12 1270.53 Z" fill="#000000" fill-rule="nonzero" fill-opacity="1" /><path clip-path="url(#clip460)" d="M1607.05 1309.59 L1627.45 1309.59 L1627.45 1314.51 L1600.02 1314.51 L1600.02 1309.59 Q1603.35 1306.15 1609.08 1300.36 Q1614.84 1294.55 1616.31 1292.87 Q1619.12 1289.71 1620.22 1287.54 Q1621.35 1285.34 1621.35 1283.23 Q1621.35 1279.79 1618.92 1277.62 Q1616.52 1275.45 1612.64 1275.45 Q1609.89 1275.45 1606.82 1276.4 Q1603.78 1277.36 1600.31 1279.3 L1600.31 1273.39 Q1603.84 1271.98 1606.91 1271.25 Q1609.98 1270.53 1612.52 1270.53 Q1619.24 1270.53 1623.23 1273.89 Q1627.22 1277.24 1627.22 1282.86 Q1627.22 1285.52 1626.21 1287.92 Q1625.23 1290.29 1622.59 1293.53 Q1621.87 1294.37 1617.99 1298.39 Q1614.11 1302.39 1607.05 1309.59 Z" fill="#000000" fill-rule="nonzero" fill-opacity="1" /><path clip-path="url(#clip460)" d="M1639.72 1307.16 L1645.83 1307.16 L1645.83 1314.51 L1639.72 1314.51 L1639.72 1307.16 Z" fill="#000000" fill-rule="nonzero" fill-opacity="1" /><path clip-path="url(#clip460)" d="M1658.62 1271.31 L1681.56 1271.31 L1681.56 1276.23 L1663.97 1276.23 L1663.97 1286.82 Q1665.24 1286.39 1666.52 1286.18 Q1667.79 1285.95 1669.06 1285.95 Q1676.3 1285.95 1680.52 1289.92 Q1684.74 1293.88 1684.74 1300.65 Q1684.74 1307.62 1680.4 1311.5 Q1676.06 1315.35 1668.16 1315.35 Q1665.44 1315.35 1662.61 1314.89 Q1659.8 1314.42 1656.79 1313.5 L1656.79 1307.62 Q1659.4 1309.04 1662.18 1309.74 Q1664.95 1310.43 1668.05 1310.43 Q1673.05 1310.43 1675.98 1307.8 Q1678.9 1305.17 1678.9 1300.65 Q1678.9 1296.14 1675.98 1293.5 Q1673.05 1290.87 1668.05 1290.87 Q1665.71 1290.87 1663.36 1291.39 Q1661.05 1291.91 1658.62 1293.01 L1658.62 1271.31 Z" fill="#000000" fill-rule="nonzero" fill-opacity="1" /><path clip-path="url(#clip460)" d="M1913.34 1291.22 Q1917.53 1292.12 1919.88 1294.95 Q1922.25 1297.79 1922.25 1301.95 Q1922.25 1308.35 1917.85 1311.85 Q1913.45 1315.35 1905.35 1315.35 Q1902.63 1315.35 1899.74 1314.8 Q1896.87 1314.28 1893.81 1313.21 L1893.81 1307.57 Q1896.24 1308.98 1899.13 1309.71 Q1902.02 1310.43 1905.18 1310.43 Q1910.68 1310.43 1913.54 1308.26 Q1916.43 1306.09 1916.43 1301.95 Q1916.43 1298.13 1913.74 1295.99 Q1911.08 1293.82 1906.31 1293.82 L1901.27 1293.82 L1901.27 1289.02 L1906.54 1289.02 Q1910.85 1289.02 1913.14 1287.31 Q1915.42 1285.58 1915.42 1282.34 Q1915.42 1279.01 1913.05 1277.24 Q1910.7 1275.45 1906.31 1275.45 Q1903.9 1275.45 1901.16 1275.97 Q1898.41 1276.49 1895.11 1277.59 L1895.11 1272.38 Q1898.44 1271.46 1901.33 1270.99 Q1904.25 1270.53 1906.83 1270.53 Q1913.48 1270.53 1917.36 1273.57 Q1921.24 1276.58 1921.24 1281.73 Q1921.24 1285.32 1919.18 1287.8 Q1917.13 1290.26 1913.34 1291.22 Z" fill="#000000" fill-rule="nonzero" fill-opacity="1" /><path clip-path="url(#clip460)" d="M1933.33 1307.16 L1939.44 1307.16 L1939.44 1314.51 L1933.33 1314.51 L1933.33 1307.16 Z" fill="#000000" fill-rule="nonzero" fill-opacity="1" /><path clip-path="url(#clip460)" d="M1964.67 1275.16 Q1960.15 1275.16 1957.87 1279.62 Q1955.61 1284.04 1955.61 1292.95 Q1955.61 1301.84 1957.87 1306.29 Q1960.15 1310.72 1964.67 1310.72 Q1969.21 1310.72 1971.47 1306.29 Q1973.75 1301.84 1973.75 1292.95 Q1973.75 1284.04 1971.47 1279.62 Q1969.21 1275.16 1964.67 1275.16 M1964.67 1270.53 Q1971.93 1270.53 1975.75 1276.29 Q1979.6 1282.02 1979.6 1292.95 Q1979.6 1303.86 1975.75 1309.62 Q1971.93 1315.35 1964.67 1315.35 Q1957.41 1315.35 1953.56 1309.62 Q1949.74 1303.86 1949.74 1292.95 Q1949.74 1282.02 1953.56 1276.29 Q1957.41 1270.53 1964.67 1270.53 Z" fill="#000000" fill-rule="nonzero" fill-opacity="1" /><path clip-path="url(#clip460)" d="M2208.28 1291.22 Q2212.47 1292.12 2214.82 1294.95 Q2217.19 1297.79 2217.19 1301.95 Q2217.19 1308.35 2212.79 1311.85 Q2208.39 1315.35 2200.29 1315.35 Q2197.57 1315.35 2194.68 1314.8 Q2191.81 1314.28 2188.75 1313.21 L2188.75 1307.57 Q2191.18 1308.98 2194.07 1309.71 Q2196.97 1310.43 2200.12 1310.43 Q2205.62 1310.43 2208.48 1308.26 Q2211.37 1306.09 2211.37 1301.95 Q2211.37 1298.13 2208.68 1295.99 Q2206.02 1293.82 2201.25 1293.82 L2196.21 1293.82 L2196.21 1289.02 L2201.48 1289.02 Q2205.79 1289.02 2208.08 1287.31 Q2210.36 1285.58 2210.36 1282.34 Q2210.36 1279.01 2207.99 1277.24 Q2205.65 1275.45 2201.25 1275.45 Q2198.85 1275.45 2196.1 1275.97 Q2193.35 1276.49 2190.05 1277.59 L2190.05 1272.38 Q2193.38 1271.46 2196.27 1270.99 Q2199.19 1270.53 2201.77 1270.53 Q2208.42 1270.53 2212.3 1273.57 Q2216.18 1276.58 2216.18 1281.73 Q2216.18 1285.32 2214.12 1287.8 Q2212.07 1290.26 2208.28 1291.22 Z" fill="#000000" fill-rule="nonzero" fill-opacity="1" /><path clip-path="url(#clip460)" d="M2228.27 1307.16 L2234.38 1307.16 L2234.38 1314.51 L2228.27 1314.51 L2228.27 1307.16 Z" fill="#000000" fill-rule="nonzero" fill-opacity="1" /><path clip-path="url(#clip460)" d="M2247.17 1271.31 L2270.11 1271.31 L2270.11 1276.23 L2252.52 1276.23 L2252.52 1286.82 Q2253.79 1286.39 2255.07 1286.18 Q2256.34 1285.95 2257.61 1285.95 Q2264.85 1285.95 2269.07 1289.92 Q2273.3 1293.88 2273.3 1300.65 Q2273.3 1307.62 2268.96 1311.5 Q2264.62 1315.35 2256.72 1315.35 Q2254 1315.35 2251.16 1314.89 Q2248.35 1314.42 2245.34 1313.5 L2245.34 1307.62 Q2247.95 1309.04 2250.73 1309.74 Q2253.5 1310.43 2256.6 1310.43 Q2261.61 1310.43 2264.53 1307.8 Q2267.45 1305.17 2267.45 1300.65 Q2267.45 1296.14 2264.53 1293.5 Q2261.61 1290.87 2256.6 1290.87 Q2254.26 1290.87 2251.91 1291.39 Q2249.6 1291.91 2247.17 1293.01 L2247.17 1271.31 Z" fill="#000000" fill-rule="nonzero" fill-opacity="1" /><path clip-path="url(#clip460)" d="M1296.26 1353.18 L1296.26 1359.45 Q1292.6 1357.69 1289.36 1356.84 Q1286.11 1355.98 1283.09 1355.98 Q1277.84 1355.98 1274.97 1358.01 Q1272.14 1360.05 1272.14 1363.81 Q1272.14 1366.96 1274.02 1368.58 Q1275.93 1370.17 1281.21 1371.16 L1285.09 1371.95 Q1292.29 1373.32 1295.69 1376.79 Q1299.13 1380.23 1299.13 1386.02 Q1299.13 1392.93 1294.48 1396.49 Q1289.87 1400.06 1280.92 1400.06 Q1277.55 1400.06 1273.73 1399.29 Q1269.94 1398.53 1265.87 1397.03 L1265.87 1390.41 Q1269.78 1392.61 1273.54 1393.72 Q1277.29 1394.84 1280.92 1394.84 Q1286.43 1394.84 1289.42 1392.67 Q1292.41 1390.51 1292.41 1386.5 Q1292.41 1383 1290.25 1381.03 Q1288.12 1379.05 1283.21 1378.07 L1279.3 1377.3 Q1272.11 1375.87 1268.89 1372.81 Q1265.68 1369.76 1265.68 1364.32 Q1265.68 1358.01 1270.1 1354.38 Q1274.56 1350.76 1282.35 1350.76 Q1285.7 1350.76 1289.17 1351.36 Q1292.64 1351.97 1296.26 1353.18 Z" fill="#000000" fill-rule="nonzero" fill-opacity="1" /><path clip-path="url(#clip460)" d="M1314.69 1353.37 L1314.69 1363.49 L1326.76 1363.49 L1326.76 1368.04 L1314.69 1368.04 L1314.69 1387.39 Q1314.69 1391.75 1315.87 1392.99 Q1317.08 1394.23 1320.74 1394.23 L1326.76 1394.23 L1326.76 1399.14 L1320.74 1399.14 Q1313.96 1399.14 1311.38 1396.62 Q1308.8 1394.07 1308.8 1387.39 L1308.8 1368.04 L1304.51 1368.04 L1304.51 1363.49 L1308.8 1363.49 L1308.8 1353.37 L1314.69 1353.37 Z" fill="#000000" fill-rule="nonzero" fill-opacity="1" /><path clip-path="url(#clip460)" d="M1350.66 1381.22 Q1343.56 1381.22 1340.82 1382.84 Q1338.09 1384.46 1338.09 1388.38 Q1338.09 1391.5 1340.12 1393.34 Q1342.19 1395.16 1345.73 1395.16 Q1350.6 1395.16 1353.52 1391.72 Q1356.48 1388.25 1356.48 1382.52 L1356.48 1381.22 L1350.66 1381.22 M1362.34 1378.8 L1362.34 1399.14 L1356.48 1399.14 L1356.48 1393.72 Q1354.48 1396.97 1351.49 1398.53 Q1348.49 1400.06 1344.17 1400.06 Q1338.69 1400.06 1335.44 1397 Q1332.23 1393.92 1332.23 1388.76 Q1332.23 1382.74 1336.24 1379.69 Q1340.28 1376.63 1348.27 1376.63 L1356.48 1376.63 L1356.48 1376.06 Q1356.48 1372.02 1353.81 1369.82 Q1351.17 1367.59 1346.36 1367.59 Q1343.31 1367.59 1340.41 1368.33 Q1337.51 1369.06 1334.84 1370.52 L1334.84 1365.11 Q1338.05 1363.87 1341.08 1363.26 Q1344.1 1362.63 1346.97 1362.63 Q1354.7 1362.63 1358.52 1366.64 Q1362.34 1370.65 1362.34 1378.8 Z" fill="#000000" fill-rule="nonzero" fill-opacity="1" /><path clip-path="url(#clip460)" d="M1380.2 1353.37 L1380.2 1363.49 L1392.26 1363.49 L1392.26 1368.04 L1380.2 1368.04 L1380.2 1387.39 Q1380.2 1391.75 1381.37 1392.99 Q1382.58 1394.23 1386.24 1394.23 L1392.26 1394.23 L1392.26 1399.14 L1386.24 1399.14 Q1379.46 1399.14 1376.89 1396.62 Q1374.31 1394.07 1374.31 1387.39 L1374.31 1368.04 L1370.01 1368.04 L1370.01 1363.49 L1374.31 1363.49 L1374.31 1353.37 L1380.2 1353.37 Z" fill="#000000" fill-rule="nonzero" fill-opacity="1" /><path clip-path="url(#clip460)" d="M1430.45 1379.85 L1430.45 1382.71 L1403.53 1382.71 Q1403.91 1388.76 1407.15 1391.94 Q1410.43 1395.09 1416.26 1395.09 Q1419.63 1395.09 1422.78 1394.27 Q1425.97 1393.44 1429.08 1391.78 L1429.08 1397.32 Q1425.93 1398.66 1422.62 1399.36 Q1419.31 1400.06 1415.91 1400.06 Q1407.38 1400.06 1402.38 1395.09 Q1397.41 1390.13 1397.41 1381.66 Q1397.41 1372.91 1402.13 1367.78 Q1406.87 1362.63 1414.89 1362.63 Q1422.08 1362.63 1426.25 1367.28 Q1430.45 1371.89 1430.45 1379.85 M1424.6 1378.13 Q1424.53 1373.32 1421.89 1370.46 Q1419.28 1367.59 1414.95 1367.59 Q1410.05 1367.59 1407.09 1370.36 Q1404.16 1373.13 1403.72 1378.16 L1424.6 1378.13 Z" fill="#000000" fill-rule="nonzero" fill-opacity="1" /><polyline clip-path="url(#clip460)" style="stroke:#000000; stroke-linecap:round; stroke-linejoin:round; stroke-width:4; stroke-opacity:1; fill:none" points="422.114,1241.31 422.114,184.932 "/>
<polyline clip-path="url(#clip460)" style="stroke:#000000; stroke-linecap:round; stroke-linejoin:round; stroke-width:4; stroke-opacity:1; fill:none" points="422.114,1241.31 441.011,1241.31 "/>
<polyline clip-path="url(#clip460)" style="stroke:#000000; stroke-linecap:round; stroke-linejoin:round; stroke-width:4; stroke-opacity:1; fill:none" points="422.114,1017.6 441.011,1017.6 "/>
<polyline clip-path="url(#clip460)" style="stroke:#000000; stroke-linecap:round; stroke-linejoin:round; stroke-width:4; stroke-opacity:1; fill:none" points="422.114,793.879 441.011,793.879 "/>
<polyline clip-path="url(#clip460)" style="stroke:#000000; stroke-linecap:round; stroke-linejoin:round; stroke-width:4; stroke-opacity:1; fill:none" points="422.114,570.163 441.011,570.163 "/>
<polyline clip-path="url(#clip460)" style="stroke:#000000; stroke-linecap:round; stroke-linejoin:round; stroke-width:4; stroke-opacity:1; fill:none" points="422.114,346.447 441.011,346.447 "/>
<path clip-path="url(#clip460)" d="M371.183 1223.56 Q366.669 1223.56 364.384 1228.02 Q362.127 1232.44 362.127 1241.35 Q362.127 1250.24 364.384 1254.69 Q366.669 1259.12 371.183 1259.12 Q375.726 1259.12 377.983 1254.69 Q380.269 1250.24 380.269 1241.35 Q380.269 1232.44 377.983 1228.02 Q375.726 1223.56 371.183 1223.56 M371.183 1218.93 Q378.446 1218.93 382.265 1224.69 Q386.114 1230.42 386.114 1241.35 Q386.114 1252.26 382.265 1258.02 Q378.446 1263.75 371.183 1263.75 Q363.921 1263.75 360.072 1258.02 Q356.253 1252.26 356.253 1241.35 Q356.253 1230.42 360.072 1224.69 Q363.921 1218.93 371.183 1218.93 Z" fill="#000000" fill-rule="nonzero" fill-opacity="1" /><path clip-path="url(#clip460)" d="M359.986 995.995 L382.931 995.995 L382.931 1000.91 L365.338 1000.91 L365.338 1011.5 Q366.612 1011.07 367.885 1010.87 Q369.158 1010.64 370.431 1010.64 Q377.665 1010.64 381.889 1014.6 Q386.114 1018.56 386.114 1025.34 Q386.114 1032.31 381.774 1036.19 Q377.433 1040.03 369.534 1040.03 Q366.814 1040.03 363.979 1039.57 Q361.172 1039.11 358.163 1038.18 L358.163 1032.31 Q360.767 1033.73 363.545 1034.42 Q366.322 1035.12 369.418 1035.12 Q374.424 1035.12 377.347 1032.48 Q380.269 1029.85 380.269 1025.34 Q380.269 1020.82 377.347 1018.19 Q374.424 1015.56 369.418 1015.56 Q367.075 1015.56 364.731 1016.08 Q362.416 1016.6 359.986 1017.7 L359.986 995.995 Z" fill="#000000" fill-rule="nonzero" fill-opacity="1" /><path clip-path="url(#clip460)" d="M321.994 810.56 L331.542 810.56 L331.542 777.603 L321.155 779.687 L321.155 774.363 L331.484 772.279 L337.329 772.279 L337.329 810.56 L346.878 810.56 L346.878 815.479 L321.994 815.479 L321.994 810.56 Z" fill="#000000" fill-rule="nonzero" fill-opacity="1" /><path clip-path="url(#clip460)" d="M371.183 776.128 Q366.669 776.128 364.384 780.584 Q362.127 785.011 362.127 793.923 Q362.127 802.806 364.384 807.262 Q366.669 811.689 371.183 811.689 Q375.726 811.689 377.983 807.262 Q380.269 802.806 380.269 793.923 Q380.269 785.011 377.983 780.584 Q375.726 776.128 371.183 776.128 M371.183 771.498 Q378.446 771.498 382.265 777.256 Q386.114 782.985 386.114 793.923 Q386.114 804.831 382.265 810.589 Q378.446 816.318 371.183 816.318 Q363.921 816.318 360.072 810.589 Q356.253 804.831 356.253 793.923 Q356.253 782.985 360.072 777.256 Q363.921 771.498 371.183 771.498 Z" fill="#000000" fill-rule="nonzero" fill-opacity="1" /><path clip-path="url(#clip460)" d="M323.238 586.844 L332.787 586.844 L332.787 553.887 L322.399 555.971 L322.399 550.646 L332.729 548.563 L338.574 548.563 L338.574 586.844 L348.122 586.844 L348.122 591.763 L323.238 591.763 L323.238 586.844 Z" fill="#000000" fill-rule="nonzero" fill-opacity="1" /><path clip-path="url(#clip460)" d="M359.986 548.563 L382.931 548.563 L382.931 553.482 L365.338 553.482 L365.338 564.072 Q366.612 563.638 367.885 563.436 Q369.158 563.204 370.431 563.204 Q377.665 563.204 381.889 567.168 Q386.114 571.132 386.114 577.903 Q386.114 584.877 381.774 588.754 Q377.433 592.602 369.534 592.602 Q366.814 592.602 363.979 592.139 Q361.172 591.676 358.163 590.75 L358.163 584.877 Q360.767 586.294 363.545 586.989 Q366.322 587.683 369.418 587.683 Q374.424 587.683 377.347 585.05 Q380.269 582.417 380.269 577.903 Q380.269 573.389 377.347 570.756 Q374.424 568.123 369.418 568.123 Q367.075 568.123 364.731 568.644 Q362.416 569.165 359.986 570.264 L359.986 548.563 Z" fill="#000000" fill-rule="nonzero" fill-opacity="1" /><path clip-path="url(#clip460)" d="M326.016 363.128 L346.415 363.128 L346.415 368.047 L318.985 368.047 L318.985 363.128 Q322.312 359.685 328.041 353.898 Q333.799 348.082 335.275 346.404 Q338.082 343.25 339.181 341.08 Q340.31 338.881 340.31 336.768 Q340.31 333.325 337.879 331.155 Q335.478 328.985 331.6 328.985 Q328.851 328.985 325.784 329.94 Q322.746 330.894 319.274 332.833 L319.274 326.93 Q322.804 325.513 325.871 324.789 Q328.938 324.066 331.484 324.066 Q338.197 324.066 342.19 327.422 Q346.183 330.779 346.183 336.392 Q346.183 339.054 345.171 341.456 Q344.187 343.828 341.554 347.069 Q340.831 347.908 336.953 351.93 Q333.076 355.923 326.016 363.128 Z" fill="#000000" fill-rule="nonzero" fill-opacity="1" /><path clip-path="url(#clip460)" d="M371.183 328.695 Q366.669 328.695 364.384 333.151 Q362.127 337.578 362.127 346.49 Q362.127 355.374 364.384 359.83 Q366.669 364.257 371.183 364.257 Q375.726 364.257 377.983 359.83 Q380.269 355.374 380.269 346.49 Q380.269 337.578 377.983 333.151 Q375.726 328.695 371.183 328.695 M371.183 324.066 Q378.446 324.066 382.265 329.824 Q386.114 335.553 386.114 346.49 Q386.114 357.399 382.265 363.157 Q378.446 368.886 371.183 368.886 Q363.921 368.886 360.072 363.157 Q356.253 357.399 356.253 346.49 Q356.253 335.553 360.072 329.824 Q363.921 324.066 371.183 324.066 Z" fill="#000000" fill-rule="nonzero" fill-opacity="1" /><path clip-path="url(#clip460)" d="M222.768 769.984 L229.038 769.984 Q227.288 773.644 226.428 776.89 Q225.569 780.137 225.569 783.161 Q225.569 788.412 227.606 791.277 Q229.643 794.11 233.399 794.11 Q236.55 794.11 238.173 792.232 Q239.765 790.322 240.751 785.038 L241.547 781.155 Q242.916 773.962 246.385 770.556 Q249.822 767.119 255.615 767.119 Q262.522 767.119 266.087 771.766 Q269.652 776.381 269.652 785.325 Q269.652 788.699 268.888 792.518 Q268.124 796.306 266.628 800.38 L260.008 800.38 Q262.204 796.465 263.318 792.709 Q264.432 788.953 264.432 785.325 Q264.432 779.819 262.267 776.827 Q260.103 773.835 256.093 773.835 Q252.592 773.835 250.618 775.999 Q248.645 778.132 247.658 783.033 L246.894 786.948 Q245.462 794.141 242.406 797.356 Q239.351 800.571 233.908 800.571 Q227.606 800.571 223.978 796.147 Q220.349 791.691 220.349 783.893 Q220.349 780.551 220.954 777.081 Q221.559 773.612 222.768 769.984 Z" fill="#000000" fill-rule="nonzero" fill-opacity="1" /><path clip-path="url(#clip460)" d="M222.959 751.555 L233.081 751.555 L233.081 739.492 L237.632 739.492 L237.632 751.555 L256.984 751.555 Q261.344 751.555 262.586 750.377 Q263.827 749.168 263.827 745.507 L263.827 739.492 L268.729 739.492 L268.729 745.507 Q268.729 752.287 266.214 754.865 Q263.668 757.443 256.984 757.443 L237.632 757.443 L237.632 761.74 L233.081 761.74 L233.081 757.443 L222.959 757.443 L222.959 751.555 Z" fill="#000000" fill-rule="nonzero" fill-opacity="1" /><path clip-path="url(#clip460)" d="M249.44 701.298 L252.305 701.298 L252.305 728.225 Q258.352 727.843 261.535 724.596 Q264.686 721.318 264.686 715.493 Q264.686 712.119 263.859 708.968 Q263.031 705.785 261.376 702.666 L266.914 702.666 Q268.251 705.817 268.951 709.127 Q269.652 712.438 269.652 715.843 Q269.652 724.373 264.686 729.37 Q259.721 734.336 251.255 734.336 Q242.502 734.336 237.377 729.625 Q232.221 724.883 232.221 716.862 Q232.221 709.668 236.868 705.499 Q241.483 701.298 249.44 701.298 M247.722 707.154 Q242.916 707.218 240.051 709.859 Q237.186 712.469 237.186 716.798 Q237.186 721.7 239.956 724.66 Q242.725 727.588 247.754 728.034 L247.722 707.154 Z" fill="#000000" fill-rule="nonzero" fill-opacity="1" /><path clip-path="url(#clip460)" d="M263.381 686.02 L282.288 686.02 L282.288 691.908 L233.081 691.908 L233.081 686.02 L238.491 686.02 Q235.309 684.174 233.781 681.373 Q232.221 678.54 232.221 674.625 Q232.221 668.132 237.377 664.09 Q242.534 660.016 250.936 660.016 Q259.339 660.016 264.495 664.09 Q269.652 668.132 269.652 674.625 Q269.652 678.54 268.124 681.373 Q266.564 684.174 263.381 686.02 M250.936 666.095 Q244.475 666.095 240.815 668.769 Q237.123 671.411 237.123 676.058 Q237.123 680.705 240.815 683.378 Q244.475 686.02 250.936 686.02 Q257.398 686.02 261.09 683.378 Q264.75 680.705 264.75 676.058 Q264.75 671.411 261.09 668.769 Q257.398 666.095 250.936 666.095 Z" fill="#000000" fill-rule="nonzero" fill-opacity="1" /><path clip-path="url(#clip460)" d="M234.131 627.583 L239.669 627.583 Q238.396 630.065 237.759 632.739 Q237.123 635.413 237.123 638.277 Q237.123 642.638 238.46 644.834 Q239.796 646.998 242.47 646.998 Q244.507 646.998 245.685 645.439 Q246.831 643.879 247.881 639.168 L248.326 637.163 Q249.663 630.925 252.114 628.315 Q254.533 625.673 258.894 625.673 Q263.859 625.673 266.755 629.62 Q269.652 633.535 269.652 640.41 Q269.652 643.274 269.079 646.393 Q268.538 649.481 267.424 652.918 L261.376 652.918 Q263.063 649.672 263.922 646.521 Q264.75 643.37 264.75 640.282 Q264.75 636.145 263.35 633.917 Q261.917 631.689 259.339 631.689 Q256.952 631.689 255.679 633.312 Q254.406 634.903 253.228 640.346 L252.751 642.383 Q251.605 647.826 249.25 650.245 Q246.862 652.664 242.725 652.664 Q237.696 652.664 234.958 649.099 Q232.221 645.534 232.221 638.977 Q232.221 635.731 232.699 632.866 Q233.176 630.002 234.131 627.583 Z" fill="#000000" fill-rule="nonzero" fill-opacity="1" /><path clip-path="url(#clip460)" d="M889.647 8.64 L897.517 8.64 L916.672 44.7799 L916.672 8.64 L922.344 8.64 L922.344 51.84 L914.473 51.84 L895.318 15.7001 L895.318 51.84 L889.647 51.84 L889.647 8.64 Z" fill="#000000" fill-rule="nonzero" fill-opacity="1" /><path clip-path="url(#clip460)" d="M948.472 35.5496 Q942.02 35.5496 939.531 37.0253 Q937.043 38.501 937.043 42.06 Q937.043 44.8956 938.895 46.5738 Q940.775 48.2231 943.987 48.2231 Q948.414 48.2231 951.076 45.0981 Q953.767 41.9442 953.767 36.7359 L953.767 35.5496 L948.472 35.5496 M959.091 33.3505 L959.091 51.84 L953.767 51.84 L953.767 46.921 Q951.944 49.8724 949.224 51.2902 Q946.504 52.6791 942.569 52.6791 Q937.592 52.6791 934.641 49.9014 Q931.719 47.0947 931.719 42.4072 Q931.719 36.9385 935.364 34.1607 Q939.039 31.3829 946.302 31.3829 L953.767 31.3829 L953.767 30.8621 Q953.767 27.1874 951.337 25.1908 Q948.935 23.1654 944.566 23.1654 Q941.788 23.1654 939.155 23.8309 Q936.522 24.4964 934.091 25.8274 L934.091 20.9085 Q937.014 19.78 939.763 19.2302 Q942.511 18.6515 945.116 18.6515 Q952.147 18.6515 955.619 22.2973 Q959.091 25.9431 959.091 33.3505 Z" fill="#000000" fill-rule="nonzero" fill-opacity="1" /><path clip-path="url(#clip460)" d="M975.324 10.2314 L975.324 19.4328 L986.29 19.4328 L986.29 23.5705 L975.324 23.5705 L975.324 41.163 Q975.324 45.1271 976.394 46.2555 Q977.494 47.384 980.821 47.384 L986.29 47.384 L986.29 51.84 L980.821 51.84 Q974.658 51.84 972.314 49.5541 Q969.971 47.2393 969.971 41.163 L969.971 23.5705 L966.065 23.5705 L966.065 19.4328 L969.971 19.4328 L969.971 10.2314 L975.324 10.2314 Z" fill="#000000" fill-rule="nonzero" fill-opacity="1" /><path clip-path="url(#clip460)" d="M992.743 39.0507 L992.743 19.4328 L998.067 19.4328 L998.067 38.8482 Q998.067 43.4488 999.861 45.7636 Q1001.65 48.0495 1005.24 48.0495 Q1009.55 48.0495 1012.04 45.3007 Q1014.56 42.5519 1014.56 37.8065 L1014.56 19.4328 L1019.88 19.4328 L1019.88 51.84 L1014.56 51.84 L1014.56 46.8632 Q1012.62 49.8145 1010.05 51.2613 Q1007.5 52.6791 1004.11 52.6791 Q998.53 52.6791 995.636 49.2069 Q992.743 45.7347 992.743 39.0507 M1006.14 18.6515 L1006.14 18.6515 Z" fill="#000000" fill-rule="nonzero" fill-opacity="1" /><path clip-path="url(#clip460)" d="M1049.63 24.4096 Q1048.73 23.8888 1047.66 23.6573 Q1046.62 23.3969 1045.35 23.3969 Q1040.83 23.3969 1038.4 26.3482 Q1036 29.2707 1036 34.7683 L1036 51.84 L1030.65 51.84 L1030.65 19.4328 L1036 19.4328 L1036 24.4675 Q1037.68 21.5161 1040.37 20.0983 Q1043.06 18.6515 1046.91 18.6515 Q1047.46 18.6515 1048.12 18.7383 Q1048.79 18.7962 1049.6 18.9409 L1049.63 24.4096 Z" fill="#000000" fill-rule="nonzero" fill-opacity="1" /><path clip-path="url(#clip460)" d="M1069.94 35.5496 Q1063.49 35.5496 1061 37.0253 Q1058.51 38.501 1058.51 42.06 Q1058.51 44.8956 1060.36 46.5738 Q1062.24 48.2231 1065.46 48.2231 Q1069.88 48.2231 1072.55 45.0981 Q1075.24 41.9442 1075.24 36.7359 L1075.24 35.5496 L1069.94 35.5496 M1080.56 33.3505 L1080.56 51.84 L1075.24 51.84 L1075.24 46.921 Q1073.41 49.8724 1070.69 51.2902 Q1067.97 52.6791 1064.04 52.6791 Q1059.06 52.6791 1056.11 49.9014 Q1053.19 47.0947 1053.19 42.4072 Q1053.19 36.9385 1056.83 34.1607 Q1060.51 31.3829 1067.77 31.3829 L1075.24 31.3829 L1075.24 30.8621 Q1075.24 27.1874 1072.81 25.1908 Q1070.4 23.1654 1066.04 23.1654 Q1063.26 23.1654 1060.62 23.8309 Q1057.99 24.4964 1055.56 25.8274 L1055.56 20.9085 Q1058.48 19.78 1061.23 19.2302 Q1063.98 18.6515 1066.58 18.6515 Q1073.62 18.6515 1077.09 22.2973 Q1080.56 25.9431 1080.56 33.3505 Z" fill="#000000" fill-rule="nonzero" fill-opacity="1" /><path clip-path="url(#clip460)" d="M1091.53 6.81709 L1096.85 6.81709 L1096.85 51.84 L1091.53 51.84 L1091.53 6.81709 Z" fill="#000000" fill-rule="nonzero" fill-opacity="1" /><path clip-path="url(#clip460)" d="M1147.55 31.5855 Q1149.43 32.222 1151.19 34.3054 Q1152.98 36.3887 1154.78 40.0345 L1160.71 51.84 L1154.43 51.84 L1148.9 40.7579 Q1146.76 36.4176 1144.74 34.9998 Q1142.74 33.582 1139.27 33.582 L1132.9 33.582 L1132.9 51.84 L1127.06 51.84 L1127.06 8.64 L1140.25 8.64 Q1147.66 8.64 1151.31 11.736 Q1154.95 14.8321 1154.95 21.0821 Q1154.95 25.1619 1153.04 27.8529 Q1151.16 30.5438 1147.55 31.5855 M1132.9 13.4432 L1132.9 28.7788 L1140.25 28.7788 Q1144.48 28.7788 1146.62 26.8401 Q1148.79 24.8726 1148.79 21.0821 Q1148.79 17.2916 1146.62 15.3819 Q1144.48 13.4432 1140.25 13.4432 L1132.9 13.4432 Z" fill="#000000" fill-rule="nonzero" fill-opacity="1" /><path clip-path="url(#clip460)" d="M1193.06 34.3054 L1193.06 36.9095 L1168.58 36.9095 Q1168.93 42.4072 1171.88 45.3007 Q1174.86 48.1653 1180.15 48.1653 Q1183.22 48.1653 1186.09 47.4129 Q1188.98 46.6606 1191.82 45.156 L1191.82 50.1907 Q1188.95 51.406 1185.94 52.0425 Q1182.93 52.6791 1179.84 52.6791 Q1172.08 52.6791 1167.54 48.1653 Q1163.03 43.6514 1163.03 35.9547 Q1163.03 27.9975 1167.31 23.339 Q1171.62 18.6515 1178.91 18.6515 Q1185.45 18.6515 1189.24 22.876 Q1193.06 27.0716 1193.06 34.3054 M1187.74 32.7429 Q1187.68 28.3737 1185.28 25.7695 Q1182.9 23.1654 1178.97 23.1654 Q1174.51 23.1654 1171.82 25.6827 Q1169.16 28.2001 1168.75 32.7718 L1187.74 32.7429 Z" fill="#000000" fill-rule="nonzero" fill-opacity="1" /><path clip-path="url(#clip460)" d="M1222.46 20.3876 L1222.46 25.4223 Q1220.2 24.2649 1217.77 23.6862 Q1215.34 23.1075 1212.74 23.1075 Q1208.77 23.1075 1206.78 24.3228 Q1204.81 25.5381 1204.81 27.9686 Q1204.81 29.8204 1206.23 30.891 Q1207.64 31.9327 1211.93 32.8876 L1213.75 33.2926 Q1219.42 34.5079 1221.79 36.7359 Q1224.19 38.935 1224.19 42.8991 Q1224.19 47.4129 1220.61 50.046 Q1217.05 52.6791 1210.8 52.6791 Q1208.19 52.6791 1205.36 52.1583 Q1202.55 51.6664 1199.43 50.6537 L1199.43 45.156 Q1202.38 46.6896 1205.24 47.4708 Q1208.11 48.2231 1210.91 48.2231 Q1214.67 48.2231 1216.7 46.95 Q1218.73 45.6479 1218.73 43.3042 Q1218.73 41.134 1217.25 39.9766 Q1215.8 38.8192 1210.85 37.7486 L1209 37.3146 Q1204.06 36.273 1201.86 34.1318 Q1199.66 31.9616 1199.66 28.2001 Q1199.66 23.6283 1202.9 21.1399 Q1206.14 18.6515 1212.1 18.6515 Q1215.05 18.6515 1217.65 19.0855 Q1220.26 19.5196 1222.46 20.3876 Z" fill="#000000" fill-rule="nonzero" fill-opacity="1" /><path clip-path="url(#clip460)" d="M1232.67 19.4328 L1238 19.4328 L1238 51.84 L1232.67 51.84 L1232.67 19.4328 M1232.67 6.81709 L1238 6.81709 L1238 13.559 L1232.67 13.559 L1232.67 6.81709 Z" fill="#000000" fill-rule="nonzero" fill-opacity="1" /><path clip-path="url(#clip460)" d="M1270.46 24.3517 L1270.46 6.81709 L1275.79 6.81709 L1275.79 51.84 L1270.46 51.84 L1270.46 46.9789 Q1268.78 49.8724 1266.21 51.2902 Q1263.66 52.6791 1260.07 52.6791 Q1254.2 52.6791 1250.5 47.9916 Q1246.82 43.3042 1246.82 35.6653 Q1246.82 28.0265 1250.5 23.339 Q1254.2 18.6515 1260.07 18.6515 Q1263.66 18.6515 1266.21 20.0693 Q1268.78 21.4582 1270.46 24.3517 M1252.32 35.6653 Q1252.32 41.5391 1254.72 44.8956 Q1257.15 48.2231 1261.38 48.2231 Q1265.6 48.2231 1268.03 44.8956 Q1270.46 41.5391 1270.46 35.6653 Q1270.46 29.7915 1268.03 26.464 Q1265.6 23.1075 1261.38 23.1075 Q1257.15 23.1075 1254.72 26.464 Q1252.32 29.7915 1252.32 35.6653 Z" fill="#000000" fill-rule="nonzero" fill-opacity="1" /><path clip-path="url(#clip460)" d="M1314.47 34.3054 L1314.47 36.9095 L1289.99 36.9095 Q1290.34 42.4072 1293.29 45.3007 Q1296.27 48.1653 1301.57 48.1653 Q1304.63 48.1653 1307.5 47.4129 Q1310.39 46.6606 1313.23 45.156 L1313.23 50.1907 Q1310.36 51.406 1307.35 52.0425 Q1304.34 52.6791 1301.25 52.6791 Q1293.49 52.6791 1288.95 48.1653 Q1284.44 43.6514 1284.44 35.9547 Q1284.44 27.9975 1288.72 23.339 Q1293.03 18.6515 1300.32 18.6515 Q1306.86 18.6515 1310.65 22.876 Q1314.47 27.0716 1314.47 34.3054 M1309.15 32.7429 Q1309.09 28.3737 1306.69 25.7695 Q1304.32 23.1654 1300.38 23.1654 Q1295.92 23.1654 1293.23 25.6827 Q1290.57 28.2001 1290.17 32.7718 L1309.15 32.7429 Z" fill="#000000" fill-rule="nonzero" fill-opacity="1" /><path clip-path="url(#clip460)" d="M1350.15 32.2799 L1350.15 51.84 L1344.82 51.84 L1344.82 32.4535 Q1344.82 27.8529 1343.03 25.567 Q1341.24 23.2811 1337.65 23.2811 Q1333.34 23.2811 1330.85 26.03 Q1328.36 28.7788 1328.36 33.5241 L1328.36 51.84 L1323.01 51.84 L1323.01 19.4328 L1328.36 19.4328 L1328.36 24.4675 Q1330.27 21.545 1332.84 20.0983 Q1335.45 18.6515 1338.83 18.6515 Q1344.42 18.6515 1347.28 22.1237 Q1350.15 25.567 1350.15 32.2799 Z" fill="#000000" fill-rule="nonzero" fill-opacity="1" /><path clip-path="url(#clip460)" d="M1384.09 20.677 L1384.09 25.6538 Q1381.83 24.4096 1379.55 23.802 Q1377.29 23.1654 1374.97 23.1654 Q1369.8 23.1654 1366.93 26.464 Q1364.07 29.7336 1364.07 35.6653 Q1364.07 41.597 1366.93 44.8956 Q1369.8 48.1653 1374.97 48.1653 Q1377.29 48.1653 1379.55 47.5576 Q1381.83 46.921 1384.09 45.6768 L1384.09 50.5958 Q1381.86 51.6375 1379.46 52.1583 Q1377.09 52.6791 1374.4 52.6791 Q1367.08 52.6791 1362.76 48.0784 Q1358.45 43.4778 1358.45 35.6653 Q1358.45 27.7371 1362.79 23.1943 Q1367.16 18.6515 1374.74 18.6515 Q1377.2 18.6515 1379.55 19.1724 Q1381.89 19.6642 1384.09 20.677 Z" fill="#000000" fill-rule="nonzero" fill-opacity="1" /><path clip-path="url(#clip460)" d="M1421.07 34.3054 L1421.07 36.9095 L1396.59 36.9095 Q1396.94 42.4072 1399.89 45.3007 Q1402.87 48.1653 1408.16 48.1653 Q1411.23 48.1653 1414.09 47.4129 Q1416.99 46.6606 1419.82 45.156 L1419.82 50.1907 Q1416.96 51.406 1413.95 52.0425 Q1410.94 52.6791 1407.84 52.6791 Q1400.09 52.6791 1395.55 48.1653 Q1391.03 43.6514 1391.03 35.9547 Q1391.03 27.9975 1395.32 23.339 Q1399.63 18.6515 1406.92 18.6515 Q1413.46 18.6515 1417.25 22.876 Q1421.07 27.0716 1421.07 34.3054 M1415.74 32.7429 Q1415.69 28.3737 1413.28 25.7695 Q1410.91 23.1654 1406.98 23.1654 Q1402.52 23.1654 1399.83 25.6827 Q1397.17 28.2001 1396.76 32.7718 L1415.74 32.7429 Z" fill="#000000" fill-rule="nonzero" fill-opacity="1" /><path clip-path="url(#clip460)" d="M1442.88 8.64 L1479.43 8.64 L1479.43 13.559 L1464.09 13.559 L1464.09 51.84 L1458.22 51.84 L1458.22 13.559 L1442.88 13.559 L1442.88 8.64 Z" fill="#000000" fill-rule="nonzero" fill-opacity="1" /><path clip-path="url(#clip460)" d="M1483.02 19.4328 L1488.34 19.4328 L1488.34 51.84 L1483.02 51.84 L1483.02 19.4328 M1483.02 6.81709 L1488.34 6.81709 L1488.34 13.559 L1483.02 13.559 L1483.02 6.81709 Z" fill="#000000" fill-rule="nonzero" fill-opacity="1" /><path clip-path="url(#clip460)" d="M1524.71 25.6538 Q1526.71 22.0659 1529.49 20.3587 Q1532.27 18.6515 1536.03 18.6515 Q1541.09 18.6515 1543.84 22.2105 Q1546.59 25.7406 1546.59 32.2799 L1546.59 51.84 L1541.24 51.84 L1541.24 32.4535 Q1541.24 27.795 1539.59 25.5381 Q1537.94 23.2811 1534.55 23.2811 Q1530.41 23.2811 1528.01 26.03 Q1525.61 28.7788 1525.61 33.5241 L1525.61 51.84 L1520.26 51.84 L1520.26 32.4535 Q1520.26 27.7661 1518.61 25.5381 Q1516.96 23.2811 1513.52 23.2811 Q1509.44 23.2811 1507.03 26.0589 Q1504.63 28.8077 1504.63 33.5241 L1504.63 51.84 L1499.28 51.84 L1499.28 19.4328 L1504.63 19.4328 L1504.63 24.4675 Q1506.46 21.4872 1509 20.0693 Q1511.55 18.6515 1515.05 18.6515 Q1518.58 18.6515 1521.04 20.4455 Q1523.53 22.2395 1524.71 25.6538 Z" fill="#000000" fill-rule="nonzero" fill-opacity="1" /><path clip-path="url(#clip460)" d="M1584.93 34.3054 L1584.93 36.9095 L1560.45 36.9095 Q1560.8 42.4072 1563.75 45.3007 Q1566.73 48.1653 1572.02 48.1653 Q1575.09 48.1653 1577.95 47.4129 Q1580.85 46.6606 1583.68 45.156 L1583.68 50.1907 Q1580.82 51.406 1577.81 52.0425 Q1574.8 52.6791 1571.7 52.6791 Q1563.95 52.6791 1559.41 48.1653 Q1554.89 43.6514 1554.89 35.9547 Q1554.89 27.9975 1559.17 23.339 Q1563.49 18.6515 1570.78 18.6515 Q1577.32 18.6515 1581.11 22.876 Q1584.93 27.0716 1584.93 34.3054 M1579.6 32.7429 Q1579.55 28.3737 1577.14 25.7695 Q1574.77 23.1654 1570.84 23.1654 Q1566.38 23.1654 1563.69 25.6827 Q1561.03 28.2001 1560.62 32.7718 L1579.6 32.7429 Z" fill="#000000" fill-rule="nonzero" fill-opacity="1" /><path clip-path="url(#clip460)" d="M1609.81 33.5241 L1663.28 33.5241 L1663.28 37.6908 L1609.81 37.6908 L1609.81 33.5241 Z" fill="#000000" fill-rule="nonzero" fill-opacity="1" /><path clip-path="url(#clip460)" d="M1690.83 8.64 L1696.67 8.64 L1696.67 26.898 L1716.06 8.64 L1723.58 8.64 L1702.14 28.7788 L1725.12 51.84 L1717.42 51.84 L1696.67 31.0357 L1696.67 51.84 L1690.83 51.84 L1690.83 8.64 Z" fill="#000000" fill-rule="nonzero" fill-opacity="1" /><path clip-path="url(#clip460)" d="M1730.15 24.9304 L1767.25 24.9304 L1767.25 29.7915 L1730.15 29.7915 L1730.15 24.9304 M1730.15 36.7359 L1767.25 36.7359 L1767.25 41.6549 L1730.15 41.6549 L1730.15 36.7359 Z" fill="#000000" fill-rule="nonzero" fill-opacity="1" /><path clip-path="url(#clip460)" d="M1797.57 28.5473 Q1801.77 29.4443 1804.11 32.2799 Q1806.48 35.1156 1806.48 39.2822 Q1806.48 45.6768 1802.08 49.178 Q1797.69 52.6791 1789.58 52.6791 Q1786.86 52.6791 1783.97 52.1294 Q1781.11 51.6085 1778.04 50.5379 L1778.04 44.8956 Q1780.47 46.3134 1783.36 47.0368 Q1786.26 47.7602 1789.41 47.7602 Q1794.91 47.7602 1797.77 45.59 Q1800.67 43.4199 1800.67 39.2822 Q1800.67 35.4628 1797.98 33.3216 Q1795.31 31.1515 1790.54 31.1515 L1785.5 31.1515 L1785.5 26.3482 L1790.77 26.3482 Q1795.08 26.3482 1797.37 24.6411 Q1799.65 22.905 1799.65 19.6642 Q1799.65 16.3367 1797.28 14.5717 Q1794.94 12.7777 1790.54 12.7777 Q1788.14 12.7777 1785.39 13.2985 Q1782.64 13.8194 1779.34 14.9189 L1779.34 9.7106 Q1782.67 8.78468 1785.56 8.32171 Q1788.48 7.85875 1791.06 7.85875 Q1797.72 7.85875 1801.59 10.8969 Q1805.47 13.9062 1805.47 19.0566 Q1805.47 22.6446 1803.42 25.133 Q1801.36 27.5924 1797.57 28.5473 Z" fill="#000000" fill-rule="nonzero" fill-opacity="1" /><path clip-path="url(#clip462)" d="M523.972 184.932 L523.972 1241.31 L994.882 1241.31 L994.882 184.932 L523.972 184.932 L523.972 184.932  Z" fill="#4682b4" fill-rule="evenodd" fill-opacity="0.7"/>
<polyline clip-path="url(#clip462)" style="stroke:#000000; stroke-linecap:round; stroke-linejoin:round; stroke-width:4; stroke-opacity:0.7; fill:none" points="523.972,184.932 523.972,1241.31 994.882,1241.31 994.882,184.932 523.972,184.932 "/>
<path clip-path="url(#clip462)" d="M1112.61 547.201 L1112.61 1241.31 L1583.52 1241.31 L1583.52 547.201 L1112.61 547.201 L1112.61 547.201  Z" fill="#4682b4" fill-rule="evenodd" fill-opacity="0.7"/>
<polyline clip-path="url(#clip462)" style="stroke:#000000; stroke-linecap:round; stroke-linejoin:round; stroke-width:4; stroke-opacity:0.7; fill:none" points="1112.61,547.201 1112.61,1241.31 1583.52,1241.31 1583.52,547.201 1112.61,547.201 "/>
<path clip-path="url(#clip462)" d="M1701.25 637.998 L1701.25 1241.31 L2172.16 1241.31 L2172.16 637.998 L1701.25 637.998 L1701.25 637.998  Z" fill="#4682b4" fill-rule="evenodd" fill-opacity="0.7"/>
<polyline clip-path="url(#clip462)" style="stroke:#000000; stroke-linecap:round; stroke-linejoin:round; stroke-width:4; stroke-opacity:0.7; fill:none" points="1701.25,637.998 1701.25,1241.31 2172.16,1241.31 2172.16,637.998 1701.25,637.998 "/>
<circle clip-path="url(#clip462)" style="fill:#4682b4; stroke:none; fill-opacity:0" cx="759.427" cy="184.932" r="2"/>
<circle clip-path="url(#clip462)" style="fill:#4682b4; stroke:none; fill-opacity:0" cx="1348.06" cy="547.201" r="2"/>
<circle clip-path="url(#clip462)" style="fill:#4682b4; stroke:none; fill-opacity:0" cx="1936.7" cy="637.998" r="2"/>
</svg>
