<?xml version="1.0" encoding="utf-8"?>
<svg xmlns="http://www.w3.org/2000/svg" xmlns:xlink="http://www.w3.org/1999/xlink" width="600" height="400" viewBox="0 0 2400 1600">
<defs>
  <clipPath id="clip050">
    <rect x="0" y="0" width="2400" height="1600"/>
  </clipPath>
</defs>
<path clip-path="url(#clip050)" d="M0 1600 L2400 1600 L2400 8.88178e-14 L0 8.88178e-14  Z" fill="#ffffff" fill-rule="evenodd" fill-opacity="1"/>
<defs>
  <clipPath id="clip051">
    <rect x="247" y="106" width="2106" height="1318"/>
  </clipPath>
</defs>
<path clip-path="url(#clip050)" d="M249.542 1423.18 L2352.76 1423.18 L2352.76 106.192 L249.542 106.192  Z" fill="#ffffff" fill-rule="evenodd" fill-opacity="1"/>
<defs>
  <clipPath id="clip052">
    <rect x="249" y="106" width="2104" height="1318"/>
  </clipPath>
</defs>
<polyline clip-path="url(#clip052)" style="stroke:#000000; stroke-linecap:round; stroke-linejoin:round; stroke-width:2; stroke-opacity:0.1; fill:none" points="302.126,1423.18 302.126,106.192 "/>
<polyline clip-path="url(#clip052)" style="stroke:#000000; stroke-linecap:round; stroke-linejoin:round; stroke-width:2; stroke-opacity:0.1; fill:none" points="827.928,1423.18 827.928,106.192 "/>
<polyline clip-path="url(#clip052)" style="stroke:#000000; stroke-linecap:round; stroke-linejoin:round; stroke-width:2; stroke-opacity:0.1; fill:none" points="1353.73,1423.18 1353.73,106.192 "/>
<polyline clip-path="url(#clip052)" style="stroke:#000000; stroke-linecap:round; stroke-linejoin:round; stroke-width:2; stroke-opacity:0.1; fill:none" points="1879.53,1423.18 1879.53,106.192 "/>
<polyline clip-path="url(#clip052)" style="stroke:#000000; stroke-linecap:round; stroke-linejoin:round; stroke-width:2; stroke-opacity:0.1; fill:none" points="249.542,1423.18 2352.76,1423.18 "/>
<polyline clip-path="url(#clip052)" style="stroke:#000000; stroke-linecap:round; stroke-linejoin:round; stroke-width:2; stroke-opacity:0.1; fill:none" points="249.542,1200.4 2352.76,1200.4 "/>
<polyline clip-path="url(#clip052)" style="stroke:#000000; stroke-linecap:round; stroke-linejoin:round; stroke-width:2; stroke-opacity:0.1; fill:none" points="249.542,977.625 2352.76,977.625 "/>
<polyline clip-path="url(#clip052)" style="stroke:#000000; stroke-linecap:round; stroke-linejoin:round; stroke-width:2; stroke-opacity:0.1; fill:none" points="249.542,754.848 2352.76,754.848 "/>
<polyline clip-path="url(#clip052)" style="stroke:#000000; stroke-linecap:round; stroke-linejoin:round; stroke-width:2; stroke-opacity:0.1; fill:none" points="249.542,532.071 2352.76,532.071 "/>
<polyline clip-path="url(#clip052)" style="stroke:#000000; stroke-linecap:round; stroke-linejoin:round; stroke-width:2; stroke-opacity:0.1; fill:none" points="249.542,309.293 2352.76,309.293 "/>
<polyline clip-path="url(#clip050)" style="stroke:#000000; stroke-linecap:round; stroke-linejoin:round; stroke-width:4; stroke-opacity:1; fill:none" points="249.542,1423.18 2352.76,1423.18 "/>
<polyline clip-path="url(#clip050)" style="stroke:#000000; stroke-linecap:round; stroke-linejoin:round; stroke-width:4; stroke-opacity:1; fill:none" points="302.126,1423.18 302.126,1404.28 "/>
<polyline clip-path="url(#clip050)" style="stroke:#000000; stroke-linecap:round; stroke-linejoin:round; stroke-width:4; stroke-opacity:1; fill:none" points="827.928,1423.18 827.928,1404.28 "/>
<polyline clip-path="url(#clip050)" style="stroke:#000000; stroke-linecap:round; stroke-linejoin:round; stroke-width:4; stroke-opacity:1; fill:none" points="1353.73,1423.18 1353.73,1404.28 "/>
<polyline clip-path="url(#clip050)" style="stroke:#000000; stroke-linecap:round; stroke-linejoin:round; stroke-width:4; stroke-opacity:1; fill:none" points="1879.53,1423.18 1879.53,1404.28 "/>
<path clip-path="url(#clip050)" d="M302.126 1454.1 Q298.515 1454.1 296.687 1457.66 Q294.881 1461.2 294.881 1468.33 Q294.881 1475.44 296.687 1479.01 Q298.515 1482.55 302.126 1482.55 Q305.761 1482.55 307.566 1479.01 Q309.395 1475.44 309.395 1468.33 Q309.395 1461.2 307.566 1457.66 Q305.761 1454.1 302.126 1454.1 M302.126 1450.39 Q307.937 1450.39 310.992 1455 Q314.071 1459.58 314.071 1468.33 Q314.071 1477.06 310.992 1481.67 Q307.937 1486.25 302.126 1486.25 Q296.316 1486.25 293.238 1481.67 Q290.182 1477.06 290.182 1468.33 Q290.182 1459.58 293.238 1455 Q296.316 1450.39 302.126 1450.39 Z" fill="#000000" fill-rule="nonzero" fill-opacity="1" /><path clip-path="url(#clip050)" d="M818.206 1451.02 L836.562 1451.02 L836.562 1454.96 L822.488 1454.96 L822.488 1463.43 Q823.506 1463.08 824.525 1462.92 Q825.543 1462.73 826.562 1462.73 Q832.349 1462.73 835.729 1465.9 Q839.108 1469.08 839.108 1474.49 Q839.108 1480.07 835.636 1483.17 Q832.164 1486.25 825.844 1486.25 Q823.669 1486.25 821.4 1485.88 Q819.155 1485.51 816.747 1484.77 L816.747 1480.07 Q818.831 1481.2 821.053 1481.76 Q823.275 1482.32 825.752 1482.32 Q829.756 1482.32 832.094 1480.21 Q834.432 1478.1 834.432 1474.49 Q834.432 1470.88 832.094 1468.77 Q829.756 1466.67 825.752 1466.67 Q823.877 1466.67 822.002 1467.08 Q820.15 1467.5 818.206 1468.38 L818.206 1451.02 Z" fill="#000000" fill-rule="nonzero" fill-opacity="1" /><path clip-path="url(#clip050)" d="M1328.42 1481.64 L1336.06 1481.64 L1336.06 1455.28 L1327.75 1456.95 L1327.75 1452.69 L1336.01 1451.02 L1340.69 1451.02 L1340.69 1481.64 L1348.32 1481.64 L1348.32 1485.58 L1328.42 1485.58 L1328.42 1481.64 Z" fill="#000000" fill-rule="nonzero" fill-opacity="1" /><path clip-path="url(#clip050)" d="M1367.77 1454.1 Q1364.16 1454.1 1362.33 1457.66 Q1360.52 1461.2 1360.52 1468.33 Q1360.52 1475.44 1362.33 1479.01 Q1364.16 1482.55 1367.77 1482.55 Q1371.4 1482.55 1373.21 1479.01 Q1375.04 1475.44 1375.04 1468.33 Q1375.04 1461.2 1373.21 1457.66 Q1371.4 1454.1 1367.77 1454.1 M1367.77 1450.39 Q1373.58 1450.39 1376.63 1455 Q1379.71 1459.58 1379.71 1468.33 Q1379.71 1477.06 1376.63 1481.67 Q1373.58 1486.25 1367.77 1486.25 Q1361.96 1486.25 1358.88 1481.67 Q1355.82 1477.06 1355.82 1468.33 Q1355.82 1459.58 1358.88 1455 Q1361.96 1450.39 1367.77 1450.39 Z" fill="#000000" fill-rule="nonzero" fill-opacity="1" /><path clip-path="url(#clip050)" d="M1854.72 1481.64 L1862.35 1481.64 L1862.35 1455.28 L1854.04 1456.95 L1854.04 1452.69 L1862.31 1451.02 L1866.98 1451.02 L1866.98 1481.64 L1874.62 1481.64 L1874.62 1485.58 L1854.72 1485.58 L1854.72 1481.64 Z" fill="#000000" fill-rule="nonzero" fill-opacity="1" /><path clip-path="url(#clip050)" d="M1884.11 1451.02 L1902.47 1451.02 L1902.47 1454.96 L1888.4 1454.96 L1888.4 1463.43 Q1889.41 1463.08 1890.43 1462.92 Q1891.45 1462.73 1892.47 1462.73 Q1898.26 1462.73 1901.64 1465.9 Q1905.02 1469.08 1905.02 1474.49 Q1905.02 1480.07 1901.54 1483.17 Q1898.07 1486.25 1891.75 1486.25 Q1889.58 1486.25 1887.31 1485.88 Q1885.06 1485.51 1882.66 1484.77 L1882.66 1480.07 Q1884.74 1481.2 1886.96 1481.76 Q1889.18 1482.32 1891.66 1482.32 Q1895.66 1482.32 1898 1480.21 Q1900.34 1478.1 1900.34 1474.49 Q1900.34 1470.88 1898 1468.77 Q1895.66 1466.67 1891.66 1466.67 Q1889.79 1466.67 1887.91 1467.08 Q1886.06 1467.5 1884.11 1468.38 L1884.11 1451.02 Z" fill="#000000" fill-rule="nonzero" fill-opacity="1" /><path clip-path="url(#clip050)" d="M1249.35 1522.08 L1249.35 1528.35 Q1245.69 1526.6 1242.44 1525.74 Q1239.19 1524.88 1236.17 1524.88 Q1230.92 1524.88 1228.05 1526.92 Q1225.22 1528.96 1225.22 1532.71 Q1225.22 1535.87 1227.1 1537.49 Q1229.01 1539.08 1234.29 1540.07 L1238.18 1540.86 Q1245.37 1542.23 1248.78 1545.7 Q1252.21 1549.14 1252.21 1554.93 Q1252.21 1561.84 1247.57 1565.4 Q1242.95 1568.97 1234.01 1568.97 Q1230.63 1568.97 1226.81 1568.2 Q1223.03 1567.44 1218.95 1565.94 L1218.95 1559.32 Q1222.87 1561.52 1226.62 1562.63 Q1230.38 1563.75 1234.01 1563.75 Q1239.51 1563.75 1242.5 1561.58 Q1245.5 1559.42 1245.5 1555.41 Q1245.5 1551.91 1243.33 1549.93 Q1241.2 1547.96 1236.3 1546.97 L1232.38 1546.21 Q1225.19 1544.78 1221.98 1541.72 Q1218.76 1538.67 1218.76 1533.22 Q1218.76 1526.92 1223.18 1523.29 Q1227.64 1519.66 1235.44 1519.66 Q1238.78 1519.66 1242.25 1520.27 Q1245.72 1520.87 1249.35 1522.08 Z" fill="#000000" fill-rule="nonzero" fill-opacity="1" /><path clip-path="url(#clip050)" d="M1267.78 1522.27 L1267.78 1532.4 L1279.84 1532.4 L1279.84 1536.95 L1267.78 1536.95 L1267.78 1556.3 Q1267.78 1560.66 1268.95 1561.9 Q1270.16 1563.14 1273.82 1563.14 L1279.84 1563.14 L1279.84 1568.04 L1273.82 1568.04 Q1267.04 1568.04 1264.47 1565.53 Q1261.89 1562.98 1261.89 1556.3 L1261.89 1536.95 L1257.59 1536.95 L1257.59 1532.4 L1261.89 1532.4 L1261.89 1522.27 L1267.78 1522.27 Z" fill="#000000" fill-rule="nonzero" fill-opacity="1" /><path clip-path="url(#clip050)" d="M1303.74 1550.12 Q1296.65 1550.12 1293.91 1551.75 Q1291.17 1553.37 1291.17 1557.29 Q1291.17 1560.4 1293.21 1562.25 Q1295.28 1564.07 1298.81 1564.07 Q1303.68 1564.07 1306.61 1560.63 Q1309.57 1557.16 1309.57 1551.43 L1309.57 1550.12 L1303.74 1550.12 M1315.42 1547.71 L1315.42 1568.04 L1309.57 1568.04 L1309.57 1562.63 Q1307.56 1565.88 1304.57 1567.44 Q1301.58 1568.97 1297.25 1568.97 Q1291.78 1568.97 1288.53 1565.91 Q1285.31 1562.82 1285.31 1557.67 Q1285.31 1551.65 1289.32 1548.6 Q1293.37 1545.54 1301.36 1545.54 L1309.57 1545.54 L1309.57 1544.97 Q1309.57 1540.93 1306.89 1538.73 Q1304.25 1536.5 1299.45 1536.5 Q1296.39 1536.5 1293.49 1537.23 Q1290.6 1537.97 1287.92 1539.43 L1287.92 1534.02 Q1291.14 1532.78 1294.16 1532.17 Q1297.19 1531.54 1300.05 1531.54 Q1307.79 1531.54 1311.6 1535.55 Q1315.42 1539.56 1315.42 1547.71 Z" fill="#000000" fill-rule="nonzero" fill-opacity="1" /><path clip-path="url(#clip050)" d="M1333.28 1522.27 L1333.28 1532.4 L1345.34 1532.4 L1345.34 1536.95 L1333.28 1536.95 L1333.28 1556.3 Q1333.28 1560.66 1334.46 1561.9 Q1335.67 1563.14 1339.33 1563.14 L1345.34 1563.14 L1345.34 1568.04 L1339.33 1568.04 Q1332.55 1568.04 1329.97 1565.53 Q1327.39 1562.98 1327.39 1556.3 L1327.39 1536.95 L1323.09 1536.95 L1323.09 1532.4 L1327.39 1532.4 L1327.39 1522.27 L1333.28 1522.27 Z" fill="#000000" fill-rule="nonzero" fill-opacity="1" /><path clip-path="url(#clip050)" d="M1383.54 1548.76 L1383.54 1551.62 L1356.61 1551.62 Q1356.99 1557.67 1360.24 1560.85 Q1363.52 1564 1369.34 1564 Q1372.72 1564 1375.87 1563.17 Q1379.05 1562.35 1382.17 1560.69 L1382.17 1566.23 Q1379.02 1567.57 1375.71 1568.27 Q1372.4 1568.97 1368.99 1568.97 Q1360.46 1568.97 1355.46 1564 Q1350.5 1559.04 1350.5 1550.57 Q1350.5 1541.82 1355.21 1536.69 Q1359.95 1531.54 1367.97 1531.54 Q1375.17 1531.54 1379.34 1536.18 Q1383.54 1540.8 1383.54 1548.76 M1377.68 1547.04 Q1377.62 1542.23 1374.98 1539.37 Q1372.37 1536.5 1368.04 1536.5 Q1363.14 1536.5 1360.17 1539.27 Q1357.25 1542.04 1356.8 1547.07 L1377.68 1547.04 Z" fill="#000000" fill-rule="nonzero" fill-opacity="1" /><polyline clip-path="url(#clip050)" style="stroke:#000000; stroke-linecap:round; stroke-linejoin:round; stroke-width:4; stroke-opacity:1; fill:none" points="249.542,1423.18 249.542,106.192 "/>
<polyline clip-path="url(#clip050)" style="stroke:#000000; stroke-linecap:round; stroke-linejoin:round; stroke-width:4; stroke-opacity:1; fill:none" points="249.542,1423.18 268.44,1423.18 "/>
<polyline clip-path="url(#clip050)" style="stroke:#000000; stroke-linecap:round; stroke-linejoin:round; stroke-width:4; stroke-opacity:1; fill:none" points="249.542,1200.4 268.44,1200.4 "/>
<polyline clip-path="url(#clip050)" style="stroke:#000000; stroke-linecap:round; stroke-linejoin:round; stroke-width:4; stroke-opacity:1; fill:none" points="249.542,977.625 268.44,977.625 "/>
<polyline clip-path="url(#clip050)" style="stroke:#000000; stroke-linecap:round; stroke-linejoin:round; stroke-width:4; stroke-opacity:1; fill:none" points="249.542,754.848 268.44,754.848 "/>
<polyline clip-path="url(#clip050)" style="stroke:#000000; stroke-linecap:round; stroke-linejoin:round; stroke-width:4; stroke-opacity:1; fill:none" points="249.542,532.071 268.44,532.071 "/>
<polyline clip-path="url(#clip050)" style="stroke:#000000; stroke-linecap:round; stroke-linejoin:round; stroke-width:4; stroke-opacity:1; fill:none" points="249.542,309.293 268.44,309.293 "/>
<path clip-path="url(#clip050)" d="M126.205 1408.98 Q122.593 1408.98 120.765 1412.54 Q118.959 1416.08 118.959 1423.21 Q118.959 1430.32 120.765 1433.89 Q122.593 1437.43 126.205 1437.43 Q129.839 1437.43 131.644 1433.89 Q133.473 1430.32 133.473 1423.21 Q133.473 1416.08 131.644 1412.54 Q129.839 1408.98 126.205 1408.98 M126.205 1405.27 Q132.015 1405.27 135.07 1409.88 Q138.149 1414.46 138.149 1423.21 Q138.149 1431.94 135.07 1436.55 Q132.015 1441.13 126.205 1441.13 Q120.394 1441.13 117.316 1436.55 Q114.26 1431.94 114.26 1423.21 Q114.26 1414.46 117.316 1409.88 Q120.394 1405.27 126.205 1405.27 Z" fill="#000000" fill-rule="nonzero" fill-opacity="1" /><path clip-path="url(#clip050)" d="M146.366 1434.58 L151.251 1434.58 L151.251 1440.46 L146.366 1440.46 L146.366 1434.58 Z" fill="#000000" fill-rule="nonzero" fill-opacity="1" /><path clip-path="url(#clip050)" d="M171.436 1408.98 Q167.825 1408.98 165.996 1412.54 Q164.19 1416.08 164.19 1423.21 Q164.19 1430.32 165.996 1433.89 Q167.825 1437.43 171.436 1437.43 Q175.07 1437.43 176.876 1433.89 Q178.704 1430.32 178.704 1423.21 Q178.704 1416.08 176.876 1412.54 Q175.07 1408.98 171.436 1408.98 M171.436 1405.27 Q177.246 1405.27 180.301 1409.88 Q183.38 1414.46 183.38 1423.21 Q183.38 1431.94 180.301 1436.55 Q177.246 1441.13 171.436 1441.13 Q165.626 1441.13 162.547 1436.55 Q159.491 1431.94 159.491 1423.21 Q159.491 1414.46 162.547 1409.88 Q165.626 1405.27 171.436 1405.27 Z" fill="#000000" fill-rule="nonzero" fill-opacity="1" /><path clip-path="url(#clip050)" d="M201.598 1408.98 Q197.987 1408.98 196.158 1412.54 Q194.352 1416.08 194.352 1423.21 Q194.352 1430.32 196.158 1433.89 Q197.987 1437.43 201.598 1437.43 Q205.232 1437.43 207.037 1433.89 Q208.866 1430.32 208.866 1423.21 Q208.866 1416.08 207.037 1412.54 Q205.232 1408.98 201.598 1408.98 M201.598 1405.27 Q207.408 1405.27 210.463 1409.88 Q213.542 1414.46 213.542 1423.21 Q213.542 1431.94 210.463 1436.55 Q207.408 1441.13 201.598 1441.13 Q195.787 1441.13 192.709 1436.55 Q189.653 1431.94 189.653 1423.21 Q189.653 1414.46 192.709 1409.88 Q195.787 1405.27 201.598 1405.27 Z" fill="#000000" fill-rule="nonzero" fill-opacity="1" /><path clip-path="url(#clip050)" d="M127.2 1186.2 Q123.589 1186.2 121.76 1189.77 Q119.955 1193.31 119.955 1200.44 Q119.955 1207.54 121.76 1211.11 Q123.589 1214.65 127.2 1214.65 Q130.834 1214.65 132.64 1211.11 Q134.468 1207.54 134.468 1200.44 Q134.468 1193.31 132.64 1189.77 Q130.834 1186.2 127.2 1186.2 M127.2 1182.5 Q133.01 1182.5 136.066 1187.1 Q139.144 1191.69 139.144 1200.44 Q139.144 1209.16 136.066 1213.77 Q133.01 1218.35 127.2 1218.35 Q121.39 1218.35 118.311 1213.77 Q115.256 1209.16 115.256 1200.44 Q115.256 1191.69 118.311 1187.1 Q121.39 1182.5 127.2 1182.5 Z" fill="#000000" fill-rule="nonzero" fill-opacity="1" /><path clip-path="url(#clip050)" d="M147.362 1211.8 L152.246 1211.8 L152.246 1217.68 L147.362 1217.68 L147.362 1211.8 Z" fill="#000000" fill-rule="nonzero" fill-opacity="1" /><path clip-path="url(#clip050)" d="M172.431 1186.2 Q168.82 1186.2 166.991 1189.77 Q165.186 1193.31 165.186 1200.44 Q165.186 1207.54 166.991 1211.11 Q168.82 1214.65 172.431 1214.65 Q176.065 1214.65 177.871 1211.11 Q179.7 1207.54 179.7 1200.44 Q179.7 1193.31 177.871 1189.77 Q176.065 1186.2 172.431 1186.2 M172.431 1182.5 Q178.241 1182.5 181.297 1187.1 Q184.376 1191.69 184.376 1200.44 Q184.376 1209.16 181.297 1213.77 Q178.241 1218.35 172.431 1218.35 Q166.621 1218.35 163.542 1213.77 Q160.487 1209.16 160.487 1200.44 Q160.487 1191.69 163.542 1187.1 Q166.621 1182.5 172.431 1182.5 Z" fill="#000000" fill-rule="nonzero" fill-opacity="1" /><path clip-path="url(#clip050)" d="M192.639 1183.12 L210.996 1183.12 L210.996 1187.06 L196.922 1187.06 L196.922 1195.53 Q197.94 1195.18 198.959 1195.02 Q199.977 1194.84 200.996 1194.84 Q206.783 1194.84 210.162 1198.01 Q213.542 1201.18 213.542 1206.59 Q213.542 1212.17 210.07 1215.28 Q206.598 1218.35 200.278 1218.35 Q198.102 1218.35 195.834 1217.98 Q193.588 1217.61 191.181 1216.87 L191.181 1212.17 Q193.264 1213.31 195.487 1213.86 Q197.709 1214.42 200.186 1214.42 Q204.19 1214.42 206.528 1212.31 Q208.866 1210.21 208.866 1206.59 Q208.866 1202.98 206.528 1200.88 Q204.19 1198.77 200.186 1198.77 Q198.311 1198.77 196.436 1199.19 Q194.584 1199.6 192.639 1200.48 L192.639 1183.12 Z" fill="#000000" fill-rule="nonzero" fill-opacity="1" /><path clip-path="url(#clip050)" d="M126.205 963.424 Q122.593 963.424 120.765 966.989 Q118.959 970.53 118.959 977.66 Q118.959 984.766 120.765 988.331 Q122.593 991.873 126.205 991.873 Q129.839 991.873 131.644 988.331 Q133.473 984.766 133.473 977.66 Q133.473 970.53 131.644 966.989 Q129.839 963.424 126.205 963.424 M126.205 959.72 Q132.015 959.72 135.07 964.327 Q138.149 968.91 138.149 977.66 Q138.149 986.387 135.07 990.993 Q132.015 995.577 126.205 995.577 Q120.394 995.577 117.316 990.993 Q114.26 986.387 114.26 977.66 Q114.26 968.91 117.316 964.327 Q120.394 959.72 126.205 959.72 Z" fill="#000000" fill-rule="nonzero" fill-opacity="1" /><path clip-path="url(#clip050)" d="M146.366 989.026 L151.251 989.026 L151.251 994.905 L146.366 994.905 L146.366 989.026 Z" fill="#000000" fill-rule="nonzero" fill-opacity="1" /><path clip-path="url(#clip050)" d="M162.246 990.97 L169.885 990.97 L169.885 964.604 L161.575 966.271 L161.575 962.012 L169.839 960.345 L174.514 960.345 L174.514 990.97 L182.153 990.97 L182.153 994.905 L162.246 994.905 L162.246 990.97 Z" fill="#000000" fill-rule="nonzero" fill-opacity="1" /><path clip-path="url(#clip050)" d="M201.598 963.424 Q197.987 963.424 196.158 966.989 Q194.352 970.53 194.352 977.66 Q194.352 984.766 196.158 988.331 Q197.987 991.873 201.598 991.873 Q205.232 991.873 207.037 988.331 Q208.866 984.766 208.866 977.66 Q208.866 970.53 207.037 966.989 Q205.232 963.424 201.598 963.424 M201.598 959.72 Q207.408 959.72 210.463 964.327 Q213.542 968.91 213.542 977.66 Q213.542 986.387 210.463 990.993 Q207.408 995.577 201.598 995.577 Q195.787 995.577 192.709 990.993 Q189.653 986.387 189.653 977.66 Q189.653 968.91 192.709 964.327 Q195.787 959.72 201.598 959.72 Z" fill="#000000" fill-rule="nonzero" fill-opacity="1" /><path clip-path="url(#clip050)" d="M127.2 740.647 Q123.589 740.647 121.76 744.211 Q119.955 747.753 119.955 754.883 Q119.955 761.989 121.76 765.554 Q123.589 769.096 127.2 769.096 Q130.834 769.096 132.64 765.554 Q134.468 761.989 134.468 754.883 Q134.468 747.753 132.64 744.211 Q130.834 740.647 127.2 740.647 M127.2 736.943 Q133.01 736.943 136.066 741.549 Q139.144 746.133 139.144 754.883 Q139.144 763.609 136.066 768.216 Q133.01 772.799 127.2 772.799 Q121.39 772.799 118.311 768.216 Q115.256 763.609 115.256 754.883 Q115.256 746.133 118.311 741.549 Q121.39 736.943 127.2 736.943 Z" fill="#000000" fill-rule="nonzero" fill-opacity="1" /><path clip-path="url(#clip050)" d="M147.362 766.248 L152.246 766.248 L152.246 772.128 L147.362 772.128 L147.362 766.248 Z" fill="#000000" fill-rule="nonzero" fill-opacity="1" /><path clip-path="url(#clip050)" d="M163.241 768.193 L170.88 768.193 L170.88 741.827 L162.57 743.494 L162.57 739.235 L170.834 737.568 L175.51 737.568 L175.51 768.193 L183.149 768.193 L183.149 772.128 L163.241 772.128 L163.241 768.193 Z" fill="#000000" fill-rule="nonzero" fill-opacity="1" /><path clip-path="url(#clip050)" d="M192.639 737.568 L210.996 737.568 L210.996 741.503 L196.922 741.503 L196.922 749.975 Q197.94 749.628 198.959 749.466 Q199.977 749.281 200.996 749.281 Q206.783 749.281 210.162 752.452 Q213.542 755.623 213.542 761.04 Q213.542 766.619 210.07 769.721 Q206.598 772.799 200.278 772.799 Q198.102 772.799 195.834 772.429 Q193.588 772.059 191.181 771.318 L191.181 766.619 Q193.264 767.753 195.487 768.309 Q197.709 768.864 200.186 768.864 Q204.19 768.864 206.528 766.758 Q208.866 764.651 208.866 761.04 Q208.866 757.429 206.528 755.322 Q204.19 753.216 200.186 753.216 Q198.311 753.216 196.436 753.633 Q194.584 754.049 192.639 754.929 L192.639 737.568 Z" fill="#000000" fill-rule="nonzero" fill-opacity="1" /><path clip-path="url(#clip050)" d="M126.205 517.869 Q122.593 517.869 120.765 521.434 Q118.959 524.976 118.959 532.105 Q118.959 539.212 120.765 542.777 Q122.593 546.318 126.205 546.318 Q129.839 546.318 131.644 542.777 Q133.473 539.212 133.473 532.105 Q133.473 524.976 131.644 521.434 Q129.839 517.869 126.205 517.869 M126.205 514.166 Q132.015 514.166 135.07 518.772 Q138.149 523.355 138.149 532.105 Q138.149 540.832 135.07 545.439 Q132.015 550.022 126.205 550.022 Q120.394 550.022 117.316 545.439 Q114.26 540.832 114.26 532.105 Q114.26 523.355 117.316 518.772 Q120.394 514.166 126.205 514.166 Z" fill="#000000" fill-rule="nonzero" fill-opacity="1" /><path clip-path="url(#clip050)" d="M146.366 543.471 L151.251 543.471 L151.251 549.351 L146.366 549.351 L146.366 543.471 Z" fill="#000000" fill-rule="nonzero" fill-opacity="1" /><path clip-path="url(#clip050)" d="M165.464 545.416 L181.783 545.416 L181.783 549.351 L159.839 549.351 L159.839 545.416 Q162.501 542.661 167.084 538.031 Q171.69 533.379 172.871 532.036 Q175.116 529.513 175.996 527.777 Q176.899 526.017 176.899 524.328 Q176.899 521.573 174.954 519.837 Q173.033 518.101 169.931 518.101 Q167.732 518.101 165.278 518.865 Q162.848 519.629 160.07 521.18 L160.07 516.457 Q162.894 515.323 165.348 514.744 Q167.802 514.166 169.839 514.166 Q175.209 514.166 178.403 516.851 Q181.598 519.536 181.598 524.027 Q181.598 526.156 180.788 528.078 Q180.001 529.976 177.894 532.568 Q177.315 533.24 174.214 536.457 Q171.112 539.652 165.464 545.416 Z" fill="#000000" fill-rule="nonzero" fill-opacity="1" /><path clip-path="url(#clip050)" d="M201.598 517.869 Q197.987 517.869 196.158 521.434 Q194.352 524.976 194.352 532.105 Q194.352 539.212 196.158 542.777 Q197.987 546.318 201.598 546.318 Q205.232 546.318 207.037 542.777 Q208.866 539.212 208.866 532.105 Q208.866 524.976 207.037 521.434 Q205.232 517.869 201.598 517.869 M201.598 514.166 Q207.408 514.166 210.463 518.772 Q213.542 523.355 213.542 532.105 Q213.542 540.832 210.463 545.439 Q207.408 550.022 201.598 550.022 Q195.787 550.022 192.709 545.439 Q189.653 540.832 189.653 532.105 Q189.653 523.355 192.709 518.772 Q195.787 514.166 201.598 514.166 Z" fill="#000000" fill-rule="nonzero" fill-opacity="1" /><path clip-path="url(#clip050)" d="M127.2 295.092 Q123.589 295.092 121.76 298.657 Q119.955 302.199 119.955 309.328 Q119.955 316.435 121.76 319.999 Q123.589 323.541 127.2 323.541 Q130.834 323.541 132.64 319.999 Q134.468 316.435 134.468 309.328 Q134.468 302.199 132.64 298.657 Q130.834 295.092 127.2 295.092 M127.2 291.388 Q133.01 291.388 136.066 295.995 Q139.144 300.578 139.144 309.328 Q139.144 318.055 136.066 322.661 Q133.01 327.245 127.2 327.245 Q121.39 327.245 118.311 322.661 Q115.256 318.055 115.256 309.328 Q115.256 300.578 118.311 295.995 Q121.39 291.388 127.2 291.388 Z" fill="#000000" fill-rule="nonzero" fill-opacity="1" /><path clip-path="url(#clip050)" d="M147.362 320.694 L152.246 320.694 L152.246 326.573 L147.362 326.573 L147.362 320.694 Z" fill="#000000" fill-rule="nonzero" fill-opacity="1" /><path clip-path="url(#clip050)" d="M166.459 322.638 L182.778 322.638 L182.778 326.573 L160.834 326.573 L160.834 322.638 Q163.496 319.884 168.079 315.254 Q172.686 310.601 173.866 309.259 Q176.112 306.736 176.991 304.999 Q177.894 303.24 177.894 301.55 Q177.894 298.796 175.95 297.06 Q174.028 295.324 170.927 295.324 Q168.727 295.324 166.274 296.087 Q163.843 296.851 161.065 298.402 L161.065 293.68 Q163.89 292.546 166.343 291.967 Q168.797 291.388 170.834 291.388 Q176.204 291.388 179.399 294.074 Q182.593 296.759 182.593 301.249 Q182.593 303.379 181.783 305.3 Q180.996 307.198 178.889 309.791 Q178.311 310.462 175.209 313.68 Q172.107 316.874 166.459 322.638 Z" fill="#000000" fill-rule="nonzero" fill-opacity="1" /><path clip-path="url(#clip050)" d="M192.639 292.013 L210.996 292.013 L210.996 295.949 L196.922 295.949 L196.922 304.421 Q197.94 304.073 198.959 303.911 Q199.977 303.726 200.996 303.726 Q206.783 303.726 210.162 306.898 Q213.542 310.069 213.542 315.485 Q213.542 321.064 210.07 324.166 Q206.598 327.245 200.278 327.245 Q198.102 327.245 195.834 326.874 Q193.588 326.504 191.181 325.763 L191.181 321.064 Q193.264 322.198 195.487 322.754 Q197.709 323.309 200.186 323.309 Q204.19 323.309 206.528 321.203 Q208.866 319.097 208.866 315.485 Q208.866 311.874 206.528 309.768 Q204.19 307.661 200.186 307.661 Q198.311 307.661 196.436 308.078 Q194.584 308.495 192.639 309.374 L192.639 292.013 Z" fill="#000000" fill-rule="nonzero" fill-opacity="1" /><path clip-path="url(#clip050)" d="M21.7677 926.375 L39.6235 926.375 L39.6235 918.29 Q39.6235 913.803 37.3 911.352 Q34.9765 908.901 30.6797 908.901 Q26.4147 908.901 24.0912 911.352 Q21.7677 913.803 21.7677 918.29 L21.7677 926.375 M16.4842 932.804 L16.4842 918.29 Q16.4842 910.302 20.1126 906.227 Q23.7092 902.122 30.6797 902.122 Q37.7138 902.122 41.3104 906.227 Q44.907 910.302 44.907 918.29 L44.907 926.375 L64.0042 926.375 L64.0042 932.804 L16.4842 932.804 Z" fill="#000000" fill-rule="nonzero" fill-opacity="1" /><path clip-path="url(#clip050)" d="M33.8307 874.24 Q33.2578 875.226 33.0032 876.404 Q32.7167 877.55 32.7167 878.95 Q32.7167 883.916 35.9632 886.589 Q39.1779 889.231 45.2253 889.231 L64.0042 889.231 L64.0042 895.119 L28.3562 895.119 L28.3562 889.231 L33.8944 889.231 Q30.6479 887.385 29.0883 884.425 Q27.4968 881.465 27.4968 877.232 Q27.4968 876.627 27.5923 875.895 Q27.656 875.163 27.8151 874.272 L33.8307 874.24 Z" fill="#000000" fill-rule="nonzero" fill-opacity="1" /><path clip-path="url(#clip050)" d="M32.4621 855.716 Q32.4621 860.426 36.1542 863.163 Q39.8145 865.901 46.212 865.901 Q52.6095 865.901 56.3017 863.195 Q59.9619 860.458 59.9619 855.716 Q59.9619 851.037 56.2698 848.3 Q52.5777 845.562 46.212 845.562 Q39.8781 845.562 36.186 848.3 Q32.4621 851.037 32.4621 855.716 M27.4968 855.716 Q27.4968 848.077 32.4621 843.716 Q37.4273 839.356 46.212 839.356 Q54.9649 839.356 59.9619 843.716 Q64.9272 848.077 64.9272 855.716 Q64.9272 863.386 59.9619 867.747 Q54.9649 872.075 46.212 872.075 Q37.4273 872.075 32.4621 867.747 Q27.4968 863.386 27.4968 855.716 Z" fill="#000000" fill-rule="nonzero" fill-opacity="1" /><path clip-path="url(#clip050)" d="M46.212 804.058 Q39.7508 804.058 36.0905 806.731 Q32.3984 809.373 32.3984 814.02 Q32.3984 818.667 36.0905 821.341 Q39.7508 823.983 46.212 823.983 Q52.6732 823.983 56.3653 821.341 Q60.0256 818.667 60.0256 814.02 Q60.0256 809.373 56.3653 806.731 Q52.6732 804.058 46.212 804.058 M33.7671 823.983 Q30.5842 822.136 29.0564 819.336 Q27.4968 816.503 27.4968 812.588 Q27.4968 806.095 32.6531 802.053 Q37.8093 797.979 46.212 797.979 Q54.6147 797.979 59.771 802.053 Q64.9272 806.095 64.9272 812.588 Q64.9272 816.503 63.3994 819.336 Q61.8398 822.136 58.657 823.983 L64.0042 823.983 L64.0042 829.871 L14.479 829.871 L14.479 823.983 L33.7671 823.983 Z" fill="#000000" fill-rule="nonzero" fill-opacity="1" /><path clip-path="url(#clip050)" d="M46.0847 772.07 Q46.0847 779.168 47.7079 781.905 Q49.3312 784.642 53.2461 784.642 Q56.3653 784.642 58.2114 782.605 Q60.0256 780.537 60.0256 777.004 Q60.0256 772.134 56.5881 769.206 Q53.1188 766.246 47.3897 766.246 L46.0847 766.246 L46.0847 772.07 M43.6657 760.389 L64.0042 760.389 L64.0042 766.246 L58.5933 766.246 Q61.8398 768.251 63.3994 771.243 Q64.9272 774.235 64.9272 778.563 Q64.9272 784.038 61.8716 787.284 Q58.7843 790.499 53.6281 790.499 Q47.6125 790.499 44.5569 786.489 Q41.5014 782.446 41.5014 774.457 L41.5014 766.246 L40.9285 766.246 Q36.8862 766.246 34.6901 768.919 Q32.4621 771.561 32.4621 776.367 Q32.4621 779.423 33.1941 782.319 Q33.9262 785.215 35.3903 787.889 L29.9795 787.889 Q28.7381 784.674 28.1334 781.651 Q27.4968 778.627 27.4968 775.762 Q27.4968 768.028 31.5072 764.209 Q35.5176 760.389 43.6657 760.389 Z" fill="#000000" fill-rule="nonzero" fill-opacity="1" /><path clip-path="url(#clip050)" d="M46.212 722.736 Q39.7508 722.736 36.0905 725.41 Q32.3984 728.051 32.3984 732.698 Q32.3984 737.345 36.0905 740.019 Q39.7508 742.661 46.212 742.661 Q52.6732 742.661 56.3653 740.019 Q60.0256 737.345 60.0256 732.698 Q60.0256 728.051 56.3653 725.41 Q52.6732 722.736 46.212 722.736 M33.7671 742.661 Q30.5842 740.815 29.0564 738.014 Q27.4968 735.181 27.4968 731.266 Q27.4968 724.773 32.6531 720.731 Q37.8093 716.657 46.212 716.657 Q54.6147 716.657 59.771 720.731 Q64.9272 724.773 64.9272 731.266 Q64.9272 735.181 63.3994 738.014 Q61.8398 740.815 58.657 742.661 L64.0042 742.661 L64.0042 748.549 L14.479 748.549 L14.479 742.661 L33.7671 742.661 Z" fill="#000000" fill-rule="nonzero" fill-opacity="1" /><path clip-path="url(#clip050)" d="M28.3562 706.949 L28.3562 701.093 L64.0042 701.093 L64.0042 706.949 L28.3562 706.949 M14.479 706.949 L14.479 701.093 L21.895 701.093 L21.895 706.949 L14.479 706.949 Z" fill="#000000" fill-rule="nonzero" fill-opacity="1" /><path clip-path="url(#clip050)" d="M14.479 688.839 L14.479 682.982 L64.0042 682.982 L64.0042 688.839 L14.479 688.839 Z" fill="#000000" fill-rule="nonzero" fill-opacity="1" /><path clip-path="url(#clip050)" d="M28.3562 670.728 L28.3562 664.872 L64.0042 664.872 L64.0042 670.728 L28.3562 670.728 M14.479 670.728 L14.479 664.872 L21.895 664.872 L21.895 670.728 L14.479 670.728 Z" fill="#000000" fill-rule="nonzero" fill-opacity="1" /><path clip-path="url(#clip050)" d="M18.2347 646.825 L28.3562 646.825 L28.3562 634.762 L32.9077 634.762 L32.9077 646.825 L52.2594 646.825 Q56.6199 646.825 57.8613 645.647 Q59.1026 644.438 59.1026 640.778 L59.1026 634.762 L64.0042 634.762 L64.0042 640.778 Q64.0042 647.557 61.4897 650.135 Q58.9434 652.713 52.2594 652.713 L32.9077 652.713 L32.9077 657.01 L28.3562 657.01 L28.3562 652.713 L18.2347 652.713 L18.2347 646.825 Z" fill="#000000" fill-rule="nonzero" fill-opacity="1" /><path clip-path="url(#clip050)" d="M67.3143 612.227 Q73.68 614.71 75.6216 617.065 Q77.5631 619.421 77.5631 623.367 L77.5631 628.046 L72.6615 628.046 L72.6615 624.609 Q72.6615 622.19 71.5157 620.853 Q70.3699 619.516 66.1048 617.893 L63.4312 616.842 L28.3562 631.261 L28.3562 625.054 L56.238 613.914 L28.3562 602.774 L28.3562 596.568 L67.3143 612.227 Z" fill="#000000" fill-rule="nonzero" fill-opacity="1" /><path clip-path="url(#clip050)" d="M839.765 10.0578 L839.765 15.758 Q836.438 14.1666 833.487 13.3853 Q830.535 12.6041 827.786 12.6041 Q823.012 12.6041 820.408 14.4559 Q817.833 16.3078 817.833 19.7221 Q817.833 22.5867 819.54 24.0624 Q821.276 25.5091 826.079 26.4061 L829.609 27.1295 Q836.149 28.3737 839.245 31.5276 Q842.37 34.6526 842.37 39.9188 Q842.37 46.1977 838.145 49.4384 Q833.95 52.6791 825.819 52.6791 Q822.752 52.6791 819.279 51.9847 Q815.836 51.2902 812.132 49.9303 L812.132 43.9118 Q815.692 45.9083 819.106 46.921 Q822.52 47.9338 825.819 47.9338 Q830.825 47.9338 833.544 45.9662 Q836.264 43.9986 836.264 40.3528 Q836.264 37.1699 834.297 35.376 Q832.358 33.582 827.902 32.685 L824.343 31.9906 Q817.804 30.6885 814.881 27.9107 Q811.959 25.133 811.959 20.1851 Q811.959 14.4559 815.981 11.1573 Q820.032 7.85875 827.121 7.85875 Q830.159 7.85875 833.313 8.40852 Q836.467 8.95829 839.765 10.0578 Z" fill="#000000" fill-rule="nonzero" fill-opacity="1" /><path clip-path="url(#clip050)" d="M856.519 10.2314 L856.519 19.4328 L867.485 19.4328 L867.485 23.5705 L856.519 23.5705 L856.519 41.163 Q856.519 45.1271 857.589 46.2555 Q858.689 47.384 862.016 47.384 L867.485 47.384 L867.485 51.84 L862.016 51.84 Q855.853 51.84 853.51 49.5541 Q851.166 47.2393 851.166 41.163 L851.166 23.5705 L847.26 23.5705 L847.26 19.4328 L851.166 19.4328 L851.166 10.2314 L856.519 10.2314 Z" fill="#000000" fill-rule="nonzero" fill-opacity="1" /><path clip-path="url(#clip050)" d="M889.215 35.5496 Q882.763 35.5496 880.274 37.0253 Q877.786 38.501 877.786 42.06 Q877.786 44.8956 879.638 46.5738 Q881.519 48.2231 884.73 48.2231 Q889.158 48.2231 891.82 45.0981 Q894.511 41.9442 894.511 36.7359 L894.511 35.5496 L889.215 35.5496 M899.835 33.3505 L899.835 51.84 L894.511 51.84 L894.511 46.921 Q892.688 49.8724 889.968 51.2902 Q887.248 52.6791 883.313 52.6791 Q878.336 52.6791 875.384 49.9014 Q872.462 47.0947 872.462 42.4072 Q872.462 36.9385 876.108 34.1607 Q879.783 31.3829 887.045 31.3829 L894.511 31.3829 L894.511 30.8621 Q894.511 27.1874 892.08 25.1908 Q889.678 23.1654 885.309 23.1654 Q882.531 23.1654 879.898 23.8309 Q877.265 24.4964 874.835 25.8274 L874.835 20.9085 Q877.757 19.78 880.506 19.2302 Q883.255 18.6515 885.859 18.6515 Q892.89 18.6515 896.362 22.2973 Q899.835 25.9431 899.835 33.3505 Z" fill="#000000" fill-rule="nonzero" fill-opacity="1" /><path clip-path="url(#clip050)" d="M916.067 10.2314 L916.067 19.4328 L927.033 19.4328 L927.033 23.5705 L916.067 23.5705 L916.067 41.163 Q916.067 45.1271 917.138 46.2555 Q918.237 47.384 921.565 47.384 L927.033 47.384 L927.033 51.84 L921.565 51.84 Q915.402 51.84 913.058 49.5541 Q910.714 47.2393 910.714 41.163 L910.714 23.5705 L906.808 23.5705 L906.808 19.4328 L910.714 19.4328 L910.714 10.2314 L916.067 10.2314 Z" fill="#000000" fill-rule="nonzero" fill-opacity="1" /><path clip-path="url(#clip050)" d="M934.036 19.4328 L939.36 19.4328 L939.36 51.84 L934.036 51.84 L934.036 19.4328 M934.036 6.81709 L939.36 6.81709 L939.36 13.559 L934.036 13.559 L934.036 6.81709 Z" fill="#000000" fill-rule="nonzero" fill-opacity="1" /><path clip-path="url(#clip050)" d="M963.058 23.1654 Q958.775 23.1654 956.287 26.5218 Q953.798 29.8494 953.798 35.6653 Q953.798 41.4813 956.258 44.8377 Q958.746 48.1653 963.058 48.1653 Q967.311 48.1653 969.799 44.8088 Q972.288 41.4523 972.288 35.6653 Q972.288 29.9072 969.799 26.5508 Q967.311 23.1654 963.058 23.1654 M963.058 18.6515 Q970.002 18.6515 973.966 23.1654 Q977.93 27.6792 977.93 35.6653 Q977.93 43.6225 973.966 48.1653 Q970.002 52.6791 963.058 52.6791 Q956.084 52.6791 952.12 48.1653 Q948.185 43.6225 948.185 35.6653 Q948.185 27.6792 952.12 23.1654 Q956.084 18.6515 963.058 18.6515 Z" fill="#000000" fill-rule="nonzero" fill-opacity="1" /><path clip-path="url(#clip050)" d="M1013.69 32.2799 L1013.69 51.84 L1008.37 51.84 L1008.37 32.4535 Q1008.37 27.8529 1006.58 25.567 Q1004.78 23.2811 1001.19 23.2811 Q996.883 23.2811 994.394 26.03 Q991.906 28.7788 991.906 33.5241 L991.906 51.84 L986.553 51.84 L986.553 19.4328 L991.906 19.4328 L991.906 24.4675 Q993.816 21.545 996.391 20.0983 Q998.995 18.6515 1002.38 18.6515 Q1007.96 18.6515 1010.83 22.1237 Q1013.69 25.567 1013.69 32.2799 Z" fill="#000000" fill-rule="nonzero" fill-opacity="1" /><path clip-path="url(#clip050)" d="M1039.04 35.5496 Q1032.59 35.5496 1030.1 37.0253 Q1027.61 38.501 1027.61 42.06 Q1027.61 44.8956 1029.46 46.5738 Q1031.34 48.2231 1034.56 48.2231 Q1038.98 48.2231 1041.65 45.0981 Q1044.34 41.9442 1044.34 36.7359 L1044.34 35.5496 L1039.04 35.5496 M1049.66 33.3505 L1049.66 51.84 L1044.34 51.84 L1044.34 46.921 Q1042.51 49.8724 1039.79 51.2902 Q1037.07 52.6791 1033.14 52.6791 Q1028.16 52.6791 1025.21 49.9014 Q1022.29 47.0947 1022.29 42.4072 Q1022.29 36.9385 1025.93 34.1607 Q1029.61 31.3829 1036.87 31.3829 L1044.34 31.3829 L1044.34 30.8621 Q1044.34 27.1874 1041.91 25.1908 Q1039.5 23.1654 1035.13 23.1654 Q1032.36 23.1654 1029.72 23.8309 Q1027.09 24.4964 1024.66 25.8274 L1024.66 20.9085 Q1027.58 19.78 1030.33 19.2302 Q1033.08 18.6515 1035.68 18.6515 Q1042.72 18.6515 1046.19 22.2973 Q1049.66 25.9431 1049.66 33.3505 Z" fill="#000000" fill-rule="nonzero" fill-opacity="1" /><path clip-path="url(#clip050)" d="M1079.41 24.4096 Q1078.51 23.8888 1077.44 23.6573 Q1076.4 23.3969 1075.12 23.3969 Q1070.61 23.3969 1068.18 26.3482 Q1065.78 29.2707 1065.78 34.7683 L1065.78 51.84 L1060.42 51.84 L1060.42 19.4328 L1065.78 19.4328 L1065.78 24.4675 Q1067.46 21.5161 1070.15 20.0983 Q1072.84 18.6515 1076.69 18.6515 Q1077.24 18.6515 1077.9 18.7383 Q1078.57 18.7962 1079.38 18.9409 L1079.41 24.4096 Z" fill="#000000" fill-rule="nonzero" fill-opacity="1" /><path clip-path="url(#clip050)" d="M1098.47 54.8492 Q1096.22 60.6362 1094.08 62.4013 Q1091.93 64.1663 1088.35 64.1663 L1084.09 64.1663 L1084.09 59.7103 L1087.22 59.7103 Q1089.42 59.7103 1090.63 58.6687 Q1091.85 57.627 1093.32 53.7497 L1094.28 51.3192 L1081.17 19.4328 L1086.81 19.4328 L1096.94 44.7799 L1107.07 19.4328 L1112.71 19.4328 L1098.47 54.8492 Z" fill="#000000" fill-rule="nonzero" fill-opacity="1" /><path clip-path="url(#clip050)" d="M1144.97 13.4432 L1144.97 47.0368 L1152.03 47.0368 Q1160.97 47.0368 1165.11 42.9859 Q1169.28 38.935 1169.28 30.1966 Q1169.28 21.5161 1165.11 17.4941 Q1160.97 13.4432 1152.03 13.4432 L1144.97 13.4432 M1139.13 8.64 L1151.14 8.64 Q1163.69 8.64 1169.57 13.8772 Q1175.44 19.0855 1175.44 30.1966 Q1175.44 41.3655 1169.54 46.6028 Q1163.64 51.84 1151.14 51.84 L1139.13 51.84 L1139.13 8.64 Z" fill="#000000" fill-rule="nonzero" fill-opacity="1" /><path clip-path="url(#clip050)" d="M1184.53 19.4328 L1189.85 19.4328 L1189.85 51.84 L1184.53 51.84 L1184.53 19.4328 M1184.53 6.81709 L1189.85 6.81709 L1189.85 13.559 L1184.53 13.559 L1184.53 6.81709 Z" fill="#000000" fill-rule="nonzero" fill-opacity="1" /><path clip-path="url(#clip050)" d="M1221.65 20.3876 L1221.65 25.4223 Q1219.39 24.2649 1216.96 23.6862 Q1214.53 23.1075 1211.93 23.1075 Q1207.96 23.1075 1205.97 24.3228 Q1204 25.5381 1204 27.9686 Q1204 29.8204 1205.42 30.891 Q1206.84 31.9327 1211.12 32.8876 L1212.94 33.2926 Q1218.61 34.5079 1220.98 36.7359 Q1223.39 38.935 1223.39 42.8991 Q1223.39 47.4129 1219.8 50.046 Q1216.24 52.6791 1209.99 52.6791 Q1207.39 52.6791 1204.55 52.1583 Q1201.74 51.6664 1198.62 50.6537 L1198.62 45.156 Q1201.57 46.6896 1204.43 47.4708 Q1207.3 48.2231 1210.1 48.2231 Q1213.87 48.2231 1215.89 46.95 Q1217.92 45.6479 1217.92 43.3042 Q1217.92 41.134 1216.44 39.9766 Q1214.99 38.8192 1210.05 37.7486 L1208.2 37.3146 Q1203.25 36.273 1201.05 34.1318 Q1198.85 31.9616 1198.85 28.2001 Q1198.85 23.6283 1202.09 21.1399 Q1205.33 18.6515 1211.29 18.6515 Q1214.24 18.6515 1216.85 19.0855 Q1219.45 19.5196 1221.65 20.3876 Z" fill="#000000" fill-rule="nonzero" fill-opacity="1" /><path clip-path="url(#clip050)" d="M1237.13 10.2314 L1237.13 19.4328 L1248.1 19.4328 L1248.1 23.5705 L1237.13 23.5705 L1237.13 41.163 Q1237.13 45.1271 1238.2 46.2555 Q1239.3 47.384 1242.63 47.384 L1248.1 47.384 L1248.1 51.84 L1242.63 51.84 Q1236.46 51.84 1234.12 49.5541 Q1231.78 47.2393 1231.78 41.163 L1231.78 23.5705 L1227.87 23.5705 L1227.87 19.4328 L1231.78 19.4328 L1231.78 10.2314 L1237.13 10.2314 Z" fill="#000000" fill-rule="nonzero" fill-opacity="1" /><path clip-path="url(#clip050)" d="M1273.88 24.4096 Q1272.98 23.8888 1271.91 23.6573 Q1270.87 23.3969 1269.6 23.3969 Q1265.08 23.3969 1262.65 26.3482 Q1260.25 29.2707 1260.25 34.7683 L1260.25 51.84 L1254.9 51.84 L1254.9 19.4328 L1260.25 19.4328 L1260.25 24.4675 Q1261.93 21.5161 1264.62 20.0983 Q1267.31 18.6515 1271.16 18.6515 Q1271.71 18.6515 1272.37 18.7383 Q1273.04 18.7962 1273.85 18.9409 L1273.88 24.4096 Z" fill="#000000" fill-rule="nonzero" fill-opacity="1" /><path clip-path="url(#clip050)" d="M1279.46 19.4328 L1284.79 19.4328 L1284.79 51.84 L1279.46 51.84 L1279.46 19.4328 M1279.46 6.81709 L1284.79 6.81709 L1284.79 13.559 L1279.46 13.559 L1279.46 6.81709 Z" fill="#000000" fill-rule="nonzero" fill-opacity="1" /><path clip-path="url(#clip050)" d="M1319.19 35.6653 Q1319.19 29.7915 1316.76 26.464 Q1314.36 23.1075 1310.13 23.1075 Q1305.91 23.1075 1303.48 26.464 Q1301.08 29.7915 1301.08 35.6653 Q1301.08 41.5391 1303.48 44.8956 Q1305.91 48.2231 1310.13 48.2231 Q1314.36 48.2231 1316.76 44.8956 Q1319.19 41.5391 1319.19 35.6653 M1301.08 24.3517 Q1302.75 21.4582 1305.3 20.0693 Q1307.88 18.6515 1311.44 18.6515 Q1317.34 18.6515 1321.01 23.339 Q1324.72 28.0265 1324.72 35.6653 Q1324.72 43.3042 1321.01 47.9916 Q1317.34 52.6791 1311.44 52.6791 Q1307.88 52.6791 1305.3 51.2902 Q1302.75 49.8724 1301.08 46.9789 L1301.08 51.84 L1295.72 51.84 L1295.72 6.81709 L1301.08 6.81709 L1301.08 24.3517 Z" fill="#000000" fill-rule="nonzero" fill-opacity="1" /><path clip-path="url(#clip050)" d="M1332.99 39.0507 L1332.99 19.4328 L1338.32 19.4328 L1338.32 38.8482 Q1338.32 43.4488 1340.11 45.7636 Q1341.9 48.0495 1345.49 48.0495 Q1349.8 48.0495 1352.29 45.3007 Q1354.81 42.5519 1354.81 37.8065 L1354.81 19.4328 L1360.13 19.4328 L1360.13 51.84 L1354.81 51.84 L1354.81 46.8632 Q1352.87 49.8145 1350.3 51.2613 Q1347.75 52.6791 1344.36 52.6791 Q1338.78 52.6791 1335.89 49.2069 Q1332.99 45.7347 1332.99 39.0507 M1346.39 18.6515 L1346.39 18.6515 Z" fill="#000000" fill-rule="nonzero" fill-opacity="1" /><path clip-path="url(#clip050)" d="M1376.37 10.2314 L1376.37 19.4328 L1387.33 19.4328 L1387.33 23.5705 L1376.37 23.5705 L1376.37 41.163 Q1376.37 45.1271 1377.44 46.2555 Q1378.54 47.384 1381.86 47.384 L1387.33 47.384 L1387.33 51.84 L1381.86 51.84 Q1375.7 51.84 1373.36 49.5541 Q1371.01 47.2393 1371.01 41.163 L1371.01 23.5705 L1367.11 23.5705 L1367.11 19.4328 L1371.01 19.4328 L1371.01 10.2314 L1376.37 10.2314 Z" fill="#000000" fill-rule="nonzero" fill-opacity="1" /><path clip-path="url(#clip050)" d="M1394.33 19.4328 L1399.66 19.4328 L1399.66 51.84 L1394.33 51.84 L1394.33 19.4328 M1394.33 6.81709 L1399.66 6.81709 L1399.66 13.559 L1394.33 13.559 L1394.33 6.81709 Z" fill="#000000" fill-rule="nonzero" fill-opacity="1" /><path clip-path="url(#clip050)" d="M1423.36 23.1654 Q1419.07 23.1654 1416.59 26.5218 Q1414.1 29.8494 1414.1 35.6653 Q1414.1 41.4813 1416.56 44.8377 Q1419.04 48.1653 1423.36 48.1653 Q1427.61 48.1653 1430.1 44.8088 Q1432.59 41.4523 1432.59 35.6653 Q1432.59 29.9072 1430.1 26.5508 Q1427.61 23.1654 1423.36 23.1654 M1423.36 18.6515 Q1430.3 18.6515 1434.26 23.1654 Q1438.23 27.6792 1438.23 35.6653 Q1438.23 43.6225 1434.26 48.1653 Q1430.3 52.6791 1423.36 52.6791 Q1416.38 52.6791 1412.42 48.1653 Q1408.48 43.6225 1408.48 35.6653 Q1408.48 27.6792 1412.42 23.1654 Q1416.38 18.6515 1423.36 18.6515 Z" fill="#000000" fill-rule="nonzero" fill-opacity="1" /><path clip-path="url(#clip050)" d="M1473.99 32.2799 L1473.99 51.84 L1468.67 51.84 L1468.67 32.4535 Q1468.67 27.8529 1466.87 25.567 Q1465.08 23.2811 1461.49 23.2811 Q1457.18 23.2811 1454.69 26.03 Q1452.2 28.7788 1452.2 33.5241 L1452.2 51.84 L1446.85 51.84 L1446.85 19.4328 L1452.2 19.4328 L1452.2 24.4675 Q1454.11 21.545 1456.69 20.0983 Q1459.29 18.6515 1462.68 18.6515 Q1468.26 18.6515 1471.13 22.1237 Q1473.99 25.567 1473.99 32.2799 Z" fill="#000000" fill-rule="nonzero" fill-opacity="1" /><path clip-path="url(#clip050)" d="M1500 19.4328 L1531.05 19.4328 L1531.05 24.7568 L1526.97 24.7568 L1526.97 44.6641 Q1526.97 46.7474 1527.67 47.6734 Q1528.39 48.5703 1529.98 48.5703 Q1530.42 48.5703 1531.05 48.5125 Q1531.69 48.4257 1531.89 48.3967 L1531.89 52.2451 Q1530.88 52.6212 1529.81 52.7949 Q1528.74 52.9685 1527.67 52.9685 Q1524.19 52.9685 1522.86 51.0877 Q1521.53 49.178 1521.53 44.0854 L1521.53 24.7568 L1509.58 24.7568 L1509.58 51.84 L1504.14 51.84 L1504.14 24.7568 L1500 24.7568 L1500 19.4328 Z" fill="#000000" fill-rule="nonzero" fill-opacity="1" /><path clip-path="url(#clip050)" d="M1555.27 33.5241 L1608.74 33.5241 L1608.74 37.6908 L1555.27 37.6908 L1555.27 33.5241 Z" fill="#000000" fill-rule="nonzero" fill-opacity="1" /><path clip-path="url(#clip050)" d="M1636.29 8.64 L1642.13 8.64 L1642.13 26.898 L1661.52 8.64 L1669.04 8.64 L1647.6 28.7788 L1670.58 51.84 L1662.88 51.84 L1642.13 31.0357 L1642.13 51.84 L1636.29 51.84 L1636.29 8.64 Z" fill="#000000" fill-rule="nonzero" fill-opacity="1" /><path clip-path="url(#clip050)" d="M1675.61 24.9304 L1712.71 24.9304 L1712.71 29.7915 L1675.61 29.7915 L1675.61 24.9304 M1675.61 36.7359 L1712.71 36.7359 L1712.71 41.6549 L1675.61 41.6549 L1675.61 36.7359 Z" fill="#000000" fill-rule="nonzero" fill-opacity="1" /><path clip-path="url(#clip050)" d="M1726.33 46.921 L1735.88 46.921 L1735.88 13.964 L1725.5 16.0474 L1725.5 10.7233 L1735.83 8.64 L1741.67 8.64 L1741.67 46.921 L1751.22 46.921 L1751.22 51.84 L1726.33 51.84 L1726.33 46.921 Z" fill="#000000" fill-rule="nonzero" fill-opacity="1" /><path clip-path="url(#clip050)" d="M1775.52 31.3251 Q1771.36 31.3251 1768.96 33.5531 Q1766.58 35.7811 1766.58 39.6873 Q1766.58 43.5935 1768.96 45.8215 Q1771.36 48.0495 1775.52 48.0495 Q1779.69 48.0495 1782.09 45.8215 Q1784.49 43.5646 1784.49 39.6873 Q1784.49 35.7811 1782.09 33.5531 Q1779.72 31.3251 1775.52 31.3251 M1769.68 28.8367 Q1765.92 27.9107 1763.81 25.3355 Q1761.72 22.7603 1761.72 19.0566 Q1761.72 13.8772 1765.4 10.868 Q1769.1 7.85875 1775.52 7.85875 Q1781.98 7.85875 1785.65 10.868 Q1789.33 13.8772 1789.33 19.0566 Q1789.33 22.7603 1787.21 25.3355 Q1785.13 27.9107 1781.4 28.8367 Q1785.62 29.8204 1787.97 32.685 Q1790.34 35.5496 1790.34 39.6873 Q1790.34 45.9662 1786.49 49.3227 Q1782.67 52.6791 1775.52 52.6791 Q1768.38 52.6791 1764.53 49.3227 Q1760.71 45.9662 1760.71 39.6873 Q1760.71 35.5496 1763.08 32.685 Q1765.45 29.8204 1769.68 28.8367 M1767.54 19.6064 Q1767.54 22.9628 1769.62 24.8436 Q1771.73 26.7244 1775.52 26.7244 Q1779.29 26.7244 1781.4 24.8436 Q1783.54 22.9628 1783.54 19.6064 Q1783.54 16.2499 1781.4 14.3691 Q1779.29 12.4884 1775.52 12.4884 Q1771.73 12.4884 1769.62 14.3691 Q1767.54 16.2499 1767.54 19.6064 Z" fill="#000000" fill-rule="nonzero" fill-opacity="1" /><path clip-path="url(#clip052)" d="M365.223 1042.62 L365.223 1423.18 L449.351 1423.18 L449.351 1042.62 L365.223 1042.62 L365.223 1042.62  Z" fill="#4682b4" fill-rule="evenodd" fill-opacity="0.7"/>
<polyline clip-path="url(#clip052)" style="stroke:#000000; stroke-linecap:round; stroke-linejoin:round; stroke-width:4; stroke-opacity:0.7; fill:none" points="365.223,1042.62 365.223,1423.18 449.351,1423.18 449.351,1042.62 365.223,1042.62 "/>
<path clip-path="url(#clip052)" d="M470.383 1318.25 L470.383 1423.18 L554.511 1423.18 L554.511 1318.25 L470.383 1318.25 L470.383 1318.25  Z" fill="#4682b4" fill-rule="evenodd" fill-opacity="0.7"/>
<polyline clip-path="url(#clip052)" style="stroke:#000000; stroke-linecap:round; stroke-linejoin:round; stroke-width:4; stroke-opacity:0.7; fill:none" points="470.383,1318.25 470.383,1423.18 554.511,1423.18 554.511,1318.25 470.383,1318.25 "/>
<path clip-path="url(#clip052)" d="M575.543 1292.02 L575.543 1423.18 L659.671 1423.18 L659.671 1292.02 L575.543 1292.02 L575.543 1292.02  Z" fill="#4682b4" fill-rule="evenodd" fill-opacity="0.7"/>
<polyline clip-path="url(#clip052)" style="stroke:#000000; stroke-linecap:round; stroke-linejoin:round; stroke-width:4; stroke-opacity:0.7; fill:none" points="575.543,1292.02 575.543,1423.18 659.671,1423.18 659.671,1292.02 575.543,1292.02 "/>
<path clip-path="url(#clip052)" d="M680.703 1292.78 L680.703 1423.18 L764.832 1423.18 L764.832 1292.78 L680.703 1292.78 L680.703 1292.78  Z" fill="#4682b4" fill-rule="evenodd" fill-opacity="0.7"/>
<polyline clip-path="url(#clip052)" style="stroke:#000000; stroke-linecap:round; stroke-linejoin:round; stroke-width:4; stroke-opacity:0.7; fill:none" points="680.703,1292.78 680.703,1423.18 764.832,1423.18 764.832,1292.78 680.703,1292.78 "/>
<path clip-path="url(#clip052)" d="M785.864 1305.7 L785.864 1423.18 L869.992 1423.18 L869.992 1305.7 L785.864 1305.7 L785.864 1305.7  Z" fill="#4682b4" fill-rule="evenodd" fill-opacity="0.7"/>
<polyline clip-path="url(#clip052)" style="stroke:#000000; stroke-linecap:round; stroke-linejoin:round; stroke-width:4; stroke-opacity:0.7; fill:none" points="785.864,1305.7 785.864,1423.18 869.992,1423.18 869.992,1305.7 785.864,1305.7 "/>
<path clip-path="url(#clip052)" d="M891.024 1196.17 L891.024 1423.18 L975.152 1423.18 L975.152 1196.17 L891.024 1196.17 L891.024 1196.17  Z" fill="#4682b4" fill-rule="evenodd" fill-opacity="0.7"/>
<polyline clip-path="url(#clip052)" style="stroke:#000000; stroke-linecap:round; stroke-linejoin:round; stroke-width:4; stroke-opacity:0.7; fill:none" points="891.024,1196.17 891.024,1423.18 975.152,1423.18 975.152,1196.17 891.024,1196.17 "/>
<path clip-path="url(#clip052)" d="M996.184 1193.88 L996.184 1423.18 L1080.31 1423.18 L1080.31 1193.88 L996.184 1193.88 L996.184 1193.88  Z" fill="#4682b4" fill-rule="evenodd" fill-opacity="0.7"/>
<polyline clip-path="url(#clip052)" style="stroke:#000000; stroke-linecap:round; stroke-linejoin:round; stroke-width:4; stroke-opacity:0.7; fill:none" points="996.184,1193.88 996.184,1423.18 1080.31,1423.18 1080.31,1193.88 996.184,1193.88 "/>
<path clip-path="url(#clip052)" d="M1101.34 1272.99 L1101.34 1423.18 L1185.47 1423.18 L1185.47 1272.99 L1101.34 1272.99 L1101.34 1272.99  Z" fill="#4682b4" fill-rule="evenodd" fill-opacity="0.7"/>
<polyline clip-path="url(#clip052)" style="stroke:#000000; stroke-linecap:round; stroke-linejoin:round; stroke-width:4; stroke-opacity:0.7; fill:none" points="1101.34,1272.99 1101.34,1423.18 1185.47,1423.18 1185.47,1272.99 1101.34,1272.99 "/>
<path clip-path="url(#clip052)" d="M1206.5 1270.52 L1206.5 1423.18 L1290.63 1423.18 L1290.63 1270.52 L1206.5 1270.52 L1206.5 1270.52  Z" fill="#4682b4" fill-rule="evenodd" fill-opacity="0.7"/>
<polyline clip-path="url(#clip052)" style="stroke:#000000; stroke-linecap:round; stroke-linejoin:round; stroke-width:4; stroke-opacity:0.7; fill:none" points="1206.5,1270.52 1206.5,1423.18 1290.63,1423.18 1290.63,1270.52 1206.5,1270.52 "/>
<path clip-path="url(#clip052)" d="M1311.66 1162.27 L1311.66 1423.18 L1395.79 1423.18 L1395.79 1162.27 L1311.66 1162.27 L1311.66 1162.27  Z" fill="#4682b4" fill-rule="evenodd" fill-opacity="0.7"/>
<polyline clip-path="url(#clip052)" style="stroke:#000000; stroke-linecap:round; stroke-linejoin:round; stroke-width:4; stroke-opacity:0.7; fill:none" points="1311.66,1162.27 1311.66,1423.18 1395.79,1423.18 1395.79,1162.27 1311.66,1162.27 "/>
<path clip-path="url(#clip052)" d="M1416.83 1232.02 L1416.83 1423.18 L1500.95 1423.18 L1500.95 1232.02 L1416.83 1232.02 L1416.83 1232.02  Z" fill="#4682b4" fill-rule="evenodd" fill-opacity="0.7"/>
<polyline clip-path="url(#clip052)" style="stroke:#000000; stroke-linecap:round; stroke-linejoin:round; stroke-width:4; stroke-opacity:0.7; fill:none" points="1416.83,1232.02 1416.83,1423.18 1500.95,1423.18 1500.95,1232.02 1416.83,1232.02 "/>
<path clip-path="url(#clip052)" d="M1521.99 1192.18 L1521.99 1423.18 L1606.11 1423.18 L1606.11 1192.18 L1521.99 1192.18 L1521.99 1192.18  Z" fill="#4682b4" fill-rule="evenodd" fill-opacity="0.7"/>
<polyline clip-path="url(#clip052)" style="stroke:#000000; stroke-linecap:round; stroke-linejoin:round; stroke-width:4; stroke-opacity:0.7; fill:none" points="1521.99,1192.18 1521.99,1423.18 1606.11,1423.18 1606.11,1192.18 1521.99,1192.18 "/>
<path clip-path="url(#clip052)" d="M1627.15 1299.97 L1627.15 1423.18 L1711.27 1423.18 L1711.27 1299.97 L1627.15 1299.97 L1627.15 1299.97  Z" fill="#4682b4" fill-rule="evenodd" fill-opacity="0.7"/>
<polyline clip-path="url(#clip052)" style="stroke:#000000; stroke-linecap:round; stroke-linejoin:round; stroke-width:4; stroke-opacity:0.7; fill:none" points="1627.15,1299.97 1627.15,1423.18 1711.27,1423.18 1711.27,1299.97 1627.15,1299.97 "/>
<path clip-path="url(#clip052)" d="M1732.31 1185.58 L1732.31 1423.18 L1816.43 1423.18 L1816.43 1185.58 L1732.31 1185.58 L1732.31 1185.58  Z" fill="#4682b4" fill-rule="evenodd" fill-opacity="0.7"/>
<polyline clip-path="url(#clip052)" style="stroke:#000000; stroke-linecap:round; stroke-linejoin:round; stroke-width:4; stroke-opacity:0.7; fill:none" points="1732.31,1185.58 1732.31,1423.18 1816.43,1423.18 1816.43,1185.58 1732.31,1185.58 "/>
<path clip-path="url(#clip052)" d="M1837.47 1253.95 L1837.47 1423.18 L1921.59 1423.18 L1921.59 1253.95 L1837.47 1253.95 L1837.47 1253.95  Z" fill="#4682b4" fill-rule="evenodd" fill-opacity="0.7"/>
<polyline clip-path="url(#clip052)" style="stroke:#000000; stroke-linecap:round; stroke-linejoin:round; stroke-width:4; stroke-opacity:0.7; fill:none" points="1837.47,1253.95 1837.47,1423.18 1921.59,1423.18 1921.59,1253.95 1837.47,1253.95 "/>
<path clip-path="url(#clip052)" d="M1942.63 1253.41 L1942.63 1423.18 L2026.75 1423.18 L2026.75 1253.41 L1942.63 1253.41 L1942.63 1253.41  Z" fill="#4682b4" fill-rule="evenodd" fill-opacity="0.7"/>
<polyline clip-path="url(#clip052)" style="stroke:#000000; stroke-linecap:round; stroke-linejoin:round; stroke-width:4; stroke-opacity:0.7; fill:none" points="1942.63,1253.41 1942.63,1423.18 2026.75,1423.18 2026.75,1253.41 1942.63,1253.41 "/>
<path clip-path="url(#clip052)" d="M2047.79 1291.19 L2047.79 1423.18 L2131.92 1423.18 L2131.92 1291.19 L2047.79 1291.19 L2047.79 1291.19  Z" fill="#4682b4" fill-rule="evenodd" fill-opacity="0.7"/>
<polyline clip-path="url(#clip052)" style="stroke:#000000; stroke-linecap:round; stroke-linejoin:round; stroke-width:4; stroke-opacity:0.7; fill:none" points="2047.79,1291.19 2047.79,1423.18 2131.92,1423.18 2131.92,1291.19 2047.79,1291.19 "/>
<path clip-path="url(#clip052)" d="M2152.95 106.192 L2152.95 1423.18 L2237.08 1423.18 L2237.08 106.192 L2152.95 106.192 L2152.95 106.192  Z" fill="#4682b4" fill-rule="evenodd" fill-opacity="0.7"/>
<polyline clip-path="url(#clip052)" style="stroke:#000000; stroke-linecap:round; stroke-linejoin:round; stroke-width:4; stroke-opacity:0.7; fill:none" points="2152.95,106.192 2152.95,1423.18 2237.08,1423.18 2237.08,106.192 2152.95,106.192 "/>
<circle clip-path="url(#clip052)" style="fill:#4682b4; stroke:none; fill-opacity:0" cx="407.287" cy="1042.62" r="2"/>
<circle clip-path="url(#clip052)" style="fill:#4682b4; stroke:none; fill-opacity:0" cx="512.447" cy="1318.25" r="2"/>
<circle clip-path="url(#clip052)" style="fill:#4682b4; stroke:none; fill-opacity:0" cx="617.607" cy="1292.02" r="2"/>
<circle clip-path="url(#clip052)" style="fill:#4682b4; stroke:none; fill-opacity:0" cx="722.767" cy="1292.78" r="2"/>
<circle clip-path="url(#clip052)" style="fill:#4682b4; stroke:none; fill-opacity:0" cx="827.928" cy="1305.7" r="2"/>
<circle clip-path="url(#clip052)" style="fill:#4682b4; stroke:none; fill-opacity:0" cx="933.088" cy="1196.17" r="2"/>
<circle clip-path="url(#clip052)" style="fill:#4682b4; stroke:none; fill-opacity:0" cx="1038.25" cy="1193.88" r="2"/>
<circle clip-path="url(#clip052)" style="fill:#4682b4; stroke:none; fill-opacity:0" cx="1143.41" cy="1272.99" r="2"/>
<circle clip-path="url(#clip052)" style="fill:#4682b4; stroke:none; fill-opacity:0" cx="1248.57" cy="1270.52" r="2"/>
<circle clip-path="url(#clip052)" style="fill:#4682b4; stroke:none; fill-opacity:0" cx="1353.73" cy="1162.27" r="2"/>
<circle clip-path="url(#clip052)" style="fill:#4682b4; stroke:none; fill-opacity:0" cx="1458.89" cy="1232.02" r="2"/>
<circle clip-path="url(#clip052)" style="fill:#4682b4; stroke:none; fill-opacity:0" cx="1564.05" cy="1192.18" r="2"/>
<circle clip-path="url(#clip052)" style="fill:#4682b4; stroke:none; fill-opacity:0" cx="1669.21" cy="1299.97" r="2"/>
<circle clip-path="url(#clip052)" style="fill:#4682b4; stroke:none; fill-opacity:0" cx="1774.37" cy="1185.58" r="2"/>
<circle clip-path="url(#clip052)" style="fill:#4682b4; stroke:none; fill-opacity:0" cx="1879.53" cy="1253.95" r="2"/>
<circle clip-path="url(#clip052)" style="fill:#4682b4; stroke:none; fill-opacity:0" cx="1984.69" cy="1253.41" r="2"/>
<circle clip-path="url(#clip052)" style="fill:#4682b4; stroke:none; fill-opacity:0" cx="2089.85" cy="1291.19" r="2"/>
<circle clip-path="url(#clip052)" style="fill:#4682b4; stroke:none; fill-opacity:0" cx="2195.01" cy="106.192" r="2"/>
</svg>
