<?xml version="1.0" encoding="utf-8"?>
<svg xmlns="http://www.w3.org/2000/svg" xmlns:xlink="http://www.w3.org/1999/xlink" width="600" height="400" viewBox="0 0 2400 1600">
<defs>
  <clipPath id="clip390">
    <rect x="0" y="0" width="2400" height="1600"/>
  </clipPath>
</defs>
<path clip-path="url(#clip390)" d="M0 1600 L2400 1600 L2400 8.88178e-14 L0 8.88178e-14  Z" fill="#ffffff" fill-rule="evenodd" fill-opacity="1"/>
<defs>
  <clipPath id="clip391">
    <rect x="586" y="0" width="1423" height="1317"/>
  </clipPath>
</defs>
<path clip-path="url(#clip390)" d="M476.483 1241.31 L2274.02 1241.31 L2274.02 125.984 L476.483 125.984  Z" fill="#ffffff" fill-rule="evenodd" fill-opacity="1"/>
<defs>
  <clipPath id="clip392">
    <rect x="476" y="125" width="1799" height="1116"/>
  </clipPath>
</defs>
<polyline clip-path="url(#clip392)" style="stroke:#000000; stroke-linecap:round; stroke-linejoin:round; stroke-width:2; stroke-opacity:0.1; fill:none" points="521.424,1241.31 521.424,125.984 "/>
<polyline clip-path="url(#clip392)" style="stroke:#000000; stroke-linecap:round; stroke-linejoin:round; stroke-width:2; stroke-opacity:0.1; fill:none" points="970.806,1241.31 970.806,125.984 "/>
<polyline clip-path="url(#clip392)" style="stroke:#000000; stroke-linecap:round; stroke-linejoin:round; stroke-width:2; stroke-opacity:0.1; fill:none" points="1420.19,1241.31 1420.19,125.984 "/>
<polyline clip-path="url(#clip392)" style="stroke:#000000; stroke-linecap:round; stroke-linejoin:round; stroke-width:2; stroke-opacity:0.1; fill:none" points="1869.57,1241.31 1869.57,125.984 "/>
<polyline clip-path="url(#clip392)" style="stroke:#000000; stroke-linecap:round; stroke-linejoin:round; stroke-width:2; stroke-opacity:0.1; fill:none" points="476.483,1241.31 2274.02,1241.31 "/>
<polyline clip-path="url(#clip392)" style="stroke:#000000; stroke-linecap:round; stroke-linejoin:round; stroke-width:2; stroke-opacity:0.1; fill:none" points="476.483,1001.13 2274.02,1001.13 "/>
<polyline clip-path="url(#clip392)" style="stroke:#000000; stroke-linecap:round; stroke-linejoin:round; stroke-width:2; stroke-opacity:0.1; fill:none" points="476.483,760.954 2274.02,760.954 "/>
<polyline clip-path="url(#clip392)" style="stroke:#000000; stroke-linecap:round; stroke-linejoin:round; stroke-width:2; stroke-opacity:0.1; fill:none" points="476.483,520.776 2274.02,520.776 "/>
<polyline clip-path="url(#clip392)" style="stroke:#000000; stroke-linecap:round; stroke-linejoin:round; stroke-width:2; stroke-opacity:0.1; fill:none" points="476.483,280.597 2274.02,280.597 "/>
<polyline clip-path="url(#clip390)" style="stroke:#000000; stroke-linecap:round; stroke-linejoin:round; stroke-width:4; stroke-opacity:1; fill:none" points="476.483,1241.31 2274.02,1241.31 "/>
<polyline clip-path="url(#clip390)" style="stroke:#000000; stroke-linecap:round; stroke-linejoin:round; stroke-width:4; stroke-opacity:1; fill:none" points="521.424,1241.31 521.424,1222.41 "/>
<polyline clip-path="url(#clip390)" style="stroke:#000000; stroke-linecap:round; stroke-linejoin:round; stroke-width:4; stroke-opacity:1; fill:none" points="970.806,1241.31 970.806,1222.41 "/>
<polyline clip-path="url(#clip390)" style="stroke:#000000; stroke-linecap:round; stroke-linejoin:round; stroke-width:4; stroke-opacity:1; fill:none" points="1420.19,1241.31 1420.19,1222.41 "/>
<polyline clip-path="url(#clip390)" style="stroke:#000000; stroke-linecap:round; stroke-linejoin:round; stroke-width:4; stroke-opacity:1; fill:none" points="1869.57,1241.31 1869.57,1222.41 "/>
<path clip-path="url(#clip390)" d="M521.424 1275.16 Q516.911 1275.16 514.625 1279.62 Q512.368 1284.04 512.368 1292.95 Q512.368 1301.84 514.625 1306.29 Q516.911 1310.72 521.424 1310.72 Q525.967 1310.72 528.224 1306.29 Q530.51 1301.84 530.51 1292.95 Q530.51 1284.04 528.224 1279.62 Q525.967 1275.16 521.424 1275.16 M521.424 1270.53 Q528.687 1270.53 532.507 1276.29 Q536.355 1282.02 536.355 1292.95 Q536.355 1303.86 532.507 1309.62 Q528.687 1315.35 521.424 1315.35 Q514.162 1315.35 510.313 1309.62 Q506.494 1303.86 506.494 1292.95 Q506.494 1282.02 510.313 1276.29 Q514.162 1270.53 521.424 1270.53 Z" fill="#000000" fill-rule="nonzero" fill-opacity="1" /><path clip-path="url(#clip390)" d="M958.653 1271.31 L981.599 1271.31 L981.599 1276.23 L964.006 1276.23 L964.006 1286.82 Q965.279 1286.39 966.552 1286.18 Q967.826 1285.95 969.099 1285.95 Q976.333 1285.95 980.557 1289.92 Q984.782 1293.88 984.782 1300.65 Q984.782 1307.62 980.441 1311.5 Q976.101 1315.35 968.202 1315.35 Q965.482 1315.35 962.646 1314.89 Q959.84 1314.42 956.83 1313.5 L956.83 1307.62 Q959.434 1309.04 962.212 1309.74 Q964.99 1310.43 968.086 1310.43 Q973.092 1310.43 976.014 1307.8 Q978.937 1305.17 978.937 1300.65 Q978.937 1296.14 976.014 1293.5 Q973.092 1290.87 968.086 1290.87 Q965.742 1290.87 963.399 1291.39 Q961.084 1291.91 958.653 1293.01 L958.653 1271.31 Z" fill="#000000" fill-rule="nonzero" fill-opacity="1" /><path clip-path="url(#clip390)" d="M1388.55 1309.59 L1398.1 1309.59 L1398.1 1276.64 L1387.71 1278.72 L1387.71 1273.39 L1398.04 1271.31 L1403.88 1271.31 L1403.88 1309.59 L1413.43 1309.59 L1413.43 1314.51 L1388.55 1314.51 L1388.55 1309.59 Z" fill="#000000" fill-rule="nonzero" fill-opacity="1" /><path clip-path="url(#clip390)" d="M1437.74 1275.16 Q1433.22 1275.16 1430.94 1279.62 Q1428.68 1284.04 1428.68 1292.95 Q1428.68 1301.84 1430.94 1306.29 Q1433.22 1310.72 1437.74 1310.72 Q1442.28 1310.72 1444.54 1306.29 Q1446.82 1301.84 1446.82 1292.95 Q1446.82 1284.04 1444.54 1279.62 Q1442.28 1275.16 1437.74 1275.16 M1437.74 1270.53 Q1445 1270.53 1448.82 1276.29 Q1452.67 1282.02 1452.67 1292.95 Q1452.67 1303.86 1448.82 1309.62 Q1445 1315.35 1437.74 1315.35 Q1430.47 1315.35 1426.63 1309.62 Q1422.81 1303.86 1422.81 1292.95 Q1422.81 1282.02 1426.63 1276.29 Q1430.47 1270.53 1437.74 1270.53 Z" fill="#000000" fill-rule="nonzero" fill-opacity="1" /><path clip-path="url(#clip390)" d="M1838.55 1309.59 L1848.1 1309.59 L1848.1 1276.64 L1837.71 1278.72 L1837.71 1273.39 L1848.04 1271.31 L1853.89 1271.31 L1853.89 1309.59 L1863.43 1309.59 L1863.43 1314.51 L1838.55 1314.51 L1838.55 1309.59 Z" fill="#000000" fill-rule="nonzero" fill-opacity="1" /><path clip-path="url(#clip390)" d="M1875.3 1271.31 L1898.24 1271.31 L1898.24 1276.23 L1880.65 1276.23 L1880.65 1286.82 Q1881.92 1286.39 1883.2 1286.18 Q1884.47 1285.95 1885.74 1285.95 Q1892.98 1285.95 1897.2 1289.92 Q1901.43 1293.88 1901.43 1300.65 Q1901.43 1307.62 1897.09 1311.5 Q1892.75 1315.35 1884.85 1315.35 Q1882.13 1315.35 1879.29 1314.89 Q1876.48 1314.42 1873.48 1313.5 L1873.48 1307.62 Q1876.08 1309.04 1878.86 1309.74 Q1881.63 1310.43 1884.73 1310.43 Q1889.74 1310.43 1892.66 1307.8 Q1895.58 1305.17 1895.58 1300.65 Q1895.58 1296.14 1892.66 1293.5 Q1889.74 1290.87 1884.73 1290.87 Q1882.39 1290.87 1880.04 1291.39 Q1877.73 1291.91 1875.3 1293.01 L1875.3 1271.31 Z" fill="#000000" fill-rule="nonzero" fill-opacity="1" /><path clip-path="url(#clip390)" d="M1323.45 1353.18 L1323.45 1359.45 Q1319.79 1357.69 1316.54 1356.84 Q1313.3 1355.98 1310.27 1355.98 Q1305.02 1355.98 1302.16 1358.01 Q1299.32 1360.05 1299.32 1363.81 Q1299.32 1366.96 1301.2 1368.58 Q1303.11 1370.17 1308.39 1371.16 L1312.28 1371.95 Q1319.47 1373.32 1322.88 1376.79 Q1326.31 1380.23 1326.31 1386.02 Q1326.31 1392.93 1321.67 1396.49 Q1317.05 1400.06 1308.11 1400.06 Q1304.73 1400.06 1300.91 1399.29 Q1297.13 1398.53 1293.05 1397.03 L1293.05 1390.41 Q1296.97 1392.61 1300.72 1393.72 Q1304.48 1394.84 1308.11 1394.84 Q1313.61 1394.84 1316.61 1392.67 Q1319.6 1390.51 1319.6 1386.5 Q1319.6 1383 1317.43 1381.03 Q1315.3 1379.05 1310.4 1378.07 L1306.48 1377.3 Q1299.29 1375.87 1296.08 1372.81 Q1292.86 1369.76 1292.86 1364.32 Q1292.86 1358.01 1297.29 1354.38 Q1301.74 1350.76 1309.54 1350.76 Q1312.88 1350.76 1316.35 1351.36 Q1319.82 1351.97 1323.45 1353.18 Z" fill="#000000" fill-rule="nonzero" fill-opacity="1" /><path clip-path="url(#clip390)" d="M1341.88 1353.37 L1341.88 1363.49 L1353.94 1363.49 L1353.94 1368.04 L1341.88 1368.04 L1341.88 1387.39 Q1341.88 1391.75 1343.05 1392.99 Q1344.26 1394.23 1347.92 1394.23 L1353.94 1394.23 L1353.94 1399.14 L1347.92 1399.14 Q1341.14 1399.14 1338.57 1396.62 Q1335.99 1394.07 1335.99 1387.39 L1335.99 1368.04 L1331.69 1368.04 L1331.69 1363.49 L1335.99 1363.49 L1335.99 1353.37 L1341.88 1353.37 Z" fill="#000000" fill-rule="nonzero" fill-opacity="1" /><path clip-path="url(#clip390)" d="M1377.84 1381.22 Q1370.75 1381.22 1368.01 1382.84 Q1365.27 1384.46 1365.27 1388.38 Q1365.27 1391.5 1367.31 1393.34 Q1369.38 1395.16 1372.91 1395.16 Q1377.78 1395.16 1380.71 1391.72 Q1383.67 1388.25 1383.67 1382.52 L1383.67 1381.22 L1377.84 1381.22 M1389.52 1378.8 L1389.52 1399.14 L1383.67 1399.14 L1383.67 1393.72 Q1381.66 1396.97 1378.67 1398.53 Q1375.68 1400.06 1371.35 1400.06 Q1365.88 1400.06 1362.63 1397 Q1359.41 1393.92 1359.41 1388.76 Q1359.41 1382.74 1363.42 1379.69 Q1367.47 1376.63 1375.46 1376.63 L1383.67 1376.63 L1383.67 1376.06 Q1383.67 1372.02 1380.99 1369.82 Q1378.35 1367.59 1373.55 1367.59 Q1370.49 1367.59 1367.59 1368.33 Q1364.7 1369.06 1362.02 1370.52 L1362.02 1365.11 Q1365.24 1363.87 1368.26 1363.26 Q1371.29 1362.63 1374.15 1362.63 Q1381.89 1362.63 1385.7 1366.64 Q1389.52 1370.65 1389.52 1378.8 Z" fill="#000000" fill-rule="nonzero" fill-opacity="1" /><path clip-path="url(#clip390)" d="M1407.38 1353.37 L1407.38 1363.49 L1419.44 1363.49 L1419.44 1368.04 L1407.38 1368.04 L1407.38 1387.39 Q1407.38 1391.75 1408.56 1392.99 Q1409.77 1394.23 1413.43 1394.23 L1419.44 1394.23 L1419.44 1399.14 L1413.43 1399.14 Q1406.65 1399.14 1404.07 1396.62 Q1401.49 1394.07 1401.49 1387.39 L1401.49 1368.04 L1397.2 1368.04 L1397.2 1363.49 L1401.49 1363.49 L1401.49 1353.37 L1407.38 1353.37 Z" fill="#000000" fill-rule="nonzero" fill-opacity="1" /><path clip-path="url(#clip390)" d="M1457.64 1379.85 L1457.64 1382.71 L1430.71 1382.71 Q1431.09 1388.76 1434.34 1391.94 Q1437.62 1395.09 1443.44 1395.09 Q1446.82 1395.09 1449.97 1394.27 Q1453.15 1393.44 1456.27 1391.78 L1456.27 1397.32 Q1453.12 1398.66 1449.81 1399.36 Q1446.5 1400.06 1443.09 1400.06 Q1434.56 1400.06 1429.56 1395.09 Q1424.6 1390.13 1424.6 1381.66 Q1424.6 1372.91 1429.31 1367.78 Q1434.05 1362.63 1442.07 1362.63 Q1449.27 1362.63 1453.44 1367.28 Q1457.64 1371.89 1457.64 1379.85 M1451.78 1378.13 Q1451.72 1373.32 1449.08 1370.46 Q1446.47 1367.59 1442.14 1367.59 Q1437.24 1367.59 1434.28 1370.36 Q1431.35 1373.13 1430.9 1378.16 L1451.78 1378.13 Z" fill="#000000" fill-rule="nonzero" fill-opacity="1" /><polyline clip-path="url(#clip390)" style="stroke:#000000; stroke-linecap:round; stroke-linejoin:round; stroke-width:4; stroke-opacity:1; fill:none" points="476.483,1241.31 476.483,125.984 "/>
<polyline clip-path="url(#clip390)" style="stroke:#000000; stroke-linecap:round; stroke-linejoin:round; stroke-width:4; stroke-opacity:1; fill:none" points="476.483,1241.31 495.38,1241.31 "/>
<polyline clip-path="url(#clip390)" style="stroke:#000000; stroke-linecap:round; stroke-linejoin:round; stroke-width:4; stroke-opacity:1; fill:none" points="476.483,1001.13 495.38,1001.13 "/>
<polyline clip-path="url(#clip390)" style="stroke:#000000; stroke-linecap:round; stroke-linejoin:round; stroke-width:4; stroke-opacity:1; fill:none" points="476.483,760.954 495.38,760.954 "/>
<polyline clip-path="url(#clip390)" style="stroke:#000000; stroke-linecap:round; stroke-linejoin:round; stroke-width:4; stroke-opacity:1; fill:none" points="476.483,520.776 495.38,520.776 "/>
<polyline clip-path="url(#clip390)" style="stroke:#000000; stroke-linecap:round; stroke-linejoin:round; stroke-width:4; stroke-opacity:1; fill:none" points="476.483,280.597 495.38,280.597 "/>
<path clip-path="url(#clip390)" d="M369.013 1223.56 Q364.499 1223.56 362.214 1228.02 Q359.957 1232.44 359.957 1241.35 Q359.957 1250.24 362.214 1254.69 Q364.499 1259.12 369.013 1259.12 Q373.556 1259.12 375.813 1254.69 Q378.099 1250.24 378.099 1241.35 Q378.099 1232.44 375.813 1228.02 Q373.556 1223.56 369.013 1223.56 M369.013 1218.93 Q376.276 1218.93 380.095 1224.69 Q383.944 1230.42 383.944 1241.35 Q383.944 1252.26 380.095 1258.02 Q376.276 1263.75 369.013 1263.75 Q361.751 1263.75 357.902 1258.02 Q354.083 1252.26 354.083 1241.35 Q354.083 1230.42 357.902 1224.69 Q361.751 1218.93 369.013 1218.93 Z" fill="#000000" fill-rule="nonzero" fill-opacity="1" /><path clip-path="url(#clip390)" d="M394.216 1255.56 L400.321 1255.56 L400.321 1262.91 L394.216 1262.91 L394.216 1255.56 Z" fill="#000000" fill-rule="nonzero" fill-opacity="1" /><path clip-path="url(#clip390)" d="M425.552 1223.56 Q421.038 1223.56 418.753 1228.02 Q416.496 1232.44 416.496 1241.35 Q416.496 1250.24 418.753 1254.69 Q421.038 1259.12 425.552 1259.12 Q430.095 1259.12 432.352 1254.69 Q434.638 1250.24 434.638 1241.35 Q434.638 1232.44 432.352 1228.02 Q430.095 1223.56 425.552 1223.56 M425.552 1218.93 Q432.815 1218.93 436.634 1224.69 Q440.483 1230.42 440.483 1241.35 Q440.483 1252.26 436.634 1258.02 Q432.815 1263.75 425.552 1263.75 Q418.29 1263.75 414.441 1258.02 Q410.622 1252.26 410.622 1241.35 Q410.622 1230.42 414.441 1224.69 Q418.29 1218.93 425.552 1218.93 Z" fill="#000000" fill-rule="nonzero" fill-opacity="1" /><path clip-path="url(#clip390)" d="M362.792 1017.81 L383.191 1017.81 L383.191 1022.73 L355.761 1022.73 L355.761 1017.81 Q359.089 1014.37 364.818 1008.58 Q370.576 1002.77 372.051 1001.09 Q374.858 997.936 375.958 995.765 Q377.086 993.566 377.086 991.454 Q377.086 988.011 374.656 985.841 Q372.254 983.671 368.377 983.671 Q365.628 983.671 362.561 984.625 Q359.523 985.58 356.05 987.519 L356.05 981.616 Q359.58 980.198 362.648 979.475 Q365.715 978.752 368.261 978.752 Q374.974 978.752 378.967 982.108 Q382.96 985.465 382.96 991.078 Q382.96 993.74 381.947 996.142 Q380.963 998.514 378.33 1001.76 Q377.607 1002.59 373.73 1006.62 Q369.852 1010.61 362.792 1017.81 Z" fill="#000000" fill-rule="nonzero" fill-opacity="1" /><path clip-path="url(#clip390)" d="M395.46 1015.38 L401.565 1015.38 L401.565 1022.73 L395.46 1022.73 L395.46 1015.38 Z" fill="#000000" fill-rule="nonzero" fill-opacity="1" /><path clip-path="url(#clip390)" d="M414.354 979.533 L437.3 979.533 L437.3 984.452 L419.707 984.452 L419.707 995.042 Q420.981 994.608 422.254 994.406 Q423.527 994.174 424.8 994.174 Q432.034 994.174 436.258 998.138 Q440.483 1002.1 440.483 1008.87 Q440.483 1015.85 436.143 1019.72 Q431.802 1023.57 423.903 1023.57 Q421.183 1023.57 418.347 1023.11 Q415.541 1022.65 412.532 1021.72 L412.532 1015.85 Q415.136 1017.26 417.913 1017.96 Q420.691 1018.65 423.787 1018.65 Q428.793 1018.65 431.715 1016.02 Q434.638 1013.39 434.638 1008.87 Q434.638 1004.36 431.715 1001.73 Q428.793 999.093 423.787 999.093 Q421.444 999.093 419.1 999.614 Q416.785 1000.13 414.354 1001.23 L414.354 979.533 Z" fill="#000000" fill-rule="nonzero" fill-opacity="1" /><path clip-path="url(#clip390)" d="M356.571 739.354 L379.517 739.354 L379.517 744.273 L361.924 744.273 L361.924 754.864 Q363.197 754.43 364.47 754.227 Q365.744 753.995 367.017 753.995 Q374.25 753.995 378.475 757.96 Q382.7 761.924 382.7 768.694 Q382.7 775.668 378.359 779.545 Q374.019 783.393 366.12 783.393 Q363.4 783.393 360.564 782.931 Q357.758 782.468 354.748 781.542 L354.748 775.668 Q357.352 777.086 360.13 777.78 Q362.908 778.475 366.004 778.475 Q371.01 778.475 373.932 775.841 Q376.855 773.208 376.855 768.694 Q376.855 764.181 373.932 761.548 Q371.01 758.914 366.004 758.914 Q363.66 758.914 361.317 759.435 Q359.002 759.956 356.571 761.056 L356.571 739.354 Z" fill="#000000" fill-rule="nonzero" fill-opacity="1" /><path clip-path="url(#clip390)" d="M394.216 775.205 L400.321 775.205 L400.321 782.554 L394.216 782.554 L394.216 775.205 Z" fill="#000000" fill-rule="nonzero" fill-opacity="1" /><path clip-path="url(#clip390)" d="M425.552 743.203 Q421.038 743.203 418.753 747.659 Q416.496 752.086 416.496 760.998 Q416.496 769.881 418.753 774.337 Q421.038 778.764 425.552 778.764 Q430.095 778.764 432.352 774.337 Q434.638 769.881 434.638 760.998 Q434.638 752.086 432.352 747.659 Q430.095 743.203 425.552 743.203 M425.552 738.573 Q432.815 738.573 436.634 744.331 Q440.483 750.06 440.483 760.998 Q440.483 771.906 436.634 777.664 Q432.815 783.393 425.552 783.393 Q418.29 783.393 414.441 777.664 Q410.622 771.906 410.622 760.998 Q410.622 750.06 414.441 744.331 Q418.29 738.573 425.552 738.573 Z" fill="#000000" fill-rule="nonzero" fill-opacity="1" /><path clip-path="url(#clip390)" d="M356.282 499.176 L384.059 499.176 L384.059 501.664 L368.377 542.376 L362.271 542.376 L377.028 504.095 L356.282 504.095 L356.282 499.176 Z" fill="#000000" fill-rule="nonzero" fill-opacity="1" /><path clip-path="url(#clip390)" d="M395.46 535.026 L401.565 535.026 L401.565 542.376 L395.46 542.376 L395.46 535.026 Z" fill="#000000" fill-rule="nonzero" fill-opacity="1" /><path clip-path="url(#clip390)" d="M414.354 499.176 L437.3 499.176 L437.3 504.095 L419.707 504.095 L419.707 514.685 Q420.981 514.251 422.254 514.048 Q423.527 513.817 424.8 513.817 Q432.034 513.817 436.258 517.781 Q440.483 521.745 440.483 528.516 Q440.483 535.489 436.143 539.367 Q431.802 543.215 423.903 543.215 Q421.183 543.215 418.347 542.752 Q415.541 542.289 412.532 541.363 L412.532 535.489 Q415.136 536.907 417.913 537.602 Q420.691 538.296 423.787 538.296 Q428.793 538.296 431.715 535.663 Q434.638 533.03 434.638 528.516 Q434.638 524.002 431.715 521.369 Q428.793 518.736 423.787 518.736 Q421.444 518.736 419.1 519.257 Q416.785 519.778 414.354 520.877 L414.354 499.176 Z" fill="#000000" fill-rule="nonzero" fill-opacity="1" /><path clip-path="url(#clip390)" d="M319.824 297.278 L329.372 297.278 L329.372 264.321 L318.985 266.405 L318.985 261.081 L329.314 258.997 L335.159 258.997 L335.159 297.278 L344.708 297.278 L344.708 302.197 L319.824 302.197 L319.824 297.278 Z" fill="#000000" fill-rule="nonzero" fill-opacity="1" /><path clip-path="url(#clip390)" d="M369.013 262.846 Q364.499 262.846 362.214 267.302 Q359.957 271.729 359.957 280.641 Q359.957 289.524 362.214 293.98 Q364.499 298.407 369.013 298.407 Q373.556 298.407 375.813 293.98 Q378.099 289.524 378.099 280.641 Q378.099 271.729 375.813 267.302 Q373.556 262.846 369.013 262.846 M369.013 258.216 Q376.276 258.216 380.095 263.974 Q383.944 269.703 383.944 280.641 Q383.944 291.549 380.095 297.307 Q376.276 303.036 369.013 303.036 Q361.751 303.036 357.902 297.307 Q354.083 291.549 354.083 280.641 Q354.083 269.703 357.902 263.974 Q361.751 258.216 369.013 258.216 Z" fill="#000000" fill-rule="nonzero" fill-opacity="1" /><path clip-path="url(#clip390)" d="M394.216 294.848 L400.321 294.848 L400.321 302.197 L394.216 302.197 L394.216 294.848 Z" fill="#000000" fill-rule="nonzero" fill-opacity="1" /><path clip-path="url(#clip390)" d="M425.552 262.846 Q421.038 262.846 418.753 267.302 Q416.496 271.729 416.496 280.641 Q416.496 289.524 418.753 293.98 Q421.038 298.407 425.552 298.407 Q430.095 298.407 432.352 293.98 Q434.638 289.524 434.638 280.641 Q434.638 271.729 432.352 267.302 Q430.095 262.846 425.552 262.846 M425.552 258.216 Q432.815 258.216 436.634 263.974 Q440.483 269.703 440.483 280.641 Q440.483 291.549 436.634 297.307 Q432.815 303.036 425.552 303.036 Q418.29 303.036 414.441 297.307 Q410.622 291.549 410.622 280.641 Q410.622 269.703 414.441 263.974 Q418.29 258.216 425.552 258.216 Z" fill="#000000" fill-rule="nonzero" fill-opacity="1" /><path clip-path="url(#clip390)" d="M222.768 740.51 L229.038 740.51 Q227.288 744.17 226.428 747.416 Q225.569 750.663 225.569 753.687 Q225.569 758.938 227.606 761.803 Q229.643 764.636 233.399 764.636 Q236.55 764.636 238.173 762.758 Q239.765 760.848 240.751 755.564 L241.547 751.681 Q242.916 744.488 246.385 741.082 Q249.822 737.645 255.615 737.645 Q262.522 737.645 266.087 742.292 Q269.652 746.907 269.652 755.851 Q269.652 759.225 268.888 763.044 Q268.124 766.832 266.628 770.906 L260.008 770.906 Q262.204 766.991 263.318 763.235 Q264.432 759.479 264.432 755.851 Q264.432 750.345 262.267 747.353 Q260.103 744.361 256.093 744.361 Q252.592 744.361 250.618 746.525 Q248.645 748.658 247.658 753.559 L246.894 757.474 Q245.462 764.667 242.406 767.882 Q239.351 771.097 233.908 771.097 Q227.606 771.097 223.978 766.673 Q220.349 762.217 220.349 754.419 Q220.349 751.077 220.954 747.607 Q221.559 744.138 222.768 740.51 Z" fill="#000000" fill-rule="nonzero" fill-opacity="1" /><path clip-path="url(#clip390)" d="M222.959 722.081 L233.081 722.081 L233.081 710.018 L237.632 710.018 L237.632 722.081 L256.984 722.081 Q261.344 722.081 262.586 720.903 Q263.827 719.694 263.827 716.033 L263.827 710.018 L268.729 710.018 L268.729 716.033 Q268.729 722.813 266.214 725.391 Q263.668 727.969 256.984 727.969 L237.632 727.969 L237.632 732.266 L233.081 732.266 L233.081 727.969 L222.959 727.969 L222.959 722.081 Z" fill="#000000" fill-rule="nonzero" fill-opacity="1" /><path clip-path="url(#clip390)" d="M249.44 671.824 L252.305 671.824 L252.305 698.751 Q258.352 698.369 261.535 695.122 Q264.686 691.844 264.686 686.019 Q264.686 682.645 263.859 679.494 Q263.031 676.311 261.376 673.192 L266.914 673.192 Q268.251 676.343 268.951 679.653 Q269.652 682.964 269.652 686.369 Q269.652 694.899 264.686 699.896 Q259.721 704.862 251.255 704.862 Q242.502 704.862 237.377 700.151 Q232.221 695.409 232.221 687.388 Q232.221 680.194 236.868 676.025 Q241.483 671.824 249.44 671.824 M247.722 677.68 Q242.916 677.744 240.051 680.385 Q237.186 682.995 237.186 687.324 Q237.186 692.226 239.956 695.186 Q242.725 698.114 247.754 698.56 L247.722 677.68 Z" fill="#000000" fill-rule="nonzero" fill-opacity="1" /><path clip-path="url(#clip390)" d="M263.381 656.546 L282.288 656.546 L282.288 662.434 L233.081 662.434 L233.081 656.546 L238.491 656.546 Q235.309 654.7 233.781 651.899 Q232.221 649.066 232.221 645.151 Q232.221 638.658 237.377 634.616 Q242.534 630.542 250.936 630.542 Q259.339 630.542 264.495 634.616 Q269.652 638.658 269.652 645.151 Q269.652 649.066 268.124 651.899 Q266.564 654.7 263.381 656.546 M250.936 636.621 Q244.475 636.621 240.815 639.295 Q237.123 641.937 237.123 646.584 Q237.123 651.231 240.815 653.904 Q244.475 656.546 250.936 656.546 Q257.398 656.546 261.09 653.904 Q264.75 651.231 264.75 646.584 Q264.75 641.937 261.09 639.295 Q257.398 636.621 250.936 636.621 Z" fill="#000000" fill-rule="nonzero" fill-opacity="1" /><path clip-path="url(#clip390)" d="M234.131 598.109 L239.669 598.109 Q238.396 600.591 237.759 603.265 Q237.123 605.939 237.123 608.803 Q237.123 613.164 238.46 615.36 Q239.796 617.524 242.47 617.524 Q244.507 617.524 245.685 615.964 Q246.831 614.405 247.881 609.694 L248.326 607.689 Q249.663 601.451 252.114 598.841 Q254.533 596.199 258.894 596.199 Q263.859 596.199 266.755 600.146 Q269.652 604.061 269.652 610.936 Q269.652 613.8 269.079 616.919 Q268.538 620.007 267.424 623.444 L261.376 623.444 Q263.063 620.198 263.922 617.047 Q264.75 613.896 264.75 610.808 Q264.75 606.671 263.35 604.443 Q261.917 602.215 259.339 602.215 Q256.952 602.215 255.679 603.838 Q254.406 605.429 253.228 610.872 L252.751 612.909 Q251.605 618.352 249.25 620.771 Q246.862 623.19 242.725 623.19 Q237.696 623.19 234.958 619.625 Q232.221 616.06 232.221 609.503 Q232.221 606.257 232.699 603.392 Q233.176 600.528 234.131 598.109 Z" fill="#000000" fill-rule="nonzero" fill-opacity="1" /><path clip-path="url(#clip392)" d="M575.35 194.406 L575.35 1241.31 L647.251 1241.31 L647.251 194.406 L575.35 194.406 L575.35 194.406  Z" fill="#4682b4" fill-rule="evenodd" fill-opacity="0.7"/>
<polyline clip-path="url(#clip392)" style="stroke:#000000; stroke-linecap:round; stroke-linejoin:round; stroke-width:4; stroke-opacity:0.7; fill:none" points="575.35,194.406 575.35,1241.31 647.251,1241.31 647.251,194.406 575.35,194.406 "/>
<path clip-path="url(#clip392)" d="M665.227 1136.61 L665.227 1241.31 L737.128 1241.31 L737.128 1136.61 L665.227 1136.61 L665.227 1136.61  Z" fill="#4682b4" fill-rule="evenodd" fill-opacity="0.7"/>
<polyline clip-path="url(#clip392)" style="stroke:#000000; stroke-linecap:round; stroke-linejoin:round; stroke-width:4; stroke-opacity:0.7; fill:none" points="665.227,1136.61 665.227,1241.31 737.128,1241.31 737.128,1136.61 665.227,1136.61 "/>
<path clip-path="url(#clip392)" d="M755.103 1137.5 L755.103 1241.31 L827.004 1241.31 L827.004 1137.5 L755.103 1137.5 L755.103 1137.5  Z" fill="#4682b4" fill-rule="evenodd" fill-opacity="0.7"/>
<polyline clip-path="url(#clip392)" style="stroke:#000000; stroke-linecap:round; stroke-linejoin:round; stroke-width:4; stroke-opacity:0.7; fill:none" points="755.103,1137.5 755.103,1241.31 827.004,1241.31 827.004,1137.5 755.103,1137.5 "/>
<path clip-path="url(#clip392)" d="M844.979 1145.24 L844.979 1241.31 L916.88 1241.31 L916.88 1145.24 L844.979 1145.24 L844.979 1145.24  Z" fill="#4682b4" fill-rule="evenodd" fill-opacity="0.7"/>
<polyline clip-path="url(#clip392)" style="stroke:#000000; stroke-linecap:round; stroke-linejoin:round; stroke-width:4; stroke-opacity:0.7; fill:none" points="844.979,1145.24 844.979,1241.31 916.88,1241.31 916.88,1145.24 844.979,1145.24 "/>
<path clip-path="url(#clip392)" d="M934.855 1125.73 L934.855 1241.31 L1006.76 1241.31 L1006.76 1125.73 L934.855 1125.73 L934.855 1125.73  Z" fill="#4682b4" fill-rule="evenodd" fill-opacity="0.7"/>
<polyline clip-path="url(#clip392)" style="stroke:#000000; stroke-linecap:round; stroke-linejoin:round; stroke-width:4; stroke-opacity:0.7; fill:none" points="934.855,1125.73 934.855,1241.31 1006.76,1241.31 1006.76,1125.73 934.855,1125.73 "/>
<path clip-path="url(#clip392)" d="M1024.73 1127.98 L1024.73 1241.31 L1096.63 1241.31 L1096.63 1127.98 L1024.73 1127.98 L1024.73 1127.98  Z" fill="#4682b4" fill-rule="evenodd" fill-opacity="0.7"/>
<polyline clip-path="url(#clip392)" style="stroke:#000000; stroke-linecap:round; stroke-linejoin:round; stroke-width:4; stroke-opacity:0.7; fill:none" points="1024.73,1127.98 1024.73,1241.31 1096.63,1241.31 1096.63,1127.98 1024.73,1127.98 "/>
<path clip-path="url(#clip392)" d="M1114.61 1128.98 L1114.61 1241.31 L1186.51 1241.31 L1186.51 1128.98 L1114.61 1128.98 L1114.61 1128.98  Z" fill="#4682b4" fill-rule="evenodd" fill-opacity="0.7"/>
<polyline clip-path="url(#clip392)" style="stroke:#000000; stroke-linecap:round; stroke-linejoin:round; stroke-width:4; stroke-opacity:0.7; fill:none" points="1114.61,1128.98 1114.61,1241.31 1186.51,1241.31 1186.51,1128.98 1114.61,1128.98 "/>
<path clip-path="url(#clip392)" d="M1204.48 1135.18 L1204.48 1241.31 L1276.39 1241.31 L1276.39 1135.18 L1204.48 1135.18 L1204.48 1135.18  Z" fill="#4682b4" fill-rule="evenodd" fill-opacity="0.7"/>
<polyline clip-path="url(#clip392)" style="stroke:#000000; stroke-linecap:round; stroke-linejoin:round; stroke-width:4; stroke-opacity:0.7; fill:none" points="1204.48,1135.18 1204.48,1241.31 1276.39,1241.31 1276.39,1135.18 1204.48,1135.18 "/>
<path clip-path="url(#clip392)" d="M1294.36 1124.69 L1294.36 1241.31 L1366.26 1241.31 L1366.26 1124.69 L1294.36 1124.69 L1294.36 1124.69  Z" fill="#4682b4" fill-rule="evenodd" fill-opacity="0.7"/>
<polyline clip-path="url(#clip392)" style="stroke:#000000; stroke-linecap:round; stroke-linejoin:round; stroke-width:4; stroke-opacity:0.7; fill:none" points="1294.36,1124.69 1294.36,1241.31 1366.26,1241.31 1366.26,1124.69 1294.36,1124.69 "/>
<path clip-path="url(#clip392)" d="M1384.24 1118.27 L1384.24 1241.31 L1456.14 1241.31 L1456.14 1118.27 L1384.24 1118.27 L1384.24 1118.27  Z" fill="#4682b4" fill-rule="evenodd" fill-opacity="0.7"/>
<polyline clip-path="url(#clip392)" style="stroke:#000000; stroke-linecap:round; stroke-linejoin:round; stroke-width:4; stroke-opacity:0.7; fill:none" points="1384.24,1118.27 1384.24,1241.31 1456.14,1241.31 1456.14,1118.27 1384.24,1118.27 "/>
<path clip-path="url(#clip392)" d="M1474.11 1145.23 L1474.11 1241.31 L1546.01 1241.31 L1546.01 1145.23 L1474.11 1145.23 L1474.11 1145.23  Z" fill="#4682b4" fill-rule="evenodd" fill-opacity="0.7"/>
<polyline clip-path="url(#clip392)" style="stroke:#000000; stroke-linecap:round; stroke-linejoin:round; stroke-width:4; stroke-opacity:0.7; fill:none" points="1474.11,1145.23 1474.11,1241.31 1546.01,1241.31 1546.01,1145.23 1474.11,1145.23 "/>
<path clip-path="url(#clip392)" d="M1563.99 1129.37 L1563.99 1241.31 L1635.89 1241.31 L1635.89 1129.37 L1563.99 1129.37 L1563.99 1129.37  Z" fill="#4682b4" fill-rule="evenodd" fill-opacity="0.7"/>
<polyline clip-path="url(#clip392)" style="stroke:#000000; stroke-linecap:round; stroke-linejoin:round; stroke-width:4; stroke-opacity:0.7; fill:none" points="1563.99,1129.37 1563.99,1241.31 1635.89,1241.31 1635.89,1129.37 1563.99,1129.37 "/>
<path clip-path="url(#clip392)" d="M1653.87 1141.81 L1653.87 1241.31 L1725.77 1241.31 L1725.77 1141.81 L1653.87 1141.81 L1653.87 1141.81  Z" fill="#4682b4" fill-rule="evenodd" fill-opacity="0.7"/>
<polyline clip-path="url(#clip392)" style="stroke:#000000; stroke-linecap:round; stroke-linejoin:round; stroke-width:4; stroke-opacity:0.7; fill:none" points="1653.87,1141.81 1653.87,1241.31 1725.77,1241.31 1725.77,1141.81 1653.87,1141.81 "/>
<path clip-path="url(#clip392)" d="M1743.74 1133.77 L1743.74 1241.31 L1815.64 1241.31 L1815.64 1133.77 L1743.74 1133.77 L1743.74 1133.77  Z" fill="#4682b4" fill-rule="evenodd" fill-opacity="0.7"/>
<polyline clip-path="url(#clip392)" style="stroke:#000000; stroke-linecap:round; stroke-linejoin:round; stroke-width:4; stroke-opacity:0.7; fill:none" points="1743.74,1133.77 1743.74,1241.31 1815.64,1241.31 1815.64,1133.77 1743.74,1133.77 "/>
<path clip-path="url(#clip392)" d="M1833.62 1135.68 L1833.62 1241.31 L1905.52 1241.31 L1905.52 1135.68 L1833.62 1135.68 L1833.62 1135.68  Z" fill="#4682b4" fill-rule="evenodd" fill-opacity="0.7"/>
<polyline clip-path="url(#clip392)" style="stroke:#000000; stroke-linecap:round; stroke-linejoin:round; stroke-width:4; stroke-opacity:0.7; fill:none" points="1833.62,1135.68 1833.62,1241.31 1905.52,1241.31 1905.52,1135.68 1833.62,1135.68 "/>
<path clip-path="url(#clip392)" d="M1923.49 1140.09 L1923.49 1241.31 L1995.4 1241.31 L1995.4 1140.09 L1923.49 1140.09 L1923.49 1140.09  Z" fill="#4682b4" fill-rule="evenodd" fill-opacity="0.7"/>
<polyline clip-path="url(#clip392)" style="stroke:#000000; stroke-linecap:round; stroke-linejoin:round; stroke-width:4; stroke-opacity:0.7; fill:none" points="1923.49,1140.09 1923.49,1241.31 1995.4,1241.31 1995.4,1140.09 1923.49,1140.09 "/>
<path clip-path="url(#clip392)" d="M2013.37 1144.97 L2013.37 1241.31 L2085.27 1241.31 L2085.27 1144.97 L2013.37 1144.97 L2013.37 1144.97  Z" fill="#4682b4" fill-rule="evenodd" fill-opacity="0.7"/>
<polyline clip-path="url(#clip392)" style="stroke:#000000; stroke-linecap:round; stroke-linejoin:round; stroke-width:4; stroke-opacity:0.7; fill:none" points="2013.37,1144.97 2013.37,1241.31 2085.27,1241.31 2085.27,1144.97 2013.37,1144.97 "/>
<path clip-path="url(#clip392)" d="M2103.25 125.984 L2103.25 1241.31 L2175.15 1241.31 L2175.15 125.984 L2103.25 125.984 L2103.25 125.984  Z" fill="#4682b4" fill-rule="evenodd" fill-opacity="0.7"/>
<polyline clip-path="url(#clip392)" style="stroke:#000000; stroke-linecap:round; stroke-linejoin:round; stroke-width:4; stroke-opacity:0.7; fill:none" points="2103.25,125.984 2103.25,1241.31 2175.15,1241.31 2175.15,125.984 2103.25,125.984 "/>
<circle clip-path="url(#clip392)" style="fill:#4682b4; stroke:none; fill-opacity:0" cx="611.301" cy="194.406" r="2"/>
<circle clip-path="url(#clip392)" style="fill:#4682b4; stroke:none; fill-opacity:0" cx="701.177" cy="1136.61" r="2"/>
<circle clip-path="url(#clip392)" style="fill:#4682b4; stroke:none; fill-opacity:0" cx="791.053" cy="1137.5" r="2"/>
<circle clip-path="url(#clip392)" style="fill:#4682b4; stroke:none; fill-opacity:0" cx="880.93" cy="1145.24" r="2"/>
<circle clip-path="url(#clip392)" style="fill:#4682b4; stroke:none; fill-opacity:0" cx="970.806" cy="1125.73" r="2"/>
<circle clip-path="url(#clip392)" style="fill:#4682b4; stroke:none; fill-opacity:0" cx="1060.68" cy="1127.98" r="2"/>
<circle clip-path="url(#clip392)" style="fill:#4682b4; stroke:none; fill-opacity:0" cx="1150.56" cy="1128.98" r="2"/>
<circle clip-path="url(#clip392)" style="fill:#4682b4; stroke:none; fill-opacity:0" cx="1240.43" cy="1135.18" r="2"/>
<circle clip-path="url(#clip392)" style="fill:#4682b4; stroke:none; fill-opacity:0" cx="1330.31" cy="1124.69" r="2"/>
<circle clip-path="url(#clip392)" style="fill:#4682b4; stroke:none; fill-opacity:0" cx="1420.19" cy="1118.27" r="2"/>
<circle clip-path="url(#clip392)" style="fill:#4682b4; stroke:none; fill-opacity:0" cx="1510.06" cy="1145.23" r="2"/>
<circle clip-path="url(#clip392)" style="fill:#4682b4; stroke:none; fill-opacity:0" cx="1599.94" cy="1129.37" r="2"/>
<circle clip-path="url(#clip392)" style="fill:#4682b4; stroke:none; fill-opacity:0" cx="1689.82" cy="1141.81" r="2"/>
<circle clip-path="url(#clip392)" style="fill:#4682b4; stroke:none; fill-opacity:0" cx="1779.69" cy="1133.77" r="2"/>
<circle clip-path="url(#clip392)" style="fill:#4682b4; stroke:none; fill-opacity:0" cx="1869.57" cy="1135.68" r="2"/>
<circle clip-path="url(#clip392)" style="fill:#4682b4; stroke:none; fill-opacity:0" cx="1959.45" cy="1140.09" r="2"/>
<circle clip-path="url(#clip392)" style="fill:#4682b4; stroke:none; fill-opacity:0" cx="2049.32" cy="1144.97" r="2"/>
</svg>
