<?xml version="1.0" encoding="utf-8"?>
<svg xmlns="http://www.w3.org/2000/svg" xmlns:xlink="http://www.w3.org/1999/xlink" width="700" height="500" viewBox="0 0 2800 2000">
<defs>
  <clipPath id="clip540">
    <rect x="0" y="0" width="2800" height="2000"/>
  </clipPath>
</defs>
<path clip-path="url(#clip540)" d="M0 2000 L2800 2000 L2800 -4.44089e-14 L0 -4.44089e-14  Z" fill="#ffffff" fill-rule="evenodd" fill-opacity="1"/>
<defs>
  <clipPath id="clip541">
    <rect x="532" y="125" width="2142" height="1506"/>
  </clipPath>
</defs>
<path clip-path="url(#clip540)" d="M448.779 1630.83 L2674.02 1630.83 L2674.02 125.984 L448.779 125.984  Z" fill="#ffffff" fill-rule="evenodd" fill-opacity="1"/>
<defs>
  <clipPath id="clip542">
    <rect x="448" y="125" width="2226" height="1506"/>
  </clipPath>
</defs>
<polyline clip-path="url(#clip542)" style="stroke:#000000; stroke-linecap:round; stroke-linejoin:round; stroke-width:2; stroke-opacity:0.1; fill:none" points="503.394,1630.83 503.394,125.984 "/>
<polyline clip-path="url(#clip542)" style="stroke:#000000; stroke-linecap:round; stroke-linejoin:round; stroke-width:2; stroke-opacity:0.1; fill:none" points="921.577,1630.83 921.577,125.984 "/>
<polyline clip-path="url(#clip542)" style="stroke:#000000; stroke-linecap:round; stroke-linejoin:round; stroke-width:2; stroke-opacity:0.1; fill:none" points="1339.76,1630.83 1339.76,125.984 "/>
<polyline clip-path="url(#clip542)" style="stroke:#000000; stroke-linecap:round; stroke-linejoin:round; stroke-width:2; stroke-opacity:0.1; fill:none" points="1757.94,1630.83 1757.94,125.984 "/>
<polyline clip-path="url(#clip542)" style="stroke:#000000; stroke-linecap:round; stroke-linejoin:round; stroke-width:2; stroke-opacity:0.1; fill:none" points="2176.13,1630.83 2176.13,125.984 "/>
<polyline clip-path="url(#clip542)" style="stroke:#000000; stroke-linecap:round; stroke-linejoin:round; stroke-width:2; stroke-opacity:0.1; fill:none" points="2594.31,1630.83 2594.31,125.984 "/>
<polyline clip-path="url(#clip542)" style="stroke:#000000; stroke-linecap:round; stroke-linejoin:round; stroke-width:2; stroke-opacity:0.1; fill:none" points="448.779,1404.59 2674.02,1404.59 "/>
<polyline clip-path="url(#clip542)" style="stroke:#000000; stroke-linecap:round; stroke-linejoin:round; stroke-width:2; stroke-opacity:0.1; fill:none" points="448.779,1057.05 2674.02,1057.05 "/>
<polyline clip-path="url(#clip542)" style="stroke:#000000; stroke-linecap:round; stroke-linejoin:round; stroke-width:2; stroke-opacity:0.1; fill:none" points="448.779,709.503 2674.02,709.503 "/>
<polyline clip-path="url(#clip542)" style="stroke:#000000; stroke-linecap:round; stroke-linejoin:round; stroke-width:2; stroke-opacity:0.1; fill:none" points="448.779,361.961 2674.02,361.961 "/>
<polyline clip-path="url(#clip540)" style="stroke:#000000; stroke-linecap:round; stroke-linejoin:round; stroke-width:4; stroke-opacity:1; fill:none" points="448.779,1630.83 2674.02,1630.83 "/>
<polyline clip-path="url(#clip540)" style="stroke:#000000; stroke-linecap:round; stroke-linejoin:round; stroke-width:4; stroke-opacity:1; fill:none" points="503.394,1630.83 503.394,1611.93 "/>
<polyline clip-path="url(#clip540)" style="stroke:#000000; stroke-linecap:round; stroke-linejoin:round; stroke-width:4; stroke-opacity:1; fill:none" points="921.577,1630.83 921.577,1611.93 "/>
<polyline clip-path="url(#clip540)" style="stroke:#000000; stroke-linecap:round; stroke-linejoin:round; stroke-width:4; stroke-opacity:1; fill:none" points="1339.76,1630.83 1339.76,1611.93 "/>
<polyline clip-path="url(#clip540)" style="stroke:#000000; stroke-linecap:round; stroke-linejoin:round; stroke-width:4; stroke-opacity:1; fill:none" points="1757.94,1630.83 1757.94,1611.93 "/>
<polyline clip-path="url(#clip540)" style="stroke:#000000; stroke-linecap:round; stroke-linejoin:round; stroke-width:4; stroke-opacity:1; fill:none" points="2176.13,1630.83 2176.13,1611.93 "/>
<polyline clip-path="url(#clip540)" style="stroke:#000000; stroke-linecap:round; stroke-linejoin:round; stroke-width:4; stroke-opacity:1; fill:none" points="2594.31,1630.83 2594.31,1611.93 "/>
<path clip-path="url(#clip540)" d="M503.394 1667.88 Q498.88 1667.88 496.594 1672.34 Q494.337 1676.76 494.337 1685.67 Q494.337 1694.56 496.594 1699.01 Q498.88 1703.44 503.394 1703.44 Q507.936 1703.44 510.193 1699.01 Q512.479 1694.56 512.479 1685.67 Q512.479 1676.76 510.193 1672.34 Q507.936 1667.88 503.394 1667.88 M503.394 1663.25 Q510.656 1663.25 514.476 1669.01 Q518.324 1674.74 518.324 1685.67 Q518.324 1696.58 514.476 1702.34 Q510.656 1708.07 503.394 1708.07 Q496.131 1708.07 492.283 1702.34 Q488.463 1696.58 488.463 1685.67 Q488.463 1674.74 492.283 1669.01 Q496.131 1663.25 503.394 1663.25 Z" fill="#000000" fill-rule="nonzero" fill-opacity="1" /><path clip-path="url(#clip540)" d="M889.951 1664.03 L912.896 1664.03 L912.896 1668.95 L895.304 1668.95 L895.304 1679.54 Q896.577 1679.11 897.85 1678.9 Q899.123 1678.67 900.396 1678.67 Q907.63 1678.67 911.855 1682.64 Q916.079 1686.6 916.079 1693.37 Q916.079 1700.34 911.739 1704.22 Q907.399 1708.07 899.499 1708.07 Q896.78 1708.07 893.944 1707.61 Q891.137 1707.14 888.128 1706.22 L888.128 1700.34 Q890.732 1701.76 893.51 1702.46 Q896.288 1703.15 899.384 1703.15 Q904.389 1703.15 907.312 1700.52 Q910.234 1697.89 910.234 1693.37 Q910.234 1688.86 907.312 1686.22 Q904.389 1683.59 899.384 1683.59 Q897.04 1683.59 894.696 1684.11 Q892.381 1684.63 889.951 1685.73 L889.951 1664.03 Z" fill="#000000" fill-rule="nonzero" fill-opacity="1" /><path clip-path="url(#clip540)" d="M940.095 1667.88 Q935.581 1667.88 933.296 1672.34 Q931.039 1676.76 931.039 1685.67 Q931.039 1694.56 933.296 1699.01 Q935.581 1703.44 940.095 1703.44 Q944.638 1703.44 946.895 1699.01 Q949.181 1694.56 949.181 1685.67 Q949.181 1676.76 946.895 1672.34 Q944.638 1667.88 940.095 1667.88 M940.095 1663.25 Q947.358 1663.25 951.177 1669.01 Q955.026 1674.74 955.026 1685.67 Q955.026 1696.58 951.177 1702.34 Q947.358 1708.07 940.095 1708.07 Q932.833 1708.07 928.984 1702.34 Q925.165 1696.58 925.165 1685.67 Q925.165 1674.74 928.984 1669.01 Q932.833 1663.25 940.095 1663.25 Z" fill="#000000" fill-rule="nonzero" fill-opacity="1" /><path clip-path="url(#clip540)" d="M1289.27 1702.31 L1298.82 1702.31 L1298.82 1669.36 L1288.43 1671.44 L1288.43 1666.11 L1298.76 1664.03 L1304.6 1664.03 L1304.6 1702.31 L1314.15 1702.31 L1314.15 1707.23 L1289.27 1707.23 L1289.27 1702.31 Z" fill="#000000" fill-rule="nonzero" fill-opacity="1" /><path clip-path="url(#clip540)" d="M1338.46 1667.88 Q1333.94 1667.88 1331.66 1672.34 Q1329.4 1676.76 1329.4 1685.67 Q1329.4 1694.56 1331.66 1699.01 Q1333.94 1703.44 1338.46 1703.44 Q1343 1703.44 1345.26 1699.01 Q1347.54 1694.56 1347.54 1685.67 Q1347.54 1676.76 1345.26 1672.34 Q1343 1667.88 1338.46 1667.88 M1338.46 1663.25 Q1345.72 1663.25 1349.54 1669.01 Q1353.39 1674.74 1353.39 1685.67 Q1353.39 1696.58 1349.54 1702.34 Q1345.72 1708.07 1338.46 1708.07 Q1331.2 1708.07 1327.35 1702.34 Q1323.53 1696.58 1323.53 1685.67 Q1323.53 1674.74 1327.35 1669.01 Q1331.2 1663.25 1338.46 1663.25 Z" fill="#000000" fill-rule="nonzero" fill-opacity="1" /><path clip-path="url(#clip540)" d="M1376.16 1667.88 Q1371.65 1667.88 1369.36 1672.34 Q1367.1 1676.76 1367.1 1685.67 Q1367.1 1694.56 1369.36 1699.01 Q1371.65 1703.44 1376.16 1703.44 Q1380.7 1703.44 1382.96 1699.01 Q1385.25 1694.56 1385.25 1685.67 Q1385.25 1676.76 1382.96 1672.34 Q1380.7 1667.88 1376.16 1667.88 M1376.16 1663.25 Q1383.42 1663.25 1387.24 1669.01 Q1391.09 1674.74 1391.09 1685.67 Q1391.09 1696.58 1387.24 1702.34 Q1383.42 1708.07 1376.16 1708.07 Q1368.9 1708.07 1365.05 1702.34 Q1361.23 1696.58 1361.23 1685.67 Q1361.23 1674.74 1365.05 1669.01 Q1368.9 1663.25 1376.16 1663.25 Z" fill="#000000" fill-rule="nonzero" fill-opacity="1" /><path clip-path="url(#clip540)" d="M1707.45 1702.31 L1717 1702.31 L1717 1669.36 L1706.61 1671.44 L1706.61 1666.11 L1716.94 1664.03 L1722.79 1664.03 L1722.79 1702.31 L1732.34 1702.31 L1732.34 1707.23 L1707.45 1707.23 L1707.45 1702.31 Z" fill="#000000" fill-rule="nonzero" fill-opacity="1" /><path clip-path="url(#clip540)" d="M1744.2 1664.03 L1767.14 1664.03 L1767.14 1668.95 L1749.55 1668.95 L1749.55 1679.54 Q1750.83 1679.11 1752.1 1678.9 Q1753.37 1678.67 1754.64 1678.67 Q1761.88 1678.67 1766.1 1682.64 Q1770.33 1686.6 1770.33 1693.37 Q1770.33 1700.34 1765.99 1704.22 Q1761.65 1708.07 1753.75 1708.07 Q1751.03 1708.07 1748.19 1707.61 Q1745.39 1707.14 1742.38 1706.22 L1742.38 1700.34 Q1744.98 1701.76 1747.76 1702.46 Q1750.54 1703.15 1753.63 1703.15 Q1758.64 1703.15 1761.56 1700.52 Q1764.48 1697.89 1764.48 1693.37 Q1764.48 1688.86 1761.56 1686.22 Q1758.64 1683.59 1753.63 1683.59 Q1751.29 1683.59 1748.94 1684.11 Q1746.63 1684.63 1744.2 1685.73 L1744.2 1664.03 Z" fill="#000000" fill-rule="nonzero" fill-opacity="1" /><path clip-path="url(#clip540)" d="M1794.34 1667.88 Q1789.83 1667.88 1787.54 1672.34 Q1785.29 1676.76 1785.29 1685.67 Q1785.29 1694.56 1787.54 1699.01 Q1789.83 1703.44 1794.34 1703.44 Q1798.89 1703.44 1801.14 1699.01 Q1803.43 1694.56 1803.43 1685.67 Q1803.43 1676.76 1801.14 1672.34 Q1798.89 1667.88 1794.34 1667.88 M1794.34 1663.25 Q1801.61 1663.25 1805.43 1669.01 Q1809.27 1674.74 1809.27 1685.67 Q1809.27 1696.58 1805.43 1702.34 Q1801.61 1708.07 1794.34 1708.07 Q1787.08 1708.07 1783.23 1702.34 Q1779.41 1696.58 1779.41 1685.67 Q1779.41 1674.74 1783.23 1669.01 Q1787.08 1663.25 1794.34 1663.25 Z" fill="#000000" fill-rule="nonzero" fill-opacity="1" /><path clip-path="url(#clip540)" d="M2130.74 1702.31 L2151.14 1702.31 L2151.14 1707.23 L2123.71 1707.23 L2123.71 1702.31 Q2127.04 1698.87 2132.77 1693.08 Q2138.53 1687.27 2140 1685.59 Q2142.81 1682.43 2143.91 1680.26 Q2145.04 1678.06 2145.04 1675.95 Q2145.04 1672.51 2142.61 1670.34 Q2140.2 1668.17 2136.33 1668.17 Q2133.58 1668.17 2130.51 1669.12 Q2127.47 1670.08 2124 1672.02 L2124 1666.11 Q2127.53 1664.7 2130.6 1663.97 Q2133.66 1663.25 2136.21 1663.25 Q2142.92 1663.25 2146.92 1666.61 Q2150.91 1669.96 2150.91 1675.58 Q2150.91 1678.24 2149.9 1680.64 Q2148.91 1683.01 2146.28 1686.25 Q2145.56 1687.09 2141.68 1691.11 Q2137.8 1695.11 2130.74 1702.31 Z" fill="#000000" fill-rule="nonzero" fill-opacity="1" /><path clip-path="url(#clip540)" d="M2175.91 1667.88 Q2171.4 1667.88 2169.11 1672.34 Q2166.85 1676.76 2166.85 1685.67 Q2166.85 1694.56 2169.11 1699.01 Q2171.4 1703.44 2175.91 1703.44 Q2180.45 1703.44 2182.71 1699.01 Q2185 1694.56 2185 1685.67 Q2185 1676.76 2182.71 1672.34 Q2180.45 1667.88 2175.91 1667.88 M2175.91 1663.25 Q2183.17 1663.25 2186.99 1669.01 Q2190.84 1674.74 2190.84 1685.67 Q2190.84 1696.58 2186.99 1702.34 Q2183.17 1708.07 2175.91 1708.07 Q2168.65 1708.07 2164.8 1702.34 Q2160.98 1696.58 2160.98 1685.67 Q2160.98 1674.74 2164.8 1669.01 Q2168.65 1663.25 2175.91 1663.25 Z" fill="#000000" fill-rule="nonzero" fill-opacity="1" /><path clip-path="url(#clip540)" d="M2213.61 1667.88 Q2209.1 1667.88 2206.81 1672.34 Q2204.56 1676.76 2204.56 1685.67 Q2204.56 1694.56 2206.81 1699.01 Q2209.1 1703.44 2213.61 1703.44 Q2218.15 1703.44 2220.41 1699.01 Q2222.7 1694.56 2222.7 1685.67 Q2222.7 1676.76 2220.41 1672.34 Q2218.15 1667.88 2213.61 1667.88 M2213.61 1663.25 Q2220.87 1663.25 2224.69 1669.01 Q2228.54 1674.74 2228.54 1685.67 Q2228.54 1696.58 2224.69 1702.34 Q2220.87 1708.07 2213.61 1708.07 Q2206.35 1708.07 2202.5 1702.34 Q2198.68 1696.58 2198.68 1685.67 Q2198.68 1674.74 2202.5 1669.01 Q2206.35 1663.25 2213.61 1663.25 Z" fill="#000000" fill-rule="nonzero" fill-opacity="1" /><path clip-path="url(#clip540)" d="M2548.93 1702.31 L2569.32 1702.31 L2569.32 1707.23 L2541.89 1707.23 L2541.89 1702.31 Q2545.22 1698.87 2550.95 1693.08 Q2556.71 1687.27 2558.18 1685.59 Q2560.99 1682.43 2562.09 1680.26 Q2563.22 1678.06 2563.22 1675.95 Q2563.22 1672.51 2560.79 1670.34 Q2558.39 1668.17 2554.51 1668.17 Q2551.76 1668.17 2548.69 1669.12 Q2545.66 1670.08 2542.18 1672.02 L2542.18 1666.11 Q2545.71 1664.7 2548.78 1663.97 Q2551.85 1663.25 2554.39 1663.25 Q2561.11 1663.25 2565.1 1666.61 Q2569.09 1669.96 2569.09 1675.58 Q2569.09 1678.24 2568.08 1680.64 Q2567.1 1683.01 2564.46 1686.25 Q2563.74 1687.09 2559.86 1691.11 Q2555.99 1695.11 2548.93 1702.31 Z" fill="#000000" fill-rule="nonzero" fill-opacity="1" /><path clip-path="url(#clip540)" d="M2581.65 1664.03 L2604.6 1664.03 L2604.6 1668.95 L2587 1668.95 L2587 1679.54 Q2588.28 1679.11 2589.55 1678.9 Q2590.82 1678.67 2592.1 1678.67 Q2599.33 1678.67 2603.55 1682.64 Q2607.78 1686.6 2607.78 1693.37 Q2607.78 1700.34 2603.44 1704.22 Q2599.1 1708.07 2591.2 1708.07 Q2588.48 1708.07 2585.64 1707.61 Q2582.84 1707.14 2579.83 1706.22 L2579.83 1700.34 Q2582.43 1701.76 2585.21 1702.46 Q2587.99 1703.15 2591.08 1703.15 Q2596.09 1703.15 2599.01 1700.52 Q2601.93 1697.89 2601.93 1693.37 Q2601.93 1688.86 2599.01 1686.22 Q2596.09 1683.59 2591.08 1683.59 Q2588.74 1683.59 2586.4 1684.11 Q2584.08 1684.63 2581.65 1685.73 L2581.65 1664.03 Z" fill="#000000" fill-rule="nonzero" fill-opacity="1" /><path clip-path="url(#clip540)" d="M2631.8 1667.88 Q2627.28 1667.88 2625 1672.34 Q2622.74 1676.76 2622.74 1685.67 Q2622.74 1694.56 2625 1699.01 Q2627.28 1703.44 2631.8 1703.44 Q2636.34 1703.44 2638.6 1699.01 Q2640.88 1694.56 2640.88 1685.67 Q2640.88 1676.76 2638.6 1672.34 Q2636.34 1667.88 2631.8 1667.88 M2631.8 1663.25 Q2639.06 1663.25 2642.88 1669.01 Q2646.73 1674.74 2646.73 1685.67 Q2646.73 1696.58 2642.88 1702.34 Q2639.06 1708.07 2631.8 1708.07 Q2624.53 1708.07 2620.68 1702.34 Q2616.86 1696.58 2616.86 1685.67 Q2616.86 1674.74 2620.68 1669.01 Q2624.53 1663.25 2631.8 1663.25 Z" fill="#000000" fill-rule="nonzero" fill-opacity="1" /><path clip-path="url(#clip540)" d="M1508.74 1747.14 L1515.17 1747.14 L1515.17 1789.24 L1538.31 1789.24 L1538.31 1794.66 L1508.74 1794.66 L1508.74 1747.14 Z" fill="#000000" fill-rule="nonzero" fill-opacity="1" /><path clip-path="url(#clip540)" d="M1561 1776.74 Q1553.9 1776.74 1551.16 1778.36 Q1548.43 1779.98 1548.43 1783.9 Q1548.43 1787.02 1550.46 1788.86 Q1552.53 1790.68 1556.07 1790.68 Q1560.94 1790.68 1563.86 1787.24 Q1566.82 1783.77 1566.82 1778.04 L1566.82 1776.74 L1561 1776.74 M1572.68 1774.32 L1572.68 1794.66 L1566.82 1794.66 L1566.82 1789.24 Q1564.82 1792.49 1561.83 1794.05 Q1558.84 1795.58 1554.51 1795.58 Q1549.03 1795.58 1545.79 1792.52 Q1542.57 1789.44 1542.57 1784.28 Q1542.57 1778.26 1546.58 1775.21 Q1550.62 1772.15 1558.61 1772.15 L1566.82 1772.15 L1566.82 1771.58 Q1566.82 1767.54 1564.15 1765.34 Q1561.51 1763.11 1556.7 1763.11 Q1553.65 1763.11 1550.75 1763.85 Q1547.85 1764.58 1545.18 1766.04 L1545.18 1760.63 Q1548.4 1759.39 1551.42 1758.78 Q1554.44 1758.15 1557.31 1758.15 Q1565.04 1758.15 1568.86 1762.16 Q1572.68 1766.17 1572.68 1774.32 Z" fill="#000000" fill-rule="nonzero" fill-opacity="1" /><path clip-path="url(#clip540)" d="M1608.2 1776.42 Q1608.2 1770.05 1605.56 1766.55 Q1602.95 1763.05 1598.21 1763.05 Q1593.5 1763.05 1590.85 1766.55 Q1588.24 1770.05 1588.24 1776.42 Q1588.24 1782.75 1590.85 1786.25 Q1593.5 1789.75 1598.21 1789.75 Q1602.95 1789.75 1605.56 1786.25 Q1608.2 1782.75 1608.2 1776.42 M1614.06 1790.23 Q1614.06 1799.33 1610.02 1803.76 Q1605.97 1808.21 1597.63 1808.21 Q1594.55 1808.21 1591.81 1807.74 Q1589.07 1807.29 1586.49 1806.34 L1586.49 1800.64 Q1589.07 1802.04 1591.59 1802.71 Q1594.1 1803.38 1596.71 1803.38 Q1602.47 1803.38 1605.34 1800.35 Q1608.2 1797.36 1608.2 1791.28 L1608.2 1788.39 Q1606.39 1791.54 1603.55 1793.1 Q1600.72 1794.66 1596.77 1794.66 Q1590.22 1794.66 1586.21 1789.66 Q1582.2 1784.66 1582.2 1776.42 Q1582.2 1768.14 1586.21 1763.15 Q1590.22 1758.15 1596.77 1758.15 Q1600.72 1758.15 1603.55 1759.71 Q1606.39 1761.27 1608.2 1764.42 L1608.2 1759.01 L1614.06 1759.01 L1614.06 1790.23 Z" fill="#000000" fill-rule="nonzero" fill-opacity="1" /><polyline clip-path="url(#clip540)" style="stroke:#000000; stroke-linecap:round; stroke-linejoin:round; stroke-width:4; stroke-opacity:1; fill:none" points="448.779,1630.83 448.779,125.984 "/>
<polyline clip-path="url(#clip540)" style="stroke:#000000; stroke-linecap:round; stroke-linejoin:round; stroke-width:4; stroke-opacity:1; fill:none" points="448.779,1404.59 467.676,1404.59 "/>
<polyline clip-path="url(#clip540)" style="stroke:#000000; stroke-linecap:round; stroke-linejoin:round; stroke-width:4; stroke-opacity:1; fill:none" points="448.779,1057.05 467.676,1057.05 "/>
<polyline clip-path="url(#clip540)" style="stroke:#000000; stroke-linecap:round; stroke-linejoin:round; stroke-width:4; stroke-opacity:1; fill:none" points="448.779,709.503 467.676,709.503 "/>
<polyline clip-path="url(#clip540)" style="stroke:#000000; stroke-linecap:round; stroke-linejoin:round; stroke-width:4; stroke-opacity:1; fill:none" points="448.779,361.961 467.676,361.961 "/>
<path clip-path="url(#clip540)" d="M335.309 1386.84 Q330.795 1386.84 328.51 1391.29 Q326.253 1395.72 326.253 1404.63 Q326.253 1413.51 328.51 1417.97 Q330.795 1422.4 335.309 1422.4 Q339.852 1422.4 342.109 1417.97 Q344.395 1413.51 344.395 1404.63 Q344.395 1395.72 342.109 1391.29 Q339.852 1386.84 335.309 1386.84 M335.309 1382.21 Q342.572 1382.21 346.391 1387.96 Q350.24 1393.69 350.24 1404.63 Q350.24 1415.54 346.391 1421.3 Q342.572 1427.03 335.309 1427.03 Q328.047 1427.03 324.198 1421.3 Q320.379 1415.54 320.379 1404.63 Q320.379 1393.69 324.198 1387.96 Q328.047 1382.21 335.309 1382.21 Z" fill="#000000" fill-rule="nonzero" fill-opacity="1" /><path clip-path="url(#clip540)" d="M360.512 1418.84 L366.617 1418.84 L366.617 1426.19 L360.512 1426.19 L360.512 1418.84 Z" fill="#000000" fill-rule="nonzero" fill-opacity="1" /><path clip-path="url(#clip540)" d="M391.848 1386.84 Q387.335 1386.84 385.049 1391.29 Q382.792 1395.72 382.792 1404.63 Q382.792 1413.51 385.049 1417.97 Q387.335 1422.4 391.848 1422.4 Q396.391 1422.4 398.648 1417.97 Q400.934 1413.51 400.934 1404.63 Q400.934 1395.72 398.648 1391.29 Q396.391 1386.84 391.848 1386.84 M391.848 1382.21 Q399.111 1382.21 402.93 1387.96 Q406.779 1393.69 406.779 1404.63 Q406.779 1415.54 402.93 1421.3 Q399.111 1427.03 391.848 1427.03 Q384.586 1427.03 380.737 1421.3 Q376.918 1415.54 376.918 1404.63 Q376.918 1393.69 380.737 1387.96 Q384.586 1382.21 391.848 1382.21 Z" fill="#000000" fill-rule="nonzero" fill-opacity="1" /><path clip-path="url(#clip540)" d="M336.843 1039.29 Q332.329 1039.29 330.043 1043.75 Q327.786 1048.18 327.786 1057.09 Q327.786 1065.97 330.043 1070.43 Q332.329 1074.85 336.843 1074.85 Q341.386 1074.85 343.643 1070.43 Q345.928 1065.97 345.928 1057.09 Q345.928 1048.18 343.643 1043.75 Q341.386 1039.29 336.843 1039.29 M336.843 1034.66 Q344.106 1034.66 347.925 1040.42 Q351.773 1046.15 351.773 1057.09 Q351.773 1068 347.925 1073.75 Q344.106 1079.48 336.843 1079.48 Q329.58 1079.48 325.732 1073.75 Q321.912 1068 321.912 1057.09 Q321.912 1046.15 325.732 1040.42 Q329.58 1034.66 336.843 1034.66 Z" fill="#000000" fill-rule="nonzero" fill-opacity="1" /><path clip-path="url(#clip540)" d="M362.045 1071.3 L368.151 1071.3 L368.151 1078.65 L362.045 1078.65 L362.045 1071.3 Z" fill="#000000" fill-rule="nonzero" fill-opacity="1" /><path clip-path="url(#clip540)" d="M381.895 1073.73 L391.443 1073.73 L391.443 1040.77 L381.056 1042.85 L381.056 1037.53 L391.385 1035.45 L397.23 1035.45 L397.23 1073.73 L406.779 1073.73 L406.779 1078.65 L381.895 1078.65 L381.895 1073.73 Z" fill="#000000" fill-rule="nonzero" fill-opacity="1" /><path clip-path="url(#clip540)" d="M337.306 691.752 Q332.792 691.752 330.506 696.208 Q328.249 700.635 328.249 709.547 Q328.249 718.43 330.506 722.886 Q332.792 727.313 337.306 727.313 Q341.849 727.313 344.106 722.886 Q346.391 718.43 346.391 709.547 Q346.391 700.635 344.106 696.208 Q341.849 691.752 337.306 691.752 M337.306 687.122 Q344.569 687.122 348.388 692.88 Q352.236 698.609 352.236 709.547 Q352.236 720.455 348.388 726.213 Q344.569 731.942 337.306 731.942 Q330.043 731.942 326.195 726.213 Q322.375 720.455 322.375 709.547 Q322.375 698.609 326.195 692.88 Q330.043 687.122 337.306 687.122 Z" fill="#000000" fill-rule="nonzero" fill-opacity="1" /><path clip-path="url(#clip540)" d="M362.508 723.754 L368.614 723.754 L368.614 731.103 L362.508 731.103 L362.508 723.754 Z" fill="#000000" fill-rule="nonzero" fill-opacity="1" /><path clip-path="url(#clip540)" d="M386.38 726.184 L406.779 726.184 L406.779 731.103 L379.348 731.103 L379.348 726.184 Q382.676 722.741 388.405 716.954 Q394.163 711.138 395.639 709.46 Q398.446 706.306 399.545 704.136 Q400.674 701.937 400.674 699.824 Q400.674 696.381 398.243 694.211 Q395.841 692.041 391.964 692.041 Q389.215 692.041 386.148 692.996 Q383.11 693.951 379.638 695.889 L379.638 689.987 Q383.168 688.569 386.235 687.845 Q389.302 687.122 391.848 687.122 Q398.561 687.122 402.554 690.478 Q406.547 693.835 406.547 699.448 Q406.547 702.11 405.535 704.512 Q404.551 706.885 401.918 710.125 Q401.194 710.964 397.317 714.986 Q393.44 718.979 386.38 726.184 Z" fill="#000000" fill-rule="nonzero" fill-opacity="1" /><path clip-path="url(#clip540)" d="M336.12 344.21 Q331.606 344.21 329.32 348.666 Q327.063 353.093 327.063 362.005 Q327.063 370.888 329.32 375.344 Q331.606 379.771 336.12 379.771 Q340.662 379.771 342.919 375.344 Q345.205 370.888 345.205 362.005 Q345.205 353.093 342.919 348.666 Q340.662 344.21 336.12 344.21 M336.12 339.58 Q343.382 339.58 347.202 345.338 Q351.05 351.067 351.05 362.005 Q351.05 372.913 347.202 378.671 Q343.382 384.401 336.12 384.401 Q328.857 384.401 325.008 378.671 Q321.189 372.913 321.189 362.005 Q321.189 351.067 325.008 345.338 Q328.857 339.58 336.12 339.58 Z" fill="#000000" fill-rule="nonzero" fill-opacity="1" /><path clip-path="url(#clip540)" d="M361.322 376.212 L367.427 376.212 L367.427 383.561 L361.322 383.561 L361.322 376.212 Z" fill="#000000" fill-rule="nonzero" fill-opacity="1" /><path clip-path="url(#clip540)" d="M397.867 360.269 Q402.062 361.166 404.406 364.001 Q406.779 366.837 406.779 371.004 Q406.779 377.398 402.381 380.899 Q397.983 384.401 389.881 384.401 Q387.161 384.401 384.267 383.851 Q381.403 383.33 378.336 382.259 L378.336 376.617 Q380.766 378.035 383.66 378.758 Q386.553 379.482 389.707 379.482 Q395.205 379.482 398.069 377.311 Q400.963 375.141 400.963 371.004 Q400.963 367.184 398.272 365.043 Q395.61 362.873 390.836 362.873 L385.801 362.873 L385.801 358.07 L391.067 358.07 Q395.378 358.07 397.664 356.363 Q399.95 354.626 399.95 351.386 Q399.95 348.058 397.578 346.293 Q395.234 344.499 390.836 344.499 Q388.434 344.499 385.685 345.02 Q382.936 345.541 379.638 346.64 L379.638 341.432 Q382.965 340.506 385.859 340.043 Q388.781 339.58 391.356 339.58 Q398.012 339.58 401.889 342.618 Q405.766 345.628 405.766 350.778 Q405.766 354.366 403.712 356.854 Q401.657 359.314 397.867 360.269 Z" fill="#000000" fill-rule="nonzero" fill-opacity="1" /><path clip-path="url(#clip540)" d="M222.937 1043.9 L246.585 1052.62 L246.585 1035.15 L222.937 1043.9 M216.603 1047.53 L216.603 1040.24 L264.123 1022.13 L264.123 1028.81 L251.933 1033.14 L251.933 1054.56 L264.123 1058.89 L264.123 1065.67 L216.603 1047.53 Z" fill="#000000" fill-rule="nonzero" fill-opacity="1" /><path clip-path="url(#clip540)" d="M220.263 980.753 L227.043 980.753 Q224.019 983.999 222.523 987.691 Q221.027 991.351 221.027 995.489 Q221.027 1003.64 226.024 1007.97 Q230.989 1012.29 240.411 1012.29 Q249.8 1012.29 254.797 1007.97 Q259.762 1003.64 259.762 995.489 Q259.762 991.351 258.266 987.691 Q256.77 983.999 253.747 980.753 L260.463 980.753 Q262.754 984.126 263.9 987.914 Q265.046 991.67 265.046 995.871 Q265.046 1006.66 258.457 1012.87 Q251.837 1019.07 240.411 1019.07 Q228.952 1019.07 222.364 1012.87 Q215.743 1006.66 215.743 995.871 Q215.743 991.606 216.889 987.85 Q218.003 984.063 220.263 980.753 Z" fill="#000000" fill-rule="nonzero" fill-opacity="1" /><path clip-path="url(#clip540)" d="M216.603 970.822 L216.603 943.513 L222.014 943.513 L222.014 964.393 L236.018 964.393 L236.018 945.55 L241.429 945.55 L241.429 964.393 L264.123 964.393 L264.123 970.822 L216.603 970.822 Z" fill="#000000" fill-rule="nonzero" fill-opacity="1" /><path clip-path="url(#clip540)" d="M232.581 899.049 Q232.581 903.759 236.273 906.497 Q239.933 909.234 246.331 909.234 Q252.728 909.234 256.42 906.528 Q260.081 903.791 260.081 899.049 Q260.081 894.37 256.389 891.633 Q252.696 888.895 246.331 888.895 Q239.997 888.895 236.305 891.633 Q232.581 894.37 232.581 899.049 M227.616 899.049 Q227.616 891.41 232.581 887.049 Q237.546 882.689 246.331 882.689 Q255.084 882.689 260.081 887.049 Q265.046 891.41 265.046 899.049 Q265.046 906.719 260.081 911.08 Q255.084 915.409 246.331 915.409 Q237.546 915.409 232.581 911.08 Q227.616 906.719 227.616 899.049 Z" fill="#000000" fill-rule="nonzero" fill-opacity="1" /><path clip-path="url(#clip540)" d="M214.598 854.934 L219.467 854.934 L219.467 860.536 Q219.467 863.687 220.741 864.928 Q222.014 866.138 225.324 866.138 L228.475 866.138 L228.475 856.494 L233.026 856.494 L233.026 866.138 L264.123 866.138 L264.123 872.026 L233.026 872.026 L233.026 877.628 L228.475 877.628 L228.475 872.026 L225.992 872.026 Q220.04 872.026 217.335 869.257 Q214.598 866.488 214.598 860.472 L214.598 854.934 Z" fill="#000000" fill-rule="nonzero" fill-opacity="1" /><path clip-path="url(#clip540)" d="M214.311 821.769 L279.496 821.769 L279.496 827.18 L214.311 827.18 L214.311 821.769 Z" fill="#000000" fill-rule="nonzero" fill-opacity="1" /><path clip-path="url(#clip540)" d="M257.343 774.695 L244.58 774.695 L244.58 785.198 L239.297 785.198 L239.297 768.329 L259.699 768.329 Q262.34 772.053 263.709 776.541 Q265.046 781.028 265.046 786.121 Q265.046 797.261 258.553 803.563 Q252.028 809.833 240.411 809.833 Q228.761 809.833 222.268 803.563 Q215.743 797.261 215.743 786.121 Q215.743 781.474 216.889 777.305 Q218.035 773.103 220.263 769.57 L227.106 769.57 Q224.083 773.135 222.555 777.145 Q221.027 781.156 221.027 785.58 Q221.027 794.301 225.897 798.693 Q230.767 803.054 240.411 803.054 Q250.023 803.054 254.893 798.693 Q259.762 794.301 259.762 785.58 Q259.762 782.174 259.189 779.501 Q258.585 776.827 257.343 774.695 Z" fill="#000000" fill-rule="nonzero" fill-opacity="1" /><path clip-path="url(#clip540)" d="M274.945 729.753 L279.496 729.753 L279.496 763.618 L274.945 763.618 L274.945 729.753 Z" fill="#000000" fill-rule="nonzero" fill-opacity="1" /><path clip-path="url(#clip540)" d="M218.353 718.454 L228.475 718.454 L228.475 706.391 L233.026 706.391 L233.026 718.454 L252.378 718.454 Q256.739 718.454 257.98 717.276 Q259.221 716.066 259.221 712.406 L259.221 706.391 L264.123 706.391 L264.123 712.406 Q264.123 719.186 261.608 721.764 Q259.062 724.342 252.378 724.342 L233.026 724.342 L233.026 728.639 L228.475 728.639 L228.475 724.342 L218.353 724.342 L218.353 718.454 Z" fill="#000000" fill-rule="nonzero" fill-opacity="1" /><path clip-path="url(#clip540)" d="M214.311 691.145 L279.496 691.145 L279.496 696.556 L214.311 696.556 L214.311 691.145 Z" fill="#000000" fill-rule="nonzero" fill-opacity="1" /><polyline clip-path="url(#clip542)" style="stroke:#ff0000; stroke-linecap:round; stroke-linejoin:round; stroke-width:8; stroke-opacity:1; fill:none" stroke-dasharray="32, 20" points="511.757,348.067 520.121,480.8 528.485,286.019 536.848,412.348 545.212,479.002 553.576,554.617 561.939,557.732 570.303,428.951 578.667,487.962 587.03,453.995 595.394,701.272 603.758,687.09 612.121,626.235 620.485,710.295 628.849,683.832 637.212,874.482 645.576,572.479 653.94,642.781 662.303,857.278 670.667,713.097 679.031,867.739 687.394,848.041 695.758,778.972 704.122,967.091 712.485,904.499 720.849,893.403 729.213,966.624 737.576,1004.72 745.94,845.599 754.304,936.68 762.667,987.076 771.031,1029.74 779.395,985.579 787.758,1055.25 796.122,1022.22 804.486,1002.88 812.849,1041.23 821.213,990.362 829.577,962.498 837.94,1088.47 846.304,1046.88 854.668,1043.24 863.031,1060.4 871.395,1187.77 879.759,1108.76 888.122,981.073 896.486,1239.78 904.85,1162.32 913.213,1078.59 921.577,1201.7 929.941,1132.24 938.304,1165.09 946.668,1141.9 955.032,1184.26 963.395,1103.52 971.759,1153.17 980.123,1185.76 988.486,1171.69 996.85,1116.52 1005.21,1255.96 1013.58,1206.41 1021.94,1223.32 1030.3,1109.39 1038.67,1266.46 1047.03,1245.6 1055.4,1213.85 1063.76,1287.78 1072.12,1203.47 1080.49,1268.24 1088.85,1273.31 1097.21,1275.88 1105.58,1155.25 1113.94,1288.95 1122.3,1253.34 1130.67,1198.99 1139.03,1161.17 1147.4,1256.86 1155.76,1285.57 1164.12,1251.76 1172.49,1313.83 1180.85,1263.5 1189.21,1235.04 1197.58,1335.65 1205.94,1324.6 1214.31,1283.53 1222.67,1333.32 1231.03,1327.8 1239.4,1283.32 1247.76,1345.44 1256.12,1273.8 1264.49,1288.24 1272.85,1212.24 1281.21,1347.58 1289.58,1240.79 1297.94,1239.35 1306.31,1283.11 1314.67,1158.95 1323.03,1246.4 1331.4,1264.66 1339.76,1217.01 1348.12,1208.45 1356.49,1220.8 1364.85,1217.28 1373.21,1297.17 1381.58,1181.55 1389.94,1220.52 1398.31,1250.82 1406.67,1338.09 1415.03,1234.74 1423.4,1345.36 1431.76,1259.56 1440.12,1330.29 1448.49,1246.19 1456.85,1274.36 1465.22,1250.23 1473.58,1227.05 1481.94,1244.59 1490.31,1276.75 1498.67,1197.52 1507.03,1163.22 1515.4,1199.89 1523.76,1217.72 1532.12,1261.01 1540.49,1221.54 1548.85,1279.31 1557.22,1232.9 1565.58,1268.4 1573.94,1272.47 1582.31,1204.4 1590.67,1204.8 1599.03,1148.59 1607.4,1306.49 1615.76,1267.17 1624.12,1253.03 1632.49,1288.12 1640.85,1263.03 1649.22,1316.72 1657.58,1179.54 1665.94,1231.93 1674.31,1278.74 1682.67,1287.38 1691.03,1260.74 1699.4,1259.4 1707.76,1265.27 1716.13,1253.65 1724.49,1226.94 1732.85,1409.35 1741.22,1266.03 1749.58,1259.8 1757.94,1309.31 1766.31,1147.39 1774.67,1228.31 1783.03,1241.81 1791.4,1252.79 1799.76,1260.75 1808.13,1219.44 1816.49,1297.52 1824.85,1240.55 1833.22,1283.04 1841.58,1181.27 1849.94,1181.11 1858.31,1242.74 1866.67,1262.55 1875.03,1294.42 1883.4,1305.05 1891.76,1320.88 1900.13,1349.37 1908.49,1237.23 1916.85,1235.84 1925.22,1267.14 1933.58,1312.23 1941.94,1231.28 1950.31,1244.21 1958.67,1260.98 1967.04,1402.09 1975.4,1286.58 1983.76,1287.18 1992.13,1388.52 2000.49,1304.56 2008.85,1404.46 2017.22,1393.73 2025.58,1294.89 2033.94,1343.01 2042.31,1424.22 2050.67,1399.42 2059.04,1447.2 2067.4,1378.76 2075.76,1406.01 2084.13,1371.51 2092.49,1412.04 2100.85,1404.51 2109.22,1369.66 2117.58,1411.34 2125.94,1391.33 2134.31,1408.99 2142.67,1426.8 2151.04,1337.93 2159.4,1336.59 2167.76,1385.39 2176.13,1428.21 2184.49,1325.6 2192.85,1365.56 2201.22,1284.29 2209.58,1337.05 2217.95,1438.84 2226.31,1324.74 2234.67,1341.48 2243.04,1358.52 2251.4,1380.25 2259.76,1429.11 2268.13,1295.71 2276.49,1350.78 2284.85,1432.49 2293.22,1310.92 2301.58,1389.75 2309.95,1323.18 2318.31,1352.41 2326.67,1406.59 2335.04,1396.54 2343.4,1482.16 2351.76,1335.39 2360.13,1417.09 2368.49,1450.7 2376.85,1371.69 2385.22,1464.16 2393.58,1466.47 2401.95,1471.9 2410.31,1484.46 2418.67,1497.82 2427.04,1548.51 2435.4,1456.45 2443.76,1501.74 2452.13,1543.91 2460.49,1463.21 2468.86,1482.44 2477.22,1522.64 2485.58,1467.53 2493.95,1584.93 2502.31,1467.62 2510.67,1498.8 2519.04,1551.05 2527.4,1449.35 2535.76,1588.24 2544.13,1513.23 2552.49,1497.99 2560.86,1532.44 2569.22,1560.15 2577.58,1481.84 2585.95,1492.02 2594.31,1557.49 2602.67,1491.93 2611.04,1547.01 "/>
<polyline clip-path="url(#clip542)" style="stroke:#000080; stroke-linecap:round; stroke-linejoin:round; stroke-width:8; stroke-opacity:1; fill:none" points="511.757,322.212 520.121,437.429 528.485,511.511 536.848,582.532 545.212,638.813 553.576,694.604 561.939,742.897 570.303,796.055 578.667,844.757 587.03,883.725 595.394,912.864 603.758,956.146 612.121,996.085 620.485,1023.14 628.849,1047.68 637.212,1068.28 645.576,1104.5 653.94,1123.21 662.303,1148.33 670.667,1161.71 679.031,1192.35 687.394,1204.85 695.758,1213.2 704.122,1233.54 712.485,1239.93 720.849,1258.96 729.213,1272.61 737.576,1284.67 745.94,1292.79 754.304,1303.68 762.667,1305.93 771.031,1306.42 779.395,1324.87 787.758,1326.31 796.122,1328.82 804.486,1339.84 812.849,1343.86 821.213,1348.92 829.577,1351.07 837.94,1353.61 846.304,1365.7 854.668,1363.12 863.031,1372 871.395,1371.97 879.759,1381.93 888.122,1381.83 896.486,1386.1 904.85,1392.69 913.213,1389.78 921.577,1390.12 929.941,1387.59 938.304,1393 946.668,1392.87 955.032,1394.58 963.395,1388.54 971.759,1399.74 980.123,1398.72 988.486,1400.65 996.85,1401.2 1005.21,1402.6 1013.58,1411.08 1021.94,1406.04 1030.3,1398.96 1038.67,1410.66 1047.03,1408.32 1055.4,1409.02 1063.76,1414.3 1072.12,1410.62 1080.49,1412.72 1088.85,1410.72 1097.21,1414.76 1105.58,1415.65 1113.94,1417.6 1122.3,1417.65 1130.67,1413.2 1139.03,1416.58 1147.4,1417.1 1155.76,1418.1 1164.12,1412.8 1172.49,1420.09 1180.85,1413.08 1189.21,1416.81 1197.58,1421.62 1205.94,1416.27 1214.31,1418.94 1222.67,1414.91 1231.03,1418.72 1239.4,1412.69 1247.76,1414.16 1256.12,1407.27 1264.49,1410.44 1272.85,1413.03 1281.21,1412.63 1289.58,1413.87 1297.94,1412.42 1306.31,1408 1314.67,1414.24 1323.03,1411.57 1331.4,1420.34 1339.76,1423.16 1348.12,1420.49 1356.49,1426.37 1364.85,1423.08 1373.21,1423.48 1381.58,1417.82 1389.94,1425.27 1398.31,1419.25 1406.67,1415.72 1415.03,1417.02 1423.4,1415.68 1431.76,1409.81 1440.12,1417.87 1448.49,1410.47 1456.85,1406.99 1465.22,1406.74 1473.58,1410.76 1481.94,1413.36 1490.31,1413.91 1498.67,1407.4 1507.03,1407.91 1515.4,1410.03 1523.76,1406.49 1532.12,1400.45 1540.49,1405.52 1548.85,1406.69 1557.22,1410.08 1565.58,1404.46 1573.94,1405.1 1582.31,1410.27 1590.67,1411.94 1599.03,1408.11 1607.4,1411.46 1615.76,1411.48 1624.12,1413.28 1632.49,1415.87 1640.85,1412.66 1649.22,1419.79 1657.58,1416.27 1665.94,1413.03 1674.31,1414.03 1682.67,1410.24 1691.03,1405.53 1699.4,1412.24 1707.76,1408.94 1716.13,1407.88 1724.49,1404.7 1732.85,1409.86 1741.22,1406.99 1749.58,1410.83 1757.94,1412.79 1766.31,1414.99 1774.67,1408.65 1783.03,1409.21 1791.4,1413.85 1799.76,1418.55 1808.13,1415.79 1816.49,1414.73 1824.85,1419.21 1833.22,1421.84 1841.58,1411.68 1849.94,1419.2 1858.31,1416.15 1866.67,1411.7 1875.03,1405.05 1883.4,1413.76 1891.76,1418.53 1900.13,1412.19 1908.49,1412.91 1916.85,1419.37 1925.22,1415.47 1933.58,1412.75 1941.94,1418.72 1950.31,1422.06 1958.67,1413.44 1967.04,1412.29 1975.4,1408.36 1983.76,1422.01 1992.13,1415.76 2000.49,1420.05 2008.85,1420.07 2017.22,1414.06 2025.58,1411.22 2033.94,1416.67 2042.31,1419.96 2050.67,1419.6 2059.04,1416.45 2067.4,1421.04 2075.76,1416.6 2084.13,1421.06 2092.49,1425.64 2100.85,1420.9 2109.22,1424.34 2117.58,1424.38 2125.94,1419.57 2134.31,1419.1 2142.67,1427.38 2151.04,1425.27 2159.4,1427.05 2167.76,1423.78 2176.13,1424.23 2184.49,1423.61 2192.85,1427.1 2201.22,1429.41 2209.58,1430.08 2217.95,1431.38 2226.31,1419.98 2234.67,1425.23 2243.04,1427.47 2251.4,1425.55 2259.76,1428.45 2268.13,1426.07 2276.49,1427.82 2284.85,1431.71 2293.22,1429.5 2301.58,1425.44 2309.95,1425.76 2318.31,1426.97 2326.67,1426.36 2335.04,1430.82 2343.4,1429.56 2351.76,1427.21 2360.13,1423.62 2368.49,1432.17 2376.85,1425.22 2385.22,1425.69 2393.58,1424.21 2401.95,1428.9 2410.31,1429.47 2418.67,1429.55 2427.04,1430.21 2435.4,1424.36 2443.76,1425.5 2452.13,1423.92 2460.49,1427.2 2468.86,1431.17 2477.22,1423.5 2485.58,1427.45 2493.95,1426.81 2502.31,1425.73 2510.67,1420.29 2519.04,1417.99 2527.4,1419.72 2535.76,1420.92 2544.13,1414.62 2552.49,1423.29 2560.86,1423.42 2569.22,1417.05 2577.58,1427.11 2585.95,1417.8 2594.31,1422.77 2602.67,1419.04 2611.04,1420.32 "/>
<path clip-path="url(#clip542)" d="M511.757 470.316 L520.121 587.821 L528.485 647.203 L536.848 732.626 L545.212 788.691 L553.576 833.448 L561.939 879.813 L570.303 943.189 L578.667 997.629 L587.03 1033.88 L595.394 1059.39 L603.758 1095.47 L612.121 1135.69 L620.485 1177.84 L628.849 1172.64 L637.212 1224.94 L645.576 1236.47 L653.94 1249.94 L662.303 1291.42 L670.667 1300.43 L679.031 1324.36 L687.394 1347.39 L695.758 1346.83 L704.122 1373.83 L712.485 1382.33 L720.849 1389.34 L729.213 1416.42 L737.576 1413.4 L745.94 1421.78 L754.304 1426.12 L762.667 1451.59 L771.031 1441.12 L779.395 1470.89 L787.758 1461.42 L796.122 1467.33 L804.486 1459.75 L812.849 1477.14 L821.213 1494 L829.577 1475 L837.94 1475.97 L846.304 1491.16 L854.668 1489.94 L863.031 1503.65 L871.395 1494.01 L879.759 1511.17 L888.122 1509.78 L896.486 1499.99 L904.85 1506.24 L913.213 1501.31 L921.577 1512.93 L929.941 1509.83 L938.304 1511.72 L946.668 1506.62 L955.032 1514.86 L963.395 1513.77 L971.759 1520.97 L980.123 1534.78 L988.486 1526.84 L996.85 1522.61 L1005.21 1527.14 L1013.58 1531.53 L1021.94 1530.28 L1030.3 1522.23 L1038.67 1528.71 L1047.03 1531.61 L1055.4 1521.91 L1063.76 1530.96 L1072.12 1522.73 L1080.49 1530.82 L1088.85 1531.32 L1097.21 1517.23 L1105.58 1546.92 L1113.94 1528.52 L1122.3 1529.19 L1130.67 1537.69 L1139.03 1531.84 L1147.4 1532.36 L1155.76 1543.05 L1164.12 1533.12 L1172.49 1527.73 L1180.85 1543.69 L1189.21 1530.11 L1197.58 1546.52 L1205.94 1525.26 L1214.31 1532 L1222.67 1525.02 L1231.03 1540.53 L1239.4 1525.53 L1247.76 1526.83 L1256.12 1528.88 L1264.49 1535.85 L1272.85 1534.34 L1281.21 1541.05 L1289.58 1537.73 L1297.94 1524.2 L1306.31 1539.94 L1314.67 1538.07 L1323.03 1527.34 L1331.4 1531.02 L1339.76 1537.82 L1348.12 1537.67 L1356.49 1542.17 L1364.85 1539.46 L1373.21 1534.08 L1381.58 1534.5 L1389.94 1538.43 L1398.31 1531.75 L1406.67 1531.12 L1415.03 1536.49 L1423.4 1529.71 L1431.76 1531.27 L1440.12 1538.79 L1448.49 1545.81 L1456.85 1532.68 L1465.22 1528.71 L1473.58 1533.41 L1481.94 1535.61 L1490.31 1545.79 L1498.67 1524.98 L1507.03 1532.96 L1515.4 1525.99 L1523.76 1526.59 L1532.12 1522.02 L1540.49 1528.06 L1548.85 1508.45 L1557.22 1536.42 L1565.58 1541.27 L1573.94 1519.95 L1582.31 1525.92 L1590.67 1534.54 L1599.03 1537.87 L1607.4 1531.05 L1615.76 1536.82 L1624.12 1536.25 L1632.49 1531.22 L1640.85 1541.8 L1649.22 1531.7 L1657.58 1529.8 L1665.94 1528.25 L1674.31 1534.45 L1682.67 1537.51 L1691.03 1515.75 L1699.4 1535.25 L1707.76 1529.21 L1716.13 1545.5 L1724.49 1532.04 L1732.85 1537.01 L1741.22 1525.98 L1749.58 1532.1 L1757.94 1547.33 L1766.31 1558.65 L1774.67 1521.94 L1783.03 1532.4 L1791.4 1537.19 L1799.76 1536.53 L1808.13 1536.31 L1816.49 1534.47 L1824.85 1547.89 L1833.22 1560.1 L1841.58 1536.06 L1849.94 1532.53 L1858.31 1541.59 L1866.67 1533.68 L1875.03 1528.76 L1883.4 1537.93 L1891.76 1534.01 L1900.13 1527.3 L1908.49 1531.91 L1916.85 1533.3 L1925.22 1539.16 L1933.58 1543.87 L1941.94 1537.93 L1950.31 1534.14 L1958.67 1527.4 L1967.04 1536.51 L1975.4 1513.13 L1983.76 1539.95 L1992.13 1528.69 L2000.49 1538.75 L2008.85 1534.37 L2017.22 1521.63 L2025.58 1515.33 L2033.94 1529.79 L2042.31 1537.35 L2050.67 1532.41 L2059.04 1538.89 L2067.4 1520.35 L2075.76 1530.81 L2084.13 1547.2 L2092.49 1537.81 L2100.85 1532.16 L2109.22 1545.47 L2117.58 1535.43 L2125.94 1535.97 L2134.31 1528.25 L2142.67 1530.68 L2151.04 1535.75 L2159.4 1536.91 L2167.76 1547.39 L2176.13 1538.22 L2184.49 1534.61 L2192.85 1548.6 L2201.22 1537.76 L2209.58 1542.5 L2217.95 1555.4 L2226.31 1533.35 L2234.67 1527.65 L2243.04 1535.67 L2251.4 1532.01 L2259.76 1549.68 L2268.13 1548.21 L2276.49 1551.29 L2284.85 1553.05 L2293.22 1537.61 L2301.58 1543.61 L2309.95 1538.04 L2318.31 1546.35 L2326.67 1543.54 L2335.04 1544.81 L2343.4 1551.76 L2351.76 1536.57 L2360.13 1541.24 L2368.49 1538.32 L2376.85 1549.56 L2385.22 1548.44 L2393.58 1528.76 L2401.95 1547.69 L2410.31 1556.15 L2418.67 1546.9 L2427.04 1545.52 L2435.4 1564.87 L2443.76 1532.11 L2452.13 1541.9 L2460.49 1538.09 L2468.86 1552.53 L2477.22 1544.92 L2485.58 1554.68 L2493.95 1559.87 L2502.31 1550.32 L2510.67 1532.31 L2519.04 1535.36 L2527.4 1543.8 L2535.76 1553.48 L2544.13 1532.81 L2552.49 1530.55 L2560.86 1544.27 L2569.22 1528.6 L2577.58 1544.3 L2585.95 1544.07 L2594.31 1547.32 L2602.67 1543.7 L2611.04 1543.64 L2611.04 1293.69 L2602.67 1298.78 L2594.31 1296.77 L2585.95 1282.84 L2577.58 1310.97 L2569.22 1299.58 L2560.86 1303.47 L2552.49 1299.44 L2544.13 1300.97 L2535.76 1284.48 L2527.4 1286.23 L2519.04 1292.72 L2510.67 1298.09 L2502.31 1306.22 L2493.95 1317.87 L2485.58 1299.65 L2477.22 1298.8 L2468.86 1285.64 L2460.49 1303.86 L2452.13 1302.77 L2443.76 1301.48 L2435.4 1304.77 L2427.04 1307.81 L2418.67 1318.23 L2410.31 1307.67 L2401.95 1314.66 L2393.58 1288.02 L2385.22 1303.58 L2376.85 1292.65 L2368.49 1311.44 L2360.13 1294.7 L2351.76 1302.6 L2343.4 1295.88 L2335.04 1310.06 L2326.67 1294.95 L2318.31 1301.66 L2309.95 1300.85 L2301.58 1303.74 L2293.22 1306.34 L2284.85 1305.69 L2276.49 1303.11 L2268.13 1310.06 L2259.76 1307.55 L2251.4 1308.38 L2243.04 1306.84 L2234.67 1314.84 L2226.31 1292.82 L2217.95 1312.36 L2209.58 1318.64 L2201.22 1330.53 L2192.85 1311.4 L2184.49 1321.58 L2176.13 1290.79 L2167.76 1312.25 L2159.4 1315.82 L2151.04 1314.2 L2142.67 1323.98 L2134.31 1314.75 L2125.94 1312.58 L2117.58 1325.04 L2109.22 1300.8 L2100.85 1301 L2092.49 1317.16 L2084.13 1309.96 L2075.76 1294.43 L2067.4 1318.16 L2059.04 1296.45 L2050.67 1299.09 L2042.31 1304.36 L2033.94 1304.84 L2025.58 1294.57 L2017.22 1311.45 L2008.85 1300.25 L2000.49 1311.48 L1992.13 1292.8 L1983.76 1311.16 L1975.4 1293.81 L1967.04 1271.74 L1958.67 1294.2 L1950.31 1298.75 L1941.94 1283.3 L1933.58 1272.1 L1925.22 1289.76 L1916.85 1304.42 L1908.49 1275.47 L1900.13 1284.81 L1891.76 1290.2 L1883.4 1286.24 L1875.03 1279.37 L1866.67 1295.05 L1858.31 1286.88 L1849.94 1297.85 L1841.58 1293.18 L1833.22 1301.67 L1824.85 1289.48 L1816.49 1279.85 L1808.13 1294.28 L1799.76 1291.61 L1791.4 1291.44 L1783.03 1277.54 L1774.67 1285.01 L1766.31 1267.9 L1757.94 1299.2 L1749.58 1265.96 L1741.22 1271.73 L1732.85 1285.23 L1724.49 1271.84 L1716.13 1266.9 L1707.76 1282.34 L1699.4 1284.22 L1691.03 1276.05 L1682.67 1266.59 L1674.31 1282.25 L1665.94 1285.46 L1657.58 1287.05 L1649.22 1285.81 L1640.85 1286.22 L1632.49 1277.47 L1624.12 1283.12 L1615.76 1263.61 L1607.4 1288.34 L1599.03 1284.14 L1590.67 1289.05 L1582.31 1294.18 L1573.94 1277.32 L1565.58 1261.84 L1557.22 1284.58 L1548.85 1281.34 L1540.49 1262.26 L1532.12 1261.73 L1523.76 1279.78 L1515.4 1284.45 L1507.03 1268.82 L1498.67 1279.77 L1490.31 1289.59 L1481.94 1282.88 L1473.58 1276.32 L1465.22 1278 L1456.85 1283.61 L1448.49 1289.32 L1440.12 1295.22 L1431.76 1286.32 L1423.4 1304.25 L1415.03 1288.12 L1406.67 1288.07 L1398.31 1300.18 L1389.94 1311.75 L1381.58 1276.86 L1373.21 1306.04 L1364.85 1298.16 L1356.49 1299.39 L1348.12 1304.21 L1339.76 1310.24 L1331.4 1296.41 L1323.03 1283.66 L1314.67 1292 L1306.31 1285.67 L1297.94 1305.18 L1289.58 1300.68 L1281.21 1284.44 L1272.85 1285.88 L1264.49 1281.35 L1256.12 1283.79 L1247.76 1283.16 L1239.4 1283.81 L1231.03 1281.59 L1222.67 1294.43 L1214.31 1295.3 L1205.94 1272.52 L1197.58 1305.03 L1189.21 1296.87 L1180.85 1291.86 L1172.49 1272.57 L1164.12 1273.13 L1155.76 1277.67 L1147.4 1276.07 L1139.03 1275.54 L1130.67 1271.52 L1122.3 1304.1 L1113.94 1289.02 L1105.58 1285.95 L1097.21 1280.89 L1088.85 1274.08 L1080.49 1291.49 L1072.12 1275.63 L1063.76 1289.12 L1055.4 1281.93 L1047.03 1265.37 L1038.67 1266.32 L1030.3 1246.93 L1021.94 1260.9 L1013.58 1274.6 L1005.21 1276.61 L996.85 1266.46 L988.486 1245.66 L980.123 1253.19 L971.759 1267.11 L963.395 1260.3 L955.032 1239.37 L946.668 1259.88 L938.304 1254.79 L929.941 1242.59 L921.577 1247.21 L913.213 1262.34 L904.85 1271.32 L896.486 1263.91 L888.122 1246.29 L879.759 1251.64 L871.395 1247.67 L863.031 1236.03 L854.668 1224.34 L846.304 1222.84 L837.94 1215.51 L829.577 1200.25 L821.213 1196.15 L812.849 1191.6 L804.486 1216.74 L796.122 1185.26 L787.758 1192.9 L779.395 1182.64 L771.031 1169.8 L762.667 1165.02 L754.304 1164.06 L745.94 1166.31 L737.576 1157.3 L729.213 1135.9 L720.849 1122.64 L712.485 1083.63 L704.122 1101.39 L695.758 1058.2 L687.394 1057.12 L679.031 1067.07 L670.667 1002.71 L662.303 1015.48 L653.94 992.202 L645.576 963.712 L637.212 913.599 L628.849 901.366 L620.485 871.683 L612.121 853.097 L603.758 808.56 L595.394 764.818 L587.03 721.997 L578.667 702.389 L570.303 650.921 L561.939 582.661 L553.576 534.411 L545.212 479.954 L536.848 445.353 L528.485 378.502 L520.121 294.043 L511.757 168.574  Z" fill="#000080" fill-rule="evenodd" fill-opacity="0.15"/>
<polyline clip-path="url(#clip542)" style="stroke:#000080; stroke-linecap:round; stroke-linejoin:round; stroke-width:4; stroke-opacity:0.15; fill:none" points="511.757,470.316 520.121,587.821 528.485,647.203 536.848,732.626 545.212,788.691 553.576,833.448 561.939,879.813 570.303,943.189 578.667,997.629 587.03,1033.88 595.394,1059.39 603.758,1095.47 612.121,1135.69 620.485,1177.84 628.849,1172.64 637.212,1224.94 645.576,1236.47 653.94,1249.94 662.303,1291.42 670.667,1300.43 679.031,1324.36 687.394,1347.39 695.758,1346.83 704.122,1373.83 712.485,1382.33 720.849,1389.34 729.213,1416.42 737.576,1413.4 745.94,1421.78 754.304,1426.12 762.667,1451.59 771.031,1441.12 779.395,1470.89 787.758,1461.42 796.122,1467.33 804.486,1459.75 812.849,1477.14 821.213,1494 829.577,1475 837.94,1475.97 846.304,1491.16 854.668,1489.94 863.031,1503.65 871.395,1494.01 879.759,1511.17 888.122,1509.78 896.486,1499.99 904.85,1506.24 913.213,1501.31 921.577,1512.93 929.941,1509.83 938.304,1511.72 946.668,1506.62 955.032,1514.86 963.395,1513.77 971.759,1520.97 980.123,1534.78 988.486,1526.84 996.85,1522.61 1005.21,1527.14 1013.58,1531.53 1021.94,1530.28 1030.3,1522.23 1038.67,1528.71 1047.03,1531.61 1055.4,1521.91 1063.76,1530.96 1072.12,1522.73 1080.49,1530.82 1088.85,1531.32 1097.21,1517.23 1105.58,1546.92 1113.94,1528.52 1122.3,1529.19 1130.67,1537.69 1139.03,1531.84 1147.4,1532.36 1155.76,1543.05 1164.12,1533.12 1172.49,1527.73 1180.85,1543.69 1189.21,1530.11 1197.58,1546.52 1205.94,1525.26 1214.31,1532 1222.67,1525.02 1231.03,1540.53 1239.4,1525.53 1247.76,1526.83 1256.12,1528.88 1264.49,1535.85 1272.85,1534.34 1281.21,1541.05 1289.58,1537.73 1297.94,1524.2 1306.31,1539.94 1314.67,1538.07 1323.03,1527.34 1331.4,1531.02 1339.76,1537.82 1348.12,1537.67 1356.49,1542.17 1364.85,1539.46 1373.21,1534.08 1381.58,1534.5 1389.94,1538.43 1398.31,1531.75 1406.67,1531.12 1415.03,1536.49 1423.4,1529.71 1431.76,1531.27 1440.12,1538.79 1448.49,1545.81 1456.85,1532.68 1465.22,1528.71 1473.58,1533.41 1481.94,1535.61 1490.31,1545.79 1498.67,1524.98 1507.03,1532.96 1515.4,1525.99 1523.76,1526.59 1532.12,1522.02 1540.49,1528.06 1548.85,1508.45 1557.22,1536.42 1565.58,1541.27 1573.94,1519.95 1582.31,1525.92 1590.67,1534.54 1599.03,1537.87 1607.4,1531.05 1615.76,1536.82 1624.12,1536.25 1632.49,1531.22 1640.85,1541.8 1649.22,1531.7 1657.58,1529.8 1665.94,1528.25 1674.31,1534.45 1682.67,1537.51 1691.03,1515.75 1699.4,1535.25 1707.76,1529.21 1716.13,1545.5 1724.49,1532.04 1732.85,1537.01 1741.22,1525.98 1749.58,1532.1 1757.94,1547.33 1766.31,1558.65 1774.67,1521.94 1783.03,1532.4 1791.4,1537.19 1799.76,1536.53 1808.13,1536.31 1816.49,1534.47 1824.85,1547.89 1833.22,1560.1 1841.58,1536.06 1849.94,1532.53 1858.31,1541.59 1866.67,1533.68 1875.03,1528.76 1883.4,1537.93 1891.76,1534.01 1900.13,1527.3 1908.49,1531.91 1916.85,1533.3 1925.22,1539.16 1933.58,1543.87 1941.94,1537.93 1950.31,1534.14 1958.67,1527.4 1967.04,1536.51 1975.4,1513.13 1983.76,1539.95 1992.13,1528.69 2000.49,1538.75 2008.85,1534.37 2017.22,1521.63 2025.58,1515.33 2033.94,1529.79 2042.31,1537.35 2050.67,1532.41 2059.04,1538.89 2067.4,1520.35 2075.76,1530.81 2084.13,1547.2 2092.49,1537.81 2100.85,1532.16 2109.22,1545.47 2117.58,1535.43 2125.94,1535.97 2134.31,1528.25 2142.67,1530.68 2151.04,1535.75 2159.4,1536.91 2167.76,1547.39 2176.13,1538.22 2184.49,1534.61 2192.85,1548.6 2201.22,1537.76 2209.58,1542.5 2217.95,1555.4 2226.31,1533.35 2234.67,1527.65 2243.04,1535.67 2251.4,1532.01 2259.76,1549.68 2268.13,1548.21 2276.49,1551.29 2284.85,1553.05 2293.22,1537.61 2301.58,1543.61 2309.95,1538.04 2318.31,1546.35 2326.67,1543.54 2335.04,1544.81 2343.4,1551.76 2351.76,1536.57 2360.13,1541.24 2368.49,1538.32 2376.85,1549.56 2385.22,1548.44 2393.58,1528.76 2401.95,1547.69 2410.31,1556.15 2418.67,1546.9 2427.04,1545.52 2435.4,1564.87 2443.76,1532.11 2452.13,1541.9 2460.49,1538.09 2468.86,1552.53 2477.22,1544.92 2485.58,1554.68 2493.95,1559.87 2502.31,1550.32 2510.67,1532.31 2519.04,1535.36 2527.4,1543.8 2535.76,1553.48 2544.13,1532.81 2552.49,1530.55 2560.86,1544.27 2569.22,1528.6 2577.58,1544.3 2585.95,1544.07 2594.31,1547.32 2602.67,1543.7 2611.04,1543.64 "/>
<path clip-path="url(#clip540)" d="M2005.7 409.426 L2599.84 409.426 L2599.84 176.146 L2005.7 176.146  Z" fill="#ffffff" fill-rule="evenodd" fill-opacity="1"/>
<polyline clip-path="url(#clip540)" style="stroke:#000000; stroke-linecap:round; stroke-linejoin:round; stroke-width:4; stroke-opacity:1; fill:none" points="2005.7,409.426 2599.84,409.426 2599.84,176.146 2005.7,176.146 2005.7,409.426 "/>
<polyline clip-path="url(#clip540)" style="stroke:#ff0000; stroke-linecap:round; stroke-linejoin:round; stroke-width:9; stroke-opacity:1; fill:none" stroke-dasharray="36, 23" points="2030.43,234.466 2178.78,234.466 "/>
<path clip-path="url(#clip540)" d="M2221.52 218.594 Q2215.8 218.594 2212.41 222.864 Q2209.05 227.135 2209.05 234.505 Q2209.05 241.849 2212.41 246.119 Q2215.8 250.39 2221.52 250.39 Q2227.25 250.39 2230.59 246.119 Q2233.95 241.849 2233.95 234.505 Q2233.95 227.135 2230.59 222.864 Q2227.25 218.594 2221.52 218.594 M2221.52 214.323 Q2229.7 214.323 2234.6 219.817 Q2239.49 225.286 2239.49 234.505 Q2239.49 243.698 2234.6 249.192 Q2229.7 254.661 2221.52 254.661 Q2213.32 254.661 2208.4 249.192 Q2203.5 243.724 2203.5 234.505 Q2203.5 225.286 2208.4 219.817 Q2213.32 214.323 2221.52 214.323 Z" fill="#000000" fill-rule="nonzero" fill-opacity="1" /><path clip-path="url(#clip540)" d="M2268.45 239.349 Q2268.45 234.062 2266.26 231.067 Q2264.1 228.047 2260.3 228.047 Q2256.5 228.047 2254.31 231.067 Q2252.15 234.062 2252.15 239.349 Q2252.15 244.635 2254.31 247.656 Q2256.5 250.651 2260.3 250.651 Q2264.1 250.651 2266.26 247.656 Q2268.45 244.635 2268.45 239.349 M2252.15 229.166 Q2253.66 226.562 2255.95 225.312 Q2258.27 224.036 2261.47 224.036 Q2266.78 224.036 2270.09 228.255 Q2273.43 232.474 2273.43 239.349 Q2273.43 246.224 2270.09 250.442 Q2266.78 254.661 2261.47 254.661 Q2258.27 254.661 2255.95 253.411 Q2253.66 252.135 2252.15 249.531 L2252.15 253.906 L2247.33 253.906 L2247.33 213.385 L2252.15 213.385 L2252.15 229.166 Z" fill="#000000" fill-rule="nonzero" fill-opacity="1" /><path clip-path="url(#clip540)" d="M2299.96 225.599 L2299.96 230.13 Q2297.93 229.088 2295.74 228.567 Q2293.56 228.047 2291.21 228.047 Q2287.64 228.047 2285.85 229.14 Q2284.08 230.234 2284.08 232.422 Q2284.08 234.088 2285.35 235.052 Q2286.63 235.989 2290.48 236.849 L2292.12 237.213 Q2297.23 238.307 2299.36 240.312 Q2301.52 242.291 2301.52 245.859 Q2301.52 249.921 2298.29 252.291 Q2295.09 254.661 2289.47 254.661 Q2287.12 254.661 2284.57 254.192 Q2282.04 253.75 2279.23 252.838 L2279.23 247.89 Q2281.89 249.27 2284.47 249.974 Q2287.04 250.651 2289.57 250.651 Q2292.96 250.651 2294.78 249.505 Q2296.6 248.333 2296.6 246.224 Q2296.6 244.27 2295.27 243.229 Q2293.97 242.187 2289.52 241.224 L2287.85 240.833 Q2283.4 239.895 2281.42 237.968 Q2279.44 236.015 2279.44 232.63 Q2279.44 228.515 2282.36 226.276 Q2285.27 224.036 2290.64 224.036 Q2293.29 224.036 2295.64 224.427 Q2297.98 224.817 2299.96 225.599 Z" fill="#000000" fill-rule="nonzero" fill-opacity="1" /><path clip-path="url(#clip540)" d="M2334.1 238.125 L2334.1 240.468 L2312.07 240.468 Q2312.38 245.416 2315.04 248.02 Q2317.72 250.599 2322.49 250.599 Q2325.25 250.599 2327.83 249.921 Q2330.43 249.244 2332.98 247.89 L2332.98 252.421 Q2330.4 253.515 2327.7 254.088 Q2324.99 254.661 2322.2 254.661 Q2315.22 254.661 2311.13 250.599 Q2307.07 246.536 2307.07 239.609 Q2307.07 232.448 2310.93 228.255 Q2314.81 224.036 2321.37 224.036 Q2327.25 224.036 2330.66 227.838 Q2334.1 231.614 2334.1 238.125 M2329.31 236.718 Q2329.26 232.786 2327.1 230.442 Q2324.96 228.099 2321.42 228.099 Q2317.41 228.099 2314.99 230.364 Q2312.59 232.63 2312.23 236.744 L2329.31 236.718 Z" fill="#000000" fill-rule="nonzero" fill-opacity="1" /><path clip-path="url(#clip540)" d="M2358.87 229.218 Q2358.06 228.75 2357.1 228.541 Q2356.16 228.307 2355.01 228.307 Q2350.95 228.307 2348.76 230.963 Q2346.6 233.593 2346.6 238.541 L2346.6 253.906 L2341.78 253.906 L2341.78 224.739 L2346.6 224.739 L2346.6 229.271 Q2348.11 226.614 2350.53 225.338 Q2352.96 224.036 2356.42 224.036 Q2356.91 224.036 2357.51 224.114 Q2358.11 224.166 2358.84 224.297 L2358.87 229.218 Z" fill="#000000" fill-rule="nonzero" fill-opacity="1" /><path clip-path="url(#clip540)" d="M2360.46 224.739 L2365.53 224.739 L2374.65 249.218 L2383.76 224.739 L2388.84 224.739 L2377.9 253.906 L2371.39 253.906 L2360.46 224.739 Z" fill="#000000" fill-rule="nonzero" fill-opacity="1" /><path clip-path="url(#clip540)" d="M2420.4 238.125 L2420.4 240.468 L2398.37 240.468 Q2398.68 245.416 2401.34 248.02 Q2404.02 250.599 2408.79 250.599 Q2411.55 250.599 2414.13 249.921 Q2416.73 249.244 2419.28 247.89 L2419.28 252.421 Q2416.71 253.515 2414 254.088 Q2411.29 254.661 2408.5 254.661 Q2401.52 254.661 2397.43 250.599 Q2393.37 246.536 2393.37 239.609 Q2393.37 232.448 2397.23 228.255 Q2401.11 224.036 2407.67 224.036 Q2413.55 224.036 2416.97 227.838 Q2420.4 231.614 2420.4 238.125 M2415.61 236.718 Q2415.56 232.786 2413.4 230.442 Q2411.26 228.099 2407.72 228.099 Q2403.71 228.099 2401.29 230.364 Q2398.89 232.63 2398.53 236.744 L2415.61 236.718 Z" fill="#000000" fill-rule="nonzero" fill-opacity="1" /><path clip-path="url(#clip540)" d="M2447.46 229.166 L2447.46 213.385 L2452.25 213.385 L2452.25 253.906 L2447.46 253.906 L2447.46 249.531 Q2445.95 252.135 2443.63 253.411 Q2441.34 254.661 2438.11 254.661 Q2432.83 254.661 2429.49 250.442 Q2426.18 246.224 2426.18 239.349 Q2426.18 232.474 2429.49 228.255 Q2432.83 224.036 2438.11 224.036 Q2441.34 224.036 2443.63 225.312 Q2445.95 226.562 2447.46 229.166 M2431.13 239.349 Q2431.13 244.635 2433.29 247.656 Q2435.48 250.651 2439.28 250.651 Q2443.09 250.651 2445.27 247.656 Q2447.46 244.635 2447.46 239.349 Q2447.46 234.062 2445.27 231.067 Q2443.09 228.047 2439.28 228.047 Q2435.48 228.047 2433.29 231.067 Q2431.13 234.062 2431.13 239.349 Z" fill="#000000" fill-rule="nonzero" fill-opacity="1" /><polyline clip-path="url(#clip540)" style="stroke:#000080; stroke-linecap:round; stroke-linejoin:round; stroke-width:9; stroke-opacity:1; fill:none" points="2030.43,292.786 2178.78,292.786 "/>
<path clip-path="url(#clip540)" d="M2234.86 276.341 L2234.86 281.887 Q2232.2 279.414 2229.18 278.19 Q2226.19 276.966 2222.8 276.966 Q2216.13 276.966 2212.59 281.054 Q2209.05 285.117 2209.05 292.825 Q2209.05 300.507 2212.59 304.596 Q2216.13 308.658 2222.8 308.658 Q2226.19 308.658 2229.18 307.434 Q2232.2 306.21 2234.86 303.736 L2234.86 309.231 Q2232.1 311.106 2229 312.044 Q2225.93 312.981 2222.49 312.981 Q2213.66 312.981 2208.58 307.59 Q2203.5 302.174 2203.5 292.825 Q2203.5 283.45 2208.58 278.059 Q2213.66 272.643 2222.49 272.643 Q2225.98 272.643 2229.05 273.58 Q2232.15 274.492 2234.86 276.341 Z" fill="#000000" fill-rule="nonzero" fill-opacity="1" /><path clip-path="url(#clip540)" d="M2242.98 273.346 L2248.24 273.346 L2248.24 289.283 L2267.36 289.283 L2267.36 273.346 L2272.62 273.346 L2272.62 312.226 L2267.36 312.226 L2267.36 293.71 L2248.24 293.71 L2248.24 312.226 L2242.98 312.226 L2242.98 273.346 Z" fill="#000000" fill-rule="nonzero" fill-opacity="1" /><path clip-path="url(#clip540)" d="M2283.09 273.346 L2290.93 273.346 L2300.85 299.804 L2310.82 273.346 L2318.66 273.346 L2318.66 312.226 L2313.53 312.226 L2313.53 278.085 L2303.5 304.752 L2298.22 304.752 L2288.19 278.085 L2288.19 312.226 L2283.09 312.226 L2283.09 273.346 Z" fill="#000000" fill-rule="nonzero" fill-opacity="1" /><path clip-path="url(#clip540)" d="M2329.1 273.346 L2336.94 273.346 L2346.86 299.804 L2356.84 273.346 L2364.67 273.346 L2364.67 312.226 L2359.54 312.226 L2359.54 278.085 L2349.52 304.752 L2344.23 304.752 L2334.21 278.085 L2334.21 312.226 L2329.1 312.226 L2329.1 273.346 Z" fill="#000000" fill-rule="nonzero" fill-opacity="1" /><path clip-path="url(#clip540)" d="M2403.37 271.757 Q2399.88 277.747 2398.19 283.606 Q2396.5 289.466 2396.5 295.481 Q2396.5 301.497 2398.19 307.408 Q2399.91 313.294 2403.37 319.257 L2399.21 319.257 Q2395.3 313.137 2393.35 307.226 Q2391.42 301.314 2391.42 295.481 Q2391.42 289.674 2393.35 283.788 Q2395.27 277.903 2399.21 271.757 L2403.37 271.757 Z" fill="#000000" fill-rule="nonzero" fill-opacity="1" /><path clip-path="url(#clip540)" d="M2435.38 288.658 Q2437.17 285.429 2439.67 283.893 Q2442.17 282.356 2445.56 282.356 Q2450.12 282.356 2452.59 285.559 Q2455.06 288.736 2455.06 294.622 L2455.06 312.226 L2450.25 312.226 L2450.25 294.778 Q2450.25 290.585 2448.76 288.554 Q2447.28 286.523 2444.23 286.523 Q2440.51 286.523 2438.35 288.997 Q2436.18 291.471 2436.18 295.742 L2436.18 312.226 L2431.37 312.226 L2431.37 294.778 Q2431.37 290.559 2429.88 288.554 Q2428.4 286.523 2425.3 286.523 Q2421.63 286.523 2419.47 289.023 Q2417.3 291.497 2417.3 295.742 L2417.3 312.226 L2412.49 312.226 L2412.49 283.059 L2417.3 283.059 L2417.3 287.591 Q2418.95 284.908 2421.24 283.632 Q2423.53 282.356 2426.68 282.356 Q2429.86 282.356 2432.07 283.971 Q2434.31 285.585 2435.38 288.658 Z" fill="#000000" fill-rule="nonzero" fill-opacity="1" /><path clip-path="url(#clip540)" d="M2489.57 296.445 L2489.57 298.788 L2467.54 298.788 Q2467.85 303.736 2470.51 306.34 Q2473.19 308.919 2477.96 308.919 Q2480.72 308.919 2483.29 308.241 Q2485.9 307.564 2488.45 306.21 L2488.45 310.741 Q2485.87 311.835 2483.16 312.408 Q2480.46 312.981 2477.67 312.981 Q2470.69 312.981 2466.6 308.919 Q2462.54 304.856 2462.54 297.929 Q2462.54 290.768 2466.39 286.575 Q2470.27 282.356 2476.84 282.356 Q2482.72 282.356 2486.13 286.158 Q2489.57 289.934 2489.57 296.445 M2484.78 295.038 Q2484.73 291.106 2482.56 288.762 Q2480.43 286.419 2476.89 286.419 Q2472.88 286.419 2470.46 288.684 Q2468.06 290.95 2467.7 295.064 L2484.78 295.038 Z" fill="#000000" fill-rule="nonzero" fill-opacity="1" /><path clip-path="url(#clip540)" d="M2510.69 297.564 Q2504.88 297.564 2502.64 298.893 Q2500.4 300.221 2500.4 303.424 Q2500.4 305.976 2502.07 307.486 Q2503.76 308.971 2506.65 308.971 Q2510.64 308.971 2513.03 306.158 Q2515.46 303.32 2515.46 298.632 L2515.46 297.564 L2510.69 297.564 M2520.25 295.585 L2520.25 312.226 L2515.46 312.226 L2515.46 307.799 Q2513.81 310.455 2511.37 311.731 Q2508.92 312.981 2505.38 312.981 Q2500.9 312.981 2498.24 310.481 Q2495.61 307.955 2495.61 303.736 Q2495.61 298.814 2498.89 296.314 Q2502.2 293.814 2508.74 293.814 L2515.46 293.814 L2515.46 293.346 Q2515.46 290.038 2513.27 288.242 Q2511.11 286.419 2507.17 286.419 Q2504.67 286.419 2502.3 287.018 Q2499.93 287.617 2497.75 288.814 L2497.75 284.387 Q2500.38 283.372 2502.85 282.877 Q2505.33 282.356 2507.67 282.356 Q2514 282.356 2517.12 285.637 Q2520.25 288.919 2520.25 295.585 Z" fill="#000000" fill-rule="nonzero" fill-opacity="1" /><path clip-path="url(#clip540)" d="M2554.36 294.622 L2554.36 312.226 L2549.57 312.226 L2549.57 294.778 Q2549.57 290.637 2547.96 288.58 Q2546.34 286.523 2543.11 286.523 Q2539.23 286.523 2536.99 288.997 Q2534.75 291.471 2534.75 295.742 L2534.75 312.226 L2529.93 312.226 L2529.93 283.059 L2534.75 283.059 L2534.75 287.591 Q2536.47 284.96 2538.79 283.658 Q2541.13 282.356 2544.18 282.356 Q2549.21 282.356 2551.78 285.481 Q2554.36 288.58 2554.36 294.622 Z" fill="#000000" fill-rule="nonzero" fill-opacity="1" /><path clip-path="url(#clip540)" d="M2563.16 271.757 L2567.33 271.757 Q2571.24 277.903 2573.16 283.788 Q2575.12 289.674 2575.12 295.481 Q2575.12 301.314 2573.16 307.226 Q2571.24 313.137 2567.33 319.257 L2563.16 319.257 Q2566.63 313.294 2568.32 307.408 Q2570.04 301.497 2570.04 295.481 Q2570.04 289.466 2568.32 283.606 Q2566.63 277.747 2563.16 271.757 Z" fill="#000000" fill-rule="nonzero" fill-opacity="1" /><path clip-path="url(#clip540)" d="M2030.43 374.434 L2178.78 374.434 L2178.78 327.778 L2030.43 327.778 L2030.43 374.434  Z" fill="#000080" fill-rule="evenodd" fill-opacity="0.15"/>
<polyline clip-path="url(#clip540)" style="stroke:#000080; stroke-linecap:round; stroke-linejoin:round; stroke-width:4.5; stroke-opacity:0.15; fill:none" points="2030.43,327.778 2178.78,327.778 "/>
<path clip-path="url(#clip540)" d="M2204.26 366.119 L2212.85 366.119 L2212.85 336.457 L2203.5 338.332 L2203.5 333.541 L2212.8 331.666 L2218.06 331.666 L2218.06 366.119 L2226.65 366.119 L2226.65 370.546 L2204.26 370.546 L2204.26 366.119 Z" fill="#000000" fill-rule="nonzero" fill-opacity="1" /><path clip-path="url(#clip540)" d="M2248.53 335.129 Q2244.47 335.129 2242.41 339.14 Q2240.38 343.124 2240.38 351.145 Q2240.38 359.14 2242.41 363.15 Q2244.47 367.134 2248.53 367.134 Q2252.62 367.134 2254.65 363.15 Q2256.71 359.14 2256.71 351.145 Q2256.71 343.124 2254.65 339.14 Q2252.62 335.129 2248.53 335.129 M2248.53 330.963 Q2255.07 330.963 2258.5 336.145 Q2261.97 341.301 2261.97 351.145 Q2261.97 360.963 2258.5 366.145 Q2255.07 371.301 2248.53 371.301 Q2241.99 371.301 2238.53 366.145 Q2235.09 360.963 2235.09 351.145 Q2235.09 341.301 2238.53 336.145 Q2241.99 330.963 2248.53 330.963 Z" fill="#000000" fill-rule="nonzero" fill-opacity="1" /><path clip-path="url(#clip540)" d="M2268.11 353.801 L2282.15 353.801 L2282.15 358.072 L2268.11 358.072 L2268.11 353.801 Z" fill="#000000" fill-rule="nonzero" fill-opacity="1" /><path clip-path="url(#clip540)" d="M2290.61 369.739 L2290.61 364.947 Q2292.59 365.884 2294.62 366.379 Q2296.65 366.874 2298.61 366.874 Q2303.82 366.874 2306.55 363.384 Q2309.31 359.869 2309.7 352.733 Q2308.19 354.973 2305.87 356.171 Q2303.56 357.369 2300.74 357.369 Q2294.91 357.369 2291.5 353.853 Q2288.11 350.312 2288.11 344.192 Q2288.11 338.202 2291.65 334.582 Q2295.2 330.963 2301.08 330.963 Q2307.83 330.963 2311.37 336.145 Q2314.94 341.301 2314.94 351.145 Q2314.94 360.338 2310.56 365.832 Q2306.21 371.301 2298.84 371.301 Q2296.86 371.301 2294.83 370.91 Q2292.8 370.52 2290.61 369.739 M2301.08 353.254 Q2304.62 353.254 2306.68 350.832 Q2308.76 348.411 2308.76 344.192 Q2308.76 339.999 2306.68 337.577 Q2304.62 335.129 2301.08 335.129 Q2297.54 335.129 2295.46 337.577 Q2293.4 339.999 2293.4 344.192 Q2293.4 348.411 2295.46 350.832 Q2297.54 353.254 2301.08 353.254 Z" fill="#000000" fill-rule="nonzero" fill-opacity="1" /><path clip-path="url(#clip540)" d="M2335.64 335.129 Q2331.58 335.129 2329.52 339.14 Q2327.49 343.124 2327.49 351.145 Q2327.49 359.14 2329.52 363.15 Q2331.58 367.134 2335.64 367.134 Q2339.73 367.134 2341.76 363.15 Q2343.82 359.14 2343.82 351.145 Q2343.82 343.124 2341.76 339.14 Q2339.73 335.129 2335.64 335.129 M2335.64 330.963 Q2342.17 330.963 2345.61 336.145 Q2349.08 341.301 2349.08 351.145 Q2349.08 360.963 2345.61 366.145 Q2342.17 371.301 2335.64 371.301 Q2329.1 371.301 2325.64 366.145 Q2322.2 360.963 2322.2 351.145 Q2322.2 341.301 2325.64 336.145 Q2329.1 330.963 2335.64 330.963 Z" fill="#000000" fill-rule="nonzero" fill-opacity="1" /><path clip-path="url(#clip540)" d="M2362.38 333.098 L2362.38 341.379 L2372.25 341.379 L2372.25 345.103 L2362.38 345.103 L2362.38 360.937 Q2362.38 364.504 2363.35 365.52 Q2364.34 366.535 2367.33 366.535 L2372.25 366.535 L2372.25 370.546 L2367.33 370.546 Q2361.78 370.546 2359.67 368.489 Q2357.57 366.405 2357.57 360.937 L2357.57 345.103 L2354.05 345.103 L2354.05 341.379 L2357.57 341.379 L2357.57 333.098 L2362.38 333.098 Z" fill="#000000" fill-rule="nonzero" fill-opacity="1" /><path clip-path="url(#clip540)" d="M2402.8 352.942 L2402.8 370.546 L2398.01 370.546 L2398.01 353.098 Q2398.01 348.957 2396.39 346.9 Q2394.78 344.843 2391.55 344.843 Q2387.67 344.843 2385.43 347.317 Q2383.19 349.791 2383.19 354.062 L2383.19 370.546 L2378.37 370.546 L2378.37 330.025 L2383.19 330.025 L2383.19 345.911 Q2384.91 343.28 2387.23 341.978 Q2389.57 340.676 2392.62 340.676 Q2397.64 340.676 2400.22 343.801 Q2402.8 346.9 2402.8 352.942 Z" fill="#000000" fill-rule="nonzero" fill-opacity="1" /><path clip-path="url(#clip540)" d="M2433.95 366.171 L2433.95 381.64 L2429.13 381.64 L2429.13 341.379 L2433.95 341.379 L2433.95 345.806 Q2435.46 343.202 2437.75 341.952 Q2440.06 340.676 2443.27 340.676 Q2448.58 340.676 2451.89 344.895 Q2455.22 349.114 2455.22 355.989 Q2455.22 362.864 2451.89 367.082 Q2448.58 371.301 2443.27 371.301 Q2440.06 371.301 2437.75 370.051 Q2435.46 368.775 2433.95 366.171 M2450.25 355.989 Q2450.25 350.702 2448.06 347.707 Q2445.9 344.687 2442.1 344.687 Q2438.29 344.687 2436.11 347.707 Q2433.95 350.702 2433.95 355.989 Q2433.95 361.275 2436.11 364.296 Q2438.29 367.291 2442.1 367.291 Q2445.9 367.291 2448.06 364.296 Q2450.25 361.275 2450.25 355.989 Z" fill="#000000" fill-rule="nonzero" fill-opacity="1" /><path clip-path="url(#clip540)" d="M2484.15 342.499 L2484.15 346.978 Q2482.12 345.858 2480.06 345.312 Q2478.03 344.739 2475.95 344.739 Q2471.29 344.739 2468.71 347.707 Q2466.13 350.65 2466.13 355.989 Q2466.13 361.327 2468.71 364.296 Q2471.29 367.239 2475.95 367.239 Q2478.03 367.239 2480.06 366.692 Q2482.12 366.119 2484.15 364.999 L2484.15 369.426 Q2482.15 370.364 2479.99 370.832 Q2477.85 371.301 2475.43 371.301 Q2468.84 371.301 2464.96 367.16 Q2461.08 363.02 2461.08 355.989 Q2461.08 348.853 2464.99 344.765 Q2468.92 340.676 2475.74 340.676 Q2477.96 340.676 2480.06 341.145 Q2482.17 341.588 2484.15 342.499 Z" fill="#000000" fill-rule="nonzero" fill-opacity="1" /><path clip-path="url(#clip540)" d="M2497.23 333.098 L2497.23 341.379 L2507.1 341.379 L2507.1 345.103 L2497.23 345.103 L2497.23 360.937 Q2497.23 364.504 2498.19 365.52 Q2499.18 366.535 2502.17 366.535 L2507.1 366.535 L2507.1 370.546 L2502.17 370.546 Q2496.63 370.546 2494.52 368.489 Q2492.41 366.405 2492.41 360.937 L2492.41 345.103 L2488.89 345.103 L2488.89 341.379 L2492.41 341.379 L2492.41 333.098 L2497.23 333.098 Z" fill="#000000" fill-rule="nonzero" fill-opacity="1" /><path clip-path="url(#clip540)" d="M2513.4 330.025 L2518.19 330.025 L2518.19 370.546 L2513.4 370.546 L2513.4 330.025 Z" fill="#000000" fill-rule="nonzero" fill-opacity="1" /></svg>
