<?xml version="1.0" encoding="utf-8"?>
<svg xmlns="http://www.w3.org/2000/svg" xmlns:xlink="http://www.w3.org/1999/xlink" width="600" height="400" viewBox="0 0 2400 1600">
<defs>
  <clipPath id="clip910">
    <rect x="0" y="0" width="2400" height="1600"/>
  </clipPath>
</defs>
<path clip-path="url(#clip910)" d="M0 1600 L2400 1600 L2400 8.88178e-14 L0 8.88178e-14  Z" fill="#ffffff" fill-rule="evenodd" fill-opacity="1"/>
<defs>
  <clipPath id="clip911">
    <rect x="176" y="914" width="2171" height="35"/>
  </clipPath>
</defs>
<path clip-path="url(#clip910)" d="M469.828 1241.31 L2274.02 1241.31 L2274.02 184.932 L469.828 184.932  Z" fill="#ffffff" fill-rule="evenodd" fill-opacity="1"/>
<defs>
  <clipPath id="clip912">
    <rect x="469" y="184" width="1805" height="1057"/>
  </clipPath>
</defs>
<polyline clip-path="url(#clip912)" style="stroke:#000000; stroke-linecap:round; stroke-linejoin:round; stroke-width:2; stroke-opacity:0.1; fill:none" points="517.479,1241.31 517.479,184.932 "/>
<polyline clip-path="url(#clip912)" style="stroke:#000000; stroke-linecap:round; stroke-linejoin:round; stroke-width:2; stroke-opacity:0.1; fill:none" points="858.574,1241.31 858.574,184.932 "/>
<polyline clip-path="url(#clip912)" style="stroke:#000000; stroke-linecap:round; stroke-linejoin:round; stroke-width:2; stroke-opacity:0.1; fill:none" points="1199.67,1241.31 1199.67,184.932 "/>
<polyline clip-path="url(#clip912)" style="stroke:#000000; stroke-linecap:round; stroke-linejoin:round; stroke-width:2; stroke-opacity:0.1; fill:none" points="1540.76,1241.31 1540.76,184.932 "/>
<polyline clip-path="url(#clip912)" style="stroke:#000000; stroke-linecap:round; stroke-linejoin:round; stroke-width:2; stroke-opacity:0.1; fill:none" points="1881.86,1241.31 1881.86,184.932 "/>
<polyline clip-path="url(#clip912)" style="stroke:#000000; stroke-linecap:round; stroke-linejoin:round; stroke-width:2; stroke-opacity:0.1; fill:none" points="2222.95,1241.31 2222.95,184.932 "/>
<polyline clip-path="url(#clip912)" style="stroke:#000000; stroke-linecap:round; stroke-linejoin:round; stroke-width:2; stroke-opacity:0.1; fill:none" points="469.828,1054.73 2274.02,1054.73 "/>
<polyline clip-path="url(#clip912)" style="stroke:#000000; stroke-linecap:round; stroke-linejoin:round; stroke-width:2; stroke-opacity:0.1; fill:none" points="469.828,831.506 2274.02,831.506 "/>
<polyline clip-path="url(#clip912)" style="stroke:#000000; stroke-linecap:round; stroke-linejoin:round; stroke-width:2; stroke-opacity:0.1; fill:none" points="469.828,608.286 2274.02,608.286 "/>
<polyline clip-path="url(#clip912)" style="stroke:#000000; stroke-linecap:round; stroke-linejoin:round; stroke-width:2; stroke-opacity:0.1; fill:none" points="469.828,385.065 2274.02,385.065 "/>
<polyline clip-path="url(#clip910)" style="stroke:#000000; stroke-linecap:round; stroke-linejoin:round; stroke-width:4; stroke-opacity:1; fill:none" points="469.828,1241.31 2274.02,1241.31 "/>
<polyline clip-path="url(#clip910)" style="stroke:#000000; stroke-linecap:round; stroke-linejoin:round; stroke-width:4; stroke-opacity:1; fill:none" points="517.479,1241.31 517.479,1222.41 "/>
<polyline clip-path="url(#clip910)" style="stroke:#000000; stroke-linecap:round; stroke-linejoin:round; stroke-width:4; stroke-opacity:1; fill:none" points="858.574,1241.31 858.574,1222.41 "/>
<polyline clip-path="url(#clip910)" style="stroke:#000000; stroke-linecap:round; stroke-linejoin:round; stroke-width:4; stroke-opacity:1; fill:none" points="1199.67,1241.31 1199.67,1222.41 "/>
<polyline clip-path="url(#clip910)" style="stroke:#000000; stroke-linecap:round; stroke-linejoin:round; stroke-width:4; stroke-opacity:1; fill:none" points="1540.76,1241.31 1540.76,1222.41 "/>
<polyline clip-path="url(#clip910)" style="stroke:#000000; stroke-linecap:round; stroke-linejoin:round; stroke-width:4; stroke-opacity:1; fill:none" points="1881.86,1241.31 1881.86,1222.41 "/>
<polyline clip-path="url(#clip910)" style="stroke:#000000; stroke-linecap:round; stroke-linejoin:round; stroke-width:4; stroke-opacity:1; fill:none" points="2222.95,1241.31 2222.95,1222.41 "/>
<path clip-path="url(#clip910)" d="M517.479 1275.16 Q512.965 1275.16 510.679 1279.62 Q508.422 1284.04 508.422 1292.95 Q508.422 1301.84 510.679 1306.29 Q512.965 1310.72 517.479 1310.72 Q522.021 1310.72 524.278 1306.29 Q526.564 1301.84 526.564 1292.95 Q526.564 1284.04 524.278 1279.62 Q522.021 1275.16 517.479 1275.16 M517.479 1270.53 Q524.741 1270.53 528.561 1276.29 Q532.409 1282.02 532.409 1292.95 Q532.409 1303.86 528.561 1309.62 Q524.741 1315.35 517.479 1315.35 Q510.216 1315.35 506.368 1309.62 Q502.548 1303.86 502.548 1292.95 Q502.548 1282.02 506.368 1276.29 Q510.216 1270.53 517.479 1270.53 Z" fill="#000000" fill-rule="nonzero" fill-opacity="1" /><path clip-path="url(#clip910)" d="M808.082 1309.59 L817.631 1309.59 L817.631 1276.64 L807.243 1278.72 L807.243 1273.39 L817.573 1271.31 L823.418 1271.31 L823.418 1309.59 L832.966 1309.59 L832.966 1314.51 L808.082 1314.51 L808.082 1309.59 Z" fill="#000000" fill-rule="nonzero" fill-opacity="1" /><path clip-path="url(#clip910)" d="M857.272 1275.16 Q852.758 1275.16 850.472 1279.62 Q848.215 1284.04 848.215 1292.95 Q848.215 1301.84 850.472 1306.29 Q852.758 1310.72 857.272 1310.72 Q861.814 1310.72 864.071 1306.29 Q866.357 1301.84 866.357 1292.95 Q866.357 1284.04 864.071 1279.62 Q861.814 1275.16 857.272 1275.16 M857.272 1270.53 Q864.534 1270.53 868.354 1276.29 Q872.202 1282.02 872.202 1292.95 Q872.202 1303.86 868.354 1309.62 Q864.534 1315.35 857.272 1315.35 Q850.009 1315.35 846.161 1309.62 Q842.341 1303.86 842.341 1292.95 Q842.341 1282.02 846.161 1276.29 Q850.009 1270.53 857.272 1270.53 Z" fill="#000000" fill-rule="nonzero" fill-opacity="1" /><path clip-path="url(#clip910)" d="M894.974 1275.16 Q890.46 1275.16 888.174 1279.62 Q885.917 1284.04 885.917 1292.95 Q885.917 1301.84 888.174 1306.29 Q890.46 1310.72 894.974 1310.72 Q899.517 1310.72 901.774 1306.29 Q904.06 1301.84 904.06 1292.95 Q904.06 1284.04 901.774 1279.62 Q899.517 1275.16 894.974 1275.16 M894.974 1270.53 Q902.237 1270.53 906.056 1276.29 Q909.904 1282.02 909.904 1292.95 Q909.904 1303.86 906.056 1309.62 Q902.237 1315.35 894.974 1315.35 Q887.711 1315.35 883.863 1309.62 Q880.043 1303.86 880.043 1292.95 Q880.043 1282.02 883.863 1276.29 Q887.711 1270.53 894.974 1270.53 Z" fill="#000000" fill-rule="nonzero" fill-opacity="1" /><path clip-path="url(#clip910)" d="M1154.28 1309.59 L1174.68 1309.59 L1174.68 1314.51 L1147.25 1314.51 L1147.25 1309.59 Q1150.58 1306.15 1156.31 1300.36 Q1162.07 1294.55 1163.54 1292.87 Q1166.35 1289.71 1167.45 1287.54 Q1168.58 1285.34 1168.58 1283.23 Q1168.58 1279.79 1166.15 1277.62 Q1163.75 1275.45 1159.87 1275.45 Q1157.12 1275.45 1154.05 1276.4 Q1151.01 1277.36 1147.54 1279.3 L1147.54 1273.39 Q1151.07 1271.98 1154.14 1271.25 Q1157.21 1270.53 1159.75 1270.53 Q1166.47 1270.53 1170.46 1273.89 Q1174.45 1277.24 1174.45 1282.86 Q1174.45 1285.52 1173.44 1287.92 Q1172.46 1290.29 1169.82 1293.53 Q1169.1 1294.37 1165.22 1298.39 Q1161.34 1302.39 1154.28 1309.59 Z" fill="#000000" fill-rule="nonzero" fill-opacity="1" /><path clip-path="url(#clip910)" d="M1199.45 1275.16 Q1194.94 1275.16 1192.65 1279.62 Q1190.4 1284.04 1190.4 1292.95 Q1190.4 1301.84 1192.65 1306.29 Q1194.94 1310.72 1199.45 1310.72 Q1203.99 1310.72 1206.25 1306.29 Q1208.54 1301.84 1208.54 1292.95 Q1208.54 1284.04 1206.25 1279.62 Q1203.99 1275.16 1199.45 1275.16 M1199.45 1270.53 Q1206.71 1270.53 1210.53 1276.29 Q1214.38 1282.02 1214.38 1292.95 Q1214.38 1303.86 1210.53 1309.62 Q1206.71 1315.35 1199.45 1315.35 Q1192.19 1315.35 1188.34 1309.62 Q1184.52 1303.86 1184.52 1292.95 Q1184.52 1282.02 1188.34 1276.29 Q1192.19 1270.53 1199.45 1270.53 Z" fill="#000000" fill-rule="nonzero" fill-opacity="1" /><path clip-path="url(#clip910)" d="M1237.15 1275.16 Q1232.64 1275.16 1230.35 1279.62 Q1228.1 1284.04 1228.1 1292.95 Q1228.1 1301.84 1230.35 1306.29 Q1232.64 1310.72 1237.15 1310.72 Q1241.7 1310.72 1243.95 1306.29 Q1246.24 1301.84 1246.24 1292.95 Q1246.24 1284.04 1243.95 1279.62 Q1241.7 1275.16 1237.15 1275.16 M1237.15 1270.53 Q1244.42 1270.53 1248.24 1276.29 Q1252.08 1282.02 1252.08 1292.95 Q1252.08 1303.86 1248.24 1309.62 Q1244.42 1315.35 1237.15 1315.35 Q1229.89 1315.35 1226.04 1309.62 Q1222.22 1303.86 1222.22 1292.95 Q1222.22 1282.02 1226.04 1276.29 Q1229.89 1270.53 1237.15 1270.53 Z" fill="#000000" fill-rule="nonzero" fill-opacity="1" /><path clip-path="url(#clip910)" d="M1507.97 1291.22 Q1512.16 1292.12 1514.51 1294.95 Q1516.88 1297.79 1516.88 1301.95 Q1516.88 1308.35 1512.48 1311.85 Q1508.08 1315.35 1499.98 1315.35 Q1497.26 1315.35 1494.37 1314.8 Q1491.5 1314.28 1488.43 1313.21 L1488.43 1307.57 Q1490.87 1308.98 1493.76 1309.71 Q1496.65 1310.43 1499.81 1310.43 Q1505.3 1310.43 1508.17 1308.26 Q1511.06 1306.09 1511.06 1301.95 Q1511.06 1298.13 1508.37 1295.99 Q1505.71 1293.82 1500.93 1293.82 L1495.9 1293.82 L1495.9 1289.02 L1501.17 1289.02 Q1505.48 1289.02 1507.76 1287.31 Q1510.05 1285.58 1510.05 1282.34 Q1510.05 1279.01 1507.68 1277.24 Q1505.33 1275.45 1500.93 1275.45 Q1498.53 1275.45 1495.78 1275.97 Q1493.04 1276.49 1489.74 1277.59 L1489.74 1272.38 Q1493.06 1271.46 1495.96 1270.99 Q1498.88 1270.53 1501.46 1270.53 Q1508.11 1270.53 1511.99 1273.57 Q1515.87 1276.58 1515.87 1281.73 Q1515.87 1285.32 1513.81 1287.8 Q1511.76 1290.26 1507.97 1291.22 Z" fill="#000000" fill-rule="nonzero" fill-opacity="1" /><path clip-path="url(#clip910)" d="M1540.46 1275.16 Q1535.95 1275.16 1533.66 1279.62 Q1531.4 1284.04 1531.4 1292.95 Q1531.4 1301.84 1533.66 1306.29 Q1535.95 1310.72 1540.46 1310.72 Q1545 1310.72 1547.26 1306.29 Q1549.55 1301.84 1549.55 1292.95 Q1549.55 1284.04 1547.26 1279.62 Q1545 1275.16 1540.46 1275.16 M1540.46 1270.53 Q1547.72 1270.53 1551.54 1276.29 Q1555.39 1282.02 1555.39 1292.95 Q1555.39 1303.86 1551.54 1309.62 Q1547.72 1315.35 1540.46 1315.35 Q1533.2 1315.35 1529.35 1309.62 Q1525.53 1303.86 1525.53 1292.95 Q1525.53 1282.02 1529.35 1276.29 Q1533.2 1270.53 1540.46 1270.53 Z" fill="#000000" fill-rule="nonzero" fill-opacity="1" /><path clip-path="url(#clip910)" d="M1578.16 1275.16 Q1573.65 1275.16 1571.36 1279.62 Q1569.11 1284.04 1569.11 1292.95 Q1569.11 1301.84 1571.36 1306.29 Q1573.65 1310.72 1578.16 1310.72 Q1582.71 1310.72 1584.96 1306.29 Q1587.25 1301.84 1587.25 1292.95 Q1587.25 1284.04 1584.96 1279.62 Q1582.71 1275.16 1578.16 1275.16 M1578.16 1270.53 Q1585.42 1270.53 1589.24 1276.29 Q1593.09 1282.02 1593.09 1292.95 Q1593.09 1303.86 1589.24 1309.62 Q1585.42 1315.35 1578.16 1315.35 Q1570.9 1315.35 1567.05 1309.62 Q1563.23 1303.86 1563.23 1292.95 Q1563.23 1282.02 1567.05 1276.29 Q1570.9 1270.53 1578.16 1270.53 Z" fill="#000000" fill-rule="nonzero" fill-opacity="1" /><path clip-path="url(#clip910)" d="M1848.22 1276.4 L1833.46 1299.47 L1848.22 1299.47 L1848.22 1276.4 M1846.69 1271.31 L1854.04 1271.31 L1854.04 1299.47 L1860.2 1299.47 L1860.2 1304.33 L1854.04 1304.33 L1854.04 1314.51 L1848.22 1314.51 L1848.22 1304.33 L1828.72 1304.33 L1828.72 1298.68 L1846.69 1271.31 Z" fill="#000000" fill-rule="nonzero" fill-opacity="1" /><path clip-path="url(#clip910)" d="M1882.37 1275.16 Q1877.85 1275.16 1875.57 1279.62 Q1873.31 1284.04 1873.31 1292.95 Q1873.31 1301.84 1875.57 1306.29 Q1877.85 1310.72 1882.37 1310.72 Q1886.91 1310.72 1889.16 1306.29 Q1891.45 1301.84 1891.45 1292.95 Q1891.45 1284.04 1889.16 1279.62 Q1886.91 1275.16 1882.37 1275.16 M1882.37 1270.53 Q1889.63 1270.53 1893.45 1276.29 Q1897.3 1282.02 1897.3 1292.95 Q1897.3 1303.86 1893.45 1309.62 Q1889.63 1315.35 1882.37 1315.35 Q1875.1 1315.35 1871.25 1309.62 Q1867.43 1303.86 1867.43 1292.95 Q1867.43 1282.02 1871.25 1276.29 Q1875.1 1270.53 1882.37 1270.53 Z" fill="#000000" fill-rule="nonzero" fill-opacity="1" /><path clip-path="url(#clip910)" d="M1920.07 1275.16 Q1915.55 1275.16 1913.27 1279.62 Q1911.01 1284.04 1911.01 1292.95 Q1911.01 1301.84 1913.27 1306.29 Q1915.55 1310.72 1920.07 1310.72 Q1924.61 1310.72 1926.87 1306.29 Q1929.15 1301.84 1929.15 1292.95 Q1929.15 1284.04 1926.87 1279.62 Q1924.61 1275.16 1920.07 1275.16 M1920.07 1270.53 Q1927.33 1270.53 1931.15 1276.29 Q1935 1282.02 1935 1292.95 Q1935 1303.86 1931.15 1309.62 Q1927.33 1315.35 1920.07 1315.35 Q1912.8 1315.35 1908.96 1309.62 Q1905.14 1303.86 1905.14 1292.95 Q1905.14 1282.02 1908.96 1276.29 Q1912.8 1270.53 1920.07 1270.53 Z" fill="#000000" fill-rule="nonzero" fill-opacity="1" /><path clip-path="url(#clip910)" d="M2172.48 1271.31 L2195.42 1271.31 L2195.42 1276.23 L2177.83 1276.23 L2177.83 1286.82 Q2179.1 1286.39 2180.38 1286.18 Q2181.65 1285.95 2182.92 1285.95 Q2190.16 1285.95 2194.38 1289.92 Q2198.6 1293.88 2198.6 1300.65 Q2198.6 1307.62 2194.26 1311.5 Q2189.92 1315.35 2182.03 1315.35 Q2179.31 1315.35 2176.47 1314.89 Q2173.66 1314.42 2170.65 1313.5 L2170.65 1307.62 Q2173.26 1309.04 2176.04 1309.74 Q2178.81 1310.43 2181.91 1310.43 Q2186.92 1310.43 2189.84 1307.8 Q2192.76 1305.17 2192.76 1300.65 Q2192.76 1296.14 2189.84 1293.5 Q2186.92 1290.87 2181.91 1290.87 Q2179.57 1290.87 2177.22 1291.39 Q2174.91 1291.91 2172.48 1293.01 L2172.48 1271.31 Z" fill="#000000" fill-rule="nonzero" fill-opacity="1" /><path clip-path="url(#clip910)" d="M2222.62 1275.16 Q2218.11 1275.16 2215.82 1279.62 Q2213.56 1284.04 2213.56 1292.95 Q2213.56 1301.84 2215.82 1306.29 Q2218.11 1310.72 2222.62 1310.72 Q2227.16 1310.72 2229.42 1306.29 Q2231.71 1301.84 2231.71 1292.95 Q2231.71 1284.04 2229.42 1279.62 Q2227.16 1275.16 2222.62 1275.16 M2222.62 1270.53 Q2229.88 1270.53 2233.7 1276.29 Q2237.55 1282.02 2237.55 1292.95 Q2237.55 1303.86 2233.7 1309.62 Q2229.88 1315.35 2222.62 1315.35 Q2215.36 1315.35 2211.51 1309.62 Q2207.69 1303.86 2207.69 1292.95 Q2207.69 1282.02 2211.51 1276.29 Q2215.36 1270.53 2222.62 1270.53 Z" fill="#000000" fill-rule="nonzero" fill-opacity="1" /><path clip-path="url(#clip910)" d="M2260.32 1275.16 Q2255.81 1275.16 2253.52 1279.62 Q2251.27 1284.04 2251.27 1292.95 Q2251.27 1301.84 2253.52 1306.29 Q2255.81 1310.72 2260.32 1310.72 Q2264.87 1310.72 2267.12 1306.29 Q2269.41 1301.84 2269.41 1292.95 Q2269.41 1284.04 2267.12 1279.62 Q2264.87 1275.16 2260.32 1275.16 M2260.32 1270.53 Q2267.59 1270.53 2271.41 1276.29 Q2275.25 1282.02 2275.25 1292.95 Q2275.25 1303.86 2271.41 1309.62 Q2267.59 1315.35 2260.32 1315.35 Q2253.06 1315.35 2249.21 1309.62 Q2245.39 1303.86 2245.39 1292.95 Q2245.39 1282.02 2249.21 1276.29 Q2253.06 1270.53 2260.32 1270.53 Z" fill="#000000" fill-rule="nonzero" fill-opacity="1" /><path clip-path="url(#clip910)" d="M1178.5 1351.62 L1218.7 1351.62 L1218.7 1357.03 L1201.83 1357.03 L1201.83 1399.14 L1195.37 1399.14 L1195.37 1357.03 L1178.5 1357.03 L1178.5 1351.62 Z" fill="#000000" fill-rule="nonzero" fill-opacity="1" /><path clip-path="url(#clip910)" d="M1235.73 1368.96 Q1234.74 1368.39 1233.56 1368.13 Q1232.42 1367.85 1231.02 1367.85 Q1226.05 1367.85 1223.38 1371.09 Q1220.74 1374.31 1220.74 1380.36 L1220.74 1399.14 L1214.85 1399.14 L1214.85 1363.49 L1220.74 1363.49 L1220.74 1369.03 Q1222.58 1365.78 1225.54 1364.22 Q1228.5 1362.63 1232.74 1362.63 Q1233.34 1362.63 1234.07 1362.72 Q1234.8 1362.79 1235.7 1362.95 L1235.73 1368.96 Z" fill="#000000" fill-rule="nonzero" fill-opacity="1" /><path clip-path="url(#clip910)" d="M1258.07 1381.22 Q1250.97 1381.22 1248.24 1382.84 Q1245.5 1384.46 1245.5 1388.38 Q1245.5 1391.5 1247.54 1393.34 Q1249.6 1395.16 1253.14 1395.16 Q1258.01 1395.16 1260.94 1391.72 Q1263.9 1388.25 1263.9 1382.52 L1263.9 1381.22 L1258.07 1381.22 M1269.75 1378.8 L1269.75 1399.14 L1263.9 1399.14 L1263.9 1393.72 Q1261.89 1396.97 1258.9 1398.53 Q1255.91 1400.06 1251.58 1400.06 Q1246.1 1400.06 1242.86 1397 Q1239.64 1393.92 1239.64 1388.76 Q1239.64 1382.74 1243.65 1379.69 Q1247.69 1376.63 1255.68 1376.63 L1263.9 1376.63 L1263.9 1376.06 Q1263.9 1372.02 1261.22 1369.82 Q1258.58 1367.59 1253.77 1367.59 Q1250.72 1367.59 1247.82 1368.33 Q1244.93 1369.06 1242.25 1370.52 L1242.25 1365.11 Q1245.47 1363.87 1248.49 1363.26 Q1251.51 1362.63 1254.38 1362.63 Q1262.11 1362.63 1265.93 1366.64 Q1269.75 1370.65 1269.75 1378.8 Z" fill="#000000" fill-rule="nonzero" fill-opacity="1" /><path clip-path="url(#clip910)" d="M1305.27 1368.9 L1305.27 1349.61 L1311.13 1349.61 L1311.13 1399.14 L1305.27 1399.14 L1305.27 1393.79 Q1303.43 1396.97 1300.59 1398.53 Q1297.79 1400.06 1293.85 1400.06 Q1287.39 1400.06 1283.31 1394.9 Q1279.27 1389.75 1279.27 1381.34 Q1279.27 1372.94 1283.31 1367.78 Q1287.39 1362.63 1293.85 1362.63 Q1297.79 1362.63 1300.59 1364.19 Q1303.43 1365.72 1305.27 1368.9 M1285.32 1381.34 Q1285.32 1387.8 1287.96 1391.5 Q1290.63 1395.16 1295.28 1395.16 Q1299.93 1395.16 1302.6 1391.5 Q1305.27 1387.8 1305.27 1381.34 Q1305.27 1374.88 1302.6 1371.22 Q1299.93 1367.53 1295.28 1367.53 Q1290.63 1367.53 1287.96 1371.22 Q1285.32 1374.88 1285.32 1381.34 Z" fill="#000000" fill-rule="nonzero" fill-opacity="1" /><path clip-path="url(#clip910)" d="M1323.19 1363.49 L1329.05 1363.49 L1329.05 1399.14 L1323.19 1399.14 L1323.19 1363.49 M1323.19 1349.61 L1329.05 1349.61 L1329.05 1357.03 L1323.19 1357.03 L1323.19 1349.61 Z" fill="#000000" fill-rule="nonzero" fill-opacity="1" /><path clip-path="url(#clip910)" d="M1370.94 1377.62 L1370.94 1399.14 L1365.08 1399.14 L1365.08 1377.81 Q1365.08 1372.75 1363.11 1370.24 Q1361.13 1367.72 1357.19 1367.72 Q1352.44 1367.72 1349.71 1370.74 Q1346.97 1373.77 1346.97 1378.99 L1346.97 1399.14 L1341.08 1399.14 L1341.08 1363.49 L1346.97 1363.49 L1346.97 1369.03 Q1349.07 1365.81 1351.9 1364.22 Q1354.77 1362.63 1358.49 1362.63 Q1364.63 1362.63 1367.78 1366.45 Q1370.94 1370.24 1370.94 1377.62 Z" fill="#000000" fill-rule="nonzero" fill-opacity="1" /><path clip-path="url(#clip910)" d="M1406.07 1380.9 Q1406.07 1374.53 1403.43 1371.03 Q1400.82 1367.53 1396.08 1367.53 Q1391.37 1367.53 1388.73 1371.03 Q1386.12 1374.53 1386.12 1380.9 Q1386.12 1387.23 1388.73 1390.73 Q1391.37 1394.23 1396.08 1394.23 Q1400.82 1394.23 1403.43 1390.73 Q1406.07 1387.23 1406.07 1380.9 M1411.93 1394.71 Q1411.93 1403.81 1407.89 1408.24 Q1403.85 1412.69 1395.51 1412.69 Q1392.42 1412.69 1389.68 1412.22 Q1386.94 1411.77 1384.37 1410.82 L1384.37 1405.12 Q1386.94 1406.52 1389.46 1407.19 Q1391.97 1407.86 1394.58 1407.86 Q1400.34 1407.86 1403.21 1404.83 Q1406.07 1401.84 1406.07 1395.76 L1406.07 1392.87 Q1404.26 1396.02 1401.43 1397.58 Q1398.59 1399.14 1394.65 1399.14 Q1388.09 1399.14 1384.08 1394.14 Q1380.07 1389.14 1380.07 1380.9 Q1380.07 1372.62 1384.08 1367.63 Q1388.09 1362.63 1394.65 1362.63 Q1398.59 1362.63 1401.43 1364.19 Q1404.26 1365.75 1406.07 1368.9 L1406.07 1363.49 L1411.93 1363.49 L1411.93 1394.71 Z" fill="#000000" fill-rule="nonzero" fill-opacity="1" /><path clip-path="url(#clip910)" d="M1451.4 1356.9 L1451.4 1393.85 L1459.16 1393.85 Q1469 1393.85 1473.55 1389.4 Q1478.13 1384.94 1478.13 1375.33 Q1478.13 1365.78 1473.55 1361.36 Q1469 1356.9 1459.16 1356.9 L1451.4 1356.9 M1444.97 1351.62 L1458.18 1351.62 Q1471.99 1351.62 1478.45 1357.38 Q1484.91 1363.11 1484.91 1375.33 Q1484.91 1387.61 1478.42 1393.37 Q1471.93 1399.14 1458.18 1399.14 L1444.97 1399.14 L1444.97 1351.62 Z" fill="#000000" fill-rule="nonzero" fill-opacity="1" /><path clip-path="url(#clip910)" d="M1511.11 1381.22 Q1504.01 1381.22 1501.27 1382.84 Q1498.54 1384.46 1498.54 1388.38 Q1498.54 1391.5 1500.57 1393.34 Q1502.64 1395.16 1506.17 1395.16 Q1511.04 1395.16 1513.97 1391.72 Q1516.93 1388.25 1516.93 1382.52 L1516.93 1381.22 L1511.11 1381.22 M1522.79 1378.8 L1522.79 1399.14 L1516.93 1399.14 L1516.93 1393.72 Q1514.93 1396.97 1511.94 1398.53 Q1508.94 1400.06 1504.61 1400.06 Q1499.14 1400.06 1495.89 1397 Q1492.68 1393.92 1492.68 1388.76 Q1492.68 1382.74 1496.69 1379.69 Q1500.73 1376.63 1508.72 1376.63 L1516.93 1376.63 L1516.93 1376.06 Q1516.93 1372.02 1514.26 1369.82 Q1511.62 1367.59 1506.81 1367.59 Q1503.76 1367.59 1500.86 1368.33 Q1497.96 1369.06 1495.29 1370.52 L1495.29 1365.11 Q1498.5 1363.87 1501.53 1363.26 Q1504.55 1362.63 1507.42 1362.63 Q1515.15 1362.63 1518.97 1366.64 Q1522.79 1370.65 1522.79 1378.8 Z" fill="#000000" fill-rule="nonzero" fill-opacity="1" /><path clip-path="url(#clip910)" d="M1549.68 1402.45 Q1547.2 1408.81 1544.85 1410.75 Q1542.49 1412.69 1538.54 1412.69 L1533.87 1412.69 L1533.87 1407.79 L1537.3 1407.79 Q1539.72 1407.79 1541.06 1406.65 Q1542.4 1405.5 1544.02 1401.24 L1545.07 1398.56 L1530.65 1363.49 L1536.86 1363.49 L1548 1391.37 L1559.14 1363.49 L1565.34 1363.49 L1549.68 1402.45 Z" fill="#000000" fill-rule="nonzero" fill-opacity="1" /><polyline clip-path="url(#clip910)" style="stroke:#000000; stroke-linecap:round; stroke-linejoin:round; stroke-width:4; stroke-opacity:1; fill:none" points="469.828,1241.31 469.828,184.932 "/>
<polyline clip-path="url(#clip910)" style="stroke:#000000; stroke-linecap:round; stroke-linejoin:round; stroke-width:4; stroke-opacity:1; fill:none" points="469.828,1054.73 488.725,1054.73 "/>
<polyline clip-path="url(#clip910)" style="stroke:#000000; stroke-linecap:round; stroke-linejoin:round; stroke-width:4; stroke-opacity:1; fill:none" points="469.828,831.506 488.725,831.506 "/>
<polyline clip-path="url(#clip910)" style="stroke:#000000; stroke-linecap:round; stroke-linejoin:round; stroke-width:4; stroke-opacity:1; fill:none" points="469.828,608.286 488.725,608.286 "/>
<polyline clip-path="url(#clip910)" style="stroke:#000000; stroke-linecap:round; stroke-linejoin:round; stroke-width:4; stroke-opacity:1; fill:none" points="469.828,385.065 488.725,385.065 "/>
<path clip-path="url(#clip910)" d="M318.985 1055.29 L356.079 1055.29 L356.079 1060.21 L318.985 1060.21 L318.985 1055.29 Z" fill="#000000" fill-rule="nonzero" fill-opacity="1" /><path clip-path="url(#clip910)" d="M369.708 1071.41 L379.256 1071.41 L379.256 1038.45 L368.869 1040.53 L368.869 1035.21 L379.198 1033.13 L385.043 1033.13 L385.043 1071.41 L394.592 1071.41 L394.592 1076.33 L369.708 1076.33 L369.708 1071.41 Z" fill="#000000" fill-rule="nonzero" fill-opacity="1" /><path clip-path="url(#clip910)" d="M418.897 1036.97 Q414.383 1036.97 412.097 1041.43 Q409.841 1045.86 409.841 1054.77 Q409.841 1063.65 412.097 1068.11 Q414.383 1072.54 418.897 1072.54 Q423.44 1072.54 425.697 1068.11 Q427.983 1063.65 427.983 1054.77 Q427.983 1045.86 425.697 1041.43 Q423.44 1036.97 418.897 1036.97 M418.897 1032.34 Q426.16 1032.34 429.979 1038.1 Q433.828 1043.83 433.828 1054.77 Q433.828 1065.68 429.979 1071.44 Q426.16 1077.17 418.897 1077.17 Q411.635 1077.17 407.786 1071.44 Q403.967 1065.68 403.967 1054.77 Q403.967 1043.83 407.786 1038.1 Q411.635 1032.34 418.897 1032.34 Z" fill="#000000" fill-rule="nonzero" fill-opacity="1" /><path clip-path="url(#clip910)" d="M357.931 832.07 L395.026 832.07 L395.026 836.989 L357.931 836.989 L357.931 832.07 Z" fill="#000000" fill-rule="nonzero" fill-opacity="1" /><path clip-path="url(#clip910)" d="M407.699 809.906 L430.645 809.906 L430.645 814.825 L413.052 814.825 L413.052 825.415 Q414.325 824.981 415.599 824.778 Q416.872 824.547 418.145 824.547 Q425.379 824.547 429.603 828.511 Q433.828 832.475 433.828 839.246 Q433.828 846.219 429.487 850.097 Q425.147 853.945 417.248 853.945 Q414.528 853.945 411.692 853.482 Q408.886 853.019 405.876 852.093 L405.876 846.219 Q408.481 847.637 411.258 848.332 Q414.036 849.026 417.132 849.026 Q422.138 849.026 425.06 846.393 Q427.983 843.76 427.983 839.246 Q427.983 834.732 425.06 832.099 Q422.138 829.466 417.132 829.466 Q414.788 829.466 412.445 829.987 Q410.13 830.508 407.699 831.607 L407.699 809.906 Z" fill="#000000" fill-rule="nonzero" fill-opacity="1" /><path clip-path="url(#clip910)" d="M418.897 590.534 Q414.383 590.534 412.097 594.99 Q409.841 599.417 409.841 608.329 Q409.841 617.212 412.097 621.668 Q414.383 626.095 418.897 626.095 Q423.44 626.095 425.697 621.668 Q427.983 617.212 427.983 608.329 Q427.983 599.417 425.697 594.99 Q423.44 590.534 418.897 590.534 M418.897 585.904 Q426.16 585.904 429.979 591.662 Q433.828 597.392 433.828 608.329 Q433.828 619.238 429.979 624.996 Q426.16 630.725 418.897 630.725 Q411.635 630.725 407.786 624.996 Q403.967 619.238 403.967 608.329 Q403.967 597.392 407.786 591.662 Q411.635 585.904 418.897 585.904 Z" fill="#000000" fill-rule="nonzero" fill-opacity="1" /><path clip-path="url(#clip910)" d="M407.699 363.465 L430.645 363.465 L430.645 368.384 L413.052 368.384 L413.052 378.975 Q414.325 378.541 415.599 378.338 Q416.872 378.107 418.145 378.107 Q425.379 378.107 429.603 382.071 Q433.828 386.035 433.828 392.806 Q433.828 399.779 429.487 403.656 Q425.147 407.505 417.248 407.505 Q414.528 407.505 411.692 407.042 Q408.886 406.579 405.876 405.653 L405.876 399.779 Q408.481 401.197 411.258 401.891 Q414.036 402.586 417.132 402.586 Q422.138 402.586 425.06 399.953 Q427.983 397.319 427.983 392.806 Q427.983 388.292 425.06 385.659 Q422.138 383.026 417.132 383.026 Q414.788 383.026 412.445 383.546 Q410.13 384.067 407.699 385.167 L407.699 363.465 Z" fill="#000000" fill-rule="nonzero" fill-opacity="1" /><path clip-path="url(#clip910)" d="M221.209 1032.86 L221.209 1002.81 L226.619 1002.81 L226.619 1026.43 L240.688 1026.43 L240.688 1003.8 L246.098 1003.8 L246.098 1026.43 L263.318 1026.43 L263.318 1002.24 L268.729 1002.24 L268.729 1032.86 L221.209 1032.86 Z" fill="#000000" fill-rule="nonzero" fill-opacity="1" /><path clip-path="url(#clip910)" d="M233.081 962.292 L250.427 975.182 L268.729 961.623 L268.729 968.53 L254.724 978.906 L268.729 989.282 L268.729 996.189 L250.077 982.344 L233.081 995.011 L233.081 988.105 L245.78 978.651 L233.081 969.198 L233.081 962.292 Z" fill="#000000" fill-rule="nonzero" fill-opacity="1" /><path clip-path="url(#clip910)" d="M234.449 928.84 L239.924 928.84 Q238.555 931.322 237.887 933.837 Q237.186 936.319 237.186 938.866 Q237.186 944.563 240.815 947.714 Q244.412 950.865 250.936 950.865 Q257.461 950.865 261.09 947.714 Q264.686 944.563 264.686 938.866 Q264.686 936.319 264.018 933.837 Q263.318 931.322 261.949 928.84 L267.36 928.84 Q268.506 931.291 269.079 933.932 Q269.652 936.542 269.652 939.502 Q269.652 947.555 264.591 952.297 Q259.53 957.04 250.936 957.04 Q242.215 957.04 237.218 952.266 Q232.221 947.459 232.221 939.12 Q232.221 936.415 232.794 933.837 Q233.335 931.259 234.449 928.84 Z" fill="#000000" fill-rule="nonzero" fill-opacity="1" /><path clip-path="url(#clip910)" d="M249.44 888.163 L252.305 888.163 L252.305 915.09 Q258.352 914.708 261.535 911.461 Q264.686 908.183 264.686 902.358 Q264.686 898.985 263.859 895.834 Q263.031 892.651 261.376 889.532 L266.914 889.532 Q268.251 892.683 268.951 895.993 Q269.652 899.303 269.652 902.709 Q269.652 911.239 264.686 916.236 Q259.721 921.201 251.255 921.201 Q242.502 921.201 237.377 916.49 Q232.221 911.748 232.221 903.727 Q232.221 896.534 236.868 892.364 Q241.483 888.163 249.44 888.163 M247.722 894.019 Q242.916 894.083 240.051 896.725 Q237.186 899.335 237.186 903.663 Q237.186 908.565 239.956 911.525 Q242.725 914.453 247.754 914.899 L247.722 894.019 Z" fill="#000000" fill-rule="nonzero" fill-opacity="1" /><path clip-path="url(#clip910)" d="M234.131 855.825 L239.669 855.825 Q238.396 858.308 237.759 860.981 Q237.123 863.655 237.123 866.52 Q237.123 870.88 238.46 873.076 Q239.796 875.241 242.47 875.241 Q244.507 875.241 245.685 873.681 Q246.831 872.121 247.881 867.411 L248.326 865.406 Q249.663 859.167 252.114 856.557 Q254.533 853.915 258.894 853.915 Q263.859 853.915 266.755 857.862 Q269.652 861.777 269.652 868.652 Q269.652 871.517 269.079 874.636 Q268.538 877.723 267.424 881.161 L261.376 881.161 Q263.063 877.914 263.922 874.763 Q264.75 871.612 264.75 868.525 Q264.75 864.387 263.35 862.159 Q261.917 859.931 259.339 859.931 Q256.952 859.931 255.679 861.554 Q254.406 863.146 253.228 868.588 L252.751 870.625 Q251.605 876.068 249.25 878.487 Q246.862 880.906 242.725 880.906 Q237.696 880.906 234.958 877.341 Q232.221 873.776 232.221 867.22 Q232.221 863.973 232.699 861.109 Q233.176 858.244 234.131 855.825 Z" fill="#000000" fill-rule="nonzero" fill-opacity="1" /><path clip-path="url(#clip910)" d="M234.131 821.864 L239.669 821.864 Q238.396 824.347 237.759 827.02 Q237.123 829.694 237.123 832.558 Q237.123 836.919 238.46 839.115 Q239.796 841.279 242.47 841.279 Q244.507 841.279 245.685 839.72 Q246.831 838.16 247.881 833.45 L248.326 831.444 Q249.663 825.206 252.114 822.596 Q254.533 819.954 258.894 819.954 Q263.859 819.954 266.755 823.901 Q269.652 827.816 269.652 834.691 Q269.652 837.556 269.079 840.675 Q268.538 843.762 267.424 847.2 L261.376 847.2 Q263.063 843.953 263.922 840.802 Q264.75 837.651 264.75 834.564 Q264.75 830.426 263.35 828.198 Q261.917 825.97 259.339 825.97 Q256.952 825.97 255.679 827.593 Q254.406 829.185 253.228 834.627 L252.751 836.664 Q251.605 842.107 249.25 844.526 Q246.862 846.945 242.725 846.945 Q237.696 846.945 234.958 843.38 Q232.221 839.815 232.221 833.259 Q232.221 830.012 232.699 827.148 Q233.176 824.283 234.131 821.864 Z" fill="#000000" fill-rule="nonzero" fill-opacity="1" /><path clip-path="url(#clip910)" d="M261.949 757.252 L249.186 757.252 L249.186 767.756 L243.902 767.756 L243.902 750.886 L264.304 750.886 Q266.946 754.61 268.315 759.098 Q269.652 763.586 269.652 768.679 Q269.652 779.819 263.159 786.121 Q256.634 792.391 245.016 792.391 Q233.367 792.391 226.874 786.121 Q220.349 779.819 220.349 768.679 Q220.349 764.032 221.495 759.862 Q222.641 755.661 224.869 752.128 L231.712 752.128 Q228.688 755.693 227.161 759.703 Q225.633 763.713 225.633 768.138 Q225.633 776.859 230.502 781.251 Q235.372 785.611 245.016 785.611 Q254.629 785.611 259.498 781.251 Q264.368 776.859 264.368 768.138 Q264.368 764.732 263.795 762.058 Q263.19 759.385 261.949 757.252 Z" fill="#000000" fill-rule="nonzero" fill-opacity="1" /><path clip-path="url(#clip910)" d="M238.555 718.74 Q237.982 719.726 237.728 720.904 Q237.441 722.05 237.441 723.45 Q237.441 728.415 240.688 731.089 Q243.902 733.731 249.95 733.731 L268.729 733.731 L268.729 739.619 L233.081 739.619 L233.081 733.731 L238.619 733.731 Q235.372 731.885 233.813 728.925 Q232.221 725.965 232.221 721.732 Q232.221 721.127 232.317 720.395 Q232.38 719.663 232.54 718.771 L238.555 718.74 Z" fill="#000000" fill-rule="nonzero" fill-opacity="1" /><path clip-path="url(#clip910)" d="M237.186 700.215 Q237.186 704.926 240.879 707.663 Q244.539 710.401 250.936 710.401 Q257.334 710.401 261.026 707.695 Q264.686 704.958 264.686 700.215 Q264.686 695.537 260.994 692.799 Q257.302 690.062 250.936 690.062 Q244.603 690.062 240.91 692.799 Q237.186 695.537 237.186 700.215 M232.221 700.215 Q232.221 692.577 237.186 688.216 Q242.152 683.856 250.936 683.856 Q259.689 683.856 264.686 688.216 Q269.652 692.577 269.652 700.215 Q269.652 707.886 264.686 712.247 Q259.689 716.575 250.936 716.575 Q242.152 716.575 237.186 712.247 Q232.221 707.886 232.221 700.215 Z" fill="#000000" fill-rule="nonzero" fill-opacity="1" /><path clip-path="url(#clip910)" d="M233.081 677.554 L233.081 671.697 L260.899 664.376 L233.081 657.088 L233.081 650.181 L260.899 642.86 L233.081 635.572 L233.081 629.715 L268.729 639.041 L268.729 645.948 L239.51 653.618 L268.729 661.321 L268.729 668.228 L233.081 677.554 Z" fill="#000000" fill-rule="nonzero" fill-opacity="1" /><path clip-path="url(#clip910)" d="M222.959 615.042 L233.081 615.042 L233.081 602.979 L237.632 602.979 L237.632 615.042 L256.984 615.042 Q261.344 615.042 262.586 613.865 Q263.827 612.655 263.827 608.995 L263.827 602.979 L268.729 602.979 L268.729 608.995 Q268.729 615.774 266.214 618.352 Q263.668 620.931 256.984 620.931 L237.632 620.931 L237.632 625.227 L233.081 625.227 L233.081 620.931 L222.959 620.931 L222.959 615.042 Z" fill="#000000" fill-rule="nonzero" fill-opacity="1" /><path clip-path="url(#clip910)" d="M247.212 565.644 L268.729 565.644 L268.729 571.501 L247.403 571.501 Q242.343 571.501 239.828 573.474 Q237.314 575.448 237.314 579.394 Q237.314 584.137 240.338 586.874 Q243.361 589.611 248.581 589.611 L268.729 589.611 L268.729 595.5 L219.203 595.5 L219.203 589.611 L238.619 589.611 Q235.404 587.511 233.813 584.678 Q232.221 581.813 232.221 578.089 Q232.221 571.946 236.041 568.795 Q239.828 565.644 247.212 565.644 Z" fill="#000000" fill-rule="nonzero" fill-opacity="1" /><path clip-path="url(#clip910)" d="M246.449 510.454 Q247.149 508.385 249.44 506.443 Q251.732 504.47 255.743 502.497 L268.729 495.972 L268.729 502.879 L256.538 508.958 Q251.764 511.313 250.204 513.541 Q248.645 515.737 248.645 519.557 L248.645 526.559 L268.729 526.559 L268.729 532.988 L221.209 532.988 L221.209 518.474 Q221.209 510.326 224.614 506.316 Q228.02 502.306 234.895 502.306 Q239.383 502.306 242.343 504.406 Q245.303 506.475 246.449 510.454 M226.492 526.559 L243.361 526.559 L243.361 518.474 Q243.361 513.828 241.229 511.472 Q239.064 509.085 234.895 509.085 Q230.725 509.085 228.625 511.472 Q226.492 513.828 226.492 518.474 L226.492 526.559 Z" fill="#000000" fill-rule="nonzero" fill-opacity="1" /><path clip-path="url(#clip910)" d="M250.809 473.182 Q250.809 480.28 252.432 483.018 Q254.056 485.755 257.971 485.755 Q261.09 485.755 262.936 483.718 Q264.75 481.649 264.75 478.116 Q264.75 473.246 261.313 470.318 Q257.843 467.358 252.114 467.358 L250.809 467.358 L250.809 473.182 M248.39 461.501 L268.729 461.501 L268.729 467.358 L263.318 467.358 Q266.564 469.363 268.124 472.355 Q269.652 475.347 269.652 479.676 Q269.652 485.15 266.596 488.397 Q263.509 491.611 258.352 491.611 Q252.337 491.611 249.281 487.601 Q246.226 483.559 246.226 475.57 L246.226 467.358 L245.653 467.358 Q241.611 467.358 239.414 470.031 Q237.186 472.673 237.186 477.479 Q237.186 480.535 237.919 483.431 Q238.651 486.328 240.115 489.001 L234.704 489.001 Q233.463 485.787 232.858 482.763 Q232.221 479.739 232.221 476.875 Q232.221 469.14 236.232 465.321 Q240.242 461.501 248.39 461.501 Z" fill="#000000" fill-rule="nonzero" fill-opacity="1" /><path clip-path="url(#clip910)" d="M222.959 443.646 L233.081 443.646 L233.081 431.583 L237.632 431.583 L237.632 443.646 L256.984 443.646 Q261.344 443.646 262.586 442.468 Q263.827 441.258 263.827 437.598 L263.827 431.583 L268.729 431.583 L268.729 437.598 Q268.729 444.378 266.214 446.956 Q263.668 449.534 256.984 449.534 L237.632 449.534 L237.632 453.831 L233.081 453.831 L233.081 449.534 L222.959 449.534 L222.959 443.646 Z" fill="#000000" fill-rule="nonzero" fill-opacity="1" /><path clip-path="url(#clip910)" d="M249.44 393.388 L252.305 393.388 L252.305 420.315 Q258.352 419.933 261.535 416.687 Q264.686 413.409 264.686 407.584 Q264.686 404.21 263.859 401.059 Q263.031 397.876 261.376 394.757 L266.914 394.757 Q268.251 397.908 268.951 401.218 Q269.652 404.528 269.652 407.934 Q269.652 416.464 264.686 421.461 Q259.721 426.426 251.255 426.426 Q242.502 426.426 237.377 421.716 Q232.221 416.973 232.221 408.953 Q232.221 401.759 236.868 397.59 Q241.483 393.388 249.44 393.388 M247.722 399.245 Q242.916 399.308 240.051 401.95 Q237.186 404.56 237.186 408.889 Q237.186 413.79 239.956 416.751 Q242.725 419.679 247.754 420.124 L247.722 399.245 Z" fill="#000000" fill-rule="nonzero" fill-opacity="1" /><path clip-path="url(#clip910)" d="M767.527 31.5855 Q769.408 32.222 771.173 34.3054 Q772.967 36.3887 774.761 40.0345 L780.692 51.84 L774.413 51.84 L768.887 40.7579 Q766.746 36.4176 764.72 34.9998 Q762.724 33.582 759.251 33.582 L752.886 33.582 L752.886 51.84 L747.041 51.84 L747.041 8.64 L760.235 8.64 Q767.643 8.64 771.288 11.736 Q774.934 14.8321 774.934 21.0821 Q774.934 25.1619 773.024 27.8529 Q771.144 30.5438 767.527 31.5855 M752.886 13.4432 L752.886 28.7788 L760.235 28.7788 Q764.46 28.7788 766.601 26.8401 Q768.771 24.8726 768.771 21.0821 Q768.771 17.2916 766.601 15.3819 Q764.46 13.4432 760.235 13.4432 L752.886 13.4432 Z" fill="#000000" fill-rule="nonzero" fill-opacity="1" /><path clip-path="url(#clip910)" d="M813.042 34.3054 L813.042 36.9095 L788.563 36.9095 Q788.91 42.4072 791.861 45.3007 Q794.841 48.1653 800.137 48.1653 Q803.204 48.1653 806.068 47.4129 Q808.962 46.6606 811.797 45.156 L811.797 50.1907 Q808.933 51.406 805.924 52.0425 Q802.914 52.6791 799.818 52.6791 Q792.064 52.6791 787.521 48.1653 Q783.007 43.6514 783.007 35.9547 Q783.007 27.9975 787.289 23.339 Q791.601 18.6515 798.892 18.6515 Q805.432 18.6515 809.222 22.876 Q813.042 27.0716 813.042 34.3054 M807.718 32.7429 Q807.66 28.3737 805.258 25.7695 Q802.885 23.1654 798.95 23.1654 Q794.494 23.1654 791.803 25.6827 Q789.141 28.2001 788.736 32.7718 L807.718 32.7429 Z" fill="#000000" fill-rule="nonzero" fill-opacity="1" /><path clip-path="url(#clip910)" d="M827.046 10.2314 L827.046 19.4328 L838.013 19.4328 L838.013 23.5705 L827.046 23.5705 L827.046 41.163 Q827.046 45.1271 828.117 46.2555 Q829.216 47.384 832.544 47.384 L838.013 47.384 L838.013 51.84 L832.544 51.84 Q826.381 51.84 824.037 49.5541 Q821.693 47.2393 821.693 41.163 L821.693 23.5705 L817.787 23.5705 L817.787 19.4328 L821.693 19.4328 L821.693 10.2314 L827.046 10.2314 Z" fill="#000000" fill-rule="nonzero" fill-opacity="1" /><path clip-path="url(#clip910)" d="M844.465 39.0507 L844.465 19.4328 L849.789 19.4328 L849.789 38.8482 Q849.789 43.4488 851.583 45.7636 Q853.377 48.0495 856.965 48.0495 Q861.276 48.0495 863.765 45.3007 Q866.282 42.5519 866.282 37.8065 L866.282 19.4328 L871.606 19.4328 L871.606 51.84 L866.282 51.84 L866.282 46.8632 Q864.343 49.8145 861.768 51.2613 Q859.222 52.6791 855.837 52.6791 Q850.252 52.6791 847.359 49.2069 Q844.465 45.7347 844.465 39.0507 M857.862 18.6515 L857.862 18.6515 Z" fill="#000000" fill-rule="nonzero" fill-opacity="1" /><path clip-path="url(#clip910)" d="M901.351 24.4096 Q900.454 23.8888 899.384 23.6573 Q898.342 23.3969 897.069 23.3969 Q892.555 23.3969 890.125 26.3482 Q887.723 29.2707 887.723 34.7683 L887.723 51.84 L882.37 51.84 L882.37 19.4328 L887.723 19.4328 L887.723 24.4675 Q889.401 21.5161 892.092 20.0983 Q894.783 18.6515 898.631 18.6515 Q899.181 18.6515 899.847 18.7383 Q900.512 18.7962 901.322 18.9409 L901.351 24.4096 Z" fill="#000000" fill-rule="nonzero" fill-opacity="1" /><path clip-path="url(#clip910)" d="M932.833 32.2799 L932.833 51.84 L927.509 51.84 L927.509 32.4535 Q927.509 27.8529 925.715 25.567 Q923.921 23.2811 920.333 23.2811 Q916.021 23.2811 913.533 26.03 Q911.045 28.7788 911.045 33.5241 L911.045 51.84 L905.692 51.84 L905.692 19.4328 L911.045 19.4328 L911.045 24.4675 Q912.954 21.545 915.529 20.0983 Q918.134 18.6515 921.519 18.6515 Q927.104 18.6515 929.968 22.1237 Q932.833 25.567 932.833 32.2799 Z" fill="#000000" fill-rule="nonzero" fill-opacity="1" /><path clip-path="url(#clip910)" d="M956.53 8.64 L993.075 8.64 L993.075 13.559 L977.74 13.559 L977.74 51.84 L971.866 51.84 L971.866 13.559 L956.53 13.559 L956.53 8.64 Z" fill="#000000" fill-rule="nonzero" fill-opacity="1" /><path clip-path="url(#clip910)" d="M1008.56 24.4096 Q1007.66 23.8888 1006.59 23.6573 Q1005.55 23.3969 1004.27 23.3969 Q999.759 23.3969 997.329 26.3482 Q994.927 29.2707 994.927 34.7683 L994.927 51.84 L989.574 51.84 L989.574 19.4328 L994.927 19.4328 L994.927 24.4675 Q996.605 21.5161 999.296 20.0983 Q1001.99 18.6515 1005.84 18.6515 Q1006.39 18.6515 1007.05 18.7383 Q1007.72 18.7962 1008.53 18.9409 L1008.56 24.4096 Z" fill="#000000" fill-rule="nonzero" fill-opacity="1" /><path clip-path="url(#clip910)" d="M1028.87 35.5496 Q1022.42 35.5496 1019.93 37.0253 Q1017.44 38.501 1017.44 42.06 Q1017.44 44.8956 1019.29 46.5738 Q1021.17 48.2231 1024.38 48.2231 Q1028.81 48.2231 1031.47 45.0981 Q1034.16 41.9442 1034.16 36.7359 L1034.16 35.5496 L1028.87 35.5496 M1039.49 33.3505 L1039.49 51.84 L1034.16 51.84 L1034.16 46.921 Q1032.34 49.8724 1029.62 51.2902 Q1026.9 52.6791 1022.97 52.6791 Q1017.99 52.6791 1015.04 49.9014 Q1012.11 47.0947 1012.11 42.4072 Q1012.11 36.9385 1015.76 34.1607 Q1019.44 31.3829 1026.7 31.3829 L1034.16 31.3829 L1034.16 30.8621 Q1034.16 27.1874 1031.73 25.1908 Q1029.33 23.1654 1024.96 23.1654 Q1022.18 23.1654 1019.55 23.8309 Q1016.92 24.4964 1014.49 25.8274 L1014.49 20.9085 Q1017.41 19.78 1020.16 19.2302 Q1022.91 18.6515 1025.51 18.6515 Q1032.54 18.6515 1036.01 22.2973 Q1039.49 25.9431 1039.49 33.3505 Z" fill="#000000" fill-rule="nonzero" fill-opacity="1" /><path clip-path="url(#clip910)" d="M1050.45 19.4328 L1055.78 19.4328 L1055.78 52.4187 Q1055.78 58.6108 1053.4 61.3886 Q1051.06 64.1663 1045.82 64.1663 L1043.8 64.1663 L1043.8 59.6525 L1045.22 59.6525 Q1048.25 59.6525 1049.35 58.2346 Q1050.45 56.8458 1050.45 52.4187 L1050.45 19.4328 M1050.45 6.81709 L1055.78 6.81709 L1055.78 13.559 L1050.45 13.559 L1050.45 6.81709 Z" fill="#000000" fill-rule="nonzero" fill-opacity="1" /><path clip-path="url(#clip910)" d="M1094.64 34.3054 L1094.64 36.9095 L1070.16 36.9095 Q1070.51 42.4072 1073.46 45.3007 Q1076.44 48.1653 1081.73 48.1653 Q1084.8 48.1653 1087.66 47.4129 Q1090.56 46.6606 1093.39 45.156 L1093.39 50.1907 Q1090.53 51.406 1087.52 52.0425 Q1084.51 52.6791 1081.41 52.6791 Q1073.66 52.6791 1069.12 48.1653 Q1064.6 43.6514 1064.6 35.9547 Q1064.6 27.9975 1068.89 23.339 Q1073.2 18.6515 1080.49 18.6515 Q1087.03 18.6515 1090.82 22.876 Q1094.64 27.0716 1094.64 34.3054 M1089.31 32.7429 Q1089.26 28.3737 1086.85 25.7695 Q1084.48 23.1654 1080.55 23.1654 Q1076.09 23.1654 1073.4 25.6827 Q1070.74 28.2001 1070.33 32.7718 L1089.31 32.7429 Z" fill="#000000" fill-rule="nonzero" fill-opacity="1" /><path clip-path="url(#clip910)" d="M1126.7 20.677 L1126.7 25.6538 Q1124.44 24.4096 1122.15 23.802 Q1119.9 23.1654 1117.58 23.1654 Q1112.4 23.1654 1109.54 26.464 Q1106.67 29.7336 1106.67 35.6653 Q1106.67 41.597 1109.54 44.8956 Q1112.4 48.1653 1117.58 48.1653 Q1119.9 48.1653 1122.15 47.5576 Q1124.44 46.921 1126.7 45.6768 L1126.7 50.5958 Q1124.47 51.6375 1122.07 52.1583 Q1119.7 52.6791 1117 52.6791 Q1109.68 52.6791 1105.37 48.0784 Q1101.06 43.4778 1101.06 35.6653 Q1101.06 27.7371 1105.4 23.1943 Q1109.77 18.6515 1117.35 18.6515 Q1119.81 18.6515 1122.15 19.1724 Q1124.5 19.6642 1126.7 20.677 Z" fill="#000000" fill-rule="nonzero" fill-opacity="1" /><path clip-path="url(#clip910)" d="M1141.22 10.2314 L1141.22 19.4328 L1152.19 19.4328 L1152.19 23.5705 L1141.22 23.5705 L1141.22 41.163 Q1141.22 45.1271 1142.29 46.2555 Q1143.39 47.384 1146.72 47.384 L1152.19 47.384 L1152.19 51.84 L1146.72 51.84 Q1140.56 51.84 1138.21 49.5541 Q1135.87 47.2393 1135.87 41.163 L1135.87 23.5705 L1131.96 23.5705 L1131.96 19.4328 L1135.87 19.4328 L1135.87 10.2314 L1141.22 10.2314 Z" fill="#000000" fill-rule="nonzero" fill-opacity="1" /><path clip-path="url(#clip910)" d="M1171.75 23.1654 Q1167.47 23.1654 1164.98 26.5218 Q1162.49 29.8494 1162.49 35.6653 Q1162.49 41.4813 1164.95 44.8377 Q1167.44 48.1653 1171.75 48.1653 Q1176 48.1653 1178.49 44.8088 Q1180.98 41.4523 1180.98 35.6653 Q1180.98 29.9072 1178.49 26.5508 Q1176 23.1654 1171.75 23.1654 M1171.75 18.6515 Q1178.69 18.6515 1182.66 23.1654 Q1186.62 27.6792 1186.62 35.6653 Q1186.62 43.6225 1182.66 48.1653 Q1178.69 52.6791 1171.75 52.6791 Q1164.78 52.6791 1160.81 48.1653 Q1156.88 43.6225 1156.88 35.6653 Q1156.88 27.6792 1160.81 23.1654 Q1164.78 18.6515 1171.75 18.6515 Z" fill="#000000" fill-rule="nonzero" fill-opacity="1" /><path clip-path="url(#clip910)" d="M1214.23 24.4096 Q1213.33 23.8888 1212.26 23.6573 Q1211.22 23.3969 1209.94 23.3969 Q1205.43 23.3969 1203 26.3482 Q1200.6 29.2707 1200.6 34.7683 L1200.6 51.84 L1195.24 51.84 L1195.24 19.4328 L1200.6 19.4328 L1200.6 24.4675 Q1202.28 21.5161 1204.97 20.0983 Q1207.66 18.6515 1211.51 18.6515 Q1212.06 18.6515 1212.72 18.7383 Q1213.39 18.7962 1214.2 18.9409 L1214.23 24.4096 Z" fill="#000000" fill-rule="nonzero" fill-opacity="1" /><path clip-path="url(#clip910)" d="M1233.29 54.8492 Q1231.04 60.6362 1228.9 62.4013 Q1226.75 64.1663 1223.17 64.1663 L1218.91 64.1663 L1218.91 59.7103 L1222.04 59.7103 Q1224.24 59.7103 1225.45 58.6687 Q1226.67 57.627 1228.14 53.7497 L1229.1 51.3192 L1215.99 19.4328 L1221.63 19.4328 L1231.76 44.7799 L1241.89 19.4328 L1247.53 19.4328 L1233.29 54.8492 Z" fill="#000000" fill-rule="nonzero" fill-opacity="1" /><path clip-path="url(#clip910)" d="M1286.51 6.87496 Q1282.63 13.53 1280.75 20.0404 Q1278.87 26.5508 1278.87 33.2348 Q1278.87 39.9188 1280.75 46.487 Q1282.66 53.0263 1286.51 59.6525 L1281.88 59.6525 Q1277.54 52.8527 1275.37 46.2845 Q1273.22 39.7162 1273.22 33.2348 Q1273.22 26.7823 1275.37 20.2429 Q1277.51 13.7036 1281.88 6.87496 L1286.51 6.87496 Z" fill="#000000" fill-rule="nonzero" fill-opacity="1" /><path clip-path="url(#clip910)" d="M1313.24 6.81709 L1313.24 11.2442 L1308.15 11.2442 Q1305.28 11.2442 1304.16 12.4016 Q1303.06 13.559 1303.06 16.5682 L1303.06 19.4328 L1311.82 19.4328 L1311.82 23.5705 L1303.06 23.5705 L1303.06 51.84 L1297.7 51.84 L1297.7 23.5705 L1292.61 23.5705 L1292.61 19.4328 L1297.7 19.4328 L1297.7 17.1758 Q1297.7 11.765 1300.22 9.30551 Q1302.74 6.81709 1308.21 6.81709 L1313.24 6.81709 Z" fill="#000000" fill-rule="nonzero" fill-opacity="1" /><path clip-path="url(#clip910)" d="M1317.7 19.4328 L1323.02 19.4328 L1323.02 51.84 L1317.7 51.84 L1317.7 19.4328 M1317.7 6.81709 L1323.02 6.81709 L1323.02 13.559 L1317.7 13.559 L1317.7 6.81709 Z" fill="#000000" fill-rule="nonzero" fill-opacity="1" /><path clip-path="url(#clip910)" d="M1352.94 24.4096 Q1352.04 23.8888 1350.97 23.6573 Q1349.93 23.3969 1348.66 23.3969 Q1344.14 23.3969 1341.71 26.3482 Q1339.31 29.2707 1339.31 34.7683 L1339.31 51.84 L1333.96 51.84 L1333.96 19.4328 L1339.31 19.4328 L1339.31 24.4675 Q1340.99 21.5161 1343.68 20.0983 Q1346.37 18.6515 1350.22 18.6515 Q1350.77 18.6515 1351.44 18.7383 Q1352.1 18.7962 1352.91 18.9409 L1352.94 24.4096 Z" fill="#000000" fill-rule="nonzero" fill-opacity="1" /><path clip-path="url(#clip910)" d="M1379.18 20.3876 L1379.18 25.4223 Q1376.93 24.2649 1374.5 23.6862 Q1372.07 23.1075 1369.46 23.1075 Q1365.5 23.1075 1363.5 24.3228 Q1361.53 25.5381 1361.53 27.9686 Q1361.53 29.8204 1362.95 30.891 Q1364.37 31.9327 1368.65 32.8876 L1370.47 33.2926 Q1376.15 34.5079 1378.52 36.7359 Q1380.92 38.935 1380.92 42.8991 Q1380.92 47.4129 1377.33 50.046 Q1373.77 52.6791 1367.52 52.6791 Q1364.92 52.6791 1362.08 52.1583 Q1359.28 51.6664 1356.15 50.6537 L1356.15 45.156 Q1359.1 46.6896 1361.97 47.4708 Q1364.83 48.2231 1367.64 48.2231 Q1371.4 48.2231 1373.43 46.95 Q1375.45 45.6479 1375.45 43.3042 Q1375.45 41.134 1373.98 39.9766 Q1372.53 38.8192 1367.58 37.7486 L1365.73 37.3146 Q1360.78 36.273 1358.58 34.1318 Q1356.38 31.9616 1356.38 28.2001 Q1356.38 23.6283 1359.62 21.1399 Q1362.87 18.6515 1368.83 18.6515 Q1371.78 18.6515 1374.38 19.0855 Q1376.99 19.5196 1379.18 20.3876 Z" fill="#000000" fill-rule="nonzero" fill-opacity="1" /><path clip-path="url(#clip910)" d="M1394.66 10.2314 L1394.66 19.4328 L1405.63 19.4328 L1405.63 23.5705 L1394.66 23.5705 L1394.66 41.163 Q1394.66 45.1271 1395.74 46.2555 Q1396.83 47.384 1400.16 47.384 L1405.63 47.384 L1405.63 51.84 L1400.16 51.84 Q1394 51.84 1391.66 49.5541 Q1389.31 47.2393 1389.31 41.163 L1389.31 23.5705 L1385.41 23.5705 L1385.41 19.4328 L1389.31 19.4328 L1389.31 10.2314 L1394.66 10.2314 Z" fill="#000000" fill-rule="nonzero" fill-opacity="1" /><path clip-path="url(#clip910)" d="M1432.28 8.64 L1455.23 8.64 L1455.23 13.559 L1437.63 13.559 L1437.63 24.1492 Q1438.91 23.7152 1440.18 23.5126 Q1441.45 23.2811 1442.73 23.2811 Q1449.96 23.2811 1454.18 27.2452 Q1458.41 31.2093 1458.41 37.9801 Q1458.41 44.9535 1454.07 48.8308 Q1449.73 52.6791 1441.83 52.6791 Q1439.11 52.6791 1436.27 52.2162 Q1433.47 51.7532 1430.46 50.8273 L1430.46 44.9535 Q1433.06 46.3713 1435.84 47.0657 Q1438.62 47.7602 1441.71 47.7602 Q1446.72 47.7602 1449.64 45.1271 Q1452.56 42.494 1452.56 37.9801 Q1452.56 33.4663 1449.64 30.8332 Q1446.72 28.2001 1441.71 28.2001 Q1439.37 28.2001 1437.03 28.7209 Q1434.71 29.2417 1432.28 30.3413 L1432.28 8.64 Z" fill="#000000" fill-rule="nonzero" fill-opacity="1" /><path clip-path="url(#clip910)" d="M1482.42 12.4884 Q1477.91 12.4884 1475.62 16.9444 Q1473.37 21.3714 1473.37 30.2834 Q1473.37 39.1665 1475.62 43.6225 Q1477.91 48.0495 1482.42 48.0495 Q1486.97 48.0495 1489.22 43.6225 Q1491.51 39.1665 1491.51 30.2834 Q1491.51 21.3714 1489.22 16.9444 Q1486.97 12.4884 1482.42 12.4884 M1482.42 7.85875 Q1489.69 7.85875 1493.51 13.6168 Q1497.36 19.346 1497.36 30.2834 Q1497.36 41.1919 1493.51 46.95 Q1489.69 52.6791 1482.42 52.6791 Q1475.16 52.6791 1471.31 46.95 Q1467.49 41.1919 1467.49 30.2834 Q1467.49 19.346 1471.31 13.6168 Q1475.16 7.85875 1482.42 7.85875 Z" fill="#000000" fill-rule="nonzero" fill-opacity="1" /><path clip-path="url(#clip910)" d="M1520.13 12.4884 Q1515.61 12.4884 1513.33 16.9444 Q1511.07 21.3714 1511.07 30.2834 Q1511.07 39.1665 1513.33 43.6225 Q1515.61 48.0495 1520.13 48.0495 Q1524.67 48.0495 1526.93 43.6225 Q1529.21 39.1665 1529.21 30.2834 Q1529.21 21.3714 1526.93 16.9444 Q1524.67 12.4884 1520.13 12.4884 M1520.13 7.85875 Q1527.39 7.85875 1531.21 13.6168 Q1535.06 19.346 1535.06 30.2834 Q1535.06 41.1919 1531.21 46.95 Q1527.39 52.6791 1520.13 52.6791 Q1512.86 52.6791 1509.02 46.95 Q1505.2 41.1919 1505.2 30.2834 Q1505.2 19.346 1509.02 13.6168 Q1512.86 7.85875 1520.13 7.85875 Z" fill="#000000" fill-rule="nonzero" fill-opacity="1" /><path clip-path="url(#clip910)" d="M1584.07 20.3876 L1584.07 25.4223 Q1581.82 24.2649 1579.39 23.6862 Q1576.96 23.1075 1574.35 23.1075 Q1570.39 23.1075 1568.39 24.3228 Q1566.42 25.5381 1566.42 27.9686 Q1566.42 29.8204 1567.84 30.891 Q1569.26 31.9327 1573.54 32.8876 L1575.36 33.2926 Q1581.04 34.5079 1583.41 36.7359 Q1585.81 38.935 1585.81 42.8991 Q1585.81 47.4129 1582.22 50.046 Q1578.66 52.6791 1572.41 52.6791 Q1569.81 52.6791 1566.97 52.1583 Q1564.17 51.6664 1561.04 50.6537 L1561.04 45.156 Q1563.99 46.6896 1566.86 47.4708 Q1569.72 48.2231 1572.53 48.2231 Q1576.29 48.2231 1578.32 46.95 Q1580.34 45.6479 1580.34 43.3042 Q1580.34 41.134 1578.87 39.9766 Q1577.42 38.8192 1572.47 37.7486 L1570.62 37.3146 Q1565.67 36.273 1563.47 34.1318 Q1561.27 31.9616 1561.27 28.2001 Q1561.27 23.6283 1564.51 21.1399 Q1567.75 18.6515 1573.71 18.6515 Q1576.67 18.6515 1579.27 19.0855 Q1581.87 19.5196 1584.07 20.3876 Z" fill="#000000" fill-rule="nonzero" fill-opacity="1" /><path clip-path="url(#clip910)" d="M1599.55 10.2314 L1599.55 19.4328 L1610.52 19.4328 L1610.52 23.5705 L1599.55 23.5705 L1599.55 41.163 Q1599.55 45.1271 1600.62 46.2555 Q1601.72 47.384 1605.05 47.384 L1610.52 47.384 L1610.52 51.84 L1605.05 51.84 Q1598.89 51.84 1596.54 49.5541 Q1594.2 47.2393 1594.2 41.163 L1594.2 23.5705 L1590.29 23.5705 L1590.29 19.4328 L1594.2 19.4328 L1594.2 10.2314 L1599.55 10.2314 Z" fill="#000000" fill-rule="nonzero" fill-opacity="1" /><path clip-path="url(#clip910)" d="M1645.24 34.3054 L1645.24 36.9095 L1620.76 36.9095 Q1621.11 42.4072 1624.06 45.3007 Q1627.04 48.1653 1632.34 48.1653 Q1635.4 48.1653 1638.27 47.4129 Q1641.16 46.6606 1644 45.156 L1644 50.1907 Q1641.13 51.406 1638.12 52.0425 Q1635.11 52.6791 1632.02 52.6791 Q1624.26 52.6791 1619.72 48.1653 Q1615.21 43.6514 1615.21 35.9547 Q1615.21 27.9975 1619.49 23.339 Q1623.8 18.6515 1631.09 18.6515 Q1637.63 18.6515 1641.42 22.876 Q1645.24 27.0716 1645.24 34.3054 M1639.92 32.7429 Q1639.86 28.3737 1637.46 25.7695 Q1635.09 23.1654 1631.15 23.1654 Q1626.69 23.1654 1624 25.6827 Q1621.34 28.2001 1620.94 32.7718 L1639.92 32.7429 Z" fill="#000000" fill-rule="nonzero" fill-opacity="1" /><path clip-path="url(#clip910)" d="M1659.13 46.9789 L1659.13 64.1663 L1653.78 64.1663 L1653.78 19.4328 L1659.13 19.4328 L1659.13 24.3517 Q1660.81 21.4582 1663.36 20.0693 Q1665.93 18.6515 1669.49 18.6515 Q1675.39 18.6515 1679.07 23.339 Q1682.77 28.0265 1682.77 35.6653 Q1682.77 43.3042 1679.07 47.9916 Q1675.39 52.6791 1669.49 52.6791 Q1665.93 52.6791 1663.36 51.2902 Q1660.81 49.8724 1659.13 46.9789 M1677.24 35.6653 Q1677.24 29.7915 1674.81 26.464 Q1672.41 23.1075 1668.19 23.1075 Q1663.96 23.1075 1661.53 26.464 Q1659.13 29.7915 1659.13 35.6653 Q1659.13 41.5391 1661.53 44.8956 Q1663.96 48.2231 1668.19 48.2231 Q1672.41 48.2231 1674.81 44.8956 Q1677.24 41.5391 1677.24 35.6653 Z" fill="#000000" fill-rule="nonzero" fill-opacity="1" /><path clip-path="url(#clip910)" d="M1712.26 20.3876 L1712.26 25.4223 Q1710 24.2649 1707.57 23.6862 Q1705.14 23.1075 1702.53 23.1075 Q1698.57 23.1075 1696.57 24.3228 Q1694.61 25.5381 1694.61 27.9686 Q1694.61 29.8204 1696.02 30.891 Q1697.44 31.9327 1701.72 32.8876 L1703.55 33.2926 Q1709.22 34.5079 1711.59 36.7359 Q1713.99 38.935 1713.99 42.8991 Q1713.99 47.4129 1710.4 50.046 Q1706.84 52.6791 1700.59 52.6791 Q1697.99 52.6791 1695.15 52.1583 Q1692.35 51.6664 1689.22 50.6537 L1689.22 45.156 Q1692.17 46.6896 1695.04 47.4708 Q1697.9 48.2231 1700.71 48.2231 Q1704.47 48.2231 1706.5 46.95 Q1708.52 45.6479 1708.52 43.3042 Q1708.52 41.134 1707.05 39.9766 Q1705.6 38.8192 1700.65 37.7486 L1698.8 37.3146 Q1693.85 36.273 1691.65 34.1318 Q1689.45 31.9616 1689.45 28.2001 Q1689.45 23.6283 1692.7 21.1399 Q1695.94 18.6515 1701.9 18.6515 Q1704.85 18.6515 1707.45 19.0855 Q1710.06 19.5196 1712.26 20.3876 Z" fill="#000000" fill-rule="nonzero" fill-opacity="1" /><path clip-path="url(#clip910)" d="M1721.63 6.87496 L1726.26 6.87496 Q1730.6 13.7036 1732.74 20.2429 Q1734.91 26.7823 1734.91 33.2348 Q1734.91 39.7162 1732.74 46.2845 Q1730.6 52.8527 1726.26 59.6525 L1721.63 59.6525 Q1725.48 53.0263 1727.36 46.487 Q1729.27 39.9188 1729.27 33.2348 Q1729.27 26.5508 1727.36 20.0404 Q1725.48 13.53 1721.63 6.87496 Z" fill="#000000" fill-rule="nonzero" fill-opacity="1" /><path clip-path="url(#clip910)" d="M1761.73 33.5241 L1815.21 33.5241 L1815.21 37.6908 L1761.73 37.6908 L1761.73 33.5241 Z" fill="#000000" fill-rule="nonzero" fill-opacity="1" /><path clip-path="url(#clip910)" d="M1842.75 8.64 L1848.6 8.64 L1848.6 26.898 L1867.98 8.64 L1875.51 8.64 L1854.07 28.7788 L1877.04 51.84 L1869.34 51.84 L1848.6 31.0357 L1848.6 51.84 L1842.75 51.84 L1842.75 8.64 Z" fill="#000000" fill-rule="nonzero" fill-opacity="1" /><path clip-path="url(#clip910)" d="M1882.08 24.9304 L1919.17 24.9304 L1919.17 29.7915 L1882.08 29.7915 L1882.08 24.9304 M1882.08 36.7359 L1919.17 36.7359 L1919.17 41.6549 L1882.08 41.6549 L1882.08 36.7359 Z" fill="#000000" fill-rule="nonzero" fill-opacity="1" /><path clip-path="url(#clip910)" d="M1932.8 46.921 L1942.35 46.921 L1942.35 13.964 L1931.96 16.0474 L1931.96 10.7233 L1942.29 8.64 L1948.13 8.64 L1948.13 46.921 L1957.68 46.921 L1957.68 51.84 L1932.8 51.84 L1932.8 46.921 Z" fill="#000000" fill-rule="nonzero" fill-opacity="1" /><path clip-path="url(#clip910)" d="M1981.99 31.3251 Q1977.82 31.3251 1975.42 33.5531 Q1973.05 35.7811 1973.05 39.6873 Q1973.05 43.5935 1975.42 45.8215 Q1977.82 48.0495 1981.99 48.0495 Q1986.15 48.0495 1988.56 45.8215 Q1990.96 43.5646 1990.96 39.6873 Q1990.96 35.7811 1988.56 33.5531 Q1986.18 31.3251 1981.99 31.3251 M1976.14 28.8367 Q1972.38 27.9107 1970.27 25.3355 Q1968.19 22.7603 1968.19 19.0566 Q1968.19 13.8772 1971.86 10.868 Q1975.56 7.85875 1981.99 7.85875 Q1988.44 7.85875 1992.12 10.868 Q1995.79 13.8772 1995.79 19.0566 Q1995.79 22.7603 1993.68 25.3355 Q1991.59 27.9107 1987.86 28.8367 Q1992.09 29.8204 1994.43 32.685 Q1996.8 35.5496 1996.8 39.6873 Q1996.8 45.9662 1992.95 49.3227 Q1989.13 52.6791 1981.99 52.6791 Q1974.84 52.6791 1970.99 49.3227 Q1967.17 45.9662 1967.17 39.6873 Q1967.17 35.5496 1969.55 32.685 Q1971.92 29.8204 1976.14 28.8367 M1974 19.6064 Q1974 22.9628 1976.09 24.8436 Q1978.2 26.7244 1981.99 26.7244 Q1985.75 26.7244 1987.86 24.8436 Q1990 22.9628 1990 19.6064 Q1990 16.2499 1987.86 14.3691 Q1985.75 12.4884 1981.99 12.4884 Q1978.2 12.4884 1976.09 14.3691 Q1974 16.2499 1974 19.6064 Z" fill="#000000" fill-rule="nonzero" fill-opacity="1" /><polyline clip-path="url(#clip912)" style="stroke:#ff0000; stroke-linecap:round; stroke-linejoin:round; stroke-width:4; stroke-opacity:0.6; fill:none" points="520.89,634.382 524.301,568.882 527.712,599.089 531.122,606.863 534.533,594.878 537.944,667.93 541.355,592.012 544.766,517.075 548.177,620.788 551.588,625.87 554.999,609.79 558.41,588.58 561.821,695.661 565.232,764.006 568.643,727.554 572.054,581.994 575.465,669.679 578.876,537.643 582.287,653.684 585.698,781.752 589.109,637.012 592.52,621.933 595.931,496.099 599.341,480.924 602.752,541.761 606.163,507.381 609.574,556.942 612.985,594.96 616.396,530.844 619.807,573.806 623.218,623.735 626.629,621.791 630.04,571.266 633.451,552.339 636.862,631.032 640.273,603.559 643.684,590.916 647.095,545.466 650.506,696.397 653.917,458.136 657.328,583.401 660.739,576.868 664.15,615.357 667.56,629.54 670.971,615.549 674.382,659.744 677.793,655.334 681.204,667.332 684.615,535.429 688.026,543.294 691.437,619.479 694.848,607.817 698.259,611.472 701.67,705.426 705.081,567.167 708.492,610.286 711.903,700.445 715.314,547.247 718.725,531.126 722.136,552.374 725.547,560.562 728.958,606.115 732.369,664.489 735.779,774.269 739.19,625.413 742.601,524.414 746.012,677.968 749.423,772.687 752.834,591.384 756.245,568.6 759.656,471.867 763.067,554.718 766.478,576.131 769.889,543.933 773.3,624.122 776.711,600.11 780.122,680.899 783.533,611.253 786.944,539.256 790.355,591.853 793.766,586.307 797.177,603.692 800.588,636.492 803.999,631.264 807.409,627.404 810.82,552.546 814.231,646.035 817.642,503.789 821.053,562.836 824.464,642.749 827.875,727.64 831.286,606.281 834.697,551.443 838.108,637.563 841.519,561.593 844.93,557.085 848.341,571.486 851.752,542.148 855.163,597.306 858.574,584.453 861.985,577.276 865.396,594.176 868.807,608.56 872.218,592.082 875.628,554.093 879.039,531.611 882.45,587.856 885.861,619.256 889.272,629.848 892.683,664.632 896.094,612.861 899.505,593.324 902.916,588.844 906.327,566.621 909.738,551.057 913.149,631.112 916.56,610.147 919.971,625.453 923.382,631.63 926.793,614.618 930.204,583.414 933.615,587.031 937.026,541.305 940.437,597.057 943.847,560.984 947.258,634.508 950.669,674.879 954.08,583.656 957.491,653.827 960.902,591.843 964.313,539.655 967.724,621.64 971.135,574.098 974.546,670.555 977.957,596.001 981.368,604.494 984.779,547.842 988.19,583.436 991.601,597.894 995.012,662.691 998.423,627.676 1001.83,595.917 1005.24,647.421 1008.66,758.258 1012.07,709.341 1015.48,575.138 1018.89,644.833 1022.3,634.846 1025.71,633.647 1029.12,578.75 1032.53,498.678 1035.94,639.226 1039.35,550.595 1042.77,557.342 1046.18,601.368 1049.59,519.167 1053,547.425 1056.41,580.512 1059.82,565.456 1063.23,616.17 1066.64,562.114 1070.05,586.126 1073.46,619.559 1076.87,626.63 1080.29,580.099 1083.7,604.857 1087.11,594.005 1090.52,613.722 1093.93,623.489 1097.34,593.458 1100.75,656.142 1104.16,622.55 1107.57,593.846 1110.98,632.115 1114.39,637.188 1117.81,553.387 1121.22,558.186 1124.63,564.809 1128.04,637.094 1131.45,703.418 1134.86,653.304 1138.27,597.558 1141.68,691.431 1145.09,604.904 1148.5,615.832 1151.92,600.489 1155.33,733.32 1158.74,675.178 1162.15,483.68 1165.56,584.415 1168.97,715.635 1172.38,612.198 1175.79,630.285 1179.2,740.291 1182.61,758.25 1186.02,675.388 1189.44,803.087 1192.85,576.247 1196.26,433.717 1199.67,552.045 1203.08,402.209 1206.49,558.973 1209.9,542.728 1213.31,561.732 1216.72,601.017 1220.13,513.402 1223.55,579.292 1226.96,572.037 1230.37,464.319 1233.78,575.449 1237.19,654.039 1240.6,549.853 1244.01,572.162 1247.42,581.238 1250.83,580.701 1254.24,592.081 1257.65,612.572 1261.07,598.419 1264.48,605.094 1267.89,603.789 1271.3,548.864 1274.71,626.461 1278.12,591.892 1281.53,530.28 1284.94,583.955 1288.35,601.352 1291.76,600.239 1295.18,610.282 1298.59,682.476 1302,571.241 1305.41,556.952 1308.82,613.055 1312.23,583.839 1315.64,661.556 1319.05,699.598 1322.46,662.28 1325.87,582.338 1329.28,746.625 1332.7,717.134 1336.11,654.039 1339.52,572.558 1342.93,339.018 1346.34,541.502 1349.75,569.929 1353.16,561.466 1356.57,596.022 1359.98,583.145 1363.39,600.045 1366.81,646.831 1370.22,667.381 1373.63,689.975 1377.04,756.064 1380.45,720.21 1383.86,544.939 1387.27,426.082 1390.68,632.69 1394.09,707.223 1397.5,611.386 1400.91,750.63 1404.33,623.135 1407.74,591.824 1411.15,542.534 1414.56,546.802 1417.97,492.581 1421.38,565.152 1424.79,636.029 1428.2,711.372 1431.61,668.831 1435.02,701.4 1438.44,595.967 1441.85,644.765 1445.26,394.303 1448.67,576.737 1452.08,535.951 1455.49,580.376 1458.9,672.343 1462.31,559.174 1465.72,560.77 1469.13,517.937 1472.54,554.996 1475.96,586.206 1479.37,606.264 1482.78,603.821 1486.19,589.888 1489.6,572.888 1493.01,576.322 1496.42,601.837 1499.83,626.861 1503.24,623.495 1506.65,581.035 1510.07,634.283 1513.48,658.529 1516.89,591.876 1520.3,701.349 1523.71,636.212 1527.12,720.739 1530.53,673.215 1533.94,525.597 1537.35,642.946 1540.76,507.61 1544.17,600.427 1547.59,540.467 1551,574.62 1554.41,582.93 1557.82,589.201 1561.23,660.912 1564.64,729.117 1568.05,715.597 1571.46,594.967 1574.87,477.257 1578.28,653.992 1581.7,697.379 1585.11,559.654 1588.52,552.05 1591.93,575.599 1595.34,616.823 1598.75,586.608 1602.16,530.561 1605.57,602.418 1608.98,647.222 1612.39,532.327 1615.8,617.316 1619.22,714.437 1622.63,535.313 1626.04,599.899 1629.45,596.708 1632.86,554.89 1636.27,582.291 1639.68,619.245 1643.09,640.81 1646.5,615.831 1649.91,685.026 1653.33,563.726 1656.74,530.379 1660.15,696.734 1663.56,698.861 1666.97,588.056 1670.38,481.402 1673.79,592.212 1677.2,680.36 1680.61,586.02 1684.02,538.044 1687.43,570.594 1690.85,579.164 1694.26,593.684 1697.67,613.196 1701.08,592.32 1704.49,615.535 1707.9,709.46 1711.31,561.59 1714.72,604.161 1718.13,643.934 1721.54,608.163 1724.96,622.078 1728.37,573.825 1731.78,674.909 1735.19,652.757 1738.6,654.984 1742.01,636.302 1745.42,498.464 1748.83,550.892 1752.24,671.864 1755.65,686.803 1759.06,570.823 1762.48,562.462 1765.89,512.912 1769.3,671.455 1772.71,561.478 1776.12,608.111 1779.53,652.716 1782.94,646.758 1786.35,636.353 1789.76,754.22 1793.17,663.36 1796.59,556.991 1800,590.733 1803.41,656.134 1806.82,624.337 1810.23,651.144 1813.64,591.277 1817.05,533.83 1820.46,494.94 1823.87,541.849 1827.28,597.57 1830.69,549.513 1834.11,586.661 1837.52,581.228 1840.93,649.608 1844.34,641.825 1847.75,647.998 1851.16,710.174 1854.57,706.123 1857.98,530.561 1861.39,499.955 1864.8,599.105 1868.21,596.485 1871.63,665.895 1875.04,614.105 1878.45,559.705 1881.86,705.653 1885.27,657.956 1888.68,475.811 1892.09,679.318 1895.5,686.896 1898.91,529.029 1902.32,598.023 1905.74,573.732 1909.15,585.163 1912.56,689.808 1915.97,773.891 1919.38,893.445 1922.79,1095.55 1926.2,610.83 1929.61,655.206 1933.02,230.28 1936.43,533.933 1939.84,656.813 1943.26,851.506 1946.67,605.314 1950.08,469.392 1953.49,781.069 1956.9,429.669 1960.31,578.339 1963.72,687.087 1967.13,590.755 1970.54,593.984 1973.95,512.837 1977.37,508.8 1980.78,548.876 1984.19,842.915 1987.6,605.565 1991.01,754.666 1994.42,619.482 1997.83,706.54 2001.24,518.251 2004.65,863.69 2008.06,668.429 2011.47,457.617 2014.89,578.45 2018.3,544.371 2021.71,301.51 2025.12,595.346 2028.53,562.223 2031.94,537.49 2035.35,534.462 2038.76,602.765 2042.17,634.33 2045.58,676.458 2049,536.732 2052.41,507.693 2055.82,601.631 2059.23,597.192 2062.64,630.834 2066.05,530.028 2069.46,451.096 2072.87,604.922 2076.28,645.331 2079.69,540.762 2083.1,546.693 2086.52,616.361 2089.93,555.044 2093.34,545.037 2096.75,623.037 2100.16,632.463 2103.57,637.631 2106.98,674.248 2110.39,623.436 2113.8,596.598 2117.21,723.948 2120.63,755.71 2124.04,576.357 2127.45,505.987 2130.86,525.55 2134.27,539.498 2137.68,564.957 2141.09,614.728 2144.5,635.772 2147.91,572.799 2151.32,610.117 2154.73,629.933 2158.15,560.874 2161.56,627.284 2164.97,753.249 2168.38,538.196 2171.79,602.753 2175.2,679.433 2178.61,658.969 2182.02,604.633 2185.43,770.556 2188.84,687.496 2192.26,429.398 2195.67,522.545 2199.08,619.818 2202.49,867.953 2205.9,636.91 2209.31,513.013 2212.72,478.322 2216.13,573.393 2219.54,661.762 2222.95,493.771 "/>
<polyline clip-path="url(#clip912)" style="stroke:#000080; stroke-linecap:round; stroke-linejoin:round; stroke-width:4; stroke-opacity:0.6; fill:none" points="520.89,645.272 524.301,748 527.712,397.586 531.122,214.83 534.533,907.817 537.944,484.868 541.355,670.312 544.766,710.994 548.177,559.055 551.588,502.462 554.999,734.108 558.41,645.865 561.821,682.749 565.232,505.612 568.643,769.214 572.054,630.34 575.465,532.321 578.876,683.826 582.287,592.321 585.698,729.119 589.109,563.549 592.52,525.877 595.931,579.571 599.341,569.669 602.752,516.325 606.163,675.405 609.574,616.712 612.985,425.545 616.396,826.19 619.807,508.589 623.218,777.846 626.629,768.689 630.04,758.472 633.451,1145.4 636.862,810.453 640.273,483.301 643.684,664.923 647.095,732.331 650.506,805.169 653.917,443.942 657.328,1042.54 660.739,457.561 664.15,559.551 667.56,702.833 670.971,871.619 674.382,925.178 677.793,761.554 681.204,536.744 684.615,666.088 688.026,349.642 691.437,601.005 694.848,542.332 698.259,671.241 701.67,810.251 705.081,655.631 708.492,610.747 711.903,686.265 715.314,754.668 718.725,581.737 722.136,739.283 725.547,647.073 728.958,669.502 732.369,648.738 735.779,728.628 739.19,537.001 742.601,700.441 746.012,648.346 749.423,703.674 752.834,676.203 756.245,687.347 759.656,666.647 763.067,488.924 766.478,642.25 769.889,505.969 773.3,454.775 776.711,413.043 780.122,569.808 783.533,636.324 786.944,543.779 790.355,568.572 793.766,666.375 797.177,555.849 800.588,602.079 803.999,673.462 807.409,591.254 810.82,566.218 814.231,613.665 817.642,575.33 821.053,710.489 824.464,483.313 827.875,581.814 831.286,503.029 834.697,668.397 838.108,327.11 841.519,670.344 844.93,571.218 848.341,1211.41 851.752,949.527 855.163,748.113 858.574,599.382 861.985,493.787 865.396,559.505 868.807,655.802 872.218,641.715 875.628,589.133 879.039,583.984 882.45,440.668 885.861,593.507 889.272,580.374 892.683,558.112 896.094,545.555 899.505,501.935 902.916,539.556 906.327,529.351 909.738,527.02 913.149,738.559 916.56,611.602 919.971,618.635 923.382,633.598 926.793,486.866 930.204,468.473 933.615,667.636 937.026,574.552 940.437,552.898 943.847,470.28 947.258,516.031 950.669,612.328 954.08,651.219 957.491,508.097 960.902,500.922 964.313,669.028 967.724,686.108 971.135,780.555 974.546,669.179 977.957,647.3 981.368,597.866 984.779,607.799 988.19,583.255 991.601,593.858 995.012,670.007 998.423,546.68 1001.83,545.235 1005.24,494.847 1008.66,511.623 1012.07,480.412 1015.48,710.597 1018.89,678.679 1022.3,468.316 1025.71,537.236 1029.12,591.057 1032.53,606.52 1035.94,650.979 1039.35,627.659 1042.77,637.152 1046.18,639.245 1049.59,606.471 1053,582.62 1056.41,669.509 1059.82,752.637 1063.23,664.932 1066.64,625.003 1070.05,614.414 1073.46,565.435 1076.87,678.718 1080.29,537.091 1083.7,514.183 1087.11,553.785 1090.52,558.441 1093.93,683.279 1097.34,539.543 1100.75,849.044 1104.16,646.125 1107.57,762.68 1110.98,700.276 1114.39,439.441 1117.81,498.708 1121.22,524.222 1124.63,584.626 1128.04,647.678 1131.45,606.806 1134.86,592.676 1138.27,619.475 1141.68,556.67 1145.09,511.174 1148.5,515.515 1151.92,509.919 1155.33,586.635 1158.74,668.01 1162.15,649.416 1165.56,603.018 1168.97,588.033 1172.38,606.342 1175.79,525.475 1179.2,481.143 1182.61,569.514 1186.02,645.575 1189.44,680.512 1192.85,699.525 1196.26,600.871 1199.67,495.596 1203.08,544.803 1206.49,493.962 1209.9,647.981 1213.31,577.804 1216.72,607.312 1220.13,635.979 1223.55,629.254 1226.96,622.535 1230.37,594.507 1233.78,752.085 1237.19,607.532 1240.6,594.752 1244.01,779.328 1247.42,481.025 1250.83,557.46 1254.24,446.401 1257.65,550.912 1261.07,581.635 1264.48,535.116 1267.89,536.667 1271.3,575.954 1274.71,568.21 1278.12,554.645 1281.53,581.676 1284.94,758.867 1288.35,656.888 1291.76,628.81 1295.18,591.456 1298.59,619.064 1302,562.346 1305.41,560.842 1308.82,587.614 1312.23,591.091 1315.64,547.243 1319.05,614.256 1322.46,579.995 1325.87,580.288 1329.28,576.181 1332.7,563.93 1336.11,721.304 1339.52,617.621 1342.93,636.002 1346.34,518.257 1349.75,656.984 1353.16,589.3 1356.57,700.047 1359.98,794.045 1363.39,788.34 1366.81,674.625 1370.22,653.697 1373.63,637.382 1377.04,409.047 1380.45,564.941 1383.86,573.362 1387.27,850.452 1390.68,765.411 1394.09,602.926 1397.5,423.919 1400.91,668.59 1404.33,590.236 1407.74,564.718 1411.15,605.5 1414.56,660.996 1417.97,564.076 1421.38,929.52 1424.79,534.761 1428.2,543.599 1431.61,467.646 1435.02,408.072 1438.44,485.551 1441.85,569.702 1445.26,493.133 1448.67,508.922 1452.08,594.582 1455.49,640.133 1458.9,635.936 1462.31,664.905 1465.72,684.642 1469.13,634.827 1472.54,706.769 1475.96,489.649 1479.37,804.962 1482.78,487.307 1486.19,716.974 1489.6,597.028 1493.01,613.705 1496.42,481.786 1499.83,587.189 1503.24,617.98 1506.65,598.696 1510.07,600.392 1513.48,594.541 1516.89,685.776 1520.3,273.809 1523.71,526.768 1527.12,467.838 1530.53,631.736 1533.94,583.775 1537.35,695.067 1540.76,309.646 1544.17,572.077 1547.59,575.861 1551,758.31 1554.41,673.45 1557.82,541.998 1561.23,660.686 1564.64,494.555 1568.05,604.921 1571.46,546.417 1574.87,639.863 1578.28,547.497 1581.7,635.522 1585.11,654.659 1588.52,618.493 1591.93,653.078 1595.34,593.632 1598.75,622.144 1602.16,587.643 1605.57,688.527 1608.98,687.636 1612.39,572.373 1615.8,573.41 1619.22,586.712 1622.63,567.849 1626.04,584.861 1629.45,583.195 1632.86,653.419 1636.27,608.161 1639.68,780.861 1643.09,1176.93 1646.5,705.253 1649.91,546.92 1653.33,892.499 1656.74,864.924 1660.15,553.263 1663.56,786.64 1666.97,1042.7 1670.38,688.861 1673.79,513.174 1677.2,497.309 1680.61,654.844 1684.02,570.645 1687.43,691.53 1690.85,350.303 1694.26,575.588 1697.67,806.071 1701.08,536.104 1704.49,566.11 1707.9,672.217 1711.31,656.365 1714.72,582.391 1718.13,552.16 1721.54,429.542 1724.96,818.396 1728.37,599.822 1731.78,498.013 1735.19,588.912 1738.6,685.672 1742.01,466.767 1745.42,509.241 1748.83,649.25 1752.24,699.082 1755.65,326.78 1759.06,569.422 1762.48,468.515 1765.89,315.108 1769.3,668.359 1772.71,730.548 1776.12,525.256 1779.53,478.913 1782.94,532.672 1786.35,378.039 1789.76,535.66 1793.17,376.209 1796.59,565.723 1800,648.334 1803.41,506.594 1806.82,591.235 1810.23,363.593 1813.64,822.355 1817.05,674.635 1820.46,591.689 1823.87,794.942 1827.28,582.464 1830.69,551.042 1834.11,510.545 1837.52,502.413 1840.93,619.023 1844.34,638.946 1847.75,737.885 1851.16,435.696 1854.57,628.461 1857.98,596.042 1861.39,642.161 1864.8,633.136 1868.21,655.279 1871.63,571.816 1875.04,545.246 1878.45,465.612 1881.86,560.477 1885.27,606.811 1888.68,586.889 1892.09,498.8 1895.5,591.585 1898.91,546.856 1902.32,606.294 1905.74,566.664 1909.15,544.008 1912.56,595.797 1915.97,594.517 1919.38,612.345 1922.79,594.289 1926.2,591.58 1929.61,623.012 1933.02,541.599 1936.43,550.233 1939.84,570.857 1943.26,571.664 1946.67,623.191 1950.08,601.65 1953.49,606.886 1956.9,588.973 1960.31,515.942 1963.72,635.734 1967.13,579.219 1970.54,617.429 1973.95,649.965 1977.37,652.895 1980.78,589.957 1984.19,613.927 1987.6,620.718 1991.01,597.136 1994.42,574.569 1997.83,568.983 2001.24,658.948 2004.65,608.901 2008.06,623.112 2011.47,593.612 2014.89,675.923 2018.3,620.773 2021.71,543.79 2025.12,625.958 2028.53,563.458 2031.94,707.826 2035.35,725.861 2038.76,643.911 2042.17,522.554 2045.58,573.515 2049,688.739 2052.41,710.676 2055.82,586.888 2059.23,656.211 2062.64,576.681 2066.05,638.686 2069.46,523.746 2072.87,576.352 2076.28,437.468 2079.69,553.574 2083.1,568.597 2086.52,777.718 2089.93,684.733 2093.34,693.895 2096.75,511.96 2100.16,575.542 2103.57,790.621 2106.98,490.367 2110.39,582.034 2113.8,423.804 2117.21,605.725 2120.63,533.737 2124.04,391.024 2127.45,515.173 2130.86,537.795 2134.27,458.18 2137.68,538.281 2141.09,599.254 2144.5,614.479 2147.91,639.489 2151.32,635.316 2154.73,631.835 2158.15,681.658 2161.56,592.249 2164.97,624.807 2168.38,584.85 2171.79,601.992 2175.2,609.81 2178.61,595.211 2182.02,652.608 2185.43,588.797 2188.84,579.985 2192.26,592.338 2195.67,591.738 2199.08,539.793 2202.49,538.491 2205.9,532.355 2209.31,557.375 2212.72,575.077 2216.13,608.826 2219.54,664.3 2222.95,589.856 "/>
<path clip-path="url(#clip910)" d="M1573.1 1206.1 L2213.88 1206.1 L2213.88 1031.14 L1573.1 1031.14  Z" fill="#ffffff" fill-rule="evenodd" fill-opacity="1"/>
<polyline clip-path="url(#clip910)" style="stroke:#000000; stroke-linecap:round; stroke-linejoin:round; stroke-width:4; stroke-opacity:1; fill:none" points="1573.1,1206.1 2213.88,1206.1 2213.88,1031.14 1573.1,1031.14 1573.1,1206.1 "/>
<polyline clip-path="url(#clip910)" style="stroke:#ff0000; stroke-linecap:round; stroke-linejoin:round; stroke-width:4.5; stroke-opacity:0.6; fill:none" points="1593.14,1089.46 1713.42,1089.46 "/>
<path clip-path="url(#clip910)" d="M1751.49 1073.59 Q1745.76 1073.59 1742.37 1077.86 Q1739.01 1082.13 1739.01 1089.5 Q1739.01 1096.84 1742.37 1101.11 Q1745.76 1105.38 1751.49 1105.38 Q1757.22 1105.38 1760.55 1101.11 Q1763.91 1096.84 1763.91 1089.5 Q1763.91 1082.13 1760.55 1077.86 Q1757.22 1073.59 1751.49 1073.59 M1751.49 1069.32 Q1759.67 1069.32 1764.56 1074.81 Q1769.46 1080.28 1769.46 1089.5 Q1769.46 1098.69 1764.56 1104.19 Q1759.67 1109.65 1751.49 1109.65 Q1743.29 1109.65 1738.36 1104.19 Q1733.47 1098.72 1733.47 1089.5 Q1733.47 1080.28 1738.36 1074.81 Q1743.29 1069.32 1751.49 1069.32 Z" fill="#000000" fill-rule="nonzero" fill-opacity="1" /><path clip-path="url(#clip910)" d="M1798.42 1094.34 Q1798.42 1089.06 1796.23 1086.06 Q1794.07 1083.04 1790.26 1083.04 Q1786.46 1083.04 1784.27 1086.06 Q1782.11 1089.06 1782.11 1094.34 Q1782.11 1099.63 1784.27 1102.65 Q1786.46 1105.64 1790.26 1105.64 Q1794.07 1105.64 1796.23 1102.65 Q1798.42 1099.63 1798.42 1094.34 M1782.11 1084.16 Q1783.62 1081.56 1785.92 1080.31 Q1788.23 1079.03 1791.44 1079.03 Q1796.75 1079.03 1800.06 1083.25 Q1803.39 1087.47 1803.39 1094.34 Q1803.39 1101.22 1800.06 1105.44 Q1796.75 1109.65 1791.44 1109.65 Q1788.23 1109.65 1785.92 1108.4 Q1783.62 1107.13 1782.11 1104.52 L1782.11 1108.9 L1777.3 1108.9 L1777.3 1068.38 L1782.11 1068.38 L1782.11 1084.16 Z" fill="#000000" fill-rule="nonzero" fill-opacity="1" /><path clip-path="url(#clip910)" d="M1829.93 1080.59 L1829.93 1085.12 Q1827.89 1084.08 1825.71 1083.56 Q1823.52 1083.04 1821.18 1083.04 Q1817.61 1083.04 1815.81 1084.13 Q1814.04 1085.23 1814.04 1087.41 Q1814.04 1089.08 1815.32 1090.04 Q1816.59 1090.98 1820.45 1091.84 L1822.09 1092.21 Q1827.19 1093.3 1829.33 1095.31 Q1831.49 1097.28 1831.49 1100.85 Q1831.49 1104.91 1828.26 1107.28 Q1825.06 1109.65 1819.43 1109.65 Q1817.09 1109.65 1814.53 1109.19 Q1812.01 1108.74 1809.2 1107.83 L1809.2 1102.88 Q1811.85 1104.26 1814.43 1104.97 Q1817.01 1105.64 1819.53 1105.64 Q1822.92 1105.64 1824.74 1104.5 Q1826.57 1103.33 1826.57 1101.22 Q1826.57 1099.26 1825.24 1098.22 Q1823.94 1097.18 1819.48 1096.22 L1817.82 1095.83 Q1813.36 1094.89 1811.38 1092.96 Q1809.4 1091.01 1809.4 1087.62 Q1809.4 1083.51 1812.32 1081.27 Q1815.24 1079.03 1820.6 1079.03 Q1823.26 1079.03 1825.6 1079.42 Q1827.95 1079.81 1829.93 1080.59 Z" fill="#000000" fill-rule="nonzero" fill-opacity="1" /><path clip-path="url(#clip910)" d="M1864.07 1093.12 L1864.07 1095.46 L1842.03 1095.46 Q1842.35 1100.41 1845 1103.01 Q1847.69 1105.59 1852.45 1105.59 Q1855.21 1105.59 1857.79 1104.91 Q1860.39 1104.24 1862.95 1102.88 L1862.95 1107.41 Q1860.37 1108.51 1857.66 1109.08 Q1854.95 1109.65 1852.16 1109.65 Q1845.19 1109.65 1841.1 1105.59 Q1837.03 1101.53 1837.03 1094.6 Q1837.03 1087.44 1840.89 1083.25 Q1844.77 1079.03 1851.33 1079.03 Q1857.22 1079.03 1860.63 1082.83 Q1864.07 1086.61 1864.07 1093.12 M1859.27 1091.71 Q1859.22 1087.78 1857.06 1085.44 Q1854.93 1083.09 1851.38 1083.09 Q1847.37 1083.09 1844.95 1085.36 Q1842.56 1087.62 1842.19 1091.74 L1859.27 1091.71 Z" fill="#000000" fill-rule="nonzero" fill-opacity="1" /><path clip-path="url(#clip910)" d="M1888.83 1084.21 Q1888.02 1083.74 1887.06 1083.53 Q1886.12 1083.3 1884.98 1083.3 Q1880.91 1083.3 1878.73 1085.96 Q1876.57 1088.59 1876.57 1093.53 L1876.57 1108.9 L1871.75 1108.9 L1871.75 1079.73 L1876.57 1079.73 L1876.57 1084.26 Q1878.08 1081.61 1880.5 1080.33 Q1882.92 1079.03 1886.38 1079.03 Q1886.88 1079.03 1887.48 1079.11 Q1888.08 1079.16 1888.81 1079.29 L1888.83 1084.21 Z" fill="#000000" fill-rule="nonzero" fill-opacity="1" /><path clip-path="url(#clip910)" d="M1890.42 1079.73 L1895.5 1079.73 L1904.61 1104.21 L1913.73 1079.73 L1918.81 1079.73 L1907.87 1108.9 L1901.36 1108.9 L1890.42 1079.73 Z" fill="#000000" fill-rule="nonzero" fill-opacity="1" /><path clip-path="url(#clip910)" d="M1950.37 1093.12 L1950.37 1095.46 L1928.34 1095.46 Q1928.65 1100.41 1931.3 1103.01 Q1933.99 1105.59 1938.75 1105.59 Q1941.51 1105.59 1944.09 1104.91 Q1946.7 1104.24 1949.25 1102.88 L1949.25 1107.41 Q1946.67 1108.51 1943.96 1109.08 Q1941.25 1109.65 1938.47 1109.65 Q1931.49 1109.65 1927.4 1105.59 Q1923.34 1101.53 1923.34 1094.6 Q1923.34 1087.44 1927.19 1083.25 Q1931.07 1079.03 1937.63 1079.03 Q1943.52 1079.03 1946.93 1082.83 Q1950.37 1086.61 1950.37 1093.12 M1945.58 1091.71 Q1945.52 1087.78 1943.36 1085.44 Q1941.23 1083.09 1937.69 1083.09 Q1933.67 1083.09 1931.25 1085.36 Q1928.86 1087.62 1928.49 1091.74 L1945.58 1091.71 Z" fill="#000000" fill-rule="nonzero" fill-opacity="1" /><path clip-path="url(#clip910)" d="M1977.42 1084.16 L1977.42 1068.38 L1982.22 1068.38 L1982.22 1108.9 L1977.42 1108.9 L1977.42 1104.52 Q1975.91 1107.13 1973.6 1108.4 Q1971.3 1109.65 1968.08 1109.65 Q1962.79 1109.65 1959.46 1105.44 Q1956.15 1101.22 1956.15 1094.34 Q1956.15 1087.47 1959.46 1083.25 Q1962.79 1079.03 1968.08 1079.03 Q1971.3 1079.03 1973.6 1080.31 Q1975.91 1081.56 1977.42 1084.16 M1961.1 1094.34 Q1961.1 1099.63 1963.26 1102.65 Q1965.45 1105.64 1969.25 1105.64 Q1973.05 1105.64 1975.24 1102.65 Q1977.42 1099.63 1977.42 1094.34 Q1977.42 1089.06 1975.24 1086.06 Q1973.05 1083.04 1969.25 1083.04 Q1965.45 1083.04 1963.26 1086.06 Q1961.1 1089.06 1961.1 1094.34 Z" fill="#000000" fill-rule="nonzero" fill-opacity="1" /><polyline clip-path="url(#clip910)" style="stroke:#000080; stroke-linecap:round; stroke-linejoin:round; stroke-width:4.5; stroke-opacity:0.6; fill:none" points="1593.14,1147.78 1713.42,1147.78 "/>
<path clip-path="url(#clip910)" d="M1764.82 1131.33 L1764.82 1136.88 Q1762.17 1134.41 1759.14 1133.18 Q1756.15 1131.96 1752.76 1131.96 Q1746.1 1131.96 1742.56 1136.05 Q1739.01 1140.11 1739.01 1147.82 Q1739.01 1155.5 1742.56 1159.59 Q1746.1 1163.65 1752.76 1163.65 Q1756.15 1163.65 1759.14 1162.43 Q1762.17 1161.2 1764.82 1158.73 L1764.82 1164.22 Q1762.06 1166.1 1758.96 1167.04 Q1755.89 1167.97 1752.45 1167.97 Q1743.62 1167.97 1738.55 1162.58 Q1733.47 1157.17 1733.47 1147.82 Q1733.47 1138.44 1738.55 1133.05 Q1743.62 1127.64 1752.45 1127.64 Q1755.94 1127.64 1759.01 1128.57 Q1762.11 1129.48 1764.82 1131.33 Z" fill="#000000" fill-rule="nonzero" fill-opacity="1" /><path clip-path="url(#clip910)" d="M1772.95 1128.34 L1778.21 1128.34 L1778.21 1144.28 L1797.32 1144.28 L1797.32 1128.34 L1802.58 1128.34 L1802.58 1167.22 L1797.32 1167.22 L1797.32 1148.7 L1778.21 1148.7 L1778.21 1167.22 L1772.95 1167.22 L1772.95 1128.34 Z" fill="#000000" fill-rule="nonzero" fill-opacity="1" /><path clip-path="url(#clip910)" d="M1813.05 1128.34 L1820.89 1128.34 L1830.81 1154.8 L1840.78 1128.34 L1848.62 1128.34 L1848.62 1167.22 L1843.49 1167.22 L1843.49 1133.08 L1833.47 1159.74 L1828.18 1159.74 L1818.15 1133.08 L1818.15 1167.22 L1813.05 1167.22 L1813.05 1128.34 Z" fill="#000000" fill-rule="nonzero" fill-opacity="1" /><path clip-path="url(#clip910)" d="M1859.07 1128.34 L1866.9 1128.34 L1876.83 1154.8 L1886.8 1128.34 L1894.64 1128.34 L1894.64 1167.22 L1889.51 1167.22 L1889.51 1133.08 L1879.48 1159.74 L1874.2 1159.74 L1864.17 1133.08 L1864.17 1167.22 L1859.07 1167.22 L1859.07 1128.34 Z" fill="#000000" fill-rule="nonzero" fill-opacity="1" /><path clip-path="url(#clip910)" d="M1933.34 1126.75 Q1929.85 1132.74 1928.15 1138.6 Q1926.46 1144.46 1926.46 1150.47 Q1926.46 1156.49 1928.15 1162.4 Q1929.87 1168.29 1933.34 1174.25 L1929.17 1174.25 Q1925.26 1168.13 1923.31 1162.22 Q1921.38 1156.31 1921.38 1150.47 Q1921.38 1144.67 1923.31 1138.78 Q1925.24 1132.9 1929.17 1126.75 L1933.34 1126.75 Z" fill="#000000" fill-rule="nonzero" fill-opacity="1" /><path clip-path="url(#clip910)" d="M1947.27 1162.84 L1947.27 1178.31 L1942.45 1178.31 L1942.45 1138.05 L1947.27 1138.05 L1947.27 1142.48 Q1948.78 1139.88 1951.07 1138.63 Q1953.39 1137.35 1956.59 1137.35 Q1961.9 1137.35 1965.21 1141.57 Q1968.54 1145.79 1968.54 1152.66 Q1968.54 1159.54 1965.21 1163.76 Q1961.9 1167.97 1956.59 1167.97 Q1953.39 1167.97 1951.07 1166.72 Q1948.78 1165.45 1947.27 1162.84 M1963.57 1152.66 Q1963.57 1147.38 1961.38 1144.38 Q1959.22 1141.36 1955.42 1141.36 Q1951.62 1141.36 1949.43 1144.38 Q1947.27 1147.38 1947.27 1152.66 Q1947.27 1157.95 1949.43 1160.97 Q1951.62 1163.96 1955.42 1163.96 Q1959.22 1163.96 1961.38 1160.97 Q1963.57 1157.95 1963.57 1152.66 Z" fill="#000000" fill-rule="nonzero" fill-opacity="1" /><path clip-path="url(#clip910)" d="M1989.74 1152.56 Q1983.93 1152.56 1981.7 1153.89 Q1979.46 1155.21 1979.46 1158.42 Q1979.46 1160.97 1981.12 1162.48 Q1982.82 1163.96 1985.71 1163.96 Q1989.69 1163.96 1992.09 1161.15 Q1994.51 1158.31 1994.51 1153.63 L1994.51 1152.56 L1989.74 1152.56 M1999.3 1150.58 L1999.3 1167.22 L1994.51 1167.22 L1994.51 1162.79 Q1992.87 1165.45 1990.42 1166.72 Q1987.97 1167.97 1984.43 1167.97 Q1979.95 1167.97 1977.29 1165.47 Q1974.66 1162.95 1974.66 1158.73 Q1974.66 1153.81 1977.95 1151.31 Q1981.25 1148.81 1987.79 1148.81 L1994.51 1148.81 L1994.51 1148.34 Q1994.51 1145.03 1992.32 1143.23 Q1990.16 1141.41 1986.23 1141.41 Q1983.73 1141.41 1981.36 1142.01 Q1978.99 1142.61 1976.8 1143.81 L1976.8 1139.38 Q1979.43 1138.36 1981.9 1137.87 Q1984.38 1137.35 1986.72 1137.35 Q1993.05 1137.35 1996.17 1140.63 Q1999.3 1143.91 1999.3 1150.58 Z" fill="#000000" fill-rule="nonzero" fill-opacity="1" /><path clip-path="url(#clip910)" d="M2013.91 1129.77 L2013.91 1138.05 L2023.78 1138.05 L2023.78 1141.78 L2013.91 1141.78 L2013.91 1157.61 Q2013.91 1161.18 2014.87 1162.19 Q2015.86 1163.21 2018.86 1163.21 L2023.78 1163.21 L2023.78 1167.22 L2018.86 1167.22 Q2013.31 1167.22 2011.2 1165.16 Q2009.09 1163.08 2009.09 1157.61 L2009.09 1141.78 L2005.58 1141.78 L2005.58 1138.05 L2009.09 1138.05 L2009.09 1129.77 L2013.91 1129.77 Z" fill="#000000" fill-rule="nonzero" fill-opacity="1" /><path clip-path="url(#clip910)" d="M2054.33 1149.61 L2054.33 1167.22 L2049.53 1167.22 L2049.53 1149.77 Q2049.53 1145.63 2047.92 1143.57 Q2046.3 1141.52 2043.08 1141.52 Q2039.2 1141.52 2036.96 1143.99 Q2034.72 1146.46 2034.72 1150.73 L2034.72 1167.22 L2029.9 1167.22 L2029.9 1126.7 L2034.72 1126.7 L2034.72 1142.58 Q2036.43 1139.95 2038.75 1138.65 Q2041.1 1137.35 2044.14 1137.35 Q2049.17 1137.35 2051.75 1140.47 Q2054.33 1143.57 2054.33 1149.61 Z" fill="#000000" fill-rule="nonzero" fill-opacity="1" /><path clip-path="url(#clip910)" d="M2082.42 1162.79 L2091.02 1162.79 L2091.02 1133.13 L2081.67 1135.01 L2081.67 1130.21 L2090.97 1128.34 L2096.23 1128.34 L2096.23 1162.79 L2104.82 1162.79 L2104.82 1167.22 L2082.42 1167.22 L2082.42 1162.79 Z" fill="#000000" fill-rule="nonzero" fill-opacity="1" /><path clip-path="url(#clip910)" d="M2119.98 1162.79 L2138.34 1162.79 L2138.34 1167.22 L2113.65 1167.22 L2113.65 1162.79 Q2116.64 1159.69 2121.8 1154.48 Q2126.98 1149.25 2128.31 1147.74 Q2130.84 1144.9 2131.82 1142.95 Q2132.84 1140.97 2132.84 1139.07 Q2132.84 1135.97 2130.65 1134.02 Q2128.49 1132.06 2125 1132.06 Q2122.53 1132.06 2119.77 1132.92 Q2117.03 1133.78 2113.91 1135.53 L2113.91 1130.21 Q2117.09 1128.94 2119.85 1128.29 Q2122.61 1127.64 2124.9 1127.64 Q2130.94 1127.64 2134.53 1130.66 Q2138.13 1133.68 2138.13 1138.73 Q2138.13 1141.13 2137.22 1143.29 Q2136.33 1145.42 2133.96 1148.34 Q2133.31 1149.09 2129.82 1152.71 Q2126.33 1156.31 2119.98 1162.79 Z" fill="#000000" fill-rule="nonzero" fill-opacity="1" /><path clip-path="url(#clip910)" d="M2150.29 1162.79 L2158.88 1162.79 L2158.88 1133.13 L2149.53 1135.01 L2149.53 1130.21 L2158.83 1128.34 L2164.09 1128.34 L2164.09 1162.79 L2172.68 1162.79 L2172.68 1167.22 L2150.29 1167.22 L2150.29 1162.79 Z" fill="#000000" fill-rule="nonzero" fill-opacity="1" /><path clip-path="url(#clip910)" d="M2181.88 1126.75 L2186.04 1126.75 Q2189.95 1132.9 2191.88 1138.78 Q2193.83 1144.67 2193.83 1150.47 Q2193.83 1156.31 2191.88 1162.22 Q2189.95 1168.13 2186.04 1174.25 L2181.88 1174.25 Q2185.34 1168.29 2187.03 1162.4 Q2188.75 1156.49 2188.75 1150.47 Q2188.75 1144.46 2187.03 1138.6 Q2185.34 1132.74 2181.88 1126.75 Z" fill="#000000" fill-rule="nonzero" fill-opacity="1" /></svg>
