<?xml version="1.0" encoding="utf-8"?>
<svg xmlns="http://www.w3.org/2000/svg" xmlns:xlink="http://www.w3.org/1999/xlink" width="600" height="400" viewBox="0 0 2400 1600">
<defs>
  <clipPath id="clip420">
    <rect x="0" y="0" width="2400" height="1600"/>
  </clipPath>
</defs>
<path clip-path="url(#clip420)" d="M0 1600 L2400 1600 L2400 8.88178e-14 L0 8.88178e-14  Z" fill="#ffffff" fill-rule="evenodd" fill-opacity="1"/>
<defs>
  <clipPath id="clip421">
    <rect x="476" y="125" width="1799" height="1116"/>
  </clipPath>
</defs>
<path clip-path="url(#clip420)" d="M479.087 1241.31 L2274.02 1241.31 L2274.02 125.984 L479.087 125.984  Z" fill="#ffffff" fill-rule="evenodd" fill-opacity="1"/>
<defs>
  <clipPath id="clip422">
    <rect x="479" y="125" width="1796" height="1116"/>
  </clipPath>
</defs>
<polyline clip-path="url(#clip422)" style="stroke:#000000; stroke-linecap:round; stroke-linejoin:round; stroke-width:2; stroke-opacity:0.1; fill:none" points="523.964,1241.31 523.964,125.984 "/>
<polyline clip-path="url(#clip422)" style="stroke:#000000; stroke-linecap:round; stroke-linejoin:round; stroke-width:2; stroke-opacity:0.1; fill:none" points="972.694,1241.31 972.694,125.984 "/>
<polyline clip-path="url(#clip422)" style="stroke:#000000; stroke-linecap:round; stroke-linejoin:round; stroke-width:2; stroke-opacity:0.1; fill:none" points="1421.42,1241.31 1421.42,125.984 "/>
<polyline clip-path="url(#clip422)" style="stroke:#000000; stroke-linecap:round; stroke-linejoin:round; stroke-width:2; stroke-opacity:0.1; fill:none" points="1870.15,1241.31 1870.15,125.984 "/>
<polyline clip-path="url(#clip422)" style="stroke:#000000; stroke-linecap:round; stroke-linejoin:round; stroke-width:2; stroke-opacity:0.1; fill:none" points="479.087,1241.31 2274.02,1241.31 "/>
<polyline clip-path="url(#clip422)" style="stroke:#000000; stroke-linecap:round; stroke-linejoin:round; stroke-width:2; stroke-opacity:0.1; fill:none" points="479.087,1052.65 2274.02,1052.65 "/>
<polyline clip-path="url(#clip422)" style="stroke:#000000; stroke-linecap:round; stroke-linejoin:round; stroke-width:2; stroke-opacity:0.1; fill:none" points="479.087,863.981 2274.02,863.981 "/>
<polyline clip-path="url(#clip422)" style="stroke:#000000; stroke-linecap:round; stroke-linejoin:round; stroke-width:2; stroke-opacity:0.1; fill:none" points="479.087,675.316 2274.02,675.316 "/>
<polyline clip-path="url(#clip422)" style="stroke:#000000; stroke-linecap:round; stroke-linejoin:round; stroke-width:2; stroke-opacity:0.1; fill:none" points="479.087,486.651 2274.02,486.651 "/>
<polyline clip-path="url(#clip422)" style="stroke:#000000; stroke-linecap:round; stroke-linejoin:round; stroke-width:2; stroke-opacity:0.1; fill:none" points="479.087,297.986 2274.02,297.986 "/>
<polyline clip-path="url(#clip420)" style="stroke:#000000; stroke-linecap:round; stroke-linejoin:round; stroke-width:4; stroke-opacity:1; fill:none" points="479.087,1241.31 2274.02,1241.31 "/>
<polyline clip-path="url(#clip420)" style="stroke:#000000; stroke-linecap:round; stroke-linejoin:round; stroke-width:4; stroke-opacity:1; fill:none" points="523.964,1241.31 523.964,1222.41 "/>
<polyline clip-path="url(#clip420)" style="stroke:#000000; stroke-linecap:round; stroke-linejoin:round; stroke-width:4; stroke-opacity:1; fill:none" points="972.694,1241.31 972.694,1222.41 "/>
<polyline clip-path="url(#clip420)" style="stroke:#000000; stroke-linecap:round; stroke-linejoin:round; stroke-width:4; stroke-opacity:1; fill:none" points="1421.42,1241.31 1421.42,1222.41 "/>
<polyline clip-path="url(#clip420)" style="stroke:#000000; stroke-linecap:round; stroke-linejoin:round; stroke-width:4; stroke-opacity:1; fill:none" points="1870.15,1241.31 1870.15,1222.41 "/>
<path clip-path="url(#clip420)" d="M523.964 1275.16 Q519.45 1275.16 517.164 1279.62 Q514.907 1284.04 514.907 1292.95 Q514.907 1301.84 517.164 1306.29 Q519.45 1310.72 523.964 1310.72 Q528.506 1310.72 530.763 1306.29 Q533.049 1301.84 533.049 1292.95 Q533.049 1284.04 530.763 1279.62 Q528.506 1275.16 523.964 1275.16 M523.964 1270.53 Q531.226 1270.53 535.046 1276.29 Q538.894 1282.02 538.894 1292.95 Q538.894 1303.86 535.046 1309.62 Q531.226 1315.35 523.964 1315.35 Q516.701 1315.35 512.852 1309.62 Q509.033 1303.86 509.033 1292.95 Q509.033 1282.02 512.852 1276.29 Q516.701 1270.53 523.964 1270.53 Z" fill="#000000" fill-rule="nonzero" fill-opacity="1" /><path clip-path="url(#clip420)" d="M960.541 1271.31 L983.487 1271.31 L983.487 1276.23 L965.894 1276.23 L965.894 1286.82 Q967.167 1286.39 968.441 1286.18 Q969.714 1285.95 970.987 1285.95 Q978.221 1285.95 982.445 1289.92 Q986.67 1293.88 986.67 1300.65 Q986.67 1307.62 982.329 1311.5 Q977.989 1315.35 970.09 1315.35 Q967.37 1315.35 964.534 1314.89 Q961.728 1314.42 958.718 1313.5 L958.718 1307.62 Q961.322 1309.04 964.1 1309.74 Q966.878 1310.43 969.974 1310.43 Q974.98 1310.43 977.902 1307.8 Q980.825 1305.17 980.825 1300.65 Q980.825 1296.14 977.902 1293.5 Q974.98 1290.87 969.974 1290.87 Q967.63 1290.87 965.287 1291.39 Q962.972 1291.91 960.541 1293.01 L960.541 1271.31 Z" fill="#000000" fill-rule="nonzero" fill-opacity="1" /><path clip-path="url(#clip420)" d="M1389.78 1309.59 L1399.33 1309.59 L1399.33 1276.64 L1388.94 1278.72 L1388.94 1273.39 L1399.27 1271.31 L1405.12 1271.31 L1405.12 1309.59 L1414.67 1309.59 L1414.67 1314.51 L1389.78 1314.51 L1389.78 1309.59 Z" fill="#000000" fill-rule="nonzero" fill-opacity="1" /><path clip-path="url(#clip420)" d="M1438.97 1275.16 Q1434.46 1275.16 1432.17 1279.62 Q1429.92 1284.04 1429.92 1292.95 Q1429.92 1301.84 1432.17 1306.29 Q1434.46 1310.72 1438.97 1310.72 Q1443.52 1310.72 1445.77 1306.29 Q1448.06 1301.84 1448.06 1292.95 Q1448.06 1284.04 1445.77 1279.62 Q1443.52 1275.16 1438.97 1275.16 M1438.97 1270.53 Q1446.24 1270.53 1450.06 1276.29 Q1453.9 1282.02 1453.9 1292.95 Q1453.9 1303.86 1450.06 1309.62 Q1446.24 1315.35 1438.97 1315.35 Q1431.71 1315.35 1427.86 1309.62 Q1424.04 1303.86 1424.04 1292.95 Q1424.04 1282.02 1427.86 1276.29 Q1431.71 1270.53 1438.97 1270.53 Z" fill="#000000" fill-rule="nonzero" fill-opacity="1" /><path clip-path="url(#clip420)" d="M1839.14 1309.59 L1848.68 1309.59 L1848.68 1276.64 L1838.3 1278.72 L1838.3 1273.39 L1848.63 1271.31 L1854.47 1271.31 L1854.47 1309.59 L1864.02 1309.59 L1864.02 1314.51 L1839.14 1314.51 L1839.14 1309.59 Z" fill="#000000" fill-rule="nonzero" fill-opacity="1" /><path clip-path="url(#clip420)" d="M1875.88 1271.31 L1898.83 1271.31 L1898.83 1276.23 L1881.24 1276.23 L1881.24 1286.82 Q1882.51 1286.39 1883.78 1286.18 Q1885.06 1285.95 1886.33 1285.95 Q1893.56 1285.95 1897.79 1289.92 Q1902.01 1293.88 1902.01 1300.65 Q1902.01 1307.62 1897.67 1311.5 Q1893.33 1315.35 1885.43 1315.35 Q1882.71 1315.35 1879.88 1314.89 Q1877.07 1314.42 1874.06 1313.5 L1874.06 1307.62 Q1876.67 1309.04 1879.44 1309.74 Q1882.22 1310.43 1885.32 1310.43 Q1890.32 1310.43 1893.24 1307.8 Q1896.17 1305.17 1896.17 1300.65 Q1896.17 1296.14 1893.24 1293.5 Q1890.32 1290.87 1885.32 1290.87 Q1882.97 1290.87 1880.63 1291.39 Q1878.31 1291.91 1875.88 1293.01 L1875.88 1271.31 Z" fill="#000000" fill-rule="nonzero" fill-opacity="1" /><path clip-path="url(#clip420)" d="M1324.75 1353.18 L1324.75 1359.45 Q1321.09 1357.69 1317.84 1356.84 Q1314.6 1355.98 1311.57 1355.98 Q1306.32 1355.98 1303.46 1358.01 Q1300.62 1360.05 1300.62 1363.81 Q1300.62 1366.96 1302.5 1368.58 Q1304.41 1370.17 1309.7 1371.16 L1313.58 1371.95 Q1320.77 1373.32 1324.18 1376.79 Q1327.61 1380.23 1327.61 1386.02 Q1327.61 1392.93 1322.97 1396.49 Q1318.35 1400.06 1309.41 1400.06 Q1306.04 1400.06 1302.22 1399.29 Q1298.43 1398.53 1294.35 1397.03 L1294.35 1390.41 Q1298.27 1392.61 1302.02 1393.72 Q1305.78 1394.84 1309.41 1394.84 Q1314.92 1394.84 1317.91 1392.67 Q1320.9 1390.51 1320.9 1386.5 Q1320.9 1383 1318.73 1381.03 Q1316.6 1379.05 1311.7 1378.07 L1307.79 1377.3 Q1300.59 1375.87 1297.38 1372.81 Q1294.16 1369.76 1294.16 1364.32 Q1294.16 1358.01 1298.59 1354.38 Q1303.04 1350.76 1310.84 1350.76 Q1314.18 1350.76 1317.65 1351.36 Q1321.12 1351.97 1324.75 1353.18 Z" fill="#000000" fill-rule="nonzero" fill-opacity="1" /><path clip-path="url(#clip420)" d="M1343.18 1353.37 L1343.18 1363.49 L1355.24 1363.49 L1355.24 1368.04 L1343.18 1368.04 L1343.18 1387.39 Q1343.18 1391.75 1344.36 1392.99 Q1345.57 1394.23 1349.23 1394.23 L1355.24 1394.23 L1355.24 1399.14 L1349.23 1399.14 Q1342.45 1399.14 1339.87 1396.62 Q1337.29 1394.07 1337.29 1387.39 L1337.29 1368.04 L1332.99 1368.04 L1332.99 1363.49 L1337.29 1363.49 L1337.29 1353.37 L1343.18 1353.37 Z" fill="#000000" fill-rule="nonzero" fill-opacity="1" /><path clip-path="url(#clip420)" d="M1379.15 1381.22 Q1372.05 1381.22 1369.31 1382.84 Q1366.57 1384.46 1366.57 1388.38 Q1366.57 1391.5 1368.61 1393.34 Q1370.68 1395.16 1374.21 1395.16 Q1379.08 1395.16 1382.01 1391.72 Q1384.97 1388.25 1384.97 1382.52 L1384.97 1381.22 L1379.15 1381.22 M1390.83 1378.8 L1390.83 1399.14 L1384.97 1399.14 L1384.97 1393.72 Q1382.96 1396.97 1379.97 1398.53 Q1376.98 1400.06 1372.65 1400.06 Q1367.18 1400.06 1363.93 1397 Q1360.72 1393.92 1360.72 1388.76 Q1360.72 1382.74 1364.73 1379.69 Q1368.77 1376.63 1376.76 1376.63 L1384.97 1376.63 L1384.97 1376.06 Q1384.97 1372.02 1382.3 1369.82 Q1379.65 1367.59 1374.85 1367.59 Q1371.79 1367.59 1368.9 1368.33 Q1366 1369.06 1363.33 1370.52 L1363.33 1365.11 Q1366.54 1363.87 1369.56 1363.26 Q1372.59 1362.63 1375.45 1362.63 Q1383.19 1362.63 1387.01 1366.64 Q1390.83 1370.65 1390.83 1378.8 Z" fill="#000000" fill-rule="nonzero" fill-opacity="1" /><path clip-path="url(#clip420)" d="M1408.68 1353.37 L1408.68 1363.49 L1420.75 1363.49 L1420.75 1368.04 L1408.68 1368.04 L1408.68 1387.39 Q1408.68 1391.75 1409.86 1392.99 Q1411.07 1394.23 1414.73 1394.23 L1420.75 1394.23 L1420.75 1399.14 L1414.73 1399.14 Q1407.95 1399.14 1405.37 1396.62 Q1402.79 1394.07 1402.79 1387.39 L1402.79 1368.04 L1398.5 1368.04 L1398.5 1363.49 L1402.79 1363.49 L1402.79 1353.37 L1408.68 1353.37 Z" fill="#000000" fill-rule="nonzero" fill-opacity="1" /><path clip-path="url(#clip420)" d="M1458.94 1379.85 L1458.94 1382.71 L1432.01 1382.71 Q1432.39 1388.76 1435.64 1391.94 Q1438.92 1395.09 1444.74 1395.09 Q1448.12 1395.09 1451.27 1394.27 Q1454.45 1393.44 1457.57 1391.78 L1457.57 1397.32 Q1454.42 1398.66 1451.11 1399.36 Q1447.8 1400.06 1444.39 1400.06 Q1435.86 1400.06 1430.87 1395.09 Q1425.9 1390.13 1425.9 1381.66 Q1425.9 1372.91 1430.61 1367.78 Q1435.35 1362.63 1443.38 1362.63 Q1450.57 1362.63 1454.74 1367.28 Q1458.94 1371.89 1458.94 1379.85 M1453.08 1378.13 Q1453.02 1373.32 1450.38 1370.46 Q1447.77 1367.59 1443.44 1367.59 Q1438.54 1367.59 1435.58 1370.36 Q1432.65 1373.13 1432.2 1378.16 L1453.08 1378.13 Z" fill="#000000" fill-rule="nonzero" fill-opacity="1" /><polyline clip-path="url(#clip420)" style="stroke:#000000; stroke-linecap:round; stroke-linejoin:round; stroke-width:4; stroke-opacity:1; fill:none" points="479.087,1241.31 479.087,125.984 "/>
<polyline clip-path="url(#clip420)" style="stroke:#000000; stroke-linecap:round; stroke-linejoin:round; stroke-width:4; stroke-opacity:1; fill:none" points="479.087,1241.31 497.985,1241.31 "/>
<polyline clip-path="url(#clip420)" style="stroke:#000000; stroke-linecap:round; stroke-linejoin:round; stroke-width:4; stroke-opacity:1; fill:none" points="479.087,1052.65 497.985,1052.65 "/>
<polyline clip-path="url(#clip420)" style="stroke:#000000; stroke-linecap:round; stroke-linejoin:round; stroke-width:4; stroke-opacity:1; fill:none" points="479.087,863.981 497.985,863.981 "/>
<polyline clip-path="url(#clip420)" style="stroke:#000000; stroke-linecap:round; stroke-linejoin:round; stroke-width:4; stroke-opacity:1; fill:none" points="479.087,675.316 497.985,675.316 "/>
<polyline clip-path="url(#clip420)" style="stroke:#000000; stroke-linecap:round; stroke-linejoin:round; stroke-width:4; stroke-opacity:1; fill:none" points="479.087,486.651 497.985,486.651 "/>
<polyline clip-path="url(#clip420)" style="stroke:#000000; stroke-linecap:round; stroke-linejoin:round; stroke-width:4; stroke-opacity:1; fill:none" points="479.087,297.986 497.985,297.986 "/>
<path clip-path="url(#clip420)" d="M333.915 1223.56 Q329.401 1223.56 327.115 1228.02 Q324.858 1232.44 324.858 1241.35 Q324.858 1250.24 327.115 1254.69 Q329.401 1259.12 333.915 1259.12 Q338.458 1259.12 340.715 1254.69 Q343.001 1250.24 343.001 1241.35 Q343.001 1232.44 340.715 1228.02 Q338.458 1223.56 333.915 1223.56 M333.915 1218.93 Q341.178 1218.93 344.997 1224.69 Q348.846 1230.42 348.846 1241.35 Q348.846 1252.26 344.997 1258.02 Q341.178 1263.75 333.915 1263.75 Q326.652 1263.75 322.804 1258.02 Q318.985 1252.26 318.985 1241.35 Q318.985 1230.42 322.804 1224.69 Q326.652 1218.93 333.915 1218.93 Z" fill="#000000" fill-rule="nonzero" fill-opacity="1" /><path clip-path="url(#clip420)" d="M359.117 1255.56 L365.223 1255.56 L365.223 1262.91 L359.117 1262.91 L359.117 1255.56 Z" fill="#000000" fill-rule="nonzero" fill-opacity="1" /><path clip-path="url(#clip420)" d="M390.454 1223.56 Q385.94 1223.56 383.654 1228.02 Q381.397 1232.44 381.397 1241.35 Q381.397 1250.24 383.654 1254.69 Q385.94 1259.12 390.454 1259.12 Q394.997 1259.12 397.254 1254.69 Q399.54 1250.24 399.54 1241.35 Q399.54 1232.44 397.254 1228.02 Q394.997 1223.56 390.454 1223.56 M390.454 1218.93 Q397.717 1218.93 401.536 1224.69 Q405.385 1230.42 405.385 1241.35 Q405.385 1252.26 401.536 1258.02 Q397.717 1263.75 390.454 1263.75 Q383.191 1263.75 379.343 1258.02 Q375.524 1252.26 375.524 1241.35 Q375.524 1230.42 379.343 1224.69 Q383.191 1218.93 390.454 1218.93 Z" fill="#000000" fill-rule="nonzero" fill-opacity="1" /><path clip-path="url(#clip420)" d="M428.156 1223.56 Q423.643 1223.56 421.357 1228.02 Q419.1 1232.44 419.1 1241.35 Q419.1 1250.24 421.357 1254.69 Q423.643 1259.12 428.156 1259.12 Q432.699 1259.12 434.956 1254.69 Q437.242 1250.24 437.242 1241.35 Q437.242 1232.44 434.956 1228.02 Q432.699 1223.56 428.156 1223.56 M428.156 1218.93 Q435.419 1218.93 439.239 1224.69 Q443.087 1230.42 443.087 1241.35 Q443.087 1252.26 439.239 1258.02 Q435.419 1263.75 428.156 1263.75 Q420.894 1263.75 417.045 1258.02 Q413.226 1252.26 413.226 1241.35 Q413.226 1230.42 417.045 1224.69 Q420.894 1218.93 428.156 1218.93 Z" fill="#000000" fill-rule="nonzero" fill-opacity="1" /><path clip-path="url(#clip420)" d="M335.159 1034.89 Q330.645 1034.89 328.36 1039.35 Q326.103 1043.78 326.103 1052.69 Q326.103 1061.57 328.36 1066.03 Q330.645 1070.46 335.159 1070.46 Q339.702 1070.46 341.959 1066.03 Q344.245 1061.57 344.245 1052.69 Q344.245 1043.78 341.959 1039.35 Q339.702 1034.89 335.159 1034.89 M335.159 1030.27 Q342.422 1030.27 346.241 1036.02 Q350.09 1041.75 350.09 1052.69 Q350.09 1063.6 346.241 1069.36 Q342.422 1075.09 335.159 1075.09 Q327.897 1075.09 324.048 1069.36 Q320.229 1063.6 320.229 1052.69 Q320.229 1041.75 324.048 1036.02 Q327.897 1030.27 335.159 1030.27 Z" fill="#000000" fill-rule="nonzero" fill-opacity="1" /><path clip-path="url(#clip420)" d="M360.362 1066.9 L366.467 1066.9 L366.467 1074.25 L360.362 1074.25 L360.362 1066.9 Z" fill="#000000" fill-rule="nonzero" fill-opacity="1" /><path clip-path="url(#clip420)" d="M391.698 1034.89 Q387.184 1034.89 384.899 1039.35 Q382.642 1043.78 382.642 1052.69 Q382.642 1061.57 384.899 1066.03 Q387.184 1070.46 391.698 1070.46 Q396.241 1070.46 398.498 1066.03 Q400.784 1061.57 400.784 1052.69 Q400.784 1043.78 398.498 1039.35 Q396.241 1034.89 391.698 1034.89 M391.698 1030.27 Q398.961 1030.27 402.78 1036.02 Q406.629 1041.75 406.629 1052.69 Q406.629 1063.6 402.78 1069.36 Q398.961 1075.09 391.698 1075.09 Q384.436 1075.09 380.587 1069.36 Q376.768 1063.6 376.768 1052.69 Q376.768 1041.75 380.587 1036.02 Q384.436 1030.27 391.698 1030.27 Z" fill="#000000" fill-rule="nonzero" fill-opacity="1" /><path clip-path="url(#clip420)" d="M416.959 1031.05 L439.904 1031.05 L439.904 1035.97 L422.312 1035.97 L422.312 1046.56 Q423.585 1046.12 424.858 1045.92 Q426.131 1045.69 427.404 1045.69 Q434.638 1045.69 438.862 1049.65 Q443.087 1053.62 443.087 1060.39 Q443.087 1067.36 438.747 1071.24 Q434.406 1075.09 426.507 1075.09 Q423.787 1075.09 420.952 1074.62 Q418.145 1074.16 415.136 1073.23 L415.136 1067.36 Q417.74 1068.78 420.518 1069.47 Q423.295 1070.17 426.391 1070.17 Q431.397 1070.17 434.32 1067.53 Q437.242 1064.9 437.242 1060.39 Q437.242 1055.87 434.32 1053.24 Q431.397 1050.61 426.391 1050.61 Q424.048 1050.61 421.704 1051.13 Q419.389 1051.65 416.959 1052.75 L416.959 1031.05 Z" fill="#000000" fill-rule="nonzero" fill-opacity="1" /><path clip-path="url(#clip420)" d="M333.915 846.23 Q329.401 846.23 327.115 850.686 Q324.858 855.113 324.858 864.025 Q324.858 872.908 327.115 877.364 Q329.401 881.791 333.915 881.791 Q338.458 881.791 340.715 877.364 Q343.001 872.908 343.001 864.025 Q343.001 855.113 340.715 850.686 Q338.458 846.23 333.915 846.23 M333.915 841.6 Q341.178 841.6 344.997 847.358 Q348.846 853.087 348.846 864.025 Q348.846 874.933 344.997 880.691 Q341.178 886.42 333.915 886.42 Q326.652 886.42 322.804 880.691 Q318.985 874.933 318.985 864.025 Q318.985 853.087 322.804 847.358 Q326.652 841.6 333.915 841.6 Z" fill="#000000" fill-rule="nonzero" fill-opacity="1" /><path clip-path="url(#clip420)" d="M359.117 878.232 L365.223 878.232 L365.223 885.581 L359.117 885.581 L359.117 878.232 Z" fill="#000000" fill-rule="nonzero" fill-opacity="1" /><path clip-path="url(#clip420)" d="M378.967 880.662 L388.515 880.662 L388.515 847.705 L378.128 849.789 L378.128 844.465 L388.458 842.381 L394.302 842.381 L394.302 880.662 L403.851 880.662 L403.851 885.581 L378.967 885.581 L378.967 880.662 Z" fill="#000000" fill-rule="nonzero" fill-opacity="1" /><path clip-path="url(#clip420)" d="M428.156 846.23 Q423.643 846.23 421.357 850.686 Q419.1 855.113 419.1 864.025 Q419.1 872.908 421.357 877.364 Q423.643 881.791 428.156 881.791 Q432.699 881.791 434.956 877.364 Q437.242 872.908 437.242 864.025 Q437.242 855.113 434.956 850.686 Q432.699 846.23 428.156 846.23 M428.156 841.6 Q435.419 841.6 439.239 847.358 Q443.087 853.087 443.087 864.025 Q443.087 874.933 439.239 880.691 Q435.419 886.42 428.156 886.42 Q420.894 886.42 417.045 880.691 Q413.226 874.933 413.226 864.025 Q413.226 853.087 417.045 847.358 Q420.894 841.6 428.156 841.6 Z" fill="#000000" fill-rule="nonzero" fill-opacity="1" /><path clip-path="url(#clip420)" d="M335.159 657.565 Q330.645 657.565 328.36 662.021 Q326.103 666.448 326.103 675.36 Q326.103 684.243 328.36 688.699 Q330.645 693.126 335.159 693.126 Q339.702 693.126 341.959 688.699 Q344.245 684.243 344.245 675.36 Q344.245 666.448 341.959 662.021 Q339.702 657.565 335.159 657.565 M335.159 652.935 Q342.422 652.935 346.241 658.693 Q350.09 664.422 350.09 675.36 Q350.09 686.268 346.241 692.026 Q342.422 697.755 335.159 697.755 Q327.897 697.755 324.048 692.026 Q320.229 686.268 320.229 675.36 Q320.229 664.422 324.048 658.693 Q327.897 652.935 335.159 652.935 Z" fill="#000000" fill-rule="nonzero" fill-opacity="1" /><path clip-path="url(#clip420)" d="M360.362 689.567 L366.467 689.567 L366.467 696.916 L360.362 696.916 L360.362 689.567 Z" fill="#000000" fill-rule="nonzero" fill-opacity="1" /><path clip-path="url(#clip420)" d="M380.211 691.997 L389.76 691.997 L389.76 659.04 L379.372 661.124 L379.372 655.8 L389.702 653.716 L395.547 653.716 L395.547 691.997 L405.095 691.997 L405.095 696.916 L380.211 696.916 L380.211 691.997 Z" fill="#000000" fill-rule="nonzero" fill-opacity="1" /><path clip-path="url(#clip420)" d="M416.959 653.716 L439.904 653.716 L439.904 658.635 L422.312 658.635 L422.312 669.225 Q423.585 668.791 424.858 668.589 Q426.131 668.357 427.404 668.357 Q434.638 668.357 438.862 672.321 Q443.087 676.286 443.087 683.056 Q443.087 690.03 438.747 693.907 Q434.406 697.755 426.507 697.755 Q423.787 697.755 420.952 697.292 Q418.145 696.829 415.136 695.904 L415.136 690.03 Q417.74 691.448 420.518 692.142 Q423.295 692.836 426.391 692.836 Q431.397 692.836 434.32 690.203 Q437.242 687.57 437.242 683.056 Q437.242 678.543 434.32 675.909 Q431.397 673.276 426.391 673.276 Q424.048 673.276 421.704 673.797 Q419.389 674.318 416.959 675.418 L416.959 653.716 Z" fill="#000000" fill-rule="nonzero" fill-opacity="1" /><path clip-path="url(#clip420)" d="M333.915 468.9 Q329.401 468.9 327.115 473.356 Q324.858 477.783 324.858 486.695 Q324.858 495.578 327.115 500.034 Q329.401 504.461 333.915 504.461 Q338.458 504.461 340.715 500.034 Q343.001 495.578 343.001 486.695 Q343.001 477.783 340.715 473.356 Q338.458 468.9 333.915 468.9 M333.915 464.27 Q341.178 464.27 344.997 470.028 Q348.846 475.757 348.846 486.695 Q348.846 497.603 344.997 503.361 Q341.178 509.09 333.915 509.09 Q326.652 509.09 322.804 503.361 Q318.985 497.603 318.985 486.695 Q318.985 475.757 322.804 470.028 Q326.652 464.27 333.915 464.27 Z" fill="#000000" fill-rule="nonzero" fill-opacity="1" /><path clip-path="url(#clip420)" d="M359.117 500.902 L365.223 500.902 L365.223 508.251 L359.117 508.251 L359.117 500.902 Z" fill="#000000" fill-rule="nonzero" fill-opacity="1" /><path clip-path="url(#clip420)" d="M382.989 503.332 L403.388 503.332 L403.388 508.251 L375.958 508.251 L375.958 503.332 Q379.285 499.889 385.014 494.102 Q390.772 488.286 392.248 486.608 Q395.055 483.454 396.154 481.284 Q397.283 479.085 397.283 476.972 Q397.283 473.529 394.852 471.359 Q392.451 469.189 388.573 469.189 Q385.824 469.189 382.757 470.144 Q379.719 471.099 376.247 473.037 L376.247 467.135 Q379.777 465.717 382.844 464.993 Q385.911 464.27 388.458 464.27 Q395.171 464.27 399.164 467.626 Q403.157 470.983 403.157 476.596 Q403.157 479.258 402.144 481.66 Q401.16 484.033 398.527 487.273 Q397.804 488.112 393.926 492.134 Q390.049 496.127 382.989 503.332 Z" fill="#000000" fill-rule="nonzero" fill-opacity="1" /><path clip-path="url(#clip420)" d="M428.156 468.9 Q423.643 468.9 421.357 473.356 Q419.1 477.783 419.1 486.695 Q419.1 495.578 421.357 500.034 Q423.643 504.461 428.156 504.461 Q432.699 504.461 434.956 500.034 Q437.242 495.578 437.242 486.695 Q437.242 477.783 434.956 473.356 Q432.699 468.9 428.156 468.9 M428.156 464.27 Q435.419 464.27 439.239 470.028 Q443.087 475.757 443.087 486.695 Q443.087 497.603 439.239 503.361 Q435.419 509.09 428.156 509.09 Q420.894 509.09 417.045 503.361 Q413.226 497.603 413.226 486.695 Q413.226 475.757 417.045 470.028 Q420.894 464.27 428.156 464.27 Z" fill="#000000" fill-rule="nonzero" fill-opacity="1" /><path clip-path="url(#clip420)" d="M335.159 280.234 Q330.645 280.234 328.36 284.69 Q326.103 289.118 326.103 298.03 Q326.103 306.913 328.36 311.369 Q330.645 315.796 335.159 315.796 Q339.702 315.796 341.959 311.369 Q344.245 306.913 344.245 298.03 Q344.245 289.118 341.959 284.69 Q339.702 280.234 335.159 280.234 M335.159 275.605 Q342.422 275.605 346.241 281.363 Q350.09 287.092 350.09 298.03 Q350.09 308.938 346.241 314.696 Q342.422 320.425 335.159 320.425 Q327.897 320.425 324.048 314.696 Q320.229 308.938 320.229 298.03 Q320.229 287.092 324.048 281.363 Q327.897 275.605 335.159 275.605 Z" fill="#000000" fill-rule="nonzero" fill-opacity="1" /><path clip-path="url(#clip420)" d="M360.362 312.237 L366.467 312.237 L366.467 319.586 L360.362 319.586 L360.362 312.237 Z" fill="#000000" fill-rule="nonzero" fill-opacity="1" /><path clip-path="url(#clip420)" d="M384.233 314.667 L404.632 314.667 L404.632 319.586 L377.202 319.586 L377.202 314.667 Q380.529 311.224 386.259 305.437 Q392.017 299.621 393.492 297.943 Q396.299 294.789 397.398 292.619 Q398.527 290.42 398.527 288.307 Q398.527 284.864 396.096 282.694 Q393.695 280.524 389.818 280.524 Q387.069 280.524 384.002 281.479 Q380.963 282.434 377.491 284.372 L377.491 278.469 Q381.021 277.052 384.088 276.328 Q387.155 275.605 389.702 275.605 Q396.415 275.605 400.408 278.961 Q404.401 282.318 404.401 287.931 Q404.401 290.593 403.388 292.995 Q402.404 295.368 399.771 298.608 Q399.048 299.447 395.171 303.469 Q391.293 307.462 384.233 314.667 Z" fill="#000000" fill-rule="nonzero" fill-opacity="1" /><path clip-path="url(#clip420)" d="M416.959 276.386 L439.904 276.386 L439.904 281.305 L422.312 281.305 L422.312 291.895 Q423.585 291.461 424.858 291.259 Q426.131 291.027 427.404 291.027 Q434.638 291.027 438.862 294.991 Q443.087 298.955 443.087 305.726 Q443.087 312.7 438.747 316.577 Q434.406 320.425 426.507 320.425 Q423.787 320.425 420.952 319.962 Q418.145 319.499 415.136 318.573 L415.136 312.7 Q417.74 314.117 420.518 314.812 Q423.295 315.506 426.391 315.506 Q431.397 315.506 434.32 312.873 Q437.242 310.24 437.242 305.726 Q437.242 301.212 434.32 298.579 Q431.397 295.946 426.391 295.946 Q424.048 295.946 421.704 296.467 Q419.389 296.988 416.959 298.087 L416.959 276.386 Z" fill="#000000" fill-rule="nonzero" fill-opacity="1" /><path clip-path="url(#clip420)" d="M226.492 845.337 L244.348 845.337 L244.348 837.252 Q244.348 832.765 242.024 830.314 Q239.701 827.863 235.404 827.863 Q231.139 827.863 228.816 830.314 Q226.492 832.765 226.492 837.252 L226.492 845.337 M221.209 851.766 L221.209 837.252 Q221.209 829.263 224.837 825.189 Q228.434 821.083 235.404 821.083 Q242.438 821.083 246.035 825.189 Q249.631 829.263 249.631 837.252 L249.631 845.337 L268.729 845.337 L268.729 851.766 L221.209 851.766 Z" fill="#000000" fill-rule="nonzero" fill-opacity="1" /><path clip-path="url(#clip420)" d="M238.555 793.202 Q237.982 794.188 237.728 795.366 Q237.441 796.512 237.441 797.912 Q237.441 802.878 240.688 805.551 Q243.902 808.193 249.95 808.193 L268.729 808.193 L268.729 814.081 L233.081 814.081 L233.081 808.193 L238.619 808.193 Q235.372 806.347 233.813 803.387 Q232.221 800.427 232.221 796.194 Q232.221 795.589 232.317 794.857 Q232.38 794.125 232.54 793.234 L238.555 793.202 Z" fill="#000000" fill-rule="nonzero" fill-opacity="1" /><path clip-path="url(#clip420)" d="M237.186 774.677 Q237.186 779.388 240.879 782.125 Q244.539 784.863 250.936 784.863 Q257.334 784.863 261.026 782.157 Q264.686 779.42 264.686 774.677 Q264.686 769.999 260.994 767.261 Q257.302 764.524 250.936 764.524 Q244.603 764.524 240.91 767.261 Q237.186 769.999 237.186 774.677 M232.221 774.677 Q232.221 767.039 237.186 762.678 Q242.152 758.318 250.936 758.318 Q259.689 758.318 264.686 762.678 Q269.652 767.039 269.652 774.677 Q269.652 782.348 264.686 786.709 Q259.689 791.037 250.936 791.037 Q242.152 791.037 237.186 786.709 Q232.221 782.348 232.221 774.677 Z" fill="#000000" fill-rule="nonzero" fill-opacity="1" /><path clip-path="url(#clip420)" d="M250.936 723.02 Q244.475 723.02 240.815 725.693 Q237.123 728.335 237.123 732.982 Q237.123 737.629 240.815 740.303 Q244.475 742.944 250.936 742.944 Q257.398 742.944 261.09 740.303 Q264.75 737.629 264.75 732.982 Q264.75 728.335 261.09 725.693 Q257.398 723.02 250.936 723.02 M238.491 742.944 Q235.309 741.098 233.781 738.297 Q232.221 735.465 232.221 731.55 Q232.221 725.057 237.377 721.015 Q242.534 716.941 250.936 716.941 Q259.339 716.941 264.495 721.015 Q269.652 725.057 269.652 731.55 Q269.652 735.465 268.124 738.297 Q266.564 741.098 263.381 742.944 L268.729 742.944 L268.729 748.833 L219.203 748.833 L219.203 742.944 L238.491 742.944 Z" fill="#000000" fill-rule="nonzero" fill-opacity="1" /><path clip-path="url(#clip420)" d="M250.809 691.032 Q250.809 698.13 252.432 700.867 Q254.056 703.604 257.971 703.604 Q261.09 703.604 262.936 701.567 Q264.75 699.498 264.75 695.966 Q264.75 691.096 261.313 688.168 Q257.843 685.207 252.114 685.207 L250.809 685.207 L250.809 691.032 M248.39 679.351 L268.729 679.351 L268.729 685.207 L263.318 685.207 Q266.564 687.213 268.124 690.205 Q269.652 693.196 269.652 697.525 Q269.652 703 266.596 706.246 Q263.509 709.461 258.352 709.461 Q252.337 709.461 249.281 705.45 Q246.226 701.408 246.226 693.419 L246.226 685.207 L245.653 685.207 Q241.611 685.207 239.414 687.881 Q237.186 690.523 237.186 695.329 Q237.186 698.384 237.919 701.281 Q238.651 704.177 240.115 706.851 L234.704 706.851 Q233.463 703.636 232.858 700.612 Q232.221 697.589 232.221 694.724 Q232.221 686.99 236.232 683.17 Q240.242 679.351 248.39 679.351 Z" fill="#000000" fill-rule="nonzero" fill-opacity="1" /><path clip-path="url(#clip420)" d="M250.936 641.698 Q244.475 641.698 240.815 644.371 Q237.123 647.013 237.123 651.66 Q237.123 656.307 240.815 658.981 Q244.475 661.623 250.936 661.623 Q257.398 661.623 261.09 658.981 Q264.75 656.307 264.75 651.66 Q264.75 647.013 261.09 644.371 Q257.398 641.698 250.936 641.698 M238.491 661.623 Q235.309 659.776 233.781 656.976 Q232.221 654.143 232.221 650.228 Q232.221 643.735 237.377 639.693 Q242.534 635.619 250.936 635.619 Q259.339 635.619 264.495 639.693 Q269.652 643.735 269.652 650.228 Q269.652 654.143 268.124 656.976 Q266.564 659.776 263.381 661.623 L268.729 661.623 L268.729 667.511 L219.203 667.511 L219.203 661.623 L238.491 661.623 Z" fill="#000000" fill-rule="nonzero" fill-opacity="1" /><path clip-path="url(#clip420)" d="M233.081 625.911 L233.081 620.054 L268.729 620.054 L268.729 625.911 L233.081 625.911 M219.203 625.911 L219.203 620.054 L226.619 620.054 L226.619 625.911 L219.203 625.911 Z" fill="#000000" fill-rule="nonzero" fill-opacity="1" /><path clip-path="url(#clip420)" d="M219.203 607.8 L219.203 601.944 L268.729 601.944 L268.729 607.8 L219.203 607.8 Z" fill="#000000" fill-rule="nonzero" fill-opacity="1" /><path clip-path="url(#clip420)" d="M233.081 589.69 L233.081 583.834 L268.729 583.834 L268.729 589.69 L233.081 589.69 M219.203 589.69 L219.203 583.834 L226.619 583.834 L226.619 589.69 L219.203 589.69 Z" fill="#000000" fill-rule="nonzero" fill-opacity="1" /><path clip-path="url(#clip420)" d="M222.959 565.787 L233.081 565.787 L233.081 553.724 L237.632 553.724 L237.632 565.787 L256.984 565.787 Q261.344 565.787 262.586 564.609 Q263.827 563.4 263.827 559.739 L263.827 553.724 L268.729 553.724 L268.729 559.739 Q268.729 566.519 266.214 569.097 Q263.668 571.675 256.984 571.675 L237.632 571.675 L237.632 575.972 L233.081 575.972 L233.081 571.675 L222.959 571.675 L222.959 565.787 Z" fill="#000000" fill-rule="nonzero" fill-opacity="1" /><path clip-path="url(#clip420)" d="M272.039 531.189 Q278.404 533.672 280.346 536.027 Q282.288 538.382 282.288 542.329 L282.288 547.008 L277.386 547.008 L277.386 543.57 Q277.386 541.152 276.24 539.815 Q275.094 538.478 270.829 536.855 L268.156 535.804 L233.081 550.223 L233.081 544.016 L260.962 532.876 L233.081 521.736 L233.081 515.53 L272.039 531.189 Z" fill="#000000" fill-rule="nonzero" fill-opacity="1" /><path clip-path="url(#clip422)" d="M577.811 919.024 L577.811 1241.31 L649.608 1241.31 L649.608 919.024 L577.811 919.024 L577.811 919.024  Z" fill="#4682b4" fill-rule="evenodd" fill-opacity="0.7"/>
<polyline clip-path="url(#clip422)" style="stroke:#000000; stroke-linecap:round; stroke-linejoin:round; stroke-width:4; stroke-opacity:0.7; fill:none" points="577.811,919.024 577.811,1241.31 649.608,1241.31 649.608,919.024 577.811,919.024 "/>
<path clip-path="url(#clip422)" d="M667.557 1152.45 L667.557 1241.31 L739.354 1241.31 L739.354 1152.45 L667.557 1152.45 L667.557 1152.45  Z" fill="#4682b4" fill-rule="evenodd" fill-opacity="0.7"/>
<polyline clip-path="url(#clip422)" style="stroke:#000000; stroke-linecap:round; stroke-linejoin:round; stroke-width:4; stroke-opacity:0.7; fill:none" points="667.557,1152.45 667.557,1241.31 739.354,1241.31 739.354,1152.45 667.557,1152.45 "/>
<path clip-path="url(#clip422)" d="M757.303 1130.23 L757.303 1241.31 L829.1 1241.31 L829.1 1130.23 L757.303 1130.23 L757.303 1130.23  Z" fill="#4682b4" fill-rule="evenodd" fill-opacity="0.7"/>
<polyline clip-path="url(#clip422)" style="stroke:#000000; stroke-linecap:round; stroke-linejoin:round; stroke-width:4; stroke-opacity:0.7; fill:none" points="757.303,1130.23 757.303,1241.31 829.1,1241.31 829.1,1130.23 757.303,1130.23 "/>
<path clip-path="url(#clip422)" d="M847.049 1130.88 L847.049 1241.31 L918.846 1241.31 L918.846 1130.88 L847.049 1130.88 L847.049 1130.88  Z" fill="#4682b4" fill-rule="evenodd" fill-opacity="0.7"/>
<polyline clip-path="url(#clip422)" style="stroke:#000000; stroke-linecap:round; stroke-linejoin:round; stroke-width:4; stroke-opacity:0.7; fill:none" points="847.049,1130.88 847.049,1241.31 918.846,1241.31 918.846,1130.88 847.049,1130.88 "/>
<path clip-path="url(#clip422)" d="M936.796 1141.82 L936.796 1241.31 L1008.59 1241.31 L1008.59 1141.82 L936.796 1141.82 L936.796 1141.82  Z" fill="#4682b4" fill-rule="evenodd" fill-opacity="0.7"/>
<polyline clip-path="url(#clip422)" style="stroke:#000000; stroke-linecap:round; stroke-linejoin:round; stroke-width:4; stroke-opacity:0.7; fill:none" points="936.796,1141.82 936.796,1241.31 1008.59,1241.31 1008.59,1141.82 936.796,1141.82 "/>
<path clip-path="url(#clip422)" d="M1026.54 1049.07 L1026.54 1241.31 L1098.34 1241.31 L1098.34 1049.07 L1026.54 1049.07 L1026.54 1049.07  Z" fill="#4682b4" fill-rule="evenodd" fill-opacity="0.7"/>
<polyline clip-path="url(#clip422)" style="stroke:#000000; stroke-linecap:round; stroke-linejoin:round; stroke-width:4; stroke-opacity:0.7; fill:none" points="1026.54,1049.07 1026.54,1241.31 1098.34,1241.31 1098.34,1049.07 1026.54,1049.07 "/>
<path clip-path="url(#clip422)" d="M1116.29 1047.13 L1116.29 1241.31 L1188.08 1241.31 L1188.08 1047.13 L1116.29 1047.13 L1116.29 1047.13  Z" fill="#4682b4" fill-rule="evenodd" fill-opacity="0.7"/>
<polyline clip-path="url(#clip422)" style="stroke:#000000; stroke-linecap:round; stroke-linejoin:round; stroke-width:4; stroke-opacity:0.7; fill:none" points="1116.29,1047.13 1116.29,1241.31 1188.08,1241.31 1188.08,1047.13 1116.29,1047.13 "/>
<path clip-path="url(#clip422)" d="M1206.03 1114.12 L1206.03 1241.31 L1277.83 1241.31 L1277.83 1114.12 L1206.03 1114.12 L1206.03 1114.12  Z" fill="#4682b4" fill-rule="evenodd" fill-opacity="0.7"/>
<polyline clip-path="url(#clip422)" style="stroke:#000000; stroke-linecap:round; stroke-linejoin:round; stroke-width:4; stroke-opacity:0.7; fill:none" points="1206.03,1114.12 1206.03,1241.31 1277.83,1241.31 1277.83,1114.12 1206.03,1114.12 "/>
<path clip-path="url(#clip422)" d="M1295.78 1112.02 L1295.78 1241.31 L1367.58 1241.31 L1367.58 1112.02 L1295.78 1112.02 L1295.78 1112.02  Z" fill="#4682b4" fill-rule="evenodd" fill-opacity="0.7"/>
<polyline clip-path="url(#clip422)" style="stroke:#000000; stroke-linecap:round; stroke-linejoin:round; stroke-width:4; stroke-opacity:0.7; fill:none" points="1295.78,1112.02 1295.78,1241.31 1367.58,1241.31 1367.58,1112.02 1295.78,1112.02 "/>
<path clip-path="url(#clip422)" d="M1385.53 1020.35 L1385.53 1241.31 L1457.32 1241.31 L1457.32 1020.35 L1385.53 1020.35 L1385.53 1020.35  Z" fill="#4682b4" fill-rule="evenodd" fill-opacity="0.7"/>
<polyline clip-path="url(#clip422)" style="stroke:#000000; stroke-linecap:round; stroke-linejoin:round; stroke-width:4; stroke-opacity:0.7; fill:none" points="1385.53,1020.35 1385.53,1241.31 1457.32,1241.31 1457.32,1020.35 1385.53,1020.35 "/>
<path clip-path="url(#clip422)" d="M1475.27 1079.42 L1475.27 1241.31 L1547.07 1241.31 L1547.07 1079.42 L1475.27 1079.42 L1475.27 1079.42  Z" fill="#4682b4" fill-rule="evenodd" fill-opacity="0.7"/>
<polyline clip-path="url(#clip422)" style="stroke:#000000; stroke-linecap:round; stroke-linejoin:round; stroke-width:4; stroke-opacity:0.7; fill:none" points="1475.27,1079.42 1475.27,1241.31 1547.07,1241.31 1547.07,1079.42 1475.27,1079.42 "/>
<path clip-path="url(#clip422)" d="M1565.02 1045.69 L1565.02 1241.31 L1636.81 1241.31 L1636.81 1045.69 L1565.02 1045.69 L1565.02 1045.69  Z" fill="#4682b4" fill-rule="evenodd" fill-opacity="0.7"/>
<polyline clip-path="url(#clip422)" style="stroke:#000000; stroke-linecap:round; stroke-linejoin:round; stroke-width:4; stroke-opacity:0.7; fill:none" points="1565.02,1045.69 1565.02,1241.31 1636.81,1241.31 1636.81,1045.69 1565.02,1045.69 "/>
<path clip-path="url(#clip422)" d="M1654.76 1136.97 L1654.76 1241.31 L1726.56 1241.31 L1726.56 1136.97 L1654.76 1136.97 L1654.76 1136.97  Z" fill="#4682b4" fill-rule="evenodd" fill-opacity="0.7"/>
<polyline clip-path="url(#clip422)" style="stroke:#000000; stroke-linecap:round; stroke-linejoin:round; stroke-width:4; stroke-opacity:0.7; fill:none" points="1654.76,1136.97 1654.76,1241.31 1726.56,1241.31 1726.56,1136.97 1654.76,1136.97 "/>
<path clip-path="url(#clip422)" d="M1744.51 1040.09 L1744.51 1241.31 L1816.31 1241.31 L1816.31 1040.09 L1744.51 1040.09 L1744.51 1040.09  Z" fill="#4682b4" fill-rule="evenodd" fill-opacity="0.7"/>
<polyline clip-path="url(#clip422)" style="stroke:#000000; stroke-linecap:round; stroke-linejoin:round; stroke-width:4; stroke-opacity:0.7; fill:none" points="1744.51,1040.09 1744.51,1241.31 1816.31,1241.31 1816.31,1040.09 1744.51,1040.09 "/>
<path clip-path="url(#clip422)" d="M1834.26 1098 L1834.26 1241.31 L1906.05 1241.31 L1906.05 1098 L1834.26 1098 L1834.26 1098  Z" fill="#4682b4" fill-rule="evenodd" fill-opacity="0.7"/>
<polyline clip-path="url(#clip422)" style="stroke:#000000; stroke-linecap:round; stroke-linejoin:round; stroke-width:4; stroke-opacity:0.7; fill:none" points="1834.26,1098 1834.26,1241.31 1906.05,1241.31 1906.05,1098 1834.26,1098 "/>
<path clip-path="url(#clip422)" d="M1924 1097.54 L1924 1241.31 L1995.8 1241.31 L1995.8 1097.54 L1924 1097.54 L1924 1097.54  Z" fill="#4682b4" fill-rule="evenodd" fill-opacity="0.7"/>
<polyline clip-path="url(#clip422)" style="stroke:#000000; stroke-linecap:round; stroke-linejoin:round; stroke-width:4; stroke-opacity:0.7; fill:none" points="1924,1097.54 1924,1241.31 1995.8,1241.31 1995.8,1097.54 1924,1097.54 "/>
<path clip-path="url(#clip422)" d="M2013.75 1129.53 L2013.75 1241.31 L2085.55 1241.31 L2085.55 1129.53 L2013.75 1129.53 L2013.75 1129.53  Z" fill="#4682b4" fill-rule="evenodd" fill-opacity="0.7"/>
<polyline clip-path="url(#clip422)" style="stroke:#000000; stroke-linecap:round; stroke-linejoin:round; stroke-width:4; stroke-opacity:0.7; fill:none" points="2013.75,1129.53 2013.75,1241.31 2085.55,1241.31 2085.55,1129.53 2013.75,1129.53 "/>
<path clip-path="url(#clip422)" d="M2103.49 125.984 L2103.49 1241.31 L2175.29 1241.31 L2175.29 125.984 L2103.49 125.984 L2103.49 125.984  Z" fill="#4682b4" fill-rule="evenodd" fill-opacity="0.7"/>
<polyline clip-path="url(#clip422)" style="stroke:#000000; stroke-linecap:round; stroke-linejoin:round; stroke-width:4; stroke-opacity:0.7; fill:none" points="2103.49,125.984 2103.49,1241.31 2175.29,1241.31 2175.29,125.984 2103.49,125.984 "/>
<circle clip-path="url(#clip422)" style="fill:#4682b4; stroke:none; fill-opacity:0" cx="613.71" cy="919.024" r="2"/>
<circle clip-path="url(#clip422)" style="fill:#4682b4; stroke:none; fill-opacity:0" cx="703.456" cy="1152.45" r="2"/>
<circle clip-path="url(#clip422)" style="fill:#4682b4; stroke:none; fill-opacity:0" cx="793.202" cy="1130.23" r="2"/>
<circle clip-path="url(#clip422)" style="fill:#4682b4; stroke:none; fill-opacity:0" cx="882.948" cy="1130.88" r="2"/>
<circle clip-path="url(#clip422)" style="fill:#4682b4; stroke:none; fill-opacity:0" cx="972.694" cy="1141.82" r="2"/>
<circle clip-path="url(#clip422)" style="fill:#4682b4; stroke:none; fill-opacity:0" cx="1062.44" cy="1049.07" r="2"/>
<circle clip-path="url(#clip422)" style="fill:#4682b4; stroke:none; fill-opacity:0" cx="1152.19" cy="1047.13" r="2"/>
<circle clip-path="url(#clip422)" style="fill:#4682b4; stroke:none; fill-opacity:0" cx="1241.93" cy="1114.12" r="2"/>
<circle clip-path="url(#clip422)" style="fill:#4682b4; stroke:none; fill-opacity:0" cx="1331.68" cy="1112.02" r="2"/>
<circle clip-path="url(#clip422)" style="fill:#4682b4; stroke:none; fill-opacity:0" cx="1421.42" cy="1020.35" r="2"/>
<circle clip-path="url(#clip422)" style="fill:#4682b4; stroke:none; fill-opacity:0" cx="1511.17" cy="1079.42" r="2"/>
<circle clip-path="url(#clip422)" style="fill:#4682b4; stroke:none; fill-opacity:0" cx="1600.92" cy="1045.69" r="2"/>
<circle clip-path="url(#clip422)" style="fill:#4682b4; stroke:none; fill-opacity:0" cx="1690.66" cy="1136.97" r="2"/>
<circle clip-path="url(#clip422)" style="fill:#4682b4; stroke:none; fill-opacity:0" cx="1780.41" cy="1040.09" r="2"/>
<circle clip-path="url(#clip422)" style="fill:#4682b4; stroke:none; fill-opacity:0" cx="1870.15" cy="1098" r="2"/>
<circle clip-path="url(#clip422)" style="fill:#4682b4; stroke:none; fill-opacity:0" cx="1959.9" cy="1097.54" r="2"/>
<circle clip-path="url(#clip422)" style="fill:#4682b4; stroke:none; fill-opacity:0" cx="2049.65" cy="1129.53" r="2"/>
</svg>
