<?xml version="1.0" encoding="utf-8"?>
<svg xmlns="http://www.w3.org/2000/svg" xmlns:xlink="http://www.w3.org/1999/xlink" width="600" height="400" viewBox="0 0 2400 1600">
<defs>
  <clipPath id="clip700">
    <rect x="0" y="0" width="2400" height="1600"/>
  </clipPath>
</defs>
<path clip-path="url(#clip700)" d="M0 1600 L2400 1600 L2400 8.88178e-14 L0 8.88178e-14  Z" fill="#ffffff" fill-rule="evenodd" fill-opacity="1"/>
<defs>
  <clipPath id="clip701">
    <rect x="386" y="125" width="1889" height="1116"/>
  </clipPath>
</defs>
<path clip-path="url(#clip700)" d="M545.232 1241.31 L2274.02 1241.31 L2274.02 125.984 L545.232 125.984  Z" fill="#ffffff" fill-rule="evenodd" fill-opacity="1"/>
<defs>
  <clipPath id="clip702">
    <rect x="545" y="125" width="1730" height="1116"/>
  </clipPath>
</defs>
<polyline clip-path="url(#clip702)" style="stroke:#000000; stroke-linecap:round; stroke-linejoin:round; stroke-width:2; stroke-opacity:0.1; fill:none" points="566.517,1241.31 566.517,125.984 "/>
<polyline clip-path="url(#clip702)" style="stroke:#000000; stroke-linecap:round; stroke-linejoin:round; stroke-width:2; stroke-opacity:0.1; fill:none" points="842.946,1241.31 842.946,125.984 "/>
<polyline clip-path="url(#clip702)" style="stroke:#000000; stroke-linecap:round; stroke-linejoin:round; stroke-width:2; stroke-opacity:0.1; fill:none" points="1119.37,1241.31 1119.37,125.984 "/>
<polyline clip-path="url(#clip702)" style="stroke:#000000; stroke-linecap:round; stroke-linejoin:round; stroke-width:2; stroke-opacity:0.1; fill:none" points="1395.8,1241.31 1395.8,125.984 "/>
<polyline clip-path="url(#clip702)" style="stroke:#000000; stroke-linecap:round; stroke-linejoin:round; stroke-width:2; stroke-opacity:0.1; fill:none" points="1672.23,1241.31 1672.23,125.984 "/>
<polyline clip-path="url(#clip702)" style="stroke:#000000; stroke-linecap:round; stroke-linejoin:round; stroke-width:2; stroke-opacity:0.1; fill:none" points="1948.66,1241.31 1948.66,125.984 "/>
<polyline clip-path="url(#clip702)" style="stroke:#000000; stroke-linecap:round; stroke-linejoin:round; stroke-width:2; stroke-opacity:0.1; fill:none" points="2225.09,1241.31 2225.09,125.984 "/>
<polyline clip-path="url(#clip702)" style="stroke:#000000; stroke-linecap:round; stroke-linejoin:round; stroke-width:2; stroke-opacity:0.1; fill:none" points="545.232,1115 2274.02,1115 "/>
<polyline clip-path="url(#clip702)" style="stroke:#000000; stroke-linecap:round; stroke-linejoin:round; stroke-width:2; stroke-opacity:0.1; fill:none" points="545.232,965.102 2274.02,965.102 "/>
<polyline clip-path="url(#clip702)" style="stroke:#000000; stroke-linecap:round; stroke-linejoin:round; stroke-width:2; stroke-opacity:0.1; fill:none" points="545.232,815.208 2274.02,815.208 "/>
<polyline clip-path="url(#clip702)" style="stroke:#000000; stroke-linecap:round; stroke-linejoin:round; stroke-width:2; stroke-opacity:0.1; fill:none" points="545.232,665.314 2274.02,665.314 "/>
<polyline clip-path="url(#clip702)" style="stroke:#000000; stroke-linecap:round; stroke-linejoin:round; stroke-width:2; stroke-opacity:0.1; fill:none" points="545.232,515.42 2274.02,515.42 "/>
<polyline clip-path="url(#clip702)" style="stroke:#000000; stroke-linecap:round; stroke-linejoin:round; stroke-width:2; stroke-opacity:0.1; fill:none" points="545.232,365.526 2274.02,365.526 "/>
<polyline clip-path="url(#clip702)" style="stroke:#000000; stroke-linecap:round; stroke-linejoin:round; stroke-width:2; stroke-opacity:0.1; fill:none" points="545.232,215.632 2274.02,215.632 "/>
<polyline clip-path="url(#clip700)" style="stroke:#000000; stroke-linecap:round; stroke-linejoin:round; stroke-width:4; stroke-opacity:1; fill:none" points="545.232,1241.31 2274.02,1241.31 "/>
<polyline clip-path="url(#clip700)" style="stroke:#000000; stroke-linecap:round; stroke-linejoin:round; stroke-width:4; stroke-opacity:1; fill:none" points="566.517,1241.31 566.517,1222.41 "/>
<polyline clip-path="url(#clip700)" style="stroke:#000000; stroke-linecap:round; stroke-linejoin:round; stroke-width:4; stroke-opacity:1; fill:none" points="842.946,1241.31 842.946,1222.41 "/>
<polyline clip-path="url(#clip700)" style="stroke:#000000; stroke-linecap:round; stroke-linejoin:round; stroke-width:4; stroke-opacity:1; fill:none" points="1119.37,1241.31 1119.37,1222.41 "/>
<polyline clip-path="url(#clip700)" style="stroke:#000000; stroke-linecap:round; stroke-linejoin:round; stroke-width:4; stroke-opacity:1; fill:none" points="1395.8,1241.31 1395.8,1222.41 "/>
<polyline clip-path="url(#clip700)" style="stroke:#000000; stroke-linecap:round; stroke-linejoin:round; stroke-width:4; stroke-opacity:1; fill:none" points="1672.23,1241.31 1672.23,1222.41 "/>
<polyline clip-path="url(#clip700)" style="stroke:#000000; stroke-linecap:round; stroke-linejoin:round; stroke-width:4; stroke-opacity:1; fill:none" points="1948.66,1241.31 1948.66,1222.41 "/>
<polyline clip-path="url(#clip700)" style="stroke:#000000; stroke-linecap:round; stroke-linejoin:round; stroke-width:4; stroke-opacity:1; fill:none" points="2225.09,1241.31 2225.09,1222.41 "/>
<path clip-path="url(#clip700)" d="M566.517 1275.16 Q562.004 1275.16 559.718 1279.62 Q557.461 1284.04 557.461 1292.95 Q557.461 1301.84 559.718 1306.29 Q562.004 1310.72 566.517 1310.72 Q571.06 1310.72 573.317 1306.29 Q575.603 1301.84 575.603 1292.95 Q575.603 1284.04 573.317 1279.62 Q571.06 1275.16 566.517 1275.16 M566.517 1270.53 Q573.78 1270.53 577.599 1276.29 Q581.448 1282.02 581.448 1292.95 Q581.448 1303.86 577.599 1309.62 Q573.78 1315.35 566.517 1315.35 Q559.255 1315.35 555.406 1309.62 Q551.587 1303.86 551.587 1292.95 Q551.587 1282.02 555.406 1276.29 Q559.255 1270.53 566.517 1270.53 Z" fill="#000000" fill-rule="nonzero" fill-opacity="1" /><path clip-path="url(#clip700)" d="M811.305 1309.59 L820.854 1309.59 L820.854 1276.64 L810.466 1278.72 L810.466 1273.39 L820.796 1271.31 L826.641 1271.31 L826.641 1309.59 L836.189 1309.59 L836.189 1314.51 L811.305 1314.51 L811.305 1309.59 Z" fill="#000000" fill-rule="nonzero" fill-opacity="1" /><path clip-path="url(#clip700)" d="M860.495 1275.16 Q855.981 1275.16 853.695 1279.62 Q851.438 1284.04 851.438 1292.95 Q851.438 1301.84 853.695 1306.29 Q855.981 1310.72 860.495 1310.72 Q865.038 1310.72 867.295 1306.29 Q869.58 1301.84 869.58 1292.95 Q869.58 1284.04 867.295 1279.62 Q865.038 1275.16 860.495 1275.16 M860.495 1270.53 Q867.758 1270.53 871.577 1276.29 Q875.425 1282.02 875.425 1292.95 Q875.425 1303.86 871.577 1309.62 Q867.758 1315.35 860.495 1315.35 Q853.232 1315.35 849.384 1309.62 Q845.564 1303.86 845.564 1292.95 Q845.564 1282.02 849.384 1276.29 Q853.232 1270.53 860.495 1270.53 Z" fill="#000000" fill-rule="nonzero" fill-opacity="1" /><path clip-path="url(#clip700)" d="M1092.84 1309.59 L1113.24 1309.59 L1113.24 1314.51 L1085.81 1314.51 L1085.81 1309.59 Q1089.14 1306.15 1094.87 1300.36 Q1100.62 1294.55 1102.1 1292.87 Q1104.91 1289.71 1106.01 1287.54 Q1107.13 1285.34 1107.13 1283.23 Q1107.13 1279.79 1104.7 1277.62 Q1102.3 1275.45 1098.43 1275.45 Q1095.68 1275.45 1092.61 1276.4 Q1089.57 1277.36 1086.1 1279.3 L1086.1 1273.39 Q1089.63 1271.98 1092.7 1271.25 Q1095.76 1270.53 1098.31 1270.53 Q1105.02 1270.53 1109.02 1273.89 Q1113.01 1277.24 1113.01 1282.86 Q1113.01 1285.52 1112 1287.92 Q1111.01 1290.29 1108.38 1293.53 Q1107.66 1294.37 1103.78 1298.39 Q1099.9 1302.39 1092.84 1309.59 Z" fill="#000000" fill-rule="nonzero" fill-opacity="1" /><path clip-path="url(#clip700)" d="M1138.01 1275.16 Q1133.49 1275.16 1131.21 1279.62 Q1128.95 1284.04 1128.95 1292.95 Q1128.95 1301.84 1131.21 1306.29 Q1133.49 1310.72 1138.01 1310.72 Q1142.55 1310.72 1144.81 1306.29 Q1147.09 1301.84 1147.09 1292.95 Q1147.09 1284.04 1144.81 1279.62 Q1142.55 1275.16 1138.01 1275.16 M1138.01 1270.53 Q1145.27 1270.53 1149.09 1276.29 Q1152.94 1282.02 1152.94 1292.95 Q1152.94 1303.86 1149.09 1309.62 Q1145.27 1315.35 1138.01 1315.35 Q1130.75 1315.35 1126.9 1309.62 Q1123.08 1303.86 1123.08 1292.95 Q1123.08 1282.02 1126.9 1276.29 Q1130.75 1270.53 1138.01 1270.53 Z" fill="#000000" fill-rule="nonzero" fill-opacity="1" /><path clip-path="url(#clip700)" d="M1381.86 1291.22 Q1386.05 1292.12 1388.4 1294.95 Q1390.77 1297.79 1390.77 1301.95 Q1390.77 1308.35 1386.37 1311.85 Q1381.97 1315.35 1373.87 1315.35 Q1371.15 1315.35 1368.26 1314.8 Q1365.39 1314.28 1362.32 1313.21 L1362.32 1307.57 Q1364.76 1308.98 1367.65 1309.71 Q1370.54 1310.43 1373.7 1310.43 Q1379.19 1310.43 1382.06 1308.26 Q1384.95 1306.09 1384.95 1301.95 Q1384.95 1298.13 1382.26 1295.99 Q1379.6 1293.82 1374.82 1293.82 L1369.79 1293.82 L1369.79 1289.02 L1375.06 1289.02 Q1379.37 1289.02 1381.65 1287.31 Q1383.94 1285.58 1383.94 1282.34 Q1383.94 1279.01 1381.57 1277.24 Q1379.22 1275.45 1374.82 1275.45 Q1372.42 1275.45 1369.67 1275.97 Q1366.93 1276.49 1363.63 1277.59 L1363.63 1272.38 Q1366.95 1271.46 1369.85 1270.99 Q1372.77 1270.53 1375.35 1270.53 Q1382 1270.53 1385.88 1273.57 Q1389.76 1276.58 1389.76 1281.73 Q1389.76 1285.32 1387.7 1287.8 Q1385.65 1290.26 1381.86 1291.22 Z" fill="#000000" fill-rule="nonzero" fill-opacity="1" /><path clip-path="url(#clip700)" d="M1414.35 1275.16 Q1409.84 1275.16 1407.55 1279.62 Q1405.29 1284.04 1405.29 1292.95 Q1405.29 1301.84 1407.55 1306.29 Q1409.84 1310.72 1414.35 1310.72 Q1418.89 1310.72 1421.15 1306.29 Q1423.44 1301.84 1423.44 1292.95 Q1423.44 1284.04 1421.15 1279.62 Q1418.89 1275.16 1414.35 1275.16 M1414.35 1270.53 Q1421.61 1270.53 1425.43 1276.29 Q1429.28 1282.02 1429.28 1292.95 Q1429.28 1303.86 1425.43 1309.62 Q1421.61 1315.35 1414.35 1315.35 Q1407.09 1315.35 1403.24 1309.62 Q1399.42 1303.86 1399.42 1292.95 Q1399.42 1282.02 1403.24 1276.29 Q1407.09 1270.53 1414.35 1270.53 Z" fill="#000000" fill-rule="nonzero" fill-opacity="1" /><path clip-path="url(#clip700)" d="M1657.45 1276.4 L1642.69 1299.47 L1657.45 1299.47 L1657.45 1276.4 M1655.91 1271.31 L1663.26 1271.31 L1663.26 1299.47 L1669.42 1299.47 L1669.42 1304.33 L1663.26 1304.33 L1663.26 1314.51 L1657.45 1314.51 L1657.45 1304.33 L1637.94 1304.33 L1637.94 1298.68 L1655.91 1271.31 Z" fill="#000000" fill-rule="nonzero" fill-opacity="1" /><path clip-path="url(#clip700)" d="M1691.59 1275.16 Q1687.07 1275.16 1684.79 1279.62 Q1682.53 1284.04 1682.53 1292.95 Q1682.53 1301.84 1684.79 1306.29 Q1687.07 1310.72 1691.59 1310.72 Q1696.13 1310.72 1698.39 1306.29 Q1700.67 1301.84 1700.67 1292.95 Q1700.67 1284.04 1698.39 1279.62 Q1696.13 1275.16 1691.59 1275.16 M1691.59 1270.53 Q1698.85 1270.53 1702.67 1276.29 Q1706.52 1282.02 1706.52 1292.95 Q1706.52 1303.86 1702.67 1309.62 Q1698.85 1315.35 1691.59 1315.35 Q1684.33 1315.35 1680.48 1309.62 Q1676.66 1303.86 1676.66 1292.95 Q1676.66 1282.02 1680.48 1276.29 Q1684.33 1270.53 1691.59 1270.53 Z" fill="#000000" fill-rule="nonzero" fill-opacity="1" /><path clip-path="url(#clip700)" d="M1917.03 1271.31 L1939.98 1271.31 L1939.98 1276.23 L1922.39 1276.23 L1922.39 1286.82 Q1923.66 1286.39 1924.93 1286.18 Q1926.21 1285.95 1927.48 1285.95 Q1934.71 1285.95 1938.94 1289.92 Q1943.16 1293.88 1943.16 1300.65 Q1943.16 1307.62 1938.82 1311.5 Q1934.48 1315.35 1926.58 1315.35 Q1923.86 1315.35 1921.03 1314.89 Q1918.22 1314.42 1915.21 1313.5 L1915.21 1307.62 Q1917.81 1309.04 1920.59 1309.74 Q1923.37 1310.43 1926.47 1310.43 Q1931.47 1310.43 1934.39 1307.8 Q1937.32 1305.17 1937.32 1300.65 Q1937.32 1296.14 1934.39 1293.5 Q1931.47 1290.87 1926.47 1290.87 Q1924.12 1290.87 1921.78 1291.39 Q1919.46 1291.91 1917.03 1293.01 L1917.03 1271.31 Z" fill="#000000" fill-rule="nonzero" fill-opacity="1" /><path clip-path="url(#clip700)" d="M1967.18 1275.16 Q1962.66 1275.16 1960.38 1279.62 Q1958.12 1284.04 1958.12 1292.95 Q1958.12 1301.84 1960.38 1306.29 Q1962.66 1310.72 1967.18 1310.72 Q1971.72 1310.72 1973.98 1306.29 Q1976.26 1301.84 1976.26 1292.95 Q1976.26 1284.04 1973.98 1279.62 Q1971.72 1275.16 1967.18 1275.16 M1967.18 1270.53 Q1974.44 1270.53 1978.26 1276.29 Q1982.11 1282.02 1982.11 1292.95 Q1982.11 1303.86 1978.26 1309.62 Q1974.44 1315.35 1967.18 1315.35 Q1959.92 1315.35 1956.07 1309.62 Q1952.25 1303.86 1952.25 1292.95 Q1952.25 1282.02 1956.07 1276.29 Q1959.92 1270.53 1967.18 1270.53 Z" fill="#000000" fill-rule="nonzero" fill-opacity="1" /><path clip-path="url(#clip700)" d="M2206.84 1290.58 Q2202.91 1290.58 2200.59 1293.27 Q2198.31 1295.96 2198.31 1300.65 Q2198.31 1305.31 2200.59 1308.03 Q2202.91 1310.72 2206.84 1310.72 Q2210.78 1310.72 2213.07 1308.03 Q2215.38 1305.31 2215.38 1300.65 Q2215.38 1295.96 2213.07 1293.27 Q2210.78 1290.58 2206.84 1290.58 M2218.45 1272.27 L2218.45 1277.59 Q2216.25 1276.55 2213.99 1276 Q2211.76 1275.45 2209.56 1275.45 Q2203.78 1275.45 2200.71 1279.36 Q2197.67 1283.26 2197.24 1291.16 Q2198.95 1288.64 2201.52 1287.31 Q2204.1 1285.95 2207.19 1285.95 Q2213.7 1285.95 2217.46 1289.92 Q2221.25 1293.85 2221.25 1300.65 Q2221.25 1307.31 2217.32 1311.33 Q2213.38 1315.35 2206.84 1315.35 Q2199.35 1315.35 2195.39 1309.62 Q2191.42 1303.86 2191.42 1292.95 Q2191.42 1282.71 2196.28 1276.64 Q2201.14 1270.53 2209.33 1270.53 Q2211.53 1270.53 2213.76 1270.96 Q2216.02 1271.4 2218.45 1272.27 Z" fill="#000000" fill-rule="nonzero" fill-opacity="1" /><path clip-path="url(#clip700)" d="M2243.82 1275.16 Q2239.31 1275.16 2237.02 1279.62 Q2234.77 1284.04 2234.77 1292.95 Q2234.77 1301.84 2237.02 1306.29 Q2239.31 1310.72 2243.82 1310.72 Q2248.37 1310.72 2250.62 1306.29 Q2252.91 1301.84 2252.91 1292.95 Q2252.91 1284.04 2250.62 1279.62 Q2248.37 1275.16 2243.82 1275.16 M2243.82 1270.53 Q2251.09 1270.53 2254.91 1276.29 Q2258.75 1282.02 2258.75 1292.95 Q2258.75 1303.86 2254.91 1309.62 Q2251.09 1315.35 2243.82 1315.35 Q2236.56 1315.35 2232.71 1309.62 Q2228.89 1303.86 2228.89 1292.95 Q2228.89 1282.02 2232.71 1276.29 Q2236.56 1270.53 2243.82 1270.53 Z" fill="#000000" fill-rule="nonzero" fill-opacity="1" /><path clip-path="url(#clip700)" d="M1218.83 1351.62 L1248.87 1351.62 L1248.87 1357.03 L1225.26 1357.03 L1225.26 1371.09 L1247.89 1371.09 L1247.89 1376.51 L1225.26 1376.51 L1225.26 1393.72 L1249.45 1393.72 L1249.45 1399.14 L1218.83 1399.14 L1218.83 1351.62 Z" fill="#000000" fill-rule="nonzero" fill-opacity="1" /><path clip-path="url(#clip700)" d="M1260.01 1351.62 L1269.59 1351.62 L1281.72 1383.95 L1293.91 1351.62 L1303.49 1351.62 L1303.49 1399.14 L1297.22 1399.14 L1297.22 1357.41 L1284.97 1390 L1278.51 1390 L1266.25 1357.41 L1266.25 1399.14 L1260.01 1399.14 L1260.01 1351.62 Z" fill="#000000" fill-rule="nonzero" fill-opacity="1" /><path clip-path="url(#clip700)" d="M1336.72 1363.49 L1342.58 1363.49 L1342.58 1399.14 L1336.72 1399.14 L1336.72 1363.49 M1336.72 1349.61 L1342.58 1349.61 L1342.58 1357.03 L1336.72 1357.03 L1336.72 1349.61 Z" fill="#000000" fill-rule="nonzero" fill-opacity="1" /><path clip-path="url(#clip700)" d="M1360.62 1353.37 L1360.62 1363.49 L1372.69 1363.49 L1372.69 1368.04 L1360.62 1368.04 L1360.62 1387.39 Q1360.62 1391.75 1361.8 1392.99 Q1363.01 1394.23 1366.67 1394.23 L1372.69 1394.23 L1372.69 1399.14 L1366.67 1399.14 Q1359.89 1399.14 1357.31 1396.62 Q1354.74 1394.07 1354.74 1387.39 L1354.74 1368.04 L1350.44 1368.04 L1350.44 1363.49 L1354.74 1363.49 L1354.74 1353.37 L1360.62 1353.37 Z" fill="#000000" fill-rule="nonzero" fill-opacity="1" /><path clip-path="url(#clip700)" d="M1410.88 1379.85 L1410.88 1382.71 L1383.95 1382.71 Q1384.34 1388.76 1387.58 1391.94 Q1390.86 1395.09 1396.69 1395.09 Q1400.06 1395.09 1403.21 1394.27 Q1406.39 1393.44 1409.51 1391.78 L1409.51 1397.32 Q1406.36 1398.66 1403.05 1399.36 Q1399.74 1400.06 1396.34 1400.06 Q1387.81 1400.06 1382.81 1395.09 Q1377.84 1390.13 1377.84 1381.66 Q1377.84 1372.91 1382.55 1367.78 Q1387.3 1362.63 1395.32 1362.63 Q1402.51 1362.63 1406.68 1367.28 Q1410.88 1371.89 1410.88 1379.85 M1405.02 1378.13 Q1404.96 1373.32 1402.32 1370.46 Q1399.71 1367.59 1395.38 1367.59 Q1390.48 1367.59 1387.52 1370.36 Q1384.59 1373.13 1384.15 1378.16 L1405.02 1378.13 Z" fill="#000000" fill-rule="nonzero" fill-opacity="1" /><path clip-path="url(#clip700)" d="M1441.15 1368.96 Q1440.16 1368.39 1438.99 1368.13 Q1437.84 1367.85 1436.44 1367.85 Q1431.47 1367.85 1428.8 1371.09 Q1426.16 1374.31 1426.16 1380.36 L1426.16 1399.14 L1420.27 1399.14 L1420.27 1363.49 L1426.16 1363.49 L1426.16 1369.03 Q1428.01 1365.78 1430.97 1364.22 Q1433.93 1362.63 1438.16 1362.63 Q1438.76 1362.63 1439.5 1362.72 Q1440.23 1362.79 1441.12 1362.95 L1441.15 1368.96 Z" fill="#000000" fill-rule="nonzero" fill-opacity="1" /><path clip-path="url(#clip700)" d="M1463.49 1381.22 Q1456.4 1381.22 1453.66 1382.84 Q1450.92 1384.46 1450.92 1388.38 Q1450.92 1391.5 1452.96 1393.34 Q1455.03 1395.16 1458.56 1395.16 Q1463.43 1395.16 1466.36 1391.72 Q1469.32 1388.25 1469.32 1382.52 L1469.32 1381.22 L1463.49 1381.22 M1475.17 1378.8 L1475.17 1399.14 L1469.32 1399.14 L1469.32 1393.72 Q1467.31 1396.97 1464.32 1398.53 Q1461.33 1400.06 1457 1400.06 Q1451.53 1400.06 1448.28 1397 Q1445.07 1393.92 1445.07 1388.76 Q1445.07 1382.74 1449.08 1379.69 Q1453.12 1376.63 1461.11 1376.63 L1469.32 1376.63 L1469.32 1376.06 Q1469.32 1372.02 1466.64 1369.82 Q1464 1367.59 1459.2 1367.59 Q1456.14 1367.59 1453.25 1368.33 Q1450.35 1369.06 1447.68 1370.52 L1447.68 1365.11 Q1450.89 1363.87 1453.91 1363.26 Q1456.94 1362.63 1459.8 1362.63 Q1467.54 1362.63 1471.36 1366.64 Q1475.17 1370.65 1475.17 1378.8 Z" fill="#000000" fill-rule="nonzero" fill-opacity="1" /><path clip-path="url(#clip700)" d="M1493.03 1353.37 L1493.03 1363.49 L1505.09 1363.49 L1505.09 1368.04 L1493.03 1368.04 L1493.03 1387.39 Q1493.03 1391.75 1494.21 1392.99 Q1495.42 1394.23 1499.08 1394.23 L1505.09 1394.23 L1505.09 1399.14 L1499.08 1399.14 Q1492.3 1399.14 1489.72 1396.62 Q1487.14 1394.07 1487.14 1387.39 L1487.14 1368.04 L1482.85 1368.04 L1482.85 1363.49 L1487.14 1363.49 L1487.14 1353.37 L1493.03 1353.37 Z" fill="#000000" fill-rule="nonzero" fill-opacity="1" /><path clip-path="url(#clip700)" d="M1512.8 1363.49 L1518.65 1363.49 L1518.65 1399.14 L1512.8 1399.14 L1512.8 1363.49 M1512.8 1349.61 L1518.65 1349.61 L1518.65 1357.03 L1512.8 1357.03 L1512.8 1349.61 Z" fill="#000000" fill-rule="nonzero" fill-opacity="1" /><path clip-path="url(#clip700)" d="M1544.72 1367.59 Q1540.01 1367.59 1537.27 1371.29 Q1534.54 1374.95 1534.54 1381.34 Q1534.54 1387.74 1537.24 1391.43 Q1539.98 1395.09 1544.72 1395.09 Q1549.4 1395.09 1552.14 1391.4 Q1554.87 1387.71 1554.87 1381.34 Q1554.87 1375.01 1552.14 1371.32 Q1549.4 1367.59 1544.72 1367.59 M1544.72 1362.63 Q1552.36 1362.63 1556.72 1367.59 Q1561.08 1372.56 1561.08 1381.34 Q1561.08 1390.1 1556.72 1395.09 Q1552.36 1400.06 1544.72 1400.06 Q1537.05 1400.06 1532.69 1395.09 Q1528.36 1390.1 1528.36 1381.34 Q1528.36 1372.56 1532.69 1367.59 Q1537.05 1362.63 1544.72 1362.63 Z" fill="#000000" fill-rule="nonzero" fill-opacity="1" /><path clip-path="url(#clip700)" d="M1600.42 1377.62 L1600.42 1399.14 L1594.56 1399.14 L1594.56 1377.81 Q1594.56 1372.75 1592.59 1370.24 Q1590.62 1367.72 1586.67 1367.72 Q1581.93 1367.72 1579.19 1370.74 Q1576.45 1373.77 1576.45 1378.99 L1576.45 1399.14 L1570.57 1399.14 L1570.57 1363.49 L1576.45 1363.49 L1576.45 1369.03 Q1578.55 1365.81 1581.39 1364.22 Q1584.25 1362.63 1587.98 1362.63 Q1594.12 1362.63 1597.27 1366.45 Q1600.42 1370.24 1600.42 1377.62 Z" fill="#000000" fill-rule="nonzero" fill-opacity="1" /><polyline clip-path="url(#clip700)" style="stroke:#000000; stroke-linecap:round; stroke-linejoin:round; stroke-width:4; stroke-opacity:1; fill:none" points="545.232,1241.31 545.232,125.984 "/>
<polyline clip-path="url(#clip700)" style="stroke:#000000; stroke-linecap:round; stroke-linejoin:round; stroke-width:4; stroke-opacity:1; fill:none" points="545.232,1115 564.13,1115 "/>
<polyline clip-path="url(#clip700)" style="stroke:#000000; stroke-linecap:round; stroke-linejoin:round; stroke-width:4; stroke-opacity:1; fill:none" points="545.232,965.102 564.13,965.102 "/>
<polyline clip-path="url(#clip700)" style="stroke:#000000; stroke-linecap:round; stroke-linejoin:round; stroke-width:4; stroke-opacity:1; fill:none" points="545.232,815.208 564.13,815.208 "/>
<polyline clip-path="url(#clip700)" style="stroke:#000000; stroke-linecap:round; stroke-linejoin:round; stroke-width:4; stroke-opacity:1; fill:none" points="545.232,665.314 564.13,665.314 "/>
<polyline clip-path="url(#clip700)" style="stroke:#000000; stroke-linecap:round; stroke-linejoin:round; stroke-width:4; stroke-opacity:1; fill:none" points="545.232,515.42 564.13,515.42 "/>
<polyline clip-path="url(#clip700)" style="stroke:#000000; stroke-linecap:round; stroke-linejoin:round; stroke-width:4; stroke-opacity:1; fill:none" points="545.232,365.526 564.13,365.526 "/>
<polyline clip-path="url(#clip700)" style="stroke:#000000; stroke-linecap:round; stroke-linejoin:round; stroke-width:4; stroke-opacity:1; fill:none" points="545.232,215.632 564.13,215.632 "/>
<path clip-path="url(#clip700)" d="M318.985 1115.56 L356.079 1115.56 L356.079 1120.48 L318.985 1120.48 L318.985 1115.56 Z" fill="#000000" fill-rule="nonzero" fill-opacity="1" /><path clip-path="url(#clip700)" d="M368.753 1093.4 L391.698 1093.4 L391.698 1098.31 L374.106 1098.31 L374.106 1108.9 Q375.379 1108.47 376.652 1108.27 Q377.925 1108.04 379.198 1108.04 Q386.432 1108.04 390.657 1112 Q394.881 1115.97 394.881 1122.74 Q394.881 1129.71 390.541 1133.59 Q386.201 1137.43 378.301 1137.43 Q375.581 1137.43 372.746 1136.97 Q369.939 1136.51 366.93 1135.58 L366.93 1129.71 Q369.534 1131.13 372.312 1131.82 Q375.09 1132.52 378.186 1132.52 Q383.191 1132.52 386.114 1129.88 Q389.036 1127.25 389.036 1122.74 Q389.036 1118.22 386.114 1115.59 Q383.191 1112.96 378.186 1112.96 Q375.842 1112.96 373.498 1113.48 Q371.183 1114 368.753 1115.1 L368.753 1093.4 Z" fill="#000000" fill-rule="nonzero" fill-opacity="1" /><path clip-path="url(#clip700)" d="M422.456 1098.49 L407.699 1121.55 L422.456 1121.55 L422.456 1098.49 M420.923 1093.4 L428.272 1093.4 L428.272 1121.55 L434.435 1121.55 L434.435 1126.41 L428.272 1126.41 L428.272 1136.6 L422.456 1136.6 L422.456 1126.41 L402.954 1126.41 L402.954 1120.77 L420.923 1093.4 Z" fill="#000000" fill-rule="nonzero" fill-opacity="1" /><path clip-path="url(#clip700)" d="M456.6 1097.24 Q452.086 1097.24 449.8 1101.7 Q447.543 1106.13 447.543 1115.04 Q447.543 1123.92 449.8 1128.38 Q452.086 1132.81 456.6 1132.81 Q461.142 1132.81 463.399 1128.38 Q465.685 1123.92 465.685 1115.04 Q465.685 1106.13 463.399 1101.7 Q461.142 1097.24 456.6 1097.24 M456.6 1092.61 Q463.862 1092.61 467.682 1098.37 Q471.53 1104.1 471.53 1115.04 Q471.53 1125.95 467.682 1131.71 Q463.862 1137.43 456.6 1137.43 Q449.337 1137.43 445.489 1131.71 Q441.669 1125.95 441.669 1115.04 Q441.669 1104.1 445.489 1098.37 Q449.337 1092.61 456.6 1092.61 Z" fill="#000000" fill-rule="nonzero" fill-opacity="1" /><path clip-path="url(#clip700)" d="M494.302 1097.24 Q489.788 1097.24 487.502 1101.7 Q485.245 1106.13 485.245 1115.04 Q485.245 1123.92 487.502 1128.38 Q489.788 1132.81 494.302 1132.81 Q498.845 1132.81 501.102 1128.38 Q503.388 1123.92 503.388 1115.04 Q503.388 1106.13 501.102 1101.7 Q498.845 1097.24 494.302 1097.24 M494.302 1092.61 Q501.565 1092.61 505.384 1098.37 Q509.232 1104.1 509.232 1115.04 Q509.232 1125.95 505.384 1131.71 Q501.565 1137.43 494.302 1137.43 Q487.039 1137.43 483.191 1131.71 Q479.371 1125.95 479.371 1115.04 Q479.371 1104.1 483.191 1098.37 Q487.039 1092.61 494.302 1092.61 Z" fill="#000000" fill-rule="nonzero" fill-opacity="1" /><path clip-path="url(#clip700)" d="M318.985 965.666 L356.079 965.666 L356.079 970.585 L318.985 970.585 L318.985 965.666 Z" fill="#000000" fill-rule="nonzero" fill-opacity="1" /><path clip-path="url(#clip700)" d="M368.753 943.502 L391.698 943.502 L391.698 948.421 L374.106 948.421 L374.106 959.011 Q375.379 958.577 376.652 958.374 Q377.925 958.143 379.198 958.143 Q386.432 958.143 390.657 962.107 Q394.881 966.071 394.881 972.842 Q394.881 979.815 390.541 983.693 Q386.201 987.541 378.301 987.541 Q375.581 987.541 372.746 987.078 Q369.939 986.615 366.93 985.689 L366.93 979.815 Q369.534 981.233 372.312 981.928 Q375.09 982.622 378.186 982.622 Q383.191 982.622 386.114 979.989 Q389.036 977.356 389.036 972.842 Q389.036 968.328 386.114 965.695 Q383.191 963.062 378.186 963.062 Q375.842 963.062 373.498 963.583 Q371.183 964.104 368.753 965.203 L368.753 943.502 Z" fill="#000000" fill-rule="nonzero" fill-opacity="1" /><path clip-path="url(#clip700)" d="M424.106 963.409 Q428.301 964.306 430.645 967.142 Q433.018 969.977 433.018 974.144 Q433.018 980.539 428.619 984.04 Q424.221 987.541 416.119 987.541 Q413.4 987.541 410.506 986.991 Q407.641 986.47 404.574 985.4 L404.574 979.757 Q407.005 981.175 409.898 981.899 Q412.792 982.622 415.946 982.622 Q421.444 982.622 424.308 980.452 Q427.202 978.282 427.202 974.144 Q427.202 970.325 424.511 968.183 Q421.849 966.013 417.074 966.013 L412.04 966.013 L412.04 961.21 L417.306 961.21 Q421.617 961.21 423.903 959.503 Q426.189 957.767 426.189 954.526 Q426.189 951.199 423.816 949.433 Q421.472 947.64 417.074 947.64 Q414.673 947.64 411.924 948.16 Q409.175 948.681 405.876 949.781 L405.876 944.572 Q409.204 943.646 412.097 943.184 Q415.02 942.721 417.595 942.721 Q424.25 942.721 428.128 945.759 Q432.005 948.768 432.005 953.918 Q432.005 957.506 429.95 959.995 Q427.896 962.454 424.106 963.409 Z" fill="#000000" fill-rule="nonzero" fill-opacity="1" /><path clip-path="url(#clip700)" d="M456.6 947.35 Q452.086 947.35 449.8 951.806 Q447.543 956.233 447.543 965.145 Q447.543 974.028 449.8 978.484 Q452.086 982.911 456.6 982.911 Q461.142 982.911 463.399 978.484 Q465.685 974.028 465.685 965.145 Q465.685 956.233 463.399 951.806 Q461.142 947.35 456.6 947.35 M456.6 942.721 Q463.862 942.721 467.682 948.479 Q471.53 954.208 471.53 965.145 Q471.53 976.054 467.682 981.812 Q463.862 987.541 456.6 987.541 Q449.337 987.541 445.489 981.812 Q441.669 976.054 441.669 965.145 Q441.669 954.208 445.489 948.479 Q449.337 942.721 456.6 942.721 Z" fill="#000000" fill-rule="nonzero" fill-opacity="1" /><path clip-path="url(#clip700)" d="M494.302 947.35 Q489.788 947.35 487.502 951.806 Q485.245 956.233 485.245 965.145 Q485.245 974.028 487.502 978.484 Q489.788 982.911 494.302 982.911 Q498.845 982.911 501.102 978.484 Q503.388 974.028 503.388 965.145 Q503.388 956.233 501.102 951.806 Q498.845 947.35 494.302 947.35 M494.302 942.721 Q501.565 942.721 505.384 948.479 Q509.232 954.208 509.232 965.145 Q509.232 976.054 505.384 981.812 Q501.565 987.541 494.302 987.541 Q487.039 987.541 483.191 981.812 Q479.371 976.054 479.371 965.145 Q479.371 954.208 483.191 948.479 Q487.039 942.721 494.302 942.721 Z" fill="#000000" fill-rule="nonzero" fill-opacity="1" /><path clip-path="url(#clip700)" d="M318.985 815.772 L356.079 815.772 L356.079 820.691 L318.985 820.691 L318.985 815.772 Z" fill="#000000" fill-rule="nonzero" fill-opacity="1" /><path clip-path="url(#clip700)" d="M368.753 793.608 L391.698 793.608 L391.698 798.527 L374.106 798.527 L374.106 809.117 Q375.379 808.683 376.652 808.481 Q377.925 808.249 379.198 808.249 Q386.432 808.249 390.657 812.213 Q394.881 816.177 394.881 822.948 Q394.881 829.921 390.541 833.799 Q386.201 837.647 378.301 837.647 Q375.581 837.647 372.746 837.184 Q369.939 836.721 366.93 835.795 L366.93 829.921 Q369.534 831.339 372.312 832.034 Q375.09 832.728 378.186 832.728 Q383.191 832.728 386.114 830.095 Q389.036 827.462 389.036 822.948 Q389.036 818.434 386.114 815.801 Q383.191 813.168 378.186 813.168 Q375.842 813.168 373.498 813.689 Q371.183 814.21 368.753 815.309 L368.753 793.608 Z" fill="#000000" fill-rule="nonzero" fill-opacity="1" /><path clip-path="url(#clip700)" d="M411.432 831.889 L431.831 831.889 L431.831 836.808 L404.401 836.808 L404.401 831.889 Q407.728 828.446 413.457 822.659 Q419.216 816.843 420.691 815.165 Q423.498 812.011 424.597 809.84 Q425.726 807.641 425.726 805.529 Q425.726 802.086 423.295 799.916 Q420.894 797.746 417.016 797.746 Q414.268 797.746 411.201 798.7 Q408.162 799.655 404.69 801.594 L404.69 795.691 Q408.22 794.273 411.287 793.55 Q414.354 792.827 416.901 792.827 Q423.614 792.827 427.607 796.183 Q431.6 799.54 431.6 805.153 Q431.6 807.815 430.587 810.217 Q429.603 812.589 426.97 815.83 Q426.247 816.669 422.369 820.691 Q418.492 824.684 411.432 831.889 Z" fill="#000000" fill-rule="nonzero" fill-opacity="1" /><path clip-path="url(#clip700)" d="M456.6 797.456 Q452.086 797.456 449.8 801.912 Q447.543 806.339 447.543 815.251 Q447.543 824.134 449.8 828.59 Q452.086 833.017 456.6 833.017 Q461.142 833.017 463.399 828.59 Q465.685 824.134 465.685 815.251 Q465.685 806.339 463.399 801.912 Q461.142 797.456 456.6 797.456 M456.6 792.827 Q463.862 792.827 467.682 798.585 Q471.53 804.314 471.53 815.251 Q471.53 826.16 467.682 831.918 Q463.862 837.647 456.6 837.647 Q449.337 837.647 445.489 831.918 Q441.669 826.16 441.669 815.251 Q441.669 804.314 445.489 798.585 Q449.337 792.827 456.6 792.827 Z" fill="#000000" fill-rule="nonzero" fill-opacity="1" /><path clip-path="url(#clip700)" d="M494.302 797.456 Q489.788 797.456 487.502 801.912 Q485.245 806.339 485.245 815.251 Q485.245 824.134 487.502 828.59 Q489.788 833.017 494.302 833.017 Q498.845 833.017 501.102 828.59 Q503.388 824.134 503.388 815.251 Q503.388 806.339 501.102 801.912 Q498.845 797.456 494.302 797.456 M494.302 792.827 Q501.565 792.827 505.384 798.585 Q509.232 804.314 509.232 815.251 Q509.232 826.16 505.384 831.918 Q501.565 837.647 494.302 837.647 Q487.039 837.647 483.191 831.918 Q479.371 826.16 479.371 815.251 Q479.371 804.314 483.191 798.585 Q487.039 792.827 494.302 792.827 Z" fill="#000000" fill-rule="nonzero" fill-opacity="1" /><path clip-path="url(#clip700)" d="M318.985 665.878 L356.079 665.878 L356.079 670.797 L318.985 670.797 L318.985 665.878 Z" fill="#000000" fill-rule="nonzero" fill-opacity="1" /><path clip-path="url(#clip700)" d="M368.753 643.714 L391.698 643.714 L391.698 648.633 L374.106 648.633 L374.106 659.223 Q375.379 658.789 376.652 658.587 Q377.925 658.355 379.198 658.355 Q386.432 658.355 390.657 662.319 Q394.881 666.283 394.881 673.054 Q394.881 680.027 390.541 683.905 Q386.201 687.753 378.301 687.753 Q375.581 687.753 372.746 687.29 Q369.939 686.827 366.93 685.901 L366.93 680.027 Q369.534 681.445 372.312 682.14 Q375.09 682.834 378.186 682.834 Q383.191 682.834 386.114 680.201 Q389.036 677.568 389.036 673.054 Q389.036 668.54 386.114 665.907 Q383.191 663.274 378.186 663.274 Q375.842 663.274 373.498 663.795 Q371.183 664.316 368.753 665.415 L368.753 643.714 Z" fill="#000000" fill-rule="nonzero" fill-opacity="1" /><path clip-path="url(#clip700)" d="M407.41 681.995 L416.959 681.995 L416.959 649.038 L406.571 651.121 L406.571 645.797 L416.901 643.714 L422.746 643.714 L422.746 681.995 L432.294 681.995 L432.294 686.914 L407.41 686.914 L407.41 681.995 Z" fill="#000000" fill-rule="nonzero" fill-opacity="1" /><path clip-path="url(#clip700)" d="M456.6 647.562 Q452.086 647.562 449.8 652.018 Q447.543 656.445 447.543 665.357 Q447.543 674.24 449.8 678.696 Q452.086 683.124 456.6 683.124 Q461.142 683.124 463.399 678.696 Q465.685 674.24 465.685 665.357 Q465.685 656.445 463.399 652.018 Q461.142 647.562 456.6 647.562 M456.6 642.933 Q463.862 642.933 467.682 648.691 Q471.53 654.42 471.53 665.357 Q471.53 676.266 467.682 682.024 Q463.862 687.753 456.6 687.753 Q449.337 687.753 445.489 682.024 Q441.669 676.266 441.669 665.357 Q441.669 654.42 445.489 648.691 Q449.337 642.933 456.6 642.933 Z" fill="#000000" fill-rule="nonzero" fill-opacity="1" /><path clip-path="url(#clip700)" d="M494.302 647.562 Q489.788 647.562 487.502 652.018 Q485.245 656.445 485.245 665.357 Q485.245 674.24 487.502 678.696 Q489.788 683.124 494.302 683.124 Q498.845 683.124 501.102 678.696 Q503.388 674.24 503.388 665.357 Q503.388 656.445 501.102 652.018 Q498.845 647.562 494.302 647.562 M494.302 642.933 Q501.565 642.933 505.384 648.691 Q509.232 654.42 509.232 665.357 Q509.232 676.266 505.384 682.024 Q501.565 687.753 494.302 687.753 Q487.039 687.753 483.191 682.024 Q479.371 676.266 479.371 665.357 Q479.371 654.42 483.191 648.691 Q487.039 642.933 494.302 642.933 Z" fill="#000000" fill-rule="nonzero" fill-opacity="1" /><path clip-path="url(#clip700)" d="M318.985 515.984 L356.079 515.984 L356.079 520.903 L318.985 520.903 L318.985 515.984 Z" fill="#000000" fill-rule="nonzero" fill-opacity="1" /><path clip-path="url(#clip700)" d="M368.753 493.82 L391.698 493.82 L391.698 498.739 L374.106 498.739 L374.106 509.329 Q375.379 508.895 376.652 508.693 Q377.925 508.461 379.198 508.461 Q386.432 508.461 390.657 512.425 Q394.881 516.389 394.881 523.16 Q394.881 530.134 390.541 534.011 Q386.201 537.859 378.301 537.859 Q375.581 537.859 372.746 537.396 Q369.939 536.933 366.93 536.007 L366.93 530.134 Q369.534 531.551 372.312 532.246 Q375.09 532.94 378.186 532.94 Q383.191 532.94 386.114 530.307 Q389.036 527.674 389.036 523.16 Q389.036 518.646 386.114 516.013 Q383.191 513.38 378.186 513.38 Q375.842 513.38 373.498 513.901 Q371.183 514.422 368.753 515.521 L368.753 493.82 Z" fill="#000000" fill-rule="nonzero" fill-opacity="1" /><path clip-path="url(#clip700)" d="M418.897 497.668 Q414.383 497.668 412.097 502.124 Q409.841 506.552 409.841 515.464 Q409.841 524.347 412.097 528.803 Q414.383 533.23 418.897 533.23 Q423.44 533.23 425.697 528.803 Q427.983 524.347 427.983 515.464 Q427.983 506.552 425.697 502.124 Q423.44 497.668 418.897 497.668 M418.897 493.039 Q426.16 493.039 429.979 498.797 Q433.828 504.526 433.828 515.464 Q433.828 526.372 429.979 532.13 Q426.16 537.859 418.897 537.859 Q411.635 537.859 407.786 532.13 Q403.967 526.372 403.967 515.464 Q403.967 504.526 407.786 498.797 Q411.635 493.039 418.897 493.039 Z" fill="#000000" fill-rule="nonzero" fill-opacity="1" /><path clip-path="url(#clip700)" d="M456.6 497.668 Q452.086 497.668 449.8 502.124 Q447.543 506.552 447.543 515.464 Q447.543 524.347 449.8 528.803 Q452.086 533.23 456.6 533.23 Q461.142 533.23 463.399 528.803 Q465.685 524.347 465.685 515.464 Q465.685 506.552 463.399 502.124 Q461.142 497.668 456.6 497.668 M456.6 493.039 Q463.862 493.039 467.682 498.797 Q471.53 504.526 471.53 515.464 Q471.53 526.372 467.682 532.13 Q463.862 537.859 456.6 537.859 Q449.337 537.859 445.489 532.13 Q441.669 526.372 441.669 515.464 Q441.669 504.526 445.489 498.797 Q449.337 493.039 456.6 493.039 Z" fill="#000000" fill-rule="nonzero" fill-opacity="1" /><path clip-path="url(#clip700)" d="M494.302 497.668 Q489.788 497.668 487.502 502.124 Q485.245 506.552 485.245 515.464 Q485.245 524.347 487.502 528.803 Q489.788 533.23 494.302 533.23 Q498.845 533.23 501.102 528.803 Q503.388 524.347 503.388 515.464 Q503.388 506.552 501.102 502.124 Q498.845 497.668 494.302 497.668 M494.302 493.039 Q501.565 493.039 505.384 498.797 Q509.232 504.526 509.232 515.464 Q509.232 526.372 505.384 532.13 Q501.565 537.859 494.302 537.859 Q487.039 537.859 483.191 532.13 Q479.371 526.372 479.371 515.464 Q479.371 504.526 483.191 498.797 Q487.039 493.039 494.302 493.039 Z" fill="#000000" fill-rule="nonzero" fill-opacity="1" /><path clip-path="url(#clip700)" d="M318.985 366.09 L356.079 366.09 L356.079 371.009 L318.985 371.009 L318.985 366.09 Z" fill="#000000" fill-rule="nonzero" fill-opacity="1" /><path clip-path="url(#clip700)" d="M384.754 349.019 L369.997 372.08 L384.754 372.08 L384.754 349.019 M383.22 343.926 L390.57 343.926 L390.57 372.08 L396.733 372.08 L396.733 376.941 L390.57 376.941 L390.57 387.126 L384.754 387.126 L384.754 376.941 L365.252 376.941 L365.252 371.299 L383.22 343.926 Z" fill="#000000" fill-rule="nonzero" fill-opacity="1" /><path clip-path="url(#clip700)" d="M406.571 386.229 L406.571 380.905 Q408.77 381.947 411.027 382.497 Q413.284 383.046 415.454 383.046 Q421.241 383.046 424.279 379.169 Q427.346 375.263 427.78 367.335 Q426.102 369.823 423.527 371.154 Q420.952 372.485 417.827 372.485 Q411.345 372.485 407.555 368.579 Q403.793 364.644 403.793 357.844 Q403.793 351.189 407.728 347.167 Q411.663 343.145 418.203 343.145 Q425.697 343.145 429.632 348.903 Q433.596 354.632 433.596 365.57 Q433.596 375.784 428.735 381.889 Q423.903 387.965 415.714 387.965 Q413.515 387.965 411.258 387.531 Q409.001 387.097 406.571 386.229 M418.203 367.913 Q422.138 367.913 424.424 365.222 Q426.739 362.531 426.739 357.844 Q426.739 353.185 424.424 350.494 Q422.138 347.775 418.203 347.775 Q414.268 347.775 411.953 350.494 Q409.667 353.185 409.667 357.844 Q409.667 362.531 411.953 365.222 Q414.268 367.913 418.203 367.913 Z" fill="#000000" fill-rule="nonzero" fill-opacity="1" /><path clip-path="url(#clip700)" d="M456.6 347.775 Q452.086 347.775 449.8 352.231 Q447.543 356.658 447.543 365.57 Q447.543 374.453 449.8 378.909 Q452.086 383.336 456.6 383.336 Q461.142 383.336 463.399 378.909 Q465.685 374.453 465.685 365.57 Q465.685 356.658 463.399 352.231 Q461.142 347.775 456.6 347.775 M456.6 343.145 Q463.862 343.145 467.682 348.903 Q471.53 354.632 471.53 365.57 Q471.53 376.478 467.682 382.236 Q463.862 387.965 456.6 387.965 Q449.337 387.965 445.489 382.236 Q441.669 376.478 441.669 365.57 Q441.669 354.632 445.489 348.903 Q449.337 343.145 456.6 343.145 Z" fill="#000000" fill-rule="nonzero" fill-opacity="1" /><path clip-path="url(#clip700)" d="M494.302 347.775 Q489.788 347.775 487.502 352.231 Q485.245 356.658 485.245 365.57 Q485.245 374.453 487.502 378.909 Q489.788 383.336 494.302 383.336 Q498.845 383.336 501.102 378.909 Q503.388 374.453 503.388 365.57 Q503.388 356.658 501.102 352.231 Q498.845 347.775 494.302 347.775 M494.302 343.145 Q501.565 343.145 505.384 348.903 Q509.232 354.632 509.232 365.57 Q509.232 376.478 505.384 382.236 Q501.565 387.965 494.302 387.965 Q487.039 387.965 483.191 382.236 Q479.371 376.478 479.371 365.57 Q479.371 354.632 483.191 348.903 Q487.039 343.145 494.302 343.145 Z" fill="#000000" fill-rule="nonzero" fill-opacity="1" /><path clip-path="url(#clip700)" d="M318.985 216.197 L356.079 216.197 L356.079 221.115 L318.985 221.115 L318.985 216.197 Z" fill="#000000" fill-rule="nonzero" fill-opacity="1" /><path clip-path="url(#clip700)" d="M384.754 199.125 L369.997 222.186 L384.754 222.186 L384.754 199.125 M383.22 194.032 L390.57 194.032 L390.57 222.186 L396.733 222.186 L396.733 227.047 L390.57 227.047 L390.57 237.232 L384.754 237.232 L384.754 227.047 L365.252 227.047 L365.252 221.405 L383.22 194.032 Z" fill="#000000" fill-rule="nonzero" fill-opacity="1" /><path clip-path="url(#clip700)" d="M418.897 216.717 Q414.731 216.717 412.329 218.945 Q409.956 221.173 409.956 225.08 Q409.956 228.986 412.329 231.214 Q414.731 233.442 418.897 233.442 Q423.064 233.442 425.465 231.214 Q427.867 228.957 427.867 225.08 Q427.867 221.173 425.465 218.945 Q423.093 216.717 418.897 216.717 M413.052 214.229 Q409.291 213.303 407.179 210.728 Q405.095 208.153 405.095 204.449 Q405.095 199.27 408.77 196.26 Q412.474 193.251 418.897 193.251 Q425.35 193.251 429.024 196.26 Q432.699 199.27 432.699 204.449 Q432.699 208.153 430.587 210.728 Q428.504 213.303 424.771 214.229 Q428.996 215.213 431.339 218.077 Q433.712 220.942 433.712 225.08 Q433.712 231.358 429.864 234.715 Q426.044 238.071 418.897 238.071 Q411.75 238.071 407.902 234.715 Q404.082 231.358 404.082 225.08 Q404.082 220.942 406.455 218.077 Q408.828 215.213 413.052 214.229 M410.911 204.999 Q410.911 208.355 412.994 210.236 Q415.107 212.117 418.897 212.117 Q422.659 212.117 424.771 210.236 Q426.912 208.355 426.912 204.999 Q426.912 201.642 424.771 199.761 Q422.659 197.881 418.897 197.881 Q415.107 197.881 412.994 199.761 Q410.911 201.642 410.911 204.999 Z" fill="#000000" fill-rule="nonzero" fill-opacity="1" /><path clip-path="url(#clip700)" d="M456.6 197.881 Q452.086 197.881 449.8 202.337 Q447.543 206.764 447.543 215.676 Q447.543 224.559 449.8 229.015 Q452.086 233.442 456.6 233.442 Q461.142 233.442 463.399 229.015 Q465.685 224.559 465.685 215.676 Q465.685 206.764 463.399 202.337 Q461.142 197.881 456.6 197.881 M456.6 193.251 Q463.862 193.251 467.682 199.009 Q471.53 204.738 471.53 215.676 Q471.53 226.584 467.682 232.342 Q463.862 238.071 456.6 238.071 Q449.337 238.071 445.489 232.342 Q441.669 226.584 441.669 215.676 Q441.669 204.738 445.489 199.009 Q449.337 193.251 456.6 193.251 Z" fill="#000000" fill-rule="nonzero" fill-opacity="1" /><path clip-path="url(#clip700)" d="M494.302 197.881 Q489.788 197.881 487.502 202.337 Q485.245 206.764 485.245 215.676 Q485.245 224.559 487.502 229.015 Q489.788 233.442 494.302 233.442 Q498.845 233.442 501.102 229.015 Q503.388 224.559 503.388 215.676 Q503.388 206.764 501.102 202.337 Q498.845 197.881 494.302 197.881 M494.302 193.251 Q501.565 193.251 505.384 199.009 Q509.232 204.738 509.232 215.676 Q509.232 226.584 505.384 232.342 Q501.565 238.071 494.302 238.071 Q487.039 238.071 483.191 232.342 Q479.371 226.584 479.371 215.676 Q479.371 204.738 483.191 199.009 Q487.039 193.251 494.302 193.251 Z" fill="#000000" fill-rule="nonzero" fill-opacity="1" /><path clip-path="url(#clip700)" d="M226.492 975.897 L263.445 975.897 L263.445 968.131 Q263.445 958.296 258.989 953.745 Q254.533 949.161 244.921 949.161 Q235.372 949.161 230.948 953.745 Q226.492 958.296 226.492 968.131 L226.492 975.897 M221.209 982.327 L221.209 969.118 Q221.209 955.304 226.97 948.843 Q232.699 942.382 244.921 942.382 Q257.207 942.382 262.968 948.875 Q268.729 955.368 268.729 969.118 L268.729 982.327 L221.209 982.327 Z" fill="#000000" fill-rule="nonzero" fill-opacity="1" /><path clip-path="url(#clip700)" d="M250.809 916.187 Q250.809 923.285 252.432 926.022 Q254.056 928.759 257.971 928.759 Q261.09 928.759 262.936 926.722 Q264.75 924.654 264.75 921.121 Q264.75 916.251 261.313 913.323 Q257.843 910.363 252.114 910.363 L250.809 910.363 L250.809 916.187 M248.39 904.506 L268.729 904.506 L268.729 910.363 L263.318 910.363 Q266.564 912.368 268.124 915.36 Q269.652 918.351 269.652 922.68 Q269.652 928.155 266.596 931.401 Q263.509 934.616 258.352 934.616 Q252.337 934.616 249.281 930.605 Q246.226 926.563 246.226 918.574 L246.226 910.363 L245.653 910.363 Q241.611 910.363 239.414 913.036 Q237.186 915.678 237.186 920.484 Q237.186 923.54 237.919 926.436 Q238.651 929.332 240.115 932.006 L234.704 932.006 Q233.463 928.791 232.858 925.768 Q232.221 922.744 232.221 919.879 Q232.221 912.145 236.232 908.325 Q240.242 904.506 248.39 904.506 Z" fill="#000000" fill-rule="nonzero" fill-opacity="1" /><path clip-path="url(#clip700)" d="M222.959 886.65 L233.081 886.65 L233.081 874.587 L237.632 874.587 L237.632 886.65 L256.984 886.65 Q261.344 886.65 262.586 885.473 Q263.827 884.263 263.827 880.603 L263.827 874.587 L268.729 874.587 L268.729 880.603 Q268.729 887.382 266.214 889.96 Q263.668 892.539 256.984 892.539 L237.632 892.539 L237.632 896.835 L233.081 896.835 L233.081 892.539 L222.959 892.539 L222.959 886.65 Z" fill="#000000" fill-rule="nonzero" fill-opacity="1" /><path clip-path="url(#clip700)" d="M250.809 850.684 Q250.809 857.782 252.432 860.519 Q254.056 863.256 257.971 863.256 Q261.09 863.256 262.936 861.219 Q264.75 859.15 264.75 855.617 Q264.75 850.748 261.313 847.819 Q257.843 844.859 252.114 844.859 L250.809 844.859 L250.809 850.684 M248.39 839.003 L268.729 839.003 L268.729 844.859 L263.318 844.859 Q266.564 846.865 268.124 849.856 Q269.652 852.848 269.652 857.177 Q269.652 862.652 266.596 865.898 Q263.509 869.113 258.352 869.113 Q252.337 869.113 249.281 865.102 Q246.226 861.06 246.226 853.071 L246.226 844.859 L245.653 844.859 Q241.611 844.859 239.414 847.533 Q237.186 850.175 237.186 854.981 Q237.186 858.036 237.919 860.933 Q238.651 863.829 240.115 866.503 L234.704 866.503 Q233.463 863.288 232.858 860.264 Q232.221 857.241 232.221 854.376 Q232.221 846.642 236.232 842.822 Q240.242 839.003 248.39 839.003 Z" fill="#000000" fill-rule="nonzero" fill-opacity="1" /><path clip-path="url(#clip700)" d="M219.203 806.22 L219.203 800.363 L268.729 800.363 L268.729 806.22 L219.203 806.22 Z" fill="#000000" fill-rule="nonzero" fill-opacity="1" /><path clip-path="url(#clip700)" d="M237.186 774.296 Q237.186 779.006 240.879 781.743 Q244.539 784.481 250.936 784.481 Q257.334 784.481 261.026 781.775 Q264.686 779.038 264.686 774.296 Q264.686 769.617 260.994 766.879 Q257.302 764.142 250.936 764.142 Q244.603 764.142 240.91 766.879 Q237.186 769.617 237.186 774.296 M232.221 774.296 Q232.221 766.657 237.186 762.296 Q242.152 757.936 250.936 757.936 Q259.689 757.936 264.686 762.296 Q269.652 766.657 269.652 774.296 Q269.652 781.966 264.686 786.327 Q259.689 790.655 250.936 790.655 Q242.152 790.655 237.186 786.327 Q232.221 781.966 232.221 774.296 Z" fill="#000000" fill-rule="nonzero" fill-opacity="1" /><path clip-path="url(#clip700)" d="M250.491 724.77 Q244.125 724.77 240.624 727.412 Q237.123 730.022 237.123 734.764 Q237.123 739.475 240.624 742.117 Q244.125 744.727 250.491 744.727 Q256.825 744.727 260.326 742.117 Q263.827 739.475 263.827 734.764 Q263.827 730.022 260.326 727.412 Q256.825 724.77 250.491 724.77 M264.304 718.914 Q273.407 718.914 277.832 722.956 Q282.288 726.998 282.288 735.337 Q282.288 738.425 281.81 741.162 Q281.364 743.899 280.41 746.477 L274.712 746.477 Q276.113 743.899 276.781 741.385 Q277.45 738.87 277.45 736.26 Q277.45 730.499 274.426 727.635 Q271.434 724.77 265.355 724.77 L262.458 724.77 Q265.609 726.585 267.169 729.417 Q268.729 732.25 268.729 736.197 Q268.729 742.753 263.731 746.764 Q258.734 750.774 250.491 750.774 Q242.215 750.774 237.218 746.764 Q232.221 742.753 232.221 736.197 Q232.221 732.25 233.781 729.417 Q235.34 726.585 238.491 724.77 L233.081 724.77 L233.081 718.914 L264.304 718.914 Z" fill="#000000" fill-rule="nonzero" fill-opacity="1" /><path clip-path="url(#clip700)" d="M248.263 709.811 L248.263 692.655 L253.483 692.655 L253.483 709.811 L248.263 709.811 Z" fill="#000000" fill-rule="nonzero" fill-opacity="1" /><path clip-path="url(#clip700)" d="M219.203 683.33 L219.203 677.473 L268.729 677.473 L268.729 683.33 L219.203 683.33 Z" fill="#000000" fill-rule="nonzero" fill-opacity="1" /><path clip-path="url(#clip700)" d="M233.081 665.219 L233.081 659.363 L268.729 659.363 L268.729 665.219 L233.081 665.219 M219.203 665.219 L219.203 659.363 L226.619 659.363 L226.619 665.219 L219.203 665.219 Z" fill="#000000" fill-rule="nonzero" fill-opacity="1" /><path clip-path="url(#clip700)" d="M219.203 647.332 L219.203 641.443 L248.454 641.443 L233.081 623.969 L233.081 616.49 L249.759 635.396 L268.729 615.694 L268.729 623.333 L251.318 641.443 L268.729 641.443 L268.729 647.332 L219.203 647.332 Z" fill="#000000" fill-rule="nonzero" fill-opacity="1" /><path clip-path="url(#clip700)" d="M249.44 581.192 L252.305 581.192 L252.305 608.119 Q258.352 607.737 261.535 604.49 Q264.686 601.212 264.686 595.387 Q264.686 592.014 263.859 588.863 Q263.031 585.68 261.376 582.56 L266.914 582.56 Q268.251 585.711 268.951 589.022 Q269.652 592.332 269.652 595.737 Q269.652 604.268 264.686 609.265 Q259.721 614.23 251.255 614.23 Q242.502 614.23 237.377 609.519 Q232.221 604.777 232.221 596.756 Q232.221 589.563 236.868 585.393 Q241.483 581.192 249.44 581.192 M247.722 587.048 Q242.916 587.112 240.051 589.754 Q237.186 592.364 237.186 596.692 Q237.186 601.594 239.956 604.554 Q242.725 607.482 247.754 607.928 L247.722 587.048 Z" fill="#000000" fill-rule="nonzero" fill-opacity="1" /><path clip-path="url(#clip700)" d="M219.203 571.58 L219.203 565.723 L268.729 565.723 L268.729 571.58 L219.203 571.58 Z" fill="#000000" fill-rule="nonzero" fill-opacity="1" /><path clip-path="url(#clip700)" d="M233.081 553.469 L233.081 547.613 L268.729 547.613 L268.729 553.469 L233.081 553.469 M219.203 553.469 L219.203 547.613 L226.619 547.613 L226.619 553.469 L219.203 553.469 Z" fill="#000000" fill-rule="nonzero" fill-opacity="1" /><path clip-path="url(#clip700)" d="M247.212 505.726 L268.729 505.726 L268.729 511.583 L247.403 511.583 Q242.343 511.583 239.828 513.556 Q237.314 515.53 237.314 519.476 Q237.314 524.219 240.338 526.956 Q243.361 529.693 248.581 529.693 L268.729 529.693 L268.729 535.582 L219.203 535.582 L219.203 529.693 L238.619 529.693 Q235.404 527.593 233.813 524.76 Q232.221 521.895 232.221 518.171 Q232.221 512.028 236.041 508.877 Q239.828 505.726 247.212 505.726 Z" fill="#000000" fill-rule="nonzero" fill-opacity="1" /><path clip-path="url(#clip700)" d="M237.186 480.232 Q237.186 484.942 240.879 487.68 Q244.539 490.417 250.936 490.417 Q257.334 490.417 261.026 487.711 Q264.686 484.974 264.686 480.232 Q264.686 475.553 260.994 472.816 Q257.302 470.078 250.936 470.078 Q244.603 470.078 240.91 472.816 Q237.186 475.553 237.186 480.232 M232.221 480.232 Q232.221 472.593 237.186 468.232 Q242.152 463.872 250.936 463.872 Q259.689 463.872 264.686 468.232 Q269.652 472.593 269.652 480.232 Q269.652 487.902 264.686 492.263 Q259.689 496.592 250.936 496.592 Q242.152 496.592 237.186 492.263 Q232.221 487.902 232.221 480.232 Z" fill="#000000" fill-rule="nonzero" fill-opacity="1" /><path clip-path="url(#clip700)" d="M237.186 440.351 Q237.186 445.061 240.879 447.798 Q244.539 450.536 250.936 450.536 Q257.334 450.536 261.026 447.83 Q264.686 445.093 264.686 440.351 Q264.686 435.672 260.994 432.935 Q257.302 430.197 250.936 430.197 Q244.603 430.197 240.91 432.935 Q237.186 435.672 237.186 440.351 M232.221 440.351 Q232.221 432.712 237.186 428.351 Q242.152 423.991 250.936 423.991 Q259.689 423.991 264.686 428.351 Q269.652 432.712 269.652 440.351 Q269.652 448.021 264.686 452.382 Q259.689 456.71 250.936 456.71 Q242.152 456.71 237.186 452.382 Q232.221 448.021 232.221 440.351 Z" fill="#000000" fill-rule="nonzero" fill-opacity="1" /><path clip-path="url(#clip700)" d="M238.491 390.825 L219.203 390.825 L219.203 384.969 L268.729 384.969 L268.729 390.825 L263.381 390.825 Q266.564 392.671 268.124 395.504 Q269.652 398.305 269.652 402.252 Q269.652 408.713 264.495 412.787 Q259.339 416.829 250.936 416.829 Q242.534 416.829 237.377 412.787 Q232.221 408.713 232.221 402.252 Q232.221 398.305 233.781 395.504 Q235.309 392.671 238.491 390.825 M250.936 410.782 Q257.398 410.782 261.09 408.14 Q264.75 405.466 264.75 400.82 Q264.75 396.173 261.09 393.499 Q257.398 390.825 250.936 390.825 Q244.475 390.825 240.815 393.499 Q237.123 396.173 237.123 400.82 Q237.123 405.466 240.815 408.14 Q244.475 410.782 250.936 410.782 Z" fill="#000000" fill-rule="nonzero" fill-opacity="1" /><polyline clip-path="url(#clip702)" style="stroke:#000080; stroke-linecap:round; stroke-linejoin:round; stroke-width:8; stroke-opacity:1; fill:none" points="594.16,1209.75 621.803,659.848 649.446,558.906 677.089,509.276 704.732,478.381 732.374,454.427 760.017,434.498 787.66,417.238 815.303,400.624 842.946,384.658 870.589,368.03 898.231,349.634 925.874,331.246 953.517,313.856 981.16,294.928 1008.8,274.785 1036.45,257.056 1064.09,242.657 1091.73,229.918 1119.37,220.41 1147.02,213.215 1174.66,207.621 1202.3,202.873 1229.95,198.742 1257.59,195.072 1285.23,191.657 1312.87,188.52 1340.52,185.739 1368.16,183.343 1395.8,181.152 1423.45,179.293 1451.09,177.659 1478.73,176.192 1506.37,174.888 1534.02,173.729 1561.66,172.542 1589.3,171.43 1616.95,170.36 1644.59,169.323 1672.23,168.43 1699.87,167.552 1727.52,166.671 1755.16,165.939 1782.8,165.248 1810.45,164.638 1838.09,163.862 1865.73,163.283 1893.37,162.733 1921.02,162.199 1948.66,161.706 1976.3,161.175 2003.95,160.73 2031.59,160.307 2059.23,159.9 2086.87,159.493 2114.52,159.1 2142.16,158.717 2169.8,158.286 2197.45,157.911 2225.09,157.55 "/>
<circle clip-path="url(#clip702)" cx="594.16" cy="1209.75" r="10.8" fill="#000080" fill-rule="evenodd" fill-opacity="1" stroke="#000000" stroke-opacity="1" stroke-width="3.2"/>
<circle clip-path="url(#clip702)" cx="621.803" cy="659.848" r="10.8" fill="#000080" fill-rule="evenodd" fill-opacity="1" stroke="#000000" stroke-opacity="1" stroke-width="3.2"/>
<circle clip-path="url(#clip702)" cx="649.446" cy="558.906" r="10.8" fill="#000080" fill-rule="evenodd" fill-opacity="1" stroke="#000000" stroke-opacity="1" stroke-width="3.2"/>
<circle clip-path="url(#clip702)" cx="677.089" cy="509.276" r="10.8" fill="#000080" fill-rule="evenodd" fill-opacity="1" stroke="#000000" stroke-opacity="1" stroke-width="3.2"/>
<circle clip-path="url(#clip702)" cx="704.732" cy="478.381" r="10.8" fill="#000080" fill-rule="evenodd" fill-opacity="1" stroke="#000000" stroke-opacity="1" stroke-width="3.2"/>
<circle clip-path="url(#clip702)" cx="732.374" cy="454.427" r="10.8" fill="#000080" fill-rule="evenodd" fill-opacity="1" stroke="#000000" stroke-opacity="1" stroke-width="3.2"/>
<circle clip-path="url(#clip702)" cx="760.017" cy="434.498" r="10.8" fill="#000080" fill-rule="evenodd" fill-opacity="1" stroke="#000000" stroke-opacity="1" stroke-width="3.2"/>
<circle clip-path="url(#clip702)" cx="787.66" cy="417.238" r="10.8" fill="#000080" fill-rule="evenodd" fill-opacity="1" stroke="#000000" stroke-opacity="1" stroke-width="3.2"/>
<circle clip-path="url(#clip702)" cx="815.303" cy="400.624" r="10.8" fill="#000080" fill-rule="evenodd" fill-opacity="1" stroke="#000000" stroke-opacity="1" stroke-width="3.2"/>
<circle clip-path="url(#clip702)" cx="842.946" cy="384.658" r="10.8" fill="#000080" fill-rule="evenodd" fill-opacity="1" stroke="#000000" stroke-opacity="1" stroke-width="3.2"/>
<circle clip-path="url(#clip702)" cx="870.589" cy="368.03" r="10.8" fill="#000080" fill-rule="evenodd" fill-opacity="1" stroke="#000000" stroke-opacity="1" stroke-width="3.2"/>
<circle clip-path="url(#clip702)" cx="898.231" cy="349.634" r="10.8" fill="#000080" fill-rule="evenodd" fill-opacity="1" stroke="#000000" stroke-opacity="1" stroke-width="3.2"/>
<circle clip-path="url(#clip702)" cx="925.874" cy="331.246" r="10.8" fill="#000080" fill-rule="evenodd" fill-opacity="1" stroke="#000000" stroke-opacity="1" stroke-width="3.2"/>
<circle clip-path="url(#clip702)" cx="953.517" cy="313.856" r="10.8" fill="#000080" fill-rule="evenodd" fill-opacity="1" stroke="#000000" stroke-opacity="1" stroke-width="3.2"/>
<circle clip-path="url(#clip702)" cx="981.16" cy="294.928" r="10.8" fill="#000080" fill-rule="evenodd" fill-opacity="1" stroke="#000000" stroke-opacity="1" stroke-width="3.2"/>
<circle clip-path="url(#clip702)" cx="1008.8" cy="274.785" r="10.8" fill="#000080" fill-rule="evenodd" fill-opacity="1" stroke="#000000" stroke-opacity="1" stroke-width="3.2"/>
<circle clip-path="url(#clip702)" cx="1036.45" cy="257.056" r="10.8" fill="#000080" fill-rule="evenodd" fill-opacity="1" stroke="#000000" stroke-opacity="1" stroke-width="3.2"/>
<circle clip-path="url(#clip702)" cx="1064.09" cy="242.657" r="10.8" fill="#000080" fill-rule="evenodd" fill-opacity="1" stroke="#000000" stroke-opacity="1" stroke-width="3.2"/>
<circle clip-path="url(#clip702)" cx="1091.73" cy="229.918" r="10.8" fill="#000080" fill-rule="evenodd" fill-opacity="1" stroke="#000000" stroke-opacity="1" stroke-width="3.2"/>
<circle clip-path="url(#clip702)" cx="1119.37" cy="220.41" r="10.8" fill="#000080" fill-rule="evenodd" fill-opacity="1" stroke="#000000" stroke-opacity="1" stroke-width="3.2"/>
<circle clip-path="url(#clip702)" cx="1147.02" cy="213.215" r="10.8" fill="#000080" fill-rule="evenodd" fill-opacity="1" stroke="#000000" stroke-opacity="1" stroke-width="3.2"/>
<circle clip-path="url(#clip702)" cx="1174.66" cy="207.621" r="10.8" fill="#000080" fill-rule="evenodd" fill-opacity="1" stroke="#000000" stroke-opacity="1" stroke-width="3.2"/>
<circle clip-path="url(#clip702)" cx="1202.3" cy="202.873" r="10.8" fill="#000080" fill-rule="evenodd" fill-opacity="1" stroke="#000000" stroke-opacity="1" stroke-width="3.2"/>
<circle clip-path="url(#clip702)" cx="1229.95" cy="198.742" r="10.8" fill="#000080" fill-rule="evenodd" fill-opacity="1" stroke="#000000" stroke-opacity="1" stroke-width="3.2"/>
<circle clip-path="url(#clip702)" cx="1257.59" cy="195.072" r="10.8" fill="#000080" fill-rule="evenodd" fill-opacity="1" stroke="#000000" stroke-opacity="1" stroke-width="3.2"/>
<circle clip-path="url(#clip702)" cx="1285.23" cy="191.657" r="10.8" fill="#000080" fill-rule="evenodd" fill-opacity="1" stroke="#000000" stroke-opacity="1" stroke-width="3.2"/>
<circle clip-path="url(#clip702)" cx="1312.87" cy="188.52" r="10.8" fill="#000080" fill-rule="evenodd" fill-opacity="1" stroke="#000000" stroke-opacity="1" stroke-width="3.2"/>
<circle clip-path="url(#clip702)" cx="1340.52" cy="185.739" r="10.8" fill="#000080" fill-rule="evenodd" fill-opacity="1" stroke="#000000" stroke-opacity="1" stroke-width="3.2"/>
<circle clip-path="url(#clip702)" cx="1368.16" cy="183.343" r="10.8" fill="#000080" fill-rule="evenodd" fill-opacity="1" stroke="#000000" stroke-opacity="1" stroke-width="3.2"/>
<circle clip-path="url(#clip702)" cx="1395.8" cy="181.152" r="10.8" fill="#000080" fill-rule="evenodd" fill-opacity="1" stroke="#000000" stroke-opacity="1" stroke-width="3.2"/>
<circle clip-path="url(#clip702)" cx="1423.45" cy="179.293" r="10.8" fill="#000080" fill-rule="evenodd" fill-opacity="1" stroke="#000000" stroke-opacity="1" stroke-width="3.2"/>
<circle clip-path="url(#clip702)" cx="1451.09" cy="177.659" r="10.8" fill="#000080" fill-rule="evenodd" fill-opacity="1" stroke="#000000" stroke-opacity="1" stroke-width="3.2"/>
<circle clip-path="url(#clip702)" cx="1478.73" cy="176.192" r="10.8" fill="#000080" fill-rule="evenodd" fill-opacity="1" stroke="#000000" stroke-opacity="1" stroke-width="3.2"/>
<circle clip-path="url(#clip702)" cx="1506.37" cy="174.888" r="10.8" fill="#000080" fill-rule="evenodd" fill-opacity="1" stroke="#000000" stroke-opacity="1" stroke-width="3.2"/>
<circle clip-path="url(#clip702)" cx="1534.02" cy="173.729" r="10.8" fill="#000080" fill-rule="evenodd" fill-opacity="1" stroke="#000000" stroke-opacity="1" stroke-width="3.2"/>
<circle clip-path="url(#clip702)" cx="1561.66" cy="172.542" r="10.8" fill="#000080" fill-rule="evenodd" fill-opacity="1" stroke="#000000" stroke-opacity="1" stroke-width="3.2"/>
<circle clip-path="url(#clip702)" cx="1589.3" cy="171.43" r="10.8" fill="#000080" fill-rule="evenodd" fill-opacity="1" stroke="#000000" stroke-opacity="1" stroke-width="3.2"/>
<circle clip-path="url(#clip702)" cx="1616.95" cy="170.36" r="10.8" fill="#000080" fill-rule="evenodd" fill-opacity="1" stroke="#000000" stroke-opacity="1" stroke-width="3.2"/>
<circle clip-path="url(#clip702)" cx="1644.59" cy="169.323" r="10.8" fill="#000080" fill-rule="evenodd" fill-opacity="1" stroke="#000000" stroke-opacity="1" stroke-width="3.2"/>
<circle clip-path="url(#clip702)" cx="1672.23" cy="168.43" r="10.8" fill="#000080" fill-rule="evenodd" fill-opacity="1" stroke="#000000" stroke-opacity="1" stroke-width="3.2"/>
<circle clip-path="url(#clip702)" cx="1699.87" cy="167.552" r="10.8" fill="#000080" fill-rule="evenodd" fill-opacity="1" stroke="#000000" stroke-opacity="1" stroke-width="3.2"/>
<circle clip-path="url(#clip702)" cx="1727.52" cy="166.671" r="10.8" fill="#000080" fill-rule="evenodd" fill-opacity="1" stroke="#000000" stroke-opacity="1" stroke-width="3.2"/>
<circle clip-path="url(#clip702)" cx="1755.16" cy="165.939" r="10.8" fill="#000080" fill-rule="evenodd" fill-opacity="1" stroke="#000000" stroke-opacity="1" stroke-width="3.2"/>
<circle clip-path="url(#clip702)" cx="1782.8" cy="165.248" r="10.8" fill="#000080" fill-rule="evenodd" fill-opacity="1" stroke="#000000" stroke-opacity="1" stroke-width="3.2"/>
<circle clip-path="url(#clip702)" cx="1810.45" cy="164.638" r="10.8" fill="#000080" fill-rule="evenodd" fill-opacity="1" stroke="#000000" stroke-opacity="1" stroke-width="3.2"/>
<circle clip-path="url(#clip702)" cx="1838.09" cy="163.862" r="10.8" fill="#000080" fill-rule="evenodd" fill-opacity="1" stroke="#000000" stroke-opacity="1" stroke-width="3.2"/>
<circle clip-path="url(#clip702)" cx="1865.73" cy="163.283" r="10.8" fill="#000080" fill-rule="evenodd" fill-opacity="1" stroke="#000000" stroke-opacity="1" stroke-width="3.2"/>
<circle clip-path="url(#clip702)" cx="1893.37" cy="162.733" r="10.8" fill="#000080" fill-rule="evenodd" fill-opacity="1" stroke="#000000" stroke-opacity="1" stroke-width="3.2"/>
<circle clip-path="url(#clip702)" cx="1921.02" cy="162.199" r="10.8" fill="#000080" fill-rule="evenodd" fill-opacity="1" stroke="#000000" stroke-opacity="1" stroke-width="3.2"/>
<circle clip-path="url(#clip702)" cx="1948.66" cy="161.706" r="10.8" fill="#000080" fill-rule="evenodd" fill-opacity="1" stroke="#000000" stroke-opacity="1" stroke-width="3.2"/>
<circle clip-path="url(#clip702)" cx="1976.3" cy="161.175" r="10.8" fill="#000080" fill-rule="evenodd" fill-opacity="1" stroke="#000000" stroke-opacity="1" stroke-width="3.2"/>
<circle clip-path="url(#clip702)" cx="2003.95" cy="160.73" r="10.8" fill="#000080" fill-rule="evenodd" fill-opacity="1" stroke="#000000" stroke-opacity="1" stroke-width="3.2"/>
<circle clip-path="url(#clip702)" cx="2031.59" cy="160.307" r="10.8" fill="#000080" fill-rule="evenodd" fill-opacity="1" stroke="#000000" stroke-opacity="1" stroke-width="3.2"/>
<circle clip-path="url(#clip702)" cx="2059.23" cy="159.9" r="10.8" fill="#000080" fill-rule="evenodd" fill-opacity="1" stroke="#000000" stroke-opacity="1" stroke-width="3.2"/>
<circle clip-path="url(#clip702)" cx="2086.87" cy="159.493" r="10.8" fill="#000080" fill-rule="evenodd" fill-opacity="1" stroke="#000000" stroke-opacity="1" stroke-width="3.2"/>
<circle clip-path="url(#clip702)" cx="2114.52" cy="159.1" r="10.8" fill="#000080" fill-rule="evenodd" fill-opacity="1" stroke="#000000" stroke-opacity="1" stroke-width="3.2"/>
<circle clip-path="url(#clip702)" cx="2142.16" cy="158.717" r="10.8" fill="#000080" fill-rule="evenodd" fill-opacity="1" stroke="#000000" stroke-opacity="1" stroke-width="3.2"/>
<circle clip-path="url(#clip702)" cx="2169.8" cy="158.286" r="10.8" fill="#000080" fill-rule="evenodd" fill-opacity="1" stroke="#000000" stroke-opacity="1" stroke-width="3.2"/>
<circle clip-path="url(#clip702)" cx="2197.45" cy="157.911" r="10.8" fill="#000080" fill-rule="evenodd" fill-opacity="1" stroke="#000000" stroke-opacity="1" stroke-width="3.2"/>
<circle clip-path="url(#clip702)" cx="2225.09" cy="157.55" r="10.8" fill="#000080" fill-rule="evenodd" fill-opacity="1" stroke="#000000" stroke-opacity="1" stroke-width="3.2"/>
</svg>
